<svg width="300" height="300" version="1.1" viewBox="0 0 300 300" xml:space="preserve" xmlns="http://www.w3.org/2000/svg" xmlns:xlink="http://www.w3.org/1999/xlink"><defs><linearGradient id="c" x2="300" y1="150" y2="150" gradientTransform="matrix(1 0 0 .3333333 0 101.6667)" gradientUnits="userSpaceOnUse"><stop stop-color="#62626b" offset="0"/><stop stop-color="#62626b" offset=".1"/><stop stop-color="#2b8eb2" offset=".1"/><stop stop-color="#2b8eb2" offset=".2"/><stop stop-color="#4cd0a7" offset=".2"/><stop stop-color="#4cd0a7" offset=".3"/><stop stop-color="#f6cb51" offset=".3"/><stop stop-color="#f6cb51" offset=".4"/><stop stop-color="#ff9939" offset=".4"/><stop stop-color="#ff9939" offset=".5"/><stop stop-color="#e52a18" offset=".5"/><stop stop-color="#e52a18" offset=".6"/><stop stop-color="#c31b1b" offset=".6"/><stop stop-color="#c31b1b" offset=".7"/><stop stop-color="#a50c6b" offset=".7"/><stop stop-color="#a50c6b" offset=".8"/><stop stop-color="#930a7a" offset=".8"/><stop stop-color="#930a7a" offset=".9"/><stop stop-color="#5f0ca2" offset=".9"/><stop stop-color="#5f0ca2" offset="1"/></linearGradient><linearGradient id="a" x1="390" x2="390" y1="300" gradientTransform="translate(-240)" gradientUnits="userSpaceOnUse"><stop stop-color="#d4d6d9" offset="0"/><stop stop-color="#dbdde0" offset="1"/></linearGradient><filter id="b" x="-.123776" y="-.4277972" width="1.247552" height="1.855594" color-interpolation-filters="sRGB"><feGaussianBlur stdDeviation="15.472"/></filter><clipPath id="d"><path class="blocklyPath blocklyBlockBackground" d="m0 122h30.4c9.7 0 15.1 4.3 19.4 9.7l19.4 24.4c4.3 5.4 9.7 9.7 19.4 9.7h58.1c9.7 0 15.1-4.3 19.4-9.7l19.4-24.4c4.1-5.4 9.6-9.7 19.2-9.7h95.3v48h-95.3c-9.7 0-14.5 4.8-19.4 9.7l-19.4 19.4c-4.8 4.8-9.7 9.7-19.4 9.7h-58c-9.7 0-14.5-4.8-19.4-9.7l-19.4-19.4c-4.8-4.9-9.7-9.7-19.3-9.7h-30.4z"/></clipPath></defs><rect width="300" height="300" rx="64" ry="64" fill="url(#a)"/><g clip-path="url(#d)"><path d="m0 122 10-10h280l10 10v48l-40 40h-220l-40-40z" fill="url(#c)"/><path class="blocklyPath blocklyBlockBackground" d="m0 92h30.4c9.7 0 15.1 4.3 19.4 9.7l19.4 24.4c4.3 5.4 9.7 9.7 19.4 9.7h58.1c9.7 0 15.1-4.3 19.4-9.7l19.4-24.4c4.1-5.4 9.6-9.7 19.2-9.7h95.3v48h-95.3c-9.7 0-14.5 4.8-19.4 9.7l-19.4 19.4c-4.8 4.8-9.7 9.7-19.4 9.7h-58c-9.7 0-14.5-4.8-19.4-9.7l-19.4-19.4c-4.8-4.9-9.7-9.7-19.3-9.7h-30.4z" filter="url(#b)" opacity=".2"/></g></svg>
