<?xml version="1.0" encoding="UTF-8"?>
<svg width="480" height="360" version="1.1" viewBox="0 0 480 360" xmlns="http://www.w3.org/2000/svg">
 <g dominant-baseline="central" fill="#fff" aria-label="宗谷東方沖">
  <path d="m251.02 172.42h7.7832v4.3164h-2.1777v-2.5391h-13.311v2.5391h-2.1387v-4.3164h7.666v-1.9238h2.1777zm0.21485 9.4336v5.8594q0 0.92774-0.3125 1.3281-0.39063 0.49805-1.7774 0.49805-1.7871 0-3.0664-0.16602l-0.32227-2.0606q1.416 0.24414 2.8027 0.24414 0.39062 0 0.44922-0.15625 0.0488-0.11718 0.0488-0.38086v-5.166h-8.4766v-1.8555h18.857v1.8555zm-7.2168-5.5957h11.963v1.7188h-11.963zm-3.418 10.693q2.1777-1.6308 3.457-4.3164l2.002 0.91797q-1.4453 3.0664-3.7402 4.9219zm16.865 1.2598q-1.4648-2.373-3.6035-4.6191l1.582-1.2207q2.373 2.2266 3.7793 4.3848z" dominant-baseline="central"/>
  <path d="m265.69 188.42v1.084h-2.2168v-7.7148q-0.73242 0.42969-1.8359 0.98633l-1.2598-1.8359q2.959-1.1621 5.0488-3.0078 1.7969-1.6016 3.1641-3.8965h2.4121q3.0176 4.043 8.6133 6.4453l-1.1914 1.8945q-0.96679-0.47852-1.6602-0.85938l-0.24414-0.12695v8.1152h-2.2363v-1.084zm-1.0449-7.3438h11.338q-3.623-2.1973-6.123-5.1758-1.3477 2.0508-3.0273 3.5254-0.94727 0.82031-2.1875 1.6504zm9.6387 1.8359h-8.5938v3.6035h8.5938zm-13.408-7.4316q1.5234-0.83008 2.6172-1.7676 1.3574-1.1524 2.5488-2.832l1.8359 1.0547q-2.1484 3.2227-5.3809 5.2246zm16.26 1.2988q-2.6856-2.8613-5.3613-4.9023l1.582-1.1816q2.6172 1.7578 5.3418 4.502z" dominant-baseline="central"/>
  <path d="m293.2 183.15q2.4219 2.1582 6.5234 3.4863l-1.2598 1.8359q-2.3633-0.83984-4.1211-2.0312-1.8164-1.2402-3.3496-3.0469v6.1035h-2.1191v-5.9961q-1.3574 1.9043-3.5059 3.418-1.6504 1.1621-3.5352 1.875l-1.3379-1.7188q3.0957-1.0254 5.166-2.7637 0.58594-0.48829 1.1914-1.1621h-4.6973v-7.998h6.7188v-1.3184h-8.0957v-1.7578h8.0957v-1.582h2.1191v1.582h8.2227v1.7578h-8.2227v1.3184h6.8457v7.998zm-4.3262-6.3574h-4.5996v1.582h4.5996zm2.1191 0v1.582h4.7266v-1.582zm-2.1191 3.1055h-4.5996v1.6113h4.5996zm2.1191 0v1.6113h4.7266v-1.6113z" dominant-baseline="central"/>
  <path d="m309.48 175.76q-0.0684 1.6309-0.19531 2.8711h7.8711q-0.14648 6.7774-0.76172 8.7988-0.3125 1.0156-1.1621 1.4062-0.66406 0.30273-1.9434 0.30273-1.3477 0-3.0566-0.20507l-0.38085-2.1973q2.2949 0.32227 3.2324 0.32227 0.79101 0 1.0059-0.44922 0.51757-1.0938 0.72265-6.0352h-5.8105q-0.32227 1.7578-0.90821 3.0469-1.6309 3.5644-5.4492 5.6543l-1.543-1.7188q3.8281-1.9922 5.0586-5.2246 0.82031-2.1582 1.0644-6.5723h-6.4648v-2.002h7.9785v-3.2617h2.2559v3.2617h8.2422v2.002z" dominant-baseline="central"/>
  <path d="m331.58 174.14v-3.6426h2.0996v3.6426h5.293v8.8379h-5.293v6.5234h-2.0996v-6.5234h-5.1856v-8.8379zm-3.1641 1.9434v4.9707h3.1641v-4.9707zm8.4766 4.9707v-4.9707h-3.2129v4.9707zm-12.5-5.7812q-1.1914-1.6602-3.1543-3.1738l1.4551-1.4844q1.9531 1.377 3.3008 3.0859zm-0.63476 5.0195q-1.6992-1.9727-3.3008-3.2324l1.5039-1.5039q1.709 1.2012 3.3789 3.1055zm-3.0371 7.5684q1.875-2.666 3.457-6.6406l1.7383 1.3379q-1.3379 3.6621-3.2617 6.8945z" dominant-baseline="central"/>
 </g>
</svg>
