<?xml version="1.0" encoding="UTF-8"?>
<svg width="480" height="360" version="1.1" viewBox="0 0 480 360" xmlns="http://www.w3.org/2000/svg">
 <g dominant-baseline="central" fill="#fff" aria-label="十勝沖">
  <path d="m248.82 177.46v-6.9629h2.2363v6.9629h8.4473v2.041h-8.4473v10h-2.2363v-10h-8.3203v-2.041z" dominant-baseline="central"/>
  <path d="m275.45 183.5h-2.0801q-0.78125 4.2188-4.7559 6.0449l-1.3867-1.5234q1.9922-0.76172 3.0274-2.1777 0.81054-1.123 1.1035-2.3438h-2.2852v-1.0449q-0.49805 0.43945-1.1426 0.88867l-0.87891-1.2988v5.6934q0 0.85938-0.35156 1.2402-0.36133 0.38086-1.1914 0.38086-0.67383 0-1.8555-0.17578l-0.34179-1.9238q0.88867 0.16601 1.4551 0.16601 0.3125 0 0.41993-0.10742 0.12695-0.12695 0.12695-0.43945v-4.4238h-2.1484q-0.0391 2.1875-0.2539 3.4766-0.29297 1.7676-1.2891 3.6524l-1.4844-1.543q0.84961-1.6894 1.0938-3.9648 0.14648-1.3574 0.14648-3.1738v-9.5801h5.6738v10.176q1.5625-0.85937 2.4902-2.1387h-2.1484v-1.6797h2.9688q0.29297-0.69336 0.5957-1.6016h-3.1055v-1.6797h1.4453q-0.69335-1.6992-1.4258-2.7734l1.7578-0.76172q0.86914 1.3086 1.4648 2.7539l-1.6992 0.78125h2.0117q0.37109-1.6406 0.625-3.9551l2.0215 0.13672q-0.26367 2.002-0.66406 3.8184h3.2031l-1.543-0.55664q0.72265-1.3281 1.3184-3.0762l1.9629 0.57617q-0.47852 1.2793-1.543 3.0566h2.002v1.6797h-3.4766q0.36133 0.83008 0.83008 1.6016h3.3301v1.6797h-2.0703q1.1426 1.1816 2.3242 1.8555l-1.0547 1.7871q-0.77148-0.55664-1.2598-0.9961-0.01 0.14649-0.01 0.38086-0.0684 4.7559-0.47851 5.8301-0.26367 0.68359-0.87891 0.9375-0.44922 0.18555-1.2402 0.18555-0.85938 0-2.0312-0.13672l-0.41992-1.9238q1.2891 0.24414 2.0508 0.24414 0.53711 0 0.67382-0.3418 0.23438-0.53711 0.3711-3.6816zm-1.8945-1.6797h3.6523q-1.2012-1.123-2.0508-2.4609h-3.584q-0.625 1.2207-1.8164 2.4609h1.8848l0.10743-1.4746h1.9238zm-1.2695-4.1406h1.9824q-0.28321-0.66406-0.625-1.6016h-0.82031q-0.22461 0.75195-0.53711 1.6016zm-9.1113-4.5215v2.8223h2.1387v-2.8223zm0 4.5801v2.959h2.1387v-2.959z" dominant-baseline="central"/>
  <path d="m291.58 174.14v-3.6426h2.0996v3.6426h5.293v8.8379h-5.293v6.5234h-2.0996v-6.5234h-5.1856v-8.8379zm-3.1641 1.9434v4.9707h3.1641v-4.9707zm8.4766 4.9707v-4.9707h-3.2129v4.9707zm-12.5-5.7812q-1.1914-1.6602-3.1543-3.1738l1.4551-1.4844q1.9531 1.377 3.3008 3.0859zm-0.63476 5.0195q-1.6992-1.9727-3.3008-3.2324l1.5039-1.5039q1.709 1.2012 3.3789 3.1055zm-3.0371 7.5684q1.875-2.666 3.457-6.6406l1.7383 1.3379q-1.3379 3.6621-3.2617 6.8945z" dominant-baseline="central"/>
 </g>
</svg>
