<?xml version="1.0" encoding="UTF-8"?>
<svg width="480" height="360" version="1.1" viewBox="0 0 480 360" xmlns="http://www.w3.org/2000/svg">
 <g dominant-baseline="central" fill="#fff" aria-label="中央アジア">
  <path d="m248.84 174.08v-3.584h2.1973v3.584h7.2461v10.332h-2.1582v-1.3574h-5.0879v6.4453h-2.1973v-6.4453h-4.9609v1.4648h-2.1582v-10.439zm-4.9609 2.002v4.9707h4.9609v-4.9707zm12.246 4.9707v-4.9707h-5.0879v4.9707z" dominant-baseline="central"/>
  <path d="m271.84 182.12q1.123 1.8457 2.9883 3.1738 1.7383 1.2305 4.541 2.0215l-1.2305 2.0215q-5.6055-1.8164-7.9883-6.2598-0.74218 1.9531-2.3828 3.5644-1.2988 1.2793-3.1152 2.0312-1.0449 0.41993-2.6465 0.84961l-1.1816-1.8262q3.3984-0.70312 5.5176-2.6953 1.3477-1.2793 2.0801-2.8809h-7.9199v-1.9434h2.3047v-6.416h6.0742v-3.2617h2.1191v3.2617h6.2012v6.416h2.3047v1.9434zm-2.959-6.4746h-3.9551v4.5312h3.9551zm2.1191 0v4.5312h4.082v-4.5312z" dominant-baseline="central"/>
  <path d="m280.76 172.5h15.303l1.2598 1.0644q-0.54688 2.041-1.4258 3.4082-1.6504 2.5879-4.9414 3.8672l-1.2305-1.6797q2.2754-0.6836 3.7793-2.4512 0.88867-1.0449 1.2402-2.207h-13.984zm6.2598 4.2188h2.2363v1.6797q0 3.7793-0.83984 5.8398-1.0644 2.6172-4.1406 4.2578l-1.6113-1.6992q2.1191-1.0058 3.0957-2.4023 0.75195-1.084 0.98633-2.2949 0.27343-1.3867 0.27343-3.7207z" dominant-baseline="central"/>
  <path d="m306.79 175.67q-2.8809-1.2891-5.8789-2.1582l0.63477-1.9336q3.3789 0.83984 5.9277 2.0508zm-2.002 5q-2.4024-1.0547-5.8789-2.1582l0.83984-1.9531q2.9883 0.79102 5.8008 2.0996zm-4.6191 5.3809q3.7793-0.30274 5.9961-1.084 5.7031-2.0215 7.2852-9.1699l2.002 1.2012q-1.2988 5.4785-4.8438 8.1543-2.3242 1.7578-5.7617 2.5-1.6504 0.36133-4.0527 0.58594zm12.363-11.299q-0.625-1.543-2.002-3.4375l1.543-0.55664q1.2402 1.6797 1.9922 3.3984zm2.959-0.53711q-0.81055-1.9238-1.9629-3.4766l1.4453-0.46875q1.1621 1.3476 1.9727 3.3008z" dominant-baseline="central"/>
  <path d="m317.99 172.5h15.303l1.2598 1.0644q-0.54687 2.041-1.4258 3.4082-1.6504 2.5879-4.9414 3.8672l-1.2305-1.6797q2.2754-0.6836 3.7793-2.4512 0.88867-1.0449 1.2402-2.207h-13.984zm6.2598 4.2188h2.2363v1.6797q0 3.7793-0.83984 5.8398-1.0644 2.6172-4.1406 4.2578l-1.6113-1.6992q2.1191-1.0058 3.0957-2.4023 0.75195-1.084 0.98633-2.2949 0.27344-1.3867 0.27344-3.7207z" dominant-baseline="central"/>
 </g>
</svg>
