<svg version="1.1" xmlns="http://www.w3.org/2000/svg" xmlns:xlink="http://www.w3.org/1999/xlink" width="224" height="318" viewBox="0,0,224,318"><g transform="translate(-128,-180)"><g data-paper-data="{&quot;isPaintingLayer&quot;:true}" stroke="none" stroke-width="1" stroke-linecap="butt" stroke-linejoin="miter" stroke-miterlimit="10" stroke-dasharray="" stroke-dashoffset="0" style="mix-blend-mode: normal"><path d="M352,488c0,5.54 -4.46,10 -10,10h-204c-5.54,0 -10,-4.46 -10,-10v-308h224z" fill="#1d2a41" fill-rule="evenodd"/><g fill="#ffffff" fill-rule="nonzero"><path d="M145.96,197.1v-0.5879h-4.2725v-0.9776h10.09v0.9776h-4.3613v0.5879h5.6602v2.4541h-1.4834v-1.5723h-4.1768v2.6592h-1.456v-2.6592h-4.1016v1.5723h-1.4697v-2.4541zM150.7998,206.8002c0.69727,0.26433 1.5677,0.47397 2.6113,0.6289l-0.79981,1.1621c-1.46287,-0.25067 -2.6637,-0.68133 -3.6025,-1.292c-0.93427,-0.61067 -1.66117,-1.36947 -2.1807,-2.2764h-1.5107v2.1055c1.00713,-0.14127 1.94137,-0.29167 2.8027,-0.4512l0.0957,1.0186c-1.60413,0.3828 -3.43843,0.71547 -5.5029,0.998l-0.40332,-1.2031c0.71547,-0.07747 1.20537,-0.13217 1.4697,-0.1641l0.082,-0.014v-2.2901h-1.4971c-0.0638,0.80213 -0.16862,1.44243 -0.31445,1.9209c-0.17317,0.57427 -0.45117,1.10977 -0.83398,1.6065l-1.2168,-1.0045c0.44661,-0.5788 0.72461,-1.25557 0.83398,-2.0303c0.05927,-0.41927 0.0889,-0.94107 0.0889,-1.5654v-2.8985h11.799v0.9092h-10.329v2.0987h10.917v0.9638h-1.5518l0.86817,0.5742c-0.51497,0.4284 -1.12337,0.82947 -1.8252,1.2032zM149.7334,206.2738c0.65625,-0.4466 1.17805,-0.8636 1.5654,-1.251h-2.9873c0.39193,0.50133 0.86589,0.91833 1.4219,1.251zM142.46,198.4877h2.9121v0.7724h-2.9121zM142.46,199.7455h2.9121v0.7861h-2.9121zM148.0039,198.4877h3.001v0.7724h-3.001zM148.0039,199.7455h3.001v0.7861h-3.001zM143.2051,202.5345h8.5108v0.8956h-8.5108z"/><path d="M161.8,196.5h5.3594v1.1485h-3.0352v1.1347h2.8438v1.1075h-2.8438v2.0371h-5.5029v-2.0371h-2.2422v1.2715c0,2.0644 -0.10938,3.6959 -0.32813,4.8945c-0.16862,0.91147 -0.44206,1.74317 -0.82031,2.4951l-1.2441,-0.9844c0.34635,-0.75193 0.58333,-1.67023 0.71094,-2.7549c0.11393,-0.95247 0.17089,-2.16923 0.17089,-3.6503v-4.6622h5.4072v-1.2304h1.5244zM156.3791,197.6485v1.1347h2.2422v-1.1347zM160.0773,197.6485v1.1347h2.5908v-1.1347zM160.0773,199.8907v1.0595h2.5908v-1.0595zM161.6632,207.0684c-1.31707,0.6836 -2.9896,1.20313 -5.0176,1.5586l-0.71094,-1.2578c1.90493,-0.22787 3.39743,-0.5765 4.4775,-1.0459c-0.92513,-0.66993 -1.71583,-1.4652 -2.3721,-2.3858h-0.94336v-1.1894h8.0049l0.71778,0.6016c-0.67907,1.0436 -1.6475,2.02567 -2.9053,2.9462c1.08007,0.433 2.55207,0.75203 4.416,0.9571l-0.79981,1.292c-1.78647,-0.24153 -3.40887,-0.73373 -4.8672,-1.4766zM159.6329,203.9375c0.55143,0.64713 1.22137,1.2168 2.0098,1.709c0.88867,-0.5742 1.57453,-1.14387 2.0576,-1.709z"/><path d="M173.07,196c1.43553,0 2.5475,0.6221 3.3359,1.8663c0.66081,1.039 0.99121,2.40843 0.99121,4.1083c0,1.55407 -0.28027,2.83467 -0.84082,3.8418c-0.77933,1.40827 -1.94827,2.1124 -3.5068,2.1124c-1.39907,0 -2.49053,-0.58333 -3.2744,-1.75c-0.7064,-1.0482 -1.0596,-2.4496 -1.0596,-4.2042c0,-1.82287 0.37827,-3.26523 1.1348,-4.3271c0.78387,-1.09833 1.8571,-1.6475 3.2197,-1.6475zM173.0495,197.4698c-0.73827,0 -1.3216,0.4056 -1.75,1.2168c-0.41471,0.79293 -0.62207,1.88893 -0.62207,3.288c0,1.308 0.18913,2.35163 0.56738,3.1309c0.43295,0.88413 1.03908,1.3262 1.8184,1.3262c0.6836,0 1.2373,-0.35547 1.6611,-1.0664c0.47395,-0.79753 0.71093,-1.92777 0.71093,-3.3907c0,-1.38993 -0.20508,-2.4814 -0.61523,-3.2744c-0.42839,-0.82027 -1.01855,-1.2304 -1.7705,-1.2304z"/><path d="M179.91,197.2h3.6846c0.4056,-0.64713 0.71322,-1.16897 0.92286,-1.5655l1.5244,0.2188c-0.13672,0.24607 -0.37826,0.6471 -0.72461,1.2031l-0.0889,0.1436h4.8193v1.3467h-5.7285c-0.597,0.82027 -1.16667,1.5312 -1.709,2.1328c0.86133,-0.515 1.64747,-0.7725 2.3584,-0.7725c1.10287,0 1.8252,0.5537 2.167,1.6611c1.16667,-0.38733 2.35613,-0.77013 3.5684,-1.1484l0.58789,1.3262l-0.23926,0.068l-0.67676,0.1778c-1.27607,0.34633 -2.2969,0.64253 -3.0625,0.8886c0.05467,0.59247 0.0934,1.3581 0.11621,2.2969l-1.4971,0.082c-0.00467,-0.54227 -0.01377,-1.13013 -0.0273,-1.7636v-0.1367c-2.09633,0.71547 -3.1445,1.4355 -3.1445,2.1601c0,0.37373 0.26888,0.62893 0.80664,0.7656c0.51953,0.1322 1.44923,0.1983 2.7891,0.1983c1.235,0 2.53153,-0.07063 3.8896,-0.2119l0.16406,1.456c-1.31707,0.10027 -2.68197,0.1504 -4.0947,0.1504c-1.74087,0 -2.97817,-0.13217 -3.7119,-0.3965c-0.90693,-0.32813 -1.3604,-0.9183 -1.3604,-1.7705c0,-0.72007 0.32129,-1.3558 0.96387,-1.9072c0.66537,-0.56967 1.8366,-1.15757 3.5137,-1.7637c-0.09115,-0.35093 -0.21191,-0.59703 -0.3623,-0.7383c-0.16862,-0.15947 -0.39193,-0.2392 -0.66993,-0.2392c-0.45117,0 -1.01853,0.1709 -1.7021,0.5127c-0.84307,0.41927 -1.7477,1.05043 -2.7139,1.8935l-0.90918,-1.039c1.41733,-1.31707 2.52703,-2.61133 3.3291,-3.8828h-2.7822z"/><path d="M201.38,205.7l0.0957,1.2236c-1.97787,0.69727 -4.17677,1.2715 -6.5967,1.7227l-0.50586,-1.3672c0.41927,-0.064 1.0117,-0.16653 1.7773,-0.3076v-2.502c-0.7884,0.40107 -1.7272,0.7816 -2.8164,1.1416l-0.77929,-1.2167c2.19207,-0.59247 3.8646,-1.349 5.0176,-2.2696h-4.8809v-1.1894h5.8584v-1.0323h-4.4297v-1.1484h4.4297v-0.9639h-5.127v-1.1757h5.127v-1.3467h1.4971v1.3467h5.2773v1.1757h-5.2773v0.9639h4.5801v1.1484h-4.5801v1.0323h6.0088v1.1894h-1.6338l1.0117,0.6973c-0.62435,0.60613 -1.49935,1.2692 -2.625,1.9892l-0.15722,0.1026c0.8568,0.78387 2.0189,1.431 3.4863,1.9414l-0.92286,1.3877c-1.59047,-0.67447 -2.8688,-1.52213 -3.835,-2.543zM199.3087,202.1453c-0.45573,0.5332 -1.00489,1.01173 -1.6475,1.4356v3.0693c1.12567,-0.25067 2.25587,-0.54233 3.3906,-0.875l0.31445,-0.089c-0.93427,-1.03447 -1.62013,-2.2148 -2.0576,-3.541zM201.8038,204.0115c0.8112,-0.57873 1.52213,-1.20763 2.1328,-1.8867h-3.2334c0.29167,0.69727 0.65853,1.32617 1.1006,1.8867z"/><path d="M214.2,201.1v6.0635c0,0.5514 -0.11165,0.92737 -0.33496,1.1279c-0.20963,0.18227 -0.61523,0.2734 -1.2168,0.2734c-0.6836,0 -1.333,-0.04327 -1.9482,-0.1298l-0.29394,-1.4424c0.63802,0.1048 1.24869,0.1572 1.832,0.1572c0.19596,0 0.31901,-0.03417 0.36914,-0.1025c0.03647,-0.05933 0.0547,-0.15733 0.0547,-0.294v-5.6533h-5.8789v-1.3604h13.173v1.3604zM208.4236,196.0346h9.8848v1.3466h-9.8848zM206.701,206.5206c0.9844,-1.02993 1.77737,-2.3994 2.3789,-4.1084l1.415,0.5332c-0.69727,1.95507 -1.57453,3.49087 -2.6318,4.6074zM218.431,207.3546c-0.94333,-1.99613 -1.76363,-3.45677 -2.4609,-4.3819l1.2852,-0.7656c1.0026,1.28973 1.8571,2.6934 2.5635,4.211z"/><path d="M227.81,195.6h1.5381v1.8868h4.0332v1.3193h-4.0332v2.9258c0.15951,0.56053 0.23926,1.05957 0.23926,1.4971c0,1.62233 -0.35773,2.81403 -1.0732,3.5751c-0.77927,0.834 -1.95277,1.4105 -3.5205,1.7295l-0.7793,-1.1621c1.2168,-0.2324 2.11913,-0.5605 2.707,-0.9843c0.55143,-0.40107 0.92287,-0.94567 1.1143,-1.6338c-0.48763,0.5332 -1.0687,0.7998 -1.7432,0.7998c-0.75653,0 -1.3695,-0.2142 -1.8389,-0.6426c-0.55143,-0.50587 -0.82715,-1.2396 -0.82715,-2.2012c0,-0.50587 0.12077,-0.9935 0.3623,-1.4629c0.15951,-0.30073 0.35547,-0.55137 0.58789,-0.7519c0.53777,-0.45573 1.18263,-0.6836 1.9346,-0.6836c0.47851,0 0.91145,0.11393 1.2988,0.3418v-1.3467h-6.7471v-1.3193h6.7471zM227.8647,202.6958v-0.253c0,-0.29167 -0.06836,-0.54913 -0.20508,-0.7724c-0.25521,-0.41927 -0.62434,-0.6289 -1.1074,-0.6289c-0.24609,0 -0.47624,0.06833 -0.69043,0.205c-0.5013,0.31447 -0.75195,0.79757 -0.75195,1.4493c0,0.41013 0.09115,0.75647 0.27344,1.039c0.25521,0.39193 0.63117,0.5879 1.1279,0.5879c0.45117,0 0.8089,-0.2028 1.0732,-0.6084c0.18685,-0.28713 0.28027,-0.62663 0.28027,-1.0185z"/><path d="M236.27,196h7.6699l0.73145,1.1347c-2.3698,1.44927 -4.42287,2.76633 -6.1592,3.9512c1.12107,-0.4694 2.24673,-0.7041 3.377,-0.7041c1.01627,0 1.86393,0.1618 2.543,0.4854c0.62891,0.30073 1.11881,0.71087 1.4697,1.2304c0.36459,0.55147 0.54688,1.18493 0.54688,1.9004c0,1.0026 -0.3418,1.84113 -1.0254,2.5156c-0.4694,0.4694 -1.07097,0.82487 -1.8047,1.0664c-0.9616,0.31447 -2.01433,0.4717 -3.1582,0.4717c-1.31707,0 -2.28777,-0.2438 -2.9121,-0.7314c-0.48763,-0.3828 -0.73145,-0.90007 -0.73145,-1.5518c0,-0.4922 0.17774,-0.9297 0.53321,-1.3125c0.53776,-0.57873 1.26466,-0.8681 2.1807,-0.8681c0.97067,0 1.74767,0.32583 2.331,0.9775c0.42383,0.47393 0.72917,1.10967 0.91602,1.9072c1.40367,-0.4466 2.1055,-1.27147 2.1055,-2.4746c0,-0.91147 -0.38053,-1.58367 -1.1416,-2.0166c-0.51042,-0.29167 -1.15755,-0.4375 -1.9414,-0.4375c-1.1712,0 -2.2285,0.1618 -3.1719,0.4854c-0.69727,0.23693 -1.6338,0.80887 -2.8096,1.7158l-0.96387,-1.1621c1.26693,-1.0938 2.70933,-2.2035 4.3272,-3.3291c1.11653,-0.77473 2.1009,-1.4105 2.9531,-1.9073h-5.8652zM241.4516,206.739c-0.32357,-1.28967 -0.9593,-1.9345 -1.9072,-1.9345c-0.52409,0 -0.90235,0.16633 -1.1348,0.499c-0.10938,0.1504 -0.16407,0.31217 -0.16407,0.4853c0,0.36007 0.25521,0.63123 0.76563,0.8135c0.36914,0.1276 0.86361,0.1914 1.4834,0.1914c0.26432,0 0.58333,-0.01833 0.95703,-0.055z"/></g><g fill="#ffffff" fill-rule="nonzero"><path d="M140,441.5h10.712l0.88184,0.7451c-0.25521,0.95247 -0.5879,1.7477 -0.99805,2.3857c-0.7702,1.20767 -1.9232,2.11003 -3.459,2.7071l-0.86132,-1.1758c1.06187,-0.319 1.9437,-0.89093 2.6455,-1.7158c0.41471,-0.48767 0.7041,-1.00267 0.86817,-1.545h-9.7891zM144.3818,444.4531h1.5654v1.1758c0,1.76367 -0.19596,3.1263 -0.58789,4.0879c-0.49675,1.22133 -1.46288,2.2148 -2.8984,2.9804l-1.1279,-1.1894c0.98893,-0.4694 1.71127,-1.02997 2.167,-1.6817c0.35091,-0.50587 0.58105,-1.04133 0.69043,-1.6064c0.1276,-0.64713 0.1914,-1.5153 0.1914,-2.6045z"/><path d="M157.96,452.8v-7.0136c-1.3854,0.92967 -2.96677,1.7135 -4.7441,2.3515l-0.82715,-1.3877c2.01887,-0.679 3.78937,-1.554 5.3115,-2.625c1.4948,-1.05273 2.82553,-2.25813 3.9922,-3.6162l1.3193,0.8272c-1.03453,1.1894 -2.18753,2.28087 -3.459,3.2744v8.1894z"/><path d="M164.6,441.7h10.008v10.35h-10.247v-1.4287h8.6201v-7.4922h-8.3809z"/><path d="M181.99,444.2c-1.44013,-0.6426 -2.9372,-1.1576 -4.4912,-1.545l0.47851,-1.4697c1.80013,0.41013 3.31087,0.92057 4.5322,1.5313zM177.6697,451.0017c2.25587,-0.1914 3.98307,-0.5947 5.1816,-1.2099c1.41273,-0.7292 2.49737,-1.84803 3.2539,-3.3565c0.49219,-0.97527 0.89096,-2.2513 1.1963,-3.8281l1.3125,0.9639c-0.36914,1.6862 -0.81574,3.02603 -1.3398,4.0195c-0.94793,1.80927 -2.39717,3.1195 -4.3477,3.9307c-1.23047,0.5104 -2.87563,0.87497 -4.9355,1.0937z"/><path d="M197.01,451.3c2.67513,-0.67447 4.0127,-2.208 4.0127,-4.6006c0,-1.0436 -0.26888,-1.94137 -0.80664,-2.6933c-0.60156,-0.84767 -1.51756,-1.39227 -2.748,-1.6338c-0.26888,2.11453 -0.63575,3.8463 -1.1006,5.1953c-0.31901,0.94333 -0.71548,1.83427 -1.1894,2.6728c-0.6836,1.19407 -1.46063,1.7911 -2.3311,1.7911c-0.64713,0 -1.22363,-0.29167 -1.7295,-0.875c-0.32357,-0.3692 -0.58561,-0.82267 -0.78613,-1.3604c-0.26433,-0.69727 -0.39649,-1.44693 -0.39649,-2.249c0,-1.29887 0.35773,-2.49517 1.0732,-3.5889c0.7246,-1.11653 1.66567,-1.92773 2.8232,-2.4336c0.84307,-0.36913 1.7682,-0.5537 2.7754,-0.5537c1.57227,0 2.90757,0.42157 4.0059,1.2647c1.34893,1.03447 2.0234,2.49963 2.0234,4.3955c0,3.1764 -1.60643,5.1907 -4.8193,6.0429zM195.9846,442.3176c-0.80667,0.09113 -1.48113,0.3076 -2.0234,0.6494c-0.34635,0.22333 -0.69042,0.51957 -1.0322,0.8887c-0.94793,1.04813 -1.4219,2.26263 -1.4219,3.6435c0,1.0072 0.20052,1.79563 0.60156,2.3653c0.24609,0.35087 0.48991,0.5263 0.73145,0.5263c0.32812,0 0.69725,-0.3623 1.1074,-1.0869c1.0026,-1.76367 1.68163,-4.09243 2.0371,-6.9863z"/><path d="M212.15,440.5h1.5381v2.7617h2.7412v1.4013h-2.7412v0.4307c0,2.3242 -0.33268,4.06963 -0.99805,5.2363c-0.64257,1.12113 -1.77507,1.9802 -3.3975,2.5772l-0.95703,-1.2168c1.58593,-0.54687 2.6478,-1.38997 3.1856,-2.5293c0.41927,-0.87953 0.62891,-2.2285 0.62891,-4.0469v-0.4512h-4.1494v3.917h-1.5381v-3.917h-2.5498v-1.4013h2.5498v-2.6592h1.5381v2.6592h4.1494z"/><path d="M222.79,452.8v-7.0136c-1.3854,0.92967 -2.96677,1.7135 -4.7441,2.3515l-0.82714,-1.3877c2.01887,-0.679 3.78937,-1.554 5.3115,-2.625c1.4948,-1.05273 2.82553,-2.25813 3.9922,-3.6162l1.3193,0.8272c-1.03453,1.1894 -2.18753,2.28087 -3.459,3.2744v8.1894z"/><path d="M229.9,441.6h7.5606l0.84082,1.0254c-0.4056,1.57227 -1.08693,3.09667 -2.044,4.5732c1.48567,1.16213 2.94173,2.5111 4.3682,4.0469l-1.1211,1.292c-1.25327,-1.4264 -2.625,-2.8141 -4.1152,-4.1631c-1.5404,1.85027 -3.42713,3.25163 -5.6602,4.2041l-0.83398,-1.415c1.61787,-0.6426 2.94403,-1.41963 3.9785,-2.3311c1.21227,-1.0618 2.18297,-2.29453 2.9121,-3.6982c0.36459,-0.7064 0.63347,-1.41733 0.80664,-2.1328h-6.6924zM239.1559,442.974c-0.28711,-0.75193 -0.74968,-1.59273 -1.3877,-2.5224l1.0801,-0.3897c0.52409,0.72007 0.99575,1.54493 1.415,2.4746zM241.0358,442.6664c-0.36003,-0.92513 -0.82259,-1.77507 -1.3877,-2.5498l1.0322,-0.3349c0.54688,0.66533 1.00945,1.4674 1.3877,2.4062z"/></g><g fill="#ffffff" fill-rule="nonzero"><path d="M152.17,271c0,0.2142 -0.0205,1.23047 -0.0615,3.0488h1.3057v1.2305h-1.333c-0.01367,0.597 -0.0433,1.27377 -0.0889,2.0303h1.1553v1.2031h-1.2441c-0.05467,0.6608 -0.12986,1.0983 -0.22559,1.3125c-0.21419,0.5104 -0.73373,0.7656 -1.5586,0.7656c-0.52865,0 -1.01628,-0.03873 -1.4629,-0.1162l-0.25293,-1.2168c0.64257,0.09113 1.13477,0.1367 1.4766,0.1367c0.27799,0 0.44433,-0.09797 0.49902,-0.2939c0.02733,-0.09573 0.0524,-0.2917 0.0752,-0.5879h-4.8672c-0.00467,0.03667 -0.0115,0.0754 -0.0205,0.1162c-0.041,0.24153 -0.07974,0.4694 -0.11621,0.6836l-1.415,-0.1367c0.278,-1.6452 0.46485,-2.88937 0.56055,-3.7325l0.0205,-0.164h-1.3672v-1.2305h1.5107c0.12761,-1.10287 0.23698,-2.11913 0.32813,-3.0488zM147.8497,272.1894h-1.4971c-0.01367,0.23247 -0.05468,0.7224 -0.12305,1.4698l-0.041,0.3896h1.5176l0.0205,-0.1914c0.00913,-0.13213 0.0228,-0.3167 0.041,-0.5537c0.0456,-0.638 0.07293,-1.00943 0.082,-1.1143zM149.1964,272.1894c-0.0228,0.54233 -0.05698,1.14163 -0.10254,1.7979v0.062h1.6064c0.01827,-0.62433 0.03423,-1.24413 0.0479,-1.8594zM147.5968,275.2793h-1.5381c-0.06836,0.556 -0.14128,1.10513 -0.21875,1.6474l-0.0547,0.3829h1.5996c0.10938,-0.98893 0.18002,-1.6657 0.21192,-2.0303zM148.9982,275.2793c-0.01367,0.18227 -0.041,0.48303 -0.082,0.9023l-0.10937,1.128h1.7432c0.0228,-0.44207 0.04103,-0.77477 0.0547,-0.9981c0.02733,-0.4876 0.04557,-0.83167 0.0547,-1.0322zM146.3185,268.5322h6.6035v1.2715h-7.1709c-0.36914,0.75193 -0.83854,1.46743 -1.4082,2.1465l-0.97754,-1.0664c0.8978,-1.05273 1.53583,-2.26497 1.9141,-3.6367l1.4561,0.1503c-0.16407,0.474 -0.30306,0.85227 -0.41699,1.1348zM142.5519,270.5215c-0.56055,-0.7702 -1.24185,-1.49253 -2.0439,-2.167l1.0322,-0.9981c0.7428,0.54687 1.44917,1.2373 2.1191,2.0713zM142.05972,274.1308c-0.69273,-0.88867 -1.39227,-1.63377 -2.0986,-2.2353l1.0664,-1.0254c0.79293,0.62433 1.50613,1.33527 2.1396,2.1328zM140.20032,279.4971c0.793,-1.09833 1.54497,-2.5453 2.2559,-4.3409l1.2168,0.8682c-0.59245,1.65887 -1.35351,3.181 -2.2832,4.5664z"/><path d="M157.7,277.4v-6.3438l0.4375,-0.027c2.84833,-0.1504 5.19307,-0.45347 7.0342,-0.9092l0.92969,1.1279c-0.76107,0.196 -1.67253,0.3692 -2.7344,0.5196l-0.28027,0.041c0.02733,0.45573 0.08658,1.01173 0.17774,1.668l3.5478,-0.1504l0.0684,1.1757l-3.3975,0.1573c0.28711,1.25327 0.70637,2.26727 1.2578,3.042c0.20508,0.28253 0.41471,0.51267 0.6289,0.6904c0.17318,0.13673 0.28939,0.2051 0.34864,0.2051c0.17317,0 0.32356,-0.69957 0.45117,-2.0987l1.2988,0.8409c-0.13217,0.9798 -0.28484,1.69073 -0.45801,2.1328c-0.22787,0.56507 -0.55827,0.8476 -0.99121,0.8476c-0.36459,0 -0.79982,-0.19823 -1.3057,-0.5947c-0.60612,-0.47853 -1.14615,-1.1234 -1.6201,-1.9346c-0.41927,-0.7246 -0.76334,-1.74313 -1.0322,-3.0556l-2.9189,0.1025v2.29c1.01173,-0.20507 2.00977,-0.44203 2.9941,-0.7109l0.12304,1.1758c-1.65887,0.4922 -3.41343,0.90237 -5.2637,1.2305l-0.44434,-1.2442c0.32813,-0.05 0.71093,-0.10923 1.1484,-0.1777zM161.6648,271.9722l-0.16407,0.021c-0.597,0.05933 -1.38313,0.11857 -2.3584,0.1777v1.4902l2.7139,-0.1094c-0.09115,-0.62433 -0.15495,-1.1507 -0.1914,-1.5791zM161.8562,268.6021h5.1064v1.2715h-10.411v3.3018c0,1.9186 -0.09342,3.42023 -0.28027,4.5049c-0.18685,1.0664 -0.53321,2.04393 -1.0391,2.9326l-1.2305,-1.0254c0.46485,-0.84767 0.77019,-1.86623 0.91602,-3.0557c0.10937,-0.875 0.16406,-1.9938 0.16406,-3.3564v-4.5733h5.2226v-1.2851h1.5518zM157.2898,279.1361h6.2412v1.2305h-6.2412z"/><path d="M174.9,272.8v5.414c0,0.35093 0.15039,0.56287 0.45117,0.6358c0.3099,0.07747 1.01857,0.1162 2.126,0.1162c1.08007,0 1.79327,-0.0547 2.1396,-0.1641c0.19596,-0.064 0.32356,-0.24173 0.38281,-0.5332c0.07747,-0.41013 0.11849,-0.89547 0.12305,-1.456l1.4287,0.4033c-0.07292,1.3444 -0.25749,2.20343 -0.55371,2.5771c-0.19597,0.24613 -0.49219,0.39197 -0.88867,0.4375c-0.62435,0.0684 -1.68392,0.1026 -3.1787,0.1026c-1.15753,0 -1.91633,-0.032 -2.2764,-0.096c-0.54232,-0.09113 -0.88639,-0.3304 -1.0322,-0.7178c-0.07291,-0.20507 -0.10937,-0.4785 -0.10937,-0.8203v-5.4209l-1.3057,0.4512l-0.32129,-1.3262l1.627,-0.5605v-3.6846h1.3877v3.206l1.4697,-0.499v-3.6025h1.374v3.124l2.29,-0.7861l0.71777,0.4375v5.1201c0,0.35547 -0.08431,0.6198 -0.25293,0.793c-0.19141,0.1914 -0.51269,0.2871 -0.96386,0.2871c-0.36914,0 -0.76107,-0.032 -1.1758,-0.096l-0.22559,-1.3057c0.26888,0.06833 0.54232,0.1025 0.82031,0.1025c0.20052,0 0.32357,-0.041 0.36914,-0.123c0.0456,-0.0684 0.0684,-0.18233 0.0684,-0.3418v-3.2334l-1.6475,0.5742v5.5303h-1.374v-5.0586zM169.8756,270.5646v-3.3017h1.4697v3.3017h1.3262v1.3877h-1.3262v4.3477c0.47852,-0.16407 0.95249,-0.33497 1.4219,-0.5127l0.12988,1.3193c-1.47653,0.67447 -2.99183,1.23957 -4.5459,1.6953l-0.47851,-1.456c0.7018,-0.18233 1.31703,-0.3555 1.8457,-0.5195c0.0638,-0.02267 0.11621,-0.03867 0.15723,-0.048v-4.8262h-1.7363v-1.3877z"/><path d="M187.96,269.1v-0.5879h-4.2725v-0.9776h10.09v0.9776h-4.3613v0.5879h5.6602v2.4541h-1.4834v-1.5723h-4.1768v2.6592h-1.456v-2.6592h-4.1016v1.5723h-1.4697v-2.4541zM192.7998,278.8002c0.69727,0.26433 1.5677,0.47397 2.6113,0.6289l-0.79981,1.1621c-1.46287,-0.25067 -2.6637,-0.68133 -3.6025,-1.292c-0.93427,-0.61067 -1.66117,-1.36947 -2.1807,-2.2764h-1.5107v2.1055c1.00713,-0.14127 1.94137,-0.29167 2.8027,-0.4512l0.0957,1.0186c-1.60413,0.3828 -3.43843,0.71547 -5.5029,0.998l-0.40332,-1.2031c0.71547,-0.07747 1.20537,-0.13217 1.4697,-0.1641l0.082,-0.014v-2.2901h-1.4971c-0.0638,0.80213 -0.16862,1.44243 -0.31445,1.9209c-0.17317,0.57427 -0.45117,1.10977 -0.83398,1.6065l-1.2168,-1.0045c0.44661,-0.5788 0.72461,-1.25557 0.83398,-2.0303c0.05927,-0.41927 0.0889,-0.94107 0.0889,-1.5654v-2.8985h11.799v0.9092h-10.329v2.0987h10.917v0.9638h-1.5518l0.86817,0.5742c-0.51497,0.4284 -1.12337,0.82947 -1.8252,1.2032zM191.7334,278.2738c0.65625,-0.4466 1.17805,-0.8636 1.5654,-1.251h-2.9873c0.39193,0.50133 0.86589,0.91833 1.4219,1.251zM184.46,270.4877h2.9121v0.7724h-2.9121zM184.46,271.7455h2.9121v0.7861h-2.9121zM190.0039,270.4877h3.001v0.7724h-3.001zM190.0039,271.7455h3.001v0.7861h-3.001zM185.2051,274.5345h8.5108v0.8956h-8.5108z"/><path d="M201.96,275.9v4.0059h-3.8486v0.7041h-1.415v-4.71zM198.1114,277.0622v1.6816h2.4336v-1.6816zM205.1388,271.7711v-4.4638h1.4834v4.4638h2.7549v1.4014h-2.7549v7.4375h-1.4834v-7.4375h-2.8027v-1.4014zM196.9904,267.8131h4.6621v1.1348h-4.6621zM196.14958,269.8161h6.2754v1.2304h-6.2754zM196.9904,271.9147h4.6621v1.1348h-4.6621zM196.9904,273.9176h4.6621v1.0938h-4.6621z"/><path d="M211.27,269.2h3.6846c0.4056,-0.64713 0.71322,-1.16897 0.92286,-1.5655l1.5244,0.2188c-0.13672,0.24607 -0.37826,0.6471 -0.72461,1.2031l-0.0889,0.1436h4.8193v1.3467h-5.7285c-0.597,0.82027 -1.16667,1.5312 -1.709,2.1328c0.86133,-0.515 1.64747,-0.7725 2.3584,-0.7725c1.10287,0 1.8252,0.5537 2.167,1.6611c1.16667,-0.38733 2.35613,-0.77013 3.5684,-1.1484l0.58789,1.3262l-0.23926,0.068l-0.67676,0.1778c-1.27607,0.34633 -2.2969,0.64253 -3.0625,0.8886c0.05467,0.59247 0.09341,1.3581 0.11622,2.2969l-1.4971,0.082c-0.00467,-0.54227 -0.01377,-1.13013 -0.0273,-1.7636v-0.1367c-2.09633,0.71547 -3.1445,1.4355 -3.1445,2.1601c0,0.37373 0.26888,0.62893 0.80664,0.7656c0.51953,0.1322 1.44923,0.1983 2.7891,0.1983c1.235,0 2.53153,-0.07063 3.8896,-0.2119l0.16406,1.456c-1.31707,0.10027 -2.68197,0.1504 -4.0947,0.1504c-1.74087,0 -2.97817,-0.13217 -3.7119,-0.3965c-0.90693,-0.32813 -1.3604,-0.9183 -1.3604,-1.7705c0,-0.72007 0.32129,-1.3558 0.96387,-1.9072c0.66537,-0.56967 1.8366,-1.15757 3.5137,-1.7637c-0.09115,-0.35093 -0.21191,-0.59703 -0.3623,-0.7383c-0.16862,-0.15947 -0.39193,-0.2392 -0.66993,-0.2392c-0.45117,0 -1.01853,0.1709 -1.7021,0.5127c-0.84307,0.41927 -1.7477,1.05043 -2.7139,1.8935l-0.90918,-1.039c1.41733,-1.31707 2.52703,-2.61133 3.3291,-3.8828h-2.7822z"/><path d="M232.74,277.7l0.0957,1.2236c-1.97787,0.69727 -4.17677,1.2715 -6.5967,1.7227l-0.50586,-1.3672c0.41927,-0.064 1.0117,-0.16653 1.7773,-0.3076v-2.502c-0.7884,0.40107 -1.7272,0.7816 -2.8164,1.1416l-0.7793,-1.2167c2.19207,-0.59247 3.8646,-1.349 5.0176,-2.2696h-4.8809v-1.1894h5.8584v-1.0323h-4.4297v-1.1484h4.4297v-0.9639h-5.127v-1.1757h5.127v-1.3467h1.4971v1.3467h5.2773v1.1757h-5.2773v0.9639h4.5801v1.1484h-4.5801v1.0323h6.0088v1.1894h-1.6338l1.0117,0.6973c-0.62435,0.60613 -1.49935,1.2692 -2.625,1.9892l-0.15723,0.1026c0.8568,0.78387 2.0189,1.431 3.4863,1.9414l-0.92285,1.3877c-1.59053,-0.67447 -2.86887,-1.52213 -3.835,-2.543zM230.6687,274.1453c-0.45573,0.5332 -1.0049,1.01173 -1.6475,1.4356v3.0693c1.12567,-0.25067 2.25587,-0.54233 3.3906,-0.875l0.31445,-0.089c-0.93427,-1.03447 -1.62013,-2.2148 -2.0576,-3.541zM233.1638,276.0115c0.8112,-0.57873 1.52213,-1.20763 2.1328,-1.8867h-3.2334c0.29167,0.69727 0.65853,1.32617 1.1006,1.8867z"/><path d="M245.57,273.1v6.0635c0,0.5514 -0.11165,0.92737 -0.33496,1.1279c-0.20963,0.18227 -0.61523,0.2734 -1.2168,0.2734c-0.6836,0 -1.333,-0.04327 -1.9482,-0.1298l-0.29394,-1.4424c0.63802,0.1048 1.24869,0.1572 1.832,0.1572c0.19596,0 0.31901,-0.03417 0.36914,-0.1025c0.03647,-0.05933 0.0547,-0.15733 0.0547,-0.294v-5.6533h-5.8789v-1.3604h13.173v1.3604zM239.7936,268.0346h9.8848v1.3466h-9.8848zM238.0709,278.5206c0.9844,-1.02993 1.77737,-2.3994 2.3789,-4.1084l1.415,0.5332c-0.69727,1.95507 -1.57453,3.49087 -2.6318,4.6074zM249.8009,279.3546c-0.94333,-1.99613 -1.76363,-3.45677 -2.4609,-4.3819l1.2852,-0.7656c1.0026,1.28973 1.8571,2.6934 2.5635,4.211z"/></g><g fill="#ffffff" fill-rule="nonzero"><path d="M146.9,322.8v5.414c0,0.35093 0.15039,0.56287 0.45117,0.6358c0.3099,0.07747 1.01857,0.1162 2.126,0.1162c1.08007,0 1.79327,-0.0547 2.1396,-0.1641c0.19596,-0.064 0.32356,-0.24173 0.38281,-0.5332c0.07747,-0.41013 0.11849,-0.89547 0.12305,-1.456l1.4287,0.4033c-0.07292,1.3444 -0.25749,2.20343 -0.55371,2.5771c-0.19597,0.24613 -0.49219,0.39197 -0.88867,0.4375c-0.62435,0.0684 -1.68392,0.1026 -3.1787,0.1026c-1.15753,0 -1.91633,-0.032 -2.2764,-0.096c-0.54232,-0.09113 -0.88639,-0.3304 -1.0322,-0.7178c-0.07291,-0.20507 -0.10937,-0.4785 -0.10937,-0.8203v-5.4209l-1.3057,0.4512l-0.32129,-1.3262l1.627,-0.5605v-3.6846h1.3877v3.206l1.4697,-0.499v-3.6025h1.374v3.124l2.29,-0.7861l0.71777,0.4375v5.1201c0,0.35547 -0.08431,0.6198 -0.25293,0.793c-0.19141,0.1914 -0.51269,0.2871 -0.96386,0.2871c-0.36914,0 -0.76107,-0.032 -1.1758,-0.096l-0.22559,-1.3057c0.26888,0.06833 0.54232,0.1025 0.82031,0.1025c0.20052,0 0.32357,-0.041 0.36914,-0.123c0.0456,-0.0684 0.0684,-0.18233 0.0684,-0.3418v-3.2334l-1.6475,0.5742v5.5303h-1.374v-5.0586zM141.8756,320.5646v-3.3017h1.4697v3.3017h1.3262v1.3877h-1.3262v4.3477c0.47852,-0.16407 0.95249,-0.33497 1.4219,-0.5127l0.12988,1.3193c-1.47653,0.67447 -2.99183,1.23957 -4.5459,1.6953l-0.47851,-1.456c0.7018,-0.18233 1.31703,-0.3555 1.8457,-0.5195c0.0638,-0.02267 0.11621,-0.03867 0.15723,-0.048v-4.8262h-1.7363v-1.3877z"/><path d="M161.12,326.3c-0.97527,0.82487 -2.18523,1.50163 -3.6299,2.0303l-0.86817,-1.0528c1.1758,-0.3828 2.22627,-0.93193 3.1514,-1.6474l-0.23926,-0.1162c-0.88413,-0.42387 -1.85027,-0.85227 -2.8984,-1.2852l0.6289,-1.0391c1.1758,0.4284 2.2764,0.8773 3.3018,1.3467l0.2666,0.1231c1.153,-1.21227 2.02117,-2.79367 2.6045,-4.7442l1.3604,0.4239c-0.66537,1.98693 -1.55177,3.63893 -2.6592,4.956c0.0456,0.02267 0.08889,0.04533 0.12988,0.068c0.64258,0.319 1.48568,0.7861 2.5293,1.4013l-0.82715,1.1485c-0.875,-0.5332 -1.8252,-1.07097 -2.8506,-1.6133zM158.078,323.3332c-0.32813,-1.08467 -0.70183,-2.0007 -1.1211,-2.7481l1.2852,-0.5126c0.44206,0.7838 0.82943,1.69297 1.1621,2.7275zM160.4842,322.7863c-0.33724,-1.05273 -0.71551,-1.97103 -1.1348,-2.7549l1.2305,-0.4922c0.52409,0.91147 0.91145,1.81153 1.1621,2.7002zM166.8006,317.885v12.66h-1.5244v-0.7178h-9.0781v0.7178h-1.5108v-12.66zM156.1976,319.1564v9.3516h9.0781v-9.3516z"/><path d="M175.42,328.5c2.67513,-0.67447 4.0127,-2.208 4.0127,-4.6006c0,-1.0436 -0.26888,-1.9414 -0.80664,-2.6934c-0.60156,-0.8476 -1.51756,-1.3922 -2.748,-1.6338c-0.26888,2.1146 -0.63575,3.8464 -1.1006,5.1954c-0.31901,0.94333 -0.71548,1.83427 -1.1894,2.6728c-0.6836,1.194 -1.46063,1.791 -2.3311,1.791c-0.64713,0 -1.22363,-0.29167 -1.7295,-0.875c-0.32357,-0.36913 -0.58561,-0.82257 -0.78613,-1.3603c-0.26433,-0.69727 -0.39649,-1.44693 -0.39649,-2.249c0,-1.29887 0.35773,-2.49517 1.0732,-3.5889c0.7246,-1.11653 1.66567,-1.92773 2.8232,-2.4336c0.84307,-0.36913 1.7682,-0.5537 2.7754,-0.5537c1.57227,0 2.90757,0.42153 4.0059,1.2646c1.34893,1.03453 2.0234,2.4997 2.0234,4.3955c0,3.17647 -1.60643,5.1908 -4.8193,6.043zM174.3946,319.5176c-0.80667,0.09113 -1.48113,0.3076 -2.0234,0.6494c-0.34635,0.22327 -0.69042,0.51947 -1.0322,0.8886c-0.94793,1.0482 -1.4219,2.26273 -1.4219,3.6436c0,1.00713 0.20052,1.79553 0.60156,2.3652c0.24609,0.35093 0.48991,0.5264 0.73145,0.5264c0.32812,0 0.69725,-0.3623 1.1074,-1.0869c1.0026,-1.76367 1.68163,-4.09243 2.0371,-6.9863z"/><path d="M187.95,320v-0.6563h-5.5303v-1.1211h5.5303v-0.9775h1.4834v0.9775h5.6191v1.1211h-5.6191v0.6563h4.5254v2.8164h-4.5254v0.6836h4.8467v1.8046h1.1348v1.0801h-1.1348v2.4541h-1.4834v-0.5742h-3.3633v1.0322c0,0.42387 -0.07519,0.72693 -0.22558,0.9092c-0.19141,0.22787 -0.59244,0.3418 -1.2031,0.3418c-0.69273,0 -1.33077,-0.03417 -1.9141,-0.1025l-0.23926,-1.2168c0.64258,0.07287 1.24185,0.1093 1.7978,0.1093c0.14583,0 0.2347,-0.032 0.26661,-0.096c0.0228,-0.04533 0.0342,-0.11367 0.0342,-0.205v-0.7725h-4.7988v-1.0664h4.7988v-0.8135h-5.8926v-1.0801h5.8926v-0.7793h-4.7852v-1.0253h4.7852v-0.6836h-4.4365v-2.8164zM187.95,320.9365h-3.0078v0.9433h3.0078zM189.4334,320.9365v0.9433h3.0967v-0.9433zM189.4334,327.1982h3.3633v-0.8135h-3.3633zM189.4334,325.3046h3.3633v-0.7793h-3.3633z"/><path d="M199.81,319.2c-0.21875,-0.40107 -0.52864,-0.90463 -0.92968,-1.5107l1.5381,-0.4512c0.45117,0.67447 0.81121,1.32843 1.0801,1.9619h2.5772c0.29167,-0.50133 0.61751,-1.17353 0.97754,-2.0166l1.6816,0.3896c-0.33724,0.61527 -0.66537,1.1576 -0.98438,1.627h3.6299v1.2578h-13.303v-1.2578zM202.4897,321.5379v7.8135c0,0.39647 -0.0752,0.67673 -0.22559,0.8408c-0.16861,0.18687 -0.50129,0.2803 -0.99804,0.2803c-0.45117,0 -0.93881,-0.02267 -1.4629,-0.068l-0.19824,-1.333c0.41015,0.06833 0.80435,0.1025 1.1826,0.1025c0.15039,0 0.24154,-0.02967 0.27344,-0.089c0.02733,-0.04533 0.041,-0.12283 0.041,-0.2325v-1.7363h-2.5566v3.5h-1.415v-9.0781zM198.5454,322.7v1.0937h2.5566v-1.0937zM198.5454,324.8738v1.1485h2.5566v-1.1485zM203.9321,321.8523h1.415v5.8516h-1.415zM206.8169,321.2781h1.5107v7.8682c0,0.5332 -0.14355,0.90233 -0.43066,1.1074c-0.22331,0.16407 -0.58561,0.2461 -1.0869,0.2461c-0.66993,0 -1.34897,-0.041 -2.0371,-0.123l-0.29394,-1.4698c0.75653,0.11853 1.39,0.1778 1.9004,0.1778c0.21419,0 0.34408,-0.04787 0.38965,-0.1436c0.03193,-0.064 0.0479,-0.16427 0.0479,-0.3008z"/><path d="M215.11,325.9v3.5889c0.91147,-0.32353 1.53127,-0.84077 1.8594,-1.5517c0.25521,-0.54693 0.39192,-1.59283 0.41015,-3.1377h1.374c-0.01367,1.80013 -0.20052,3.05337 -0.56055,3.7597c-0.48763,0.94793 -1.31933,1.66343 -2.4951,2.1465l-0.58789,-0.8066v0.01h-3.2676v0.7041h-1.3467v-4.71zM211.8424,327.0758v1.668h1.9209v-1.668zM218.5621,318.5651v-1.2442h1.3877v1.2442h3.3291v1.2031h-3.3291v0.9707h2.9394v1.1758h-7.0957v-1.1758h2.7686v-0.9707h-3.2471v-1.2031zM223.2242,322.8512v2.8711h-1.374v-1.709h-4.9492v1.8184h-1.333v-2.9805zM210.7212,317.8131h4.1289v1.1485h-4.1289zM210.07862,319.8161h5.332v1.2304h-5.332zM210.7212,321.9147h4.1289v1.1348h-4.1289zM210.7212,323.9176h4.1289v1.1074h-4.1289zM219.5806,324.7721h1.3193v4.0537c0,0.1276 0.0319,0.2051 0.0957,0.2325c0.10482,0.04533 0.22331,0.068 0.35547,0.068c0.30078,0 0.49674,-0.0433 0.58789,-0.1299c0.12305,-0.10933 0.20964,-0.72 0.25977,-1.832l1.2373,0.4307c-0.041,1.22133 -0.17088,1.99607 -0.38965,2.3242c-0.13671,0.20507 -0.35546,0.34407 -0.65625,0.417c-0.25976,0.05933 -0.60613,0.089 -1.0391,0.089c-0.75193,0 -1.23727,-0.07747 -1.456,-0.2324c-0.20964,-0.1504 -0.31446,-0.4284 -0.31446,-0.834z"/><path d="M225.83,318.3h5.3457l0.95703,0.8135c-0.45117,1.5814 -0.82487,2.77083 -1.1211,3.5683c1.13473,0.19147 2.18063,0.50137 3.1377,0.9297c0.05467,-0.58787 0.082,-1.16437 0.082,-1.7295c0,-0.30073 -0.0091,-0.6539 -0.0273,-1.0595l1.4971,0.1572c-0.00467,1.3034 -0.05708,2.39943 -0.15723,3.2881c0.56511,0.29167 1.15757,0.63573 1.7774,1.0322l-0.58789,1.4561c-0.4375,-0.319 -0.91147,-0.63573 -1.4219,-0.9502c-0.35091,1.35347 -0.91145,2.4062 -1.6816,3.1582c-0.54687,0.53773 -1.29427,1.0117 -2.2422,1.4219l-0.85449,-1.1485c1.11653,-0.47853 1.9414,-1.0892 2.4746,-1.832c0.41927,-0.59247 0.72917,-1.3672 0.92969,-2.3242c-1.11653,-0.5606 -2.24673,-0.93887 -3.3906,-1.1348c-0.74287,2.03253 -1.488,3.5729 -2.2354,4.6211c-0.56966,0.79293 -1.20996,1.1894 -1.9209,1.1894c-0.68813,0 -1.22133,-0.3281 -1.5996,-0.9843c-0.28711,-0.50133 -0.43066,-1.09833 -0.43066,-1.791c0,-0.8568 0.22103,-1.62243 0.66308,-2.2969c0.52409,-0.80207 1.33073,-1.3877 2.4199,-1.7569c0.62891,-0.2096 1.33301,-0.32353 2.1123,-0.3418c0.41927,-1.09373 0.74056,-2.07353 0.96387,-2.9394h-4.6894zM229.0634,323.8918c-0.58789,0.032 -1.09145,0.14367 -1.5107,0.335c-0.65625,0.29167 -1.13931,0.73827 -1.4492,1.3398c-0.21875,0.42387 -0.32812,0.87503 -0.32812,1.3535c0,0.3828 0.07519,0.7155 0.22558,0.9981c0.11393,0.22327 0.25065,0.3349 0.41016,0.3349c0.63802,0 1.52212,-1.45377 2.6523,-4.3613z"/><path d="M247.67,318.1v0.8819c0,1.5768 0.36913,3.1126 1.1074,4.6074c0.61068,1.23047 1.43555,2.29913 2.4746,3.206l-0.96386,1.3604c-0.84307,-0.7474 -1.6064,-1.72723 -2.29,-2.9395c-0.51953,-0.916 -0.8955,-1.7682 -1.1279,-2.5566c-0.20964,0.93427 -0.4808,1.709 -0.81348,2.3242c-0.68813,1.2806 -1.5449,2.32423 -2.5703,3.1309l-1.0254,-1.2647c2.1328,-1.4948 3.3496,-3.96713 3.6504,-7.417h-2.8232v-1.333zM241.7296,327.3559c0.39649,0.46027 0.79525,0.77927 1.1963,0.957c0.73827,0.33727 1.72947,0.5059 2.9736,0.5059h5.6123c-0.19597,0.41473 -0.34864,0.90007 -0.45801,1.456h-5.1406c-1.5768,0 -2.8027,-0.24837 -3.6777,-0.7451c-0.3737,-0.2096 -0.76563,-0.56277 -1.1758,-1.0595c-0.76107,0.90687 -1.47427,1.62463 -2.1396,2.1533l-0.86816,-1.4698c0.7702,-0.4694 1.4971,-1.0117 2.1807,-1.6269v-3.1377h-2.0713v-1.3467h3.5684zM240.97765,321.2036c-0.61979,-0.8568 -1.39909,-1.73867 -2.3379,-2.6456l1.1348,-0.9228c0.82487,0.66533 1.63607,1.49703 2.4336,2.4951z"/><path d="M253.83,318.3h5.3457l0.95703,0.8135c-0.45117,1.5814 -0.82487,2.77083 -1.1211,3.5683c1.13473,0.19147 2.18063,0.50137 3.1377,0.9297c0.05467,-0.58787 0.082,-1.16437 0.082,-1.7295c0,-0.30073 -0.0091,-0.6539 -0.0273,-1.0595l1.4971,0.1572c-0.00467,1.3034 -0.05708,2.39943 -0.15723,3.2881c0.56511,0.29167 1.15757,0.63573 1.7774,1.0322l-0.58789,1.4561c-0.4375,-0.319 -0.91147,-0.63573 -1.4219,-0.9502c-0.35091,1.35347 -0.91145,2.4062 -1.6816,3.1582c-0.54687,0.53773 -1.29427,1.0117 -2.2422,1.4219l-0.85449,-1.1485c1.11653,-0.47853 1.9414,-1.0892 2.4746,-1.832c0.41927,-0.59247 0.72917,-1.3672 0.92969,-2.3242c-1.11653,-0.5606 -2.24673,-0.93887 -3.3906,-1.1348c-0.74287,2.03253 -1.488,3.5729 -2.2354,4.6211c-0.56966,0.79293 -1.20996,1.1894 -1.9209,1.1894c-0.68813,0 -1.22133,-0.3281 -1.5996,-0.9843c-0.28711,-0.50133 -0.43066,-1.09833 -0.43066,-1.791c0,-0.8568 0.22103,-1.62243 0.66308,-2.2969c0.52409,-0.80207 1.33073,-1.3877 2.4199,-1.7569c0.62891,-0.2096 1.33301,-0.32353 2.1123,-0.3418c0.41927,-1.09373 0.74056,-2.07353 0.96387,-2.9394h-4.6894zM257.0634,323.8918c-0.58789,0.032 -1.09145,0.14367 -1.5107,0.335c-0.65625,0.29167 -1.13931,0.73827 -1.4492,1.3398c-0.21875,0.42387 -0.32812,0.87503 -0.32812,1.3535c0,0.3828 0.07519,0.7155 0.22558,0.9981c0.11393,0.22327 0.25065,0.3349 0.41016,0.3349c0.63802,0 1.52212,-1.45377 2.6523,-4.3613z"/></g><g fill="#ffffff" fill-rule="nonzero"><path d="M148.18,235.1c0.31901,0.16407 0.68587,0.36003 1.1006,0.5879l-0.86816,0.7041h4.1152l0.77246,0.7724c-1.0254,1.54493 -2.0485,2.81413 -3.0693,3.8076l-1.3877,-0.8134c0.8978,-0.82033 1.61787,-1.6361 2.1602,-2.4473h-3.4043v5.3594c0,0.6198 -0.15267,1.01627 -0.45801,1.1894c-0.20507,0.11853 -0.58787,0.1778 -1.1484,0.1778c-0.73373,0 -1.54267,-0.04557 -2.4268,-0.1367l-0.33496,-1.5245c0.8522,0.13673 1.6087,0.2051 2.2695,0.2051c0.25065,0 0.4056,-0.041 0.46484,-0.123c0.0456,-0.0684 0.0684,-0.19373 0.0684,-0.376v-4.7715h-5.7285v-1.3193h7.4102c-1.54033,-0.88413 -3.0807,-1.63153 -4.6211,-2.2422l1.1074,-0.8819c1.03453,0.41473 1.94827,0.81807 2.7412,1.21c0.7018,-0.47853 1.31703,-0.94793 1.8457,-1.4082h-7.3076v-1.2988h9.2969l0.84082,0.8203c-1.194,0.9616 -2.34017,1.79787 -3.4385,2.5088z"/><path d="M156.83,232.7v-1.4287h1.4287v1.4287h2.126v1.2031h-2.126v1.1758h2.4199v1.2168h-0.81348c-0.14583,0.54233 -0.3418,1.11653 -0.58789,1.7226h1.3193v1.1895h-2.3379v1.2646h2.249v1.2168h-2.249v2.8848h-1.4287v-2.8848h-2.4131v-1.2168h2.4131v-1.2646h-2.5225v-1.1895h1.2578c-0.14583,-0.60607 -0.32357,-1.18027 -0.5332,-1.7226h-1.0049v-1.2168h2.8027v-1.1758h-2.2285v-1.2031zM158.5322,236.2957h-2.1738c0.15495,0.43293 0.32129,1.00713 0.49902,1.7226h1.1348c0.23698,-0.58333 0.41699,-1.15753 0.54004,-1.7226zM166.8242,231.7635v3.1992c0,0.39647 -0.07292,0.67673 -0.21875,0.8408c-0.17318,0.19593 -0.53548,0.2939 -1.0869,0.2939c-0.53776,0 -1.07553,-0.02267 -1.6133,-0.068l-0.23242,-1.2305c0.75653,0.08207 1.23733,0.1231 1.4424,0.1231c0.21419,0 0.32129,-0.09343 0.32129,-0.2803v-1.6475h-2.9941v3.9717h3.876l0.81348,0.6973c-0.24609,1.4492 -0.69499,2.74347 -1.3467,3.8828l-0.0752,0.1367c0.5013,0.5788 1.12793,1.10743 1.8799,1.5859l-0.76562,1.2784c-0.72007,-0.46487 -1.36263,-1.02087 -1.9277,-1.668c-0.48763,0.6198 -1.03679,1.20313 -1.6475,1.75l-0.80664,-1.1211v1.0664h-1.3877v-12.81zM162.4424,238.1961v5.1679c0.56055,-0.3828 1.10058,-0.92053 1.6201,-1.6132c-0.69727,-1.07553 -1.18717,-2.26043 -1.4697,-3.5547zM164.8213,240.5408c0.4056,-0.78387 0.66992,-1.56543 0.79297,-2.3447h-1.7637c0.22331,0.875 0.54687,1.65657 0.9707,2.3447z"/><path d="M180.63,232v10.951c0,0.54233 -0.14356,0.9206 -0.43067,1.1348c-0.23242,0.17773 -0.62205,0.2666 -1.1689,0.2666c-0.87047,0 -1.68623,-0.0342 -2.4473,-0.1026l-0.30762,-1.497c0.90233,0.1048 1.66567,0.1572 2.29,0.1572c0.22331,0 0.36686,-0.03873 0.43067,-0.1162c0.0456,-0.05933 0.0684,-0.15733 0.0684,-0.294v-3.9033h-8.6406v5.8516h-1.5654v-12.448zM170.424,233.333v3.9307h3.5274v-3.9307zM179.0646,237.2637v-3.9307h-3.6299v3.9307z"/><path d="M183.27,233.2h3.6846c0.4056,-0.64713 0.71322,-1.16897 0.92286,-1.5655l1.5244,0.2188c-0.13672,0.24607 -0.37826,0.6471 -0.72461,1.2031l-0.0889,0.1436h4.8193v1.3467h-5.7285c-0.597,0.82027 -1.16667,1.5312 -1.709,2.1328c0.86133,-0.515 1.64747,-0.7725 2.3584,-0.7725c1.10287,0 1.8252,0.5537 2.167,1.6611c1.16667,-0.38733 2.35613,-0.77013 3.5684,-1.1484l0.58789,1.3262l-0.23926,0.068l-0.67676,0.1778c-1.27607,0.34633 -2.2969,0.64253 -3.0625,0.8886c0.05467,0.59247 0.09341,1.3581 0.11622,2.2969l-1.4971,0.082c-0.00467,-0.54227 -0.01377,-1.13013 -0.0273,-1.7636v-0.1367c-2.09633,0.71547 -3.1445,1.4355 -3.1445,2.1601c0,0.37373 0.26888,0.62893 0.80664,0.7656c0.51953,0.1322 1.44923,0.1983 2.7891,0.1983c1.235,0 2.53153,-0.07063 3.8896,-0.2119l0.16406,1.456c-1.31707,0.10027 -2.68197,0.1504 -4.0947,0.1504c-1.74087,0 -2.97817,-0.13217 -3.7119,-0.3965c-0.90693,-0.32813 -1.3604,-0.9183 -1.3604,-1.7705c0,-0.72007 0.32129,-1.3558 0.96387,-1.9072c0.66537,-0.56967 1.8366,-1.15757 3.5137,-1.7637c-0.09115,-0.35093 -0.21191,-0.59703 -0.3623,-0.7383c-0.16862,-0.15947 -0.39193,-0.2392 -0.66993,-0.2392c-0.45117,0 -1.01853,0.1709 -1.7021,0.5127c-0.84307,0.41927 -1.7477,1.05043 -2.7139,1.8935l-0.90918,-1.039c1.41733,-1.31707 2.52703,-2.61133 3.3291,-3.8828h-2.7822z"/><path d="M202.66,239.9l-0.20507,-0.8955c0.30989,0.04533 0.597,0.068 0.86132,0.068c0.13217,0 0.20964,-0.03417 0.23243,-0.1025c0.0182,-0.04533 0.0273,-0.1228 0.0273,-0.2324v-1.6065h-3.582v-1.1074h3.582v-0.9639h-1.791v-0.4785c-0.48307,0.28253 -1.00034,0.54457 -1.5518,0.7861l-0.90235,-0.9843c1.0436,-0.40107 1.92087,-0.8887 2.6318,-1.4629c0.54687,-0.44207 1.05274,-0.97527 1.5176,-1.5996h1.4834c0.51953,0.64253 1.18263,1.19397 1.9893,1.6543c0.59701,0.3418 1.40821,0.7041 2.4336,1.0869l-0.81348,1.1074c-0.67907,-0.26433 -1.26697,-0.52637 -1.7637,-0.7861v0.6767h-1.791v0.9639h3.7803v1.1074h-3.7803v2.0987c0,0.319 -0.07747,0.5537 -0.23242,0.7041c-0.15951,0.15493 -0.44889,0.2324 -0.86816,0.2324c-0.13217,0 -0.28712,-0.00333 -0.46485,-0.01v0.6221h4.7168v1.1484h-4.7168v1.0938h5.7217v1.2168h-12.879v-1.2168h5.6396v-1.0938h-4.6621v-1.1484h4.6621v-0.8818zM202.5985,234.0347h3.5957c-0.73827,-0.4466 -1.3968,-0.99117 -1.9756,-1.6337c-0.44206,0.61067 -0.98209,1.15523 -1.6201,1.6337zM199.1532,233.898c-0.65169,-0.597 -1.35806,-1.10513 -2.1191,-1.5244l0.88183,-0.9844c0.90693,0.4694 1.64067,0.9502 2.2012,1.4424zM196.2274,239.0045c0.916,-0.6426 1.8958,-1.53357 2.9394,-2.6729l0.75195,1.0801c-0.68813,0.86587 -1.60187,1.78417 -2.7412,2.7549zM207.7874,240.0435c-0.71093,-0.92967 -1.40137,-1.6497 -2.0713,-2.1601l1.0391,-0.7246c0.79293,0.61067 1.5016,1.27373 2.126,1.9892zM198.1829,236.2769c-0.63802,-0.56967 -1.34212,-1.06413 -2.1123,-1.4834l0.88184,-1.0254c0.73373,0.3646 1.4424,0.83173 2.126,1.4014zM199.4749,239.2574c0.69727,-0.46027 1.33073,-1.1188 1.9004,-1.9756l1.0938,0.6221c-0.61979,0.98893 -1.30113,1.75227 -2.044,2.29z"/><path d="M215.37,237.5c-0.45573,0.8522 -0.92286,1.4925 -1.4014,1.9209c-0.41015,0.36913 -0.78612,0.5537 -1.1279,0.5537c-0.4375,0 -0.7907,-0.2962 -1.0596,-0.8886c-0.27799,-0.6198 -0.41699,-1.5905 -0.41699,-2.9121c0,-1.33073 0.15495,-2.77313 0.46485,-4.3272l1.4971,0.2256c-0.30079,1.54033 -0.45118,2.84373 -0.45118,3.9102c0,1.43553 0.10254,2.1533 0.30762,2.1533c0.07747,0 0.20964,-0.1094 0.39649,-0.3282c0.29167,-0.32807 0.59928,-0.81113 0.92285,-1.4492zM214.3309,242.8526c1.39907,-0.39193 2.45407,-0.97757 3.165,-1.7569c0.87047,-0.95247 1.3057,-2.39257 1.3057,-4.3203c0,-1.46287 -0.14128,-3.10577 -0.42383,-4.9287l1.5654,-0.1504c0.30079,1.84113 0.45118,3.55697 0.45118,5.1475c0,2.5794 -0.6631,4.4365 -1.9893,5.5713c-0.80667,0.69267 -1.89357,1.26687 -3.2607,1.7226z"/><path d="M223.04,234c3.78713,-0.597 6.32783,-0.8955 7.6221,-0.8955c1.43553,0 2.5498,0.3304 3.3428,0.9912c0.9388,0.78387 1.4082,1.9528 1.4082,3.5068c0,1.21227 -0.39193,2.26957 -1.1758,3.1719c-1.194,1.37633 -3.64353,2.21717 -7.3486,2.5225l-0.51954,-1.5108c2.50193,-0.20053 4.277,-0.55827 5.3252,-1.0732c0.56055,-0.278 1.02085,-0.6426 1.3809,-1.0938c0.48763,-0.61067 0.73144,-1.31703 0.73144,-2.1191c0,-0.9844 -0.22786,-1.7113 -0.68359,-2.1807c-0.23242,-0.23693 -0.48535,-0.41467 -0.75879,-0.5332c-0.38281,-0.1686 -0.92968,-0.2529 -1.6406,-0.2529c-1.16213,0 -3.61623,0.3213 -7.3623,0.9639z"/><path d="M245.37,234.8c-1.48113,-0.7702 -3.25163,-1.38087 -5.3115,-1.832l0.61523,-1.2647c2.05987,0.3874 3.85317,0.98213 5.3799,1.7842zM240.7626,241.2805c0.54687,0.84307 1.15071,1.2646 1.8115,1.2646c0.7702,0 1.1553,-0.4352 1.1553,-1.3056c0,-0.64713 -0.19824,-1.4538 -0.59473,-2.42c-0.41016,-0.99347 -0.93653,-1.87073 -1.5791,-2.6318l1.2373,-0.6426c0.87047,1.0254 1.5381,2.14423 2.0029,3.3565c0.3418,0.8932 0.5127,1.69983 0.5127,2.4199c0,0.79753 -0.19824,1.43327 -0.59473,1.9072c-0.47396,0.56053 -1.16439,0.8408 -2.0713,0.8408c-1.0664,0 -1.92773,-0.53773 -2.584,-1.6132zM236.7567,241.9983c0.90693,-1.4948 1.54267,-3.30177 1.9072,-5.4209l1.4219,0.4648c-0.44205,2.43813 -1.11882,4.34993 -2.0303,5.7354zM248.2617,242.5451c-0.51041,-2.10547 -1.23275,-4.01953 -2.167,-5.7422l1.2715,-0.5605c1.03907,1.72267 1.80927,3.62307 2.3106,5.7012zM247.57811,234.3967c-0.29167,-0.7474 -0.74513,-1.56087 -1.3604,-2.4404l1.0391,-0.376c0.53776,0.7428 0.99576,1.54033 1.374,2.3926zM249.30071,233.7951c-0.31901,-0.82487 -0.76791,-1.6429 -1.3467,-2.4541l0.99804,-0.3349c0.52409,0.638 0.97069,1.41273 1.3398,2.3242z"/><path d="M257.78,231.6h1.5381v1.8868h4.0332v1.3193h-4.0332v2.9258c0.15951,0.56053 0.23926,1.05957 0.23926,1.4971c0,1.62233 -0.35773,2.81403 -1.0732,3.5751c-0.77927,0.834 -1.95277,1.4105 -3.5205,1.7295l-0.7793,-1.1621c1.2168,-0.2324 2.11913,-0.5605 2.707,-0.9843c0.55143,-0.40107 0.92287,-0.94567 1.1143,-1.6338c-0.48763,0.5332 -1.0687,0.7998 -1.7432,0.7998c-0.75653,0 -1.3695,-0.2142 -1.8389,-0.6426c-0.55143,-0.50587 -0.82715,-1.2396 -0.82715,-2.2012c0,-0.50587 0.12077,-0.9935 0.3623,-1.4629c0.15951,-0.30073 0.35547,-0.55137 0.58789,-0.7519c0.53777,-0.45573 1.18263,-0.6836 1.9346,-0.6836c0.47852,0 0.91145,0.11393 1.2988,0.3418v-1.3467h-6.7471v-1.3193h6.7471zM257.8347,238.6958v-0.253c0,-0.29167 -0.06836,-0.54913 -0.20508,-0.7724c-0.25521,-0.41927 -0.62434,-0.6289 -1.1074,-0.6289c-0.24609,0 -0.47624,0.06833 -0.69043,0.205c-0.5013,0.31447 -0.75195,0.79757 -0.75195,1.4493c0,0.41013 0.09115,0.75647 0.27344,1.039c0.25521,0.39193 0.63117,0.5879 1.1279,0.5879c0.45117,0 0.80891,-0.2028 1.0732,-0.6084c0.18685,-0.28713 0.28027,-0.62663 0.28027,-1.0185z"/></g><g fill-rule="evenodd"><path d="M336,472c0.55228,0 1,0.44772 1,1c0,0.55228 -0.44772,1 -1,1h-192c-0.55228,0 -1,-0.44772 -1,-1c0,-0.55228 0.44772,-1 1,-1z" fill="#31476d"/><g fill="#7d97b4"><path d="M143,473c0,-0.55228 0.44772,-1 1,-1c0.55228,0 1,0.44772 1,1c0,0.55228 -0.44772,1 -1,1c-0.55228,0 -1,-0.44772 -1,-1z"/><path d="M228.33,473c0,-0.55228 0.44772,-1 1,-1c0.55228,0 1,0.44772 1,1c0,0.55228 -0.44772,1 -1,1c-0.55228,0 -1,-0.44772 -1,-1z"/><path d="M271,473c0,-0.55228 0.44772,-1 1,-1c0.55228,0 1,0.44772 1,1c0,0.55228 -0.44772,1 -1,1c-0.55228,0 -1,-0.44772 -1,-1z"/><path d="M164.333,473c0,-0.55228 0.44772,-1 1,-1c0.55228,0 1,0.44772 1,1c0,0.55228 -0.44772,1 -1,1c-0.55228,0 -1,-0.44772 -1,-1z"/><path d="M313.67,473c0,-0.55228 0.44772,-1 1,-1c0.55228,0 1,0.44772 1,1c0,0.55228 -0.44772,1 -1,1c-0.55228,0 -1,-0.44772 -1,-1z"/><path d="M185.667,473c0,-0.55228 0.44772,-1 1,-1c0.55228,0 1,0.44772 1,1c0,0.55228 -0.44772,1 -1,1c-0.55228,0 -1,-0.44772 -1,-1z"/><path d="M207,473c0,-0.55228 0.44772,-1 1,-1c0.55228,0 1,0.44772 1,1c0,0.55228 -0.44772,1 -1,1c-0.55228,0 -1,-0.44772 -1,-1z"/><path d="M249.67,473c0,-0.55228 0.44772,-1 1,-1c0.55228,0 1,0.44772 1,1c0,0.55228 -0.44772,1 -1,1c-0.55228,0 -1,-0.44772 -1,-1z"/><path d="M292.33,473c0,-0.55228 0.44772,-1 1,-1c0.55228,0 1,0.44772 1,1c0,0.55228 -0.44772,1 -1,1c-0.55228,0 -1,-0.44772 -1,-1z"/></g><path d="M335,473c0,-0.55228 0.44772,-1 1,-1c0.55228,0 1,0.44772 1,1c0,0.55228 -0.44772,1 -1,1c-0.55228,0 -1,-0.44772 -1,-1z" fill="#7d97b4"/></g><g fill="#ffffff" fill-rule="nonzero"><path d="M143.809,297.9c-0.71487,-0.64453 -1.3008,-1.43163 -1.7578,-2.3613c-0.5625,-1.14453 -0.84375,-2.25977 -0.84375,-3.3457c0,-1.23047 0.3535,-2.48243 1.0605,-3.7559c0.42969,-0.76953 0.94335,-1.416 1.541,-1.9394h1.1426c-0.52344,0.60156 -0.94531,1.15626 -1.2656,1.6641c-0.81253,1.29687 -1.2188,2.64453 -1.2188,4.043c0,1.32033 0.36327,2.59377 1.0898,3.8203c0.34375,0.57813 0.80858,1.20313 1.3945,1.875z"/><path d="M148.619,291.33h0.81445c0.68747,0 1.2402,-0.12305 1.6582,-0.36914c0.51172,-0.30078 0.76758,-0.71288 0.76758,-1.2363c0,-0.4336 -0.1875,-0.77733 -0.5625,-1.0312c-0.33203,-0.22266 -0.7461,-0.33399 -1.2422,-0.33399c-0.89847,0 -1.76173,0.34373 -2.5898,1.0312l-0.84961,-1.0488c1.00393,-0.80467 2.18557,-1.207 3.5449,-1.207c0.91013,0 1.65817,0.1875 2.2441,0.5625c0.707,0.45703 1.0605,1.1035 1.0605,1.9394c0,0.64063 -0.24414,1.18946 -0.73242,1.6465c-0.37891,0.35156 -0.87891,0.57226 -1.5,0.66211v0.0469c0.80467,0.13281 1.4199,0.39844 1.8457,0.79688c0.44141,0.41406 0.66211,0.96679 0.66211,1.6582c0,1.0078 -0.4082,1.7617 -1.2246,2.2617c-0.61328,0.375 -1.41798,0.5625 -2.4141,0.5625c-1.57033,0 -2.84377,-0.48047 -3.8203,-1.4414l0.88476,-1.0547c0.3125,0.33203 0.71483,0.60546 1.207,0.82031c0.59765,0.26172 1.17772,0.39258 1.7402,0.39258c0.63281,0 1.12695,-0.13281 1.4824,-0.39844c0.34375,-0.25391 0.51562,-0.64257 0.51562,-1.166c0,-0.71873 -0.3457,-1.2285 -1.0371,-1.5293c-0.46484,-0.20313 -1.02344,-0.30469 -1.6758,-0.30469h-0.7793z"/><path d="M160.807,292.14c-0.12109,1.27347 -0.39648,2.2969 -0.82617,3.0703c-0.64453,1.168 -1.75197,2.06447 -3.3223,2.6894l-0.82617,-1.0957c1.082,-0.32031 1.93747,-0.86525 2.5664,-1.6348c0.58203,-0.71093 0.9375,-1.7207 1.0664,-3.0293h-2.0508v-0.84375c-0.42969,0.44141 -0.91015,0.85937 -1.4414,1.2539l-0.83789,-1.0137c1.71093,-1.17967 2.92773,-2.8281 3.6504,-4.9453l1.248,0.44531c-0.53125,1.47653 -1.30275,2.78903 -2.3145,3.9375h6.668c-1.168,-1.10547 -2.14067,-2.4375 -2.918,-3.9961l1.1895,-0.48047c0.97653,1.9922 2.3281,3.51563 4.0547,4.5703l-0.7793,1.1543c-0.52344,-0.37109 -0.98047,-0.73243 -1.3711,-1.084l-0.0059,0.24024c-0.04687,2.02733 -0.14844,3.64647 -0.30469,4.8574c-0.08203,0.64063 -0.26563,1.06056 -0.55078,1.2598c-0.25391,0.17969 -0.69921,0.26953 -1.3359,0.26953c-0.48047,0 -1.0742,-0.02343 -1.7812,-0.0703l-0.24023,-1.2363c0.64063,0.08593 1.22069,0.1289 1.7402,0.1289c0.30469,0 0.50781,-0.04297 0.60938,-0.1289c0.10156,-0.08594 0.18164,-0.3125 0.24023,-0.67969c0.14453,-0.87107 0.23242,-2.08397 0.26367,-3.6387z"/><path d="M168.863,287.97h6.0469v1.2715h-6.0469zM176.82,296.7415c-1.26173,0.19141 -2.60157,0.28711 -4.0195,0.28711c-1.457,0 -2.62693,-0.13672 -3.5098,-0.41016c-0.34375,-0.10547 -0.66211,-0.27344 -0.95508,-0.50391c-0.44922,-0.35937 -0.67383,-0.85741 -0.67383,-1.4941c0,-0.8008 0.30859,-1.50197 0.92578,-2.1035l1.0195,0.67383c-0.375,0.4414 -0.5625,0.8574 -0.5625,1.248c0,0.4375 0.26367,0.74805 0.79102,0.93164c0.28125,0.10157 0.72852,0.1836 1.3418,0.2461c0.50781,0.05467 1.03321,0.082 1.5762,0.082c1.37107,0 2.666,-0.09961 3.8848,-0.29883zM176.01141,288.8841c-0.29297,-0.70313 -0.6836,-1.38867 -1.1719,-2.0566l0.89648,-0.32226c0.47265,0.63281 0.86522,1.30078 1.1777,2.0039zM177.63441,288.57942c-0.27344,-0.68747 -0.65821,-1.37107 -1.1543,-2.0508l0.86719,-0.29883c0.42187,0.50781 0.81251,1.16015 1.1719,1.957z"/><path d="M188.914,297.04c-1.15627,0.1211 -2.35157,0.18165 -3.5859,0.18165c-1.82033,0 -3.09573,-0.11524 -3.8262,-0.34571c-0.53125,-0.16797 -0.95119,-0.41797 -1.2598,-0.75c-0.35547,-0.38672 -0.5332,-0.85742 -0.5332,-1.4121c0,-0.73047 0.25,-1.38673 0.75,-1.9688c0.42578,-0.49609 1.11131,-0.98829 2.0566,-1.4766c-0.53906,-1.21093 -1.02733,-2.58983 -1.4648,-4.1367l1.3066,-0.33984c0.40625,1.4844 0.83595,2.7969 1.2891,3.9375c1.50393,-0.6914 3.09963,-1.26757 4.7871,-1.7285l0.39258,1.1895c-1.85153,0.46875 -3.69137,1.13475 -5.5195,1.998c-0.56641,0.26953 -0.96874,0.49024 -1.207,0.66211c-0.6992,0.51172 -1.0488,1.08009 -1.0488,1.7051c0,0.54297 0.32422,0.92187 0.97266,1.1367c0.53906,0.17578 1.50389,0.26367 2.8945,0.26367c1.28513,0 2.57223,-0.07422 3.8613,-0.22266z"/><path d="M191.44,297.4c-0.14844,-1.32813 -0.22266,-2.64843 -0.22266,-3.9609c0,-2.25 0.16602,-4.38673 0.49805,-6.4102l1.2891,0.13477c-0.31641,1.75 -0.47461,3.7246 -0.47461,5.9238c0,1.47653 0.08203,2.8574 0.24609,4.1426zM194.9556,288.1188h5.6309v1.248h-5.6309zM200.9849,296.6793c-0.78127,0.12109 -1.709,0.18164 -2.7832,0.18164c-2.6992,0 -4.0488,-0.79297 -4.0488,-2.3789c0,-0.62891 0.16797,-1.17774 0.50391,-1.6465l1.1074,0.49219c-0.21094,0.29687 -0.31641,0.63087 -0.31641,1.002c0,0.45703 0.22852,0.77149 0.68555,0.94336c0.50781,0.19531 1.20118,0.29297 2.0801,0.29297c0.9492,0 1.8281,-0.0625 2.6367,-0.1875z"/><path d="M207.354,288.97v-0.89063h-4.7227v-1.0781h10.717v1.0781h-4.7461v0.89063h4.1074v4.752h-4.1367c-0.00393,0.02733 -0.0059,0.05467 -0.0059,0.082c-0.04297,0.68747 -0.21875,1.2949 -0.52734,1.8223c1.5156,0.53125 3.39647,0.89648 5.6426,1.0957l-0.7207,1.1426c-2.1836,-0.25391 -4.07033,-0.70314 -5.6602,-1.3477c-0.45313,0.39453 -1.03713,0.71289 -1.752,0.95508c-0.64063,0.21875 -1.47069,0.39257 -2.4902,0.52148l-0.63281,-1.1133c1.57813,-0.11719 2.79493,-0.41601 3.6504,-0.89648c-0.83987,-0.41407 -1.6172,-0.8965 -2.332,-1.4473l0.86133,-0.73242c0.74607,0.57813 1.50973,1.03713 2.291,1.377c0.22656,-0.38671 0.37109,-0.87305 0.43359,-1.459h-4.0781v-4.752zM207.354,289.9075h-2.8418v0.94336h2.8418zM208.602,289.9075v0.94336h2.8477v-0.94336zM207.354,291.7532h-2.8418v1.0195h2.8418zM208.602,291.7532v1.0195h2.8477v-1.0195z"/><path d="M217.918,293.86c0.56641,0.30859 1.19337,0.74219 1.8809,1.3008l-0.66797,1.0898c-0.44141,-0.49609 -0.84571,-0.90429 -1.2129,-1.2246v2.8711h-1.2012v-3.1289c-0.52735,0.96873 -1.15431,1.77927 -1.8809,2.4316l-0.68555,-1.1074c0.87107,-0.61719 1.59567,-1.38476 2.1738,-2.3027h-1.8516v-1.0312h2.2441v-1.1426h-2.4727v-1.0781h1.2832c-0.10156,-0.49609 -0.24414,-1.03709 -0.42773,-1.623h-0.62695v-1.0898h2.2207v-1.3301h1.248v1.3301h2.127v1.0898h-0.62695c-0.14453,0.58594 -0.32422,1.12694 -0.53906,1.623h1.3418v1.0781h-2.3262v1.1426h2.1094v1.0312h-2.1094zM216.2657,288.9147c0.14844,0.48828 0.27735,1.02928 0.38672,1.623h1.1602c0.17969,-0.50391 0.33398,-1.04491 0.46289,-1.623zM221.7794,291.7624c0.00393,1.21093 -0.08982,2.33397 -0.28125,3.3691c-0.19922,1.0742 -0.55272,2.03513 -1.0605,2.8828l-0.9668,-0.88476c0.43359,-0.70313 0.73047,-1.5664 0.89062,-2.5898c0.14063,-0.875 0.21094,-1.9922 0.21094,-3.3516v-3.6738c0.07813,-0.0078 0.19727,-0.01953 0.35742,-0.0352c1.2422,-0.11719 2.48633,-0.38476 3.7324,-0.80273l0.76758,1.0195c-1.03907,0.35157 -2.2539,0.62305 -3.6445,0.81445v2.0274h3.9316v1.2246h-1.3418v6.1348h-1.2129v-6.1348z"/><path d="M226.819,297.9c0.52344,-0.60156 0.94531,-1.15626 1.2656,-1.6641c0.81253,-1.29687 1.2188,-2.6406 1.2188,-4.0312c0,-1.32813 -0.36327,-2.60547 -1.0898,-3.832c-0.33984,-0.57031 -0.80467,-1.19531 -1.3945,-1.875h1.1426c0.71487,0.64844 1.3008,1.43554 1.7578,2.3613c0.5625,1.14453 0.84375,2.2578 0.84375,3.3398c0,1.2344 -0.35547,2.4883 -1.0664,3.7617c-0.42579,0.7656 -0.93752,1.41207 -1.5352,1.9394z"/></g><g fill="#ffffff" fill-rule="nonzero"><path d="M143.811,347.9c-0.71487,-0.64453 -1.3008,-1.43163 -1.7578,-2.3613c-0.5625,-1.14453 -0.84375,-2.25977 -0.84375,-3.3457c0,-1.23047 0.3535,-2.48243 1.0605,-3.7559c0.42969,-0.76953 0.94335,-1.416 1.541,-1.9394h1.1426c-0.52344,0.60156 -0.94531,1.15626 -1.2656,1.6641c-0.81253,1.29687 -1.2188,2.64453 -1.2188,4.043c0,1.32033 0.36327,2.59377 1.0898,3.8203c0.34375,0.57813 0.80858,1.20313 1.3945,1.875z"/><path d="M150.104,338.35c0.16406,0.25 0.30664,0.48633 0.42773,0.70899l-1.1777,0.38086c-0.14844,-0.39063 -0.32422,-0.75389 -0.52734,-1.0898h-0.65039c-0.32422,0.44141 -0.67969,0.83397 -1.0664,1.1777l-0.98438,-0.73242c0.77347,-0.6211 1.36527,-1.41407 1.7754,-2.3789l1.2598,0.2168c-0.14063,0.30859 -0.26758,0.56445 -0.38086,0.76757h2.7246v0.94922zM154.9907,338.35c0.1875,0.25781 0.34375,0.49805 0.46875,0.72071l-1.125,0.39257c-0.17187,-0.34765 -0.38476,-0.71875 -0.63867,-1.1133h-0.67969c-0.30078,0.49219 -0.60156,0.90429 -0.90234,1.2363l-0.97266,-0.65039c0.6758,-0.71487 1.168,-1.5469 1.4766,-2.4961l1.2129,0.19336c-0.08984,0.23828 -0.19726,0.49414 -0.32226,0.76757h3.8379v0.94922zM148.6216,341.4555v-0.49805h-2.3672v-0.86132h2.3672v-0.59766h1.1309v0.59766h2.3496v0.86132h-2.3496v0.49805h2.0039v3.6094h-2.0039v0.5625h2.4258v0.91406h-2.4258v1.3594h-1.1309v-1.3594h-2.5195v-0.91406h2.5195v-0.5625h-1.9805v-3.6094zM148.65676,342.21136h-1.0078v0.65625h1.0078zM149.71726,342.21136v0.65625h1.0078v-0.65625zM148.65676,343.58836h-1.0078v0.68555h1.0078zM149.71726,343.58836v0.68555h1.0078v-0.68555zM153.63716,340.89896v5.2852c0,0.22265 0.05273,0.35351 0.1582,0.39258c0.12891,0.04687 0.50194,0.0703 1.1191,0.0703c0.67187,0 1.0664,-0.02733 1.1836,-0.082c0.12109,-0.0586 0.20312,-0.22462 0.24609,-0.49805c0.03906,-0.24609 0.06054,-0.58009 0.06445,-1.002l1.2363,0.31054c-0.04297,0.72267 -0.09375,1.2051 -0.15234,1.4473c-0.10547,0.44531 -0.39062,0.7207 -0.85547,0.82617c-0.35156,0.08203 -0.91796,0.12305 -1.6992,0.12305c-1.0664,0 -1.73437,-0.05274 -2.0039,-0.15821c-0.32422,-0.1289 -0.48633,-0.4707 -0.48633,-1.0254v-6.7207h4.4062v3.9961c0,0.34766 -0.07813,0.59961 -0.23438,0.75586c-0.14844,0.14453 -0.40821,0.2168 -0.7793,0.2168c-0.48437,0 -0.95117,-0.03123 -1.4004,-0.0937l-0.19336,-1.1191c0.10937,0.0156 0.25586,0.03707 0.43945,0.0644c0.25781,0.03907 0.48633,0.0586 0.68555,0.0586c0.14453,0 0.23047,-0.03906 0.25781,-0.11719c0.01563,-0.0508 0.02344,-0.12893 0.02344,-0.23438v-2.4961z"/><path d="M161.752,339.82v-1.4648h1.1895v1.4648h1.7461v-1.4648h1.1895v1.4648h1.3418v0.99609h-1.3418v1.5996h1.6348v1.0195h-1.6348v2.3496h-1.1895v-2.3496h-1.8516c-0.07813,0.48828 -0.21485,0.92188 -0.41016,1.3008c-0.24609,0.47657 -0.62696,0.89453 -1.1426,1.2539l-0.9082,-0.84961c0.64844,-0.40235 1.06054,-0.97071 1.2363,-1.7051h-1.4766v-1.0195h1.6113c0.00393,-0.10156 0.0059,-0.20508 0.0059,-0.31055v-1.2891h-1.3652v-0.99609zM164.6875,340.81609h-1.7461v1.166c0,0.10937 -0.00197,0.2539 -0.0059,0.43359h1.752zM169.0586,336.96649v10.922h-1.2598v-0.69727h-7.9805v0.70898h-1.2598v-10.934zM159.8184,338.02119v8.0684h7.9805v-8.0684z"/><path d="M173.207,344.42c-0.72653,0.49219 -1.43357,0.86522 -2.1211,1.1191l-0.80274,-0.90235c1.87107,-0.63281 3.22653,-1.50585 4.0664,-2.6191l1.1895,0.29297c-0.16797,0.21875 -0.33594,0.41407 -0.50391,0.58594h4.043l0.74414,0.62695c-0.59375,0.71487 -1.43555,1.4473 -2.5254,2.1973c1.22653,0.41406 2.62887,0.72851 4.207,0.94336l-0.66211,1.2246c-1.8594,-0.35547 -3.4512,-0.84181 -4.7754,-1.459c-1.4844,0.72653 -3.2012,1.2285 -5.1504,1.5059l-0.58594,-1.1133c1.543,-0.12109 3.06643,-0.46876 4.5703,-1.043l-0.06445,-0.041c-0.61719,-0.41015 -1.16015,-0.84962 -1.6289,-1.3184zM174.16794,343.86921c0.51953,0.48047 1.1797,0.92577 1.9805,1.3359c0.83593,-0.48047 1.42383,-0.92577 1.7637,-1.3359zM176.40034,337.57621h4.8633v1.0195h-3.3984v2.625c0,0.38281 -0.10352,0.64453 -0.31055,0.78515c-0.17187,0.11719 -0.45898,0.17578 -0.86133,0.17578c-0.37891,0 -0.78907,-0.03123 -1.2305,-0.0937l-0.15234,-1.0195c0.42578,0.07031 0.78321,0.10547 1.0723,0.10547c0.11328,0 0.17969,-0.0254 0.19922,-0.0762c0.01563,-0.03513 0.02344,-0.09373 0.02344,-0.17578v-2.3262h-1.5117c0,0.85153 -0.0957,1.5195 -0.28711,2.0039c-0.33594,0.85547 -0.97657,1.4668 -1.9219,1.834l-0.88477,-0.81446c0.73047,-0.28515 1.2246,-0.65235 1.4824,-1.1016c0.14844,-0.25781 0.25196,-0.56641 0.31055,-0.92578c0.03515,-0.21094 0.06054,-0.54297 0.07617,-0.99609h-3.5508v-1.0195h4.7988v-1.0781h1.2832zM180.36124,341.93561c-0.57813,-0.87107 -1.24609,-1.68357 -2.0039,-2.4375l0.96094,-0.65039c0.7422,0.64063 1.41797,1.40626 2.0273,2.2969zM170.05424,341.09186c0.8008,-0.61328 1.3926,-1.32421 1.7754,-2.1328l1.0898,0.40429c-0.54297,1.12107 -1.23827,1.9902 -2.0859,2.6074z"/><path d="M185.535,339.16v8.6309h-1.3418v-6.4102c-0.49219,0.6992 -1.00392,1.3203 -1.5352,1.8633l-0.67383,-1.2832c1.45313,-1.5078 2.55663,-3.36133 3.3105,-5.5606l1.3066,0.33984c-0.3125,0.84373 -0.66797,1.65037 -1.0664,2.4199zM188.8338,340.4315c1.21873,-0.57422 2.2871,-1.20119 3.2051,-1.8809l1.0078,0.96094c-1.37107,0.90233 -2.77537,1.62693 -4.2129,2.1738v4.043c0,0.24219 0.12305,0.38672 0.36914,0.43359c0.17969,0.03513 0.50586,0.0527 0.97852,0.0527c0.48437,0 0.90037,-0.01953 1.248,-0.0586c0.28125,-0.02733 0.44532,-0.15819 0.49219,-0.39258c0.09765,-0.48047 0.15625,-1.1328 0.17578,-1.957l1.3418,0.41016c-0.03515,1.0508 -0.10547,1.78517 -0.21094,2.2031c-0.12109,0.48047 -0.38281,0.78516 -0.78516,0.91406c-0.41406,0.13672 -1.06836,0.20508 -1.9629,0.20508c-1.40233,0 -2.25583,-0.09961 -2.5605,-0.29883c-0.26953,-0.17578 -0.4043,-0.51951 -0.4043,-1.0312v-9.457h1.3184z"/><path d="M198.063,337.4v8.373h-2.4961v0.99609h-1.166v-9.3691zM195.5669,338.4898v2.4726h1.3418v-2.4726zM195.5669,342.0289v2.6133h1.3418v-2.6133zM201.063,337.7926v-1.2949h1.248v1.2949h2.5547v1.0664h-2.5547v1.3476h3.2168v1.0781h-1.6816v1.2598h1.4062v1.1016h-1.4062v3.1699c0,0.42969 -0.11719,0.72461 -0.35156,0.88477c-0.1875,0.125 -0.50586,0.1875 -0.95508,0.1875c-0.54297,0 -1.0039,-0.0254 -1.3828,-0.0762l-0.24023,-1.1719c0.46094,0.07813 0.89257,0.11719 1.2949,0.11719c0.18359,0 0.29883,-0.03906 0.3457,-0.11719c0.03515,-0.05467 0.05273,-0.14451 0.05273,-0.26953v-2.7246h-4.1484v-1.1016h4.1484v-1.2598h-4.2949v-1.0781h2.748v-1.3476h-2.3906v-1.0664zM200.2837,346.4117c-0.39453,-0.81253 -0.80273,-1.5059 -1.2246,-2.0801l1.0664,-0.59765c0.46485,0.5625 0.89258,1.23437 1.2832,2.0156z"/><path d="M212.395,346.12c2.293,-0.57812 3.4395,-1.89259 3.4395,-3.9434c0,-0.89453 -0.23047,-1.66407 -0.69141,-2.3086c-0.51563,-0.72653 -1.30079,-1.19333 -2.3555,-1.4004c-0.23047,1.81253 -0.54492,3.2969 -0.94336,4.4531c-0.27344,0.8086 -0.61327,1.57227 -1.0195,2.291c-0.58594,1.02347 -1.25194,1.5352 -1.998,1.5352c-0.55469,0 -1.04882,-0.25 -1.4824,-0.75c-0.27735,-0.31641 -0.50196,-0.70507 -0.67383,-1.166c-0.22656,-0.59765 -0.33984,-1.24022 -0.33984,-1.9277c0,-1.11327 0.30664,-2.13867 0.91992,-3.0762c0.62109,-0.95707 1.42773,-1.65237 2.4199,-2.0859c0.72267,-0.31641 1.51563,-0.47461 2.3789,-0.47461c1.34767,0 2.4922,0.36133 3.4336,1.084c1.15627,0.88673 1.7344,2.1426 1.7344,3.7676c0,2.72267 -1.37697,4.44923 -4.1309,5.1797zM211.51609,338.4208c-0.6914,0.07812 -1.26953,0.26367 -1.7344,0.55664c-0.29687,0.19141 -0.59179,0.44531 -0.88476,0.76171c-0.81253,0.89847 -1.2188,1.93947 -1.2188,3.123c0,0.86327 0.17187,1.53907 0.51562,2.0274c0.21094,0.30078 0.41992,0.45117 0.62695,0.45117c0.28125,0 0.59766,-0.31055 0.94922,-0.93164c0.8594,-1.51173 1.44143,-3.50783 1.7461,-5.9883z"/><path d="M225.063,339.1h3.1113v6.4219h-2.4844c1.46487,0.40625 2.74807,0.86718 3.8496,1.3828l-0.98437,1.0547c-1.12893,-0.61719 -2.41997,-1.16602 -3.8731,-1.6465l0.79102,-0.79101h-3.7383l0.95508,0.80273c-1.125,0.69533 -2.3965,1.24807 -3.8145,1.6582l-0.9375,-1.0898c1.35547,-0.29687 2.59767,-0.75391 3.7266,-1.3711h-2.332v-5.5606c-0.125,0.07422 -0.34961,0.19531 -0.67383,0.36328l-0.69726,-0.96094c1.64847,-0.79293 2.8477,-1.75583 3.5977,-2.8887l0.86719,0.55078h3.3809l0.61523,0.5625c-0.41797,0.54688 -0.8711,1.05078 -1.3594,1.5117zM223.5337,339.1c0.43359,-0.39453 0.79296,-0.76563 1.0781,-1.1133h-2.6836c-0.34375,0.37109 -0.76368,0.74219 -1.2598,1.1133zM220.6275,340.01407v0.92578h6.2344v-0.92578zM220.6275,341.78947v0.91406h6.2344v-0.91406zM220.6275,343.58247v1.0137h6.2344v-1.0137z"/><path d="M240.19,341.05v5.6074c0,0.4375 -0.11133,0.74219 -0.33398,0.91406c-0.19531,0.15625 -0.55665,0.23437 -1.084,0.23437c-0.70313,0 -1.29493,-0.02733 -1.7754,-0.082l-0.24024,-1.1543c0.74607,0.07421 1.34567,0.11132 1.7988,0.11132c0.17969,0 0.28711,-0.0332 0.32226,-0.0996c0.02733,-0.04687 0.041,-0.13085 0.041,-0.25196v-5.2793h-5.4375v-1.0664h8.0273v1.0664zM233.2174,337.5226v-1.0195h1.2598v1.0195h2.5312v-1.0195h1.2832v1.0195h2.9531v1.0781h-2.9531v0.92578h-1.2832v-0.92578h-2.5312v0.92578h-0.83789c-0.26562,0.67967 -0.55468,1.2871 -0.86718,1.8223v6.5566h-1.2598v-4.6934c-0.30859,0.38672 -0.65233,0.76369 -1.0312,1.1309l-0.57422,-1.1777c1.11327,-1.09767 1.957,-2.4512 2.5312,-4.0606l0.7793,0.27539v-0.77929h-2.8594v-1.0781zM237.8287,342.1164v3.3047h-2.9766v0.81445h-1.1309v-4.1191zM234.8521,343.01875v1.4531h1.8633v-1.4531z"/><path d="M244.25,339.58v-0.80273h-2.0508v-1.0547h2.0508v-1.2246h1.1133v1.2246h1.957v1.0547h-1.957v0.80273h1.7871v4.4062h-1.7871v0.80274h2.1328v1.0664h-2.1328v2.0391h-1.1133v-2.0391h-2.1973v-1.0664h2.1973v-0.80274h-1.7285v-4.4062zM244.2969,340.54094h-0.84961v0.80273h0.84961zM245.3281,340.54094v0.80273h0.87304v-0.80273zM244.2969,342.19914h-0.84961v0.83789h0.84961zM245.3281,342.19914v0.83789h0.87304v-0.83789zM249.7695,343.55854v-1.3125h1.1777v1.3125h2.2207v1.0781h-2.2207v1.8223h2.543v1.0781h-6.3281v-1.0781h2.6074v-1.8223h-2.0625v-1.0781zM250.43747,341.20304c-0.72267,0.58984 -1.57423,1.09181 -2.5547,1.5059l-0.69726,-0.90821c0.95707,-0.36719 1.75003,-0.81639 2.3789,-1.3476c-0.7578,-0.76173 -1.30273,-1.54493 -1.6348,-2.3496h-0.39258v-1.0781h4.8691l0.65039,0.57422c-0.54687,1.1914 -1.15431,2.14063 -1.8223,2.8477c0.6758,0.45313 1.49807,0.82423 2.4668,1.1133l-0.58593,1.0195c-1.0156,-0.34765 -1.90817,-0.80665 -2.6777,-1.377zM249.03707,338.10344c0.33203,0.59375 0.76367,1.14061 1.2949,1.6406c0.46094,-0.50781 0.84961,-1.05467 1.166,-1.6406z"/><path d="M262.52,344.16c-0.3125,-1.27347 -0.54297,-2.834 -0.6914,-4.6816h-3.4688v2.3145c0,1.53907 -0.05664,2.6758 -0.16992,3.4102c-0.09766,0.65625 -0.26368,1.23242 -0.49805,1.7285c-0.13281,0.28906 -0.32617,0.60937 -0.58008,0.96094l-0.9375,-0.85547c0.45703,-0.6836 0.75391,-1.50587 0.89063,-2.4668c0.09375,-0.668 0.14062,-1.53713 0.14062,-2.6074v-3.5625h4.5527l-0.006,-0.22266c-0.02347,-0.46484 -0.043,-1.02344 -0.0586,-1.6758h1.166c0.02733,0.81253 0.05467,1.44533 0.082,1.8984h1.0898c-0.23047,-0.5625 -0.52148,-1.0703 -0.87304,-1.5234l0.89062,-0.43359c0.39063,0.41797 0.72656,0.91407 1.0078,1.4883l-0.9375,0.46875h1.3066v1.0781h-2.4199c0.0664,1.05467 0.17968,2.08787 0.33985,3.0996c0.33593,-0.76953 0.62109,-1.5586 0.85546,-2.3672l1.0312,0.45704c-0.4375,1.2578 -0.95117,2.43553 -1.541,3.5332c0.1875,0.71093 0.40625,1.28517 0.65625,1.7227c0.09765,0.17578 0.16797,0.26367 0.21094,0.26367c0.07812,0 0.16015,-0.5332 0.24609,-1.5996l0.93164,0.67383c-0.07813,0.75 -0.17383,1.3418 -0.28711,1.7754c-0.13672,0.53906 -0.36914,0.80859 -0.69726,0.80859c-0.29297,0 -0.61524,-0.21875 -0.9668,-0.65625c-0.31641,-0.39453 -0.61133,-0.96483 -0.88477,-1.7109c-0.63281,0.95313 -1.35938,1.75783 -2.1797,2.4141l-0.81446,-0.85547c1.03127,-0.74607 1.90237,-1.70507 2.6133,-2.877zM261.6118,342.203v3.1172h-2.9531v-3.1172zM259.643,343.1405v1.2422h0.99609v-1.2422zM255.934,339.203c-0.42579,-0.59765 -0.98632,-1.20115 -1.6816,-1.8105l0.91406,-0.79688c0.57813,0.44141 1.14259,1.00587 1.6934,1.6934zM255.61173,342.1444c-0.63281,-0.80467 -1.18945,-1.41793 -1.6699,-1.8398l0.89062,-0.83789c0.51172,0.40235 1.08202,0.98635 1.7109,1.752zM254.04733,347.0135c0.62109,-1.0742 1.18946,-2.45897 1.7051,-4.1543l1.0195,0.68555c-0.37109,1.46093 -0.91016,2.91797 -1.6172,4.3711zM258.69383,340.4041h2.9062v0.98438h-2.9062z"/><path d="M266.64,347.9c0.52344,-0.60156 0.94531,-1.15626 1.2656,-1.6641c0.81253,-1.29687 1.2188,-2.6406 1.2188,-4.0312c0,-1.32813 -0.36327,-2.60547 -1.0898,-3.832c-0.33984,-0.57031 -0.80467,-1.19531 -1.3945,-1.875h1.1426c0.71487,0.64844 1.3008,1.43554 1.7578,2.3613c0.5625,1.14453 0.84375,2.2578 0.84375,3.3398c0,1.2344 -0.35547,2.4883 -1.0664,3.7617c-0.42578,0.7656 -0.93751,1.41207 -1.5352,1.9394z"/></g><g fill="#ffffff" fill-rule="nonzero"><path d="M142.04,370.5v-2.5908h1.5244v2.5908h2.2148v-3.2334h1.5381v3.2334h2.4062v-2.9668h1.5107v2.9668h2.1465v1.3603h-2.1465v4.3545h-5.4551v-4.3545h-2.2148v6.4053h9.2148v1.3603h-9.2148v0.9434h-1.5244v-8.709h-1.9619v-1.3603zM149.7236,371.8603h-2.4062v3.0352h2.4062z"/><path d="M163.3,373.6c1.14387,0.75653 2.5817,1.35353 4.3135,1.791l-0.7998,1.3194c-1.07553,-0.35547 -2.07357,-0.7998 -2.9941,-1.333v5.1816h-1.5791v-5.5986h0.90235c-0.64258,-0.43293 -1.18718,-0.8864 -1.6338,-1.3604h-1.5654c-0.38737,0.49673 -0.90917,0.9912 -1.5654,1.4834h0.86816v0.7178c0,1.61327 -0.3509,2.81183 -1.0527,3.5957c-0.45117,0.50587 -1.13704,0.94337 -2.0576,1.3125l-0.9707,-1.1416c1.10287,-0.4284 1.8252,-0.97527 2.167,-1.6406c0.24609,-0.47853 0.36914,-1.11883 0.36914,-1.9209v-0.4649c-0.88867,0.5332 -1.8776,0.9821 -2.9668,1.3467l-0.81348,-1.1758c1.153,-0.31447 2.09407,-0.66763 2.8232,-1.0595c0.54687,-0.29167 1.05274,-0.6426 1.5176,-1.0528h-2.5772v-5.8515h10.11v5.8515zM157.1545,368.8969v1.2305h2.8574v-1.2305zM157.1545,371.2074v1.2305h2.8574v-1.2305zM164.3391,372.4379v-1.2305h-2.9668v1.2305zM164.3391,370.1274v-1.2305h-2.9668v1.2305z"/><path d="M174.9,372.8v5.414c0,0.35093 0.15039,0.56287 0.45117,0.6358c0.3099,0.07747 1.01857,0.1162 2.126,0.1162c1.08007,0 1.79327,-0.0547 2.1396,-0.1641c0.19596,-0.064 0.32356,-0.24173 0.38281,-0.5332c0.07747,-0.41013 0.11849,-0.89547 0.12305,-1.456l1.4287,0.4033c-0.07292,1.3444 -0.25749,2.20343 -0.55371,2.5771c-0.19597,0.24613 -0.49219,0.39197 -0.88867,0.4375c-0.62435,0.0684 -1.68392,0.1026 -3.1787,0.1026c-1.15753,0 -1.91633,-0.032 -2.2764,-0.096c-0.54232,-0.09113 -0.88639,-0.3304 -1.0322,-0.7178c-0.07291,-0.20507 -0.10937,-0.4785 -0.10937,-0.8203v-5.4209l-1.3057,0.4512l-0.32129,-1.3262l1.627,-0.5605v-3.6846h1.3877v3.206l1.4697,-0.499v-3.6025h1.374v3.124l2.29,-0.7861l0.71777,0.4375v5.1201c0,0.35547 -0.08431,0.6198 -0.25293,0.793c-0.19141,0.1914 -0.51269,0.2871 -0.96386,0.2871c-0.36914,0 -0.76107,-0.032 -1.1758,-0.096l-0.22559,-1.3057c0.26888,0.06833 0.54232,0.1025 0.82031,0.1025c0.20052,0 0.32357,-0.041 0.36914,-0.123c0.0456,-0.0684 0.0684,-0.18233 0.0684,-0.3418v-3.2334l-1.6475,0.5742v5.5303h-1.374v-5.0586zM169.8756,370.5646v-3.3017h1.4697v3.3017h1.3262v1.3877h-1.3262v4.3477c0.47852,-0.16407 0.95249,-0.33497 1.4219,-0.5127l0.12988,1.3193c-1.47653,0.67447 -2.99183,1.23957 -4.5459,1.6953l-0.47851,-1.456c0.7018,-0.18233 1.31703,-0.3555 1.8457,-0.5195c0.0638,-0.02267 0.11621,-0.03867 0.15723,-0.048v-4.8262h-1.7363v-1.3877z"/><path d="M189.12,376.3c-0.97527,0.82487 -2.18523,1.50163 -3.6299,2.0303l-0.86817,-1.0528c1.1758,-0.3828 2.22627,-0.93193 3.1514,-1.6474l-0.23926,-0.1162c-0.88413,-0.42387 -1.85027,-0.85227 -2.8984,-1.2852l0.6289,-1.0391c1.1758,0.4284 2.2764,0.8773 3.3018,1.3467l0.2666,0.1231c1.153,-1.21227 2.02117,-2.79367 2.6045,-4.7442l1.3604,0.4239c-0.66537,1.98693 -1.55177,3.63893 -2.6592,4.956c0.0456,0.02267 0.08889,0.04533 0.12988,0.068c0.64258,0.319 1.48568,0.7861 2.5293,1.4013l-0.82715,1.1485c-0.875,-0.5332 -1.8252,-1.07097 -2.8506,-1.6133zM186.078,373.3332c-0.32813,-1.08467 -0.70183,-2.0007 -1.1211,-2.7481l1.2852,-0.5126c0.44206,0.7838 0.82943,1.69297 1.1621,2.7275zM188.4842,372.7863c-0.33724,-1.05273 -0.71551,-1.97103 -1.1348,-2.7549l1.2305,-0.4922c0.52409,0.91147 0.91145,1.81153 1.1621,2.7002zM194.8006,367.885v12.66h-1.5244v-0.7178h-9.0781v0.7178h-1.5108v-12.66zM184.1976,369.1564v9.3516h9.0781v-9.3516z"/><path d="M197.27,369.2h3.6846c0.4056,-0.64713 0.71322,-1.16897 0.92286,-1.5655l1.5244,0.2188c-0.13672,0.24607 -0.37826,0.6471 -0.72461,1.2031l-0.0889,0.1436h4.8193v1.3467h-5.7285c-0.597,0.82027 -1.16667,1.5312 -1.709,2.1328c0.86133,-0.515 1.64747,-0.7725 2.3584,-0.7725c1.10287,0 1.8252,0.5537 2.167,1.6611c1.16667,-0.38733 2.35613,-0.77013 3.5684,-1.1484l0.58789,1.3262l-0.23926,0.068l-0.67676,0.1778c-1.27607,0.34633 -2.2969,0.64253 -3.0625,0.8886c0.05467,0.59247 0.09341,1.3581 0.11622,2.2969l-1.4971,0.082c-0.00467,-0.54227 -0.01377,-1.13013 -0.0273,-1.7636v-0.1367c-2.09633,0.71547 -3.1445,1.4355 -3.1445,2.1601c0,0.37373 0.26888,0.62893 0.80664,0.7656c0.51953,0.1322 1.44923,0.1983 2.7891,0.1983c1.235,0 2.53153,-0.07063 3.8896,-0.2119l0.16406,1.456c-1.31707,0.10027 -2.68197,0.1504 -4.0947,0.1504c-1.74087,0 -2.97817,-0.13217 -3.7119,-0.3965c-0.90693,-0.32813 -1.3604,-0.9183 -1.3604,-1.7705c0,-0.72007 0.32129,-1.3558 0.96387,-1.9072c0.66537,-0.56967 1.8366,-1.15757 3.5137,-1.7637c-0.09115,-0.35093 -0.21191,-0.59703 -0.3623,-0.7383c-0.16862,-0.15947 -0.39193,-0.2392 -0.66993,-0.2392c-0.45117,0 -1.01853,0.1709 -1.7021,0.5127c-0.84307,0.41927 -1.7477,1.05043 -2.7139,1.8935l-0.90918,-1.039c1.41733,-1.31707 2.52703,-2.61133 3.3291,-3.8828h-2.7822z"/><path d="M218.74,377.7l0.0957,1.2236c-1.97787,0.69727 -4.17677,1.2715 -6.5967,1.7227l-0.50586,-1.3672c0.41927,-0.064 1.0117,-0.16653 1.7773,-0.3076v-2.502c-0.7884,0.40107 -1.7272,0.7816 -2.8164,1.1416l-0.7793,-1.2167c2.19207,-0.59247 3.8646,-1.349 5.0176,-2.2696h-4.8809v-1.1894h5.8584v-1.0323h-4.4297v-1.1484h4.4297v-0.9639h-5.127v-1.1757h5.127v-1.3467h1.4971v1.3467h5.2773v1.1757h-5.2773v0.9639h4.5801v1.1484h-4.5801v1.0323h6.0088v1.1894h-1.6338l1.0117,0.6973c-0.62435,0.60613 -1.49935,1.2692 -2.625,1.9892l-0.15723,0.1026c0.8568,0.78387 2.0189,1.431 3.4863,1.9414l-0.92285,1.3877c-1.59053,-0.67447 -2.86887,-1.52213 -3.835,-2.543zM216.6687,374.1453c-0.45573,0.5332 -1.0049,1.01173 -1.6475,1.4356v3.0693c1.12567,-0.25067 2.25587,-0.54233 3.3906,-0.875l0.31445,-0.089c-0.93427,-1.03447 -1.62013,-2.2148 -2.0576,-3.541zM219.1638,376.0115c0.8112,-0.57873 1.52213,-1.20763 2.1328,-1.8867h-3.2334c0.29167,0.69727 0.65853,1.32617 1.1006,1.8867z"/><path d="M231.57,373.1v6.0635c0,0.5514 -0.11165,0.92737 -0.33496,1.1279c-0.20963,0.18227 -0.61523,0.2734 -1.2168,0.2734c-0.6836,0 -1.333,-0.04327 -1.9482,-0.1298l-0.29394,-1.4424c0.63802,0.1048 1.24869,0.1572 1.832,0.1572c0.19596,0 0.31901,-0.03417 0.36914,-0.1025c0.03647,-0.05933 0.0547,-0.15733 0.0547,-0.294v-5.6533h-5.8789v-1.3604h13.173v1.3604zM225.7936,368.0346h9.8848v1.3466h-9.8848zM224.0709,378.5206c0.9844,-1.02993 1.77737,-2.3994 2.3789,-4.1084l1.415,0.5332c-0.69727,1.95507 -1.57453,3.49087 -2.6318,4.6074zM235.8009,379.3546c-0.94333,-1.99613 -1.76363,-3.45677 -2.4609,-4.3819l1.2852,-0.7656c1.0026,1.28973 1.8571,2.6934 2.5635,4.211z"/><path d="M245.18,367.6h1.5381v1.8868h4.0332v1.3193h-4.0332v2.9258c0.15951,0.56053 0.23926,1.05957 0.23926,1.4971c0,1.62233 -0.35773,2.81403 -1.0732,3.5751c-0.77933,0.834 -1.95283,1.4105 -3.5205,1.7295l-0.7793,-1.1621c1.2168,-0.2324 2.11913,-0.5605 2.707,-0.9843c0.55143,-0.40107 0.92287,-0.94567 1.1143,-1.6338c-0.48763,0.5332 -1.06869,0.7998 -1.7432,0.7998c-0.75653,0 -1.3695,-0.2142 -1.8389,-0.6426c-0.55143,-0.50587 -0.82715,-1.2396 -0.82715,-2.2012c0,-0.50587 0.12077,-0.9935 0.36231,-1.4629c0.1595,-0.30073 0.35546,-0.55137 0.58789,-0.7519c0.53776,-0.45573 1.18263,-0.6836 1.9346,-0.6836c0.47851,0 0.91145,0.11393 1.2988,0.3418v-1.3467h-6.7471v-1.3193h6.7471zM245.2347,374.6958v-0.253c0,-0.29167 -0.06836,-0.54913 -0.20508,-0.7724c-0.25521,-0.41927 -0.62434,-0.6289 -1.1074,-0.6289c-0.24609,0 -0.47624,0.06833 -0.69043,0.205c-0.5013,0.31447 -0.75195,0.79757 -0.75195,1.4493c0,0.41013 0.09115,0.75647 0.27344,1.039c0.25521,0.39193 0.63117,0.5879 1.1279,0.5879c0.45117,0 0.8089,-0.2028 1.0732,-0.6084c0.18685,-0.28713 0.28027,-0.62663 0.28027,-1.0185z"/><path d="M253.63,368h7.6699l0.73145,1.1347c-2.3698,1.44927 -4.42287,2.76633 -6.1592,3.9512c1.12107,-0.4694 2.24673,-0.7041 3.377,-0.7041c1.01627,0 1.86393,0.1618 2.543,0.4854c0.62891,0.30073 1.11881,0.71087 1.4697,1.2304c0.36458,0.55147 0.54687,1.18493 0.54687,1.9004c0,1.0026 -0.3418,1.84113 -1.0254,2.5156c-0.4694,0.4694 -1.07097,0.82487 -1.8047,1.0664c-0.9616,0.31447 -2.01433,0.4717 -3.1582,0.4717c-1.31707,0 -2.28777,-0.2438 -2.9121,-0.7314c-0.48763,-0.3828 -0.73144,-0.90007 -0.73144,-1.5518c0,-0.4922 0.17773,-0.9297 0.5332,-1.3125c0.53776,-0.57873 1.26466,-0.8681 2.1807,-0.8681c0.97067,0 1.74767,0.32583 2.331,0.9775c0.42383,0.47393 0.72917,1.10967 0.91602,1.9072c1.40367,-0.4466 2.1055,-1.27147 2.1055,-2.4746c0,-0.91147 -0.38053,-1.58367 -1.1416,-2.0166c-0.51041,-0.29167 -1.15755,-0.4375 -1.9414,-0.4375c-1.1712,0 -2.2285,0.1618 -3.1719,0.4854c-0.69727,0.23693 -1.6338,0.80887 -2.8096,1.7158l-0.96387,-1.1621c1.26693,-1.0938 2.70933,-2.2035 4.3272,-3.3291c1.11653,-0.77473 2.1009,-1.4105 2.9531,-1.9073h-5.8652zM258.8116,378.739c-0.32357,-1.28967 -0.9593,-1.9345 -1.9072,-1.9345c-0.52409,0 -0.90236,0.16633 -1.1348,0.499c-0.10937,0.1504 -0.16406,0.31217 -0.16406,0.4853c0,0.36007 0.25521,0.63123 0.76562,0.8135c0.36914,0.1276 0.86361,0.1914 1.4834,0.1914c0.26433,0 0.58334,-0.01833 0.95703,-0.055z"/></g><g fill="#ffffff" fill-rule="nonzero"><path d="M152.17,407c0,0.2142 -0.0205,1.23047 -0.0615,3.0488h1.3057v1.2305h-1.333c-0.01367,0.597 -0.0433,1.27377 -0.0889,2.0303h1.1553v1.2031h-1.2441c-0.05467,0.6608 -0.12986,1.0983 -0.22559,1.3125c-0.21419,0.5104 -0.73373,0.7656 -1.5586,0.7656c-0.52865,0 -1.01628,-0.03873 -1.4629,-0.1162l-0.25293,-1.2168c0.64257,0.09113 1.13477,0.1367 1.4766,0.1367c0.27799,0 0.44433,-0.09797 0.49902,-0.2939c0.02733,-0.09573 0.0524,-0.2917 0.0752,-0.5879h-4.8672c-0.00467,0.03667 -0.0115,0.0754 -0.0205,0.1162c-0.041,0.24153 -0.07974,0.4694 -0.11621,0.6836l-1.415,-0.1367c0.278,-1.6452 0.46485,-2.88937 0.56055,-3.7325l0.0205,-0.164h-1.3672v-1.2305h1.5107c0.12761,-1.10287 0.23698,-2.11913 0.32813,-3.0488zM147.8497,408.1894h-1.4971c-0.01367,0.23247 -0.05468,0.7224 -0.12305,1.4698l-0.041,0.3896h1.5176l0.0205,-0.1914c0.00913,-0.13213 0.0228,-0.3167 0.041,-0.5537c0.0456,-0.638 0.07293,-1.00943 0.082,-1.1143zM149.1964,408.1894c-0.0228,0.54233 -0.05698,1.14163 -0.10254,1.7979v0.062h1.6064c0.01827,-0.62433 0.03423,-1.24413 0.0479,-1.8594zM147.5968,411.2793h-1.5381c-0.06836,0.556 -0.14128,1.10513 -0.21875,1.6474l-0.0547,0.3829h1.5996c0.10938,-0.98893 0.18002,-1.6657 0.21192,-2.0303zM148.9982,411.2793c-0.01367,0.18227 -0.041,0.48303 -0.082,0.9023l-0.10937,1.128h1.7432c0.0228,-0.44207 0.04103,-0.77477 0.0547,-0.9981c0.02733,-0.4876 0.04557,-0.83167 0.0547,-1.0322zM146.3185,404.5322h6.6035v1.2715h-7.1709c-0.36914,0.75193 -0.83854,1.46743 -1.4082,2.1465l-0.97754,-1.0664c0.8978,-1.05273 1.53583,-2.26497 1.9141,-3.6367l1.4561,0.1503c-0.16407,0.474 -0.30306,0.85227 -0.41699,1.1348zM142.5519,406.5215c-0.56055,-0.7702 -1.24185,-1.49253 -2.0439,-2.167l1.0322,-0.9981c0.7428,0.54687 1.44917,1.2373 2.1191,2.0713zM142.05972,410.1308c-0.69273,-0.88867 -1.39227,-1.63377 -2.0986,-2.2353l1.0664,-1.0254c0.79293,0.62433 1.50613,1.33527 2.1396,2.1328zM140.20032,415.4971c0.793,-1.09833 1.54497,-2.5453 2.2559,-4.3409l1.2168,0.8682c-0.59245,1.65887 -1.35351,3.181 -2.2832,4.5664z"/><path d="M157.7,413.4v-6.3438l0.4375,-0.027c2.84833,-0.1504 5.19307,-0.45347 7.0342,-0.9092l0.92969,1.1279c-0.76107,0.196 -1.67253,0.3692 -2.7344,0.5196l-0.28027,0.041c0.02733,0.45573 0.08658,1.01173 0.17774,1.668l3.5478,-0.1504l0.0684,1.1757l-3.3975,0.1573c0.28711,1.25327 0.70637,2.26727 1.2578,3.042c0.20508,0.28253 0.41471,0.51267 0.6289,0.6904c0.17318,0.13673 0.28939,0.2051 0.34864,0.2051c0.17317,0 0.32356,-0.69957 0.45117,-2.0987l1.2988,0.8409c-0.13217,0.9798 -0.28484,1.69073 -0.45801,2.1328c-0.22787,0.56507 -0.55827,0.8476 -0.99121,0.8476c-0.36459,0 -0.79982,-0.19823 -1.3057,-0.5947c-0.60612,-0.47853 -1.14615,-1.1234 -1.6201,-1.9346c-0.41927,-0.7246 -0.76334,-1.74313 -1.0322,-3.0556l-2.9189,0.1025v2.29c1.01173,-0.20507 2.00977,-0.44203 2.9941,-0.7109l0.12304,1.1758c-1.65887,0.4922 -3.41343,0.90237 -5.2637,1.2305l-0.44434,-1.2442c0.32813,-0.05 0.71093,-0.10923 1.1484,-0.1777zM161.6648,407.9722l-0.16407,0.021c-0.597,0.05933 -1.38313,0.11857 -2.3584,0.1777v1.4902l2.7139,-0.1094c-0.09115,-0.62433 -0.15495,-1.1507 -0.1914,-1.5791zM161.8562,404.6021h5.1064v1.2715h-10.411v3.3018c0,1.9186 -0.09342,3.42023 -0.28027,4.5049c-0.18685,1.0664 -0.53321,2.04393 -1.0391,2.9326l-1.2305,-1.0254c0.46485,-0.84767 0.77019,-1.86623 0.91602,-3.0557c0.10937,-0.875 0.16406,-1.9938 0.16406,-3.3564v-4.5733h5.2226v-1.2851h1.5518zM157.2898,415.1361h6.2412v1.2305h-6.2412z"/><path d="M174.9,408.8v5.414c0,0.35093 0.15039,0.56287 0.45117,0.6358c0.3099,0.07747 1.01857,0.1162 2.126,0.1162c1.08007,0 1.79327,-0.0547 2.1396,-0.1641c0.19596,-0.064 0.32356,-0.24173 0.38281,-0.5332c0.07747,-0.41013 0.11849,-0.89547 0.12305,-1.456l1.4287,0.4033c-0.07292,1.3444 -0.25749,2.20343 -0.55371,2.5771c-0.19597,0.24613 -0.49219,0.39197 -0.88867,0.4375c-0.62435,0.0684 -1.68392,0.1026 -3.1787,0.1026c-1.15753,0 -1.91633,-0.032 -2.2764,-0.096c-0.54232,-0.09113 -0.88639,-0.3304 -1.0322,-0.7178c-0.07291,-0.20507 -0.10937,-0.4785 -0.10937,-0.8203v-5.4209l-1.3057,0.4512l-0.32129,-1.3262l1.627,-0.5605v-3.6846h1.3877v3.206l1.4697,-0.499v-3.6025h1.374v3.124l2.29,-0.7861l0.71777,0.4375v5.1201c0,0.35547 -0.08431,0.6198 -0.25293,0.793c-0.19141,0.1914 -0.51269,0.2871 -0.96386,0.2871c-0.36914,0 -0.76107,-0.032 -1.1758,-0.096l-0.22559,-1.3057c0.26888,0.06833 0.54232,0.1025 0.82031,0.1025c0.20052,0 0.32357,-0.041 0.36914,-0.123c0.0456,-0.0684 0.0684,-0.18233 0.0684,-0.3418v-3.2334l-1.6475,0.5742v5.5303h-1.374v-5.0586zM169.8756,406.5646v-3.3017h1.4697v3.3017h1.3262v1.3877h-1.3262v4.3477c0.47852,-0.16407 0.95249,-0.33497 1.4219,-0.5127l0.12988,1.3193c-1.47653,0.67447 -2.99183,1.23957 -4.5459,1.6953l-0.47851,-1.456c0.7018,-0.18233 1.31703,-0.3555 1.8457,-0.5195c0.0638,-0.02267 0.11621,-0.03867 0.15723,-0.048v-4.8262h-1.7363v-1.3877z"/><path d="M188.34,405.2v3.4727h1.6543v1.3467h-1.6543v6.5351h-1.456v-6.5351h-1.6748c-0.0228,1.37627 -0.12306,2.49963 -0.30078,3.3701c-0.24609,1.235 -0.74739,2.3219 -1.5039,3.2607l-1.2373,-0.9365c0.69727,-0.84767 1.15527,-1.87763 1.374,-3.0899c0.11849,-0.67447 0.18684,-1.50617 0.20507,-2.4951l0.007,-0.1093h-1.668v-1.3467h1.668v-3.4727h-1.374v-1.333h7.2666v1.333zM186.884,405.2h-1.6748v3.4727h1.6748zM189.0305,415.0643c2.0462,-0.70187 3.7962,-2.09183 5.25,-4.1699l1.1348,0.9091c-1.36267,2.069 -3.19697,3.5547 -5.5029,4.4571zM189.4475,407.2576c1.832,-0.92053 3.23793,-2.1715 4.2178,-3.7529l1.2031,0.7656c-1.14387,1.76367 -2.66143,3.13313 -4.5527,4.1084zM189.7141,410.867c1.74547,-0.82487 3.18787,-2.0485 4.3272,-3.6709l1.1348,0.9024c-1.20767,1.69527 -2.72523,2.99637 -4.5527,3.9033z"/><path d="M197.27,405.2h3.6846c0.4056,-0.64713 0.71322,-1.16897 0.92286,-1.5655l1.5244,0.2188c-0.13672,0.24607 -0.37826,0.6471 -0.72461,1.2031l-0.0889,0.1436h4.8193v1.3467h-5.7285c-0.597,0.82027 -1.16667,1.5312 -1.709,2.1328c0.86133,-0.515 1.64747,-0.7725 2.3584,-0.7725c1.10287,0 1.8252,0.5537 2.167,1.6611c1.16667,-0.38733 2.35613,-0.77013 3.5684,-1.1484l0.58789,1.3262l-0.23926,0.068l-0.67676,0.1778c-1.27607,0.34633 -2.2969,0.64253 -3.0625,0.8886c0.05467,0.59247 0.09341,1.3581 0.11622,2.2969l-1.4971,0.082c-0.00467,-0.54227 -0.01377,-1.13013 -0.0273,-1.7636v-0.1367c-2.09633,0.71547 -3.1445,1.4355 -3.1445,2.1601c0,0.37373 0.26888,0.62893 0.80664,0.7656c0.51953,0.1322 1.44923,0.1983 2.7891,0.1983c1.235,0 2.53153,-0.07063 3.8896,-0.2119l0.16406,1.456c-1.31707,0.10027 -2.68197,0.1504 -4.0947,0.1504c-1.74087,0 -2.97817,-0.13217 -3.7119,-0.3965c-0.90693,-0.32813 -1.3604,-0.9183 -1.3604,-1.7705c0,-0.72007 0.32129,-1.3558 0.96387,-1.9072c0.66537,-0.56967 1.8366,-1.15757 3.5137,-1.7637c-0.09115,-0.35093 -0.21191,-0.59703 -0.3623,-0.7383c-0.16862,-0.15947 -0.39193,-0.2392 -0.66993,-0.2392c-0.45117,0 -1.01853,0.1709 -1.7021,0.5127c-0.84307,0.41927 -1.7477,1.05043 -2.7139,1.8935l-0.90918,-1.039c1.41733,-1.31707 2.52703,-2.61133 3.3291,-3.8828h-2.7822z"/><path d="M218.74,413.7l0.0957,1.2236c-1.97787,0.69727 -4.17677,1.2715 -6.5967,1.7227l-0.50586,-1.3672c0.41927,-0.064 1.0117,-0.16653 1.7773,-0.3076v-2.502c-0.7884,0.40107 -1.7272,0.7816 -2.8164,1.1416l-0.7793,-1.2167c2.19207,-0.59247 3.8646,-1.349 5.0176,-2.2696h-4.8809v-1.1894h5.8584v-1.0323h-4.4297v-1.1484h4.4297v-0.9639h-5.127v-1.1757h5.127v-1.3467h1.4971v1.3467h5.2773v1.1757h-5.2773v0.9639h4.5801v1.1484h-4.5801v1.0323h6.0088v1.1894h-1.6338l1.0117,0.6973c-0.62435,0.60613 -1.49935,1.2692 -2.625,1.9892l-0.15723,0.1026c0.8568,0.78387 2.0189,1.431 3.4863,1.9414l-0.92285,1.3877c-1.59053,-0.67447 -2.86887,-1.52213 -3.835,-2.543zM216.6687,410.1453c-0.45573,0.5332 -1.0049,1.01173 -1.6475,1.4356v3.0693c1.12567,-0.25067 2.25587,-0.54233 3.3906,-0.875l0.31445,-0.089c-0.93427,-1.03447 -1.62013,-2.2148 -2.0576,-3.541zM219.1638,412.0115c0.8112,-0.57873 1.52213,-1.20763 2.1328,-1.8867h-3.2334c0.29167,0.69727 0.65853,1.32617 1.1006,1.8867z"/><path d="M231.57,409.1v6.0635c0,0.5514 -0.11165,0.92737 -0.33496,1.1279c-0.20963,0.18227 -0.61523,0.2734 -1.2168,0.2734c-0.6836,0 -1.333,-0.04327 -1.9482,-0.1298l-0.29394,-1.4424c0.63802,0.1048 1.24869,0.1572 1.832,0.1572c0.19596,0 0.31901,-0.03417 0.36914,-0.1025c0.03647,-0.05933 0.0547,-0.15733 0.0547,-0.294v-5.6533h-5.8789v-1.3604h13.173v1.3604zM225.7936,404.0346h9.8848v1.3466h-9.8848zM224.0709,414.5206c0.9844,-1.02993 1.77737,-2.3994 2.3789,-4.1084l1.415,0.5332c-0.69727,1.95507 -1.57453,3.49087 -2.6318,4.6074zM235.8009,415.3546c-0.94333,-1.99613 -1.76363,-3.45677 -2.4609,-4.3819l1.2852,-0.7656c1.0026,1.28973 1.8571,2.6934 2.5635,4.211z"/><path d="M245.18,403.6h1.5381v1.8868h4.0332v1.3193h-4.0332v2.9258c0.15951,0.56053 0.23926,1.05957 0.23926,1.4971c0,1.62233 -0.35773,2.81403 -1.0732,3.5751c-0.77933,0.834 -1.95283,1.4105 -3.5205,1.7295l-0.7793,-1.1621c1.2168,-0.2324 2.11913,-0.5605 2.707,-0.9843c0.55143,-0.40107 0.92287,-0.94567 1.1143,-1.6338c-0.48763,0.5332 -1.06869,0.7998 -1.7432,0.7998c-0.75653,0 -1.3695,-0.2142 -1.8389,-0.6426c-0.55143,-0.50587 -0.82715,-1.2396 -0.82715,-2.2012c0,-0.50587 0.12077,-0.9935 0.36231,-1.4629c0.1595,-0.30073 0.35546,-0.55137 0.58789,-0.7519c0.53776,-0.45573 1.18263,-0.6836 1.9346,-0.6836c0.47851,0 0.91145,0.11393 1.2988,0.3418v-1.3467h-6.7471v-1.3193h6.7471zM245.2347,410.6958v-0.253c0,-0.29167 -0.06836,-0.54913 -0.20508,-0.7724c-0.25521,-0.41927 -0.62434,-0.6289 -1.1074,-0.6289c-0.24609,0 -0.47624,0.06833 -0.69043,0.205c-0.5013,0.31447 -0.75195,0.79757 -0.75195,1.4493c0,0.41013 0.09115,0.75647 0.27344,1.039c0.25521,0.39193 0.63117,0.5879 1.1279,0.5879c0.45117,0 0.8089,-0.2028 1.0732,-0.6084c0.18685,-0.28713 0.28027,-0.62663 0.28027,-1.0185z"/><path d="M253.63,404h7.6699l0.73145,1.1347c-2.3698,1.44927 -4.42287,2.76633 -6.1592,3.9512c1.12107,-0.4694 2.24673,-0.7041 3.377,-0.7041c1.01627,0 1.86393,0.1618 2.543,0.4854c0.62891,0.30073 1.11881,0.71087 1.4697,1.2304c0.36458,0.55147 0.54687,1.18493 0.54687,1.9004c0,1.0026 -0.3418,1.84113 -1.0254,2.5156c-0.4694,0.4694 -1.07097,0.82487 -1.8047,1.0664c-0.9616,0.31447 -2.01433,0.4717 -3.1582,0.4717c-1.31707,0 -2.28777,-0.2438 -2.9121,-0.7314c-0.48763,-0.3828 -0.73144,-0.90007 -0.73144,-1.5518c0,-0.4922 0.17773,-0.9297 0.5332,-1.3125c0.53776,-0.57873 1.26466,-0.8681 2.1807,-0.8681c0.97067,0 1.74767,0.32583 2.331,0.9775c0.42383,0.47393 0.72917,1.10967 0.91602,1.9072c1.40367,-0.4466 2.1055,-1.27147 2.1055,-2.4746c0,-0.91147 -0.38053,-1.58367 -1.1416,-2.0166c-0.51041,-0.29167 -1.15755,-0.4375 -1.9414,-0.4375c-1.1712,0 -2.2285,0.1618 -3.1719,0.4854c-0.69727,0.23693 -1.6338,0.80887 -2.8096,1.7158l-0.96387,-1.1621c1.26693,-1.0938 2.70933,-2.2035 4.3272,-3.3291c1.11653,-0.77473 2.1009,-1.4105 2.9531,-1.9073h-5.8652zM258.8116,414.739c-0.32357,-1.28967 -0.9593,-1.9345 -1.9072,-1.9345c-0.52409,0 -0.90236,0.16633 -1.1348,0.499c-0.10937,0.1504 -0.16406,0.31217 -0.16406,0.4853c0,0.36007 0.25521,0.63123 0.76562,0.8135c0.36914,0.1276 0.86361,0.1914 1.4834,0.1914c0.26433,0 0.58334,-0.01833 0.95703,-0.055z"/></g></g></g></svg>