<svg version="1.1" xmlns="http://www.w3.org/2000/svg" xmlns:xlink="http://www.w3.org/1999/xlink" width="100" height="100" viewBox="0,0,100,100"><g transform="translate(-190,-130)"><g data-paper-data="{&quot;isPaintingLayer&quot;:true}" fill-rule="nonzero" stroke-linecap="butt" stroke-linejoin="miter" stroke-miterlimit="10" stroke-dasharray="" stroke-dashoffset="0" style="mix-blend-mode: normal"><path d="M190,230v-100h100v100z" fill="none" stroke="#959196" stroke-width="0"/><path d="M262.449,164.602v28.096c0,1.13933 -0.21647,1.99383 -0.64941,2.5635c-0.56966,0.7178 -1.78303,1.0767 -3.6401,1.0767c-2.3014,0 -4.56867,-0.10254 -6.8018,-0.30762l-0.76904,-3.7427c2.83693,0.27344 5.11557,0.41016 6.8359,0.41016c0.53548,0 0.86019,-0.11393 0.97412,-0.3418c0.06836,-0.14811 0.10254,-0.35889 0.10254,-0.63232v-7.1265h-15.039c-0.11393,1.83433 -0.42155,3.5661 -0.92285,5.1953c-0.77473,2.49513 -2.1989,4.83073 -4.2725,7.0068l-3.042,-2.9395c1.90267,-2.14193 3.16163,-4.3921 3.7769,-6.7505c0.37597,-1.49253 0.56396,-3.16163 0.56396,-5.0073v-17.5zM243.548,167.8491v4.9048h14.954v-4.9048zM243.548,176.0522v5.2466h14.954v-5.2466z" fill="#ff0000" stroke="none" stroke-width="1"/><path d="M211.551,184.926l7.28,-19.04h3.64l-7.28,19.04zM211.551,188.166v-3.24h16.48v3.24zM221.551,194.086v-15.96h3.4v15.96z" fill="#ff0000" stroke="none" stroke-width="1"/></g></g></svg>