<?xml version="1.0" encoding="UTF-8"?>
<svg width="480" height="360" version="1.1" viewBox="0 0 480 360" xmlns="http://www.w3.org/2000/svg">
 <g dominant-baseline="central" fill="#fff" aria-label="国後島付近">
  <path d="m250.76 176.34v2.3242h4.2383v1.6406h-1.9043q0.88867 0.72266 1.9434 2.0606l-1.4941 0.99609q-0.71289-1.0742-2.002-2.2558l1.4258-0.80079h-2.207v3.0957h5v1.7188h-11.543v-1.7188h4.5215v-3.0957h-3.7793v-1.6406h3.7793v-2.3242h-4.3164v-1.6992h11.113v1.6992zm7.998-4.9219v18.086h-2.1582v-1.0254h-13.223v1.0254h-2.1387v-18.086zm-15.381 1.7969v13.408h13.223v-13.408z" dominant-baseline="central"/>
  <path d="m270.49 177.33q-1.5723-1.875-3.6914-3.5644l1.4062-1.3379q0.72266 0.61523 1.2598 1.1328 1.1133-1.3867 2.1191-3.2129l1.875 0.82031q-1.3281 1.9141-2.8418 3.5352l0.14649 0.14649q0.61523 0.66406 1.0547 1.1816 1.8848-1.9531 3.5254-3.9648l1.6602 1.0254q-2.2266 2.6367-5.0586 5.1562 1.7969-0.0879 4.248-0.2539-0.54688-0.9668-1.2305-1.8848l1.6406-0.76172q1.543 1.8848 2.7344 4.4629l-1.7774 0.85938-0.27343-0.57617q-0.26368-0.54688-0.33204-0.67383-2.6367 0.35156-4.7461 0.45898-0.0684 0.01-0.14648 0.0195-0.29297 0.48828-0.77149 1.1914h5.293l1.1816 1.084q-1.4941 2.1289-3.3203 3.584 2.2461 1.1523 5.1953 1.8164l-1.0742 1.8945q-3.0469-0.78125-5.8398-2.5195-3.1934 1.9336-6.1426 2.666l-1.0644-1.8262q2.627-0.44922 5.5566-1.9727-1.2305-1.0156-2.2168-2.041-0.76172 0.64453-1.7773 1.2207l-1.2598-1.3477q2.3242-1.2891 3.9941-3.623l-1.4648 0.0781q-0.84961 0.0488-1.5137 0.0684l-0.43946-1.7578q0.64454-0.01 2.959-0.0684l0.33203-0.2832q0.40039-0.36133 0.80078-0.73243zm2.3047 7.4512q1.3574-0.98633 2.2852-2.1094h-4.8926q1.1328 1.1621 2.6074 2.1094zm-7.6856-5.957v10.674h-2.0996v-8.2226q-0.9082 0.91797-1.7871 1.6797l-0.97656-1.9141q2.6856-2.0898 5.0586-6.1035l1.7578 0.99609q-0.87891 1.4551-1.9531 2.8906zm-4.707-3.8281q2.4902-1.748 4.2578-4.4434l1.8066 0.95703q-2.3047 3.3008-4.9805 5.1856z" dominant-baseline="central"/>
  <path d="m287.74 171.98q0.36133-0.86914 0.58594-1.6602l2.3828 0.32226q-0.3418 0.81055-0.625 1.3379h6.5039v6.3672h-11.797v0.98633h14.697v1.582h-14.697v0.99609h14.014q-0.12695 4.4727-0.5664 6.0352-0.28321 0.99609-1.0645 1.3184-0.55664 0.23437-1.6992 0.23437-1.1719 0-2.1875-0.14648l-0.39063-1.6406h-9.7852v1.084h-2.0996v-4.6973h2.0996v2.0117h3.3594v-2.6367h-3.8379v-11.494zm4.1504 14.131v-2.0117h2.0215v3.3984q0.81054 0.0781 1.3476 0.0781 0.66406 0 0.83008-0.38085 0.32227-0.7129 0.50781-3.7207h-8.0273v2.6367zm-7.0996-12.627v0.96679h9.6387v-0.96679zm0 2.3633v1.0644h9.6387v-1.0644z" dominant-baseline="central"/>
  <path d="m305.44 175.96v13.545h-2.1191v-10.029q-0.79101 1.1133-1.8359 2.3047l-1.1035-2.0996q1.9824-2.1973 3.3984-5.1172 0.85937-1.7676 1.7188-4.2188l2.041 0.55664q-0.88867 2.6758-2.0996 5.0586zm11.123-0.85937h2.9394v1.9629h-2.9394v10.254q0 1.2891-0.625 1.7188-0.45898 0.32227-1.7285 0.32227-1.5527 0-3.1836-0.17578l-0.41992-2.1387q1.7383 0.2539 3.2422 0.2539 0.41015 0 0.49804-0.17578 0.0586-0.12695 0.0586-0.41992v-9.6387h-7.9883v-1.9629h7.9883v-4.2578h2.1582zm-6.1816 9.4629q-1.1035-2.9395-2.7246-5.3613l1.8652-1.084q1.7578 2.5879 2.8223 5.3027z" dominant-baseline="central"/>
  <path d="m325.52 185.06q0.78125 0.90821 1.7578 1.3477 1.6016 0.72266 4.1992 0.72266h8.3203q-0.35156 0.66406-0.6543 1.9043h-7.7637q-3.3594 0-5.1465-1.0547-0.73242-0.43946-1.6113-1.4356-0.0684 0.0781-0.16602 0.19531-1.4355 1.6992-2.8516 2.7734l-1.1816-2.002q1.5527-0.92774 2.998-2.0996v-4.8242h-2.8418v-1.9238h4.9414zm2.5391-12.959 0.51758-0.0391q4.5215-0.3125 8.125-1.3379l1.5234 1.7188q-3.7891 0.99609-8.0859 1.3476v2.5293h9.043v1.9043h-3.2812v7.959h-2.1582v-7.959h-3.6035q-0.0488 3.1348-0.46875 4.9902-0.38086 1.709-1.25 3.0664l-1.7969-1.3574q0.9668-1.5039 1.2402-3.7305 0.19531-1.5332 0.19531-4.1699zm-3.6133 3.8184q-1.4941-2.1094-3.2227-3.7793l1.6016-1.2793q1.6797 1.4062 3.3789 3.5742z" dominant-baseline="central"/>
 </g>
</svg>
