<svg version="1.1" xmlns="http://www.w3.org/2000/svg" xmlns:xlink="http://www.w3.org/1999/xlink" width="76.03701" height="72.78707" viewBox="0,0,76.03701,72.78707"><g transform="translate(-317.61488,5.79903)"><g data-paper-data="{&quot;isPaintingLayer&quot;:true}" fill="#ff0000" fill-rule="evenodd" stroke="none" stroke-width="0" stroke-linecap="round" stroke-linejoin="round" stroke-miterlimit="10" stroke-dasharray="" stroke-dashoffset="0" style="mix-blend-mode: normal"><path d="M362.05315,12.61019l-1.48994,-0.03l-1.49994,-0.77997l0.01,-0.53998l-1.11996,-0.64997l-0.68998,0.32998l-1.78993,-0.41998l-0.1,0.89997l0.34999,2.02992l0.84996,0.78997l-0.24999,2.02991l-2.11991,0.08l-0.86996,0.42998l-1.59993,0.16l0.07999,1.22995l-0.59997,1.47994l-1.85992,-0.15l-1.05996,-0.42998l-1.39995,0.22999l-0.64997,-0.56997l-0.43998,-1.26995l-1.49994,-0.26999l-2.5099,0.88996l-0.27999,3.63986l0.81997,2.3599l-0.1,1.05996l0.51998,3.10987l0.41998,0.92997l1.14995,0.24999l1.53994,0.94996l1.19995,-0.03l3.77985,1.43994l1.08996,-1.29995l1.40994,-0.65997l4.65981,-1.35994l0.58998,1.84992l0.55997,-0.26999l-0.53997,-1.73993l1.36994,-0.52998l1.11996,-0.03l1.32995,0.57998l2.91989,2.13992l0.01,0.43998l1.22995,1.09995l0.77997,-1.01996l1.15995,0.01l1.19995,0.65998l1.84993,0.53998l0.95996,0.02l1.70993,-0.59998l1.81993,-0.19999l1.48994,-0.82996l2.69989,-1.13995l1.94992,-0.26999l0.01,0.67997l-0.83997,0.92996l-0.54998,1.19995l-1.01996,-0.02999l-0.76997,1.42994l0.58997,0.76997l-1.12995,1.52994l-0.82997,2.03992l-1.95992,1.55994l-0.85997,1.00996l-0.75996,1.46994l0.67997,1.43994l-1.91993,1.42994l0.13999,1.28995l0.47998,0.55998l1.21996,0.13l1.53994,0.86996l1.28995,-0.70997l0.55998,-0.92996l1.62994,-0.30999l0.52997,1.04996l1.60994,-0.86997l1.51994,0.71998l-1.39995,0.60997l-0.53998,1.28995l-1.00996,-0.42998l-0.88997,0.54998l0.05,0.71997l-2.4199,1.34994l1.55993,1.47994l1.30995,-0.18999l0.48998,-0.62998l1.10996,0.88996l1.01996,-0.66997l1.18995,1.37994l0.90997,0.23999l0.61997,-1.66994l0.77997,1.38995l1.09995,0.46998l0.26999,-0.74997l2.11991,0.61998l1.16996,-0.12l-0.40999,-1.31994l0.17999,-1.15995l1.15995,-0.56997l-0.19999,1.83992l0.62997,1.01996l-1.46994,0.69997l-0.07,0.44998l-1.45994,0.80997l-1.54994,-0.96996l-0.63998,0.37999l-1.29994,-0.71997l-1.93993,0.92996l-1.07995,0.03l-1.78993,1.76993l-3.85985,-0.01l-1.63993,0.25999l-1.25995,1.25995l-0.70997,-0.48998l-1.09996,0.07l-1.07996,-0.35998l-0.06,1.04996l-0.72997,0.50998l-0.38999,1.39994l-0.68998,0.86997l0.82997,2.89988l-2.18992,1.08996l-0.94996,-0.21999l-1.72993,0.44998l-1.27995,-0.28999l-1.94992,0.60997l-0.76997,0.92997l-1.27995,0.71997l-1.05996,0.07999l-0.85996,-1.49994l-0.48998,-1.89992l-0.61998,-0.66997l-0.70997,-1.97992l-0.85996,-0.93997l-0.34998,-1.08996l0.55998,-1.97992l0.91996,0.49998l1.21995,-0.72997l0.08999,-1.51994l-0.58997,-0.42998l-0.02,-1.54994l0.73997,-1.47994l0.02,-1.17995l-1.47994,0.76997l-0.50998,-0.57998l-1.29994,-0.35999l-2.31991,-1.46994l-1.10996,0.03l-0.60998,0.55997l-1.30995,-0.53997l-0.63997,-0.95996l-0.88997,-0.13l-0.48998,-0.76997l-1.22996,0.12l-2.01991,1.65993l-1.42995,0.31999l-1.11996,0.96996l0.54998,0.56997l-0.71997,1.30995l-1.98992,0.68997l-0.93996,-0.21999l-0.86996,-0.90996l-0.22999,-1.26994l-1.04996,-0.36999l-0.32998,0.65997l-1.70993,1.04996l-0.48998,-1.52994l1.48994,-1.99992l0.11,-1.28995l-0.57998,-0.44998l0.1,-0.97996l0.86996,-0.44998l0.52998,-0.86997l-0.28999,-1.02996l-1.21996,0.20999l-0.50998,-0.45998l-3.27987,0.16999l-0.29999,0.75997l-1.12995,0.71997l-0.65998,1.77993l-1.81992,0.93997l0.62997,0.64997l-0.56997,0.60998l-1.52994,0.15999l-0.47998,-0.49998l-2.13992,0.45998l-1.90992,-1.83993l-1.12995,0.28999l-0.93996,-0.82996l-1.40994,0.22999l0.22999,-1.58993l2.86988,-2.40991l2.68989,-0.87996l0.87996,-1.13995l-0.55998,-0.49998l-0.96996,0.70997l-0.63998,-1.13995l0.66998,-0.74997l-1.91993,-1.40994l-0.77997,-1.88993l-1.21995,-1.91993l1.03996,-0.57997l0.72997,-1.08996l0.76997,-0.47998l0.44998,-1.87993l1.19995,-0.92996l2.10992,-2.6399l-1.59994,-1.31994l0.83997,-0.23999l0.77997,-1.13995l1.76993,0.47998l1.75993,-0.34999l1.39995,-1.27995l1.69993,0.19999l-0.20999,-0.98996l0.57997,-1.16995l-0.14999,-0.78997l1.45994,0.12999l1.70993,-0.99996l-0.76997,-1.84993l-1.75993,-0.36998l-0.14999,-0.64998l0.74997,-2.01992l0.62998,-0.37999l-0.24999,-1.37994l0.72997,-0.33999l0.83997,-2.3299l-0.13999,-1.09995l-0.78997,-2.23991l0.14999,-0.70997l-1.84992,-1.92992l0.48998,-1.43994l1.04996,-0.91997l1.63993,0.49998l0.03,-1.09995l-1.03995,-1.04996l1.93992,-0.76997l0.95996,1.91993l1.59994,0.51997l0.99996,1.32995l0.66998,0.04l3.27987,2.12992l1.24995,-0.20999l-0.37999,-2.96988l0.54998,-0.41998l1.68993,-3.31986l1.03996,-1.75993l1.23995,-1.02996l0.93996,-0.37999l0.27999,0.81997l-0.36998,2.12991l0.47998,1.60994l1.14995,2.03991l0.21999,2.74989l0.47998,1.31995l1.98992,0.55998l0.70997,1.21995l2.34991,0.18999l-0.65998,0.88997l-0.22999,1.05996l1.25995,0.43998l2.00992,-0.42998l1.17995,-1.50994l1.23995,-0.15999l1.15995,0.43998l-0.89996,1.49994l-0.83997,3.53986"/><path d="M393.65189,48.40875l-1.02996,0.86996l-0.24999,-0.94996l0.70997,-0.47998l0.56998,0.55998"/><path d="M385.95219,28.00956l1.69993,-0.22999l-1.12995,0.92997l-0.56997,-0.69998"/></g></g></svg>