<?xml version="1.0" encoding="UTF-8"?>
<svg width="480" height="360" version="1.1" viewBox="0 0 480 360" xmlns="http://www.w3.org/2000/svg">
 <g dominant-baseline="central" fill="#fff" aria-label="福岡県北西沖">
  <path d="m245.45 179.12q1.2988 0.89844 2.4316 1.9434v-0.79101h11.123v9.2285h-1.9629v-0.82031h-7.1777v0.82031h-1.9824v-8.1836l-1.0156 1.6113q-0.72265-0.85938-1.416-1.5332v8.1055h-2.0606v-7.998q-1.1621 1.3086-2.1484 2.2266l-1.0156-1.8555q3.2812-2.8711 4.9609-6.2988h-4.5215v-1.9434h2.6367v-3.1348h2.0801v3.1348h1.5039l0.89843 0.9375q-0.91797 2.1094-2.334 4.2285zm4.4141 2.7344v1.8164h2.6465v-1.8164zm0 3.3203v1.8848h2.6465v-1.8848zm7.1777 1.8848v-1.8848h-2.7344v1.8848zm0-3.3887v-1.8164h-2.7344v1.8164zm1.0254-9.4922v4.9609h-9.3262v-4.9609zm-7.3633 1.5039v1.9727h5.3418v-1.9727zm-3.1152-4.3848h11.699v1.6992h-11.699z" dominant-baseline="central"/>
  <path d="m273.12 184.26v-4.2188h1.8555v5.9766h-8.1445v1.3184h-1.8555v-7.2949h1.8555v4.2188h2.1582v-5.498h-5.0098v-1.7578h6.9531q0.97656-1.709 1.6797-3.7988l2.0215 0.70313q-0.83984 1.7676-1.748 3.0957h3.1543v1.7578h-5.1953v5.498zm5.5566-13.076v16.357q0 0.98633-0.52734 1.416-0.50782 0.41015-1.7676 0.41015-0.98633 0-3.3691-0.16601l-0.49805-2.0606q1.6992 0.20508 3.3301 0.20508 0.54687 0 0.64453-0.18555 0.0684-0.12695 0.0684-0.49804v-13.643h-13.105v16.484h-2.1191v-18.32zm-11.982 5.7715q-0.6543-1.5625-1.4844-2.8516l1.8262-0.78125q0.91796 1.3379 1.5332 2.8125z" dominant-baseline="central"/>
  <path d="m296.76 170.98v9.4629h-11.621v-9.4629zm-9.5215 1.543v1.2207h7.4023v-1.2207zm0 2.5977v1.2207h7.4023v-1.2207zm0 2.5976v1.2598h7.4023v-1.2598zm-3.9356 4.0234h16.191v1.6992h-8.0762v6.0644h-2.2168v-6.0644h-8.0371v-10.957h2.1387zm-2.5 5.8984q2.3242-1.0742 4.4434-3.6035l1.7969 1.0449q-2.0898 2.6465-4.6387 4.1602zm16.836 1.2598q-1.4941-1.8359-4.4922-3.8574l1.6797-1.1816q2.3535 1.3574 4.6191 3.5644z" dominant-baseline="central"/>
  <path d="m305.84 184.3q-2.6953 1.416-4.6973 2.168l-0.82031-2.1484q3.1348-1.0547 5.5176-2.1875v-4.375h-4.834v-2.0606h4.834v-5.1953h2.1777v19.004h-2.1777zm6.9434-7.6074q2.2754-1.1914 4.4141-3.0273l1.6211 1.6992q-2.8906 2.0508-6.0352 3.4961v7.3242q0 0.47852 0.3125 0.58594 0.33203 0.10742 1.5332 0.10742 1.582 0 1.9824-0.18555 0.2832-0.12695 0.39062-0.79101 0.14649-0.92774 0.21485-2.998l2.1875 0.67383q-0.0977 2.5293-0.3125 3.6328-0.24414 1.2305-1.2793 1.5918-0.98633 0.33203-3.2324 0.33203-2.6367 0-3.3203-0.43945-0.6543-0.42969-0.6543-1.6504v-16.543h2.1777z" dominant-baseline="central"/>
  <path d="m326.44 176.07v-2.7344h-5.8203v-1.8848h18.779v1.8848h-6.4551v2.7344h5.4785v13.164h-2.1191v-1.377h-12.607v1.377h-2.0996v-13.164zm2.0215 0h2.4609v-2.7344h-2.4609zm-2.0312 1.7773h-2.7344v8.1543h12.607v-2.9297h-3.7012q-1.6797 0-1.6797-1.6797v-3.5449h-2.4805q-0.0391 2.4024-0.72266 3.8477-0.64453 1.377-2.5391 2.7246l-1.3477-1.5039q1.8164-1.1133 2.2949-2.7539 0.2539-0.87891 0.30273-2.3145zm6.5137 0v2.9883q0 0.38086 0.3418 0.38086h3.0176v-3.3691z" dominant-baseline="central"/>
  <path d="m351.58 174.14v-3.6426h2.0996v3.6426h5.293v8.8379h-5.293v6.5234h-2.0996v-6.5234h-5.1856v-8.8379zm-3.1641 1.9434v4.9707h3.1641v-4.9707zm8.4766 4.9707v-4.9707h-3.2129v4.9707zm-12.5-5.7812q-1.1914-1.6602-3.1543-3.1738l1.4551-1.4844q1.9531 1.377 3.3008 3.0859zm-0.63476 5.0195q-1.6992-1.9727-3.3008-3.2324l1.5039-1.5039q1.709 1.2012 3.3789 3.1055zm-3.0371 7.5684q1.875-2.666 3.457-6.6406l1.7383 1.3379q-1.3379 3.6621-3.2617 6.8945z" dominant-baseline="central"/>
 </g>
</svg>
