<?xml version="1.0" encoding="UTF-8"?>
<svg width="480" height="360" version="1.1" viewBox="0 0 480 360" xmlns="http://www.w3.org/2000/svg">
 <g dominant-baseline="central" fill="#fff" aria-label="薩南諸島東方沖">
  <path d="m249.45 180.92v2.0996q0 0.61523-0.0195 0.97656 1.0742-1.2402 1.4551-2.6758l1.7285 0.38086q-0.12696 0.42969-0.27344 0.80078h1.1523v-1.084h1.8555v1.084h3.457v1.377h-3.457v1.1035h2.998v1.3379h-2.998v1.2988h4.1406v1.4844h-10.264v-1.4844h4.2676v-1.2988h-2.8027v-1.3281l-1.2695-0.92773q-0.0586 1.6113-0.44922 2.8516-0.45899 1.4453-1.543 2.666l-1.5332-1.2793q1.2402-1.3477 1.582-3.1152 0.19531-0.97657 0.19531-2.2461v-3.418h1.7773l-0.76171-0.83984q1.6504-0.25391 3.0371-0.5957-0.81055-0.21485-2.5-0.625l0.80078-0.625h-2.1973v-1.4356h4.8438v-1.0644h-0.98633v-1.0156h-3.8965v1.0938h-2.0996v-1.0938h-5.2148v-1.582h5.2148v-1.2402h2.0996v1.2402h3.8965v-1.2402h2.1484v1.2402h5.6738v1.582h-5.6738v0.89844h0.89844v1.1816h4.4336v1.4356h-2.5781l0.91797 0.45898q-0.70313 0.32227-1.5039 0.63477l-0.32227 0.12695 0.67383 0.17578 0.30274 0.0879 0.625 0.17578 1.0059 0.28321-0.89844 0.74218h1.9629v1.3965zm4.3848-2.2461q-1.3965 0.43946-3.3887 0.84961h6.2207l-1.0254-0.3125q-0.85937-0.26367-1.6406-0.48828zm-0.11719-1.1523q0.0684-0.0293 0.13672-0.0488 0.67383-0.20508 1.8164-0.63476h-4.7168q1.7188 0.39062 2.7637 0.68359zm-2.0605 6.3574q-0.3711 0.60547-0.77149 1.1035h2.6074v-1.1035zm-5.8984-3.8672q1.4062 1.875 1.4062 3.9648 0 1.2598-0.45899 1.7871-0.45898 0.51758-1.6016 0.51758-0.8789 0-1.5234-0.13672l-0.2832-1.6992q0.18555 0.0293 0.50781 0.0781 0.48828 0.0781 0.88868 0.0781 0.37109 0 0.48828-0.14649 0.11718-0.14648 0.11718-0.51757 0-1.9629-1.4648-3.7891 1.0938-2.207 1.3477-3.6426h-1.9434v12.998h-1.9043v-14.541h5.2441l0.68359 0.76172q-0.69335 2.4609-1.5039 4.2871z" dominant-baseline="central"/>
  <path d="m268.92 182.24h-4.043v-1.6016h1.9531q-0.43945-0.9961-0.99609-1.8555l1.7578-0.64453q0.76172 1.2793 1.2305 2.5h2.2949q0.57617-1.1816 1.0156-2.5391l1.9629 0.61524q-0.49805 1.0742-1.0547 1.9238h2.0996v1.6016h-4.1797v1.4258h4.4531v1.6602h-4.4531v3.6914h-2.041v-3.6914h-4.2871v-1.6602h4.2871zm2.0996-6.0156h7.4024v11.416q0 1.0059-0.53711 1.416-0.44922 0.35157-1.5137 0.35157-1.377 0-2.6562-0.14649l-0.47852-1.9629q1.709 0.20508 2.5586 0.20508 0.35156 0 0.41015-0.17578 0.0391-0.10742 0.0391-0.30274v-9.1016h-12.48v11.582h-2.1777v-13.281h7.2754v-1.7676h-8.3594v-1.8164h8.3594v-2.1387h2.1582v2.1387h8.4766v1.8164h-8.4766z" dominant-baseline="central"/>
  <path d="m287.63 182.77-0.58593-0.83008q1.1133-0.57617 2.207-1.3477 1.9043-1.3281 3.1543-2.6172h-4.7363v-1.7383h3.8672v-1.9238h-2.7148v-1.6992h2.7148v-2.1191h1.9824v2.1191h1.9043v1.3965q0.86914-1.4258 1.6602-3.1152l1.7383 0.8789q-1.3477 2.5781-2.6562 4.4629h3.3398v1.7383h-4.541q-0.72266 0.85937-1.8848 1.9238h4.8828v9.5996h-2.002v-1.0059h-4.3164v1.0059h-1.9629v-6.9824q-0.82031 0.54688-1.5527 0.97656l-0.43945-0.63476v5.6348h-4.668v1.0059h-1.9238v-6.7285zm7.5977-8.457h-1.709v1.9238h0.41993q0.41992-0.57617 1.2891-1.9238zm-12.207 10.137v2.3828h2.7441v-2.3828zm8.623-2.9688v1.8555h4.3164v-1.8555zm0 3.4375v1.9531h4.3164v-1.9531zm-10.225-13.701h5.8984v1.6406h-5.8984zm-0.91797 2.8613h7.4219v1.7578h-7.4219zm0.91797 2.998h5.8984v1.6211h-5.8984zm0 2.8613h5.8984v1.582h-5.8984z" dominant-baseline="central"/>
  <path d="m307.74 171.98q0.36133-0.86914 0.58594-1.6602l2.3828 0.32226q-0.3418 0.81055-0.625 1.3379h6.5039v6.3672h-11.797v0.98633h14.697v1.582h-14.697v0.99609h14.014q-0.12695 4.4727-0.5664 6.0352-0.28321 0.99609-1.0645 1.3184-0.55664 0.23437-1.6992 0.23437-1.1719 0-2.1875-0.14648l-0.39063-1.6406h-9.7852v1.084h-2.0996v-4.6973h2.0996v2.0117h3.3594v-2.6367h-3.8379v-11.494zm4.1504 14.131v-2.0117h2.0215v3.3984q0.81054 0.0781 1.3476 0.0781 0.66406 0 0.83008-0.38085 0.32227-0.7129 0.50781-3.7207h-8.0273v2.6367zm-7.0996-12.627v0.96679h9.6387v-0.96679zm0 2.3633v1.0644h9.6387v-1.0644z" dominant-baseline="central"/>
  <path d="m333.2 183.15q2.4219 2.1582 6.5234 3.4863l-1.2598 1.8359q-2.3633-0.83984-4.1211-2.0312-1.8164-1.2402-3.3496-3.0469v6.1035h-2.1191v-5.9961q-1.3574 1.9043-3.5059 3.418-1.6504 1.1621-3.5352 1.875l-1.3379-1.7188q3.0957-1.0254 5.166-2.7637 0.58594-0.48829 1.1914-1.1621h-4.6973v-7.998h6.7188v-1.3184h-8.0957v-1.7578h8.0957v-1.582h2.1191v1.582h8.2227v1.7578h-8.2227v1.3184h6.8457v7.998zm-4.3262-6.3574h-4.5996v1.582h4.5996zm2.1191 0v1.582h4.7266v-1.582zm-2.1191 3.1055h-4.5996v1.6113h4.5996zm2.1191 0v1.6113h4.7266v-1.6113z" dominant-baseline="central"/>
  <path d="m349.48 175.76q-0.0684 1.6309-0.19531 2.8711h7.8711q-0.14648 6.7774-0.76172 8.7988-0.3125 1.0156-1.1621 1.4062-0.66406 0.30273-1.9434 0.30273-1.3477 0-3.0566-0.20507l-0.38085-2.1973q2.2949 0.32227 3.2324 0.32227 0.79101 0 1.0059-0.44922 0.51757-1.0938 0.72265-6.0352h-5.8105q-0.32227 1.7578-0.90821 3.0469-1.6309 3.5644-5.4492 5.6543l-1.543-1.7188q3.8281-1.9922 5.0586-5.2246 0.82031-2.1582 1.0644-6.5723h-6.4648v-2.002h7.9785v-3.2617h2.2559v3.2617h8.2422v2.002z" dominant-baseline="central"/>
  <path d="m371.58 174.14v-3.6426h2.0996v3.6426h5.293v8.8379h-5.293v6.5234h-2.0996v-6.5234h-5.1856v-8.8379zm-3.1641 1.9434v4.9707h3.1641v-4.9707zm8.4766 4.9707v-4.9707h-3.2129v4.9707zm-12.5-5.7812q-1.1914-1.6602-3.1543-3.1738l1.4551-1.4844q1.9531 1.377 3.3008 3.0859zm-0.63476 5.0195q-1.6992-1.9727-3.3008-3.2324l1.5039-1.5039q1.709 1.2012 3.3789 3.1055zm-3.0371 7.5684q1.875-2.666 3.457-6.6406l1.7383 1.3379q-1.3379 3.6621-3.2617 6.8945z" dominant-baseline="central"/>
 </g>
</svg>
