<?xml version="1.0" encoding="UTF-8"?>
<svg width="480" height="360" version="1.1" viewBox="0 0 480 360" xmlns="http://www.w3.org/2000/svg">
 <g fill="#fff" aria-label="千葉県九十九里・外房">
  <path d="m251.07 173.51v5.0098h8.4277v1.9824h-8.4277v9.0039h-2.2754v-9.0039h-8.3008v-1.9824h8.3008v-4.6875q-3.3008 0.39063-6.1816 0.58594l-0.83984-1.8945q7.4609-0.3125 13.838-2.002l1.5039 1.6992q-2.6172 0.72265-6.0449 1.2891z"/>
  <path d="m273.42 184.82q2.2949 1.3477 6.3184 2.3828l-1.2793 1.8066q-4.7559-1.6406-7.4023-4.0137v4.5117h-2.1777v-4.4141q-2.6367 2.8223-7.1973 4.1894l-1.2793-1.6406q3.8965-0.94727 6.4453-2.8223h-6.1328v-1.6016h8.1641v-1.1914h-5.4004v-4.7559h-2.9785v-1.5234h2.9785v-1.2402h2.1582v1.2402h3.0664v-1.4453h2.0508v1.4453h3.5449v-1.4453h2.1387v1.4453h3.0566v1.5234h-3.0566v2.3145h-7.7344v-2.3145h-3.0664v3.2129h12.178v1.543h-6.7578v1.1914h8.2617v1.6016zm0.87891-7.5488h-3.5449v0.97657h3.5449zm-8.457-5.4688v-1.2988h2.1191v1.2988h3.9453v-1.2988h2.1582v1.2988h5.0391v1.543h-5.0391v1.0742h-2.1582v-1.0742h-3.9453v1.0742h-2.1191v-1.0742h-4.9609v-1.543z"/>
  <path d="m296.76 170.98v9.4629h-11.621v-9.4629zm-9.5215 1.543v1.2207h7.4023v-1.2207zm0 2.5977v1.2207h7.4023v-1.2207zm0 2.5976v1.2598h7.4023v-1.2598zm-3.9356 4.0234h16.191v1.6992h-8.0762v6.0644h-2.2168v-6.0644h-8.0371v-10.957h2.1387zm-2.5 5.8984q2.3242-1.0742 4.4434-3.6035l1.7969 1.0449q-2.0898 2.6465-4.6387 4.1602zm16.836 1.2598q-1.4941-1.8359-4.4922-3.8574l1.6797-1.1816q2.3535 1.3574 4.6191 3.5644z"/>
  <path d="m308.94 175h5.9473l-0.61523 10.84q0 0.38086 0.15625 0.48828 0.0879 0.0586 0.36132 0.11719 0.29297 0.0586 0.94727 0.0586 1.1328 0 1.2891-0.18555 0.33203-0.41016 0.52735-3.7012l2.1582 0.83984q-0.17578 2.5977-0.33203 3.3887-0.28321 1.4746-1.6016 1.7383-0.75195 0.15625-2.666 0.15625-1.7578 0-2.373-0.26367-0.83984-0.35156-0.83984-1.4648 0-0.0781 0.01-0.27344l0.61524-9.7363h-3.7695q-0.25391 3.0469-1.1621 5.6543-1.3477 3.8867-5.5176 6.5039l-1.6406-1.7774q2.666-1.4062 4.2578-4.0332 0.80078-1.3281 1.2402-3.0273 0.35156-1.3379 0.57617-3.3203h-5.1562v-2.002h5.3125l0.18555-4.502h2.2852z"/>
  <path d="m328.82 177.46v-6.9629h2.2363v6.9629h8.4473v2.041h-8.4473v10h-2.2363v-10h-8.3203v-2.041z"/>
  <path d="m348.94 175h5.9473l-0.61523 10.84q0 0.38086 0.15625 0.48828 0.0879 0.0586 0.36132 0.11719 0.29297 0.0586 0.94727 0.0586 1.1328 0 1.2891-0.18555 0.33203-0.41016 0.52735-3.7012l2.1582 0.83984q-0.17578 2.5977-0.33203 3.3887-0.28321 1.4746-1.6016 1.7383-0.75195 0.15625-2.666 0.15625-1.7578 0-2.373-0.26367-0.83984-0.35156-0.83984-1.4648 0-0.0781 0.01-0.27344l0.61524-9.7363h-3.7695q-0.25391 3.0469-1.1621 5.6543-1.3477 3.8867-5.5176 6.5039l-1.6406-1.7774q2.666-1.4062 4.2578-4.0332 0.80078-1.3281 1.2402-3.0273 0.35156-1.3379 0.57617-3.3203h-5.1562v-2.002h5.3125l0.18555-4.502h2.2852z"/>
  <path d="m377.62 171.24v9.6387h-6.6016v2.0605h7.0801v1.7578h-7.0801v2.3438h8.2812v1.7773h-18.604v-1.7773h8.1641v-2.3438h-6.9434v-1.7578h6.9434v-2.0605h-6.4648v-9.6387zm-13.066 1.6797v2.2949h4.3066v-2.2949zm0 3.916v2.3633h4.3066v-2.3633zm10.889 2.3633v-2.3633h-4.4238v2.3633zm0-3.9844v-2.2949h-4.4238v2.2949z"/>
  <path d="m385.02 177.79q0.76172 0 1.377 0.50781 0.81054 0.66406 0.81054 1.6992 0 0.63477-0.36133 1.1816-0.65429 1.0156-1.8555 1.0156-0.52735 0-1.0059-0.25391-0.38086-0.19531-0.64453-0.51758-0.53711-0.63476-0.53711-1.4453 0-1.1328 0.94726-1.7969 0.56641-0.39062 1.2695-0.39062z"/>
  <path d="m400.46 175.44q1.0742 1.2012 2.2656 2.2363v-7.1777h2.1973v8.8574q2.2363 1.4746 4.9023 2.4316l-1.123 2.0312q-1.9629-0.83008-3.7793-1.9922v7.6758h-2.1973v-9.2676q-1.5723-1.2598-2.6953-2.5586-0.83008 3.5547-2.3535 5.9668-2.1875 3.457-5.5957 5.5371l-1.5332-1.6016q3.5449-1.9531 5.8301-5.9375-1.3574-1.3965-2.9883-2.5586-0.81054 1.2109-1.8066 2.3047l-1.2793-1.7383q1.748-1.8945 2.8516-4.541 0.83008-2.0215 1.3672-4.6484l2.041 0.30274q-0.24414 1.2402-0.46875 2.0996h3.5938l0.9961 0.8789q-0.14649 1.2207-0.22461 1.6992zm-3.1543 4.209q0.91797-2.5488 1.2207-4.9024h-3.0176q-0.52734 1.4551-1.1816 2.7246 1.748 1.0742 2.9785 2.1777z"/>
  <path d="m420.87 181.94q-0.0293 0.64453-0.0879 1.1816h7.334q-0.21485 3.6621-0.67383 4.8926-0.3418 0.92774-1.0352 1.2012-0.52734 0.20508-1.5234 0.20508-1.2988 0-3.0859-0.15625l-0.36133-1.9043q1.8945 0.30273 2.959 0.30273 0.66407 0 0.86914-0.35156 0.3711-0.625 0.56641-2.5879h-5.3906q-0.52734 1.5332-1.5039 2.5586-1.2598 1.3184-3.6621 2.3047l-1.377-1.582q2.7148-0.9375 3.8281-2.6074 0.9375-1.4062 1.0547-3.457h-4.4336q-0.10742 1.9629-0.39062 3.3398-0.48828 2.3047-1.7969 4.1602l-1.6211-1.5332q1.0644-1.6797 1.4258-3.9941 0.29297-1.8652 0.29297-4.668v-5.0391h15.84v4.4434h-6.3574v1.5918h7.7539v1.6992zm5.0488-6.2109h-11.504v1.377h11.504zm-6.2988 2.9199h-5.2051v0.5957q0 0.56641-0.01 0.99609h5.2148zm-8.7012-7.4609h18.076v1.6797h-18.076z"/>
 </g>
</svg>
