<svg version="1.1" xmlns="http://www.w3.org/2000/svg" xmlns:xlink="http://www.w3.org/1999/xlink" width="208" height="32" viewBox="0,0,208,32"><g transform="translate(-240,-164)"><g data-paper-data="{&quot;isPaintingLayer&quot;:true}" fill-rule="nonzero" stroke="none" stroke-linecap="butt" stroke-linejoin="miter" stroke-miterlimit="10" stroke-dasharray="" stroke-dashoffset="0" style="mix-blend-mode: normal"><path d="M240,196v-32h208v32z" fill="none" stroke-width="0"/><path d="M246.56,182.77c0.944,0.51432 1.98893,1.23699 3.1348,2.168l-1.1133,1.8164c-0.73567,-0.8268 -1.4095,-1.50713 -2.0215,-2.041v4.7852h-2.002v-5.2148c-0.87893,1.6146 -1.92387,2.9655 -3.1348,4.0527l-1.1426,-1.8457c1.4518,-1.02867 2.65947,-2.30797 3.623,-3.8379h-3.0859v-1.7188h3.7402v-1.9043h-4.1211v-1.7969h2.1387c-0.16927,-0.8268 -0.4069,-1.7285 -0.71289,-2.7051h-1.0449v-1.8164h3.7012v-2.2168h2.0801v2.2168h3.5449v1.8164h-1.0449c-0.24089,0.97653 -0.54037,1.87823 -0.89844,2.7051h2.2363v1.7969h-3.877v1.9043h3.5156v1.7188h-3.5156zM243.8061,174.5278c0.2474,0.8138 0.46224,1.7155 0.64453,2.7051h1.9336c0.29948,-0.83987 0.55664,-1.74157 0.77148,-2.7051zM252.9956,179.2739c0.00667,2.01827 -0.14958,3.89 -0.46875,5.6152c-0.33203,1.79033 -0.92123,3.3919 -1.7676,4.8047l-1.6113,-1.4746c0.72267,-1.17187 1.21747,-2.61067 1.4844,-4.3164c0.23437,-1.45833 0.35156,-3.3203 0.35156,-5.5859v-6.123c0.13021,-0.013 0.32877,-0.03253 0.5957,-0.0586c2.07033,-0.19531 4.1439,-0.64128 6.2207,-1.3379l1.2793,1.6992c-1.7318,0.58594 -3.75653,1.03841 -6.0742,1.3574v3.3789h6.5527v2.041h-2.2363v10.225h-2.0215v-10.225z" fill="#ffffff" stroke-width="1"/><path d="M267.74,171.98c0.24089,-0.57943 0.4362,-1.13283 0.58594,-1.6602l2.3828,0.32226c-0.22787,0.54037 -0.4362,0.98633 -0.625,1.3379h6.5039v6.3672h-11.797v0.98633h14.697v1.582h-14.697v0.99609h14.014c-0.08463,2.9818 -0.27343,4.99353 -0.5664,6.0352c-0.18881,0.66406 -0.54364,1.10353 -1.0645,1.3184c-0.37109,0.15625 -0.93749,0.23437 -1.6992,0.23437c-0.78127,0 -1.51043,-0.04883 -2.1875,-0.14648l-0.39063,-1.6406h-9.7852v1.084h-2.0996v-4.6973h2.0996v2.0117h3.3594v-2.6367h-3.8379v-11.494zM271.8904,186.111v-2.0117h2.0215v3.3984c0.54036,0.05207 0.98956,0.0781 1.3476,0.0781c0.44271,0 0.7194,-0.12695 0.83008,-0.38085c0.21485,-0.47527 0.38412,-1.7155 0.50781,-3.7207h-8.0273v2.6367zM264.7908,173.484v0.96679h9.6387v-0.96679zM264.7908,175.8473v1.0644h9.6387v-1.0644z" fill="#ffffff" stroke-width="1"/><path d="M285.02,177.79c0.50781,0 0.96681,0.16927 1.377,0.50781c0.54037,0.44271 0.81055,1.00911 0.81055,1.6992c0,0.42318 -0.12044,0.81705 -0.36133,1.1816c-0.43619,0.67707 -1.05469,1.0156 -1.8555,1.0156c-0.35156,0 -0.68686,-0.08464 -1.0059,-0.25391c-0.2539,-0.13021 -0.46874,-0.30273 -0.64453,-0.51758c-0.35807,-0.42317 -0.53711,-0.90494 -0.53711,-1.4453c0,-0.7552 0.31576,-1.35417 0.94727,-1.7969c0.37761,-0.26041 0.80077,-0.39062 1.2695,-0.39062z" fill="#ffffff" stroke-width="1"/><path d="M295.51,179.09c0.07161,0.05207 0.17578,0.12694 0.3125,0.22461c0.78773,0.54687 1.6178,1.25651 2.4902,2.1289l-1.2012,1.6602c-0.42317,-0.52735 -0.93424,-1.08398 -1.5332,-1.6699l-0.0684,-0.0781v8.1445h-2.0215v-7.959c-0.56641,0.65104 -1.30861,1.38997 -2.2266,2.2168l-1.0352,-1.8945c2.29167,-1.9206 4.00067,-3.99417 5.127,-6.2207h-4.6094v-1.9629h2.7051v-3.1836h2.041v3.1836h1.6992l0.78125,1.0449c-0.59896,1.38673 -1.41926,2.81903 -2.4609,4.2969zM302.4045,173.4357v-2.9394h2.0606v2.9394h4.2383v11.084h-4.2383v4.9805h-2.0606v-4.9805h-3.9941v-11.084zM300.2951,175.2326v2.8223h2.1484v-2.8223zM300.2951,179.7736v2.9297h2.1484v-2.9297zM306.7795,182.7033v-2.9297h-2.3535v2.9297zM306.7795,178.0549v-2.8223h-2.3535v2.8223z" fill="#ffffff" stroke-width="1"/><path d="M323,179.98v1.3965h5.3223v1.6016h-5.3223v1.4355h6.123v1.7188h-6.123v3.3691h-2.0996v-3.3691h-5.6152v-1.7188h5.6152v-1.4355h-4.7754v-1.6016h4.7754v-1.3965h-4.2188v-1.4844h4.2188v-1.5332h-5.8594v-1.582h5.8594v-1.5039h-4.1211v-1.543h4.1211v-1.8359h2.0996v1.8359h4.8828v3.0469h1.6992v1.582h-1.6992v3.0176zM323,178.4956h2.8418v-1.5332h-2.8418zM323,175.3804h2.8418v-1.5039h-2.8418zM314.0059,175.13626c-0.8138,-1.1198 -1.7871,-2.1517 -2.9199,-3.0957l1.5137,-1.4258c1.22393,0.93747 2.22003,1.9238 2.9883,2.959zM313.3223,180.21436c-0.944,-1.24347 -1.93033,-2.3014 -2.959,-3.1738l1.5039,-1.4648c1.0482,0.79427 2.0736,1.80663 3.0762,3.0371zM310.7051,187.99756c1.25,-2.04427 2.31447,-4.3457 3.1934,-6.9043l1.709,1.2012c-0.8138,2.59113 -1.83593,4.9772 -3.0664,7.1582z" fill="#ffffff" stroke-width="1"/><path d="M337.74,171.98c0.24089,-0.57943 0.4362,-1.13283 0.58594,-1.6602l2.3828,0.32226c-0.22787,0.54037 -0.4362,0.98633 -0.625,1.3379h6.5039v6.3672h-11.797v0.98633h14.697v1.582h-14.697v0.99609h14.014c-0.08463,2.9818 -0.27343,4.99353 -0.5664,6.0352c-0.18881,0.66406 -0.54364,1.10353 -1.0645,1.3184c-0.37109,0.15625 -0.93749,0.23437 -1.6992,0.23437c-0.78127,0 -1.51043,-0.04883 -2.1875,-0.14648l-0.39063,-1.6406h-9.7852v1.084h-2.0996v-4.6973h2.0996v2.0117h3.3594v-2.6367h-3.8379v-11.494zM341.8904,186.111v-2.0117h2.0215v3.3984c0.54036,0.05207 0.98956,0.0781 1.3476,0.0781c0.44271,0 0.7194,-0.12695 0.83008,-0.38085c0.21485,-0.47527 0.38412,-1.7155 0.50781,-3.7207h-8.0273v2.6367zM334.7908,173.484v0.96679h9.6387v-0.96679zM334.7908,175.8473v1.0644h9.6387v-1.0644z" fill="#ffffff" stroke-width="1"/><path d="M355.52,185.06c0.52083,0.60547 1.10677,1.05471 1.7578,1.3477c1.06773,0.48177 2.46747,0.72266 4.1992,0.72266h8.3203c-0.23437,0.44271 -0.45247,1.07747 -0.6543,1.9043h-7.7637c-2.2396,0 -3.9551,-0.35157 -5.1465,-1.0547c-0.48828,-0.29297 -1.02538,-0.77151 -1.6113,-1.4356c-0.0456,0.05207 -0.10094,0.11717 -0.16602,0.19531c-0.957,1.1328 -1.90753,2.05727 -2.8516,2.7734l-1.1816,-2.002c1.03513,-0.61849 2.03447,-1.31836 2.998,-2.0996v-4.8242h-2.8418v-1.9238h4.9414zM358.0591,172.101l0.51758,-0.0391c3.01433,-0.20833 5.72267,-0.6543 8.125,-1.3379l1.5234,1.7188c-2.52607,0.66406 -5.22137,1.11326 -8.0859,1.3476v2.5293h9.043v1.9043h-3.2812v7.959h-2.1582v-7.959h-3.6035c-0.03253,2.08987 -0.18878,3.75327 -0.46875,4.9902c-0.25391,1.13933 -0.67057,2.16147 -1.25,3.0664l-1.7969,-1.3574c0.64453,-1.0026 1.05793,-2.2461 1.2402,-3.7305c0.13021,-1.02213 0.19531,-2.4121 0.19531,-4.1699zM354.4458,175.9194c-0.99607,-1.40627 -2.0703,-2.66603 -3.2227,-3.7793l1.6016,-1.2793c1.1198,0.93747 2.2461,2.12887 3.3789,3.5742z" fill="#ffffff" stroke-width="1"/><path d="M387.76,175.8c0,0.30599 -0.0293,1.75783 -0.0879,4.3555h1.8652v1.7578h-1.9043c-0.01953,0.85287 -0.06185,1.81967 -0.12695,2.9004h1.6504v1.7188h-1.7774c-0.07813,0.944 -0.18555,1.569 -0.32226,1.875c-0.30599,0.7292 -1.04819,1.0938 -2.2266,1.0938c-0.7552,0 -1.4518,-0.05534 -2.0898,-0.16601l-0.36133,-1.7383c0.918,0.13021 1.62113,0.19531 2.1094,0.19531c0.39713,0 0.63476,-0.13997 0.71289,-0.41992c0.03907,-0.13672 0.07487,-0.41667 0.10742,-0.83985h-6.9531c-0.00667,0.05207 -0.01643,0.10741 -0.0293,0.16602c-0.0586,0.34505 -0.11394,0.67057 -0.16602,0.97656l-2.0215,-0.19531c0.39713,-2.35027 0.66406,-4.1276 0.80078,-5.332l0.0293,-0.23438h-1.9531v-1.7578h2.1582c0.18229,-1.57553 0.33854,-3.02737 0.46875,-4.3555zM381.5881,177.4992h-2.1387c-0.01953,0.33203 -0.07813,1.0319 -0.17578,2.0996l-0.0586,0.55664h2.168l0.0293,-0.27344c0.013,-0.1888 0.03253,-0.45247 0.0586,-0.79101c0.06513,-0.91147 0.1042,-1.44207 0.11719,-1.5918zM383.5119,177.4992c-0.03253,0.77473 -0.08136,1.63087 -0.14648,2.5684v0.0879h2.2949c0.02607,-0.89193 0.04887,-1.77733 0.0684,-2.6562zM381.2267,181.9133h-2.1973c-0.09765,0.79427 -0.20182,1.57877 -0.3125,2.3535l-0.0781,0.54687h2.2852c0.15625,-1.41273 0.25717,-2.37953 0.30274,-2.9004zM383.2287,181.9133c-0.01953,0.26042 -0.0586,0.69012 -0.11719,1.2891l-0.15625,1.6113h2.4902c0.03253,-0.63151 0.05857,-1.10677 0.0781,-1.4258c0.03907,-0.6966 0.0651,-1.18813 0.0781,-1.4746zM379.4006,172.2746h9.4336v1.8164h-10.244c-0.52735,1.0742 -1.19791,2.09633 -2.0117,3.0664l-1.3965,-1.5234c1.28253,-1.50393 2.194,-3.2357 2.7344,-5.1953l2.0801,0.21485c-0.23437,0.67707 -0.43294,1.21743 -0.5957,1.6211zM374.0197,175.1164c-0.8008,-1.10027 -1.7741,-2.13217 -2.9199,-3.0957l1.4746,-1.4258c1.0612,0.78127 2.07033,1.7676 3.0274,2.959zM373.31657,180.2726c-0.9896,-1.26953 -1.98893,-2.334 -2.998,-3.1934l1.5234,-1.4648c1.1328,0.89193 2.15167,1.90757 3.0566,3.0469zM370.66037,187.9386c1.1328,-1.569 2.20703,-3.63607 3.2227,-6.2012l1.7383,1.2402c-0.84633,2.3698 -1.93357,4.54427 -3.2617,6.5234z" fill="#ffffff" stroke-width="1"/></g></g></svg>