<svg version="1.1" xmlns="http://www.w3.org/2000/svg" xmlns:xlink="http://www.w3.org/1999/xlink" width="168.1" height="32.667" viewBox="0,0,168.1,32.667"><g transform="translate(-240,-180)"><g data-paper-data="{&quot;isPaintingLayer&quot;:true}" stroke="none" stroke-linecap="butt" stroke-linejoin="miter" stroke-miterlimit="10" stroke-dasharray="" stroke-dashoffset="0" style="mix-blend-mode: normal"><path d="M248,180h152.1c4.432,0 8,3.568 8,8v16.667c0,4.432 -3.568,8 -8,8h-152.1c-4.432,0 -8,-3.568 -8,-8v-16.667c0,-4.432 3.568,-8 8,-8z" fill-opacity="0.7" fill="#000000" fill-rule="evenodd" stroke-width="0"/><g fill="#ffffff" fill-rule="nonzero" stroke-width="1"><path d="M252.55,190.57v0.76953h2.2695v0.70312h-2.2695v1.6641h1.0469v-1.2891h0.81641v2.3867h-0.81641v-0.41797h-2.8633v0.41797h-0.81641v-2.3867h0.81641v1.2891h0.99219v-1.6641h-2.1602v-0.70312h2.1602v-0.76953h-1.8516v-0.67969h3.0859c0.25,-0.46875 0.48828,-1.03125 0.71484,-1.6875l0.77735,0.3125c-0.19271,0.44271 -0.42448,0.90104 -0.69531,1.375h0.72656v0.67969zM248.1555,188.6442v-1.4414h0.83985v1.4414h0.77734v0.77735h-0.77734v1.2617c0.19271,-0.06513 0.41666,-0.14717 0.67187,-0.2461l0.0977,0.73438c-0.30209,0.1276 -0.5586,0.23177 -0.76953,0.3125v2.5976c0,0.22917 -0.04167,0.39583 -0.125,0.5c-0.10677,0.13021 -0.31511,0.19532 -0.625,0.19532c-0.28125,0 -0.54297,-0.02603 -0.78516,-0.0781l-0.16016,-0.8164c0.3125,0.04687 0.53906,0.0703 0.67969,0.0703c0.08073,0 0.13021,-0.01693 0.14844,-0.0508c0.0182,-0.02867 0.0273,-0.07815 0.0273,-0.14844v-1.9648c-0.26562,0.08854 -0.53515,0.17317 -0.80859,0.2539l-0.23828,-0.80469c0.4401,-0.11197 0.77083,-0.20182 0.99219,-0.26953c0.0182,-0.00533 0.03643,-0.01053 0.0547,-0.0156v-1.5312h-0.93359v-0.77735zM249.6047,187.65202c1.6198,-0.07292 3.0599,-0.22787 4.3203,-0.46485l0.52735,0.64844c-1.45053,0.25781 -2.96487,0.43359 -4.543,0.52734zM250.50705,189.84342c-0.13021,-0.44791 -0.28777,-0.85285 -0.47266,-1.2148l0.72266,-0.24219c0.21875,0.42448 0.38411,0.82421 0.49609,1.1992zM251.95625,189.75362c-0.09895,-0.44531 -0.2539,-0.86068 -0.46484,-1.2461l0.72656,-0.24219c0.21615,0.38021 0.38412,0.80207 0.50391,1.2656z"/><path d="M256.83,187.38h0.86328v2.207c0.61979,-0.64323 1.11589,-1.08463 1.4883,-1.3242c0.34635,-0.22396 0.70572,-0.33594 1.0781,-0.33594c0.375,0 0.67708,0.10547 0.90625,0.31641c0.30208,0.28125 0.45312,0.64975 0.45312,1.1055c0,0.11979 -0.01563,0.27865 -0.0469,0.47656c-0.22917,1.45573 -0.34375,2.46353 -0.34375,3.0234c0,0.23958 0.0612,0.35937 0.18359,0.35937c0.07813,0 0.18099,-0.04427 0.3086,-0.13281c0.26823,-0.18489 0.53906,-0.48828 0.8125,-0.91015l0.32031,0.89453c-0.16667,0.26562 -0.3737,0.5013 -0.6211,0.70703c-0.28645,0.23958 -0.59244,0.35937 -0.91796,0.35937c-0.3099,0 -0.55079,-0.10807 -0.72266,-0.32422c-0.14583,-0.18489 -0.21875,-0.49349 -0.21875,-0.92578c0,-0.32812 0.04297,-0.82162 0.12891,-1.4805c0.10937,-0.82813 0.18229,-1.44273 0.21875,-1.8438c0.00533,-0.06513 0.008,-0.11982 0.008,-0.16406c0,-0.22917 -0.04818,-0.40495 -0.14453,-0.52734c-0.09115,-0.11719 -0.21745,-0.17578 -0.37891,-0.17578c-0.54427,0 -1.38151,0.72527 -2.5117,2.1758v3.6875h-0.86328v-2.7031c-0.43489,0.60938 -0.83593,1.18491 -1.2031,1.7266l-0.40625,-0.92579c0.61719,-0.7474 1.15365,-1.45963 1.6094,-2.1367v-0.99219h-1.3711v-0.78516h1.3711z"/><path d="M263.88,188.3h2.1055c0.23177,-0.36979 0.40756,-0.66796 0.52735,-0.89453l0.87109,0.125c-0.07813,0.14063 -0.21615,0.36979 -0.41406,0.6875l-0.0508,0.082h2.7539v0.76954h-3.2734c-0.34115,0.46875 -0.66667,0.87501 -0.97657,1.2188c0.49219,-0.29427 0.94143,-0.44141 1.3477,-0.44141c0.63021,0 1.04297,0.31641 1.2383,0.94922c0.66667,-0.22135 1.34637,-0.4401 2.0391,-0.65625l0.33594,0.75781l-0.13672,0.0391l-0.38672,0.10157c-0.7292,0.19791 -1.31253,0.36718 -1.75,0.50781c0.03127,0.33854 0.0534,0.77604 0.0664,1.3125l-0.85547,0.0469c-0.00267,-0.30989 -0.00787,-0.64583 -0.0156,-1.0078v-0.0781c-1.19793,0.40885 -1.7969,0.82032 -1.7969,1.2344c0,0.21354 0.15365,0.35937 0.46094,0.4375c0.29687,0.07552 0.82814,0.11328 1.5938,0.11328c0.70573,0 1.44663,-0.04036 2.2227,-0.12109l0.0937,0.83203c-0.7526,0.05727 -1.53253,0.0859 -2.3398,0.0859c-0.9948,0 -1.70183,-0.07552 -2.1211,-0.22657c-0.51823,-0.1875 -0.77735,-0.52473 -0.77735,-1.0117c0,-0.41146 0.1836,-0.77473 0.55079,-1.0898c0.38021,-0.32552 1.04947,-0.66145 2.0078,-1.0078c-0.05207,-0.20052 -0.12108,-0.34115 -0.20703,-0.42188c-0.09635,-0.09114 -0.22396,-0.13671 -0.38282,-0.13671c-0.25781,0 -0.58202,0.09765 -0.97265,0.29296c-0.48177,0.23959 -0.99871,0.60025 -1.5508,1.082l-0.51953,-0.59375c0.80987,-0.7526 1.44397,-1.4922 1.9023,-2.2188h-1.5898z"/><path d="M276.78,192.45c0.19791,0.33073 0.43359,0.60808 0.70703,0.83203c0.35417,0.28646 0.8034,0.53516 1.3477,0.7461l-0.47266,0.77734c-0.97133,-0.40365 -1.67967,-1.08071 -2.125,-2.0312c-0.16927,0.49739 -0.4375,0.92446 -0.80469,1.2812c-0.33073,0.32031 -0.77473,0.59896 -1.332,0.83594l-0.54297,-0.6875c0.64063,-0.20833 1.12629,-0.47787 1.457,-0.8086c0.27865,-0.27864 0.48568,-0.59374 0.6211,-0.94531h-1.5117v-2.1016h1.6562v-0.65625h-0.84766v-0.34766c-0.28125,0.24479 -0.59375,0.45964 -0.9375,0.64453l-0.30859,-0.41406h-0.64844v0.66797c0.34115,0.28646 0.67057,0.60417 0.98828,0.95313l-0.41406,0.74218c-0.1875,-0.27343 -0.37891,-0.53645 -0.57422,-0.78906v3.6562h-0.80078v-3.5078c-0.25781,0.7396 -0.53255,1.3646 -0.82422,1.875l-0.34375,-0.91406c0.47917,-0.80467 0.84377,-1.6992 1.0938,-2.6836h-0.96484v-0.76172h1.0391v-1.6094h0.80078v1.6094h0.69531v0.45703c0.83073,-0.48697 1.46487,-1.17577 1.9024,-2.0664h0.88672c0.39323,0.61198 0.89063,1.12371 1.4922,1.5352c0.26042,0.17709 0.56381,0.35417 0.91016,0.53125l-0.47266,0.67188c-0.36197,-0.19531 -0.69661,-0.40755 -1.0039,-0.63672v0.38672h-0.875v0.65625h1.6875v2.1016zM275.79562,190.9656h-0.91796v0.85937h0.91796zM276.55734,190.9656v0.85937h0.94141v-0.85937zM275.27214,189.0203h1.832c-0.36979,-0.32291 -0.70443,-0.70441 -1.0039,-1.1445c-0.21615,0.40885 -0.49219,0.79035 -0.82812,1.1445z"/><path d="M283.41,189.85h1.9062v-1.9453h0.87109v2.7227h-2.7773v2.8867h2.1523v-1.8008h0.88672v3.0898h-0.88672v-0.49609h-5.1289v0.49609h-0.87891v-3.0898h0.87891v1.8008h2.1055v-2.8867h-2.7266v-2.7227h0.8711v1.9453h1.8555v-2.6484h0.87109z"/><path d="M287.97,187.53h0.92187v4.6562c0,0.9818 0.51563,1.4727 1.5469,1.4727c0.67967,0 1.23697,-0.3138 1.6719,-0.94141c0.28125,-0.40365 0.53386,-1.02865 0.75782,-1.875l0.79297,0.48047c-0.26563,0.94013 -0.58464,1.64327 -0.95704,2.1094c-0.58593,0.72653 -1.34767,1.0898 -2.2852,1.0898c-0.9792,0 -1.6693,-0.30208 -2.0703,-0.90625c-0.25261,-0.37761 -0.37891,-0.86457 -0.37891,-1.4609z"/><path d="M294.46,188.59h1.8242c0.07292,-0.32291 0.15495,-0.74088 0.2461,-1.2539l0.88281,0.10937c-0.07813,0.40365 -0.16146,0.78515 -0.25,1.1445h2.6016v0.77735h-2.7852c-0.52083,2.08073 -1.09637,3.806 -1.7266,5.1758l-0.86328,-0.30469c0.68487,-1.5182 1.25517,-3.1419 1.7109,-4.8711h-1.6406zM301.3741,194.3361c-0.42188,0.05467 -0.89585,0.082 -1.4219,0.082c-0.85153,0 -1.49477,-0.07292 -1.9297,-0.21875c-0.16667,-0.05727 -0.30859,-0.138 -0.42578,-0.24219c-0.22917,-0.20833 -0.34375,-0.47396 -0.34375,-0.79687c0,-0.33073 0.10677,-0.6224 0.32031,-0.875l0.69532,0.41015c-0.08073,0.10157 -0.1211,0.21355 -0.1211,0.33594c0,0.21094 0.09636,0.34766 0.28907,0.41016c0.29427,0.09375 0.71353,0.14062 1.2578,0.14062c0.52865,0 1.05598,-0.03906 1.582,-0.11719zM297.71,190.465c1.0208,-0.11719 2.138,-0.17969 3.3516,-0.1875l0.0391,0.79297c-1.19013,0.00533 -2.2826,0.06132 -3.2774,0.16797z"/><path d="M304.83,188.43c0.10938,0.16667 0.20443,0.32422 0.28516,0.47266l-0.78516,0.25391c-0.09895,-0.26042 -0.21614,-0.50261 -0.35156,-0.72657h-0.43359c-0.21615,0.29427 -0.45313,0.55599 -0.71094,0.78516l-0.65625,-0.48828c0.51563,-0.41407 0.91016,-0.9427 1.1836,-1.5859l0.83985,0.14453c-0.09375,0.20573 -0.17839,0.37631 -0.25391,0.51172h1.8164v0.63281zM308.0878,188.43c0.125,0.17188 0.22917,0.33204 0.3125,0.48047l-0.75,0.26172c-0.11459,-0.23177 -0.25651,-0.47917 -0.42578,-0.74219h-0.45313c-0.20052,0.32813 -0.40104,0.60287 -0.60156,0.82422l-0.64844,-0.43359c0.45052,-0.47657 0.77865,-1.03127 0.98438,-1.6641l0.80859,0.1289c-0.05987,0.15885 -0.13148,0.32943 -0.21484,0.51172h2.5586v0.63281zM303.8417,190.5003v-0.33204h-1.5781v-0.57421h1.5781v-0.39844h0.75391v0.39844h1.5664v0.57421h-1.5664v0.33204h1.3359v2.4062h-1.3359v0.375h1.6172v0.60937h-1.6172v0.90625h-0.75391v-0.90625h-1.6797v-0.60937h1.6797v-0.375h-1.3203v-2.4062zM303.8651,191.0042h-0.67187v0.4375h0.67187zM304.57213,191.0042v0.4375h0.67188v-0.4375zM303.8651,191.92217h-0.67187v0.45703h0.67187zM304.57213,191.92217v0.45703h0.67188v-0.45703zM307.18543,190.12917v3.5234c0,0.14844 0.03516,0.23568 0.10547,0.26172c0.08594,0.03127 0.33464,0.0469 0.7461,0.0469c0.44791,0 0.71093,-0.01823 0.78906,-0.0547c0.08073,-0.03907 0.13541,-0.14975 0.16406,-0.33204c0.02607,-0.16406 0.0404,-0.38671 0.043,-0.66796l0.82422,0.20703c-0.02867,0.48177 -0.06252,0.80338 -0.10156,0.96484c-0.07031,0.29687 -0.26042,0.48047 -0.57032,0.55078c-0.23437,0.05467 -0.61197,0.082 -1.1328,0.082c-0.71093,0 -1.15623,-0.03516 -1.3359,-0.10547c-0.21615,-0.08593 -0.32422,-0.3138 -0.32422,-0.68359v-4.4805h2.9375v2.6641c0,0.23177 -0.05208,0.39974 -0.15625,0.50391c-0.09895,0.09635 -0.27213,0.14453 -0.51953,0.14453c-0.32291,0 -0.63411,-0.02083 -0.93359,-0.0625l-0.12891,-0.74609c0.07292,0.0104 0.17058,0.02473 0.29297,0.043c0.17187,0.02607 0.32422,0.0391 0.45703,0.0391c0.09635,0 0.15365,-0.02603 0.17188,-0.0781c0.0104,-0.03387 0.0156,-0.08595 0.0156,-0.15625v-1.6641z"/><path d="M312.59,189.41v-0.97656h0.79297v0.97656h1.1641v-0.97656h0.79297v0.97656h0.89453v0.66406h-0.89453v1.0664h1.0898v0.67969h-1.0898v1.5664h-0.79297v-1.5664h-1.2344c-0.05207,0.32552 -0.14321,0.61458 -0.27344,0.86719c-0.16407,0.31771 -0.41797,0.59635 -0.76172,0.83593l-0.60547,-0.5664c0.43229,-0.26823 0.70703,-0.64713 0.82422,-1.1367h-0.98438v-0.67969h1.0742c0.00267,-0.06771 0.004,-0.13672 0.004,-0.20703v-0.85938h-0.91016v-0.66406zM314.547,190.07406h-1.1641v0.77735c0,0.07291 -0.00133,0.16927 -0.004,0.28906h1.168zM317.4611,187.50766v7.2812h-0.83984v-0.46485h-5.3203v0.47266h-0.83985v-7.2891zM311.3009,188.21078v5.3789h5.3203v-5.3789z"/><path d="M318.84,188.3h2.1055c0.23177,-0.36979 0.40756,-0.66796 0.52735,-0.89453l0.87109,0.125c-0.07813,0.14063 -0.21615,0.36979 -0.41406,0.6875l-0.0508,0.082h2.7539v0.76954h-3.2734c-0.34114,0.46875 -0.66666,0.87501 -0.97656,1.2188c0.49219,-0.29427 0.94142,-0.44141 1.3477,-0.44141c0.63021,0 1.04297,0.31641 1.2383,0.94922c0.66667,-0.22135 1.34637,-0.4401 2.0391,-0.65625l0.33594,0.75781l-0.13672,0.0391l-0.38672,0.10157c-0.7292,0.19791 -1.31253,0.36718 -1.75,0.50781c0.03127,0.33854 0.0534,0.77604 0.0664,1.3125l-0.85547,0.0469c-0.00267,-0.30989 -0.00787,-0.64583 -0.0156,-1.0078v-0.0781c-1.19793,0.40885 -1.7969,0.82032 -1.7969,1.2344c0,0.21354 0.15365,0.35937 0.46094,0.4375c0.29687,0.07552 0.82814,0.11328 1.5938,0.11328c0.70573,0 1.4466,-0.04036 2.2226,-0.12109l0.0937,0.83203c-0.7526,0.05727 -1.53253,0.0859 -2.3398,0.0859c-0.9948,0 -1.70183,-0.07552 -2.1211,-0.22657c-0.51823,-0.1875 -0.77735,-0.52473 -0.77735,-1.0117c0,-0.41146 0.18359,-0.77473 0.55078,-1.0898c0.38021,-0.32552 1.04948,-0.66145 2.0078,-1.0078c-0.05207,-0.20052 -0.12108,-0.34115 -0.20704,-0.42188c-0.09635,-0.09114 -0.22396,-0.13671 -0.38281,-0.13671c-0.25781,0 -0.58203,0.09765 -0.97265,0.29296c-0.48177,0.23959 -0.99871,0.60025 -1.5508,1.082l-0.51953,-0.59375c0.80987,-0.7526 1.444,-1.4922 1.9024,-2.2188h-1.5898z"/><path d="M328.14,194.67c-0.48177,-0.70313 -1.02604,-1.35417 -1.6328,-1.9531l0.63281,-0.55859c0.63021,0.59895 1.18491,1.23569 1.6641,1.9102z"/><path d="M337.07,193.08h1.4922v0.63282h-1.4922v1.0898h-0.77735v-1.0898h-2.3594v-0.42969l-0.45703,0.22266c-0.11198,-0.64323 -0.23177,-1.17187 -0.35938,-1.5859l0.57031,-0.16797c0.16667,0.41406 0.30469,0.85676 0.41407,1.3281h0.49609v-0.5664h-0.44922v-0.59375h2.1445v-0.44141h-1.8633v-1.5976h3.5586v1.5976h-0.91796v0.44141h1.2383v0.59375h-1.2383zM336.29265,193.08v-0.5664h-0.96094v0.5664zM335.18715,190.4159v0.53516h2.0274v-0.53516zM331.99185,190.10731c-0.28906,-0.44531 -0.64193,-0.88281 -1.0586,-1.3125l0.46484,-0.56641c0.08073,0.08073 0.15234,0.15495 0.21484,0.22266c0.25521,-0.38802 0.48829,-0.82032 0.69922,-1.2969l0.6875,0.35938c-0.22917,0.41667 -0.55338,0.89583 -0.97265,1.4375c0.13281,0.17187 0.26953,0.36328 0.41015,0.57422c0.48698,-0.68747 0.82161,-1.17313 1.0039,-1.457l0.60937,0.42187c-0.51823,0.7604 -1.09116,1.48177 -1.7188,2.1641c0.44792,-0.02867 0.76823,-0.0534 0.96094,-0.0742c0.0156,-0.00267 0.03513,-0.00533 0.0586,-0.008c-0.08073,-0.21615 -0.15756,-0.40625 -0.23047,-0.57031l0.57422,-0.22266c0.22917,0.44271 0.41406,0.96485 0.55468,1.5664l-0.61718,0.29687c-0.03127,-0.15885 -0.06773,-0.32291 -0.10938,-0.49218c-0.14063,0.02607 -0.29427,0.0508 -0.46094,0.0742l-0.10156,0.0156v3.5625h-0.76172v-3.4648c-0.36979,0.04427 -0.74349,0.07942 -1.1211,0.10547l-0.15235,-0.72266c0.11198,-0.00267 0.22266,-0.00657 0.33204,-0.0117l0.24609,-0.0117c0.14063,-0.16146 0.30339,-0.35807 0.48828,-0.58984zM336.14805,187.75181h1.6016v1.1289h0.79297v0.60937h-4.6562v-0.60937h1.1328l0.15235,-0.51954h-0.77344v-0.60937h0.95313l0.18359,-0.60938l0.78125,0.0586zM335.96446,188.36118l-0.16016,0.51954h1.1992v-0.51954zM330.92536,193.85728c0.15625,-0.60937 0.26042,-1.29167 0.3125,-2.0469l0.69532,0.0859c-0.03127,0.92447 -0.13283,1.6901 -0.30469,2.2969z"/><path d="M340.11,190.13c-0.33854,-0.47656 -0.71484,-0.91536 -1.1289,-1.3164l0.48047,-0.5586c0.05467,0.05207 0.10935,0.10545 0.16406,0.16016l0.0508,0.0508c0.28386,-0.39844 0.54558,-0.83724 0.78516,-1.3164l0.70313,0.39063c-0.29167,0.46875 -0.63933,0.94401 -1.043,1.4258c0.20312,0.25261 0.35676,0.45052 0.46093,0.59375c0.39844,-0.48437 0.77084,-0.98567 1.1172,-1.5039l0.61719,0.44532c-0.59115,0.81507 -1.20311,1.53903 -1.8359,2.1719c0.39063,-0.02347 0.70703,-0.0469 0.94922,-0.0703c-0.08594,-0.23437 -0.16927,-0.44141 -0.25,-0.6211l0.57813,-0.23828c0.29427,0.59375 0.52604,1.16929 0.69531,1.7266l-0.61328,0.28906c0.14583,0.39323 0.27864,0.89453 0.39843,1.5039l-0.70703,0.32813c-0.08593,-0.60156 -0.20312,-1.14843 -0.35156,-1.6406l0.59766,-0.20703c-0.00533,-0.02607 -0.01183,-0.0534 -0.0195,-0.082c-0.03387,-0.13541 -0.07814,-0.29036 -0.13282,-0.46484c-0.05467,0.0078 -0.14581,0.02083 -0.27343,0.0391c-0.0078,0 -0.08072,0.0104 -0.21875,0.0312v3.5312h-0.78516v-3.4414l-0.0937,0.0117c-0.38281,0.03907 -0.76431,0.0703 -1.1445,0.0937l-0.16016,-0.72656l0.26172,-0.008c0.11979,-0.00533 0.2461,-0.01053 0.37891,-0.0156c0.15885,-0.16927 0.33203,-0.36328 0.51953,-0.58203zM343.9811,191.9034v-0.875h0.78516v0.875h1.5352v0.71875h-1.5352v1.2148h1.8008v0.71875h-4.4336v-0.71875h1.8476v-1.2148h-1.4336v-0.71875zM344.985,189.8214c0.49219,0.3151 1.05859,0.5677 1.6992,0.75781l-0.38282,0.69531c-0.66927,-0.23437 -1.28907,-0.55208 -1.8594,-0.95312c-0.49219,0.38802 -1.06379,0.71614 -1.7148,0.98437l-0.41016,-0.64843c0.40625,-0.14844 0.73958,-0.30079 1,-0.45704c0.15885,-0.09375 0.33854,-0.21744 0.53906,-0.37109c-0.49739,-0.48698 -0.87499,-1.00781 -1.1328,-1.5625h-0.33203v-0.71875h3.4297l0.4414,0.39063c-0.38541,0.7604 -0.81118,1.388 -1.2773,1.8828zM344.37953,189.36046c0.30208,-0.30989 0.57812,-0.67449 0.82812,-1.0938h-1.7266c0.23698,0.40365 0.53646,0.76825 0.89844,1.0938zM338.98113,193.88386c0.20052,-0.5625 0.31771,-1.2422 0.35156,-2.0391l0.73829,0.0859c-0.04167,0.91407 -0.15886,1.6771 -0.35157,2.2891z"/><path d="M351.37,187.9h3.0625v0.65625h-1.7344v0.64844h1.625v0.63281h-1.625v1.1641h-3.1445v-1.1641h-1.2812v0.72657c0,1.17967 -0.0625,2.11197 -0.1875,2.7969c-0.09635,0.52083 -0.2526,0.9961 -0.46875,1.4258l-0.71094,-0.5625c0.19791,-0.42969 0.33333,-0.95442 0.40625,-1.5742c0.06513,-0.54427 0.0977,-1.23957 0.0977,-2.0859v-2.6641h3.0898v-0.70312h0.87109zM348.2724,188.55625v0.64844h1.2812v-0.64844zM350.3857,188.55625v0.64844h1.4805v-0.64844zM350.3857,189.83745v0.60547h1.4805v-0.60547zM351.29195,193.93905c-0.7526,0.39062 -1.70833,0.68749 -2.8672,0.89062l-0.40625,-0.71875c1.08853,-0.13021 1.9414,-0.32943 2.5586,-0.59766c-0.52864,-0.38281 -0.98047,-0.83724 -1.3555,-1.3633h-0.53907v-0.67968h4.5742l0.41016,0.34375c-0.38802,0.59635 -0.94142,1.15755 -1.6602,1.6836c0.61719,0.24739 1.45832,0.42968 2.5234,0.54687l-0.45703,0.73829c-1.0208,-0.13803 -1.94787,-0.41928 -2.7812,-0.84375zM350.13175,192.14995c0.31511,0.36979 0.69791,0.69532 1.1484,0.97657c0.50781,-0.32813 0.89975,-0.65365 1.1758,-0.97657z"/><path d="M357.09,194.24v-5.5195c-0.55208,0.18489 -1.07291,0.32161 -1.5625,0.41016l-0.1914,-0.79297c0.82553,-0.20052 1.5026,-0.43229 2.0312,-0.69532h0.75v6.5977z"/><path d="M364.41,187.9h3.0625v0.65625h-1.7344v0.64844h1.625v0.63281h-1.625v1.1641h-3.1445v-1.1641h-1.2812v0.72657c0,1.17967 -0.0625,2.11197 -0.1875,2.7969c-0.09635,0.52083 -0.2526,0.9961 -0.46875,1.4258l-0.71094,-0.5625c0.19792,-0.42969 0.33334,-0.95442 0.40625,-1.5742c0.06513,-0.54427 0.0977,-1.23957 0.0977,-2.0859v-2.6641h3.0898v-0.70312h0.8711zM361.3123,188.55625v0.64844h1.2812v-0.64844zM363.4256,188.55625v0.64844h1.4805v-0.64844zM363.4256,189.83745v0.60547h1.4805v-0.60547zM364.33185,193.93905c-0.7526,0.39062 -1.70833,0.68749 -2.8672,0.89062l-0.40625,-0.71875c1.08853,-0.13021 1.9414,-0.32943 2.5586,-0.59766c-0.52865,-0.38281 -0.98048,-0.83724 -1.3555,-1.3633h-0.53906v-0.67968h4.5742l0.41016,0.34375c-0.38802,0.59635 -0.94142,1.15755 -1.6602,1.6836c0.61719,0.24739 1.45833,0.42968 2.5234,0.54687l-0.45703,0.73829c-1.0208,-0.13803 -1.94787,-0.41928 -2.7812,-0.84375zM363.17165,192.14995c0.31511,0.36979 0.69791,0.69532 1.1484,0.97657c0.50781,-0.32813 0.89975,-0.65365 1.1758,-0.97657z"/><path d="M369.1,188.18h4.0312v0.84766h-4.0312zM374.4047,194.0277c-0.84113,0.12761 -1.73437,0.19141 -2.6797,0.19141c-0.97133,0 -1.75127,-0.09115 -2.3398,-0.27344c-0.22917,-0.07031 -0.44141,-0.18229 -0.63672,-0.33594c-0.29948,-0.23958 -0.44922,-0.57161 -0.44922,-0.99609c0,-0.53385 0.20573,-1.00132 0.61719,-1.4024l0.67969,0.44922c-0.25,0.29427 -0.375,0.57162 -0.375,0.83203c0,0.29167 0.17578,0.4987 0.52734,0.6211c0.1875,0.06771 0.48568,0.12239 0.89453,0.16406c0.33855,0.03647 0.68881,0.0547 1.0508,0.0547c0.91407,0 1.77733,-0.06641 2.5898,-0.19922zM373.86564,188.7894c-0.19531,-0.46875 -0.45573,-0.92579 -0.78125,-1.3711l0.59766,-0.21484c0.3151,0.42187 0.57682,0.86717 0.78515,1.3359zM374.94764,188.58627c-0.18229,-0.45833 -0.4388,-0.91407 -0.76953,-1.3672l0.57813,-0.19922c0.28125,0.33854 0.54166,0.77344 0.78125,1.3047z"/><path d="M382.46,194.23c-0.7708,0.08073 -1.56767,0.12109 -2.3906,0.12109c-1.21353,0 -2.0638,-0.07682 -2.5508,-0.23047c-0.35417,-0.11198 -0.63411,-0.27865 -0.83984,-0.5c-0.23698,-0.25781 -0.35547,-0.57161 -0.35547,-0.9414c0,-0.48698 0.16667,-0.92448 0.5,-1.3125c0.28385,-0.33073 0.74089,-0.65886 1.3711,-0.98438c-0.35937,-0.80727 -0.68489,-1.72653 -0.97656,-2.7578l0.87109,-0.22656c0.27083,0.9896 0.55729,1.8646 0.85938,2.625c1.0026,-0.46094 2.0664,-0.84507 3.1914,-1.1524l0.26172,0.79297c-1.2344,0.3125 -2.46097,0.7565 -3.6797,1.332c-0.37761,0.17969 -0.64584,0.32682 -0.80469,0.44141c-0.46615,0.34115 -0.69922,0.72005 -0.69922,1.1367c0,0.36198 0.21615,0.61458 0.64844,0.75781c0.35937,0.11719 1.00261,0.17578 1.9297,0.17578c0.8568,0 1.71487,-0.04948 2.5742,-0.14844z"/><path d="M387.64,193.61c1.52867,-0.38541 2.293,-1.26171 2.293,-2.6289c0,-0.59635 -0.15365,-1.10939 -0.46094,-1.5391c-0.34375,-0.48437 -0.86719,-0.79557 -1.5703,-0.93359c-0.15365,1.20833 -0.36328,2.19793 -0.62891,2.9688c-0.18229,0.53906 -0.40886,1.04816 -0.67969,1.5273c-0.39062,0.68227 -0.83462,1.0234 -1.332,1.0234c-0.36979,0 -0.69922,-0.16667 -0.98828,-0.5c-0.18489,-0.21094 -0.33463,-0.47005 -0.44922,-0.77734c-0.15104,-0.39844 -0.22656,-0.82684 -0.22656,-1.2852c0,-0.7422 0.20443,-1.4258 0.61328,-2.0508c0.41406,-0.63802 0.95183,-1.10155 1.6133,-1.3906c0.48177,-0.21093 1.01041,-0.3164 1.5859,-0.3164c0.89847,0 1.6615,0.24088 2.2891,0.72265c0.7708,0.59115 1.1562,1.42838 1.1562,2.5117c0,1.81513 -0.91797,2.96617 -2.7539,3.4531zM387.05406,188.4772c-0.46094,0.05207 -0.84634,0.17576 -1.1562,0.37109c-0.19791,0.12761 -0.39453,0.29688 -0.58984,0.50781c-0.54167,0.59896 -0.8125,1.29296 -0.8125,2.082c0,0.57552 0.11458,1.02605 0.34375,1.3516c0.14062,0.20052 0.27994,0.30078 0.41797,0.30078c0.1875,0 0.39844,-0.20703 0.63281,-0.62109c0.57291,-1.0078 0.96095,-2.33853 1.1641,-3.9922z"/><path d="M252.64,199.31l0.70313,0.69531c-0.29427,1.4818 -0.82161,2.64327 -1.582,3.4844c-0.71613,0.79167 -1.79427,1.40363 -3.2344,1.8359l-0.48828,-0.78906c1.2578,-0.31771 2.23307,-0.82551 2.9258,-1.5234c0.7578,-0.763 1.2552,-1.73043 1.4922,-2.9023h-2.5938c-0.51041,0.7604 -1.13411,1.3893 -1.8711,1.8867l-0.63282,-0.64844c0.59375,-0.38021 1.07942,-0.79557 1.457,-1.2461c0.42708,-0.51563 0.76821,-1.14063 1.0234,-1.875l0.83985,0.23437c-0.10938,0.30729 -0.22917,0.58985 -0.35938,0.84766zM252.89391,199.3881c-0.15625,-0.43229 -0.38802,-0.86719 -0.69531,-1.3047l0.65625,-0.14844c0.26563,0.33854 0.50261,0.76694 0.71094,1.2852zM254.06971,199.3412c-0.16667,-0.48959 -0.39583,-0.95312 -0.6875,-1.3906l0.64063,-0.13671c0.26562,0.36197 0.49479,0.80207 0.6875,1.3203z"/><path d="M255.64,198.33h0.91016v4.2734h-0.91016zM259.6517,198.248h0.91016v2.793c0,0.9818 -0.07943,1.71227 -0.23828,2.1914c-0.13281,0.40885 -0.3138,0.73437 -0.54297,0.97656c-0.47656,0.51302 -1.24219,0.89192 -2.2969,1.1367l-0.44921,-0.80078c1.15367,-0.23437 1.89327,-0.62371 2.2188,-1.168c0.20573,-0.34635 0.32942,-0.78385 0.37109,-1.3125c0.0182,-0.24479 0.0273,-0.58333 0.0273,-1.0156z"/><path d="M262.88,202.5c-0.1875,-0.80207 -0.44141,-1.54293 -0.76172,-2.2226l0.74219,-0.36328c0.33073,0.67707 0.60026,1.43747 0.80859,2.2812zM264.6925,202.14844c-0.14583,-0.63802 -0.38542,-1.37629 -0.71875,-2.2148l0.76953,-0.32032c0.29948,0.65886 0.54948,1.40496 0.75,2.2383zM263.4777,204.57814c0.8698,-0.23177 1.53387,-0.54427 1.9922,-0.9375c0.45833,-0.39323 0.8073,-0.96093 1.0469,-1.7031c0.1875,-0.58854 0.32422,-1.34504 0.41015,-2.2695l0.83204,0.2461c-0.15625,1.22133 -0.3737,2.15753 -0.65235,2.8086c-0.33854,0.79687 -0.84634,1.41147 -1.5234,1.8438c-0.42969,0.27604 -0.97915,0.52083 -1.6484,0.73437z"/><path d="M269.58,198.22h0.91016v2.3203c1.55467,0.48177 2.84243,0.97263 3.8633,1.4726l-0.4375,0.83985c-0.9792,-0.4974 -2.12113,-0.97007 -3.4258,-1.418v3.8906h-0.91016zM273.0058,200.3255c-0.15886,-0.41406 -0.42318,-0.89713 -0.79297,-1.4492l0.60547,-0.22266c0.32291,0.44531 0.59244,0.91928 0.80859,1.4219zM274.123,200.06769c-0.19531,-0.50521 -0.45573,-0.98957 -0.78125,-1.4531l0.58203,-0.19141c0.29427,0.35677 0.5586,0.80991 0.79297,1.3594z"/><path d="M275.62,198.95c2.39587,-0.03647 4.6602,-0.09767 6.793,-0.1836l0.0469,0.77735c-0.94013,0.04687 -1.6719,0.1901 -2.1953,0.42969c-0.5,0.22917 -0.90103,0.54687 -1.2031,0.95312c-0.34375,0.46094 -0.51562,0.97397 -0.51562,1.5391c0,0.5625 0.19531,0.98437 0.58594,1.2656c0.44791,0.32031 1.13541,0.54036 2.0625,0.66015l-0.1836,0.87891c-1.20833,-0.16146 -2.0586,-0.47396 -2.5508,-0.9375c-0.52865,-0.49479 -0.79297,-1.10939 -0.79297,-1.8438c0,-0.66667 0.23958,-1.28907 0.71875,-1.8672c0.34896,-0.42448 0.82683,-0.76561 1.4336,-1.0234c-1.07553,0.03647 -2.46227,0.09766 -4.1602,0.18359zM281.2997,202.3211c-0.15364,-0.40885 -0.41275,-0.87239 -0.77734,-1.3906l0.60938,-0.22657c0.32552,0.44792 0.58724,0.90625 0.78515,1.375zM282.3544,201.91095c-0.18489,-0.47917 -0.44271,-0.9453 -0.77344,-1.3984l0.58204,-0.20703c0.30469,0.36979 0.5638,0.81772 0.77734,1.3438z"/><path d="M287.09,201.76c-0.08073,0.84893 -0.26433,1.53123 -0.55078,2.0469c-0.42969,0.77867 -1.16796,1.37633 -2.2148,1.793l-0.55078,-0.73047c0.72133,-0.21354 1.29163,-0.57681 1.7109,-1.0898c0.38802,-0.47396 0.625,-1.14713 0.71094,-2.0195h-1.3672v-0.5625c-0.28646,0.29427 -0.60677,0.57291 -0.96094,0.83594l-0.55859,-0.67579c1.1406,-0.78647 1.9518,-1.88543 2.4336,-3.2969l0.83203,0.29687c-0.35417,0.9844 -0.8685,1.8594 -1.543,2.625h4.4453c-0.77867,-0.737 -1.4271,-1.62503 -1.9453,-2.6641l0.79297,-0.32031c0.65104,1.32813 1.55207,2.34377 2.7031,3.0469l-0.51953,0.76954c-0.34896,-0.2474 -0.65365,-0.48829 -0.91407,-0.72266l-0.004,0.16016c-0.03127,1.35153 -0.09898,2.43097 -0.20313,3.2383c-0.05467,0.42708 -0.17706,0.70703 -0.36719,0.83984c-0.16927,0.11979 -0.46614,0.17969 -0.89062,0.17969c-0.32031,0 -0.71615,-0.01563 -1.1875,-0.0469l-0.16016,-0.82422c0.42709,0.05727 0.81382,0.0859 1.1602,0.0859c0.20313,0 0.33854,-0.02863 0.40625,-0.0859c0.06771,-0.05727 0.12109,-0.20831 0.16016,-0.45312c0.09635,-0.58073 0.15495,-1.38933 0.17578,-2.4258z"/><path d="M296.26,198.2h0.8711v1.7695h1.4961v0.79297h-1.4961v0.64062c0,0.8776 -0.03776,1.5052 -0.11329,1.8828c-0.1901,0.95573 -0.83463,1.66667 -1.9336,2.1328l-0.52734,-0.67188c0.68487,-0.30989 1.1484,-0.69793 1.3906,-1.1641c0.15625,-0.30729 0.25261,-0.71616 0.28906,-1.2266c0.0156,-0.24219 0.0234,-0.54687 0.0234,-0.91406v-0.67969h-2.5938v-0.79297h2.5938zM292.1038,205.1688c-0.1276,-0.9818 -0.1914,-2.05603 -0.1914,-3.2227c0,-1.237 0.07292,-2.44793 0.21875,-3.6328l0.84765,0.0781c-0.13541,1.237 -0.20312,2.4154 -0.20312,3.5352c0,1.138 0.0625,2.17837 0.1875,3.1211z"/><path d="M299.46,198.95c2.39587,-0.03647 4.6602,-0.09767 6.793,-0.1836l0.0469,0.77735c-0.94013,0.04687 -1.6719,0.1901 -2.1953,0.42969c-0.5,0.22917 -0.90103,0.54687 -1.2031,0.95312c-0.34375,0.46094 -0.51563,0.97397 -0.51563,1.5391c0,0.5625 0.19531,0.98437 0.58594,1.2656c0.44791,0.32031 1.13541,0.54036 2.0625,0.66015l-0.18359,0.87891c-1.20833,-0.16146 -2.0586,-0.47396 -2.5508,-0.9375c-0.52864,-0.49479 -0.79296,-1.10939 -0.79296,-1.8438c0,-0.66667 0.23958,-1.28907 0.71875,-1.8672c0.34895,-0.42448 0.82682,-0.76561 1.4336,-1.0234c-1.07553,0.03647 -2.46227,0.09766 -4.1602,0.18359z"/><path d="M312.07,203.96l0.0547,0.69922c-1.1302,0.39843 -2.3867,0.72656 -3.7695,0.98437l-0.28906,-0.78125c0.23958,-0.03647 0.57811,-0.09506 1.0156,-0.17578v-1.4297c-0.45052,0.22917 -0.98699,0.44662 -1.6094,0.65235l-0.44532,-0.69532c1.2526,-0.33854 2.20833,-0.77084 2.8672,-1.2969h-2.7891v-0.67969h3.3476v-0.58984h-2.5312v-0.65625h2.5312v-0.55078h-2.9297v-0.67188h2.9297v-0.76953h0.85547v0.76953h3.0156v0.67188h-3.0156v0.55078h2.6172v0.65625h-2.6172v0.58984h3.4336v0.67969h-0.9336l0.57813,0.39844c-0.35677,0.34635 -0.85677,0.72525 -1.5,1.1367l-0.0899,0.0586c0.48959,0.44791 1.15365,0.81771 1.9922,1.1094l-0.52734,0.79297c-0.90887,-0.38541 -1.63933,-0.86978 -2.1914,-1.4531zM310.8864,201.9288c-0.26042,0.30469 -0.57422,0.57812 -0.94141,0.82031v1.7539c0.64323,-0.14323 1.28907,-0.3099 1.9375,-0.5l0.17969,-0.0508c-0.53385,-0.59114 -0.92579,-1.26561 -1.1758,-2.0234zM312.3122,202.9952c0.46354,-0.33073 0.86981,-0.69009 1.2188,-1.0781h-1.8477c0.16667,0.39843 0.3763,0.7578 0.62891,1.0781z"/><path d="M319.4,201.33v3.4648c0,0.3151 -0.0638,0.52994 -0.19141,0.64453c-0.11979,0.10417 -0.35156,0.15625 -0.69531,0.15625c-0.39063,0 -0.76173,-0.02473 -1.1133,-0.0742l-0.16797,-0.82422c0.36458,0.05993 0.71355,0.0899 1.0469,0.0899c0.11198,0 0.18229,-0.01953 0.21094,-0.0586c0.0208,-0.03387 0.0312,-0.08986 0.0312,-0.16797v-3.2305h-3.3594v-0.77741h7.5273v0.77734zM316.0992,198.4355h5.6484v0.76953h-5.6484zM315.11482,204.4277c0.5625,-0.58854 1.01563,-1.37111 1.3594,-2.3477l0.80859,0.30469c-0.39844,1.1172 -0.89974,1.9948 -1.5039,2.6328zM321.81792,204.90426c-0.53907,-1.1406 -1.0078,-1.97523 -1.4062,-2.5039l0.73437,-0.4375c0.57292,0.737 1.06119,1.53907 1.4648,2.4062z"/><path d="M323.89,198.33h0.92188v4.6562c0,0.9818 0.51563,1.4727 1.5469,1.4727c0.67967,0 1.23697,-0.3138 1.6719,-0.94141c0.28125,-0.40364 0.53385,-1.02864 0.75781,-1.875l0.79297,0.48047c-0.26563,0.94013 -0.58464,1.64327 -0.95703,2.1094c-0.58594,0.72653 -1.34767,1.0898 -2.2852,1.0898c-0.9792,0 -1.6693,-0.30208 -2.0703,-0.90625c-0.25261,-0.3776 -0.37891,-0.86457 -0.37891,-1.4609z"/><path d="M333.52,198.18h0.86328v0.98438h2.457v0.74219h-2.457v0.92968h2.3203v0.73438h-2.3203v1.207c0.92707,0.3125 1.84113,0.78257 2.7422,1.4102l-0.46094,0.74218c-0.68227,-0.51041 -1.44267,-0.96095 -2.2812,-1.3516c-0.0208,0.44531 -0.10674,0.79038 -0.25781,1.0352c-0.26303,0.42448 -0.78126,0.63672 -1.5547,0.63672c-0.59635,0 -1.07552,-0.11198 -1.4375,-0.33594c-0.40365,-0.25 -0.60547,-0.58853 -0.60547,-1.0156c0,-0.51041 0.27214,-0.88801 0.81641,-1.1328c0.36458,-0.16146 0.83855,-0.24219 1.4219,-0.24219c0.22917,0 0.48047,0.01823 0.75391,0.0547v-1.0078h-2.7695v-0.73438h2.7695v-0.92968h-2.9375v-0.74219h2.9375zM333.52,203.305c-0.3099,-0.06507 -0.60678,-0.0976 -0.89063,-0.0976c-0.34635,0 -0.6276,0.05078 -0.84375,0.15234c-0.25781,0.12239 -0.38672,0.29687 -0.38672,0.52344c0,0.1901 0.10026,0.34375 0.30078,0.46094c0.20313,0.11979 0.47396,0.17968 0.8125,0.17968c0.40105,0 0.67709,-0.10677 0.82813,-0.32031c0.11979,-0.16667 0.17969,-0.41536 0.17969,-0.74609z"/><path d="M341.82,198.16h0.8789v1.0781h2.3047v0.75391h-2.3047v1.6719c0.09115,0.32031 0.13672,0.60547 0.13672,0.85547c0,0.92707 -0.20443,1.60807 -0.61328,2.043c-0.44531,0.47656 -1.11588,0.80599 -2.0117,0.98828l-0.44531,-0.66406c0.69533,-0.13281 1.21097,-0.32031 1.5469,-0.5625c0.31511,-0.22917 0.52735,-0.54037 0.63672,-0.9336c-0.27865,0.30469 -0.61068,0.45704 -0.99609,0.45704c-0.43229,0 -0.78256,-0.1224 -1.0508,-0.36719c-0.31511,-0.28907 -0.47266,-0.70833 -0.47266,-1.2578c0,-0.28907 0.06901,-0.56771 0.20703,-0.83594c0.09115,-0.17187 0.20313,-0.3151 0.33594,-0.42969c0.30729,-0.26041 0.67579,-0.39062 1.1055,-0.39062c0.27343,0 0.52083,0.0651 0.74219,0.19531v-0.76953h-3.8555v-0.75391h3.8555zM341.8512,202.2147v-0.14453c0,-0.16667 -0.03906,-0.3138 -0.11719,-0.4414c-0.14583,-0.23959 -0.35677,-0.35938 -0.63281,-0.35938c-0.14063,0 -0.27214,0.03906 -0.39454,0.11719c-0.28645,0.17969 -0.42968,0.45573 -0.42968,0.82812c0,0.23438 0.05208,0.4323 0.15625,0.59375c0.14583,0.22396 0.36068,0.33594 0.64453,0.33594c0.25781,0 0.46224,-0.11589 0.61328,-0.34766c0.10677,-0.16406 0.16016,-0.35807 0.16016,-0.58203z"/></g></g></g></svg>