<svg xmlns="http://www.w3.org/2000/svg" xml:space="preserve" viewBox="0 0 224 76" version="1.1" height="76" width="224"><rect stroke-linejoin="round" stroke-linecap="round" stop-color="#000000" fill-rule="evenodd" fill-opacity=".8" fill="#1d2a41" height="76" width="224" x="-6.1035e-5"></rect><g fill="#fff"><path stroke-width=".999993" d="m67.16211 14.43945-2.742187 0.3125 0.673828 4.087891-7.302734 0.498047 0.162109 2.404297 7.535156-0.523438 0.767578 4.679688-9.392578 0.695312 0.185547 2.451172 9.613281-0.744141 1.207032 7.44336 2.740234-0.337891-1.21875-7.314453 8.300781-0.650391-0.185547-2.367187-8.488281 0.615234-0.765625-4.667969 7.802735-0.544922-0.173829-2.380859-8.035156 0.558594-0.683594-4.214844zm59.98047 0.185547v5.828125l-5.13086 0.685547 0.2539 2.472656 4.87696-0.708984v8.371094c0 1.695036 0.55333 2.767879 1.66015 3.216796 0.75076 0.309599 2.66956 0.462891 5.75782 0.462891 2.2291 0 4.39269-0.077623 6.49023-0.232422v-2.646484c-2.29875 0.232198-4.51612 0.347656-6.65234 0.347656-1.88077 0-3.09498-0.079651-3.64453-0.242187-0.63466-0.178032-0.95313-0.727371-0.95313-1.648438v-8.011719l9.36914-1.357422c-0.30187 0.905563-0.78157 1.783346-1.43945 2.634766-0.94425 1.222937-2.08877 2.210175-3.43555 2.960937l2.01953 1.683594c1.14552-0.704348 2.13675-1.564178 2.97266-2.578125 1.22289-1.478294 2.2639-3.416996 3.12305-5.816406l-1.45118-1.451172-11.1582 1.498047v-5.46875h-2.6582zm28.44336 0.40625v18.59961l1.70703 1.47461c2.7477-1.176473 4.969-2.790722 6.66406-4.841797 1.34673-1.625415 2.4057-3.587965 3.17969-5.886719l-2.04297-1.972656c-0.62692 2.205874-1.57439 4.112746-2.84375 5.722656-1.16097 1.470567-2.51247 2.605117-4.05273 3.402344v-16.49805h-2.61133zm-5.94532 0.673828v4.271484c1e-5 1.973701-0.05374 3.494412-0.1621 4.5625-0.19349 1.888549-0.59158 3.395298-1.19532 4.517579-0.7198 1.331272-1.96185 2.615122-3.72656 3.853515l1.77539 2.066406c2.54643-1.648597 4.2184-3.706723 5.01563-6.175781 0.60374-1.865069 0.90625-4.823086 0.90625-8.871093v-4.22461h-2.61329zm-47.61523 0.033203-0.8125 2.496094c2.63951 0.657883 5.18308 1.533678 7.62891 2.625l0.88086-2.519531c-2.07412-1.037179-4.63997-1.904992-7.69727-2.601563zm15.83789 2.416016c-0.51858 2.677999-1.19728 4.845578-2.0332 6.501953-1.28481 2.561937-3.12598 4.460826-5.52539 5.699219-2.03572 1.044881-4.96949 1.729609-8.80078 2.054687l0.54492 2.740235c3.49831-0.371518 6.293-0.990548 8.38281-1.857422 3.3127-1.377737 5.77485-3.603032 7.38477-6.675781 0.8901-1.687335 1.64846-3.962414 2.27539-6.826172l-2.22852-1.636719zm-31.19726 0.068359-2.449219 0.408203 0.71875 3.91211-4.759766 0.765625 0.337891 2.357422 4.839844-0.8125 1.974609 10.89062 2.380859-0.429688-1.927734-10.84375 6.732422-1.115234c-0.208942 0.88233-0.583179 1.768096-1.125 2.658203-0.681116 1.130008-1.517099 2.097388-2.507813 2.902344l1.892579 1.521484c2.213651-2.059001 3.7622-4.91111 4.644531-8.556641l-1.47461-1.091797-8.55664 1.38086-0.720703-3.947266z"></path><path aria-label="この地震情報は取り消されました" d="m10.18948 49.3723h8.493759v1.507069h-8.493759zm9.535512 10.68144q-2.243241 0.340306-4.764283 0.340306-2.590493 0-4.160067-0.486152-0.611162-0.187515-1.132038-0.597271-0.7986772-0.638942-0.7986772-1.77098 0-1.423729 1.097313-2.493262l1.208434 0.798677q-0.666722 0.784787-0.666722 1.479289 0 0.777842 0.937578 1.104258 0.500041 0.180571 1.590409 0.291691 0.902853 0.09723 1.86821 0.09723 2.437702 0 4.604548-0.354196zm8.96602-0.743117q4.076727-1.027863 4.076727-4.673999 0-1.590409-0.819512-2.736337-0.916743-1.291774-2.791898-1.65986-0.409756 3.222489-1.118148 5.278215-0.486152 1.437619-1.208434 2.715503-1.041753 1.819595-2.368252 1.819595-0.986192 0-1.75709-0.888963-0.493096-0.562546-0.798677-1.382059-0.402811-1.062588-0.402811-2.284911 0-1.979331 1.090368-3.646135 1.104258-1.70153 2.868293-2.472427 1.284829-0.562547 2.819678-0.562547 2.396032 0 4.069782 1.284829 2.055725 1.576519 2.055725 4.465647 0 4.840679-4.896238 6.139398zm-1.041753-9.125756q-1.229268 0.1389-2.055725 0.659777-0.527822 0.340306-1.048698 0.902852-1.444564 1.597355-1.444564 3.701696 0 1.534849 0.611161 2.402977 0.375031 0.534766 0.743117 0.534766 0.500042 0 1.125094-1.104258 1.527904-2.687723 2.069615-7.09781zm14.73039 3.347499v5.500456q0 0.534766 0.458371 0.645887 0.472262 0.118065 2.159901 0.118065 1.64597 0 2.173791-0.16668 0.298636-0.09723 0.388922-0.541712 0.118065-0.625052 0.12501-1.479289l1.451509 0.409756q-0.11112 2.048781-0.562547 2.618272-0.298635 0.375031-0.902852 0.444482-0.951468 0.104175-3.229434 0.104175-1.764035 0-2.312692-0.09723-0.826457-0.138901-1.048698-0.729227-0.11112-0.312526-0.11112-0.833403v-5.5074l-1.326499 0.458371-0.326416-1.347334 1.652915-0.569491v-3.743366h1.409839v3.257214l1.493179-0.506986v-3.660026h1.395949v3.173874l2.326582-0.798677 0.729227 0.444481v5.20182q0 0.541712-0.256966 0.805622-0.291691 0.291691-0.979248 0.291691-0.562546 0-1.194543-0.09723l-0.229186-1.326499q0.409756 0.104175 0.833403 0.104175 0.30558 0 0.375031-0.12501 0.06945-0.104175 0.06945-0.347251v-3.284994l-1.67375 0.583382v5.61852h-1.395949v-5.139314zm-5.104589-2.271021v-3.354445h1.493179v3.354445h1.347334v1.409839h-1.347334v4.417032q0.729227-0.25002 1.444564-0.520876l0.131955 1.340389q-2.250186 1.027863-4.618438 1.722365l-0.486151-1.47929q1.069533-0.2778 1.875155-0.527821 0.09723-0.03473 0.159736-0.04862v-4.903179h-1.764035v-1.409839zm18.37652-1.479289v-0.597272h-4.340637v-0.993138h10.25085v0.993138h-4.430923v0.597272h5.750477v2.493262h-1.50707v-1.597355h-4.243407v2.701613h-1.479289v-2.701613h-4.167011v1.597355h-1.49318v-2.493262zm4.917074 9.854983q1.062588 0.402811 2.652998 0.638941l-0.812568 1.180654q-2.229351-0.381976-3.660025-1.312609-1.423729-0.930633-2.215461-2.312692h-1.53485v2.139066q1.53485-0.215295 2.847458-0.458371l0.09723 1.034808q-2.444647 0.583382-5.590741 1.013973l-0.409756-1.222323q1.090368-0.118066 1.493179-0.166681l0.08334-0.01389v-2.326582h-1.520959q-0.09723 1.222324-0.319471 1.951551-0.263911 0.875072-0.847292 1.63208l-1.236213-1.020918q0.680612-0.882018 0.847293-2.062671 0.09029-0.638942 0.09029-1.59041v-2.944688h11.9871v0.923688h-10.49393v2.132121h11.0912v0.979247h-1.576519l0.882017 0.583382q-0.784787 0.652832-1.85432 1.222324zm-1.083423-0.534767q1.000083-0.680612 1.59041-1.270939h-3.034974q0.597272 0.763953 1.444564 1.270939zm-7.389501-7.910377h2.958579v0.784787h-2.958579zm0 1.277883h2.958579v0.798678h-2.958579zm5.632411-1.277883h3.048864v0.784787h-3.048864zm0 1.277883h3.048864v0.798678h-3.048864zm-4.875404 2.833568h8.64655v0.909798h-8.64655zm14.18173-4.750393v10.86896h-1.45151v-13.51501h1.45151v2.104341l0.666721-0.555601q0.604217 1.048698 0.958413 2.021001l-0.944522 0.937577q-0.368087-1.173708-0.680612-1.861265zm6.396363-1.722365h3.59752v1.041753h-3.59752v0.666722h3.104423v0.993138h-3.104423v0.687557h4.055891v1.111203h-9.361886v-1.111203h3.868376v-0.687557h-3.014139v-0.993138h3.014139v-0.666722h-3.423895v-1.041753h3.423895v-0.923688h1.437619zm2.889128 5.236545v6.097727q0 0.638942-0.305581 0.930633-0.298636 0.284745-1.020918 0.284745-0.854237 0-1.75709-0.118065l-0.201405-1.250103q0.923687 0.11112 1.465399 0.11112 0.2778 0 0.333361-0.1389 0.03472-0.08334 0.03472-0.256966v-0.895908h-4.264242v2.590493h-1.451509v-7.354776zm-5.715751 1.020918v0.812567h4.264242v-0.812567zm0 1.833485v0.854237h4.264242v-0.854237zm-6.98669-1.764035q0.312526-1.444564 0.451426-3.736421l0.03472-0.569491 1.180654 0.11112q-0.08334 2.972468-0.486152 4.826789zm17.30005-5.799091v-1.45151h1.451509v1.45151h2.159901v1.222323h-2.159901v1.194543h2.458537v1.236214h-0.826458q-0.22224 0.826457-0.597271 1.750145h1.340388v1.208433h-2.375196v1.284829h2.284911v1.236213h-2.284911v2.930799h-1.451509v-2.930799h-2.451592v-1.236213h2.451592v-1.284829h-2.562713v-1.208433h1.277884q-0.222241-0.923688-0.541712-1.750145h-1.020917v-1.236214h2.847458v-1.194543h-2.264077v-1.222323zm1.729309 3.65308h-2.208516q0.236131 0.659777 0.506987 1.750145h1.152873q0.361141-0.888963 0.548656-1.750145zm8.424309-4.604548v3.250269q0 0.604217-0.22224 0.854237-0.263911 0.298636-1.104259 0.298636-0.819512 0-1.639024-0.06945l-0.236131-1.250103q1.152873 0.12501 1.465399 0.12501 0.326416 0 0.326416-0.284746v-1.67375h-3.041918v4.035057h3.937826l0.826457 0.708392q-0.375031 2.208516-1.368169 3.944771l-0.0764 0.1389q0.763952 0.882018 1.90988 1.611245l-0.777842 1.298719q-1.097313-0.708392-1.958495-1.694585-0.743117 0.944522-1.67375 1.777925l-0.819507-1.138983v1.083423h-1.409839v-13.01497zm-4.451757 6.535263v5.250435q0.854237-0.583382 1.645969-1.639025-1.062588-1.639024-1.493179-3.61141zm2.416866 2.382142q0.618107-1.194543 0.805623-2.382142h-1.791815q0.340306 1.333444 0.986192 2.382142zm12.07738-8.903515h1.52096v2.514097h2.83357v1.382059h-2.83357v4.264242q1.64597 0.757007 3.25722 2.125176l-0.77785 1.375114q-1.36122-1.187599-2.49326-1.889046-0.12501 1.70153-1.20843 2.277967-0.60422 0.319471-1.652917 0.319471-1.138983 0-1.979331-0.409756-1.270938-0.618107-1.270938-2.055726 0-1.132038 0.965357-1.79876 0.882018-0.611162 2.264077-0.611162 0.631992 0 1.375112 0.159736v-3.757256h-4.465646v-1.382059h4.465646zm0 9.000745q-0.81257-0.256965-1.444562-0.256965-0.604217 0-1.027863 0.187515-0.666722 0.284746-0.666722 0.930633 0 0.527821 0.486151 0.826457 0.472262 0.291691 1.263994 0.291691 1.389002 0 1.389002-1.56263zm-7.54229 3.340555q-0.243075-2.291857-0.243075-4.819844 0-3.944771 0.527821-7.521456l1.527905 0.222241q-0.520877 3.083588-0.520877 6.667218 0 2.632163 0.263911 5.21571zm20.21696-11.47317h5.37544l0.70145 0.715337q-0.28475 2.111286-0.72923 3.611411-0.48615 1.673749-1.37511 3.257214 1.11815 1.71542 2.52798 2.798843l-0.90979 1.576519q-1.43762-1.305664-2.47937-3.000248-0.84035 1.180653-1.51402 1.86821-0.6945 0.715337-1.51401 1.236213l-0.97925-1.340388q1.8057-1.027863 3.18082-3.215544-0.0278-0.05556-0.0556-0.104176-0.80562-1.611244-1.29872-3.847541-0.2778-1.257048-0.37503-2.146011h-0.81257v-0.868127h-0.66672v11.59124h-1.42373v-2.826623l-0.45143 0.11112q-2.09045 0.541711-4.00033 0.882017l-0.45837-1.479289q0.94452-0.12501 1.30566-0.18057v-8.097893h-1.02091v-1.354279h6.9728zm-2.34742 0.541712h-2.22241v1.65986h2.22241zm0 2.840513h-2.22241v1.680695h2.22241zm0 2.833568h-2.22241v2.208516q0.36114-0.0625 0.54171-0.09028 0.55561-0.09029 1.6807-0.298636zm4.25035-4.805954q0.28475 2.625218 1.19454 4.611493 0.97231-2.06267 1.38206-4.611493zm10.47309 3.576685q-0.6945 1.298719-1.42373 1.951551-0.62505 0.562547-1.14593 0.562547-0.66672 0-1.07648-0.902853-0.42364-0.944523-0.42364-2.958578 0-2.027946 0.47226-4.396198l1.52096 0.229186q-0.45837 2.347416-0.45837 3.972551 0 2.187681 0.31252 2.187681 0.11807 0 0.40281-0.333361 0.44448-0.500041 0.93758-1.472344zm-1.05565 5.437951q2.13213-0.597272 3.21555-1.78487 1.3265-1.451509 1.3265-4.389253 0-2.229351-0.43059-5.007359l1.59041-0.15279q0.45837 2.805788 0.45837 5.2296 0 3.930881-2.021 5.660191-1.22927 1.055642-3.31278 1.750144zm21.2726-7.799257v8.125673q0 0.625051-0.22224 0.916742-0.28474 0.381976-1.16676 0.381976-0.99314 0-1.90988-0.104175l-0.28475-1.437619q1.00703 0.145845 1.62514 0.145845 0.31947 0 0.40281-0.1389 0.0625-0.09723 0.0625-0.305581v-1.764035h-5.27127v3.687806h-1.49318v-9.507732h3.34056v-4.007277h1.50707v4.007277zm-1.49318 1.208433h-5.27127v1.138983h5.27127zm0 2.277967h-5.27127v1.194543h5.27127zm-8.54237-4.139232q-0.95841-1.187598-2.36131-2.243241l1.0487-1.041753q1.45151 0.993137 2.34742 2.132121zm-0.51393 3.51418q-1.24316-1.444564-2.30575-2.257132l1.04175-1.069533q1.25011 0.854238 2.35437 2.159902zm-2.021 5.417115q1.30566-1.75709 2.44464-4.507318l1.20844 0.937578q-0.99314 2.597437-2.36131 4.764283zm5.22265-8.577099q-0.46531-1.340389-1.3265-2.784953l1.38206-0.597272q0.64589 1.034808 1.27789 2.743283zm5.06292-0.465316q0.8334-1.437619 1.29178-3.028029l1.47928 0.583382q-0.56254 1.486234-1.49317 3.014138zm4.20869-0.500042h5.57685q-0.45143-1.187598-0.82646-2.361306l1.52096-0.09723q0.36114 1.236214 0.86813 2.458537h5.13237v1.423729h-4.47954q0.89591 1.85432 2.24324 3.868376l-1.45845 0.694502q-1.48624-2.250186-2.43771-4.562878h-6.13939zm10.09806 10.2439q-1.38206 0.07639-2.44465 0.07639-2.88913 0-4.2573-0.451426-2.47242-0.805622-2.47242-3.041919 0-1.375113 0.85423-2.215461l1.30567 0.708392q-0.5695 0.562547-0.5695 1.472344 0 1.159819 1.25011 1.625135 1.10426 0.409756 3.69475 0.409756 1.09731 0 2.47243-0.104175zm6.54219-12.67466h1.53485v3.923936q1.65292-1.715419 2.64605-2.354361 0.92369-0.597272 1.91683-0.597272 1.00008 0 1.61124 0.562547 0.80563 0.750062 0.80563 1.96544 0 0.319471-0.0833 0.847293-0.61116 3.882266-0.61116 5.375445 0 0.638942 0.32641 0.638942 0.20835 0 0.54866-0.236131 0.71533-0.493096 1.44456-1.61819l0.56949 1.59041q-0.44448 0.708392-1.10425 1.257048-0.76396 0.638942-1.63208 0.638942-0.82646 0-1.28483-0.576436-0.38892-0.493097-0.38892-1.64597 0-0.875073 0.22918-2.632163 0.29169-2.208516 0.38892-3.278049 0.0139-0.173625 0.0139-0.291691 0-0.611161-0.25696-0.937577-0.24308-0.312526-0.67367-0.312526-1.45151 0-4.46565 3.868376v6.556098h-1.53485v-4.805953q-1.15982 1.625134-2.13906 3.069698l-0.72229-1.645969q1.64597-1.993221 2.86135-3.798926v-1.764035h-2.4377v-1.395949h2.4377zm17.43895 0.01389h1.53485v1.750145h4.36842v1.319554h-4.36842v1.652915h4.12534v1.305663h-4.12534v2.146011q2.47243 0.833403 4.8754 2.507153l-0.81951 1.319553q-1.81959-1.361224-4.05589-2.402977-0.0556 1.187599-0.45837 1.840431-0.70145 1.132038-2.76412 1.132038-1.59041 0-2.55577-0.597272-1.07647-0.666722-1.07647-1.805705 0-1.361224 1.45151-2.014056 0.9723-0.430591 2.52798-0.430591 0.61116 0 1.34039 0.09723v-1.791815h-4.92402v-1.305663h4.92402v-1.652915h-5.22265v-1.319554h5.22265zm0 9.111866q-0.82646-0.173625-1.58346-0.173625-0.92369 0-1.50013 0.270855-0.68755 0.326416-0.68755 0.930633 0 0.506986 0.53476 0.819512 0.54171 0.319471 1.44457 0.319471 1.06953 0 1.47234-0.569491 0.31947-0.444482 0.31947-1.326499zm8.90352-8.8549h1.63903v8.278463q0 2.618273 2.75023 2.618273 1.81265 0 2.97246-1.67375 0.75007-1.076478 1.34734-3.333609l1.40984 0.854237q-0.7084 2.507152-1.70153 3.750311-1.56263 1.93766-4.06284 1.93766-2.61133 0-3.68086-1.611244-0.67367-1.007028-0.67367-2.597438zm11.54957 1.889045h3.24332q0.19446-0.861182 0.43754-2.229351l1.56957 0.194461q-0.20835 1.076478-0.44448 2.03489h4.62538v1.382059h-4.95179q-1.38901 5.549071-3.0697 9.202151l-1.53485-0.541711q1.82654-4.048947 3.04192-8.66044h-2.91691zm12.29268 10.21612q-1.12509 0.145846-2.52798 0.145846-2.27103 0-3.43084-0.388921-0.44449-0.152791-0.75701-0.430592-0.61116-0.555601-0.61116-1.416784 0-0.882017 0.56949-1.555684l1.23621 0.729227q-0.21529 0.270856-0.21529 0.597272 0 0.562546 0.51393 0.729227 0.78479 0.25002 2.23629 0.25002 1.40984 0 2.81274-0.20835zm-6.51443-6.882514q2.72245-0.312526 5.95883-0.333361l0.0695 1.409839q-3.17387 0.01389-5.82687 0.298636z"></path></g></svg>
