<svg version="1.1" xmlns="http://www.w3.org/2000/svg" xmlns:xlink="http://www.w3.org/1999/xlink" width="208" height="32" viewBox="0,0,208,32"><g transform="translate(-240,-164)"><g data-paper-data="{&quot;isPaintingLayer&quot;:true}" fill-rule="nonzero" stroke="none" stroke-linecap="butt" stroke-linejoin="miter" stroke-miterlimit="10" stroke-dasharray="" stroke-dashoffset="0" style="mix-blend-mode: normal"><path d="M240,196v-32h208v32z" fill="none" stroke-width="0"/><path d="M255.03,170.44l1.8457,1.6602c-3.32033,0.6966 -6.78067,1.1914 -10.381,1.4844v2.1777h11.943v1.8848h-3.6035v3.9648h4.6289v1.8848h-18.965v-1.8848h3.7988v-9.7852l0.64454,-0.0391c3.28127,-0.16927 6.64393,-0.61851 10.088,-1.3477zM252.657,177.647h-6.1621v3.9648h6.1621zM240.723,187.735c2.2396,-0.8594 4.20573,-2.15823 5.8984,-3.8965l1.8164,1.2793c-1.9792,1.9792 -4.0202,3.4538 -6.123,4.4238zM257.637,189.3366c-1.82293,-1.44533 -3.84767,-2.7995 -6.0742,-4.0625l1.5137,-1.3574c2.28513,1.0026 4.34567,2.2298 6.1816,3.6816z" fill="#ffffff" stroke-width="1"/><path d="M272.5,173.8v1.1035h6.377v1.582h-6.377v1.0547h5.4394v6.6797h-5.4394v1.1426h7.0801v1.7188h-7.0801v2.4219h-2.0606v-2.4219h-6.7383v-1.7188h6.7383v-1.1426h-5.3613v-6.6797h5.3613v-1.0547h-6.1035v-1.582h6.1035v-1.1035h-6.5625v4.9609c0,4.51173 -0.5664,8.07307 -1.6992,10.684l-1.8359,-1.3672c0.61198,-1.66667 1.01888,-3.44077 1.2207,-5.3223c0.14323,-1.35413 0.21484,-2.90037 0.21484,-4.6387v-5.9766h7.4805v-1.6406h2.1973v1.6406h7.8418v1.6602zM270.4394,178.9172h-3.3203v1.2402h3.3203zM272.5,178.9172v1.2402h3.3789v-1.2402zM270.4394,181.5148h-3.3203v1.3281h3.3203zM272.5,181.5148v1.3281h3.3789v-1.3281z" fill="#ffffff" stroke-width="1"/><path d="M296.76,170.98v9.4629h-11.621v-9.4629zM287.2385,172.523v1.2207h7.4023v-1.2207zM287.2385,175.1207v1.2207h7.4023v-1.2207zM287.2385,177.7183v1.2598h7.4023v-1.2598zM283.3029,181.7417h16.191v1.6992h-8.0762v6.0644h-2.2168v-6.0644h-8.0371v-10.957h2.1387zM280.8029,187.6401c1.54947,-0.71613 3.0306,-1.9173 4.4434,-3.6035l1.7969,1.0449c-1.3932,1.76433 -2.93943,3.15107 -4.6387,4.1602zM297.6389,188.8999c-0.99607,-1.22393 -2.49347,-2.50973 -4.4922,-3.8574l1.6797,-1.1816c1.569,0.90493 3.1087,2.09307 4.6191,3.5644z" fill="#ffffff" stroke-width="1"/><path d="M312.94,180.55v0.14649c0.02607,1.52993 0.45577,2.85807 1.2891,3.9844c0.44271,0.59245 1.12954,1.12632 2.0605,1.6016c1.02213,0.52083 2.19727,0.92123 3.5254,1.2012l-1.2207,2.0215c-3.40493,-1.0026 -5.57617,-2.67253 -6.5137,-5.0098c-0.46875,1.3672 -1.19792,2.44793 -2.1875,3.2422c-1.0156,0.8008 -2.48697,1.44207 -4.4141,1.9238l-1.1621,-1.7383c2.52607,-0.54687 4.24157,-1.34114 5.1465,-2.3828c0.918,-1.05467 1.377,-2.74737 1.377,-5.0781v-1.6602h2.0996zM312.63727,174.8176c2.2396,1.15233 4.4922,2.47393 6.7578,3.9648l-1.416,1.6016c-2.0508,-1.52347 -4.06577,-2.86137 -6.0449,-4.0137c-0.54036,0.91147 -1.11653,1.6211 -1.7285,2.1289c-0.99607,0.83333 -2.37953,1.55273 -4.1504,2.1582l-1.1035,-1.6992c2.04427,-0.51433 3.55793,-1.32163 4.541,-2.4219c0.8984,-1.0156 1.3476,-2.5553 1.3476,-4.6191v-1.416h2.0996v1.1816c0,1.11327 -0.10091,2.1582 -0.30273,3.1348zM303.91657,175.08127c-0.86587,-1.15233 -1.83917,-2.17773 -2.9199,-3.0762l1.4551,-1.3672c1.0742,0.76173 2.08983,1.73503 3.0469,2.9199zM303.19391,180.13987c-0.931,-1.21747 -1.93033,-2.2624 -2.998,-3.1348l1.5039,-1.4648c1.1328,0.84633 2.1647,1.8587 3.0957,3.0371zM300.59621,187.98167c1.1198,-1.7578 2.181,-4.0104 3.1836,-6.7578l1.7383,1.1816c-0.86587,2.5716 -1.8945,4.93163 -3.0859,7.0801zM305.75241,175.46167c0.83333,-1.1068 1.39323,-2.36657 1.6797,-3.7793l1.9238,0.43945c-0.47526,1.78387 -1.10353,3.22267 -1.8848,4.3164zM314.19971,174.54371c0.8138,-0.85287 1.6048,-1.95963 2.373,-3.3203l2.0215,0.91797c-0.918,1.3932 -1.84573,2.5195 -2.7832,3.3789zM305.63531,184.24101c0.8008,-0.9896 1.4486,-2.19727 1.9434,-3.623l1.7969,0.45899c-0.41015,1.69273 -1.09049,3.099 -2.041,4.2188zM313.93611,183.57695c0.8854,-1.00913 1.66667,-2.13543 2.3438,-3.3789l1.9531,0.98633c-1.0482,1.49087 -1.97267,2.6367 -2.7734,3.4375z" fill="#ffffff" stroke-width="1"/><path d="M335.41,177.37c1.25,0.97653 2.71483,1.79683 4.3945,2.4609l-0.90821,1.6992c-1.89453,-0.77473 -3.48307,-1.73827 -4.7656,-2.8906c-0.34505,0.29948 -0.64453,0.55013 -0.89844,0.75195c-1.1328,0.8724 -2.4837,1.62437 -4.0527,2.2559l-0.97657,-1.6211c1.70573,-0.56641 3.2487,-1.46161 4.6289,-2.6856c-0.61849,-0.73567 -1.13282,-1.43553 -1.543,-2.0996c-0.48828,0.54687 -1.01888,1.04167 -1.5918,1.4844l-1.1524,-1.5234c1.56253,-1.0742 2.75393,-2.666 3.5742,-4.7754l1.9824,0.32226c-0.13672,0.29297 -0.25391,0.54688 -0.35156,0.76172h3.5742l1.1523,1.0547c-0.8008,1.7904 -1.82293,3.39197 -3.0664,4.8047zM334.0526,176.1298c0.77473,-0.8724 1.4388,-1.80663 1.9922,-2.8027h-3.3203c-0.20183,0.3125 -0.32878,0.50456 -0.38086,0.57617c0.48828,0.8138 1.05795,1.556 1.709,2.2266zM328.4569,171.1982v6.7774h-2.4414v2.9785h2.4805v1.7578h-2.4805v3.4473c0.66407,-0.14974 1.5918,-0.40039 2.7832,-0.75195l0.15625,1.7285c-2.5716,0.8594 -5.2311,1.56577 -7.9785,2.1191l-0.61523,-1.9043c0.57291,-0.09766 0.89843,-0.15626 0.97656,-0.17579v-7.5781h1.7578v7.2266c0.33855,-0.06507 0.70638,-0.14319 1.1035,-0.23437v-8.6133h-2.998v-6.7774zM323.0956,172.9951v3.2617h3.5254v-3.2617zM338.2416,181.6181v7.8809h-1.9629v-1.084h-4.5508v1.084h-1.9629v-7.8809zM331.7279,183.3955v3.2422h4.5508v-3.2422z" fill="#ffffff" stroke-width="1"/><path d="M347.74,171.98c0.24089,-0.57943 0.4362,-1.13283 0.58594,-1.6602l2.3828,0.32226c-0.22787,0.54037 -0.4362,0.98633 -0.625,1.3379h6.5039v6.3672h-11.797v0.98633h14.697v1.582h-14.697v0.99609h14.014c-0.08463,2.9818 -0.27343,4.99353 -0.5664,6.0352c-0.18881,0.66406 -0.54364,1.10353 -1.0645,1.3184c-0.37109,0.15625 -0.93749,0.23437 -1.6992,0.23437c-0.78127,0 -1.51043,-0.04883 -2.1875,-0.14648l-0.39063,-1.6406h-9.7852v1.084h-2.0996v-4.6973h2.0996v2.0117h3.3594v-2.6367h-3.8379v-11.494zM351.8904,186.111v-2.0117h2.0215v3.3984c0.54036,0.05207 0.98956,0.0781 1.3476,0.0781c0.44271,0 0.7194,-0.12695 0.83008,-0.38085c0.21485,-0.47527 0.38412,-1.7155 0.50781,-3.7207h-8.0273v2.6367zM344.7908,173.484v0.96679h9.6387v-0.96679zM344.7908,175.8473v1.0644h9.6387v-1.0644z" fill="#ffffff" stroke-width="1"/></g></g></svg>