<svg xmlns="http://www.w3.org/2000/svg" viewBox="0 0 120 60" version="1.1" height="60" width="120"><rect style="paint-order:stroke markers fill" stop-color="#000000" opacity=".80769" fill="none" height="60" width="120"></rect><path aria-label="20fps" fill="#f2f2f2" d="m61.21616 24.42921v-1.544922q0.649414-2.016602 3.541016-3.944336l0.375976-0.25293q1.244141-0.827148 1.708985-1.353515 0.519531-0.587891 0.519531-1.271485 0-0.615234-0.375977-1.066406-0.560547-0.676758-1.674804-0.676758-1.661133 0-2.987305 1.387696l-1.175781-1.080079q0.464843-0.567382 1.107422-0.957031 1.374023-0.833984 3.0625-0.833984 1.3125 0 2.276367 0.499023 0.833984 0.4375 1.285156 1.189453 0.416992 0.710938 0.416992 1.538086 0 1.086914-0.827148 2.009766-0.553711 0.62207-2.071289 1.654297l-0.4375 0.293945q-1.606446 1.086914-2.119141 1.613281-0.628906 0.642579-0.833984 1.155274h6.398437v1.640625zm14.75195-11.62109q2.15332 0 3.335938 1.866211 0.991211 1.558594 0.991211 4.108398 0 2.331055-0.840821 3.841797-1.168945 2.112305-3.506836 2.112305-2.098632 0-3.274414-1.75-1.05957-1.572266-1.05957-4.204102 0-2.734375 1.134766-4.327148 1.175781-1.647461 3.219726-1.647461zm-0.02051 1.469727q-1.107422 0-1.75 1.216797-0.62207 1.189453-0.62207 3.288085 0 1.961915 0.567383 3.13086 0.649414 1.326172 1.818359 1.326172 1.025391 0 1.661133-1.066407 0.710938-1.196289 0.710938-3.390625 0-2.08496-0.615235-3.274414-0.642578-1.230468-1.770508-1.230468zm7.464844 1.893554v-0.574218q0-1.298829 0.574219-2.064454 0.813476-1.073242 2.351562-1.073242 1.100586 0 2.071289 0.546875l-0.574218 1.216797q-0.710938-0.348633-1.271485-0.348633-1.319336 0-1.319336 1.736328v0.560547h2.631836v1.298828h-2.631836v6.958985h-1.832031v-6.958985h-2.00293v-1.298828zm7.936524 0v1.121094q1.134765-1.34668 2.850585-1.34668 1.722657 0 2.775391 1.148438 1.004883 1.086914 1.004883 2.925781 0 1.551758-0.717774 2.597656-1.032226 1.503907-3.035156 1.503907-1.818359 0-2.741211-1.244141v2.871094h-1.832031v-9.577149zm0.136718 5.120118q0.984375 1.415039 2.296875 1.415039 1.045899 0 1.654297-0.69043 0.628906-0.710938 0.628906-2.016602 0-1.182617-0.526367-1.859375-0.601562-0.765625-1.756836-0.765625-0.827148 0-1.483398 0.519532-0.512695 0.40332-0.813477 1.107421zm8.428711 0.84082q1.319332 0.984375 2.959962 0.984375 1.49023 0 1.49023-0.888672 0-0.676758-1.69531-1.244141l-0.71094-0.232422q-1.25781-0.423828-1.72949-0.77246-0.765624-0.574219-0.765624-1.63379 0-1.175781 1.032224-1.879882 0.82032-0.560547 2.06446-0.560547 1.88671 0 3.39062 0.936523l-0.86816 1.401367q-1.10742-0.84082-2.39942-0.84082-0.5332 0-0.875 0.191406-0.42383 0.232422-0.42383 0.676758 0 0.341797 0.36915 0.587891 0.29394 0.205078 1.07324 0.4375l0.75879 0.21875q2.74121 0.813476 2.74121 2.638672 0 0.916015-0.66992 1.633789-0.84766 0.909179-2.93946 0.909179-2.03711 0-3.670896-1.189453z"></path></svg>
