<svg xmlns="http://www.w3.org/2000/svg" viewBox="0 0 224 64" version="1.1" height="64" width="224">
 <rect stop-color="#000000" fill-rule="evenodd" fill="none" ry="0" rx="0" height="64" width="224"></rect>
 <path stop-color="#000000" fill-rule="evenodd" fill="#f1de2f" d="m46 31h158c5.54 0 10 4.46 10 10v7c0 5.54-4.46 10-10 10h-158c-5.54 0-10-4.46-10-10v-7c0-5.54 4.46-10 10-10z"></path>
 <g fill="#191705">
  <g aria-label="最大波">
   <path d="m52.293 39.429v3.3677h-8.0405v-3.3677zm-6.8428 0.76807v0.55322h5.645v-0.55322zm0 1.2568v0.62842h5.645v-0.62842zm2.6855 2.8252v4.4795q1.0474-0.28467 1.9175-0.97754-0.81641-0.95068-1.2354-2.0464h-0.46191v-0.85938h4.1465l0.52637 0.46191q-0.58545 1.418-1.4663 2.4331 0.78955 0.51562 1.9766 0.87549l-0.66064 0.98291q-1.2246-0.46191-2.0625-1.1279-0.91846 0.75732-2.1538 1.2031l-0.52637-0.78955v0.73584h-1.1118v-1.1978q-1.5254 0.30615-3.7759 0.54785l-0.29541-0.98828q0.70898-0.0376 1.2085-0.0752v-3.6577h-1.1226v-0.8916h10.452v0.8916zm-1.1118 0h-1.7617v0.6499h1.7617zm0 1.3643h-1.7617v0.66064h1.7617zm0 1.3643h-1.7617v0.82178q0.45654-0.04834 0.6875-0.0752 0.61768-0.06445 1.0742-0.12354zm3.7275 0.09131q0.48877-0.56396 0.88086-1.3643h-1.8208q0.33301 0.7251 0.93994 1.3643z"></path>
   <path d="m59.512 43.06q0.3706 1.2568 1.4072 2.6748 1.2622 1.7295 3.1045 2.7393l-0.76807 1.1064q-1.9497-1.1494-3.2549-3.0454-0.70361-1.0312-1.1279-2.1001-0.42432 1.4395-1.3159 2.6157-1.3105 1.7402-3.2388 2.5674l-0.75732-0.98291q2.0195-0.84326 3.2603-2.5996 1.042-1.4824 1.2354-2.9756h-4.2861v-1.1655h4.3345v-2.5889h1.2407v2.5889h4.4258v1.1655z"></path>
   <path d="m71.967 47.314q1.0366 0.73584 2.6426 1.2568l-0.60156 1.0742q-1.6919-0.66602-2.793-1.5415-1.1387 1.0151-2.5835 1.6113l-0.75195-0.84863q1.4878-0.52637 2.5674-1.477-1.2246-1.3535-1.7563-2.8359h-0.20947q-0.03223 1.4502-0.25781 2.5083-0.2793 1.3052-1.0474 2.4976l-0.87012-0.79492q0.70898-1.1548 0.9292-2.5835 0.13965-0.8916 0.13965-2.0034v-3.4858h2.8145v-1.4932h1.144v1.4932h2.4653l0.55859 0.4834q-0.33301 1.1064-0.77881 2.0249l-1.0903-0.32227q0.35449-0.58008 0.52637-1.1655h-1.6812v1.896h1.7832l0.53711 0.46191q-0.63916 1.9175-1.6865 3.2441zm-0.82178-0.67676q0.81104-1.0259 1.1226-2.084h-2.5728q0.50488 1.1387 1.4502 2.084zm-0.95606-4.9253h-1.7026v1.896h1.7026zm-3.9907 0.24707q-0.70898-0.96143-1.7402-1.8047l0.83789-0.81104q1.0044 0.7251 1.8047 1.7026zm-0.48877 2.5942q-0.76807-0.98828-1.7134-1.7671l0.82715-0.80566q0.9292 0.66064 1.7671 1.6812zm-1.5898 4.2485q1.0098-1.5146 1.7886-3.6738l0.97217 0.67139q-0.71973 2.1431-1.7402 3.8726z"></path>
  </g>
  <g aria-label="日">
   <path fill="#191705" d="m105.41 40.176v9.6572h-1.2783v-0.83789h-5.7578v0.83789h-1.2676v-9.6572zm-7.0361 1.0903v2.6694h5.7578v-2.6694zm0 3.7275v2.8789h5.7578v-2.8789z"></path>
  </g>
  <g aria-label=":">
   <path fill="#191705" d="m124.99 49.297q-0.4 0-0.672-0.272t-0.272-0.672 0.272-0.672q0.272-0.288 0.672-0.288t0.672 0.288q0.288 0.272 0.288 0.672t-0.288 0.672q-0.272 0.272-0.672 0.272zm0.016-5.136q-0.4 0-0.672-0.272t-0.272-0.672 0.272-0.672q0.272-0.288 0.672-0.288t0.672 0.288q0.288 0.272 0.288 0.672t-0.288 0.672q-0.272 0.272-0.672 0.272z"></path>
  </g>
 </g>
</svg>
