<svg version="1.1" xmlns="http://www.w3.org/2000/svg" xmlns:xlink="http://www.w3.org/1999/xlink" width="85.35786" height="122.52191" viewBox="0,0,85.35786,122.52191"><g transform="translate(-555.01434,-69.27864)"><g data-paper-data="{&quot;isPaintingLayer&quot;:true}" fill="none" fill-rule="evenodd" stroke="#d645ff" stroke-width="72" stroke-linecap="round" stroke-linejoin="round" stroke-miterlimit="4" stroke-dasharray="" stroke-dashoffset="0" style="mix-blend-mode: normal"><path d="M604.3722,155.80055l-2.21964,-0.89986l-1.95969,0.52992l-2.25964,-1.47976l0.49992,-1.53975l-1.15981,-1.66973l-6.259,-3.00952l0.47992,-1.46976l2.57959,0.55991l3.57943,-0.6399l3.7494,-1.90969l-0.26996,-3.18949l-3.1295,-2.12966l0.93985,-0.91985l-1.13982,-3.31947l1.64974,-0.72988l-0.01,-2.5096l-1.28979,-1.78971l1.41977,-1.94969l-1.09982,-2.71956l-1.11982,-0.36994l-0.01,-3.7494l0.73988,-1.52976l4.26932,-2.63958l-0.22996,-4.25932l-1.74972,-2.14966l0.6299,-1.2798l-1.44977,-1.70973l-5.47912,-2.04967"/></g></g></svg>