<?xml version="1.0" encoding="UTF-8"?>
<svg width="480" height="360" version="1.1" viewBox="0 0 480 360" xmlns="http://www.w3.org/2000/svg">
 <g dominant-baseline="central" fill="#fff" aria-label="広島県北部">
  <path d="m251.52 173.3h7.5v2.002h-14.854v3.0957q0 4.6191-0.44922 7.041-0.41015 2.1582-1.4453 3.9453l-1.7773-1.6602q0.98632-1.8066 1.2598-4.3555 0.20508-1.8066 0.20508-4.9707v-5.0977h7.3047v-2.8027h2.2559zm-5.8008 13.193q0.0391-0.0781 0.0977-0.21484 2.0703-4.3457 3.6719-10l2.2559 0.51757q-1.9727 6.123-3.7207 9.5312 1.3965-0.12695 2.0996-0.18554 3.457-0.28321 5.332-0.57617-1.2402-2.3633-2.3047-4.0918l1.8945-0.91797q2.2266 3.3203 4.1992 7.5391l-1.9922 1.2793q-0.39063-0.88867-0.95703-2.0996-5.0391 0.9082-12.002 1.4844l-0.76171-2.1387q0.61523-0.0293 1.25-0.0684z" dominant-baseline="central"/>
  <path d="m267.74 171.98q0.36133-0.86914 0.58594-1.6602l2.3828 0.32226q-0.3418 0.81055-0.625 1.3379h6.5039v6.3672h-11.797v0.98633h14.697v1.582h-14.697v0.99609h14.014q-0.12695 4.4727-0.5664 6.0352-0.28321 0.99609-1.0645 1.3184-0.55664 0.23437-1.6992 0.23437-1.1719 0-2.1875-0.14648l-0.39063-1.6406h-9.7852v1.084h-2.0996v-4.6973h2.0996v2.0117h3.3594v-2.6367h-3.8379v-11.494zm4.1504 14.131v-2.0117h2.0215v3.3984q0.81054 0.0781 1.3476 0.0781 0.66406 0 0.83008-0.38085 0.32227-0.7129 0.50781-3.7207h-8.0273v2.6367zm-7.0996-12.627v0.96679h9.6387v-0.96679zm0 2.3633v1.0644h9.6387v-1.0644z" dominant-baseline="central"/>
  <path d="m296.76 170.98v9.4629h-11.621v-9.4629zm-9.5215 1.543v1.2207h7.4023v-1.2207zm0 2.5977v1.2207h7.4023v-1.2207zm0 2.5976v1.2598h7.4023v-1.2598zm-3.9356 4.0234h16.191v1.6992h-8.0762v6.0644h-2.2168v-6.0644h-8.0371v-10.957h2.1387zm-2.5 5.8984q2.3242-1.0742 4.4434-3.6035l1.7969 1.0449q-2.0898 2.6465-4.6387 4.1602zm16.836 1.2598q-1.4941-1.8359-4.4922-3.8574l1.6797-1.1816q2.3535 1.3574 4.6191 3.5644z" dominant-baseline="central"/>
  <path d="m305.84 184.3q-2.6953 1.416-4.6973 2.168l-0.82031-2.1484q3.1348-1.0547 5.5176-2.1875v-4.375h-4.834v-2.0606h4.834v-5.1953h2.1777v19.004h-2.1777zm6.9434-7.6074q2.2754-1.1914 4.4141-3.0273l1.6211 1.6992q-2.8906 2.0508-6.0352 3.4961v7.3242q0 0.47852 0.3125 0.58594 0.33203 0.10742 1.5332 0.10742 1.582 0 1.9824-0.18555 0.2832-0.12695 0.39062-0.79101 0.14649-0.92774 0.21485-2.998l2.1875 0.67383q-0.0977 2.5293-0.3125 3.6328-0.24414 1.2305-1.2793 1.5918-0.98633 0.33203-3.2324 0.33203-2.6367 0-3.3203-0.43945-0.6543-0.42969-0.6543-1.6504v-16.543h2.1777z" dominant-baseline="central"/>
  <path d="m326.98 172.75h4.1797v1.8848h-1.377q-0.3711 1.4941-0.9961 3.1348h2.6074v1.8848h-10.898v-1.8848h2.3926q-0.39062-1.875-0.82031-3.1348h-1.2695v-1.8848h4.1406v-2.2559h2.041zm-2.9394 1.8848q0.49805 1.4551 0.77148 3.1348h1.9922l0.09766-0.27344q0.41992-1.1133 0.78125-2.5293l0.0879-0.33203zm6.0547 6.6602v7.998h-2.002v-0.95703h-4.2578v1.1621h-2.0606v-8.2031zm-6.2598 1.7969v3.3887h4.2578v-3.3887zm13.047-4.9316q1.1621 1.1035 1.8457 2.627 0.67383 1.5234 0.67383 3.0859 0 1.4453-0.53711 2.1289-0.55664 0.71289-1.8359 0.71289-1.0938 0-2.1191-0.15625l-0.47852-2.0801q1.1816 0.21485 1.9531 0.21485 0.58594 0 0.73242-0.27344 0.0977-0.19531 0.0977-0.78125 0-2.4121-1.4453-4.1602-0.38086-0.45898-0.95703-0.98633l0.11719-0.27343q1.0156-2.2949 1.582-4.7852h-2.5v16.064h-2.0215v-18.086h5.8789l1.084 0.99609q-0.98633 3.3594-2.0703 5.752z" dominant-baseline="central"/>
 </g>
</svg>
