<svg version="1.1" xmlns="http://www.w3.org/2000/svg" xmlns:xlink="http://www.w3.org/1999/xlink" width="224.00001" height="308" viewBox="0,0,224.00001,308"><defs><linearGradient x1="128" y1="212" x2="128" y2="228" gradientUnits="userSpaceOnUse" id="color-1"><stop offset="0" stop-color="#000000" stop-opacity="0.1"/><stop offset="1" stop-color="#000000" stop-opacity="0"/></linearGradient></defs><g transform="translate(-128,-180)"><g data-paper-data="{&quot;isPaintingLayer&quot;:true}" stroke="none" stroke-miterlimit="10" stroke-dasharray="" stroke-dashoffset="0" style="mix-blend-mode: normal"><g fill-rule="evenodd"><path d="M138,210h204l10,2v276h-224v-276z" fill="#1d2a41" stroke-width="1" stroke-linecap="butt" stroke-linejoin="miter"/><path d="M128.00001,228v-16h224v16z" fill="url(#color-1)" stroke-width="12" stroke-linecap="round" stroke-linejoin="round" opacity="0.80769"/><path d="M138,180h204c5.54,0 10,4.46 10,10v22h-224v-22c0,-5.54 4.46,-10 10,-10z" fill="#31476d" stroke-width="1" stroke-linecap="butt" stroke-linejoin="miter"/></g><path d="M149.44043,465.1728v1.34668h3.97168v1.23047h-3.97168v2.91211h1.83203v-2.25586h1.42871v4.17676h-1.42871v-0.73145h-5.01074v0.73145h-1.42871v-4.17676h1.42871v2.25586h1.73633v-2.91211h-3.78027v-1.23047h3.78027v-1.34668h-3.24023v-1.18945h5.40039c0.4375,-0.82031 0.85449,-1.80469 1.25098,-2.95313l1.36035,0.54688c-0.33724,0.77474 -0.74284,1.57682 -1.2168,2.40625h1.27149v1.18945zM141.75,461.80268v-2.52246h1.46973v2.52246h1.36035v1.36036h-1.36035v2.208c0.33724,-0.11393 0.72917,-0.25748 1.17578,-0.43066l0.1709,1.28516c-0.52865,0.22331 -0.97754,0.4056 -1.34668,0.54687v4.5459c0,0.40104 -0.07292,0.69271 -0.21875,0.875c-0.18685,0.22787 -0.55143,0.3418 -1.09375,0.3418c-0.49219,0 -0.9502,-0.04557 -1.37402,-0.13672l-0.28027,-1.42871c0.54687,0.08203 0.94336,0.12304 1.18945,0.12304c0.14128,0 0.22786,-0.02963 0.25976,-0.0889c0.0319,-0.05013 0.04785,-0.13672 0.04785,-0.25977v-3.43848c-0.46484,0.15495 -0.93652,0.30307 -1.41504,0.44434l-0.41699,-1.4082c0.77018,-0.19597 1.34896,-0.35319 1.73633,-0.47168c0.0319,-0.00913 0.0638,-0.01827 0.0957,-0.0274v-2.67968h-1.63379v-1.36036zM144.28613,460.06636c2.83464,-0.12761 5.35482,-0.39877 7.56055,-0.81348l0.92285,1.13477c-2.53841,0.45117 -5.18848,0.75878 -7.9502,0.92285zM145.86523,463.90132c-0.22786,-0.78385 -0.50358,-1.49251 -0.82715,-2.12598l1.26465,-0.42383c0.38281,0.74284 0.6722,1.44239 0.86816,2.09864zM148.40137,463.74409c-0.17318,-0.77929 -0.44434,-1.50618 -0.81348,-2.18066l1.27148,-0.42383c0.37826,0.66537 0.6722,1.40365 0.88184,2.21484zM156.93945,459.58784h1.51074v3.86231c1.08464,-1.12565 1.9528,-1.89812 2.60449,-2.31739c0.60612,-0.39193 1.23503,-0.58789 1.88672,-0.58789c0.65625,0 1.1849,0.18457 1.58594,0.55371c0.52865,0.49219 0.79297,1.13704 0.79297,1.93457c0,0.20964 -0.02734,0.48764 -0.08203,0.83399c-0.40104,2.54753 -0.60156,4.3112 -0.60156,5.29101c0,0.41927 0.1071,0.62891 0.32129,0.62891c0.13672,0 0.31673,-0.07747 0.54004,-0.23242c0.4694,-0.32357 0.94336,-0.85449 1.42188,-1.59278l0.56055,1.56543c-0.29167,0.46485 -0.65397,0.87728 -1.08691,1.23731c-0.5013,0.41927 -1.03678,0.6289 -1.60645,0.6289c-0.54232,0 -0.96387,-0.18913 -1.26465,-0.56738c-0.25521,-0.32357 -0.38281,-0.86361 -0.38281,-1.62012c0,-0.57421 0.0752,-1.43782 0.22559,-2.59082c0.19141,-1.44921 0.31901,-2.52473 0.38281,-3.22656c0.00911,-0.11393 0.01367,-0.20964 0.01367,-0.28711c0,-0.40104 -0.08431,-0.70866 -0.25293,-0.92285c-0.15951,-0.20508 -0.38053,-0.30762 -0.66309,-0.30762c-0.95247,0 -2.41764,1.26921 -4.39551,3.80762v6.45313h-1.51074v-4.73047c-0.76107,1.06641 -1.46289,2.07357 -2.10547,3.02148l-0.71094,-1.62012c1.08008,-1.30794 2.01888,-2.55436 2.81641,-3.73925v-1.73633h-2.39941v-1.37403h2.39941zM177.85058,468.46089c0.34635,0.57877 0.75879,1.06412 1.2373,1.45605c0.61979,0.50131 1.40592,0.93653 2.3584,1.30567l-0.82715,1.36035c-1.69987,-0.70638 -2.93945,-1.89128 -3.71875,-3.55469c-0.29622,0.87044 -0.76563,1.61784 -1.4082,2.24219c-0.57878,0.56055 -1.35579,1.04818 -2.33105,1.46289l-0.9502,-1.20313c1.12109,-0.36458 1.97103,-0.83626 2.5498,-1.41504c0.48763,-0.48763 0.84993,-1.03906 1.08691,-1.65429h-2.64551v-3.67774h2.89844v-1.14843h-1.4834v-0.6084c-0.49219,0.42839 -1.03906,0.80436 -1.64062,1.12793l-0.54004,-0.72461h-1.13476v1.16894c0.59701,0.50131 1.1735,1.0573 1.72949,1.66797l-0.72461,1.29883c-0.32813,-0.47851 -0.66309,-0.9388 -1.00488,-1.38086v6.39844h-1.40137v-6.13867c-0.45117,1.29427 -0.93197,2.38802 -1.44238,3.28125l-0.60156,-1.59961c0.83854,-1.40821 1.47656,-2.97364 1.91406,-4.69629h-1.68848v-1.33301h1.81836v-2.81641h1.40137v2.81641h1.2168v0.7998c1.45378,-0.85221 2.56348,-2.05762 3.3291,-3.61621h1.55176c0.68815,1.07097 1.55859,1.96648 2.61133,2.68653c0.45573,0.30989 0.98665,0.61979 1.59277,0.92968l-0.82715,1.17579c-0.63346,-0.3418 -1.21908,-0.71322 -1.75684,-1.11426v0.67676h-1.53125v1.14843h2.95313v3.67774zM176.12793,465.86323h-1.60645v1.50391h1.60645zM177.46093,465.86323v1.50391h1.64746v-1.50391zM175.21191,462.45893h3.20606c-0.64714,-0.5651 -1.23275,-1.23274 -1.75684,-2.00293c-0.37826,0.7155 -0.86133,1.38314 -1.44922,2.00293zM189.44433,463.91499h3.33594v-3.4043h1.52441v4.76465h-4.86035v5.05176h3.7666v-3.15137h1.55176v5.40723h-1.55176v-0.86817h-8.97558v0.86817h-1.53809v-5.40723h1.53809v3.15137h3.68457v-5.05176h-4.77149v-4.76465h1.52442v3.4043h3.24707v-4.63477h1.52441zM205.66601,467.51069c0.15039,0.54232 0.33496,1.03679 0.55371,1.4834c0.45573,-0.4694 0.86361,-0.95019 1.22363,-1.44238l1.01172,0.7041c-0.51953,0.67448 -1.01855,1.24642 -1.49707,1.71582c-0.0319,0.03193 -0.05924,0.05927 -0.08203,0.082c0.26432,0.32357 0.53776,0.58561 0.82031,0.78613c0.18685,0.13217 0.31901,0.19825 0.39648,0.19825c0.07292,0 0.1276,-0.07748 0.16406,-0.23243c0.04557,-0.20507 0.10254,-0.67219 0.1709,-1.40136l1.16211,0.6289c-0.0638,0.82031 -0.18229,1.44694 -0.35547,1.87989c-0.18229,0.45573 -0.45345,0.68359 -0.81348,0.68359c-0.32812,0 -0.74284,-0.15723 -1.24414,-0.47168c-0.47852,-0.30078 -0.90918,-0.69271 -1.29199,-1.17578c-0.69727,0.58333 -1.49707,1.15527 -2.39941,1.71582l-0.77246,-0.99121c0.85677,-0.48763 1.69076,-1.06869 2.50195,-1.74317c-0.41016,-0.77474 -0.69954,-1.58138 -0.86816,-2.41992h-1.63379c-0.02735,0.24609 -0.06836,0.51497 -0.12305,0.80664c0.60612,0.36914 1.15527,0.79069 1.64746,1.26465l-0.72461,1.05274c-0.36003,-0.44206 -0.76335,-0.84538 -1.20996,-1.20997c-0.32812,1.06185 -0.87272,2.01661 -1.63379,2.86426l-0.93652,-0.95703c0.92969,-1.14388 1.48568,-2.41764 1.66797,-3.82129h-1.36035l-0.23926,0.46485c-0.23242,-0.60612 -0.4694,-1.17123 -0.71094,-1.69532v6.30274h-1.34668v-6.35059c-0.31901,1.22591 -0.73372,2.33789 -1.24414,3.33594l-0.64258,-1.45606c0.79753,-1.41731 1.37402,-2.96907 1.72949,-4.65527h-1.51758v-1.36035h1.6748v-2.81641h1.34668v2.81641h1.14844v1.36035h-1.14844v1.03223c0.5332,0.79297 0.91829,1.38997 1.15527,1.79101h3.91016c-0.1595,-1.3444 -0.24837,-2.79134 -0.2666,-4.34082l-0.02734,-2.65918h1.26465l0.02734,2.70703c0.00911,0.88867 0.03646,1.66114 0.08203,2.31739c0.05925,-0.00467 0.11393,-0.007 0.16406,-0.007l0.14356,-0.007l0.13672,-0.007c0.07292,-0.09571 0.15039,-0.19597 0.23242,-0.30078c0.04557,-0.05467 0.19824,-0.26202 0.45801,-0.62207c-0.39193,-0.59701 -0.7793,-1.13021 -1.16211,-1.59961l0.6084,-0.40332c0.38281,-0.56055 0.74056,-1.23958 1.07324,-2.03711l1.0459,0.62891c-0.38281,0.69271 -0.82031,1.34668 -1.3125,1.96191c0.18685,0.26432 0.3099,0.44661 0.36914,0.54687c0.3418,-0.51953 0.66992,-1.04134 0.98438,-1.56543l0.98438,0.64258c-0.51042,0.75651 -1.22363,1.64974 -2.13965,2.67969c0.50586,-0.041 0.90918,-0.07974 1.20996,-0.11621c-0.07747,-0.20963 -0.16862,-0.42383 -0.27344,-0.64258l0.93652,-0.38965c0.35091,0.71549 0.597,1.45605 0.73828,2.22168l-0.96387,0.37598c-0.07747,-0.33268 -0.13216,-0.55827 -0.16406,-0.67676c-1.14844,0.20963 -2.10775,0.34635 -2.87793,0.41016l-0.10254,0.0137c0.04101,0.41015 0.07291,0.69954 0.0957,0.86816h1.37402c-0.13672,-0.1595 -0.30078,-0.32812 -0.49219,-0.50586l1.0459,-0.38964c0.26432,0.30989 0.48763,0.60839 0.66992,0.8955h1.42871v1.23047zM201.41406,463.41597c-0.4375,-0.58789 -0.84766,-1.08464 -1.23047,-1.49024l0.51953,-0.34863c0.37826,-0.5013 0.78385,-1.22591 1.2168,-2.17383l1.03223,0.51953c-0.35547,0.65625 -0.79297,1.33301 -1.3125,2.03027c0.22331,0.27344 0.35547,0.4375 0.39649,0.49219c0.0319,-0.05013 0.07292,-0.11621 0.12305,-0.19824c0.23242,-0.3737 0.49219,-0.82715 0.7793,-1.36035l0.86816,0.64941c-0.5651,0.97526 -1.26009,1.98014 -2.08496,3.01465c0.4375,-0.03647 0.82487,-0.07065 1.16211,-0.10254c-0.07292,-0.21875 -0.15723,-0.42838 -0.25293,-0.6289l0.75879,-0.4375c0.27344,0.57421 0.48763,1.23274 0.64258,1.97558l-0.78613,0.45801c-0.05013,-0.21875 -0.08431,-0.36687 -0.10254,-0.44434c-0.875,0.18229 -1.80697,0.33496 -2.7959,0.45801l-0.29394,-1.17578c0.17318,-0.00913 0.30078,-0.01597 0.38281,-0.0205c0.03646,0 0.0752,-0.00233 0.11621,-0.007c0.16406,-0.20508 0.45117,-0.6084 0.86133,-1.20996zM211.10058,462.40425c0.56966,-0.99805 1.0459,-2.05762 1.42871,-3.17871l1.53809,0.32128c-0.44206,1.02995 -0.93197,1.96876 -1.46973,2.81641c0.27799,-0.01367 0.70638,-0.03417 1.28516,-0.0615c0.05013,0 0.39649,-0.0205 1.03906,-0.0615l-0.04102,-0.0684c-0.20508,-0.35091 -0.44206,-0.72232 -0.71094,-1.11425l1.16211,-0.57422c0.79753,1.03451 1.42643,2.02344 1.88672,2.9668l-1.3125,0.71777c-0.11849,-0.25521 -0.25521,-0.54232 -0.41016,-0.86133c-1.4401,0.17773 -3.19922,0.31445 -5.27734,0.41016l-0.34863,-1.28516c0.17773,0 0.58789,-0.0091 1.23047,-0.0273zM216.24121,464.57124v6.69238c0,0.4694 -0.11165,0.79297 -0.33496,0.9707c-0.20052,0.15951 -0.5446,0.23926 -1.03223,0.23926c-0.5013,0 -0.95931,-0.02963 -1.37402,-0.0889l-0.22559,-1.292c0.5651,0.06836 0.97982,0.10254 1.24414,0.10254c0.16862,0 0.26888,-0.03418 0.30078,-0.10254c0.02279,-0.05467 0.03418,-0.13898 0.03418,-0.25293v-1.24414h-2.67285v2.98731h-1.41504v-8.01172zM212.18066,465.69233v0.89551h2.67285v-0.89551zM212.18066,467.61323v0.95703h2.67285v-0.95703zM218.8457,461.35151c1.06185,-0.38737 2.07357,-0.8636 3.03516,-1.42871l1.02539,1.03906c-1.38086,0.72917 -2.73437,1.27604 -4.06055,1.64063v1.15527c0,0.22787 0.06608,0.36231 0.19824,0.40332c0.18229,0.05927 0.63119,0.0889 1.34668,0.0889c0.61523,0 0.99805,-0.06836 1.14844,-0.20508c0.11849,-0.10937 0.19596,-0.52181 0.23242,-1.2373c0.00453,-0.13672 0.00909,-0.24382 0.01367,-0.32129l1.44238,0.34863c-0.03646,1.23047 -0.17546,1.98014 -0.41699,2.24902c-0.15495,0.17318 -0.41243,0.29395 -0.77246,0.36231c-0.46029,0.09115 -1.13249,0.13672 -2.0166,0.13672c-1.10742,0 -1.82975,-0.08203 -2.16699,-0.2461c-0.31901,-0.1595 -0.47852,-0.50357 -0.47852,-1.03222v-5.02442h1.46973zM218.8457,468.00972c1.06641,-0.35547 2.15788,-0.84766 3.27441,-1.47657l0.95703,1.13477c-1.48112,0.74284 -2.8916,1.2806 -4.23144,1.61328v1.22363c0,0.29623 0.0957,0.47168 0.28711,0.52637c0.14583,0.0456 0.52181,0.0684 1.12793,0.0684c0.84766,0 1.33073,-0.07292 1.44922,-0.21875c0.1276,-0.15495 0.20964,-0.74056 0.24609,-1.75684l1.45605,0.38965c-0.00911,1.35352 -0.21419,2.19662 -0.61523,2.5293c-0.35091,0.29167 -1.2373,0.4375 -2.65918,0.4375c-1.12565,0 -1.87077,-0.09115 -2.23535,-0.27344c-0.35091,-0.16862 -0.52637,-0.51042 -0.52637,-1.02539v-5.1543h1.46973zM231.42383,470.50483c2.67513,-0.67448 4.01269,-2.20801 4.01269,-4.60058c0,-1.04362 -0.26888,-1.94141 -0.80664,-2.69336c-0.60156,-0.84766 -1.51757,-1.39226 -2.74804,-1.63379c-0.26888,2.11458 -0.63574,3.84635 -1.10059,5.19531c-0.31901,0.94336 -0.7155,1.83431 -1.18945,2.67285c-0.68359,1.19401 -1.46061,1.79102 -2.33106,1.79102c-0.64714,0 -1.22363,-0.29167 -1.72949,-0.875c-0.32357,-0.36914 -0.58561,-0.82259 -0.78613,-1.36035c-0.26432,-0.69727 -0.39648,-1.44694 -0.39648,-2.24903c0,-1.29883 0.35775,-2.49511 1.07324,-3.58886c0.72461,-1.11654 1.66569,-1.92774 2.82324,-2.4336c0.8431,-0.36914 1.76823,-0.55371 2.77539,-0.55371c1.57227,0 2.90755,0.42155 4.00586,1.26465c1.34895,1.03451 2.02343,2.49968 2.02343,4.39551c0,3.17643 -1.60644,5.19076 -4.81933,6.04297zM230.39844,461.52241c-0.80664,0.09115 -1.48112,0.30762 -2.02344,0.64941c-0.34635,0.22331 -0.69043,0.51954 -1.03223,0.88868c-0.94792,1.04817 -1.42187,2.26269 -1.42187,3.64355c0,1.00716 0.20052,1.79557 0.60156,2.36524c0.24609,0.35091 0.48991,0.52636 0.73144,0.52636c0.32813,0 0.69727,-0.3623 1.10742,-1.08691c1.0026,-1.76367 1.68164,-4.09245 2.03711,-6.98633zM245.73145,463.03315v-1.14843h-3.76661v-1.2168h3.76661v-1.3877h1.41503v1.3877h4.21094v1.2168h-4.21094v1.14843h3.55469v4.34082h-3.57519c-0.05467,0.92513 -0.22784,1.67253 -0.51953,2.24219c1.47656,0.74284 3.11718,1.25554 4.92187,1.53809l-0.71777,1.42871c-1.87305,-0.46485 -3.52962,-1.09831 -4.96973,-1.90039c-0.8112,0.86133 -1.9961,1.53125 -3.55469,2.00976l-0.7998,-1.20312c1.31705,-0.27344 2.36295,-0.78841 3.13769,-1.54492c-0.65169,-0.43295 -1.36035,-0.95932 -2.12597,-1.57911l0.98437,-0.82031c0.64714,0.52865 1.28288,0.98893 1.90723,1.38086c0.20052,-0.43294 0.32585,-0.95019 0.37598,-1.55176h-3.53418v-4.34082zM245.73145,464.18159h-2.11231v2.04395h2.11231zM247.14648,464.18159v2.04395h2.15332v-2.04395zM241.19238,462.57515v10.00781h-1.45605v-7.01367c-0.29623,0.50585 -0.67904,1.08007 -1.14844,1.72265l-0.69726,-1.53808c0.75651,-1.05274 1.39225,-2.26042 1.90722,-3.62305c0.3099,-0.8112 0.62663,-1.7933 0.9502,-2.94629l1.46972,0.37598c-0.35091,1.17578 -0.6927,2.18066 -1.02539,3.01465zM264.27734,459.99116v10.93066c0,0.46485 -0.08431,0.80209 -0.25293,1.01172c-0.20963,0.25977 -0.63346,0.38965 -1.27148,0.38965c-0.71094,0 -1.34213,-0.02733 -1.89356,-0.082l-0.2666,-1.46973c0.72461,0.09115 1.3239,0.13672 1.79785,0.13672c0.19141,0 0.30534,-0.04329 0.3418,-0.12988c0.0228,-0.05927 0.0342,-0.14586 0.0342,-0.25977v-2.70019h-3.34961v4.12891h-1.46972v-4.12891h-3.20606c-0.041,0.94791 -0.13215,1.73405 -0.27344,2.3584c-0.20052,0.85221 -0.5765,1.65657 -1.12793,2.41308l-1.28515,-1.05957c0.52865,-0.70182 0.87728,-1.55175 1.0459,-2.5498c0.0957,-0.57878 0.14355,-1.23047 0.14355,-1.95508v-7.03418zM254.75488,461.3105v1.97558h3.19239v-1.97558zM254.75488,464.53022v2.03028h3.19239v-2.03028zM262.7666,466.5605v-2.03028h-3.34961v2.03028zM262.7666,463.28608v-1.97558h-3.34961v1.97558z" fill="#ffffff" fill-rule="nonzero" stroke-width="1" stroke-linecap="butt" stroke-linejoin="miter"/><path d="M141.27148,423.8545h1.59278v7.4785h-1.59278zM148.29199,423.7109h1.59278v4.8877c0,1.71813 -0.139,2.99647 -0.417,3.835c-0.23242,0.71547 -0.54915,1.28513 -0.95019,1.709c-0.83399,0.8978 -2.17383,1.56087 -4.01953,1.9892l-0.78614,-1.4013c2.01888,-0.4102 3.31315,-1.09153 3.88282,-2.044c0.36003,-0.60613 0.5765,-1.37177 0.64941,-2.2969c0.03193,-0.42833 0.0479,-1.02077 0.0479,-1.7773zM152.30469,424.6816h10.71191l0.88184,0.7452c-0.25521,0.95247 -0.58789,1.7477 -0.99805,2.3857c-0.77018,1.20767 -1.92317,2.11 -3.45898,2.707l-0.86133,-1.1757c1.06185,-0.31907 1.94368,-0.89103 2.64551,-1.7159c0.41471,-0.4876 0.7041,-1.00257 0.86816,-1.5449h-9.78906zM156.68652,427.6348h1.56543v1.1757c0,1.76373 -0.19596,3.12637 -0.58789,4.0879c-0.49674,1.2214 -1.46288,2.2149 -2.89843,2.9805l-1.12793,-1.1894c0.98893,-0.4694 1.71126,-1.02997 2.16699,-1.6817c0.35091,-0.50587 0.58105,-1.04133 0.69043,-1.6064c0.1276,-0.64713 0.1914,-1.5153 0.1914,-2.6045zM167.89746,424.3467h1.53809v2.4883c0,2.38347 -0.17774,4.12433 -0.53321,5.2226c-0.4694,1.4538 -1.45377,2.66603 -2.95312,3.6367l-1.0459,-1.2168c1.03906,-0.72913 1.77051,-1.48563 2.19434,-2.2695c0.35547,-0.6608 0.59017,-1.5472 0.7041,-2.6592c0.0638,-0.62887 0.0957,-1.52437 0.0957,-2.6865zM171.39746,423.9502h1.53809v9.7139c0.9069,-0.4694 1.70215,-1.13707 2.38574,-2.003c0.74739,-0.94787 1.30566,-2.07123 1.6748,-3.3701l1.20313,1.1621c-0.45573,1.35353 -1.08008,2.5088 -1.87305,3.4658c-0.99805,1.20773 -2.30599,2.15793 -3.92383,2.8506l-1.00488,-0.8681zM189.32129,425.1123l0.97754,0.7998c-0.63802,2.91667 -1.67253,5.1748 -3.10352,6.7744c-0.79297,0.88413 -1.81836,1.65887 -3.07617,2.3242c-0.89323,0.4694 -1.85254,0.8431 -2.87793,1.1211l-0.79297,-1.3466c2.34245,-0.61073 4.16081,-1.586 5.45508,-2.9258c-1.06641,-0.95707 -2.24219,-1.80473 -3.52734,-2.543l0.8955,-1.1074c1.25326,0.65167 2.44499,1.45373 3.5752,2.4062c0.88867,-1.42187 1.44694,-2.79817 1.6748,-4.1289h-4.8125c-1.10286,1.71813 -2.40169,3.03293 -3.89648,3.9444l-1.00488,-1.0869c1.44466,-0.87047 2.63183,-2.0212 3.56152,-3.4522c0.47851,-0.72913 0.84993,-1.51527 1.11426,-2.3584l1.4834,0.3623c-0.15039,0.41013 -0.31901,0.81573 -0.50586,1.2168zM196.86133,435.9746v-7.0137c-1.38542,0.92973 -2.9668,1.7136 -4.74414,2.3516l-0.82715,-1.3877c2.01888,-0.679 3.78939,-1.554 5.31152,-2.625c1.49479,-1.05273 2.82552,-2.25813 3.99219,-3.6162l1.31934,0.8271c-1.03451,1.18947 -2.1875,2.28097 -3.45899,3.2745v8.1894zM202.80176,433.623c0.31445,-0.00667 0.7474,-0.02933 1.29883,-0.068c1.29883,-2.91667 2.49511,-6.12727 3.58886,-9.6318l1.56543,0.4101c-1.07552,3.36327 -2.22396,6.4007 -3.44531,9.1123c2.31511,-0.1686 4.36817,-0.37367 6.15918,-0.6152c-0.67448,-1.18947 -1.36035,-2.28777 -2.05762,-3.2949l1.34668,-0.8545c1.43555,1.97787 2.69564,4.0742 3.78028,6.289l-1.53809,0.7998c-0.25065,-0.5286 -0.52637,-1.08003 -0.82715,-1.6543c-2.66146,0.44667 -5.84017,0.84317 -9.53613,1.1895zM221.55957,425.126v-0.5879h-4.27246v-0.9776h10.08984v0.9776h-4.36132v0.5879h5.66015v2.4541h-1.4834v-1.5723h-4.17675v2.6592h-1.45606v-2.6592h-4.10156v1.5723h-1.46973v-2.4541zM226.39941,434.8262c0.69727,0.26433 1.56771,0.47397 2.61133,0.6289l-0.7998,1.1621c-1.46289,-0.25067 -2.66374,-0.68133 -3.60254,-1.292c-0.93425,-0.61067 -1.66114,-1.36947 -2.18067,-2.2764h-1.51074v2.1055c1.00716,-0.14127 1.94141,-0.29167 2.80274,-0.4512l0.0957,1.0186c-1.60417,0.3828 -3.43848,0.71547 -5.50293,0.998l-0.40332,-1.2031c0.71549,-0.07747 1.2054,-0.13217 1.46973,-0.1641l0.082,-0.014v-2.2901h-1.49707c-0.0638,0.80213 -0.16862,1.44243 -0.31446,1.9209c-0.17317,0.57427 -0.45117,1.10977 -0.83398,1.6065l-1.2168,-1.0049c0.44661,-0.5788 0.72461,-1.25557 0.83399,-2.0303c0.05927,-0.41927 0.0889,-0.94107 0.0889,-1.5654v-2.8985h11.79883v0.9092h-10.3291v2.0987h10.91699v0.9638h-1.55175l0.86816,0.5742c-0.51497,0.4284 -1.12337,0.82947 -1.8252,1.2032zM225.33301,434.2998c0.65625,-0.4466 1.17806,-0.8636 1.56543,-1.251h-2.98731c0.39193,0.50133 0.86589,0.91833 1.42188,1.251zM218.05957,426.5137h2.91211v0.7724h-2.91211zM218.05957,427.7715h2.91211v0.7861h-2.91211zM223.60352,426.5137h3.00097v0.7724h-3.00097zM223.60352,427.7715h3.00097v0.7861h-3.00097zM218.80469,430.5605h8.51074v0.8956h-8.51074zM237.39844,424.5107h5.35937v1.1485h-3.03515v1.1347h2.84375v1.1075h-2.84375v2.0371h-5.50293v-2.0371h-2.24219v1.2715c0,2.0644 -0.10938,3.6959 -0.32813,4.8945c-0.16862,0.91147 -0.44206,1.74317 -0.82031,2.4951l-1.24414,-0.9844c0.34635,-0.75193 0.58333,-1.67023 0.71094,-2.7549c0.11393,-0.95247 0.1709,-2.16923 0.1709,-3.6503v-4.6622h5.40722v-1.2304h1.52442zM231.97754,425.6592v1.1347h2.24219v-1.1347zM235.67578,425.6592v1.1347h2.59082v-1.1347zM235.67578,427.9014v1.0595h2.59082v-1.0595zM237.26172,435.0791c-1.31706,0.6836 -2.98959,1.20313 -5.01758,1.5586l-0.71094,-1.2578c1.90495,-0.22787 3.39747,-0.5765 4.47754,-1.0459c-0.92513,-0.66993 -1.71582,-1.4652 -2.37207,-2.3858h-0.94336v-1.1894h8.00489l0.71777,0.6016c-0.67904,1.0436 -1.64746,2.02567 -2.90527,2.9462c1.08007,0.433 2.55208,0.75203 4.41601,0.9571l-0.7998,1.292c-1.78646,-0.24153 -3.40886,-0.73373 -4.86719,-1.4766zM235.23145,431.9482c0.55143,0.64713 1.22135,1.2168 2.00976,1.709c0.88867,-0.5742 1.57455,-1.14387 2.05762,-1.709zM251.02246,434.5049c2.67513,-0.67447 4.0127,-2.208 4.0127,-4.6006c0,-1.0436 -0.26888,-1.9414 -0.80664,-2.6934c-0.60157,-0.8476 -1.51758,-1.3922 -2.74805,-1.6338c-0.26888,2.1146 -0.63574,3.8464 -1.10059,5.1954c-0.31901,0.94333 -0.71549,1.83427 -1.18945,2.6728c-0.68359,1.194 -1.46061,1.791 -2.33105,1.791c-0.64714,0 -1.22364,-0.29167 -1.7295,-0.875c-0.32357,-0.36913 -0.58561,-0.82257 -0.78613,-1.3603c-0.26432,-0.69727 -0.39648,-1.44693 -0.39648,-2.249c0,-1.29887 0.35775,-2.49517 1.07324,-3.5889c0.72461,-1.11653 1.66569,-1.92773 2.82324,-2.4336c0.8431,-0.36913 1.76823,-0.5537 2.77539,-0.5537c1.57227,0 2.90755,0.42153 4.00586,1.2646c1.34896,1.03453 2.02344,2.4997 2.02344,4.3955c0,3.17647 -1.60645,5.1908 -4.81934,6.043zM249.99707,425.5225c-0.80664,0.09113 -1.48112,0.3076 -2.02344,0.6494c-0.34635,0.22327 -0.69043,0.51947 -1.03222,0.8886c-0.94792,1.0482 -1.42188,2.26273 -1.42188,3.6436c0,1.00713 0.20052,1.79553 0.60156,2.3652c0.24609,0.35093 0.48991,0.5264 0.73145,0.5264c0.32813,0 0.69727,-0.3623 1.10742,-1.0869c1.00261,-1.76367 1.68164,-4.09243 2.03711,-6.9863zM265.33008,427.0332v-1.1484h-3.7666v-1.2168h3.7666v-1.3877h1.41504v1.3877h4.21093v1.2168h-4.21093v1.1484h3.55468v4.3408h-3.57519c-0.05467,0.92513 -0.22784,1.67253 -0.51953,2.2422c1.47656,0.74287 3.11718,1.25557 4.92187,1.5381l-0.71777,1.4287c-1.87305,-0.46487 -3.52962,-1.09833 -4.96973,-1.9004c-0.81119,0.86133 -1.99609,1.53127 -3.55468,2.0098l-0.79981,-1.2031c1.31706,-0.27347 2.36296,-0.78847 3.1377,-1.545c-0.65169,-0.43293 -1.36035,-0.9593 -2.12598,-1.5791l0.98437,-0.8203c0.64714,0.52867 1.28288,0.98897 1.90723,1.3809c0.20052,-0.43293 0.32585,-0.9502 0.37598,-1.5518h-3.53418v-4.3408zM265.33008,428.1816h-2.11231v2.044h2.11231zM266.74512,428.1816v2.044h2.15332v-2.044zM260.79102,426.5752v10.0078h-1.45606v-7.0137c-0.29623,0.50587 -0.67904,1.0801 -1.14844,1.7227l-0.69726,-1.5381c0.75651,-1.05273 1.39225,-2.2604 1.90722,-3.623c0.3099,-0.8112 0.62663,-1.7933 0.9502,-2.9463l1.46973,0.3759c-0.35091,1.1758 -0.69271,2.1807 -1.02539,3.0147zM283.87598,423.9912v10.9307c0,0.4648 -0.08431,0.80203 -0.25293,1.0117c-0.20964,0.25973 -0.63347,0.3896 -1.27149,0.3896c-0.71093,0 -1.34212,-0.02733 -1.89355,-0.082l-0.2666,-1.4697c0.72461,0.09113 1.32389,0.1367 1.79785,0.1367c0.19141,0 0.30534,-0.0433 0.3418,-0.1299c0.0228,-0.05933 0.0342,-0.1459 0.0342,-0.2597v-2.7002h-3.34962v4.1289h-1.46972v-4.1289h-3.20606c-0.041,0.94787 -0.13214,1.734 -0.27343,2.3584c-0.20053,0.8522 -0.5765,1.65653 -1.12793,2.413l-1.28516,-1.0595c0.52865,-0.70187 0.87728,-1.5518 1.0459,-2.5498c0.0957,-0.5788 0.14355,-1.2305 0.14355,-1.9551v-7.0342zM274.35352,425.3105v1.9756h3.19238v-1.9756zM274.35352,428.5303v2.0302h3.19238v-2.0302zM282.36523,430.5605v-2.0302h-3.34961v2.0302zM282.36523,427.2861v-1.9756h-3.34961v1.9756z" fill="#ffffff" fill-rule="nonzero" stroke-width="1" stroke-linecap="butt" stroke-linejoin="miter"/><g fill-rule="evenodd" stroke-width="1" stroke-linecap="butt" stroke-linejoin="miter"><path d="M336,392c0.55228,0 1,0.44772 1,1c0,0.55228 -0.44772,1 -1,1h-192c-0.55228,0 -1,-0.44772 -1,-1c0,-0.55228 0.44772,-1 1,-1z" fill="#31476d"/><g fill="#7d97b4"><path d="M143,393c0,-0.55228 0.44772,-1 1,-1c0.55228,0 1,0.44772 1,1c0,0.55228 -0.44772,1 -1,1c-0.55228,0 -1,-0.44772 -1,-1z"/><path d="M335,393c0,-0.55228 0.44772,-1 1,-1c0.55228,0 1,0.44772 1,1c0,0.55228 -0.44772,1 -1,1c-0.55228,0 -1,-0.44772 -1,-1z"/><path d="M239,393c0,-0.55228 0.44772,-1 1,-1c0.55228,0 1,0.44772 1,1c0,0.55228 -0.44772,1 -1,1c-0.55228,0 -1,-0.44772 -1,-1z"/><path d="M271,393c0,-0.55228 0.44772,-1 1,-1c0.55228,0 1,0.44772 1,1c0,0.55228 -0.44772,1 -1,1c-0.55228,0 -1,-0.44772 -1,-1z"/><path d="M175,393c0,-0.55228 0.44772,-1 1,-1c0.55228,0 1,0.44772 1,1c0,0.55228 -0.44772,1 -1,1c-0.55228,0 -1,-0.44772 -1,-1z"/><path d="M303,393c0,-0.55228 0.44772,-1 1,-1c0.55228,0 1,0.44772 1,1c0,0.55228 -0.44772,1 -1,1c-0.55228,0 -1,-0.44772 -1,-1z"/><path d="M207,393c0,-0.55228 0.44772,-1 1,-1c0.55228,0 1,0.44772 1,1c0,0.55228 -0.44772,1 -1,1c-0.55228,0 -1,-0.44772 -1,-1z"/></g></g><path d="M195.60742,362.21875l-1.03125,0.47852c-0.36003,-0.92514 -0.82357,-1.77605 -1.38867,-2.55079l1.0332,-0.33398c0.54687,0.66537 1.00846,1.46748 1.38672,2.40625zM193.80273,362.56641l-1.10742,0.4375c-0.28711,-0.75194 -0.7487,-1.59176 -1.38672,-2.52149l1.08008,-0.39062c0.52409,0.72006 0.99482,1.54494 1.41406,2.47461zM181.38086,361.33594c-1.03453,1.18946 -2.18752,2.28192 -3.45898,3.27539v8.18945h-1.5918v-7.01367c-1.3854,0.92967 -2.96681,1.7135 -4.74414,2.35156l-0.82813,-1.38867c2.01887,-0.67907 3.79037,-1.55407 5.3125,-2.625c1.4948,-1.05273 2.82552,-2.25717 3.99219,-3.61523zM167.22851,360.53907v2.76172h2.74023v1.40234h-2.74023v0.42969c0,2.3242 -0.33268,4.06967 -0.99805,5.23633c-0.64257,1.12107 -1.77601,1.98106 -3.39844,2.57813l-0.95703,-1.2168c1.58593,-0.54687 2.64775,-1.38997 3.18555,-2.5293c0.41927,-0.87953 0.62891,-2.22847 0.62891,-4.04687v-0.45118h-4.14844v3.91602h-1.53906v-3.91602h-2.54883v-1.40234h2.54883v-2.6582h1.53906v2.6582h4.14844v-2.76172zM141.83203,361.08008v7.0957c0,0.79293 0.16992,1.42639 0.51172,1.90039c0.52409,0.71547 1.30666,1.07227 2.3457,1.07227c1.153,0 1.9746,-0.42061 2.4668,-1.26367c0.25977,-0.44662 0.39063,-1.01627 0.39063,-1.70899v-7.0957h1.83203v7.40234c0,1.0664 -0.27669,1.94008 -0.82812,2.61914c-0.86133,1.0664 -2.15108,1.59961 -3.86914,1.59961c-1.7044,0 -2.98954,-0.53321 -3.85547,-1.59961c-0.55143,-0.67446 -0.82617,-1.54814 -0.82617,-2.61914v-7.40234zM156.1582,361.08008v1.25781h-1.45703v8.82422h1.45703v1.25781h-4.75781v-1.25781h1.45508v-8.82422h-1.45508v-1.25781zM191,361.63086l0.8418,1.02539c-0.40559,1.57227 -1.08792,3.09573 -2.04492,4.57227c1.48566,1.16213 2.94267,2.51107 4.36914,4.04687l-1.12109,1.29297c-1.25327,-1.4264 -2.62504,-2.81506 -4.11523,-4.16406c-1.54033,1.85026 -3.42703,3.25261 -5.66016,4.20508l-0.83398,-1.41602c1.61786,-0.64258 2.94405,-1.41859 3.97852,-2.33008c1.21227,-1.06186 2.18298,-2.29562 2.91211,-3.69922c0.36458,-0.7064 0.63346,-1.41734 0.80664,-2.13281h-6.69336v-1.40039z" fill="#ffffff" fill-rule="nonzero" stroke-width="1" stroke-linecap="butt" stroke-linejoin="miter"/><g fill-rule="evenodd" stroke-width="1" stroke-linecap="butt" stroke-linejoin="miter"><path d="M336,332c0.55228,0 1,0.44772 1,1c0,0.55228 -0.44772,1 -1,1h-192c-0.55228,0 -1,-0.44772 -1,-1c0,-0.55228 0.44772,-1 1,-1z" fill="#31476d"/><g fill="#7d97b4"><path d="M335,333c0,-0.55228 0.44772,-1 1,-1c0.55228,0 1,0.44772 1,1c0,0.55228 -0.44772,1 -1,1c-0.55228,0 -1,-0.44772 -1,-1z"/><path d="M143,333c0,-0.55228 0.44772,-1 1,-1c0.55228,0 1,0.44772 1,1c0,0.55228 -0.44772,1 -1,1c-0.55228,0 -1,-0.44772 -1,-1z"/><path d="M181.4,333c0,-0.55228 0.44772,-1 1,-1c0.55228,0 1,0.44772 1,1c0,0.55228 -0.44772,1 -1,1c-0.55228,0 -1,-0.44772 -1,-1z"/><path d="M219.8,333c0,-0.55228 0.44772,-1 1,-1c0.55228,0 1,0.44772 1,1c0,0.55228 -0.44772,1 -1,1c-0.55228,0 -1,-0.44772 -1,-1z"/><path d="M258.2,333c0,-0.55228 0.44772,-1 1,-1c0.55228,0 1,0.44772 1,1c0,0.55228 -0.44772,1 -1,1c-0.55228,0 -1,-0.44772 -1,-1z"/><path d="M296.6,333c0,-0.55228 0.44772,-1 1,-1c0.55228,0 1,0.44772 1,1c0,0.55228 -0.44772,1 -1,1c-0.55228,0 -1,-0.44772 -1,-1z"/></g></g><g fill="#ffffff" fill-rule="nonzero" stroke-width="1" stroke-linecap="butt" stroke-linejoin="miter"><path d="M157.36328,300.19338c-0.1276,0.30534 -0.25976,0.59571 -0.39648,0.86914h3.13867v1.10742h-1.53906c0.21419,0.29622 0.40105,0.58919 0.56055,0.88086l-1.42773,0.3086c-0.23698,-0.50586 -0.45443,-0.90239 -0.65039,-1.18946h-0.75781c-0.40104,0.56055 -0.87044,1.0814 -1.4082,1.56446l-1.00586,-0.93555c0.93427,-0.7292 1.60291,-1.67709 2.00391,-2.84375zM162.9082,300.22268c-0.12305,0.31901 -0.24153,0.59831 -0.35547,0.83984h4.38867v1.10742h-2.54297c0.19597,0.22786 0.39779,0.48307 0.60742,0.76563l-1.41406,0.36328c-0.22331,-0.38737 -0.47265,-0.76435 -0.74609,-1.12891h-0.88086c-0.31901,0.51953 -0.6504,0.95249 -0.99219,1.29883h4.45703v5.53125h-1.51758v0.78516h3.32227v1.13476h-3.32227v2.4961h-1.52344v-2.4961h-3.56836c-0.30534,1.33527 -1.41735,2.2044 -3.33594,2.60547l-0.78711,-1.17578c1.39,-0.20964 2.24224,-0.68686 2.55664,-1.42969h-3.32226v-1.13476h3.45898v-0.78516h-1.62695v-5.53129h5.17578l-1.08789,-0.73828c0.7018,-0.66993 1.24869,-1.58598 1.64063,-2.74805zM172.33008,300.10354v1.73632h1.79102v1.23047h-1.79102v1.42969h2.20117v1.28513h-2.35156v3.03515c0,0.38737 -0.0944,0.66667 -0.28125,0.83985c-0.17317,0.15953 -0.45117,0.24023 -0.83398,0.24023c-0.24609,0 -0.63347,-0.0273 -1.16211,-0.082l-0.21875,-1.18945c0.39649,0.0638 0.70964,0.0957 0.9375,0.0957c0.14128,0 0.2233,-0.03512 0.24609,-0.10352c0.01824,-0.041 0.02734,-0.1048 0.02734,-0.1914v-2.64453h-2.96094v-1.28516h0.86914v-3.17969h1.25781v3.17969h0.9707v-4.39652zM150.47266,300.1075v4.46289h2.75391v1.40235h-2.75391v7.4375h-1.48437v-7.4375h-2.80273v-1.40235h2.80273v-4.46289zM200.88476,300.10754v1.72266h2.84375v1.2168h-2.84375v1.42773h3.39063v1.23047h-3.39062v1.33398h2.89844v3.76563c0,0.40104 -0.11979,0.68359 -0.36133,0.84765c-0.17773,0.12305 -0.45898,0.18555 -0.8418,0.18555c-0.39193,0 -0.76108,-0.0228 -1.10742,-0.0684l-0.22461,-1.29883c0.38737,0.07288 0.71224,0.10938 0.97656,0.10938c0.15039,0 0.22656,-0.08529 0.22656,-0.25391v-2.09765h-1.56641v5.18164h-1.41406v-5.18164h-1.45703v3.84765h-1.35937v-5.03711h2.81641v-1.33398h-3.52734v-1.23047h3.52734v-1.42773h-1.62109c-0.18229,0.40103 -0.39779,0.78841 -0.64844,1.1621l-1.17578,-0.74609c0.58789,-0.82033 0.98895,-1.78323 1.20313,-2.89062l1.35938,0.1914c-0.07291,0.29167 -0.16862,0.64714 -0.28711,1.06641h1.16992v-1.72266zM189.65039,300.1095v1.23046h5.35938v1.14844h-3.03516v1.13477h2.84375v1.10742h-2.84375v2.03711h-5.50391v-2.03711h-2.24219v1.27148c0,2.06447 -0.10937,3.696 -0.32812,4.89453c-0.16862,0.91147 -0.44206,1.74417 -0.82031,2.4961l-1.24414,-0.98438c0.34635,-0.75193 0.58333,-1.67119 0.71094,-2.75586c0.11392,-0.95246 0.17188,-2.16926 0.17188,-3.65039v-4.66211h5.40625v-1.23046zM208.71289,300.42785v11.47852c0,0.44661 -0.10938,0.77474 -0.32812,0.98437c-0.22331,0.2142 -0.62758,0.32227 -1.21094,0.32227c-0.60157,0 -1.21352,-0.0319 -1.83789,-0.0957l-0.29492,-1.42969c0.63346,0.09112 1.22594,0.13672 1.77734,0.13672c0.20963,0 0.34049,-0.0319 0.39063,-0.0957c0.041,-0.05014 0.06055,-0.15626 0.06055,-0.32032v-10.98047zM214.35742,300.5742l0.71094,0.60156c-0.31901,1.38087 -0.73501,2.65232 -1.25,3.81445c0.8568,1.1074 1.28516,2.28322 1.28516,3.52735c0,0.65169 -0.10351,1.12696 -0.30859,1.42773c-0.23698,0.3418 -0.69724,0.51367 -1.38086,0.51367c-0.39649,0 -0.77472,-0.0305 -1.13477,-0.0898l-0.2793,-1.4082l0.27929,0.03524c0.44662,0.0593 0.75651,0.0879 0.92969,0.0879c0.22787,0 0.36329,-0.05599 0.4043,-0.16992c0.041,-0.10482 0.06055,-0.28581 0.06055,-0.54101c0,-1.10287 -0.42061,-2.17383 -1.26367,-3.21289c0.42383,-0.9798 0.77148,-2.07939 1.04492,-3.30078h-1.5918v11.55273h-1.41601v-12.83789zM145.50195,300.61344v1.13477h-4.66211v-1.13477zM222.2461,300.61544v6.28907l0.97852,0.88867c-0.75653,0.84766 -1.48898,1.53257 -2.19531,2.05664c0.60612,0.8294 1.41278,1.50712 2.41992,2.03125l-0.86719,1.3457c-1.112,-0.64713 -1.99482,-1.47333 -2.64648,-2.48047c-0.69727,-1.07093 -1.19076,-2.33652 -1.48242,-3.79492h-1.39453v4.50586c0.916,-0.25065 1.81963,-0.55013 2.71289,-0.89648l0.16406,1.27929c-1.50393,0.6517 -3.12178,1.16795 -4.85352,1.55078l-0.51953,-1.3457c0.56966,-0.11849 0.93881,-0.19592 1.10742,-0.23242v-11.19727zM181.18164,300.66424v1.24414h-2.91797c-0.12305,0.42383 -0.26302,0.82489 -0.41797,1.20313h2.70703v7.4375h-5.71484v-2.0293l-0.93555,0.60156c-0.48307,-1.14846 -0.93293,-2.02346 -1.34766,-2.625l0.9375,-0.51953c0.47396,0.67907 0.92186,1.47337 1.3457,2.38477v-5.25h1.73047c0.05927,-0.20052 0.15497,-0.60158 0.28711,-1.20313h-2.48242v-1.24414zM205.99219,301.20135v8.69531h-1.40234v-8.69531zM217.0586,303.20526h3.78711v-1.40039h-3.78711zM184.22852,303.62323h2.24219v-1.13477h-2.24219zM187.92773,303.62323h2.58984v-1.13477h-2.58984zM146.27539,302.61525v1.23047h-6.27539v-1.23047zM176.1582,305.25783h3.04883v-1.0664h-3.04883zM217.05859,305.78908h3.78711v-1.46289h-3.78711zM157.27539,305.01368h6.65039v-0.62109h-6.65039zM145.50195,304.71485v1.13477h-4.66211v-1.13477zM187.92773,305.791h2.58984v-1.06055h-2.58984zM157.27539,306.52342h6.65039v-0.61524h-6.65039zM170.375,306.52928c-0.39193,1.45833 -0.9206,2.55533 -1.58594,3.28906l-0.96484,-0.86914c0.57421,-0.67447 1.04229,-1.60092 1.40234,-2.78125zM176.1582,307.31639h3.04883v-1.03321h-3.04883zM145.50195,306.71678v1.09375h-4.66211v-1.09375zM220.42774,308.80467c0.67907,-0.67447 1.2201,-1.29299 1.62109,-1.85352h-2.24219c0.16862,0.73827 0.375,1.35678 0.62109,1.85352zM157.27539,308.06248h6.65039v-0.64258h-6.65039zM192.95118,307.58787l0.71875,0.60156c-0.67907,1.0436 -1.64845,2.02667 -2.90625,2.94727c1.08007,0.43294 2.55208,0.75195 4.41602,0.95703l-0.79883,1.29102c-1.78646,-0.24154 -3.40885,-0.73371 -4.86719,-1.47657c-1.31706,0.6836 -2.98958,1.20313 -5.01758,1.5586l-0.71094,-1.25782c1.90493,-0.22786 3.3965,-0.57552 4.47656,-1.04492c-0.92513,-0.66993 -1.71483,-1.46618 -2.37109,-2.38672h-0.94336v-1.18945zM176.15821,309.45506h3.04883v-1.11328h-3.04883zM173.86134,309.37303c-1.06187,1.87759 -2.63413,3.19338 -4.7168,3.94531l-0.90234,-1.12109c2.2604,-0.7064 3.79622,-1.93688 4.60742,-3.69141zM145.81056,308.6992v4.00586h-3.84961v0.70508h-1.41406v-4.71094zM189.4922,310.48629c0.88867,-0.57422 1.57553,-1.14387 2.05859,-1.70899h-4.06836c0.55143,0.64714 1.22133,1.21679 2.00977,1.70899zM158.88869,309.78518h3.5v-0.78516h-3.5zM141.96096,311.54299h2.43359v-1.68164h-2.43359zM181.3594,312.53908l-1.09961,0.93555c-0.67447,-0.8112 -1.40817,-1.50979 -2.20117,-2.09766l1.02539,-0.78711c0.875,0.59245 1.63279,1.24287 2.27539,1.94922zM177.18948,311.31452c-0.83853,0.99807 -1.6875,1.74092 -2.54883,2.22852l-1.01953,-0.94922c0.91147,-0.49675 1.72266,-1.15624 2.43359,-1.97656z"/><path d="M146.04101,264.457c-0.00913,1.03907 -0.03517,1.94269 -0.07617,2.71289h5.03125c-0.02733,3.23113 -0.15949,5.70898 -0.39649,7.43164c-0.10481,0.78387 -0.31575,1.32162 -0.63476,1.61328c-0.33268,0.30079 -0.90561,0.45118 -1.7168,0.45118c-0.58789,0 -1.21227,-0.04884 -1.87305,-0.14454l-0.25195,-1.5371c0.7884,0.14123 1.43226,0.21093 1.93359,0.21093c0.34636,0 0.57292,-0.05143 0.67773,-0.15625c0.11849,-0.11393 0.2155,-0.4694 0.29297,-1.0664c0.22331,-1.76827 0.3418,-3.5684 0.35547,-5.40039h-3.48633c-0.17318,1.87759 -0.57096,3.38152 -1.19531,4.51171c-0.8112,1.46287 -2.03127,2.6569 -3.6582,3.58204l-1.03906,-1.2168c1.0208,-0.56055 1.89126,-1.26563 2.61133,-2.11328c0.54231,-0.63802 0.94337,-1.35937 1.20313,-2.16602c0.25065,-0.76106 0.42252,-1.62699 0.51367,-2.59765h-4.10156v-1.40235h4.16992c0.03647,-1.01173 0.05469,-1.91536 0.05469,-2.71289zM163.74415,265.32028c-0.73827,1.7682 -1.67254,3.52735 -2.80273,5.27735c1.33527,0.9844 2.58075,2.07036 3.73828,3.25976l-1.08008,1.23828c-0.71547,-0.78386 -1.82615,-1.79883 -3.33008,-3.04297l-0.25195,-0.20507c-1.709,2.06899 -3.72009,3.77215 -6.03516,5.10742l-0.99219,-1.36133c2.0508,-1.05273 3.97854,-2.63414 5.7832,-4.74414c-1.30793,-0.95707 -2.67056,-1.89587 -4.08789,-2.81641l0.85351,-1.24414c1.0482,0.64258 2.33662,1.5254 3.86328,2.64649l0.26563,0.19726c1.08466,-1.61326 1.94466,-3.28256 2.57813,-5.00976zM230.10353,265.32028c-0.73827,1.7682 -1.67254,3.52735 -2.80274,5.27735c1.33527,0.9844 2.58068,2.07036 3.73828,3.25976l-1.08008,1.23828c-0.71546,-0.78386 -1.82419,-1.79883 -3.32812,-3.04297l-0.25391,-0.20507c-1.709,2.06899 -3.72009,3.77215 -6.03516,5.10742l-0.99219,-1.36133c2.0508,-1.05273 3.97854,-2.63414 5.7832,-4.74414c-1.30793,-0.95707 -2.67056,-1.89587 -4.08789,-2.81641l0.85547,-1.24414c1.0482,0.64258 2.33466,1.5254 3.86133,2.64649l0.26758,0.19726c1.08466,-1.61326 1.94271,-3.28256 2.57617,-5.00976zM252.03907,266.30075l-0.47851,1.42969c-1.3444,-0.60157 -2.71617,-1.10609 -4.11524,-1.51172l0.44336,-1.35352c1.5768,0.39193 2.96093,0.87048 4.15039,1.43555zM190.34181,266.26559c1.34893,1.03454 2.02344,2.49874 2.02344,4.39454c0,3.17639 -1.6055,5.1907 -4.81836,6.04296l-0.80664,-1.37304c2.67513,-0.67447 4.01172,-2.20897 4.01172,-4.60156c0,-1.0436 -0.26888,-1.94136 -0.80664,-2.69336c-0.60157,-0.84767 -1.51761,-1.39128 -2.74805,-1.63282c-0.26888,2.1146 -0.63476,3.84638 -1.09961,5.19532c-0.31901,0.94333 -0.71553,1.83334 -1.18945,2.67187c-0.6836,1.194 -1.46156,1.79102 -2.33203,1.79102c-0.64713,0 -1.22265,-0.29167 -1.72852,-0.875c-0.32357,-0.36914 -0.58659,-0.82159 -0.78711,-1.35938c-0.26432,-0.69726 -0.39649,-1.44793 -0.39649,-2.25c0,-1.2988 0.35875,-2.49409 1.07422,-3.58789c0.7246,-1.11653 1.66473,-1.92773 2.82227,-2.43359c0.84307,-0.36914 1.76819,-0.55469 2.77539,-0.55469c1.57226,0 2.90753,0.42256 4.00586,1.26562zM176.62697,265.09957v1.40234h-9.01758v-1.40234zM275.99029,266.72652l-0.51953,1.48438c-1.44013,-0.64258 -2.93819,-1.15757 -4.49218,-1.54492l0.47851,-1.47071c1.80013,0.41016 3.31187,0.92061 4.5332,1.53125zM204.30279,265.50973l0.88086,0.74609c-0.25521,0.95247 -0.58789,1.74677 -0.99805,2.38476c-0.7702,1.20767 -1.92319,2.11004 -3.45899,2.70704l-0.86133,-1.17578c1.06187,-0.31901 1.94468,-0.88999 2.64648,-1.71485c0.41471,-0.48762 0.70312,-1.00261 0.86719,-1.54492h-9.78906v-1.40234zM217.08599,266.3398v1.47071h-9.40625v-1.47071zM183.69146,266.99623c-0.34635,0.22331 -0.69142,0.51954 -1.0332,0.88868c-0.94793,1.04819 -1.42187,2.26366 -1.42187,3.64453c0,1.00713 0.20052,1.79557 0.60156,2.36523c0.24609,0.35091 0.49088,0.52539 0.73242,0.52539c0.32813,0 0.69728,-0.36134 1.10742,-1.08594c1.0026,-1.76366 1.68164,-4.09246 2.03711,-6.98632c-0.80667,0.09114 -1.48117,0.30663 -2.02344,0.64843zM282.09381,267.58217c-0.36914,1.6862 -0.81578,3.02607 -1.33984,4.01953c-0.94794,1.80927 -2.39713,3.11849 -4.34766,3.92969c-1.23047,0.51041 -2.87568,0.87496 -4.93555,1.09375l-0.32031,-1.61328c2.25587,-0.19141 3.98311,-0.59373 5.18164,-1.20899c1.41273,-0.72919 2.49737,-1.84902 3.25391,-3.35742c0.49218,-0.97526 0.88996,-2.25132 1.19531,-3.82812zM257.78717,267.85952c-0.44206,1.96419 -1.05862,3.5306 -1.85156,4.69726c-0.92967,1.3626 -2.22723,2.36975 -3.89063,3.02148c-1.1712,0.45118 -2.73111,0.76693 -4.68164,0.94922l-0.4375,-1.53125c1.86393,-0.15495 3.3236,-0.4375 4.38086,-0.84765c1.56313,-0.59701 2.79228,-1.66343 3.68555,-3.19922c0.597,-1.0254 1.06773,-2.32101 1.41406,-3.88867zM267.9649,267.36928v8.99024h-8.73632v-1.29883h7.29492v-2.70703h-6.69336v-1.28516h6.69336v-2.40039h-6.97266v-1.29883zM250.69147,269.82241l-0.53321,1.4082c-1.12106,-0.49219 -2.49283,-0.99671 -4.11523,-1.51172l0.58789,-1.36719c1.39453,0.36914 2.74801,0.86005 4.06055,1.47071zM178.01373,268.4494c-0.20052,1.987 -0.61526,3.54104 -1.24414,4.66211c-0.47396,0.84306 -1.06637,1.51624 -1.77734,2.01758c-1.20313,0.8568 -2.95314,1.44467 -5.25,1.76367l-0.68945,-1.38867c2.028,-0.19597 3.57877,-0.66084 4.6543,-1.39453c1.39453,-0.94334 2.19532,-2.36195 2.40039,-4.25782h-9.47461v-1.40234zM199.53716,268.4631v1.17578c0,1.76367 -0.19596,3.12629 -0.58789,4.08789c-0.49675,1.22133 -1.46292,2.21481 -2.89844,2.98047l-1.12695,-1.18945c0.98893,-0.4694 1.71028,-1.02998 2.16602,-1.68164c0.35091,-0.50586 0.58203,-1.0404 0.69141,-1.60547c0.12761,-0.64713 0.19141,-1.51627 0.19141,-2.60547v-1.16211zM244.83794,269.74997v1.53906h-12.03711v-1.53906zM218.47466,274.16794v1.48242h-12.18164v-1.48242z"/><path d="M143.64355,229.9951c0.21419,-0.58333 0.39421,-1.21224 0.54004,-1.88672l1.75,0.28027c-0.18685,0.54687 -0.39876,1.08236 -0.63574,1.60645h5.01758v11.41601h-1.55176v-0.9707h-7.23926v0.9707h-1.52441v-11.41601zM141.52441,231.28025v1.77051h7.23926v-1.77051zM141.52441,234.26756v1.75h7.23926v-1.75zM141.52441,237.22068v1.9209h7.23926v-1.9209zM161.62207,231.00682l0.0684,-2.89844h1.37402l-0.0615,2.89844h2.59082c-0.0456,5.09505 -0.23701,8.18033 -0.57422,9.25586c-0.14583,0.46484 -0.41016,0.76106 -0.79297,0.88867c-0.19596,0.06836 -0.48763,0.10254 -0.875,0.10254c-0.50586,0 -0.98437,-0.0319 -1.43554,-0.0957l-0.26661,-1.44238c0.52409,0.10026 0.98666,0.15039 1.3877,0.15039c0.32357,0 0.53092,-0.08887 0.62207,-0.2666c0.08659,-0.17318 0.1709,-0.59245 0.25293,-1.25781c0.16406,-1.32162 0.26888,-3.20378 0.31445,-5.64649l0.007,-0.34179h-1.31934c-0.07747,2.02343 -0.31901,3.70052 -0.72461,5.03125c-0.49674,1.62239 -1.27376,2.96907 -2.33105,4.04003l-1.1211,-0.86816c0.22331,-0.20963 0.40333,-0.39648 0.54004,-0.56055c-2.27865,0.41471 -4.46159,0.72233 -6.54882,0.92286l-0.30762,-1.292c1.13477,-0.06836 2.21257,-0.15267 3.2334,-0.25293v-0.95019h-2.93946v-1.08008h2.93946v-0.7793h-2.61817v-4.49121h2.61817v-0.75879h-3.15137v-1.0664h3.15137v-0.6084c-0.68815,0.06836 -1.47201,0.1276 -2.35157,0.17773l-0.49218,-1.05273c2.1875,-0.09115 4.1403,-0.32813 5.8584,-0.71094l0.77929,0.99121c-0.74284,0.18685 -1.55859,0.33497 -2.44726,0.44434v0.75879h3.0625v0.75879zM161.56057,232.3535h-1.52442v-1.03907h-3.03515v0.75879h2.65918v4.49121h-2.65918v0.7793h2.83007v1.08008h-2.83007v0.81347l0.57422,-0.0547c0.76562,-0.07747 1.59277,-0.19141 2.48144,-0.3418c0.85677,-1.56315 1.35352,-3.66406 1.49023,-6.30273zM155.69533,232.99607h-1.4834v0.86817h1.4834zM156.95998,232.99607v0.86817h1.52441v-0.86817zM155.69533,234.70506h-1.4834v0.93652h1.4834zM156.95998,234.70506v0.93652h1.52441v-0.93652zM167.24807,231.17088h4.16992c0.03647,-1.01172 0.0547,-1.91634 0.0547,-2.71387h1.58593c-0.00913,1.03906 -0.0342,1.94368 -0.0752,2.71387h5.03125c-0.02733,3.23112 -0.1595,5.70801 -0.39649,7.43066c-0.10481,0.78385 -0.31673,1.32161 -0.63574,1.61328c-0.33268,0.30079 -0.90462,0.45118 -1.71582,0.45118c-0.58789,0 -1.21224,-0.04785 -1.87305,-0.14356l-0.25293,-1.53809c0.78841,0.14128 1.43327,0.21192 1.93458,0.21192c0.34635,0 0.57194,-0.05241 0.67675,-0.15723c0.11849,-0.11393 0.21648,-0.4694 0.29395,-1.0664c0.22331,-1.76823 0.3418,-3.56836 0.35547,-5.40039h-3.48633c-0.17318,1.8776 -0.57194,3.3815 -1.19629,4.51171c-0.8112,1.46289 -2.03028,2.65691 -3.65723,3.58204l-1.03906,-1.2168c1.02083,-0.56055 1.89128,-1.26465 2.61133,-2.11231c0.54232,-0.63802 0.94336,-1.36035 1.20312,-2.16699c0.25065,-0.76107 0.42155,-1.62695 0.5127,-2.59765h-4.10156zM182.54689,230.7949c1.04818,0.64258 2.33562,1.52442 3.86231,2.64551l0.2666,0.19824c1.08463,-1.61328 1.94368,-3.28353 2.57715,-5.01074l1.49707,0.69727c-0.73828,1.76823 -1.67252,3.52734 -2.80273,5.27734c1.33529,0.98437 2.5817,2.07129 3.73925,3.26074l-1.08007,1.23731c-0.7155,-0.78386 -1.8252,-1.79786 -3.32911,-3.042l-0.25293,-0.20507c-1.70898,2.06901 -3.72102,3.77115 -6.03613,5.10644l-0.99121,-1.36035c2.05078,-1.05273 3.97851,-2.63411 5.7832,-4.74414c-1.30794,-0.95703 -2.67057,-1.89584 -4.08789,-2.81641zM194.626,229.09959h9.0166v1.40137h-9.0166zM193.64846,232.4492h11.38183c-0.20052,1.98698 -0.61523,3.54102 -1.24414,4.66211c-0.47395,0.8431 -1.0664,1.5153 -1.77734,2.0166c-1.20313,0.85677 -2.95313,1.44466 -5.25,1.76367l-0.69043,-1.38769c2.02799,-0.19597 3.57975,-0.66081 4.65527,-1.39454c1.39453,-0.94335 2.19434,-2.36295 2.39942,-4.25878h-9.47461zM216.67873,234.62986h2.39258l0.64941,0.56055c-0.91145,1.81836 -2.03255,3.25619 -3.36328,4.31348c-1.10742,0.87955 -2.57259,1.56542 -4.39551,2.05761l-0.86816,-1.23047c1.92773,-0.44205 3.42252,-1.07779 4.48437,-1.90722c-0.41927,-0.38281 -0.91829,-0.78158 -1.49707,-1.19629c-0.47395,0.35547 -1.03678,0.68815 -1.68847,0.99805l-1.0459,-0.97754c0.92057,-0.38281 1.71354,-0.82943 2.37891,-1.33985c0.77929,-0.60612 1.47884,-1.37174 2.09863,-2.29687l1.34668,0.29394c-0.19141,0.29167 -0.35547,0.5332 -0.49219,0.72461zM215.70803,235.79197c-0.23243,0.24609 -0.46257,0.47168 -0.69043,0.67676c0.50586,0.30078 1.01628,0.66081 1.53125,1.08008c0.57877,-0.61979 1.01399,-1.20541 1.30566,-1.75684zM208.54397,235.66209l-0.082,0.21191c-0.44661,1.16211 -0.95703,2.167 -1.53125,3.01465l-0.79296,-1.4834c0.99805,-1.20312 1.75456,-2.63183 2.26953,-4.28613h-2.01661v-1.29883h2.15333v-1.75683c-0.47396,0.08659 -1.02084,0.16406 -1.64063,0.23242l-0.48535,-1.10742c1.8457,-0.23698 3.35188,-0.57878 4.51855,-1.02539l0.84082,1.10742c-0.66992,0.23242 -1.28515,0.4056 -1.8457,0.51953v2.03027h1.75v1.29883h-1.75v0.99805c0.69727,0.48307 1.33301,1.01855 1.90723,1.60644l-0.81348,1.26465c-0.40104,-0.56966 -0.76562,-1.03906 -1.09375,-1.4082v5.83105h-1.38769zM215.87893,229.07225h2.73437l0.62891,0.57421c-0.90235,1.44922 -1.9528,2.67058 -3.15137,3.66407c-1.03906,0.85677 -2.3789,1.58137 -4.01953,2.17382l-0.9502,-1.12109c1.43099,-0.4056 2.65235,-0.96387 3.66407,-1.6748c-0.42383,-0.40105 -0.86133,-0.76107 -1.3125,-1.08008c-0.28711,0.22787 -0.6403,0.47396 -1.05957,0.73828l-1.03907,-0.88184c1.53581,-0.83398 2.73438,-1.9733 3.59571,-3.41797l1.37402,0.31446c-0.19597,0.30989 -0.35091,0.54687 -0.46484,0.71094zM214.92873,230.2617c-0.19141,0.20963 -0.38965,0.41015 -0.59473,0.60156c0.57878,0.37825 1.0573,0.72461 1.43555,1.03906c0.61068,-0.5332 1.11882,-1.08007 1.52442,-1.64062zM229.52346,231.00682l0.0684,-2.89844h1.37402l-0.0615,2.89844h2.59082c-0.0456,5.09505 -0.23701,8.18033 -0.57422,9.25586c-0.14583,0.46484 -0.41016,0.76106 -0.79297,0.88867c-0.19597,0.06836 -0.48763,0.10254 -0.875,0.10254c-0.50586,0 -0.98438,-0.0319 -1.43555,-0.0957l-0.2666,-1.44238c0.52409,0.10026 0.98665,0.15039 1.3877,0.15039c0.32357,0 0.53092,-0.08887 0.62207,-0.2666c0.08659,-0.17318 0.1709,-0.59245 0.25293,-1.25781c0.16406,-1.32162 0.26888,-3.20378 0.31445,-5.64649l0.007,-0.34179h-1.31934c-0.07747,2.02343 -0.31901,3.70052 -0.72461,5.03125c-0.49675,1.62239 -1.27376,2.96907 -2.33105,4.04003l-1.1211,-0.86816c0.22331,-0.20963 0.40332,-0.39648 0.54004,-0.56055c-2.27865,0.41471 -4.46159,0.72233 -6.54883,0.92286l-0.30761,-1.292c1.13476,-0.06836 2.21256,-0.15267 3.23339,-0.25293v-0.95019h-2.93945v-1.08008h2.93945v-0.7793h-2.61816v-4.49121h2.61816v-0.75879h-3.15136v-1.0664h3.15136v-0.6084c-0.68815,0.06836 -1.472,0.1276 -2.35156,0.17773l-0.49219,-1.05273c2.1875,-0.09115 4.1403,-0.32813 5.8584,-0.71094l0.7793,0.99121c-0.74284,0.18685 -1.5586,0.33497 -2.44727,0.44434v0.75879h3.0625v0.75879zM229.46196,232.3535h-1.52441v-1.03907h-3.03516v0.75879h2.65918v4.49121h-2.65918v0.7793h2.83008v1.08008h-2.83008v0.81347l0.57422,-0.0547c0.76563,-0.07747 1.59278,-0.19141 2.48145,-0.3418c0.85677,-1.56315 1.35351,-3.66406 1.49023,-6.30273zM223.59673,232.99607h-1.4834v0.86817h1.4834zM224.86138,232.99607v0.86817h1.52441v-0.86817zM223.59673,234.70506h-1.4834v0.93652h1.4834zM224.86138,234.70506v0.93652h1.52441v-0.93652z"/><path d="M213.67599,188.29997v1.6484h4.5742v-1.6484h1.9102v1.6484h2.7188v1.4336h-2.7188v4.8711h3.5391v1.4961h-3.1055c0.9017,0.58184 1.9386,1.11553 3.2559,1.5469l0.13086,0.043l-1.1836,1.6289l-0.0723,-0.0312c-0.6168,-0.26223 -1.24342,-0.59286 -1.877,-0.9668v0.83398h-3.9531v0.94922h5.8594v1.5274h-13.387v-1.5274h5.6328v-0.94922h-3.7812v-0.75195c-0.6426,0.42531 -1.34491,0.82233 -2.1406,1.1738l-0.0762,0.0332l-1.0664,-1.5508l0.12305,-0.043c1.3313,-0.469 2.44676,-1.13655 3.4414,-1.916h-3.2031v-1.4961h3.4531v-4.8711h-2.6406v-1.4336h2.6406v-1.6484zM232.9413,188.3v2.8125h6.375v1.8008h-5.6816c1.6787,2.398 3.7134,4.3384 6.1328,5.791l0.0957,0.0566l-1.2344,1.6758l-0.0801,-0.0586c-2.4586,-1.7999 -4.324,-3.7494 -5.6543,-5.8359v4.375h3.2031v1.7383h-3.1719v3.0469h-1.957v-3.0469h-2.9922v-1.7383h3.0234v-4.2754c-1.2834,2.271 -3.0866,4.3209 -5.4726,6.1192l-0.0781,0.0586l-1.2617,-1.5684l0.0918,-0.0606c2.4505,-1.6235 4.4278,-3.7244 5.9648,-6.2773h-5.5644v-1.8008h6.2734v-2.8125zM264.91042,188.30005v1.7422h6.1172v3.8164h-1.6953v1.0391h-4.3906v2.1914h5.3516v1.6523h-5.3516v2.4942c0.853,0.13649 1.7766,0.21289 2.7832,0.21289h4.2168l-0.0723,0.14453c-0.25666,0.5133 -0.44703,1.05483 -0.57031,1.625l-0.0176,0.0781h-3.5723c-2.1226,0 -3.8042,-0.25267 -5.0469,-0.76562c-1.1617,-0.4789 -2.11752,-1.274 -2.8848,-2.3496c-0.6066,1.4057 -1.33261,2.60442 -2.207,3.5449l-0.0762,0.082l-1.3398,-1.6074l0.0586,-0.0644c1.4536,-1.5722 2.36231,-3.607 2.7246,-6.1172l0.0156,-0.0996l1.9766,0.30469l-0.0215,0.10156c-0.16291,0.8043 -0.32095,1.46811 -0.47461,2.0117c0.5923,1.0391 1.4587,1.80362 2.582,2.3281v-5.7676h-4.3359v-1.0391h-1.6953v-3.8164h5.9844v-1.7422zM253.16795,188.86237v3.9043c0,0.08091 0.0075,0.14415 0.0176,0.18555c0.0097,0.0397 0.02056,0.0537 0.0215,0.0547h0.002c0.03683,0.0277 0.13381,0.0586 0.28906,0.0586c0.22008,0 0.35055,-0.0441 0.37695,-0.0684l0.004,-0.002l0.002,-0.002c-0.0073,0.0057 0.0153,-0.022 0.0312,-0.082c0.0157,-0.05962 0.0309,-0.14912 0.041,-0.26172c0.0519,-0.59771 0.0809,-1.06099 0.0859,-1.3848l0.002,-0.13281l1.6602,0.52344l-0.002,0.0723c-0.00536,0.6021 -0.04399,1.17708 -0.11719,1.7227v0.002c-0.04112,0.33191 -0.15349,0.60624 -0.33984,0.8125c-0.18673,0.20669 -0.44545,0.3412 -0.76367,0.4043c-0.26804,0.0547 -0.65419,0.0801 -1.168,0.0801c-0.73232,0 -1.23237,-0.0836 -1.5195,-0.29297c-0.24773,-0.18127 -0.36133,-0.5057 -0.36133,-0.93946v-3.0332h-1.7539v0.0645c0,1.0645 -0.11372,1.9491 -0.34765,2.6562h-0.002v0.002c-0.2664,0.7779 -0.73411,1.43785 -1.3984,1.9746l-0.0703,0.0566l-1.2793,-1.2812l0.0976,-0.0684c0.63507,-0.4435 1.02525,-1.07638 1.1777,-1.9199c0.07152,-0.4033 0.10742,-0.90054 0.10742,-1.4902v-1.6152zM246.3868,188.8781v1.5117h-5.1602v-1.5117zM247.08986,191.1672v1.6055h-6.7617v-1.6055zM213.67616,192.12032h4.5742v-0.73828h-4.5742zM258.89516,193.21406h10.207v-1.5039h-10.207zM213.67616,194.17499h4.5742v-0.76953h-4.5742zM246.38736,193.56561v1.4961h-5.1602v-1.4961zM254.05332,195.41729l0.92578,0.83984l-0.0312,0.0684c-0.6929,1.4928 -1.53256,2.7423 -2.4961,3.7871c0.9711,0.6914 2.0862,1.29135 3.3711,1.7871l0.11133,0.043l-1.0371,1.7344l-0.082,-0.0391c-1.5663,-0.7344 -2.79432,-1.47321 -3.7207,-2.2227c-1.1517,0.959 -2.3094,1.723 -3.4746,2.2695l-0.0801,0.0371l-0.80079,-1.2285v0.40429h-4.0938v0.80469h-1.7539v-5.582h5.8476v3.9316c1.0658,-0.3799 2.108,-0.97875 3.127,-1.8047c-0.9193,-1.002 -1.6355,-2.0652 -2.1289,-3.1934h-0.83008v-1.6367zM213.67686,196.25313h4.5742v-0.76172h-4.5742zM246.38806,195.8547v1.4648h-5.1602v-1.4648zM249.59296,197.0538c0.4095,0.706 0.90659,1.37489 1.5449,1.9844h0.002l0.002,0.002c0.63333,-0.7323 1.0673,-1.39213 1.3301,-1.9863h-2.8789zM213.81416,197.74922c-0.4776,0.58323 -1.01872,1.09264 -1.5938,1.5586h2.7812v-1.3281h1.8945v1.3281h2.9824c-0.6641,-0.4944 -1.2604,-1.00958 -1.7363,-1.5586h-4.3281zM242.64606,201.37032h2.3242v-1.707h-2.3242z"/></g></g></g></svg>