<svg version="1.1" xmlns="http://www.w3.org/2000/svg" xmlns:xlink="http://www.w3.org/1999/xlink" width="93.96625" height="69.07724" viewBox="0,0,93.96625,69.07724"><g transform="translate(-212.56259,-399.37859)"><g data-paper-data="{&quot;isPaintingLayer&quot;:true}" fill="#ff0000" fill-rule="evenodd" stroke="none" stroke-width="0" stroke-linecap="round" stroke-linejoin="round" stroke-miterlimit="10" stroke-dasharray="" stroke-dashoffset="0" style="mix-blend-mode: normal"><path d="M276.02006,399.42856l0.17999,0.60998l1.60994,0.19999l3.53986,0.83997l0.97996,-0.35999l2.26991,0.94996l1.03996,1.17995l0.84997,-0.15999l2.33991,0.71997l1.32995,0.07l2.5299,2.10992l0.89996,-0.27999l1.91992,1.88992l-0.26999,0.52998l1.92992,2.10992l2.02992,0.59998l-0.23999,1.10996l0.90996,1.11996l-0.05,2.4199l0.39998,0.56998l1.63993,0.66997l0.49998,-0.66997l2.4199,-0.24999l0.23999,2.09992l-1.10996,1.09996l1.07996,2.11992l-0.70997,1.26995l0.91996,1.27995l-1.24995,1.63993l0.29999,0.82997l1.80993,0.71997l0.25999,0.51998l-1.07996,0.45998l-0.50998,1.03996l0.03,1.55994l0.55998,2.21991l0.23999,2.24991l-0.51998,2.5799l0.34999,1.31995l1.06996,1.61994l0.07,4.72981l-1.25995,0.92996l-2.04992,-2.30991l-0.53998,-1.86993l0.40998,-1.38994l-0.11,-1.17995l-1.37994,-0.64997l-1.29995,0.73997l-0.61998,1.48994l-1.07996,0.63997l-1.28995,-0.94996l-0.37998,1.44994l-0.48998,0.21999l-0.65997,1.64993l-2.19991,2.02992h-2.12991l-0.33999,-0.55998l-2.01992,-1.04996l-1.12995,0.14999l-0.78997,1.24995l-1.61994,0.35999l-0.78997,-0.50998l-0.41998,1.53994l-0.64997,0.89996l-2.84989,-1.97992l-0.86997,-1.22995l-1.57994,-0.95996l-0.98996,2.4599l0.91996,1.41994l-1.49994,1.48994l0.29999,0.61998l-1.04996,0.67997l0.54998,0.66997l-0.30999,1.68993l-2.5599,0.26999l-0.18999,0.85997l-2.5399,-0.02l-0.49998,-0.24999l-2.4599,-0.06l-2.13991,-0.92996l-1.79993,1.30995l-0.12,1.71993l-1.75993,-0.03l-0.57998,-1.20995l-0.95996,0.32999l-1.14995,1.14995l-1.05996,0.15999l-0.24999,2.89988l0.74997,1.18995l0.31999,2.07992l-0.17999,1.47994l-2.4099,0.83997l0.22999,0.83997l-1.42994,0.07l-1.21995,1.32995l-0.63997,-0.37998l-1.19995,0.39998l-1.29995,-0.83997l0.06,-1.21995l0.77997,-1.02996l-1.22995,-0.73997l-0.1,-1.94992l-1.30995,0.03l-1.31995,0.75997l-0.60998,-0.78997l-1.32995,0.12999l-1.04996,-0.42998l-0.75997,0.30999l1.20995,1.63993l-1.40994,1.69993l-3.82985,-1.73993l-1.64993,-1.81993l-0.82997,-0.39998l-0.69997,-3.73985l0.25999,-0.89996l-1.42994,-1.17995l-1.23995,-0.09l-1.10996,0.60998l-1.38994,0.27999l0.16999,3.15987l-0.87996,0.23999l-0.79997,1.54994l-0.78997,0.44998l-0.41998,1.29995l0.16999,1.00996l1.12995,1.76993l-2.03992,0.95996l-2.12991,1.40994l-0.14999,0.78997l-2.03992,-0.1l-0.86997,0.68997l-0.93996,0.08l-1.44994,-0.86997l-1.36995,0.73997l-1.19995,-1.21995h-1.48994l-1.94992,-0.38998l-0.65997,-1.02996l-1.59994,-0.52998l-0.15999,-0.71997l0.23999,-1.10996l-0.37998,-1.84993l0.77997,-1.06996l0.47998,-1.56994l-0.23999,-1.71993l1.93992,-1.86993l1.39994,-4.71981l-1.41994,-0.68997l-0.52998,-1.61994l1.14995,-2.15991l1.19995,-0.43998l0.36999,-0.96996l-0.01,-1.54994l1.06996,-0.1l0.24999,-1.14995l1.55994,-1.55994l-0.93996,-0.96996l-1.05996,-0.1l-2.01992,-0.81997l-0.26999,-0.65997l-1.11996,-0.20999l0.55998,-2.89988l0.96996,-0.61998l0.26999,-1.54994l0.87996,-1.04996l1.44994,-0.65997l-0.06,-0.93996l0.57998,-1.15995l1.30995,-0.93996l1.46994,0.42998l0.80997,-1.46994l-0.06,-0.74997l2.22991,-1.49994l0.44998,-2.10992l2.30991,-0.58998l0.99996,0.93996l0.95996,-0.19999l1.11996,-1.03996l1.75993,-0.48998l1.19995,-1.13995l0.97996,-0.19999l2.4999,-1.55994l0.23999,-1.24995l1.67993,0.35999l1.28995,-0.21999l1.38994,-1.52994l1.00996,-0.73997l2.93988,-1.07996l1.16995,-2.02992l1.53994,-0.72997l0.83997,0.39998l1.04996,-1.13995l2.19991,-0.03l0.42998,-0.41998l1.53994,0.17999l1.01996,-0.63997l1.49994,-1.63993l1.00996,-0.23999l2.14991,0.73997l0.89996,-0.05l0.25999,-2.94988l-0.58998,-0.92996l1.26995,-1.26995l0.38998,-0.91996l1.59994,-0.72997l1.31995,-0.16999l0.52998,-0.80997l1.12995,0.13999l1.69993,-0.88996l2.16991,0.69997l1.74993,-0.75997l2.74989,0.05"/></g></g></svg>