<svg version="1.1" xmlns="http://www.w3.org/2000/svg" xmlns:xlink="http://www.w3.org/1999/xlink" width="168.1" height="54.31" viewBox="0,0,168.1,54.31"><g transform="translate(-240,-180)"><g data-paper-data="{&quot;isPaintingLayer&quot;:true}" stroke="none" stroke-linecap="butt" stroke-linejoin="miter" stroke-miterlimit="10" stroke-dasharray="" stroke-dashoffset="0" style="mix-blend-mode: normal"><path d="M248,180h152.1c4.432,0 8,3.568 8,8v38.31c0,4.432 -3.568,8 -8,8h-152.1c-4.432,0 -8,-3.568 -8,-8v-38.31c0,-4.432 3.568,-8 8,-8z" fill-opacity="0.7" fill="#000000" fill-rule="evenodd" stroke-width="0"/><g fill="#ffffff" fill-rule="nonzero" stroke-width="1"><path d="M250.96,192.1l-0.11719,-0.51172c0.17709,0.02607 0.34115,0.0391 0.49219,0.0391c0.07552,0 0.11979,-0.01953 0.13281,-0.0586c0.0104,-0.02607 0.0156,-0.07034 0.0156,-0.13281v-0.91797h-2.0469v-0.63281h2.0469v-0.55078h-1.0234v-0.27344c-0.27604,0.16146 -0.57161,0.3112 -0.88672,0.44922l-0.51562,-0.5625c0.59635,-0.22917 1.09765,-0.50781 1.5039,-0.83594c0.3125,-0.25261 0.60156,-0.55729 0.86719,-0.91406h0.84766c0.29687,0.36719 0.67577,0.68229 1.1367,0.94531c0.34114,0.19531 0.80467,0.40234 1.3906,0.62109l-0.46484,0.63282c-0.38802,-0.15105 -0.72395,-0.30079 -1.0078,-0.44922v0.38672h-1.0234v0.55078h2.1602v0.63281h-2.1602v1.1992c0,0.18229 -0.04427,0.31641 -0.13282,0.40234c-0.09114,0.08855 -0.2565,0.13282 -0.49609,0.13282c-0.07552,0 -0.16406,-0.00133 -0.26562,-0.004v0.35547h2.6953v0.65625h-2.6953v0.625h3.2695v0.69531h-7.3594v-0.69531h3.2227v-0.625h-2.6641v-0.65625h2.6641v-0.50391zM250.9248,188.7484h2.0547c-0.42187,-0.25521 -0.79817,-0.5664 -1.1289,-0.93359c-0.25261,0.34895 -0.5612,0.66015 -0.92579,0.93359zM248.956,188.6703c-0.37239,-0.34114 -0.77603,-0.6315 -1.2109,-0.87109l0.5039,-0.5625c0.51823,0.26823 0.9375,0.54297 1.2578,0.82422zM247.2841,191.5883c0.52344,-0.36719 1.08334,-0.87629 1.6797,-1.5273l0.42968,0.61719c-0.39323,0.49479 -0.91536,1.01952 -1.5664,1.5742zM253.8896,192.18205c-0.40625,-0.53125 -0.80079,-0.94271 -1.1836,-1.2344l0.59375,-0.41406c0.45313,0.34895 0.85806,0.72785 1.2148,1.1367zM248.4013,190.02975c-0.36459,-0.32552 -0.76692,-0.60807 -1.207,-0.84766l0.5039,-0.58593c0.41927,0.20833 0.82421,0.47526 1.2148,0.80078zM249.13958,191.73285c0.39843,-0.26302 0.7604,-0.63932 1.0859,-1.1289l0.625,0.35547c-0.35417,0.5651 -0.7435,1.0013 -1.168,1.3086z"/><path d="M258.22,190.78c-0.26042,0.48698 -0.52735,0.85288 -0.80078,1.0977c-0.23437,0.21093 -0.44922,0.3164 -0.64453,0.3164c-0.25,0 -0.45182,-0.16927 -0.60547,-0.50781c-0.15885,-0.35417 -0.23828,-0.90887 -0.23828,-1.6641c0,-0.7604 0.08854,-1.58463 0.26562,-2.4727l0.85547,0.12891c-0.17187,0.8802 -0.25781,1.625 -0.25781,2.2344c0,0.82033 0.05859,1.2305 0.17578,1.2305c0.04427,0 0.11979,-0.0625 0.22656,-0.1875c0.16667,-0.1875 0.34245,-0.46354 0.52735,-0.82812zM257.62625,193.8386c0.79947,-0.22395 1.40233,-0.55859 1.8086,-1.0039c0.4974,-0.54427 0.7461,-1.36721 0.7461,-2.4688c0,-0.83593 -0.08073,-1.77473 -0.24219,-2.8164l0.89453,-0.0859c0.17187,1.05207 0.25781,2.03253 0.25781,2.9414c0,1.47393 -0.3789,2.53513 -1.1367,3.1836c-0.46093,0.39583 -1.08203,0.72396 -1.8633,0.98438z"/><path d="M262.6,188.73c2.16407,-0.34114 3.6159,-0.51171 4.3555,-0.51171c0.82033,0 1.45707,0.1888 1.9102,0.5664c0.53646,0.44792 0.80469,1.11589 0.80469,2.0039c0,0.69273 -0.22396,1.2969 -0.67188,1.8125c-0.68227,0.78647 -2.082,1.26693 -4.1992,1.4414l-0.29687,-0.86328c1.42967,-0.11458 2.444,-0.31901 3.043,-0.61328c0.32031,-0.15885 0.58333,-0.36719 0.78906,-0.625c0.27865,-0.34896 0.41797,-0.75259 0.41797,-1.2109c0,-0.5625 -0.13021,-0.97787 -0.39063,-1.2461c-0.13281,-0.13541 -0.27734,-0.23698 -0.43359,-0.30469c-0.21875,-0.09635 -0.53125,-0.14453 -0.9375,-0.14453c-0.66406,0 -2.06639,0.18359 -4.207,0.55078z"/><path d="M275.36,189.21c-0.84633,-0.4401 -1.85807,-0.78907 -3.0352,-1.0469l0.35156,-0.72266c1.17707,0.22135 2.2018,0.56119 3.0742,1.0195zM272.7272,192.9131c0.3125,0.48177 0.65757,0.72265 1.0352,0.72265c0.4401,0 0.66015,-0.2487 0.66015,-0.74609c0,-0.36979 -0.11328,-0.83073 -0.33984,-1.3828c-0.23437,-0.56771 -0.53515,-1.06901 -0.90234,-1.5039l0.70703,-0.36719c0.49739,0.58594 0.87889,1.22527 1.1445,1.918c0.19531,0.51042 0.29297,0.97135 0.29297,1.3828c0,0.45573 -0.11328,0.81899 -0.33985,1.0898c-0.27083,0.32031 -0.66537,0.48047 -1.1836,0.48047c-0.60937,0 -1.10157,-0.30729 -1.4766,-0.92188zM270.4381,193.32325c0.51823,-0.85413 0.88149,-1.88667 1.0898,-3.0976l0.8125,0.26562c-0.2526,1.3932 -0.63933,2.48567 -1.1602,3.2774zM277.0123,193.63575c-0.29167,-1.20313 -0.70443,-2.29687 -1.2383,-3.2812l0.72656,-0.32031c0.59375,0.9844 1.03385,2.07033 1.3203,3.2578zM276.62167,188.97955c-0.16667,-0.42708 -0.42578,-0.89191 -0.77734,-1.3945l0.59375,-0.21484c0.30729,0.42448 0.56901,0.88021 0.78516,1.3672zM277.60605,188.6358c-0.18229,-0.47135 -0.4388,-0.93879 -0.76953,-1.4023l0.57031,-0.19141c0.29948,0.36459 0.55469,0.80729 0.76562,1.3281z"/><path d="M279.17,187.53h0.92187v4.6562c0,0.9818 0.51563,1.4727 1.5469,1.4727c0.67967,0 1.23697,-0.3138 1.6719,-0.94141c0.28125,-0.40365 0.53386,-1.02865 0.75782,-1.875l0.79296,0.48047c-0.26562,0.94013 -0.58463,1.64327 -0.95703,2.1094c-0.58593,0.72653 -1.34767,1.0898 -2.2852,1.0898c-0.9792,0 -1.6693,-0.30208 -2.0703,-0.90625c-0.2526,-0.37761 -0.3789,-0.86457 -0.3789,-1.4609z"/><path d="M289.25,190.36v3.0938c0,0.20052 0.08594,0.32161 0.25781,0.36328c0.17708,0.04427 0.58201,0.0664 1.2148,0.0664c0.61719,0 1.02475,-0.03123 1.2227,-0.0937c0.11198,-0.03647 0.1849,-0.13803 0.21875,-0.30469c0.04427,-0.23437 0.0677,-0.51172 0.0703,-0.83203l0.81641,0.23047c-0.04167,0.7682 -0.14714,1.25907 -0.31641,1.4726c-0.11198,0.14063 -0.28125,0.22396 -0.50781,0.25c-0.35677,0.03907 -0.96224,0.0586 -1.8164,0.0586c-0.66146,0 -1.09506,-0.01823 -1.3008,-0.0547c-0.30989,-0.05207 -0.50651,-0.18879 -0.58984,-0.41016c-0.04167,-0.11719 -0.0625,-0.27344 -0.0625,-0.46875v-3.0976l-0.7461,0.25781l-0.18359,-0.75781l0.92969,-0.32031v-2.1055h0.79297v1.832l0.83984,-0.28516v-2.0586h0.78516v1.7852l1.3086,-0.44921l0.41016,0.25v2.9258c0,0.20312 -0.04818,0.35416 -0.14454,0.45312c-0.10937,0.10937 -0.29297,0.16406 -0.55078,0.16406c-0.21093,0 -0.43489,-0.01823 -0.67187,-0.0547l-0.12891,-0.7461c0.15365,0.03907 0.3099,0.0586 0.46875,0.0586c0.11459,0 0.1849,-0.02343 0.21094,-0.0703c0.02607,-0.03907 0.0391,-0.10417 0.0391,-0.19531v-1.8476l-0.9414,0.32812v3.1602h-0.78516v-2.8906zM286.3789,189.0827v-1.8867h0.83985v1.8867h0.75781v0.79297h-0.75781v2.4844c0.27343,-0.09375 0.54427,-0.1914 0.8125,-0.29297l0.0742,0.75391c-0.84373,0.38541 -1.7096,0.70833 -2.5976,0.96875l-0.27344,-0.83203c0.40104,-0.10417 0.75261,-0.20313 1.0547,-0.29688c0.03647,-0.013 0.0664,-0.0221 0.0898,-0.0273v-2.7578h-0.99219v-0.79297z"/><path d="M297.38,192.38c-0.55729,0.47135 -1.24869,0.85809 -2.0742,1.1602l-0.4961,-0.60157c0.67187,-0.21875 1.27213,-0.53255 1.8008,-0.9414l-0.13671,-0.0664c-0.50521,-0.24219 -1.05728,-0.48698 -1.6562,-0.73437l0.35937,-0.59375c0.67187,0.24479 1.30077,0.5013 1.8867,0.76953l0.15234,0.0703c0.65885,-0.69273 1.15495,-1.59637 1.4883,-2.7109l0.77735,0.24219c-0.38021,1.1354 -0.88671,2.0794 -1.5195,2.832c0.02607,0.013 0.0508,0.02603 0.0742,0.0391c0.36719,0.18229 0.84895,0.44922 1.4453,0.80078l-0.47266,0.65625c-0.5,-0.30469 -1.04297,-0.61198 -1.6289,-0.92187zM295.6417,190.6847c-0.1875,-0.61979 -0.40104,-1.14323 -0.64062,-1.5703l0.73437,-0.29296c0.25261,0.44791 0.47396,0.96745 0.66407,1.5586zM297.0167,190.3722c-0.19271,-0.60157 -0.40885,-1.1263 -0.64843,-1.5742l0.70312,-0.28125c0.29948,0.52083 0.52083,1.03517 0.66406,1.543zM300.6261,187.5714v7.2344h-0.87109v-0.41016h-5.1875v0.41016h-0.86329v-7.2344zM294.5675,188.29796v5.3438h5.1875v-5.3438z"/><path d="M302.04,188.3h2.1055c0.23177,-0.36979 0.40755,-0.66796 0.52734,-0.89453l0.8711,0.125c-0.07813,0.14063 -0.21615,0.36979 -0.41406,0.6875l-0.0508,0.082h2.7539v0.76954h-3.2734c-0.34115,0.46875 -0.66667,0.87501 -0.97656,1.2188c0.49219,-0.29427 0.94142,-0.44141 1.3477,-0.44141c0.63021,0 1.04297,0.31641 1.2383,0.94922c0.66667,-0.22135 1.34637,-0.4401 2.0391,-0.65625l0.33594,0.75781l-0.13672,0.0391l-0.38672,0.10157c-0.7292,0.19791 -1.31253,0.36718 -1.75,0.50781c0.03127,0.33854 0.0534,0.77604 0.0664,1.3125l-0.85547,0.0469c-0.00267,-0.30989 -0.00787,-0.64583 -0.0156,-1.0078v-0.0781c-1.19793,0.40885 -1.7969,0.82032 -1.7969,1.2344c0,0.21354 0.15365,0.35937 0.46094,0.4375c0.29687,0.07552 0.82814,0.11328 1.5938,0.11328c0.70573,0 1.4466,-0.04036 2.2226,-0.12109l0.0937,0.83203c-0.7526,0.05727 -1.53253,0.0859 -2.3398,0.0859c-0.9948,0 -1.70183,-0.07552 -2.1211,-0.22657c-0.51823,-0.1875 -0.77734,-0.52473 -0.77734,-1.0117c0,-0.41146 0.18359,-0.77473 0.55078,-1.0898c0.38021,-0.32552 1.04947,-0.66145 2.0078,-1.0078c-0.05207,-0.20052 -0.12108,-0.34115 -0.20703,-0.42188c-0.09635,-0.09114 -0.22396,-0.13671 -0.38281,-0.13671c-0.25781,0 -0.58203,0.09765 -0.97266,0.29296c-0.48177,0.23959 -0.9987,0.60025 -1.5508,1.082l-0.51953,-0.59375c0.80987,-0.7526 1.444,-1.4922 1.9024,-2.2188h-1.5898z"/><path d="M310.09,188.31h1.9531c0.05467,-0.45052 0.09633,-0.77344 0.125,-0.96875l0.86719,0.0898l-0.0117,0.0625l-0.0274,0.20313l-0.0351,0.26172l-0.0352,0.26172l-0.0117,0.0898h3.2305v0.76953h-3.3203c-0.0078,0.08854 -0.02473,0.27734 -0.0508,0.56641l-0.0195,0.25l-0.008,0.0781c0.3125,-0.05207 0.63151,-0.0781 0.95703,-0.0781c0.90107,0 1.6159,0.21094 2.1445,0.63281c0.13802,0.11198 0.26432,0.2526 0.3789,0.42187c0.22917,0.33855 0.34375,0.72788 0.34375,1.168c0,0.78387 -0.32292,1.38153 -0.96875,1.793c-0.42187,0.26823 -1.00651,0.47006 -1.7539,0.60547l-0.375,-0.6875c0.68487,-0.11198 1.2083,-0.29037 1.5703,-0.53516c0.43229,-0.29427 0.64844,-0.70053 0.64844,-1.2188c0,-0.33593 -0.09375,-0.6315 -0.28125,-0.88671c-0.10938,-0.15105 -0.25652,-0.27344 -0.44141,-0.36719c-0.64844,1.1302 -1.49871,2.04947 -2.5508,2.7578c-0.33854,0.22917 -0.62239,0.38151 -0.85156,0.45703c-0.22657,0.07292 -0.44792,0.10938 -0.66407,0.10938c-0.39843,0 -0.69791,-0.13281 -0.89843,-0.39844c-0.16667,-0.21875 -0.25,-0.51823 -0.25,-0.89844c0,-0.67447 0.25521,-1.26953 0.76562,-1.7852c0.37761,-0.38281 0.83204,-0.67709 1.3633,-0.88282l0.008,-0.10547c0.03127,-0.44791 0.0573,-0.77994 0.0781,-0.99609h-1.8789zM311.8478,190.9741c-0.36459,0.19531 -0.65625,0.4388 -0.875,0.73047c-0.27865,0.37239 -0.41797,0.74349 -0.41797,1.1133c0,0.41146 0.14844,0.61719 0.44531,0.61719c0.26041,0 0.58073,-0.14063 0.96094,-0.42188c-0.07813,-0.52343 -0.11719,-1.07813 -0.11719,-1.6641c0,-0.08073 0.00133,-0.20573 0.004,-0.375zM312.68764,190.67723c-0.00533,0.16927 -0.008,0.32291 -0.008,0.46093c0,0.44271 0.01953,0.85938 0.0586,1.25c0.63021,-0.58593 1.11197,-1.1849 1.4453,-1.7969c-0.16667,-0.0208 -0.33333,-0.0312 -0.5,-0.0312c-0.34635,0 -0.67838,0.03906 -0.99609,0.11719z"/><path d="M322.48,189.02c-0.987,-0.4375 -2.09897,-0.77343 -3.3359,-1.0078l0.32813,-0.69531c1.2708,0.23698 2.3932,0.54557 3.3672,0.92578zM318.023,191.8833c0.10677,-1.2448 0.26692,-2.32943 0.48047,-3.2539l0.83984,0.15625c-0.19792,0.82293 -0.32552,1.59377 -0.38281,2.3125c0.3776,-0.28906 0.8125,-0.51953 1.3047,-0.69141c0.47136,-0.16667 0.91146,-0.25 1.3203,-0.25c0.61198,0 1.11198,0.11849 1.5,0.35547c0.51823,0.32031 0.77734,0.83335 0.77734,1.5391c0,0.69273 -0.23568,1.2292 -0.70703,1.6094c-0.65885,0.52604 -1.80469,0.8164 -3.4375,0.87109l-0.3125,-0.80859c1.09113,-0.00267 1.92187,-0.10423 2.4922,-0.30469c0.69013,-0.23958 1.0352,-0.69661 1.0352,-1.3711c0,-0.42709 -0.15234,-0.7448 -0.45703,-0.95313c-0.24219,-0.16667 -0.55989,-0.25 -0.95312,-0.25c-0.5599,0 -1.16147,0.18359 -1.8047,0.55078c-0.39323,0.22396 -0.74479,0.4961 -1.0547,0.81641z"/><path d="M325.21,188.93h1.7266c0.07813,-0.40104 0.16537,-0.89974 0.26172,-1.4961l0.0195,-0.11328l0.85547,0.1289c-0.08854,0.55209 -0.17969,1.04559 -0.27344,1.4805h0.61719c0.6224,0 1.069,0.14063 1.3398,0.42188c0.24219,0.2526 0.36328,0.64583 0.36328,1.1797c0,0.89587 -0.09505,1.7357 -0.28516,2.5195c-0.10937,0.44271 -0.24219,0.76954 -0.39844,0.98047c-0.19791,0.26302 -0.47265,0.39453 -0.82422,0.39453c-0.41927,0 -0.8789,-0.13542 -1.3789,-0.40625l0.0976,-0.82421c0.49479,0.23697 0.87759,0.35546 1.1484,0.35546c0.14583,0 0.25651,-0.07682 0.33203,-0.23046c0.08333,-0.16927 0.16276,-0.41016 0.23828,-0.72266c0.14844,-0.63542 0.22266,-1.30599 0.22266,-2.0117c0,-0.36979 -0.07422,-0.60938 -0.22266,-0.71875c-0.1276,-0.09115 -0.35416,-0.13672 -0.67968,-0.13672h-0.7461c-0.41406,1.84373 -1.00779,3.41667 -1.7812,4.7188l-0.78515,-0.42969c0.79947,-1.34113 1.36977,-2.77083 1.7109,-4.2891h-1.5586zM331.6162,192.0667c-0.39323,-1.3672 -0.92056,-2.57033 -1.582,-3.6094l0.75,-0.38281c0.7448,1.19273 1.2995,2.40367 1.6641,3.6328z"/><path d="M333.65,187.53h0.92187v4.6562c0,0.9818 0.51563,1.4727 1.5469,1.4727c0.67967,0 1.23697,-0.3138 1.6719,-0.94141c0.28125,-0.40365 0.53386,-1.02865 0.75781,-1.875l0.79297,0.48047c-0.26562,0.94013 -0.58463,1.64327 -0.95703,2.1094c-0.58593,0.72653 -1.34767,1.0898 -2.2852,1.0898c-0.9792,0 -1.6693,-0.30208 -2.0703,-0.90625c-0.2526,-0.37761 -0.3789,-0.86457 -0.3789,-1.4609zM337.0016,189.7761c-0.16667,-0.42709 -0.43359,-0.90625 -0.80078,-1.4375l0.64062,-0.23438c0.32031,0.45052 0.58724,0.92059 0.80078,1.4102zM338.1461,189.35422c-0.1875,-0.48698 -0.45182,-0.97005 -0.79297,-1.4492l0.60938,-0.20703c0.30989,0.375 0.57422,0.83073 0.79297,1.3672z"/><path d="M341.92,187.77c0.08073,0.36719 0.20053,0.82162 0.35938,1.3633c0.625,-0.34115 1.3164,-0.52083 2.0742,-0.53906c0.06771,-0.38021 0.1237,-0.76955 0.16797,-1.168l0.86328,0.16797c-0.05727,0.41145 -0.11586,0.77472 -0.17578,1.0898c0.57291,0.13541 1.03125,0.36718 1.375,0.69531c0.54427,0.52344 0.8164,1.19924 0.8164,2.0274c0,1.0026 -0.32292,1.7526 -0.96875,2.25c-0.47917,0.36979 -1.0677,0.61067 -1.7656,0.72265l-0.41016,-0.72656c0.68747,-0.13021 1.22393,-0.35026 1.6094,-0.66016c0.42187,-0.33854 0.63281,-0.88411 0.63281,-1.6367c0,-0.54947 -0.16016,-1.00781 -0.48047,-1.375c-0.22917,-0.26302 -0.54687,-0.45573 -0.95312,-0.57812c-0.19531,0.81253 -0.39453,1.45187 -0.59766,1.918c-0.27604,0.63802 -0.64844,1.21095 -1.1172,1.7188c-0.63281,0.68487 -1.22135,1.0273 -1.7656,1.0273c-0.42709,0 -0.7474,-0.20833 -0.96094,-0.625c-0.15104,-0.29948 -0.22656,-0.66275 -0.22656,-1.0898c0,-1.04167 0.40103,-1.9466 1.2031,-2.7148c-0.14583,-0.45573 -0.29167,-0.98436 -0.4375,-1.5859zM341.8731,190.4262c-0.45833,0.57812 -0.6875,1.19139 -0.6875,1.8398c0,0.29427 0.04167,0.53255 0.125,0.71484c0.08073,0.17969 0.19922,0.26954 0.35547,0.26954c0.27083,0 0.63803,-0.25781 1.1016,-0.77344c-0.32291,-0.58594 -0.62109,-1.26954 -0.89453,-2.0508zM344.209,189.309c-0.61979,0.03387 -1.18489,0.21486 -1.6953,0.54297c0.2474,0.7344 0.51172,1.3685 0.79297,1.9023c0.40885,-0.65885 0.70964,-1.47395 0.90235,-2.4453z"/><path d="M353.11,193.16l0.0547,0.69921c-1.1302,0.39844 -2.3867,0.72657 -3.7695,0.98438l-0.28906,-0.78125c0.23958,-0.03647 0.57811,-0.09506 1.0156,-0.17578v-1.4297c-0.45052,0.22917 -0.98699,0.44661 -1.6094,0.65234l-0.44531,-0.69531c1.2526,-0.33854 2.20833,-0.77084 2.8672,-1.2969h-2.7891v-0.67969h3.3477v-0.58984h-2.5312v-0.65625h2.5312v-0.55079h-2.9297v-0.67187h2.9297v-0.76953h0.85547v0.76953h3.0156v0.67187h-3.0156v0.55079h2.6172v0.65625h-2.6172v0.58984h3.4336v0.67969h-0.93359l0.57812,0.39843c-0.35677,0.34636 -0.85677,0.72526 -1.5,1.1367l-0.0898,0.0586c0.48958,0.44791 1.15365,0.81771 1.9922,1.1094l-0.52734,0.79297c-0.90887,-0.38541 -1.63933,-0.86978 -2.1914,-1.4531zM351.9264,191.1288c-0.26041,0.30469 -0.57422,0.57812 -0.94141,0.82031v1.7539c0.64323,-0.14323 1.28907,-0.30989 1.9375,-0.5l0.17969,-0.0508c-0.53385,-0.59115 -0.92579,-1.26561 -1.1758,-2.0234zM353.3522,192.1952c0.46354,-0.33073 0.86981,-0.69009 1.2188,-1.0781h-1.8476c0.16667,0.39843 0.3763,0.7578 0.6289,1.0781z"/><path d="M360.44,190.53v3.4648c0,0.3151 -0.0638,0.52994 -0.19141,0.64453c-0.11979,0.10417 -0.35156,0.15625 -0.69531,0.15625c-0.39063,0 -0.76173,-0.02473 -1.1133,-0.0742l-0.16797,-0.82422c0.36459,0.05987 0.71355,0.0898 1.0469,0.0898c0.11197,0 0.18228,-0.01953 0.21093,-0.0586c0.0208,-0.03387 0.0312,-0.08986 0.0312,-0.16797v-3.2305h-3.3594v-0.77731h7.5273v0.77734zM357.1392,187.6355h5.6484v0.76953h-5.6484zM356.15482,193.6277c0.5625,-0.58854 1.01563,-1.37111 1.3594,-2.3477l0.80859,0.30469c-0.39843,1.1172 -0.89973,1.9948 -1.5039,2.6328zM362.85792,194.10426c-0.53907,-1.1406 -1.0078,-1.97523 -1.4062,-2.5039l0.73437,-0.4375c0.57292,0.737 1.06119,1.53907 1.4648,2.4062z"/><path d="M364.93,187.53h0.92187v4.6562c0,0.9818 0.51563,1.4727 1.5469,1.4727c0.67967,0 1.23697,-0.3138 1.6719,-0.94141c0.28125,-0.40365 0.53386,-1.02865 0.75781,-1.875l0.79297,0.48047c-0.26562,0.94013 -0.58463,1.64327 -0.95703,2.1094c-0.58593,0.72653 -1.34767,1.0898 -2.2852,1.0898c-0.9792,0 -1.6693,-0.30208 -2.0703,-0.90625c-0.2526,-0.37761 -0.3789,-0.86457 -0.3789,-1.4609z"/><path d="M371.38,188.15c2.39587,-0.03647 4.6602,-0.09767 6.793,-0.1836l0.0469,0.77735c-0.94013,0.04687 -1.6719,0.19009 -2.1953,0.42968c-0.5,0.22917 -0.90103,0.54688 -1.2031,0.95313c-0.34375,0.46094 -0.51562,0.97397 -0.51562,1.5391c0,0.5625 0.19531,0.98437 0.58593,1.2656c0.44792,0.32031 1.13542,0.54036 2.0625,0.66015l-0.18359,0.87891c-1.20833,-0.16146 -2.0586,-0.47396 -2.5508,-0.9375c-0.52865,-0.49479 -0.79297,-1.10939 -0.79297,-1.8438c0,-0.66667 0.23958,-1.28907 0.71875,-1.8672c0.34896,-0.42448 0.82683,-0.76561 1.4336,-1.0234c-1.07553,0.03647 -2.46227,0.09767 -4.1602,0.1836z"/><path d="M381.43,187.4h0.86328v1.1523h1.7852v0.79297h-1.7852v1.2812c0.53125,-0.10677 1.02995,-0.16016 1.4961,-0.16016c0.51041,0 0.94791,0.10156 1.3125,0.30469c0.34635,0.19271 0.60026,0.46094 0.76171,0.80469c0.11198,0.23698 0.16797,0.49219 0.16797,0.76562c0,0.75 -0.29687,1.29947 -0.89062,1.6484c-0.38542,0.22656 -0.94272,0.38281 -1.6719,0.46875l-0.32031,-0.75391c0.61979,-0.05727 1.09636,-0.17315 1.4297,-0.34765c0.38281,-0.20313 0.57422,-0.54426 0.57422,-1.0234c0,-0.41406 -0.14974,-0.72396 -0.44922,-0.92969c-0.22917,-0.15625 -0.54167,-0.23437 -0.9375,-0.23437c-0.42187,0 -0.91277,0.0638 -1.4727,0.1914v2.0625c0,0.28125 -0.07031,0.50912 -0.21094,0.6836c-0.18229,0.22917 -0.44921,0.34375 -0.80078,0.34375c-0.32031,0 -0.65365,-0.09115 -1,-0.27344c-0.17969,-0.09635 -0.34375,-0.22266 -0.49218,-0.37891c-0.28125,-0.29947 -0.42188,-0.6289 -0.42188,-0.98828c0,-0.34115 0.1263,-0.64453 0.37891,-0.91015c0.3776,-0.39583 0.9388,-0.7383 1.6836,-1.0274v-1.5273h-1.6719v-0.79297h1.6719zM381.43,191.6422c-0.33333,0.13803 -0.61068,0.30339 -0.83203,0.4961c-0.26042,0.22656 -0.39063,0.44661 -0.39063,0.66015c0,0.20313 0.09115,0.38412 0.27344,0.54297c0.1875,0.16667 0.39583,0.25 0.625,0.25c0.21615,0 0.32422,-0.13542 0.32422,-0.40625zM386.0238,190.193c-0.47656,-0.7344 -1.00783,-1.38803 -1.5938,-1.9609l0.60938,-0.48828c0.61197,0.55469 1.15104,1.19272 1.6172,1.9141z"/><path d="M387.64,188.28h2.3672c-0.08594,-0.24219 -0.17839,-0.52995 -0.27735,-0.86328l0.86328,-0.0469c0.10157,0.34635 0.20053,0.64974 0.29688,0.91015h2.7188v0.75391h-2.4492c0.14844,0.36979 0.31641,0.74609 0.50391,1.1289h2.4726v0.7539h-2.0781c0.27343,0.47657 0.54817,0.90363 0.82422,1.2812l-0.875,0.25391c-0.30209,-0.42969 -0.60547,-0.94142 -0.91016,-1.5352h-3.5938v-0.7539h3.2344c-0.15104,-0.32031 -0.30599,-0.69661 -0.46484,-1.1289h-2.6328zM392.847,194.4011c-0.5,0.03647 -0.96483,0.0547 -1.3945,0.0547c-1.1276,0 -1.944,-0.10547 -2.4492,-0.3164c-0.70053,-0.29427 -1.0508,-0.75911 -1.0508,-1.3945c0,-0.35677 0.09766,-0.64453 0.29297,-0.86328l0.69922,0.38281c-0.08073,0.16406 -0.1211,0.32682 -0.1211,0.48828c0,0.32813 0.22396,0.56511 0.67188,0.71094c0.39843,0.13021 1.0078,0.19531 1.8281,0.19531c0.41146,0 0.89583,-0.02213 1.4531,-0.0664z"/><path d="M397.02,194.67c-0.48177,-0.70313 -1.02604,-1.35417 -1.6328,-1.9531l0.63281,-0.55859c0.63021,0.59895 1.18491,1.23569 1.6641,1.9102z"/><path d="M251.41,203.73v1.8711h-0.86328v-1.832l-1.2734,0.0469c-0.47135,0.0182 -1.03385,0.03383 -1.6875,0.0469l-0.25391,-0.71875l0.79688,-0.004l0.34766,-0.004l1.1953,-0.008c-0.02867,-0.0208 -0.06773,-0.04813 -0.11719,-0.082c-0.40625,-0.29687 -0.80338,-0.55468 -1.1914,-0.77343l0.56641,-0.48828c0.18489,0.11458 0.3164,0.19921 0.39453,0.2539c0.19011,-0.14583 0.38933,-0.32422 0.59766,-0.53515h-2.4062v-3.3203h3.4258v0.5586h-1.1211v0.42578h1.1211v1.3594h-1.1211v0.45703h1.25v0.51954h-0.75391l0.39062,0.25781c-0.28645,0.23437 -0.58202,0.44531 -0.88671,0.63281c0.27604,0.20573 0.5039,0.38411 0.68359,0.53516c0.58073,-0.40885 1.14453,-0.84375 1.6914,-1.3047l0.62109,0.47266c-0.37239,0.29427 -0.87889,0.6289 -1.5195,1.0039h0.12109c0.47917,-0.0104 0.98567,-0.02863 1.5195,-0.0547l0.1836,-0.0117c-0.14063,-0.13542 -0.29818,-0.26954 -0.47266,-0.40235l0.60938,-0.375c0.50781,0.34896 0.99087,0.78386 1.4492,1.3047l-0.66406,0.45312c-0.16667,-0.19791 -0.29948,-0.34765 -0.39844,-0.44921c-0.03127,0.00267 -0.07163,0.00657 -0.12109,0.0117c-0.52344,0.05467 -1.16147,0.10285 -1.9141,0.14454zM249.1131,198.7417h-0.82812v0.42578h0.82812zM250.1873,199.64795h-1.9023v0.39843h1.9023zM249.1131,200.52685h-0.82812v0.45703h0.82812zM253.3943,200.3042c0.0182,0.013 0.03773,0.02603 0.0586,0.0391c0.35417,0.24479 0.8099,0.46615 1.3672,0.66406l-0.46485,0.67188c-0.52083,-0.21094 -1.01303,-0.4987 -1.4766,-0.86328c-0.37761,0.30729 -0.79427,0.57161 -1.25,0.79296l-0.51953,-0.60937c0.46093,-0.16406 0.8763,-0.39192 1.2461,-0.68359c-0.42969,-0.48177 -0.73568,-0.97917 -0.91797,-1.4922h-0.24218v-0.65625h2.8711l0.40234,0.32812c-0.28906,0.71093 -0.64713,1.3138 -1.0742,1.8086zM252.85134,199.84717c0.27083,-0.30209 0.48698,-0.64322 0.64843,-1.0234h-1.3281c0.17448,0.39843 0.40104,0.73957 0.67969,1.0234zM247.33184,204.90967c0.70053,-0.25 1.27867,-0.58853 1.7344,-1.0156l0.71484,0.44141c-0.60677,0.55729 -1.22263,0.97655 -1.8476,1.2578zM254.14044,205.4956c-0.55729,-0.42708 -1.18619,-0.83201 -1.8867,-1.2148l0.58203,-0.51172c0.7292,0.32552 1.37243,0.68229 1.9297,1.0703z"/><path d="M259.91,199.64h2.0469v3.1289h-2.793c0.34114,0.30989 0.65364,0.66666 0.9375,1.0703l-0.67188,0.53907c-0.35417,-0.53646 -0.67708,-0.94009 -0.96875,-1.2109l0.54688,-0.39844h-2.9219v-0.66406h4.9609v-0.61719h-4.6914v-0.61719h4.6914v-0.58203h-4.707v-0.28906c-0.21875,0.15365 -0.45053,0.30078 -0.69532,0.44141l-0.52734,-0.625c0.862,-0.44011 1.58987,-1.05601 2.1836,-1.8477l0.54688,0.32812h2.5586l0.44532,0.35938c-0.26563,0.33073 -0.55729,0.63932 -0.875,0.92578zM258.91391,199.64c0.28125,-0.23437 0.5039,-0.45833 0.66796,-0.67187h-2.0859c-0.22135,0.25 -0.45313,0.47396 -0.69532,0.67187zM255.23031,204.9447c0.31511,-0.51563 0.54688,-1.10546 0.69531,-1.7695l0.83985,0.25c-0.15885,0.82033 -0.40755,1.4974 -0.7461,2.0312zM257.38271,203.2455h0.85546v1.1055c0,0.16407 0.04427,0.26172 0.13282,0.29297c0.10417,0.03387 0.35417,0.0508 0.75,0.0508c0.47656,0 0.79036,-0.01433 0.9414,-0.043c0.10157,-0.0182 0.16667,-0.07549 0.19532,-0.17187c0.04167,-0.13021 0.0703,-0.36068 0.0859,-0.69141l0.83985,0.28125c-0.02607,0.60937 -0.12503,0.99611 -0.29688,1.1602c-0.11198,0.10417 -0.27474,0.16667 -0.48828,0.1875c-0.33333,0.03127 -0.78647,0.0469 -1.3594,0.0469c-0.69793,0 -1.14193,-0.03253 -1.332,-0.0976c-0.15104,-0.05207 -0.24739,-0.14452 -0.28906,-0.27735c-0.0234,-0.07552 -0.0351,-0.17448 -0.0351,-0.29687zM262.14831,205.2377c-0.32813,-0.7656 -0.66926,-1.3867 -1.0234,-1.8633l0.71875,-0.4375c0.44271,0.59375 0.79818,1.19531 1.0664,1.8047z"/><path d="M267.09,201.16v3.0938c0,0.20052 0.08594,0.32161 0.25781,0.36328c0.17709,0.04427 0.58202,0.0664 1.2148,0.0664c0.61719,0 1.02472,-0.03123 1.2226,-0.0937c0.11198,-0.03647 0.1849,-0.13803 0.21875,-0.30469c0.04427,-0.23437 0.0677,-0.51172 0.0703,-0.83203l0.81641,0.23047c-0.04167,0.7682 -0.14714,1.2591 -0.31641,1.4727c-0.11197,0.14062 -0.28124,0.22395 -0.50781,0.25c-0.35677,0.03907 -0.96223,0.0586 -1.8164,0.0586c-0.66146,0 -1.09506,-0.01823 -1.3008,-0.0547c-0.30989,-0.05207 -0.50651,-0.18878 -0.58984,-0.41015c-0.04167,-0.11719 -0.0625,-0.27344 -0.0625,-0.46875v-3.0977l-0.74609,0.25781l-0.1836,-0.75781l0.92969,-0.32031v-2.1055h0.79297v1.832l0.83984,-0.28516v-2.0586h0.78516v1.7852l1.3086,-0.44922l0.41016,0.25v2.9258c0,0.20313 -0.04818,0.35417 -0.14453,0.45312c-0.10937,0.10938 -0.29297,0.16407 -0.55078,0.16407c-0.21094,0 -0.4349,-0.01823 -0.67188,-0.0547l-0.1289,-0.7461c0.15364,0.03907 0.30989,0.0586 0.46875,0.0586c0.11458,0 0.18489,-0.02343 0.21093,-0.0703c0.02607,-0.03907 0.0391,-0.10417 0.0391,-0.19532v-1.8476l-0.94141,0.32812v3.1602h-0.78516v-2.8906zM264.2189,199.8827v-1.8867h0.83984v1.8867h0.75781v0.79297h-0.75781v2.4844c0.27344,-0.09375 0.54427,-0.1914 0.8125,-0.29297l0.0742,0.75391c-0.84373,0.38541 -1.70963,0.70833 -2.5977,0.96875l-0.27344,-0.83203c0.40105,-0.10417 0.75261,-0.20313 1.0547,-0.29688c0.03647,-0.013 0.06643,-0.0221 0.0899,-0.0273v-2.7578h-0.99219v-0.79297z"/><path d="M274.56,199.05v-0.33594h-2.4414v-0.55859h5.7656v0.55859h-2.4922v0.33594h3.2344v1.4023h-0.84766v-0.89844h-2.3867v1.5195h-0.83203v-1.5195h-2.3438v0.89844h-0.83984v-1.4023zM277.3256,204.593c0.39843,0.15104 0.89583,0.27083 1.4922,0.35937l-0.45704,0.66406c-0.83593,-0.14323 -1.52213,-0.38932 -2.0586,-0.73828c-0.53385,-0.34896 -0.94922,-0.78256 -1.2461,-1.3008h-0.86328v1.2031c0.57552,-0.08073 1.10939,-0.16667 1.6016,-0.25782l0.0547,0.58203c-0.91667,0.21875 -1.96483,0.40886 -3.1445,0.57032l-0.23046,-0.6875c0.40885,-0.04427 0.6888,-0.0755 0.83984,-0.0937l0.0469,-0.008v-1.3086h-0.85546c-0.03647,0.45833 -0.09636,0.82423 -0.17969,1.0977c-0.09896,0.32812 -0.25781,0.63411 -0.47656,0.91797l-0.69532,-0.57422c0.25521,-0.33073 0.41407,-0.71747 0.47657,-1.1602c0.03387,-0.23958 0.0508,-0.53776 0.0508,-0.89453v-1.6562h6.7422v0.51953h-5.9023v1.1992h6.2383v0.55078h-0.88672l0.4961,0.32813c-0.29427,0.24479 -0.64194,0.47395 -1.043,0.6875zM276.71622,204.29221c0.375,-0.25521 0.67318,-0.49349 0.89453,-0.71484h-1.707c0.22396,0.28646 0.49479,0.52474 0.8125,0.71484zM272.56002,199.84301h1.6641v0.4414h-1.6641zM272.56002,200.56176h1.6641v0.44921h-1.6641zM275.72802,199.84301h1.7148v0.4414h-1.7148zM275.72802,200.56176h1.7148v0.44921h-1.7148zM272.98582,202.15556h4.8633v0.51171h-4.8633z"/><path d="M281.03,203.9c0.013,0.013 0.02993,0.02993 0.0508,0.0508c0.22396,0.22917 0.47656,0.39583 0.75781,0.5c0.45313,0.16667 1.00783,0.25 1.6641,0.25h3.4219c-0.09896,0.1901 -0.1836,0.4375 -0.25391,0.74219h-3.1914c-0.8802,0 -1.54947,-0.11589 -2.0078,-0.34766c-0.27083,-0.13802 -0.52995,-0.34115 -0.77735,-0.60938c-0.36719,0.46094 -0.73829,0.84114 -1.1133,1.1406l-0.4375,-0.78906c0.39063,-0.2474 0.74479,-0.50912 1.0625,-0.78516v-2.0156h-1v-0.76954h1.8242zM283.573,202.6734c-0.47657,0.62761 -1.0534,1.14194 -1.7305,1.543l-0.53125,-0.59765c0.78387,-0.38542 1.46877,-0.92709 2.0547,-1.625h-1.6055v-1.9844h1.8125v-0.53515h-2.1172v-0.70313h2.1172v-0.76953h0.80078v0.76953h2.1875v0.70313h-2.1875v0.53515h1.8828v1.9844h-1.8828v0.15234c0.72653,0.31511 1.4635,0.71484 2.2109,1.1992l-0.50391,0.67187c-0.51823,-0.41145 -1.08723,-0.80339 -1.707,-1.1758v1.6328h-0.80078zM283.573,200.6187h-1.043v0.78125h1.043zM284.37378,200.6187v0.78125h1.1055v-0.78125zM280.51828,200.04838c-0.37239,-0.58333 -0.76433,-1.08203 -1.1758,-1.4961l0.64062,-0.49609c0.45573,0.42448 0.86067,0.90495 1.2148,1.4414z"/><path d="M288.77,198.82v-0.81641h0.81641v0.81641h1.2148v0.6875h-1.2148v0.67187h1.3828v0.69531h-0.46484c-0.08333,0.3099 -0.19531,0.63803 -0.33594,0.98438h0.7539v0.67969h-1.3359v0.72265h1.2852v0.69531h-1.2852v1.6484h-0.81641v-1.6484h-1.3789v-0.69531h1.3789v-0.72265h-1.4414v-0.67969h0.71875c-0.08333,-0.34635 -0.18489,-0.67448 -0.30468,-0.98438h-0.57422v-0.69531h1.6016v-0.67187h-1.2734v-0.6875zM289.74266,200.8747h-1.2422c0.08854,0.2474 0.18359,0.57553 0.28516,0.98438h0.64843c0.13542,-0.33333 0.23829,-0.66146 0.3086,-0.98438zM294.48096,198.2849v1.8281c0,0.22657 -0.04167,0.38672 -0.125,0.48047c-0.09896,0.11198 -0.30599,0.16797 -0.6211,0.16797c-0.30729,0 -0.61458,-0.01303 -0.92187,-0.0391l-0.13281,-0.70313c0.43229,0.04687 0.70703,0.0703 0.82422,0.0703c0.12239,0 0.18359,-0.05339 0.18359,-0.16016v-0.94141h-1.7109v2.2695h2.2148l0.46484,0.39843c-0.14063,0.82813 -0.39714,1.56773 -0.76953,2.2188l-0.043,0.0781c0.28646,0.33073 0.64453,0.63281 1.0742,0.90625l-0.4375,0.73047c-0.41146,-0.26563 -0.77866,-0.58334 -1.1016,-0.95313c-0.27865,0.35417 -0.59245,0.6875 -0.94141,1l-0.46094,-0.64062v0.60937h-0.79297v-7.3203zM291.97706,201.9607v2.9531c0.32031,-0.21875 0.62891,-0.52605 0.92578,-0.92188c-0.39843,-0.61458 -0.67838,-1.29165 -0.83984,-2.0312zM293.33646,203.3005c0.23177,-0.44791 0.38281,-0.89451 0.45312,-1.3398h-1.0078c0.12761,0.5 0.3125,0.9466 0.55469,1.3398z"/><path d="M300.89,199.86c0.35156,-0.29427 0.69269,-0.64194 1.0234,-1.043l0.64062,0.4961c-0.28125,0.3125 -0.62368,0.62109 -1.0273,0.92578c0.34375,0.17969 0.77215,0.36458 1.2852,0.55468l-0.42579,0.6875c-0.46875,-0.18229 -0.89581,-0.38671 -1.2812,-0.61328v0.40625h-0.72656v1.0508h2.2578v0.75391h-2.2578v1.3086c0,0.13803 0.02997,0.22006 0.0899,0.2461c0.08073,0.03387 0.24739,0.0508 0.5,0.0508c0.27604,0 0.46484,-0.01693 0.5664,-0.0508c0.10157,-0.03127 0.16667,-0.11851 0.19531,-0.26172c0.03647,-0.17709 0.056,-0.4323 0.0586,-0.76563l0.85547,0.25391c-0.02867,0.69273 -0.10419,1.12763 -0.22657,1.3047c-0.10677,0.15365 -0.27343,0.24609 -0.5,0.27734c-0.22917,0.03127 -0.60027,0.0469 -1.1133,0.0469c-0.48437,0 -0.79687,-0.02997 -0.9375,-0.0899c-0.22917,-0.09635 -0.34375,-0.3138 -0.34375,-0.65234v-1.668h-1.2305c-0.05987,0.67447 -0.28122,1.2018 -0.66406,1.582c-0.42187,0.42187 -1.04427,0.73958 -1.8672,0.95313l-0.5039,-0.7461c0.737,-0.15365 1.27997,-0.38021 1.6289,-0.67968c0.19011,-0.16667 0.32813,-0.36979 0.41407,-0.60938c0.04687,-0.125 0.08593,-0.29167 0.11718,-0.5h-2.0547v-0.75391h2.0938v-1.0508h-0.60938v-0.32422c-0.45833,0.28646 -0.92707,0.51693 -1.4062,0.69141l-0.39062,-0.65625c0.5651,-0.19271 1.09373,-0.4414 1.5859,-0.74609c-0.28385,-0.27083 -0.60416,-0.52604 -0.96093,-0.76563l0.5664,-0.55859c0.40365,0.28125 0.74738,0.5651 1.0312,0.85156c0.30729,-0.26302 0.56901,-0.53906 0.78516,-0.82812h-1.4102v-0.73438h2.6836c0.21354,0.35417 0.43229,0.65234 0.65625,0.89453c0.30469,-0.27083 0.6237,-0.60156 0.95703,-0.99219l0.63281,0.4961c-0.31511,0.34115 -0.67187,0.66667 -1.0703,0.97656c0.14323,0.11198 0.27083,0.20573 0.38281,0.28125zM299.5228,201.2741h-1.2031v1.0508h1.2031zM297.4252,200.55535h3.1836c-0.64844,-0.43489 -1.20834,-0.93619 -1.6797,-1.5039c-0.375,0.53385 -0.8763,1.03515 -1.5039,1.5039z"/><path d="M308.15,203.96l0.0547,0.69922c-1.1302,0.39843 -2.3867,0.72656 -3.7695,0.98437l-0.28906,-0.78125c0.23959,-0.03647 0.57812,-0.09506 1.0156,-0.17578v-1.4297c-0.45053,0.22917 -0.98699,0.44662 -1.6094,0.65235l-0.44531,-0.69532c1.2526,-0.33854 2.20833,-0.77084 2.8672,-1.2969h-2.7891v-0.67969h3.3477v-0.58984h-2.5313v-0.65625h2.5312v-0.55078h-2.9297v-0.67188h2.9297v-0.76953h0.85547v0.76953h3.0156v0.67188h-3.0156v0.55078h2.6172v0.65625h-2.6172v0.58984h3.4336v0.67969h-0.93359l0.57812,0.39844c-0.35677,0.34635 -0.85677,0.72525 -1.5,1.1367l-0.0898,0.0586c0.48958,0.44791 1.15365,0.81771 1.9922,1.1094l-0.52735,0.79297c-0.90887,-0.38541 -1.63933,-0.86978 -2.1914,-1.4531zM306.9664,201.9288c-0.26041,0.30469 -0.57421,0.57812 -0.9414,0.82031v1.7539c0.64323,-0.14323 1.28906,-0.3099 1.9375,-0.5l0.17968,-0.0508c-0.53385,-0.59114 -0.92579,-1.26561 -1.1758,-2.0234zM308.3922,202.9952c0.46355,-0.33073 0.86981,-0.69009 1.2188,-1.0781h-1.8476c0.16667,0.39843 0.3763,0.7578 0.6289,1.0781z"/><path d="M313.84,198.6v5.582h-1.6641v0.66407h-0.77734v-6.2461zM312.1759,199.32656v1.6484h0.89453v-1.6484zM312.1759,201.68596v1.7422h0.89453v-1.7422zM315.84,198.86176v-0.86328h0.83203v0.86328h1.7031v0.71094h-1.7031v0.89844h2.1445v0.71875h-1.1211v0.83984h0.9375v0.73437h-0.9375v2.1133c0,0.28645 -0.07812,0.48307 -0.23437,0.58984c-0.125,0.08333 -0.33724,0.125 -0.63672,0.125c-0.36198,0 -0.66927,-0.01693 -0.92188,-0.0508l-0.16015,-0.78125c0.30729,0.05207 0.59505,0.0781 0.86328,0.0781c0.12239,0 0.19922,-0.02603 0.23047,-0.0781c0.0234,-0.03647 0.0351,-0.09636 0.0351,-0.17969v-1.8164h-2.7656v-0.73437h2.7656v-0.83984h-2.8633v-0.71875h1.832v-0.89844h-1.5938v-0.71094zM315.32047,204.60786c-0.26302,-0.54167 -0.53515,-1.0039 -0.8164,-1.3867l0.71093,-0.39844c0.3099,0.375 0.59506,0.82293 0.85547,1.3438z"/><path d="M323.86,200.82h0.88672v2.1445c0.60937,0.26823 1.23307,0.62239 1.8711,1.0625l-0.44922,0.73047c-0.44791,-0.32813 -0.92188,-0.63281 -1.4219,-0.91406c-0.02867,0.46093 -0.17841,0.8151 -0.44922,1.0625c-0.30209,0.27343 -0.72525,0.41015 -1.2695,0.41015c-0.52605,0 -0.95965,-0.11979 -1.3008,-0.35937c-0.33333,-0.23698 -0.5,-0.56771 -0.5,-0.99219c0,-0.44531 0.20963,-0.80208 0.6289,-1.0703c0.32552,-0.20833 0.74219,-0.3125 1.25,-0.3125c0.23698,0 0.48828,0.02863 0.75391,0.0859zM323.86,203.4684c-0.3099,-0.10677 -0.60287,-0.16016 -0.87891,-0.16016c-0.27083,0 -0.48828,0.04818 -0.65234,0.14453c-0.21094,0.125 -0.31641,0.29167 -0.31641,0.5c0,0.25521 0.15104,0.4414 0.45313,0.55859c0.15104,0.05727 0.33203,0.0859 0.54297,0.0859c0.33854,0 0.58203,-0.14323 0.73046,-0.42969c0.08073,-0.15364 0.1211,-0.33333 0.1211,-0.53906zM319.6686,199.3239h1.4922c0.13281,-0.45052 0.23958,-0.84765 0.32031,-1.1914l0.85547,0.10547c-0.10417,0.38281 -0.21094,0.74478 -0.32031,1.0859h1.4258v0.78516h-1.6797c-0.46615,1.33593 -1.01301,2.46613 -1.6406,3.3906l-0.72657,-0.41407c0.59375,-0.8802 1.09505,-1.8724 1.5039,-2.9766h-1.2305zM326.192,201.2263c-0.57813,-0.64323 -1.24219,-1.22917 -1.9922,-1.7578l0.51563,-0.5625c0.7448,0.48177 1.4245,1.04297 2.0391,1.6836z"/><path d="M333.9,205.03c-0.7708,0.08073 -1.56767,0.12109 -2.3906,0.12109c-1.21353,0 -2.0638,-0.07682 -2.5508,-0.23047c-0.35417,-0.11197 -0.63411,-0.27864 -0.83984,-0.5c-0.23698,-0.25781 -0.35547,-0.57161 -0.35547,-0.9414c0,-0.61198 0.27474,-1.15365 0.82422,-1.625c0.21875,-0.1875 0.56771,-0.41146 1.0469,-0.67188c-0.35937,-0.80727 -0.68489,-1.72653 -0.97656,-2.7578l0.87109,-0.22656c0.26563,0.96093 0.54948,1.83333 0.85157,2.6172c1.0182,-0.46094 1.8893,-0.78907 2.6133,-0.98438l0.39453,0.76172c-0.93747,0.22917 -2.00517,0.6263 -3.2031,1.1914c-0.39323,0.1875 -0.66927,0.33854 -0.82812,0.45312c-0.46615,0.34115 -0.69922,0.72005 -0.69922,1.1367c0,0.36198 0.21615,0.61458 0.64844,0.75781c0.35937,0.11719 1.00261,0.17578 1.9297,0.17578c0.8568,0 1.71487,-0.04948 2.5742,-0.14843zM333.39609,199.7839c-0.16927,-0.42709 -0.42839,-0.89192 -0.77734,-1.3945l0.59375,-0.21484c0.30729,0.42448 0.5677,0.88021 0.78125,1.3672zM334.38047,199.44015c-0.1849,-0.47136 -0.44141,-0.93883 -0.76954,-1.4024l0.56641,-0.1914c0.29948,0.36458 0.55599,0.80728 0.76953,1.3281z"/><path d="M335.89,205.26c-0.09896,-0.8854 -0.14844,-1.7656 -0.14844,-2.6406c0,-1.5 0.11068,-2.92447 0.33203,-4.2734l0.85938,0.0899c-0.21094,1.16667 -0.31641,2.48307 -0.31641,3.9492c0,0.9844 0.05469,1.90497 0.16407,2.7617zM338.2338,199.0725h3.7539v0.83204h-3.7539zM342.2533,204.7795c-0.52083,0.08073 -1.13933,0.12109 -1.8555,0.12109c-1.79947,0 -2.6992,-0.52863 -2.6992,-1.5859c0,-0.41927 0.11198,-0.78513 0.33594,-1.0976l0.73828,0.32812c-0.14062,0.19792 -0.21093,0.42058 -0.21093,0.66797c0,0.30469 0.15234,0.51432 0.45703,0.62891c0.33854,0.13021 0.80077,0.19531 1.3867,0.19531c0.63281,0 1.21874,-0.04167 1.7578,-0.125z"/><path d="M345.1,205.47c-0.48177,-0.70313 -1.02604,-1.35417 -1.6328,-1.9531l0.63282,-0.55859c0.63021,0.59895 1.18491,1.23569 1.6641,1.9102z"/><path d="M347.97,201.14h7.5117v0.91015h-7.5117z"/><path d="M360.57,200.49c0.80987,0.28125 1.8424,0.50521 3.0976,0.67188l-0.39844,0.7539c-0.39062,-0.05207 -0.77472,-0.12108 -1.1523,-0.20703v3.8945h-0.86328v-1.6328h-3.1836c-0.17448,0.71353 -0.59115,1.28383 -1.25,1.7109l-0.64844,-0.58203c0.48437,-0.29427 0.80469,-0.62891 0.96094,-1.0039c0.12239,-0.28906 0.18359,-0.70963 0.18359,-1.2617v-1.0078c-0.39323,0.10677 -0.73959,0.1927 -1.0391,0.25781l-0.47266,-0.69531c1.0026,-0.14844 2.01823,-0.4336 3.0469,-0.85547c-0.67967,-0.35677 -1.24347,-0.76304 -1.6914,-1.2188h-1.0938v-0.67188h3.2031v-0.64062h0.85547v0.64062h3.2656v0.67188h-1.2383c-0.42709,0.41667 -0.95442,0.8086 -1.582,1.1758zM359.71453,200.9275c-0.57031,0.26042 -1.08205,0.46875 -1.5352,0.625v0.39453h3.0742v-0.46484c-0.5,-0.15104 -1.01303,-0.33594 -1.5391,-0.55469zM359.72623,200.13844c0.55208,-0.28907 0.99478,-0.56381 1.3281,-0.82422h-2.8047c0.41146,0.29167 0.90366,0.56641 1.4766,0.82422zM358.17933,202.59544v0.23828c0,0.15625 -0.0052,0.31641 -0.0156,0.48047h3.0898v-0.71875z"/><path d="M364.62,205.26c-0.09896,-0.8854 -0.14844,-1.7656 -0.14844,-2.6406c0,-1.5 0.11068,-2.92447 0.33203,-4.2734l0.85938,0.0899c-0.21094,1.16667 -0.31641,2.48307 -0.31641,3.9492c0,0.9844 0.05469,1.90497 0.16406,2.7617zM366.9638,199.0725h3.7539v0.83204h-3.7539zM370.9833,204.7795c-0.52083,0.08073 -1.13933,0.12109 -1.8555,0.12109c-1.79947,0 -2.6992,-0.52863 -2.6992,-1.5859c0,-0.41927 0.11198,-0.78513 0.33594,-1.0976l0.73828,0.32812c-0.14063,0.19792 -0.21094,0.42058 -0.21094,0.66797c0,0.30469 0.15234,0.51432 0.45703,0.62891c0.33855,0.13021 0.80078,0.19531 1.3867,0.19531c0.63281,0 1.21875,-0.04167 1.7578,-0.125z"/><path d="M375.2,199.91v-0.76563h-3.3516v-0.71875h7.5977v0.71875h-3.3984v0.76563h1.7109v3.9922h-4.2305v-3.9922zM375.2312,200.56625h-0.9414v0.96875h0.9414zM376.01636,200.56625v0.96875h0.98047v-0.96875zM375.2312,202.15215h-0.9414v1.0781h0.9414zM376.01636,202.15215v1.0781h0.98047v-1.0781zM372.92256,204.42555h5.4453v-4.5156h0.81641v5.6914h-0.81641v-0.4414h-5.4453v0.4414h-0.8086v-5.6914h0.8086z"/><path d="M385.34,203.83c0.00267,0.06247 0.004,0.13018 0.004,0.20313c0,0.50521 -0.07031,0.88671 -0.21094,1.1445c-0.13802,0.25781 -0.3737,0.38672 -0.70703,0.38672c-0.28646,0 -0.54948,-0.01563 -0.78907,-0.0469l-0.16796,-0.70312c0.28385,0.05207 0.52604,0.0781 0.72656,0.0781c0.14843,0 0.24609,-0.0599 0.29297,-0.17969c0.07031,-0.18229 0.10547,-0.45182 0.10547,-0.80859c0,-0.05207 -0.00267,-0.12238 -0.008,-0.21094l-0.0351,0.0312c-0.7448,0.67713 -1.59633,1.2006 -2.5546,1.5704l-0.44531,-0.60156c0.5625,-0.18229 1.10937,-0.42708 1.6406,-0.73437c0.51042,-0.29948 0.93489,-0.60677 1.2734,-0.92188c-0.03127,-0.08593 -0.0599,-0.16276 -0.0859,-0.23047c-0.66146,0.48959 -1.43879,0.88152 -2.332,1.1758l-0.41797,-0.59375c0.96093,-0.2526 1.79167,-0.60937 2.4922,-1.0703c-0.03907,-0.05987 -0.08073,-0.11716 -0.125,-0.17187c-0.5625,0.26302 -1.1328,0.46484 -1.7109,0.60547l-0.40625,-0.58594c0.79427,-0.15104 1.52733,-0.3776 2.1992,-0.67969h-1.8945v-1.4609l-0.0742,0.043c-0.07813,0.05207 -0.15755,0.10155 -0.23828,0.14844l-0.35156,-0.58594c0.7682,-0.41146 1.38407,-0.95053 1.8476,-1.6172l0.55469,0.35157h1.6367l0.36719,0.32031c-0.26302,0.35937 -0.51172,0.66146 -0.7461,0.90625h1.8906v1.8945h-1.8477c-0.20052,0.13021 -0.41276,0.2539 -0.63672,0.37109c0.17969,0.22917 0.33594,0.50261 0.46875,0.82032c0.51563,-0.28907 1.00783,-0.64323 1.4766,-1.0625l0.57031,0.52734c-0.46875,0.33333 -1.02475,0.66927 -1.668,1.0078c0.53906,0.54167 1.21746,0.96613 2.0352,1.2734l-0.44141,0.71875c-0.65625,-0.33854 -1.21875,-0.77604 -1.6875,-1.3125zM382.9572,200.8847h1.2656v-0.69922h-1.2656zM384.3322,199.5917l0.0195,-0.0195c0.22656,-0.25 0.38802,-0.45182 0.48437,-0.60547h-1.3594c-0.20833,0.20573 -0.44271,0.41406 -0.70313,0.625zM384.96501,200.8847h1.3125v-0.69922h-1.3125zM381.40251,199.89251v5.707h-0.78516v-3.9844c-0.16145,0.28645 -0.35676,0.59635 -0.58593,0.92968l-0.34375,-0.875c0.375,-0.5625 0.69401,-1.22917 0.95703,-2c0.15104,-0.4375 0.30989,-0.9948 0.47656,-1.6719l0.81641,0.18359c-0.16927,0.61198 -0.34766,1.18228 -0.53516,1.7109z"/><path d="M392.04,204.41c1.52867,-0.38541 2.293,-1.26171 2.293,-2.6289c0,-0.59636 -0.15365,-1.10939 -0.46094,-1.5391c-0.34375,-0.48437 -0.86718,-0.79557 -1.5703,-0.93359c-0.15365,1.20833 -0.36328,2.19793 -0.62891,2.9688c-0.18229,0.53906 -0.40885,1.04816 -0.67968,1.5273c-0.39063,0.68227 -0.83463,1.0234 -1.332,1.0234c-0.36979,0 -0.69922,-0.16667 -0.98829,-0.5c-0.18489,-0.21094 -0.33463,-0.47005 -0.44921,-0.77734c-0.15105,-0.39844 -0.22657,-0.82684 -0.22657,-1.2852c0,-0.7422 0.20443,-1.4258 0.61328,-2.0508c0.41407,-0.63802 0.95183,-1.10155 1.6133,-1.3906c0.48177,-0.21093 1.0104,-0.3164 1.5859,-0.3164c0.89847,0 1.6615,0.24088 2.2891,0.72265c0.7708,0.59115 1.1562,1.42838 1.1562,2.5117c0,1.81513 -0.91797,2.96617 -2.7539,3.4531zM391.45406,199.2772c-0.46093,0.05207 -0.84633,0.17576 -1.1562,0.37109c-0.19791,0.12761 -0.39453,0.29688 -0.58984,0.50782c-0.54167,0.59895 -0.8125,1.29295 -0.8125,2.082c0,0.57552 0.11458,1.02605 0.34375,1.3516c0.14063,0.20052 0.27995,0.30078 0.41797,0.30078c0.1875,0 0.39844,-0.20703 0.63281,-0.62109c0.57292,-1.0078 0.96095,-2.33853 1.1641,-3.9922z"/><path d="M249.27,214.08c-0.48437,0.32813 -0.95574,0.57682 -1.4141,0.74609l-0.53516,-0.60156c1.2474,-0.42187 2.15103,-1.00391 2.7109,-1.7461l0.79297,0.19531c-0.11198,0.14583 -0.22396,0.27604 -0.33594,0.39062h2.6953l0.4961,0.41797c-0.39583,0.47657 -0.95703,0.96483 -1.6836,1.4648c0.81773,0.27604 1.75263,0.48567 2.8047,0.6289l-0.44141,0.81641c-1.2396,-0.23698 -2.3008,-0.5612 -3.1836,-0.97266c-0.9896,0.48438 -2.13413,0.81901 -3.4336,1.0039l-0.39063,-0.74219c1.02867,-0.08073 2.0443,-0.3125 3.0469,-0.69531l-0.043,-0.0273c-0.41146,-0.27344 -0.77343,-0.56641 -1.0859,-0.87891zM249.91063,213.71281c0.34635,0.32031 0.78645,0.61719 1.3203,0.89063c0.55729,-0.32031 0.94923,-0.61719 1.1758,-0.89063zM251.39893,209.51751h3.2422v0.67969h-2.2656v1.75c0,0.25521 -0.06901,0.42968 -0.20703,0.52343c-0.11459,0.07813 -0.30599,0.11719 -0.57422,0.11719c-0.25261,0 -0.52604,-0.02083 -0.82031,-0.0625l-0.10157,-0.67969c0.28386,0.04687 0.52214,0.0703 0.71485,0.0703c0.07552,0 0.11979,-0.01693 0.13281,-0.0508c0.0104,-0.02347 0.0156,-0.06253 0.0156,-0.11719v-1.5508h-1.0078c0,0.56771 -0.0638,1.01301 -0.1914,1.3359c-0.22396,0.57031 -0.65103,0.97788 -1.2812,1.2227l-0.58985,-0.54297c0.48698,-0.1901 0.81641,-0.43489 0.98828,-0.73437c0.09896,-0.17188 0.16797,-0.37761 0.20704,-0.61719c0.02347,-0.14063 0.0404,-0.36198 0.0508,-0.66406h-2.3672v-0.67969h3.1992v-0.71875h0.85547zM254.03953,212.42371c-0.38541,-0.58073 -0.83071,-1.12239 -1.3359,-1.625l0.64063,-0.43359c0.49479,0.42708 0.94533,0.93748 1.3516,1.5312zM247.16843,211.86121c0.53385,-0.40885 0.92839,-0.88282 1.1836,-1.4219l0.72656,0.26954c-0.36197,0.7474 -0.82551,1.32683 -1.3906,1.7383z"/><path d="M259.85,211.06c-0.02607,0.47657 -0.09377,0.85287 -0.20312,1.1289c-0.11719,0.29167 -0.32552,0.54948 -0.625,0.77344l-0.39844,-0.41016v0.76172h-0.71875v-2.3359l-0.375,-0.41015v0.44531h-0.625v1.2656c0.16667,-0.06513 0.38021,-0.15107 0.64062,-0.25781l0.0781,0.74219c-0.19792,0.09375 -0.4375,0.20182 -0.71875,0.32422v2.6094c0,0.23438 -0.04167,0.40235 -0.125,0.50391c-0.09896,0.11719 -0.29037,0.17578 -0.57422,0.17578c-0.28125,0 -0.53906,-0.02603 -0.77344,-0.0781l-0.15234,-0.77735l0.14062,0.0195c0.23959,0.03127 0.41146,0.0469 0.51563,0.0469c0.08594,0 0.13672,-0.02083 0.15234,-0.0625c0.0104,-0.02607 0.0156,-0.06643 0.0156,-0.1211v-1.9961c-0.29427,0.10677 -0.55339,0.19662 -0.77735,0.26953l-0.23828,-0.79297c0.37761,-0.10937 0.71614,-0.21484 1.0156,-0.3164v-1.5547h-0.90235v-0.77734h0.90235v-1.4414h0.80078v1.4414h0.625v0.22265c0.5625,-0.38541 1.02343,-0.93488 1.3828,-1.6484l0.50781,0.3125h1.6524l0.41015,0.32813c-0.2526,0.38021 -0.49479,0.70573 -0.72656,0.97656h1.4844v2.8867h-0.74213v-0.65234h-0.73828c-0.34115,0 -0.51172,-0.17057 -0.51172,-0.51172v-1.0898zM259.20156,211.06h-0.57812v1.3789c0.25261,-0.1875 0.41797,-0.4375 0.49609,-0.75c0.04687,-0.18229 0.0742,-0.39193 0.082,-0.62891zM259.9711,210.42719c0.22656,-0.27865 0.38802,-0.5026 0.48437,-0.67187h-1.2852c-0.14583,0.21354 -0.33203,0.4375 -0.55859,0.67187zM260.88906,211.06v0.89454c0,0.06507 0.03123,0.0976 0.0937,0.0976h0.51568v-0.99219zM259.45156,214.3139h-2.1719v-0.67969h2.3438v-0.70312h0.78516v0.70312h2.3906v0.67969h-2.1836c0.40365,0.59635 1.16145,1.02865 2.2734,1.2969l-0.4414,0.71875c-1.16147,-0.28386 -1.95183,-0.82943 -2.3711,-1.6367c-0.23437,0.53385 -0.62501,0.95182 -1.1719,1.2539c-0.34896,0.19271 -0.79689,0.35027 -1.3438,0.47266l-0.39453,-0.67188c0.57552,-0.10937 1.02995,-0.25781 1.3633,-0.44531c0.39844,-0.22396 0.70573,-0.55339 0.92187,-0.98828z"/><path d="M263.37,210.53h1.7266c0.07813,-0.40104 0.16537,-0.89974 0.26172,-1.4961l0.0195,-0.11328l0.85547,0.1289c-0.08854,0.55209 -0.17969,1.04559 -0.27344,1.4805h0.47266c0.625,0 1.07293,0.14063 1.3438,0.42188c0.24219,0.2526 0.36328,0.64583 0.36328,1.1797c0,0.89847 -0.09505,1.7383 -0.28516,2.5195c-0.10937,0.44271 -0.24219,0.76953 -0.39844,0.98046c-0.19791,0.26303 -0.47265,0.39454 -0.82421,0.39454c-0.42188,0 -0.88281,-0.13542 -1.3828,-0.40625l0.0977,-0.82422c0.49479,0.23698 0.87889,0.35547 1.1523,0.35547c0.14323,0 0.25391,-0.07682 0.33203,-0.23047c0.08333,-0.16667 0.16276,-0.40755 0.23829,-0.72266c0.14843,-0.63802 0.22265,-1.30859 0.22265,-2.0117c0,-0.36979 -0.07422,-0.60938 -0.22265,-0.71875c-0.12761,-0.09115 -0.35547,-0.13672 -0.6836,-0.13672h-0.60156c-0.41406,1.84373 -1.00779,3.41667 -1.7812,4.7188l-0.78516,-0.42968c0.79947,-1.34113 1.36977,-2.77083 1.7109,-4.2891h-1.5586zM269.8583,214.3855c-0.29427,-1.08333 -0.75911,-2.14713 -1.3945,-3.1914l0.76172,-0.34375c0.65625,1.04687 1.14711,2.10027 1.4726,3.1602zM269.28017,210.6433c-0.16145,-0.42187 -0.42187,-0.89061 -0.78125,-1.4062l0.60547,-0.22656c0.31511,0.44531 0.57943,0.90755 0.79297,1.3867zM270.33097,210.30737c-0.20312,-0.50261 -0.46223,-0.97527 -0.77734,-1.418l0.57422,-0.19141c0.29948,0.35677 0.5612,0.80207 0.78516,1.3359z"/><path d="M273.3,212.2v4.1992h-0.86328v-3.293c-0.27343,0.25781 -0.55859,0.50261 -0.85547,0.73438l-0.45703,-0.75391c0.90107,-0.625 1.72267,-1.4974 2.4648,-2.6172l0.67187,0.44141c-0.29427,0.46094 -0.61458,0.89064 -0.96094,1.2891zM277.468,212.157v3.457c0,0.27864 -0.07943,0.47395 -0.23828,0.58593c-0.13021,0.08855 -0.34245,0.13282 -0.63672,0.13282c-0.48177,0 -0.9453,-0.01563 -1.3906,-0.0469l-0.15235,-0.83984c0.46094,0.04427 0.86851,0.0664 1.2227,0.0664c0.14844,0 0.23828,-0.02863 0.26953,-0.0859c0.02607,-0.04427 0.0391,-0.10677 0.0391,-0.1875v-3.082h-2.4336v-0.80078h4.6875v0.80078zM271.1789,210.6765c0.82033,-0.45833 1.51693,-1.07423 2.0898,-1.8477l0.6875,0.45703c-0.70833,0.8932 -1.47917,1.5885 -2.3125,2.0859zM274.675,209.2312h3.625v0.78516h-3.625z"/><path d="M280.91,208.98h0.86328v2.0078c0.79947,-0.70313 1.61197,-1.0547 2.4375,-1.0547c0.66927,0 1.23047,0.22786 1.6836,0.68359c0.16667,0.16667 0.3099,0.3737 0.42969,0.62109c0.20313,0.42448 0.30469,0.87631 0.30469,1.3555c0,1.16147 -0.34637,1.9883 -1.0391,2.4805c-0.46354,0.32813 -1.12501,0.5638 -1.9844,0.70703l-0.41797,-0.79297c0.79687,-0.11198 1.3815,-0.28776 1.7539,-0.52734c0.30469,-0.19792 0.52083,-0.46224 0.64843,-0.79297c0.10677,-0.28646 0.16016,-0.64453 0.16016,-1.0742c0,-0.52343 -0.14323,-0.97657 -0.42969,-1.3594c-0.2526,-0.33333 -0.6263,-0.5 -1.1211,-0.5c-0.4974,0 -0.95053,0.13932 -1.3594,0.41797c-0.31771,0.21614 -0.67317,0.52994 -1.0664,0.9414v4.0547h-0.86328v-3.0156c-0.32813,0.42969 -0.74739,0.99999 -1.2578,1.7109l-0.41406,-0.9414c0.63802,-0.71353 1.19532,-1.42057 1.6719,-2.1211v-0.66406h-1.4492v-0.78516h1.4492z"/><path d="M288.83,208.98h0.86328v2.207c0.61979,-0.64323 1.11589,-1.08463 1.4883,-1.3242c0.34635,-0.22395 0.70572,-0.33593 1.0781,-0.33593c0.375,0 0.67708,0.10547 0.90625,0.3164c0.30208,0.28125 0.45312,0.64975 0.45312,1.1055c0,0.11979 -0.01563,0.27865 -0.0469,0.47656c-0.22917,1.45573 -0.34375,2.46353 -0.34375,3.0234c0,0.23959 0.0612,0.35938 0.18359,0.35938c0.07813,0 0.18099,-0.04427 0.3086,-0.13282c0.26823,-0.18489 0.53906,-0.48828 0.8125,-0.91015l0.32031,0.89453c-0.16667,0.26563 -0.3737,0.5013 -0.6211,0.70703c-0.28645,0.23958 -0.59244,0.35937 -0.91796,0.35937c-0.3099,0 -0.55079,-0.10807 -0.72266,-0.32421c-0.14583,-0.1849 -0.21875,-0.4935 -0.21875,-0.92579c0,-0.32812 0.04297,-0.82162 0.12891,-1.4805c0.10937,-0.82813 0.18229,-1.44273 0.21875,-1.8438c0.00533,-0.06513 0.008,-0.11982 0.008,-0.16407c0,-0.22917 -0.04818,-0.40495 -0.14453,-0.52734c-0.09115,-0.11719 -0.21745,-0.17578 -0.37891,-0.17578c-0.54427,0 -1.38151,0.72527 -2.5117,2.1758v3.6875h-0.86328v-2.7031c-0.43489,0.60938 -0.83593,1.18491 -1.2031,1.7266l-0.40625,-0.92578c0.61719,-0.7474 1.15365,-1.45963 1.6094,-2.1367v-0.99219h-1.3711v-0.78516h1.3711z"/><path d="M295.46,209.75c2.39587,-0.03647 4.6602,-0.09767 6.793,-0.1836l0.0469,0.77735c-0.94013,0.04687 -1.6719,0.1901 -2.1953,0.42969c-0.5,0.22917 -0.90103,0.54687 -1.2031,0.95312c-0.34375,0.46094 -0.51563,0.97397 -0.51563,1.5391c0,0.5625 0.19531,0.98437 0.58594,1.2656c0.44791,0.32031 1.13541,0.54036 2.0625,0.66015l-0.18359,0.87891c-1.20833,-0.16146 -2.0586,-0.47396 -2.5508,-0.9375c-0.52864,-0.49479 -0.79296,-1.10939 -0.79296,-1.8438c0,-0.66667 0.23958,-1.28907 0.71875,-1.8672c0.34895,-0.42448 0.82682,-0.76561 1.4336,-1.0234c-1.07553,0.03647 -2.46227,0.09766 -4.1602,0.18359z"/><path d="M308.43,215.59h-2.5312v0.32031h-0.80078v-2.1719h3.5586v1.8203c0.17708,0.0208 0.36328,0.0312 0.55859,0.0312c0.13021,0 0.20964,-0.02213 0.23828,-0.0664c0.02347,-0.03387 0.0352,-0.08986 0.0352,-0.16797v-2.0156h-5.1367v3.0586h-0.86328v-3.6914h6.8633v2.9141c0,0.25 -0.06901,0.43229 -0.20703,0.54687c-0.12761,0.10677 -0.33334,0.16016 -0.61719,0.16016c-0.21354,0 -0.52474,-0.01693 -0.93359,-0.0508zM307.85578,214.3634h-1.957v0.60156h1.957zM307.32062,209.4298h3.2344v0.65625h-7.2656v-0.65625h3.1758v-0.63281h0.85547zM309.41832,210.5001v1.7852h-4.9922v-1.7852zM305.28162,211.10948v0.56641h3.2734v-0.56641z"/><path d="M315.76,210.53h2.0742v4.2812h-1.6562c0.97653,0.27083 1.832,0.57813 2.5664,0.92188l-0.65625,0.70312c-0.7526,-0.41145 -1.61327,-0.77732 -2.582,-1.0976l0.52735,-0.52735h-2.4922l0.63672,0.53516c-0.75,0.46354 -1.59767,0.83204 -2.543,1.1055l-0.625,-0.72656c0.90367,-0.19792 1.7318,-0.50261 2.4844,-0.91407h-1.5547v-3.707c-0.08333,0.04947 -0.23307,0.1302 -0.44922,0.24219l-0.46485,-0.64062c1.09893,-0.52865 1.8984,-1.17058 2.3984,-1.9258l0.57813,0.36719h2.2539l0.41016,0.375c-0.27865,0.36459 -0.58073,0.70052 -0.90625,1.0078zM314.7405,210.53c0.28906,-0.26302 0.52864,-0.51041 0.71875,-0.74218h-1.7891c-0.22917,0.24739 -0.50911,0.49479 -0.83984,0.74218zM312.803,211.13938v0.61719h4.1562v-0.61719zM312.803,212.32298v0.60938h4.1562v-0.60938zM312.803,213.51828v0.67578h4.1562v-0.67578z"/><path d="M325.85,211.83v3.7383c0,0.29167 -0.07422,0.49479 -0.22266,0.60938c-0.13021,0.10417 -0.37109,0.15625 -0.72266,0.15625c-0.46875,0 -0.86328,-0.01823 -1.1836,-0.0547l-0.16016,-0.76953c0.4974,0.04947 0.89713,0.0742 1.1992,0.0742c0.11979,0 0.19141,-0.02213 0.21485,-0.0664c0.01823,-0.03124 0.02734,-0.08722 0.02734,-0.16795v-3.5195h-3.625v-0.71094h5.3516v0.71094zM321.2016,209.4784v-0.67969h0.83984v0.67969h1.6875v-0.67969h0.85547v0.67969h1.9688v0.71875h-1.9688v0.61718h-0.85547v-0.61718h-1.6875v0.61718h-0.55859c-0.17709,0.45313 -0.3698,0.85806 -0.57813,1.2148v4.3711h-0.83984v-3.1289c-0.20573,0.25781 -0.43489,0.50911 -0.6875,0.7539l-0.38281,-0.78515c0.7422,-0.7318 1.3047,-1.63413 1.6875,-2.707l0.51953,0.1836v-0.51953h-1.9062v-0.71875zM324.2758,212.5409v2.2031h-1.9844v0.54297h-0.7539v-2.7461zM322.2914,213.14246v0.96875h1.2422v-0.96875z"/><path d="M327.82,216.06c-0.09896,-0.8854 -0.14844,-1.7656 -0.14844,-2.6406c0,-1.5 0.11068,-2.92447 0.33203,-4.2734l0.85937,0.0899c-0.21093,1.16667 -0.3164,2.48307 -0.3164,3.9492c0,0.9844 0.05469,1.90497 0.16406,2.7617zM330.1638,209.8725h3.7539v0.83204h-3.7539zM334.1833,215.5795c-0.52083,0.08073 -1.13933,0.12109 -1.8555,0.12109c-1.79947,0 -2.6992,-0.52863 -2.6992,-1.5859c0,-0.41927 0.11198,-0.78513 0.33594,-1.0976l0.73828,0.32812c-0.14063,0.19792 -0.21094,0.42058 -0.21094,0.66797c0,0.30469 0.15234,0.51432 0.45703,0.62891c0.33854,0.13021 0.80077,0.19531 1.3867,0.19531c0.63281,0 1.21875,-0.04167 1.7578,-0.125z"/><path d="M339.7,211.62h0.88672v2.1445c0.60937,0.26823 1.23307,0.62239 1.8711,1.0625l-0.44922,0.73047c-0.44791,-0.32813 -0.92188,-0.63281 -1.4219,-0.91406c-0.02867,0.46093 -0.17841,0.8151 -0.44922,1.0625c-0.30209,0.27343 -0.72525,0.41015 -1.2695,0.41015c-0.52605,0 -0.95965,-0.11979 -1.3008,-0.35937c-0.33333,-0.23698 -0.5,-0.56771 -0.5,-0.99219c0,-0.44531 0.20963,-0.80208 0.6289,-1.0703c0.32552,-0.20833 0.74219,-0.3125 1.25,-0.3125c0.23698,0 0.48828,0.02863 0.75391,0.0859zM339.7,214.2684c-0.3099,-0.10677 -0.60287,-0.16016 -0.87891,-0.16016c-0.27083,0 -0.48828,0.04818 -0.65234,0.14453c-0.21094,0.125 -0.31641,0.29167 -0.31641,0.5c0,0.25521 0.15104,0.4414 0.45313,0.55859c0.15104,0.05727 0.33203,0.0859 0.54297,0.0859c0.33854,0 0.58203,-0.14323 0.73046,-0.42969c0.08073,-0.15364 0.1211,-0.33333 0.1211,-0.53906zM335.5086,210.1239h1.4922c0.13281,-0.45052 0.23958,-0.84765 0.32031,-1.1914l0.85547,0.10547c-0.10417,0.38281 -0.21094,0.74478 -0.32031,1.0859h1.4258v0.78516h-1.6797c-0.46615,1.33593 -1.01301,2.46613 -1.6406,3.3906l-0.72657,-0.41407c0.59375,-0.8802 1.09505,-1.8724 1.5039,-2.9766h-1.2305zM342.032,212.0263c-0.57813,-0.64323 -1.24219,-1.22917 -1.9922,-1.7578l0.51563,-0.5625c0.7448,0.48177 1.4245,1.04297 2.0391,1.6836z"/><path d="M344.16,209.23h4.3828l0.41797,0.64844c-1.35413,0.82813 -2.5273,1.58073 -3.5195,2.2578c0.64063,-0.26823 1.28386,-0.40234 1.9297,-0.40234c0.58073,0 1.06509,0.09245 1.4531,0.27734c0.35938,0.17188 0.63933,0.40626 0.83985,0.70313c0.20833,0.3151 0.3125,0.67707 0.3125,1.0859c0,0.57291 -0.19531,1.05208 -0.58594,1.4375c-0.26823,0.26823 -0.61196,0.47135 -1.0312,0.60937c-0.54948,0.17969 -1.15105,0.26953 -1.8047,0.26953c-0.7526,0 -1.3073,-0.13932 -1.6641,-0.41797c-0.27865,-0.21875 -0.41797,-0.51432 -0.41797,-0.88672c0,-0.28125 0.10156,-0.53125 0.30469,-0.75c0.30729,-0.33073 0.72266,-0.49609 1.2461,-0.49609c0.55469,0 0.99869,0.1862 1.332,0.55859c0.24219,0.27083 0.41667,0.6341 0.52344,1.0898c0.80207,-0.25521 1.2031,-0.72657 1.2031,-1.4141c0,-0.52083 -0.21745,-0.90497 -0.65235,-1.1524c-0.29167,-0.16667 -0.66147,-0.25 -1.1094,-0.25c-0.66927,0 -1.27343,0.09245 -1.8125,0.27735c-0.39844,0.13541 -0.93361,0.46223 -1.6055,0.98046l-0.55078,-0.66406c0.72393,-0.625 1.54813,-1.2591 2.4726,-1.9023c0.63803,-0.44271 1.20053,-0.80597 1.6875,-1.0898h-3.3516zM347.1209,215.3667c-0.18489,-0.737 -0.54816,-1.1055 -1.0898,-1.1055c-0.29948,0 -0.51563,0.09505 -0.64844,0.28516c-0.06247,0.08594 -0.0937,0.17839 -0.0937,0.27734c0,0.20573 0.14583,0.36068 0.4375,0.46485c0.21093,0.07291 0.49348,0.10937 0.84765,0.10937c0.15105,0 0.33334,-0.0104 0.54688,-0.0312z"/><path d="M355.08,215.21c1.52867,-0.38541 2.293,-1.26171 2.293,-2.6289c0,-0.59636 -0.15364,-1.10939 -0.46093,-1.5391c-0.34375,-0.48437 -0.86719,-0.79557 -1.5703,-0.93359c-0.15365,1.20833 -0.36328,2.19793 -0.6289,2.9688c-0.18229,0.53906 -0.40886,1.04816 -0.67969,1.5273c-0.39063,0.68227 -0.83463,1.0234 -1.332,1.0234c-0.36979,0 -0.69922,-0.16667 -0.98828,-0.5c-0.1849,-0.21094 -0.33464,-0.47005 -0.44922,-0.77734c-0.15104,-0.39844 -0.22656,-0.82684 -0.22656,-1.2852c0,-0.7422 0.20443,-1.4258 0.61328,-2.0508c0.41406,-0.63802 0.95183,-1.10155 1.6133,-1.3906c0.48177,-0.21093 1.0104,-0.3164 1.5859,-0.3164c0.8984,0 1.66143,0.24088 2.2891,0.72265c0.7708,0.59115 1.1562,1.42838 1.1562,2.5117c0,1.81513 -0.91797,2.96617 -2.7539,3.4531zM354.49407,210.0772c-0.46094,0.05207 -0.84634,0.17576 -1.1562,0.37109c-0.19792,0.12761 -0.39454,0.29688 -0.58985,0.50782c-0.54167,0.59895 -0.8125,1.29295 -0.8125,2.082c0,0.57552 0.11458,1.02605 0.34375,1.3516c0.14063,0.20052 0.27995,0.30078 0.41797,0.30078c0.1875,0 0.39844,-0.20703 0.63281,-0.62109c0.57292,-1.0078 0.96095,-2.33853 1.1641,-3.9922z"/><path d="M359.56,209.9h2.1055c0.23177,-0.36979 0.40755,-0.66797 0.52734,-0.89454l0.8711,0.125c-0.07813,0.14063 -0.21615,0.36979 -0.41407,0.6875l-0.0508,0.082h2.7539v0.76953h-3.2734c-0.34115,0.46875 -0.66667,0.87501 -0.97656,1.2188c0.49219,-0.29427 0.94139,-0.44141 1.3476,-0.44141c0.63021,0 1.04298,0.31641 1.2383,0.94922c0.66667,-0.22135 1.34637,-0.4401 2.0391,-0.65625l0.33594,0.75781l-0.13672,0.0391l-0.38672,0.10157c-0.7292,0.19791 -1.31253,0.36718 -1.75,0.50781c0.03127,0.33854 0.0534,0.77604 0.0664,1.3125l-0.85546,0.0469c-0.00267,-0.30989 -0.00787,-0.64583 -0.0156,-1.0078v-0.0781c-1.19793,0.40885 -1.7969,0.82032 -1.7969,1.2344c0,0.21354 0.15364,0.35937 0.46093,0.4375c0.29688,0.07552 0.82815,0.11328 1.5938,0.11328c0.70573,0 1.44663,-0.04036 2.2227,-0.12109l0.0937,0.83203c-0.7526,0.05727 -1.53253,0.0859 -2.3398,0.0859c-0.9948,0 -1.70183,-0.07552 -2.1211,-0.22656c-0.51823,-0.1875 -0.77734,-0.52473 -0.77734,-1.0117c0,-0.41146 0.18359,-0.77473 0.55078,-1.0898c0.38021,-0.32552 1.04947,-0.66145 2.0078,-1.0078c-0.05207,-0.20052 -0.12108,-0.34114 -0.20703,-0.42187c-0.09635,-0.09115 -0.22396,-0.13672 -0.38281,-0.13672c-0.25781,0 -0.58203,0.09766 -0.97266,0.29297c-0.48177,0.23958 -0.9987,0.60025 -1.5508,1.082l-0.51949,-0.59376c0.80987,-0.7526 1.44397,-1.4922 1.9023,-2.2188h-1.5898z"/><path d="M367.76,210.24v-1.4414h0.8086v1.4414h0.6875v0.77734h-0.6875v1.1836c0.14583,-0.05727 0.35286,-0.14581 0.62109,-0.26562l0.0508,0.76953c-0.21354,0.10156 -0.4375,0.20442 -0.67187,0.30859v2.7461c0,0.24219 -0.0625,0.41146 -0.1875,0.50781c-0.10938,0.08854 -0.29688,0.13281 -0.5625,0.13281c-0.29948,0 -0.5625,-0.01953 -0.78907,-0.0586l-0.13281,-0.8086c0.25781,0.04427 0.48568,0.0664 0.68359,0.0664c0.11979,0 0.17969,-0.05599 0.17969,-0.16797v-2.1055c-0.21354,0.07552 -0.46745,0.15365 -0.76172,0.23438l-0.22265,-0.76953c0.36198,-0.09635 0.6901,-0.19401 0.98437,-0.29297v-1.4805h-0.8789v-0.77734zM369.4944,209.54078c0.68747,-0.15105 1.29683,-0.38803 1.8281,-0.71094l0.47266,0.51953h2.4219v4.9766c0,0.23959 -0.04297,0.41537 -0.1289,0.52735c-0.10157,0.14062 -0.30339,0.21093 -0.60547,0.21093c-0.27344,0 -0.53907,-0.01303 -0.79688,-0.0391l-0.13672,-0.79297c0.24479,0.03647 0.48047,0.0547 0.70704,0.0547c0.09635,0 0.15234,-0.02083 0.16796,-0.0625c0.0104,-0.02867 0.0156,-0.07684 0.0156,-0.14453v-3.9297h-0.97656v6.25h-0.76953v-6.875c-0.42969,0.22917 -0.88803,0.42057 -1.375,0.57422l-0.0391,0.0117v3.9844c0.44792,-0.15364 0.85285,-0.30598 1.2148,-0.45703l0.0859,0.7461c-0.862,0.38802 -1.681,0.69401 -2.457,0.91797l-0.32812,-0.78125c0.24479,-0.05993 0.47787,-0.12113 0.69922,-0.1836z"/><path d="M375.75,210.92h4.4102l0.35156,0.57813l-0.16015,0.11719c-1.0156,0.7656 -1.73567,1.3294 -2.1602,1.6914c0.29687,-0.14323 0.54687,-0.21484 0.75,-0.21484c0.26302,0 0.45052,0.09115 0.5625,0.27344c0.06513,0.10156 0.0977,0.22395 0.0977,0.36718c0,0.04427 -0.0039,0.10807 -0.0117,0.19141c-0.04167,0.40104 -0.0625,0.69791 -0.0625,0.89062c0,0.19271 0.07422,0.3073 0.22266,0.34375c0.11719,0.02867 0.33463,0.043 0.65234,0.043c0.41406,0 0.86329,-0.02863 1.3477,-0.0859l0.0703,0.83203c-0.48959,0.04167 -0.99609,0.0625 -1.5195,0.0625c-0.5625,0 -0.9414,-0.03776 -1.1367,-0.11328c-0.32813,-0.125 -0.49219,-0.40104 -0.49219,-0.82813c0,-0.41146 0.01823,-0.75129 0.0547,-1.0195c0.00267,-0.0208 0.004,-0.04293 0.004,-0.0664c0,-0.18229 -0.09245,-0.27343 -0.27734,-0.27343c-0.5,0 -1.4922,0.79557 -2.9766,2.3867l-0.61328,-0.67187c1.5026,-1.43487 2.91537,-2.67447 4.2383,-3.7188h-3.3516zM379.8789,210.48641c-1.0052,-0.30729 -2.1354,-0.57422 -3.3906,-0.80078l0.2539,-0.72656c1.2422,0.1901 2.37893,0.44661 3.4102,0.76953z"/><path d="M385.84,208.98h0.86328v0.98438h2.457v0.74219h-2.457v0.92968h2.3203v0.73438h-2.3203v1.207c0.92707,0.3125 1.84113,0.78257 2.7422,1.4102l-0.46094,0.74218c-0.68227,-0.51041 -1.44267,-0.96095 -2.2812,-1.3516c-0.0208,0.44531 -0.10674,0.79038 -0.25781,1.0352c-0.26302,0.42448 -0.78125,0.63672 -1.5547,0.63672c-0.59635,0 -1.07552,-0.11198 -1.4375,-0.33594c-0.40365,-0.25 -0.60547,-0.58853 -0.60547,-1.0156c0,-0.51041 0.27214,-0.88801 0.81641,-1.1328c0.36458,-0.16146 0.83855,-0.24219 1.4219,-0.24219c0.22917,0 0.48047,0.01823 0.75391,0.0547v-1.0078h-2.7695v-0.73438h2.7695v-0.92968h-2.9375v-0.74219h2.9375zM385.84,214.105c-0.30989,-0.06507 -0.60677,-0.0976 -0.89063,-0.0976c-0.34635,0 -0.6276,0.05078 -0.84375,0.15234c-0.25781,0.12239 -0.38671,0.29687 -0.38671,0.52344c0,0.1901 0.10026,0.34375 0.30078,0.46094c0.20312,0.11979 0.47395,0.17968 0.8125,0.17968c0.40104,0 0.67708,-0.10677 0.82812,-0.32031c0.11979,-0.16667 0.17969,-0.41536 0.17969,-0.74609z"/><path d="M394.14,208.96h0.8789v1.0781h2.3047v0.75391h-2.3047v1.6719c0.09115,0.32031 0.13672,0.60547 0.13672,0.85547c0,0.92707 -0.20443,1.60807 -0.61328,2.043c-0.44531,0.47656 -1.11588,0.80599 -2.0117,0.98828l-0.44531,-0.66406c0.69533,-0.13281 1.21097,-0.32031 1.5469,-0.5625c0.3151,-0.22917 0.52734,-0.54037 0.63671,-0.9336c-0.27864,0.30469 -0.61067,0.45704 -0.99609,0.45704c-0.43229,0 -0.78256,-0.1224 -1.0508,-0.36719c-0.31511,-0.28907 -0.47266,-0.70833 -0.47266,-1.2578c0,-0.28907 0.06901,-0.56771 0.20703,-0.83594c0.09115,-0.17187 0.20313,-0.3151 0.33594,-0.42969c0.30729,-0.26041 0.67579,-0.39062 1.1055,-0.39062c0.27344,0 0.52084,0.0651 0.74219,0.19531v-0.76953h-3.8555v-0.75391h3.8555zM394.1712,213.0147v-0.14453c0,-0.16667 -0.03906,-0.3138 -0.11719,-0.4414c-0.14583,-0.23959 -0.35677,-0.35938 -0.63281,-0.35938c-0.14063,0 -0.27214,0.03906 -0.39453,0.11719c-0.28646,0.17969 -0.42969,0.45573 -0.42969,0.82812c0,0.23438 0.05208,0.4323 0.15625,0.59375c0.14583,0.22396 0.36068,0.33594 0.64453,0.33594c0.25781,0 0.46224,-0.11589 0.61328,-0.34766c0.10677,-0.16406 0.16016,-0.35807 0.16016,-0.58203z"/><path d="M248.02,220.07l2.9844,2.9844l2.9844,-2.9844l0.34375,0.34375l-2.9844,2.9844l2.9844,2.9844l-0.34375,0.34375l-2.9844,-2.9844l-2.9844,2.9844l-0.34375,-0.34375l2.9844,-2.9844l-2.9844,-2.9844zM248.30125,222.7419c0.10938,0 0.21355,0.02733 0.3125,0.082c0.22917,0.125 0.34375,0.3151 0.34375,0.57031c0,0.11459 -0.02863,0.22266 -0.0859,0.32422c-0.125,0.22396 -0.31641,0.33594 -0.57422,0.33594c-0.14844,0 -0.28125,-0.04687 -0.39844,-0.14062c-0.16927,-0.13021 -0.25391,-0.30209 -0.25391,-0.51563c0,-0.19011 0.06901,-0.35026 0.20704,-0.48047c0.1276,-0.11719 0.27734,-0.17578 0.44921,-0.17578zM251.00825,220.0349c0.10677,0 0.20963,0.02733 0.30859,0.082c0.22917,0.125 0.34375,0.3151 0.34375,0.57031c0,0.11459 -0.02863,0.22266 -0.0859,0.32422c-0.125,0.22396 -0.31641,0.33594 -0.57422,0.33594c-0.14583,0 -0.27864,-0.04688 -0.39843,-0.14063c-0.16927,-0.13021 -0.25391,-0.30208 -0.25391,-0.51562c0,-0.19011 0.07031,-0.35026 0.21094,-0.48047c0.125,-0.11719 0.27474,-0.17578 0.44922,-0.17578zM253.71135,222.7419c0.10677,0 0.20964,0.02733 0.30859,0.082c0.22917,0.125 0.34375,0.3151 0.34375,0.57031c0,0.11459 -0.02863,0.22266 -0.0859,0.32422c-0.125,0.22396 -0.31641,0.33594 -0.57422,0.33594c-0.14844,0 -0.28125,-0.04687 -0.39844,-0.14062c-0.16927,-0.13021 -0.25391,-0.30209 -0.25391,-0.51563c0,-0.19011 0.07031,-0.35026 0.21094,-0.48047c0.125,-0.11719 0.27474,-0.17578 0.44922,-0.17578zM251.00825,225.445c0.10677,0 0.20963,0.02733 0.30859,0.082c0.22917,0.125 0.34375,0.3151 0.34375,0.57031c0,0.11458 -0.02863,0.22265 -0.0859,0.32422c-0.125,0.22396 -0.31641,0.33594 -0.57422,0.33594c-0.14583,0 -0.27864,-0.04688 -0.39843,-0.14063c-0.16927,-0.13021 -0.25391,-0.30208 -0.25391,-0.51562c0,-0.19011 0.07031,-0.35026 0.21094,-0.48047c0.125,-0.11719 0.27474,-0.17578 0.44922,-0.17578z"/><path d="M260.47,226.67l-0.18359,-0.72656c-0.16407,0.23177 -0.3737,0.41797 -0.62891,0.55859c-0.34635,0.1875 -0.72785,0.28125 -1.1445,0.28125c-0.8594,0 -1.58597,-0.29297 -2.1797,-0.8789c-0.62239,-0.61719 -0.93359,-1.44402 -0.93359,-2.4805c0,-0.90887 0.25,-1.6719 0.75,-2.2891c0.60937,-0.7526 1.41537,-1.1289 2.418,-1.1289c0.52083,0 0.98957,0.08594 1.4062,0.25781c0.31771,0.13021 0.64843,0.33463 0.99218,0.61328l-0.58203,0.72266c-0.30989,-0.25781 -0.58463,-0.4375 -0.82422,-0.53906c-0.27865,-0.11719 -0.59766,-0.17578 -0.95703,-0.17578c-0.60937,0 -1.10937,0.23307 -1.5,0.69921c-0.38281,0.45573 -0.57422,1.07423 -0.57422,1.8555c0,0.7344 0.17708,1.32423 0.53125,1.7695c0.36459,0.45833 0.86329,0.6875 1.4961,0.6875c0.44271,0 0.82811,-0.10547 1.1562,-0.3164c0.26041,-0.16667 0.4388,-0.36589 0.53515,-0.59766v-0.80859h-1.7344v-0.82422h2.7031v3.3203z"/><path d="M262.72,220.16h2.2539c0.71093,0 1.26563,0.10547 1.6641,0.31641c0.22135,0.11719 0.41015,0.27995 0.5664,0.48828c0.2474,0.33594 0.3711,0.72527 0.3711,1.168c0,0.55989 -0.15365,1.02213 -0.46094,1.3867c-0.23958,0.28646 -0.57031,0.48307 -0.99219,0.58984c-0.32552,0.08333 -0.71875,0.125 -1.1797,0.125h-1.1758v2.4062h-1.0469zM263.7669,220.99203v2.4102h0.99219c0.58594,0 0.99481,-0.07812 1.2266,-0.23437c0.29688,-0.19792 0.44532,-0.53385 0.44532,-1.0078c0,-0.77867 -0.51433,-1.168 -1.543,-1.168z"/><path d="M268.72,220.16h1.0469v4.0547c0,0.45313 0.09766,0.81509 0.29297,1.0859c0.29948,0.40885 0.74608,0.61328 1.3398,0.61328c0.65885,0 1.12892,-0.24089 1.4102,-0.72266c0.14844,-0.25521 0.22266,-0.58073 0.22266,-0.97656v-4.0547h1.0469v4.2305c0,0.60937 -0.15755,1.10807 -0.47265,1.4961c-0.49219,0.60937 -1.22915,0.91406 -2.2109,0.91406c-0.97393,0 -1.7083,-0.30469 -2.2031,-0.91406c-0.31511,-0.38542 -0.47266,-0.88412 -0.47266,-1.4961z"/><path d="M276.52,221.13c0.59895,0.36719 1.33462,0.87109 2.207,1.5117l0.15234,0.11329c0.61979,-0.92187 1.11069,-1.8763 1.4727,-2.8633l0.85547,0.39844c-0.42188,1.0104 -0.95575,2.0156 -1.6016,3.0156c0.763,0.5625 1.47523,1.1836 2.1367,1.8633l-0.61718,0.70703c-0.40886,-0.44792 -1.04299,-1.02735 -1.9024,-1.7383l-0.14453,-0.11719c-0.97653,1.18227 -2.12627,2.15493 -3.4492,2.918l-0.5664,-0.77734c1.17187,-0.60157 2.27343,-1.5052 3.3047,-2.7109c-0.7474,-0.54687 -1.52603,-1.08334 -2.3359,-1.6094z"/><path d="M283.07,220.21h5.9297v0.80079h-3.3047v1.6602h3.9297v0.80078h-3.9297v1.9375c0,0.14583 0.02603,0.24349 0.0781,0.29297c0.10157,0.10157 0.58073,0.15235 1.4375,0.15235c0.60677,0 1.22397,-0.02083 1.8516,-0.0625v0.8789c-0.65105,0.03387 -1.26695,0.0508 -1.8477,0.0508c-0.8594,0 -1.40887,-0.02603 -1.6484,-0.0781c-0.33593,-0.07031 -0.55859,-0.22396 -0.66797,-0.46094c-0.06507,-0.13802 -0.0976,-0.31641 -0.0976,-0.53516v-2.1758h-2.1289v-0.80078h2.1289v-1.6602h-1.7305z"/><path d="M291,219.93h0.91016v4.2734h-0.91016zM295.0117,219.848h0.91016v2.793c0,0.9818 -0.07943,1.71227 -0.23828,2.1914c-0.13281,0.40885 -0.3138,0.73437 -0.54297,0.97656c-0.47657,0.51302 -1.2422,0.89192 -2.2969,1.1367l-0.44922,-0.80078c1.15367,-0.23437 1.89327,-0.62371 2.2188,-1.168c0.20573,-0.34635 0.32943,-0.78385 0.3711,-1.3125c0.0182,-0.24479 0.0273,-0.58333 0.0273,-1.0156z"/><path d="M301.57,221.74v-0.65625h-2.1524v-0.69531h2.1524v-0.79297h0.80859v0.79297h2.4062v0.69531h-2.4062v0.65625h2.0312v2.4805h-2.043c-0.03127,0.52865 -0.13022,0.95571 -0.29687,1.2812c0.84373,0.42448 1.78123,0.71745 2.8125,0.87891l-0.41016,0.8164c-1.07033,-0.26563 -2.01693,-0.62759 -2.8398,-1.0859c-0.46355,0.49219 -1.14061,0.87499 -2.0312,1.1484l-0.45704,-0.6875c0.7526,-0.15625 1.35027,-0.45052 1.793,-0.88281c-0.37239,-0.24739 -0.77733,-0.54817 -1.2148,-0.90234l0.5625,-0.46875c0.36979,0.30208 0.73306,0.5651 1.0898,0.78906c0.11459,-0.2474 0.1862,-0.54297 0.21485,-0.88672h-2.0195v-2.4805zM301.57,222.39625h-1.207v1.168h1.207zM302.37859,222.39625v1.168h1.2305v-1.168zM298.97629,221.47828v5.7188h-0.83204v-4.0078c-0.16927,0.28906 -0.38802,0.61718 -0.65625,0.98437l-0.39843,-0.8789c0.43229,-0.60157 0.79555,-1.29167 1.0898,-2.0703c0.17709,-0.46355 0.35808,-1.02475 0.54297,-1.6836l0.83984,0.21485c-0.20052,0.67187 -0.39583,1.24607 -0.58593,1.7226z"/><path d="M312.16,220.01v6.2461c0,0.26563 -0.04818,0.45834 -0.14453,0.57813c-0.11979,0.14843 -0.36198,0.22265 -0.72656,0.22265c-0.40625,0 -0.76692,-0.01563 -1.082,-0.0469l-0.15235,-0.83984c0.41407,0.05207 0.75653,0.0781 1.0274,0.0781c0.10937,0 0.17448,-0.02473 0.19531,-0.0742c0.013,-0.03387 0.0195,-0.08335 0.0195,-0.14844v-1.543h-1.9141v2.3594h-0.83985v-2.3594h-1.832c-0.0234,0.54167 -0.07548,0.99087 -0.15625,1.3476c-0.11458,0.48698 -0.32942,0.94661 -0.64453,1.3789l-0.73437,-0.60547c0.30208,-0.40104 0.5013,-0.88671 0.59765,-1.457c0.05467,-0.33073 0.082,-0.70313 0.082,-1.1172v-4.0195zM306.7186,220.76391v1.1289h1.8242v-1.1289zM306.7186,222.60371v1.1602h1.8242v-1.1602zM311.2967,223.76391v-1.1602h-1.9141v1.1602zM311.2967,221.89281v-1.1289h-1.9141v1.1289z"/><path d="M319.79,219.76v2.2148h-5.6328v-2.2148zM315.0127,220.27171v0.375h3.9297v-0.375zM315.0127,221.09593v0.38282h3.9297v-0.38282zM319.9893,223.12713v2.1133h-2.5859v0.33594h2.8164v0.53516h-2.8164v0.33594h3.4102v0.60937h-7.625v-0.60937h3.3516v-0.33594h-2.7656v-0.53516h2.7656v-0.33594h-2.5352v-2.1133zM314.837,223.57635v0.36719h1.7266v-0.36719zM314.837,224.38495v0.39062h1.7266v-0.39062zM319.1495,224.77557v-0.39062h-1.7695v0.39062zM319.1495,223.94354v-0.36719h-1.7695v0.36719zM313.212,222.24824h7.5742v0.59375h-7.5742z"/><path d="M321.36,221.33h1.7266c0.07813,-0.40104 0.16537,-0.89974 0.26172,-1.4961l0.0195,-0.11328l0.85547,0.1289c-0.08854,0.55209 -0.17969,1.04559 -0.27344,1.4805h0.47266c0.625,0 1.07293,0.14063 1.3438,0.42188c0.24219,0.2526 0.36328,0.64583 0.36328,1.1797c0,0.89847 -0.09505,1.7383 -0.28515,2.5195c-0.10938,0.44271 -0.24219,0.76953 -0.39844,0.98046c-0.19792,0.26303 -0.47266,0.39454 -0.82422,0.39454c-0.42187,0 -0.88281,-0.13542 -1.3828,-0.40625l0.0976,-0.82422c0.49479,0.23698 0.87893,0.35547 1.1524,0.35547c0.14323,0 0.2539,-0.07682 0.33203,-0.23047c0.08333,-0.16667 0.16276,-0.40755 0.23828,-0.72266c0.14844,-0.63802 0.22266,-1.30859 0.22266,-2.0117c0,-0.36979 -0.07422,-0.60938 -0.22266,-0.71875c-0.12761,-0.09115 -0.35547,-0.13672 -0.68359,-0.13672h-0.60157c-0.41406,1.84373 -1.00779,3.41667 -1.7812,4.7188l-0.78515,-0.42968c0.79947,-1.34113 1.36977,-2.77083 1.7109,-4.2891h-1.5586zM327.8483,225.1855c-0.29427,-1.08333 -0.7591,-2.14713 -1.3945,-3.1914l0.76172,-0.34375c0.65625,1.04687 1.14715,2.10027 1.4727,3.1602zM327.27018,221.4433c-0.16146,-0.42187 -0.42188,-0.89061 -0.78125,-1.4062l0.60547,-0.22656c0.3151,0.44531 0.57942,0.90755 0.79296,1.3867zM328.32098,221.10737c-0.20313,-0.50261 -0.46224,-0.97527 -0.77735,-1.418l0.57422,-0.19141c0.29948,0.35677 0.5612,0.80207 0.78516,1.3359z"/><path d="M332.85,220.53c-0.11979,-0.2474 -0.26432,-0.48438 -0.43359,-0.71094l0.72265,-0.24219c0.19011,0.25781 0.36459,0.56511 0.52344,0.92188l0.0117,0.0312h0.98828c0.17709,-0.31511 0.32552,-0.63802 0.44531,-0.96875l0.83985,0.21484c-0.13021,0.26563 -0.27344,0.51693 -0.42969,0.75391h1.0547v2.9102h-4.7383v-2.9102zM332.58438,221.13156v0.57422h1.2188v-0.57422zM335.81878,221.13156h-1.2734v0.57422h1.2734zM335.81878,222.24096h-1.2734v0.60547h1.2734zM333.80318,222.24096h-1.2188v0.60547h1.2188zM330.06878,221.5105v-1.9102h0.83203v1.9102h0.69532v0.78515h-0.69532v2.5977c0.30209,-0.10417 0.58464,-0.20443 0.84766,-0.30078l0.0547,0.73437c-0.7552,0.3724 -1.5677,0.6823 -2.4375,0.92969l-0.27344,-0.83203c0.34375,-0.08333 0.64974,-0.16667 0.91797,-0.25c0.0182,-0.00533 0.03773,-0.01053 0.0586,-0.0156v-2.8633h-0.83203v-0.78515zM336.22898,223.866v3.3359h-0.8086v-0.39453h-2.4297v0.39453h-0.8086v-3.3359zM332.99068,224.46757v0.55859h2.4297v-0.55859zM332.99068,225.59257v0.58984h2.4297v-0.58984z"/><path d="M338.07,221.72h4.4102l0.35156,0.57813l-0.16015,0.11719c-1.0156,0.7656 -1.73567,1.3294 -2.1602,1.6914c0.29687,-0.14323 0.54687,-0.21484 0.75,-0.21484c0.26302,0 0.45052,0.09115 0.5625,0.27344c0.06513,0.10156 0.0977,0.22395 0.0977,0.36718c0,0.04427 -0.0039,0.10807 -0.0117,0.19141c-0.04167,0.40104 -0.0625,0.69791 -0.0625,0.89062c0,0.19271 0.07422,0.3073 0.22266,0.34375c0.11719,0.02867 0.33463,0.043 0.65234,0.043c0.41406,0 0.86329,-0.02863 1.3477,-0.0859l0.0703,0.83203c-0.48959,0.04167 -0.99609,0.0625 -1.5195,0.0625c-0.5625,0 -0.9414,-0.03776 -1.1367,-0.11328c-0.32813,-0.125 -0.49219,-0.40104 -0.49219,-0.82813c0,-0.41146 0.01823,-0.75129 0.0547,-1.0195c0.00267,-0.0208 0.004,-0.04293 0.004,-0.0664c0,-0.18229 -0.09245,-0.27343 -0.27734,-0.27343c-0.5,0 -1.4922,0.79557 -2.9766,2.3867l-0.61328,-0.67187c1.5026,-1.43487 2.91537,-2.67447 4.2383,-3.7188h-3.3516zM342.1989,221.28641c-1.0052,-0.30729 -2.1354,-0.57422 -3.3906,-0.80078l0.2539,-0.72656c1.2422,0.1901 2.37893,0.44661 3.4102,0.76953z"/><path d="M348.16,219.78h0.86328v0.98438h2.457v0.74219h-2.457v0.92968h2.3203v0.73438h-2.3203v1.207c0.92707,0.3125 1.84113,0.78257 2.7422,1.4102l-0.46094,0.74218c-0.68227,-0.51041 -1.44267,-0.96095 -2.2812,-1.3516c-0.0208,0.44531 -0.10674,0.79038 -0.25781,1.0352c-0.26302,0.42448 -0.78125,0.63672 -1.5547,0.63672c-0.59635,0 -1.07552,-0.11198 -1.4375,-0.33594c-0.40365,-0.25 -0.60547,-0.58853 -0.60547,-1.0156c0,-0.51041 0.27214,-0.88801 0.81641,-1.1328c0.36458,-0.16146 0.83855,-0.24219 1.4219,-0.24219c0.22917,0 0.48047,0.01823 0.75391,0.0547v-1.0078h-2.7695v-0.73438h2.7695v-0.92968h-2.9375v-0.74219h2.9375zM348.16,224.905c-0.30989,-0.06513 -0.60677,-0.0977 -0.89063,-0.0977c-0.34635,0 -0.6276,0.05078 -0.84375,0.15234c-0.25781,0.12239 -0.38671,0.29687 -0.38671,0.52344c0,0.1901 0.10026,0.34375 0.30078,0.46094c0.20312,0.11979 0.47395,0.17968 0.8125,0.17968c0.40104,0 0.67708,-0.10677 0.82812,-0.32031c0.11979,-0.16667 0.17969,-0.41536 0.17969,-0.74609z"/><path d="M356.45,219.76h0.8789v1.0781h2.3047v0.75391h-2.3047v1.6719c0.09115,0.32031 0.13672,0.60547 0.13672,0.85547c0,0.92707 -0.20443,1.60807 -0.61328,2.043c-0.44531,0.47656 -1.11588,0.80599 -2.0117,0.98828l-0.44531,-0.66406c0.69533,-0.13281 1.21097,-0.32031 1.5469,-0.5625c0.3151,-0.22917 0.52734,-0.54037 0.63671,-0.9336c-0.27864,0.30469 -0.61067,0.45704 -0.99609,0.45704c-0.43229,0 -0.78256,-0.1224 -1.0508,-0.36719c-0.31511,-0.28907 -0.47266,-0.70833 -0.47266,-1.2578c0,-0.28907 0.06901,-0.56771 0.20703,-0.83594c0.09115,-0.17187 0.20313,-0.3151 0.33594,-0.42969c0.30729,-0.26041 0.67579,-0.39062 1.1055,-0.39062c0.27344,0 0.52084,0.0651 0.74219,0.19531v-0.76953h-3.8555v-0.75391h3.8555zM356.4812,223.8147v-0.14453c0,-0.16667 -0.03906,-0.3138 -0.11719,-0.4414c-0.14583,-0.23959 -0.35677,-0.35938 -0.63281,-0.35938c-0.14063,0 -0.27214,0.03906 -0.39453,0.11719c-0.28646,0.17969 -0.42969,0.45573 -0.42969,0.82812c0,0.23438 0.05208,0.4323 0.15625,0.59375c0.14583,0.22396 0.36068,0.33594 0.64453,0.33594c0.25781,0 0.46224,-0.11589 0.61328,-0.34766c0.10677,-0.16406 0.16016,-0.35807 0.16016,-0.58203z"/></g></g></g></svg>