<svg version="1.1" xmlns="http://www.w3.org/2000/svg" xmlns:xlink="http://www.w3.org/1999/xlink" width="65.9076" height="119.36539" viewBox="0,0,65.9076,119.36539"><g transform="translate(-229.09174,-132.96903)"><g data-paper-data="{&quot;isPaintingLayer&quot;:true}" fill="#ff0000" fill-rule="evenodd" stroke-linecap="round" stroke-linejoin="round" stroke-miterlimit="10" stroke-dasharray="" stroke-dashoffset="0" style="mix-blend-mode: normal"><path d="M293.41936,159.33817l-0.36999,1.14995l-1.67993,1.17995l0.70997,1.91992l-0.42998,1.93992l-0.56998,1.23995l1.28995,0.54998l0.62997,-0.31999l1.31995,0.88996l0.30999,0.83997l-0.94996,1.17995l0.61998,1.24995l-0.61998,0.92996l-1.08996,-0.23999l-0.52998,0.53998l0.06,2.12991l1.68993,1.74993l-1.94992,1.79993l0.08,2.93988l-0.60998,0.66997l-2.14991,0.72997l-0.48998,2.68989l2.5199,0.89996l0.45998,0.54998l-0.01,1.28995l-0.57998,0.46998l-2.20991,-0.21999l-1.25995,0.61998l0.62997,1.90992l-0.96996,0.20999l-0.78997,1.16995l-1.02996,-0.05l-2.65989,2.4099l0.64997,1.14995l1.11996,3.91984l0.97996,0.58998l-0.64997,2.4099l-0.69997,1.38994l-0.15999,1.78993l-0.90996,0.42998l1.12995,1.71993l0.31999,1.01996l1.28995,0.50998l0.47998,1.73993l1.69993,1.34995l1.03996,0.18999l0.60998,0.81997l1.10996,0.35999l-0.23999,1.44994l0.59998,3.12987l-0.47998,1.32995l-0.98996,0.78997l-0.12,1.23995l-1.34995,0.12999l-0.45998,1.23995l-1.10996,1.24995l-2.4099,1.11996l-0.73997,-0.65997l-0.95996,-1.79993l-2.30991,0.69997l-1.42994,0.85997l-0.86997,1.00996l-2.5799,1.44994l-0.68997,1.14995l-1.29995,0.25999l0.04,1.27995l0.71997,0.57998l-1.57994,1.30995l0.49998,1.35995l-0.59998,2.4299l0.82997,0.22999l0.1,1.85993l-0.74997,1.68993l-0.85997,0.18999l-0.38998,1.01996l0.67997,2.20991l-1.12995,1.83993l0.73997,1.55994l-1.50994,2.35991l0.07,1.06996l-0.78997,1.14995l-1.21995,0.58998l-0.80997,1.20995l-0.94996,-1.14995l-1.75993,-1.37994l0.07,-0.78997l-2.11992,-0.27999l-1.06996,-1.39994l-1.28995,0.12l-1.39994,0.80997l-0.56998,-0.54998l-1.31995,0.01l-0.90996,-1.03996l-0.92996,0.26999l-1.93992,-1.58994l-0.17999,-1.27995l-0.89996,-1.59994l-0.97996,0.89996l-0.74997,-0.83997l0.11,-1.78993l1.10996,-1.70993l-0.05,-1.42994l0.35999,-2.36991l-0.80997,-2.67989l1.37994,-1.89992l-0.50998,-1.24995l-1.90992,-0.66997l-0.86997,-0.66997l-0.99996,0.23999l-2.08992,-0.43998l-0.88996,0.18999l-1.25995,-0.49998l-0.90996,-1.39994l-1.74993,-0.56998l-1.44994,0.51998l-0.38998,-0.58998l-3.88984,-2.35991l-0.87996,-0.97996l-0.19999,-1.21995l1.16995,-1.65993l0.64997,-2.5299l0.60998,-0.55998l2.5999,-5.34979l-0.08,-0.56998l1.48994,-3.02988l1.08996,-1.14995l0.59998,-1.14995l0.80997,0.35999l2.5399,-2.5199l0.18999,-0.94996l0.83997,-0.89996l1.02996,0.14999l1.75993,-1.73993l-0.20999,-0.38998l1.09996,-2.04992l2.5799,-2.31991l1.28995,-0.87996l1.48994,-3.08988l1.60994,-4.24983l1.54994,-4.9498l1.06996,-4.04984l0.66997,-3.43986l0.74997,-1.76993l1.15995,-1.92992l-1.04996,-0.32999l0.70997,-1.83993l0.67997,0.16999l0.97996,-2.15991l2.4499,-7.95968l0.63997,-4.60982l0.58998,-1.12995l-0.16999,-1.10996l-0.80997,-1.66993l3.63985,-0.07l3.96984,0.76997l0.23999,-0.55998l4.62981,1.50994l0.31999,-1.32995l1.01996,-0.92996l5.42978,-1.32995l-0.06,2.5699l0.55998,1.74993l-0.45998,0.88996l1.09996,0.77997l2.91988,0.47998l1.21995,0.68997l0.19999,1.22995l1.28995,0.66997l1.40994,0.21999l0.68997,1.55994l-1.57994,0.82997" stroke="none" stroke-width="0"/><path d="M236.42165,139.23898l-1.06996,0.67997l-1.19995,1.43994l-0.06,-1.63993l0.86997,-1.01996l0.02,-0.72997l1.43994,1.26995" stroke="#ff0000" stroke-width="10"/></g></g></svg>