<svg xmlns="http://www.w3.org/2000/svg" viewBox="0 0 196 34" version="1.1" height="34" width="196">
 <rect fill-opacity="0" height="34" width="196"></rect>opacity="0" stop-color="#000000"/&gt;
 <g aria-label="震源が深いため震央から遠い場所で" fill="#dbe9ff">
  <path d="m6.226 4.9097v-0.51225h-3.7227v-0.85176h8.7916v0.85176h-3.8002v0.51225h4.9319v2.1383h-1.2925v-1.37h-3.6394v2.317h-1.2687v-2.317h-3.5738v1.37h-1.2806v-2.1383zm4.2171 8.4521q0.91133 0.34547 2.2753 0.54799l-0.6969 1.0126q-1.912-0.3276-3.139-1.1258-1.2211-0.79816-1.9001-1.9835h-1.3164v1.8346q1.3164-0.18465 2.4421-0.39312l0.08339 0.8875q-2.0967 0.50034-4.7949 0.86963l-0.35143-1.0483q0.93515-0.10126 1.2806-0.14295l0.071477-0.01191v-1.9954h-1.3045q-0.08339 1.0483-0.27399 1.6737-0.22634 0.75051-0.72668 1.3998l-1.0602-0.87559q0.58373-0.75646 0.72668-1.769 0.077433-0.54799 0.077433-1.364v-2.5255h10.281v0.7922h-9.0001v1.8286h9.5124v0.83985h-1.3521l0.75646 0.50034q-0.67307 0.5599-1.5904 1.0483zm-0.9292-0.45864q0.85772-0.58373 1.364-1.09h-2.6029q0.51225 0.6552 1.2389 1.09zm-6.3376-6.7843h2.5374v0.67307h-2.5374zm0 1.096h2.5374v0.68499h-2.5374zm4.8306-1.096h2.6149v0.67307h-2.6149zm0 1.096h2.6149v0.68499h-2.6149zm-4.1814 2.4302h7.4157v0.78029h-7.4157z"></path>
  <path d="m21.319 6.0355h2.7697v4.6222h-2.2813v3.2701q0 0.56586-0.26804 0.78624-0.22039 0.17869-0.78029 0.17869-0.67307 0-1.3461-0.12508l-0.16678-1.1198q0.69094 0.10722 1.0722 0.10722 0.22634 0 0.26804-0.10722 0.02382-0.07743 0.02382-0.24421v-2.7459h-2.2813v-4.6222h1.7988q0.22039-0.6552 0.31569-1.0781h-2.7936v3.2343q0 2.1503-0.26804 3.55-0.31569 1.6737-1.2449 3.139l-0.95302-0.94111q1.2211-1.9477 1.2211-5.1821v-4.8962h8.3568v1.096h-3.0318q-0.17869 0.57181-0.41099 1.0781zm1.5606 0.95302h-3.3773v0.89942h3.3773zm-3.3773 1.8167v0.92324h3.3773v-0.92324zm-4.2112-2.7697q-0.58968-0.88155-1.7214-1.8465l0.91728-0.80411q1.0245 0.73859 1.7333 1.7214zm-0.3276 3.0616q-0.98876-1.2449-1.7452-1.8941l0.94111-0.85176q0.97089 0.81007 1.7571 1.8167zm-1.6082 4.9021q0.91133-1.7393 1.4712-4.235l1.09 0.66116q-0.40504 1.7452-0.73859 2.7399-0.29186 0.86963-0.71477 1.7512zm3.7525-0.40504q0.98281-1.0364 1.501-2.5493l1.1377 0.34547q-0.56586 1.8048-1.6618 3.0378zm6.8439 0.73264q-0.63734-1.4772-1.5963-2.8055l0.98876-0.57181q0.97685 1.2151 1.7095 2.6208z"></path>
  <path d="m25.757 5.9342h2.6327q0.17869-0.91728 0.39908-2.2813l0.02978-0.17274 1.3045 0.19656q-0.20252 1.2628-0.41695 2.2575h0.72072q1.4295 0 2.049 0.64329 0.55394 0.57777 0.55394 1.7988 0 2.055-0.43482 3.8419-0.25017 1.0126-0.60755 1.4951-0.45269 0.6016-1.2568 0.6016-0.96494 0-2.1086-0.61946l0.14891-1.2568q1.1317 0.54203 1.7571 0.54203 0.3276 0 0.50629-0.35143 0.1906-0.38121 0.36334-1.1019 0.33952-1.4593 0.33952-3.0675 0-0.84581-0.33952-1.096-0.29186-0.20847-1.0424-0.20847h-0.91728q-0.94707 4.2171-2.7161 7.1953l-1.1972-0.6552q1.8286-3.0675 2.6089-6.5401h-2.3766zm9.8936 5.879q-0.67307-2.4779-2.1264-4.8664l1.1615-0.52416q1.501 2.3945 2.2456 4.8187zm-0.88155-5.7062q-0.3693-0.96494-1.1913-2.1443l0.92324-0.34547q0.72072 1.0185 1.2091 2.1145zm1.6023-0.51225q-0.4646-1.1496-1.1853-2.1622l0.87559-0.29186q0.68498 0.81603 1.1972 2.0371z"></path>
  <path d="m45.586 11.343v3.55h-1.2687v-3.5143q-0.73264 1.1555-1.6678 1.918-0.63138 0.51821-1.5308 0.97685l-0.82794-1.0543q1.1436-0.44673 1.9716-1.1079 0.8339-0.67307 1.501-1.7095h-2.8352v-1.096h3.3892v-1.1377h1.2687v1.1377h3.5262v1.096h-2.9484q1.2687 1.5784 3.2998 2.4302l-0.87559 1.1675q-1.9656-1.1615-3.002-2.6566zm0.83985-6.4329v1.9299q0 0.25612 0.08339 0.33356 0.07148 0.06552 0.38717 0.06552 0.45269 0 0.53012-0.059564 0.18465-0.14295 0.20847-0.94111l1.1555 0.31569q-0.0417 1.1138-0.3693 1.4236-0.32164 0.30973-1.5725 0.30973-0.82794 0-1.1853-0.16678-0.44673-0.20252-0.44673-0.72072v-2.4898h-2.9603v1.5606h-1.2091v-2.6208h7.9161v2.1205h-1.2211v-1.0602zm-6.5997 1.2091q-0.78029-1.0543-1.7929-1.912l0.87559-0.84581q1.0126 0.74455 1.8822 1.8167zm-0.4646 3.0616q-0.85772-1.096-1.8286-1.912l0.90537-0.89346q1.0126 0.74455 1.8882 1.8524zm-1.5725 4.783q1.0066-1.5487 1.8167-3.9908l1.0722 0.6969q-0.61946 2.2098-1.7929 4.2112zm3.1331-6.3078q0.82794-0.24421 1.3223-0.61351 0.89346-0.66116 1.1198-1.9954l1.1317 0.30378q-0.29186 1.0662-0.69094 1.6797-0.66712 1.0126-2.1503 1.5784z"></path>
  <path d="m55.741 11.081q-1.1019 3.2403-2.4719 3.2403-0.97685 0-1.6737-1.37-0.53608-1.0602-0.73859-2.3349-0.24421-1.5487-0.24421-3.9789 0-1.0543 0.07743-2.2634l1.3998 0.10722q-0.07743 1.2091-0.07743 2.2992 0 3.824 0.71477 5.331 0.29186 0.61947 0.54799 0.61947 0.16678 0 0.41695-0.38121 0.51225-0.77433 0.98876-2.1324zm3.7704 1.4176q-0.30378-2.5136-0.74455-4.0623-0.53608-1.8763-1.2449-3.4368l1.2687-0.30973q0.9828 1.9477 1.4593 3.7525 0.39312 1.4653 0.64925 3.7287z"></path>
  <path d="m62.562 5.4219h2.7816q0.16678-0.73859 0.37525-1.912l1.3461 0.16678q-0.17869 0.92324-0.38121 1.7452h3.967v1.1853h-4.2469q-1.1913 4.7592-2.6327 7.8922l-1.3164-0.4646q1.5665-3.4726 2.6089-7.4276h-2.5017zm10.543 8.7619q-0.96494 0.12508-2.1681 0.12508-1.9477 0-2.9425-0.33356-0.38121-0.13104-0.64925-0.3693-0.52416-0.47651-0.52416-1.2151 0-0.75646 0.48842-1.3342l1.0602 0.62542q-0.18465 0.2323-0.18465 0.51225 0 0.48247 0.44077 0.62542 0.67307 0.21443 1.918 0.21443 1.2091 0 2.4123-0.17869zm-5.5871-5.9028q2.3349-0.26804 5.1106-0.28591l0.05956 1.2091q-2.7221 0.011913-4.9974 0.25612z"></path>
  <path d="m76.982 4.1771q0.18465 0.83985 0.54799 2.0788 1.4295-0.78029 3.1628-0.82198 0.15487-0.86963 0.25612-1.781l1.3164 0.25612q-0.13104 0.94111-0.26804 1.6618 1.3104 0.30973 2.0967 1.0602 1.2449 1.1972 1.2449 3.0914 0 2.2932-1.4772 3.4309-1.096 0.84581-2.6923 1.1019l-0.62542-1.1079q1.5725-0.29782 2.454-1.0066 0.96494-0.77433 0.96494-2.4957 0-1.2568-0.73264-2.0967-0.52416-0.6016-1.4534-0.88155-0.44673 1.8584-0.91133 2.9246-0.63138 1.4593-1.7035 2.6208-1.4474 1.5665-2.6923 1.5665-0.97685 0-1.4653-0.95302-0.34547-0.68499-0.34547-1.6618 0-2.3826 1.8346-4.1397-0.33356-1.0424-0.66712-2.4183zm-0.07148 4.0503q-1.0483 1.3223-1.0483 2.8055 0 0.67307 0.1906 1.09 0.18465 0.41099 0.54203 0.41099 0.61946 0 1.6797-1.1794-0.73859-1.3402-1.364-3.1271zm3.5619-1.7035q-1.4176 0.077433-2.5851 0.82794 0.56586 1.6797 1.2091 2.9008 0.93516-1.507 1.3759-3.7287z"></path>
  <path d="m91.617 4.9097v-0.51225h-3.7227v-0.85176h8.7916v0.85176h-3.8002v0.51225h4.9319v2.1383h-1.2925v-1.37h-3.6394v2.317h-1.2687v-2.317h-3.5738v1.37h-1.2806v-2.1383zm4.2171 8.4521q0.91133 0.34547 2.2753 0.54799l-0.6969 1.0126q-1.912-0.3276-3.139-1.1258-1.2211-0.79816-1.9001-1.9835h-1.3164v1.8346q1.3164-0.18465 2.4421-0.39312l0.08339 0.8875q-2.0967 0.50034-4.7949 0.86963l-0.35143-1.0483q0.93515-0.10126 1.2806-0.14295l0.07148-0.01191v-1.9954h-1.3045q-0.08339 1.0483-0.27399 1.6737-0.22634 0.75051-0.72668 1.3998l-1.0602-0.87559q0.58373-0.75646 0.72668-1.769 0.07743-0.54799 0.07743-1.364v-2.5255h10.281v0.7922h-9.0001v1.8286h9.5124v0.83985h-1.3521l0.75646 0.50034q-0.67307 0.5599-1.5904 1.0483zm-0.9292-0.45864q0.85772-0.58373 1.364-1.09h-2.6029q0.51225 0.6552 1.2389 1.09zm-6.3376-6.7843h2.5374v0.67307h-2.5374zm0 1.096h2.5374v0.68499h-2.5374zm4.8306-1.096h2.6149v0.67307h-2.6149zm0 1.096h2.6149v0.68499h-2.6149zm-4.1814 2.4302h7.4157v0.78029h-7.4157z"></path>
  <path d="m105.61 10.39q0.68499 1.1258 1.8227 1.9358 1.0602 0.75051 2.7697 1.233l-0.75051 1.233q-3.419-1.1079-4.8723-3.818-0.45269 1.1913-1.4534 2.1741-0.7922 0.78029-1.9001 1.2389-0.63734 0.25612-1.6142 0.51821l-0.72072-1.1138q2.0728-0.42886 3.3654-1.644 0.82199-0.78029 1.2687-1.7571h-4.8306v-1.1853h1.4057v-3.9134h3.7049v-1.9894h1.2925v1.9894h3.7823v3.9134h1.4057v1.1853zm-1.8048-3.9491h-2.4123v2.7638h2.4123zm1.2925 0v2.7638h2.4898v-2.7638z"></path>
  <path d="m111.39 5.9342h2.6327q0.17869-0.91728 0.39908-2.2813l0.0298-0.17274 1.3044 0.19656q-0.20251 1.2628-0.41694 2.2575h0.94111q1.4236 0 2.043 0.64329 0.55395 0.57777 0.55395 1.7988 0 2.049-0.43482 3.8419-0.25017 1.0126-0.60755 1.4951-0.45269 0.6016-1.2568 0.6016-0.95898 0-2.1026-0.61946l0.14891-1.2568q1.1317 0.54203 1.7512 0.54203 0.33356 0 0.50629-0.35143 0.19061-0.38717 0.36334-1.1019 0.33952-1.4534 0.33952-3.0675 0-0.84581-0.33952-1.096-0.29186-0.20847-1.0364-0.20847h-1.1377q-0.94707 4.2171-2.7161 7.1953l-1.1972-0.6552q1.8286-3.0675 2.6089-6.5401h-2.3766zm9.7685 4.783q-0.89942-3.1271-2.4124-5.5037l1.1436-0.58373q1.7035 2.728 2.5374 5.5394z"></path>
  <path d="m130.9 6.0712q-2.2575-1.0007-5.0868-1.5368l0.50034-1.0602q2.9067 0.54203 5.1344 1.4117zm-6.7962 4.366q0.24422-2.8472 0.73264-4.9617l1.2806 0.23826q-0.45269 1.8822-0.58373 3.5262 0.86368-0.66116 1.9894-1.0543 1.0781-0.38121 2.0133-0.38121 1.3998 0 2.2872 0.54203 1.1853 0.73264 1.1853 2.3468 0 1.5844-1.0781 2.454-1.507 1.2032-5.2416 1.3283l-0.47651-1.233q2.4957-6e-3 3.8002-0.4646 1.5784-0.54799 1.5784-2.0907 0-0.97685-0.6969-1.4534-0.55395-0.38121-1.4534-0.38121-1.2806 0-2.7519 0.83985-0.89941 0.51225-1.6082 1.2449z"></path>
  <path d="m144.27 11.295 0.0834 0.04169q0.61947 0.28591 1.3402 0.67307l-0.78029 0.9292q-1.2687-0.76242-2.6208-1.4295v1.7929h-1.2449v-2.4064q-1.1317 0.89346-2.5553 1.4891l-0.76838-0.8875q1.8465-0.67903 3.2998-1.7333h-2.3826v-2.4838h6.1768v2.4838h-0.0477l0.74455 0.47651q-0.63138 0.58968-1.2449 1.0543zm-1.0126-0.44077q0.0715-0.05956 0.20251-0.17869 0.45865-0.41695 0.87559-0.91133h-1.7571q-0.0774 0.06552-0.21443 0.17869l-0.0715 0.059564v0.48842q0.36334 0.12508 0.96494 0.36334zm-3.3952-2.7578v0.86368h3.7228v-0.86368zm-2.5374 4.1754q0.46459 0.48842 1.0602 0.78029 0.40504 0.19656 1.1675 0.33356 0.77433 0.13104 1.5665 0.13104h5.2178q-0.22634 0.43482-0.38716 1.1317h-4.8664q-2.0133 0-3.0616-0.53012-0.61946-0.31569-1.1853-0.9292-0.83985 1.0543-1.6976 1.7393l-0.66712-1.2032q0.76838-0.48247 1.6082-1.1853v-3.0854h-1.5248v-1.1734h2.7697zm3.7227-8.1543v-0.81603h1.2449v0.81603h2.9127v0.90537h-2.9127v0.67903h3.5619v0.95302h-8.1245v-0.95302h3.3177v-0.67903h-2.6506v-0.90537zm-4.503 2.3528q-0.7922-1.364-1.769-2.3766l0.98876-0.72072q0.92324 0.89942 1.8167 2.2694z"></path>
  <path d="m152.59 11.081q-1.1019 3.2403-2.4719 3.2403-0.97685 0-1.6738-1.37-0.53607-1.0602-0.73859-2.3349-0.24421-1.5487-0.24421-3.9789 0-1.0543 0.0774-2.2634l1.3998 0.10722q-0.0774 1.2091-0.0774 2.2992 0 3.824 0.71477 5.331 0.29186 0.61947 0.54799 0.61947 0.16678 0 0.41695-0.38121 0.51225-0.77433 0.98876-2.1324zm3.7704 1.4176q-0.30377-2.5136-0.74454-4.0623-0.53608-1.8763-1.2449-3.4368l1.2687-0.30973q0.98281 1.9477 1.4593 3.7525 0.39312 1.4653 0.64925 3.7287z"></path>
  <path d="m168.09 10.973q-0.39312 1.0841-0.99472 1.8941-0.76837 1.0424-2.0728 1.8524l-0.8339-0.73264q1.906-1.0722 2.8055-3.0139h-0.82794q-1.1317 2.1443-3.5024 3.2462l-0.75647-0.78029q2.0669-0.93515 3.1033-2.4659h-0.79816q-0.53608 0.54799-1.1079 0.90537l-0.66712-0.64925q-1.4593 0.8875-3.1986 1.5844l-0.44078-1.2091q0.75051-0.22634 1.6082-0.57181v-4.0087h-1.3998v-1.1853h1.3998v-2.5374h1.233v2.5374h1.1734v1.1853h-1.1734v3.4726q0.45268-0.21443 1.1138-0.54799l0.15487 0.76242q0.72072-0.57181 1.1972-1.3581h-1.6857v-1.0007h8.1781v1.0007h-5.2059q-0.16083 0.29782-0.411 0.66712h5.1642q-0.12508 3.0675-0.45269 4.0742-0.16082 0.49438-0.54798 0.66116-0.274 0.12508-0.80412 0.12508-0.61946 0-1.2092-0.08935l-0.22038-1.1317q0.5599 0.13104 1.1138 0.13104 0.39908 0 0.51225-0.26208 0.22039-0.52416 0.35739-2.5553zm1.4057-7.3204v4.104h-6.1351v-4.104zm-4.9378 0.90537v0.70881h3.7406v-0.70881zm0 1.5725v0.73264h3.7406v-0.73264z"></path>
  <path d="m178.46 8.424q-0.0119 1.7393-0.25017 3.0497-0.25017 1.37-0.82199 2.3885-0.26803 0.48842-0.72668 1.0543l-0.97685-0.91728q1.0305-1.3045 1.3283-3.2581 0.18465-1.2151 0.18465-2.9901v-3.55l0.26804-0.029782q2.3706-0.25613 4.0801-0.88155l0.80411 1.0245q-1.8584 0.64329-3.8836 0.85176v2.0609h4.2707v1.1972h-1.4593v6.4686h-1.2806v-6.4686zm-2.049-2.1443v4.509h-1.233v-0.6552h-2.1562q0 1.3878-0.17274 2.3945-0.20847 1.2389-0.84581 2.2753l-1.0245-0.86963q0.58969-1.09 0.73264-2.4779 0.0834-0.78624 0.0834-1.8941v-3.282zm-1.233 1.0483h-2.1503v1.7452h2.1503zm-3.7942-3.5143h5.5097v1.1317h-5.5097z"></path>
  <path d="m183.74 4.7489q5.4799-0.08339 10.358-0.27995l0.0715 1.1853q-2.1503 0.10722-3.3475 0.6552-1.1436 0.52416-1.8346 1.4534-0.78625 1.0543-0.78625 2.3468 0 1.2866 0.89346 1.9299 1.0245 0.73264 3.145 1.0066l-0.27995 1.3402q-2.7638-0.3693-3.8895-1.4295-1.2092-1.1317-1.2092-2.8114 0-1.5248 1.096-2.8472 0.79816-0.97089 2.186-1.5606-2.46 0.08339-6.3436 0.27995zm8.6606 5.1404q-0.35142-0.93515-1.1853-2.1205l0.9292-0.34547q0.74455 1.0245 1.1972 2.0967zm1.6082-0.62542q-0.4229-1.096-1.1794-2.1324l0.88751-0.31569q0.6969 0.84581 1.1853 2.049z"></path>
 </g>
 <g aria-label="揺れが大きくなることがあります" fill="#dbe9ff">
  <path d="m9.2578 24.12v1.1734h3.4607v1.0722h-3.4607v2.5374h1.5963v-1.9656h1.2449v3.6394h-1.2449v-0.63733h-4.366v0.63733h-1.2449v-3.6394h1.2449v1.9656h1.5129v-2.5374h-3.2939v-1.0722h3.2939v-1.1734h-2.8233v-1.0364h4.7056q0.57181-1.0722 1.09-2.5732l1.1853 0.47651q-0.44077 1.0126-1.0602 2.0967h1.1079v1.0364zm-6.7009-2.9365v-2.1979h1.2806v2.1979h1.1853v1.1853h-1.1853v1.9239q0.44077-0.14891 1.0245-0.37525l0.14891 1.1198q-0.69094 0.29186-1.1734 0.47651v3.961q0 0.52416-0.1906 0.76242-0.24421 0.29782-0.95302 0.29782-0.64329 0-1.1972-0.11913l-0.24421-1.2449q0.71477 0.10722 1.0364 0.10722 0.18465 0 0.22634-0.07743 0.041695-0.06552 0.041695-0.22634v-2.9961q-0.60755 0.20252-1.233 0.38717l-0.36334-1.227q1.0066-0.25612 1.5129-0.41099 0.041695-0.01191 0.08339-0.02382v-2.3349h-1.4236v-1.1853zm2.2098-1.5129q3.7049-0.16678 6.5878-0.70881l0.80411 0.98876q-3.3177 0.58968-6.9273 0.80411zm1.3759 3.3415q-0.29782-1.0245-0.72072-1.8524l1.1019-0.3693q0.50034 0.97089 0.75646 1.8286zm2.2098-0.137q-0.22634-1.0185-0.70881-1.9001l1.1079-0.3693q0.49438 0.86963 0.76838 1.9299z"></path>
  <path d="m15.792 19.254h1.3164v3.3654q1.4176-1.4712 2.2694-2.0192 0.7922-0.51225 1.644-0.51225 0.85772 0 1.3819 0.48247 0.69094 0.64329 0.69094 1.6857 0 0.27399-0.07148 0.72668-0.52416 3.3296-0.52416 4.6103 0 0.54799 0.27995 0.54799 0.17869 0 0.47056-0.20252 0.61351-0.4229 1.2389-1.3878l0.48842 1.364q-0.38121 0.60755-0.94707 1.0781-0.6552 0.54799-1.3998 0.54799-0.70881 0-1.1019-0.49438-0.33356-0.4229-0.33356-1.4117 0-0.75051 0.19656-2.2575 0.25017-1.8941 0.33356-2.8114 0.01191-0.14891 0.01191-0.25017 0-0.52416-0.22039-0.80411-0.20847-0.26804-0.57777-0.26804-1.2449 0-3.83 3.3177v5.6228h-1.3164v-4.1218q-0.99472 1.3938-1.8346 2.6327l-0.61947-1.4117q1.4117-1.7095 2.454-3.2581v-1.5129h-2.0907v-1.1972h2.0907z"></path>
  <path d="m25.757 21.618h2.6327q0.17869-0.91728 0.39908-2.2813l0.02978-0.17274 1.3045 0.19656q-0.20252 1.2628-0.41695 2.2575h0.72072q1.4295 0 2.049 0.64329 0.55394 0.57777 0.55394 1.7988 0 2.055-0.43482 3.8419-0.25017 1.0126-0.60755 1.4951-0.45269 0.6016-1.2568 0.6016-0.96494 0-2.1086-0.61946l0.14891-1.2568q1.1317 0.54203 1.7571 0.54203 0.3276 0 0.50629-0.35143 0.1906-0.38121 0.36334-1.1019 0.33952-1.4593 0.33952-3.0675 0-0.84581-0.33952-1.096-0.29186-0.20847-1.0424-0.20847h-0.91728q-0.94707 4.2171-2.7161 7.1953l-1.1972-0.6552q1.8286-3.0675 2.6089-6.5401h-2.3766zm9.8936 5.879q-0.67307-2.4779-2.1264-4.8664l1.1615-0.52416q1.501 2.3945 2.2456 4.8187zm-0.88155-5.7062q-0.3693-0.96494-1.1913-2.1443l0.92324-0.34547q0.72072 1.0185 1.2091 2.1145zm1.6023-0.51225q-0.4646-1.1496-1.1853-2.1622l0.87559-0.29186q0.68498 0.81603 1.1972 2.0371z"></path>
  <path d="m44.323 23.268q0.41099 1.3938 1.5606 2.9663 1.3998 1.918 3.4428 3.0378l-0.85176 1.227q-2.1622-1.2747-3.6096-3.3773-0.78029-1.1436-1.2508-2.329-0.47056 1.5963-1.4593 2.9008-1.4534 1.9299-3.5917 2.8472l-0.83985-1.09q2.2396-0.93516 3.6155-2.8829 1.1555-1.644 1.37-3.2998h-4.7532v-1.2925h4.8068v-2.871h1.3759v2.871h4.9081v1.2925z"></path>
  <path d="m50.804 20.629h3.6096q-0.19656-0.55394-0.4229-1.3164l1.3164-0.07148q0.2323 0.7922 0.45269 1.3878h4.1457v1.1496h-3.7347q0.33952 0.84581 0.76838 1.7214h3.7704v1.1496h-3.1688q0.62542 1.09 1.2568 1.9537l-1.3342 0.38717q-0.69094-0.98281-1.3878-2.3409h-5.4799v-1.1496h4.9319q-0.34547-0.73263-0.70881-1.7214h-4.0146zm7.9399 9.3337q-1.1436 0.08339-2.1264 0.08339-2.5791 0-3.7347-0.48247-1.6023-0.67307-1.6023-2.1264 0-0.81603 0.44673-1.3164l1.0662 0.58373q-0.18465 0.37525-0.18465 0.74455 0 0.75051 1.0245 1.0841 0.91133 0.29782 2.7876 0.29782 0.94111 0 2.2158-0.10126z"></path>
  <path d="m70.567 30.279q-2.6923-2.0967-7.0524-4.6817-0.80411-0.47056-0.80411-0.98876 0-0.3693 0.35143-0.6969 0.14891-0.14295 0.75051-0.47651 2.1979-1.2211 4.7413-2.9127 0.95898-0.63138 1.7452-1.2211l0.78029 1.0245q-3.0675 2.1741-6.2959 3.967-0.31569 0.17869-0.31569 0.29782 0 0.0953 0.17274 0.21443 0.04765 0.03574 0.55394 0.33356 4.0861 2.4123 6.153 3.9491z"></path>
  <path d="m79.823 23.292h1.3521v3.2701q1.3938 0.61351 2.8531 1.6201l-0.68498 1.1138q-1.0245-0.75051-2.1681-1.3938-0.06552 1.0543-0.68498 1.6201-0.69094 0.62542-1.9358 0.62542-1.2032 0-1.9835-0.54799-0.76242-0.54203-0.76242-1.5129 0-1.0185 0.95898-1.6321 0.74455-0.47651 1.906-0.47651 0.54203 0 1.1496 0.13104zm0 4.0384q-0.70881-0.24421-1.3402-0.24421-0.61946 0-0.99472 0.22039-0.48247 0.28591-0.48247 0.76242 0 0.58373 0.69094 0.85176 0.34547 0.13104 0.82794 0.13104 0.77433 0 1.1138-0.6552 0.18465-0.35143 0.18465-0.82198zm-6.3912-6.3197h2.2753q0.30378-1.0305 0.48842-1.8167l1.3045 0.16082q-0.23826 0.87559-0.48842 1.6559h2.1741v1.1972h-2.5612q-1.0662 3.0556-2.5017 5.1702l-1.1079-0.63138q1.3581-2.0133 2.2932-4.5388h-1.8763zm9.9472 2.9008q-1.3223-1.4712-3.0378-2.6804l0.78624-0.85772q1.7035 1.1019 3.1092 2.5672z"></path>
  <path d="m86.631 19.647h6.6831l0.63734 0.98876q-3.0973 1.8941-5.3667 3.4428 1.4653-0.61351 2.9425-0.61351 1.3283 0 2.2158 0.4229 0.82198 0.39312 1.2806 1.0722 0.47651 0.72072 0.47651 1.6559 0 1.3104-0.89346 2.192-0.61351 0.61351-1.5725 0.9292-1.2568 0.41099-2.7519 0.41099-1.7214 0-2.5374-0.63734-0.63734-0.50034-0.63734-1.3521 0-0.64329 0.4646-1.1436 0.70286-0.75646 1.9001-0.75646 1.2687 0 2.0311 0.85176 0.55394 0.61946 0.79816 1.6618 1.8346-0.58373 1.8346-2.1562 0-1.1913-0.99472-1.7571-0.66712-0.38121-1.6916-0.38121-1.5308 0-2.7638 0.4229-0.91133 0.30973-2.4481 1.4951l-0.83985-1.0126q1.6559-1.4295 3.7704-2.9008 1.4593-1.0126 2.5732-1.6618h-5.1106zm4.5149 9.3575q-0.4229-1.6857-1.6618-1.6857-0.68498 0-0.98876 0.43482-0.14295 0.19656-0.14295 0.4229 0 0.47056 0.66712 0.70881 0.48247 0.16678 1.2925 0.16678 0.34547 0 0.8339-0.04765z"></path>
  <path d="m98.514 20.242h7.2847v1.2925h-7.2847zm8.1781 9.1609q-1.9239 0.29186-4.0861 0.29186-2.2217 0-3.5679-0.41695-0.52416-0.16082-0.97089-0.51225-0.68498-0.54799-0.68498-1.5189 0-1.2211 0.94111-2.1383l1.0364 0.68499q-0.57181 0.67307-0.57181 1.2687 0 0.66712 0.80411 0.94707 0.42886 0.15487 1.364 0.25017 0.77433 0.08339 1.6023 0.08339 2.0907 0 3.9491-0.30378z"></path>
  <path d="m118.2 29.707q-1.7631 0.18465-3.6453 0.18465-2.7757 0-3.8895-0.35143-0.81007-0.25612-1.2806-0.76242-0.54203-0.58968-0.54203-1.4355 0-1.1138 0.76241-2.0013 0.64925-0.75646 2.0907-1.501-0.82198-1.8465-1.4891-4.2052l1.3283-0.34547q0.61946 2.2634 1.3104 4.0027 2.2932-1.0543 4.8664-1.7571l0.39908 1.2091q-2.8233 0.71477-5.6109 2.0311-0.86367 0.41099-1.227 0.67307-1.0662 0.78029-1.0662 1.7333 0 0.82794 0.98876 1.1555 0.82198 0.26804 2.9425 0.26804 1.9597 0 3.9253-0.22634z"></path>
  <path d="m119.96 21.618h2.6327q0.17869-0.91728 0.39908-2.2813l0.0298-0.17274 1.3044 0.19656q-0.20252 1.2628-0.41695 2.2575h0.72073q1.4295 0 2.049 0.64329 0.55394 0.57777 0.55394 1.7988 0 2.055-0.43482 3.8419-0.25017 1.0126-0.60755 1.4951-0.45268 0.6016-1.2568 0.6016-0.96493 0-2.1086-0.61946l0.14891-1.2568q1.1317 0.54203 1.7571 0.54203 0.32761 0 0.5063-0.35143 0.1906-0.38121 0.36334-1.1019 0.33951-1.4593 0.33951-3.0675 0-0.84581-0.33951-1.096-0.29187-0.20847-1.0424-0.20847h-0.91729q-0.94706 4.2171-2.7161 7.1953l-1.1972-0.6552q1.8286-3.0675 2.6089-6.5401h-2.3766zm9.8936 5.879q-0.67307-2.4779-2.1264-4.8664l1.1615-0.52416q1.501 2.3945 2.2456 4.8187zm-0.88154-5.7062q-0.3693-0.96494-1.1913-2.1443l0.92324-0.34547q0.72072 1.0185 1.2092 2.1145zm1.6023-0.51225q-0.4646-1.1496-1.1853-2.1622l0.87559-0.29186q0.68498 0.81603 1.1972 2.0371z"></path>
  <path d="m133.02 20.683h2.9782q0.12509-1.0305 0.19061-1.4772l1.3223 0.137-0.0179 0.0953-0.0417 0.30973-0.1072 0.79816-0.0179 0.137h4.9259v1.1734h-5.0629q-0.0179 0.20252-0.0774 0.86368l-0.0298 0.38121-0.0119 0.11913q0.71477-0.11913 1.4593-0.11913 2.0609 0 3.2701 0.96494 0.31569 0.25612 0.57777 0.64329 0.52417 0.77433 0.52417 1.781 0 1.7929-1.4772 2.734-0.96494 0.61351-2.6744 0.92324l-0.5718-1.0483q1.5665-0.25612 2.3945-0.81603 0.98877-0.67307 0.98877-1.8584 0-0.76838-0.42886-1.3521-0.25017-0.34547-0.67308-0.5599-1.4831 2.5851-3.8895 4.2052-0.77434 0.52416-1.2985 0.6969-0.5182 0.16678-1.0126 0.16678-0.91132 0-1.37-0.60755-0.38121-0.50034-0.38121-1.37 0-1.5427 1.1675-2.7221 0.86367-0.87559 2.0788-1.3461l0.0119-0.16082q0.0715-1.0245 0.11913-1.5189h-2.865zm2.6804 4.0623q-0.83389 0.44673-1.3342 1.1138-0.63733 0.85176-0.63733 1.6976 0 0.94111 0.67902 0.94111 0.59564 0 1.4653-0.64329-0.17869-1.1972-0.17869-2.5374 0-0.18465 6e-3 -0.57181zm1.2806-0.45269q-0.0119 0.38717-0.0119 0.70286 0 1.0126 0.0893 1.906 1.4414-1.3402 2.2039-2.7399-0.38121-0.04765-0.76242-0.04765-0.7922 0-1.5189 0.17869z"></path>
  <path d="m148.71 24.448q-0.59564 1.1138-1.2211 1.6737-0.53607 0.48247-0.9828 0.48247-0.57182 0-0.92325-0.77433-0.36334-0.81007-0.36334-2.5374 0-1.7393 0.40504-3.7704l1.3044 0.19656q-0.39312 2.0133-0.39312 3.4071 0 1.8763 0.26804 1.8763 0.10125 0 0.34547-0.28591 0.38121-0.42886 0.80411-1.2628zm-0.90537 4.6639q1.8286-0.51225 2.7578-1.5308 1.1377-1.2449 1.1377-3.7644 0-1.912-0.36929-4.2946l1.364-0.13104q0.39312 2.4064 0.39312 4.4852 0 3.3713-1.7333 4.8545-1.0543 0.90537-2.8412 1.501z"></path>
  <path d="m160.34 19.265h1.3164v1.501h3.7466v1.1317h-3.7466v1.4176h3.5381v1.1198h-3.5381v1.8405q2.1205 0.71477 4.1814 2.1503l-0.70285 1.1317q-1.5606-1.1675-3.4785-2.0609-0.0477 1.0185-0.39312 1.5784-0.60159 0.97089-2.3706 0.97089-1.364 0-2.192-0.51225-0.92324-0.57181-0.92324-1.5487 0-1.1675 1.2449-1.7274 0.83389-0.3693 2.1681-0.3693 0.52416 0 1.1496 0.08339v-1.5368h-4.2231v-1.1198h4.2231v-1.4176h-4.4792v-1.1317h4.4792zm0 7.8148q-0.70881-0.14891-1.3581-0.14891-0.7922 0-1.2866 0.2323-0.58968 0.27995-0.58968 0.79816 0 0.43482 0.45864 0.70286 0.4646 0.27399 1.2389 0.27399 0.91728 0 1.2628-0.48842 0.27399-0.38121 0.27399-1.1377z"></path>
  <path d="m172.99 19.23h1.3402v1.644h3.5143v1.1496h-3.5143v2.5493q0.20848 0.73264 0.20848 1.3045 0 2.1205-0.93516 3.1152-1.0185 1.09-3.0675 1.507l-0.67903-1.0126q1.5904-0.30378 2.3587-0.85772 0.72072-0.52416 0.97089-1.4236-0.63733 0.6969-1.5189 0.6969-0.98876 0-1.6023-0.5599-0.72072-0.66116-0.72072-1.918 0-0.66116 0.31569-1.2747 0.20847-0.39312 0.51225-0.6552 0.70285-0.59564 1.6857-0.59564 0.62542 0 1.1317 0.29782v-1.1734h-5.879v-1.1496h5.879zm0.0476 6.1827v-0.22039q0-0.38121-0.17869-0.67307-0.33356-0.54799-0.96493-0.54799-0.32165 0-0.6016 0.17869-0.6552 0.41099-0.6552 1.2628 0 0.53608 0.23825 0.90537 0.33356 0.51225 0.98281 0.51225 0.58968 0 0.93515-0.53012 0.24421-0.37525 0.24421-0.8875z"></path>
 </g>
</svg>
