<?xml version="1.0" encoding="UTF-8"?>
<svg width="480" height="360" version="1.1" viewBox="0 0 480 360" xmlns="http://www.w3.org/2000/svg">
 <g dominant-baseline="central" fill="#fff" aria-label="宮崎県北部平野部">
  <path d="m251 172.48h7.9785v4.3164h-2.1582v-2.6367h-13.701v2.6367h-2.1191v-4.3164h7.8613v-1.9824h2.1387zm5 3.2812v5.2734h-5.1855q-0.26368 0.9082-0.66407 1.7578h7.793v6.709h-2.2559v-1.0059h-11.367v1.0059h-2.2363v-6.709h5.8105q0.45899-1.2598 0.57618-1.7578h-4.5898v-5.2734zm-9.9219 1.582v2.0898h7.7441v-2.0898zm-1.7578 7.1094v2.3633h11.367v-2.3633z" dominant-baseline="central"/>
  <path d="m277.82 179.78v7.8809q0 0.87891-0.32227 1.2891-0.39063 0.48828-1.6504 0.48828-1.2109 0-2.5488-0.13672l-0.40039-1.9434q1.3965 0.24414 2.3144 0.24414 0.41016 0 0.50782-0.15625 0.0781-0.12696 0.0781-0.48829v-7.1777h-8.1738v6.1621h-5.1465v1.6602h-1.7188v-13.682h1.6406v10.156h0.95703v-13.359h1.6992v13.359h1.0059v-10.156h1.5625v4.1016h11.934v1.7578zm-3.9453-5.6738q2.373 0.97656 4.8242 2.373l-1.2793 1.4551q-1.8066-1.1914-4.2383-2.4609-1.3086 1.8164-4.043 2.5098l-1.0352-1.5234q2.9297-0.64453 3.7695-2.4609h-3.8574v-1.6992h4.1016v-1.7969h1.9434v1.7969h4.6777v1.6992h-4.8242q-0.01 0.0488-0.0391 0.10742zm0.72266 7.0606v5.2344h-4.1797v0.9375h-1.7773v-6.1719zm-4.2188 1.6016v2.0312h2.5586v-2.0312z" dominant-baseline="central"/>
  <path d="m296.76 170.98v9.4629h-11.621v-9.4629zm-9.5215 1.543v1.2207h7.4023v-1.2207zm0 2.5977v1.2207h7.4023v-1.2207zm0 2.5976v1.2598h7.4023v-1.2598zm-3.9356 4.0234h16.191v1.6992h-8.0762v6.0644h-2.2168v-6.0644h-8.0371v-10.957h2.1387zm-2.5 5.8984q2.3242-1.0742 4.4434-3.6035l1.7969 1.0449q-2.0898 2.6465-4.6387 4.1602zm16.836 1.2598q-1.4941-1.8359-4.4922-3.8574l1.6797-1.1816q2.3535 1.3574 4.6191 3.5644z" dominant-baseline="central"/>
  <path d="m305.84 184.3q-2.6953 1.416-4.6973 2.168l-0.82031-2.1484q3.1348-1.0547 5.5176-2.1875v-4.375h-4.834v-2.0606h4.834v-5.1953h2.1777v19.004h-2.1777zm6.9434-7.6074q2.2754-1.1914 4.4141-3.0273l1.6211 1.6992q-2.8906 2.0508-6.0352 3.4961v7.3242q0 0.47852 0.3125 0.58594 0.33203 0.10742 1.5332 0.10742 1.582 0 1.9824-0.18555 0.2832-0.12695 0.39062-0.79101 0.14649-0.92774 0.21485-2.998l2.1875 0.67383q-0.0977 2.5293-0.3125 3.6328-0.24414 1.2305-1.2793 1.5918-0.98633 0.33203-3.2324 0.33203-2.6367 0-3.3203-0.43945-0.6543-0.42969-0.6543-1.6504v-16.543h2.1777z" dominant-baseline="central"/>
  <path d="m326.98 172.75h4.1797v1.8848h-1.377q-0.3711 1.4941-0.9961 3.1348h2.6074v1.8848h-10.898v-1.8848h2.3926q-0.39062-1.875-0.82031-3.1348h-1.2695v-1.8848h4.1406v-2.2559h2.041zm-2.9394 1.8848q0.49805 1.4551 0.77148 3.1348h1.9922l0.09766-0.27344q0.41992-1.1133 0.78125-2.5293l0.0879-0.33203zm6.0547 6.6602v7.998h-2.002v-0.95703h-4.2578v1.1621h-2.0606v-8.2031zm-6.2598 1.7969v3.3887h4.2578v-3.3887zm13.047-4.9316q1.1621 1.1035 1.8457 2.627 0.67383 1.5234 0.67383 3.0859 0 1.4453-0.53711 2.1289-0.55664 0.71289-1.8359 0.71289-1.0938 0-2.1191-0.15625l-0.47852-2.0801q1.1816 0.21485 1.9531 0.21485 0.58594 0 0.73242-0.27344 0.0977-0.19531 0.0977-0.78125 0-2.4121-1.4453-4.1602-0.38086-0.45898-0.95703-0.98633l0.11719-0.27343q1.0156-2.2949 1.582-4.7852h-2.5v16.064h-2.0215v-18.086h5.8789l1.084 0.99609q-0.98633 3.3594-2.0703 5.752z" dominant-baseline="central"/>
  <path d="m351.04 173.3v7.6367h8.4668v2.002h-8.4668v6.5625h-2.1973v-6.5625h-8.3398v-2.002h8.3398v-7.6367h-7.4414v-1.9434h17.217v1.9434zm-6.5137 6.8945q-0.96679-2.8711-2.1387-5.1172l2.1191-0.85937q1.0938 1.8945 2.2363 5.1367zm8.6524-0.67383q1.2598-2.3633 2.1289-5.4199l2.2168 0.71289q-0.91797 2.8223-2.3047 5.4785z" dominant-baseline="central"/>
  <path d="m370.08 171.22v8.9551h-3.4766v1.9238h3.5547v1.7578h-3.5547v2.1582q0.19531-0.0293 0.52735-0.0781 1.3965-0.20508 3.4863-0.5957l0.12696 1.7383q-4.6289 1.0352-9.8633 1.6797l-0.59571-1.9824q2.2363-0.20507 4.2285-0.46875l0.10742-0.0195v-2.4316h-3.7793v-1.7578h3.7793v-1.9238h-3.4375v-8.9551zm-7.1973 1.6602v1.9727h1.8262v-1.9727zm0 3.5742v2.0605h1.8262v-2.0605zm5.5176 2.0605v-2.0605h-1.875v2.0605zm0-3.6621v-1.9727h-1.875v1.9727zm7.6562 1.2891q0.3125 0.2832 0.92773 0.8789l-0.91797 0.82032h2.8418l0.83984 0.8789q-0.97656 3.1543-1.8164 4.9609l-1.8848-0.60547q0.80078-1.5234 1.3965-3.3984h-1.875v8.1152q0 0.86914-0.32227 1.2598-0.38086 0.44922-1.5332 0.44922-1.25 0-2.4024-0.16601l-0.32226-1.9629q1.5234 0.18554 2.0898 0.18554 0.27344 0 0.35156-0.12695 0.0586-0.11719 0.0586-0.37109v-7.3828h-2.7637v-1.8359h4.3555q-1.5723-1.6113-3.4766-2.959l1.3477-1.2012q0.80078 0.55664 1.8359 1.377 0.85937-0.89843 1.6406-2.0801h-5.3418v-1.7578h7.2461l0.95703 1.0547q-1.582 2.2754-3.2324 3.8672z" dominant-baseline="central"/>
  <path d="m386.98 172.75h4.1797v1.8848h-1.377q-0.3711 1.4941-0.9961 3.1348h2.6074v1.8848h-10.898v-1.8848h2.3926q-0.39062-1.875-0.82031-3.1348h-1.2695v-1.8848h4.1406v-2.2559h2.041zm-2.9394 1.8848q0.49805 1.4551 0.77148 3.1348h1.9922l0.09766-0.27344q0.41992-1.1133 0.78125-2.5293l0.0879-0.33203zm6.0547 6.6602v7.998h-2.002v-0.95703h-4.2578v1.1621h-2.0606v-8.2031zm-6.2598 1.7969v3.3887h4.2578v-3.3887zm13.047-4.9316q1.1621 1.1035 1.8457 2.627 0.67383 1.5234 0.67383 3.0859 0 1.4453-0.53711 2.1289-0.55664 0.71289-1.8359 0.71289-1.0938 0-2.1191-0.15625l-0.47852-2.0801q1.1816 0.21485 1.9531 0.21485 0.58594 0 0.73242-0.27344 0.0977-0.19531 0.0977-0.78125 0-2.4121-1.4453-4.1602-0.38086-0.45898-0.95703-0.98633l0.11719-0.27343q1.0156-2.2949 1.582-4.7852h-2.5v16.064h-2.0215v-18.086h5.8789l1.084 0.99609q-0.98633 3.3594-2.0703 5.752z" dominant-baseline="central"/>
 </g>
</svg>
