<svg version="1.1" xmlns="http://www.w3.org/2000/svg" xmlns:xlink="http://www.w3.org/1999/xlink" width="109.31566" height="110.47553" viewBox="0,0,109.31566,110.47553"><g transform="translate(-345.20727,-86.80112)"><g data-paper-data="{&quot;isPaintingLayer&quot;:true}" fill="#ff0000" fill-rule="evenodd" stroke="none" stroke-width="0" stroke-linecap="round" stroke-linejoin="round" stroke-miterlimit="10" stroke-dasharray="" stroke-dashoffset="0" style="mix-blend-mode: normal"><path d="M359.41672,86.94107l1.13995,1.58994l1.09996,0.14999l1.95992,-0.59998l2.22991,2.30991l-0.48998,0.66997l1.11996,1.69993l1.09996,2.85989l-0.57998,0.44998l0.78997,1.32995l0.71997,-0.08l1.75993,-1.76993l1.63993,-0.86997l0.70997,0.60998l2.83989,0.88996l1.29995,-1.70993l1.91992,0.18999l1.81993,0.80997l0.51998,1.01996l1.51994,0.62997l2.86989,-0.43998l1.30995,0.70997l1.34995,-0.15999l0.13999,1.25995l1.13995,-0.12l1.55994,1.10996l2.5799,-0.61998l1.05996,0.05l3.32987,0.76997l1.64993,0.74997l1.59994,1.13995l1.88992,0.58998l1.72993,-0.13999l1.12995,-0.47998l0.47998,0.90996h1.29995l0.94996,-1.31995l0.03,-1.29995l0.81997,-0.72997l-1.07996,-1.25995l0.52998,-1.77993l-0.45998,-1.99992l0.92996,-2.4799l2.36991,-1.00996l1.82993,1.06996l1.54994,-0.09l1.86993,-1.07996l1.15995,0.24999l2.06992,-0.39998l1.02996,0.57998l0.61998,1.12995l0.88996,1.17995l4.43982,-0.59998l1.97992,0.25999l0.34999,2.05992l0.39998,0.66997l2.80989,1.64993l2.00992,-0.14999l1.68993,1.27995l0.97996,0.28999l0.45998,0.83997l1.32995,1.01996l0.80997,1.34995l1.58994,1.88992l1.14995,0.80997l0.77997,1.53994l1.45994,0.45998l0.39998,-0.63997l1.37994,1.32995l1.63993,0.92996l0.57998,-0.55998l2.95988,-0.37998l0.29999,1.58994l-0.37998,0.61998l2.18991,0.81997l0.44998,0.73997l-0.47998,0.76997l-2.17991,0.62997l-2.76989,-0.79997l-0.66997,0.71997l-1.27995,0.35999l-0.12,0.74997l-0.98996,0.94996l0.1,1.74993l-0.66997,0.48998l-0.12999,2.4599l0.62997,0.40998l-0.08,1.53994l0.53998,0.92996l0.1,1.89992l2.87988,0.39998l-1.16995,2.07992l1.57994,3.51986l-2.67989,2.3999l-1.02996,0.18999l-0.35999,1.04996l-2.33991,-1.16995l-0.73997,0.64997l-2.16991,-0.64997l-1.17995,1.11996l-1.69993,-1.87992l-1.50994,-0.22999l-0.54998,0.90996l-0.96996,0.32999l-0.59998,0.88996l-2.4599,-0.27999l-0.59998,1.07996l-0.77997,0.39998l-0.60998,-0.73997l-1.86993,0.70997l0.28999,1.74993l-0.76997,1.31995l-1.65993,1.34995l-1.22995,-0.12999l-0.30999,1.13995l-1.61994,-0.35999l-1.77993,-0.85997l-1.51994,0.93996l-1.47994,0.34999l0.89996,0.86997l0.23999,1.61994l-0.39998,1.27995l0.76997,0.51998l-0.18999,1.32995l0.29999,0.94996l1.34995,0.63997l0.32999,0.88996l-0.42998,1.21995l0.83997,1.55994l2.5199,-0.40998l2.4999,1.29995l-0.14999,0.66997l1.78993,1.78993l-0.25999,2.18991l0.15999,1.03996l-1.03996,0.50998l-0.86997,1.15995l0.09,1.60994l1.22995,2.4499l-0.94996,2.5099l0.21999,0.60998l1.69993,1.18995l0.53998,1.26995l0.15999,3.22987l-0.48998,1.39994l0.64997,1.36995l-0.29999,1.87992l-2.28991,1.71993l-0.02,1.04996l-1.52994,1.32995l0.49998,1.89992l0.81997,0.93996l-0.92996,0.73997l-0.47998,1.25995l0.46998,2.05992l-0.02,1.33995l-1.69993,-0.24999l-0.06,1.46994l-0.51998,2.32991l-1.00996,0.47998l0.16999,0.98996l-1.33995,0.49998l0.58998,-1.50994l-0.07,-0.83997l-1.67993,-0.41998l-0.42998,-1.32995l-1.57994,0.34999l-0.65997,-1.31995l-1.82993,-0.63997l-1.83993,0.70997l-1.78993,-2.09992l-1.01996,0.54998l-0.35999,1.80993l0.14999,1.45994l-1.92992,-0.52998l-0.53998,0.62997l-1.06996,-0.1l-1.31995,2.92988l0.13999,1.05996l-2.20991,0.79997l-0.26999,1.08996l-1.66993,-0.11l-0.84997,-1.06996l-0.12,-1.61994l-2.5099,-1.92992l-1.34995,0.77997l-2.87988,-1.59994l0.12,-2.99988l-0.99996,0.18999l-2.70989,-2.28991l0.19999,-0.85997l1.55994,0.28999l0.97996,-0.62997l1.65993,-2.08992l-0.12,-1.19995l-0.60998,-1.52994l-1.56994,-0.37998l-1.57994,0.35999l-0.56998,-0.87996l-1.05996,-0.36999l-1.68993,1.01996l-1.32995,-0.56998l-1.38994,0.34999l-0.40998,0.58998l-1.09996,-0.16999l-0.28999,-0.70997l-1.32995,-0.12l-1.16995,0.72997l-0.94996,-0.17999l-1.07996,0.49998l-2.27991,-3.78985l-1.42994,-0.55998l-2.24991,-1.38994l-0.42998,0.59998l-0.99996,-1.44994l-1.71993,0.01l-1.74993,-0.45998l-1.12995,-1.33995l-2.36991,-1.17995l-0.35999,-0.92996l-1.29995,-0.80997l-3.00988,0.01l-1.17995,0.74997l-0.85997,0.02l0.11,-1.40994l-1.07996,-2.6199l0.05,-1.40994l1.43994,-1.03996l0.12,-0.76997l1.07996,-1.24995l0.52998,-1.52994l-0.25999,-0.73997l1.16995,-1.31995l-0.57998,-1.39994l0.49998,-0.98996l-0.43998,-0.76997l-2.10992,-0.70997l-0.68997,0.42998l-1.90992,-0.93996l0.29999,-1.38994l0.72997,-1.54994l-0.72997,-1.18995l1.40994,-0.78997l-2.02992,-2.08992l1.57994,-1.53994l0.83997,-1.96992l1.22995,0.11l0.20999,-0.73997l1.95992,-0.75997l-1.04996,-1.48994l-0.88996,0.16999l-0.97996,-0.78997l-1.38994,-0.38998l0.27999,-0.86997l-0.44998,-1.12995l0.73997,-1.31995l1.70993,-0.42998l0.11,-1.49994l-1.14995,-0.39998l-0.82997,-1.40994l-1.19995,-0.32999l-1.09996,-0.83997l-2.80989,-1.42994l-0.05,-3.08988l-2.36991,-0.39998l0.35999,-1.37994l-0.42998,-0.40998l0.56998,-1.93992l1.05996,-0.17999l-0.59998,-1.77993l-1.46994,-0.49998l-0.01,-1.52994l-1.27995,-1.16995l0.33999,-1.91992l-1.34995,-0.13999l-1.22995,-0.83997l1.04996,-1.67993l-0.54998,-1.33995l2.28991,-0.54998l0.39998,-0.81997l0.05,-1.62993l-0.85997,-1.43994l1.24995,-2.11992l0.65997,-0.18999l2.03992,-1.58994l0.23999,-0.83997l-0.51998,-1.83993l0.90996,-0.62997l0.18999,-1.86993l1.18995,-0.37998l0.47998,-1.90992l-0.18999,-1.38994l-1.02996,-0.78997l0.12,-1.66993l0.98996,0.06l1.39994,-0.68997l0.99996,-2.22991l1.09996,-0.39998l0.71997,-1.69993l1.27995,0.13999"/></g></g></svg>