<?xml version="1.0" encoding="UTF-8"?>
<svg width="480" height="360" version="1.1" viewBox="0 0 480 360" xmlns="http://www.w3.org/2000/svg">
 <g dominant-baseline="central" fill="#fff" aria-label="兵庫県南西部">
  <path d="m255.03 170.44 1.8457 1.6602q-4.9805 1.0449-10.381 1.4844v2.1777h11.943v1.8848h-3.6035v3.9648h4.6289v1.8848h-18.965v-1.8848h3.7988v-9.7852l0.64454-0.0391q4.9219-0.25391 10.088-1.3477zm-2.373 7.207h-6.1621v3.9648h6.1621zm-11.934 10.088q3.3594-1.2891 5.8984-3.8965l1.8164 1.2793q-2.9688 2.9688-6.123 4.4238zm16.914 1.6016q-2.7344-2.168-6.0742-4.0625l1.5137-1.3574q3.4277 1.5039 6.1816 3.6816z" dominant-baseline="central"/>
  <path d="m272.5 173.8v1.1035h6.377v1.582h-6.377v1.0547h5.4394v6.6797h-5.4394v1.1426h7.0801v1.7188h-7.0801v2.4219h-2.0606v-2.4219h-6.7383v-1.7188h6.7383v-1.1426h-5.3613v-6.6797h5.3613v-1.0547h-6.1035v-1.582h6.1035v-1.1035h-6.5625v4.9609q0 6.7676-1.6992 10.684l-1.8359-1.3672q0.91797-2.5 1.2207-5.3223 0.21484-2.0312 0.21484-4.6387v-5.9766h7.4805v-1.6406h2.1973v1.6406h7.8418v1.6602zm-2.0606 5.1172h-3.3203v1.2402h3.3203zm2.0606 0v1.2402h3.3789v-1.2402zm-2.0606 2.5976h-3.3203v1.3281h3.3203zm2.0606 0v1.3281h3.3789v-1.3281z" dominant-baseline="central"/>
  <path d="m296.76 170.98v9.4629h-11.621v-9.4629zm-9.5215 1.543v1.2207h7.4023v-1.2207zm0 2.5977v1.2207h7.4023v-1.2207zm0 2.5976v1.2598h7.4023v-1.2598zm-3.9356 4.0234h16.191v1.6992h-8.0762v6.0644h-2.2168v-6.0644h-8.0371v-10.957h2.1387zm-2.5 5.8984q2.3242-1.0742 4.4434-3.6035l1.7969 1.0449q-2.0898 2.6465-4.6387 4.1602zm16.836 1.2598q-1.4941-1.8359-4.4922-3.8574l1.6797-1.1816q2.3535 1.3574 4.6191 3.5644z" dominant-baseline="central"/>
  <path d="m308.92 182.24h-4.043v-1.6016h1.9531q-0.43945-0.9961-0.99609-1.8555l1.7578-0.64453q0.76172 1.2793 1.2305 2.5h2.2949q0.57617-1.1816 1.0156-2.5391l1.9629 0.61524q-0.49805 1.0742-1.0547 1.9238h2.0996v1.6016h-4.1797v1.4258h4.4531v1.6602h-4.4531v3.6914h-2.041v-3.6914h-4.2871v-1.6602h4.2871zm2.0996-6.0156h7.4024v11.416q0 1.0059-0.53711 1.416-0.44922 0.35157-1.5137 0.35157-1.377 0-2.6562-0.14649l-0.47852-1.9629q1.709 0.20508 2.5586 0.20508 0.35156 0 0.41015-0.17578 0.0391-0.10742 0.0391-0.30274v-9.1016h-12.48v11.582h-2.1777v-13.281h7.2754v-1.7676h-8.3594v-1.8164h8.3594v-2.1387h2.1582v2.1387h8.4766v1.8164h-8.4766z" dominant-baseline="central"/>
  <path d="m326.44 176.07v-2.7344h-5.8203v-1.8848h18.779v1.8848h-6.4551v2.7344h5.4785v13.164h-2.1191v-1.377h-12.607v1.377h-2.0996v-13.164zm2.0215 0h2.4609v-2.7344h-2.4609zm-2.0312 1.7773h-2.7344v8.1543h12.607v-2.9297h-3.7012q-1.6797 0-1.6797-1.6797v-3.5449h-2.4805q-0.0391 2.4024-0.72266 3.8477-0.64453 1.377-2.5391 2.7246l-1.3477-1.5039q1.8164-1.1133 2.2949-2.7539 0.2539-0.87891 0.30273-2.3145zm6.5137 0v2.9883q0 0.38086 0.3418 0.38086h3.0176v-3.3691z" dominant-baseline="central"/>
  <path d="m346.98 172.75h4.1797v1.8848h-1.377q-0.3711 1.4941-0.9961 3.1348h2.6074v1.8848h-10.898v-1.8848h2.3926q-0.39062-1.875-0.82031-3.1348h-1.2695v-1.8848h4.1406v-2.2559h2.041zm-2.9394 1.8848q0.49805 1.4551 0.77148 3.1348h1.9922l0.09766-0.27344q0.41992-1.1133 0.78125-2.5293l0.0879-0.33203zm6.0547 6.6602v7.998h-2.002v-0.95703h-4.2578v1.1621h-2.0606v-8.2031zm-6.2598 1.7969v3.3887h4.2578v-3.3887zm13.047-4.9316q1.1621 1.1035 1.8457 2.627 0.67383 1.5234 0.67383 3.0859 0 1.4453-0.53711 2.1289-0.55664 0.71289-1.8359 0.71289-1.0938 0-2.1191-0.15625l-0.47852-2.0801q1.1816 0.21485 1.9531 0.21485 0.58594 0 0.73242-0.27344 0.0977-0.19531 0.0977-0.78125 0-2.4121-1.4453-4.1602-0.38086-0.45898-0.95703-0.98633l0.11719-0.27343q1.0156-2.2949 1.582-4.7852h-2.5v16.064h-2.0215v-18.086h5.8789l1.084 0.99609q-0.98633 3.3594-2.0703 5.752z" dominant-baseline="central"/>
 </g>
</svg>
