<svg xmlns="http://www.w3.org/2000/svg" viewBox="0 0 224 76" version="1.1" height="76" width="224">
 <g transform="translate(-440.94 12.43)">
  <rect stroke-linejoin="round" stroke-linecap="round" stop-color="#000000" fill="none" height="76" width="224" y="-12.43" x="440.94"></rect>
  <g shape-rendering="auto" fill-rule="evenodd" transform="translate(-3.2808 -.000744)">
   <path style="font-feature-settings:normal;font-variant-alternates:normal;font-variant-caps:normal;font-variant-east-asian:normal;font-variant-ligatures:normal;font-variant-numeric:normal;font-variant-position:normal;font-variation-settings:normal;inline-size:0;isolation:auto;mix-blend-mode:normal;paint-order:stroke markers fill;shape-margin:0;shape-padding:0;text-decoration-color:#000000;text-decoration-line:none;text-decoration-style:solid;text-indent:0;text-orientation:mixed;text-transform:none;white-space:normal" stop-color="#000000" image-rendering="auto" fill="#7d97b4" color-rendering="auto" color="#000000" d="m558.22 10.57c-8.8294 1e-6 -16 7.1706-16 16 0 8.8294 7.1706 16 16 16h86c8.8294 0 16-7.1706 16-16 0-8.8294-7.1706-16-16-16z"></path>
   <path style="font-feature-settings:normal;font-variant-alternates:normal;font-variant-caps:normal;font-variant-east-asian:normal;font-variant-ligatures:normal;font-variant-numeric:normal;font-variant-position:normal;font-variation-settings:normal;inline-size:0;isolation:auto;mix-blend-mode:normal;paint-order:stroke markers fill;shape-margin:0;shape-padding:0;text-decoration-color:#000000;text-decoration-line:none;text-decoration-style:solid;text-indent:0;text-orientation:mixed;text-transform:none;white-space:normal" stop-color="#000000" image-rendering="auto" fill="#31476d" color-rendering="auto" color="#000000" d="m558.22 12.57h86c7.756 0 14 6.244 14 14s-6.244 14-14 14h-86c-7.756 0-14-6.244-14-14s6.244-14 14-14z"></path>
  </g>
  <path style="font-feature-settings:normal;font-variant-alternates:normal;font-variant-caps:normal;font-variant-east-asian:normal;font-variant-ligatures:normal;font-variant-numeric:normal;font-variant-position:normal;font-variation-settings:normal;inline-size:0;isolation:auto;mix-blend-mode:normal;paint-order:normal;shape-margin:0;shape-padding:0;text-decoration-color:#000000;text-decoration-line:none;text-decoration-style:solid;text-indent:0;text-orientation:mixed;text-transform:none;white-space:normal" stop-color="#000000" shape-rendering="auto" opacity=".988" image-rendering="auto" fill-rule="evenodd" fill="#fff" color-rendering="auto" color="#000000" d="m639.91 20.569a1.0001 1.0001 0 0 1 1.0234 1v10a1.0001 1.0001 0 0 1-1.6406 0.76758l-6-5a1.0001 1.0001 0 0 1 0-1.5371l6-5a1.0001 1.0001 0 0 1 0.61719-0.23047z"></path>
  <g aria-label="やめる" fill="#fff" transform="translate(-1.6684 -40)">
   <path d="m575.46 60.899q0.54688 1.1143 1.2441 2.7207 0.67676-0.24609 1.7363-0.58789 0.57422-0.18457 0.86817-0.28027-0.47852-1.1348-1.0186-2.0576l1.2578-0.47852q0.62207 1.0186 1.1348 2.2012 0.89551-0.18457 1.5176-0.18457 1.2988 0 2.1191 0.65625 0.12305 0.10254 0.21191 0.19824 0.92285 0.98438 0.92285 2.3379 0 2.0986-1.6201 3.001-0.95703 0.54004-3.0146 0.76562l-0.56055-1.2715q1.8867-0.15723 2.8027-0.72461 0.82714-0.50586 0.82714-1.8115 0-0.84766-0.44433-1.3262-0.45117-0.49219-1.2578-0.49219-0.36231 0-0.98438 0.10938 0.32129 0.84766 0.62891 1.8594l-1.3193 0.63574q-0.35547-1.2441-0.68359-2.1465-1.21 0.34863-2.5908 0.85449 1.6406 4.0195 2.7002 7.4512l-1.415 0.47168q-1.1074-3.6436-2.6728-7.417l-0.24609 0.0957q-1.5723 0.60156-2.2285 0.86816l-0.50586-1.3604 0.19141-0.06836q1.5791-0.58106 2.2559-0.82715-0.64942-1.5107-1.2441-2.7275z"></path>
   <path d="m589.59 60.885q0.21191 0.96387 0.6289 2.3857 1.6406-0.89551 3.6299-0.94336 0.17773-0.99805 0.29394-2.0439l1.5107 0.29395q-0.15039 1.0801-0.30761 1.9072 1.5039 0.35547 2.4062 1.2168 1.4287 1.374 1.4287 3.5479 0 2.6318-1.6953 3.9375-1.2578 0.9707-3.0898 1.2646l-0.71777-1.2715q1.8047-0.3418 2.8164-1.1553 1.1074-0.88867 1.1074-2.8643 0-1.4424-0.84083-2.4062-0.60156-0.69043-1.668-1.0117-0.5127 2.1328-1.0459 3.3564-0.72461 1.6748-1.9551 3.0078-1.6611 1.7979-3.0898 1.7979-1.1211 0-1.6816-1.0938-0.39649-0.78613-0.39649-1.9072 0-2.7344 2.1055-4.751-0.38281-1.1963-0.76563-2.7754zm-0.082 4.6484q-1.2031 1.5176-1.2031 3.2197 0 0.77246 0.21875 1.251 0.21191 0.47168 0.62207 0.47168 0.71094 0 1.9277-1.3535-0.84765-1.5381-1.5654-3.5889zm4.0879-1.9551q-1.627 0.08887-2.9668 0.9502 0.64941 1.9277 1.3877 3.3291 1.0732-1.7295 1.5791-4.2793z"></path>
   <path d="m602.46 60.639h7.6699l0.73145 1.1348q-3.5547 2.1738-6.1592 3.9512 1.6816-0.7041 3.377-0.7041 1.5244 0 2.543 0.48535 0.94336 0.45117 1.4697 1.2305 0.54687 0.82715 0.54687 1.9004 0 1.5039-1.0254 2.5156-0.7041 0.7041-1.8047 1.0664-1.4424 0.47168-3.1582 0.47168-1.9756 0-2.9121-0.73144-0.73144-0.57422-0.73144-1.5518 0-0.73828 0.5332-1.3125 0.80664-0.86816 2.1807-0.86816 1.4561 0 2.3311 0.97754 0.63574 0.71094 0.91602 1.9072 2.1055-0.66992 2.1055-2.4746 0-1.3672-1.1416-2.0166-0.76562-0.4375-1.9414-0.4375-1.7568 0-3.1719 0.48535-1.0459 0.35547-2.8096 1.7158l-0.96387-1.1621q1.9004-1.6406 4.3272-3.3291 1.6748-1.1621 2.9531-1.9072h-5.8652zm5.1816 10.739q-0.48535-1.9346-1.9072-1.9346-0.78614 0-1.1348 0.49902-0.16406 0.22559-0.16406 0.48535 0 0.54004 0.76562 0.81348 0.55371 0.19141 1.4834 0.19141 0.39649 0 0.95703-0.05469z"></path>
  </g>
 </g>
</svg>
