<?xml version="1.0" encoding="UTF-8"?>
<svg width="480" height="360" version="1.1" viewBox="0 0 480 360" xmlns="http://www.w3.org/2000/svg">
 <g fill="#fff" aria-label="宮城県">
  <path d="m250.99 172.48h7.9785v4.3164h-2.1582v-2.6367h-13.701v2.6367h-2.1191v-4.3164h7.8613v-1.9824h2.1387zm5 3.2812v5.2734h-5.1856q-0.26367 0.9082-0.66406 1.7578h7.793v6.709h-2.2558v-1.0059h-11.367v1.0059h-2.2363v-6.709h5.8106q0.45898-1.2598 0.57617-1.7578h-4.5898v-5.2734zm-9.9219 1.582v2.0898h7.7441v-2.0898zm-1.7578 7.1094v2.3633h11.367v-2.3633z"/>
  <path d="m274.22 183.85q-0.80078-2.7246-1.1328-8.0859h-4.4824v2.4316h3.9355q-0.0586 4.7559-0.40039 6.4746-0.17578 0.84961-0.69336 1.1816-0.41015 0.26367-1.1719 0.26367-0.82031 0-1.3965-0.14648l-0.19531-1.7969q0.71289 0.11719 1.1524 0.11719 0.43945 0 0.5664-0.27344 0.23438-0.5664 0.38086-4.0234h-2.1777q-0.01 0.16602-0.01 0.45899-0.0391 3.5156-0.66406 5.8203-0.44922 1.6406-1.4356 3.125l-1.6602-1.2891q1.0742-1.6309 1.4648-3.8867 0.32227-1.8652 0.32227-4.5508v-5.791h6.377q-0.0488-1.2305-0.0586-3.3789h2.002q0.01 2.207 0.0586 3.3789h4.3848v1.8848h-4.2969l0.01 0.20508q0.18554 3.0371 0.61523 5.3613 0.90821-1.8262 1.4844-3.8476l1.8457 0.79101q-1.2109 3.2812-2.666 5.6934 0.56641 1.5625 1.1524 2.4121 0.2539 0.38086 0.33203 0.38086 0.17578 0 0.38086-2.1777l0.0391-0.41016 1.5234 0.97656q-0.20508 2.3145-0.43945 3.0469-0.36133 1.1426-1.1816 1.1426-1.3867 0-3.1348-3.418-1.5723 2.0508-3.4473 3.5156l-1.377-1.5234q1.8848-1.3672 3.2227-3.0371 0.35156-0.43946 0.77148-1.0254zm-11.494-8.6133v-4.8144h1.9824v4.8144h1.4356v1.9629h-1.4356v6.1133q0.63477-0.27344 1.25-0.57618l0.18555 1.8652q-2.207 1.3184-5.2539 2.4023l-0.64453-2.0605q1.377-0.41016 2.4805-0.83008v-6.9141h-2.1973v-1.9629zm14.473-1.416q-0.6836-1.4062-1.7578-2.5781l1.543-0.82031q1.1426 1.1719 1.8555 2.5z"/>
  <path d="m296.76 170.98v9.4629h-11.621v-9.4629zm-9.5215 1.543v1.2207h7.4023v-1.2207zm0 2.5977v1.2207h7.4023v-1.2207zm0 2.5976v1.2598h7.4023v-1.2598zm-3.9356 4.0234h16.191v1.6992h-8.0762v6.0644h-2.2168v-6.0644h-8.0371v-10.957h2.1387zm-2.5 5.8984q2.3242-1.0742 4.4434-3.6035l1.7969 1.0449q-2.0898 2.6465-4.6387 4.1602zm16.836 1.2598q-1.4941-1.8359-4.4922-3.8574l1.6797-1.1816q2.3535 1.3574 4.6191 3.5644z"/>
 </g>
</svg>
