<?xml version="1.0" encoding="UTF-8"?>
<svg width="480" height="360" version="1.1" viewBox="0 0 480 360" xmlns="http://www.w3.org/2000/svg">
 <g dominant-baseline="central" fill="#fff" aria-label="新島・神津島近海">
  <path d="m246.56 182.77q1.416 0.77148 3.1348 2.168l-1.1133 1.8164q-1.1035-1.2402-2.0215-2.041v4.7852h-2.002v-5.2148q-1.3184 2.4219-3.1348 4.0527l-1.1426-1.8457q2.1777-1.543 3.623-3.8379h-3.0859v-1.7188h3.7402v-1.9043h-4.1211v-1.7969h2.1387q-0.2539-1.2402-0.71289-2.7051h-1.0449v-1.8164h3.7012v-2.2168h2.0801v2.2168h3.5449v1.8164h-1.0449q-0.36133 1.4648-0.89844 2.7051h2.2363v1.7969h-3.877v1.9043h3.5156v1.7188h-3.5156zm-2.7539-8.2422q0.3711 1.2207 0.64453 2.7051h1.9336q0.44922-1.2598 0.77148-2.7051zm9.1895 4.7461q0.01 3.0274-0.46875 5.6152-0.49805 2.6855-1.7676 4.8047l-1.6113-1.4746q1.084-1.7578 1.4844-4.3164 0.35156-2.1875 0.35156-5.5859v-6.123q0.19531-0.0195 0.5957-0.0586 3.1055-0.29297 6.2207-1.3379l1.2793 1.6992q-2.5977 0.87891-6.0742 1.3574v3.3789h6.5527v2.041h-2.2363v10.225h-2.0215v-10.225z" dominant-baseline="central"/>
  <path d="m267.74 171.98q0.36133-0.86914 0.58594-1.6602l2.3828 0.32226q-0.3418 0.81055-0.625 1.3379h6.5039v6.3672h-11.797v0.98633h14.697v1.582h-14.697v0.99609h14.014q-0.12695 4.4727-0.5664 6.0352-0.28321 0.99609-1.0645 1.3184-0.55664 0.23437-1.6992 0.23437-1.1719 0-2.1875-0.14648l-0.39063-1.6406h-9.7852v1.084h-2.0996v-4.6973h2.0996v2.0117h3.3594v-2.6367h-3.8379v-11.494zm4.1504 14.131v-2.0117h2.0215v3.3984q0.81054 0.0781 1.3476 0.0781 0.66406 0 0.83008-0.38085 0.32227-0.7129 0.50781-3.7207h-8.0273v2.6367zm-7.0996-12.627v0.96679h9.6387v-0.96679zm0 2.3633v1.0644h9.6387v-1.0644z" dominant-baseline="central"/>
  <path d="m285.02 177.79q0.76172 0 1.377 0.50781 0.81055 0.66406 0.81055 1.6992 0 0.63477-0.36133 1.1816-0.65429 1.0156-1.8555 1.0156-0.52734 0-1.0059-0.25391-0.38085-0.19531-0.64453-0.51758-0.53711-0.63476-0.53711-1.4453 0-1.1328 0.94727-1.7969 0.56641-0.39062 1.2695-0.39062z" dominant-baseline="central"/>
  <path d="m295.51 179.09q0.10742 0.0781 0.3125 0.22461 1.1816 0.82031 2.4902 2.1289l-1.2012 1.6602q-0.63476-0.79102-1.5332-1.6699l-0.0684-0.0781v8.1445h-2.0215v-7.959q-0.84961 0.97656-2.2266 2.2168l-1.0352-1.8945q3.4375-2.8809 5.127-6.2207h-4.6094v-1.9629h2.7051v-3.1836h2.041v3.1836h1.6992l0.78125 1.0449q-0.89844 2.0801-2.4609 4.2969zm6.8945-5.6543v-2.9394h2.0606v2.9394h4.2383v11.084h-4.2383v4.9805h-2.0606v-4.9805h-3.9941v-11.084zm-2.1094 1.7969v2.8223h2.1484v-2.8223zm0 4.541v2.9297h2.1484v-2.9297zm6.4844 2.9297v-2.9297h-2.3535v2.9297zm0-4.6484v-2.8223h-2.3535v2.8223z" dominant-baseline="central"/>
  <path d="m323 179.98v1.3965h5.3223v1.6016h-5.3223v1.4355h6.123v1.7188h-6.123v3.3691h-2.0996v-3.3691h-5.6152v-1.7188h5.6152v-1.4355h-4.7754v-1.6016h4.7754v-1.3965h-4.2188v-1.4844h4.2188v-1.5332h-5.8594v-1.582h5.8594v-1.5039h-4.1211v-1.543h4.1211v-1.8359h2.0996v1.8359h4.8828v3.0469h1.6992v1.582h-1.6992v3.0176zm0-1.4844h2.8418v-1.5332h-2.8418zm0-3.1152h2.8418v-1.5039h-2.8418zm-8.9941-0.24414q-1.2207-1.6797-2.9199-3.0957l1.5137-1.4258q1.8359 1.4062 2.9883 2.959zm-0.6836 5.0781q-1.416-1.8652-2.959-3.1738l1.5039-1.4648q1.5723 1.1914 3.0762 3.0371zm-2.6172 7.7832q1.875-3.0664 3.1934-6.9043l1.709 1.2012q-1.2207 3.8867-3.0664 7.1582z" dominant-baseline="central"/>
  <path d="m337.74 171.98q0.36133-0.86914 0.58594-1.6602l2.3828 0.32226q-0.3418 0.81055-0.625 1.3379h6.5039v6.3672h-11.797v0.98633h14.697v1.582h-14.697v0.99609h14.014q-0.12695 4.4727-0.5664 6.0352-0.28321 0.99609-1.0645 1.3184-0.55664 0.23437-1.6992 0.23437-1.1719 0-2.1875-0.14648l-0.39063-1.6406h-9.7852v1.084h-2.0996v-4.6973h2.0996v2.0117h3.3594v-2.6367h-3.8379v-11.494zm4.1504 14.131v-2.0117h2.0215v3.3984q0.81054 0.0781 1.3476 0.0781 0.66406 0 0.83008-0.38085 0.32227-0.7129 0.50781-3.7207h-8.0273v2.6367zm-7.0996-12.627v0.96679h9.6387v-0.96679zm0 2.3633v1.0644h9.6387v-1.0644z" dominant-baseline="central"/>
  <path d="m355.52 185.06q0.78125 0.90821 1.7578 1.3477 1.6016 0.72266 4.1992 0.72266h8.3203q-0.35156 0.66406-0.6543 1.9043h-7.7637q-3.3594 0-5.1465-1.0547-0.73242-0.43946-1.6113-1.4356-0.0684 0.0781-0.16602 0.19531-1.4355 1.6992-2.8516 2.7734l-1.1816-2.002q1.5527-0.92774 2.998-2.0996v-4.8242h-2.8418v-1.9238h4.9414zm2.5391-12.959 0.51758-0.0391q4.5215-0.3125 8.125-1.3379l1.5234 1.7188q-3.7891 0.99609-8.0859 1.3476v2.5293h9.043v1.9043h-3.2812v7.959h-2.1582v-7.959h-3.6035q-0.0488 3.1348-0.46875 4.9902-0.38086 1.709-1.25 3.0664l-1.7969-1.3574q0.9668-1.5039 1.2402-3.7305 0.19531-1.5332 0.19531-4.1699zm-3.6133 3.8184q-1.4941-2.1094-3.2227-3.7793l1.6016-1.2793q1.6797 1.4062 3.3789 3.5742z" dominant-baseline="central"/>
  <path d="m387.76 175.8q0 0.45899-0.0879 4.3555h1.8652v1.7578h-1.9043q-0.0293 1.2793-0.12695 2.9004h1.6504v1.7188h-1.7774q-0.11719 1.416-0.32226 1.875-0.45899 1.0938-2.2266 1.0938-1.1328 0-2.0898-0.16601l-0.36133-1.7383q1.377 0.19531 2.1094 0.19531 0.5957 0 0.71289-0.41992 0.0586-0.20508 0.10742-0.83985h-6.9531q-0.01 0.0781-0.0293 0.16602-0.0879 0.51758-0.16602 0.97656l-2.0215-0.19531q0.5957-3.5254 0.80078-5.332l0.0293-0.23438h-1.9531v-1.7578h2.1582q0.27344-2.3633 0.46875-4.3555zm-6.1719 1.6992h-2.1387q-0.0293 0.49805-0.17578 2.0996l-0.0586 0.55664h2.168l0.0293-0.27344q0.0195-0.2832 0.0586-0.79101 0.0977-1.3672 0.11719-1.5918zm1.9238 0q-0.0488 1.1621-0.14648 2.5684v0.0879h2.2949q0.0391-1.3379 0.0684-2.6562zm-2.2852 4.4141h-2.1973q-0.14648 1.1914-0.3125 2.3535l-0.0781 0.54687h2.2852q0.23438-2.1191 0.30274-2.9004zm2.002 0q-0.0293 0.39063-0.11719 1.2891l-0.15625 1.6113h2.4902q0.0488-0.94726 0.0781-1.4258 0.0586-1.0449 0.0781-1.4746zm-3.8281-9.6387h9.4336v1.8164h-10.244q-0.79102 1.6113-2.0117 3.0664l-1.3965-1.5234q1.9238-2.2559 2.7344-5.1953l2.0801 0.21485q-0.35156 1.0156-0.5957 1.6211zm-5.3809 2.8418q-1.2012-1.6504-2.9199-3.0957l1.4746-1.4258q1.5918 1.1719 3.0274 2.959zm-0.70313 5.1562q-1.4844-1.9043-2.998-3.1934l1.5234-1.4648q1.6992 1.3379 3.0566 3.0469zm-2.6562 7.666q1.6992-2.3535 3.2227-6.2012l1.7383 1.2402q-1.2695 3.5547-3.2617 6.5234z" dominant-baseline="central"/>
 </g>
</svg>
