<svg version="1.1" xmlns="http://www.w3.org/2000/svg" xmlns:xlink="http://www.w3.org/1999/xlink" width="400" height="400" viewBox="0,0,400,400"><defs><radialGradient cx="240" cy="180" r="200" gradientUnits="userSpaceOnUse" id="color-1"><stop offset="0" stop-color="#86046e"/><stop offset="0.4" stop-color="#86046e"/><stop offset="0.55" stop-color="#86046e" stop-opacity="0.56078"/><stop offset="0.7" stop-color="#86046e" stop-opacity="0.25098"/><stop offset="0.85" stop-color="#86046e" stop-opacity="0.05882"/><stop offset="1" stop-color="#86046e" stop-opacity="0"/></radialGradient></defs><g transform="translate(-40,20)"><g data-paper-data="{&quot;isPaintingLayer&quot;:true}" stroke-miterlimit="10" stroke-dasharray="" stroke-dashoffset="0" style="mix-blend-mode: normal"><g><path d="M40,380v-400h400v400z" fill="none" fill-rule="nonzero" stroke="none" stroke-width="0" stroke-linecap="butt" stroke-linejoin="miter"/><path d="M40,180c0,-110.46 89.543,-200 200,-200c110.457,0 200,89.543 200,200c0,110.457 -89.543,200 -200,200c-110.457,0 -200,-89.543 -200,-200z" fill="url(#color-1)" fill-rule="evenodd" stroke="none" stroke-width="1" stroke-linecap="butt" stroke-linejoin="miter" opacity="0.04"/><path d="M324.5,180c0,58.335 -26.165,84.5 -84.5,84.5c-58.335,0 -84.5,-26.165 -84.5,-84.5c0,-58.335 26.165,-84.5 84.5,-84.5c58.335,0 84.5,26.165 84.5,84.5z" fill="#86046e" fill-rule="evenodd" stroke="#d855d1" stroke-width="15" stroke-linecap="round" stroke-linejoin="round"/></g><path d="M262.48225,126.38943v67.083h18.568v15.257h-18.568v23.945h-17.57v-23.945h-51.954v-14.474l48.32,-67.46l0.29175,-0.40543zM245.66046,144.893c-3.3944,6.9756 -6.4337,12.5685 -8.9895,16.162l-0.002,0.002l-22.687,32.417h30.93v-28.727c0,-5.823 0.32229,-12.6743 0.74834,-19.855z" fill="#ffffff" fill-rule="nonzero" stroke="none" stroke-width="1" stroke-linecap="butt" stroke-linejoin="miter"/></g></g></svg>