<svg xmlns="http://www.w3.org/2000/svg" xml:space="preserve" viewBox="0 0 208 80" version="1.1" height="80" width="208"><rect stop-color="#000000" fill-opacity="0" height="80" width="208"></rect><path aria-label="震度観測なし" fill="#fff" d="m41.14917 32.20509v-1.063801h-7.73111v-1.768878h18.25779v1.768878h-7.891917v1.063801h10.24217v4.440749h-2.684241v-2.845048h-7.557933v4.811842h-2.634762v-4.811842h-7.421865v2.845048h-2.659502v-4.440749zm8.757801 17.55271q1.892575 0.717447 4.725254 1.138019l-1.447264 2.102862q-3.970698-0.680338-6.518871-2.337888-2.535804-1.657549-3.945959-4.119135h-2.73372v3.809891q2.73372-0.383463 5.071608-0.816405l0.173177 1.843096q-4.354161 1.039061-9.957669 1.805988l-0.729817-2.177081q1.942055-0.210286 2.659502-0.296875l0.148437-0.02474v-4.143875h-2.708981q-0.173177 2.177081-0.56901 3.475907-0.470051 1.558592-1.509112 2.906897l-2.20182-1.818357q1.212238-1.570961 1.509113-3.673823 0.160807-1.138019 0.160807-2.832678v-5.244784h21.35023v1.64518h-18.69073v3.797521h19.75453v1.744138h-2.807939l1.570962 1.039061q-1.397785 1.162759-3.30273 2.177081zm-1.929685-0.952473q1.781247-1.212238 2.832678-2.263669h-5.405591q1.0638 1.360676 2.572913 2.263669zm-13.16144-14.08917h5.269524v1.397785h-5.269524zm0 2.276039h5.269524v1.422524h-5.269524zm10.03189-2.276039h5.430331v1.397785h-5.430331zm0 2.276039h5.430331v1.422524h-5.430331zm-8.683583 5.046868h15.40037v1.620441h-15.40037zm33.64579-10.94725h9.697904v2.078122h-5.49218v2.053383h5.145826v2.003904h-5.145826v3.686193h-9.957669v-3.686193h-4.057287v2.300778q0 5.603508-0.593749 8.856759-0.457682 2.473955-1.484373 4.514968l-2.251299-1.781248q0.940103-2.041013 1.286457-4.985019 0.309244-2.585283 0.309244-6.60546v-8.436187h9.784492v-2.22656h2.75846zm-9.809232 2.078122v2.053383h4.057287v-2.053383zm6.692049 0v2.053383h4.688145v-2.053383zm0 4.057287v1.917315h4.688145v-1.917315zm2.869788 12.98826q-3.574865 1.855467-9.079415 2.820309l-1.286457-2.276038q5.170566-0.618489 8.102203-1.892576-2.511065-1.818357-4.292312-4.317052h-1.707029v-2.15234h14.48501l1.298826 1.08854q-1.843097 2.832678-5.257155 5.331373 2.931637 1.175129 7.990875 1.731768l-1.447263 2.337888q-4.848952-0.655598-8.80728-2.671872zm-3.673824-5.665357q1.496743 1.756509 3.636714 3.092444 2.412106-1.558591 3.723303-3.092444zm24.20765-3.574865v1.496743h2.498695v1.694659h-2.498695v1.521483h2.498695v1.669919h-2.498695v1.69466h3.129554v1.150389q2.251299-1.620441 2.622392-5.888013h-2.053383v-14.48501h10.05663v14.48501h-2.375v5.343743q0 0.383463 0.19792 0.470051 0.21029 0.09896 0.59375 0.09896 0.79166 0 0.9401-0.54427 0.19792-0.717447 0.21029-3.055334l2.10286 0.729816q-0.099 3.513017-0.55664 4.317052-0.54427 0.940103-2.83268 0.940103-1.54622 0-2.05338-0.185547-0.902995-0.333984-0.902995-1.570961v-6.543613h-0.927733l-0.01237 0.160807q-0.259766 3.228511-1.298827 5.133457-1.10091 2.016273-3.624344 3.376948l-1.472003-1.979164h-6.382804v1.546222h-2.374997v-9.37629q-0.593749 0.692708-1.249347 1.311197l-1.212238-2.177081q2.659501-2.461585 4.156244-5.615878h-3.574865v-2.053383h2.115232l-1.781248-1.311196q1.719399-1.904945 2.548174-4.514968l2.412106 0.358724q-0.272135 0.816405-0.606119 1.595701h6.865225v2.003903h-4.082026q-0.222656 0.927734-0.55664 1.867836h5.108718v2.053383h-6.07356q-0.54427 1.323566-1.261717 2.511065h2.226559q0.55664-1.311197 0.804036-2.387367l2.238929 0.667968q-0.358723 0.865884-0.816405 1.719399h2.783199v1.768877zm-2.288408 0h-2.350257v1.496743h2.350257zm0 3.191402h-2.350257v1.521483h2.350257zm0 3.191402h-2.350257v1.69466h2.350257zm-1.558592-14.58396h-1.434894q-0.593749 0.940103-1.434894 1.867836h2.263669q0.321615-0.890623 0.606119-1.867836zm9.895821-0.766926v2.127602h5.306629v-2.127602zm0 4.032547v2.102862h5.306629v-2.102862zm0 4.032547v2.16471h5.306629v-2.16471zm25.01169-10.21744v16.97133h-7.76822v-16.97133zm-5.54166 2.20182v2.7832h3.36458v-2.7832zm0 4.787103v2.7832h3.36458v-2.7832zm0 4.688145v3.117184h3.36458v-3.117184zm-5.17057-7.038402q-1.44726-1.954424-3.4759-3.673823l1.85546-1.781248q1.90495 1.385415 3.57487 3.525386zm-0.68034 6.333325q-2.01627-2.535804-3.57486-3.908849l1.90495-1.818357q1.69465 1.373045 3.64908 3.772782zm-3.37694 10.20506q2.17708-3.488277 4.0078-8.918608l2.10287 1.447263q-1.4349 5.009759-3.847 9.499988zm13.94073 1.348305q-0.87825-2.387366-2.31315-4.440749l1.88021-1.063801q1.52148 1.793618 2.61002 4.106766zm2.52344-21.61h2.46158v15.93227h-2.46158zm-11.03384 20.50909q1.85546-1.768878 2.73372-4.255203l2.15234 1.15039q-1.23698 3.141922-2.91927 4.700514zm15.40037-22.10479h2.56054v21.17706q0 1.608071-0.98958 2.053383-0.56901 0.247395-1.74414 0.247395-1.64518 0-2.99348-0.197916l-0.43295-2.511065q1.92969 0.197917 2.89453 0.197917 0.49479 0 0.61849-0.197917 0.0866-0.160807 0.0866-0.630858zm19.37106 8.634103h2.80794v6.791007q2.89453 1.274086 5.92513 3.364578l-1.42253 2.313148q-2.1276-1.558591-4.5026-2.894527-0.13606 2.18945-1.42252 3.364579-1.4349 1.298826-4.02018 1.298826-2.49869 0-4.11913-1.138019-1.58333-1.12565-1.58333-3.141923 0-2.115232 1.99153-3.389318 1.54622-0.989582 3.95833-0.989582 1.12565 0 2.38736 0.272135zm0 8.386708q-1.472-0.507161-2.7832-0.507161-1.28645 0-2.06575 0.457681-1.00195 0.59375-1.00195 1.583332 0 1.212238 1.43489 1.768878 0.71745 0.272135 1.7194 0.272135 1.60807 0 2.31315-1.360676 0.38346-0.729816 0.38346-1.707029zm-13.27276-13.12433h4.72525q0.63086-2.139971 1.01432-3.772781l2.70898 0.333984q-0.49479 1.818356-1.01432 3.438797h4.51497v2.486325h-5.31901q-2.21419 6.345695-5.1953 10.73696l-2.30078-1.311196q2.82031-4.180984 4.76236-9.425769h-3.89647zm20.65752 6.024081q-2.74609-3.055335-6.30859-5.566399l1.63281-1.781248q3.53776 2.288409 6.45703 5.331373zm5.64062-9.190743h2.91926v14.74477q0 4.663405 4.89843 4.663405 3.22851 0 5.29427-2.981116 1.33593-1.917315 2.39973-5.937492l2.51107 1.521482q-1.26172 4.465489-3.0306 6.679679-2.7832 3.451167-7.23632 3.451167-4.65103 0-6.55598-2.869788-1.19986-1.793617-1.19986-4.626296z"></path></svg>
