<?xml version="1.0" encoding="UTF-8"?>
<svg width="480" height="360" version="1.1" viewBox="0 0 480 360" xmlns="http://www.w3.org/2000/svg">
 <g dominant-baseline="central" fill="#fff" aria-label="三陸沖">
  <path d="m242.06 172.29h15.859v2.0801h-15.859zm1.1035 6.4453h13.672v2.0215h-13.672zm-2.3633 6.9727h18.398v2.0801h-18.398z" dominant-baseline="central"/>
  <path d="m271.7 177.58q-0.27344 1.4844-0.79102 2.334-0.83008 1.377-2.8809 2.0703l-1.1426-1.4844q1.084-0.27344 1.6894-0.72266 1.0059-0.74219 1.2695-2.1973h-2.8418v-1.6992h4.8828v-1.6992h-4.1992v-1.6797h4.1992v-1.9824h2.041v1.9824h4.4629v1.6797h-4.4629v1.6992h5.3418v1.6992h-3.6035v1.6992q0 0.36133 0.13672 0.42969 0.15625 0.0781 0.69336 0.0781 0.82031 0 0.94727-0.32227 0.14648-0.37109 0.16601-1.2207l1.8359 0.45898q-0.0195 1.7188-0.57617 2.3144-0.32227 0.33204-0.91797 0.42969-0.58594 0.0879-1.5723 0.0879-1.2012 0-1.709-0.10742-0.47852-0.0977-0.72266-0.41016v2.0215h4.502v1.6602h-4.502v2.2852h5.6641v1.8359h-13.203v-1.8359h5.4785v-2.2852h-4.2188v-1.6602h4.2188v-2.1973h1.9629q-0.10743-0.26367-0.10743-0.60547v-2.6562zm-6.084 0.0781q1.3965 1.9727 1.3965 4.4824 0 1.3184-0.32227 2.0996-0.43945 1.0449-1.9043 1.0449-0.63477 0-1.1621-0.12695l-0.47852-1.9141q0.5957 0.11718 1.0449 0.11718 0.52735 0 0.6543-0.41992 0.12695-0.43945 0.12695-1.3965 0-2.0898-1.2891-3.7695l0.0977-0.24414q0.71289-1.9531 1.2695-4.4336h-1.9824v16.406h-1.9629v-18.223h5.127l1.0352 0.80078q-0.5664 2.8027-1.6504 5.5762z" dominant-baseline="central"/>
  <path d="m291.58 174.14v-3.6426h2.0996v3.6426h5.293v8.8379h-5.293v6.5234h-2.0996v-6.5234h-5.1856v-8.8379zm-3.1641 1.9434v4.9707h3.1641v-4.9707zm8.4766 4.9707v-4.9707h-3.2129v4.9707zm-12.5-5.7812q-1.1914-1.6602-3.1543-3.1738l1.4551-1.4844q1.9531 1.377 3.3008 3.0859zm-0.63476 5.0195q-1.6992-1.9727-3.3008-3.2324l1.5039-1.5039q1.709 1.2012 3.3789 3.1055zm-3.0371 7.5684q1.875-2.666 3.457-6.6406l1.7383 1.3379q-1.3379 3.6621-3.2617 6.8945z" dominant-baseline="central"/>
 </g>
</svg>
