<?xml version="1.0" encoding="UTF-8"?>
<svg width="480" height="360" version="1.1" viewBox="0 0 480 360" xmlns="http://www.w3.org/2000/svg">
 <g dominant-baseline="central" fill="#fff" aria-label="神津島">
  <path d="m245.51 179.09q0.10742 0.0781 0.3125 0.22461 1.1816 0.82031 2.4902 2.1289l-1.2012 1.6602q-0.63476-0.79102-1.5332-1.6699l-0.0684-0.0781v8.1445h-2.0215v-7.959q-0.84961 0.97656-2.2266 2.2168l-1.0352-1.8945q3.4375-2.8809 5.127-6.2207h-4.6094v-1.9629h2.7051v-3.1836h2.041v3.1836h1.6992l0.78125 1.0449q-0.89844 2.0801-2.4609 4.2969zm6.8945-5.6543v-2.9394h2.0606v2.9394h4.2383v11.084h-4.2383v4.9805h-2.0606v-4.9805h-3.9941v-11.084zm-2.1094 1.7969v2.8223h2.1484v-2.8223zm0 4.541v2.9297h2.1484v-2.9297zm6.4844 2.9297v-2.9297h-2.3535v2.9297zm0-4.6484v-2.8223h-2.3535v2.8223z" dominant-baseline="central"/>
  <path d="m273 179.98v1.3965h5.3223v1.6016h-5.3223v1.4355h6.123v1.7188h-6.123v3.3691h-2.0996v-3.3691h-5.6152v-1.7188h5.6152v-1.4355h-4.7754v-1.6016h4.7754v-1.3965h-4.2188v-1.4844h4.2188v-1.5332h-5.8594v-1.582h5.8594v-1.5039h-4.1211v-1.543h4.1211v-1.8359h2.0996v1.8359h4.8828v3.0469h1.6992v1.582h-1.6992v3.0176zm0-1.4844h2.8418v-1.5332h-2.8418zm0-3.1152h2.8418v-1.5039h-2.8418zm-8.9941-0.24414q-1.2207-1.6797-2.9199-3.0957l1.5137-1.4258q1.8359 1.4062 2.9883 2.959zm-0.6836 5.0781q-1.416-1.8652-2.959-3.1738l1.5039-1.4648q1.5723 1.1914 3.0762 3.0371zm-2.6172 7.7832q1.875-3.0664 3.1934-6.9043l1.709 1.2012q-1.2207 3.8867-3.0664 7.1582z" dominant-baseline="central"/>
  <path d="m287.74 171.98q0.36133-0.86914 0.58594-1.6602l2.3828 0.32226q-0.3418 0.81055-0.625 1.3379h6.5039v6.3672h-11.797v0.98633h14.697v1.582h-14.697v0.99609h14.014q-0.12695 4.4727-0.5664 6.0352-0.28321 0.99609-1.0645 1.3184-0.55664 0.23437-1.6992 0.23437-1.1719 0-2.1875-0.14648l-0.39063-1.6406h-9.7852v1.084h-2.0996v-4.6973h2.0996v2.0117h3.3594v-2.6367h-3.8379v-11.494zm4.1504 14.131v-2.0117h2.0215v3.3984q0.81054 0.0781 1.3476 0.0781 0.66406 0 0.83008-0.38085 0.32227-0.7129 0.50781-3.7207h-8.0273v2.6367zm-7.0996-12.627v0.96679h9.6387v-0.96679zm0 2.3633v1.0644h9.6387v-1.0644z" dominant-baseline="central"/>
 </g>
</svg>
