<?xml version="1.0" encoding="UTF-8"?>
<svg width="480" height="360" version="1.1" viewBox="0 0 480 360" xmlns="http://www.w3.org/2000/svg">
 <g dominant-baseline="central" fill="#fff" aria-label="マリアナ諸島">
  <path d="m240.94 172.79h15.264l1.4551 1.3184q-1.5137 3.2617-3.5938 5.7226-1.6113 1.8945-3.7207 3.5449 1.6602 1.7773 2.6953 3.1348l-1.7969 1.582q-3.418-4.541-8.6035-8.7988l1.543-1.543q2.168 1.7285 4.7168 4.1602 2.6465-2.041 4.4824-4.6094 0.8789-1.2402 1.4551-2.5098h-13.896z" dominant-baseline="central"/>
  <path d="m260.99 171.32h2.2754v10.684h-2.2754zm10.029-0.20508h2.2754v6.9824q0 3.6816-0.59571 5.4785-0.49804 1.5332-1.3574 2.4414-1.7871 1.9238-5.7422 2.8418l-1.123-2.002q4.3262-0.87891 5.5469-2.9199 0.77149-1.2988 0.92774-3.2812 0.0684-0.91797 0.0684-2.5391z" dominant-baseline="central"/>
  <path d="m276.74 172.5h15.303l1.2598 1.0644q-0.54687 2.041-1.4258 3.4082-1.6504 2.5879-4.9414 3.8672l-1.2305-1.6797q2.2754-0.6836 3.7793-2.4512 0.88867-1.0449 1.2402-2.207h-13.984zm6.2598 4.2188h2.2363v1.6797q0 3.7793-0.83984 5.8398-1.0644 2.6172-4.1406 4.2578l-1.6113-1.6992q2.1191-1.0058 3.0957-2.4023 0.75195-1.084 0.98633-2.2949 0.27344-1.3867 0.27344-3.7207z" dominant-baseline="central"/>
  <path d="m302.67 171.04h2.2363v4.5801h7.4024v2.041h-7.4024q-0.01 2.9688-0.3125 4.4531-0.94726 4.6484-6.0644 6.8848l-1.377-1.8164q3.4082-1.4062 4.6289-3.8379 0.64453-1.2988 0.80078-3.0762 0.0781-0.9082 0.0879-2.6074h-7.8027v-2.041h7.8027z" dominant-baseline="central"/>
  <path d="m321.03 182.77-0.58594-0.83008q1.1133-0.57617 2.207-1.3477 1.9043-1.3281 3.1543-2.6172h-4.7363v-1.7383h3.8672v-1.9238h-2.7148v-1.6992h2.7148v-2.1191h1.9824v2.1191h1.9043v1.3965q0.86914-1.4258 1.6602-3.1152l1.7383 0.8789q-1.3477 2.5781-2.6562 4.4629h3.3398v1.7383h-4.541q-0.72265 0.85937-1.8848 1.9238h4.8828v9.5996h-2.002v-1.0059h-4.3164v1.0059h-1.9629v-6.9824q-0.82031 0.54688-1.5527 0.97656l-0.43946-0.63476v5.6348h-4.668v1.0059h-1.9238v-6.7285zm7.5977-8.457h-1.709v1.9238h0.41992q0.41993-0.57617 1.2891-1.9238zm-12.207 10.137v2.3828h2.7441v-2.3828zm8.623-2.9688v1.8555h4.3164v-1.8555zm0 3.4375v1.9531h4.3164v-1.9531zm-10.225-13.701h5.8984v1.6406h-5.8984zm-0.91797 2.8613h7.4219v1.7578h-7.4219zm0.91797 2.998h5.8984v1.6211h-5.8984zm0 2.8613h5.8984v1.582h-5.8984z" dominant-baseline="central"/>
  <path d="m341.14 171.98q0.36133-0.86914 0.58594-1.6602l2.3828 0.32226q-0.3418 0.81055-0.625 1.3379h6.5039v6.3672h-11.797v0.98633h14.697v1.582h-14.697v0.99609h14.014q-0.12695 4.4727-0.56641 6.0352-0.2832 0.99609-1.0644 1.3184-0.55664 0.23437-1.6992 0.23437-1.1719 0-2.1875-0.14648l-0.39062-1.6406h-9.7852v1.084h-2.0996v-4.6973h2.0996v2.0117h3.3594v-2.6367h-3.8379v-11.494zm4.1504 14.131v-2.0117h2.0215v3.3984q0.81055 0.0781 1.3477 0.0781 0.66406 0 0.83008-0.38085 0.32226-0.7129 0.50781-3.7207h-8.0273v2.6367zm-7.0996-12.627v0.96679h9.6387v-0.96679zm0 2.3633v1.0644h9.6387v-1.0644z" dominant-baseline="central"/>
 </g>
</svg>
