<?xml version="1.0" encoding="UTF-8"?>
<svg width="480" height="360" version="1.1" viewBox="0 0 480 360" xmlns="http://www.w3.org/2000/svg">
 <g dominant-baseline="central" fill="#fff" aria-label="愛媛県東予">
  <path d="m255.54 174.81h3.4961v4.0039h-1.748q0.57617 0.84961 1.1035 1.8164l-1.875 1.0058q-1.2012-2.4023-2.4414-3.9062l1.7188-0.82031q0.625 0.72266 1.123 1.377v-1.875h-6.4844q0.83008 0.85937 1.7188 2.2168l-1.7578 1.084q-0.61523-1.2305-1.7188-2.5586l1.3184-0.74218h-6.9141v2.4023h-2.1191v-4.0039h3.3398q-0.30273-0.74218-0.77148-1.543-0.42969 0.0195-1.4551 0.0684l-0.82031-1.6407q9.0918-0.22461 15.137-1.3086l1.543 1.4453q-1.416 0.23437-2.6074 0.40039l1.4258 0.41992q-0.35157 0.82031-1.2109 2.1582zm-2.1191 0q0.73242-1.3281 1.1719-2.4805-1.8945 0.25391-4.248 0.44922 0.61523 0.95703 0.98632 2.0312zm-4.1992 0q-0.37109-0.88867-0.98633-1.875l-2.6074 0.20508q0.57617 0.9375 0.83984 1.6699zm-3.2812 9.7266q-1.7285 1.0938-3.7598 1.8164l-1.2207-1.582q3.7891-1.1621 6.0644-3.418-0.76171-0.3125-0.76171-1.0644v-3.1348h2.0801v2.1387q0 0.51758 0.25391 0.625 0.24414 0.0977 1.8066 0.0977 1.7676 0 1.9727-0.21484 0.24414-0.25391 0.26367-1.4062l1.8945 0.47851q0.01 0.0977 0.01 0.18555 0 1.2695-0.4004 1.8555-0.2832 0.41992-1.1035 0.51758-1.0742 0.13672-3.0078 0.13672-0.41016 0-0.75196-0.01-0.37109 0.45898-0.74218 0.83008h6.8652l0.89844 0.89844q-1.6016 1.6992-3.7988 2.9492 2.8809 0.90821 7.0312 1.2988l-1.2402 1.9141q-4.2383-0.61523-7.8906-2.1094-3.8574 1.8066-8.6816 2.4121l-1.123-1.7578q4.0332-0.32227 7.7637-1.6602-1.3281-0.78125-2.4219-1.7969zm4.4727 0.92773q0.0586-0.0195 0.2539-0.12695 1.2988-0.69336 2.2754-1.4648h-5.2148q1.2695 0.9375 2.6856 1.5918zm-8.4766-4.5312q0.9668-1.2402 1.7969-3.7207l1.9043 0.55664q-0.63477 2.5293-1.8652 4.209z" dominant-baseline="central"/>
  <path d="m270.1 177.48h-2.1582v-1.6406h1.4844q-0.44922-1.416-0.92774-2.2656l1.4844-0.47852q0.74219 1.1816 1.1133 2.3242l-1.3184 0.41992h5.2441q0.89844-1.8359 1.377-3.5059l1.9434 0.72266q-0.66406 1.3867-1.4648 2.7832h2.1582v1.6406h-7.0215q-0.0391 0.54687-0.12695 1.4356h7.6367v1.7188h-7.8613q-0.0293 0.16601-0.0879 0.47851-0.0684 0.41016-0.16602 0.82031h6.1523l0.91797 0.85938q-1.084 2.1484-2.6562 3.6035 1.7578 0.86914 3.8379 1.2988l-0.85937 1.8359q-2.4414-0.5957-4.3848-1.8848l-0.0976-0.0586q-1.9824 1.3184-4.2969 2.1289l-1.0449-1.6016q2.1777-0.47851 3.9062-1.6016-1.2598-1.0644-2.168-2.4219-1.1719 3.0371-3.457 5.3027l-1.4551-1.377q3.0078-2.6367 3.8965-7.3828h-2.1973v-1.7188h2.4609q0.0976-0.83008 0.13672-1.4356zm4.1602 7.9785q1.1719-1.0254 1.7383-1.9434h-3.9062q0.82032 0.9668 2.168 1.9434zm-10.4-1.1523q-1.4844-1.0156-3.0371-1.7676l0.0977-0.3125q0.76172-2.3047 1.377-5.9668h-1.7969v-1.9043h2.0703q0.30273-2.2266 0.48828-3.877l1.9043 0.23437q-0.22461 1.9629-0.44922 3.6426h2.9492q-0.15625 6.0644-1.3184 9.3457 0.46875 0.32227 1.3965 1.0547l-1.123 1.6016q-0.63477-0.57617-1.0352-0.89844-1.2793 2.5391-3.2031 4.1113l-1.416-1.5527q1.8652-1.2402 3.0957-3.7109zm0.66406-1.6894q0.77149-2.5098 1.084-6.3574h-1.3867q-0.49805 3.2129-1.1914 5.5078 0.61524 0.3125 1.4941 0.84961zm2.7539-11.201q5.2734-0.0879 10.4-1.0156l1.0059 1.5332q-4.8926 0.73243-10.723 1.0645zm5.4004 4.3848q-0.51758-1.709-1.0352-2.5195l1.5332-0.45898q0.69336 0.92773 1.2891 2.3926z" dominant-baseline="central"/>
  <path d="m296.76 170.98v9.4629h-11.621v-9.4629zm-9.5215 1.543v1.2207h7.4023v-1.2207zm0 2.5977v1.2207h7.4023v-1.2207zm0 2.5976v1.2598h7.4023v-1.2598zm-3.9356 4.0234h16.191v1.6992h-8.0762v6.0644h-2.2168v-6.0644h-8.0371v-10.957h2.1387zm-2.5 5.8984q2.3242-1.0742 4.4434-3.6035l1.7969 1.0449q-2.0898 2.6465-4.6387 4.1602zm16.836 1.2598q-1.4941-1.8359-4.4922-3.8574l1.6797-1.1816q2.3535 1.3574 4.6191 3.5644z" dominant-baseline="central"/>
  <path d="m313.2 183.15q2.4219 2.1582 6.5234 3.4863l-1.2598 1.8359q-2.3633-0.83984-4.1211-2.0312-1.8164-1.2402-3.3496-3.0469v6.1035h-2.1191v-5.9961q-1.3574 1.9043-3.5059 3.418-1.6504 1.1621-3.5352 1.875l-1.3379-1.7188q3.0957-1.0254 5.166-2.7637 0.58594-0.48829 1.1914-1.1621h-4.6973v-7.998h6.7188v-1.3184h-8.0957v-1.7578h8.0957v-1.582h2.1191v1.582h8.2227v1.7578h-8.2227v1.3184h6.8457v7.998zm-4.3262-6.3574h-4.5996v1.582h4.5996zm2.1191 0v1.582h4.7266v-1.582zm-2.1191 3.1055h-4.5996v1.6113h4.5996zm2.1191 0v1.6113h4.7266v-1.6113z" dominant-baseline="central"/>
  <path d="m332.07 176.02q0.6836 0.35157 1.5723 0.83985l-1.2402 1.0059h5.8789l1.1035 1.1035q-2.1973 3.3106-4.3848 5.4395l-1.9824-1.1621q1.9238-1.7578 3.0859-3.4961h-4.8633v7.6562q0 1.3281-0.65429 1.6992-0.43946 0.25391-1.6406 0.25391-1.5723 0-3.4668-0.19531l-0.47852-2.1777q1.8262 0.29297 3.2422 0.29297 0.53711 0 0.66406-0.17578 0.0977-0.14649 0.0977-0.53711v-6.8164h-8.1836v-1.8848h10.586q-3.3008-1.8945-6.6016-3.2031l1.582-1.2598q2.2168 0.88867 3.916 1.7285 1.5039-1.0254 2.6367-2.0117h-10.439v-1.8555h13.281l1.2012 1.1719q-2.5586 2.0606-4.9121 3.584z" dominant-baseline="central"/>
 </g>
</svg>
