<svg version="1.1" xmlns="http://www.w3.org/2000/svg" xmlns:xlink="http://www.w3.org/1999/xlink" width="83.35088" height="38.07869" viewBox="0,0,83.35088,38.07869"><g transform="translate(9.9397,-335.75128)"><g data-paper-data="{&quot;isPaintingLayer&quot;:true}" fill="#ff0000" fill-rule="evenodd" stroke-linecap="round" stroke-linejoin="round" stroke-miterlimit="10" stroke-dasharray="" stroke-dashoffset="0" style="mix-blend-mode: normal"><path d="M56.18886,340.77109l0.29299,1.17995l1.34795,0.61998l0.77897,1.84992l-0.09999,0.77997l0.79096,1.80993l1.92193,1.38995l-0.079,2.11991l0.58398,0.81997l0.98896,0.22999l0.50698,0.59997l1.19695,0.11l0.52098,-0.36999l1.94693,1.00996l0.17699,0.84997l1.17895,1.02996l2.33691,0.67998l0.72997,-0.11l0.75497,0.68997l0.22799,0.90996l1.11795,1.24995l-0.46498,1.04996l-1.71793,-0.44999l-0.91996,0.25999l-1.63193,-0.26999l-1.43994,0.09l-0.90796,0.41998l-1.08096,-0.38999l-2.62889,1.00996l-2.4129,0.09l-0.48598,0.61997l-0.85196,0.17l-1.99092,-1.29995l-1.77793,-0.66997l-1.03596,-0.68998l-0.72297,-1.93992l0.30999,-0.86996l1.12295,1.13995l1.61794,-0.07l-0.23,-1.51993l-1.25495,-1.87993l-0.97496,-0.16999l-0.34098,-1.15995l1.03296,-0.50998l1.42894,-1.56993l-0.35798,-2.5899l1.93192,-0.94996l-1.76393,-3.31987l-0.60997,-0.55998l-0.107,-1.26995l-0.90596,-1.01995l0.81396,-0.53998l-0.37298,-0.93996l0.41698,0.70997l0.103,0.69997l0.98896,0.93997" stroke="none" stroke-width="0"/><path d="M49.19912,346.17085l0.83097,2.08992l0.08399,1.21995l-0.51298,0.77997l-1.07995,0.29998l-2.78989,-0.85997l-0.13799,-0.31998l-0.41399,-0.24999l-0.24799,-0.44998l-0.32698,-0.15999l-0.44098,-0.76997l-0.27999,-0.13999l-0.078,-0.35999l-0.28999,-0.34998l0.45098,-0.29999l-0.32199,-1.84992l0.66397,-0.95996l1.56194,0.41998l1.00896,0.76997l2.31991,1.18995" stroke="none" stroke-width="0"/><path d="M0.58108,367.47002l-1.78393,1.35995h-1.52694l-1.75193,-0.56997l-0.45798,-1.39995l0.20899,-1.00996l0.96196,-0.88996l1.43794,-0.40999l1.38895,-0.03999l1.57294,1.16995l-0.04999,1.78993" stroke="#ff0000" stroke-width="10"/><path d="M43.84934,347.77081l0.19299,0.04999l0.43398,0.56998l0.09199,0.23999l0.23499,0.12l0.054,0.26999l0.66997,0.49998l-0.101,0.73997l-1.26494,0.51998l-1.46395,-0.43998l-0.89297,-1.12995l-0.28898,-1.99992l0.46998,-1.06996l0.77497,1.34995l1.01296,0.01l0.07599,0.26999" stroke="none" stroke-width="0"/><path d="M52.70899,337.67121l-1.22295,-0.74997l-0.37399,-0.84997l0.85796,-0.31999l1.22095,0.67997l0.38299,0.80997l-0.86497,0.42998" stroke="none" stroke-width="0"/><path d="M53.00899,360.57029l-0.78697,-0.22999l-0.37299,-0.71997l0.32198,-1.08996l1.01496,0.45999l0.62897,0.89996l-0.80596,0.67997" stroke="none" stroke-width="0"/><path d="M-3.63874,355.77049l1.12395,-0.53998l0.60798,0.81997l0.23899,1.01996l-1.97092,-1.29994" stroke="#ff0000" stroke-width="10"/></g></g></svg>