<svg version="1.1" xmlns="http://www.w3.org/2000/svg" xmlns:xlink="http://www.w3.org/1999/xlink" width="208" height="32" viewBox="0,0,208,32"><g transform="translate(-240,-164)"><g data-paper-data="{&quot;isPaintingLayer&quot;:true}" fill-rule="nonzero" stroke="none" stroke-linecap="butt" stroke-linejoin="miter" stroke-miterlimit="10" stroke-dasharray="" stroke-dashoffset="0" style="mix-blend-mode: normal"><path d="M240,196v-32h208v32z" fill="none" stroke-width="0"/><path d="M250.99,172.48h7.9785v4.3164h-2.1582v-2.6367h-13.701v2.6367h-2.1191v-4.3164h7.8613v-1.9824h2.1387zM255.99,175.7612v5.2734h-5.1856c-0.17578,0.60547 -0.39713,1.1914 -0.66406,1.7578h7.793v6.709h-2.2558v-1.0059h-11.367v1.0059h-2.2363v-6.709h5.8106c0.30599,-0.83987 0.49804,-1.4258 0.57617,-1.7578h-4.5898v-5.2734zM246.0681,177.3432v2.0898h7.7441v-2.0898zM244.3103,184.4526v2.3633h11.367v-2.3633z" fill="#ffffff" stroke-width="1"/><path d="M271.05,179.92h6.084v9.5801h-2.2363v-1.3086h-9.8047v1.3086h-2.2363v-9.5801h5.9375v-4.0625h-8.3008v-1.9629h8.3008v-3.3984h2.2559v3.3984h8.4473v1.9629h-8.4473zM274.8977,181.8048h-9.8047v4.4238h9.8047z" fill="#ffffff" stroke-width="1"/><path d="M287.74,171.98c0.24089,-0.57943 0.4362,-1.13283 0.58594,-1.6602l2.3828,0.32226c-0.22786,0.54037 -0.43619,0.98633 -0.625,1.3379h6.5039v6.3672h-11.797v0.98633h14.697v1.582h-14.697v0.99609h14.014c-0.08464,2.9818 -0.27344,4.99353 -0.56641,6.0352c-0.1888,0.66406 -0.5436,1.10353 -1.0644,1.3184c-0.37109,0.15625 -0.93749,0.23437 -1.6992,0.23437c-0.78127,0 -1.51043,-0.04883 -2.1875,-0.14648l-0.39063,-1.6406h-9.7852v1.084h-2.0996v-4.6973h2.0996v2.0117h3.3594v-2.6367h-3.8379v-11.494zM291.8904,186.111v-2.0117h2.0215v3.3984c0.54036,0.05207 0.98956,0.0781 1.3476,0.0781c0.44271,0 0.71941,-0.12695 0.83008,-0.38085c0.21485,-0.47527 0.38412,-1.7155 0.50781,-3.7207h-8.0273v2.6367zM284.7908,173.484v0.96679h9.6387v-0.96679zM284.7908,175.8473v1.0644h9.6387v-1.0644z" fill="#ffffff" stroke-width="1"/><path d="M305.02,177.79c0.50781,0 0.96681,0.16927 1.377,0.50781c0.54036,0.44271 0.81054,1.00911 0.81054,1.6992c0,0.42318 -0.12044,0.81705 -0.36133,1.1816c-0.43619,0.67707 -1.05469,1.0156 -1.8555,1.0156c-0.35157,0 -0.68687,-0.08464 -1.0059,-0.25391c-0.25391,-0.13021 -0.46875,-0.30273 -0.64453,-0.51758c-0.35807,-0.42317 -0.53711,-0.90494 -0.53711,-1.4453c0,-0.7552 0.31575,-1.35417 0.94726,-1.7969c0.37761,-0.26041 0.80077,-0.39062 1.2695,-0.39062z" fill="#ffffff" stroke-width="1"/><path d="M322.34,173.7h-6.3476v-2.0801h8.418l0.0488,0.44922c0.26042,2.79947 0.74545,5.2897 1.4551,7.4707c0.80727,2.47393 1.99217,4.8535 3.5547,7.1387l-1.7969,2.041c-1.57553,-2.33727 -2.82227,-4.9154 -3.7402,-7.7344c-0.48177,-1.49087 -0.92447,-3.3561 -1.3281,-5.5957c-0.14323,-0.8008 -0.23112,-1.36393 -0.26367,-1.6894zM310.514,187.079c1.237,-1.34767 2.22333,-3.0469 2.959,-5.0977c0.71613,-2.0052 1.17513,-4.10157 1.377,-6.2891l2.207,0.58594c-0.34505,4.96093 -1.89779,9.16027 -4.6582,12.598z" fill="#ffffff" stroke-width="1"/><path d="M338.87,176.42v-1.0742h-8.2617v-1.6016h8.2617v-0.97656c-2.3698,0.10417 -4.2383,0.16927 -5.6055,0.19531l-0.82032,-1.5625c5.79427,-0.17578 10.22793,-0.5013 13.301,-0.97656l1.4258,1.543c-1.70573,0.25391 -3.5384,0.45898 -5.498,0.61523l-0.68359,0.0586v1.1035h8.3984v1.6016h-8.3984v1.0742h6.6602v6.7383h-6.6602v1.2012h7.3242v1.5625h-7.3242v1.3184h8.4961v1.6016h-18.994v-1.6016h8.3789v-1.3184h-7.207v-1.5625h7.207v-1.2012h-6.543v-6.7383zM338.87,177.8165h-4.4629v1.2891h4.4629zM340.9892,177.8165v1.2891h4.5605v-1.2891zM338.87,180.4825h-4.4629v1.3184h4.4629zM340.9892,180.4825v1.3184h4.5605v-1.3184z" fill="#ffffff" stroke-width="1"/><path d="M361.03,185.42h4.9219v-10.742h2.2168v14.658h-2.2168v-1.7969h-11.943v1.7969h-2.1973v-14.658h2.1973v10.742h4.8047v-14.727h2.2168z" fill="#ffffff" stroke-width="1"/><path d="M380.23,178.41v7.7344c0,0.5013 0.21484,0.80403 0.64453,0.9082c0.44271,0.11068 1.45507,0.16602 3.0371,0.16602c1.54293,0 2.5618,-0.07813 3.0566,-0.23438c0.27995,-0.09115 0.46224,-0.34505 0.54687,-0.76172c0.11068,-0.58593 0.16927,-1.2793 0.17578,-2.0801l2.041,0.57618c-0.10417,1.9206 -0.36784,3.1478 -0.79102,3.6816c-0.27995,0.35156 -0.70311,0.55989 -1.2695,0.625c-0.89193,0.09765 -2.4056,0.14648 -4.541,0.14648c-1.65367,0 -2.73767,-0.04557 -3.252,-0.13672c-0.77473,-0.13021 -1.26627,-0.47201 -1.4746,-1.0254c-0.10417,-0.29297 -0.15625,-0.6836 -0.15625,-1.1719v-7.7441l-1.8652,0.64453l-0.45898,-1.8945l2.3242,-0.80078v-5.2637h1.9824v4.5801l2.0996,-0.71289v-5.1465h1.9629v4.4629l3.2715,-1.123l1.0254,0.625v7.3144c0,0.50781 -0.12044,0.88541 -0.36133,1.1328c-0.27343,0.27343 -0.73243,0.41015 -1.377,0.41015c-0.52735,0 -1.08725,-0.04557 -1.6797,-0.13672l-0.32226,-1.8652c0.38411,0.09765 0.77475,0.14648 1.1719,0.14648c0.28646,0 0.46224,-0.05859 0.52735,-0.17578c0.06507,-0.09765 0.0976,-0.26041 0.0976,-0.48828v-4.6191l-2.3535,0.82031v7.9004h-1.9629v-7.2266zM373.0523,175.2166v-4.7168h2.0996v4.7168h1.8945v1.9824h-1.8945v6.2109c0.6836,-0.23437 1.36067,-0.47851 2.0312,-0.73242l0.18555,1.8848c-2.1094,0.96353 -4.2741,1.77083 -6.4941,2.4219l-0.6836,-2.0801c1.0026,-0.26041 1.8815,-0.50781 2.6367,-0.74218c0.09115,-0.03253 0.16602,-0.05533 0.22461,-0.0684v-6.8945h-2.4805v-1.9824z" fill="#ffffff" stroke-width="1"/><path d="M399.48,175.76c-0.0456,1.08727 -0.1107,2.0443 -0.19531,2.8711h7.8711c-0.09765,4.51827 -0.35156,7.4512 -0.76171,8.7988c-0.20833,0.67707 -0.5957,1.1458 -1.1621,1.4062c-0.44271,0.20182 -1.09051,0.30273 -1.9434,0.30273c-0.89847,0 -1.91733,-0.06836 -3.0566,-0.20507l-0.38086,-2.1973c1.52993,0.21485 2.6074,0.32227 3.2324,0.32227c0.52734,0 0.86264,-0.14974 1.0059,-0.44922c0.34505,-0.7292 0.58594,-2.74093 0.72265,-6.0352h-5.8105c-0.21485,1.17187 -0.51758,2.1875 -0.90821,3.0469c-1.0872,2.37627 -2.9036,4.26103 -5.4492,5.6543l-1.543,-1.7188c2.55207,-1.32813 4.23827,-3.06967 5.0586,-5.2246c0.54687,-1.4388 0.90167,-3.62957 1.0644,-6.5723h-6.4648v-2.002h7.9785v-3.2617h2.2559v3.2617h8.2422v2.002z" fill="#ffffff" stroke-width="1"/></g></g></svg>