<?xml version="1.0" encoding="UTF-8"?>
<svg width="480" height="360" version="1.1" viewBox="0 0 480 360" xmlns="http://www.w3.org/2000/svg">
 <g dominant-baseline="central" fill="#fff" aria-label="山形県最上地方">
  <path d="m251.04 185.42h4.9219v-10.742h2.2168v14.658h-2.2168v-1.7969h-11.943v1.7969h-2.1973v-14.658h2.1973v10.742h4.8047v-14.727h2.2168z" dominant-baseline="central"/>
  <path d="m269.43 173.28v4.9609h2.3633v1.9238h-2.3633v9.3359h-2.0801v-9.3359h-2.3926q-0.0488 2.9492-0.42969 4.8144-0.52734 2.6465-2.1484 4.6582l-1.7676-1.3379q1.4941-1.8164 1.9629-4.4141 0.25391-1.4453 0.29297-3.5644l0.01-0.15625h-2.3828v-1.9238h2.3828v-4.9609h-1.9629v-1.9043h10.381v1.9043zm-2.0801 0h-2.3926v4.9609h2.3926zm3.0664 14.092q4.3848-1.5039 7.5-5.957l1.6211 1.2988q-2.9199 4.4336-7.8613 6.3672zm0.5957-11.152q3.9258-1.9726 6.0254-5.3613l1.7188 1.0938q-2.4512 3.7793-6.5039 5.8692zm0.38086 5.1562q3.7402-1.7676 6.1816-5.2441l1.6211 1.2891q-2.5879 3.6328-6.5039 5.5762z" dominant-baseline="central"/>
  <path d="m296.76 170.98v9.4629h-11.621v-9.4629zm-9.5215 1.543v1.2207h7.4023v-1.2207zm0 2.5977v1.2207h7.4023v-1.2207zm0 2.5976v1.2598h7.4023v-1.2598zm-3.9356 4.0234h16.191v1.6992h-8.0762v6.0644h-2.2168v-6.0644h-8.0371v-10.957h2.1387zm-2.5 5.8984q2.3242-1.0742 4.4434-3.6035l1.7969 1.0449q-2.0898 2.6465-4.6387 4.1602zm16.836 1.2598q-1.4941-1.8359-4.4922-3.8574l1.6797-1.1816q2.3535 1.3574 4.6191 3.5644z" dominant-baseline="central"/>
  <path d="m317.32 170.92v6.123h-14.619v-6.123zm-12.441 1.3965v1.0059h10.264v-1.0059zm0 2.2852v1.1426h10.264v-1.1426zm4.8828 5.1367v8.1445q1.9043-0.51758 3.4863-1.7773-1.4844-1.7285-2.2461-3.7207h-0.83984v-1.5625h7.5391l0.95703 0.83985q-1.0644 2.5781-2.666 4.4238 1.4356 0.9375 3.5938 1.5918l-1.2012 1.7871q-2.2266-0.83984-3.75-2.0508-1.6699 1.377-3.916 2.1875l-0.95704-1.4356v1.3379h-2.0215v-2.1777q-2.7734 0.55664-6.8652 0.99609l-0.53711-1.7969q1.2891-0.0684 2.1973-0.13672v-6.6504h-2.041v-1.6211h19.004v1.6211zm-2.0215 0h-3.2031v1.1816h3.2031zm0 2.4805h-3.2031v1.2012h3.2031zm0 2.4805h-3.2031v1.4941q0.83007-0.0879 1.25-0.13672 1.123-0.11719 1.9531-0.22461zm6.7773 0.16601q0.88868-1.0254 1.6016-2.4805h-3.3106q0.60547 1.3184 1.709 2.4805z" dominant-baseline="central"/>
  <path d="m330.59 176.07h7.0508v2.002h-7.0508v8.1641h8.916v2.041h-19.004v-2.041h7.7246v-15.742h2.3633z" dominant-baseline="central"/>
  <path d="m350.23 178.41v7.7344q0 0.75195 0.64454 0.9082 0.66406 0.16602 3.0371 0.16602 2.3144 0 3.0566-0.23438 0.41992-0.13672 0.54687-0.76172 0.16602-0.8789 0.17578-2.0801l2.041 0.57618q-0.15625 2.8809-0.79102 3.6816-0.41992 0.52734-1.2695 0.625-1.3379 0.14648-4.541 0.14648-2.4805 0-3.252-0.13672-1.1621-0.19531-1.4746-1.0254-0.15625-0.43945-0.15625-1.1719v-7.7441l-1.8652 0.64453-0.45899-1.8945 2.3242-0.80078v-5.2637h1.9824v4.5801l2.0996-0.71289v-5.1465h1.9629v4.4629l3.2715-1.123 1.0254 0.625v7.3144q0 0.76172-0.36133 1.1328-0.41015 0.41015-1.377 0.41015-0.79102 0-1.6797-0.13672l-0.32226-1.8652q0.57617 0.14648 1.1719 0.14648 0.42969 0 0.52734-0.17578 0.0977-0.14648 0.0977-0.48828v-4.6191l-2.3535 0.82031v7.9004h-1.9629v-7.2266zm-7.1777-3.1934v-4.7168h2.0996v4.7168h1.8945v1.9824h-1.8945v6.2109q1.0254-0.35156 2.0312-0.73242l0.18555 1.8848q-3.1641 1.4453-6.4941 2.4219l-0.6836-2.0801q1.5039-0.39062 2.6367-0.74218 0.13672-0.0488 0.22461-0.0684v-6.8945h-2.4805v-1.9824z" dominant-baseline="central"/>
  <path d="m369.48 175.76q-0.0684 1.6309-0.19531 2.8711h7.8711q-0.14648 6.7774-0.76172 8.7988-0.3125 1.0156-1.1621 1.4062-0.66406 0.30273-1.9434 0.30273-1.3477 0-3.0566-0.20507l-0.38085-2.1973q2.2949 0.32227 3.2324 0.32227 0.79101 0 1.0059-0.44922 0.51757-1.0938 0.72265-6.0352h-5.8105q-0.32227 1.7578-0.90821 3.0469-1.6309 3.5644-5.4492 5.6543l-1.543-1.7188q3.8281-1.9922 5.0586-5.2246 0.82031-2.1582 1.0644-6.5723h-6.4648v-2.002h7.9785v-3.2617h2.2559v3.2617h8.2422v2.002z" dominant-baseline="central"/>
 </g>
</svg>
