<svg version="1.1" xmlns="http://www.w3.org/2000/svg" xmlns:xlink="http://www.w3.org/1999/xlink" width="208" height="32" viewBox="0,0,208,32"><g transform="translate(-240,-164)"><g data-paper-data="{&quot;isPaintingLayer&quot;:true}" fill-rule="nonzero" stroke="none" stroke-linecap="butt" stroke-linejoin="miter" stroke-miterlimit="10" stroke-dasharray="" stroke-dashoffset="0" style="mix-blend-mode: normal"><path d="M240,196v-32h208v32z" fill="none" stroke-width="0"/><path d="M253.77,187.48h-6.3281v0.80078h-2.002v-5.4297h8.8965v4.5508c0.44271,0.05207 0.90821,0.0781 1.3965,0.0781c0.32552,0 0.52409,-0.05534 0.5957,-0.16602c0.0586,-0.08463 0.0879,-0.22461 0.0879,-0.41992v-5.0391h-12.842v7.6465h-2.1582v-9.2285h17.158v7.2852c0,0.625 -0.17253,1.08073 -0.51758,1.3672c-0.31901,0.26693 -0.83335,0.40039 -1.543,0.40039c-0.53385,0 -1.31185,-0.04232 -2.334,-0.12695zM252.3344,184.4136h-4.8926v1.5039h4.8926zM250.9965,172.0796h8.0859v1.6406h-18.164v-1.6406h7.9394v-1.582h2.1387zM256.2406,174.7554v4.4629h-12.48v-4.4629zM245.8986,176.2788v1.416h8.1836v-1.416z" fill="#ffffff" stroke-width="1"/><path d="M267.04,174.72v3.6621h3.1934v1.8848h-3.2226c-0.03253,0.64453 -0.09113,1.29233 -0.17578,1.9434c1.32813,1.10027 2.55533,2.32747 3.6816,3.6816l-1.4062,1.9336c-0.7552,-1.16533 -1.67967,-2.31767 -2.7734,-3.457c-0.25391,0.7552 -0.63151,1.52343 -1.1328,2.3047c-0.76173,1.18493 -1.71227,2.14197 -2.8516,2.8711l-1.5039,-1.7188c2.5,-1.4974 3.86067,-4.01693 4.082,-7.5586h-4.2383v-1.8848h4.2871v-3.6621h-1.1621c-0.45573,1.08073 -1.01563,2.07357 -1.6797,2.9785l-1.6016,-1.2988c1.12627,-1.45833 1.92703,-3.42447 2.4023,-5.8984l2.0996,0.3125c-0.1888,0.8008 -0.36458,1.4551 -0.52734,1.9629h5.3223v1.9434zM278.7,172.5227v16.143h-2.0996v-1.2891h-3.6816v1.4844h-2.0801v-16.338zM272.9188,174.4856v10.928h3.6816v-10.928z" fill="#ffffff" stroke-width="1"/><path d="M296.76,170.98v9.4629h-11.621v-9.4629zM287.2385,172.523v1.2207h7.4023v-1.2207zM287.2385,175.1207v1.2207h7.4023v-1.2207zM287.2385,177.7183v1.2598h7.4023v-1.2598zM283.3029,181.7417h16.191v1.6992h-8.0762v6.0644h-2.2168v-6.0644h-8.0371v-10.957h2.1387zM280.8029,187.6401c1.54947,-0.71613 3.0306,-1.9173 4.4434,-3.6035l1.7969,1.0449c-1.3932,1.76433 -2.93943,3.15107 -4.6387,4.1602zM297.6389,188.8999c-0.99607,-1.22393 -2.49347,-2.50973 -4.4922,-3.8574l1.6797,-1.1816c1.569,0.90493 3.1087,2.09307 4.6191,3.5644z" fill="#ffffff" stroke-width="1"/><path d="M313.2,183.15c1.6146,1.4388 3.78907,2.6009 6.5234,3.4863l-1.2598,1.8359c-1.57553,-0.55989 -2.94923,-1.23696 -4.1211,-2.0312c-1.21093,-0.8268 -2.32747,-1.84243 -3.3496,-3.0469v6.1035h-2.1191v-5.9961c-0.90493,1.26953 -2.07357,2.40887 -3.5059,3.418c-1.10027,0.77473 -2.27867,1.39973 -3.5352,1.875l-1.3379,-1.7188c2.0638,-0.6836 3.7858,-1.60483 5.166,-2.7637c0.39063,-0.32553 0.78776,-0.71289 1.1914,-1.1621h-4.6973v-7.998h6.7188v-1.3184h-8.0957v-1.7578h8.0957v-1.582h2.1191v1.582h8.2227v1.7578h-8.2227v1.3184h6.8457v7.998zM308.8738,176.7926h-4.5996v1.582h4.5996zM310.9929,176.7926v1.582h4.7266v-1.582zM308.8738,179.8981h-4.5996v1.6113h4.5996zM310.9929,179.8981v1.6113h4.7266v-1.6113z" fill="#ffffff" stroke-width="1"/><path d="M326.98,172.75h4.1797v1.8848h-1.377c-0.2474,0.99607 -0.57943,2.041 -0.9961,3.1348h2.6074v1.8848h-10.898v-1.8848h2.3926c-0.26041,-1.25 -0.53385,-2.29493 -0.82031,-3.1348h-1.2695v-1.8848h4.1406v-2.2559h2.041zM324.0406,174.6348c0.33203,0.97007 0.58919,2.015 0.77148,3.1348h1.9922l0.09766,-0.27344c0.27995,-0.7422 0.54036,-1.5853 0.78125,-2.5293l0.0879,-0.33203zM330.0953,181.295v7.998h-2.002v-0.95703h-4.2578v1.1621h-2.0606v-8.2031zM323.8355,183.0919v3.3887h4.2578v-3.3887zM336.8825,178.1603c0.77473,0.73567 1.38997,1.61133 1.8457,2.627c0.44922,1.0156 0.67383,2.04423 0.67383,3.0859c0,0.96353 -0.17904,1.67317 -0.53711,2.1289c-0.37109,0.47526 -0.98306,0.71289 -1.8359,0.71289c-0.7292,0 -1.43557,-0.05208 -2.1191,-0.15625l-0.47852,-2.0801c0.78773,0.14323 1.43877,0.21485 1.9531,0.21485c0.39063,0 0.63477,-0.09115 0.73242,-0.27344c0.06513,-0.13021 0.0977,-0.39062 0.0977,-0.78125c0,-1.60807 -0.48177,-2.9948 -1.4453,-4.1602c-0.25391,-0.30599 -0.57292,-0.63476 -0.95703,-0.98633l0.11719,-0.27343c0.67707,-1.52993 1.2044,-3.125 1.582,-4.7852h-2.5v16.064h-2.0215v-18.086h5.8789l1.084,0.99609c-0.65755,2.2396 -1.34765,4.15693 -2.0703,5.752z" fill="#ffffff" stroke-width="1"/></g></g></svg>