<?xml version="1.0" encoding="UTF-8"?>
<svg width="480" height="360" version="1.1" viewBox="0 0 480 360" xmlns="http://www.w3.org/2000/svg">
 <g fill="#fff" aria-label="和歌山県">
  <path d="m244.34 181.49q-1.1133 2.5391-2.7637 4.6777l-1.2207-2.041q2.4219-2.6074 3.7305-6.0547l0.0488-0.13672h-3.4961v-1.8359h3.7012v-2.7539q-1.4844 0.27344-2.7051 0.42969l-0.82032-1.7188q4.1797-0.50781 7.5586-1.7188l1.1816 1.7188q-1.6894 0.51758-3.1348 0.84961v3.1934h3.1152v1.8359h-3.1152v1.5723q1.8457 1.123 3.3984 2.627l-1.2207 1.9434q-1.0352-1.2988-2.1777-2.4024v7.832h-2.0801zm14.316-9.043v16.514h-2.1191v-1.3965h-4.2383v1.543h-2.0801v-16.66zm-6.3574 1.9824v11.172h4.2383v-11.172z"/>
  <path d="m269.78 187.54q1.9629-1.7383 2.9394-4.6289 0.5957-1.7578 0.82031-4.0918 0.0781-0.86914 0.0781-1.582v-1.6797h-0.6836q-0.0293 0.12695-0.0781 0.35156-0.45898 2.0801-1.377 3.7305l-1.3184-1.6602q1.416-2.998 1.875-7.5879l1.9238 0.28321q-0.21485 1.6894-0.50782 2.959h5.0098l1.0547 0.85938q-0.67383 2.8223-1.5918 4.9023l-1.7285-0.69336q0.88868-1.9824 1.123-3.1445h-1.8555v1.7383q0 2.8418 1.3477 5.7617 1.0352 2.2461 2.9883 4.2188l-1.2988 2.2266q-1.9629-2.2754-3.3301-5.4102-0.37109-0.83985-0.54687-1.6309-0.78125 4.248-3.7988 7.2363l-1.0644-1.4551q-0.0684 0.73242-0.46875 1.0059-0.38086 0.2539-1.3965 0.2539-1.5137 0-2.3242-0.14648l-0.37109-1.8359 0.41992 0.0293q1.2695 0.0879 1.7676 0.0879 0.36133 0 0.42969-0.15625 0.0586-0.11719 0.0586-0.36133v-5.7227h-7.4805v-1.6602h10.723v1.6602h-1.3379zm-0.18555-14.463v4.9024q0 0.76171-0.30273 1.0644-0.32227 0.32226-1.1524 0.32226-0.72265 0-1.7871-0.12695l-0.18554-0.99609h-4.6094v-4.1406h5.0586v3.6035q0.48828 0.0391 0.78125 0.0391 0.36132 0 0.36132-0.36133v-4.3066h-7.1387v-1.6797h10.234v1.6797zm-6.377 2.3828v1.4062h1.8164v-1.4062zm3.4766 7.0606v4.3164h-3.4766v1.1816h-1.7188v-5.498zm-3.4766 1.3574v1.5625h1.8359v-1.5625z"/>
  <path d="m291.03 185.42h4.9219v-10.742h2.2168v14.658h-2.2168v-1.7969h-11.943v1.7969h-2.1973v-14.658h2.1973v10.742h4.8047v-14.727h2.2168z"/>
  <path d="m316.76 170.98v9.4629h-11.621v-9.4629zm-9.5215 1.543v1.2207h7.4023v-1.2207zm0 2.5977v1.2207h7.4023v-1.2207zm0 2.5976v1.2598h7.4023v-1.2598zm-3.9356 4.0234h16.191v1.6992h-8.0762v6.0644h-2.2168v-6.0644h-8.0371v-10.957h2.1387zm-2.5 5.8984q2.3242-1.0742 4.4434-3.6035l1.7969 1.0449q-2.0898 2.6465-4.6387 4.1602zm16.836 1.2598q-1.4941-1.8359-4.4922-3.8574l1.6797-1.1816q2.3535 1.3574 4.6191 3.5644z"/>
 </g>
</svg>
