<?xml version="1.0" encoding="UTF-8"?>
<svg width="480" height="360" version="1.1" viewBox="0 0 480 360" xmlns="http://www.w3.org/2000/svg">
 <g dominant-baseline="central" fill="#fff" aria-label="アフリカ西部">
  <path d="m240.76 172.5h15.303l1.2598 1.0644q-0.54688 2.041-1.4258 3.4082-1.6504 2.5879-4.9414 3.8672l-1.2305-1.6797q2.2754-0.6836 3.7793-2.4512 0.88867-1.0449 1.2402-2.207h-13.984zm6.2598 4.2188h2.2363v1.6797q0 3.7793-0.83984 5.8398-1.0644 2.6172-4.1406 4.2578l-1.6113-1.6992q2.1191-1.0058 3.0957-2.4023 0.75195-1.084 0.98633-2.2949 0.27343-1.3867 0.27343-3.7207z" dominant-baseline="central"/>
  <path d="m259.24 172.79h15.479q-0.13672 5.1562-1.2012 8.0762-1.25 3.3984-4.3164 5.3516-2.2949 1.4648-6.2988 2.4121l-1.123-1.9824q4.0527-0.76172 6.2207-2.2168 2.3828-1.5918 3.418-4.4043 0.76171-2.0801 0.83984-5.1953h-13.018z" dominant-baseline="central"/>
  <path d="m278.8 171.32h2.2754v10.684h-2.2754zm10.029-0.20508h2.2754v6.9824q0 3.6816-0.59571 5.4785-0.49804 1.5332-1.3574 2.4414-1.7871 1.9238-5.7422 2.8418l-1.123-2.002q4.3262-0.87891 5.5469-2.9199 0.77149-1.2988 0.92774-3.2812 0.0684-0.91797 0.0684-2.5391z" dominant-baseline="central"/>
  <path d="m295.35 174.87h5.957q0.0781-2.168 0.0781-3.877h2.2656q-0.0195 2.2266-0.10742 3.877h7.1875q-0.0586 6.9238-0.5664 10.615-0.22461 1.6797-0.90821 2.3047-0.71289 0.64453-2.4512 0.64453-1.2598 0-2.6758-0.20508l-0.36133-2.1973q1.6894 0.30273 2.7637 0.30273 0.74219 0 0.9668-0.22461 0.25391-0.24414 0.41992-1.5234 0.47852-3.7891 0.50781-7.7148h-4.9805q-0.3711 4.0234-1.709 6.4453-1.7383 3.1348-5.2246 5.1172l-1.4844-1.7383q2.1875-1.2012 3.7305-3.0176 1.1621-1.3672 1.7188-3.0957 0.5371-1.6309 0.73242-3.7109h-5.8594z" dominant-baseline="central"/>
  <path d="m319.44 176.07v-2.7344h-5.8203v-1.8848h18.779v1.8848h-6.4551v2.7344h5.4785v13.164h-2.1191v-1.377h-12.607v1.377h-2.0996v-13.164zm2.0215 0h2.4609v-2.7344h-2.4609zm-2.0312 1.7773h-2.7344v8.1543h12.607v-2.9297h-3.7012q-1.6797 0-1.6797-1.6797v-3.5449h-2.4805q-0.0391 2.4024-0.72265 3.8477-0.64454 1.377-2.5391 2.7246l-1.3476-1.5039q1.8164-1.1133 2.2949-2.7539 0.25391-0.87891 0.30273-2.3145zm6.5137 0v2.9883q0 0.38086 0.34179 0.38086h3.0176v-3.3691z" dominant-baseline="central"/>
  <path d="m339.99 172.75h4.1797v1.8848h-1.377q-0.3711 1.4941-0.9961 3.1348h2.6074v1.8848h-10.898v-1.8848h2.3926q-0.39063-1.875-0.82032-3.1348h-1.2695v-1.8848h4.1406v-2.2559h2.041zm-2.9394 1.8848q0.49805 1.4551 0.77149 3.1348h1.9922l0.0977-0.27344q0.41992-1.1133 0.78125-2.5293l0.0879-0.33203zm6.0547 6.6602v7.998h-2.002v-0.95703h-4.2578v1.1621h-2.0605v-8.2031zm-6.2598 1.7969v3.3887h4.2578v-3.3887zm13.047-4.9316q1.1621 1.1035 1.8457 2.627 0.67383 1.5234 0.67383 3.0859 0 1.4453-0.53711 2.1289-0.55664 0.71289-1.8359 0.71289-1.0938 0-2.1191-0.15625l-0.47851-2.0801q1.1816 0.21485 1.9531 0.21485 0.58594 0 0.73242-0.27344 0.0977-0.19531 0.0977-0.78125 0-2.4121-1.4453-4.1602-0.38086-0.45898-0.95703-0.98633l0.11718-0.27343q1.0156-2.2949 1.582-4.7852h-2.5v16.064h-2.0215v-18.086h5.8789l1.084 0.99609q-0.98633 3.3594-2.0703 5.752z" dominant-baseline="central"/>
 </g>
</svg>
