<?xml version="1.0" encoding="UTF-8"?>
<svg width="480" height="360" version="1.1" viewBox="0 0 480 360" xmlns="http://www.w3.org/2000/svg">
 <g dominant-baseline="central" fill="#fff" aria-label="根室半島南東沖">
  <path d="m256.35 184.4q1.3086 1.7871 3.4473 2.9102l-1.2207 1.9238q-2.3926-1.3867-3.7988-3.5449-1.5039-2.2949-2.1289-5.4199h-2.0117v6.4258q2.2558-0.66406 3.7793-1.2207l0.18555 1.8555q-2.8711 1.25-6.5918 2.1387l-0.67383-2.002q0.69336-0.12695 1.2988-0.26367v-16.006h9.4629v9.0625l1.3965 1.1914q-1.5918 1.7773-3.1445 2.9492zm-0.86914-1.5039q1.3965-1.3574 2.3242-2.627h-3.1934q0.33204 1.4746 0.86915 2.627zm0.5957-10h-5.4394v2.002h5.4394zm0 3.6035h-5.4394v2.1094h5.4394zm-12.559 4.248q-0.83984 2.4805-2.2558 4.8535l-1.1035-2.168q2.1973-3.0664 3.1445-6.8555h-2.7246v-1.9238h2.9394v-4.1602h2.041v4.1602h2.2949v1.9238h-2.2949v1.709q1.6699 1.2109 2.8906 2.627l-1.0742 1.8457q-0.87891-1.2109-1.8164-2.207v8.9453h-2.041z" dominant-baseline="central"/>
  <path d="m271.01 181.11v2.1875h6.6309v1.6797h-6.6309v2.1387h8.3203v1.7188h-18.662v-1.7188h8.1836v-2.1387h-6.4844v-1.6797h6.4844v-2.0703l-0.76172 0.0391q-2.0508 0.0977-5.4395 0.16602l-0.64453-1.7578 1.25-0.01h0.30274l1.0449-0.01q0.75195-0.86914 1.7578-2.4219h-2.5976v-1.6992h12.461v1.6992h-1.6602q1.6602 1.2305 3.8965 3.5644l-1.6797 1.2207q-0.55664-0.66406-1.123-1.25-0.74219 0.0586-1.1133 0.0977-1.4258 0.11719-3.5352 0.24414zm3.0078-3.877h-5.2246q-0.98633 1.3965-1.9238 2.3828l1.3184-0.0293q3.6035-0.0586 6.0645-0.20507-0.74219-0.67383-1.582-1.3672zm-3.0078-4.8145h7.8809v4.0137h-2.1387v-2.3535h-13.506v2.3535h-2.1387v-4.0137h7.7441v-1.9238h2.1582z" dominant-baseline="central"/>
  <path d="m288.84 177.31v-6.8164h2.1973v6.8164h7.4414v1.9434h-7.4414v2.7734h8.4668v1.9824h-8.4668v5.4883h-2.1973v-5.4883h-8.3398v-1.9824h8.3398v-2.7734h-7.3047v-1.9434zm-4.2773-0.63476q-1.2109-2.6856-2.5391-4.4629l2.041-0.9961q1.5039 2.0703 2.6367 4.4727zm8.5742-0.76172q1.543-2.3438 2.4609-4.9219l2.2852 0.89844q-1.1035 2.4219-2.7832 4.8633z" dominant-baseline="central"/>
  <path d="m307.74 171.98q0.36133-0.86914 0.58594-1.6602l2.3828 0.32226q-0.3418 0.81055-0.625 1.3379h6.5039v6.3672h-11.797v0.98633h14.697v1.582h-14.697v0.99609h14.014q-0.12695 4.4727-0.5664 6.0352-0.28321 0.99609-1.0645 1.3184-0.55664 0.23437-1.6992 0.23437-1.1719 0-2.1875-0.14648l-0.39063-1.6406h-9.7852v1.084h-2.0996v-4.6973h2.0996v2.0117h3.3594v-2.6367h-3.8379v-11.494zm4.1504 14.131v-2.0117h2.0215v3.3984q0.81054 0.0781 1.3476 0.0781 0.66406 0 0.83008-0.38085 0.32227-0.7129 0.50781-3.7207h-8.0273v2.6367zm-7.0996-12.627v0.96679h9.6387v-0.96679zm0 2.3633v1.0644h9.6387v-1.0644z" dominant-baseline="central"/>
  <path d="m328.92 182.24h-4.043v-1.6016h1.9531q-0.43945-0.9961-0.99609-1.8555l1.7578-0.64453q0.76172 1.2793 1.2305 2.5h2.2949q0.57617-1.1816 1.0156-2.5391l1.9629 0.61524q-0.49805 1.0742-1.0547 1.9238h2.0996v1.6016h-4.1797v1.4258h4.4531v1.6602h-4.4531v3.6914h-2.041v-3.6914h-4.2871v-1.6602h4.2871zm2.0996-6.0156h7.4024v11.416q0 1.0059-0.53711 1.416-0.44922 0.35157-1.5137 0.35157-1.377 0-2.6562-0.14649l-0.47852-1.9629q1.709 0.20508 2.5586 0.20508 0.35156 0 0.41015-0.17578 0.0391-0.10742 0.0391-0.30274v-9.1016h-12.48v11.582h-2.1777v-13.281h7.2754v-1.7676h-8.3594v-1.8164h8.3594v-2.1387h2.1582v2.1387h8.4766v1.8164h-8.4766z" dominant-baseline="central"/>
  <path d="m353.2 183.15q2.4219 2.1582 6.5234 3.4863l-1.2598 1.8359q-2.3633-0.83984-4.1211-2.0312-1.8164-1.2402-3.3496-3.0469v6.1035h-2.1191v-5.9961q-1.3574 1.9043-3.5059 3.418-1.6504 1.1621-3.5352 1.875l-1.3379-1.7188q3.0957-1.0254 5.166-2.7637 0.58594-0.48829 1.1914-1.1621h-4.6973v-7.998h6.7188v-1.3184h-8.0957v-1.7578h8.0957v-1.582h2.1191v1.582h8.2227v1.7578h-8.2227v1.3184h6.8457v7.998zm-4.3262-6.3574h-4.5996v1.582h4.5996zm2.1191 0v1.582h4.7266v-1.582zm-2.1191 3.1055h-4.5996v1.6113h4.5996zm2.1191 0v1.6113h4.7266v-1.6113z" dominant-baseline="central"/>
  <path d="m371.58 174.14v-3.6426h2.0996v3.6426h5.293v8.8379h-5.293v6.5234h-2.0996v-6.5234h-5.1856v-8.8379zm-3.1641 1.9434v4.9707h3.1641v-4.9707zm8.4766 4.9707v-4.9707h-3.2129v4.9707zm-12.5-5.7812q-1.1914-1.6602-3.1543-3.1738l1.4551-1.4844q1.9531 1.377 3.3008 3.0859zm-0.63476 5.0195q-1.6992-1.9727-3.3008-3.2324l1.5039-1.5039q1.709 1.2012 3.3789 3.1055zm-3.0371 7.5684q1.875-2.666 3.457-6.6406l1.7383 1.3379q-1.3379 3.6621-3.2617 6.8945z" dominant-baseline="central"/>
 </g>
</svg>
