<svg version="1.1" xmlns="http://www.w3.org/2000/svg" xmlns:xlink="http://www.w3.org/1999/xlink" width="51.47791" height="54.92778" viewBox="0,0,51.47791,54.92778"><g transform="translate(-8.49423,-196.8558)"><g data-paper-data="{&quot;isPaintingLayer&quot;:true}" fill="#ff0000" fill-rule="evenodd" stroke="none" stroke-width="0" stroke-linecap="round" stroke-linejoin="round" stroke-miterlimit="10" stroke-dasharray="" stroke-dashoffset="0" style="mix-blend-mode: normal"><path d="M59.34219,244.71385l-0.86997,0.45998l-0.55998,0.93996l-0.67997,0.1l-0.85997,-1.19995l-1.04996,0.41998l-0.81997,-0.17999l-2.74989,-2.36991l-0.98996,0.1l-0.38998,1.37994l-1.58994,-0.09l-1.38994,-0.48998l-0.62997,0.77997l-0.78997,0.06l-0.79997,-1.06996l-1.49994,0.31999l-0.37998,-0.55998l-1.30995,-0.29999l-1.28995,0.58998l-2.67989,-0.13999l-1.62993,0.86997l-0.91996,0.1l-2.19991,-0.47998l-1.49994,0.99996l-1.23995,0.35999l-1.03996,1.52994l0.39998,2.14991l-1.69993,1.84993l-2.77989,0.50998l-1.28995,-0.80997l-1.06996,1.02996l-0.94996,0.20999l-1.14995,-0.76997l-1.37994,-1.39994l-0.64997,-1.30995l-0.49998,0.02l-0.36999,-2.22991l0.46998,-0.35999l0.20999,-1.30995l-0.43998,-1.00996l0.20999,-0.90996l-0.82997,-0.24999l-0.41998,-2.6199l-0.84997,-0.84997l-1.91992,-2.83989l0.81997,-2.19991l-0.94996,-0.70997l-1.33995,0.34999l-2.65989,-1.05996l-0.11,-1.93992l-0.41998,-1.52994l-1.31995,-1.82993l0.50998,-0.59998l1.87992,-0.48998l0.42998,-0.87996l-1.86993,-2.81989l0.06,-1.83993l-0.66997,-0.82997l-0.12,-1.48994l1.55994,1.70993l0.41998,-0.64997l1.17995,0.39998l0.43998,1.52994l1.68993,-0.23999l1.03996,0.74997l4.69981,1.01996l0.93996,-0.37998l1.29995,0.55998l1.83993,0.1l0.65997,-0.36999l0.53998,-1.15995l0.15999,-2.65989l1.54994,1.52994l0.74997,1.58994l0.52998,-0.07l-0.41998,-2.03992l1.23995,-1.18995l-0.21999,-1.19995l0.96996,-0.51998l2.31991,1.35995l0.38998,1.35995l-0.61998,1.68993l0.26999,1.14995l-0.41998,1.41994l0.43998,1.45994l1.38994,0.76997l0.41998,-0.96996l0.67997,-0.15999l0.18999,-1.50994l1.77993,0.33999l0.86997,-0.79997l-0.90996,-2.04992l1.22995,0.57998l0.16999,1.48994l1.36995,1.26995l0.87996,-0.13999l0.92996,-1.35995l0.72997,0.75997l0.73997,3.17987l-1.34995,0.92996l-0.45998,0.89996l0.89996,2.03992l0.66997,0.51998l0.92996,-0.76997l0.87996,1.22995l1.55994,0.59998l0.97996,-0.53998l1.75993,1.56994l2.32991,1.57994l0.99996,-0.12999l0.79997,0.51998l1.20995,-0.53998l1.31995,-0.13999l0.84997,1.61994l1.34995,0.78997l-0.52998,0.45998l0.30999,0.97996l1.83993,1.43994l1.18995,0.39998l-0.21999,2.21991l-0.86997,0.73997l0.45998,1.66993"/><path d="M51.44251,200.01564l0.50998,1.18995l-0.46998,0.58998l0.1,1.50994l-0.90996,1.36995l0.39998,0.92996l-0.84997,0.57998l1.07996,1.24995l-0.41998,1.99992l-1.39994,1.67993l0.49998,1.14995l-0.70997,0.32999l-0.32999,-1.29995l-1.03996,-1.47994l-1.51994,0.03l-1.20995,1.32995l-0.76997,-0.66997l0.52998,-1.21995l1.08996,0.31999l0.65997,-0.38998l0.92996,0.39998l-0.07,-1.36995l-0.57998,-0.78997l-1.74993,0.19999l-2.5099,0.96996l-0.79997,1.62993l0.29999,0.56998l-1.12995,1.29995l-1.19995,2.84989l-0.81997,-0.01l-0.64997,-1.14995l1.40994,-0.90996l-0.41998,-1.37994l0.74997,-1.74993l-0.84997,-2.18991l-0.50998,-0.50998l-1.02996,0.76997l-0.59998,-0.87996l-1.76993,-0.38998l-1.28995,1.10996l-1.03996,0.23999l-0.27999,1.06996l-1.65993,0.41998l-0.79997,-1.38994l0.1,-0.72997l2.07992,-2.5699l-0.04,-2.27991l0.53998,-0.90996l0.80997,1.04996l1.31995,-0.36999l1.69993,-0.04l1.52994,-1.02996l0.57998,0.29999l2.64989,-1.95992l0.62997,-1.07996l1.01996,0.53998l2.22991,0.11l0.94996,-0.29999l1.00996,-1.19995l1.42994,-0.58998l1.76993,-0.11l0.11,1.66993l-0.26999,1.23995l0.97996,0.24999"/><path d="M26.24352,207.31535l-0.91996,0.73997l-1.21995,1.66993l-1.56994,-1.37994l-1.37994,-0.20999l-0.80997,-0.76997l-0.17999,-1.17995l1.68993,0.03l1.06996,-1.07996l1.59994,-0.28999l0.79997,1.08996l0.90996,0.08l0.01,1.29995"/><path d="M15.84394,209.51526l0.31999,1.91992l-1.82993,-0.12999l-0.79997,-0.33999l-0.17999,-1.00996l-0.75997,-1.09996l0.28999,-1.39994l0.20999,0.58998l1.11996,0.13999l1.62993,1.32995"/><path d="M19.54379,218.91488l1.81993,-3.14987l0.30999,1.41994l-1.43994,1.98992l-0.68997,-0.25999"/><path d="M17.84386,207.11535l-0.79997,-0.85997l-0.34999,-1.31995l1.13995,-0.02l0.48998,-1.04996l-0.47998,3.24987"/><path d="M28.64342,206.91536l-0.92996,1.11996l-0.73997,-0.79997l1.66993,-0.31999"/><path d="M22.24368,212.81513l0.20999,1.32995l-1.04996,-0.22999l0.83997,-1.09996"/></g></g></svg>