<svg version="1.1" xmlns="http://www.w3.org/2000/svg" xmlns:xlink="http://www.w3.org/1999/xlink" width="100" height="100" viewBox="0,0,100,100"><g transform="translate(-190,-130)"><g data-paper-data="{&quot;isPaintingLayer&quot;:true}" fill-rule="nonzero" stroke-linecap="butt" stroke-linejoin="miter" stroke-miterlimit="10" stroke-dasharray="" stroke-dashoffset="0" style="mix-blend-mode: normal"><path d="M190,230v-100h100v100z" fill="none" stroke="#959196" stroke-width="0"/><path d="M237.38549,173.51285c-0.4528,0.79603 -1.03498,1.70883 -1.7465,2.73849v18.05306h-2.77745v-14.53604c-2.45001,2.81203 -5.3569,5.24766 -8.72071,7.30698l-1.66165,-2.42696c5.15855,-3.01972 9.05607,-6.73156 11.69206,-11.13553h-10.9281v-2.7644h22.18286v2.7644zM244.23817,186.40083c-2.29633,-2.57843 -5.00505,-5.13087 -8.12608,-7.65738l1.89205,-1.95977c3.21816,2.40534 5.95118,4.81505 8.19915,7.22906z" fill="#ff0000" stroke="none" stroke-width="1"/><path d="M261.77313,184.98675c-0.12128,1.82572 -0.44877,3.41337 -0.98245,4.76313c-0.65494,1.6612 -1.85163,3.2316 -3.5901,4.71121l-1.96487,-2.10257c1.15623,-0.84793 2.02551,-1.79972 2.60766,-2.85528c0.94604,-1.71321 1.41904,-4.00603 1.41904,-6.87865v-12.61486h10.5274v21.55704c0,0.94315 -0.23044,1.60936 -0.69132,1.99863c-0.37196,0.31148 -0.98245,0.46723 -1.83142,0.46723c-1.18862,0 -2.35697,-0.05192 -3.50519,-0.15575l-0.44876,-2.79041c1.09158,0.19036 2.10226,0.28553 3.03216,0.28553c0.38001,0 0.61855,-0.0995 0.7156,-0.29851c0.06473,-0.13844 0.09703,-0.35043 0.09703,-0.63596v-5.45097zM261.87016,182.59875h5.28808v-3.93249h-5.28808v3.67288v0.25958zM261.87016,176.3041h5.28808v-3.76385h-5.28808zM257.38255,170.08736v18.26093h-6.41599v2.60873h-2.63189v-20.86911zM250.96654,172.52737v5.34713h3.90537v-5.34713zM250.96654,180.15893v5.68466h3.90537v-5.68466z" fill="#ff0000" stroke="none" stroke-width="1"/></g></g></svg>