<svg version="1.1" xmlns="http://www.w3.org/2000/svg" xmlns:xlink="http://www.w3.org/1999/xlink" width="94.81622" height="100.51396" viewBox="0,0,94.81622,100.51396"><g transform="translate(193.79937,-190.00279)"><g data-paper-data="{&quot;isPaintingLayer&quot;:true}" fill="#ff0000" fill-rule="evenodd" stroke="none" stroke-width="0" stroke-linecap="round" stroke-linejoin="round" stroke-miterlimit="10" stroke-dasharray="" stroke-dashoffset="0" style="mix-blend-mode: normal"><path d="M-98.98318,226.88927l-0.44998,0.52998l-0.98996,4.26983l-0.90996,0.27999l-1.16995,1.95992l0.01,3.08988l-1.49994,1.82993l-1.30994,0.64998l-2.15991,-0.09l-1.47994,1.10996l-2.5499,0.08999l-1.27995,0.56997l-0.85996,1.12996l-0.69998,1.97992l1.85993,0.35999l0.66997,0.55998l-0.66997,1.26995l-1.11996,0.61998l-0.46998,0.98996l-0.06,1.59994l0.32998,2.3599l0.40999,0.42998l0.47998,2.92988l-1.01996,0.30999l-0.89997,-0.50998l-1.21995,1.21995l0.33998,0.87997l-0.29998,1.20995l-0.93997,1.43995l-1.02996,2.3499l0.04,1.44995l-1.39995,2.04991l-0.55998,1.38995l0.72997,4.65981l0.76997,2.4799l-0.87996,0.26999l-0.77997,1.02996l0.56997,0.52998l-0.95996,1.06996l-0.01,1.16995l-2.27991,2.97988l1.08996,1.33995l-1.52994,1.35994l-3.94984,0.34999l-2.5799,-2.29991l-1.14995,0.29999l-0.67997,-0.47998l-2.04992,0.29998l0.05,0.96997l-1.53994,1.26995l-1.70993,-0.41998l-0.78997,0.31998l-1.43994,-1.47994l-1.06996,-1.64993l-1.59994,-1.06995l-1.52993,-0.02l-1.13996,-0.78997l-1.79993,0.73997l-0.79997,-0.17999l-1.51993,2.62989h-2.81989l-1.01996,0.88997l-1.60994,-0.62998l-0.81996,-1.05996l-2.02992,0.30999l-0.48998,0.61998l-0.34998,-1.19995l-1.25995,-0.76997l-2.09991,0.26999l-0.31999,2.07992l0.95996,1.04995l-0.54998,1.74993l-0.89996,0.06l-0.18999,1.93992l-1.33995,0.60997l-0.51998,1.59994l-1.37995,0.41998l-1.09995,-1.11996l-2.29991,-0.73997l-2.3899,0.76997l-1.39995,-0.88997l-0.99996,0.57997l-0.53997,-2.14991l-1.08996,-1.07996l-1.65993,0.26999l-2.31991,-0.70997l-0.44998,-0.58997l-3.00988,-0.2l-0.47998,-0.96996l1.12996,-1.57993l-0.38999,-0.82997l-2.12991,0.16999l-0.67997,-0.56998l-5.52978,1.05996l-0.99996,-0.58997l-2.24991,0.01999l0.30998,-0.75997l1.58994,-0.98996l-0.01,-0.79996l1.24995,-1.25995l0.13999,-1.21995l1.68993,-2.05992l2.54989,-1.97992l1.95993,-0.56997l0.72997,-0.56998l3.12988,0.02l1.54993,-0.40999l1.16996,0.41998l0.52998,-0.56997l1.27995,0.75997l1.50994,-0.35998l1.25995,0.19l1.06996,-0.46998l2.26991,-1.79993l0.57998,-2.56989l2.66989,-1.71994l1.01995,-0.02999l1.30995,-1.36994l1.12996,-0.03l1.41994,-1.09996l0.59998,-1.68993l-0.32999,-0.56997l0.95997,-1.98992l2.16991,-3.63986l0.86996,-1.93993l1.76993,2.34991l1.70993,0.48998l1.62994,1.84992l-0.13,0.99996l0.90996,2.27991l2.03992,0.09999l2.2999,-0.54998l1.50994,-0.80996l0.56998,-2.3999l-0.63998,-2.4099l0.50998,-2.4799l1.76993,-1.89992l2.00992,-1.73993l1.31994,-2.63989l1.77993,-2.79989l-0.17,-0.47998l1.98992,-2.84989l1.63993,-1.60994l0.36998,-1.06995l2.6699,-1.37995l3.03987,-2.21991l4.59982,-2.82989l0.99996,-2.37991l0.01,-3.06987l-1.65993,-0.33999l-1.69993,-4.52982l-0.96996,-1.63993l-2.06991,-1.74993l-0.58998,-2.20991l-0.87996,-0.45998l-0.94996,-2.04992l-1.88993,-3.05088l-2.15991,-1.86292l-1.07995,-0.48598l-2.08992,-1.94392l-0.96996,-0.49498l-1.06996,-1.75893l-1.00996,-2.5059l-1.34994,-1.30595l0.21999,-1.66993l0.71998,-1.77393l-0.17,-1.84193l0.85996,-0.94097l0.27999,-1.31894l-0.73997,-0.80197l1.49994,0.63598l1.07995,1.83193l-0.47998,1.75892l0.99996,0.131l0.69997,1.44294l1.47994,0.21299l3.70986,1.77493l1.01996,-1.20395l1.60994,-0.39198l1.34994,-1.20396l0.60998,1.34095l0.01,1.12995l1.21995,1.41294l3.76985,0.75597l1.59994,1.57094l-1.06995,2.08292l0.69997,1.98992l-0.13999,0.78997l1.34995,0.97296l0.33999,1.83492l0.58997,0.42498l-0.18,1.62194l-0.65997,0.72997l1.05996,1.40994l1.37995,-0.27999l1.26995,1.01996l-0.35998,0.89996l1.21995,0.74997l2.03992,2.4799l1.98992,-0.21999l0.98996,0.82997l2.08991,0.03999l2.39991,3.20988l1.27995,1.09995l-0.05,1.01996l1.10996,0.22999l1.75993,2.26991l0.64998,-0.34999l0.87996,0.98997l2.67989,-0.16"/></g></g></svg>