<svg version="1.1" xmlns="http://www.w3.org/2000/svg" xmlns:xlink="http://www.w3.org/1999/xlink" width="224" height="142" viewBox="0,0,224,142"><g transform="translate(-128,-180)"><g data-paper-data="{&quot;isPaintingLayer&quot;:true}" stroke="none" stroke-width="1" stroke-linecap="butt" stroke-linejoin="miter" stroke-miterlimit="10" stroke-dasharray="" stroke-dashoffset="0" style="mix-blend-mode: normal"><path d="M352,312c0,5.54 -4.46,10 -10,10h-204c-5.54,0 -10,-4.46 -10,-10v-132h224z" fill="#1d2a41" fill-rule="evenodd"/><g fill-rule="evenodd"><path d="M336,296c0.55228,0 1,0.44772 1,1c0,0.55228 -0.44772,1 -1,1h-192c-0.55228,0 -1,-0.44772 -1,-1c0,-0.55228 0.44772,-1 1,-1z" fill="#31476d"/><g fill="#7d97b4"><path d="M143,297c0,-0.55228 0.44772,-1 1,-1c0.55228,0 1,0.44772 1,1c0,0.55228 -0.44772,1 -1,1c-0.55228,0 -1,-0.44772 -1,-1z"/><path d="M228.3333,297c0,-0.55228 0.44772,-1 1,-1c0.55228,0 1,0.44772 1,1c0,0.55228 -0.44772,1 -1,1c-0.55228,0 -1,-0.44772 -1,-1z"/><path d="M271,297c0,-0.55228 0.44772,-1 1,-1c0.55228,0 1,0.44772 1,1c0,0.55228 -0.44772,1 -1,1c-0.55228,0 -1,-0.44772 -1,-1z"/><path d="M164.33333,297c0,-0.55228 0.44772,-1 1,-1c0.55228,0 1,0.44772 1,1c0,0.55228 -0.44772,1 -1,1c-0.55228,0 -1,-0.44772 -1,-1z"/><path d="M313.6667,297c0,-0.55228 0.44772,-1 1,-1c0.55228,0 1,0.44772 1,1c0,0.55228 -0.44772,1 -1,1c-0.55228,0 -1,-0.44772 -1,-1z"/><path d="M185.66667,297c0,-0.55228 0.44772,-1 1,-1c0.55228,0 1,0.44772 1,1c0,0.55228 -0.44772,1 -1,1c-0.55228,0 -1,-0.44772 -1,-1z"/><path d="M207,297c0,-0.55228 0.44772,-1 1,-1c0.55228,0 1,0.44772 1,1c0,0.55228 -0.44772,1 -1,1c-0.55228,0 -1,-0.44772 -1,-1z"/><path d="M249.6667,297c0,-0.55228 0.44772,-1 1,-1c0.55228,0 1,0.44772 1,1c0,0.55228 -0.44772,1 -1,1c-0.55228,0 -1,-0.44772 -1,-1z"/><path d="M292.3333,297c0,-0.55228 0.44772,-1 1,-1c0.55228,0 1,0.44772 1,1c0,0.55228 -0.44772,1 -1,1c-0.55228,0 -1,-0.44772 -1,-1z"/><path d="M335,297c0,-0.55228 0.44772,-1 1,-1c0.55228,0 1,0.44772 1,1c0,0.55228 -0.44772,1 -1,1c-0.55228,0 -1,-0.44772 -1,-1z"/></g></g><g fill="#ffffff" fill-rule="nonzero"><path d="M140,265.51h10.71191l0.88184,0.7451c-0.25521,0.95247 -0.5879,1.7477 -0.99805,2.3857c-0.77018,1.20767 -1.92318,2.11003 -3.45899,2.7071l-0.86132,-1.1758c1.06185,-0.319 1.94368,-0.89093 2.6455,-1.7158c0.41471,-0.48767 0.7041,-1.00267 0.86817,-1.545h-9.78906zM144.38183,268.4631h1.56543v1.1758c0,1.76367 -0.19596,3.1263 -0.58789,4.0879c-0.49675,1.22133 -1.46289,2.2148 -2.89844,2.9804l-1.12793,-1.1894c0.98893,-0.4694 1.71127,-1.02997 2.167,-1.6817c0.35091,-0.50587 0.58105,-1.04133 0.69043,-1.6064c0.1276,-0.64713 0.1914,-1.5153 0.1914,-2.6045z"/><path d="M157.958,276.803v-7.0136c-1.38541,0.92967 -2.96679,1.7135 -4.74414,2.3515l-0.82715,-1.3877c2.01888,-0.679 3.78939,-1.554 5.31153,-2.625c1.49479,-1.05273 2.82552,-2.25813 3.99219,-3.6162l1.31933,0.8272c-1.03451,1.1894 -2.1875,2.28087 -3.45898,3.2744v8.1894z"/><path d="M164.5957,265.688h10.00781v10.3496h-10.24707v-1.4287h8.62012v-7.4922h-8.38086z"/><path d="M181.9932,268.21c-1.44011,-0.6426 -2.93718,-1.1576 -4.49121,-1.545l0.47851,-1.4697c1.80013,0.41013 3.31088,0.92057 4.53223,1.5313zM177.67289,275.0117c2.25586,-0.1914 3.98307,-0.5947 5.18164,-1.2099c1.41276,-0.7292 2.49739,-1.84803 3.2539,-3.3565c0.49219,-0.97527 0.89096,-2.2513 1.19629,-3.8281l1.3125,0.9639c-0.36914,1.6862 -0.81575,3.02603 -1.33984,4.0195c-0.94792,1.80927 -2.39714,3.1195 -4.34766,3.9307c-1.23047,0.5104 -2.87565,0.87497 -4.93554,1.0937z"/><path d="M197.0049,275.333c2.67513,-0.67447 4.01269,-2.208 4.01269,-4.6006c0,-1.0436 -0.26888,-1.94137 -0.80664,-2.6933c-0.60156,-0.84767 -1.51757,-1.39227 -2.74804,-1.6338c-0.26888,2.11453 -0.63574,3.8463 -1.10059,5.1953c-0.31901,0.94333 -0.7155,1.83427 -1.18945,2.6728c-0.68359,1.19407 -1.46061,1.7911 -2.33106,1.7911c-0.64713,0 -1.22363,-0.29167 -1.72949,-0.875c-0.32357,-0.3692 -0.58561,-0.82267 -0.78613,-1.3604c-0.26433,-0.69727 -0.39649,-1.44693 -0.39649,-2.249c0,-1.29887 0.35775,-2.49517 1.07325,-3.5889c0.72461,-1.11653 1.66569,-1.92773 2.82324,-2.4336c0.8431,-0.36913 1.76823,-0.5537 2.77539,-0.5537c1.57227,0 2.90755,0.42157 4.00586,1.2647c1.34895,1.03447 2.02343,2.49963 2.02343,4.3955c0,3.1764 -1.60644,5.1907 -4.81933,6.0429zM195.97951,266.3506c-0.80664,0.09113 -1.48112,0.3076 -2.02344,0.6494c-0.34635,0.22333 -0.69043,0.51957 -1.03223,0.8887c-0.94791,1.04813 -1.42187,2.26263 -1.42187,3.6435c0,1.0072 0.20052,1.79563 0.60156,2.3653c0.24609,0.35087 0.48991,0.5263 0.73145,0.5263c0.32812,0 0.69726,-0.3623 1.10742,-1.0869c1.0026,-1.76367 1.68164,-4.09243 2.03711,-6.9863z"/><path d="M212.1533,264.539h1.53808v2.7617h2.74121v1.4013h-2.74121v0.4307c0,2.3242 -0.33268,4.06963 -0.99805,5.2363c-0.64257,1.12113 -1.77506,1.9802 -3.39746,2.5772l-0.95703,-1.2168c1.58594,-0.54687 2.64779,-1.38997 3.18555,-2.5293c0.41927,-0.87953 0.62891,-2.2285 0.62891,-4.0469v-0.4512h-4.14942v3.917h-1.53808v-3.917h-2.54981v-1.4013h2.54981v-2.6592h1.53808v2.6592h4.14942z"/><path d="M222.79,276.803v-7.0136c-1.38541,0.92967 -2.96679,1.7135 -4.74414,2.3515l-0.82714,-1.3877c2.01888,-0.679 3.78939,-1.554 5.31152,-2.625c1.49479,-1.05273 2.82552,-2.25813 3.99219,-3.6162l1.31933,0.8272c-1.03451,1.1894 -2.1875,2.28087 -3.45898,3.2744v8.1894z"/><path d="M229.8994,265.633h7.56055l0.84082,1.0254c-0.4056,1.57227 -1.08692,3.09667 -2.04395,4.5732c1.48568,1.16213 2.94174,2.5111 4.36817,4.0469l-1.1211,1.292c-1.25325,-1.4264 -2.625,-2.8141 -4.11523,-4.1631c-1.54037,1.85027 -3.42709,3.25163 -5.66016,4.2041l-0.83398,-1.415c1.61783,-0.6426 2.944,-1.41963 3.97851,-2.3311c1.21224,-1.0618 2.18294,-2.29453 2.91211,-3.6982c0.36459,-0.7064 0.63347,-1.41733 0.80664,-2.1328h-6.69238zM239.15526,267.007c-0.28711,-0.75193 -0.74968,-1.59273 -1.3877,-2.5224l1.08008,-0.3897c0.52409,0.72007 0.99577,1.54493 1.41504,2.4746zM241.03514,266.6994c-0.36003,-0.92513 -0.82259,-1.77507 -1.38769,-2.5498l1.03222,-0.3349c0.54688,0.66533 1.00945,1.4674 1.3877,2.4062z"/></g><g fill="#ffffff" fill-rule="nonzero"><path d="M152.168,230.992c0,0.2142 -0.0205,1.23047 -0.0615,3.0488h1.30566v1.2305h-1.33301c-0.01367,0.597 -0.0433,1.27377 -0.0889,2.0303h1.15528v1.2031h-1.24414c-0.05467,0.6608 -0.12986,1.0983 -0.22559,1.3125c-0.21419,0.5104 -0.73372,0.7656 -1.55859,0.7656c-0.52865,0 -1.01628,-0.03873 -1.46289,-0.1162l-0.25293,-1.2168c0.64257,0.09113 1.13476,0.1367 1.47656,0.1367c0.27799,0 0.44433,-0.09797 0.49902,-0.2939c0.02733,-0.09573 0.0524,-0.2917 0.0752,-0.5879h-4.86719c-0.00467,0.03667 -0.0115,0.0754 -0.0205,0.1162c-0.041,0.24153 -0.07974,0.4694 -0.11621,0.6836l-1.41504,-0.1367c0.278,-1.6452 0.46485,-2.88937 0.56055,-3.7325l0.0205,-0.164h-1.36719v-1.2305h1.51074c0.12761,-1.10287 0.23698,-2.11913 0.32813,-3.0488zM147.84769,232.1814h-1.49707c-0.01367,0.23247 -0.05468,0.7224 -0.12305,1.4698l-0.041,0.3896h1.51758l0.0205,-0.1914c0.00913,-0.13213 0.0228,-0.3167 0.041,-0.5537c0.0456,-0.638 0.07293,-1.00943 0.082,-1.1143zM149.19437,232.1814c-0.0228,0.54233 -0.05698,1.14163 -0.10254,1.7979v0.062h1.60644c0.01827,-0.62433 0.03423,-1.24413 0.0479,-1.8594zM147.59476,235.2713h-1.53809c-0.06836,0.556 -0.14128,1.10513 -0.21875,1.6474l-0.0547,0.3829h1.59961c0.10938,-0.98893 0.18002,-1.6657 0.21192,-2.0303zM148.99612,235.2713c-0.01367,0.18227 -0.041,0.48303 -0.082,0.9023l-0.10937,1.128h1.74316c0.0228,-0.44207 0.04103,-0.77477 0.0547,-0.9981c0.02733,-0.4876 0.04557,-0.83167 0.0547,-1.0322zM146.31644,228.5242h6.60351v1.2715h-7.1709c-0.36914,0.75193 -0.83854,1.46743 -1.4082,2.1465l-0.97754,-1.0664c0.89779,-1.05273 1.53581,-2.26497 1.91406,-3.6367l1.45606,0.1503c-0.16407,0.474 -0.30306,0.85227 -0.41699,1.1348zM142.54983,230.5135c-0.56055,-0.7702 -1.24186,-1.49253 -2.04394,-2.167l1.03223,-0.9981c0.74283,0.54687 1.44921,1.2373 2.11914,2.0713zM142.05765,234.1228c-0.69271,-0.88867 -1.39226,-1.63377 -2.09864,-2.2353l1.06641,-1.0254c0.79297,0.62433 1.50618,1.33527 2.13965,2.1328zM140.19827,239.4891c0.79297,-1.09833 1.54493,-2.5453 2.25586,-4.3409l1.2168,0.8682c-0.59245,1.65887 -1.35351,3.181 -2.2832,4.5664z"/><path d="M157.6982,237.363v-6.3438l0.4375,-0.027c2.84831,-0.1504 5.19303,-0.45347 7.03418,-0.9092l0.92969,1.1279c-0.76107,0.196 -1.67253,0.3692 -2.73438,0.5196l-0.28027,0.041c0.02733,0.45573 0.08658,1.01173 0.17774,1.668l3.54785,-0.1504l0.0684,1.1757l-3.39746,0.1573c0.28711,1.25327 0.70638,2.26727 1.25781,3.042c0.20508,0.28253 0.41471,0.51267 0.6289,0.6904c0.17318,0.13673 0.28939,0.2051 0.34864,0.2051c0.17317,0 0.32356,-0.69957 0.45117,-2.0987l1.29883,0.8409c-0.13217,0.9798 -0.28484,1.69073 -0.45801,2.1328c-0.22787,0.56507 -0.55827,0.8476 -0.99121,0.8476c-0.36459,0 -0.79981,-0.19823 -1.30567,-0.5947c-0.60612,-0.47853 -1.14616,-1.1234 -1.62011,-1.9346c-0.41927,-0.7246 -0.76335,-1.74313 -1.03223,-3.0556l-2.91894,0.1025v2.29c1.01171,-0.20507 2.00976,-0.44203 2.99414,-0.7109l0.12304,1.1758c-1.65885,0.4922 -3.41341,0.90237 -5.26367,1.2305l-0.44434,-1.2442c0.32813,-0.05 0.71094,-0.10923 1.14844,-0.1777zM161.66305,231.9352l-0.16407,0.021c-0.597,0.05933 -1.38313,0.11857 -2.35839,0.1777v1.4902l2.71386,-0.1094c-0.09115,-0.62433 -0.15495,-1.1507 -0.1914,-1.5791zM161.85445,228.5651h5.10645v1.2715h-10.41114v3.3018c0,1.9186 -0.09342,3.42023 -0.28027,4.5049c-0.18685,1.0664 -0.5332,2.04393 -1.03906,2.9326l-1.23047,-1.0254c0.46485,-0.84767 0.77019,-1.86623 0.91602,-3.0557c0.10937,-0.875 0.16406,-1.9938 0.16406,-3.3564v-4.5733h5.22265v-1.2851h1.55176zM157.28805,239.0993h6.24121v1.2305h-6.24121z"/><path d="M174.8975,232.817v5.414c0,0.35093 0.15039,0.56287 0.45117,0.6358c0.3099,0.07747 1.01856,0.1162 2.12598,0.1162c1.08008,0 1.7933,-0.0547 2.13965,-0.1641c0.19596,-0.064 0.32356,-0.24173 0.38281,-0.5332c0.07747,-0.41013 0.11849,-0.89547 0.12305,-1.456l1.42871,0.4033c-0.07292,1.3444 -0.25749,2.20343 -0.55371,2.5771c-0.19597,0.24613 -0.49219,0.39197 -0.88867,0.4375c-0.62435,0.0684 -1.68393,0.1026 -3.17872,0.1026c-1.15755,0 -1.91633,-0.032 -2.27636,-0.096c-0.54232,-0.09113 -0.8864,-0.3304 -1.03223,-0.7178c-0.07291,-0.20507 -0.10937,-0.4785 -0.10937,-0.8203v-5.4209l-1.30567,0.4512l-0.32129,-1.3262l1.62696,-0.5605v-3.6846h1.38769v3.206l1.46973,-0.499v-3.6025h1.37402v3.124l2.29004,-0.7861l0.71777,0.4375v5.1201c0,0.35547 -0.08431,0.6198 -0.25293,0.793c-0.19141,0.1914 -0.51269,0.2871 -0.96386,0.2871c-0.36914,0 -0.76107,-0.032 -1.17578,-0.096l-0.22559,-1.3057c0.26888,0.06833 0.54232,0.1025 0.82031,0.1025c0.20052,0 0.32357,-0.041 0.36914,-0.123c0.0456,-0.0684 0.0684,-0.18233 0.0684,-0.3418v-3.2334l-1.64746,0.5742v5.5303h-1.37402v-5.0586zM169.87309,230.5816v-3.3017h1.46972v3.3017h1.32618v1.3877h-1.32618v4.3477c0.47852,-0.16407 0.95248,-0.33497 1.42188,-0.5127l0.12988,1.3193c-1.47656,0.67447 -2.99186,1.23957 -4.5459,1.6953l-0.47851,-1.456c0.70182,-0.18233 1.31705,-0.3555 1.8457,-0.5195c0.0638,-0.02267 0.11621,-0.03867 0.15723,-0.048v-4.8262h-1.73633v-1.3877z"/><path d="M188.3369,229.228v3.4727h1.6543v1.3467h-1.6543v6.5351h-1.45605v-6.5351h-1.67481c-0.0228,1.37627 -0.12306,2.49963 -0.30078,3.3701c-0.24609,1.235 -0.74739,2.3219 -1.5039,3.2607l-1.23731,-0.9365c0.69727,-0.84767 1.15528,-1.87763 1.37403,-3.0899c0.11849,-0.67447 0.18684,-1.50617 0.20507,-2.4951l0.007,-0.1093h-1.66797v-1.3467h1.66797v-3.4727h-1.37402v-1.333h7.2666v1.333zM186.88085,229.228h-1.67481v3.4727h1.67481zM189.02733,239.0923c2.04623,-0.70187 3.79623,-2.09183 5.25,-4.1699l1.13477,0.9091c-1.36263,2.069 -3.19694,3.5547 -5.50293,4.4571zM189.44433,231.2856c1.83203,-0.92053 3.23795,-2.1715 4.21777,-3.7529l1.20312,0.7656c-1.14388,1.76367 -2.66146,3.13313 -4.55273,4.1084zM189.71093,234.895c1.74544,-0.82487 3.18782,-2.0485 4.32715,-3.6709l1.13476,0.9024c-1.20768,1.69527 -2.72526,2.99637 -4.55273,3.9033z"/><path d="M197.2715,229.201h3.68457c0.4056,-0.64713 0.71322,-1.16897 0.92286,-1.5655l1.52441,0.2188c-0.13672,0.24607 -0.37826,0.6471 -0.72461,1.2031l-0.0889,0.1436h4.81934v1.3467h-5.72852c-0.597,0.82027 -1.16666,1.5312 -1.70898,2.1328c0.86133,-0.515 1.64746,-0.7725 2.3584,-0.7725c1.10287,0 1.8252,0.5537 2.16699,1.6611c1.16667,-0.38733 2.35612,-0.77013 3.56836,-1.1484l0.58789,1.3262l-0.23926,0.068l-0.67676,0.1778c-1.27604,0.34633 -2.29687,0.64253 -3.0625,0.8886c0.05467,0.59247 0.09341,1.3581 0.11622,2.2969l-1.49707,0.082c-0.00467,-0.54227 -0.01377,-1.13013 -0.0273,-1.7636v-0.1367c-2.09635,0.71547 -3.14453,1.4355 -3.14453,2.1601c0,0.37373 0.26888,0.62893 0.80664,0.7656c0.51953,0.1322 1.44922,0.1983 2.78906,0.1983c1.23503,0 2.53158,-0.07063 3.88965,-0.2119l0.16406,1.456c-1.31705,0.10027 -2.68196,0.1504 -4.09472,0.1504c-1.74089,0 -2.97819,-0.13217 -3.71192,-0.3965c-0.9069,-0.32813 -1.36035,-0.9183 -1.36035,-1.7705c0,-0.72007 0.32129,-1.3558 0.96387,-1.9072c0.66537,-0.56967 1.83659,-1.15757 3.51367,-1.7637c-0.09115,-0.35093 -0.21191,-0.59703 -0.3623,-0.7383c-0.16862,-0.15947 -0.39193,-0.2392 -0.66993,-0.2392c-0.45117,0 -1.01855,0.1709 -1.70214,0.5127c-0.8431,0.41927 -1.74772,1.05043 -2.71387,1.8935l-0.90918,-1.039c1.41732,-1.31707 2.52702,-2.61133 3.3291,-3.8828h-2.78223z"/><path d="M218.7432,237.712l0.0957,1.2236c-1.97787,0.69727 -4.17676,1.2715 -6.59668,1.7227l-0.50586,-1.3672c0.41927,-0.064 1.01171,-0.16653 1.77734,-0.3076v-2.502c-0.78841,0.40107 -1.72721,0.7816 -2.8164,1.1416l-0.7793,-1.2167c2.19205,-0.59247 3.86458,-1.349 5.01758,-2.2696h-4.88086v-1.1894h5.8584v-1.0323h-4.42969v-1.1484h4.42969v-0.9639h-5.12696v-1.1757h5.12696v-1.3467h1.49707v1.3467h5.27734v1.1757h-5.27734v0.9639h4.58007v1.1484h-4.58007v1.0323h6.00879v1.1894h-1.63379l1.01172,0.6973c-0.62435,0.60613 -1.49935,1.2692 -2.625,1.9892l-0.15723,0.1026c0.85677,0.78387 2.01888,1.431 3.48633,1.9414l-0.92285,1.3877c-1.5905,-0.67447 -2.86882,-1.52213 -3.83497,-2.543zM216.67192,234.1573c-0.45573,0.5332 -1.00489,1.01173 -1.64747,1.4356v3.0693c1.12565,-0.25067 2.25586,-0.54233 3.39063,-0.875l0.31445,-0.089c-0.93424,-1.03447 -1.62011,-2.2148 -2.05761,-3.541zM219.16703,236.0235c0.8112,-0.57873 1.52214,-1.20763 2.13281,-1.8867h-3.23339c0.29167,0.69727 0.65853,1.32617 1.10058,1.8867z"/><path d="M231.5674,233.104v6.0635c0,0.5514 -0.11165,0.92737 -0.33496,1.1279c-0.20963,0.18227 -0.61523,0.2734 -1.21679,0.2734c-0.6836,0 -1.33302,-0.04327 -1.94825,-0.1298l-0.29394,-1.4424c0.63802,0.1048 1.2487,0.1572 1.83203,0.1572c0.19596,0 0.31901,-0.03417 0.36914,-0.1025c0.03647,-0.05933 0.0547,-0.15733 0.0547,-0.294v-5.6533h-5.87891v-1.3604h13.17285v1.3604zM225.79104,228.0386h9.88476v1.3466h-9.88476zM224.06838,238.5249c0.98437,-1.02993 1.77734,-2.3994 2.37891,-4.1084l1.41503,0.5332c-0.69726,1.95507 -1.57454,3.49087 -2.63183,4.6074zM235.79885,239.3589c-0.94336,-1.99613 -1.76367,-3.45677 -2.46094,-4.3819l1.28516,-0.7656c1.0026,1.28973 1.85709,2.6934 2.56347,4.211z"/><path d="M245.1777,227.56h1.53809v1.8868h4.0332v1.3193h-4.0332v2.9258c0.15951,0.56053 0.23926,1.05957 0.23926,1.4971c0,1.62233 -0.35775,2.81403 -1.07324,3.5751c-0.7793,0.834 -1.9528,1.4105 -3.52051,1.7295l-0.7793,-1.1621c1.2168,-0.2324 2.11914,-0.5605 2.70703,-0.9843c0.55143,-0.40107 0.92285,-0.94567 1.11426,-1.6338c-0.48763,0.5332 -1.06868,0.7998 -1.74316,0.7998c-0.75651,0 -1.36947,-0.2142 -1.83887,-0.6426c-0.55143,-0.50587 -0.82715,-1.2396 -0.82715,-2.2012c0,-0.50587 0.12077,-0.9935 0.36231,-1.4629c0.1595,-0.30073 0.35546,-0.55137 0.58789,-0.7519c0.53776,-0.45573 1.18262,-0.6836 1.93457,-0.6836c0.47851,0 0.91145,0.11393 1.29882,0.3418v-1.3467h-6.74707v-1.3193h6.74707zM245.2324,234.6558v-0.253c0,-0.29167 -0.06836,-0.54913 -0.20508,-0.7724c-0.25521,-0.41927 -0.62435,-0.6289 -1.10742,-0.6289c-0.24609,0 -0.47624,0.06833 -0.69043,0.205c-0.5013,0.31447 -0.75195,0.79757 -0.75195,1.4493c0,0.41013 0.09115,0.75647 0.27344,1.039c0.25521,0.39193 0.63118,0.5879 1.12793,0.5879c0.45117,0 0.80891,-0.2028 1.07324,-0.6084c0.18685,-0.28713 0.28027,-0.62663 0.28027,-1.0185z"/><path d="M253.627,228.039h7.66992l0.73145,1.1347c-2.36979,1.44927 -4.42285,2.76633 -6.15918,3.9512c1.12109,-0.4694 2.24674,-0.7041 3.37695,-0.7041c1.01628,0 1.86394,0.1618 2.54297,0.4854c0.62891,0.30073 1.11882,0.71087 1.46973,1.2304c0.36458,0.55147 0.54687,1.18493 0.54687,1.9004c0,1.0026 -0.3418,1.84113 -1.02539,2.5156c-0.4694,0.4694 -1.07096,0.82487 -1.80468,1.0664c-0.96159,0.31447 -2.01433,0.4717 -3.15821,0.4717c-1.31705,0 -2.28776,-0.2438 -2.91211,-0.7314c-0.48763,-0.3828 -0.73144,-0.90007 -0.73144,-1.5518c0,-0.4922 0.17773,-0.9297 0.5332,-1.3125c0.53776,-0.57873 1.26465,-0.8681 2.18067,-0.8681c0.9707,0 1.74772,0.32583 2.33105,0.9775c0.42383,0.47393 0.72917,1.10967 0.91602,1.9072c1.40364,-0.4466 2.10546,-1.27147 2.10546,-2.4746c0,-0.91147 -0.38053,-1.58367 -1.1416,-2.0166c-0.51041,-0.29167 -1.15755,-0.4375 -1.9414,-0.4375c-1.17123,0 -2.22852,0.1618 -3.17188,0.4854c-0.69727,0.23693 -1.63379,0.80887 -2.80957,1.7158l-0.96387,-1.1621c1.26693,-1.0938 2.70931,-2.2035 4.32715,-3.3291c1.11654,-0.77473 2.10092,-1.4105 2.95313,-1.9073h-5.86524zM258.80864,238.7782c-0.32357,-1.28967 -0.95931,-1.9345 -1.90722,-1.9345c-0.52409,0 -0.90235,0.16633 -1.13477,0.499c-0.10937,0.1504 -0.16406,0.31217 -0.16406,0.4853c0,0.36007 0.25521,0.63123 0.76562,0.8135c0.36914,0.1276 0.86361,0.1914 1.4834,0.1914c0.26433,0 0.58334,-0.01833 0.95703,-0.055z"/></g><g fill="#ffffff" fill-rule="nonzero"><path d="M142.044,194.514v-2.5908h1.52441v2.5908h2.21484v-3.2334h1.53809v3.2334h2.40625v-2.9668h1.51074v2.9668h2.14649v1.3603h-2.14649v4.3545h-5.45508v-4.3545h-2.21484v6.4053h9.21484v1.3603h-9.21484v0.9434h-1.52441v-8.709h-1.96192v-1.3603zM149.72759,195.8743h-2.40625v3.0352h2.40625z"/><path d="M163.2969,197.624c1.14388,0.75653 2.5817,1.35353 4.31347,1.791l-0.7998,1.3194c-1.07552,-0.35547 -2.07357,-0.7998 -2.99414,-1.333v5.1816h-1.57911v-5.5986h0.90235c-0.64258,-0.43293 -1.18718,-0.8864 -1.63379,-1.3604h-1.56543c-0.38737,0.49673 -0.90918,0.9912 -1.56543,1.4834h0.86816v0.7178c0,1.61327 -0.35091,2.81183 -1.05273,3.5957c-0.45117,0.50587 -1.13705,0.94337 -2.05762,1.3125l-0.9707,-1.1416c1.10287,-0.4284 1.8252,-0.97527 2.16699,-1.6406c0.24609,-0.47853 0.36914,-1.11883 0.36914,-1.9209v-0.4649c-0.88867,0.5332 -1.8776,0.9821 -2.96679,1.3467l-0.81348,-1.1758c1.15299,-0.31447 2.09407,-0.66763 2.82324,-1.0595c0.54687,-0.29167 1.05273,-0.6426 1.51758,-1.0528h-2.57715v-5.8515h10.11035v5.8515zM157.15139,192.9209v1.2305h2.85742v-1.2305zM157.15139,195.2314v1.2305h2.85742v-1.2305zM164.33596,196.4619v-1.2305h-2.9668v1.2305zM164.33596,194.1514v-1.2305h-2.9668v1.2305z"/><path d="M174.8975,196.817v5.414c0,0.35093 0.15039,0.56287 0.45117,0.6358c0.3099,0.07747 1.01856,0.1162 2.12598,0.1162c1.08008,0 1.7933,-0.0547 2.13965,-0.1641c0.19596,-0.064 0.32356,-0.24173 0.38281,-0.5332c0.07747,-0.41013 0.11849,-0.89547 0.12305,-1.456l1.42871,0.4033c-0.07292,1.3444 -0.25749,2.20343 -0.55371,2.5771c-0.19597,0.24613 -0.49219,0.39197 -0.88867,0.4375c-0.62435,0.0684 -1.68393,0.1026 -3.17872,0.1026c-1.15755,0 -1.91633,-0.032 -2.27636,-0.096c-0.54232,-0.09113 -0.8864,-0.3304 -1.03223,-0.7178c-0.07291,-0.20507 -0.10937,-0.4785 -0.10937,-0.8203v-5.4209l-1.30567,0.4512l-0.32129,-1.3262l1.62696,-0.5605v-3.6846h1.38769v3.206l1.46973,-0.499v-3.6025h1.37402v3.124l2.29004,-0.7861l0.71777,0.4375v5.1201c0,0.35547 -0.08431,0.6198 -0.25293,0.793c-0.19141,0.1914 -0.51269,0.2871 -0.96386,0.2871c-0.36914,0 -0.76107,-0.032 -1.17578,-0.096l-0.22559,-1.3057c0.26888,0.06833 0.54232,0.1025 0.82031,0.1025c0.20052,0 0.32357,-0.041 0.36914,-0.123c0.0456,-0.0684 0.0684,-0.18233 0.0684,-0.3418v-3.2334l-1.64746,0.5742v5.5303h-1.37402v-5.0586zM169.87309,194.5816v-3.3017h1.46972v3.3017h1.32618v1.3877h-1.32618v4.3477c0.47852,-0.16407 0.95248,-0.33497 1.42188,-0.5127l0.12988,1.3193c-1.47656,0.67447 -2.99186,1.23957 -4.5459,1.6953l-0.47851,-1.456c0.70182,-0.18233 1.31705,-0.3555 1.8457,-0.5195c0.0638,-0.02267 0.11621,-0.03867 0.15723,-0.048v-4.8262h-1.73633v-1.3877z"/><path d="M189.1162,200.338c-0.97526,0.82487 -2.18522,1.50163 -3.62988,2.0303l-0.86817,-1.0528c1.17579,-0.3828 2.22624,-0.93193 3.15137,-1.6474l-0.23926,-0.1162c-0.88411,-0.42387 -1.85026,-0.85227 -2.89843,-1.2852l0.6289,-1.0391c1.17578,0.4284 2.27637,0.8773 3.30176,1.3467l0.2666,0.1231c1.15299,-1.21227 2.02116,-2.79367 2.60449,-4.7442l1.36036,0.4239c-0.66537,1.98693 -1.55176,3.63893 -2.65918,4.956c0.0456,0.02267 0.08889,0.04533 0.12988,0.068c0.64258,0.319 1.48568,0.7861 2.5293,1.4013l-0.82715,1.1485c-0.875,-0.5332 -1.8252,-1.07097 -2.85059,-1.6133zM186.07421,197.3712c-0.32813,-1.08467 -0.70182,-2.0007 -1.12109,-2.7481l1.28515,-0.5126c0.44206,0.7838 0.82943,1.69297 1.16211,2.7275zM188.48046,196.8243c-0.33724,-1.05273 -0.7155,-1.97103 -1.13477,-2.7549l1.23047,-0.4922c0.52409,0.91147 0.91146,1.81153 1.16211,2.7002zM194.79687,191.923v12.6601h-1.52442v-0.7178h-9.07812v0.7178h-1.51075v-12.6601zM184.19433,193.1944v9.3516h9.07812v-9.3516z"/><path d="M197.2715,193.201h3.68457c0.4056,-0.64713 0.71322,-1.16897 0.92286,-1.5655l1.52441,0.2188c-0.13672,0.24607 -0.37826,0.6471 -0.72461,1.2031l-0.0889,0.1436h4.81934v1.3467h-5.72852c-0.597,0.82027 -1.16666,1.5312 -1.70898,2.1328c0.86133,-0.515 1.64746,-0.7725 2.3584,-0.7725c1.10287,0 1.8252,0.5537 2.16699,1.6611c1.16667,-0.38733 2.35612,-0.77013 3.56836,-1.1484l0.58789,1.3262l-0.23926,0.068l-0.67676,0.1778c-1.27604,0.34633 -2.29687,0.64253 -3.0625,0.8886c0.05467,0.59247 0.09341,1.3581 0.11622,2.2969l-1.49707,0.082c-0.00467,-0.54227 -0.01377,-1.13013 -0.0273,-1.7636v-0.1367c-2.09635,0.71547 -3.14453,1.4355 -3.14453,2.1601c0,0.37373 0.26888,0.62893 0.80664,0.7656c0.51953,0.1322 1.44922,0.1983 2.78906,0.1983c1.23503,0 2.53158,-0.07063 3.88965,-0.2119l0.16406,1.456c-1.31705,0.10027 -2.68196,0.1504 -4.09472,0.1504c-1.74089,0 -2.97819,-0.13217 -3.71192,-0.3965c-0.9069,-0.32813 -1.36035,-0.9183 -1.36035,-1.7705c0,-0.72007 0.32129,-1.3558 0.96387,-1.9072c0.66537,-0.56967 1.83659,-1.15757 3.51367,-1.7637c-0.09115,-0.35093 -0.21191,-0.59703 -0.3623,-0.7383c-0.16862,-0.15947 -0.39193,-0.2392 -0.66993,-0.2392c-0.45117,0 -1.01855,0.1709 -1.70214,0.5127c-0.8431,0.41927 -1.74772,1.05043 -2.71387,1.8935l-0.90918,-1.039c1.41732,-1.31707 2.52702,-2.61133 3.3291,-3.8828h-2.78223z"/><path d="M218.7432,201.712l0.0957,1.2236c-1.97787,0.69727 -4.17676,1.2715 -6.59668,1.7227l-0.50586,-1.3672c0.41927,-0.064 1.01171,-0.16653 1.77734,-0.3076v-2.502c-0.78841,0.40107 -1.72721,0.7816 -2.8164,1.1416l-0.7793,-1.2167c2.19205,-0.59247 3.86458,-1.349 5.01758,-2.2696h-4.88086v-1.1894h5.8584v-1.0323h-4.42969v-1.1484h4.42969v-0.9639h-5.12696v-1.1757h5.12696v-1.3467h1.49707v1.3467h5.27734v1.1757h-5.27734v0.9639h4.58007v1.1484h-4.58007v1.0323h6.00879v1.1894h-1.63379l1.01172,0.6973c-0.62435,0.60613 -1.49935,1.2692 -2.625,1.9892l-0.15723,0.1026c0.85677,0.78387 2.01888,1.431 3.48633,1.9414l-0.92285,1.3877c-1.5905,-0.67447 -2.86882,-1.52213 -3.83497,-2.543zM216.67192,198.1573c-0.45573,0.5332 -1.00489,1.01173 -1.64747,1.4356v3.0693c1.12565,-0.25067 2.25586,-0.54233 3.39063,-0.875l0.31445,-0.089c-0.93424,-1.03447 -1.62011,-2.2148 -2.05761,-3.541zM219.16703,200.0235c0.8112,-0.57873 1.52214,-1.20763 2.13281,-1.8867h-3.23339c0.29167,0.69727 0.65853,1.32617 1.10058,1.8867z"/><path d="M231.5674,197.104v6.0635c0,0.5514 -0.11165,0.92737 -0.33496,1.1279c-0.20963,0.18227 -0.61523,0.2734 -1.21679,0.2734c-0.6836,0 -1.33302,-0.04327 -1.94825,-0.1298l-0.29394,-1.4424c0.63802,0.1048 1.2487,0.1572 1.83203,0.1572c0.19596,0 0.31901,-0.03417 0.36914,-0.1025c0.03647,-0.05933 0.0547,-0.15733 0.0547,-0.294v-5.6533h-5.87891v-1.3604h13.17285v1.3604zM225.79104,192.0386h9.88476v1.3466h-9.88476zM224.06838,202.5249c0.98437,-1.02993 1.77734,-2.3994 2.37891,-4.1084l1.41503,0.5332c-0.69726,1.95507 -1.57454,3.49087 -2.63183,4.6074zM235.79885,203.3589c-0.94336,-1.99613 -1.76367,-3.45677 -2.46094,-4.3819l1.28516,-0.7656c1.0026,1.28973 1.85709,2.6934 2.56347,4.211z"/><path d="M245.1777,191.56h1.53809v1.8868h4.0332v1.3193h-4.0332v2.9258c0.15951,0.56053 0.23926,1.05957 0.23926,1.4971c0,1.62233 -0.35775,2.81403 -1.07324,3.5751c-0.7793,0.834 -1.9528,1.4105 -3.52051,1.7295l-0.7793,-1.1621c1.2168,-0.2324 2.11914,-0.5605 2.70703,-0.9843c0.55143,-0.40107 0.92285,-0.94567 1.11426,-1.6338c-0.48763,0.5332 -1.06868,0.7998 -1.74316,0.7998c-0.75651,0 -1.36947,-0.2142 -1.83887,-0.6426c-0.55143,-0.50587 -0.82715,-1.2396 -0.82715,-2.2012c0,-0.50587 0.12077,-0.9935 0.36231,-1.4629c0.1595,-0.30073 0.35546,-0.55137 0.58789,-0.7519c0.53776,-0.45573 1.18262,-0.6836 1.93457,-0.6836c0.47851,0 0.91145,0.11393 1.29882,0.3418v-1.3467h-6.74707v-1.3193h6.74707zM245.2324,198.6558v-0.253c0,-0.29167 -0.06836,-0.54913 -0.20508,-0.7724c-0.25521,-0.41927 -0.62435,-0.6289 -1.10742,-0.6289c-0.24609,0 -0.47624,0.06833 -0.69043,0.205c-0.5013,0.31447 -0.75195,0.79757 -0.75195,1.4493c0,0.41013 0.09115,0.75647 0.27344,1.039c0.25521,0.39193 0.63118,0.5879 1.12793,0.5879c0.45117,0 0.80891,-0.2028 1.07324,-0.6084c0.18685,-0.28713 0.28027,-0.62663 0.28027,-1.0185z"/><path d="M253.627,192.039h7.66992l0.73145,1.1347c-2.36979,1.44927 -4.42285,2.76633 -6.15918,3.9512c1.12109,-0.4694 2.24674,-0.7041 3.37695,-0.7041c1.01628,0 1.86394,0.1618 2.54297,0.4854c0.62891,0.30073 1.11882,0.71087 1.46973,1.2304c0.36458,0.55147 0.54687,1.18493 0.54687,1.9004c0,1.0026 -0.3418,1.84113 -1.02539,2.5156c-0.4694,0.4694 -1.07096,0.82487 -1.80468,1.0664c-0.96159,0.31447 -2.01433,0.4717 -3.15821,0.4717c-1.31705,0 -2.28776,-0.2438 -2.91211,-0.7314c-0.48763,-0.3828 -0.73144,-0.90007 -0.73144,-1.5518c0,-0.4922 0.17773,-0.9297 0.5332,-1.3125c0.53776,-0.57873 1.26465,-0.8681 2.18067,-0.8681c0.9707,0 1.74772,0.32583 2.33105,0.9775c0.42383,0.47393 0.72917,1.10967 0.91602,1.9072c1.40364,-0.4466 2.10546,-1.27147 2.10546,-2.4746c0,-0.91147 -0.38053,-1.58367 -1.1416,-2.0166c-0.51041,-0.29167 -1.15755,-0.4375 -1.9414,-0.4375c-1.17123,0 -2.22852,0.1618 -3.17188,0.4854c-0.69727,0.23693 -1.63379,0.80887 -2.80957,1.7158l-0.96387,-1.1621c1.26693,-1.0938 2.70931,-2.2035 4.32715,-3.3291c1.11654,-0.77473 2.10092,-1.4105 2.95313,-1.9073h-5.86524zM258.80864,202.7782c-0.32357,-1.28967 -0.95931,-1.9345 -1.90722,-1.9345c-0.52409,0 -0.90235,0.16633 -1.13477,0.499c-0.10937,0.1504 -0.16406,0.31217 -0.16406,0.4853c0,0.36007 0.25521,0.63123 0.76562,0.8135c0.36914,0.1276 0.86361,0.1914 1.4834,0.1914c0.26433,0 0.58334,-0.01833 0.95703,-0.055z"/></g></g></g></svg>