<?xml version="1.0" encoding="UTF-8"?>
<svg width="480" height="360" version="1.1" viewBox="0 0 480 360" xmlns="http://www.w3.org/2000/svg">
 <g dominant-baseline="central" fill="#fff" aria-label="岩手県内陸北部">
  <path d="m247 181.93h10.762v7.5684h-2.1582v-1.0644h-9.2774v1.0644h-2.0996v-4.834q-1.1426 0.92773-2.5879 1.7676l-1.3965-1.6797q1.543-0.73242 2.8125-1.7188 2.0801-1.6309 3.3398-3.6426h-5.8887v-1.7383h18.994v1.7383h-10.713q-0.70312 1.25-1.7871 2.5391zm-0.67383 1.6797v3.1445h9.2774v-3.1445zm4.7754-9.3945h4.5801v-2.9004h2.1191v4.5606h-15.4v-4.5606h2.0996v2.9004h4.4629v-3.7207h2.1387z" dominant-baseline="central"/>
  <path d="m271.23 173.24v3.1543h7.0898v1.9238h-7.0898v2.6953h8.2715v1.9629h-8.2715v4.3945q0 1.1719-0.6543 1.6211-0.49805 0.3418-1.6602 0.3418-1.9043 0-3.7207-0.19532l-0.38086-2.0996q2.2559 0.29296 3.4082 0.29296 0.54687 0 0.68359-0.20507 0.0879-0.14649 0.0879-0.48829v-3.6621h-8.4961v-1.9629h8.4961v-2.6953h-7.5v-1.9238h7.5v-2.8711l-0.53711 0.0586q-2.793 0.30274-5.8398 0.46875l-0.83985-1.8164q7.7344-0.32227 14.062-1.7188l1.2207 1.6797q-2.7344 0.61523-5.8301 1.0449z" dominant-baseline="central"/>
  <path d="m296.76 170.98v9.4629h-11.621v-9.4629zm-9.5215 1.543v1.2207h7.4023v-1.2207zm0 2.5977v1.2207h7.4023v-1.2207zm0 2.5976v1.2598h7.4023v-1.2598zm-3.9356 4.0234h16.191v1.6992h-8.0762v6.0644h-2.2168v-6.0644h-8.0371v-10.957h2.1387zm-2.5 5.8984q2.3242-1.0742 4.4434-3.6035l1.7969 1.0449q-2.0898 2.6465-4.6387 4.1602zm16.836 1.2598q-1.4941-1.8359-4.4922-3.8574l1.6797-1.1816q2.3535 1.3574 4.6191 3.5644z" dominant-baseline="central"/>
  <path d="m308.85 173.76v-3.2617h2.1777v3.2617h7.5v13.594q0 1.1523-0.625 1.6113-0.50781 0.38086-1.7676 0.38086-2.1582 0-3.5644-0.10742l-0.40039-2.0801q2.1875 0.13672 3.6523 0.13672 0.39063 0 0.45899-0.18555 0.0488-0.11718 0.0488-0.37109v-10.977h-5.3125l-0.01 0.14648q-0.0488 0.79102-0.19531 1.6211 2.9004 2.373 5.1758 5.3516l-1.6602 1.543q-1.6211-2.3535-4.0723-4.8926-1.2598 3.3106-5.0684 5.5273l-1.2891-1.7188q2.2754-1.3086 3.3594-2.793 1.4258-1.9531 1.5723-4.7852h-5.127v13.74h-2.1973v-15.742z" dominant-baseline="central"/>
  <path d="m331.7 177.58q-0.27344 1.4844-0.79102 2.334-0.83008 1.377-2.8809 2.0703l-1.1426-1.4844q1.084-0.27344 1.6894-0.72266 1.0059-0.74219 1.2695-2.1973h-2.8418v-1.6992h4.8828v-1.6992h-4.1992v-1.6797h4.1992v-1.9824h2.041v1.9824h4.4629v1.6797h-4.4629v1.6992h5.3418v1.6992h-3.6035v1.6992q0 0.36133 0.13672 0.42969 0.15625 0.0781 0.69336 0.0781 0.82031 0 0.94727-0.32227 0.14648-0.37109 0.16601-1.2207l1.8359 0.45898q-0.0195 1.7188-0.57617 2.3144-0.32227 0.33204-0.91797 0.42969-0.58594 0.0879-1.5723 0.0879-1.2012 0-1.709-0.10742-0.47852-0.0977-0.72266-0.41016v2.0215h4.502v1.6602h-4.502v2.2852h5.6641v1.8359h-13.203v-1.8359h5.4785v-2.2852h-4.2188v-1.6602h4.2188v-2.1973h1.9629q-0.10743-0.26367-0.10743-0.60547v-2.6562zm-6.084 0.0781q1.3965 1.9727 1.3965 4.4824 0 1.3184-0.32227 2.0996-0.43945 1.0449-1.9043 1.0449-0.63477 0-1.1621-0.12695l-0.47852-1.9141q0.5957 0.11718 1.0449 0.11718 0.52735 0 0.6543-0.41992 0.12695-0.43945 0.12695-1.3965 0-2.0898-1.2891-3.7695l0.0977-0.24414q0.71289-1.9531 1.2695-4.4336h-1.9824v16.406h-1.9629v-18.223h5.127l1.0352 0.80078q-0.5664 2.8027-1.6504 5.5762z" dominant-baseline="central"/>
  <path d="m345.84 184.3q-2.6953 1.416-4.6973 2.168l-0.82031-2.1484q3.1348-1.0547 5.5176-2.1875v-4.375h-4.834v-2.0606h4.834v-5.1953h2.1777v19.004h-2.1777zm6.9434-7.6074q2.2754-1.1914 4.4141-3.0273l1.6211 1.6992q-2.8906 2.0508-6.0352 3.4961v7.3242q0 0.47852 0.3125 0.58594 0.33203 0.10742 1.5332 0.10742 1.582 0 1.9824-0.18555 0.2832-0.12695 0.39062-0.79101 0.14649-0.92774 0.21485-2.998l2.1875 0.67383q-0.0977 2.5293-0.3125 3.6328-0.24414 1.2305-1.2793 1.5918-0.98633 0.33203-3.2324 0.33203-2.6367 0-3.3203-0.43945-0.6543-0.42969-0.6543-1.6504v-16.543h2.1777z" dominant-baseline="central"/>
  <path d="m366.98 172.75h4.1797v1.8848h-1.377q-0.3711 1.4941-0.9961 3.1348h2.6074v1.8848h-10.898v-1.8848h2.3926q-0.39062-1.875-0.82031-3.1348h-1.2695v-1.8848h4.1406v-2.2559h2.041zm-2.9394 1.8848q0.49805 1.4551 0.77148 3.1348h1.9922l0.09766-0.27344q0.41992-1.1133 0.78125-2.5293l0.0879-0.33203zm6.0547 6.6602v7.998h-2.002v-0.95703h-4.2578v1.1621h-2.0606v-8.2031zm-6.2598 1.7969v3.3887h4.2578v-3.3887zm13.047-4.9316q1.1621 1.1035 1.8457 2.627 0.67383 1.5234 0.67383 3.0859 0 1.4453-0.53711 2.1289-0.55664 0.71289-1.8359 0.71289-1.0938 0-2.1191-0.15625l-0.47852-2.0801q1.1816 0.21485 1.9531 0.21485 0.58594 0 0.73242-0.27344 0.0977-0.19531 0.0977-0.78125 0-2.4121-1.4453-4.1602-0.38086-0.45898-0.95703-0.98633l0.11719-0.27343q1.0156-2.2949 1.582-4.7852h-2.5v16.064h-2.0215v-18.086h5.8789l1.084 0.99609q-0.98633 3.3594-2.0703 5.752z" dominant-baseline="central"/>
 </g>
</svg>
