<svg version="1.1" xmlns="http://www.w3.org/2000/svg" xmlns:xlink="http://www.w3.org/1999/xlink" width="140.49902" height="131.56045" viewBox="0,0,140.49902,131.56045"><g transform="translate(-303.07101,169.59979)"><g data-paper-data="{&quot;isPaintingLayer&quot;:true}" fill="none" fill-rule="evenodd" stroke="#d645ff" stroke-width="72" stroke-linecap="round" stroke-linejoin="round" stroke-miterlimit="4" stroke-dasharray="" stroke-dashoffset="0" style="mix-blend-mode: normal"><path d="M357.49804,-124.41126l-1.40977,1.97968l0.47992,3.1495l-0.47992,3.16949l1.8697,2.15965l2.85954,0.49992l1.39978,-2.34962l5.11918,-2.86954l1.31979,0.46992l2.66957,-1.67973l2.85954,0.28995l3.7394,-3.36946l2.60958,0.19997l2.59958,1.68973l2.34962,0.20997l1.62974,-2.27964l3.87938,-1.69973l4.05935,-3.91937l-1.93969,0.37994l3.30947,-5.21916l2.02968,0.29995l4.58927,4.73924l2.58959,4.74924l1.93969,6.279l-0.67989,3.1295l-1.73972,1.8797l-1.29979,5.13918l-0.26996,6.72892l-1.01984,5.24916l-2.61958,7.19885l-2.59958,4.49928l-2.79955,3.15949l-1.75972,0.91985l-3.37946,-0.33995l-3.31947,-5.07919l-2.17965,-0.20997l-4.48928,-2.91953l-1.8997,0.50992l0.35994,-3.7394l-2.08967,-1.59974l-1.19981,-2.43961l-2.87954,-0.15997l-1.71972,-1.96968l-2.09966,-0.08999l-1.8697,3.20949l-0.11998,3.60942l-2.35962,0.46992l2.80955,1.71972l0.30995,3.34946l-0.94985,3.45945l-3.80939,3.7294l-2.05967,2.84954l-2.12966,0.98984l-4.48928,0.23996l-4.3593,-4.00936l-1.47976,-3.82939l-1.45977,-6.79891l-1.54975,-11.38818l-1.53975,-9.3885l0.19997,-4.62926l1.02984,-5.28915l-1.15981,-2.56959l-3.82939,-3.29947"/></g></g></svg>