<svg xmlns="http://www.w3.org/2000/svg" viewBox="0 0 60 36" version="1.1" height="36" width="60">
 <rect style="paint-order:stroke markers fill" stop-color="#000000" fill-opacity="0" height="36" width="60" y="1.2207e-5" x="2.4414e-6"></rect>
 <g shape-rendering="auto" fill-rule="evenodd" transform="translate(-950.19,-632.2)">
  <path style="font-feature-settings:normal;font-variant-alternates:normal;font-variant-caps:normal;font-variant-east-asian:normal;font-variant-ligatures:normal;font-variant-numeric:normal;font-variant-position:normal;font-variation-settings:normal;inline-size:0;isolation:auto;mix-blend-mode:normal;paint-order:stroke markers fill;shape-margin:0;shape-padding:0;text-decoration-color:#000000;text-decoration-line:none;text-decoration-style:solid;text-indent:0;text-orientation:mixed;text-transform:none;white-space:normal" stop-color="#000000" image-rendering="auto" fill="#6a94b1" color-rendering="auto" color="#000000" d="m971.19 636.2c-7.7214 0-14 6.2786-14 14s6.2786 14 14 14h18c7.7214 0 14-6.2786 14-14s-6.2786-14-14-14z"></path>
  <path style="font-feature-settings:normal;font-variant-alternates:normal;font-variant-caps:normal;font-variant-east-asian:normal;font-variant-ligatures:normal;font-variant-numeric:normal;font-variant-position:normal;font-variation-settings:normal;inline-size:0;isolation:auto;mix-blend-mode:normal;paint-order:stroke markers fill;shape-margin:0;shape-padding:0;text-decoration-color:#000000;text-decoration-line:none;text-decoration-style:solid;text-indent:0;text-orientation:mixed;text-transform:none;white-space:normal" stop-color="#000000" image-rendering="auto" fill="#375f81" color-rendering="auto" color="#000000" d="m971.19 638.2h18c6.648 0 12 5.352 12 12s-5.352 12-12 12h-18c-6.648 0-12-5.352-12-12s5.352-12 12-12z"></path>
 </g>
 <circle style="paint-order:stroke markers fill" stop-color="#000000" fill-rule="evenodd" fill="#a8b9cd" r="8" cy="18" cx="27"></circle>
 <path stroke-width="2" stroke-opacity=".33" stroke-linejoin="round" stroke-linecap="round" stroke="#458faa" fill="none" d="m22.91 18 2.7273 2.7273 5.4545-5.4545"></path>
</svg>
