<svg xmlns="http://www.w3.org/2000/svg" viewBox="0 0 220 64" version="1.1" height="64" width="220">
 <path stop-color="#000000" fill-rule="evenodd" fill="#12151a" d="m10 0h200c5.54 0 10 4.46 10 10v44c0 5.54-4.46 10-10 10h-200c-5.54 0-10-4.46-10-10v-44c0-5.54 4.46-10 10-10z"></path>
 <g aria-label="設定が変更されています 引き継ぐ場合は設定の書き出しで コピーしてください" fill="#fff">
  <path d="m14.525 17.186v4.0059h-3.582v0.7041h-1.3604v-4.71zm-3.582 1.1758v1.668h2.208v-1.668zm4.8262-9.2764h4.3818v3.3291q0 0.22559 0.06836 0.28027 0.08887 0.06836 0.30762 0.06836 0.30078 0 0.38965-0.08203 0.06836-0.05469 0.0957-0.3623 0.06836-0.78613 0.0752-1.2168l1.2783 0.40332q-0.0068 0.78613-0.10254 1.4971-0.10254 0.83398-0.89551 0.99121-0.33496 0.06836-1.0049 0.06836-0.9502 0-1.2783-0.23926-0.28027-0.20508-0.28027-0.75195v-2.7412h-1.709v0.14355q0 1.3877-0.30078 2.2969-0.3418 0.99805-1.1963 1.6885l-0.99121-0.99121q0.86133-0.60156 1.0664-1.7363 0.0957-0.54004 0.0957-1.3193zm3.7188 9.7891q1.3057 0.94336 3.042 1.6133l-0.81348 1.3604q-2.085-0.97754-3.2949-1.9688-1.5312 1.2852-3.0762 2.0098l-0.79297-1.2168q1.4971-0.5127 2.9189-1.6816-1.2783-1.3672-1.9414-2.9121h-0.68359v-1.2578h6.1318l0.73828 0.66992q-0.92969 2.0029-2.2285 3.3838zm-1.0117-0.83398q0.95703-1.0869 1.3125-1.9619h-2.8574q0.56055 1.0186 1.4697 1.8867zm-8.5996-8.9414h4.3408v1.1484h-4.3408zm-0.78613 2.0029h5.7422v1.2305h-5.7422zm0.78613 2.0986h4.3408v1.1348h-4.3408zm0 2.0029h4.3408v1.1074h-4.3408z"></path>
  <path d="m30.453 19.907q1.1553 0.19141 2.5225 0.19141h3.5479q-0.3418 0.68359-0.50586 1.4424h-3.0557q-2.7754 0-4.3818-0.66309-1.5586-0.64258-2.5703-2.1191-0.80664 1.9209-1.9824 3.1855l-1.0596-1.2715q1.9277-2.085 2.4062-5.4004l1.5518 0.23926q-0.21875 1.0801-0.42383 1.7979 0.82715 1.4697 2.4404 2.1738v-5.291h-3.7939v-0.90918h-1.4834v-3.165h5.2363v-1.5244h1.5244v1.5244h5.3525v3.165h-1.4834v0.90918h-3.8418v2.0918h4.6826v1.2715h-4.6826zm-5.291-8.5039v1.4902h9.1055v-1.4902z"></path>
  <path d="m37.357 11.615h3.0215q0.20508-1.0527 0.45801-2.6182l0.03418-0.19824 1.4971 0.22559q-0.23242 1.4492-0.47852 2.5908h0.82715q1.6406 0 2.3516 0.73828 0.63574 0.66309 0.63574 2.0645 0 2.3584-0.49902 4.4092-0.28711 1.1621-0.69726 1.7158-0.51953 0.69043-1.4424 0.69043-1.1074 0-2.4199-0.71094l0.1709-1.4424q1.2988 0.62207 2.0166 0.62207 0.37598 0 0.58106-0.40332 0.21875-0.4375 0.41699-1.2646 0.38965-1.6748 0.38965-3.5205 0-0.9707-0.38965-1.2578-0.33496-0.23926-1.1963-0.23926h-1.0527q-1.0869 4.8398-3.1172 8.2578l-1.374-0.75195q2.0986-3.5205 2.9941-7.5059h-2.7275zm11.354 6.7471q-0.77246-2.8438-2.4404-5.585l1.333-0.60156q1.7227 2.748 2.5771 5.5303zm-1.0117-6.5488q-0.42383-1.1074-1.3672-2.4609l1.0596-0.39648q0.82715 1.1689 1.3877 2.4268zm1.8389-0.58789q-0.5332-1.3193-1.3604-2.4814l1.0049-0.33496q0.78613 0.93652 1.374 2.3379z"></path>
  <path d="m54.686 17.835q-1.2715 0.86133-2.4746 1.3057l-0.93652-1.0527q3.2744-1.1074 4.7441-3.0557l1.3877 0.3418q-0.29395 0.38281-0.58789 0.68359h4.7168l0.86816 0.73144q-1.0391 1.251-2.9463 2.5635 2.1465 0.72461 4.9082 1.1006l-0.77246 1.4287q-3.2539-0.62207-5.5713-1.7021-2.5977 1.2715-6.0088 1.7568l-0.68359-1.2988q2.7002-0.21191 5.332-1.2168l-0.0752-0.04785q-1.0801-0.71777-1.9004-1.5381zm1.1211-0.64258q0.90918 0.84082 2.3105 1.5586 1.4629-0.84082 2.0576-1.5586zm2.6045-7.3418h5.6738v1.1895h-3.9648v3.0625q0 0.66992-0.3623 0.91602-0.30078 0.20508-1.0049 0.20508-0.66309 0-1.4355-0.10938l-0.17773-1.1895q0.74512 0.12305 1.251 0.12305 0.19824 0 0.23242-0.08887 0.02734-0.06152 0.02734-0.20508v-2.7139h-1.7637q0 1.4902-0.33496 2.3379-0.58789 1.4971-2.2422 2.1396l-1.0322-0.9502q1.2783-0.49902 1.7295-1.2852 0.25976-0.45117 0.3623-1.0801 0.06152-0.36914 0.08887-1.1621h-4.1426v-1.1895h5.5986v-1.2578h1.4971zm4.6211 5.0859q-1.0117-1.5244-2.3379-2.8438l1.1211-0.75879q1.2988 1.1211 2.3652 2.6797zm-12.024-0.98438q1.4014-1.0732 2.0713-2.4883l1.2715 0.47168q-0.9502 1.9619-2.4336 3.042z"></path>
  <path d="m70.983 11.478v-1.0391h-5.5098v-1.2578h12.503v1.2578h-5.5371v1.0391h4.792v5.5439h-4.8262q-0.0068 0.04785-0.0068 0.0957-0.0752 1.2031-0.61524 2.126 2.6523 0.92969 6.583 1.2783l-0.84082 1.333q-3.8213-0.44434-6.6035-1.5723-0.79297 0.69043-2.0439 1.1143-1.1211 0.38281-2.9053 0.6084l-0.73832-1.2988q2.7617-0.20508 4.2588-1.0459-1.4697-0.72461-2.7207-1.6885l1.0049-0.85449q1.3057 1.0117 2.6729 1.6064 0.39648-0.67676 0.50586-1.7021h-4.7578v-5.5439zm0 1.0938h-3.3154v1.1006h3.3154zm1.4561 0v1.1006h3.3223v-1.1006zm-1.4561 2.1533h-3.3154v1.1895h3.3154zm1.4561 0v1.1895h3.3223v-1.1895z"></path>
  <path d="m79.541 11.293h5.4893q-0.44434-1.1689-0.81348-2.3242l1.4971-0.095703q0.35547 1.2168 0.85449 2.4199h5.0518v1.4014h-4.4092q0.88184 1.8252 2.208 3.8076l-1.4355 0.68359q-1.4629-2.2148-2.3994-4.4912h-6.043zm9.9395 10.083q-1.3604 0.0752-2.4062 0.0752-2.8438 0-4.1904-0.44434-2.4336-0.79297-2.4336-2.9941 0-1.3535 0.84082-2.1807l1.2852 0.69727q-0.56055 0.55371-0.56055 1.4492 0 1.1416 1.2305 1.5996 1.0869 0.40332 3.6367 0.40332 1.0801 0 2.4336-0.10254z"></path>
  <path d="m95.92 8.9009h1.5107v3.8623q1.627-1.6885 2.6045-2.3174 0.90918-0.58789 1.8867-0.58789 0.98438 0 1.5859 0.55371 0.79297 0.73828 0.79297 1.9346 0 0.31445-0.082 0.83398-0.60156 3.8213-0.60156 5.291 0 0.62891 0.32129 0.62891 0.20507 0 0.54003-0.23242 0.70411-0.48535 1.4219-1.5928l0.56055 1.5654q-0.4375 0.69726-1.0869 1.2373-0.75195 0.62891-1.6064 0.62891-0.81348 0-1.2646-0.56738-0.38281-0.48535-0.38281-1.6201 0-0.86133 0.22558-2.5908 0.28711-2.1738 0.38281-3.2266 0.0137-0.1709 0.0137-0.28711 0-0.60156-0.25293-0.92285-0.23926-0.30762-0.66309-0.30762-1.4287 0-4.3955 3.8076v6.4531h-1.5108v-4.7305q-1.1416 1.5996-2.1055 3.0215l-0.71094-1.6201q1.6201-1.9619 2.8164-3.7393v-1.7363h-2.3994v-1.374h2.3994z"></path>
  <path d="m107.51 10.254q6.2891-0.0957 11.888-0.32129l0.082 1.3604q-2.4678 0.12305-3.8418 0.75195-1.3125 0.60156-2.1055 1.668-0.90234 1.21-0.90234 2.6934 0 1.4766 1.0254 2.2148 1.1758 0.84082 3.6094 1.1553l-0.32129 1.5381q-3.1719-0.42383-4.4639-1.6406-1.3877-1.2988-1.3877-3.2266 0-1.75 1.2578-3.2676 0.91602-1.1143 2.5088-1.791-2.8232 0.0957-7.2803 0.32129z"></path>
  <path d="m127.63 17.521q-1.2646 3.7188-2.8369 3.7188-1.1211 0-1.9209-1.5723-0.61523-1.2168-0.84765-2.6797-0.28028-1.7773-0.28028-4.5664 0-1.21 0.0889-2.5977l1.6064 0.12305q-0.0889 1.3877-0.0889 2.6387 0 4.3887 0.82031 6.1182 0.33496 0.71094 0.62891 0.71094 0.1914 0 0.47851-0.4375 0.58789-0.88867 1.1348-2.4473zm4.3272 1.627q-0.34863-2.8848-0.85449-4.6621-0.61523-2.1533-1.4287-3.9443l1.456-0.35547q1.1279 2.2354 1.6748 4.3066 0.45117 1.6816 0.74512 4.2793z"></path>
  <path d="m140.95 8.9146h1.5107v1.7227h4.2998v1.2988h-4.2998v1.627h4.0606v1.2852h-4.0606v2.1123q2.4336 0.82031 4.7988 2.4678l-0.80664 1.2988q-1.791-1.3398-3.9922-2.3652-0.0547 1.1689-0.45117 1.8115-0.69043 1.1143-2.7207 1.1143-1.5654 0-2.5156-0.58789-1.0596-0.65625-1.0596-1.7773 0-1.3398 1.4287-1.9824 0.95703-0.42383 2.4883-0.42383 0.60157 0 1.3193 0.0957v-1.7637h-4.8467v-1.2852h4.8467v-1.627h-5.1406v-1.2988h5.1406zm0 8.9687q-0.81348-0.1709-1.5586-0.1709-0.90918 0-1.4766 0.2666-0.67675 0.32129-0.67675 0.91602 0 0.49902 0.52636 0.80664 0.53321 0.31445 1.4219 0.31445 1.0527 0 1.4492-0.56055 0.31445-0.4375 0.31445-1.3057z"></path>
  <path d="m155.47 8.8736h1.5381v1.8867h4.0332v1.3193h-4.0332v2.9258q0.23926 0.84082 0.23926 1.4971 0 2.4336-1.0732 3.5752-1.169 1.251-3.5205 1.7295l-0.7793-1.1621q1.8252-0.34863 2.707-0.98438 0.82714-0.60156 1.1142-1.6338-0.73144 0.7998-1.7432 0.7998-1.1348 0-1.8389-0.64258-0.82715-0.75879-0.82715-2.2012 0-0.75879 0.36231-1.4629 0.23926-0.45117 0.58789-0.75195 0.80664-0.68359 1.9346-0.68359 0.71777 0 1.2988 0.3418v-1.3467h-6.7471v-1.3193h6.7471zm0.0547 7.0957v-0.25293q0-0.4375-0.20508-0.77246-0.38282-0.62891-1.1074-0.62891-0.36915 0-0.69043 0.20508-0.75196 0.47168-0.75196 1.4492 0 0.61523 0.27344 1.0391 0.38281 0.58789 1.1279 0.58789 0.67676 0 1.0732-0.6084 0.28028-0.43066 0.28028-1.0186z"></path>
  <path d="m16.835 32.984q-0.08887 3.958-0.49902 5.0791-0.29394 0.79297-0.98438 1.0186-0.3623 0.11621-1.0869 0.11621-1.2031 0-2.5977-0.14356l-0.28027-1.5244q1.5381 0.21191 2.6318 0.21191 0.52637 0 0.71777-0.24609 0.35547-0.47168 0.52637-3.2266h-3.9307q-0.06152 0.34863-0.21191 0.97754l-1.5381-0.25293q0.54004-2.4609 0.79981-5.1475h4.6758v-1.6748h-5.1543v-1.333h6.6377v4.2793h-4.7578l-0.01367 0.11621q-0.0752 0.78613-0.21191 1.75zm2.6318-6.4736h1.5381v12.701h-1.5381z"></path>
  <path d="m24.102 27.98h4.1426q-0.22559-0.63574-0.48535-1.5107l1.5107-0.08203q0.2666 0.90918 0.51953 1.5928h4.7578v1.3193h-4.2861q0.38965 0.9707 0.88184 1.9756h4.3271v1.3193h-3.6367q0.71777 1.251 1.4424 2.2422l-1.5312 0.44434q-0.79297-1.1279-1.5928-2.6865h-6.2891v-1.3193h5.6602q-0.39648-0.84082-0.81348-1.9756h-4.6074zm9.1123 10.712q-1.3125 0.0957-2.4404 0.0957-2.96 0-4.2861-0.55371-1.8389-0.77246-1.8389-2.4404 0-0.93652 0.5127-1.5107l1.2236 0.66992q-0.21191 0.43066-0.21191 0.85449 0 0.86133 1.1758 1.2441 1.0459 0.3418 3.1992 0.3418 1.0801 0 2.543-0.11621z"></path>
  <path d="m42.634 33.374-0.97754 0.46484q-0.08887-0.46484-0.1709-0.82031l-0.25976 0.04102q-0.40332 0.06152-0.68359 0.10254v6.2344h-1.333v-6.0566q-0.84082 0.10254-1.9482 0.17774l-0.2666-1.2646q0.29395-0.0068 0.58106-0.02051l0.43066-0.02051q0.38281-0.4375 0.85449-1.0322-0.76562-1.1758-1.8457-2.2969l0.80664-0.99805q0.21191 0.21875 0.37598 0.39648 0.66992-1.0186 1.2236-2.2764l1.2031 0.63574q-0.6084 1.1006-1.6953 2.5156 0.34863 0.45801 0.71094 1.0049 1.2715-1.791 1.75-2.5566l1.0596 0.74512q-1.3398 1.9893-2.9941 3.7871 0.99121-0.06152 1.7432-0.13672-0.16406-0.49902-0.37598-1.0186l1.0049-0.40332q0.49902 1.1348 0.80664 2.6387v-6.4531h1.333v4.1631h2.2217v-4.7373h1.333v4.7373h2.6865v1.2305h-2.6865v0.5332l0.06836 0.04102q1.3193 0.77246 2.3379 1.7363l-0.75195 1.1895q-0.7041-0.88184-1.6543-1.7637v3.2197h-1.333v-3.3633q-0.60156 1.3945-1.5381 2.666l-0.68359-1.0459v1.9961h6.3984v1.2988h-6.3984v0.73145h-1.333zm1.333 1.7568q1.1006-1.0186 1.8799-2.9736h-1.8799zm-6.9863 2.584q0.3623-1.374 0.51953-3.5547l1.2305 0.16406q-0.06152 2.3584-0.50586 3.9922zm4.3818-0.33496q-0.25293-1.832-0.58789-3.0557l1.0049-0.32129q0.48535 1.5449 0.67676 2.8848zm3.418-6.959q-0.25977-1.3945-0.74512-2.9326l1.0664-0.38965q0.55371 1.4219 0.7998 2.96zm3.0762-0.34863q0.48535-1.333 0.88184-3.0557l1.251 0.38965q-0.41016 1.5586-1.0527 2.9873z"></path>
  <path d="m60.736 39.054q-2.6934-2.0918-8.1143-5.3662l-0.04785-0.03418q-0.85449-0.51953-0.85449-1.1074 0-0.41016 0.35547-0.76562 0.18457-0.18457 1.2168-0.75195 2.6523-1.4561 5.79-3.6025 0.62891-0.4375 1.3467-0.9707l0.89551 1.1758q-3.5 2.4746-7.2256 4.5527-0.3623 0.20508-0.3623 0.3418 0 0.13672 0.41699 0.38281 4.8672 2.8506 7.4785 4.7783zm-0.37598-6.1592q-0.45117-1.1211-1.374-2.4336l1.0664-0.38965q0.82715 1.1621 1.3809 2.4199zm1.9277-0.88184q-0.5127-1.2988-1.3535-2.4746l1.0049-0.3623q0.7793 0.95703 1.374 2.3516z"></path>
  <path d="m75.002 34.898q-0.45117 1.2441-1.1416 2.1738-0.88184 1.1963-2.3789 2.126l-0.95703-0.84082q2.1875-1.2305 3.2197-3.459h-0.9502q-1.2988 2.4609-4.0195 3.7256l-0.86816-0.89551q2.3721-1.0732 3.5615-2.8301h-0.91602q-0.61523 0.62891-1.2715 1.0391l-0.76562-0.74512q-1.6748 1.0186-3.6709 1.8184l-0.50586-1.3877q0.86133-0.25976 1.8457-0.65625v-4.6006h-1.6064v-1.3604h1.6064v-2.9121h1.415v2.9121h1.3467v1.3604h-1.3467v3.9854q0.51953-0.24609 1.2783-0.62891l0.17773 0.875q0.82715-0.65625 1.374-1.5586h-1.9346v-1.1484h9.3857v1.1484h-5.9746q-0.18457 0.3418-0.47168 0.76562h5.9268q-0.14356 3.5205-0.51953 4.6758-0.18457 0.56738-0.62891 0.75879-0.31445 0.14356-0.92285 0.14356-0.71094 0-1.3877-0.10254l-0.25293-1.2988q0.64258 0.15039 1.2783 0.15039 0.45801 0 0.58789-0.30078 0.25293-0.60156 0.41016-2.9326zm1.6133-8.4014v4.71h-7.041v-4.71zm-5.667 1.0391v0.81348h4.293v-0.81348zm0 1.8047v0.84082h4.293v-0.84082z"></path>
  <path d="m88.408 30.571v1.0186h-6.3438v-0.875q-1.2783 0.92969-2.7617 1.6338l-0.96387-1.2783q1.9277-0.76562 3.3086-1.8936 1.5312-1.251 2.5703-3.083h1.7227q1.3125 1.9277 3.377 3.2676 1.1143 0.72461 2.6729 1.415l-0.90918 1.3467q-1.4492-0.71777-2.5361-1.4561zm-0.38965-0.28027q-1.627-1.2236-2.9053-2.8574-1.0117 1.627-2.5088 2.8574zm1.8457 2.7891v6.3164h-1.5654v-0.82715h-6.2549v0.82715h-1.5654v-6.3164zm-7.8203 1.2852v2.8711h6.2549v-2.8711z"></path>
  <path d="m101.14 26.599h1.4971v2.4746h2.7891v1.3604h-2.7891v4.1973q1.6201 0.74512 3.206 2.0918l-0.76562 1.3535q-1.3398-1.1689-2.4541-1.8594-0.12305 1.6748-1.1895 2.2422-0.59472 0.31445-1.627 0.31445-1.1211 0-1.9482-0.40332-1.251-0.6084-1.251-2.0234 0-1.1143 0.9502-1.7705 0.86816-0.60156 2.2285-0.60156 0.62207 0 1.3535 0.15723v-3.6982h-4.3955v-1.3604h4.3955zm0 8.8594q-0.79981-0.25293-1.4219-0.25293-0.59473 0-1.0117 0.18457-0.65625 0.28027-0.65625 0.91602 0 0.51953 0.47852 0.81348 0.46484 0.28711 1.2441 0.28711 1.3672 0 1.3672-1.5381zm-7.4238 3.2881q-0.23926-2.2559-0.23926-4.7441 0-3.8828 0.51953-7.4033l1.5039 0.21875q-0.5127 3.0352-0.5127 6.5625 0 2.5908 0.25977 5.1338z"></path>
  <path d="m111.98 34.686v4.0059h-3.582v0.7041h-1.3604v-4.71zm-3.582 1.1758v1.668h2.208v-1.668zm4.8262-9.2764h4.3818v3.3291q0 0.22559 0.0684 0.28027 0.0889 0.06836 0.30762 0.06836 0.30078 0 0.38965-0.08203 0.0684-0.05469 0.0957-0.3623 0.0684-0.78613 0.0752-1.2168l1.2783 0.40332q-7e-3 0.78613-0.10254 1.4971-0.10254 0.83398-0.89551 0.99121-0.33496 0.06836-1.0049 0.06836-0.9502 0-1.2783-0.23926-0.28028-0.20508-0.28028-0.75195v-2.7412h-1.709v0.14355q0 1.3877-0.30078 2.2969-0.3418 0.99805-1.1963 1.6885l-0.99121-0.99121q0.86133-0.60156 1.0664-1.7363 0.0957-0.54004 0.0957-1.3193zm3.7188 9.7891q1.3057 0.94336 3.042 1.6133l-0.81348 1.3604q-2.085-0.97754-3.2949-1.9688-1.5312 1.2852-3.0762 2.0098l-0.79297-1.2168q1.4971-0.5127 2.919-1.6816-1.2783-1.3672-1.9414-2.9121h-0.68359v-1.2578h6.1318l0.73828 0.66992q-0.92968 2.0029-2.2285 3.3838zm-1.0117-0.83398q0.95703-1.0869 1.3125-1.9619h-2.8574q0.56054 1.0186 1.4697 1.8867zm-8.5996-8.9414h4.3408v1.1484h-4.3408zm-0.78613 2.0029h5.7422v1.2305h-5.7422zm0.78613 2.0986h4.3408v1.1348h-4.3408zm0 2.0029h4.3408v1.1074h-4.3408z"></path>
  <path d="m127.91 37.407q1.1553 0.19141 2.5225 0.19141h3.5478q-0.34179 0.68359-0.50585 1.4424h-3.0557q-2.7754 0-4.3818-0.66309-1.5586-0.64258-2.5703-2.1191-0.80664 1.9209-1.9824 3.1855l-1.0596-1.2715q1.9277-2.085 2.4062-5.4004l1.5518 0.23926q-0.21875 1.0801-0.42383 1.7979 0.82715 1.4697 2.4404 2.1738v-5.291h-3.794v-0.90918h-1.4834v-3.165h5.2363v-1.5244h1.5244v1.5244h5.3525v3.165h-1.4834v0.90918h-3.8418v2.0918h4.6826v1.2715h-4.6826zm-5.291-8.5039v1.4902h9.1055v-1.4902z"></path>
  <path d="m141.86 37.318q4.0127-1.0117 4.0127-4.6006 0-1.5654-0.80664-2.6934-0.90235-1.2715-2.748-1.6338-0.40332 3.1719-1.1006 5.1953-0.47851 1.415-1.1894 2.6729-1.0254 1.791-2.3311 1.791-0.9707 0-1.7295-0.875-0.48535-0.55371-0.78613-1.3604-0.39648-1.0459-0.39648-2.249 0-1.9482 1.0732-3.5889 1.0869-1.6748 2.8232-2.4336 1.2646-0.55371 2.7754-0.55371 2.3584 0 4.0059 1.2646 2.0234 1.5518 2.0234 4.3955 0 4.7646-4.8193 6.043zm-1.0254-8.9824q-1.21 0.13672-2.0234 0.64941-0.51953 0.33496-1.0322 0.88867-1.4219 1.5723-1.4219 3.6436 0 1.5107 0.60156 2.3652 0.36914 0.52637 0.73145 0.52637 0.49219 0 1.1074-1.0869 1.5039-2.6455 2.0371-6.9863z"></path>
  <path d="m154.38 26.879v-0.78613h1.4834v0.78613h4.4092v1.5518h1.5381v0.97754h-1.5381v1.5996h-4.4092v0.57422h5.0928v0.9502h-5.0928v0.58789h5.9473v1.0049h-13.296v-1.0049h5.8652v-0.58789h-4.915v-0.9502h4.915v-0.57422h-4.3545v-0.92285h4.3545v-0.67676h-5.8652v-0.97754h5.8652v-0.62891h-4.3545v-0.92285zm4.4228 0.92285h-2.9394v0.62891h2.9394zm0 1.6064h-2.9394v0.67676h2.9394zm1.3604 5.2842v4.7031h-1.5107v-0.56055h-6.9727v0.56055h-1.5107v-4.7031zm-8.4834 0.93652v0.62891h6.9727v-0.62891zm0 1.5244v0.67676h6.9727v-0.67676z"></path>
  <path d="m163.56 27.98h4.1426q-0.22558-0.63574-0.48535-1.5107l1.5107-0.08203q0.26661 0.90918 0.51954 1.5928h4.7578v1.3193h-4.2861q0.38964 0.9707 0.88183 1.9756h4.3272v1.3193h-3.6367q0.71777 1.251 1.4424 2.2422l-1.5312 0.44434q-0.79296-1.1279-1.5928-2.6865h-6.2891v-1.3193h5.6602q-0.39648-0.84082-0.81347-1.9756h-4.6074zm9.1123 10.712q-1.3125 0.0957-2.4404 0.0957-2.96 0-4.2861-0.55371-1.8389-0.77246-1.8389-2.4404 0-0.93652 0.5127-1.5107l1.2236 0.66992q-0.21191 0.43066-0.21191 0.85449 0 0.86133 1.1758 1.2441 1.0459 0.3418 3.1992 0.3418 1.0801 0 2.543-0.11621z"></path>
  <path d="m183.88 30.728h3.3359v-3.4043h1.5244v4.7646h-4.8604v5.0518h3.7666v-3.1514h1.5518v5.4072h-1.5518v-0.86816h-8.9756v0.86816h-1.5381v-5.4072h1.5381v3.1514h3.6846v-5.0518h-4.7715v-4.7646h1.5244v3.4043h3.2471v-4.6348h1.5244z"></path>
  <path d="m191.86 26.668h1.6133v8.1484q0 2.5771 2.707 2.5771 1.7842 0 2.9258-1.6475 0.73828-1.0596 1.3262-3.2812l1.3877 0.84082q-0.69726 2.4678-1.6748 3.6914-1.5381 1.9072-3.999 1.9072-2.5703 0-3.623-1.5859-0.66309-0.99121-0.66309-2.5566z"></path>
  <path d="m203.16 27.754q6.2891-0.0957 11.888-0.32129l0.082 1.3604q-2.4678 0.12305-3.8418 0.75195-1.3125 0.60156-2.1055 1.668-0.90234 1.21-0.90234 2.6934 0 1.4766 1.0254 2.2148 1.1758 0.84082 3.6094 1.1553l-0.32129 1.5381q-3.1719-0.42383-4.4639-1.6406-1.3877-1.2988-1.3877-3.2266 0-1.75 1.2578-3.2676 0.91602-1.1143 2.5088-1.791-2.8232 0.0957-7.2803 0.32129zm9.9394 5.8994q-0.40332-1.0732-1.3604-2.4336l1.0664-0.39648q0.85449 1.1758 1.374 2.4062zm1.8457-0.71777q-0.48535-1.2578-1.3535-2.4473l1.0186-0.3623q0.79981 0.9707 1.3604 2.3516z"></path>
  <path d="m9.7533 45.172h10.008v10.35h-10.247v-1.4287h8.6201v-7.4922h-8.3809z"></path>
  <path d="m23.049 44.304h1.5928v4.3682q3.5205-0.96387 6.0361-2.4199l0.89551 1.2988q-3.2266 1.6133-6.9316 2.5771v3.165q0 0.59473 0.51953 0.71094 0.62891 0.14356 2.8369 0.14356 2.29 0 4.9082-0.23926v1.5449q-2.3789 0.1709-4.9629 0.1709-2.7002 0-3.4863-0.14355-0.93652-0.1709-1.2305-0.84082-0.17773-0.41016-0.17773-1.0391zm9.9873-0.66992q0.45801 0 0.875 0.25293 0.41016 0.23926 0.63574 0.66992 0.20508 0.38281 0.20508 0.7998 0 0.66992-0.47852 1.1826-0.50586 0.54004-1.251 0.54004-0.36914 0-0.71094-0.15723-0.42383-0.19824-0.69043-0.58106-0.31445-0.45117-0.31445-0.99121 0-0.41699 0.21191-0.80664 0.21191-0.38965 0.56738-0.62891 0.43066-0.28027 0.9502-0.28027zm-0.0068 0.84082q-0.25293 0-0.47852 0.14356-0.40332 0.25293-0.40332 0.74512 0 0.34863 0.23926 0.60156 0.25977 0.27344 0.64258 0.27344 0.21875 0 0.40332-0.0957 0.47852-0.24609 0.47852-0.7793 0-0.37598-0.2666-0.63574-0.24609-0.25293-0.61524-0.25293z"></path>
  <path d="m35.744 49.233h12.038v1.5381h-12.038z"></path>
  <path d="m50.195 44.168h1.6133v8.1484q0 2.5771 2.707 2.5771 1.7842 0 2.9258-1.6475 0.73828-1.0596 1.3262-3.2812l1.3877 0.84082q-0.69726 2.4678-1.6748 3.6914-1.5381 1.9072-3.999 1.9072-2.5703 0-3.623-1.5859-0.66308-0.99121-0.66308-2.5566z"></path>
  <path d="m61.494 45.254q6.2891-0.0957 11.888-0.32129l0.08203 1.3604q-2.4678 0.12305-3.8418 0.75195-1.3125 0.60156-2.1055 1.668-0.90234 1.21-0.90234 2.6934 0 1.4766 1.0254 2.2148 1.1758 0.84082 3.6094 1.1553l-0.32129 1.5381q-3.1719-0.42383-4.4639-1.6406-1.3877-1.2988-1.3877-3.2266 0-1.75 1.2578-3.2676 0.91602-1.1143 2.5088-1.791-2.8232 0.0957-7.2803 0.32129z"></path>
  <path d="m84.627 56.554q-3.0898-2.4062-8.0938-5.373-0.92285-0.54004-0.92285-1.1348 0-0.42383 0.40332-0.7998 0.1709-0.16406 0.86133-0.54688 2.5225-1.4014 5.4414-3.3428 1.1006-0.72461 2.0029-1.4014l0.89551 1.1758q-3.5205 2.4951-7.2256 4.5527-0.3623 0.20508-0.3623 0.3418 0 0.10938 0.19824 0.24609 0.05469 0.04102 0.63574 0.38281 4.6895 2.7686 7.0615 4.5322z"></path>
  <path d="m87.635 46.027h3.1924q0.19141-0.84766 0.43066-2.1943l1.5449 0.19141q-0.20508 1.0596-0.4375 2.0029h3.6846v1.3604h-4.0059q-1.3672 5.4619-3.0215 9.0576l-1.5107-0.5332q1.7979-3.9854 2.9941-8.5244h-2.8711zm12.1 10.056q-1.1074 0.14356-2.4883 0.14356-2.2354 0-3.377-0.38281-0.4375-0.15039-0.74512-0.42383-0.60156-0.54688-0.60156-1.3945 0-0.86816 0.56055-1.5312l1.2168 0.71777q-0.21191 0.2666-0.21191 0.58789 0 0.55371 0.50586 0.71777 0.77246 0.24609 2.2012 0.24609 1.3877 0 2.7686-0.20508zm-6.4121-6.7744q2.6797-0.30762 5.8652-0.32812l0.06836 1.3877q-3.124 0.01367-5.7354 0.29395zm4.3818-2.5908q-0.37598-1.0459-1.3604-2.4814l1.0664-0.38965q0.86816 1.2373 1.374 2.4336zm1.9346-0.45117q-0.49219-1.2852-1.3467-2.4746l1.0049-0.36914q0.7793 0.96387 1.374 2.3516z"></path>
  <path d="m101.58 46.293h5.4892q-0.44433-1.1689-0.81347-2.3242l1.4971-0.0957q0.35547 1.2168 0.85449 2.4199h5.0518v1.4014h-4.4092q0.88183 1.8252 2.208 3.8076l-1.4356 0.68359q-1.4629-2.2148-2.3994-4.4912h-6.043zm9.9394 10.083q-1.3604 0.0752-2.4062 0.0752-2.8438 0-4.1904-0.44434-2.4336-0.79297-2.4336-2.9941 0-1.3535 0.84082-2.1807l1.2852 0.69727q-0.56054 0.55371-0.56054 1.4492 0 1.1416 1.2305 1.5996 1.0869 0.40332 3.6367 0.40332 1.0801 0 2.4336-0.10254z"></path>
  <path d="m121.81 52.521q-1.2646 3.7188-2.8369 3.7188-1.1211 0-1.9209-1.5723-0.61523-1.2168-0.84765-2.6797-0.28028-1.7773-0.28028-4.5664 0-1.21 0.0889-2.5977l1.6064 0.12305q-0.0889 1.3877-0.0889 2.6387 0 4.3887 0.82031 6.1182 0.33496 0.71094 0.62891 0.71094 0.1914 0 0.47851-0.4375 0.58789-0.88867 1.1348-2.4473zm4.3271 1.627q-0.34863-2.8848-0.85449-4.6621-0.61523-2.1533-1.4287-3.9443l1.4561-0.35547q1.1279 2.2354 1.6748 4.3066 0.45117 1.6816 0.74512 4.2793z"></path>
 </g>
</svg>
