<svg version="1.1" xmlns="http://www.w3.org/2000/svg" xmlns:xlink="http://www.w3.org/1999/xlink" width="233.6511" height="275.08748" viewBox="0,0,233.6511,275.08748"><g transform="translate(-162.83378,29.73058)"><g data-paper-data="{&quot;isPaintingLayer&quot;:true}" fill="none" fill-rule="evenodd" stroke="#d645ff" stroke-width="72" stroke-linecap="round" stroke-linejoin="round" stroke-miterlimit="4" stroke-dasharray="" stroke-dashoffset="0" style="mix-blend-mode: normal"><g><path d="M318.82257,198.59865v0"/><path d="M251.56133,197.37884v0"/><path d="M256.7875,196.83893v0"/><path d="M255.97563,194.17935l1.2458,1.90969l-1.80471,0.83987l-1.05583,-1.29979l1.61474,-1.44977"/><path d="M273.15588,192.71959v0"/><path d="M263.59941,192.50962l1.49376,1.2398l-0.28495,2.85954l-1.08483,1.00984l0.44393,2.53959l-1.8767,0.75988l0.39894,-1.63974l-0.91885,-1.8797l1.82871,-4.88922"/><path d="M252.82713,192.88956v0"/><path d="M322.32901,188.52026v0"/><path d="M258.88916,189.67007l2.07767,1.31979l-2.27564,2.39962l-2.63458,-1.59974l2.53559,-0.82987l0.29695,-1.28979"/><path d="M323.14188,181.06145l1.60774,0.76988l-1.59774,0.86986l-0.01,-1.63974"/><path d="M324.44067,177.05209l0.86286,1.66973l-1.48776,1.31979l-1.48276,-2.04967l2.10766,-0.93985"/><path d="M326.6713,174.82245l0.35994,2.89954l-2.09466,0.41993l0.30495,-2.36962l1.42977,-0.94985"/><path d="M327.86112,173.06273v0"/><path d="M242.57077,175.1624l-0.13198,3.34946l-0.84886,-1.53975l0.98084,-1.80971"/><path d="M205.5047,174.12256l5.0042,5.05919l-1.2318,0.81987l-0.98884,3.49944l0.95785,1.52976l-3.29147,-1.2598l-1.05983,-2.39962l-2.38562,-2.16965l-2.24564,-0.40993l-1.42977,-1.99968l6.67093,-2.66957"/><path d="M251.01342,150.57633l1.69173,1.75972l-4.00736,1.15981l2.31563,-2.91953"/><path d="M308.66518,135.24878l2.29563,2.03967l-0.21996,1.2198l-6.8529,0.14998l-1.11982,-1.51976l1.14882,-1.73972l3.1455,0.46992l1.60274,-0.6199"/><path d="M353.64199,119.97123l3.24448,3.78939l1.34678,-0.46992l0.09998,1.66973l1.55175,2.09966l0.5999,3.33947l-0.73188,5.29915l-2.37562,1.77972l-0.11098,1.93969l-1.45777,2.69957l-2.30563,2.09966l-1.77972,3.01952l-5.6001,0.90985l-2.31063,-0.77988l-1.38278,0.94985l0.5959,2.74956l-2.80655,-0.6099l2.10766,3.46944l-0.48292,1.81971l-2.89154,0.53991l-1.76972,1.83971l-2.94353,-1.8997l-2.90554,0.20997l1.62674,3.19949l-2.04367,1.02984l-1.96169,-0.33995l-1.92569,1.18981l0.96984,2.33963l-3.58643,1.66973l-1.16081,-0.6199l-0.93385,3.53943l-2.03767,0.35994l-3.88938,-2.03967l-2.95753,0.53991l-2.53659,3.7694l5.10118,4.71924l-0.83087,1.59974l1.50876,2.35962l2.39162,1.65973l0.93885,3.46944l-2.21065,-1.06983l-3.7554,-4.40929l-3.23848,3.43945l1.70373,1.38978l-3.00752,-0.48992l-0.003,3.0995l-1.82071,1.31979l-0.80387,3.95937l-2.42661,2.80955l2.4826,3.7394l0.44793,-1.62974l2.61058,-0.6499l0.79687,2.92953l-3.61642,3.38946h-1.76172l-2.80955,1.8597l-2.15865,3.03951l-1.67973,0.08999l-2.76456,1.65973l-2.45861,-1.01984l0.89486,-4.47928l-1.75372,-2.29963l2.10966,-0.76988l-1.51676,-1.2398l-1.73872,-3.93937l1.55575,-2.12966l2.89854,-0.97984l-1.39678,-0.6399l0.17997,-2.04967l1.63074,0.87986l2.30463,-3.43945l1.8557,-0.03l2.93153,-2.24964l0.39594,-1.75972l-1.40378,-1.43977l0.11898,-1.8897l-3.16349,-7.19885l0.09199,-3.37946l1.97568,1.34978l3.54443,-2.4996l2.78655,0.77988l0.42293,-1.90969l4.10234,-2.86954l0.015,-2.65957l1.00984,0.5999l1.43477,-1.56975l1.43477,1.16981l2.54459,-1.91969l0.68489,0.44993l1.82471,-2.54959l2.79355,-0.23996l2.11166,-3.79939l-0.04099,-1.13982l-6.226,-2.72956l-2.58059,0.30995l-1.46377,-3.31947l-0.13098,-1.99968l1.19881,-0.73988l-1.66973,-2.66957l0.57791,-2.82955l2.37562,1.2198l4.57727,-1.05983l2.08667,1.64974l3.40945,0.56991l-1.41577,4.16933l1.47876,2.27964l1.93769,0.39994l5.50712,-1.91969l2.74156,-2.68957l-0.87686,-1.2398l1.98068,-2.63958l2.59358,-0.6199l1.66473,-1.93969l-0.76488,-2.19965l2.88954,-0.33995l3.66341,-3.94937l3.37446,-6.20901l-0.81487,-2.11966l1.35578,-1.90969"/><path d="M321.63411,110.97267l1.79371,1.11982l-0.28195,3.58943l-3.30647,-0.85986l0.003,-2.96952l1.79171,-0.87986"/><path d="M329.94679,95.39516l-1.95669,2.21964l-0.98184,3.42945l-2.00168,0.47992l-0.78387,2.01968h-3.04151l1.75272,-2.53959l3.67041,-3.38946l0.87286,-1.62974l2.4696,-0.58991"/><path d="M350.13956,6.26942l1.35778,2.07967l-1.2788,0.05999l-0.07899,-2.13966"/></g></g></g></svg>