<?xml version="1.0" encoding="UTF-8"?>
<svg width="480" height="360" version="1.1" viewBox="0 0 480 360" xmlns="http://www.w3.org/2000/svg">
 <g dominant-baseline="central" fill="#fff" aria-label="サハリン西方沖">
  <path d="m252.63 171.11h2.1973v3.9453h3.916v2.002h-3.916v0.61523q0 4.9805-1.4258 7.4805-1.377 2.4023-4.8535 3.6816l-1.3672-1.7383q3.3984-1.1719 4.5508-3.6133 0.89843-1.8848 0.89843-5.7812v-0.64453h-5.9277v5.5957h-2.1973v-5.5957h-3.6426v-2.002h3.6426v-3.7988h2.1973v3.7988h5.9277z" dominant-baseline="central"/>
  <path d="m260.33 186.51q1.6992-2.5 2.9199-6.123 1.3281-3.9648 1.6797-8.0566l2.2363 0.45899q-0.86914 5.9961-2.334 10.078-1.0547 2.9688-2.5976 5.2051zm15.957 1.6602q-1.7676-2.9395-3.2129-7.0801-1.377-3.9258-2.2461-8.3203l2.0996-0.6543q1.6797 8.4473 5.3027 14.58z" dominant-baseline="central"/>
  <path d="m281.42 171.32h2.2754v10.684h-2.2754zm10.029-0.20508h2.2754v6.9824q0 3.6816-0.5957 5.4785-0.49805 1.5332-1.3574 2.4414-1.7871 1.9238-5.7422 2.8418l-1.123-2.002q4.3262-0.87891 5.5469-2.9199 0.77148-1.2988 0.92773-3.2812 0.0684-0.91797 0.0684-2.5391z" dominant-baseline="central"/>
  <path d="m304.54 176.36q-3.0859-1.377-6.416-2.207l0.68359-2.0996q3.8574 0.87891 6.4746 2.1875zm-6.1719 9.7168q4.834-0.41016 7.4023-1.7285 3.0274-1.5625 4.6484-4.7949 1.0547-2.0898 1.709-5.4688l1.875 1.377q-0.79102 3.6133-1.9141 5.7422-2.0312 3.877-6.2109 5.6152-2.6367 1.0938-7.0508 1.5625z" dominant-baseline="central"/>
  <path d="m321.44 176.07v-2.7344h-5.8203v-1.8848h18.779v1.8848h-6.4551v2.7344h5.4785v13.164h-2.1191v-1.377h-12.607v1.377h-2.0996v-13.164zm2.0215 0h2.4609v-2.7344h-2.4609zm-2.0312 1.7773h-2.7344v8.1543h12.607v-2.9297h-3.7012q-1.6797 0-1.6797-1.6797v-3.5449h-2.4805q-0.0391 2.4024-0.72266 3.8477-0.64453 1.377-2.5391 2.7246l-1.3477-1.5039q1.8164-1.1133 2.2949-2.7539 0.2539-0.87891 0.30273-2.3145zm6.5137 0v2.9883q0 0.38086 0.3418 0.38086h3.0176v-3.3691z" dominant-baseline="central"/>
  <path d="m344.48 175.76q-0.0684 1.6309-0.19531 2.8711h7.8711q-0.14648 6.7774-0.76172 8.7988-0.3125 1.0156-1.1621 1.4062-0.66406 0.30273-1.9434 0.30273-1.3477 0-3.0566-0.20507l-0.38085-2.1973q2.2949 0.32227 3.2324 0.32227 0.79101 0 1.0059-0.44922 0.51757-1.0938 0.72265-6.0352h-5.8105q-0.32227 1.7578-0.90821 3.0469-1.6309 3.5644-5.4492 5.6543l-1.543-1.7188q3.8281-1.9922 5.0586-5.2246 0.82031-2.1582 1.0644-6.5723h-6.4648v-2.002h7.9785v-3.2617h2.2559v3.2617h8.2422v2.002z" dominant-baseline="central"/>
  <path d="m366.58 174.14v-3.6426h2.0996v3.6426h5.293v8.8379h-5.293v6.5234h-2.0996v-6.5234h-5.1856v-8.8379zm-3.1641 1.9434v4.9707h3.1641v-4.9707zm8.4766 4.9707v-4.9707h-3.2129v4.9707zm-12.5-5.7812q-1.1914-1.6602-3.1543-3.1738l1.4551-1.4844q1.9531 1.377 3.3008 3.0859zm-0.63476 5.0195q-1.6992-1.9727-3.3008-3.2324l1.5039-1.5039q1.709 1.2012 3.3789 3.1055zm-3.0371 7.5684q1.875-2.666 3.457-6.6406l1.7383 1.3379q-1.3379 3.6621-3.2617 6.8945z" dominant-baseline="central"/>
 </g>
</svg>
