<svg version="1.1" xmlns="http://www.w3.org/2000/svg" xmlns:xlink="http://www.w3.org/1999/xlink" width="168.10162" height="38.44073" viewBox="0,0,168.10162,38.44073"><g transform="translate(-240,-180)"><g data-paper-data="{&quot;isPaintingLayer&quot;:true}" stroke="none" stroke-miterlimit="10" stroke-dasharray="" stroke-dashoffset="0" style="mix-blend-mode: normal"><path d="M248,180h152.10162c4.432,0 8,3.568 8,8v22.44074c0,4.432 -3.568,7.99999 -8,7.99999h-152.10162c-4.432,0 -8,-3.56799 -8,-7.99999v-22.44074c0,-4.432 3.568,-8 8,-8z" fill-opacity="0.7" fill="#000000" fill-rule="evenodd" stroke-width="0" stroke-linecap="square" stroke-linejoin="round"/><path d="M250.32443,189.7903v2.55924c0,0.16587 0.06914,0.26604 0.20743,0.30051c0.14248,0.03664 0.46829,0.05496 0.97744,0.05496c0.49658,0 0.82449,-0.02586 0.98373,-0.07757c0.09009,-0.03015 0.14876,-0.11416 0.176,-0.25204c0.03564,-0.19388 0.05451,-0.4233 0.05661,-0.68828l0.65687,0.19065c-0.03353,0.6355 -0.11839,1.04157 -0.25457,1.21822c-0.0901,0.11633 -0.22629,0.18527 -0.40858,0.20681c-0.28706,0.03231 -0.7742,0.04847 -1.46145,0.04847c-0.5322,0 -0.88107,-0.01507 -1.0466,-0.04522c-0.24934,-0.04306 -0.40753,-0.15616 -0.47458,-0.3393c-0.03353,-0.09694 -0.0503,-0.2262 -0.0503,-0.38776v-2.56246l-0.60029,0.21327l-0.14772,-0.62688l0.74801,-0.26497v-1.7417h0.63801v1.51551l0.67573,-0.23589v-1.70293h0.63172v1.47673l1.05287,-0.3716l0.33001,0.2068v2.42029c0,0.16803 -0.03876,0.29297 -0.11629,0.37484c-0.088,0.09047 -0.23572,0.13571 -0.44315,0.13571c-0.16972,0 -0.34992,-0.01507 -0.54059,-0.04522l-0.10371,-0.61719c0.12362,0.03231 0.24934,0.04847 0.37715,0.04847c0.09219,0 0.14876,-0.0194 0.16971,-0.0582c0.02097,-0.03231 0.03146,-0.08617 0.03146,-0.16157v-1.52843l-0.75744,0.27144v2.61417h-0.63172v-2.3912zM248.01439,188.73365v-1.56075h0.67573v1.56075h0.60972v0.65596h-0.60972v2.05515c0.22,-0.07756 0.43791,-0.15834 0.65373,-0.24236l0.05976,0.62365c-0.67887,0.31883 -1.37555,0.58595 -2.09003,0.80137l-0.22001,-0.68828c0.32267,-0.08617 0.60553,-0.16803 0.84858,-0.24558c0.02932,-0.01075 0.05342,-0.01829 0.07229,-0.02261v-2.28134h-0.7983v-0.65596z" fill="#ffffff" fill-rule="nonzero" stroke-width="1" stroke-linecap="butt" stroke-linejoin="miter"/><path d="M256.33052,188.04537v-0.2779h-1.96431v-0.46209h4.63893v0.46209h-2.00517v0.2779h2.60233v1.16006h-0.68201v-0.74321h-1.92032v1.25699h-0.66945v-1.25699h-1.88574v0.74321h-0.67573v-1.16006zM258.55571,192.63066c0.32057,0.12495 0.72077,0.22404 1.20058,0.29729l-0.36772,0.54933c-0.67258,-0.11849 -1.22468,-0.32206 -1.65631,-0.61073c-0.42953,-0.28867 -0.76373,-0.64735 -1.00259,-1.07604h-0.69458v0.99526c0.46306,-0.06679 0.89259,-0.13788 1.28859,-0.21327l0.04399,0.48148c-0.73754,0.18095 -1.58089,0.33821 -2.53005,0.47177l-0.18543,-0.56872c0.32896,-0.03664 0.5542,-0.06249 0.67572,-0.07757l0.03777,-0.00608v-1.0825h-0.6883c-0.02932,0.37914 -0.07751,0.68181 -0.14457,0.908c-0.07962,0.27143 -0.20743,0.52456 -0.38343,0.75937l-0.55944,-0.47501c0.20534,-0.27359 0.33315,-0.5935 0.38343,-0.95972c0.02722,-0.19819 0.04083,-0.44485 0.04083,-0.73999v-1.37009h5.42466v0.42977h-4.74893v0.99202h5.01922v0.45563h-0.71344l0.39915,0.27143c-0.23676,0.2025 -0.51648,0.39207 -0.83915,0.56872zM258.06541,192.38185c0.30172,-0.21112 0.54162,-0.40823 0.71972,-0.59134h-1.37345c0.1802,0.23697 0.3981,0.43408 0.65373,0.59134zM254.72136,188.70133h1.33888v0.36514h-1.33888zM254.72136,189.2959h1.33888v0.3716h-1.33888zM257.27025,188.70133h1.37974v0.36514h-1.37974zM257.27025,189.2959h1.37974v0.3716h-1.37974zM255.06393,190.61429h3.91292v0.42331h-3.91292z" fill="#ffffff" fill-rule="nonzero" stroke-width="1" stroke-linecap="butt" stroke-linejoin="miter"/><path d="M261.48175,188.40404v5.05708h-0.65687v-6.28823h0.65687v0.9791l0.30172,-0.25851c0.18229,0.32529 0.32686,0.63873 0.43372,0.94033l-0.42744,0.43623c-0.11105,-0.36406 -0.21372,-0.65273 -0.30801,-0.866zM264.37637,187.60267h1.62802v0.4847h-1.62802v0.31022h1.40488v0.46209h-1.40488v0.3199h1.83545v0.51701h-4.23664v-0.51701h1.7506v-0.3199h-1.36402v-0.46209h1.36402v-0.31022h-1.54945v-0.4847h1.54945v-0.42977h0.65059zM265.68382,190.03912v2.83713c0,0.19819 -0.0461,0.34252 -0.13829,0.433c-0.0901,0.08832 -0.24411,0.13249 -0.46201,0.13249c-0.25772,0 -0.52277,-0.01832 -0.79515,-0.05496l-0.09113,-0.58165c0.27867,0.03448 0.49972,0.05171 0.66315,0.05171c0.08381,0 0.1341,-0.02153 0.15086,-0.06459c0.01045,-0.02582 0.01568,-0.06568 0.01568,-0.11956v-0.41684h-1.92974v1.2053h-0.65687v-3.42201zM263.09721,190.51412v0.37807h1.92974v-0.37807zM263.09721,191.3672v0.39746h1.92974v-0.39746zM259.93544,190.54644c0.09429,-0.44808 0.16239,-1.02757 0.2043,-1.73847l0.01568,-0.26497l0.53429,0.05171c-0.02512,0.92201 -0.09845,1.67061 -0.22001,2.24579z" fill="#ffffff" fill-rule="nonzero" stroke-width="1" stroke-linecap="butt" stroke-linejoin="miter"/><path d="M267.76443,187.84825v-0.67536h0.65686v0.67536h0.97745v0.56872h-0.97745v0.55579h1.11259v0.57519h-0.374c-0.06705,0.25635 -0.15715,0.52779 -0.27029,0.8143h0.60658v0.56226h-1.07488v0.5978h1.03402v0.57518h-1.03402v1.36364h-0.65686v-1.36364h-1.10945v-0.57518h1.10945v-0.5978h-1.15973v-0.56226h0.57829c-0.06704,-0.28652 -0.14876,-0.55795 -0.24514,-0.8143h-0.462v-0.57519h1.28859v-0.55579h-1.02459v-0.56872zM268.54702,189.54795h-0.99944c0.07124,0.20465 0.14771,0.47609 0.22942,0.8143h0.52173c0.10895,-0.27574 0.19171,-0.54717 0.24829,-0.8143zM272.35936,187.40555v1.51228c0,0.18742 -0.03352,0.3199 -0.10057,0.39746c-0.07962,0.09263 -0.2462,0.13894 -0.49973,0.13894c-0.24724,0 -0.49448,-0.01078 -0.74173,-0.03235l-0.10686,-0.58165c0.34781,0.0388 0.56886,0.0582 0.66315,0.0582c0.09848,0 0.14772,-0.04416 0.14772,-0.13249v-0.77876h-1.37659v1.87742h1.78203l0.374,0.32959c-0.11314,0.68505 -0.31952,1.29686 -0.61915,1.83541l-0.03462,0.06459c0.23048,0.27359 0.51858,0.52348 0.8643,0.74967l-0.352,0.60427c-0.33105,-0.21973 -0.62649,-0.48255 -0.88631,-0.78846c-0.22419,0.29298 -0.47667,0.56872 -0.75744,0.82723l-0.37087,-0.52994v0.5041h-0.638v-6.05557zM270.34476,190.44627v2.44291c0.25772,-0.18096 0.50601,-0.43516 0.74487,-0.7626c-0.32058,-0.5084 -0.54582,-1.0685 -0.67573,-1.68031zM271.43849,191.55462c0.18647,-0.37053 0.308,-0.73998 0.36458,-1.10835h-0.81087c0.10267,0.41361 0.25143,0.78306 0.44629,1.10835z" fill="#ffffff" fill-rule="nonzero" stroke-width="1" stroke-linecap="butt" stroke-linejoin="miter"/><path d="M273.90253,188.36527h0.96487v0.99203h-0.96487zM273.90253,191.27672h0.96487v0.99203h-0.96487z" fill="#ffffff" fill-rule="nonzero" stroke-width="1" stroke-linecap="butt" stroke-linejoin="miter"/><path d="M276.24086,187.83533h4.92493l0.40543,0.35222c-0.11733,0.45023 -0.27029,0.82615 -0.45886,1.12774c-0.35411,0.57087 -0.88421,0.99741 -1.59032,1.27961l-0.39601,-0.55579c0.4882,-0.1508 0.89363,-0.42116 1.2163,-0.81108c0.19067,-0.2305 0.32372,-0.47393 0.39915,-0.73028h-4.50064zM278.25546,189.23127h0.71972v0.55579c0,0.8337 -0.09009,1.47782 -0.27028,1.93236c-0.22839,0.57734 -0.67259,1.04696 -1.3326,1.40887l-0.51857,-0.56226c0.45467,-0.22188 0.78677,-0.48685 0.9963,-0.7949c0.16134,-0.23912 0.26715,-0.49225 0.31743,-0.75937c0.05865,-0.3059 0.08797,-0.71628 0.08797,-1.23115z" fill="#ffffff" fill-rule="nonzero" stroke-width="1" stroke-linecap="butt" stroke-linejoin="miter"/><path d="M284.49728,193.17353v-3.31538c-0.63697,0.43947 -1.36403,0.81 -2.18118,1.11159l-0.3803,-0.65596c0.92821,-0.32098 1.74223,-0.7346 2.44205,-1.24084c0.68725,-0.49763 1.29907,-1.06743 1.83545,-1.7094l0.60658,0.391c-0.47563,0.56226 -1.00573,1.0782 -1.59031,1.54782v3.87117z" fill="#ffffff" fill-rule="nonzero" stroke-width="1" stroke-linecap="butt" stroke-linejoin="miter"/><path d="M287.5459,187.91934h4.60121v4.89227h-4.71122v-0.67535h3.96321v-3.54157h-3.85321z" fill="#ffffff" fill-rule="nonzero" stroke-width="1" stroke-linecap="butt" stroke-linejoin="miter"/><path d="M295.5446,189.11172c-0.66211,-0.30375 -1.3504,-0.54718 -2.06489,-0.73029l0.22,-0.69473c0.82764,0.19388 1.52222,0.43515 2.08375,0.72382zM293.55828,192.32691c1.03715,-0.09048 1.83126,-0.28113 2.38232,-0.57195c0.64954,-0.34468 1.14821,-0.87354 1.49603,-1.58659c0.22629,-0.46101 0.40963,-1.06419 0.55,-1.80956l0.60344,0.45562c-0.16972,0.79707 -0.37505,1.43042 -0.616,1.90003c-0.43582,0.85523 -1.10211,1.47458 -1.99889,1.85804c-0.56573,0.24127 -1.32212,0.41361 -2.26918,0.51701z" fill="#ffffff" fill-rule="nonzero" stroke-width="1" stroke-linecap="butt" stroke-linejoin="miter"/><path d="M304.46417,192.98934c-0.6202,0.06679 -1.26135,0.10018 -1.92345,0.10018c-0.9764,0 -1.66051,-0.06355 -2.05232,-0.19065c-0.28496,-0.09264 -0.5102,-0.23051 -0.67573,-0.41362c-0.19067,-0.21327 -0.286,-0.47285 -0.286,-0.77875c0,-0.40284 0.1341,-0.76476 0.40229,-1.08573c0.22839,-0.27359 0.59611,-0.54502 1.10316,-0.8143c-0.28915,-0.66782 -0.55106,-1.42826 -0.78573,-2.28134l0.70087,-0.18742c0.21791,0.81861 0.44839,1.54243 0.69145,2.17147c0.80667,-0.3813 1.66259,-0.69905 2.56775,-0.95326l0.21058,0.65597c-0.99316,0.25851 -1.98004,0.62581 -2.96062,1.1019c-0.30381,0.14864 -0.51963,0.27036 -0.64744,0.36514c-0.37505,0.2822 -0.56258,0.59564 -0.56258,0.94032c0,0.29944 0.17391,0.5084 0.52173,0.62689c0.28915,0.09694 0.80668,0.14541 1.55259,0.14541c0.68934,0 1.37973,-0.04093 2.07118,-0.12279z" fill="#ffffff" fill-rule="nonzero" stroke-width="1" stroke-linecap="butt" stroke-linejoin="miter"/><path d="M308.27652,191.22825l-0.09428,-0.42331c0.14248,0.02156 0.27448,0.03235 0.39601,0.03235c0.06075,0 0.09637,-0.01616 0.10686,-0.04847c0.00835,-0.02156 0.01252,-0.05819 0.01252,-0.10986v-0.75937h-1.64689v-0.52347h1.64689v-0.45562h-0.82344v-0.2262c-0.2221,0.13356 -0.45991,0.25743 -0.71344,0.3716l-0.41486,-0.46531c0.47982,-0.18957 0.88316,-0.42008 1.21002,-0.69151c0.25143,-0.20896 0.48401,-0.46101 0.69772,-0.75614h0.68201c0.23886,0.30375 0.54373,0.56441 0.91459,0.78199c0.27448,0.16157 0.64744,0.33284 1.11888,0.51379l-0.374,0.52348c-0.3122,-0.12495 -0.58249,-0.24882 -0.81087,-0.37161v0.31991h-0.82344v0.45562h1.73802v0.52347h-1.73802v0.99203c0,0.1508 -0.03562,0.26174 -0.10686,0.33283c-0.07334,0.07324 -0.20639,0.10986 -0.39915,0.10986c-0.06075,0 -0.13199,-0.00101 -0.21371,-0.00304v0.29405h2.16861v0.54287h-2.16861v0.51701h2.63061v0.57518h-5.92124v-0.57518h2.5929v-0.51701h-2.14342v-0.54287h2.14347v-0.41684zM308.24821,188.45575h1.65317c-0.33943,-0.21112 -0.6422,-0.46855 -0.9083,-0.77229c-0.20324,0.28867 -0.45153,0.5461 -0.74487,0.77229zM306.66419,188.39116c-0.29962,-0.28221 -0.62439,-0.52241 -0.9743,-0.7206l0.40543,-0.46531c0.41695,0.22188 0.75429,0.44916 1.01201,0.68182zM305.31902,190.80497c0.42115,-0.30375 0.87163,-0.7249 1.35146,-1.26345l0.34572,0.51055c-0.31639,0.40931 -0.73649,0.84339 -1.26031,1.30224zM310.63368,191.29614c-0.32686,-0.43946 -0.64429,-0.77983 -0.9523,-1.0211l0.47772,-0.34253c0.36458,0.28867 0.6904,0.60211 0.97745,0.94033zM306.21789,189.51566c-0.29333,-0.26928 -0.61705,-0.50301 -0.97116,-0.7012l0.40543,-0.4847c0.33734,0.17233 0.66316,0.39314 0.97745,0.66243zM306.8119,190.92454c0.32058,-0.21758 0.61182,-0.52887 0.87373,-0.93387l0.50286,0.29406c-0.28496,0.46747 -0.5982,0.8283 -0.93973,1.0825z" fill="#ffffff" fill-rule="nonzero" stroke-width="1" stroke-linecap="butt" stroke-linejoin="miter"/><path d="M314.11919,190.13605c-0.20953,0.40284 -0.4243,0.70552 -0.6443,0.90801c-0.18858,0.17449 -0.36144,0.26174 -0.51858,0.26174c-0.20114,0 -0.36353,-0.14002 -0.48715,-0.42007c-0.12781,-0.29298 -0.19171,-0.75183 -0.19171,-1.37656c0,-0.62904 0.07124,-1.31086 0.21371,-2.04545l0.68829,0.10663c-0.13829,0.72813 -0.20743,1.34425 -0.20743,1.84834c0,0.67858 0.04714,1.01788 0.14143,1.01788c0.03564,0 0.0964,-0.0517 0.18229,-0.15511c0.13409,-0.1551 0.27552,-0.38345 0.42429,-0.68505zM313.64147,192.66621c0.64324,-0.18527 1.1283,-0.46209 1.45517,-0.83046c0.40019,-0.45023 0.60029,-1.13097 0.60029,-2.04221c0,-0.69151 -0.06495,-1.46811 -0.19486,-2.32981l0.71972,-0.07108c0.13829,0.87031 0.20743,1.68138 0.20743,2.43321c0,1.2193 -0.30486,2.09715 -0.91458,2.63355c-0.37086,0.32745 -0.87059,0.59888 -1.49917,0.8143z" fill="#ffffff" fill-rule="nonzero" stroke-width="1" stroke-linecap="butt" stroke-linejoin="miter"/><path d="M317.64239,188.44282c1.74117,-0.2822 2.90928,-0.4233 3.50434,-0.4233c0.66001,0 1.17231,0.15618 1.53688,0.46855c0.43162,0.37053 0.64743,0.92309 0.64743,1.65768c0,0.57303 -0.18019,1.07281 -0.54058,1.49935c-0.54896,0.65058 -1.67517,1.04804 -3.37863,1.19237l-0.23886,-0.71413c1.15031,-0.09479 1.96642,-0.26389 2.44833,-0.50732c0.25772,-0.13141 0.46934,-0.30375 0.63487,-0.51701c0.22419,-0.28867 0.33629,-0.62258 0.33629,-1.00172c0,-0.46531 -0.10476,-0.80891 -0.31429,-1.03081c-0.10686,-0.11202 -0.22315,-0.19603 -0.34887,-0.25204c-0.176,-0.07971 -0.42743,-0.11956 -0.7543,-0.11956c-0.53429,0 -1.6626,0.15187 -3.38491,0.45562z" fill="#ffffff" fill-rule="nonzero" stroke-width="1" stroke-linecap="butt" stroke-linejoin="miter"/><path d="M327.91027,188.84028c-0.68096,-0.36406 -1.49498,-0.65273 -2.44204,-0.866l0.28286,-0.5978c0.94706,0.18311 1.77155,0.46424 2.47347,0.84338zM325.79195,191.90361c0.25143,0.39853 0.52906,0.5978 0.83287,0.5978c0.3541,0 0.53115,-0.20573 0.53115,-0.6172c0,-0.3059 -0.09114,-0.68719 -0.27343,-1.14389c-0.18858,-0.46963 -0.43058,-0.88432 -0.72602,-1.24407l0.56887,-0.30375c0.40019,0.4847 0.70715,1.01356 0.92087,1.58659c0.15714,0.42223 0.23572,0.80353 0.23572,1.1439c0,0.37699 -0.09115,0.6775 -0.27344,0.90154c-0.21791,0.26497 -0.53534,0.39746 -0.95229,0.39746c-0.4903,0 -0.8863,-0.2542 -1.18802,-0.7626zM323.95021,192.2429c0.41696,-0.70659 0.70925,-1.56075 0.87687,-2.56246l0.65373,0.21973c-0.20324,1.15252 -0.51439,2.05623 -0.93344,2.71111zM329.23973,192.50141c-0.23467,-0.99526 -0.56678,-1.90004 -0.99631,-2.71435l0.58458,-0.26497c0.47772,0.8143 0.83183,1.71262 1.06231,2.69496zM328.92543,188.64963c-0.13409,-0.3533 -0.34257,-0.73783 -0.62543,-1.1536l0.47771,-0.17772c0.24725,0.35114 0.45782,0.72813 0.63173,1.13098zM329.71744,188.36527c-0.14666,-0.38991 -0.35305,-0.7766 -0.61915,-1.16006l0.45887,-0.15833c0.24095,0.30159 0.44629,0.66781 0.616,1.09866z" fill="#ffffff" fill-rule="nonzero" stroke-width="1" stroke-linecap="butt" stroke-linejoin="miter"/><path d="M330.9746,187.44434h0.74173v3.85177c0,0.81215 0.41487,1.21823 1.2446,1.21823c0.54687,0 0.99525,-0.25959 1.34516,-0.77876c0.22629,-0.33391 0.42953,-0.85093 0.60972,-1.55105l0.63801,0.39746c-0.21372,0.77768 -0.47039,1.35933 -0.77001,1.74494c-0.47144,0.60103 -1.08431,0.90154 -1.83861,0.90154c-0.78782,0 -1.34306,-0.24989 -1.66573,-0.74967c-0.20325,-0.31236 -0.30487,-0.71521 -0.30487,-1.20852z" fill="#ffffff" fill-rule="nonzero" stroke-width="1" stroke-linecap="butt" stroke-linejoin="miter"/><path d="M336.16355,187.95812c1.92765,-0.03015 3.74949,-0.08077 5.46552,-0.15187l0.03777,0.64304c-0.7564,0.0388 -1.34517,0.15728 -1.76632,0.35545c-0.40229,0.18957 -0.72496,0.45239 -0.96801,0.78845c-0.27658,0.3813 -0.41486,0.80569 -0.41486,1.27316c0,0.46532 0.15714,0.81431 0.47143,1.04697c0.36038,0.26497 0.91353,0.447 1.65945,0.5461l-0.14772,0.72706c-0.9722,-0.13357 -1.65631,-0.39208 -2.05231,-0.77553c-0.42534,-0.40931 -0.63801,-0.91771 -0.63801,-1.5252c0,-0.55149 0.19277,-1.06635 0.5783,-1.5446c0.28076,-0.35114 0.66524,-0.63334 1.15344,-0.84662c-0.86535,0.03015 -1.98108,0.08077 -3.3472,0.15187zM340.73334,190.74678c-0.12362,-0.33821 -0.3321,-0.72167 -0.62544,-1.15036l0.4903,-0.18741c0.26191,0.37053 0.47248,0.74967 0.63172,1.13743zM341.58192,190.40748c-0.14876,-0.39638 -0.35619,-0.78198 -0.62229,-1.15682l0.4683,-0.17126c0.24515,0.3059 0.45363,0.67643 0.62544,1.11159z" fill="#ffffff" fill-rule="nonzero" stroke-width="1" stroke-linecap="butt" stroke-linejoin="miter"/><path d="M346.37486,192.10395l0.04399,0.57841c-0.90935,0.3296 -1.92032,0.60103 -3.03291,0.8143l-0.23258,-0.64627c0.19277,-0.03015 0.46515,-0.07862 0.81716,-0.14541v-1.18268c-0.36248,0.18957 -0.79411,0.36945 -1.29488,0.53964l-0.35829,-0.57519c1.00782,-0.28005 1.77679,-0.63765 2.30689,-1.0728h-2.24403v-0.56226h2.69347v-0.48793h-2.03661v-0.54287h2.03661v-0.45562h-2.35718v-0.55579h2.35718v-0.63658h0.68829v0.63658h2.42633v0.55579h-2.42633v0.45562h2.10575v0.54287h-2.10575v0.48793h2.76262v0.56226h-0.75115l0.46515,0.32959c-0.28706,0.28652 -0.68935,0.59996 -1.20688,0.94033l-0.07229,0.04847c0.39391,0.37053 0.9282,0.67644 1.60288,0.91771l-0.42429,0.65597c-0.73125,-0.31883 -1.31897,-0.71952 -1.76317,-1.20207zM345.42256,190.42365c-0.20953,0.25205 -0.462,0.47824 -0.75744,0.67858v1.45088c0.51753,-0.11849 1.03715,-0.25636 1.55888,-0.41362l0.14458,-0.04198c-0.42953,-0.48901 -0.74487,-1.04695 -0.94602,-1.67384zM346.56972,191.3058c0.37296,-0.27358 0.69982,-0.57087 0.98059,-0.89185h-1.48659c0.13409,0.3296 0.30276,0.62688 0.506,0.89185z" fill="#ffffff" fill-rule="nonzero" stroke-width="1" stroke-linecap="butt" stroke-linejoin="miter"/><path d="M352.27096,189.92602v2.86621c0,0.26067 -0.05134,0.43839 -0.15401,0.53318c-0.09638,0.08617 -0.28286,0.12925 -0.55943,0.12925c-0.31429,0 -0.61287,-0.02048 -0.89573,-0.06145l-0.13514,-0.68182c0.29333,0.04955 0.5741,0.07432 0.8423,0.07432c0.09009,0 0.14667,-0.01616 0.16972,-0.04847c0.01677,-0.02799 0.02515,-0.0743 0.02515,-0.13895v-2.67233h-2.7029v-0.64304h6.05638v0.64304zM349.6152,187.53158h4.54465v0.63657h-4.54465zM348.82319,192.48848c0.45258,-0.48686 0.81715,-1.1342 1.09373,-1.94204l0.65059,0.25204c-0.32058,0.92417 -0.72392,1.65015 -1.21002,2.17793zM354.21641,192.8827c-0.43372,-0.94356 -0.81087,-1.63399 -1.13145,-2.07129l0.59087,-0.36192c0.46096,0.60965 0.85382,1.27316 1.17859,1.99052z" fill="#ffffff" fill-rule="nonzero" stroke-width="1" stroke-linecap="butt" stroke-linejoin="miter"/><path d="M250.91529,206.86673c0.14667,0.07756 0.31534,0.17019 0.50601,0.2779l-0.39915,0.33283h1.89203l0.35515,0.36514c-0.47143,0.73029 -0.94182,1.33025 -1.41116,1.79987l-0.63801,-0.38454c0.41277,-0.38776 0.74383,-0.77336 0.99316,-1.15682h-1.56517v2.53338c0,0.29298 -0.07019,0.4804 -0.21058,0.56226c-0.09428,0.05604 -0.27028,0.08406 -0.528,0.08406c-0.33734,0 -0.70925,-0.02153 -1.11574,-0.06459l-0.154,-0.72059c0.39182,0.06462 0.73963,0.09694 1.04345,0.09694c0.11524,0 0.18647,-0.0194 0.21371,-0.0582c0.02097,-0.03231 0.03146,-0.09155 0.03146,-0.17772v-2.25549h-2.63376v-0.62365h3.40691c-0.7082,-0.41792 -1.41641,-0.77121 -2.12461,-1.05989l0.50916,-0.41684c0.47563,0.19603 0.89573,0.38669 1.26031,0.57195c0.32267,-0.2262 0.60553,-0.44808 0.84858,-0.66565h-3.35977v-0.61396h4.27435l0.38658,0.38776c-0.54896,0.45454 -1.07592,0.84984 -1.58088,1.1859z" fill="#ffffff" fill-rule="nonzero" stroke-width="1" stroke-linecap="butt" stroke-linejoin="miter"/><path d="M254.88479,207.24803c-0.27238,0.51056 -0.58772,0.92848 -0.94601,1.25377l-0.36144,-0.60103c0.46934,-0.36622 0.86535,-0.86062 1.18802,-1.4832h-1.0403v-0.59456h1.15973v-0.78199h0.67573v0.78199h0.9083v0.59456h-0.9083v0.39423c0.37296,0.21973 0.70506,0.45238 0.9963,0.69797l-0.38029,0.56872c-0.19905,-0.22835 -0.40439,-0.43192 -0.61601,-0.61073v1.43796h-0.67573zM256.81453,208.79908c0.2682,0.26282 0.5322,0.57842 0.79201,0.94679l-0.55943,0.41039c-0.28915,-0.45885 -0.56886,-0.81645 -0.83915,-1.0728l0.44629,-0.31991v-3.48986h2.68404v3.5254zM257.28911,205.80362v0.49439h1.3986v-0.49439zM257.28911,206.79564v0.48793h1.3986v-0.48793zM257.28911,207.77474v0.4944h1.3986v-0.4944zM253.65905,210.7799c0.24096,-0.40499 0.42849,-0.90155 0.56258,-1.48966l0.65373,0.19066c-0.11733,0.69151 -0.31848,1.26992 -0.60344,1.73523zM255.37822,209.29671h0.6883v1.0308c0,0.13357 0.03143,0.21328 0.09428,0.23913c0.07962,0.03015 0.29963,0.04522 0.66002,0.04522c0.34363,0 0.57306,-0.01186 0.68829,-0.03559c0.08382,-0.0194 0.13725,-0.06895 0.16029,-0.14864c0.03143,-0.10772 0.05237,-0.30376 0.06282,-0.58811l0.69458,0.1648c-0.00835,0.32098 -0.03139,0.55041 -0.06913,0.68828c-0.0524,0.19604 -0.12993,0.32961 -0.23258,0.40069c-0.088,0.06246 -0.21477,0.09908 -0.3803,0.10986c-0.34363,0.02156 -0.69668,0.03235 -1.05916,0.03235c-0.60972,0 -0.98163,-0.03662 -1.11573,-0.10986c-0.12781,-0.07109 -0.19172,-0.22189 -0.19172,-0.45239zM259.20943,211.02871c-0.25353,-0.62904 -0.53535,-1.16221 -0.84545,-1.59951l0.57515,-0.35222c0.34572,0.47393 0.64115,0.98556 0.8863,1.53489z" fill="#ffffff" fill-rule="nonzero" stroke-width="1" stroke-linecap="butt" stroke-linejoin="miter"/><path d="M262.7672,205.91348v-0.2779h-1.96431v-0.46208h4.63893v0.46208h-2.00517v0.2779h2.60233v1.16006h-0.68201v-0.74321h-1.92032v1.257h-0.66945v-1.257h-1.88574v0.74321h-0.67573v-1.16006zM264.99239,210.49878c0.32057,0.12494 0.72077,0.22403 1.20058,0.29728l-0.36772,0.54933c-0.67258,-0.11848 -1.22468,-0.32205 -1.65631,-0.61073c-0.42953,-0.28866 -0.76373,-0.64734 -1.00259,-1.07604h-0.69458v0.99526c0.46306,-0.06679 0.89259,-0.13788 1.28859,-0.21327l0.04399,0.48148c-0.73753,0.18095 -1.58088,0.33821 -2.53004,0.47178l-0.18543,-0.56873c0.32896,-0.03664 0.5542,-0.06249 0.67572,-0.07757l0.03777,-0.00608v-1.08251h-0.6883c-0.02932,0.37914 -0.07751,0.68182 -0.14457,0.90801c-0.07962,0.27143 -0.20743,0.52456 -0.38343,0.75936l-0.55944,-0.47501c0.20534,-0.27359 0.33315,-0.5935 0.38343,-0.95972c0.02722,-0.19819 0.04083,-0.44485 0.04083,-0.73998v-1.3701h5.42466v0.42977h-4.74893v0.99203h5.01922v0.45562h-0.71344l0.39915,0.27143c-0.23676,0.2025 -0.51648,0.39208 -0.83915,0.56873zM264.50209,210.24996c0.30172,-0.21112 0.54162,-0.40823 0.71972,-0.59134h-1.37345c0.1802,0.23697 0.3981,0.43408 0.65373,0.59134zM261.15804,206.56944h1.33888v0.36515h-1.33888zM261.15804,207.16401h1.33888v0.37161h-1.33888zM263.70693,206.56944h1.37974v0.36515h-1.37974zM263.70693,207.16401h1.37974v0.37161h-1.37974zM261.50061,208.48241h3.91292v0.4233h-3.91292z" fill="#ffffff" fill-rule="nonzero" stroke-width="1" stroke-linecap="butt" stroke-linejoin="miter"/><path d="M270.04932,205.62265h2.46404v0.54287h-1.39545v0.5364h1.30745v0.52348h-1.30745v0.96294h-2.53004v-0.96294h-1.03088v0.60103c0,0.97587 -0.05029,1.74709 -0.15086,2.31365c-0.07752,0.43084 -0.20324,0.82399 -0.37715,1.17944l-0.57201,-0.46531c0.15924,-0.35545 0.2682,-0.78953 0.32686,-1.30224c0.0524,-0.45024 0.0786,-1.02542 0.0786,-1.72555v-2.20379h2.48604v-0.58164h0.70087zM267.557,206.16552v0.5364h1.03088v-0.5364zM269.25731,206.16552v0.5364h1.19117v-0.5364zM269.25731,207.22541v0.50086h1.19117v-0.50086zM269.98646,210.61834c-0.60553,0.32313 -1.3745,0.56871 -2.30689,0.73674l-0.32686,-0.59456c0.87583,-0.10771 1.56203,-0.27251 2.0586,-0.4944c-0.42534,-0.31667 -0.78886,-0.69258 -1.09058,-1.12774h-0.43373v-0.56226h3.68035l0.33,0.28436c-0.31219,0.49333 -0.75744,0.95757 -1.33574,1.39272c0.49658,0.20465 1.17335,0.35545 2.03032,0.45238l-0.36772,0.61073c-0.82134,-0.11417 -1.56726,-0.34683 -2.23775,-0.69797zM269.05303,209.13837c0.25352,0.3059 0.56153,0.57518 0.92401,0.80784c0.40858,-0.27143 0.72392,-0.54071 0.94602,-0.80784z" fill="#ffffff" fill-rule="nonzero" stroke-width="1" stroke-linecap="butt" stroke-linejoin="miter"/><path d="M275.11255,206.08151c0.09428,0.14865 0.1739,0.29191 0.23885,0.42977l-0.66944,0.1648c-0.09219,-0.23697 -0.18857,-0.43516 -0.28915,-0.59457h-0.33c-0.17181,0.25636 -0.36877,0.48794 -0.59087,0.69474l-0.49658,-0.42977c0.39182,-0.33606 0.6904,-0.78629 0.89573,-1.3507l0.70087,0.10018c-0.06914,0.17234 -0.13409,0.31775 -0.19486,0.43623h1.36717v0.54933zM277.72744,206.08151c0.09429,0.13141 0.17496,0.25959 0.24201,0.38454l-0.64115,0.19711c-0.10686,-0.22188 -0.21162,-0.41577 -0.31429,-0.58165h-0.35201c-0.11315,0.20035 -0.22524,0.36623 -0.33629,0.49764h0.00296v0.34898h2.08689v0.52994h-2.08689v0.48148h2.72176v0.5364h-1.37659v0.52994h1.14716v0.56226h-1.14716v1.17621c0,0.22404 -0.066,0.38022 -0.198,0.46855c-0.10896,0.07325 -0.30068,0.10987 -0.57515,0.10987c-0.33524,0 -0.64744,-0.01616 -0.93658,-0.04847l-0.12258,-0.65596c0.36248,0.05388 0.68306,0.08081 0.96173,0.08081c0.07124,0 0.11524,-0.01616 0.132,-0.04847c0.01256,-0.02589 0.01884,-0.07113 0.01884,-0.13572v-0.94679h-3.75263v-0.56226h3.75263v-0.52994h-4.01664v-0.5364h2.68404v-0.48148h-2.03975v-0.52994h2.03975v-0.34898h0.47144l-0.36144,-0.27144c0.29753,-0.32745 0.53115,-0.76045 0.70087,-1.299l0.66945,0.08081c-0.03774,0.10555 -0.09536,0.25312 -0.17286,0.44269h1.95489v0.54933zM274.8674,210.98994c-0.29962,-0.44162 -0.60134,-0.78953 -0.90515,-1.04372l0.54058,-0.36514c0.37925,0.27574 0.69668,0.58703 0.9523,0.93386z" fill="#ffffff" fill-rule="nonzero" stroke-width="1" stroke-linecap="butt" stroke-linejoin="miter"/><path d="M280.33921,206.23338h0.96487v0.99203h-0.96487zM280.33921,209.14484h0.96487v0.99202h-0.96487z" fill="#ffffff" fill-rule="nonzero" stroke-width="1" stroke-linecap="butt" stroke-linejoin="miter"/><path d="M285.61615,209.09636l-0.09428,-0.4233c0.14248,0.02156 0.27448,0.03235 0.39601,0.03235c0.06075,0 0.09637,-0.01616 0.10686,-0.04847c0.00842,-0.02156 0.01262,-0.05819 0.01262,-0.10986v-0.75936h-1.64689v-0.52348h1.64689v-0.45562h-0.82344v-0.2262c-0.2221,0.13357 -0.45991,0.25744 -0.71344,0.37161l-0.41486,-0.46532c0.47982,-0.18957 0.88316,-0.42008 1.21002,-0.69151c0.25143,-0.20896 0.48401,-0.461 0.69773,-0.75613h0.68201c0.23886,0.30375 0.54372,0.56441 0.91458,0.78199c0.27448,0.16157 0.64744,0.33283 1.11888,0.51378l-0.374,0.52348c-0.3122,-0.12495 -0.58249,-0.24882 -0.81087,-0.37161v0.31991h-0.82344v0.45562h1.73803v0.52348h-1.73803v0.99202c0,0.1508 -0.03562,0.26174 -0.10686,0.33284c-0.07334,0.07324 -0.20639,0.10986 -0.39915,0.10986c-0.06075,0 -0.13199,-0.00101 -0.21371,-0.00304v0.29405h2.16861v0.54287h-2.16861v0.51701h2.63061v0.57519h-5.92124v-0.57519h2.5929v-0.51701h-2.14346v-0.54287h2.14346v-0.41684zM285.58785,206.32387h1.65317c-0.33944,-0.21112 -0.64221,-0.46855 -0.90831,-0.7723c-0.20324,0.28867 -0.45153,0.54611 -0.74486,0.7723zM284.00382,206.25928c-0.29963,-0.2822 -0.6244,-0.5224 -0.97431,-0.72059l0.40543,-0.46532c0.41696,0.22189 0.7543,0.44916 1.01202,0.68182zM282.65865,208.6731c0.42115,-0.30375 0.87164,-0.7249 1.35146,-1.26346l0.34572,0.51056c-0.31639,0.40931 -0.73649,0.84339 -1.26031,1.30224zM287.97331,209.16427c-0.32687,-0.43947 -0.6443,-0.77984 -0.9523,-1.02111l0.47772,-0.34252c0.36457,0.28866 0.69039,0.6021 0.97744,0.94032zM283.55753,207.38378c-0.29334,-0.26928 -0.61706,-0.50301 -0.97116,-0.7012l0.40543,-0.4847c0.33734,0.17234 0.66315,0.39315 0.97744,0.66243zM284.15154,208.79266c0.32057,-0.21758 0.61181,-0.52886 0.87372,-0.93386l0.50287,0.29405c-0.28496,0.46747 -0.5982,0.8283 -0.93974,1.08251z" fill="#ffffff" fill-rule="nonzero" stroke-width="1" stroke-linecap="butt" stroke-linejoin="miter"/><path d="M291.45882,208.00417c-0.20953,0.40284 -0.42429,0.70551 -0.6443,0.908c-0.18857,0.1745 -0.36143,0.26175 -0.51858,0.26175c-0.20114,0 -0.36352,-0.14003 -0.48714,-0.42008c-0.12781,-0.29298 -0.19172,-0.75183 -0.19172,-1.37656c0,-0.62904 0.07124,-1.31085 0.21371,-2.04545l0.6883,0.10664c-0.13829,0.72813 -0.20743,1.34424 -0.20743,1.84833c0,0.67858 0.04714,1.01788 0.14143,1.01788c0.03564,0 0.0964,-0.0517 0.18228,-0.15511c0.1341,-0.1551 0.27553,-0.38345 0.42429,-0.68504zM290.98109,210.53432c0.64325,-0.18527 1.12831,-0.46208 1.45517,-0.83045c0.4002,-0.45024 0.6003,-1.13098 0.6003,-2.04222c0,-0.69151 -0.06496,-1.46811 -0.19487,-2.32981l0.71973,-0.07108c0.13829,0.87031 0.20743,1.68138 0.20743,2.43321c0,1.2193 -0.30486,2.09715 -0.91459,2.63355c-0.37086,0.32745 -0.87059,0.59888 -1.49917,0.8143z" fill="#ffffff" fill-rule="nonzero" stroke-width="1" stroke-linecap="butt" stroke-linejoin="miter"/><path d="M294.98202,206.31094c1.74117,-0.28221 2.90928,-0.42331 3.50434,-0.42331c0.66001,0 1.17231,0.15618 1.53688,0.46855c0.43162,0.37053 0.64743,0.9231 0.64743,1.65769c0,0.57302 -0.18019,1.0728 -0.54058,1.49934c-0.54896,0.65058 -1.67517,1.04804 -3.37863,1.19237l-0.23886,-0.71413c1.15031,-0.09479 1.96642,-0.26389 2.44833,-0.50732c0.25772,-0.1314 0.46934,-0.30374 0.63487,-0.51701c0.22419,-0.28866 0.33629,-0.62257 0.33629,-1.00172c0,-0.46531 -0.10476,-0.80891 -0.31429,-1.0308c-0.10686,-0.11202 -0.22315,-0.19604 -0.34887,-0.25205c-0.176,-0.07971 -0.42743,-0.11956 -0.7543,-0.11956c-0.53429,0 -1.6626,0.15187 -3.38491,0.45562z" fill="#ffffff" fill-rule="nonzero" stroke-width="1" stroke-linecap="butt" stroke-linejoin="miter"/><path d="M305.2499,206.70839c-0.68096,-0.36407 -1.49498,-0.65274 -2.44204,-0.866l0.28286,-0.5978c0.94707,0.18311 1.77156,0.46424 2.47348,0.84338zM303.13158,209.77172c0.25143,0.39853 0.52906,0.5978 0.83287,0.5978c0.3541,0 0.53115,-0.20573 0.53115,-0.61719c0,-0.3059 -0.09114,-0.6872 -0.27343,-1.1439c-0.18857,-0.46963 -0.43058,-0.88432 -0.72602,-1.24407l0.56887,-0.30375c0.40019,0.48471 0.70715,1.01357 0.92087,1.58659c0.15714,0.42223 0.23572,0.80353 0.23572,1.1439c0,0.377 -0.09114,0.67751 -0.27343,0.90154c-0.21791,0.26497 -0.53534,0.39746 -0.9523,0.39746c-0.4903,0 -0.8863,-0.2542 -1.18802,-0.7626zM301.28983,210.11102c0.41696,-0.70659 0.70925,-1.56075 0.87688,-2.56247l0.65373,0.21974c-0.20325,1.15252 -0.5144,2.05622 -0.93345,2.7111zM306.57935,210.36952c-0.23467,-0.99526 -0.56677,-1.90003 -0.9963,-2.71434l0.58458,-0.26497c0.47772,0.8143 0.83182,1.71262 1.0623,2.69495zM306.26506,206.51775c-0.1341,-0.3533 -0.34258,-0.73783 -0.62544,-1.1536l0.47772,-0.17773c0.24724,0.35115 0.45781,0.72814 0.63172,1.13098zM307.05708,206.23338c-0.14667,-0.38991 -0.35306,-0.7766 -0.61916,-1.16006l0.45887,-0.15833c0.24095,0.3016 0.44629,0.66782 0.61601,1.09866z" fill="#ffffff" fill-rule="nonzero" stroke-width="1" stroke-linecap="butt" stroke-linejoin="miter"/><path d="M308.31424,205.31245h0.74173v3.85178c0,0.81215 0.41486,1.21822 1.24459,1.21822c0.54687,0 0.99525,-0.25959 1.34516,-0.77876c0.22629,-0.3339 0.42953,-0.85092 0.60973,-1.55104l0.638,0.39746c-0.21371,0.77768 -0.47038,1.35932 -0.77001,1.74493c-0.47144,0.60104 -1.08431,0.90155 -1.8386,0.90155c-0.78782,0 -1.34307,-0.24989 -1.66574,-0.74968c-0.20324,-0.31236 -0.30486,-0.71521 -0.30486,-1.20852z" fill="#ffffff" fill-rule="nonzero" stroke-width="1" stroke-linecap="butt" stroke-linejoin="miter"/><path d="M313.50317,205.82623c1.92765,-0.03015 3.74949,-0.08077 5.46552,-0.15187l0.03777,0.64304c-0.7564,0.0388 -1.34517,0.15728 -1.76632,0.35545c-0.40229,0.18957 -0.72496,0.45239 -0.96801,0.78846c-0.27658,0.3813 -0.41486,0.80569 -0.41486,1.27316c0,0.46531 0.15714,0.8143 0.47143,1.04696c0.36038,0.26497 0.91353,0.447 1.65945,0.5461l-0.14772,0.72706c-0.9722,-0.13356 -1.65631,-0.39207 -2.05231,-0.77553c-0.42534,-0.40931 -0.63801,-0.91771 -0.63801,-1.5252c0,-0.55149 0.19277,-1.06635 0.5783,-1.54459c0.28076,-0.35115 0.66524,-0.63335 1.15344,-0.84662c-0.86535,0.03015 -1.98108,0.08077 -3.3472,0.15187zM318.07296,208.6149c-0.12362,-0.33822 -0.3321,-0.72168 -0.62544,-1.15036l0.4903,-0.18742c0.26191,0.37053 0.47248,0.74967 0.63172,1.13743zM318.92155,208.2756c-0.14876,-0.39638 -0.35619,-0.78199 -0.62229,-1.15682l0.4683,-0.17127c0.24515,0.3059 0.45363,0.67643 0.62544,1.11159z" fill="#ffffff" fill-rule="nonzero" stroke-width="1" stroke-linecap="butt" stroke-linejoin="miter"/><path d="M323.71448,209.97206l0.04399,0.57841c-0.90935,0.3296 -1.92032,0.60104 -3.03291,0.8143l-0.23258,-0.64627c0.19277,-0.03015 0.46515,-0.07862 0.81716,-0.14541v-1.18268c-0.36248,0.18957 -0.79411,0.36945 -1.29488,0.53964l-0.35829,-0.57518c1.00782,-0.28005 1.77679,-0.63766 2.30689,-1.07281h-2.24404v-0.56226h2.69347v-0.48793h-2.0366v-0.54286h2.0366v-0.45563h-2.35717v-0.55579h2.35717v-0.63657h0.6883v0.63657h2.42633v0.55579h-2.42633v0.45563h2.10575v0.54286h-2.10575v0.48793h2.76262v0.56226h-0.75115l0.46515,0.3296c-0.28706,0.28652 -0.68935,0.59996 -1.20688,0.94033l-0.07229,0.04847c0.39391,0.37053 0.9282,0.67643 1.60288,0.91771l-0.42429,0.65596c-0.73125,-0.31883 -1.31897,-0.71952 -1.76317,-1.20207zM322.76218,208.29175c-0.20953,0.25205 -0.462,0.47824 -0.75744,0.67859v1.45087c0.51753,-0.11848 1.03715,-0.25635 1.55888,-0.41361l0.14458,-0.04198c-0.42953,-0.48901 -0.74487,-1.04696 -0.94602,-1.67385zM323.90934,209.17392c0.37296,-0.27359 0.69982,-0.57088 0.98059,-0.89186h-1.48659c0.13409,0.3296 0.30276,0.62689 0.506,0.89186z" fill="#ffffff" fill-rule="nonzero" stroke-width="1" stroke-linecap="butt" stroke-linejoin="miter"/><path d="M329.61058,207.79413v2.86622c0,0.26066 -0.05133,0.43838 -0.154,0.53317c-0.09639,0.08617 -0.28287,0.12926 -0.55944,0.12926c-0.31429,0 -0.61286,-0.02048 -0.89572,-0.06145l-0.13515,-0.68182c0.29334,0.04955 0.57411,0.07432 0.8423,0.07432c0.0901,0 0.14667,-0.01616 0.16972,-0.04847c0.01677,-0.02799 0.02515,-0.0743 0.02515,-0.13894v-2.67234h-2.7029v-0.64304h6.05638v0.64304zM326.95483,205.39969h4.54465v0.63658h-4.54465zM326.16282,210.3566c0.45258,-0.48686 0.81715,-1.13421 1.09373,-1.94205l0.65058,0.25204c-0.32057,0.92417 -0.72391,1.65015 -1.21001,2.17794zM331.55605,210.75082c-0.43372,-0.94356 -0.81087,-1.63399 -1.13145,-2.0713l0.59086,-0.36191c0.46097,0.60965 0.85383,1.27315 1.17859,1.99051z" fill="#ffffff" fill-rule="nonzero" stroke-width="1" stroke-linecap="butt" stroke-linejoin="miter"/><path d="M247.73846,196.38138h0.7323v3.53521h-0.7323zM250.96626,196.31354h0.7323v2.3105c0,0.81215 -0.06391,1.41642 -0.19172,1.81283c-0.10685,0.33822 -0.25247,0.60751 -0.43686,0.80786c-0.38344,0.42439 -0.99946,0.73784 -1.84808,0.94034l-0.36143,-0.66245c0.92823,-0.19388 1.52328,-0.51595 1.78516,-0.9662c0.16553,-0.28652 0.26505,-0.64845 0.29858,-1.08579c0.01466,-0.2025 0.02199,-0.48256 0.02199,-0.84018z" fill="#ffffff" fill-rule="nonzero" stroke-width="1" stroke-linecap="butt" stroke-linejoin="miter"/><path d="M252.80763,196.77684h4.92499l0.40544,0.35222c-0.11733,0.45025 -0.27029,0.82617 -0.45886,1.12777c-0.35411,0.57089 -0.8842,0.99744 -1.59028,1.27967l-0.39601,-0.55581c0.4882,-0.1508 0.89363,-0.42116 1.21631,-0.81109c0.19067,-0.23051 0.32372,-0.47394 0.39914,-0.7303h-4.50061zM254.82229,198.17281h0.71973v0.5558c0,0.83371 -0.0901,1.47784 -0.27029,1.93238c-0.22839,0.57735 -0.67258,1.047 -1.33258,1.40895l-0.51857,-0.56227c0.45467,-0.22189 0.78677,-0.48687 0.99628,-0.79494c0.16134,-0.23913 0.26715,-0.49226 0.31743,-0.75938c0.05865,-0.30591 0.08797,-0.71631 0.08797,-1.2312z" fill="#ffffff" fill-rule="nonzero" stroke-width="1" stroke-linecap="butt" stroke-linejoin="miter"/><path d="M259.97745,196.6146h0.70715v1.17624c0,1.12669 -0.08171,1.94962 -0.24514,2.46879c-0.21581,0.68722 -0.66839,1.26027 -1.35773,1.71914l-0.48086,-0.5752c0.47772,-0.34469 0.81402,-0.70229 1.0089,-1.07281c0.16343,-0.31237 0.27134,-0.73139 0.32372,-1.25706c0.02932,-0.29729 0.04399,-0.7206 0.04399,-1.26993zM261.58657,196.42718h0.70716v4.5919c0.41696,-0.2219 0.78259,-0.5375 1.09687,-0.94681c0.34363,-0.44809 0.6003,-0.97913 0.77001,-1.5931l0.55315,0.54934c-0.20953,0.63983 -0.49658,1.18593 -0.86116,1.63832c-0.45886,0.57089 -1.06019,1.02006 -1.80399,1.3475l-0.46201,-0.4104z" fill="#ffffff" fill-rule="nonzero" stroke-width="1" stroke-linecap="butt" stroke-linejoin="miter"/><path d="M269.82979,196.97964l0.44944,0.37808c-0.29334,1.37877 -0.76896,2.44621 -1.42686,3.20231c-0.36458,0.41794 -0.83603,0.78416 -1.41434,1.09867c-0.41068,0.2219 -0.85175,0.39855 -1.32321,0.52996l-0.36458,-0.63659c1.07695,-0.28868 1.91297,-0.74971 2.50806,-1.3831c-0.4903,-0.45241 -1.03088,-0.85311 -1.62174,-1.2021l0.41172,-0.5235c0.5762,0.30807 1.12411,0.68724 1.64373,1.13751c0.40858,-0.67214 0.66525,-1.32272 0.77001,-1.95175h-2.21258c-0.50706,0.81215 -1.10422,1.43366 -1.79147,1.86454l-0.46201,-0.5138c0.66419,-0.41147 1.20999,-0.95541 1.63742,-1.63183c0.22001,-0.34469 0.39077,-0.71632 0.51229,-1.11489l0.68201,0.17126c-0.06914,0.19389 -0.14666,0.38562 -0.23257,0.5752z" fill="#ffffff" fill-rule="nonzero" stroke-width="1" stroke-linecap="butt" stroke-linejoin="miter"/><path d="M273.29142,202.11048v-3.31548c-0.63697,0.43947 -1.36404,0.81002 -2.18122,1.11165l-0.38029,-0.65599c0.92823,-0.32099 1.74226,-0.7346 2.44208,-1.24083c0.68726,-0.49764 1.29908,-1.06744 1.83545,-1.7094l0.60657,0.39101c-0.47563,0.56227 -1.00572,1.07823 -1.59028,1.54787v3.87125z" fill="#ffffff" fill-rule="nonzero" stroke-width="1" stroke-linecap="butt" stroke-linejoin="miter"/><path d="M276.02325,201.00522c0.14457,-0.00203 0.34363,-0.01281 0.59716,-0.03235c0.59715,-1.37877 1.14716,-2.89646 1.65004,-4.55306l0.71973,0.19389c-0.49449,1.58988 -1.02251,3.02571 -1.58407,4.30747c1.06439,-0.07971 2.00831,-0.17665 2.83173,-0.29083c-0.3101,-0.56228 -0.62544,-1.08148 -0.94602,-1.55761l0.61916,-0.40393c0.65998,0.93498 1.23932,1.92596 1.73802,2.97295l-0.70716,0.37808c-0.11524,-0.2499 -0.242,-0.51057 -0.38029,-0.78201c-1.22364,0.21112 -2.68508,0.39855 -4.38434,0.56227z" fill="#ffffff" fill-rule="nonzero" stroke-width="1" stroke-linecap="butt" stroke-linejoin="miter"/><path d="M284.65268,196.97964v-0.27791h-1.96435v-0.46209h4.63898v0.46209h-2.00518v0.27791h2.60234v1.16012h-0.68201v-0.74323h-1.92037v1.25706h-0.66945v-1.25706h-1.88575v0.74323h-0.67573v-1.16012zM286.87789,201.56505c0.32057,0.12495 0.72078,0.22404 1.20062,0.29729l-0.36771,0.54934c-0.6726,-0.11849 -1.22472,-0.32207 -1.65636,-0.61074c-0.42953,-0.28868 -0.76373,-0.64736 -1.00259,-1.07606h-0.69458v0.99529c0.46306,-0.06679 0.89259,-0.13788 1.2886,-0.21327l0.04399,0.48148c-0.73756,0.18097 -1.58091,0.33823 -2.53005,0.47179l-0.18543,-0.56873c0.32896,-0.03664 0.5542,-0.0625 0.67573,-0.07757l0.03767,-0.00608v-1.08255h-0.6883c-0.02932,0.37915 -0.07751,0.68183 -0.14457,0.90804c-0.07962,0.27144 -0.20743,0.52457 -0.38343,0.75939l-0.55944,-0.47503c0.20534,-0.27359 0.33315,-0.5935 0.38343,-0.95973c0.02722,-0.1982 0.04083,-0.44487 0.04083,-0.74001v-1.37012h5.4247v0.42978h-4.74895v0.99205h5.01927v0.45563h-0.71344l0.39915,0.27145c-0.23677,0.2025 -0.51648,0.39208 -0.83915,0.56873zM286.38759,201.31622c0.30172,-0.21112 0.54163,-0.40824 0.71972,-0.59135h-1.37341c0.1802,0.23697 0.3981,0.43409 0.65373,0.59135zM283.04351,197.63561h1.33889v0.36515h-1.33889zM283.04351,198.23019h1.33889v0.37162h-1.33889zM285.5924,197.63561h1.37972v0.36515h-1.37972zM285.5924,198.23019h1.37972v0.37162h-1.37972zM283.38603,199.54859h3.91293v0.42331h-3.91293z" fill="#ffffff" fill-rule="nonzero" stroke-width="1" stroke-linecap="butt" stroke-linejoin="miter"/><path d="M291.93098,196.69572h2.46407v0.54288h-1.3955v0.53643h1.30743v0.52349h-1.30743v0.96298h-2.53005v-0.96298h-1.0309v0.60105c0,0.97587 -0.05029,1.74712 -0.15086,2.31375c-0.07752,0.43086 -0.20324,0.82402 -0.37715,1.17948l-0.57201,-0.46532c0.15924,-0.35546 0.26819,-0.78955 0.32686,-1.30228c0.0524,-0.45025 0.0786,-1.02546 0.0786,-1.72563v-2.20383h2.48606v-0.58166h0.70087zM289.43861,197.2386v0.53643h1.0309v-0.53643zM291.13895,197.2386v0.53643h1.19116v-0.53643zM291.13895,198.29853v0.50088h1.19116v-0.50088zM291.8681,201.69158c-0.60553,0.32314 -1.37449,0.56873 -2.30687,0.73677l-0.32686,-0.59459c0.87583,-0.10771 1.56204,-0.27252 2.05864,-0.49441c-0.42534,-0.31669 -0.78886,-0.69261 -1.09056,-1.12777h-0.43372v-0.56226h3.68038l0.33,0.28437c-0.31219,0.49333 -0.75744,0.95757 -1.33574,1.39273c0.49658,0.20466 1.17336,0.35546 2.03033,0.45241l-0.36772,0.61074c-0.82132,-0.11418 -1.56724,-0.34685 -2.23773,-0.698zM290.93465,200.21154c0.25353,0.30591 0.56154,0.5752 0.92402,0.80786c0.40858,-0.27144 0.72392,-0.54073 0.94602,-0.80786z" fill="#ffffff" fill-rule="nonzero" stroke-width="1" stroke-linecap="butt" stroke-linejoin="miter"/><path d="M295.7871,197.30412h0.96487v0.99205h-0.96487zM295.7871,200.21562h0.96487v0.99205h-0.96487z" fill="#ffffff" fill-rule="nonzero" stroke-width="1" stroke-linecap="butt" stroke-linejoin="miter"/><path d="M300.26454,199.29156c-0.02097,1.36153 -0.08593,2.22539 -0.19486,2.59158c-0.05661,0.18743 -0.14671,0.31884 -0.27029,0.39424c-0.11524,0.07109 -0.27972,0.10663 -0.49344,0.10663c-0.20115,0 -0.45049,-0.01832 -0.74802,-0.05496l-0.12886,-0.64306c0.34991,0.04522 0.59506,0.06784 0.73544,0.06784c0.14667,0 0.23991,-0.03878 0.27972,-0.11634c0.07334,-0.14003 0.12991,-0.72169 0.16972,-1.74499h-0.87688c-0.00394,0.01507 -0.00723,0.03339 -0.00986,0.05496c-0.01256,0.08402 -0.0356,0.21328 -0.06913,0.38777l-0.61601,-0.09694c0.12991,-0.9393 0.20953,-1.74503 0.23886,-2.41717h1.27913v-0.81109h-1.474v-0.62367h2.09947v2.03581h-1.31374l-0.01568,0.27467c-0.01256,0.18743 -0.02827,0.38562 -0.04714,0.59459zM301.91143,198.01189l-0.1163,0.01014c-0.3562,0.03015 -0.7899,0.05922 -1.30112,0.0872l-0.15401,-0.62367c0.11524,-0.00203 0.21163,-0.00406 0.28915,-0.00608c0.04399,0 0.10056,-0.00101 0.16972,-0.00304c0.32477,-0.46748 0.59716,-0.92959 0.81716,-1.38634l0.65686,0.15835c-0.21371,0.37915 -0.47562,0.78094 -0.78572,1.20534l0.24514,-0.00608c0.40858,-0.01291 0.86431,-0.03769 1.3672,-0.07433l-0.05345,-0.07108c-0.12572,-0.17665 -0.27658,-0.36838 -0.45258,-0.57519l0.528,-0.2876c0.47354,0.54288 0.82766,1.03515 1.06236,1.47679l-0.54687,0.35223c-0.088,-0.1745 -0.16343,-0.31453 -0.22629,-0.42009c-0.32057,0.04522 -0.60763,0.08077 -0.86116,0.10663v0.6366h1.3452v1.85156h-1.3452v1.0793c0.19486,-0.02156 0.4023,-0.04526 0.62229,-0.07108l0.06913,-0.01014c-0.09428,-0.21112 -0.198,-0.41578 -0.31114,-0.61398l0.58458,-0.23912c0.27029,0.42439 0.51753,0.93819 0.74173,1.54138l-0.61287,0.31022c-0.07543,-0.21543 -0.13934,-0.3867 -0.19172,-0.5138l-0.23572,0.03873c-0.88418,0.14865 -1.79354,0.26283 -2.72808,0.34254l-0.17285,-0.63336c0.50287,-0.0194 1.02458,-0.04955 1.56513,-0.09045l0.03146,-0.00304v-1.13751h-1.30743v-1.85156h1.30743zM301.91143,199.13317h-0.72287v0.76585h0.72287zM302.54944,199.13317v0.76585h0.73859v-0.76585z" fill="#ffffff" fill-rule="nonzero" stroke-width="1" stroke-linecap="butt" stroke-linejoin="miter"/><path d="M307.17794,196.97964v-0.27791h-1.96435v-0.46209h4.63898v0.46209h-2.00518v0.27791h2.60234v1.16012h-0.68201v-0.74323h-1.92037v1.25706h-0.66945v-1.25706h-1.88575v0.74323h-0.67573v-1.16012zM309.40315,201.56505c0.32057,0.12495 0.72078,0.22404 1.20062,0.29729l-0.36771,0.54934c-0.6726,-0.11849 -1.22472,-0.32207 -1.65636,-0.61074c-0.42953,-0.28868 -0.76373,-0.64736 -1.00259,-1.07606h-0.69458v0.99529c0.46306,-0.06679 0.89259,-0.13788 1.2886,-0.21327l0.04399,0.48148c-0.73756,0.18097 -1.58091,0.33823 -2.53005,0.47179l-0.18543,-0.56873c0.32896,-0.03664 0.5542,-0.0625 0.67573,-0.07757l0.03767,-0.00608v-1.08255h-0.6883c-0.02932,0.37915 -0.07751,0.68183 -0.14457,0.90804c-0.07962,0.27144 -0.20743,0.52457 -0.38343,0.75939l-0.55944,-0.47503c0.20534,-0.27359 0.33315,-0.5935 0.38343,-0.95973c0.02722,-0.1982 0.04083,-0.44487 0.04083,-0.74001v-1.37012h5.4247v0.42978h-4.74895v0.99205h5.01927v0.45563h-0.71344l0.39915,0.27145c-0.23677,0.2025 -0.51648,0.39208 -0.83915,0.56873zM308.91285,201.31622c0.30172,-0.21112 0.54163,-0.40824 0.71972,-0.59135h-1.37341c0.1802,0.23697 0.3981,0.43409 0.65373,0.59135zM305.56878,197.63561h1.33889v0.36515h-1.33889zM305.56878,198.23019h1.33889v0.37162h-1.33889zM308.11766,197.63561h1.37972v0.36515h-1.37972zM308.11766,198.23019h1.37972v0.37162h-1.37972zM305.91129,199.54859h3.91293v0.42331h-3.91293z" fill="#ffffff" fill-rule="nonzero" stroke-width="1" stroke-linecap="butt" stroke-linejoin="miter"/><path d="M311.32993,196.6146h4.77094v0.66245h-2.65885v1.37336h3.16172v0.66245h-3.16172v1.60283c0,0.12064 0.02094,0.20142 0.06282,0.24236c0.08172,0.08402 0.46726,0.12603 1.15664,0.12603c0.4882,0 0.98479,-0.01724 1.48978,-0.05171v0.72707c-0.52382,0.02799 -1.01936,0.04198 -1.48663,0.04198c-0.69141,0 -1.1335,-0.02153 -1.32627,-0.06459c-0.27029,-0.0582 -0.44944,-0.18531 -0.53744,-0.38131c-0.0524,-0.11418 -0.0786,-0.26174 -0.0786,-0.4427v-1.79995h-1.71287v-0.66245h1.71287v-1.37336h-1.39235z" fill="#ffffff" fill-rule="nonzero" stroke-width="1" stroke-linecap="butt" stroke-linejoin="miter"/><path d="M317.85871,197.16216h4.32467v0.69476h-4.32467zM317.2207,200.86214h5.60064v0.70122h-5.60064z" fill="#ffffff" fill-rule="nonzero" stroke-width="1" stroke-linecap="butt" stroke-linejoin="miter"/><path d="M328.01677,196.97964l0.44944,0.37808c-0.29334,1.37877 -0.76896,2.44621 -1.42686,3.20231c-0.36458,0.41794 -0.83603,0.78416 -1.41434,1.09867c-0.41068,0.2219 -0.85175,0.39855 -1.32321,0.52996l-0.36458,-0.63659c1.07695,-0.28868 1.91297,-0.74971 2.50806,-1.3831c-0.4903,-0.45241 -1.03088,-0.85311 -1.62174,-1.2021l0.41172,-0.5235c0.5762,0.30807 1.12411,0.68724 1.64373,1.13751c0.40858,-0.67214 0.66525,-1.32272 0.77001,-1.95175h-2.21258c-0.50706,0.81215 -1.10421,1.43366 -1.79147,1.86454l-0.46201,-0.5138c0.66419,-0.41147 1.20999,-0.95541 1.63742,-1.63183c0.22001,-0.34469 0.39077,-0.71632 0.51229,-1.11489l0.68201,0.17126c-0.06914,0.19389 -0.14666,0.38562 -0.23257,0.5752z" fill="#ffffff" fill-rule="nonzero" stroke-width="1" stroke-linecap="butt" stroke-linejoin="miter"/><path d="M332.37586,201.42096c1.22995,-0.31884 1.84492,-1.04374 1.84492,-2.17473c0,-0.49333 -0.12362,-0.91772 -0.37087,-1.27318c-0.27658,-0.4007 -0.69772,-0.65814 -1.26345,-0.77231c-0.12363,0.9996 -0.2923,1.81824 -0.50601,2.45591c-0.14667,0.44594 -0.32896,0.86708 -0.54687,1.26344c-0.31429,0.56443 -0.67153,0.84664 -1.07173,0.84664c-0.29753,0 -0.56258,-0.13788 -0.79515,-0.41363c-0.14877,-0.1745 -0.26925,-0.38885 -0.36144,-0.64305c-0.12152,-0.32961 -0.18228,-0.684 -0.18228,-1.06318c0,-0.61398 0.16448,-1.17948 0.49344,-1.69652c0.33315,-0.52781 0.76583,-0.91127 1.29806,-1.15038c0.38762,-0.1745 0.81295,-0.26175 1.27597,-0.26175c0.72283,0 1.33676,0.19927 1.84177,0.59782c0.6202,0.48903 0.9303,1.18162 0.9303,2.07779c0,1.50153 -0.73858,2.45374 -2.21574,2.85664zM331.90443,197.17484c-0.37086,0.04306 -0.68097,0.14539 -0.9303,0.30699c-0.15924,0.10556 -0.31744,0.24558 -0.47459,0.42008c-0.43581,0.49549 -0.65372,1.06961 -0.65372,1.72238c0,0.4761 0.09219,0.84878 0.27658,1.11804c0.11314,0.16588 0.22524,0.24883 0.33629,0.24883c0.15086,0 0.32057,-0.17127 0.50915,-0.5138c0.46096,-0.83371 0.77316,-1.93454 0.93659,-3.3025z" fill="#ffffff" fill-rule="nonzero" stroke-width="1" stroke-linecap="butt" stroke-linejoin="miter"/><path d="M336.49826,197.66916v-0.70122h-1.02458v-0.60105h3.23086v0.60105h-0.98059v0.70122h0.8643v4.66623h-0.5783v-0.31022h-1.76001v0.37808h-0.59715v-4.73406zM336.95399,197.66916h0.30801v-0.70122h-0.30801zM336.54541,198.22497h-0.29543v1.4412c0.17601,-0.33176 0.27448,-0.81216 0.29543,-1.4412zM336.9477,198.22497c-0.00197,0.78416 -0.13293,1.41538 -0.39287,1.89364l-0.30486,-0.28437v0.54934h1.76001v-0.63013h-0.36771c-0.14667,0 -0.24725,-0.0291 -0.30172,-0.08731c-0.0524,-0.05604 -0.0786,-0.15191 -0.0786,-0.2876v-1.15363zM337.66743,198.22497v0.90803c0,0.0603 0.00838,0.09692 0.02515,0.10988c0.01466,0.01075 0.04923,0.01612 0.10371,0.01612h0.21371v-1.03408zM336.24993,200.90062v0.54934h1.76001v-0.54934zM339.6946,199.23968v2.14887c0,0.11633 0.03352,0.18527 0.10057,0.20682c0.09848,0.03231 0.25877,0.04847 0.48087,0.04847c0.19905,0 0.34152,-0.02048 0.42743,-0.06145c0.06915,-0.03231 0.1142,-0.11202 0.13515,-0.23913c0.02097,-0.13572 0.03879,-0.39423 0.05345,-0.77554l0.00592,-0.13249l0.67573,0.18096c-0.01677,0.55581 -0.04714,0.94251 -0.09113,1.16012c-0.06075,0.29513 -0.23571,0.46317 -0.52487,0.5041c-0.19277,0.02589 -0.4903,0.03884 -0.89259,0.03884c-0.42325,0 -0.70296,-0.04416 -0.83915,-0.13249c-0.12991,-0.08402 -0.19487,-0.2639 -0.19487,-0.53965v-3.03754h1.61543v-1.58022h-1.69087v-0.63659h2.3478v2.84691z" fill="#ffffff" fill-rule="nonzero" stroke-width="1" stroke-linecap="butt" stroke-linejoin="miter"/><path d="M343.37222,200.0115v1.173c0,0.17019 0.06076,0.27252 0.18229,0.30699c0.18019,0.05171 0.77629,0.07757 1.78831,0.07757c0.89891,0 1.45836,-0.02694 1.67835,-0.08082c0.10477,-0.02582 0.17182,-0.08614 0.20115,-0.18096c0.03564,-0.10771 0.06394,-0.35869 0.08491,-0.75293l0.69458,0.21974c-0.02308,0.42439 -0.0566,0.71522 -0.10056,0.87249c-0.05661,0.20466 -0.16138,0.34361 -0.3143,0.41686c-0.10895,0.05171 -0.25981,0.08403 -0.45258,0.09694c-0.49658,0.03664 -1.14505,0.05496 -1.94542,0.05496c-1.121,0 -1.78729,-0.02045 -1.99887,-0.06135c-0.23886,-0.04522 -0.39286,-0.15294 -0.462,-0.32314c-0.03353,-0.08617 -0.0503,-0.19388 -0.0503,-0.32314v-3.31872l-0.03146,0.02586c-0.09638,0.07109 -0.21057,0.14972 -0.34257,0.2359l-0.43058,-0.53643c0.74801,-0.42224 1.38077,-1.02435 1.89828,-1.80634l0.44,0.31021h1.78831l0.33315,0.35547c-0.27658,0.40285 -0.56572,0.76586 -0.86744,1.08904h2.01465v2.14887zM343.37222,199.43631h1.35142v-0.97913h-1.35142zM345.39939,198.45718v0.97913h1.37972v-0.97913zM344.67024,197.8626c0.27029,-0.29084 0.50077,-0.57628 0.69144,-0.85633h-1.45201c-0.23258,0.29299 -0.50916,0.57843 -0.82974,0.85633z" fill="#ffffff" fill-rule="nonzero" stroke-width="1" stroke-linecap="butt" stroke-linejoin="miter"/><path d="M348.52029,196.89852c1.92767,-0.03015 3.74951,-0.08078 5.46553,-0.15188l0.03767,0.64306c-0.75636,0.0388 -1.34514,0.15729 -1.76632,0.35546c-0.40229,0.18958 -0.72496,0.4524 -0.96801,0.78847c-0.27658,0.38131 -0.41486,0.8057 -0.41486,1.27318c0,0.46533 0.15714,0.81432 0.47143,1.04695c0.36039,0.26498 0.91353,0.44702 1.65941,0.54612l-0.14772,0.72707c-0.97222,-0.13356 -1.65632,-0.39208 -2.05232,-0.77555c-0.42534,-0.40931 -0.63802,-0.91773 -0.63802,-1.52526c0,-0.5515 0.19277,-1.06638 0.5783,-1.54463c0.28076,-0.35115 0.66526,-0.63336 1.15348,-0.84664c-0.86538,0.03015 -1.98112,0.08078 -3.34723,0.15188zM353.09003,199.68722c-0.12362,-0.33822 -0.3321,-0.72168 -0.62544,-1.15038l0.4903,-0.18743c0.26191,0.37054 0.47248,0.74971 0.63172,1.13751zM353.93862,199.34792c-0.14876,-0.39639 -0.35619,-0.78201 -0.62229,-1.15687l0.4683,-0.17126c0.24515,0.30591 0.45363,0.67646 0.62544,1.11165z" fill="#ffffff" fill-rule="nonzero" stroke-width="1" stroke-linecap="butt" stroke-linejoin="miter"/><path d="M358.72766,201.04578l0.04399,0.57843c-0.90936,0.3296 -1.92033,0.60105 -3.03292,0.81432l-0.23257,-0.64629c0.19276,-0.03015 0.46514,-0.07862 0.81715,-0.14541v-1.18273c-0.36248,0.18958 -0.79412,0.36946 -1.29491,0.53965l-0.35829,-0.5752c1.00785,-0.28006 1.77681,-0.63766 2.30687,-1.07281h-2.24404v-0.56227h2.69347v-0.48795h-2.03664v-0.54289h2.03664v-0.45563h-2.35716v-0.55581h2.35716v-0.63659h0.68829v0.63659h2.4263v0.55581h-2.4263v0.45563h2.10578v0.54289h-2.10578v0.48795h2.7626v0.56227h-0.75115l0.46515,0.3296c-0.28705,0.28652 -0.68933,0.59997 -1.20684,0.94035l-0.07229,0.04847c0.39392,0.37054 0.92822,0.67645 1.6029,0.91773l-0.42429,0.65598c-0.73125,-0.31884 -1.31897,-0.71953 -1.76316,-1.2021zM357.77537,199.36538c-0.20953,0.25205 -0.46201,0.47825 -0.75745,0.6786v1.45093c0.51754,-0.11848 1.03717,-0.25636 1.55892,-0.41362l0.14457,-0.04198c-0.42953,-0.48903 -0.74487,-1.047 -0.94601,-1.67391zM358.92254,200.24756c0.37296,-0.2736 0.69982,-0.57089 0.98059,-0.89187h-1.48663c0.13409,0.3296 0.30276,0.6269 0.50601,0.89187z" fill="#ffffff" fill-rule="nonzero" stroke-width="1" stroke-linecap="butt" stroke-linejoin="miter"/><path d="M364.62526,198.86568v2.86627c0,0.26067 -0.05134,0.4384 -0.15401,0.53319c-0.09638,0.08617 -0.28286,0.12925 -0.55943,0.12925c-0.3143,0 -0.61287,-0.02048 -0.89573,-0.06145l-0.13514,-0.68183c0.29334,0.04955 0.57411,0.07433 0.8423,0.07433c0.09009,0 0.14667,-0.01616 0.16972,-0.04847c0.01677,-0.02799 0.02515,-0.0743 0.02515,-0.13895v-2.6724h-2.70293v-0.64305h6.05638v0.64305zM361.96947,196.47122h4.5447v0.63659h-4.5447zM361.17745,201.42826c0.45258,-0.48687 0.81715,-1.13424 1.09372,-1.94211l0.65058,0.25205c-0.32058,0.92423 -0.72391,1.65022 -1.20999,2.17797zM366.5707,201.82249c-0.43372,-0.94356 -0.81085,-1.63403 -1.13139,-2.0714l0.59086,-0.36193c0.46096,0.60966 0.85384,1.27319 1.17863,1.99058z" fill="#ffffff" fill-rule="nonzero" stroke-width="1" stroke-linecap="butt" stroke-linejoin="miter"/></g></g></svg>