<svg version="1.1" xmlns="http://www.w3.org/2000/svg" xmlns:xlink="http://www.w3.org/1999/xlink" width="208" height="32" viewBox="0,0,208,32"><g transform="translate(-240,-164)"><g data-paper-data="{&quot;isPaintingLayer&quot;:true}" fill-rule="nonzero" stroke="none" stroke-linecap="butt" stroke-linejoin="miter" stroke-miterlimit="10" stroke-dasharray="" stroke-dashoffset="0" style="mix-blend-mode: normal"><path d="M240,196v-32h208v32z" fill="none" stroke-width="0"/><path d="M244.35,181.48c-0.7422,1.69273 -1.66343,3.25197 -2.7637,4.6777l-1.2207,-2.041c1.6146,-1.73827 2.8581,-3.7565 3.7305,-6.0547l0.0488,-0.13672h-3.4961v-1.8359h3.7012v-2.7539c-0.9896,0.18229 -1.8913,0.32552 -2.7051,0.42969l-0.82031,-1.7188c2.78647,-0.33854 5.306,-0.91147 7.5586,-1.7188l1.1816,1.7188c-1.12633,0.34505 -2.17127,0.62826 -3.1348,0.84961v3.1934h3.1152v1.8359h-3.1152v1.5723c1.23047,0.74867 2.36327,1.62433 3.3984,2.627l-1.2207,1.9434c-0.69013,-0.86587 -1.41603,-1.66667 -2.1777,-2.4024v7.832h-2.0801zM258.666,172.437v16.514h-2.1191v-1.3965h-4.2383v1.543h-2.0801v-16.66zM252.3086,174.4194v11.172h4.2383v-11.172z" fill="#ffffff" stroke-width="1"/><path d="M269.79,187.54c1.3086,-1.15887 2.2884,-2.70183 2.9394,-4.6289c0.39713,-1.17187 0.67057,-2.5358 0.82031,-4.0918c0.05207,-0.57943 0.0781,-1.10676 0.0781,-1.582v-1.6797h-0.6836c-0.01953,0.08463 -0.04557,0.20182 -0.0781,0.35156c-0.30599,1.38673 -0.76499,2.63023 -1.377,3.7305l-1.3184,-1.6602c0.944,-1.99867 1.569,-4.52797 1.875,-7.5879l1.9238,0.28321c-0.14323,1.12627 -0.3125,2.1126 -0.50781,2.959h5.0098l1.0547,0.85938c-0.44921,1.88153 -0.97981,3.51563 -1.5918,4.9023l-1.7285,-0.69336c0.59245,-1.3216 0.96678,-2.36977 1.123,-3.1445h-1.8555v1.7383c0,1.89453 0.44923,3.8151 1.3477,5.7617c0.69013,1.4974 1.68623,2.90367 2.9883,4.2188l-1.2988,2.2266c-1.3086,-1.51693 -2.41863,-3.32033 -3.3301,-5.4102c-0.24739,-0.5599 -0.42968,-1.10353 -0.54687,-1.6309c-0.52083,2.832 -1.7871,5.2441 -3.7988,7.2363l-1.0645,-1.4551c-0.0456,0.48828 -0.20185,0.82358 -0.46875,1.0059c-0.2539,0.16927 -0.7194,0.2539 -1.3965,0.2539c-1.00913,0 -1.78387,-0.04883 -2.3242,-0.14648l-0.37109,-1.8359l0.41992,0.0293c0.84633,0.0586 1.43553,0.0879 1.7676,0.0879c0.24089,0 0.38412,-0.05208 0.42969,-0.15625c0.03907,-0.07813 0.0586,-0.19857 0.0586,-0.36133v-5.7227h-7.4805v-1.6602h10.723v1.6602h-1.3379zM269.60445,173.077v4.9024c0,0.50781 -0.10091,0.86261 -0.30274,1.0644c-0.21484,0.21484 -0.59894,0.32226 -1.1523,0.32226c-0.48177,0 -1.07747,-0.04232 -1.7871,-0.12695l-0.18555,-0.99609h-4.6094v-4.1406h5.0586v3.6035c0.32552,0.02607 0.58594,0.0391 0.78125,0.0391c0.24089,0 0.36133,-0.12044 0.36133,-0.36133v-4.3066h-7.1387v-1.6797h10.234v1.6797zM263.22745,175.4598v1.4062h1.8164v-1.4062zM266.70405,182.5204v4.3164h-3.4766v1.1816h-1.7188v-5.498zM263.22745,183.8778v1.5625h1.8359v-1.5625z" fill="#ffffff" stroke-width="1"/><path d="M291.04,185.42h4.9219v-10.742h2.2168v14.658h-2.2168v-1.7969h-11.943v1.7969h-2.1973v-14.658h2.1973v10.742h4.8047v-14.727h2.2168z" fill="#ffffff" stroke-width="1"/><path d="M316.76,170.98v9.4629h-11.621v-9.4629zM307.2385,172.523v1.2207h7.4023v-1.2207zM307.2385,175.1207v1.2207h7.4023v-1.2207zM307.2385,177.7183v1.2598h7.4023v-1.2598zM303.3029,181.7417h16.191v1.6992h-8.0762v6.0644h-2.2168v-6.0644h-8.0371v-10.957h2.1387zM300.8029,187.6401c1.54947,-0.71613 3.0306,-1.9173 4.4434,-3.6035l1.7969,1.0449c-1.3932,1.76433 -2.93943,3.15107 -4.6387,4.1602zM317.6389,188.8999c-0.99607,-1.22393 -2.49347,-2.50973 -4.4922,-3.8574l1.6797,-1.1816c1.569,0.90493 3.1087,2.09307 4.6191,3.5644z" fill="#ffffff" stroke-width="1"/><path d="M328.92,182.24h-4.043v-1.6016h1.9531c-0.29297,-0.66407 -0.625,-1.28257 -0.99609,-1.8555l1.7578,-0.64453c0.50781,0.85287 0.91798,1.6862 1.2305,2.5h2.2949c0.38411,-0.78773 0.72265,-1.6341 1.0156,-2.5391l1.9629,0.61524c-0.33203,0.71613 -0.6836,1.3574 -1.0547,1.9238h2.0996v1.6016h-4.1797v1.4258h4.4531v1.6602h-4.4531v3.6914h-2.041v-3.6914h-4.2871v-1.6602h4.2871zM331.0196,176.2244h7.4024v11.416c0,0.6706 -0.17904,1.1426 -0.53711,1.416c-0.29948,0.23438 -0.80405,0.35157 -1.5137,0.35157c-0.918,0 -1.8034,-0.04883 -2.6562,-0.14649l-0.47852,-1.9629c1.13933,0.13672 1.9922,0.20508 2.5586,0.20508c0.23437,0 0.37109,-0.05859 0.41015,-0.17578c0.02607,-0.07161 0.0391,-0.17253 0.0391,-0.30274v-9.1016h-12.48v11.582h-2.1777v-13.281h7.2754v-1.7676h-8.3594v-1.8164h8.3594v-2.1387h2.1582v2.1387h8.4766v1.8164h-8.4766z" fill="#ffffff" stroke-width="1"/><path d="M349.48,175.76c-0.0456,1.08727 -0.1107,2.0443 -0.19531,2.8711h7.8711c-0.09765,4.51827 -0.35156,7.4512 -0.76172,8.7988c-0.20833,0.67707 -0.5957,1.1458 -1.1621,1.4062c-0.44271,0.20182 -1.09051,0.30273 -1.9434,0.30273c-0.89847,0 -1.91733,-0.06836 -3.0566,-0.20507l-0.38085,-2.1973c1.52993,0.21485 2.6074,0.32227 3.2324,0.32227c0.52734,0 0.86264,-0.14974 1.0059,-0.44922c0.34505,-0.7292 0.58593,-2.74093 0.72265,-6.0352h-5.8105c-0.21485,1.17187 -0.51758,2.1875 -0.90821,3.0469c-1.08727,2.37627 -2.90367,4.26103 -5.4492,5.6543l-1.543,-1.7188c2.55207,-1.32813 4.23827,-3.06967 5.0586,-5.2246c0.54687,-1.4388 0.90167,-3.62957 1.0644,-6.5723h-6.4648v-2.002h7.9785v-3.2617h2.2559v3.2617h8.2422v2.002z" fill="#ffffff" stroke-width="1"/><path d="M371.58,174.14v-3.6426h2.0996v3.6426h5.293v8.8379h-5.293v6.5234h-2.0996v-6.5234h-5.1856v-8.8379zM368.4159,176.0834v4.9707h3.1641v-4.9707zM376.8925,181.0541v-4.9707h-3.2129v4.9707zM364.3925,175.2729c-0.79427,-1.1068 -1.8457,-2.16473 -3.1543,-3.1738l1.4551,-1.4844c1.30207,0.918 2.40233,1.94663 3.3008,3.0859zM363.75774,180.2924c-1.1328,-1.31513 -2.23307,-2.3926 -3.3008,-3.2324l1.5039,-1.5039c1.13933,0.8008 2.26563,1.83597 3.3789,3.1055zM360.72064,187.8608c1.25,-1.77733 2.40233,-3.99087 3.457,-6.6406l1.7383,1.3379c-0.89193,2.4414 -1.97917,4.73957 -3.2617,6.8945z" fill="#ffffff" stroke-width="1"/></g></g></svg>