<?xml version="1.0" encoding="UTF-8"?>
<svg width="480" height="360" version="1.1" viewBox="0 0 480 360" xmlns="http://www.w3.org/2000/svg">
 <g dominant-baseline="central" fill="#fff" aria-label="石狩湾">
  <path d="m246.66 178.9h11.152v10.605h-2.2559v-1.3476h-9.4043v1.3476h-2.2168v-7.2266q-1.2109 1.2012-2.5977 2.2949l-1.2012-1.875q2.6758-1.8652 4.5508-4.6387 1.4551-2.1582 2.2754-4.4727h-5.9863v-1.9434h18.125v1.9434h-9.7461q-1.0449 2.8223-2.6953 5.3125zm-0.50782 1.9043v5.4102h9.4043v-5.4102z" dominant-baseline="central"/>
  <path d="m264.57 180.62q-1.4453 2.9492-3.1445 4.668l-1.1426-1.7578q2.0606-1.9922 3.9648-5.8789-0.10743-0.5957-0.27344-1.1621-1.1133 1.1621-2.6465 2.4023l-1.084-1.7383q1.6894-1.1816 2.9883-2.5976-0.75195-1.4551-2.0508-2.6465l1.4648-1.0352q1.1719 0.94726 1.8945 2.0312 0.80078-1.1914 1.4062-2.334l1.7383 1.084q-1.1524 1.8555-2.1777 3.0957 1.2305 2.9688 1.2305 8.9551 0 2.8613-0.50781 4.248-0.30274 0.83985-0.88867 1.1816-0.47852 0.27344-1.3379 0.27344-1.1524 0-2.1387-0.21484l-0.34179-2.0996q1.0254 0.27344 1.9141 0.27344 0.61523 0 0.79102-0.3125 0.42968-0.75196 0.42968-3.8477 0-1.0938-0.0586-2.1582-0.0195-0.28321-0.0293-0.42969zm9.5312-7.627h5.1465v4.3555h-2.0215v-2.5977h-7.9785v2.5977h-2.0215v-4.3555h4.7754v-2.5391h2.0996zm2.5586 5.5762h2.8809v1.7773h-2.8809v7.1875q0 1.0742-0.54688 1.4648-0.45898 0.33203-1.5918 0.33203-0.63476 0-2.2559-0.0977l-0.44921-0.0195-0.41993-2.0801q1.6406 0.20508 2.7246 0.20508 0.36133 0 0.44922-0.17578 0.0684-0.14649 0.0684-0.54688v-6.2695h-7.7246v-1.7773h7.7246v-2.4609h2.0215zm-5.9961 7.5586q-1.0156-2.2656-2.4219-4.1113l1.7773-1.0059q1.2891 1.377 2.5684 3.9258z" dominant-baseline="central"/>
  <path d="m295.09 173.8v3.7793q0 0.64454-0.27344 0.94727-0.32226 0.35156-1.4258 0.35156-1.0547 0-1.7285-0.11718l-0.25391-1.6211q0.77148 0.15625 1.2988 0.15625 0.2832 0 0.36133-0.13672 0.0586-0.11718 0.0586-0.38086v-2.9785h-1.7383q-0.0781 2.0605-0.54688 3.1641-0.51757 1.2012-2.1387 2.1973l-1.3965-1.2402q1.4648-0.76172 1.8848-1.9629 0.25391-0.75195 0.3125-2.1582h-3.8574v-1.6602h5.5566v-1.6406h2.1484v1.6406h6.1328v1.6602zm3.0176 5.5371v3.9648h-9.6387q-0.0781 0.53711-0.18555 1.0742h10.664q-0.24414 2.6856-0.67383 3.6816-0.625 1.4453-2.9297 1.4453-1.9141 0-4.1113-0.16601l-0.36133-1.7774q2.0996 0.22461 3.7598 0.22461 0.89843 0 1.1816-0.20508 0.43945-0.32226 0.68359-1.6797h-8.5938q-0.10742 0.40039-0.37109 1.2012l-2.0996-0.41992q0.74218-2.2266 1.1133-4.8145h9.4238v-1.0449h-10v-1.4844zm-14.365-4.3164q-1.084-1.5039-2.7734-2.9785l1.4551-1.3867q1.5332 1.123 2.8809 2.8613zm-0.5957 5.0391q-1.5039-1.9043-2.9199-3.1055l1.4648-1.416q1.4648 1.123 3.0176 2.9004zm-2.5195 7.9004q1.7188-2.6758 3.2617-6.8652l1.6016 1.1816q-1.2793 3.877-3.0664 7.2461zm17.402-9.3652q-1.2793-2.0703-2.6855-3.5742l1.4844-0.95703q1.7188 1.5625 2.7832 3.418zm-13.662-1.1719q1.4258-1.1719 2.3438-3.1055l1.7774 0.66406q-0.95703 2.1777-2.6465 3.6328z" dominant-baseline="central"/>
 </g>
</svg>
