<svg version="1.1" xmlns="http://www.w3.org/2000/svg" xmlns:xlink="http://www.w3.org/1999/xlink" width="79.99682" height="43.73822" viewBox="0,0,79.99682,43.73822"><g transform="translate(-525.93351,-7.75335)"><g data-paper-data="{&quot;isPaintingLayer&quot;:true}" fill="#ff0000" fill-rule="evenodd" stroke="none" stroke-width="0" stroke-linecap="round" stroke-linejoin="round" stroke-miterlimit="10" stroke-dasharray="" stroke-dashoffset="0" style="mix-blend-mode: normal"><path d="M593.5208,9.82326l0.70997,2.62989l0.80997,1.40994l1.31995,1.66993l0.90996,0.75997l0.35999,1.07996l-0.38998,0.81997l0.34999,2.5599l-0.25999,0.65997l1.23995,1.71993l-0.14999,0.93996l0.76997,0.76997l0.48998,1.90992l0.86997,1.58994l1.43994,1.04996l1.09996,2.04992l1.79993,2.87988l1.03996,3.49986l-1.02996,2.4899l-0.19999,2.4299l0.34999,0.60998l-0.29999,2.82989l0.52998,1.68993l-1.65993,0.18999l-0.58998,-0.53998l0.52998,-1.01996l-0.57998,-0.42998l-1.81993,0.63997l-1.45994,-1.06996l-1.18995,0.91996l-1.27995,-1.84993l-2.08992,0.37998l-1.31995,-0.36999l-0.73997,-1.05996l-2.09992,0.82997l0.99996,1.56994l-0.57998,1.29995l-1.71993,0.77997l-0.38998,-1.16995l-2.4699,-0.24999l-1.29995,-0.88996l-4.27983,-0.12l-1.27995,0.30999l-0.12,0.59998l-1.48994,1.48994l-0.14999,1.70993l-1.85993,-0.99996l-1.55994,-0.42998l-0.65997,0.89996l-1.93992,1.17995l-1.55994,1.01996l0.06,-2.5399l-0.47998,-0.71997l0.08,-1.03996l-0.61998,-0.30999l0.95996,-1.46994l-0.54998,-0.56998l-1.23995,1.61994l-2.25991,1.39994l-2.71989,0.34999l-0.82997,0.80997l-2.6199,0.82997l-2.5399,0.09l-1.46994,-0.39998l-0.63997,0.58998l-1.82993,-0.24999l-0.01,-1.51994l-1.01996,-0.33999l-0.12,-1.07996l-1.83993,-0.38998l-0.35999,-0.36999l-1.62993,0.34999l-0.81997,-0.73997l-0.71997,-1.80993l0.12,-1.15995l-1.35995,-0.05l-0.13999,-1.33995l-1.93992,-0.55998l-2.12991,0.42998l-0.81997,-0.27999l-1.97992,0.19999l-1.98992,-1.22995l-0.94996,0.66997l-1.06996,0.11l-1.79993,-0.98996l-1.11996,-0.32999l-0.37998,-0.74997l-2.3999,-1.02996l-2.36991,0.09l-1.13995,-0.30999l0.77997,-0.67997l0.24999,-1.14995l1.01996,-1.64993l-0.87996,-1.53994l0.05,-1.46994l-0.96996,-0.93996l1.38994,-0.41998l2.70989,-1.38994l1.87992,-0.47998l0.54998,-0.45998l1.04996,-2.4799l2.28991,0.48998l1.13995,1.14995l1.76993,-2.22991l2.92988,-1.47994l1.17995,0.18999l1.07996,-0.85997l1.87992,0.81997l2.03992,2.5199l1.76993,0.30999l1.91992,-1.75993l2.04992,-0.59998l2.5299,-0.47998l3.00988,-2.25991l2.00992,-0.16999l0.04,-0.58998l1.52994,-1.01996l0.88996,-0.20999l1.93992,0.60998l1.25995,-2.4299l1.14995,-0.19999l-0.20999,-1.41994l1.23995,-0.49998l1.33995,0.91996l0.70997,-0.03l3.34987,1.91992l2.02992,-1.36995l0.67997,-1.18995l0.60998,0.59998l3.12987,0.80997l2.01992,-0.74997l1.27995,0.12999l0.01,-1.78993l1.42994,-0.02l1.04996,-1.40994l-0.11,-0.65997l-1.15995,-0.29999l-0.54998,-0.89996l0.88996,-1.69993l2.00992,-0.37998l0.68997,-0.79997l0.12,2.14991l0.34999,0.44998l1.49994,-0.07l1.89992,0.81997l1.03996,-1.27995"/></g></g></svg>