<svg version="1.1" xmlns="http://www.w3.org/2000/svg" xmlns:xlink="http://www.w3.org/1999/xlink" width="224.00001" height="224" viewBox="0,0,224.00001,224"><defs><linearGradient x1="128" y1="212" x2="128" y2="228" gradientUnits="userSpaceOnUse" id="color-1"><stop offset="0" stop-color="#000000" stop-opacity="0.1"/><stop offset="1" stop-color="#000000" stop-opacity="0"/></linearGradient></defs><g transform="translate(-128,-180)"><g data-paper-data="{&quot;isPaintingLayer&quot;:true}" stroke="none" stroke-miterlimit="10" stroke-dasharray="" stroke-dashoffset="0" style="mix-blend-mode: normal"><path d="M138,211h204l10,1v182c0,5.54 -4.46,10 -10,10h-204c-5.54,0 -10,-4.46 -10,-10v-182z" fill="#1d2a41" fill-rule="nonzero" stroke-width="3" stroke-linecap="round" stroke-linejoin="round"/><g fill-rule="evenodd"><path d="M128.00001,228v-16h224v16z" fill="url(#color-1)" stroke-width="12" stroke-linecap="round" stroke-linejoin="round" opacity="0.80769"/><path d="M138,180h204c5.54,0 10,4.46 10,10v22h-224v-22c0,-5.54 4.46,-10 10,-10z" fill="#31476d" stroke-width="1" stroke-linecap="butt" stroke-linejoin="miter"/><path d="M336,256c0.55228,0 1,0.44772 1,1c0,0.55228 -0.44772,1 -1,1h-192c-0.55228,0 -1,-0.44772 -1,-1c0,-0.55228 0.44772,-1 1,-1z" fill="#31476d" stroke-width="1" stroke-linecap="butt" stroke-linejoin="miter"/><g fill="#7d97b4" stroke-width="1" stroke-linecap="butt" stroke-linejoin="miter"><path d="M143,257c0,-0.55228 0.44772,-1 1,-1c0.55228,0 1,0.44772 1,1c0,0.55228 -0.44772,1 -1,1c-0.55228,0 -1,-0.44772 -1,-1z"/><path d="M335,257c0,-0.55228 0.44772,-1 1,-1c0.55228,0 1,0.44772 1,1c0,0.55228 -0.44772,1 -1,1c-0.55228,0 -1,-0.44772 -1,-1z"/><path d="M239,257c0,-0.55228 0.44772,-1 1,-1c0.55228,0 1,0.44772 1,1c0,0.55228 -0.44772,1 -1,1c-0.55228,0 -1,-0.44772 -1,-1z"/><path d="M271,257c0,-0.55228 0.44772,-1 1,-1c0.55228,0 1,0.44772 1,1c0,0.55228 -0.44772,1 -1,1c-0.55228,0 -1,-0.44772 -1,-1z"/><path d="M175,257c0,-0.55228 0.44772,-1 1,-1c0.55228,0 1,0.44772 1,1c0,0.55228 -0.44772,1 -1,1c-0.55228,0 -1,-0.44772 -1,-1z"/><path d="M303,257c0,-0.55228 0.44772,-1 1,-1c0.55228,0 1,0.44772 1,1c0,0.55228 -0.44772,1 -1,1c-0.55228,0 -1,-0.44772 -1,-1z"/><path d="M207,257c0,-0.55228 0.44772,-1 1,-1c0.55228,0 1,0.44772 1,1c0,0.55228 -0.44772,1 -1,1c-0.55228,0 -1,-0.44772 -1,-1z"/></g></g><g fill="#ffffff" fill-rule="nonzero" stroke-width="1" stroke-linecap="butt"><path d="M141.17578,369.9228h1.59277v10.24707c0.85221,-0.27343 1.611,-0.59016 2.27637,-0.95019c1.86849,-1.00717 3.42025,-2.29005 4.65527,-3.84864c0.36458,-0.46029 0.71322,-0.98893 1.0459,-1.58593l1.01172,1.42871c-0.94792,1.472 -2.14421,2.75716 -3.58887,3.85547c-1.75911,1.33529 -3.76432,2.32422 -6.01562,2.96679l-0.97754,-0.95703zM157.94434,381.97456v-7.01367c-1.38542,0.92969 -2.9668,1.71354 -4.74414,2.35156l-0.82715,-1.3877c2.01888,-0.67903 3.78939,-1.55403 5.31152,-2.625c1.49479,-1.05273 2.82552,-2.25814 3.99219,-3.61621l1.31934,0.82715c-1.03451,1.18945 -2.1875,2.28093 -3.45899,3.27442v8.18945zM168.38965,369.66987l0.5332,2.95313l6.37109,-1.00489l0.99121,0.62891c-0.63802,2.59765 -1.72038,4.60058 -3.24707,6.00879l-1.2168,-0.98438c0.89323,-0.78385 1.59277,-1.69759 2.09863,-2.74121c0.23242,-0.4694 0.39648,-0.94108 0.49219,-1.41504l-5.25,0.86817l1.3877,7.7998l-1.53809,0.28028l-1.3877,-7.81348l-3.47266,0.57422l-0.25293,-1.41504l3.47266,-0.54688l-0.51953,-2.9121zM177.53614,374.91987h12.03809v1.53809h-12.03809zM199.81446,371.64546c-0.1276,2.85286 -0.45345,5.04492 -0.97754,6.57617c-0.55143,1.62239 -1.62012,3.02376 -3.20606,4.2041l-1.18945,-1.10742c1.3125,-0.86133 2.23763,-1.89355 2.77539,-3.09668c0.62891,-1.39453 0.99805,-3.58659 1.10742,-6.57617h-2.57715v-1.41504h7.65625c-0.04557,5.53711 -0.18913,9.0485 -0.43066,10.53418c-0.08203,0.50586 -0.23926,0.88184 -0.47168,1.12793c-0.27344,0.29167 -0.74056,0.4375 -1.40137,0.4375c-0.79297,0 -1.49935,-0.04329 -2.11914,-0.12988l-0.30762,-1.49708c0.9707,0.14128 1.65202,0.21192 2.04394,0.21192c0.3418,0 0.55827,-0.13216 0.64941,-0.39649c0.11393,-0.32357 0.21647,-1.15071 0.30762,-2.48144c0.10482,-1.47201 0.1709,-3.38607 0.19824,-5.74219l0.0068,-0.64941zM193.56641,374.08589v3.54101c0,0.19141 0.05469,0.31445 0.16406,0.36914c0.06836,0.03193 0.26204,0.0479 0.58105,0.0479c0.35547,0 0.58789,-0.0205 0.69727,-0.0615c0.12305,-0.05013 0.2028,-0.18229 0.23926,-0.39648c0.04101,-0.23698 0.08203,-0.75195 0.12305,-1.54492l1.38769,0.38964c-0.05469,1.31706 -0.21647,2.14649 -0.48535,2.48829c-0.28255,0.36002 -0.9502,0.54003 -2.00293,0.54003c-0.81576,0 -1.3763,-0.07519 -1.68164,-0.22558c-0.32812,-0.15951 -0.49219,-0.4808 -0.49219,-0.96387v-3.94433l-1.53809,0.24609l-0.1709,-1.36035l1.70898,-0.2666v-3.66407h1.46973v3.43848l3.0625,-0.48535l0.11621,1.34668zM209.91114,375.54878c-0.45573,0.85221 -0.92285,1.49251 -1.40137,1.9209c-0.41016,0.36914 -0.78613,0.55371 -1.12793,0.55371c-0.4375,0 -0.79069,-0.29622 -1.05957,-0.88867c-0.278,-0.61979 -0.41699,-1.5905 -0.41699,-2.91211c0,-1.33073 0.15495,-2.77312 0.46484,-4.32715l1.49707,0.22558c-0.30078,1.54037 -0.45117,2.84375 -0.45117,3.91016c0,1.43555 0.10254,2.15332 0.30762,2.15332c0.07747,0 0.20964,-0.10937 0.39648,-0.32812c0.29167,-0.32813 0.59928,-0.8112 0.92285,-1.44922zM208.87208,380.90132c1.39909,-0.39193 2.4541,-0.97754 3.16504,-1.75684c0.87044,-0.95247 1.30566,-2.39258 1.30566,-4.32031c0,-1.46289 -0.14128,-3.1058 -0.42383,-4.92871l1.56543,-0.15039c0.30078,1.84115 0.45117,3.55697 0.45117,5.14746c0,2.57943 -0.66309,4.43652 -1.98926,5.57129c-0.80664,0.69271 -1.89355,1.26692 -3.26074,1.72265zM224.28712,376.19819l-0.74512,-0.85449c1.19401,-0.36003 1.98014,-0.95703 2.3584,-1.79102h-1.83887v-1.16211h2.03027v-0.88183h-1.85254v-1.14844h1.85254v-1.08008h1.4082v1.08008h2.48145v1.14844h-2.48145v0.88183h2.87109v1.16211h-2.29687c0.59245,0.7474 1.47428,1.35808 2.64551,1.83204l-0.81348,1.13476c-1.28972,-0.66537 -2.24447,-1.48112 -2.86426,-2.44726c-0.41927,0.97526 -1.20312,1.68392 -2.35156,2.12597h4.38184v6.38477h-1.5586v-0.74512h-7.28711v0.74512h-1.52441v-6.06348c-0.16862,0.08659 -0.41243,0.19824 -0.73145,0.33496l-0.89551,-1.14844c1.35807,-0.38281 2.29232,-1.10058 2.80273,-2.15332h-2.49512v-1.16211h2.74121v-0.88183h-2.35156v-1.14844h2.35156v-1.08008h1.40137v1.08008h1.9209v1.14844h-1.9209v0.88183h2.07129v1.16211h-2.33105c-0.00911,0.03193 -0.01823,0.06157 -0.02734,0.0889c0.78385,0.30534 1.60189,0.73828 2.4541,1.29883l-1.01855,0.97754c-0.55143,-0.45117 -1.17578,-0.87728 -1.87305,-1.27832c-0.36458,0.60156 -0.88184,1.12109 -1.55176,1.55859zM220.22657,377.34663v1.07324h7.28711v-1.07324zM220.22657,379.48628v1.16211h7.28711v-1.16211zM232.75001,372.99214h7.71777l0.61524,1.01172l-0.28028,0.20507c-1.77734,1.33985 -3.03743,2.3265 -3.78027,2.95997c0.51953,-0.25065 0.95703,-0.37598 1.3125,-0.37598c0.46029,0 0.78841,0.1595 0.98438,0.47851c0.11393,0.17774 0.17089,0.39193 0.17089,0.64258c0,0.07747 -0.00683,0.18913 -0.0205,0.33496c-0.07292,0.70183 -0.10938,1.22136 -0.10938,1.5586c0,0.33724 0.12988,0.53776 0.38965,0.60156c0.20508,0.05013 0.58561,0.0752 1.1416,0.0752c0.72461,0 1.51075,-0.05013 2.3584,-0.15039l0.12305,1.45606c-0.85677,0.07291 -1.74317,0.10937 -2.65918,0.10937c-0.98438,0 -1.64747,-0.06608 -1.98926,-0.19824c-0.57422,-0.21875 -0.86133,-0.70182 -0.86133,-1.44922c0,-0.72005 0.0319,-1.31478 0.0957,-1.78418c0.00467,-0.03647 0.007,-0.0752 0.007,-0.11621c0,-0.31901 -0.16178,-0.47851 -0.48535,-0.47851c-0.875,0 -2.61133,1.39225 -5.20899,4.17675l-1.07324,-1.17578c2.62956,-2.51107 5.10189,-4.68034 7.41699,-6.50781h-5.86539zM239.9756,372.23335c-1.75912,-0.53776 -3.73699,-1.00488 -5.9336,-1.40137l0.44434,-1.27148c2.17383,0.33268 4.16308,0.78157 5.96777,1.34668zM250.07228,369.6562h1.53808v2.52246h5.1543v1.37402h-5.1543v8.57911h-1.53808v-8.57911h-5.04493v-1.37402h5.04493zM244.62403,380.16987c1.00717,-1.31705 1.68393,-3.03743 2.03028,-5.16113l1.49707,0.40332c-0.41927,2.46094 -1.1416,4.39779 -2.16699,5.81055zM255.78028,381.03804c-1.02539,-1.54037 -1.87304,-3.45671 -2.54297,-5.74903l1.46973,-0.49219c0.55599,1.90495 1.37631,3.6823 2.46094,5.33204zM254.84376,371.77534c-0.24609,-0.71549 -0.66992,-1.50163 -1.27148,-2.3584l1.10058,-0.32129c0.51497,0.73828 0.94108,1.51758 1.27832,2.33789zM256.80567,371.59077c-0.32812,-0.87956 -0.74511,-1.66797 -1.25097,-2.36523l1.03906,-0.28028c0.48763,0.60612 0.91146,1.35807 1.27148,2.25586zM268.70704,371.11225l0.97754,0.79981c-0.63802,2.91667 -1.67253,5.1748 -3.10352,6.77441c-0.79297,0.88412 -1.81836,1.65886 -3.07617,2.32422c-0.89323,0.4694 -1.85254,0.8431 -2.87793,1.1211l-0.79297,-1.34668c2.34245,-0.61068 4.16081,-1.58594 5.45508,-2.92579c-1.06641,-0.95703 -2.24219,-1.80468 -3.52734,-2.54296l0.89551,-1.10743c1.25325,0.65169 2.44498,1.45378 3.57519,2.40625c0.88867,-1.42187 1.44694,-2.79817 1.67481,-4.1289h-4.8125c-1.10287,1.7181 -2.4017,3.03288 -3.89649,3.94433l-1.00488,-1.08691c1.44466,-0.87044 2.63183,-2.02116 3.56152,-3.45215c0.47852,-0.72917 0.84994,-1.5153 1.11426,-2.3584l1.4834,0.36231c-0.15039,0.41015 -0.31901,0.81575 -0.50586,1.21679zM276.19239,373.38179c-1.4401,-0.64258 -2.93717,-1.15756 -4.49121,-1.54493l0.47852,-1.46972c1.80013,0.41015 3.31087,0.92057 4.53222,1.53125zM271.87208,380.18354c2.25586,-0.19141 3.98307,-0.59473 5.18164,-1.20996c1.41276,-0.72917 2.4974,-1.84798 3.25391,-3.35644c0.49219,-0.97526 0.89095,-2.2513 1.19629,-3.82813l1.3125,0.96387c-0.36914,1.6862 -0.81576,3.02604 -1.33985,4.01953c-0.94791,1.80925 -2.39713,3.11947 -4.34765,3.93066c-1.23047,0.51042 -2.87566,0.875 -4.93555,1.09375z" stroke-linejoin="miter"/><path d="M145.76953,333.6562h1.53809v2.52246h5.1543v1.37402h-5.1543v8.57911h-1.53809v-8.57911h-5.04492v-1.37402h5.04492zM140.32129,344.16987c1.00716,-1.31705 1.68392,-3.03743 2.03027,-5.16113l1.49707,0.40332c-0.41927,2.46094 -1.1416,4.39779 -2.16699,5.81055zM151.47754,345.03804c-1.02539,-1.54037 -1.87305,-3.45671 -2.54297,-5.74903l1.46973,-0.49219c0.55599,1.90495 1.3763,3.6823 2.46094,5.33204zM150.54101,335.77534c-0.24609,-0.71549 -0.66992,-1.50163 -1.27148,-2.3584l1.10059,-0.32129c0.51497,0.73828 0.94108,1.51758 1.27832,2.33789zM152.50293,335.59077c-0.32813,-0.87956 -0.74512,-1.66797 -1.25098,-2.36523l1.03906,-0.28028c0.48763,0.60612 0.91146,1.35807 1.27148,2.25586zM164.4043,335.11225l0.97754,0.79981c-0.63802,2.91667 -1.67253,5.1748 -3.10352,6.77441c-0.79297,0.88412 -1.81836,1.65886 -3.07617,2.32422c-0.89323,0.4694 -1.85254,0.8431 -2.87793,1.1211l-0.79297,-1.34668c2.34245,-0.61068 4.16081,-1.58594 5.45508,-2.92579c-1.06641,-0.95703 -2.24219,-1.80468 -3.52734,-2.54296l0.89551,-1.10743c1.25326,0.65169 2.44499,1.45378 3.5752,2.40625c0.88867,-1.42187 1.44694,-2.79817 1.6748,-4.1289h-4.8125c-1.10286,1.7181 -2.40169,3.03288 -3.89648,3.94433l-1.00488,-1.08691c1.44466,-0.87044 2.63184,-2.02116 3.56152,-3.45215c0.47852,-0.72917 0.84994,-1.5153 1.11426,-2.3584l1.4834,0.36231c-0.15039,0.41015 -0.31901,0.81575 -0.50586,1.21679zM171.88965,337.38179c-1.4401,-0.64258 -2.93717,-1.15756 -4.49121,-1.54493l0.47852,-1.46972c1.80013,0.41015 3.31087,0.92057 4.53223,1.53125zM167.56934,344.18354c2.25586,-0.19141 3.98307,-0.59473 5.18164,-1.20996c1.41276,-0.72917 2.4974,-1.84798 3.25391,-3.35644c0.49219,-0.97526 0.89095,-2.2513 1.19629,-3.82813l1.3125,0.96387c-0.36914,1.6862 -0.81576,3.02604 -1.33984,4.01953c-0.94792,1.80925 -2.39714,3.11947 -4.34766,3.93066c-1.23047,0.51042 -2.87565,0.875 -4.93555,1.09375zM180.75586,335.20112h3.68457c0.4056,-0.64713 0.71322,-1.16894 0.92285,-1.56543l1.52441,0.21875c-0.13672,0.24609 -0.37826,0.64714 -0.72461,1.20313l-0.08887,0.14355h4.81934v1.34668h-5.72852c-0.59701,0.82031 -1.16667,1.53125 -1.70898,2.13281c0.86133,-0.51497 1.64746,-0.77246 2.3584,-0.77246c1.10286,0 1.8252,0.55371 2.16699,1.66114c1.16667,-0.38737 2.35612,-0.77019 3.56836,-1.14844l0.58789,1.32617l-0.23926,0.0684l-0.67676,0.17773c-1.27604,0.34636 -2.29688,0.64259 -3.0625,0.88868c0.05469,0.59245 0.09342,1.35807 0.11621,2.29687l-1.49707,0.082c-0.00453,-0.54231 -0.01365,-1.1302 -0.02734,-1.76367v-0.13672c-2.09635,0.71549 -3.14453,1.43555 -3.14453,2.16016c0,0.37369 0.26888,0.6289 0.80664,0.76562c0.51953,0.13216 1.44922,0.19824 2.78906,0.19824c1.23503,0 2.53158,-0.07064 3.88965,-0.21191l0.16406,1.45606c-1.31706,0.10026 -2.68197,0.15039 -4.09473,0.15039c-1.74089,0 -2.97819,-0.13216 -3.71191,-0.39649c-0.9069,-0.32813 -1.36035,-0.9183 -1.36035,-1.77051c0,-0.72005 0.32129,-1.35579 0.96387,-1.90722c0.66536,-0.56966 1.83659,-1.15755 3.51367,-1.76367c-0.09115,-0.35091 -0.21191,-0.59701 -0.3623,-0.73829c-0.16862,-0.1595 -0.39193,-0.23925 -0.66992,-0.23925c-0.45117,0 -1.01855,0.1709 -1.70215,0.51269c-0.8431,0.41927 -1.74772,1.05046 -2.71387,1.89356l-0.90918,-1.03907c1.41732,-1.31705 2.52702,-2.61132 3.3291,-3.88281h-2.78223zM198.70703,335.16692c0.21419,-0.58333 0.39421,-1.21224 0.54004,-1.88672l1.75,0.28028c-0.18685,0.54687 -0.39876,1.08235 -0.63574,1.60644h5.01758v11.41602h-1.55176v-0.97071h-7.23926v0.97071h-1.52441v-11.41602zM196.58789,336.45208v1.77051h7.23926v-1.77051zM196.58789,339.43938v1.75h7.23926v-1.75zM196.58789,342.39251v1.9209h7.23926v-1.9209zM216.68555,336.17864l0.06836,-2.89844h1.37402l-0.06152,2.89844h2.59082c-0.04557,5.09505 -0.23698,8.18034 -0.57422,9.25586c-0.14583,0.46485 -0.41016,0.76107 -0.79297,0.88867c-0.19596,0.06836 -0.48763,0.10254 -0.875,0.10254c-0.50586,0 -0.98437,-0.0319 -1.43555,-0.0957l-0.2666,-1.44238c0.52409,0.10026 0.98665,0.15039 1.3877,0.15039c0.32357,0 0.53092,-0.08887 0.62207,-0.26661c0.08659,-0.17317 0.1709,-0.59244 0.25293,-1.25781c0.16406,-1.32161 0.26888,-3.20377 0.31445,-5.64648l0.0068,-0.3418h-1.31934c-0.07747,2.02344 -0.31901,3.70052 -0.72461,5.03125c-0.49675,1.62239 -1.27376,2.96907 -2.33106,4.04004l-1.12109,-0.86816c0.22331,-0.20964 0.40332,-0.39649 0.54004,-0.56055c-2.27865,0.41471 -4.46159,0.72233 -6.54883,0.92285l-0.30762,-1.29199c1.13477,-0.06836 2.21256,-0.15267 3.2334,-0.25293v-0.9502h-2.93942v-1.08008h2.93945v-0.77929h-2.61816v-4.49121h2.61816v-0.75879h-3.15137v-1.06641h3.15137v-0.6084c-0.68815,0.06836 -1.472,0.12761 -2.35156,0.17774l-0.49219,-1.05274c2.1875,-0.09115 4.1403,-0.32812 5.8584,-0.71093l0.7793,0.99121c-0.74284,0.18685 -1.55859,0.33496 -2.44727,0.44433v0.75879h3.0625v0.75879zM216.62403,337.52532h-1.52441v-1.03906h-3.03516v0.75879h2.65918v4.49121h-2.65918v0.77929h2.83008v1.08008h-2.83008v0.81348l0.57422,-0.0547c0.76562,-0.07747 1.59277,-0.1914 2.48144,-0.34179c0.85677,-1.56315 1.35352,-3.66407 1.49024,-6.30274zM210.75879,338.1679h-1.4834v0.86816h1.4834zM212.02344,338.1679v0.86816h1.52442v-0.86816zM210.75879,339.87688h-1.4834v0.93653h1.4834zM212.02344,339.87688v0.93653h1.52442v-0.93653zM222.01758,334.94134c4.1927,-0.0638 8.15527,-0.1709 11.88769,-0.32129l0.082,1.36035c-1.64518,0.08203 -2.92578,0.33268 -3.84179,0.75195c-0.875,0.40104 -1.57682,0.95703 -2.10547,1.66797c-0.60156,0.80664 -0.90234,1.70443 -0.90234,2.69336c0,0.98437 0.3418,1.72265 1.02539,2.21484c0.78385,0.56055 1.98698,0.94564 3.60937,1.15528l-0.32129,1.53808c-2.11458,-0.28255 -3.60253,-0.82943 -4.46386,-1.64062c-0.92513,-0.86589 -1.3877,-1.94141 -1.3877,-3.22656c0,-1.16667 0.41927,-2.25586 1.25781,-3.26758c0.61068,-0.74284 1.44694,-1.33985 2.50878,-1.79102c-1.88216,0.0638 -4.30891,0.1709 -7.28027,0.32129zM231.95703,340.84075c-0.26888,-0.71549 -0.72233,-1.52669 -1.36035,-2.43359l1.06641,-0.39649c0.56966,0.78385 1.02767,1.58594 1.37402,2.40625zM233.80273,340.12298c-0.32357,-0.83855 -0.77474,-1.6543 -1.35351,-2.44727l1.01855,-0.3623c0.53321,0.64713 0.98666,1.43099 1.36036,2.35156zM247.83008,337.24505v4.74414h-3.45899c0.43295,0.44661 0.8431,0.99349 1.23047,1.64062l-1.11426,0.72461c-0.34635,-0.66081 -0.79069,-1.31478 -1.333,-1.96191l0.77246,-0.40332h-3.62988v-1.03906h6.07714v-0.88184h-5.68066v-0.9502h5.68066v-0.84765h-6.0498v-1.02539h1.12109c-0.14583,-0.34635 -0.37142,-0.75651 -0.67676,-1.23047c-0.05927,-0.09115 -0.11395,-0.17774 -0.16406,-0.25977l1.2168,-0.44433c0.36914,0.47395 0.67448,0.98893 0.91601,1.54492l-0.90917,0.38965h3.49316c0.44661,-0.86589 0.80208,-1.69759 1.06641,-2.49512l1.31933,0.54687c-0.48307,0.93881 -0.84082,1.58822 -1.07324,1.94825zM238.75195,338.21575c0.7793,1.14844 1.16895,2.33789 1.16895,3.56836c0,0.68359 -0.09342,1.17122 -0.28027,1.46289c-0.22331,0.33724 -0.65398,0.50586 -1.292,0.50586c-0.26432,0 -0.54231,-0.02733 -0.83398,-0.082l-0.2666,-1.34668c0.07747,0.01367 0.16178,0.0296 0.25293,0.0478c0.22786,0.0456 0.41243,0.0684 0.55371,0.0684c0.20963,0 0.34407,-0.03646 0.40332,-0.10938c0.0638,-0.07291 0.0957,-0.25065 0.0957,-0.5332c0,-1.30339 -0.34635,-2.44271 -1.03906,-3.41797l0.0752,-0.23242c0.26888,-0.77929 0.51953,-1.69531 0.75196,-2.74805l0.0684,-0.32812h-1.20313v11.51172h-1.33301v-12.78321h3.4043l0.60156,0.54688c-0.27799,1.2487 -0.65397,2.53841 -1.12793,3.86914zM240.08496,334.20305c2.63411,-0.15495 4.92187,-0.458 6.86328,-0.90917l0.92285,1.03906c-2.3151,0.46484 -4.72363,0.79524 -7.22558,0.99121zM239.31934,345.47552c0.39193,-0.67904 0.736,-1.61329 1.03222,-2.80274l1.17578,0.30762c-0.20963,1.26237 -0.54004,2.33561 -0.99121,3.21973zM241.97852,342.75481h1.36035v1.94824c0,0.21875 0.07064,0.35092 0.21191,0.39649c0.20052,0.0638 0.53092,0.0957 0.99121,0.0957c0.57422,0 0.9069,-0.08203 0.99805,-0.24609c0.0638,-0.11393 0.10937,-0.49902 0.13672,-1.15527l1.33301,0.458c-0.00467,0.0456 -0.00923,0.15953 -0.0137,0.3418c-0.0228,0.82031 -0.21648,1.34668 -0.58105,1.5791c-0.30078,0.19141 -1.04362,0.28711 -2.22852,0.28711c-0.87044,0 -1.45605,-0.07975 -1.75683,-0.23926c-0.30078,-0.1595 -0.45117,-0.46484 -0.45117,-0.91601zM243.76953,337.1972c-0.21419,-0.63803 -0.49902,-1.23048 -0.85449,-1.77735l1.23047,-0.37597c0.34635,0.45117 0.65625,1.02538 0.92969,1.72265zM247.88477,345.78313c-0.59245,-1.40365 -1.09604,-2.39714 -1.51075,-2.98047l1.14844,-0.54687c0.63347,0.86133 1.15528,1.79785 1.56543,2.80957zM256.66211,333.56048h1.53809v1.88672h4.0332v1.31933h-4.0332v2.92578c0.1595,0.56055 0.23925,1.05957 0.23925,1.49707c0,1.6224 -0.35775,2.81413 -1.07324,3.5752c-0.77929,0.83398 -1.9528,1.41048 -3.52051,1.72949l-0.77929,-1.16211c1.21679,-0.23242 2.11914,-0.56054 2.70703,-0.98437c0.55143,-0.40105 0.92285,-0.94564 1.11426,-1.63379c-0.48763,0.5332 -1.06869,0.7998 -1.74317,0.7998c-0.75651,0 -1.36946,-0.21419 -1.83887,-0.64258c-0.55143,-0.50586 -0.82714,-1.23958 -0.82714,-2.20117c0,-0.50586 0.12077,-0.99349 0.3623,-1.46289c0.15951,-0.30078 0.35547,-0.55143 0.58789,-0.75195c0.53776,-0.45573 1.18262,-0.6836 1.93457,-0.6836c0.47851,0 0.91146,0.11393 1.29883,0.3418v-1.34668h-6.74707v-1.31933h6.74707zM256.71681,340.65618v-0.25293c0,-0.29167 -0.06836,-0.54915 -0.20508,-0.77246c-0.25521,-0.41927 -0.62435,-0.62891 -1.10742,-0.62891c-0.24609,0 -0.47624,0.06836 -0.69043,0.20508c-0.50131,0.31445 -0.75196,0.79753 -0.75196,1.44922c0,0.41015 0.09115,0.75651 0.27344,1.03906c0.25521,0.39193 0.63118,0.58789 1.12793,0.58789c0.45117,0 0.80892,-0.2028 1.07324,-0.6084c0.18685,-0.28711 0.28028,-0.62662 0.28028,-1.01855z" stroke-linejoin="miter"/><path d="M142.9668,281.7178h1.85938v-1.1416h-1.62695v-1.12109h1.62695v-1.34668h1.37402v1.34668h1.96191v-1.34668h1.37402v1.34668h1.8252v1.12109h-1.8252v1.1416h2.2627v1.17578h-3.95801v0.86817h3.31543v5.35254h-1.99609c1.03451,0.39193 1.98926,0.85905 2.86426,1.40136l-1.03906,0.99122c-0.66536,-0.46029 -1.69987,-1.00488 -3.10352,-1.63379l1.05273,-0.75879h-3.3291l0.90234,0.68359c-1.09375,0.8112 -2.19661,1.39453 -3.30859,1.75l-0.90234,-1.0459c1.17122,-0.34635 2.19661,-0.80892 3.07617,-1.38769h-2.0166v-5.35254h3.20605v-0.86817h-3.78027v-0.7246h-1.05957v1.32617c0.55599,0.51041 1.05729,1.05273 1.50391,1.62695l-0.68359,1.3877c-0.29622,-0.52409 -0.56966,-0.95932 -0.82031,-1.30567v6.20703h-1.41504v-6.36426c-0.4375,1.29883 -0.91374,2.3698 -1.42871,3.2129l-0.60156,-1.45606c0.83854,-1.29427 1.50391,-2.83919 1.99609,-4.63476h-1.77051v-1.33301h1.80469v-2.72754h1.41504v2.72754h1.24414zM148.16211,281.7178v-1.1416h-1.96191v1.1416zM144.68262,284.84183v1.03906h1.87988v-1.03906zM144.68262,286.88577v1.13477h1.87988v-1.13477zM149.83008,288.02054v-1.13477h-1.98926v1.13477zM149.83008,285.88089v-1.03906h-1.98926v1.03906zM162.11426,288.31448c0.91602,0.64714 2.16243,1.17579 3.73926,1.58594l-0.9502,1.29883c-2.06901,-0.58333 -3.70736,-1.54492 -4.91504,-2.88477c-0.72005,-0.79297 -1.25325,-1.69759 -1.59961,-2.71386h-1.92774v3.97168c1.17122,-0.21419 2.41309,-0.49675 3.72559,-0.84766l0.0957,1.29883c-2.15104,0.61523 -4.28385,1.09603 -6.39844,1.44238l-0.48535,-1.41504c0.72005,-0.09115 1.22363,-0.15951 1.51074,-0.20508v-4.24511h-2.40625v-1.16211h2.40625v-5.88575h9.44727v1.14844h-7.89551v0.81348h7.2666v1.10742h-7.2666v0.82715h7.2666v1.08008h-7.2666v0.90918h9.33789v1.16211h-1.86621l1.08008,0.93652c-0.86589,0.62435 -1.83203,1.21679 -2.89844,1.77734zM161.12989,287.50784c1.05273,-0.65625 1.93457,-1.29199 2.64551,-1.90722h-3.98535c0.30534,0.70638 0.75195,1.34212 1.33984,1.90722zM172.36817,281.4512v-1.33984h-5.86523v-1.25781h13.2959v1.25781h-5.94727v1.33984h2.99414v6.98633h-7.40332v-6.98633zM172.42286,282.59964h-1.64746v1.69531h1.64746zM173.79688,282.59964v1.69531h1.71582v-1.69531zM172.42286,285.37503h-1.64746v1.88672h1.64746zM173.79688,285.37503v1.88672h1.71582v-1.88672zM168.38282,289.35355h9.5293v-7.90235h1.42871v9.95996h-1.42871v-0.77246h-9.5293v0.77246h-1.41504v-9.95996h1.41504zM187.1338,281.87503h5.75586v9.53613h-1.52441v-0.77246h-8.44238v0.77246h-1.51074v-9.53613h4.18359c0.20052,-0.56055 0.37598,-1.14388 0.52637,-1.75h-5.61914v-1.25781h13.2959v1.25781h-6.07031l-0.02734,0.0957c-0.13216,0.45117 -0.32129,1.00261 -0.56738,1.6543zM184.67286,283.06448h-1.75v6.30274h1.75zM186.00587,283.06448v1.3125h2.22168v-1.3125zM189.57423,283.06448v6.30274h1.79101v-6.30274zM186.00587,285.49808v1.31933h2.22168v-1.31933zM186.00587,287.93851v1.42871h2.22168v-1.42871zM195.59669,278.75101h1.59277v10.24707c0.85221,-0.27344 1.611,-0.59017 2.27637,-0.9502c1.86849,-1.00716 3.42025,-2.29004 4.65527,-3.84863c0.36458,-0.46029 0.71322,-0.98893 1.0459,-1.58594l1.01172,1.42871c-0.94792,1.47201 -2.14421,2.75716 -3.58887,3.85547c-1.75911,1.33529 -3.76432,2.32422 -6.01562,2.9668l-0.97754,-0.95703zM212.36524,290.80276v-7.01367c-1.38542,0.92969 -2.9668,1.71354 -4.74414,2.35156l-0.82715,-1.38769c2.01888,-0.67904 3.78939,-1.55404 5.31152,-2.625c1.49479,-1.05273 2.82552,-2.25814 3.99219,-3.61621l1.31934,0.82715c-1.03451,1.18945 -2.1875,2.28092 -3.45898,3.27441v8.18945zM218.49024,279.5098h10.71192l0.88183,0.74511c-0.25521,0.95247 -0.58789,1.74772 -0.99804,2.38574c-0.77019,1.20769 -1.92318,2.11003 -3.45899,2.70704l-0.86133,-1.17579c1.06185,-0.31901 1.94368,-0.89095 2.64551,-1.71582c0.41471,-0.48763 0.7041,-1.0026 0.86817,-1.54492h-9.78907zM222.87207,282.46292h1.56543v1.17578c0,1.76367 -0.19596,3.1263 -0.58789,4.08789c-0.49674,1.22135 -1.46289,2.21484 -2.89844,2.98047l-1.12793,-1.18945c0.98893,-0.4694 1.71126,-1.02995 2.16699,-1.68164c0.35091,-0.50586 0.58106,-1.04134 0.69043,-1.60645c0.1276,-0.64713 0.19141,-1.5153 0.19141,-2.60449zM236.37305,278.40237h1.53808v2.22852h4.84668c-0.0456,2.15104 -0.29169,3.8737 -0.73828,5.16797c-0.49675,1.46289 -1.29199,2.57487 -2.38574,3.33594c-1.03906,0.72461 -2.36067,1.29655 -3.96484,1.71582l-0.76563,-1.292c1.38542,-0.29167 2.59538,-0.80208 3.62988,-1.53125c0.82487,-0.57877 1.43555,-1.35807 1.83203,-2.33789c0.42383,-1.04362 0.6517,-2.27181 0.6836,-3.68457h-7.69043v3.31543h-1.59277v-4.68945h4.60742zM245.84766,278.49807h1.59277v3.92382c2.7207,0.83855 4.97428,1.69532 6.76074,2.57032l-0.76562,1.47656c-1.71355,-0.87044 -3.71192,-1.69759 -5.99512,-2.48145v6.94532h-1.59277zM262.46582,289.33303c2.67513,-0.67448 4.0127,-2.20801 4.0127,-4.60059c0,-1.04362 -0.26888,-1.94141 -0.80665,-2.69336c-0.60156,-0.84765 -1.51757,-1.39225 -2.74804,-1.63379c-0.26888,2.11459 -0.63574,3.84636 -1.10059,5.19532c-0.31901,0.94335 -0.71549,1.8343 -1.18945,2.67285c-0.68359,1.19401 -1.46061,1.79101 -2.33106,1.79101c-0.64713,0 -1.22363,-0.29167 -1.72949,-0.875c-0.32357,-0.36914 -0.58561,-0.82259 -0.78613,-1.36035c-0.26432,-0.69727 -0.39648,-1.44694 -0.39648,-2.24902c0,-1.29883 0.35775,-2.49512 1.07324,-3.58887c0.72461,-1.11653 1.66569,-1.92773 2.82324,-2.43359c0.8431,-0.36914 1.76823,-0.55371 2.77539,-0.55371c1.57227,0 2.90755,0.42155 4.00586,1.26464c1.34896,1.03451 2.02344,2.49968 2.02344,4.39551c0,3.17643 -1.60645,5.19076 -4.81934,6.04297zM261.44043,280.35061c-0.80664,0.09114 -1.48112,0.30761 -2.02344,0.64941c-0.34635,0.22331 -0.69043,0.51953 -1.03222,0.88867c-0.94792,1.04818 -1.42188,2.2627 -1.42188,3.64356c0,1.00716 0.20052,1.79557 0.60156,2.36523c0.24609,0.35091 0.48991,0.52637 0.73145,0.52637c0.32813,0 0.69727,-0.36231 1.10742,-1.08692c1.00261,-1.76367 1.68164,-4.09244 2.03711,-6.98632z" stroke-linejoin="miter"/><path d="M146.15234,299.3613v-1.14844h-3.7666v-1.2168h3.7666v-1.38769h1.41504v1.38769h4.21094v1.2168h-4.21094v1.14844h3.55469v4.34082h-3.57519c-0.05469,0.92513 -0.22786,1.67252 -0.51953,2.24219c1.47656,0.74283 3.11719,1.25553 4.92188,1.53808l-0.71777,1.42871c-1.87305,-0.46484 -3.52962,-1.0983 -4.96973,-1.90039c-0.8112,0.86133 -1.99609,1.53125 -3.55469,2.00977l-0.7998,-1.20313c1.31706,-0.27343 2.36296,-0.78841 3.1377,-1.54492c-0.65169,-0.43294 -1.36035,-0.95931 -2.12598,-1.5791l0.98438,-0.82031c0.64714,0.52865 1.28288,0.98893 1.90723,1.38086c0.20052,-0.43295 0.32585,-0.9502 0.37598,-1.55176h-3.53418v-4.34082zM146.15234,300.50974h-2.11231v2.04394h2.11231zM147.56738,300.50974v2.04394h2.15332v-2.04394zM141.61328,298.90329v10.00781h-1.45605v-7.01367c-0.29622,0.50586 -0.67904,1.08008 -1.14844,1.72266l-0.69727,-1.53809c0.75651,-1.05273 1.39225,-2.26042 1.90723,-3.62305c0.3099,-0.81119 0.62663,-1.79329 0.95019,-2.94628l1.46973,0.37597c-0.35091,1.17578 -0.69271,2.18066 -1.02539,3.01465zM164.69824,296.31931v10.93066c0,0.46485 -0.08431,0.80209 -0.25293,1.01172c-0.20964,0.25977 -0.63346,0.38965 -1.27148,0.38965c-0.71094,0 -1.34212,-0.02733 -1.89355,-0.082l-0.2666,-1.46973c0.72461,0.09115 1.32389,0.13672 1.79785,0.13672c0.19141,0 0.30534,-0.04329 0.3418,-0.12988c0.02279,-0.05927 0.03418,-0.14586 0.03418,-0.25977v-2.7002h-3.34961v4.12891h-1.46973v-4.12891h-3.20605c-0.04101,0.94792 -0.13216,1.73405 -0.27344,2.3584c-0.20052,0.85221 -0.5765,1.65658 -1.12793,2.41309l-1.28516,-1.05957c0.52865,-0.70183 0.87728,-1.55176 1.0459,-2.54981c0.0957,-0.57877 0.14355,-1.23046 0.14355,-1.95507v-7.03418zM155.17578,297.63864v1.97559h3.19238v-1.97559zM155.17578,300.85837v2.03027h3.19238v-2.03027zM163.1875,302.88864v-2.03027h-3.34961v2.03027zM163.1875,299.61423v-1.97559h-3.34961v1.97559zM167.69238,297.52927h3.68457c0.4056,-0.64714 0.71322,-1.16895 0.92285,-1.56543l1.52441,0.21875c-0.13672,0.24609 -0.37826,0.64713 -0.72461,1.20312l-0.08887,0.14356h4.81934v1.34668h-5.72852c-0.597,0.82031 -1.16667,1.53125 -1.70898,2.13281c0.86133,-0.51497 1.64746,-0.77246 2.3584,-0.77246c1.10286,0 1.82519,0.55371 2.16699,1.66113c1.16667,-0.38737 2.35612,-0.77018 3.56836,-1.14844l0.58789,1.32618l-0.23926,0.0684l-0.67676,0.17774c-1.27604,0.34635 -2.29687,0.64258 -3.0625,0.88867c0.05469,0.59245 0.09342,1.35807 0.11621,2.29688l-1.49707,0.082c-0.00453,-0.54232 -0.01365,-1.13021 -0.02734,-1.76367v-0.13672c-2.09635,0.71549 -3.14453,1.43554 -3.14453,2.16015c0,0.3737 0.26888,0.62891 0.80664,0.76563c0.51953,0.13216 1.44922,0.19824 2.78906,0.19824c1.23503,0 2.53158,-0.07064 3.88965,-0.21191l0.16406,1.45605c-1.31706,0.10026 -2.68197,0.15039 -4.09473,0.15039c-1.74089,0 -2.97819,-0.13216 -3.71191,-0.39648c-0.9069,-0.32813 -1.36035,-0.9183 -1.36035,-1.77051c0,-0.72005 0.32129,-1.3558 0.96387,-1.90723c0.66536,-0.56966 1.83659,-1.15755 3.51367,-1.76367c-0.09115,-0.35091 -0.21191,-0.59701 -0.3623,-0.73828c-0.16862,-0.15951 -0.39193,-0.23926 -0.66992,-0.23926c-0.45117,0 -1.01855,0.1709 -1.70215,0.5127c-0.8431,0.41927 -1.74772,1.05045 -2.71387,1.89355l-0.90918,-1.03906c1.41732,-1.31706 2.52702,-2.61133 3.3291,-3.88281h-2.78223zM185.33593,302.32809c-0.04557,2.88021 -0.18685,4.70769 -0.42383,5.48243c-0.12305,0.39648 -0.31901,0.67447 -0.58789,0.83398c-0.25065,0.15039 -0.6084,0.22559 -1.07324,0.22559c-0.4375,0 -0.97982,-0.03874 -1.62695,-0.11621l-0.28027,-1.36036c0.76107,0.09571 1.29427,0.14356 1.59961,0.14356c0.31901,0 0.52181,-0.08203 0.6084,-0.24609c0.15951,-0.29623 0.28255,-1.5267 0.36914,-3.69141h-1.90723c-0.00911,0.03193 -0.01595,0.07067 -0.02051,0.11621c-0.02735,0.17773 -0.07748,0.45117 -0.15039,0.82031l-1.33984,-0.20508c0.28255,-1.98697 0.45573,-3.6914 0.51953,-5.11328h2.78223v-1.71582h-3.20605v-1.31933h4.56641v4.30664h-2.85742l-0.03418,0.58105c-0.02735,0.39649 -0.06153,0.81576 -0.10254,1.25781zM188.91796,299.62106l-0.25293,0.0205c-0.77474,0.0638 -1.7181,0.12532 -2.83008,0.18457l-0.33496,-1.31932c0.25065,-0.00467 0.46029,-0.00923 0.62891,-0.0137c0.0957,0 0.21875,-0.00233 0.36914,-0.007c0.70638,-0.98893 1.29883,-1.96647 1.77734,-2.93262l1.42871,0.33496c-0.46484,0.80209 -1.03451,1.65202 -1.70899,2.54981l0.5332,-0.0137c0.88867,-0.02733 1.87988,-0.07974 2.97363,-0.15722l-0.11621,-0.15039c-0.27344,-0.3737 -0.60156,-0.7793 -0.98437,-1.2168l1.14844,-0.6084c1.02995,1.14844 1.80013,2.18978 2.31055,3.12403l-1.18945,0.74511c-0.19141,-0.36914 -0.35547,-0.66536 -0.49219,-0.88867c-0.69727,0.09571 -1.32161,0.1709 -1.87305,0.22559v1.34668h2.92578v3.91699h-2.92578v2.2832c0.42383,-0.0456 0.875,-0.09573 1.35352,-0.15039l0.15039,-0.0205c-0.20508,-0.44661 -0.43066,-0.87955 -0.67676,-1.29882l1.27149,-0.50586c0.58789,0.89779 1.12565,1.9847 1.61328,3.26074l-1.33301,0.65625c-0.16406,-0.45573 -0.30306,-0.81804 -0.41699,-1.08692l-0.5127,0.082c-1.92318,0.31445 -3.90104,0.55598 -5.93359,0.7246l-0.37598,-1.33984c1.09375,-0.041 2.22852,-0.1048 3.4043,-0.19141l0.06836,-0.007v-2.40625h-2.84375v-3.91699h2.84375zM188.91796,301.99313h-1.57227v1.62012h1.57227zM190.30566,301.99313v1.62012h1.60645v-1.62012zM198.04394,297.33102v-1.72265h1.41504v1.72265h2.84375v1.2168h-2.84375v1.42871h3.39063v1.23047h-3.39062v1.33301h2.89844v3.7666c0,0.40104 -0.12077,0.68359 -0.36231,0.84766c-0.17773,0.12305 -0.45801,0.18457 -0.84082,0.18457c-0.39193,0 -0.76107,-0.0228 -1.10742,-0.0684l-0.22559,-1.29883c0.38737,0.07291 0.71322,0.10937 0.97754,0.10937c0.15039,0 0.22559,-0.08431 0.22559,-0.25293v-2.09863h-1.56543v5.18164h-1.41504v-5.18164h-1.45605v3.84863h-1.36035v-5.03808h2.81641v-1.33301h-3.52734v-1.23047h3.52734v-1.42871h-1.62012c-0.18229,0.40104 -0.39876,0.78841 -0.64941,1.16211l-1.17578,-0.74512c0.58789,-0.82031 0.98893,-1.78418 1.20313,-2.8916l1.36035,0.19141c-0.07292,0.29167 -0.16862,0.64713 -0.28711,1.0664zM203.16405,296.70212h1.40137v8.69531h-1.40137zM205.84374,295.92966h1.44238v11.47754c0,0.44661 -0.10937,0.77474 -0.32812,0.98437c-0.22331,0.21419 -0.62663,0.32129 -1.20996,0.32129c-0.60156,0 -1.21452,-0.0319 -1.83887,-0.0957l-0.29395,-1.42871c0.63346,0.09115 1.22591,0.13672 1.77734,0.13672c0.20964,0 0.33952,-0.0319 0.38965,-0.0957c0.04101,-0.05013 0.06152,-0.15723 0.06152,-0.32129z" stroke-linejoin="miter"/><path d="M195.60742,226.21875l-1.03125,0.47852c-0.36003,-0.92514 -0.82357,-1.77605 -1.38867,-2.55079l1.0332,-0.33398c0.54687,0.66537 1.00846,1.46748 1.38672,2.40625zM193.80273,226.56641l-1.10742,0.4375c-0.28711,-0.75194 -0.7487,-1.59176 -1.38672,-2.52149l1.08008,-0.39062c0.52409,0.72006 0.99482,1.54494 1.41406,2.47461zM181.38086,225.33594c-1.03453,1.18946 -2.18752,2.28192 -3.45899,3.27539v8.18945h-1.59179v-7.01367c-1.3854,0.92967 -2.96681,1.7135 -4.74414,2.35156l-0.82813,-1.38867c2.01887,-0.67907 3.79037,-1.55407 5.3125,-2.625c1.4948,-1.05273 2.82552,-2.25717 3.99219,-3.61523zM167.22851,224.53907v2.76172h2.74024v1.40234h-2.74024v0.42969c0,2.3242 -0.33268,4.06967 -0.99804,5.23633c-0.64258,1.12107 -1.77602,1.98106 -3.39844,2.57813l-0.95703,-1.2168c1.58593,-0.54687 2.64774,-1.38997 3.18554,-2.5293c0.41927,-0.87953 0.62891,-2.22847 0.62891,-4.04687v-0.45118h-4.14844v3.91602h-1.53906v-3.91602h-2.54883v-1.40234h2.54883v-2.6582h1.53906v2.6582h4.14844v-2.76172zM141.83203,225.08008v7.0957c0,0.79293 0.16992,1.42639 0.51172,1.90039c0.52409,0.71547 1.30666,1.07227 2.3457,1.07227c1.153,0 1.9746,-0.42061 2.4668,-1.26367c0.25977,-0.44662 0.39062,-1.01627 0.39062,-1.70899v-7.0957h1.83204v7.40234c0,1.0664 -0.2767,1.94008 -0.82813,2.61914c-0.86133,1.0664 -2.15107,1.59961 -3.86914,1.59961c-1.7044,0 -2.98954,-0.53321 -3.85547,-1.59961c-0.55143,-0.67446 -0.82617,-1.54814 -0.82617,-2.61914v-7.40234zM156.1582,225.08008v1.25781h-1.45703v8.82422h1.45703v1.25781h-4.75781v-1.25781h1.45508v-8.82422h-1.45508v-1.25781zM191,225.63086l0.84179,1.02539c-0.40559,1.57227 -1.08791,3.09573 -2.04492,4.57227c1.48567,1.16213 2.94268,2.51107 4.36914,4.04687l-1.12109,1.29297c-1.25327,-1.4264 -2.62504,-2.81506 -4.11524,-4.16406c-1.54033,1.85026 -3.42702,3.25261 -5.66015,4.20508l-0.83399,-1.41602c1.61787,-0.64258 2.94405,-1.41859 3.97852,-2.33008c1.21226,-1.06186 2.18298,-2.29562 2.91211,-3.69922c0.36458,-0.7064 0.63346,-1.41734 0.80664,-2.13281h-6.69336v-1.40039z" stroke-linejoin="miter"/><path d="M290.73439,188.2988c0.05492,0.00022 0.09938,0.04469 0.0996,0.09961v1.64258h6.01758c0.05492,0.00022 0.09939,0.04468 0.09961,0.0996v3.61719c-0.00022,0.05492 -0.04469,0.09939 -0.09961,0.09961h-1.5957v0.93946c-0.00022,0.05492 -0.04469,0.09938 -0.09961,0.0996h-4.29102v2.19141h5.25196c0.05492,0.00022 0.09939,0.04469 0.09961,0.09961v1.45312c-0.00022,0.05492 -0.04469,0.09939 -0.09961,0.09961h-5.25196v2.49415c0.85299,0.13649 1.77657,0.21289 2.78321,0.21289h4.05468c0.03467,-0.0001 0.06692,0.01776 0.08523,0.04721c0.01831,0.02945 0.02005,0.06627 0.00462,0.09732c-0.25666,0.51332 -0.44703,1.05483 -0.57031,1.625c-0.01025,0.04569 -0.05083,0.07816 -0.09766,0.07812h-3.49219c-2.12254,0 -3.80414,-0.25267 -5.04687,-0.76562c-1.16168,-0.47894 -2.11749,-1.27398 -2.88477,-2.34961c-0.60659,1.40575 -1.33264,2.60444 -2.20703,3.54492c-0.01951,0.02051 -0.04679,0.03178 -0.07509,0.03104c-0.02829,-0.00075 -0.05495,-0.01344 -0.07335,-0.03495l-1.21093,-1.45312c-0.03309,-0.03837 -0.03225,-0.09543 0.00195,-0.13281c1.45361,-1.57217 2.36231,-3.60701 2.72461,-6.11719c0.00346,-0.02687 0.01768,-0.05119 0.0394,-0.06739c0.02172,-0.0162 0.04908,-0.02289 0.07583,-0.01855l1.77344,0.27344c0.02698,0.00434 0.051,0.01952 0.0665,0.04203c0.01549,0.0225 0.02111,0.05037 0.01553,0.07711c-0.16291,0.80436 -0.32095,1.46813 -0.47461,2.01172c0.5923,1.03912 1.45873,1.80364 2.58203,2.32812v-5.76758h-4.23633c-0.05491,-0.00022 -0.09938,-0.04469 -0.0996,-0.0996v-0.93946h-1.59571c-0.05492,-0.00022 -0.09939,-0.04469 -0.09961,-0.09961v-3.61719c0.00022,-0.05492 0.04469,-0.09938 0.09961,-0.0996h5.88477v-1.64258c0.00022,-0.05492 0.04469,-0.09939 0.09961,-0.09961zM244.98439,188.61911c0.05492,0.00022 0.09938,0.04469 0.0996,0.09961v2.05664h4.50977c0.05492,0.00022 0.09939,0.04469 0.09961,0.09961v1.50781c-0.00022,0.05492 -0.04469,0.09939 -0.09961,0.09961h-4.50977v3.24219v0.00195c0.17844,0.63495 0.27344,1.20682 0.27344,1.71094c0,1.86887 -0.41192,3.25867 -1.2539,4.1543c-0.90913,0.97291 -2.271,1.63852 -4.07618,2.00586c-0.03963,0.00857 -0.08051,-0.00763 -0.10351,-0.04102l-0.89063,-1.32812c-0.01887,-0.02792 -0.02241,-0.06346 -0.00942,-0.09455c0.01299,-0.03109 0.04076,-0.05355 0.07388,-0.05975c1.38252,-0.26408 2.40233,-0.63907 3.05468,-1.10938c0.51719,-0.3765 0.82153,-0.9206 1.05078,-1.52734c-0.12159,0.1051 -0.24829,0.19603 -0.3789,0.27539c-0.40105,0.2835 -0.83303,0.48047 -1.33203,0.48047c-0.88346,0 -1.61371,-0.25215 -2.16992,-0.75977c-0.65348,-0.59945 -0.97657,-1.47177 -0.97657,-2.58984c0,-0.59404 0.1411,-1.16734 0.42383,-1.7168c0.00064,-0.00066 0.00129,-0.00131 0.00195,-0.00195c0.1874,-0.35338 0.41953,-0.65074 0.69532,-0.88867c0.63212,-0.5357 1.39581,-0.80469 2.27539,-0.80469c0.50766,0 0.96159,0.14587 1.38476,0.36524v-1.31446h-7.61133c-0.05492,-0.00022 -0.09938,-0.04469 -0.0996,-0.09961v-1.50781c0.00022,-0.05492 0.04468,-0.09939 0.0996,-0.09961h7.61133v-2.05664c0.00022,-0.05492 0.04469,-0.09939 0.09961,-0.09961zM225.89063,188.8613c0.05492,0.00022 0.09939,0.04469 0.09961,0.09961v5.03125c-0.00022,0.05492 -0.04469,0.09939 -0.09961,0.09961h-0.78906c0.01383,0.00178 0.02714,0.00644 0.03906,0.01367c0.35272,0.60466 0.61529,1.14348 0.80469,1.63086h1.45117c0.30687,-0.5797 0.55663,-1.13038 0.73633,-1.64453h-0.67969c-0.05492,-0.00022 -0.09939,-0.04469 -0.09961,-0.09961v-5.03125c0.00022,-0.05492 0.04469,-0.09939 0.09961,-0.09961h6.32031c0.05492,0.00022 0.09939,0.04469 0.09961,0.09961v13.10156c0,0.60059 -0.15701,1.03903 -0.49414,1.27734c-0.00065,0.00001 -0.00131,0.00001 -0.00196,0c-0.25686,0.18097 -0.63692,0.25977 -1.14257,0.25977c-0.46804,0 -0.93639,-0.03065 -1.4043,-0.09375c-0.0422,-0.00606 -0.07593,-0.03821 -0.08399,-0.08008l-0.30078,-1.58398l-0.79883,0.92578c-0.01809,0.02113 -0.04417,0.03376 -0.07196,0.03488c-0.02779,0.00111 -0.05479,-0.0094 -0.07452,-0.02902c-0.75614,-0.75111 -1.64124,-1.48307 -2.63477,-2.20117c-0.27701,0.56201 -0.65654,1.07416 -1.18359,1.51171c-0.57051,0.47454 -1.36496,0.88738 -2.38281,1.24414c-0.04238,0.01493 -0.08952,-0.00025 -0.11523,-0.0371l-0.86719,-1.26563c-0.01803,-0.02647 -0.0223,-0.05997 -0.01148,-0.09011c0.01082,-0.03014 0.03542,-0.05328 0.06617,-0.06223c1.77271,-0.48527 2.80443,-1.33878 3.21289,-2.52344h-3.35742c-0.05492,-0.00022 -0.09939,-0.04469 -0.09961,-0.09961v-1.26562c0.00022,-0.05492 0.04469,-0.09939 0.09961,-0.09961h3.58008v-0.76172h-3.16602c-0.05492,-0.00022 -0.09939,-0.04469 -0.09961,-0.09961v-1.1875c0.00022,-0.05492 0.04469,-0.09939 0.09961,-0.09961h1.4668c-0.17932,-0.34419 -0.36594,-0.67604 -0.57227,-0.97656c-0.01749,-0.02531 -0.02236,-0.05725 -0.0132,-0.08662c0.00915,-0.02937 0.03131,-0.05289 0.06008,-0.06377l1.36133,-0.51758h-3.5v9.50976c-0.00022,0.05492 -0.04469,0.09939 -0.09961,0.09961h-1.67969c-0.05492,-0.00022 -0.09939,-0.04469 -0.09961,-0.09961v-14.64062c0.00022,-0.05492 0.04469,-0.09939 0.09961,-0.09961zM278.9922,188.8613c0.05492,0.00022 0.09939,0.04469 0.09961,0.09961v3.80468c0,0.0809 0.00748,0.14415 0.01758,0.18555c0.00969,0.0397 0.02053,0.05369 0.02148,0.05469h0.00195c0.03684,0.0277 0.13383,0.05859 0.28907,0.05859c0.22008,0 0.35055,-0.04406 0.37695,-0.06836c0.00191,-0.00137 0.00386,-0.00267 0.00586,-0.0039c-0.0072,0.0057 0.01535,-0.02203 0.03125,-0.08203c0.0157,-0.05962 0.03091,-0.14912 0.04101,-0.26172c0.0519,-0.59768 0.08094,-1.06097 0.08594,-1.38477c0.00062,-0.03129 0.01586,-0.06049 0.04117,-0.0789c0.02531,-0.01841 0.05778,-0.02391 0.08774,-0.01485l1.46093,0.46094c0.04189,0.01302 0.07041,0.05183 0.07032,0.0957c-0.00536,0.60206 -0.04399,1.17704 -0.11719,1.72266v0.00195c-0.04113,0.33191 -0.15349,0.60624 -0.33984,0.8125c-0.18674,0.20669 -0.44545,0.3412 -0.76368,0.4043c-0.268,0.0547 -0.65415,0.08008 -1.16796,0.08008c-0.73234,0 -1.23241,-0.0836 -1.51954,-0.29297c-0.24773,-0.18127 -0.36132,-0.50571 -0.36132,-0.93946v-3.0332h-1.75391v0.06446c0,1.06451 -0.11373,1.94915 -0.34766,2.65624c-0.00064,0.00066 -0.00129,0.00132 -0.00195,0.00196c-0.26641,0.7779 -0.73415,1.43786 -1.39844,1.97461c-0.03983,0.03149 -0.09694,0.02813 -0.13281,-0.00781l-1.13281,-1.13282c-0.02076,-0.02094 -0.03122,-0.04998 -0.02859,-0.07935c0.00264,-0.02937 0.0181,-0.05608 0.04226,-0.07299c0.6351,-0.44357 1.02529,-1.0764 1.17773,-1.91992c0.07143,-0.40332 0.10743,-0.90058 0.10743,-1.49024v-1.51562c0.00022,-0.05492 0.04469,-0.09939 0.09961,-0.09961zM272.21095,188.87692c0.05492,0.00022 0.09939,0.04469 0.09961,0.09961v1.3125c-0.00022,0.05492 -0.04469,0.09939 -0.09961,0.09961h-4.96094c-0.05492,-0.00022 -0.09939,-0.04469 -0.09961,-0.09961v-1.3125c0.00022,-0.05492 0.04469,-0.09939 0.09961,-0.09961zM206.75978,189.18161c0.02763,0.00293 0.0528,0.01722 0.06947,0.03945c0.01667,0.02223 0.02334,0.05039 0.01842,0.07774c-0.42057,2.32611 -0.63086,4.95336 -0.63086,7.88086c0,1.96504 0.10998,3.80295 0.32813,5.51172c0.00318,0.02643 -0.0043,0.05304 -0.0208,0.07394c-0.0165,0.02089 -0.04064,0.03435 -0.06709,0.03738l-1.78125,0.22657c-0.02643,0.00319 -0.05304,-0.0043 -0.07394,-0.02079c-0.0209,-0.0165 -0.03435,-0.04065 -0.03739,-0.0671c-0.19832,-1.77445 -0.29687,-3.5392 -0.29687,-5.29297c0,-3.00492 0.22039,-5.85875 0.66406,-8.5625c0.00824,-0.05268 0.05636,-0.08962 0.10938,-0.08399zM261.64845,189.16599c0.03378,-0.00017 0.06537,0.01672 0.08398,0.04492l0.83594,1.29687c0.01502,0.02265 0.02017,0.05043 0.01428,0.07696c-0.00589,0.02653 -0.02233,0.04951 -0.04553,0.06367c-2.53509,1.5503 -4.68824,2.93968 -6.58789,4.22461c1.11415,-0.40102 2.2318,-0.69922 3.35547,-0.69922c1.17206,0 2.15568,0.18633 2.94922,0.56445c0.73243,0.3503 1.30721,0.83016 1.71875,1.43945c0.00066,0.00064 0.00131,0.0013 0.00195,0.00196c0.42764,0.64681 0.64062,1.39187 0.64062,2.22656c0,1.16856 -0.40229,2.15708 -1.20117,2.94531c-0.54881,0.54882 -1.25076,0.96407 -2.10156,1.24414c-1.11009,0.36302 -2.32417,0.54297 -3.64062,0.54297c-1.51754,0 -2.65021,-0.27913 -3.39063,-0.85742c-0.57897,-0.45452 -0.87305,-1.08183 -0.87305,-1.85156c0,-0.58658 0.21397,-1.1152 0.63477,-1.56836c0.63385,-0.6822 1.49848,-1.02344 2.56641,-1.02344c1.13175,0 2.05323,0.38506 2.73828,1.15039c0.47216,0.52801 0.79485,1.2498 1.01367,2.10742c0.74122,-0.24912 1.31779,-0.58109 1.6875,-1.01562c0.38549,-0.45308 0.57812,-1.00578 0.57812,-1.67383c0,-1.01383 -0.41033,-1.73692 -1.2539,-2.2168c-0.00001,-0.00065 -0.00001,-0.0013 0,-0.00195c-0.56419,-0.32239 -1.2865,-0.48633 -2.16993,-0.48633c-1.32931,0 -2.52569,0.18316 -3.59179,0.54883c-0.00065,0.00001 -0.0013,0.00001 -0.00195,0c-0.7763,0.26384 -1.84213,0.91407 -3.18165,1.94727c-0.04248,0.03195 -0.10253,0.02508 -0.13671,-0.01563l-1.10157,-1.32812c-0.03547,-0.04211 -0.03023,-0.10497 0.01172,-0.14063c1.45101,-1.25267 3.10175,-2.5224 4.95313,-3.81055c1.16909,-0.8112 2.17635,-1.45227 3.09375,-1.99804h-6.36524c-0.05492,-0.00022 -0.09939,-0.04469 -0.09961,-0.09961v-1.53907c0.00022,-0.05492 0.04469,-0.09938 0.09961,-0.0996zM185.69532,189.41599c0.05492,0.00022 0.09939,0.04468 0.09961,0.0996v8.10938c0,0.89188 0.19321,1.59308 0.56836,2.11328c0.58032,0.79144 1.43374,1.18555 2.59766,1.18555c1.29333,0 2.18902,-0.4623 2.73437,-1.39649c0.28558,-0.49099 0.43164,-1.12317 0.43164,-1.90234v-8.10938c0.00022,-0.05492 0.04469,-0.09938 0.09961,-0.0996h2.09375c0.05492,0.00022 0.09939,0.04468 0.09961,0.0996v8.46094c0,1.23599 -0.32044,2.25876 -0.9668,3.05469c-1.0048,1.24403 -2.51577,1.86523 -4.5,1.86523c-1.96877,0 -3.47456,-0.62156 -4.48437,-1.86523c-0.64662,-0.79091 -0.9668,-1.81357 -0.9668,-3.05469v-8.46094c0.00022,-0.05492 0.04469,-0.09938 0.09961,-0.0996zM202.07032,189.41599c0.05492,0.00022 0.09939,0.04468 0.09961,0.0996v1.4375c-0.00022,0.05492 -0.04469,0.09939 -0.09961,0.09961h-1.56445v9.88672h1.56445c0.05492,0.00022 0.09939,0.04469 0.09961,0.09961v1.4375c-0.00022,0.05492 -0.04469,0.09939 -0.09961,0.09961h-5.4375c-0.05492,-0.00022 -0.09939,-0.04469 -0.09961,-0.09961v-1.4375c0.00022,-0.05492 0.04469,-0.09939 0.09961,-0.09961h1.56445v-9.88672h-1.56445c-0.05492,-0.00022 -0.09939,-0.04469 -0.09961,-0.09961v-1.4375c0.00022,-0.05492 0.04469,-0.09938 0.09961,-0.0996zM221.44337,190.8613h2.80859v-0.62891h-2.80859zM229.10743,190.8613h2.88672v-0.62891h-2.88672zM216.85938,190.45505c0.05492,0.00022 0.09939,0.04469 0.09961,0.09961v1.66406c-0.00022,0.05492 -0.04469,0.09939 -0.09961,0.09961h-7.50781c-0.05492,-0.00022 -0.09939,-0.04469 -0.09961,-0.09961v-1.66406c0.00022,-0.05492 0.04469,-0.09939 0.09961,-0.09961zM272.91407,191.16599c0.05492,0.00022 0.09939,0.04468 0.09961,0.0996v1.40626c-0.00022,0.05492 -0.04469,0.09938 -0.09961,0.0996h-6.5625c-0.05492,-0.00022 -0.09939,-0.04468 -0.09961,-0.0996v-1.40626c0.00022,-0.05492 0.04469,-0.09938 0.09961,-0.0996zM284.81837,193.21286h10.20703v-1.50391h-10.20703zM221.44337,192.75974h2.80859v-0.66016h-2.80859zM229.10743,192.75974h2.88672v-0.66016h-2.88672zM272.21095,193.56442c0.05492,0.00022 0.09939,0.04469 0.09961,0.09961v1.29688c-0.00022,0.05492 -0.04469,0.09939 -0.09961,0.09961h-4.96094c-0.05492,-0.00022 -0.09939,-0.04469 -0.09961,-0.09961v-1.29688c0.00022,-0.05492 0.04469,-0.09939 0.09961,-0.09961zM229.76954,194.45895c0.02792,0.00784 0.05107,0.02741 0.06344,0.05365c0.01237,0.02623 0.01274,0.05655 0.00101,0.08307c-0.19863,0.43885 -0.41062,0.8052 -0.62695,1.14063h1.57422c0.05492,0.00022 0.09939,0.04469 0.09961,0.09961v1.1875c-0.00022,0.05492 -0.04469,0.09939 -0.09961,0.09961h-3.25977v0.76172h3.68164c0.05492,0.00022 0.09939,0.04469 0.09961,0.09961v1.26562c-0.00022,0.05492 -0.04469,0.09939 -0.09961,0.09961h-3.49218c1.05252,0.59905 2.0648,1.25646 3.00781,2.01758c0.02102,0.01689 0.03433,0.04156 0.0369,0.06841c0.00257,0.02684 -0.0058,0.05359 -0.02323,0.07417l-0.16992,0.19726c0.40369,0.066 0.79227,0.09961 1.16406,0.09961c0.10608,0 0.16768,-0.0259 0.20508,-0.0625c0.0374,-0.03659 0.0625,-0.0945 0.0625,-0.19726v-7.45508h-3.51953zM241.0547,195.25583c-0.00065,0.00001 -0.00131,0.00001 -0.00196,0c-0.54657,0.34285 -0.8125,0.85313 -0.8125,1.57226c0,0.45394 0.1005,0.82843 0.29688,1.13282c0.27548,0.42306 0.66367,0.62695 1.20508,0.62695c0.48566,0 0.85471,-0.20866 1.14258,-0.65039c0.20219,-0.31069 0.30468,-0.67735 0.30468,-1.10938v-0.28906c0,-0.31771 -0.07458,-0.5914 -0.2207,-0.83008c-0.2771,-0.45522 -0.65653,-0.67187 -1.17969,-0.67187c-0.26273,0 -0.50422,0.07185 -0.73437,0.21875zM279.93751,195.41599c0.0245,0.00004 0.04813,0.00908 0.06641,0.02539l0.84375,0.76562c0.03286,0.02959 0.04238,0.07724 0.02343,0.11719c-0.69292,1.49284 -1.53256,2.74227 -2.49609,3.78711c0.97106,0.69137 2.08622,1.29136 3.37109,1.78711c0.02766,0.01042 0.04928,0.03254 0.05908,0.06043c0.0098,0.02788 0.00676,0.05867 -0.00829,0.0841l-0.92969,1.55469c-0.02645,0.04434 -0.0823,0.06127 -0.12891,0.03906c-1.56633,-0.73438 -2.79432,-1.47318 -3.7207,-2.22266c-1.15176,0.95904 -2.30944,1.72303 -3.47461,2.26953c-0.04515,0.02174 -0.09941,0.00672 -0.12695,-0.03515l-0.75391,-1.15625v0.30469c-0.00022,0.05492 -0.04469,0.09938 -0.09961,0.0996h-3.99414v0.70508c-0.00022,0.05492 -0.04469,0.09939 -0.09961,0.09961h-1.55469c-0.05492,-0.00022 -0.09939,-0.04469 -0.09961,-0.09961v-5.38281c0.00022,-0.05492 0.04469,-0.09939 0.09961,-0.09961h5.64844c0.05492,0.00022 0.09939,0.04469 0.09961,0.09961v3.83203c1.06573,-0.37991 2.10797,-0.97874 3.12695,-1.80469c-0.91926,-1.00192 -1.63551,-2.06517 -2.1289,-3.19336h-0.73047c-0.05492,-0.00022 -0.09939,-0.04469 -0.09961,-0.09961v-1.4375c0.00022,-0.05492 0.04469,-0.09938 0.09961,-0.0996zM272.21095,195.85349c0.05492,0.00022 0.09939,0.04468 0.09961,0.0996v1.26563c-0.00022,0.05492 -0.04469,0.09939 -0.09961,0.09961h-4.96094c-0.05492,-0.00022 -0.09939,-0.04469 -0.09961,-0.09961v-1.26563c0.00022,-0.05492 0.04469,-0.09938 0.09961,-0.0996zM210.47071,197.40817c0.02777,0.0121 0.04856,0.03614 0.05654,0.06537c0.00797,0.02923 0.00226,0.06049 -0.01552,0.08502c-0.26985,0.3798 -0.4043,0.8015 -0.4043,1.27735c0,0.57604 0.26757,0.94517 0.84961,1.16406c0.65904,0.25347 1.57382,0.38477 2.73828,0.38477c1.26123,0 2.42772,-0.08424 3.5,-0.25c0.02735,-0.00433 0.05528,0.00288 0.07712,0.01991c0.02184,0.01703 0.03564,0.04235 0.03812,0.06993l0.17969,1.73437c0.00564,0.05302 -0.03131,0.10114 -0.08398,0.10938c-1.04852,0.16249 -2.29051,0.24219 -3.72656,0.24219c-1.80927,0 -3.17477,-0.26325 -4.09961,-0.80664c-0.92484,-0.5434 -1.39844,-1.37919 -1.39844,-2.46485c0,-0.85634 0.2292,-1.61169 0.68945,-2.2539c0.02774,-0.03916 0.07938,-0.05309 0.12305,-0.03321zM277.06056,199.03708c0.00066,0.00064 0.00131,0.00129 0.00195,0.00195c0.63377,-0.73275 1.06911,-1.39189 1.33203,-1.98633h-2.87891c0.40954,0.70601 0.90661,1.37487 1.54493,1.98438zM255.41017,199.95505c-0.00064,0.00066 -0.0013,0.00131 -0.00196,0.00195c-0.11427,0.15711 -0.16797,0.31924 -0.16797,0.49609c0,0.18211 0.06072,0.3338 0.19141,0.47266c0.13069,0.13886 0.33534,0.26262 0.61719,0.36328c0.40554,0.14019 0.96064,0.21289 1.66211,0.21289c0.25782,0 0.58586,-0.02358 0.93945,-0.05468c-0.18051,-0.64874 -0.41716,-1.17037 -0.73828,-1.4961c-0.34584,-0.35079 -0.76812,-0.52344 -1.28711,-0.52344c-0.5778,0 -0.96943,0.17606 -1.21484,0.52735zM268.56837,201.36911h2.32422v-1.70703h-2.32422z" stroke-linejoin="round"/></g></g></g></svg>