<svg xmlns="http://www.w3.org/2000/svg" viewBox="0 0 224 140" version="1.1" height="140" width="224">
 <rect stop-color="#000000" fill-opacity="0" height="140" width="224"></rect>
 <path fill-rule="evenodd" fill="#1d2a41" d="m10 30-10 2v98h224v-98l-10-2z"></path>
 <path stop-color="#000000" fill-rule="evenodd" fill="#e10000" d="m10 0h204c5.54 0 10 4.46 10 10v22h-224v-22c0-5.54 4.46-10 10-10z"></path>
 <path style="font-feature-settings:normal;font-variant-alternates:normal;font-variant-caps:normal;font-variant-east-asian:normal;font-variant-ligatures:normal;font-variant-numeric:normal;font-variant-position:normal;font-variation-settings:normal;inline-size:0;isolation:auto;mix-blend-mode:normal;shape-margin:0;shape-padding:0;text-decoration-color:#000000;text-decoration-line:none;text-decoration-style:solid;text-indent:0;text-orientation:mixed;text-transform:none;white-space:normal" stop-color="#000000" shape-rendering="auto" image-rendering="auto" fill="#fdffab" color-rendering="auto" color="#000000" d="m130.32 9.1387-0.0293 0.082031c-0.4006 1.1017-0.95019 1.9164-1.5625 2.6113 5e-3 -0.04857 0.00897-0.07833 0.01367-0.14062l0.00782-0.10742h-1.6406v-0.36133h1.9219v-1.2559h-1.9219v-0.67188h-1.6914v0.67188h-1.3008v-0.67188h-1.668v0.67188h-2.1484v1.2559h2.1484v0.085938l-0.45313-0.050782-0.0332 0.056641c-0.38618 0.66056-0.96225 1.2122-1.7363 1.6582l-0.0957 0.054688 0.94726 1.3242 0.08008-0.052734c0.18111-0.11936 0.37636-0.27288 0.57227-0.42969v1.5488h3.6621l0.0918 0.38476h-2.5742v1.0996h10.277v-1.0996h-3.2949c0.82749-0.22204 1.6079-0.48927 2.2148-0.91797 0.72314 0.48047 1.6358 0.9125 2.7617 1.293l0.07422 0.025391 0.92968-1.4512-0.13671-0.03125c-0.96118-0.2241-1.7778-0.53188-2.4805-0.90234 0.49851-0.62427 0.86883-1.2745 1.0918-1.9551h1.1133v-1.4512h-3.8086c0.11486-0.25628 0.22696-0.52071 0.33399-0.81055l0.04101-0.10938-1.707-0.35352zm-33.699 0.15625v1.4688h-3.2969v1.4355h3.2969v1.002h-4.6875v1.4668h4.6875v1.0254h-3.375v1.3887h3.375v0.91602h-3.8203v1.4824h3.8203v0.94726h-4.4922v1.5762h4.4922v2.6953h1.8789v-2.6953h4.8984v-1.5762h-4.8984v-0.94726h4.2578v-1.4824h-4.2578v-0.91602h3.9063v-2.4141h1.3594v-1.4668h-1.3594v-2.4375h-3.9063v-1.4688h-1.8789zm16.625 0v2.1719h-4.0938v5.1699c0 1.0739-0.0667 2.0421-0.20117 2.9004-0.2117 1.3735-0.6576 2.6126-1.3379 3.7207l-0.04492 0.070313 1.4141 1.291 0.06445-0.09961c0.7508-1.1656 1.2637-2.3881 1.5371-3.666 0.2146-1.0067 0.33178-2.2048 0.36719-3.5684h0.16211c0.50996 1.3908 1.3398 2.7198 2.4707 3.9902-1.0242 0.88786-2.2261 1.5909-3.6309 2.0879l-0.14062 0.050781 1.2402 1.3984 0.06641-0.027344c1.3871-0.57239 2.6219-1.3539 3.7207-2.3223 1.0695 0.84007 2.4017 1.5823 4.0234 2.2207l0.08203 0.03125 0.97656-1.7441-0.11523-0.037109c-1.52-0.49312-2.7565-1.091-3.7422-1.7793 0.99209-1.2805 1.8072-2.8143 2.416-4.6406l0.02148-0.064453-0.86133-0.74024h-2.5312v-2.5566h2.1914c-0.16375 0.51513-0.38185 1.03-0.69531 1.543l-0.06836 0.11133 1.791 0.5293 0.03711-0.076172c0.43491-0.89602 0.8144-1.8835 1.1387-2.9609l0.01953-0.0625-0.89062-0.76953h-3.5234v-2.1719h-1.8633zm26.195 0v1.6328h-2.5469v1.5762h2.5469v1.1426h-3.2031v1.5918h1.1738c0.2129 0.55849 0.39295 1.1492 0.54687 1.7676h-1.4004v1.5605h2.8828v1.2441h-2.7578v1.5918h2.7578v3.2969h1.832v-3.2969h2.5703v-1.5918h-2.5703v-1.2441h2.6719v-1.5605h-1.4668c0.24507-0.61671 0.44981-1.2079 0.60352-1.7676h0.95703v-1.5918h-2.7656v-1.1426h2.4297v-1.5762h-2.4297v-1.6328h-1.832zm-49.367 0.0625-1.3555 1.2773 0.085937 0.072265c0.90036 0.7503 1.6744 1.5702 2.3203 2.459l0.068359 0.09375 0.082032-0.082032 1.3281-1.3105-0.052734-0.070313c-0.62112-0.83693-1.4249-1.6321-2.4102-2.3867l-0.066406-0.052734zm-11.133 0.09375v3.7656h-6.3047v1.8965h6.2031c-0.20114 1.3915-0.77158 2.7807-1.748 4.1699-1.1927 1.6884-2.7569 2.9351-4.6992 3.7461l-0.11914 0.050781 1.2285 1.5938 0.070312-0.029297c1.8856-0.80886 3.4715-2.0673 4.752-3.7676 0.83016-1.0952 1.4221-2.3242 1.8379-3.6523 0.40533 0.98189 0.90796 1.9506 1.5547 2.8984 1.2735 1.8499 2.8627 3.3391 4.7656 4.4609l0.080078 0.046875 1.2344-1.7773-0.097656-0.052735c-1.7738-0.97222-3.2667-2.2912-4.4824-3.957-0.9668-1.3225-1.6008-2.5611-1.9648-3.7305h6.1309v-1.8965h-6.4375v-3.7656h-2.0039zm27.277 0.025391-1.3594 1.3164 0.08789 0.070312c0.99428 0.81303 1.8316 1.6825 2.5137 2.6074l0.07032 0.09375 0.08203-0.083984 1.375-1.3906-0.05664-0.070313c-0.78135-0.9544-1.6635-1.7859-2.6445-2.4941l-0.06836-0.048828zm38.051 0.38086v14.842h1.7852v-1.0117l0.80665 1.123 0.08203-0.074219c0.67608-0.60545 1.2789-1.2558 1.8242-1.9395 0.63428 0.71164 1.3405 1.337 2.1406 1.8535l0.08789 0.05664 0.97852-1.6328-0.08204-0.052735c-0.83206-0.5295-1.5174-1.1151-2.0762-1.75l0.04688-0.083984v-0.001953c0.7507-1.3129 1.2679-2.803 1.5508-4.4688l0.00977-0.056641-1.002-0.85742h-4.3672v-4.3379h3.2227v1.7812c0 0.08767-0.02034 0.13434-0.05664 0.16602-0.0363 0.03168-0.10308 0.054688-0.21094 0.054688-0.22104 0-0.77309-0.04503-1.6367-0.13867l-0.13476-0.015625 0.30469 1.6133 0.07617 0.00586c0.61737 0.05232 1.2342 0.080078 1.8516 0.080078 0.64117 0 1.0834-0.10846 1.3164-0.37109 0.19324-0.2174 0.27539-0.56196 0.27539-1.0273v-3.7559h-0.09961-6.6934zm-20.152 1.3652h1.3008v0.36133h-1.3008v-0.36133zm6.9395 0.64062h1.5566c-0.16496 0.41-0.36794 0.77159-0.61328 1.0801-0.35558-0.31554-0.66537-0.67939-0.94336-1.0801zm-32.557 0.33594h2.0742v1.002h-2.0742v-1.002zm24.359 0.54688h4.0938c-0.0829 0.87265-0.19849 1.5383-0.34765 1.8926l-0.00196 0.001953c-0.051 0.13181-0.11893 0.17773-0.26562 0.17773 5.8e-4 0-0.00877 4.3e-5 -0.00977 0v-1.7969h-3.7129c0.0865-0.09474 0.17741-0.19166 0.24414-0.27539zm5.7695 0.009765 0.73828 0.85938 0.07618-0.066406c0.21651-0.19298 0.43485-0.42564 0.65429-0.67578 0.29234 0.41613 0.5688 0.75305 0.83203 1.0215-0.64758 0.39402-1.4962 0.69206-2.6055 0.85547l-0.02539 0.003906c0.11422-0.40065 0.22194-1.0161 0.33007-1.998zm-17.66 0.39648h2.2773v2.5566h-2.2773v-2.5566zm-5.4375 0.16016-1.3418 1.3086 0.08594 0.070312c0.9109 0.75046 1.7362 1.602 2.4766 2.5547l0.07031 0.089844 0.08008-0.082032 1.3438-1.3594-0.05664-0.070312c-0.81729-0.99542-1.6806-1.8164-2.5898-2.4629l-0.06836-0.048828zm-16.045 0.013672-1.3438 1.3086 0.083984 0.072265c0.81655 0.69252 1.6001 1.5317 2.3516 2.5215l0.070312 0.091796 0.080078-0.080078 1.3613-1.3457-0.056641-0.070312c-0.80621-0.98944-1.6324-1.8042-2.4785-2.4453l-0.068359-0.052734zm33.818 0.74805h1.4805v0.29102h-1.4805v-0.29102zm-24.805 0.59375h2.0742v1.0254h-2.0742v-1.0254zm29.77 0.25976 0.57617 0.875h-1.4082c0.12482-0.050513 0.23283-0.11989 0.33007-0.19922 0.20118-0.1126 0.37829-0.24975 0.46876-0.47461v-0.001953c0.01169-0.02958 0.0217-0.16412 0.0332-0.19922zm10.865 0.31055h2.2168c-0.13348 0.5809-0.31485 1.1686-0.55469 1.7676h-1.1484c-0.18105-0.72136-0.3524-1.3016-0.51367-1.7676zm-18.834 1.9629v0.099609 1.1094h15.402v-1.209h-15.402zm-7.4844 0.083984h3.3867c-0.29151 0.92491-0.78143 1.8404-1.4766 2.7441-0.81633-0.83771-1.449-1.7528-1.9102-2.7441zm33.238 0.125h0.00782c0.3218 1.4282 0.86511 2.7413 1.6289 3.9375-0.52766 0.69642-1.0764 1.2171-1.6367 1.6289v-5.5664zm1.6582 0h1.7305c-0.1326 0.76268-0.40376 1.5298-0.77735 2.2988-0.3981-0.68954-0.72456-1.4481-0.95312-2.2988zm-56.645 0.30274-0.042968 0.12695c-0.70105 2.0408-1.5492 3.8754-2.5449 5.5039l-0.046875 0.074219 0.068359 0.05664 1.5605 1.2363 0.058594-0.10156c0.98807-1.7513 1.808-3.6671 2.4609-5.7461l0.021484-0.070312-1.5352-1.0801zm16.002 0.15234-0.04492 0.12109c-0.75306 2.0878-1.6163 3.8619-2.5898 5.3223l-0.05078 0.074218 0.06836 0.056641 1.5742 1.3438 0.06055-0.10352c0.99354-1.6838 1.8411-3.5664 2.541-5.6504l0.02344-0.072266-1.582-1.0918zm15.324 0.85156v0.099609 0.95312h11.223v-1.0527h-11.223zm0 1.3672v0.09961 0.92969h11.223v-1.0293h-11.223zm-0.61719 1.3359v3.2793h1.9414v-0.54688h8.5664v0.54688h1.9492v-3.2793h-0.09961-12.357zm1.9414 1.1152h8.5664v0.4707h-8.5664v-0.4707z"></path>
</svg>
