<svg xmlns="http://www.w3.org/2000/svg" viewBox="0 0 400 400" version="1.1" height="400" width="400"><defs><radialGradient gradientUnits="userSpaceOnUse" gradientTransform="translate(-40,20)" r="200" cy="180" cx="240" id="a"><stop offset="0" stop-color="#86046e"></stop><stop offset=".4" stop-color="#86046e"></stop><stop offset=".55" stop-opacity=".5607843" stop-color="#86046e"></stop><stop offset=".7" stop-opacity=".2509804" stop-color="#86046e"></stop><stop offset=".85" stop-opacity=".05882353" stop-color="#86046e"></stop><stop offset="1" stop-opacity="0" stop-color="#86046e"></stop></radialGradient></defs><g stroke-miterlimit="10"><path style="mix-blend-mode:normal" stroke-width="0" fill="none" d="m0 400v-400h400v400z"></path><path style="mix-blend-mode:normal" opacity=".09" fill-rule="evenodd" fill="url(#a)" d="m0 200c0-110.46 89.543-200 200-200s200 89.543 200 200-89.543 200-200 200-200-89.543-200-200z"></path><path style="mix-blend-mode:normal" stroke-width="15" stroke="#d855d1" fill="#86046e" d="m110.5 200c0-49.429 40.071-89.5 89.5-89.5s89.5 40.071 89.5 89.5-40.071 89.5-89.5 89.5-89.5-40.071-89.5-89.5z"></path></g><path style="font-feature-settings:normal;font-variant-alternates:normal;font-variant-caps:normal;font-variant-east-asian:normal;font-variant-ligatures:normal;font-variant-numeric:normal;font-variant-position:normal;font-variation-settings:normal;inline-size:0;isolation:auto;mix-blend-mode:normal;shape-margin:0;shape-padding:0;text-decoration-color:#000000;text-decoration-line:none;text-decoration-style:solid;text-indent:0;text-orientation:mixed;text-transform:none;white-space:normal" stop-color="#000000" shape-rendering="auto" image-rendering="auto" fill="#fff" color-rendering="auto" color="#000000" d="m200.36 145.58-0.75781 0.17809c-22.573 5.2964-38.802 16.364-48.447 33.158-5.739 9.9168-8.6315 19.951-8.6315 30.055 0 14.394 3.1138 25.695 9.4575 33.797h2e-3v2e-3c7.8362 9.9651 18.613 14.999 32.023 14.999 11.459 0 20.796-3.6934 27.774-11.056 6.5848-6.9278 9.8951-15.655 9.8951-25.987 0-10.113-3.7244-18.566-11.079-25.108l-2e-3 -2e-3c-6.7128-5.9432-14.86-8.9327-24.275-8.9327-10.456 0-18.625 3.8761-24.492 11.132 1.8775-7.9764 6.163-15.453 13.231-22.412 6.192-6.1111 16.494-11.33 30.911-15.514l1.1007-0.31828zm-17.041 55.108c5.7156 0 10.37 1.7563 14.154 5.3009 3.8309 3.5944 5.7575 8.5918 5.7575 15.236 0 5.8676-1.5779 10.612-4.7155 14.385-3.9239 4.6417-8.7977 6.9018-14.883 6.9018-6.9588 0-12.465-3.0703-16.829-9.4556-2.6902-3.9349-4.0202-8.2221-4.0202-12.957 0-4.335 1.6473-8.3496 5.066-12.17l4e-3 -4e-3c4.3085-4.8725 9.389-7.2371 15.467-7.2371z"></path><path style="font-feature-settings:normal;font-variant-alternates:normal;font-variant-caps:normal;font-variant-east-asian:normal;font-variant-ligatures:normal;font-variant-numeric:normal;font-variant-position:normal;font-variation-settings:normal;inline-size:0;isolation:auto;mix-blend-mode:normal;shape-margin:0;shape-padding:0;text-decoration-color:#000000;text-decoration-line:none;text-decoration-style:solid;text-indent:0;text-orientation:mixed;text-transform:none;white-space:normal" stop-color="#000000" shape-rendering="auto" image-rendering="auto" fill="#fff" color-rendering="auto" color="#000000" d="m226.32 148.36v22.28h-22.282v13.459h22.282v22.28h13.459v-22.28h22.28v-13.459h-22.28v-22.28h-0.97z"></path></svg>
