<svg version="1.1" xmlns="http://www.w3.org/2000/svg" xmlns:xlink="http://www.w3.org/1999/xlink" width="208" height="32" viewBox="0,0,208,32"><g transform="translate(-240,-164)"><g data-paper-data="{&quot;isPaintingLayer&quot;:true}" fill-rule="nonzero" stroke="none" stroke-linecap="butt" stroke-linejoin="miter" stroke-miterlimit="10" stroke-dasharray="" stroke-dashoffset="0" style="mix-blend-mode: normal"><path d="M240,196v-32h208v32z" fill="none" stroke-width="0"/><path d="M241.94,172.7h15.322v15.078h-15.322zM244.2154,174.7801v10.918h10.771v-10.918z" fill="#ffffff" stroke-width="1"/><path d="M267.8,175.67c-1.9206,-0.8594 -3.88023,-1.5788 -5.8789,-2.1582l0.63476,-1.9336c2.2526,0.55989 4.2285,1.24349 5.9277,2.0508zM265.798,180.67c-1.60153,-0.70313 -3.56117,-1.42253 -5.8789,-2.1582l0.83985,-1.9531c1.9922,0.52735 3.9258,1.22721 5.8008,2.0996zM261.1789,186.0509c2.66273,-0.22135 4.74933,-0.62499 6.2598,-1.2109c2.23307,-0.85287 3.98763,-2.3763 5.2637,-4.5703c0.85287,-1.46487 1.5267,-3.31707 2.0215,-5.5566l1.9727,1.1426c-0.63151,2.806 -1.51368,5.04233 -2.6465,6.709c-1.32813,1.9466 -3.18033,3.3854 -5.5566,4.3164c-1.6732,0.64453 -3.903,1.09699 -6.6894,1.3574z" fill="#ffffff" stroke-width="1"/><path d="M278.18,172.5h15.303l1.2598,1.0644c-0.36458,1.36067 -0.83985,2.49673 -1.4258,3.4082c-1.10027,1.72527 -2.7474,3.01433 -4.9414,3.8672l-1.2305,-1.6797c1.51693,-0.45573 2.7767,-1.2728 3.7793,-2.4512c0.59245,-0.6966 1.00585,-1.43227 1.2402,-2.207h-13.984zM284.4398,176.7188h2.2363v1.6797c0,2.51953 -0.27995,4.46613 -0.83985,5.8398c-0.7096,1.7448 -2.0898,3.16407 -4.1406,4.2578l-1.6113,-1.6992c1.41273,-0.67053 2.44463,-1.4713 3.0957,-2.4023c0.50131,-0.72267 0.83008,-1.48763 0.98633,-2.2949c0.18229,-0.92447 0.27344,-2.1647 0.27344,-3.7207z" fill="#ffffff" stroke-width="1"/><path d="M302.06,176.07v-2.7344h-5.8203v-1.8848h18.779v1.8848h-6.4551v2.7344h5.4785v13.164h-2.1191v-1.377h-12.607v1.377h-2.0996v-13.164zM304.0815,176.07h2.4609v-2.7344h-2.4609zM302.0503,177.8473h-2.7344v8.1543h12.607v-2.9297h-3.7012c-1.1198,0 -1.6797,-0.5599 -1.6797,-1.6797v-3.5449h-2.4805c-0.02607,1.6016 -0.26695,2.88417 -0.72266,3.8477c-0.42969,0.918 -1.27605,1.8262 -2.5391,2.7246l-1.3477,-1.5039c1.21093,-0.7422 1.9759,-1.66017 2.2949,-2.7539c0.16927,-0.58594 0.27018,-1.35744 0.30273,-2.3145zM308.564,177.8473v2.9883c0,0.25391 0.11393,0.38086 0.3418,0.38086h3.0176v-3.3691z" fill="#ffffff" stroke-width="1"/><path d="M322.61,172.75h4.1797v1.8848h-1.377c-0.2474,0.99607 -0.57943,2.041 -0.9961,3.1348h2.6074v1.8848h-10.898v-1.8848h2.3926c-0.26041,-1.25 -0.53385,-2.29493 -0.82031,-3.1348h-1.2695v-1.8848h4.1406v-2.2559h2.041zM319.6706,174.6348c0.33203,0.97007 0.58919,2.015 0.77148,3.1348h1.9922l0.09766,-0.27344c0.27995,-0.7422 0.54036,-1.5853 0.78125,-2.5293l0.0879,-0.33203zM325.7253,181.295v7.998h-2.002v-0.95703h-4.2578v1.1621h-2.0606v-8.2031zM319.4655,183.0919v3.3887h4.2578v-3.3887zM332.5125,178.1603c0.77473,0.73567 1.38997,1.61133 1.8457,2.627c0.44922,1.0156 0.67383,2.04423 0.67383,3.0859c0,0.96353 -0.17904,1.67317 -0.53711,2.1289c-0.37109,0.47526 -0.98306,0.71289 -1.8359,0.71289c-0.7292,0 -1.43557,-0.05208 -2.1191,-0.15625l-0.47852,-2.0801c0.78773,0.14323 1.43877,0.21485 1.9531,0.21485c0.39063,0 0.63477,-0.09115 0.73242,-0.27344c0.06513,-0.13021 0.0977,-0.39062 0.0977,-0.78125c0,-1.60807 -0.48177,-2.9948 -1.4453,-4.1602c-0.25391,-0.30599 -0.57292,-0.63476 -0.95703,-0.98633l0.11719,-0.27343c0.67707,-1.52993 1.2044,-3.125 1.582,-4.7852h-2.5v16.064h-2.0215v-18.086h5.8789l1.084,0.99609c-0.65755,2.2396 -1.34765,4.15693 -2.0703,5.752z" fill="#ffffff" stroke-width="1"/></g></g></svg>