<svg version="1.1" xmlns="http://www.w3.org/2000/svg" xmlns:xlink="http://www.w3.org/1999/xlink" width="64.5974" height="110.24559" viewBox="0,0,64.5974,110.24559"><g transform="translate(-266.83045,-52.8624)"><g data-paper-data="{&quot;isPaintingLayer&quot;:true}" fill="#ff0000" fill-rule="evenodd" stroke="none" stroke-width="0" stroke-linecap="round" stroke-linejoin="round" stroke-miterlimit="10" stroke-dasharray="" stroke-dashoffset="0" style="mix-blend-mode: normal"><path d="M309.51872,57.04227l1.01996,0.39998l0.76997,2.90988l-0.34999,1.34995l0.96996,0.09l1.97992,-1.04996l1.52994,-2.81989l0.78997,-0.21999l0.85997,-1.02996l0.63997,0.23999l2.20991,-0.1l0.32999,0.72997l1.25995,0.06l1.45994,1.08996l2.11992,-0.53998l0.74997,0.25999l1.54994,3.48986l0.49998,-0.12l0.96996,2.05992l1.61994,1.66993l0.38998,1.71993l0.53998,0.89996l-0.68997,0.94996l-0.54998,1.84993l-1.98992,1.12995l-0.84997,0.08l-2.76989,1.52994l-1.47994,-0.29999l-1.29995,-0.98996l-2.68989,1.96992l-2.00992,0.90996l-0.82997,-0.28999l-1.62993,0.49998l-0.93996,1.92992l-1.27995,-0.53998l-1.88992,1.70993l0.36999,1.53994l-0.12999,1.03996l-1.36995,-0.15999l-0.30999,-0.85997l-2.13991,0.24999l-0.34999,1.17995l0.41998,0.60998l1.28995,-0.11l-0.02,1.99992l-0.72997,1.22995l-0.92996,0.75997l0.05,1.07996l-1.36995,1.88992v1.49994l-1.08996,0.28999l-0.40998,1.36995l-0.63997,0.33999l-0.47998,2.13991l1.32995,-0.05l0.51998,0.69997l0.21999,2.4699l0.32999,0.79997l1.08996,0.14999l0.73997,1.08996l0.48998,1.52994l-0.92996,0.81997l1.52994,2.31991l0.04,1.57994l-1.17995,0.63997l-0.04,2.07992l0.88996,1.31995l2.78989,0.97996l-0.16999,1.25995l-1.56994,1.66993l2.67989,0.46998l0.43998,1.00996l-4.36982,0.98996l-0.89996,0.59998l0.13999,1.84993l2.95988,0.17999l0.17999,0.76997l1.55994,-0.13999l1.21995,1.07996l-0.14999,1.16995l0.71997,0.94996l0.66997,-0.31999l0.01,1.93992l1.14995,0.88996l0.19999,1.28995l-1.17995,0.05l-0.25999,1.82993l-0.65997,0.93996l-0.31999,1.57994l1.02996,0.29999l-0.31999,1.32995l-5.28979,0.71997l-0.21999,0.38998l-2.12991,0.70997l-1.21995,1.31995l-1.86993,-0.57998l-0.69997,0.27999l-0.09,1.12995l0.78997,0.91996l0.03,0.94996l0.90996,1.28995l0.97996,-0.40998l0.88996,1.12995l-0.1,0.64997l0.94996,1.25995l0.73997,0.22999l0.59998,1.03996l0.18999,1.59994l1.03996,0.70997l1.09996,1.53994l0.14999,1.29995l0.81997,0.92996l0.42998,1.90992l1.32995,0.12l1.06996,1.43994l0.22999,1.98992l-0.95996,1.20995l0.14999,1.18995l0.74997,1.23995l-1.35995,1.38994l-1.02996,0.45998l-0.01,0.79997l-0.79997,1.46994l-1.62993,-0.57998l-0.98996,-1.27995l-2.23991,-0.85997l-0.91996,0.83997l-0.69997,-0.32999l-1.83993,0.47998l-0.55998,-0.50998l-2.12991,-0.59998l0.41998,-2.28991l-0.36999,-0.79997l-2.6199,0.30999l-2.4099,1.03996l-0.68997,-1.55994l-1.40994,-0.21999l-1.28995,-0.66997l-0.19999,-1.22995l-1.21995,-0.68997l-2.91988,-0.47998l-1.09996,-0.77997l0.45998,-0.88996l-0.55998,-1.74993l0.06,-2.5699l-5.42978,1.32995l-1.01996,0.92996l-0.31999,1.32995l-4.62981,-1.50994l-0.23999,0.55998l-3.96984,-0.76997l-3.63985,0.07l1.54994,-1.95992l0.06,-1.98992l0.84997,-0.78997l1.07996,-3.40986l-0.13999,-2.33991l-1.10996,-0.61998l0.36999,-1.51994l0.66997,-1.02996l1.17995,-3.15987l-0.48998,-1.34995l0.92996,-2.5999l1.14995,-1.28995l1.93992,-0.1l1.59994,-0.65997l0.77997,-1.09996l2.29991,-4.9898l1.62993,-5.0298l0.83997,-3.16987l1.20995,-5.91976l1.13995,-6.13975l0.57998,-4.35983l-0.1,-1.23995l0.62997,-3.14987l0.49998,-5.76977l0.18999,-5.67977l-0.31999,-5.69977l-0.05,-2.90988l-0.52998,-2.35991l-0.76997,-1.38994l0.43998,-1.51994l-0.13999,-1.67993l-1.26995,0.34999l-0.31999,-1.24995l0.50998,-0.97996l-0.44998,-2.06992l2.16991,-0.32999l-0.08,-2.82989l-0.61998,-2.05992l0.75997,-0.90996l0.98996,0.14999l0.62997,-0.92996l0.83997,1.68993l1.77993,0.44998l0.92996,-0.14999l0.94996,-1.09996l1.53994,0.75997l1.42994,0.02l0.80997,-0.62997l1.12995,0.62997l1.96992,-0.46998l1.26995,-0.93996l0.13999,-1.08996l0.76997,-0.14999l1.45994,0.52998l1.10996,2.5299l1.68993,1.81993l0.81997,-0.30999l1.48994,0.33999l0.79997,-0.98996l1.46994,0.25999"/></g></g></svg>