<?xml version="1.0" encoding="UTF-8"?>
<svg width="480" height="360" version="1.1" viewBox="0 0 480 360" xmlns="http://www.w3.org/2000/svg">
 <g dominant-baseline="central" fill="#fff" aria-label="相模湾">
  <path d="m243.54 180.82q-0.84961 2.5293-2.2363 4.7852l-1.1035-2.168q2.1875-2.998 3.1543-6.8555h-2.7539v-1.9238h2.9395v-4.1602h2.041v4.1602h2.4414v1.9238h-2.4414v1.6797q1.582 1.1426 2.959 2.6172l-1.123 1.8652q-0.77149-1.0547-1.8359-2.2168v8.9746h-2.041zm14.883-9.3652v18.047h-2.041v-1.6016h-5.1953v1.6016h-2.0215v-18.047zm-7.2363 1.8359v3.0273h5.1953v-3.0273zm0 4.8047v2.9785h5.1953v-2.9785zm0 4.7168v3.2324h5.1953v-3.2324z" dominant-baseline="central"/>
  <path d="m263.1 180.7q-0.91797 2.6758-2.0801 4.7168l-0.82031-2.2949q1.8262-3.0469 2.7148-6.6992h-2.4121v-1.9043h2.5976v-4.0234h2.002v4.0234h1.7969v1.9043h-1.7969v1.6699q1.2598 1.0352 2.4512 2.373l-1.0156 1.7383q-0.76172-1.123-1.4355-1.9336v9.2285h-2.002zm13.115-6.0058h2.1484v6.8848h-4.4238v1.1328h5.6055v1.7188h-5.1172q2.0117 2.5488 5.3125 3.3008l-1.0645 1.7969q-1.9434-0.50781-3.5742-1.8164-1.1426-0.9082-1.9629-2.2363-0.76172 1.5625-2.0801 2.5293-1.3965 1.0156-3.7598 1.6211l-1.2012-1.5918q2.4121-0.54688 3.7012-1.3574 1.2402-0.78125 1.9434-2.2461h-5.2832v-1.7188h5.4785v-1.1328h-4.2383v-6.8848h2.0801v-1.1035h-2.959v-1.6602h2.959v-1.4355h1.8945v1.4355h2.5879v-1.4355h1.9531v1.4355h3.0078v1.6602h-3.0078zm-1.9531 0v-1.1035h-2.5879v1.1035zm2.1191 1.4648h-6.7188v1.2598h6.7188zm-6.7188 2.6562v1.2988h6.7188v-1.2988z" dominant-baseline="central"/>
  <path d="m295.09 173.8v3.7793q0 0.64454-0.27344 0.94727-0.32226 0.35156-1.4258 0.35156-1.0547 0-1.7285-0.11718l-0.25391-1.6211q0.77148 0.15625 1.2988 0.15625 0.2832 0 0.36133-0.13672 0.0586-0.11718 0.0586-0.38086v-2.9785h-1.7383q-0.0781 2.0605-0.54688 3.1641-0.51757 1.2012-2.1387 2.1973l-1.3965-1.2402q1.4648-0.76172 1.8848-1.9629 0.25391-0.75195 0.3125-2.1582h-3.8574v-1.6602h5.5566v-1.6406h2.1484v1.6406h6.1328v1.6602zm3.0176 5.5371v3.9648h-9.6387q-0.0781 0.53711-0.18555 1.0742h10.664q-0.24414 2.6856-0.67383 3.6816-0.625 1.4453-2.9297 1.4453-1.9141 0-4.1113-0.16601l-0.36133-1.7774q2.0996 0.22461 3.7598 0.22461 0.89843 0 1.1816-0.20508 0.43945-0.32226 0.68359-1.6797h-8.5938q-0.10742 0.40039-0.37109 1.2012l-2.0996-0.41992q0.74218-2.2266 1.1133-4.8145h9.4238v-1.0449h-10v-1.4844zm-14.365-4.3164q-1.084-1.5039-2.7734-2.9785l1.4551-1.3867q1.5332 1.123 2.8809 2.8613zm-0.5957 5.0391q-1.5039-1.9043-2.9199-3.1055l1.4648-1.416q1.4648 1.123 3.0176 2.9004zm-2.5195 7.9004q1.7188-2.6758 3.2617-6.8652l1.6016 1.1816q-1.2793 3.877-3.0664 7.2461zm17.402-9.3652q-1.2793-2.0703-2.6855-3.5742l1.4844-0.95703q1.7188 1.5625 2.7832 3.418zm-13.662-1.1719q1.4258-1.1719 2.3438-3.1055l1.7774 0.66406q-0.95703 2.1777-2.6465 3.6328z" dominant-baseline="central"/>
 </g>
</svg>
