<?xml version="1.0" encoding="UTF-8"?>
<svg width="480" height="360" version="1.1" viewBox="0 0 480 360" xmlns="http://www.w3.org/2000/svg">
 <g dominant-baseline="central" fill="#fff" aria-label="鹿児島県大隅地方">
  <path d="m245.19 187.08v-5.8398h2.041v1.6406h3.7012v1.6797h-3.7012v2.2168q2.4024-0.39062 3.8184-0.71289l0.0586 1.6406q-3.2227 0.91797-7.2949 1.4941l-0.5664-1.875q1.0449-0.11719 1.9434-0.24414zm5.9277-14.961h7.8516v1.6797h-5.5664v1.7188h4.8633v5.127h-14.58q-0.0586 3.0859-0.3125 4.8144-0.32227 2.207-1.2891 4.0234l-1.7969-1.4551q0.91797-1.8066 1.1719-4.2969 0.18554-1.8262 0.18554-4.9121v-6.6992h7.3047v-1.6211h2.168zm-7.4121 1.6797v1.7188h2.9004v-1.7188zm0 3.2812v2.002h2.9004v-2.002zm12.5 2.002v-2.002h-2.8027v2.002zm-7.5976-5.2832v1.7188h2.793v-1.7188zm0 3.2812v2.002h2.793v-2.002zm5.0976 6.2012q2.1191-0.72266 3.6621-1.6797l1.2988 1.582q-2.1973 1.0742-4.9609 1.8262v1.4844q0 0.58594 0.36133 0.68359 0.30273 0.0879 1.4356 0.0879 1.3574 0 1.5918-0.2832 0.21485-0.2539 0.3125-1.7383l0.0195-0.30273 2.002 0.53711q-0.0195 0.12695-0.0586 0.72265-0.14648 1.9043-0.84961 2.4609-0.69335 0.55664-3.4863 0.55664-1.9727 0-2.627-0.29297-0.72265-0.33203-0.72265-1.4258v-6.2598h2.0215z" dominant-baseline="central"/>
  <path d="m277.58 171.07v9.7266h-10.117v-9.7266zm-7.998 1.7578v2.2266h5.8594v-2.2266zm0 3.9062v2.3438h5.8594v-2.3438zm-6.9629-6.0449h2.2559v10.84h-2.2559zm-2.0606 17.041q2.5293-0.2539 4.1113-1.4355 1.084-0.81055 1.4453-2.1973 0.20508-0.80078 0.2832-2.3438h2.1582q-0.0293 3.6621-1.5918 5.4199-1.5234 1.709-5.1074 2.4414zm10.547-6.0352h2.1973v4.834q0 0.50782 0.32227 0.60547 0.34179 0.10742 1.3672 0.10742 1.1035 0 1.4746-0.11718 0.39063-0.12696 0.50782-0.77149 0.13671-0.66406 0.16601-2.041l2.2266 0.64453q-0.0391 0.37109-0.11718 1.3379-0.17578 2.0312-0.90821 2.5391-0.41015 0.27344-1.1816 0.3418-1.0644 0.0879-2.6074 0.0879-2.1387 0-2.793-0.38086-0.65429-0.39063-0.65429-1.5332z" dominant-baseline="central"/>
  <path d="m287.74 171.98q0.36133-0.86914 0.58594-1.6602l2.3828 0.32226q-0.3418 0.81055-0.625 1.3379h6.5039v6.3672h-11.797v0.98633h14.697v1.582h-14.697v0.99609h14.014q-0.12695 4.4727-0.5664 6.0352-0.28321 0.99609-1.0645 1.3184-0.55664 0.23437-1.6992 0.23437-1.1719 0-2.1875-0.14648l-0.39063-1.6406h-9.7852v1.084h-2.0996v-4.6973h2.0996v2.0117h3.3594v-2.6367h-3.8379v-11.494zm4.1504 14.131v-2.0117h2.0215v3.3984q0.81054 0.0781 1.3476 0.0781 0.66406 0 0.83008-0.38085 0.32227-0.7129 0.50781-3.7207h-8.0273v2.6367zm-7.0996-12.627v0.96679h9.6387v-0.96679zm0 2.3633v1.0644h9.6387v-1.0644z" dominant-baseline="central"/>
  <path d="m316.76 170.98v9.4629h-11.621v-9.4629zm-9.5215 1.543v1.2207h7.4023v-1.2207zm0 2.5977v1.2207h7.4023v-1.2207zm0 2.5976v1.2598h7.4023v-1.2598zm-3.9356 4.0234h16.191v1.6992h-8.0762v6.0644h-2.2168v-6.0644h-8.0371v-10.957h2.1387zm-2.5 5.8984q2.3242-1.0742 4.4434-3.6035l1.7969 1.0449q-2.0898 2.6465-4.6387 4.1602zm16.836 1.2598q-1.4941-1.8359-4.4922-3.8574l1.6797-1.1816q2.3535 1.3574 4.6191 3.5644z" dominant-baseline="central"/>
  <path d="m331.36 177.52q0.67383 2.2852 2.5586 4.8633 2.2949 3.1445 5.6445 4.9805l-1.3965 2.0117q-3.5449-2.0898-5.918-5.5371-1.2793-1.875-2.0508-3.8184-0.77148 2.6172-2.3926 4.7559-2.3828 3.1641-5.8887 4.668l-1.377-1.7871q3.6719-1.5332 5.9277-4.7266 1.8945-2.6953 2.2461-5.4102h-7.793v-2.1191h7.8809v-4.707h2.2559v4.707h8.0469v2.1191z" dominant-baseline="central"/>
  <path d="m343 185.18v4.3262h-1.9629v-18.223h5.1465l0.97656 0.83984q-0.80078 3.1055-1.9043 5.5469 1.3672 2.041 1.3672 4.5801 0 1.6211-0.49804 2.373-0.46875 0.70313-1.7188 0.70313-0.90821 0-1.4062-0.14649zm0-1.8652q0.55664 0.0879 0.98632 0.0879 0.47852 0 0.625-0.44922 0.12696-0.39063 0.12696-1.1328 0-2.041-1.2793-4.043 1.0254-2.4609 1.582-4.6582h-2.041zm11.865 1.0059q-0.17578-0.63477-0.44922-1.3574l1.2109-0.45898q0.76172 1.709 1.2207 3.9551l-1.4551 0.625q-0.10742-0.72266-0.23437-1.2988-2.4707 0.49805-5.4883 0.73242l-0.38086-1.7773q1.7285-0.0684 2.5781-0.13672 0.14649-0.01 0.24414-0.0195v-2.4609h-3.2226v7.3828h-1.8555v-9.1016h5.0781v-1.3184h-4.3359v-7.7246h10.361v7.7246h-4.3457v1.3184h5.2832v7.2949q0 1.0254-0.66407 1.377-0.46875 0.2539-1.4258 0.2539-0.97656 0-2.0703-0.14648l-0.26367-1.8652q0.30273 0.0391 1.0547 0.14649 0.56641 0.0781 0.98633 0.0781 0.33203 0 0.41016-0.22461 0.0488-0.12695 0.0488-0.38086v-4.8144h-3.418v2.3242q0.60547-0.0684 1.1328-0.12695zm-5.2344-11.318v1.3965h2.4805v-1.3965zm0 2.9394v1.5625h2.4805v-1.5625zm6.6406 1.5625v-1.5625h-2.4805v1.5625zm0-3.1055v-1.3965h-2.4805v1.3965z" dominant-baseline="central"/>
  <path d="m370.23 178.41v7.7344q0 0.75195 0.64454 0.9082 0.66406 0.16602 3.0371 0.16602 2.3144 0 3.0566-0.23438 0.41992-0.13672 0.54687-0.76172 0.16602-0.8789 0.17578-2.0801l2.041 0.57618q-0.15625 2.8809-0.79102 3.6816-0.41992 0.52734-1.2695 0.625-1.3379 0.14648-4.541 0.14648-2.4805 0-3.252-0.13672-1.1621-0.19531-1.4746-1.0254-0.15625-0.43945-0.15625-1.1719v-7.7441l-1.8652 0.64453-0.45899-1.8945 2.3242-0.80078v-5.2637h1.9824v4.5801l2.0996-0.71289v-5.1465h1.9629v4.4629l3.2715-1.123 1.0254 0.625v7.3144q0 0.76172-0.36133 1.1328-0.41015 0.41015-1.377 0.41015-0.79102 0-1.6797-0.13672l-0.32226-1.8652q0.57617 0.14648 1.1719 0.14648 0.42969 0 0.52734-0.17578 0.0977-0.14648 0.0977-0.48828v-4.6191l-2.3535 0.82031v7.9004h-1.9629v-7.2266zm-7.1777-3.1934v-4.7168h2.0996v4.7168h1.8945v1.9824h-1.8945v6.2109q1.0254-0.35156 2.0312-0.73242l0.18555 1.8848q-3.1641 1.4453-6.4941 2.4219l-0.6836-2.0801q1.5039-0.39062 2.6367-0.74218 0.13672-0.0488 0.22461-0.0684v-6.8945h-2.4805v-1.9824z" dominant-baseline="central"/>
  <path d="m389.48 175.76q-0.0684 1.6309-0.19531 2.8711h7.8711q-0.14648 6.7774-0.76172 8.7988-0.3125 1.0156-1.1621 1.4062-0.66406 0.30273-1.9434 0.30273-1.3477 0-3.0566-0.20507l-0.38085-2.1973q2.2949 0.32227 3.2324 0.32227 0.79101 0 1.0059-0.44922 0.51757-1.0938 0.72265-6.0352h-5.8105q-0.32227 1.7578-0.90821 3.0469-1.6309 3.5644-5.4492 5.6543l-1.543-1.7188q3.8281-1.9922 5.0586-5.2246 0.82031-2.1582 1.0644-6.5723h-6.4648v-2.002h7.9785v-3.2617h2.2559v3.2617h8.2422v2.002z" dominant-baseline="central"/>
 </g>
</svg>
