<?xml version="1.0" encoding="UTF-8"?>
<svg width="480" height="360" version="1.1" viewBox="0 0 480 360" xmlns="http://www.w3.org/2000/svg">
 <g dominant-baseline="central" fill="#fff" aria-label="岩手県沖">
  <path d="m247 181.93h10.762v7.5684h-2.1582v-1.0644h-9.2774v1.0644h-2.0996v-4.834q-1.1426 0.92773-2.5879 1.7676l-1.3965-1.6797q1.543-0.73242 2.8125-1.7188 2.0801-1.6309 3.3398-3.6426h-5.8887v-1.7383h18.994v1.7383h-10.713q-0.70312 1.25-1.7871 2.5391zm-0.67383 1.6797v3.1445h9.2774v-3.1445zm4.7754-9.3945h4.5801v-2.9004h2.1191v4.5606h-15.4v-4.5606h2.0996v2.9004h4.4629v-3.7207h2.1387z" dominant-baseline="central"/>
  <path d="m271.23 173.24v3.1543h7.0898v1.9238h-7.0898v2.6953h8.2715v1.9629h-8.2715v4.3945q0 1.1719-0.6543 1.6211-0.49805 0.3418-1.6602 0.3418-1.9043 0-3.7207-0.19532l-0.38086-2.0996q2.2559 0.29296 3.4082 0.29296 0.54687 0 0.68359-0.20507 0.0879-0.14649 0.0879-0.48829v-3.6621h-8.4961v-1.9629h8.4961v-2.6953h-7.5v-1.9238h7.5v-2.8711l-0.53711 0.0586q-2.793 0.30274-5.8398 0.46875l-0.83985-1.8164q7.7344-0.32227 14.062-1.7188l1.2207 1.6797q-2.7344 0.61523-5.8301 1.0449z" dominant-baseline="central"/>
  <path d="m296.76 170.98v9.4629h-11.621v-9.4629zm-9.5215 1.543v1.2207h7.4023v-1.2207zm0 2.5977v1.2207h7.4023v-1.2207zm0 2.5976v1.2598h7.4023v-1.2598zm-3.9356 4.0234h16.191v1.6992h-8.0762v6.0644h-2.2168v-6.0644h-8.0371v-10.957h2.1387zm-2.5 5.8984q2.3242-1.0742 4.4434-3.6035l1.7969 1.0449q-2.0898 2.6465-4.6387 4.1602zm16.836 1.2598q-1.4941-1.8359-4.4922-3.8574l1.6797-1.1816q2.3535 1.3574 4.6191 3.5644z" dominant-baseline="central"/>
  <path d="m311.58 174.14v-3.6426h2.0996v3.6426h5.293v8.8379h-5.293v6.5234h-2.0996v-6.5234h-5.1856v-8.8379zm-3.1641 1.9434v4.9707h3.1641v-4.9707zm8.4766 4.9707v-4.9707h-3.2129v4.9707zm-12.5-5.7812q-1.1914-1.6602-3.1543-3.1738l1.4551-1.4844q1.9531 1.377 3.3008 3.0859zm-0.63476 5.0195q-1.6992-1.9727-3.3008-3.2324l1.5039-1.5039q1.709 1.2012 3.3789 3.1055zm-3.0371 7.5684q1.875-2.666 3.457-6.6406l1.7383 1.3379q-1.3379 3.6621-3.2617 6.8945z" dominant-baseline="central"/>
 </g>
</svg>
