<?xml version="1.0" encoding="UTF-8"?>
<svg width="480" height="360" version="1.1" viewBox="0 0 480 360" xmlns="http://www.w3.org/2000/svg">
 <g dominant-baseline="central" fill="#fff" aria-label="石垣島北西沖">
  <path d="m246.66 178.9h11.152v10.605h-2.2559v-1.3476h-9.4043v1.3476h-2.2168v-7.2266q-1.2109 1.2012-2.5977 2.2949l-1.2012-1.875q2.6758-1.8652 4.5508-4.6387 1.4551-2.1582 2.2754-4.4727h-5.9863v-1.9434h18.125v1.9434h-9.7461q-1.0449 2.8223-2.6953 5.3125zm-0.50782 1.9043v5.4102h9.4043v-5.4102z" dominant-baseline="central"/>
  <path d="m263.14 175.27v-4.7754h2.0606v4.7754h1.9141v1.9629h-1.9141v6.4355q1.0938-0.37109 1.9922-0.71289l0.17578 1.9141q-2.959 1.3574-6.4453 2.3828l-0.64453-2.1387q1.6895-0.42969 2.8613-0.79102v-7.0898h-2.5391v-1.9629zm14.863-0.0391v9.8242h-9.9414v-9.8242zm-7.9004 1.6602v2.4219h5.8203v-2.4219zm0 4.0039v2.4805h5.8203v-2.4805zm-3.3106-9.2578h12.285v1.7969h-12.285zm-0.61523 15.283h13.32v1.8164h-13.32z" dominant-baseline="central"/>
  <path d="m287.74 171.98q0.36133-0.86914 0.58594-1.6602l2.3828 0.32226q-0.3418 0.81055-0.625 1.3379h6.5039v6.3672h-11.797v0.98633h14.697v1.582h-14.697v0.99609h14.014q-0.12695 4.4727-0.5664 6.0352-0.28321 0.99609-1.0645 1.3184-0.55664 0.23437-1.6992 0.23437-1.1719 0-2.1875-0.14648l-0.39063-1.6406h-9.7852v1.084h-2.0996v-4.6973h2.0996v2.0117h3.3594v-2.6367h-3.8379v-11.494zm4.1504 14.131v-2.0117h2.0215v3.3984q0.81054 0.0781 1.3476 0.0781 0.66406 0 0.83008-0.38085 0.32227-0.7129 0.50781-3.7207h-8.0273v2.6367zm-7.0996-12.627v0.96679h9.6387v-0.96679zm0 2.3633v1.0644h9.6387v-1.0644z" dominant-baseline="central"/>
  <path d="m305.84 184.3q-2.6953 1.416-4.6973 2.168l-0.82031-2.1484q3.1348-1.0547 5.5176-2.1875v-4.375h-4.834v-2.0606h4.834v-5.1953h2.1777v19.004h-2.1777zm6.9434-7.6074q2.2754-1.1914 4.4141-3.0273l1.6211 1.6992q-2.8906 2.0508-6.0352 3.4961v7.3242q0 0.47852 0.3125 0.58594 0.33203 0.10742 1.5332 0.10742 1.582 0 1.9824-0.18555 0.2832-0.12695 0.39062-0.79101 0.14649-0.92774 0.21485-2.998l2.1875 0.67383q-0.0977 2.5293-0.3125 3.6328-0.24414 1.2305-1.2793 1.5918-0.98633 0.33203-3.2324 0.33203-2.6367 0-3.3203-0.43945-0.6543-0.42969-0.6543-1.6504v-16.543h2.1777z" dominant-baseline="central"/>
  <path d="m326.44 176.07v-2.7344h-5.8203v-1.8848h18.779v1.8848h-6.4551v2.7344h5.4785v13.164h-2.1191v-1.377h-12.607v1.377h-2.0996v-13.164zm2.0215 0h2.4609v-2.7344h-2.4609zm-2.0312 1.7773h-2.7344v8.1543h12.607v-2.9297h-3.7012q-1.6797 0-1.6797-1.6797v-3.5449h-2.4805q-0.0391 2.4024-0.72266 3.8477-0.64453 1.377-2.5391 2.7246l-1.3477-1.5039q1.8164-1.1133 2.2949-2.7539 0.2539-0.87891 0.30273-2.3145zm6.5137 0v2.9883q0 0.38086 0.3418 0.38086h3.0176v-3.3691z" dominant-baseline="central"/>
  <path d="m351.58 174.14v-3.6426h2.0996v3.6426h5.293v8.8379h-5.293v6.5234h-2.0996v-6.5234h-5.1856v-8.8379zm-3.1641 1.9434v4.9707h3.1641v-4.9707zm8.4766 4.9707v-4.9707h-3.2129v4.9707zm-12.5-5.7812q-1.1914-1.6602-3.1543-3.1738l1.4551-1.4844q1.9531 1.377 3.3008 3.0859zm-0.63476 5.0195q-1.6992-1.9727-3.3008-3.2324l1.5039-1.5039q1.709 1.2012 3.3789 3.1055zm-3.0371 7.5684q1.875-2.666 3.457-6.6406l1.7383 1.3379q-1.3379 3.6621-3.2617 6.8945z" dominant-baseline="central"/>
 </g>
</svg>
