<svg version="1.1" xmlns="http://www.w3.org/2000/svg" xmlns:xlink="http://www.w3.org/1999/xlink" width="108.8041" height="242.41273" viewBox="0,0,108.8041,242.41273"><g transform="translate(-213.15538,57.09779)"><g data-paper-data="{&quot;isPaintingLayer&quot;:true}" fill="none" fill-rule="evenodd" stroke="#d645ff" stroke-width="72" stroke-linecap="round" stroke-linejoin="round" stroke-miterlimit="4" stroke-dasharray="" stroke-dashoffset="0" style="mix-blend-mode: normal"><g><path d="M266.05267,49.25095l-0.49992,-0.66989l3.87938,-0.86986l5.28915,1.62974l5.15917,4.9692l2.68957,4.69925l1.33979,4.24932l-0.40993,2.34962l2.10966,5.73908l0.34994,7.73876l-0.16997,6.54895l-1.60974,14.51768l-2.34962,12.05807l-1.64974,5.90905l-1.91969,4.89922l-1.97968,3.47944l-3.7394,0.86986l-1.8797,3.7794l0.50992,1.2198l-2.23964,5.83907l1.2498,2.95953l-1.98968,6.18901l-1.54975,1.95969"/><path d="M273.31151,-21.09779l1.17981,1.94969l3.20949,2.30963l0.27996,1.44977l3.03951,1.70973l1.17981,2.43961l-0.10998,5.07919l-1.8897,13.49784l-1.67973,1.45977l0.37994,3.19949l-1.61974,5.6291l-2.69957,7.05887l-2.5196,4.91921l-5.10918,6.82891l-2.75956,2.32963l-3.55943,1.70973l-2.34962,-0.39994l-2.05967,-1.83971l-4.17933,-0.86986l-2.17965,-3.27948l-0.70989,3.59942l2.41961,4.32931l-1.57975,0.33995l1.54975,3.96936l1.62974,0.98984l0.76988,4.86922l3.20949,0.92985l1.55975,-0.83987l3.08951,1.10982l3.99936,-0.97984l-1.41977,-1.65973l1.66973,-1.48976"/></g></g></g></svg>