<svg version="1.1" xmlns="http://www.w3.org/2000/svg" xmlns:xlink="http://www.w3.org/1999/xlink" width="400" height="400" viewBox="0,0,400,400"><g transform="translate(-40,20)"><g data-paper-data="{&quot;isPaintingLayer&quot;:true}" stroke="none" stroke-linecap="butt" stroke-linejoin="miter" stroke-miterlimit="10" stroke-dasharray="" stroke-dashoffset="0" style="mix-blend-mode: normal"><path d="M40,380v-400h400v400z" fill="none" fill-rule="nonzero" stroke-width="0"/><path d="M190.0001,100h100c16.62,0 30,13.38 30,30v100c0,16.62 -13.38,30 -30,30h-100c-16.62,0 -30,-13.38 -30,-30v-100c0,-16.62 13.38,-30 30,-30z" fill="#86046e" fill-rule="evenodd" stroke-width="0"/><g fill="#ffffff" fill-rule="nonzero" stroke-width="1" opacity="0.75"><path d="M240.38115,123.90148l6.918,14.422l-1.1348,0.32812c-14.863,4.313 -25.4835,9.6938 -31.867,15.994c-7.2874,7.174 -11.7054,14.8819 -13.641,23.105c6.049,-7.481 14.47,-11.477 25.25,-11.477c9.705,0 18.1046,3.082 25.025,9.209l0.002,0.002c7.5824,6.745 11.422,15.459 11.422,25.885c0,10.652 -3.4125,19.6489 -10.201,26.791c-7.194,7.5903 -16.819,11.398 -28.633,11.398c-13.825,0 -24.9354,-5.19 -33.014,-15.463v-0.002h-0.002c-6.5399,-8.352 -9.75,-20.002 -9.75,-34.842c0,-10.416 2.982,-20.76 8.8984,-30.984c9.942,-17.313 26.674,-28.7238 49.945,-34.184l0.78125,-0.1836zM222.8113,180.7121c-6.2656,0 -11.5033,2.4377 -15.945,7.4609l-0.004,0.004c-3.5244,3.9392 -5.2226,8.0779 -5.2226,12.547c0,4.8806 1.3711,9.3004 4.1445,13.357c4.5,6.5827 10.176,9.748 17.35,9.748c6.2742,0 11.2987,-2.33 15.344,-7.1152c3.2346,-3.89 4.8613,-8.7809 4.8613,-14.83c0,-6.8495 -1.9861,-12.0014 -5.9355,-15.707c-3.901,-3.6542 -8.6996,-5.4648 -14.592,-5.4648z"/><path d="M280.005,126.76h1v22.969h22.969v13.875h-22.969v22.969h-13.875v-22.969h-22.971v-13.875h22.971v-22.969z"/></g></g></g></svg>