<svg version="1.1" xmlns="http://www.w3.org/2000/svg" xmlns:xlink="http://www.w3.org/1999/xlink" width="46.71812" height="37.95848" viewBox="0,0,46.71812,37.95848"><g transform="translate(-487.10507,-2.90353)"><g data-paper-data="{&quot;isPaintingLayer&quot;:true}" fill="#ff0000" fill-rule="evenodd" stroke="none" stroke-width="0" stroke-linecap="round" stroke-linejoin="round" stroke-miterlimit="10" stroke-dasharray="" stroke-dashoffset="0" style="mix-blend-mode: normal"><path d="M533.82319,24.82266l-1.04996,2.4799l-0.54998,0.45998l-1.87992,0.47998l-2.70989,1.38994l-1.38994,0.41998l0.96996,0.93996l-0.05,1.46994l0.87996,1.53994l-1.01996,1.64993l-0.24999,1.14995l-0.77997,0.67997l-1.77993,-0.94996l-0.98996,0.38998l-2.27991,-0.87996l-1.21995,-1.25995l-1.39994,-1.01996l-1.30995,0.03l-0.96996,1.61994l-1.54994,0.33999l-0.63997,-0.46998l-1.08996,0.34999l-1.35995,0.98996l-1.14995,1.72993l0.1,0.65997l-1.74993,0.72997l-1.54994,-0.46998l-1.88992,1.58994l-1.22995,-0.87996l-1.02996,-1.26995l-0.66997,-0.18999l-0.60998,-0.71997l-1.11996,-0.33999l-1.29995,0.62997l-0.38998,-0.42998l-1.48994,0.41998l-0.51998,-0.94996l-1.13995,-0.25999l-0.78997,-2.5999l-1.18995,-0.88996l-1.14995,0.15999l-1.65993,-0.30999l-2.00992,-0.93996l0.01,-0.97996l0.93996,-1.45994l0.08,-1.24995l-0.81997,-0.73997l-0.54998,-1.53994l-1.13995,-0.97996l-0.27999,-0.70997l0.12,-1.73993l0.41998,-0.92996l1.53994,-0.66997l1.15995,-1.45994l0.97996,-2.24991l0.08,-0.76997l1.46994,-0.52998l1.14995,0.23999l1.03996,0.91996l1.11996,-0.48998l1.18995,-0.03l1.43994,-0.46998l0.36999,-1.26995l1.05996,-0.99996l0.31999,-1.33995l1.54994,-0.58998l0.27999,-0.69997l2.23991,-0.87996l1.11996,-0.79997l1.83993,-0.38998l1.51994,0.69997l1.32995,-0.78997l1.17995,-1.37994l0.18999,-2.27991l1.14995,-0.02l0.64997,0.86997l1.66993,2.70989l0.37998,-0.21999l3.72985,-0.42998l0.89996,-0.84997l0.15999,-1.07996l0.89996,-1.09996l1.72993,0.75997l1.65993,-0.60998l0.02,-0.94996l1.79993,-1.50994l1.36995,-0.39998l3.86985,0.92996l-1.01996,0.77997l-0.22999,1.35995l-0.61998,1.07996l-0.09,2.72989l1.26995,0.36999l0.42998,0.69997l0.35999,2.94988l-0.34999,0.68997l0.1,2.64989l-0.35999,1.05996l1.37994,2.16991l0.77997,0.65997l-0.03,1.39994l-0.43998,0.35999l0.83997,2.02992"/></g></g></svg>