<svg xmlns="http://www.w3.org/2000/svg" viewBox="0 0 480 360" version="1.1" height="360" width="480">
 <g aria-label="震源・規模 調査中" fill="#fff">
  <path d="m248.9 173.13v-0.83984h-6.1035v-1.3965h14.414v1.3965h-6.2305v0.83984h8.0859v3.5059h-2.1191v-2.2461h-5.9668v3.7988h-2.0801v-3.7988h-5.8594v2.2461h-2.0996v-3.5059zm6.9141 13.857q1.4941 0.56641 3.7305 0.89844l-1.1426 1.6602q-3.1348-0.5371-5.1465-1.8457-2.002-1.3086-3.1152-3.252h-2.1582v3.0078q2.1582-0.30273 4.0039-0.64453l0.13672 1.4551q-3.4375 0.82031-7.8613 1.4258l-0.57617-1.7188q1.5332-0.16602 2.0996-0.23438l0.11719-0.0195v-3.2715h-2.1387q-0.13671 1.7188-0.44921 2.7441-0.3711 1.2305-1.1914 2.2949l-1.7383-1.4356q0.95703-1.2402 1.1914-2.9004 0.12696-0.89843 0.12696-2.2363v-4.1406h16.855v1.2988h-14.756v2.998h15.596v1.377h-2.2168l1.2402 0.82031q-1.1035 0.91797-2.6074 1.7188zm-1.5234-0.75195q1.4062-0.95703 2.2363-1.7871h-4.2676q0.83984 1.0742 2.0312 1.7871zm-10.391-11.123h4.1602v1.1035h-4.1602zm0 1.7969h4.1602v1.123h-4.1602zm7.9199-1.7969h4.2871v1.1035h-4.2871zm0 1.7969h4.2871v1.123h-4.2871zm-6.8555 3.9844h12.158v1.2793h-12.158z"></path>
  <path d="m273.65 174.98h4.541v7.5781h-3.7402v5.3613q0 0.92773-0.43946 1.2891-0.36132 0.29297-1.2793 0.29297-1.1035 0-2.207-0.20508l-0.27344-1.8359q1.1328 0.17578 1.7578 0.17578 0.3711 0 0.43945-0.17578 0.0391-0.12695 0.0391-0.40039v-4.502h-3.7402v-7.5781h2.9492q0.36133-1.0742 0.51758-1.7676h-4.5801v5.3027q0 3.5254-0.43945 5.8203-0.51758 2.7441-2.041 5.1465l-1.5625-1.543q2.002-3.1934 2.002-8.4961v-8.0273h13.701v1.7969h-4.9707q-0.29296 0.9375-0.67382 1.7676zm2.5586 1.5625h-5.5371v1.4746h5.5371zm-5.5371 2.9785v1.5137h5.5371v-1.5137zm-6.9043-4.541q-0.96679-1.4453-2.8223-3.0273l1.5039-1.3184q1.6797 1.2109 2.8418 2.8223zm-0.53711 5.0195q-1.6211-2.041-2.8613-3.1055l1.543-1.3965q1.5918 1.3281 2.8808 2.9785zm-2.6367 8.0371q1.4941-2.8516 2.4121-6.9434l1.7871 1.084q-0.66406 2.8613-1.2109 4.4922-0.47852 1.4258-1.1719 2.8711zm6.1523-0.66406q1.6113-1.6992 2.4609-4.1797l1.8652 0.56641q-0.92773 2.959-2.7246 4.9805zm11.221 1.2012q-1.0449-2.4219-2.6172-4.5996l1.6211-0.9375q1.6016 1.9922 2.8027 4.2969z"></path>
  <path d="m285.03 177.79q0.76172 0 1.377 0.50781 0.81055 0.66407 0.81055 1.6992 0 0.63477-0.36133 1.1816-0.6543 1.0156-1.8555 1.0156-0.52734 0-1.0059-0.25391-0.38086-0.19531-0.64453-0.51758-0.53711-0.63476-0.53711-1.4453 0-1.1328 0.94727-1.7969 0.5664-0.39063 1.2695-0.39063z"></path>
  <path d="m305.91 182.69v4.1602q0 0.3418 0.15625 0.41992 0.0976 0.0586 0.64453 0.0586 0.67383 0 0.79101-0.0781 0.3125-0.18554 0.41992-2.7148l1.7578 0.51758q-0.10742 2.1582-0.3125 2.9394-0.24414 0.87891-1.0449 1.1133-0.60547 0.18555-1.9629 0.18555-0.96679 0-1.3574-0.0781-0.99609-0.21484-0.99609-1.3574v-5.166h-1.1621q-0.10742 1.8066-0.38086 2.7344-0.41016 1.3867-1.4648 2.3242-1.3867 1.2402-3.3691 1.7871l-1.1426-1.6992q2.5976-0.52734 3.5449-2.002 0.6543-1.0352 0.83008-3.1445h-1.6504v-11.416h8.8476v11.416zm-4.6973-9.7168v1.6992h4.8535v-1.6992zm0 3.1836v1.6797h4.8535v-1.6797zm0 3.1836v1.709h4.8535v-1.709zm-7.4414-5.6055v-3.0469h2.002v3.0469h2.5976v1.7773h-2.5976v2.7637h2.8809v1.7969h-2.8906q-0.0391 1.1035-0.13672 1.8066 1.6211 1.2305 3.1836 2.9883l-1.2402 1.6894q-1.0742-1.5332-2.3438-2.793-0.84961 2.959-3.5156 5.293l-1.3965-1.5234q2.0117-1.6992 2.8223-3.9453 0.54687-1.5137 0.625-3.5156h-3.291v-1.7969h3.3008v-2.7637h-2.8613v-1.7773z"></path>
  <path d="m313.1 180.7q-0.91797 2.6758-2.0801 4.7168l-0.82031-2.2949q1.8262-3.0469 2.7148-6.6992h-2.4121v-1.9043h2.5976v-4.0234h2.002v4.0234h1.7969v1.9043h-1.7969v1.6699q1.2598 1.0352 2.4512 2.373l-1.0156 1.7383q-0.76172-1.123-1.4356-1.9336v9.2285h-2.002zm13.115-6.0059h2.1484v6.8848h-4.4238v1.1328h5.6055v1.7188h-5.1172q2.0117 2.5488 5.3125 3.3008l-1.0645 1.7969q-1.9434-0.50781-3.5742-1.8164-1.1426-0.90821-1.9629-2.2363-0.76171 1.5625-2.0801 2.5293-1.3965 1.0156-3.7598 1.6211l-1.2012-1.5918q2.4121-0.54687 3.7012-1.3574 1.2402-0.78125 1.9434-2.2461h-5.2832v-1.7188h5.4785v-1.1328h-4.2383v-6.8848h2.0801v-1.1035h-2.959v-1.6602h2.959v-1.4356h1.8945v1.4356h2.5879v-1.4356h1.9531v1.4356h3.0078v1.6602h-3.0078zm-1.9531 0v-1.1035h-2.5879v1.1035zm2.1191 1.4648h-6.7188v1.2598h6.7188zm-6.7188 2.6562v1.2988h6.7188v-1.2988z"></path>
  <path d="m352.76 180.78v5.3516h-3.7598v1.1816h-1.6602v-6.5332zm-3.7598 1.6602v2.0508h2.1582v-2.0508zm-5.4394 0.33203v5.8008h-4.0527v0.92774h-1.8848v-6.7285zm-4.0527 1.6797v2.4219h2.2363v-2.4219zm16.133-13.252v16.133q0 0.91797-0.32226 1.3476-0.40039 0.53711-1.5918 0.53711-1.1035 0-2.168-0.0781l-0.40039-1.9434q1.3477 0.13672 2.0898 0.13672 0.36132 0 0.42968-0.19531 0.0586-0.14649 0.0586-0.47852v-13.682h-7.2656v7.1387q0 4.1699-0.2832 6.2695-0.23438 1.7188-0.82031 3.1348l-1.7578-1.4062q0.70313-1.9043 0.87891-4.502 0.0977-1.416 0.0977-3.5938v-8.8184zm-6.5137 3.6328v-1.3379h1.7969v1.3379h1.9434v1.6602h-1.9434v1.3672h2.2363v1.6602h-6.1133v-1.6602h2.0801v-1.3672h-1.9238v-1.6602zm-11.182-3.6133h5.4004v1.6211h-5.4004zm-0.80078 2.8613h6.8359v1.7383h-6.8359zm0.80078 2.998h5.4004v1.6016h-5.4004zm0 2.8418h5.4004v1.582h-5.4004z"></path>
  <path d="m367.68 178.91h5.3418v8.4668h3.1543v1.7188h-18.994v-1.7188h3.1836v-8.3887q-1.0547 0.51758-2.041 0.91797l-1.1621-1.5527q4.1113-1.3867 6.6894-4.1211h-6.0449v-1.7188h7.7539v-2.0215h2.1191v2.0215h7.8809v1.7188h-5.9375q0.0586 0.0488 0.13672 0.11719 2.3828 2.0312 6.4844 3.5645l-1.2012 1.6308q-4.6191-1.9238-7.3633-5zm-2.1191 0v-4.3359q-1.9238 2.6465-5.0586 4.3359zm-3.0566 1.4356v1.4062h8.3984v-1.4062zm0 2.8027v1.4062h8.3984v-1.4062zm0 2.8027v1.4258h8.3984v-1.4258z"></path>
  <path d="m385.53 174.08v-3.584h2.1973v3.584h7.2461v10.332h-2.1582v-1.3574h-5.0879v6.4453h-2.1973v-6.4453h-4.9609v1.4648h-2.1582v-10.439zm-4.9609 2.002v4.9707h4.9609v-4.9707zm12.246 4.9707v-4.9707h-5.0879v4.9707z"></path>
 </g>
</svg>
