<?xml version="1.0" encoding="UTF-8"?>
<svg width="480" height="360" version="1.1" viewBox="0 0 480 360" xmlns="http://www.w3.org/2000/svg">
 <g dominant-baseline="central" fill="#fff" aria-label="天草灘">
  <path d="m251.65 179.66q1.0156 2.3535 2.6074 3.9746 2.1777 2.2363 5.1172 3.5645l-1.416 2.041q-5.6934-3.0859-7.7051-7.998-1.7188 5.5371-7.9297 8.2422l-1.4258-1.9238q3.3691-1.0547 5.498-3.584 1.5332-1.8066 2.0898-4.3164h-6.7871v-1.9629h7.1191v-4.1113h-7.8223v-1.9629h18.018v1.9629h-7.9394v4.1113h7.2461v1.9629z" dominant-baseline="central"/>
  <path d="m271.05 182.86v1.543h8.4473v1.7773h-8.4473v3.3203h-2.2363v-3.3203h-8.3203v-1.7773h8.3203v-1.543h-6.2598v-7.4609h14.883v7.4609zm-6.377-5.957v1.4551h10.664v-1.4551zm0 2.9199v1.5332h10.664v-1.5332zm0.9961-7.8223v-1.5039h2.1289v1.5039h4.2383v-1.5039h2.1582v1.5039h4.8633v1.6797h-4.8633v1.1719h-2.1582v-1.1719h-4.2383v1.1719h-2.1289v-1.1719h-4.7559v-1.6797z" dominant-baseline="central"/>
  <path d="m289.3 175.71v0.88867h2.6562v1.2012q1.3965-3.4473 1.8848-7.3926l1.7773 0.26367q-0.36132 2.0605-0.69336 3.3594h1.0156q0.45898-1.7285 0.71289-3.5156l1.709 0.3125q-0.36132 1.7188-0.86914 3.2031h2.0312v1.7578h-1.9043v2.4902h1.5625v1.6992h-1.5625v2.4316h1.5625v1.7285h-1.5625v2.6172h2.0996v1.7969h-4.8145v0.9375h-1.6602v-10.82q-0.21485 0.51758-0.60547 1.3086l-0.6836-1.9629v2.3438h-2.6562v0.9375h2.793v1.416h-2.793q-0.0195 0.67383-0.0391 0.98633h3.3984v1.416h-3.584q-0.0195 0.10742-0.0684 0.3125 1.8066 1.0644 3.5156 2.4902l-1.1621 1.4551q-1.3281-1.2891-2.8516-2.4219l-0.10742-0.0879q-1.1328 1.8848-3.252 2.9102l-1.2402-1.5625q1.8262-0.64453 2.6856-1.8555 0.34179-0.46875 0.57617-1.2402h-2.9297v-1.416h3.2324q0.0684-0.67383 0.0781-0.98633h-2.7832v-1.416h2.793v-0.9375h-2.6562v-3.7598h2.6367v-0.88867h-1.6602v-2.1777h-0.97657l-1.5039 1.416q-0.9375-1.4746-2.6172-3.1348l1.4844-1.2598q1.2109 1.0059 2.373 2.5586v-1.0644h1.2402v-1.6797h1.6992v1.6797h1.7188v-1.6797h1.6797v1.6797h1.6211v1.4844h-1.6211v2.1777zm-1.6602 2.1289h-1.2598v1.2988h1.2598zm1.5625 0v1.2988h1.3184v-1.2988zm-1.6211-4.3066v0.97656h1.7188v-0.97656zm7.3242 2.2559v2.4902h1.1719v-2.4902zm0 4.1894v2.4316h1.1719v-2.4316zm0 4.1602v2.6172h1.1719v-2.6172zm-12.246-4.3652q-1.4356-1.9922-2.5586-3.1152l1.5234-1.2793q1.4648 1.3086 2.6367 3.0176zm-2.3633 8.418q1.377-2.9394 2.3438-7.1777l1.7578 0.87891q-0.75195 3.8965-2.2168 7.6856z" dominant-baseline="central"/>
 </g>
</svg>
