<?xml version="1.0" encoding="UTF-8"?>
<svg width="480" height="360" version="1.1" viewBox="0 0 480 360" xmlns="http://www.w3.org/2000/svg">
 <g dominant-baseline="central" fill="#fff" aria-label="伊予灘">
  <path d="m258.09 175.78h1.5039v1.7969h-1.5039v4.5996h-4.9805q-0.17578 2.7051-1.123 4.3359-1.2012 2.0801-3.0566 3.2227l-1.5625-1.5625q1.7871-1.0352 2.832-2.8223 0.69336-1.2012 0.82031-3.1738h-4.0527v-1.8164h4.082v-2.7832h-5.5762v-1.7969h5.5762v-2.6074h-3.7793v-1.8164h10.82zm-2.0606 0v-2.6074h-2.9004v2.6074zm0 1.7969h-2.9004v2.7832h2.9004zm-11.064-2.2363v14.16h-2.0996v-10.02q-0.72266 1.1914-1.6406 2.4609l-0.99609-2.1777q1.6504-2.2363 2.793-5.1367 0.71289-1.7969 1.4062-4.2676l2.1191 0.53711q-0.76172 2.5488-1.582 4.4434z" dominant-baseline="central"/>
  <path d="m272.07 176.02q0.6836 0.35157 1.5723 0.83985l-1.2402 1.0059h5.8789l1.1035 1.1035q-2.1973 3.3106-4.3848 5.4395l-1.9824-1.1621q1.9238-1.7578 3.0859-3.4961h-4.8633v7.6562q0 1.3281-0.65429 1.6992-0.43946 0.25391-1.6406 0.25391-1.5723 0-3.4668-0.19531l-0.47852-2.1777q1.8262 0.29297 3.2422 0.29297 0.53711 0 0.66406-0.17578 0.0977-0.14649 0.0977-0.53711v-6.8164h-8.1836v-1.8848h10.586q-3.3008-1.8945-6.6016-3.2031l1.582-1.2598q2.2168 0.88867 3.916 1.7285 1.5039-1.0254 2.6367-2.0117h-10.439v-1.8555h13.281l1.2012 1.1719q-2.5586 2.0606-4.9121 3.584z" dominant-baseline="central"/>
  <path d="m289.3 175.71v0.88867h2.6562v1.2012q1.3965-3.4473 1.8848-7.3926l1.7773 0.26367q-0.36132 2.0605-0.69336 3.3594h1.0156q0.45898-1.7285 0.71289-3.5156l1.709 0.3125q-0.36132 1.7188-0.86914 3.2031h2.0312v1.7578h-1.9043v2.4902h1.5625v1.6992h-1.5625v2.4316h1.5625v1.7285h-1.5625v2.6172h2.0996v1.7969h-4.8145v0.9375h-1.6602v-10.82q-0.21485 0.51758-0.60547 1.3086l-0.6836-1.9629v2.3438h-2.6562v0.9375h2.793v1.416h-2.793q-0.0195 0.67383-0.0391 0.98633h3.3984v1.416h-3.584q-0.0195 0.10742-0.0684 0.3125 1.8066 1.0644 3.5156 2.4902l-1.1621 1.4551q-1.3281-1.2891-2.8516-2.4219l-0.10742-0.0879q-1.1328 1.8848-3.252 2.9102l-1.2402-1.5625q1.8262-0.64453 2.6856-1.8555 0.34179-0.46875 0.57617-1.2402h-2.9297v-1.416h3.2324q0.0684-0.67383 0.0781-0.98633h-2.7832v-1.416h2.793v-0.9375h-2.6562v-3.7598h2.6367v-0.88867h-1.6602v-2.1777h-0.97657l-1.5039 1.416q-0.9375-1.4746-2.6172-3.1348l1.4844-1.2598q1.2109 1.0059 2.373 2.5586v-1.0644h1.2402v-1.6797h1.6992v1.6797h1.7188v-1.6797h1.6797v1.6797h1.6211v1.4844h-1.6211v2.1777zm-1.6602 2.1289h-1.2598v1.2988h1.2598zm1.5625 0v1.2988h1.3184v-1.2988zm-1.6211-4.3066v0.97656h1.7188v-0.97656zm7.3242 2.2559v2.4902h1.1719v-2.4902zm0 4.1894v2.4316h1.1719v-2.4316zm0 4.1602v2.6172h1.1719v-2.6172zm-12.246-4.3652q-1.4356-1.9922-2.5586-3.1152l1.5234-1.2793q1.4648 1.3086 2.6367 3.0176zm-2.3633 8.418q1.377-2.9394 2.3438-7.1777l1.7578 0.87891q-0.75195 3.8965-2.2168 7.6856z" dominant-baseline="central"/>
 </g>
</svg>
