<svg version="1.1" xmlns="http://www.w3.org/2000/svg" xmlns:xlink="http://www.w3.org/1999/xlink" width="400" height="400" viewBox="0,0,400,400"><defs><radialGradient cx="240" cy="180" r="200" gradientUnits="userSpaceOnUse" id="color-1"><stop offset="0" stop-color="#e52a18"/><stop offset="0.4" stop-color="#e52a18"/><stop offset="0.55" stop-color="#e52a18" stop-opacity="0.56078"/><stop offset="0.7" stop-color="#e52a18" stop-opacity="0.25098"/><stop offset="0.85" stop-color="#e52a18" stop-opacity="0.05882"/><stop offset="1" stop-color="#e52a18" stop-opacity="0"/></radialGradient></defs><g transform="translate(-40,20)"><g data-paper-data="{&quot;isPaintingLayer&quot;:true}" stroke-miterlimit="10" stroke-dasharray="" stroke-dashoffset="0" style="mix-blend-mode: normal"><g><path d="M40,380v-400h400v400z" fill="none" fill-rule="nonzero" stroke="none" stroke-width="0" stroke-linecap="butt" stroke-linejoin="miter"/><path d="M40,180c0,-110.46 89.543,-200 200,-200c110.457,0 200,89.543 200,200c0,110.457 -89.543,200 -200,200c-110.457,0 -200,-89.543 -200,-200z" fill="url(#color-1)" fill-rule="evenodd" stroke="none" stroke-width="1" stroke-linecap="butt" stroke-linejoin="miter" opacity="0.04"/><path d="M324.5,180c0,58.335 -26.165,84.5 -84.5,84.5c-58.335,0 -84.5,-26.165 -84.5,-84.5c0,-58.335 26.165,-84.5 84.5,-84.5c58.335,0 84.5,26.165 84.5,84.5z" fill="#e52a18" fill-rule="evenodd" stroke="#f5947c" stroke-width="15" stroke-linecap="round" stroke-linejoin="round"/></g><path d="M260.05083,129.93033v15.755h-47.128l-3.376,27.065c6.309,-4.1912 13.5331,-6.3732 21.651,-6.3732c5.938,0 11.5399,1.3513 16.757,4.0448l0.004,0.002c7.3164,3.724 12.4922,9.4634 15.404,17.085c1.63038,4.2904 2.4383,9.0401 2.4383,14.226c0,11.659 -4.3661,21.0187 -13,27.772h-0.002c-7.186,5.6036 -16.141,8.3966 -26.73,8.3966c-15.282,0 -27.7093,-4.6385 -37.068,-13.912l-0.61951,-0.61193l9.7815,-12.278l0.76728,0.75782c3.2312,3.1912 7.1684,5.6597 11.848,7.4095h0.002c5.1136,1.92266 10.1216,2.8778 15.039,2.8778c5.5309,0 10.1626,-1.5141 14.031,-4.545v-0.002c4.9504,-3.873 7.3811,-9.0976 7.3811,-15.99c0,-6.024 -1.7106,-10.8095 -5.1228,-14.539h-0.002c-3.685,-4.0416 -8.7159,-6.0606 -15.35,-6.0606c-9.069,0 -15.4799,3.0851 -19.637,9.3211l-0.3467,0.52099l-15.592,-2.5652l6.3542,-57.495l0.0948,-0.86201z" fill="#ffffff" fill-rule="nonzero" stroke="none" stroke-width="1" stroke-linecap="butt" stroke-linejoin="miter"/><path d="M303.163,153.1v14.757h-44.703v-14.757z" fill="#ffffff" fill-rule="nonzero" stroke="none" stroke-width="1" stroke-linecap="butt" stroke-linejoin="miter"/></g></g></svg>