<svg version="1.1" xmlns="http://www.w3.org/2000/svg" xmlns:xlink="http://www.w3.org/1999/xlink" width="18.78965" height="36.31894" viewBox="0,0,18.78965,36.31894"><g transform="translate(-531.24309,-195.65562)"><g data-paper-data="{&quot;isPaintingLayer&quot;:true}" fill="#ff0000" fill-rule="evenodd" stroke="#ff0000" stroke-width="10" stroke-linecap="round" stroke-linejoin="round" stroke-miterlimit="10" stroke-dasharray="" stroke-dashoffset="0" style="mix-blend-mode: normal"><path d="M545.02274,215.915l-1.34995,2.14991l-0.20999,2.5199l0.05,2.63989l-0.43998,2.04992l-1.92992,-1.01996l-0.80997,-1.10996l-0.24999,-1.86993l1.04996,-1.51994l0.47998,-1.93992l-0.15999,-0.94996l2.06992,-1.87992l0.52998,-0.99996l-0.23999,-0.88996l0.91996,0.54998l0.28999,2.26991"/><path d="M538.623,225.51462l-1.31995,1.45994l-1.05996,-0.56998l1.00996,-1.92992l1.36995,1.03996"/><path d="M545.02274,202.21555l-0.98996,1.05996l-1.27995,-0.68997l0.06,-1.19995l1.18995,-0.72997l1.02996,0.54998l-0.01,1.00996"/></g></g></svg>