<svg version="1.1" xmlns="http://www.w3.org/2000/svg" xmlns:xlink="http://www.w3.org/1999/xlink" width="199.45383" height="149.29189" viewBox="0,0,199.45383,149.29189"><g transform="translate(233.12667,-52.14424)"><g data-paper-data="{&quot;isPaintingLayer&quot;:true}" fill="none" fill-rule="evenodd" stroke="#fc3324" stroke-width="36" stroke-linecap="round" stroke-linejoin="round" stroke-miterlimit="4" stroke-dasharray="" stroke-dashoffset="0" style="mix-blend-mode: normal"><path d="M-215.12667,182.3963l1.38978,1.03983l3.51944,-0.25995l6.02904,-1.71972l4.91922,-2.73957l2.17965,-2.73956l-0.6399,-2.61958l2.14966,-0.15998l1.11982,-2.31963l1.71972,0.19997l3.22948,-2.31963l0.88986,-2.78956l3.44944,-1.54975l2.5096,-3.69941l-0.85986,-0.97984l2.39962,-0.94985l2.07966,0.47993l1.19981,-4.04936l4.09934,-5.00919l4.33931,-2.5396l8.96856,-8.35866l3.15949,-0.57991l3.44945,-1.65974l2.04967,-4.47928l6.09902,-4.63926l1.83971,-5.22917l7.4888,-5.95905l4.76923,-2.72956l0.13998,-0.93984l4.66925,-2.83955l3.98937,-1.04983l2.89954,-2.58958l1.92969,-3.55943l0.88986,-2.94953l0.11998,-5.43913l-3.68941,-2.41961l-1.28979,0.06999l0.6299,-2.03967l1.2598,0.46992l4.13933,-2.23964l2.19965,0.88986l5.25915,-1.00984l-2.97952,-2.25964l7.25883,-1.78972l1.21981,-1.63974l5.69909,-1.70972l3.53943,-0.08999l1.57975,-0.80987l5.04919,0.26996l-0.34995,-3.36946l6.02904,0.6099l0.6299,-2.5196l0.96984,0.66989l2.45961,-3.7694l2.69957,0.72988l0.08999,-2.56959l3.32946,2.60959l1.12982,2.07967l3.37946,-0.96984l1.37978,0.88986l3.60942,-1.16981l3.1095,0.16997l1.14981,-1.09983l3.96937,0.30995l1.80971,1.28979l-1.89969,0.87986l-5.38914,0.56991l-0.78987,0.57991"/></g></g></svg>