<svg version="1.1" xmlns="http://www.w3.org/2000/svg" xmlns:xlink="http://www.w3.org/1999/xlink" width="224" height="330" viewBox="0,0,224,330"><g transform="translate(-128,-180)"><g data-paper-data="{&quot;isPaintingLayer&quot;:true}" stroke-miterlimit="10" stroke-dasharray="" stroke-dashoffset="0" style="mix-blend-mode: normal"><path d="M352,510h-224v-330h224z" fill="#1d2a41" fill-rule="evenodd" stroke="none" stroke-width="1" stroke-linecap="butt" stroke-linejoin="miter"/><path d="M137.99996,501h204" fill="none" fill-rule="nonzero" stroke="#31476d" stroke-width="2" stroke-linecap="round" stroke-linejoin="round"/><g fill="#ffffff" fill-rule="nonzero" stroke="none" stroke-width="1" stroke-linecap="butt" stroke-linejoin="miter"><path d="M178.51758,474.17773l-0.88477,0.39258c-0.27344,-0.68746 -0.6582,-1.37105 -1.15429,-2.05078l0.86718,-0.29883c0.42188,0.50782 0.81249,1.16018 1.17188,1.95703zM217.93946,472.48633v1.33008h2.12696v1.08984h-0.62696c-0.14453,0.58594 -0.32422,1.12699 -0.53906,1.62305h1.3418v1.07812h-2.32617v1.14258h2.10937v1.03126h-2.10937v0.0703c0.5664,0.3086 1.19528,0.74218 1.88281,1.30078l-0.66797,1.08985c-0.44141,-0.4961 -0.8457,-0.90431 -1.21289,-1.22461v2.87109h-1.20312v-3.1289c-0.52735,0.96873 -1.15427,1.7793 -1.88086,2.43164l-0.68555,-1.10743c0.87106,-0.61719 1.5957,-1.38479 2.17383,-2.30273h-1.85156v-1.03125h2.24414v-1.14258h-2.47266v-1.07812h1.2832c-0.10156,-0.4961 -0.24414,-1.03714 -0.42774,-1.62305h-0.62695v-1.08984h2.2207v-1.33008zM144.95117,472.48833c-0.52344,0.60156 -0.94533,1.15622 -1.26562,1.66406c-0.81254,1.29687 -1.21875,2.64451 -1.21875,4.04297c0,1.32033 0.36331,2.59378 1.08984,3.82031c0.34375,0.57813 0.80861,1.20313 1.39453,1.875h-1.14258c-0.71486,-0.64452 -1.30081,-1.43165 -1.75781,-2.36132c-0.5625,-1.14454 -0.84375,-2.25977 -0.84375,-3.34571c0,-1.23046 0.35355,-2.48239 1.06055,-3.75586c0.42968,-0.76953 0.94337,-1.41605 1.54101,-1.93945zM162.65834,472.48832c0.97654,1.9922 2.32809,3.51565 4.05469,4.57031l-0.7793,1.1543c-0.52344,-0.37109 -0.98046,-0.73241 -1.37109,-1.08398l-0.006,0.24023c-0.04687,2.02733 -0.14843,3.64649 -0.30469,4.85742c-0.08203,0.64063 -0.26563,1.06053 -0.55078,1.25977c-0.2539,0.17973 -0.69924,0.26953 -1.33594,0.26953c-0.48046,0 -1.07425,-0.0234 -1.78125,-0.0703l-0.24023,-1.23633c0.64063,0.0859 1.22073,0.1289 1.74023,0.1289c0.30469,0 0.50781,-0.043 0.60938,-0.1289c0.10156,-0.08594 0.18163,-0.3125 0.24023,-0.67969c0.14454,-0.87106 0.23248,-2.08394 0.26368,-3.63867h-2.39063c-0.12109,1.27346 -0.39649,2.29691 -0.82617,3.07031c-0.64453,1.168 -1.75194,2.06452 -3.32227,2.68945l-0.82617,-1.0957c1.082,-0.32031 1.93747,-0.86521 2.56641,-1.63476c0.58203,-0.71094 0.9375,-1.7207 1.0664,-3.0293h-2.05078v-0.84375c-0.42968,0.44141 -0.91016,0.85938 -1.4414,1.25391l-0.83789,-1.01368c1.71093,-1.17966 2.92772,-2.82811 3.65039,-4.94531l1.24804,0.44531c-0.53125,1.47654 -1.3027,2.78904 -2.31445,3.9375h6.66797c-1.168,-1.10546 -2.14064,-2.43749 -2.91797,-3.99609l1.18945,-0.48047zM227.96094,472.48833c0.71486,0.64844 1.30081,1.43557 1.75781,2.36133c0.5625,1.14453 0.84375,2.25784 0.84375,3.33984c0,1.2344 -0.35547,2.48832 -1.06641,3.76172c-0.42578,0.7656 -0.93747,1.41212 -1.53515,1.93945h-1.14258c0.52344,-0.60155 0.94533,-1.15622 1.26562,-1.66406c0.81254,-1.29686 1.21875,-2.64065 1.21875,-4.03125c0,-1.32813 -0.36331,-2.6055 -1.08984,-3.83203c-0.33984,-0.57031 -0.80471,-1.19531 -1.39453,-1.875zM176.91211,474.50024l-0.90234,0.375c-0.29297,-0.70313 -0.68358,-1.38871 -1.17188,-2.05664l0.89649,-0.32227c0.47265,0.63282 0.86525,1.30079 1.17773,2.00391zM225.42969,473.68778c-1.03907,0.35157 -2.25394,0.62305 -3.64453,0.81445v2.02735h3.93164v1.22461h-1.3418v6.13476h-1.21289v-6.13476h-1.38281c0.00393,1.21093 -0.08982,2.334 -0.28125,3.36914c-0.19922,1.0742 -0.55277,2.03514 -1.06055,2.88281l-0.9668,-0.88477c0.4336,-0.70313 0.73047,-1.56644 0.89063,-2.58984c0.14064,-0.875 0.21094,-1.99216 0.21094,-3.35156v-3.67383c0.07812,-0.0078 0.19726,-0.0195 0.35742,-0.0352c1.2422,-0.11718 2.48635,-0.38477 3.73242,-0.80273zM183.64453,476.72094c1.50393,-0.6914 3.09965,-1.26758 4.78711,-1.72851l0.39258,1.18945c-1.85153,0.46875 -3.6914,1.1348 -5.51953,1.99805c-0.56641,0.26953 -0.96877,0.49023 -1.20703,0.66211c-0.6992,0.51172 -1.04883,1.08006 -1.04883,1.70508c0,0.54296 0.32422,0.92188 0.97265,1.13671c0.53906,0.17578 1.50393,0.26368 2.89454,0.26368c1.28513,0 2.57226,-0.07422 3.86132,-0.22266l0.13477,1.30664c-1.15627,0.12114 -2.35161,0.18164 -3.58594,0.18164c-1.82033,0 -3.0957,-0.11523 -3.82617,-0.3457c-0.53125,-0.16797 -0.95115,-0.41797 -1.25977,-0.75c-0.35546,-0.38672 -0.5332,-0.85743 -0.5332,-1.41211c0,-0.73047 0.25,-1.38669 0.75,-1.96875c0.42578,-0.49609 1.11136,-0.98826 2.05664,-1.47656c-0.53906,-1.21094 -1.02737,-2.58986 -1.46484,-4.13672l1.30664,-0.33985c0.40625,1.4844 0.83592,2.7969 1.28906,3.9375zM213.3477,472.99246v1.07812h-4.74609v0.89063h4.10742v4.75195h-4.13672c-0.004,0.0273 -0.0059,0.0547 -0.0059,0.082c-0.04297,0.68747 -0.21875,1.29487 -0.52734,1.82227c1.5156,0.53124 3.39645,0.89648 5.64258,1.0957l-0.7207,1.14258c-2.1836,-0.25391 -4.07029,-0.7031 -5.66016,-1.34766c-0.45313,0.39454 -1.03708,0.71289 -1.75195,0.95508c-0.64063,0.21875 -1.47073,0.39258 -2.49023,0.52149l-0.63281,-1.11329c1.57813,-0.11718 2.79493,-0.41601 3.65039,-0.89648c-0.83987,-0.41407 -1.61723,-0.89647 -2.33203,-1.44727l0.86133,-0.73242c0.74607,0.57813 1.50975,1.03708 2.29101,1.37696c0.22656,-0.38672 0.37109,-0.87304 0.43359,-1.45899h-4.07812v-4.75195h4.10156v-0.89063h-4.72266v-1.07812zM193.00391,473.1545c-0.31641,1.75 -0.47461,3.72463 -0.47461,5.92382c0,1.47654 0.08203,2.85738 0.24609,4.14258l-1.33594,0.16992c-0.14844,-1.32813 -0.22265,-2.64847 -0.22265,-3.96093c0,-2.25 0.16601,-4.38669 0.49804,-6.41016zM150.1582,473.12713c0.91014,0 1.65821,0.1875 2.24414,0.5625c0.707,0.45704 1.06055,1.10356 1.06055,1.93946c0,0.64062 -0.24414,1.18944 -0.73242,1.64648c-0.37891,0.35156 -0.87891,0.57221 -1.5,0.66211v0.0469c0.80466,0.13281 1.4199,0.39843 1.8457,0.79687c0.44141,0.41406 0.66211,0.9668 0.66211,1.6582c0,1.0078 -0.40821,1.76172 -1.22461,2.26172c-0.61328,0.375 -1.41794,0.5625 -2.41406,0.5625c-1.57033,0 -2.84378,-0.48047 -3.82031,-1.4414l0.88476,-1.05469c0.3125,0.33202 0.71487,0.60546 1.20703,0.82031c0.59766,0.26172 1.17776,0.39258 1.74024,0.39258c0.63281,0 1.12697,-0.13281 1.48242,-0.39844c0.34375,-0.25391 0.51563,-0.64259 0.51563,-1.16601c0,-0.71874 -0.34572,-1.2285 -1.03711,-1.5293c-0.46484,-0.20313 -1.02343,-0.30469 -1.67579,-0.30469h-0.77929v-1.25976h0.81445c0.68747,0 1.2402,-0.12305 1.6582,-0.36915c0.51172,-0.30077 0.76758,-0.7129 0.76758,-1.23632c0,-0.4336 -0.1875,-0.77739 -0.5625,-1.03125c-0.33203,-0.22266 -0.74609,-0.33399 -1.24219,-0.33399c-0.89846,0 -1.76177,0.34379 -2.58984,1.03125l-0.84961,-1.04883c1.00393,-0.80466 2.18559,-1.20703 3.54492,-1.20703zM174.9082,473.96114v1.27148h-6.04687v-1.27148zM200.58594,474.10958v1.24804h-5.63086v-1.24804zM216.65234,476.5295h1.16016c0.17969,-0.50391 0.33398,-1.04496 0.46289,-1.62305h-2.00976c0.14844,0.48828 0.27735,1.02933 0.38672,1.62305zM204.51171,476.842h2.8418v-0.94336h-2.8418zM208.60155,476.842h2.84766v-0.94336h-2.84766zM204.51171,478.76387h2.8418v-1.01953h-2.8418zM208.60155,478.76387h2.84766v-1.01953h-2.84766zM169.60546,479.18187c-0.375,0.4414 -0.5625,0.85745 -0.5625,1.24805c0,0.4375 0.26367,0.74804 0.79101,0.93164c0.28126,0.10156 0.72852,0.18359 1.3418,0.24609c0.50781,0.0546 1.03319,0.082 1.57617,0.082c1.37107,0 2.66597,-0.09961 3.88477,-0.29883l0.18164,1.3418c-1.26173,0.19141 -2.6016,0.28711 -4.01953,0.28711c-1.457,0 -2.6269,-0.13672 -3.50977,-0.41015c-0.34374,-0.10547 -0.6621,-0.27344 -0.95508,-0.50391c-0.44922,-0.35937 -0.67382,-0.85745 -0.67382,-1.49414c0,-0.8008 0.30859,-1.50198 0.92578,-2.10352zM195.76366,479.31856c-0.21094,0.29687 -0.3164,0.63083 -0.3164,1.00195c0,0.45704 0.22851,0.77149 0.68554,0.94336c0.50782,0.19527 1.20116,0.29297 2.08008,0.29297c0.9492,0 1.82812,-0.0625 2.63672,-0.1875l0.13477,1.30078c-0.78127,0.12114 -1.709,0.18164 -2.7832,0.18164c-2.6992,0 -4.04883,-0.79297 -4.04883,-2.3789c0,-0.62891 0.16797,-1.17773 0.50391,-1.64649z"/><path d="M146.73438,453.38869c-0.16407,0.474 -0.30209,0.85223 -0.41602,1.13477h6.60352v1.27148h-7.17188c-0.36914,0.75193 -0.83854,1.46742 -1.4082,2.14649l-0.97657,-1.06641c0.8978,-1.05273 1.5358,-2.26499 1.91407,-3.63672zM171.34375,453.25387v3.30273h1.32617v1.38672h-1.32617v4.34766c0.47852,-0.16407 0.95246,-0.33399 1.42187,-0.51172l0.13086,1.31836c-1.47653,0.67446 -2.99281,1.23958 -4.54687,1.69531l-0.47852,-1.45508c0.7018,-0.18233 1.31704,-0.35553 1.84571,-0.51953c0.0638,-0.0226 0.1172,-0.0398 0.1582,-0.0488v-4.82617h-1.73633v-1.38672h1.73633v-3.30273zM177.74224,453.25394v3.125l2.29101,-0.78711l0.7168,0.4375v5.12109c0,0.35547 -0.08333,0.61977 -0.25195,0.79297c-0.19141,0.19141 -0.51368,0.28711 -0.96485,0.28711c-0.36914,0 -0.76105,-0.0337 -1.17578,-0.0977l-0.22461,-1.30469c0.26888,0.06837 0.54232,0.10157 0.82031,0.10157c0.20052,0 0.32355,-0.04105 0.36915,-0.12305c0.0455,-0.0684 0.06831,-0.18233 0.0683,-0.3418v-3.23242l-1.64843,0.57422v5.5293h-1.37305v-5.0586l-1.4707,0.51368v5.41406c0,0.35093 0.15039,0.56382 0.45117,0.63672c0.3099,0.07743 1.01952,0.11523 2.12695,0.11523c1.08007,0 1.79234,-0.05466 2.13867,-0.16406c0.19596,-0.064 0.32352,-0.24174 0.38282,-0.5332c0.07744,-0.41014 0.11804,-0.89455 0.12304,-1.45508l1.42969,0.40234c-0.07292,1.3444 -0.25847,2.20446 -0.55469,2.57813c-0.19596,0.24613 -0.49219,0.392 -0.88867,0.4375c-0.62435,0.06836 -1.68295,0.10156 -3.17773,0.10156c-1.15753,0 -1.91728,-0.0317 -2.27735,-0.0957c-0.54232,-0.09114 -0.88543,-0.3294 -1.03125,-0.7168c-0.07287,-0.20507 -0.10937,-0.47851 -0.10937,-0.82031v-5.42188l-1.30664,0.45117l-0.32031,-1.32617l1.62695,-0.56055v-3.68359h1.38672v3.20508l1.4707,-0.49805v-3.60351zM231.40625,453.2599v1.34765h5.27735v1.17578h-5.27735v0.96289h4.58008v1.14844h-4.58008v1.0332h6.00782v1.18946h-1.63282l1.01172,0.69726c-0.62435,0.60614 -1.49935,1.26829 -2.625,1.98828l-0.1582,0.10352c0.8568,0.78387 2.01893,1.43101 3.48633,1.94141l-0.92188,1.38672c-1.59053,-0.67447 -2.8698,-1.52211 -3.83594,-2.54297l0.0957,1.22461c-1.97786,0.69726 -4.17577,1.27145 -6.5957,1.72265l-0.50586,-1.36719c0.41927,-0.064 1.01175,-0.16752 1.77735,-0.30859v-2.50195c-0.7884,0.40106 -1.72721,0.78258 -2.81641,1.14258l-0.7793,-1.2168c2.19207,-0.59247 3.86458,-1.34893 5.01758,-2.26953h-4.88086v-1.18946h5.85742v-1.0332h-4.42968v-1.14844h4.42968v-0.96289h-5.12695v-1.17578h5.12695v-1.34765zM206.62109,453.299v4.46289h2.75586v1.40234h-2.75586v7.4375h-1.48242v-7.4375h-2.80273v-1.40234h2.80273v-4.46289zM161.85547,453.309v1.28516h5.10547v1.27148h-10.41016v3.30079c0,1.91859 -0.0944,3.42119 -0.28125,4.50586c-0.18685,1.06639 -0.53318,2.04297 -1.03906,2.93164l-1.23047,-1.0254c0.46485,-0.84766 0.77018,-1.86522 0.91602,-3.05468c0.10936,-0.875 0.16406,-1.99483 0.16406,-3.35742v-4.57227h5.22265v-1.28516zM143.6582,455.42036l-1.10742,1.09375c-0.56054,-0.7702 -1.24091,-1.4935 -2.04297,-2.16797l1.03125,-0.99804c0.7428,0.54686 1.44921,1.23826 2.11914,2.07226zM193.77734,453.52583v0.97852h-4.36132v0.58789h5.66015v2.45312h-1.48437v-1.57226h-4.17578v2.66015h-1.45704v-2.66015h-4.10156v1.57226h-1.46875v-2.45312h5.57031v-0.58789h-4.27343v-0.97852zM217.40038,453.84617c-0.13672,0.24607 -0.37826,0.64713 -0.72461,1.20313l-0.08789,0.14258h4.81836v1.34765h-5.72852c-0.597,0.82027 -1.16665,1.53122 -1.70898,2.13282c0.86133,-0.515 1.64844,-0.77344 2.35938,-0.77344c1.10287,0 1.82422,0.55275 2.16602,1.66015c1.16666,-0.38733 2.35609,-0.76821 3.56836,-1.14648l0.58789,1.32617l-0.23829,0.0664l-0.67773,0.17773c-1.27606,0.34633 -2.2969,0.64261 -3.0625,0.88867c0.05469,0.59247 0.09439,1.35808 0.11719,2.29688l-1.49805,0.082c-0.00466,-0.54227 -0.01381,-1.13021 -0.02734,-1.76367v-0.13672c-2.09633,0.71547 -3.14453,1.43556 -3.14453,2.16016c0,0.37373 0.26888,0.62895 0.80664,0.76562c0.51953,0.13222 1.4492,0.19922 2.78906,0.19922c1.235,0 2.53256,-0.07162 3.89063,-0.21289l0.16406,1.45703c-1.31706,0.10029 -2.68297,0.15039 -4.0957,0.15039c-1.74087,0 -2.9772,-0.13215 -3.71094,-0.39648c-0.90693,-0.32814 -1.36133,-0.91929 -1.36133,-1.77149c0,-0.72006 0.32226,-1.35485 0.96484,-1.90625c0.66537,-0.56966 1.83657,-1.15754 3.51367,-1.76367c-0.09115,-0.35093 -0.2129,-0.59701 -0.36328,-0.73828c-0.16862,-0.15944 -0.39192,-0.24024 -0.66992,-0.24024c-0.45117,0 -1.01761,0.17188 -1.70117,0.51368c-0.84307,0.41926 -1.74864,1.04951 -2.71484,1.89257l-0.9082,-1.03906c1.41733,-1.31706 2.52606,-2.61135 3.32813,-3.88281h-2.78125v-1.3457h3.68359c0.4056,-0.64714 0.71419,-1.16988 0.92383,-1.56641zM201.65234,453.80512v1.13476h-4.66211v-1.13476zM249.67773,454.02582v1.34766h-9.88476v-1.34766zM202.42383,455.80707v1.23047h-6.27539v-1.23047zM166.09957,457.24071c-0.76107,0.196 -1.67251,0.36914 -2.73438,0.51954l-0.27929,0.041c0.02733,0.45573 0.08653,1.0117 0.17773,1.66797l3.54688,-0.15039l0.0684,1.17578l-3.39649,0.15625c0.28711,1.25327 0.70639,2.26824 1.25781,3.04297c0.20508,0.28253 0.41472,0.51172 0.62891,0.68945c0.17318,0.13678 0.28836,0.20508 0.34766,0.20508c0.17317,0 0.32356,-0.69852 0.45117,-2.09766l1.29883,0.83985c-0.13217,0.9798 -0.28386,1.69074 -0.45703,2.13281c-0.22787,0.56507 -0.55925,0.84766 -0.99219,0.84766c-0.36459,0 -0.79881,-0.19729 -1.30469,-0.59375c-0.60612,-0.47854 -1.14715,-1.12435 -1.62109,-1.93555c-0.41928,-0.7246 -0.76239,-1.74222 -1.03125,-3.05469l-2.91993,0.10156v2.29102c1.01174,-0.20507 2.00981,-0.44207 2.99415,-0.71094l0.12304,1.17578c-1.65886,0.4922 -3.4134,0.90234 -5.26367,1.23047l-0.44336,-1.24414c0.32813,-0.05 0.71097,-0.10923 1.14844,-0.17773v-6.34574l0.4375,-0.0254c2.84833,-0.1504 5.19207,-0.45442 7.0332,-0.91015zM187.37109,456.47895v0.77343h-2.91211v-0.77343zM193.00391,456.47895v0.77343h-3.00196v-0.77343zM143.16602,458.99457l-1.10743,1.12891c-0.69273,-0.88867 -1.39132,-1.6348 -2.09765,-2.23633l1.0664,-1.02539c0.79294,0.62433 1.50521,1.33528 2.13868,2.13281zM152.16994,456.99262c0,0.2142 -0.0215,1.23049 -0.0625,3.04883h1.30664v1.23046h-1.33398c-0.0137,0.597 -0.0423,1.27277 -0.0879,2.0293h1.15429v1.20313h-1.24414c-0.05466,0.6608 -0.12891,1.0983 -0.22461,1.3125c-0.21419,0.5104 -0.73372,0.76562 -1.55859,0.76562c-0.52865,0 -1.01627,-0.03773 -1.46289,-0.11523l-0.25391,-1.2168c0.64258,0.09112 1.13474,0.13672 1.47657,0.13672c0.27799,0 0.4453,-0.09899 0.5,-0.29492c0.0273,-0.09574 0.0514,-0.29169 0.0742,-0.58789h-4.86718c-0.0046,0.03668 -0.0105,0.07638 -0.0195,0.11718c-0.04099,0.24154 -0.08069,0.4694 -0.11719,0.6836l-1.41406,-0.13672c0.278,-1.6452 0.46484,-2.88929 0.56054,-3.73242l0.0195,-0.16407h-1.36718v-1.23046h1.51172c0.1276,-1.10287 0.23702,-2.11917 0.32812,-3.04883zM251.32421,457.7309v1.36133h-5.75586v6.0625c0,0.5514 -0.11068,0.92837 -0.33399,1.1289c-0.20963,0.18224 -0.61523,0.27344 -1.21679,0.27344c-0.6836,0 -1.33402,-0.04436 -1.94922,-0.13086l-0.29297,-1.4414c0.63802,0.10484 1.24872,0.15624 1.83203,0.15624c0.19596,0 0.31904,-0.03326 0.36914,-0.10156c0.0365,-0.05933 0.0547,-0.15825 0.0547,-0.29492v-5.65234h-5.87891v-1.36133zM187.37109,457.7369v0.78711h-2.91211v-0.78711zM193.00391,457.7369v0.78711h-3.00196v-0.78711zM201.65234,457.90682v1.13477h-4.66211v-1.13477zM161.5,457.98496c-0.597,0.05933 -1.38411,0.11863 -2.35938,0.17773v1.49023l2.71485,-0.10937c-0.09115,-0.62433 -0.15491,-1.14973 -0.19141,-1.57813v-0.002zM146.35157,458.18217c-0.01366,0.23247 -0.05464,0.72135 -0.12304,1.46875l-0.041,0.39063h1.51758l0.0215,-0.19141c0.0091,-0.13213 0.0228,-0.31769 0.041,-0.55469c0.0456,-0.638 0.073,-1.00841 0.082,-1.11328h-1.49805zM149.19534,458.18217c-0.02276,0.54233 -0.05596,1.14061 -0.10156,1.79688v0.0625h1.60547c0.0182,-0.62434 0.0351,-1.24411 0.0488,-1.85938h-1.55274zM194.72073,459.04353v0.9082h-10.33008v2.09961h10.91797v0.96289h-1.55273l0.86914,0.57422c-0.51497,0.4284 -1.12435,0.82939 -1.82617,1.20313c0.69726,0.26433 1.56773,0.47397 2.61133,0.6289l-0.80078,1.16211c-1.46287,-0.25067 -2.66277,-0.68035 -3.60157,-1.29101c-0.93426,-0.61067 -1.66211,-1.37042 -2.18164,-2.27735h-1.50976v2.10547c1.00713,-0.14127 1.9414,-0.29164 2.80273,-0.45117l0.0957,1.01953c-1.60413,0.3828 -3.43944,0.71551 -5.5039,0.99805l-0.40235,-1.20313c0.71547,-0.07746 1.20442,-0.13216 1.46875,-0.16406l0.082,-0.0137v-2.29102h-1.4961c-0.0638,0.80213 -0.16862,1.44341 -0.31445,1.92188c-0.17318,0.57426 -0.45117,1.10873 -0.83399,1.60547l-1.21679,-1.00391c0.44661,-0.5788 0.72461,-1.25652 0.83398,-2.03125c0.0593,-0.41927 0.0879,-0.94012 0.0879,-1.56445v-2.89844zM201.65234,459.90873v1.09375h-4.66211v-1.09375zM233.16211,462.00444c0.8112,-0.57874 1.52215,-1.20766 2.13281,-1.88672h-3.23242c0.29167,0.69726 0.65754,1.32618 1.09961,1.88672zM230.66797,460.13727c-0.45573,0.5332 -1.00584,1.01168 -1.64844,1.43555v3.07031c1.12567,-0.25067 2.25589,-0.54234 3.39063,-0.875l0.31445,-0.0899c-0.93427,-1.03446 -1.61917,-2.21481 -2.05664,-3.54101zM251.1875,464.41066l-1.38672,0.93554c-0.94333,-1.99613 -1.76367,-3.45572 -2.46094,-4.38086l1.28516,-0.76562c1.0026,1.28973 1.8561,2.69334 2.5625,4.21094zM241.86328,460.938c-0.69726,1.95506 -1.57359,3.49089 -2.63086,4.60742l-1.16211,-1.0332c0.9844,-1.02993 1.77738,-2.39842 2.37891,-4.10742zM193.71484,460.52589v0.89649h-8.51172v-0.89649zM143.67188,462.01612c-0.59245,1.65887 -1.35352,3.18101 -2.28321,4.56641l-1.18945,-1.09375c0.793,-1.09833 1.54493,-2.54424 2.25586,-4.33984zM146.05861,461.27198c-0.06836,0.556 -0.14125,1.10422 -0.21875,1.64649l-0.0547,0.38281h1.59961c0.10938,-0.98893 0.17903,-1.6647 0.21093,-2.0293h-1.53711zM148.99799,461.27198c-0.0136,0.18227 -0.041,0.48308 -0.082,0.90235l-0.10938,1.12695h1.74219c0.0228,-0.44206 0.041,-0.77471 0.0547,-0.99805c0.0274,-0.4876 0.0457,-0.83071 0.0547,-1.03125h-1.66015zM201.95898,461.89112v4.00586h-3.84766v0.70508h-1.41602v-4.71094zM191.73242,464.26612c0.65625,-0.44659 1.1771,-0.86455 1.56446,-1.25195h-2.98633c0.39192,0.50133 0.86587,0.91929 1.42187,1.25195zM198.11133,464.73492h2.43359v-1.68165h-2.43359zM163.5293,465.12749v1.23047h-6.24024v-1.23047z"/><path d="M145.96093,419.126v-0.58789h-4.27246v-0.97754h10.08984v0.97754h-4.36133v0.58789h5.66016v2.4541h-1.4834v-1.57227h-4.17676v2.65918h-1.45605v-2.65918h-4.10156v1.57227h-1.46973v-2.4541zM150.80077,428.82619c0.69727,0.26433 1.56771,0.47396 2.61133,0.62891l-0.7998,1.16211c-1.46289,-0.25065 -2.66374,-0.68132 -3.60254,-1.29199c-0.93424,-0.61068 -1.66113,-1.36947 -2.18066,-2.27637h-1.51074v2.10547c1.00716,-0.14128 1.94141,-0.29167 2.80273,-0.45118l0.0957,1.01856c-1.60417,0.38281 -3.43848,0.7155 -5.50293,0.99805l-0.40332,-1.20313c0.71549,-0.07747 1.2054,-0.13216 1.46973,-0.16406l0.08203,-0.0137v-2.29004h-1.49707c-0.0638,0.80208 -0.16862,1.44238 -0.31445,1.9209c-0.17318,0.57421 -0.45117,1.10969 -0.83398,1.60644l-1.2168,-1.00488c0.44661,-0.57878 0.72461,-1.25554 0.83399,-2.03027c0.05925,-0.41927 0.08887,-0.94108 0.08887,-1.56543v-2.89844h11.79883v0.90918h-10.3291v2.09863h10.91699v0.96387h-1.55176l0.86816,0.57422c-0.51497,0.42838 -1.12337,0.82942 -1.8252,1.20312zM149.73437,428.29982c0.65625,-0.44661 1.17806,-0.8636 1.56543,-1.25097h-2.98731c0.39193,0.5013 0.86589,0.91829 1.42188,1.25097zM142.46093,420.51369h2.91211v0.77246h-2.91211zM142.46093,421.7715h2.91211v0.78614h-2.91211zM148.00488,420.51369h3.00098v0.77246h-3.00098zM148.00488,421.7715h3.00098v0.78614h-3.00098zM143.20605,424.56057h8.51074v0.8955h-8.51074zM161.7998,418.51076h5.35938v1.14844h-3.03516v1.13477h2.84375v1.10742h-2.84375v2.03711h-5.50293v-2.03711h-2.24219v1.27148c0,2.06445 -0.10937,3.69596 -0.32812,4.89453c-0.16862,0.91146 -0.44206,1.74317 -0.82031,2.49512l-1.24414,-0.98438c0.34635,-0.75195 0.58333,-1.67024 0.71094,-2.75488c0.11393,-0.95247 0.1709,-2.16927 0.1709,-3.65039v-4.66211h5.40723v-1.23047h1.52441zM156.3789,419.6592v1.13477h2.24219v-1.13477zM160.07714,419.6592v1.13477h2.59082v-1.13477zM160.07714,421.90139v1.05957h2.59082v-1.05957zM161.66308,429.07912c-1.31706,0.68359 -2.98958,1.20313 -5.01758,1.5586l-0.71094,-1.25782c1.90495,-0.22786 3.39746,-0.57649 4.47754,-1.0459c-0.92513,-0.66992 -1.71582,-1.46517 -2.37207,-2.38574h-0.94336v-1.18945h8.00488l0.71777,0.60156c-0.67904,1.04362 -1.64746,2.02572 -2.90527,2.94629c1.08008,0.43294 2.55208,0.75195 4.41602,0.95703l-0.7998,1.29199c-1.78646,-0.24153 -3.40885,-0.73372 -4.86719,-1.47656zM159.6328,425.94826c0.55143,0.64714 1.22135,1.2168 2.00977,1.70899c0.88867,-0.57422 1.57454,-1.14388 2.05762,-1.70899zM173.06543,417.97756c1.43555,0 2.54753,0.62207 3.33594,1.86621c0.66081,1.03906 0.99121,2.40853 0.99121,4.1084c0,1.55403 -0.28027,2.83463 -0.84082,3.8418c-0.7793,1.4082 -1.94824,2.1123 -3.50684,2.1123c-1.39909,0 -2.49056,-0.58333 -3.27441,-1.75c-0.70638,-1.04818 -1.05957,-2.44955 -1.05957,-4.2041c0,-1.82292 0.37825,-3.2653 1.13476,-4.32715c0.78385,-1.09831 1.8571,-1.64746 3.21973,-1.64746zM173.04492,419.44729c-0.73828,0 -1.32161,0.4056 -1.75,1.21679c-0.41471,0.79297 -0.62207,1.889 -0.62207,3.28809c0,1.30794 0.18913,2.35156 0.56738,3.13086c0.43294,0.88411 1.03906,1.32617 1.81836,1.32617c0.68359,0 1.2373,-0.35547 1.66113,-1.06641c0.47396,-0.79753 0.71094,-1.92773 0.71094,-3.39062c0,-1.38997 -0.20508,-2.48145 -0.61523,-3.27442c-0.42839,-0.82031 -1.01855,-1.23046 -1.77051,-1.23046zM186.06054,428.5049c2.67513,-0.67448 4.0127,-2.20801 4.0127,-4.60058c0,-1.04362 -0.26888,-1.94141 -0.80664,-2.69336c-0.60156,-0.84766 -1.51758,-1.39226 -2.74805,-1.63379c-0.26888,2.11458 -0.63574,3.84635 -1.10059,5.19531c-0.31901,0.94336 -0.7155,1.83431 -1.18945,2.67285c-0.68359,1.19401 -1.46061,1.79102 -2.33105,1.79102c-0.64714,0 -1.22363,-0.29167 -1.72949,-0.875c-0.32357,-0.36914 -0.58561,-0.82259 -0.78613,-1.36035c-0.26432,-0.69727 -0.39648,-1.44694 -0.39648,-2.24903c0,-1.29883 0.35775,-2.49511 1.07324,-3.58886c0.72461,-1.11654 1.66569,-1.92774 2.82324,-2.4336c0.8431,-0.36914 1.76823,-0.55371 2.77539,-0.55371c1.57227,0 2.90755,0.42155 4.00586,1.26465c1.34896,1.03451 2.02344,2.49968 2.02344,4.39551c0,3.17643 -1.60645,5.19076 -4.81934,6.04297zM185.03515,419.52248c-0.80664,0.09115 -1.48112,0.30762 -2.02344,0.64941c-0.34635,0.22331 -0.69043,0.51954 -1.03223,0.88868c-0.94792,1.04817 -1.42187,2.26269 -1.42187,3.64355c0,1.00716 0.20052,1.79557 0.60156,2.36524c0.24609,0.35091 0.48991,0.52636 0.73145,0.52636c0.32813,0 0.69727,-0.3623 1.10742,-1.08691c1.0026,-1.76367 1.68164,-4.09245 2.03711,-6.98633zM192.90331,418.68166h10.71191l0.88184,0.74512c-0.25521,0.95247 -0.58789,1.74772 -0.99805,2.38574c-0.77018,1.20768 -1.92318,2.11002 -3.45898,2.70703l-0.86133,-1.17578c1.06185,-0.31901 1.94369,-0.89095 2.64551,-1.71582c0.41471,-0.48763 0.7041,-1.00261 0.86816,-1.54492h-9.78906zM197.28515,421.63479h1.56543v1.17578c0,1.76367 -0.19596,3.1263 -0.58789,4.08789c-0.49675,1.22135 -1.46289,2.21484 -2.89844,2.98047l-1.12793,-1.18946c0.98893,-0.4694 1.71126,-1.02995 2.16699,-1.68164c0.35091,-0.50586 0.58105,-1.04134 0.69043,-1.60644c0.1276,-0.64714 0.19141,-1.51531 0.19141,-2.6045zM210.86132,429.97463v-7.01367c-1.38542,0.92969 -2.9668,1.71354 -4.74414,2.35156l-0.82715,-1.3877c2.01888,-0.67903 3.78939,-1.55403 5.31152,-2.625c1.49479,-1.05273 2.82552,-2.25814 3.99219,-3.61621l1.31934,0.82715c-1.03451,1.18945 -2.1875,2.28093 -3.45898,3.27442v8.18945zM217.49218,418.85939h10.00781v10.34961h-10.24707v-1.42871h8.62012v-7.49218h-8.38086zM234.88964,421.38186c-1.44011,-0.64258 -2.93718,-1.15756 -4.49121,-1.54493l0.47852,-1.46972c1.80013,0.41015 3.31087,0.92057 4.53222,1.53125zM230.56933,428.18361c2.25586,-0.19141 3.98307,-0.59473 5.18164,-1.20996c1.41276,-0.72917 2.4974,-1.84798 3.25391,-3.35644c0.49219,-0.97526 0.89095,-2.2513 1.19628,-3.82813l1.3125,0.96387c-0.36914,1.6862 -0.81575,3.02604 -1.33984,4.01953c-0.94791,1.80925 -2.39713,3.11947 -4.34766,3.93066c-1.23047,0.51042 -2.87565,0.875 -4.93554,1.09375zM251.22753,427.71193l0.0957,1.22364c-1.97786,0.69727 -4.17675,1.27148 -6.59668,1.72265l-0.50585,-1.36718c0.41927,-0.0638 1.01171,-0.16634 1.77734,-0.30762v-2.50195c-0.78841,0.40104 -1.72722,0.78157 -2.81641,1.1416l-0.77929,-1.2168c2.19205,-0.59245 3.86458,-1.34896 5.01757,-2.26953h-4.88086v-1.18945h5.8584v-1.03223h-4.42968v-1.14844h4.42968v-0.96387h-5.12695v-1.17578h5.12695v-1.34668h1.49707v1.34668h5.27735v1.17578h-5.27735v0.96387h4.58008v1.14844h-4.58008v1.03223h6.00879v1.18945h-1.63379l1.01172,0.69726c-0.62435,0.60612 -1.49935,1.26921 -2.625,1.98926l-0.15722,0.10254c0.85677,0.78385 2.01887,1.43099 3.48632,1.94141l-0.92285,1.38769c-1.59049,-0.67448 -2.86881,-1.52214 -3.83496,-2.54297zM249.15623,424.15725c-0.45573,0.5332 -1.00488,1.01171 -1.64746,1.43554v3.06934c1.12565,-0.25065 2.25586,-0.54232 3.39063,-0.875l0.31445,-0.0889c-0.93425,-1.03451 -1.62012,-2.21484 -2.05762,-3.54101zM251.65135,426.02346c0.8112,-0.57878 1.52214,-1.20769 2.13281,-1.88672h-3.2334c0.29167,0.69727 0.65853,1.32617 1.10059,1.88672zM264.05175,423.10451v6.06348c0,0.55143 -0.11165,0.92741 -0.33496,1.12793c-0.20963,0.18229 -0.61523,0.27344 -1.2168,0.27344c-0.68359,0 -1.33301,-0.0433 -1.94824,-0.12989l-0.29395,-1.44238c0.63803,0.10482 1.24871,0.15723 1.83204,0.15723c0.19596,0 0.31901,-0.03418 0.36914,-0.10254c0.03647,-0.05927 0.0547,-0.15725 0.0547,-0.29395v-5.65332h-5.8789v-1.36035h13.17285v1.36035zM258.27538,418.03908h9.88477v1.34668h-9.88477zM256.55273,428.52541c0.98437,-1.02995 1.77734,-2.39941 2.3789,-4.1084l1.41504,0.53321c-0.69727,1.95507 -1.57454,3.49088 -2.63183,4.60742zM268.28319,429.35939c-0.94336,-1.99609 -1.76367,-3.4567 -2.46094,-4.38183l1.28515,-0.76563c1.00261,1.28971 1.8571,2.69336 2.56348,4.21094z"/><path d="M227.20268,384.65223c-0.25061,0.9183 -0.52917,1.79183 -0.8379,2.6211v8.50976h-1.18358v-5.92382c-0.23973,0.43787 -0.52273,0.90635 -0.84961,1.40234l-0.56641,-1.30274c0.62108,-0.92607 1.14313,-2.01205 1.56444,-3.25976c0.21066,-0.62 0.4408,-1.41406 0.69141,-2.37891zM199.16752,384.71082c-0.27967,0.99976 -0.55321,1.85339 -0.81835,2.5625v8.50976h-1.16016v-5.96289c-0.23609,0.43016 -0.54191,0.91657 -0.91602,1.46289l-0.55468,-1.30664c0.60293,-0.89509 1.1091,-1.92146 1.51953,-3.08008c0.24698,-0.68975 0.49993,-1.52552 0.75781,-2.50586zM154.5894,384.4725v1.40625h1.57422v1.07031h-1.57422v0.70898c0.64652,0.39525 1.22365,0.81218 1.72852,1.25391l-0.66016,1.02344c-0.34505,-0.41074 -0.70151,-0.77602 -1.06836,-1.09766v2.58594h-1.16992v-2.98242c-0.47217,0.9183 -1.01953,1.6707 -1.64062,2.25586l-0.62696,-1.08204c0.81359,-0.65877 1.5012,-1.54624 2.06055,-2.66601h-1.80469v-1.07031h2.01172v-1.40625zM179.70659,384.4725v1.04492h4.27149v0.97656h-2.41992v0.96484h2.26757v0.94141h-2.26757v1.73242h-4.38477v-1.73242h-1.78711v1.08203c0,1.75527 -0.08738,3.14301 -0.26172,4.16211c-0.13439,0.775 -0.35283,1.48174 -0.65429,2.12109l-0.99219,-0.83789c0.27604,-0.63934 0.46471,-1.41957 0.5664,-2.34179c0.09082,-0.80984 0.13672,-1.84423 0.13672,-3.10352v-3.96484h4.31055v-1.04492zM203.09527,384.4725v1.17968h3.35547v1.03516h-3.35547v0.97656h2.83203v3.68946h-2.84766c-0.04356,0.78663 -0.18158,1.42189 -0.41406,1.90625c1.17681,0.63156 2.48356,1.06834 3.92187,1.30859l-0.57226,1.21484c-1.4928,-0.39518 -2.8132,-0.93326 -3.96094,-1.61523c-0.64652,0.73231 -1.58984,1.30015 -2.83203,1.70703l-0.63867,-1.02148c1.04968,-0.23254 1.88449,-0.67125 2.50195,-1.31446c-0.5194,-0.36812 -1.08512,-0.81482 -1.69531,-1.34179l0.78515,-0.69727c0.51577,0.44951 1.02194,0.84062 1.51954,1.17383c0.15981,-0.36812 0.25892,-0.80883 0.29882,-1.32031h-2.8164v-3.68946h2.78906v-0.97656h-3.00195v-1.03516h3.00195v-1.17968zM222.76325,384.4725c-0.4867,0.59672 -0.87991,1.14662 -1.17773,1.65039c-0.75548,1.28642 -1.13282,2.62254 -1.13282,4.00976c0,1.30969 0.33811,2.57429 1.01368,3.79102c0.31963,0.57345 0.75206,1.19289 1.29687,1.85937h-1.0625c-0.66468,-0.63935 -1.20981,-1.41957 -1.63477,-2.34179c-0.52302,-1.13534 -0.78515,-2.24316 -0.78515,-3.32032c0,-1.22058 0.3289,-2.4614 0.98633,-3.72461c0.39952,-0.76336 0.87787,-1.40456 1.43358,-1.92382zM237.61481,384.4725v4.17773h1.38282v-0.56836h2.61133v-0.57617h-2.01172v-0.83008h2.01172v-0.55859h-2.28907v-0.8711h2.28907v-0.77343h1.11523v0.77343h2.61133v0.8711h-2.61133v0.55859h2.21875v0.83008h-2.21875v0.57617h2.89844v0.92969h-6.5586v0.78516h-1.44922v0.62109c0.56662,0.56574 1.0956,1.17524 1.58594,1.83008l-0.61719,1.05859c-0.36321,-0.59673 -0.68544,-1.10892 -0.96875,-1.53516v4.01172h-1.07421v-3.88867c-0.30873,0.84861 -0.7047,1.64079 -1.19141,2.37695l-0.61719,-1.15625c0.69373,-0.86017 1.25501,-1.96598 1.6836,-3.31835h-1.47071v-1.14649h1.59571v-4.17773zM252.28669,384.4725v1.04492h4.27148v0.97656h-2.41992v0.96484h2.26758v0.94141h-2.26758v1.73242h-4.38476v-1.73242h-1.78711v1.08203c0,1.75527 -0.08738,3.14301 -0.26172,4.16211c-0.13439,0.775 -0.35284,1.48174 -0.6543,2.12109l-0.99023,-0.83789c0.27603,-0.63934 0.4647,-1.41957 0.5664,-2.34179c0.09077,-0.80984 0.13477,-1.84423 0.13477,-3.10352v-3.96484h4.31055v-1.04492zM258.857,384.4725c0.66467,0.64327 1.20981,1.42349 1.63477,2.34179c0.52302,1.13534 0.78515,2.23914 0.78515,3.3125c0,1.22444 -0.33114,2.46922 -0.99218,3.73243c-0.39591,0.75951 -0.87203,1.40078 -1.42774,1.92382h-1.0625c0.4867,-0.59672 0.8799,-1.14669 1.17774,-1.65039c0.75548,-1.28648 1.13281,-2.62056 1.13281,-4c0,-1.31746 -0.3381,-2.58412 -1.01367,-3.80078c-0.316,-0.56574 -0.74843,-1.18511 -1.29688,-1.85937zM233.90972,385.64041c-0.7119,0.21698 -1.45711,0.39959 -2.23438,0.54688c0.01453,0.75173 0.0557,1.48035 0.1211,2.18945l2.56054,-0.15625l0.043,1.13282l-2.49414,0.14648c0.18887,1.62361 0.46491,2.85055 0.82813,3.68359c0.09806,0.22476 0.21104,0.43514 0.34179,0.62891c0.08715,0.12791 0.14925,0.19141 0.18555,0.19141c0.03993,0 0.0928,-0.12908 0.1582,-0.38868c0.08354,-0.34098 0.15479,-0.84917 0.21289,-1.52343l0.9375,0.78515c-0.11258,0.94158 -0.24366,1.60661 -0.39258,1.99414c-0.2034,0.5192 -0.44716,0.77735 -0.73046,0.77735c-0.24336,0 -0.53304,-0.17474 -0.86719,-0.52344c-0.3959,-0.41467 -0.75042,-1.0281 -1.06641,-1.8418c-0.21429,-0.5541 -0.37513,-1.13184 -0.48047,-1.73242c-0.0908,-0.52312 -0.17154,-1.12667 -0.24414,-1.8125l-0.0176,-0.1582l-2.01562,0.1289v2.78321c0.71553,-0.20541 1.39646,-0.42179 2.04297,-0.65039l0.0879,1.07031c-1.09689,0.47657 -2.3366,0.89951 -3.71681,1.27148l-0.41406,-1.1914c0.21066,-0.04267 0.50257,-0.10817 0.87305,-0.19727v-7.1543c0.13438,-0.0117 0.27241,-0.0234 0.41407,-0.0351c1.37657,-0.10459 2.73369,-0.31903 4.07031,-0.64453c0.32689,-0.08139 0.67222,-0.18064 1.03906,-0.29688zM171.71832,384.7108v0.83008h-3.47461v0.5h4.50976v2.08789h-1.18164v-1.33789h-3.32812v2.26171h-1.16016v-2.26171h-3.26953v1.33789h-1.17188v-2.08789h4.44141v-0.5h-3.40625v-0.83008zM190.54839,384.96081c-0.10896,0.20926 -0.30208,0.54877 -0.57812,1.02148l-0.0703,0.12305h3.83984v1.14453h-4.56445c-0.4758,0.69747 -0.93106,1.30297 -1.36328,1.81445c0.68647,-0.43787 1.31425,-0.6582 1.88086,-0.6582c0.87897,0 1.45415,0.47249 1.72656,1.41406c0.92982,-0.32935 1.87761,-0.65499 2.84375,-0.97656l0.46875,1.12695l-0.19141,0.0586l-0.53906,0.15039c-1.01699,0.2945 -1.82926,0.5466 -2.43945,0.75586c0.0436,0.5037 0.0736,1.15492 0.0918,1.95312l-1.19336,0.0703c-0.0039,-0.46114 -0.0109,-0.96139 -0.0215,-1.5v-0.11718c-1.67077,0.60836 -2.50586,1.22181 -2.50586,1.83789c0,0.31778 0.21399,0.53415 0.64258,0.65039c0.41406,0.11237 1.15481,0.16797 2.22265,0.16797c0.9843,0 2.01724,-0.05953 3.09961,-0.17969l0.13086,1.23828c-1.04968,0.08525 -2.13771,0.12695 -3.26367,0.12695c-1.38747,0 -2.37226,-0.11118 -2.95703,-0.33593c-0.72279,-0.27895 -1.08398,-0.78126 -1.08398,-1.50586c0,-0.61222 0.25545,-1.15224 0.76757,-1.6211c0.53029,-0.48434 1.46416,-0.98459 2.80079,-1.5c-0.07265,-0.29836 -0.16921,-0.50686 -0.28907,-0.62695c-0.13439,-0.13568 -0.3136,-0.20508 -0.53515,-0.20508c-0.35959,0 -0.81066,0.14685 -1.35547,0.4375c-0.67194,0.35648 -1.39405,0.89256 -2.16406,1.60938l-0.72461,-0.88282c1.12958,-1.11984 2.01504,-2.22165 2.65429,-3.30273h-2.21679v-1.14453h2.93554c0.32326,-0.55025 0.56926,-0.9949 0.73633,-1.33203zM161.13823,384.89048v6.3418h-4.375c0.46492,0.47271 0.92267,1.0405 1.37305,1.70313l-0.96875,0.73828c-0.50123,-0.82534 -0.98654,-1.46862 -1.45508,-1.92969l0.77344,-0.57617v-6.27735zM148.60697,384.92568l0.67188,0.69727c-0.95162,0.81762 -1.86685,1.52837 -2.74219,2.13281c0.25425,0.13951 0.54838,0.30623 0.8789,0.5l-0.69336,0.59961h3.28125l0.61524,0.65625c-0.81723,1.31354 -1.63368,2.39157 -2.44727,3.23633l-1.10547,-0.69141c0.71553,-0.69747 1.29044,-1.39039 1.72266,-2.08008h-2.71484v4.55664c0,0.52698 -0.12189,0.8645 -0.36524,1.01172c-0.16344,0.10079 -0.46731,0.15039 -0.91406,0.15039c-0.58477,0 -1.22897,-0.03773 -1.93359,-0.11523l-0.26758,-1.29688c0.6792,0.11623 1.28193,0.17383 1.80859,0.17383c0.19977,0 0.3239,-0.03381 0.3711,-0.10351c0.0364,-0.05787 0.0547,-0.16506 0.0547,-0.32032v-4.05664h-4.56641v-1.12109h5.90625c-1.22765,-0.75173 -2.45594,-1.38706 -3.68359,-1.90625l0.88281,-0.75c0.82449,0.35262 1.55356,0.69406 2.18555,1.02734c0.55934,-0.40688 1.04937,-0.80587 1.4707,-1.19726h-5.82422v-1.10352zM216.74765,385.07606v9.29492c0,0.39526 -0.06678,0.68118 -0.20117,0.85938c-0.16707,0.2209 -0.50517,0.33203 -1.01367,0.33203c-0.56661,0 -1.06832,-0.0235 -1.50781,-0.0703l-0.21289,-1.25c0.5775,0.07749 1.0539,0.11718 1.43164,0.11719c0.15254,0 0.24433,-0.03763 0.27343,-0.11133c0.0183,-0.05027 0.0273,-0.12371 0.0273,-0.22071v-2.29687h-2.66992v3.51172h-1.17187v-3.51172h-2.55469c-0.03266,0.80599 -0.10613,1.47503 -0.21875,2.00586c-0.15981,0.7246 -0.45895,1.40946 -0.89844,2.05273l-1.02344,-0.90234c0.42132,-0.59673 0.6996,-1.31943 0.83399,-2.16797c0.07628,-0.49213 0.11328,-1.04603 0.11328,-1.66211v-5.98047zM239.18315,385.35537c-0.15255,1.13534 -0.35039,2.06647 -0.59375,2.79492l-0.86523,-0.27148c0.19613,-0.8137 0.35947,-1.73884 0.49023,-2.77344zM236.29644,387.91201l-0.94727,0.23828c-0.1017,-0.99969 -0.24418,-1.8851 -0.42578,-2.65625l0.94726,-0.2832c0.21794,0.89508 0.36039,1.79444 0.42579,2.70117zM157.58745,386.73232h2.42383v-0.88867h-2.42383zM209.15971,387.87881h2.54297v-1.67969h-2.54297zM212.87454,387.87881h2.66993v-1.67969h-2.66993zM228.75541,386.60537v1.95898l1.91211,-0.11718c-0.04728,-0.60837 -0.08428,-1.29728 -0.11328,-2.06836c-0.55936,0.09296 -1.15958,0.16846 -1.79883,0.22656zM175.38626,387.45888h1.78711v-0.96484h-1.78711zM178.33353,387.45888h2.06445v-0.96484h-2.06445zM247.96635,387.45888h1.78711v-0.96484h-1.78711zM250.91361,387.45888h2.06446v-0.96484h-2.06446zM166.61477,387.2206v0.65821h-2.32226v-0.65821zM171.10306,387.2206v0.65821h-2.39063v-0.65821zM157.58743,388.50576h2.42383v-0.87695h-2.42383zM166.61477,388.29092v0.66796h-2.32226v-0.66796zM171.10306,388.29092v0.66796h-2.39063v-0.66796zM178.33352,389.30263h2.06446v-0.90234h-2.06446zM250.9136,389.30263h2.06446v-0.90234h-2.06446zM200.2847,390.37685h1.68165v-1.73828h-1.68165zM203.09525,390.37685h1.7168v-1.73828h-1.7168zM209.15971,390.66201h2.54297v-1.72656h-2.54297zM212.87456,390.66201h2.66992v-1.72656h-2.66992zM157.58744,390.2792h2.42383v-0.89063h-2.42383zM172.47024,389.40025v0.77344h-8.23242v1.78515h8.70117v0.81836h-1.23633l0.69141,0.48828c-0.41043,0.36426 -0.89573,0.70573 -1.45508,1.02344c0.55572,0.22476 1.25028,0.40343 2.08203,0.53516l-0.63672,0.98828c-1.1659,-0.21312 -2.12287,-0.58035 -2.87109,-1.09961c-0.74458,-0.51919 -1.32422,-1.1644 -1.73828,-1.93555h-1.20508v1.79102c0.8027,-0.12009 1.5479,-0.24911 2.23437,-0.38477l0.0762,0.86719c-1.2785,0.32549 -2.73941,0.60741 -4.38476,0.84766l-0.32227,-1.02149c0.57025,-0.06612 0.96122,-0.11372 1.17188,-0.14062l0.0644,-0.0117v-1.94727h-1.19336c-0.05086,0.68198 -0.13379,1.22788 -0.25,1.63477c-0.13802,0.48821 -0.35897,0.94286 -0.66406,1.36523l-0.97071,-0.85546c0.35595,-0.49214 0.57687,-1.06592 0.66407,-1.72461c0.0472,-0.35648 0.0723,-0.80114 0.0723,-1.33204v-2.46484zM244.79446,389.62681v5.10352c0,0.34485 -0.07624,0.60094 -0.23242,0.76758c-0.14891,0.1666 -0.40409,0.25 -0.76367,0.25c-0.39226,0 -0.84083,-0.0335 -1.34571,-0.0996l-0.17968,-1.05664c0.49396,0.062 0.87576,0.0918 1.14453,0.0918c0.12713,0 0.20311,-0.03969 0.22851,-0.12109c0.0145,-0.05027 0.0215,-0.12769 0.0215,-0.23242v-0.88477h-2.93164v2.33789h-1.12695v-6.15625zM240.73588,391.13855h2.93164v-0.65625h-2.93164zM171.66946,390.66199v0.76172h-6.7832v-0.76172zM182.33741,390.82996l0.57227,0.51172c-0.54118,0.88731 -1.31394,1.72308 -2.31641,2.50586c0.86081,0.36805 2.034,0.64003 3.51953,0.81445l-0.63672,1.09766c-1.42378,-0.20534 -2.71663,-0.62422 -3.8789,-1.25586c-1.04968,0.58123 -2.38371,1.02388 -4,1.32617l-0.56641,-1.07031c1.51823,-0.1937 2.70755,-0.48957 3.56836,-0.88868c-0.73732,-0.56966 -1.36565,-1.24658 -1.88867,-2.02929h-0.75195v-1.01172zM254.9175,390.82996l0.57226,0.51172c-0.54118,0.88731 -1.31198,1.72308 -2.31445,2.50586c0.86081,0.36805 2.03399,0.64003 3.51953,0.81445l-0.63867,1.09766c-1.42379,-0.20534 -2.71663,-0.62422 -3.87891,-1.25586c-1.04967,0.58123 -2.38176,1.02388 -3.99804,1.32617l-0.56641,-1.07031c1.51822,-0.1937 2.70755,-0.48957 3.56836,-0.88868c-0.73733,-0.56966 -1.3676,-1.24658 -1.89062,-2.02929h-0.75196v-1.01172zM161.98391,394.49207l-1.06836,0.75c-0.43949,-1.13149 -0.92729,-2.09039 -1.46485,-2.87696l0.9961,-0.63281c0.5993,0.85247 1.11215,1.77165 1.53711,2.75977zM179.58155,393.2948c0.70827,-0.48828 1.25367,-0.97263 1.63867,-1.45312h-3.24218c0.43948,0.55025 0.97516,1.0346 1.60351,1.45312zM252.16164,393.2948c0.70826,-0.48828 1.25367,-0.97263 1.63867,-1.45312h-3.24023c0.43949,0.55025 0.97321,1.0346 1.60156,1.45312zM240.73587,392.62683h2.93164v-0.67968h-2.93164zM153.40187,392.45886c-0.2034,1.24386 -0.55096,2.28412 -1.04492,3.1211l-1.0625,-0.78516c0.41769,-0.72845 0.74216,-1.62181 0.97461,-2.67969zM155.46632,392.12683v1.85352c0,0.24025 0.0551,0.38514 0.16406,0.43164c0.13802,0.0544 0.51981,0.0801 1.14454,0.0801c0.59566,0 0.99358,-0.0198 1.19335,-0.0625c0.14529,-0.03514 0.23735,-0.12444 0.27735,-0.26758c0.05447,-0.1937 0.09117,-0.54711 0.10937,-1.05859l1.20313,0.29687c-0.01452,0.57731 -0.05374,0.99026 -0.11914,1.23828c-0.09081,0.35255 -0.22438,0.59283 -0.40235,0.72071c-0.15255,0.11236 -0.37321,0.17786 -0.66015,0.19726c-0.59566,0.0385 -1.20758,0.0566 -1.83594,0.0566c-1.05694,0 -1.70114,-0.06547 -1.93359,-0.19726c-0.22156,-0.12788 -0.33203,-0.39791 -0.33203,-0.8125v-2.47657zM170.08938,393.84166c0.52302,-0.37969 0.93932,-0.73504 1.24805,-1.06446h-2.38086c0.31236,0.42624 0.68969,0.78158 1.13281,1.06446zM231.54056,394.34166v1.17968h-4.13673v-1.17968z"/><path d="M147.41556,369.8268c-0.37048,0.68197 -0.82573,1.4046 -1.36328,2.16797l0.42578,-0.01c0.70826,-0.0234 1.49744,-0.06907 2.36914,-0.13477l-0.0918,-0.12695c-0.21793,-0.31778 -0.48006,-0.66319 -0.78515,-1.03516l0.91601,-0.51758c0.82086,0.97649 1.435,1.86191 1.8418,2.65625l-0.94922,0.63281c-0.15255,-0.31386 -0.28362,-0.56406 -0.39258,-0.7539c-0.55571,0.08138 -1.0527,0.1449 -1.49219,0.1914v1.14454h2.33204v3.33007h-2.33204v1.94141c0.33779,-0.03855 0.69676,-0.08025 1.07813,-0.12695l0.12109,-0.0176c-0.16344,-0.37968 -0.34293,-0.74892 -0.53906,-1.10547l1.01172,-0.42969c0.46854,0.76337 0.89847,1.68851 1.28711,2.77344l-1.0625,0.55664c-0.13076,-0.38754 -0.24123,-0.69522 -0.33203,-0.92383l-0.41016,0.0703c-1.53274,0.26731 -3.10859,0.47187 -4.72851,0.61523l-0.29883,-1.13867c0.8717,-0.03514 1.7758,-0.08871 2.71289,-0.16211l0.0547,-0.01v-2.04687h-2.26758v-3.33008h2.26758v-1.0332l-0.20117,0.0176c-0.61746,0.0544 -1.36963,0.10801 -2.25586,0.15821l-0.26758,-1.12305c0.19977,-0.0067 0.36756,-0.01096 0.50195,-0.0117c0.07628,0 0.17311,-0.003 0.29297,-0.01c0.56298,-0.84084 1.0366,-1.67071 1.41797,-2.49219zM243.86284,369.5917v1.04687h4.27149v0.97656h-2.41797v0.96485h2.26562v0.9414h-2.26562v1.73243h-4.38672v-1.73243h-1.78711v1.08204c0,1.75527 -0.08542,3.14105 -0.25977,4.16015c-0.13438,0.775 -0.35283,1.4837 -0.65429,2.12305l-0.99219,-0.83789c0.27604,-0.63935 0.46471,-1.41958 0.5664,-2.3418c0.09082,-0.80984 0.13672,-1.84416 0.13672,-3.10351v-3.96485h4.3086v-1.04687zM212.55229,371.13857l-0.5,1.15625c-1.37657,-0.65092 -2.92707,-1.15123 -4.65233,-1.5l0.45703,-1.0332c1.77248,0.35262 3.3369,0.81121 4.6953,1.37695zM198.20272,369.95902c-0.12349,0.82148 -0.25011,1.55606 -0.38086,2.20313h0.85938c0.86807,0 1.4914,0.20843 1.86914,0.62695c0.33779,0.37583 0.50781,0.96151 0.50781,1.75586c0,1.33297 -0.13329,2.58173 -0.39844,3.74805c-0.15255,0.65877 -0.33871,1.14513 -0.55664,1.45898c-0.27603,0.39133 -0.6581,0.58789 -1.14843,0.58789c-0.58478,0 -1.22647,-0.20251 -1.92383,-0.60546l0.13672,-1.22657c0.6901,0.35263 1.22382,0.5293 1.60156,0.5293c0.2034,0 0.35756,-0.11318 0.46289,-0.3418c0.11622,-0.25188 0.2267,-0.61117 0.33203,-1.07617c0.20703,-0.94543 0.31055,-1.94209 0.31055,-2.99219c0,-0.55024 -0.10352,-0.9076 -0.31055,-1.07031c-0.17798,-0.13562 -0.49325,-0.20312 -0.94726,-0.20312h-1.04102c-0.57751,2.74339 -1.40564,5.08401 -2.48437,7.02148l-1.09571,-0.64062c1.11506,-1.99559 1.91092,-4.12182 2.38672,-6.38086h-2.17383v-1.19141h2.40821c0.10895,-0.59673 0.23084,-1.33925 0.36523,-2.22656l0.0273,-0.16797zM188.57573,370.11526c-0.11986,0.34878 -0.25343,0.69417 -0.40235,1.03516h3.87305l0.7793,0.67969c-0.5085,2.47987 -1.33413,4.39967 -2.47461,5.75976c-0.63199,0.75173 -1.44871,1.41083 -2.45118,1.97657c-0.71189,0.3991 -1.47574,0.71673 -2.29296,0.95312l-0.63282,-1.14453c1.86691,-0.51927 3.31614,-1.34909 4.34766,-2.48828c-0.84992,-0.8137 -1.78629,-1.5344 -2.81055,-2.16211l0.71289,-0.94141c0.99883,0.55411 1.94885,1.23703 2.84961,2.04688c0.70827,-1.20895 1.15434,-2.3803 1.33594,-3.51172h-3.83594c-0.87897,1.46076 -1.91414,2.57852 -3.10547,3.35352l-0.80078,-0.92383c1.15138,-0.74016 2.09694,-1.71889 2.83789,-2.93555c0.38137,-0.62001 0.67802,-1.28709 0.88867,-2.00391zM160.56205,369.83012v0.83203h-3.47656v0.5h4.51172v2.08594h-1.18359v-1.33594h-3.32813v2.25977h-1.16016v-2.25977h-3.26953v1.33594h-1.17187v-2.08594h4.4414v-0.5h-3.40625v-0.83203zM235.87652,369.83012v0.83203h-3.47656v0.5h4.51172v2.08594h-1.18164v-1.33594h-3.33008v2.25977h-1.16016v-2.25977h-3.26758v1.33594h-1.17187v-2.08594h4.43945v-0.5h-3.4043v-0.83203zM266.50146,369.98829v0.15625c0,1.9646 -0.1102,3.53889 -0.32812,4.7207c-0.14529,0.8137 -0.36623,1.54433 -0.66406,2.19532c1.16953,0.88738 2.03663,1.68144 2.59961,2.3789l-0.87305,1.14453c-0.61383,-0.81762 -1.36849,-1.61567 -2.26563,-2.39453c-0.0327,-0.0268 -0.0647,-0.0545 -0.0937,-0.082c-0.84991,1.12377 -2.14971,2.02508 -3.90039,2.70313l-0.6914,-1.07617c2.08846,-0.67427 3.45254,-1.73841 4.09179,-3.19532c0.60293,-1.37944 0.9043,-3.50369 0.9043,-6.37109v-0.17969zM143.79643,370.08012v3.66211h-2.27734l-0.0273,0.49414c-0.0218,0.33706 -0.0474,0.69441 -0.0801,1.07031h2.52148c-0.03634,2.44888 -0.14904,4.00138 -0.33789,4.66016c-0.09807,0.33706 -0.25445,0.57333 -0.46875,0.70898c-0.19976,0.12786 -0.485,0.19336 -0.85547,0.19336c-0.34868,0 -0.78111,-0.0335 -1.29687,-0.0996l-0.22266,-1.15625c0.60656,0.0814 1.03204,0.12109 1.27539,0.1211c0.25425,-0.00001 0.41538,-0.06948 0.48438,-0.20899c0.12712,-0.25189 0.22592,-1.29815 0.29492,-3.13867h-1.52149c-0.0076,0.0269 -0.0116,0.0603 -0.0156,0.0996c-0.02184,0.15114 -0.06104,0.3834 -0.11914,0.69726l-1.06836,-0.17382c0.22519,-1.68944 0.36327,-3.13871 0.41407,-4.34766h2.21679v-1.45899h-2.55468v-1.12304zM252.64611,370.22657c0.84628,0 1.54113,0.18467 2.08594,0.55664c0.65742,0.45337 0.98633,1.09653 0.98633,1.92578c0,0.6355 -0.22567,1.17945 -0.67969,1.63282c-0.3523,0.3487 -0.81702,0.56715 -1.39453,0.65625v0.0469c0.74821,0.13173 1.31895,0.39577 1.71485,0.79102c0.41042,0.41074 0.61523,0.9587 0.61523,1.64453c0,0.99968 -0.37956,1.7462 -1.13867,2.24219c-0.57024,0.37197 -1.31796,0.55859 -2.24414,0.55859c-1.46011,0 -2.64471,-0.47648 -3.55274,-1.42969l0.82422,-1.04687c0.29057,0.32934 0.66345,0.60133 1.1211,0.81445c0.5557,0.25967 1.09611,0.38867 1.61914,0.38867c0.5884,0 1.04838,-0.13101 1.3789,-0.39453c0.31963,-0.25189 0.47852,-0.63706 0.47852,-1.15625c0,-0.71296 -0.32196,-1.21921 -0.96485,-1.51758c-0.43222,-0.20154 -0.95202,-0.30273 -1.55859,-0.30273h-0.72461v-1.24805h0.75781c0.63925,0 1.15433,-0.12301 1.54297,-0.36719c0.47581,-0.29836 0.71289,-0.70737 0.71289,-1.22656c0,-0.43008 -0.17476,-0.77155 -0.52344,-1.02344c-0.30873,-0.22089 -0.69301,-0.33007 -1.15429,-0.33007c-0.83539,0 -1.6382,0.34146 -2.40821,1.02343l-0.79101,-1.04101c0.93345,-0.79821 2.0329,-1.19727 3.29687,-1.19727zM279.05822,370.27347v1.20312h-4.89648v1.48633l0.14062,0.0762c1.25671,0.62386 2.64138,1.47351 4.15235,2.54688l-0.88867,1.13867c-1.13322,-0.9183 -2.26746,-1.71047 -3.4043,-2.37695v6.55664h-1.33008v-9.42774h-4.27148v-1.20312zM224.11877,371.42977c1.07511,0.87959 1.61328,2.12441 1.61328,3.73633c0,2.70083 -1.2792,4.41407 -3.83984,5.13867l-0.64453,-1.16797c2.13205,-0.57352 3.19922,-1.87783 3.19922,-3.91211c0,-0.88738 -0.21399,-1.64971 -0.64258,-2.28906c-0.47944,-0.72068 -1.21074,-1.18523 -2.19141,-1.39063c-0.21429,1.79796 -0.50648,3.27099 -0.87695,4.41797c-0.25425,0.80206 -0.56953,1.56048 -0.94727,2.27344c-0.54481,1.01525 -1.16368,1.52148 -1.85743,1.52148c-0.51575,0 -0.97574,-0.24815 -1.3789,-0.74414c-0.25789,-0.31386 -0.46715,-0.69903 -0.62696,-1.15625c-0.21066,-0.59287 -0.3164,-1.23013 -0.3164,-1.91211c0,-1.10435 0.28523,-2.12085 0.85547,-3.05078c0.5775,-0.94935 1.32744,-1.64015 2.25001,-2.07031c0.67194,-0.31385 1.41018,-0.4707 2.21289,-0.4707c1.25307,0 2.31606,0.35928 3.1914,1.07617zM259.64812,370.3536l0.0976,7.15039c1.00246,-0.48821 1.94802,-1.054 2.83789,-1.69727l0.32227,1.05664c-1.46737,1.11985 -3.15787,2.08075 -5.06836,2.88281l-0.55469,-1.15625c0.46128,-0.17827 0.88703,-0.35294 1.2793,-0.52343l-0.13086,-7.71289zM288.38635,371.42977c1.0751,0.87959 1.61328,2.12441 1.61328,3.73633c0,2.70083 -1.28116,4.41407 -3.8418,5.13867l-0.64258,-1.16797c2.13206,-0.57352 3.19727,-1.87783 3.19727,-3.91211c0,-0.88738 -0.21398,-1.64971 -0.64258,-2.28906c-0.47943,-0.72068 -1.20878,-1.18523 -2.18945,-1.39063c-0.21429,1.79796 -0.50647,3.27099 -0.87695,4.41797c-0.25425,0.80206 -0.57148,1.56048 -0.94922,2.27344c-0.54482,1.01525 -1.16369,1.52148 -1.85742,1.52148c-0.51576,0 -0.97574,-0.24815 -1.37891,-0.74414c-0.25788,-0.31386 -0.46519,-0.69903 -0.625,-1.15625c-0.21066,-0.59287 -0.31641,-1.23013 -0.31641,-1.91211c0,-1.10435 0.28524,-2.12085 0.85547,-3.05078c0.57751,-0.94935 1.32744,-1.64015 2.25,-2.07031c0.67194,-0.31385 1.40824,-0.4707 2.21094,-0.4707c1.25308,0 2.31802,0.35928 3.19336,1.07617zM171.39222,370.50005v1.19141h-4.60938v2.46875h5.48047v1.19336h-5.48047v2.88281c0,0.21704 0.03678,0.36195 0.10938,0.43555c0.14165,0.15116 0.80894,0.22656 2.0039,0.22656c0.84629,0 1.70865,-0.0317 2.58399,-0.0937v1.30859c-0.90803,0.0503 -1.76817,0.0742 -2.57813,0.0742c-1.1986,0 -1.96467,-0.03773 -2.29883,-0.11523c-0.46854,-0.10467 -0.77909,-0.33292 -0.93164,-0.68555c-0.09082,-0.20533 -0.13672,-0.47138 -0.13672,-0.79688v-3.23632h-2.96875v-1.19336h2.96875v-2.46875h-2.4121v-1.19141zM263.86487,373.49227l-0.99218,0.86133c-0.67195,-1.06945 -1.36428,-1.96281 -2.07617,-2.67969l0.91601,-0.82031c0.89351,0.89509 1.61116,1.77456 2.15234,2.63867zM204.30432,376.29495l-1.16016,0.5332c-0.54845,-2.03428 -1.28448,-3.82306 -2.20703,-5.36914l1.04688,-0.57031c1.03878,1.77469 1.81181,3.5773 2.32031,5.40625zM181.93908,371.48831v1.24805h-7.49609v-1.24805zM218.81798,372.05079c-0.27603,0.18985 -0.54985,0.44201 -0.82226,0.75586c-0.75548,0.89124 -1.13281,1.92356 -1.13281,3.09766c0,0.85632 0.15888,1.52736 0.47851,2.01172c0.19613,0.29836 0.39148,0.44726 0.58399,0.44726c0.2615,0 0.55592,-0.30775 0.88281,-0.92383c0.79906,-1.4996 1.33974,-3.47893 1.62305,-5.93945c-0.64289,0.07747 -1.18106,0.26013 -1.61329,0.55078zM283.08557,372.05079c-0.27604,0.18985 -0.54986,0.44201 -0.82227,0.75586c-0.75548,0.89124 -1.13476,1.92356 -1.13476,3.09766c0,0.85632 0.16083,1.52736 0.48047,2.01172c0.19612,0.29836 0.38952,0.44726 0.58203,0.44726c0.2615,0 0.55592,-0.30775 0.88281,-0.92383c0.79906,-1.4996 1.34169,-3.47893 1.625,-5.93945c-0.64289,0.07747 -1.18106,0.26013 -1.61328,0.55078zM239.5426,372.58009h1.78711v-0.96485h-1.78711zM242.49182,372.58009h2.06445v-0.96485h-2.06445zM207.67737,371.94727c-0.27604,1.22443 -0.45526,2.36994 -0.53516,3.43945c0.52666,-0.43016 1.13385,-0.77161 1.82031,-1.02734c0.65741,-0.24796 1.27156,-0.37305 1.84179,-0.37305c0.85355,0 1.55062,0.17667 2.0918,0.52929c0.72279,0.47657 1.08398,1.24093 1.08398,2.29102c0,1.03074 -0.32891,1.82879 -0.98632,2.39453c-0.91892,0.78271 -2.51563,1.21352 -4.79297,1.29492l-0.43749,-1.20312c1.52185,-0.00687 2.68113,-0.15777 3.47655,-0.45313c0.96251,-0.35648 1.44336,-1.03545 1.44336,-2.03906c0,-0.6355 -0.21176,-1.10992 -0.63672,-1.41992c-0.33779,-0.24796 -0.78163,-0.37109 -1.33008,-0.37109c-0.7809,0 -1.61849,0.27398 -2.51562,0.82031c-0.54845,0.33327 -1.04044,0.73827 -1.47266,1.21484l-0.89258,-0.48828c0.14892,-1.85222 0.37209,-3.46621 0.66993,-4.8418zM155.45667,372.3418v0.65625h-2.32032v-0.65625zM159.94495,372.3418v0.65625h-2.39063v-0.65625zM230.77111,372.3418v0.65625h-2.32031v-0.65625zM235.26135,372.3418v0.65625h-2.39258v-0.65625zM155.45667,373.41211v0.66797h-2.32032v-0.66797zM159.94495,373.41211v0.66797h-2.39063v-0.66797zM230.77111,373.41211v0.66797h-2.32031v-0.66797zM235.26135,373.41211v0.66797h-2.39258v-0.66797zM242.49182,374.42188h2.06445v-0.9004h-2.06445zM161.31216,374.52146v0.77344h-8.23046v1.78516h8.69921v0.81836h-1.23632l0.6914,0.48828c-0.41042,0.36426 -0.89377,0.70565 -1.45312,1.02344c0.55571,0.22468 1.24832,0.40336 2.08007,0.53515l-0.63671,0.98633c-1.16591,-0.21312 -2.12288,-0.5784 -2.8711,-1.09766c-0.74458,-0.51919 -1.32422,-1.16446 -1.73828,-1.93554h-1.20312v1.79101c0.8027,-0.12016 1.54595,-0.24918 2.23242,-0.38476l0.0762,0.86719c-1.27851,0.32549 -2.73942,0.6074 -4.38477,0.84765l-0.32226,-1.02344c0.57024,-0.06617 0.96121,-0.11187 1.17187,-0.13867l0.0644,-0.0117v-1.94726h-1.19336c-0.05086,0.68198 -0.13378,1.226 -0.25,1.63281c-0.13802,0.48827 -0.35896,0.94487 -0.66406,1.36719l-0.9707,-0.85547c0.35594,-0.49206 0.57881,-1.06779 0.66601,-1.72656c0.0472,-0.35648 0.0703,-0.79926 0.0703,-1.33008v-2.46485zM236.62852,374.52146v0.77344h-8.23243v1.78516h8.70118v0.81836h-1.23633l0.6914,0.48828c-0.41042,0.36426 -0.89573,0.70565 -1.45507,1.02344c0.5557,0.22468 1.25027,0.40336 2.08203,0.53515l-0.63867,0.98633c-1.16591,-0.21312 -2.12288,-0.5784 -2.8711,-1.09766c-0.74458,-0.51919 -1.32227,-1.16446 -1.73633,-1.93554h-1.20507v1.79101c0.80269,-0.12016 1.5479,-0.24918 2.23437,-0.38476l0.0762,0.86719c-1.2785,0.32549 -2.74137,0.6074 -4.38672,0.84765l-0.32031,-1.02344c0.57024,-0.06617 0.95926,-0.11187 1.16992,-0.13867l0.0664,-0.0117v-1.94726h-1.19336c-0.05087,0.68198 -0.13379,1.226 -0.25,1.63281c-0.13803,0.48827 -0.36092,0.94487 -0.66602,1.36719l-0.96875,-0.85547c0.35594,-0.49206 0.57686,-1.06779 0.66406,-1.72656c0.0472,-0.35648 0.0703,-0.79926 0.0703,-1.33008v-2.46485zM145.53478,376.39844h1.25391v-1.37696h-1.25391zM147.89416,376.39844h1.28125v-1.37696h-1.28125zM160.51135,375.7832v0.76172h-6.78125v-0.76172zM235.82776,375.7832v0.76172h-6.7832v-0.76172zM246.49573,375.95117l0.57227,0.51172c-0.54119,0.88737 -1.31395,1.72314 -2.31641,2.50586c0.86081,0.36811 2.034,0.63815 3.51953,0.8125l-0.63671,1.09961c-1.42379,-0.20541 -2.71663,-0.62429 -3.87891,-1.25586c-1.04968,0.58123 -2.38372,1.022 -4,1.32422l-0.56641,-1.06836c1.51823,-0.19377 2.70756,-0.49153 3.56836,-0.89063c-0.73731,-0.5696 -1.3676,-1.24463 -1.89062,-2.02734h-0.75196v-1.01172zM243.73792,378.41602c0.70826,-0.48828 1.25561,-0.9727 1.64063,-1.45313h-3.24219c0.43948,0.55018 0.97321,1.03461 1.60156,1.45313zM158.93322,378.96289c0.52303,-0.37975 0.93737,-0.7351 1.2461,-1.06445h-2.38086c0.31236,0.42624 0.69164,0.78158 1.13476,1.06445zM234.24768,378.96289c0.52302,-0.37975 0.93932,-0.7351 1.24804,-1.06445h-2.38086c0.31237,0.42624 0.6897,0.78158 1.13282,1.06445zM183.0465,378.14258v1.26172h-9.70898v-1.26172z"/><path d="M250.29395,333.33832l-0.99219,0.46484c-0.31901,-0.82487 -0.76691,-1.64388 -1.34571,-2.45508l0.99805,-0.33398c0.52409,0.638 0.97073,1.41275 1.33985,2.32422zM158.26074,331.27972v1.42774h2.125v1.20312h-2.125v1.17578h2.41992v1.2168h-0.81445c-0.14583,0.54233 -0.3418,1.11659 -0.58789,1.72266h1.32031v1.18945h-2.33789v1.26562h2.24805v1.2168h-2.24805v2.88477h-1.42969v-2.88477h-2.4121v-1.2168h2.4121v-1.26562h-2.52148v-1.18945h1.25781c-0.14583,-0.60607 -0.32357,-1.18033 -0.5332,-1.72266h-1.00586v-1.2168h2.80273v-1.17578h-2.22851v-1.20312h2.22851v-1.42774zM204.96583,331.32867c0.51953,0.64253 1.18162,1.19396 1.98828,1.6543c0.59701,0.3418 1.4082,0.70313 2.43359,1.08593l-0.8125,1.10743c-0.67907,-0.26434 -1.26694,-0.52543 -1.76367,-0.78516v0.67578h-1.79102v0.96484h3.7793v1.10743h-3.7793v2.09765c0,0.319 -0.07747,0.55468 -0.23242,0.70508c-0.15951,0.15492 -0.44987,0.23242 -0.86914,0.23242c-0.13217,0 -0.28711,-0.003 -0.46484,-0.01v0.62109h4.7168v1.14844h-4.7168v1.09375h5.72266v1.2168h-12.87891v-1.2168h5.63867v-1.09375h-4.66211v-1.14844h4.66212v-0.88086l0.72461,0.002l-0.20508,-0.89453c0.30989,0.0454 0.59701,0.0684 0.86133,0.0684c0.13217,0 0.20963,-0.03521 0.23242,-0.10351c0.01824,-0.04534 0.02734,-0.12282 0.02734,-0.23242v-1.60547h-3.58203v-1.10743h3.58203v-0.96484h-1.79102v-0.47851c-0.48307,0.28253 -0.99932,0.54557 -1.55078,0.78711l-0.90234,-0.98438c1.0436,-0.40107 1.91993,-0.88869 2.63086,-1.46289c0.54687,-0.44207 1.05272,-0.97528 1.51758,-1.59961zM200.11817,332.83833l-0.96289,1.0664c-0.65169,-0.597 -1.3581,-1.10417 -2.11914,-1.52344l0.88086,-0.98437c0.90693,0.4694 1.64064,0.94921 2.20117,1.44141zM248.63184,333.9809l-1.05274,0.42383c-0.29166,-0.7474 -0.74411,-1.56187 -1.35937,-2.4414l1.03906,-0.375c0.53776,0.74279 0.99481,1.54031 1.37305,2.39257zM259.31934,331.60783v1.88672h4.0332v1.31836h-4.0332v2.92578c0.15953,0.56053 0.24023,1.06051 0.24023,1.49804c0,1.62233 -0.35875,2.81316 -1.07422,3.57422c-0.77926,0.834 -1.9518,1.41147 -3.51953,1.73047l-0.7793,-1.16211c1.2168,-0.2324 2.11917,-0.56057 2.70703,-0.98437c0.55144,-0.40107 0.92185,-0.94664 1.11329,-1.63477c-0.48764,0.5332 -1.06769,0.80078 -1.74219,0.80078c-0.75653,0 -1.37045,-0.21418 -1.83985,-0.64258c-0.55143,-0.50586 -0.82617,-1.23957 -0.82617,-2.20117c0,-0.50586 0.1198,-0.99349 0.36133,-1.46289c0.15951,-0.30073 0.35547,-0.55142 0.58789,-0.75195c0.53777,-0.45573 1.18358,-0.6836 1.93555,-0.6836c0.47852,0 0.91148,0.11393 1.29883,0.3418v-1.34765h-6.74805v-1.31836h6.74805v-1.88672zM189.40332,331.86177c-0.13672,0.24607 -0.37826,0.64713 -0.72461,1.20313l-0.08789,0.14258h4.81836v1.34765h-5.72852c-0.597,0.82027 -1.16665,1.53122 -1.70898,2.13282c0.86133,-0.515 1.64844,-0.77344 2.35937,-0.77344c1.10287,0 1.82422,0.55275 2.16602,1.66015c1.16667,-0.38733 2.35609,-0.76821 3.56836,-1.14648l0.58789,1.32617l-0.23828,0.0664l-0.67773,0.17773c-1.27607,0.34633 -2.29691,0.64261 -3.0625,0.88867c0.05466,0.59247 0.09437,1.35808 0.11718,2.29688l-1.49804,0.082c-0.00467,-0.54227 -0.01381,-1.13021 -0.02735,-1.76367v-0.13672c-2.09633,0.71547 -3.14453,1.43556 -3.14453,2.16016c0,0.37373 0.26888,0.62895 0.80664,0.76562c0.51953,0.13222 1.4492,0.19922 2.78906,0.19922c1.235,0 2.53256,-0.07162 3.89063,-0.21289l0.16406,1.45703c-1.31706,0.10029 -2.68297,0.15039 -4.0957,0.15039c-1.74087,0 -2.97721,-0.13215 -3.71094,-0.39648c-0.90693,-0.32814 -1.36133,-0.91929 -1.36133,-1.77149c0,-0.72006 0.32227,-1.35485 0.96485,-1.90625c0.66536,-0.56966 1.83657,-1.15754 3.51367,-1.76367c-0.09115,-0.35093 -0.2129,-0.59701 -0.36328,-0.73828c-0.16862,-0.15944 -0.39193,-0.24024 -0.66992,-0.24024c-0.45117,0 -1.01761,0.17188 -1.70118,0.51368c-0.84306,0.41926 -1.74864,1.04951 -2.71484,1.89257l-0.9082,-1.03906c1.41733,-1.31706 2.52606,-2.61135 3.32812,-3.88281h-2.78125v-1.3457h3.68359c0.4056,-0.64714 0.71419,-1.16988 0.92383,-1.56641zM220.39552,336.85197c0,2.57939 -0.66208,4.43551 -1.98828,5.57031c-0.80667,0.69267 -1.89459,1.26692 -3.26172,1.72266l-0.8125,-1.28516c1.39907,-0.39193 2.45313,-0.97653 3.16406,-1.75586c0.87046,-0.95247 1.30664,-2.39258 1.30664,-4.32031c0,-1.46287 -0.14128,-3.10676 -0.42383,-4.92969l1.56445,-0.15039c0.30079,1.84113 0.45117,3.55791 0.45117,5.14844zM246.05566,333.49474l-0.68359,1.3125c-1.48113,-0.7702 -3.25264,-1.3809 -5.3125,-1.83204l0.61523,-1.26367c2.05987,0.3874 3.85413,0.98114 5.38086,1.78321zM166.8252,331.77207v3.19922c0,0.39646 -0.07292,0.67578 -0.21875,0.83984c-0.17318,0.19592 -0.53452,0.29492 -1.08594,0.29492c-0.53776,0 -1.07551,-0.0231 -1.61328,-0.0684l-0.23242,-1.23046c0.75653,0.08204 1.23633,0.12304 1.4414,0.12304c0.21419,0 0.32227,-0.09438 0.32227,-0.28125v-1.64648h-2.99414v3.9707h3.87695l0.8125,0.69727c-0.24609,1.4492 -0.694,2.74348 -1.3457,3.88281l-0.07618,0.13672c0.5013,0.5788 1.1289,1.10747 1.88086,1.58594l-0.76562,1.27929c-0.72007,-0.46486 -1.36267,-1.02083 -1.92774,-1.66797c-0.48762,0.6198 -1.03773,1.20314 -1.64843,1.75l-0.80664,-1.12109v1.06641h-1.38672v-12.81055zM150.78027,331.77803l0.83985,0.82031c-1.194,0.9616 -2.33917,1.79883 -3.4375,2.50977c0.319,0.16406 0.68488,0.36002 1.09961,0.58789l-0.86719,0.70312h4.11523l0.77149,0.77344c-1.0254,1.54493 -2.04756,2.81317 -3.06836,3.80664l-1.38867,-0.8125c0.8978,-0.82033 1.61782,-1.63607 2.16015,-2.44727h-3.40429v5.35938c0,0.6198 -0.1517,1.01632 -0.45704,1.18945c-0.20507,0.11854 -0.58791,0.17774 -1.14843,0.17774c-0.73374,0 -1.5436,-0.04562 -2.42774,-0.13672l-0.33398,-1.52539c0.8522,0.13678 1.60873,0.20508 2.26953,0.20508c0.25065,0 0.4056,-0.04105 0.46484,-0.12305c0.0456,-0.0684 0.06836,-0.19273 0.06836,-0.375v-4.77149h-5.72851v-1.32031h7.41015c-1.54033,-0.88413 -3.08069,-1.63152 -4.62109,-2.24219l1.10742,-0.88085c1.03453,0.41473 1.9473,0.81705 2.74024,1.20898c0.7018,-0.47853 1.31703,-0.94794 1.8457,-1.4082h-7.30664v-1.29883zM213.32716,332.08079c-0.30079,1.54033 -0.45117,2.84369 -0.45117,3.91016c0,1.43553 0.10351,2.15234 0.30859,2.15234c0.07747,0 0.20963,-0.10932 0.39648,-0.32812c0.29167,-0.32807 0.59831,-0.81115 0.92188,-1.44922l0.86914,1.14258c-0.45573,0.8522 -0.9238,1.49152 -1.40234,1.91992c-0.41015,0.36913 -0.78517,0.55469 -1.12695,0.55469c-0.4375,0 -0.79165,-0.29628 -1.06055,-0.88868c-0.27799,-0.61979 -0.41602,-1.59051 -0.41602,-2.9121c0,-1.33074 0.15494,-2.77406 0.46484,-4.32813zM180.63185,332.00853v10.95117c0,0.54233 -0.14258,0.92057 -0.42969,1.13476c-0.23242,0.17773 -0.62308,0.26563 -1.16992,0.26563c-0.87047,0 -1.6862,-0.03316 -2.44727,-0.10156l-0.30664,-1.49805c0.90233,0.1048 1.66473,0.1582 2.28906,0.1582c0.22331,0 0.36784,-0.03968 0.43164,-0.11718c0.0456,-0.05934 0.06836,-0.15631 0.06836,-0.29297v-3.9043h-8.64062v5.85156h-1.56641v-12.44726zM202.6006,334.04173h3.5957c-0.73827,-0.4466 -1.39776,-0.99028 -1.97656,-1.63281c-0.44206,0.61066 -0.98113,1.15434 -1.61914,1.63281zM234.00685,334.10423c0.93879,0.78387 1.4082,1.95186 1.4082,3.50586c0,1.21227 -0.39192,2.26954 -1.17578,3.17187c-1.194,1.37634 -3.64455,2.21811 -7.34961,2.52344l-0.51953,-1.51172c2.50193,-0.20053 4.27797,-0.55733 5.32617,-1.07226c0.56054,-0.278 1.02081,-0.64255 1.38086,-1.09375c0.48762,-0.61067 0.73242,-1.31708 0.73242,-2.11914c0,-0.9844 -0.22787,-1.71224 -0.68359,-2.18164c-0.23242,-0.23694 -0.48633,-0.41467 -0.75977,-0.53321c-0.38281,-0.16865 -0.9297,-0.25195 -1.64062,-0.25195c-1.16214,0 -3.61527,0.32029 -7.36133,0.96289l-0.32227,-1.49609c3.78713,-0.597 6.32683,-0.89649 7.6211,-0.89649c1.43553,0 2.55075,0.33139 3.34375,0.99219zM170.42677,337.2722h3.52734v-3.93164h-3.52734zM175.43653,337.2722h3.63086v-3.93164h-3.63086zM199.08107,335.1765l-0.89648,1.10742c-0.63802,-0.56967 -1.34115,-1.06316 -2.11133,-1.48242l0.88086,-1.02539c0.73373,0.3646 1.44336,0.83072 2.12696,1.40039zM244.79786,338.90892c0.3418,0.8932 0.51172,1.69985 0.51172,2.41992c0,0.79753 -0.19726,1.43427 -0.59375,1.9082c-0.47396,0.56054 -1.16536,0.83985 -2.07227,0.83985c-1.06639,0 -1.92771,-0.53782 -2.58398,-1.61328l0.70508,-1.17579c0.54687,0.84307 1.14975,1.26563 1.81055,1.26563c0.77019,0 1.15625,-0.43624 1.15625,-1.30664c0,-0.64713 -0.19922,-1.45372 -0.59571,-2.41992c-0.41016,-0.99347 -0.93555,-1.8698 -1.57812,-2.63086l1.23633,-0.64258c0.87046,1.0254 1.5391,2.1432 2.0039,3.35547zM249.67872,341.95189l-1.41601,0.60156c-0.51042,-2.10547 -1.23177,-4.01952 -2.16602,-5.74219l1.27148,-0.56054c1.03907,1.72266 1.80922,3.62304 2.31055,5.70117zM156.85841,338.02608h1.13476c0.23698,-0.58334 0.41797,-1.15759 0.54102,-1.72266h-2.17383c0.15495,0.43293 0.32032,1.00719 0.49805,1.72266zM199.92092,337.41869c-0.68813,0.86587 -1.60286,1.78513 -2.74219,2.75586l-0.94922,-1.16211c0.916,-0.6426 1.89586,-1.53449 2.93946,-2.67382zM240.08692,337.04955c-0.44205,2.43813 -1.11781,4.35087 -2.02929,5.73633l-1.29883,-0.7793c0.90693,-1.49479 1.54172,-3.30274 1.90625,-5.42187zM255.83302,337.25463c-0.5013,0.31447 -0.75196,0.79749 -0.75196,1.44922c0,0.41013 0.09115,0.75653 0.27344,1.03906c0.25521,0.39194 0.63218,0.58789 1.12891,0.58789c0.45117,0 0.80797,-0.20377 1.07226,-0.60937c0.18685,-0.28713 0.28125,-0.62571 0.28125,-1.01758v-0.25391c0,-0.29166 -0.06835,-0.54821 -0.20507,-0.77148c-0.25521,-0.41927 -0.62437,-0.62891 -1.10743,-0.62891c-0.24609,0 -0.47721,0.06841 -0.6914,0.20508zM208.88381,339.15502l-1.09375,0.89649c-0.71093,-0.92967 -1.40233,-1.64976 -2.07226,-2.16016l1.03906,-0.72461c0.79293,0.61067 1.50255,1.27282 2.12695,1.98828zM202.4717,337.91088c-0.61979,0.98893 -1.30205,1.75328 -2.04492,2.29102l-0.94922,-0.9375c0.69727,-0.46027 1.33073,-1.11781 1.90039,-1.97461zM162.44436,343.37182c0.56054,-0.3828 1.09962,-0.92062 1.61914,-1.61328c-0.69727,-1.07553 -1.18622,-2.26042 -1.46875,-3.55469h-0.15039zM164.82326,340.54955c0.4056,-0.78386 0.66992,-1.56643 0.79297,-2.3457h-1.76367c0.22331,0.875 0.54688,1.65757 0.9707,2.3457z"/><path d="M149.78222,271.854c0.34635,0.57878 0.75879,1.06413 1.2373,1.45606c0.61979,0.5013 1.40592,0.93652 2.3584,1.30566l-0.82715,1.36035c-1.69987,-0.70638 -2.93945,-1.89127 -3.71875,-3.55468c-0.29622,0.87044 -0.76563,1.61783 -1.4082,2.24218c-0.57878,0.56055 -1.35579,1.04818 -2.33105,1.46289l-0.9502,-1.20312c1.12109,-0.36459 1.97103,-0.83627 2.5498,-1.41504c0.48763,-0.48763 0.84993,-1.03906 1.08691,-1.6543h-2.64551v-3.67773h2.89844v-1.14844h-1.4834v-0.6084c-0.49219,0.42839 -1.03906,0.80436 -1.64062,1.12793l-0.54004,-0.72461h-1.13476v1.16895c0.59701,0.5013 1.1735,1.05729 1.72949,1.66797l-0.72461,1.29883c-0.32813,-0.47852 -0.66309,-0.93881 -1.00488,-1.38086v6.39843h-1.40137v-6.13867c-0.45117,1.29427 -0.93197,2.38802 -1.44238,3.28125l-0.60156,-1.59961c0.83854,-1.4082 1.47656,-2.97363 1.91406,-4.69629h-1.68848v-1.333h1.81836v-2.81641h1.40137v2.81641h1.2168v0.7998c1.45378,-0.85221 2.56348,-2.05762 3.3291,-3.61621h1.55176c0.68815,1.07097 1.55859,1.96647 2.61133,2.68652c0.45573,0.3099 0.98665,0.6198 1.59277,0.92969l-0.82715,1.17578c-0.63346,-0.34179 -1.21908,-0.71321 -1.75684,-1.11426v0.67676h-1.53125v1.14844h2.95313v3.67773zM148.05956,269.25635h-1.60645v1.5039h1.60645zM149.39257,269.25635v1.5039h1.64746v-1.5039zM147.14355,265.85205h3.20605c-0.64714,-0.56511 -1.23275,-1.23275 -1.75684,-2.00293c-0.37826,0.71549 -0.86133,1.38314 -1.44922,2.00293zM161.37597,267.30811h3.33594v-3.4043h1.52441v4.76465h-4.86035v5.05175h3.7666v-3.15136h1.55176v5.40722h-1.55176v-0.86816h-8.97558v0.86816h-1.53809v-5.40722h1.53809v3.15136h3.68457v-5.05175h-4.77149v-4.76465h1.52442v3.4043h3.24707v-4.63477h1.52441zM176.6748,273.10498l0.0957,1.22363c-1.97786,0.69727 -4.17676,1.27149 -6.59668,1.72266l-0.50586,-1.36719c0.41927,-0.0638 1.01172,-0.16634 1.77734,-0.30762v-2.50195c-0.78841,0.40104 -1.72721,0.78157 -2.81641,1.1416l-0.7793,-1.21679c2.19206,-0.59245 3.86458,-1.34896 5.01758,-2.26953h-4.88086v-1.18946h5.8584v-1.03222h-4.42969v-1.14844h4.42969v-0.96387h-5.12695v-1.17578h5.12695v-1.34668h1.49707v1.34668h5.27734v1.17578h-5.27734v0.96387h4.58008v1.14844h-4.58008v1.03222h6.00879v1.18946h-1.63379l1.01172,0.69726c-0.62435,0.60612 -1.49935,1.26921 -2.625,1.98926l-0.15723,0.10254c0.85677,0.78385 2.01888,1.43099 3.48633,1.9414l-0.92285,1.3877c-1.59049,-0.67448 -2.86881,-1.52214 -3.83496,-2.54297zM174.60351,269.55029c-0.45573,0.53321 -1.00488,1.01172 -1.64746,1.43555v3.06934c1.12565,-0.25065 2.25586,-0.54232 3.39063,-0.875l0.31445,-0.0889c-0.93424,-1.03451 -1.62012,-2.21485 -2.05762,-3.54102zM177.09863,271.4165c0.8112,-0.57877 1.52214,-1.20768 2.13281,-1.88671h-3.2334c0.29167,0.69726 0.65853,1.32616 1.10059,1.88671zM189.49902,268.49756v6.06348c0,0.55143 -0.11165,0.9274 -0.33496,1.12792c-0.20964,0.18229 -0.61523,0.27344 -1.2168,0.27344c-0.68359,0 -1.33301,-0.04329 -1.94824,-0.12988l-0.29395,-1.44238c0.63802,0.10481 1.2487,0.15722 1.83203,0.15722c0.19596,0 0.31901,-0.03418 0.36914,-0.10254c0.03646,-0.05927 0.05469,-0.15725 0.05469,-0.29394v-5.65332h-5.87891v-1.36035h13.17285v1.36035zM183.72265,263.43213h9.88477v1.34668h-9.88477zM181.99999,273.91846c0.98438,-1.02995 1.77734,-2.39941 2.37891,-4.1084l1.41504,0.5332c-0.69727,1.95508 -1.57454,3.49089 -2.63184,4.60742zM193.73046,274.75244c-0.94336,-1.99609 -1.76367,-3.4567 -2.46094,-4.38183l1.28516,-0.76563c1.0026,1.28971 1.8571,2.69336 2.56348,4.21094zM206.47265,264.50537l0.97754,0.79981c-0.63802,2.91667 -1.67253,5.1748 -3.10352,6.77441c-0.79297,0.88411 -1.81836,1.65885 -3.07617,2.32422c-0.89323,0.4694 -1.85254,0.8431 -2.87793,1.12109l-0.79297,-1.34668c2.34245,-0.61067 4.16081,-1.58593 5.45508,-2.92578c-1.06641,-0.95703 -2.24219,-1.80469 -3.52734,-2.54297l0.89551,-1.10742c1.25326,0.65169 2.44499,1.45378 3.5752,2.40625c0.88867,-1.42187 1.44694,-2.79818 1.6748,-4.12891h-4.8125c-1.10286,1.7181 -2.40169,3.03288 -3.89648,3.94434l-1.00488,-1.08691c1.44466,-0.87045 2.63184,-2.02116 3.56152,-3.45215c0.47852,-0.72917 0.84994,-1.5153 1.11426,-2.3584l1.4834,0.3623c-0.15039,0.41016 -0.31901,0.81576 -0.50586,1.2168zM214.01269,275.36768v-7.01368c-1.38542,0.92969 -2.9668,1.71355 -4.74414,2.35157l-0.82715,-1.3877c2.01888,-0.67903 3.78939,-1.55403 5.31152,-2.625c1.49479,-1.05273 2.82552,-2.25814 3.99219,-3.61621l1.31934,0.82715c-1.0345,1.18945 -2.1875,2.28092 -3.45898,3.27441v8.18946zM220.41796,264.81299h8.77734l1.69532,1.53808c-0.18229,2.00065 -0.5765,3.5752 -1.18262,4.72364c-0.71094,1.34895 -1.81153,2.39941 -3.30176,3.15136c-0.92969,0.46941 -2.16927,0.88868 -3.71875,1.25782l-0.78613,-1.3877c1.52214,-0.27799 2.72754,-0.63802 3.61621,-1.08008c1.44922,-0.71549 2.47461,-1.80468 3.07617,-3.26757c0.3737,-0.91146 0.58789,-2.08041 0.64258,-3.50684h-8.81836zM231.56738,262.39307c0.30533,0 0.597,0.08431 0.875,0.25293c0.27343,0.1595 0.48535,0.38281 0.63574,0.66992c0.13672,0.25521 0.20508,0.52181 0.20508,0.7998c0,0.44661 -0.15951,0.84082 -0.47852,1.18262c-0.33724,0.36003 -0.75423,0.54004 -1.25098,0.54004c-0.24609,0 -0.48307,-0.05469 -0.71093,-0.16406c-0.28255,-0.13217 -0.5127,-0.32357 -0.69043,-0.57422c-0.20964,-0.30078 -0.31446,-0.63118 -0.31446,-0.99121c0,-0.278 0.07064,-0.54688 0.21192,-0.80664c0.14127,-0.25977 0.3304,-0.4694 0.56738,-0.62891c0.28711,-0.18685 0.60384,-0.28027 0.9502,-0.28027zM231.56038,263.23389c-0.16862,0 -0.32813,0.04785 -0.47852,0.14355c-0.26888,0.16862 -0.40332,0.41699 -0.40332,0.74512c0,0.23242 0.07975,0.43294 0.23926,0.60156c0.17318,0.18229 0.38737,0.27344 0.64258,0.27344c0.14583,0 0.28027,-0.0319 0.40332,-0.0957c0.31901,-0.16407 0.47852,-0.42383 0.47852,-0.7793c0,-0.25065 -0.08887,-0.46257 -0.26661,-0.63574c-0.16406,-0.16862 -0.36914,-0.25293 -0.61523,-0.25293z"/><path d="M146.82909,198.2104v5.41406c0,0.35091 0.15039,0.56283 0.45117,0.63574c0.3099,0.07747 1.01855,0.11621 2.12598,0.11621c1.08008,0 1.7933,-0.05469 2.13965,-0.16406c0.19596,-0.0638 0.32357,-0.24153 0.38281,-0.5332c0.07747,-0.41016 0.11849,-0.89551 0.12305,-1.45606l1.42871,0.40332c-0.07292,1.34441 -0.25749,2.20346 -0.55371,2.57715c-0.19596,0.24609 -0.49219,0.39193 -0.88867,0.4375c-0.62435,0.06836 -1.68392,0.10254 -3.17871,0.10254c-1.15755,0 -1.91634,-0.0319 -2.27637,-0.0957c-0.54232,-0.09115 -0.88639,-0.3304 -1.03223,-0.71777c-0.07292,-0.20508 -0.10937,-0.47852 -0.10937,-0.82032v-5.4209l-1.30566,0.45118l-0.32129,-1.32618l1.62695,-0.56054v-3.68457h1.3877v3.20605l1.46973,-0.49902v-3.60254h1.37402v3.12402l2.29004,-0.78613l0.71777,0.4375v5.12012c0,0.35547 -0.08431,0.61979 -0.25293,0.79297c-0.19141,0.19141 -0.5127,0.28711 -0.96387,0.28711c-0.36914,0 -0.76107,-0.0319 -1.17578,-0.0957l-0.22559,-1.30566c0.26888,0.06836 0.54232,0.10254 0.82031,0.10254c0.20052,0 0.32357,-0.04102 0.36914,-0.12305c0.04557,-0.06836 0.06836,-0.18229 0.06836,-0.3418v-3.23339l-1.64746,0.57421v5.53028h-1.37402v-5.0586zM141.80468,195.97505v-3.30176h1.46973v3.30176h1.32617v1.38769h-1.32617v4.34766c0.47852,-0.16406 0.95247,-0.33496 1.42188,-0.5127l0.12988,1.31934c-1.47656,0.67448 -2.99186,1.23958 -4.5459,1.69531l-0.47852,-1.45605c0.70182,-0.18229 1.31706,-0.35547 1.8457,-0.51953c0.0638,-0.0228 0.11621,-0.03877 0.15723,-0.0479v-4.82617h-1.73633v-1.38769zM161.04784,201.73091c-0.97526,0.82487 -2.18522,1.50162 -3.62988,2.03027l-0.86816,-1.05273c1.17578,-0.38281 2.22624,-0.93197 3.15137,-1.64746l-0.23926,-0.11622c-0.88411,-0.42383 -1.85026,-0.85221 -2.89844,-1.28515l0.62891,-1.03906c1.17578,0.42838 2.27637,0.87727 3.30176,1.34668l0.2666,0.12304c1.15299,-1.21224 2.02116,-2.79362 2.60449,-4.74414l1.36035,0.42383c-0.66536,1.98698 -1.55176,3.639 -2.65918,4.95605c0.04557,0.0228 0.08887,0.0456 0.12988,0.0684c0.64258,0.31901 1.48568,0.78614 2.5293,1.40137l-0.82715,1.14844c-0.875,-0.53321 -1.8252,-1.07097 -2.85059,-1.61328zM158.00584,198.76411c-0.32813,-1.08463 -0.70182,-2.00065 -1.12109,-2.74805l1.28516,-0.51269c0.44206,0.78385 0.82943,1.69303 1.16211,2.72754zM160.41209,198.21724c-0.33724,-1.05274 -0.7155,-1.97104 -1.13477,-2.75489l1.23047,-0.49219c0.52409,0.91146 0.91146,1.81153 1.16211,2.7002zM166.7285,193.31587v12.66015h-1.52441v-0.71777h-9.07812v0.71777h-1.51074v-12.66015zM156.12596,194.58735v9.35156h9.07813v-9.35156zM174.58983,201.25239l-0.20508,-0.89551c0.3099,0.0456 0.59701,0.0684 0.86133,0.0684c0.13216,0 0.20964,-0.03418 0.23242,-0.10254c0.01823,-0.0456 0.02734,-0.12307 0.02734,-0.23242v-1.60644h-3.58203v-1.10743h3.58203v-0.96386h-1.79102v-0.47852c-0.48307,0.28255 -1.00033,0.5446 -1.55176,0.78613l-0.90234,-0.98437c1.04362,-0.40104 1.9209,-0.88867 2.63183,-1.46289c0.54688,-0.44206 1.05274,-0.97526 1.51758,-1.59961h1.4834c0.51953,0.64258 1.18262,1.19401 1.98926,1.6543c0.59701,0.34179 1.4082,0.7041 2.43359,1.08691l-0.81348,1.10742c-0.67904,-0.26432 -1.26693,-0.52636 -1.76367,-0.78613v0.67676h-1.79102v0.96386h3.78027v1.10743h-3.78027v2.09863c0,0.31901 -0.07747,0.55371 -0.23242,0.7041c-0.15951,0.15495 -0.44889,0.23242 -0.86816,0.23242c-0.13216,0 -0.28711,-0.00233 -0.46484,-0.007v0.62207h4.7168v1.14843h-4.7168v1.09375h5.72168v1.2168h-12.87891v-1.2168h5.63965v-1.09375h-4.66211v-1.14843h4.66211v-0.88184zM174.52831,195.38716h3.5957c-0.73828,-0.44661 -1.39681,-0.99121 -1.97559,-1.63379c-0.44206,0.61067 -0.9821,1.15527 -1.62012,1.63379zM171.08299,195.25044c-0.65169,-0.59701 -1.35807,-1.10515 -2.11914,-1.52442l0.88183,-0.98437c0.9069,0.4694 1.64063,0.95019 2.20117,1.44238zM168.15721,200.35688c0.91602,-0.64257 1.89583,-1.53352 2.93945,-2.67285l0.75195,1.08008c-0.68815,0.86589 -1.60189,1.78418 -2.74121,2.75488zM179.71678,201.39595c-0.71094,-0.92969 -1.40137,-1.64975 -2.07129,-2.16016l1.03906,-0.72461c0.79297,0.61068 1.50163,1.27377 2.12598,1.98926zM170.11229,197.62934c-0.63802,-0.56966 -1.34212,-1.06412 -2.1123,-1.48339l0.88184,-1.02539c0.73372,0.36458 1.44238,0.8317 2.12598,1.40136zM171.40428,200.60981c0.69727,-0.46029 1.33073,-1.11881 1.90039,-1.97558l1.09375,0.62207c-0.61979,0.98893 -1.30111,1.75228 -2.04395,2.29004zM187.29784,198.94184c-0.45573,0.85221 -0.92285,1.49251 -1.40137,1.9209c-0.41016,0.36914 -0.78613,0.55371 -1.12793,0.55371c-0.4375,0 -0.79069,-0.29622 -1.05957,-0.88867c-0.27799,-0.61979 -0.41699,-1.5905 -0.41699,-2.91211c0,-1.33073 0.15495,-2.77311 0.46484,-4.32715l1.49707,0.22559c-0.30078,1.54037 -0.45117,2.84375 -0.45117,3.91016c0,1.43555 0.10254,2.15332 0.30762,2.15332c0.07747,0 0.20964,-0.10938 0.39648,-0.32813c0.29167,-0.32813 0.59928,-0.8112 0.92285,-1.44922zM186.25878,204.29438c1.39909,-0.39193 2.4541,-0.97754 3.16504,-1.75683c0.87044,-0.95247 1.30567,-2.39258 1.30567,-4.32031c0,-1.46289 -0.14128,-3.1058 -0.42383,-4.92872l1.56543,-0.15039c0.30078,1.84115 0.45117,3.55697 0.45117,5.14746c0,2.57943 -0.66309,4.43653 -1.98926,5.57129c-0.80664,0.69271 -1.89355,1.26693 -3.26074,1.72266zM194.96093,195.35981c3.78711,-0.597 6.3278,-0.8955 7.62207,-0.8955c1.43555,0 2.5498,0.3304 3.34277,0.99121c0.9388,0.78385 1.4082,1.9528 1.4082,3.50683c0,1.21224 -0.39193,2.26953 -1.17578,3.17188c-1.19401,1.3763 -3.64355,2.21712 -7.34863,2.52246l-0.51953,-1.51074c2.50195,-0.20053 4.27702,-0.55828 5.3252,-1.07325c0.56055,-0.27799 1.02083,-0.64258 1.38086,-1.09375c0.48763,-0.61067 0.73144,-1.31705 0.73144,-2.11914c0,-0.98437 -0.22786,-1.71126 -0.68359,-2.18066c-0.23242,-0.23698 -0.48535,-0.41471 -0.75879,-0.5332c-0.38281,-0.16862 -0.92969,-0.25293 -1.64062,-0.25293c-1.16211,0 -3.61621,0.32129 -7.36231,0.96386zM217.29394,196.20063c-1.48112,-0.77018 -3.25163,-1.38086 -5.31152,-1.83203l0.61523,-1.26465c2.0599,0.38737 3.85319,0.9821 5.37988,1.78418zM212.68652,202.6811c0.54687,0.8431 1.15072,1.26465 1.81152,1.26465c0.77018,0 1.15527,-0.43522 1.15527,-1.30566c0,-0.64714 -0.19824,-1.45378 -0.59473,-2.41993c-0.41016,-0.99349 -0.93652,-1.87076 -1.5791,-2.63183l1.2373,-0.64258c0.87044,1.02539 1.53809,2.14421 2.00293,3.35645c0.3418,0.89323 0.5127,1.69987 0.5127,2.41992c0,0.79753 -0.19824,1.43327 -0.59473,1.90722c-0.47396,0.56055 -1.16439,0.84082 -2.07129,0.84082c-1.06641,0 -1.92774,-0.53776 -2.58399,-1.61328zM208.68066,203.39888c0.9069,-1.49479 1.54264,-3.30176 1.90723,-5.4209l1.42188,0.46484c-0.44206,2.43815 -1.11882,4.34994 -2.03027,5.73535zM220.18554,203.94575c-0.51042,-2.10547 -1.23275,-4.01953 -2.16699,-5.74219l1.27148,-0.56054c1.03906,1.72265 1.80925,3.62304 2.31055,5.70117zM219.50194,195.79731c-0.29167,-0.74739 -0.74512,-1.56087 -1.36035,-2.44043l1.03906,-0.37597c0.53776,0.74283 0.99577,1.54036 1.37402,2.39258zM221.2246,195.19575c-0.31901,-0.82487 -0.7679,-1.6429 -1.34668,-2.4541l0.99805,-0.33496c0.52409,0.63802 0.9707,1.41276 1.33984,2.32422zM223.95898,193.24751h1.61328v8.14844c0,1.71809 0.90234,2.57714 2.70703,2.57714c1.18945,0 2.16471,-0.54915 2.92578,-1.64746c0.49219,-0.70638 0.93424,-1.80013 1.32617,-3.28125l1.3877,0.84082c-0.46485,1.64519 -1.02312,2.87566 -1.67481,3.69141c-1.02539,1.27149 -2.35839,1.90723 -3.99902,1.90723c-1.71354,0 -2.92122,-0.52865 -3.62305,-1.58594c-0.44206,-0.66081 -0.66309,-1.51302 -0.66309,-2.55664z"/></g></g></g></svg>