<svg version="1.1" xmlns="http://www.w3.org/2000/svg" xmlns:xlink="http://www.w3.org/1999/xlink" width="208" height="32" viewBox="0,0,208,32"><g transform="translate(-240,-164)"><g data-paper-data="{&quot;isPaintingLayer&quot;:true}" fill-rule="nonzero" stroke="none" stroke-linecap="butt" stroke-linejoin="miter" stroke-miterlimit="10" stroke-dasharray="" stroke-dashoffset="0" style="mix-blend-mode: normal"><path d="M240,196v-32h208v32z" fill="none" stroke-width="0"/><path d="M243.53,180.82c-0.56641,1.6862 -1.31184,3.28127 -2.2363,4.7852l-1.1035,-2.168c1.45833,-1.99867 2.50977,-4.28383 3.1543,-6.8555h-2.7539v-1.9238h2.9395v-4.1602h2.041v4.1602h2.4414v1.9238h-2.4414v1.6797c1.05467,0.76173 2.041,1.63413 2.959,2.6172l-1.123,1.8652c-0.51432,-0.70313 -1.12629,-1.44207 -1.8359,-2.2168v8.9746h-2.041zM258.413,171.4548v18.047h-2.041v-1.6016h-5.1953v1.6016h-2.0215v-18.047zM251.1767,173.2907v3.0273h5.1953v-3.0273zM251.1767,178.0954v2.9785h5.1953v-2.9785zM251.1767,182.8122v3.2324h5.1953v-3.2324z" fill="#ffffff" stroke-width="1"/><path d="M263.09,180.7c-0.61197,1.78387 -1.30534,3.35613 -2.0801,4.7168l-0.82032,-2.2949c1.21747,-2.03127 2.1224,-4.26433 2.7148,-6.6992h-2.4121v-1.9043h2.5976v-4.0234h2.002v4.0234h1.7969v1.9043h-1.7969v1.6699c0.83987,0.69013 1.65693,1.48113 2.4512,2.373l-1.0156,1.7383c-0.50781,-0.74867 -0.98631,-1.3932 -1.4355,-1.9336v9.2285h-2.002zM276.205,174.6942h2.1484v6.8848h-4.4238v1.1328h5.6055v1.7188h-5.1172c1.34113,1.6992 3.11197,2.79947 5.3125,3.3008l-1.0644,1.7969c-1.2956,-0.33854 -2.487,-0.94401 -3.5742,-1.8164c-0.76173,-0.60547 -1.41603,-1.3509 -1.9629,-2.2363c-0.50781,1.04167 -1.20118,1.88477 -2.0801,2.5293c-0.931,0.67707 -2.18427,1.21743 -3.7598,1.6211l-1.2012,-1.5918c1.60807,-0.36459 2.8418,-0.81705 3.7012,-1.3574c0.8268,-0.52083 1.4746,-1.26953 1.9434,-2.2461h-5.2832v-1.7188h5.4785v-1.1328h-4.2383v-6.8848h2.0801v-1.1035h-2.959v-1.6602h2.959v-1.4355h1.8945v1.4355h2.5879v-1.4355h1.9531v1.4355h3.0078v1.6602h-3.0078zM274.2519,174.6942v-1.1035h-2.5879v1.1035zM276.371,176.159h-6.7188v1.2598h6.7188zM269.6522,178.8152v1.2988h6.7188v-1.2988z" fill="#ffffff" stroke-width="1"/><path d="M295.09,173.8v3.7793c0,0.42969 -0.09115,0.74545 -0.27344,0.94727c-0.21484,0.23437 -0.69011,0.35156 -1.4258,0.35156c-0.70313,0 -1.2793,-0.03906 -1.7285,-0.11718l-0.25391,-1.6211c0.51433,0.10417 0.94726,0.15625 1.2988,0.15625c0.1888,0 0.30924,-0.04557 0.36133,-0.13672c0.03907,-0.07812 0.0586,-0.20507 0.0586,-0.38086v-2.9785h-1.7383c-0.05207,1.37367 -0.23436,2.42837 -0.54687,3.1641c-0.34505,0.8008 -1.05795,1.53323 -2.1387,2.1973l-1.3965,-1.2402c0.97653,-0.50781 1.6048,-1.16211 1.8848,-1.9629c0.16927,-0.5013 0.27344,-1.2207 0.3125,-2.1582h-3.8574v-1.6602h5.5566v-1.6406h2.1484v1.6406h6.1328v1.6602zM298.1076,179.3371v3.9648h-9.6387c-0.05207,0.35807 -0.11392,0.71614 -0.18555,1.0742h10.664c-0.16276,1.7904 -0.38737,3.0176 -0.67382,3.6816c-0.41667,0.96353 -1.39323,1.4453 -2.9297,1.4453c-1.27607,0 -2.6465,-0.05534 -4.1113,-0.16601l-0.36133,-1.7774c1.39973,0.14974 2.653,0.22461 3.7598,0.22461c0.59896,0 0.99283,-0.06836 1.1816,-0.20508c0.29297,-0.21484 0.52083,-0.77474 0.68359,-1.6797h-8.5938c-0.07161,0.26693 -0.19531,0.66733 -0.37109,1.2012l-2.0996,-0.41992c0.49479,-1.4844 0.86589,-3.08923 1.1133,-4.8145h9.4238v-1.0449h-10v-1.4844zM283.7426,175.0207c-0.72267,-1.0026 -1.64713,-1.99543 -2.7734,-2.9785l1.4551,-1.3867c1.02213,0.74867 1.98243,1.70243 2.8809,2.8613zM283.14689,180.0598c-1.0026,-1.26953 -1.9759,-2.3047 -2.9199,-3.1055l1.4648,-1.416c0.97653,0.74867 1.9824,1.71547 3.0176,2.9004zM280.62739,187.9602c1.14587,-1.78387 2.2331,-4.07227 3.2617,-6.8652l1.6016,1.1816c-0.85287,2.58467 -1.875,5.00003 -3.0664,7.2461zM298.02939,178.595c-0.85287,-1.3802 -1.74807,-2.5716 -2.6856,-3.5742l1.4844,-0.95703c1.14587,1.04167 2.0736,2.181 2.7832,3.418zM284.36739,177.4231c0.95053,-0.78127 1.7318,-1.81643 2.3438,-3.1055l1.7773,0.66406c-0.63802,1.4518 -1.52019,2.66273 -2.6465,3.6328z" fill="#ffffff" stroke-width="1"/><path d="M305.02,177.79c0.50781,0 0.96681,0.16927 1.377,0.50781c0.54036,0.44271 0.81054,1.00911 0.81054,1.6992c0,0.42318 -0.12044,0.81705 -0.36133,1.1816c-0.43619,0.67707 -1.05469,1.0156 -1.8555,1.0156c-0.35157,0 -0.68687,-0.08464 -1.0059,-0.25391c-0.25391,-0.13021 -0.46875,-0.30273 -0.64453,-0.51758c-0.35807,-0.42317 -0.53711,-0.90494 -0.53711,-1.4453c0,-0.7552 0.31575,-1.35417 0.94726,-1.7969c0.37761,-0.26041 0.80077,-0.39062 1.2695,-0.39062z" fill="#ffffff" stroke-width="1"/><path d="M312.06,172.3h15.859v2.0801h-15.859zM313.1635,178.7453h13.672v2.0215h-13.672zM310.8002,185.718h18.398v2.0801h-18.398z" fill="#ffffff" stroke-width="1"/><path d="M343.14,174.87v1.5039h5.3613v11.504c0,0.58594 -0.14974,0.99284 -0.44922,1.2207c-0.25391,0.18881 -0.70311,0.28321 -1.3476,0.28321c-0.7422,0 -1.40953,-0.04232 -2.002,-0.12696l-0.32226,-1.9043c0.66406,0.09765 1.21093,0.14648 1.6406,0.14648c0.24089,0 0.38737,-0.06185 0.43946,-0.18555c0.03907,-0.09115 0.0586,-0.2181 0.0586,-0.38086v-2.2559h-3.418v4.3164h-1.9434v-4.3164h-3.0762v4.8242h-1.9824v-13.125h5.0195v-1.5039h-5.8594v-1.8164h5.8594v-2.5586h2.0215v2.5586h3.3496c-0.6966,-0.6966 -1.41927,-1.29557 -2.168,-1.7969l1.5723,-0.87891c0.80727,0.46875 1.64387,1.11328 2.5098,1.9336l-1.1914,0.74219h2.2852v1.8164zM341.1576,178.0341h-3.0762v1.6406h3.0762zM343.101,178.0341v1.6406h3.418v-1.6406zM341.1576,181.2568h-3.0762v1.8555h3.0762zM343.101,181.2568v1.8555h3.418v-1.8555zM333.5795,175.0947c-0.7422,-1.09373 -1.68297,-2.1419 -2.8223,-3.1445l1.5234,-1.4355c1.1328,0.97007 2.08657,1.9629 2.8613,2.9785zM333.08145,180.1142c-0.90493,-1.21747 -1.83917,-2.2917 -2.8027,-3.2227l1.4356,-1.4356c1.05467,0.87893 2.04427,1.91733 2.9688,3.1152zM330.54235,188.0341c1.03513,-1.7448 1.99543,-4.02343 2.8809,-6.8359l1.8359,1.0742c-0.7682,2.71487 -1.71547,5.13023 -2.8418,7.2461z" fill="#ffffff" stroke-width="1"/><path d="M358.84,177.32v-6.8164h2.1973v6.8164h7.4414v1.9434h-7.4414v2.7734h8.4668v1.9824h-8.4668v5.4883h-2.1973v-5.4883h-8.3398v-1.9824h8.3398v-2.7734h-7.3047v-1.9434zM354.5627,176.68524c-0.80727,-1.7904 -1.65363,-3.27803 -2.5391,-4.4629l2.041,-0.9961c1.0026,1.3802 1.8815,2.8711 2.6367,4.4727zM363.1369,175.92352c1.02867,-1.56253 1.84897,-3.20317 2.4609,-4.9219l2.2852,0.89844c-0.73567,1.6146 -1.6634,3.2357 -2.7832,4.8633z" fill="#ffffff" stroke-width="1"/><path d="M377.74,171.98c0.24089,-0.57943 0.4362,-1.13283 0.58594,-1.6602l2.3828,0.32226c-0.22786,0.54037 -0.43619,0.98633 -0.625,1.3379h6.5039v6.3672h-11.797v0.98633h14.697v1.582h-14.697v0.99609h14.014c-0.08464,2.9818 -0.27344,4.99353 -0.56641,6.0352c-0.1888,0.66406 -0.5436,1.10353 -1.0644,1.3184c-0.37109,0.15625 -0.93749,0.23437 -1.6992,0.23437c-0.78127,0 -1.51043,-0.04883 -2.1875,-0.14648l-0.39063,-1.6406h-9.7852v1.084h-2.0996v-4.6973h2.0996v2.0117h3.3594v-2.6367h-3.8379v-11.494zM381.8904,186.111v-2.0117h2.0215v3.3984c0.54036,0.05207 0.98956,0.0781 1.3476,0.0781c0.44271,0 0.71941,-0.12695 0.83008,-0.38085c0.21485,-0.47527 0.38412,-1.7155 0.50781,-3.7207h-8.0273v2.6367zM374.7908,173.484v0.96679h9.6387v-0.96679zM374.7908,175.8473v1.0644h9.6387v-1.0644z" fill="#ffffff" stroke-width="1"/></g></g></svg>