<svg version="1.1" xmlns="http://www.w3.org/2000/svg" xmlns:xlink="http://www.w3.org/1999/xlink" width="208" height="32" viewBox="0,0,208,32"><g transform="translate(-240,-164)"><g data-paper-data="{&quot;isPaintingLayer&quot;:true}" fill-rule="nonzero" stroke="none" stroke-linecap="butt" stroke-linejoin="miter" stroke-miterlimit="10" stroke-dasharray="" stroke-dashoffset="0" style="mix-blend-mode: normal"><path d="M240,196v-32h208v32z" fill="none" stroke-width="0"/><path d="M245.52,185.06c0.52083,0.60547 1.10677,1.05471 1.7578,1.3477c1.06773,0.48177 2.46747,0.72266 4.1992,0.72266h8.3203c-0.23437,0.44271 -0.45247,1.07747 -0.6543,1.9043h-7.7637c-2.2396,0 -3.9551,-0.35157 -5.1465,-1.0547c-0.48828,-0.29297 -1.02538,-0.77151 -1.6113,-1.4356c-0.0456,0.05207 -0.10094,0.11717 -0.16602,0.19531c-0.957,1.1328 -1.90753,2.05727 -2.8516,2.7734l-1.1816,-2.002c1.03513,-0.61849 2.03447,-1.31836 2.998,-2.0996v-4.8242h-2.8418v-1.9238h4.9414zM248.0591,172.101l0.51758,-0.0391c3.01433,-0.20833 5.72267,-0.6543 8.125,-1.3379l1.5234,1.7188c-2.52607,0.66406 -5.22137,1.11326 -8.0859,1.3476v2.5293h9.043v1.9043h-3.2812v7.959h-2.1582v-7.959h-3.6035c-0.03253,2.08987 -0.18878,3.75327 -0.46875,4.9902c-0.25391,1.13933 -0.67057,2.16147 -1.25,3.0664l-1.7969,-1.3574c0.64453,-1.0026 1.05793,-2.2461 1.2402,-3.7305c0.13021,-1.02213 0.19531,-2.4121 0.19531,-4.1699zM244.4458,175.9194c-0.99607,-1.40627 -2.0703,-2.66603 -3.2227,-3.7793l1.6016,-1.2793c1.1198,0.93747 2.2461,2.12887 3.3789,3.5742z" fill="#ffffff" stroke-width="1"/><path d="M272.02,180.88c0.35807,1.23047 0.91147,2.4479 1.6602,3.6523c0.944,-1.12627 1.71547,-2.2363 2.3144,-3.3301l1.6406,1.0352c-0.76827,1.32813 -1.67647,2.58463 -2.7246,3.7695c0.83333,0.86587 1.45183,1.2988 1.8555,1.2988c0.33203,0 0.60872,-0.88217 0.83008,-2.6465l1.7969,0.91797c-0.24089,1.46487 -0.46875,2.43493 -0.68359,2.9102c-0.32552,0.72267 -0.77475,1.084 -1.3477,1.084c-0.39063,0 -0.92773,-0.15625 -1.6113,-0.46875c-0.8138,-0.3776 -1.57227,-0.92447 -2.2754,-1.6406c-0.8724,0.79427 -1.72527,1.45833 -2.5586,1.9922l-0.9375,-0.97656h-6.5234v0.89844h-1.7773v-7.6367h8.3984v6.0156c0.70967,-0.42969 1.4421,-1.01236 2.1973,-1.748c-0.9896,-1.4518 -1.75783,-3.1608 -2.3047,-5.127h-9.4141v-1.5234h9.0527c-0.48177,-2.39587 -0.78775,-5.34833 -0.91796,-8.8574h2.0215c0.09115,2.9362 0.41016,5.84637 0.95703,8.7305l0.0195,0.12695h2.334c-0.20183,-0.20183 -0.45248,-0.41667 -0.75196,-0.64453l1.6211,-0.45899c0.31901,0.22135 0.75847,0.58919 1.3184,1.1035h3.2226v1.5234zM263.4556,183.0773v1.2598h1.6602v-1.2598zM263.4556,185.6554v1.4258h1.6602v-1.4258zM268.3775,187.0812v-1.4258h-1.6797v1.4258zM268.3775,184.3371v-1.2598h-1.6797v1.2598zM263.7388,176.0559c-0.78773,-0.90493 -1.63083,-1.73827 -2.5293,-2.5l1.1426,-1.2402c0.33854,0.28646 0.58268,0.5013 0.73242,0.64453c0.55339,-0.7552 1.00912,-1.53647 1.3672,-2.3438l1.7774,0.78125c-0.625,0.95707 -1.31187,1.83923 -2.0606,2.6465c0.22787,0.24089 0.43946,0.48503 0.63477,0.73242c0.63151,-0.79427 1.26954,-1.67317 1.9141,-2.6367l1.5332,0.82031c-1.08727,1.49087 -2.27217,2.8613 -3.5547,4.1113l0.37109,-0.0195c0.65104,-0.01953 1.22397,-0.04557 1.7188,-0.0781c-0.19531,-0.48177 -0.40039,-0.90171 -0.61524,-1.2598l1.4453,-0.55664c0.55339,0.98307 1.03189,2.10937 1.4355,3.3789l-1.6016,0.64453c-0.08463,-0.42318 -0.16927,-0.75521 -0.2539,-0.9961l-0.3711,0.0391c-1.6862,0.20833 -3.54493,0.36784 -5.5762,0.47851l-0.40039,-1.5625c0.91147,0 1.5495,-0.0065 1.9141,-0.0195c0.39713,-0.41667 0.72265,-0.77147 0.97656,-1.0644zM273.3775,175.89965c-0.6836,-0.8594 -1.45183,-1.6732 -2.3047,-2.4414l1.1035,-1.1816c0.2474,0.22787 0.47527,0.44597 0.6836,0.6543c0.54036,-0.71613 1.01236,-1.48763 1.416,-2.3145l1.7383,0.82032c-0.66406,0.918 -1.37696,1.78063 -2.1387,2.5879c0.22135,0.26693 0.41016,0.5013 0.56641,0.70312c0.7422,-0.83987 1.46487,-1.74157 2.168,-2.7051l1.6016,0.85938c-1.3216,1.58853 -2.54557,2.90363 -3.6719,3.9453c0.55338,-0.013 1.32485,-0.04881 2.3144,-0.10742c-0.22135,-0.50781 -0.44271,-0.92775 -0.66406,-1.2598l1.4453,-0.49804c0.60547,0.90493 1.11653,1.96287 1.5332,3.1738l-1.5723,0.74218c-0.1237,-0.40365 -0.23112,-0.73568 -0.32227,-0.99609c-1.64713,0.26041 -3.42773,0.43294 -5.3418,0.51758l-0.40039,-1.5234c0.24089,0 0.44597,0 0.61524,0l0.29297,-0.01l0.21484,-0.21484c0.17578,-0.17578 0.41667,-0.42643 0.72266,-0.75195z" fill="#ffffff" stroke-width="1"/><path d="M290.23,178.41v7.7344c0,0.5013 0.21485,0.80403 0.64454,0.9082c0.44271,0.11068 1.45507,0.16602 3.0371,0.16602c1.54293,0 2.5618,-0.07813 3.0566,-0.23438c0.27995,-0.09115 0.46224,-0.34505 0.54687,-0.76172c0.11068,-0.58593 0.16927,-1.2793 0.17578,-2.0801l2.041,0.57618c-0.10417,1.9206 -0.36784,3.1478 -0.79102,3.6816c-0.27995,0.35156 -0.70311,0.55989 -1.2695,0.625c-0.89193,0.09765 -2.4056,0.14648 -4.541,0.14648c-1.65367,0 -2.73767,-0.04557 -3.252,-0.13672c-0.77473,-0.13021 -1.26627,-0.47201 -1.4746,-1.0254c-0.10417,-0.29297 -0.15625,-0.6836 -0.15625,-1.1719v-7.7441l-1.8652,0.64453l-0.45899,-1.8945l2.3242,-0.80078v-5.2637h1.9824v4.5801l2.0996,-0.71289v-5.1465h1.9629v4.4629l3.2715,-1.123l1.0254,0.625v7.3144c0,0.50781 -0.12044,0.88541 -0.36133,1.1328c-0.27343,0.27343 -0.73243,0.41015 -1.377,0.41015c-0.52735,0 -1.08725,-0.04557 -1.6797,-0.13672l-0.32226,-1.8652c0.38411,0.09765 0.77475,0.14648 1.1719,0.14648c0.28646,0 0.46224,-0.05859 0.52734,-0.17578c0.06513,-0.09765 0.0977,-0.26041 0.0977,-0.48828v-4.6191l-2.3535,0.82031v7.9004h-1.9629v-7.2266zM283.0523,175.2166v-4.7168h2.0996v4.7168h1.8945v1.9824h-1.8945v6.2109c0.6836,-0.23437 1.36067,-0.47851 2.0312,-0.73242l0.18555,1.8848c-2.1094,0.96353 -4.2741,1.77083 -6.4941,2.4219l-0.6836,-2.0801c1.0026,-0.26041 1.8815,-0.50781 2.6367,-0.74218c0.09115,-0.03253 0.16602,-0.05533 0.22461,-0.0684v-6.8945h-2.4805v-1.9824z" fill="#ffffff" stroke-width="1"/><path d="M309.48,175.76c-0.0456,1.08727 -0.1107,2.0443 -0.19531,2.8711h7.8711c-0.09765,4.51827 -0.35156,7.4512 -0.76172,8.7988c-0.20833,0.67707 -0.5957,1.1458 -1.1621,1.4062c-0.44271,0.20182 -1.09051,0.30273 -1.9434,0.30273c-0.89847,0 -1.91733,-0.06836 -3.0566,-0.20507l-0.38085,-2.1973c1.52993,0.21485 2.6074,0.32227 3.2324,0.32227c0.52734,0 0.86264,-0.14974 1.0059,-0.44922c0.34505,-0.7292 0.58593,-2.74093 0.72265,-6.0352h-5.8105c-0.21485,1.17187 -0.51758,2.1875 -0.90821,3.0469c-1.08727,2.37627 -2.90367,4.26103 -5.4492,5.6543l-1.543,-1.7188c2.55207,-1.32813 4.23827,-3.06967 5.0586,-5.2246c0.54687,-1.4388 0.90167,-3.62957 1.0644,-6.5723h-6.4648v-2.002h7.9785v-3.2617h2.2559v3.2617h8.2422v2.002z" fill="#ffffff" stroke-width="1"/></g></g></svg>