<?xml version="1.0" encoding="UTF-8"?>
<svg width="480" height="360" version="1.1" viewBox="0 0 480 360" xmlns="http://www.w3.org/2000/svg">
 <g dominant-baseline="central" fill="#fff" aria-label="石川県加賀地方">
  <path d="m246.66 178.9h11.152v10.605h-2.2559v-1.3476h-9.4043v1.3476h-2.2168v-7.2266q-1.2109 1.2012-2.5977 2.2949l-1.2012-1.875q2.6758-1.8652 4.5508-4.6387 1.4551-2.1582 2.2754-4.4727h-5.9863v-1.9434h18.125v1.9434h-9.7461q-1.0449 2.8223-2.6953 5.3125zm-0.50782 1.9043v5.4102h9.4043v-5.4102z" dominant-baseline="central"/>
  <path d="m262.94 171.3h2.3438v6.6016q0 4.0918-0.45898 6.2598-0.42969 2.002-1.4551 3.584-0.36133 0.56641-0.99609 1.3184l-1.8555-1.582q1.7578-1.8652 2.1875-4.9512 0.23437-1.6504 0.23437-4.3066zm6.2012 0.30273h2.2754v15.898h-2.2754zm6.416-0.78125h2.3047v18.457h-2.3047z" dominant-baseline="central"/>
  <path d="m296.76 170.98v9.4629h-11.621v-9.4629zm-9.5215 1.543v1.2207h7.4023v-1.2207zm0 2.5977v1.2207h7.4023v-1.2207zm0 2.5976v1.2598h7.4023v-1.2598zm-3.9356 4.0234h16.191v1.6992h-8.0762v6.0644h-2.2168v-6.0644h-8.0371v-10.957h2.1387zm-2.5 5.8984q2.3242-1.0742 4.4434-3.6035l1.7969 1.0449q-2.0898 2.6465-4.6387 4.1602zm16.836 1.2598q-1.4941-1.8359-4.4922-3.8574l1.6797-1.1816q2.3535 1.3574 4.6191 3.5644z" dominant-baseline="central"/>
  <path d="m308.01 176.32h-2.0117q-0.27343 4.4141-1.0644 7.2266-0.92773 3.3398-3.0566 5.4785l-1.5332-1.6211q1.9824-2.0801 2.8418-5.5078 0.50782-2.0215 0.73243-5.5762h-2.998v-1.9238h3.1543l0.12695-3.8965h2.041l-0.10742 3.8965h3.8867q0 10.342-0.56641 12.842-0.23437 1.0059-0.89843 1.3574-0.47852 0.24414-1.4062 0.24414-1.1426 0-2.334-0.17578l-0.38086-2.0996q1.2891 0.23437 2.0312 0.23437 0.66407 0 0.83985-0.35156 0.52734-1.0059 0.69336-9.668zm10.771-3.0176v15.4h-2.0606v-1.3476h-3.2324v1.543h-2.0215v-15.596zm-5.293 1.9434v10.166h3.2324v-10.166z" dominant-baseline="central"/>
  <path d="m322.69 177.33h14.639v8.6816h-3.877q3.0469 0.7129 5.9375 1.9238l-1.4453 1.6309q-3.1152-1.3965-6.3965-2.3926l0.98633-1.1621h-5.5176l1.2891 1.1035q-2.8711 1.582-6.416 2.5977l-1.3184-1.7774q3.0664-0.61523 5.8594-1.9238h-3.7402zm12.48 1.3574h-10.342v1.0449h10.342zm-10.342 2.3828v1.084h10.342v-1.084zm0 2.4023v1.123h10.342v-1.123zm3.4082-10.234h-2.1582q-0.74219 2.7441-4.6094 4.1797l-1.1621-1.5234q2.9297-0.74219 3.6719-2.6562h-2.9883v-1.543h3.2812l0.11719-1.2012h2.0605l-0.11719 1.2012h3.8965q-0.15625 2.8809-0.41016 3.6914-0.27343 0.83008-0.85937 1.0742-0.43946 0.17578-1.25 0.17578-0.88867 0-1.9629-0.14648l-0.26367-1.5332q1.0058 0.17578 1.6113 0.17578 0.64453 0 0.81055-0.2832 0.0977-0.15625 0.21484-0.88868zm10.352-1.8262v5.127h-7.4023v-5.127zm-5.498 1.5625v2.0215h3.5156v-2.0215z" dominant-baseline="central"/>
  <path d="m350.23 178.41v7.7344q0 0.75195 0.64454 0.9082 0.66406 0.16602 3.0371 0.16602 2.3144 0 3.0566-0.23438 0.41992-0.13672 0.54687-0.76172 0.16602-0.8789 0.17578-2.0801l2.041 0.57618q-0.15625 2.8809-0.79102 3.6816-0.41992 0.52734-1.2695 0.625-1.3379 0.14648-4.541 0.14648-2.4805 0-3.252-0.13672-1.1621-0.19531-1.4746-1.0254-0.15625-0.43945-0.15625-1.1719v-7.7441l-1.8652 0.64453-0.45899-1.8945 2.3242-0.80078v-5.2637h1.9824v4.5801l2.0996-0.71289v-5.1465h1.9629v4.4629l3.2715-1.123 1.0254 0.625v7.3144q0 0.76172-0.36133 1.1328-0.41015 0.41015-1.377 0.41015-0.79102 0-1.6797-0.13672l-0.32226-1.8652q0.57617 0.14648 1.1719 0.14648 0.42969 0 0.52734-0.17578 0.0977-0.14648 0.0977-0.48828v-4.6191l-2.3535 0.82031v7.9004h-1.9629v-7.2266zm-7.1777-3.1934v-4.7168h2.0996v4.7168h1.8945v1.9824h-1.8945v6.2109q1.0254-0.35156 2.0312-0.73242l0.18555 1.8848q-3.1641 1.4453-6.4941 2.4219l-0.6836-2.0801q1.5039-0.39062 2.6367-0.74218 0.13672-0.0488 0.22461-0.0684v-6.8945h-2.4805v-1.9824z" dominant-baseline="central"/>
  <path d="m369.48 175.76q-0.0684 1.6309-0.19531 2.8711h7.8711q-0.14648 6.7774-0.76172 8.7988-0.3125 1.0156-1.1621 1.4062-0.66406 0.30273-1.9434 0.30273-1.3477 0-3.0566-0.20507l-0.38085-2.1973q2.2949 0.32227 3.2324 0.32227 0.79101 0 1.0059-0.44922 0.51757-1.0938 0.72265-6.0352h-5.8105q-0.32227 1.7578-0.90821 3.0469-1.6309 3.5644-5.4492 5.6543l-1.543-1.7188q3.8281-1.9922 5.0586-5.2246 0.82031-2.1582 1.0644-6.5723h-6.4648v-2.002h7.9785v-3.2617h2.2559v3.2617h8.2422v2.002z" dominant-baseline="central"/>
 </g>
</svg>
