<svg version="1.1" xmlns="http://www.w3.org/2000/svg" xmlns:xlink="http://www.w3.org/1999/xlink" width="208" height="32" viewBox="0,0,208,32"><g transform="translate(-240,-164)"><g data-paper-data="{&quot;isPaintingLayer&quot;:true}" fill-rule="nonzero" stroke="none" stroke-linecap="butt" stroke-linejoin="miter" stroke-miterlimit="10" stroke-dasharray="" stroke-dashoffset="0" style="mix-blend-mode: normal"><path d="M240,196v-32h208v32z" fill="none" stroke-width="0"/><path d="M246.56,182.77c0.944,0.51432 1.98893,1.23699 3.1348,2.168l-1.1133,1.8164c-0.73567,-0.8268 -1.4095,-1.50713 -2.0215,-2.041v4.7852h-2.002v-5.2148c-0.87893,1.6146 -1.92387,2.9655 -3.1348,4.0527l-1.1426,-1.8457c1.4518,-1.02867 2.65947,-2.30797 3.623,-3.8379h-3.0859v-1.7188h3.7402v-1.9043h-4.1211v-1.7969h2.1387c-0.16927,-0.8268 -0.4069,-1.7285 -0.71289,-2.7051h-1.0449v-1.8164h3.7012v-2.2168h2.0801v2.2168h3.5449v1.8164h-1.0449c-0.24089,0.97653 -0.54037,1.87823 -0.89844,2.7051h2.2363v1.7969h-3.877v1.9043h3.5156v1.7188h-3.5156zM243.8061,174.5278c0.2474,0.8138 0.46224,1.7155 0.64453,2.7051h1.9336c0.29948,-0.83987 0.55664,-1.74157 0.77148,-2.7051zM252.9956,179.2739c0.00667,2.01827 -0.14958,3.89 -0.46875,5.6152c-0.33203,1.79033 -0.92123,3.3919 -1.7676,4.8047l-1.6113,-1.4746c0.72267,-1.17187 1.21747,-2.61067 1.4844,-4.3164c0.23437,-1.45833 0.35156,-3.3203 0.35156,-5.5859v-6.123c0.13021,-0.013 0.32877,-0.03253 0.5957,-0.0586c2.07033,-0.19531 4.1439,-0.64128 6.2207,-1.3379l1.2793,1.6992c-1.7318,0.58594 -3.75653,1.03841 -6.0742,1.3574v3.3789h6.5527v2.041h-2.2363v10.225h-2.0215v-10.225z" fill="#ffffff" stroke-width="1"/><path d="M268.67,179.28h-2.0312v-7.5391l0.10743,-0.01c1.66667,-0.22136 3.08267,-0.60873 4.248,-1.1621l1.3477,1.416c-0.98307,0.39713 -2.2233,0.7552 -3.7207,1.0742v1.6211h3.1543v1.4648h-3.1543v1.6113h7.2949v-1.6113h-3.2129v-1.4648h3.2129v-1.4941h-3.2617v-1.5625h5.2637v7.6562h-7.1973c-0.20833,0.37761 -0.47852,0.80404 -0.81055,1.2793h9.2871c-0.0586,3.5482 -0.23438,5.84637 -0.52735,6.8945c-0.1888,0.6706 -0.45247,1.15563 -0.79101,1.4551c-0.37761,0.33854 -0.95054,0.50781 -1.7188,0.50781c-0.96353,0 -1.9043,-0.05208 -2.8223,-0.15625l-0.40039,-1.9434c1.02213,0.17578 1.87173,0.26367 2.5488,0.26367c0.55989,0 0.91146,-0.14648 1.0547,-0.43945c0.28646,-0.60547 0.48503,-2.2591 0.5957,-4.9609h-8.6035c-0.54037,0.52083 -1.07097,0.96353 -1.5918,1.3281l1.4551,0.41016c-0.26693,1.92053 -0.65429,3.50907 -1.1621,4.7656l-1.8945,-0.9668c0.56641,-1.15233 1.00261,-2.48697 1.3086,-4.0039c-0.14974,0.09765 -0.38737,0.24739 -0.71289,0.44922l-1.0938,-1.2988l-0.19531,0.69336c-0.70967,2.5 -1.43883,4.46613 -2.1875,5.8984l-1.8359,-1.4746c1.02867,-1.90753 1.90757,-4.17967 2.6367,-6.8164l1.7383,1.1523l-0.11719,0.41016c1.52347,-0.80727 2.7865,-1.95637 3.7891,-3.4473zM263.963,175.0612c-0.83333,-1.1068 -1.80013,-2.10613 -2.9004,-2.998l1.4746,-1.3867c1.05467,0.7292 2.06053,1.6895 3.0176,2.8809zM263.29894,180.1003c-0.84633,-1.1068 -1.81963,-2.15497 -2.9199,-3.1445l1.4844,-1.4355c1.16533,0.90493 2.1777,1.9108 3.0371,3.0176zM269.69544,188.0593c-0.11068,-1.53647 -0.3418,-2.97527 -0.69336,-4.3164l1.4941,-0.40039c0.50781,1.34113 0.83659,2.67903 0.98632,4.0137zM272.65444,187.0046c-0.3125,-1.39973 -0.6836,-2.56837 -1.1133,-3.5059l1.3574,-0.57617c0.48828,0.95707 0.90168,2.0508 1.2402,3.2812zM275.18374,186.07687c-0.3125,-1.15887 -0.7487,-2.19077 -1.3086,-3.0957l1.3281,-0.625c0.58593,0.86587 1.04493,1.83267 1.377,2.9004z" fill="#ffffff" stroke-width="1"/><path d="M296.76,170.98v9.4629h-11.621v-9.4629zM287.2385,172.523v1.2207h7.4023v-1.2207zM287.2385,175.1207v1.2207h7.4023v-1.2207zM287.2385,177.7183v1.2598h7.4023v-1.2598zM283.3029,181.7417h16.191v1.6992h-8.0762v6.0644h-2.2168v-6.0644h-8.0371v-10.957h2.1387zM280.8029,187.6401c1.54947,-0.71613 3.0306,-1.9173 4.4434,-3.6035l1.7969,1.0449c-1.3932,1.76433 -2.93943,3.15107 -4.6387,4.1602zM297.6389,188.8999c-0.99607,-1.22393 -2.49347,-2.50973 -4.4922,-3.8574l1.6797,-1.1816c1.569,0.90493 3.1087,2.09307 4.6191,3.5644z" fill="#ffffff" stroke-width="1"/><path d="M304.81,184.03c1.2044,-1.30207 2.31117,-3.03383 3.3203,-5.1953c0.41015,-0.87893 0.79425,-1.97267 1.1523,-3.2812h-3.3301v-1.9434h3.7891c0.25391,-1.23047 0.44271,-2.3047 0.56641,-3.2227l2.1289,0.32227c-0.13021,0.89847 -0.30274,1.86527 -0.51758,2.9004h7.2559v1.9434h-7.7148l-0.0684,0.24414c-0.38411,1.4388 -0.82681,2.73763 -1.3281,3.8965h8.3106v1.8359h-4.1211v5.2441h5.2344v1.9434h-12.939v-1.9434h5.5469v-5.2441h-2.9297c-0.931,1.69273 -1.94987,3.1055 -3.0566,4.2383l-1.2988,-1.5625v5.332h-2.0801v-10.059c-0.43619,0.7552 -0.96353,1.56573 -1.582,2.4316l-0.97656,-2.1777c1.05467,-1.47787 1.9596,-3.21613 2.7148,-5.2148c0.42969,-1.1328 0.87893,-2.52277 1.3477,-4.1699l2.0801,0.51758c-0.47526,1.6406 -0.97656,3.09893 -1.5039,4.375z" fill="#ffffff" stroke-width="1"/><path d="M336.4,173.9v1.582h2.8027v1.582h-2.8027v2.9297h-6.3184v-2.9297h-1.9434v0.83984c0,2.9362 -0.14323,5.2116 -0.42969,6.8262c-0.31901,1.7578 -0.96028,3.3724 -1.9238,4.8438l-1.6211,-1.4648c0.64453,-1.09373 1.10026,-2.14843 1.3672,-3.1641c0.42318,-1.63413 0.63477,-3.98113 0.63477,-7.041v-5.6445h5.2539v-1.7578h2.0801v1.7578h5.498v1.6406zM334.4762,173.9h-2.4902v1.582h2.4902zM330.0817,173.9h-1.9434v1.582h1.9434zM334.4762,177.0641h-2.4902v1.5527h2.4902zM335.15979,186.068c1.15233,0.58594 2.666,1.10351 4.541,1.5527l-1.0156,1.8652c-1.888,-0.53385 -3.58723,-1.27929 -5.0977,-2.2363c-1.4258,0.93747 -3.1999,1.735 -5.3223,2.3926l-1.0644,-1.7578c1.86847,-0.37761 3.50257,-0.97004 4.9023,-1.7773c-0.97653,-0.91147 -1.81313,-1.9922 -2.5098,-3.2422h-1.1523v-1.6797h8.9844l0.9961,0.9375c-1.0026,1.60807 -2.08983,2.92317 -3.2617,3.9453zM333.60709,185.0524c0.92447,-0.76173 1.61783,-1.4909 2.0801,-2.1875h-4.1406c0.54687,0.7552 1.23374,1.48437 2.0606,2.1875zM323.82189,175.0424c-0.73567,-1.05467 -1.66013,-2.06703 -2.7734,-3.0371l1.4746,-1.3672c0.93747,0.70313 1.89777,1.6634 2.8809,2.8808zM323.24572,180.0619c-0.93747,-1.24347 -1.89123,-2.29817 -2.8613,-3.1641l1.5039,-1.3965c1.04167,0.83987 2.02147,1.84573 2.9394,3.0176zM320.56012,188.0014c1.10027,-1.82293 2.1224,-4.08857 3.0664,-6.7969l1.7383,1.1133c-0.7422,2.40887 -1.74153,4.8047 -2.998,7.1875z" fill="#ffffff" stroke-width="1"/></g></g></svg>