<?xml version="1.0" encoding="UTF-8"?>
<svg width="480" height="360" version="1.1" viewBox="0 0 480 360" xmlns="http://www.w3.org/2000/svg">
 <g fill="#fff" aria-label="伊勢・三河湾">
  <path d="m258.08 175.78h1.5039v1.7969h-1.5039v4.5996h-4.9805q-0.17578 2.7051-1.123 4.3359-1.2012 2.0801-3.0566 3.2227l-1.5625-1.5625q1.7871-1.0352 2.832-2.8223 0.69336-1.2012 0.82032-3.1738h-4.0527v-1.8164h4.082v-2.7832h-5.5762v-1.7969h5.5762v-2.6074h-3.7793v-1.8164h10.82zm-2.0606 0v-2.6074h-2.9004v2.6074zm0 1.7969h-2.9004v2.7832h2.9004zm-11.064-2.2363v14.16h-2.0996v-10.02q-0.72266 1.1914-1.6406 2.4609l-0.99609-2.1777q1.6504-2.2363 2.793-5.1367 0.71289-1.7969 1.4062-4.2676l2.1191 0.53711q-0.76172 2.5488-1.582 4.4434z"/>
  <path d="m274.12 177.03q0.9082 0.88867 1.6211 1.748l-1.0644 1.5137q-0.69336-0.84961-1.2012-1.3965-0.77148 1.6406-2.0996 2.7832l-1.3184-1.3867q1.3379-1.1524 2.0312-2.832-0.77149-0.73242-1.3086-1.1328-0.14648 0.74219-0.47851 0.91797-0.47852 0.25391-1.7774 0.25391-1.3379 0-1.8457-0.20508v0.74219h2.8223v1.2598h-2.8223v0.87891q0.10742-0.0195 0.23437-0.0293 1.0254-0.0781 3.0664-0.33203v1.2598q-3.3594 0.68359-8.8184 1.0644l-0.41992-1.543q2.1582-0.10742 4.0039-0.2539v-1.0449h-2.9883v-1.2598h2.9883v-1.3379h1.4844q-0.0293-0.19531-0.0293-0.41992v-1.0645h-1.3184q-0.86914 2.1387-3.7207 2.8223l-0.82031-1.3184q1.8848-0.45898 2.5684-1.5039h-2.4121v-1.3184h4.1992v-0.89843h-3.3984v-1.3574h3.3984v-1.1426h1.9434v1.1426h3.1055v1.3574h-3.1055v0.89843h3.7988v-1.5234h2.373l0.0879-1.875h1.8652l-0.0879 1.875h2.9883q-0.0977 1.6504-0.0977 2.9688 0 2.832 0.3125 4.0723 0.0488 0.17578 0.0879 0.17578 0.0781 0 0.23438-0.5664 0.18554-0.6836 0.32226-1.6504l1.3184 1.084q-0.54687 3.4082-1.9726 3.4082-0.75196 0-1.3184-0.96679-0.84961-1.4551-0.84961-5.5176 0-0.55664 0.01-1.3867h-1.2012q-0.12695 1.8262-0.39062 3.0371zm-1.5527-1.377 0.0391-0.24414q0.0977-0.73243 0.13672-1.416h-2.2461v1.2207h-2.5v0.57618q0 0.2832 0.12695 0.35156 0.13672 0.0684 0.47852 0.0684 0.46875 0 0.57617-0.13672 0.0781-0.0879 0.0781-0.57617l1.5527 0.54687 0.73242-1.2109q0.46875 0.36133 1.0254 0.82032zm-2.0117 8.9648q-1.5625 4.1113-8.6523 4.9805l-0.94727-1.6602q5.7324-0.68359 7.2656-3.3203h-6.7188v-1.6211h7.2363l0.13671-1.3379h2.168l-0.14648 1.3379h7.6074q-0.27344 3.9062-0.83984 5.1074-0.42969 0.89844-1.3379 1.1719-0.46875 0.14649-1.3867 0.14649-1.5332 0-3.5156-0.20508l-0.38086-1.7773q1.9336 0.2832 3.1738 0.2832 0.85938 0 1.1621-0.3125 0.51758-0.52734 0.74219-2.793z"/>
  <path d="m285.02 177.79q0.76172 0 1.377 0.50781 0.81054 0.66406 0.81054 1.6992 0 0.63477-0.36133 1.1816-0.65429 1.0156-1.8555 1.0156-0.52735 0-1.0059-0.25391-0.38086-0.19531-0.64453-0.51758-0.53711-0.63476-0.53711-1.4453 0-1.1328 0.94726-1.7969 0.56641-0.39062 1.2695-0.39062z"/>
  <path d="m292.06 172.3h15.859v2.0801h-15.859zm1.1035 6.4453h13.672v2.0215h-13.672zm-2.3633 6.9727h18.398v2.0801h-18.398z"/>
  <path d="m327.72 173.66v13.711q0 1.2012-0.625 1.6406-0.49805 0.3418-1.6992 0.3418-1.4941 0-2.959-0.13672l-0.49805-2.0801q1.7676 0.22461 3.0762 0.22461 0.46875 0 0.56641-0.17578 0.0781-0.13672 0.0781-0.50781v-13.018h-10.107v-1.9238h14.082v1.9238zm-3.8672 2.5v7.7539h-5.0293v1.5039h-1.9434v-9.2578zm-5.0293 1.6992v4.3359h3.1445v-4.3359zm-4.8633-2.4414q-1.5723-1.8555-3.1836-3.1641l1.4844-1.4356q1.7871 1.3281 3.1543 3.0371zm-0.50782 5.0391q-1.6699-1.9336-3.0957-3.1445l1.4356-1.4746q1.6699 1.1914 3.2031 3.0371zm-2.793 7.4219q1.9824-2.7246 3.7598-6.8457l1.7188 1.2012q-1.4062 3.8867-3.6816 7.1973z"/>
  <path d="m345.09 173.8v3.7793q0 0.64454-0.27344 0.94727-0.32226 0.35156-1.4258 0.35156-1.0547 0-1.7285-0.11718l-0.25391-1.6211q0.77149 0.15625 1.2988 0.15625 0.2832 0 0.36133-0.13672 0.0586-0.11718 0.0586-0.38086v-2.9785h-1.7383q-0.0781 2.0605-0.54687 3.1641-0.51758 1.2012-2.1387 2.1973l-1.3965-1.2402q1.4648-0.76172 1.8848-1.9629 0.25391-0.75195 0.3125-2.1582h-3.8574v-1.6602h5.5566v-1.6406h2.1484v1.6406h6.1328v1.6602zm3.0176 5.5371v3.9648h-9.6387q-0.0781 0.53711-0.18555 1.0742h10.664q-0.24414 2.6856-0.67382 3.6816-0.625 1.4453-2.9297 1.4453-1.9141 0-4.1113-0.16601l-0.36133-1.7774q2.0996 0.22461 3.7598 0.22461 0.89844 0 1.1816-0.20508 0.43945-0.32226 0.68359-1.6797h-8.5938q-0.10742 0.40039-0.37109 1.2012l-2.0996-0.41992q0.74219-2.2266 1.1133-4.8145h9.4238v-1.0449h-10v-1.4844zm-14.365-4.3164q-1.084-1.5039-2.7734-2.9785l1.4551-1.3867q1.5332 1.123 2.8809 2.8613zm-0.59571 5.0391q-1.5039-1.9043-2.9199-3.1055l1.4648-1.416q1.4648 1.123 3.0176 2.9004zm-2.5195 7.9004q1.7188-2.6758 3.2617-6.8652l1.6016 1.1816q-1.2793 3.877-3.0664 7.2461zm17.402-9.3652q-1.2793-2.0703-2.6856-3.5742l1.4844-0.95703q1.7188 1.5625 2.7832 3.418zm-13.662-1.1719q1.4258-1.1719 2.3438-3.1055l1.7773 0.66406q-0.95703 2.1777-2.6465 3.6328z"/>
 </g>
</svg>
