<?xml version="1.0" encoding="UTF-8"?>
<svg width="480" height="360" version="1.1" viewBox="0 0 480 360" xmlns="http://www.w3.org/2000/svg">
 <g fill="#fff" aria-label="石川県能登">
  <path d="m246.66 178.9h11.152v10.605h-2.2559v-1.3476h-9.4043v1.3476h-2.2168v-7.2266q-1.2109 1.2012-2.5977 2.2949l-1.2012-1.875q2.6758-1.8652 4.5508-4.6387 1.4551-2.1582 2.2754-4.4727h-5.9863v-1.9434h18.125v1.9434h-9.7461q-1.0449 2.8223-2.6953 5.3125zm-0.50781 1.9043v5.4102h9.4043v-5.4102z"/>
  <path d="m262.94 171.3h2.3438v6.6016q0 4.0918-0.45898 6.2598-0.42969 2.002-1.4551 3.584-0.36133 0.56641-0.99609 1.3184l-1.8555-1.582q1.7578-1.8652 2.1875-4.9512 0.23437-1.6504 0.23437-4.3066zm6.2012 0.30273h2.2754v15.898h-2.2754zm6.416-0.78125h2.3047v18.457h-2.3047z"/>
  <path d="m296.76 170.98v9.4629h-11.621v-9.4629zm-9.5215 1.543v1.2207h7.4023v-1.2207zm0 2.5977v1.2207h7.4023v-1.2207zm0 2.5976v1.2598h7.4023v-1.2598zm-3.9356 4.0234h16.191v1.6992h-8.0762v6.0644h-2.2168v-6.0644h-8.0371v-10.957h2.1387zm-2.5 5.8984q2.3242-1.0742 4.4434-3.6035l1.7969 1.0449q-2.0898 2.6465-4.6387 4.1602zm16.836 1.2598q-1.4941-1.8359-4.4922-3.8574l1.6797-1.1816q2.3535 1.3574 4.6191 3.5644z"/>
  <path d="m301.95 174.96q1.2207-2.1387 2.041-4.541l2.1973 0.45899q-0.94727 2.207-2.0996 4.0234 0.5957-0.0293 1.8359-0.0879 0.10742 0 1.4844-0.0879l-0.0586-0.0977q-0.43946-0.75196-1.0156-1.5918l1.6602-0.82031q1.709 2.2168 2.6953 4.2383l-1.875 1.0254q-0.25391-0.54688-0.58594-1.2305-3.0859 0.38086-7.5391 0.58594l-0.49805-1.8359q0.38086 0 1.7578-0.0391zm7.3438 3.0957v9.5606q0 1.0059-0.47852 1.3867-0.42969 0.34179-1.4746 0.34179-1.0742 0-1.9629-0.12695l-0.32226-1.8457q1.2109 0.14648 1.7773 0.14648 0.36133 0 0.42969-0.14648 0.0488-0.11719 0.0488-0.36133v-1.7774h-3.8184v4.2676h-2.0215v-11.445zm-5.8008 1.6016v1.2793h3.8184v-1.2793zm0 2.7441v1.3672h3.8184v-1.3672zm9.5215-8.9453q2.2754-0.83008 4.3359-2.041l1.4648 1.4844q-2.959 1.5625-5.8008 2.3438v1.6504q0 0.48828 0.2832 0.57617 0.39063 0.12696 1.9238 0.12696 1.3184 0 1.6406-0.29297 0.2539-0.23438 0.33203-1.7676 0.01-0.29297 0.0195-0.45899l2.0606 0.49805q-0.0781 2.6367-0.59571 3.2129-0.33203 0.3711-1.1035 0.51758-0.98633 0.19531-2.8809 0.19531-2.373 0-3.0957-0.35156-0.68359-0.3418-0.68359-1.4746v-7.1777h2.0996zm0 9.5117q2.2852-0.76172 4.6777-2.1094l1.3672 1.6211q-3.1738 1.5918-6.0449 2.3047v1.748q0 0.63477 0.41016 0.75196 0.3125 0.0977 1.6113 0.0977 1.8164 0 2.0703-0.3125 0.27343-0.33203 0.35156-2.5098l2.0801 0.55664q-0.0195 2.9004-0.87891 3.6133-0.75195 0.625-3.7988 0.625-2.4121 0-3.1934-0.39063-0.75195-0.36132-0.75195-1.4648v-7.3633h2.0996z"/>
  <path d="m334.79 174.72q1.2402-0.89844 2.5-2.3438l1.6016 1.0644q-1.0938 1.1621-2.5195 2.1582 1.3379 0.66407 3.3203 1.3672l-1.0645 1.7188q-2.5488-0.98633-4.4531-2.1289v1.2109h-8.3984v-0.83984q-1.9531 1.25-4.668 2.2852l-1.0156-1.6699q2.5976-0.83984 4.2969-1.8555l-0.0976-0.0781q-1.2988-1.0547-2.6758-1.8457l1.4941-1.2988q1.7871 1.1426 2.8906 2.1094 1.1426-0.95703 1.8848-1.9336h-4.3555v-1.6992h7.2461q0.81055 1.0938 1.6797 1.9531l0.20508-0.17578q1.0644-0.91797 1.9726-1.9726l1.5625 1.1328q-0.99609 0.97656-2.4902 2.0898 0.49805 0.3711 1.084 0.75196zm-7.959 1.4648h6.748q-2.1973-1.4356-3.623-3.1836-1.1328 1.5234-2.2754 2.5-0.36133 0.3125-0.84961 0.68359zm8.2422 8.3984q-0.44922 1.1719-1.2793 2.6953h5.5762v1.7383h-18.74v-1.7383h5.2246q-0.67383-1.6602-1.2109-2.6953h-1.5332v-5.3223h13.74v5.3223zm-2.3242 0h-5.7812q0.5957 1.2891 1.0059 2.5684l0.0293 0.12695h3.6426l0.0684-0.14648q0.70313-1.5137 1.0352-2.5488zm-7.4414-3.7793v2.2559h9.3262v-2.2559z"/>
 </g>
</svg>
