<svg version="1.1" xmlns="http://www.w3.org/2000/svg" xmlns:xlink="http://www.w3.org/1999/xlink" width="208" height="32" viewBox="0,0,208,32"><g transform="translate(-240,-164)"><g data-paper-data="{&quot;isPaintingLayer&quot;:true}" fill-rule="nonzero" stroke="none" stroke-linecap="butt" stroke-linejoin="miter" stroke-miterlimit="10" stroke-dasharray="" stroke-dashoffset="0" style="mix-blend-mode: normal"><path d="M240,196v-32h208v32z" fill="none" stroke-width="0"/><path d="M253.2,183.15c1.6146,1.4388 3.78907,2.6009 6.5234,3.4863l-1.2598,1.8359c-1.57553,-0.55989 -2.94923,-1.23696 -4.1211,-2.0312c-1.21093,-0.8268 -2.32747,-1.84243 -3.3496,-3.0469v6.1035h-2.1191v-5.9961c-0.90493,1.26953 -2.07357,2.40887 -3.5059,3.418c-1.10027,0.77473 -2.27867,1.39973 -3.5352,1.875l-1.3379,-1.7188c2.0638,-0.6836 3.7858,-1.60483 5.166,-2.7637c0.39063,-0.32553 0.78776,-0.71289 1.1914,-1.1621h-4.6973v-7.998h6.7188v-1.3184h-8.0957v-1.7578h8.0957v-1.582h2.1191v1.582h8.2227v1.7578h-8.2227v1.3184h6.8457v7.998zM248.8738,176.7926h-4.5996v1.582h4.5996zM250.9929,176.7926v1.582h4.7266v-1.582zM248.8738,179.8981h-4.5996v1.6113h4.5996zM250.9929,179.8981v1.6113h4.7266v-1.6113z" fill="#ffffff" stroke-width="1"/><path d="M271.02,172.46h8.0566v1.8555h-18.154v-1.8555h7.9394v-1.9629h2.1582zM277.0454,175.9561v6.377h-5.7617v5.4883c0,0.55989 -0.1237,0.96679 -0.3711,1.2207c-0.29297,0.30599 -0.87563,0.45898 -1.748,0.45898c-0.93747,0 -1.8717,-0.04883 -2.8027,-0.14648l-0.43945,-2.002c0.8984,0.13671 1.8001,0.20507 2.7051,0.20507c0.25391,0 0.4069,-0.06185 0.45898,-0.18554c0.02607,-0.0586 0.0391,-0.14324 0.0391,-0.25391v-4.7852h-6.1621v-6.377zM265.1994,177.7139v2.8613h9.6094v-2.8613zM277.5434,188.6809c-1.17187,-1.71873 -2.4707,-3.27473 -3.8965,-4.668l1.5723,-1.2402c1.3932,1.25 2.74087,2.7181 4.043,4.4043zM260.4634,187.2942c1.62107,-1.12627 2.89387,-2.54553 3.8184,-4.2578l1.9043,0.99609c-0.944,1.862 -2.33723,3.4896 -4.1797,4.8828z" fill="#ffffff" stroke-width="1"/><path d="M287.19,176.3c1.0742,-1.36067 1.99867,-2.92643 2.7734,-4.6973l1.7188,0.87891c-0.83987,1.52993 -1.61787,2.80273 -2.334,3.8184h2.0508v1.7578h-3.8281c-0.03253,0.03253 -0.0651,0.0716 -0.0977,0.11719c-0.32552,0.41667 -0.86915,0.99283 -1.6309,1.7285h4.4629v9.3359h-1.9043v-0.74219h-3.8965v1.0059h-1.9629v-6.8652c-0.44922,0.3125 -0.91145,0.61523 -1.3867,0.9082l-0.97656,-1.6797c0.69013,-0.35807 1.42907,-0.82681 2.2168,-1.4062c1.14587,-0.84633 2.0736,-1.6471 2.7832,-2.4023h-4.6777v-1.7578h3.8965v-1.9434h-2.8027v-1.7188h2.8027v-2.1387h1.9434v2.1387h2.1387v1.7188h-2.1387v1.9434zM284.5044,181.4855v1.8555h3.8965v-1.8555zM284.5044,184.923v1.9531h3.8965v-1.9531zM296.8774,178.1945c1.62107,1.9336 2.4316,3.84767 2.4316,5.7422c0,0.97653 -0.19206,1.6992 -0.57617,2.168c-0.36459,0.44921 -0.96679,0.67382 -1.8066,0.67382c-0.69013,0 -1.39327,-0.04557 -2.1094,-0.13672l-0.43945,-2.041c0.74867,0.14974 1.38993,0.22461 1.9238,0.22461c0.39713,0 0.64778,-0.08464 0.75195,-0.25391c0.09766,-0.14974 0.14649,-0.41992 0.14649,-0.81054c0,-1.30207 -0.4655,-2.65297 -1.3965,-4.0527c-0.26041,-0.39713 -0.60221,-0.82683 -1.0254,-1.2891c0.69013,-1.49087 1.25653,-3.17057 1.6992,-5.0391h-2.4805v16.123h-2.002v-18.066h5.7422l1.1328,0.98632c-0.59896,2.2526 -1.26303,4.17643 -1.9922,5.7715z" fill="#ffffff" stroke-width="1"/><path d="M301.74,188.1v-2.207c0.61849,-1.9206 2.30469,-3.79887 5.0586,-5.6348l0.53711,-0.36133c1.18493,-0.78773 1.99873,-1.43227 2.4414,-1.9336c0.49479,-0.55989 0.74219,-1.16536 0.74219,-1.8164c0,-0.58594 -0.17904,-1.09374 -0.53711,-1.5234c-0.53385,-0.64453 -1.33139,-0.9668 -2.3926,-0.9668c-1.582,0 -3.00453,0.6608 -4.2676,1.9824l-1.6797,-1.543c0.44271,-0.54037 0.97005,-0.9961 1.582,-1.3672c1.3086,-0.79427 2.76693,-1.1914 4.375,-1.1914c1.25,0 2.334,0.23763 3.252,0.71289c0.79427,0.41667 1.40623,0.98307 1.8359,1.6992c0.39713,0.67707 0.5957,1.4095 0.5957,2.1973c0,1.03513 -0.39387,1.99217 -1.1816,2.8711c-0.52735,0.59245 -1.51368,1.38021 -2.959,2.3633l-0.625,0.41992c-1.52993,1.03513 -2.53903,1.80337 -3.0273,2.3047c-0.59896,0.61198 -0.99609,1.16211 -1.1914,1.6504h9.1406v2.3438z" fill="#ffffff" stroke-width="1"/><path d="M319.89,178.55h1.3574c1.14587,0 2.0671,-0.20508 2.7637,-0.61524c0.85287,-0.5013 1.2793,-1.18813 1.2793,-2.0605c0,-0.72267 -0.3125,-1.2956 -0.9375,-1.7188c-0.55339,-0.37109 -1.24349,-0.55664 -2.0703,-0.55664c-1.4974,0 -2.9362,0.57293 -4.3164,1.7188l-1.416,-1.748c1.6732,-1.34113 3.6426,-2.0117 5.9082,-2.0117c1.51693,0 2.76367,0.3125 3.7402,0.9375c1.1784,0.76173 1.7676,1.8392 1.7676,3.2324c0,1.06773 -0.4069,1.98243 -1.2207,2.7441c-0.63151,0.58594 -1.46485,0.95377 -2.5,1.1035v0.0781c1.34113,0.22135 2.36653,0.66405 3.0762,1.3281c0.73567,0.69013 1.1035,1.61137 1.1035,2.7637c0,1.67967 -0.68033,2.93617 -2.041,3.7695c-1.02213,0.625 -2.36327,0.9375 -4.0234,0.9375c-2.6172,0 -4.7396,-0.80077 -6.3672,-2.4023l1.4746,-1.7578c0.52083,0.55339 1.1914,1.00912 2.0117,1.3672c0.99607,0.4362 1.96287,0.6543 2.9004,0.6543c1.05467,0 1.87823,-0.22135 2.4707,-0.66406c0.57291,-0.42318 0.85937,-1.07098 0.85937,-1.9434c0,-1.19793 -0.57617,-2.04753 -1.7285,-2.5488c-0.77473,-0.33854 -1.70573,-0.50781 -2.793,-0.50781h-1.2988z" fill="#ffffff" stroke-width="1"/><path d="M334.35,173.54v12.568h15v2.0215h-15v1.3672h-2.2363v-17.9h16.719v1.9434zM340.2387,179.9658c-1.35413,-1.1068 -2.91013,-2.23637 -4.668,-3.3887l1.3672,-1.5234c1.63413,1.03513 3.19337,2.12887 4.6777,3.2812c0.931,-1.237 1.79687,-2.66277 2.5976,-4.2773l2.0215,0.97656c-0.944,1.83593 -1.91407,3.39517 -2.9102,4.6777c1.21093,0.99607 2.58137,2.21677 4.1113,3.6621l-1.582,1.6602c-1.44533,-1.4258 -2.7572,-2.6465 -3.9356,-3.6621c-0.43619,0.44922 -0.77473,0.78775 -1.0156,1.0156c-1.28907,1.1914 -2.806,2.2526 -4.5508,3.1836l-1.3379,-1.7188c0.7682,-0.40365 1.39647,-0.76498 1.8848,-1.084c1.10027,-0.72267 2.21353,-1.6569 3.3398,-2.8027z" fill="#ffffff" stroke-width="1"/></g></g></svg>