<?xml version="1.0" encoding="UTF-8"?>
<svg width="480" height="360" version="1.1" viewBox="0 0 480 360" xmlns="http://www.w3.org/2000/svg">
 <g dominant-baseline="central" fill="#fff" aria-label="択捉島南東沖">
  <path d="m254.49 179.59q1.0742 5.1367 5.2441 7.959l-1.416 1.9629q-3.5742-2.7246-5.0684-6.9629-0.49804-1.4356-0.78125-2.959h-2.207q0 0.0684 0 0.16602-0.0879 3.3789-1.0156 5.9863-0.71289 2.0215-2.168 3.8867l-1.4356-1.7188q2.5586-3.5352 2.5586-9.1992v-7.3926h10.059v8.2715zm1.6699-6.4355h-5.8789v4.5801h5.8789zm-13.154 0.94726v-3.6035h2.0606v3.6035h2.0312v1.9434h-2.0312v3.1738q1.0352-0.35156 1.9531-0.71289l0.19532 1.8359q-1.2305 0.53711-2.1484 0.8789v6.4356q0 0.9668-0.42969 1.377-0.40039 0.38086-1.4062 0.38086-1.0644 0-2.0508-0.17578l-0.38086-2.0801q0.98633 0.18555 1.6699 0.18555 0.3125 0 0.41992-0.0977 0.11719-0.0977 0.11719-0.41015v-4.9121q-1.1035 0.34179-2.1875 0.63476l-0.57617-1.9922q1.9531-0.47852 2.7637-0.71289v-3.8086h-2.4609v-1.9434z" dominant-baseline="central"/>
  <path d="m273.91 186.78q1.0254 0.25391 2.3926 0.25391h3.4863q-0.41016 0.9668-0.60547 2.002h-2.9004q-3.0469 0-4.8242-1.1035-1.3477-0.83985-2.2363-2.4414-0.68359 2.3047-1.875 4.0625l-1.5039-1.3965q2.0117-3.3789 2.4414-8.1543l1.8848 0.2832q-0.17579 1.6309-0.41016 2.9297 0.69336 1.6992 2.168 2.7246v-7.3828h-4.2774v-7.1387h10.439v7.1387h-4.1797v2.627h4.6191v1.8555h-4.6191zm-4.2188-13.584v3.584h6.3574v-3.584zm-6.543 0.9082v-3.6035h2.041v3.6035h2.002v1.9434h-2.002v3.0371q0.97656-0.3418 1.7773-0.63476l0.20508 1.8164q-1.0156 0.42969-1.9824 0.80078v6.6309q0 1.0254-0.47852 1.4062-0.40039 0.3125-1.3477 0.3125-1.0254 0-2.0801-0.15625l-0.40039-2.0996q1.2988 0.18555 1.748 0.18555 0.33203 0 0.42969-0.11719 0.0879-0.10742 0.0879-0.41015v-5.0195q-1.123 0.3711-2.2656 0.6836l-0.59571-2.002q1.709-0.41993 2.8613-0.76172v-3.6719h-2.5781v-1.9434z" dominant-baseline="central"/>
  <path d="m287.74 171.98q0.36133-0.86914 0.58594-1.6602l2.3828 0.32226q-0.3418 0.81055-0.625 1.3379h6.5039v6.3672h-11.797v0.98633h14.697v1.582h-14.697v0.99609h14.014q-0.12695 4.4727-0.5664 6.0352-0.28321 0.99609-1.0645 1.3184-0.55664 0.23437-1.6992 0.23437-1.1719 0-2.1875-0.14648l-0.39063-1.6406h-9.7852v1.084h-2.0996v-4.6973h2.0996v2.0117h3.3594v-2.6367h-3.8379v-11.494zm4.1504 14.131v-2.0117h2.0215v3.3984q0.81054 0.0781 1.3476 0.0781 0.66406 0 0.83008-0.38085 0.32227-0.7129 0.50781-3.7207h-8.0273v2.6367zm-7.0996-12.627v0.96679h9.6387v-0.96679zm0 2.3633v1.0644h9.6387v-1.0644z" dominant-baseline="central"/>
  <path d="m308.92 182.24h-4.043v-1.6016h1.9531q-0.43945-0.9961-0.99609-1.8555l1.7578-0.64453q0.76172 1.2793 1.2305 2.5h2.2949q0.57617-1.1816 1.0156-2.5391l1.9629 0.61524q-0.49805 1.0742-1.0547 1.9238h2.0996v1.6016h-4.1797v1.4258h4.4531v1.6602h-4.4531v3.6914h-2.041v-3.6914h-4.2871v-1.6602h4.2871zm2.0996-6.0156h7.4024v11.416q0 1.0059-0.53711 1.416-0.44922 0.35157-1.5137 0.35157-1.377 0-2.6562-0.14649l-0.47852-1.9629q1.709 0.20508 2.5586 0.20508 0.35156 0 0.41015-0.17578 0.0391-0.10742 0.0391-0.30274v-9.1016h-12.48v11.582h-2.1777v-13.281h7.2754v-1.7676h-8.3594v-1.8164h8.3594v-2.1387h2.1582v2.1387h8.4766v1.8164h-8.4766z" dominant-baseline="central"/>
  <path d="m333.2 183.15q2.4219 2.1582 6.5234 3.4863l-1.2598 1.8359q-2.3633-0.83984-4.1211-2.0312-1.8164-1.2402-3.3496-3.0469v6.1035h-2.1191v-5.9961q-1.3574 1.9043-3.5059 3.418-1.6504 1.1621-3.5352 1.875l-1.3379-1.7188q3.0957-1.0254 5.166-2.7637 0.58594-0.48829 1.1914-1.1621h-4.6973v-7.998h6.7188v-1.3184h-8.0957v-1.7578h8.0957v-1.582h2.1191v1.582h8.2227v1.7578h-8.2227v1.3184h6.8457v7.998zm-4.3262-6.3574h-4.5996v1.582h4.5996zm2.1191 0v1.582h4.7266v-1.582zm-2.1191 3.1055h-4.5996v1.6113h4.5996zm2.1191 0v1.6113h4.7266v-1.6113z" dominant-baseline="central"/>
  <path d="m351.58 174.14v-3.6426h2.0996v3.6426h5.293v8.8379h-5.293v6.5234h-2.0996v-6.5234h-5.1856v-8.8379zm-3.1641 1.9434v4.9707h3.1641v-4.9707zm8.4766 4.9707v-4.9707h-3.2129v4.9707zm-12.5-5.7812q-1.1914-1.6602-3.1543-3.1738l1.4551-1.4844q1.9531 1.377 3.3008 3.0859zm-0.63476 5.0195q-1.6992-1.9727-3.3008-3.2324l1.5039-1.5039q1.709 1.2012 3.3789 3.1055zm-3.0371 7.5684q1.875-2.666 3.457-6.6406l1.7383 1.3379q-1.3379 3.6621-3.2617 6.8945z" dominant-baseline="central"/>
 </g>
</svg>
