<?xml version="1.0" encoding="UTF-8"?>
<svg width="480" height="360" version="1.1" viewBox="0 0 480 360" xmlns="http://www.w3.org/2000/svg">
 <g fill="#fff" aria-label="香川県">
  <path d="m252.96 176.19q2.5195 2.1973 6.7676 3.4473l-1.2793 1.8066q-0.95703-0.34179-1.543-0.5957v8.6523h-2.1387v-0.88867h-9.6484v0.88867h-2.1191v-8.3594q-0.45899 0.23437-1.5039 0.68359l-1.1719-1.709q4.1602-1.4844 6.748-3.9258h-6.0938v-1.7774h7.9102v-1.5039l-0.38086 0.0293q-2.5781 0.19532-5.6836 0.3125l-0.83985-1.6797q8.584-0.22461 13.682-1.2598l1.377 1.543q-2.5684 0.50781-6.0352 0.85937v1.6992h7.959v1.7774zm-1.9531 0.40039v3.7695h-2.1191v-3.6426q-1.9141 2.3242-5.2246 4.082h13.115q-3.4863-1.5234-5.7715-4.209zm-5.8887 5.7715v1.5332h9.6484v-1.5332zm0 2.998v1.5918h9.6484v-1.5918z"/>
  <path d="m262.94 171.3h2.3438v6.6016q0 4.0918-0.45898 6.2598-0.42969 2.002-1.4551 3.584-0.36133 0.56641-0.99609 1.3184l-1.8555-1.582q1.7578-1.8652 2.1875-4.9512 0.23437-1.6504 0.23437-4.3066zm6.2012 0.30273h2.2754v15.898h-2.2754zm6.416-0.78125h2.3047v18.457h-2.3047z"/>
  <path d="m296.76 170.98v9.4629h-11.621v-9.4629zm-9.5215 1.543v1.2207h7.4023v-1.2207zm0 2.5977v1.2207h7.4023v-1.2207zm0 2.5976v1.2598h7.4023v-1.2598zm-3.9356 4.0234h16.191v1.6992h-8.0762v6.0644h-2.2168v-6.0644h-8.0371v-10.957h2.1387zm-2.5 5.8984q2.3242-1.0742 4.4434-3.6035l1.7969 1.0449q-2.0898 2.6465-4.6387 4.1602zm16.836 1.2598q-1.4941-1.8359-4.4922-3.8574l1.6797-1.1816q2.3535 1.3574 4.6191 3.5644z"/>
 </g>
</svg>
