<svg version="1.1" xmlns="http://www.w3.org/2000/svg" xmlns:xlink="http://www.w3.org/1999/xlink" width="159.86592" height="165.83498" viewBox="0,0,159.86592,165.83498"><g transform="translate(-159.46988,125.25159)"><g data-paper-data="{&quot;isPaintingLayer&quot;:true}" fill="none" fill-rule="evenodd" stroke="#d645ff" stroke-width="72" stroke-linecap="round" stroke-linejoin="round" stroke-miterlimit="4" stroke-dasharray="" stroke-dashoffset="0" style="mix-blend-mode: normal"><g><path d="M195.73984,4.58339l0.52992,-2.97952l8.87858,-2.69957l-0.80987,-0.84986l2.88954,-1.50976l1.01984,-2.87954l-2.21964,1.54975l-1.57975,-1.03983l0.88986,-1.13982l-1.52976,-0.99984l-2.19965,1.2298l-0.87986,-2.27964l4.86922,-0.97984l2.43961,-2.5296l-0.77988,-1.01984l4.64926,-2.4696l1.03983,-3.05951l2.59958,2.20965l-1.31979,1.74972l1.00984,2.26964l4.10934,0.65989l-0.42993,1.63974l-2.00968,-0.45993l2.21964,2.07967l1.96968,0.29995l2.09966,-2.14966l3.31947,0.36994l2.67957,-1.2198l1.95969,0.93985l2.76956,-6.11902l-1.58975,-0.46992l2.94953,-1.20981l-0.24996,-2.70957l-2.38962,0.16997l-1.43977,1.64974l-3.33947,1.36978l0.09998,1.68973l-3.51944,-1.78971l4.11934,-1.2198l3.23948,-2.15965l1.82971,-3.19949l2.67957,-1.12982l2.11966,-3.20949l0.50992,-2.63958l-0.99984,-1.97968l-1.07983,0.41993l-0.6299,-3.67941l1.50976,0.69989l1.65973,-1.53975l0.6199,-3.24948l3.95937,-1.64974l0.27996,-2.98952l3.90937,-0.44993l0.6299,1.35978l2.12966,0.29995l3.86938,-0.6499l3.34946,-2.14966l-0.09998,-1.57975l2.5196,-2.42961l2.63958,-0.54991l3.87938,0.83987l0.74988,-0.91985l4.72924,0.96984l1.11982,1.03983l-0.42993,2.4996l-1.8497,1.41977l-4.58927,1.97968l4.73924,-1.39978l2.54959,-2.16965l0.19997,-2.03967l3.01952,-1.07983l3.27948,3.30947v1.62974l2.72956,-0.87986"/><path d="M195.46988,-43.96884v0"/><path d="M235.78343,-48.86806l0.84986,0.51992l-1.8997,2.86954l-2.32963,-1.36978l0.28995,-1.46976l3.08951,-0.54991"/><path d="M272.71752,-52.9574l2.33963,-0.12998l1.2698,1.2798l-2.26964,1.05983l-3.81939,-0.55991l-0.66989,-1.32979l3.1495,-0.31995"/><path d="M203.06866,-89.25159v0"/></g></g></g></svg>