<?xml version="1.0" encoding="UTF-8"?>
<svg width="480" height="360" version="1.1" viewBox="0 0 480 360" xmlns="http://www.w3.org/2000/svg">
 <g dominant-baseline="central" fill="#fff" aria-label="遠州灘">
  <path d="m256.43 183.6 0.13672 0.0684q1.0156 0.46875 2.1973 1.1035l-1.2793 1.5234q-2.0801-1.25-4.2969-2.3438v2.9394h-2.041v-3.9453q-1.8555 1.4648-4.1895 2.4414l-1.2598-1.4551q3.0273-1.1133 5.4102-2.8418h-3.9062v-4.0723h10.127v4.0723h-0.0781l1.2207 0.78125q-1.0352 0.9668-2.041 1.7285zm-1.6602-0.72266q0.11719-0.0977 0.33204-0.29297 0.75195-0.68359 1.4355-1.4941h-2.8809q-0.12695 0.10742-0.35156 0.29297l-0.11719 0.0977v0.80079q0.59571 0.20507 1.582 0.5957zm-5.5664-4.5215v1.416h6.1035v-1.416zm-4.1602 6.8457q0.76172 0.80078 1.7383 1.2793 0.66407 0.32227 1.9141 0.54688 1.2695 0.21484 2.5684 0.21484h8.5547q-0.37109 0.71289-0.63476 1.8555h-7.9785q-3.3008 0-5.0195-0.86914-1.0156-0.51758-1.9434-1.5234-1.377 1.7285-2.7832 2.8516l-1.0938-1.9727q1.2598-0.79102 2.6367-1.9434v-5.0586h-2.5v-1.9238h4.541zm6.1035-13.369v-1.3379h2.041v1.3379h4.7754v1.4844h-4.7754v1.1133h5.8398v1.5625h-13.32v-1.5625h5.4395v-1.1133h-4.3457v-1.4844zm-7.3828 3.8574q-1.2988-2.2363-2.9004-3.8965l1.6211-1.1816q1.5137 1.4746 2.9785 3.7207z" dominant-baseline="central"/>
  <path d="m260.46 182.12q0.72266-1.4844 1.0547-3.3691 0.20508-1.1426 0.3418-2.9492l1.7676 0.29297q-0.24414 4.4824-1.4453 7.0801zm7.5 0.53711q-0.50781-3.6035-1.3184-6.1426l1.543-0.8789q0.97657 2.5 1.5137 5.9863zm1.9043-10.977h2.1582v16.455h-2.1582zm4.1309 10.742q-0.71289-3.8672-1.6309-6.0449l1.6309-0.8789q1.2012 2.8809 1.748 5.8008zm1.9238-11.426h2.1777v18.506h-2.1777zm-11.699 0.13672h2.1777v8.8379q0 3.7402-0.8789 6.0449-0.6543 1.7188-2.1582 3.3984l-1.8848-1.4258q2.7441-2.8613 2.7441-8.0371z" dominant-baseline="central"/>
  <path d="m289.3 175.71v0.88867h2.6562v1.2012q1.3965-3.4473 1.8848-7.3926l1.7773 0.26367q-0.36132 2.0605-0.69336 3.3594h1.0156q0.45898-1.7285 0.71289-3.5156l1.709 0.3125q-0.36132 1.7188-0.86914 3.2031h2.0312v1.7578h-1.9043v2.4902h1.5625v1.6992h-1.5625v2.4316h1.5625v1.7285h-1.5625v2.6172h2.0996v1.7969h-4.8145v0.9375h-1.6602v-10.82q-0.21485 0.51758-0.60547 1.3086l-0.6836-1.9629v2.3438h-2.6562v0.9375h2.793v1.416h-2.793q-0.0195 0.67383-0.0391 0.98633h3.3984v1.416h-3.584q-0.0195 0.10742-0.0684 0.3125 1.8066 1.0644 3.5156 2.4902l-1.1621 1.4551q-1.3281-1.2891-2.8516-2.4219l-0.10742-0.0879q-1.1328 1.8848-3.252 2.9102l-1.2402-1.5625q1.8262-0.64453 2.6856-1.8555 0.34179-0.46875 0.57617-1.2402h-2.9297v-1.416h3.2324q0.0684-0.67383 0.0781-0.98633h-2.7832v-1.416h2.793v-0.9375h-2.6562v-3.7598h2.6367v-0.88867h-1.6602v-2.1777h-0.97657l-1.5039 1.416q-0.9375-1.4746-2.6172-3.1348l1.4844-1.2598q1.2109 1.0059 2.373 2.5586v-1.0644h1.2402v-1.6797h1.6992v1.6797h1.7188v-1.6797h1.6797v1.6797h1.6211v1.4844h-1.6211v2.1777zm-1.6602 2.1289h-1.2598v1.2988h1.2598zm1.5625 0v1.2988h1.3184v-1.2988zm-1.6211-4.3066v0.97656h1.7188v-0.97656zm7.3242 2.2559v2.4902h1.1719v-2.4902zm0 4.1894v2.4316h1.1719v-2.4316zm0 4.1602v2.6172h1.1719v-2.6172zm-12.246-4.3652q-1.4356-1.9922-2.5586-3.1152l1.5234-1.2793q1.4648 1.3086 2.6367 3.0176zm-2.3633 8.418q1.377-2.9394 2.3438-7.1777l1.7578 0.87891q-0.75195 3.8965-2.2168 7.6856z" dominant-baseline="central"/>
 </g>
</svg>
