<svg version="1.1" xmlns="http://www.w3.org/2000/svg" xmlns:xlink="http://www.w3.org/1999/xlink" width="65.36529" height="174.3079" viewBox="0,0,65.36529,174.3079"><g transform="translate(-653.50146,104.08077)"><g data-paper-data="{&quot;isPaintingLayer&quot;:true}" fill="none" fill-rule="evenodd" stroke="#fc3324" stroke-width="36" stroke-linecap="round" stroke-linejoin="round" stroke-miterlimit="4" stroke-dasharray="" stroke-dashoffset="0" style="mix-blend-mode: normal"><path d="M700.86675,52.22713l-2.66957,-1.94969l-4.54927,-6.8689l-3.91937,-6.58894l0.18997,-0.43993l-3.45945,-5.93905l-0.78987,-0.53992l-2.27963,1.70973l-0.82987,-0.89986l3.20948,-2.30963l-1.60974,-3.28947l-1.98968,-2.02968l-5.41913,-12.478l-3.1395,-9.55847l-1.50976,-7.40882l-0.5999,-6.67893l0.40993,-2.91953l3.03951,-2.82955l0.37994,-2.80955l2.44961,-2.22965l0.6199,-2.16966l-1.12982,-1.1998l-0.70988,-3.90938l1.8297,-1.60975l-1.63973,-1.45976l0.35994,-5.0392l1.8797,-3.20949l0.54991,-3.62942l1.40977,-4.28931l2.73956,-5.23916l1.17981,-3.19948l2.45961,-2.61958l0.01999,-4.01936l1.2498,-2.68957l0.04999,-2.91953l1.66973,-5.17918l2.19965,-4.72924l3.71941,-1.60975l-1.21981,-3.52944"/></g></g></svg>