<?xml version="1.0" encoding="UTF-8"?>
<svg width="480" height="360" version="1.1" viewBox="0 0 480 360" xmlns="http://www.w3.org/2000/svg">
 <g dominant-baseline="central" fill="#fff" aria-label="シベリア付近">
  <path d="m248.58 175.67q-2.8809-1.2891-5.8789-2.1582l0.63476-1.9336q3.3789 0.83984 5.9277 2.0508zm-2.002 5q-2.4023-1.0547-5.8789-2.1582l0.83985-1.9531q2.9883 0.79102 5.8008 2.0996zm-4.6191 5.3809q3.9941-0.33203 6.2598-1.2109 3.3496-1.2793 5.2637-4.5703 1.2793-2.1973 2.0215-5.5566l1.9727 1.1426q-0.94727 4.209-2.6465 6.709-1.9922 2.9199-5.5566 4.3164-2.5098 0.96679-6.6894 1.3574z" dominant-baseline="central"/>
  <path d="m258.6 184.06q3.5254-4.5606 5.918-10.361h2.4024q3.5644 6.123 9.5801 12.119l-1.377 1.9141q-4.9219-4.834-9.3262-11.719h-0.0781q-2.6465 5.9766-5.3809 9.5996zm13.34-6.8652q-0.625-1.6309-2.002-3.6035l1.543-0.55664q1.2207 1.6992 2.0215 3.5254zm2.8027-0.85938q-0.83007-2.0117-1.9629-3.623l1.4356-0.47851q1.1426 1.3672 1.9824 3.3984z" dominant-baseline="central"/>
  <path d="m279.62 171.32h2.2754v10.684h-2.2754zm10.029-0.20508h2.2754v6.9824q0 3.6816-0.59571 5.4785-0.49804 1.5332-1.3574 2.4414-1.7871 1.9238-5.7422 2.8418l-1.123-2.002q4.3262-0.87891 5.5469-2.9199 0.77149-1.2988 0.92774-3.2812 0.0684-0.91797 0.0684-2.5391z" dominant-baseline="central"/>
  <path d="m295.37 172.5h15.303l1.2598 1.0644q-0.54687 2.041-1.4258 3.4082-1.6504 2.5879-4.9414 3.8672l-1.2305-1.6797q2.2754-0.6836 3.7793-2.4512 0.88868-1.0449 1.2402-2.207h-13.984zm6.2598 4.2188h2.2363v1.6797q0 3.7793-0.83985 5.8398-1.0644 2.6172-4.1406 4.2578l-1.6113-1.6992q2.1191-1.0058 3.0957-2.4023 0.75196-1.084 0.98633-2.2949 0.27344-1.3867 0.27344-3.7207z" dominant-baseline="central"/>
  <path d="m318.25 175.96v13.545h-2.1191v-10.029q-0.79101 1.1133-1.8359 2.3047l-1.1035-2.0996q1.9824-2.1973 3.3984-5.1172 0.85937-1.7676 1.7188-4.2188l2.041 0.55664q-0.88867 2.6758-2.0996 5.0586zm11.123-0.85937h2.9394v1.9629h-2.9394v10.254q0 1.2891-0.625 1.7188-0.45898 0.32227-1.7285 0.32227-1.5527 0-3.1836-0.17578l-0.41992-2.1387q1.7383 0.2539 3.2422 0.2539 0.41015 0 0.49804-0.17578 0.0586-0.12695 0.0586-0.41992v-9.6387h-7.9883v-1.9629h7.9883v-4.2578h2.1582zm-6.1816 9.4629q-1.1035-2.9395-2.7246-5.3613l1.8652-1.084q1.7578 2.5879 2.8223 5.3027z" dominant-baseline="central"/>
  <path d="m338.33 185.06q0.78125 0.90821 1.7578 1.3477 1.6016 0.72266 4.1992 0.72266h8.3203q-0.35156 0.66406-0.6543 1.9043h-7.7637q-3.3594 0-5.1465-1.0547-0.73242-0.43946-1.6113-1.4356-0.0684 0.0781-0.16602 0.19531-1.4355 1.6992-2.8516 2.7734l-1.1816-2.002q1.5527-0.92774 2.998-2.0996v-4.8242h-2.8418v-1.9238h4.9414zm2.5391-12.959 0.51758-0.0391q4.5215-0.3125 8.125-1.3379l1.5234 1.7188q-3.7891 0.99609-8.0859 1.3476v2.5293h9.043v1.9043h-3.2812v7.959h-2.1582v-7.959h-3.6035q-0.0488 3.1348-0.46875 4.9902-0.38086 1.709-1.25 3.0664l-1.7969-1.3574q0.9668-1.5039 1.2402-3.7305 0.19531-1.5332 0.19531-4.1699zm-3.6133 3.8184q-1.4941-2.1094-3.2227-3.7793l1.6016-1.2793q1.6797 1.4062 3.3789 3.5742z" dominant-baseline="central"/>
 </g>
</svg>
