<svg version="1.1" xmlns="http://www.w3.org/2000/svg" xmlns:xlink="http://www.w3.org/1999/xlink" width="208" height="32" viewBox="0,0,208,32"><g transform="translate(-240,-164)"><g data-paper-data="{&quot;isPaintingLayer&quot;:true}" fill-rule="nonzero" stroke="none" stroke-linecap="butt" stroke-linejoin="miter" stroke-miterlimit="10" stroke-dasharray="" stroke-dashoffset="0" style="mix-blend-mode: normal"><path d="M240,196v-32h208v32z" fill="none" stroke-width="0"/><path d="M251.58,174.14v-3.6426h2.0996v3.6426h5.293v8.8379h-5.293v6.5234h-2.0996v-6.5234h-5.1856v-8.8379zM248.4159,176.0834v4.9707h3.1641v-4.9707zM256.8925,181.0541v-4.9707h-3.2129v4.9707zM244.3925,175.2729c-0.79427,-1.1068 -1.8457,-2.16473 -3.1543,-3.1738l1.4551,-1.4844c1.30207,0.918 2.40233,1.94663 3.3008,3.0859zM243.75774,180.2924c-1.1328,-1.31513 -2.23307,-2.3926 -3.3008,-3.2324l1.5039,-1.5039c1.13933,0.8008 2.26563,1.83597 3.3789,3.1055zM240.72064,187.8608c1.25,-1.77733 2.40233,-3.99087 3.457,-6.6406l1.7383,1.3379c-0.89193,2.4414 -1.97917,4.73957 -3.2617,6.8945z" fill="#ffffff" stroke-width="1"/><path d="M262.95,177.73c-0.6836,-1.0872 -1.53973,-2.18093 -2.5684,-3.2812l1.1426,-1.416c0.15625,0.16927 0.29622,0.32227 0.41992,0.45898l0.0977,0.10743c0.61849,-0.95053 1.17839,-2.02477 1.6797,-3.2227l1.7188,0.87891c-0.65104,1.2044 -1.44204,2.40557 -2.373,3.6035c0.35156,0.46224 0.68033,0.93097 0.98632,1.4062c0.96353,-1.36067 1.76757,-2.5651 2.4121,-3.6133l1.4941,1.0547c-1.24347,1.88153 -2.6367,3.68167 -4.1797,5.4004c0.98307,-0.0586 1.77407,-0.1237 2.373,-0.19531c-0.14974,-0.51433 -0.3125,-0.99609 -0.48828,-1.4453l1.4746,-0.53711c0.49479,1.25 0.85613,2.48373 1.084,3.7012v-1.6992h4.3359v-1.1035h-3.8184v-6.4746h9.5606v6.4746h-3.9844v1.1035h4.5508v6.6211h-4.5508v1.2402c0,0.34505 0.09765,0.55013 0.29296,0.61524c0.18881,0.06513 0.67057,0.0977 1.4453,0.0977c0.91147,0 1.47137,-0.0944 1.6797,-0.28321c0.15625,-0.13672 0.23764,-0.66082 0.24415,-1.5723l1.8066,0.51757c-0.06513,1.28253 -0.2279,2.09633 -0.48829,2.4414c-0.22135,0.28646 -0.61849,0.47526 -1.1914,0.56641c-0.58594,0.09115 -1.34114,0.13672 -2.2656,0.13672c-1.4844,0 -2.40563,-0.11719 -2.7637,-0.35157c-0.34505,-0.22135 -0.51758,-0.68359 -0.51758,-1.3867v-2.0215h-4.3359v-4.6875l-1.5039,0.64453c-0.06513,-0.41667 -0.13349,-0.79427 -0.20508,-1.1328c-0.13021,0.01953 -0.38086,0.0586 -0.75195,0.11719c-0.19531,0.03253 -0.34831,0.05533 -0.45899,0.0684v8.9355h-1.9043v-8.6816c-0.07161,0.00667 -0.17578,0.01643 -0.3125,0.0293c-0.59896,0.07161 -1.37369,0.14648 -2.3242,0.22461l-0.38086,-1.7774c0.26041,-0.013 0.52408,-0.02603 0.79101,-0.0391l0.58594,-0.0293c0.45573,-0.54688 0.85287,-1.04495 1.1914,-1.4942zM272.5594,172.7495h-2.0801v1.1816h2.0801zM274.3172,172.7495v1.1816h2.168v-1.1816zM272.5594,175.23h-2.0801v1.2402h2.0801zM274.3172,175.23v1.2402h2.168v-1.2402zM272.5594,180.2691h-2.4609v1.2402h2.4609zM274.3172,180.2691v1.2402h2.6465v-1.2402zM272.5594,182.8277h-2.4609v1.3086h2.4609zM274.3172,182.8277v1.3086h2.6465v-1.3086zM260.3032,187.0757c0.38412,-1.27607 0.6185,-2.9753 0.70313,-5.0977l1.7773,0.25391c-0.0586,2.29167 -0.29297,4.1927 -0.70312,5.7031zM266.4067,186.67531c-0.20833,-1.63413 -0.46224,-3.11527 -0.76172,-4.4434l1.4551,-0.41992c0.37761,1.26953 0.68685,2.64323 0.92773,4.1211z" fill="#ffffff" stroke-width="1"/><path d="M296.76,170.98v9.4629h-11.621v-9.4629zM287.2385,172.523v1.2207h7.4023v-1.2207zM287.2385,175.1207v1.2207h7.4023v-1.2207zM287.2385,177.7183v1.2598h7.4023v-1.2598zM283.3029,181.7417h16.191v1.6992h-8.0762v6.0644h-2.2168v-6.0644h-8.0371v-10.957h2.1387zM280.8029,187.6401c1.54947,-0.71613 3.0306,-1.9173 4.4434,-3.6035l1.7969,1.0449c-1.3932,1.76433 -2.93943,3.15107 -4.6387,4.1602zM297.6389,188.8999c-0.99607,-1.22393 -2.49347,-2.50973 -4.4922,-3.8574l1.6797,-1.1816c1.569,0.90493 3.1087,2.09307 4.6191,3.5644z" fill="#ffffff" stroke-width="1"/><path d="M313.48,178.96h-10c0.93747,-2.59767 1.6048,-5.44273 2.002,-8.5352l2.1973,0.23438c-0.09765,0.55338 -0.24088,1.33465 -0.42969,2.3438h9.9121v1.7969h-10.293c-0.21484,0.95707 -0.41015,1.75787 -0.58593,2.4024h9.4141c-0.03907,1.52993 -0.11394,3.00453 -0.22461,4.4238h4.0332v1.8164h-4.209c-0.26693,2.30467 -0.5599,3.8216 -0.87891,4.5508c-0.27343,0.61198 -0.68683,1.02538 -1.2402,1.2402c-0.46875,0.18229 -1.19465,0.27343 -2.1777,0.27343c-1.04167,0 -2.14843,-0.06185 -3.3203,-0.18554l-0.43945,-2.0996c1.4844,0.1888 2.70183,0.2832 3.6523,0.2832c0.65104,0 1.08397,-0.12044 1.2988,-0.36133c0.32552,-0.36458 0.61849,-1.59831 0.87891,-3.7012h-12.568v-1.8164h12.773l0.01,-0.0977c0.07813,-0.8724 0.14323,-1.72853 0.19531,-2.5684z" fill="#ffffff" stroke-width="1"/><path d="M325.55,182.4c-0.26041,1.22393 -0.59895,2.31117 -1.0156,3.2617c-0.59245,1.35413 -1.43555,2.5781 -2.5293,3.6719l-1.4648,-1.4356c1.35413,-1.31513 2.35023,-3.1478 2.9883,-5.498h-2.9102v-1.6602h3.2422c0.09115,-0.64453 0.17253,-1.64713 0.24414,-3.0078h-3.0273v-1.6797h3.0859l0.01,-0.50782c0.013,-0.50781 0.02603,-1.29231 0.0391,-2.3535h-2.793v-1.7383h9.0234v2.1973c-0.013,7.61733 -0.13995,12.23633 -0.38086,13.857c-0.09765,0.67707 -0.36783,1.14257 -0.81054,1.3965c-0.33855,0.19531 -0.86265,0.29297 -1.5723,0.29297c-0.80727,0 -1.59503,-0.06836 -2.3633,-0.20508l-0.19531,-2.0117c0.8724,0.19531 1.56577,0.29297 2.0801,0.29297c0.37109,0 0.60872,-0.07161 0.71289,-0.21484c0.16927,-0.24089 0.29622,-1.49415 0.38086,-3.7598l0.0391,-0.89844zM325.83321,180.7398h2.5586c0.00667,-0.27344 0.01317,-0.64777 0.0195,-1.123c0.013,-0.6966 0.02603,-1.32487 0.0391,-1.8848h-2.3828l-0.01,0.32227c-0.06513,1.12627 -0.14,2.02147 -0.22461,2.6856zM326.12618,176.0523h2.3438v-0.77149c0.00667,-0.56641 0.01,-1.12304 0.01,-1.6699v-0.41992h-2.3047zM336.95618,178.3472c1.6016,1.8294 2.4024,3.68813 2.4024,5.5762c0,0.82033 -0.13997,1.4909 -0.41992,2.0117c-0.33203,0.61849 -0.98307,0.92773 -1.9531,0.92773c-0.71613,0 -1.42577,-0.05534 -2.1289,-0.16601l-0.45899,-2.1387c0.90493,0.17578 1.55923,0.26367 1.9629,0.26367c0.41667,0 0.66406,-0.1237 0.74219,-0.3711c0.05207,-0.14973 0.0781,-0.37109 0.0781,-0.66406c0,-1.85547 -0.80077,-3.5905 -2.4023,-5.2051c0.76173,-1.75133 1.32813,-3.45707 1.6992,-5.1172h-2.5977v16.035h-2.0019v-17.939h5.957l1.0644,0.95703c-0.63802,2.49347 -1.28582,4.43683 -1.9434,5.8301z" fill="#ffffff" stroke-width="1"/><path d="M350.76,176.34v2.3242h4.2383v1.6406h-1.9043c0.59245,0.48177 1.24025,1.16864 1.9434,2.0606l-1.4941,0.99609c-0.47526,-0.71613 -1.14259,-1.46807 -2.002,-2.2558l1.4258,-0.80079h-2.207v3.0957h5v1.7188h-11.543v-1.7188h4.5215v-3.0957h-3.7793v-1.6406h3.7793v-2.3242h-4.3164v-1.6992h11.113v1.6992zM358.758,171.4181v18.086h-2.1582v-1.0254h-13.223v1.0254h-2.1387v-18.086zM343.377,173.215v13.408h13.223v-13.408z" fill="#ffffff" stroke-width="1"/><path d="M367.74,171.98c0.24089,-0.57943 0.4362,-1.13283 0.58594,-1.6602l2.3828,0.32226c-0.22787,0.54037 -0.4362,0.98633 -0.625,1.3379h6.5039v6.3672h-11.797v0.98633h14.697v1.582h-14.697v0.99609h14.014c-0.08463,2.9818 -0.27343,4.99353 -0.5664,6.0352c-0.18881,0.66406 -0.54364,1.10353 -1.0645,1.3184c-0.37109,0.15625 -0.93749,0.23437 -1.6992,0.23437c-0.78127,0 -1.51043,-0.04883 -2.1875,-0.14648l-0.39063,-1.6406h-9.7852v1.084h-2.0996v-4.6973h2.0996v2.0117h3.3594v-2.6367h-3.8379v-11.494zM371.8904,186.111v-2.0117h2.0215v3.3984c0.54036,0.05207 0.98956,0.0781 1.3476,0.0781c0.44271,0 0.7194,-0.12695 0.83008,-0.38085c0.21485,-0.47527 0.38412,-1.7155 0.50781,-3.7207h-8.0273v2.6367zM364.7908,173.484v0.96679h9.6387v-0.96679zM364.7908,175.8473v1.0644h9.6387v-1.0644z" fill="#ffffff" stroke-width="1"/></g></g></svg>