<?xml version="1.0" encoding="UTF-8"?>
<svg width="224" height="32" version="1.1" viewBox="0 0 224 32" xmlns="http://www.w3.org/2000/svg">
 <rect width="224" height="32" fill-opacity="0" stop-color="#000000" style="paint-order:markers stroke fill"/>
 <path d="m125.19 8.3301v15.404h1.832v-11.762c0.18186 0.45111 0.36423 0.90145 0.57032 1.5586l0.0488 0.15625 0.40821-0.4043v1.3496h10.73v-1.4512h-4.5625v-0.57227h3.4922v-1.3184h-3.4922v-0.54883h4.0469v-1.373h-4.0468v-1.0391h-1.8164v1.0391h-3.8516v1.373h3.8516v0.54883h-3.3906v1.3184h3.3906v0.57227h-4.25l0.71484-0.70898-0.0215-0.06055c-0.26793-0.73548-0.63036-1.4983-1.0859-2.2891l-0.0586-0.10352-0.67774 0.56445v-2.2539zm17.25 0v1.6328h-2.5469v1.5762h2.5469v1.1426h-3.2031v1.5918h1.1738c0.2129 0.55849 0.39295 1.1492 0.54687 1.7676h-1.4004v1.5605h2.8828v1.2441h-2.7578v1.5918h2.7578v3.2969h1.832v-3.2969h2.5703v-1.5918h-2.5703v-1.2441h2.6719v-1.5605h-1.4688c0.24506-0.61671 0.44982-1.2079 0.60351-1.7676h0.95899v-1.5918h-2.7656v-1.1426h2.4297v-1.5762h-2.4297v-1.6328zm-33.492 0.082031-1.3496 1.1836 0.0879 0.074219c0.98467 0.83956 1.7297 1.6421 2.2383 2.4023l0.0684 0.10156 0.0859-0.08594 1.2793-1.2793-0.0488-0.07031c-0.6262-0.86827-1.3928-1.6276-2.2969-2.2793zm-15.813 0.23828v1.3184h4.8828v0.4707h-6.3672v3.0059h1.8789v-1.7969h4.4883v3.0391h1.8633v-3.0391h4.5742v1.7969h1.8945v-3.0059h-6.4688v-0.4707h4.9844v-1.3184zm54.133 0.24219v14.842h1.7852v-1.0098l0.80665 1.1191 0.082-0.07422c0.67571-0.60512 1.2792-1.2523 1.8242-1.9355 0.63383 0.71078 1.3412 1.3355 2.1406 1.8516l0.0879 0.05664 0.97852-1.6328-0.082-0.05273c-0.83207-0.5295-1.5174-1.1151-2.0762-1.75l0.0449-0.08398 2e-3 -2e-3c0.75052-1.3127 1.266-2.8033 1.5488-4.4688l0.01-0.05664-1-0.85742h-4.3672v-4.3379h3.2227v1.7812c0 0.08766-0.0223 0.13434-0.0586 0.16602-0.0363 0.03168-0.10113 0.05469-0.20899 0.05469-0.22104 0-0.77309-0.04698-1.6367-0.14062l-0.13476-0.01367 0.30469 1.6133 0.0762 0.0059c0.61737 0.05232 1.2342 0.08008 1.8516 0.08008 0.64205 0 1.0836-0.10767 1.3164-0.37109 0.19324-0.2174 0.27539-0.56196 0.27539-1.0273v-3.7559h-0.0996zm-35.898 0.17188v6.5215c0 2.8155-0.53146 5.0621-1.5859 6.7441l-0.043 0.06836 1.3945 1.377 0.0664-0.10352c0.81898-1.2915 1.3681-2.6765 1.6465-4.1523 0.23615-1.2332 0.35351-2.7914 0.35351-4.6758v-4.1406h3.4316c-0.0793 0.33065-0.19612 0.72823-0.35742 1.2129h-2.3828v6.2637h2.9922v3.5c0 0.1392-0.0127 0.23792-0.0273 0.28711-7e-3 0.01745-0.0175 0.03123-0.0566 0.04687-0.0406 0.01623-0.10815 0.02734-0.19922 0.02734-0.32396 0-0.78921-0.04535-1.3906-0.13867l-0.13477-0.02148 0.25 1.6738 0.0703 0.01367c0.59444 0.11047 1.1885 0.16602 1.7832 0.16602 0.50022 0 0.86104-0.07547 1.0859-0.25781h2e-3c0.2668-0.21937 0.38672-0.59879 0.38672-1.1094v-4.1875h2.9922v-6.2637h-3.5859c0.1703-0.38488 0.32505-0.78686 0.46093-1.2129h4.0078v-1.6387zm12.162 2.5684-0.0449 0.74414c-0.10397 1.7155-0.27315 3.1119-0.50586 4.1875l-0.0156 0.07422 0.0664 0.03516 1.4453 0.77344 0.0273-0.12891c0.30417-1.4001 0.48625-3.2142 0.54882-5.4473l4e-3 -0.09375zm-29.514 0.39258v1.084h3.5273v-1.084zm6.3359 0v1.084h3.6289v-1.084zm8.168 0.27148-1.3828 1.252 0.0859 0.07422c0.65383 0.56116 1.4133 1.3853 2.2754 2.4707l0.0684 0.08789 0.0801-0.07813 1.3144-1.2812-0.0566-0.07031c-0.69178-0.88569-1.464-1.6856-2.3184-2.3984zm7.1094 1.0703h4.2305v0.97852h-4.2305zm-21.613 0.0957v1.0996h3.5273v-1.0996zm6.3359 0v1.0996h3.6289v-1.0996zm41.779 0.81055h2.2148c-0.13344 0.58021-0.31319 1.1693-0.55274 1.7676h-1.1484c-0.18105-0.72136-0.3524-1.3016-0.51367-1.7676zm-49.873 0.68164v3.4121c0 0.71038-0.03482 1.303-0.10156 1.7754-0.12285 0.87018-0.43395 1.6259-0.93359 2.2734l-0.05859 0.07617 1.5449 1.2773 0.06445-0.08203c0.44442-0.57669 0.76725-1.201 0.96875-1.8691 0.16283-0.53428 0.27368-1.2558 0.34766-2.123h1.5273v2.4316h-0.0059c-0.30099 0.03633-0.86213 0.09897-1.6797 0.1875l-0.12305 0.01367 0.52734 1.5723 0.08203-0.01172c2.3619-0.32327 4.4615-0.70412 6.2988-1.1426l0.084-0.01953-0.11523-1.2324c0.11391 0.09925 0.23235 0.19499 0.35352 0.28906 0.14611 0.18162 0.29722 0.35972 0.50586 0.49609 1.0876 0.70745 2.4726 1.204 4.1543 1.4922l0.0644 0.0098 1.041-1.5117-0.1582-0.02344c-1.1025-0.16369-1.9942-0.39498-2.752-0.66406 0.71154-0.39421 1.3645-0.80652 1.9024-1.2539l0.10351-0.08594-0.82812-0.54688h1.541v-1.3028h-12.476v-2.1973h11.805v-1.2402zm36.945 0.30469v8.4746h1.832v-2.9141h4.5977v0.90625c0 0.12354-0.0147 0.21222-0.0312 0.25195h-2e-3c-0.0102 0.0254-0.026 0.04404-0.0703 0.0625-0.0443 0.01845-0.1151 0.03125-0.21094 0.03125-0.39941 0-0.9463-0.04194-1.6367-0.125l-0.13086-0.01563 0.25977 1.6113 0.0723 0.0098c0.6811 0.08907 1.345 0.13477 1.9902 0.13477 0.55481 0 0.9637-0.10828 1.2168-0.34961 0.25554-0.24393 0.375-0.62403 0.375-1.1191v-6.959h-0.0996zm-13.574 0.49024h4.2305v1.0098h-4.2305zm33.422 0.69531h8e-3c0.3218 1.4282 0.86511 2.7413 1.6289 3.9375-0.52766 0.69642-1.0764 1.2171-1.6367 1.6289zm1.6602 0h1.7266c-0.13248 0.76208-0.40228 1.5285-0.77539 2.2969-0.39793-0.68928-0.72264-1.4466-0.95117-2.2969zm-19.676 0.16406h4.5977v0.71289h-4.5977zm-36.168 0.04102v1.2246h9.9258v-1.2246zm14.463 0.09961-0.0312 0.13477c-0.48813 2.1758-1.1283 4.0204-1.9199 5.5312l-0.0391 0.07031 0.0625 0.05273 1.5527 1.2852 0.0547-0.11719c0.37145-0.77431 0.68675-1.5421 0.94336-2.3066 0.29339-0.87494 0.61611-2.0757 0.9707-3.6035l0.0156-0.07031zm11.262 1.582-1.4668 0.84766 0.0645 0.08984c0.83439 1.1557 1.5296 2.3772 2.084 3.6621l0.0488 0.11133 0.0996-0.06836 1.5176-1.043-0.041-0.07813c-0.64359-1.2348-1.3936-2.3874-2.252-3.4551zm-6.2969 0.13086-0.0313 0.0918c-0.44911 1.3112-1.0986 2.4117-1.9473 3.3066l-0.0723 0.07617 0.0801 0.06836 1.3555 1.1582 0.0644-0.07422c0.96876-1.0898 1.7028-2.43 2.2012-4.0195l0.0293-0.09766zm16.74 0.20898h4.5977v0.75977h-4.5977zm-33.555 1.0234h1.5898c0.1994 0.34062 0.4653 0.63383 0.75391 0.91016 0.2269 0.27484 0.47288 0.53671 0.74219 0.78125-0.94795 0.17554-1.9825 0.34176-3.0859 0.49805zm3.584 0h2.8672c-0.40093 0.37665-0.87918 0.77144-1.502 1.1992-0.52931-0.32454-0.971-0.73673-1.3652-1.1992z" color="#000000" color-rendering="auto" dominant-baseline="auto" fill="#fff" image-rendering="auto" shape-rendering="auto" solid-color="#000000" stop-color="#000000" style="font-feature-settings:normal;font-variant-alternates:normal;font-variant-caps:normal;font-variant-east-asian:normal;font-variant-ligatures:normal;font-variant-numeric:normal;font-variant-position:normal;font-variation-settings:normal;inline-size:0;isolation:auto;mix-blend-mode:normal;shape-margin:0;shape-padding:0;text-decoration-color:#000000;text-decoration-line:none;text-decoration-style:solid;text-indent:0;text-orientation:mixed;text-transform:none;white-space:normal"/>
 <path d="m71.414 7c-0.72766 8.417e-4 -1.4268 0.29021-1.9414 0.80469l-0.66797 0.66797c-1.0725 1.0725-1.0725 2.8142 0 3.8867l3.6387 3.6406-3.6387 3.6387c-1.0728 1.0725-1.0728 2.8161 0 3.8887l0.66797 0.66797c1.0725 1.0728 2.8161 1.0728 3.8887 0l3.6387-3.6406 3.6406 3.6406c1.0725 1.0725 2.8142 1.0725 3.8867 0l0.66797-0.66797c1.0728-1.0725 1.0728-2.8161 0-3.8887l-3.6387-3.6387 3.6387-3.6406c1.0725-1.0725 1.0725-2.8142 0-3.8867l-0.66797-0.66797c-0.5146-0.51448-1.2137-0.80384-1.9414-0.80469-0.73006-9.875e-4 -1.429 0.28852-1.9453 0.80469l-3.6406 3.6406-3.6387-3.6406c-0.51629-0.51617-1.2172-0.80568-1.9473-0.80469zm-0.01172 2.1855h0.0019c0.0078-1.499e-4 0.01561-1.772e-4 0.02344 0 0.14495 0.00314 0.28424 0.063455 0.38672 0.16602l5.1152 5.1152a0.10001 0.10001 0 0 0 0.14062 0l5.1152-5.1152c0.10248-0.10256 0.24177-0.16288 0.38672-0.16602 0.0085-1.92e-4 0.01691-1.92e-4 0.02539 0 0.1444 0.00354 0.28072 0.063827 0.38281 0.16602l0.66992 0.66797c0.22024 0.22034 0.22024 0.57458 0 0.79492l-5.1172 5.1152a0.10001 0.10001 0 0 0 0 0.14062l5.1172 5.1152c0.22024 0.22034 0.22024 0.57458 0 0.79492l-0.66992 0.66992c-0.22034 0.22024-0.57458 0.22024-0.79492 0l-5.1152-5.1152a0.10001 0.10001 0 0 0-0.14062 0l-5.1152 5.1152c-0.22034 0.22024-0.57458 0.22024-0.79492 0l-0.66796-0.66992c-0.22024-0.22034-0.22024-0.57458 0-0.79492l5.1133-5.1152a0.10001 0.10001 0 0 0 0-0.14062l-5.1133-5.1152c-0.22024-0.22034-0.22024-0.57458 0-0.79492l0.66797-0.66797c0.10165-0.10175 0.23909-0.16202 0.38281-0.16602z" color="#000000" color-rendering="auto" dominant-baseline="auto" fill="#fff" image-rendering="auto" shape-rendering="auto" solid-color="#000000" stop-color="#000000" style="font-feature-settings:normal;font-variant-alternates:normal;font-variant-caps:normal;font-variant-east-asian:normal;font-variant-ligatures:normal;font-variant-numeric:normal;font-variant-position:normal;font-variation-settings:normal;inline-size:0;isolation:auto;mix-blend-mode:normal;paint-order:stroke fill markers;shape-margin:0;shape-padding:0;text-decoration-color:#000000;text-decoration-line:none;text-decoration-style:solid;text-indent:0;text-orientation:mixed;text-transform:none;white-space:normal"/>
</svg>
