<?xml version="1.0" encoding="UTF-8"?>
<svg width="480" height="360" version="1.1" viewBox="0 0 480 360" xmlns="http://www.w3.org/2000/svg">
 <g fill="#fff" aria-label="宮崎県">
  <path d="m250.99 172.48h7.9785v4.3164h-2.1582v-2.6367h-13.701v2.6367h-2.1191v-4.3164h7.8613v-1.9824h2.1387zm5 3.2812v5.2734h-5.1856q-0.26367 0.9082-0.66406 1.7578h7.793v6.709h-2.2558v-1.0059h-11.367v1.0059h-2.2363v-6.709h5.8106q0.45898-1.2598 0.57617-1.7578h-4.5898v-5.2734zm-9.9219 1.582v2.0898h7.7441v-2.0898zm-1.7578 7.1094v2.3633h11.367v-2.3633z"/>
  <path d="m277.82 179.78v7.8809q0 0.87891-0.32227 1.2891-0.39062 0.48828-1.6504 0.48828-1.2109 0-2.5488-0.13672l-0.40039-1.9434q1.3965 0.24414 2.3145 0.24414 0.41015 0 0.50781-0.15625 0.0781-0.12696 0.0781-0.48829v-7.1777h-8.1738v6.1621h-5.1465v1.6602h-1.7188v-13.682h1.6406v10.156h0.95703v-13.359h1.6992v13.359h1.0058v-10.156h1.5625v4.1016h11.934v1.7578zm-3.9453-5.6738q2.373 0.97656 4.8242 2.373l-1.2793 1.4551q-1.8066-1.1914-4.2383-2.4609-1.3086 1.8164-4.043 2.5098l-1.0352-1.5234q2.9297-0.64453 3.7695-2.4609h-3.8574v-1.6992h4.1016v-1.7969h1.9434v1.7969h4.6777v1.6992h-4.8242q-0.01 0.0488-0.0391 0.10742zm0.72266 7.0606v5.2344h-4.1797v0.9375h-1.7773v-6.1719zm-4.2188 1.6016v2.0312h2.5586v-2.0312z"/>
  <path d="m296.76 170.98v9.4629h-11.621v-9.4629zm-9.5215 1.543v1.2207h7.4023v-1.2207zm0 2.5977v1.2207h7.4023v-1.2207zm0 2.5976v1.2598h7.4023v-1.2598zm-3.9356 4.0234h16.191v1.6992h-8.0762v6.0644h-2.2168v-6.0644h-8.0371v-10.957h2.1387zm-2.5 5.8984q2.3242-1.0742 4.4434-3.6035l1.7969 1.0449q-2.0898 2.6465-4.6387 4.1602zm16.836 1.2598q-1.4941-1.8359-4.4922-3.8574l1.6797-1.1816q2.3535 1.3574 4.6191 3.5644z"/>
 </g>
</svg>
