<?xml version="1.0" encoding="UTF-8"?>
<svg width="480" height="360" version="1.1" viewBox="0 0 480 360" xmlns="http://www.w3.org/2000/svg">
 <g fill="#fff" aria-label="千葉県内房">
  <path d="m251.07 173.51v5.0098h8.4277v1.9824h-8.4277v9.0039h-2.2754v-9.0039h-8.3008v-1.9824h8.3008v-4.6875q-3.3008 0.39063-6.1816 0.58594l-0.83984-1.8945q7.4609-0.3125 13.838-2.002l1.5039 1.6992q-2.6172 0.72265-6.0449 1.2891z"/>
  <path d="m273.42 184.82q2.2949 1.3477 6.3184 2.3828l-1.2793 1.8066q-4.7559-1.6406-7.4023-4.0137v4.5117h-2.1777v-4.4141q-2.6367 2.8223-7.1973 4.1894l-1.2793-1.6406q3.8965-0.94727 6.4453-2.8223h-6.1328v-1.6016h8.1641v-1.1914h-5.4004v-4.7559h-2.9785v-1.5234h2.9785v-1.2402h2.1582v1.2402h3.0664v-1.4453h2.0508v1.4453h3.5449v-1.4453h2.1387v1.4453h3.0566v1.5234h-3.0566v2.3145h-7.7344v-2.3145h-3.0664v3.2129h12.178v1.543h-6.7578v1.1914h8.2617v1.6016zm0.87891-7.5488h-3.5449v0.97657h3.5449zm-8.457-5.4688v-1.2988h2.1191v1.2988h3.9453v-1.2988h2.1582v1.2988h5.0391v1.543h-5.0391v1.0742h-2.1582v-1.0742h-3.9453v1.0742h-2.1191v-1.0742h-4.9609v-1.543z"/>
  <path d="m296.76 170.98v9.4629h-11.621v-9.4629zm-9.5215 1.543v1.2207h7.4023v-1.2207zm0 2.5977v1.2207h7.4023v-1.2207zm0 2.5976v1.2598h7.4023v-1.2598zm-3.9356 4.0234h16.191v1.6992h-8.0762v6.0644h-2.2168v-6.0644h-8.0371v-10.957h2.1387zm-2.5 5.8984q2.3242-1.0742 4.4434-3.6035l1.7969 1.0449q-2.0898 2.6465-4.6387 4.1602zm16.836 1.2598q-1.4941-1.8359-4.4922-3.8574l1.6797-1.1816q2.3535 1.3574 4.6191 3.5644z"/>
  <path d="m308.85 173.76v-3.2617h2.1777v3.2617h7.5v13.594q0 1.1523-0.625 1.6113-0.50781 0.38086-1.7676 0.38086-2.1582 0-3.5644-0.10742l-0.40039-2.0801q2.1875 0.13672 3.6523 0.13672 0.39063 0 0.45899-0.18555 0.0488-0.11718 0.0488-0.37109v-10.977h-5.3125l-0.01 0.14648q-0.0488 0.79102-0.19531 1.6211 2.9004 2.373 5.1758 5.3516l-1.6602 1.543q-1.6211-2.3535-4.0723-4.8926-1.2598 3.3106-5.0684 5.5273l-1.2891-1.7188q2.2754-1.3086 3.3594-2.793 1.4258-1.9531 1.5723-4.7852h-5.127v13.74h-2.1973v-15.742z"/>
  <path d="m330.87 181.94q-0.0293 0.64453-0.0879 1.1816h7.334q-0.21485 3.6621-0.67383 4.8926-0.3418 0.92774-1.0352 1.2012-0.52734 0.20508-1.5234 0.20508-1.2988 0-3.0859-0.15625l-0.36133-1.9043q1.8945 0.30273 2.959 0.30273 0.66407 0 0.86914-0.35156 0.3711-0.625 0.56641-2.5879h-5.3906q-0.52734 1.5332-1.5039 2.5586-1.2598 1.3184-3.6621 2.3047l-1.377-1.582q2.7148-0.9375 3.8281-2.6074 0.9375-1.4062 1.0547-3.457h-4.4336q-0.10742 1.9629-0.39062 3.3398-0.48828 2.3047-1.7969 4.1602l-1.6211-1.5332q1.0644-1.6797 1.4258-3.9941 0.29297-1.8652 0.29297-4.668v-5.0391h15.84v4.4434h-6.3574v1.5918h7.7539v1.6992zm5.0488-6.2109h-11.504v1.377h11.504zm-6.2988 2.9199h-5.2051v0.5957q0 0.56641-0.01 0.99609h5.2148zm-8.7012-7.4609h18.076v1.6797h-18.076z"/>
 </g>
</svg>
