<svg version="1.1" xmlns="http://www.w3.org/2000/svg" xmlns:xlink="http://www.w3.org/1999/xlink" width="208" height="32" viewBox="0,0,208,32"><g transform="translate(-240,-164)"><g data-paper-data="{&quot;isPaintingLayer&quot;:true}" fill-rule="nonzero" stroke="none" stroke-linecap="butt" stroke-linejoin="miter" stroke-miterlimit="10" stroke-dasharray="" stroke-dashoffset="0" style="mix-blend-mode: normal"><path d="M240,196v-32h208v32z" fill="none" stroke-width="0"/><path d="M256.35,184.4c0.8724,1.1914 2.0215,2.16147 3.4473,2.9102l-1.2207,1.9238c-1.59507,-0.92447 -2.86133,-2.1061 -3.7988,-3.5449c-1.0026,-1.52993 -1.71223,-3.33657 -2.1289,-5.4199h-2.0117v6.4258c1.50387,-0.44271 2.76363,-0.84961 3.7793,-1.2207l0.18555,1.8555c-1.91407,0.83333 -4.11133,1.54623 -6.5918,2.1387l-0.67383,-2.002c0.46224,-0.08463 0.89517,-0.17252 1.2988,-0.26367v-16.006h9.4629v9.0625l1.3965,1.1914c-1.0612,1.18487 -2.10937,2.16793 -3.1445,2.9492zM255.48086,182.8961c0.931,-0.90493 1.70573,-1.7806 2.3242,-2.627h-3.1934c0.22136,0.98307 0.51108,1.85873 0.86915,2.627zM256.07656,172.8961h-5.4394v2.002h5.4394zM256.07656,176.4996h-5.4394v2.1094h5.4394zM243.51756,180.7476c-0.55989,1.65367 -1.31183,3.2715 -2.2558,4.8535l-1.1035,-2.168c1.46487,-2.04427 2.51303,-4.32943 3.1445,-6.8555h-2.7246v-1.9238h2.9394v-4.1602h2.041v4.1602h2.2949v1.9238h-2.2949v1.709c1.11327,0.80727 2.0768,1.68293 2.8906,2.627l-1.0742,1.8457c-0.58594,-0.80727 -1.19141,-1.54293 -1.8164,-2.207v8.9453h-2.041z" fill="#ffffff" stroke-width="1"/><path d="M271.01,181.11v2.1875h6.6309v1.6797h-6.6309v2.1387h8.3203v1.7188h-18.662v-1.7188h8.1836v-2.1387h-6.4844v-1.6797h6.4844v-2.0703l-0.76172,0.0391c-1.3672,0.06513 -3.18037,0.12047 -5.4395,0.16602l-0.64453,-1.7578l1.25,-0.01h0.30274l1.0449,-0.01c0.5013,-0.57943 1.08723,-1.38673 1.7578,-2.4219h-2.5976v-1.6992h12.461v1.6992h-1.6602c1.1068,0.82033 2.40563,2.00847 3.8965,3.5644l-1.6797,1.2207c-0.37109,-0.44271 -0.74543,-0.85937 -1.123,-1.25c-0.49479,0.03907 -0.86589,0.07163 -1.1133,0.0977c-0.95053,0.07813 -2.12893,0.15951 -3.5352,0.24414zM274.0178,177.233h-5.2246c-0.65755,0.931 -1.29882,1.72527 -1.9238,2.3828l1.3184,-0.0293c2.40233,-0.03907 4.42383,-0.10742 6.0645,-0.20507c-0.49479,-0.44922 -1.02213,-0.90495 -1.582,-1.3672zM271.01,172.4185h7.8809v4.0137h-2.1387v-2.3535h-13.506v2.3535h-2.1387v-4.0137h7.7441v-1.9238h2.1582z" fill="#ffffff" stroke-width="1"/><path d="M288.84,177.31v-6.8164h2.1973v6.8164h7.4414v1.9434h-7.4414v2.7734h8.4668v1.9824h-8.4668v5.4883h-2.1973v-5.4883h-8.3398v-1.9824h8.3398v-2.7734h-7.3047v-1.9434zM284.5627,176.67524c-0.80727,-1.7904 -1.65363,-3.27803 -2.5391,-4.4629l2.041,-0.9961c1.0026,1.3802 1.8815,2.8711 2.6367,4.4727zM293.1369,175.91352c1.02867,-1.56253 1.84897,-3.20317 2.4609,-4.9219l2.2852,0.89844c-0.73567,1.6146 -1.6634,3.2357 -2.7832,4.8633z" fill="#ffffff" stroke-width="1"/><path d="M307.74,171.98c0.24089,-0.57943 0.4362,-1.13283 0.58594,-1.6602l2.3828,0.32226c-0.22787,0.54037 -0.4362,0.98633 -0.625,1.3379h6.5039v6.3672h-11.797v0.98633h14.697v1.582h-14.697v0.99609h14.014c-0.08463,2.9818 -0.27343,4.99353 -0.5664,6.0352c-0.18881,0.66406 -0.54364,1.10353 -1.0645,1.3184c-0.37109,0.15625 -0.93749,0.23437 -1.6992,0.23437c-0.78127,0 -1.51043,-0.04883 -2.1875,-0.14648l-0.39063,-1.6406h-9.7852v1.084h-2.0996v-4.6973h2.0996v2.0117h3.3594v-2.6367h-3.8379v-11.494zM311.8904,186.111v-2.0117h2.0215v3.3984c0.54036,0.05207 0.98956,0.0781 1.3476,0.0781c0.44271,0 0.7194,-0.12695 0.83008,-0.38085c0.21485,-0.47527 0.38412,-1.7155 0.50781,-3.7207h-8.0273v2.6367zM304.7908,173.484v0.96679h9.6387v-0.96679zM304.7908,175.8473v1.0644h9.6387v-1.0644z" fill="#ffffff" stroke-width="1"/><path d="M328.92,182.24h-4.043v-1.6016h1.9531c-0.29297,-0.66407 -0.625,-1.28257 -0.99609,-1.8555l1.7578,-0.64453c0.50781,0.85287 0.91798,1.6862 1.2305,2.5h2.2949c0.38411,-0.78773 0.72265,-1.6341 1.0156,-2.5391l1.9629,0.61524c-0.33203,0.71613 -0.6836,1.3574 -1.0547,1.9238h2.0996v1.6016h-4.1797v1.4258h4.4531v1.6602h-4.4531v3.6914h-2.041v-3.6914h-4.2871v-1.6602h4.2871zM331.0196,176.2244h7.4024v11.416c0,0.6706 -0.17904,1.1426 -0.53711,1.416c-0.29948,0.23438 -0.80405,0.35157 -1.5137,0.35157c-0.918,0 -1.8034,-0.04883 -2.6562,-0.14649l-0.47852,-1.9629c1.13933,0.13672 1.9922,0.20508 2.5586,0.20508c0.23437,0 0.37109,-0.05859 0.41015,-0.17578c0.02607,-0.07161 0.0391,-0.17253 0.0391,-0.30274v-9.1016h-12.48v11.582h-2.1777v-13.281h7.2754v-1.7676h-8.3594v-1.8164h8.3594v-2.1387h2.1582v2.1387h8.4766v1.8164h-8.4766z" fill="#ffffff" stroke-width="1"/><path d="M353.2,183.15c1.6146,1.4388 3.78907,2.6009 6.5234,3.4863l-1.2598,1.8359c-1.57553,-0.55989 -2.94923,-1.23696 -4.1211,-2.0312c-1.21093,-0.8268 -2.32747,-1.84243 -3.3496,-3.0469v6.1035h-2.1191v-5.9961c-0.90493,1.26953 -2.07357,2.40887 -3.5059,3.418c-1.10027,0.77473 -2.27867,1.39973 -3.5352,1.875l-1.3379,-1.7188c2.0638,-0.6836 3.7858,-1.60483 5.166,-2.7637c0.39063,-0.32553 0.78776,-0.71289 1.1914,-1.1621h-4.6973v-7.998h6.7188v-1.3184h-8.0957v-1.7578h8.0957v-1.582h2.1191v1.582h8.2227v1.7578h-8.2227v1.3184h6.8457v7.998zM348.8738,176.7926h-4.5996v1.582h4.5996zM350.9929,176.7926v1.582h4.7266v-1.582zM348.8738,179.8981h-4.5996v1.6113h4.5996zM350.9929,179.8981v1.6113h4.7266v-1.6113z" fill="#ffffff" stroke-width="1"/><path d="M371.58,174.14v-3.6426h2.0996v3.6426h5.293v8.8379h-5.293v6.5234h-2.0996v-6.5234h-5.1856v-8.8379zM368.4159,176.0834v4.9707h3.1641v-4.9707zM376.8925,181.0541v-4.9707h-3.2129v4.9707zM364.3925,175.2729c-0.79427,-1.1068 -1.8457,-2.16473 -3.1543,-3.1738l1.4551,-1.4844c1.30207,0.918 2.40233,1.94663 3.3008,3.0859zM363.75774,180.2924c-1.1328,-1.31513 -2.23307,-2.3926 -3.3008,-3.2324l1.5039,-1.5039c1.13933,0.8008 2.26563,1.83597 3.3789,3.1055zM360.72064,187.8608c1.25,-1.77733 2.40233,-3.99087 3.457,-6.6406l1.7383,1.3379c-0.89193,2.4414 -1.97917,4.73957 -3.2617,6.8945z" fill="#ffffff" stroke-width="1"/></g></g></svg>