<?xml version="1.0" encoding="UTF-8"?>
<svg width="480" height="360" version="1.1" viewBox="0 0 480 360" xmlns="http://www.w3.org/2000/svg">
 <g dominant-baseline="central" fill="#fff" aria-label="空知地方北部">
  <path d="m257.95 177.04q-0.0684 1.2109-0.17578 1.7188-0.19532 0.86914-1.0645 1.1328-0.78125 0.22461-2.5391 0.22461-1.8359 0-2.4121-0.16602-0.63476-0.18555-0.79101-0.76172-0.0684-0.27343-0.0684-0.75195v-3.9648h-7.7441v2.9492h-2.0801v-4.668h7.7832v-2.2559h2.1582v2.2559h7.9199v4.2871zm-1.1328-0.4004v-2.168h-3.8574v3.2324q0 0.49804 0.25391 0.5957 0.26367 0.10742 1.1328 0.10742 1.3281 0 1.4551-0.34179 0.15625-0.44922 0.19531-1.6895zm-5.8008 6.8555v3.3301h8.4766v1.8359h-18.994v-1.8359h8.3594v-3.3301h-6.582v-1.7578h15.439v1.7578zm-9.6582-4.2383q2.4414-0.46875 3.6133-1.3965 1.1621-0.90821 1.6699-2.7832l1.9336 0.66407q-0.67383 2.6074-2.793 3.9355-1.2207 0.76172-3.2422 1.2793z" dominant-baseline="central"/>
  <path d="m267.04 174.72v3.6621h3.1934v1.8848h-3.2226q-0.0488 0.9668-0.17578 1.9434 1.9922 1.6504 3.6816 3.6816l-1.4062 1.9336q-1.1328-1.748-2.7734-3.457-0.38086 1.1328-1.1328 2.3047-1.1426 1.7774-2.8516 2.8711l-1.5039-1.7188q3.75-2.2461 4.082-7.5586h-4.2383v-1.8848h4.2871v-3.6621h-1.1621q-0.68359 1.6211-1.6797 2.9785l-1.6016-1.2988q1.6894-2.1875 2.4023-5.8984l2.0996 0.3125q-0.2832 1.2012-0.52734 1.9629h5.3223v1.9434zm11.66-2.1973v16.143h-2.0996v-1.2891h-3.6816v1.4844h-2.0801v-16.338zm-5.7812 1.9629v10.928h3.6816v-10.928z" dominant-baseline="central"/>
  <path d="m290.23 178.41v7.7344q0 0.75195 0.64454 0.9082 0.66406 0.16602 3.0371 0.16602 2.3144 0 3.0566-0.23438 0.41992-0.13672 0.54687-0.76172 0.16602-0.8789 0.17578-2.0801l2.041 0.57618q-0.15625 2.8809-0.79102 3.6816-0.41992 0.52734-1.2695 0.625-1.3379 0.14648-4.541 0.14648-2.4805 0-3.252-0.13672-1.1621-0.19531-1.4746-1.0254-0.15625-0.43945-0.15625-1.1719v-7.7441l-1.8652 0.64453-0.45899-1.8945 2.3242-0.80078v-5.2637h1.9824v4.5801l2.0996-0.71289v-5.1465h1.9629v4.4629l3.2715-1.123 1.0254 0.625v7.3144q0 0.76172-0.36133 1.1328-0.41015 0.41015-1.377 0.41015-0.79102 0-1.6797-0.13672l-0.32226-1.8652q0.57617 0.14648 1.1719 0.14648 0.42969 0 0.52734-0.17578 0.0977-0.14648 0.0977-0.48828v-4.6191l-2.3535 0.82031v7.9004h-1.9629v-7.2266zm-7.1777-3.1934v-4.7168h2.0996v4.7168h1.8945v1.9824h-1.8945v6.2109q1.0254-0.35156 2.0312-0.73242l0.18555 1.8848q-3.1641 1.4453-6.4941 2.4219l-0.6836-2.0801q1.5039-0.39062 2.6367-0.74218 0.13672-0.0488 0.22461-0.0684v-6.8945h-2.4805v-1.9824z" dominant-baseline="central"/>
  <path d="m309.48 175.76q-0.0684 1.6309-0.19531 2.8711h7.8711q-0.14648 6.7774-0.76172 8.7988-0.3125 1.0156-1.1621 1.4062-0.66406 0.30273-1.9434 0.30273-1.3477 0-3.0566-0.20507l-0.38085-2.1973q2.2949 0.32227 3.2324 0.32227 0.79101 0 1.0059-0.44922 0.51757-1.0938 0.72265-6.0352h-5.8105q-0.32227 1.7578-0.90821 3.0469-1.6309 3.5644-5.4492 5.6543l-1.543-1.7188q3.8281-1.9922 5.0586-5.2246 0.82031-2.1582 1.0644-6.5723h-6.4648v-2.002h7.9785v-3.2617h2.2559v3.2617h8.2422v2.002z" dominant-baseline="central"/>
  <path d="m325.84 184.3q-2.6953 1.416-4.6973 2.168l-0.82031-2.1484q3.1348-1.0547 5.5176-2.1875v-4.375h-4.834v-2.0606h4.834v-5.1953h2.1777v19.004h-2.1777zm6.9434-7.6074q2.2754-1.1914 4.4141-3.0273l1.6211 1.6992q-2.8906 2.0508-6.0352 3.4961v7.3242q0 0.47852 0.3125 0.58594 0.33203 0.10742 1.5332 0.10742 1.582 0 1.9824-0.18555 0.2832-0.12695 0.39062-0.79101 0.14649-0.92774 0.21485-2.998l2.1875 0.67383q-0.0977 2.5293-0.3125 3.6328-0.24414 1.2305-1.2793 1.5918-0.98633 0.33203-3.2324 0.33203-2.6367 0-3.3203-0.43945-0.6543-0.42969-0.6543-1.6504v-16.543h2.1777z" dominant-baseline="central"/>
  <path d="m346.98 172.75h4.1797v1.8848h-1.377q-0.3711 1.4941-0.9961 3.1348h2.6074v1.8848h-10.898v-1.8848h2.3926q-0.39062-1.875-0.82031-3.1348h-1.2695v-1.8848h4.1406v-2.2559h2.041zm-2.9394 1.8848q0.49805 1.4551 0.77148 3.1348h1.9922l0.09766-0.27344q0.41992-1.1133 0.78125-2.5293l0.0879-0.33203zm6.0547 6.6602v7.998h-2.002v-0.95703h-4.2578v1.1621h-2.0606v-8.2031zm-6.2598 1.7969v3.3887h4.2578v-3.3887zm13.047-4.9316q1.1621 1.1035 1.8457 2.627 0.67383 1.5234 0.67383 3.0859 0 1.4453-0.53711 2.1289-0.55664 0.71289-1.8359 0.71289-1.0938 0-2.1191-0.15625l-0.47852-2.0801q1.1816 0.21485 1.9531 0.21485 0.58594 0 0.73242-0.27344 0.0977-0.19531 0.0977-0.78125 0-2.4121-1.4453-4.1602-0.38086-0.45898-0.95703-0.98633l0.11719-0.27343q1.0156-2.2949 1.582-4.7852h-2.5v16.064h-2.0215v-18.086h5.8789l1.084 0.99609q-0.98633 3.3594-2.0703 5.752z" dominant-baseline="central"/>
 </g>
</svg>
