<svg version="1.1" xmlns="http://www.w3.org/2000/svg" xmlns:xlink="http://www.w3.org/1999/xlink" width="157.93051" height="84.47226" viewBox="0,0,157.93051,84.47226"><g transform="translate(179.45528,-188.77239)"><g data-paper-data="{&quot;isPaintingLayer&quot;:true}" fill="none" fill-rule="evenodd" stroke="#fc3324" stroke-width="36" stroke-linecap="round" stroke-linejoin="round" stroke-miterlimit="4" stroke-dasharray="" stroke-dashoffset="0" style="mix-blend-mode: normal"><g><path d="M-101.38487,242.29671l1.79971,-1.07983l2.13966,2.60959l-2.15965,1.73972l-3.85939,0.87986l-0.36994,-2.46961l2.44961,-1.67973"/><path d="M-130.71018,240.65697l0.08999,1.57975l1.68972,0.08999l-1.2698,2.68957l-1.84971,0.86987l1.04984,1.27979l2.56959,-0.36994l-2.00968,3.45945l0.14997,1.62974l3.67941,-2.44961l0.6399,2.55959l-1.2498,-1.03983l-0.19997,2.19965l-1.81971,2.08966l-1.50975,-2.82954l-7.21885,2.50959l-1.49976,-3.12949l2.4896,-1.20981l3.66942,-2.79955l-1.57975,-1.50976l1.02984,-3.82939l3.1495,-1.78972"/><path d="M-113.00301,240.25704l4.73924,1.41977l0.02,2.91953l-7.37882,-1.77971l0.06998,-1.66974l2.5496,-0.88986"/><path d="M-91.11652,230.4786l1.12982,0.86986l-1.29979,3.64941l-1.43977,1.34978l-0.06999,2.96953l-5.80907,0.40993l-1.76971,-4.00936l2.15965,-0.01l3.1395,-2.45961l0.73988,1.65974l3.21948,-4.42929"/><path d="M-136.22929,229.06883l1.9197,3.52944l-0.79988,2.41961l0.47992,1.82971l-0.54991,3.39945l-1.25979,3.06951l1.2098,3.82939l-2.72956,1.41978l-3.13949,0.51991l2.61958,-5.67909l-2.05967,-2.16966l-0.78988,2.61959l-0.79987,-2.80955l-3.62942,-3.51944l0.05999,-2.63958l-1.2698,-1.28979l5.31915,0.52991l1.94969,3.83938l1.2798,-0.99984l1.65973,2.69957l0.47992,-2.87954l-2.30963,-2.93953l-2.33963,0.36994l1.3098,-1.55975l-1.15982,-1.53975l1.17981,-0.74988l3.50944,-0.15998l-0.13998,-1.13981"/><path d="M-150.83695,227.24912l1.44976,3.48944l-4.3993,4.55928l-2.94953,1.59974l-1.2198,-2.42961l1.45977,-1.34978l1.31978,-2.98952l3.05952,-1.32979l1.2798,-1.54976"/><path d="M-70.86975,226.56923l1.64973,2.34963l-0.5799,1.49976l-3.19949,2.29963l-2.95953,1.21981l-1.50976,-1.2398l0.6299,-2.43961l1.95969,-3.33947l0.26995,0.84986l3.7394,-1.19981"/><path d="M-69.04004,221.52003l2.18965,0.07999l0.29995,1.71972l1.94969,0.66989l1.47976,2.93953l-1.74972,1.69973l0.99984,0.47993l-1.18981,2.53959l-1.73972,-2.09966l-1.76971,-0.74988l-1.61974,-3.41945l-0.24996,-2.35963l1.39978,-1.49976"/><path d="M-52.31272,219.83031l1.81971,1.8897l-3.44945,1.76972l-1.39978,-1.65973l3.02952,-1.99968"/><path d="M-62.66107,215.40101l2.16966,0.43993l-0.02999,1.70973l-1.55975,1.07983l-0.93985,3.0795h-2.25964l-1.46976,-1.11982l-0.45992,-2.5296l4.54927,-2.65957"/><path d="M-39.52477,206.77239l-0.41993,4.25932l-3.61942,-1.8397l3.39946,2.91953l-0.91985,1.46976l-1.95969,-1.66974l-2.62958,2.11966l-0.07999,4.3893l-1.77971,1.8797l-2.07967,0.36994l0.10998,-1.2398l-5.40914,-0.87986l-1.2198,-1.48977l-2.68957,0.86986l-0.86987,-1.1998l2.68957,-1.02983l-0.55991,-3.38946l-1.47976,-0.78987l-1.75972,3.57943l-2.45961,0.11998l-6.01904,2.15965l-2.17965,1.2398l-3.42945,-0.73988l-1.54976,5.35914l-2.4596,0.14998l-0.73988,1.11982l-3.07951,0.6499l-2.03967,-1.08983l-1.13982,0.76988l-4.11934,-0.53991l-1.10982,1.12982l-4.21933,0.27995l-4.17933,3.90938l-1.02984,-2.42961l-1.64973,-0.6399l-2.37962,1.31979l-1.09983,3.61942l-3.0995,-0.72988l-0.13998,2.70956l1.95968,0.82987l-1.8597,1.73972l-1.16981,-0.53991l-4.07935,0.67989l-1.72973,3.29947l-1.68973,-1.08983l-2.38961,2.05967l-1.64974,-0.49992l-0.95985,-1.90969l-2.09966,0.6499l-2.76956,2.26963l-3.01951,0.49992l0.56991,-1.90969l-1.2298,-1.51976l2.68957,-1.93969l-3.36946,-0.83987l-1.01984,-1.41977l0.43993,-3.02952l-2.4696,-4.14934l-0.07999,-2.16965l1.2698,-2.60959l-6.62894,0.40994l-4.05935,-1.57975l-3.65942,0.80987l-4.26931,2.35962l-0.09999,1.92969l-2.96953,2.84954l-0.71988,1.65973l-5.19917,3.7994l-0.26996,2.31963l1.81971,2.99952"/></g></g></g></svg>