<svg version="1.1" xmlns="http://www.w3.org/2000/svg" xmlns:xlink="http://www.w3.org/1999/xlink" width="100" height="100" viewBox="0,0,100,100"><g transform="translate(-190,-130)"><g data-paper-data="{&quot;isPaintingLayer&quot;:true}" fill-rule="nonzero" stroke-linecap="butt" stroke-linejoin="miter" stroke-miterlimit="10" stroke-dasharray="" stroke-dashoffset="0" style="mix-blend-mode: normal"><path d="M190,230v-100h100v100z" fill="none" stroke="#959196" stroke-width="0"/><path d="M262.105,164.602v28.096c0,1.13933 -0.21647,1.99383 -0.64941,2.5635c-0.56966,0.7178 -1.78303,1.0767 -3.6401,1.0767c-2.3014,0 -4.56867,-0.10254 -6.8018,-0.30762l-0.76904,-3.7427c2.83693,0.27344 5.11557,0.41016 6.8359,0.41016c0.53548,0 0.86019,-0.11393 0.97412,-0.3418c0.06836,-0.14811 0.10254,-0.35889 0.10254,-0.63232v-7.1265h-15.039c-0.11393,1.83433 -0.42155,3.5661 -0.92285,5.1953c-0.77473,2.49513 -2.1989,4.83073 -4.2725,7.0068l-3.042,-2.9395c1.90267,-2.14193 3.16163,-4.3921 3.7769,-6.7505c0.37597,-1.49253 0.56396,-3.16163 0.56396,-5.0073v-17.5zM243.204,167.8491v4.9048h14.954v-4.9048zM243.204,176.0522v5.2466h14.954v-5.2466z" fill="#ff0000" stroke="none" stroke-width="1"/><path d="M223.215,185.166c0,-1.46667 -0.33333,-2.6 -1,-3.4c-0.66667,-0.8 -1.61333,-1.2 -2.84,-1.2v-2.76c2.34667,0 4.17333,0.65333 5.48,1.96c1.33333,1.30667 2,3.13333 2,5.48zM219.375,194.686c-2.34667,0 -4.18667,-0.66667 -5.52,-2c-1.30667,-1.36 -1.96,-3.25333 -1.96,-5.68l3.64,-0.08c0,0.96 0.14667,1.78667 0.44,2.48c0.32,0.69333 0.76,1.22667 1.32,1.6c0.58667,0.34667 1.28,0.52 2.08,0.52zM211.895,187.006v-1.76l3.64,-0.08v1.76zM219.375,194.686v-3.16c0.8,0 1.48,-0.17333 2.04,-0.52c0.58667,-0.37333 1.02667,-0.90667 1.32,-1.6c0.32,-0.69333 0.48,-1.52 0.48,-2.48l3.64,0.08c0,2.42667 -0.66667,4.32 -2,5.68c-1.30667,1.33333 -3.13333,2 -5.48,2zM211.895,185.246c0,-2.34667 0.65333,-4.17333 1.96,-5.48c1.33333,-1.30667 3.17333,-1.96 5.52,-1.96v2.76c-1.2,0 -2.14667,0.4 -2.84,1.2c-0.66667,0.8 -1,1.93333 -1,3.4zM223.215,186.926v-1.76l3.64,0.08v1.76zM219.375,180.566c-2.16,0 -3.89333,-0.64 -5.2,-1.92c-1.28,-1.28 -1.92,-2.97333 -1.92,-5.08l3.64,0.12c0,1.33333 0.29333,2.36 0.88,3.08c0.61333,0.69333 1.48,1.04 2.6,1.04zM212.255,173.566v-1.12l3.64,0.08v1.16zM219.375,180.566v-2.76c1.14667,0 2.01333,-0.34667 2.6,-1.04c0.58667,-0.72 0.88,-1.74667 0.88,-3.08l3.64,-0.12c0,2.10667 -0.64,3.8 -1.92,5.08c-1.28,1.28 -3.01333,1.92 -5.2,1.92zM212.255,172.446c0,-2.18667 0.64,-3.92 1.92,-5.2c1.30667,-1.30667 3.04,-1.96 5.2,-1.96v3.16c-0.74667,0 -1.38667,0.16 -1.92,0.48c-0.50667,0.29333 -0.89333,0.74667 -1.16,1.36c-0.26667,0.61333 -0.4,1.36 -0.4,2.24zM222.855,173.686v-1.16l3.64,-0.08v1.12zM222.855,172.526c0,-0.88 -0.13333,-1.62667 -0.4,-2.24c-0.26667,-0.61333 -0.65333,-1.06667 -1.16,-1.36c-0.50667,-0.32 -1.14667,-0.48 -1.92,-0.48v-3.16c2.18667,0 3.92,0.65333 5.2,1.96c1.28,1.28 1.92,3.01333 1.92,5.2z" fill="#ff0000" stroke="none" stroke-width="1"/></g></g></svg>