<svg xmlns="http://www.w3.org/2000/svg" viewBox="0 0 90 260" version="1.1" height="260" width="90">
 <rect style="paint-order:stroke markers fill" stop-color="#000000" fill-opacity="0" height="260" width="90"></rect>
 <g fill-rule="evenodd">
  <path stop-color="#000000" fill="#12151a" d="m10 169h70c5.54 0 10 4.46 10 10v71c0 5.54-4.46 10-10 10h-70c-5.54 0-10-4.46-10-10v-71c0-5.54 4.46-10 10-10z"></path>
  <path stop-color="#000000" fill="#31476d" d="m10 169h70c5.54 0 10 4.46 10 10v17h-90v-17c0-5.54 4.46-10 10-10z"></path>
  <path stop-color="#000000" fill="#4bcaa2" d="m8 204h14v24.25h-14z"></path>
  <path stop-color="#000000" fill="#3195b8" d="m8 228h14v24h-14z"></path>
 </g>
 <g fill="#fff">
  <g aria-label="震度2" transform="translate(-355,-428)">
   <path d="m388.45 638.56v-0.5879h-4.2725v-0.97753h10.09v0.97753h-4.3613v0.5879h5.6602v2.4541h-1.4834v-1.5723h-4.1768v2.6592h-1.456v-2.6592h-4.1016v1.5723h-1.4697v-2.4541zm4.8398 9.7002q1.0459 0.39648 2.6113 0.62891l-0.7998 1.1621q-2.1943-0.37598-3.6025-1.292-1.4014-0.91601-2.1807-2.2764h-1.5107v2.1055q1.5107-0.21192 2.8027-0.45118l0.0957 1.0186q-2.4062 0.57422-5.5029 0.99805l-0.40332-1.2031q1.0732-0.11621 1.4697-0.16406l0.082-0.0137v-2.29h-1.4971q-0.0957 1.2031-0.31446 1.9209-0.25976 0.86132-0.83398 1.6064l-1.2168-1.0049q0.66992-0.86817 0.83399-2.0303 0.0889-0.6289 0.0889-1.5654v-2.8984h11.799v0.90918h-10.329v2.0986h10.917v0.96387h-1.5518l0.86817 0.57422q-0.77246 0.64257-1.8252 1.2031zm-1.0664-0.52637q0.98437-0.66992 1.5654-1.251h-2.9873q0.58789 0.75195 1.4219 1.251zm-7.2734-7.7861h2.9121v0.77246h-2.9121zm0 1.2578h2.9121v0.78614h-2.9121zm5.5439-1.2578h3.001v0.77246h-3.001zm0 1.2578h3.001v0.78614h-3.001zm-4.7988 2.7891h8.5107v0.8955h-8.5107z"></path>
   <path d="m404.29 637.94h5.3594v1.1484h-3.0352v1.1348h2.8438v1.1074h-2.8438v2.0371h-5.5029v-2.0371h-2.2422v1.2715q0 3.0967-0.32813 4.8945-0.25293 1.3672-0.82031 2.4951l-1.2441-0.98438q0.51953-1.1279 0.71094-2.7549 0.1709-1.4287 0.1709-3.6504v-4.6621h5.4072v-1.2305h1.5244zm-5.4209 1.1484v1.1348h2.2422v-1.1348zm3.6982 0v1.1348h2.5908v-1.1348zm0 2.2422v1.0596h2.5908v-1.0596zm1.5859 7.1777q-1.9756 1.0254-5.0176 1.5586l-0.71094-1.2578q2.8574-0.3418 4.4775-1.0459-1.3877-1.0049-2.3721-2.3857h-0.94336v-1.1894h8.0049l0.71778 0.60156q-1.0186 1.5654-2.9053 2.9463 1.6201 0.64941 4.416 0.95703l-0.7998 1.292q-2.6797-0.3623-4.8672-1.4766zm-2.0303-3.1309q0.82715 0.9707 2.0098 1.709 1.333-0.86133 2.0576-1.709z"></path>
   <path d="m411.44 649.03v-1.5449q0.64941-2.0166 3.541-3.9443l0.37598-0.25293q1.2441-0.82714 1.709-1.3535 0.51954-0.58789 0.51954-1.2715 0-0.61523-0.37598-1.0664-0.56055-0.67676-1.6748-0.67676-1.6611 0-2.9873 1.3877l-1.1758-1.0801q0.46484-0.56739 1.1074-0.95703 1.374-0.83399 3.0625-0.83399 1.3125 0 2.2764 0.49902 0.83398 0.4375 1.2852 1.1895 0.417 0.71094 0.417 1.5381 0 1.0869-0.82715 2.0098-0.55371 0.62207-2.0713 1.6543l-0.4375 0.29394q-1.6064 1.0869-2.1191 1.6133-0.62891 0.64258-0.83399 1.1553h6.3984v1.6406z"></path>
  </g>
  <g aria-label="震度1" transform="translate(-355,-428)">
   <path d="m388.45 662.56v-0.5879h-4.2725v-0.97753h10.09v0.97753h-4.3613v0.5879h5.6602v2.4541h-1.4834v-1.5723h-4.1768v2.6592h-1.456v-2.6592h-4.1016v1.5723h-1.4697v-2.4541zm4.8398 9.7002q1.0459 0.39648 2.6113 0.62891l-0.7998 1.1621q-2.1943-0.37598-3.6025-1.292-1.4014-0.91601-2.1807-2.2764h-1.5107v2.1055q1.5107-0.21192 2.8027-0.45118l0.0957 1.0186q-2.4062 0.57422-5.5029 0.99805l-0.40332-1.2031q1.0732-0.11621 1.4697-0.16406l0.082-0.0137v-2.29h-1.4971q-0.0957 1.2031-0.31446 1.9209-0.25976 0.86132-0.83398 1.6064l-1.2168-1.0049q0.66992-0.86817 0.83399-2.0303 0.0889-0.6289 0.0889-1.5654v-2.8984h11.799v0.90918h-10.329v2.0986h10.917v0.96387h-1.5518l0.86817 0.57422q-0.77246 0.64257-1.8252 1.2031zm-1.0664-0.52637q0.98437-0.66992 1.5654-1.251h-2.9873q0.58789 0.75195 1.4219 1.251zm-7.2734-7.7861h2.9121v0.77246h-2.9121zm0 1.2578h2.9121v0.78614h-2.9121zm5.5439-1.2578h3.001v0.77246h-3.001zm0 1.2578h3.001v0.78614h-3.001zm-4.7988 2.7891h8.5107v0.8955h-8.5107z"></path>
   <path d="m404.29 661.94h5.3594v1.1484h-3.0352v1.1348h2.8438v1.1074h-2.8438v2.0371h-5.5029v-2.0371h-2.2422v1.2715q0 3.0967-0.32813 4.8945-0.25293 1.3672-0.82031 2.4951l-1.2441-0.98438q0.51953-1.1279 0.71094-2.7549 0.1709-1.4287 0.1709-3.6504v-4.6621h5.4072v-1.2305h1.5244zm-5.4209 1.1484v1.1348h2.2422v-1.1348zm3.6982 0v1.1348h2.5908v-1.1348zm0 2.2422v1.0596h2.5908v-1.0596zm1.5859 7.1777q-1.9756 1.0254-5.0176 1.5586l-0.71094-1.2578q2.8574-0.3418 4.4775-1.0459-1.3877-1.0049-2.3721-2.3857h-0.94336v-1.1894h8.0049l0.71778 0.60156q-1.0186 1.5654-2.9053 2.9463 1.6201 0.64941 4.416 0.95703l-0.7998 1.292q-2.6797-0.3623-4.8672-1.4766zm-2.0303-3.1309q0.82715 0.9707 2.0098 1.709 1.333-0.86133 2.0576-1.709z"></path>
   <path d="m414.29 673.03v-9.6592q-1.4492 0.48535-2.7344 0.71778l-0.33496-1.3877q2.167-0.52637 3.5547-1.2168h1.3125v11.546z"></path>
  </g>
  <g aria-label="地図の色" transform="translate(0,-24)">
   <path d="m24.164 206.04v5.4141q0 0.52637 0.45117 0.63575 0.46484 0.11621 2.126 0.11621 1.6201 0 2.1396-0.16406 0.29395-0.0957 0.38281-0.53321 0.11621-0.61523 0.12305-1.456l1.4287 0.40332q-0.10938 2.0166-0.55371 2.5772-0.29395 0.36914-0.88867 0.4375-0.93652 0.10254-3.1787 0.10254-1.7363 0-2.2764-0.0957-0.81348-0.13672-1.0322-0.71777-0.10938-0.30762-0.10938-0.82031v-5.4209l-1.3057 0.45117-0.32129-1.3262 1.627-0.56055v-3.6846h1.3877v3.2061l1.4697-0.49903v-3.6025h1.374v3.124l2.29-0.78614 0.71777 0.4375v5.1201q0 0.5332-0.25293 0.79297-0.28711 0.28711-0.96387 0.28711-0.55371 0-1.1758-0.0957l-0.22559-1.3057q0.40332 0.10254 0.82031 0.10254 0.30078 0 0.36914-0.12305 0.06836-0.10254 0.06836-0.34179v-3.2334l-1.6475 0.57422v5.5303h-1.374v-5.0586zm-5.0244-2.2354v-3.3018h1.4697v3.3018h1.3262v1.3877h-1.3262v4.3476q0.71777-0.24609 1.4219-0.51269l0.12988 1.3193q-2.2148 1.0117-4.5459 1.6953l-0.47852-1.4561q1.0527-0.27344 1.8457-0.51953 0.0957-0.0342 0.15723-0.0479v-4.8262h-1.7363v-1.3877z"></path>
   <path d="m38.383 209.56q-1.4629 1.2373-3.6299 2.0303l-0.86816-1.0527q1.7637-0.57422 3.1514-1.6475l-0.23926-0.11621q-1.3262-0.63574-2.8984-1.2852l0.62891-1.0391q1.7637 0.64258 3.3018 1.3467l0.2666 0.12305q1.7295-1.8184 2.6045-4.7442l1.3604 0.42383q-0.99805 2.9805-2.6592 4.9561 0.06836 0.0342 0.12988 0.0684 0.96387 0.47851 2.5293 1.4014l-0.82715 1.1484q-1.3125-0.7998-2.8506-1.6133zm-3.042-2.9668q-0.49219-1.627-1.1211-2.748l1.2852-0.5127q0.66309 1.1758 1.1621 2.7275zm2.4062-0.54687q-0.50586-1.5791-1.1348-2.7549l1.2305-0.49219q0.78613 1.3672 1.1621 2.7002zm6.3164-4.9014v12.66h-1.5244v-0.71778h-9.0781v0.71778h-1.5107v-12.66zm-10.603 1.2715v9.3516h9.0781v-9.3516z"></path>
   <path d="m52.69 211.72q4.0127-1.0117 4.0127-4.6006 0-1.5654-0.80664-2.6934-0.90234-1.2715-2.748-1.6338-0.40332 3.1719-1.1006 5.1953-0.47852 1.415-1.1895 2.6728-1.0254 1.791-2.3311 1.791-0.9707 0-1.7295-0.875-0.48535-0.55371-0.78613-1.3604-0.39648-1.0459-0.39648-2.249 0-1.9482 1.0732-3.5889 1.0869-1.6748 2.8232-2.4336 1.2646-0.55371 2.7754-0.55371 2.3584 0 4.0059 1.2646 2.0234 1.5518 2.0234 4.3955 0 4.7646-4.8193 6.043zm-1.0254-8.9824q-1.21 0.13672-2.0234 0.64941-0.51953 0.33497-1.0322 0.88868-1.4219 1.5723-1.4219 3.6436 0 1.5107 0.60156 2.3652 0.36914 0.52636 0.73145 0.52636 0.49219 0 1.1074-1.0869 1.5039-2.6455 2.0371-6.9863z"></path>
   <path d="m62.596 208.76v2.4814q0 0.54004 0.39648 0.64941 0.58789 0.16407 3.8896 0.16407 2.9326 0 3.6504-0.1709 0.3418-0.082 0.4375-0.38281 0.11621-0.3418 0.18457-1.5928l1.5107 0.46485q-0.07519 1.3467-0.21875 1.8457-0.18457 0.64941-0.68359 0.88184-0.35547 0.16406-0.98438 0.20507-1.6201 0.11621-4.2314 0.11621-3.6572 0-4.3477-0.12988-0.7793-0.14355-1.0049-0.68359-0.10938-0.27344-0.10938-0.6836v-7.0205l-0.06836 0.0547q-0.31445 0.22559-0.74512 0.49903l-0.93652-1.1348q2.4404-1.3398 4.1289-3.8213l0.95703 0.65625h3.8896l0.72461 0.75196q-0.90234 1.2783-1.8867 2.3037h4.3818v4.5459zm0-1.2168h2.9395v-2.0713h-2.9395zm4.4092-2.0713v2.0713h3.001v-2.0713zm-1.5859-1.2578q0.88184-0.92285 1.5039-1.8115h-3.1582q-0.75879 0.92969-1.8047 1.8115z"></path>
  </g>
 </g>
</svg>
