<svg version="1.1" xmlns="http://www.w3.org/2000/svg" xmlns:xlink="http://www.w3.org/1999/xlink" width="75.05696" height="39.9184" viewBox="0,0,75.05696,39.9184"><g transform="translate(-513.53405,13.48581)"><g data-paper-data="{&quot;isPaintingLayer&quot;:true}" fill="#ff0000" fill-rule="evenodd" stroke="none" stroke-width="0" stroke-linecap="round" stroke-linejoin="round" stroke-miterlimit="10" stroke-dasharray="" stroke-dashoffset="0" style="mix-blend-mode: normal"><path d="M582.32125,-4.57617l1.04996,-0.14999l0.23999,0.83997l1.05996,0.22999l0.56998,0.98996l-0.26999,2.02992l0.51998,2.33991l1.39994,2.5299l0.34999,1.19995l1.27995,1.69993l0.07,0.61998l-0.68997,0.79997l-2.00992,0.37998l-0.88996,1.69993l0.54998,0.89996l1.15995,0.29999l0.11,0.65997l-1.04996,1.40994l-1.42994,0.02l-0.01,1.78993l-1.27995,-0.12999l-2.01992,0.74997l-3.12987,-0.80997l-0.60998,-0.59998l-0.67997,1.18995l-2.02992,1.36995l-3.34987,-1.91992l-0.70997,0.03l-1.33995,-0.91996l-1.23995,0.49998l0.20999,1.41994l-1.14995,0.19999l-1.25995,2.4299l-1.93992,-0.60998l-0.88996,0.20999l-1.52994,1.01996l-0.04,0.58998l-2.00992,0.16999l-3.00988,2.25991l-2.5299,0.47998l-2.04992,0.59998l-1.91992,1.75993l-1.76993,-0.30999l-2.03992,-2.5199l-1.87992,-0.81997l-1.07996,0.85997l-1.17995,-0.18999l-2.92988,1.47994l-1.76993,2.22991l-1.13995,-1.14995l-2.28991,-0.48998l-0.83997,-2.02992l0.43998,-0.35999l0.03,-1.39994l-0.77997,-0.65997l-1.37994,-2.16991l0.35999,-1.05996l-0.1,-2.64989l0.34999,-0.68997l-0.35999,-2.94988l-0.42998,-0.69997l-1.26995,-0.36999l0.09,-2.72989l0.61998,-1.07996l0.22999,-1.35995l1.01996,-0.77997l-3.86985,-0.92996l-1.36995,0.39998l-1.79993,1.50994l-0.02,0.94996l-1.65993,0.60998l-1.72993,-0.75997l-0.89996,1.09996l-0.15999,1.07996l-0.89996,0.84997l-3.72985,0.42998l-0.37998,0.21999l-1.66993,-2.70989l0.91996,0.19999l0.72997,-1.09996l0.89996,-0.1l1.35995,-1.08996l1.09996,0.15999l0.45998,0.62997l1.11996,-0.09l0.03,-2.4299l0.62997,-0.53998l1.15995,0.02l0.31999,-0.81997l-0.50998,-0.66997l-0.22999,-2.00992l0.65997,-0.65997l0.03,-1.21995l1.83993,-2.3799l0.72997,-1.67993l2.21991,-3.72985l-0.33999,-0.38998l1.91992,-2.08992l3.68985,-0.05l1.66993,1.21995l1.73993,0.84997l1.02996,-0.03l0.37998,0.75997l1.18995,-0.23999l1.34995,1.49994l1.63993,0.04l1.30995,0.39998l-0.02,-0.95996l2.81989,0.83997l2.00992,0.86997l1.28995,-0.48998l3.01988,-1.57994l1.84993,1.08996l1.66993,2.08992l2.5699,1.38994l3.51986,3.09988l2.00992,0.23999l3.06988,-0.50998l1.60994,0.28999l1.39994,-0.20999l1.94992,-0.97996l1.87992,-0.41998l1.42994,-0.75997l1.59994,0.85997l0.91996,1.19995l1.33995,0.06l1.07996,-0.48998l1.42994,-0.13999l-0.20999,-1.58994l1.05996,-0.45998l0.43998,0.96996"/></g></g></svg>