<svg xmlns="http://www.w3.org/2000/svg" viewBox="0 0 208 48" version="1.1" height="48" width="208">
 <rect stop-color="#000000" opacity=".988" fill="none" ry="0" rx="0" height="48" width="208"></rect>
 <g aria-label="最大長周期階級" fill="#1c1c1c" transform="translate(2496 1420)">
  <path d="m-2464.4-1403.3v5.5107h-13.157v-5.5107zm-11.197 1.2568v0.9053h9.2373v-0.9053zm0 2.0567v1.0283h9.2373v-1.0283zm4.3945 4.623v7.3301q1.7139-0.4658 3.1377-1.5996-1.336-1.5557-2.0215-3.3487h-0.7559v-1.4062h6.7852l0.8613 0.7559q-0.958 2.3203-2.3994 3.9814 1.292 0.8438 3.2344 1.4326l-1.0811 1.6084q-2.0039-0.7558-3.375-1.8457-1.5029 1.2393-3.5244 1.9688l-0.8613-1.292v1.2041h-1.8193v-1.96q-2.4961 0.501-6.1788 0.8965l-0.4834-1.6172q1.1602-0.062 1.9776-0.123v-5.9854h-1.8369v-1.459h17.104v1.459zm-1.8193 0h-2.8829v1.0635h2.8829zm0 2.2324h-2.8829v1.0811h2.8829zm0 2.2325h-2.8829v1.3447q0.7471-0.079 1.125-0.1231 1.0108-0.1054 1.7579-0.2021zm6.0996 0.1494q0.7998-0.9229 1.4414-2.2325h-2.9795q0.5449 1.1866 1.5381 2.2325z"></path>
  <path d="m-2451.8-1397.3q0.6065 2.0566 2.3027 4.3769 2.0655 2.8301 5.0801 4.4825l-1.2568 1.8105q-3.1904-1.8808-5.3262-4.9834-1.1514-1.6875-1.8457-3.4365-0.6943 2.3555-2.1533 4.2803-2.1445 2.8476-5.2998 4.2011l-1.2393-1.6084q3.3047-1.3798 5.335-4.2539 1.7051-2.4257 2.0215-4.8691h-7.0137v-1.9072h7.0928v-4.2364h2.0302v4.2364h7.2422v1.9072z"></path>
  <path d="m-2431.2-1390.5q1.7666 1.2481 4.8076 2.0391l-1.2217 1.6699q-3.9902-1.125-6.3193-3.709-1.3887-1.5293-2.0566-3.4892h-2.4786v5.1064q2.2588-0.4131 4.7901-1.0898l0.123 1.6699q-4.1484 1.1865-8.2265 1.8545l-0.6241-1.8193q1.3887-0.1758 1.9424-0.2637v-5.458h-3.0937v-1.4942h3.0937v-7.5674h12.146v1.4766h-10.151v1.0459h9.3428v1.4238h-9.3428v1.0635h9.3428v1.3887h-9.3428v1.1689h12.006v1.4942h-2.3994l1.3887 1.2041q-1.67 1.2041-3.7266 2.2851zm-1.2656-1.0371q2.0302-1.2656 3.4013-2.4521h-5.124q0.5889 1.3623 1.7227 2.4521z"></path>
  <path d="m-2413.1-1394.2v4.6318h-5.915v0.9316h-1.7666v-5.5634zm-1.793 1.3886h-4.122v1.8018h4.122zm5.2559-10.239v14.414q0 1.169-0.5976 1.5381-0.4307 0.2637-1.5909 0.2637-1.459 0-2.9091-0.1231l-0.3956-1.872q1.5557 0.1758 2.8829 0.1758 0.4834 0 0.58-0.1055 0.079-0.097 0.079-0.4658v-12.226h-10.679v4.9482q0 4.3242-0.2988 6.2227-0.3164 2.0566-1.3272 3.7705l-1.6171-1.3535q0.9228-1.6612 1.1513-3.9551 0.167-1.5645 0.167-4.3945v-6.8379zm-6.3896 3.4013h3.4541v1.4063h-3.4541v1.3623h3.832v1.4238h-9.4658v-1.4238h3.7793v-1.3623h-3.3838v-1.4063h3.3838v-1.2832h1.8545z"></path>
  <path d="m-2406-1401.3v-2.3554h1.7139v2.3554h2.7861v-2.3554h1.7139v2.3554h1.0986v1.5469h-1.0986v7.0049h1.2392v1.6172h-9.0527v-1.6172h1.5996v-7.0049h-1.292v-1.5469zm4.5 1.5469h-2.7861v1.459h2.7861zm0 2.751h-2.7861v1.4678h2.7861zm0 2.7422h-2.7861v1.5117h2.7861zm10.345-8.7627v14.686q0 0.9316-0.4834 1.3184-0.3955 0.3164-1.3008 0.3164-1.2568 0-2.083-0.1055l-0.3603-1.8369q1.2656 0.1494 1.7929 0.1494 0.4043 0 0.5186-0.1494 0.097-0.1319 0.097-0.4483v-3.7265h-3.2168q-0.1143 1.7666-0.3955 2.9004-0.4571 1.8369-1.7139 3.4013l-1.4238-1.2656q1.0986-1.3799 1.4765-3.3135 0.2725-1.3886 0.2725-3.3925v-8.5342zm-1.8193 1.7138h-3.1817v2.584h3.1817zm0 4.1836h-3.1817v2.708h3.1817zm-14.722 9.3252q1.5293-1.3008 2.4521-3.0761l1.5997 0.8261q-1.1602 2.3116-2.6455 3.5508zm7.04 0.2198q-0.5888-1.292-1.6611-2.4873l1.4063-0.9668q0.958 0.9316 1.6787 2.083z"></path>
  <path d="m-2383.5-1397.7v-5.7041h1.7666v1.872h2.8828v1.5821h-2.8828v1.9775q1.1689-0.1934 2.8652-0.5361l0.088 1.459q-2.2939 0.6416-5.4756 1.1337l-0.5185-1.6084q0.3691-0.044 0.9404-0.123zm-1.96 0.1757q1.3711 1.9776 1.3711 4.4034 0 1.1074-0.2373 1.6875-0.3691 0.8789-1.705 0.8789-0.5098 0-0.9405-0.088l-0.4131-1.7315q0.5537 0.1143 0.9493 0.1143 0.4394 0 0.5449-0.2109 0.079-0.1582 0.079-0.5713 0-2.4698-1.2481-4.2979 0.6065-1.6787 1.1162-4.2187h-1.5117v15.02h-1.7314v-16.638h4.1572l0.9404 0.7383q-0.5888 2.874-1.3711 4.913zm8.8155-3.9726q1.6172-0.5889 2.8125-1.3184l1.1162 1.4414q-1.6963 0.8174-3.9287 1.4239v1.5644q0 0.3955 0.2549 0.4746 0.2548 0.079 1.0722 0.079 0.6592 0 0.8701-0.088 0.2813-0.1054 0.3692-0.6064 0.062-0.3955 0.097-1.2832l1.5996 0.4834q-0.01 1.9687-0.5186 2.54-0.3164 0.3516-0.9668 0.4395-0.7295 0.097-1.8808 0.097-1.6963 0-2.1973-0.3692-0.4483-0.3252-0.4483-1.1338v-5.7656h1.7491zm-3.5772 6.6182q0.334-0.7998 0.4834-1.5997l1.8545 0.211q-0.1758 0.5713-0.5713 1.3887h4.8955v8.3408h-1.9072v-0.9405h-6.0557v0.9405h-1.8896v-8.3408zm-1.3008 1.4414v1.4941h6.0557v-1.4941zm0 2.8652v1.6172h6.0557v-1.6172z"></path>
  <path d="m-2361.2-1395.1q-0.334 2.6982-0.8877 4.3417-0.8262 2.461-2.2412 4.1221l-1.169-1.4765q1.7578-2.0391 2.4346-5.9063 0.2988-1.749 0.4307-4.1133 0.097-1.9072 0.097-2.8828h-1.5029v-1.7314h7.04l0.8965 0.7382q-0.5713 2.6016-1.1513 4.4561h2.1269q-0.5185 3.9111-2.0039 6.5039 1.2656 1.4502 3.0059 2.4873l-1.1514 1.7754q-1.626-1.1074-2.9268-2.6719-1.2568 1.5909-3.2959 2.9619l-1.2832-1.5117q1.459-0.8349 2.3116-1.6523 0.5361-0.5098 1.1425-1.3096-1.2128-1.8808-1.872-4.1308zm0.3252-5.0977q0.6416 4.6055 2.5576 7.585 0.7295-1.4942 1.125-3.2784h-2.4346q0.8262-2.2939 1.459-5.124h-2.6982q0 0.3955-0.01 0.8174zm-8.1123 3.0937q-1.1426-1.6084-2.5401-2.9619l1.0811-1.2568q0.1846 0.1758 0.3691 0.3603l0.1143 0.1143q0.958-1.3447 1.7666-2.9619l1.582 0.8789q-0.9844 1.582-2.3467 3.208 0.6856 0.8525 1.0371 1.3359 1.3448-1.6347 2.5137-3.3837l1.3887 1.0019q-1.8281 2.5225-4.1309 4.8867 1.4942-0.097 2.584-0.2021-0.2373-0.6856-0.5625-1.4063l1.4238-0.5625q0.7911 1.6348 1.3536 3.8584l-1.4766 0.6416q-0.1494-0.6152-0.3252-1.2217-0.4043 0.07-1.3008 0.1934l-0.2285 0.035v7.9453h-1.7666v-7.7432l-0.2109 0.026q-1.292 0.1318-2.5752 0.2109l-0.3604-1.6347 0.5889-0.018q0.4043-0.018 0.8525-0.035 0.5362-0.5713 1.169-1.3096zm-2.5401 8.4463q0.6328-2.2236 0.791-4.6054l1.6612 0.2109q-0.1319 3.0147-0.791 5.1504zm5.836-1.0986q-0.1846-1.6699-0.6328-3.2168l1.4414-0.457q0.4658 1.5381 0.7207 2.9883z"></path>
 </g>
</svg>
