<?xml version="1.0" encoding="UTF-8"?>
<svg width="480" height="360" version="1.1" viewBox="0 0 480 360" xmlns="http://www.w3.org/2000/svg">
 <g fill="#fff" aria-label="オホーツク海沿岸">
  <path d="m251.27 171.11h2.2363v3.7598h4.6387v2.002h-4.6387v9.6582q0 1.0742-0.38086 1.5527-0.43945 0.5664-1.7969 0.5664-1.5332 0-3.0176-0.0976l-0.52735-2.1191q1.5332 0.13672 2.9004 0.13672 0.45898 0 0.5371-0.20508 0.0488-0.11719 0.0488-0.35157v-8.1445q-1.9043 2.7832-4.1699 4.9414-2.0508 1.9531-4.9414 3.5644l-1.3965-1.9043q5.4004-2.7441 8.9844-7.5977h-8.5645v-2.002h10.088z"/>
  <path d="m267.41 171.04h2.1973v3.6035h7.3633v1.9629h-7.3633v12.256h-2.1973v-12.256h-7.207v-1.9629h7.207zm-7.7832 15.02q2.1582-2.8223 2.9004-7.373l2.1387 0.57617q-0.89844 5.2734-3.0957 8.3008zm15.938 1.2402q-2.1973-3.3008-3.6328-8.2129l2.0996-0.70312q1.1914 4.082 3.5156 7.6172z"/>
  <path d="m279.39 178.56h17.197v2.1973h-17.197z"/>
  <path d="m300.81 180.06q-0.91797-3.7793-2.1582-6.5039l2.041-0.95703q1.3672 2.9199 2.2754 6.6406zm5.4004-1.0254q-0.79102-3.3496-2.0606-6.4941l2.0801-0.83984q1.2305 2.7246 2.1191 6.5137zm-3.4961 7.5586q3.584-1.0547 5.5859-2.7637 1.5723-1.3281 2.4707-3.2324 1.4355-3.0176 2.002-8.7012l2.2363 0.625q-0.56641 4.6387-1.4551 7.2656-1.2402 3.6719-3.8867 5.8203-2.2266 1.8066-5.7129 2.8906z"/>
  <path d="m331.22 173.54 1.5234 1.2598q-1.1035 6.1719-4.0527 9.4336-2.6856 2.9688-8.0859 4.5898l-1.2207-1.9824q4.9512-1.25 7.5391-4.043 2.5098-2.6953 3.3594-7.2559h-6.582q-2.0508 3.1055-4.8144 4.9609l-1.6016-1.6211q2.2461-1.4453 3.6621-3.1445 1.6016-1.9336 2.5-4.6582l2.1191 0.57617q-0.35156 1.0254-0.76172 1.8848z"/>
  <path d="m351.98 175.8q0 0.45899-0.0879 4.3555h1.8652v1.7578h-1.9043q-0.0293 1.2793-0.12695 2.9004h1.6504v1.7188h-1.7774q-0.11718 1.416-0.32226 1.875-0.45899 1.0938-2.2266 1.0938-1.1328 0-2.0898-0.16601l-0.36133-1.7383q1.377 0.19531 2.1094 0.19531 0.5957 0 0.71289-0.41992 0.0586-0.20508 0.10742-0.83985h-6.9531q-0.01 0.0781-0.0293 0.16602-0.0879 0.51758-0.16602 0.97656l-2.0215-0.19531q0.5957-3.5254 0.80078-5.332l0.0293-0.23438h-1.9531v-1.7578h2.1582q0.27343-2.3633 0.46875-4.3555zm-6.1719 1.6992h-2.1387q-0.0293 0.49805-0.17578 2.0996l-0.0586 0.55664h2.168l0.0293-0.27344q0.0195-0.2832 0.0586-0.79101 0.0977-1.3672 0.11719-1.5918zm1.9238 0q-0.0488 1.1621-0.14649 2.5684v0.0879h2.2949q0.0391-1.3379 0.0684-2.6562zm-2.2852 4.4141h-2.1973q-0.14648 1.1914-0.3125 2.3535l-0.0781 0.54687h2.2852q0.23437-2.1191 0.30273-2.9004zm2.002 0q-0.0293 0.39063-0.11718 1.2891l-0.15625 1.6113h2.4902q0.0488-0.94726 0.0781-1.4258 0.0586-1.0449 0.0781-1.4746zm-3.8281-9.6387h9.4336v1.8164h-10.244q-0.79101 1.6113-2.0117 3.0664l-1.3965-1.5234q1.9238-2.2559 2.7344-5.1953l2.0801 0.21485q-0.35156 1.0156-0.5957 1.6211zm-5.3809 2.8418q-1.2012-1.6504-2.9199-3.0957l1.4746-1.4258q1.5918 1.1719 3.0273 2.959zm-0.70313 5.1562q-1.4844-1.9043-2.998-3.1934l1.5234-1.4648q1.6992 1.3379 3.0566 3.0469zm-2.6562 7.666q1.6992-2.3535 3.2227-6.2012l1.7383 1.2402q-1.2695 3.5547-3.2617 6.5234z"/>
  <path d="m372.08 180.14v9.3652h-2.1973v-1.123h-6.2012v1.123h-2.1777v-9.3652zm-8.3984 1.8848v4.4531h6.2012v-4.4531zm-4.6777-6.8457q-1.5039-1.6894-3.2617-2.959l1.3965-1.5625q1.9727 1.2402 3.3203 2.8223zm-1.1035 5.2637q-1.6504-1.8164-3.3398-2.9785l1.4356-1.6211q1.9824 1.2891 3.4473 2.9199zm-3.2226 7.2559q1.9531-2.4121 3.7207-6.2402l1.6602 1.4844q-1.5039 3.7012-3.4961 6.4746zm17.402-8.0371q-3.4082-3.623-5.0195-8.3594l2.0215-0.80078q1.4844 4.1016 4.6191 7.4023zm-12.197-1.5234q2.7344-2.7539 3.916-7.4219l2.0606 0.625q-1.1035 5.0586-4.3945 8.4766z"/>
  <path d="m385.4 173.6h4.4238v-2.3535h2.0801v4.0332h-14.961v-4.0332h2.0801v2.3535h4.2969v-3.0957h2.0801zm-7.002 4.707v2.041q0 3.3789-0.42969 5.2637-0.45898 1.9824-1.7676 3.7305l-1.7188-1.416q0.89844-1.25 1.2598-2.4707 0.49805-1.6797 0.49805-5.2246v-3.6621h17.002v1.7383zm8.3008 3.0566v1.8066h6.6992v1.7383h-6.6992v4.5996h-2.1973v-4.5996h-5.8789v-1.7383h5.8789v-1.8066h-4.8828v-1.6406h12.344v1.6406z"/>
 </g>
</svg>
