<?xml version="1.0" encoding="UTF-8"?>
<svg width="480" height="360" version="1.1" viewBox="0 0 480 360" xmlns="http://www.w3.org/2000/svg">
 <g dominant-baseline="central" fill="#fff" aria-label="カムチャツカ半島付近">
  <path d="m241.56 174.87h5.957q0.0781-2.168 0.0781-3.877h2.2656q-0.0195 2.2266-0.10742 3.877h7.1875q-0.0586 6.9238-0.56641 10.615-0.22461 1.6797-0.9082 2.3047-0.71289 0.64453-2.4512 0.64453-1.2598 0-2.6758-0.20508l-0.36133-2.1973q1.6894 0.30273 2.7637 0.30273 0.74219 0 0.9668-0.22461 0.2539-0.24414 0.41992-1.5234 0.47851-3.7891 0.50781-7.7148h-4.9805q-0.37109 4.0234-1.709 6.4453-1.7383 3.1348-5.2246 5.1172l-1.4844-1.7383q2.1875-1.2012 3.7305-3.0176 1.1621-1.3672 1.7188-3.0957 0.53711-1.6309 0.73242-3.7109h-5.8594z" dominant-baseline="central"/>
  <path d="m259.72 185.27q0.67382-0.01 1.8555-0.0977 2.7832-6.25 5.127-13.76l2.2363 0.58593q-2.3047 7.207-4.9219 13.018 4.9609-0.36133 8.7988-0.87891-1.4453-2.5488-2.9394-4.707l1.9238-1.2207q3.0762 4.2383 5.4004 8.9844l-2.1973 1.1426q-0.53711-1.1328-1.1816-2.3633-5.7031 0.95703-13.623 1.6992z" dominant-baseline="central"/>
  <path d="m286.32 178.12v-3.7598q-2.4805 0.3125-5.5664 0.43945l-0.63476-1.8848q7.7637-0.36133 12.08-1.7774l1.2793 1.7774q-2.1777 0.67382-4.9609 1.123v4.082h7.4609v2.002h-7.5q-0.20508 3.1543-1.5137 5.0879-1.6602 2.4609-4.707 3.7305l-1.416-1.8164q3.0566-1.25 4.3262-3.291 0.91796-1.4746 1.0938-3.7109h-7.7832v-2.002z" dominant-baseline="central"/>
  <path d="m303.31 174.14 0.60547 3.3203 7.1973-1.1621 1.2402 0.91797q-1.1133 4.5996-3.9062 7.1973l-1.5918-1.2793q1.25-1.0156 2.1094-2.4414 0.6836-1.123 0.94727-2.2363l-5.6641 0.9375 1.6211 9.1211-2.002 0.36133-1.6602-9.1602-4.0723 0.68359-0.28321-1.9824 4.0039-0.64453-0.60547-3.291z" dominant-baseline="central"/>
  <path d="m317.02 180.06q-0.91796-3.7793-2.1582-6.5039l2.041-0.95703q1.3672 2.9199 2.2754 6.6406zm5.4004-1.0254q-0.79101-3.3496-2.0605-6.4941l2.0801-0.83984q1.2305 2.7246 2.1191 6.5137zm-3.4961 7.5586q3.584-1.0547 5.5859-2.7637 1.5723-1.3281 2.4707-3.2324 1.4356-3.0176 2.002-8.7012l2.2363 0.625q-0.5664 4.6387-1.4551 7.2656-1.2402 3.6719-3.8867 5.8203-2.2266 1.8066-5.7129 2.8906z" dominant-baseline="central"/>
  <path d="m334.18 174.87h5.957q0.0781-2.168 0.0781-3.877h2.2656q-0.0195 2.2266-0.10742 3.877h7.1875q-0.0586 6.9238-0.56641 10.615-0.22461 1.6797-0.9082 2.3047-0.71289 0.64453-2.4512 0.64453-1.2598 0-2.6758-0.20508l-0.36132-2.1973q1.6894 0.30273 2.7637 0.30273 0.74219 0 0.96679-0.22461 0.25391-0.24414 0.41993-1.5234 0.47851-3.7891 0.50781-7.7148h-4.9805q-0.37109 4.0234-1.709 6.4453-1.7383 3.1348-5.2246 5.1172l-1.4844-1.7383q2.1875-1.2012 3.7305-3.0176 1.1621-1.3672 1.7188-3.0957 0.53711-1.6309 0.73242-3.7109h-5.8594z" dominant-baseline="central"/>
  <path d="m360.67 177.31v-6.8164h2.1973v6.8164h7.4414v1.9434h-7.4414v2.7734h8.4668v1.9824h-8.4668v5.4883h-2.1973v-5.4883h-8.3398v-1.9824h8.3398v-2.7734h-7.3047v-1.9434zm-4.2774-0.63476q-1.2109-2.6856-2.5391-4.4629l2.041-0.9961q1.5039 2.0703 2.6367 4.4727zm8.5742-0.76172q1.543-2.3438 2.4609-4.9219l2.2852 0.89844q-1.1035 2.4219-2.7832 4.8633z" dominant-baseline="central"/>
  <path d="m379.58 171.98q0.36133-0.86914 0.58594-1.6602l2.3828 0.32226q-0.3418 0.81055-0.625 1.3379h6.5039v6.3672h-11.797v0.98633h14.697v1.582h-14.697v0.99609h14.014q-0.12695 4.4727-0.56641 6.0352-0.2832 0.99609-1.0644 1.3184-0.55664 0.23437-1.6992 0.23437-1.1719 0-2.1875-0.14648l-0.39062-1.6406h-9.7852v1.084h-2.0996v-4.6973h2.0996v2.0117h3.3594v-2.6367h-3.8379v-11.494zm4.1504 14.131v-2.0117h2.0215v3.3984q0.81055 0.0781 1.3477 0.0781 0.66406 0 0.83008-0.38085 0.32226-0.7129 0.50781-3.7207h-8.0273v2.6367zm-7.0996-12.627v0.96679h9.6387v-0.96679zm0 2.3633v1.0644h9.6387v-1.0644z" dominant-baseline="central"/>
  <path d="m397.28 175.96v13.545h-2.1191v-10.029q-0.79102 1.1133-1.8359 2.3047l-1.1035-2.0996q1.9824-2.1973 3.3984-5.1172 0.85938-1.7676 1.7188-4.2188l2.041 0.55664q-0.88867 2.6758-2.0996 5.0586zm11.123-0.85937h2.9394v1.9629h-2.9394v10.254q0 1.2891-0.625 1.7188-0.45899 0.32227-1.7285 0.32227-1.5527 0-3.1836-0.17578l-0.41992-2.1387q1.7383 0.2539 3.2422 0.2539 0.41016 0 0.49805-0.17578 0.0586-0.12695 0.0586-0.41992v-9.6387h-7.9883v-1.9629h7.9883v-4.2578h2.1582zm-6.1816 9.4629q-1.1035-2.9395-2.7246-5.3613l1.8652-1.084q1.7578 2.5879 2.8223 5.3027z" dominant-baseline="central"/>
  <path d="m417.35 185.06q0.78125 0.90821 1.7578 1.3477 1.6016 0.72266 4.1992 0.72266h8.3203q-0.35156 0.66406-0.6543 1.9043h-7.7637q-3.3594 0-5.1465-1.0547-0.73243-0.43946-1.6113-1.4356-0.0684 0.0781-0.16602 0.19531-1.4355 1.6992-2.8516 2.7734l-1.1816-2.002q1.5527-0.92774 2.998-2.0996v-4.8242h-2.8418v-1.9238h4.9414zm2.5391-12.959 0.51758-0.0391q4.5215-0.3125 8.125-1.3379l1.5234 1.7188q-3.7891 0.99609-8.0859 1.3476v2.5293h9.043v1.9043h-3.2812v7.959h-2.1582v-7.959h-3.6035q-0.0488 3.1348-0.46875 4.9902-0.38086 1.709-1.25 3.0664l-1.7969-1.3574q0.9668-1.5039 1.2402-3.7305 0.19531-1.5332 0.19531-4.1699zm-3.6133 3.8184q-1.4941-2.1094-3.2227-3.7793l1.6016-1.2793q1.6797 1.4062 3.3789 3.5742z" dominant-baseline="central"/>
 </g>
</svg>
