<svg version="1.1" xmlns="http://www.w3.org/2000/svg" xmlns:xlink="http://www.w3.org/1999/xlink" width="100" height="100" viewBox="0,0,100,100"><g transform="translate(-190,-130)"><g data-paper-data="{&quot;isPaintingLayer&quot;:true}" fill-rule="nonzero" stroke-linecap="butt" stroke-linejoin="miter" stroke-miterlimit="10" stroke-dasharray="" stroke-dashoffset="0" style="mix-blend-mode: normal"><path d="M190,230v-100h100v100z" fill="none" stroke="#959196" stroke-width="0"/><path d="M247.068,176.107c0,2.16 -0.22667,4.17333 -0.68,6.04c-0.42667,1.86667 -1.01333,3.6 -1.76,5.2c-0.74667,1.57333 -1.58667,3 -2.52,4.28c-0.90667,1.25333 -1.85333,2.34667 -2.84,3.28l-2.72,-1.96c0.88,-0.96 1.73333,-1.94667 2.56,-2.96c0.82667,-1.01333 1.56,-2.14667 2.2,-3.4c0.64,-1.28 1.14667,-2.76 1.52,-4.44c0.4,-1.70667 0.6,-3.72 0.6,-6.04zM247.068,173.227v2.72h-3.64v-2.72zM235.948,173.227v2.72h-3.64v-2.72zM232.308,173.227c0,-1.49333 0.32,-2.82667 0.96,-4c0.66667,-1.17333 1.54667,-2.09333 2.64,-2.76c1.12,-0.69333 2.38667,-1.04 3.8,-1.04v3.16c-1.17333,0 -2.09333,0.4 -2.76,1.2c-0.66667,0.8 -1,1.94667 -1,3.44zM247.068,173.227h-3.64c0,-1.49333 -0.33333,-2.64 -1,-3.44c-0.64,-0.8 -1.56,-1.2 -2.76,-1.2v-3.16c1.41333,0 2.66667,0.34667 3.76,1.04c1.12,0.66667 2,1.58667 2.64,2.76c0.66667,1.17333 1,2.50667 1,4zM232.308,175.947h3.64c0,1.46667 0.33333,2.61333 1,3.44c0.66667,0.8 1.58667,1.2 2.76,1.2v3.16c-1.41333,0 -2.68,-0.33333 -3.8,-1c-1.09333,-0.69333 -1.97333,-1.62667 -2.64,-2.8c-0.64,-1.2 -0.96,-2.53333 -0.96,-4zM247.068,175.947c0,1.46667 -0.33333,2.8 -1,4c-0.64,1.17333 -1.52,2.10667 -2.64,2.8c-1.09333,0.66667 -2.34667,1 -3.76,1v-3.16c1.2,0 2.12,-0.4 2.76,-1.2c0.66667,-0.82667 1,-1.97333 1,-3.44z" fill="#ff0505" stroke="none" stroke-width="1"/></g></g></svg>