<?xml version="1.0" encoding="UTF-8"?>
<svg width="480" height="360" version="1.1" viewBox="0 0 480 360" xmlns="http://www.w3.org/2000/svg">
 <g dominant-baseline="central" fill="#fff" aria-label="和歌山県南方沖">
  <path d="m244.35 181.48q-1.1133 2.5391-2.7637 4.6777l-1.2207-2.041q2.4219-2.6074 3.7305-6.0547l0.0488-0.13672h-3.4961v-1.8359h3.7012v-2.7539q-1.4844 0.27344-2.7051 0.42969l-0.82031-1.7188q4.1797-0.50781 7.5586-1.7188l1.1816 1.7188q-1.6895 0.51758-3.1348 0.84961v3.1934h3.1152v1.8359h-3.1152v1.5723q1.8457 1.123 3.3984 2.627l-1.2207 1.9434q-1.0352-1.2988-2.1777-2.4024v7.832h-2.0801zm14.316-9.043v16.514h-2.1191v-1.3965h-4.2383v1.543h-2.0801v-16.66zm-6.3574 1.9824v11.172h4.2383v-11.172z" dominant-baseline="central"/>
  <path d="m269.79 187.54q1.9629-1.7383 2.9394-4.6289 0.5957-1.7578 0.82031-4.0918 0.0781-0.86914 0.0781-1.582v-1.6797h-0.6836q-0.0293 0.12695-0.0781 0.35156-0.45899 2.0801-1.377 3.7305l-1.3184-1.6602q1.416-2.998 1.875-7.5879l1.9238 0.28321q-0.21484 1.6894-0.50781 2.959h5.0098l1.0547 0.85938q-0.67382 2.8223-1.5918 4.9023l-1.7285-0.69336q0.88867-1.9824 1.123-3.1445h-1.8555v1.7383q0 2.8418 1.3477 5.7617 1.0352 2.2461 2.9883 4.2188l-1.2988 2.2266q-1.9629-2.2754-3.3301-5.4102-0.37109-0.83985-0.54687-1.6309-0.78125 4.248-3.7988 7.2363l-1.0645-1.4551q-0.0684 0.73242-0.46875 1.0059-0.38085 0.2539-1.3965 0.2539-1.5137 0-2.3242-0.14648l-0.37109-1.8359 0.41992 0.0293q1.2695 0.0879 1.7676 0.0879 0.36133 0 0.42969-0.15625 0.0586-0.11719 0.0586-0.36133v-5.7227h-7.4805v-1.6602h10.723v1.6602h-1.3379zm-0.18555-14.463v4.9024q0 0.76171-0.30274 1.0644-0.32226 0.32226-1.1523 0.32226-0.72266 0-1.7871-0.12695l-0.18555-0.99609h-4.6094v-4.1406h5.0586v3.6035q0.48828 0.0391 0.78125 0.0391 0.36133 0 0.36133-0.36133v-4.3066h-7.1387v-1.6797h10.234v1.6797zm-6.377 2.3828v1.4062h1.8164v-1.4062zm3.4766 7.0606v4.3164h-3.4766v1.1816h-1.7188v-5.498zm-3.4766 1.3574v1.5625h1.8359v-1.5625z" dominant-baseline="central"/>
  <path d="m291.04 185.42h4.9219v-10.742h2.2168v14.658h-2.2168v-1.7969h-11.943v1.7969h-2.1973v-14.658h2.1973v10.742h4.8047v-14.727h2.2168z" dominant-baseline="central"/>
  <path d="m316.76 170.98v9.4629h-11.621v-9.4629zm-9.5215 1.543v1.2207h7.4023v-1.2207zm0 2.5977v1.2207h7.4023v-1.2207zm0 2.5976v1.2598h7.4023v-1.2598zm-3.9356 4.0234h16.191v1.6992h-8.0762v6.0644h-2.2168v-6.0644h-8.0371v-10.957h2.1387zm-2.5 5.8984q2.3242-1.0742 4.4434-3.6035l1.7969 1.0449q-2.0898 2.6465-4.6387 4.1602zm16.836 1.2598q-1.4941-1.8359-4.4922-3.8574l1.6797-1.1816q2.3535 1.3574 4.6191 3.5644z" dominant-baseline="central"/>
  <path d="m328.92 182.24h-4.043v-1.6016h1.9531q-0.43945-0.9961-0.99609-1.8555l1.7578-0.64453q0.76172 1.2793 1.2305 2.5h2.2949q0.57617-1.1816 1.0156-2.5391l1.9629 0.61524q-0.49805 1.0742-1.0547 1.9238h2.0996v1.6016h-4.1797v1.4258h4.4531v1.6602h-4.4531v3.6914h-2.041v-3.6914h-4.2871v-1.6602h4.2871zm2.0996-6.0156h7.4024v11.416q0 1.0059-0.53711 1.416-0.44922 0.35157-1.5137 0.35157-1.377 0-2.6562-0.14649l-0.47852-1.9629q1.709 0.20508 2.5586 0.20508 0.35156 0 0.41015-0.17578 0.0391-0.10742 0.0391-0.30274v-9.1016h-12.48v11.582h-2.1777v-13.281h7.2754v-1.7676h-8.3594v-1.8164h8.3594v-2.1387h2.1582v2.1387h8.4766v1.8164h-8.4766z" dominant-baseline="central"/>
  <path d="m349.48 175.76q-0.0684 1.6309-0.19531 2.8711h7.8711q-0.14648 6.7774-0.76172 8.7988-0.3125 1.0156-1.1621 1.4062-0.66406 0.30273-1.9434 0.30273-1.3477 0-3.0566-0.20507l-0.38085-2.1973q2.2949 0.32227 3.2324 0.32227 0.79101 0 1.0059-0.44922 0.51757-1.0938 0.72265-6.0352h-5.8105q-0.32227 1.7578-0.90821 3.0469-1.6309 3.5644-5.4492 5.6543l-1.543-1.7188q3.8281-1.9922 5.0586-5.2246 0.82031-2.1582 1.0644-6.5723h-6.4648v-2.002h7.9785v-3.2617h2.2559v3.2617h8.2422v2.002z" dominant-baseline="central"/>
  <path d="m371.58 174.14v-3.6426h2.0996v3.6426h5.293v8.8379h-5.293v6.5234h-2.0996v-6.5234h-5.1856v-8.8379zm-3.1641 1.9434v4.9707h3.1641v-4.9707zm8.4766 4.9707v-4.9707h-3.2129v4.9707zm-12.5-5.7812q-1.1914-1.6602-3.1543-3.1738l1.4551-1.4844q1.9531 1.377 3.3008 3.0859zm-0.63476 5.0195q-1.6992-1.9727-3.3008-3.2324l1.5039-1.5039q1.709 1.2012 3.3789 3.1055zm-3.0371 7.5684q1.875-2.666 3.457-6.6406l1.7383 1.3379q-1.3379 3.6621-3.2617 6.8945z" dominant-baseline="central"/>
 </g>
</svg>
