<svg xmlns="http://www.w3.org/2000/svg" viewBox="0 0 224 388" version="1.1" height="388" width="224">
 <defs>
  <linearGradient gradientUnits="userSpaceOnUse" gradientTransform="matrix(1 0 0 .8 3.5522e-6 226)" y2="20" x2="0" id="linearGradient840-1">
   <stop offset="0" stop-opacity=".1"></stop>
   <stop offset="1" stop-opacity="0"></stop>
  </linearGradient>
 </defs>
 <g fill-rule="evenodd">
  <path stop-color="#000000" fill="#1d2a41" d="m10 224h204l10 2v152c0 5.54-4.46 10-10 10h-204c-5.54 0-10-4.46-10-10v-152z"></path>
  <rect style="paint-order:stroke markers fill" stroke-width="12" stroke-linejoin="round" stroke-linecap="round" stop-color="#000000" opacity=".80769" fill="url(#linearGradient840-1)" height="16" width="224" y="226"></rect>
  <path stop-color="#000000" fill="#31476d" d="m10 194h204c5.54 0 10 4.46 10 10v22h-224v-22c0-5.54 4.46-10 10-10z"></path>
 </g>
 <path style="font-feature-settings:normal;font-variant-alternates:normal;font-variant-caps:normal;font-variant-east-asian:normal;font-variant-ligatures:normal;font-variant-numeric:normal;font-variant-position:normal;font-variation-settings:normal;inline-size:0;isolation:auto;mix-blend-mode:normal;shape-margin:0;shape-padding:0;text-decoration-color:#000000;text-decoration-line:none;text-decoration-style:solid;text-indent:0;text-orientation:mixed;text-transform:none;white-space:normal" stop-color="#000000" shape-rendering="auto" image-rendering="auto" fill="#fff" color-rendering="auto" color="#000000" d="m44.002 202.3v1.7422h-5.9844v3.8164h1.6953v1.0391h4.3359v5.7676c-1.1233-0.5245-1.9897-1.289-2.582-2.3282 0.15366-0.5435 0.3117-1.2073 0.47461-2.0117l0.0215-0.1015-1.9766-0.3047-0.0156 0.1c-0.36229 2.5101-1.271 4.545-2.7246 6.1172l-0.0586 0.064 1.3398 1.6074 0.0762-0.082c0.87439-0.9405 1.6004-2.1392 2.207-3.5449 0.76728 1.0756 1.7231 1.8706 2.8848 2.3496 1.2427 0.5129 2.9243 0.7656 5.0469 0.7656h3.5723l0.0176-0.078c0.12328-0.5702 0.31366-1.1117 0.57031-1.625l0.0723-0.1445h-4.2168c-1.0066 0-1.9302-0.076-2.7832-0.2129v-2.4942h5.3516v-1.6523h-5.3516v-2.1914h4.3906v-1.0391h1.6953v-3.8164h-6.1172v-1.7422zm32.031 0v0.8985h-4.9766v1.2539h4.9766v0.5195h-6.7031v1.3164h6.7031v0.5742h-4.9766v1.2539h4.9766v0.4571h-5.6172v1.2851h5.6172v0.4727h-6.7031v1.3476h15.395v-1.3476h-6.7969v-0.4727h5.8203v-1.2851h-5.8203v-0.4571h5.0391v-1.8281h1.7578v-1.3164h-1.7578v-1.7734h-5.0391v-0.8985zm31.969 0v5.2969h-3.5117v-3.8906h-1.9414v5.6445h5.4531v5.5742h-4.0117v-3.6015h-1.957v6.3789h1.957v-0.9922h10.059v0.9922h1.9726v-6.3789h-1.9726v3.6015h-4.1055v-5.5742h5.5547v-5.6445h-1.9414v3.8906h-3.6133v-5.2969zm40.961 0.016v1.4218h-3.7109v1.4297h-5.9844v1.6059h6.293v-1.461h3.4023v0.9102h-3.1641v1.543h8.3086v-1.543h-3.3594v-0.9102h3.8047v-1.5742h-3.8047v-1.4218zm24.342 0.3066-1.4473 1.1777 0.0801 0.078c1.0695 1.0331 1.958 2.0364 2.6621 3.0097l0.0625 0.088 0.084-0.07 1.4785-1.291-0.0606-0.074c-0.91519-1.1454-1.8474-2.1014-2.7969-2.8672zm-80.707 0.01-1.9336 0.1035 0.0371 0.123c0.18306 0.6166 0.35247 1.1356 0.51367 1.5977h-4.6973v1.7074h5.2988c0.28896 0.7817 0.5709 1.4608 0.84765 2.0586h-6.4199v1.707h7.2305c0.60005 1.1638 1.1982 2.1787 1.7949 3.0274l0.041 0.059 1.9551-0.5664-0.084-0.1153c-0.51709-0.7073-1.0316-1.521-1.5449-2.4043h4.0723v-1.707h-4.9785c-0.34054-0.6982-0.64479-1.3825-0.91992-2.0586h4.8438v-1.707h-5.4648c-0.18523-0.5056-0.37489-1.0837-0.57031-1.75zm-58.396 0.2285h-5.207v1.6157c0 0.5896-0.0359 1.0869-0.10742 1.4902-0.15245 0.8435-0.54263 1.4764-1.1777 1.9199l-0.0976 0.068 1.2793 1.2812 0.0703-0.057c0.66429-0.5368 1.132-1.1987 1.3984-1.9766h2e-3c0.23393-0.7071 0.34765-1.5917 0.34765-2.6562v-0.064h1.7539v3.0332c0 0.4338 0.11361 0.7582 0.36133 0.9395 0.28713 0.2093 0.78718 0.2929 1.5195 0.2929 0.51382 0 0.89998-0.025 1.168-0.08 0.31822-0.063 0.57694-0.1976 0.76367-0.4043 0.18635-0.2063 0.29872-0.4806 0.33984-0.8125 0.0732-0.5456 0.11183-1.1207 0.11719-1.7227v-0.074l-1.6582-0.5234-2e-3 0.1347c-5e-3 0.3238-0.034 0.7851-0.0859 1.3828-0.0101 0.1139-0.0252 0.2036-0.041 0.2637-0.0159 0.06-0.0388 0.088-0.0312 0.082h-6e-3c-0.0264 0.024-0.1569 0.068-0.37695 0.068-0.15526 0-0.25223-0.031-0.28906-0.059h-2e-3c-9.5e-4 0-0.0118-0.015-0.0215-0.055-0.0101-0.041-0.0176-0.1046-0.0176-0.1855zm-11.941 0.018v1.5121h5.1602v-1.5117zm117.74 0v1.5121h4.918v-1.5117zm-21.133 0.078v9.35c0 1.2068 0.2547 2.2011 0.77344 2.9765 0.82282 1.2396 2.2457 1.8575 4.2246 1.8575 1.9008 0 3.4602-0.7434 4.6484-2.2168 0.75803-0.9489 1.3982-2.3661 1.9316-4.2539l0.0215-0.074-1.7656-1.0684-0.0332 0.1289c-0.44627 1.6865-0.95108 2.9282-1.502 3.7187-0.8559 1.2352-1.9331 1.8399-3.2617 1.8399-1.0154 0-1.7604-0.2411-2.252-0.709s-0.74219-1.1725-0.74219-2.1367v-9.4121zm63.459 0.2246h-5.1074v1.7227h3.1992c-0.36027 3.8579-1.7175 6.6241-4.1016 8.2949l-0.0879 0.062 1.3008 1.6035 0.0781-0.062c1.1835-0.9311 2.1708-2.1352 2.9629-3.6093 0.35043-0.648 0.6228-1.4889 0.85352-2.4336 0.27114 0.846 0.64193 1.7357 1.1894 2.7011 0.78557 1.3931 1.6651 2.5237 2.6387 3.3868l0.084 0.072 1.2188-1.7187-0.0684-0.061c-1.1779-1.0281-2.1125-2.238-2.8047-3.6328-0.83756-1.6959-1.2559-3.4343-1.2559-5.2207v-1.1074zm-120.97 0.1426c-1.1633 0-2.236 0.2129-3.2129 0.6406-1.3406 0.5859-2.4319 1.5277-3.2695 2.8183-0.82763 1.2653-1.2422 2.6535-1.2422 4.1563 0 0.9277 0.15239 1.7967 0.45898 2.6055 0.2327 0.624 0.5371 1.1536 0.91602 1.5859 0.59195 0.6826 1.2831 1.0332 2.0527 1.0332 1.0405 0 1.9597-0.7172 2.75-2.0976h2e-3c0.54443-0.9633 0.99886-1.9874 1.3652-3.0704 0.5237-1.5197 0.9322-3.4831 1.2383-5.8379 1.3329 0.2825 2.3304 0.8715 2.9844 1.793 0.60185 0.8416 0.9043 1.8439 0.9043 3.0196 0 1.3485-0.37566 2.4419-1.123 3.2988s-1.8736 1.4793-3.3887 1.8613l-0.1289 0.033 0.0684 0.1152 0.96093 1.6348 0.0723-0.018c1.8508-0.4909 3.2496-1.3211 4.1836-2.4922 0.93395-1.171 1.3984-2.6797 1.3984-4.5117 0-2.1904-0.78649-3.9033-2.3516-5.1035-1.2735-0.9776-2.8239-1.4648-4.6387-1.4648zm102.15 0.092h-6.2461v1.7387h5.3203c-0.24841 0.9418-0.58966 1.9947-1.0391 3.1719-0.86671 0.027-1.6616 0.1469-2.3692 0.3828-1.261 0.4274-2.2059 1.1096-2.8184 2.0469-0.51585 0.7871-0.77344 1.6833-0.77344 2.6796 0 0.8055 0.16786 1.5056 0.50586 2.0957 0.44539 0.7727 1.0958 1.1739 1.9141 1.1739 0.84968 0 1.6148-0.4781 2.2773-1.4004 0.84887-1.1905 1.6883-2.9464 2.5254-5.2188 1.2438 0.2204 2.4744 0.6346 3.6914 1.2364-0.2275 1.0372-0.55954 1.8954-1.0137 2.5371-0.59603 0.8303-1.521 1.5188-2.7852 2.0605l-0.11719 0.049 1.0996 1.4785 0.0723-0.031c1.0915-0.4723 1.9572-1.0205 2.5938-1.6465 0.86797-0.8478 1.4941-2.0348 1.9004-3.5254 0.53985 0.3359 1.0512 0.6717 1.5176 1.0118l0.10352 0.076 0.75-1.8593-0.0684-0.045c-0.69031-0.4416-1.3502-0.8236-1.9824-1.1523 0.11112-1.0107 0.17066-2.2362 0.17578-3.7012v-0.09l-1.916-0.2012 6e-3 0.1152c0.0208 0.4625 0.0312 0.8654 0.0312 1.2071 0 0.603-0.0331 1.2195-0.0879 1.8457-1.0348-0.4505-2.1545-0.7871-3.3652-1 0.33596-0.9149 0.7471-2.2198 1.25-3.9824l0.0176-0.061zm32 0h-6.2461v1.7387h5.3203c-0.24841 0.9418-0.58966 1.9947-1.0391 3.1719-0.86671 0.027-1.6616 0.1469-2.3692 0.3828-1.261 0.4274-2.2059 1.1096-2.8184 2.0469-0.51585 0.7871-0.77344 1.6833-0.77344 2.6796 0 0.8055 0.16786 1.5056 0.50586 2.0957 0.44539 0.7727 1.0958 1.1739 1.9141 1.1739 0.84968 0 1.6148-0.4781 2.2773-1.4004 0.84887-1.1905 1.6883-2.9464 2.5254-5.2188 1.2438 0.2204 2.4744 0.6346 3.6914 1.2364-0.2275 1.0372-0.55954 1.8954-1.0137 2.5371-0.59603 0.8303-1.521 1.5188-2.7852 2.0605l-0.11719 0.049 1.0996 1.4785 0.0723-0.031c1.0915-0.4723 1.9572-1.0205 2.5938-1.6465 0.86797-0.8478 1.4941-2.0348 1.9004-3.5254 0.53985 0.3359 1.0512 0.6717 1.5176 1.0118l0.10352 0.076 0.75-1.8593-0.0684-0.045c-0.69031-0.4416-1.3502-0.8236-1.9824-1.1523 0.11112-1.0107 0.17066-2.2362 0.17578-3.7012v-0.09l-1.916-0.2012 6e-3 0.1152c0.0208 0.4625 0.0312 0.8654 0.0312 1.2071 0 0.603-0.0331 1.2195-0.0879 1.8457-1.0348-0.4505-2.1545-0.7871-3.3652-1 0.33596-0.9149 0.7471-2.2198 1.25-3.9824l0.0176-0.061zm-117.58 1.0371h3.1602v0.5195h-3.1602zm-17.41 0.6543c-0.41076 3.2183-1.1683 5.8264-2.2852 7.791-0.23156 0.4091-0.45002 0.7115-0.65039 0.9082-0.20036 0.1966-0.37665 0.2832-0.52734 0.2832-0.22761 0-0.48149-0.1701-0.75391-0.5586-0.44236-0.6283-0.66992-1.5087-0.66992-2.6465 0-1.5547 0.53172-2.9143 1.5996-4.0957 0.38564-0.4165 0.77125-0.7504 1.1582-1 0.56639-0.3569 1.2937-0.5686 2.1289-0.6816zm-39.156 0.061v1.6078h6.7617v-1.6054zm18.566 0.543h10.207v1.5039h-10.207zm38 0.5781h3.1602v0.5742h-3.1602zm-55.668 1.2774v1.496h5.1602v-1.4941zm117.74 0v1.4964h4.918v-1.496zm-5.0176 0.5703c-0.39352 0-0.75427 0.1107-1.0723 0.33-0.5271 0.3695-0.80078 0.8875-0.80078 1.5196 0 0.4535 0.1523 0.8646 0.45117 1.2187 0.14872 0.1818 0.33329 0.3295 0.54688 0.4395 0.26864 0.1425 0.55426 0.2148 0.85156 0.2148 0.6688 0 1.2043-0.2923 1.5684-0.8574 0.20251-0.3065 0.30468-0.6425 0.30468-1 0-0.5782-0.23355-1.0672-0.68554-1.4375-0.34339-0.2829-0.73622-0.4277-1.1641-0.4277zm10.557 0.5v3.6054h1.7226v-2.0781h5.457v1.9531h1.7695v-3.4804h-0.0996zm25.82 0.1953v1.7383h2.3672v3.4375c-0.76758 0.6874-1.5823 1.2962-2.4453 1.8222l-0.084 0.053 1.1016 1.8632 0.0898-0.072c0.7452-0.5921 1.5425-1.405 2.3867-2.4024 0.44412 0.5226 0.87405 0.9282 1.291 1.1621 1.0224 0.5804 2.4394 0.8633 4.252 0.8633h5.957l0.0156-0.08c0.12373-0.6289 0.29598-1.1758 0.51563-1.6406l0.0684-0.1426h-6.5723c-1.4128 0-2.533-0.1936-3.3574-0.5703-0.43239-0.1916-0.87022-0.5437-1.3086-1.0468v-4.9844zm-143.42 0.5859v1.6367h0.83008c0.4934 1.1283 1.2096 2.1915 2.1289 3.1934-1.019 0.8259-2.0612 1.4248-3.127 1.8047v-3.9317h-5.8476v5.5821h1.7539v-0.8047h4.0938v-0.4043l0.80079 1.2285 0.0801-0.037c1.1652-0.5466 2.3229-1.3105 3.4746-2.2695 0.92638 0.7494 2.1544 1.4882 3.7207 2.2226l0.082 0.039 1.0371-1.7344-0.11133-0.043c-1.284-0.4953-2.3985-1.0963-3.3691-1.7871 0.96324-1.0446 1.8014-2.2946 2.4941-3.7871l0.0312-0.068-0.92578-0.8399zm-5.6797 0.4375v1.4672h5.1602v-1.4648zm117.74 0v1.4653h4.918v-1.4649zm20.877 0.1953c-0.60722 1.5405-1.1611 2.7609-1.6367 3.543-0.24983 0.4108-0.48015 0.716-0.6875 0.9141-0.20736 0.198-0.38694 0.2851-0.53125 0.2851-0.13563 0-0.25729-0.09-0.37891-0.3281h-2e-3c-0.16307-0.3064-0.24609-0.6694-0.24609-1.0938 0-0.5316 0.12031-1.0311 0.36328-1.5019h2e-3c0.34402-0.6677 0.8754-1.1591 1.6074-1.4844 0.41505-0.1893 0.93762-0.2846 1.5098-0.334zm32 0c-0.60722 1.5405-1.1611 2.7609-1.6367 3.543-0.24983 0.4108-0.48015 0.716-0.6875 0.9141-0.20736 0.198-0.38694 0.2851-0.53125 0.2851-0.13563 0-0.25729-0.09-0.37891-0.3281h-2e-3c-0.16307-0.3064-0.24609-0.6694-0.24609-1.0938 0-0.5316 0.12031-1.0311 0.36328-1.5019h2e-3c0.34402-0.6677 0.8754-1.1591 1.6074-1.4844 0.41505-0.1893 0.93762-0.2846 1.5098-0.334zm-42.752 0.7813v5.3422c0 0.4807 0.12621 0.8384 0.40039 1.0351 0.29411 0.2083 0.85642 0.2832 1.7227 0.2832 0.49935 0 0.90037-0.033 1.209-0.1035h2e-3c0.36125-0.088 0.63856-0.2615 0.81055-0.5195 0.28017-0.4203 0.41387-1.3056 0.46094-2.707l2e-3 -0.074-1.6094-0.5605-6e-3 0.1348c-0.0286 0.6336-0.0685 1.1235-0.11718 1.4668-0.0243 0.1716-0.0504 0.3069-0.0781 0.4023-0.0278 0.095-0.0634 0.1499-0.0683 0.1543h-2e-3c-0.0643 0.061-0.26937 0.1211-0.60352 0.1211-0.13957 0-0.26148-0.022-0.36719-0.068-0.0106 0-0.0184-0.01-0.0293-0.035-0.0109-0.026-0.0195-0.074-0.0195-0.1387v-4.7324zm-0.74414 0.027h-1.7715v0.098c-0.0208 1.7603-0.18219 2.9518-0.45899 3.5449-0.34389 0.745-0.9985 1.2834-1.9355 1.6484v-4.0351h-5.4726v5.582h1.7383v-0.8047h3.5918l0.67969 0.9356 0.0723-0.031c1.3605-0.5589 2.3352-1.3937 2.9043-2.5 0.42686-0.8374 0.63474-2.2779 0.65039-4.3418zm-118.76 0.1953h2.8789c-0.2628 0.5942-0.69677 1.254-1.3301 1.9864h-4e-3c-0.63831-0.6095-1.1354-1.2783-1.5449-1.9844zm57.182 0.5801-0.0527 0.059c-0.40862 0.4577-0.61133 1.0612-0.61133 1.793 0 1.3075 0.73737 2.2823 2.1621 2.8808 1.0348 0.4322 2.676 0.6407 4.9375 0.6407 0.8622 0 1.7948-0.036 2.7969-0.1094l0.10156-0.01-0.01-0.1-0.14844-1.7168-0.0996 0.01c-1.1126 0.088-2.0791 0.1328-2.8984 0.1328-1.6354 0-2.8474-0.1326-3.625-0.3867-0.43743-0.1424-0.75867-0.3267-0.9668-0.5469s-0.3086-0.4739-0.3086-0.7793c0-0.3063 0.0767-0.6152 0.23243-0.9316l0.043-0.086zm-16.586 0.4942v5.5742h1.9258v-0.6407h7.7695v0.6407h1.9258v-5.5742h-0.0996zm1.9258 1.2695h7.7695v0.5195h-7.7695zm-49.469 0.2656h2.3242v1.707h-2.3242zm117.8 0h1.9961v1.707h-1.9961zm-68.336 1.4766h7.7695v0.5742h-7.7695z"></path>
 <g aria-label="設定の書き出し・読み込み" fill="#fff" transform="translate(252 -2020)">
  <path d="m-234.54 2266.7v4.0058h-3.582v0.7041h-1.3604v-4.7099zm-3.582 1.1758v1.6679h2.208v-1.6679zm4.8262-9.2764h4.3818v3.3291q0 0.2256 0.0684 0.2803 0.0889 0.068 0.30762 0.068 0.30078 0 0.38965-0.082 0.0684-0.055 0.0957-0.3623 0.0684-0.7861 0.0752-1.2168l1.2783 0.4033q-7e-3 0.7861-0.10253 1.4971-0.10254 0.834-0.89551 0.9912-0.33496 0.068-1.0049 0.068-0.95019 0-1.2783-0.2392-0.28027-0.2051-0.28027-0.752v-2.7412h-1.709v0.1436q0 1.3877-0.30078 2.2969-0.3418 0.998-1.1963 1.6884l-0.99121-0.9912q0.86132-0.6015 1.0664-1.7363 0.0957-0.54 0.0957-1.3193zm3.7188 9.789q1.3057 0.9434 3.042 1.6133l-0.81348 1.3604q-2.085-0.9776-3.2949-1.9688-1.5312 1.2852-3.0762 2.0098l-0.79297-1.2168q1.4971-0.5127 2.9189-1.6816-1.2783-1.3672-1.9414-2.9121h-0.6836v-1.2579h6.1318l0.73828 0.67q-0.92969 2.0029-2.2285 3.3837zm-1.0117-0.8339q0.95703-1.0869 1.3125-1.9619h-2.8574q0.56055 1.0185 1.4697 1.8867zm-8.5996-8.9414h4.3408v1.1484h-4.3408zm-0.78614 2.0029h5.7422v1.2305h-5.7422zm0.78614 2.0986h4.3408v1.1348h-4.3408zm0 2.003h4.3408v1.1074h-4.3408z"></path>
  <path d="m-218.61 2269.4q1.1553 0.1914 2.5225 0.1914h3.5478q-0.3418 0.6836-0.50586 1.4424h-3.0557q-2.7754 0-4.3818-0.6631-1.5586-0.6426-2.5703-2.1192-0.80664 1.9209-1.9824 3.1856l-1.0596-1.2715q1.9277-2.085 2.4062-5.4004l1.5518 0.2393q-0.21875 1.08-0.42382 1.7978 0.82715 1.4697 2.4404 2.1738v-5.291h-3.794v-0.9091h-1.4834v-3.1651h5.2363v-1.5244h1.5244v1.5244h5.3525v3.1651h-1.4834v0.9091h-3.8418v2.0918h4.6826v1.2715h-4.6826zm-5.291-8.5039v1.4902h9.1055v-1.4902z"></path>
  <path d="m-204.66 2269.3q4.0127-1.0117 4.0127-4.6006 0-1.5654-0.80664-2.6933-0.90234-1.2715-2.748-1.6338-0.40332 3.1718-1.1006 5.1953-0.47852 1.415-1.1894 2.6728-1.0254 1.7911-2.3311 1.7911-0.9707 0-1.7295-0.875-0.48535-0.5538-0.78613-1.3604-0.39649-1.0459-0.39649-2.249 0-1.9483 1.0732-3.5889 1.0869-1.6748 2.8232-2.4336 1.2646-0.5537 2.7754-0.5537 2.3584 0 4.0059 1.2647 2.0234 1.5517 2.0234 4.3955 0 4.7646-4.8193 6.0429zm-1.0254-8.9824q-1.21 0.1367-2.0234 0.6494-0.51953 0.335-1.0322 0.8887-1.4219 1.5722-1.4219 3.6435 0 1.5108 0.60156 2.3653 0.36914 0.5263 0.73145 0.5263 0.49218 0 1.1074-1.0869 1.5039-2.6455 2.0371-6.9863z"></path>
  <path d="m-192.13 2258.9v-0.7861h1.4834v0.7861h4.4092v1.5518h1.5381v0.9775h-1.5381v1.5996h-4.4092v0.5743h5.0928v0.9502h-5.0928v0.5878h5.9473v1.0049h-13.296v-1.0049h5.8652v-0.5878h-4.915v-0.9502h4.915v-0.5743h-4.3545v-0.9228h4.3545v-0.6768h-5.8652v-0.9775h5.8652v-0.6289h-4.3545v-0.9229zm4.4229 0.9229h-2.9395v0.6289h2.9395zm0 1.6064h-2.9395v0.6768h2.9395zm1.3604 5.2842v4.7031h-1.5107v-0.5605h-6.9727v0.5605h-1.5107v-4.7031zm-8.4834 0.9365v0.6289h6.9727v-0.6289zm0 1.5244v0.6768h6.9727v-0.6768z"></path>
  <path d="m-182.96 2260h4.1426q-0.22559-0.6357-0.48535-1.5107l1.5107-0.082q0.2666 0.9092 0.51953 1.5928h4.7578v1.3194h-4.2861q0.38965 0.9707 0.88184 1.9755h4.3272v1.3194h-3.6367q0.71777 1.251 1.4424 2.2422l-1.5312 0.4443q-0.79297-1.1279-1.5928-2.6865h-6.2891v-1.3194h5.6602q-0.39648-0.8408-0.81348-1.9755h-4.6074zm9.1123 10.712q-1.3125 0.096-2.4404 0.096-2.96 0-4.2861-0.5537-1.8389-0.7724-1.8389-2.4404 0-0.9365 0.51269-1.5107l1.2236 0.6699q-0.21192 0.4306-0.21192 0.8545 0 0.8613 1.1758 1.2441 1.0459 0.3418 3.1992 0.3418 1.0801 0 2.543-0.1162z"></path>
  <path d="m-162.64 2262.7h3.3359v-3.4043h1.5244v4.7646h-4.8604v5.0518h3.7666v-3.1514h1.5518v5.4072h-1.5518v-0.8681h-8.9756v0.8681h-1.5381v-5.4072h1.5381v3.1514h3.6846v-5.0518h-4.7715v-4.7646h1.5244v3.4043h3.2471v-4.6348h1.5244z"></path>
  <path d="m-154.65 2258.7h1.6133v8.1485q0 2.5771 2.707 2.5771 1.7842 0 2.9258-1.6475 0.73828-1.0595 1.3262-3.2812l1.3877 0.8408q-0.69726 2.4678-1.6748 3.6914-1.5381 1.9072-3.999 1.9072-2.5703 0-3.623-1.5859-0.66309-0.9912-0.66309-2.5566z"></path>
  <path d="m-140.64 2263.2q0.5332 0 0.96387 0.3555 0.56738 0.4649 0.56738 1.1895 0 0.4443-0.25293 0.8271-0.45801 0.711-1.2988 0.711-0.36914 0-0.7041-0.1778-0.2666-0.1367-0.45117-0.3623-0.37598-0.4443-0.37598-1.0117 0-0.793 0.66309-1.2578 0.39648-0.2735 0.88867-0.2735z"></path>
  <path d="m-131.77 2266.7v3.5888q1.3672-0.4853 1.8594-1.5517 0.38281-0.8203 0.41015-3.1377h1.374q-0.0205 2.7002-0.56055 3.7598-0.73144 1.4218-2.4951 2.1464l-0.58789-0.8066v0.01h-3.2676v0.7041h-1.3467v-4.7099zm-3.2676 1.1758v1.6679h1.9209v-1.6679zm6.7197-8.5108v-1.2441h1.3877v1.2441h3.3291v1.2031h-3.3291v0.9707h2.9394v1.1758h-7.0957v-1.1758h2.7686v-0.9707h-3.2471v-1.2031zm4.6621 4.2861v2.8711h-1.374v-1.7089h-4.9492v1.8183h-1.333v-2.9805zm-12.503-5.038h4.1289v1.1484h-4.1289zm-0.64258 2.0029h5.332v1.2305h-5.332zm0.64258 2.0986h4.1289v1.1348h-4.1289zm0 2.003h4.1289v1.1074h-4.1289zm8.8594 0.8544h1.3193v4.0538q0 0.1914 0.0957 0.2324 0.15723 0.068 0.35547 0.068 0.45118 0 0.58789-0.1298 0.18457-0.1641 0.25977-1.8321l1.2373 0.4307q-0.0615 1.832-0.38964 2.3242-0.20508 0.3076-0.65625 0.417-0.38965 0.089-1.0391 0.089-1.1279 0-1.456-0.2325-0.31445-0.2255-0.31445-0.8339z"></path>
  <path d="m-121.06 2259.1h5.3457l0.95703 0.8135q-0.67676 2.3721-1.1211 3.5684 1.7022 0.2871 3.1377 0.9297 0.082-0.8819 0.082-1.7295 0-0.4512-0.0273-1.0596l1.4971 0.1572q-7e-3 1.9551-0.15723 3.2881 0.84766 0.4375 1.7774 1.0322l-0.58789 1.4561q-0.65625-0.4785-1.4219-0.9502-0.52637 2.0303-1.6816 3.1582-0.82031 0.8066-2.2422 1.4219l-0.85449-1.1485q1.6748-0.7177 2.4746-1.832 0.62891-0.8887 0.92969-2.3242-1.6748-0.8408-3.3906-1.1348-1.1142 3.0489-2.2354 4.6211-0.85449 1.1895-1.9209 1.1895-1.0322 0-1.5996-0.9844-0.43066-0.752-0.43066-1.791 0-1.2852 0.66309-2.2969 0.78613-1.2031 2.4199-1.7568 0.94336-0.3145 2.1123-0.3418 0.62891-1.6407 0.96387-2.9395h-4.6894zm3.2334 5.5918q-0.88183 0.048-1.5107 0.335-0.98437 0.4375-1.4492 1.3398-0.32812 0.6358-0.32812 1.3536 0 0.5742 0.22558 0.998 0.1709 0.335 0.41016 0.335 0.95703 0 2.6523-4.3614z"></path>
  <path d="m-99.214 2258.9v0.8818q0 2.3652 1.1074 4.6074 0.91602 1.8457 2.4746 3.2061l-0.96387 1.3603q-1.2646-1.1211-2.29-2.9394-0.7793-1.3741-1.1279-2.5567-0.31446 1.4014-0.81348 2.3242-1.0322 1.9209-2.5703 3.1309l-1.0254-1.2646q3.1992-2.2422 3.6504-7.417h-2.8232v-1.333zm-5.9404 9.2558q0.59473 0.6904 1.1963 0.9571 1.1074 0.5058 2.9736 0.5058h5.6123q-0.29395 0.6221-0.45801 1.4561h-5.1406q-2.3652 0-3.6777-0.7452-0.56054-0.3144-1.1758-1.0595-1.1416 1.3603-2.1396 2.1533l-0.86816-1.4697q1.1553-0.7041 2.1807-1.627v-3.1377h-2.0713v-1.3467h3.5684zm-0.75195-6.1523q-0.92969-1.2852-2.3379-2.6455l1.1348-0.9229q1.2373 0.9981 2.4336 2.4951z"></path>
  <path d="m-93.062 2259.1h5.3457l0.95703 0.8135q-0.67676 2.3721-1.1211 3.5684 1.7021 0.2871 3.1377 0.9297 0.08203-0.8819 0.08203-1.7295 0-0.4512-0.02734-1.0596l1.4971 0.1572q-0.0068 1.9551-0.15723 3.2881 0.84766 0.4375 1.7773 1.0322l-0.58789 1.4561q-0.65625-0.4785-1.4219-0.9502-0.52637 2.0303-1.6816 3.1582-0.82031 0.8066-2.2422 1.4219l-0.85449-1.1485q1.6748-0.7177 2.4746-1.832 0.62891-0.8887 0.92969-2.3242-1.6748-0.8408-3.3906-1.1348-1.1143 3.0489-2.2354 4.6211-0.85449 1.1895-1.9209 1.1895-1.0322 0-1.5996-0.9844-0.43066-0.752-0.43066-1.791 0-1.2852 0.66309-2.2969 0.78613-1.2031 2.4199-1.7568 0.94336-0.3145 2.1123-0.3418 0.62891-1.6407 0.96387-2.9395h-4.6895zm3.2334 5.5918q-0.88184 0.048-1.5107 0.335-0.98438 0.4375-1.4492 1.3398-0.32812 0.6358-0.32812 1.3536 0 0.5742 0.22559 0.998 0.1709 0.335 0.41016 0.335 0.95703 0 2.6523-4.3614z"></path>
 </g>
 <g aria-label="設定のリセット" fill="#fff" transform="translate(252 -2020)">
  <path d="m-234.54 2342.7v4.0058h-3.582v0.7041h-1.3604v-4.7099zm-3.582 1.1758v1.6679h2.208v-1.6679zm4.8262-9.2764h4.3818v3.3291q0 0.2256 0.0684 0.2803 0.0889 0.068 0.30762 0.068 0.30078 0 0.38965-0.082 0.0684-0.055 0.0957-0.3623 0.0684-0.7861 0.0752-1.2168l1.2783 0.4033q-7e-3 0.7861-0.10253 1.4971-0.10254 0.834-0.89551 0.9912-0.33496 0.068-1.0049 0.068-0.95019 0-1.2783-0.2392-0.28027-0.2051-0.28027-0.752v-2.7412h-1.709v0.1436q0 1.3877-0.30078 2.2969-0.3418 0.998-1.1963 1.6884l-0.99121-0.9912q0.86132-0.6015 1.0664-1.7363 0.0957-0.54 0.0957-1.3193zm3.7188 9.789q1.3057 0.9434 3.042 1.6133l-0.81348 1.3604q-2.085-0.9776-3.2949-1.9688-1.5312 1.2852-3.0762 2.0098l-0.79297-1.2168q1.4971-0.5127 2.9189-1.6816-1.2783-1.3672-1.9414-2.9121h-0.6836v-1.2579h6.1318l0.73828 0.67q-0.92969 2.0029-2.2285 3.3837zm-1.0117-0.8339q0.95703-1.0869 1.3125-1.9619h-2.8574q0.56055 1.0185 1.4697 1.8867zm-8.5996-8.9414h4.3408v1.1484h-4.3408zm-0.78614 2.0029h5.7422v1.2305h-5.7422zm0.78614 2.0986h4.3408v1.1348h-4.3408zm0 2.003h4.3408v1.1074h-4.3408z"></path>
  <path d="m-218.61 2345.4q1.1553 0.1914 2.5225 0.1914h3.5478q-0.3418 0.6836-0.50586 1.4424h-3.0557q-2.7754 0-4.3818-0.6631-1.5586-0.6426-2.5703-2.1192-0.80664 1.9209-1.9824 3.1856l-1.0596-1.2715q1.9277-2.085 2.4062-5.4004l1.5518 0.2393q-0.21875 1.08-0.42382 1.7978 0.82715 1.4697 2.4404 2.1738v-5.291h-3.794v-0.9091h-1.4834v-3.1651h5.2363v-1.5244h1.5244v1.5244h5.3525v3.1651h-1.4834v0.9091h-3.8418v2.0918h4.6826v1.2715h-4.6826zm-5.291-8.5039v1.4902h9.1055v-1.4902z"></path>
  <path d="m-204.66 2345.3q4.0127-1.0117 4.0127-4.6006 0-1.5654-0.80664-2.6933-0.90234-1.2715-2.748-1.6338-0.40332 3.1718-1.1006 5.1953-0.47852 1.415-1.1894 2.6728-1.0254 1.7911-2.3311 1.7911-0.9707 0-1.7295-0.875-0.48535-0.5538-0.78613-1.3604-0.39649-1.0459-0.39649-2.249 0-1.9483 1.0732-3.5889 1.0869-1.6748 2.8232-2.4336 1.2646-0.5537 2.7754-0.5537 2.3584 0 4.0059 1.2647 2.0234 1.5517 2.0234 4.3955 0 4.7646-4.8193 6.0429zm-1.0254-8.9824q-1.21 0.1367-2.0234 0.6494-0.51953 0.335-1.0322 0.8887-1.4219 1.5722-1.4219 3.6435 0 1.5108 0.60156 2.3653 0.36914 0.5263 0.73145 0.5263 0.49218 0 1.1074-1.0869 1.5039-2.6455 2.0371-6.9863z"></path>
  <path d="m-196.81 2334.7h1.5928v7.4785h-1.5928zm7.0205-0.1435h1.5928v4.8877q0 2.5771-0.41699 3.8349-0.34863 1.0733-0.95019 1.709-1.251 1.3467-4.0195 1.9893l-0.78614-1.4014q3.0283-0.6152 3.8828-2.044 0.54003-0.9091 0.64941-2.2968 0.0478-0.6426 0.0478-1.7774z"></path>
  <path d="m-182.87 2334.5h1.5654v3.2197l6.5693-0.8818 0.85449 0.8544q-0.75879 2.1192-1.8389 3.4249-0.73828 0.8955-1.75 1.5175l-1.1895-0.9912q1.1895-0.6631 2.0234-1.7431 0.58106-0.752 0.84766-1.5518l-5.5166 0.7998v4.7168q0 0.8135 0.56054 0.9707 0.48535 0.1436 2.1465 0.1436 1.8867 0 3.917-0.2051v1.5586q-1.8525 0.1367-3.8213 0.1367-2.7275 0-3.3906-0.2734-0.97753-0.3965-0.97753-1.8936v-4.9287l-2.8711 0.417-0.15039-1.4561 3.0215-0.4033z"></path>
  <path d="m-170.84 2342q-0.49219-2.1055-1.333-3.8897l1.2988-0.6357q0.86816 1.7773 1.415 3.9922zm3.1719-0.6153q-0.38281-1.6748-1.2578-3.8759l1.3467-0.5606q0.78613 1.7295 1.3125 3.917zm-2.126 4.252q2.2832-0.6084 3.4863-1.6406 1.2031-1.0323 1.832-2.9805 0.49219-1.5449 0.71777-3.9717l1.4561 0.4307q-0.41016 3.206-1.1416 4.915-0.88867 2.0918-2.666 3.2266-1.1279 0.7246-2.8848 1.2851z"></path>
  <path d="m-159.12 2334.5h1.5928v3.9239q4.081 1.2578 6.7607 2.5703l-0.76563 1.4766q-2.5703-1.3057-5.9951-2.4815v6.9453h-1.5928z"></path>
 </g>
</svg>
