<svg version="1.1" xmlns="http://www.w3.org/2000/svg" xmlns:xlink="http://www.w3.org/1999/xlink" width="208" height="32" viewBox="0,0,208,32"><g transform="translate(-240,-164)"><g data-paper-data="{&quot;isPaintingLayer&quot;:true}" fill-rule="nonzero" stroke="none" stroke-linecap="butt" stroke-linejoin="miter" stroke-miterlimit="10" stroke-dasharray="" stroke-dashoffset="0" style="mix-blend-mode: normal"><path d="M240,196v-32h208v32z" fill="none" stroke-width="0"/><path d="M245.45,179.12c0.86587,0.59896 1.6764,1.24676 2.4316,1.9434v-0.79101h11.123v9.2285h-1.9629v-0.82031h-7.1777v0.82031h-1.9824v-8.1836l-1.0156,1.6113c-0.48177,-0.57292 -0.95377,-1.08399 -1.416,-1.5332v8.1055h-2.0606v-7.998c-0.77473,0.8724 -1.49087,1.6146 -2.1484,2.2266l-1.0156,-1.8555c2.18747,-1.91407 3.8411,-4.01367 4.9609,-6.2988h-4.5215v-1.9434h2.6367v-3.1348h2.0801v3.1348h1.5039l0.89843,0.9375c-0.61198,1.40627 -1.38998,2.81577 -2.334,4.2285zM249.8641,181.8544v1.8164h2.6465v-1.8164zM249.8641,185.1747v1.8848h2.6465v-1.8848zM257.0418,187.0595v-1.8848h-2.7344v1.8848zM257.0418,183.6708v-1.8164h-2.7344v1.8164zM258.0672,174.1786v4.9609h-9.3262v-4.9609zM250.7039,175.6825v1.9727h5.3418v-1.9727zM247.5887,171.2977h11.699v1.6992h-11.699z" fill="#ffffff" stroke-width="1"/><path d="M273.12,184.26v-4.2188h1.8555v5.9766h-8.1445v1.3184h-1.8555v-7.2949h1.8555v4.2188h2.1582v-5.498h-5.0098v-1.7578h6.9531c0.65104,-1.13933 1.21094,-2.4056 1.6797,-3.7988l2.0215,0.70313c-0.55989,1.1784 -1.14256,2.2103 -1.748,3.0957h3.1543v1.7578h-5.1953v5.498zM278.6766,171.184v16.357c0,0.65755 -0.17578,1.12955 -0.52734,1.416c-0.33855,0.27343 -0.92775,0.41015 -1.7676,0.41015c-0.65755,0 -1.78059,-0.05534 -3.3691,-0.16601l-0.49805,-2.0606c1.1328,0.13672 2.24283,0.20508 3.3301,0.20508c0.36458,0 0.57942,-0.06185 0.64453,-0.18555c0.0456,-0.08463 0.0684,-0.25065 0.0684,-0.49804v-13.643h-13.105v16.484h-2.1191v-18.32zM266.6946,176.9555c-0.4362,-1.04167 -0.931,-1.9922 -1.4844,-2.8516l1.8262,-0.78125c0.61197,0.89193 1.12304,1.82943 1.5332,2.8125z" fill="#ffffff" stroke-width="1"/><path d="M296.76,170.98v9.4629h-11.621v-9.4629zM287.2385,172.523v1.2207h7.4023v-1.2207zM287.2385,175.1207v1.2207h7.4023v-1.2207zM287.2385,177.7183v1.2598h7.4023v-1.2598zM283.3029,181.7417h16.191v1.6992h-8.0762v6.0644h-2.2168v-6.0644h-8.0371v-10.957h2.1387zM280.8029,187.6401c1.54947,-0.71613 3.0306,-1.9173 4.4434,-3.6035l1.7969,1.0449c-1.3932,1.76433 -2.93943,3.15107 -4.6387,4.1602zM297.6389,188.8999c-0.99607,-1.22393 -2.49347,-2.50973 -4.4922,-3.8574l1.6797,-1.1816c1.569,0.90493 3.1087,2.09307 4.6191,3.5644z" fill="#ffffff" stroke-width="1"/><path d="M305.45,179.12c0.86587,0.59896 1.6764,1.24676 2.4316,1.9434v-0.79101h11.123v9.2285h-1.9629v-0.82031h-7.1777v0.82031h-1.9824v-8.1836l-1.0156,1.6113c-0.48177,-0.57292 -0.95377,-1.08399 -1.416,-1.5332v8.1055h-2.0606v-7.998c-0.77473,0.8724 -1.49087,1.6146 -2.1484,2.2266l-1.0156,-1.8555c2.18747,-1.91407 3.8411,-4.01367 4.9609,-6.2988h-4.5215v-1.9434h2.6367v-3.1348h2.0801v3.1348h1.5039l0.89843,0.9375c-0.61198,1.40627 -1.38998,2.81577 -2.334,4.2285zM309.8641,181.8544v1.8164h2.6465v-1.8164zM309.8641,185.1747v1.8848h2.6465v-1.8848zM317.0418,187.0595v-1.8848h-2.7344v1.8848zM317.0418,183.6708v-1.8164h-2.7344v1.8164zM318.0672,174.1786v4.9609h-9.3262v-4.9609zM310.7039,175.6825v1.9727h5.3418v-1.9727zM307.5887,171.2977h11.699v1.6992h-11.699z" fill="#ffffff" stroke-width="1"/><path d="M333.12,184.26v-4.2188h1.8555v5.9766h-8.1445v1.3184h-1.8555v-7.2949h1.8555v4.2188h2.1582v-5.498h-5.0098v-1.7578h6.9531c0.65104,-1.13933 1.21094,-2.4056 1.6797,-3.7988l2.0215,0.70313c-0.55989,1.1784 -1.14256,2.2103 -1.748,3.0957h3.1543v1.7578h-5.1953v5.498zM338.6766,171.184v16.357c0,0.65755 -0.17578,1.12955 -0.52734,1.416c-0.33855,0.27343 -0.92775,0.41015 -1.7676,0.41015c-0.65755,0 -1.78059,-0.05534 -3.3691,-0.16601l-0.49805,-2.0606c1.1328,0.13672 2.24283,0.20508 3.3301,0.20508c0.36458,0 0.57942,-0.06185 0.64453,-0.18555c0.0456,-0.08463 0.0684,-0.25065 0.0684,-0.49804v-13.643h-13.105v16.484h-2.1191v-18.32zM326.6946,176.9555c-0.4362,-1.04167 -0.931,-1.9922 -1.4844,-2.8516l1.8262,-0.78125c0.61197,0.89193 1.12304,1.82943 1.5332,2.8125z" fill="#ffffff" stroke-width="1"/></g></g></svg>