<?xml version="1.0" encoding="UTF-8"?>
<svg width="480" height="360" version="1.1" viewBox="0 0 480 360" xmlns="http://www.w3.org/2000/svg">
 <g fill="#fff" aria-label="佐渡">
  <path d="m244.81 184.03q1.8066-1.9531 3.3203-5.1953 0.61523-1.3184 1.1523-3.2812h-3.3301v-1.9434h3.7891q0.38085-1.8457 0.5664-3.2227l2.1289 0.32227q-0.19531 1.3477-0.51758 2.9004h7.2559v1.9434h-7.7148l-0.0684 0.24414q-0.57618 2.1582-1.3281 3.8965h8.3106v1.8359h-4.1211v5.2441h5.2344v1.9434h-12.939v-1.9434h5.5469v-5.2441h-2.9297q-1.3965 2.5391-3.0566 4.2383l-1.2988-1.5625v5.332h-2.0801v-10.059q-0.6543 1.1328-1.582 2.4316l-0.97657-2.1777q1.582-2.2168 2.7148-5.2148 0.64453-1.6992 1.3476-4.1699l2.0801 0.51758q-0.71289 2.4609-1.5039 4.375z"/>
  <path d="m276.39 173.9v1.582h2.8027v1.582h-2.8027v2.9297h-6.3184v-2.9297h-1.9434v0.83984q0 4.4043-0.42969 6.8262-0.47852 2.6367-1.9238 4.8438l-1.6211-1.4648q0.96679-1.6406 1.3672-3.1641 0.63476-2.4512 0.63476-7.041v-5.6445h5.2539v-1.7578h2.0801v1.7578h5.498v1.6406zm-1.9238 0h-2.4902v1.582h2.4902zm-4.3945 0h-1.9434v1.582h1.9434zm4.3945 3.1641h-2.4902v1.5527h2.4902zm0.68359 9.0039q1.7285 0.87891 4.541 1.5527l-1.0156 1.8652q-2.832-0.80078-5.0976-2.2363-2.1387 1.4062-5.3223 2.3926l-1.0644-1.7578q2.8027-0.56641 4.9023-1.7773-1.4648-1.3672-2.5098-3.2422h-1.1524v-1.6797h8.9844l0.99609 0.9375q-1.5039 2.4121-3.2617 3.9453zm-1.5527-1.0156q1.3867-1.1426 2.0801-2.1875h-4.1406q0.82031 1.1328 2.0606 2.1875zm-9.7852-10.01q-1.1035-1.582-2.7734-3.0371l1.4746-1.3672q1.4062 1.0547 2.8809 2.8808zm-0.57617 5.0195q-1.4062-1.8652-2.8613-3.1641l1.5039-1.3965q1.5625 1.2598 2.9394 3.0176zm-2.6856 7.9395q1.6504-2.7344 3.0664-6.7969l1.7383 1.1133q-1.1133 3.6133-2.998 7.1875z"/>
 </g>
</svg>
