<svg version="1.1" xmlns="http://www.w3.org/2000/svg" xmlns:xlink="http://www.w3.org/1999/xlink" width="76.58692" height="85.28458" viewBox="0,0,76.58692,85.28458"><g transform="translate(19.62633,-165.5227)"><g data-paper-data="{&quot;isPaintingLayer&quot;:true}" fill="#ff0000" fill-rule="evenodd" stroke="none" stroke-width="0" stroke-linecap="round" stroke-linejoin="round" stroke-miterlimit="10" stroke-dasharray="" stroke-dashoffset="0" style="mix-blend-mode: normal"><path d="M51.81077,197.75044l0.50998,1.64693l0.02,2.12691l-1.34994,1.26895l-0.1,1.23495l-0.64997,1.74393l-0.73997,0.91096l-0.21999,1.21995l0.92996,2.11591l-0.78996,0.49998l-0.13999,1.41994l-0.82997,0.58998l-0.14999,1.61993l0.73997,0.81996l-0.13999,0.94997l1.33995,1.16995l0.49998,2.31991l2.6299,2.21991l2.61989,0.58997l0.96996,2.05992l-0.69997,0.81996l-2.73989,1.42995l-0.45999,1.73993l-1.13995,2.91988l-0.77997,-0.81997l-0.94997,0.65998l-0.71997,2.13991l-1.66993,-1.02996l-1.54994,0.81996l0.06,0.71997l-1.25995,0.37999l-0.61997,0.90996l-1.83993,0.27999l-0.91996,-1.07995l-1.50994,1.18995l-0.64997,-0.52998l-1.13996,0.77997l0.11,2.83988l-0.75997,0.11l-2.72989,1.67994l0.17,1.48994l-0.50998,1.36994l-2.85988,3.43986l-0.76997,-0.59997l-1.73993,1.81993l-0.97996,-0.35998l-2.02992,1.77992l-1.68993,0.60997l-1.06996,-0.61997l-1.53994,1.63993l-0.48998,-0.58997l-1.63993,-0.63997l-0.24999,-1.02996l-1.93992,-3.94984l-1.95992,-0.97996l-0.07,-1.06996l-3.56985,-2.02992l-1.10995,-1.25995l-1.75993,-1.49994l-2.37991,0.76997l-0.63997,-0.31999l-3.07988,0.09999l-0.99996,-0.44998l-0.48998,-1.07995l-1.39995,-1.45995l-0.92997,1.73993l-0.62998,0.47998l-0.61997,1.54994l-0.96996,0.12l-2.11991,1.01996l-0.91997,2.63989l-0.79996,-0.52998l-0.38998,-1.19995l-0.67998,-0.35998l-1.77992,3.53985l-1.11996,-0.53998l-0.09,-2.3999l0.78997,-0.78997l-0.97996,-2.13992l0.25999,-1.83992l-1.53994,-1.18995l-0.40999,-2.5599l-1.24995,-0.79997l0.08,-1.19995l-1.65994,-0.47998l-1.77993,-1.21995l-0.69997,-1.29995l0.07,-1.51994l-1.20995,-1.11996l-0.43998,-1.46994l0.96996,-1.09995l0.07999,-0.87997l1.44994,-0.71997l-0.13999,-1.93993l-0.45998,-1.03996l8.54966,-5.97976l-1.92992,-2.79888l-0.88996,-0.62698l-0.39998,-1.35594l-1.35995,-0.76697l-1.18995,-0.73497l1.01996,-1.77693l1.22995,-1.46794l0.92997,0.32399l0.35998,-2.34891l1.29995,-1.15396l-0.48998,-1.06795l1.83993,-1.00596l-1.34995,-2.26191l0.52998,-1.61293l-1.58993,-1.40994l0.71997,-0.95296l-0.17999,-1.67694l-3.42987,0.35498l-0.87996,-0.86397l-0.25999,-2.5199l-0.73997,-1.42494l0.31999,-1.74693l-0.74997,-1.43394l-1.43994,-1.29895l1.32994,-1.31495l0.02,-2.76489l2.3899,-1.43094l2.15992,-2.08291l0.35998,-1.04396l1.45994,-1.67793l0.21,-0.90696l1.43994,-0.43698l1.53994,-1.42894l1.09995,-1.46695l1.02996,0.41699l0.93996,-0.79797l1.07996,1.76293l-1.22995,1.18896l1.55994,2.00392l-0.22999,1.76893l1.02996,2.07592l1.32995,0.40898l1.55993,1.84193l2.5399,0.09199l2.18991,-1.38795l0.23999,-1.62694l3.40986,0.74797l0.14999,-0.73197l4.61982,1.17595l0.95996,-0.166l1.34995,1.27295l0.53998,1.00696l0.99996,-0.36399l2.36991,0.99396l1.16996,-1.51394l0.40998,-1.18095l1.33995,-0.45398l2.3599,-3.18987l1.24995,-0.068l1.22995,1.01996l0.79997,4.38583l0.95996,1.24795l-0.69997,0.99296l0.60998,0.85697l-1.17995,1.18095l1.43994,1.70594l-0.42998,1.24195l-0.90996,0.96096l-0.41998,1.58293l1.64993,2.17092l1.63994,0.71297l-0.21999,1.79893l1.20995,0.64598l0.50998,1.63793l1.96992,4.83181l1.03996,0.35298l1.54994,-0.46598l0.51998,-0.70497l1.64993,0.30199l0.27999,0.76997l1.79993,0.94996l0.58998,0.94396l2.79988,-0.65997l0.85997,0.44798l1.80993,-0.58598l0.45998,-1.41494l0.89997,0.19499l2.21991,-0.53498"/></g></g></svg>