<svg version="1.1" xmlns="http://www.w3.org/2000/svg" xmlns:xlink="http://www.w3.org/1999/xlink" width="208" height="32" viewBox="0,0,208,32"><g transform="translate(-240,-164)"><g data-paper-data="{&quot;isPaintingLayer&quot;:true}" fill-rule="nonzero" stroke="none" stroke-linecap="butt" stroke-linejoin="miter" stroke-miterlimit="10" stroke-dasharray="" stroke-dashoffset="0" style="mix-blend-mode: normal"><path d="M240,196v-32h208v32z" fill="none" stroke-width="0"/><path d="M251.01,172.46h8.0566v1.8555h-18.154v-1.8555h7.9394v-1.9629h2.1582zM257.0354,175.9561v6.377h-5.7617v5.4883c0,0.55989 -0.1237,0.96679 -0.3711,1.2207c-0.29297,0.30599 -0.87563,0.45898 -1.748,0.45898c-0.93747,0 -1.8717,-0.04883 -2.8027,-0.14648l-0.43945,-2.002c0.89847,0.13671 1.80017,0.20507 2.7051,0.20507c0.25391,0 0.4069,-0.06185 0.45898,-0.18554c0.02607,-0.0586 0.0391,-0.14324 0.0391,-0.25391v-4.7852h-6.1621v-6.377zM245.1894,177.7139v2.8613h9.6094v-2.8613zM257.5334,188.6809c-1.17187,-1.71873 -2.4707,-3.27473 -3.8965,-4.668l1.5723,-1.2402c1.3932,1.25 2.74087,2.7181 4.043,4.4043zM240.4534,187.2942c1.62107,-1.12627 2.89387,-2.54553 3.8184,-4.2578l1.9043,0.99609c-0.944,1.862 -2.33723,3.4896 -4.1797,4.8828z" fill="#ffffff" stroke-width="1"/><path d="M267.18,176.3c1.0742,-1.36067 1.99867,-2.92643 2.7734,-4.6973l1.7188,0.87891c-0.83987,1.52993 -1.61787,2.80273 -2.334,3.8184h2.0508v1.7578h-3.8281c-0.03253,0.03253 -0.0651,0.0716 -0.0977,0.11719c-0.32552,0.41667 -0.86912,0.99283 -1.6308,1.7285h4.4629v9.3359h-1.9043v-0.74219h-3.8965v1.0059h-1.9629v-6.8652c-0.44921,0.3125 -0.91145,0.61523 -1.3867,0.9082l-0.97657,-1.6797c0.69013,-0.35807 1.42907,-0.82681 2.2168,-1.4062c1.14587,-0.84633 2.0736,-1.6471 2.7832,-2.4023h-4.6777v-1.7578h3.8965v-1.9434h-2.8027v-1.7188h2.8027v-2.1387h1.9434v2.1387h2.1387v1.7188h-2.1387v1.9434zM264.4944,181.4855v1.8555h3.8965v-1.8555zM264.4944,184.923v1.9531h3.8965v-1.9531zM276.8674,178.1945c1.62107,1.9336 2.4316,3.84767 2.4316,5.7422c0,0.97653 -0.19206,1.6992 -0.57617,2.168c-0.36458,0.44921 -0.96678,0.67382 -1.8066,0.67382c-0.69013,0 -1.39327,-0.04557 -2.1094,-0.13672l-0.43945,-2.041c0.74867,0.14974 1.38993,0.22461 1.9238,0.22461c0.39713,0 0.64778,-0.08464 0.75195,-0.25391c0.09766,-0.14974 0.14649,-0.41992 0.14649,-0.81054c0,-1.30207 -0.4655,-2.65297 -1.3965,-4.0527c-0.26041,-0.39713 -0.60221,-0.82683 -1.0254,-1.2891c0.69013,-1.49087 1.25653,-3.17057 1.6992,-5.0391h-2.4805v16.123h-2.002v-18.066h5.7422l1.1328,0.98632c-0.59896,2.2526 -1.26303,4.17643 -1.9922,5.7715z" fill="#ffffff" stroke-width="1"/><path d="M291.6,172.66h7.4024v1.8359h-15.146v4.2188c0,0.96353 -0.01303,1.80337 -0.0391,2.5195c1.38673,-1.65367 2.53907,-3.8249 3.457,-6.5137l2.0312,0.45898c-0.35156,0.98307 -0.78776,1.97917 -1.3086,2.9883v11.338h-2.0801v-7.9297c-0.4362,0.60547 -0.87567,1.17513 -1.3184,1.709l-0.79101,-1.8066c-0.07162,1.67967 -0.21811,3.11197 -0.43946,4.2969c-0.25391,1.35413 -0.67057,2.59763 -1.25,3.7305l-1.7383,-1.5625c0.53385,-1.21747 0.90169,-2.59767 1.1035,-4.1406c0.18229,-1.41273 0.27343,-3.14777 0.27343,-5.2051v-5.9375h7.627v-2.1582h2.2168zM294.598,177.9823v-2.8809h2.0996v2.8809h2.8027v1.8555h-2.8027v7.7051c0,0.8268 -0.23763,1.36067 -0.71289,1.6016c-0.27344,0.14323 -0.72591,0.21485 -1.3574,0.21485c-1.0156,0 -1.9466,-0.05208 -2.793,-0.15625l-0.41992,-1.9824c1.05467,0.14974 1.91403,0.22461 2.5781,0.22461c0.29297,0 0.47201,-0.04883 0.53711,-0.14649c0.0456,-0.07813 0.0684,-0.2181 0.0684,-0.41992v-7.041h-5.957v-1.8555zM291.8148,185.4823c-0.82033,-1.6016 -1.65367,-2.95577 -2.5,-4.0625l1.6797,-1.0156c1.0612,1.34767 1.89453,2.65953 2.5,3.9356z" fill="#ffffff" stroke-width="1"/></g></g></svg>