<svg version="1.1" xmlns="http://www.w3.org/2000/svg" xmlns:xlink="http://www.w3.org/1999/xlink" width="100" height="100" viewBox="0,0,100,100"><g transform="translate(-190,-130)"><g data-paper-data="{&quot;isPaintingLayer&quot;:true}" fill-rule="nonzero" stroke-linecap="butt" stroke-linejoin="miter" stroke-miterlimit="10" stroke-dasharray="" stroke-dashoffset="0" style="mix-blend-mode: normal"><path d="M190,230v-100h100v100z" fill="none" stroke="#959196" stroke-width="0"/><path d="M229.091,171.378c-0.5198,0.85397 -1.1881,1.8332 -2.0049,2.9378v19.367h-3.1884v-15.594c-2.8125,3.0167 -6.1495,5.6296 -10.011,7.8388l-1.9075,-2.6036c5.9218,-3.2395 10.396,-7.2215 13.422,-11.946h-12.545v-2.9656h25.465v2.9656zM236.9576,185.204c-2.6361,-2.7661 -5.7456,-5.5043 -9.3284,-8.2147l2.172,-2.1024c3.6943,2.5804 6.8317,5.1655 9.4123,7.7552z" fill="#ff0000" stroke="none" stroke-width="1"/><path d="M257.087,183.687c-0.13923,1.9586 -0.51516,3.6618 -1.1278,5.1098c-0.75186,1.7821 -2.1256,3.4668 -4.1213,5.0541l-2.2556,-2.2556c1.3273,-0.90964 2.3252,-1.9307 2.9935,-3.0631c1.086,-1.8379 1.629,-4.2976 1.629,-7.3793v-13.533h12.085v23.126c0,1.0118 -0.26454,1.7265 -0.79362,2.1441c-0.42698,0.33415 -1.1278,0.50123 -2.1024,0.50123c-1.3645,0 -2.7057,-0.0557 -4.0238,-0.16708l-0.51515,-2.9935c1.2531,0.20421 2.4133,0.30631 3.4808,0.30631c0.43625,0 0.71008,-0.10674 0.82147,-0.32024c0.0743,-0.14851 0.11139,-0.37593 0.11139,-0.68224v-5.8477zM257.19839,181.1252h6.0705v-4.2187h-6.0705v3.9402v0.27847zM257.19839,174.3724h6.0705v-4.0378h-6.0705zM252.04679,167.7032v19.59h-7.3653v2.7986h-3.0213v-22.388zM244.68149,170.3208v5.7363h4.4832v-5.7363zM244.68149,178.5078v6.0984h4.4832v-6.0984z" fill="#ff0000" stroke="none" stroke-width="1"/></g></g></svg>