<svg version="1.1" xmlns="http://www.w3.org/2000/svg" xmlns:xlink="http://www.w3.org/1999/xlink" width="140" height="140" viewBox="0,0,140,140"><g transform="translate(-170,-110)"><g data-paper-data="{&quot;isPaintingLayer&quot;:true}" fill-rule="nonzero" stroke="none" stroke-width="1" stroke-linecap="butt" stroke-linejoin="miter" stroke-miterlimit="10" stroke-dasharray="" stroke-dashoffset="0" style="mix-blend-mode: normal"><path d="M170,250v-140h140v140z" fill="none"/><path d="M210.4722,143.533c0.90241,0.01953 1.7624,0.3869 2.4004,1.0254l27.041,27.043l27.043,-27.043c0.638,-0.6385 1.49799,-1.00587 2.4004,-1.0254c0.05273,-0.00119 0.10547,-0.00119 0.1582,0c0.899,0.02203 1.75503,0.38921 2.3906,1.0254l3.5352,3.5352c1.36625,1.36686 1.36625,3.58234 0,4.9492l-27.043,27.043l27.043,27.041c1.36625,1.36686 1.36625,3.58234 0,4.9492l-3.5352,3.5352c-1.36686,1.36625 -3.58234,1.36625 -4.9492,0l-27.043,-27.041l-27.041,27.041c-1.36686,1.36625 -3.58234,1.36625 -4.9492,0l-3.5352,-3.5352c-1.36625,-1.36686 -1.36625,-3.58234 0,-4.9492l27.041,-27.041l-27.041,-27.043c-1.36625,-1.36686 -1.36625,-3.58234 0,-4.9492l3.5352,-3.5352c0.63557,-0.63619 1.4916,-1.00337 2.3906,-1.0254c0.05273,-0.00119 0.10547,-0.00119 0.1582,0z" fill="#ff0000"/></g></g></svg>