<?xml version="1.0" encoding="UTF-8"?>
<svg width="480" height="360" version="1.1" viewBox="0 0 480 360" xmlns="http://www.w3.org/2000/svg">
 <g dominant-baseline="central" fill="#fff" aria-label="長崎県五島">
  <path d="m254.23 185.08q1.9629 1.3867 5.3418 2.2656l-1.3574 1.8555q-4.4336-1.25-7.0215-4.1211-1.543-1.6992-2.2852-3.877h-2.7539v5.6738q2.5098-0.45898 5.3223-1.2109l0.13672 1.8555q-4.6094 1.3184-9.1406 2.0606l-0.69336-2.0215q1.543-0.19531 2.1582-0.29297v-6.0644h-3.4375v-1.6602h3.4375v-8.4082h13.496v1.6406h-11.279v1.1621h10.381v1.582h-10.381v1.1816h10.381v1.543h-10.381v1.2988h13.34v1.6602h-2.666l1.543 1.3379q-1.8555 1.3379-4.1406 2.5391zm-1.4062-1.1523q2.2558-1.4062 3.7793-2.7246h-5.6934q0.6543 1.5137 1.9141 2.7246z" dominant-baseline="central"/>
  <path d="m277.82 179.78v7.8809q0 0.87891-0.32227 1.2891-0.39063 0.48828-1.6504 0.48828-1.2109 0-2.5488-0.13672l-0.40039-1.9434q1.3965 0.24414 2.3144 0.24414 0.41016 0 0.50782-0.15625 0.0781-0.12696 0.0781-0.48829v-7.1777h-8.1738v6.1621h-5.1465v1.6602h-1.7188v-13.682h1.6406v10.156h0.95703v-13.359h1.6992v13.359h1.0059v-10.156h1.5625v4.1016h11.934v1.7578zm-3.9453-5.6738q2.373 0.97656 4.8242 2.373l-1.2793 1.4551q-1.8066-1.1914-4.2383-2.4609-1.3086 1.8164-4.043 2.5098l-1.0352-1.5234q2.9297-0.64453 3.7695-2.4609h-3.8574v-1.6992h4.1016v-1.7969h1.9434v1.7969h4.6777v1.6992h-4.8242q-0.01 0.0488-0.0391 0.10742zm0.72266 7.0606v5.2344h-4.1797v0.9375h-1.7773v-6.1719zm-4.2188 1.6016v2.0312h2.5586v-2.0312z" dominant-baseline="central"/>
  <path d="m296.76 170.98v9.4629h-11.621v-9.4629zm-9.5215 1.543v1.2207h7.4023v-1.2207zm0 2.5977v1.2207h7.4023v-1.2207zm0 2.5976v1.2598h7.4023v-1.2598zm-3.9356 4.0234h16.191v1.6992h-8.0762v6.0644h-2.2168v-6.0644h-8.0371v-10.957h2.1387zm-2.5 5.8984q2.3242-1.0742 4.4434-3.6035l1.7969 1.0449q-2.0898 2.6465-4.6387 4.1602zm16.836 1.2598q-1.4941-1.8359-4.4922-3.8574l1.6797-1.1816q2.3535 1.3574 4.6191 3.5644z" dominant-baseline="central"/>
  <path d="m309.96 173.76q-0.01 0.10742-0.0293 0.26367-0.19531 1.4648-0.50781 3.1836l-0.13672 0.75195h6.9141v8.3398h3.3008v1.9629h-19.004v-1.9629h4.6875q0.73242-2.5391 1.5332-6.416h-3.916v-1.9238h4.2871q0.48828-2.6953 0.64453-4.1992h-5.7129v-1.9238h15.732v1.9238zm4.0039 6.123h-5.0293q-0.21485 1.1328-0.3125 1.6895-0.35157 1.9434-1.0352 4.7266h6.377z" dominant-baseline="central"/>
  <path d="m327.74 171.98q0.36133-0.86914 0.58594-1.6602l2.3828 0.32226q-0.3418 0.81055-0.625 1.3379h6.5039v6.3672h-11.797v0.98633h14.697v1.582h-14.697v0.99609h14.014q-0.12695 4.4727-0.5664 6.0352-0.28321 0.99609-1.0645 1.3184-0.55664 0.23437-1.6992 0.23437-1.1719 0-2.1875-0.14648l-0.39063-1.6406h-9.7852v1.084h-2.0996v-4.6973h2.0996v2.0117h3.3594v-2.6367h-3.8379v-11.494zm4.1504 14.131v-2.0117h2.0215v3.3984q0.81054 0.0781 1.3476 0.0781 0.66406 0 0.83008-0.38085 0.32227-0.7129 0.50781-3.7207h-8.0273v2.6367zm-7.0996-12.627v0.96679h9.6387v-0.96679zm0 2.3633v1.0644h9.6387v-1.0644z" dominant-baseline="central"/>
 </g>
</svg>
