<svg version="1.1" xmlns="http://www.w3.org/2000/svg" xmlns:xlink="http://www.w3.org/1999/xlink" width="103.06589" height="84.60762" viewBox="0,0,103.06589,84.60762"><g transform="translate(-38.82131,-86.68081)"><g data-paper-data="{&quot;isPaintingLayer&quot;:true}" fill="#ff0000" fill-rule="evenodd" stroke="none" stroke-width="0" stroke-linecap="round" stroke-linejoin="round" stroke-miterlimit="10" stroke-dasharray="" stroke-dashoffset="0" style="mix-blend-mode: normal"><path d="M112.10836,97.26446l0.65997,3.71585l1.16996,0.63597l1.08996,-0.70697l2.4199,0.043l2.09992,-0.90197l1.70993,-1.19396l0.96996,-0.20199l1.66994,2.10391l1.39995,0.87997l2.3299,-0.90497l1.67994,1.42494l-0.54998,1.55194l-1.08996,0.54998l-0.35998,1.06196l-1.47994,1.32894l-0.20999,1.55094l0.31999,1.49194l-0.89997,0.29398l0.27999,2.37391l-0.48998,1.01596l0.11,1.44494l1.20995,1.30795l1.50994,1.11496l-1.79993,0.94196l-0.70997,1.09496l0.18,1.90692l-0.68998,0.73498l0.40999,2.4139l1.30995,1.48094l0.81997,-0.23699l1.83992,0.68498l1.79993,-0.33399l0.53998,1.17396l2.14991,-0.70997l2.24991,-1.52294l1.78993,-0.03l0.61998,-1.04295l1.09995,-0.224l1.49994,1.04796l1.11996,2.88388l-0.51998,0.55797l-0.63997,2.03392l0.36998,1.29095l-1.04996,0.08299l-1.45994,2.16892l-0.04,1.27195l-0.65997,0.52297l0.19999,1.27795l1.94993,1.18696l0.13,0.99996l0.78996,0.49998l0.29999,1.57394l-1.76993,1.21895l-0.75997,1.77293l-1.15995,1.11095l-0.02,1.12995l0.61998,0.62797l-0.82997,0.99796l-1.83992,0.62498l-1.39995,1.40094l-4.18983,2.4919l-1.86992,-1.09395l-1.07996,1.79593l-1.01995,1.05996l0.33999,1.07695l-0.98996,0.83796l-2.82988,-0.77697l-1.15995,-0.042l-1.60994,1.12995l-1.40994,-1.35895l-0.50998,-1.24495l-1.47994,-1.00896l-1.88992,-1.76693l-1.38995,-0.059l-1.54994,-0.59298l-2.5199,2.90888l0.20999,2.59289l-1.29994,1.10396l-0.91997,-0.17899l-1.52994,-1.00996l-0.15,2.32391l-0.77997,0.39898l-0.74997,1.39294l-1.82993,0.77897l-0.28999,1.11795l-4.46983,3.50486l-0.80997,1.33294l-0.93996,0.033l-0.39998,2.6189l-2.4299,2.05891l-0.95996,-1.19595l-1.56994,-1.25095l-2.35991,-3.16088l-2.4999,-1.10295l-1.79993,-2.36991l-0.39999,-1.43095l0.65998,-0.52098l-1.82993,-1.80893l-0.81997,-0.38398l-0.96996,0.81397l-1.49994,0.52798l-0.73997,-0.76397l-1.41995,-0.32099l-1.52994,1.28595l-2.71989,-0.57698l-1.14996,-0.74097l-1.04995,-1.72493l-1.77993,-1.93492l-0.47998,-1.34995l-1.22995,1.90592l-0.79997,0.144l-0.68998,-0.92197l-0.73997,0.32099l-0.16999,2.79489l0.13999,1.94492l-0.41998,0.58498l0.07,3.52086l-1.72993,0.75397l-0.48998,-0.41799l-1.94992,0.71197l-0.16,-1.10296l1.26995,-1.67893l-0.36998,-1.14896l-1.88993,-1.62293l-0.84996,0.064l-0.52998,-2.09592l-1.11996,-1.66093l0.12999,-1.51794l-2.05991,-1.05796l-0.22999,-1.65093l-1.11996,-1.44894l-0.13,-2.74289l-0.31998,-1.45494l0.79997,-1.00396l-0.29999,-1.15995l0.47998,-1.59694l-1.39994,-2.76889l-1.16995,-1.14195l-1.01996,-0.04899l-1.85992,1.15995l-2.94988,0.84597l-0.88996,0.70697l-0.49998,-1.79693l-1.69993,-2.62789l0.07,-3.51386l0.36998,-2.37691l-0.90996,-0.73097l0.23999,-1.36095l1.95992,-0.08499l0.41998,-0.44698l-0.37999,-1.62394l0.13999,-1.19696l2.23991,-2.6689l0.71997,-0.28798l-0.47998,-1.59493l0.58997,-1.07996l1.20995,-0.47498l-0.19,-1.25695l-0.79997,-0.48298l-2.13991,-3.62086l1.16995,-2.5379l-0.94996,-1.49094h-2.29991l-1.57993,-0.31198l-1.28995,-0.83397l0.27999,-2.3889l-1.29995,-0.90897l0.04,-0.89596l2.18992,-2.43191l0.89996,-0.35298l1.82993,-2.76289l0.91996,-0.52298l1.25995,0.18699l2.73989,-0.82397l1.49994,1.35295l1.97992,0.60798l0.53998,-0.78997l1.63994,-0.02099l0.68997,-1.91492l1.49994,0.63597l0.60998,-0.51198l2.94988,-0.63198l0.54998,0.61397l2.00992,0.48198l2.5099,0.21099l1.20995,1.52094l0.73997,-0.66797l0.52998,-1.91793l1.07996,-0.88496l1.74993,0.27899l2.18991,1.26395l0.39999,-2.7129l0.58997,-0.74297l1.64994,-0.69997l0.61998,-0.97596l1.60993,-0.12099l1.14996,-1.83792l1.52994,-0.041l2.5399,-1.12296l-0.14999,-0.85496l2.3999,-1.02496l1.71993,1.55593l0.90996,0.17199l0.68998,0.91197l1.52994,-0.80097l2.20991,-0.52798l0.67997,0.95297l1.90992,1.76393l1.42994,0.90096l0.48998,2.12592l0.74997,0.37099l0.44998,2.10992l0.81997,1.56793l3.64985,3.38986l1.24995,0.37199l0.23999,0.84497l1.77993,0.16599l1.41995,-0.95196l0.01,-1.12495l2.01992,-2.02792l1.18995,0.28598l0.65998,-1.12295l1.27994,-0.35098"/></g></g></svg>