<svg version="1.1" xmlns="http://www.w3.org/2000/svg" xmlns:xlink="http://www.w3.org/1999/xlink" width="116.40536" height="83.56665" viewBox="0,0,116.40536,83.56665"><g transform="translate(-584.7511,30.3151)"><g data-paper-data="{&quot;isPaintingLayer&quot;:true}" fill="#ff0000" fill-rule="evenodd" stroke="none" stroke-width="0" stroke-linecap="round" stroke-linejoin="round" stroke-miterlimit="10" stroke-dasharray="" stroke-dashoffset="0" style="mix-blend-mode: normal"><path d="M634.91914,-26.67528l-0.96996,1.17995l-0.09,1.79993l-0.99996,0.08l-0.57998,1.90992l0.11,1.06996l0.88996,-0.04l0.97996,1.47994l0.97996,0.95996l0.92996,-0.54998l1.01996,0.59998l1.01996,1.57994l0.14999,1.05996l1.27995,1.44994l1.05996,0.01l1.13995,1.50994l3.50986,0.38998l0.31999,0.74997l-0.39998,0.89996l-1.24995,0.08l-0.86997,2.92988l0.29999,0.96996l0.99996,0.37998l1.53994,1.24995l1.14995,0.09l0.23999,1.04996l1.99992,1.61994l-1.83993,0.52998l-0.86997,2.28991l0.26999,1.15995l0.08,0.05l-0.08,0.07l-0.02,0.67997l1.46994,0.40998l1.16995,1.16995l-0.20999,1.16995l3.01988,1.49994l1.87992,1.55994l-0.35999,1.04996l1.44994,0.96996l-2.5899,2.99988l-4.16983,-0.01l-2.02992,-0.85997l-1.46994,1.00996l-1.39994,-0.75997l-3.51986,-0.38998l-0.60998,-1.56994l-1.30995,-0.40998l-0.46998,0.71997l0.25999,2.4899l0.77997,1.74993l3.20987,1.42994l1.70993,-0.02l1.68993,0.79997l2.02992,-0.43998l1.39994,0.36999l1.98992,-0.13999l2.70989,3.39986l-2.73989,1.28995l1.71993,0.95996l2.63989,0.18999l1.38994,-1.02996l3.57986,1.59994l0.47998,1.05996l2.3899,1.38994l1.99992,0.64997l1.24995,-1.45994l-0.31999,-1.32995l-1.07996,-0.95996l-1.42994,-0.32999l-0.79997,-3.06988l-0.45998,-0.12999l-2.88988,-5.35979l-1.31995,-1.62993l-0.45998,-2.3999l-1.16995,-0.70997l-0.70997,-1.43994l0.30999,-1.14995l-1.68993,-2.84989l-1.66993,-1.48994l-0.28999,0.02l0.01,-0.96996l0.97996,0.34999l2.15991,-0.20999l1.20995,2.27991l1.34995,-0.64997l1.40994,-1.49994l0.58998,-2.86989l0.91996,-1.07996l-0.72997,-1.98992l-2.29991,-1.18995l-0.38998,-0.81997l0.57998,-1.13995l1.11996,0.02l0.87996,-1.32995l0.61998,1.23995l0.86997,-0.78997l2.08992,-0.41998l1.67993,-1.41994l0.17999,-2.30991l1.62993,0.03l1.35995,-0.21999l0.12,0.40998l1.13995,0.59998l1.89992,0.21999l0.25999,0.55998l0.46998,4.57982l0.64997,3.61986l0.89996,3.95984l1.57994,5.30979l1.29995,3.44986l2.27991,5.51978l2.66989,6.15975l1.24995,2.4199l1.42994,1.03996l1.60994,3.28987l-0.70997,1.10996l-1.69993,1.19995l0.03,0.89996l2.27991,-1.70993l0.78997,0.53998l3.35987,5.79977l0.04,0.88996l5.32979,8.74965l3.35987,4.80981l1.39994,1.30995l0.91996,0.22999l-0.59998,0.58998l-2.3999,0.05l-0.65997,-0.24999l-2.71989,-2.08992l-4.64981,-3.28987l-1.57994,-1.91992l-0.86997,-2.71989l-1.05996,-1.65993l-1.97992,-1.41994l-2.03992,-0.66997l-3.56986,-0.72997l-0.18999,-0.68997l-2.07992,-3.83985l-0.90996,-0.90996l-1.03996,-0.34999l-0.72997,-1.28995l-1.05996,-0.93996l-3.31987,-1.80993l-2.6199,-2.4699l-1.14995,1.76993l-0.23999,1.29995l-1.00996,0.64997l0.33999,1.62993l-0.60998,0.70997l-2.6099,-2.07992l-0.98996,1.41994l-3.04988,1.05996l-2.14991,-0.31999l-2.05992,0.81997l-1.21995,0.36999l-1.05996,0.91996l-0.46998,1.06996l-1.33995,1.33995l-1.18995,0.77997l-1.47994,0.19999l-2.21991,-1.04996l-0.98996,-0.07l-1.04996,0.51998l-2.20991,1.71993l-1.09996,0.15999l-1.70993,-0.92996l-1.00996,0.04l-1.87992,1.17995l-2.98988,1.10996l-1.01996,-0.36999l-1.22995,-1.62993l-0.65997,-1.40994l-2.4799,-1.27995l-1.46994,-0.40998l-1.37994,0.91996l-1.31995,-1.40994l-1.35995,-0.48998l-1.63993,-1.05996l-1.21995,-1.16995l-2.21991,0.1l-1.91992,-1.65993l-1.19995,-0.49998l-1.39994,-1.15995l-1.28995,-0.54998l-0.68997,-1.25995l0.62997,-1.38994l-0.54998,-0.90996l-1.57994,-0.11l-1.72993,-0.88996l-1.51994,-1.39994l-0.59998,-2.31991l-2.10992,-2.69989l-1.98992,-1.43994l-2.34991,-2.63989l-0.53998,-0.98996l-0.44998,-2.02992l-0.63997,-1.17995l-1.05996,-0.95996l-0.87996,0.68997l-0.17999,0.95996l-1.03996,1.27995l-1.89992,-0.81997l-1.49994,0.07l-0.34999,-0.44998l-0.12,-2.14991l-0.07,-0.61998l-1.27995,-1.69993l-0.34999,-1.19995l-1.39994,-2.5299l-0.51998,-2.33991l0.26999,-2.02992l-0.56998,-0.98996l0.56998,-0.84997l1.28995,0.57998l0.1,-1.11996l1.99992,0.61998l0.14999,0.43998l1.92992,-1.08996l1.16995,-1.00996l6.17975,-2.5399l0.49998,-0.96996l0.50998,-2.16991l0.97996,-1.51994l-0.64997,-1.79993l1.47994,-2.4799l0.68997,0.16999l1.55994,-0.56998l2.4099,0.65997l-0.22999,0.96996l0.99996,0.48998l0.64997,-0.39998l-0.05,-1.06996l0.39998,-3.33987l0.83997,-0.59998l1.23995,-0.23999l1.10996,-0.70997l1.82993,-0.21999l0.08,-2.04992l0.92996,-0.87996l1.52994,0.90996l1.16995,-0.1l1.11996,-1.03996l2.26991,-0.16999l1.26995,0.26999l1.53994,-0.79997l0.54998,-0.86997l-0.09,-1.75993l2.4099,0.19999l0.93996,0.56998l0.94996,-0.12999l0.28999,-1.57994l1.76993,-0.50998l1.32995,0.38998l1.10996,1.68993l0.93996,-0.23999l1.95992,0.21999l0.43998,1.57994M676.65747,30.50243l-1.49994,-0.87996l-0.63997,1.44994l1.90992,2.5699l0.84997,-1.77993l-0.61998,-1.35995M669.78775,10.48323l-0.63997,1.65993l1.02996,2.19991l1.46994,1.07996l-0.58998,0.93996l0.91996,1.25995l-1.57994,2.65989l1.53994,0.56998l2.5399,2.65989l-0.65997,0.38998l0.97996,1.93992l2.5299,0.13999l-1.64993,-1.44994l0.78997,-1.32995l-1.26995,-2.94988l-1.12995,-0.41998l-0.09,-1.30995l-0.76997,-1.04996l-0.32999,-3.00988l-1.00996,-0.59998l-0.22999,-1.38994l-1.38994,-1.23995l-0.88996,-3.53986l-1.17995,1.58994l1.60994,1.19995"/></g></g></svg>