<svg xmlns="http://www.w3.org/2000/svg" viewBox="0 0 180 40" version="1.1" height="40" width="180">
 <path style="paint-order:stroke markers fill" stroke-width=".2" stroke-linejoin="round" stroke-linecap="round" stop-color="#000000" fill-opacity="0" d="m0 0h180v40h-180z"></path>
 <g aria-label="観測震度+予想震度" fill="#fff" transform="scale(.96613 1.0351)">
  <path d="m25.84 19.357v0.79913h1.3341v0.9048h-1.3341v0.81234h1.3341v0.89159h-1.3341v0.9048h1.6709v0.61421q1.202-0.86518 1.4001-3.1437h-1.0963v-7.7337h5.3694v7.7337h-1.268v2.8531q0 0.20474 0.10567 0.25097 0.11228 0.05284 0.31701 0.05284 0.42268 0 0.50193-0.29059 0.10567-0.38306 0.11228-1.6313l1.1227 0.38966q-0.05284 1.8756-0.2972 2.3049-0.29059 0.50193-1.5124 0.50193-0.82555 0-1.0963-0.09907-0.48212-0.17832-0.48212-0.83876v-3.4937h-0.49533l-0.0066 0.08586q-0.13869 1.7237-0.69346 2.7408-0.58779 1.0765-1.9351 1.803l-0.78592-1.0567h-3.4079v0.82555h-1.268v-5.0061q-0.31701 0.36985-0.66704 0.70006l-0.64723-1.1624q1.4199-1.3143 2.2191-2.9984h-1.9087v-1.0963h1.1294l-0.95104-0.70007q0.91801-1.0171 1.3605-2.4106l1.2879 0.19153q-0.1453 0.43589-0.32362 0.85197h3.6654v1.0699h-2.1794q-0.11888 0.49533-0.2972 0.99726h2.7276v1.0963h-3.2428q-0.29059 0.70667-0.67365 1.3407h1.1888q0.2972-0.70007 0.42928-1.2746l1.1954 0.35664q-0.19153 0.46231-0.43589 0.91801h1.486v0.94443zm-1.2218 0h-1.2548v0.79913h1.2548zm0 1.7039h-1.2548v0.81234h1.2548zm0 1.7039h-1.2548v0.9048h1.2548zm-0.83215-7.7866h-0.76611q-0.31701 0.50193-0.76611 0.99726h1.2086q0.17171-0.47552 0.32362-0.99726zm5.2835-0.40947v1.136h2.8333v-1.136zm0 2.153v1.1227h2.8333v-1.1227zm0 2.153v1.1558h2.8333v-1.1558z"></path>
  <path d="m42.424 13.42v9.0612h-4.1476v-9.0612zm-2.9588 1.1756v1.486h1.7964v-1.486zm0 2.5559v1.486h1.7964v-1.486zm0 2.5031v1.6643h1.7964v-1.6643zm-2.7606-3.7579q-0.77271-1.0435-1.8558-1.9615l0.99066-0.95103q1.0171 0.73969 1.9087 1.8823zm-0.36324 3.3814q-1.0765-1.3539-1.9087-2.087l1.0171-0.97085q0.9048 0.73309 1.9483 2.0143zm-1.803 5.4486q1.1624-1.8624 2.1398-4.7618l1.1227 0.77271q-0.76611 2.6748-2.054 5.0722zm7.4432 0.71988q-0.46891-1.2746-1.235-2.371l1.0039-0.56798q0.81234 0.95764 1.3935 2.1927zm1.3473-11.538h1.3143v8.5065h-1.3143zm-5.8911 10.95q0.99066-0.94443 1.4596-2.2719l1.1492 0.61421q-0.66044 1.6775-1.5586 2.5097zm8.2225-11.802h1.3671v11.307q0 0.85857-0.52835 1.0963-0.3038 0.13209-0.93122 0.13209-0.87838 0-1.5983-0.10567l-0.23115-1.3407q1.0303 0.10567 1.5454 0.10567 0.26418 0 0.33022-0.10567 0.04623-0.08586 0.04623-0.33682z"></path>
  <path d="m53.81 14.675v-0.56798h-4.1277v-0.94443h9.7481v0.94443h-4.2136v0.56798h5.4684v2.371h-1.4332v-1.519h-4.0353v2.5691h-1.4067v-2.5691h-3.9626v1.519h-1.4199v-2.371zm4.6759 9.3716q1.0105 0.38306 2.5229 0.6076l-0.77271 1.1227q-2.12-0.36324-3.4805-1.2482-1.3539-0.88499-2.1068-2.1993h-1.4596v2.0342q1.4596-0.20474 2.7078-0.43589l0.09246 0.98406q-2.3247 0.55477-5.3165 0.96424l-0.38966-1.1624q1.0369-0.11227 1.4199-0.1585l0.07925-0.01321v-2.2125h-1.4464q-0.09246 1.1624-0.3038 1.8558-0.25097 0.83215-0.80574 1.552l-1.1756-0.97085q0.64723-0.83876 0.80574-1.9615 0.08586-0.6076 0.08586-1.5124v-2.8003h11.399v0.87838h-9.9792v2.0275h10.547v0.93122h-1.4992l0.83876 0.55477q-0.7463 0.62081-1.7634 1.1624zm-1.0303-0.50854q0.95103-0.64723 1.5124-1.2086h-2.8861q0.56798 0.72648 1.3737 1.2086zm-7.0271-7.5224h2.8135v0.7463h-2.8135zm0 1.2152h2.8135v0.75951h-2.8135zm5.3562-1.2152h2.8993v0.7463h-2.8993zm0 1.2152h2.8993v0.75951h-2.8993zm-4.6363 2.6946h8.2225v0.86518h-8.2225z"></path>
  <path d="m69.112 14.08h5.1778v1.1095h-2.9324v1.0963h2.7474v1.0699h-2.7474v1.9681h-5.3165v-1.9681h-2.1662v1.2284q0 2.9918-0.31701 4.7287-0.24436 1.3209-0.79253 2.4106l-1.202-0.95103q0.50193-1.0897 0.68686-2.6616 0.16511-1.3803 0.16511-3.5267v-4.5042h5.2241v-1.1888h1.4728zm-5.2373 1.1095v1.0963h2.1662v-1.0963zm3.573 0v1.0963h2.5031v-1.0963zm0 2.1662v1.0237h2.5031v-1.0237zm1.5322 6.9346q-1.9087 0.99066-4.8476 1.5058l-0.68686-1.2152q2.7606-0.33022 4.3259-1.0105-1.3407-0.97085-2.2917-2.3049h-0.91141v-1.1492h7.7337l0.69346 0.58119q-0.98406 1.5124-2.8069 2.8465 1.5652 0.62742 4.2664 0.92462l-0.77271 1.2482q-2.5889-0.35003-4.7023-1.4265zm-1.9615-3.0248q0.79913 0.93782 1.9417 1.6511 1.2879-0.83215 1.9879-1.6511z"></path>
  <path d="m79.943 14.853h1.1624v3.8834h3.8834v1.1624h-3.8834v3.8834h-1.1624v-3.8834h-3.8834v-1.1624h3.8834z"></path>
  <path d="m94.367 16.623q0.46231 0.23776 1.0633 0.56798l-0.83876 0.68025h3.9758l0.7463 0.7463q-1.486 2.2389-2.9654 3.6786l-1.3407-0.78592q1.3011-1.1888 2.087-2.3644h-3.289v5.1778q0 0.8982-0.4425 1.1492-0.2972 0.17171-1.1095 0.17171-1.0633 0-2.3446-0.13209l-0.32362-1.4728q1.235 0.19813 2.1927 0.19813 0.36324 0 0.4491-0.11888 0.06604-0.09907 0.06604-0.36324v-4.6099h-5.5345v-1.2746h7.1592q-2.2323-1.2813-4.4646-2.1662l1.0699-0.85197q1.4992 0.601 2.6484 1.169 1.0171-0.69346 1.7832-1.3605h-7.0601v-1.2548h8.982l0.81234 0.79253q-1.7304 1.3935-3.322 2.4238z"></path>
  <path d="m102.71 17.402q-0.85858 1.5652-1.9879 2.5625l-0.7595-1.2284q1.4794-1.1227 2.4965-3.0314h-2.1861v-1.2152h2.437v-1.5983h1.4199v1.5983h1.9087v1.2152h-1.9087v0.80574q1.1756 0.67365 2.0936 1.4266l-0.79913 1.1624q-0.62742-0.70007-1.2945-1.2482v2.939h-1.4199zm4.0551 3.1701q0.84537 0.80574 1.6643 1.9351l-1.1756 0.83876q-0.91141-1.4067-1.7634-2.1927l0.93782-0.65384v-7.1327h5.6402v7.2054zm0.99727-6.1223v1.0105h2.939v-1.0105zm0 2.0275v0.99726h2.939v-0.99726zm0 2.0011v1.0105h2.939v-1.0105zm-7.6281 6.1421q0.75951-1.2416 1.1822-3.0446l1.3737 0.38966q-0.36984 2.12-1.268 3.5466zm3.6126-3.0314h1.4464v2.1068q0 0.40947 0.19813 0.48872 0.25097 0.09246 1.3869 0.09246 1.0831 0 1.4464-0.07265 0.26417-0.05944 0.33682-0.3038 0.0991-0.33022 0.13209-1.202l1.4596 0.33682q-0.0264 0.98406-0.1453 1.4067-0.16511 0.601-0.48872 0.81894-0.27739 0.19153-0.79913 0.22455-1.0831 0.06604-2.2257 0.06604-1.9219 0-2.3446-0.22455-0.40286-0.21794-0.40286-0.92462zm8.0508 3.54q-0.79913-1.9285-1.7766-3.2692l1.2086-0.71988q1.0897 1.453 1.8624 3.1371z"></path>
  <path d="m119.27 14.675v-0.56798h-4.1278v-0.94443h9.7481v0.94443h-4.2136v0.56798h5.4684v2.371h-1.4332v-1.519h-4.0353v2.5691h-1.4067v-2.5691h-3.9626v1.519h-1.4199v-2.371zm4.6759 9.3716q1.0105 0.38306 2.5229 0.6076l-0.77271 1.1227q-2.12-0.36324-3.4805-1.2482-1.3539-0.88499-2.1068-2.1993h-1.4596v2.0342q1.4596-0.20474 2.7078-0.43589l0.0925 0.98406q-2.3248 0.55477-5.3165 0.96424l-0.38966-1.1624q1.0369-0.11227 1.42-0.1585l0.0793-0.01321v-2.2125h-1.4464q-0.0925 1.1624-0.3038 1.8558-0.25097 0.83215-0.80574 1.552l-1.1756-0.97085q0.64723-0.83876 0.80573-1.9615 0.0859-0.6076 0.0859-1.5124v-2.8003h11.399v0.87838h-9.9792v2.0275h10.547v0.93122h-1.4992l0.83875 0.55477q-0.74629 0.62081-1.7634 1.1624zm-1.0303-0.50854q0.95103-0.64723 1.5124-1.2086h-2.8861q0.56798 0.72648 1.3737 1.2086zm-7.0271-7.5224h2.8135v0.7463h-2.8135zm0 1.2152h2.8135v0.75951h-2.8135zm5.3562-1.2152h2.8993v0.7463h-2.8993zm0 1.2152h2.8993v0.75951h-2.8993zm-4.6363 2.6946h8.2225v0.86518h-8.2225z"></path>
  <path d="m134.57 14.08h5.1778v1.1095h-2.9324v1.0963h2.7474v1.0699h-2.7474v1.9681h-5.3165v-1.9681h-2.1662v1.2284q0 2.9918-0.31701 4.7287-0.24436 1.3209-0.79253 2.4106l-1.202-0.95103q0.50194-1.0897 0.68686-2.6616 0.16511-1.3803 0.16511-3.5267v-4.5042h5.2241v-1.1888h1.4728zm-5.2373 1.1095v1.0963h2.1662v-1.0963zm3.573 0v1.0963h2.5031v-1.0963zm0 2.1662v1.0237h2.5031v-1.0237zm1.5322 6.9346q-1.9087 0.99066-4.8476 1.5058l-0.68685-1.2152q2.7606-0.33022 4.3259-1.0105-1.3407-0.97085-2.2917-2.3049h-0.91141v-1.1492h7.7338l0.69346 0.58119q-0.98405 1.5124-2.8069 2.8465 1.5652 0.62742 4.2664 0.92462l-0.77271 1.2482q-2.5889-0.35003-4.7023-1.4265zm-1.9615-3.0248q0.79914 0.93782 1.9417 1.6511 1.2878-0.83215 1.9879-1.6511z"></path>
 </g>
</svg>
