<svg version="1.1" xmlns="http://www.w3.org/2000/svg" xmlns:xlink="http://www.w3.org/1999/xlink" width="87.4665" height="78.66688" viewBox="0,0,87.4665,78.66688"><g transform="translate(-211.71608,15.47574)"><g data-paper-data="{&quot;isPaintingLayer&quot;:true}" fill="#ff0000" fill-rule="evenodd" stroke="none" stroke-width="0" stroke-linecap="round" stroke-linejoin="round" stroke-miterlimit="10" stroke-dasharray="" stroke-dashoffset="0" style="mix-blend-mode: normal"><path d="M240.33495,-15.47573l1.46994,0.73997l-0.23999,1.16995l1.20995,1.31995l2.11992,1.09996l1.25995,0.35999l0.62997,1.31995l0.68997,0.12l0.13999,1.33995l1.56994,0.67997l-0.44998,2.4399l0.16999,1.01996l0.73997,1.34995l0.70997,2.19991l1.38994,0.97996l1.08996,-0.58998l2.17991,0.28999l1.85993,-0.57998l0.49998,1.92992l0.98996,0.24999l0.75997,1.37994l0.87996,0.76997l0.81997,-0.42998l0.76997,0.54998l0.79997,-0.20999l0.55998,-0.91996l1.78993,-1.69993l0.90996,1.16995l1.47994,0.41998l0.95996,-0.62997l0.51998,0.39998l2.5099,-0.83997l0.82997,0.23999l0.27999,0.81997l1.33995,0.50998l1.41994,1.36995l1.28995,0.39998l0.88996,1.37994l0.23999,1.04996l1.75993,1.09996l0.97996,0.16999l1.46994,1.66993l-0.17999,0.83997l0.39998,1.09996l1.51994,0.20999l4.10984,-1.83993l2.34991,0.20999l1.54994,-0.72997l0.97996,1.48994l0.02,0.80997l-1.98992,0.95996l-0.89996,1.48994l-0.1,3.31987l-0.54998,1.43994l-0.17999,1.69993l2.25991,0.57998l0.37998,2.81989l-0.06,1.43994l1.91992,0.76997l1.69993,0.18999l0.42998,0.95996l-0.94996,1.61994l0.25999,0.67997l1.29995,0.23999l0.62997,0.91996l0.78997,0.23999l1.00996,2.24991l-0.35999,1.64993l0.57998,0.58998l0.63997,2.10992l-0.72997,1.48994l-0.96996,0.34999l-1.30995,-0.17999l-0.63997,4.30983l-0.65997,1.18995l-1.51994,-0.08l0.03,-0.80997l-1.04996,-0.48998l-0.93996,0.16999l-1.33995,1.00996l-1.65993,-0.87996l-0.38998,0.97996l-1.05996,1.00996l-0.99996,-0.25999l-1.01996,0.59998l-1.77993,-0.24999l-0.58998,0.75997l-1.17995,-0.09l-0.17999,-1.57994l-0.72997,-0.99996l-0.69997,1.14995l-1.20995,0.24999l-0.30999,0.94996l-1.14995,-0.12999l-1.23995,-1.19995l-1.29995,0.85997l-0.01,0.87996l-1.36995,0.78997l-2.15991,-0.37998l-0.53998,0.28999l-2.00992,-1.13995l-1.31995,1.97992l-0.01,1.64993l-0.84997,0.93996l-0.68997,-1.79993l-1.18995,-1.18995l-1.69993,0.23999l-0.59998,-0.67997l-3.08988,0.45998l-1.16995,-0.89996l-1.00996,0.24999l-0.87996,-1.11996l-2.33991,-0.71997l-2.82989,1.86993l-0.15999,0.46998l-1.88992,0.13999l-0.61998,1.20995l-0.32999,1.75993l0.65997,0.77997l0.19999,1.61994l-0.64997,1.05996l0.21999,0.89996l-0.95996,0.32999l-2.11992,3.54986l0.69997,0.64997l-0.96996,0.86997l0.12,0.72997l-0.96996,0.87996l-1.12995,-1.23995l-2.4799,-0.61998l-1.01996,-1.06996l-3.58986,-0.86997l-0.53998,-1.37994l-0.77997,-0.36999l-1.84993,0.18999l-1.64993,0.54998l-0.14999,-1.58994l-1.67993,-1.47994l0.06,-1.80993l-1.40994,-1.78993l-0.56998,-1.66993l-1.44994,0.02l0.14999,-1.70993l-1.20995,-2.30991l-1.12995,-1.69993l-0.60998,-1.61994l-0.86997,-0.59998l-2.28991,-2.5799l-2.5199,-2.4199l-1.59994,-1.75993l-0.24999,-0.96996l0.28999,-1.30995l-0.26999,-1.14995l0.23999,-1.35995l-0.09,-1.54994l-1.01996,-1.00996l0.02,-0.61998l-1.71993,-1.64993l-1.17995,-2.3999l0.75997,-1.25995l-0.12999,-0.67997l2.15991,-1.40994l2.4999,-3.01988l-0.1,-1.20995l0.69997,-0.80997l0.46998,-2.62989l0.90996,-1.86993l0.54998,-2.02992l1.26995,-0.92996v-0.86997l0.61998,-1.35995l2.17991,-1.29995l1.67993,-1.82993l-0.29999,-0.89996l2.3999,-3.98984l1.32995,0.31999l-0.58998,-1.35995l1.01996,-1.58994l0.12,-1.78993l-0.76997,-1.21995l0.52998,-0.44998l-0.73997,-1.01996l3.04988,-0.40998l0.80997,0.44998l1.39994,-0.53998l4.13983,-2.69989l2.32991,-1.89992l0.31999,-0.50998"/></g></g></svg>