<svg version="1.1" xmlns="http://www.w3.org/2000/svg" xmlns:xlink="http://www.w3.org/1999/xlink" width="323.46474" height="279.69676" viewBox="0,0,323.46474,279.69676"><g transform="translate(214.02792,-189.64432)"><g data-paper-data="{&quot;isPaintingLayer&quot;:true}" fill="none" fill-rule="evenodd" stroke="#d645ff" stroke-width="72" stroke-linecap="round" stroke-linejoin="round" stroke-miterlimit="4" stroke-dasharray="" stroke-dashoffset="0" style="mix-blend-mode: normal"><g><path d="M-93.34847,430.53153l2.18665,0.72988l-1.33279,2.07967l-3.81039,-0.34994l-0.33195,-1.48976l3.28847,-0.96984"/><path d="M-71.63995,410.57472l1.96069,0.39994l0.6399,1.35978l-2.61258,1.79971l-1.31079,-2.83955l1.32279,-0.71988"/><path d="M-63.37827,401.06625l1.51476,2.15965l-2.17865,0.80987l0.66389,-2.96952"/><path d="M-74.62447,399.4965l2.80355,2.42961l-5.0182,-0.02l1.64474,-0.6099l0.56991,-1.79971"/><path d="M-93.86139,390.43795l2.98752,2.85954l0.95285,2.15965l1.10882,-1.74972l4.88022,0.83987l0.59091,1.75972l1.56275,-0.18997l1.95169,2.09966l1.61474,0.09998l-1.05483,2.30963l-0.05799,3.21948l-1.19181,-1.20981l-1.33179,1.95969l0.23496,3.62942l-2.34762,-0.55991l-0.04299,2.64958l-1.80271,-0.01l-2.92653,-1.71972l-2.75956,0.25996l-5.07919,-1.09982l-3.33447,-2.15965l-0.24996,2.29963l-3.85638,-0.45993l-1.8597,-2.79955l2.54259,-0.27996l-0.07199,-2.41961l2.36662,1.95969l0.05399,-1.8497l1.8617,-1.09982l2.21765,3.17949l-0.69289,-3.28947l0.88486,-1.14982l-1.05183,-1.55975l1.00084,-1.04983l-0.99284,-1.83971l2.14666,-3.61942l1.74572,-1.16981"/><path d="M-172.24385,386.28861l4.58427,1.53975l-3.24748,2.64958l-2.55759,-0.6299l-1.9047,0.55991l-2.65857,-0.71988l0.10698,-1.33979l2.12966,-1.78971l1.16681,0.5999l2.38062,-0.86986"/><path d="M-40.42194,371.23102l2.34263,0.83987l-0.54691,3.66941l-2.99352,2.69957l0.44993,1.61974l-2.5216,2.57959l-0.13998,2.11966l-2.20865,1.30979l-0.92585,1.58975l0.67889,2.15965l-0.78187,1.38978l0.80987,1.96968l-0.83387,5.80907l-1.37278,1.57975l-1.82071,-1.01984l-3.66241,2.61958l-3.57843,-0.71988l-0.07799,-1.53975l-3.31247,-1.77972l2.96053,-2.74956l0.31895,-1.99968l-2.37262,-2.62958l-1.75872,0.11998l-1.8467,1.8797l-1.54375,-1.65973l1.2638,-2.27964l3.79639,0.5999l0.47992,-2.15965l-0.86686,-1.71972l2.83455,2.08967l-0.96385,1.61974l1.79171,-0.69989l2.63058,0.6499l1.43977,-0.99984l2.97552,0.26996l-0.20297,-1.48976l1.80871,-3.27948l1.95369,-2.29963l1.65174,1.65973l1.8927,-4.77924l-1.14682,-1.28979l1.50676,-1.11982l1.8927,-4.62926"/><path d="M-0.99625,364.05217l1.57275,1.16981l0.10198,1.51976l-1.93569,1.62974l-3.08551,-0.38994l-0.6379,-1.45977l1.08383,-1.98968l2.90054,-0.47992"/><path d="M41.92388,345.63512l3.54143,3.37946l-1.37678,1.2798l-2.54059,-2.13966l0.37594,-2.5196"/><path d="M44.24451,343.34548l4.83523,2.30963l0.95185,2.27964l-0.49492,1.8797l-3.83839,-0.44993l-2.24664,-2.90953l0.79287,-3.1095"/><path d="M54.61584,337.89635l1.73072,3.41945l1.41777,0.57991l1.47076,4.58927l2.23964,1.64974l-0.39694,1.8597l2.07967,1.64974l3.64542,0.71988l1.37478,1.90969l3.07751,0.57991l2.18165,3.36946l-8.25468,0.17997l-6.37898,1.8897l-4.69925,-2.56959l-0.92785,-2.38962l3.1505,0.55991l-0.22996,-1.51976l-2.5096,-3.33947l2.40062,-1.94969l-0.40194,-2.36962l1.8597,-1.61974l-0.97684,-0.95985l-1.8527,-6.239"/><path d="M-117.01969,248.2207v0"/><path d="M-117.91154,247.23086v0"/><path d="M-124.4085,245.31117l1.67873,0.82987l-2.90953,1.07983l1.2308,-1.90969"/><path d="M-103.7998,225.64432v0"/></g></g></g></svg>