<svg version="1.1" xmlns="http://www.w3.org/2000/svg" xmlns:xlink="http://www.w3.org/1999/xlink" width="208" height="32" viewBox="0,0,208,32"><g transform="translate(-240,-164)"><g data-paper-data="{&quot;isPaintingLayer&quot;:true}" fill-rule="nonzero" stroke="none" stroke-linecap="butt" stroke-linejoin="miter" stroke-miterlimit="10" stroke-dasharray="" stroke-dashoffset="0" style="mix-blend-mode: normal"><path d="M240,196v-32h208v32z" fill="none" stroke-width="0"/><path d="M251.04,185.42h4.9219v-10.742h2.2168v14.658h-2.2168v-1.7969h-11.943v1.7969h-2.1973v-14.658h2.1973v10.742h4.8047v-14.727h2.2168z" fill="#ffffff" stroke-width="1"/><path d="M277.86,172.33v16.201h-2.1973v-1.4941h-11.309v1.4746h-2.1973v-16.182zM264.354,174.2734v10.762h11.309v-10.762z" fill="#ffffff" stroke-width="1"/><path d="M296.76,170.98v9.4629h-11.621v-9.4629zM287.2385,172.523v1.2207h7.4023v-1.2207zM287.2385,175.1207v1.2207h7.4023v-1.2207zM287.2385,177.7183v1.2598h7.4023v-1.2598zM283.3029,181.7417h16.191v1.6992h-8.0762v6.0644h-2.2168v-6.0644h-8.0371v-10.957h2.1387zM280.8029,187.6401c1.54947,-0.71613 3.0306,-1.9173 4.4434,-3.6035l1.7969,1.0449c-1.3932,1.76433 -2.93943,3.15107 -4.6387,4.1602zM297.6389,188.8999c-0.99607,-1.22393 -2.49347,-2.50973 -4.4922,-3.8574l1.6797,-1.1816c1.569,0.90493 3.1087,2.09307 4.6191,3.5644z" fill="#ffffff" stroke-width="1"/><path d="M305.84,184.3c-1.79687,0.944 -3.36263,1.66667 -4.6973,2.168l-0.82031,-2.1484c2.08987,-0.70313 3.92907,-1.4323 5.5176,-2.1875v-4.375h-4.834v-2.0606h4.834v-5.1953h2.1777v19.004h-2.1777zM312.7834,176.6926c1.51693,-0.79427 2.9883,-1.80337 4.4141,-3.0273l1.6211,1.6992c-1.92707,1.3672 -3.9388,2.53257 -6.0352,3.4961v7.3242c0,0.31901 0.10417,0.51433 0.3125,0.58594c0.22135,0.07161 0.73242,0.10742 1.5332,0.10742c1.05467,0 1.71547,-0.06185 1.9824,-0.18555c0.1888,-0.08463 0.31901,-0.3483 0.39062,-0.79101c0.09766,-0.61849 0.16928,-1.61783 0.21485,-2.998l2.1875,0.67383c-0.06513,1.6862 -0.1693,2.89713 -0.3125,3.6328c-0.16276,0.82033 -0.58919,1.35093 -1.2793,1.5918c-0.65755,0.22135 -1.73502,0.33203 -3.2324,0.33203c-1.7578,0 -2.86457,-0.14648 -3.3203,-0.43945c-0.4362,-0.28646 -0.6543,-0.83659 -0.6543,-1.6504v-16.543h2.1777z" fill="#ffffff" stroke-width="1"/><path d="M326.44,176.07v-2.7344h-5.8203v-1.8848h18.779v1.8848h-6.4551v2.7344h5.4785v13.164h-2.1191v-1.377h-12.607v1.377h-2.0996v-13.164zM328.4615,176.07h2.4609v-2.7344h-2.4609zM326.4303,177.8473h-2.7344v8.1543h12.607v-2.9297h-3.7012c-1.1198,0 -1.6797,-0.5599 -1.6797,-1.6797v-3.5449h-2.4805c-0.02607,1.6016 -0.26695,2.88417 -0.72266,3.8477c-0.42969,0.918 -1.27605,1.8262 -2.5391,2.7246l-1.3477,-1.5039c1.21093,-0.7422 1.9759,-1.66017 2.2949,-2.7539c0.16927,-0.58594 0.27018,-1.35744 0.30273,-2.3145zM332.944,177.8473v2.9883c0,0.25391 0.11393,0.38086 0.3418,0.38086h3.0176v-3.3691z" fill="#ffffff" stroke-width="1"/><path d="M351.58,174.14v-3.6426h2.0996v3.6426h5.293v8.8379h-5.293v6.5234h-2.0996v-6.5234h-5.1856v-8.8379zM348.4159,176.0834v4.9707h3.1641v-4.9707zM356.8925,181.0541v-4.9707h-3.2129v4.9707zM344.3925,175.2729c-0.79427,-1.1068 -1.8457,-2.16473 -3.1543,-3.1738l1.4551,-1.4844c1.30207,0.918 2.40233,1.94663 3.3008,3.0859zM343.75774,180.2924c-1.1328,-1.31513 -2.23307,-2.3926 -3.3008,-3.2324l1.5039,-1.5039c1.13933,0.8008 2.26563,1.83597 3.3789,3.1055zM340.72064,187.8608c1.25,-1.77733 2.40233,-3.99087 3.457,-6.6406l1.7383,1.3379c-0.89193,2.4414 -1.97917,4.73957 -3.2617,6.8945z" fill="#ffffff" stroke-width="1"/></g></g></svg>