<svg version="1.1" xmlns="http://www.w3.org/2000/svg" xmlns:xlink="http://www.w3.org/1999/xlink" width="208" height="32" viewBox="0,0,208,32"><g transform="translate(-240,-164)"><g data-paper-data="{&quot;isPaintingLayer&quot;:true}" fill-rule="nonzero" stroke="none" stroke-linecap="butt" stroke-linejoin="miter" stroke-miterlimit="10" stroke-dasharray="" stroke-dashoffset="0" style="mix-blend-mode: normal"><path d="M240,196v-32h208v32z" fill="none" stroke-width="0"/><path d="M250.08,180.23c-0.21484,-0.72267 -0.51432,-1.35417 -0.89843,-1.8945l1.3184,-0.5664c0.42969,0.7292 0.75521,1.3835 0.97656,1.9629zM253.8788,179.75149c0.40365,-0.63802 0.70313,-1.28255 0.89844,-1.9336l1.377,0.49804c-0.25391,0.65104 -0.58594,1.28907 -0.99609,1.9141zM247.5116,176.45069h10.83v5.1367h-11.279v-1.3379l-1.0059,1.7578c-0.44271,-0.71613 -0.85611,-1.32487 -1.2402,-1.8262v9.3164h-1.9824v-8.8281c-0.49479,1.60153 -1.11979,3.1022 -1.875,4.502l-0.82031,-2.3438c1.1198,-1.9792 1.93687,-4.07557 2.4512,-6.2891c0.02607,-0.11068 0.0521,-0.21159 0.0781,-0.30274h-2.168v-1.9043h2.334v-3.8379h1.9824v3.8379h1.5234v0.66406c2.1094,-0.98307 3.82813,-2.48373 5.1562,-4.502h2.1387c0.89193,1.0742 1.86523,1.98567 2.9199,2.7344c0.8854,0.61849 2.00193,1.22723 3.3496,1.8262l-0.83984,1.7383c-1.39973,-0.65104 -2.653,-1.38997 -3.7598,-2.2168v0.95703h-5.2051v-0.84961c-0.89193,0.70313 -1.75457,1.29233 -2.5879,1.7676zM247.06238,176.69483c-0.22787,0.11719 -0.44922,0.22786 -0.66407,0.33203l-0.50781,-0.79102h-1.0742v1.6699c0.03907,0.02607 0.07813,0.05863 0.11719,0.0977c0.65104,0.52083 1.36067,1.2142 2.1289,2.0801zM256.54478,180.28863v-2.5586h-3.125v2.5586zM248.85918,180.28863h2.998v-2.5586h-2.998zM250.78298,174.09723h3.9062c-0.7552,-0.625 -1.45833,-1.2793 -2.1094,-1.9629c-0.54687,0.71613 -1.14584,1.37043 -1.7969,1.9629zM257.81418,182.55423v6.9238h-1.9824v-0.68359h-6.2207v0.70312h-1.9531v-6.9434zM249.61108,183.89213v1.084h6.2207v-1.084zM249.61108,186.27493v1.1035h6.2207v-1.1035z" fill="#ffffff" stroke-width="1"/><path d="M271.04,185.42h4.9219v-10.742h2.2168v14.658h-2.2168v-1.7969h-11.943v1.7969h-2.1973v-14.658h2.1973v10.742h4.8047v-14.727h2.2168z" fill="#ffffff" stroke-width="1"/><path d="M290.23,178.41v7.7344c0,0.5013 0.21485,0.80403 0.64454,0.9082c0.44271,0.11068 1.45507,0.16602 3.0371,0.16602c1.54293,0 2.5618,-0.07813 3.0566,-0.23438c0.27995,-0.09115 0.46224,-0.34505 0.54687,-0.76172c0.11068,-0.58593 0.16927,-1.2793 0.17578,-2.0801l2.041,0.57618c-0.10417,1.9206 -0.36784,3.1478 -0.79102,3.6816c-0.27995,0.35156 -0.70311,0.55989 -1.2695,0.625c-0.89193,0.09765 -2.4056,0.14648 -4.541,0.14648c-1.65367,0 -2.73767,-0.04557 -3.252,-0.13672c-0.77473,-0.13021 -1.26627,-0.47201 -1.4746,-1.0254c-0.10417,-0.29297 -0.15625,-0.6836 -0.15625,-1.1719v-7.7441l-1.8652,0.64453l-0.45899,-1.8945l2.3242,-0.80078v-5.2637h1.9824v4.5801l2.0996,-0.71289v-5.1465h1.9629v4.4629l3.2715,-1.123l1.0254,0.625v7.3144c0,0.50781 -0.12044,0.88541 -0.36133,1.1328c-0.27343,0.27343 -0.73243,0.41015 -1.377,0.41015c-0.52735,0 -1.08725,-0.04557 -1.6797,-0.13672l-0.32226,-1.8652c0.38411,0.09765 0.77475,0.14648 1.1719,0.14648c0.28646,0 0.46224,-0.05859 0.52734,-0.17578c0.06513,-0.09765 0.0977,-0.26041 0.0977,-0.48828v-4.6191l-2.3535,0.82031v7.9004h-1.9629v-7.2266zM283.0523,175.2166v-4.7168h2.0996v4.7168h1.8945v1.9824h-1.8945v6.2109c0.6836,-0.23437 1.36067,-0.47851 2.0312,-0.73242l0.18555,1.8848c-2.1094,0.96353 -4.2741,1.77083 -6.4941,2.4219l-0.6836,-2.0801c1.0026,-0.26041 1.8815,-0.50781 2.6367,-0.74218c0.09115,-0.03253 0.16602,-0.05533 0.22461,-0.0684v-6.8945h-2.4805v-1.9824z" fill="#ffffff" stroke-width="1"/><path d="M309.48,175.76c-0.0456,1.08727 -0.1107,2.0443 -0.19531,2.8711h7.8711c-0.09765,4.51827 -0.35156,7.4512 -0.76172,8.7988c-0.20833,0.67707 -0.5957,1.1458 -1.1621,1.4062c-0.44271,0.20182 -1.09051,0.30273 -1.9434,0.30273c-0.89847,0 -1.91733,-0.06836 -3.0566,-0.20507l-0.38085,-2.1973c1.52993,0.21485 2.6074,0.32227 3.2324,0.32227c0.52734,0 0.86264,-0.14974 1.0059,-0.44922c0.34505,-0.7292 0.58593,-2.74093 0.72265,-6.0352h-5.8105c-0.21485,1.17187 -0.51758,2.1875 -0.90821,3.0469c-1.08727,2.37627 -2.90367,4.26103 -5.4492,5.6543l-1.543,-1.7188c2.55207,-1.32813 4.23827,-3.06967 5.0586,-5.2246c0.54687,-1.4388 0.90167,-3.62957 1.0644,-6.5723h-6.4648v-2.002h7.9785v-3.2617h2.2559v3.2617h8.2422v2.002z" fill="#ffffff" stroke-width="1"/></g></g></svg>