<?xml version="1.0" encoding="UTF-8"?>
<svg width="480" height="360" version="1.1" viewBox="0 0 480 360" xmlns="http://www.w3.org/2000/svg">
 <g dominant-baseline="central" fill="#fff" aria-label="択捉島付近">
  <path d="m254.49 179.59q1.0742 5.1367 5.2441 7.959l-1.416 1.9629q-3.5742-2.7246-5.0684-6.9629-0.49804-1.4356-0.78125-2.959h-2.207q0 0.0684 0 0.16602-0.0879 3.3789-1.0156 5.9863-0.71289 2.0215-2.168 3.8867l-1.4356-1.7188q2.5586-3.5352 2.5586-9.1992v-7.3926h10.059v8.2715zm1.6699-6.4355h-5.8789v4.5801h5.8789zm-13.154 0.94726v-3.6035h2.0606v3.6035h2.0312v1.9434h-2.0312v3.1738q1.0352-0.35156 1.9531-0.71289l0.19532 1.8359q-1.2305 0.53711-2.1484 0.8789v6.4356q0 0.9668-0.42969 1.377-0.40039 0.38086-1.4062 0.38086-1.0644 0-2.0508-0.17578l-0.38086-2.0801q0.98633 0.18555 1.6699 0.18555 0.3125 0 0.41992-0.0977 0.11719-0.0977 0.11719-0.41015v-4.9121q-1.1035 0.34179-2.1875 0.63476l-0.57617-1.9922q1.9531-0.47852 2.7637-0.71289v-3.8086h-2.4609v-1.9434z" dominant-baseline="central"/>
  <path d="m273.91 186.78q1.0254 0.25391 2.3926 0.25391h3.4863q-0.41016 0.9668-0.60547 2.002h-2.9004q-3.0469 0-4.8242-1.1035-1.3477-0.83985-2.2363-2.4414-0.68359 2.3047-1.875 4.0625l-1.5039-1.3965q2.0117-3.3789 2.4414-8.1543l1.8848 0.2832q-0.17579 1.6309-0.41016 2.9297 0.69336 1.6992 2.168 2.7246v-7.3828h-4.2774v-7.1387h10.439v7.1387h-4.1797v2.627h4.6191v1.8555h-4.6191zm-4.2188-13.584v3.584h6.3574v-3.584zm-6.543 0.9082v-3.6035h2.041v3.6035h2.002v1.9434h-2.002v3.0371q0.97656-0.3418 1.7773-0.63476l0.20508 1.8164q-1.0156 0.42969-1.9824 0.80078v6.6309q0 1.0254-0.47852 1.4062-0.40039 0.3125-1.3477 0.3125-1.0254 0-2.0801-0.15625l-0.40039-2.0996q1.2988 0.18555 1.748 0.18555 0.33203 0 0.42969-0.11719 0.0879-0.10742 0.0879-0.41015v-5.0195q-1.123 0.3711-2.2656 0.6836l-0.59571-2.002q1.709-0.41993 2.8613-0.76172v-3.6719h-2.5781v-1.9434z" dominant-baseline="central"/>
  <path d="m287.74 171.98q0.36133-0.86914 0.58594-1.6602l2.3828 0.32226q-0.3418 0.81055-0.625 1.3379h6.5039v6.3672h-11.797v0.98633h14.697v1.582h-14.697v0.99609h14.014q-0.12695 4.4727-0.5664 6.0352-0.28321 0.99609-1.0645 1.3184-0.55664 0.23437-1.6992 0.23437-1.1719 0-2.1875-0.14648l-0.39063-1.6406h-9.7852v1.084h-2.0996v-4.6973h2.0996v2.0117h3.3594v-2.6367h-3.8379v-11.494zm4.1504 14.131v-2.0117h2.0215v3.3984q0.81054 0.0781 1.3476 0.0781 0.66406 0 0.83008-0.38085 0.32227-0.7129 0.50781-3.7207h-8.0273v2.6367zm-7.0996-12.627v0.96679h9.6387v-0.96679zm0 2.3633v1.0644h9.6387v-1.0644z" dominant-baseline="central"/>
  <path d="m305.44 175.96v13.545h-2.1191v-10.029q-0.79101 1.1133-1.8359 2.3047l-1.1035-2.0996q1.9824-2.1973 3.3984-5.1172 0.85937-1.7676 1.7188-4.2188l2.041 0.55664q-0.88867 2.6758-2.0996 5.0586zm11.123-0.85937h2.9394v1.9629h-2.9394v10.254q0 1.2891-0.625 1.7188-0.45898 0.32227-1.7285 0.32227-1.5527 0-3.1836-0.17578l-0.41992-2.1387q1.7383 0.2539 3.2422 0.2539 0.41015 0 0.49804-0.17578 0.0586-0.12695 0.0586-0.41992v-9.6387h-7.9883v-1.9629h7.9883v-4.2578h2.1582zm-6.1816 9.4629q-1.1035-2.9395-2.7246-5.3613l1.8652-1.084q1.7578 2.5879 2.8223 5.3027z" dominant-baseline="central"/>
  <path d="m325.52 185.06q0.78125 0.90821 1.7578 1.3477 1.6016 0.72266 4.1992 0.72266h8.3203q-0.35156 0.66406-0.6543 1.9043h-7.7637q-3.3594 0-5.1465-1.0547-0.73242-0.43946-1.6113-1.4356-0.0684 0.0781-0.16602 0.19531-1.4355 1.6992-2.8516 2.7734l-1.1816-2.002q1.5527-0.92774 2.998-2.0996v-4.8242h-2.8418v-1.9238h4.9414zm2.5391-12.959 0.51758-0.0391q4.5215-0.3125 8.125-1.3379l1.5234 1.7188q-3.7891 0.99609-8.0859 1.3476v2.5293h9.043v1.9043h-3.2812v7.959h-2.1582v-7.959h-3.6035q-0.0488 3.1348-0.46875 4.9902-0.38086 1.709-1.25 3.0664l-1.7969-1.3574q0.9668-1.5039 1.2402-3.7305 0.19531-1.5332 0.19531-4.1699zm-3.6133 3.8184q-1.4941-2.1094-3.2227-3.7793l1.6016-1.2793q1.6797 1.4062 3.3789 3.5742z" dominant-baseline="central"/>
 </g>
</svg>
