<svg version="1.1" xmlns="http://www.w3.org/2000/svg" xmlns:xlink="http://www.w3.org/1999/xlink" width="36.35852" height="52.18793" viewBox="0,0,36.35852,52.18793"><g transform="translate(79.45395,115.36902)"><g data-paper-data="{&quot;isPaintingLayer&quot;:true}" fill="#ff0000" fill-rule="evenodd" stroke="none" stroke-width="0" stroke-linecap="round" stroke-linejoin="round" stroke-miterlimit="10" stroke-dasharray="" stroke-dashoffset="0" style="mix-blend-mode: normal"><path d="M-53.28501,-84.06827l0.64997,1.46794l1.97992,-0.18399l1.07996,0.73097l1.48994,-0.17199l0.26998,1.13295l1.37994,0.46798l0.73997,0.76297l2.10992,4.39583l0.46998,3.33687l0.02,1.56794l-1.87993,1.60894l-0.2,1.08096l-2.23991,2.20091l-3.78985,1.60693l-1.08996,0.88197l-1.01996,-1.13896l-2.29991,-1.26194l-1.08995,-1.51194l-1.33995,-0.48099l-1.42994,-1.33894l-0.42999,-1.30295l-0.90996,-0.67197l-0.32999,-1.08896l-0.79996,-0.43998l-0.53998,-2.13192l-0.63997,-1.01896l1.24995,-0.85296l-0.61997,-1.32194l-0.30999,-1.94992l2.07992,-2.69089l1.72993,-0.85997l0.85997,-1.63793l2.00992,-1.25295l2.83989,2.06692"/><path d="M-77.58404,-112.45714l1.33995,1.25295l1.47994,0.27999l1.93992,-0.78097l0.36999,-0.66298l-0.31999,-2.54989l1.62994,1.46994l1.74993,4.02384l-0.51998,0.19699l-0.51997,1.79293l-0.01,3.21487l0.34999,3.24587l-0.10999,1.65293l-0.95997,1.55093l0.72997,3.02988l-1.15995,3.43986l0.14999,2.4119l-2.10992,0.59498l-0.85997,-1.34695l0.98997,-1.80692l-0.63997,-2.36691l-1.38995,-1.63093l-0.68998,-3.85685l-1.67993,-4.50882l0.79996,-0.43498l-0.54997,-1.42594l0.62998,-1.53994l-0.45999,-0.77197l0.70998,-1.12795l-0.26999,-1.27695l-0.91996,-0.89696l-1.56994,-0.43198l1.03996,-1.28695l-0.91996,-0.77296l-0.03,-1.59194l1.77993,2.91188"/></g></g></svg>