<?xml version="1.0" encoding="UTF-8"?>
<svg width="480" height="360" version="1.1" viewBox="0 0 480 360" xmlns="http://www.w3.org/2000/svg">
 <g dominant-baseline="central" fill="#fff" aria-label="愛知県西部">
  <path d="m255.54 174.81h3.4961v4.0039h-1.748q0.57617 0.84961 1.1035 1.8164l-1.875 1.0058q-1.2012-2.4023-2.4414-3.9062l1.7188-0.82031q0.625 0.72266 1.123 1.377v-1.875h-6.4844q0.83008 0.85937 1.7188 2.2168l-1.7578 1.084q-0.61523-1.2305-1.7188-2.5586l1.3184-0.74218h-6.9141v2.4023h-2.1191v-4.0039h3.3398q-0.30273-0.74218-0.77148-1.543-0.42969 0.0195-1.4551 0.0684l-0.82031-1.6407q9.0918-0.22461 15.137-1.3086l1.543 1.4453q-1.416 0.23437-2.6074 0.40039l1.4258 0.41992q-0.35157 0.82031-1.2109 2.1582zm-2.1191 0q0.73242-1.3281 1.1719-2.4805-1.8945 0.25391-4.248 0.44922 0.61523 0.95703 0.98632 2.0312zm-4.1992 0q-0.37109-0.88867-0.98633-1.875l-2.6074 0.20508q0.57617 0.9375 0.83984 1.6699zm-3.2812 9.7266q-1.7285 1.0938-3.7598 1.8164l-1.2207-1.582q3.7891-1.1621 6.0644-3.418-0.76171-0.3125-0.76171-1.0644v-3.1348h2.0801v2.1387q0 0.51758 0.25391 0.625 0.24414 0.0977 1.8066 0.0977 1.7676 0 1.9727-0.21484 0.24414-0.25391 0.26367-1.4062l1.8945 0.47851q0.01 0.0977 0.01 0.18555 0 1.2695-0.4004 1.8555-0.2832 0.41992-1.1035 0.51758-1.0742 0.13672-3.0078 0.13672-0.41016 0-0.75196-0.01-0.37109 0.45898-0.74218 0.83008h6.8652l0.89844 0.89844q-1.6016 1.6992-3.7988 2.9492 2.8809 0.90821 7.0312 1.2988l-1.2402 1.9141q-4.2383-0.61523-7.8906-2.1094-3.8574 1.8066-8.6816 2.4121l-1.123-1.7578q4.0332-0.32227 7.7637-1.6602-1.3281-0.78125-2.4219-1.7969zm4.4727 0.92773q0.0586-0.0195 0.2539-0.12695 1.2988-0.69336 2.2754-1.4648h-5.2148q1.2695 0.9375 2.6856 1.5918zm-8.4766-4.5312q0.9668-1.2402 1.7969-3.7207l1.9043 0.55664q-0.63477 2.5293-1.8652 4.209z" dominant-baseline="central"/>
  <path d="m267.04 174.72v3.6621h3.1934v1.8848h-3.2226q-0.0488 0.9668-0.17578 1.9434 1.9922 1.6504 3.6816 3.6816l-1.4062 1.9336q-1.1328-1.748-2.7734-3.457-0.38086 1.1328-1.1328 2.3047-1.1426 1.7774-2.8516 2.8711l-1.5039-1.7188q3.75-2.2461 4.082-7.5586h-4.2383v-1.8848h4.2871v-3.6621h-1.1621q-0.68359 1.6211-1.6797 2.9785l-1.6016-1.2988q1.6894-2.1875 2.4023-5.8984l2.0996 0.3125q-0.2832 1.2012-0.52734 1.9629h5.3223v1.9434zm11.66-2.1973v16.143h-2.0996v-1.2891h-3.6816v1.4844h-2.0801v-16.338zm-5.7812 1.9629v10.928h3.6816v-10.928z" dominant-baseline="central"/>
  <path d="m296.76 170.98v9.4629h-11.621v-9.4629zm-9.5215 1.543v1.2207h7.4023v-1.2207zm0 2.5977v1.2207h7.4023v-1.2207zm0 2.5976v1.2598h7.4023v-1.2598zm-3.9356 4.0234h16.191v1.6992h-8.0762v6.0644h-2.2168v-6.0644h-8.0371v-10.957h2.1387zm-2.5 5.8984q2.3242-1.0742 4.4434-3.6035l1.7969 1.0449q-2.0898 2.6465-4.6387 4.1602zm16.836 1.2598q-1.4941-1.8359-4.4922-3.8574l1.6797-1.1816q2.3535 1.3574 4.6191 3.5644z" dominant-baseline="central"/>
  <path d="m306.44 176.07v-2.7344h-5.8203v-1.8848h18.779v1.8848h-6.4551v2.7344h5.4785v13.164h-2.1191v-1.377h-12.607v1.377h-2.0996v-13.164zm2.0215 0h2.4609v-2.7344h-2.4609zm-2.0312 1.7773h-2.7344v8.1543h12.607v-2.9297h-3.7012q-1.6797 0-1.6797-1.6797v-3.5449h-2.4805q-0.0391 2.4024-0.72266 3.8477-0.64453 1.377-2.5391 2.7246l-1.3477-1.5039q1.8164-1.1133 2.2949-2.7539 0.2539-0.87891 0.30273-2.3145zm6.5137 0v2.9883q0 0.38086 0.3418 0.38086h3.0176v-3.3691z" dominant-baseline="central"/>
  <path d="m326.98 172.75h4.1797v1.8848h-1.377q-0.3711 1.4941-0.9961 3.1348h2.6074v1.8848h-10.898v-1.8848h2.3926q-0.39062-1.875-0.82031-3.1348h-1.2695v-1.8848h4.1406v-2.2559h2.041zm-2.9394 1.8848q0.49805 1.4551 0.77148 3.1348h1.9922l0.09766-0.27344q0.41992-1.1133 0.78125-2.5293l0.0879-0.33203zm6.0547 6.6602v7.998h-2.002v-0.95703h-4.2578v1.1621h-2.0606v-8.2031zm-6.2598 1.7969v3.3887h4.2578v-3.3887zm13.047-4.9316q1.1621 1.1035 1.8457 2.627 0.67383 1.5234 0.67383 3.0859 0 1.4453-0.53711 2.1289-0.55664 0.71289-1.8359 0.71289-1.0938 0-2.1191-0.15625l-0.47852-2.0801q1.1816 0.21485 1.9531 0.21485 0.58594 0 0.73242-0.27344 0.0977-0.19531 0.0977-0.78125 0-2.4121-1.4453-4.1602-0.38086-0.45898-0.95703-0.98633l0.11719-0.27343q1.0156-2.2949 1.582-4.7852h-2.5v16.064h-2.0215v-18.086h5.8789l1.084 0.99609q-0.98633 3.3594-2.0703 5.752z" dominant-baseline="central"/>
 </g>
</svg>
