<?xml version="1.0" encoding="UTF-8"?>
<svg width="480" height="360" version="1.1" viewBox="0 0 480 360" xmlns="http://www.w3.org/2000/svg">
 <g dominant-baseline="central" fill="#fff" aria-label="硫黄島近海">
  <path d="m243.65 178.26h3.3691v9.0527h-3.3496v1.7188h-1.7773v-7.2266q-0.36133 0.5957-0.99609 1.4356l-0.83985-2.168q2.1582-2.9492 3.1152-7.7148h-2.5391v-1.9043h7.0508v1.1816h4.1992v-2.1387h2.1387v2.1387h5.0976v1.8359h-5.9961q-0.71289 1.5039-1.7285 3.0957 1.1035-0.0488 1.6504-0.0684 0.61524-0.0293 1.3379-0.0684l1.377-0.0781q-0.625-0.88868-1.3184-1.8164l1.543-0.82031q1.8848 2.1289 3.2617 4.3848l-1.6797 1.123q-0.55664-0.97656-0.81055-1.3672-0.13672 0.0195-0.34179 0.0488-3.1445 0.46875-8.418 0.67383l-0.53711-1.9043q0.70312-0.01 1.2598-0.0195l0.59571-0.0195q0.92773-1.6211 1.5918-3.1641h-3.5254v-1.1133h-2.3438q-0.43945 2.3926-1.3867 4.9024zm0.0195 1.7773v5.4785h1.6699v-5.4785zm8.1738 0.80078h1.7774v7.793h-1.7774zm3.1152-0.51757h1.8359v6.4551q0 0.25391 0.0586 0.35157 0.0879 0.12695 0.40039 0.12695 0.39062 0 0.47851-0.27344 0.14649-0.44922 0.20508-2.5l1.7383 0.83985q-0.12695 2.3144-0.40039 2.9394-0.3125 0.69336-1.2012 0.83984-0.39062 0.0586-0.98633 0.0586-1.1719 0-1.6016-0.24414-0.52734-0.30274-0.52734-1.2793zm-6.2402 0.21484h1.8164v1.2988q0 3.2715-0.53711 4.9219-0.51758 1.582-2.002 2.8418l-1.5625-1.4258q1.0352-0.72266 1.5039-1.6309 0.78125-1.4746 0.78125-4.8438z" dominant-baseline="central"/>
  <path d="m270.96 177.08v1.2598h6.5234v7.5195h-14.961v-7.5195h6.3965v-1.2598h-8.418v-1.6406h4.9023v-1.582h-3.8574v-1.6016h3.8574v-1.7578h2.0996v1.7578h4.8633v-1.7578h2.1191v1.7578h3.9746v1.6016h-3.9746v1.582h5.0195v1.6406zm-2.041 2.7832h-4.2969v1.4551h4.2969zm2.041 0v1.4551h4.4043v-1.4551zm-2.041 2.8906h-4.2969v1.6211h4.2969zm2.041 0v1.6211h4.4043v-1.6211zm1.4062-8.8965h-4.8633v1.582h4.8633zm-12.021 14.18q3.6133-0.74219 6.3379-2.1387l1.6406 1.2012q-2.9785 1.7383-6.6211 2.5977zm17.676 1.5625q-2.8906-1.3574-6.4551-2.4609l1.6016-1.2402q3.125 0.76172 6.4356 2.1387z" dominant-baseline="central"/>
  <path d="m287.74 171.98q0.36133-0.86914 0.58594-1.6602l2.3828 0.32226q-0.3418 0.81055-0.625 1.3379h6.5039v6.3672h-11.797v0.98633h14.697v1.582h-14.697v0.99609h14.014q-0.12695 4.4727-0.5664 6.0352-0.28321 0.99609-1.0645 1.3184-0.55664 0.23437-1.6992 0.23437-1.1719 0-2.1875-0.14648l-0.39063-1.6406h-9.7852v1.084h-2.0996v-4.6973h2.0996v2.0117h3.3594v-2.6367h-3.8379v-11.494zm4.1504 14.131v-2.0117h2.0215v3.3984q0.81054 0.0781 1.3476 0.0781 0.66406 0 0.83008-0.38085 0.32227-0.7129 0.50781-3.7207h-8.0273v2.6367zm-7.0996-12.627v0.96679h9.6387v-0.96679zm0 2.3633v1.0644h9.6387v-1.0644z" dominant-baseline="central"/>
  <path d="m305.52 185.06q0.78125 0.90821 1.7578 1.3477 1.6016 0.72266 4.1992 0.72266h8.3203q-0.35156 0.66406-0.6543 1.9043h-7.7637q-3.3594 0-5.1465-1.0547-0.73242-0.43946-1.6113-1.4356-0.0684 0.0781-0.16602 0.19531-1.4355 1.6992-2.8516 2.7734l-1.1816-2.002q1.5527-0.92774 2.998-2.0996v-4.8242h-2.8418v-1.9238h4.9414zm2.5391-12.959 0.51758-0.0391q4.5215-0.3125 8.125-1.3379l1.5234 1.7188q-3.7891 0.99609-8.0859 1.3476v2.5293h9.043v1.9043h-3.2812v7.959h-2.1582v-7.959h-3.6035q-0.0488 3.1348-0.46875 4.9902-0.38086 1.709-1.25 3.0664l-1.7969-1.3574q0.9668-1.5039 1.2402-3.7305 0.19531-1.5332 0.19531-4.1699zm-3.6133 3.8184q-1.4941-2.1094-3.2227-3.7793l1.6016-1.2793q1.6797 1.4062 3.3789 3.5742z" dominant-baseline="central"/>
  <path d="m337.76 175.8q0 0.45899-0.0879 4.3555h1.8652v1.7578h-1.9043q-0.0293 1.2793-0.12695 2.9004h1.6504v1.7188h-1.7774q-0.11719 1.416-0.32226 1.875-0.45899 1.0938-2.2266 1.0938-1.1328 0-2.0898-0.16601l-0.36133-1.7383q1.377 0.19531 2.1094 0.19531 0.5957 0 0.71289-0.41992 0.0586-0.20508 0.10742-0.83985h-6.9531q-0.01 0.0781-0.0293 0.16602-0.0879 0.51758-0.16602 0.97656l-2.0215-0.19531q0.5957-3.5254 0.80078-5.332l0.0293-0.23438h-1.9531v-1.7578h2.1582q0.27344-2.3633 0.46875-4.3555zm-6.1719 1.6992h-2.1387q-0.0293 0.49805-0.17578 2.0996l-0.0586 0.55664h2.168l0.0293-0.27344q0.0195-0.2832 0.0586-0.79101 0.0977-1.3672 0.11719-1.5918zm1.9238 0q-0.0488 1.1621-0.14648 2.5684v0.0879h2.2949q0.0391-1.3379 0.0684-2.6562zm-2.2852 4.4141h-2.1973q-0.14648 1.1914-0.3125 2.3535l-0.0781 0.54687h2.2852q0.23438-2.1191 0.30274-2.9004zm2.002 0q-0.0293 0.39063-0.11719 1.2891l-0.15625 1.6113h2.4902q0.0488-0.94726 0.0781-1.4258 0.0586-1.0449 0.0781-1.4746zm-3.8281-9.6387h9.4336v1.8164h-10.244q-0.79102 1.6113-2.0117 3.0664l-1.3965-1.5234q1.9238-2.2559 2.7344-5.1953l2.0801 0.21485q-0.35156 1.0156-0.5957 1.6211zm-5.3809 2.8418q-1.2012-1.6504-2.9199-3.0957l1.4746-1.4258q1.5918 1.1719 3.0274 2.959zm-0.70313 5.1562q-1.4844-1.9043-2.998-3.1934l1.5234-1.4648q1.6992 1.3379 3.0566 3.0469zm-2.6562 7.666q1.6992-2.3535 3.2227-6.2012l1.7383 1.2402q-1.2695 3.5547-3.2617 6.5234z" dominant-baseline="central"/>
 </g>
</svg>
