<?xml version="1.0" encoding="UTF-8"?>
<svg width="80" height="80" version="1.1" viewBox="0 0 80 80" xmlns="http://www.w3.org/2000/svg">
 <rect width="80" height="80" fill-opacity="0"/>
 <g transform="scale(.98292 1.0174)" fill="#fff" aria-label="不明">
  <path d="m28.151 27.633q-0.97366 1.5996-2.5037 3.6686v24.185h-3.9816v-19.473q-5.2682 5.6507-12.501 9.7888l-2.382-3.2513q11.093-6.068 16.761-14.918h-15.666v-3.7034h31.801v3.7034zm9.8236 17.265q-4.9379-5.1813-11.649-10.258l2.7124-2.6254q6.92 4.8335 11.754 9.6845z"/>
  <path d="m63.116 43.003q-0.2608 3.6686-1.4083 6.381-1.4083 3.3383-5.1465 6.3114l-2.8167-2.8167q2.4863-1.7039 3.7382-3.8251 2.0343-3.4426 2.0343-9.215v-16.9h15.092v28.88q0 1.8952-0.99105 2.6776-0.7998 0.62593-2.6254 0.62593-2.5559 0-5.0248-0.20864l-0.64331-3.7382q2.3472 0.38251 4.3467 0.38251 0.81718 0 1.0258-0.3999 0.1391-0.27819 0.1391-0.85196v-7.3025zm0.1391-3.1992h7.5807v-5.2682h-7.5807v4.9205q0 0.27819 0 0.34774zm0-8.4326h7.5807v-5.0422h-7.5807zm-6.4331-8.3283v24.463h-9.1977v3.4948h-3.773v-27.958zm-9.1977 3.2687v7.1634h5.5986v-7.1634zm0 10.223v7.6154h5.5986v-7.6154z"/>
 </g>
</svg>
