<svg xmlns="http://www.w3.org/2000/svg" viewBox="0 0 140 60" version="1.1" height="60" width="140"><g transform="translate(-719,-613)"><rect fill="none" ry="0" rx="0" height="60" width="140" y="613" x="719"></rect><path stroke-linejoin="round" stroke-linecap="round" fill="#686870" d="m739 623h100c5.54 0 10 4.46 10 10v20c0 5.54-4.46 10-10 10h-100c-5.54 0-10-4.46-10-10v-20c0-5.54 4.46-10 10-10z"></path><path aria-label="キャンセル" fill="#fff" d="m758.832 635.832 0.46094 2.83594 5.40625-0.375 0.11719 1.60156-5.25 0.36719 0.51562 3.14062 5.71094-0.41406 0.125 1.59375-5.58594 0.4375 0.82031 4.92188-1.84375 0.22656-0.8125-5.00781-6.46875 0.5-0.125-1.64844 6.32032-0.46875-0.51563-3.14844-5.07031 0.35156-0.10938-1.61718 4.91407-0.33594-0.45313-2.75zm13.11719 2.54688 0.48437 2.65625 5.75782-0.92969 0.99218 0.73437q-0.89062 3.67969-3.125 5.75782l-1.27343-1.02344q1-0.8125 1.6875-1.95313 0.54687-0.89843 0.75781-1.78906l-4.53125 0.75 1.29687 7.29688-1.60156 0.28906-1.32812-7.32813-3.25782 0.54688-0.22656-1.58594 3.20313-0.51562-0.48438-2.63282zm14.92969 1.77343q-2.46875-1.10156-5.13282-1.76562l0.54688-1.67969q3.08594 0.70313 5.17969 1.75zm-4.9375 7.77344q3.86718-0.32812 5.92187-1.38281 2.42188-1.25 3.71875-3.83594 0.84375-1.67187 1.36719-4.375l1.5 1.10156q-0.63281 2.89063-1.53125 4.59375-1.625 3.10157-4.96875 4.49219-2.10938 0.875-5.64063 1.25zm17.25781-11.96875h1.78906v3.67969l7.50781-1.00781 0.97657 0.97656q-0.86719 2.42187-2.10157 3.91406-0.84375 1.02344-2 1.73438l-1.35937-1.13282q1.35937-0.75781 2.3125-1.99218 0.66406-0.85938 0.96875-1.77344l-6.30469 0.91406v5.39063q0 0.92968 0.64063 1.10937 0.55468 0.16406 2.45312 0.16406 2.15625 0 4.47656-0.23437v1.78125q-2.11718 0.15625-4.36718 0.15625-3.11719 0-3.875-0.3125-1.11719-0.45313-1.11719-2.16406v-5.63282l-3.28125 0.47657-0.17188-1.66407 3.45313-0.46093zm15.125 0.72656h1.75781v2.84375q0 4.08594-0.60937 5.96875-0.80469 2.49219-3.375 4.15625l-1.19532-1.39062q1.78125-1.25 2.50782-2.59375 0.60937-1.13281 0.80468-3.03906 0.10938-1.07813 0.10938-3.07032zm4-0.45312h1.75781v11.10156q1.55469-0.80469 2.72656-2.28906 1.28125-1.625 1.91407-3.85156l1.375 1.32812q-0.78125 2.32031-2.14063 3.96094-1.71094 2.07031-4.48437 3.25781l-1.14844-0.99219z"></path></g></svg>
