<svg xmlns="http://www.w3.org/2000/svg" viewBox="0 0 208 80" version="1.1" height="80" width="208"><rect stop-color="#000000" fill-opacity="0" height="80" width="208"></rect><path aria-label="遠地地震" fill="#fff" d="m99.41211 45.80762 0.17773 0.08887q1.32032 0.609375 2.85645 1.434571l-1.66309 1.980468q-2.7041-1.625-5.58593-3.046875v3.821289h-2.65332v-5.128906q-2.412113 1.904297-5.446293 3.173828l-1.637695-1.891601q3.935547-1.447266 7.033208-3.694336h-5.07813v-5.293945h13.16504v5.293945h-0.10156l1.58691 1.015625q-1.3457 1.256836-2.65332 2.24707zm-2.1582-0.939453q0.15234-0.126953 0.43164-0.380859 0.97754-0.888672 1.86621-1.942383h-3.74512q-0.16504 0.139648-0.45703 0.380859l-0.15234 0.126953v1.041016q0.77441 0.266602 2.05664 0.774414zm-7.236331-5.87793v1.840821h7.934571v-1.840821zm-5.408203 8.899414q0.990234 1.041016 2.259766 1.663086 0.863281 0.418946 2.488281 0.710938 1.65039 0.279297 3.338867 0.279297h11.12109q-0.48242 0.926758-0.8252 2.412109h-10.37207q-4.291011 0-6.525386-1.129883-1.320313-0.672851-2.526368-1.980468-1.790039 2.24707-3.618164 3.707031l-1.421875-2.564453q1.637696-1.028321 3.427735-2.526368v-6.576171h-3.25v-2.500977h5.90332zm7.934574-17.37988v-1.739258h2.65332v1.739258h6.208v1.929687h-6.208v1.447266h7.59179v2.03125h-17.31641v-2.03125h7.071287v-1.447266h-5.649412v-1.929687zm-9.59766 5.014648q-1.688477-2.907227-3.770508-5.06543l2.107422-1.536132q1.967774 1.916992 3.87207 4.836914zm34.41699 3.529297v10.05469q0 0.977539 0.83789 1.180664 0.86328 0.215821 3.94824 0.215821 3.00879 0 3.97364-0.304688 0.5459-0.177734 0.71093-0.990234 0.21582-1.142578 0.22852-2.704102l2.65332 0.749024q-0.20312 3.745117-1.02832 4.786133-0.5459 0.685546-1.65039 0.8125-1.73926 0.190429-5.90332 0.190429-3.22461 0-4.22754-0.177734-1.51074-0.253906-1.91699-1.333008-0.20313-0.571289-0.20313-1.523437v-10.06738l-2.4248 0.83789-0.59668-2.46289 3.02148-1.041016v-6.842773h2.57715v5.954101l2.72949-0.926758v-6.690429h2.55176v5.801758l4.25293-1.459961 1.33301 0.8125v9.508789q0 0.990234-0.46973 1.472656-0.5332 0.533203-1.79004 0.533203-1.02832 0-2.18359-0.177734l-0.41895-2.424805q0.74903 0.19043 1.52344 0.19043 0.55859 0 0.68555-0.228516 0.12695-0.19043 0.12695-0.634766v-6.004882l-3.05957 1.066406v10.27051h-2.55176v-9.394532zm-9.33105-4.151367v-6.131836h2.72949v6.131836h2.46289v2.577148h-2.46289v8.074219q1.33301-0.457031 2.64062-0.952149l0.24121 2.450196q-4.11328 1.878906-8.44238 3.148437l-0.88867-2.704101q1.95508-0.507813 3.42773-0.964844 0.17774-0.06348 0.292-0.08887v-8.962891h-3.22461v-2.577148zm35.33105 4.151367v10.05469q0 0.977539 0.83789 1.180664 0.86328 0.215821 3.94824 0.215821 3.00879 0 3.97364-0.304688 0.5459-0.177734 0.71093-0.990234 0.21582-1.142578 0.22852-2.704102l2.65332 0.749024q-0.20312 3.745117-1.02832 4.786133-0.5459 0.685546-1.65039 0.8125-1.73926 0.190429-5.90332 0.190429-3.22461 0-4.22754-0.177734-1.51074-0.253906-1.91699-1.333008-0.20313-0.571289-0.20313-1.523437v-10.06738l-2.4248 0.83789-0.59668-2.46289 3.02148-1.041016v-6.842773h2.57715v5.954101l2.72949-0.926758v-6.690429h2.55176v5.801758l4.25293-1.459961 1.33301 0.8125v9.508789q0 0.990234-0.46973 1.472656-0.5332 0.533203-1.79004 0.533203-1.02832 0-2.18359-0.177734l-0.41895-2.424805q0.74903 0.19043 1.52344 0.19043 0.5586 0 0.68555-0.228516 0.12695-0.19043 0.12695-0.634766v-6.004882l-3.05957 1.066406v10.27051h-2.55176v-9.394532zm-9.33105-4.151367v-6.131836h2.72949v6.131836h2.46289v2.577148h-2.46289v8.074219q1.33301-0.457031 2.64062-0.952149l0.24121 2.450196q-4.11328 1.878906-8.44238 3.148437l-0.88867-2.704101q1.95508-0.507813 3.42773-0.964844 0.17774-0.06348 0.292-0.08887v-8.962891h-3.22461v-2.577148zm33.59179-2.704102v-1.091797h-7.93457v-1.815429h18.73828v1.815429h-8.09961v1.091797h10.51172v4.557617h-2.75488v-2.919922h-7.75684v4.938477h-2.7041v-4.938477h-7.61718v2.919922h-2.7295v-4.557617zm8.98828 18.01465q1.94239 0.736328 4.84961 1.167968l-1.48535 2.158203q-4.07519-0.698242-6.69043-2.399414-2.60254-1.701171-4.0498-4.227539h-2.80567v3.910157q2.80567-0.393555 5.20508-0.837891l0.17774 1.891602q-4.46875 1.066406-10.21973 1.853515l-0.74902-2.234375q1.99316-0.21582 2.72949-0.304687l0.15234-0.02539v-4.25293h-2.78027q-0.17774 2.234375-0.58399 3.567383-0.48242 1.59961-1.54882 2.983399l-2.25977-1.866211q1.24414-1.612305 1.54883-3.770508 0.16504-1.167969 0.16504-2.907227v-5.382812h21.91211v1.688476h-19.18262v3.897461h20.27441v1.790039h-2.88183l1.6123 1.066407q-1.43457 1.193359-3.38965 2.234374zm-1.98046-0.977539q1.82812-1.244141 2.90722-2.323243h-5.54785q1.0918 1.396485 2.64063 2.323243zm-13.50782-14.45996h5.40821v1.43457h-5.40821zm0 2.335937h5.40821v1.459961h-5.40821zm10.2959-2.335937h5.57324v1.43457h-5.57324zm0 2.335937h5.57324v1.459961h-5.57324zm-8.91211 5.179688h15.80567v1.663086h-15.80567z"></path><path stroke-width=".05" fill="#fff" d="m43.634 63.63046q-4.523077 0-8.453846-1.696154-3.930769-1.696153-6.838461-4.603846-2.907692-2.907692-4.576922-6.865384-1.669231-3.957692-1.669231-8.480768 0-4.523077 1.669231-8.426923 1.66923-3.903846 4.576922-6.811538t6.838461-4.549999q3.930769-1.642308 8.453846-1.642308t8.453846 1.642308q3.930768 1.642307 6.838461 4.549999 2.907692 2.907692 4.576922 6.811538 1.669231 3.903846 1.669231 8.426923 0 4.523076-1.669231 8.480768-1.66923 3.957692-4.576922 6.865384-2.907693 2.907693-6.838461 4.603846-3.930769 1.696154-8.453846 1.696154zm0-3.123077q1.884615-1.938461 3.15-4.442307 1.265384-2.503846 2.073077-5.95h-10.39231q0.753846 3.230769 2.01923 5.815385 1.265385 2.584615 3.15 4.576922zm-4.576923-0.646154q-1.346154-2.046153-2.315384-4.415384-0.969231-2.36923-1.615385-5.330769h-8.076922q2.046153 3.823077 4.738461 6.003846 2.692307 2.180769 7.26923 3.742307zm9.207692-0.05385q3.876923-1.238461 6.973076-3.715384 3.096154-2.476923 4.980769-5.976923h-8.023076q-0.7 2.907692-1.642308 5.276923-0.942307 2.369231-2.288461 4.415384zm-22.29231-12.92307h8.561538q-0.161539-1.453846-0.188462-2.611538-0.02692-1.157692-0.02692-2.288461 0-1.346154 0.05385-2.396154t0.215385-2.342308h-8.615384q-0.376923 1.292308-0.511539 2.315385-0.134615 1.023077-0.134615 2.423077t0.134615 2.503846q0.134616 1.103846 0.511539 2.396153zm11.9 0h11.57692q0.215385-1.66923 0.269231-2.71923 0.05385-1.05 0.05385-2.180769 0-1.076923-0.05385-2.073077t-0.269231-2.665385h-11.57692q-0.215385 1.669231-0.269231 2.665385-0.05385 0.996154-0.05385 2.073077 0 1.130769 0.05385 2.180769t0.269231 2.71923zm14.80769 0h8.615384q0.376923-1.292307 0.511539-2.396153 0.134615-1.103846 0.134615-2.503846t-0.134615-2.423077q-0.134616-1.023077-0.511539-2.315385h-8.561538q0.161539 1.884616 0.215385 2.88077 0.05385 0.996153 0.05385 1.857692 0 1.184615-0.08077 2.234615t-0.242308 2.665384zm-0.538461-12.86923h8.076922q-1.776923-3.715384-4.873076-6.192307-3.096154-2.476923-7.134615-3.5 1.346153 1.992308 2.288461 4.307692 0.942308 2.315385 1.642308 5.384615zm-13.67692 0h10.44615q-0.592308-2.853845-1.992308-5.51923-1.4-2.665384-3.284615-4.711538-1.723077 1.453846-2.907692 3.823077-1.184615 2.36923-2.261538 6.407691zm-11.41538 0h8.130768q0.592308-2.907692 1.507693-5.196153 0.915384-2.288461 2.315384-4.442307-4.038461 1.023076-7.053846 3.446153-3.015384 2.423077-4.899999 6.192307z"></path></svg>
