<svg version="1.1" xmlns="http://www.w3.org/2000/svg" xmlns:xlink="http://www.w3.org/1999/xlink" width="208" height="48" viewBox="0,0,208,48"><g transform="translate(-136,-156)"><g stroke="none" stroke-miterlimit="10"><path d="M136,204v-48h208v48z" fill="none" stroke-linejoin="miter"/><path d="M279.21292,174.00977l1.2168,0.69922c0.0235,0.01362 0.04056,0.03657 0.0472,0.06352c0.00664,0.02695 0.00229,0.05552 -0.01205,0.07906c-0.49438,0.81964 -1.0876,1.64792 -1.76562,2.48828c0.28816,0.37083 0.50428,0.66479 0.67187,0.89844c0.65793,-0.83152 1.28065,-1.68897 1.85547,-2.57618c0.01463,-0.02349 0.038,-0.03974 0.06461,-0.04492c0.02661,-0.00518 0.0541,0.00118 0.07602,0.01757l0.89648,0.66797v-1.35742c-0.00051,-0.02748 0.00979,-0.054 0.02857,-0.07351c0.01877,-0.01951 0.04441,-0.03034 0.07105,-0.03001h5.41797c0.02284,0.0001 0.04493,0.00838 0.0625,0.02344l0.68945,0.58789c0.02824,0.0234 0.04174,0.06091 0.03516,0.09766c-0.28256,1.32736 -0.56808,2.45145 -0.85547,3.41406h1.50977c0.02844,-0.00002 0.0555,0.01264 0.07421,0.03472c0.01871,0.02209 0.02726,0.05144 0.02344,0.08051c-0.26276,2.04436 -0.77275,3.74807 -1.52148,5.12305c0.63444,0.74043 1.37671,1.38274 2.24414,1.91602c0.02263,0.01397 0.0389,0.03671 0.04514,0.06314c0.00624,0.02643 0.00194,0.05435 -0.01194,0.07748l-0.88672,1.41016c-0.01463,0.02291 -0.03762,0.03873 -0.06374,0.04388c-0.02612,0.00515 -0.05314,-0.00081 -0.07493,-0.01654c-0.81437,-0.57215 -1.53903,-1.26848 -2.19531,-2.06836c-0.64447,0.82257 -1.45915,1.59234 -2.48047,2.30078c-0.042,0.02916 -0.09859,0.02071 -0.13086,-0.01953l-0.99023,-1.20118c-0.01828,-0.02312 -0.02579,-0.05336 -0.02053,-0.0827c0.00527,-0.02934 0.02277,-0.05481 0.04787,-0.06964c0.7437,-0.43904 1.33053,-0.87235 1.75977,-1.29687c0.25845,-0.2535 0.53783,-0.58832 0.83203,-0.98437c-0.55147,-0.89514 -0.96369,-1.8861 -1.28907,-2.93555c-0.16565,1.25727 -0.36359,2.35387 -0.625,3.1543c-0.42714,1.3125 -1.00872,2.41411 -1.74414,3.30469c-0.01898,0.02331 -0.0471,0.03661 -0.07662,0.03623c-0.02952,-0.00038 -0.05731,-0.0144 -0.07572,-0.03818l-0.90039,-1.17187c-0.0287,-0.03842 -0.02706,-0.09241 0.00391,-0.12891c0.35899,-0.42956 0.64492,-0.99674 0.91601,-1.58594l-0.94922,0.43945c-0.02884,0.01352 -0.06223,0.01189 -0.08971,-0.00437c-0.02748,-0.01626 -0.0457,-0.04516 -0.04896,-0.07766c-0.09411,-0.87829 -0.25409,-1.72423 -0.48242,-2.53711c-0.01502,-0.05221 0.01255,-0.10736 0.0625,-0.125l1.08008,-0.35352c-0.06868,-0.29087 -0.14306,-0.58006 -0.22266,-0.86719c-0.21142,0.0365 -0.49693,0.08325 -0.91602,0.14258l-0.08984,0.01367v6.2207c0,0.05577 -0.0436,0.1011 -0.09766,0.10156h-1.35937c-0.05406,-0.00046 -0.09765,-0.04579 -0.09766,-0.10156v-6.0332l-0.05273,0.00781c-0.00065,0 -0.0013,0 -0.00195,0c-0.66416,0.06991 -1.32665,0.12407 -1.98633,0.16602c-0.04775,0.00287 -0.0906,-0.03009 -0.10156,-0.07812l-0.27735,-1.29687c-0.00616,-0.02925 0.0005,-0.05981 0.01819,-0.08353c0.0177,-0.02372 0.04463,-0.03818 0.07361,-0.03952l0.45312,-0.01367c0.19418,-0.00871 0.3994,-0.01864 0.61329,-0.02734c0.25017,-0.27587 0.52289,-0.59215 0.81445,-0.94141c-0.57112,-0.82127 -1.19819,-1.58357 -1.89258,-2.27734c-0.03704,-0.03743 -0.0396,-0.09807 -0.00586,-0.13868l0.83203,-0.99804c0.01752,-0.02117 0.04271,-0.03401 0.06967,-0.03548c0.02695,-0.00147 0.05331,0.00853 0.07291,0.02767c0.09529,0.09361 0.18996,0.18885 0.28516,0.28711c0.46302,-0.68136 0.89685,-1.41921 1.29101,-2.23242c0.01169,-0.02513 0.03288,-0.0442 0.0586,-0.05274c0.02596,-0.00868 0.05426,-0.00584 0.07812,0.00781zM255.04495,174.06445l0.77149,1.01172c0.02102,0.02669 0.02751,0.06255 0.01726,0.09528c-0.01026,0.03272 -0.03586,0.05788 -0.06805,0.06683c-0.71333,0.18509 -1.50115,0.32668 -2.34765,0.4375v0.58984h2.93164c0.05406,0.00046 0.09765,0.04579 0.09766,0.10156v0.67188h1.3457l0.06836,-2.85742c0.00103,-0.055 0.04432,-0.09916 0.09765,-0.09961h1.35938c0.02664,-0.00033 0.05227,0.0105 0.07104,0.03001c0.01877,0.01951 0.02908,0.04602 0.02857,0.0735l-0.06055,2.85352h2.46289c0.0263,0.00022 0.05143,0.01129 0.06977,0.03073c0.01835,0.01944 0.02839,0.04565 0.02789,0.07278c-0.02256,2.60135 -0.07893,4.69006 -0.17383,6.26758c-0.09487,1.57753 -0.22319,2.63887 -0.39648,3.20898c-0.15089,0.49615 -0.43841,0.83194 -0.84766,0.97266c-0.21284,0.07629 -0.51018,0.10938 -0.89844,0.10938c-0.50468,0 -0.98017,-0.02983 -1.43164,-0.0957c-0.04359,-0.00512 -0.07862,-0.03937 -0.08594,-0.08399l-0.26367,-1.47266c-0.00624,-0.03311 0.00386,-0.06726 0.02695,-0.09113c0.0231,-0.02388 0.05618,-0.03437 0.08829,-0.02801c0.51403,0.10144 0.96881,0.15234 1.35742,0.15234c0.30213,0 0.45679,-0.07685 0.52539,-0.21484c0.06869,-0.1417 0.15953,-0.57606 0.24023,-1.25196c0.16156,-1.34252 0.2674,-3.26256 0.3125,-5.75391l0.00391,-0.24219h-1.11914c-0.08153,2.01822 -0.30993,3.71854 -0.70703,5.0625c-0.49547,1.66929 -1.27383,3.05834 -2.33203,4.16406c-0.03536,0.03653 -0.09165,0.03989 -0.13086,0.00781l-1.10938,-0.88477c-0.02286,-0.01809 -0.03689,-0.04561 -0.03839,-0.07529c-0.0015,-0.02969 0.00968,-0.05855 0.03059,-0.079c0.13889,-0.13449 0.23015,-0.24246 0.33398,-0.35742c-2.15016,0.39599 -4.22555,0.70831 -6.20312,0.90429c-0.04847,0.00389 -0.09244,-0.02929 -0.10352,-0.07812l-0.30664,-1.31836c-0.00681,-0.02953 -0.00047,-0.06065 0.0173,-0.08485c0.01777,-0.02419 0.0451,-0.03893 0.0745,-0.04015c1.09063,-0.06778 2.1236,-0.15151 3.10742,-0.25v-0.77734h-2.81055c-0.05408,0.00065 -0.09855,-0.04382 -0.0996,-0.09961v-1.10352c0,-0.02714 0.01053,-0.05315 0.02924,-0.07223c0.01871,-0.01908 0.04405,-0.02964 0.07036,-0.02933h2.81055v-0.59375h-2.49219c-0.05333,-0.00045 -0.09662,-0.04461 -0.09765,-0.09961v-4.58594c0.00103,-0.055 0.04432,-0.09916 0.09765,-0.09961h2.49219v-0.57227h-3.02148c-0.05406,-0.00046 -0.09766,-0.04579 -0.09766,-0.10156v-1.08789c0,-0.05577 0.0436,-0.1011 0.09766,-0.10156h3.02148v-0.41016c-0.65943,0.0659 -1.39153,0.12497 -2.22265,0.17383c-0.04057,0.00272 -0.07859,-0.02056 -0.09571,-0.05859l-0.48828,-1.07422c-0.01414,-0.03124 -0.01195,-0.06773 0.00581,-0.09694c0.01776,-0.0292 0.04866,-0.04712 0.08208,-0.04759c2.1598,-0.09284 4.08438,-0.33549 5.77735,-0.72461c0.03674,-0.00784 0.07461,0.00656 0.09765,0.03711zM208.53323,174.08203h1.32031c0.05406,0.00046 0.09765,0.0458 0.09766,0.10157v1.76758h1.94726v-1.76758c0,-0.02714 0.01053,-0.05316 0.02925,-0.07224c0.01871,-0.01908 0.04406,-0.02965 0.07037,-0.02933h1.31836c0.05406,0.00046 0.09765,0.0458 0.09765,0.10157v1.76758h0.74805c0.02631,-0.00032 0.05165,0.01024 0.07036,0.02933c0.01871,0.01908 0.02925,0.04509 0.02925,0.07224v1.22852c0,0.02714 -0.01053,0.05315 -0.02925,0.07223c-0.01871,0.01908 -0.04405,0.02965 -0.07036,0.02933h-0.74805v5.35742h0.85547c0.02631,-0.00032 0.05165,0.01024 0.07036,0.02933c0.01871,0.01908 0.02925,0.0451 0.02925,0.07224v1.2832c0.00051,0.02748 -0.0098,0.054 -0.02857,0.0735c-0.01877,0.01951 -0.0444,0.03034 -0.07104,0.03001h-1.67187c0.42657,0.44034 0.80366,0.92777 1.13671,1.45703c0.2449,-0.49936 0.55324,-0.94526 0.66797,-1.55078c0.13807,-0.7259 0.20899,-1.61786 0.20899,-2.67382v-6.77734c0.00105,-0.05579 0.04552,-0.10027 0.09961,-0.09961h5.24805c0.05333,0.00045 0.09663,0.04461 0.09766,0.09961v11.66211c0,0.51064 -0.13008,0.89548 -0.40821,1.125c-0.23153,0.19108 -0.58657,0.27344 -1.0625,0.27344c-0.64758,0 -1.18514,-0.02734 -1.61523,-0.08398c-0.043,-0.0049 -0.07787,-0.03818 -0.08594,-0.08203l-0.2754,-1.45703c-0.00624,-0.03181 0.00263,-0.06477 0.02387,-0.08872c0.02124,-0.02394 0.05229,-0.03597 0.08355,-0.03238c0.64775,0.07888 1.10788,0.11719 1.36914,0.11719c0.19419,0 0.29306,-0.04502 0.31836,-0.07812c0.02723,-0.03906 0.05664,-0.13882 0.05664,-0.29492v-2.85742h-2.29297c-0.05983,0.88727 -0.15256,1.64267 -0.29297,2.22656c-0.238,0.9868 -0.68688,1.89984 -1.33984,2.73828c-0.01667,0.0214 -0.04103,0.03492 -0.06752,0.0375c-0.02649,0.00258 -0.05286,-0.00602 -0.07311,-0.02383l-1.09571,-1.00391c-0.03882,-0.03576 -0.04395,-0.09651 -0.01172,-0.13867c0.10184,-0.13195 0.11745,-0.33483 0.20703,-0.47656l-0.7793,0.77148c-0.02277,0.02311 -0.055,0.03338 -0.08644,0.02756c-0.03144,-0.00582 -0.05819,-0.02701 -0.07175,-0.05685c-0.29752,-0.67337 -0.71738,-1.32522 -1.26172,-1.95118c-0.01852,-0.02172 -0.02719,-0.05054 -0.02383,-0.07925c0.00335,-0.02871 0.01842,-0.05459 0.0414,-0.07114l0.92969,-0.6582h-4.93945c-0.02631,-0.00022 -0.05143,-0.01129 -0.06977,-0.03073c-0.01835,-0.01944 -0.02839,-0.04565 -0.02788,-0.07278v-1.2832c0,-0.05577 0.0436,-0.1011 0.09766,-0.10156h1.13281v-5.35742h-0.89649c-0.05406,-0.00046 -0.09765,-0.04579 -0.09765,-0.10156v-1.22852c0.00103,-0.055 0.04432,-0.09916 0.09765,-0.09961h0.89649v-1.76953c0,-0.05577 0.0436,-0.1011 0.09766,-0.10156zM224.3887,174.08203c0.02631,-0.00032 0.05165,0.01024 0.07036,0.02933c0.01871,0.01908 0.02925,0.04509 0.02925,0.07224v3.26758h1.21289c0.02631,-0.00032 0.05165,0.01024 0.07036,0.02933c0.01871,0.01908 0.02925,0.0451 0.02925,0.07224v1.41602c-0.00979,0.03046 -0.03296,0.05436 -0.0625,0.06445l0.69727,-0.24804v-3.6875c0,-0.05577 0.04359,-0.1011 0.09765,-0.10156h1.37305c0.05406,0.00046 0.09765,0.04579 0.09766,0.10156v3.12891l1.25781,-0.43946v-3.60351c0,-0.05577 0.0436,-0.1011 0.09766,-0.10156h1.36132c0.05406,0.00046 0.09765,0.04579 0.09766,0.10156v3.04688l2.13672,-0.75586c0.02713,-0.00988 0.05711,-0.00703 0.08203,0.00781l0.71094,0.44727c0.02896,0.01837 0.04668,0.05086 0.04688,0.08594v5.22656c0,0.37888 -0.08896,0.67726 -0.2793,0.87891c0,0.00065 0,0.0013 0,0.00195c-0.21674,0.22359 -0.5631,0.32422 -1.02344,0.32422c-0.37092,0 -0.76305,-0.03379 -1.17774,-0.09961c-0.04282,-0.00595 -0.07689,-0.04002 -0.08398,-0.08399l-0.22266,-1.33203c-0.00546,-0.03379 0.00595,-0.06814 0.03036,-0.09137c0.02441,-0.02323 0.05853,-0.0322 0.09073,-0.02386c0.2582,0.06771 0.52206,0.10156 0.78906,0.10156c0.09249,0 0.16332,-0.01164 0.20898,-0.02734c0.04566,-0.01569 0.06262,-0.03266 0.07032,-0.04687c0.00119,-0.00266 0.0025,-0.00527 0.00391,-0.00781c0.02548,-0.03944 0.05078,-0.13788 0.05078,-0.29102v-3.15625l-1.43359,0.51367v5.57226c0,0.05577 -0.0436,0.1011 -0.09766,0.10156h-1.36132c-0.05406,-0.00046 -0.09766,-0.04579 -0.09766,-0.10156v-5.01953l-1.25781,0.45313v5.45313c0,0.16458 0.03614,0.28648 0.0957,0.37305c0.05956,0.08657 0.14416,0.14297 0.2754,0.17578c0.00065,0 0.0013,0 0.00195,0c0.27986,0.07218 0.98662,0.11719 2.08008,0.11719c1.0644,0 1.77083,-0.05977 2.08594,-0.16211c0.15424,-0.0518 0.2577,-0.19068 0.3125,-0.46679c0.07521,-0.41071 0.11474,-0.90108 0.11914,-1.46875c0.00063,-0.0314 0.01532,-0.06073 0.03977,-0.07945c0.02445,-0.01872 0.05591,-0.02472 0.08523,-0.01625l1.41407,0.41016c0.04549,0.01186 0.07655,0.05518 0.07422,0.10352c-0.07252,1.37915 -0.24395,2.26278 -0.57032,2.6875c-0.21221,0.27491 -0.53485,0.43571 -0.94531,0.48438c0,0.00065 0,0.0013 0,0.00195c-0.62623,0.07073 -1.6757,0.10547 -3.15625,0.10547c-1.14717,0 -1.89545,-0.03123 -2.26954,-0.09961c-0.55766,-0.09669 -0.94008,-0.36509 -1.09766,-0.79687c0,-0.00065 0,-0.0013 0,-0.00195c-0.07794,-0.2261 -0.11328,-0.515 -0.11328,-0.87109v-5.39258l-1.16211,0.41406c-0.02611,0.00975 -0.05499,0.00767 -0.07954,-0.00572c-0.02455,-0.01339 -0.04247,-0.03685 -0.04936,-0.0646l-0.31641,-1.35547c-0.01163,-0.05034 0.01529,-0.10165 0.0625,-0.11914l0.74219,-0.26367h-1.14453v4.19141c0.42769,-0.15271 0.85316,-0.31046 1.27344,-0.47461c0.02879,-0.0112 0.061,-0.00787 0.08706,0.00899c0.02606,0.01686 0.04299,0.04533 0.04575,0.07694l0.12695,1.34766c0.00503,0.043 -0.01692,0.08457 -0.05468,0.10352c-1.46526,0.69045 -2.96955,1.26785 -4.51172,1.73438c-0.05113,0.01526 -0.10476,-0.01415 -0.12109,-0.06641l-0.47266,-1.48633c-0.00822,-0.02617 -0.00579,-0.05468 0.00673,-0.07897c0.01252,-0.02429 0.03405,-0.04232 0.05968,-0.04994c0.69175,-0.18535 1.29798,-0.36083 1.81836,-0.52734c0.03548,-0.01307 0.06213,-0.0202 0.0918,-0.02929v-4.75h-1.62109c-0.05406,-0.00046 -0.09765,-0.04579 -0.09766,-0.10156v-1.41602c0,-0.05577 0.0436,-0.1011 0.09766,-0.10156h1.62109v-3.26758c0,-0.05577 0.0436,-0.1011 0.09766,-0.10156zM272.67775,174.17969c0.05333,0.00044 0.09663,0.0446 0.09766,0.09961v1.44727c0.76122,-0.2949 1.44463,-0.61637 2.01367,-0.97461c0.04293,-0.02828 0.09968,-0.01811 0.13086,0.02344l0.85742,1.14453c0.01842,0.02427 0.02516,0.05585 0.01832,0.08585c-0.00684,0.03 -0.0265,0.05518 -0.05347,0.06844c-0.85581,0.42541 -1.85085,0.7922 -2.9668,1.10938v1.17188c0,0.09375 0.01511,0.16105 0.03711,0.20313c0.022,0.04208 0.04664,0.06429 0.08984,0.07813c0.10232,0.03276 0.38069,0.05664 0.79688,0.05664c0.33383,0 0.55626,-0.02848 0.63086,-0.06054c0.00128,-0.00068 0.00259,-0.00134 0.0039,-0.00196c0.09909,-0.03833 0.17841,-0.15801 0.22071,-0.40429c0.0303,-0.20082 0.05426,-0.53583 0.07226,-1.00391c0.00104,-0.03153 0.01623,-0.06077 0.0411,-0.07914c0.02487,-0.01836 0.0566,-0.02376 0.08587,-0.01461l1.23242,0.38281c0.04183,0.01288 0.07045,0.05263 0.07031,0.09766c-0.00463,1.05068 -0.12712,1.7386 -0.42578,2.08398c-0.18204,0.20866 -0.45388,0.33223 -0.80274,0.38086c-0.38095,0.05208 -0.86745,0.07813 -1.46093,0.07813c-0.87743,0 -1.4483,-0.08466 -1.74805,-0.3125c-0.26137,-0.19561 -0.38672,-0.53571 -0.38672,-0.98242v-4.57812c0.00104,-0.05579 0.04552,-0.10027 0.09961,-0.09961zM173.06447,174.2207c0.02631,0.00022 0.05143,0.01129 0.06977,0.03073c0.01835,0.01944 0.02839,0.04566 0.02788,0.07279v3.25976h5.47656c0.05406,0.00046 0.09765,0.04579 0.09766,0.10156v1.51367c0,0.05577 -0.0436,0.1011 -0.09766,0.10156h-5.20508c0.31547,1.03902 0.85835,2.13896 1.69141,3.31445c1.05161,1.48642 2.34274,2.66184 3.87696,3.5293c0.0246,0.01356 0.04246,0.03724 0.04917,0.06517c0.00671,0.02793 0.00161,0.05748 -0.01402,0.08131l-0.96679,1.43555c-0.0289,0.04425 -0.08606,0.05791 -0.13086,0.03125c-1.649,-1.00282 -3.02739,-2.33275 -4.13086,-3.98633c-0.55537,-0.83967 -0.98594,-1.6967 -1.33593,-2.56641c-0.36015,1.17574 -0.86876,2.26919 -1.58204,3.24024v0.00195c-1.10957,1.51948 -2.48516,2.64218 -4.11914,3.36523c-0.04139,0.01851 -0.08967,0.00563 -0.11719,-0.03125l-0.95312,-1.27734c-0.01807,-0.02507 -0.02394,-0.05733 -0.01593,-0.08746c0.00801,-0.03013 0.02901,-0.05478 0.05695,-0.06684c1.67968,-0.7235 3.03109,-1.83762 4.0625,-3.34375c0.84177,-1.23537 1.31673,-2.46863 1.49218,-3.70507h-5.25391c-0.05406,-0.00046 -0.09765,-0.04579 -0.09765,-0.10156v-1.51367c0,-0.05577 0.04359,-0.1011 0.09765,-0.10156h5.35938v-3.25976c-0.00051,-0.02748 0.0098,-0.054 0.02857,-0.07351c0.01877,-0.01951 0.04441,-0.03034 0.07104,-0.03001zM268.76174,174.26953c0.05406,0.00046 0.09766,0.04579 0.09766,0.10156v1.38476h2.12109c0.05406,0.00046 0.09765,0.0458 0.09765,0.10156v1.25586c0,0.05577 -0.04359,0.1011 -0.09765,0.10156h-2.12109v1.3457c0.58053,-0.10066 1.26317,-0.23043 2.08789,-0.40234c0.02789,-0.00562 0.05677,0.00146 0.07923,0.01943c0.02245,0.01797 0.03629,0.04506 0.03795,0.07432l0.06836,1.15821c0.00347,0.04846 -0.02682,0.09267 -0.07226,0.10547c-1.18201,0.34104 -2.59135,0.6414 -4.22657,0.90234c-0.04765,0.00677 -0.09306,-0.02295 -0.10742,-0.07031l-0.40039,-1.27734c-0.0093,-0.02899 -0.00547,-0.06076 0.01044,-0.08651c0.0159,-0.02575 0.04219,-0.04276 0.07159,-0.04631c0.18794,-0.02308 0.42905,-0.056 0.72071,-0.09766l0.17382,-0.02734v-4.44141c0,-0.05577 0.0436,-0.1011 0.09766,-0.10156zM246.58791,174.36719c0.02631,-0.00032 0.05165,0.01024 0.07036,0.02933c0.01871,0.01908 0.02925,0.04509 0.02925,0.07224v0.99805c0,0.02714 -0.01054,0.05316 -0.02925,0.07224c-0.01871,0.01908 -0.04405,0.02964 -0.07036,0.02933h-4.2168v0.39844h5.50196c0.05409,-0.00066 0.09856,0.04382 0.09961,0.09961v2.50586c0,0.02714 -0.01054,0.05316 -0.02925,0.07224c-0.01871,0.01908 -0.04405,0.02964 -0.07036,0.02933h-1.4668c-0.05406,-0.00046 -0.09766,-0.04579 -0.09766,-0.10156v-1.50391h-3.9375v2.61328c0,0.05577 -0.04359,0.1011 -0.09765,0.10156h-1.44141c-0.05406,-0.00046 -0.09765,-0.04579 -0.09765,-0.10156v-2.61328h-3.86133v1.50391c0,0.02714 -0.01054,0.05316 -0.02925,0.07224c-0.01871,0.01908 -0.04405,0.02964 -0.07036,0.02933h-1.45313c-0.02631,0.00032 -0.05165,-0.01024 -0.07036,-0.02933c-0.01871,-0.01908 -0.02925,-0.0451 -0.02925,-0.07224v-2.50586c0.00105,-0.05579 0.04552,-0.10027 0.09961,-0.09961h5.41407v-0.39844h-4.13086c-0.05406,-0.00046 -0.09766,-0.04579 -0.09766,-0.10156v-0.99805c0,-0.05577 0.0436,-0.1011 0.09766,-0.10156zM163.5547,174.38086c0.05406,0.00046 0.09765,0.04579 0.09766,0.10156v4.375c0,0.05577 -0.0436,0.1011 -0.09766,0.10156h-10.12695c-0.05406,-0.00046 -0.09765,-0.04579 -0.09766,-0.10156v-4.375c0,-0.05577 0.0436,-0.1011 0.09766,-0.10156zM263.02545,174.45117h3.19922c0.02194,0 0.04325,0.00756 0.06055,0.02148l0.72461,0.58594c0.02891,0.02376 0.04249,0.06224 0.03515,0.09961c-0.29924,1.50653 -0.64911,2.79294 -1.04687,3.87109c0.69415,1.05104 1.04883,2.21938 1.04883,3.50391c0,0.59336 -0.0594,1.05094 -0.18946,1.37891c0,0.00065 0,0.0013 0,0.00195c-0.10291,0.25275 -0.28027,0.44803 -0.51758,0.57422c-0.23733,0.12619 -0.53321,0.18555 -0.88672,0.18555c-0.26718,0 -0.51572,-0.02222 -0.74414,-0.07031c-0.03737,-0.0089 -0.06634,-0.0394 -0.07421,-0.07812l-0.17969,-0.7754v4.01172c0,0.05577 -0.0436,0.1011 -0.09766,0.10156h-1.33203c-0.02631,0.00032 -0.05165,-0.01025 -0.07036,-0.02933c-0.01871,-0.01908 -0.02925,-0.04509 -0.02925,-0.07224v-13.20898c0,-0.02714 0.01054,-0.05316 0.02925,-0.07224c0.01871,-0.01908 0.04405,-0.02964 0.07036,-0.02933zM191.33405,174.53516c0.02631,-0.00032 0.05165,0.01024 0.07037,0.02933c0.01871,0.01908 0.02924,0.04509 0.02924,0.07224v1.17188c0,0.02714 -0.01053,0.05315 -0.02924,0.07223c-0.01871,0.01908 -0.04406,0.02965 -0.07037,0.02933h-7.71484v0.62695h7.0918c0.02631,-0.00032 0.05165,0.01025 0.07036,0.02933c0.01871,0.01908 0.02925,0.04509 0.02925,0.07223v1.13086c0,0.02714 -0.01054,0.05316 -0.02925,0.07224c-0.01871,0.01908 -0.04405,0.02964 -0.07036,0.02933h-7.0918v0.64258h7.0918c0.02631,-0.00032 0.05165,0.01024 0.07036,0.02933c0.01871,0.01908 0.02925,0.0451 0.02925,0.07224v1.09961c0.00051,0.02748 -0.00979,0.054 -0.02856,0.0735c-0.01877,0.01951 -0.04441,0.03034 -0.07104,0.03001h-7.0918v0.72461h9.14257c0.05333,0.00045 0.09663,0.0446 0.09766,0.09961v1.1875c0,0.05577 -0.0436,0.1011 -0.09766,0.10156h-1.58398l0.87109,0.77734c0.02302,0.02047 0.03558,0.05075 0.03406,0.08205c-0.00152,0.03131 -0.01698,0.06013 -0.04187,0.07811c-0.81145,0.60357 -1.72769,1.17213 -2.71484,1.7168c0.88159,0.61365 2.02699,1.13624 3.51367,1.53516c0.03154,0.00848 0.05698,0.03251 0.06792,0.06418c0.01094,0.03167 0.006,0.06687 -0.01323,0.09402l-0.94141,1.32422c-0.02384,0.0344 -0.06585,0.04996 -0.10546,0.03906c-1.9007,-0.5528 -3.39964,-1.47793 -4.57618,-2.69726c0.01957,0.01664 0.03217,0.04042 0.03516,0.06641l0.09375,1.32422c0.00347,0.04846 -0.02683,0.09267 -0.07227,0.10547c-2.13189,0.62901 -4.24556,1.12238 -6.34179,1.47656c-0.04712,0.00699 -0.09234,-0.02179 -0.10742,-0.06836l-0.48047,-1.44336c-0.00997,-0.02892 -0.00673,-0.06095 0.00882,-0.08712c0.01555,-0.02617 0.04175,-0.04369 0.07126,-0.04765c0.67167,-0.0877 1.11946,-0.15124 1.4082,-0.19726v-4.14258h-2.2832c-0.05406,-0.00046 -0.09766,-0.04579 -0.09766,-0.10156v-1.18554c0,-0.05577 0.0436,-0.1011 0.09766,-0.10156h2.2832v-5.90625c0,-0.02714 0.01054,-0.05316 0.02925,-0.07224c0.01871,-0.01908 0.04405,-0.02964 0.07036,-0.02933zM194.54108,174.58399h11.20117c0.05333,0.00045 0.09663,0.0446 0.09766,0.09961v11.44531c0,0.63598 -0.16165,1.08608 -0.50781,1.30664c-0.25454,0.16075 -0.67271,0.22461 -1.27539,0.22461c-0.75131,0 -1.50124,-0.03229 -2.24804,-0.09766c-0.04319,-0.00383 -0.07888,-0.03634 -0.0879,-0.08008l-0.30273,-1.48633c-0.00624,-0.03181 0.00263,-0.06477 0.02387,-0.08872c0.02124,-0.02394 0.05229,-0.03597 0.08355,-0.03238c0.79504,0.09267 1.53047,0.13867 2.20703,0.13867c0.12043,0 0.21632,-0.00735 0.28125,-0.01953c0.06208,-0.01165 0.0877,-0.03025 0.08789,-0.0293c0.00214,-0.00356 0.04101,-0.11777 0.04101,-0.30469v-9.60352h-8.02344v3.82813c0,2.29094 -0.07537,3.93863 -0.23047,4.95508c-0.16411,1.10036 -0.50816,2.11091 -1.0332,3.0293c-0.01484,0.0257 -0.0399,0.04336 -0.06851,0.04825c-0.02861,0.0049 -0.05785,-0.00347 -0.07993,-0.02286l-1.24609,-1.07422c-0.03626,-0.03107 -0.04609,-0.08431 -0.02344,-0.12696c0.4658,-0.86492 0.75882,-1.89655 0.875,-3.09961c0,-0.00065 0,-0.0013 0,-0.00195c0.08501,-0.82156 0.12891,-1.98269 0.12891,-3.47851v-5.42969c0.00105,-0.05579 0.04552,-0.10027 0.09961,-0.09961zM155.03522,176.09766h6.91211v-0.51368h-6.91211zM264.45512,183.0293c0.26787,0.05568 0.50032,0.08789 0.6875,0.08789c0.10486,0 0.18498,-0.01388 0.23828,-0.03516c0.0532,-0.02128 0.07885,-0.0456 0.09375,-0.07618c0.0253,-0.05211 0.04883,-0.19606 0.04883,-0.4082c0,-1.29 -0.31468,-2.40552 -0.94336,-3.35547c-0.01736,-0.02639 -0.0217,-0.05966 -0.01172,-0.08984c0.29755,-0.84965 0.57304,-1.93854 0.82617,-3.21484h-0.93945zM216.20902,177.99609h2.25195v-1.84766h-2.25195zM200.8223,176.26562c0.02631,-0.00032 0.05165,0.01025 0.07036,0.02933c0.01871,0.01908 0.02925,0.04509 0.02925,0.07224v0.91601h2.56055c0.02631,0.00022 0.05142,0.01129 0.06977,0.03073c0.01835,0.01944 0.02839,0.04566 0.02788,0.07279v1.11523c0,0.05577 -0.0436,0.1011 -0.09766,0.10156h-2.56055v0.87695h2.85156c0.02631,0.00022 0.05142,0.01128 0.06977,0.03073c0.01835,0.01944 0.02839,0.04566 0.02788,0.07279v1.12891c0.00051,0.02713 -0.00954,0.05334 -0.02788,0.07278c-0.01835,0.01944 -0.04346,0.03051 -0.06977,0.03073h-7.28516c-0.02631,-0.00022 -0.05142,-0.01129 -0.06977,-0.03073c-0.01835,-0.01944 -0.02839,-0.04565 -0.02788,-0.07278v-1.12891c-0.00051,-0.02713 0.00954,-0.05334 0.02788,-0.07279c0.01835,-0.01944 0.04346,-0.03051 0.06977,-0.03073h2.80859v-0.87695h-2.50391c-0.02631,0.00032 -0.05165,-0.01025 -0.07036,-0.02933c-0.01871,-0.01908 -0.02925,-0.04509 -0.02925,-0.07224v-1.11523c-0.00051,-0.02748 0.00979,-0.054 0.02856,-0.07351c0.01877,-0.01951 0.04441,-0.03034 0.07104,-0.03001h2.50391v-0.91601c0,-0.02714 0.01054,-0.05316 0.02925,-0.07224c0.01871,-0.01908 0.04405,-0.02964 0.07036,-0.02933zM282.43363,176.42969c0.02159,0.01558 0.03621,0.03944 0.04062,0.06624c0.00441,0.02679 -0.00178,0.05429 -0.01718,0.07634c-0.89515,1.27411 -1.9175,2.50561 -3.0332,3.70313c0.60515,-0.04216 1.15455,-0.08761 1.62109,-0.13281c-0.11172,-0.32156 -0.23357,-0.64765 -0.38086,-0.98437c-0.01117,-0.02552 -0.01164,-0.05466 -0.00128,-0.08055c0.01036,-0.02588 0.0306,-0.0462 0.05597,-0.05617l1.09375,-0.44726c0.04863,-0.01931 0.10343,0.00381 0.125,0.05273c0.40947,0.87296 0.75699,1.89798 1.04688,3.08008c0.01262,0.04818 -0.01056,0.09868 -0.05469,0.11914l-1.11719,0.50195c0.21497,0.73436 0.37461,1.44512 0.50195,2.14258c0.2973,-0.75872 0.53307,-1.62496 0.70117,-2.61523c0.1524,-0.92007 0.26454,-2.00644 0.33204,-3.25391c0.0474,-0.963 0.06831,-1.67037 0.07031,-2.18164h-0.99805zM284.89652,176.96484c0.16876,1.24528 0.43201,2.36602 0.77149,3.38281c0.40867,-1.1711 0.76549,-2.48949 1.08203,-3.92774h-1.84766c-0.001,0.17679 -0.00186,0.35851 -0.00586,0.54492zM155.03518,177.82812h6.91211v-0.61328h-6.91211zM209.9512,178.33789h1.94726v-0.95508h-1.94726zM240.25003,177.38281c0.05406,0.00046 0.09766,0.04579 0.09766,0.10156v0.78711c0.00051,0.02713 -0.00954,0.05335 -0.02788,0.07279c-0.01835,0.01944 -0.04347,0.03051 -0.06977,0.03073h-2.88086c-0.02631,-0.00022 -0.05143,-0.01128 -0.06977,-0.03073c-0.01835,-0.01944 -0.02839,-0.04566 -0.02788,-0.07279v-0.78711c0,-0.05577 0.0436,-0.1011 0.09766,-0.10156zM245.82425,177.38281c0.02631,-0.00032 0.05165,0.01024 0.07036,0.02933c0.01871,0.01908 0.02925,0.04509 0.02925,0.07224v0.78711c0.00051,0.02748 -0.00979,0.054 -0.02856,0.07351c-0.01877,0.01951 -0.04441,0.03034 -0.07104,0.03001h-2.9707c-0.02631,-0.00022 -0.05143,-0.01128 -0.06978,-0.03073c-0.01835,-0.01944 -0.02839,-0.04566 -0.02788,-0.07279v-0.78711c0,-0.05577 0.0436,-0.1011 0.09766,-0.10156zM253.418,178.12891h2.53125c0.05333,0.00044 0.09663,0.0446 0.09766,0.09961v4.58594c-0.00103,0.055 -0.04433,0.09917 -0.09766,0.09961h-2.53125v0.59375h2.70117c0.05406,0.00046 0.09766,0.04579 0.09766,0.10156v1.10352c-0.00103,0.055 -0.04433,0.09917 -0.09766,0.09961h-2.70312v0.61719l0.46093,-0.04492c0.73781,-0.07702 1.53976,-0.1918 2.39453,-0.33984c0.82561,-1.57263 1.31355,-3.68335 1.44727,-6.3457c0,-0.00065 0,-0.0013 0,-0.00195l0.00586,-0.07812h-1.40234c-0.02664,0.00033 -0.05227,-0.0105 -0.07104,-0.03001c-0.01877,-0.01951 -0.02908,-0.04603 -0.02857,-0.07351v-0.95898h-2.80469zM240.25003,178.66602c0.05406,0.00046 0.09766,0.04579 0.09766,0.10156v0.80274c0,0.05577 -0.0436,0.1011 -0.09766,0.10156h-2.88086c-0.05406,-0.00046 -0.09766,-0.04579 -0.09766,-0.10156v-0.80274c0,-0.05577 0.0436,-0.1011 0.09766,-0.10156zM245.82425,178.66602c0.02631,-0.00032 0.05165,0.01024 0.07036,0.02933c0.01871,0.01908 0.02925,0.04509 0.02925,0.07224v0.80274c0,0.02714 -0.01054,0.05316 -0.02925,0.07224c-0.01871,0.01908 -0.04405,0.02964 -0.07036,0.02933h-2.9707c-0.05406,-0.00046 -0.09766,-0.04579 -0.09766,-0.10156v-0.80274c0,-0.05577 0.0436,-0.1011 0.09766,-0.10156zM250.65823,179.95703h1.27149v-0.68359h-1.27149zM253.37698,179.95703h1.31055v-0.68359h-1.31055zM216.20901,181.41602h2.25195v-1.94727h-2.25195zM151.90042,179.52539h13.16211c0.05333,0.00045 0.09663,0.0446 0.09766,0.09961v1.16016c-0.00103,0.055 -0.04433,0.09916 -0.09766,0.09961h-6.64453v5.55469c0.78649,-0.23921 1.51553,-0.61447 2.17969,-1.14648c-0.63596,-0.78342 -1.1316,-1.62113 -1.47266,-2.51758h-0.52734c-0.05409,0.00065 -0.09857,-0.04382 -0.09961,-0.09961v-1.11719c0,-0.02714 0.01054,-0.05316 0.02925,-0.07224c0.01871,-0.01908 0.04405,-0.02964 0.07036,-0.02933h5.2207c0.02375,0.00017 0.04663,0.00918 0.06445,0.02539l0.66211,0.59961c0.03217,0.02836 0.04318,0.07475 0.02734,0.11523c-0.47771,1.19356 -1.08612,2.20697 -1.79883,3.07617c0.64123,0.41995 1.42383,0.78725 2.37891,1.08594c0.02994,0.0094 0.05377,0.03295 0.06418,0.0634c0.01041,0.03045 0.00616,0.0642 -0.01145,0.0909l-0.83007,1.27539c-0.02558,0.04069 -0.07548,0.05705 -0.11914,0.03906c-1.01135,-0.39352 -1.85685,-0.87865 -2.56055,-1.44531c-0.76883,0.64292 -1.65861,1.16214 -2.68164,1.54297c-0.04212,0.01622 -0.08954,0.00095 -0.11524,-0.03711l-0.48046,-0.74609v0.61914c0,0.02714 -0.01054,0.05315 -0.02925,0.07223c-0.01871,0.01908 -0.04405,0.02965 -0.07036,0.02933h-1.40039c-0.05406,-0.00046 -0.09766,-0.04579 -0.09766,-0.10156v-1.43945c-1.26779,0.2581 -2.80165,0.49093 -4.64648,0.69531c-0.0475,0.00551 -0.09197,-0.02496 -0.10547,-0.07226l-0.37109,-1.28321c-0.00873,-0.02968 -0.00384,-0.06184 0.01328,-0.08734c0.01712,-0.0255 0.0446,-0.04153 0.07461,-0.04352c0.55863,-0.03056 1.02667,-0.06128 1.42969,-0.0918v-4.55469h-1.31446c-0.05409,0.00066 -0.09856,-0.04382 -0.09961,-0.09961v-1.16016c0.00105,-0.05579 0.04552,-0.10027 0.09961,-0.09961zM209.9512,180.5293h1.94726v-0.96289h-1.94726zM271.73441,179.93555c0.0293,0.00313 0.0557,0.01963 0.07196,0.04497c0.01626,0.02534 0.02067,0.05685 0.01202,0.08589c-0.08042,0.26966 -0.22344,0.60794 -0.38867,0.97266h3.62109c0.05333,0.00044 0.09663,0.0446 0.09766,0.09961v6.62305c0,0.05577 -0.0436,0.1011 -0.09766,0.10156h-1.4668c-0.05406,-0.00046 -0.09764,-0.0458 -0.09765,-0.10156v-0.64453h-4.46485v0.64453c0,0.02714 -0.01054,0.05315 -0.02925,0.07223c-0.01871,0.01908 -0.04404,0.02964 -0.07035,0.02933h-1.45313c-0.05406,-0.00046 -0.09765,-0.04579 -0.09766,-0.10156v-6.62305c0.00103,-0.055 0.04433,-0.09917 0.09766,-0.09961h2.38281c0.1562,-0.39663 0.27606,-0.79398 0.34766,-1.18946c0.01043,-0.05128 0.05695,-0.08595 0.10742,-0.08007zM235.84573,179.99805h11.67578c0.02631,-0.00032 0.05165,0.01024 0.07037,0.02933c0.01871,0.01908 0.02925,0.04509 0.02925,0.07224v0.92969c-0.00105,0.05579 -0.04552,0.10027 -0.09961,0.09961h-10.12109v1.93945h10.70313c0.05406,0.00046 0.09765,0.0458 0.09765,0.10156v0.98242c0.00051,0.02713 -0.00953,0.05334 -0.02788,0.07278c-0.01835,0.01944 -0.04347,0.03051 -0.06977,0.03073h-1.20704l0.58399,0.39844c0.02586,0.01756 0.04221,0.04666 0.04413,0.07854c0.00192,0.03188 -0.01082,0.06284 -0.03437,0.08357c-0.46022,0.39492 -1.02033,0.75901 -1.62695,1.10742c0.65147,0.23666 1.411,0.44128 2.35547,0.58594c0.03396,0.0046 0.06318,0.02708 0.07712,0.05936c0.01395,0.03227 0.01063,0.06971 -0.00876,0.09885l-0.79297,1.18555c-0.02131,0.03202 -0.05846,0.0487 -0.0957,0.04297c-1.45715,-0.25754 -2.65823,-0.70098 -3.60156,-1.33398c-0.25478,-0.17179 -0.48996,-0.3587 -0.7129,-0.55469l0.07813,0.86523c0.00505,0.05107 -0.02763,0.09802 -0.07617,0.10938c-1.59123,0.39171 -3.40789,0.73077 -5.45313,1.01953c-0.04711,0.00699 -0.09234,-0.02178 -0.10742,-0.06836l-0.39844,-1.22852c-0.01004,-0.02954 -0.00632,-0.06221 0.0101,-0.08854c0.01641,-0.02633 0.04367,-0.04339 0.07389,-0.04622c0.70504,-0.07875 1.18607,-0.13354 1.44726,-0.16602v-2.14844h-1.30078c-0.06414,0.76973 -0.1582,1.4126 -0.29883,1.88868c-0.17488,0.59816 -0.45816,1.15572 -0.84375,1.67188c-0.01636,0.02108 -0.04017,0.03458 -0.06619,0.03751c-0.02602,0.00293 -0.0521,-0.00494 -0.07248,-0.02188l-1.20508,-1.02539c-0.04122,-0.0348 -0.04815,-0.0971 -0.01562,-0.14062c0.43131,-0.57658 0.70053,-1.24814 0.80664,-2.02344c0.0577,-0.42103 0.08594,-0.94992 0.08594,-1.58398v-2.95899c0,-0.05577 0.0436,-0.1011 0.09766,-0.10156zM286.75198,182.7207c0.30804,-0.68922 0.56284,-1.42955 0.74414,-2.23437h-1.73828c-0.01274,-0.00338 -0.02469,-0.00936 -0.03515,-0.01758c0.28565,0.82887 0.62868,1.5775 1.02929,2.25195zM154.79889,181.52734h2.02149v-0.64258h-2.02149zM250.65826,181.76953h1.27149v-0.75196h-1.27149zM253.37701,181.76953h1.31055v-0.75196h-1.31055zM246.5274,181.51172c0.02631,-0.00032 0.05165,0.01024 0.07036,0.02933c0.01871,0.01908 0.02925,0.0451 0.02925,0.07224v0.91406c0,0.02714 -0.01054,0.05315 -0.02925,0.07223c-0.01871,0.01908 -0.04405,0.02965 -0.07036,0.02933h-8.42187c-0.05406,-0.00046 -0.09766,-0.04579 -0.09766,-0.10156v-0.91406c0,-0.05577 0.0436,-0.1011 0.09766,-0.10156zM203.07624,181.60937c0.05406,0.00046 0.09765,0.04579 0.09766,0.10156v3.67773c0,0.05577 -0.0436,0.1011 -0.09766,0.10156h-4.45312v0.63868c0,0.05577 -0.0436,0.1011 -0.09766,0.10156h-1.35937c-0.02665,0.00087 -0.05249,-0.00946 -0.07163,-0.02859c-0.01914,-0.01914 -0.02994,-0.04547 -0.02993,-0.07297v-4.41797c-0.00001,-0.0275 0.0108,-0.05383 0.02993,-0.07297c0.01914,-0.01914 0.04498,-0.02946 0.07163,-0.02859zM209.95124,182.74023h1.94726v-0.99804h-1.94726zM183.61921,185.75586c1.12391,-0.21546 2.30872,-0.48961 3.56445,-0.83594c0.02552,-0.00578 0.05222,-0.00086 0.07422,0.01367c-0.09512,-0.09898 -0.22804,-0.16226 -0.31836,-0.26562c-0.70392,-0.79968 -1.21902,-1.71688 -1.5664,-2.73633h-1.75391zM188.16413,183.63477c0.9042,-0.58588 1.64757,-1.15142 2.28906,-1.70312h-3.45118c0.28223,0.62133 0.66079,1.19275 1.16211,1.70313zM278.50007,182.53711c0.05091,0.00668 0.08831,0.05258 0.08594,0.10547c-0.0679,1.60184 -0.27178,2.9758 -0.61328,4.11719c-0.00876,0.02751 -0.02849,0.04986 -0.05423,0.06143c-0.02574,0.01156 -0.05505,0.01125 -0.08054,-0.00088l-1.2793,-0.59766c-0.04501,-0.02059 -0.06836,-0.07231 -0.05468,-0.12109c0.32273,-1.16982 0.52672,-2.38298 0.60742,-3.63672c0.00185,-0.02802 0.01488,-0.054 0.03597,-0.07176c0.0211,-0.01776 0.04837,-0.02572 0.07536,-0.02199zM269.02155,183.36914h4.46485v-0.98437h-4.46485zM154.79885,183.3125h2.02149v-0.65625h-2.02149zM161.61135,184.26758c0.33953,-0.42047 0.64647,-0.92244 0.92969,-1.49219h-1.92578c0.2508,0.52226 0.57855,1.02151 0.99609,1.49219zM198.62307,184.14258h2.9746v-1.22851h-2.9746zM209.16018,184.23828l1.23242,0.65625c0.0474,0.02545 0.06647,0.08525 0.04297,0.13476c-0.59962,1.23241 -1.28503,2.18412 -2.06054,2.85156c-0.03779,0.03367 -0.09403,0.03284 -0.13086,-0.00195l-1.08203,-1.03516c-0.02031,-0.01953 -0.03167,-0.047 -0.0313,-0.07564c0.00037,-0.02864 0.01245,-0.05578 0.03325,-0.07475c0.77523,-0.68019 1.39553,-1.48384 1.86328,-2.41211c0.01248,-0.02364 0.03356,-0.04121 0.05859,-0.04883c0.02453,-0.00814 0.05117,-0.00603 0.07422,0.00586zM240.29494,186.18359c0.90576,-0.13252 1.748,-0.27389 2.5332,-0.42187c-0.46126,-0.45031 -0.85693,-0.94907 -1.17382,-1.50586h-1.35938zM244.57033,185.29883c0.5242,-0.37192 0.92217,-0.71473 1.26367,-1.04297h-2.41601c0.33454,0.4 0.70654,0.76005 1.15234,1.04297zM154.79885,185.2832c0.31367,-0.0345 0.58709,-0.06765 0.75586,-0.08789c0.48483,-0.05219 0.89973,-0.1004 1.26562,-0.14844v-0.61719h-2.02148zM269.02155,185.74219h4.46485v-1.08203h-4.46485z" fill="#ffffff" stroke-linejoin="round"/></g></g></svg>