<svg width="180" height="40" version="1.1" viewBox="0 0 180 40" xmlns="http://www.w3.org/2000/svg">
 <path d="m0 0h180v40h-180z" fill-opacity="0" stop-color="#000000" stroke-linecap="round" stroke-linejoin="round" stroke-width=".2" style="paint-order:stroke markers fill"></path>
 <g transform="scale(.9655 1.0357)" fill="#fff" aria-label="警報地域+予想震度">
  <path d="m31.834 16.662q0.92402 0.50161 2.1978 0.79862l-0.68642 1.0692q-1.4454-0.48841-2.3563-1.1022-0.93062 0.67322-2.2969 0.95042h3.1219v0.75902h-8.5142v-0.75902h2.1978l-0.1188-0.49501h-3.0757v-1.3926q-0.32341 0.27061-0.61381 0.46201l-0.69962-0.97682q0.99662-0.57421 1.4982-1.4322l0.42241 0.0462v-0.2508h-1.815v-0.89102h1.815v-0.56761h1.2408v0.56761h1.2672v-0.56761h1.2606v0.56761h1.6236v0.89102h-1.6236v0.47521h1.3794q-0.0132 0.1782-0.0264 0.26401-0.0132 0.1386-0.0198 0.2178 0.93722-0.93722 1.518-2.5345l1.2738 0.26401q-0.1584 0.42901-0.33001 0.79862h3.2605v1.056h-0.90422q-0.29041 0.93062-0.99662 1.782zm-1.7028 0.0594q-0.38941-0.37621-0.83822-1.0296-0.31021 0.36301-0.61381 0.63361l-0.68642-0.79862q-0.1782 1.716-0.35641 2.1648-0.231 0.57421-0.90422 0.68642h1.6566l-0.58741-0.89102q1.4784-0.2178 2.3299-0.76562zm0.77882-0.69962q0.40261-0.47521 0.64682-1.1418h-1.6434q0.42241 0.65341 0.99662 1.1418zm-5.4913-1.2078v-0.47521h-1.2672v0.47521zm-2.2837 0.81182q-0.1386 0.1782-0.35641 0.40261h3.2407v1.5114q0.0792 0.0066 0.0924 0.0066 0.2244 0 0.30361-0.2046 0.2112-0.50161 0.31681-1.716zm0.33001 1.122v0.41581h1.419v-0.41581zm9.2336 6.3757v2.6005h-1.4784v-0.46201h-7.4054v0.46201h-1.4718v-2.6005zm-8.8838 0.77222v0.56761h7.4054v-0.56761zm-2.7193-4.3363h12.844v0.85142h-12.844zm1.7688 1.2804h9.3128v0.71942h-9.3128zm0 1.155h9.3128v0.69962h-9.3128z"></path>
  <path d="m37.266 14.259v-1.3794h1.3794v1.3794h2.0526v1.1616h-2.0526v1.1352h2.3365v1.1748h-0.78542q-0.2112 0.78542-0.56761 1.6632h1.2738v1.1484h-2.2572v1.221h2.1714v1.1748h-2.1714v2.7853h-1.3794v-2.7853h-2.3299v-1.1748h2.3299v-1.221h-2.4355v-1.1484h1.2144q-0.2112-0.87782-0.51481-1.6632h-0.97022v-1.1748h2.7061v-1.1352h-2.1516v-1.1616zm1.6434 3.4717h-2.0988q0.2244 0.62701 0.48181 1.6632h1.0956q0.34321-0.84482 0.52141-1.6632zm8.006-4.3759v3.0889q0 0.57421-0.2112 0.81182-0.2508 0.28381-1.0494 0.28381-0.77882 0-1.5576-0.066l-0.2244-1.188q1.0956 0.1188 1.3926 0.1188 0.31021 0 0.31021-0.27061v-1.5906h-2.8909v3.8347h3.7423l0.78542 0.67322q-0.35641 2.0988-1.3002 3.7489l-0.0726 0.132q0.72602 0.83822 1.815 1.5312l-0.73922 1.2342q-1.0428-0.67322-1.8612-1.6104-0.70622 0.89762-1.5906 1.6896l-0.77882-1.0824v1.0296h-1.3398v-12.369zm-4.2307 6.2107v4.9897q0.81182-0.55441 1.5642-1.5576-1.0098-1.5576-1.419-3.4321zm2.2969 2.2638q0.58741-1.1352 0.76562-2.2638h-1.7028q0.32341 1.2672 0.93722 2.2638z"></path>
  <path d="m54.711 18.226v5.2273q0 0.50821 0.43561 0.61381 0.44881 0.1122 2.0526 0.1122 1.5642 0 2.0658-0.1584 0.28381-0.0924 0.36961-0.51481 0.1122-0.59401 0.1188-1.4058l1.3794 0.38941q-0.1056 1.947-0.53461 2.4883-0.28381 0.35641-0.85802 0.42241-0.90422 0.099-3.0691 0.099-1.6764 0-2.1978-0.0924-0.78542-0.132-0.99662-0.69302-0.1056-0.29701-0.1056-0.79202v-5.2339l-1.2606 0.43561-0.31021-1.2804 1.5708-0.54121v-3.5575h1.3398v3.0955l1.419-0.48181v-3.4783h1.3266v3.0163l2.211-0.75902 0.69302 0.42241v4.9435q0 0.51481-0.24421 0.76562-0.27721 0.27721-0.93062 0.27721-0.53461 0-1.1352-0.0924l-0.2178-1.2606q0.38941 0.099 0.79202 0.099 0.29041 0 0.35641-0.1188 0.066-0.099 0.066-0.33001v-3.1219l-1.5906 0.55441v5.3395h-1.3266v-4.8841zm-4.8511-2.1582v-3.1879h1.419v3.1879h1.2804v1.3398h-1.2804v4.1977q0.69302-0.2376 1.3728-0.49501l0.1254 1.2738q-2.1384 0.97682-4.3891 1.6368l-0.46201-1.4058q1.0164-0.26401 1.782-0.50161 0.0924-0.033 0.1518-0.0462v-4.6597h-1.6764v-1.3398z"></path>
  <path d="m72.907 15.19q-0.033-0.066-0.0594-0.132-0.38281-0.86462-1.0758-1.6896l1.0956-0.51481q0.73262 0.81842 1.188 1.782l-1.056 0.55441h1.3926v1.2144h-3.0493l0.0132 0.26401q0.099 2.0856 0.40261 3.6037 0.54781-1.2012 0.99002-2.6731l1.2276 0.52801q-0.78542 2.2308-1.749 3.9007 0.27721 0.82502 0.62041 1.4454 0.132 0.2376 0.198 0.2376 0.0726 0 0.2178-0.39601 0.165-0.46861 0.26401-1.6104l1.0956 0.77222q-0.2178 1.7028-0.55441 2.4751-0.29701 0.67322-0.74582 0.67322-0.44221 0-1.0296-0.66002-0.56761-0.64021-0.99662-1.5642-1.1286 1.419-2.5807 2.4289l-0.97022-0.99662q1.2606-0.75902 2.211-1.782-1.617 0.63361-4.2637 1.1946l-0.43561-1.2276q2.7523-0.45541 4.7587-1.0692l0.0462 0.97682q0.35641-0.39601 0.71282-0.91742-0.55441-1.9206-0.75902-5.6035h-4.3363v0.93722h-1.0692v4.3429q0.60721-0.25081 1.1088-0.47521l0.1452 1.2936q-1.9602 1.0428-3.9139 1.6896l-0.47521-1.3926q0.74582-0.2112 1.7556-0.57421v-4.8841h-1.551v-1.3134h1.551v-3.1747h1.3794v3.1747h0.94382v-0.83822h4.4023l-0.0264-0.46201q-0.033-0.62701-0.066-1.848h1.353q0.0396 1.716 0.0726 2.3101zm-3.2011 2.3563v3.9865h-3.5245v-3.9865zm-2.4025 1.0692v1.8612h1.3068v-1.8612z"></path>
  <path d="m79.923 14.84h1.1616v3.8809h3.8809v1.1616h-3.8809v3.8809h-1.1616v-3.8809h-3.8809v-1.1616h3.8809z"></path>
  <path d="m94.338 16.609q0.46201 0.23761 1.0626 0.56761l-0.83822 0.67982h3.9733l0.74582 0.74582q-1.485 2.2374-2.9635 3.6763l-1.3398-0.78542q1.3002-1.188 2.0856-2.3629h-3.2869v5.1745q0 0.89762-0.44221 1.1484-0.29701 0.1716-1.1088 0.1716-1.0626 0-2.3431-0.132l-0.32341-1.4718q1.2342 0.198 2.1912 0.198 0.36301 0 0.44881-0.1188 0.066-0.099 0.066-0.36301v-4.6069h-5.5309v-1.2738h7.1546q-2.2308-1.2804-4.4617-2.1648l1.0692-0.85142q1.4982 0.60061 2.6467 1.1682 1.0164-0.69302 1.782-1.3596h-7.0556v-1.254h8.9762l0.81182 0.79202q-1.7292 1.3926-3.3199 2.4223z"></path>
  <path d="m102.67 17.388q-0.85802 1.5642-1.9866 2.5609l-0.75902-1.2276q1.4784-1.122 2.4949-3.0295h-2.1846v-1.2144h2.4354v-1.5972h1.419v1.5972h1.9074v1.2144h-1.9074v0.80522q1.1748 0.67322 2.0922 1.4256l-0.79862 1.1616q-0.62701-0.69962-1.2936-1.2474v2.9371h-1.419zm4.0525 3.1681q0.84482 0.80522 1.6632 1.9338l-1.1748 0.83822q-0.91082-1.4058-1.7622-2.1912l0.93722-0.65342v-7.1282h5.6365v7.2008zm0.99663-6.1183v1.0098h2.9371v-1.0098zm0 2.0262v0.99662h2.9371v-0.99662zm0 1.9998v1.0098h2.9371v-1.0098zm-7.6232 6.1381q0.75901-1.2408 1.1814-3.0427l1.3728 0.38941q-0.36961 2.1186-1.2672 3.5443zm3.6103-3.0295h1.4454v2.1054q0 0.40921 0.198 0.48841 0.25081 0.0924 1.386 0.0924 1.0824 0 1.4454-0.0726 0.264-0.0594 0.3366-0.30361 0.099-0.33001 0.13201-1.2012l1.4586 0.33661q-0.0264 0.98342-0.1452 1.4058-0.16501 0.60061-0.48842 0.81842-0.2772 0.1914-0.79861 0.2244-1.0824 0.066-2.2242 0.066-1.9206 0-2.343-0.2244-0.40261-0.2178-0.40261-0.92402zm8.0456 3.5377q-0.79862-1.9272-1.7754-3.2671l1.2078-0.71942q1.089 1.452 1.8612 3.1351z"></path>
  <path d="m119.23 14.662v-0.56761h-4.1251v-0.94382h9.7418v0.94382h-4.2109v0.56761h5.4649v2.3695h-1.4322v-1.518h-4.0327v2.5675h-1.4058v-2.5675h-3.9601v1.518h-1.419v-2.3695zm4.6729 9.3656q1.0098 0.38281 2.5213 0.60721l-0.77222 1.122q-2.1186-0.36301-3.4783-1.2474-1.353-0.88442-2.1054-2.1978h-1.4586v2.0328q1.4586-0.2046 2.7061-0.43561l0.0924 0.98342q-2.3232 0.55441-5.3131 0.96362l-0.38941-1.1616q1.0362-0.1122 1.419-0.1584l0.0792-0.0132v-2.211h-1.4454q-0.0924 1.1616-0.30361 1.8546-0.2508 0.83162-0.80522 1.551l-1.1748-0.97022q0.64681-0.83822 0.80522-1.9602 0.0858-0.60721 0.0858-1.5114v-2.7985h11.392v0.87782h-9.9728v2.0262h10.54v0.93062h-1.4982l0.83822 0.55441q-0.74582 0.62041-1.7622 1.1616zm-1.0296-0.50821q0.95042-0.64682 1.5114-1.2078h-2.8843q0.56761 0.72602 1.3728 1.2078zm-7.0226-7.5176h2.8117v0.74582h-2.8117zm0 1.2144h2.8117v0.75902h-2.8117zm5.3527-1.2144h2.8975v0.74582h-2.8975zm0 1.2144h2.8975v0.75902h-2.8975zm-4.6333 2.6929h8.2172v0.86462h-8.2172z"></path>
  <path d="m134.52 14.068h5.1745v1.1088h-2.9305v1.0956h2.7457v1.0692h-2.7457v1.9668h-5.3131v-1.9668h-2.1648v1.2276q0 2.9899-0.31681 4.7257-0.24421 1.32-0.79202 2.4091l-1.2012-0.95042q0.50161-1.089 0.68641-2.6599 0.165-1.3794 0.165-3.5245v-4.5013h5.2207v-1.188h1.4718zm-5.2339 1.1088v1.0956h2.1648v-1.0956zm3.5707 0v1.0956h2.5014v-1.0956zm0 2.1648v1.023h2.5014v-1.023zm1.5312 6.9302q-1.9074 0.99002-4.8445 1.5048l-0.68641-1.2144q2.7589-0.33001 4.3231-1.0098-1.3398-0.97022-2.2902-2.3035h-0.91082v-1.1484h7.7288l0.69302 0.58081q-0.98342 1.5114-2.8051 2.8447 1.5642 0.62701 4.2637 0.92402l-0.77222 1.2474q-2.5872-0.34981-4.6993-1.4256zm-1.9602-3.0229q0.79861 0.93722 1.9404 1.65 1.287-0.83162 1.9866-1.65z"></path>
 </g>
</svg>
