<svg version="1.1" xmlns="http://www.w3.org/2000/svg" xmlns:xlink="http://www.w3.org/1999/xlink" width="184.52201" height="91.88682" viewBox="0,0,184.52201,91.88682"><g transform="translate(95.76154,-32.23456)"><g data-paper-data="{&quot;isPaintingLayer&quot;:true}" fill="none" fill-rule="evenodd" stroke="#d645ff" stroke-width="72" stroke-linecap="round" stroke-linejoin="round" stroke-miterlimit="4" stroke-dasharray="" stroke-dashoffset="0" style="mix-blend-mode: normal"><path d="M52.76047,68.23456l-1.19981,1.75972l-1.33979,-0.77988l-0.73988,1.62974l-4.3493,0.50992l-2.10966,3.50944l-4.95921,1.99968l-6.12902,1.50976l-10.45833,1.61974l-3.38946,-0.05999l-1.45977,-2.23964l-0.77988,1.42977l-5.47912,0.81987l-2.60958,1.2398l-8.62862,0.81987l-6.33899,0.24996l-10.12838,-0.73988l-7.86874,-3.1295l-4.43929,1.29979l-4.79923,0.69989l-2.4896,2.05967l-2.63958,0.58991l-1.42977,1.61974l-0.43993,2.21964l-2.56959,1.2498l-7.99872,-1.67973l-2.85954,-1.39978l-2.45961,-2.10966l-2.42961,-4.92921l2.62958,-2.12966l-2.61958,0.40993"/></g></g></svg>