<svg xmlns="http://www.w3.org/2000/svg" viewBox="0 0 208 80" version="1.1" height="80" width="208"><rect stop-color="#000000" fill-opacity="0" height="80" width="208" x="-208" transform="scale(-1,1)"></rect><path style="-inkscape-stroke:none" stroke-linejoin="round" stroke-linecap="round" fill="#fff" color="#000000" d="m43.4777 14.9063a1.615546 1.615546 0 0 0-1.613538 1.592547v4.46214a1.615546 1.615546 0 0 0 3.230154 0v-4.46214a1.615546 1.615546 0 0 0-1.616616-1.592547zm-11.22292 4.6875a1.615546 1.615546 0 0 0-1.135846 0.46274 1.615546 1.615546 0 0 0-0.03538 2.268629l3.155076 3.209135a1.615546 1.615546 0 0 0 1.547385 0.411658 1.615546 1.615546 0 0 0 1.144923-1.123798 1.615546 1.615546 0 0 0-0.387692-1.553485l-3.155077-3.209135a1.615546 1.615546 0 0 0-1.132769-0.465744zm22.57215 0.02705a1.615546 1.615546 0 0 0-1.222923 0.45673l-3.155077 3.155048a1.61585 1.61585 0 0 0 2.286615 2.283654l3.155077-3.155048a1.615546 1.615546 0 0 0 0.399692-1.55048 1.615546 1.615546 0 0 0-1.132923-1.135818 1.615546 1.615546 0 0 0-0.330461-0.05409zm-17.42785 10.42367a1.615546 1.615546 0 0 0-1.496462 1.01262l-3.930307 9.759615-5.384615-0.0031a1.615546 1.615546 0 0 0-1.478308 0.958534l-7.178461 16.15686a1.615546 1.615546 0 0 0 1.475384 2.271631h38.45246a1.615546 1.615546 0 0 0 1.553538-2.058269l-7.692307-26.92609a1.615546 1.615546 0 0 0-1.553539-1.171873zm1.093692 3.230168h10.45677l6.769846 23.69591h-33.82523l5.742308-12.92668 5.423692 0.0031a1.615546 1.615546 0 0 0 1.499385-1.009615z"></path><path aria-label="大規模噴火" fill="#fff" d="m82.6899 37.9056q0.808593 2.742187 3.070312 5.835937 2.753906 3.773438 6.773438 5.976563l-1.675782 2.414062q-4.253906-2.507812-7.101562-6.644531-1.535156-2.25-2.460938-4.582031-0.925781 3.140625-2.871093 5.707031-2.859375 3.796875-7.066407 5.601562l-1.652343-2.144531q4.40625-1.839844 7.113281-5.671875 2.273437-3.234375 2.695312-6.492187h-9.351562v-2.542969h9.457031v-5.648438h2.707031v5.648438h9.65625v2.542969zm29.44921 6.210937v4.992188q0 0.410156 0.1875 0.503906 0.11719 0.07031 0.77344 0.07031 0.8086 0 0.94922-0.09375 0.375-0.222656 0.50391-3.257812l2.10937 0.621094q-0.1289 2.589843-0.375 3.527343-0.29297 1.054688-1.2539 1.335938-0.72657 0.222656-2.35547 0.222656-1.16016 0-1.62891-0.09375-1.19531-0.257812-1.19531-1.628906v-6.199219h-1.39453q-0.12891 2.167969-0.45703 3.28125-0.49219 1.664063-1.75782 2.789063-1.66406 1.488281-4.04297 2.144531l-1.37109-2.039063q3.11719-0.632812 4.25391-2.402343 0.78515-1.242188 0.99609-3.773438h-1.98047v-13.69922h10.61719v13.69922zm-5.63671-11.66016v2.039062h5.82421v-2.039062zm0 3.820312v2.015625h5.82421v-2.015625zm0 3.820313v2.050781h5.82421v-2.050781zm-8.929692-6.726563v-3.65625h2.402344v3.65625h3.117188v2.132813h-3.117188v3.316406h3.457028v2.15625h-3.468747q-0.04687 1.324219-0.164062 2.167969 1.945309 1.476562 3.820309 3.585937l-1.48828 2.027344q-1.28906-1.839844-2.812498-3.351562-1.019531 3.550781-4.21875 6.351562l-1.675781-1.828125q2.414062-2.039062 3.386718-4.734375 0.65625-1.816406 0.75-4.21875h-3.949218v-2.15625h3.960937v-3.316406h-3.433594v-2.132813zm23.20312 8.355469q-1.10156 3.210938-2.49609 5.660156l-0.98438-2.753906q2.19141-3.65625 3.25782-8.039062h-2.89453v-2.285157h3.11718v-4.828125h2.40235v4.828125h2.15625v2.285157h-2.15625v2.003906q1.51172 1.242187 2.9414 2.847656l-1.21875 2.085938q-0.91406-1.347657-1.72265-2.320313v11.07422h-2.40235zm15.73828-7.207031h2.57813v8.261719h-5.30859v1.359375h6.72656v2.0625h-6.14063q2.41407 3.058593 6.375 3.960937l-1.27734 2.15625q-2.33203-0.609375-4.28906-2.179687-1.3711-1.089844-2.35547-2.683594-0.91406 1.875-2.4961 3.035156-1.67578 1.21875-4.51171 1.945313l-1.44141-1.910157q2.89453-0.65625 4.44141-1.628906 1.48828-0.9375 2.33203-2.695312h-6.33985v-2.0625h6.57422v-1.359375h-5.08594v-8.261719h2.4961v-1.324219h-3.55078v-1.992187h3.55078v-1.722657h2.27344v1.722657h3.10546v-1.722657h2.34375v1.722657h3.60938v1.992187h-3.60938zm-2.34375 0v-1.324219h-3.10546v1.324219zm2.54297 1.757812h-8.0625v1.511719h8.0625zm-8.0625 3.1875v1.558594h8.0625v-1.558594zm31.28907 9.023438q2.5664 0.902344 4.85156 2.203125l-1.67578 1.757812-0.48047-0.292968q-2.47266-1.476563-4.7461-2.449219l1.3711-1.21875h-5.77735l1.3711 1.148437q-2.83594 1.828125-6.02344 2.789063l-1.51172-1.96875q3.19922-0.644531 5.47266-1.96875h-3.04688v-10.05469h13.27735v10.05469zm-7.79297-8.472656v1.171875h8.44922v-1.171875zm0 2.707031v1.277344h8.44922v-1.277344zm0 2.8125v1.324219h8.44922v-1.324219zm-3.70313-14.17969v16.17188h-4.17187v1.898438h-2.15625v-18.07031zm-4.17187 2.273438v11.56641h2.03906v-11.56641zm10.875-2.660156v-1.488282h2.42578v1.488282h5.85937v1.898437h-5.85937v1.394531h-2.42578v-1.394531h-5.61328v-1.898437zm-3.50391 3.796875v-1.417969h2.15625v1.417969h5.16797v-1.417969h2.17969v1.417969h3.3164v1.945312h-3.3164v1.300781h-2.17969v-1.300781h-5.16797v1.300781h-2.15625v-1.300781h-2.61328v-1.945312zm26.66016-5.285157v5.753907q0 5.109375 3.5039 9.5625 2.39063 3.046875 6.59766 4.96875l-1.76953 2.414062q-7.26563-3.832031-9.4336-10.54688-0.94921 3.84375-2.89453 6.199219-2.27343 2.742187-6.63281 4.371094l-1.72266-2.226563q4.9336-1.640625 7.14844-4.992187 1.38281-2.097657 2.05078-5.097657 0.49219-2.191406 0.49219-4.453125v-5.953125zm-11.4375 11.68359q1.91015-2.894531 2.77734-7.382812l2.67188 0.503906q-0.9375 4.992187-3 8.414062zm14.03906-0.808594q2.23828-3.164062 3.9375-7.394531l2.66016 1.171875q-1.92188 4.160156-4.24219 7.417969z"></path></svg>
