<?xml version="1.0" encoding="UTF-8"?>
<svg width="480" height="360" version="1.1" viewBox="0 0 480 360" xmlns="http://www.w3.org/2000/svg">
 <g dominant-baseline="central" fill="#fff" aria-label="若狭湾">
  <path d="m246.79 181.8h10.469v7.7051h-2.1777v-1.1816h-8.4668v1.1816h-2.1582v-5.7324q-1.2109 0.9082-2.959 1.8945l-1.2988-1.6894q3.8477-1.7969 6.1816-4.6191h-5.8887v-1.7969h7.1387q0.71289-1.2305 1.25-2.5586l2.0801 0.47852q-0.51758 1.1914-1.0059 2.0801h9.541v1.7969h-10.645q-0.83985 1.2109-1.9336 2.3144zm-0.17578 1.6992v3.0859h8.4668v-3.0859zm-1.3574-11.094v-1.9043h2.1191v1.9043h5.127v-1.9043h2.1191v1.9043h4.1992v1.8164h-4.1992v1.5234h-2.1191v-1.5234h-5.127v1.543h-2.1191v-1.543h-4.0625v-1.8164z" dominant-baseline="central"/>
  <path d="m264.58 180.62q-1.4453 2.9394-3.1543 4.668l-1.1426-1.7578q1.9727-1.9141 3.9551-5.8594-0.0879-0.47851-0.27344-1.1719-1.0742 1.123-2.6367 2.3926l-1.0644-1.7383q1.709-1.2109 2.9492-2.5684-0.74219-1.4551-2.1289-2.6758l1.4551-1.0352q1.2207 0.95703 1.9727 2.0801 0.78125-1.1523 1.4356-2.3828l1.7383 1.084q-1.1621 1.8652-2.2168 3.1445 1.2598 3.0371 1.2598 8.2617 0 3.291-0.64454 4.8926-0.32226 0.78125-0.83984 1.123-0.47852 0.3125-1.377 0.3125-1.1426 0-2.0215-0.19531l-0.38086-2.0996q1.0449 0.25391 1.9043 0.25391 0.58594 0 0.76172-0.21485 0.13672-0.15625 0.22461-0.57617 0.2832-1.2988 0.2832-3.7793 0-0.76172-0.0586-2.1582zm8.584 2.9004q-1.3184 4.2285-5.6641 6.0352l-1.2402-1.7188q2.3438-0.83985 3.7207-2.4805 1.1426-1.3574 1.6992-3.3984h-4.5606v-1.8848h4.8047v-4.9805h-4.4629v-1.8555h4.4629v-2.7441h1.9824v2.7441h5.1562v1.8555h-5.1562v4.9805h5.5957v1.8848h-5.1074q1.5332 3.7305 5.3906 5.5176l-1.3477 1.9629q-3.7402-2.2754-5.2734-5.918zm1.8164-4.2871q0.83984-1.5918 1.4648-3.7988l1.9141 0.67383q-0.76171 2.1973-1.6797 3.7012zm-6.0742 0.5957q-0.45898-1.9531-1.2598-3.6328l1.7774-0.66406q0.82031 1.5234 1.377 3.5644z" dominant-baseline="central"/>
  <path d="m295.09 173.8v3.7793q0 0.64454-0.27344 0.94727-0.32226 0.35156-1.4258 0.35156-1.0547 0-1.7285-0.11718l-0.25391-1.6211q0.77148 0.15625 1.2988 0.15625 0.2832 0 0.36133-0.13672 0.0586-0.11718 0.0586-0.38086v-2.9785h-1.7383q-0.0781 2.0605-0.54688 3.1641-0.51757 1.2012-2.1387 2.1973l-1.3965-1.2402q1.4648-0.76172 1.8848-1.9629 0.25391-0.75195 0.3125-2.1582h-3.8574v-1.6602h5.5566v-1.6406h2.1484v1.6406h6.1328v1.6602zm3.0176 5.5371v3.9648h-9.6387q-0.0781 0.53711-0.18555 1.0742h10.664q-0.24414 2.6856-0.67383 3.6816-0.625 1.4453-2.9297 1.4453-1.9141 0-4.1113-0.16601l-0.36133-1.7774q2.0996 0.22461 3.7598 0.22461 0.89843 0 1.1816-0.20508 0.43945-0.32226 0.68359-1.6797h-8.5938q-0.10742 0.40039-0.37109 1.2012l-2.0996-0.41992q0.74218-2.2266 1.1133-4.8145h9.4238v-1.0449h-10v-1.4844zm-14.365-4.3164q-1.084-1.5039-2.7734-2.9785l1.4551-1.3867q1.5332 1.123 2.8809 2.8613zm-0.5957 5.0391q-1.5039-1.9043-2.9199-3.1055l1.4648-1.416q1.4648 1.123 3.0176 2.9004zm-2.5195 7.9004q1.7188-2.6758 3.2617-6.8652l1.6016 1.1816q-1.2793 3.877-3.0664 7.2461zm17.402-9.3652q-1.2793-2.0703-2.6855-3.5742l1.4844-0.95703q1.7188 1.5625 2.7832 3.418zm-13.662-1.1719q1.4258-1.1719 2.3438-3.1055l1.7774 0.66406q-0.95703 2.1777-2.6465 3.6328z" dominant-baseline="central"/>
 </g>
</svg>
