<?xml version="1.0" encoding="UTF-8"?>
<svg width="480" height="360" version="1.1" viewBox="0 0 480 360" xmlns="http://www.w3.org/2000/svg">
 <g dominant-baseline="central" fill="#fff" aria-label="京都府北部">
  <path d="m251.02 172.46h8.0566v1.8555h-18.154v-1.8555h7.9394v-1.9629h2.1582zm6.0254 3.4961v6.377h-5.7617v5.4883q0 0.83984-0.3711 1.2207-0.43945 0.45898-1.748 0.45898-1.4062 0-2.8027-0.14648l-0.43945-2.002q1.3476 0.20507 2.7051 0.20507 0.38086 0 0.45898-0.18554 0.0391-0.0879 0.0391-0.25391v-4.7852h-6.1621v-6.377zm-11.846 1.7578v2.8613h9.6094v-2.8613zm12.344 10.967q-1.7578-2.5781-3.8965-4.668l1.5723-1.2402q2.0898 1.875 4.043 4.4043zm-17.08-1.3867q2.4316-1.6894 3.8184-4.2578l1.9043 0.99609q-1.416 2.793-4.1797 4.8828z" dominant-baseline="central"/>
  <path d="m267.19 176.3q1.6113-2.041 2.7734-4.6973l1.7188 0.87891q-1.2598 2.2949-2.334 3.8184h2.0508v1.7578h-3.8281q-0.0488 0.0488-0.0977 0.11719-0.48828 0.625-1.6309 1.7285h4.4629v9.3359h-1.9043v-0.74219h-3.8965v1.0059h-1.9629v-6.8652q-0.67383 0.46875-1.3867 0.9082l-0.97656-1.6797q1.0352-0.53711 2.2168-1.4062 1.7188-1.2695 2.7832-2.4023h-4.6777v-1.7578h3.8965v-1.9434h-2.8027v-1.7188h2.8027v-2.1387h1.9434v2.1387h2.1387v1.7188h-2.1387v1.9434zm-2.6856 5.1855v1.8555h3.8965v-1.8555zm0 3.4375v1.9531h3.8965v-1.9531zm12.373-6.7285q2.4316 2.9004 2.4316 5.7422 0 1.4648-0.57617 2.168-0.54688 0.67382-1.8066 0.67382-1.0352 0-2.1094-0.13672l-0.43945-2.041q1.123 0.22461 1.9238 0.22461 0.5957 0 0.75195-0.25391 0.14649-0.22461 0.14649-0.81054 0-1.9531-1.3965-4.0527-0.39062-0.5957-1.0254-1.2891 1.0352-2.2363 1.6992-5.0391h-2.4805v16.123h-2.002v-18.066h5.7422l1.1328 0.98632q-0.89844 3.3789-1.9922 5.7715z" dominant-baseline="central"/>
  <path d="m291.6 172.66h7.4024v1.8359h-15.146v4.2188q0 1.4453-0.0391 2.5195 2.0801-2.4805 3.457-6.5137l2.0312 0.45898q-0.52734 1.4746-1.3086 2.9883v11.338h-2.0801v-7.9297q-0.6543 0.9082-1.3184 1.709l-0.79102-1.8066q-0.10742 2.5195-0.43945 4.2969-0.38086 2.0312-1.25 3.7305l-1.7383-1.5625q0.80078-1.8262 1.1035-4.1406 0.27344-2.1191 0.27344-5.2051v-5.9375h7.627v-2.1582h2.2168zm2.998 5.3223v-2.8809h2.0996v2.8809h2.8027v1.8555h-2.8027v7.7051q0 1.2402-0.71289 1.6016-0.41016 0.21485-1.3574 0.21485-1.5234 0-2.793-0.15625l-0.41992-1.9824q1.582 0.22461 2.5781 0.22461 0.43945 0 0.53711-0.14649 0.0684-0.11719 0.0684-0.41992v-7.041h-5.957v-1.8555zm-2.7832 7.5q-1.2305-2.4024-2.5-4.0625l1.6797-1.0156q1.5918 2.0215 2.5 3.9356z" dominant-baseline="central"/>
  <path d="m305.84 184.3q-2.6953 1.416-4.6973 2.168l-0.82031-2.1484q3.1348-1.0547 5.5176-2.1875v-4.375h-4.834v-2.0606h4.834v-5.1953h2.1777v19.004h-2.1777zm6.9434-7.6074q2.2754-1.1914 4.4141-3.0273l1.6211 1.6992q-2.8906 2.0508-6.0352 3.4961v7.3242q0 0.47852 0.3125 0.58594 0.33203 0.10742 1.5332 0.10742 1.582 0 1.9824-0.18555 0.2832-0.12695 0.39062-0.79101 0.14649-0.92774 0.21485-2.998l2.1875 0.67383q-0.0977 2.5293-0.3125 3.6328-0.24414 1.2305-1.2793 1.5918-0.98633 0.33203-3.2324 0.33203-2.6367 0-3.3203-0.43945-0.6543-0.42969-0.6543-1.6504v-16.543h2.1777z" dominant-baseline="central"/>
  <path d="m326.98 172.75h4.1797v1.8848h-1.377q-0.3711 1.4941-0.9961 3.1348h2.6074v1.8848h-10.898v-1.8848h2.3926q-0.39062-1.875-0.82031-3.1348h-1.2695v-1.8848h4.1406v-2.2559h2.041zm-2.9394 1.8848q0.49805 1.4551 0.77148 3.1348h1.9922l0.09766-0.27344q0.41992-1.1133 0.78125-2.5293l0.0879-0.33203zm6.0547 6.6602v7.998h-2.002v-0.95703h-4.2578v1.1621h-2.0606v-8.2031zm-6.2598 1.7969v3.3887h4.2578v-3.3887zm13.047-4.9316q1.1621 1.1035 1.8457 2.627 0.67383 1.5234 0.67383 3.0859 0 1.4453-0.53711 2.1289-0.55664 0.71289-1.8359 0.71289-1.0938 0-2.1191-0.15625l-0.47852-2.0801q1.1816 0.21485 1.9531 0.21485 0.58594 0 0.73242-0.27344 0.0977-0.19531 0.0977-0.78125 0-2.4121-1.4453-4.1602-0.38086-0.45898-0.95703-0.98633l0.11719-0.27343q1.0156-2.2949 1.582-4.7852h-2.5v16.064h-2.0215v-18.086h5.8789l1.084 0.99609q-0.98633 3.3594-2.0703 5.752z" dominant-baseline="central"/>
 </g>
</svg>
