<svg version="1.1" xmlns="http://www.w3.org/2000/svg" xmlns:xlink="http://www.w3.org/1999/xlink" width="180.54263" height="125.46145" viewBox="0,0,180.54263,125.46145"><g transform="translate(-11.94124,-132.80846)"><g data-paper-data="{&quot;isPaintingLayer&quot;:true}" fill="none" fill-rule="evenodd" stroke="#d645ff" stroke-width="72" stroke-linecap="round" stroke-linejoin="round" stroke-miterlimit="4" stroke-dasharray="" stroke-dashoffset="0" style="mix-blend-mode: normal"><g><path d="M89.82454,222.26991l1.42977,-4.00936l1.17981,-0.70989l3.1495,-7.01888l2.04967,-2.43961l1.56975,0.38994l1.2598,-1.28979l3.20949,-5.75908l3.43945,-1.41977l2.15965,-1.62974l4.89922,-6.57895l1.80971,-0.67989l2.34962,3.95937l-3.1395,4.05935l-0.15997,2.4996l-1.30979,2.29963l-2.79955,2.77956l-1.17981,2.66957l-3.86938,4.85922l-0.6299,2.37962"/><path d="M47.94124,177.41709l1.81971,-2.08967l2.85954,-0.68989l0.48992,1.44977l3.7394,0.69989l2.35962,-2.5096l-0.12998,-2.23964l3.1195,0.22996l-0.69989,-2.61958l1.06983,-0.83987l0.6199,4.55927l2.91953,-2.17965l-0.02,1.43977l2.35962,-2.60958l1.2798,1.42977l1.98968,0.18997l1.04983,1.39978l3.34946,-2.02968l0.79987,0.82987l4.92921,-1.94969l2.24964,1.42977l2.81955,-0.53991l5.45913,1.93969l0.03,0.96984l3.06951,2.44961l1.57975,0.20997l-0.40993,1.48976l1.77972,1.47976l1.69973,-1.72972l5.19917,3.83939l1.19981,1.51976l3.70941,1.78971"/><path d="M64.49858,183.53611l1.35978,3.04951l-4.23932,0.15997l0.44993,-2.16965l1.16981,0.6199l1.2598,-1.65973"/><path d="M137.75687,182.18633l2.5096,3.87938l-2.78955,0.08999l-1.47976,-1.10982l-0.09998,-1.74972l1.8597,-1.10982"/><path d="M69.32782,181.7264l0.93985,0.79987l-0.30995,2.64958l-3.37946,-2.31963l2.74956,-1.12982"/><path d="M156.48387,180.43661l-1.45977,1.08983l-3.87938,-1.04983l0.6199,-1.13982l-2.4696,-2.36962l-2.93953,1.35978l-1.16981,-0.6099l-0.6299,1.8897l-5.29915,0.65989l0.32995,0.6399l-5.38914,1.36978l-0.69989,2.20965l0.57991,1.74972l-7.28883,1.01984l-6.46896,1.97968l-2.69957,-2.23964l-4.59926,-0.07999l-2.78955,-2.17965"/></g></g></g></svg>