<svg version="1.1" xmlns="http://www.w3.org/2000/svg" xmlns:xlink="http://www.w3.org/1999/xlink" width="208" height="32" viewBox="0,0,208,32"><g transform="translate(-240,-164)"><g data-paper-data="{&quot;isPaintingLayer&quot;:true}" fill-rule="nonzero" stroke="none" stroke-linecap="butt" stroke-linejoin="miter" stroke-miterlimit="10" stroke-dasharray="" stroke-dashoffset="0" style="mix-blend-mode: normal"><path d="M240,196v-32h208v32z" fill="none" stroke-width="0"/><path d="M248.58,175.67c-1.9206,-0.8594 -3.88023,-1.5788 -5.8789,-2.1582l0.63476,-1.9336c2.2526,0.55989 4.2285,1.24349 5.9277,2.0508zM246.578,180.67c-1.60153,-0.70313 -3.56117,-1.42253 -5.8789,-2.1582l0.83985,-1.9531c1.9922,0.52735 3.9258,1.22721 5.8008,2.0996zM241.9589,186.0509c2.66273,-0.22135 4.74933,-0.62499 6.2598,-1.2109c2.23307,-0.85287 3.98763,-2.3763 5.2637,-4.5703c0.85287,-1.46487 1.5267,-3.31707 2.0215,-5.5566l1.9727,1.1426c-0.63151,2.806 -1.51368,5.04233 -2.6465,6.709c-1.32813,1.9466 -3.18033,3.3854 -5.5566,4.3164c-1.6732,0.64453 -3.903,1.09699 -6.6894,1.3574z" fill="#ffffff" stroke-width="1"/><path d="M258.6,184.06c2.35027,-3.0404 4.32293,-6.49407 5.918,-10.361h2.4024c2.37627,4.082 5.56963,8.12167 9.5801,12.119l-1.377,1.9141c-3.28127,-3.22267 -6.39,-7.129 -9.3262,-11.719h-0.0781c-1.76433,3.9844 -3.55797,7.18427 -5.3809,9.5996zM271.94,177.1948c-0.41667,-1.08727 -1.084,-2.28843 -2.002,-3.6035l1.543,-0.55664c0.8138,1.1328 1.48763,2.30793 2.0215,3.5254zM274.7427,176.33542c-0.55338,-1.34113 -1.20768,-2.5488 -1.9629,-3.623l1.4356,-0.47851c0.76173,0.91147 1.42253,2.04427 1.9824,3.3984z" fill="#ffffff" stroke-width="1"/><path d="M279.62,171.32h2.2754v10.684h-2.2754zM289.649,171.11492h2.2754v6.9824c0,2.4544 -0.19857,4.28057 -0.59571,5.4785c-0.33203,1.02213 -0.78449,1.83593 -1.3574,2.4414c-1.1914,1.28253 -3.10547,2.2298 -5.7422,2.8418l-1.123,-2.002c2.88413,-0.58594 4.7331,-1.55924 5.5469,-2.9199c0.51433,-0.86587 0.82357,-1.9596 0.92774,-3.2812c0.0456,-0.61198 0.0684,-1.45835 0.0684,-2.5391z" fill="#ffffff" stroke-width="1"/><path d="M295.37,172.5h15.303l1.2598,1.0644c-0.36458,1.36067 -0.83985,2.49673 -1.4258,3.4082c-1.10027,1.72527 -2.7474,3.01433 -4.9414,3.8672l-1.2305,-1.6797c1.51693,-0.45573 2.7767,-1.2728 3.7793,-2.4512c0.59245,-0.6966 1.00585,-1.43227 1.2402,-2.207h-13.984zM301.6298,176.7188h2.2363v1.6797c0,2.51953 -0.27995,4.46613 -0.83985,5.8398c-0.7096,1.7448 -2.0898,3.16407 -4.1406,4.2578l-1.6113,-1.6992c1.41273,-0.67053 2.44463,-1.4713 3.0957,-2.4023c0.50131,-0.72267 0.83008,-1.48763 0.98633,-2.2949c0.18229,-0.92447 0.27344,-2.1647 0.27344,-3.7207z" fill="#ffffff" stroke-width="1"/><path d="M321.73,182.24h-4.043v-1.6016h1.9531c-0.29297,-0.66407 -0.625,-1.28257 -0.99609,-1.8555l1.7578,-0.64453c0.50781,0.85287 0.91798,1.6862 1.2305,2.5h2.2949c0.38411,-0.78773 0.72265,-1.6341 1.0156,-2.5391l1.9629,0.61524c-0.33203,0.71613 -0.6836,1.3574 -1.0547,1.9238h2.0996v1.6016h-4.1797v1.4258h4.4531v1.6602h-4.4531v3.6914h-2.041v-3.6914h-4.2871v-1.6602h4.2871zM323.8296,176.2244h7.4024v11.416c0,0.6706 -0.17904,1.1426 -0.53711,1.416c-0.29948,0.23438 -0.80405,0.35157 -1.5137,0.35157c-0.918,0 -1.8034,-0.04883 -2.6562,-0.14649l-0.47852,-1.9629c1.13933,0.13672 1.9922,0.20508 2.5586,0.20508c0.23437,0 0.37109,-0.05859 0.41015,-0.17578c0.02607,-0.07161 0.0391,-0.17253 0.0391,-0.30274v-9.1016h-12.48v11.582h-2.1777v-13.281h7.2754v-1.7676h-8.3594v-1.8164h8.3594v-2.1387h2.1582v2.1387h8.4766v1.8164h-8.4766z" fill="#ffffff" stroke-width="1"/><path d="M339.79,172.75h4.1797v1.8848h-1.377c-0.2474,0.99607 -0.57943,2.041 -0.9961,3.1348h2.6074v1.8848h-10.898v-1.8848h2.3926c-0.26041,-1.25 -0.53385,-2.29493 -0.82031,-3.1348h-1.2695v-1.8848h4.1406v-2.2559h2.041zM336.8506,174.6348c0.33203,0.97007 0.58919,2.015 0.77148,3.1348h1.9922l0.09766,-0.27344c0.27995,-0.7422 0.54036,-1.5853 0.78125,-2.5293l0.0879,-0.33203zM342.9053,181.295v7.998h-2.002v-0.95703h-4.2578v1.1621h-2.0606v-8.2031zM336.6455,183.0919v3.3887h4.2578v-3.3887zM349.6925,178.1603c0.77473,0.73567 1.38997,1.61133 1.8457,2.627c0.44922,1.0156 0.67383,2.04423 0.67383,3.0859c0,0.96353 -0.17904,1.67317 -0.53711,2.1289c-0.37109,0.47526 -0.98306,0.71289 -1.8359,0.71289c-0.7292,0 -1.43557,-0.05208 -2.1191,-0.15625l-0.47852,-2.0801c0.78773,0.14323 1.43877,0.21485 1.9531,0.21485c0.39063,0 0.63477,-0.09115 0.73242,-0.27344c0.06513,-0.13021 0.0977,-0.39062 0.0977,-0.78125c0,-1.60807 -0.48177,-2.9948 -1.4453,-4.1602c-0.25391,-0.30599 -0.57292,-0.63476 -0.95703,-0.98633l0.11719,-0.27343c0.67707,-1.52993 1.2044,-3.125 1.582,-4.7852h-2.5v16.064h-2.0215v-18.086h5.8789l1.084,0.99609c-0.65755,2.2396 -1.34765,4.15693 -2.0703,5.752z" fill="#ffffff" stroke-width="1"/></g></g></svg>