<?xml version="1.0" encoding="UTF-8"?>
<svg width="480" height="360" version="1.1" viewBox="0 0 480 360" xmlns="http://www.w3.org/2000/svg">
 <g dominant-baseline="central" fill="#fff" aria-label="小笠原地方">
  <path d="m248.89 170.69h2.2754v16.279q0 1.2695-0.43945 1.748-0.48829 0.53711-2.0508 0.53711-1.4062 0-2.9883-0.14648l-0.49804-2.2754q2.4316 0.30273 3.3008 0.22461 0.40039-0.0391 0.40039-0.58594zm8.4375 14.688q-1.7676-6.9141-3.418-10.645l2.0606-0.87891q2.0801 4.2578 3.5547 10.342zm-17.041-1.2598q1.9434-3.2617 2.8223-9.707l2.2363 0.50781q-0.625 4.3164-1.5234 7.0703-0.67383 2.0508-1.6504 3.6426z" dominant-baseline="central"/>
  <path d="m267.43 174.58q0.625 1.0254 1.0254 2.041l-2.041 0.70313q-0.77149-1.9043-1.2207-2.7441h-0.9082q-0.83008 1.5527-1.9727 2.8027l-1.6797-1.4844q2.0215-1.9824 3.0469-5.498l2.1191 0.40039q-0.38086 1.25-0.69336 2.0215h4.5312v1.7578zm8.1445 0q0.53711 0.76172 1.2012 1.9629l-2.002 0.78125q-0.57617-1.377-1.4062-2.7441h-1.084q-0.63477 1.3086-1.4648 2.4219l-1.6016-1.2598q1.7383-2.1582 2.2949-5.2441l2.041 0.30273q-0.24414 1.1035-0.54688 2.0215h5.8691v1.7578zm-4.541 4.2773h7.6074v1.7578h-17.285v-1.7578h7.4609v-1.7578h2.2168zm0.60546 8.0078q1.1328-2.6172 2.0606-6.0644l2.2168 0.74219q-0.81055 2.7148-1.9824 5.3223h5.5664v1.8164h-19.004v-1.8164zm-6.2402-0.14648q-0.66406-3.3106-1.5039-5.3027l2.1191-0.59571q0.98633 2.2949 1.6797 5.293z" dominant-baseline="central"/>
  <path d="m291.5 174.92h6.0547v7.7344h-4.7363v5.3223q0 0.83984-0.4004 1.1816-0.40039 0.34179-1.4746 0.34179-1.416 0-2.5098-0.18554l-0.3125-1.8164q1.2695 0.20508 1.8359 0.20508 0.52734 0 0.64453-0.0879t0.11719-0.38086v-4.5801h-5.0195v-7.7344h3.7012q0.30273-0.71289 0.71289-1.8457h-5.9766v4.5996q0 4.668-0.49804 7.3828-0.42969 2.3633-1.5039 4.3359l-1.7383-1.4746q0.99609-2.002 1.3379-4.5312 0.26367-1.9629 0.26367-4.9316v-7.1777h16.836v1.7969h-6.4453q-0.38086 0.87891-0.88867 1.8457zm3.9355 1.582h-7.6758v1.4746h7.6758zm-7.6758 3.0566v1.5137h7.6758v-1.5137zm10.098 9.1797q-1.4258-2.1875-3.4668-4.2578l1.5234-1.1816q2.0606 1.875 3.5449 4.0332zm-14.102-1.2012q2.0215-1.7676 3.1152-4.1797l1.7285 0.87891q-1.25 2.7246-3.3203 4.6582z" dominant-baseline="central"/>
  <path d="m310.23 178.41v7.7344q0 0.75195 0.64454 0.9082 0.66406 0.16602 3.0371 0.16602 2.3144 0 3.0566-0.23438 0.41992-0.13672 0.54687-0.76172 0.16602-0.8789 0.17578-2.0801l2.041 0.57618q-0.15625 2.8809-0.79102 3.6816-0.41992 0.52734-1.2695 0.625-1.3379 0.14648-4.541 0.14648-2.4805 0-3.252-0.13672-1.1621-0.19531-1.4746-1.0254-0.15625-0.43945-0.15625-1.1719v-7.7441l-1.8652 0.64453-0.45899-1.8945 2.3242-0.80078v-5.2637h1.9824v4.5801l2.0996-0.71289v-5.1465h1.9629v4.4629l3.2715-1.123 1.0254 0.625v7.3144q0 0.76172-0.36133 1.1328-0.41015 0.41015-1.377 0.41015-0.79102 0-1.6797-0.13672l-0.32226-1.8652q0.57617 0.14648 1.1719 0.14648 0.42969 0 0.52734-0.17578 0.0977-0.14648 0.0977-0.48828v-4.6191l-2.3535 0.82031v7.9004h-1.9629v-7.2266zm-7.1777-3.1934v-4.7168h2.0996v4.7168h1.8945v1.9824h-1.8945v6.2109q1.0254-0.35156 2.0312-0.73242l0.18555 1.8848q-3.1641 1.4453-6.4941 2.4219l-0.6836-2.0801q1.5039-0.39062 2.6367-0.74218 0.13672-0.0488 0.22461-0.0684v-6.8945h-2.4805v-1.9824z" dominant-baseline="central"/>
  <path d="m329.48 175.76q-0.0684 1.6309-0.19531 2.8711h7.8711q-0.14648 6.7774-0.76172 8.7988-0.3125 1.0156-1.1621 1.4062-0.66406 0.30273-1.9434 0.30273-1.3477 0-3.0566-0.20507l-0.38085-2.1973q2.2949 0.32227 3.2324 0.32227 0.79101 0 1.0059-0.44922 0.51757-1.0938 0.72265-6.0352h-5.8105q-0.32227 1.7578-0.90821 3.0469-1.6309 3.5644-5.4492 5.6543l-1.543-1.7188q3.8281-1.9922 5.0586-5.2246 0.82031-2.1582 1.0644-6.5723h-6.4648v-2.002h7.9785v-3.2617h2.2559v3.2617h8.2422v2.002z" dominant-baseline="central"/>
 </g>
</svg>
