<svg version="1.1" xmlns="http://www.w3.org/2000/svg" xmlns:xlink="http://www.w3.org/1999/xlink" width="224" height="282" viewBox="0,0,224,282"><g transform="translate(-128,-180)"><g data-paper-data="{&quot;isPaintingLayer&quot;:true}" stroke="none" stroke-width="1" stroke-linecap="butt" stroke-linejoin="miter" stroke-miterlimit="10" stroke-dasharray="" stroke-dashoffset="0" style="mix-blend-mode: normal"><path d="M352,452c0,5.54 -4.46001,10 -10,10h-204c-5.53999,0 -10,-4.46 -10,-10v-272h224z" fill="#1d2a41" fill-rule="evenodd"/><path d="M142.13965,309.9393h7.58789l0.90234,1.0665l-0.51953,0.2871c-2.1875,1.2122 -3.89193,2.1715 -5.11328,2.8779c2.86198,-0.11393 5.30241,-0.23013 7.32129,-0.3486l0.11621,1.4423l-2.26953,0.096c-1.12109,0.05 -2.15332,0.3075 -3.09668,0.7725c-1.31706,0.65167 -1.97559,1.47197 -1.97559,2.4609c0,0.7748 0.45117,1.30573 1.35352,1.5928c0.71094,0.22333 1.8571,0.33727 3.43848,0.3418v1.4834c-2.00977,-0.00667 -3.46354,-0.20263 -4.36133,-0.5879c-1.29427,-0.5514 -1.94141,-1.44233 -1.94141,-2.6728c0,-1.52213 1.02767,-2.64323 3.08301,-3.3633c-1.08463,0.03667 -2.99642,0.1301 -5.73535,0.2803l-0.49903,0.027l-0.0957,-1.4287c0.77474,0 1.55859,-0.01367 2.35156,-0.041c1.86849,-1.15753 3.60938,-2.14647 5.22266,-2.9668h-5.76953zM160.78125,320.3368c2.67513,-0.67447 4.0127,-2.208 4.0127,-4.6006c0,-1.0436 -0.26888,-1.94137 -0.80665,-2.6933c-0.60156,-0.84767 -1.51757,-1.39227 -2.74804,-1.6338c-0.26888,2.11453 -0.63574,3.8463 -1.10059,5.1953c-0.31901,0.94333 -0.71549,1.83427 -1.18945,2.6728c-0.68359,1.19407 -1.46061,1.7911 -2.33106,1.7911c-0.64713,0 -1.22363,-0.29167 -1.72949,-0.875c-0.32357,-0.3692 -0.58561,-0.82267 -0.78613,-1.3604c-0.26433,-0.69727 -0.39649,-1.44693 -0.39649,-2.249c0,-1.29887 0.35775,-2.49517 1.07325,-3.5889c0.72461,-1.11653 1.66569,-1.92773 2.82324,-2.4336c0.8431,-0.36913 1.76823,-0.5537 2.77539,-0.5537c1.57227,0 2.90755,0.42157 4.00586,1.2647c1.34896,1.03447 2.02344,2.49963 2.02344,4.3955c0,3.1764 -1.60645,5.1907 -4.81934,6.0429zM159.75586,311.3544c-0.80664,0.09113 -1.48112,0.3076 -2.02344,0.6494c-0.34635,0.22333 -0.69043,0.51957 -1.03222,0.8887c-0.94792,1.04813 -1.42188,2.26263 -1.42188,3.6435c0,1.0072 0.20052,1.79563 0.60156,2.3653c0.24609,0.35087 0.48991,0.5263 0.73145,0.5263c0.32813,0 0.69727,-0.3623 1.10742,-1.0869c1.00261,-1.76367 1.68164,-4.09243 2.03711,-6.9863zM173.96777,314.622v5.4209c0,0.24607 0.0638,0.41467 0.19141,0.5058c0.21875,0.14587 0.95931,0.2188 2.22168,0.2188c1.49935,0 2.39713,-0.06837 2.69336,-0.2051c0.15951,-0.07747 0.25749,-0.28253 0.29394,-0.6152c0.03193,-0.29167 0.05927,-0.736 0.082,-1.333l1.40136,0.3896c-0.05013,1.3854 -0.20736,2.2399 -0.47168,2.5635c-0.19596,0.23693 -0.53092,0.38503 -1.00488,0.4443c-0.68359,0.09113 -1.66797,0.1367 -2.95312,0.1367c-1.13021,0 -1.95964,-0.02267 -2.48829,-0.068c-0.64713,-0.05467 -1.06185,-0.27113 -1.24414,-0.6494c-0.10026,-0.2188 -0.15039,-0.531 -0.15039,-0.9366v-5.3867l-1.22363,0.417l-0.3623,-1.3057l1.58593,-0.5332v-3.6777h1.42871v3.1924l1.55176,-0.5264v-3.5615h1.3877v3.0898l2.33105,-0.7929l0.74512,0.4443v5.127c0,0.3782 -0.09342,0.6539 -0.28027,0.8271c-0.19141,0.18227 -0.52637,0.2734 -1.00489,0.2734c-0.41471,0 -0.79525,-0.02267 -1.1416,-0.068l-0.23242,-1.3125c0.31445,0.05467 0.59245,0.082 0.83398,0.082c0.20508,0 0.33269,-0.041 0.38282,-0.123c0.0456,-0.07293 0.0684,-0.18687 0.0684,-0.3418v-3.2744l-1.70215,0.581v5.5371h-1.3877v-5.0654zM170.74805,312.4481v9.9668h-1.49707v-7.0205c-0.33269,0.54233 -0.73601,1.12797 -1.20996,1.7569l-0.69727,-1.5108c0.79753,-1.05273 1.47201,-2.28547 2.02344,-3.6982c0.32357,-0.82947 0.64713,-1.82297 0.9707,-2.9805l1.49707,0.376c-0.36003,1.2168 -0.70182,2.20117 -1.02539,2.9531c-0.0228,0.05467 -0.0433,0.10707 -0.0615,0.1572z" fill="#ffffff" fill-rule="nonzero"/><path d="M145.46191,201.705v4.0058h-3.58203v0.7041h-1.36035v-4.7099zM141.87988,202.8808v1.6679h2.20801v-1.6679zM146.70605,193.6044h4.38184v3.3291c0,0.1504 0.0228,0.24383 0.0684,0.2803c0.05927,0.04533 0.16181,0.068 0.30762,0.068c0.20052,0 0.3304,-0.02733 0.38965,-0.082c0.0456,-0.03667 0.0775,-0.15743 0.0957,-0.3623c0.0456,-0.52407 0.07067,-0.92967 0.0752,-1.2168l1.27832,0.4033c-0.00467,0.52407 -0.03884,1.0231 -0.10253,1.4971c-0.06836,0.556 -0.36686,0.8864 -0.89551,0.9912c-0.22331,0.04533 -0.55827,0.068 -1.00489,0.068c-0.63346,0 -1.05957,-0.07973 -1.27832,-0.2392c-0.18685,-0.13673 -0.28027,-0.3874 -0.28027,-0.752v-2.7412h-1.70898v0.1436c0,0.92513 -0.10026,1.69077 -0.30078,2.2969c-0.22787,0.66533 -0.62663,1.22813 -1.19629,1.6884l-0.99121,-0.9912c0.57421,-0.401 0.92968,-0.97977 1.0664,-1.7363c0.0638,-0.36 0.0957,-0.79977 0.0957,-1.3193zM150.4248,203.3934c0.87045,0.62893 1.88445,1.1667 3.042,1.6133l-0.81348,1.3604c-1.38997,-0.65173 -2.48828,-1.308 -3.29492,-1.9688c-1.02083,0.8568 -2.04622,1.52673 -3.07617,2.0098l-0.79297,-1.2168c0.99805,-0.3418 1.97103,-0.90233 2.91894,-1.6816c-0.85221,-0.91147 -1.49935,-1.88217 -1.9414,-2.9121h-0.6836v-1.2579h6.13184l0.73828,0.67c-0.61979,1.33527 -1.36263,2.46317 -2.22852,3.3837zM149.41309,202.5595c0.63802,-0.7246 1.07552,-1.37857 1.3125,-1.9619h-2.85743c0.3737,0.679 0.86361,1.3079 1.46973,1.8867zM140.81348,193.6181h4.34082v1.1484h-4.34082zM140.02734,195.621h5.74219v1.2305h-5.74219zM140.81348,197.7196h4.34082v1.1348h-4.34082zM140.81348,199.7226h4.34082v1.1074h-4.34082zM161.38965,204.4257c0.77018,0.1276 1.611,0.1914 2.52246,0.1914h3.54785c-0.22787,0.45573 -0.39649,0.93653 -0.50586,1.4424h-3.05566c-1.85026,0 -3.31087,-0.22103 -4.38184,-0.6631c-1.03906,-0.4284 -1.89583,-1.1348 -2.57031,-2.1192c-0.53776,1.2806 -1.19857,2.34247 -1.98242,3.1856l-1.05957,-1.2715c1.28515,-1.39 2.08724,-3.19013 2.40625,-5.4004l1.55175,0.2393c-0.14583,0.72 -0.28711,1.31927 -0.42382,1.7978c0.55143,0.9798 1.36491,1.7044 2.44043,2.1738v-5.291h-3.79395v-0.9091h-1.4834v-3.1651h5.23633v-1.5244h1.52441v1.5244h5.35254v3.1651h-1.48339v0.9091h-3.8418v2.0918h4.68262v1.2715h-4.68262zM156.09863,195.9218v1.4902h9.10547v-1.4902zM175.3418,204.3368c2.67513,-0.67447 4.01269,-2.208 4.01269,-4.6006c0,-1.0436 -0.26888,-1.94137 -0.80664,-2.6933c-0.60156,-0.84767 -1.51758,-1.39227 -2.74805,-1.6338c-0.26888,2.11453 -0.63574,3.8463 -1.10058,5.1953c-0.31901,0.94333 -0.7155,1.83427 -1.18945,2.6728c-0.68359,1.19407 -1.46061,1.7911 -2.33106,1.7911c-0.64713,0 -1.22363,-0.29167 -1.72949,-0.875c-0.32357,-0.3692 -0.58561,-0.82267 -0.78613,-1.3604c-0.26433,-0.69727 -0.39649,-1.44693 -0.39649,-2.249c0,-1.29887 0.35775,-2.49517 1.07324,-3.5889c0.72461,-1.11653 1.6657,-1.92773 2.82325,-2.4336c0.84309,-0.36913 1.76822,-0.5537 2.77539,-0.5537c1.57227,0 2.90755,0.42157 4.00586,1.2647c1.34895,1.03447 2.02343,2.49963 2.02343,4.3955c0,3.1764 -1.60644,5.1907 -4.81933,6.0429zM174.31641,195.3544c-0.80664,0.09113 -1.48112,0.3076 -2.02344,0.6494c-0.34635,0.22333 -0.69043,0.51957 -1.03223,0.8887c-0.94791,1.04813 -1.42187,2.26263 -1.42187,3.6435c0,1.0072 0.20052,1.79563 0.60156,2.3653c0.24609,0.35087 0.48991,0.5263 0.73145,0.5263c0.32812,0 0.69726,-0.3623 1.10742,-1.0869c1.0026,-1.76367 1.68164,-4.09243 2.03711,-6.9863zM183.18945,193.6864h1.59278v7.4785h-1.59278zM190.20996,193.5429h1.59277v4.8877c0,1.71807 -0.139,2.99637 -0.41699,3.8349c-0.23242,0.71553 -0.54915,1.2852 -0.95019,1.709c-0.83399,0.8978 -2.17383,1.5609 -4.01953,1.9893l-0.78614,-1.4014c2.01888,-0.41013 3.31315,-1.09147 3.88282,-2.044c0.36002,-0.60607 0.57649,-1.37167 0.64941,-2.2968c0.03187,-0.4284 0.0478,-1.02087 0.0478,-1.7774zM197.1416,193.5429h1.56543v3.2197l6.56934,-0.8818l0.85449,0.8544c-0.50586,1.4128 -1.11882,2.55443 -1.83887,3.4249c-0.49219,0.597 -1.07552,1.10283 -1.75,1.5175l-1.18945,-0.9912c0.79297,-0.44207 1.46745,-1.0231 2.02344,-1.7431c0.38737,-0.50133 0.66992,-1.0186 0.84765,-1.5518l-5.5166,0.7998v4.7168c0,0.54233 0.18685,0.8659 0.56055,0.9707c0.32357,0.09573 1.03906,0.1436 2.14648,0.1436c1.25781,0 2.56348,-0.06837 3.91699,-0.2051v1.5586c-1.23502,0.09113 -2.50878,0.1367 -3.82128,0.1367c-1.81836,0 -2.94857,-0.09113 -3.39063,-0.2734c-0.65169,-0.26433 -0.97754,-0.89553 -0.97754,-1.8936v-4.9287l-2.87109,0.417l-0.15039,-1.4561l3.02148,-0.4033zM209.15234,200.9804c-0.32812,-1.40367 -0.77245,-2.70023 -1.333,-3.8897l1.29882,-0.6357c0.57878,1.18487 1.05046,2.5156 1.41504,3.9922zM212.32422,200.3651c-0.25521,-1.11653 -0.67448,-2.4085 -1.25781,-3.8759l1.34668,-0.5606c0.52409,1.153 0.96159,2.45867 1.3125,3.917zM210.19824,204.6171c1.52214,-0.4056 2.68425,-0.95247 3.48633,-1.6406c0.80209,-0.6882 1.41276,-1.6817 1.83203,-2.9805c0.32813,-1.02993 0.56739,-2.35383 0.71778,-3.9717l1.45605,0.4307c-0.27344,2.13733 -0.65397,3.77567 -1.1416,4.915c-0.59245,1.39453 -1.48112,2.47007 -2.66602,3.2266c-0.75195,0.48307 -1.71354,0.91143 -2.88476,1.2851zM220.88281,193.5018h1.59278v3.9239c2.7207,0.83853 4.97428,1.6953 6.76074,2.5703l-0.76563,1.4766c-1.71354,-0.87047 -3.71191,-1.69763 -5.99511,-2.4815v6.9453h-1.59278z" fill="#ffffff" fill-rule="nonzero"/></g></g></svg>