<svg version="1.1" xmlns="http://www.w3.org/2000/svg" xmlns:xlink="http://www.w3.org/1999/xlink" width="208" height="32" viewBox="0,0,208,32"><g transform="translate(-240,-164)"><g data-paper-data="{&quot;isPaintingLayer&quot;:true}" fill-rule="nonzero" stroke="none" stroke-linecap="butt" stroke-linejoin="miter" stroke-miterlimit="10" stroke-dasharray="" stroke-dashoffset="0" style="mix-blend-mode: normal"><path d="M240,196v-32h208v32z" fill="none" stroke-width="0"/><path d="M253.48,178.96h-10c0.93747,-2.59767 1.6048,-5.44273 2.002,-8.5352l2.1973,0.23438c-0.09765,0.55338 -0.24088,1.33465 -0.42969,2.3438h9.9121v1.7969h-10.293c-0.21484,0.95707 -0.41015,1.75787 -0.58593,2.4024h9.4141c-0.03907,1.52993 -0.11394,3.00453 -0.22461,4.4238h4.0332v1.8164h-4.209c-0.26693,2.30467 -0.5599,3.8216 -0.87891,4.5508c-0.27343,0.61198 -0.68683,1.02538 -1.2402,1.2402c-0.46875,0.18229 -1.19465,0.27343 -2.1777,0.27343c-1.04167,0 -2.14843,-0.06185 -3.3203,-0.18554l-0.43945,-2.0996c1.4844,0.1888 2.70183,0.2832 3.6523,0.2832c0.65104,0 1.08397,-0.12044 1.2988,-0.36133c0.32552,-0.36458 0.61849,-1.59831 0.87891,-3.7012h-12.568v-1.8164h12.773l0.01,-0.0977c0.07813,-0.8724 0.14323,-1.72853 0.19531,-2.5684z" fill="#ffffff" stroke-width="1"/><path d="M265.55,182.4c-0.26041,1.22393 -0.59895,2.31117 -1.0156,3.2617c-0.59245,1.35413 -1.43555,2.5781 -2.5293,3.6719l-1.4648,-1.4356c1.35413,-1.31513 2.35023,-3.1478 2.9883,-5.498h-2.9102v-1.6602h3.2422c0.09115,-0.64453 0.17253,-1.64713 0.24414,-3.0078h-3.0273v-1.6797h3.0859l0.01,-0.50782c0.013,-0.50781 0.02603,-1.29231 0.0391,-2.3535h-2.793v-1.7383h9.0234v2.1973c-0.013,7.61733 -0.13995,12.23633 -0.38086,13.857c-0.09765,0.67707 -0.36783,1.14257 -0.81054,1.3965c-0.33855,0.19531 -0.86265,0.29297 -1.5723,0.29297c-0.80727,0 -1.59503,-0.06836 -2.3633,-0.20508l-0.19531,-2.0117c0.8724,0.19531 1.56577,0.29297 2.0801,0.29297c0.37109,0 0.60872,-0.07161 0.71289,-0.21484c0.16927,-0.24089 0.29622,-1.49415 0.38086,-3.7598l0.0391,-0.89844zM265.83321,180.7398h2.5586c0.00667,-0.27344 0.01317,-0.64777 0.0195,-1.123c0.013,-0.6966 0.02603,-1.32487 0.0391,-1.8848h-2.3828l-0.01,0.32227c-0.06513,1.12627 -0.14,2.02147 -0.22461,2.6856zM266.12618,176.0523h2.3438v-0.77149c0.00667,-0.56641 0.01,-1.12304 0.01,-1.6699v-0.41992h-2.3047zM276.95618,178.3472c1.6016,1.8294 2.4024,3.68813 2.4024,5.5762c0,0.82033 -0.13997,1.4909 -0.41992,2.0117c-0.33203,0.61849 -0.98307,0.92773 -1.9531,0.92773c-0.71613,0 -1.42577,-0.05534 -2.1289,-0.16601l-0.45899,-2.1387c0.90493,0.17578 1.55923,0.26367 1.9629,0.26367c0.41667,0 0.66406,-0.1237 0.74219,-0.3711c0.05207,-0.14973 0.0781,-0.37109 0.0781,-0.66406c0,-1.85547 -0.80077,-3.5905 -2.4023,-5.2051c0.76173,-1.75133 1.32813,-3.45707 1.6992,-5.1172h-2.5977v16.035h-2.0019v-17.939h5.957l1.0644,0.95703c-0.63802,2.49347 -1.28582,4.43683 -1.9434,5.8301z" fill="#ffffff" stroke-width="1"/><path d="M290.76,176.34v2.3242h4.2383v1.6406h-1.9043c0.59245,0.48177 1.24025,1.16864 1.9434,2.0606l-1.4941,0.99609c-0.47526,-0.71613 -1.14259,-1.46807 -2.002,-2.2558l1.4258,-0.80079h-2.207v3.0957h5v1.7188h-11.543v-1.7188h4.5215v-3.0957h-3.7793v-1.6406h3.7793v-2.3242h-4.3164v-1.6992h11.113v1.6992zM298.758,171.4181v18.086h-2.1582v-1.0254h-13.223v1.0254h-2.1387v-18.086zM283.377,173.215v13.408h13.223v-13.408z" fill="#ffffff" stroke-width="1"/><path d="M307.74,171.98c0.24089,-0.57943 0.4362,-1.13283 0.58594,-1.6602l2.3828,0.32226c-0.22787,0.54037 -0.4362,0.98633 -0.625,1.3379h6.5039v6.3672h-11.797v0.98633h14.697v1.582h-14.697v0.99609h14.014c-0.08463,2.9818 -0.27343,4.99353 -0.5664,6.0352c-0.18881,0.66406 -0.54364,1.10353 -1.0645,1.3184c-0.37109,0.15625 -0.93749,0.23437 -1.6992,0.23437c-0.78127,0 -1.51043,-0.04883 -2.1875,-0.14648l-0.39063,-1.6406h-9.7852v1.084h-2.0996v-4.6973h2.0996v2.0117h3.3594v-2.6367h-3.8379v-11.494zM311.8904,186.111v-2.0117h2.0215v3.3984c0.54036,0.05207 0.98956,0.0781 1.3476,0.0781c0.44271,0 0.7194,-0.12695 0.83008,-0.38085c0.21485,-0.47527 0.38412,-1.7155 0.50781,-3.7207h-8.0273v2.6367zM304.7908,173.484v0.96679h9.6387v-0.96679zM304.7908,175.8473v1.0644h9.6387v-1.0644z" fill="#ffffff" stroke-width="1"/><path d="M325.52,185.06c0.52083,0.60547 1.10677,1.05471 1.7578,1.3477c1.06773,0.48177 2.46747,0.72266 4.1992,0.72266h8.3203c-0.23437,0.44271 -0.45247,1.07747 -0.6543,1.9043h-7.7637c-2.2396,0 -3.9551,-0.35157 -5.1465,-1.0547c-0.48828,-0.29297 -1.02538,-0.77151 -1.6113,-1.4356c-0.0456,0.05207 -0.10094,0.11717 -0.16602,0.19531c-0.957,1.1328 -1.90753,2.05727 -2.8516,2.7734l-1.1816,-2.002c1.03513,-0.61849 2.03447,-1.31836 2.998,-2.0996v-4.8242h-2.8418v-1.9238h4.9414zM328.0591,172.101l0.51758,-0.0391c3.01433,-0.20833 5.72267,-0.6543 8.125,-1.3379l1.5234,1.7188c-2.52607,0.66406 -5.22137,1.11326 -8.0859,1.3476v2.5293h9.043v1.9043h-3.2812v7.959h-2.1582v-7.959h-3.6035c-0.03253,2.08987 -0.18878,3.75327 -0.46875,4.9902c-0.25391,1.13933 -0.67057,2.16147 -1.25,3.0664l-1.7969,-1.3574c0.64453,-1.0026 1.05793,-2.2461 1.2402,-3.7305c0.13021,-1.02213 0.19531,-2.4121 0.19531,-4.1699zM324.4458,175.9194c-0.99607,-1.40627 -2.0703,-2.66603 -3.2227,-3.7793l1.6016,-1.2793c1.1198,0.93747 2.2461,2.12887 3.3789,3.5742z" fill="#ffffff" stroke-width="1"/><path d="M357.76,175.8c0,0.30599 -0.0293,1.75783 -0.0879,4.3555h1.8652v1.7578h-1.9043c-0.01953,0.85287 -0.06185,1.81967 -0.12695,2.9004h1.6504v1.7188h-1.7774c-0.07813,0.944 -0.18555,1.569 -0.32226,1.875c-0.30599,0.7292 -1.04819,1.0938 -2.2266,1.0938c-0.7552,0 -1.4518,-0.05534 -2.0898,-0.16601l-0.36133,-1.7383c0.918,0.13021 1.62113,0.19531 2.1094,0.19531c0.39713,0 0.63476,-0.13997 0.71289,-0.41992c0.03907,-0.13672 0.07487,-0.41667 0.10742,-0.83985h-6.9531c-0.00667,0.05207 -0.01643,0.10741 -0.0293,0.16602c-0.0586,0.34505 -0.11394,0.67057 -0.16602,0.97656l-2.0215,-0.19531c0.39713,-2.35027 0.66406,-4.1276 0.80078,-5.332l0.0293,-0.23438h-1.9531v-1.7578h2.1582c0.18229,-1.57553 0.33854,-3.02737 0.46875,-4.3555zM351.5881,177.4992h-2.1387c-0.01953,0.33203 -0.07813,1.0319 -0.17578,2.0996l-0.0586,0.55664h2.168l0.0293,-0.27344c0.013,-0.1888 0.03253,-0.45247 0.0586,-0.79101c0.06513,-0.91147 0.1042,-1.44207 0.11719,-1.5918zM353.5119,177.4992c-0.03253,0.77473 -0.08136,1.63087 -0.14648,2.5684v0.0879h2.2949c0.02607,-0.89193 0.04887,-1.77733 0.0684,-2.6562zM351.2267,181.9133h-2.1973c-0.09765,0.79427 -0.20182,1.57877 -0.3125,2.3535l-0.0781,0.54687h2.2852c0.15625,-1.41273 0.25717,-2.37953 0.30274,-2.9004zM353.2287,181.9133c-0.01953,0.26042 -0.0586,0.69012 -0.11719,1.2891l-0.15625,1.6113h2.4902c0.03253,-0.63151 0.05857,-1.10677 0.0781,-1.4258c0.03907,-0.6966 0.0651,-1.18813 0.0781,-1.4746zM349.4006,172.2746h9.4336v1.8164h-10.244c-0.52735,1.0742 -1.19791,2.09633 -2.0117,3.0664l-1.3965,-1.5234c1.28253,-1.50393 2.194,-3.2357 2.7344,-5.1953l2.0801,0.21485c-0.23437,0.67707 -0.43294,1.21743 -0.5957,1.6211zM344.0197,175.1164c-0.8008,-1.10027 -1.7741,-2.13217 -2.9199,-3.0957l1.4746,-1.4258c1.0612,0.78127 2.07033,1.7676 3.0274,2.959zM343.31657,180.2726c-0.9896,-1.26953 -1.98893,-2.334 -2.998,-3.1934l1.5234,-1.4648c1.1328,0.89193 2.15167,1.90757 3.0566,3.0469zM340.66037,187.9386c1.1328,-1.569 2.20703,-3.63607 3.2227,-6.2012l1.7383,1.2402c-0.84633,2.3698 -1.93357,4.54427 -3.2617,6.5234z" fill="#ffffff" stroke-width="1"/></g></g></svg>