<svg version="1.1" xmlns="http://www.w3.org/2000/svg" xmlns:xlink="http://www.w3.org/1999/xlink" width="208" height="32" viewBox="0,0,208,32"><g transform="translate(-240,-164)"><g data-paper-data="{&quot;isPaintingLayer&quot;:true}" fill-rule="nonzero" stroke="none" stroke-linecap="butt" stroke-linejoin="miter" stroke-miterlimit="10" stroke-dasharray="" stroke-dashoffset="0" style="mix-blend-mode: normal"><path d="M240,196v-32h208v32z" fill="none" stroke-width="0"/><path d="M251.04,185.42h4.9219v-10.742h2.2168v14.658h-2.2168v-1.7969h-11.943v1.7969h-2.1973v-14.658h2.1973v10.742h4.8047v-14.727h2.2168z" fill="#ffffff" stroke-width="1"/><path d="M269.43,173.28v4.9609h2.3633v1.9238h-2.3633v9.3359h-2.0801v-9.3359h-2.3926c-0.03253,1.96613 -0.17576,3.57093 -0.42969,4.8144c-0.35156,1.76433 -1.06769,3.31707 -2.1484,4.6582l-1.7676,-1.3379c0.99607,-1.21093 1.65037,-2.6823 1.9629,-4.4141c0.16927,-0.96353 0.26693,-2.15167 0.29297,-3.5644l0.01,-0.15625h-2.3828v-1.9238h2.3828v-4.9609h-1.9629v-1.9043h10.381v1.9043zM267.3499,173.28h-2.3926v4.9609h2.3926zM270.4163,187.372c2.9232,-1.0026 5.4232,-2.98827 7.5,-5.957l1.6211,1.2988c-1.9466,2.95573 -4.56703,5.07813 -7.8613,6.3672zM271.012,176.22c2.6172,-1.31507 4.62567,-3.10217 6.0254,-5.3613l1.7188,1.0938c-1.63413,2.51953 -3.8021,4.47593 -6.5039,5.8692zM271.39286,181.3762c2.49347,-1.1784 4.554,-2.92643 6.1816,-5.2441l1.6211,1.2891c-1.72527,2.42187 -3.89323,4.2806 -6.5039,5.5762z" fill="#ffffff" stroke-width="1"/><path d="M296.76,170.98v9.4629h-11.621v-9.4629zM287.2385,172.523v1.2207h7.4023v-1.2207zM287.2385,175.1207v1.2207h7.4023v-1.2207zM287.2385,177.7183v1.2598h7.4023v-1.2598zM283.3029,181.7417h16.191v1.6992h-8.0762v6.0644h-2.2168v-6.0644h-8.0371v-10.957h2.1387zM280.8029,187.6401c1.54947,-0.71613 3.0306,-1.9173 4.4434,-3.6035l1.7969,1.0449c-1.3932,1.76433 -2.93943,3.15107 -4.6387,4.1602zM297.6389,188.8999c-0.99607,-1.22393 -2.49347,-2.50973 -4.4922,-3.8574l1.6797,-1.1816c1.569,0.90493 3.1087,2.09307 4.6191,3.5644z" fill="#ffffff" stroke-width="1"/><path d="M311.52,175.12c-0.05207,0.33854 -0.11066,0.66406 -0.17578,0.97656h8.1445v1.5234h-8.5254c-0.013,0.0456 -0.03253,0.11721 -0.0586,0.21484c-0.02607,0.09115 -0.09443,0.31901 -0.20508,0.68359h6.0938v7.7442h-11.123v-7.7442h2.8516c0.07813,-0.28645 0.15625,-0.58593 0.23438,-0.89843h-8.2617v-1.5234h8.5938c0.03253,-0.16927 0.09113,-0.49479 0.17578,-0.97656h-7.0898v-4.1992h15.938v4.1992zM304.1958,172.3173v1.5039h2.7344v-1.5039zM316.0908,173.8212v-1.5039h-2.8027v1.5039zM308.7275,172.3173v1.5039h2.7441v-1.5039zM307.77047,179.8564v0.83984h6.8652v-0.83984zM307.77047,181.8974v0.85938h6.8652v-0.85938zM307.77047,183.9775v0.92773h6.8652v-0.92773zM303.97167,187.122h15.518v1.6016h-15.518v0.78125h-2.1973v-10.381h2.1973z" fill="#ffffff" stroke-width="1"/><path d="M336.28,181.94c-0.80727,2.72133 -2.5488,4.94463 -5.2246,6.6699l-1.3965,-1.1914c2.3698,-1.45833 3.97787,-3.2845 4.8242,-5.4785h-1.123c-1.0156,1.9206 -2.45767,3.37243 -4.3262,4.3555l-1.1523,-1.2207c1.60807,-0.7682 2.83853,-1.81313 3.6914,-3.1348h-1.4844c-0.41667,0.40365 -0.9147,0.81055 -1.4941,1.2207l-1.0352,-1.2012v2.6758h-6.2793v-13.506h6.2793v10.605c1.263,-0.8594 2.2298,-1.8913 2.9004,-3.0957h-1.543v-7.4024h9.2578v7.4024h-5.6738c-0.24739,0.52083 -0.54687,1.0254 -0.89844,1.5137h7.6172c-0.07813,3.52213 -0.29297,6.02863 -0.64453,7.5195c-0.15625,0.66406 -0.4655,1.12956 -0.92774,1.3965c-0.37109,0.21484 -0.91473,0.32226 -1.6309,0.32226c-0.63802,0 -1.37695,-0.04557 -2.2168,-0.13672l-0.38086,-1.9629c0.944,0.11068 1.68293,0.16602 2.2168,0.16602c0.47526,0 0.76823,-0.11393 0.8789,-0.3418c0.07161,-0.14974 0.14648,-0.4069 0.22461,-0.77148c0.25391,-1.19793 0.41667,-2.66603 0.48828,-4.4043zM323.057,172.8677v2.2461h2.7832v-2.2461zM323.057,176.6763v2.2168h2.7832v-2.2168zM323.057,180.4165v2.4805h2.7832v-2.4805zM330.8988,172.8384v1.377h5.2344v-1.377zM330.8988,175.6509v1.4062h5.2344v-1.4062zM320.1368,188.1899c0.9896,-1.0026 1.72203,-2.1224 2.1973,-3.3594l1.6797,0.85938c-0.7096,1.75133 -1.4941,3.0469 -2.3535,3.8867zM327.1192,189.11763c-0.69013,-1.47133 -1.3835,-2.64647 -2.0801,-3.5254l1.416,-0.89843c0.944,1.0872 1.71223,2.16793 2.3047,3.2422z" fill="#ffffff" stroke-width="1"/><path d="M350.23,178.41v7.7344c0,0.5013 0.21485,0.80403 0.64454,0.9082c0.44271,0.11068 1.45507,0.16602 3.0371,0.16602c1.54293,0 2.5618,-0.07813 3.0566,-0.23438c0.27995,-0.09115 0.46224,-0.34505 0.54687,-0.76172c0.11068,-0.58593 0.16927,-1.2793 0.17578,-2.0801l2.041,0.57618c-0.10417,1.9206 -0.36784,3.1478 -0.79102,3.6816c-0.27995,0.35156 -0.70311,0.55989 -1.2695,0.625c-0.89193,0.09765 -2.4056,0.14648 -4.541,0.14648c-1.65367,0 -2.73767,-0.04557 -3.252,-0.13672c-0.77473,-0.13021 -1.26627,-0.47201 -1.4746,-1.0254c-0.10417,-0.29297 -0.15625,-0.6836 -0.15625,-1.1719v-7.7441l-1.8652,0.64453l-0.45899,-1.8945l2.3242,-0.80078v-5.2637h1.9824v4.5801l2.0996,-0.71289v-5.1465h1.9629v4.4629l3.2715,-1.123l1.0254,0.625v7.3144c0,0.50781 -0.12044,0.88541 -0.36133,1.1328c-0.27343,0.27343 -0.73243,0.41015 -1.377,0.41015c-0.52735,0 -1.08725,-0.04557 -1.6797,-0.13672l-0.32226,-1.8652c0.38411,0.09765 0.77475,0.14648 1.1719,0.14648c0.28646,0 0.46224,-0.05859 0.52734,-0.17578c0.06513,-0.09765 0.0977,-0.26041 0.0977,-0.48828v-4.6191l-2.3535,0.82031v7.9004h-1.9629v-7.2266zM343.0523,175.2166v-4.7168h2.0996v4.7168h1.8945v1.9824h-1.8945v6.2109c0.6836,-0.23437 1.36067,-0.47851 2.0312,-0.73242l0.18555,1.8848c-2.1094,0.96353 -4.2741,1.77083 -6.4941,2.4219l-0.6836,-2.0801c1.0026,-0.26041 1.8815,-0.50781 2.6367,-0.74218c0.09115,-0.03253 0.16602,-0.05533 0.22461,-0.0684v-6.8945h-2.4805v-1.9824z" fill="#ffffff" stroke-width="1"/><path d="M369.48,175.76c-0.0456,1.08727 -0.1107,2.0443 -0.19531,2.8711h7.8711c-0.09765,4.51827 -0.35156,7.4512 -0.76172,8.7988c-0.20833,0.67707 -0.5957,1.1458 -1.1621,1.4062c-0.44271,0.20182 -1.09051,0.30273 -1.9434,0.30273c-0.89847,0 -1.91733,-0.06836 -3.0566,-0.20507l-0.38085,-2.1973c1.52993,0.21485 2.6074,0.32227 3.2324,0.32227c0.52734,0 0.86264,-0.14974 1.0059,-0.44922c0.34505,-0.7292 0.58593,-2.74093 0.72265,-6.0352h-5.8105c-0.21485,1.17187 -0.51758,2.1875 -0.90821,3.0469c-1.08727,2.37627 -2.90367,4.26103 -5.4492,5.6543l-1.543,-1.7188c2.55207,-1.32813 4.23827,-3.06967 5.0586,-5.2246c0.54687,-1.4388 0.90167,-3.62957 1.0644,-6.5723h-6.4648v-2.002h7.9785v-3.2617h2.2559v3.2617h8.2422v2.002z" fill="#ffffff" stroke-width="1"/></g></g></svg>