<?xml version="1.0" encoding="UTF-8"?>
<svg width="480" height="360" version="1.1" viewBox="0 0 480 360" xmlns="http://www.w3.org/2000/svg">
 <g dominant-baseline="central" fill="#fff" aria-label="インドシナ半島付近">
  <path d="m248.21 188.63v-10.02q-2.9688 1.9922-6.7773 3.3594l-1.1816-1.9824q4.3262-1.4551 7.5879-3.75 3.2031-2.2559 5.7031-5.166l1.8848 1.1816q-2.2168 2.5488-4.9414 4.6777v11.699z" dominant-baseline="central"/>
  <path d="m264.35 176.36q-3.0859-1.377-6.416-2.207l0.68359-2.0996q3.8574 0.87891 6.4746 2.1875zm-6.1719 9.7168q4.834-0.41016 7.4023-1.7285 3.0274-1.5625 4.6484-4.7949 1.0547-2.0898 1.709-5.4688l1.875 1.377q-0.79101 3.6133-1.9141 5.7422-2.0312 3.877-6.2109 5.6152-2.6367 1.0938-7.0508 1.5625z" dominant-baseline="central"/>
  <path d="m277.65 171.05h2.2754v5.8008q5.8301 1.8066 9.6582 3.6816l-1.0938 2.0996q-3.6719-1.8652-8.5645-3.5449v9.7266h-2.2754zm8.5645 5.2637q-0.59571-1.5527-1.9824-3.623l1.5137-0.55664q1.2109 1.6699 2.0215 3.5547zm2.793-0.64453q-0.73243-1.8945-1.9531-3.6328l1.4551-0.47852q1.1035 1.3379 1.9824 3.3984z" dominant-baseline="central"/>
  <path d="m300.19 175.67q-2.8809-1.2891-5.8789-2.1582l0.63477-1.9336q3.3789 0.83984 5.9277 2.0508zm-2.002 5q-2.4023-1.0547-5.8789-2.1582l0.83984-1.9531q2.9883 0.79102 5.8008 2.0996zm-4.6191 5.3809q3.9941-0.33203 6.2598-1.2109 3.3496-1.2793 5.2637-4.5703 1.2793-2.1973 2.0215-5.5566l1.9727 1.1426q-0.94726 4.209-2.6465 6.709-1.9922 2.9199-5.5566 4.3164-2.5098 0.96679-6.6895 1.3574z" dominant-baseline="central"/>
  <path d="m318.29 171.04h2.2363v4.5801h7.4024v2.041h-7.4024q-0.01 2.9688-0.3125 4.4531-0.94726 4.6484-6.0644 6.8848l-1.377-1.8164q3.4082-1.4062 4.6289-3.8379 0.64453-1.2988 0.80078-3.0762 0.0781-0.9082 0.0879-2.6074h-7.8027v-2.041h7.8027z" dominant-baseline="central"/>
  <path d="m337.86 177.31v-6.8164h2.1973v6.8164h7.4414v1.9434h-7.4414v2.7734h8.4668v1.9824h-8.4668v5.4883h-2.1973v-5.4883h-8.3398v-1.9824h8.3398v-2.7734h-7.3047v-1.9434zm-4.2774-0.63476q-1.2109-2.6856-2.5391-4.4629l2.041-0.9961q1.5039 2.0703 2.6367 4.4727zm8.5742-0.76172q1.543-2.3438 2.4609-4.9219l2.2852 0.89844q-1.1035 2.4219-2.7832 4.8633z" dominant-baseline="central"/>
  <path d="m356.77 171.98q0.36133-0.86914 0.58594-1.6602l2.3828 0.32226q-0.3418 0.81055-0.625 1.3379h6.5039v6.3672h-11.797v0.98633h14.697v1.582h-14.697v0.99609h14.014q-0.12695 4.4727-0.56641 6.0352-0.2832 0.99609-1.0644 1.3184-0.55664 0.23437-1.6992 0.23437-1.1719 0-2.1875-0.14648l-0.39062-1.6406h-9.7852v1.084h-2.0996v-4.6973h2.0996v2.0117h3.3594v-2.6367h-3.8379v-11.494zm4.1504 14.131v-2.0117h2.0215v3.3984q0.81055 0.0781 1.3477 0.0781 0.66406 0 0.83008-0.38085 0.32226-0.7129 0.50781-3.7207h-8.0273v2.6367zm-7.0996-12.627v0.96679h9.6387v-0.96679zm0 2.3633v1.0644h9.6387v-1.0644z" dominant-baseline="central"/>
  <path d="m374.46 175.96v13.545h-2.1191v-10.029q-0.79102 1.1133-1.8359 2.3047l-1.1035-2.0996q1.9824-2.1973 3.3984-5.1172 0.85938-1.7676 1.7188-4.2188l2.041 0.55664q-0.88867 2.6758-2.0996 5.0586zm11.123-0.85937h2.9394v1.9629h-2.9394v10.254q0 1.2891-0.625 1.7188-0.45899 0.32227-1.7285 0.32227-1.5527 0-3.1836-0.17578l-0.41992-2.1387q1.7383 0.2539 3.2422 0.2539 0.41016 0 0.49805-0.17578 0.0586-0.12695 0.0586-0.41992v-9.6387h-7.9883v-1.9629h7.9883v-4.2578h2.1582zm-6.1816 9.4629q-1.1035-2.9395-2.7246-5.3613l1.8652-1.084q1.7578 2.5879 2.8223 5.3027z" dominant-baseline="central"/>
  <path d="m394.54 185.06q0.78125 0.90821 1.7578 1.3477 1.6016 0.72266 4.1992 0.72266h8.3203q-0.35156 0.66406-0.6543 1.9043h-7.7637q-3.3594 0-5.1465-1.0547-0.73243-0.43946-1.6113-1.4356-0.0684 0.0781-0.16602 0.19531-1.4355 1.6992-2.8516 2.7734l-1.1816-2.002q1.5527-0.92774 2.998-2.0996v-4.8242h-2.8418v-1.9238h4.9414zm2.5391-12.959 0.51758-0.0391q4.5215-0.3125 8.125-1.3379l1.5234 1.7188q-3.7891 0.99609-8.0859 1.3476v2.5293h9.043v1.9043h-3.2812v7.959h-2.1582v-7.959h-3.6035q-0.0488 3.1348-0.46875 4.9902-0.38086 1.709-1.25 3.0664l-1.7969-1.3574q0.9668-1.5039 1.2402-3.7305 0.19531-1.5332 0.19531-4.1699zm-3.6133 3.8184q-1.4941-2.1094-3.2227-3.7793l1.6016-1.2793q1.6797 1.4062 3.3789 3.5742z" dominant-baseline="central"/>
 </g>
</svg>
