<svg version="1.1" xmlns="http://www.w3.org/2000/svg" xmlns:xlink="http://www.w3.org/1999/xlink" width="168.1" height="38.441" viewBox="0,0,168.1,38.441"><g transform="translate(-240,-180)"><g data-paper-data="{&quot;isPaintingLayer&quot;:true}" stroke="none" stroke-linecap="butt" stroke-linejoin="miter" stroke-miterlimit="10" stroke-dasharray="" stroke-dashoffset="0" style="mix-blend-mode: normal"><path d="M248,180h152.1c4.432,0 8,3.568 8,8v22.441c0,4.432 -3.568,8 -8,8h-152.1c-4.432,0 -8,-3.568 -8,-8v-22.441c0,-4.432 3.568,-8 8,-8z" fill-opacity="0.7" fill="#000000" fill-rule="evenodd" stroke-width="0"/><g fill="#ffffff" fill-rule="nonzero" stroke-width="1"><path d="M250.1573,189.78205v2.55908c0,0.16587 0.06563,0.26604 0.1969,0.3005c0.13524,0.03663 0.44451,0.05495 0.92781,0.05495c0.47136,0 0.78262,-0.02584 0.93377,-0.07753c0.08552,-0.03018 0.14121,-0.11419 0.16706,-0.25204c0.03382,-0.19387 0.05173,-0.42328 0.05371,-0.68825l0.62351,0.19064c-0.03184,0.63548 -0.11239,1.04153 -0.24165,1.21814c-0.08552,0.11633 -0.2148,0.18527 -0.38783,0.20681c-0.27247,0.03233 -0.7349,0.0485 -1.38728,0.0485c-0.50518,0 -0.83632,-0.01509 -0.99342,-0.04527c-0.23668,-0.04308 -0.38684,-0.15618 -0.45048,-0.33928c-0.03184,-0.09694 -0.04775,-0.22619 -0.04775,-0.38774v-2.56241l-0.56981,0.21326l-0.14022,-0.62686l0.71003,-0.26496v-1.74161h0.6056v1.51547l0.64142,-0.23587v-1.7029h0.59964v1.47665l0.99938,-0.37159l0.31325,0.2068v2.42015c0,0.16802 -0.03679,0.29297 -0.11038,0.37483c-0.08353,0.09047 -0.22375,0.13571 -0.42065,0.13571c-0.1611,0 -0.33214,-0.01509 -0.51312,-0.04527l-0.09845,-0.61716c0.11735,0.03233 0.23668,0.0485 0.35799,0.0485c0.08751,0 0.14121,-0.01939 0.1611,-0.05818c0.01986,-0.03233 0.02979,-0.08618 0.02979,-0.16156v-1.52837l-0.71898,0.27142v2.61403h-0.59964v-2.39111zM247.96454,188.72543v-1.56063h0.64141v1.56063h0.57876v0.65594h-0.57876v2.05507c0.20883,-0.07755 0.41567,-0.15833 0.62053,-0.24234l0.05669,0.62363c-0.64441,0.31881 -1.3057,0.58593 -1.98387,0.80134l-0.20884,-0.68825c0.30629,-0.08617 0.57478,-0.16803 0.80549,-0.24557c0.02786,-0.01075 0.05073,-0.01828 0.0686,-0.02258v-2.28121h-0.75776v-0.65594z"/><path d="M255.86475,188.03368v-0.27789h-1.86453v-0.46206h4.40338v0.46206h-1.90335v0.27789h2.47015v1.15996h-0.64737v-0.74318h-1.82283v1.25696h-0.63544v-1.25696h-1.78997v0.74318h-0.64142v-1.15996zM257.97689,192.61879c0.30429,0.12494 0.68415,0.22403 1.13957,0.29727l-0.34905,0.54931c-0.63843,-0.11848 -1.16251,-0.32205 -1.57224,-0.6107c-0.40771,-0.28866 -0.72494,-0.64732 -0.95166,-1.07598h-0.65932v0.99522c0.43954,-0.06674 0.84726,-0.13783 1.22316,-0.21326l0.0418,0.48145c-0.70008,0.18095 -1.50059,0.3382 -2.40155,0.47176l-0.17601,-0.56869c0.31225,-0.03663 0.52605,-0.06248 0.64141,-0.07753l0.03584,-0.00624v-1.08243h-0.65334c-0.02786,0.37913 -0.07361,0.68179 -0.13724,0.90798c-0.07557,0.27142 -0.19689,0.52453 -0.36396,0.75934l-0.53102,-0.475c0.19491,-0.27357 0.31623,-0.59346 0.36396,-0.95967c0.02588,-0.19818 0.03882,-0.44483 0.03882,-0.73995v-1.37008h5.1492v0.42976h-4.50773v0.99198h4.76428v0.4556h-0.67722l0.37888,0.27142c-0.22474,0.20249 -0.49025,0.39206 -0.79654,0.5687zM257.51149,192.36998c0.2864,-0.2111 0.51412,-0.40821 0.68317,-0.59132h-1.30368c0.17104,0.23696 0.37789,0.43407 0.62053,0.59132zM254.33723,188.68965h1.27092v0.36513h-1.27092zM254.33723,189.2842h1.27092v0.37159h-1.27092zM256.75665,188.68965h1.30964v0.36513h-1.30964zM256.75665,189.2842h1.30964v0.37159h-1.30964zM254.66238,190.60256h3.71426v0.42328h-3.71426z"/><path d="M260.75547,188.39792v5.05687h-0.62351v-6.28791h0.62351v0.97906l0.2864,-0.2585c0.17303,0.32527 0.31026,0.6387 0.4117,0.94028l-0.40573,0.43622c-0.10541,-0.36405 -0.20287,-0.65271 -0.29237,-0.86597zM263.50312,187.59657h1.54534v0.48469h-1.54534v0.3102h1.33356v0.46206h-1.33356v0.31989h1.74221v0.517h-4.02145v-0.517h1.66169v-0.31989h-1.29475v-0.46206h1.29475v-0.3102h-1.47077v-0.48469h1.47077v-0.42975h0.61754zM264.74415,190.03295v2.83705c0,0.19818 -0.04375,0.34251 -0.13126,0.43298c-0.08552,0.08832 -0.2317,0.13248 -0.43854,0.13248c-0.24463,0 -0.49622,-0.01832 -0.75478,-0.05495l-0.08648,-0.58162c0.26452,0.03448 0.47434,0.05172 0.62947,0.05172c0.07956,0 0.12729,-0.02154 0.1432,-0.06463c0.00993,-0.02588 0.01489,-0.06573 0.01489,-0.11956v-0.41683h-1.83176v1.20523h-0.62352v-3.42182zM262.28889,190.50795v0.37804h1.83176v-0.37804zM262.28889,191.36099v0.39744h1.83176v-0.39744zM259.28768,190.54026c0.08949,-0.44806 0.15413,-1.02752 0.19391,-1.73839l0.01489,-0.26495l0.50716,0.05172c-0.02389,0.92199 -0.0935,1.67057 -0.20883,2.24573z"/><path d="M266.71274,187.83594v-0.67532h0.62351v0.67532h0.92781v0.5687h-0.92781v0.55577h1.05607v0.57516h-0.35501c-0.06361,0.25634 -0.14913,0.52776 -0.25657,0.81426h0.57578v0.56223h-1.02033v0.59778h0.98151v0.57515h-0.98151v1.36353h-0.62351v-1.36353h-1.05309v-0.57515h1.05309v-0.59778h-1.10085v-0.56223h0.54893c-0.06367,-0.2865 -0.14124,-0.55793 -0.2327,-0.81426h-0.43854v-0.57516h1.22316v-0.55577h-0.97257v-0.5687zM267.45558,189.53561h-0.94869c0.06762,0.20464 0.14022,0.47606 0.21779,0.81426h0.49522c0.10342,-0.27573 0.18198,-0.54715 0.23568,-0.81426zM271.07433,187.39333v1.51224c0,0.18741 -0.03184,0.31989 -0.09551,0.39744c-0.07558,0.09262 -0.2337,0.13893 -0.47435,0.13893c-0.23468,0 -0.46937,-0.01075 -0.70405,-0.03226l-0.10144,-0.58163c0.33015,0.03878 0.53998,0.05818 0.62948,0.05818c0.09348,0 0.14022,-0.04416 0.14022,-0.13248v-0.77872h-1.30666v1.87732h1.69148l0.35501,0.32959c-0.1074,0.68502 -0.3033,1.29681 -0.58771,1.83538l-0.03286,0.06463c0.21877,0.27358 0.49224,0.52346 0.8204,0.74965l-0.33413,0.60423c-0.31424,-0.21972 -0.59467,-0.48252 -0.84129,-0.78841c-0.21281,0.29296 -0.45247,0.56869 -0.71898,0.82719l-0.35203,-0.52991v0.50406h-0.6056v-6.05531zM269.16205,190.43395v2.44284c0.24463,-0.18094 0.48031,-0.43513 0.70704,-0.76256c-0.30429,-0.50838 -0.5181,-1.06845 -0.64141,-1.68021zM270.20024,191.54229c0.17701,-0.37052 0.29236,-0.73997 0.34606,-1.10835h-0.76969c0.09746,0.4136 0.23867,0.78305 0.42363,1.10835z"/><path d="M272.5451,188.35629h0.91587v0.99198h-0.91587zM272.5451,191.26765h0.91587v0.99198h-0.91587z"/><path d="M274.76467,187.82554h4.67482l0.38485,0.3522c-0.11138,0.45022 -0.25656,0.82612 -0.43556,1.1277c-0.33612,0.57084 -0.83932,0.99736 -1.50959,1.27954l-0.37589,-0.55578c0.46341,-0.15079 0.84826,-0.42113 1.15456,-0.81103c0.18099,-0.23049 0.30728,-0.47391 0.37888,-0.73026h-4.27213zM276.67695,189.22143h0.68317v0.55577c0,0.83367 -0.08552,1.47776 -0.25657,1.93227c-0.21679,0.57731 -0.63844,1.04691 -1.26496,1.4088l-0.49224,-0.56223c0.43159,-0.22188 0.74682,-0.48684 0.94571,-0.79489c0.15315,-0.2391 0.25358,-0.49222 0.30131,-0.75934c0.05567,-0.30589 0.0835,-0.71627 0.0835,-1.23115z"/><path d="M282.59559,193.16433v-3.31525c-0.60461,0.43945 -1.29476,0.80997 -2.07044,1.11157l-0.36098,-0.65593c0.88104,-0.32097 1.65372,-0.73458 2.31805,-1.24083c0.65235,-0.49761 1.23309,-1.06739 1.74221,-1.70935l0.57578,0.39098c-0.45147,0.56223 -0.95464,1.07814 -1.5095,1.54773v3.87099z"/><path d="M285.48775,187.90879h4.36754v4.89212h-4.47199v-0.67533h3.76192v-3.5414h-3.65757z"/><path d="M293.08808,189.1056c-0.62849,-0.30373 -1.28183,-0.54715 -1.96004,-0.73026l0.20883,-0.69471c0.78559,0.19388 1.44489,0.43514 1.97791,0.7238zM291.2026,192.32063c0.98449,-0.09047 1.73827,-0.28111 2.26136,-0.57193c0.61655,-0.34467 1.08989,-0.87352 1.42004,-1.58655c0.21479,-0.46099 0.38882,-1.06414 0.52208,-1.80947l0.57279,0.4556c-0.1611,0.79704 -0.356,1.43037 -0.58473,1.90001c-0.41368,0.85518 -1.04615,1.4745 -1.89739,1.85796c-0.53699,0.24126 -1.25497,0.41359 -2.15394,0.51699z"/><path d="M296.63361,187.95042c1.82978,-0.03018 3.55908,-0.0808 5.18792,-0.15187l0.03574,0.64302c-0.71795,0.03878 -1.27681,0.15726 -1.67659,0.35543c-0.38186,0.18957 -0.68815,0.45237 -0.91886,0.78841c-0.26253,0.38128 -0.39379,0.80565 -0.39379,1.27309c0,0.46529 0.14917,0.81427 0.4475,1.04694c0.34208,0.26496 0.86715,0.44699 1.57522,0.54608l-0.14022,0.72702c-0.9228,-0.13356 -1.57217,-0.39205 -1.94812,-0.77549c-0.40374,-0.40929 -0.6056,-0.91768 -0.6056,-1.52515c0,-0.55146 0.18297,-1.06629 0.54892,-1.5445c0.26651,-0.35113 0.63147,-0.63332 1.09489,-0.84658c-0.8214,0.03018 -1.88048,0.0808 -3.17724,0.15187zM300.97127,190.73898c-0.11734,-0.33821 -0.31523,-0.72164 -0.59367,-1.15029l0.46539,-0.18741c0.24861,0.37051 0.44849,0.74964 0.59965,1.13738zM301.77676,190.3997c-0.14121,-0.39637 -0.3381,-0.78195 -0.59069,-1.15674l0.44452,-0.17126c0.23269,0.30589 0.43058,0.67641 0.59367,1.11157z"/><path d="M306.31898,192.09241l0.0418,0.57839c-0.86316,0.32959 -1.8228,0.60101 -2.8789,0.81427l-0.22076,-0.64624c0.18298,-0.03018 0.44153,-0.07865 0.77566,-0.14541v-1.18265c-0.34407,0.18957 -0.75378,0.36944 -1.22912,0.53961l-0.34009,-0.57515c0.95662,-0.28004 1.68655,-0.63762 2.18978,-1.07275h-2.13011v-0.56224h2.55673v-0.48791h-1.93323v-0.54285h1.93323v-0.4556h-2.23744v-0.55578h2.23744v-0.63654h0.65334v0.63654h2.30316v0.55578h-2.30316v0.4556h1.99876v0.54285h-1.99876v0.48791h2.62235v0.56224h-0.71301l0.44153,0.32958c-0.27248,0.2865 -0.65435,0.59993 -1.14562,0.94028l-0.0686,0.0485c0.37391,0.37051 0.88107,0.6764 1.52151,0.91766l-0.40275,0.65594c-0.69412,-0.31881 -1.25199,-0.71948 -1.67361,-1.20201zM305.41504,190.4122c-0.19889,0.25204 -0.43855,0.47822 -0.71898,0.67856v1.45084c0.49125,-0.11848 0.98449,-0.25635 1.47971,-0.41359l0.13724,-0.04204c-0.40772,-0.48899 -0.70704,-1.04691 -0.89797,-1.67376zM306.50397,191.29432c0.35402,-0.27358 0.66428,-0.57085 0.93079,-0.89182h-1.4111c0.12729,0.32958 0.28739,0.62686 0.48031,0.89182z"/><path d="M311.92074,189.91734v2.86609c0,0.26065 -0.04873,0.43837 -0.14618,0.53315c-0.09149,0.08616 -0.26849,0.12924 -0.53102,0.12924c-0.29833,0 -0.58174,-0.02047 -0.85024,-0.0614l-0.12828,-0.68178c0.27844,0.04954 0.54495,0.07431 0.79952,0.07431c0.08552,0 0.13922,-0.01617 0.1611,-0.0485c0.01589,-0.02803 0.02383,-0.07434 0.02383,-0.13894v-2.67221h-2.56566v-0.64301h5.74886v0.64301zM309.39985,187.523h4.31383v0.63654h-4.31383zM308.64806,192.47965c0.42959,-0.48683 0.77566,-1.13415 1.0382,-1.94195l0.61755,0.25203c-0.30429,0.92414 -0.68716,1.6501 -1.1486,2.17787zM313.76737,192.87386c-0.41169,-0.9435 -0.76967,-1.6339 -1.07394,-2.0712l0.56086,-0.36189c0.43755,0.60962 0.81046,1.2731 1.11872,1.99044z"/><path d="M247.70713,196.36968h0.69511v3.53495h-0.69511zM250.77099,196.30183h0.69511v2.31035c0,0.81209 -0.06066,1.41632 -0.18198,1.81269c-0.10143,0.3382 -0.23966,0.60747 -0.41468,0.8078c-0.36396,0.42437 -0.94867,0.7378 -1.75413,0.94028l-0.34308,-0.6624c0.88104,-0.19388 1.44589,-0.51592 1.69456,-0.96613c0.15712,-0.2865 0.25159,-0.64839 0.28341,-1.08566c0.0139,-0.20249 0.02085,-0.48252 0.02085,-0.84012z"/><path d="M252.52099,196.76515h4.67482l0.38484,0.3522c-0.11138,0.45022 -0.25656,0.82612 -0.43555,1.1277c-0.33612,0.57084 -0.83932,0.99736 -1.50959,1.27954l-0.37589,-0.55578c0.46341,-0.15079 0.84826,-0.42114 1.15456,-0.81104c0.18099,-0.23049 0.30728,-0.47391 0.37887,-0.73025h-4.27213zM254.43327,198.16104h0.68318v0.55577c0,0.83367 -0.08552,1.47776 -0.25657,1.93227c-0.21679,0.57731 -0.63844,1.04691 -1.26496,1.4088l-0.49224,-0.56223c0.43158,-0.22188 0.74682,-0.48684 0.94571,-0.79489c0.15314,-0.23911 0.25358,-0.49222 0.30131,-0.75934c0.05567,-0.30589 0.0835,-0.71627 0.0835,-1.23115z"/><path d="M259.32381,196.59864h0.67125v1.1762c0,1.12659 -0.07757,1.94947 -0.2327,2.46864c-0.20485,0.68717 -0.63445,1.26018 -1.28879,1.71903l-0.45644,-0.57515c0.45346,-0.34467 0.77268,-0.70225 0.95764,-1.07275c0.15513,-0.31236 0.25756,-0.73134 0.30728,-1.25696c0.02786,-0.29727 0.0418,-0.72056 0.0418,-1.26986zM260.85127,196.41123h0.67124v4.59157c0.39579,-0.22188 0.74285,-0.53746 1.04118,-0.94675c0.32617,-0.44806 0.5698,-0.97906 0.7309,-1.593l0.52507,0.54931c-0.19889,0.63978 -0.47136,1.18587 -0.81742,1.63827c-0.43556,0.57085 -1.00637,1.01998 -1.71243,1.34739l-0.43854,-0.41036z"/><path d="M268.67288,196.96288l0.42661,0.37806c-0.27844,1.37865 -0.72991,2.44603 -1.35441,3.20213c-0.34607,0.4179 -0.79357,0.78409 -1.3425,1.09856c-0.38982,0.22188 -0.80846,0.39852 -1.25593,0.52991l-0.34606,-0.63654c1.02228,-0.28866 1.81585,-0.74965 2.3807,-1.38299c-0.4654,-0.45237 -0.97852,-0.85304 -1.53938,-1.20201l0.39082,-0.52345c0.54694,0.30804 1.06701,0.68717 1.56023,1.13738c0.38782,-0.67209 0.63146,-1.32263 0.73091,-1.95162h-2.10023c-0.4813,0.81209 -1.04814,1.43356 -1.70051,1.86441l-0.43854,-0.51376c0.63047,-0.41144 1.14856,-0.95538 1.55427,-1.63182c0.20883,-0.34467 0.37092,-0.71627 0.48628,-1.1148l0.64737,0.17125c-0.06563,0.19388 -0.13922,0.3856 -0.22076,0.57516z"/><path d="M271.96859,202.10394v-3.31525c-0.60462,0.43945 -1.29476,0.80997 -2.07044,1.11157l-0.36098,-0.65594c0.88104,-0.32097 1.65372,-0.73457 2.31805,-1.24083c0.65235,-0.49761 1.23309,-1.06739 1.74221,-1.70935l0.57577,0.39098c-0.45147,0.56223 -0.95464,1.07814 -1.5095,1.54773v3.87099z"/><path d="M274.55328,200.99039c0.13723,-0.00208 0.32617,-0.01287 0.56682,-0.03237c0.56682,-1.37865 1.08889,-2.89623 1.56619,-4.55275l0.68317,0.19387c-0.46938,1.58977 -0.97055,3.02552 -1.50354,4.30725c1.01037,-0.0797 1.90636,-0.17664 2.68798,-0.2908c-0.29435,-0.56223 -0.59367,-1.08137 -0.89797,-1.55741l0.58771,-0.40391c0.62649,0.9349 1.17642,1.92582 1.64978,2.97276l-0.67124,0.37804c-0.10939,-0.24988 -0.22972,-0.51053 -0.36098,-0.78195c-1.16148,0.21111 -2.54872,0.39852 -4.16173,0.56223z"/><path d="M282.73972,196.97329v-0.27789h-1.86453v-0.46206h4.40338v0.46206h-1.90335v0.27789h2.47015v1.15996h-0.64738v-0.74318h-1.82283v1.25696h-0.63545v-1.25696h-1.78997v0.74318h-0.64141v-1.15996zM284.85186,201.55841c0.30429,0.12495 0.68415,0.22404 1.13957,0.29728l-0.34904,0.54931c-0.63843,-0.11848 -1.16251,-0.32205 -1.57224,-0.6107c-0.40772,-0.28866 -0.72495,-0.64732 -0.95167,-1.07598h-0.65931v0.99522c0.43954,-0.06674 0.84726,-0.13783 1.22316,-0.21326l0.0418,0.48145c-0.70008,0.18095 -1.50059,0.3382 -2.40155,0.47176l-0.17602,-0.5687c0.31225,-0.03663 0.52606,-0.06248 0.64142,-0.07753l0.03584,-0.00624v-1.08243h-0.65334c-0.02786,0.37913 -0.07361,0.68179 -0.13723,0.90798c-0.07558,0.27142 -0.1969,0.52453 -0.36396,0.75934l-0.53103,-0.475c0.19491,-0.27357 0.31623,-0.59346 0.36396,-0.95967c0.02588,-0.19818 0.03882,-0.44483 0.03882,-0.73995v-1.37008h5.1492v0.42976h-4.50773v0.99198h4.76428v0.4556h-0.67721l0.37888,0.27142c-0.22474,0.20249 -0.49026,0.39206 -0.79654,0.56869zM284.38646,201.3096c0.2864,-0.2111 0.51412,-0.40821 0.68317,-0.59132h-1.30368c0.17104,0.23696 0.37789,0.43407 0.62053,0.59132zM281.2122,197.62927h1.27092v0.36513h-1.27092zM281.2122,198.22383h1.27092v0.37158h-1.27092zM283.63162,197.62927h1.30964v0.36513h-1.30964zM283.63162,198.22383h1.30964v0.37158h-1.30964zM281.53735,199.54218h3.71417v0.42328h-3.71417z"/><path d="M289.65784,196.68189h2.3389v0.54285h-1.32463v0.53638h1.24103v0.52346h-1.24103v0.9629h-2.40155v-0.9629h-0.97853v0.601c0,0.97583 -0.04773,1.74702 -0.1432,2.31358c-0.07359,0.43083 -0.19292,0.82397 -0.358,1.17943l-0.54296,-0.4653c0.15115,-0.35543 0.25457,-0.78951 0.31026,-1.30223c0.04971,-0.45021 0.07456,-1.02537 0.07456,-1.72548v-2.20368h2.35975v-0.58162h0.66528zM287.29204,197.22474v0.53638h0.97853v-0.53638zM288.90598,197.22474v0.53638h1.13063v-0.53638zM288.90598,198.28459v0.50084h1.13063v-0.50084zM289.5981,201.67738c-0.57478,0.32312 -1.30471,0.5687 -2.18978,0.73672l-0.31027,-0.59454c0.83133,-0.10771 1.48269,-0.2725 1.95408,-0.49437c-0.40374,-0.31666 -0.74881,-0.69257 -1.03522,-1.1277h-0.4117v-0.56223h3.49346l0.31325,0.28434c-0.29634,0.49331 -0.71898,0.95753 -1.26794,1.39266c0.47136,0.20464 1.11375,0.35543 1.92718,0.45237l-0.34904,0.61069c-0.77963,-0.11416 -1.48768,-0.34681 -2.12415,-0.69795zM288.71207,200.1975c0.24065,0.30589 0.53302,0.57516 0.87709,0.8078c0.38782,-0.27142 0.68715,-0.54069 0.89797,-0.8078z"/><path d="M293.30907,197.29591h0.91587v0.99198h-0.91587zM293.30907,200.20726h0.91587v0.99198h-0.91587z"/><path d="M297.56564,199.27324c-0.01986,1.36144 -0.08151,2.22526 -0.18496,2.59145c-0.05368,0.18741 -0.1392,0.31881 -0.25657,0.39421c-0.10938,0.07109 -0.26551,0.10663 -0.46838,0.10663c-0.19093,0 -0.4276,-0.01832 -0.71002,-0.05495l-0.12232,-0.64302c0.33214,0.04524 0.56484,0.06785 0.69809,0.06785c0.13922,0 0.22772,-0.03878 0.26551,-0.11633c0.06961,-0.14002 0.12331,-0.72163 0.16111,-1.74484h-0.83235c-0.00384,0.01506 -0.00673,0.03337 -0.00865,0.05495c-0.01191,0.08401 -0.03379,0.21326 -0.06563,0.38775l-0.58473,-0.09689c0.12331,-0.9392 0.19889,-1.74484 0.22673,-2.41692h1.21423v-0.81104h-1.39919v-0.62363h1.9928v2.03571h-1.24699l-0.01489,0.27466c-0.01191,0.18741 -0.02684,0.38559 -0.04478,0.59454zM299.12884,197.9937l-0.11037,0.00937c-0.33811,0.03018 -0.7498,0.05925 -1.23508,0.08721l-0.14618,-0.62362c0.10938,-0.00208 0.20087,-0.00416 0.27446,-0.00624c0.04176,0 0.09547,-0.00104 0.16111,-0.00312c0.30827,-0.46745 0.56682,-0.92952 0.77566,-1.38621l0.62351,0.15833c-0.20286,0.37913 -0.45147,0.78087 -0.74582,1.20523l0.2327,-0.00624c0.38782,-0.0129 0.8204,-0.03767 1.29772,-0.07431l-0.05073,-0.07108c-0.11933,-0.17664 -0.26253,-0.36836 -0.4296,-0.57516l0.50119,-0.28758c0.44949,0.54285 0.78559,1.03507 1.00832,1.47665l-0.51909,0.3522c-0.08353,-0.17448 -0.15513,-0.3145 -0.2148,-0.42006c-0.30429,0.04524 -0.57677,0.08078 -0.81742,0.10663v0.63654h1.27687v1.85151h-1.27687v1.07921c0.18496,-0.02151 0.38186,-0.0452 0.59069,-0.07108l0.06563,-0.00937c-0.0895,-0.21111 -0.18795,-0.41576 -0.29535,-0.61394l0.55489,-0.23911c0.25657,0.42437 0.49125,0.93813 0.70406,1.54128l-0.58175,0.3102c-0.0716,-0.21542 -0.13226,-0.38668 -0.18198,-0.51377l-0.22374,0.03882c-0.83927,0.14864 -1.70243,0.26281 -2.58949,0.34252l-0.16408,-0.63332c0.47732,-0.01943 0.97255,-0.04957 1.48567,-0.09044l0.02979,-0.00312v-1.13738h-1.24103v-1.85151h1.24103zM299.12884,199.11495h-0.68615v0.7658h0.68615zM299.73446,199.11495v0.7658h0.70107v-0.7658z"/><path d="M304.12824,196.97329v-0.27789h-1.86453v-0.46206h4.40338v0.46206h-1.90335v0.27789h2.47015v1.15996h-0.64737v-0.74318h-1.82283v1.25696h-0.63545v-1.25696h-1.78997v0.74318h-0.64141v-1.15996zM306.24038,201.55841c0.30429,0.12495 0.68415,0.22404 1.13957,0.29728l-0.34905,0.54931c-0.63842,-0.11848 -1.16247,-0.32205 -1.57214,-0.6107c-0.40772,-0.28866 -0.72495,-0.64732 -0.95167,-1.07598h-0.65931v0.99522c0.43954,-0.06674 0.84726,-0.13783 1.22316,-0.21326l0.0418,0.48145c-0.70008,0.18095 -1.50059,0.3382 -2.40155,0.47176l-0.17602,-0.5687c0.31225,-0.03663 0.52605,-0.06248 0.64141,-0.07753l0.03584,-0.00624v-1.08243h-0.65334c-0.02786,0.37913 -0.07361,0.68179 -0.13723,0.90798c-0.07558,0.27142 -0.1969,0.52453 -0.36397,0.75934l-0.53102,-0.475c0.19491,-0.27357 0.31623,-0.59346 0.36396,-0.95967c0.02588,-0.19818 0.03882,-0.44483 0.03882,-0.73995v-1.37008h5.1492v0.42976h-4.50773v0.99198h4.76428v0.4556h-0.67721l0.37887,0.27142c-0.22474,0.20249 -0.49025,0.39206 -0.79654,0.56869zM305.77499,201.3096c0.2864,-0.2111 0.51412,-0.40821 0.68317,-0.59132h-1.30368c0.17104,0.23696 0.37789,0.43407 0.62053,0.59132zM302.60072,197.62927h1.27092v0.36513h-1.27092zM302.60072,198.22383h1.27092v0.37158h-1.27092zM305.02014,197.62927h1.30964v0.36513h-1.30964zM305.02014,198.22383h1.30964v0.37158h-1.30964zM302.92587,199.54218h3.71417v0.42328h-3.71417z"/><path d="M308.06773,196.59864h4.52868v0.66241h-2.52386v1.37331h3.00121v0.66241h-3.00121v1.60268c0,0.12064 0.01989,0.20142 0.05967,0.24235c0.07757,0.08401 0.44352,0.12602 1.09787,0.12602c0.46341,0 0.93477,-0.01724 1.41408,-0.05172v0.72702c-0.49721,0.02803 -0.96758,0.04204 -1.4111,0.04204c-0.65632,0 -1.07596,-0.02154 -1.25891,-0.06463c-0.25657,-0.05814 -0.42661,-0.18523 -0.51014,-0.38128c-0.04971,-0.11417 -0.07456,-0.26173 -0.07456,-0.44268v-1.79979h-1.62595v-0.66241h1.62595v-1.37331h-1.32155z"/><path d="M314.26521,197.15021h4.10504v0.69471h-4.10504zM313.6596,200.85h5.31619v0.70117h-5.31619z"/><path d="M323.90254,196.96288l0.42662,0.37806c-0.27844,1.37865 -0.72991,2.44603 -1.35441,3.20213c-0.34606,0.4179 -0.79356,0.78409 -1.3425,1.09856c-0.38982,0.22188 -0.80846,0.39852 -1.25593,0.52991l-0.34607,-0.63654c1.02228,-0.28866 1.81585,-0.74965 2.3807,-1.38299c-0.4654,-0.45237 -0.97852,-0.85304 -1.53938,-1.20201l0.39082,-0.52345c0.54694,0.30804 1.06701,0.68717 1.56023,1.13738c0.38782,-0.67209 0.63146,-1.32263 0.7309,-1.95162h-2.10023c-0.48131,0.81209 -1.04815,1.43356 -1.70051,1.86441l-0.43854,-0.51376c0.63047,-0.41144 1.14856,-0.95538 1.55427,-1.63182c0.20883,-0.34467 0.37092,-0.71627 0.48628,-1.1148l0.64737,0.17125c-0.06563,0.19388 -0.13922,0.3856 -0.22076,0.57516z"/><path d="M328.0438,201.40667c1.1675,-0.31881 1.75125,-1.0437 1.75125,-2.17465c0,-0.4933 -0.11734,-0.91766 -0.35203,-1.27309c-0.26253,-0.40067 -0.66231,-0.65809 -1.19933,-0.77226c-0.11735,0.99949 -0.27745,1.81807 -0.48031,2.45574c-0.13922,0.44591 -0.31225,0.86704 -0.5191,1.26341c-0.29833,0.56439 -0.63745,0.84659 -1.01735,0.84659c-0.28242,0 -0.53401,-0.13787 -0.75478,-0.41361c-0.14121,-0.17448 -0.25557,-0.38882 -0.34308,-0.64301c-0.11535,-0.32958 -0.17303,-0.68394 -0.17303,-1.06308c0,-0.61393 0.15613,-1.17938 0.46838,-1.69634c0.31623,-0.52777 0.72693,-0.9112 1.2321,-1.15029c0.36794,-0.17449 0.77168,-0.26174 1.21125,-0.26174c0.68618,0 1.2689,0.19926 1.74817,0.59778c0.58871,0.48899 0.88306,1.18154 0.88306,2.07765c0,1.50145 -0.70107,2.45359 -2.1032,2.85641zM327.59631,197.16082c-0.35203,0.04308 -0.64638,0.14541 -0.88306,0.30696c-0.15115,0.10555 -0.30131,0.24557 -0.45048,0.42006c-0.41368,0.49546 -0.62053,1.06954 -0.62053,1.72225c0,0.47606 0.08751,0.84874 0.26252,1.11802c0.1074,0.16587 0.21381,0.2488 0.31921,0.2488c0.1432,0 0.3043,-0.17125 0.4833,-0.51376c0.43755,-0.83367 0.73389,-1.93445 0.88903,-3.30235z"/><path d="M331.95446,197.64974v-0.70117h-0.97257v-0.601h3.06684v0.601h-0.93079v0.70117h0.8204v4.66587h-0.54892v-0.3102h-1.67063v0.37806h-0.56682v-4.73373zM332.38704,197.64974h0.29236v-0.70117h-0.29236zM331.99921,198.20552h-0.28043v1.44116c0.16707,-0.33174 0.26054,-0.81213 0.28043,-1.44116zM332.38108,198.20552c-0.00192,0.78413 -0.12623,1.41528 -0.37292,1.89345l-0.28938,-0.28435v0.54931h1.67063v-0.63009h-0.34905c-0.13922,0 -0.23469,-0.02907 -0.2864,-0.08721c-0.04971,-0.05599 -0.07456,-0.15185 -0.07456,-0.28758v-1.15351zM333.06425,198.20552v0.90797c0,0.06029 0.00794,0.09691 0.02383,0.10987c0.0139,0.01075 0.04672,0.01613 0.09845,0.01613h0.20286v-1.03399zM331.71877,200.88095v0.5493h1.67063v-0.5493zM334.98845,199.2201v2.14873c0,0.11632 0.03184,0.18526 0.09551,0.2068c0.09348,0.03233 0.24563,0.0485 0.45645,0.0485c0.18894,0 0.32418,-0.02047 0.40573,-0.0614c0.06563,-0.03233 0.10839,-0.11203 0.12828,-0.23911c0.01986,-0.13571 0.03677,-0.39421 0.05073,-0.77549l0.00577,-0.13248l0.64141,0.18095c-0.01589,0.55577 -0.04471,0.94242 -0.08648,1.15996c-0.05765,0.29512 -0.22372,0.46315 -0.49821,0.50407c-0.18298,0.02588 -0.4654,0.03882 -0.84726,0.03882c-0.40175,0 -0.66726,-0.04416 -0.79654,-0.13248c-0.12331,-0.08401 -0.18496,-0.26388 -0.18496,-0.53961v-3.03739h1.53342v-1.58009h-1.605v-0.63655h2.2285v2.84673z"/><path d="M338.47863,200.00173v1.17297c0,0.17018 0.05768,0.2725 0.17303,0.30696c0.17104,0.05169 0.73689,0.07753 1.69753,0.07753c0.85323,0 1.38426,-0.02692 1.59309,-0.08076c0.09944,-0.02588 0.16309,-0.08619 0.19093,-0.18095c0.03382,-0.10771 0.06066,-0.35867 0.08052,-0.75287l0.65931,0.21972c-0.02184,0.42436 -0.05365,0.71517 -0.09541,0.87243c-0.05368,0.20464 -0.15312,0.34358 -0.29833,0.41682c-0.10342,0.05169 -0.24662,0.08402 -0.4296,0.09699c-0.47136,0.03663 -1.08691,0.05495 -1.84666,0.05495c-1.06405,0 -1.69651,-0.02047 -1.89739,-0.0614c-0.22673,-0.04524 -0.37291,-0.15294 -0.43854,-0.32313c-0.03184,-0.08616 -0.04775,-0.19387 -0.04775,-0.32312v-3.31848l-0.02979,0.02581c-0.09149,0.07109 -0.19988,0.14972 -0.32518,0.23589l-0.40871,-0.53639c0.71,-0.42221 1.31063,-1.02429 1.80188,-1.80624l0.41766,0.31019h1.69753l0.31623,0.35544c-0.26253,0.40282 -0.53699,0.76578 -0.82339,1.08888h1.91228v2.14873zM338.47863,199.42657h1.28283v-0.97906h-1.28283zM340.40283,198.44751v0.97906h1.30964v-0.97906zM339.71071,197.85296c0.25656,-0.29081 0.47533,-0.57623 0.65632,-0.85627h-1.37824c-0.22076,0.29296 -0.48329,0.57839 -0.78759,0.85627z"/><path d="M348.28891,201.91661c-0.5887,0.06674 -1.1973,0.10012 -1.82581,0.10012c-0.92684,0 -1.57621,-0.06355 -1.94812,-0.19064c-0.27049,-0.09263 -0.48429,-0.23049 -0.64141,-0.41359c-0.18099,-0.21326 -0.27148,-0.47284 -0.27148,-0.77872c0,-0.40283 0.12729,-0.76471 0.38186,-1.08566c0.21679,-0.27358 0.56583,-0.545 1.04713,-0.81427c-0.27446,-0.66778 -0.52307,-1.42819 -0.74582,-2.28121l0.66527,-0.18742c0.20685,0.81855 0.42562,1.54235 0.65633,2.17142c0.76573,-0.38128 1.5782,-0.69902 2.43739,-0.95322l0.19989,0.65594c-0.94272,0.2585 -1.87949,0.62579 -2.81029,1.10189c-0.28839,0.14864 -0.49324,0.27035 -0.61456,0.36513c-0.35601,0.2822 -0.53401,0.59563 -0.53401,0.94029c0,0.29942 0.16507,0.50838 0.49522,0.62686c0.27446,0.09694 0.76571,0.14541 1.47375,0.14541c0.65434,0 1.30967,-0.04093 1.966,-0.12279z"/><path d="M351.60384,196.97329v-0.27789h-1.86453v-0.46206h4.40338v0.46206h-1.90335v0.27789h2.47015v1.15996h-0.64738v-0.74318h-1.82283v1.25696h-0.63545v-1.25696h-1.78997v0.74318h-0.64141v-1.15996zM353.71598,201.55841c0.30429,0.12495 0.68415,0.22404 1.13957,0.29728l-0.34904,0.54931c-0.63843,-0.11848 -1.16251,-0.32205 -1.57224,-0.6107c-0.40772,-0.28866 -0.72495,-0.64732 -0.95167,-1.07598h-0.65931v0.99522c0.43954,-0.06674 0.84726,-0.13783 1.22316,-0.21326l0.0418,0.48145c-0.70008,0.18095 -1.50059,0.3382 -2.40155,0.47176l-0.17602,-0.5687c0.31225,-0.03663 0.52606,-0.06248 0.64142,-0.07753l0.03574,-0.00624v-1.08243h-0.65334c-0.02786,0.37913 -0.07361,0.68179 -0.13723,0.90798c-0.07558,0.27142 -0.1969,0.52453 -0.36396,0.75934l-0.53103,-0.475c0.19491,-0.27357 0.31623,-0.59346 0.36396,-0.95967c0.02588,-0.19818 0.03882,-0.44483 0.03882,-0.73995v-1.37008h5.1492v0.42976h-4.50773v0.99198h4.76428v0.4556h-0.67721l0.37888,0.27142c-0.22474,0.20249 -0.49026,0.39206 -0.79654,0.56869zM353.25058,201.3096c0.2864,-0.2111 0.51412,-0.40821 0.68317,-0.59132h-1.30368c0.17104,0.23696 0.37789,0.43407 0.62053,0.59132zM350.07632,197.62927h1.27092v0.36513h-1.27092zM350.07632,198.22383h1.27092v0.37158h-1.27092zM352.49574,197.62927h1.30964v0.36513h-1.30964zM352.49574,198.22383h1.30964v0.37158h-1.30964zM350.40147,199.54218h3.71417v0.42328h-3.71417z"/><path d="M358.51235,196.68189h2.3389v0.54285h-1.32463v0.53638h1.24103v0.52346h-1.24103v0.9629h-2.40155v-0.9629h-0.97853v0.601c0,0.97583 -0.04773,1.74702 -0.1432,2.31358c-0.07359,0.43083 -0.19292,0.82397 -0.35799,1.17943l-0.54297,-0.4653c0.15115,-0.35543 0.25458,-0.78951 0.31027,-1.30223c0.04971,-0.45021 0.07456,-1.02537 0.07456,-1.72548v-2.20368h2.35975v-0.58162h0.66527zM356.14655,197.22474v0.53638h0.97853v-0.53638zM357.76049,197.22474v0.53638h1.13063v-0.53638zM357.76049,198.28459v0.50084h1.13063v-0.50084zM358.45261,201.67738c-0.57478,0.32312 -1.30471,0.5687 -2.18978,0.73672l-0.31026,-0.59454c0.83133,-0.10771 1.48269,-0.2725 1.95408,-0.49437c-0.40374,-0.31666 -0.74882,-0.69257 -1.03522,-1.1277h-0.4117v-0.56223h3.49346l0.31324,0.28434c-0.29634,0.49331 -0.71898,0.95753 -1.26794,1.39266c0.47136,0.20464 1.11375,0.35543 1.92718,0.45237l-0.34905,0.61069c-0.77963,-0.11416 -1.48768,-0.34681 -2.12415,-0.69795zM357.56657,200.1975c0.24065,0.30589 0.53302,0.57516 0.87709,0.8078c0.38783,-0.27142 0.68716,-0.54069 0.89797,-0.8078z"/><path d="M361.33725,196.76515h4.67482l0.38485,0.3522c-0.11138,0.45022 -0.25657,0.82612 -0.43556,1.1277c-0.33612,0.57084 -0.83932,0.99736 -1.50959,1.27954l-0.37589,-0.55578c0.46341,-0.15079 0.84826,-0.42114 1.15456,-0.81104c0.18099,-0.23049 0.30728,-0.47391 0.37887,-0.73025h-4.27213zM363.24953,198.16104h0.68317v0.55577c0,0.83367 -0.08552,1.47776 -0.25657,1.93227c-0.21679,0.57731 -0.63844,1.04691 -1.26496,1.4088l-0.49224,-0.56223c0.43158,-0.22188 0.74682,-0.48684 0.94571,-0.79489c0.15314,-0.23911 0.25358,-0.49222 0.30131,-0.75934c0.05567,-0.30589 0.0835,-0.71627 0.0835,-1.23115z"/><path d="M369.16818,202.10394v-3.31525c-0.60461,0.43945 -1.29476,0.80997 -2.07044,1.11157l-0.36097,-0.65594c0.88104,-0.32097 1.65372,-0.73457 2.31805,-1.24083c0.65235,-0.49761 1.23309,-1.06739 1.74221,-1.70935l0.57578,0.39098c-0.45147,0.56223 -0.95467,1.07814 -1.50959,1.54773v3.87099z"/><path d="M372.06995,196.84841h4.36754v4.89212h-4.47199v-0.67533h3.76192v-3.5414h-3.65757z"/><path d="M379.66066,198.0348c-0.62848,-0.30374 -1.28183,-0.54716 -1.96004,-0.73026l0.20883,-0.69471c0.78559,0.19388 1.44489,0.43514 1.97791,0.7238zM377.77518,201.24984c0.98449,-0.09048 1.73827,-0.28112 2.26136,-0.57193c0.61655,-0.34467 1.08989,-0.87352 1.42004,-1.58655c0.21479,-0.46099 0.38882,-1.06414 0.52208,-1.80947l0.57279,0.4556c-0.1611,0.79704 -0.35601,1.43037 -0.58473,1.90001c-0.41368,0.85518 -1.04615,1.4745 -1.89739,1.85796c-0.53699,0.24126 -1.25497,0.41359 -2.15394,0.51699z"/><path d="M383.2062,196.87963c1.82978,-0.03018 3.55908,-0.0808 5.18792,-0.15187l0.03584,0.64301c-0.71801,0.03878 -1.27687,0.15726 -1.67659,0.35544c-0.38186,0.18957 -0.68815,0.45237 -0.91886,0.78841c-0.26253,0.38128 -0.39379,0.80565 -0.39379,1.27309c0,0.4653 0.14917,0.81428 0.4475,1.04694c0.34209,0.26496 0.86716,0.44698 1.57522,0.54608l-0.14021,0.72702c-0.92286,-0.13356 -1.57224,-0.39206 -1.94812,-0.7755c-0.40374,-0.40929 -0.60561,-0.91767 -0.60561,-1.52515c0,-0.55146 0.18297,-1.06629 0.54892,-1.5445c0.26651,-0.35113 0.63147,-0.63332 1.09489,-0.84658c-0.8214,0.03018 -1.88048,0.0808 -3.17724,0.15187zM387.54395,199.66818c-0.11735,-0.33821 -0.31524,-0.72164 -0.59368,-1.15029l0.4654,-0.18741c0.2486,0.37051 0.44848,0.74964 0.59964,1.13738zM388.34944,199.3289c-0.14121,-0.39637 -0.33811,-0.78195 -0.5907,-1.15674l0.44452,-0.17126c0.2327,0.30589 0.43059,0.67641 0.59367,1.11157z"/><path d="M392.90117,201.03202l0.0418,0.57839c-0.86316,0.32958 -1.8228,0.60101 -2.8789,0.81427l-0.22076,-0.64625c0.18297,-0.03018 0.44152,-0.07865 0.77566,-0.1454v-1.18265c-0.34407,0.18957 -0.75378,0.36944 -1.22912,0.53961l-0.34009,-0.57515c0.95662,-0.28004 1.68655,-0.63762 2.18978,-1.07275h-2.13011v-0.56224h2.55673v-0.48791h-1.93313v-0.54285h1.93313v-0.4556h-2.23744v-0.55578h2.23744v-0.63654h0.65334v0.63654h2.30316v0.55578h-2.30316v0.4556h1.99886v0.54285h-1.99886v0.48791h2.62235v0.56224h-0.71301l0.44153,0.32958c-0.27248,0.2865 -0.65435,0.59993 -1.14562,0.94028l-0.0686,0.0485c0.37391,0.37051 0.88108,0.6764 1.52151,0.91766l-0.40275,0.65594c-0.69412,-0.31881 -1.25199,-0.71948 -1.67361,-1.20201zM391.99723,199.35181c-0.19888,0.25204 -0.43854,0.47822 -0.71898,0.67856v1.45084c0.49125,-0.11848 0.98449,-0.25635 1.47971,-0.41359l0.13723,-0.04204c-0.40771,-0.48899 -0.70704,-1.04691 -0.89797,-1.67376zM393.08617,200.23393c0.35402,-0.27357 0.66429,-0.57084 0.93079,-0.89181h-1.4111c0.12729,0.32958 0.28739,0.62685 0.48031,0.89181z"/><path d="M398.49332,198.84655v2.86609c0,0.26065 -0.04873,0.43836 -0.14618,0.53315c-0.09149,0.08616 -0.26849,0.12924 -0.53102,0.12924c-0.29833,0 -0.58174,-0.02047 -0.85024,-0.0614l-0.12828,-0.68178c0.27844,0.04954 0.54495,0.07431 0.79952,0.07431c0.08552,0 0.13922,-0.01617 0.1611,-0.0485c0.01589,-0.02803 0.02383,-0.07434 0.02383,-0.13893v-2.67221h-2.56566v-0.64301h5.74886v0.64301zM395.97243,196.45221h4.31383v0.63654h-4.31383zM395.22065,201.40886c0.42959,-0.48684 0.77566,-1.13415 1.0382,-1.94195l0.61754,0.25204c-0.30429,0.92414 -0.68716,1.6501 -1.1486,2.17787zM400.33996,201.80306c-0.41169,-0.9435 -0.76967,-1.6339 -1.07394,-2.0712l0.56086,-0.36189c0.43755,0.60962 0.81046,1.2731 1.11872,1.99044z"/><path d="M250.7242,206.85994c0.13922,0.07755 0.29932,0.17018 0.48031,0.27789l-0.37888,0.33282h1.79592l0.33711,0.36512c-0.44749,0.73029 -0.894,1.33022 -1.33952,1.79979l-0.6056,-0.38452c0.3918,-0.38774 0.70604,-0.77332 0.94272,-1.15674h-1.48567v2.53327c0,0.29296 -0.06663,0.48037 -0.19988,0.56223c-0.0895,0.05599 -0.25657,0.08398 -0.5012,0.08398c-0.32021,0 -0.67322,-0.02154 -1.05905,-0.06463l-0.14618,-0.72056c0.37192,0.06459 0.70207,0.09689 0.99044,0.09689c0.10939,0 0.17701,-0.01939 0.20286,-0.05818c0.01992,-0.03233 0.02988,-0.09157 0.02988,-0.17772v-2.25541h-2.50004v-0.62352h3.23393c-0.67221,-0.41791 -1.34445,-0.77119 -2.01673,-1.05985l0.48329,-0.41682c0.45147,0.19603 0.85022,0.38667 1.19626,0.57193c0.30629,-0.22619 0.57478,-0.44806 0.80549,-0.66563h-3.18916v-0.61394h4.05729l0.36695,0.38775c-0.52108,0.45452 -1.02127,0.84981 -1.50056,1.18588z"/><path d="M254.49073,207.23459c-0.25855,0.51053 -0.55788,0.92844 -0.89797,1.25373l-0.34308,-0.601c0.4455,-0.3662 0.82139,-0.86057 1.12765,-1.4831h-0.98747v-0.59454h1.10085v-0.78195h0.64141v0.78195h0.86217v0.59454h-0.86217v0.39422c0.35402,0.21972 0.66925,0.45236 0.94571,0.69794l-0.36098,0.5687c-0.18894,-0.22834 -0.38385,-0.43191 -0.58473,-0.6107v1.43794h-0.64141zM256.3225,208.78555c0.25457,0.2628 0.50517,0.57839 0.75179,0.94675l-0.53102,0.41037c-0.27446,-0.45883 -0.53998,-0.81642 -0.79654,-1.07275l0.42363,-0.31989v-3.48968h2.54769v3.52527zM256.77297,205.7902v0.49437h1.32761v-0.49437zM256.77297,206.78219v0.48791h1.32761v-0.48791zM256.77297,207.76125v0.49437h1.32761v-0.49437zM253.32727,210.76627c0.22872,-0.40498 0.40672,-0.9015 0.53401,-1.48955l0.62053,0.19064c-0.11138,0.69148 -0.30231,1.26987 -0.57279,1.73516zM254.95917,209.28317h0.65334v1.03076c0,0.13356 0.02985,0.21326 0.08955,0.23911c0.07557,0.03018 0.28441,0.04527 0.62649,0.04527c0.32617,0 0.54395,-0.01186 0.65334,-0.03559c0.07955,-0.01936 0.13027,-0.0689 0.15215,-0.14863c0.02985,-0.10771 0.04974,-0.30374 0.05967,-0.58809l0.65932,0.16479c-0.00794,0.32097 -0.02982,0.55038 -0.06563,0.68825c-0.04971,0.19603 -0.1233,0.32959 -0.22076,0.40068c-0.08353,0.06244 -0.20386,0.09906 -0.36098,0.10986c-0.32617,0.02151 -0.66128,0.03226 -1.00534,0.03226c-0.57876,0 -0.93178,-0.03662 -1.05905,-0.10986c-0.12132,-0.07109 -0.18198,-0.22188 -0.18198,-0.45237zM258.5958,211.0151c-0.24065,-0.62901 -0.50815,-1.16216 -0.8025,-1.59945l0.54595,-0.3522c0.32816,0.47391 0.60859,0.98552 0.84129,1.53482z"/><path d="M261.96614,205.9025v-0.27789h-1.86453v-0.46206h4.40338v0.46206h-1.90335v0.27789h2.47015v1.15996h-0.64737v-0.74318h-1.82283v1.25696h-0.63544v-1.25696h-1.78997v0.74318h-0.64142v-1.15996zM264.07828,210.48761c0.3043,0.12495 0.68419,0.22404 1.13966,0.29728l-0.34905,0.54931c-0.63843,-0.11848 -1.16251,-0.32205 -1.57224,-0.6107c-0.40771,-0.28866 -0.72494,-0.64732 -0.95166,-1.07598h-0.65932v0.99522c0.43954,-0.06674 0.84726,-0.13783 1.22316,-0.21326l0.0418,0.48145c-0.70008,0.18095 -1.50059,0.3382 -2.40155,0.47176l-0.17601,-0.5687c0.31225,-0.03663 0.52605,-0.06248 0.64141,-0.07753l0.03584,-0.00624v-1.08243h-0.65334c-0.02786,0.37913 -0.07361,0.68179 -0.13724,0.90798c-0.07557,0.27142 -0.19689,0.52453 -0.36396,0.75934l-0.53102,-0.475c0.19491,-0.27357 0.31623,-0.59346 0.36396,-0.95967c0.02588,-0.19818 0.03882,-0.44483 0.03882,-0.73995v-1.37008h5.1492v0.42976h-4.50773v0.99198h4.76428v0.4556h-0.67722l0.37888,0.27142c-0.22474,0.20249 -0.49026,0.39206 -0.79654,0.56869zM263.6129,210.23881c0.2864,-0.21111 0.51412,-0.40821 0.68317,-0.59132h-1.30368c0.17104,0.23696 0.37789,0.43407 0.62053,0.59132zM260.43863,206.55848h1.27092v0.36513h-1.27092zM260.43863,207.15302h1.27092v0.37159h-1.27092zM262.85805,206.55848h1.30964v0.36513h-1.30964zM262.85805,207.15302h1.30964v0.37159h-1.30964zM260.76378,208.47138h3.71426v0.42328h-3.71426z"/><path d="M268.88426,205.6111h2.3389v0.54285h-1.32463v0.53638h1.24103v0.52346h-1.24103v0.9629h-2.40155v-0.9629h-0.97853v0.601c0,0.97583 -0.04774,1.74702 -0.14321,2.31358c-0.07359,0.43084 -0.19292,0.82398 -0.35799,1.17943l-0.54296,-0.4653c0.15115,-0.35543 0.25457,-0.78951 0.31026,-1.30223c0.04971,-0.45021 0.07456,-1.02537 0.07456,-1.72548v-2.20368h2.35975v-0.58162h0.66527zM266.51856,206.15395v0.53638h0.97853v-0.53638zM268.13249,206.15395v0.53638h1.13063v-0.53638zM268.13249,207.2138v0.50084h1.13063v-0.50084zM268.82462,210.60658c-0.57479,0.32312 -1.30471,0.5687 -2.18978,0.73672l-0.31026,-0.59454c0.83133,-0.10771 1.48269,-0.27251 1.95408,-0.49438c-0.40374,-0.31666 -0.74882,-0.69256 -1.03522,-1.1277h-0.4117v-0.56223h3.49346l0.31325,0.28434c-0.29635,0.4933 -0.71899,0.95752 -1.26794,1.39266c0.47136,0.20465 1.11375,0.35544 1.92718,0.45237l-0.34905,0.6107c-0.77963,-0.11417 -1.48765,-0.34682 -2.12406,-0.69795zM267.93859,209.12671c0.24065,0.30589 0.53301,0.57516 0.87708,0.8078c0.38783,-0.27142 0.68716,-0.54069 0.89797,-0.8078z"/><path d="M273.68851,206.06901c0.0895,0.14863 0.16508,0.29188 0.22673,0.42975l-0.63544,0.16479c-0.08751,-0.23695 -0.179,-0.43513 -0.27447,-0.59454h-0.31325c-0.16309,0.25635 -0.35004,0.48791 -0.56086,0.69471l-0.47136,-0.42975c0.37192,-0.33605 0.65533,-0.78626 0.85025,-1.35062l0.66527,0.10012c-0.06563,0.17233 -0.12729,0.31774 -0.18496,0.43621h1.29772v0.54931zM276.17058,206.06901c0.0895,0.13141 0.16607,0.25958 0.22971,0.38452l-0.60859,0.1971c-0.10143,-0.22188 -0.20087,-0.41575 -0.29832,-0.58162h-0.33413c-0.1074,0.20033 -0.21381,0.3662 -0.31921,0.49761h0.00288v0.34897h1.98089v0.52992h-1.98089v0.48145h2.58353v0.53639h-1.30666v0.52991h1.08893v0.56224h-1.08893v1.1762c0,0.22403 -0.06265,0.38021 -0.18795,0.46853c-0.10342,0.07324 -0.2854,0.10986 -0.54595,0.10986c-0.31821,0 -0.61455,-0.01617 -0.88902,-0.0485l-0.11635,-0.65594c0.34407,0.05384 0.64837,0.08076 0.91288,0.08076c0.06762,0 0.10939,-0.01617 0.1253,-0.0485c0.01191,-0.02588 0.01787,-0.07111 0.01787,-0.13571v-0.94675h-3.56206v-0.56224h3.56206v-0.52991h-3.81265v-0.53639h2.54779v-0.48145h-1.93611v-0.52992h1.93611v-0.34897h0.4475l-0.34308,-0.27142c0.28242,-0.32743 0.50418,-0.76043 0.66527,-1.299l0.63545,0.08076c-0.03581,0.10555 -0.0905,0.25311 -0.16408,0.44267h1.85559v0.54931zM273.4558,210.97726c-0.28441,-0.4416 -0.5708,-0.7895 -0.85918,-1.04372l0.51312,-0.36512c0.35999,0.27573 0.6613,0.587 0.90394,0.93382z"/><path d="M278.6465,206.22511h0.91587v0.99198h-0.91587zM278.6465,209.13647h0.91587v0.99198h-0.91587z"/><path d="M284.34434,207.36988h0.67721v1.77398c0.4654,0.22188 0.94172,0.51484 1.42898,0.87889l-0.34308,0.60424c-0.34209,-0.27142 -0.70407,-0.52346 -1.08595,-0.75611c-0.02184,0.38128 -0.1362,0.67425 -0.34308,0.87889c-0.23071,0.22619 -0.5539,0.33928 -0.96959,0.33928c-0.40175,0 -0.73289,-0.09909 -0.99342,-0.29727c-0.25457,-0.19603 -0.38186,-0.46961 -0.38186,-0.82074c0,-0.36836 0.1601,-0.66348 0.48031,-0.88535c0.24861,-0.17233 0.56683,-0.2585 0.95465,-0.2585c0.18099,0 0.37291,0.02369 0.57578,0.07108zM284.34434,209.56066c-0.23668,-0.08832 -0.46042,-0.13248 -0.67124,-0.13248c-0.20685,0 -0.37292,0.03985 -0.49821,0.11956c-0.1611,0.1034 -0.24165,0.24126 -0.24165,0.41359c0,0.2111 0.11536,0.36512 0.34607,0.46206c0.11535,0.04739 0.25358,0.07108 0.41467,0.07108c0.25855,0 0.44451,-0.11848 0.55788,-0.35544c0.06162,-0.12709 0.09243,-0.27573 0.09243,-0.44591zM281.14327,206.13239h1.13957c0.10143,-0.37267 0.18298,-0.70118 0.24463,-0.98552l0.65335,0.08721c-0.07956,0.31666 -0.1611,0.61608 -0.24463,0.89828h1.08893v0.64947h-1.28283c-0.35601,1.10508 -0.77366,2.03998 -1.25295,2.80469l-0.55489,-0.3425c0.45346,-0.72807 0.83633,-1.5488 1.1486,-2.46219h-0.93974zM286.12537,207.70603c-0.44153,-0.53208 -0.9487,-1.01676 -1.52151,-1.45407l0.39379,-0.4653c0.56882,0.39851 1.0879,0.86273 1.55725,1.39266z"/><path d="M287.48632,205.29889h0.70406v3.85163c0,0.81209 0.39379,1.21814 1.18137,1.21814c0.5191,0 0.94472,-0.25957 1.27687,-0.77872c0.21479,-0.33389 0.40771,-0.85088 0.57876,-1.55096l0.6056,0.39744c-0.20286,0.77761 -0.4465,1.35922 -0.73091,1.74484c-0.44749,0.601 -1.02922,0.90151 -1.74519,0.90151c-0.7478,0 -1.27486,-0.24988 -1.58117,-0.74964c-0.19292,-0.31236 -0.28938,-0.71518 -0.28938,-1.20846z"/></g></g></g></svg>