<?xml version="1.0" encoding="UTF-8"?>
<svg width="480" height="360" version="1.1" viewBox="0 0 480 360" xmlns="http://www.w3.org/2000/svg">
 <g dominant-baseline="central" fill="#fff" aria-label="十勝地方中部">
  <path d="m248.82 177.46v-6.9629h2.2363v6.9629h8.4473v2.041h-8.4473v10h-2.2363v-10h-8.3203v-2.041z" dominant-baseline="central"/>
  <path d="m275.45 183.5h-2.0801q-0.78125 4.2188-4.7559 6.0449l-1.3867-1.5234q1.9922-0.76172 3.0274-2.1777 0.81054-1.123 1.1035-2.3438h-2.2852v-1.0449q-0.49805 0.43945-1.1426 0.88867l-0.87891-1.2988v5.6934q0 0.85938-0.35156 1.2402-0.36133 0.38086-1.1914 0.38086-0.67383 0-1.8555-0.17578l-0.34179-1.9238q0.88867 0.16601 1.4551 0.16601 0.3125 0 0.41993-0.10742 0.12695-0.12695 0.12695-0.43945v-4.4238h-2.1484q-0.0391 2.1875-0.2539 3.4766-0.29297 1.7676-1.2891 3.6524l-1.4844-1.543q0.84961-1.6894 1.0938-3.9648 0.14648-1.3574 0.14648-3.1738v-9.5801h5.6738v10.176q1.5625-0.85937 2.4902-2.1387h-2.1484v-1.6797h2.9688q0.29297-0.69336 0.5957-1.6016h-3.1055v-1.6797h1.4453q-0.69335-1.6992-1.4258-2.7734l1.7578-0.76172q0.86914 1.3086 1.4648 2.7539l-1.6992 0.78125h2.0117q0.37109-1.6406 0.625-3.9551l2.0215 0.13672q-0.26367 2.002-0.66406 3.8184h3.2031l-1.543-0.55664q0.72265-1.3281 1.3184-3.0762l1.9629 0.57617q-0.47852 1.2793-1.543 3.0566h2.002v1.6797h-3.4766q0.36133 0.83008 0.83008 1.6016h3.3301v1.6797h-2.0703q1.1426 1.1816 2.3242 1.8555l-1.0547 1.7871q-0.77148-0.55664-1.2598-0.9961-0.01 0.14649-0.01 0.38086-0.0684 4.7559-0.47851 5.8301-0.26367 0.68359-0.87891 0.9375-0.44922 0.18555-1.2402 0.18555-0.85938 0-2.0312-0.13672l-0.41992-1.9238q1.2891 0.24414 2.0508 0.24414 0.53711 0 0.67382-0.3418 0.23438-0.53711 0.3711-3.6816zm-1.8945-1.6797h3.6523q-1.2012-1.123-2.0508-2.4609h-3.584q-0.625 1.2207-1.8164 2.4609h1.8848l0.10743-1.4746h1.9238zm-1.2695-4.1406h1.9824q-0.28321-0.66406-0.625-1.6016h-0.82031q-0.22461 0.75195-0.53711 1.6016zm-9.1113-4.5215v2.8223h2.1387v-2.8223zm0 4.5801v2.959h2.1387v-2.959z" dominant-baseline="central"/>
  <path d="m290.23 178.41v7.7344q0 0.75195 0.64454 0.9082 0.66406 0.16602 3.0371 0.16602 2.3144 0 3.0566-0.23438 0.41992-0.13672 0.54687-0.76172 0.16602-0.8789 0.17578-2.0801l2.041 0.57618q-0.15625 2.8809-0.79102 3.6816-0.41992 0.52734-1.2695 0.625-1.3379 0.14648-4.541 0.14648-2.4805 0-3.252-0.13672-1.1621-0.19531-1.4746-1.0254-0.15625-0.43945-0.15625-1.1719v-7.7441l-1.8652 0.64453-0.45899-1.8945 2.3242-0.80078v-5.2637h1.9824v4.5801l2.0996-0.71289v-5.1465h1.9629v4.4629l3.2715-1.123 1.0254 0.625v7.3144q0 0.76172-0.36133 1.1328-0.41015 0.41015-1.377 0.41015-0.79102 0-1.6797-0.13672l-0.32226-1.8652q0.57617 0.14648 1.1719 0.14648 0.42969 0 0.52734-0.17578 0.0977-0.14648 0.0977-0.48828v-4.6191l-2.3535 0.82031v7.9004h-1.9629v-7.2266zm-7.1777-3.1934v-4.7168h2.0996v4.7168h1.8945v1.9824h-1.8945v6.2109q1.0254-0.35156 2.0312-0.73242l0.18555 1.8848q-3.1641 1.4453-6.4941 2.4219l-0.6836-2.0801q1.5039-0.39062 2.6367-0.74218 0.13672-0.0488 0.22461-0.0684v-6.8945h-2.4805v-1.9824z" dominant-baseline="central"/>
  <path d="m309.48 175.76q-0.0684 1.6309-0.19531 2.8711h7.8711q-0.14648 6.7774-0.76172 8.7988-0.3125 1.0156-1.1621 1.4062-0.66406 0.30273-1.9434 0.30273-1.3477 0-3.0566-0.20507l-0.38085-2.1973q2.2949 0.32227 3.2324 0.32227 0.79101 0 1.0059-0.44922 0.51757-1.0938 0.72265-6.0352h-5.8105q-0.32227 1.7578-0.90821 3.0469-1.6309 3.5644-5.4492 5.6543l-1.543-1.7188q3.8281-1.9922 5.0586-5.2246 0.82031-2.1582 1.0644-6.5723h-6.4648v-2.002h7.9785v-3.2617h2.2559v3.2617h8.2422v2.002z" dominant-baseline="central"/>
  <path d="m328.84 174.08v-3.584h2.1973v3.584h7.2461v10.332h-2.1582v-1.3574h-5.0879v6.4453h-2.1973v-6.4453h-4.9609v1.4648h-2.1582v-10.439zm-4.9609 2.002v4.9707h4.9609v-4.9707zm12.246 4.9707v-4.9707h-5.0879v4.9707z" dominant-baseline="central"/>
  <path d="m346.98 172.75h4.1797v1.8848h-1.377q-0.3711 1.4941-0.9961 3.1348h2.6074v1.8848h-10.898v-1.8848h2.3926q-0.39062-1.875-0.82031-3.1348h-1.2695v-1.8848h4.1406v-2.2559h2.041zm-2.9394 1.8848q0.49805 1.4551 0.77148 3.1348h1.9922l0.09766-0.27344q0.41992-1.1133 0.78125-2.5293l0.0879-0.33203zm6.0547 6.6602v7.998h-2.002v-0.95703h-4.2578v1.1621h-2.0606v-8.2031zm-6.2598 1.7969v3.3887h4.2578v-3.3887zm13.047-4.9316q1.1621 1.1035 1.8457 2.627 0.67383 1.5234 0.67383 3.0859 0 1.4453-0.53711 2.1289-0.55664 0.71289-1.8359 0.71289-1.0938 0-2.1191-0.15625l-0.47852-2.0801q1.1816 0.21485 1.9531 0.21485 0.58594 0 0.73242-0.27344 0.0977-0.19531 0.0977-0.78125 0-2.4121-1.4453-4.1602-0.38086-0.45898-0.95703-0.98633l0.11719-0.27343q1.0156-2.2949 1.582-4.7852h-2.5v16.064h-2.0215v-18.086h5.8789l1.084 0.99609q-0.98633 3.3594-2.0703 5.752z" dominant-baseline="central"/>
 </g>
</svg>
