<svg xmlns="http://www.w3.org/2000/svg" viewBox="0 0 192 36" version="1.1" height="36" width="192"><rect style="paint-order:stroke markers fill" fill="none" height="36" width="192"></rect><path style="-inkscape-stroke:none;paint-order:stroke markers fill" stroke-linejoin="round" stroke-linecap="round" fill-rule="evenodd" fill="#7d97b4" color="#000000" d="m19 2c-9.31184 0-17 7.09393-17 16 0 8.90606 7.68816 16 17 16h154c9.31184 0 17-7.09394 17-16 0-8.90607-7.68816-16-17-16z"></path><path style="-inkscape-stroke:none;paint-order:stroke markers fill" stroke-linejoin="round" stroke-linecap="round" fill-rule="evenodd" fill="#31476d" color="#000000" d="m19 4h154c8.31 0 15 6.244 15 14 0 7.75599-6.69 13.99999-15 13.99999h-154c-8.31 0-15-6.244-15-13.99999 0-7.756 6.69-14 15-14z"></path><path aria-label="高度な設定をリセット" fill="#fff" d="m39.5249 23.2671h-4.42969v0.56055h-1.40136v-3.80078h6.22754v3.18554q0.46484 0.0547 0.97754 0.0547 0.34179 0 0.41699-0.11621 0.0615-0.0889 0.0615-0.29395v-3.52734h-8.98926v5.35254h-1.51074v-6.45996h12.01074v5.09961q0 0.65625-0.3623 0.95703-0.33496 0.28027-1.08008 0.28027-0.56055 0-1.63379-0.0889zm-1.00488-2.14648h-3.42481v1.05273h3.42481zm-0.93652-8.63379h5.66015v1.14843h-12.71484v-1.14843h5.55762v-1.10743h1.49707zm3.67089 1.87304v3.12403h-8.73632v-3.12403zm-7.23925 1.06641v0.99121h5.72851v-0.99121zm17.9375-2.81641h5.35937v1.14844h-3.03515v1.13477h2.84375v1.10742h-2.84375v2.03711h-5.50293v-2.03711h-2.24219v1.27148q0 3.09668-0.32813 4.89453-0.25293 1.36719-0.82031 2.49512l-1.24414-0.98437q0.51953-1.12793 0.71094-2.75489 0.1709-1.42871 0.1709-3.65039v-4.66211h5.40722v-1.23047h1.52442zm-5.4209 1.14844v1.13477h2.24219v-1.13477zm3.69824 0v1.13477h2.59082v-1.13477zm0 2.24219v1.05957h2.59082v-1.05957zm1.58594 7.17773q-1.97559 1.02539-5.01758 1.5586l-0.71094-1.25782q2.85742-0.34179 4.47754-1.04589-1.38769-1.00489-2.37207-2.38575h-0.94336v-1.18945h8.00488l0.71778 0.60156q-1.01856 1.56543-2.90528 2.94629 1.62012 0.64942 4.41602 0.95703l-0.7998 1.292q-2.67969-0.36231-4.86719-1.47657zm-2.03028-3.13086q0.82715 0.97071 2.00977 1.70899 1.33301-0.86133 2.05762-1.70899zm16.59766-3.72558h1.55176v3.75293q1.59961 0.7041 3.27441 1.85937l-0.78613 1.27832q-1.17578-0.86133-2.48828-1.59961-0.0752 1.20996-0.78613 1.85938-0.79297 0.71777-2.22168 0.71777-1.38086 0-2.27637-0.6289-0.875-0.62208-0.875-1.73633 0-1.16895 1.10058-1.87305 0.8545-0.54687 2.1875-0.54687 0.62208 0 1.31934 0.15039zm0 4.63476q-0.81348-0.28027-1.53809-0.28027-0.71093 0-1.1416 0.25293-0.55371 0.32812-0.55371 0.875 0 0.66992 0.79297 0.97754 0.39649 0.15039 0.9502 0.15039 0.88867 0 1.27832-0.75195 0.21191-0.40332 0.21191-0.94336zm-7.33496-7.25293h2.61133q0.34863-1.18261 0.56054-2.08496l1.49708 0.18457q-0.27344 1.00489-0.56055 1.90039h2.49512v1.37403h-2.93946q-1.22363 3.50683-2.87109 5.93359l-1.27149-0.72461q1.5586-2.31055 2.63184-5.20898h-2.15332zm11.41602 3.3291q-1.51758-1.68847-3.48633-3.07617l0.90234-0.98437q1.95508 1.26465 3.56836 2.94629zm7.23242 2.93946v4.00586h-3.58203v0.7041h-1.36036v-4.70996zm-3.58203 1.17578v1.66797h2.208v-1.66797zm4.82617-9.27637h4.38183v3.3291q0 0.22559 0.0684 0.28028 0.0889 0.0684 0.30762 0.0684 0.30078 0 0.38965-0.082 0.0684-0.0547 0.0957-0.36231 0.0684-0.78613 0.0752-1.2168l1.27832 0.40332q-7e-3 0.78614-0.10254 1.49707-0.10254 0.83399-0.89551 0.99122-0.33496 0.0684-1.00488 0.0684-0.9502 0-1.27832-0.23925-0.28028-0.20508-0.28028-0.75196v-2.74121h-1.70898v0.14356q0 1.38769-0.30078 2.29687-0.3418 0.99805-1.19629 1.68848l-0.99121-0.99121q0.86133-0.60156 1.0664-1.73633 0.0957-0.54004 0.0957-1.31934zm3.71875 9.78906q1.30566 0.94336 3.04199 1.61329l-0.81348 1.36035q-2.08496-0.97754-3.29492-1.96875-1.53125 1.28515-3.07617 2.00976l-0.79297-1.21679q1.49707-0.5127 2.91895-1.68164-1.27832-1.36719-1.94141-2.91211h-0.68359v-1.25782h6.13183l0.73828 0.66993q-0.92968 2.00293-2.22851 3.38378zm-1.01172-0.83398q0.95703-1.08691 1.3125-1.96191h-2.85742q0.56054 1.01855 1.46972 1.88671zm-8.59961-8.94141h4.34082v1.14844h-4.34082zm-0.78613 2.00293h5.74218v1.23047h-5.74218zm0.78613 2.09864h4.34082v1.13476h-4.34082zm0 2.00293h4.34082v1.10742h-4.34082zm20.57617 4.70312q1.15528 0.19141 2.52246 0.19141h3.54785q-0.34179 0.68359-0.50586 1.44238h-3.05566q-2.77539 0-4.38184-0.66309-1.55859-0.64257-2.57031-2.11914-0.80664 1.9209-1.98242 3.18555l-1.05957-1.27148q1.92773-2.08496 2.40625-5.40039l1.55176 0.23925q-0.21875 1.08008-0.42383 1.79785 0.82715 1.46973 2.44043 2.17383v-5.29101h-3.79395v-0.90918h-1.48339v-3.16504h5.23632v-1.52442h1.52442v1.52442h5.35254v3.16504h-1.4834v0.90918h-3.8418v2.09179h4.68262v1.27149h-4.68262zm-5.29101-8.50391v1.49024h9.10546v-1.49024zm13.09082-0.88867h3.68457q0.6084-0.9707 0.92285-1.56543l1.52441 0.21875q-0.20508 0.36914-0.72461 1.20313l-0.0889 0.14355h4.81933v1.34668h-5.72851q-0.89551 1.23047-1.70899 2.13282 1.29199-0.77247 2.3584-0.77247 1.6543 0 2.16699 1.66114 1.75-0.58106 3.56836-1.14844l0.58789 1.32617-0.23926 0.0684-0.67675 0.17774q-1.91407 0.51953-3.0625 0.88867 0.082 0.88867 0.11621 2.29687l-1.49707 0.082q-7e-3 -0.81347-0.0274-1.76367v-0.13672q-3.14453 1.07324-3.14453 2.16016 0 0.56055 0.80664 0.76562 0.7793 0.19825 2.78907 0.19825 1.85253 0 3.88964-0.21192l0.16407 1.45606q-1.97559 0.15039-4.09473 0.15039-2.61133 0-3.71191-0.39649-1.36036-0.49218-1.36036-1.7705 0-1.08008 0.96387-1.90723 0.99805-0.85449 3.51367-1.76367-0.13672-0.52637-0.3623-0.73828-0.25293-0.23926-0.66992-0.23926-0.67676 0-1.70215 0.51269-1.26465 0.62891-2.71387 1.89356l-0.90918-1.03906q2.12598-1.97559 3.3291-3.88282h-2.78222zm14-1.34668h1.59277v7.47852h-1.59277zm7.0205-0.14355h1.59278v4.88769q0 2.57715-0.41699 3.83496-0.34864 1.07325-0.9502 1.70899-1.25098 1.34668-4.01953 1.98926l-0.78613-1.40137q3.02832-0.61523 3.88281-2.04395 0.54004-0.90918 0.64941-2.29687 0.0478-0.64258 0.0478-1.77734zm6.93164 0h1.56543v3.21973l6.56934-0.88184 0.85449 0.85449q-0.75879 2.11914-1.83886 3.42481-0.73829 0.8955-1.75 1.51757l-1.18946-0.99121q1.18946-0.66308 2.02344-1.74316 0.58105-0.75195 0.84766-1.55176l-5.51661 0.79981v4.71679q0 0.81348 0.56055 0.97071 0.48535 0.14355 2.14649 0.14355 1.88671 0 3.91699-0.20508v1.5586q-1.85254 0.13672-3.82129 0.13672-2.72754 0-3.39063-0.27344-0.97754-0.39649-0.97754-1.89356v-4.92871l-2.87109 0.41699-0.15039-1.45605 3.02148-0.40332zm12.01075 7.4375q-0.49219-2.10547-1.33301-3.88965l1.29883-0.63574q0.86816 1.77734 1.41504 3.99219zm3.17187-0.61524q-0.38281-1.6748-1.25781-3.87597l1.34668-0.56055q0.78613 1.72949 1.3125 3.91699zm-2.12597 4.25196q2.2832-0.6084 3.48632-1.64063 1.20313-1.03222 1.83203-2.98047 0.49219-1.54492 0.71778-3.97168l1.45605 0.43067q-0.41015 3.20605-1.1416 4.91504-0.88867 2.09179-2.66601 3.22656-1.12793 0.72461-2.88477 1.28516zm10.68457-11.11524h1.59277v3.92383q4.08105 1.25781 6.76074 2.57031l-0.76562 1.47657q-2.57032-1.30567-5.99512-2.48145v6.94531h-1.59277z"></path></svg>
