<svg version="1.1" xmlns="http://www.w3.org/2000/svg" xmlns:xlink="http://www.w3.org/1999/xlink" width="224" height="254" viewBox="0,0,224,254"><defs><linearGradient x1="128" y1="212" x2="128" y2="228" gradientUnits="userSpaceOnUse" id="color-1"><stop offset="0" stop-color="#000000" stop-opacity="0.1"/><stop offset="1" stop-color="#000000" stop-opacity="0"/></linearGradient></defs><g transform="translate(-128,-180)"><g data-paper-data="{&quot;isPaintingLayer&quot;:true}" stroke="none" stroke-miterlimit="10" stroke-dasharray="" stroke-dashoffset="0" style="mix-blend-mode: normal"><path d="M342,210l10,2v222h-224v-222l10,-2z" fill="#1d2a41" fill-rule="evenodd" stroke-width="1" stroke-linecap="butt" stroke-linejoin="miter"/><path d="M138,180h204c5.54,0 10,4.46 10,10v22h-224v-22c0,-5.54 4.46,-10 10,-10z" fill="#31476d" fill-rule="evenodd" stroke-width="1" stroke-linecap="butt" stroke-linejoin="miter"/><g fill="#ffffff" fill-rule="nonzero" stroke-width="1" stroke-linecap="butt" stroke-linejoin="miter"><path d="M235.3191,188.1088c0.5105,0.7841 0.92075,1.6615 1.2305,2.6328l0.0312,0.1l-1.2715,0.3633l-0.0957,0.027l-0.0273,-0.094c-0.28921,-0.9762 -0.68662,-1.8531 -1.1914,-2.6309l-0.0762,-0.1172l1.3613,-0.3398zM157.36577,188.3058v1.4532h5.6641v1.5898h-2.2402c-0.23886,0.742 -0.50269,1.4234 -0.78515,2.0586h4.166v1.6211h-15.402v-1.6211h4.0566c-0.20242,-0.6628 -0.46146,-1.3463 -0.79102,-2.0586h-2.1328v-1.5898h5.5547v-1.4532zM213.0375,188.306v4.461h5.6406v1.8007h-5.6406v6.3321h7.1328v1.832h-15.402v-1.832h6.1797v-12.594zM324.43943,188.3059v1.7422h6.1172v3.8164h-1.6953v1.0391h-4.3906v2.1914h5.3516v1.6523h-5.3516v2.4942c0.853,0.1369 1.7766,0.2129 2.7832,0.2129h4.2168l-0.0723,0.1445c-0.25666,0.5133 -0.44704,1.0548 -0.57032,1.625l-0.0176,0.078h-3.5723c-2.1226,0 -3.8042,-0.2527 -5.0469,-0.7656c-1.1617,-0.479 -2.11752,-1.274 -2.8848,-2.3496c-0.6066,1.4057 -1.33261,2.6044 -2.207,3.5449l-0.0762,0.082l-1.3398,-1.6074l0.0586,-0.064c1.4536,-1.5722 2.36231,-3.6071 2.7246,-6.1172l0.0156,-0.1l1.9766,0.3047l-0.0215,0.1015c-0.16291,0.8044 -0.32095,1.4682 -0.47461,2.0117c0.5923,1.0392 1.4587,1.8037 2.582,2.3282v-5.7676h-4.3359v-1.0391h-1.6953v-3.8164h5.9844v-1.7422zM184.2431,188.3222v1.4218h3.8047v1.5742h-3.8047v0.9102h3.3594v1.543h-8.3086v-1.543h3.1641v-0.9102h-3.4023v1.461h-6.293v-1.6059h5.9844v-1.4297h3.7109v-1.4218zM278.67295,188.6261v2.1563h4.6094v1.707h-4.6094v3.2422c0.17844,0.6349 0.27344,1.2068 0.27344,1.7109c0,1.8689 -0.41191,3.2587 -1.2539,4.1543c-0.9092,0.9729 -2.271,1.6385 -4.0762,2.0059l-0.0644,0.014l-1.0137,-1.5098l0.14844,-0.027c1.3825,-0.2641 2.40234,-0.6391 3.0547,-1.1094c0.51647,-0.376 0.81966,-0.9196 1.0488,-1.5254c-0.20035,0.173 -0.40799,0.3246 -0.63281,0.4277c-0.3298,0.193 -0.6803,0.3262 -1.0762,0.3262c-0.8835,0 -1.61369,-0.2522 -2.1699,-0.7598c-0.65347,-0.5995 -0.97657,-1.4718 -0.97657,-2.5898c0,-0.5941 0.1411,-1.1674 0.42383,-1.7168h0.002c0.18741,-0.3534 0.41954,-0.6507 0.69532,-0.8887c0.6321,-0.5356 1.39582,-0.8047 2.2754,-0.8047c0.5077,0 0.96163,0.1459 1.3848,0.3653v-1.3145h-7.7109v-1.707h7.7109v-2.1566zM233.5422,188.754c0.49801,0.8545 0.89544,1.7262 1.1894,2.6133l0.0312,0.098l-1.2637,0.3653l-0.0957,0.029l-0.0273,-0.098c-0.2318,-0.8241 -0.60475,-1.6925 -1.1172,-2.6035l-0.0625,-0.1113l1.3066,-0.3594zM312.69574,192.7687c0,0.0809 0.0075,0.1445 0.0176,0.1855c0.0097,0.04 0.02054,0.055 0.0215,0.055h0.002c0.03683,0.028 0.1338,0.059 0.28906,0.059c0.22005,0 0.35056,-0.044 0.37696,-0.068h0.006c-0.0075,0.006 0.0173,-0.022 0.0332,-0.082c0.0159,-0.0601 0.029,-0.1498 0.0391,-0.2637c0.0519,-0.5977 0.0809,-1.059 0.0859,-1.3828l0.002,-0.1347l1.6602,0.5234l-0.002,0.074c-0.00523,0.602 -0.04379,1.1771 -0.11719,1.7227c-0.04112,0.3319 -0.15349,0.6062 -0.33984,0.8125c-0.18673,0.2067 -0.44545,0.3413 -0.76367,0.4043c-0.26802,0.055 -0.65419,0.08 -1.168,0.08c-0.73232,0 -1.23237,-0.0836 -1.5195,-0.2929c-0.24773,-0.1813 -0.36133,-0.5057 -0.36133,-0.9395v-3.0332h-1.7539v0.064c0,1.0645 -0.11372,1.9491 -0.34765,2.6562h-0.002c-0.2664,0.7779 -0.73411,1.4398 -1.3984,1.9766l-0.0703,0.057l-1.2793,-1.2812l0.0977,-0.068c0.63507,-0.4435 1.02526,-1.0764 1.1777,-1.9199c0.07152,-0.4033 0.10742,-0.9006 0.10742,-1.4902v-1.6157h5.207zM259.47907,188.8676h0.0996v5.2305h-0.85742l0.008,0.014c0.3527,0.6046 0.61528,1.1435 0.80468,1.6308h1.4512c0.30687,-0.5796 0.55663,-1.1303 0.73633,-1.6445h-0.77929v-5.2305h6.5195v13.201c0,0.6006 -0.15701,1.039 -0.49414,1.2773h-0.002c-0.25688,0.1808 -0.63692,0.2598 -1.1426,0.2598c-0.46804,0 -0.93638,-0.031 -1.4043,-0.094l-0.0703,-0.01l-0.31446,-1.6543l-0.86914,1.0078l-0.0762,-0.076c-0.7562,-0.751 -1.64127,-1.483 -2.6348,-2.2011c-0.27701,0.562 -0.65655,1.0741 -1.1836,1.5117c-0.5705,0.4745 -1.365,0.8873 -2.3828,1.2441l-0.0723,0.025l-0.99023,-1.4433l0.13476,-0.037c1.7727,-0.4853 2.80445,-1.3387 3.2129,-2.5234h-3.457v-1.4648h3.6797v-0.7618h-3.2656v-1.3867h1.5664c-0.17932,-0.3441 -0.36594,-0.676 -0.57226,-0.9765l-0.0723,-0.1055l1.4805,-0.5625h-3.5v9.6094h-1.8789v-14.84zM178.415,188.8835v1.5117h-4.918v-1.5121zM305.9172,188.8835v1.5117h-5.1602v-1.5121zM224.25656,189.0958l-0.0117,0.1016c-0.27048,2.4707 -0.40625,4.823 -0.40625,7.0586c0,2.2724 0.12569,4.3483 0.375,6.2285l0.0117,0.1l-1.8164,0.2559l-0.0996,0.014l-0.0137,-0.1c-0.25586,-1.9685 -0.38281,-4.122 -0.38281,-6.4589c0,-2.478 0.14531,-4.9034 0.4375,-7.2774l0.0117,-0.098zM232.02406,188.9305l0.33594,3.4063h3.1973v1.7851h-3.0527l0.0293,1.3203c0.006,0.2555 0.008,0.4325 0.008,0.5333c0,2.1599 -0.316,3.772 -0.9668,4.8398c-0.5097,0.8443 -1.25232,1.5299 -2.2187,2.0527c-0.26356,0.1424 -0.5823,0.2975 -0.95899,0.4649l-0.0703,0.031l-1.1914,-1.5058l0.11719,-0.053c1.2797,-0.5779 2.15422,-1.2773 2.6348,-2.0918c0.46854,-0.7909 0.7129,-2.0548 0.7129,-3.7851c0,-0.0427 -0.003,-0.2325 -0.008,-0.5586l-0.0371,-1.2481h-5.1348v-1.7851h5.0684l-0.0606,-3.3047l-0.002,-0.1016zM240.45775,189.1994l-0.0195,0.1054c-0.42057,2.3261 -0.63086,4.9534 -0.63086,7.8809c0,1.965 0.10998,3.8029 0.32812,5.5117l0.0117,0.098l-1.8809,0.2402l-0.0996,0.012l-0.0117,-0.1c-0.19827,-1.7745 -0.29687,-3.5392 -0.29687,-5.293c0,-3.0049 0.22039,-5.8588 0.66406,-8.5625l0.0156,-0.094zM295.30151,189.1732l0.91992,1.4277l-0.0859,0.055c-2.5351,1.5504 -4.6883,2.9397 -6.5879,4.2246c1.1142,-0.401 2.2318,-0.6992 3.3555,-0.6992c1.172,0 2.15566,0.1862 2.9492,0.5644c0.73248,0.3503 1.30725,0.8303 1.7188,1.4395h0.002c0.42764,0.6468 0.64062,1.3918 0.64062,2.2265c0,1.1686 -0.40232,2.1571 -1.2012,2.9454c-0.5488,0.5487 -1.2508,0.964 -2.1016,1.2441c-1.1101,0.363 -2.3241,0.543 -3.6406,0.543c-1.5175,0 -2.65017,-0.279 -3.3906,-0.8575c-0.57897,-0.4544 -0.87304,-1.0818 -0.87304,-1.8515c0,-0.5866 0.21397,-1.1152 0.63476,-1.5684c0.6338,-0.6822 1.4985,-1.0234 2.5664,-1.0234c1.1318,0 2.05325,0.385 2.7383,1.1504c0.47219,0.528 0.79488,1.2498 1.0137,2.1074c0.74122,-0.2491 1.31779,-0.5811 1.6875,-1.0156c0.3855,-0.4531 0.57813,-1.0057 0.57813,-1.6739c0,-1.0137 -0.41032,-1.7369 -1.2539,-2.2167c-0.5642,-0.3224 -1.28647,-0.4864 -2.1699,-0.4864c-1.3293,0 -2.5257,0.1832 -3.5918,0.5489h-0.002c-0.7762,0.2638 -1.8421,0.9121 -3.1816,1.9453l-0.0762,0.059l-1.2246,-1.4786l0.0742,-0.064c1.451,-1.2527 3.1017,-2.5224 4.9531,-3.8106c1.1691,-0.8111 2.17641,-1.4522 3.0938,-1.998h-6.4648v-1.7387zM198.17282,190.4123l-0.0176,0.061c-0.50289,1.7627 -0.91404,3.0675 -1.25,3.9824c1.2106,0.2129 2.3304,0.5495 3.3652,1c0.0548,-0.6262 0.0879,-1.2427 0.0879,-1.8457c0,-0.3417 -0.0105,-0.7446 -0.0312,-1.2071l-0.006,-0.1152l1.916,0.2012v0.09c-0.00524,1.465 -0.06478,2.6905 -0.17578,3.7012c0.6322,0.3287 1.29208,0.7107 1.9824,1.1523l0.0684,0.045l-0.75,1.8593l-0.10351,-0.076c-0.4664,-0.3401 -0.97776,-0.6759 -1.5176,-1.0118c-0.4063,1.4906 -1.03243,2.6776 -1.9004,3.5254c-0.6366,0.626 -1.5023,1.1742 -2.5938,1.6465l-0.0723,0.031l-1.0996,-1.4785l0.11719,-0.049c1.2642,-0.5417 2.18918,-1.2302 2.7852,-2.0605c0.45416,-0.6417 0.7862,-1.4999 1.0137,-2.5371c-1.217,-0.6018 -2.4476,-1.016 -3.6914,-1.2364c-0.8371,2.2724 -1.67653,4.0283 -2.5254,5.2188c-0.6625,0.9223 -1.42762,1.4004 -2.2773,1.4004c-0.8183,0 -1.46871,-0.4012 -1.9141,-1.1739c-0.338,-0.5901 -0.50586,-1.2902 -0.50586,-2.0957c0,-0.9963 0.25759,-1.8925 0.77344,-2.6796c0.6125,-0.9373 1.5574,-1.6195 2.8184,-2.0469c0.7075,-0.2359 1.50239,-0.3558 2.3691,-0.3828c0.44944,-1.1772 0.79069,-2.2301 1.0391,-3.1719h-5.3203v-1.7387h6.2461zM255.0338,190.8672h2.8086v-0.6289h-2.8086zM262.6979,190.8672h2.8867v-0.6289h-2.8867zM250.5499,190.4614v1.8633h-7.707v-1.8637zM306.6206,191.1743v1.6054h-6.7617v-1.6078zM154.08892,191.3477c0.2763,0.6471 0.52455,1.3305 0.74023,2.0586h3.2109c0.27769,-0.6518 0.51478,-1.341 0.71875,-2.0586h-4.6699zM318.4289,193.2188h10.207v-1.5039h-10.207zM255.0379,192.7657h2.8086v-0.6602h-2.8086zM262.702,192.7657h2.8867v-0.6602h-2.8867zM178.421,193.5708v1.496h-4.918v-1.4964zM305.9232,193.5723v1.4941h-5.1602v-1.496zM263.4783,194.496l-0.0469,0.1055c-0.19863,0.4389 -0.41062,0.8052 -0.62695,1.1406h1.6738v1.3867h-3.3594v0.7618h3.7812v1.4648h-3.5918c1.0525,0.5991 2.06479,1.2565 3.0078,2.0176l0.0801,0.064l-0.23633,0.2735c0.40373,0.0665 0.79231,0.1015 1.1641,0.1015c0.10608,0 0.16768,-0.025 0.20508,-0.062c0.0374,-0.0365 0.0625,-0.0945 0.0625,-0.1972v-7.4551h-3.5195zM168.48797,194.1407c0.42787,0 0.82071,0.1448 1.1641,0.4277c0.45199,0.3703 0.68554,0.8593 0.68554,1.4375c0,0.3575 -0.10216,0.6935 -0.30468,1c-0.3641,0.5651 -0.89959,0.8574 -1.5684,0.8574c-0.2973,0 -0.58292,-0.0723 -0.85156,-0.2148c-0.21358,-0.11 -0.39817,-0.2577 -0.54688,-0.4395c-0.29887,-0.3541 -0.45117,-0.7652 -0.45117,-1.2187c0,-0.6321 0.27368,-1.1501 0.80078,-1.5196c0.31804,-0.2193 0.67878,-0.33 1.0723,-0.33zM187.8945,194.6407h0.0996v3.4804h-1.7695v-1.9531h-5.457v2.0781h-1.7226v-3.6054zM275.38701,195.043c-0.26272,0 -0.50422,0.0718 -0.73437,0.2188h-0.002c-0.54657,0.3428 -0.8125,0.8531 -0.8125,1.5722c0,0.454 0.1005,0.8285 0.29688,1.1328c0.2755,0.4231 0.66368,0.627 1.2051,0.627c0.48567,0 0.85472,-0.2087 1.1426,-0.6504c0.20219,-0.3107 0.30468,-0.6773 0.30468,-1.1094v-0.289c0,-0.3177 -0.07458,-0.5915 -0.2207,-0.8301c-0.27711,-0.4553 -0.65654,-0.6719 -1.1797,-0.6719zM313.59046,195.4222l0.92578,0.8399l-0.0312,0.068c-0.6927,1.4925 -1.53086,2.7425 -2.4941,3.7871c0.9706,0.6908 2.0851,1.2918 3.3691,1.7871l0.11133,0.043l-1.0371,1.7344l-0.082,-0.039c-1.5663,-0.7344 -2.79431,-1.4732 -3.7207,-2.2226c-1.1518,0.959 -2.3094,1.7229 -3.4746,2.2695l-0.0801,0.037l-0.80079,-1.2285v0.4043h-4.0938v0.8047h-1.7539v-5.5821h5.8476v3.9317c1.0658,-0.3799 2.108,-0.9788 3.127,-1.8047c-0.9193,-1.0019 -1.6355,-2.0651 -2.1289,-3.1934h-0.83008v-1.6367zM178.422,195.8598v1.4649h-4.918v-1.4653zM305.9242,195.8618v1.4648h-5.1602v-1.4672zM161.6396,195.9064h0.0996v7.8008h-1.9414v-0.8203h-6.668v0.8203h-1.9258v-7.8008zM194.38598,196.0548c-0.57218,0.0494 -1.09475,0.1447 -1.5098,0.334c-0.732,0.3253 -1.26338,0.8167 -1.6074,1.4844c-0.24297,0.4708 -0.36524,0.9703 -0.36524,1.5019c0,0.4244 0.08302,0.7874 0.2461,1.0938h0.002c0.12162,0.2381 0.24328,0.3281 0.37891,0.3281c0.14431,0 0.32389,-0.0871 0.53125,-0.2851c0.20735,-0.1981 0.43767,-0.5033 0.6875,-0.9141c0.4756,-0.7821 1.02947,-2.0025 1.6367,-3.543zM244.18282,197.4624l-0.0703,0.1016c-0.26986,0.3798 -0.4043,0.8016 -0.4043,1.2773c0,0.5761 0.26756,0.9452 0.84961,1.1641c0.6591,0.2535 1.5738,0.3848 2.7383,0.3848c1.2612,0 2.4277,-0.0843 3.5,-0.25l0.10352,-0.018l0.1914,1.8398l0.01,0.096l-0.0937,0.016c-1.0486,0.1621 -2.2906,0.2421 -3.7266,0.2421c-1.8093,0 -3.17476,-0.2632 -4.0996,-0.8066c-0.92481,-0.5434 -1.3984,-1.3792 -1.3984,-2.4648c0,-0.8564 0.2292,-1.6117 0.68945,-2.2539l0.0488,-0.066zM185.34097,196.8373v4.7324c0,0.0647 0.0086,0.1127 0.0195,0.1387c0.0109,0.025 0.0188,0.035 0.0293,0.035c0.10571,0.046 0.22763,0.068 0.36719,0.068c0.33415,0 0.53912,-0.0601 0.60352,-0.1211h0.002c0.005,-0.0044 0.0406,-0.0593 0.0684,-0.1543c0.0278,-0.0954 0.0538,-0.2307 0.0781,-0.4023c0.04869,-0.3433 0.08859,-0.8332 0.11719,-1.4668l0.006,-0.1348l1.6094,0.5605l-0.002,0.074c-0.04705,1.4014 -0.18076,2.2867 -0.46094,2.707c-0.17198,0.258 -0.4493,0.4315 -0.81054,0.5195h-0.002c-0.30863,0.0705 -0.70965,0.1035 -1.209,0.1035c-0.86628,0 -1.42859,-0.0749 -1.7227,-0.2832c-0.27418,-0.1967 -0.40039,-0.5544 -0.40039,-1.0351v-5.3422zM182.88805,196.9594c-0.01565,2.0639 -0.22353,3.5044 -0.65039,4.3418c-0.5691,1.1063 -1.5438,1.9411 -2.9043,2.5l-0.0723,0.031l-0.67969,-0.9356h-3.5918v0.8047h-1.7383v-5.582h5.4726v4.0351c0.937,-0.365 1.59161,-0.9034 1.9355,-1.6484c0.2768,-0.5931 0.43819,-1.7846 0.45899,-3.5449v-0.098h1.7715zM309.12976,197.0604c0.4095,0.7061 0.90659,1.3749 1.5449,1.9844h0.004c0.63333,-0.7324 1.0673,-1.3922 1.3301,-1.9864h-2.8789zM153.12986,198.5936h6.668v-1.1602h-6.668zM290.22987,199.4357c-0.57776,0 -0.96939,0.176 -1.2148,0.5273h-0.002c-0.11427,0.1572 -0.16797,0.3193 -0.16797,0.4961c0,0.1821 0.06071,0.3338 0.1914,0.4727c0.1307,0.1388 0.33534,0.2626 0.61719,0.3633c0.4055,0.1399 0.96063,0.2129 1.6621,0.2129c0.25786,0 0.58585,-0.024 0.93945,-0.055c-0.18051,-0.6488 -0.41716,-1.1704 -0.73828,-1.4961c-0.34582,-0.3508 -0.76811,-0.5235 -1.2871,-0.5235zM174.98986,201.3748h1.9961v-1.707h-1.9961zM302.18986,201.3748h2.3242v-1.707h-2.3242zM153.13986,201.3436h6.668v-1.3008h-6.668z"/><path d="M174.15625,240.3008v3.74219h-1.72656v-3.66406l-2.54687,0.0937c-0.94271,0.03647 -2.06771,0.0677 -3.375,0.0937l-0.50781,-1.4374l1.59375,-0.008l0.69531,-0.008l2.39063,-0.0156c-0.05729,-0.04167 -0.13542,-0.09636 -0.23437,-0.16407c-0.8125,-0.59375 -1.60677,-1.10937 -2.38281,-1.54687l1.13281,-0.97656c0.36979,0.22917 0.63281,0.39844 0.78906,0.50781c0.38021,-0.29167 0.77865,-0.64844 1.19531,-1.07031h-4.8125v-6.64063h6.85156v1.11719h-2.24219v0.85156h2.24219v2.71875h-2.24219v0.91406h2.5v1.03907h-1.50781l0.78125,0.51562c-0.57292,0.46875 -1.16406,0.89063 -1.77344,1.26563c0.55208,0.41145 1.00781,0.76822 1.36719,1.07031c1.16146,-0.81771 2.28906,-1.6875 3.38281,-2.60938l1.24219,0.94532c-0.74479,0.58854 -1.75781,1.25781 -3.03906,2.00781h0.24219c0.95833,-0.0208 1.97135,-0.05726 3.03906,-0.10938l0.36719,-0.0234c-0.28125,-0.27083 -0.59635,-0.53906 -0.94531,-0.80469l1.21875,-0.75c1.01563,0.69813 1.98177,1.56802 2.89844,2.60969l-1.32812,0.90625c-0.33333,-0.39583 -0.59896,-0.69531 -0.79687,-0.89843c-0.0625,0.00533 -0.14323,0.01313 -0.24219,0.0234c-1.04687,0.10938 -2.32292,0.20574 -3.82812,0.28907zM169.5625,230.32424h-1.65625v0.85156h1.65625zM171.71094,232.13674h-3.80469v0.79687h3.80469zM169.5625,233.89455h-1.65625v0.91406h1.65625zM178.125,233.44924c0.03646,0.02607 0.07552,0.0521 0.11719,0.0781c0.70833,0.48959 1.61979,0.9323 2.73438,1.32813l-0.92969,1.34375c-1.04167,-0.42187 -2.02604,-0.99739 -2.95312,-1.72656c-0.75521,0.61458 -1.58854,1.14322 -2.5,1.58593l-1.03906,-1.21875c0.92188,-0.32812 1.7526,-0.78385 2.49219,-1.36718c-0.85938,-0.96355 -1.47135,-1.95834 -1.83594,-2.98438h-0.48437v-1.3125h5.74219l0.80469,0.65625c-0.57812,1.42187 -1.29427,2.6276 -2.14844,3.61719zM177.03906,232.53518c0.54167,-0.60417 0.97396,-1.28646 1.29688,-2.04688h-2.65625c0.34896,0.79687 0.80208,1.47917 1.35938,2.04688zM166,242.66018c1.40104,-0.5 2.55729,-1.17708 3.46875,-2.03125l1.42969,0.88281c-1.21354,1.11458 -2.44531,1.95312 -3.69531,2.51562zM179.61719,243.83205c-1.11458,-0.85417 -2.3724,-1.66406 -3.77344,-2.42969l1.16406,-1.02343c1.45833,0.65104 2.74479,1.36458 3.85938,2.14062zM191.15625,232.12111h4.09375v6.25782h-5.58594c0.68229,0.61979 1.30729,1.33333 1.875,2.14062l-1.34375,1.07813c-0.70833,-1.07292 -1.35417,-1.88021 -1.9375,-2.42188l1.09375,-0.79687h-5.84375v-1.32813h9.92188v-1.23437h-9.38281v-1.23438h9.38281v-1.16406h-9.41406v-0.57813c-0.4375,0.30729 -0.90104,0.60157 -1.39062,0.88282l-1.05469,-1.25c1.72396,-0.88021 3.17969,-2.11199 4.36719,-3.69532l1.09375,0.65625h5.11719l0.89063,0.71875c-0.53125,0.66146 -1.11458,1.27865 -1.75,1.85157zM189.16406,232.12111c0.5625,-0.46875 1.00781,-0.91666 1.33594,-1.34375h-4.17187c-0.44271,0.5 -0.90625,0.94792 -1.39062,1.34375zM181.79688,242.73049c0.63021,-1.03125 1.09375,-2.21094 1.39063,-3.53906l1.67969,0.5c-0.31771,1.64062 -0.8151,2.99479 -1.49219,4.0625zM186.10156,239.33205h1.71094v2.21094c0,0.32813 0.08854,0.52344 0.26563,0.58594c0.20833,0.06771 0.70833,0.10156 1.5,0.10156c0.95312,0 1.58073,-0.02863 1.88281,-0.0859c0.20313,-0.03647 0.33333,-0.15105 0.39063,-0.34375c0.08333,-0.26041 0.14063,-0.72135 0.17188,-1.38281l1.67969,0.5625c-0.05209,1.21875 -0.25,1.99218 -0.59375,2.32031c-0.22396,0.20833 -0.54948,0.33333 -0.97656,0.375c-0.66667,0.06247 -1.57292,0.0937 -2.71875,0.0937c-1.39583,0 -2.28385,-0.0651 -2.66406,-0.19531c-0.30208,-0.10417 -0.49479,-0.28906 -0.57812,-0.55469c-0.04687,-0.15104 -0.07031,-0.34896 -0.07031,-0.59375zM195.63281,243.31643c-0.65625,-1.53125 -1.33854,-2.77344 -2.04687,-3.72657l1.4375,-0.875c0.88542,1.1875 1.59635,2.39063 2.13281,3.60938zM205.53125,235.16799v6.1875c0,0.40104 0.17188,0.64323 0.51563,0.72656c0.35417,0.08854 1.16406,0.13281 2.42969,0.13281c1.23438,0 2.04948,-0.0625 2.44531,-0.1875c0.22396,-0.07291 0.36979,-0.27604 0.4375,-0.60937c0.08854,-0.46875 0.13542,-1.02344 0.14063,-1.66406l1.63281,0.46093c-0.08333,1.53646 -0.29427,2.51823 -0.63281,2.94532c-0.22396,0.28125 -0.5625,0.44791 -1.01562,0.5c-0.71354,0.07812 -1.92448,0.11718 -3.63281,0.11718c-1.32292,0 -2.1901,-0.03646 -2.60156,-0.10937c-0.61979,-0.10417 -1.01302,-0.3776 -1.17969,-0.82031c-0.08333,-0.23438 -0.125,-0.54688 -0.125,-0.9375v-6.19532l-1.49219,0.51563l-0.36719,-1.51563l1.85938,-0.64062v-4.21094h1.58594v3.66406l1.67969,-0.57031v-4.11719h1.57031v3.57032l2.61719,-0.89844l0.82031,0.5v5.85156c0,0.40625 -0.09635,0.70834 -0.28906,0.90625c-0.21875,0.21875 -0.58594,0.32813 -1.10156,0.32813c-0.42188,0 -0.86979,-0.03646 -1.34375,-0.10938l-0.25781,-1.49219c0.30729,0.07813 0.61979,0.11719 0.9375,0.11719c0.22917,0 0.36979,-0.04687 0.42188,-0.14062c0.05209,-0.07813 0.07813,-0.20834 0.07813,-0.39063v-3.69531l-1.88281,0.65625v6.32031h-1.57031v-5.78125zM199.78906,232.6133v-3.77344h1.67969v3.77344h1.51563v1.58594h-1.51562v4.96875c0.54687,-0.1875 1.08854,-0.38281 1.625,-0.58594l0.14844,1.50781c-1.6875,0.77083 -3.41927,1.41667 -5.19531,1.9375l-0.54687,-1.66406c0.80208,-0.20833 1.50521,-0.40625 2.10938,-0.59375c0.07292,-0.02607 0.13281,-0.0443 0.17969,-0.0547v-5.51562h-1.98437v-1.58594zM220.46093,230.94924v-0.67188h-4.88281v-1.11718h11.53125v1.11718h-4.98437v0.67188h6.46875v2.80469h-1.69531v-1.79688h-4.77344v3.03906h-1.66406v-3.03906h-4.6875v1.79688h-1.67969v-2.80469zM225.99218,242.03518c0.79688,0.30208 1.79167,0.54166 2.98438,0.71875l-0.91406,1.32812c-1.67188,-0.28646 -3.04427,-0.77865 -4.11719,-1.47656c-1.06771,-0.69792 -1.89844,-1.56511 -2.49219,-2.60156h-1.72656v2.40625c1.15104,-0.16146 2.21875,-0.33334 3.20313,-0.51563l0.10938,1.16406c-1.83333,0.4375 -3.92969,0.81771 -6.28906,1.14063l-0.46094,-1.375c0.81771,-0.08854 1.3776,-0.15104 1.67969,-0.1875l0.09375,-0.0156v-2.61718h-1.71094c-0.07292,0.91667 -0.19271,1.64844 -0.35937,2.19531c-0.19792,0.65625 -0.51562,1.26823 -0.95312,1.83594l-1.39062,-1.14844c0.51042,-0.66146 0.82813,-1.4349 0.95313,-2.32031c0.06771,-0.47917 0.10156,-1.07552 0.10156,-1.78907v-3.3125h13.48438v1.03907h-11.80469v2.39843h12.47657v1.10157h-1.77344l0.99219,0.65625c-0.58855,0.48958 -1.28386,0.94791 -2.08594,1.375zM224.77343,241.43361c0.75,-0.51041 1.34635,-0.98697 1.78906,-1.42968h-3.41406c0.44792,0.57291 0.98958,1.04947 1.625,1.42968zM216.46093,232.53518h3.32813v0.88281h-3.32812zM216.46093,233.97268h3.32813v0.89843h-3.32812zM222.79687,232.53518h3.42969v0.88281h-3.42969zM222.79687,233.97268h3.42969v0.89843h-3.42969zM217.3125,237.16018h9.72656v1.02343h-9.72656zM233.40625,240.63674c0.02607,0.02607 0.05992,0.05992 0.10156,0.10156c0.44792,0.45833 0.95313,0.79167 1.51563,1c0.90625,0.33333 2.01562,0.5 3.32812,0.5h6.84375c-0.19791,0.38021 -0.36718,0.875 -0.50781,1.48438h-6.38281c-1.76042,0 -3.09896,-0.23177 -4.01563,-0.69532c-0.54167,-0.27604 -1.05989,-0.68229 -1.55468,-1.21875c-0.73438,0.92188 -1.47657,1.6823 -2.22657,2.28125l-0.875,-1.57812c0.78125,-0.49479 1.48959,-1.01823 2.125,-1.57031v-4.03125h-2v-1.53907h3.64844zM238.49219,238.18361c-0.95313,1.25521 -2.10677,2.28386 -3.46094,3.08594l-1.0625,-1.19531c1.56771,-0.77083 2.9375,-1.85417 4.10938,-3.25h-3.21094v-3.96875h3.625v-1.07031h-4.23438v-1.40625h4.23438v-1.53907h1.60156v1.53907h4.375v1.40625h-4.375v1.07031h3.76563v3.96875h-3.76563v0.30469c1.45313,0.63021 2.92709,1.42968 4.42188,2.39843l-1.00782,1.34375c-1.03645,-0.82291 -2.17447,-1.60677 -3.41406,-2.35156v3.26563h-1.60156zM238.49219,234.07424h-2.08594v1.5625h2.08594zM240.09375,234.07424v1.5625h2.21094v-1.5625zM232.38281,232.93361c-0.74479,-1.16667 -1.52864,-2.16406 -2.35156,-2.99218l1.28125,-0.99219c0.91146,0.84896 1.72136,1.8099 2.42969,2.88281zM248.88281,230.47268v-1.63282h1.63282v1.63282h2.42968v1.375h-2.42968v1.34375h2.76562v1.39062h-0.92969c-0.16667,0.61979 -0.39062,1.27604 -0.67187,1.96875h1.50781v1.35938h-2.67187v1.44531h2.57031v1.39062h-2.57031v3.29688h-1.63282v-3.29688h-2.75781v-1.39062h2.75781v-1.44531h-2.88281v-1.35938h1.4375c-0.16667,-0.69271 -0.36979,-1.34896 -0.60937,-1.96875h-1.14844v-1.39062h3.20312v-1.34375h-2.54687v-1.375zM250.82813,234.58205h-2.48438c0.17709,0.49479 0.36719,1.15104 0.57031,1.96875h1.29688c0.27083,-0.66667 0.47656,-1.32292 0.61719,-1.96875zM260.30469,229.40236v3.65625c0,0.45313 -0.08333,0.77344 -0.25,0.96094c-0.19792,0.22396 -0.61198,0.33594 -1.24219,0.33594c-0.61459,0 -1.22917,-0.02603 -1.84375,-0.0781l-0.26563,-1.40625c0.86459,0.09375 1.41407,0.14063 1.64844,0.14063c0.24479,0 0.36719,-0.10677 0.36719,-0.32031v-1.88282h-3.42187v4.53907h4.42968l0.92969,0.79687c-0.28125,1.65625 -0.79427,3.13542 -1.53906,4.4375l-0.0859,0.15625c0.57291,0.66146 1.28906,1.26563 2.14844,1.8125l-0.875,1.46094c-0.82292,-0.53125 -1.5573,-1.16667 -2.20313,-1.90625c-0.55729,0.70833 -1.1849,1.375 -1.88281,2l-0.92187,-1.28125v1.21875h-1.58594v-14.64063zM255.29688,236.75393v5.90625c0.64062,-0.4375 1.25781,-1.05208 1.85156,-1.84375c-0.79687,-1.22917 -1.35677,-2.58333 -1.67969,-4.0625zM258.01562,239.43361c0.46355,-0.89583 0.76563,-1.78906 0.90625,-2.67968h-2.01562c0.25521,1 0.625,1.89323 1.10937,2.67968z"/><path d="M150.02111,226.9c0.45457,0.009 0.85661,0.29721 1.0117,0.72461l3.2578,8.957l0.79297,-1.1914c0.20408,-0.30639 0.54789,-0.49038 0.91602,-0.49023h3v2.1992h-2.4121l-1.6719,2.5098c-0.23012,0.34513 -0.6348,0.53149 -1.04665,0.48197c-0.41184,-0.0495 -0.76082,-0.3265 -0.90256,-0.71634l-2.9219,-8.0352l-4.002,12.008c-0.14436,0.43328 -0.54142,0.73231 -0.99772,0.7514c-0.4563,0.0191 -0.87694,-0.24574 -1.05698,-0.66545l-2.7129,-6.334h-2.2754v-2.1992h3c0.4401,-0.00035 0.83804,0.26164 1.0117,0.66602l1.8594,4.3398l4.0859,-12.254c0.1522,-0.45648 0.5834,-0.76108 1.0645,-0.75195z"/></g><path d="M128,228v-16h224v16z" fill="url(#color-1)" fill-rule="evenodd" stroke-width="12" stroke-linecap="round" stroke-linejoin="round" opacity="0.80769"/><g fill="#ffffff" fill-rule="nonzero" stroke-width="1" stroke-linecap="butt" stroke-linejoin="miter"><g><path d="M149.12,268.3l0.0615,-2.8711h1.374l-0.0478,2.8711h2.707c-0.06836,4.77147 -0.23242,7.74737 -0.49219,8.9277c-0.10937,0.49673 -0.28939,0.84537 -0.54004,1.0459c-0.24609,0.1914 -0.64029,0.2871 -1.1826,0.2871c-0.52409,0 -1.02312,-0.02733 -1.4971,-0.082l-0.28027,-1.4151c0.53776,0.07293 1.02309,0.1094 1.456,0.1094c0.29167,0 0.48535,-0.08203 0.58106,-0.2461c0.26888,-0.46487 0.45573,-2.88707 0.56055,-7.2666h-1.4082c-0.12305,2.05987 -0.43294,3.75517 -0.92968,5.0859c-0.58789,1.57687 -1.39683,2.90077 -2.4268,3.9717l-0.97754,-1.0664c1.01173,-0.99347 1.74773,-2.24443 2.208,-3.7529c0.38281,-1.2396 0.63802,-2.65237 0.76562,-4.2383h-1.8115v-1.0322h-7.0752v-1.2989h3.1104v-1.9003h1.4561v1.9003h2.7686v0.9708zM143.4735,274.7394c-0.56967,-0.64713 -1.1758,-1.2578 -1.8184,-1.832l0.90918,-0.9571c0.45117,0.3874 1.00487,0.90693 1.6611,1.5586c0.35091,-0.62887 0.65625,-1.2737 0.91602,-1.9345l1.2578,0.6152c-0.25977,0.67447 -0.64943,1.47427 -1.169,2.3994c0.51042,0.5742 0.96159,1.1188 1.3535,1.6338l-1.0664,1.1348c-0.39648,-0.57427 -0.76561,-1.0733 -1.1074,-1.4971c-0.81573,1.153 -1.77277,2.09407 -2.8711,2.8232l-1.1074,-1.1621c1.22133,-0.67447 2.23533,-1.60187 3.042,-2.7822zM140.0008,271.8273c0.87953,-0.6608 1.6315,-1.61783 2.2559,-2.8711l1.1894,0.6289c-0.62435,1.3216 -1.44238,2.39483 -2.4541,3.2197zM146.7479,272.2716c-0.61523,-0.89773 -1.36263,-1.80233 -2.2422,-2.7138l1.0527,-0.7383c0.86133,0.80207 1.57453,1.6178 2.1396,2.4472z"/><path d="M162.6,273.8c1.35807,1.1758 3.01007,2.1283 4.956,2.8575l-0.92285,1.3193c-2.08727,-0.9388 -3.8031,-2.1647 -5.1475,-3.6777v4.4365h-1.4834v-4.3818c-1.2988,1.67247 -2.96903,2.96443 -5.0107,3.8759l-0.90918,-1.2304c1.93687,-0.74287 3.5889,-1.8093 4.9561,-3.1993h-4.9014v-1.2168h5.8652v-1.0185h-4.6211v-5.6123h10.814v5.6123h-4.71v1.0185h5.9541v1.2168zM156.8373,267.0461v1.1143h3.165v-1.1143zM156.8373,269.2405v1.2304h3.165v-1.2304zM164.7397,270.4709v-1.2304h-3.2539v1.2304zM164.7397,268.1604v-1.1143h-3.2539v1.1143z"/><path d="M175.49,266.7h4.9561v1.2168h-1.9346c-0.22787,0.71553 -0.47852,1.37407 -0.75196,1.9756h3.6846v1.2442h-13.303v-1.2442h3.5889c-0.18685,-0.63347 -0.43978,-1.292 -0.75879,-1.9756h-1.8389v-1.2168h4.8604v-1.2714h1.4971zM172.5847,267.9168c0.26888,0.61527 0.50586,1.2738 0.71094,1.9756h2.9326c0.26888,-0.62433 0.49902,-1.28287 0.69043,-1.9756zM179.3113,272.0799v6.6514h-1.5244v-0.7178h-6.0088v0.7178h-1.5107v-6.6514zM171.7781,273.242v1.1895h6.0088v-1.1895zM171.7781,275.5252v1.3125h6.0088v-1.3125z"/><path d="M183.33,267.3h3.6846c0.4056,-0.64713 0.71322,-1.16897 0.92285,-1.5655l1.5244,0.2188c-0.13672,0.24607 -0.37826,0.6471 -0.72461,1.2031l-0.0889,0.1436h4.8193v1.3466h-5.7285c-0.59701,0.82033 -1.16667,1.53127 -1.709,2.1328c0.86133,-0.51493 1.64747,-0.7724 2.3584,-0.7724c1.10287,0 1.8252,0.5537 2.167,1.6611c1.16667,-0.38733 2.35613,-0.77013 3.5684,-1.1484l0.58789,1.3262l-0.23926,0.068l-0.67676,0.1777c-1.27607,0.3464 -2.2969,0.64263 -3.0625,0.8887c0.05467,0.59247 0.0934,1.3581 0.11621,2.2969l-1.4971,0.082c-0.00467,-0.54233 -0.01377,-1.1302 -0.0273,-1.7636v-0.1368c-2.09633,0.71553 -3.1445,1.4356 -3.1445,2.1602c0,0.37367 0.26888,0.62887 0.80664,0.7656c0.51953,0.1322 1.44923,0.1983 2.7891,0.1983c1.235,0 2.53153,-0.07067 3.8896,-0.212l0.16406,1.4561c-1.31707,0.10027 -2.68197,0.1504 -4.0947,0.1504c-1.74087,0 -2.97817,-0.13217 -3.7119,-0.3965c-0.90693,-0.32813 -1.3604,-0.9183 -1.3604,-1.7705c0,-0.72007 0.32129,-1.3558 0.96387,-1.9072c0.66536,-0.56967 1.83659,-1.15757 3.5137,-1.7637c-0.09115,-0.35093 -0.21192,-0.59703 -0.36231,-0.7383c-0.16862,-0.15947 -0.39193,-0.2392 -0.66992,-0.2392c-0.45117,0 -1.01857,0.1709 -1.7022,0.5127c-0.84307,0.41927 -1.7477,1.05043 -2.7139,1.8935l-0.90918,-1.0391c1.41733,-1.317 2.52703,-2.61127 3.3291,-3.8828h-2.7822z"/><path d="M200.42,266.5v9.4473h-2.7139v1.1347h-1.2578v-10.582zM197.7061,267.8467v6.7539h1.4697v-6.7539zM203.6534,266.582c0.11849,-0.32353 0.23698,-0.75647 0.35547,-1.2988l1.5244,0.2188c-0.12305,0.35547 -0.27344,0.71547 -0.45117,1.08h3.165v4.2657h-5.6396v0.6494h6.8975v1.0801h-6.8975v0.6425h6.5625c-0.05013,2.26047 -0.1504,3.71197 -0.30079,4.3545c-0.0957,0.4056 -0.25748,0.695 -0.48535,0.8682c-0.23698,0.17773 -0.63345,0.2666 -1.1894,0.2666c-0.55595,0 -1.04129,-0.025 -1.456,-0.075l-0.27344,-1.3125c0.53776,0.07293 1.04363,0.1094 1.5176,0.1094c0.26432,0 0.43294,-0.07063 0.50586,-0.2119c0.11849,-0.23247 0.22102,-1.17583 0.30761,-2.8301l0.007,-0.1026h-6.5693v-7.7041zM202.6075,267.5596v0.7041h4.2656v-0.7041zM202.6075,269.1729v0.7246h4.2656v-0.7246zM202.81941,277.9229c-0.03647,-1.10747 -0.12533,-2.09187 -0.2666,-2.9532l0.96387,-0.1982c0.24153,0.9388 0.39192,1.8776 0.45117,2.8164zM200.18761,277.6563c0.41927,-0.89327 0.69955,-1.85487 0.84082,-2.8848l1.1211,0.2256c-0.15039,1.3672 -0.38965,2.46323 -0.71778,3.2881zM204.70621,277.4717c-0.18685,-1.01627 -0.39648,-1.88443 -0.62891,-2.6045l0.88184,-0.3076c0.30989,0.6836 0.58105,1.5153 0.81347,2.4951zM206.44251,276.8428c-0.18685,-0.67447 -0.45801,-1.37857 -0.81348,-2.1123l0.82715,-0.376c0.38281,0.60613 0.68132,1.26237 0.89551,1.9687z"/><path d="M219.1,268.6c-1.7272,-0.76567 -3.67317,-1.35357 -5.8379,-1.7637l0.57422,-1.2168c2.22393,0.41473 4.18813,0.95477 5.8926,1.6201zM211.3002,273.6107c0.18685,-2.1784 0.46712,-4.0765 0.84082,-5.6943l1.4697,0.2734c-0.34636,1.44013 -0.56967,2.7891 -0.66993,4.0469c0.66081,-0.50587 1.42187,-0.9092 2.2832,-1.21c0.82487,-0.29167 1.59503,-0.4375 2.3105,-0.4375c1.07093,0 1.94593,0.20737 2.625,0.6221c0.90693,0.56053 1.3604,1.45833 1.3604,2.6934c0,1.2122 -0.41243,2.151 -1.2373,2.8164c-1.153,0.92053 -3.1582,1.42867 -6.0156,1.5244l-0.54688,-1.4151c1.90953,-0.00667 3.3633,-0.1844 4.3613,-0.5332c1.20767,-0.41927 1.8115,-1.21907 1.8115,-2.3994c0,-0.7474 -0.2666,-1.30337 -0.7998,-1.6679c-0.42383,-0.29167 -0.97983,-0.4375 -1.668,-0.4375c-0.9798,0 -2.03253,0.32127 -3.1582,0.9638c-0.68813,0.39193 -1.30337,0.86817 -1.8457,1.4287z"/><path d="M230.38,265.7h1.5381v1.8867h4.0332v1.3194h-4.0332v2.9258c0.15951,0.56053 0.23926,1.05953 0.23926,1.497c0,1.6224 -0.35773,2.81413 -1.0732,3.5752c-0.77933,0.834 -1.95283,1.4105 -3.5205,1.7295l-0.7793,-1.1621c1.2168,-0.2324 2.11913,-0.56053 2.707,-0.9844c0.55143,-0.401 0.92287,-0.94557 1.1143,-1.6337c-0.48763,0.5332 -1.06869,0.7998 -1.7432,0.7998c-0.75653,0 -1.3695,-0.2142 -1.8389,-0.6426c-0.55143,-0.50587 -0.82715,-1.2396 -0.82715,-2.2012c0,-0.50587 0.12077,-0.9935 0.36231,-1.4629c0.1595,-0.3008 0.35546,-0.55143 0.58789,-0.7519c0.53776,-0.45573 1.18263,-0.6836 1.9346,-0.6836c0.47851,0 0.91145,0.11393 1.2988,0.3418v-1.3467h-6.7471v-1.3194h6.7471zM230.4347,272.7957v-0.2529c0,-0.29167 -0.06836,-0.54917 -0.20507,-0.7725c-0.25521,-0.41927 -0.62435,-0.6289 -1.1074,-0.6289c-0.24609,0 -0.47624,0.06837 -0.69043,0.2051c-0.5013,0.31447 -0.75195,0.79753 -0.75195,1.4492c0,0.4102 0.09115,0.75657 0.27344,1.0391c0.25521,0.39193 0.63117,0.5879 1.1279,0.5879c0.45117,0 0.80891,-0.2028 1.0732,-0.6084c0.18685,-0.28713 0.28027,-0.62667 0.28027,-1.0186z"/></g><g><path d="M147.35,374.7h4.9561v1.2168h-1.9346c-0.22787,0.71553 -0.47852,1.37407 -0.75196,1.9756h3.6846v1.2441h-13.303v-1.2441h3.5889c-0.18685,-0.63347 -0.43978,-1.292 -0.75879,-1.9756h-1.8389v-1.2168h4.8604v-1.2715h1.4971zM144.4447,375.9168c0.26888,0.61527 0.50586,1.2738 0.71094,1.9756h2.9326c0.26888,-0.62433 0.49902,-1.28287 0.69043,-1.9756zM151.1713,380.0799v6.6514h-1.5244v-0.7178h-6.0088v0.7178h-1.5107v-6.6514zM143.6381,381.242v1.1895h6.0088v-1.1895zM143.6381,383.5252v1.3125h6.0088v-1.3125z"/><path d="M159.84,374.7v-1.2715h1.5244v1.2715h5.7422v1.1895h-5.7422v1.1211h4.8467v1.1894h-10.979v-1.1894h4.6074v-1.1211h-5.6465v-1.1895zM166.0744,379.2254v4.4912h-1.5381v-0.7383h-7.6973c-0.06835,0.84767 -0.20735,1.5381 -0.41699,2.0713c-0.25065,0.64713 -0.66535,1.25327 -1.2441,1.8184l-1.2168,-1.0664c0.58789,-0.55147 0.97299,-1.21 1.1553,-1.9756c0.1276,-0.53773 0.1914,-1.21677 0.1914,-2.0371v-2.5635zM164.5363,380.3465h-3.1992v1.4424h3.1992zM159.8537,380.3465h-2.9805v1.4424h2.9805z"/><path d="M168.45,375c4.19273,-0.064 8.1554,-0.1711 11.888,-0.3213l0.082,1.3603c-1.6452,0.08207 -2.9258,0.33273 -3.8418,0.752c-0.875,0.401 -1.57683,0.95697 -2.1055,1.6679c-0.60156,0.80667 -0.90234,1.70447 -0.90234,2.6934c0,0.9844 0.3418,1.7227 1.0254,2.2149c0.78387,0.56053 1.987,0.9456 3.6094,1.1552l-0.32128,1.5381c-2.1146,-0.28253 -3.60257,-0.8294 -4.4639,-1.6406c-0.92513,-0.86587 -1.3877,-1.9414 -1.3877,-3.2266c0,-1.16667 0.41927,-2.25587 1.2578,-3.2676c0.61067,-0.7428 1.44694,-1.3398 2.5088,-1.791c-1.88213,0.064 -4.3089,0.1711 -7.2803,0.3213zM178.3895,380.8994c-0.26889,-0.71553 -0.72235,-1.52673 -1.3604,-2.4336l1.0664,-0.3965c0.56966,0.78387 1.02766,1.58593 1.374,2.4062zM180.2352,380.1816c-0.32357,-0.83853 -0.77473,-1.6543 -1.3535,-2.4473l1.0186,-0.3623c0.5332,0.64713 0.98667,1.431 1.3604,2.3516z"/><path d="M187.03,382v3.5889c0.91147,-0.3236 1.53127,-0.84087 1.8594,-1.5518c0.25521,-0.54687 0.39192,-1.59277 0.41015,-3.1377h1.374c-0.01367,1.80013 -0.20051,3.0534 -0.56054,3.7598c-0.48763,0.94793 -1.31933,1.66343 -2.4951,2.1465l-0.58789,-0.8067v0.01h-3.2676v0.7041h-1.3467v-4.71zM183.7624,383.1758v1.668h1.9209v-1.668zM190.4821,374.665v-1.2441h1.3877v1.2441h3.3291v1.2032h-3.3291v0.9707h2.9395v1.1758h-7.0957v-1.1758h2.7686v-0.9707h-3.2471v-1.2032zM195.1442,378.9512v2.8711h-1.374v-1.709h-4.9492v1.8183h-1.333v-2.9804zM182.6412,373.9131h4.1289v1.1484h-4.1289zM181.99862,375.916h5.332v1.2305h-5.332zM182.6412,378.0147h4.1289v1.1347h-4.1289zM182.6412,380.0176h4.1289v1.1074h-4.1289zM191.5006,380.8721h1.3193v4.0537c0,0.1276 0.0319,0.20507 0.0957,0.2324c0.10482,0.04533 0.22331,0.068 0.35547,0.068c0.30078,0 0.49674,-0.0433 0.58789,-0.1299c0.12305,-0.1094 0.20964,-0.72007 0.25977,-1.832l1.2373,0.4306c-0.041,1.22133 -0.17088,1.99607 -0.38965,2.3242c-0.13671,0.20513 -0.35546,0.34413 -0.65625,0.417c-0.25976,0.05933 -0.60613,0.089 -1.0391,0.089c-0.75193,0 -1.23727,-0.07747 -1.456,-0.2324c-0.20964,-0.1504 -0.31446,-0.4284 -0.31446,-0.834z"/><path d="M197.74,374.4h5.3457l0.95703,0.8134c-0.45117,1.5814 -0.82487,2.77087 -1.1211,3.5684c1.1348,0.1914 2.1807,0.5013 3.1377,0.9297c0.05467,-0.58787 0.082,-1.16437 0.082,-1.7295c0,-0.3008 -0.0091,-0.654 -0.0273,-1.0596l1.4971,0.1573c-0.00467,1.30333 -0.05708,2.39933 -0.15723,3.288c0.56511,0.29167 1.15757,0.63577 1.7774,1.0323l-0.5879,1.456c-0.4375,-0.319 -0.91147,-0.63573 -1.4219,-0.9502c-0.35091,1.35353 -0.91145,2.40627 -1.6816,3.1582c-0.54687,0.5378 -1.29427,1.01177 -2.2422,1.4219l-0.85449,-1.1484c1.11653,-0.47853 1.9414,-1.08923 2.4746,-1.8321c0.41927,-0.5924 0.72916,-1.36713 0.92969,-2.3242c-1.11653,-0.56053 -2.24673,-0.93877 -3.3906,-1.1347c-0.74287,2.03253 -1.488,3.57287 -2.2354,4.621c-0.56966,0.793 -1.20996,1.1895 -1.9209,1.1895c-0.68813,0 -1.22133,-0.32813 -1.5996,-0.9844c-0.28711,-0.50127 -0.43066,-1.09827 -0.43066,-1.791c0,-0.85673 0.22103,-1.62237 0.66308,-2.2969c0.52409,-0.80207 1.33073,-1.38767 2.4199,-1.7568c0.6289,-0.20967 1.333,-0.3236 2.1123,-0.3418c0.41927,-1.09373 0.74056,-2.07357 0.96387,-2.9395h-4.6895zM200.9734,379.9918c-0.58789,0.032 -1.09145,0.14363 -1.5107,0.3349c-0.65625,0.29167 -1.13931,0.7383 -1.4492,1.3399c-0.21875,0.4238 -0.32812,0.87497 -0.32812,1.3535c0,0.3828 0.07519,0.71547 0.22558,0.998c0.11393,0.22333 0.25065,0.335 0.41016,0.335c0.63802,0 1.52212,-1.45377 2.6523,-4.3613z"/><path d="M217.06,377.3h4.9356v1.4013h-4.9356v5.7149h6.2412v1.4287h-13.303v-1.4287h5.4072v-11.02h1.6543z"/><path d="M232.46,373.9h1.2305l0.29395,2.9805h2.7891v1.3877h-2.6728l0.0273,1.2441c0.00467,0.22333 0.007,0.3783 0.007,0.4649c0,1.88213 -0.27799,3.27893 -0.83398,4.1904c-0.4375,0.7246 -1.07323,1.3125 -1.9072,1.7637c-0.22787,0.123 -0.50586,0.25743 -0.83399,0.4033l-0.92968,-1.1758c1.1302,-0.5104 1.91177,-1.13247 2.3447,-1.8662c0.42383,-0.71553 0.63575,-1.83437 0.63575,-3.3565c0,-0.04133 -0.00233,-0.20537 -0.007,-0.4921l-0.0342,-1.1758h-4.4912v-1.3877h4.4365zM225.3438,385.897c-0.22331,-1.71813 -0.33496,-3.59803 -0.33496,-5.6397c0,-2.16467 0.12761,-4.2838 0.38282,-6.3574l1.4834,0.1367c-0.23697,2.16473 -0.35546,4.2269 -0.35546,6.1865c0,1.9916 0.10937,3.81227 0.32812,5.462zM235.0372,376.2651c-0.20507,-0.72913 -0.5332,-1.49473 -0.98437,-2.2968l0.9707,-0.2666c0.43295,0.7428 0.77701,1.4993 1.0322,2.2695zM236.6163,375.7183c-0.25521,-0.86133 -0.60611,-1.6361 -1.0527,-2.3243l1.0117,-0.2529c0.44206,0.67907 0.79753,1.44013 1.0664,2.2832z"/><path d="M239.96,374.1h7.6699l0.73144,1.1348c-2.3698,1.4492 -4.42287,2.76627 -6.1592,3.9512c1.12107,-0.4694 2.24673,-0.7041 3.377,-0.7041c1.01627,0 1.86393,0.16177 2.543,0.4853c0.62891,0.3008 1.11881,0.71097 1.4697,1.2305c0.36459,0.5514 0.54688,1.18487 0.54688,1.9004c0,1.0026 -0.3418,1.84113 -1.0254,2.5156c-0.4694,0.4694 -1.07097,0.82487 -1.8047,1.0664c-0.9616,0.31447 -2.01433,0.4717 -3.1582,0.4717c-1.31707,0 -2.28777,-0.24383 -2.9121,-0.7315c-0.48763,-0.3828 -0.73144,-0.90003 -0.73144,-1.5517c0,-0.4922 0.17773,-0.9297 0.5332,-1.3125c0.53776,-0.5788 1.26466,-0.8682 2.1807,-0.8682c0.97067,0 1.74767,0.32583 2.331,0.9775c0.42383,0.474 0.72917,1.10977 0.91602,1.9073c1.40367,-0.4466 2.1055,-1.27147 2.1055,-2.4746c0,-0.91147 -0.38053,-1.58367 -1.1416,-2.0166c-0.51041,-0.29167 -1.15755,-0.4375 -1.9414,-0.4375c-1.1712,0 -2.2285,0.16177 -3.1719,0.4853c-0.69727,0.237 -1.6338,0.80893 -2.8096,1.7158l-0.96386,-1.1621c1.26693,-1.09373 2.7093,-2.20343 4.3271,-3.3291c1.11653,-0.77473 2.1009,-1.41047 2.9531,-1.9072h-5.8652zM245.1416,384.839c-0.32357,-1.28973 -0.9593,-1.9346 -1.9072,-1.9346c-0.52409,0 -0.90235,0.16633 -1.1348,0.499c-0.10937,0.1504 -0.16406,0.3122 -0.16406,0.4854c0,0.36 0.25521,0.63117 0.76563,0.8135c0.36914,0.1276 0.86361,0.1914 1.4834,0.1914c0.26433,0 0.58334,-0.01833 0.95703,-0.055z"/></g><g><path d="M143.36,304v10.698h-1.4287v-13.303h1.4287v2.0712l0.65625,-0.5468c0.39649,0.68813 0.71094,1.3512 0.94336,1.9892l-0.92969,0.9229c-0.24153,-0.7702 -0.46484,-1.3809 -0.66992,-1.8321zM149.6559,302.3047h3.541v1.0254h-3.541v0.6563h3.0557v0.9775h-3.0557v0.6768h3.9922v1.0937h-9.2148v-1.0937h3.8076v-0.6768h-2.9668v-0.9775h2.9668v-0.6563h-3.3701v-1.0254h3.3701v-0.9091h1.415zM152.4997,307.459v6.002c0,0.41927 -0.10026,0.7246 -0.30078,0.916c-0.19597,0.18687 -0.53093,0.2803 -1.0049,0.2803c-0.56055,0 -1.13705,-0.03873 -1.7295,-0.1162l-0.19824,-1.2305c0.60612,0.07293 1.08692,0.1094 1.4424,0.1094c0.18229,0 0.29167,-0.04557 0.32813,-0.1367c0.0228,-0.05467 0.0342,-0.139 0.0342,-0.253v-0.8818h-4.1973v2.5498h-1.4287v-7.2393zM146.8737,308.4639v0.7998h4.1973v-0.7998zM146.8737,310.2686v0.8408h4.1973v-0.8408zM139.9967,308.5323c0.20508,-0.94793 0.35319,-2.17387 0.44434,-3.6778l0.0342,-0.5605l1.1621,0.1094c-0.05467,1.95053 -0.21417,3.53417 -0.47852,4.7509z"/><path d="M157.03,302.8v-1.4287h1.4287v1.4287h2.126v1.2031h-2.126v1.1758h2.4199v1.2168h-0.81347c-0.14583,0.54227 -0.3418,1.11647 -0.58789,1.7226h1.3193v1.1895h-2.3379v1.2646h2.249v1.2168h-2.249v2.8848h-1.4287v-2.8848h-2.4131v-1.2168h2.4131v-1.2646h-2.5225v-1.1895h1.2578c-0.14583,-0.60613 -0.32357,-1.18033 -0.5332,-1.7226h-1.0049v-1.2168h2.8027v-1.1758h-2.2285v-1.2031zM158.7322,306.3957h-2.1738c0.15495,0.43293 0.32129,1.00713 0.49902,1.7226h1.1348c0.23698,-0.58333 0.41699,-1.15753 0.54004,-1.7226zM167.0242,301.8634v3.1993c0,0.39647 -0.07292,0.67673 -0.21875,0.8408c-0.17317,0.19593 -0.53547,0.2939 -1.0869,0.2939c-0.53776,0 -1.07553,-0.02267 -1.6133,-0.068l-0.23243,-1.2305c0.75653,0.082 1.23733,0.123 1.4424,0.123c0.21419,0 0.32129,-0.0934 0.32129,-0.2802v-1.6475h-2.9941v3.9717h3.876l0.81348,0.6973c-0.24609,1.4492 -0.69499,2.74347 -1.3467,3.8828l-0.0752,0.1367c0.50131,0.5788 1.12794,1.10743 1.8799,1.5859l-0.76563,1.2783c-0.72007,-0.4648 -1.36263,-1.02077 -1.9277,-1.6679c-0.48763,0.6198 -1.0368,1.20313 -1.6475,1.75l-0.80664,-1.1211v1.0664h-1.3877v-12.811zM162.6424,308.2961v5.1679c0.56055,-0.3828 1.10058,-0.92057 1.6201,-1.6133c-0.69727,-1.07547 -1.18717,-2.26033 -1.4697,-3.5546zM165.0213,310.6408c0.4056,-0.78387 0.66992,-1.56543 0.79297,-2.3447h-1.7637c0.22331,0.875 0.54687,1.65657 0.9707,2.3447z"/><path d="M174.2,304.3v-1.039h-5.5098v-1.2579h12.503v1.2579h-5.5371v1.039h4.792v5.544h-4.8262c-0.00467,0.032 -0.007,0.064 -0.007,0.096c-0.05013,0.80207 -0.25521,1.5107 -0.61523,2.1259c1.7682,0.6198 3.96253,1.04593 6.583,1.2784l-0.84082,1.333c-2.54753,-0.29627 -4.7487,-0.82037 -6.6035,-1.5723c-0.52865,0.46027 -1.20995,0.8317 -2.0439,1.1143c-0.7474,0.2552 -1.71583,0.458 -2.9053,0.6084l-0.73828,-1.2989c1.84113,-0.13667 3.26073,-0.4853 4.2588,-1.0459c-0.9798,-0.48307 -1.8867,-1.04587 -2.7207,-1.6884l1.0049,-0.8545c0.87047,0.67447 1.7614,1.20993 2.6728,1.6064c0.26433,-0.45113 0.43295,-1.0185 0.50586,-1.7021h-4.7578v-5.544zM174.2,305.3938h-3.3154v1.1006h3.3154zM175.656,305.3938v1.1006h3.3223v-1.1006zM174.2,307.5471h-3.3154v1.1894h3.3154zM175.656,307.5471v1.1894h3.3223v-1.1894z"/><path d="M186.53,310c0.66081,0.36007 1.39224,0.86593 2.1943,1.5176l-0.7793,1.2715c-0.51497,-0.5788 -0.98664,-1.05503 -1.415,-1.4287v3.3496h-1.4014v-3.6504c-0.61523,1.1302 -1.34667,2.07583 -2.1943,2.8369l-0.79981,-1.292c1.01627,-0.72007 1.86163,-1.61557 2.5361,-2.6865h-2.1602v-1.2031h2.6182v-1.333h-2.8848v-1.2578h1.4971c-0.11849,-0.5788 -0.28484,-1.21 -0.49903,-1.8936h-0.73144v-1.2715h2.5908v-1.5517h1.456v1.5517h2.4814v1.2715h-0.73145c-0.16862,0.6836 -0.37825,1.3148 -0.6289,1.8936h1.5654v1.2578h-2.7139v1.333h2.4609v1.2031h-2.4609zM184.6023,304.2305c0.17317,0.56967 0.32356,1.20087 0.45117,1.8936h1.3535c0.20964,-0.58793 0.38965,-1.21913 0.54004,-1.8936zM191.0349,307.5528c0.00467,1.41273 -0.10471,2.72293 -0.32812,3.9306c-0.23242,1.25327 -0.64485,2.37437 -1.2373,3.3633l-1.1279,-1.0322c0.50586,-0.82033 0.85223,-1.8275 1.0391,-3.0215c0.16406,-1.02087 0.24609,-2.32427 0.24609,-3.9102v-4.2861c0.09115,-0.00933 0.23014,-0.023 0.41699,-0.041c1.4492,-0.13673 2.9007,-0.4489 4.3545,-0.9365l0.89551,1.1894c-1.21227,0.4102 -2.6296,0.72693 -4.252,0.9502v2.3653h4.5869v1.4287h-1.5654v7.1572h-1.415v-7.1572z"/><path d="M203.63,302.7h4.956v1.2168h-1.9346c-0.22787,0.71553 -0.47852,1.37407 -0.75195,1.9756h3.6846v1.2442h-13.303v-1.2442h3.5889c-0.18685,-0.63347 -0.43978,-1.292 -0.75879,-1.9756h-1.8389v-1.2168h4.8604v-1.2714h1.4971zM200.7247,303.9168c0.26888,0.61527 0.50586,1.2738 0.71094,1.9756h2.9326c0.26888,-0.62433 0.49902,-1.28287 0.69043,-1.9756zM207.4513,308.0799v6.6514h-1.5244v-0.7178h-6.0088v0.7178h-1.5107v-6.6514zM199.9181,309.242v1.1895h6.0088v-1.1895zM199.9181,311.5252v1.3125h6.0088v-1.3125z"/><path d="M211.47,303.3h3.6846c0.4056,-0.64713 0.71322,-1.16897 0.92285,-1.5655l1.5244,0.2188c-0.13672,0.24607 -0.37826,0.6471 -0.72461,1.2031l-0.0889,0.1436h4.8193v1.3466h-5.7285c-0.59701,0.82033 -1.16667,1.53127 -1.709,2.1328c0.86133,-0.51493 1.64747,-0.7724 2.3584,-0.7724c1.10287,0 1.8252,0.5537 2.167,1.6611c1.16667,-0.38733 2.35613,-0.77013 3.5684,-1.1484l0.58789,1.3262l-0.23926,0.068l-0.67675,0.1777c-1.27607,0.3464 -2.2969,0.64263 -3.0625,0.8887c0.05467,0.59247 0.0934,1.3581 0.11621,2.2969l-1.4971,0.082c-0.00467,-0.54233 -0.01377,-1.1302 -0.0273,-1.7636v-0.1368c-2.09633,0.71553 -3.1445,1.4356 -3.1445,2.1602c0,0.37367 0.26888,0.62887 0.80664,0.7656c0.51953,0.1322 1.44923,0.1983 2.7891,0.1983c1.235,0 2.53153,-0.07067 3.8896,-0.212l0.16407,1.4561c-1.31707,0.10027 -2.68197,0.1504 -4.0947,0.1504c-1.74087,0 -2.97817,-0.13217 -3.7119,-0.3965c-0.90693,-0.32813 -1.3604,-0.9183 -1.3604,-1.7705c0,-0.72007 0.32129,-1.3558 0.96387,-1.9072c0.66537,-0.56967 1.8366,-1.15757 3.5137,-1.7637c-0.09115,-0.35093 -0.21191,-0.59703 -0.3623,-0.7383c-0.16862,-0.15947 -0.39193,-0.2392 -0.66992,-0.2392c-0.45117,0 -1.01857,0.1709 -1.7022,0.5127c-0.84307,0.41927 -1.7477,1.05043 -2.7139,1.8935l-0.90918,-1.0391c1.41733,-1.317 2.52703,-2.61127 3.3291,-3.8828h-2.7822z"/><path d="M228.56,302.5v9.4473h-2.7139v1.1347h-1.2578v-10.582zM225.8461,303.8467v6.7539h1.4697v-6.7539zM231.7934,302.582c0.11849,-0.32353 0.23698,-0.75647 0.35547,-1.2988l1.5244,0.2188c-0.12305,0.35547 -0.27344,0.71547 -0.45117,1.08h3.165v4.2657h-5.6396v0.6494h6.8975v1.0801h-6.8975v0.6425h6.5625c-0.05013,2.26047 -0.15039,3.71197 -0.30078,4.3545c-0.09571,0.4056 -0.25749,0.695 -0.48535,0.8682c-0.23698,0.17773 -0.63348,0.2666 -1.1895,0.2666c-0.55599,0 -1.04132,-0.025 -1.456,-0.075l-0.27344,-1.3125c0.53776,0.07293 1.04363,0.1094 1.5176,0.1094c0.26432,0 0.43294,-0.07063 0.50586,-0.2119c0.11849,-0.23247 0.22103,-1.17583 0.30762,-2.8301l0.007,-0.1026h-6.5693v-7.7041zM230.7475,303.5596v0.7041h4.2656v-0.7041zM230.7475,305.1729v0.7246h4.2656v-0.7246zM230.95941,313.9229c-0.03647,-1.10747 -0.12533,-2.09187 -0.2666,-2.9532l0.96387,-0.1982c0.24153,0.9388 0.39192,1.8776 0.45117,2.8164zM228.32761,313.6563c0.41927,-0.89327 0.69954,-1.85487 0.84082,-2.8848l1.1211,0.2256c-0.15039,1.3672 -0.38964,2.46323 -0.71777,3.2881zM232.84621,313.4717c-0.18685,-1.01627 -0.39648,-1.88443 -0.6289,-2.6045l0.88183,-0.3076c0.3099,0.6836 0.58106,1.5153 0.81348,2.4951zM234.58251,312.8428c-0.18685,-0.67447 -0.45801,-1.37857 -0.81348,-2.1123l0.82715,-0.376c0.38281,0.60613 0.68132,1.26237 0.89551,1.9687z"/><path d="M247.24,304.6c-1.7272,-0.76567 -3.67317,-1.35357 -5.8379,-1.7637l0.57422,-1.2168c2.22393,0.41473 4.18813,0.95477 5.8926,1.6201zM239.4402,309.6107c0.18685,-2.1784 0.46713,-4.0765 0.84082,-5.6943l1.4697,0.2734c-0.34635,1.44013 -0.56966,2.7891 -0.66992,4.0469c0.66081,-0.50587 1.42187,-0.9092 2.2832,-1.21c0.82487,-0.29167 1.59507,-0.4375 2.3106,-0.4375c1.07093,0 1.94593,0.20737 2.625,0.6221c0.90693,0.56053 1.3604,1.45833 1.3604,2.6934c0,1.2122 -0.41243,2.151 -1.2373,2.8164c-1.153,0.92053 -3.1582,1.42867 -6.0156,1.5244l-0.54688,-1.4151c1.90953,-0.00667 3.3633,-0.1844 4.3613,-0.5332c1.20767,-0.41927 1.8115,-1.21907 1.8115,-2.3994c0,-0.7474 -0.2666,-1.30337 -0.79981,-1.6679c-0.42383,-0.29167 -0.97983,-0.4375 -1.668,-0.4375c-0.9798,0 -2.03253,0.32127 -3.1582,0.9638c-0.68813,0.39193 -1.30337,0.86817 -1.8457,1.4287z"/><path d="M258.53,301.7h1.5381v1.8867h4.0332v1.3194h-4.0332v2.9258c0.1595,0.56053 0.23925,1.05953 0.23925,1.497c0,1.6224 -0.35773,2.81413 -1.0732,3.5752c-0.77927,0.834 -1.95277,1.4105 -3.5205,1.7295l-0.77929,-1.1621c1.2168,-0.2324 2.11913,-0.56053 2.707,-0.9844c0.55143,-0.401 0.92287,-0.94557 1.1143,-1.6337c-0.48763,0.5332 -1.0687,0.7998 -1.7432,0.7998c-0.75653,0 -1.3695,-0.2142 -1.8389,-0.6426c-0.55143,-0.50587 -0.82714,-1.2396 -0.82714,-2.2012c0,-0.50587 0.12077,-0.9935 0.3623,-1.4629c0.15951,-0.3008 0.35547,-0.55143 0.58789,-0.7519c0.53776,-0.45573 1.18263,-0.6836 1.9346,-0.6836c0.47852,0 0.91145,0.11393 1.2988,0.3418v-1.3467h-6.7471v-1.3194h6.7471zM258.5847,308.7957v-0.2529c0,-0.29167 -0.06836,-0.54917 -0.20508,-0.7725c-0.25521,-0.41927 -0.62434,-0.6289 -1.1074,-0.6289c-0.24609,0 -0.47624,0.06837 -0.69043,0.2051c-0.50131,0.31447 -0.75196,0.79753 -0.75196,1.4492c0,0.4102 0.09115,0.75657 0.27344,1.0391c0.25521,0.39193 0.63117,0.5879 1.1279,0.5879c0.45117,0 0.80891,-0.2028 1.0732,-0.6084c0.18685,-0.28713 0.28028,-0.62667 0.28028,-1.0186z"/></g><g><path d="M145.43,337.7h1.5381v2.1396h3.0898l0.7998,0.7998c-0.98893,1.30793 -2.25357,2.5179 -3.7939,3.6299v6.2002h-1.5381v-5.1953c-1.48113,0.87953 -3.06933,1.6178 -4.7646,2.2148l-0.76563,-1.3193c2.27407,-0.66993 4.34307,-1.6566 6.207,-2.96c0.8932,-0.62433 1.652,-1.2897 2.2764,-1.9961h-7.2529v-1.374h4.2041zM151.7943,347.81c-1.33987,-1.14387 -2.76173,-2.13507 -4.2656,-2.9736l0.96387,-0.9639c1.5176,0.7702 2.92807,1.67027 4.2314,2.7002z"/><path d="M154.01,339h10.008v10.35h-10.247v-1.4287h8.6201v-7.4922h-8.3809z"/><path d="M177.18,341.3c0.63803,0.3464 1.39683,0.62213 2.2764,0.8272l-0.71094,1.1074c-0.99807,-0.3372 -1.81153,-0.71773 -2.4404,-1.1416c-0.64257,0.46487 -1.43554,0.793 -2.3789,0.9844h3.2334v0.7861h-8.8184v-0.7861h2.2764l-0.12304,-0.5127h-3.1856v-1.4424c-0.22331,0.18687 -0.43522,0.34637 -0.63574,0.4785l-0.72461,-1.0117c0.68813,-0.39647 1.2054,-0.89093 1.5518,-1.4834l0.4375,0.048v-0.2598h-1.8799v-0.9229h1.8799v-0.5878h1.2852v0.5878h1.3125v-0.5878h1.3057v0.5878h1.6816v0.9229h-1.6816v0.4922h1.4287c-0.00913,0.12307 -0.01827,0.2142 -0.0274,0.2734c-0.00913,0.09573 -0.01597,0.17093 -0.0205,0.2256c0.64713,-0.64713 1.17123,-1.52213 1.5723,-2.625l1.3193,0.2734c-0.10937,0.29627 -0.22331,0.572 -0.3418,0.8272h3.377v1.0937h-0.93652c-0.20052,0.6426 -0.54459,1.25783 -1.0322,1.8457zM175.4163,341.362c-0.26888,-0.2598 -0.55827,-0.61527 -0.86816,-1.0664c-0.21419,0.2506 -0.42611,0.46933 -0.63574,0.6562l-0.71094,-0.8271c-0.12305,1.18487 -0.24609,1.93227 -0.36914,2.2422c-0.15951,0.39647 -0.47168,0.63343 -0.93653,0.7109h1.7158l-0.60839,-0.9229c1.0208,-0.15033 1.82517,-0.41463 2.4131,-0.7929zM176.22294,340.6374c0.278,-0.32813 0.50131,-0.72237 0.66992,-1.1827h-1.7021c0.29167,0.4512 0.63573,0.84543 1.0322,1.1827zM170.53544,339.3864v-0.4922h-1.3125v0.4922zM168.17024,340.2272c-0.09571,0.12307 -0.21875,0.26207 -0.36914,0.417h3.3564v1.5654c0.05467,0.00667 0.08657,0.01 0.0957,0.01c0.15495,0 0.25976,-0.07063 0.31445,-0.2119c0.14583,-0.3464 0.25521,-0.93887 0.32812,-1.7774zM168.51204,341.3893v0.4307h1.4697v-0.4307zM178.07554,347.9928v2.6934h-1.5312v-0.4785h-7.6699v0.4785h-1.5244v-2.6934zM168.87434,348.7926v0.5879h7.6699v-0.5879zM166.05794,344.3014h13.303v0.8819h-13.303zM167.88994,345.6276h9.6455v0.7451h-9.6455zM167.88994,346.8239h9.6455v0.7246h-9.6455z"/><path d="M182.81,338.8v-1.4287h1.4287v1.4287h2.126v1.2031h-2.126v1.1758h2.4199v1.2168h-0.81347c-0.14583,0.54227 -0.3418,1.11647 -0.58789,1.7226h1.3193v1.1895h-2.3379v1.2646h2.249v1.2168h-2.249v2.8848h-1.4287v-2.8848h-2.4131v-1.2168h2.4131v-1.2646h-2.5225v-1.1895h1.2578c-0.14583,-0.60613 -0.32357,-1.18033 -0.5332,-1.7226h-1.0049v-1.2168h2.8027v-1.1758h-2.2285v-1.2031zM184.5122,342.3957h-2.1738c0.15495,0.43293 0.32129,1.00713 0.49902,1.7226h1.1348c0.23698,-0.58333 0.41699,-1.15753 0.54004,-1.7226zM192.8042,337.8634v3.1993c0,0.39647 -0.07292,0.67673 -0.21875,0.8408c-0.17317,0.19593 -0.53547,0.2939 -1.0869,0.2939c-0.53776,0 -1.07553,-0.02267 -1.6133,-0.068l-0.23243,-1.2305c0.75653,0.082 1.23733,0.123 1.4424,0.123c0.21419,0 0.32129,-0.0934 0.32129,-0.2802v-1.6475h-2.9941v3.9717h3.876l0.81348,0.6973c-0.24609,1.4492 -0.69499,2.74347 -1.3467,3.8828l-0.0752,0.1367c0.50131,0.5788 1.12794,1.10743 1.8799,1.5859l-0.76563,1.2783c-0.72007,-0.4648 -1.36263,-1.02077 -1.9277,-1.6679c-0.48763,0.6198 -1.0368,1.20313 -1.6475,1.75l-0.80664,-1.1211v1.0664h-1.3877v-12.811zM188.4224,344.2961v5.1679c0.56055,-0.3828 1.10058,-0.92057 1.6201,-1.6133c-0.69727,-1.07547 -1.18717,-2.26033 -1.4697,-3.5546zM190.8013,346.6408c0.4056,-0.78387 0.66992,-1.56543 0.79297,-2.3447h-1.7637c0.22331,0.875 0.54687,1.65657 0.9707,2.3447z"/><path d="M201.41,338.7h4.956v1.2168h-1.9346c-0.22787,0.71553 -0.47852,1.37407 -0.75195,1.9756h3.6846v1.2442h-13.303v-1.2442h3.5889c-0.18685,-0.63347 -0.43978,-1.292 -0.75879,-1.9756h-1.8389v-1.2168h4.8604v-1.2714h1.4971zM198.5047,339.9168c0.26888,0.61527 0.50586,1.2738 0.71094,1.9756h2.9326c0.26888,-0.62433 0.49902,-1.28287 0.69043,-1.9756zM205.2313,344.0799v6.6514h-1.5244v-0.7178h-6.0088v0.7178h-1.5107v-6.6514zM197.6981,345.242v1.1895h6.0088v-1.1895zM197.6981,347.5252v1.3125h6.0088v-1.3125z"/><path d="M209.25,339.3h3.6846c0.4056,-0.64713 0.71322,-1.16897 0.92285,-1.5655l1.5244,0.2188c-0.13672,0.24607 -0.37826,0.6471 -0.72461,1.2031l-0.0889,0.1436h4.8193v1.3466h-5.7285c-0.59701,0.82033 -1.16667,1.53127 -1.709,2.1328c0.86133,-0.51493 1.64747,-0.7724 2.3584,-0.7724c1.10287,0 1.8252,0.5537 2.167,1.6611c1.16667,-0.38733 2.35613,-0.77013 3.5684,-1.1484l0.58789,1.3262l-0.23925,0.068l-0.67676,0.1777c-1.27607,0.3464 -2.2969,0.64263 -3.0625,0.8887c0.05467,0.59247 0.0934,1.3581 0.11621,2.2969l-1.4971,0.082c-0.00467,-0.54233 -0.0138,-1.1302 -0.0274,-1.7636v-0.1368c-2.09633,0.71553 -3.1445,1.4356 -3.1445,2.1602c0,0.37367 0.26888,0.62887 0.80664,0.7656c0.51953,0.1322 1.44923,0.1983 2.7891,0.1983c1.235,0 2.53153,-0.07067 3.8896,-0.212l0.16407,1.4561c-1.31707,0.10027 -2.68197,0.1504 -4.0947,0.1504c-1.74087,0 -2.97817,-0.13217 -3.7119,-0.3965c-0.90693,-0.32813 -1.3604,-0.9183 -1.3604,-1.7705c0,-0.72007 0.32129,-1.3558 0.96387,-1.9072c0.66537,-0.56967 1.8366,-1.15757 3.5137,-1.7637c-0.09114,-0.35093 -0.21191,-0.59703 -0.3623,-0.7383c-0.16862,-0.15947 -0.39193,-0.2392 -0.66992,-0.2392c-0.45117,0 -1.01857,0.1709 -1.7022,0.5127c-0.84307,0.41927 -1.7477,1.05043 -2.7139,1.8935l-0.90918,-1.0391c1.41733,-1.317 2.52703,-2.61127 3.3291,-3.8828h-2.7822z"/><path d="M226.34,338.5v9.4473h-2.7139v1.1347h-1.2578v-10.582zM223.6261,339.8467v6.7539h1.4697v-6.7539zM229.5734,338.582c0.11849,-0.32353 0.23698,-0.75647 0.35547,-1.2988l1.5244,0.2188c-0.12305,0.35547 -0.27344,0.71547 -0.45117,1.08h3.165v4.2657h-5.6396v0.6494h6.8975v1.0801h-6.8975v0.6425h6.5625c-0.05013,2.26047 -0.15039,3.71197 -0.30078,4.3545c-0.09571,0.4056 -0.25749,0.695 -0.48535,0.8682c-0.23698,0.17773 -0.63348,0.2666 -1.1895,0.2666c-0.55599,0 -1.04132,-0.025 -1.456,-0.075l-0.27344,-1.3125c0.53776,0.07293 1.04363,0.1094 1.5176,0.1094c0.26433,0 0.43295,-0.07063 0.50586,-0.2119c0.11849,-0.23247 0.22103,-1.17583 0.30762,-2.8301l0.007,-0.1026h-6.5693v-7.7041zM228.5275,339.5596v0.7041h4.2656v-0.7041zM228.5275,341.1729v0.7246h4.2656v-0.7246zM228.73941,349.9229c-0.03647,-1.10747 -0.12533,-2.09187 -0.2666,-2.9532l0.96387,-0.1982c0.24154,0.9388 0.39193,1.8776 0.45117,2.8164zM226.10761,349.6563c0.41927,-0.89327 0.69955,-1.85487 0.84082,-2.8848l1.1211,0.2256c-0.15039,1.3672 -0.38964,2.46323 -0.71777,3.2881zM230.62621,349.4717c-0.18685,-1.01627 -0.39648,-1.88443 -0.6289,-2.6045l0.88183,-0.3076c0.3099,0.6836 0.58106,1.5153 0.81348,2.4951zM232.36251,348.8428c-0.18685,-0.67447 -0.458,-1.37857 -0.81347,-2.1123l0.82714,-0.376c0.38281,0.60613 0.68132,1.26237 0.89551,1.9687z"/><path d="M245.02,340.6c-1.7272,-0.76567 -3.67317,-1.35357 -5.8379,-1.7637l0.57422,-1.2168c2.22393,0.41473 4.18813,0.95477 5.8926,1.6201zM237.2202,345.6107c0.18685,-2.1784 0.46713,-4.0765 0.84082,-5.6943l1.4697,0.2734c-0.34635,1.44013 -0.56966,2.7891 -0.66992,4.0469c0.66081,-0.50587 1.42187,-0.9092 2.2832,-1.21c0.82487,-0.29167 1.59507,-0.4375 2.3106,-0.4375c1.07093,0 1.94593,0.20737 2.625,0.6221c0.90693,0.56053 1.3604,1.45833 1.3604,2.6934c0,1.2122 -0.41243,2.151 -1.2373,2.8164c-1.153,0.92053 -3.1582,1.42867 -6.0156,1.5244l-0.54687,-1.4151c1.90947,-0.00667 3.36323,-0.1844 4.3613,-0.5332c1.20767,-0.41927 1.8115,-1.21907 1.8115,-2.3994c0,-0.7474 -0.2666,-1.30337 -0.79981,-1.6679c-0.42383,-0.29167 -0.97983,-0.4375 -1.668,-0.4375c-0.9798,0 -2.03253,0.32127 -3.1582,0.9638c-0.68813,0.39193 -1.30337,0.86817 -1.8457,1.4287z"/><path d="M256.31,337.7h1.5381v1.8867h4.0332v1.3194h-4.0332v2.9258c0.1595,0.56053 0.23925,1.05953 0.23925,1.497c0,1.6224 -0.35773,2.81413 -1.0732,3.5752c-0.77927,0.834 -1.95277,1.4105 -3.5205,1.7295l-0.77929,-1.1621c1.2168,-0.2324 2.11913,-0.56053 2.707,-0.9844c0.55143,-0.401 0.92287,-0.94557 1.1143,-1.6337c-0.48763,0.5332 -1.0687,0.7998 -1.7432,0.7998c-0.75653,0 -1.3695,-0.2142 -1.8389,-0.6426c-0.55143,-0.50587 -0.82715,-1.2396 -0.82715,-2.2012c0,-0.50587 0.12077,-0.9935 0.3623,-1.4629c0.15951,-0.3008 0.35547,-0.55143 0.58789,-0.7519c0.53776,-0.45573 1.18263,-0.6836 1.9346,-0.6836c0.47852,0 0.91145,0.11393 1.2988,0.3418v-1.3467h-6.7471v-1.3194h6.7471zM256.3647,344.7957v-0.2529c0,-0.29167 -0.06836,-0.54917 -0.20508,-0.7725c-0.25521,-0.41927 -0.62434,-0.6289 -1.1074,-0.6289c-0.24609,0 -0.47624,0.06837 -0.69043,0.2051c-0.5013,0.31447 -0.75195,0.79753 -0.75195,1.4492c0,0.4102 0.09114,0.75657 0.27343,1.0391c0.25521,0.39193 0.63118,0.5879 1.1279,0.5879c0.45117,0 0.80891,-0.2028 1.0732,-0.6084c0.18685,-0.28713 0.28028,-0.62667 0.28028,-1.0186z"/></g><g><path d="M151.12,413.3c0.63802,0.3464 1.39682,0.62213 2.2764,0.8272l-0.71094,1.1074c-0.99807,-0.33727 -1.81153,-0.7178 -2.4404,-1.1416c-0.64258,0.46487 -1.43555,0.793 -2.3789,0.9844h3.2334v0.7861h-8.8184v-0.7861h2.2764l-0.12305,-0.5127h-3.1855v-1.4424c-0.22331,0.18687 -0.43522,0.34637 -0.63575,0.4785l-0.7246,-1.0117c0.68813,-0.39647 1.2054,-0.89093 1.5518,-1.4834l0.4375,0.048v-0.2597h-1.8799v-0.9229h1.8799v-0.5879h1.2852v0.5879h1.3125v-0.5879h1.3057v0.5879h1.6816v0.9229h-1.6816v0.4922h1.4287c-0.00913,0.123 -0.01823,0.21413 -0.0273,0.2734c-0.00913,0.09573 -0.01597,0.17093 -0.0205,0.2256c0.64714,-0.64713 1.17124,-1.52213 1.5723,-2.625l1.3193,0.2734c-0.10937,0.29627 -0.2233,0.572 -0.34179,0.8272h3.377v1.0937h-0.93652c-0.20052,0.6426 -0.54459,1.25783 -1.0322,1.8457zM149.3563,413.362c-0.26888,-0.25973 -0.55827,-0.6152 -0.86817,-1.0664c-0.21419,0.25067 -0.4261,0.46943 -0.63574,0.6563l-0.71094,-0.8272c-0.12305,1.18493 -0.24609,1.93233 -0.36914,2.2422c-0.1595,0.39653 -0.47167,0.63353 -0.93652,0.711h1.7158l-0.6084,-0.9229c1.0208,-0.1504 1.82517,-0.41473 2.4131,-0.793zM150.16294,412.6374c0.27799,-0.32813 0.5013,-0.72233 0.66992,-1.1826h-1.7022c0.29167,0.4512 0.63573,0.8454 1.0322,1.1826zM144.47544,411.3865v-0.4922h-1.3125v0.4922zM142.11024,412.2273c-0.0957,0.12307 -0.21875,0.26207 -0.36914,0.417h3.3564v1.5654c0.05467,0.00667 0.08657,0.01 0.0957,0.01c0.15495,0 0.25977,-0.07063 0.31446,-0.2119c0.14583,-0.34633 0.25521,-0.93877 0.32812,-1.7773zM142.45204,413.3894v0.4307h1.4697v-0.4307zM152.01554,419.9929v2.6934h-1.5312v-0.4786h-7.6699v0.4786h-1.5244v-2.6934zM142.81434,420.7927v0.5879h7.6699v-0.5879zM139.99794,416.301h13.303v0.8818h-13.303zM141.82994,417.6272h9.6455v0.7451h-9.6455zM141.82994,418.8235h9.6455v0.7246h-9.6455z"/><path d="M156.75,410.8v-1.4287h1.4287v1.4287h2.126v1.2032h-2.126v1.1757h2.4199v1.2168h-0.81348c-0.14583,0.54233 -0.3418,1.11657 -0.58789,1.7227h1.3193v1.1895h-2.3379v1.2646h2.249v1.2168h-2.249v2.8848h-1.4287v-2.8848h-2.4131v-1.2168h2.4131v-1.2646h-2.5225v-1.1895h1.2578c-0.14583,-0.60613 -0.32357,-1.18037 -0.5332,-1.7227h-1.0049v-1.2168h2.8027v-1.1757h-2.2285v-1.2032zM158.4522,414.3957h-2.1738c0.15495,0.433 0.32129,1.00723 0.49902,1.7227h1.1348c0.23698,-0.58333 0.41699,-1.15757 0.54004,-1.7227zM166.7442,409.8635v3.1992c0,0.39653 -0.07292,0.67683 -0.21875,0.8409c-0.17318,0.19593 -0.53548,0.2939 -1.0869,0.2939c-0.53776,0 -1.07553,-0.02267 -1.6133,-0.068l-0.23242,-1.2304c0.75653,0.082 1.23733,0.123 1.4424,0.123c0.21419,0 0.32129,-0.09343 0.32129,-0.2803v-1.6474h-2.9941v3.9717h3.876l0.81347,0.6972c-0.24609,1.44927 -0.69499,2.74353 -1.3467,3.8828l-0.0752,0.1368c0.5013,0.57873 1.12793,1.10737 1.8799,1.5859l-0.76562,1.2783c-0.72007,-0.4648 -1.36263,-1.02077 -1.9277,-1.6679c-0.48763,0.61973 -1.03679,1.20307 -1.6475,1.75l-0.80664,-1.1211v1.0664h-1.3877v-12.811zM162.3624,416.2961v5.168c0.56055,-0.3828 1.10058,-0.92057 1.6201,-1.6133c-0.69727,-1.07553 -1.18717,-2.26043 -1.4697,-3.5547zM164.7413,418.6409c0.4056,-0.78387 0.66992,-1.56547 0.79297,-2.3448h-1.7637c0.22331,0.875 0.54688,1.6566 0.97071,2.3448z"/><path d="M174.82,414.9v5.4141c0,0.35093 0.15039,0.56283 0.45117,0.6357c0.3099,0.07753 1.01857,0.1163 2.126,0.1163c1.08007,0 1.79327,-0.0547 2.1396,-0.1641c0.19596,-0.064 0.32356,-0.24173 0.38281,-0.5332c0.07747,-0.41013 0.11849,-0.8955 0.12305,-1.4561l1.4287,0.4034c-0.07292,1.3444 -0.25749,2.20343 -0.55371,2.5771c-0.19597,0.24607 -0.49219,0.3919 -0.88868,0.4375c-0.62435,0.06833 -1.68391,0.1025 -3.1787,0.1025c-1.15753,0 -1.91633,-0.032 -2.2764,-0.096c-0.54232,-0.09113 -0.88639,-0.33037 -1.0322,-0.7177c-0.07292,-0.20513 -0.10938,-0.47857 -0.10938,-0.8203v-5.4209l-1.3057,0.4511l-0.32129,-1.3261l1.627,-0.5606v-3.6846h1.3877v3.2061l1.4697,-0.499v-3.6026h1.374v3.1241l2.29,-0.7862l0.71777,0.4375v5.1201c0,0.35547 -0.08431,0.6198 -0.25293,0.793c-0.19141,0.1914 -0.51269,0.2871 -0.96386,0.2871c-0.36915,0 -0.76108,-0.032 -1.1758,-0.096l-0.22558,-1.3057c0.26888,0.0684 0.54232,0.1026 0.82031,0.1026c0.20052,0 0.32357,-0.04103 0.36914,-0.1231c0.0456,-0.06833 0.0684,-0.18227 0.0684,-0.3418v-3.2334l-1.6475,0.5743v5.5302h-1.374v-5.0586zM169.7956,412.6647v-3.3018h1.4697v3.3018h1.3262v1.3877h-1.3262v4.3476c0.47852,-0.16407 0.95249,-0.33497 1.4219,-0.5127l0.12988,1.3194c-1.47653,0.67447 -2.99183,1.23957 -4.5459,1.6953l-0.47851,-1.4561c0.7018,-0.18227 1.31703,-0.35543 1.8457,-0.5195c0.0638,-0.02267 0.11621,-0.03867 0.15723,-0.048v-4.8262h-1.7363v-1.3877z"/><path d="M193.66,411.8c-0.0228,-0.04533 -0.0433,-0.0909 -0.0615,-0.1367c-0.26433,-0.597 -0.63576,-1.18033 -1.1143,-1.75l1.1348,-0.5332c0.50586,0.56507 0.91603,1.1803 1.2305,1.8457l-1.0938,0.5742h1.4424v1.2578h-3.1582l0.0137,0.2735c0.06836,1.44007 0.20736,2.6842 0.417,3.7324c0.37825,-0.82947 0.72005,-1.75233 1.0254,-2.7686l1.2715,0.5469c-0.54232,1.54033 -1.14615,2.887 -1.8115,4.04c0.19141,0.56967 0.4056,1.0687 0.64258,1.4971c0.09114,0.16407 0.1595,0.2461 0.20507,0.2461c0.05013,0 0.12533,-0.13673 0.22559,-0.4102c0.11393,-0.32353 0.20508,-0.8795 0.27344,-1.6679l1.1348,0.7998c-0.15039,1.1758 -0.34179,2.0303 -0.57422,2.5635c-0.20507,0.4648 -0.46256,0.6972 -0.77246,0.6972c-0.30533,0 -0.6608,-0.22787 -1.0664,-0.6836c-0.39193,-0.44207 -0.73599,-0.9821 -1.0322,-1.6201c-0.77927,0.9798 -1.6702,1.81833 -2.6728,2.5156l-1.0049,-1.0322c0.87047,-0.52407 1.6338,-1.1393 2.29,-1.8457c-1.11653,0.43753 -2.58853,0.84997 -4.416,1.2373l-0.45117,-1.2715c1.9004,-0.3144 3.5433,-0.68353 4.9287,-1.1074l0.0479,1.0117c0.24609,-0.2734 0.49219,-0.59013 0.73828,-0.9502c-0.38281,-1.32613 -0.64486,-3.2607 -0.78613,-5.8037h-4.4912v0.9707h-1.1074v4.4981c0.41927,-0.1732 0.80207,-0.33727 1.1484,-0.4922l0.15039,1.3398c-1.35353,0.72007 -2.70477,1.3034 -4.0537,1.75l-0.49218,-1.4424c0.51497,-0.1458 1.12111,-0.34403 1.8184,-0.5947v-5.0586h-1.6064v-1.3603h1.6064v-3.2881h1.4287v3.2881h0.97754v-0.8682h4.5596l-0.0273,-0.4785c-0.0228,-0.43293 -0.0456,-1.07097 -0.0684,-1.9141h1.4014c0.02733,1.18493 0.0524,1.98247 0.0752,2.3926zM190.3446,414.2404v4.1289h-3.6504v-4.1289zM187.8563,415.3479v1.9277h1.3535v-1.9277z"/><path d="M197.19,411.3h3.6846c0.4056,-0.64713 0.71322,-1.16893 0.92286,-1.5654l1.5244,0.2187c-0.13672,0.24613 -0.37826,0.6472 -0.72461,1.2032l-0.0889,0.1435h4.8193v1.3467h-5.7285c-0.597,0.82033 -1.16667,1.53127 -1.709,2.1328c0.86133,-0.51493 1.64747,-0.7724 2.3584,-0.7724c1.10287,0 1.8252,0.5537 2.167,1.6611c1.16667,-0.3874 2.35613,-0.7702 3.5684,-1.1484l0.58789,1.3261l-0.23926,0.068l-0.67676,0.1777c-1.27607,0.3464 -2.2969,0.64263 -3.0625,0.8887c0.05467,0.59247 0.0934,1.3581 0.11621,2.2969l-1.4971,0.082c-0.00467,-0.54233 -0.01377,-1.13023 -0.0273,-1.7637v-0.1367c-2.09633,0.71553 -3.1445,1.4356 -3.1445,2.1602c0,0.37367 0.26888,0.62887 0.80664,0.7656c0.51953,0.13213 1.44923,0.1982 2.7891,0.1982c1.235,0 2.53153,-0.07063 3.8896,-0.2119l0.16406,1.4561c-1.31707,0.10027 -2.68197,0.1504 -4.0947,0.1504c-1.74087,0 -2.97817,-0.13217 -3.7119,-0.3965c-0.90693,-0.32813 -1.3604,-0.9183 -1.3604,-1.7705c0,-0.72007 0.32129,-1.35583 0.96387,-1.9073c0.66537,-0.5696 1.8366,-1.15747 3.5137,-1.7636c-0.09115,-0.35093 -0.21191,-0.59703 -0.3623,-0.7383c-0.16862,-0.15953 -0.39193,-0.2393 -0.66993,-0.2393c-0.45117,0 -1.01853,0.1709 -1.7021,0.5127c-0.84307,0.41927 -1.7477,1.05047 -2.7139,1.8936l-0.90918,-1.0391c1.41733,-1.31707 2.52703,-2.61133 3.3291,-3.8828h-2.7822z"/><path d="M215.03,418v3.5889c0.91147,-0.3236 1.53127,-0.84087 1.8594,-1.5518c0.25521,-0.54687 0.39192,-1.59277 0.41015,-3.1377h1.374c-0.01367,1.80013 -0.20051,3.0534 -0.56054,3.7598c-0.48763,0.94793 -1.31933,1.66343 -2.4951,2.1465l-0.58789,-0.8067v0.01h-3.2676v0.7041h-1.3467v-4.71zM211.7624,419.1758v1.668h1.9209v-1.668zM218.4821,410.665v-1.2441h1.3877v1.2441h3.3291v1.2032h-3.3291v0.9707h2.9395v1.1758h-7.0957v-1.1758h2.7686v-0.9707h-3.2471v-1.2032zM223.1442,414.9512v2.8711h-1.374v-1.709h-4.9492v1.8183h-1.333v-2.9804zM210.6412,409.9131h4.1289v1.1484h-4.1289zM209.99862,411.916h5.332v1.2305h-5.332zM210.6412,414.0147h4.1289v1.1347h-4.1289zM210.6412,416.0176h4.1289v1.1074h-4.1289zM219.5006,416.8721h1.3193v4.0537c0,0.1276 0.0319,0.20507 0.0957,0.2324c0.10482,0.04533 0.22331,0.068 0.35547,0.068c0.30078,0 0.49674,-0.0433 0.58789,-0.1299c0.12305,-0.1094 0.20964,-0.72007 0.25977,-1.832l1.2373,0.4306c-0.041,1.22133 -0.17088,1.99607 -0.38965,2.3242c-0.13671,0.20513 -0.35546,0.34413 -0.65625,0.417c-0.25976,0.05933 -0.60613,0.089 -1.0391,0.089c-0.75193,0 -1.23727,-0.07747 -1.456,-0.2324c-0.20964,-0.1504 -0.31446,-0.4284 -0.31446,-0.834z"/><path d="M225.74,410.4h5.3457l0.95703,0.8134c-0.45117,1.5814 -0.82487,2.77087 -1.1211,3.5684c1.1348,0.1914 2.1807,0.5013 3.1377,0.9297c0.05467,-0.58787 0.082,-1.16437 0.082,-1.7295c0,-0.3008 -0.0091,-0.654 -0.0273,-1.0596l1.4971,0.1573c-0.00467,1.30333 -0.05708,2.39933 -0.15723,3.288c0.56511,0.29167 1.15757,0.63577 1.7774,1.0323l-0.5879,1.456c-0.4375,-0.319 -0.91147,-0.63573 -1.4219,-0.9502c-0.35091,1.35353 -0.91145,2.40627 -1.6816,3.1582c-0.54687,0.5378 -1.29427,1.01177 -2.2422,1.4219l-0.85449,-1.1484c1.11653,-0.47853 1.9414,-1.08923 2.4746,-1.8321c0.41927,-0.5924 0.72916,-1.36713 0.92969,-2.3242c-1.11653,-0.56053 -2.24673,-0.93877 -3.3906,-1.1347c-0.74287,2.03253 -1.488,3.57287 -2.2354,4.621c-0.56966,0.793 -1.20996,1.1895 -1.9209,1.1895c-0.68813,0 -1.22133,-0.32813 -1.5996,-0.9844c-0.28711,-0.50127 -0.43066,-1.09827 -0.43066,-1.791c0,-0.85673 0.22103,-1.62237 0.66308,-2.2969c0.52409,-0.80207 1.33073,-1.38767 2.4199,-1.7568c0.6289,-0.20967 1.333,-0.3236 2.1123,-0.3418c0.41927,-1.09373 0.74056,-2.07357 0.96387,-2.9395h-4.6895zM228.9734,415.9918c-0.58789,0.032 -1.09145,0.14363 -1.5107,0.3349c-0.65625,0.29167 -1.13931,0.7383 -1.4492,1.3399c-0.21875,0.4238 -0.32812,0.87497 -0.32812,1.3535c0,0.3828 0.07519,0.71547 0.22558,0.998c0.11393,0.22333 0.25065,0.335 0.41016,0.335c0.63802,0 1.52212,-1.45377 2.6523,-4.3613z"/><path d="M245.06,413.3h4.9356v1.4013h-4.9356v5.7149h6.2412v1.4287h-13.303v-1.4287h5.4072v-11.02h1.6543z"/><path d="M260.46,409.9h1.2305l0.29395,2.9805h2.7891v1.3877h-2.6728l0.0273,1.2441c0.00467,0.22333 0.007,0.3783 0.007,0.4649c0,1.88213 -0.278,3.27893 -0.83399,4.1904c-0.4375,0.7246 -1.07323,1.3125 -1.9072,1.7637c-0.22787,0.123 -0.50586,0.25743 -0.83399,0.4033l-0.92968,-1.1758c1.1302,-0.5104 1.91177,-1.13247 2.3447,-1.8662c0.42383,-0.71553 0.63575,-1.83437 0.63575,-3.3565c0,-0.04067 -0.00233,-0.2047 -0.007,-0.4921l-0.0342,-1.1758h-4.4912v-1.3877h4.4365zM253.3438,421.897c-0.22331,-1.71813 -0.33496,-3.59803 -0.33496,-5.6397c0,-2.16467 0.12761,-4.2838 0.38282,-6.3574l1.4834,0.1367c-0.23698,2.16473 -0.35547,4.2269 -0.35547,6.1865c0,1.9916 0.10938,3.81227 0.32813,5.462zM263.0372,412.2651c-0.20507,-0.72913 -0.5332,-1.49473 -0.98437,-2.2968l0.9707,-0.2666c0.43295,0.7428 0.77701,1.4993 1.0322,2.2695zM264.6163,411.7183c-0.25521,-0.86133 -0.60611,-1.6361 -1.0527,-2.3243l1.0117,-0.2529c0.44205,0.67907 0.79752,1.44013 1.0664,2.2832z"/><path d="M267.96,410.1h7.6699l0.73144,1.1348c-2.3698,1.4492 -4.42287,2.76627 -6.1592,3.9512c1.12107,-0.4694 2.24673,-0.7041 3.377,-0.7041c1.01627,0 1.86393,0.16177 2.543,0.4853c0.62891,0.3008 1.11881,0.71097 1.4697,1.2305c0.36458,0.5514 0.54687,1.18487 0.54687,1.9004c0,1.0026 -0.3418,1.84113 -1.0254,2.5156c-0.4694,0.4694 -1.07097,0.82487 -1.8047,1.0664c-0.9616,0.31447 -2.01433,0.4717 -3.1582,0.4717c-1.31707,0 -2.28777,-0.24383 -2.9121,-0.7315c-0.48763,-0.3828 -0.73144,-0.90003 -0.73144,-1.5517c0,-0.4922 0.17773,-0.9297 0.5332,-1.3125c0.53776,-0.5788 1.26466,-0.8682 2.1807,-0.8682c0.97067,0 1.74767,0.32583 2.331,0.9775c0.42383,0.474 0.72917,1.10977 0.91602,1.9073c1.40367,-0.4466 2.1055,-1.27147 2.1055,-2.4746c0,-0.91147 -0.38053,-1.58367 -1.1416,-2.0166c-0.51041,-0.29167 -1.15755,-0.4375 -1.9414,-0.4375c-1.1712,0 -2.2285,0.16177 -3.1719,0.4853c-0.69727,0.237 -1.6338,0.80893 -2.8096,1.7158l-0.96387,-1.1621c1.26693,-1.09373 2.70933,-2.20343 4.3272,-3.3291c1.11653,-0.77473 2.1009,-1.41047 2.9531,-1.9072h-5.8652zM273.1416,420.839c-0.32357,-1.28973 -0.9593,-1.9346 -1.9072,-1.9346c-0.52409,0 -0.90235,0.16633 -1.1348,0.499c-0.10937,0.1504 -0.16406,0.3122 -0.16406,0.4854c0,0.36 0.25521,0.63117 0.76562,0.8135c0.36915,0.1276 0.86361,0.1914 1.4834,0.1914c0.26433,0 0.58334,-0.01833 0.95703,-0.055z"/></g></g></g></g></svg>