<?xml version="1.0" encoding="UTF-8"?>
<svg width="480" height="360" version="1.1" viewBox="0 0 480 360" xmlns="http://www.w3.org/2000/svg">
 <g fill="#fff" aria-label="淡路島南部">
  <path d="m252.94 180.55v0.14649q0.0391 2.2949 1.2891 3.9844 0.66406 0.88868 2.0605 1.6016 1.5332 0.78125 3.5254 1.2012l-1.2207 2.0215q-5.1074-1.5039-6.5137-5.0098-0.70313 2.0508-2.1875 3.2422-1.5234 1.2012-4.4141 1.9238l-1.1621-1.7383q3.7891-0.82031 5.1465-2.3828 1.377-1.582 1.377-5.0781v-1.6602h2.0996zm-0.30273-5.7324q3.3594 1.7285 6.7578 3.9648l-1.416 1.6016q-3.0762-2.2852-6.0449-4.0137-0.81055 1.3672-1.7285 2.1289-1.4941 1.25-4.1504 2.1582l-1.1035-1.6992q3.0664-0.77149 4.541-2.4219 1.3477-1.5234 1.3477-4.6191v-1.416h2.0996v1.1816q0 1.6699-0.30273 3.1348zm-8.7207 0.26367q-1.2988-1.7285-2.9199-3.0762l1.4551-1.3672q1.6113 1.1426 3.0469 2.9199zm-0.72266 5.0586q-1.3965-1.8262-2.998-3.1348l1.5039-1.4648q1.6992 1.2695 3.0957 3.0371zm-2.5977 7.8418q1.6797-2.6367 3.1836-6.7578l1.7383 1.1816q-1.2988 3.8574-3.0859 7.0801zm5.1562-12.52q1.25-1.6602 1.6797-3.7793l1.9238 0.43945q-0.71289 2.6758-1.8848 4.3164zm8.4473-0.91796q1.2207-1.2793 2.373-3.3203l2.0215 0.91797q-1.377 2.0898-2.7832 3.3789zm-8.5644 9.6973q1.2012-1.4844 1.9434-3.623l1.7969 0.45899q-0.61523 2.5391-2.041 4.2188zm8.3008-0.66406q1.3281-1.5137 2.3438-3.3789l1.9531 0.98633q-1.5723 2.2363-2.7734 3.4375z"/>
  <path d="m275.41 177.37q1.875 1.4648 4.3945 2.4609l-0.9082 1.6992q-2.8418-1.1621-4.7656-2.8906-0.51758 0.44922-0.89844 0.75195-1.6992 1.3086-4.0527 2.2559l-0.97656-1.6211q2.5586-0.84961 4.6289-2.6856-0.92773-1.1035-1.543-2.0996-0.73242 0.82031-1.5918 1.4844l-1.1524-1.5234q2.3438-1.6113 3.5742-4.7754l1.9824 0.32226q-0.20507 0.43946-0.35156 0.76172h3.5742l1.1523 1.0547q-1.2012 2.6856-3.0664 4.8047zm-1.3574-1.2402q1.1621-1.3086 1.9922-2.8027h-3.3203q-0.30273 0.46875-0.38086 0.57617 0.73242 1.2207 1.709 2.2266zm-5.5957-4.9316v6.7774h-2.4414v2.9785h2.4805v1.7578h-2.4805v3.4473q0.99609-0.22461 2.7832-0.75195l0.15625 1.7285q-3.8574 1.2891-7.9785 2.1191l-0.61523-1.9043q0.85937-0.14649 0.97656-0.17579v-7.5781h1.7578v7.2266q0.50782-0.0976 1.1035-0.23437v-8.6133h-2.998v-6.7774zm-5.3613 1.7969v3.2617h3.5254v-3.2617zm15.146 8.623v7.8809h-1.9629v-1.084h-4.5508v1.084h-1.9629v-7.8809zm-6.5137 1.7774v3.2422h4.5508v-3.2422z"/>
  <path d="m287.74 171.98q0.36133-0.86914 0.58594-1.6602l2.3828 0.32226q-0.34179 0.81055-0.625 1.3379h6.5039v6.3672h-11.797v0.98633h14.697v1.582h-14.697v0.99609h14.014q-0.12696 4.4727-0.56641 6.0352-0.2832 0.99609-1.0644 1.3184-0.55664 0.23437-1.6992 0.23437-1.1719 0-2.1875-0.14648l-0.39063-1.6406h-9.7852v1.084h-2.0996v-4.6973h2.0996v2.0117h3.3594v-2.6367h-3.8379v-11.494zm4.1504 14.131v-2.0117h2.0215v3.3984q0.81054 0.0781 1.3476 0.0781 0.66407 0 0.83008-0.38085 0.32227-0.7129 0.50781-3.7207h-8.0273v2.6367zm-7.0996-12.627v0.96679h9.6387v-0.96679zm0 2.3633v1.0644h9.6387v-1.0644z"/>
  <path d="m308.91 182.24h-4.043v-1.6016h1.9531q-0.43945-0.9961-0.99609-1.8555l1.7578-0.64453q0.76172 1.2793 1.2305 2.5h2.2949q0.57617-1.1816 1.0156-2.5391l1.9629 0.61524q-0.49805 1.0742-1.0547 1.9238h2.0996v1.6016h-4.1797v1.4258h4.4531v1.6602h-4.4531v3.6914h-2.041v-3.6914h-4.2871v-1.6602h4.2871zm2.0996-6.0156h7.4023v11.416q0 1.0059-0.53711 1.416-0.44922 0.35157-1.5137 0.35157-1.377 0-2.6562-0.14649l-0.47852-1.9629q1.709 0.20508 2.5586 0.20508 0.35156 0 0.41015-0.17578 0.0391-0.10742 0.0391-0.30274v-9.1016h-12.48v11.582h-2.1777v-13.281h7.2754v-1.7676h-8.3594v-1.8164h8.3594v-2.1387h2.1582v2.1387h8.4766v1.8164h-8.4766z"/>
  <path d="m326.98 172.76h4.1797v1.8848h-1.377q-0.3711 1.4941-0.9961 3.1348h2.6074v1.8848h-10.898v-1.8848h2.3926q-0.39063-1.875-0.82032-3.1348h-1.2695v-1.8848h4.1406v-2.2559h2.041zm-2.9394 1.8848q0.49805 1.4551 0.77148 3.1348h1.9922l0.0977-0.27344q0.41992-1.1133 0.78125-2.5293l0.0879-0.33203zm6.0547 6.6602v7.998h-2.002v-0.95703h-4.2578v1.1621h-2.0605v-8.2031zm-6.2598 1.7969v3.3887h4.2578v-3.3887zm13.047-4.9316q1.1621 1.1035 1.8457 2.627 0.67383 1.5234 0.67383 3.0859 0 1.4453-0.53711 2.1289-0.55664 0.71289-1.8359 0.71289-1.0938 0-2.1191-0.15625l-0.47851-2.0801q1.1816 0.21485 1.9531 0.21485 0.58594 0 0.73242-0.27344 0.0977-0.19531 0.0977-0.78125 0-2.4121-1.4453-4.1602-0.38086-0.45898-0.95704-0.98633l0.11719-0.27343q1.0156-2.2949 1.582-4.7852h-2.5v16.064h-2.0215v-18.086h5.8789l1.084 0.99609q-0.98633 3.3594-2.0703 5.752z"/>
 </g>
</svg>
