<svg version="1.1" xmlns="http://www.w3.org/2000/svg" xmlns:xlink="http://www.w3.org/1999/xlink" width="208" height="32" viewBox="0,0,208,32"><g transform="translate(-240,-164)"><g data-paper-data="{&quot;isPaintingLayer&quot;:true}" fill-rule="nonzero" stroke="none" stroke-linecap="butt" stroke-linejoin="miter" stroke-miterlimit="10" stroke-dasharray="" stroke-dashoffset="0" style="mix-blend-mode: normal"><path d="M240,196v-32h208v32z" fill="none" stroke-width="0"/><path d="M242.18,173.45c0.58594,-0.97007 1.13281,-1.9987 1.6406,-3.0859l2.1094,0.45898c-0.46875,0.8854 -1.02215,1.7285 -1.6602,2.5293c1.26953,-0.07813 2.32423,-0.15951 3.1641,-0.24414c-0.22787,-0.26693 -0.56317,-0.63476 -1.0059,-1.1035l1.4356,-0.88867c1.1068,0.9896 2.0671,2.07683 2.8809,3.2617l-1.5234,1.084c-0.28646,-0.42317 -0.54037,-0.78451 -0.76172,-1.084c-2.31773,0.33203 -4.87633,0.57943 -7.6758,0.74219l-0.49805,-1.6211c0.6966,-0.013 1.21093,-0.02603 1.543,-0.0391c0.15625,-0.00667 0.27344,-0.01 0.35156,-0.01zM249.2503,175.7644v6.9141c0,0.52083 -0.12044,0.89193 -0.36133,1.1133c-0.23437,0.20833 -0.64454,0.3125 -1.2305,0.3125c-0.66406,0 -1.36066,-0.05534 -2.0898,-0.16601l-0.3418,-1.5918c0.67707,0.11719 1.23047,0.17578 1.6602,0.17578c0.20833,0 0.33203,-0.07812 0.37109,-0.23437c0.01953,-0.07162 0.0293,-0.16602 0.0293,-0.28321v-0.83984h-3.6035v3.0566h-2.0215v-8.457zM243.6839,177.0828v0.85937h3.6035v-0.85937zM243.6839,179.1433v0.85938h3.6035v-0.85938zM252.8245,172.5613c1.556,-0.41667 2.9948,-0.931 4.3164,-1.543l1.2402,1.4453c-1.9922,0.77473 -3.8444,1.34113 -5.5566,1.6992v0.61523c0,0.34505 0.08789,0.55664 0.26367,0.63477c0.1888,0.07812 0.79427,0.11718 1.8164,0.11718c1.12633,0 1.7904,-0.05859 1.9922,-0.17578c0.15625,-0.08463 0.25391,-0.26041 0.29297,-0.52734c0.01953,-0.11719 0.0521,-0.52735 0.0977,-1.2305l1.8555,0.60547c-0.013,1.34767 -0.24737,2.181 -0.70312,2.5c-0.48828,0.33854 -1.76108,0.50781 -3.8184,0.50781c-1.59507,0 -2.63023,-0.09766 -3.1055,-0.29297c-0.47526,-0.20182 -0.71289,-0.63475 -0.71289,-1.2988v-5.0976h2.0215zM252.8245,179.2801c1.7448,-0.42969 3.2845,-0.96355 4.6191,-1.6016l1.377,1.4258c-2.07033,0.8268 -4.06903,1.416 -5.9961,1.7676v0.79102c0,0.27343 0.11393,0.44921 0.34179,0.52734c0.23437,0.07161 0.78451,0.10742 1.6504,0.10742c0.9896,0 1.66667,-0.03906 2.0312,-0.11719c0.32552,-0.06507 0.52083,-0.27014 0.58594,-0.61523c0.0456,-0.24089 0.08141,-0.65429 0.10742,-1.2402l1.8652,0.63476c-0.013,1.34767 -0.20506,2.1875 -0.57618,2.5195c-0.23437,0.20833 -0.63151,0.35156 -1.1914,0.42969c-0.67707,0.08463 -1.60807,0.12695 -2.793,0.12695c-1.70573,0 -2.80927,-0.0944 -3.3106,-0.2832c-0.48828,-0.18229 -0.73242,-0.59896 -0.73242,-1.25v-4.9023h2.0215zM240.4025,188.4207c0.91147,-1.02213 1.66017,-2.26237 2.2461,-3.7207l2.0996,0.76171c-0.55989,1.6992 -1.29556,3.09243 -2.207,4.1797zM247.2677,189.5047c-0.3125,-1.63413 -0.63476,-2.94923 -0.96679,-3.9453l2.2266,-0.49805c0.5013,1.3802 0.85937,2.67903 1.0742,3.8965zM252.3263,189.2215c-0.41667,-1.30207 -0.96353,-2.5488 -1.6406,-3.7402l1.9824,-0.6836c0.70313,1.04167 1.32163,2.26237 1.8555,3.6621zM257.5411,189.2606c-0.70313,-1.46487 -1.50067,-2.7572 -2.3926,-3.877l1.9141,-0.94727c1.0156,1.11327 1.9238,2.3893 2.7246,3.8281z" fill="#ffffff" stroke-width="1"/><path d="M271.78,176.02c2.1354,3.112 4.7591,5.60223 7.8711,7.4707l-1.3867,1.8848c-3.1836,-2.33073 -5.60547,-4.85027 -7.2656,-7.5586v5.957h4.0039v1.9238h-3.9648v3.8086h-2.1973v-3.8086h-3.7402v-1.9238h3.7793v-5.8594c-1.60153,2.96227 -3.94853,5.60873 -7.041,7.9394l-1.416,-1.7578c3.14453,-2.08333 5.6901,-4.7754 7.6367,-8.0762h-7.0801v-2.002h7.8418v-3.5156h2.2363v3.5156h7.9688v2.002z" fill="#ffffff" stroke-width="1"/><path d="M296.76,170.98v9.4629h-11.621v-9.4629zM287.2385,172.523v1.2207h7.4023v-1.2207zM287.2385,175.1207v1.2207h7.4023v-1.2207zM287.2385,177.7183v1.2598h7.4023v-1.2598zM283.3029,181.7417h16.191v1.6992h-8.0762v6.0644h-2.2168v-6.0644h-8.0371v-10.957h2.1387zM280.8029,187.6401c1.54947,-0.71613 3.0306,-1.9173 4.4434,-3.6035l1.7969,1.0449c-1.3932,1.76433 -2.93943,3.15107 -4.6387,4.1602zM297.6389,188.8999c-0.99607,-1.22393 -2.49347,-2.50973 -4.4922,-3.8574l1.6797,-1.1816c1.569,0.90493 3.1087,2.09307 4.6191,3.5644z" fill="#ffffff" stroke-width="1"/><path d="M311.65,179.66c0.67707,1.569 1.5462,2.89387 2.6074,3.9746c1.4518,1.49087 3.15753,2.67903 5.1172,3.5645l-1.416,2.041c-3.7956,-2.05727 -6.36397,-4.72327 -7.7051,-7.998c-1.14587,3.6914 -3.7891,6.4388 -7.9297,8.2422l-1.4258,-1.9238c2.24607,-0.70313 4.07873,-1.8978 5.498,-3.584c1.02213,-1.2044 1.71873,-2.6432 2.0898,-4.3164h-6.7871v-1.9629h7.1191v-4.1113h-7.8223v-1.9629h18.018v1.9629h-7.9394v4.1113h7.2461v1.9629z" fill="#ffffff" stroke-width="1"/><path d="M331.05,182.86v1.543h8.4473v1.7773h-8.4473v3.3203h-2.2363v-3.3203h-8.3203v-1.7773h8.3203v-1.543h-6.2598v-7.4609h14.883v7.4609zM324.673,176.903v1.4551h10.664v-1.4551zM324.673,179.8229v1.5332h10.664v-1.5332zM325.6691,172.0006v-1.5039h2.1289v1.5039h4.2383v-1.5039h2.1582v1.5039h4.8633v1.6797h-4.8633v1.1719h-2.1582v-1.1719h-4.2383v1.1719h-2.1289v-1.1719h-4.7559v-1.6797z" fill="#ffffff" stroke-width="1"/><path d="M345.02,177.79c0.50781,0 0.96681,0.16927 1.377,0.50781c0.54037,0.44271 0.81055,1.00911 0.81055,1.6992c0,0.42318 -0.12044,0.81705 -0.36133,1.1816c-0.43619,0.67707 -1.05469,1.0156 -1.8555,1.0156c-0.35156,0 -0.68686,-0.08464 -1.0059,-0.25391c-0.2539,-0.13021 -0.46874,-0.30273 -0.64453,-0.51758c-0.35807,-0.42317 -0.53711,-0.90494 -0.53711,-1.4453c0,-0.7552 0.31576,-1.35417 0.94727,-1.7969c0.37761,-0.26041 0.80077,-0.39062 1.2695,-0.39062z" fill="#ffffff" stroke-width="1"/><path d="M355.81,172.04v-1.543h2.1387v1.543h3.9648v-1.543h2.1582v1.543h4.9414v1.7188h-4.9414v1.0742h-2.1582v-1.0742h-3.9648v1.3379h-2.1387v-1.3379h-4.8535v-1.7188zM366.816,175.1748l1.1719,1.748c-4.04947,0.33203 -8.1218,0.55012 -12.217,0.65429l-1.0156,0.0293v1.5723h12.939v6.6602h-2.1777v-1.2207h-10.957c-0.1237,0.73567 -0.29623,1.38997 -0.51758,1.9629c-0.41667,1.08073 -1.1263,2.07357 -2.1289,2.9785l-1.7188,-1.582c0.97007,-0.89193 1.62437,-1.92383 1.9629,-3.0957c0.26693,-0.8984 0.40039,-1.98563 0.40039,-3.2617v-5.5762l0.74219,-0.0195c5.29947,-0.13021 9.8048,-0.41341 13.516,-0.84961zM365.5172,180.8193h-10.762v0.95703c0,0.46224 -0.00977,0.84311 -0.0293,1.1426h10.791z" fill="#ffffff" stroke-width="1"/><path d="M375.84,184.3c-1.79687,0.944 -3.36263,1.66667 -4.6973,2.168l-0.82031,-2.1484c2.08987,-0.70313 3.92907,-1.4323 5.5176,-2.1875v-4.375h-4.834v-2.0606h4.834v-5.1953h2.1777v19.004h-2.1777zM382.7834,176.6926c1.51693,-0.79427 2.9883,-1.80337 4.4141,-3.0273l1.6211,1.6992c-1.92707,1.3672 -3.9388,2.53257 -6.0352,3.4961v7.3242c0,0.31901 0.10417,0.51433 0.3125,0.58594c0.22135,0.07161 0.73242,0.10742 1.5332,0.10742c1.05467,0 1.71547,-0.06185 1.9824,-0.18555c0.1888,-0.08463 0.31901,-0.3483 0.39062,-0.79101c0.09766,-0.61849 0.16928,-1.61783 0.21485,-2.998l2.1875,0.67383c-0.06513,1.6862 -0.1693,2.89713 -0.3125,3.6328c-0.16276,0.82033 -0.58919,1.35093 -1.2793,1.5918c-0.65755,0.22135 -1.73502,0.33203 -3.2324,0.33203c-1.7578,0 -2.86457,-0.14648 -3.3203,-0.43945c-0.4362,-0.28646 -0.6543,-0.83659 -0.6543,-1.6504v-16.543h2.1777z" fill="#ffffff" stroke-width="1"/></g></g></svg>