<svg version="1.1" xmlns="http://www.w3.org/2000/svg" xmlns:xlink="http://www.w3.org/1999/xlink" width="224" height="368" viewBox="0,0,224,368"><g transform="translate(-128,-180)"><g data-paper-data="{&quot;isPaintingLayer&quot;:true}" stroke="none" stroke-width="1" stroke-linecap="butt" stroke-linejoin="miter" stroke-miterlimit="10" stroke-dasharray="" stroke-dashoffset="0" style="mix-blend-mode: normal"><g><path d="M342,210l10,2v336h-224v-336l10,-2z" fill="#1d2a41" fill-rule="evenodd"/><path d="M138,180h204c5.54,0 10,4.46 10,10v22h-224v-22c0,-5.54 4.46,-10 10,-10z" fill="#31476d" fill-rule="evenodd"/><path d="M164.69313,192.0663h1.5156v1.7519l0.76172,-0.2637v-4.2382h1.7852v3.623l1.4805,-0.502v-4.1445h1.7695v3.5313l2.5293,-0.8692l0.9082,0.5528v5.9082c0,0.4221 -0.09983,0.7542 -0.31641,0.9765h-0.002c-0.24655,0.2466 -0.64212,0.3574 -1.1719,0.3574c-0.42766,0 -0.88104,-0.0353 -1.3594,-0.1093l-0.0703,-0.012l-0.29688,-1.7149l0.15039,0.037c0.29932,0.0763 0.6026,0.1153 0.91211,0.1153c0.10777,0 0.1912,-0.013 0.2461,-0.031c0.0549,-0.019 0.077,-0.039 0.0879,-0.059h0.004c0.0322,-0.0483 0.0625,-0.1631 0.0625,-0.3359v-3.5547l-1.6836,0.5859v6.3496h-1.7695v-5.7402l-1.4805,0.5156v6.1172c0,0.1862 0.04043,0.3238 0.11133,0.4238c0.07086,0.0998 0.17409,0.1681 0.32812,0.2051c0.3269,0.0819 1.1429,0.1309 2.4062,0.1309c1.2301,0 2.04631,-0.0677 2.4141,-0.1836c0.18366,-0.0597 0.3072,-0.2192 0.3711,-0.5313c0.08707,-0.461 0.13367,-1.0103 0.13867,-1.6465v-0.1308l1.8359,0.5176l-0.004,0.08c-0.0837,1.5433 -0.28197,2.5323 -0.6543,3.002c-0.24251,0.3046 -0.61045,0.4831 -1.082,0.5371c-0.7221,0.0792 -1.9346,0.1172 -3.6445,0.1172c-1.3247,0 -2.18952,-0.0353 -2.6191,-0.1113c-0.63936,-0.1083 -1.07606,-0.4051 -1.2559,-0.8828c-0.08916,-0.251 -0.13086,-0.5731 -0.13086,-0.9707v-6.0547l-1.4629,0.5058l-0.41601,-1.7109l1.0195,-0.3516h-1.418v4.7266c0.50031,-0.173 0.99865,-0.351 1.4902,-0.5371l0.1211,-0.047l0.16992,1.709l-0.0664,0.031c-1.6918,0.7729 -3.4284,1.4193 -5.209,1.9414l-0.0918,0.027l-0.61133,-1.8574l0.10352,-0.027c0.7994,-0.2076 1.50018,-0.4032 2.1016,-0.5898c0.04458,-0.016 0.07688,-0.024 0.11328,-0.035v-5.3418h-1.9844v-1.7851h1.9844v-3.7735l1.8789,-0.01zM201.34119,188.3007v1.5391h6.0312v1.543h-6.0312v0.9023h5.2344v1.5117h-5.2344v0.9805h6.8672v1.5586h-1.6465l0.99219,0.6836l-0.0859,0.086c-0.7209,0.6998 -1.7255,1.4599 -3.0156,2.2852l-0.043,0.027c0.9572,0.8473 2.2103,1.5688 3.8262,2.1309l0.12109,0.041l-1.1719,1.7637l-0.0762,-0.033c-1.7385,-0.7373 -3.1324,-1.6693 -4.2266,-2.7715l0.0977,1.2402l-0.0723,0.025c-2.2661,0.7989 -4.7848,1.4563 -7.5547,1.9727l-0.082,0.016l-0.65039,-1.7559l0.1211,-0.02c0.458,-0.0697 1.12353,-0.1845 1.9473,-0.3359v-2.627c-0.8809,0.4386 -1.8953,0.8577 -3.0879,1.252l-0.0742,0.023l-1.0059,-1.5703l0.13282,-0.035c2.3413,-0.6328 4.1079,-1.4447 5.3984,-2.3984h-5.3164v-1.5586h6.6953v-0.9805h-5.0625v-1.5117h5.0625v-0.9023h-5.8594v-1.543h5.8594v-1.5391zM312.44242,188.3001v1.7422h6.1172v3.8164h-1.6953v1.0391h-4.3906v2.1914h5.3516v1.6523h-5.3516v2.4942c0.853,0.1369 1.7766,0.2129 2.7832,0.2129h4.2168l-0.0723,0.1445c-0.25666,0.5133 -0.44704,1.0548 -0.57031,1.625l-0.0176,0.078h-3.5723c-2.1226,0 -3.8042,-0.2527 -5.0469,-0.7656c-1.1617,-0.479 -2.11752,-1.274 -2.8848,-2.3496c-0.6066,1.4057 -1.33261,2.6044 -2.207,3.5449l-0.0762,0.082l-1.3398,-1.6074l0.0586,-0.064c1.4536,-1.5722 2.36231,-3.6071 2.7246,-6.1172l0.0156,-0.1l1.9766,0.3047l-0.0215,0.1015c-0.16291,0.8044 -0.32095,1.4682 -0.47461,2.0117c0.5923,1.0392 1.4587,1.8037 2.582,2.3282v-5.7676h-4.3359v-1.0391h-1.6953v-3.8164h5.9844v-1.7422zM266.67695,188.62v2.1563h4.6094v1.707h-4.6094v3.2422c0.17844,0.6349 0.27344,1.2068 0.27344,1.7109c0,1.8689 -0.41191,3.2587 -1.2539,4.1543c-0.9092,0.9729 -2.271,1.6385 -4.0762,2.0059l-0.0644,0.014l-1.0137,-1.5098l0.14844,-0.027c1.3825,-0.2641 2.40234,-0.6391 3.0547,-1.1094c0.51647,-0.376 0.81966,-0.9196 1.0488,-1.5254c-0.20035,0.173 -0.40799,0.3246 -0.63281,0.4277c-0.3298,0.193 -0.6803,0.3262 -1.0762,0.3262c-0.8835,0 -1.61369,-0.2522 -2.1699,-0.7598c-0.65347,-0.5995 -0.97657,-1.4718 -0.97657,-2.5898c0,-0.5941 0.1411,-1.1674 0.42383,-1.7168h0.002c0.18741,-0.3534 0.41954,-0.6507 0.69532,-0.8887c0.6321,-0.5356 1.39582,-0.8047 2.2754,-0.8047c0.5077,0 0.96163,0.1459 1.3848,0.3653v-1.3145h-7.7109v-1.707h7.7109v-2.1566zM300.69974,192.7622c0,0.0809 0.0075,0.1445 0.0176,0.1855c0.0097,0.04 0.02054,0.055 0.0215,0.055h0.002c0.03683,0.028 0.1338,0.059 0.28906,0.059c0.22005,0 0.35056,-0.044 0.37696,-0.068h0.006c-0.0075,0.006 0.0173,-0.022 0.0332,-0.082c0.0159,-0.0601 0.029,-0.1498 0.0391,-0.2637c0.0519,-0.5977 0.0809,-1.059 0.0859,-1.3828l0.002,-0.1347l1.6602,0.5234l-0.002,0.074c-0.00523,0.602 -0.04379,1.1771 -0.11719,1.7227c-0.04112,0.3319 -0.15349,0.6062 -0.33984,0.8125c-0.18673,0.2067 -0.44545,0.3413 -0.76367,0.4043c-0.26802,0.055 -0.65419,0.08 -1.168,0.08c-0.73232,0 -1.23237,-0.0836 -1.5195,-0.2929c-0.24773,-0.1813 -0.36133,-0.5057 -0.36133,-0.9395v-3.0332h-1.7539v0.064c0,1.0645 -0.11372,1.9491 -0.34765,2.6562h-0.002c-0.2664,0.7779 -0.73411,1.4398 -1.3984,1.9766l-0.0703,0.057l-1.2793,-1.2812l0.0977,-0.068c0.63507,-0.4435 1.02526,-1.0764 1.1777,-1.9199c0.07152,-0.4033 0.10742,-0.9006 0.10742,-1.4902v-1.6157h5.207zM247.48307,188.8611h0.0996v5.2305h-0.85742l0.008,0.014c0.35271,0.6046 0.61528,1.1435 0.80468,1.6308h1.4512c0.30687,-0.5796 0.55663,-1.1303 0.73633,-1.6445h-0.77929v-5.2305h6.5195v13.201c0,0.6006 -0.15701,1.039 -0.49414,1.2773h-0.002c-0.25688,0.1808 -0.63692,0.2598 -1.1426,0.2598c-0.46804,0 -0.93638,-0.031 -1.4043,-0.094l-0.0703,-0.01l-0.31446,-1.6543l-0.86914,1.0078l-0.0762,-0.076c-0.7562,-0.751 -1.64127,-1.483 -2.6348,-2.2011c-0.27701,0.562 -0.65655,1.0741 -1.1836,1.5117c-0.5705,0.4745 -1.365,0.8873 -2.3828,1.2441l-0.0723,0.025l-0.99023,-1.4433l0.13476,-0.037c1.7727,-0.4853 2.80444,-1.3387 3.2129,-2.5234h-3.457v-1.4648h3.6797v-0.7618h-3.2656v-1.3867h1.5664c-0.17932,-0.3441 -0.36594,-0.676 -0.57226,-0.9765l-0.0723,-0.1055l1.4805,-0.5625h-3.5v9.6094h-1.8789v-14.84zM293.9192,188.877v1.5117h-5.1602v-1.5121zM228.45995,189.1931l-0.0195,0.1054c-0.42057,2.3261 -0.63086,4.9534 -0.63086,7.8809c0,1.965 0.10998,3.8029 0.32812,5.5117l0.0117,0.098l-1.8809,0.2402l-0.0996,0.012l-0.0117,-0.1c-0.19827,-1.7745 -0.29687,-3.5392 -0.29687,-5.293c0,-3.0049 0.22039,-5.8588 0.66406,-8.5625l0.0156,-0.094zM191.3976,189.0328h0.0996v14.668h-1.9414v-0.8203h-10.176v0.8203h-1.9258v-14.668zM222.216,189.166v1.7383h-11.496v-1.7387zM283.3037,189.1669l0.91992,1.4277l-0.0859,0.055c-2.5351,1.5504 -4.6882,2.9397 -6.5879,4.2246c1.1142,-0.401 2.2318,-0.6992 3.3555,-0.6992c1.172,0 2.15567,0.1862 2.9492,0.5644c0.73249,0.3503 1.30726,0.8303 1.7188,1.4395h0.002c0.42764,0.6468 0.64063,1.3918 0.64063,2.2265c0,1.1686 -0.40231,2.1571 -1.2012,2.9454c-0.5488,0.5487 -1.2508,0.964 -2.1016,1.2441c-1.1101,0.363 -2.3242,0.543 -3.6406,0.543c-1.5175,0 -2.65017,-0.279 -3.3906,-0.8575c-0.57897,-0.4544 -0.87304,-1.0818 -0.87304,-1.8515c0,-0.5866 0.21396,-1.1152 0.63476,-1.5684c0.6338,-0.6822 1.4985,-1.0234 2.5664,-1.0234c1.1318,0 2.05325,0.385 2.7383,1.1504c0.47219,0.528 0.79488,1.2498 1.0137,2.1074c0.74122,-0.2491 1.31779,-0.5811 1.6875,-1.0156c0.38549,-0.4531 0.57813,-1.0057 0.57813,-1.6739c0,-1.0137 -0.41032,-1.7369 -1.2539,-2.2167c-0.5642,-0.3224 -1.28647,-0.4864 -2.1699,-0.4864c-1.3293,0 -2.5257,0.1832 -3.5918,0.5489h-0.002c-0.7763,0.2638 -1.8421,0.9121 -3.1816,1.9453l-0.0762,0.059l-1.2246,-1.4786l0.0742,-0.064c1.451,-1.2527 3.1017,-2.5224 4.9531,-3.8106c1.1691,-0.8111 2.1764,-1.4522 3.0938,-1.998h-6.4648v-1.7387zM243.036,190.8609h2.8086v-0.6289h-2.8086zM250.7001,190.8609h2.8867v-0.6289h-2.8867zM238.5521,190.4551v1.8633h-7.707v-1.8637zM179.38045,201.1757h1.332l-1.1172,-1.3555l0.13868,-0.047c1.2747,-0.4151 2.4005,-1.0246 3.4141,-1.7832l-0.0977,-0.047c-1.0085,-0.4835 -2.1122,-0.9726 -3.3086,-1.4668l-0.10742,-0.043l0.82226,-1.3594l0.0781,0.029c0.28946,0.1054 0.53096,0.2243 0.8125,0.332l-0.0137,-0.045c-0.37339,-1.2344 -0.79889,-2.2753 -1.2734,-3.1211l-0.0547,-0.1l1.6562,-0.6601l0.043,0.076c0.50914,0.9029 0.95399,1.9472 1.3359,3.1348l0.0273,0.09l-1.6016,0.6446l-0.0352,0.014c0.9957,0.3825 1.98683,0.7655 2.8828,1.1757l0.23243,0.1075c1.2819,-1.3656 2.2569,-3.1353 2.9121,-5.3262l0.0293,-0.096l1.748,0.5449l-0.0312,0.096c-0.7484,2.2351 -1.7502,4.0942 -2.9902,5.5957c0.016,0.008 0.0333,0.015 0.0488,0.025h0.004c0.7376,0.3664 1.7002,0.9006 2.8926,1.6035l0.0937,0.055l-1.0625,1.4766l-0.0801,-0.047c-0.9842,-0.5998 -2.0552,-1.2061 -3.207,-1.8164c-1.1156,0.9311 -2.4777,1.703 -4.1113,2.3008l-0.0254,0.01h8.7891v-10.488h-10.176zM184.3744,190.9726c0.60254,1.0478 1.04892,2.0847 1.3379,3.1093l0.0234,0.084l-1.5176,0.6602l-0.0996,0.045l-0.0352,-0.1055c-0.38398,-1.1985 -0.81345,-2.2435 -1.2891,-3.1328l-0.0527,-0.098l1.5898,-0.6368zM294.623,191.168v1.6054h-6.7617v-1.6078zM306.4273,193.2125h10.207v-1.5039h-10.207zM243.0363,192.7594h2.8086v-0.6602h-2.8086zM250.7004,192.7594h2.8867v-0.6602h-2.8867zM224.09931,193.4014v1.7539h-6.5781v6.8301c0,0.6437 -0.12689,1.1037 -0.41601,1.3633c-0.2753,0.2389 -0.7594,0.3359 -1.457,0.3359c-0.7854,0 -1.53202,-0.0484 -2.2402,-0.1484l-0.0703,-0.01l-0.37891,-1.8613l0.14258,0.024c0.7243,0.1186 1.41742,0.1796 2.0781,0.1796c0.2086,0 0.31273,-0.046 0.33593,-0.074c0.0233,-0.0395 0.0488,-0.1339 0.0488,-0.2793v-6.3613h-6.7188v-1.7539zM293.9196,193.566v1.4941h-5.1602v-1.496zM251.4747,194.4897l-0.0469,0.1055c-0.19863,0.4389 -0.41062,0.8052 -0.62695,1.1406h1.6738v1.3867h-3.3594v0.7618h3.7812v1.4648h-3.5918c1.0525,0.5991 2.06479,1.2565 3.0078,2.0176l0.0801,0.064l-0.23633,0.2735c0.40373,0.0665 0.79231,0.1015 1.1641,0.1015c0.10608,0 0.16768,-0.025 0.20508,-0.062c0.0374,-0.0365 0.0625,-0.0945 0.0625,-0.1972v-7.4551h-3.5195zM263.38241,195.0367c-0.26272,0 -0.50422,0.0718 -0.73437,0.2188h-0.002c-0.54657,0.3428 -0.8125,0.8531 -0.8125,1.5722c0,0.454 0.1005,0.8285 0.29688,1.1328c0.2755,0.4231 0.66368,0.627 1.2051,0.627c0.48567,0 0.85472,-0.2087 1.1426,-0.6504c0.20219,-0.3107 0.30468,-0.6773 0.30468,-1.1094v-0.289c0,-0.3177 -0.07458,-0.5915 -0.2207,-0.8301c-0.27711,-0.4553 -0.65654,-0.6719 -1.1797,-0.6719zM301.58586,195.4159l0.92578,0.8399l-0.0312,0.068c-0.6927,1.4925 -1.53086,2.7425 -2.4941,3.7871c0.9706,0.6908 2.0851,1.2918 3.3691,1.7871l0.11133,0.043l-1.0371,1.7344l-0.082,-0.039c-1.5663,-0.7344 -2.79431,-1.4732 -3.7207,-2.2226c-1.1518,0.959 -2.3094,1.7229 -3.4746,2.2695l-0.0801,0.037l-0.80079,-1.2285v0.4043h-4.0938v0.8047h-1.7539v-5.5821h5.8476v3.9317c1.0658,-0.3799 2.108,-0.9788 3.127,-1.8047c-0.9193,-1.0019 -1.6355,-2.0651 -2.1289,-3.1934h-0.83008v-1.6367zM293.9199,195.8555v1.4648h-5.1602v-1.4672zM220.9923,196.2601c1.1505,1.48 2.13105,3.0891 2.9414,4.83l0.0371,0.078l-1.6562,1.1172l-0.0976,0.066l-0.0488,-0.1055c-1.0766,-2.278 -2.01357,-3.9432 -2.8027,-4.9902l-0.0664,-0.09l1.6406,-0.9765zM203.2741,198.2359c0.8122,-0.5878 1.52102,-1.2256 2.1523,-1.9023h-3.2617c0.30419,0.6947 0.67058,1.3316 1.1094,1.9023zM200.37372,196.4092c-0.4975,0.5634 -1.07792,1.0789 -1.7578,1.5332v3.3339c1.2443,-0.2798 2.4937,-0.599 3.748,-0.9668l0.23828,-0.066c-0.9946,-1.1297 -1.73895,-2.4077 -2.2285,-3.8339zM213.3153,197.1052l-0.0332,0.092c-0.8002,2.2437 -1.8085,4.0115 -3.0293,5.3007l-0.0664,0.07l-1.4004,-1.2442l-0.0781,-0.068l0.0723,-0.074c1.113,-1.1644 2.01339,-2.7172 2.6973,-4.6601l0.0332,-0.096zM232.17652,197.4562l-0.0703,0.1016c-0.26986,0.3798 -0.4043,0.8016 -0.4043,1.2773c0,0.5761 0.26756,0.9452 0.84961,1.1641c0.6591,0.2535 1.5738,0.3848 2.7383,0.3848c1.2612,0 2.4277,-0.0843 3.5,-0.25l0.10352,-0.018l0.1914,1.8398l0.01,0.096l-0.0937,0.016c-1.0486,0.1621 -2.2906,0.2421 -3.7266,0.2421c-1.8093,0 -3.17476,-0.2632 -4.0996,-0.8066c-0.92481,-0.5434 -1.3984,-1.3792 -1.3984,-2.4648c0,-0.8564 0.2292,-1.6117 0.68945,-2.2539l0.0488,-0.066zM297.1256,197.0545c0.4095,0.7061 0.90659,1.3749 1.5449,1.9844h0.004c0.63333,-0.7324 1.0673,-1.3922 1.3301,-1.9864h-2.8789zM278.22771,199.4298c-0.57776,0 -0.96939,0.176 -1.2148,0.5273h-0.002c-0.11427,0.1572 -0.16797,0.3193 -0.16797,0.4961c0,0.1821 0.06071,0.3338 0.1914,0.4727c0.1307,0.1388 0.33534,0.2626 0.61719,0.3633c0.4055,0.1399 0.96063,0.2129 1.6621,0.2129c0.25786,0 0.58584,-0.024 0.93945,-0.055c-0.18051,-0.6488 -0.41716,-1.1704 -0.73828,-1.4961c-0.34583,-0.3508 -0.76811,-0.5235 -1.2871,-0.5235zM290.1787,201.3689h2.3242v-1.707h-2.3242z" fill="#ffffff" fill-rule="nonzero"/></g><g fill="#ffffff" fill-rule="nonzero"><g><path d="M147.03,233.8v5.4141c0,0.35093 0.15039,0.56283 0.45118,0.6357c0.30989,0.07753 1.01856,0.1163 2.126,0.1163c1.08007,0 1.79327,-0.0547 2.1396,-0.1641c0.19597,-0.064 0.32357,-0.24173 0.38281,-0.5332c0.07747,-0.41013 0.11849,-0.8955 0.12305,-1.4561l1.4287,0.4034c-0.07291,1.3444 -0.25748,2.20343 -0.55371,2.5771c-0.19597,0.24607 -0.49219,0.3919 -0.88867,0.4375c-0.62435,0.06833 -1.68392,0.1025 -3.1787,0.1025c-1.15753,0 -1.91633,-0.032 -2.2764,-0.096c-0.54232,-0.09113 -0.88639,-0.33037 -1.0322,-0.7177c-0.07291,-0.20507 -0.10937,-0.4785 -0.10937,-0.8203v-5.4209l-1.3057,0.4511l-0.32128,-1.3261l1.627,-0.5606v-3.6846h1.3877v3.2061l1.4697,-0.499v-3.6026h1.374v3.1241l2.29,-0.7862l0.71778,0.4375v5.1201c0,0.35547 -0.08431,0.6198 -0.25293,0.793c-0.19141,0.1914 -0.5127,0.2871 -0.96387,0.2871c-0.36914,0 -0.76107,-0.032 -1.1758,-0.096l-0.22559,-1.3056c0.26888,0.06833 0.54232,0.1025 0.82031,0.1025c0.20053,0 0.32358,-0.04103 0.36915,-0.1231c0.0456,-0.06833 0.0684,-0.18227 0.0684,-0.3418v-3.2333l-1.6475,0.5742v5.5302h-1.374v-5.0586zM142.0056,231.5647v-3.3018h1.4697v3.3018h1.3262v1.3877h-1.3262v4.3476c0.47851,-0.164 0.95248,-0.3349 1.4219,-0.5127l0.12988,1.3194c-1.47653,0.67447 -2.99183,1.23957 -4.5459,1.6953l-0.47852,-1.4561c0.7018,-0.18227 1.31703,-0.35543 1.8457,-0.5195c0.0638,-0.02267 0.11621,-0.03867 0.15723,-0.048v-4.8262h-1.7363v-1.3877z"/><path d="M161.25,237.4c-0.97527,0.82487 -2.18523,1.5016 -3.6299,2.0302l-0.86816,-1.0527c1.1758,-0.3828 2.22627,-0.93197 3.1514,-1.6475l-0.23925,-0.1162c-0.88413,-0.4238 -1.85027,-0.85217 -2.8984,-1.2851l0.62891,-1.0391c1.1758,0.4284 2.2764,0.8773 3.3018,1.3467l0.2666,0.123c1.153,-1.2122 2.02117,-2.79357 2.6045,-4.7441l1.3604,0.4238c-0.66537,1.987 -1.55177,3.63903 -2.6592,4.9561c0.0456,0.02267 0.08889,0.04533 0.12988,0.068c0.64258,0.319 1.48568,0.78613 2.5293,1.4014l-0.82715,1.1484c-0.875,-0.5332 -1.8252,-1.07093 -2.8506,-1.6132zM158.208,234.4332c-0.32813,-1.08467 -0.70183,-2.0007 -1.1211,-2.7481l1.2852,-0.5127c0.44206,0.78387 0.82943,1.69307 1.1621,2.7276zM160.6142,233.8863c-0.33724,-1.05273 -0.71551,-1.97103 -1.1348,-2.7549l1.2305,-0.4922c0.52409,0.91147 0.91146,1.81153 1.1621,2.7002zM166.9306,228.9849v12.66h-1.5244v-0.7178h-9.0781v0.7178h-1.5107v-12.66zM156.3276,230.2564v9.3516h9.0781v-9.3516z"/><path d="M176.87,238.7l0.0957,1.2236c-1.97787,0.69727 -4.17677,1.2715 -6.5967,1.7227l-0.50586,-1.3672c0.41927,-0.064 1.01171,-0.16653 1.7773,-0.3076v-2.502c-0.7884,0.40107 -1.7272,0.7816 -2.8164,1.1416l-0.7793,-1.2168c2.19207,-0.59247 3.8646,-1.34897 5.0176,-2.2695h-4.8809v-1.1895h5.8584v-1.0322h-4.4297v-1.1484h4.4297v-0.9639h-5.127v-1.1758h5.127v-1.3467h1.4971v1.3467h5.2773v1.1758h-5.2773v0.9639h4.5801v1.1484h-4.5801v1.0322h6.0088v1.1895h-1.6338l1.0117,0.6972c-0.62435,0.60613 -1.49935,1.26923 -2.625,1.9893l-0.15723,0.1025c0.8568,0.78387 2.0189,1.431 3.4863,1.9414l-0.92285,1.3877c-1.59047,-0.67447 -2.8688,-1.5221 -3.835,-2.5429zM174.7987,235.1453c-0.45573,0.5332 -1.0049,1.0117 -1.6475,1.4355v3.0694c1.12567,-0.25067 2.25587,-0.54233 3.3906,-0.875l0.31446,-0.089c-0.93427,-1.03453 -1.62013,-2.21487 -2.0576,-3.541zM177.2938,237.0115c0.8112,-0.5788 1.52213,-1.2077 2.1328,-1.8867h-3.2334c0.29167,0.69727 0.65853,1.32617 1.1006,1.8867z"/><path d="M189.7,234.1v6.0634c0,0.55147 -0.11166,0.92747 -0.33497,1.128c-0.20963,0.18227 -0.61523,0.2734 -1.2168,0.2734c-0.6836,0 -1.333,-0.0433 -1.9482,-0.1299l-0.29395,-1.4424c0.63802,0.10487 1.24869,0.1573 1.832,0.1573c0.19597,0 0.31901,-0.0342 0.36914,-0.1026c0.03647,-0.05933 0.0547,-0.1573 0.0547,-0.2939v-5.6533h-5.8789v-1.3604h13.173v1.3604zM183.9236,229.0345h9.8848v1.3467h-9.8848zM182.2009,239.5205c0.9844,-1.03 1.77737,-2.39947 2.3789,-4.1084l1.415,0.5332c-0.69727,1.95507 -1.57453,3.49087 -2.6318,4.6074zM193.9309,240.3544c-0.94333,-1.99607 -1.76363,-3.45667 -2.4609,-4.3818l1.2852,-0.7656c1.0026,1.28967 1.8571,2.6933 2.5635,4.2109z"/><path d="M197.51,229.7h8.2441l0.90918,0.7998c-0.7702,1.82293 -1.6885,3.4795 -2.7549,4.9697c1.513,1.18493 2.9554,2.52023 4.3272,4.0059l-1.1348,1.2851c-1.3444,-1.52667 -2.7116,-2.9075 -4.1016,-4.1425c-1.4948,1.76367 -3.38607,3.1582 -5.6738,4.1836l-0.82031,-1.4151c1.69987,-0.69267 3.1149,-1.55627 4.2451,-2.5908c1.05727,-0.96613 2.0257,-2.15787 2.9053,-3.5752c0.4694,-0.76107 0.834,-1.46743 1.0938,-2.1191h-7.2393z"/><path d="M219.99,230.1l0.97754,0.7998c-0.63802,2.91667 -1.67252,5.1748 -3.1035,6.7744c-0.79293,0.88413 -1.81833,1.65887 -3.0762,2.3242c-0.8932,0.4694 -1.8525,0.8431 -2.8779,1.1211l-0.79297,-1.3467c2.34247,-0.61067 4.16083,-1.58593 5.4551,-2.9258c-1.0664,-0.957 -2.2422,-1.80463 -3.5274,-2.5429l0.89551,-1.1075c1.25327,0.65173 2.445,1.45383 3.5752,2.4063c0.88867,-1.42187 1.44693,-2.79817 1.6748,-4.1289h-4.8125c-1.10287,1.71807 -2.4017,3.03283 -3.8965,3.9443l-1.0049,-1.0869c1.44467,-0.87047 2.63183,-2.02117 3.5615,-3.4521c0.47851,-0.7292 0.84991,-1.51533 1.1142,-2.3584l1.4834,0.3623c-0.15039,0.41013 -0.31901,0.81573 -0.50586,1.2168z"/><path d="M227.53,241v-7.0137c-1.3854,0.92967 -2.96677,1.71353 -4.7441,2.3516l-0.82715,-1.3877c2.01887,-0.67907 3.78937,-1.55407 5.3115,-2.625c1.4948,-1.05273 2.82553,-2.25813 3.9922,-3.6162l1.3193,0.8271c-1.03453,1.18947 -2.18753,2.28093 -3.459,3.2744v8.1895z"/><path d="M236.52,229.4h1.5381v2.4883c0,2.38347 -0.17774,4.12437 -0.53321,5.2227c-0.4694,1.45373 -1.45377,2.66597 -2.9531,3.6367l-1.0459,-1.2168c1.03907,-0.72913 1.7705,-1.48563 2.1943,-2.2695c0.35547,-0.6608 0.59017,-1.5472 0.7041,-2.6592c0.0638,-0.62893 0.0957,-1.52443 0.0957,-2.6865zM240.02,229.0036h1.5381v9.7138c0.90693,-0.4694 1.70217,-1.13703 2.3857,-2.0029c0.7474,-0.94793 1.30567,-2.0713 1.6748,-3.3701l1.2031,1.1621c-0.45573,1.35353 -1.08006,2.5088 -1.873,3.4658c-0.99807,1.20767 -2.306,2.15787 -3.9238,2.8506l-1.0049,-0.8682z"/></g><g><path d="M141.2,369.2h1.5928v7.4785h-1.5928zM148.2205,369.0564h1.5928v4.8877c0,1.71807 -0.139,2.9964 -0.417,3.835c-0.23242,0.71547 -0.54915,1.2851 -0.95019,1.7089c-0.834,0.8978 -2.17383,1.5609 -4.0195,1.9893l-0.78614,-1.4014c2.01887,-0.41013 3.31313,-1.09143 3.8828,-2.0439c0.36003,-0.60613 0.5765,-1.37177 0.64941,-2.2969c0.03193,-0.4284 0.0479,-1.02083 0.0479,-1.7773z"/><path d="M152.23,370.1h10.712l0.88183,0.7451c-0.25521,0.95247 -0.58789,1.74773 -0.99804,2.3858c-0.7702,1.20767 -1.9232,2.11 -3.459,2.707l-0.86133,-1.1758c1.06187,-0.319 1.9437,-0.89093 2.6455,-1.7158c0.41471,-0.4876 0.7041,-1.00257 0.86816,-1.5449h-9.7891zM156.6118,373.0531h1.5654v1.1758c0,1.76367 -0.19596,3.1263 -0.58789,4.0879c-0.49675,1.22133 -1.46288,2.21483 -2.8984,2.9805l-1.1279,-1.1895c0.98893,-0.4694 1.71127,-1.02993 2.167,-1.6816c0.35091,-0.50587 0.58106,-1.04137 0.69043,-1.6065c0.12761,-0.64713 0.19141,-1.5153 0.19141,-2.6045z"/><path d="M167.82,369.7h1.5381v2.4883c0,2.38347 -0.17773,4.12437 -0.5332,5.2227c-0.4694,1.45373 -1.45377,2.66597 -2.9531,3.6367l-1.0459,-1.2168c1.03907,-0.72913 1.7705,-1.48563 2.1943,-2.2695c0.35547,-0.6608 0.59017,-1.5472 0.7041,-2.6592c0.0638,-0.62893 0.0957,-1.52443 0.0957,-2.6865zM171.32,369.3036h1.5381v9.7138c0.90693,-0.4694 1.70217,-1.13703 2.3857,-2.0029c0.7474,-0.94793 1.30567,-2.0713 1.6748,-3.3701l1.2031,1.1621c-0.45573,1.35353 -1.08006,2.5088 -1.873,3.4658c-0.99807,1.20767 -2.306,2.15787 -3.9238,2.8506l-1.0049,-0.8682z"/><path d="M189.25,370.5l0.97754,0.7998c-0.63802,2.91667 -1.67252,5.1748 -3.1035,6.7744c-0.793,0.88413 -1.8184,1.65887 -3.0762,2.3242c-0.8932,0.4694 -1.8525,0.8431 -2.8779,1.1211l-0.79297,-1.3467c2.34247,-0.61067 4.16083,-1.58593 5.4551,-2.9258c-1.0664,-0.957 -2.2422,-1.80463 -3.5274,-2.5429l0.89551,-1.1074c1.25327,0.65167 2.445,1.45373 3.5752,2.4062c0.88867,-1.42187 1.44693,-2.79817 1.6748,-4.1289h-4.8125c-1.10287,1.71807 -2.4017,3.03283 -3.8965,3.9443l-1.0049,-1.0869c1.44467,-0.8704 2.63183,-2.0211 3.5615,-3.4521c0.47851,-0.7292 0.84991,-1.51533 1.1142,-2.3584l1.4834,0.3623c-0.15039,0.41013 -0.31901,0.81573 -0.50586,1.2168z"/><path d="M196.79,381.4v-7.0137c-1.3854,0.92967 -2.96677,1.71353 -4.7441,2.3516l-0.82715,-1.3877c2.01887,-0.67907 3.78937,-1.55407 5.3115,-2.625c1.4948,-1.05273 2.82553,-2.25813 3.9922,-3.6162l1.3193,0.8271c-1.03453,1.18947 -2.18753,2.28093 -3.459,3.2744v8.1895z"/><path d="M202.74,379c0.31445,-0.00667 0.74739,-0.02933 1.2988,-0.068c1.2988,-2.91667 2.4951,-6.1273 3.5889,-9.6319l1.5654,0.4102c-1.07553,3.36327 -2.22397,6.4007 -3.4453,9.1123c2.31507,-0.16867 4.36813,-0.37377 6.1592,-0.6153c-0.67447,-1.1894 -1.36033,-2.2877 -2.0576,-3.2949l1.3467,-0.8545c1.43553,1.97787 2.69563,4.07423 3.7803,6.2891l-1.5381,0.7998c-0.25065,-0.52867 -0.52637,-1.0801 -0.82715,-1.6543c-2.66147,0.4466 -5.84017,0.8431 -9.5361,1.1895z"/><path d="M226.08,370.5l0.97753,0.7998c-0.63802,2.91667 -1.67252,5.1748 -3.1035,6.7744c-0.79293,0.88413 -1.81833,1.65887 -3.0762,2.3242c-0.8932,0.4694 -1.8525,0.8431 -2.8779,1.1211l-0.79297,-1.3467c2.34247,-0.61067 4.16083,-1.58593 5.4551,-2.9258c-1.0664,-0.957 -2.2422,-1.80463 -3.5274,-2.5429l0.89551,-1.1074c1.25327,0.65167 2.445,1.45373 3.5752,2.4062c0.88867,-1.42187 1.44693,-2.79817 1.6748,-4.1289h-4.8125c-1.10287,1.71807 -2.4017,3.03283 -3.8965,3.9443l-1.0049,-1.0869c1.44467,-0.8704 2.63183,-2.0211 3.5615,-3.4521c0.47851,-0.7292 0.84991,-1.51533 1.1142,-2.3584l1.4834,0.3623c-0.15039,0.41013 -0.31901,0.81573 -0.50586,1.2168z"/><path d="M228.69,370.8h9.044l1.4697,1.2851c-0.17774,1.85027 -0.48764,3.2995 -0.92969,4.3477c-0.64714,1.54033 -1.72037,2.73207 -3.2197,3.5752c-0.99347,0.56513 -2.35837,1.05277 -4.0947,1.4629l-0.78613,-1.3877c1.52213,-0.278 2.72753,-0.63803 3.6162,-1.0801c1.4492,-0.71547 2.4746,-1.80467 3.0762,-3.2676c0.3737,-0.91147 0.58789,-2.0804 0.64258,-3.5068h-8.8184zM238.5064,371.1555c-0.28255,-0.86593 -0.64259,-1.6612 -1.0801,-2.3858l1.0938,-0.2529c0.38281,0.5332 0.74511,1.29427 1.0869,2.2832zM240.4615,370.8752c-0.25521,-0.7884 -0.62664,-1.54947 -1.1143,-2.2832l1.0322,-0.2529c0.4694,0.61067 0.85677,1.33297 1.1621,2.1669z"/><path d="M249.29,379.9c2.67513,-0.67447 4.0127,-2.20797 4.0127,-4.6005c0,-1.04367 -0.26888,-1.94147 -0.80664,-2.6934c-0.60156,-0.84767 -1.51756,-1.39227 -2.748,-1.6338c-0.26888,2.1146 -0.63575,3.84637 -1.1006,5.1953c-0.31901,0.9434 -0.71547,1.83437 -1.1894,2.6729c-0.6836,1.194 -1.46063,1.791 -2.3311,1.791c-0.64713,0 -1.22363,-0.29167 -1.7295,-0.875c-0.32357,-0.36913 -0.58561,-0.8226 -0.78613,-1.3604c-0.26433,-0.69727 -0.39649,-1.44693 -0.39649,-2.249c0,-1.2988 0.35773,-2.49507 1.0732,-3.5888c0.7246,-1.1166 1.66567,-1.9278 2.8232,-2.4336c0.84307,-0.3692 1.7682,-0.5538 2.7754,-0.5538c1.57227,0 2.90757,0.42157 4.0059,1.2647c1.34893,1.03453 2.0234,2.4997 2.0234,4.3955c0,3.17647 -1.60643,5.1908 -4.8193,6.043zM248.2646,370.9176c-0.80667,0.09113 -1.48113,0.3076 -2.0234,0.6494c-0.34635,0.22333 -0.69042,0.51957 -1.0322,0.8887c-0.94793,1.0482 -1.4219,2.26273 -1.4219,3.6436c0,1.00713 0.20052,1.79553 0.60156,2.3652c0.24609,0.35093 0.48991,0.5264 0.73145,0.5264c0.32812,0 0.69725,-0.3623 1.1074,-1.0869c1.0026,-1.76373 1.68163,-4.09253 2.0371,-6.9864z"/><path d="M262.77,374.2v5.4141c0,0.35093 0.15039,0.56287 0.45117,0.6358c0.3099,0.07747 1.01857,0.1162 2.126,0.1162c1.08007,0 1.79327,-0.0547 2.1396,-0.1641c0.19596,-0.064 0.32356,-0.24173 0.38281,-0.5332c0.07747,-0.41013 0.11849,-0.8955 0.12305,-1.4561l1.4287,0.4034c-0.07292,1.3444 -0.25749,2.20343 -0.55371,2.5771c-0.19597,0.24613 -0.49219,0.39197 -0.88867,0.4375c-0.62435,0.0684 -1.68392,0.1026 -3.1787,0.1026c-1.15753,0 -1.91633,-0.032 -2.2764,-0.096c-0.54232,-0.09113 -0.88639,-0.33037 -1.0322,-0.7177c-0.07291,-0.20507 -0.10937,-0.4785 -0.10937,-0.8203v-5.4209l-1.3057,0.4511l-0.32129,-1.3261l1.627,-0.5606v-3.6846h1.3877v3.2061l1.4697,-0.499v-3.6026h1.374v3.1241l2.29,-0.7862l0.71777,0.4375v5.1201c0,0.35553 -0.08431,0.61987 -0.25293,0.793c-0.19141,0.1914 -0.51269,0.2871 -0.96386,0.2871c-0.36914,0 -0.76107,-0.032 -1.1758,-0.096l-0.22559,-1.3051c0.26888,0.06833 0.54232,0.1025 0.82031,0.1025c0.20052,0 0.32357,-0.041 0.36914,-0.123c0.0456,-0.0684 0.0684,-0.18233 0.0684,-0.3418v-3.2334l-1.6475,0.5742v5.5302h-1.374v-5.0585zM257.7456,371.9647v-3.3018h1.4697v3.3018h1.3262v1.3877h-1.3262v4.3476c0.47852,-0.164 0.95249,-0.33487 1.4219,-0.5126l0.12988,1.3193c-1.47653,0.67447 -2.99183,1.23957 -4.5459,1.6953l-0.47851,-1.4561c0.7018,-0.18227 1.31703,-0.35543 1.8457,-0.5195c0.0638,-0.02267 0.11621,-0.03867 0.15723,-0.048v-4.8262h-1.7363v-1.3877z"/><path d="M276.99,377.7c-0.97527,0.82487 -2.18523,1.5016 -3.6299,2.0302l-0.86817,-1.0527c1.1758,-0.3828 2.22627,-0.93197 3.1514,-1.6475l-0.23926,-0.1162c-0.88413,-0.4238 -1.85027,-0.85217 -2.8984,-1.2851l0.6289,-1.0391c1.1758,0.4284 2.2764,0.8773 3.3018,1.3467l0.2666,0.123c1.153,-1.2122 2.02117,-2.79357 2.6045,-4.7441l1.3604,0.4238c-0.66537,1.987 -1.55177,3.63903 -2.6592,4.9561c0.0456,0.02267 0.08889,0.04533 0.12988,0.068c0.64258,0.319 1.48568,0.78613 2.5293,1.4014l-0.82715,1.1484c-0.875,-0.5332 -1.8252,-1.07093 -2.8506,-1.6132zM273.948,374.7332c-0.32813,-1.08467 -0.70183,-2.0007 -1.1211,-2.7481l1.2852,-0.5127c0.44206,0.78387 0.82943,1.69307 1.1621,2.7276zM276.3542,374.1863c-0.33724,-1.05273 -0.71551,-1.97103 -1.1348,-2.7549l1.2305,-0.4922c0.52409,0.91147 0.91146,1.81153 1.1621,2.7002zM282.6706,369.2849v12.66h-1.5244v-0.7178h-9.0781v0.7178h-1.5108v-12.66zM272.0676,370.5564v9.3516h9.0781v-9.3516z"/><path d="M292.612,379.1l0.0957,1.2236c-1.97787,0.69727 -4.17677,1.2715 -6.5967,1.7227l-0.50586,-1.3672c0.41927,-0.064 1.01171,-0.16653 1.7773,-0.3076v-2.502c-0.7884,0.40107 -1.7272,0.7816 -2.8164,1.1416l-0.7793,-1.2168c2.19207,-0.59247 3.8646,-1.34897 5.0176,-2.2695h-4.8809v-1.1895h5.8584v-1.0322h-4.4297v-1.1484h4.4297v-0.9639h-5.127v-1.1758h5.127v-1.3467h1.4971v1.3467h5.2773v1.1758h-5.2773v0.9639h4.5801v1.1484h-4.5801v1.0322h6.0088v1.1895h-1.6338l1.0117,0.6973c-0.62435,0.60607 -1.49935,1.26913 -2.625,1.9892l-0.15723,0.1025c0.8568,0.78387 2.0189,1.43103 3.4863,1.9415l-0.92285,1.3876c-1.59047,-0.67447 -2.8688,-1.5221 -3.835,-2.5429zM290.5407,375.5453c-0.45573,0.5332 -1.00489,1.0117 -1.6475,1.4355v3.0694c1.12567,-0.25067 2.25587,-0.54233 3.3906,-0.875l0.31445,-0.089c-0.93427,-1.03447 -1.62013,-2.2148 -2.0576,-3.541zM293.0358,377.4115c0.8112,-0.5788 1.52213,-1.2077 2.1328,-1.8867h-3.2334c0.29167,0.69727 0.65853,1.32617 1.1006,1.8867z"/><path d="M305.437,374.5v6.0634c0,0.55147 -0.11165,0.92747 -0.33496,1.128c-0.20963,0.18227 -0.61523,0.2734 -1.2168,0.2734c-0.6836,0 -1.333,-0.0433 -1.9482,-0.1299l-0.29394,-1.4424c0.63802,0.10487 1.24869,0.1573 1.832,0.1573c0.19597,0 0.31901,-0.0342 0.36914,-0.1026c0.03646,-0.05933 0.05469,-0.1573 0.05469,-0.2939v-5.6533h-5.8789v-1.3604h13.173v1.3604zM299.6606,369.4345h9.8848v1.3467h-9.8848zM297.9379,379.9205c0.9844,-1.03 1.77737,-2.39947 2.3789,-4.1084l1.415,0.5332c-0.69727,1.95507 -1.57453,3.49087 -2.6318,4.6074zM309.6679,380.7544c-0.94333,-1.99607 -1.76363,-3.45667 -2.4609,-4.3818l1.2852,-0.7656c1.0026,1.28973 1.8571,2.69337 2.5635,4.2109z"/></g><g><path d="M146.83,304.2v5.4141c0,0.35093 0.15039,0.56287 0.45117,0.6358c0.3099,0.07747 1.01857,0.1162 2.126,0.1162c1.08007,0 1.79327,-0.0547 2.1396,-0.1641c0.19596,-0.064 0.32356,-0.24173 0.38281,-0.5332c0.07747,-0.41013 0.11849,-0.8955 0.12305,-1.4561l1.4287,0.4034c-0.07292,1.3444 -0.25749,2.20343 -0.55371,2.5771c-0.19597,0.24613 -0.49219,0.39197 -0.88867,0.4375c-0.62435,0.0684 -1.68392,0.1026 -3.1787,0.1026c-1.15753,0 -1.91633,-0.032 -2.2764,-0.096c-0.54232,-0.09113 -0.88639,-0.33037 -1.0322,-0.7177c-0.07291,-0.20507 -0.10937,-0.4785 -0.10937,-0.8203v-5.4209l-1.3057,0.4511l-0.32129,-1.3261l1.627,-0.5606v-3.6846h1.3877v3.2061l1.4697,-0.499v-3.6026h1.374v3.1241l2.29,-0.7862l0.71777,0.4375v5.1201c0,0.35553 -0.08431,0.61987 -0.25293,0.793c-0.1914,0.1914 -0.51269,0.2871 -0.96386,0.2871c-0.36914,0 -0.76107,-0.032 -1.1758,-0.096l-0.22559,-1.3056c0.26888,0.06833 0.54232,0.1025 0.82031,0.1025c0.20052,0 0.32357,-0.041 0.36914,-0.123c0.0456,-0.0684 0.0684,-0.18233 0.0684,-0.3418v-3.2334l-1.6475,0.5742v5.5302h-1.374v-5.0585zM141.8056,301.9647v-3.3018h1.4697v3.3018h1.3262v1.3877h-1.3262v4.3476c0.47852,-0.164 0.95249,-0.33487 1.4219,-0.5126l0.12988,1.3193c-1.47653,0.67447 -2.99183,1.23957 -4.5459,1.6953l-0.47851,-1.4561c0.7018,-0.18227 1.31703,-0.35543 1.8457,-0.5195c0.0638,-0.02267 0.11621,-0.03867 0.15723,-0.048v-4.8262h-1.7363v-1.3877z"/><path d="M159.89,300.5v-0.5878h-4.2725v-0.9776h10.09v0.9776h-4.3613v0.5878h5.6602v2.4541h-1.4834v-1.5722h-4.1768v2.6592h-1.456v-2.6592h-4.1016v1.5722h-1.4697v-2.4541zM164.7298,310.2002c0.69727,0.26433 1.5677,0.47397 2.6113,0.6289l-0.7998,1.1622c-1.46287,-0.25067 -2.6637,-0.68133 -3.6025,-1.292c-0.93427,-0.61073 -1.66117,-1.36953 -2.1807,-2.2764h-1.5107v2.1055c1.00713,-0.14133 1.94137,-0.29173 2.8027,-0.4512l0.0957,1.0185c-1.60413,0.38287 -3.43843,0.71557 -5.5029,0.9981l-0.40332,-1.2031c0.71547,-0.07747 1.20537,-0.13217 1.4697,-0.1641l0.082,-0.014v-2.29h-1.4971c-0.0638,0.80207 -0.16862,1.44237 -0.31446,1.9209c-0.17317,0.5742 -0.45117,1.10967 -0.83398,1.6064l-1.2168,-1.0048c0.44661,-0.5788 0.72461,-1.25557 0.83399,-2.0303c0.05927,-0.41927 0.0889,-0.94107 0.0889,-1.5654v-2.8985h11.799v0.9092h-10.329v2.0986h10.917v0.9639h-1.5518l0.86817,0.5742c-0.51497,0.4284 -1.12337,0.82943 -1.8252,1.2031zM163.6634,309.6739c0.65625,-0.44667 1.17805,-0.86367 1.5654,-1.251h-2.9873c0.39193,0.50127 0.86589,0.91827 1.4219,1.251zM156.39,301.8877h2.9121v0.7725h-2.9121zM156.39,303.1456h2.9121v0.7861h-2.9121zM161.9339,301.8877h3.001v0.7725h-3.001zM161.9339,303.1456h3.001v0.7861h-3.001zM157.1351,305.9346h8.5107v0.8955h-8.5107z"/><path d="M171.1,301.3v10.698h-1.4287v-13.303h1.4287v2.0713l0.65625,-0.5468c0.39649,0.68813 0.71094,1.3512 0.94336,1.9892l-0.92969,0.9229c-0.24153,-0.7702 -0.46484,-1.3809 -0.66992,-1.8321zM177.3959,299.6047h3.541v1.0254h-3.541v0.6563h3.0557v0.9775h-3.0557v0.6768h3.9922v1.0937h-9.2148v-1.0937h3.8076v-0.6768h-2.9668v-0.9775h2.9668v-0.6563h-3.3701v-1.0254h3.3701v-0.9092h1.415zM180.2397,304.759v6.002c0,0.41927 -0.10026,0.7246 -0.30078,0.916c-0.19597,0.18687 -0.53093,0.2803 -1.0049,0.2803c-0.56055,0 -1.13705,-0.03877 -1.7295,-0.1163l-0.19824,-1.2304c0.60612,0.07293 1.08692,0.1094 1.4424,0.1094c0.18229,0 0.29167,-0.0456 0.32813,-0.1368c0.0228,-0.05467 0.0342,-0.13897 0.0342,-0.2529v-0.8818h-4.1973v2.5498h-1.4287v-7.2393zM174.6137,305.7639v0.7998h4.1973v-0.7998zM174.6137,307.5686v0.8408h4.1973v-0.8408zM167.7367,305.8323c0.20508,-0.94793 0.35319,-2.17387 0.44433,-3.6778l0.0342,-0.5605l1.1621,0.1094c-0.05467,1.95047 -0.21417,3.5341 -0.47851,4.7509z"/><path d="M184.76,300.1v-1.4288h1.4287v1.4288h2.126v1.2031h-2.126v1.1758h2.4199v1.2168h-0.81347c-0.14583,0.54227 -0.3418,1.11647 -0.5879,1.7226h1.3193v1.1895h-2.3379v1.2646h2.249v1.2168h-2.249v2.8848h-1.4287v-2.8848h-2.4131v-1.2168h2.4131v-1.2646h-2.5225v-1.1895h1.2578c-0.14583,-0.60613 -0.32357,-1.18033 -0.5332,-1.7226h-1.0049v-1.2168h2.8027v-1.1758h-2.2285v-1.2031zM186.4622,303.6957h-2.1738c0.15495,0.43293 0.32129,1.00713 0.49902,1.7226h1.1348c0.23698,-0.58333 0.41699,-1.15753 0.54004,-1.7226zM194.7542,299.1634v3.1992c0,0.39653 -0.07292,0.67683 -0.21875,0.8409c-0.17318,0.19593 -0.53548,0.2939 -1.0869,0.2939c-0.53777,0 -1.07553,-0.02267 -1.6133,-0.068l-0.23242,-1.2305c0.75653,0.082 1.23733,0.123 1.4424,0.123c0.21419,0 0.32128,-0.0934 0.32128,-0.2802v-1.6475h-2.9941v3.9717h3.876l0.81348,0.6972c-0.24609,1.44927 -0.69499,2.74357 -1.3467,3.8829l-0.0752,0.1367c0.5013,0.57873 1.12793,1.10737 1.8799,1.5859l-0.76562,1.2783c-0.72007,-0.4648 -1.36263,-1.02077 -1.9277,-1.6679c-0.48763,0.61973 -1.0368,1.20307 -1.6475,1.75l-0.80664,-1.1211v1.0664h-1.3877v-12.811zM190.3724,305.596v5.168c0.56055,-0.3828 1.10058,-0.92057 1.6201,-1.6133c-0.69727,-1.07547 -1.18717,-2.26037 -1.4697,-3.5547zM192.7513,307.9408c0.4056,-0.78387 0.66992,-1.56547 0.79297,-2.3448h-1.7637c0.22331,0.875 0.54687,1.6566 0.9707,2.3448z"/><path d="M206.47,300.5l0.97754,0.7998c-0.63803,2.91667 -1.67253,5.1748 -3.1035,6.7744c-0.79293,0.88413 -1.81833,1.65887 -3.0762,2.3242c-0.8932,0.4694 -1.8525,0.8431 -2.8779,1.1211l-0.79297,-1.3467c2.34247,-0.61067 4.16083,-1.58593 5.4551,-2.9258c-1.0664,-0.957 -2.2422,-1.80463 -3.5274,-2.5429l0.89551,-1.1074c1.25327,0.65167 2.445,1.45373 3.5752,2.4062c0.88867,-1.42187 1.44693,-2.79817 1.6748,-4.1289h-4.8125c-1.10287,1.71807 -2.4017,3.03283 -3.8965,3.9443l-1.0049,-1.0869c1.44467,-0.8704 2.63183,-2.0211 3.5615,-3.4521c0.47851,-0.7292 0.84995,-1.51533 1.1143,-2.3584l1.4834,0.3623c-0.15039,0.41013 -0.31901,0.81573 -0.50586,1.2168z"/><path d="M209.08,300.8h9.044l1.4697,1.2851c-0.17774,1.85027 -0.48764,3.2995 -0.92969,4.3477c-0.64713,1.54033 -1.72037,2.73207 -3.2197,3.5752c-0.99347,0.56513 -2.35837,1.05277 -4.0947,1.4629l-0.78614,-1.3877c1.52213,-0.278 2.72753,-0.63803 3.6162,-1.0801c1.4492,-0.71547 2.4746,-1.80467 3.0762,-3.2676c0.37369,-0.91147 0.58788,-2.0804 0.64257,-3.5068h-8.8184zM218.8964,301.1555c-0.28255,-0.86593 -0.64259,-1.6612 -1.0801,-2.3858l1.0938,-0.2529c0.38281,0.5332 0.74511,1.29427 1.0869,2.2832zM220.8515,300.8752c-0.25521,-0.7884 -0.62664,-1.54947 -1.1143,-2.2832l1.0322,-0.2529c0.4694,0.61067 0.85677,1.33297 1.1621,2.1669z"/><path d="M229.69,309.9c2.67513,-0.67447 4.0127,-2.20797 4.0127,-4.6005c0,-1.04367 -0.26888,-1.94147 -0.80665,-2.6934c-0.60156,-0.84767 -1.51756,-1.39227 -2.748,-1.6338c-0.26888,2.1146 -0.63575,3.84637 -1.1006,5.1953c-0.31901,0.9434 -0.71547,1.83437 -1.1894,2.6729c-0.6836,1.194 -1.46063,1.791 -2.3311,1.791c-0.64713,0 -1.22363,-0.29167 -1.7295,-0.875c-0.32357,-0.36913 -0.58561,-0.8226 -0.78613,-1.3604c-0.26433,-0.69727 -0.39649,-1.44693 -0.39649,-2.249c0,-1.2988 0.35773,-2.49507 1.0732,-3.5888c0.7246,-1.1166 1.66567,-1.9278 2.8232,-2.4336c0.84307,-0.3692 1.7682,-0.5538 2.7754,-0.5538c1.57227,0 2.90757,0.42157 4.0059,1.2647c1.34893,1.03453 2.0234,2.4997 2.0234,4.3955c0,3.17647 -1.60643,5.1908 -4.8193,6.043zM228.6646,300.9176c-0.80667,0.09113 -1.48113,0.3076 -2.0234,0.6494c-0.34635,0.22333 -0.69042,0.51957 -1.0322,0.8887c-0.94793,1.0482 -1.4219,2.26273 -1.4219,3.6436c0,1.00713 0.20052,1.79553 0.60156,2.3652c0.24609,0.35093 0.48991,0.5264 0.73145,0.5264c0.32813,0 0.69726,-0.3623 1.1074,-1.0869c1.0026,-1.76373 1.68163,-4.09253 2.0371,-6.9864z"/><path d="M243.16,304.2v5.4141c0,0.35093 0.15039,0.56287 0.45117,0.6358c0.3099,0.07747 1.01857,0.1162 2.126,0.1162c1.08007,0 1.79327,-0.0547 2.1396,-0.1641c0.19597,-0.064 0.32357,-0.24173 0.38281,-0.5332c0.07747,-0.41013 0.11849,-0.8955 0.12305,-1.4561l1.4287,0.4034c-0.07291,1.3444 -0.25748,2.20343 -0.55371,2.5771c-0.19597,0.24613 -0.49219,0.39197 -0.88867,0.4375c-0.62435,0.0684 -1.68392,0.1026 -3.1787,0.1026c-1.15753,0 -1.91633,-0.032 -2.2764,-0.096c-0.54232,-0.09113 -0.88639,-0.33037 -1.0322,-0.7177c-0.07291,-0.20507 -0.10937,-0.4785 -0.10937,-0.8203v-5.4209l-1.3057,0.4511l-0.32129,-1.3261l1.627,-0.5606v-3.6846h1.3877v3.2061l1.4697,-0.499v-3.6026h1.374v3.1241l2.29,-0.7862l0.71778,0.4375v5.1201c0,0.35553 -0.08431,0.61987 -0.25293,0.793c-0.19141,0.1914 -0.5127,0.2871 -0.96387,0.2871c-0.36914,0 -0.76107,-0.032 -1.1758,-0.096l-0.22559,-1.3056c0.26888,0.06833 0.54232,0.1025 0.82031,0.1025c0.20053,0 0.32357,-0.041 0.36914,-0.123c0.0456,-0.0684 0.0684,-0.18233 0.0684,-0.3418v-3.2334l-1.6475,0.5742v5.5302h-1.374v-5.0585zM238.1356,301.9647v-3.3018h1.4697v3.3018h1.3262v1.3877h-1.3262v4.3476c0.47851,-0.164 0.95248,-0.33487 1.4219,-0.5126l0.12988,1.3193c-1.47653,0.67447 -2.99183,1.23957 -4.5459,1.6953l-0.47851,-1.4561c0.7018,-0.18227 1.31703,-0.35543 1.8457,-0.5195c0.0638,-0.02267 0.11621,-0.03867 0.15723,-0.048v-4.8262h-1.7363v-1.3877z"/><path d="M257.38,307.7c-0.97527,0.82487 -2.18523,1.5016 -3.6299,2.0302l-0.86816,-1.0527c1.1758,-0.3828 2.22627,-0.93197 3.1514,-1.6475l-0.23925,-0.1162c-0.88413,-0.4238 -1.85027,-0.85217 -2.8984,-1.2851l0.6289,-1.0391c1.1758,0.4284 2.2764,0.8773 3.3018,1.3467l0.2666,0.123c1.153,-1.2122 2.02117,-2.79357 2.6045,-4.7441l1.3604,0.4238c-0.66537,1.987 -1.55177,3.63903 -2.6592,4.9561c0.0456,0.02267 0.08889,0.04533 0.12988,0.068c0.64258,0.319 1.48568,0.78613 2.5293,1.4014l-0.82715,1.1484c-0.875,-0.5332 -1.8252,-1.07093 -2.8506,-1.6132zM254.338,304.7332c-0.32813,-1.08467 -0.70183,-2.0007 -1.1211,-2.7481l1.2852,-0.5127c0.44206,0.78387 0.82943,1.69307 1.1621,2.7276zM256.7442,304.1863c-0.33724,-1.05273 -0.71551,-1.97103 -1.1348,-2.7549l1.2305,-0.4922c0.52409,0.91147 0.91146,1.81153 1.1621,2.7002zM263.0606,299.2849v12.66h-1.5244v-0.7178h-9.0781v0.7178h-1.5107v-12.66zM252.4576,300.5564v9.3516h9.0781v-9.3516z"/><path d="M273.01,309.1l0.0957,1.2236c-1.97787,0.69727 -4.17677,1.2715 -6.5967,1.7227l-0.50586,-1.3672c0.41927,-0.064 1.01171,-0.16653 1.7773,-0.3076v-2.502c-0.7884,0.40107 -1.7272,0.7816 -2.8164,1.1416l-0.7793,-1.2168c2.19207,-0.59247 3.8646,-1.34897 5.0176,-2.2695h-4.8809v-1.1895h5.8584v-1.0322h-4.4297v-1.1484h4.4297v-0.9639h-5.127v-1.1758h5.127v-1.3467h1.4971v1.3467h5.2773v1.1758h-5.2773v0.9639h4.5801v1.1484h-4.5801v1.0322h6.0088v1.1895h-1.6338l1.0117,0.6973c-0.62435,0.60607 -1.49935,1.26913 -2.625,1.9892l-0.15723,0.1025c0.8568,0.78387 2.0189,1.43103 3.4863,1.9415l-0.92285,1.3876c-1.59053,-0.67447 -2.86887,-1.5221 -3.835,-2.5429zM270.9387,305.5453c-0.45573,0.5332 -1.0049,1.0117 -1.6475,1.4355v3.0694c1.12567,-0.25067 2.25587,-0.54233 3.3906,-0.875l0.31445,-0.089c-0.93427,-1.03447 -1.62013,-2.2148 -2.0576,-3.541zM273.4338,307.4115c0.8112,-0.5788 1.52213,-1.2077 2.1328,-1.8867h-3.2334c0.29167,0.69727 0.65853,1.32617 1.1006,1.8867z"/><path d="M285.831,304.5v6.0634c0,0.55147 -0.11165,0.92747 -0.33496,1.128c-0.20963,0.18227 -0.61523,0.2734 -1.2168,0.2734c-0.6836,0 -1.333,-0.0433 -1.9482,-0.1299l-0.29395,-1.4424c0.63802,0.10487 1.24869,0.1573 1.832,0.1573c0.19596,0 0.31901,-0.0342 0.36914,-0.1026c0.03646,-0.05933 0.05469,-0.1573 0.05469,-0.2939v-5.6533h-5.8789v-1.3604h13.173v1.3604zM280.0546,299.4345h9.8848v1.3467h-9.8848zM278.3319,309.9205c0.9844,-1.03 1.77737,-2.39947 2.3789,-4.1084l1.415,0.5332c-0.69727,1.95507 -1.57453,3.49087 -2.6318,4.6074zM290.0619,310.7544c-0.94333,-1.99607 -1.76363,-3.45667 -2.4609,-4.3818l1.2852,-0.7656c1.0026,1.28973 1.8571,2.69337 2.5635,4.2109z"/></g></g><g fill="#ffffff" fill-rule="nonzero"><path d="M149.78,447.9c0.34635,0.5788 0.75879,1.06417 1.2373,1.4561c0.61979,0.50127 1.40593,0.93647 2.3584,1.3056l-0.82715,1.3604c-1.69987,-0.7064 -2.93947,-1.8913 -3.7188,-3.5547c-0.29622,0.87047 -0.76562,1.61787 -1.4082,2.2422c-0.57878,0.56053 -1.35581,1.04817 -2.3311,1.4629l-0.95019,-1.2032c1.12107,-0.36453 1.971,-0.8362 2.5498,-1.415c0.48763,-0.4876 0.84993,-1.03903 1.0869,-1.6543h-2.6455v-3.6777h2.8984v-1.1485h-1.4834v-0.6084c-0.49219,0.4284 -1.03905,0.8044 -1.6406,1.128l-0.54004,-0.7246h-1.1348v1.1689c0.59701,0.50133 1.17351,1.05733 1.7295,1.668l-0.72461,1.2988c-0.32813,-0.47853 -0.66309,-0.93883 -1.0049,-1.3809v6.3985h-1.4014v-6.1387c-0.45117,1.29427 -0.93197,2.38803 -1.4424,3.2813l-0.60156,-1.5997c0.83853,-1.4082 1.47657,-2.9736 1.9141,-4.6962h-1.6885v-1.3331h1.8184v-2.8164h1.4014v2.8164h1.2168v0.7999c1.4538,-0.85227 2.5635,-2.0577 3.3291,-3.6163h1.5518c0.68813,1.071 1.55857,1.96653 2.6113,2.6866c0.45573,0.30987 0.98667,0.61977 1.5928,0.9297l-0.82715,1.1757c-0.63347,-0.3418 -1.21907,-0.7132 -1.7568,-1.1142v0.6767h-1.5312v1.1485h2.9531v3.6777zM148.0573,445.3023h-1.6064v1.504h1.6064zM149.3903,445.3023v1.504h1.6475v-1.504zM147.1413,441.8981h3.2061c-0.64713,-0.56513 -1.23273,-1.2328 -1.7568,-2.003c-0.37825,0.71553 -0.86132,1.3832 -1.4492,2.003z"/><path d="M161.38,443.3h3.3359v-3.4043h1.5244v4.7647h-4.8604v5.0517h3.7666v-3.1514h1.5518v5.4073h-1.5518v-0.8682h-8.9756v0.8682h-1.5381v-5.4073h1.5381v3.1514h3.6846v-5.0517h-4.7715v-4.7647h1.5244v3.4043h3.2471v-4.6348h1.5244z"/><path d="M176.67,449.1l0.0957,1.2236c-1.97787,0.69727 -4.17677,1.2715 -6.5967,1.7227l-0.50586,-1.3672c0.41927,-0.064 1.01171,-0.16653 1.7773,-0.3076v-2.502c-0.7884,0.40107 -1.7272,0.7816 -2.8164,1.1416l-0.7793,-1.2168c2.19207,-0.59247 3.8646,-1.34897 5.0176,-2.2695h-4.8809v-1.1895h5.8584v-1.0322h-4.4297v-1.1484h4.4297v-0.9639h-5.127v-1.1758h5.127v-1.3467h1.4971v1.3467h5.2773v1.1758h-5.2773v0.9639h4.5801v1.1484h-4.5801v1.0322h6.0088v1.1895h-1.6338l1.0117,0.6973c-0.62435,0.60607 -1.49935,1.26913 -2.625,1.9892l-0.15723,0.1025c0.8568,0.78387 2.0189,1.43103 3.4863,1.9415l-0.92285,1.3876c-1.59053,-0.67447 -2.86887,-1.5221 -3.835,-2.5429zM174.5987,445.5453c-0.45573,0.5332 -1.0049,1.0117 -1.6475,1.4355v3.0694c1.12567,-0.25067 2.25587,-0.54233 3.3906,-0.875l0.31445,-0.089c-0.93427,-1.03447 -1.62013,-2.2148 -2.0576,-3.541zM177.0938,447.4115c0.8112,-0.5788 1.52213,-1.2077 2.1328,-1.8867h-3.2334c0.29167,0.69727 0.65853,1.32617 1.1006,1.8867z"/><path d="M189.5,444.5v6.0634c0,0.55147 -0.11165,0.92747 -0.33496,1.128c-0.20963,0.18227 -0.61523,0.2734 -1.2168,0.2734c-0.6836,0 -1.333,-0.0433 -1.9482,-0.1299l-0.29394,-1.4424c0.63802,0.10487 1.24869,0.1573 1.832,0.1573c0.19596,0 0.31901,-0.0342 0.36914,-0.1026c0.03647,-0.05933 0.0547,-0.1573 0.0547,-0.2939v-5.6533h-5.8789v-1.3604h13.173v1.3604zM183.7236,439.4345h9.8848v1.3467h-9.8848zM182.0009,449.9205c0.9844,-1.03 1.77737,-2.39947 2.3789,-4.1084l1.415,0.5332c-0.69727,1.95507 -1.57453,3.49087 -2.6318,4.6074zM193.7309,450.7544c-0.94333,-1.99607 -1.76363,-3.45667 -2.4609,-4.3818l1.2852,-0.7656c1.0026,1.28973 1.8571,2.69337 2.5635,4.2109z"/><path d="M196.76,440.5h10.425v1.4287h-4.4639v7.2802h5.209v1.4288h-11.929v-1.4288h5.127v-7.2802h-4.3682z"/><path d="M208.99,440.3h10.835c-0.0638,2.40627 -0.34407,4.2907 -0.84082,5.6533c-0.58333,1.58593 -1.5905,2.83463 -3.0215,3.7461c-1.07093,0.6836 -2.54067,1.24643 -4.4092,1.6885l-0.78613,-1.3877c1.89127,-0.35547 3.34277,-0.87273 4.3545,-1.5518c1.112,-0.7428 1.90953,-1.77047 2.3926,-3.083c0.35547,-0.97067 0.55143,-2.1829 0.58789,-3.6367h-9.1123z"/><path d="M222.67,442.3h8.709v1.2988h-3.6982v6.0293h4.3135v1.2988h-9.9394v-1.2988h4.2246v-6.0293h-3.6094z"/><path d="M243.41,440.8l1.0664,0.8819c-0.51497,2.8802 -1.46061,5.08137 -2.8369,6.6035c-1.25327,1.3854 -3.14,2.45637 -5.6602,3.2129l-0.85449,-1.3877c2.31053,-0.58333 4.06963,-1.5267 5.2773,-2.8301c1.1712,-1.2578 1.95507,-2.95083 2.3516,-5.0791h-4.6074c-0.95707,1.4492 -2.08043,2.60673 -3.3701,3.4726l-1.1211,-1.1347c1.0482,-0.67447 1.9027,-1.4082 2.5635,-2.2012c0.7474,-0.90233 1.33073,-1.98923 1.75,-3.2607l1.4834,0.4033c-0.16406,0.47853 -0.34179,0.9183 -0.5332,1.3193z"/><path d="M247.5,439.1h1.5928v3.9238c2.72073,0.83853 4.9743,1.6953 6.7607,2.5703l-0.76562,1.4766c-1.71353,-0.87047 -3.7119,-1.69763 -5.9951,-2.4815v6.9454h-1.5928z"/></g><g fill="#ffffff" fill-rule="nonzero"><path d="M148.26,516.2c1.46747,0.73373 3.24027,1.31707 5.3184,1.75l-0.74512,1.4424c-0.64713,-0.16407 -1.11653,-0.29167 -1.4082,-0.3828v5.5371h-1.5654v-0.8271h-6.1592v0.8271h-1.5518v-5.2295c-0.1914,0.07293 -0.62207,0.22333 -1.292,0.4512l-0.90918,-1.3672c2.1556,-0.4694 4.0765,-1.17807 5.7627,-2.126c-0.793,-0.5924 -1.51077,-1.21673 -2.1533,-1.873c-0.67447,0.56967 -1.36947,1.0573 -2.085,1.4629l-1.0938,-1.0118c1.76367,-0.88407 3.1696,-2.12363 4.2178,-3.7187l1.5107,0.3623c-0.1276,0.19593 -0.25976,0.3919 -0.39648,0.5879h5.127l0.83399,0.7246c-0.73373,0.92513 -1.4196,1.6771 -2.0576,2.2559c-0.30534,0.28253 -0.75651,0.66077 -1.3535,1.1347zM143.0442,518.9754h8.2646l-0.17773,-0.055c-1.65887,-0.52407 -3.05567,-1.12563 -4.1904,-1.8047c-1.0436,0.6426 -2.34243,1.2624 -3.8965,1.8594zM149.8596,520.2742h-6.1592v2.126h6.1592zM146.9817,515.4823c0.95707,-0.66087 1.77053,-1.36043 2.4404,-2.0987h-4.7988c-0.0182,0.02267 -0.0387,0.04533 -0.0615,0.068c-0.0228,0.02267 -0.04787,0.04767 -0.0752,0.075c0.71547,0.68813 1.54717,1.33983 2.4951,1.9551z"/><path d="M162.83,517.9v0.9775h3.7256v1.1211h-3.7256v1.0049h4.2861v1.2031h-4.2861v2.3584h-1.4697v-2.3584h-3.9307v-1.2031h3.9307v-1.0049h-3.3428v-1.1211h3.3428v-0.9775h-2.9531v-1.0391h2.9531v-1.0732h-4.1016v-1.1075h4.1016v-1.0527h-2.8848v-1.0801h2.8848v-1.2851h1.4697v1.2851h3.418v2.1328h1.1894v1.1075h-1.1894v2.1123zM162.83,516.8609h1.9893v-1.0732h-1.9893zM162.83,514.6802h1.9893v-1.0527h-1.9893zM156.5341,514.5093c-0.56966,-0.7838 -1.25096,-1.5061 -2.0439,-2.1669l1.0596,-0.9981c0.8568,0.65627 1.55407,1.3467 2.0918,2.0713zM156.05559,518.064c-0.66081,-0.8704 -1.35124,-1.61093 -2.0713,-2.2216l1.0527,-1.0254c0.73373,0.55593 1.4515,1.26457 2.1533,2.1259zM154.22359,523.5123c0.875,-1.431 1.62013,-3.042 2.2354,-4.833l1.1963,0.8408c-0.56967,1.8138 -1.28517,3.48403 -2.1465,5.0107z"/><path d="M178.17,521.6c0.87953,0.62433 2.00063,1.15753 3.3633,1.5996l-0.76563,1.3672c-1.43553,-0.56513 -2.62043,-1.2191 -3.5547,-1.9619c-0.96613,0.86133 -2.06217,1.5449 -3.2881,2.0507l-0.95703,-1.08c1.2624,-0.44667 2.3516,-1.0733 3.2676,-1.8799c-1.03907,-1.14847 -1.7842,-2.3516 -2.2354,-3.6094h-0.2666c-0.02733,1.23047 -0.13671,2.2946 -0.32812,3.1924c-0.23698,1.1074 -0.68131,2.16697 -1.333,3.1787l-1.1074,-1.0117c0.60156,-0.9798 0.99576,-2.07583 1.1826,-3.2881c0.11849,-0.75653 0.17774,-1.60647 0.17774,-2.5498v-4.4365h3.582v-1.9004h1.456v1.9004h3.1377l0.71094,0.6152c-0.28255,0.9388 -0.61296,1.79783 -0.99121,2.5771l-1.3877,-0.4101c0.30078,-0.4922 0.52409,-0.98667 0.66992,-1.4834h-2.1396v2.4131h2.2695l0.68359,0.5879c-0.54232,1.62693 -1.25782,3.00323 -2.1465,4.1289zM177.1241,520.7386c0.68813,-0.8704 1.16437,-1.7545 1.4287,-2.6523h-3.2744c0.42839,0.96613 1.04362,1.85023 1.8457,2.6523zM175.9073,514.4701h-2.167v2.4131h2.167zM170.8282,514.7845c-0.60157,-0.81573 -1.33983,-1.58133 -2.2148,-2.2968l1.0664,-1.0323c0.8522,0.61527 1.61783,1.3376 2.2969,2.167zM170.20613,518.0863c-0.65169,-0.83853 -1.37859,-1.5882 -2.1807,-2.249l1.0527,-1.0254c0.7884,0.56053 1.53807,1.27373 2.249,2.1396zM168.18273,523.4935c0.8568,-1.28513 1.6156,-2.84373 2.2764,-4.6758l1.2373,0.8545c-0.61067,1.8184 -1.34894,3.46133 -2.2148,4.9288z"/><path d="M187.01,518v0.8271h1.3809v0.9365h-1.3809v0.8408h1.3809v0.9229h-1.3809v0.9365h1.7295v0.6358c0.82947,-0.597 1.31253,-1.68163 1.4492,-3.2539h-1.1348v-8.0049h5.5576v8.0049h-1.3125v2.9531c0,0.14127 0.03646,0.22787 0.10938,0.2598c0.07747,0.03667 0.18685,0.055 0.32812,0.055c0.29167,0 0.46485,-0.10023 0.51954,-0.3007c0.07291,-0.26433 0.11165,-0.82717 0.11621,-1.6885l1.1621,0.4033c-0.03647,1.29427 -0.13901,2.0895 -0.30762,2.3857c-0.20052,0.3464 -0.72232,0.5196 -1.5654,0.5196c-0.56966,0 -0.94793,-0.0342 -1.1348,-0.1026c-0.33268,-0.123 -0.49902,-0.41237 -0.49902,-0.8681v-3.6162h-0.51269l-0.007,0.089c-0.09571,1.18947 -0.33496,2.1351 -0.71777,2.8369c-0.4056,0.74287 -1.07323,1.36497 -2.0029,1.8663l-0.81348,-1.0938h-3.5273v0.8545h-1.3125v-5.1816c-0.21875,0.2552 -0.4489,0.49673 -0.69043,0.7246l-0.66993,-1.2032c0.9798,-0.90687 1.74543,-1.94137 2.2969,-3.1035h-1.9756v-1.1347h1.169l-0.98438,-0.7247c0.63347,-0.7018 1.10287,-1.5335 1.4082,-2.4951l1.333,0.1983c-0.10026,0.30073 -0.21191,0.59467 -0.33496,0.8818h3.794v1.1074h-2.2559c-0.08203,0.3418 -0.18457,0.6859 -0.30762,1.0323h2.8232v1.1347h-3.3564c-0.20052,0.48767 -0.43294,0.95023 -0.69727,1.3877h1.2305c0.20508,-0.48307 0.35319,-0.92283 0.44434,-1.3193l1.2373,0.3691c-0.13216,0.319 -0.28255,0.63573 -0.45117,0.9502h1.5381v0.9776zM185.7454,518h-1.2988v0.8271h1.2988zM185.7454,519.7636h-1.2988v0.8408h1.2988zM185.7454,521.5273h-1.2988v0.9365h1.2988zM184.88408,513.4677h-0.79297c-0.21875,0.3464 -0.48308,0.6905 -0.79297,1.0323h1.251c0.11849,-0.32813 0.23015,-0.67223 0.33497,-1.0323zM190.35288,513.0439v1.1758h2.9326v-1.1758zM190.35288,515.2724v1.1621h2.9326v-1.1621zM190.35288,517.5009v1.1963h2.9326v-1.1963z"/><path d="M204.18,511.8v9.379h-4.293v-9.379zM201.1175,513.0168v1.5381h1.8594v-1.5381zM201.1175,515.6624v1.538h1.8594v-1.538zM201.1175,518.2532v1.7226h1.8594v-1.7226zM198.2601,514.3635c-0.53321,-0.72007 -1.17351,-1.3968 -1.9209,-2.0302l1.0254,-0.9844c0.7018,0.5104 1.36033,1.1598 1.9756,1.9482zM197.88412,517.8635c-0.7428,-0.9342 -1.40133,-1.65423 -1.9756,-2.1601l1.0527,-1.0049c0.62435,0.50587 1.29655,1.20083 2.0166,2.0849zM196.01792,523.5032c0.80207,-1.2852 1.54033,-2.9281 2.2148,-4.9287l1.1621,0.7998c-0.52865,1.84567 -1.23731,3.59567 -2.126,5.25zM203.72202,524.2483c-0.32357,-0.87953 -0.74967,-1.69757 -1.2783,-2.4541l1.0391,-0.5879c0.56055,0.6608 1.04135,1.4173 1.4424,2.2695zM205.11652,512.3063h1.3604v8.8047h-1.3604zM199.01892,523.6403c0.6836,-0.65167 1.18717,-1.43553 1.5107,-2.3516l1.1894,0.6358c-0.45573,1.15753 -0.99349,2.0234 -1.6133,2.5976zM207.52962,511.4243h1.415v11.703c0,0.59247 -0.18229,0.97073 -0.54688,1.1348c-0.20963,0.09113 -0.53092,0.1367 -0.96386,0.1367c-0.60612,0 -1.15755,-0.03647 -1.6543,-0.1094l-0.23926,-1.3877c0.71093,0.07293 1.24413,0.1094 1.5996,0.1094c0.18229,0 0.29623,-0.03647 0.3418,-0.1094c0.03187,-0.05933 0.0478,-0.17553 0.0478,-0.3486z"/><path d="M217.16,512.8h5.4688v1.2168h-5.4688v1.4561h4.6826v4.5527h-10.179v-4.5527h3.958v-4.1426h1.5381zM213.1746,516.635v2.2148h7.1572v-2.2148zM210.0232,523.7648c0.65169,-0.79293 1.15073,-1.7135 1.4971,-2.7617l1.4561,0.5059c-0.36914,1.276 -0.86361,2.3219 -1.4834,3.1377zM214.7673,524.5441c-0.1595,-1.23953 -0.34179,-2.23757 -0.54687,-2.9941l1.4697,-0.3076c0.34635,1.0026 0.58105,1.95507 0.7041,2.8574zM218.3562,524.3254c-0.28255,-0.92513 -0.67449,-1.8685 -1.1758,-2.8301l1.3672,-0.4922c0.5332,0.78387 0.9821,1.6999 1.3467,2.7481zM221.9929,524.3524c-0.36003,-0.96613 -0.89549,-1.95733 -1.6064,-2.9736l1.3398,-0.6289c0.62891,0.7656 1.21681,1.7363 1.7637,2.9121z"/><path d="M231.42,522.5c2.67513,-0.67447 4.0127,-2.208 4.0127,-4.6006c0,-1.0436 -0.26888,-1.9414 -0.80664,-2.6934c-0.60156,-0.8476 -1.51756,-1.3922 -2.748,-1.6338c-0.26888,2.1146 -0.63575,3.8464 -1.1006,5.1954c-0.31901,0.94333 -0.71548,1.83427 -1.1894,2.6728c-0.6836,1.194 -1.46063,1.791 -2.3311,1.791c-0.64713,0 -1.22363,-0.29167 -1.7295,-0.875c-0.32357,-0.36913 -0.58561,-0.82257 -0.78613,-1.3603c-0.26433,-0.69727 -0.39649,-1.44693 -0.39649,-2.249c0,-1.29887 0.35773,-2.49517 1.0732,-3.5889c0.7246,-1.11653 1.66567,-1.92773 2.8232,-2.4336c0.84307,-0.36913 1.7682,-0.5537 2.7754,-0.5537c1.57227,0 2.90757,0.42153 4.0059,1.2646c1.34893,1.03453 2.0234,2.4997 2.0234,4.3955c0,3.17647 -1.60643,5.1908 -4.8193,6.043zM230.3946,513.5176c-0.80667,0.09113 -1.48113,0.3076 -2.0234,0.6494c-0.34635,0.22327 -0.69042,0.51947 -1.0322,0.8886c-0.94793,1.0482 -1.4219,2.26273 -1.4219,3.6436c0,1.00713 0.20052,1.79553 0.60156,2.3652c0.24609,0.35093 0.48991,0.5264 0.73145,0.5264c0.32812,0 0.69725,-0.3623 1.1074,-1.0869c1.0026,-1.76367 1.68163,-4.09243 2.0371,-6.9863z"/><path d="M243.01,518v0.8271h1.3809v0.9365h-1.3809v0.8408h1.3809v0.9229h-1.3809v0.9365h1.7295v0.6358c0.82947,-0.597 1.31253,-1.68163 1.4492,-3.2539h-1.1348v-8.0049h5.5576v8.0049h-1.3125v2.9531c0,0.14127 0.03646,0.22787 0.10938,0.2598c0.07747,0.03667 0.18685,0.055 0.32812,0.055c0.29167,0 0.46485,-0.10023 0.51954,-0.3007c0.07291,-0.26433 0.11165,-0.82717 0.11621,-1.6885l1.1621,0.4033c-0.03647,1.29427 -0.13901,2.0895 -0.30762,2.3857c-0.20052,0.3464 -0.72232,0.5196 -1.5654,0.5196c-0.56966,0 -0.94793,-0.0342 -1.1348,-0.1026c-0.33268,-0.123 -0.49902,-0.41237 -0.49902,-0.8681v-3.6162h-0.51269l-0.007,0.089c-0.09571,1.18947 -0.33496,2.1351 -0.71777,2.8369c-0.4056,0.74287 -1.07323,1.36497 -2.0029,1.8663l-0.81348,-1.0938h-3.5273v0.8545h-1.3125v-5.1816c-0.21875,0.2552 -0.4489,0.49673 -0.69043,0.7246l-0.66993,-1.2032c0.9798,-0.90687 1.74543,-1.94137 2.2969,-3.1035h-1.9756v-1.1347h1.169l-0.98438,-0.7247c0.63347,-0.7018 1.10287,-1.5335 1.4082,-2.4951l1.333,0.1983c-0.10026,0.30073 -0.21191,0.59467 -0.33496,0.8818h3.794v1.1074h-2.2559c-0.08203,0.3418 -0.18457,0.6859 -0.30762,1.0323h2.8232v1.1347h-3.3564c-0.20052,0.48767 -0.43294,0.95023 -0.69727,1.3877h1.2305c0.20508,-0.48307 0.35319,-0.92283 0.44434,-1.3193l1.2373,0.3691c-0.13216,0.319 -0.28255,0.63573 -0.45117,0.9502h1.5381v0.9776zM241.7454,518h-1.2988v0.8271h1.2988zM241.7454,519.7636h-1.2988v0.8408h1.2988zM241.7454,521.5273h-1.2988v0.9365h1.2988zM240.88408,513.4677h-0.79297c-0.21875,0.3464 -0.48308,0.6905 -0.79297,1.0323h1.251c0.11849,-0.32813 0.23015,-0.67223 0.33497,-1.0323zM246.35288,513.0439v1.1758h2.9326v-1.1758zM246.35288,515.2724v1.1621h2.9326v-1.1621zM246.35288,517.5009v1.1963h2.9326v-1.1963z"/><path d="M260.18,511.8v9.379h-4.293v-9.379zM257.1175,513.0168v1.5381h1.8594v-1.5381zM257.1175,515.6624v1.538h1.8594v-1.538zM257.1175,518.2532v1.7226h1.8594v-1.7226zM254.2601,514.3635c-0.53321,-0.72007 -1.17351,-1.3968 -1.9209,-2.0302l1.0254,-0.9844c0.7018,0.5104 1.36033,1.1598 1.9756,1.9482zM253.88412,517.8635c-0.74287,-0.9342 -1.4014,-1.65423 -1.9756,-2.1601l1.0527,-1.0049c0.62435,0.50587 1.29655,1.20083 2.0166,2.0849zM252.01792,523.5032c0.80207,-1.2852 1.54033,-2.9281 2.2148,-4.9287l1.1621,0.7998c-0.52864,1.84567 -1.23731,3.59567 -2.126,5.25zM259.72202,524.2483c-0.32357,-0.87953 -0.74967,-1.69757 -1.2783,-2.4541l1.0391,-0.5879c0.56055,0.6608 1.04135,1.4173 1.4424,2.2695zM261.11652,512.3063h1.3604v8.8047h-1.3604zM255.01892,523.6403c0.6836,-0.65167 1.18717,-1.43553 1.5107,-2.3516l1.1894,0.6358c-0.45573,1.15753 -0.99349,2.0234 -1.6133,2.5976zM263.52962,511.4243h1.415v11.703c0,0.59247 -0.18229,0.97073 -0.54688,1.1348c-0.20963,0.09113 -0.53092,0.1367 -0.96386,0.1367c-0.60612,0 -1.15755,-0.03647 -1.6543,-0.1094l-0.23926,-1.3877c0.71093,0.07293 1.24413,0.1094 1.5996,0.1094c0.18229,0 0.29623,-0.03647 0.3418,-0.1094c0.03187,-0.05933 0.0478,-0.17553 0.0478,-0.3486z"/><path d="M275.08,514.7h3.165v6.9726h-6.2002v-6.9726h1.5928l0.10938,-0.6289l0.0273,-0.1778l0.0273,-0.1777h-3.9307v-1.1895h4.1084c0.041,-0.30987 0.09569,-0.75873 0.16406,-1.3466l1.5244,0.1162c-0.0182,0.1686 -0.07517,0.57873 -0.1709,1.2304h3.7598v1.1895h-3.9785c-0.00467,0.032 -0.0115,0.06847 -0.0205,0.1094c-0.05013,0.2552 -0.10938,0.54687 -0.17774,0.875zM276.83,515.78h-3.418v0.9229h3.418zM273.412,517.6941v0.9092h3.418v-0.9092zM273.412,519.5945v0.998h3.418v-0.998zM268.7977,514.4607v10.083h-1.3945v-6.9863c-0.28255,0.51953 -0.60612,1.0573 -0.97071,1.6133l-0.64257,-1.5996c0.62435,-0.95707 1.17121,-2.1192 1.6406,-3.4864c0.27799,-0.79753 0.57194,-1.791 0.88184,-2.9804l1.4424,0.3486c-0.33724,1.25327 -0.65625,2.25587 -0.95703,3.0078zM271.1356,522.6091h8.4082v1.2305h-8.4082v0.7041h-1.4219v-8.6406h1.4219z"/><path d="M141.27,530.7h3.6846c0.4056,-0.64713 0.71322,-1.16897 0.92286,-1.5655l1.5244,0.2188c-0.13672,0.24607 -0.37826,0.6471 -0.72461,1.2031l-0.0889,0.1436h4.8193v1.3467h-5.7285c-0.597,0.82027 -1.16667,1.5312 -1.709,2.1328c0.86133,-0.515 1.64747,-0.7725 2.3584,-0.7725c1.10287,0 1.8252,0.5537 2.167,1.6611c1.16667,-0.38733 2.35613,-0.77013 3.5684,-1.1484l0.58789,1.3262l-0.23926,0.068l-0.67676,0.1778c-1.27607,0.34633 -2.2969,0.64253 -3.0625,0.8886c0.05467,0.59247 0.09341,1.3581 0.11622,2.2969l-1.4971,0.082c-0.00467,-0.54227 -0.01377,-1.13013 -0.0273,-1.7636v-0.1367c-2.09633,0.71547 -3.1445,1.4355 -3.1445,2.1601c0,0.37373 0.26888,0.62893 0.80664,0.7656c0.51953,0.1322 1.44923,0.1983 2.7891,0.1983c1.235,0 2.53153,-0.07063 3.8896,-0.2119l0.16406,1.456c-1.31707,0.10027 -2.68197,0.1504 -4.0947,0.1504c-1.74087,0 -2.97817,-0.13217 -3.7119,-0.3965c-0.90693,-0.32813 -1.3604,-0.9183 -1.3604,-1.7705c0,-0.72007 0.32129,-1.3558 0.96387,-1.9072c0.66537,-0.56967 1.8366,-1.15757 3.5137,-1.7637c-0.09115,-0.35093 -0.21191,-0.59703 -0.3623,-0.7383c-0.16862,-0.15947 -0.39193,-0.2392 -0.66993,-0.2392c-0.45117,0 -1.01853,0.1709 -1.7021,0.5127c-0.84307,0.41927 -1.7477,1.05043 -2.7139,1.8935l-0.90918,-1.039c1.41733,-1.31707 2.52703,-2.61133 3.3291,-3.8828h-2.7822z"/><path d="M162.74,539.2l0.0957,1.2236c-1.97787,0.69727 -4.17677,1.2715 -6.5967,1.7227l-0.50586,-1.3672c0.41927,-0.064 1.0117,-0.16653 1.7773,-0.3076v-2.502c-0.7884,0.40107 -1.7272,0.7816 -2.8164,1.1416l-0.7793,-1.2167c2.19207,-0.59247 3.8646,-1.349 5.0176,-2.2696h-4.8809v-1.1894h5.8584v-1.0323h-4.4297v-1.1484h4.4297v-0.9639h-5.127v-1.1757h5.127v-1.3467h1.4971v1.3467h5.2773v1.1757h-5.2773v0.9639h4.5801v1.1484h-4.5801v1.0323h6.0088v1.1894h-1.6338l1.0117,0.6973c-0.62435,0.60613 -1.49935,1.2692 -2.625,1.9892l-0.15723,0.1026c0.8568,0.78387 2.0189,1.431 3.4863,1.9414l-0.92285,1.3877c-1.59053,-0.67447 -2.86887,-1.52213 -3.835,-2.543zM160.6687,535.6453c-0.45573,0.5332 -1.0049,1.01173 -1.6475,1.4356v3.0693c1.12567,-0.25067 2.25587,-0.54233 3.3906,-0.875l0.31445,-0.089c-0.93427,-1.03447 -1.62013,-2.2148 -2.0576,-3.541zM163.1638,537.5115c0.8112,-0.57873 1.52213,-1.20763 2.1328,-1.8867h-3.2334c0.29167,0.69727 0.65853,1.32617 1.1006,1.8867z"/><path d="M175.57,534.6v6.0635c0,0.5514 -0.11165,0.92737 -0.33496,1.1279c-0.20963,0.18227 -0.61523,0.2734 -1.2168,0.2734c-0.6836,0 -1.333,-0.04327 -1.9482,-0.1298l-0.29394,-1.4424c0.63802,0.1048 1.24869,0.1572 1.832,0.1572c0.19596,0 0.31901,-0.03417 0.36914,-0.1025c0.03647,-0.05933 0.0547,-0.15733 0.0547,-0.294v-5.6533h-5.8789v-1.3604h13.173v1.3604zM169.7936,529.5346h9.8848v1.3466h-9.8848zM168.0709,540.0206c0.9844,-1.02993 1.77737,-2.3994 2.3789,-4.1084l1.415,0.5332c-0.69727,1.95507 -1.57453,3.49087 -2.6318,4.6074zM179.8009,540.8546c-0.94333,-1.99613 -1.76363,-3.45677 -2.4609,-4.3819l1.2852,-0.7656c1.0026,1.28973 1.8571,2.6934 2.5635,4.211z"/><path d="M189.18,529.1h1.5381v1.8868h4.0332v1.3193h-4.0332v2.9258c0.15951,0.56053 0.23926,1.05957 0.23926,1.4971c0,1.62233 -0.35773,2.81403 -1.0732,3.5751c-0.77933,0.834 -1.95283,1.4105 -3.5205,1.7295l-0.7793,-1.1621c1.2168,-0.2324 2.11913,-0.5605 2.707,-0.9843c0.55143,-0.40107 0.92287,-0.94567 1.1143,-1.6338c-0.48763,0.5332 -1.06869,0.7998 -1.7432,0.7998c-0.75653,0 -1.3695,-0.2142 -1.8389,-0.6426c-0.55143,-0.50587 -0.82715,-1.2396 -0.82715,-2.2012c0,-0.50587 0.12077,-0.9935 0.36231,-1.4629c0.1595,-0.30073 0.35546,-0.55137 0.58789,-0.7519c0.53776,-0.45573 1.18263,-0.6836 1.9346,-0.6836c0.47851,0 0.91145,0.11393 1.2988,0.3418v-1.3467h-6.7471v-1.3193h6.7471zM189.2347,536.1958v-0.253c0,-0.29167 -0.06836,-0.54913 -0.20508,-0.7724c-0.25521,-0.41927 -0.62434,-0.6289 -1.1074,-0.6289c-0.24609,0 -0.47624,0.06833 -0.69043,0.205c-0.5013,0.31447 -0.75195,0.79757 -0.75195,1.4493c0,0.41013 0.09115,0.75647 0.27344,1.039c0.25521,0.39193 0.63117,0.5879 1.1279,0.5879c0.45117,0 0.8089,-0.2028 1.0732,-0.6084c0.18685,-0.28713 0.28027,-0.62663 0.28027,-1.0185z"/><path d="M197.63,529.5h7.6699l0.73144,1.1347c-2.3698,1.44927 -4.42287,2.76633 -6.1592,3.9512c1.12107,-0.4694 2.24673,-0.7041 3.377,-0.7041c1.01627,0 1.86393,0.1618 2.543,0.4854c0.62891,0.30073 1.11881,0.71087 1.4697,1.2304c0.36458,0.55147 0.54687,1.18493 0.54687,1.9004c0,1.0026 -0.3418,1.84113 -1.0254,2.5156c-0.4694,0.4694 -1.07097,0.82487 -1.8047,1.0664c-0.9616,0.31447 -2.01433,0.4717 -3.1582,0.4717c-1.31707,0 -2.28777,-0.2438 -2.9121,-0.7314c-0.48763,-0.3828 -0.73144,-0.90007 -0.73144,-1.5518c0,-0.4922 0.17773,-0.9297 0.5332,-1.3125c0.53776,-0.57873 1.26466,-0.8681 2.1807,-0.8681c0.97067,0 1.74767,0.32583 2.331,0.9775c0.42383,0.47393 0.72917,1.10967 0.91602,1.9072c1.40367,-0.4466 2.1055,-1.27147 2.1055,-2.4746c0,-0.91147 -0.38053,-1.58367 -1.1416,-2.0166c-0.51041,-0.29167 -1.15755,-0.4375 -1.9414,-0.4375c-1.1712,0 -2.2285,0.1618 -3.1719,0.4854c-0.69727,0.23693 -1.6338,0.80887 -2.8096,1.7158l-0.96387,-1.1621c1.26693,-1.0938 2.70933,-2.2035 4.3272,-3.3291c1.11653,-0.77473 2.1009,-1.4105 2.9531,-1.9073h-5.8652zM202.8116,540.239c-0.32357,-1.28967 -0.9593,-1.9345 -1.9072,-1.9345c-0.52409,0 -0.90236,0.16633 -1.1348,0.499c-0.10937,0.1504 -0.16406,0.31217 -0.16406,0.4853c0,0.36007 0.25521,0.63123 0.76562,0.8135c0.36915,0.1276 0.86361,0.1914 1.4834,0.1914c0.26433,0 0.58334,-0.01833 0.95703,-0.055z"/></g></g></g></svg>