<svg xmlns="http://www.w3.org/2000/svg" viewBox="0 0 224 64" version="1.1" height="64" width="224">
 <rect stop-color="#000000" fill="none" ry="0" rx="0" height="64" width="224"></rect>
 <g>
  <path stop-color="#000000" fill-rule="evenodd" fill="#e4e600" d="m46 31h158c5.54 0 10 4.46 10 10v7c0 5.54-4.46 10-10 10h-158c-5.54 0-10-4.46-10-10v-7c0-5.54 4.46-10 10-10z"></path>
  <g aria-label="津波到達中と推測" fill="#191500">
   <path d="m77.081 44.467v1.0474h3.9917v1.2012h-3.9917v1.0767h4.5923v1.2891h-4.5923v2.5269h-1.5747v-2.5269h-4.2114v-1.2891h4.2114v-1.0767h-3.5815v-1.2012h3.5815v-1.0474h-3.1641v-1.1133h3.1641v-1.1499h-4.3945v-1.1865h4.3945v-1.1279h-3.0908v-1.1572h3.0908v-1.377h1.5747v1.377h3.6621v2.2852h1.2744v1.1865h-1.2744v2.2632zm0-1.1133h2.1313v-1.1499h-2.1313zm0-2.3364h2.1313v-1.1279h-2.1313zm-6.7456-0.1831q-0.91553-1.2598-2.1899-2.3218l1.1353-1.0693q1.377 1.0547 2.2412 2.2192zm-0.5127 3.8086q-1.062-1.3989-2.2192-2.3804l1.1279-1.0986q1.1792 0.89356 2.3071 2.2778zm-1.9629 5.8374q1.4062-2.2998 2.395-5.1782l1.2817 0.90088q-0.91553 2.915-2.2998 5.3687z"></path>
   <path d="m93.016 48.422q1.4136 1.0034 3.6035 1.7139l-0.82031 1.4648q-2.3071-0.9082-3.8086-2.1021-1.5527 1.3843-3.523 2.1973l-1.0254-1.1572q2.0288-0.71777 3.501-2.0142-1.6699-1.8457-2.395-3.8672h-0.28564q-0.04395 1.9775-0.35156 3.4204-0.38086 1.7798-1.4282 3.4058l-1.1865-1.084q0.9668-1.5747 1.2671-3.5229 0.19043-1.2158 0.19043-2.7319v-4.7534h3.8379v-2.0361h1.5601v2.0361h3.3618l0.76172 0.65918q-0.4541 1.5088-1.062 2.7612l-1.4868-0.43945q0.4834-0.79102 0.71777-1.5894h-2.2925v2.5854h2.4316l0.73242 0.62988q-0.87158 2.6147-2.2998 4.4238zm-1.1206-0.92285q1.106-1.3989 1.5308-2.8418h-3.5083q0.68848 1.5527 1.9775 2.8418zm-1.3037-6.7163h-2.3218v2.5854h2.3218zm-5.4419 0.33691q-0.9668-1.311-2.373-2.4609l1.1426-1.106q1.3696 0.98877 2.4609 2.3218zm-0.6665 3.5376q-1.0474-1.3477-2.3364-2.4097l1.1279-1.0986q1.2671 0.90088 2.4097 2.2925zm-2.168 5.7935q1.377-2.0654 2.439-5.0098l1.3257 0.91553q-0.98144 2.9224-2.373 5.2808z"></path>
   <path d="m100.37 45.771v-1.7578h1.5454v1.7578h2.8198v1.377h-2.8198v1.9263q0.65918-0.10254 0.9961-0.15381 1.1865-0.1831 2.3804-0.4248l0.0439 1.3989q-4.3945 0.97412-8.0713 1.377l-0.40283-1.5308q0.9082-0.09522 3.5083-0.43213v-2.1606h-3.0029v-1.377zm0.73975-6.3354q-0.022 0.05127-0.044 0.10986-0.59326 1.582-1.3037 2.8784 0.09521 0 0.2417-0.0073 1.7432-0.07324 2.981-0.19775-0.60791-0.97412-1.2012-1.7505l1.3623-0.61524q1.3623 1.626 2.373 3.6035l-1.4136 0.82031q-0.34423-0.68848-0.4541-0.89355-3.0176 0.4248-6.1597 0.59326l-0.37354-1.4355 0.90088-0.03662q0.08789 0 0.16846-0.0073 0.76904-1.6333 1.2158-3.0615h-2.4097v-1.3623h8.269v1.3623zm4.8999-0.35889h1.4868v8.9429h-1.4868zm2.8931-1.2598h1.5308v12.195q0 0.79834-0.31494 1.1279-0.32959 0.35889-1.311 0.35889-0.96679 0-2.1533-0.13184l-0.30029-1.5454q0.97412 0.14648 2.0801 0.14648 0.35888 0 0.4248-0.15381 0.0439-0.10254 0.0439-0.38086z"></path>
   <path d="m114.74 48.4q0.59326 0.65186 1.3037 0.97412 1.1865 0.54199 3.3032 0.54199h6.3574q-0.28564 0.5127-0.49804 1.3916h-5.918q-2.4902 0-3.7866-0.6665-0.68116-0.34424-1.3916-1.1206-1.1865 1.3916-2.146 2.1313l-0.84229-1.4795q0.98877-0.57861 2.0728-1.4722v-3.7793h-1.9556v-1.4429h3.501zm4.5557-9.8584v-1.1865h1.5601v1.1865h3.3472v1.1426h-3.3472v0.95215h4.1968v1.1719h-1.6553q-0.2417 0.60059-0.64453 1.3037h1.8823v1.1133h-3.7793v0.82764h3.3911v1.062h-3.3911v0.88623h4.2334v1.1572h-4.2334v1.4648h-1.5601v-1.4648h-4.0942v-1.1572h4.0942v-0.88623h-3.2666v-1.062h3.2666v-0.82764h-3.6475v-1.1133h1.8457q-0.26367-0.71045-0.61523-1.3037h-1.648v-1.1719h4.0649v-0.95215h-3.208v-1.1426zm2.4756 3.2666h-3.3252q0.022 0.03662 0.0952 0.19043 0.25634 0.50537 0.46875 1.1133h2.168q0.38085-0.71045 0.59326-1.3037zm-8.0127-0.55664q-1.0547-1.7578-2.2339-2.9224l1.2305-0.88623q1.0693 0.99609 2.3145 2.7905z"></path>
   <path d="m131.96 40.043v-2.688h1.648v2.688h5.4346v7.749h-1.6187v-1.0181h-3.8159v4.834h-1.648v-4.834h-3.7207v1.0986h-1.6186v-7.8296zm-3.7207 1.5015v3.728h3.7207v-3.728zm9.1846 3.728v-3.728h-3.8159v3.728z"></path>
   <path d="m152.77 50.539q-2.168 0.22705-4.4824 0.22705-3.4131 0-4.7827-0.43213-0.99609-0.31494-1.5747-0.9375-0.6665-0.7251-0.6665-1.7651 0-1.3696 0.9375-2.4609 0.79834-0.93018 2.5708-1.8457-1.0107-2.2705-1.831-5.1709l1.6333-0.4248q0.76172 2.7832 1.6113 4.9219 2.8198-1.2964 5.9839-2.1606l0.49073 1.4868q-3.4717 0.87891-6.8994 2.4976-1.062 0.50537-1.5088 0.82764-1.311 0.95947-1.311 2.1313 0 1.0181 1.2158 1.4209 1.0107 0.32959 3.6182 0.32959 2.4097 0 4.8267-0.27832z"></path>
   <path d="m161.72 40.007h2.0874q0.4541-1.1938 0.85693-2.6221l1.5161 0.31494q-0.46875 1.4062-0.89355 2.3071h2.8418v1.333h-3.0249v1.7578h2.5635v1.2598h-2.5635v1.7432h2.5635v1.2598h-2.5635v1.8604h3.2666v1.3623h-6.7749v1.0254h-1.4575v-8.7305q-0.33691 0.53467-0.72509 1.062l-0.84961-1.2964q1.6772-2.1167 2.5781-5.3394l1.5161 0.32959q-0.43945 1.355-0.9375 2.373zm-0.12451 9.2139h2.1167v-1.8604h-2.1167zm0-3.1201h2.1167v-1.7432h-2.1167zm0-3.0029h2.1167v-1.7578h-2.1167zm-5.4346-2.981v-2.7612h1.5894v2.7612h1.5454v1.4282h-1.5454v2.417q0.63721-0.19775 1.3476-0.4541l0.10254 1.4136q-0.51269 0.19775-1.4502 0.54199v4.7754q0 0.76904-0.35889 1.0693-0.31494 0.26367-1.062 0.26367-0.84229 0-1.5967-0.14648l-0.30029-1.5747q0.98144 0.13916 1.3403 0.13916 0.25635 0 0.32226-0.08789 0.0659-0.08789 0.0659-0.32226v-3.5815q-0.61523 0.19775-1.7578 0.5127l-0.43213-1.5308q1.4722-0.32959 2.1899-0.54199v-2.8931h-1.9629v-1.4282z"></path>
   <path d="m177.29 37.941v10.049h-4.5996v-10.049zm-3.2812 1.3037v1.6479h1.9922v-1.6479zm0 2.8345v1.6479h1.9922v-1.6479zm0 2.7759v1.8457h1.9922v-1.8457zm-3.0615-4.1675q-0.85694-1.1572-2.0581-2.1753l1.0986-1.0547q1.1279 0.82031 2.1167 2.0874zm-0.40283 3.75q-1.1938-1.5015-2.1167-2.3145l1.1279-1.0767q1.0034 0.81299 2.1606 2.2339zm-1.9995 6.0425q1.2891-2.0654 2.373-5.2808l1.2451 0.85693q-0.84961 2.9663-2.2778 5.625zm8.2544 0.79834q-0.52002-1.4136-1.3696-2.6294l1.1133-0.62988q0.90088 1.062 1.5454 2.4316zm1.4941-12.795h1.4575v9.4336h-1.4575zm-6.5332 12.144q1.0986-1.0474 1.6186-2.5195l1.2744 0.68115q-0.73242 1.8604-1.7285 2.7832zm9.1186-13.088h1.5161v12.539q0 0.95215-0.58594 1.2158-0.33691 0.14648-1.0327 0.14648-0.97412 0-1.7725-0.11719l-0.25635-1.4868q1.1426 0.11719 1.7139 0.11719 0.29297 0 0.36621-0.11719 0.0513-0.09521 0.0513-0.37354z"></path>
  </g>
 </g>
</svg>
