<?xml version="1.0" encoding="UTF-8"?>
<svg width="480" height="360" version="1.1" viewBox="0 0 480 360" xmlns="http://www.w3.org/2000/svg">
 <g dominant-baseline="central" fill="#fff" aria-label="サハリン近海">
  <path d="m252.63 171.11h2.1973v3.9453h3.916v2.002h-3.916v0.61523q0 4.9805-1.4258 7.4805-1.377 2.4023-4.8535 3.6816l-1.3672-1.7383q3.3984-1.1719 4.5508-3.6133 0.89843-1.8848 0.89843-5.7812v-0.64453h-5.9277v5.5957h-2.1973v-5.5957h-3.6426v-2.002h3.6426v-3.7988h2.1973v3.7988h5.9277z" dominant-baseline="central"/>
  <path d="m260.33 186.51q1.6992-2.5 2.9199-6.123 1.3281-3.9648 1.6797-8.0566l2.2363 0.45899q-0.86914 5.9961-2.334 10.078-1.0547 2.9688-2.5976 5.2051zm15.957 1.6602q-1.7676-2.9395-3.2129-7.0801-1.377-3.9258-2.2461-8.3203l2.0996-0.6543q1.6797 8.4473 5.3027 14.58z" dominant-baseline="central"/>
  <path d="m281.42 171.32h2.2754v10.684h-2.2754zm10.029-0.20508h2.2754v6.9824q0 3.6816-0.5957 5.4785-0.49805 1.5332-1.3574 2.4414-1.7871 1.9238-5.7422 2.8418l-1.123-2.002q4.3262-0.87891 5.5469-2.9199 0.77148-1.2988 0.92773-3.2812 0.0684-0.91797 0.0684-2.5391z" dominant-baseline="central"/>
  <path d="m304.54 176.36q-3.0859-1.377-6.416-2.207l0.68359-2.0996q3.8574 0.87891 6.4746 2.1875zm-6.1719 9.7168q4.834-0.41016 7.4023-1.7285 3.0274-1.5625 4.6484-4.7949 1.0547-2.0898 1.709-5.4688l1.875 1.377q-0.79102 3.6133-1.9141 5.7422-2.0312 3.877-6.2109 5.6152-2.6367 1.0938-7.0508 1.5625z" dominant-baseline="central"/>
  <path d="m320.52 185.06q0.78125 0.90821 1.7578 1.3477 1.6016 0.72266 4.1992 0.72266h8.3203q-0.35156 0.66406-0.6543 1.9043h-7.7637q-3.3594 0-5.1465-1.0547-0.73242-0.43946-1.6113-1.4356-0.0684 0.0781-0.16602 0.19531-1.4355 1.6992-2.8516 2.7734l-1.1816-2.002q1.5527-0.92774 2.998-2.0996v-4.8242h-2.8418v-1.9238h4.9414zm2.5391-12.959 0.51758-0.0391q4.5215-0.3125 8.125-1.3379l1.5234 1.7188q-3.7891 0.99609-8.0859 1.3476v2.5293h9.043v1.9043h-3.2812v7.959h-2.1582v-7.959h-3.6035q-0.0488 3.1348-0.46875 4.9902-0.38086 1.709-1.25 3.0664l-1.7969-1.3574q0.9668-1.5039 1.2402-3.7305 0.19531-1.5332 0.19531-4.1699zm-3.6133 3.8184q-1.4941-2.1094-3.2227-3.7793l1.6016-1.2793q1.6797 1.4062 3.3789 3.5742z" dominant-baseline="central"/>
  <path d="m352.76 175.8q0 0.45899-0.0879 4.3555h1.8652v1.7578h-1.9043q-0.0293 1.2793-0.12695 2.9004h1.6504v1.7188h-1.7774q-0.11719 1.416-0.32226 1.875-0.45899 1.0938-2.2266 1.0938-1.1328 0-2.0898-0.16601l-0.36133-1.7383q1.377 0.19531 2.1094 0.19531 0.5957 0 0.71289-0.41992 0.0586-0.20508 0.10742-0.83985h-6.9531q-0.01 0.0781-0.0293 0.16602-0.0879 0.51758-0.16602 0.97656l-2.0215-0.19531q0.5957-3.5254 0.80078-5.332l0.0293-0.23438h-1.9531v-1.7578h2.1582q0.27344-2.3633 0.46875-4.3555zm-6.1719 1.6992h-2.1387q-0.0293 0.49805-0.17578 2.0996l-0.0586 0.55664h2.168l0.0293-0.27344q0.0195-0.2832 0.0586-0.79101 0.0977-1.3672 0.11719-1.5918zm1.9238 0q-0.0488 1.1621-0.14648 2.5684v0.0879h2.2949q0.0391-1.3379 0.0684-2.6562zm-2.2852 4.4141h-2.1973q-0.14648 1.1914-0.3125 2.3535l-0.0781 0.54687h2.2852q0.23438-2.1191 0.30274-2.9004zm2.002 0q-0.0293 0.39063-0.11719 1.2891l-0.15625 1.6113h2.4902q0.0488-0.94726 0.0781-1.4258 0.0586-1.0449 0.0781-1.4746zm-3.8281-9.6387h9.4336v1.8164h-10.244q-0.79102 1.6113-2.0117 3.0664l-1.3965-1.5234q1.9238-2.2559 2.7344-5.1953l2.0801 0.21485q-0.35156 1.0156-0.5957 1.6211zm-5.3809 2.8418q-1.2012-1.6504-2.9199-3.0957l1.4746-1.4258q1.5918 1.1719 3.0274 2.959zm-0.70313 5.1562q-1.4844-1.9043-2.998-3.1934l1.5234-1.4648q1.6992 1.3379 3.0566 3.0469zm-2.6562 7.666q1.6992-2.3535 3.2227-6.2012l1.7383 1.2402q-1.2695 3.5547-3.2617 6.5234z" dominant-baseline="central"/>
 </g>
</svg>
