<svg version="1.1" xmlns="http://www.w3.org/2000/svg" xmlns:xlink="http://www.w3.org/1999/xlink" width="116.3929" height="155.25668" viewBox="0,0,116.3929,155.25668"><g transform="translate(-10.3415,-199.89774)"><g data-paper-data="{&quot;isPaintingLayer&quot;:true}" fill="none" fill-rule="evenodd" stroke="#d645ff" stroke-width="72" stroke-linecap="round" stroke-linejoin="round" stroke-miterlimit="4" stroke-dasharray="" stroke-dashoffset="0" style="mix-blend-mode: normal"><g><path d="M59.78935,239.76711l3.50944,-0.27996l2.11966,-1.71972l4.48928,-0.23996l3.08951,0.44993l-0.6299,-1.2198l2.01968,-0.85986l-0.07999,4.59926l3.81939,2.4796l1.82971,0.14998l-2.56959,4.29931l0.71988,1.96968l-1.57975,0.31995l0.04999,2.72956l-1.11982,4.20933l-1.12982,1.8997l0.31995,2.92953l1.17981,1.2198l-0.97984,1.41977l1.97968,1.82971l2.85954,-2.02968l2.90953,5.50912l2.76956,1.2498l0.95985,3.1095l-0.68989,2.32963l-5.29915,5.0292l-0.58991,2.5296l4.50928,-0.89986l3.53943,0.74988l-2.36962,0.38994l2.25964,1.2698l2.27964,-1.30979l0.76988,0.91985l-2.03967,1.30979l-5.93905,2.57959l-1.99968,1.56975l-2.96952,0.29995l-2.44961,2.61958l-2.57959,0.37994l-0.6099,3.57943l-0.75988,-1.12982l-1.2698,2.4896l-3.33947,2.66957l-4.40929,2.17965l-2.35962,1.94969l-3.93937,0.47992l-4.03935,4.20933l2.71956,0.18997l-1.82971,1.65973l-0.75988,2.5196l-4.60926,0.81987l-0.89986,1.18981l1.09982,2.02968l-1.40977,0.75988"/><path d="M80.13609,235.92773l-1.62974,3.83939l-0.15997,2.4796l-3.46944,-1.69973l-0.21996,-1.14982l2.56959,-1.03983l0.30995,-1.28979l2.59958,-1.13982"/></g></g></g></svg>