<svg version="1.1" xmlns="http://www.w3.org/2000/svg" xmlns:xlink="http://www.w3.org/1999/xlink" width="168.1" height="21.957" viewBox="0,0,168.1,21.957"><g transform="translate(-240,-180)"><g data-paper-data="{&quot;isPaintingLayer&quot;:true}" stroke="none" stroke-linecap="butt" stroke-linejoin="miter" stroke-miterlimit="10" stroke-dasharray="" stroke-dashoffset="0" style="mix-blend-mode: normal"><path d="M248,180h152.1c4.432,0 8,3.568 8,8v5.957c0,4.432 -3.568,8 -8,8h-152.1c-4.432,0 -8,-3.568 -8,-8v-5.957c0,-4.432 3.568,-8 8,-8z" fill-opacity="0.7" fill="#000000" fill-rule="evenodd" stroke-width="0"/><g fill="#ffffff" fill-rule="nonzero" stroke-width="1"><path d="M253.55,189.44c0.36458,0.19791 0.79818,0.35547 1.3008,0.47266l-0.40625,0.63281c-0.57031,-0.19271 -1.03515,-0.41016 -1.3945,-0.65235c-0.36719,0.26563 -0.82032,0.45313 -1.3594,0.5625h1.8477v0.44922h-5.0391v-0.44922h1.3008l-0.0703,-0.29296h-1.8203v-0.82422c-0.1276,0.10677 -0.24869,0.19791 -0.36328,0.27343l-0.41406,-0.57812c0.39323,-0.22656 0.6888,-0.50911 0.88672,-0.84766l0.25,0.0273v-0.14844h-1.0742v-0.52734h1.0742v-0.33594h0.73437v0.33594h0.75v-0.33594h0.7461v0.33594h0.96093v0.52734h-0.96093v0.28125h0.8164c-0.00533,0.07031 -0.01053,0.1224 -0.0156,0.15625c-0.00533,0.05467 -0.00923,0.09764 -0.0117,0.12891c0.36979,-0.36979 0.66927,-0.86979 0.89844,-1.5l0.7539,0.15625c-0.06247,0.16927 -0.12757,0.32682 -0.19531,0.47265h1.9297v0.625h-0.53516c-0.11458,0.36719 -0.31119,0.71875 -0.58984,1.0547zM252.5422,189.4752c-0.15364,-0.14844 -0.319,-0.35157 -0.49609,-0.60938c-0.12239,0.14323 -0.24349,0.26823 -0.36328,0.375l-0.40625,-0.47266c-0.07031,0.67707 -0.14063,1.10413 -0.21094,1.2812c-0.09115,0.22657 -0.26953,0.36198 -0.53515,0.40625h0.98046l-0.34765,-0.52734c0.58333,-0.08594 1.04297,-0.23698 1.3789,-0.45312zM253.00314,189.06113c0.15885,-0.1875 0.28646,-0.41276 0.38281,-0.67578h-0.97265c0.16667,0.25781 0.36328,0.48307 0.58984,0.67578zM249.75314,188.34629v-0.28125h-0.75v0.28125zM248.40154,188.82676c-0.05467,0.07031 -0.12498,0.14974 -0.21094,0.23828h1.918v0.89453c0.03127,0.00267 0.0495,0.004 0.0547,0.004c0.08854,0 0.14844,-0.04037 0.17969,-0.1211c0.08333,-0.19791 0.14583,-0.53645 0.1875,-1.0156zM248.59685,189.49082v0.24609h0.83985v-0.24609zM254.06165,193.26422v1.5391h-0.875v-0.27344h-4.3828v0.27344h-0.87109v-1.5391zM248.80385,193.72125v0.33594h4.3828v-0.33594zM247.19445,191.15485h7.6016v0.50391h-7.6016zM248.24135,191.91267h5.5117v0.42578h-5.5117zM248.24135,192.59626h5.5117v0.41406h-5.5117z"/><path d="M256.77,188.02v-0.8164h0.81641v0.8164h1.2148v0.6875h-1.2148v0.67188h1.3828v0.69531h-0.46484c-0.08333,0.3099 -0.19531,0.63803 -0.33594,0.98438h0.7539v0.67968h-1.3359v0.72266h1.2852v0.69531h-1.2852v1.6484h-0.81641v-1.6484h-1.3789v-0.69531h1.3789v-0.72266h-1.4414v-0.67968h0.71875c-0.08333,-0.34635 -0.18489,-0.67448 -0.30468,-0.98438h-0.57422v-0.69531h1.6016v-0.67188h-1.2734v-0.6875zM257.74266,190.0747h-1.2422c0.08854,0.2474 0.18359,0.57553 0.28516,0.98438h0.64843c0.13542,-0.33333 0.23829,-0.66146 0.3086,-0.98438zM262.48096,187.4849v1.8281c0,0.22657 -0.04167,0.38672 -0.125,0.48047c-0.09896,0.11198 -0.30599,0.16797 -0.6211,0.16797c-0.30729,0 -0.61458,-0.01303 -0.92187,-0.0391l-0.13281,-0.70313c0.43229,0.04687 0.70703,0.0703 0.82422,0.0703c0.12239,0 0.18359,-0.05339 0.18359,-0.16016v-0.94141h-1.7109v2.2695h2.2148l0.46484,0.39844c-0.14063,0.82813 -0.39714,1.56773 -0.76953,2.2188l-0.043,0.0781c0.28646,0.33073 0.64453,0.63281 1.0742,0.90625l-0.4375,0.73047c-0.41146,-0.26563 -0.77866,-0.58334 -1.1016,-0.95313c-0.27865,0.35417 -0.59245,0.6875 -0.94141,1l-0.46094,-0.64062v0.60937h-0.79297v-7.3203zM259.97706,191.1607v2.9531c0.32031,-0.21875 0.62891,-0.52604 0.92578,-0.92187c-0.39843,-0.61459 -0.67838,-1.29165 -0.83984,-2.0312zM261.33646,192.5005c0.23177,-0.44791 0.38281,-0.89451 0.45312,-1.3398h-1.0078c0.12761,0.5 0.3125,0.9466 0.55469,1.3398z"/><path d="M263.37,188.93h1.7266c0.07813,-0.40104 0.16537,-0.89974 0.26172,-1.4961l0.0195,-0.11328l0.85547,0.1289c-0.08854,0.55209 -0.17969,1.04559 -0.27344,1.4805h0.47266c0.625,0 1.07293,0.14063 1.3438,0.42188c0.24219,0.2526 0.36328,0.64583 0.36328,1.1797c0,0.89847 -0.09505,1.7383 -0.28516,2.5195c-0.10937,0.44271 -0.24219,0.76954 -0.39844,0.98047c-0.19791,0.26302 -0.47265,0.39453 -0.82421,0.39453c-0.42188,0 -0.88281,-0.13542 -1.3828,-0.40625l0.0977,-0.82421c0.49479,0.23697 0.87889,0.35546 1.1523,0.35546c0.14323,0 0.25391,-0.07682 0.33203,-0.23046c0.08333,-0.16667 0.16276,-0.40755 0.23829,-0.72266c0.14843,-0.63802 0.22265,-1.30859 0.22265,-2.0117c0,-0.36979 -0.07422,-0.60938 -0.22265,-0.71875c-0.12761,-0.09115 -0.35547,-0.13672 -0.6836,-0.13672h-0.60156c-0.41406,1.84373 -1.00779,3.41667 -1.7812,4.7188l-0.78516,-0.42969c0.79947,-1.34113 1.36977,-2.77083 1.7109,-4.2891h-1.5586zM269.8583,192.7855c-0.29427,-1.08333 -0.75911,-2.14713 -1.3945,-3.1914l0.76172,-0.34375c0.65625,1.04687 1.14711,2.10027 1.4726,3.1602zM269.28017,189.0433c-0.16145,-0.42187 -0.42187,-0.89061 -0.78125,-1.4062l0.60547,-0.22656c0.31511,0.44531 0.57943,0.90755 0.79297,1.3867zM270.33097,188.70736c-0.20312,-0.5026 -0.46223,-0.97527 -0.77734,-1.418l0.57422,-0.19141c0.29948,0.35677 0.5612,0.80207 0.78516,1.3359z"/><path d="M276.89,189.06c0.35156,-0.29427 0.69269,-0.64194 1.0234,-1.043l0.64062,0.49609c-0.28125,0.3125 -0.62368,0.6211 -1.0273,0.92579c0.34375,0.17969 0.77215,0.36458 1.2852,0.55468l-0.42579,0.6875c-0.46875,-0.18229 -0.89581,-0.38671 -1.2812,-0.61328v0.40625h-0.72656v1.0508h2.2578v0.75391h-2.2578v1.3086c0,0.13802 0.02997,0.22005 0.0899,0.2461c0.08073,0.03387 0.24739,0.0508 0.5,0.0508c0.27604,0 0.46484,-0.01693 0.5664,-0.0508c0.10157,-0.03127 0.16667,-0.11851 0.19531,-0.26172c0.03647,-0.17709 0.056,-0.4323 0.0586,-0.76563l0.85547,0.25391c-0.02867,0.69273 -0.10419,1.12763 -0.22657,1.3047c-0.10677,0.15365 -0.27343,0.24609 -0.5,0.27734c-0.22917,0.03127 -0.60027,0.0469 -1.1133,0.0469c-0.48437,0 -0.79687,-0.02993 -0.9375,-0.0898c-0.22917,-0.09635 -0.34375,-0.3138 -0.34375,-0.65234v-1.668h-1.2305c-0.05987,0.67447 -0.28122,1.2018 -0.66406,1.582c-0.42187,0.42187 -1.04427,0.73958 -1.8672,0.95313l-0.5039,-0.7461c0.737,-0.15365 1.27997,-0.38021 1.6289,-0.67969c0.19011,-0.16667 0.32813,-0.36979 0.41407,-0.60937c0.04687,-0.125 0.08593,-0.29167 0.11718,-0.5h-2.0547v-0.75391h2.0938v-1.0508h-0.60938v-0.32422c-0.45833,0.28646 -0.92707,0.51693 -1.4062,0.69141l-0.39062,-0.65625c0.5651,-0.19271 1.09373,-0.4414 1.5859,-0.74609c-0.28385,-0.27083 -0.60416,-0.52604 -0.96093,-0.76563l0.5664,-0.55859c0.40365,0.28125 0.74738,0.5651 1.0312,0.85156c0.30729,-0.26302 0.56901,-0.53906 0.78516,-0.82813h-1.4102v-0.73437h2.6836c0.21354,0.35417 0.43229,0.65234 0.65625,0.89453c0.30469,-0.27083 0.6237,-0.60156 0.95703,-0.99219l0.63281,0.4961c-0.31511,0.34115 -0.67187,0.66667 -1.0703,0.97656c0.14323,0.11198 0.27083,0.20573 0.38281,0.28125zM275.5228,190.4741h-1.2031v1.0508h1.2031zM273.4252,189.75535h3.1836c-0.64844,-0.43489 -1.20834,-0.93619 -1.6797,-1.5039c-0.375,0.53385 -0.8763,1.03515 -1.5039,1.5039z"/><path d="M284.15,193.16l0.0547,0.69921c-1.1302,0.39844 -2.3867,0.72657 -3.7695,0.98438l-0.28906,-0.78125c0.23959,-0.03647 0.57812,-0.09506 1.0156,-0.17578v-1.4297c-0.45053,0.22917 -0.98699,0.44661 -1.6094,0.65234l-0.44531,-0.69531c1.2526,-0.33854 2.20833,-0.77084 2.8672,-1.2969h-2.7891v-0.67969h3.3477v-0.58984h-2.5313v-0.65625h2.5312v-0.55079h-2.9297v-0.67187h2.9297v-0.76953h0.85547v0.76953h3.0156v0.67187h-3.0156v0.55079h2.6172v0.65625h-2.6172v0.58984h3.4336v0.67969h-0.93359l0.57812,0.39843c-0.35677,0.34636 -0.85677,0.72526 -1.5,1.1367l-0.0898,0.0586c0.48958,0.44791 1.15365,0.81771 1.9922,1.1094l-0.52735,0.79297c-0.90887,-0.38541 -1.63933,-0.86978 -2.1914,-1.4531zM282.9664,191.1288c-0.26041,0.30469 -0.57421,0.57812 -0.9414,0.82031v1.7539c0.64323,-0.14323 1.28906,-0.30989 1.9375,-0.5l0.17968,-0.0508c-0.53385,-0.59115 -0.92579,-1.26561 -1.1758,-2.0234zM284.3922,192.1952c0.46355,-0.33073 0.86981,-0.69009 1.2188,-1.0781h-1.8476c0.16667,0.39843 0.3763,0.7578 0.6289,1.0781z"/><path d="M287.47,188.74h3.1367c-0.16927,-0.44531 -0.32421,-0.88801 -0.46484,-1.3281l0.85547,-0.05469c0.13541,0.46355 0.29817,0.92448 0.48828,1.3828h2.8867v0.80078h-2.5195c0.33593,0.69533 0.7565,1.4206 1.2617,2.1758l-0.82032,0.39062c-0.55729,-0.84373 -1.01432,-1.6992 -1.3711,-2.5664h-3.4531zM293.1497,194.5017c-0.51823,0.02867 -0.97656,0.043 -1.375,0.043c-1.08333,0 -1.8815,-0.08463 -2.3945,-0.2539c-0.92707,-0.30209 -1.3906,-0.87239 -1.3906,-1.7109c0,-0.51563 0.16016,-0.93099 0.48047,-1.2461l0.73437,0.39843c-0.21354,0.21094 -0.32031,0.48698 -0.32031,0.82813c0,0.43489 0.23437,0.73958 0.70312,0.91406c0.41407,0.15365 1.10677,0.23047 2.0781,0.23047c0.41146,0 0.87499,-0.01953 1.3906,-0.0586z"/><path d="M296.83,187.38h0.86328v2.207c0.61979,-0.64323 1.11589,-1.08463 1.4883,-1.3242c0.34635,-0.22396 0.70572,-0.33594 1.0781,-0.33594c0.375,0 0.67708,0.10547 0.90625,0.31641c0.30208,0.28125 0.45312,0.64975 0.45312,1.1055c0,0.11979 -0.01563,0.27865 -0.0469,0.47656c-0.22917,1.45573 -0.34375,2.46353 -0.34375,3.0234c0,0.23958 0.0612,0.35937 0.18359,0.35937c0.07813,0 0.18099,-0.04427 0.3086,-0.13281c0.26823,-0.18489 0.53906,-0.48828 0.8125,-0.91015l0.32031,0.89453c-0.16667,0.26562 -0.3737,0.5013 -0.6211,0.70703c-0.28645,0.23958 -0.59244,0.35937 -0.91796,0.35937c-0.3099,0 -0.55079,-0.10807 -0.72266,-0.32422c-0.14583,-0.18489 -0.21875,-0.49349 -0.21875,-0.92578c0,-0.32812 0.04297,-0.82162 0.12891,-1.4805c0.10937,-0.82813 0.18229,-1.44273 0.21875,-1.8438c0.00533,-0.06513 0.008,-0.11982 0.008,-0.16406c0,-0.22917 -0.04818,-0.40495 -0.14453,-0.52734c-0.09115,-0.11719 -0.21745,-0.17578 -0.37891,-0.17578c-0.54427,0 -1.38151,0.72527 -2.5117,2.1758v3.6875h-0.86328v-2.7031c-0.43489,0.60938 -0.83593,1.18491 -1.2031,1.7266l-0.40625,-0.92579c0.61719,-0.7474 1.15365,-1.45963 1.6094,-2.1367v-0.99219h-1.3711v-0.78516h1.3711z"/><path d="M303.46,188.15c2.39587,-0.03647 4.6602,-0.09767 6.793,-0.1836l0.0469,0.77735c-0.94013,0.04687 -1.6719,0.19009 -2.1953,0.42968c-0.5,0.22917 -0.90103,0.54688 -1.2031,0.95313c-0.34375,0.46094 -0.51563,0.97397 -0.51563,1.5391c0,0.5625 0.19531,0.98437 0.58594,1.2656c0.44791,0.32031 1.13541,0.54036 2.0625,0.66015l-0.18359,0.87891c-1.20833,-0.16146 -2.0586,-0.47396 -2.5508,-0.9375c-0.52864,-0.49479 -0.79296,-1.10939 -0.79296,-1.8438c0,-0.66667 0.23958,-1.28907 0.71875,-1.8672c0.34895,-0.42448 0.82682,-0.76561 1.4336,-1.0234c-1.07553,0.03647 -2.46227,0.09767 -4.1602,0.1836z"/><path d="M314.95,192.3c-0.48177,1.41667 -1.02213,2.125 -1.6211,2.125c-0.42708,0 -0.79298,-0.29948 -1.0977,-0.89844c-0.23437,-0.46354 -0.39583,-0.97394 -0.48437,-1.5312c-0.10677,-0.67707 -0.16016,-1.54687 -0.16016,-2.6094c0,-0.46094 0.01693,-0.95574 0.0508,-1.4844l0.91797,0.0703c-0.03387,0.52864 -0.0508,1.03124 -0.0508,1.5078c0,1.67187 0.15625,2.83723 0.46875,3.4961c0.12761,0.27083 0.2474,0.40625 0.35938,0.40625c0.07291,0 0.16406,-0.08333 0.27343,-0.25c0.22396,-0.33854 0.44011,-0.80467 0.64844,-1.3984zM317.4227,193.22969c-0.13281,-1.09893 -0.29557,-1.98697 -0.48828,-2.6641c-0.23437,-0.82033 -0.50651,-1.57163 -0.81641,-2.2539l0.83203,-0.20313c0.42969,0.8516 0.74871,1.6719 0.95704,2.4609c0.17187,0.64063 0.3138,1.45573 0.42578,2.4453z"/><path d="M320.24,187.63h4.3828l0.41797,0.64844c-1.35413,0.82813 -2.5273,1.58073 -3.5195,2.2578c0.64062,-0.26823 1.28385,-0.40234 1.9297,-0.40234c0.58073,0 1.0651,0.09245 1.4531,0.27734c0.35937,0.17187 0.63932,0.40625 0.83984,0.70313c0.20833,0.3151 0.3125,0.67707 0.3125,1.0859c0,0.57292 -0.19531,1.05209 -0.58593,1.4375c-0.26823,0.26823 -0.61197,0.47136 -1.0312,0.60938c-0.54948,0.17969 -1.15105,0.26953 -1.8047,0.26953c-0.7526,0 -1.3073,-0.13932 -1.6641,-0.41797c-0.27865,-0.21875 -0.41797,-0.51432 -0.41797,-0.88672c0,-0.28125 0.10156,-0.53125 0.30468,-0.75c0.30729,-0.33073 0.72266,-0.49609 1.2461,-0.49609c0.55469,0 0.99869,0.1862 1.332,0.55859c0.24219,0.27083 0.41667,0.6341 0.52344,1.0898c0.80207,-0.25521 1.2031,-0.72658 1.2031,-1.4141c0,-0.52083 -0.21745,-0.90493 -0.65234,-1.1523c-0.29167,-0.16667 -0.66147,-0.25 -1.1094,-0.25c-0.66927,0 -1.27343,0.09245 -1.8125,0.27734c-0.39843,0.13542 -0.9336,0.46224 -1.6055,0.98047l-0.55078,-0.66406c0.72393,-0.625 1.54817,-1.2591 2.4727,-1.9023c0.63802,-0.44271 1.20052,-0.80598 1.6875,-1.0898h-3.3516zM323.2009,193.7667c-0.18489,-0.737 -0.54816,-1.1055 -1.0898,-1.1055c-0.29948,0 -0.51563,0.09505 -0.64844,0.28516c-0.06247,0.08593 -0.0937,0.17838 -0.0937,0.27734c0,0.20573 0.14583,0.36068 0.4375,0.46485c0.21094,0.07291 0.49349,0.10937 0.84766,0.10937c0.15104,0 0.33333,-0.0104 0.54687,-0.0312z"/><path d="M330.86,190.36v3.0938c0,0.20052 0.08594,0.32161 0.25781,0.36328c0.17709,0.04427 0.58202,0.0664 1.2148,0.0664c0.61719,0 1.02476,-0.03123 1.2227,-0.0937c0.11198,-0.03647 0.1849,-0.13803 0.21875,-0.30469c0.04427,-0.23437 0.0677,-0.51172 0.0703,-0.83203l0.81641,0.23047c-0.04167,0.7682 -0.14714,1.25907 -0.31641,1.4726c-0.11198,0.14063 -0.28125,0.22396 -0.50781,0.25c-0.35677,0.03907 -0.96224,0.0586 -1.8164,0.0586c-0.66145,0 -1.09505,-0.01823 -1.3008,-0.0547c-0.30989,-0.05207 -0.50651,-0.18879 -0.58984,-0.41016c-0.04167,-0.11719 -0.0625,-0.27344 -0.0625,-0.46875v-3.0976l-0.74609,0.25781l-0.1836,-0.75781l0.92969,-0.32031v-2.1055h0.79297v1.832l0.83984,-0.28516v-2.0586h0.78516v1.7852l1.3086,-0.44921l0.41016,0.25v2.9258c0,0.20312 -0.04818,0.35416 -0.14453,0.45312c-0.10938,0.10937 -0.29297,0.16406 -0.55078,0.16406c-0.21094,0 -0.4349,-0.01823 -0.67188,-0.0547l-0.12891,-0.7461c0.15365,0.03907 0.3099,0.0586 0.46875,0.0586c0.11459,0 0.1849,-0.02343 0.21094,-0.0703c0.02607,-0.03907 0.0391,-0.10417 0.0391,-0.19531v-1.8476l-0.9414,0.32812v3.1602h-0.78516v-2.8906zM327.9889,189.0827v-1.8867h0.83985v1.8867h0.75781v0.79297h-0.75781v2.4844c0.27343,-0.09375 0.54427,-0.1914 0.8125,-0.29297l0.0742,0.75391c-0.84373,0.38541 -1.70963,0.70833 -2.5977,0.96875l-0.27344,-0.83203c0.40105,-0.10417 0.75261,-0.20313 1.0547,-0.29688c0.03647,-0.013 0.0664,-0.0221 0.0898,-0.0273v-2.7578h-0.99218v-0.79297z"/><path d="M341.62,188.57c-0.013,-0.02607 -0.02473,-0.0521 -0.0352,-0.0781c-0.15104,-0.34115 -0.36328,-0.67448 -0.63672,-1l0.64844,-0.30469c0.28907,0.32292 0.52344,0.67449 0.70313,1.0547l-0.625,0.32813h0.82422v0.71875h-1.8047l0.008,0.15625c0.03907,0.82293 0.11849,1.53387 0.23828,2.1328c0.21615,-0.47396 0.41146,-1.00129 0.58594,-1.582l0.72656,0.3125c-0.30989,0.8802 -0.65496,1.64973 -1.0352,2.3086c0.10937,0.32552 0.23177,0.61068 0.36718,0.85547c0.05207,0.09375 0.09113,0.14062 0.11719,0.14062c0.02867,0 0.07164,-0.07812 0.12891,-0.23437c0.06507,-0.18489 0.11715,-0.5026 0.15625,-0.95313l0.64843,0.45704c-0.08593,0.67187 -0.19531,1.16013 -0.32812,1.4648c-0.11719,0.26563 -0.26432,0.39844 -0.44141,0.39844c-0.17448,0 -0.3776,-0.13021 -0.60937,-0.39063c-0.22396,-0.2526 -0.42058,-0.56119 -0.58985,-0.92578c-0.44531,0.55989 -0.95441,1.03906 -1.5273,1.4375l-0.57422,-0.58984c0.4974,-0.29948 0.9336,-0.65105 1.3086,-1.0547c-0.63803,0.25 -1.47916,0.48568 -2.5234,0.70703l-0.25781,-0.72656c1.08593,-0.17969 2.02473,-0.39062 2.8164,-0.63281l0.0274,0.57812c0.14062,-0.15625 0.28124,-0.33724 0.42187,-0.54297c-0.21875,-0.7578 -0.36849,-1.86327 -0.44922,-3.3164h-2.5664v0.55468h-0.63282v2.5703c0.23959,-0.09896 0.45834,-0.19271 0.65625,-0.28125l0.0859,0.76562c-0.77347,0.41146 -1.5456,0.74479 -2.3164,1l-0.28125,-0.82422c0.29427,-0.08333 0.64064,-0.19661 1.0391,-0.33984v-2.8906h-0.91797v-0.77734h0.91797v-1.8789h0.8164v1.8789h0.5586v-0.49609h2.6055l-0.0156,-0.27344c-0.013,-0.2474 -0.02603,-0.612 -0.0391,-1.0938h0.80078c0.0156,0.67707 0.02993,1.1328 0.043,1.3672zM339.7255,189.9645v2.3594h-2.0859v-2.3594zM338.3036,190.59731v1.1016h0.77344v-1.1016z"/><path d="M343.64,188.3h2.1055c0.23177,-0.36979 0.40756,-0.66796 0.52735,-0.89453l0.87109,0.125c-0.07813,0.14063 -0.21615,0.36979 -0.41406,0.6875l-0.0508,0.082h2.7539v0.76954h-3.2734c-0.34115,0.46875 -0.66667,0.87501 -0.97657,1.2188c0.49219,-0.29427 0.94142,-0.44141 1.3477,-0.44141c0.63021,0 1.04297,0.31641 1.2383,0.94922c0.66667,-0.22135 1.34637,-0.4401 2.0391,-0.65625l0.33594,0.75781l-0.13672,0.0391l-0.38672,0.10157c-0.7292,0.19791 -1.31253,0.36718 -1.75,0.50781c0.03127,0.33854 0.0534,0.77604 0.0664,1.3125l-0.85547,0.0469c-0.00267,-0.30989 -0.00787,-0.64583 -0.0156,-1.0078v-0.0781c-1.19793,0.40885 -1.7969,0.82032 -1.7969,1.2344c0,0.21354 0.15365,0.35937 0.46094,0.4375c0.29687,0.07552 0.82814,0.11328 1.5938,0.11328c0.70573,0 1.4466,-0.04036 2.2226,-0.12109l0.0937,0.83203c-0.7526,0.05727 -1.53253,0.0859 -2.3398,0.0859c-0.9948,0 -1.70183,-0.07552 -2.1211,-0.22657c-0.51823,-0.1875 -0.77735,-0.52473 -0.77735,-1.0117c0,-0.41146 0.18359,-0.77473 0.55078,-1.0898c0.38021,-0.32552 1.04948,-0.66145 2.0078,-1.0078c-0.05207,-0.20052 -0.12108,-0.34115 -0.20703,-0.42188c-0.09636,-0.09114 -0.22397,-0.13671 -0.38282,-0.13671c-0.25781,0 -0.58203,0.09765 -0.97265,0.29296c-0.48177,0.23959 -0.99871,0.60025 -1.5508,1.082l-0.51954,-0.59375c0.80987,-0.7526 1.444,-1.4922 1.9024,-2.2188h-1.5898z"/><path d="M355.91,193.16l0.0547,0.69921c-1.1302,0.39844 -2.3867,0.72657 -3.7695,0.98438l-0.28906,-0.78125c0.23958,-0.03647 0.57811,-0.09506 1.0156,-0.17578v-1.4297c-0.45052,0.22917 -0.98699,0.44661 -1.6094,0.65234l-0.44531,-0.69531c1.2526,-0.33854 2.20833,-0.77084 2.8672,-1.2969h-2.7891v-0.67969h3.3477v-0.58984h-2.5312v-0.65625h2.5312v-0.55079h-2.9297v-0.67187h2.9297v-0.76953h0.85547v0.76953h3.0156v0.67187h-3.0156v0.55079h2.6172v0.65625h-2.6172v0.58984h3.4336v0.67969h-0.93359l0.57812,0.39843c-0.35677,0.34636 -0.85677,0.72526 -1.5,1.1367l-0.0898,0.0586c0.48958,0.44791 1.15365,0.81771 1.9922,1.1094l-0.52735,0.79297c-0.90887,-0.38541 -1.63933,-0.86978 -2.1914,-1.4531zM354.7264,191.1288c-0.26041,0.30469 -0.57421,0.57812 -0.9414,0.82031v1.7539c0.64323,-0.14323 1.28906,-0.30989 1.9375,-0.5l0.17968,-0.0508c-0.53385,-0.59115 -0.92579,-1.26561 -1.1758,-2.0234zM356.1522,192.1952c0.46355,-0.33073 0.86981,-0.69009 1.2188,-1.0781h-1.8476c0.16667,0.39843 0.3763,0.7578 0.6289,1.0781z"/><path d="M363.24,190.53v3.4648c0,0.3151 -0.0638,0.52994 -0.19141,0.64453c-0.11979,0.10417 -0.35156,0.15625 -0.69531,0.15625c-0.39063,0 -0.76173,-0.02473 -1.1133,-0.0742l-0.16797,-0.82422c0.36459,0.05987 0.71355,0.0898 1.0469,0.0898c0.11198,0 0.18229,-0.01953 0.21093,-0.0586c0.0208,-0.03387 0.0312,-0.08986 0.0312,-0.16797v-3.2305h-3.3593v-0.77731h7.5273v0.77734zM359.9392,187.6355h5.6484v0.76953h-5.6484zM358.95482,193.6277c0.5625,-0.58854 1.01563,-1.37111 1.3594,-2.3477l0.80859,0.30469c-0.39843,1.1172 -0.89973,1.9948 -1.5039,2.6328zM365.65792,194.10426c-0.53906,-1.1406 -1.00779,-1.97523 -1.4062,-2.5039l0.73437,-0.4375c0.57292,0.737 1.06119,1.53907 1.4648,2.4062z"/><path d="M367.73,187.53h0.92187v4.6562c0,0.9818 0.51563,1.4727 1.5469,1.4727c0.67967,0 1.23697,-0.3138 1.6719,-0.94141c0.28125,-0.40365 0.53386,-1.02865 0.75782,-1.875l0.79296,0.48047c-0.26562,0.94013 -0.58463,1.64327 -0.95703,2.1094c-0.58593,0.72653 -1.34767,1.0898 -2.2852,1.0898c-0.9792,0 -1.6693,-0.30208 -2.0703,-0.90625c-0.2526,-0.37761 -0.3789,-0.86457 -0.3789,-1.4609z"/><path d="M377.36,187.38h0.86328v0.98438h2.457v0.74218h-2.457v0.92969h2.3203v0.73438h-2.3203v1.207c0.92707,0.3125 1.84113,0.78257 2.7422,1.4102l-0.46094,0.74219c-0.68227,-0.51041 -1.44267,-0.96095 -2.2812,-1.3516c-0.0208,0.44531 -0.10674,0.79038 -0.25781,1.0352c-0.26302,0.42447 -0.78125,0.63671 -1.5547,0.63671c-0.59635,0 -1.07552,-0.11198 -1.4375,-0.33593c-0.40365,-0.25 -0.60547,-0.58853 -0.60547,-1.0156c0,-0.51041 0.27214,-0.88801 0.81641,-1.1328c0.36458,-0.16146 0.83855,-0.24219 1.4219,-0.24219c0.22917,0 0.48047,0.01823 0.75391,0.0547v-1.0078h-2.7695v-0.73438h2.7695v-0.92969h-2.9375v-0.74218h2.9375zM377.36,192.505c-0.30989,-0.06513 -0.60677,-0.0977 -0.89062,-0.0977c-0.34636,0 -0.62761,0.05078 -0.84375,0.15234c-0.25781,0.12239 -0.38672,0.29687 -0.38672,0.52344c0,0.1901 0.10026,0.34374 0.30078,0.46093c0.20313,0.11979 0.47396,0.17969 0.8125,0.17969c0.40104,0 0.67708,-0.10677 0.82812,-0.32031c0.11979,-0.16667 0.17969,-0.41536 0.17969,-0.74609z"/><path d="M385.66,187.36h0.87891v1.0781h2.3047v0.75391h-2.3047v1.6719c0.09114,0.32031 0.13671,0.60547 0.13671,0.85547c0,0.92707 -0.20443,1.60807 -0.61328,2.043c-0.44531,0.47656 -1.11588,0.80599 -2.0117,0.98828l-0.44531,-0.66406c0.69533,-0.13281 1.21097,-0.32031 1.5469,-0.5625c0.3151,-0.22917 0.52734,-0.54037 0.63672,-0.9336c-0.27865,0.30469 -0.61068,0.45703 -0.9961,0.45703c-0.43229,0 -0.78256,-0.12239 -1.0508,-0.36718c-0.31511,-0.28907 -0.47266,-0.70833 -0.47266,-1.2578c0,-0.28906 0.06901,-0.5677 0.20704,-0.83593c0.09114,-0.17188 0.20312,-0.31511 0.33593,-0.42969c0.30729,-0.26042 0.67579,-0.39063 1.1055,-0.39063c0.27344,0 0.52084,0.06511 0.74219,0.19532v-0.76953h-3.8555v-0.75391h3.8555zM385.6912,191.4147v-0.14453c0,-0.16667 -0.03906,-0.3138 -0.11719,-0.44141c-0.14583,-0.23958 -0.35677,-0.35937 -0.63281,-0.35937c-0.14063,0 -0.27214,0.03906 -0.39453,0.11719c-0.28646,0.17969 -0.42969,0.45573 -0.42969,0.82812c0,0.23437 0.05208,0.43229 0.15625,0.59375c0.14583,0.22396 0.36068,0.33594 0.64453,0.33594c0.25781,0 0.46224,-0.11589 0.61328,-0.34766c0.10677,-0.16406 0.16016,-0.35807 0.16016,-0.58203z"/></g></g></g></svg>