<svg version="1.1" xmlns="http://www.w3.org/2000/svg" xmlns:xlink="http://www.w3.org/1999/xlink" width="37.2279" height="40.57881" viewBox="0,0,37.2279,40.57881"><g transform="translate(-152.84036,-188.47293)"><g data-paper-data="{&quot;isPaintingLayer&quot;:true}" fill="#ff0000" fill-rule="evenodd" stroke="#ff0000" stroke-width="10" stroke-linecap="round" stroke-linejoin="round" stroke-miterlimit="10" stroke-dasharray="" stroke-dashoffset="0" style="mix-blend-mode: normal"><path d="M171.63079,205.30248l-0.35098,0.64997l0.32998,1.07995l-0.72197,1.15996l0.012,0.79997l-1.13295,0.85996l0.188,0.88997l-1.12696,2.73989l-1.06196,0.29998l-0.12899,-0.79996l-0.85397,-0.03l-0.86996,1.32995l0.34898,1.93993l-1.75093,2.14992l0.13299,1.21995l1.09996,0.70997l-1.15295,0.76997l-0.59198,0.93996l-0.98296,0.62998l-0.92996,-0.21999l-0.46498,1.62993l-1.16295,-0.02l-0.029,-0.76997l-1.84792,-1.34994l-0.74097,-2.22991l2.3419,-0.30998l0.16899,-2.09992l0.94796,-1.39994l-0.25899,-1.12995l1.10496,-0.50998l-0.094,-0.75997l0.48298,-1.13995l1.49894,-0.66998l1.88993,-0.46998l0.95796,-0.64997l1.41795,0.02l1.05395,-0.30998l0.58998,-1.64993l0.93296,-1.69994l-0.72597,-0.59997l0.31899,-2.02992l1.16195,1.02996"/><path d="M180.11044,196.50284l1.50094,0.58997l0.189,0.58997l1.22795,0.50998l0.77697,-0.76997l-0.92096,-0.75997l0.056,-1.10996l1.39794,0.44998l0.72998,1.29995l-0.87497,0.32999l-0.171,0.97996l0.85797,0.08999l0.075,1.66994l-1.09896,0.87996l-1.13295,-0.60998l-0.85197,0.97996l-2.5159,0.51998l-0.04699,-1.28995l-0.85997,0.11l-0.43098,-0.78997l0.17699,-1.14995l-1.46594,0.37998l0.50298,-2.27991l-1.02995,-0.92996l-0.84397,0.73997l-0.23199,1.76993l-1.01196,-1.13995l-0.44298,-1.57994l1.06896,-0.73997l0.70597,-1.60994l1.71693,-0.16l2.15591,1.75993l0.79197,1.26995"/><path d="M175.57063,202.60258l-0.045,0.92996l-0.95196,1.42995l0.35498,1.15995l-1.35694,-0.56998l-0.25299,-2.01992l0.50798,-0.47998l0.18999,-1.29995l1.90493,-0.74997l0.33398,0.51997l-0.68497,1.07996"/></g></g></svg>