<?xml version="1.0" encoding="UTF-8"?>
<svg width="480" height="360" version="1.1" viewBox="0 0 480 360" xmlns="http://www.w3.org/2000/svg">
 <g dominant-baseline="central" fill="#fff" aria-label="淡路島付近">
  <path d="m252.94 180.55v0.14649q0.0391 2.2949 1.2891 3.9844 0.66406 0.88868 2.0605 1.6016 1.5332 0.78125 3.5254 1.2012l-1.2207 2.0215q-5.1074-1.5039-6.5137-5.0098-0.70313 2.0508-2.1875 3.2422-1.5234 1.2012-4.4141 1.9238l-1.1621-1.7383q3.7891-0.82031 5.1465-2.3828 1.377-1.582 1.377-5.0781v-1.6602h2.0996zm-0.30273-5.7324q3.3594 1.7285 6.7578 3.9648l-1.416 1.6016q-3.0762-2.2852-6.0449-4.0137-0.81054 1.3672-1.7285 2.1289-1.4941 1.25-4.1504 2.1582l-1.1035-1.6992q3.0664-0.77149 4.541-2.4219 1.3476-1.5234 1.3476-4.6191v-1.416h2.0996v1.1816q0 1.6699-0.30273 3.1348zm-8.7207 0.26367q-1.2988-1.7285-2.9199-3.0762l1.4551-1.3672q1.6113 1.1426 3.0469 2.9199zm-0.72266 5.0586q-1.3965-1.8262-2.998-3.1348l1.5039-1.4648q1.6992 1.2695 3.0957 3.0371zm-2.5977 7.8418q1.6797-2.6367 3.1836-6.7578l1.7383 1.1816q-1.2988 3.8574-3.0859 7.0801zm5.1562-12.52q1.25-1.6602 1.6797-3.7793l1.9238 0.43945q-0.71289 2.6758-1.8848 4.3164zm8.4473-0.91796q1.2207-1.2793 2.373-3.3203l2.0215 0.91797q-1.377 2.0898-2.7832 3.3789zm-8.5644 9.6973q1.2012-1.4844 1.9434-3.623l1.7969 0.45899q-0.61523 2.5391-2.041 4.2188zm8.3008-0.66406q1.3281-1.5137 2.3438-3.3789l1.9531 0.98633q-1.5723 2.2363-2.7734 3.4375z" dominant-baseline="central"/>
  <path d="m275.41 177.37q1.875 1.4648 4.3945 2.4609l-0.90821 1.6992q-2.8418-1.1621-4.7656-2.8906-0.51758 0.44922-0.89844 0.75195-1.6992 1.3086-4.0527 2.2559l-0.97657-1.6211q2.5586-0.84961 4.6289-2.6856-0.92773-1.1035-1.543-2.0996-0.73242 0.82031-1.5918 1.4844l-1.1524-1.5234q2.3438-1.6113 3.5742-4.7754l1.9824 0.32226q-0.20508 0.43946-0.35156 0.76172h3.5742l1.1523 1.0547q-1.2012 2.6856-3.0664 4.8047zm-1.3574-1.2402q1.1621-1.3086 1.9922-2.8027h-3.3203q-0.30274 0.46875-0.38086 0.57617 0.73242 1.2207 1.709 2.2266zm-5.5957-4.9316v6.7774h-2.4414v2.9785h2.4805v1.7578h-2.4805v3.4473q0.9961-0.22461 2.7832-0.75195l0.15625 1.7285q-3.8574 1.2891-7.9785 2.1191l-0.61523-1.9043q0.85937-0.14649 0.97656-0.17579v-7.5781h1.7578v7.2266q0.50782-0.0976 1.1035-0.23437v-8.6133h-2.998v-6.7774zm-5.3613 1.7969v3.2617h3.5254v-3.2617zm15.146 8.623v7.8809h-1.9629v-1.084h-4.5508v1.084h-1.9629v-7.8809zm-6.5137 1.7774v3.2422h4.5508v-3.2422z" dominant-baseline="central"/>
  <path d="m287.74 171.98q0.36133-0.86914 0.58594-1.6602l2.3828 0.32226q-0.3418 0.81055-0.625 1.3379h6.5039v6.3672h-11.797v0.98633h14.697v1.582h-14.697v0.99609h14.014q-0.12695 4.4727-0.5664 6.0352-0.28321 0.99609-1.0645 1.3184-0.55664 0.23437-1.6992 0.23437-1.1719 0-2.1875-0.14648l-0.39063-1.6406h-9.7852v1.084h-2.0996v-4.6973h2.0996v2.0117h3.3594v-2.6367h-3.8379v-11.494zm4.1504 14.131v-2.0117h2.0215v3.3984q0.81054 0.0781 1.3476 0.0781 0.66406 0 0.83008-0.38085 0.32227-0.7129 0.50781-3.7207h-8.0273v2.6367zm-7.0996-12.627v0.96679h9.6387v-0.96679zm0 2.3633v1.0644h9.6387v-1.0644z" dominant-baseline="central"/>
  <path d="m305.44 175.96v13.545h-2.1191v-10.029q-0.79101 1.1133-1.8359 2.3047l-1.1035-2.0996q1.9824-2.1973 3.3984-5.1172 0.85937-1.7676 1.7188-4.2188l2.041 0.55664q-0.88867 2.6758-2.0996 5.0586zm11.123-0.85937h2.9394v1.9629h-2.9394v10.254q0 1.2891-0.625 1.7188-0.45898 0.32227-1.7285 0.32227-1.5527 0-3.1836-0.17578l-0.41992-2.1387q1.7383 0.2539 3.2422 0.2539 0.41015 0 0.49804-0.17578 0.0586-0.12695 0.0586-0.41992v-9.6387h-7.9883v-1.9629h7.9883v-4.2578h2.1582zm-6.1816 9.4629q-1.1035-2.9395-2.7246-5.3613l1.8652-1.084q1.7578 2.5879 2.8223 5.3027z" dominant-baseline="central"/>
  <path d="m325.52 185.06q0.78125 0.90821 1.7578 1.3477 1.6016 0.72266 4.1992 0.72266h8.3203q-0.35156 0.66406-0.6543 1.9043h-7.7637q-3.3594 0-5.1465-1.0547-0.73242-0.43946-1.6113-1.4356-0.0684 0.0781-0.16602 0.19531-1.4355 1.6992-2.8516 2.7734l-1.1816-2.002q1.5527-0.92774 2.998-2.0996v-4.8242h-2.8418v-1.9238h4.9414zm2.5391-12.959 0.51758-0.0391q4.5215-0.3125 8.125-1.3379l1.5234 1.7188q-3.7891 0.99609-8.0859 1.3476v2.5293h9.043v1.9043h-3.2812v7.959h-2.1582v-7.959h-3.6035q-0.0488 3.1348-0.46875 4.9902-0.38086 1.709-1.25 3.0664l-1.7969-1.3574q0.9668-1.5039 1.2402-3.7305 0.19531-1.5332 0.19531-4.1699zm-3.6133 3.8184q-1.4941-2.1094-3.2227-3.7793l1.6016-1.2793q1.6797 1.4062 3.3789 3.5742z" dominant-baseline="central"/>
 </g>
</svg>
