<?xml version="1.0" encoding="UTF-8"?>
<svg width="480" height="360" version="1.1" viewBox="0 0 480 360" xmlns="http://www.w3.org/2000/svg">
 <g dominant-baseline="central" fill="#fff" aria-label="豊後水道">
  <path d="m255.12 185.94q-0.33203 0.73242-0.84961 1.582h5.2246v1.5625h-18.994v-1.5625h5.0195q-0.36133-0.77148-0.86914-1.582h-1.8945v-3.9356h14.482v3.9356zm-2.3633 0h-5.6836q0.51758 0.87891 0.75196 1.582h4.2188q0.38085-0.76172 0.71289-1.582zm-7.8027-2.5586v1.2012h10.088v-1.2012zm1.8262-11.484v-1.3965h1.9824v1.3965h2.3828v-1.3965h1.9726v1.3965h4.502v6.8848h-15.234v-6.8848zm-2.4121 1.3379v1.4453h2.4121v-1.4453zm0 2.7051v1.4844h2.4121v-1.4844zm11.25 1.4844v-1.4844h-2.5v1.4844zm0-2.7441v-1.4453h-2.5v1.4453zm-6.8555-1.4453v1.4453h2.3828v-1.4453zm0 2.7051v1.4844h2.3828v-1.4844zm-7.998 3.7207h18.477v1.4648h-18.477z" dominant-baseline="central"/>
  <path d="m270.49 177.33q-1.5723-1.875-3.6914-3.5644l1.4062-1.3379q0.72266 0.61523 1.2598 1.1328 1.1133-1.3867 2.1191-3.2129l1.875 0.82031q-1.3281 1.9141-2.8418 3.5352l0.14649 0.14649q0.61523 0.66406 1.0547 1.1816 1.8848-1.9531 3.5254-3.9648l1.6602 1.0254q-2.2266 2.6367-5.0586 5.1562 1.7969-0.0879 4.248-0.2539-0.54688-0.9668-1.2305-1.8848l1.6406-0.76172q1.543 1.8848 2.7344 4.4629l-1.7774 0.85938-0.27343-0.57617q-0.26368-0.54688-0.33204-0.67383-2.6367 0.35156-4.7461 0.45898-0.0684 0.01-0.14648 0.0195-0.29297 0.48828-0.77149 1.1914h5.293l1.1816 1.084q-1.4941 2.1289-3.3203 3.584 2.2461 1.1523 5.1953 1.8164l-1.0742 1.8945q-3.0469-0.78125-5.8398-2.5195-3.1934 1.9336-6.1426 2.666l-1.0644-1.8262q2.627-0.44922 5.5566-1.9727-1.2305-1.0156-2.2168-2.041-0.76172 0.64453-1.7773 1.2207l-1.2598-1.3477q2.3242-1.2891 3.9941-3.623l-1.4648 0.0781q-0.84961 0.0488-1.5137 0.0684l-0.43946-1.7578q0.64454-0.01 2.959-0.0684l0.33203-0.2832q0.40039-0.36133 0.80078-0.73243zm2.3047 7.4512q1.3574-0.98633 2.2852-2.1094h-4.8926q1.1328 1.1621 2.6074 2.1094zm-7.6856-5.957v10.674h-2.0996v-8.2226q-0.9082 0.91797-1.7871 1.6797l-0.97656-1.9141q2.6856-2.0898 5.0586-6.1035l1.7578 0.99609q-0.87891 1.4551-1.9531 2.8906zm-4.707-3.8281q2.4902-1.748 4.2578-4.4434l1.8066 0.95703q-2.3047 3.3008-4.9805 5.1856z" dominant-baseline="central"/>
  <path d="m291.25 174.2q0.41992 1.8652 1.3379 3.7012 2.5098-2.1191 4.5215-4.5606l1.7774 1.4746q-2.7637 2.9883-5.332 4.7363 0.0488 0.0684 0.0976 0.14649 2.1289 3.2324 6.1524 5.6836l-1.3965 1.9141q-4.6582-2.8027-7.1582-8.1934v8.5156q0 0.96679-0.46875 1.3574-0.47852 0.40039-1.748 0.40039-1.5137 0-2.7441-0.15625l-0.40039-2.2168q1.6894 0.23438 2.6367 0.23438 0.41016 0 0.48828-0.17578 0.0586-0.11719 0.0586-0.36133v-16.201h2.1778zm-10.41 1.0742h6.4746l1.084 1.0644q-0.56641 2.9492-1.5039 5.0195-1.3477 2.9688-3.8281 5.293-0.49805 0.46875-1.3281 1.1426l-1.543-1.7383q4.6875-3.3789 5.7812-8.8184h-5.1367z" dominant-baseline="central"/>
  <path d="m305.22 184.92q1.0059 1.1914 2.4316 1.6992 1.4746 0.51758 3.9453 0.51758h8.2031q-0.3711 0.91797-0.60547 1.9434h-8.0957q-3.291 0-4.9707-1.0254-0.77148-0.46875-1.6406-1.4062-1.3184 1.6504-2.9883 2.9102l-1.2012-1.9629q1.4941-0.85938 2.8418-2.0312v-4.9805h-2.6465v-1.9238h4.7266zm6.1621-10.469h-5.3027v-1.6797h3.1152q-0.52735-0.85938-1.1133-1.6406l1.9336-0.70312q0.83008 1.2402 1.3086 2.3438h2.5q0.39063-0.79102 0.94727-2.3633l2.1875 0.45898q-0.44922 0.98633-1.0059 1.9043h3.2617v1.6797h-5.752q-0.24414 0.75196-0.51758 1.4453h5.0293v10.078h-10.674v-10.078h3.623q0.26368-0.75196 0.45899-1.4453zm-2.0606 2.8613v1.4648h6.6113v-1.4648zm0 2.7832v1.4844h6.6113v-1.4844zm0 2.8613v1.5332h6.6113v-1.5332zm-5.4883-7.1582q-1.4062-2.2266-2.998-3.7598l1.6211-1.2793q1.875 1.7383 3.1055 3.5938z" dominant-baseline="central"/>
 </g>
</svg>
