<svg version="1.1" xmlns="http://www.w3.org/2000/svg" xmlns:xlink="http://www.w3.org/1999/xlink" width="100" height="100" viewBox="0,0,100,100"><g transform="translate(-190,-130)"><g data-paper-data="{&quot;isPaintingLayer&quot;:true}" fill-rule="nonzero" stroke-linecap="butt" stroke-linejoin="miter" stroke-miterlimit="10" stroke-dasharray="" stroke-dashoffset="0" style="mix-blend-mode: normal"><path d="M190,230v-100h100v100z" fill="none" stroke="#959196" stroke-width="0"/><path d="M233.585,190.987c0.02667,-1.78667 0.28,-3.32 0.76,-4.6c0.50667,-1.30667 1.14667,-2.42667 1.92,-3.36c0.8,-0.96 1.64,-1.82667 2.52,-2.6c0.88,-0.8 1.70667,-1.58667 2.48,-2.36c0.77333,-0.8 1.41333,-1.65333 1.92,-2.56c0.50667,-0.93333 0.76,-2.02667 0.76,-3.28c0,0 0.12,0 0.36,0c0.24,0 0.53333,0 0.88,0c0.37333,0 0.74667,0 1.12,0c0.37333,0 0.68,0 0.92,0c0.24,0 0.36,0 0.36,0c0,1.65333 -0.25333,3.06667 -0.76,4.24c-0.50667,1.14667 -1.16,2.16 -1.96,3.04c-0.77333,0.88 -1.61333,1.70667 -2.52,2.48c-0.88,0.74667 -1.72,1.53333 -2.52,2.36c-0.77333,0.82667 -1.41333,1.77333 -1.92,2.84c-0.50667,1.04 -0.77333,2.30667 -0.8,3.8zM233.585,194.227v-3.24h13.96v3.24zM236.385,171.747l-3.36,-0.68c0.16,-1.17333 0.56,-2.2 1.2,-3.08c0.66667,-0.90667 1.52,-1.61333 2.56,-2.12c1.04,-0.50667 2.17333,-0.76 3.4,-0.76v3.16c-0.96,0 -1.8,0.28 -2.52,0.84c-0.72,0.56 -1.14667,1.44 -1.28,2.64zM247.585,172.267h-3.64c0,-1.17333 -0.36,-2.13333 -1.08,-2.88c-0.72,-0.74667 -1.62667,-1.12 -2.72,-1.12v-3.16c1.41333,0 2.68,0.32 3.8,0.96c1.12,0.61333 2,1.46667 2.64,2.56c0.66667,1.06667 1,2.28 1,3.64z" fill="#ff0505" stroke="none" stroke-width="1"/></g></g></svg>