<svg version="1.1" xmlns="http://www.w3.org/2000/svg" xmlns:xlink="http://www.w3.org/1999/xlink" width="32" height="32" viewBox="0,0,32,32"><g transform="translate(-224,-164)"><g data-paper-data="{&quot;isPaintingLayer&quot;:true}" fill-rule="nonzero" stroke="none" stroke-width="1" stroke-linecap="butt" stroke-linejoin="miter" stroke-miterlimit="10" stroke-dasharray="" stroke-dashoffset="0" style="mix-blend-mode: normal"><path d="M224,196v-32h32v32z" fill-opacity="0" fill="#000000"/><path d="M249.15,182.52c0.19,0.14 0.24,0.39 0.12,0.61l-1.92,3.32c-0.12,0.22 -0.37,0.3 -0.59,0.22l-2.39,-0.96c-0.49,0.38 -1.03,0.7 -1.62,0.94l-0.36,2.54c-0.03,0.24 -0.23,0.41 -0.47,0.41h-3.84c-0.24,0 -0.43,-0.17 -0.48,-0.41l-0.36,-2.54c-0.59,-0.24 -1.12,-0.56 -1.62,-0.94l-2.39,0.96c-0.22,0.07 -0.47,0 -0.59,-0.22l-1.92,-3.32c-0.11,-0.2 -0.06,-0.47 0.12,-0.61l2.03,-1.58c-0.05,-0.3 -0.07,-0.63 -0.07,-0.94c0,-0.31 0.04,-0.64 0.09,-0.94l-2.03,-1.58c-0.2,-0.14 -0.24,-0.4 -0.12,-0.61l1.91,-3.32c0.12,-0.22 0.37,-0.3 0.59,-0.22l2.39,0.96c0.49,-0.37 1.03,-0.7 1.62,-0.94l0.36,-2.54c0.04,-0.24 0.23,-0.41 0.47,-0.41h3.84c0.24,0 0.44,0.17 0.48,0.41l0.36,2.54c0.59,0.24 1.12,0.56 1.62,0.94l2.39,-0.96c0.22,-0.07 0.47,0 0.59,0.22l1.92,3.32c0.11,0.2 0.06,0.47 -0.12,0.61l-2.03,1.58c0.05,0.3 0.07,0.62 0.07,0.94c0,0.33 -0.02,0.64 -0.06,0.94zM243.6,180c0,-1.98 -1.62,-3.6 -3.6,-3.6c-1.98,0 -3.6,1.62 -3.6,3.6c0,1.98 1.62,3.6 3.6,3.6c1.98,0 3.6,-1.62 3.6,-3.6z" fill="#ffffff"/></g></g></svg>