<svg xmlns="http://www.w3.org/2000/svg" xml:space="preserve" viewBox="0 0 380 194" version="1.1" height="194" width="380"><path stroke-linejoin="round" stroke-linecap="round" fill="#12151a" d="m10 0h360c5.54 0 10 4.46 10 10v174c0 5.54-4.46 10-10 10h-360c-5.54 0-10-4.46-10-10v-174c0-5.54 4.46-10 10-10z"></path><g aria-label="実験的な機能を有効化すると、アプリケーション の動作に予期しない影響を与える可能性があり ます。 また、実験的な機能は今後のバージョンで 正式に実装されるとは限りません。" fill="#fff" transform="translate(10,10)"><path d="m22.27734 20.28125v1.265625h3.90625v1.265625h-3.90625v1.164062h5.007812v1.28125h-5.007812v1.234375h6.796875v1.375h-6.398438q0.734375 0.992188 2.125 1.773438 1.78125 1.007812 3.90625 1.328125l-0.890625 1.554687q-2.375-0.46875-4.101562-1.648437-1.34375-0.914063-2.148438-2.210938-0.703125 1.625-2.476562 2.648438-1.398438 0.804687-3.945313 1.242187l-0.898437-1.453125q2.453125-0.328125 4.070312-1.164062 1.375-0.71875 1.929688-2.070313h-6.367188v-1.375h6.703125v-1.234375h-4.835937v-1.28125h4.835937v-1.164062h-3.8125v-1.265625h3.8125v-1.265625h-4.445312v2.1875h-1.710938v-3.5h6.140625v-1.648438h1.710938v1.648438h6.242187v3.5h-1.710937v-2.1875zm18.60156 8.523437q-0.867187 2.539063-3.304687 3.828125l-0.992188-1.34375q2.546875-1.101562 3.265625-3.570312h-2.640625v-4.1875h2.773438v-1.28125h-1.320313v-0.5q-0.796875 0.8125-1.609375 1.382812l-0.804687-1.359375q2.398437-1.46875 3.539062-4.359375h1.664063q0.929687 1.710938 2.125 2.820313 0.773437 0.71875 1.804687 1.296875l-0.84375 1.390625q-0.882812-0.554688-1.710937-1.289063v0.617188h-1.3125v1.28125h2.828125v4.1875h-2.632813q0.585938 1.125 1.296875 1.828125 0.953125 0.953125 2.265625 1.640625l-0.898437 1.414062q-1.40625-0.742187-2.296875-1.8125-0.65625-0.796875-1.195313-1.984375zm-0.851562-4.007812h-1.414063v1.671875h1.414063zm1.4375 0v1.671875h1.453125v-1.671875zm0.648437-3.890625q-0.8125-0.914063-1.460937-2.148438-0.460938 1.140625-1.257813 2.148438zm-5.195312 4.046875q-0.07031 4.890625-0.453125 6.421875-0.179688 0.703125-0.632813 0.960937-0.335937 0.1875-1.085937 0.1875-0.875 0-1.523438-0.101562l-0.210937-1.484375q0.851562 0.171875 1.5 0.171875 0.460937 0 0.601562-0.242188 0.132813-0.257812 0.257813-1.4375l-0.757813 0.335938q-0.304687-1.820313-0.65625-2.953125l0.828125-0.304688q0.453125 1.179688 0.625 2.398438 0.07813-0.945313 0.117188-2.671875h-5.1875v-8.40625h6.609375v1.3125h-2.273438v1.140625h1.859375v1.203125h-1.859375v1.117187h1.859375v1.1875h-1.859375v1.164063zm-5.109375-5.8125v1.140625h1.445312v-1.140625zm0 2.34375v1.117187h1.445312v-1.117187zm0 2.304687v1.164063h1.445312v-1.164063zm-2.21875 6.921875q0.460937-1.773437 0.59375-3.773437l1.132812 0.171875q-0.0625 2.484375-0.507812 4.382812zm2.078125 0q0-1.875-0.171875-3.53125l0.945312-0.179687q0.242188 1.570312 0.296875 3.484375zm1.570312-0.429687q-0.132812-1.765625-0.429687-3.234375l0.796875-0.257813q0.5 1.734375 0.59375 3.203125zm25.64844-8.78125h-3.765625q-0.617188 1.507812-1.5625 2.65625l-1.039063-0.890625v7h-4.460937v1.210937h-1.632813v-11.66406h1.984375l0.07031-0.25q0.289062-1.132813 0.4375-2.226563l1.789062 0.25q-0.304687 1.242188-0.71875 2.226563h2.53125v3.046875q1.367188-2.0625 1.984375-5.445313l1.695313 0.289063q-0.28125 1.273437-0.546875 2.242187h4.945312q-0.04687 8.304688-0.609375 10.75-0.234375 1.039063-0.859375 1.390625-0.484375 0.273438-1.484375 0.273438-1.109375 0-2.257812-0.132813l-0.320313-1.71875q1.75 0.1875 2.234375 0.1875 0.570313 0 0.773438-0.203125 0.570312-0.578125 0.796875-8.484375zm-10.82812-0.25v3h2.84375v-3zm0 4.328125v3.234375h2.84375v-3.234375zm8.109375 2.84375q-0.96875-2.375-2.203125-4.015625l1.3125-1.007813q1.484375 1.9375 2.398437 3.984375zm15.02344-5.453125h1.773438v4.289062q1.828125 0.804688 3.742187 2.125l-0.898437 1.460938q-1.34375-0.984375-2.84375-1.828125-0.08594 1.382812-0.898438 2.125-0.90625 0.820312-2.539062 0.820312-1.578125 0-2.601563-0.71875-1-0.710937-1-1.984375 0-1.335937 1.257813-2.140625 0.976562-0.625 2.5-0.625 0.710937 0 1.507812 0.171875zm0 5.296875q-0.929687-0.320313-1.757812-0.320313-0.8125 0-1.304688 0.289063-0.632812 0.375-0.632812 1 0 0.765625 0.90625 1.117187 0.453125 0.171875 1.085937 0.171875 1.015625 0 1.460938-0.859375 0.242187-0.460937 0.242187-1.078125zm-8.382812-8.289063h2.984375q0.398437-1.351562 0.640625-2.382812l1.710937 0.210937q-0.3125 1.148438-0.640625 2.171875h2.851563v1.570313h-3.359375q-1.398438 4.007812-3.28125 6.78125l-1.453125-0.828125q1.78125-2.640625 3.007812-5.953125h-2.460937zm13.04688 3.804688q-1.734375-1.929688-3.984375-3.515625l1.03125-1.125q2.234375 1.445312 4.078125 3.367187zm12.97656 2.945312q0.257813 0.929688 0.632813 1.695313 0.78125-0.804688 1.398437-1.648438l1.15625 0.804688q-0.890625 1.15625-1.710937 1.960937-0.05469 0.05469-0.09375 0.09375 0.453125 0.554688 0.9375 0.898438 0.320312 0.226562 0.453125 0.226562 0.125 0 0.1875-0.265625 0.07813-0.351562 0.195312-1.601562l1.328125 0.71875q-0.109375 1.40625-0.40625 2.148437-0.3125 0.78125-0.929687 0.78125-0.5625 0-1.421875-0.539062-0.820313-0.515625-1.476563-1.34375-1.195312 1-2.742187 1.960937l-0.882813-1.132812q1.46875-0.835938 2.859375-1.992188-0.703125-1.328125-0.992187-2.765625h-1.867188q-0.04687 0.421875-0.140625 0.921875 1.039063 0.632813 1.882813 1.445313l-0.828125 1.203125q-0.617188-0.757813-1.382813-1.382813-0.5625 1.820313-1.867187 3.273438l-1.070313-1.09375q1.59375-1.960938 1.90625-4.367188h-1.554687l-0.273438 0.53125q-0.398437-1.039062-0.8125-1.9375v7.203125h-1.539062v-7.257812q-0.546875 2.101562-1.421875 3.8125l-0.734375-1.664063q1.367187-2.429687 1.976562-5.320312h-1.734375v-1.554688h1.914063v-3.21875h1.539062v3.21875h1.3125v1.554688h-1.3125v1.179687q0.914063 1.359375 1.320313 2.046875h4.46875q-0.273438-2.304687-0.304688-4.960937l-0.03125-3.039063h1.445313l0.03125 3.09375q0.01563 1.523438 0.09375 2.648438 0.101562-0.0078 0.1875-0.0078l0.164062-0.0078 0.15625-0.0078q0.125-0.164062 0.265625-0.34375 0.07813-0.09375 0.523438-0.710937-0.671875-1.023438-1.328125-1.828125l0.695312-0.460938q0.65625-0.960937 1.226563-2.328125l1.195312 0.71875q-0.65625 1.1875-1.5 2.242188 0.320313 0.453125 0.421875 0.625 0.585938-0.890625 1.125-1.789063l1.125 0.734375q-0.875 1.296875-2.445312 3.0625 0.867187-0.07031 1.382812-0.132812-0.132812-0.359375-0.3125-0.734375l1.070313-0.445313q0.601562 1.226563 0.84375 2.539063l-1.101563 0.429687q-0.132812-0.570312-0.1875-0.773437-1.96875 0.359375-3.289062 0.46875l-0.117188 0.01563q0.07031 0.703125 0.109375 0.992187h1.570313q-0.234375-0.273437-0.5625-0.578125l1.195312-0.445312q0.453125 0.53125 0.765625 1.023437h1.632813v1.40625zm-4.859375-4.679687q-0.75-1.007813-1.40625-1.703125l0.59375-0.398438q0.648438-0.859375 1.390625-2.484375l1.179688 0.59375q-0.609375 1.125-1.5 2.320313 0.382812 0.46875 0.453125 0.5625 0.05469-0.08594 0.140625-0.226563 0.398437-0.640625 0.890625-1.554687l0.992187 0.742187q-0.96875 1.671875-2.382812 3.445313 0.75-0.0625 1.328125-0.117188-0.125-0.375-0.289063-0.71875l0.867188-0.5q0.46875 0.984375 0.734375 2.257813l-0.898438 0.523437q-0.08594-0.375-0.117187-0.507812-1.5 0.3125-3.195313 0.523437l-0.335937-1.34375q0.296875-0.01563 0.4375-0.02344 0.0625 0 0.132812-0.0078 0.28125-0.351562 0.984375-1.382812zm11.07031-1.15625q0.976562-1.710938 1.632812-3.632813l1.757813 0.367188q-0.757813 1.765625-1.679688 3.21875 0.476563-0.02344 1.46875-0.07031 0.08594 0 1.1875-0.07031l-0.046875-0.07813q-0.351562-0.601563-0.8125-1.273438l1.328125-0.65625q1.36718 1.773438 2.15625 3.390625l-1.5 0.820313q-0.20313-0.4375-0.46875-0.984375-2.46875 0.304687-6.03125 0.46875l-0.398437-1.46875q0.304687 0 1.40625-0.03125zm5.874997 2.476562v7.648438q0 0.804687-0.38281 1.109375-0.34375 0.273437-1.179687 0.273437-0.859375 0-1.570313-0.101562l-0.257812-1.476563q0.96875 0.117188 1.421875 0.117188 0.289062 0 0.34375-0.117188 0.03906-0.09375 0.03906-0.289062v-1.421875h-3.054687v3.414062h-1.617188v-9.15625zm-4.640622 1.28125v1.023438h3.054687v-1.023438zm0 2.195313v1.09375h3.054687v-1.09375zm7.617182-7.15625q1.82031-0.664063 3.46875-1.632813l1.17188 1.1875q-2.36719 1.25-4.64063 1.875v1.320313q0 0.390625 0.22656 0.460937 0.3125 0.101563 1.53907 0.101563 1.05468 0 1.3125-0.234375 0.20312-0.1875 0.26562-1.414063 8e-3 -0.234375 0.0156-0.367187l1.64843 0.398437q-0.0625 2.109375-0.47656 2.570313-0.26562 0.296875-0.88281 0.414062-0.78906 0.15625-2.30469 0.15625-1.89844 0-2.47656-0.28125-0.54688-0.273437-0.54688-1.179687v-5.742188h1.67969zm0 7.609375q1.82813-0.609375 3.74219-1.6875l1.09375 1.296875q-2.53906 1.273437-4.83594 1.84375v1.398437q0 0.507813 0.32813 0.601563 0.25 0.07813 1.28906 0.07813 1.45312 0 1.65625-0.25 0.21875-0.265625 0.28125-2.007813l1.66406 0.445313q-0.0156 2.320312-0.70312 2.890625-0.60157 0.5-3.03907 0.5-1.92968 0-2.55468-0.3125-0.60157-0.289063-0.60157-1.171875v-5.89063h1.67969zm7.34375-7.78125h4.21094q0.69531-1.109375 1.05469-1.789063l1.74218 0.25q-0.23437 0.421875-0.82812 1.375l-0.10156 0.164063h5.50781v1.539062h-6.54688q-1.02343 1.40625-1.95312 2.4375 1.47656-0.882812 2.69531-0.882812 1.89063 0 2.47656 1.898437 2-0.664062 4.07813-1.3125l0.67187 1.515625-0.27343 0.07813-0.77344 0.203125q-2.1875 0.59375-3.5 1.015625 0.0937 1.015625 0.13281 2.625l-1.71094 0.09375q-8e-3 -0.929687-0.0312-2.015625v-0.15625q-3.59375 1.226563-3.59375 2.46875 0 0.640625 0.92188 0.875 0.89062 0.226563 3.1875 0.226563 2.11719 0 4.44531-0.242188l0.1875 1.664063q-2.25781 0.171875-4.67969 0.171875-2.98437 0-4.24218-0.453125-1.55469-0.5625-1.55469-2.023438 0-1.234375 1.10156-2.179687 1.14063-0.976563 4.01563-2.015625-0.15625-0.601563-0.41407-0.84375-0.28906-0.273438-0.76562-0.273438-0.77344 0-1.94531 0.585938-1.44532 0.71875-3.10157 2.164062l-1.03906-1.1875q2.42969-2.257812 3.80469-4.4375h-3.17969zm19.90625 2.953125h7.79688v8.46875q0 0.742187-0.29688 1.078125-0.35937 0.414062-1.40625 0.414062-1.20312 0-2.60156-0.101562l-0.35156-1.585938q1.46875 0.148438 2.42187 0.148438 0.35156 0 0.42969-0.132813 0.0547-0.101562 0.0547-0.382812v-1.40625h-6.14063v3.554687h-1.75781v-7.859375q-1.22656 1.1875-2.51563 2.03125l-1.07031-1.359375q2.24219-1.328125 3.90625-3.539062 0.35938-0.484375 0.6875-1.085938h-4.32031v-1.4375h4.97656q0.39063-1.015625 0.64844-2.046875l1.82812 0.203125q-0.29687 1.03125-0.60937 1.84375h8.13281v1.4375h-8.77344l-0.0781 0.148438q-0.47656 0.929687-0.96094 1.609375zm-0.0937 1.375v1.21875h6.14063v-1.21875zm0 2.5v1.34375h6.14063v-1.34375zm21.09375-5.742188 0.0703-3.28125h1.57032l-0.0547 3.28125h3.09375q-0.11719 8.179688-0.5625 10.20312-0.1875 0.851563-0.61719 1.195313-0.42187 0.328125-1.35156 0.328125-0.89844 0-1.71094-0.09375l-0.32031-1.617188q0.92187 0.125 1.66406 0.125 0.5 0 0.66406-0.28125 0.46094-0.796875 0.64063-8.304687h-1.60938q-0.21093 3.53125-1.0625 5.8125-1.00781 2.703125-2.77343 4.539062l-1.11719-1.21875q1.73434-1.703125 2.52341-4.289062 0.65625-2.125 0.875-4.84375h-2.07032v-1.179688h-8.08593v-1.484375h3.55468v-2.171875h1.66407v2.171875h3.16406v1.109375zm-6.45312 7.359375q-0.97657-1.109375-2.07813-2.09375l1.03906-1.09375q0.77344 0.664063 1.89844 1.78125 0.60156-1.078125 1.04688-2.210937l1.4375 0.703125q-0.44532 1.15625-1.33594 2.742187 0.875 0.984375 1.54687 1.867188l-1.21875 1.296875q-0.67968-0.984375-1.26562-1.710938-1.39844 1.976563-3.28125 3.226563l-1.26563-1.328125q2.09375-1.15625 3.47657-3.179688zm-3.96875-3.328125q1.50781-1.132812 2.57812-3.28125l1.35938 0.71875q-1.07032 2.265625-2.80469 3.679688zm7.71093 0.507813q-1.05468-1.539063-2.5625-3.101563l1.20313-0.84375q1.47656 1.375 2.44531 2.796875zm13.02344-4.273438v11.50781h-1.78906v-8.546875q-0.98438 1.398437-2.04688 2.484375l-0.89843-1.710938q2.90625-3.015625 4.41406-7.414062l1.74219 0.453125q-0.625 1.6875-1.42188 3.226562zm4.39844 1.695313q2.4375-1.148438 4.27344-2.507813l1.34375 1.28125q-2.74219 1.804688-5.61719 2.898438v5.390625q0 0.484375 0.49219 0.578125 0.35937 0.07031 1.30468 0.07031 0.96875 0 1.66407-0.07813 0.5625-0.05469 0.65625-0.523437 0.19531-0.960938 0.23437-2.609375l1.78906 0.546875q-0.0703 2.101562-0.28125 2.9375-0.24218 0.960937-1.04687 1.21875-0.82813 0.273437-2.61719 0.273437-2.80469 0-3.41406-0.398437-0.53906-0.351563-0.53906-1.375v-12.60937h1.75781zm15.13281-4.921875h1.75781v2.15625h4.60938v1.507812h-4.60938v3.34375q0.27344 0.960938 0.27344 1.710938 0 2.78125-1.22656 4.085937-1.33594 1.429688-4.02344 1.976563l-0.89062-1.328125q2.08593-0.398438 3.09375-1.125 0.94531-0.6875 1.27343-1.867188-0.83593 0.914063-1.99218 0.914063-1.29688 0-2.10157-0.734375-0.94531-0.867188-0.94531-2.515625 0-0.867188 0.41406-1.671875 0.27344-0.515625 0.67188-0.859375 0.92187-0.78125 2.21094-0.78125 0.82031 0 1.48437 0.390625v-1.539063h-7.71094v-1.507812h7.71094zm0.0625 8.109375v-0.289063q0-0.5-0.23437-0.882812-0.4375-0.71875-1.26563-0.71875-0.42187 0-0.78906 0.234375-0.85938 0.539062-0.85938 1.65625 0 0.703125 0.3125 1.1875 0.4375 0.671875 1.28907 0.671875 0.77343 0 1.22656-0.695313 0.32031-0.492187 0.32031-1.164062zm9.59375-7.5625h8.76563l0.83593 1.296875q-4.06255 2.484375-7.03911 4.515625 1.92188-0.804688 3.85938-0.804688 1.74218 0 2.90625 0.554688 1.07812 0.515625 1.67968 1.40625 0.625 0.945312 0.625 2.171875 0 1.71875-1.17187 2.875-0.80469 0.804687-2.0625 1.21875-1.64844 0.539062-3.60938 0.539062-2.25781 0-3.32812-0.835937-0.83594-0.65625-0.83594-1.773438 0-0.84375 0.60938-1.5 0.92187-0.992187 2.49218-0.992187 1.66407 0 2.66407 1.117187 0.72656 0.8125 1.04687 2.179688 2.40625-0.765625 2.40625-2.828125 0-1.5625-1.30469-2.304688-0.875-0.5-2.21875-0.5-2.00781 0-3.625 0.554688-1.19531 0.40625-3.21093 1.960937l-1.10157-1.328125q2.17188-1.875 4.94532-3.804687 1.91406-1.328125 3.375-2.179688h-6.70313zm5.92188 12.27344q-0.55474-2.210937-2.17974-2.210937-0.89844 0-1.29688 0.570312-0.1875 0.257813-0.1875 0.554688 0 0.617187 0.875 0.929687 0.63282 0.21875 1.69532 0.21875 0.45312 0 1.09375-0.0625zm20.91406 0.921875q-2.3125 0.242188-4.78125 0.242188-3.64063 0-5.10156-0.460938-1.0625-0.335937-1.67969-1-0.71094-0.773437-0.71094-1.882812 0-1.460938 1-2.625 0.85156-0.992188 2.74219-1.96875-1.07813-2.421875-1.95313-5.515625l1.74219-0.453125q0.8125 2.96875 1.71875 5.25 3.00781-1.382813 6.38281-2.304688l0.52339 1.585938q-3.70312 0.9375-7.35937 2.664062-1.13282 0.539063-1.60938 0.882813-1.39844 1.023437-1.39844 2.273437 0 1.085938 1.29688 1.515625 1.07812 0.351563 3.85937 0.351563 2.57032 0 5.14844-0.296875zm5.91406 0.882813q-1.44531-2.109375-3.26562-3.90625l1.26562-1.117188q1.89063 1.796875 3.32813 3.820313zm5.85938-13.34375h12.24218l1.00782 0.851562q-0.4375 1.632813-1.14063 2.726563-1.32031 2.070312-3.95312 3.09375l-0.98443-1.34375q1.82031-0.546875 3.02344-1.960938 0.71094-0.835937 0.99219-1.765625h-11.1875zm5.00781 3.375h1.78906v1.34375q0 3.023437-0.67187 4.671875-0.85157 2.09375-3.3125 3.40625l-1.28907-1.359375q1.69532-0.804688 2.47657-1.921875 0.60156-0.867188 0.78906-1.835938 0.21875-1.109375 0.21875-2.976562zm9.875-2.53125h10.03125l1.9375 1.757812q-0.3125 3.429688-1.35156 5.398438-1.21875 2.3125-3.77344 3.601562-1.59375 0.804688-4.25 1.4375l-0.89849-1.585937q2.60938-0.476563 4.13281-1.234375 2.48438-1.226563 3.51563-3.734375 0.64062-1.5625 0.73437-4.007813h-10.07812zm12.74214-2.765625q0.52343 0 1 0.289062 0.46875 0.273438 0.72656 0.765625 0.23437 0.4375 0.23437 0.914063 0 0.765625-0.54687 1.351562-0.57813 0.617188-1.42969 0.617188-0.42187 0-0.8125-0.1875-0.48437-0.226563-0.78906-0.65625-0.35938-0.515625-0.35938-1.132813 0-0.476562 0.24219-0.921875 0.24219-0.445312 0.64844-0.71875 0.49219-0.320312 1.08594-0.320312zm-8e-3 0.960937q-0.28906 0-0.54687 0.164063-0.46094 0.289062-0.46094 0.851562 0 0.398438 0.27344 0.6875 0.29687 0.3125 0.73437 0.3125 0.25 0 0.46094-0.109375 0.54688-0.28125 0.54688-0.890625 0-0.429687-0.30469-0.726562-0.28125-0.289063-0.70313-0.289063zm3.77344 0.01563h1.82031v8.546875h-1.82031zm8.02344-0.164062h1.82031v5.585937q0 2.945313-0.47656 4.382813-0.39844 1.226562-1.08594 1.953125-1.42969 1.539062-4.59375 2.273437l-0.89844-1.601562q3.46094-0.703125 4.4375-2.335938 0.61719-1.039062 0.74219-2.625 0.0547-0.734375 0.0547-2.03125zm18.72656 4.484375h-3.45312q-0.0859 2.976562-0.61719 4.632812-0.60156 1.890625-2.03125 3.140625-1.21094 1.078125-3.16406 1.8125l-1.10157-1.328125q1.85157-0.742187 2.89063-1.679687 1.42969-1.28125 1.89844-3.421875 0.26562-1.195313 0.3125-3.15625h-4.70313q-1.03107 1.98437-2.89826 3.45312l-1.19531-1.179688q3.08594-2.414062 3.85156-6.804687l1.73438 0.453125q-0.33594 1.453125-0.74219 2.492187h9.21875zm1.40625 1.46875h13.75781v1.757812h-13.75781zm21.42969-2.304688q-2.30469-1.03125-4.70313-1.726562l0.50782-1.546875q2.70312 0.671875 4.74218 1.640625zm-1.60156 4q-1.92188-0.84375-4.70313-1.726562l0.67188-1.5625q2.39062 0.632812 4.64062 1.679687zm-3.69532 4.304688q3.19532-0.265625 5.00782-0.96875 2.67968-1.023438 4.21093-3.65625 1.02344-1.757813 1.61719-4.445313l1.57813 0.914063q-0.75782 3.367187-2.11719 5.367187-1.59375 2.335938-4.44531 3.453125-2.00782 0.773438-5.35157 1.085938zm14.42969-8.71875h9.61719v10.27344h-9.98438v-1.484375h8.33594v-3.09375h-7.64844v-1.46875h7.64844v-2.742192h-7.96875zm18.1875 0.960937q-2.46875-1.101562-5.13281-1.765625l0.54687-1.679687q3.08594 0.703125 5.17969 1.75zm-4.9375 7.773438q3.86719-0.328125 5.92188-1.382813 2.42187-1.25 3.71875-3.835937 0.84375-1.671875 1.36718-4.375l1.5 1.101562q-0.63281 2.890625-1.53125 4.59375-1.625 3.101563-4.96875 4.492188-2.10937 0.875-5.64062 1.25z"></path><path d="m22.26953 51.75031q4.585938-1.15625 4.585938-5.257813 0-1.789062-0.921875-3.078125-1.03125-1.453125-3.140625-1.867187-0.460938 3.625-1.257813 5.9375-0.546875 1.617187-1.359375 3.054687-1.171875 2.046875-2.664062 2.046875-1.109375 0-1.976563-1-0.554687-0.632812-0.898437-1.554687-0.453125-1.195313-0.453125-2.570313 0-2.226562 1.226562-4.101562 1.242188-1.914063 3.226563-2.78125 1.445312-0.632813 3.171875-0.632813 2.695312 0 4.578125 1.445313 2.3125 1.773437 2.3125 5.023437 0 5.445313-5.507813 6.90625zm-1.171875-10.26562q-1.382812 0.15625-2.3125 0.742187-0.59375 0.382813-1.179687 1.015625-1.625 1.796875-1.625 4.164063 0 1.726562 0.6875 2.703125 0.421875 0.601562 0.835937 0.601562 0.5625 0 1.265625-1.242187 1.71875-3.023438 2.328125-7.984375zm19.20312 0.75 0.07813-3.3125h1.570313l-0.07031 3.3125h2.960938q-0.07813 8.734375-0.65625 10.57812-0.25 0.796875-0.90625 1.015625-0.335938 0.117187-1 0.117187-0.867188 0-1.640625-0.109375l-0.304688-1.648437q0.898438 0.171875 1.585938 0.171875 0.554687 0 0.710937-0.304688 0.148438-0.296875 0.289063-1.4375 0.28125-2.265625 0.359375-6.453125l0.0078-0.390625h-1.507812q-0.132813 3.46875-0.828125 5.75-0.851563 2.78125-2.664063 4.617188l-1.28125-0.992188q0.382813-0.359375 0.617188-0.640625-3.90625 0.710938-7.484375 1.054688l-0.351559-1.476563q1.945313-0.117187 3.695313-0.289062v-1.085938h-3.359375v-1.234375h3.359375v-0.890625h-2.992188v-5.132812h2.992188v-0.867188h-3.601563v-1.21875h3.601563v-0.695312q-1.179688 0.117187-2.6875 0.203125l-0.5625-1.203125q3.75-0.15625 6.695312-0.8125l0.890625 1.132812q-1.273437 0.320313-2.796875 0.507813v0.867187h3.5v0.867188zm-0.07031 1.539062h-1.742188v-1.1875h-3.46875v0.867188h3.039063v5.132812h-3.039063v0.890625h3.234375v1.234375h-3.234375v0.929688l0.65625-0.0625q1.3125-0.132813 2.835938-0.390625 1.46875-2.679688 1.703125-7.203125zm-6.703125 0.734375h-1.695313v0.992188h1.695313zm1.445312 0v0.992188h1.742188v-0.992188zm-1.445312 1.953125h-1.695313v1.070313h1.695313zm1.445312 0v1.070313h1.742188v-1.070313zm19.66406-3.632812h-1.28125q-0.804688 1.976562-2.0625 3.546875l-1.132813-1.390625q1.992188-2.5 2.828125-6.171875l1.648438 0.320312q-0.304688 1.125-0.664063 2.15625h7.109375v1.539063h-4.765625v2.25h3.804688v1.4375h-3.804688v2.234375h4.140625v1.46875h-4.140625v3.90625h-1.679687zm-4.835938 0.0078v11.28906h-1.742187v-8.179688q-0.679688 1.015625-1.523438 2.054688l-0.828125-1.75q1.453125-1.679688 2.53125-4.085938 0.625-1.390625 1.273438-3.367187l1.664062 0.429687q-0.585937 1.914063-1.375 3.609375zm13.46875 10.61719q-0.296875-2.65625-0.296875-5.28125 0-4.5 0.664063-8.546875l1.71875 0.179687q-0.632813 3.5-0.632813 7.898438 0 2.953125 0.328125 5.523437zm4.6875-12.375h7.507813v1.664074h-7.507815zm8.039061 11.41407q-1.5625 0.242188-3.710938 0.242188-5.398437 0-5.398437-3.171875 0-1.257813 0.671875-2.195313l1.476562 0.65625q-0.421875 0.59375-0.421875 1.335938 0 0.914062 0.914063 1.257812 1.015625 0.390625 2.773437 0.390625 1.898438 0 3.515625-0.25zm10.98438-9.15625q0.546875 0.28125 1.257812 0.671875l-0.992187 0.804688h4.703125l0.882812 0.882812q-1.757812 2.648438-3.507812 4.351563l-1.585938-0.929688q1.539063-1.40625 2.46875-2.796875h-3.890625v6.125q0 1.0625-0.523437 1.359375-0.351563 0.203125-1.3125 0.203125-1.257813 0-2.773438-0.15625l-0.382812-1.742187q1.460937 0.234375 2.59375 0.234375 0.429687 0 0.53125-0.140625 0.07813-0.117188 0.07813-0.429688v-5.453125h-6.546875v-1.507812h8.46875q-2.640625-1.515625-5.28125-2.5625l1.26562-1.007813q1.773437 0.710938 3.132812 1.382813 1.203125-0.820313 2.109375-1.609375h-8.351562v-1.484375h10.625l0.960937 0.9375q-2.046875 1.648437-3.929687 2.867187zm8.15625-2.320312v-2.09375h1.523437v2.09375h2.476563v-2.09375h1.523445v2.09375h0.97656v1.375h-0.97656v6.226562h1.10156v1.4375h-8.04688v-1.4375h1.421875v-6.226562h-1.148438v-1.375zm4 1.375h-2.476563v1.296875h2.476563zm0 2.445312h-2.476563v1.304688h2.476563zm0 2.4375h-2.476563v1.34375h2.476563zm9.195315-7.789062v13.05469q0 0.828125-0.42969 1.171875-0.35156 0.28125-1.15625 0.28125-1.11718 0-1.85156-0.09375l-0.32031-1.632812q1.125 0.132812 1.59375 0.132812 0.35937 0 0.46094-0.132812 0.0859-0.117188 0.0859-0.398438v-3.3125h-2.85937q-0.10156 1.570313-0.35156 2.578125-0.40625 1.632813-1.52344 3.023438l-1.26563-1.125q0.97657-1.226563 1.3125-2.945313 0.24219-1.234375 0.24219-3.015625v-7.585937zm-1.61719 1.523437h-2.82812v2.296875h2.82812zm0 3.71875h-2.82812v2.406255h2.82812zm-13.08593 8.289063q1.359375-1.15625 2.179688-2.734375l1.421875 0.734375q-1.03125 2.054687-2.351563 3.15625zm6.257813 0.195312q-0.523438-1.148437-1.476563-2.210937l1.25-0.859375q0.85156 0.828125 1.49218 1.851562zm11.375-13.63281h1.84375v9.3125q0 2.945312 3.09375 2.945312 2.03906 0 3.34375-1.882812 0.84375-1.210938 1.51562-3.75l1.58594 0.960937q-0.79687 2.820313-1.91406 4.21875-1.75781 2.179688-4.57031 2.179688-2.9375 0-4.14063-1.8125-0.75781-1.132813-0.75781-2.921875zm21.69531 4.992187h1.77344v4.289063q1.82812 0.804687 3.74219 2.125l-0.89844 1.460937q-1.34375-0.984375-2.84375-1.828125-0.0859 1.382813-0.89844 2.125-0.90625 0.820313-2.53906 0.820313-1.57813 0-2.60156-0.71875-1-0.710938-1-1.984375 0-1.335938 1.25781-2.140625 0.97656-0.625 2.5-0.625 0.71094 0 1.50781 0.171875zm0 5.296875q-0.92969-0.320312-1.75781-0.320312-0.8125 0-1.30469 0.289062-0.63281 0.375-0.63281 1 0 0.765625 0.90625 1.117188 0.45312 0.171875 1.08594 0.171875 1.01562 0 1.46093-0.859375 0.24219-0.460938 0.24219-1.078125zm-8.38281-8.289062h2.98437q0.39844-1.351563 0.64063-2.382813l1.71094 0.210938q-0.3125 1.148437-0.64063 2.171875h2.85156v1.570312h-3.35937q-1.39844 4.007813-3.28125 6.78125l-1.45313-0.828125q1.78125-2.640625 3.00782-5.953125h-2.46094zm13.04687 3.804687q-1.73437-1.929687-3.98437-3.515625l1.03125-1.125q2.23437 1.445313 4.07812 3.367188zm9.6875 3.742188q-1.44531 4.25-3.24218 4.25-1.28125 0-2.19532-1.796875-0.70312-1.390625-0.96875-3.0625-0.32031-2.03125-0.32031-5.21875 0-1.382813 0.10156-2.96875l1.83594 0.140625q-0.10156 1.585937-0.10156 3.015625 0 5.015625 0.9375 6.992187 0.38281 0.8125 0.71875 0.8125 0.21875 0 0.54687-0.5 0.67188-1.015625 1.29688-2.796875zm4.94532 1.859375q-0.39844-3.296875-0.97657-5.328125-0.70312-2.460938-1.63281-4.507813l1.66406-0.40625q1.28907 2.554688 1.91407 4.921875 0.51562 1.921875 0.85156 4.890625zm8.91406-1.007813v2.992188q0 0.695312-0.36719 0.945312-0.3125 0.210938-1.08594 0.210938-0.76562 0-1.39843-0.101563l-0.26563-1.453125q0.61719 0.140625 1.14063 0.140625 0.3125 0 0.36718-0.125 0.0391-0.08594 0.0391-0.289062v-2.320313h-2.78125v-3.25h7.11718v3.25zm-2.80469-2.148437v1.0625h4.02344v-1.0625zm5.69531-8.523438v4.640625h-2.96093v0.8125h4.04687v1.265625h-9.5v-1.265625h3.82031v-0.8125h-2.8125v-4.640625zm-5.92187 1.085938v0.742187h4.4375v-0.742187zm0 1.71875v0.78125h4.4375v-0.78125zm-2.55469 10.58594q0.96875-1.046875 1.45313-2.414062l1.41406 0.578125q-0.66406 1.75-1.55469 2.765625zm7.63281 0.625q-0.69531-1.367187-1.63281-2.382812l1.23438-0.71875q0.90625 0.90625 1.69531 2.203125zm1.67969-9.9375q2.67188-1.546875 4.09375-4.140625l1.375 0.8125q-1.71875 2.960938-4.41406 4.59375zm-0.25781 9.21875q2.19531-0.945312 3.70312-2.78125 0.64063-0.78125 1.28907-1.890625l1.32812 0.992188q-1.88281 3.328125-5.17969 5.023437zm0.38281-4.867187q2.53125-1.375 4.25781-4.125l1.3125 0.960937q-1.99218 3.085938-4.54687 4.429688zm9.61719-3.539063q-1.49219 0.234375-2.70313 0.328125l-0.41406-1.265625q0.94531-0.02344 1.20313-0.03125 0.35156-0.320312 0.70312-0.664062-0.85937-1-1.71094-1.71875l0.9375-0.960938q0.32032 0.257813 0.47657 0.40625 0.53906-0.632812 1.07812-1.484375l1.20313 0.59375q-0.63282 0.851563-1.53907 1.671875 0.1875 0.210938 0.46094 0.570313l0.10938-0.125q0.55468-0.585938 1.21875-1.359375l1.125 0.632812q-1.05469 1.203125-2.42188 2.367188l0.21094-0.01563 0.1875-0.01563 0.67187-0.03906q0.20313-0.359375 0.39063-0.789062l1.02344 0.476562q-0.55469 1.328125-1.36719 2.164063-0.82031 0.84375-2.16406 1.484375h5.03125v-0.765625h1.70312v0.765625h5.54688v1.007819h-2.20313q-0.17969 0.335938-0.49219 0.820313h3.94532v1.070312h-15.20313v-1.070312h3.96094q-0.21094-0.414063-0.5-0.820313h-2.07813v-0.867187q-0.19531 0.07813-0.4375 0.179687l-0.76562-1.054687q1.71094-0.523438 2.8125-1.492188zm6.94531 3.234375h-4.73437q0.24218 0.453125 0.39843 0.820313h3.92969q0.27344-0.484375 0.40625-0.820313zm-0.85156-4.3125q0.0312 0.03906 0.0781 0.09375 0.55469 0.632813 1.24219 1.9375l-1.20312 0.59375q-0.17188-0.4375-0.29688-0.6875-0.21094 0.05469-0.32031 0.07813-1.50781 0.375-3.8125 0.734375l-0.42188-1.195312 0.53907-0.0625q0.17187-0.01563 0.35937-0.03906v-5.421883h4.60938v3.96875zm-0.15625 0h-2.35156v1.296875q1.1875-0.148437 1.85937-0.257812-0.20312-0.34375-0.46875-0.640625zm-0.36719-3.007812h-1.98437v0.601562h1.98437zm0 1.453125h-1.98437v0.65625h1.98437zm5.17188 0.53125q1.39062 1.070312 1.39062 2.320312 0 1.210938-1.49219 1.210938-0.67187 0-1.13281-0.07813l-0.30469-1.3125q0.74219 0.132812 0.96094 0.132812 0.44531 0 0.44531-0.359375 0-0.828125-1.34375-1.773437 0.42188-0.703125 0.80469-1.851563h-1.20312v5.601563h-1.42188v-6.835933h3.74219l0.64062 0.609375q-0.54687 1.40625-1.08593 2.335938zm-0.42188 7.765625v4.265625h-1.74219v-0.453125h-7.95312v0.453125h-1.72656v-4.265625zm-9.69531 0.882812v0.554688h7.95312v-0.554688zm0 1.367188v0.601562h7.95312v-0.601562zm13.74219-10.99219h4.21093q0.69532-1.109375 1.05469-1.789062l1.74219 0.25q-0.23438 0.421875-0.82813 1.375l-0.10156 0.164062h5.50781v1.539063h-6.54687q-1.02344 1.40625-1.95313 2.4375 1.47657-0.882813 2.69532-0.882813 1.89062 0 2.47656 1.898438 2-0.664063 4.07812-1.3125l0.67188 1.515625-0.27344 0.07813-0.77344 0.203125q-2.1875 0.59375-3.5 1.015625 0.0937 1.015625 0.13282 2.625l-1.71094 0.09375q-8e-3 -0.929688-0.0312-2.015625v-0.15625q-3.59375 1.226562-3.59375 2.46875 0 0.640625 0.92187 0.875 0.89063 0.226562 3.1875 0.226562 2.11719 0 4.44532-0.242187l0.1875 1.664062q-2.25782 0.171875-4.67969 0.171875-2.98438 0-4.24219-0.453125-1.55469-0.5625-1.55469-2.023437 0-1.234375 1.10157-2.179688 1.14062-0.976562 4.01562-2.015625-0.15625-0.601562-0.41406-0.84375-0.28906-0.273437-0.76563-0.273437-0.77343 0-1.94531 0.585937-1.44531 0.71875-3.10156 2.164063l-1.03906-1.1875q2.42968-2.257813 3.80468-4.4375h-3.17968zm25.02343 4.570313h-8q1.125-3.117188 1.60157-6.828125l1.75781 0.1875q-0.11719 0.664062-0.34375 1.875h7.92969v1.4375h-8.23438q-0.25781 1.148437-0.46875 1.921875h7.53125q-0.0469 1.835937-0.17969 3.539062h3.22657v1.453125h-3.36719q-0.32031 2.765625-0.70313 3.640625-0.32812 0.734375-0.99218 0.992188-0.5625 0.21875-1.74219 0.21875-1.25 0-2.65625-0.148438l-0.35156-1.679687q1.78125 0.226562 2.92187 0.226562 0.78125 0 1.03906-0.289062 0.39063-0.4375 0.70313-2.960938h-10.05469v-1.453125h10.21875l8e-3 -0.07813q0.0937-1.046875 0.15625-2.054687zm7.35938-2.523438h8.82031l0.70313 1.15625-0.32032 0.234375q-3.04687 2.296875-4.32031 3.382813 0.89063-0.429688 1.5-0.429688 0.78906 0 1.125 0.546875 0.19531 0.304688 0.19531 0.734375 0 0.132813-0.0234 0.382813-0.125 1.203125-0.125 1.78125t0.44531 0.6875q0.35156 0.08594 1.30469 0.08594 1.24218 0 2.69531-0.171875l0.14062 1.664063q-1.46875 0.125-3.03906 0.125-1.6875 0-2.27344-0.226563-0.98437-0.375-0.98437-1.65625 0-1.234375 0.10937-2.039062 8e-3 -0.0625 8e-3 -0.132813 0-0.546875-0.55469-0.546875-1.5 0-5.95313 4.773438l-1.22656-1.34375q4.50781-4.304688 8.47656-7.4375h-6.70312zm8.25781-0.867187q-3.01562-0.921875-6.78125-1.601563l0.50781-1.453125q3.72657 0.570313 6.82032 1.539063zm7.28125-2.507813h8.76563l0.83593 1.296875q-4.0625 2.484375-7.03906 4.515625 1.92188-0.804687 3.85938-0.804687 1.74218 0 2.90625 0.554687 1.07812 0.515625 1.67968 1.40625 0.625 0.945313 0.625 2.171875 0 1.71875-1.17187 2.875-0.80469 0.804688-2.0625 1.21875-1.64844 0.539063-3.60938 0.539063-2.25781 0-3.32812-0.835938-0.83594-0.65625-0.83594-1.773437 0-0.84375 0.60938-1.5 0.92187-0.992188 2.49218-0.992188 1.66407 0 2.66407 1.117188 0.72656 0.8125 1.04687 2.179687 2.40625-0.765625 2.40625-2.828125 0-1.5625-1.30469-2.304687-0.875-0.5-2.21875-0.5-2.00781 0-3.625 0.554687-1.19531 0.40625-3.21093 1.960938l-1.10157-1.328125q2.17188-1.875 4.94532-3.804688 1.91406-1.328125 3.375-2.179687h-6.70313zm5.92188 12.27344q-0.55469-2.210938-2.17969-2.210938-0.89844 0-1.29688 0.570313-0.1875 0.257812-0.1875 0.554687 0 0.617188 0.875 0.929688 0.63282 0.21875 1.69532 0.21875 0.45312 0 1.09375-0.0625zm20.6875-10.60938v10.84375q0 1.023437-0.66407 1.351562-0.4375 0.21875-1.50781 0.21875-1.17969 0-2.83594-0.109375l-0.38281-1.726562q1.64844 0.125 2.91406 0.125 0.49219 0 0.58594-0.07813 0.10156-0.09375 0.10156-0.484375v-10.14062h-11.38281v-1.570313h15.20313v1.570313zm-3.92188 2.171875v5.96875h-5.64844v1.28125h-1.72656v-7.25zm-5.64844 1.453125v3.03125h3.96875v-3.03125zm13.5625-2.585938q0.97657-1.710937 1.63282-3.632812l1.75781 0.367187q-0.75781 1.765625-1.67969 3.21875 0.47656-0.02344 1.46875-0.07031 0.0859 0 1.1875-0.07031l-0.0469-0.07813q-0.35157-0.601562-0.8125-1.273437l1.32812-0.65625q1.36719 1.773437 2.15625 3.390625l-1.5 0.820312q-0.20312-0.4375-0.46875-0.984375-2.46875 0.304688-6.03125 0.46875l-0.39844-1.46875q0.30469 0 1.40625-0.03125zm5.875 2.476563v7.648437q0 0.804688-0.38281 1.109375-0.34375 0.273438-1.17969 0.273438-0.85937 0-1.57031-0.101563l-0.25781-1.476562q0.96875 0.117187 1.42187 0.117187 0.28907 0 0.34375-0.117187 0.0391-0.09375 0.0391-0.289063v-1.421875h-3.05469v3.414063h-1.61719v-9.15625zm-4.64062 1.28125v1.023437h3.05469v-1.023437zm0 2.195312v1.09375h3.05469v-1.09375zm7.61719-7.15625q1.82031-0.664062 3.46875-1.632812l1.17187 1.1875q-2.36719 1.25-4.64062 1.875v1.320312q0 0.390625 0.22656 0.460938 0.3125 0.101562 1.53906 0.101562 1.05469 0 1.3125-0.234375 0.20313-0.1875 0.26563-1.414062 8e-3 -0.234375 0.0156-0.367188l1.64844 0.398438q-0.0625 2.109375-0.47656 2.570312-0.26563 0.296875-0.88282 0.414063-0.78906 0.15625-2.30468 0.15625-1.89844 0-2.47657-0.28125-0.54687-0.273438-0.54687-1.179688v-5.742187h1.67969zm0 7.609375q1.82812-0.609375 3.74218-1.6875l1.09375 1.296875q-2.53906 1.273438-4.83593 1.84375v1.398438q0 0.507812 0.32812 0.601562 0.25 0.07813 1.28906 0.07813 1.45313 0 1.65625-0.25 0.21875-0.265625 0.28125-2.007812l1.66407 0.445312q-0.0156 2.320313-0.70313 2.890625-0.60156 0.5-3.03906 0.5-1.92969 0-2.55469-0.3125-0.60156-0.289062-0.60156-1.171875v-5.890625h1.67969zm9.53906-7.34375v12.57031h-1.64844v-15.20312h1.64844v2.460937l0.92969-0.765625q0.63281 1.164063 0.99218 2.289063l-1.03906 0.945312q-0.52344-1.617187-0.88281-2.296875zm3.91406 0.28125h1.82813v-2.914062h1.64843v2.914062h3.69532v1.539063h-3.69532v3.320312h3.34375v1.523438h-3.34375v3.851562h4.17188v1.523438h-10.25v-1.523438h4.42969v-3.851562h-3.4375v-1.523438h3.4375v-3.320312h-2.29688q-0.5 1.460937-1.3125 2.757812l-1.1875-1.0625q1.39063-2.398437 1.88281-5.632812l1.55469 0.21875q-0.23437 1.304687-0.46875 2.179687zm-7.82031 5.179688q0.34375-1.554688 0.50781-4.1875l0.0391-0.640625 1.35938 0.140625q-0.0859 3.257812-0.54688 5.375zm16.6875-4.640625h3.45312q0.23438-1.203125 0.52344-2.992188l0.0391-0.226562 1.71094 0.257812q-0.26562 1.65625-0.54687 2.960938h0.94531q1.875 0 2.6875 0.84375 0.72656 0.757812 0.72656 2.359375 0 2.695312-0.57031 5.039062-0.32813 1.328125-0.79688 1.960938-0.59375 0.789062-1.64843 0.789062-1.26563 0-2.76563-0.8125l0.19531-1.648437q1.48438 0.710937 2.30469 0.710937 0.42969 0 0.66406-0.460937 0.25-0.5 0.47657-1.445313 0.44531-1.914062 0.44531-4.023437 0-1.109375-0.44531-1.4375-0.38282-0.273438-1.36719-0.273438h-1.20313q-1.24218 5.53125-3.5625 9.4375l-1.57035-0.859375q2.39844-4.023437 3.42188-8.578125h-3.11719zm12.97656 7.710937q-0.88281-3.25-2.78906-6.382812l1.52344-0.6875q1.96875 3.140625 2.94531 6.320312zm-1.15625-7.484375q-0.48437-1.265625-1.5625-2.8125l1.21094-0.453125q0.94531 1.335938 1.58594 2.773438zm2.10156-0.671875q-0.60937-1.507812-1.55468-2.835937l1.14843-0.382813q0.89844 1.070313 1.57032 2.671875zm3.20313-0.78125h3.90625q0.16406-1.351562 0.25-1.9375l1.73437 0.179688-0.0234 0.125-0.0547 0.40625-0.0703 0.523437-0.0703 0.523438-0.0234 0.179687h6.46093v1.539063h-6.64062q-0.0234 0.265625-0.10156 1.132812l-0.0391 0.5-0.0156 0.15625q0.9375-0.15625 1.91406-0.15625 2.70313 0 4.28906 1.265625 0.41407 0.335938 0.75782 0.84375 0.6875 1.015625 0.6875 2.335938 0 2.351562-1.9375 3.585937-1.26563 0.804688-3.50782 1.210938l-0.75-1.375q2.05469-0.335938 3.14063-1.070313 1.29687-0.882812 1.29687-2.4375 0-1.007812-0.5625-1.773437-0.32812-0.453125-0.88281-0.734375-1.94531 3.390625-5.10156 5.515625-1.01563 0.6875-1.70313 0.914062-0.67968 0.21875-1.32812 0.21875-1.19531 0-1.79688-0.796875-0.5-0.65625-0.5-1.796875 0-2.023437 1.53125-3.570312 1.13282-1.148438 2.72657-1.765625l0.01555-0.210938q0.0937-1.34375 0.15625-1.992187h-3.75781zm3.51562 5.328125q-1.09375 0.585938-1.75 1.460938-0.83593 1.117187-0.83593 2.226562 0 1.234375 0.89062 1.234375 0.78125 0 1.92188-0.84375-0.23438-1.570312-0.23438-3.328125 0-0.242187 8e-3 -0.75zm1.67969-0.59375q-0.0156 0.507813-0.0156 0.921875 0 1.328125 0.11718 2.5 1.89063-1.757812 2.89063-3.59375-0.5-0.0625-1-0.0625-1.03906 0-1.99219 0.234375zm15.38281 0.203125q-0.78125 1.460938-1.60156 2.195313-0.70312 0.632812-1.28906 0.632812-0.75 0-1.21094-1.015625-0.47656-1.0625-0.47656-3.328125 0-2.28125 0.53125-4.945312l1.71094 0.257812q-0.51563 2.640625-0.51563 4.46875 0 2.460938 0.35156 2.460938 0.13282 0 0.45313-0.375 0.5-0.5625 1.05469-1.65625zm-1.1875 6.117188q2.39844-0.671875 3.61719-2.007813 1.49219-1.632812 1.49219-4.9375 0-2.507812-0.48438-5.632812l1.78907-0.171875q0.51562 3.15625 0.51562 5.882812 0 4.421875-2.27344 6.367188-1.38281 1.1875-3.72656 1.96875z"></path><path d="m20.76172 60.89125h1.726562v1.96875h4.914063v1.484375h-4.914063v1.859375h4.640625v1.46875h-4.640625v2.414062q2.78125 0.9375 5.484375 2.820313l-0.921875 1.484375q-2.046875-1.53125-4.5625-2.703125-0.0625 1.335937-0.515625 2.070312-0.789062 1.273438-3.109375 1.273438-1.789062 0-2.875-0.671875-1.210937-0.75-1.210937-2.03125 0-1.53125 1.632812-2.265625 1.09375-0.484375 2.84375-0.484375 0.6875 0 1.507813 0.109375v-2.015625h-5.539063v-1.46875h5.539063v-1.859375h-5.875v-1.484375h5.875zm0 10.25q-0.929688-0.195313-1.78125-0.195313-1.039063 0-1.6875 0.304688-0.773438 0.367187-0.773438 1.046875 0 0.570312 0.601563 0.921875 0.609375 0.359375 1.625 0.359375 1.203125 0 1.65625-0.640625 0.359375-0.5 0.359375-1.492188zm16.58594-10.29688h1.757813v2.15625h4.609375v1.507812h-4.609375v3.34375q0.273437 0.960938 0.273437 1.710938 0 2.78125-1.226562 4.085937-1.335938 1.429688-4.023438 1.976563l-0.890625-1.328125q2.085938-0.398438 3.09375-1.125 0.945313-0.6875 1.273438-1.867188-0.835938 0.914063-1.992188 0.914063-1.296875 0-2.101562-0.734375-0.945313-0.867188-0.945313-2.515625 0-0.867188 0.414063-1.671875 0.273437-0.515625 0.671875-0.859375 0.921875-0.78125 2.210937-0.78125 0.820313 0 1.484375 0.390625v-1.539063h-7.710937v-1.507812h7.710937zm0.0625 8.109375v-0.289063q0-0.5-0.234375-0.882812-0.4375-0.71875-1.265625-0.71875-0.421875 0-0.789062 0.234375-0.859375 0.539062-0.859375 1.65625 0 0.703125 0.3125 1.1875 0.4375 0.671875 1.289062 0.671875 0.773438 0 1.226563-0.695313 0.320312-0.492187 0.320312-1.164062zm10.6875 1.070312q0.625 0 1.203125 0.296875 0.640625 0.320313 1.039063 0.929688 0.4375 0.679687 0.4375 1.46875 0 0.945312-0.617188 1.695312-0.804687 0.992188-2.078125 0.992188-0.492187 0-0.960937-0.179688-0.703125-0.28125-1.15625-0.875-0.5625-0.734375-0.5625-1.648437 0-0.554688 0.242187-1.085938 0.515625-1.148437 1.726563-1.492187 0.359375-0.101563 0.726562-0.101563zm-0.01563 1.234375q-0.53125 0-0.953125 0.382813-0.492187 0.429687-0.492187 1.078125 0 0.257812 0.09375 0.507812 0.148437 0.367188 0.460937 0.617188 0.40625 0.328125 0.90625 0.328125 0.390625 0 0.742188-0.21875 0.703125-0.4375 0.703125-1.234375 0-0.34375-0.171875-0.671875-0.421875-0.789063-1.289063-0.789063zm18.5-10.36719h1.726563v1.96875h4.914062v1.484375h-4.914062v1.859375h4.640625v1.46875h-4.640625v2.414062q2.78125 0.9375 5.484375 2.820313l-0.921875 1.484375q-2.046875-1.53125-4.5625-2.703125-0.0625 1.335937-0.515625 2.070312-0.789063 1.273438-3.109375 1.273438-1.789063 0-2.875-0.671875-1.210938-0.75-1.210938-2.03125 0-1.53125 1.632813-2.265625 1.09375-0.484375 2.84375-0.484375 0.6875 0 1.507812 0.109375v-2.015625h-5.539062v-1.46875h5.539062v-1.859375h-5.875v-1.484375h5.875zm0 10.25q-0.929687-0.195313-1.78125-0.195313-1.039062 0-1.6875 0.304688-0.773437 0.367187-0.773437 1.046875 0 0.570312 0.601562 0.921875 0.609375 0.359375 1.625 0.359375 1.203125 0 1.65625-0.640625 0.359375-0.5 0.359375-1.492188zm9.085938-7.835938h3.648437q0.21875-0.96875 0.492188-2.507812l1.765625 0.21875q-0.234375 1.210937-0.5 2.289062h5.203125v1.554688h-5.570313q-1.5625 6.242187-3.453125 10.35156l-1.726562-0.609375q2.054687-4.554687 3.421875-9.742187h-3.28125zm13.82812 11.49219q-1.265625 0.164062-2.84375 0.164062-2.554688 0-3.859375-0.4375-0.5-0.171875-0.851563-0.484375-0.6875-0.625-0.6875-1.59375 0-0.992187 0.640625-1.75l1.390625 0.820313q-0.242187 0.304687-0.242187 0.671875 0 0.632812 0.578125 0.820312 0.882812 0.28125 2.515625 0.28125 1.585937 0 3.164062-0.234375zm-7.328125-7.742188q3.0625-0.351562 6.703125-0.375l0.07813 1.585938q-3.570313 0.01563-6.554688 0.335937zm12.84375 8.414063q-1.445313-2.109375-3.265625-3.90625l1.265625-1.117188q1.890625 1.796875 3.328125 3.820313zm14.04688-11.98438v1.265625h3.90625v1.265625h-3.90625v1.164062h5.00782v1.28125h-5.00782v1.234375h6.79688v1.375h-6.39844q0.73438 0.992188 2.125 1.773438 1.78125 1.007812 3.90625 1.328125l-0.89062 1.554687q-2.375-0.46875-4.10157-1.648437-1.34375-0.914063-2.14843-2.210938-0.70313 1.625-2.47657 2.648438-1.39843 0.804687-3.94531 1.242187l-0.89844-1.453125q2.45313-0.328125 4.07032-1.164062 1.375-0.71875 1.92968-2.070313h-6.36718v-1.375h6.70312v-1.234375h-4.83594v-1.28125h4.83594v-1.164062h-3.8125v-1.265625h3.8125v-1.265625h-4.44531v2.1875h-1.71094v-3.5h6.14063v-1.648438h1.71093v1.648438h6.24219v3.5h-1.71094v-2.1875zm18.60157 8.523437q-0.86719 2.539063-3.30469 3.828125l-0.99219-1.34375q2.54688-1.101562 3.26563-3.570312h-2.64063v-4.1875h2.77344v-1.28125h-1.32031v-0.5q-0.79688 0.8125-1.60938 1.382812l-0.80469-1.359375q2.39844-1.46875 3.53907-4.359375h1.66406q0.92969 1.710938 2.125 2.820313 0.77344 0.71875 1.80469 1.296875l-0.84375 1.390625q-0.88282-0.554688-1.71094-1.289063v0.617188h-1.3125v1.28125h2.82812v4.1875h-2.63281q0.58594 1.125 1.29688 1.828125 0.95312 0.953125 2.26562 1.640625l-0.89844 1.414062q-1.40625-0.742187-2.29687-1.8125-0.65625-0.796875-1.19531-1.984375zm-0.85157-4.007812h-1.41406v1.671875h1.41406zm1.4375 0v1.671875h1.45313v-1.671875zm0.64844-3.890625q-0.8125-0.914063-1.46094-2.148438-0.46093 1.140625-1.25781 2.148438zm-5.19531 4.046875q-0.0703 4.890625-0.45313 6.421875-0.17968 0.703125-0.63281 0.960937-0.33594 0.1875-1.08594 0.1875-0.875 0-1.52343-0.101562l-0.21094-1.484375q0.85156 0.171875 1.5 0.171875 0.46094 0 0.60156-0.242188 0.13281-0.257812 0.25781-1.4375l-0.75781 0.335938q-0.30469-1.820313-0.65625-2.953125l0.82813-0.304688q0.45312 1.179688 0.625 2.398438 0.0781-0.945313 0.11718-2.671875h-5.1875v-8.40625h6.60938v1.3125h-2.27344v1.140625h1.85938v1.203125h-1.85938v1.117187h1.85938v1.1875h-1.85938v1.164063zm-5.10938-5.8125v1.140625h1.44532v-1.140625zm0 2.34375v1.117187h1.44532v-1.117187zm0 2.304687v1.164063h1.44532v-1.164063zm-2.21875 6.921875q0.46094-1.773437 0.59375-3.773437l1.13282 0.171875q-0.0625 2.484375-0.50782 4.382812zm2.07813 0q0-1.875-0.17188-3.53125l0.94532-0.179687q0.24218 1.570312 0.29687 3.484375zm1.57031-0.429687q-0.13281-1.765625-0.42969-3.234375l0.79688-0.257813q0.5 1.734375 0.59375 3.203125zm25.64844-8.78125h-3.76563q-0.61718 1.507812-1.5625 2.65625l-1.03906-0.890625v7h-4.46094v1.210937h-1.63281v-11.66406h1.98438l0.0703-0.25q0.28906-1.132813 0.4375-2.226563l1.78906 0.25q-0.30469 1.242188-0.71875 2.226563h2.53125v3.046875q1.36719-2.0625 1.98438-5.445313l1.69531 0.289063q-0.28125 1.273437-0.54688 2.242187h4.94532q-0.0469 8.304688-0.60938 10.75-0.23437 1.039063-0.85937 1.390625-0.48438 0.273438-1.48438 0.273438-1.10937 0-2.25781-0.132813l-0.32031-1.71875q1.75 0.1875 2.23437 0.1875 0.57031 0 0.77344-0.203125 0.57031-0.578125 0.79687-8.484375zm-10.82813-0.25v3h2.84375v-3zm0 4.328125v3.234375h2.84375v-3.234375zm8.10938 2.84375q-0.96875-2.375-2.20313-4.015625l1.3125-1.007813q1.48438 1.9375 2.39844 3.984375zm15.02344-5.453125h1.77343v4.289062q1.82813 0.804688 3.74219 2.125l-0.89844 1.460938q-1.34375-0.984375-2.84375-1.828125-0.0859 1.382812-0.89843 2.125-0.90625 0.820312-2.53907 0.820312-1.57812 0-2.60156-0.71875-1-0.710937-1-1.984375 0-1.335937 1.25781-2.140625 0.97657-0.625 2.5-0.625 0.71094 0 1.50782 0.171875zm0 5.296875q-0.92969-0.320313-1.75782-0.320313-0.8125 0-1.30468 0.289063-0.63282 0.375-0.63282 1 0 0.765625 0.90625 1.117187 0.45313 0.171875 1.08594 0.171875 1.01563 0 1.46094-0.859375 0.24219-0.460937 0.24219-1.078125zm-8.38282-8.289063h2.98438q0.39844-1.351562 0.64062-2.382812l1.71094 0.210937q-0.3125 1.148438-0.64062 2.171875h2.85156v1.570313h-3.35938q-1.39843 4.007812-3.28125 6.78125l-1.45312-0.828125q1.78125-2.640625 3.00781-5.953125h-2.46094zm13.04688 3.804688q-1.73438-1.929688-3.98438-3.515625l1.03125-1.125q2.23438 1.445312 4.07813 3.367187zm12.97656 2.945312q0.25781 0.929688 0.63281 1.695313 0.78125-0.804688 1.39844-1.648438l1.15625 0.804688q-0.89062 1.15625-1.71094 1.960937-0.0547 0.05469-0.0937 0.09375 0.45313 0.554688 0.9375 0.898438 0.32032 0.226562 0.45313 0.226562 0.125 0 0.1875-0.265625 0.0781-0.351562 0.19531-1.601562l1.32813 0.71875q-0.10938 1.40625-0.40625 2.148437-0.3125 0.78125-0.92969 0.78125-0.5625 0-1.42188-0.539062-0.82031-0.515625-1.47656-1.34375-1.19531 1-2.74219 1.960937l-0.88281-1.132812q1.46875-0.835938 2.85938-1.992188-0.70313-1.328125-0.99219-2.765625h-1.86719q-0.0469 0.421875-0.14062 0.921875 1.03906 0.632813 1.88281 1.445313l-0.82813 1.203125q-0.61718-0.757813-1.38281-1.382813-0.5625 1.820313-1.86719 3.273438l-1.07031-1.09375q1.59375-1.960938 1.90625-4.367188h-1.55469l-0.27343 0.53125q-0.39844-1.039062-0.8125-1.9375v7.203125h-1.53907v-7.257812q-0.54687 2.101562-1.42187 3.8125l-0.73438-1.664063q1.36719-2.429687 1.97657-5.320312h-1.73438v-1.554688h1.91406v-3.21875h1.53907v3.21875h1.3125v1.554688h-1.3125v1.179687q0.91406 1.359375 1.32031 2.046875h4.46875q-0.27344-2.304687-0.30469-4.960937l-0.0312-3.039063h1.44531l0.0312 3.09375q0.0156 1.523438 0.0937 2.648438 0.10157-0.0078 0.1875-0.0078l0.16407-0.0078 0.15625-0.0078q0.125-0.164062 0.26562-0.34375 0.0781-0.09375 0.52344-0.710937-0.67188-1.023438-1.32813-1.828125l0.69532-0.460938q0.65625-0.960937 1.22656-2.328125l1.19531 0.71875q-0.65625 1.1875-1.5 2.242188 0.32031 0.453125 0.42188 0.625 0.58593-0.890625 1.125-1.789063l1.125 0.734375q-0.875 1.296875-2.44532 3.0625 0.86719-0.07031 1.38282-0.132812-0.13282-0.359375-0.3125-0.734375l1.07031-0.445313q0.60156 1.226563 0.84375 2.539063l-1.10156 0.429687q-0.13282-0.570312-0.1875-0.773437-1.96875 0.359375-3.28907 0.46875l-0.11718 0.01563q0.0703 0.703125 0.10937 0.992187h1.57031q-0.23437-0.273437-0.5625-0.578125l1.19532-0.445312q0.45312 0.53125 0.76562 1.023437h1.63281v1.40625zm-4.85937-4.679687q-0.75-1.007813-1.40625-1.703125l0.59375-0.398438q0.64843-0.859375 1.39062-2.484375l1.17969 0.59375q-0.60938 1.125-1.5 2.320313 0.38281 0.46875 0.45312 0.5625 0.0547-0.08594 0.14063-0.226563 0.39844-0.640625 0.89062-1.554687l0.99219 0.742187q-0.96875 1.671875-2.38281 3.445313 0.75-0.0625 1.32812-0.117188-0.125-0.375-0.28906-0.71875l0.86719-0.5q0.46875 0.984375 0.73437 2.257813l-0.89843 0.523437q-0.0859-0.375-0.11719-0.507812-1.5 0.3125-3.19531 0.523437l-0.33594-1.34375q0.29687-0.01563 0.4375-0.02344 0.0625 0 0.13281-0.0078 0.28125-0.351562 0.98438-1.382812zm11.07031-1.15625q0.97656-1.710938 1.63281-3.632813l1.75781 0.367188q-0.75781 1.765625-1.67968 3.21875 0.47656-0.02344 1.46875-0.07031 0.0859 0 1.1875-0.07031l-0.0469-0.07813q-0.35156-0.601563-0.8125-1.273438l1.32813-0.65625q1.36718 1.773438 2.15625 3.390625l-1.5 0.820313q-0.20313-0.4375-0.46875-0.984375-2.46875 0.304687-6.03125 0.46875l-0.39844-1.46875q0.30469 0 1.40625-0.03125zm5.875 2.476562v7.648438q0 0.804687-0.38281 1.109375-0.34375 0.273437-1.17969 0.273437-0.85938 0-1.57031-0.101562l-0.25782-1.476563q0.96875 0.117188 1.42188 0.117188 0.28906 0 0.34375-0.117188 0.0391-0.09375 0.0391-0.289062v-1.421875h-3.05469v3.414062h-1.61718v-9.15625zm-4.64063 1.28125v1.023438h3.05469v-1.023438zm0 2.195313v1.09375h3.05469v-1.09375zm7.61719-7.15625q1.82031-0.664063 3.46875-1.632813l1.17188 1.1875q-2.36719 1.25-4.64063 1.875v1.320313q0 0.390625 0.22656 0.460937 0.3125 0.101563 1.53907 0.101563 1.05468 0 1.3125-0.234375 0.20312-0.1875 0.26562-1.414063 8e-3 -0.234375 0.0156-0.367187l1.64843 0.398437q-0.0625 2.109375-0.47656 2.570313-0.26562 0.296875-0.88281 0.414062-0.78906 0.15625-2.30469 0.15625-1.89844 0-2.47656-0.28125-0.54688-0.273437-0.54688-1.179687v-5.742188h1.67969zm0 7.609375q1.82813-0.609375 3.74219-1.6875l1.09375 1.296875q-2.53906 1.273437-4.83594 1.84375v1.398437q0 0.507813 0.32813 0.601563 0.25 0.07813 1.28906 0.07813 1.45312 0 1.65625-0.25 0.21875-0.265625 0.28125-2.007813l1.66406 0.445313q-0.0156 2.320312-0.70312 2.890625-0.60157 0.5-3.03907 0.5-1.92968 0-2.55468-0.3125-0.60157-0.289063-0.60157-1.171875v-5.890625h1.67969zm15.84375-9.398438h1.71094v2.828125h3.1875v1.554688h-3.1875v4.796875q1.85156 0.851562 3.66406 2.390625l-0.875 1.546875q-1.53125-1.335938-2.80469-2.125-0.14062 1.914062-1.35937 2.5625-0.67969 0.359375-1.85938 0.359375-1.28125 0-2.22656-0.460938-1.42969-0.695312-1.42969-2.3125 0-1.273437 1.08594-2.023437 0.99219-0.6875 2.54688-0.6875 0.71093 0 1.54687 0.179687v-4.226562h-5.02344v-1.554688h5.02344zm0 10.125q-0.91406-0.289062-1.625-0.289062-0.67969 0-1.15625 0.210937-0.75 0.320313-0.75 1.046875 0 0.59375 0.54688 0.929688 0.53125 0.328125 1.42187 0.328125 1.5625 0 1.5625-1.757813zm-8.48437 3.757813q-0.27344-2.578125-0.27344-5.421875 0-4.4375 0.59375-8.460938l1.71875 0.25q-0.58594 3.46875-0.58594 7.5 0 2.960938 0.29688 5.867188zm25.78125-9.40625v1.1875h-6.86719v-1.09375q-1.57813 1.226562-3.4375 2.117187l-1.02344-1.390625q2.03906-0.921875 3.5-2.117187 1.83594-1.492188 3.1875-3.757813h1.92188q2.46093 3.390625 6.97656 5.476563l-1.02344 1.5q-1.67969-0.828125-3.23437-1.921875zm-0.42188-0.320313q-1.875-1.460937-3.19531-3.28125-1.01563 1.765625-2.74219 3.28125zm-8.75 3.3125h10.125l0.97656 0.835938q-2.32031 4.203125-4.47656 6.429687l-1.52344-0.992187q2.03125-2.054688 3.52344-4.71875h-8.625zm22.00781-2.578125q-1.25781-1.5-2.95312-2.851562l1.125-1.070313q0.57812 0.492188 1.00781 0.90625 0.89063-1.109375 1.69531-2.570312l1.5 0.65625q-1.0625 1.53125-2.27343 2.828125l0.11718 0.117187q0.49219 0.53125 0.84375 0.945313 1.50782-1.5625 2.82032-3.171875l1.32812 0.820312q-1.78125 2.109375-4.04687 4.125 1.4375-0.07031 3.39843-0.203125-0.4375-0.773437-0.98437-1.507812l1.3125-0.609375q1.23437 1.507812 2.1875 3.570312l-1.42188 0.6875-0.21875-0.460937q-0.21093-0.4375-0.26562-0.539063-2.10938 0.28125-3.79688 0.367188-0.0547 0.0078-0.11718 0.01563-0.23438 0.390625-0.61719 0.953125h4.23437l0.94532 0.867187q-1.19532 1.703125-2.65625 2.867188 1.79687 0.921875 4.15625 1.453125l-0.85938 1.515625q-2.4375-0.625-4.67187-2.015625-2.55469 1.546875-4.91407 2.132812l-0.85156-1.460937q2.10156-0.359375 4.44531-1.578125-0.98437-0.8125-1.77343-1.632813-0.60938 0.515625-1.42188 0.976563l-1.00781-1.078125q1.85937-1.03125 3.19531-2.898438l-1.17187 0.0625q-0.67969 0.03906-1.21094 0.05469l-0.35156-1.40625q0.51562-0.0078 2.36718-0.05469l0.26563-0.226562q0.32031-0.289063 0.64062-0.585938zm1.84375 5.960938q1.08594-0.789063 1.82813-1.6875h-3.91406q0.90625 0.929687 2.08593 1.6875zm-6.14843-4.765625v8.539062h-1.67969v-6.578125q-0.72656 0.734375-1.42969 1.34375l-0.78125-1.53125q2.14844-1.671875 4.04688-4.882812l1.40625 0.796875q-0.70313 1.164062-1.5625 2.3125zm-3.76563-3.0625q1.99219-1.398438 3.40625-3.554688l1.44531 0.765625q-1.84375 2.640625-3.98437 4.148438zm24.46875 9.226562q4.58594-1.15625 4.58594-5.257812 0-1.789063-0.92188-3.078125-1.03125-1.453125-3.14062-1.867188-0.46094 3.625-1.25781 5.9375-0.54688 1.617188-1.35938 3.054688-1.17187 2.046875-2.66406 2.046875-1.10938 0-1.97656-1-0.55469-0.632813-0.89844-1.554688-0.45313-1.195312-0.45313-2.570312 0-2.226563 1.22657-4.101563 1.24218-1.914062 3.22656-2.78125 1.44531-0.632812 3.17187-0.632812 2.69532 0 4.57813 1.445312 2.3125 1.773438 2.3125 5.023438 0 5.445312-5.50781 6.90625zm-1.17187-10.26562q-1.38282 0.15625-2.3125 0.742188-0.59375 0.382812-1.17969 1.015625-1.625 1.796875-1.625 4.164062 0 1.726563 0.6875 2.703125 0.42187 0.601563 0.83594 0.601563 0.5625 0 1.26562-1.242188 1.71875-3.023437 2.32813-7.984375zm8.96093 10.25q1.35938-2 2.33594-4.898437 1.0625-3.171875 1.34375-6.445313l1.78906 0.367188q-0.69531 4.796875-1.86718 8.0625-0.84375 2.375-2.07813 4.164062zm12.60938 1.328125q-2.82813-4.695312-4.36719-12.32031l1.69531-0.523438q1.35938 6.8125 4.21875 11.66406zm-0.82031-10.82812q-0.45313-1.242187-1.57813-2.882812l1.22656-0.445313q0.89844 1.234375 1.61719 2.828125zm2.24218-0.351562q-0.60156-1.554688-1.57031-2.914063l1.17188-0.382812q0.92968 1.140625 1.58593 2.75zm2.03125 3.484375h13.75782v1.757812h-13.75782zm21.42969-2.304688q-2.30469-1.03125-4.70312-1.726562l0.50781-1.546875q2.70312 0.671875 4.74219 1.640625zm-1.60156 4q-1.92188-0.84375-4.70313-1.726562l0.67188-1.5625q2.39062 0.632812 4.64062 1.679687zm-3.69531 4.304688q3.02343-0.242188 4.79687-0.867188 4.5625-1.617187 5.82813-7.335937l1.60156 0.960937q-1.03906 4.382813-3.875 6.523438-1.85938 1.40625-4.60938 2-1.32031 0.289062-3.24218 0.46875zm9.89062-9.039063q-0.5-1.234375-1.60156-2.75l1.23437-0.445312q0.99219 1.34375 1.59375 2.71875zm2.36719-0.429687q-0.64844-1.539063-1.57031-2.78125l1.15625-0.375q0.92968 1.078125 1.57812 2.640625zm2.8125 0.75h9.61719v10.27344h-9.98438v-1.484375h8.33594v-3.09375h-7.64844v-1.46875h7.64844v-2.742187h-7.96875zm18.1875 0.960937q-2.46875-1.101562-5.13281-1.765625l0.54687-1.679687q3.08594 0.703125 5.17969 1.75zm-4.9375 7.773438q3.86719-0.328125 5.92187-1.382813 2.42188-1.25 3.71875-3.835937 0.84375-1.671875 1.36719-4.375l1.5 1.101562q-0.63281 2.890625-1.53125 4.59375-1.625 3.101563-4.96875 4.492188-2.10937 0.875-5.64062 1.25zm14.22656-10.5625q7.1875-0.109375 13.58594-0.367188l0.0937 1.554688q-2.82031 0.140625-4.39063 0.859375-1.5 0.6875-2.40625 1.90625-1.03125 1.382812-1.03125 3.078125 0 1.6875 1.17188 2.53125 1.34375 0.960937 4.125 1.320312l-0.36719 1.757813q-3.625-0.484375-5.10156-1.875-1.58594-1.484375-1.58594-3.6875 0-2 1.4375-3.734375 1.04688-1.273438 2.86719-2.046875-3.22656 0.109375-8.32031 0.367187zm11.35938 6.742187q-0.46094-1.226562-1.55469-2.78125l1.21875-0.453125q0.97656 1.34375 1.57031 2.75zm2.10937-0.820312q-0.55469-1.4375-1.54687-2.796875l1.16406-0.414063q0.91406 1.109375 1.55469 2.6875z"></path><path d="m22.73828 94.76656h6.34375v1.617187h-15.20312v-1.617187h2.382813v-7.171875h1.789062v7.171875h2.882813v-10.15625h-6.273438v-1.585938h13.875v1.585938h-5.796875v3.867187h4.578125v1.554688h-4.578125zm17.30469-9.40625h4.703125v1.554687h-4.578125q0.25 2.507813 0.578125 3.804688 0.539062 2.101562 1.507812 3.492187 0.460938 0.664063 0.648438 0.664063 0.15625 0 0.3125-0.515625 0.265625-0.882813 0.359375-1.992188l1.570312 1.09375q-0.351562 1.851563-0.75 2.671875-0.484375 0.992188-1.164062 0.992188-0.671875 0-1.617188-0.929688-0.851562-0.828125-1.5625-2.320312-1.234375-2.609375-1.59375-6.960938h-8.242187v-1.554687h8.125q-0.101563-1.726563-0.140625-3.234375h1.742187q0.0078 1.679687 0.101563 3.234375zm-4.773438 5.164062v3.34375q1.867188-0.34375 3.375-0.703125l0.109375 1.4375q-3.523437 0.953125-8.03125 1.664063l-0.539062-1.679688q1.921875-0.195312 3.359375-0.429687v-3.632813h-2.59375v-1.484375h6.992187v1.484375zm7.09375-5.210937q-0.78125-1.351563-1.765625-2.453125l1.34375-0.734375q0.96875 0.945312 1.890625 2.367187zm4.90625 11.34375q-0.296875-2.65625-0.296875-5.28125 0-4.5 0.664063-8.546875l1.71875 0.179687q-0.632813 3.5-0.632813 7.898438 0 2.953125 0.328125 5.523437zm4.6875-12.375h7.507813v1.664062h-7.507813zm8.039063 11.41406q-1.5625 0.242188-3.710938 0.242188-5.398437 0-5.398437-3.171875 0-1.257813 0.671875-2.195313l1.476562 0.65625q-0.421875 0.59375-0.421875 1.335938 0 0.914062 0.914063 1.257812 1.015625 0.390625 2.773437 0.390625 1.898438 0 3.515625-0.25zm10.125-10.60938v1.265625h3.90625v1.265625h-3.90625v1.164063h5.007812v1.28125h-5.007812v1.234375h6.796875v1.375h-6.398438q0.734375 0.992187 2.125 1.773437 1.78125 1.007813 3.90625 1.328125l-0.890625 1.554688q-2.375-0.46875-4.101562-1.648438-1.34375-0.914062-2.148438-2.210937-0.703125 1.625-2.476562 2.648437-1.398438 0.804688-3.945313 1.242188l-0.898437-1.453125q2.453125-0.328125 4.070312-1.164063 1.375-0.71875 1.929688-2.070312h-6.367188v-1.375h6.703125v-1.234375h-4.835937v-1.28125h4.835937v-1.164063h-3.8125v-1.265625h3.8125v-1.265625h-4.445312v2.1875h-1.710938v-3.5h6.140625v-1.648437h1.710938v1.648437h6.242187v3.5h-1.710937v-2.1875zm16.67969 6.539063q0.585938 1.125 1.578125 1.953125 1.148438-0.859375 2.03125-1.875l1.5 0.851562q-0.960937 0.890625-2.40625 1.796875 1.4375 0.796875 3.578125 1.320313l-1.09375 1.421875q-3.273437-0.914063-5.195312-2.96875-1.046875-1.117188-1.507813-2.382813-0.898437 0.789063-2.03125 1.453125v2.179688q1.789063-0.304688 3.84375-0.835938l0.0625 1.34375q-3 0.929688-7.21875 1.484375l-0.546875-1.4375q0.9375-0.109375 2.164063-0.28125v-1.59375q-1.445313 0.617188-3.328125 1.09375l-0.796875-1.234375q3.90625-0.921875 5.929687-2.289062h-5.664062v-1.359375h6.671875v-0.992188h1.765625v0.992188h6.828125v1.359375zm-5.523437-4.273438q-1.492188 0.953125-2.765625 1.554688l-0.773438-1.359375q1.695313-0.625 3.539063-1.703125v-3.71875h1.648437v7.328125h-1.648437zm5.804687-3.421875v-1.804687h1.679688v1.804687h3.921875v1.34375h-3.921875v2.101563h3.328125v1.375h-8.179688v-1.375h3.171875v-2.101563h-3.710937v-1.34375zm-7.023437 1.78125q-0.828125-1.25-1.84375-2.210937l1.09375-0.976563q1.203125 1.117188 1.898437 2.148438zm14.21094-0.5h6.273442q-0.50781-1.335937-0.929692-2.65625l1.710942-0.109375q0.40625 1.390625 0.97656 2.765625h5.77344v1.601563h-5.03906q1.00781 2.085937 2.52343 4.351562l-1.64062 0.78125q-1.67188-2.53125-2.74219-5.132812h-6.906252zm11.35938 11.52344q-1.55469 0.08594-2.75 0.08594-3.250008 0-4.78907-0.507812-2.78125-0.90625-2.78125-3.421875 0-1.546875 0.960937-2.492188l1.46875 0.796875q-0.640625 0.632813-0.640625 1.65625 0 1.304688 1.40625 1.828125 1.242188 0.460938 4.156258 0.460938 1.23437 0 2.78125-0.117188zm7.35937-14.25781h1.72656v4.414063q1.85938-1.929688 2.97657-2.648438 1.03906-0.671875 2.15625-0.671875 1.125 0 1.8125 0.632813 0.90625 0.84375 0.90625 2.210937 0 0.359375-0.0937 0.953125-0.6875 4.367188-0.6875 6.046875 0 0.71875 0.36718 0.71875 0.23438 0 0.61719-0.265625 0.80469-0.554687 1.625-1.820312l0.64063 1.789062q-0.5 0.796875-1.24219 1.414063-0.85938 0.71875-1.83594 0.71875-0.92969 0-1.44531-0.648438-0.4375-0.554687-0.4375-1.851562 0-0.984375 0.25781-2.960938 0.32813-2.484375 0.4375-3.6875 0.0156-0.195312 0.0156-0.328125 0-0.6875-0.28907-1.054687-0.27343-0.351563-0.75781-0.351563-1.63281 0-5.02344 4.351563v7.375h-1.72656v-5.40625q-1.30469 1.828125-2.40625 3.453125l-0.8125-1.851563q1.85156-2.242187 3.21875-4.273437v-1.984375h-2.74219v-1.570313h2.74219zm14.97656 0.515625h8.76563l0.83594 1.296875q-4.0625 2.484375-7.03907 4.515625 1.92188-0.804687 3.85938-0.804687 1.74219 0 2.90625 0.554687 1.07812 0.515625 1.67969 1.40625 0.625 0.945313 0.625 2.171875 0 1.71875-1.17188 2.875-0.80469 0.804688-2.0625 1.21875-1.64844 0.539063-3.60937 0.539063-2.25782 0-3.32813-0.835938-0.83594-0.65625-0.83594-1.773437 0-0.84375 0.60938-1.5 0.92187-0.992188 2.49219-0.992188 1.66406 0 2.66406 1.117188 0.72656 0.8125 1.04687 2.179687 2.40625-0.765625 2.40625-2.828125 0-1.5625-1.30468-2.304687-0.875-0.5-2.21875-0.5-2.00782 0-3.625 0.554687-1.19532 0.40625-3.21094 1.960938l-1.10156-1.328125q2.17187-1.875 4.94531-3.804688 1.91406-1.328125 3.375-2.179687h-6.70313zm5.92188 12.27344q-0.55469-2.210938-2.17969-2.210938-0.89844 0-1.29687 0.570313-0.1875 0.257812-0.1875 0.554687 0 0.617188 0.875 0.929688 0.63281 0.21875 1.69531 0.21875 0.45312 0 1.09375-0.0625zm20.91406 0.921875q-2.3125 0.242187-4.78125 0.242187-3.64062 0-5.10156-0.460937-1.0625-0.335938-1.67969-1-0.71094-0.773438-0.71094-1.882813 0-1.460937 1-2.625 0.85157-0.992187 2.74219-1.96875-1.07812-2.421875-1.95312-5.515625l1.74218-0.453125q0.8125 2.96875 1.71875 5.25 3.00782-1.382812 6.38282-2.304687l0.52343 1.585937q-3.70312 0.9375-7.35937 2.664063-1.13281 0.539062-1.60938 0.882812-1.39843 1.023438-1.39843 2.273438 0 1.085937 1.29687 1.515625 1.07813 0.351562 3.85938 0.351562 2.57031 0 5.14843-0.296875zm11.82031-13.48438h1.71094v2.828125h3.1875v1.554687h-3.1875v4.796875q1.85156 0.851563 3.66406 2.390625l-0.875 1.546875q-1.53125-1.335937-2.80468-2.125-0.14063 1.914063-1.35938 2.5625-0.67969 0.359375-1.85937 0.359375-1.28125 0-2.22657-0.460937-1.42968-0.695313-1.42968-2.3125 0-1.273438 1.08593-2.023438 0.99219-0.6875 2.54688-0.6875 0.71094 0 1.54687 0.179688v-4.226563h-5.02343v-1.554687h5.02343zm0 10.125q-0.91406-0.289063-1.625-0.289063-0.67968 0-1.15625 0.210938-0.75 0.320312-0.75 1.046875 0 0.59375 0.54688 0.929687 0.53125 0.328125 1.42187 0.328125 1.5625 0 1.5625-1.757812zm-8.48437 3.757812q-0.27344-2.578125-0.27344-5.421875 0-4.4375 0.59375-8.460937l1.71875 0.25q-0.58594 3.46875-0.58594 7.5 0 2.960937 0.29688 5.867187zm27.3125-3.328125q1.03906 1.421875 2.76562 2.320313l-0.99218 1.539062q-1.90625-1.109375-3.02344-2.835937-1.19531-1.835938-1.69531-4.335938h-1.59375v5.148438q1.57031-0.429688 3.10156-1.023438l0.1875 1.460938q-2.57813 1.117187-5.54688 1.773437l-0.59375-1.539062q0.97657-0.203125 1.26563-0.265625v-12.79688h7.51562v7.1875l1.11719 1.015625q-1.29687 1.453125-2.50781 2.351562zm-0.6875-1.195312q1.16406-1.15625 1.85156-2.117188h-2.5625q0.28906 1.265625 0.71094 2.117188zm0.47656-8h-4.32812v1.601562h4.32812zm0 2.882812h-4.32812v1.671875h4.32812zm-8.03125 0.757813q1.46875 1.898437 1.46875 4.03125 0 1.117187-0.35156 1.632812-0.40625 0.585938-1.57813 0.585938-0.67968 0-1.29687-0.101563l-0.32031-1.609375 0.32031 0.03906q0.76562 0.101562 1.0625 0.101562 0.39062 0 0.46094-0.195312 0.0703-0.179688 0.0703-0.617188 0-1.890625-1.44531-3.671875 0.72656-1.679687 1.19531-3.773437h-1.82031v13.20312h-1.61719v-14.67187h4.46875l0.8125 0.6875q-0.54688 2.367187-1.42969 4.359375zm17.59375 1.585937q-0.78125 1.460938-1.60156 2.195313-0.70313 0.632812-1.28906 0.632812-0.75 0-1.21094-1.015625-0.47656-1.0625-0.47656-3.328125 0-2.28125 0.53125-4.945312l1.71093 0.257812q-0.51562 2.640625-0.51562 4.46875 0 2.460938 0.35156 2.460938 0.13281 0 0.45313-0.375 0.5-0.5625 1.05468-1.65625zm-1.1875 6.117188q2.39844-0.671875 3.61719-2.007813 1.49219-1.632812 1.49219-4.9375 0-2.507812-0.48438-5.632812l1.78906-0.171875q0.51563 3.15625 0.51563 5.882812 0 4.421875-2.27344 6.367188-1.38281 1.1875-3.72656 1.96875zm16.42969-12.91406h1.72656v1.96875h4.91406v1.484375h-4.91406v1.859375h4.64063v1.46875h-4.64063v2.414063q2.78125 0.9375 5.48438 2.820312l-0.92188 1.484375q-2.04687-1.53125-4.5625-2.703125-0.0625 1.335938-0.51562 2.070313-0.78907 1.273437-3.10938 1.273437-1.78906 0-2.875-0.671875-1.21094-0.75-1.21094-2.03125 0-1.53125 1.63282-2.265625 1.09375-0.484375 2.84375-0.484375 0.6875 0 1.50781 0.109375v-2.015625h-5.53906v-1.46875h5.53906v-1.859375h-5.875v-1.484375h5.875zm0 10.25q-0.92969-0.195312-1.78125-0.195312-1.03906 0-1.6875 0.304687-0.77344 0.367188-0.77344 1.046875 0 0.570313 0.60156 0.921875 0.60938 0.359375 1.625 0.359375 1.20313 0 1.65625-0.640625 0.35938-0.5 0.35938-1.492187zm18.5625-10.10938h1.74219v3.429688h2.875v1.570312h-2.875v2.929688q0 0.914062-0.30469 1.289062-0.375 0.46875-1.35156 0.46875-1.29688 0-2.50782-0.429687v-1.507813q1.27344 0.351563 1.96094 0.351563 0.46094 0 0.46094-0.554688v-2.546875h-5.30469v6.0625q0 0.507813 0.17969 0.703125 0.19531 0.226563 0.85156 0.296875 1.01563 0.117188 2.85156 0.117188 2.15625 0 4.32813-0.1875v1.648437q-2.33594 0.140625-4.60938 0.140625-3.38281 0-4.28125-0.390625-1.07812-0.460937-1.07812-1.992187v-6.398438h-2.8125v-1.570312h2.8125v-3.28125h1.75781v3.28125h5.30469zm5.53906 13.23438q3.01563-6.984375 6.49219-13.5l1.52344 0.609375q-1.57032 2.882813-3.71094 7.023438 1.47656-1.601563 2.72656-1.601563 1.96875 0 1.96875 2.96875 0 0.21875-0.0156 0.539063-0.0312 0.679687-0.0312 1.070312 0 0.914063 0.10937 1.296875 0.24219 0.828125 1.21094 0.828125 0.9375 0 1.52344-0.914062 0.875-1.359375 1.4375-4.992188l1.53125 0.898438q-0.44532 2.867187-1.13282 4.375-1.0625 2.34375-3.4375 2.34375-1.64062 0-2.35156-1.015625-0.5625-0.804688-0.5625-2.6875 0-0.164063 0.0156-0.5 0.0312-0.65625 0.0312-0.929688 0-0.859375-0.15625-1.242187-0.17969-0.421875-0.61719-0.421875-0.74219 0-1.67188 0.90625-0.79687 0.78125-1.57031 2.289062-0.5625 1.09375-1.71094 3.710938zm18.91406-4.242187q0.625 0 1.20313 0.296875 0.64062 0.320312 1.03906 0.929687 0.4375 0.679688 0.4375 1.46875 0 0.945313-0.61719 1.695313-0.80468 0.992187-2.07812 0.992187-0.49219 0-0.96094-0.179687-0.70312-0.28125-1.15625-0.875-0.5625-0.734375-0.5625-1.648438 0-0.554687 0.24219-1.085937 0.51562-1.148438 1.72656-1.492188 0.35938-0.101562 0.72656-0.101562zm-0.0156 1.234375q-0.53125 0-0.95313 0.382812-0.49218 0.429688-0.49218 1.078125 0 0.257813 0.0937 0.507813 0.14843 0.367187 0.46093 0.617187 0.40625 0.328125 0.90625 0.328125 0.39063 0 0.74219-0.21875 0.70313-0.4375 0.70313-1.234375 0-0.34375-0.17188-0.671875-0.42187-0.789062-1.28906-0.789062z"></path></g></svg>
