<?xml version="1.0" encoding="UTF-8"?>
<svg width="480" height="360" version="1.1" viewBox="0 0 480 360" xmlns="http://www.w3.org/2000/svg">
 <g fill="#fff" aria-label="青森県太平洋沿岸">
  <path d="m248.85 171.76v-1.2598h2.1582v1.2598h7.3633v1.4844h-7.3633v0.9375h6.2793v1.4844h-6.2793v0.95703h8.4863v1.5234h-19.004v-1.5234h8.3594v-0.95703h-6.1816v-1.4844h6.1816v-0.9375h-7.2559v-1.4844zm7.9785 7.4024v8.4961q0 1.0449-0.51758 1.4356-0.43945 0.33203-1.4941 0.33203-1.3477 0-3.252-0.16602l-0.33203-1.8359q1.6406 0.21485 2.7832 0.21485 0.45898 0 0.55664-0.14649 0.0781-0.11718 0.0781-0.46875v-1.123h-9.1602v3.6035h-2.1973v-10.342zm-11.338 1.5234v1.0938h9.1602v-1.0938zm0 2.5781v1.1523h9.1602v-1.1523z"/>
  <path d="m272.71 174.11q2.7051 1.9043 6.543 3.2031l-1.2207 1.7871q-4.5996-1.8164-7.041-4.3555v4.9316h-2.1192v-4.7559q-2.4609 2.9199-6.9238 4.4336l-1.1719-1.582q2.6758-0.85938 4.3262-1.8359 1.3379-0.79102 2.3828-1.8262h-5.9961v-1.7969h7.3828v-1.8164h2.1192v1.8164h7.5586v1.7969zm-8.2227 10.156q-1.2988 2.3242-3.2422 4.0137l-1.1133-1.7773q2.4316-1.7285 3.9648-4.2871h-3.6133v-1.7383h4.0039v-1.9238h2.002v1.9238h2.959v1.7383h-2.959v0.46875q1.6504 1.0059 3.1445 2.2559l-1.3086 1.4746q-0.61523-0.70313-1.8359-1.8262v4.9121h-2.002zm11.279-2.0508q1.4648 2.2656 4.0625 3.9844l-1.1035 1.9434q-2.2656-1.9141-3.3984-3.9746v5.332h-2.002v-5.1465q-1.2305 2.2266-3.2617 3.8281l-1.2012-1.543q2.5977-1.9043 3.9844-4.4238h-2.6367v-1.7383h3.1152v-1.9238h2.002v1.9238h4.1602v1.7383z"/>
  <path d="m296.76 170.98v9.4629h-11.621v-9.4629zm-9.5215 1.543v1.2207h7.4023v-1.2207zm0 2.5977v1.2207h7.4023v-1.2207zm0 2.5976v1.2598h7.4023v-1.2598zm-3.9356 4.0234h16.191v1.6992h-8.0762v6.0644h-2.2168v-6.0644h-8.0371v-10.957h2.1387zm-2.5 5.8984q2.3242-1.0742 4.4434-3.6035l1.7969 1.0449q-2.0898 2.6465-4.6387 4.1602zm16.836 1.2598q-1.4941-1.8359-4.4922-3.8574l1.6797-1.1816q2.3535 1.3574 4.6191 3.5644z"/>
  <path d="m311.5 176.92q0.73242 2.3828 2.334 4.7559 2.2559 3.3496 5.8008 5.5078l-1.3574 2.0312q-3.252-2.0215-5.7422-5.6152-1.4648-2.1191-2.334-4.668-0.61523 2.2461-1.6699 4.0625 2.3633 1.6113 3.8672 3.0859l-1.3574 1.6016q-1.4941-1.4941-3.5644-3.0469-1.4551 1.9336-2.9785 3.1445-1.0449 0.83984-2.4414 1.6406l-1.582-1.8359q3.6621-1.582 5.8594-4.9707 1.6602-2.5684 2.2754-5.6934h-7.6953v-2.0801h7.9004v-4.3359h2.3047v4.3359h7.9785v2.0801z"/>
  <path d="m331.03 173.3v7.6367h8.4668v2.002h-8.4668v6.5625h-2.1973v-6.5625h-8.3398v-2.002h8.3398v-7.6367h-7.4414v-1.9434h17.217v1.9434zm-6.5137 6.8945q-0.9668-2.8711-2.1387-5.1172l2.1191-0.85937q1.0938 1.8945 2.2363 5.1367zm8.6523-0.67383q1.2598-2.3633 2.1289-5.4199l2.2168 0.71289q-0.91797 2.8223-2.3047 5.4785z"/>
  <path d="m351.56 175.5h-5.2246v-1.8164h2.666q-0.63477-1.4551-1.3477-2.5391l1.9434-0.72266q0.82031 1.377 1.5039 3.2617h3.1055q0.625-1.4453 1.1914-3.2617l2.1973 0.60547q-0.60547 1.543-1.2109 2.6562h2.5586v1.8164h-5.2246v2.5195h4.6387v1.7578h-4.6387v2.6953h5.7812v1.8848h-5.7812v5.1465h-2.1582v-5.1465h-5.6445v-1.8848h5.6445v-2.6953h-4.668v-1.7578h4.668zm-7.4023-0.26368q-1.1621-1.6113-3.0762-3.1348l1.4746-1.5039q1.9629 1.4258 3.2031 3.0371zm-0.63477 5.0195q-1.5234-1.8555-3.1641-3.1738l1.4844-1.5039q1.748 1.2695 3.2324 3.0566zm-2.8223 7.5195q1.7383-2.4024 3.3398-6.4551l1.6602 1.2988q-1.3672 4.1016-3.2812 6.8652z"/>
  <path d="m377.86 180.14v9.3652h-2.1973v-1.123h-6.2012v1.123h-2.1777v-9.3652zm-8.3984 1.8848v4.4531h6.2012v-4.4531zm-4.6777-6.8457q-1.5039-1.6894-3.2617-2.959l1.3965-1.5625q1.9727 1.2402 3.3203 2.8223zm-1.1035 5.2637q-1.6504-1.8164-3.3398-2.9785l1.4356-1.6211q1.9824 1.2891 3.4473 2.9199zm-3.2226 7.2559q1.9531-2.4121 3.7207-6.2402l1.6602 1.4844q-1.5039 3.7012-3.4961 6.4746zm17.402-8.0371q-3.4082-3.623-5.0195-8.3594l2.0215-0.80078q1.4844 4.1016 4.6191 7.4023zm-12.197-1.5234q2.7344-2.7539 3.916-7.4219l2.0606 0.625q-1.1035 5.0586-4.3945 8.4766z"/>
  <path d="m391.18 173.6h4.4238v-2.3535h2.0801v4.0332h-14.961v-4.0332h2.0801v2.3535h4.2969v-3.0957h2.0801zm-7.002 4.707v2.041q0 3.3789-0.42969 5.2637-0.45898 1.9824-1.7676 3.7305l-1.7188-1.416q0.89844-1.25 1.2598-2.4707 0.49805-1.6797 0.49805-5.2246v-3.6621h17.002v1.7383zm8.3008 3.0566v1.8066h6.6992v1.7383h-6.6992v4.5996h-2.1973v-4.5996h-5.8789v-1.7383h5.8789v-1.8066h-4.8828v-1.6406h12.344v1.6406z"/>
 </g>
</svg>
