<svg version="1.1" xmlns="http://www.w3.org/2000/svg" xmlns:xlink="http://www.w3.org/1999/xlink" width="208" height="32" viewBox="0,0,208,32"><g transform="translate(-240,-164)"><g data-paper-data="{&quot;isPaintingLayer&quot;:true}" fill-rule="nonzero" stroke="none" stroke-linecap="butt" stroke-linejoin="miter" stroke-miterlimit="10" stroke-dasharray="" stroke-dashoffset="0" style="mix-blend-mode: normal"><path d="M240,196v-32h208v32z" fill="none" stroke-width="0"/><path d="M242.06,172.29h15.859v2.0801h-15.859zM243.1635,178.7353h13.672v2.0215h-13.672zM240.8002,185.708h18.398v2.0801h-18.398z" fill="#ffffff" stroke-width="1"/><path d="M277.72,173.66v13.711c0,0.8008 -0.20833,1.34767 -0.625,1.6406c-0.33203,0.22787 -0.89843,0.3418 -1.6992,0.3418c-0.99607,0 -1.9824,-0.04557 -2.959,-0.13672l-0.49805,-2.0801c1.1784,0.14974 2.2038,0.22461 3.0762,0.22461c0.3125,0 0.5013,-0.05859 0.56641,-0.17578c0.05207,-0.09115 0.0781,-0.26042 0.0781,-0.50781v-13.018h-10.107v-1.9238h14.082v1.9238zM273.8528,176.16v7.7539h-5.0293v1.5039h-1.9434v-9.2578zM268.8235,177.8592v4.3359h3.1445v-4.3359zM263.9602,175.4178c-1.0482,-1.237 -2.1094,-2.2917 -3.1836,-3.1641l1.4844,-1.4356c1.1914,0.8854 2.24283,1.89777 3.1543,3.0371zM263.45239,180.4569c-1.11327,-1.28907 -2.14517,-2.33723 -3.0957,-3.1445l1.4355,-1.4746c1.11327,0.79427 2.18097,1.80663 3.2031,3.0371zM260.65939,187.8788c1.3216,-1.8164 2.57487,-4.0983 3.7598,-6.8457l1.7188,1.2012c-0.93747,2.59113 -2.16467,4.99023 -3.6816,7.1973z" fill="#ffffff" stroke-width="1"/><path d="M295.09,173.8v3.7793c0,0.42969 -0.09115,0.74545 -0.27344,0.94727c-0.21484,0.23437 -0.69011,0.35156 -1.4258,0.35156c-0.70313,0 -1.2793,-0.03906 -1.7285,-0.11718l-0.25391,-1.6211c0.51432,0.10417 0.94725,0.15625 1.2988,0.15625c0.1888,0 0.30924,-0.04557 0.36133,-0.13672c0.03907,-0.07812 0.0586,-0.20507 0.0586,-0.38086v-2.9785h-1.7383c-0.05207,1.37367 -0.23436,2.42837 -0.54688,3.1641c-0.34505,0.8008 -1.05795,1.53323 -2.1387,2.1973l-1.3965,-1.2402c0.97653,-0.50781 1.6048,-1.16211 1.8848,-1.9629c0.16927,-0.5013 0.27344,-1.2207 0.3125,-2.1582h-3.8574v-1.6602h5.5566v-1.6406h2.1484v1.6406h6.1328v1.6602zM298.1076,179.3371v3.9648h-9.6387c-0.05207,0.35807 -0.11392,0.71614 -0.18555,1.0742h10.664c-0.16276,1.7904 -0.38737,3.0176 -0.67383,3.6816c-0.41667,0.96353 -1.39323,1.4453 -2.9297,1.4453c-1.27607,0 -2.6465,-0.05534 -4.1113,-0.16601l-0.36133,-1.7774c1.39973,0.14974 2.653,0.22461 3.7598,0.22461c0.59895,0 0.99282,-0.06836 1.1816,-0.20508c0.29297,-0.21484 0.52083,-0.77474 0.68359,-1.6797h-8.5938c-0.07161,0.26693 -0.19531,0.66733 -0.37109,1.2012l-2.0996,-0.41992c0.49479,-1.4844 0.86589,-3.08923 1.1133,-4.8145h9.4238v-1.0449h-10v-1.4844zM283.7426,175.0207c-0.72267,-1.0026 -1.64713,-1.99543 -2.7734,-2.9785l1.4551,-1.3867c1.02213,0.74867 1.98243,1.70243 2.8809,2.8613zM283.1469,180.0598c-1.0026,-1.26953 -1.9759,-2.3047 -2.9199,-3.1055l1.4648,-1.416c0.97653,0.74867 1.9824,1.71547 3.0176,2.9004zM280.6274,187.9602c1.14587,-1.78387 2.2331,-4.07227 3.2617,-6.8652l1.6016,1.1816c-0.85287,2.58467 -1.875,5.00003 -3.0664,7.2461zM298.0294,178.595c-0.85287,-1.3802 -1.74803,-2.5716 -2.6855,-3.5742l1.4844,-0.95703c1.14587,1.04167 2.0736,2.181 2.7832,3.418zM284.3674,177.4231c0.95053,-0.78127 1.7318,-1.81643 2.3438,-3.1055l1.7774,0.66406c-0.63802,1.4518 -1.52019,2.66273 -2.6465,3.6328z" fill="#ffffff" stroke-width="1"/></g></g></svg>