<?xml version="1.0" encoding="UTF-8"?>
<svg width="480" height="360" version="1.1" viewBox="0 0 480 360" xmlns="http://www.w3.org/2000/svg">
 <g dominant-baseline="central" fill="#fff" aria-label="小笠原">
  <path d="m248.89 170.69h2.2754v16.279q0 1.2695-0.43945 1.748-0.48829 0.53711-2.0508 0.53711-1.4062 0-2.9883-0.14648l-0.49804-2.2754q2.4316 0.30273 3.3008 0.22461 0.40039-0.0391 0.40039-0.58594zm8.4375 14.688q-1.7676-6.9141-3.418-10.645l2.0606-0.87891q2.0801 4.2578 3.5547 10.342zm-17.041-1.2598q1.9434-3.2617 2.8223-9.707l2.2363 0.50781q-0.625 4.3164-1.5234 7.0703-0.67383 2.0508-1.6504 3.6426z" dominant-baseline="central"/>
  <path d="m267.43 174.58q0.625 1.0254 1.0254 2.041l-2.041 0.70313q-0.77149-1.9043-1.2207-2.7441h-0.9082q-0.83008 1.5527-1.9727 2.8027l-1.6797-1.4844q2.0215-1.9824 3.0469-5.498l2.1191 0.40039q-0.38086 1.25-0.69336 2.0215h4.5312v1.7578zm8.1445 0q0.53711 0.76172 1.2012 1.9629l-2.002 0.78125q-0.57617-1.377-1.4062-2.7441h-1.084q-0.63477 1.3086-1.4648 2.4219l-1.6016-1.2598q1.7383-2.1582 2.2949-5.2441l2.041 0.30273q-0.24414 1.1035-0.54688 2.0215h5.8691v1.7578zm-4.541 4.2773h7.6074v1.7578h-17.285v-1.7578h7.4609v-1.7578h2.2168zm0.60546 8.0078q1.1328-2.6172 2.0606-6.0644l2.2168 0.74219q-0.81055 2.7148-1.9824 5.3223h5.5664v1.8164h-19.004v-1.8164zm-6.2402-0.14648q-0.66406-3.3106-1.5039-5.3027l2.1191-0.59571q0.98633 2.2949 1.6797 5.293z" dominant-baseline="central"/>
  <path d="m291.5 174.92h6.0547v7.7344h-4.7363v5.3223q0 0.83984-0.4004 1.1816-0.40039 0.34179-1.4746 0.34179-1.416 0-2.5098-0.18554l-0.3125-1.8164q1.2695 0.20508 1.8359 0.20508 0.52734 0 0.64453-0.0879t0.11719-0.38086v-4.5801h-5.0195v-7.7344h3.7012q0.30273-0.71289 0.71289-1.8457h-5.9766v4.5996q0 4.668-0.49804 7.3828-0.42969 2.3633-1.5039 4.3359l-1.7383-1.4746q0.99609-2.002 1.3379-4.5312 0.26367-1.9629 0.26367-4.9316v-7.1777h16.836v1.7969h-6.4453q-0.38086 0.87891-0.88867 1.8457zm3.9355 1.582h-7.6758v1.4746h7.6758zm-7.6758 3.0566v1.5137h7.6758v-1.5137zm10.098 9.1797q-1.4258-2.1875-3.4668-4.2578l1.5234-1.1816q2.0606 1.875 3.5449 4.0332zm-14.102-1.2012q2.0215-1.7676 3.1152-4.1797l1.7285 0.87891q-1.25 2.7246-3.3203 4.6582z" dominant-baseline="central"/>
 </g>
</svg>
