<svg xmlns="http://www.w3.org/2000/svg" viewBox="0 0 180 40" version="1.1" height="40" width="180">
 <path style="paint-order:stroke markers fill" stroke-width=".2" stroke-linejoin="round" stroke-linecap="round" stop-color="#000000" fill-opacity="0" d="m0 0h180v40h-180z"></path>
 <g aria-label="警報発表地域+予想震度" fill="#fff" transform="scale(.95044 1.0521)">
  <path d="m30.271 16.824q0.76492 0.41524 1.8194 0.66111l-0.56823 0.88512q-1.1966-0.40432-1.9505-0.91244-0.77038 0.5573-1.9014 0.78678h2.5843v0.62833h-7.0482v-0.62833h1.8194l-0.09835-0.40978h-2.5461v-1.1528q-0.26772 0.22401-0.50813 0.38246l-0.57916-0.80863q0.82502-0.47534 1.2403-1.1856l0.34968 0.03825v-0.20762h-1.5025v-0.7376h1.5025v-0.46988h1.0272v0.46988h1.049v-0.46988h1.0436v0.46988h1.3441v0.7376h-1.3441v0.39339h1.1419q-0.01093 0.14752-0.02185 0.21855-0.01093 0.11474-0.01639 0.1803 0.77585-0.77585 1.2567-2.0981l1.0545 0.21855q-0.13113 0.35514-0.27319 0.66111h2.6991v0.8742h-0.74853q-0.2404 0.77038-0.82502 1.4752zm-1.4096 0.04917q-0.32236-0.31143-0.69389-0.85234-0.2568 0.3005-0.50813 0.52452l-0.56823-0.66111q-0.14752 1.4206-0.29504 1.7921-0.19123 0.47534-0.74853 0.56823h1.3714l-0.48627-0.7376q1.2239-0.1803 1.9287-0.63379zm0.64472-0.57915q0.33329-0.39339 0.53544-0.94522h-1.3605q0.34968 0.54091 0.82502 0.94522zm-4.5458-0.99986v-0.39339h-1.049v0.39339zm-1.8904 0.67204q-0.11474 0.14752-0.29504 0.33329h2.6827v1.2512q0.06556 0.0055 0.07649 0.0055 0.18577 0 0.25133-0.16938 0.17484-0.41524 0.26226-1.4206zm0.27319 0.92883v0.34421h1.1747v-0.34421zm7.6437 5.278v2.1527h-1.2239v-0.38246h-6.1303v0.38246h-1.2184v-2.1527zm-7.3542 0.63926v0.46988h6.1303v-0.46988zm-2.2511-3.5897h10.632v0.70482h-10.632zm1.4643 1.06h7.7093v0.59554h-7.7093zm0 0.95615h7.7093v0.57915h-7.7093z"></path>
  <path d="m34.768 14.836v-1.1419h1.1419v1.1419h1.6992v0.96162h-1.6992v0.93976h1.9342v0.97254h-0.65018q-0.17484 0.65018-0.46988 1.3769h1.0545v0.95069h-1.8686v1.0108h1.7976v0.97254h-1.7976v2.3057h-1.1419v-2.3057h-1.9287v-0.97254h1.9287v-1.0108h-2.0161v-0.95069h1.0053q-0.17484-0.72668-0.42617-1.3769h-0.80317v-0.97254h2.2401v-0.93976h-1.7812v-0.96162zm1.3605 2.8739h-1.7375q0.18577 0.51905 0.39885 1.3769h0.90698q0.28411-0.69936 0.43163-1.3769zm6.6275-3.6224v2.557q0 0.47534-0.17484 0.67204-0.20762 0.23494-0.86873 0.23494-0.64472 0-1.2894-0.05464l-0.18577-0.98347q0.90698 0.09835 1.1528 0.09835 0.2568 0 0.2568-0.22401v-1.3168h-2.3931v3.1744h3.0979l0.65018 0.5573q-0.29504 1.7375-1.0764 3.1034l-0.0601 0.10927q0.60101 0.69389 1.5025 1.2676l-0.61194 1.0217q-0.86327-0.5573-1.5408-1.3331-0.58462 0.74307-1.3168 1.3987l-0.64472-0.89605v0.85234h-1.1091v-10.239zm-3.5022 5.1414v4.1306q0.67204-0.45895 1.2949-1.2894-0.83595-1.2894-1.1747-2.8411zm1.9014 1.8741q0.48627-0.93976 0.63379-1.8741h-1.4096q0.26772 1.049 0.77585 1.8741z"></path>
  <path d="m51.727 16.3q0.7376-0.6174 1.4315-1.4588l0.89605 0.69389q-0.59008 0.65565-1.437 1.2949 0.72121 0.377 1.7976 0.77585l-0.59555 0.96162q-0.98347-0.38246-1.7921-0.8578v0.56823h-1.0163v1.4697h3.158v1.0545h-3.158v1.8303q0 0.28958 0.12566 0.34421 0.16938 0.07103 0.69936 0.07103 0.57915 0 0.79224-0.07103 0.21308-0.06556 0.27319-0.36607 0.07649-0.37153 0.08196-1.0709l1.1966 0.35514q-0.0601 1.4533-0.3169 1.8249-0.22401 0.32236-0.69936 0.38792-0.48081 0.06556-1.5572 0.06556-1.0163 0-1.3113-0.12566-0.48081-0.20216-0.48081-0.91244v-2.333h-1.7211q-0.12567 1.4151-0.92883 2.2128-0.88512 0.88512-2.6117 1.3331l-0.70482-1.0436q1.5462-0.32236 2.2784-0.95069 0.39885-0.34968 0.57916-0.85234 0.09835-0.26226 0.16391-0.69936h-2.8739v-1.0545h2.9286v-1.4697h-0.85234v-0.45349q-0.96162 0.60101-1.9669 0.96708l-0.54638-0.9179q1.1856-0.40432 2.2183-1.0436-0.59554-0.56823-1.3441-1.0709l0.79224-0.78131q0.84688 0.59008 1.4424 1.1911 0.64472-0.55184 1.0982-1.1583h-1.9724v-1.0272h3.7536q0.44802 0.74307 0.9179 1.2512 0.63926-0.56823 1.3386-1.3878l0.88512 0.69389q-0.66111 0.71575-1.4971 1.3659 0.3005 0.23494 0.53544 0.39339zm-1.9123 1.9779h-1.6828v1.4697h1.6828zm-2.934-1.0053h4.4529q-1.3605-0.91244-2.3494-2.1035-0.78678 1.1201-2.1035 2.1035z"></path>
  <path d="m61.874 22.031 0.07649 0.97801q-2.3713 0.83595-5.2725 1.3769l-0.40432-1.0927q0.50266-0.07649 1.4206-0.24587v-1.9997q-0.94522 0.48081-2.2511 0.91244l-0.62286-0.97254q2.628-0.71028 4.0104-1.814h-3.9011v-0.95069h4.6824v-0.82502h-3.5405v-0.9179h3.5405v-0.77038h-4.0978v-0.93976h4.0978v-1.0764h1.1966v1.0764h4.218v0.93976h-4.218v0.77038h3.6607v0.9179h-3.6607v0.82502h4.8026v0.95069h-1.3058l0.80863 0.5573q-0.74853 0.72668-2.0981 1.5899l-0.12566 0.08196q1.0272 0.93976 2.7865 1.5517l-0.7376 1.1091q-1.9068-0.80864-3.0651-2.0325zm-1.6555-2.8411q-0.54637 0.63926-1.3168 1.1474v2.4532q1.3495-0.3005 2.71-0.69936l0.25133-0.07103q-1.1201-1.2403-1.6446-2.8302zm1.9943 1.4916q0.97254-0.69389 1.7047-1.508h-2.5843q0.34968 0.83595 0.87966 1.508z"></path>
  <path d="m71.588 18.119v4.3273q0 0.42071 0.36061 0.50813 0.37153 0.09288 1.6992 0.09288 1.2949 0 1.7101-0.13113 0.23494-0.07649 0.30597-0.42617 0.09288-0.49174 0.09835-1.1638l1.1419 0.32236q-0.08742 1.6118-0.44256 2.0598-0.23494 0.29504-0.71028 0.34968-0.74853 0.08196-2.5406 0.08196-1.3878 0-1.8194-0.07649-0.65018-0.10928-0.82502-0.57369-0.08742-0.24587-0.08742-0.65565v-4.3327l-1.0436 0.36061-0.2568-1.06 1.3004-0.44802v-2.9449h1.1091v2.5625l1.1747-0.39885v-2.8794h1.0982v2.4969l1.8303-0.62833 0.57369 0.34968v4.0923q0 0.42617-0.20216 0.63379-0.22948 0.22948-0.77038 0.22948-0.44256 0-0.93976-0.07649l-0.1803-1.0436q0.32236 0.08196 0.65565 0.08196 0.2404 0 0.29504-0.09835 0.05464-0.08196 0.05464-0.27319v-2.5843l-1.3168 0.45895v4.4202h-1.0982v-4.0432zm-4.0158-1.7866v-2.639h1.1747v2.639h1.06v1.1091h-1.06v3.4749q0.57369-0.19669 1.1365-0.40978l0.10381 1.0545q-1.7702 0.80863-3.6334 1.355l-0.38246-1.1638q0.84141-0.21855 1.4752-0.41524 0.07649-0.02732 0.12566-0.03825v-3.8574h-1.3878v-1.1091z"></path>
  <path d="m86.652 15.606q-0.02732-0.05464-0.04917-0.10927-0.3169-0.71575-0.89059-1.3987l0.90698-0.42617q0.60647 0.6775 0.98347 1.4752l-0.8742 0.45895h1.1528v1.0053h-2.5242l0.01093 0.21855q0.08196 1.7265 0.33329 2.9832 0.45349-0.9944 0.81956-2.2128l1.0163 0.4371q-0.65018 1.8467-1.4479 3.2291 0.22948 0.68296 0.51359 1.1966 0.10927 0.19669 0.16391 0.19669 0.0601 0 0.1803-0.32782 0.13659-0.38792 0.21855-1.3331l0.90698 0.63926q-0.1803 1.4096-0.45895 2.0489-0.24587 0.5573-0.6174 0.5573-0.36607 0-0.85234-0.54637-0.46988-0.52998-0.82502-1.2949-0.9343 1.1747-2.1363 2.0106l-0.80317-0.82502q1.0436-0.62833 1.8303-1.4752-1.3386 0.52452-3.5296 0.98893l-0.3606-1.0163q2.2784-0.377 3.9393-0.88512l0.03825 0.80863q0.29504-0.32782 0.59008-0.75946-0.45895-1.5899-0.62833-4.6387h-3.5897v0.77585h-0.88513v3.5951q0.50266-0.20762 0.9179-0.39339l0.1202 1.0709q-1.6227 0.86327-3.24 1.3987l-0.39339-1.1528q0.6174-0.17484 1.4534-0.47534v-4.0432h-1.284v-1.0873h1.284v-2.628h1.1419v2.628h0.78131v-0.69389h3.6443l-0.02186-0.38246q-0.02732-0.51905-0.05464-1.5298h1.1201q0.03278 1.4206 0.0601 1.9123zm-2.6499 1.9505v3.3001h-2.9176v-3.3001zm-1.9888 0.88512v1.5408h1.0818v-1.5408z"></path>
  <path d="m92.46 15.316h0.96161v3.2127h3.2127v0.96161h-3.2127v3.2127h-0.96161v-3.2127h-3.2127v-0.96161h3.2127z"></path>
  <path d="m104.39 16.781q0.38246 0.19669 0.87966 0.46988l-0.69389 0.56276h3.2892l0.6174 0.6174q-1.2293 1.8522-2.4532 3.0433l-1.1091-0.65018q1.0764-0.98347 1.7265-1.956h-2.7209v4.2836q0 0.74307-0.36607 0.95069-0.24587 0.14206-0.91791 0.14206-0.87966 0-1.9396-0.10927l-0.26772-1.2184q1.0217 0.16391 1.814 0.16391 0.3005 0 0.37153-0.09835 0.0546-0.08196 0.0546-0.3005v-3.8137h-4.5786v-1.0545h5.9227q-1.8467-1.06-3.6935-1.7921l0.88512-0.70482q1.2403 0.4972 2.191 0.96708 0.84141-0.57369 1.4752-1.1255h-5.8407v-1.0381h7.4307l0.67204 0.65565q-1.4315 1.1528-2.7483 2.0052z"></path>
  <path d="m111.29 17.425q-0.71029 1.2949-1.6446 2.1199l-0.62833-1.0163q1.2239-0.92883 2.0653-2.5078h-1.8085v-1.0053h2.0161v-1.3222h1.1747v1.3222h1.579v1.0053h-1.579v0.66657q0.97254 0.5573 1.732 1.1802l-0.66111 0.96162q-0.51906-0.57915-1.0709-1.0326v2.4314h-1.1747zm3.3547 2.6226q0.69936 0.66657 1.3769 1.6009l-0.97254 0.69389q-0.754-1.1638-1.4588-1.814l0.77585-0.54091v-5.9008h4.666v5.9609zm0.82502-5.0649v0.83595h2.4314v-0.83595zm0 1.6774v0.82502h2.4314v-0.82502zm0 1.6555v0.83595h2.4314v-0.83595zm-6.3106 5.0813q0.62833-1.0272 0.978-2.5188l1.1365 0.32236q-0.30597 1.7539-1.049 2.934zm2.9886-2.5078h1.1966v1.7429q0 0.33875 0.16391 0.40432 0.20762 0.07649 1.1474 0.07649 0.89605 0 1.1966-0.0601 0.21854-0.04917 0.27864-0.25133 0.082-0.27319 0.10928-0.9944l1.2075 0.27865q-0.0219 0.81409-0.1202 1.1638-0.13659 0.4972-0.40432 0.6775-0.22947 0.15845-0.66111 0.18577-0.89605 0.05464-1.8413 0.05464-1.5899 0-1.9396-0.18577-0.33329-0.1803-0.33329-0.76492zm6.6603 2.9286q-0.66111-1.5954-1.4697-2.7045l0.99986-0.59554q0.90151 1.202 1.5408 2.5953z"></path>
  <path d="m125 15.169v-0.46988h-3.4148v-0.78131h8.0644v0.78131h-3.4858v0.46988h4.524v1.9615h-1.1856v-1.2567h-3.3383v2.1254h-1.1638v-2.1254h-3.2782v1.2567h-1.1747v-1.9615zm3.8683 7.753q0.83595 0.3169 2.0871 0.50266l-0.63925 0.92883q-1.7539-0.3005-2.8794-1.0326-1.1201-0.73214-1.7429-1.8194h-1.2075v1.6828q1.2075-0.16938 2.2401-0.36061l0.0765 0.81409q-1.9232 0.45895-4.3983 0.7977l-0.32236-0.96162q0.8578-0.09288 1.1747-0.13113l0.0656-0.01093v-1.8303h-1.1966q-0.0765 0.96161-0.25133 1.5353-0.20762 0.68843-0.66658 1.284l-0.97254-0.80317q0.53545-0.69389 0.66658-1.6227 0.071-0.50266 0.071-1.2512v-2.3166h9.4304v0.72668h-8.2557v1.6774h8.7256v0.77038h-1.2403l0.69389 0.45895q-0.6174 0.51359-1.4588 0.96162zm-0.85234-0.42071q0.78678-0.53544 1.2512-0.99986h-2.3876q0.46988 0.60101 1.1364 0.99986zm-5.8134-6.2232h2.3276v0.6174h-2.3276zm0 1.0053h2.3276v0.62833h-2.3276zm4.4311-1.0053h2.3986v0.6174h-2.3986zm0 1.0053h2.3986v0.62833h-2.3986zm-3.8355 2.2292h6.8023v0.71575h-6.8023z"></path>
  <path d="m137.66 14.677h4.2836v0.9179h-2.4259v0.90698h2.2729v0.88512h-2.2729v1.6282h-4.3983v-1.6282h-1.7921v1.0163q0 2.4751-0.26226 3.912-0.20215 1.0927-0.65564 1.9943l-0.9944-0.78678q0.41524-0.90151 0.56823-2.2019 0.13659-1.1419 0.13659-2.9176v-3.7263h4.3218v-0.98347h1.2184zm-4.3327 0.9179v0.90698h1.7921v-0.90698zm2.9559 0v0.90698h2.0708v-0.90698zm0 1.7921v0.84688h2.0708v-0.84688zm1.2676 5.7369q-1.579 0.81956-4.0104 1.2457l-0.56823-1.0053q2.2838-0.27319 3.5787-0.83595-1.1091-0.80317-1.8959-1.9068h-0.754v-0.95069h6.398l0.57369 0.48081q-0.81409 1.2512-2.3221 2.3549 1.2949 0.51905 3.5296 0.76492l-0.63925 1.0326q-2.1418-0.28958-3.8902-1.1802zm-1.6227-2.5024q0.66111 0.77585 1.6063 1.3659 1.0654-0.68843 1.6446-1.3659z"></path>
 </g>
</svg>
