<svg version="1.1" xmlns="http://www.w3.org/2000/svg" xmlns:xlink="http://www.w3.org/1999/xlink" width="116.87952" height="80.92696" viewBox="0,0,116.87952,80.92696"><g transform="translate(-243.78215,-90.89089)"><g data-paper-data="{&quot;isPaintingLayer&quot;:true}" fill="#ff0000" fill-rule="evenodd" stroke-linecap="round" stroke-linejoin="round" stroke-miterlimit="10" stroke-dasharray="" stroke-dashoffset="0" style="mix-blend-mode: normal"><path d="M310.34867,168.17799l-1.27495,0.87997l-0.32799,0.76997l-1.93392,1.29995l-0.23999,0.68997l-1.00796,-0.13999l-1.14695,-0.59997l-1.17496,0.48998l-1.08395,-0.45998l3.17887,-2.24991l1.33695,0.84996l1.46594,-0.60997l-0.079,-1.08996l2.04092,-1.96992l0.98297,-0.40998l0.43798,-0.90996l0.93097,-0.13l-0.46398,-1.66993l0.36398,-0.91996l1.17396,0.40998l1.11095,-1.14995l2.27091,0.67997l0.27499,-0.88997l1.38895,-0.57997l1.30094,-0.03l0.20799,-1.19995l0.58298,0.06l0.73797,-1.18995l0.73497,0.30999l2.6019,-1.78993l0.82497,-0.79997l0.74397,-1.75993l-0.041,-1.13996l-1.79793,-0.65997l-2.14391,-1.33995l-2.28491,-0.72997l-0.89197,0.91996l-1.68894,-0.60998l-0.043,-0.90996l-1.42094,-2.4099l-0.13099,-1.99992l1.19895,-0.73997l-0.192,-1.30995l-1.47794,-1.35994l-0.026,-0.72998l0.61897,-1.38994l0.92997,-0.06l1.43094,0.56998l0.73897,-0.36999l2.34891,-0.06l1.38094,-0.57997l1.04296,0.08999l1.30395,1.09996l3.37986,1.05996l0.24499,0.52997l-1.18496,0.69997l-0.75597,2.4099l0.124,0.93997l0.90097,0.41998l0.61298,1.36994l0.83896,-0.08l1.09896,0.47998l1.49394,-1.02996l0.94596,0.24999l2.29091,-1.11996l0.77697,-0.02l2.31591,-2.16992l2.04892,0.41998l-0.39499,-0.96996l-1.11396,-0.37998l-0.99096,-0.82997l1.98092,-2.6399l0.82497,0.02l1.76893,-0.63997l1.21895,-1.10995l0.44599,-0.82997l-0.52598,-1.57994l1.62993,-0.75997l1.02096,-0.2l0.74797,-1.29995l1.57894,-0.98996l0.44398,-0.88996l2.15591,-2.24991l-0.04999,-0.86997l2.17891,-3.89984l0.062,-1.25995l-0.89796,-0.87997l0.25299,-1.00996l1.07796,-0.84996l0.44998,1.01996l0.85296,0.84996l1.06596,0.52998l0.86096,0.86996l1.39095,0.06l0.09999,1.66994l1.60294,2.09992l-0.28698,0.69997l0.36498,1.03996l-0.44798,0.38999l0.91096,1.19995l-0.37798,1.35994l-0.114,1.49994l0.57698,0.84997l-0.70097,0.36998l-0.28499,1.28994l-1.09596,0.51998l-0.67497,1.90992l-0.82697,0.47998l0.29099,0.73997l-1.41194,1.12995l-0.049,1.57994l-0.53698,0.77997l-0.90896,0.30999l-0.124,0.98996l-0.74197,0.05999l-1.16696,2.33991l-0.60698,0.63997l-2.5629,0.63997l-3.08887,0.24999l-2.25991,-0.75997l-1.06596,0.14999l-0.31999,0.69997l0.76897,1.11996l0.16399,0.86996l-0.33399,0.85996l-2.79189,-0.55998l0.49998,1.11996l0.80297,0.63997l0.78997,1.65994l-0.65697,0.63997l0.17399,1.17995l-1.37195,0.07l-1.51993,0.46998l-1.99992,1.64994l-1.40495,-1.12995l-1.25495,-0.58997l-1.31195,0.47998l-0.96296,-0.45998l-0.57397,0.36998l0.83796,1.20995l0.89097,1.89992l-1.37495,-0.04999l-1.35794,1.14995l-1.35694,-0.28999l-1.48894,0.39998l-0.56598,0.58998l0.95896,1.19995l-0.04899,1.15995l-0.96096,0.89997l-2.3499,0.76997l-1.37695,-0.63997l-0.72097,1.30995l-0.35898,1.69993l0.14599,0.52998l-2.03792,0.35999l-0.76197,-0.89997l-1.99292,-0.38999l-1.13495,-0.74997l-1.58593,-0.03l-1.91393,1.01996l-0.72197,1.23995l-0.13099,0.21999l-0.35099,-1.49994l-1.43295,0.03" stroke="none" stroke-width="0"/><path d="M326.31805,101.98064h-1.09396l-0.77996,0.60998l-0.14499,1.45994l-1.62994,0.18999l-1.45595,0.66998l0.065,-0.86997l1.26395,-1.28995l0.55597,-1.29994l0.86897,-0.58998l0.99296,-1.42994l1.74193,-1.31995l0.83597,-1.58994l1.28295,-0.13999l1.22396,-0.48998l-1.95693,2.21991l-0.23799,1.48994l-0.74397,1.93993l-0.78796,0.43998" stroke="#ff0000" stroke-width="10"/><path d="M309.05873,139.27915l-2.46091,-0.34999l-2.55289,0.16l-0.89997,-0.59998l-0.28799,-0.92996l0.57498,-1.46994l0.57397,-0.26999l1.59194,0.41998l1.84393,-0.05l1.31295,-0.51997l2.11191,1.68993l-0.03599,1.56993l-1.77193,0.34999" stroke="none" stroke-width="0"/><path d="M322.98817,114.98012l0.172,1.15995l-1.29995,0.18999l-1.74593,-0.80996l0.066,-1.35995l-1.01696,-0.61998l0.77397,-1.24995l1.79192,-0.87997l1.77293,1.11996l0.18199,1.19995l-0.69597,1.24995" stroke="#ff0000" stroke-width="10"/><path d="M330.48786,145.4789l-1.02996,-0.64998l-0.75697,0.67998l-1.02095,-0.53998l-0.27399,-1.05996l0.63998,-0.98996l1.93092,-0.67997l0.15199,0.98996l1.02496,1.43994l-0.66598,0.80997" stroke="none" stroke-width="0"/><path d="M252.12102,153.77856l-0.68498,-0.27999l-2.65389,0.43998l0.84397,-1.85993l1.47194,-1.05996l0.87896,0.22999l0.81296,1.52993l-0.66897,0.99996" stroke="#ff0000" stroke-width="10"/><path d="M329.11794,140.17911l-0.31499,-1.02995l0.83297,-0.66998l1.10595,0.46998l-0.42598,1.67994l-1.19795,-0.44999" stroke="none" stroke-width="0"/><path d="M313.89852,146.97884l-0.45098,-1.07995l1.17395,-0.62998l0.78697,0.55998l-0.36798,0.91996l-1.14196,0.22999" stroke="none" stroke-width="0"/><path d="M320.03829,107.68041l-0.79597,-0.67998l1.14596,-0.61997l-0.34999,1.29995" stroke="#ff0000" stroke-width="10"/></g></g></svg>