<svg version="1.1" xmlns="http://www.w3.org/2000/svg" xmlns:xlink="http://www.w3.org/1999/xlink" width="208" height="32" viewBox="0,0,208,32"><g transform="translate(-240,-164)"><g data-paper-data="{&quot;isPaintingLayer&quot;:true}" fill-rule="nonzero" stroke="none" stroke-linecap="butt" stroke-linejoin="miter" stroke-miterlimit="10" stroke-dasharray="" stroke-dashoffset="0" style="mix-blend-mode: normal"><path d="M240,196v-32h208v32z" fill="none" stroke-width="0"/><path d="M247.26,181.96c-0.24089,0.15625 -0.61522,0.37435 -1.123,0.6543l-1.0742,-1.5039c2.02473,-0.93747 3.67837,-2.1419 4.9609,-3.6133h-3.9648v-1.4551h-1.3574v2.6953c0.35156,-0.14323 0.78449,-0.34505 1.2988,-0.60546l0.27344,1.7578c-0.44922,0.24739 -0.97332,0.51757 -1.5723,0.81054v7.0703c0,0.5013 -0.08464,0.88217 -0.25391,1.1426c-0.24089,0.36458 -0.75845,0.54687 -1.5527,0.54687c-0.7292,0 -1.3542,-0.06185 -1.875,-0.18555l-0.38085,-2.0215l0.3125,0.0391c0.625,0.08463 1.04493,0.12695 1.2598,0.12695c0.21485,0 0.34831,-0.03581 0.40039,-0.10742c0.0456,-0.06507 0.0684,-0.179 0.0684,-0.34179v-5.3613c-0.7682,0.3125 -1.416,0.5599 -1.9434,0.74219l-0.55664,-1.9824c0.77473,-0.23437 1.60807,-0.51106 2.5,-0.83007v-3.4961h-2.1973v-1.9434h2.1973v-3.6035h2.0215v3.6035h1.5332v1.7188h2.2852c-0.27343,-0.7096 -0.5957,-1.38993 -0.96679,-2.041l1.6992,-0.49805c0.42969,0.87893 0.76172,1.7253 0.99609,2.5391h1.2891v-2.8516c-1.862,0.14974 -3.44077,0.25391 -4.7363,0.3125l-0.70312,-1.543c4.3164,-0.18229 7.86773,-0.56316 10.654,-1.1426l1.377,1.4844c-1.35413,0.24739 -2.92313,0.48177 -4.707,0.70312v3.0371h1.25c0.47526,-0.90493 0.91146,-1.9531 1.3086,-3.1445l1.8164,0.70313c-0.39063,0.7682 -0.86916,1.582 -1.4356,2.4414h2.9688v1.6796h-4.2969c1.19793,1.22393 2.78973,2.26233 4.7754,3.1152l-1.1133,1.6016c-0.2474,-0.13672 -0.52084,-0.29297 -0.82032,-0.46875v7.7539h-1.875v-1.0059h-6.8457v1.0059h-1.8945zM249.0959,180.6123h2.4414v-2.7441c-0.65104,1.0026 -1.46484,1.9173 -2.4414,2.7441zM256.0002,186.9697v-1.7578h-2.6172v1.7578zM256.0002,183.7275v-1.5918h-2.6172v1.5918zM253.4221,180.6123h2.7344c-1.14587,-0.8724 -2.05733,-1.84247 -2.7344,-2.9102zM249.1545,182.1357v1.5918h2.4219v-1.5918zM249.1545,185.2119v1.7578h2.4219v-1.7578z" fill="#ffffff" stroke-width="1"/><path d="M275.74,173.68v1.1914h3.2031v1.377h-2.7246c0.90493,0.98307 1.99867,1.82943 3.2812,2.5391l-1.0547,1.2988c-1.08073,-0.64453 -1.99547,-1.4323 -2.7442,-2.3633v2.7441h-1.7969v-2.7539c-0.65755,1.08073 -1.47785,1.97267 -2.4609,2.6758l-1.0449,-1.1621c1.09373,-0.6706 2.0638,-1.6146 2.9102,-2.832l0.10742,-0.14648h-2.1777v-1.377h2.627v-1.1914h-5.1465v1.1914h2.002v1.377h-2.041v0.43945c0.80727,0.35157 1.61457,0.81057 2.4219,1.377l-0.97657,1.2598c-0.58593,-0.48828 -1.0677,-0.86915 -1.4453,-1.1426v2.2852h-1.7969v-2.4707c-0.63803,0.931 -1.36393,1.70247 -2.1777,2.3144l-1.0449,-1.1328c-0.00667,2.56507 -0.1206,4.64513 -0.3418,6.2402c-0.21484,1.5104 -0.59571,2.84177 -1.1426,3.9941l-1.8945,-1.3281c0.53385,-1.10027 0.89519,-2.50327 1.084,-4.209c0.15625,-1.41927 0.23437,-3.1966 0.23437,-5.332v-6.4844h7.8027v-1.5625h2.1582v1.5625h7.6856v1.6211zM266.8435,173.68h-3.1836v5.3613c1.0156,-0.57943 1.9596,-1.51043 2.832,-2.793h-2.4316v-1.377h2.7832zM268.8552,184.051h9.2676v5.4492h-2.0801v-0.88867h-8.2031v0.88867h-2.0606v-3.3105c-0.35156,0.19531 -0.83009,0.4427 -1.4356,0.74218l-0.96679,-1.4941c1.71227,-0.61198 3.20313,-1.55275 4.4726,-2.8223h-3.9453v-1.543h15.557v1.543h-9.2285c-0.43619,0.54687 -0.89519,1.02537 -1.377,1.4355zM267.8396,185.5549v1.5332h8.2031v-1.5332z" fill="#ffffff" stroke-width="1"/><path d="M289.3,175.71v0.88867h2.6562v1.2012c0.931,-2.2982 1.55927,-4.7624 1.8848,-7.3926l1.7773,0.26367c-0.24088,1.37367 -0.472,2.49347 -0.69336,3.3594h1.0156c0.30599,-1.15233 0.54362,-2.3242 0.71289,-3.5156l1.709,0.3125c-0.24088,1.14587 -0.53059,2.21357 -0.86914,3.2031h2.0312v1.7578h-1.9043v2.4902h1.5625v1.6992h-1.5625v2.4316h1.5625v1.7285h-1.5625v2.6172h2.0996v1.7969h-4.8145v0.9375h-1.6602v-10.82c-0.14323,0.34505 -0.34506,0.78125 -0.60547,1.3086l-0.6836,-1.9629v2.3438h-2.6562v0.9375h2.793v1.416h-2.793c-0.013,0.44922 -0.02603,0.778 -0.0391,0.98633h3.3984v1.416h-3.584c-0.013,0.07161 -0.0358,0.17578 -0.0684,0.3125c1.2044,0.7096 2.37627,1.53967 3.5156,2.4902l-1.1621,1.4551c-0.8854,-0.8594 -1.83593,-1.6667 -2.8516,-2.4219l-0.10742,-0.0879c-0.7552,1.25653 -1.8392,2.2266 -3.252,2.9102l-1.2402,-1.5625c1.21747,-0.42969 2.11267,-1.04819 2.6856,-1.8555c0.22786,-0.3125 0.41992,-0.7259 0.57617,-1.2402h-2.9297v-1.416h3.2324c0.0456,-0.44922 0.07163,-0.778 0.0781,-0.98633h-2.7832v-1.416h2.793v-0.9375h-2.6562v-3.7598h2.6367v-0.88867h-1.6602v-2.1777h-0.97657l-1.5039,1.416c-0.625,-0.98307 -1.4974,-2.028 -2.6172,-3.1348l1.4844,-1.2598c0.80727,0.6706 1.59827,1.52347 2.373,2.5586v-1.0644h1.2402v-1.6797h1.6992v1.6797h1.7188v-1.6797h1.6797v1.6797h1.6211v1.4844h-1.6211v2.1777zM287.6398,177.8389h-1.2598v1.2988h1.2598zM289.2023,177.8389v1.2988h1.3184v-1.2988zM287.5812,173.5323v0.97656h1.7188v-0.97656zM294.9054,175.7882v2.4902h1.1719v-2.4902zM294.9054,179.9776v2.4316h1.1719v-2.4316zM294.9054,184.1378v2.6172h1.1719v-2.6172zM282.6594,179.7726c-0.95707,-1.32813 -1.80993,-2.36653 -2.5586,-3.1152l1.5234,-1.2793c0.97653,0.8724 1.85543,1.87827 2.6367,3.0176zM280.2961,188.1906c0.918,-1.9596 1.69927,-4.35217 2.3438,-7.1777l1.7578,0.87891c-0.5013,2.59767 -1.24023,5.15953 -2.2168,7.6856z" fill="#ffffff" stroke-width="1"/></g></g></svg>