<svg version="1.1" xmlns="http://www.w3.org/2000/svg" xmlns:xlink="http://www.w3.org/1999/xlink" width="66.49732" height="66.42732" viewBox="0,0,66.49732,66.42732"><g transform="translate(134.39004,-262.99313)"><g data-paper-data="{&quot;isPaintingLayer&quot;:true}" fill="#ff0000" fill-rule="evenodd" stroke="none" stroke-width="0" stroke-linecap="round" stroke-linejoin="round" stroke-miterlimit="10" stroke-dasharray="" stroke-dashoffset="0" style="mix-blend-mode: normal"><path d="M-69.55264,300.8116l-1.92992,0.75997l-0.60998,1.16995l0.22999,1.74993l-0.49998,1.66993l-0.97996,0.41998l-1.58994,-0.13999l-1.57994,0.86997l-0.77997,3.36987l1.23995,1.65993l-0.95996,0.90996l-1.25995,0.56998l-0.81997,1.36995l-0.23999,1.16995l1.54994,1.64993l0.03,1.92992l-0.33999,0.79997l-2.12991,1.47994l-0.35999,1.73993l-2.08992,2.5499l0.19999,1.14995l-2.84989,0.96996h-0.80997l-1.91992,0.78997l-1.53994,-0.66997l-2.89988,0.50998l-1.44994,-0.31999l-0.46998,-0.67997l0.49998,-1.23995l-0.49998,-1.25995l0.42998,-0.80997l0.02,-1.29995l0.92996,-0.39998l1.15995,-1.90992l-0.42998,-0.92996l0.44998,-1.64993l0.46998,-0.62997l-2.09992,-1.83993l-0.77997,-1.30995l-1.63993,-0.55998l-1.37994,0.31999l-1.08996,-0.67997l-0.97996,-0.03l-0.22999,-1.53994l0.50998,-0.12999l0.75997,-1.56994l-0.30999,-0.94996l-1.41994,-1.24995l-1.50994,1.23995l-1.17995,0.14999l-1.63993,1.15995l-0.71997,-0.19999l-1.07996,0.94996l-1.20995,0.61998l-0.68997,-1.60994l-0.93996,-0.82997l-2.16991,0.32999l-0.61998,1.39994l-1.23995,0.56998l-3.33987,-1.50994l-1.51994,0.57998l-1.01996,-0.82997l0.36999,-1.88992l-0.26999,-1.58994l-1.28995,-0.31999l-0.72997,0.57998l-0.90996,-0.07l-1.33995,1.49994l-0.97996,1.89992l-1.82993,-0.48998l-0.54998,1.01996l-1.50994,1.89992l-0.64997,-0.44998l-0.04,-1.07996l-1.57994,-1.68993l-0.64997,-1.06996l4.23983,-1.58994l1.22995,-0.31999l2.35991,-1.83993l0.82997,-0.97996l0.85997,-0.28999l1.31995,-1.27995l0.67997,-0.24999l1.28995,-1.35995l0.37998,-1.23995l1.10996,-1.98992l0.55998,-1.84993l1.29995,-0.78997l0.70997,-1.03996l-0.30999,-2.5499l-0.69997,-0.73997l0.24999,-0.77997l-0.32999,-1.02996l0.37998,-1.61994l-0.15999,-1.71993l-0.39998,-0.35999l1.25995,-1.43994l-0.36999,-0.71997l1.41994,-0.24999l0.20999,-0.55998l-0.41998,-1.76993l-0.82997,-0.38998l1.06996,-3.60986l2.12991,0.45998l1.51994,-0.33999l0.79997,-0.67997l0.14999,-1.50994l1.15995,-2.94988l0.32999,-1.97992l-0.17999,-1.37994l0.41998,-1.24995l-0.33999,-1.20995l1.54994,-1.49994l1.45994,-0.16999l0.77997,-0.98996l0.91996,0.82997l0.46998,1.02996l1.16995,0.55998l0.77997,-0.73997l1.61994,1.08996l2.25991,-0.05l0.90996,0.92996l-0.47998,3.28987l0.22999,1.22995l2.89988,1.66993l0.80997,0.83997l0.23999,1.93992l-0.28999,0.69997l1.29995,0.74997l1.29995,-0.72997l0.91996,0.40998l0.11,1.41994l-0.33999,1.00996l0.50998,1.53994l0.65997,0.33999l0.59998,1.63993l-0.66997,1.04996l0.53998,1.97992l0.62997,0.49998l0.65997,1.67993l1.49994,-0.57998l1.18995,0.45998l1.03996,3.58986l-0.64997,0.41998l0.12,1.36995l3.77985,1.48994l1.73993,-0.35999l0.83997,0.27999l1.88992,-0.68997l0.85997,-1.26995l0.78997,0.75997l1.68993,0.29999l2.3799,1.63993l0.33999,2.23991l-2.13991,1.92992l0.47998,1.31995"/><path d="M-119.95062,266.013l0.41998,1.39994l-1.33995,0.55998l0.93996,0.78997l0.09,1.67993l-0.86997,0.32999l-1.60994,-0.45998l-1.19995,0.83997l-0.41998,0.94996l-1.02996,-1.14995l-0.30999,-2.10992l1.73993,-1.70993l0.54998,-1.12995l1.23995,0.02l1.05996,-1.21995l1.19995,-0.84997l0.05,-0.95996l0.61998,0.60998l-1.10996,1.21995l-0.02,1.18995"/><path d="M-116.65076,277.11255l-0.13999,0.97996l0.92996,1.55994l-0.27999,0.51998l-1.65993,0.18999l0.63997,-2.68989l-0.89996,-1.68993l1.38994,0.12999l0.66997,-0.52998l-0.1,-0.88996l1.16995,-0.65997l0.38998,1.07996l-0.14999,1.44994l-1.95992,0.54998"/><path d="M-130.6502,266.81296l1.04996,-0.63997l1.69993,-0.27999l-0.60998,1.88992l-1.14995,1.18995l-0.98996,-2.15991"/><path d="M-118.35069,271.11279l-0.71997,-0.78997l0.27999,-1.20995l0.94996,-0.76997l1.06996,0.44998l0.06,1.44994l-1.63993,0.86997"/><path d="M-133.45008,268.3129l-0.93996,-0.63997l0.74997,-1.06996l0.88996,-0.25999l1.03996,0.11l-0.96996,1.66993l-0.76997,0.18999"/><path d="M-131.45016,273.11271l1.21995,0.09l1.16995,-0.57998l-1.40994,1.36995l-0.88996,0.07l-0.09,-0.94996"/><path d="M-115.05082,267.91292l0.80997,1.40994l-1.13995,0.03l0.32999,-1.43994"/></g></g></svg>