<svg version="1.1" xmlns="http://www.w3.org/2000/svg" xmlns:xlink="http://www.w3.org/1999/xlink" width="219.4464" height="404.61179" viewBox="0,0,219.4464,404.61179"><g transform="translate(166.12678,159.95846)"><g data-paper-data="{&quot;isPaintingLayer&quot;:true}" fill="none" fill-rule="evenodd" stroke="#d645ff" stroke-width="72" stroke-linecap="round" stroke-linejoin="round" stroke-miterlimit="4" stroke-dasharray="" stroke-dashoffset="0" style="mix-blend-mode: normal"><g><path d="M17.31962,-123.95846l-4.23932,1.77072l-1.44977,2.15066l-0.14998,4.92621l-2.07967,3.80939l-1.90969,1.72172l-4.27932,2.21765l-2.4796,0.36994l-2.4996,-1.32779l-0.54991,1.74372l-2.41961,0.66489l-3.7194,-1.93369l0.29995,-1.39878l-3.41945,-4.17533l-1.34978,4.05735l0.37994,4.16633l1.8897,3.03651l-0.49992,3.55043l-3.57943,4.80423l0.37994,2.27964l-1.08983,3.26548l-3.49944,4.76324l-0.55991,4.76924l2.26964,8.27268l5.75908,12.84694l4.89922,12.16005l3.41945,9.91441l3.35946,13.90378l0.96984,5.0152l1.2498,9.96341l0.47992,7.79375l-0.50992,7.41181l-1.98968,4.3503l-0.68989,11.68313l-1.18981,5.12218l-1.2598,2.86554l-2.65957,3.35046l-1.73972,3.52144l-1.40977,4.89722l-3.0995,2.67057l1.09982,9.76844l-0.35994,3.08651l0.38994,8.1247l-0.50992,2.68657l0.89986,9.21852l-0.17997,9.17753l-3.35946,12.41101l-2.93953,5.08519l-3.87938,3.64342l-2.12966,0.86286l-2.67957,-0.6019l-1.68973,2.76956l-3.60942,0.06399l-6.99888,4.02336l-1.50976,1.97468l-0.99984,4.12634l-3.35946,5.20417l0.93985,5.51412l1.12982,2.44961l0.26996,3.62842l3.33947,6.8889l-0.94985,4.64226l-1.58975,2.90154l-0.12998,2.4796l1.54975,3.7464l1.77972,2.01368l3.64942,8.26068l0.29995,3.82239l-0.82987,8.38666l-1.71972,2.91853l-6.02904,8.38966l-3.04951,3.45845l-2.59958,1.65673l0.46992,3.16549l-1.44977,-2.07967l-1.73972,2.31363l-5.56911,3.52544l-4.43929,1.92969l-7.32883,-3.7454l-5.0292,-1.14582l-3.47944,-4.14234l1.71972,-1.77672l-1.17981,-2.33863l-3.05951,0.07299l-2.5296,1.52876l-3.47944,0.75588l-0.01,1.42277l-4.88922,0.85086l-0.54991,-1.53675l-1.42977,2.54359l-5.91905,0.53491l-1.43977,-1.05383l0.08999,-3.07851l-2.06967,-0.30095l-4.76924,-3.49344l-1.2698,0.25696l-5.45913,-2.02068l0.32995,-2.09566l-1.44977,-1.91769l-3.64942,-1.13482l-5.19917,-4.89922l-3.80939,-4.3473l-4.13934,-0.28695"/><path d="M-43.67062,28.79109l0.88986,1.41577l-1.59974,2.33663l-2.76956,-0.56291l3.47944,-3.18949"/><path d="M-33.7722,28.20619l-0.98984,2.63958l-3.50944,-0.85086l4.49928,-1.78871"/><path d="M-56.41858,-86.35348l3.64942,3.55543l3.32947,-0.29595l2.70957,2.25064l2.84954,5.15817l0.48992,4.90422l-4.31931,4.89022l-4.83923,2.4906l-7.21884,-5.73408l-2.44961,-3.42845l-1.43977,-3.44745l1.47976,-0.5999l-0.91985,-3.30847l4.70925,-5.34314l1.96968,-1.09183"/><path d="M-79.60487,-115.5818l2.58959,3.82339l2.00968,0.6209l2.30963,-1.44377l-0.31995,-2.54959l1.2498,0.99384l2.12966,4.49928l-1.03983,1.98968l0.22996,8.1127l-0.95985,1.55075l0.78987,3.05851l-1.2198,3.41045l-0.13998,2.99052l-1.64974,0.09798l-0.42993,-5.14818l-2.07967,-3.01852l-0.74988,-4.59926l-1.00984,-1.8567l0.95985,-6.275l-2.66957,-6.257"/></g></g></g></svg>