<svg xmlns="http://www.w3.org/2000/svg" viewBox="0 0 400 400" version="1.1" height="400" width="400"><defs><radialGradient gradientUnits="userSpaceOnUse" gradientTransform="translate(-40,20)" r="200" cy="180" cx="240" id="a"><stop offset="0" stop-color="#e52a18"></stop><stop offset=".4" stop-color="#e52a18"></stop><stop offset=".55" stop-opacity=".56078" stop-color="#e52a18"></stop><stop offset=".7" stop-opacity=".25098" stop-color="#e52a18"></stop><stop offset=".85" stop-opacity=".058824" stop-color="#e52a18"></stop><stop offset="1" stop-opacity="0" stop-color="#e52a18"></stop></radialGradient></defs><g stroke-miterlimit="10"><path style="mix-blend-mode:normal" stroke-width="0" fill="none" d="m0 400v-400h400v400z"></path><path style="mix-blend-mode:normal" opacity=".09" fill-rule="evenodd" fill="url(#a)" d="m0 200c0-110.46 89.543-200 200-200s200 89.543 200 200-89.543 200-200 200-200-89.543-200-200z"></path><path style="mix-blend-mode:normal" stroke-width="15" stroke="#f5947c" fill="#e52a18" d="m110.5 200c0-49.429 40.071-89.5 89.5-89.5s89.5 40.071 89.5 89.5-40.071 89.5-89.5 89.5-89.5-40.071-89.5-89.5z"></path></g><path style="font-feature-settings:normal;font-variant-alternates:normal;font-variant-caps:normal;font-variant-east-asian:normal;font-variant-ligatures:normal;font-variant-numeric:normal;font-variant-position:normal;font-variation-settings:normal;inline-size:0;isolation:auto;mix-blend-mode:normal;shape-margin:0;shape-padding:0;text-decoration-color:#000000;text-decoration-line:none;text-decoration-style:solid;text-indent:0;text-orientation:mixed;text-transform:none;white-space:normal" stop-color="#000000" shape-rendering="auto" image-rendering="auto" fill="#fff" color-rendering="auto" color="#000000" d="m157.63 149.93-0.0948 0.86201-6.3542 57.495 15.592 2.5652 0.3467-0.52099c4.1571-6.236 10.568-9.3211 19.637-9.3211 6.6341 0 11.665 2.019 15.35 6.0606h2e-3c3.4122 3.7295 5.1228 8.515 5.1228 14.539 0 6.8924-2.4307 12.117-7.3811 15.99v2e-3c-3.8684 3.0309-8.5001 4.545-14.031 4.545-4.9174 0-9.9254-0.95514-15.039-2.8778h-2e-3c-4.6796-1.7498-8.6168-4.2183-11.848-7.4095l-0.76728-0.75782-9.7815 12.278 0.61951 0.61193c9.3587 9.2735 21.786 13.912 37.068 13.912 10.589 0 19.544-2.793 26.73-8.3966h2e-3c8.6339-6.7533 13-16.113 13-27.772 0-5.1859-0.80792-9.9356-2.4383-14.226-2.9118-7.6216-8.0876-13.361-15.404-17.085l-4e-3 -2e-3c-5.2171-2.6935-10.819-4.0448-16.757-4.0448-8.1179 0-15.342 2.182-21.651 6.3732l3.376-27.065h47.128v-15.755z"></path><path style="font-feature-settings:normal;font-variant-alternates:normal;font-variant-caps:normal;font-variant-east-asian:normal;font-variant-ligatures:normal;font-variant-numeric:normal;font-variant-position:normal;font-variation-settings:normal;inline-size:0;isolation:auto;mix-blend-mode:normal;shape-margin:0;shape-padding:0;text-decoration-color:#000000;text-decoration-line:none;text-decoration-style:solid;text-indent:0;text-orientation:mixed;text-transform:none;white-space:normal" stop-color="#000000" shape-rendering="auto" image-rendering="auto" fill="#fff" color-rendering="auto" color="#000000" d="m218.46 173.1v14.757h44.703v-14.757z"></path></svg>
