<svg xmlns="http://www.w3.org/2000/svg" viewBox="0 0 120 60" version="1.1" height="60" width="120">
 <rect style="paint-order:stroke markers fill" stop-color="#000000" opacity=".80769" fill="none" height="60" width="120"></rect>
 <g aria-label="300%" fill="#fff">
  <path d="m63.287 17.748h0.9502q1.2031 0 1.9346-0.43066 0.89551-0.52637 0.89551-1.4424 0-0.75879-0.65625-1.2031-0.58106-0.38965-1.4492-0.38965-1.5723 0-3.0215 1.2031l-0.99121-1.2236q1.7568-1.4082 4.1357-1.4082 1.5928 0 2.6182 0.65625 1.2373 0.7998 1.2373 2.2627 0 1.1211-0.85449 1.9209-0.66309 0.61524-1.75 0.77246v0.05469q1.4082 0.23242 2.1533 0.92969 0.77246 0.72461 0.77246 1.9346 0 1.7637-1.4287 2.6387-1.0732 0.65625-2.8164 0.65625-2.748 0-4.457-1.6816l1.0322-1.2305q0.54688 0.58106 1.4082 0.95703 1.0459 0.45801 2.0303 0.45801 1.1074 0 1.7295-0.46484 0.60156-0.44434 0.60156-1.3604 0-1.2578-1.21-1.7842-0.81348-0.35547-1.9551-0.35547h-0.90918z"></path>
  <path d="m75.968 12.806q2.1533 0 3.3359 1.8662 0.99121 1.5586 0.99121 4.1084 0 2.3311-0.84082 3.8418-1.1689 2.1123-3.5068 2.1123-2.0986 0-3.2744-1.75-1.0596-1.5723-1.0596-4.2041 0-2.7344 1.1348-4.3271 1.1758-1.6475 3.2197-1.6475zm-0.02051 1.4697q-1.1074 0-1.75 1.2168-0.62207 1.1895-0.62207 3.2881 0 1.9619 0.56738 3.1309 0.64941 1.3262 1.8184 1.3262 1.0254 0 1.6611-1.0664 0.71094-1.1963 0.71094-3.3906 0-2.085-0.61524-3.2744-0.64258-1.2305-1.7705-1.2305z"></path>
  <path d="m86.605 12.806q2.1533 0 3.3359 1.8662 0.99121 1.5586 0.99121 4.1084 0 2.3311-0.84082 3.8418-1.1689 2.1123-3.5068 2.1123-2.0986 0-3.2744-1.75-1.0596-1.5723-1.0596-4.2041 0-2.7344 1.1348-4.3271 1.1758-1.6475 3.2197-1.6475zm-0.02051 1.4697q-1.1074 0-1.75 1.2168-0.62207 1.1895-0.62207 3.2881 0 1.9619 0.56738 3.1309 0.64941 1.3262 1.8184 1.3262 1.0254 0 1.6611-1.0664 0.71094-1.1963 0.71094-3.3906 0-2.085-0.61524-3.2744-0.64258-1.2305-1.7705-1.2305z"></path>
  <path d="m102.41 13.086h1.3604l-8.3603 11.341h-1.3535zm-7.2119-0.28027q1.3193 0 2.085 1.0186 0.64941 0.875 0.64941 2.1807 0 1.1826-0.5332 2.0098-0.76562 1.1895-2.2148 1.1895-1.2852 0-2.0439-0.95703-0.69726-0.875-0.69726-2.2354 0-1.6133 0.94336-2.5156 0.72461-0.69043 1.8115-0.69043zm-0.01367 1.2578q-0.56738 0-0.91602 0.51953-0.35547 0.5332-0.35547 1.4287 0 0.74512 0.2666 1.2578 0.34863 0.67676 1.0117 0.67676 0.52637 0 0.86816-0.45117 0.40332-0.54004 0.40332-1.4834 0-0.90918-0.37598-1.4492-0.3418-0.49902-0.90234-0.49902zm7.458 4.2451q1.2783 0 2.0371 0.95703 0.69727 0.88184 0.69727 2.2354 0 1.2031-0.54688 2.0371-0.76562 1.1689-2.2012 1.1689-1.3262 0-2.085-1.0186-0.64941-0.875-0.64941-2.1807 0-1.5859 0.91601-2.4814 0.73145-0.71777 1.832-0.71777zm-0.0137 1.2578q-0.52637 0-0.86133 0.45117-0.40332 0.54688-0.40332 1.4902 0 0.74512 0.25977 1.2578 0.34863 0.68359 1.0186 0.68359 0.56739 0 0.90918-0.51953 0.35547-0.54004 0.35547-1.4219 0-0.90234-0.37598-1.4424-0.34179-0.49902-0.90234-0.49902z"></path>
 </g>
</svg>
