<svg version="1.1" xmlns="http://www.w3.org/2000/svg" xmlns:xlink="http://www.w3.org/1999/xlink" width="208" height="32" viewBox="0,0,208,32"><g transform="translate(-240,-164)"><g data-paper-data="{&quot;isPaintingLayer&quot;:true}" fill-rule="nonzero" stroke="none" stroke-linecap="butt" stroke-linejoin="miter" stroke-miterlimit="10" stroke-dasharray="" stroke-dashoffset="0" style="mix-blend-mode: normal"><path d="M240,196v-32h208v32z" fill="none" stroke-width="0"/><path d="M256.43,183.6l0.13672,0.0684c0.67707,0.3125 1.4095,0.68033 2.1973,1.1035l-1.2793,1.5234c-1.38673,-0.83333 -2.81903,-1.6146 -4.2969,-2.3438v2.9394h-2.041v-3.9453c-1.237,0.97653 -2.6335,1.79033 -4.1895,2.4414l-1.2598,-1.4551c2.0182,-0.7422 3.8216,-1.68947 5.4102,-2.8418h-3.9062v-4.0723h10.127v4.0723h-0.0781l1.2207,0.78125c-0.69013,0.64453 -1.37047,1.2207 -2.041,1.7285zM254.7698,182.87734c0.07813,-0.06513 0.18881,-0.16279 0.33204,-0.29297c0.5013,-0.45573 0.9798,-0.95376 1.4355,-1.4941h-2.8809c-0.08463,0.07161 -0.20182,0.16927 -0.35156,0.29297l-0.11719,0.0977v0.80079c0.39714,0.13671 0.92447,0.33528 1.582,0.5957zM249.2034,178.35584v1.416h6.1035v-1.416zM245.0432,185.20154c0.50781,0.53385 1.08725,0.96029 1.7383,1.2793c0.44271,0.21485 1.08075,0.39714 1.9141,0.54688c0.84633,0.14323 1.70247,0.21484 2.5684,0.21484h8.5547c-0.24739,0.47526 -0.45898,1.09376 -0.63476,1.8555h-7.9785c-2.20053,0 -3.8737,-0.28971 -5.0195,-0.86914c-0.67707,-0.34505 -1.32487,-0.85285 -1.9434,-1.5234c-0.918,1.15233 -1.84573,2.10287 -2.7832,2.8516l-1.0938,-1.9727c0.83987,-0.52735 1.71877,-1.17515 2.6367,-1.9434v-5.0586h-2.5v-1.9238h4.541zM251.1467,171.83254v-1.3379h2.041v1.3379h4.7754v1.4844h-4.7754v1.1133h5.8398v1.5625h-13.32v-1.5625h5.4395v-1.1133h-4.3457v-1.4844zM243.7639,175.68994c-0.86587,-1.49087 -1.83267,-2.7897 -2.9004,-3.8965l1.6211,-1.1816c1.00913,0.98307 2.00197,2.2233 2.9785,3.7207z" fill="#ffffff" stroke-width="1"/><path d="M270.23,178.41v7.7344c0,0.5013 0.21485,0.80403 0.64454,0.9082c0.44271,0.11068 1.45507,0.16602 3.0371,0.16602c1.54293,0 2.5618,-0.07813 3.0566,-0.23438c0.27995,-0.09115 0.46224,-0.34505 0.54687,-0.76172c0.11068,-0.58593 0.16927,-1.2793 0.17578,-2.0801l2.041,0.57618c-0.10417,1.9206 -0.36784,3.1478 -0.79102,3.6816c-0.27995,0.35156 -0.70311,0.55989 -1.2695,0.625c-0.89193,0.09765 -2.4056,0.14648 -4.541,0.14648c-1.65367,0 -2.73767,-0.04557 -3.252,-0.13672c-0.77473,-0.13021 -1.26627,-0.47201 -1.4746,-1.0254c-0.10417,-0.29297 -0.15625,-0.6836 -0.15625,-1.1719v-7.7441l-1.8652,0.64453l-0.45899,-1.8945l2.3242,-0.80078v-5.2637h1.9824v4.5801l2.0996,-0.71289v-5.1465h1.9629v4.4629l3.2715,-1.123l1.0254,0.625v7.3144c0,0.50781 -0.12044,0.88541 -0.36133,1.1328c-0.27343,0.27343 -0.73243,0.41015 -1.377,0.41015c-0.52735,0 -1.08725,-0.04557 -1.6797,-0.13672l-0.32226,-1.8652c0.38411,0.09765 0.77475,0.14648 1.1719,0.14648c0.28646,0 0.46224,-0.05859 0.52734,-0.17578c0.06513,-0.09765 0.0977,-0.26041 0.0977,-0.48828v-4.6191l-2.3535,0.82031v7.9004h-1.9629v-7.2266zM263.0523,175.2166v-4.7168h2.0996v4.7168h1.8945v1.9824h-1.8945v6.2109c0.6836,-0.23437 1.36067,-0.47851 2.0312,-0.73242l0.18555,1.8848c-2.1094,0.96353 -4.2741,1.77083 -6.4941,2.4219l-0.6836,-2.0801c1.0026,-0.26041 1.8815,-0.50781 2.6367,-0.74218c0.09115,-0.03253 0.16602,-0.05533 0.22461,-0.0684v-6.8945h-2.4805v-1.9824z" fill="#ffffff" stroke-width="1"/></g></g></svg>