<?xml version="1.0" encoding="UTF-8"?>
<svg width="480" height="360" version="1.1" viewBox="0 0 480 360" xmlns="http://www.w3.org/2000/svg">
 <g dominant-baseline="central" fill="#fff" aria-label="東京都２３区">
  <path d="m253.2 183.15q2.4219 2.1582 6.5234 3.4863l-1.2598 1.8359q-2.3633-0.83984-4.1211-2.0312-1.8164-1.2402-3.3496-3.0469v6.1035h-2.1191v-5.9961q-1.3574 1.9043-3.5059 3.418-1.6504 1.1621-3.5352 1.875l-1.3379-1.7188q3.0957-1.0254 5.166-2.7637 0.58594-0.48829 1.1914-1.1621h-4.6973v-7.998h6.7188v-1.3184h-8.0957v-1.7578h8.0957v-1.582h2.1191v1.582h8.2227v1.7578h-8.2227v1.3184h6.8457v7.998zm-4.3262-6.3574h-4.5996v1.582h4.5996zm2.1191 0v1.582h4.7266v-1.582zm-2.1191 3.1055h-4.5996v1.6113h4.5996zm2.1191 0v1.6113h4.7266v-1.6113z" dominant-baseline="central"/>
  <path d="m271.02 172.46h8.0566v1.8555h-18.154v-1.8555h7.9394v-1.9629h2.1582zm6.0254 3.4961v6.377h-5.7617v5.4883q0 0.83984-0.3711 1.2207-0.43945 0.45898-1.748 0.45898-1.4062 0-2.8027-0.14648l-0.43945-2.002q1.3476 0.20507 2.7051 0.20507 0.38086 0 0.45898-0.18554 0.0391-0.0879 0.0391-0.25391v-4.7852h-6.1621v-6.377zm-11.846 1.7578v2.8613h9.6094v-2.8613zm12.344 10.967q-1.7578-2.5781-3.8965-4.668l1.5723-1.2402q2.0898 1.875 4.043 4.4043zm-17.08-1.3867q2.4316-1.6894 3.8184-4.2578l1.9043 0.99609q-1.416 2.793-4.1797 4.8828z" dominant-baseline="central"/>
  <path d="m287.19 176.3q1.6113-2.041 2.7734-4.6973l1.7188 0.87891q-1.2598 2.2949-2.334 3.8184h2.0508v1.7578h-3.8281q-0.0488 0.0488-0.0977 0.11719-0.48828 0.625-1.6309 1.7285h4.4629v9.3359h-1.9043v-0.74219h-3.8965v1.0059h-1.9629v-6.8652q-0.67383 0.46875-1.3867 0.9082l-0.97656-1.6797q1.0352-0.53711 2.2168-1.4062 1.7188-1.2695 2.7832-2.4023h-4.6777v-1.7578h3.8965v-1.9434h-2.8027v-1.7188h2.8027v-2.1387h1.9434v2.1387h2.1387v1.7188h-2.1387v1.9434zm-2.6856 5.1855v1.8555h3.8965v-1.8555zm0 3.4375v1.9531h3.8965v-1.9531zm12.373-6.7285q2.4316 2.9004 2.4316 5.7422 0 1.4648-0.57617 2.168-0.54688 0.67382-1.8066 0.67382-1.0352 0-2.1094-0.13672l-0.43945-2.041q1.123 0.22461 1.9238 0.22461 0.5957 0 0.75195-0.25391 0.14649-0.22461 0.14649-0.81054 0-1.9531-1.3965-4.0527-0.39062-0.5957-1.0254-1.2891 1.0352-2.2363 1.6992-5.0391h-2.4805v16.123h-2.002v-18.066h5.7422l1.1328 0.98632q-0.89844 3.3789-1.9922 5.7715z" dominant-baseline="central"/>
  <path d="m301.74 188.1v-2.207q0.92774-2.8809 5.0586-5.6348l0.53711-0.36133q1.7774-1.1816 2.4414-1.9336 0.74219-0.83984 0.74219-1.8164 0-0.87891-0.53711-1.5234-0.80078-0.9668-2.3926-0.9668-2.373 0-4.2676 1.9824l-1.6797-1.543q0.66407-0.81055 1.582-1.3672 1.9629-1.1914 4.375-1.1914 1.875 0 3.252 0.71289 1.1914 0.625 1.8359 1.6992 0.5957 1.0156 0.5957 2.1973 0 1.5527-1.1816 2.8711-0.79102 0.88867-2.959 2.3633l-0.625 0.41992q-2.2949 1.5527-3.0273 2.3047-0.89844 0.91797-1.1914 1.6504h9.1406v2.3438z" dominant-baseline="central"/>
  <path d="m319.89 178.55h1.3574q1.7188 0 2.7637-0.61524 1.2793-0.75195 1.2793-2.0605 0-1.084-0.9375-1.7188-0.83008-0.55664-2.0703-0.55664-2.2461 0-4.3164 1.7188l-1.416-1.748q2.5098-2.0117 5.9082-2.0117 2.2754 0 3.7402 0.9375 1.7676 1.1426 1.7676 3.2324 0 1.6016-1.2207 2.7441-0.94727 0.87891-2.5 1.1035v0.0781q2.0117 0.33203 3.0762 1.3281 1.1035 1.0352 1.1035 2.7637 0 2.5195-2.041 3.7695-1.5332 0.9375-4.0234 0.9375-3.9258 0-6.3672-2.4023l1.4746-1.7578q0.78125 0.83008 2.0117 1.3672 1.4941 0.6543 2.9004 0.6543 1.582 0 2.4707-0.66406 0.85937-0.63477 0.85937-1.9434 0-1.7969-1.7285-2.5488-1.1621-0.50781-2.793-0.50781h-1.2988z" dominant-baseline="central"/>
  <path d="m334.35 173.54v12.568h15v2.0215h-15v1.3672h-2.2363v-17.9h16.719v1.9434zm5.8887 6.4258q-2.0312-1.6602-4.668-3.3887l1.3672-1.5234q2.4512 1.5527 4.6777 3.2812 1.3965-1.8555 2.5976-4.2773l2.0215 0.97656q-1.416 2.7539-2.9102 4.6777 1.8164 1.4941 4.1113 3.6621l-1.582 1.6602q-2.168-2.1387-3.9356-3.6621-0.65429 0.67383-1.0156 1.0156-1.9336 1.7871-4.5508 3.1836l-1.3379-1.7188q1.1523-0.60547 1.8848-1.084 1.6504-1.084 3.3398-2.8027z" dominant-baseline="central"/>
 </g>
</svg>
