<svg version="1.1" xmlns="http://www.w3.org/2000/svg" xmlns:xlink="http://www.w3.org/1999/xlink" width="840.549" height="501.83" viewBox="0,0,840.549,501.83"><g transform="translate(178.619,67.05)"><g data-paper-data="{&quot;isPaintingLayer&quot;:true}" fill="none" fill-rule="nonzero" stroke-opacity="0.9" stroke="#dce3ff" stroke-width="1.5" stroke-linecap="round" stroke-linejoin="round" stroke-miterlimit="10" stroke-dasharray="" stroke-dashoffset="0" style="mix-blend-mode: normal"><g><path d="M373.35,102l0.394,1.89l-1.53,0.26l-1.912,-0.22l-1.05,-0.57l-0.687,-1.12l-0.824,-0.08l0.174,-1.37l1.238,0.41l0.372,-1.38l0.606,-0.68l1.073,-0.25l0.846,0.26l1.465,2.04l-0.165,0.81"/><path d="M398.12,58.9l-1.412,0.89l-0.987,0.21l-1.437,2.08l-1.455,1.69l-1.224,1.73l-1.25,0.37l-1.666,1.95l-1.443,0.88l-2.435,0.78l-1.794,-0.28l-1.873,-1.82l-1.143,-2.77l0.356,-2.01l0.594,-1.24l2.931,0.71l1.834,-0.62l1.385,0.19l2.207,-1.08l0.811,0.48l1.371,-0.5l2.001,-1.6l0.603,0.03l1.774,-0.77l0.553,-0.77l0.978,-0.45l1.721,0.23l0.25,0.46l-1.25,1.23"/><path d="M422.93,6.3l2.022,-0.34l-0.073,0.74l0.71,1.55l-1.068,0.17l-0.923,0.94l1.565,0.86l-0.177,1.99l-0.346,1.57l0.438,0.87l1.035,0.43l0.487,0.89l1.187,0.24l1.165,1.03l0.533,1.38l0.789,0.52l0.998,0.12l0.495,0.79l-0.1,1.27l-0.445,1.18l-0.624,0.57l-0.685,1.93l0.251,0.69l-1.375,0.83l-0.894,1.55l-0.137,1.44l-0.972,1.51l-0.572,0.3l-1.641,-0.28l-1.314,0.84l-1.64,0.29l-1.041,-0.57l-0.528,-0.93l-0.072,-1.59l-0.324,-0.9l-1.827,-1.36l-0.48,0.04l-1.247,-1.61l1.872,-1.56l0.125,-1.64l0.519,-1.69l-0.928,-0.72l-0.146,-1.31l-0.555,-0.37l-0.255,-2.3l0.018,-1.42l-0.84,-0.78l0.487,-1.47l0.795,-1.47l0.125,-1l-0.489,-0.42l0.05,-1.34l0.814,-1.57l0.975,-0.33l2.092,0.58l0.893,-0.36l1.278,0.22"/><path d="M452.78,-10.6l0.654,1.03l1.139,-0.69l0.405,1.19l-0.035,0.98l-1.213,1.38l-0.395,-1.02l-2.758,-1.26l-1.42,0.27l-0.598,-1.29l0.628,-1.27l0.209,-1.08l1.202,1.19l0.982,1.53l1.2,-0.96"/><path d="M444.54,-11l0.471,0.6l-0.524,0.78l0.068,1.02l-1.782,0.85l-0.374,-1.06l0.526,-1.45l0.131,-1.28l1.563,-2.32l0.637,-0.11l-0.274,0.75l0.227,1.54l-0.669,0.68"/><path d="M449.33,-25.8l-0.131,1.01l1.504,0.98l1.839,0.41l1.01,-0.82l-0.186,-1.51l0.9,0.19l0.875,0.76l0.351,1.45l-2.425,-0.23l-0.017,1.23l-0.829,0.54l0.373,1.09l2.128,-0.87l0.376,0.61l0.028,1.72l0.747,-0.02l0.366,-0.82l0.829,1.59l1.626,-0.77l1.065,1.03l2.359,-0.87l1.072,1.51l-1.027,1.77l-0.136,0.97l-2.464,0.62l0.527,-1.85l-0.028,-1.08l-1.673,1.14l-1.234,-0.44l-0.675,0.8l0.336,0.89l-0.457,1.46l-1.476,-0.82l-0.748,-0.94l0.389,-0.55l-0.372,-0.86l-0.266,-1.82l-1.813,0.76l-1.175,1.24l-0.879,0.12l0.425,-1.21l-0.327,-1.35l-0.544,-0.21l-0.017,-2.5l0.437,-0.49l-1.003,-0.86l-1.076,0.15l-0.369,-1.09l-0.714,-0.23l-0.317,-1.92l-0.691,-0.51l-0.253,-1.07h1.432l0.595,-1.02l1.347,-0.52l0.283,0.99l-0.706,1.03l0.809,1.19"/><path d="M448.74,-38.2l-2.897,-1.72l0.592,-0.95l2.811,0.84l0.821,1.5l-1.327,0.33"/><path d="M498.4,-60.3l1.322,0.73l0.333,1.89l-0.688,0.84l0.528,0.88l-1.001,2.03l-0.687,0.08l-0.795,0.8l-2.096,0.32l-0.733,1.33l-1.16,0.06l-0.241,-0.44l-2.093,-0.56l-1.916,0.93l-0.37,1.21l-1.347,1.47l-0.145,1l-0.77,0.14l-0.891,1.26l-1.41,2.45l-2.565,0.26l-0.403,0.73l1.213,1.35l-0.717,0.65l-1.176,0.14l-0.707,0.51l-1.888,0.28l-1.37,1l-1.238,-0.62l-1.209,-0.27l-0.73,2.28l0.545,1.04l-1.108,0.77l-0.572,1.18l-0.95,0.29l-2.591,-0.24l0.99,0.9l0.626,-0.06l2.011,1.53l0.874,-0.32l1.887,1.26l-0.218,1.03l-1.36,0.45l-0.233,0.99l-3.251,1.09l-1.475,-0.42l0.111,2.59l-0.565,1.66l-1.825,-0.98l-1.533,-0.07l-1.738,-0.98l-1.376,0.79l1.769,1.21l1.459,1.81l0.246,1.22l0.658,0.44l-0.149,1.65l-1.487,-1l-0.162,-1.68l-1.199,0.43l-2.223,-0.49l-1.02,-0.87l-2.447,-1.17l0.53,-0.87l-0.733,-3.23l-0.746,-0.11l-0.809,1l-1.074,-0.15l0.132,-1.16l0.834,-0.7l0.004,-0.89l0.73,-0.11l1.512,-1.28l-1.496,-0.2l-0.671,0.6l-0.726,-1.82l-1.324,-0.02l0.11,1.46l-0.852,1.7l-0.378,-1.4l-2.006,-0.62l-1.651,0.41l-1.07,-1.04l-0.887,0.68l-0.824,-0.25l-0.419,-1.74l-1.026,-0.43l-1.08,0.71l-0.195,-1.03l-0.7,-0.2l-0.159,-1.11l2.424,0.15l0.196,-0.75l1.069,-0.74l0.728,0.75l1.348,0.05l0.271,0.7l0.99,0.38l0.295,-1.53l1.234,-0.84l1.613,0.73l1.174,0.2l0.953,-0.23l0.913,0.69l0.461,-1.7l1.82,-0.2l-0.313,-0.75l-3.028,0.28l-0.308,1.08l-0.9,-0.26l-1.154,-1.14l-0.399,0.31l-2.299,-2.31l1.573,-0.86l0.665,0.21l1.057,-0.53l2.207,-1.53l2.592,-0.1l1.152,-0.31l0.848,-0.65l-0.228,-0.74l0.535,-0.63l0.985,-0.25l0.272,-0.89l0.996,-1.21l0.637,-0.09l0.702,0.98l1.403,0.69l2.116,-2.17l0.819,0.63l0.393,1.43l0.578,-0.48l0.085,-1.54l-0.699,-0.79l2.927,-0.91l0.745,0.78l1.379,-0.09l0.644,-3.3l1.17,-0.04l-0.022,1.09l1.058,0.21l0.745,-0.72l1.089,0.4l-0.156,2.41l0.454,-0.12l0.787,-1.85l1.023,-0.52l-0.694,-0.83l0.801,-1.72l-0.256,-1.03l0.5,-1.1l1.425,-0.58l0.626,-1.19l1.193,0.56l2.77,-1.43l0.68,0.13l0.682,-0.91l2.039,-0.29l0.599,1.11l-0.653,0.24l-1.006,1.62l0.149,1.79l-0.998,-0.01l0.05,0.79l-0.736,1.71l1.235,-0.17l0.107,-1.88l1.659,-0.84l-0.444,-0.83l0.979,-0.34l0.415,1.58l-0.869,0.67l-0.017,1.3l0.88,0.42l1.063,-0.25l0.335,-0.77l1.586,-0.97l-1.062,-1.89l0.372,-0.94l0.605,-0.29l0.26,1.49l1.279,-1.3l-0.174,-1.16l-1.512,-1.53l-0.1,-0.83l-0.942,-0.97l1.115,-0.31l1.96,-3.02l1.312,-0.39l0.363,2.25l-0.341,0.84l0.8,2.13l0.576,0.78"/><path d="M530.3,-45.7l-0.53,1.23l-1.48,0.69l-0.334,1.43l-0.686,0.67l-1.489,2.87l-0.482,0.47l-1.898,0.92l-1.025,0.15l-0.601,-0.41l-0.763,-1.61l-1.038,0.19l-0.449,-0.68l-0.207,-1.74l0.992,-1.36l2.63,-0.51l1.817,-1.43l0.677,-0.2l1.432,-1.5l0.544,-0.9l0.86,-0.5l0.6,-0.86l1.04,-0.32l1.47,1.18l0.14,0.74l-0.51,1.1l-0.71,0.38"/><path d="M293.96,201.4l-0.978,-0.15l0.437,-0.94l0.585,0.06l0.466,0.29l0.289,0.5l-0.799,0.24"/><path d="M318.93,199.5l-2.169,1.73l0.116,-0.95l2.068,-1.05l-0.015,0.27"/><path d="M257.46,198.4l-0.823,0.33l-0.384,-0.78l0.656,-0.51l0.551,0.96"/><path d="M264.93,197.2l-0.881,0.73l-0.075,0.89l0.358,2.06l-1.851,0.28l0.35,-1.44l-0.664,-0.45l-0.235,-1.25l0.554,-0.89l0.343,-2.26l0.639,-0.65l0.253,-1.12l0.943,0.47l0.551,0.77l0.177,1.47l-0.462,1.39"/><path d="M255.05,195.3l1.041,-0.56l1.246,1.91l-1.432,0.58l-0.283,-0.66l-0.851,-0.18l0.279,-1.09"/><path d="M273.28,193.3l0.241,0.73l-0.827,1.67l-0.652,-0.09l0.684,-1.64l0.554,-0.67"/><path d="M260.17,192.5l-0.161,-0.92l-0.914,0.29l0.328,1.11l-1.087,0.85l-1.19,-0.82l-0.086,-0.72l0.559,-0.95l0.603,0.48l0.784,-1.58l0.1,0.49l1.528,0.34l0.618,0.49l-1.082,0.94"/><path d="M311.96,181.8l0.353,-0.77l1.861,-1.02l0.66,0.84l0.157,0.68l-0.364,0.29l-1.28,0.31l-1.387,-0.33"/><path d="M210.39,179.7l-0.974,0.79l-0.876,1.72l-0.144,1.85l0.619,0.53l0.339,1h-1.369l-0.631,-0.69l-1.292,-0.57l-0.448,-1.06l-0.793,-0.85l0.181,-0.49l-0.66,-0.9l-1.726,-1.27l-2.078,-0.33l-0.807,-0.5l-0.791,-1.58l0.78,-0.8l1.013,0.01l1.287,-0.43l1.869,-1.21l1.723,-0.24l1.022,0.62l1.162,1.92l0.674,-0.21l0.77,1.34l1.15,1.35"/><path d="M242.65,179.1l-0.95,-1.56l0.981,-1.81l-0.051,1.15l0.342,0.97l1.029,0.48l-1.351,0.77"/><path d="M248.81,154.1l0.844,-1.86l1.472,-1.06l0.879,0.23l0.813,1.53l-0.669,1l-0.685,-0.28l-2.654,0.44"/><path d="M314.66,145.4l0.787,0.56l-0.368,0.92l-1.142,0.23l-0.451,-1.08l1.174,-0.63"/><path d="M306.63,139.1l-2.553,0.16l-0.9,-0.6l-0.288,-0.93l0.575,-1.47l0.574,-0.27l1.592,0.42l1.844,-0.05l1.313,-0.52l2.112,1.69l-0.036,1.57l-1.772,0.35l-2.461,-0.35"/><path d="M321.85,190.1l-0.096,-1.04l0.705,0.01l0.369,0.48l-0.165,1.1l-0.619,0.71l-0.694,-0.64l0.5,-0.62"/><path d="M323.28,183.3l-0.015,-1.64l1.474,0.71l-1.459,0.93"/><path d="M322.87,180.4l-0.252,-1.18l1.946,-1.62l0.435,1.13l0.428,0.54l-1.488,1.32l-1.069,-0.19"/><path d="M325.37,176.4l1.01,-0.39l0.42,-0.57l0.69,2.27l-1.396,1.03l-1.029,0.02l-0.115,-1.35l0.42,-1.01"/><path d="M327.99,173.6l0.339,0.33l-0.531,1.77l-0.512,-0.15l-0.31,-1.1l1.014,-0.85"/><path d="M356.98,123.8l1.391,0.06l0.1,1.67l1.603,2.1l-0.287,0.7l0.365,1.04l-0.448,0.39l0.911,1.2l-0.378,1.36l-0.114,1.5l0.577,0.85l-0.701,0.37l-0.285,1.29l-1.096,0.52l-0.675,1.91l-0.827,0.48l0.291,0.74l-1.412,1.13l-0.049,1.58l-0.537,0.78l-0.909,0.31l-0.124,0.99l-0.742,0.06l-1.167,2.34l-0.607,0.64l-2.563,0.64l-3.089,0.25l-2.26,-0.76l-1.066,0.15l-0.32,0.7l0.769,1.12l0.164,0.87l-0.334,0.86l-2.792,-0.56l0.5,1.12l0.803,0.64l0.79,1.66l-0.657,0.64l0.174,1.18l-1.372,0.07l-1.52,0.47l-2,1.65l-1.405,-1.13l-1.255,-0.59l-1.312,0.48l-0.963,-0.46l-0.574,0.37l0.838,1.21l0.891,1.9l-1.375,-0.05l-1.358,1.15l-1.357,-0.29l-1.489,0.4l-0.566,0.59l0.959,1.2l-0.049,1.16l-0.961,0.9l-2.35,0.77l-1.377,-0.64l-0.721,1.31l-0.359,1.7l0.146,0.53l-2.038,0.36l-0.762,-0.9l-1.993,-0.39l-1.135,-0.75l-1.071,0.26l-0.515,-0.29l-1.914,1.02l-0.394,1.47l-0.584,0.92l-0.925,-0.55l-0.443,1.02l1.744,1.86l2.711,2.01l0.998,1.31l-0.576,0.23l-0.255,1.37l1.509,2.36l1.771,1.13l0.979,0.98l0.807,2.22l-0.226,0.8l-2.211,-1.07l-2.782,-2.98l-0.248,-0.54l-0.629,-0.94l-0.625,0.18l-1.655,1.13l-0.513,0.76l1.28,1.29l-1.823,0.13l-0.194,1.11l-1.11,-0.21l-0.574,1.26l0.548,0.59l0.023,1.25l-0.676,0.24l-1.145,1.08l-0.847,1.89l-0.217,2.51l-2.167,2.37l0.487,1.33l0.756,0.62l-0.03,1.65l1.27,0.14l0.451,-1.6l2.594,-0.68l0.034,1.06l0.984,0.65l-0.137,1.22l-1.788,1.12l-1.899,2.27l-0.799,0.26l-0.956,-0.27l-1.951,1.7l-0.866,0.17l-1.287,2.11l-0.872,0.93l-1.217,0.38l-0.649,-0.28l-2.03,0.95l-0.627,0.73l-2.381,-1.05l0.24,-2.02l0.55,-1.34l0.025,-1.05l-0.452,-1.43l-0.67,0.17l-0.552,-1.11l2.11,-0.77l-0.314,-0.57l-0.175,-0.18l-0.228,-0.12l-0.152,-0.22l-0.115,0.06l-0.512,-0.06l-0.989,-1.8l-0.055,-1.18l-0.716,-1.11l1.239,-2.01l0.87,0.36l0.752,-0.9l1.594,-0.56l-1.397,-0.64l0.221,-1.13l0.551,-0.44l0.812,0.36l0.074,-1.41l0.723,0.07l1.572,-2l1.298,-0.17l0.387,0.35l0.936,-1.19l0.791,-0.15l0.976,-0.72l0.959,-2.22l-1.397,-1.43l-0.335,-0.92l0.447,-0.98l-0.586,-1.18l-0.341,-1.4l-2.145,-4.36l-0.303,-1.05l0.098,-3.3l1.051,0.09l1.13,1.97l0.766,-0.18l2.975,-2.05l1.337,0.85l1.466,-0.61l-0.079,-1.09l2.041,-1.97l0.983,-0.41l0.438,-0.91l0.931,-0.13l-0.464,-1.67l0.364,-0.92l1.174,0.41l1.111,-1.15l2.271,0.68l0.275,-0.89l1.389,-0.58l1.301,-0.03l0.208,-1.2l0.583,0.06l0.738,-1.19l0.735,0.31l2.602,-1.79l0.825,-0.8l0.744,-1.76l-0.041,-1.14l-1.798,-0.66l-2.144,-1.34l-0.987,-0.14l-1.298,-0.59l-0.892,0.92l-1.689,-0.61l-0.043,-0.91l-1.421,-2.41l-0.131,-2l1.199,-0.74l-0.192,-1.31l-1.478,-1.36l-0.026,-0.73l0.619,-1.39l0.93,-0.06l1.431,0.57l0.739,-0.37l2.349,-0.06l1.381,-0.58l1.043,0.09l1.304,1.1l3.38,1.06l0.245,0.53l-1.185,0.7l-0.756,2.41l0.124,0.94l0.901,0.42l0.613,1.37l0.839,-0.08l1.099,0.48l1.494,-1.03l0.946,0.25l2.291,-1.12l0.777,-0.02l2.316,-2.17l2.049,0.42l-0.395,-0.97l-1.114,-0.38l-0.991,-0.83l1.981,-2.64l0.825,0.02l1.769,-0.64l1.219,-1.11l0.446,-0.83l-0.526,-1.58l1.63,-0.76l1.021,-0.2l0.748,-1.3l1.579,-0.99l0.444,-0.89l2.156,-2.25l-0.05,-0.87l2.179,-3.9l0.062,-1.26l-0.898,-0.88l0.253,-1.01l1.107,-0.84l0.421,1.01l0.853,0.85l1.066,0.53l0.861,0.87"/><path d="M328.73,145.6l-1.021,-0.54l-0.274,-1.06l0.64,-0.99l1.931,-0.68l0.152,0.99l1.025,1.44l-0.666,0.81l-1.03,-0.65l-0.757,0.68"/><path d="M328.83,139.2l0.833,-0.67l1.106,0.47l-0.034,1.15l-0.392,0.53l-1.198,-0.45l-0.315,-1.03"/><path d="M321.89,116.5l-1.746,-0.81l0.066,-1.36l-1.017,-0.62l0.774,-1.25l1.792,-0.88l1.773,1.12l0.182,1.2l-0.696,1.25l0.172,1.16l-1.3,0.19"/><path d="M319.27,107.1l1.146,-0.62l-0.35,1.3l-0.796,-0.68"/><path d="M325.25,102.1l-0.78,0.61l-0.145,1.46l-1.63,0.19l-1.456,0.67l0.065,-0.87l1.264,-1.29l0.556,-1.3l0.869,-0.59l0.993,-1.43l1.742,-1.32l0.836,-1.59l1.283,-0.14l1.224,-0.49l-1.957,2.22l-0.238,1.49l-0.744,1.94l-0.788,0.44h-1.094"/><path d="M350.27,6.8l1.37,2.13l-0.239,0.69l-1.113,-0.77l-0.539,-1.21l0.521,-0.84"/><path d="M653.2,232.6l1.35,0.57l0.81,1.6l-0.59,1.54v0.96l-1.03,1.39l-2.36,0.55l-0.88,-0.3l-1.12,-0.85l0.38,-0.91v-1.87l0.81,-2.47l1.53,-0.25l1.1,0.04"/><path d="M658.6,223.3l1.3,-0.08l1.28,0.58l-0.9,2.14l-1.78,0.39l-1.1,-0.58l-0.92,-1.65l0.08,-1.4l2.04,0.6"/><path d="M0.6,367.6l-1.784,1.36h-1.527l-1.752,-0.57l-0.458,-1.4l0.209,-1.01l0.962,-0.89l1.438,-0.41l1.389,-0.04l1.573,1.17l-0.05,1.79"/><path d="M53.03,360.7l-0.787,-0.23l-0.373,-0.72l0.322,-1.09l1.015,0.46l0.629,0.9l-0.806,0.68"/><path d="M-3.62,355.9l1.124,-0.54l0.608,0.82l0.239,1.02l-1.971,-1.3"/><path d="M56.21,340.9l0.293,1.18l1.348,0.62l0.779,1.85l-0.1,0.78l0.791,1.81l1.922,1.39l-0.079,2.12l0.584,0.82l0.989,0.23l0.507,0.6l1.197,0.11l0.521,-0.37l1.947,1.01l0.177,0.85l1.179,1.03l2.337,0.68l0.73,-0.11l0.755,0.69l0.228,0.91l1.118,1.25l-0.465,1.05l-1.718,-0.45l-0.92,0.26l-1.632,-0.27l-1.44,0.09l-0.908,0.42l-1.081,-0.39l-2.629,1.01l-2.413,0.09l-0.486,0.62l-0.852,0.17l-1.991,-1.3l-1.778,-0.67l-1.036,-0.69l-0.723,-1.94l0.31,-0.87l1.123,1.14l1.618,-0.07l-0.23,-1.52l-1.255,-1.88l-0.975,-0.17l-0.341,-1.16l1.033,-0.51l1.429,-1.57l-0.358,-2.59l1.932,-0.95l-1.764,-3.32l-0.61,-0.56l-0.107,-1.27l-0.906,-1.02l0.814,-0.54l-0.373,-0.94l0.417,0.71l0.103,0.7l0.989,0.94"/><path d="M43.87,347.9l0.193,0.05l0.434,0.57l0.092,0.24l0.235,0.12l0.054,0.27l0.67,0.5l-0.101,0.74l-1.265,0.52l-1.464,-0.44l-0.893,-1.13l-0.289,-2l0.47,-1.07l0.775,1.35l1.013,0.01l0.076,0.27"/><path d="M49.22,346.3l0.831,2.09l0.084,1.22l-0.513,0.78l-1.08,0.3l-2.79,-0.86l-0.138,-0.32l-0.414,-0.25l-0.248,-0.45l-0.327,-0.16l-0.441,-0.77l-0.28,-0.14l-0.078,-0.36l-0.29,-0.35l0.451,-0.3l-0.322,-1.85l0.664,-0.96l1.562,0.42l1.009,0.77l2.32,1.19"/><path d="M52.73,337.8l-1.223,-0.75l-0.374,-0.85l0.858,-0.32l1.221,0.68l0.383,0.81l-0.865,0.43"/><path d="M-91.7,433.7l-0.769,0.33l-3.491,-0.29l-0.736,-0.5l0.115,-1.07l2.245,-0.94l1.044,-0.03l1.993,0.58l0.283,0.86l-0.684,1.06"/><path d="M-78.55,414.8l0.139,1.04l-1.025,0.08l-0.485,-0.69l1.371,-0.43"/><path d="M-91.05,395.2l0.743,0.97l1.254,-0.89l0.298,-0.92l1.186,0.57l0.413,-0.23l1.319,1.06l0.835,-1.07l1.109,0.56l0.123,1.19l2.05,0.33l1.411,0.79l0.541,1.31l1.615,0.1l-0.235,1.76l-0.82,0.55l-0.123,1.17l0.299,0.64l-1.937,0.94l-1.128,2.03l0.439,1.37l-0.272,1.61l-0.98,-0.73l-0.993,0.01l0.323,1.16l-0.366,1.49l-1.803,-0.01l-1.777,-1.24l-1.15,-0.48l-2.76,0.26l-1.594,-0.61l-1.625,-0.12l-1.861,-0.37l-1.428,-1l-0.742,-0.82l-1.013,-0.37l-0.402,2.33l-1.583,-0.1l-0.68,-0.47l-1.616,0.03l-1.858,-2.76l0.895,-0.61l1.125,0.69l0.518,-0.31l-0.704,-1.28l0.314,-0.95l2.546,0.79l-0.58,-1.08l1.117,0.1l1.068,-0.91l0.368,0.77l0.938,0.49l0.182,0.87l0.853,-0.09l0.209,-1.77l-0.55,-0.47l0.885,-1.15l-0.696,-0.67l-0.35,-1l0.995,-0.94l-0.697,-1.3l0.654,-0.29l-0.135,-1.08l0.994,-1.44l1.158,-0.35l-0.029,-0.99l-0.836,-0.41l0.618,-0.72l1.173,-0.05l1.777,1.64l0.138,0.74l1.073,0.48l-0.233,1.25"/><path d="M-99.59,399.6l0.714,-0.42l1.261,0.99l-0.192,0.9l-1.783,-1.47"/><path d="M-99.49,397.3l-0.654,1.65l-0.705,-0.6l0.296,-0.8l1.063,-0.25"/><path d="M-169.96,390.1l-0.894,0.96l-2.885,-0.57l-0.188,0.38l-1.39,0.12l-1.932,-0.74l-0.62,0.04l0.178,-1.55l1.194,-0.44l0.758,-1.16l1.21,0.57l1.433,-0.34l0.905,-0.5l1.468,0.16l2.601,1.18l-0.482,1.1l-1.356,0.79"/><path d="M-124.14,247.1l-1.448,0.75l-0.399,-1.04l1.63,-0.87l1.037,0.26l0.165,0.99l-0.985,-0.09"/><path d="M-76.94,412.4l0.376,0.6l-1.269,1.27l-0.273,-0.98l1.166,-0.89"/><path d="M-69.31,413.8l-1.306,0.96l-1.247,-0.29l-1.016,-1.88l-0.016,-0.66l0.733,-0.73l0.59,0.01l1.2,0.75l0.804,-0.33l0.597,1.34l-0.339,0.83"/><path d="M-63.98,404.7l-0.423,-1.3l0.459,-1.18l0.628,-0.49l0.605,0.4l0.91,1.76l-0.946,0.79l-1.233,0.02"/><path d="M-56.34,402.5l-0.211,0.5l-1.284,0.12l-0.093,-0.54l1.588,-0.08"/><path d="M-71.74,403.2l-0.901,0.37l-1.031,-0.83l-2.033,-0.18l0.619,-1.15l-0.445,-0.9l0.965,-0.38l1.792,0.88l-0.264,0.65l1.276,0.9l0.022,0.64"/><path d="M-37.95,374.6l-0.609,1.79l-1.292,1.3l-0.934,0.41l-0.768,0.99l-0.128,0.94l0.551,0.78l-1.317,1.78l-1.176,0.7l-0.234,1.97l-2.117,1.46l-0.926,1.59l0.054,1.28l0.594,0.5l-0.751,1.77l0.81,1.97l-0.501,1.51l-0.333,4.3l-1.369,1.58l-1.509,-0.48l-0.586,-0.64l-1.229,0.06l-0.197,1.27l-0.847,0.88l-1.12,0.51l-1.14,0.07l-2.03,-1.47l-0.532,-0.68l-1.855,-0.74l-1.414,-1.2l0.484,-0.79l1.071,-0.39l1.021,-0.83l0.386,-0.76l-0.135,-0.93l0.335,-1.42l-0.888,-0.19l-0.154,-0.67l-1.212,-1.42l-0.597,0.33l-1.162,-0.21l-1.519,1.12l-1.784,-0.61l0.23,-1.06l0.835,-1.18l1.408,-0.54l1.596,1.09l0.783,-0.21l-0.176,-1.81l0.777,-0.42l-0.119,-0.89l1.036,-0.15l1.057,1.34l-0.98,1.75l0.535,0.57l1.284,-1.31l2.614,0.63l1.396,-0.98l1.294,-0.03l1.726,0.28l0.318,-0.42l-0.525,-1.03l0.355,-1.48l0.502,-0.91l-0.01,-0.83l0.958,-0.1l1.962,-2.3l0.895,0.58l0.755,1.07l0.494,-1.76l1.392,-3.03l-1.127,-1.16l1.496,-1.23l0.429,-1.17l0.975,-1.54l0.058,-1.75l0.431,-0.17l0.554,0.49l1.609,0.29l-0.116,1.21l0.358,0.73"/></g></g></g></svg>