<svg version="1.1" xmlns="http://www.w3.org/2000/svg" xmlns:xlink="http://www.w3.org/1999/xlink" width="168.1" height="43.534" viewBox="0,0,168.1,43.534"><g transform="translate(-240,-180)"><g data-paper-data="{&quot;isPaintingLayer&quot;:true}" stroke="none" stroke-linecap="butt" stroke-linejoin="miter" stroke-miterlimit="10" stroke-dasharray="" stroke-dashoffset="0" style="mix-blend-mode: normal"><path d="M248,180h152.1c4.432,0 8,3.568 8,8v27.534c0,4.432 -3.568,8 -8,8h-152.1c-4.432,0 -8,-3.568 -8,-8v-27.534c0,-4.432 3.568,-8 8,-8z" fill-opacity="0.7" fill="#000000" fill-rule="evenodd" stroke-width="0"/><g fill="#ffffff" fill-rule="nonzero" stroke-width="1"><path d="M250.3165,192.1061v2.28906h-2.04687v0.40235h-0.77735v-2.69141zM248.26963,192.77797v0.95313h1.26172v-0.95313zM251.02744,187.47719h2.50391v1.90235c0,0.08593 0.01303,0.13932 0.0391,0.16015c0.03387,0.02607 0.09246,0.0391 0.17578,0.0391c0.11459,0 0.18881,-0.01563 0.22266,-0.0469c0.02607,-0.0208 0.0443,-0.08981 0.0547,-0.20703c0.02607,-0.29948 0.0404,-0.53125 0.043,-0.69531l0.73047,0.23047c-0.00267,0.29947 -0.0222,0.58463 -0.0586,0.85546c-0.03907,0.31771 -0.20964,0.50652 -0.51172,0.56641c-0.12761,0.02607 -0.31901,0.0391 -0.57422,0.0391c-0.36198,0 -0.60547,-0.04557 -0.73047,-0.13672c-0.10677,-0.07812 -0.16015,-0.22135 -0.16015,-0.42968v-1.56641h-0.97657v0.082c0,0.52865 -0.05729,0.96615 -0.17187,1.3125c-0.13021,0.38021 -0.35807,0.70182 -0.6836,0.96485l-0.5664,-0.56641c0.32813,-0.22917 0.53125,-0.5599 0.60937,-0.99219c0.03647,-0.20573 0.0547,-0.45703 0.0547,-0.7539zM253.15244,193.07094c0.49739,0.35938 1.07682,0.66667 1.73828,0.92188l-0.46484,0.77734c-0.79427,-0.37239 -1.42188,-0.74739 -1.88281,-1.125c-0.58333,0.48959 -1.16927,0.8724 -1.75782,1.14844l-0.45312,-0.69531c0.57031,-0.19531 1.1263,-0.51563 1.66797,-0.96094c-0.48698,-0.52083 -0.85677,-1.07552 -1.10938,-1.66406h-0.39062v-0.71875h3.5039l0.42188,0.38281c-0.35417,0.76302 -0.77865,1.40755 -1.27344,1.93359zM252.57432,192.59438c0.36458,-0.41406 0.61458,-0.78776 0.75,-1.12109h-1.63282c0.21355,0.38802 0.4935,0.74739 0.83985,1.07812zM247.66025,187.48501h2.48047v0.65625h-2.48047zM247.21103,188.62954h3.28125v0.70312h-3.28125zM247.66025,189.82876h2.48047v0.64843h-2.48047zM247.66025,190.97329h2.48047v0.63281h-2.48047zM259.41807,193.66079c0.4401,0.07291 0.92057,0.10937 1.4414,0.10937h2.02735c-0.13021,0.26042 -0.22657,0.53516 -0.28907,0.82422h-1.74609c-1.05729,0 -1.89193,-0.1263 -2.50391,-0.37891c-0.59375,-0.24479 -1.08333,-0.64843 -1.46875,-1.21093c-0.30729,0.73177 -0.68489,1.33854 -1.13281,1.82031l-0.60547,-0.72656c0.73437,-0.79427 1.19271,-1.82292 1.375,-3.08594l0.88672,0.13672c-0.08333,0.41146 -0.16406,0.75391 -0.24219,1.02734c0.31511,0.5599 0.77995,0.97396 1.39453,1.24219v-3.02344h-2.16796v-0.51953h-0.84766v-1.80859h2.99219v-0.8711h0.87109v0.8711h3.05859v1.80859h-0.84765v0.51953h-2.19531v1.19531h2.67578v0.72657h-2.67578zM256.39463,188.80141v0.85156h5.20312v-0.85156zM263.8751,188.2936h2.10547c0.23177,-0.36979 0.40755,-0.66797 0.52734,-0.89453l0.87109,0.125c-0.07812,0.14063 -0.21614,0.36979 -0.41406,0.6875l-0.0508,0.082h2.75391v0.76953h-3.27344c-0.34115,0.46875 -0.66667,0.875 -0.97656,1.21875c0.49219,-0.29427 0.9414,-0.44141 1.34765,-0.44141c0.63021,0 1.04297,0.31641 1.23828,0.94922c0.66667,-0.22135 1.34636,-0.4401 2.03907,-0.65625l0.33593,0.75782l-0.13672,0.0391l-0.38671,0.10156c-0.72917,0.19792 -1.3125,0.36719 -1.75,0.50781c0.03127,0.33855 0.0534,0.77605 0.0664,1.3125l-0.85547,0.0469c-0.00267,-0.3099 -0.00787,-0.64584 -0.0156,-1.00781v-0.0781c-1.19792,0.40885 -1.79688,0.82031 -1.79688,1.23438c0,0.21354 0.15365,0.35937 0.46094,0.4375c0.29687,0.07552 0.82812,0.11328 1.59375,0.11328c0.70573,0 1.44661,-0.04037 2.22266,-0.1211l0.0937,0.83203c-0.75261,0.05727 -1.53256,0.0859 -2.33985,0.0859c-0.99479,0 -1.70182,-0.07552 -2.12109,-0.22656c-0.51823,-0.1875 -0.77734,-0.52474 -0.77734,-1.01172c0,-0.41146 0.18359,-0.77474 0.55078,-1.08984c0.38021,-0.32552 1.04948,-0.66146 2.00781,-1.00782c-0.05207,-0.20052 -0.12108,-0.34114 -0.20703,-0.42187c-0.09635,-0.09115 -0.22396,-0.13672 -0.38281,-0.13672c-0.25781,0 -0.58203,0.09766 -0.97266,0.29297c-0.48177,0.23958 -0.9987,0.60026 -1.55078,1.08203l-0.51953,-0.59375c0.80989,-0.75261 1.44401,-1.49219 1.90234,-2.21875h-1.58984zM271.46103,188.4186h5.16797l0.83985,0.73437c-0.10157,1.05729 -0.27865,1.88542 -0.53125,2.48438c-0.36979,0.88021 -0.98308,1.5612 -1.83985,2.04297c-0.56771,0.32291 -1.34765,0.60156 -2.33984,0.83594l-0.44922,-0.79297c0.86979,-0.15885 1.5586,-0.36458 2.06641,-0.61719c0.82812,-0.40885 1.41406,-1.03125 1.75781,-1.86719c0.21354,-0.52083 0.33594,-1.1888 0.36719,-2.0039h-5.03907zM277.07041,188.62172c-0.16146,-0.49479 -0.36719,-0.94921 -0.61719,-1.36328l0.625,-0.14453c0.21875,0.30469 0.42579,0.73958 0.6211,1.30469zM278.1876,188.46157c-0.14583,-0.45052 -0.35807,-0.88542 -0.63672,-1.30469l0.58984,-0.14453c0.26823,0.34896 0.48959,0.76172 0.66406,1.23828zM279.90635,187.76235h5.15234v0.80078h-5.15234zM279.34775,189.67641h6.50391c-0.11459,1.13542 -0.35157,2.02344 -0.71094,2.66406c-0.27083,0.48177 -0.60937,0.86589 -1.01562,1.15235c-0.6875,0.48958 -1.6875,0.82552 -3,1.00781l-0.39453,-0.79297c1.15885,-0.11198 2.04557,-0.3776 2.66015,-0.79687c0.79687,-0.53907 1.25391,-1.35027 1.3711,-2.4336h-5.41407zM289.67978,187.36391h0.87891v1.27344h2.76953c-0.02607,1.22917 -0.16669,2.21354 -0.42187,2.95312c-0.28385,0.83594 -0.73828,1.47136 -1.36328,1.90625c-0.59375,0.41407 -1.34896,0.74089 -2.26563,0.98047l-0.4375,-0.73828c0.79167,-0.16667 1.48307,-0.45833 2.07422,-0.875c0.47135,-0.33073 0.82031,-0.77604 1.04687,-1.33594c0.24219,-0.59635 0.3724,-1.29817 0.39063,-2.10546h-4.39453v1.89453h-0.91016v-2.67969h2.63281zM298.90244,187.52407h0.87891v1.65625h1.63281v0.80078h-1.63281c-0.0104,0.87239 -0.0716,1.5638 -0.1836,2.07422c-0.16145,0.72396 -0.45703,1.28906 -0.88672,1.69531c-0.37239,0.35677 -0.85546,0.64453 -1.44921,0.86328l-0.55079,-0.6875c0.92448,-0.32291 1.54037,-0.82291 1.84766,-1.5c0.21615,-0.47656 0.33073,-1.29166 0.34375,-2.44531h-2.29687v2.16016h-0.87891v-2.16016h-1.46484v-0.80078h1.46484v-1.60156h0.87891v1.60156h2.29687zM300.39072,188.68422c-0.11979,-0.48958 -0.29818,-0.96744 -0.53515,-1.43359l0.58203,-0.10937c0.2526,0.43229 0.4388,0.89062 0.55859,1.375zM301.35947,188.56313c-0.17187,-0.58333 -0.35156,-1.05208 -0.53906,-1.40625l0.5625,-0.12109c0.23177,0.3776 0.41797,0.82812 0.55859,1.35156zM306.35166,193.61001c1.52865,-0.38542 2.29297,-1.26172 2.29297,-2.62891c0,-0.59635 -0.15365,-1.10937 -0.46094,-1.53906c-0.34375,-0.48438 -0.86718,-0.79558 -1.57031,-0.9336c-0.15365,1.20833 -0.36328,2.19792 -0.62891,2.96875c-0.18229,0.53907 -0.40886,1.04818 -0.67969,1.52735c-0.39062,0.68229 -0.83463,1.02343 -1.33203,1.02343c-0.36979,0 -0.69921,-0.16667 -0.98828,-0.5c-0.18489,-0.21093 -0.33463,-0.47005 -0.44922,-0.77734c-0.15104,-0.39844 -0.22656,-0.82683 -0.22656,-1.28516c0,-0.74219 0.20443,-1.42578 0.61328,-2.05078c0.41407,-0.63802 0.95183,-1.10156 1.61328,-1.39062c0.48177,-0.21094 1.01042,-0.31641 1.58594,-0.31641c0.89844,0 1.66146,0.24089 2.28906,0.72266c0.77083,0.59115 1.15625,1.42839 1.15625,2.51172c0,1.8151 -0.91797,2.96614 -2.7539,3.45312zM305.76572,188.47719c-0.46093,0.05207 -0.84635,0.17577 -1.15625,0.3711c-0.19791,0.1276 -0.39453,0.29687 -0.58984,0.50781c-0.54167,0.59896 -0.8125,1.29297 -0.8125,2.08203c0,0.57552 0.11458,1.02604 0.34375,1.35156c0.14063,0.20052 0.27995,0.30078 0.41797,0.30078c0.1875,0 0.39844,-0.20703 0.63281,-0.62109c0.57291,-1.00781 0.96093,-2.33854 1.16406,-3.99219zM310.73447,188.07485h6.12891v6.03125h-6.12891zM311.64463,188.90688v4.36719h4.30859v-4.36719zM318.03525,190.4186h6.87891v0.87891h-6.87891zM325.9415,188.94594h2.38282c0.0208,-0.57812 0.0312,-1.09505 0.0312,-1.55078h0.90625c-0.00533,0.59375 -0.01967,1.11068 -0.043,1.55078h2.875c-0.0156,1.84635 -0.09112,3.26172 -0.22657,4.2461c-0.05987,0.44791 -0.18096,0.7552 -0.36328,0.92187c-0.1901,0.17187 -0.51692,0.25781 -0.98047,0.25781c-0.33593,0 -0.6927,-0.02733 -1.07031,-0.082l-0.14453,-0.8789c0.45052,0.08073 0.81901,0.12109 1.10547,0.12109c0.19791,0 0.32682,-0.02993 0.38672,-0.0898c0.06771,-0.06513 0.1237,-0.26826 0.16797,-0.60938c0.1276,-1.01041 0.19531,-2.03906 0.20312,-3.08594h-1.99219c-0.09895,1.07292 -0.32682,1.9323 -0.68359,2.57813c-0.46354,0.83594 -1.16015,1.51823 -2.08984,2.04687l-0.59375,-0.69531c0.58333,-0.32031 1.08073,-0.72266 1.49218,-1.20703c0.3099,-0.36458 0.53907,-0.77734 0.6875,-1.23828c0.14323,-0.43489 0.24089,-0.92969 0.29297,-1.48438h-2.34375zM334.92978,187.80532h0.87891v1.42187c0,1.36198 -0.10156,2.35677 -0.30469,2.98438c-0.26823,0.83073 -0.83073,1.52343 -1.6875,2.07812l-0.59765,-0.69531c0.59375,-0.41667 1.01171,-0.84896 1.2539,-1.29687c0.20313,-0.37761 0.33724,-0.88412 0.40235,-1.51954c0.03647,-0.35937 0.0547,-0.87109 0.0547,-1.53515zM336.92978,187.57876h0.87891v5.55078c0.51823,-0.26823 0.97265,-0.64974 1.36328,-1.14453c0.42709,-0.54167 0.7461,-1.1836 0.95703,-1.92579l0.6875,0.66407c-0.26041,0.77343 -0.61718,1.43359 -1.07031,1.98047c-0.57031,0.6901 -1.31771,1.23307 -2.24219,1.6289l-0.57422,-0.49609zM341.9376,187.99672h4.71093l0.51954,0.45704c-0.44011,1.04167 -0.96485,1.98828 -1.57422,2.83984c0.86458,0.67708 1.6888,1.4401 2.47265,2.28906l-0.64843,0.73438c-0.76823,-0.8724 -1.54948,-1.66146 -2.34375,-2.36719c-0.85417,1.00781 -1.9349,1.80469 -3.24219,2.39062l-0.46875,-0.80859c0.97135,-0.39583 1.77995,-0.88932 2.42578,-1.48047c0.60417,-0.55208 1.15755,-1.23307 1.66016,-2.04297c0.26823,-0.43489 0.47656,-0.83854 0.625,-1.21093h-4.13672zM349.73447,187.4186h0.91016v2.24219c1.55469,0.47917 2.84245,0.96875 3.86328,1.46875l-0.4375,0.84375c-0.97917,-0.4974 -2.12109,-0.97006 -3.42578,-1.41797v3.96875h-0.91016zM355.66025,187.56313h0.91016v5.85547c0.48698,-0.15625 0.92057,-0.33724 1.30078,-0.54297c1.06771,-0.57552 1.95443,-1.30859 2.66016,-2.19922c0.20833,-0.26302 0.40755,-0.5651 0.59765,-0.90625l0.57813,0.81641c-0.54167,0.84115 -1.22526,1.57552 -2.05078,2.20312c-1.00521,0.76302 -2.15105,1.32813 -3.4375,1.69532l-0.5586,-0.54688zM362.35557,190.4186h6.8789v0.87891h-6.8789zM373.07041,189.26626c-0.76823,-0.34375 -1.55208,-0.63152 -2.35156,-0.86329l0.2539,-0.77343c0.90105,0.22395 1.69141,0.49739 2.3711,0.82031zM372.26963,191.26626c-0.64063,-0.28125 -1.42448,-0.56902 -2.35156,-0.86329l0.33593,-0.78125c0.79688,0.21094 1.57032,0.49089 2.32032,0.83985zM370.42197,193.4186c1.00781,-0.08073 1.80729,-0.22526 2.39844,-0.43359c1.52083,-0.53907 2.49219,-1.76172 2.91406,-3.66797l0.80078,0.48047c-0.34635,1.46093 -0.99219,2.54817 -1.9375,3.26171c-0.61979,0.46875 -1.38801,0.80209 -2.30468,1c-0.44011,0.09636 -0.98047,0.17449 -1.6211,0.23438zM375.36728,188.89907c-0.16667,-0.41146 -0.43359,-0.86979 -0.80078,-1.375l0.61719,-0.22266c0.33073,0.44792 0.59635,0.90105 0.79688,1.35938zM376.55088,188.68422c-0.21615,-0.51302 -0.47787,-0.97656 -0.78516,-1.39062l0.57813,-0.1875c0.30989,0.35937 0.57291,0.79948 0.78906,1.32031zM378.13291,194.46157c-0.09896,-0.88542 -0.14844,-1.76563 -0.14844,-2.64063c0,-1.5 0.11068,-2.92448 0.33203,-4.27343l0.85938,0.0898c-0.21094,1.16667 -0.31641,2.48307 -0.31641,3.94922c0,0.98437 0.05469,1.90495 0.16406,2.76172zM380.47666,188.27407h3.75391v0.83203h-3.75391zM384.49619,193.9811c-0.52083,0.08073 -1.13932,0.12109 -1.85547,0.12109c-1.79948,0 -2.69922,-0.52864 -2.69922,-1.58593c0,-0.41927 0.11198,-0.78516 0.33594,-1.09766l0.73828,0.32812c-0.14063,0.19792 -0.21094,0.42058 -0.21094,0.66797c0,0.30469 0.15235,0.51432 0.45704,0.62891c0.33854,0.13021 0.80078,0.19531 1.38671,0.19531c0.63281,0 1.21875,-0.04167 1.75782,-0.125zM390.90244,191.69985c0.52865,0.74219 1.24089,1.36588 2.13672,1.87109l-0.48828,0.72266c-0.82813,-0.55209 -1.49349,-1.22266 -1.9961,-2.01172v2.51563h-0.8164v-2.48438c-0.44531,0.82552 -1.07162,1.52865 -1.87891,2.10938l-0.55078,-0.65625c0.85156,-0.49479 1.54166,-1.1836 2.07031,-2.06641h-1.91797v-0.71094h2.27735v-0.85937h-1.72656v-2.65235h4.30859v2.65235h-1.76563v0.85937h2.36329v0.71094zM388.83603,188.16469v1.27735h2.66797v-1.27735zM387.07432,189.28969v5.50782h-0.84766v-3.87891c-0.15885,0.26041 -0.35156,0.54557 -0.57813,0.85547l-0.39843,-0.8711c0.4375,-0.58854 0.8112,-1.27343 1.12109,-2.05468c0.1875,-0.47657 0.3737,-1.04558 0.55859,-1.70703l0.82422,0.22265c-0.21354,0.74219 -0.4401,1.38411 -0.67968,1.92578zM398.91025,191.56313h2.08203v0.75391h-2.08203v1.69531c0,0.26302 -0.07292,0.45182 -0.21875,0.56641c-0.13021,0.10156 -0.33984,0.15234 -0.6289,0.15234c-0.32813,0 -0.72787,-0.01823 -1.19922,-0.0547l-0.16016,-0.8164c0.5599,0.07031 0.94532,0.10546 1.15625,0.10546c0.08594,0 0.13933,-0.02083 0.16016,-0.0625c0.013,-0.02607 0.0195,-0.06773 0.0195,-0.125v-1.46093h-2.27344v-0.75391h2.27344v-0.44141c0.02867,-0.0182 0.07164,-0.04423 0.12891,-0.0781c0.27864,-0.16406 0.55598,-0.36719 0.83203,-0.60938h-2.5625v-0.71875h3.48047l0.45703,0.42969c-0.44011,0.45573 -0.92839,0.86198 -1.46485,1.21875zM395.71885,188.12563c0.09895,-0.25781 0.19921,-0.58594 0.30078,-0.98437l0.875,0.11328c-0.08854,0.30208 -0.18229,0.59244 -0.28125,0.87109h4.28906v0.75391h-4.60937c-0.28125,0.59895 -0.61719,1.16145 -1.00782,1.6875v4.23047h-0.85547v-3.22266c-0.21875,0.22396 -0.45572,0.44792 -0.71093,0.67187l-0.48828,-0.7539c0.47656,-0.39844 0.86198,-0.76693 1.15625,-1.10547c0.36979,-0.42709 0.70572,-0.92969 1.00781,-1.50781h-1.94922v-0.75391z"/><path d="M247.9649,198.3241h0.92188v4.65625c0,0.98177 0.51562,1.47265 1.54687,1.47265c0.67969,0 1.23698,-0.3138 1.67188,-0.9414c0.28125,-0.40365 0.53385,-1.02865 0.75781,-1.875l0.79297,0.48047c-0.26563,0.9401 -0.58464,1.64322 -0.95703,2.10937c-0.58594,0.72657 -1.34766,1.08985 -2.28516,1.08985c-0.97917,0 -1.66927,-0.30208 -2.07031,-0.90625c-0.25261,-0.37761 -0.37891,-0.86459 -0.37891,-1.46094zM256.13287,205.46863c-0.48177,-0.70313 -1.02604,-1.35417 -1.63281,-1.95313l0.63281,-0.55859c0.63021,0.59896 1.18489,1.23568 1.66406,1.91016zM262.31646,199.72254v-0.70313h-3.16797v-0.70312h7.21485v0.70312h-3.21485v0.70313h2.4961v2.99609h0.91015v0.71875h-0.91015v1.35937c0,0.27865 -0.07813,0.47266 -0.23438,0.58204c-0.125,0.08593 -0.33203,0.1289 -0.62109,0.1289c-0.33073,0 -0.75781,-0.01563 -1.28125,-0.0469l-0.15234,-0.8086c0.50781,0.05727 0.92447,0.0859 1.25,0.0859c0.10156,0 0.16015,-0.02083 0.17578,-0.0625c0.0104,-0.02867 0.0156,-0.07424 0.0156,-0.13672v-1.10156h-4.08203v2.16016h-0.84766v-2.16016h-0.91015v-0.71875h0.91015v-2.99609zM262.31646,200.40222h-1.60156v0.80078h1.60156zM263.14849,200.40222v0.80078h1.64844v-0.80078zM262.31646,201.84363h-1.60156v0.875h1.60156zM263.14849,201.84363v0.875h1.64844v-0.875zM269.83209,202.90613v2.05078c0.52083,-0.18489 0.875,-0.48047 1.0625,-0.88672c0.14583,-0.3125 0.22396,-0.91016 0.23437,-1.79297h0.78516c-0.0078,1.02865 -0.11457,1.74479 -0.32031,2.14844c-0.27865,0.54167 -0.75391,0.95052 -1.42578,1.22656l-0.33594,-0.46093v0.004h-1.86719v0.40235h-0.76953v-2.69141zM267.9649,203.578v0.95313h1.09766v-0.95313zM271.80474,198.71472v-0.71093h0.79297v0.71093h1.90235v0.6875h-1.90235v0.55469h1.67969v0.67188h-4.05469v-0.67188h1.58203v-0.55469h-1.85546v-0.6875zM274.46881,201.16394v1.64063h-0.78516v-0.97657h-2.82812v1.03907h-0.76172v-1.70313zM267.32428,198.28504h2.35937v0.65625h-2.35937zM266.95709,199.42957h3.04687v0.70312h-3.04687zM267.32428,200.62879h2.35937v0.64843h-2.35937zM267.32428,201.77332h2.35937v0.63281h-2.35937zM272.38678,202.2616h0.7539v2.3164c0,0.07292 0.01823,0.11719 0.0547,0.13282c0.05987,0.02607 0.12757,0.0391 0.20312,0.0391c0.17188,0 0.28386,-0.02473 0.33594,-0.0742c0.07031,-0.06247 0.11979,-0.41142 0.14844,-1.04687l0.70703,0.24609c-0.02347,0.69791 -0.09769,1.14062 -0.22266,1.32812c-0.07812,0.11719 -0.20312,0.19662 -0.375,0.23829c-0.14843,0.03387 -0.34635,0.0508 -0.59375,0.0508c-0.42969,0 -0.70703,-0.04427 -0.83203,-0.13282c-0.11979,-0.08593 -0.17968,-0.24479 -0.17968,-0.47656zM275.95318,198.55457h3.05469l0.54687,0.46484c-0.25781,0.90365 -0.47135,1.58333 -0.64062,2.03906c0.64844,0.10938 1.2461,0.28646 1.79297,0.53125c0.03127,-0.33593 0.0469,-0.66536 0.0469,-0.98828c0,-0.17187 -0.0052,-0.3737 -0.0156,-0.60547l0.85547,0.0899c-0.00267,0.74479 -0.03263,1.37109 -0.0899,1.8789c0.32292,0.16667 0.66146,0.36328 1.01563,0.58985l-0.33594,0.83203c-0.25,-0.18229 -0.52083,-0.36328 -0.8125,-0.54297c-0.20052,0.77344 -0.52083,1.375 -0.96094,1.80469c-0.3125,0.30729 -0.73958,0.57812 -1.28125,0.8125l-0.48828,-0.65625c0.63802,-0.27344 1.10937,-0.6224 1.41406,-1.04688c0.23959,-0.33854 0.41667,-0.78125 0.53125,-1.32812c-0.63802,-0.32031 -1.28385,-0.53646 -1.9375,-0.64844c-0.42447,1.16146 -0.85025,2.04167 -1.27734,2.64062c-0.32552,0.45313 -0.69141,0.67969 -1.09766,0.67969c-0.39323,0 -0.69791,-0.1875 -0.91406,-0.5625c-0.16406,-0.28646 -0.24609,-0.62761 -0.24609,-1.02344c0,-0.48958 0.1263,-0.92708 0.3789,-1.3125c0.29948,-0.45833 0.76042,-0.79297 1.38282,-1.0039c0.35937,-0.11979 0.76172,-0.1849 1.20703,-0.19531c0.23958,-0.625 0.42317,-1.1849 0.55078,-1.67969h-2.67969zM277.80084,201.74988c-0.33594,0.0182 -0.6237,0.082 -0.86328,0.19141c-0.375,0.16667 -0.65104,0.42187 -0.82813,0.76562c-0.125,0.24219 -0.1875,0.5 -0.1875,0.77344c0,0.21875 0.04297,0.40885 0.12891,0.57031c0.06507,0.12761 0.14319,0.19141 0.23437,0.19141c0.36459,0 0.8698,-0.83073 1.51563,-2.49219zM288.43756,198.43738v0.50391c0,0.90104 0.21094,1.77864 0.63281,2.63281c0.34896,0.70313 0.82031,1.3138 1.41406,1.83203l-0.55078,0.77734c-0.48177,-0.42708 -0.91797,-0.98697 -1.30859,-1.67968c-0.29688,-0.52344 -0.51172,-1.01042 -0.64453,-1.46094c-0.11979,0.53385 -0.27474,0.97656 -0.46485,1.32812c-0.39323,0.73177 -0.88281,1.32813 -1.46875,1.78907l-0.58594,-0.72266c1.21875,-0.85417 1.91407,-2.26693 2.08594,-4.23828h-1.61328v-0.76172zM285.04303,203.72644c0.22656,0.26302 0.45442,0.44531 0.68359,0.54688c0.42187,0.19271 0.98828,0.28906 1.69922,0.28906h3.20703c-0.11198,0.23698 -0.19922,0.51432 -0.26172,0.83203h-2.9375c-0.90104,0 -1.60156,-0.14193 -2.10156,-0.42578c-0.21354,-0.11979 -0.4375,-0.32162 -0.67188,-0.60547c-0.43489,0.51823 -0.84244,0.92838 -1.22265,1.23047l-0.4961,-0.83984c0.44011,-0.26823 0.85547,-0.57813 1.2461,-0.92969v-1.79297h-1.1836v-0.76953h2.03907zM284.61334,200.21082c-0.35417,-0.48959 -0.79948,-0.99349 -1.33594,-1.51172l0.64844,-0.52735c0.47135,0.38021 0.93489,0.85548 1.39062,1.42579zM291.95318,198.55457h3.05469l0.54687,0.46484c-0.25781,0.90365 -0.47135,1.58333 -0.64062,2.03906c0.64844,0.10938 1.2461,0.28646 1.79297,0.53125c0.03127,-0.33593 0.0469,-0.66536 0.0469,-0.98828c0,-0.17187 -0.0052,-0.3737 -0.0156,-0.60547l0.85547,0.0899c-0.00267,0.74479 -0.03263,1.37109 -0.0899,1.8789c0.32292,0.16667 0.66146,0.36328 1.01563,0.58985l-0.33594,0.83203c-0.25,-0.18229 -0.52083,-0.36328 -0.8125,-0.54297c-0.20052,0.77344 -0.52083,1.375 -0.96094,1.80469c-0.3125,0.30729 -0.73958,0.57812 -1.28125,0.8125l-0.48828,-0.65625c0.63802,-0.27344 1.10937,-0.6224 1.41406,-1.04688c0.23959,-0.33854 0.41667,-0.78125 0.53125,-1.32812c-0.63802,-0.32031 -1.28385,-0.53646 -1.9375,-0.64844c-0.42447,1.16146 -0.85025,2.04167 -1.27734,2.64062c-0.32552,0.45313 -0.69141,0.67969 -1.09766,0.67969c-0.39323,0 -0.69791,-0.1875 -0.91406,-0.5625c-0.16406,-0.28646 -0.24609,-0.62761 -0.24609,-1.02344c0,-0.48958 0.1263,-0.92708 0.3789,-1.3125c0.29948,-0.45833 0.76042,-0.79297 1.38282,-1.0039c0.35937,-0.11979 0.76172,-0.1849 1.20703,-0.19531c0.23958,-0.625 0.42317,-1.1849 0.55078,-1.67969h-2.67969zM293.80084,201.74988c-0.33594,0.0182 -0.6237,0.082 -0.86328,0.19141c-0.375,0.16667 -0.65104,0.42187 -0.82813,0.76562c-0.125,0.24219 -0.1875,0.5 -0.1875,0.77344c0,0.21875 0.04297,0.40885 0.12891,0.57031c0.06507,0.12761 0.14319,0.19141 0.23437,0.19141c0.36459,0 0.8698,-0.83073 1.51563,-2.49219zM299.72662,198.3241h0.92187v4.65625c0,0.98177 0.51563,1.47265 1.54688,1.47265c0.67969,0 1.23698,-0.3138 1.67187,-0.9414c0.28125,-0.40365 0.53386,-1.02865 0.75782,-1.875l0.79297,0.48047c-0.26563,0.9401 -0.58464,1.64322 -0.95704,2.10937c-0.58593,0.72657 -1.34765,1.08985 -2.28515,1.08985c-0.97917,0 -1.66927,-0.30208 -2.07031,-0.90625c-0.25261,-0.37761 -0.37891,-0.86459 -0.37891,-1.46094zM306.17584,198.94519c2.39583,-0.03647 4.66016,-0.09766 6.79297,-0.18359l0.0469,0.77734c-0.9401,0.04687 -1.67187,0.1901 -2.19531,0.42969c-0.5,0.22917 -0.90104,0.54687 -1.20313,0.95312c-0.34375,0.46094 -0.51562,0.97396 -0.51562,1.53907c0,0.5625 0.19531,0.98437 0.58594,1.26562c0.44791,0.32031 1.13541,0.54037 2.0625,0.66016l-0.1836,0.8789c-1.20833,-0.16145 -2.05859,-0.47395 -2.55078,-0.9375c-0.52865,-0.49479 -0.79297,-1.10937 -0.79297,-1.84375c0,-0.66667 0.23958,-1.28906 0.71875,-1.86718c0.34896,-0.42448 0.82683,-0.76563 1.4336,-1.02344c-1.07552,0.03647 -2.46224,0.09766 -4.16016,0.18359zM316.37506,198.15613l0.87109,0.0781l-0.18359,1.10547h2.32812v0.76953h-2.46484l-0.20703,1.23047h2.20703v0.76953h-2.33594c-0.07291,0.46875 -0.10937,0.82553 -0.10937,1.07032c0,0.39583 0.10807,0.6888 0.32421,0.8789c0.28386,0.2474 0.70834,0.3711 1.27344,0.3711c0.59896,0 1.04948,-0.11458 1.35156,-0.34375c0.27865,-0.21094 0.41797,-0.51953 0.41797,-0.92578c0,-0.35938 -0.07812,-0.7474 -0.23437,-1.16407l0.8164,-0.0547c0.21355,0.47135 0.32032,0.88672 0.32032,1.24609c0,0.67448 -0.23698,1.1875 -0.71094,1.53906c-0.48437,0.35677 -1.14583,0.53516 -1.98438,0.53516c-0.86197,0 -1.51562,-0.20443 -1.96093,-0.61328c-0.35417,-0.32552 -0.53125,-0.79167 -0.53125,-1.39844c0,-0.28385 0.03906,-0.66406 0.11718,-1.14063h-1.46484v-0.76953h1.60156l0.21485,-1.23047h-1.71875v-0.76953h1.85547zM324.72271,202.90613v2.28906h-2.04687v0.40235h-0.77735v-2.69141zM322.67584,203.578v0.95313h1.26172v-0.95313zM325.43365,198.27722h2.50391v1.90235c0,0.08593 0.01303,0.13932 0.0391,0.16015c0.03387,0.02607 0.09246,0.0391 0.17578,0.0391c0.11459,0 0.18881,-0.01563 0.22266,-0.0469c0.02607,-0.0208 0.0443,-0.08981 0.0547,-0.20703c0.02607,-0.29948 0.0404,-0.53125 0.043,-0.69531l0.73047,0.23047c-0.00267,0.29947 -0.0222,0.58463 -0.0586,0.85546c-0.03907,0.31771 -0.20964,0.50652 -0.51172,0.56641c-0.12761,0.02607 -0.31901,0.0391 -0.57422,0.0391c-0.36198,0 -0.60547,-0.04557 -0.73047,-0.13672c-0.10677,-0.07812 -0.16015,-0.22135 -0.16015,-0.42968v-1.56641h-0.97657v0.082c0,0.52865 -0.05729,0.96615 -0.17187,1.3125c-0.13021,0.38021 -0.35807,0.70182 -0.6836,0.96485l-0.5664,-0.56641c0.32813,-0.22917 0.53125,-0.5599 0.60937,-0.99219c0.03647,-0.20573 0.0547,-0.45703 0.0547,-0.7539zM327.55865,203.87097c0.49739,0.35938 1.07682,0.66667 1.73828,0.92188l-0.46484,0.77734c-0.79427,-0.37239 -1.42188,-0.74739 -1.88281,-1.125c-0.58333,0.48959 -1.16927,0.8724 -1.75782,1.14844l-0.45312,-0.69531c0.57031,-0.19531 1.1263,-0.51563 1.66797,-0.96094c-0.48698,-0.52083 -0.85677,-1.07552 -1.10938,-1.66406h-0.39062v-0.71875h3.5039l0.42188,0.38281c-0.35417,0.76302 -0.77865,1.40755 -1.27344,1.93359zM326.98053,203.39441c0.36458,-0.41406 0.61458,-0.78776 0.75,-1.12109h-1.63282c0.21355,0.38802 0.4935,0.74739 0.83985,1.07812zM322.06646,198.28504h2.48047v0.65625h-2.48047zM321.61724,199.42957h3.28125v0.70312h-3.28125zM322.06646,200.62879h2.48047v0.64843h-2.48047zM322.06646,201.77332h2.48047v0.63281h-2.48047zM333.82428,204.46082c0.4401,0.07291 0.92057,0.10937 1.4414,0.10937h2.02735c-0.13021,0.26042 -0.22657,0.53516 -0.28907,0.82422h-1.74609c-1.05729,0 -1.89193,-0.1263 -2.50391,-0.37891c-0.59375,-0.24479 -1.08333,-0.64843 -1.46875,-1.21093c-0.30729,0.73177 -0.68489,1.33854 -1.13281,1.82031l-0.60547,-0.72656c0.73437,-0.79427 1.19271,-1.82292 1.375,-3.08594l0.88672,0.13672c-0.08333,0.41146 -0.16406,0.75391 -0.24219,1.02734c0.31511,0.5599 0.77995,0.97396 1.39453,1.24219v-3.02344h-2.16796v-0.51953h-0.84766v-1.80859h2.99219v-0.8711h0.87109v0.8711h3.05859v1.80859h-0.84765v0.51953h-2.19531v1.19531h2.67578v0.72657h-2.67578zM330.80084,199.60144v0.85156h5.20312v-0.85156zM340.94146,199.30066v-1.30469h0.8711v1.30469h3v5.4375c0,0.30729 -0.08333,0.52214 -0.25,0.64453c-0.13542,0.10157 -0.3711,0.15235 -0.70703,0.15235c-0.57553,0 -1.05079,-0.01433 -1.42579,-0.043l-0.16015,-0.83203c0.58333,0.03647 1.07031,0.0547 1.46094,0.0547c0.10417,0 0.16536,-0.02473 0.18359,-0.0742c0.013,-0.03127 0.0195,-0.08074 0.0195,-0.14843v-4.39063h-2.125l-0.004,0.0586c-0.013,0.21093 -0.03903,0.42708 -0.0781,0.64843c0.77344,0.63281 1.46354,1.34636 2.07031,2.14063l-0.66406,0.61719c-0.43229,-0.62761 -0.97526,-1.27995 -1.62891,-1.95704c-0.33593,0.88281 -1.01171,1.61979 -2.02734,2.21094l-0.51563,-0.6875c0.60677,-0.34896 1.05469,-0.72136 1.34375,-1.11719c0.38021,-0.52083 0.58985,-1.15885 0.62891,-1.91406h-2.05078v5.4961h-0.87891v-6.29688zM349.80084,198.73035h3.08984v1.64062h-0.85547v-0.96875h-5.27343v0.96875h-0.84766v-1.64062h3.03125v-0.73438h0.85547zM351.99615,203.07019v2.52735h-0.87891v-0.37891h-3.43359v0.37891h-0.87109v-2.4336c-0.23438,0.11979 -0.50652,0.25 -0.81641,0.39063l-0.45703,-0.71094c1.39844,-0.47656 2.54167,-1.22265 3.42969,-2.23828h0.77734c0.68489,0.64843 1.44401,1.17968 2.27734,1.59375c0.34636,0.16927 0.76563,0.34895 1.25782,0.53906l-0.48828,0.69531c-0.27083,-0.11458 -0.53646,-0.23567 -0.79688,-0.36328zM347.57818,202.73816h3.78906c-0.80208,-0.46354 -1.46744,-0.94791 -1.99609,-1.45312c-0.46354,0.51302 -1.0612,0.99739 -1.79297,1.45312zM351.11724,203.39441h-3.43359v1.14453h3.43359zM345.89849,201.0116c0.77344,-0.29687 1.44792,-0.73177 2.02344,-1.30469l0.64844,0.45703c-0.59896,0.61719 -1.31641,1.11068 -2.15234,1.48047zM352.28912,201.578c-0.64844,-0.52604 -1.3737,-1.00781 -2.17578,-1.44531l0.55859,-0.47265c0.76042,0.35937 1.48959,0.80208 2.1875,1.32812zM353.76959,199.72254h1.72656c0.07813,-0.40105 0.16537,-0.89975 0.26172,-1.4961l0.0195,-0.11328l0.85547,0.12891c-0.08854,0.55208 -0.17969,1.04557 -0.27344,1.48047h0.47266c0.625,0 1.07292,0.14062 1.34375,0.42187c0.24219,0.25261 0.36328,0.64584 0.36328,1.17969c0,0.89843 -0.09505,1.73828 -0.28516,2.51953c-0.10937,0.44271 -0.24218,0.76953 -0.39843,0.98047c-0.19792,0.26302 -0.47266,0.39453 -0.82422,0.39453c-0.42188,0 -0.88282,-0.13542 -1.38282,-0.40625l0.0977,-0.82422c0.49479,0.23698 0.87891,0.35547 1.15234,0.35547c0.14323,0 0.25391,-0.07682 0.33204,-0.23047c0.08333,-0.16667 0.16276,-0.40755 0.23828,-0.72266c0.14843,-0.63802 0.22265,-1.30859 0.22265,-2.01171c0,-0.36979 -0.07422,-0.60938 -0.22265,-0.71875c-0.12761,-0.09115 -0.35547,-0.13672 -0.6836,-0.13672h-0.60156c-0.41406,1.84375 -1.00781,3.41666 -1.78125,4.71875l-0.78516,-0.42969c0.79948,-1.34115 1.36979,-2.77083 1.71094,-4.28906h-1.55859zM360.25787,203.578c-0.29427,-1.08333 -0.75912,-2.14713 -1.39453,-3.1914l0.76172,-0.34375c0.65625,1.04687 1.14713,2.10026 1.47265,3.16015zM359.67974,199.83582c-0.16145,-0.42188 -0.42187,-0.89063 -0.78125,-1.40625l0.60547,-0.22657c0.31511,0.44531 0.57943,0.90755 0.79297,1.38672zM360.73053,199.49988c-0.20313,-0.50261 -0.46224,-0.97526 -0.77735,-1.41797l0.57422,-0.19141c0.29948,0.35677 0.5612,0.80209 0.78516,1.33594zM362.74615,200.92957c-0.33854,-0.47657 -0.71484,-0.91537 -1.12891,-1.31641l0.48047,-0.55859c0.05467,0.05207 0.10805,0.10545 0.16016,0.16015l0.0547,0.0508c0.27604,-0.38802 0.53776,-0.82682 0.78515,-1.3164l0.70313,0.39062c-0.29948,0.47917 -0.64714,0.95443 -1.04297,1.42578c0.21615,0.27083 0.36979,0.46875 0.46094,0.59375c0.40104,-0.48697 0.77343,-0.98827 1.11718,-1.5039l0.61719,0.44531c-0.58593,0.80729 -1.19791,1.53125 -1.83594,2.17188c0.48177,-0.03127 0.83985,-0.0586 1.07422,-0.082c-0.06507,-0.1901 -0.1471,-0.39843 -0.24609,-0.625l0.57422,-0.26562c0.23437,0.46615 0.4401,1.02995 0.61719,1.69141l-0.625,0.32421c-0.04687,-0.20573 -0.09244,-0.38541 -0.13672,-0.53906c-0.11459,0.01827 -0.27605,0.0417 -0.48438,0.0703l-0.10547,0.0156v3.53516h-0.78515v-3.44141l-0.0977,0.0117c-0.39063,0.03907 -0.77735,0.0703 -1.16016,0.0937l-0.15625,-0.72656l0.26172,-0.008c0.11979,-0.00533 0.2461,-0.01053 0.37891,-0.0156c0.15625,-0.16927 0.32942,-0.36328 0.51953,-0.58203zM367.73053,201.73816v0.9375h1.17578v0.66406h-1.17578v0.99219h1.47265v0.72656h-3.10156v0.53907h-0.76172v-4.69141c-0.07031,0.10677 -0.14974,0.21875 -0.23828,0.33594l-0.44922,-0.72657c0.29167,-0.3776 0.53516,-0.819 0.73047,-1.32421c0.12761,-0.33594 0.25261,-0.74219 0.375,-1.21875l0.81641,0.17578c-0.15365,0.5026 -0.30599,0.92968 -0.45704,1.28125h0.94532c0.15885,-0.41146 0.30729,-0.875 0.44531,-1.39063l0.80859,0.20703c-0.16145,0.47657 -0.319,0.8711 -0.47265,1.1836h1.24609v0.71093h-1.35937v0.91797h1.17578v0.67969zM367.00396,200.1405h-0.90234v0.91797h0.90234zM367.00396,201.73816h-0.90234v0.9375h0.90234zM367.00396,203.33972h-0.90234v0.99219h0.90234zM361.61724,204.66785c0.17448,-0.51302 0.29948,-1.1901 0.375,-2.03125l0.71485,0.10156c-0.05467,0.91406 -0.17446,1.67448 -0.35938,2.28125zM364.34771,204.5155c-0.11198,-0.67447 -0.24609,-1.26041 -0.40234,-1.75781l0.63281,-0.21094c0.20833,0.55209 0.36849,1.10157 0.48047,1.64844zM376.03521,201.18738v0.84766h0.98438v0.74218h-0.98438v2.07422c0,0.23177 -0.04557,0.40495 -0.13672,0.51953c-0.11979,0.15105 -0.35156,0.22657 -0.69531,0.22657c-0.36458,0 -0.70573,-0.02213 -1.02344,-0.0664l-0.17968,-0.79297c0.39323,0.05987 0.70833,0.0898 0.94531,0.0898c0.11198,0 0.18359,-0.02343 0.21484,-0.0703c0.02347,-0.03647 0.0352,-0.09376 0.0352,-0.17187v-1.8086h-3.10547v-0.74218h3.10547v-0.84766h-3.12109l0.0664,0.69531c-0.28906,0.14323 -0.52604,0.25261 -0.71094,0.32813v2.64062c0,0.26302 -0.05989,0.44922 -0.17968,0.5586c-0.10677,0.10156 -0.29167,0.15234 -0.55469,0.15234c-0.28906,0 -0.5625,-0.02603 -0.82031,-0.0781l-0.15235,-0.83203c0.28125,0.04687 0.50391,0.0703 0.66797,0.0703c0.08333,0 0.13932,-0.01173 0.16797,-0.0352c0.03127,-0.02867 0.0469,-0.08335 0.0469,-0.16406v-1.98438c-0.29688,0.10677 -0.59376,0.20443 -0.89063,0.29297l-0.21484,-0.78906c0.45052,-0.125 0.81901,-0.23698 1.10547,-0.33594v-1.49219h-0.98438v-0.77734h0.98438v-1.44141h0.82421v1.44141h0.72657v0.77734h-0.72657v1.19141c0.17448,-0.06771 0.36068,-0.14713 0.5586,-0.23828v-0.69922h2.04687v-0.89844h-1.70312v-0.71094h1.70312v-0.86328h0.84766v0.86328h1.83984v0.71094h-1.83984v0.89844h2.34375v0.71875zM373.41803,204.66004c-0.22917,-0.48438 -0.51953,-0.95443 -0.8711,-1.41016l0.71094,-0.40625c0.37239,0.44011 0.68229,0.89584 0.92969,1.36719zM377.87506,199.53894h3.13672c-0.16927,-0.44531 -0.32422,-0.88802 -0.46485,-1.32812l0.85547,-0.0547c0.13542,0.46354 0.29818,0.92448 0.48828,1.38281h2.88672v0.80078h-2.51953c0.33594,0.69531 0.75651,1.42057 1.26172,2.17578l-0.82031,0.39063c-0.55729,-0.84375 -1.01433,-1.69922 -1.3711,-2.56641h-3.45312zM383.55474,205.30066c-0.51823,0.02867 -0.97656,0.043 -1.375,0.043c-1.08333,0 -1.88151,-0.08464 -2.39453,-0.25391c-0.92708,-0.30208 -1.39062,-0.87239 -1.39062,-1.71093c0,-0.51563 0.16016,-0.93099 0.48047,-1.2461l0.73437,0.39844c-0.21354,0.21094 -0.32031,0.48698 -0.32031,0.82812c0,0.4349 0.23437,0.73959 0.70312,0.91407c0.41407,0.15365 1.10678,0.23047 2.07813,0.23047c0.41146,0 0.875,-0.01953 1.39062,-0.0586zM387.23443,198.17175h0.86328v2.20704c0.61979,-0.64323 1.11589,-1.08464 1.48828,-1.32422c0.34636,-0.22396 0.70574,-0.33594 1.07813,-0.33594c0.375,0 0.67708,0.10547 0.90625,0.31641c0.30208,0.28125 0.45312,0.64973 0.45312,1.10546c0,0.11979 -0.01563,0.27865 -0.0469,0.47657c-0.22917,1.45573 -0.34375,2.46354 -0.34375,3.02343c0,0.23959 0.0612,0.35938 0.18359,0.35938c0.07813,0 0.18099,-0.04427 0.3086,-0.13281c0.26823,-0.1849 0.53906,-0.48829 0.8125,-0.91016l0.32031,0.89453c-0.16667,0.26563 -0.3737,0.5013 -0.62109,0.70703c-0.28646,0.23959 -0.59245,0.35938 -0.91797,0.35938c-0.3099,0 -0.55079,-0.10807 -0.72266,-0.32422c-0.14583,-0.18489 -0.21875,-0.49349 -0.21875,-0.92578c0,-0.32813 0.04297,-0.82162 0.12891,-1.48047c0.10937,-0.82813 0.18229,-1.44271 0.21875,-1.84375c0.00533,-0.06513 0.008,-0.11982 0.008,-0.16406c0,-0.22917 -0.04818,-0.40495 -0.14453,-0.52735c-0.09115,-0.11719 -0.21745,-0.17578 -0.37891,-0.17578c-0.54427,0 -1.38151,0.72526 -2.51172,2.17578v3.6875h-0.86328v-2.70312c-0.43489,0.60937 -0.83593,1.18489 -1.20312,1.72656l-0.40625,-0.92578c0.61719,-0.74739 1.15364,-1.45963 1.60937,-2.13672v-0.99219h-1.37109v-0.78515h1.37109zM394.72271,198.42957h4.38282l0.41796,0.64843c-1.35417,0.82813 -2.52734,1.58073 -3.51953,2.25782c0.64063,-0.26823 1.28386,-0.40235 1.92969,-0.40235c0.58073,0 1.0651,0.09245 1.45313,0.27735c0.35937,0.17187 0.63932,0.40625 0.83984,0.70312c0.20833,0.31511 0.3125,0.67709 0.3125,1.08594c0,0.57291 -0.19531,1.05208 -0.58594,1.4375c-0.26823,0.26823 -0.61198,0.47135 -1.03125,0.60937c-0.54948,0.17969 -1.15104,0.26954 -1.80469,0.26954c-0.7526,0 -1.30729,-0.13932 -1.66406,-0.41797c-0.27865,-0.21875 -0.41797,-0.51433 -0.41797,-0.88672c0,-0.28125 0.10156,-0.53125 0.30469,-0.75c0.30729,-0.33073 0.72266,-0.4961 1.24609,-0.4961c0.55469,0 0.99871,0.1862 1.33204,0.5586c0.24219,0.27083 0.41666,0.63411 0.52343,1.08984c0.80209,-0.25521 1.20313,-0.72656 1.20313,-1.41406c0,-0.52083 -0.21745,-0.90495 -0.65235,-1.15234c-0.29167,-0.16667 -0.66146,-0.25 -1.10937,-0.25c-0.66927,0 -1.27344,0.09245 -1.8125,0.27734c-0.39844,0.13541 -0.9336,0.46224 -1.60547,0.98047l-0.55078,-0.66406c0.72396,-0.625 1.54818,-1.25912 2.47266,-1.90235c0.63802,-0.44271 1.20052,-0.80599 1.6875,-1.08984h-3.35157zM397.68365,204.56629c-0.18489,-0.73698 -0.54817,-1.10547 -1.08984,-1.10547c-0.29948,0 -0.51563,0.09505 -0.64844,0.28515c-0.06247,0.08594 -0.0937,0.17839 -0.0937,0.27735c0,0.20573 0.14583,0.36067 0.4375,0.46484c0.21094,0.07292 0.49349,0.10938 0.84766,0.10938c0.15104,0 0.33333,-0.0104 0.54687,-0.0312z"/><path d="M250.5079,208.9717h0.85547v1.51953h2.57422v0.77734h-2.57422v2.09766c0.92708,0.34115 1.85677,0.82552 2.78906,1.45312l-0.47266,0.81641c-0.78906,-0.59115 -1.56119,-1.0625 -2.3164,-1.41406c-0.01827,0.6901 -0.19926,1.17838 -0.54297,1.46484c-0.29427,0.24219 -0.72005,0.36328 -1.27734,0.36328c-0.47657,0 -0.87761,-0.08594 -1.20313,-0.25781c-0.52344,-0.27604 -0.78516,-0.67708 -0.78516,-1.20313c0,-0.54167 0.28125,-0.94531 0.84375,-1.21093c0.375,-0.17709 0.86458,-0.26563 1.46875,-0.26563c0.19011,0 0.40365,0.01433 0.64063,0.043zM250.5079,213.93263c-0.27604,-0.05987 -0.54167,-0.0898 -0.79688,-0.0898c-0.34375,0 -0.6289,0.05339 -0.85546,0.16016c-0.28125,0.1276 -0.42188,0.30598 -0.42188,0.53515c0,0.23437 0.10938,0.42187 0.32813,0.5625c0.19791,0.12761 0.44921,0.19141 0.7539,0.19141c0.46354,0 0.75911,-0.15495 0.88672,-0.46485c0.07031,-0.17187 0.10547,-0.42708 0.10547,-0.76562zM260.01181,210.42873c-0.9375,-0.28646 -2.02865,-0.51823 -3.27344,-0.69532l0.32031,-0.74609c1.30989,0.18489 2.40104,0.42187 3.27344,0.71094zM255.49227,211.48341c1.58073,-0.34635 2.72657,-0.51953 3.4375,-0.51953c0.69792,0 1.23959,0.17057 1.625,0.51172c0.38021,0.33854 0.57032,0.81771 0.57032,1.4375c0,1.1875 -0.42188,2.02865 -1.26563,2.52344c-0.58073,0.34375 -1.47656,0.58593 -2.6875,0.72656l-0.35937,-0.77344c1.10937,-0.1276 1.93359,-0.34114 2.47265,-0.64062c0.60157,-0.33073 0.90235,-0.93359 0.90235,-1.80859c0,-0.39583 -0.08594,-0.6888 -0.25782,-0.87891c-0.19791,-0.21615 -0.52604,-0.32422 -0.98437,-0.32422c-0.55209,0 -1.61719,0.1875 -3.19531,0.5625zM263.17196,216.06154c-0.09896,-0.88542 -0.14844,-1.76563 -0.14844,-2.64063c0,-1.5 0.11068,-2.92448 0.33204,-4.27343l0.85937,0.0898c-0.21094,1.16667 -0.31641,2.48307 -0.31641,3.94922c0,0.98437 0.05469,1.90495 0.16407,2.76172zM265.51571,209.87404h3.75391v0.83203h-3.75391zM269.53524,215.58107c-0.52083,0.08073 -1.13932,0.12109 -1.85547,0.12109c-1.79947,0 -2.69921,-0.52864 -2.69921,-1.58593c0,-0.41927 0.11198,-0.78516 0.33593,-1.09766l0.73828,0.32813c-0.14062,0.19791 -0.21093,0.42057 -0.21093,0.66796c0,0.30469 0.15234,0.51433 0.45703,0.62891c0.33854,0.13021 0.80078,0.19531 1.38672,0.19531c0.63281,0 1.21875,-0.04167 1.75781,-0.125zM271.16806,209.12404h0.92187v4.65625c0,0.98177 0.51563,1.47266 1.54688,1.47266c0.67969,0 1.23698,-0.3138 1.67187,-0.94141c0.28125,-0.40365 0.53386,-1.02865 0.75781,-1.875l0.79297,0.48047c-0.26563,0.9401 -0.58464,1.64322 -0.95703,2.10937c-0.58594,0.72657 -1.34766,1.08985 -2.28516,1.08985c-0.97917,0 -1.66927,-0.30208 -2.07031,-0.90625c-0.2526,-0.37761 -0.3789,-0.86459 -0.3789,-1.46094zM280.80087,208.97951h0.86328v0.98437h2.45703v0.74219h-2.45703v0.92969h2.32031v0.73437h-2.32031v1.20703c0.92708,0.3125 1.84114,0.78255 2.74219,1.41016l-0.46094,0.74219c-0.68229,-0.51042 -1.44271,-0.96094 -2.28125,-1.35156c-0.0208,0.44531 -0.10674,0.79036 -0.25781,1.03515c-0.26302,0.42448 -0.78125,0.63672 -1.55469,0.63672c-0.59635,0 -1.07552,-0.11198 -1.4375,-0.33594c-0.40365,-0.25 -0.60547,-0.58854 -0.60547,-1.01562c0,-0.51042 0.27214,-0.88802 0.81641,-1.13281c0.36458,-0.16146 0.83854,-0.24219 1.42187,-0.24219c0.22917,0 0.48047,0.01823 0.75391,0.0547v-1.00782h-2.76953v-0.73437h2.76953v-0.92969h-2.9375v-0.74219h2.9375zM280.80087,214.10451c-0.3099,-0.06513 -0.60678,-0.0977 -0.89063,-0.0977c-0.34635,0 -0.6276,0.05078 -0.84375,0.15235c-0.25781,0.12239 -0.38672,0.29687 -0.38672,0.52343c0,0.19011 0.10026,0.34375 0.30079,0.46094c0.20312,0.11979 0.47395,0.17969 0.8125,0.17969c0.40104,0 0.67708,-0.10677 0.82812,-0.32031c0.11979,-0.16667 0.17969,-0.41537 0.17969,-0.7461zM289.09384,208.95607h0.8789v1.07813h2.30469v0.7539h-2.30469v1.67188c0.09115,0.32031 0.13672,0.60547 0.13672,0.85547c0,0.92708 -0.20443,1.60807 -0.61328,2.04296c-0.44531,0.47657 -1.11589,0.806 -2.01172,0.98829l-0.44531,-0.66407c0.69531,-0.13281 1.21094,-0.32031 1.54687,-0.5625c0.31511,-0.22917 0.52735,-0.54036 0.63672,-0.93359c-0.27865,0.30469 -0.61068,0.45703 -0.99609,0.45703c-0.43229,0 -0.78255,-0.1224 -1.05078,-0.36719c-0.31511,-0.28906 -0.47266,-0.70833 -0.47266,-1.25781c0,-0.28906 0.06901,-0.56771 0.20703,-0.83594c0.09115,-0.17187 0.20313,-0.3151 0.33594,-0.42968c0.30729,-0.26042 0.67578,-0.39063 1.10547,-0.39063c0.27344,0 0.52084,0.0651 0.74219,0.19531v-0.76953h-3.85547v-0.7539h3.85547zM289.12504,213.01076v-0.14453c0,-0.16667 -0.03906,-0.3138 -0.11719,-0.44141c-0.14583,-0.23958 -0.35677,-0.35937 -0.63281,-0.35937c-0.14063,0 -0.27214,0.03906 -0.39453,0.11718c-0.28646,0.17969 -0.42969,0.45573 -0.42969,0.82813c0,0.23437 0.05208,0.43229 0.15625,0.59375c0.14583,0.22396 0.36068,0.33594 0.64453,0.33594c0.25781,0 0.46224,-0.11589 0.61328,-0.34766c0.10677,-0.16406 0.16016,-0.35807 0.16016,-0.58203zM294.46879,213.54591c0.20833,0 0.40885,0.04948 0.60156,0.14844c0.21354,0.10677 0.38672,0.26172 0.51953,0.46485c0.14583,0.22656 0.21875,0.47135 0.21875,0.73437c0,0.31511 -0.10286,0.59766 -0.30859,0.84766c-0.26823,0.33073 -0.61459,0.49609 -1.03907,0.49609c-0.16406,0 -0.32421,-0.02993 -0.48046,-0.0898c-0.23438,-0.09375 -0.42709,-0.23959 -0.57813,-0.4375c-0.1875,-0.24479 -0.28125,-0.51953 -0.28125,-0.82422c0,-0.1849 0.04036,-0.36589 0.12109,-0.54297c0.17188,-0.38281 0.45964,-0.63151 0.86329,-0.74609c0.11979,-0.03387 0.24088,-0.0508 0.36328,-0.0508zM294.46079,214.1631c-0.17708,0 -0.33593,0.0638 -0.47656,0.19141c-0.16406,0.14323 -0.24609,0.32291 -0.24609,0.53906c0,0.08594 0.01563,0.17058 0.0469,0.25391c0.04947,0.12239 0.12629,0.22526 0.23047,0.30859c0.13542,0.10937 0.28646,0.16406 0.45313,0.16406c0.13021,0 0.2539,-0.03646 0.37109,-0.10937c0.23437,-0.14583 0.35156,-0.35156 0.35156,-0.61719c0,-0.11458 -0.02863,-0.22656 -0.0859,-0.33594c-0.14063,-0.26302 -0.35547,-0.39453 -0.64454,-0.39453z"/></g></g></g></svg>