<svg version="1.1" xmlns="http://www.w3.org/2000/svg" xmlns:xlink="http://www.w3.org/1999/xlink" width="208" height="32" viewBox="0,0,208,32"><g transform="translate(-240,-164)"><g data-paper-data="{&quot;isPaintingLayer&quot;:true}" fill-rule="nonzero" stroke="none" stroke-linecap="butt" stroke-linejoin="miter" stroke-miterlimit="10" stroke-dasharray="" stroke-dashoffset="0" style="mix-blend-mode: normal"><path d="M240,196v-32h208v32z" fill="none" stroke-width="0"/><path d="M251.35,177.52c0.44922,1.52347 1.30209,3.14457 2.5586,4.8633c1.52993,2.09633 3.41143,3.7565 5.6445,4.9805l-1.3965,2.0117c-2.36327,-1.3932 -4.33593,-3.2389 -5.918,-5.5371c-0.85287,-1.25 -1.53647,-2.5228 -2.0508,-3.8184c-0.51432,1.7448 -1.31185,3.3301 -2.3926,4.7559c-1.58853,2.1094 -3.55143,3.6654 -5.8887,4.668l-1.377,-1.7871c2.44793,-1.02213 4.42383,-2.59767 5.9277,-4.7266c1.263,-1.79687 2.0117,-3.60027 2.2461,-5.4102h-7.793v-2.1191h7.8809v-4.707h2.2559v4.707h8.0469v2.1191z" fill="#ffffff" stroke-width="1"/><path d="M270.66,178.52v0.22461c-0.03253,2.513 -0.18878,4.56053 -0.46875,6.1426c-0.27995,1.58853 -0.75845,3.0729 -1.4355,4.4531l-1.7383,-1.3574c0.625,-1.30207 1.05793,-2.80597 1.2988,-4.5117c0.21485,-1.4974 0.32227,-3.29427 0.32227,-5.3906v-6.4941h10.635v1.9238h-8.6133v3.1738h7.2559l0.97657,0.76172c-0.70967,3.138 -1.64717,5.58917 -2.8125,7.3535c0.9896,1.04167 2.2331,1.9694 3.7305,2.7832l-1.1523,1.8164c-1.53647,-0.89847 -2.80927,-1.89457 -3.8184,-2.9883c-0.93747,1.08073 -2.21027,2.1452 -3.8184,3.1934l-1.2402,-1.6211c1.58853,-0.85287 2.86457,-1.89453 3.8281,-3.125c-1.22393,-1.80987 -2.06377,-3.9225 -2.5195,-6.3379zM274.8104,183.1587c0.83333,-1.45833 1.4095,-3.00457 1.7285,-4.6387h-3.6133c0.39063,1.75133 1.01889,3.29757 1.8848,4.6387zM265.8749,177.7681c0.51432,0.59896 0.94402,1.31186 1.2891,2.1387c0.39063,0.93747 0.58594,1.87823 0.58594,2.8223c0,0.8594 -0.13672,1.5072 -0.41016,1.9434c-0.34505,0.54037 -1.00912,0.81055 -1.9922,0.81055c-0.52083,0 -1.05143,-0.03906 -1.5918,-0.11719l-0.38086,-1.9824l0.37109,0.0391c0.59896,0.06507 1.01563,0.0976 1.25,0.0976c0.32552,0 0.5306,-0.06185 0.61524,-0.18554c0.09765,-0.15625 0.14648,-0.48829 0.14648,-0.9961c0,-1.51693 -0.59243,-2.98177 -1.7773,-4.3945l0.10742,-0.29297c0.48177,-1.23047 0.93097,-2.70183 1.3476,-4.4141h-2.2168v16.27h-2.002v-18.125h5.4395l1.0059,0.82032c-0.55339,2.2526 -1.14909,4.10807 -1.7871,5.5664z" fill="#ffffff" stroke-width="1"/><path d="M291.6,172.66h7.4024v1.8359h-15.146v4.2188c0,0.96353 -0.01303,1.80337 -0.0391,2.5195c1.38673,-1.65367 2.53907,-3.8249 3.457,-6.5137l2.0312,0.45898c-0.35156,0.98307 -0.78776,1.97917 -1.3086,2.9883v11.338h-2.0801v-7.9297c-0.4362,0.60547 -0.87567,1.17513 -1.3184,1.709l-0.79101,-1.8066c-0.07162,1.67967 -0.21811,3.11197 -0.43946,4.2969c-0.25391,1.35413 -0.67057,2.59763 -1.25,3.7305l-1.7383,-1.5625c0.53385,-1.21747 0.90169,-2.59767 1.1035,-4.1406c0.18229,-1.41273 0.27343,-3.14777 0.27343,-5.2051v-5.9375h7.627v-2.1582h2.2168zM294.598,177.9823v-2.8809h2.0996v2.8809h2.8027v1.8555h-2.8027v7.7051c0,0.8268 -0.23763,1.36067 -0.71289,1.6016c-0.27344,0.14323 -0.72591,0.21485 -1.3574,0.21485c-1.0156,0 -1.9466,-0.05208 -2.793,-0.15625l-0.41992,-1.9824c1.05467,0.14974 1.91403,0.22461 2.5781,0.22461c0.29297,0 0.47201,-0.04883 0.53711,-0.14649c0.0456,-0.07813 0.0684,-0.2181 0.0684,-0.41992v-7.041h-5.957v-1.8555zM291.8148,185.4823c-0.82033,-1.6016 -1.65367,-2.95577 -2.5,-4.0625l1.6797,-1.0156c1.0612,1.34767 1.89453,2.65953 2.5,3.9356z" fill="#ffffff" stroke-width="1"/></g></g></svg>