<svg version="1.1" xmlns="http://www.w3.org/2000/svg" xmlns:xlink="http://www.w3.org/1999/xlink" width="208" height="32" viewBox="0,0,208,32"><g transform="translate(-240,-164)"><g data-paper-data="{&quot;isPaintingLayer&quot;:true}" fill-rule="nonzero" stroke="none" stroke-linecap="butt" stroke-linejoin="miter" stroke-miterlimit="10" stroke-dasharray="" stroke-dashoffset="0" style="mix-blend-mode: normal"><path d="M240,196v-32h208v32z" fill="none" stroke-width="0"/><path d="M252.63,171.11h2.1973v3.9453h3.916v2.002h-3.916v0.61523c0,3.32033 -0.47527,5.81383 -1.4258,7.4805c-0.918,1.60153 -2.53583,2.82873 -4.8535,3.6816l-1.3672,-1.7383c2.2656,-0.78127 3.78253,-1.9857 4.5508,-3.6133c0.59895,-1.25653 0.89843,-3.1836 0.89843,-5.7812v-0.64453h-5.9277v5.5957h-2.1973v-5.5957h-3.6426v-2.002h3.6426v-3.7988h2.1973v3.7988h5.9277z" fill="#ffffff" stroke-width="1"/><path d="M260.33,186.51c1.1328,-1.66667 2.1061,-3.70767 2.9199,-6.123c0.8854,-2.6432 1.4453,-5.32873 1.6797,-8.0566l2.2363,0.45899c-0.57943,3.9974 -1.35743,7.35673 -2.334,10.078c-0.70313,1.9792 -1.569,3.71423 -2.5976,5.2051zM276.287,188.1702c-1.1784,-1.95967 -2.24937,-4.3197 -3.2129,-7.0801c-0.918,-2.6172 -1.6667,-5.39063 -2.2461,-8.3203l2.0996,-0.6543c1.1198,5.63153 2.88737,10.49153 5.3027,14.58z" fill="#ffffff" stroke-width="1"/><path d="M281.42,171.32h2.2754v10.684h-2.2754zM291.449,171.11492h2.2754v6.9824c0,2.4544 -0.19857,4.28057 -0.5957,5.4785c-0.33203,1.02213 -0.7845,1.83593 -1.3574,2.4414c-1.1914,1.28253 -3.10547,2.2298 -5.7422,2.8418l-1.123,-2.002c2.88413,-0.58594 4.7331,-1.55924 5.5469,-2.9199c0.51432,-0.86587 0.82356,-1.9596 0.92773,-3.2812c0.0456,-0.61198 0.0684,-1.45835 0.0684,-2.5391z" fill="#ffffff" stroke-width="1"/><path d="M304.54,176.36c-2.05727,-0.918 -4.19593,-1.65367 -6.416,-2.207l0.68359,-2.0996c2.5716,0.58594 4.7298,1.31511 6.4746,2.1875zM298.3681,186.0768c3.22267,-0.27344 5.6901,-0.84961 7.4023,-1.7285c2.01827,-1.04167 3.56773,-2.63997 4.6484,-4.7949c0.70313,-1.3932 1.2728,-3.21613 1.709,-5.4688l1.875,1.377c-0.52735,2.40887 -1.16538,4.32293 -1.9141,5.7422c-1.35413,2.58467 -3.42443,4.4564 -6.2109,5.6152c-1.7578,0.7292 -4.10807,1.25003 -7.0508,1.5625z" fill="#ffffff" stroke-width="1"/><path d="M320.52,185.06c0.52083,0.60547 1.10677,1.05471 1.7578,1.3477c1.06773,0.48177 2.46747,0.72266 4.1992,0.72266h8.3203c-0.23437,0.44271 -0.45247,1.07747 -0.6543,1.9043h-7.7637c-2.2396,0 -3.9551,-0.35157 -5.1465,-1.0547c-0.48828,-0.29297 -1.02538,-0.77151 -1.6113,-1.4356c-0.0456,0.05207 -0.10094,0.11717 -0.16602,0.19531c-0.957,1.1328 -1.90753,2.05727 -2.8516,2.7734l-1.1816,-2.002c1.03513,-0.61849 2.03447,-1.31836 2.998,-2.0996v-4.8242h-2.8418v-1.9238h4.9414zM323.0591,172.101l0.51758,-0.0391c3.01433,-0.20833 5.72267,-0.6543 8.125,-1.3379l1.5234,1.7188c-2.52607,0.66406 -5.22137,1.11326 -8.0859,1.3476v2.5293h9.043v1.9043h-3.2812v7.959h-2.1582v-7.959h-3.6035c-0.03253,2.08987 -0.18878,3.75327 -0.46875,4.9902c-0.25391,1.13933 -0.67057,2.16147 -1.25,3.0664l-1.7969,-1.3574c0.64453,-1.0026 1.05793,-2.2461 1.2402,-3.7305c0.13021,-1.02213 0.19531,-2.4121 0.19531,-4.1699zM319.4458,175.9194c-0.99607,-1.40627 -2.0703,-2.66603 -3.2227,-3.7793l1.6016,-1.2793c1.1198,0.93747 2.2461,2.12887 3.3789,3.5742z" fill="#ffffff" stroke-width="1"/><path d="M352.76,175.8c0,0.30599 -0.0293,1.75783 -0.0879,4.3555h1.8652v1.7578h-1.9043c-0.01953,0.85287 -0.06185,1.81967 -0.12695,2.9004h1.6504v1.7188h-1.7774c-0.07813,0.944 -0.18555,1.569 -0.32226,1.875c-0.30599,0.7292 -1.04819,1.0938 -2.2266,1.0938c-0.7552,0 -1.4518,-0.05534 -2.0898,-0.16601l-0.36133,-1.7383c0.918,0.13021 1.62113,0.19531 2.1094,0.19531c0.39713,0 0.63476,-0.13997 0.71289,-0.41992c0.03907,-0.13672 0.07487,-0.41667 0.10742,-0.83985h-6.9531c-0.00667,0.05207 -0.01643,0.10741 -0.0293,0.16602c-0.0586,0.34505 -0.11394,0.67057 -0.16602,0.97656l-2.0215,-0.19531c0.39713,-2.35027 0.66406,-4.1276 0.80078,-5.332l0.0293,-0.23438h-1.9531v-1.7578h2.1582c0.18229,-1.57553 0.33854,-3.02737 0.46875,-4.3555zM346.5881,177.4992h-2.1387c-0.01953,0.33203 -0.07813,1.0319 -0.17578,2.0996l-0.0586,0.55664h2.168l0.0293,-0.27344c0.013,-0.1888 0.03253,-0.45247 0.0586,-0.79101c0.06513,-0.91147 0.1042,-1.44207 0.11719,-1.5918zM348.5119,177.4992c-0.03253,0.77473 -0.08136,1.63087 -0.14648,2.5684v0.0879h2.2949c0.02607,-0.89193 0.04887,-1.77733 0.0684,-2.6562zM346.2267,181.9133h-2.1973c-0.09765,0.79427 -0.20182,1.57877 -0.3125,2.3535l-0.0781,0.54687h2.2852c0.15625,-1.41273 0.25717,-2.37953 0.30274,-2.9004zM348.2287,181.9133c-0.01953,0.26042 -0.0586,0.69012 -0.11719,1.2891l-0.15625,1.6113h2.4902c0.03253,-0.63151 0.05857,-1.10677 0.0781,-1.4258c0.03907,-0.6966 0.0651,-1.18813 0.0781,-1.4746zM344.4006,172.2746h9.4336v1.8164h-10.244c-0.52735,1.0742 -1.19791,2.09633 -2.0117,3.0664l-1.3965,-1.5234c1.28253,-1.50393 2.194,-3.2357 2.7344,-5.1953l2.0801,0.21485c-0.23437,0.67707 -0.43294,1.21743 -0.5957,1.6211zM339.0197,175.1164c-0.8008,-1.10027 -1.7741,-2.13217 -2.9199,-3.0957l1.4746,-1.4258c1.0612,0.78127 2.07033,1.7676 3.0274,2.959zM338.31657,180.2726c-0.9896,-1.26953 -1.98893,-2.334 -2.998,-3.1934l1.5234,-1.4648c1.1328,0.89193 2.15167,1.90757 3.0566,3.0469zM335.66037,187.9386c1.1328,-1.569 2.20703,-3.63607 3.2227,-6.2012l1.7383,1.2402c-0.84633,2.3698 -1.93357,4.54427 -3.2617,6.5234z" fill="#ffffff" stroke-width="1"/></g></g></svg>