<?xml version="1.0" encoding="UTF-8"?>
<svg width="480" height="360" version="1.1" viewBox="0 0 480 360" xmlns="http://www.w3.org/2000/svg">
 <g dominant-baseline="central" fill="#fff" aria-label="種子島南東沖">
  <path d="m243.36 181.58q-0.8496 2.5195-2.0996 4.4141l-1.1816-2.0996q2.0215-2.4121 3.0566-5.9375l0.0586-0.20507h-2.7148v-1.8359h2.8808v-2.627q-1.1328 0.2246-2.1777 0.37109l-0.70312-1.582q3.5156-0.49805 5.918-1.5234l1.0449 1.582q-0.9375 0.36133-2.1387 0.69336v3.0859h2.0215v1.8359h-2.0215v1.4355q1.1328 0.83008 2.4609 2.207l-1.1035 1.8848q-0.625-0.97656-1.2207-1.7383l-0.13672-0.17578v8.1348h-1.9434zm8.8965-5.0488v-1.0742h-4.873v-1.6016h4.873v-1.0059l-0.18555 0.01q-1.582 0.14648-3.6719 0.2539l-0.625-1.5137q5.127-0.2539 9.502-1.084l1.1328 1.5039q-2.0215 0.41993-4.2578 0.64454v1.1914h5.2832v1.6016h-5.2832v1.0742h4.4629v6.9238h-4.4629v1.0742h4.6582v1.5625h-4.6582v1.1426h5.4394v1.6602h-12.871v-1.6602h5.5371v-1.1426h-4.541v-1.5625h4.541v-1.0742h-4.3164v-6.9238zm0.0391 1.377h-2.5195v1.3867h2.5195zm1.8164 0v1.3867h2.6855v-1.3867zm-1.8164 2.7051h-2.5195v1.4453h2.5195zm1.8164 0v1.4453h2.6855v-1.4453z" dominant-baseline="central"/>
  <path d="m271.32 177.19v2.1289h7.9883v1.9629h-7.9883v6.123q0 0.94727-0.45899 1.4062-0.52734 0.52735-1.9922 0.52735-1.6699 0-3.1641-0.13672l-0.51757-2.1387q1.9726 0.21484 3.3105 0.21484 0.41993 0 0.51758-0.14648 0.0879-0.12696 0.0879-0.48829v-5.3613h-8.3984v-1.9629h8.3984v-3.0371l0.14649-0.0781q1.543-0.80078 4.0918-2.7246h-10.537v-1.9434h13.477l1.1035 1.1621q-1.3281 1.1426-3.1152 2.4512-1.8164 1.3281-2.9492 2.041z" dominant-baseline="central"/>
  <path d="m287.74 171.98q0.36133-0.86914 0.58594-1.6602l2.3828 0.32226q-0.3418 0.81055-0.625 1.3379h6.5039v6.3672h-11.797v0.98633h14.697v1.582h-14.697v0.99609h14.014q-0.12695 4.4727-0.5664 6.0352-0.28321 0.99609-1.0645 1.3184-0.55664 0.23437-1.6992 0.23437-1.1719 0-2.1875-0.14648l-0.39063-1.6406h-9.7852v1.084h-2.0996v-4.6973h2.0996v2.0117h3.3594v-2.6367h-3.8379v-11.494zm4.1504 14.131v-2.0117h2.0215v3.3984q0.81054 0.0781 1.3476 0.0781 0.66406 0 0.83008-0.38085 0.32227-0.7129 0.50781-3.7207h-8.0273v2.6367zm-7.0996-12.627v0.96679h9.6387v-0.96679zm0 2.3633v1.0644h9.6387v-1.0644z" dominant-baseline="central"/>
  <path d="m308.92 182.24h-4.043v-1.6016h1.9531q-0.43945-0.9961-0.99609-1.8555l1.7578-0.64453q0.76172 1.2793 1.2305 2.5h2.2949q0.57617-1.1816 1.0156-2.5391l1.9629 0.61524q-0.49805 1.0742-1.0547 1.9238h2.0996v1.6016h-4.1797v1.4258h4.4531v1.6602h-4.4531v3.6914h-2.041v-3.6914h-4.2871v-1.6602h4.2871zm2.0996-6.0156h7.4024v11.416q0 1.0059-0.53711 1.416-0.44922 0.35157-1.5137 0.35157-1.377 0-2.6562-0.14649l-0.47852-1.9629q1.709 0.20508 2.5586 0.20508 0.35156 0 0.41015-0.17578 0.0391-0.10742 0.0391-0.30274v-9.1016h-12.48v11.582h-2.1777v-13.281h7.2754v-1.7676h-8.3594v-1.8164h8.3594v-2.1387h2.1582v2.1387h8.4766v1.8164h-8.4766z" dominant-baseline="central"/>
  <path d="m333.2 183.15q2.4219 2.1582 6.5234 3.4863l-1.2598 1.8359q-2.3633-0.83984-4.1211-2.0312-1.8164-1.2402-3.3496-3.0469v6.1035h-2.1191v-5.9961q-1.3574 1.9043-3.5059 3.418-1.6504 1.1621-3.5352 1.875l-1.3379-1.7188q3.0957-1.0254 5.166-2.7637 0.58594-0.48829 1.1914-1.1621h-4.6973v-7.998h6.7188v-1.3184h-8.0957v-1.7578h8.0957v-1.582h2.1191v1.582h8.2227v1.7578h-8.2227v1.3184h6.8457v7.998zm-4.3262-6.3574h-4.5996v1.582h4.5996zm2.1191 0v1.582h4.7266v-1.582zm-2.1191 3.1055h-4.5996v1.6113h4.5996zm2.1191 0v1.6113h4.7266v-1.6113z" dominant-baseline="central"/>
  <path d="m351.58 174.14v-3.6426h2.0996v3.6426h5.293v8.8379h-5.293v6.5234h-2.0996v-6.5234h-5.1856v-8.8379zm-3.1641 1.9434v4.9707h3.1641v-4.9707zm8.4766 4.9707v-4.9707h-3.2129v4.9707zm-12.5-5.7812q-1.1914-1.6602-3.1543-3.1738l1.4551-1.4844q1.9531 1.377 3.3008 3.0859zm-0.63476 5.0195q-1.6992-1.9727-3.3008-3.2324l1.5039-1.5039q1.709 1.2012 3.3789 3.1055zm-3.0371 7.5684q1.875-2.666 3.457-6.6406l1.7383 1.3379q-1.3379 3.6621-3.2617 6.8945z" dominant-baseline="central"/>
 </g>
</svg>
