<svg version="1.1" xmlns="http://www.w3.org/2000/svg" xmlns:xlink="http://www.w3.org/1999/xlink" width="60" height="30" viewBox="0,0,60,30"><g transform="translate(-210,-165)"><g data-paper-data="{&quot;isPaintingLayer&quot;:true}" stroke="none" stroke-width="1" stroke-linecap="butt" stroke-linejoin="miter" stroke-miterlimit="10" stroke-dasharray="" stroke-dashoffset="0" style="mix-blend-mode: normal"><path d="M220,165h40c5.54,0 10,4.46 10,10v10c0,5.54 -4.46,10 -10,10h-40c-5.54,0 -10,-4.46 -10,-10v-10c0,-5.54 4.46,-10 10,-10z" fill="none" fill-rule="evenodd"/><path d="M220,170h40c2.77,0 5,2.23 5,5v10c0,2.77 -2.23,5 -5,5h-40c-2.77,0 -5,-2.23 -5,-5v-10c0,-2.77 2.23,-5 5,-5z" fill="#31476d" fill-rule="evenodd"/><g fill="#ffffff" fill-rule="nonzero"><path d="M235.668,175.335c0.8952,0 1.69013,0.22559 2.3848,0.67676c0.7376,0.47624 1.27293,1.14764 1.606,2.0142c0.22917,0.5944 0.34375,1.2443 0.34375,1.9497c0,1.1888 -0.31152,2.20213 -0.93457,3.04c-0.43685,0.58366 -0.98828,1.01693 -1.6543,1.2998c-0.54069,0.23275 -1.13153,0.34912 -1.7725,0.34912c-1.4072,0 -2.5226,-0.5192 -3.3462,-1.5576c-0.6696,-0.84507 -1.0044,-1.88883 -1.0044,-3.1313c0,-0.79493 0.14502,-1.52003 0.43506,-2.1753c0.51921,-1.16373 1.37681,-1.92283 2.5728,-2.2773c0.42253,-0.12533 0.87906,-0.18799 1.3696,-0.18799zM235.63577,176.5005c-0.63021,0 -1.18344,0.20231 -1.6597,0.60693c-0.75553,0.64095 -1.1333,1.59879 -1.1333,2.8735c0,0.7448 0.13607,1.3929 0.4082,1.9443c0.2041,0.4082 0.47265,0.74121 0.80566,0.99902c0.45833,0.35449 0.99187,0.53174 1.6006,0.53174c0.8594,0 1.55227,-0.34553 2.0786,-1.0366c0.47624,-0.62663 0.71436,-1.43946 0.71436,-2.4385c0,-1.02053 -0.25244,-1.84767 -0.75732,-2.4814c-0.52995,-0.66601 -1.21565,-0.99902 -2.0571,-0.99902z"/><path d="M241.496,175.545h1.4287v4.0283l3.5503,-4.0283h1.9175l-3.6738,3.8081l3.9907,5.1025h-1.8477l-3.0991,-4.2271l-0.83789,0.85938v3.3677h-1.4287z"/></g></g></g></svg>