<?xml version="1.0" encoding="UTF-8"?>
<svg width="480" height="360" version="1.1" viewBox="0 0 480 360" xmlns="http://www.w3.org/2000/svg">
 <g dominant-baseline="central" fill="#fff" aria-label="伊豆大島">
  <path d="m258.09 175.78h1.5039v1.7969h-1.5039v4.5996h-4.9805q-0.17578 2.7051-1.123 4.3359-1.2012 2.0801-3.0566 3.2227l-1.5625-1.5625q1.7871-1.0352 2.832-2.8223 0.69336-1.2012 0.82031-3.1738h-4.0527v-1.8164h4.082v-2.7832h-5.5762v-1.7969h5.5762v-2.6074h-3.7793v-1.8164h10.82zm-2.0606 0v-2.6074h-2.9004v2.6074zm0 1.7969h-2.9004v2.7832h2.9004zm-11.064-2.2363v14.16h-2.0996v-10.02q-0.72266 1.1914-1.6406 2.4609l-0.99609-2.1777q1.6504-2.2363 2.793-5.1367 0.71289-1.7969 1.4062-4.2676l2.1191 0.53711q-0.76172 2.5488-1.582 4.4434z" dominant-baseline="central"/>
  <path d="m277.12 175.74v6.4941h-14.219v-6.4941zm-12.021 1.6992v3.0762h9.8047v-3.0762zm0.70312 9.3555q-0.46875-1.7676-1.6211-3.623l2.0996-0.78125q1.0156 1.5723 1.7383 3.584l-1.9043 0.82031h5.7617q0.99609-2.0312 1.748-4.502l2.3144 0.70313q-0.83984 2.0605-1.8164 3.7988h5.3809v1.9043h-19.004v-1.9043zm-4.6875-15.234h17.783v1.8555h-17.783z" dominant-baseline="central"/>
  <path d="m291.36 177.52q0.67383 2.2852 2.5586 4.8633 2.2949 3.1445 5.6445 4.9805l-1.3965 2.0117q-3.5449-2.0898-5.918-5.5371-1.2793-1.875-2.0508-3.8184-0.77148 2.6172-2.3926 4.7559-2.3828 3.1641-5.8887 4.668l-1.377-1.7871q3.6719-1.5332 5.9277-4.7266 1.8945-2.6953 2.2461-5.4102h-7.793v-2.1191h7.8809v-4.707h2.2559v4.707h8.0469v2.1191z" dominant-baseline="central"/>
  <path d="m307.74 171.98q0.36133-0.86914 0.58594-1.6602l2.3828 0.32226q-0.3418 0.81055-0.625 1.3379h6.5039v6.3672h-11.797v0.98633h14.697v1.582h-14.697v0.99609h14.014q-0.12695 4.4727-0.5664 6.0352-0.28321 0.99609-1.0645 1.3184-0.55664 0.23437-1.6992 0.23437-1.1719 0-2.1875-0.14648l-0.39063-1.6406h-9.7852v1.084h-2.0996v-4.6973h2.0996v2.0117h3.3594v-2.6367h-3.8379v-11.494zm4.1504 14.131v-2.0117h2.0215v3.3984q0.81054 0.0781 1.3476 0.0781 0.66406 0 0.83008-0.38085 0.32227-0.7129 0.50781-3.7207h-8.0273v2.6367zm-7.0996-12.627v0.96679h9.6387v-0.96679zm0 2.3633v1.0644h9.6387v-1.0644z" dominant-baseline="central"/>
 </g>
</svg>
