<svg version="1.1" xmlns="http://www.w3.org/2000/svg" xmlns:xlink="http://www.w3.org/1999/xlink" width="213.08165" height="137.02381" viewBox="0,0,213.08165,137.02381"><g transform="translate(148.74017,-301.15444)"><g data-paper-data="{&quot;isPaintingLayer&quot;:true}" fill="none" fill-rule="evenodd" stroke="#fc3324" stroke-width="36" stroke-linecap="round" stroke-linejoin="round" stroke-miterlimit="4" stroke-dasharray="" stroke-dashoffset="0" style="mix-blend-mode: normal"><g><path d="M-129.64035,413.91925l2.5396,2.39961l-0.05,2.5196l-2.72956,1.33979l0.72988,-1.67973l-1.58974,-1.54975l1.35979,-1.10983l-0.25996,-1.91969"/><path d="M-118.65211,393.68248l1.12982,0.73988l2.91953,-1.13982l2.10966,2.36962l-0.99984,2.37962l-4.84922,3.89937l1.28979,1.70973l-2.74956,2.58959l1.13982,2.20964l-2.33962,-0.03999l0.83987,3.80939l2.82954,-1.76972l4.97921,-1.59974l0.30995,1.40977l2.17965,1.55975l1.45977,2.35963l1.45977,-0.94985l1.8597,1.55975l2.42961,-0.6499l4.61927,-4.42929l0.89985,2.92953l1.66973,-2.94953l4.60926,1.30979l3.67941,3.50944l-0.46993,2.44961l1.93969,-0.44993l3.49944,1.18981l-0.04,-2.47961l-2.41961,-5.47912l-2.98952,-1.02983l-1.35978,-1.65974l0.83987,-6.09902l3.30947,0.21997l1.59974,-2.23964l-0.22996,-3.82939l-1.32979,-2.4896l-0.07999,-2.15966l1.52976,-6.98888l2.60958,-3.02951l3.85938,-0.05999l2.18965,1.57975l0.41994,-4.08935l1.8697,-3.36946l2.5196,-1.36978l2.75956,-6.29899l2.04968,-1.99968l2.91953,1.81971l0.12998,-2.62958l-1.10983,-1.15981l2.08967,-1.69973l0.77988,-2.23964l1.68973,-1.01983l-0.82987,-2.11966l1.63974,-1.71972l-0.75988,-2.81955l-1.29979,0.78988l-0.50992,-2.72957l2.22964,-1.42977l-2.88954,-1.71973l2.28964,-1.09983l0.72988,-4.39929l2.74956,-1.48976l3.05951,-0.14998l2.56959,-2.12966l4.53927,-0.56991l6.55895,-1.75972l-1.47976,-2.34963l-0.76988,1.40978l-1.71973,-1.36978l-2.33962,2.64958l-2.44961,-0.70988l3.7494,-1.2298l-1.08983,-1.16981l4.10935,0.56991l7.72876,-4.4293l5.84906,-2.37962l-1.37978,-0.31995l-1.13981,-2.32963l1.30979,-1.44977l-0.80987,-1.33979l1.67973,-0.22996l-0.67989,4.63925l4.65926,-2.07966l5.01919,-1.15982l6.44897,-0.90985l3.19949,0.83987l1.10983,1.8897l5.08918,0.03999l2.00968,0.89986l4.25932,0.6499l4.18933,1.27979l2.17965,1.98968l-0.27996,1.44977l1.68973,2.46961l7.07887,3.42945l0.85986,2.57959l-0.40994,1.70972l3.29947,2.45961l1.37978,2.42961l2.4996,1.72973l0.55991,3.49944l2.82954,-0.17997l4.16933,5.55911l0.51992,-5.31915l1.37978,-6.8289l1.39977,-4.58926l-0.40993,-0.92986l3.15949,-6.51895l0.04999,-1.57975l2.82955,-4.66926l1.93969,-2.09966l-0.47993,-1.13981l2.06967,-2.24964"/></g></g></g></svg>