<?xml version="1.0" encoding="UTF-8"?>
<svg width="20" height="10" version="1.1" viewBox="0 0 20 10" xmlns="http://www.w3.org/2000/svg">
 <g transform="translate(-390.77 -554.76)">
  <rect x="390.77" y="554.76" width="20" height="10" fill-opacity="0" stop-color="#000000" stroke-linejoin="round" stroke-miterlimit="10" stroke-width="2" style="paint-order:stroke markers fill"/>
  <path d="m398.14 557.34q0.65918-0.55176 1.2793-1.3037l0.80079 0.62012q-0.52735 0.58594-1.2842 1.1572 0.64453 0.33691 1.6064 0.69335l-0.53223 0.85938q-0.8789-0.3418-1.6016-0.7666v0.50781h-0.9082v1.3135h2.8223v0.94238h-2.8223v1.6357q0 0.25879 0.1123 0.30762 0.15137 0.0635 0.625 0.0635 0.51758 0 0.70801-0.0635 0.19043-0.0586 0.24414-0.32715 0.0684-0.33203 0.0732-0.95703l1.0693 0.31738q-0.0537 1.2988-0.2832 1.6309-0.2002 0.28809-0.625 0.34668-0.42969 0.0586-1.3916 0.0586-0.90821 0-1.1719-0.11231-0.42969-0.18066-0.42969-0.81543v-2.085h-1.5381q-0.11231 1.2646-0.83008 1.9775-0.79102 0.79101-2.334 1.1914l-0.62988-0.93262q1.3818-0.28809 2.0361-0.84961 0.35645-0.3125 0.51758-0.76172 0.0879-0.23437 0.14649-0.625h-2.5684v-0.94238h2.6172v-1.3135h-0.76172v-0.40527q-0.85938 0.53711-1.7578 0.86426l-0.48828-0.82032q1.0596-0.36133 1.9824-0.93261-0.53222-0.50782-1.2012-0.95704l0.70801-0.69824q0.75684 0.52735 1.2891 1.0645 0.57617-0.49317 0.98145-1.0352h-1.7627v-0.91797h3.3545q0.40039 0.66406 0.82031 1.1182 0.57129-0.50781 1.1963-1.2402l0.79101 0.62012q-0.59082 0.63965-1.3379 1.2207 0.26856 0.20996 0.47852 0.35156zm-1.709 1.7676h-1.5039v1.3135h1.5039zm-2.6221-0.89844h3.9795q-1.2158-0.81543-2.0996-1.8799-0.70313 1.001-1.8799 1.8799z" fill="#fff"/>
  <path d="m403.43 556.8h1.8994v-1.792h1.1182v1.792h3.5059v1.0205h-3.5059v2.0557h3.2031v1.001h-3.2031v2.2607h3.8916v1.0205h-9.0283v-1.0205h4.0186v-2.2607h-3.3887v-1.001h3.3887v-2.0557h-2.3438q-0.43457 0.84961-1.0254 1.5772l-0.87891-0.72754q1.1719-1.3428 1.6894-3.4326l1.0889 0.2002q-0.20996 0.79101-0.42969 1.3623z" fill="#fff"/>
 </g>
</svg>
