<?xml version="1.0" encoding="UTF-8"?>
<svg width="480" height="360" version="1.1" viewBox="0 0 480 360" xmlns="http://www.w3.org/2000/svg">
 <g dominant-baseline="central" fill="#fff" aria-label="ロシア西部">
  <path d="m241.94 172.7h15.322v15.078h-15.322zm2.2754 2.0801v10.918h10.771v-10.918z" dominant-baseline="central"/>
  <path d="m267.8 175.67q-2.8809-1.2891-5.8789-2.1582l0.63476-1.9336q3.3789 0.83984 5.9277 2.0508zm-2.002 5q-2.4023-1.0547-5.8789-2.1582l0.83985-1.9531q2.9883 0.79102 5.8008 2.0996zm-4.6191 5.3809q3.9941-0.33203 6.2598-1.2109 3.3496-1.2793 5.2637-4.5703 1.2793-2.1973 2.0215-5.5566l1.9727 1.1426q-0.94727 4.209-2.6465 6.709-1.9922 2.9199-5.5566 4.3164-2.5098 0.96679-6.6894 1.3574z" dominant-baseline="central"/>
  <path d="m278.18 172.5h15.303l1.2598 1.0644q-0.54687 2.041-1.4258 3.4082-1.6504 2.5879-4.9414 3.8672l-1.2305-1.6797q2.2754-0.6836 3.7793-2.4512 0.88868-1.0449 1.2402-2.207h-13.984zm6.2598 4.2188h2.2363v1.6797q0 3.7793-0.83985 5.8398-1.0644 2.6172-4.1406 4.2578l-1.6113-1.6992q2.1191-1.0058 3.0957-2.4023 0.75196-1.084 0.98633-2.2949 0.27344-1.3867 0.27344-3.7207z" dominant-baseline="central"/>
  <path d="m302.06 176.07v-2.7344h-5.8203v-1.8848h18.779v1.8848h-6.4551v2.7344h5.4785v13.164h-2.1191v-1.377h-12.607v1.377h-2.0996v-13.164zm2.0215 0h2.4609v-2.7344h-2.4609zm-2.0312 1.7773h-2.7344v8.1543h12.607v-2.9297h-3.7012q-1.6797 0-1.6797-1.6797v-3.5449h-2.4805q-0.0391 2.4024-0.72266 3.8477-0.64453 1.377-2.5391 2.7246l-1.3477-1.5039q1.8164-1.1133 2.2949-2.7539 0.2539-0.87891 0.30273-2.3145zm6.5137 0v2.9883q0 0.38086 0.3418 0.38086h3.0176v-3.3691z" dominant-baseline="central"/>
  <path d="m322.61 172.75h4.1797v1.8848h-1.377q-0.3711 1.4941-0.9961 3.1348h2.6074v1.8848h-10.898v-1.8848h2.3926q-0.39062-1.875-0.82031-3.1348h-1.2695v-1.8848h4.1406v-2.2559h2.041zm-2.9394 1.8848q0.49805 1.4551 0.77148 3.1348h1.9922l0.09766-0.27344q0.41992-1.1133 0.78125-2.5293l0.0879-0.33203zm6.0547 6.6602v7.998h-2.002v-0.95703h-4.2578v1.1621h-2.0606v-8.2031zm-6.2598 1.7969v3.3887h4.2578v-3.3887zm13.047-4.9316q1.1621 1.1035 1.8457 2.627 0.67383 1.5234 0.67383 3.0859 0 1.4453-0.53711 2.1289-0.55664 0.71289-1.8359 0.71289-1.0938 0-2.1191-0.15625l-0.47852-2.0801q1.1816 0.21485 1.9531 0.21485 0.58594 0 0.73242-0.27344 0.0977-0.19531 0.0977-0.78125 0-2.4121-1.4453-4.1602-0.38086-0.45898-0.95703-0.98633l0.11719-0.27343q1.0156-2.2949 1.582-4.7852h-2.5v16.064h-2.0215v-18.086h5.8789l1.084 0.99609q-0.98633 3.3594-2.0703 5.752z" dominant-baseline="central"/>
 </g>
</svg>
