<svg xmlns="http://www.w3.org/2000/svg" viewBox="0 0 120 60" version="1.1" height="60" width="120">
 <rect style="paint-order:stroke markers fill" stop-color="#000000" opacity=".80769" fill="none" height="60" width="120"></rect>
 <g aria-label="125%" fill="#fff">
  <path d="m64.073 24.427v-9.6592q-1.4492 0.48535-2.7344 0.71777l-0.33496-1.3877q2.167-0.52637 3.5547-1.2168h1.3125v11.546z"></path>
  <path d="m70.048 24.427v-1.5449q0.64941-2.0166 3.541-3.9443l0.37598-0.25293q1.2441-0.82715 1.709-1.3535 0.51953-0.58789 0.51953-1.2715 0-0.61523-0.37598-1.0664-0.56055-0.67676-1.6748-0.67676-1.6611 0-2.9873 1.3877l-1.1758-1.0801q0.46484-0.56738 1.1074-0.95703 1.374-0.83398 3.0625-0.83398 1.3125 0 2.2764 0.49902 0.83398 0.4375 1.2852 1.1895 0.41699 0.71094 0.41699 1.5381 0 1.0869-0.82715 2.0098-0.55371 0.62207-2.0713 1.6543l-0.4375 0.29394q-1.6064 1.0869-2.1191 1.6133-0.62891 0.64258-0.83398 1.1553h6.3984v1.6406z"></path>
  <path d="m81.607 13.086h6.624v1.5107h-5.1406l-0.40332 3.2334h0.05469q1.0527-0.75879 2.4404-0.75879 0.9502 0 1.7842 0.43066 1.1689 0.59473 1.6338 1.8115 0.25977 0.68359 0.25977 1.5176 0 1.873-1.3809 2.9531-1.1484 0.89551-2.8574 0.89551-2.4746 0-3.9785-1.4902l0.93652-1.1758q0.54688 0.54004 1.333 0.83398 0.85449 0.32129 1.6816 0.32129 0.93652 0 1.5996-0.51953 0.84766-0.66309 0.84766-1.832 0-1.0186-0.58789-1.6611-0.63574-0.69727-1.7568-0.69727-1.5244 0-2.2354 1.0664l-1.5381-0.25293z"></path>
  <path d="m100.6 13.086h1.3604l-8.3603 11.341h-1.3535zm-7.2119-0.28027q1.3193 0 2.085 1.0186 0.64941 0.875 0.64941 2.1807 0 1.1826-0.5332 2.0098-0.76562 1.1895-2.2148 1.1895-1.2852 0-2.0439-0.95703-0.69727-0.875-0.69727-2.2354 0-1.6133 0.94336-2.5156 0.72461-0.69043 1.8115-0.69043zm-0.01367 1.2578q-0.56738 0-0.91602 0.51953-0.35547 0.5332-0.35547 1.4287 0 0.74512 0.2666 1.2578 0.34863 0.67676 1.0117 0.67676 0.52637 0 0.86816-0.45117 0.40332-0.54004 0.40332-1.4834 0-0.90918-0.37598-1.4492-0.3418-0.49902-0.90234-0.49902zm7.458 4.2451q1.2783 0 2.0371 0.95703 0.69727 0.88184 0.69727 2.2354 0 1.2031-0.54687 2.0371-0.76563 1.1689-2.2012 1.1689-1.3262 0-2.085-1.0186-0.64941-0.875-0.64941-2.1807 0-1.5859 0.91602-2.4814 0.73144-0.71777 1.832-0.71777zm-0.0137 1.2578q-0.52636 0-0.86132 0.45117-0.40332 0.54688-0.40332 1.4902 0 0.74512 0.25976 1.2578 0.34863 0.68359 1.0186 0.68359 0.56738 0 0.90917-0.51953 0.35547-0.54004 0.35547-1.4219 0-0.90234-0.37597-1.4424-0.3418-0.49902-0.90235-0.49902z"></path>
 </g>
</svg>
