<?xml version="1.0" encoding="UTF-8"?>
<svg width="480" height="360" version="1.1" viewBox="0 0 480 360" xmlns="http://www.w3.org/2000/svg">
 <g dominant-baseline="central" fill="#fff" aria-label="岐阜県美濃東部">
  <path d="m255.39 184.74q1.9824 1.6797 4.4336 2.6758l-1.1621 1.9629q-2.5098-1.2109-4.6094-3.2324-2.2168 2.1484-5.332 3.4668l-1.2793-1.7383q2.8711-0.8789 5.3125-3.1152-2.041-2.4414-3.0176-5.0098h-0.91797v-1.8848h3.8379v-2.6367h-4.4531v10.889h-5.5469v1.6992h-1.7773v-13.33h1.6797v9.7559h1.084v-13.457h1.7773v13.457h1.123v-9.7559h1.3965v-1.1816h4.7168v-2.8027h2.0606v2.8027h4.8047v1.9238h-4.8047v2.6367h3.1055l0.9375 0.96679q-1.5918 3.7891-3.3692 5.9082zm-1.377-1.3379q1.5723-2.0703 2.168-3.6524h-4.4336q0.8789 2.0996 2.2656 3.6524z" dominant-baseline="central"/>
  <path d="m268.84 182.46h-6.3965v-10.322h5.498q0.3418-0.88867 0.53711-1.7578l2.3926 0.32226q-0.32227 0.7129-0.73242 1.4356h6.9043v4.502h-12.461v1.2793h13.281v4.541h-6.8457v1.543h8.5254v1.7773h-8.5254v3.7207h-2.1777v-3.7207h-8.3594v-1.7773h8.3594zm-4.2578-8.7598v1.3965h10.293v-1.3965zm0 5.7812v1.3965h11.133v-1.3965z" dominant-baseline="central"/>
  <path d="m296.76 170.98v9.4629h-11.621v-9.4629zm-9.5215 1.543v1.2207h7.4023v-1.2207zm0 2.5977v1.2207h7.4023v-1.2207zm0 2.5976v1.2598h7.4023v-1.2598zm-3.9356 4.0234h16.191v1.6992h-8.0762v6.0644h-2.2168v-6.0644h-8.0371v-10.957h2.1387zm-2.5 5.8984q2.3242-1.0742 4.4434-3.6035l1.7969 1.0449q-2.0898 2.6465-4.6387 4.1602zm16.836 1.2598q-1.4941-1.8359-4.4922-3.8574l1.6797-1.1816q2.3535 1.3574 4.6191 3.5644z" dominant-baseline="central"/>
  <path d="m308.84 180.4h-8.3203v-1.6406h8.3203v-1.543h-6.416v-1.5625h6.416v-1.4746h-7.4609v-1.6016h4.1016q-0.51758-0.83984-1.084-1.5039l2.2656-0.63477q0.78125 1.0059 1.2891 2.1387h4.0137q0.77148-1.0938 1.1914-2.1191l2.4219 0.47852q-0.53711 0.86914-1.123 1.6406h4.1602v1.6016h-7.5781v1.4746h6.543v1.5625h-6.543v1.543h8.4473v1.6406h-8.4473v1.6406h8.1055v1.6797h-7.3828q1.0352 1.2793 2.6856 2.1484 2.1777 1.1426 4.9512 1.5723l-1.3184 2.002q-5.6934-1.3867-7.9102-4.8438-0.87891 1.8848-2.959 3.125-1.8848 1.1328-5.2539 1.7969l-1.3184-1.9043q6.2988-0.69336 7.7832-3.8965h-7.5391v-1.6797h7.959z" dominant-baseline="central"/>
  <path d="m336.49 186.57q1.2305 0.78125 3.1445 1.3086l-1.1426 1.6406q-2.4609-0.83984-3.9258-2.1387-1.5332-1.3672-2.2461-3.3203h-1.5234v3.2617l0.27344-0.0488q1.1328-0.20508 2.5488-0.50781l0.0781 1.5527q-2.6758 0.70313-5.9961 1.2207l-0.57617-1.6992q0.88867-0.0977 1.7871-0.21485v-3.5644h-1.6699q-0.0976 1.5723-0.36132 2.6758-0.35157 1.4941-1.2207 2.8223l-1.5234-1.4551q0.82032-1.4941 1.0449-3.3008 0.13672-1.1133 0.13672-2.6562v-3.8477h13.818v1.416h-11.836v2.1484q0 0.33204-0.01 0.78125h12.207v1.416h-1.6406l1.0547 0.97656q-1.1621 0.87891-2.4219 1.5332zm-1.1523-0.92774q1.0938-0.74219 2.0312-1.582h-3.1641q0.41993 0.86914 1.1328 1.582zm-5.918-14.189v-0.95703h1.7383v0.95703h1.7969v-0.95703h1.7383v0.95703h3.584v6.0254h-12.422v-6.0254zm-1.7676 1.3379v1.0449h1.8066v-1.0449zm0 2.2656v1.123h1.8066v-1.123zm8.8477 1.123v-1.123h-1.8457v1.123zm0-2.3438v-1.0449h-1.8457v1.0449zm-5.3418-1.0449v1.0449h1.7969v-1.0449zm0 2.2656v1.123h1.7969v-1.123zm-7.6856-0.0977q-0.84961-1.3574-2.5391-3.0664l1.4453-1.2988q1.3281 1.1133 2.6367 2.8613zm-0.49804 5.0195q-1.2402-1.7285-2.5781-3.125l1.3965-1.377q1.5332 1.3867 2.666 2.9785zm-2.4414 8.1152q1.377-2.6367 2.666-6.9824l1.6406 1.084q-0.86914 3.6719-2.5391 7.3047zm7.7051-7.5781h9.6777v1.3184h-9.6777z" dominant-baseline="central"/>
  <path d="m353.2 183.15q2.4219 2.1582 6.5234 3.4863l-1.2598 1.8359q-2.3633-0.83984-4.1211-2.0312-1.8164-1.2402-3.3496-3.0469v6.1035h-2.1191v-5.9961q-1.3574 1.9043-3.5059 3.418-1.6504 1.1621-3.5352 1.875l-1.3379-1.7188q3.0957-1.0254 5.166-2.7637 0.58594-0.48829 1.1914-1.1621h-4.6973v-7.998h6.7188v-1.3184h-8.0957v-1.7578h8.0957v-1.582h2.1191v1.582h8.2227v1.7578h-8.2227v1.3184h6.8457v7.998zm-4.3262-6.3574h-4.5996v1.582h4.5996zm2.1191 0v1.582h4.7266v-1.582zm-2.1191 3.1055h-4.5996v1.6113h4.5996zm2.1191 0v1.6113h4.7266v-1.6113z" dominant-baseline="central"/>
  <path d="m366.98 172.75h4.1797v1.8848h-1.377q-0.3711 1.4941-0.9961 3.1348h2.6074v1.8848h-10.898v-1.8848h2.3926q-0.39062-1.875-0.82031-3.1348h-1.2695v-1.8848h4.1406v-2.2559h2.041zm-2.9394 1.8848q0.49805 1.4551 0.77148 3.1348h1.9922l0.09766-0.27344q0.41992-1.1133 0.78125-2.5293l0.0879-0.33203zm6.0547 6.6602v7.998h-2.002v-0.95703h-4.2578v1.1621h-2.0606v-8.2031zm-6.2598 1.7969v3.3887h4.2578v-3.3887zm13.047-4.9316q1.1621 1.1035 1.8457 2.627 0.67383 1.5234 0.67383 3.0859 0 1.4453-0.53711 2.1289-0.55664 0.71289-1.8359 0.71289-1.0938 0-2.1191-0.15625l-0.47852-2.0801q1.1816 0.21485 1.9531 0.21485 0.58594 0 0.73242-0.27344 0.0977-0.19531 0.0977-0.78125 0-2.4121-1.4453-4.1602-0.38086-0.45898-0.95703-0.98633l0.11719-0.27343q1.0156-2.2949 1.582-4.7852h-2.5v16.064h-2.0215v-18.086h5.8789l1.084 0.99609q-0.98633 3.3594-2.0703 5.752z" dominant-baseline="central"/>
 </g>
</svg>
