<svg version="1.1" xmlns="http://www.w3.org/2000/svg" xmlns:xlink="http://www.w3.org/1999/xlink" width="208" height="32" viewBox="0,0,208,32"><g transform="translate(-240,-164)"><g data-paper-data="{&quot;isPaintingLayer&quot;:true}" fill-rule="nonzero" stroke="none" stroke-linecap="butt" stroke-linejoin="miter" stroke-miterlimit="10" stroke-dasharray="" stroke-dashoffset="0" style="mix-blend-mode: normal"><path d="M240,196v-32h208v32z" fill="none" stroke-width="0"/><path d="M251.36,177.52c0.44922,1.52347 1.30209,3.14457 2.5586,4.8633c1.52993,2.09633 3.41143,3.7565 5.6445,4.9805l-1.3965,2.0117c-2.36327,-1.3932 -4.33593,-3.2389 -5.918,-5.5371c-0.85287,-1.25 -1.53647,-2.5228 -2.0508,-3.8184c-0.51432,1.7448 -1.31185,3.3301 -2.3926,4.7559c-1.58853,2.1094 -3.55143,3.6654 -5.8887,4.668l-1.377,-1.7871c2.44793,-1.02213 4.42383,-2.59767 5.9277,-4.7266c1.263,-1.79687 2.0117,-3.60027 2.2461,-5.4102h-7.793v-2.1191h7.8809v-4.707h2.2559v4.707h8.0469v2.1191z" fill="#ffffff" stroke-width="1"/><path d="M263,185.18v4.3262h-1.9629v-18.223h5.1465l0.97656,0.83984c-0.53385,2.07033 -1.16862,3.9193 -1.9043,5.5469c0.91147,1.36067 1.3672,2.88737 1.3672,4.5801c0,1.08073 -0.16601,1.87173 -0.49804,2.373c-0.3125,0.46875 -0.88543,0.70313 -1.7188,0.70313c-0.60547,0 -1.07421,-0.04883 -1.4062,-0.14649zM263,183.3148c0.37109,0.0586 0.69987,0.0879 0.98632,0.0879c0.31901,0 0.52735,-0.14974 0.625,-0.44922c0.08464,-0.26042 0.12696,-0.63802 0.12696,-1.1328c0,-1.36067 -0.42643,-2.70833 -1.2793,-4.043c0.6836,-1.6406 1.21093,-3.19333 1.582,-4.6582h-2.041zM274.865,184.3207c-0.11719,-0.42318 -0.26693,-0.87565 -0.44922,-1.3574l1.2109,-0.45898c0.50781,1.13933 0.91471,2.4577 1.2207,3.9551l-1.4551,0.625c-0.07161,-0.48177 -0.14974,-0.91471 -0.23437,-1.2988c-1.64713,0.33203 -3.47657,0.57617 -5.4883,0.73242l-0.38086,-1.7773c1.15233,-0.0456 2.0117,-0.09117 2.5781,-0.13672c0.09766,-0.00667 0.17904,-0.01317 0.24414,-0.0195v-2.4609h-3.2226v7.3828h-1.8555v-9.1016h5.0781v-1.3184h-4.3359v-7.7246h10.361v7.7246h-4.3457v1.3184h5.2832v7.2949c0,0.6836 -0.22136,1.1426 -0.66407,1.377c-0.3125,0.16927 -0.78777,0.2539 -1.4258,0.2539c-0.65104,0 -1.34114,-0.04883 -2.0703,-0.14648l-0.26367,-1.8652c0.20182,0.02607 0.55339,0.0749 1.0547,0.14649c0.37761,0.05207 0.70638,0.0781 0.98633,0.0781c0.22135,0 0.35807,-0.07487 0.41016,-0.22461c0.03253,-0.08463 0.0488,-0.21159 0.0488,-0.38086v-4.8144h-3.418v2.3242c0.40365,-0.0456 0.78125,-0.08792 1.1328,-0.12695zM269.6306,173.0027v1.3965h2.4805v-1.3965zM269.6306,175.9421v1.5625h2.4805v-1.5625zM276.2712,177.5046v-1.5625h-2.4805v1.5625zM276.2712,174.3991v-1.3965h-2.4805v1.3965z" fill="#ffffff" stroke-width="1"/><path d="M288.84,177.31v-6.8164h2.1973v6.8164h7.4414v1.9434h-7.4414v2.7734h8.4668v1.9824h-8.4668v5.4883h-2.1973v-5.4883h-8.3398v-1.9824h8.3398v-2.7734h-7.3047v-1.9434zM284.5627,176.67524c-0.80727,-1.7904 -1.65363,-3.27803 -2.5391,-4.4629l2.041,-0.9961c1.0026,1.3802 1.8815,2.8711 2.6367,4.4727zM293.1369,175.91352c1.02867,-1.56253 1.84897,-3.20317 2.4609,-4.9219l2.2852,0.89844c-0.73567,1.6146 -1.6634,3.2357 -2.7832,4.8633z" fill="#ffffff" stroke-width="1"/><path d="M307.74,171.98c0.24089,-0.57943 0.4362,-1.13283 0.58594,-1.6602l2.3828,0.32226c-0.22787,0.54037 -0.4362,0.98633 -0.625,1.3379h6.5039v6.3672h-11.797v0.98633h14.697v1.582h-14.697v0.99609h14.014c-0.08463,2.9818 -0.27343,4.99353 -0.5664,6.0352c-0.18881,0.66406 -0.54364,1.10353 -1.0645,1.3184c-0.37109,0.15625 -0.93749,0.23437 -1.6992,0.23437c-0.78127,0 -1.51043,-0.04883 -2.1875,-0.14648l-0.39063,-1.6406h-9.7852v1.084h-2.0996v-4.6973h2.0996v2.0117h3.3594v-2.6367h-3.8379v-11.494zM311.8904,186.111v-2.0117h2.0215v3.3984c0.54036,0.05207 0.98956,0.0781 1.3476,0.0781c0.44271,0 0.7194,-0.12695 0.83008,-0.38085c0.21485,-0.47527 0.38412,-1.7155 0.50781,-3.7207h-8.0273v2.6367zM304.7908,173.484v0.96679h9.6387v-0.96679zM304.7908,175.8473v1.0644h9.6387v-1.0644z" fill="#ffffff" stroke-width="1"/><path d="M333.2,183.15c1.6146,1.4388 3.78907,2.6009 6.5234,3.4863l-1.2598,1.8359c-1.57553,-0.55989 -2.94923,-1.23696 -4.1211,-2.0312c-1.21093,-0.8268 -2.32747,-1.84243 -3.3496,-3.0469v6.1035h-2.1191v-5.9961c-0.90493,1.26953 -2.07357,2.40887 -3.5059,3.418c-1.10027,0.77473 -2.27867,1.39973 -3.5352,1.875l-1.3379,-1.7188c2.0638,-0.6836 3.7858,-1.60483 5.166,-2.7637c0.39063,-0.32553 0.78776,-0.71289 1.1914,-1.1621h-4.6973v-7.998h6.7188v-1.3184h-8.0957v-1.7578h8.0957v-1.582h2.1191v1.582h8.2227v1.7578h-8.2227v1.3184h6.8457v7.998zM328.8738,176.7926h-4.5996v1.582h4.5996zM330.9929,176.7926v1.582h4.7266v-1.582zM328.8738,179.8981h-4.5996v1.6113h4.5996zM330.9929,179.8981v1.6113h4.7266v-1.6113z" fill="#ffffff" stroke-width="1"/><path d="M349.48,175.76c-0.0456,1.08727 -0.1107,2.0443 -0.19531,2.8711h7.8711c-0.09765,4.51827 -0.35156,7.4512 -0.76172,8.7988c-0.20833,0.67707 -0.5957,1.1458 -1.1621,1.4062c-0.44271,0.20182 -1.09051,0.30273 -1.9434,0.30273c-0.89847,0 -1.91733,-0.06836 -3.0566,-0.20507l-0.38085,-2.1973c1.52993,0.21485 2.6074,0.32227 3.2324,0.32227c0.52734,0 0.86264,-0.14974 1.0059,-0.44922c0.34505,-0.7292 0.58593,-2.74093 0.72265,-6.0352h-5.8105c-0.21485,1.17187 -0.51758,2.1875 -0.90821,3.0469c-1.08727,2.37627 -2.90367,4.26103 -5.4492,5.6543l-1.543,-1.7188c2.55207,-1.32813 4.23827,-3.06967 5.0586,-5.2246c0.54687,-1.4388 0.90167,-3.62957 1.0644,-6.5723h-6.4648v-2.002h7.9785v-3.2617h2.2559v3.2617h8.2422v2.002z" fill="#ffffff" stroke-width="1"/><path d="M371.58,174.14v-3.6426h2.0996v3.6426h5.293v8.8379h-5.293v6.5234h-2.0996v-6.5234h-5.1856v-8.8379zM368.4159,176.0834v4.9707h3.1641v-4.9707zM376.8925,181.0541v-4.9707h-3.2129v4.9707zM364.3925,175.2729c-0.79427,-1.1068 -1.8457,-2.16473 -3.1543,-3.1738l1.4551,-1.4844c1.30207,0.918 2.40233,1.94663 3.3008,3.0859zM363.75774,180.2924c-1.1328,-1.31513 -2.23307,-2.3926 -3.3008,-3.2324l1.5039,-1.5039c1.13933,0.8008 2.26563,1.83597 3.3789,3.1055zM360.72064,187.8608c1.25,-1.77733 2.40233,-3.99087 3.457,-6.6406l1.7383,1.3379c-0.89193,2.4414 -1.97917,4.73957 -3.2617,6.8945z" fill="#ffffff" stroke-width="1"/></g></g></svg>