<svg version="1.1" xmlns="http://www.w3.org/2000/svg" xmlns:xlink="http://www.w3.org/1999/xlink" width="208" height="32" viewBox="0,0,208,32"><g transform="translate(-240,-164)"><g data-paper-data="{&quot;isPaintingLayer&quot;:true}" fill-rule="nonzero" stroke="none" stroke-linecap="butt" stroke-linejoin="miter" stroke-miterlimit="10" stroke-dasharray="" stroke-dashoffset="0" style="mix-blend-mode: normal"><path d="M240,196v-32h208v32z" fill="none" stroke-width="0"/><path d="M254.49,179.59c0.71613,3.42447 2.46417,6.07747 5.2441,7.959l-1.416,1.9629c-2.3828,-1.8164 -4.07227,-4.13737 -5.0684,-6.9629c-0.33203,-0.95707 -0.59244,-1.9434 -0.78125,-2.959h-2.207c0,0.0456 0,0.10094 0,0.16602c-0.0586,2.2526 -0.39713,4.24803 -1.0156,5.9863c-0.47526,1.34767 -1.19793,2.64323 -2.168,3.8867l-1.4356,-1.7188c1.70573,-2.3568 2.5586,-5.4232 2.5586,-9.1992v-7.3926h10.059v8.2715zM256.1599,173.1545h-5.8789v4.5801h5.8789zM243.0059,174.10176v-3.6035h2.0606v3.6035h2.0312v1.9434h-2.0312v3.1738c0.69013,-0.23437 1.34117,-0.472 1.9531,-0.71289l0.19532,1.8359c-0.82033,0.35807 -1.53647,0.65104 -2.1484,0.8789v6.4356c0,0.64453 -0.14323,1.10353 -0.42969,1.377c-0.26693,0.25391 -0.73566,0.38086 -1.4062,0.38086c-0.7096,0 -1.3932,-0.05859 -2.0508,-0.17578l-0.38086,-2.0801c0.65755,0.1237 1.21419,0.18555 1.6699,0.18555c0.20833,0 0.34831,-0.03257 0.41992,-0.0977c0.07813,-0.06513 0.11719,-0.20185 0.11719,-0.41015v-4.9121c-0.73567,0.22786 -1.46483,0.43945 -2.1875,0.63476l-0.57617,-1.9922c1.30207,-0.31901 2.2233,-0.55664 2.7637,-0.71289v-3.8086h-2.4609v-1.9434z" fill="#ffffff" stroke-width="1"/><path d="M273.91,186.78c0.6836,0.16927 1.48113,0.25391 2.3926,0.25391h3.4863c-0.27344,0.64453 -0.47526,1.31187 -0.60547,2.002h-2.9004c-2.03127,0 -3.63933,-0.36783 -4.8242,-1.1035c-0.89847,-0.5599 -1.6439,-1.3737 -2.2363,-2.4414c-0.45573,1.53647 -1.08073,2.89063 -1.875,4.0625l-1.5039,-1.3965c1.34113,-2.2526 2.15493,-4.9707 2.4414,-8.1543l1.8848,0.2832c-0.11719,1.08727 -0.25391,2.06383 -0.41016,2.9297c0.46224,1.1328 1.18491,2.041 2.168,2.7246v-7.3828h-4.2774v-7.1387h10.439v7.1387h-4.1797v2.627h4.6191v1.8555h-4.6191zM269.6912,173.196v3.584h6.3574v-3.584zM263.1482,174.1042v-3.6035h2.041v3.6035h2.002v1.9434h-2.002v3.0371c0.65104,-0.22787 1.24347,-0.43945 1.7773,-0.63476l0.20508,1.8164c-0.67707,0.28646 -1.33787,0.55339 -1.9824,0.80078v6.6309c0,0.6836 -0.15951,1.15233 -0.47852,1.4062c-0.26693,0.20833 -0.71616,0.3125 -1.3477,0.3125c-0.6836,0 -1.37697,-0.05208 -2.0801,-0.15625l-0.40039,-2.0996c0.86587,0.1237 1.44853,0.18555 1.748,0.18555c0.22135,0 0.36458,-0.03906 0.42969,-0.11719c0.0586,-0.07161 0.0879,-0.20833 0.0879,-0.41015v-5.0195c-0.74867,0.2474 -1.50387,0.47527 -2.2656,0.6836l-0.59571,-2.002c1.13933,-0.27995 2.0931,-0.53386 2.8613,-0.76172v-3.6719h-2.5781v-1.9434z" fill="#ffffff" stroke-width="1"/><path d="M287.74,171.98c0.24089,-0.57943 0.4362,-1.13283 0.58594,-1.6602l2.3828,0.32226c-0.22787,0.54037 -0.4362,0.98633 -0.625,1.3379h6.5039v6.3672h-11.797v0.98633h14.697v1.582h-14.697v0.99609h14.014c-0.08463,2.9818 -0.27343,4.99353 -0.5664,6.0352c-0.18881,0.66406 -0.54364,1.10353 -1.0645,1.3184c-0.37109,0.15625 -0.93749,0.23437 -1.6992,0.23437c-0.78127,0 -1.51043,-0.04883 -2.1875,-0.14648l-0.39063,-1.6406h-9.7852v1.084h-2.0996v-4.6973h2.0996v2.0117h3.3594v-2.6367h-3.8379v-11.494zM291.8904,186.111v-2.0117h2.0215v3.3984c0.54036,0.05207 0.98956,0.0781 1.3476,0.0781c0.44271,0 0.7194,-0.12695 0.83008,-0.38085c0.21485,-0.47527 0.38412,-1.7155 0.50781,-3.7207h-8.0273v2.6367zM284.7908,173.484v0.96679h9.6387v-0.96679zM284.7908,175.8473v1.0644h9.6387v-1.0644z" fill="#ffffff" stroke-width="1"/><path d="M308.92,182.24h-4.043v-1.6016h1.9531c-0.29297,-0.66407 -0.625,-1.28257 -0.99609,-1.8555l1.7578,-0.64453c0.50781,0.85287 0.91798,1.6862 1.2305,2.5h2.2949c0.38411,-0.78773 0.72265,-1.6341 1.0156,-2.5391l1.9629,0.61524c-0.33203,0.71613 -0.6836,1.3574 -1.0547,1.9238h2.0996v1.6016h-4.1797v1.4258h4.4531v1.6602h-4.4531v3.6914h-2.041v-3.6914h-4.2871v-1.6602h4.2871zM311.0196,176.2244h7.4024v11.416c0,0.6706 -0.17904,1.1426 -0.53711,1.416c-0.29948,0.23438 -0.80405,0.35157 -1.5137,0.35157c-0.918,0 -1.8034,-0.04883 -2.6562,-0.14649l-0.47852,-1.9629c1.13933,0.13672 1.9922,0.20508 2.5586,0.20508c0.23437,0 0.37109,-0.05859 0.41015,-0.17578c0.02607,-0.07161 0.0391,-0.17253 0.0391,-0.30274v-9.1016h-12.48v11.582h-2.1777v-13.281h7.2754v-1.7676h-8.3594v-1.8164h8.3594v-2.1387h2.1582v2.1387h8.4766v1.8164h-8.4766z" fill="#ffffff" stroke-width="1"/><path d="M333.2,183.15c1.6146,1.4388 3.78907,2.6009 6.5234,3.4863l-1.2598,1.8359c-1.57553,-0.55989 -2.94923,-1.23696 -4.1211,-2.0312c-1.21093,-0.8268 -2.32747,-1.84243 -3.3496,-3.0469v6.1035h-2.1191v-5.9961c-0.90493,1.26953 -2.07357,2.40887 -3.5059,3.418c-1.10027,0.77473 -2.27867,1.39973 -3.5352,1.875l-1.3379,-1.7188c2.0638,-0.6836 3.7858,-1.60483 5.166,-2.7637c0.39063,-0.32553 0.78776,-0.71289 1.1914,-1.1621h-4.6973v-7.998h6.7188v-1.3184h-8.0957v-1.7578h8.0957v-1.582h2.1191v1.582h8.2227v1.7578h-8.2227v1.3184h6.8457v7.998zM328.8738,176.7926h-4.5996v1.582h4.5996zM330.9929,176.7926v1.582h4.7266v-1.582zM328.8738,179.8981h-4.5996v1.6113h4.5996zM330.9929,179.8981v1.6113h4.7266v-1.6113z" fill="#ffffff" stroke-width="1"/><path d="M351.58,174.14v-3.6426h2.0996v3.6426h5.293v8.8379h-5.293v6.5234h-2.0996v-6.5234h-5.1856v-8.8379zM348.4159,176.0834v4.9707h3.1641v-4.9707zM356.8925,181.0541v-4.9707h-3.2129v4.9707zM344.3925,175.2729c-0.79427,-1.1068 -1.8457,-2.16473 -3.1543,-3.1738l1.4551,-1.4844c1.30207,0.918 2.40233,1.94663 3.3008,3.0859zM343.75774,180.2924c-1.1328,-1.31513 -2.23307,-2.3926 -3.3008,-3.2324l1.5039,-1.5039c1.13933,0.8008 2.26563,1.83597 3.3789,3.1055zM340.72064,187.8608c1.25,-1.77733 2.40233,-3.99087 3.457,-6.6406l1.7383,1.3379c-0.89193,2.4414 -1.97917,4.73957 -3.2617,6.8945z" fill="#ffffff" stroke-width="1"/></g></g></svg>