<svg version="1.1" xmlns="http://www.w3.org/2000/svg" xmlns:xlink="http://www.w3.org/1999/xlink" width="168.1" height="32.878" viewBox="0,0,168.1,32.878"><g transform="translate(-240,-180)"><g data-paper-data="{&quot;isPaintingLayer&quot;:true}" stroke="none" stroke-linecap="butt" stroke-linejoin="miter" stroke-miterlimit="10" stroke-dasharray="" stroke-dashoffset="0" style="mix-blend-mode: normal"><path d="M248,180h152.1c4.432,0 8,3.568 8,8v16.878c0,4.432 -3.568,8 -8,8h-152.1c-4.432,0 -8,-3.568 -8,-8v-16.878c0,-4.432 3.568,-8 8,-8z" fill-opacity="0.7" fill="#000000" fill-rule="evenodd" stroke-width="0"/><g fill="#ffffff" fill-rule="nonzero" stroke-width="1"><path d="M251.41,192.93v1.8711h-0.86328v-1.832l-1.2734,0.0469c-0.47135,0.0182 -1.03385,0.03383 -1.6875,0.0469l-0.25391,-0.71875l0.79688,-0.004l0.34766,-0.004l1.1953,-0.008c-0.02867,-0.0208 -0.06773,-0.04813 -0.11719,-0.082c-0.40625,-0.29687 -0.80338,-0.55468 -1.1914,-0.77343l0.56641,-0.48829c0.18489,0.11459 0.3164,0.19922 0.39453,0.25391c0.19011,-0.14583 0.38933,-0.32422 0.59766,-0.53516h-2.4062v-3.3203h3.4258v0.5586h-1.1211v0.42578h1.1211v1.3594h-1.1211v0.45703h1.25v0.51953h-0.75391l0.39062,0.25782c-0.28645,0.23437 -0.58202,0.44531 -0.88671,0.63281c0.27604,0.20573 0.5039,0.38411 0.68359,0.53516c0.58073,-0.40886 1.14453,-0.84376 1.6914,-1.3047l0.62109,0.47265c-0.37239,0.29427 -0.87889,0.62891 -1.5195,1.0039h0.12109c0.47917,-0.0104 0.98567,-0.02863 1.5195,-0.0547l0.1836,-0.0117c-0.14063,-0.13541 -0.29818,-0.26953 -0.47266,-0.40234l0.60938,-0.375c0.50781,0.34896 0.99087,0.78386 1.4492,1.3047l-0.66406,0.45312c-0.16667,-0.19791 -0.29948,-0.34765 -0.39844,-0.44922c-0.03127,0.00267 -0.07163,0.00657 -0.12109,0.0117c-0.52344,0.05467 -1.16147,0.10284 -1.9141,0.14453zM249.1131,187.9417h-0.82812v0.42578h0.82812zM250.1873,188.84795h-1.9023v0.39843h1.9023zM249.1131,189.72685h-0.82812v0.45703h0.82812zM253.3943,189.5042c0.0182,0.013 0.03773,0.02603 0.0586,0.0391c0.35417,0.24479 0.8099,0.46615 1.3672,0.66406l-0.46485,0.67188c-0.52083,-0.21094 -1.01303,-0.4987 -1.4766,-0.86329c-0.37761,0.30729 -0.79427,0.57162 -1.25,0.79297l-0.51953,-0.60937c0.46093,-0.16407 0.8763,-0.39193 1.2461,-0.6836c-0.42969,-0.48177 -0.73568,-0.97917 -0.91797,-1.4922h-0.24218v-0.65625h2.8711l0.40234,0.32812c-0.28906,0.71093 -0.64713,1.3138 -1.0742,1.8086zM252.85134,189.04716c0.27083,-0.30208 0.48698,-0.64321 0.64843,-1.0234h-1.3281c0.17448,0.39843 0.40104,0.73957 0.67969,1.0234zM247.33184,194.10966c0.70053,-0.25 1.27867,-0.58853 1.7344,-1.0156l0.71484,0.44141c-0.60677,0.55729 -1.22263,0.97655 -1.8476,1.2578zM254.14044,194.6956c-0.55729,-0.42708 -1.18619,-0.83201 -1.8867,-1.2148l0.58203,-0.51172c0.7292,0.32552 1.37243,0.68229 1.9297,1.0703z"/><path d="M259.91,188.84h2.0469v3.1289h-2.793c0.34114,0.30989 0.65364,0.66666 0.9375,1.0703l-0.67188,0.53906c-0.35417,-0.53645 -0.67708,-0.94009 -0.96875,-1.2109l0.54688,-0.39844h-2.9219v-0.66406h4.9609v-0.61719h-4.6914v-0.61719h4.6914v-0.58203h-4.707v-0.28906c-0.21875,0.15365 -0.45053,0.30078 -0.69532,0.4414l-0.52734,-0.625c0.862,-0.4401 1.58987,-1.05597 2.1836,-1.8476l0.54688,0.32812h2.5586l0.44532,0.35938c-0.26563,0.33073 -0.55729,0.63932 -0.875,0.92578zM258.91391,188.84c0.28125,-0.23437 0.5039,-0.45833 0.66796,-0.67187h-2.0859c-0.22135,0.25 -0.45313,0.47396 -0.69532,0.67187zM255.23031,194.1447c0.31511,-0.51563 0.54688,-1.10546 0.69531,-1.7695l0.83985,0.25c-0.15885,0.82033 -0.40755,1.4974 -0.7461,2.0312zM257.38271,192.4455h0.85546v1.1055c0,0.16406 0.04427,0.26172 0.13282,0.29297c0.10417,0.03387 0.35417,0.0508 0.75,0.0508c0.47656,0 0.79036,-0.01433 0.9414,-0.043c0.10157,-0.0182 0.16667,-0.07549 0.19532,-0.17187c0.04167,-0.13021 0.0703,-0.36068 0.0859,-0.69141l0.83985,0.28125c-0.02607,0.60937 -0.12503,0.99611 -0.29688,1.1602c-0.11198,0.10417 -0.27474,0.16667 -0.48828,0.1875c-0.33333,0.03127 -0.78647,0.0469 -1.3594,0.0469c-0.69793,0 -1.14193,-0.03257 -1.332,-0.0977c-0.15104,-0.05207 -0.24739,-0.14452 -0.28906,-0.27735c-0.0234,-0.07552 -0.0351,-0.17448 -0.0351,-0.29687zM262.14831,194.4377c-0.32813,-0.7656 -0.66926,-1.3867 -1.0234,-1.8633l0.71875,-0.4375c0.44271,0.59375 0.79818,1.19531 1.0664,1.8047z"/><path d="M267.09,190.36v3.0938c0,0.20052 0.08594,0.32161 0.25781,0.36328c0.17709,0.04427 0.58202,0.0664 1.2148,0.0664c0.61719,0 1.02472,-0.03123 1.2226,-0.0937c0.11198,-0.03647 0.1849,-0.13803 0.21875,-0.30469c0.04427,-0.23437 0.0677,-0.51172 0.0703,-0.83203l0.81641,0.23047c-0.04167,0.7682 -0.14714,1.25907 -0.31641,1.4726c-0.11197,0.14063 -0.28124,0.22396 -0.50781,0.25c-0.35677,0.03907 -0.96223,0.0586 -1.8164,0.0586c-0.66146,0 -1.09506,-0.01823 -1.3008,-0.0547c-0.30989,-0.05207 -0.50651,-0.18879 -0.58984,-0.41016c-0.04167,-0.11719 -0.0625,-0.27344 -0.0625,-0.46875v-3.0976l-0.74609,0.25781l-0.1836,-0.75781l0.92969,-0.32031v-2.1055h0.79297v1.832l0.83984,-0.28516v-2.0586h0.78516v1.7852l1.3086,-0.44921l0.41016,0.25v2.9258c0,0.20312 -0.04818,0.35416 -0.14453,0.45312c-0.10937,0.10937 -0.29297,0.16406 -0.55078,0.16406c-0.21094,0 -0.4349,-0.01823 -0.67188,-0.0547l-0.1289,-0.7461c0.15364,0.03907 0.30989,0.0586 0.46875,0.0586c0.11458,0 0.18489,-0.02343 0.21093,-0.0703c0.02607,-0.03907 0.0391,-0.10417 0.0391,-0.19531v-1.8476l-0.94141,0.32812v3.1602h-0.78516v-2.8906zM264.2189,189.0827v-1.8867h0.83984v1.8867h0.75781v0.79297h-0.75781v2.4844c0.27344,-0.09375 0.54427,-0.1914 0.8125,-0.29297l0.0742,0.75391c-0.84373,0.38541 -1.70963,0.70833 -2.5977,0.96875l-0.27344,-0.83203c0.40105,-0.10417 0.75261,-0.20313 1.0547,-0.29688c0.03647,-0.013 0.06643,-0.0221 0.0899,-0.0273v-2.7578h-0.99219v-0.79297z"/><path d="M274.56,188.25v-0.33594h-2.4414v-0.5586h5.7656v0.5586h-2.4922v0.33594h3.2344v1.4023h-0.84766v-0.89844h-2.3867v1.5195h-0.83203v-1.5195h-2.3438v0.89844h-0.83984v-1.4023zM277.3256,193.793c0.39843,0.15105 0.89583,0.27084 1.4922,0.35938l-0.45704,0.66406c-0.83593,-0.14323 -1.52213,-0.38932 -2.0586,-0.73828c-0.53385,-0.34896 -0.94922,-0.78256 -1.2461,-1.3008h-0.86328v1.2031c0.57552,-0.08073 1.10939,-0.16666 1.6016,-0.25781l0.0547,0.58203c-0.91667,0.21875 -1.96483,0.40886 -3.1445,0.57032l-0.23046,-0.6875c0.40885,-0.04427 0.6888,-0.0755 0.83984,-0.0937l0.0469,-0.008v-1.3086h-0.85546c-0.03647,0.45833 -0.09636,0.82423 -0.17969,1.0977c-0.09896,0.32812 -0.25781,0.63411 -0.47656,0.91796l-0.69532,-0.57421c0.25521,-0.33073 0.41407,-0.71747 0.47657,-1.1602c0.03387,-0.23959 0.0508,-0.53776 0.0508,-0.89453v-1.6562h6.7422v0.51953h-5.9023v1.1992h6.2383v0.55078h-0.88672l0.4961,0.32812c-0.29427,0.24479 -0.64194,0.47396 -1.043,0.6875zM276.71622,193.49222c0.375,-0.25521 0.67318,-0.49349 0.89453,-0.71484h-1.707c0.22396,0.28646 0.49479,0.52474 0.8125,0.71484zM272.56002,189.04302h1.6641v0.44141h-1.6641zM272.56002,189.76177h1.6641v0.44922h-1.6641zM275.72802,189.04302h1.7148v0.44141h-1.7148zM275.72802,189.76177h1.7148v0.44922h-1.7148zM272.98582,191.35557h4.8633v0.51172h-4.8633z"/><path d="M281.03,193.1c0.013,0.013 0.02993,0.02993 0.0508,0.0508c0.22396,0.22917 0.47656,0.39583 0.75781,0.5c0.45313,0.16667 1.00783,0.25 1.6641,0.25h3.4219c-0.09896,0.1901 -0.1836,0.43749 -0.25391,0.74218h-3.1914c-0.8802,0 -1.54947,-0.11588 -2.0078,-0.34765c-0.27083,-0.13802 -0.52995,-0.34115 -0.77735,-0.60938c-0.36719,0.46094 -0.73829,0.84114 -1.1133,1.1406l-0.4375,-0.78906c0.39063,-0.2474 0.74479,-0.50912 1.0625,-0.78516v-2.0156h-1v-0.76953h1.8242zM283.573,191.8734c-0.47657,0.62761 -1.0534,1.14194 -1.7305,1.543l-0.53125,-0.59765c0.78387,-0.38542 1.46877,-0.92709 2.0547,-1.625h-1.6055v-1.9844h1.8125v-0.53516h-2.1172v-0.70312h2.1172v-0.76953h0.80078v0.76953h2.1875v0.70312h-2.1875v0.53516h1.8828v1.9844h-1.8828v0.15234c0.72653,0.31511 1.4635,0.71484 2.2109,1.1992l-0.50391,0.67187c-0.51823,-0.41145 -1.08723,-0.80339 -1.707,-1.1758v1.6328h-0.80078zM283.573,189.8187h-1.043v0.78125h1.043zM284.37378,189.8187v0.78125h1.1055v-0.78125zM280.51828,189.24838c-0.37239,-0.58333 -0.76433,-1.08203 -1.1758,-1.4961l0.64062,-0.49609c0.45573,0.42447 0.86067,0.90494 1.2148,1.4414z"/><path d="M288.77,188.02v-0.8164h0.81641v0.8164h1.2148v0.6875h-1.2148v0.67188h1.3828v0.69531h-0.46484c-0.08333,0.3099 -0.19531,0.63803 -0.33594,0.98438h0.7539v0.67968h-1.3359v0.72266h1.2852v0.69531h-1.2852v1.6484h-0.81641v-1.6484h-1.3789v-0.69531h1.3789v-0.72266h-1.4414v-0.67968h0.71875c-0.08333,-0.34635 -0.18489,-0.67448 -0.30468,-0.98438h-0.57422v-0.69531h1.6016v-0.67188h-1.2734v-0.6875zM289.74266,190.0747h-1.2422c0.08854,0.2474 0.18359,0.57553 0.28516,0.98438h0.64843c0.13542,-0.33333 0.23829,-0.66146 0.3086,-0.98438zM294.48096,187.4849v1.8281c0,0.22657 -0.04167,0.38672 -0.125,0.48047c-0.09896,0.11198 -0.30599,0.16797 -0.6211,0.16797c-0.30729,0 -0.61458,-0.01303 -0.92187,-0.0391l-0.13281,-0.70313c0.43229,0.04687 0.70703,0.0703 0.82422,0.0703c0.12239,0 0.18359,-0.05339 0.18359,-0.16016v-0.94141h-1.7109v2.2695h2.2148l0.46484,0.39844c-0.14063,0.82813 -0.39714,1.56773 -0.76953,2.2188l-0.043,0.0781c0.28646,0.33073 0.64453,0.63281 1.0742,0.90625l-0.4375,0.73047c-0.41146,-0.26563 -0.77866,-0.58334 -1.1016,-0.95313c-0.27865,0.35417 -0.59245,0.6875 -0.94141,1l-0.46094,-0.64062v0.60937h-0.79297v-7.3203zM291.97706,191.1607v2.9531c0.32031,-0.21875 0.62891,-0.52604 0.92578,-0.92187c-0.39843,-0.61459 -0.67838,-1.29165 -0.83984,-2.0312zM293.33646,192.5005c0.23177,-0.44791 0.38281,-0.89451 0.45312,-1.3398h-1.0078c0.12761,0.5 0.3125,0.9466 0.55469,1.3398z"/><path d="M295.37,188.93h1.7266c0.07813,-0.40104 0.16537,-0.89974 0.26172,-1.4961l0.0195,-0.11328l0.85547,0.1289c-0.08854,0.55209 -0.17969,1.04559 -0.27344,1.4805h0.47266c0.625,0 1.07293,0.14063 1.3438,0.42188c0.24219,0.2526 0.36328,0.64583 0.36328,1.1797c0,0.89847 -0.09505,1.7383 -0.28516,2.5195c-0.10937,0.44271 -0.24219,0.76954 -0.39844,0.98047c-0.19791,0.26302 -0.47265,0.39453 -0.82421,0.39453c-0.42188,0 -0.88281,-0.13542 -1.3828,-0.40625l0.0977,-0.82421c0.49479,0.23697 0.87889,0.35546 1.1523,0.35546c0.14323,0 0.25391,-0.07682 0.33203,-0.23046c0.08333,-0.16667 0.16276,-0.40755 0.23829,-0.72266c0.14843,-0.63802 0.22265,-1.30859 0.22265,-2.0117c0,-0.36979 -0.07422,-0.60938 -0.22265,-0.71875c-0.12761,-0.09115 -0.35547,-0.13672 -0.6836,-0.13672h-0.60156c-0.41406,1.84373 -1.00779,3.41667 -1.7812,4.7188l-0.78516,-0.42969c0.79947,-1.34113 1.36977,-2.77083 1.7109,-4.2891h-1.5586zM301.8583,192.7855c-0.29427,-1.08333 -0.75911,-2.14713 -1.3945,-3.1914l0.76172,-0.34375c0.65625,1.04687 1.14711,2.10027 1.4726,3.1602zM301.28017,189.0433c-0.16145,-0.42187 -0.42187,-0.89061 -0.78125,-1.4062l0.60547,-0.22656c0.31511,0.44531 0.57943,0.90755 0.79297,1.3867zM302.33097,188.70736c-0.20312,-0.5026 -0.46223,-0.97527 -0.77734,-1.418l0.57422,-0.19141c0.29948,0.35677 0.5612,0.80207 0.78516,1.3359z"/><path d="M306.58,188.85v-0.59375h-3.1484v-0.71875h7.1445v0.71875h-3.1641v0.59375h2.7383v3.168h-2.7578c-0.00267,0.0182 -0.004,0.03643 -0.004,0.0547c-0.02867,0.45833 -0.14585,0.86327 -0.35156,1.2148c1.0104,0.35417 2.2643,0.59765 3.7617,0.73046l-0.48047,0.76172c-1.45573,-0.16927 -2.71353,-0.46874 -3.7734,-0.89843c-0.30208,0.26302 -0.69141,0.47526 -1.168,0.63671c-0.42709,0.14583 -0.98049,0.26172 -1.6602,0.34766l-0.42188,-0.74219c1.05207,-0.07812 1.86327,-0.27734 2.4336,-0.59765c-0.5599,-0.27605 -1.07813,-0.59766 -1.5547,-0.96485l0.57422,-0.48828c0.49739,0.38542 1.00649,0.69141 1.5273,0.91797c0.15105,-0.25781 0.2474,-0.58203 0.28907,-0.97266h-2.7188v-3.168zM306.58,189.475h-1.8945v0.6289h1.8945zM307.41203,189.475v0.6289h1.8984v-0.6289zM306.58,190.7055h-1.8945v0.67969h1.8945zM307.41203,190.7055v0.67969h1.8984v-0.67969z"/><path d="M313.62,192.11c0.37761,0.20573 0.79557,0.4948 1.2539,0.86719l-0.44532,0.72656c-0.29427,-0.33073 -0.5638,-0.60286 -0.80859,-0.8164v1.9141h-0.80078v-2.0859c-0.35157,0.64583 -0.76953,1.1862 -1.2539,1.6211l-0.45703,-0.73828c0.58073,-0.41146 1.06379,-0.92319 1.4492,-1.5352h-1.2344v-0.6875h1.4961v-0.76172h-1.6484v-0.71875h0.85547c-0.06771,-0.33073 -0.16276,-0.69139 -0.28516,-1.082h-0.41797v-0.72656h1.4805v-0.88672h0.83203v0.88672h1.418v0.72656h-0.41797c-0.09635,0.39063 -0.21614,0.75129 -0.35937,1.082h0.89453v0.71875h-1.5508v0.76172h1.4062v0.6875h-1.4062zM312.5184,188.8131c0.09895,0.32552 0.18489,0.68619 0.25781,1.082h0.77344c0.11979,-0.33594 0.22265,-0.69661 0.30859,-1.082zM316.1942,190.7115c0.00267,0.80727 -0.05983,1.55597 -0.1875,2.2461c-0.13281,0.71613 -0.36849,1.35677 -0.70703,1.9219l-0.64453,-0.58985c0.28906,-0.46875 0.48698,-1.04428 0.59375,-1.7266c0.09375,-0.58333 0.14062,-1.32813 0.14062,-2.2344v-2.4492c0.05207,-0.00533 0.13149,-0.01313 0.23828,-0.0234c0.82813,-0.07813 1.65757,-0.25651 2.4883,-0.53516l0.51172,0.67965c-0.69273,0.23437 -1.50263,0.41536 -2.4297,0.54297v1.3516h2.6211v0.81641h-0.89453v4.0898h-0.8086v-4.0898z"/><path d="M319.47,188.74h3.1367c-0.16927,-0.44531 -0.32421,-0.88801 -0.46484,-1.3281l0.85547,-0.05469c0.13541,0.46355 0.29817,0.92448 0.48828,1.3828h2.8867v0.80078h-2.5195c0.33593,0.69533 0.7565,1.4206 1.2617,2.1758l-0.82032,0.39062c-0.55729,-0.84373 -1.01432,-1.6992 -1.3711,-2.5664h-3.4531zM325.1497,194.5017c-0.51823,0.02867 -0.97656,0.043 -1.375,0.043c-1.08333,0 -1.8815,-0.08463 -2.3945,-0.2539c-0.92707,-0.30209 -1.3906,-0.87239 -1.3906,-1.7109c0,-0.51563 0.16016,-0.93099 0.48047,-1.2461l0.73437,0.39843c-0.21354,0.21094 -0.32031,0.48698 -0.32031,0.82813c0,0.43489 0.23437,0.73958 0.70312,0.91406c0.41407,0.15365 1.10677,0.23047 2.0781,0.23047c0.41146,0 0.87499,-0.01953 1.3906,-0.0586z"/><path d="M328.83,187.38h0.86328v2.207c0.61979,-0.64323 1.11589,-1.08463 1.4883,-1.3242c0.34635,-0.22396 0.70572,-0.33594 1.0781,-0.33594c0.375,0 0.67708,0.10547 0.90625,0.31641c0.30208,0.28125 0.45312,0.64975 0.45312,1.1055c0,0.11979 -0.01563,0.27865 -0.0469,0.47656c-0.22917,1.45573 -0.34375,2.46353 -0.34375,3.0234c0,0.23958 0.0612,0.35937 0.18359,0.35937c0.07813,0 0.18099,-0.04427 0.3086,-0.13281c0.26823,-0.18489 0.53906,-0.48828 0.8125,-0.91015l0.32031,0.89453c-0.16667,0.26562 -0.3737,0.5013 -0.6211,0.70703c-0.28645,0.23958 -0.59244,0.35937 -0.91796,0.35937c-0.3099,0 -0.55079,-0.10807 -0.72266,-0.32422c-0.14583,-0.18489 -0.21875,-0.49349 -0.21875,-0.92578c0,-0.32812 0.04297,-0.82162 0.12891,-1.4805c0.10937,-0.82813 0.18229,-1.44273 0.21875,-1.8438c0.00533,-0.06513 0.008,-0.11982 0.008,-0.16406c0,-0.22917 -0.04818,-0.40495 -0.14453,-0.52734c-0.09115,-0.11719 -0.21745,-0.17578 -0.37891,-0.17578c-0.54427,0 -1.38151,0.72527 -2.5117,2.1758v3.6875h-0.86328v-2.7031c-0.43489,0.60938 -0.83593,1.18491 -1.2031,1.7266l-0.40625,-0.92579c0.61719,-0.7474 1.15365,-1.45963 1.6094,-2.1367v-0.99219h-1.3711v-0.78516h1.3711z"/><path d="M335.5,188.59h1.8242c0.07292,-0.32291 0.15495,-0.74088 0.2461,-1.2539l0.88281,0.10937c-0.07813,0.40365 -0.16146,0.78515 -0.25,1.1445h2.6016v0.77735h-2.7852c-0.52083,2.08073 -1.09637,3.806 -1.7266,5.1758l-0.86328,-0.30469c0.68493,-1.5182 1.25523,-3.1419 1.7109,-4.8711h-1.6406zM342.4141,194.3361c-0.42187,0.05467 -0.89584,0.082 -1.4219,0.082c-0.85153,0 -1.49477,-0.07292 -1.9297,-0.21875c-0.16667,-0.05727 -0.3086,-0.138 -0.42579,-0.24219c-0.22917,-0.20833 -0.34375,-0.47396 -0.34375,-0.79687c0,-0.33073 0.10677,-0.6224 0.32032,-0.875l0.69531,0.41015c-0.08073,0.10157 -0.12109,0.21355 -0.12109,0.33594c0,0.21094 0.09635,0.34766 0.28906,0.41016c0.29427,0.09375 0.71353,0.14062 1.2578,0.14062c0.52865,0 1.05598,-0.03906 1.582,-0.11719zM338.75,190.465c1.0208,-0.11719 2.138,-0.17969 3.3516,-0.1875l0.0391,0.79297c-1.19013,0.00533 -2.28257,0.06132 -3.2773,0.16797z"/><path d="M346.4,189.95c-0.14323,-0.14063 -0.28645,-0.26172 -0.42968,-0.36328c-0.08855,0.09896 -0.20443,0.21745 -0.34766,0.35547l-0.42578,-0.48047c0.59635,-0.625 1.02605,-1.375 1.2891,-2.25l0.70313,0.11719c-0.02607,0.08333 -0.06253,0.19531 -0.10938,0.33594h0.74219l0.35937,0.47656c-0.22917,0.7448 -0.57943,1.41407 -1.0508,2.0078h2.2344c-0.38802,-0.39844 -0.70313,-0.86981 -0.94532,-1.4141c-0.15885,-0.36459 -0.30208,-0.81382 -0.42968,-1.3477l0.6875,-0.13672c0.14843,0.64844 0.35286,1.18881 0.61328,1.6211c0.24479,-0.25781 0.42448,-0.47787 0.53906,-0.66016h-0.80078v-0.625h1.2891l0.45703,0.41797c-0.30989,0.50521 -0.67449,0.97394 -1.0938,1.4062c0.34375,0.38802 0.75262,0.71094 1.2266,0.96875l-0.45313,0.64844c-0.38281,-0.25261 -0.71615,-0.51563 -1,-0.78907v0.60547h-2.6016v-0.38281c-0.26302,0.26823 -0.57161,0.51823 -0.92578,0.75l-0.48047,-0.51172c0.36979,-0.21615 0.6875,-0.46615 0.95312,-0.75zM346.75547,189.52031c0.05993,-0.08333 0.11723,-0.17057 0.17188,-0.26171l0.0273,-0.0391c-0.17708,-0.1276 -0.33724,-0.22786 -0.48047,-0.30078c-0.06507,0.09896 -0.12757,0.19011 -0.1875,0.27344c0.16146,0.09115 0.31771,0.20052 0.46875,0.32812zM346.83747,188.25081c-0.03907,0.08594 -0.07683,0.16407 -0.11328,0.23438c0.16407,0.07031 0.32422,0.15625 0.48047,0.25781c0.06247,-0.13541 0.12887,-0.29948 0.19922,-0.49219zM344.10307,193.13751v1.668h-0.76172v-7.3125h1.9531l0.33594,0.30469c-0.17708,0.7526 -0.40885,1.5039 -0.69531,2.2539c0.40885,0.57553 0.61328,1.23309 0.61328,1.9727c0,0.42969 -0.05859,0.72786 -0.17578,0.89453c-0.11979,0.17448 -0.35156,0.26172 -0.69531,0.26172c-0.17709,0 -0.36849,-0.01433 -0.57422,-0.043zM344.07567,192.3797c0.17448,0.02347 0.31641,0.0352 0.42579,0.0352c0.1276,0 0.20703,-0.02603 0.23828,-0.0781c0.03387,-0.05467 0.0508,-0.18487 0.0508,-0.39062c0,-0.66146 -0.1888,-1.26823 -0.56641,-1.8203l0.0391,-0.11328c0.23177,-0.625 0.41276,-1.22527 0.54297,-1.8008h-0.73047zM348.54837,192.18048v1.9102c0,0.27865 -0.0651,0.46745 -0.19531,0.5664c-0.10677,0.07813 -0.29948,0.11719 -0.57813,0.11719c-0.29948,0 -0.56771,-0.01953 -0.80468,-0.0586l-0.16797,-0.75c0.35156,0.05727 0.60807,0.0859 0.76953,0.0859c0.09635,0 0.15234,-0.02343 0.16797,-0.0703c0.0104,-0.02607 0.0156,-0.06643 0.0156,-0.12109v-1.6797h-2.0703v-0.71094h5.0625v0.71094zM345.21247,193.94608c0.47917,-0.4375 0.85547,-0.95963 1.1289,-1.5664l0.76172,0.27344c-0.29948,0.67967 -0.70311,1.28123 -1.2109,1.8047zM350.23587,194.35623c-0.38541,-0.58854 -0.80858,-1.11457 -1.2695,-1.5781l0.65625,-0.38282c0.49479,0.44531 0.92969,0.93358 1.3047,1.4648z"/><path d="M351.89,194.46c-0.09896,-0.8854 -0.14844,-1.7656 -0.14844,-2.6406c0,-1.5 0.11068,-2.92447 0.33203,-4.2734l0.85938,0.0898c-0.21094,1.16667 -0.31641,2.48307 -0.31641,3.9492c0,0.9844 0.05469,1.90497 0.16407,2.7617zM354.2338,188.2725h3.7539v0.83203h-3.7539zM358.2533,193.9795c-0.52083,0.08073 -1.13933,0.1211 -1.8555,0.1211c-1.79947,0 -2.6992,-0.52863 -2.6992,-1.5859c0,-0.41927 0.11198,-0.78517 0.33594,-1.0977l0.73828,0.32813c-0.14062,0.19791 -0.21093,0.42057 -0.21093,0.66797c0,0.30469 0.15234,0.51432 0.45703,0.6289c0.33854,0.13021 0.80077,0.19532 1.3867,0.19532c0.63281,0 1.21874,-0.04167 1.7578,-0.125z"/><path d="M252.33,199.64l0.0352,-1.6406h0.78515l-0.0273,1.6406h1.5469c-0.03907,2.72653 -0.13282,4.42707 -0.28125,5.1016c-0.06247,0.28385 -0.16533,0.48307 -0.30859,0.59765c-0.14063,0.10938 -0.36589,0.16407 -0.67578,0.16407c-0.29948,0 -0.58464,-0.01563 -0.85547,-0.0469l-0.16016,-0.80859c0.30729,0.04167 0.58464,0.0625 0.83204,0.0625c0.16667,0 0.27734,-0.04688 0.33203,-0.14063c0.15365,-0.26563 0.26042,-1.64973 0.32031,-4.1523h-0.80469c-0.07031,1.17707 -0.2474,2.1458 -0.53125,2.9062c-0.33593,0.90107 -0.79817,1.65757 -1.3867,2.2695l-0.55859,-0.60938c0.57813,-0.56771 0.99869,-1.28254 1.2617,-2.1445c0.21875,-0.70833 0.36458,-1.51563 0.4375,-2.4219h-1.0352v-0.58985h-4.043v-0.74218h1.7774v-1.0859h0.83203v1.0859h1.582v0.55468zM249.1034,203.3197c-0.32552,-0.36979 -0.67189,-0.71876 -1.0391,-1.0469l0.51953,-0.54688c0.25781,0.22135 0.57422,0.51823 0.94922,0.89063c0.20052,-0.35938 0.375,-0.72788 0.52343,-1.1055l0.71875,0.35156c-0.14843,0.38542 -0.37109,0.84245 -0.66797,1.3711c0.29167,0.32813 0.54948,0.63933 0.77344,0.9336l-0.60937,0.64844c-0.22657,-0.32813 -0.43751,-0.61328 -0.63282,-0.85547c-0.46614,0.65885 -1.01301,1.19662 -1.6406,1.6133l-0.63281,-0.66406c0.69793,-0.38542 1.27737,-0.91535 1.7383,-1.5898zM247.119,201.6556c0.50261,-0.37761 0.93231,-0.92447 1.2891,-1.6406l0.67968,0.35938c-0.35677,0.7552 -0.8242,1.36847 -1.4023,1.8398zM250.9745,201.90951c-0.35156,-0.51303 -0.77863,-1.02996 -1.2812,-1.5508l0.60156,-0.42187c0.49219,0.45833 0.89976,0.92447 1.2227,1.3984z"/><path d="M260.04,202.78c0.77607,0.67187 1.72007,1.21613 2.832,1.6328l-0.52735,0.75391c-1.19273,-0.53646 -2.1732,-1.23699 -2.9414,-2.1016v2.5352h-0.84766v-2.5039c-0.7422,0.95573 -1.69663,1.694 -2.8633,2.2148l-0.51953,-0.70313c1.1068,-0.42447 2.0508,-1.03384 2.832,-1.8281h-2.8008v-0.69531h3.3516v-0.58203h-2.6406v-3.207h6.1797v3.207h-2.6914v0.58203h3.4023v0.69531zM256.747,198.9206v0.63672h1.8086v-0.63672zM256.747,200.1745v0.70313h1.8086v-0.70313zM261.2626,200.87763v-0.70313h-1.8594v0.70313zM261.2626,199.55733v-0.63672h-1.8594v0.63672z"/><path d="M267.4,198.73h2.832v0.69531h-1.1055c-0.13021,0.40886 -0.27344,0.78516 -0.42969,1.1289h2.1055v0.71094h-7.6016v-0.71094h2.0508c-0.10677,-0.36198 -0.2513,-0.73828 -0.43359,-1.1289h-1.0508v-0.69531h2.7774v-0.72656h0.85547zM265.7398,199.42531c0.15365,0.35157 0.28906,0.72787 0.40625,1.1289h1.6758c0.15365,-0.35677 0.28516,-0.73307 0.39453,-1.1289zM269.5836,201.80421v3.8008h-0.87109v-0.41015h-3.4336v0.41015h-0.86328v-3.8008zM265.2789,202.46827v0.67969h3.4336v-0.67969zM265.2789,203.77297v0.75h3.4336v-0.75z"/><path d="M271.88,199.1h2.1055c0.23177,-0.36979 0.40756,-0.66797 0.52735,-0.89454l0.87109,0.125c-0.07813,0.14063 -0.21615,0.36979 -0.41406,0.6875l-0.0508,0.082h2.7539v0.76953h-3.2734c-0.34115,0.46875 -0.66667,0.87501 -0.97657,1.2188c0.49219,-0.29427 0.94143,-0.44141 1.3477,-0.44141c0.63021,0 1.04297,0.31641 1.2383,0.94922c0.66667,-0.22135 1.34637,-0.4401 2.0391,-0.65625l0.33594,0.75781l-0.13672,0.0391l-0.38672,0.10157c-0.7292,0.19791 -1.31253,0.36718 -1.75,0.50781c0.03127,0.33854 0.0534,0.77604 0.0664,1.3125l-0.85547,0.0469c-0.00267,-0.30989 -0.00787,-0.64583 -0.0156,-1.0078v-0.0781c-1.19793,0.40885 -1.7969,0.82032 -1.7969,1.2344c0,0.21354 0.15365,0.35937 0.46094,0.4375c0.29687,0.07552 0.82814,0.11328 1.5938,0.11328c0.70573,0 1.44663,-0.04036 2.2227,-0.12109l0.0937,0.83203c-0.7526,0.05727 -1.53253,0.0859 -2.3398,0.0859c-0.9948,0 -1.70183,-0.07552 -2.1211,-0.22656c-0.51823,-0.1875 -0.77735,-0.52473 -0.77735,-1.0117c0,-0.41146 0.1836,-0.77473 0.55079,-1.0898c0.38021,-0.32552 1.04947,-0.66145 2.0078,-1.0078c-0.05207,-0.20052 -0.12108,-0.34114 -0.20703,-0.42187c-0.09635,-0.09115 -0.22396,-0.13672 -0.38282,-0.13672c-0.25781,0 -0.58202,0.09766 -0.97265,0.29297c-0.48177,0.23958 -0.99871,0.60025 -1.5508,1.082l-0.51953,-0.59375c0.80987,-0.7526 1.44397,-1.4922 1.9023,-2.2188h-1.5898z"/><path d="M282.56,199.73v-0.70312h-3.168v-0.70313h7.2148v0.70313h-3.2148v0.70312h2.4961v2.9961h0.91015v0.71875h-0.91015v1.3594c0,0.27865 -0.07813,0.47266 -0.23438,0.58203c-0.125,0.08594 -0.33203,0.12891 -0.62109,0.12891c-0.33073,0 -0.75779,-0.01563 -1.2812,-0.0469l-0.15234,-0.80859c0.50781,0.05727 0.92447,0.0859 1.25,0.0859c0.10156,0 0.16015,-0.02083 0.17578,-0.0625c0.0104,-0.02867 0.0156,-0.07424 0.0156,-0.13672v-1.1016h-4.082v2.1602h-0.84766v-2.1602h-0.91015v-0.71875h0.91015v-2.9961zM282.56,200.40969h-1.6016v0.80078h1.6016zM283.39203,200.40969v0.80078h1.6484v-0.80078zM282.56,201.85109h-1.6016v0.875h1.6016zM283.39203,201.85109v0.875h1.6484v-0.875z"/><path d="M289.12,199.43h1.5195v-1.4336h0.89453v1.4336h2.8047v0.81641h-2.8047v1.6445h2.5625v0.80078h-2.5625v1.8086h3.1133v0.8164h-7.2226v-0.8164h3.2148v-1.8086h-2.7109v-0.80078h2.7109v-1.6445h-1.875c-0.23177,0.45313 -0.50521,0.87369 -0.82031,1.2617l-0.70313,-0.58203c0.625,-0.71613 1.07553,-1.6315 1.3516,-2.7461l0.87109,0.16016c-0.11198,0.42187 -0.22656,0.78514 -0.34375,1.0898z"/><path d="M295.97,198.33h0.92187v4.6562c0,0.9818 0.51563,1.4727 1.5469,1.4727c0.67967,0 1.23697,-0.3138 1.6719,-0.94141c0.28125,-0.40364 0.53386,-1.02864 0.75782,-1.875l0.79297,0.48047c-0.26563,0.94013 -0.58464,1.64327 -0.95704,2.1094c-0.58593,0.72653 -1.34767,1.0898 -2.2852,1.0898c-0.9792,0 -1.6693,-0.30208 -2.0703,-0.90625c-0.25261,-0.3776 -0.37891,-0.86457 -0.37891,-1.4609z"/><path d="M305.6,198.18h0.86328v0.98438h2.457v0.74219h-2.457v0.92968h2.3203v0.73438h-2.3203v1.207c0.92707,0.3125 1.84113,0.78257 2.7422,1.4102l-0.46094,0.74218c-0.68227,-0.51041 -1.44267,-0.96095 -2.2812,-1.3516c-0.0208,0.44531 -0.10674,0.79038 -0.25781,1.0352c-0.26302,0.42448 -0.78125,0.63672 -1.5547,0.63672c-0.59635,0 -1.07552,-0.11198 -1.4375,-0.33594c-0.40365,-0.25 -0.60547,-0.58853 -0.60547,-1.0156c0,-0.51041 0.27214,-0.88801 0.81641,-1.1328c0.36459,-0.16146 0.83855,-0.24219 1.4219,-0.24219c0.22917,0 0.48047,0.01823 0.7539,0.0547v-1.0078h-2.7695v-0.73438h2.7695v-0.92968h-2.9375v-0.74219h2.9375zM305.6,203.305c-0.30989,-0.06507 -0.60677,-0.0976 -0.89062,-0.0976c-0.34635,0 -0.6276,0.05078 -0.84375,0.15234c-0.25781,0.12239 -0.38672,0.29687 -0.38672,0.52344c0,0.1901 0.10026,0.34375 0.30078,0.46094c0.20313,0.11979 0.47396,0.17968 0.8125,0.17968c0.40104,0 0.67708,-0.10677 0.82812,-0.32031c0.11979,-0.16667 0.17969,-0.41536 0.17969,-0.74609z"/><path d="M313.89,198.16h0.87891v1.0781h2.3047v0.75391h-2.3047v1.6719c0.09115,0.32031 0.13672,0.60547 0.13672,0.85547c0,0.92707 -0.20443,1.60807 -0.61329,2.043c-0.44531,0.47656 -1.11587,0.80599 -2.0117,0.98828l-0.44532,-0.66406c0.69533,-0.13281 1.21097,-0.32031 1.5469,-0.5625c0.3151,-0.22917 0.52734,-0.54037 0.63672,-0.9336c-0.27865,0.30469 -0.61068,0.45704 -0.9961,0.45704c-0.43229,0 -0.78255,-0.1224 -1.0508,-0.36719c-0.3151,-0.28907 -0.47265,-0.70833 -0.47265,-1.2578c0,-0.28907 0.06901,-0.56771 0.20703,-0.83594c0.09115,-0.17187 0.20312,-0.3151 0.33593,-0.42969c0.30729,-0.26041 0.67579,-0.39062 1.1055,-0.39062c0.27344,0 0.52084,0.0651 0.74219,0.19531v-0.76953h-3.8555v-0.75391h3.8555zM313.9212,202.2147v-0.14453c0,-0.16667 -0.03906,-0.3138 -0.11719,-0.4414c-0.14583,-0.23959 -0.35677,-0.35938 -0.63281,-0.35938c-0.14063,0 -0.27214,0.03906 -0.39453,0.11719c-0.28646,0.17969 -0.42969,0.45573 -0.42969,0.82812c0,0.23438 0.05208,0.4323 0.15625,0.59375c0.14583,0.22396 0.36068,0.33594 0.64453,0.33594c0.25781,0 0.46224,-0.11589 0.61328,-0.34766c0.10677,-0.16406 0.16016,-0.35807 0.16016,-0.58203z"/></g></g></g></svg>