<?xml version="1.0" encoding="UTF-8"?>
<svg width="480" height="360" version="1.1" viewBox="0 0 480 360" xmlns="http://www.w3.org/2000/svg">
 <g dominant-baseline="central" fill="#fff" aria-label="長野県中部">
  <path d="m254.23 185.08q1.9629 1.3867 5.3418 2.2656l-1.3574 1.8555q-4.4336-1.25-7.0215-4.1211-1.543-1.6992-2.2852-3.877h-2.7539v5.6738q2.5098-0.45898 5.3223-1.2109l0.13672 1.8555q-4.6094 1.3184-9.1406 2.0606l-0.69336-2.0215q1.543-0.19531 2.1582-0.29297v-6.0644h-3.4375v-1.6602h3.4375v-8.4082h13.496v1.6406h-11.279v1.1621h10.381v1.582h-10.381v1.1816h10.381v1.543h-10.381v1.2988h13.34v1.6602h-2.666l1.543 1.3379q-1.8555 1.3379-4.1406 2.5391zm-1.4062-1.1523q2.2558-1.4062 3.7793-2.7246h-5.6934q0.6543 1.5137 1.9141 2.7246z" dominant-baseline="central"/>
  <path d="m270.08 171.22v8.9551h-3.4766v1.9238h3.5547v1.7578h-3.5547v2.1582q0.19531-0.0293 0.52735-0.0781 1.3965-0.20508 3.4863-0.5957l0.12696 1.7383q-4.6289 1.0352-9.8633 1.6797l-0.59571-1.9824q2.2363-0.20507 4.2285-0.46875l0.10742-0.0195v-2.4316h-3.7793v-1.7578h3.7793v-1.9238h-3.4375v-8.9551zm-7.1973 1.6602v1.9727h1.8262v-1.9727zm0 3.5742v2.0605h1.8262v-2.0605zm5.5176 2.0605v-2.0605h-1.875v2.0605zm0-3.6621v-1.9727h-1.875v1.9727zm7.6562 1.2891q0.3125 0.2832 0.92773 0.8789l-0.91797 0.82032h2.8418l0.83984 0.8789q-0.97656 3.1543-1.8164 4.9609l-1.8848-0.60547q0.80078-1.5234 1.3965-3.3984h-1.875v8.1152q0 0.86914-0.32227 1.2598-0.38086 0.44922-1.5332 0.44922-1.25 0-2.4024-0.16601l-0.32226-1.9629q1.5234 0.18554 2.0898 0.18554 0.27344 0 0.35156-0.12695 0.0586-0.11719 0.0586-0.37109v-7.3828h-2.7637v-1.8359h4.3555q-1.5723-1.6113-3.4766-2.959l1.3477-1.2012q0.80078 0.55664 1.8359 1.377 0.85937-0.89843 1.6406-2.0801h-5.3418v-1.7578h7.2461l0.95703 1.0547q-1.582 2.2754-3.2324 3.8672z" dominant-baseline="central"/>
  <path d="m296.76 170.98v9.4629h-11.621v-9.4629zm-9.5215 1.543v1.2207h7.4023v-1.2207zm0 2.5977v1.2207h7.4023v-1.2207zm0 2.5976v1.2598h7.4023v-1.2598zm-3.9356 4.0234h16.191v1.6992h-8.0762v6.0644h-2.2168v-6.0644h-8.0371v-10.957h2.1387zm-2.5 5.8984q2.3242-1.0742 4.4434-3.6035l1.7969 1.0449q-2.0898 2.6465-4.6387 4.1602zm16.836 1.2598q-1.4941-1.8359-4.4922-3.8574l1.6797-1.1816q2.3535 1.3574 4.6191 3.5644z" dominant-baseline="central"/>
  <path d="m308.84 174.08v-3.584h2.1973v3.584h7.2461v10.332h-2.1582v-1.3574h-5.0879v6.4453h-2.1973v-6.4453h-4.9609v1.4648h-2.1582v-10.439zm-4.9609 2.002v4.9707h4.9609v-4.9707zm12.246 4.9707v-4.9707h-5.0879v4.9707z" dominant-baseline="central"/>
  <path d="m326.98 172.75h4.1797v1.8848h-1.377q-0.3711 1.4941-0.9961 3.1348h2.6074v1.8848h-10.898v-1.8848h2.3926q-0.39062-1.875-0.82031-3.1348h-1.2695v-1.8848h4.1406v-2.2559h2.041zm-2.9394 1.8848q0.49805 1.4551 0.77148 3.1348h1.9922l0.09766-0.27344q0.41992-1.1133 0.78125-2.5293l0.0879-0.33203zm6.0547 6.6602v7.998h-2.002v-0.95703h-4.2578v1.1621h-2.0606v-8.2031zm-6.2598 1.7969v3.3887h4.2578v-3.3887zm13.047-4.9316q1.1621 1.1035 1.8457 2.627 0.67383 1.5234 0.67383 3.0859 0 1.4453-0.53711 2.1289-0.55664 0.71289-1.8359 0.71289-1.0938 0-2.1191-0.15625l-0.47852-2.0801q1.1816 0.21485 1.9531 0.21485 0.58594 0 0.73242-0.27344 0.0977-0.19531 0.0977-0.78125 0-2.4121-1.4453-4.1602-0.38086-0.45898-0.95703-0.98633l0.11719-0.27343q1.0156-2.2949 1.582-4.7852h-2.5v16.064h-2.0215v-18.086h5.8789l1.084 0.99609q-0.98633 3.3594-2.0703 5.752z" dominant-baseline="central"/>
 </g>
</svg>
