<svg xmlns="http://www.w3.org/2000/svg" viewBox="0 0 400 400" version="1.1" height="400" width="400"><defs><radialGradient gradientUnits="userSpaceOnUse" gradientTransform="translate(-40,20)" r="200" cy="180" cx="240" id="a"><stop offset="0" stop-color="#e52a18"></stop><stop offset=".4" stop-color="#e52a18"></stop><stop offset=".55" stop-opacity=".56078" stop-color="#e52a18"></stop><stop offset=".7" stop-opacity=".25098" stop-color="#e52a18"></stop><stop offset=".85" stop-opacity=".058824" stop-color="#e52a18"></stop><stop offset="1" stop-opacity="0" stop-color="#e52a18"></stop></radialGradient></defs><path style="mix-blend-mode:normal" stroke-width="0" stroke-miterlimit="10" fill="none" d="m0 400v-400h400v400z"></path><path style="mix-blend-mode:normal" stroke-miterlimit="10" opacity=".12" fill-rule="evenodd" fill="url(#a)" d="m0 200c0-110.46 89.543-200 200-200s200 89.543 200 200c0 110.46-89.543 200-200 200s-200-89.543-200-200z"></path><path style="mix-blend-mode:normal" stroke-width="13" stroke="#f5947c" fill-rule="evenodd" fill="#e52a18" d="m120 100h160c11.08 0 20 8.92 20 20v160c0 11.08-8.92 20-20 20h-160c-11.08 0-20-8.92-20-20v-160c0-11.08 8.92-20 20-20z"></path><path style="font-feature-settings:normal;font-variant-alternates:normal;font-variant-caps:normal;font-variant-east-asian:normal;font-variant-ligatures:normal;font-variant-numeric:normal;font-variant-position:normal;font-variation-settings:normal;inline-size:0;isolation:auto;mix-blend-mode:normal;shape-margin:0;shape-padding:0;text-decoration-color:#000000;text-decoration-line:none;text-decoration-style:solid;text-indent:0;text-orientation:mixed;text-transform:none;white-space:normal" stop-color="#000000" shape-rendering="auto" image-rendering="auto" fill="#fff" color-rendering="auto" color="#000000" d="m156.32 148.38-0.09766 0.88867-6.5508 59.273 16.074 2.6445 0.35742-0.53711c4.2857-6.4288 10.895-9.6094 20.244-9.6094 6.8393 0 12.025 2.0815 15.824 6.248h0.00195c3.5177 3.8448 5.2812 8.7784 5.2812 14.988 0 7.1056-2.5058 12.492-7.6094 16.484v0.00195c-3.988 3.1246-8.763 4.6856-14.465 4.6856-5.0694 0-10.232-0.98468-15.504-2.9668h-0.00195c-4.8243-1.804-8.8833-4.3487-12.215-7.6387l-0.79101-0.78125-10.084 12.658 0.63867 0.63086c9.6481 9.5604 22.459 14.342 38.215 14.342 10.917 0 20.148-2.8794 27.557-8.6562h0.00195c8.901-6.9622 13.402-16.612 13.402-28.631 0-5.3463-0.83291-10.243-2.5137-14.666-3.0018-7.8573-8.3377-13.774-15.881-17.613l-0.0039-0.00195c-5.3785-2.7768-11.153-4.1699-17.275-4.1699-8.369 0-15.817 2.2495-22.32 6.5703l3.4805-27.902h48.586v-16.242h-64.352z"></path><path style="font-feature-settings:normal;font-variant-alternates:normal;font-variant-caps:normal;font-variant-east-asian:normal;font-variant-ligatures:normal;font-variant-numeric:normal;font-variant-position:normal;font-variation-settings:normal;inline-size:0;isolation:auto;mix-blend-mode:normal;shape-margin:0;shape-padding:0;text-decoration-color:#000000;text-decoration-line:none;text-decoration-style:solid;text-indent:0;text-orientation:mixed;text-transform:none;white-space:normal" stop-color="#000000" shape-rendering="auto" image-rendering="auto" fill="#fff" color-rendering="auto" color="#000000" d="m219.03 172.27v15.213h46.086v-15.213h-46.086z"></path></svg>
