<?xml version="1.0" encoding="UTF-8"?>
<svg width="480" height="360" version="1.1" viewBox="0 0 480 360" xmlns="http://www.w3.org/2000/svg">
 <g dominant-baseline="central" fill="#fff" aria-label="紋別地方">
  <path d="m252.66 183.83q-2.2754-3.2617-3.0469-8.0664h-1.1914v-1.2695q-1.6211 2.1094-4.1309 4.6973 1.6309-0.0976 2.9102-0.23437-0.26368-0.79102-0.61524-1.5723l1.582-0.625q0.78125 1.5332 1.5527 4.248l-1.6992 0.75195q-0.18555-0.71289-0.28321-1.0742l-0.0781-0.27343q-0.9668 0.15625-1.4844 0.22461l-0.2539 0.0391v8.8281h-1.9629v-8.6035l-0.23438 0.0293q-1.4355 0.14649-2.8613 0.23438l-0.40039-1.8164 0.6543-0.0195q0.44922-0.0195 0.94727-0.0391 0.74218-0.79102 1.2988-1.4551-1.2109-1.7285-2.8223-3.291l1.2012-1.4062q0.20508 0.20507 0.41016 0.41015l0.12695 0.12695q1.0644-1.5039 1.9629-3.291l1.7578 0.97656q-1.0938 1.7578-2.6074 3.5644 0.94727 1.1816 1.1524 1.4844 1.416-1.7188 2.6953-3.6426l1.3379 1.0547h4.1309v-3.3984h2.1387v3.3984h4.6582v1.9434h-1.5723l-0.0293 0.18555q-0.57617 4.1308-2.7539 7.7539 2.0606 2.2754 4.7363 3.584l-1.2207 2.0801q-2.4414-1.3379-4.7559-3.9258-2.0996 2.5195-5.1074 4.1016l-1.2988-1.7383q1.9922-0.88867 3.4082-2.1191 0.86914-0.76172 1.748-1.8555zm1.2109-1.7871q1.5332-2.8418 2.0312-6.2793h-4.4043q0.69336 3.6719 2.373 6.2793zm-13.33 5.1758q0.70312-2.0508 0.87891-5.0977l1.8457 0.21484q-0.14649 3.418-0.87891 5.7227zm6.7578-0.6836q-0.3418-2.4805-0.89844-4.1309l1.6797-0.58593q0.63477 1.7871 1.0254 3.7402z" dominant-baseline="central"/>
  <path d="m265.87 177.75q-0.01 1.0547-0.10742 2.2461h4.7559q-0.16602 6.0156-0.55664 7.6172-0.24414 0.99609-0.89844 1.3476-0.54688 0.29297-1.5527 0.29297-0.94727 0-2.1484-0.15625l-0.36133-2.0215q1.1719 0.27344 2.0801 0.27344 0.65429 0 0.82031-0.4004 0.40039-0.98632 0.57617-5.293h-2.8906l-0.0293 0.16601q-0.67383 4.9024-3.6133 7.5293l-1.5625-1.5332q2.168-1.8164 2.8516-4.7754 0.46875-2.0605 0.5957-5.293h-2.168v-6.5723h8.6426v6.5723zm-2.1875-4.834v3.1934h4.6191v-3.1934zm8.418-0.85937h2.0801v12.334h-2.0801zm4.3262-1.2012h2.1387v16.26q0 1.2793-0.68359 1.7383-0.51758 0.3418-1.8262 0.3418-1.2402 0-2.9883-0.13672l-0.41993-2.1289q1.8457 0.28321 3.0664 0.28321 0.55664 0 0.6543-0.22461 0.0586-0.14649 0.0586-0.49805z" dominant-baseline="central"/>
  <path d="m290.23 178.41v7.7344q0 0.75195 0.64454 0.9082 0.66406 0.16602 3.0371 0.16602 2.3144 0 3.0566-0.23438 0.41992-0.13672 0.54687-0.76172 0.16602-0.8789 0.17578-2.0801l2.041 0.57618q-0.15625 2.8809-0.79102 3.6816-0.41992 0.52734-1.2695 0.625-1.3379 0.14648-4.541 0.14648-2.4805 0-3.252-0.13672-1.1621-0.19531-1.4746-1.0254-0.15625-0.43945-0.15625-1.1719v-7.7441l-1.8652 0.64453-0.45899-1.8945 2.3242-0.80078v-5.2637h1.9824v4.5801l2.0996-0.71289v-5.1465h1.9629v4.4629l3.2715-1.123 1.0254 0.625v7.3144q0 0.76172-0.36133 1.1328-0.41015 0.41015-1.377 0.41015-0.79102 0-1.6797-0.13672l-0.32226-1.8652q0.57617 0.14648 1.1719 0.14648 0.42969 0 0.52734-0.17578 0.0977-0.14648 0.0977-0.48828v-4.6191l-2.3535 0.82031v7.9004h-1.9629v-7.2266zm-7.1777-3.1934v-4.7168h2.0996v4.7168h1.8945v1.9824h-1.8945v6.2109q1.0254-0.35156 2.0312-0.73242l0.18555 1.8848q-3.1641 1.4453-6.4941 2.4219l-0.6836-2.0801q1.5039-0.39062 2.6367-0.74218 0.13672-0.0488 0.22461-0.0684v-6.8945h-2.4805v-1.9824z" dominant-baseline="central"/>
  <path d="m309.48 175.76q-0.0684 1.6309-0.19531 2.8711h7.8711q-0.14648 6.7774-0.76172 8.7988-0.3125 1.0156-1.1621 1.4062-0.66406 0.30273-1.9434 0.30273-1.3477 0-3.0566-0.20507l-0.38085-2.1973q2.2949 0.32227 3.2324 0.32227 0.79101 0 1.0059-0.44922 0.51757-1.0938 0.72265-6.0352h-5.8105q-0.32227 1.7578-0.90821 3.0469-1.6309 3.5644-5.4492 5.6543l-1.543-1.7188q3.8281-1.9922 5.0586-5.2246 0.82031-2.1582 1.0644-6.5723h-6.4648v-2.002h7.9785v-3.2617h2.2559v3.2617h8.2422v2.002z" dominant-baseline="central"/>
 </g>
</svg>
