<?xml version="1.0" encoding="UTF-8"?>
<svg width="208" height="80" version="1.1" viewBox="0 0 208 80" xmlns="http://www.w3.org/2000/svg">
 <rect width="208" height="80" fill-opacity="0" stop-color="#000000"/>
 <g transform="translate(-8,-107)" fill="#1c1c1c" aria-label="最大震度">
  <path d="m49.592 155.99v5.5107h-13.157v-5.5107zm-11.197 1.2568v0.90527h9.2373v-0.90527zm0 2.0566v1.0283h9.2373v-1.0283zm4.3945 4.623v7.3301q1.7139-0.46582 3.1377-1.5996-1.3359-1.5557-2.0215-3.3486h-0.75586v-1.4062h6.7852l0.86133 0.75586q-0.95801 2.3203-2.3994 3.9814 1.292 0.84375 3.2344 1.4326l-1.0811 1.6084q-2.0039-0.75586-3.375-1.8457-1.5029 1.2393-3.5244 1.9688l-0.86133-1.292v1.2041h-1.8193v-1.96q-2.4961 0.50097-6.1787 0.89648l-0.4834-1.6172q1.1602-0.0615 1.9775-0.12304v-5.9854h-1.8369v-1.459h17.104v1.459zm-1.8193 0h-2.8828v1.0635h2.8828zm0 2.2324h-2.8828v1.081h2.8828zm0 2.2324h-2.8828v1.3447q0.74707-0.0791 1.125-0.12304 1.0107-0.10547 1.7578-0.20215zm6.0996 0.14941q0.7998-0.92285 1.4414-2.2324h-2.9795q0.54492 1.1865 1.5381 2.2324z"/>
  <path d="m62.222 161.93q0.60644 2.0566 2.3027 4.377 2.0654 2.8301 5.0801 4.4824l-1.2568 1.8106q-3.1904-1.8809-5.3262-4.9834-1.1514-1.6875-1.8457-3.4365-0.69434 2.3555-2.1533 4.2803-2.1445 2.8477-5.2998 4.2012l-1.2393-1.6084q3.3047-1.3799 5.335-4.2539 1.7051-2.4258 2.0215-4.8691h-7.0137v-1.9072h7.0928v-4.2363h2.0303v4.2363h7.2422v1.9072z"/>
  <path d="m78.007 157.98v-0.75586h-5.4932v-1.2568h12.973v1.2568h-5.6074v0.75586h7.2773v3.1553h-1.9072v-2.0215h-5.3701v3.4189h-1.8721v-3.4189h-5.2734v2.0215h-1.8896v-3.1553zm6.2227 12.472q1.3447 0.50976 3.3574 0.80859l-1.0283 1.4941q-2.8213-0.4834-4.6318-1.6611-1.8018-1.1777-2.8037-2.9268h-1.9424v2.707q1.9424-0.27246 3.6035-0.58008l0.12305 1.3096q-3.0938 0.73828-7.0752 1.2832l-0.51855-1.5469q1.3799-0.14941 1.8896-0.21093l0.10547-0.0176v-2.9443h-1.9248q-0.12305 1.5469-0.4043 2.4697-0.33398 1.1074-1.0723 2.0654l-1.5645-1.292q0.86133-1.1162 1.0723-2.6104 0.11426-0.80859 0.11426-2.0127v-3.7266h15.17v1.1689h-13.28v2.6982h14.036v1.2393h-1.9951l1.1162 0.73828q-0.99316 0.82617-2.3467 1.5469zm-1.3711-0.67676q1.2656-0.86133 2.0127-1.6084h-3.8408q0.75586 0.9668 1.8281 1.6084zm-9.3516-10.011h3.7441v0.99316h-3.7441zm0 1.6172h3.7441v1.0107h-3.7441zm7.1279-1.6172h3.8584v0.99316h-3.8584zm0 1.6172h3.8584v1.0107h-3.8584zm-6.1699 3.5859h10.942v1.1514h-10.942z"/>
  <path d="m98.371 157.19h6.8906v1.4766h-3.9023v1.459h3.6562v1.4238h-3.6562v2.6191h-7.0752v-2.6191h-2.8828v1.6348q0 3.9814-0.42188 6.293-0.3252 1.7578-1.0547 3.208l-1.5996-1.2656q0.66797-1.4502 0.91406-3.542 0.21973-1.8369 0.21973-4.6934v-5.9941h6.9521v-1.582h1.96zm-6.9697 1.4766v1.459h2.8828v-1.459zm4.7549 0v1.459h3.3311v-1.459zm0 2.8828v1.3623h3.3311v-1.3623zm2.0391 9.2285q-2.54 1.3184-6.4512 2.0039l-0.91406-1.6172q3.6738-0.43945 5.7568-1.3447-1.7842-1.292-3.0498-3.0674h-1.2129v-1.5293h10.292l0.92285 0.77343q-1.3096 2.0127-3.7353 3.7881 2.083 0.83496 5.6777 1.2305l-1.0283 1.6611q-3.4453-0.46582-6.2578-1.8984zm-2.6104-4.0254q1.0635 1.248 2.584 2.1973 1.7139-1.1074 2.6455-2.1973z"/>
 </g>
 <g transform="translate(-8,-107)" fill="#1c1c1c" aria-label="推定">
  <path d="m55.952 125.65h4.1748q0.9082-2.3877 1.7139-5.2441l3.0322 0.62988q-0.9375 2.8125-1.7871 4.6143h5.6836v2.666h-6.0498v3.5156h5.127v2.5195h-5.127v3.4863h5.127v2.5195h-5.127v3.7207h6.5332v2.7246h-13.55v2.0508h-2.915v-17.461q-0.67383 1.0693-1.4502 2.124l-1.6992-2.5928q3.3545-4.2334 5.1562-10.679l3.0322 0.65918q-0.87891 2.71-1.875 4.7461zm-0.24902 18.428h4.2334v-3.7207h-4.2334zm0-6.2402h4.2334v-3.4863h-4.2334zm0-6.0059h4.2334v-3.5156h-4.2334zm-10.869-5.9619v-5.5225h3.1787v5.5225h3.0908v2.8564h-3.0908v4.834q1.2744-0.39551 2.6953-0.90821l0.20508 2.8272q-1.0254 0.39551-2.9004 1.084v9.5508q0 1.5381-0.71777 2.1387-0.62988 0.52734-2.124 0.52734-1.6846 0-3.1934-0.29297l-0.60059-3.1494q1.9629 0.27832 2.6807 0.27832 0.5127 0 0.64453-0.17578t0.13184-0.64453v-7.1631q-1.2305 0.39551-3.5156 1.0254l-0.86426-3.0615q2.9443-0.65918 4.3799-1.084v-5.7861h-3.9258v-2.8564z"/>
  <path d="m86.582 144.59q2.4756 0.41016 5.4053 0.41016h7.6025q-0.73242 1.4648-1.084 3.0908h-6.5479q-5.9473 0-9.3896-1.4209-3.3398-1.377-5.5078-4.541-1.7285 4.1162-4.248 6.8262l-2.2705-2.7246q4.1309-4.4678 5.1562-11.572l3.3252 0.51269q-0.46875 2.3145-0.9082 3.8525 1.7725 3.1494 5.2295 4.6582v-11.338h-8.1299v-1.9482h-3.1787v-6.7822h11.221v-3.2666h3.2666v3.2666h11.47v6.7822h-3.1787v1.9482h-8.2324v4.4824h10.034v2.7246h-10.034zm-11.338-18.223v3.1934h19.512v-3.1934z"/>
 </g>
</svg>
