<svg version="1.1" xmlns="http://www.w3.org/2000/svg" xmlns:xlink="http://www.w3.org/1999/xlink" width="168.1" height="22.043" viewBox="0,0,168.1,22.043"><g transform="translate(-240,-180)"><g data-paper-data="{&quot;isPaintingLayer&quot;:true}" stroke="none" stroke-linecap="butt" stroke-linejoin="miter" stroke-miterlimit="10" stroke-dasharray="" stroke-dashoffset="0" style="mix-blend-mode: normal"><path d="M248,180h152.1c4.432,0 8,3.568 8,8v6.043c0,4.432 -3.568,8 -8,8h-152.1c-4.432,0 -8,-3.568 -8,-8v-6.043c0,-4.432 3.568,-8 8,-8z" fill-opacity="0.7" fill="#000000" fill-rule="evenodd" stroke-width="0"/><g fill="#ffffff" fill-rule="nonzero" stroke-width="1"><path d="M247.62,188.22h5.957v0.8164h-2.5508v4.1602h2.9766v0.8164h-6.8164v-0.8164h2.9297v-4.1602h-2.4961z"/><path d="M254.61,188.12h6.1914c-0.03647,1.375 -0.19662,2.45183 -0.48047,3.2305c-0.33333,0.90627 -0.90887,1.6198 -1.7266,2.1406c-0.61198,0.39063 -1.45181,0.71224 -2.5195,0.96484l-0.44921,-0.79296c1.08073,-0.20313 1.91017,-0.4987 2.4883,-0.88672c0.63541,-0.42448 1.09115,-1.01171 1.3672,-1.7617c0.20313,-0.55469 0.31511,-1.24739 0.33594,-2.0781h-5.207z"/><path d="M262.43,189.28h4.9766v0.74219h-2.1133v3.4453h2.4648v0.74219h-5.6797v-0.74219h2.4141v-3.4453h-2.0625z"/><path d="M274.29,188.41l0.60937,0.50391c-0.29427,1.64587 -0.83464,2.90367 -1.6211,3.7734c-0.71613,0.79167 -1.79427,1.40363 -3.2344,1.8359l-0.48828,-0.79297c1.32033,-0.33333 2.32553,-0.8724 3.0156,-1.6172c0.66927,-0.71873 1.1172,-1.6862 1.3438,-2.9024h-2.6328c-0.54687,0.82813 -1.18881,1.4896 -1.9258,1.9844l-0.64062,-0.64844c0.59895,-0.38541 1.08722,-0.80468 1.4648,-1.2578c0.42709,-0.51563 0.76042,-1.13673 1,-1.8633l0.84766,0.23047c-0.09375,0.27343 -0.19532,0.52473 -0.30469,0.7539z"/><path d="M276.62,187.42h0.91015v2.2422c1.55467,0.47917 2.84243,0.96877 3.8633,1.4688l-0.4375,0.84375c-0.9792,-0.49739 -2.12113,-0.97006 -3.4258,-1.418v3.9688h-0.91015z"/><path d="M282.6,188.3h2.1055c0.23177,-0.36979 0.40756,-0.66796 0.52735,-0.89453l0.87109,0.125c-0.07813,0.14063 -0.21615,0.36979 -0.41406,0.6875l-0.0508,0.082h2.7539v0.76954h-3.2734c-0.34115,0.46875 -0.66667,0.87501 -0.97657,1.2188c0.49219,-0.29427 0.94143,-0.44141 1.3477,-0.44141c0.63021,0 1.04297,0.31641 1.2383,0.94922c0.66667,-0.22135 1.34637,-0.4401 2.0391,-0.65625l0.33594,0.75781l-0.13672,0.0391l-0.38672,0.10157c-0.7292,0.19791 -1.31253,0.36718 -1.75,0.50781c0.03127,0.33854 0.0534,0.77604 0.0664,1.3125l-0.85547,0.0469c-0.00267,-0.30989 -0.00787,-0.64583 -0.0156,-1.0078v-0.0781c-1.19793,0.40885 -1.7969,0.82032 -1.7969,1.2344c0,0.21354 0.15365,0.35937 0.46094,0.4375c0.29687,0.07552 0.82814,0.11328 1.5938,0.11328c0.70573,0 1.44663,-0.04036 2.2227,-0.12109l0.0937,0.83203c-0.7526,0.05727 -1.53253,0.0859 -2.3398,0.0859c-0.9948,0 -1.70183,-0.07552 -2.1211,-0.22657c-0.51823,-0.1875 -0.77735,-0.52473 -0.77735,-1.0117c0,-0.41146 0.1836,-0.77473 0.55079,-1.0898c0.38021,-0.32552 1.04947,-0.66145 2.0078,-1.0078c-0.05207,-0.20052 -0.12108,-0.34115 -0.20703,-0.42188c-0.09635,-0.09114 -0.22396,-0.13671 -0.38282,-0.13671c-0.25781,0 -0.58202,0.09765 -0.97265,0.29296c-0.48177,0.23959 -0.99871,0.60025 -1.5508,1.082l-0.51953,-0.59375c0.80987,-0.7526 1.44397,-1.4922 1.9023,-2.2188h-1.5898z"/><path d="M294.87,193.16l0.0547,0.69921c-1.1302,0.39844 -2.3867,0.72657 -3.7695,0.98438l-0.28906,-0.78125c0.23959,-0.03647 0.57812,-0.09506 1.0156,-0.17578v-1.4297c-0.45053,0.22917 -0.98699,0.44661 -1.6094,0.65234l-0.44531,-0.69531c1.2526,-0.33854 2.20833,-0.77084 2.8672,-1.2969h-2.7891v-0.67969h3.3476v-0.58984h-2.5312v-0.65625h2.5312v-0.55079h-2.9297v-0.67187h2.9297v-0.76953h0.85547v0.76953h3.0156v0.67187h-3.0156v0.55079h2.6172v0.65625h-2.6172v0.58984h3.4336v0.67969h-0.93359l0.57812,0.39843c-0.35677,0.34636 -0.85677,0.72526 -1.5,1.1367l-0.0898,0.0586c0.48958,0.44791 1.15365,0.81771 1.9922,1.1094l-0.52735,0.79297c-0.90887,-0.38541 -1.63933,-0.86978 -2.1914,-1.4531zM293.6864,191.1288c-0.26041,0.30469 -0.57421,0.57812 -0.9414,0.82031v1.7539c0.64323,-0.14323 1.28906,-0.30989 1.9375,-0.5l0.17968,-0.0508c-0.53385,-0.59115 -0.92579,-1.26561 -1.1758,-2.0234zM295.1122,192.1952c0.46355,-0.33073 0.86981,-0.69009 1.2188,-1.0781h-1.8476c0.16667,0.39843 0.3763,0.7578 0.6289,1.0781z"/><path d="M302.2,190.53v3.4648c0,0.3151 -0.0638,0.52994 -0.1914,0.64453c-0.11979,0.10417 -0.35157,0.15625 -0.69532,0.15625c-0.39062,0 -0.76172,-0.02473 -1.1133,-0.0742l-0.16797,-0.82422c0.36459,0.05987 0.71355,0.0898 1.0469,0.0898c0.11198,0 0.18229,-0.01953 0.21094,-0.0586c0.0208,-0.03387 0.0312,-0.08986 0.0312,-0.16797v-3.2305h-3.3594v-0.77731h7.5273v0.77734zM298.8992,187.6355h5.6484v0.76953h-5.6484zM297.91483,193.6277c0.5625,-0.58854 1.01563,-1.37111 1.3594,-2.3477l0.80859,0.30469c-0.39843,1.1172 -0.89973,1.9948 -1.5039,2.6328zM304.61793,194.10426c-0.53906,-1.1406 -1.00779,-1.97523 -1.4062,-2.5039l0.73438,-0.4375c0.57291,0.737 1.06118,1.53907 1.4648,2.4062z"/><path d="M306.69,187.53h0.92187v4.6562c0,0.9818 0.51563,1.4727 1.5469,1.4727c0.67967,0 1.23697,-0.3138 1.6719,-0.94141c0.28125,-0.40365 0.53386,-1.02865 0.75782,-1.875l0.79297,0.48047c-0.26563,0.94013 -0.58464,1.64327 -0.95704,2.1094c-0.58593,0.72653 -1.34767,1.0898 -2.2852,1.0898c-0.9792,0 -1.6693,-0.30208 -2.0703,-0.90625c-0.25261,-0.37761 -0.37891,-0.86457 -0.37891,-1.4609z"/><path d="M316.32,187.38h0.86328v0.98438h2.457v0.74218h-2.457v0.92969h2.3203v0.73438h-2.3203v1.207c0.92707,0.3125 1.84113,0.78257 2.7422,1.4102l-0.46094,0.74219c-0.68227,-0.51041 -1.44267,-0.96095 -2.2812,-1.3516c-0.0208,0.44531 -0.10674,0.79038 -0.25781,1.0352c-0.26302,0.42447 -0.78125,0.63671 -1.5547,0.63671c-0.59635,0 -1.07552,-0.11198 -1.4375,-0.33593c-0.40365,-0.25 -0.60547,-0.58853 -0.60547,-1.0156c0,-0.51041 0.27214,-0.88801 0.81641,-1.1328c0.36459,-0.16146 0.83855,-0.24219 1.4219,-0.24219c0.22917,0 0.48047,0.01823 0.7539,0.0547v-1.0078h-2.7695v-0.73438h2.7695v-0.92969h-2.9375v-0.74218h2.9375zM316.32,192.505c-0.30989,-0.06513 -0.60677,-0.0977 -0.89062,-0.0977c-0.34635,0 -0.6276,0.05078 -0.84375,0.15234c-0.25781,0.12239 -0.38672,0.29687 -0.38672,0.52344c0,0.1901 0.10026,0.34374 0.30078,0.46093c0.20313,0.11979 0.47396,0.17969 0.8125,0.17969c0.40104,0 0.67708,-0.10677 0.82812,-0.32031c0.11979,-0.16667 0.17969,-0.41536 0.17969,-0.74609z"/><path d="M325.6,187.45h0.8711v1.7148h1.4375v0.78515h-1.4375v1.4648c0,0.30469 -0.05078,0.51953 -0.15235,0.64453c-0.125,0.15625 -0.35026,0.23437 -0.67578,0.23437c-0.43229,0 -0.85026,-0.07161 -1.2539,-0.21484v-0.75391c0.42448,0.11719 0.7513,0.17579 0.98047,0.17579c0.15365,0 0.23047,-0.09245 0.23047,-0.27735v-1.2734h-2.6523v3.0312c0,0.16927 0.02993,0.28646 0.0898,0.35157c0.06513,0.07552 0.20706,0.125 0.42578,0.14843c0.33855,0.03907 0.81381,0.0586 1.4258,0.0586c0.71873,0 1.4401,-0.03123 2.1641,-0.0937v0.82422c-0.77867,0.04687 -1.5469,0.0703 -2.3047,0.0703c-1.1276,0 -1.84113,-0.0651 -2.1406,-0.19531c-0.35937,-0.15365 -0.53906,-0.48568 -0.53906,-0.9961v-3.1992h-1.4062v-0.78515h1.4062v-1.6406h0.87891v1.6406h2.6523z"/><path d="M328.37,194.07c1.0052,-2.32813 2.08723,-4.57813 3.2461,-6.75l0.76172,0.30469c-0.52344,0.96093 -1.14194,2.1315 -1.8555,3.5117c0.49219,-0.53385 0.94662,-0.80078 1.3633,-0.80078c0.65625,0 0.98437,0.4948 0.98437,1.4844c0,0.07292 -0.00267,0.16276 -0.008,0.26953c-0.0104,0.22657 -0.0156,0.40495 -0.0156,0.53516c0,0.30469 0.01823,0.52083 0.0547,0.64844c0.08073,0.27604 0.28256,0.41406 0.60547,0.41406c0.3125,0 0.56641,-0.15234 0.76172,-0.45703c0.29167,-0.45313 0.53125,-1.28516 0.71875,-2.4961l0.76563,0.44922c-0.14844,0.95573 -0.33724,1.6849 -0.56641,2.1875c-0.35417,0.78127 -0.9271,1.1719 -1.7188,1.1719c-0.54687,0 -0.93881,-0.16927 -1.1758,-0.50781c-0.1875,-0.26823 -0.28125,-0.71617 -0.28125,-1.3438c0,-0.05467 0.00267,-0.138 0.008,-0.25c0.0104,-0.21875 0.0156,-0.3737 0.0156,-0.46485c0,-0.28646 -0.02603,-0.49349 -0.0781,-0.62109c-0.05987,-0.14063 -0.16273,-0.21094 -0.30859,-0.21094c-0.2474,0 -0.52605,0.15104 -0.83594,0.45313c-0.26563,0.26041 -0.52735,0.64191 -0.78516,1.1445c-0.1875,0.36458 -0.47266,0.98308 -0.85547,1.8555z"/></g></g></g></svg>