<svg version="1.1" xmlns="http://www.w3.org/2000/svg" xmlns:xlink="http://www.w3.org/1999/xlink" width="168.1" height="32.878" viewBox="0,0,168.1,32.878"><g transform="translate(-240,-180)"><g data-paper-data="{&quot;isPaintingLayer&quot;:true}" stroke="none" stroke-linecap="butt" stroke-linejoin="miter" stroke-miterlimit="10" stroke-dasharray="" stroke-dashoffset="0" style="mix-blend-mode: normal"><path d="M248,180h152.1c4.432,0 8,3.568 8,8v16.878c0,4.432 -3.568,8 -8,8h-152.1c-4.432,0 -8,-3.568 -8,-8v-16.878c0,-4.432 3.568,-8 8,-8z" fill-opacity="0.7" fill="#000000" fill-rule="evenodd" stroke-width="0"/><g fill="#ffffff" fill-rule="nonzero" stroke-width="1"><path d="M250.56,188.25v-0.33594h-2.4414v-0.5586h5.7656v0.5586h-2.4922v0.33594h3.2344v1.4023h-0.84766v-0.89844h-2.3867v1.5195h-0.83203v-1.5195h-2.3438v0.89844h-0.83984v-1.4023zM253.3256,193.793c0.39843,0.15105 0.89583,0.27084 1.4922,0.35938l-0.45704,0.66406c-0.83593,-0.14323 -1.52213,-0.38932 -2.0586,-0.73828c-0.53385,-0.34896 -0.94922,-0.78256 -1.2461,-1.3008h-0.86328v1.2031c0.57552,-0.08073 1.10939,-0.16666 1.6016,-0.25781l0.0547,0.58203c-0.91667,0.21875 -1.96483,0.40886 -3.1445,0.57032l-0.23046,-0.6875c0.40885,-0.04427 0.6888,-0.0755 0.83984,-0.0937l0.0469,-0.008v-1.3086h-0.85546c-0.03647,0.45833 -0.09636,0.82423 -0.17969,1.0977c-0.09896,0.32812 -0.25781,0.63411 -0.47656,0.91796l-0.69532,-0.57421c0.25521,-0.33073 0.41407,-0.71747 0.47657,-1.1602c0.03387,-0.23959 0.0508,-0.53776 0.0508,-0.89453v-1.6562h6.7422v0.51953h-5.9023v1.1992h6.2383v0.55078h-0.88672l0.4961,0.32812c-0.29427,0.24479 -0.64194,0.47396 -1.043,0.6875zM252.71622,193.49222c0.375,-0.25521 0.67318,-0.49349 0.89453,-0.71484h-1.707c0.22396,0.28646 0.49479,0.52474 0.8125,0.71484zM248.56002,189.04302h1.6641v0.44141h-1.6641zM248.56002,189.76177h1.6641v0.44922h-1.6641zM251.72802,189.04302h1.7148v0.44141h-1.7148zM251.72802,189.76177h1.7148v0.44922h-1.7148zM248.98582,191.35557h4.8633v0.51172h-4.8633z"/><path d="M259.61,187.9h3.0625v0.65625h-1.7344v0.64844h1.625v0.63281h-1.625v1.1641h-3.1445v-1.1641h-1.2812v0.72657c0,1.17967 -0.0625,2.11197 -0.1875,2.7969c-0.09635,0.52083 -0.2526,0.9961 -0.46875,1.4258l-0.71094,-0.5625c0.19792,-0.42969 0.33334,-0.95442 0.40625,-1.5742c0.06513,-0.54427 0.0977,-1.23957 0.0977,-2.0859v-2.6641h3.0898v-0.70312h0.87109zM256.5124,188.55625v0.64844h1.2812v-0.64844zM258.6257,188.55625v0.64844h1.4805v-0.64844zM258.6257,189.83745v0.60547h1.4805v-0.60547zM259.53195,193.93905c-0.7526,0.39062 -1.70833,0.68749 -2.8672,0.89062l-0.40625,-0.71875c1.08853,-0.13021 1.9414,-0.32943 2.5586,-0.59766c-0.52865,-0.38281 -0.98048,-0.83724 -1.3555,-1.3633h-0.53907v-0.67968h4.5742l0.41016,0.34375c-0.38802,0.59635 -0.94142,1.15755 -1.6602,1.6836c0.61719,0.24739 1.45832,0.42968 2.5234,0.54687l-0.45703,0.73829c-1.0208,-0.13803 -1.94787,-0.41928 -2.7812,-0.84375zM258.37175,192.14995c0.31511,0.36979 0.69791,0.69532 1.1484,0.97657c0.50781,-0.32813 0.89975,-0.65365 1.1758,-0.97657z"/><path d="M265.03,193.1c0.013,0.013 0.02993,0.02993 0.0508,0.0508c0.22396,0.22917 0.47656,0.39583 0.75781,0.5c0.45313,0.16667 1.00783,0.25 1.6641,0.25h3.4219c-0.09896,0.1901 -0.1836,0.43749 -0.25391,0.74218h-3.1914c-0.8802,0 -1.54947,-0.11588 -2.0078,-0.34765c-0.27083,-0.13802 -0.52995,-0.34115 -0.77735,-0.60938c-0.36719,0.46094 -0.73829,0.84114 -1.1133,1.1406l-0.4375,-0.78906c0.39063,-0.2474 0.74479,-0.50912 1.0625,-0.78516v-2.0156h-1v-0.76953h1.8242zM267.573,191.8734c-0.47657,0.62761 -1.0534,1.14194 -1.7305,1.543l-0.53125,-0.59765c0.78387,-0.38542 1.46877,-0.92709 2.0547,-1.625h-1.6055v-1.9844h1.8125v-0.53516h-2.1172v-0.70312h2.1172v-0.76953h0.80078v0.76953h2.1875v0.70312h-2.1875v0.53516h1.8828v1.9844h-1.8828v0.15234c0.72653,0.31511 1.4635,0.71484 2.2109,1.1992l-0.50391,0.67187c-0.51823,-0.41145 -1.08723,-0.80339 -1.707,-1.1758v1.6328h-0.80078zM267.573,189.8187h-1.043v0.78125h1.043zM268.37378,189.8187v0.78125h1.1055v-0.78125zM264.51828,189.24838c-0.37239,-0.58333 -0.76433,-1.08203 -1.1758,-1.4961l0.64062,-0.49609c0.45573,0.42447 0.86067,0.90494 1.2148,1.4414z"/><path d="M272.77,188.02v-0.8164h0.81641v0.8164h1.2148v0.6875h-1.2148v0.67188h1.3828v0.69531h-0.46484c-0.08333,0.3099 -0.19531,0.63803 -0.33594,0.98438h0.7539v0.67968h-1.3359v0.72266h1.2852v0.69531h-1.2852v1.6484h-0.81641v-1.6484h-1.3789v-0.69531h1.3789v-0.72266h-1.4414v-0.67968h0.71875c-0.08333,-0.34635 -0.18489,-0.67448 -0.30468,-0.98438h-0.57422v-0.69531h1.6016v-0.67188h-1.2734v-0.6875zM273.74266,190.0747h-1.2422c0.08854,0.2474 0.18359,0.57553 0.28516,0.98438h0.64843c0.13542,-0.33333 0.23829,-0.66146 0.3086,-0.98438zM278.48096,187.4849v1.8281c0,0.22657 -0.04167,0.38672 -0.125,0.48047c-0.09896,0.11198 -0.30599,0.16797 -0.6211,0.16797c-0.30729,0 -0.61458,-0.01303 -0.92187,-0.0391l-0.13281,-0.70313c0.43229,0.04687 0.70703,0.0703 0.82422,0.0703c0.12239,0 0.18359,-0.05339 0.18359,-0.16016v-0.94141h-1.7109v2.2695h2.2148l0.46484,0.39844c-0.14063,0.82813 -0.39714,1.56773 -0.76953,2.2188l-0.043,0.0781c0.28646,0.33073 0.64453,0.63281 1.0742,0.90625l-0.4375,0.73047c-0.41146,-0.26563 -0.77866,-0.58334 -1.1016,-0.95313c-0.27865,0.35417 -0.59245,0.6875 -0.94141,1l-0.46094,-0.64062v0.60937h-0.79297v-7.3203zM275.97706,191.1607v2.9531c0.32031,-0.21875 0.62891,-0.52604 0.92578,-0.92187c-0.39843,-0.61459 -0.67838,-1.29165 -0.83984,-2.0312zM277.33646,192.5005c0.23177,-0.44791 0.38281,-0.89451 0.45312,-1.3398h-1.0078c0.12761,0.5 0.3125,0.9466 0.55469,1.3398z"/><path d="M281.01,190.12c0.20313,0 0.38672,0.06771 0.55078,0.20312c0.21615,0.17709 0.32422,0.40365 0.32422,0.67969c0,0.16927 -0.04818,0.32683 -0.14453,0.47266c-0.17448,0.27083 -0.42188,0.40625 -0.74219,0.40625c-0.14062,0 -0.27473,-0.03386 -0.40234,-0.10157c-0.10156,-0.05207 -0.1875,-0.12108 -0.25781,-0.20703c-0.14323,-0.16927 -0.21485,-0.36197 -0.21485,-0.57812c0,-0.30209 0.1263,-0.54167 0.37891,-0.71875c0.15104,-0.10417 0.32031,-0.15625 0.50781,-0.15625z"/><path d="M286.56,188.25v-0.33594h-2.4414v-0.5586h5.7656v0.5586h-2.4922v0.33594h3.2344v1.4023h-0.84766v-0.89844h-2.3867v1.5195h-0.83203v-1.5195h-2.3438v0.89844h-0.83984v-1.4023zM289.3256,193.793c0.39843,0.15105 0.89583,0.27084 1.4922,0.35938l-0.45704,0.66406c-0.83593,-0.14323 -1.52213,-0.38932 -2.0586,-0.73828c-0.53385,-0.34896 -0.94922,-0.78256 -1.2461,-1.3008h-0.86328v1.2031c0.57552,-0.08073 1.10939,-0.16666 1.6016,-0.25781l0.0547,0.58203c-0.91667,0.21875 -1.96483,0.40886 -3.1445,0.57032l-0.23046,-0.6875c0.40885,-0.04427 0.6888,-0.0755 0.83984,-0.0937l0.0469,-0.008v-1.3086h-0.85546c-0.03647,0.45833 -0.09636,0.82423 -0.17969,1.0977c-0.09896,0.32812 -0.25781,0.63411 -0.47656,0.91796l-0.69532,-0.57421c0.25521,-0.33073 0.41407,-0.71747 0.47657,-1.1602c0.03387,-0.23959 0.0508,-0.53776 0.0508,-0.89453v-1.6562h6.7422v0.51953h-5.9023v1.1992h6.2383v0.55078h-0.88672l0.4961,0.32812c-0.29427,0.24479 -0.64194,0.47396 -1.043,0.6875zM288.71622,193.49222c0.375,-0.25521 0.67318,-0.49349 0.89453,-0.71484h-1.707c0.22396,0.28646 0.49479,0.52474 0.8125,0.71484zM284.56002,189.04302h1.6641v0.44141h-1.6641zM284.56002,189.76177h1.6641v0.44922h-1.6641zM287.72802,189.04302h1.7148v0.44141h-1.7148zM287.72802,189.76177h1.7148v0.44922h-1.7148zM284.98582,191.35557h4.8633v0.51172h-4.8633z"/><path d="M296.46,188.99h1.8164v3.0312h-1.4961v2.1445c0,0.24739 -0.05859,0.41927 -0.17578,0.51562c-0.09635,0.07813 -0.26693,0.11719 -0.51172,0.11719c-0.29427,0 -0.58854,-0.02733 -0.88281,-0.082l-0.10937,-0.73438c0.30208,0.04687 0.53645,0.0703 0.70312,0.0703c0.09896,0 0.15755,-0.02343 0.17578,-0.0703c0.0104,-0.03387 0.0156,-0.08725 0.0156,-0.16015v-1.8008h-1.4961v-3.0312h1.1797c0.09635,-0.28646 0.16536,-0.52214 0.20703,-0.70703h-1.832v2.1211c0,0.94013 -0.05859,1.71617 -0.17578,2.3281c-0.13802,0.7318 -0.41016,1.418 -0.81641,2.0586l-0.625,-0.61719c0.53385,-0.85153 0.80078,-1.98433 0.80078,-3.3984v-3.2109h5.4805v0.71875h-1.9883c-0.07813,0.25 -0.16797,0.48568 -0.26953,0.70703zM297.4834,189.615h-2.2148v0.58984h2.2148zM295.2686,190.8064v0.60547h2.2148v-0.60547zM292.5069,188.99c-0.25781,-0.38542 -0.63411,-0.78905 -1.1289,-1.2109l0.60156,-0.52734c0.44792,0.32291 0.82682,0.69921 1.1367,1.1289zM292.29205,190.9978c-0.43229,-0.54427 -0.81379,-0.95834 -1.1445,-1.2422l0.61719,-0.55859c0.42448,0.35417 0.80858,0.7513 1.1523,1.1914zM291.23735,194.2126c0.39844,-0.7604 0.72006,-1.68617 0.96485,-2.7773l0.71484,0.43359c-0.17708,0.763 -0.33854,1.36197 -0.48437,1.7969c-0.12761,0.38021 -0.28386,0.76301 -0.46875,1.1484zM293.69825,193.94698c0.42969,-0.45313 0.75781,-1.01043 0.98438,-1.6719l0.74609,0.22657c-0.24739,0.78907 -0.61066,1.45313 -1.0898,1.9922zM298.18655,194.42745c-0.27865,-0.64583 -0.62761,-1.2591 -1.0469,-1.8398l0.64844,-0.375c0.42708,0.53125 0.80078,1.10419 1.1211,1.7188z"/><path d="M300.96,188.69v6.1133h-0.81641v-7.6016h0.81641v1.1836l0.375,-0.3125c0.22656,0.39323 0.40625,0.77213 0.53906,1.1367l-0.53125,0.52734c-0.13802,-0.4401 -0.26562,-0.78907 -0.38281,-1.0469zM304.5576,187.72125h2.0234v0.58594h-2.0234v0.375h1.7461v0.55859h-1.7461v0.38672h2.2812v0.625h-5.2656v-0.625h2.1758v-0.38672h-1.6953v-0.55859h1.6953v-0.375h-1.9258v-0.58594h1.9258v-0.51953h0.80859zM306.1826,190.66655v3.4297c0,0.23958 -0.05729,0.41406 -0.17187,0.52344c-0.11198,0.10677 -0.30339,0.16015 -0.57422,0.16015c-0.32031,0 -0.64974,-0.02213 -0.98828,-0.0664l-0.11328,-0.70313c0.34635,0.04167 0.62109,0.0625 0.82422,0.0625c0.10417,0 0.16667,-0.02603 0.1875,-0.0781c0.013,-0.03127 0.0195,-0.07944 0.0195,-0.14453v-0.50391h-2.3984v1.457h-0.81641v-4.1367zM302.9678,191.24077v0.45703h2.3984v-0.45703zM302.9678,192.27197v0.48047h2.3984v-0.48047zM299.0381,191.27978c0.11719,-0.54167 0.20182,-1.2422 0.25391,-2.1016l0.0195,-0.32031l0.66406,0.0625c-0.03127,1.1146 -0.12241,2.01953 -0.27344,2.7148z"/><path d="M308.77,188.02v-0.8164h0.81641v0.8164h1.2148v0.6875h-1.2148v0.67188h1.3828v0.69531h-0.46484c-0.08333,0.3099 -0.19531,0.63803 -0.33594,0.98438h0.7539v0.67968h-1.3359v0.72266h1.2852v0.69531h-1.2852v1.6484h-0.81641v-1.6484h-1.3789v-0.69531h1.3789v-0.72266h-1.4414v-0.67968h0.71875c-0.08333,-0.34635 -0.18489,-0.67448 -0.30468,-0.98438h-0.57422v-0.69531h1.6016v-0.67188h-1.2734v-0.6875zM309.74266,190.0747h-1.2422c0.08854,0.2474 0.18359,0.57553 0.28516,0.98438h0.64843c0.13542,-0.33333 0.23829,-0.66146 0.3086,-0.98438zM314.48096,187.4849v1.8281c0,0.22657 -0.04167,0.38672 -0.125,0.48047c-0.09896,0.11198 -0.30599,0.16797 -0.6211,0.16797c-0.30729,0 -0.61458,-0.01303 -0.92187,-0.0391l-0.13281,-0.70313c0.43229,0.04687 0.70703,0.0703 0.82422,0.0703c0.12239,0 0.18359,-0.05339 0.18359,-0.16016v-0.94141h-1.7109v2.2695h2.2148l0.46484,0.39844c-0.14063,0.82813 -0.39714,1.56773 -0.76953,2.2188l-0.043,0.0781c0.28646,0.33073 0.64453,0.63281 1.0742,0.90625l-0.4375,0.73047c-0.41146,-0.26563 -0.77866,-0.58334 -1.1016,-0.95313c-0.27865,0.35417 -0.59245,0.6875 -0.94141,1l-0.46094,-0.64062v0.60937h-0.79297v-7.3203zM311.97706,191.1607v2.9531c0.32031,-0.21875 0.62891,-0.52604 0.92578,-0.92187c-0.39843,-0.61459 -0.67838,-1.29165 -0.83984,-2.0312zM313.33646,192.5005c0.23177,-0.44791 0.38281,-0.89451 0.45312,-1.3398h-1.0078c0.12761,0.5 0.3125,0.9466 0.55469,1.3398z"/><path d="M317.01,190.12c0.20313,0 0.38672,0.06771 0.55078,0.20312c0.21615,0.17709 0.32422,0.40365 0.32422,0.67969c0,0.16927 -0.04818,0.32683 -0.14453,0.47266c-0.17448,0.27083 -0.42188,0.40625 -0.74219,0.40625c-0.14062,0 -0.27473,-0.03386 -0.40234,-0.10157c-0.10156,-0.05207 -0.1875,-0.12108 -0.25781,-0.20703c-0.14323,-0.16927 -0.21485,-0.36197 -0.21485,-0.57812c0,-0.30209 0.1263,-0.54167 0.37891,-0.71875c0.15104,-0.10417 0.32031,-0.15625 0.50781,-0.15625z"/><path d="M323.09,190.36v3.0938c0,0.20052 0.08594,0.32161 0.25781,0.36328c0.17709,0.04427 0.58202,0.0664 1.2148,0.0664c0.61719,0 1.02472,-0.03123 1.2226,-0.0937c0.11198,-0.03647 0.1849,-0.13803 0.21875,-0.30469c0.04427,-0.23437 0.0677,-0.51172 0.0703,-0.83203l0.81641,0.23047c-0.04167,0.7682 -0.14714,1.25907 -0.31641,1.4726c-0.11197,0.14063 -0.28124,0.22396 -0.50781,0.25c-0.35677,0.03907 -0.96223,0.0586 -1.8164,0.0586c-0.66146,0 -1.09506,-0.01823 -1.3008,-0.0547c-0.30989,-0.05207 -0.50651,-0.18879 -0.58984,-0.41016c-0.04167,-0.11719 -0.0625,-0.27344 -0.0625,-0.46875v-3.0976l-0.74609,0.25781l-0.1836,-0.75781l0.92969,-0.32031v-2.1055h0.79297v1.832l0.83984,-0.28516v-2.0586h0.78516v1.7852l1.3086,-0.44921l0.41016,0.25v2.9258c0,0.20312 -0.04818,0.35416 -0.14453,0.45312c-0.10937,0.10937 -0.29297,0.16406 -0.55078,0.16406c-0.21094,0 -0.4349,-0.01823 -0.67188,-0.0547l-0.1289,-0.7461c0.15364,0.03907 0.30989,0.0586 0.46875,0.0586c0.11458,0 0.18489,-0.02343 0.21093,-0.0703c0.02607,-0.03907 0.0391,-0.10417 0.0391,-0.19531v-1.8476l-0.94141,0.32812v3.1602h-0.78516v-2.8906zM320.2189,189.0827v-1.8867h0.83984v1.8867h0.75781v0.79297h-0.75781v2.4844c0.27344,-0.09375 0.54427,-0.1914 0.8125,-0.29297l0.0742,0.75391c-0.84373,0.38541 -1.70963,0.70833 -2.5977,0.96875l-0.27344,-0.83203c0.40105,-0.10417 0.75261,-0.20313 1.0547,-0.29688c0.03647,-0.013 0.06643,-0.0221 0.0899,-0.0273v-2.7578h-0.99219v-0.79297z"/><path d="M330.56,188.25v-0.33594h-2.4414v-0.5586h5.7656v0.5586h-2.4922v0.33594h3.2344v1.4023h-0.84766v-0.89844h-2.3867v1.5195h-0.83203v-1.5195h-2.3438v0.89844h-0.83984v-1.4023zM333.3256,193.793c0.39843,0.15105 0.89583,0.27084 1.4922,0.35938l-0.45704,0.66406c-0.83593,-0.14323 -1.52213,-0.38932 -2.0586,-0.73828c-0.53385,-0.34896 -0.94922,-0.78256 -1.2461,-1.3008h-0.86328v1.2031c0.57552,-0.08073 1.10939,-0.16666 1.6016,-0.25781l0.0547,0.58203c-0.91667,0.21875 -1.96483,0.40886 -3.1445,0.57032l-0.23046,-0.6875c0.40885,-0.04427 0.6888,-0.0755 0.83984,-0.0937l0.0469,-0.008v-1.3086h-0.85546c-0.03647,0.45833 -0.09636,0.82423 -0.17969,1.0977c-0.09896,0.32812 -0.25781,0.63411 -0.47656,0.91796l-0.69532,-0.57421c0.25521,-0.33073 0.41407,-0.71747 0.47657,-1.1602c0.03387,-0.23959 0.0508,-0.53776 0.0508,-0.89453v-1.6562h6.7422v0.51953h-5.9023v1.1992h6.2383v0.55078h-0.88672l0.4961,0.32812c-0.29427,0.24479 -0.64194,0.47396 -1.043,0.6875zM332.71622,193.49222c0.375,-0.25521 0.67318,-0.49349 0.89453,-0.71484h-1.707c0.22396,0.28646 0.49479,0.52474 0.8125,0.71484zM328.56002,189.04302h1.6641v0.44141h-1.6641zM328.56002,189.76177h1.6641v0.44922h-1.6641zM331.72802,189.04302h1.7148v0.44141h-1.7148zM331.72802,189.76177h1.7148v0.44922h-1.7148zM328.98582,191.35557h4.8633v0.51172h-4.8633z"/><path d="M336.96,188.69v6.1133h-0.81641v-7.6016h0.81641v1.1836l0.375,-0.3125c0.22656,0.39323 0.40625,0.77213 0.53906,1.1367l-0.53125,0.52734c-0.13802,-0.4401 -0.26562,-0.78907 -0.38281,-1.0469zM340.5576,187.72125h2.0234v0.58594h-2.0234v0.375h1.7461v0.55859h-1.7461v0.38672h2.2812v0.625h-5.2656v-0.625h2.1758v-0.38672h-1.6953v-0.55859h1.6953v-0.375h-1.9258v-0.58594h1.9258v-0.51953h0.80859zM342.1826,190.66655v3.4297c0,0.23958 -0.05729,0.41406 -0.17187,0.52344c-0.11198,0.10677 -0.30339,0.16015 -0.57422,0.16015c-0.32031,0 -0.64974,-0.02213 -0.98828,-0.0664l-0.11328,-0.70313c0.34635,0.04167 0.62109,0.0625 0.82422,0.0625c0.10417,0 0.16667,-0.02603 0.1875,-0.0781c0.013,-0.03127 0.0195,-0.07944 0.0195,-0.14453v-0.50391h-2.3984v1.457h-0.81641v-4.1367zM338.9678,191.24077v0.45703h2.3984v-0.45703zM338.9678,192.27197v0.48047h2.3984v-0.48047zM335.0381,191.27978c0.11719,-0.54167 0.20182,-1.2422 0.25391,-2.1016l0.0195,-0.32031l0.66406,0.0625c-0.03127,1.1146 -0.12241,2.01953 -0.27344,2.7148z"/><path d="M344.77,188.02v-0.8164h0.81641v0.8164h1.2148v0.6875h-1.2148v0.67188h1.3828v0.69531h-0.46484c-0.08333,0.3099 -0.19531,0.63803 -0.33594,0.98438h0.7539v0.67968h-1.3359v0.72266h1.2852v0.69531h-1.2852v1.6484h-0.81641v-1.6484h-1.3789v-0.69531h1.3789v-0.72266h-1.4414v-0.67968h0.71875c-0.08333,-0.34635 -0.18489,-0.67448 -0.30468,-0.98438h-0.57422v-0.69531h1.6016v-0.67188h-1.2734v-0.6875zM345.74266,190.0747h-1.2422c0.08854,0.2474 0.18359,0.57553 0.28516,0.98438h0.64843c0.13542,-0.33333 0.23829,-0.66146 0.3086,-0.98438zM350.48096,187.4849v1.8281c0,0.22657 -0.04167,0.38672 -0.125,0.48047c-0.09896,0.11198 -0.30599,0.16797 -0.6211,0.16797c-0.30729,0 -0.61458,-0.01303 -0.92187,-0.0391l-0.13281,-0.70313c0.43229,0.04687 0.70703,0.0703 0.82422,0.0703c0.12239,0 0.18359,-0.05339 0.18359,-0.16016v-0.94141h-1.7109v2.2695h2.2148l0.46484,0.39844c-0.14063,0.82813 -0.39714,1.56773 -0.76953,2.2188l-0.043,0.0781c0.28646,0.33073 0.64453,0.63281 1.0742,0.90625l-0.4375,0.73047c-0.41146,-0.26563 -0.77866,-0.58334 -1.1016,-0.95313c-0.27865,0.35417 -0.59245,0.6875 -0.94141,1l-0.46094,-0.64062v0.60937h-0.79297v-7.3203zM347.97706,191.1607v2.9531c0.32031,-0.21875 0.62891,-0.52604 0.92578,-0.92187c-0.39843,-0.61459 -0.67838,-1.29165 -0.83984,-2.0312zM349.33646,192.5005c0.23177,-0.44791 0.38281,-0.89451 0.45312,-1.3398h-1.0078c0.12761,0.5 0.3125,0.9466 0.55469,1.3398z"/><path d="M351.88,188.3h2.1055c0.23177,-0.36979 0.40756,-0.66796 0.52735,-0.89453l0.87109,0.125c-0.07813,0.14063 -0.21615,0.36979 -0.41406,0.6875l-0.0508,0.082h2.7539v0.76954h-3.2734c-0.34115,0.46875 -0.66667,0.87501 -0.97657,1.2188c0.49219,-0.29427 0.94143,-0.44141 1.3477,-0.44141c0.63021,0 1.04297,0.31641 1.2383,0.94922c0.66667,-0.22135 1.34637,-0.4401 2.0391,-0.65625l0.33594,0.75781l-0.13672,0.0391l-0.38672,0.10157c-0.7292,0.19791 -1.31253,0.36718 -1.75,0.50781c0.03127,0.33854 0.0534,0.77604 0.0664,1.3125l-0.85547,0.0469c-0.00267,-0.30989 -0.00787,-0.64583 -0.0156,-1.0078v-0.0781c-1.19793,0.40885 -1.7969,0.82032 -1.7969,1.2344c0,0.21354 0.15365,0.35937 0.46094,0.4375c0.29687,0.07552 0.82814,0.11328 1.5938,0.11328c0.70573,0 1.44663,-0.04036 2.2227,-0.12109l0.0937,0.83203c-0.7526,0.05727 -1.53253,0.0859 -2.3398,0.0859c-0.9948,0 -1.70183,-0.07552 -2.1211,-0.22657c-0.51823,-0.1875 -0.77735,-0.52473 -0.77735,-1.0117c0,-0.41146 0.1836,-0.77473 0.55079,-1.0898c0.38021,-0.32552 1.04947,-0.66145 2.0078,-1.0078c-0.05207,-0.20052 -0.12108,-0.34115 -0.20703,-0.42188c-0.09635,-0.09114 -0.22396,-0.13671 -0.38282,-0.13671c-0.25781,0 -0.58202,0.09765 -0.97265,0.29296c-0.48177,0.23959 -0.99871,0.60025 -1.5508,1.082l-0.51953,-0.59375c0.80987,-0.7526 1.44397,-1.4922 1.9023,-2.2188h-1.5898z"/><path d="M360.8,189.61c-0.13542,-0.33333 -0.29428,-0.6263 -0.47657,-0.87891l0.81641,-0.19921c0.21615,0.33854 0.39453,0.69791 0.53516,1.0781h1.0156c-0.15625,-0.40104 -0.32161,-0.73957 -0.49609,-1.0156l0.80078,-0.20704c0.22656,0.35157 0.41276,0.75913 0.55859,1.2227h0.66016c0.20573,-0.375 0.41015,-0.82553 0.61328,-1.3516l0.85156,0.34375c-0.19791,0.38541 -0.39322,0.72135 -0.58593,1.0078h1.5273v1.7227h-0.87109v-1.0352h-5.5078v0.73828h5.0742l0.41016,0.40235c-0.50781,0.64062 -1.11328,1.21875 -1.8164,1.7344c0.013,0.0078 0.03513,0.0182 0.0664,0.0312c0.70833,0.29948 1.66407,0.55208 2.8672,0.75781l-0.51172,0.78516c-1.19013,-0.21875 -2.26043,-0.57552 -3.2109,-1.0703c-1.02867,0.55989 -2.19663,0.94269 -3.5039,1.1484l-0.45312,-0.78125c1.125,-0.13281 2.1797,-0.41666 3.1641,-0.85156l-0.0703,-0.0508c-0.62761,-0.44011 -1.13411,-0.90234 -1.5195,-1.3867h-0.51953v-0.42187h-0.84766v-1.7227zM361.8,191.7545c0.36198,0.36979 0.80078,0.70703 1.3164,1.0117c0.5,-0.32552 0.92447,-0.66275 1.2734,-1.0117zM359.4992,187.8209c2.18487,-0.07552 4.19527,-0.28385 6.0312,-0.625l0.60156,0.67969c-2,0.34114 -4.10937,0.5677 -6.3281,0.67968z"/><path d="M369.07,189.09v5.7148h-0.83204v-4.0781c-0.21614,0.35417 -0.46484,0.71613 -0.74609,1.0859l-0.39062,-0.96093c0.48437,-0.60157 0.89324,-1.3138 1.2266,-2.1367c0.17448,-0.42969 0.35807,-0.96225 0.55078,-1.5977l0.82422,0.24609c-0.21615,0.66927 -0.42708,1.2448 -0.63281,1.7266zM374.3239,192.2111v2.5938h-0.86328v-0.38672h-2.8086v0.38672h-0.85547v-2.5938zM370.652,192.88298v0.86328h2.8086v-0.86328zM370.0934,187.47678h3.918v0.64062h-3.918zM370.0934,189.82838h3.918v0.67187h-3.918zM370.0934,190.99638h3.918v0.67187h-3.918zM369.30043,188.60968h5.5352v0.71875h-5.5352z"/><path d="M375.97,187.53h0.92187v4.6562c0,0.9818 0.51563,1.4727 1.5469,1.4727c0.67967,0 1.23697,-0.3138 1.6719,-0.94141c0.28125,-0.40365 0.53386,-1.02865 0.75782,-1.875l0.79297,0.48047c-0.26563,0.94013 -0.58464,1.64327 -0.95704,2.1094c-0.58593,0.72653 -1.34767,1.0898 -2.2852,1.0898c-0.9792,0 -1.6693,-0.30208 -2.0703,-0.90625c-0.25261,-0.37761 -0.37891,-0.86457 -0.37891,-1.4609z"/><path d="M382.46,188.59h1.8242c0.07292,-0.32291 0.15495,-0.74088 0.2461,-1.2539l0.88281,0.10937c-0.07813,0.40365 -0.16146,0.78515 -0.25,1.1445h2.6016v0.77735h-2.7852c-0.52083,2.08073 -1.09637,3.806 -1.7266,5.1758l-0.86328,-0.30469c0.68487,-1.5182 1.25517,-3.1419 1.7109,-4.8711h-1.6406zM389.3741,194.3361c-0.42188,0.05467 -0.89585,0.082 -1.4219,0.082c-0.85153,0 -1.49477,-0.07292 -1.9297,-0.21875c-0.16667,-0.05727 -0.30859,-0.138 -0.42578,-0.24219c-0.22917,-0.20833 -0.34375,-0.47396 -0.34375,-0.79687c0,-0.33073 0.10677,-0.6224 0.32031,-0.875l0.69532,0.41015c-0.08073,0.10157 -0.1211,0.21355 -0.1211,0.33594c0,0.21094 0.09636,0.34766 0.28907,0.41016c0.29427,0.09375 0.71353,0.14062 1.2578,0.14062c0.52865,0 1.05598,-0.03906 1.582,-0.11719zM385.71,190.465c1.0208,-0.11719 2.138,-0.17969 3.3516,-0.1875l0.0391,0.79297c-1.19013,0.00533 -2.2826,0.06132 -3.2774,0.16797z"/><path d="M393.36,189.95c-0.14323,-0.14063 -0.28646,-0.26172 -0.42969,-0.36328c-0.08854,0.09896 -0.20442,0.21745 -0.34765,0.35547l-0.42578,-0.48047c0.59635,-0.625 1.02605,-1.375 1.2891,-2.25l0.70312,0.11719c-0.02607,0.08333 -0.06252,0.19531 -0.10937,0.33594h0.74219l0.35937,0.47656c-0.22917,0.7448 -0.57943,1.41407 -1.0508,2.0078h2.2344c-0.38802,-0.39844 -0.70312,-0.86981 -0.94531,-1.4141c-0.15885,-0.36459 -0.30208,-0.81382 -0.42969,-1.3477l0.6875,-0.13672c0.14844,0.64844 0.35287,1.18881 0.61329,1.6211c0.24479,-0.25781 0.42447,-0.47787 0.53906,-0.66016h-0.80078v-0.625h1.2891l0.45703,0.41797c-0.30989,0.50521 -0.67449,0.97394 -1.0938,1.4062c0.34375,0.38802 0.75262,0.71094 1.2266,0.96875l-0.45312,0.64844c-0.38281,-0.25261 -0.71615,-0.51563 -1,-0.78907v0.60547h-2.6016v-0.38281c-0.26303,0.26823 -0.57162,0.51823 -0.92579,0.75l-0.48046,-0.51172c0.36979,-0.21615 0.68749,-0.46615 0.95312,-0.75zM393.71547,189.52031c0.05987,-0.08333 0.11716,-0.17057 0.17187,-0.26171l0.0274,-0.0391c-0.17709,-0.1276 -0.33724,-0.22786 -0.48047,-0.30078c-0.06513,0.09896 -0.12763,0.19011 -0.1875,0.27344c0.16146,0.09115 0.31771,0.20052 0.46875,0.32812zM393.79747,188.25081c-0.03907,0.08594 -0.07683,0.16407 -0.11328,0.23438c0.16406,0.07031 0.32422,0.15625 0.48047,0.25781c0.06247,-0.13541 0.12887,-0.29948 0.19922,-0.49219zM391.06307,193.13751v1.668h-0.76172v-7.3125h1.9531l0.33594,0.30469c-0.17709,0.7526 -0.40886,1.5039 -0.69531,2.2539c0.40885,0.57553 0.61328,1.23309 0.61328,1.9727c0,0.42969 -0.05859,0.72786 -0.17578,0.89453c-0.11979,0.17448 -0.35157,0.26172 -0.69532,0.26172c-0.17708,0 -0.36848,-0.01433 -0.57421,-0.043zM391.03567,192.3797c0.17448,0.02347 0.31641,0.0352 0.42578,0.0352c0.12761,0 0.20703,-0.02603 0.23828,-0.0781c0.03387,-0.05467 0.0508,-0.18487 0.0508,-0.39062c0,-0.66146 -0.1888,-1.26823 -0.56641,-1.8203l0.0391,-0.11328c0.23177,-0.625 0.41276,-1.22527 0.54297,-1.8008h-0.73047zM395.50837,192.18048v1.9102c0,0.27865 -0.0651,0.46745 -0.19531,0.5664c-0.10677,0.07813 -0.29948,0.11719 -0.57813,0.11719c-0.29948,0 -0.56771,-0.01953 -0.80469,-0.0586l-0.16797,-0.75c0.35157,0.05727 0.60808,0.0859 0.76954,0.0859c0.09635,0 0.15234,-0.02343 0.16796,-0.0703c0.0104,-0.02607 0.0156,-0.06643 0.0156,-0.12109v-1.6797h-2.0703v-0.71094h5.0625v0.71094zM392.17247,193.94608c0.47917,-0.4375 0.85547,-0.95963 1.1289,-1.5664l0.76172,0.27344c-0.29948,0.67967 -0.70311,1.28123 -1.2109,1.8047zM397.19587,194.35623c-0.38542,-0.58854 -0.80859,-1.11457 -1.2695,-1.5781l0.65625,-0.38282c0.49479,0.44531 0.92969,0.93358 1.3047,1.4648z"/><path d="M247.89,205.26c-0.09896,-0.8854 -0.14844,-1.7656 -0.14844,-2.6406c0,-1.5 0.11068,-2.92447 0.33203,-4.2734l0.85938,0.0899c-0.21094,1.16667 -0.31641,2.48307 -0.31641,3.9492c0,0.9844 0.05469,1.90497 0.16407,2.7617zM250.2338,199.0725h3.7539v0.83204h-3.7539zM254.2533,204.7795c-0.52083,0.08073 -1.13933,0.12109 -1.8555,0.12109c-1.79947,0 -2.6992,-0.52863 -2.6992,-1.5859c0,-0.41927 0.11198,-0.78513 0.33594,-1.0976l0.73828,0.32812c-0.14062,0.19792 -0.21093,0.42058 -0.21093,0.66797c0,0.30469 0.15234,0.51432 0.45703,0.62891c0.33854,0.13021 0.80077,0.19531 1.3867,0.19531c0.63281,0 1.21874,-0.04167 1.7578,-0.125z"/><path d="M260.25,199.64l0.0351,-1.6406h0.78516l-0.0274,1.6406h1.5469c-0.03907,2.72653 -0.13282,4.42707 -0.28125,5.1016c-0.06247,0.28385 -0.16533,0.48307 -0.30859,0.59765c-0.14063,0.10938 -0.36589,0.16407 -0.67579,0.16407c-0.29947,0 -0.58463,-0.01563 -0.85546,-0.0469l-0.16016,-0.80859c0.30729,0.04167 0.58464,0.0625 0.83203,0.0625c0.16667,0 0.27734,-0.04688 0.33203,-0.14063c0.15365,-0.26563 0.26042,-1.64973 0.32031,-4.1523h-0.80468c-0.07031,1.17707 -0.2474,2.1458 -0.53125,2.9062c-0.33594,0.90107 -0.79817,1.65757 -1.3867,2.2695l-0.5586,-0.60938c0.57813,-0.56771 0.99869,-1.28254 1.2617,-2.1445c0.21875,-0.70833 0.36459,-1.51563 0.4375,-2.4219h-1.0352v-0.58985h-4.043v-0.74218h1.7773v-1.0859h0.83203v1.0859h1.582v0.55468zM257.0234,203.3197c-0.32552,-0.36979 -0.67189,-0.71876 -1.0391,-1.0469l0.51953,-0.54688c0.25781,0.22135 0.57422,0.51823 0.94922,0.89063c0.20052,-0.35938 0.375,-0.72788 0.52344,-1.1055l0.71875,0.35156c-0.14844,0.38542 -0.3711,0.84245 -0.66797,1.3711c0.29167,0.32813 0.54948,0.63933 0.77344,0.9336l-0.60938,0.64844c-0.22656,-0.32813 -0.4375,-0.61328 -0.63281,-0.85547c-0.46615,0.65885 -1.01301,1.19662 -1.6406,1.6133l-0.63281,-0.66406c0.69793,-0.38542 1.27737,-0.91535 1.7383,-1.5898zM255.039,201.6556c0.5026,-0.37761 0.9323,-0.92447 1.2891,-1.6406l0.67969,0.35938c-0.35677,0.7552 -0.82424,1.36847 -1.4024,1.8398zM258.8945,201.90951c-0.35157,-0.51303 -0.77863,-1.02996 -1.2812,-1.5508l0.60156,-0.42187c0.49219,0.45833 0.89975,0.92447 1.2227,1.3984z"/><path d="M267.96,202.78c0.77607,0.67187 1.72007,1.21613 2.832,1.6328l-0.52734,0.75391c-1.19273,-0.53646 -2.1732,-1.23699 -2.9414,-2.1016v2.5352h-0.84765v-2.5039c-0.7422,0.95573 -1.69663,1.694 -2.8633,2.2148l-0.51953,-0.70313c1.1068,-0.42447 2.0508,-1.03384 2.832,-1.8281h-2.8008v-0.69531h3.3516v-0.58203h-2.6406v-3.207h6.1797v3.207h-2.6914v0.58203h3.4024v0.69531zM264.667,198.9206v0.63672h1.8086v-0.63672zM264.667,200.1745v0.70313h1.8086v-0.70313zM269.1826,200.87763v-0.70313h-1.8594v0.70313zM269.1826,199.55733v-0.63672h-1.8594v0.63672z"/><path d="M275.32,198.73h2.832v0.69531h-1.1055c-0.13021,0.40886 -0.27343,0.78516 -0.42968,1.1289h2.1055v0.71094h-7.6016v-0.71094h2.0508c-0.10677,-0.36198 -0.2513,-0.73828 -0.43359,-1.1289h-1.0508v-0.69531h2.7773v-0.72656h0.85547zM273.6598,199.42531c0.15364,0.35157 0.28906,0.72787 0.40625,1.1289h1.6758c0.15365,-0.35677 0.28516,-0.73307 0.39453,-1.1289zM277.5036,201.80421v3.8008h-0.8711v-0.41015h-3.4336v0.41015h-0.86328v-3.8008zM273.1989,202.46827v0.67969h3.4336v-0.67969zM273.1989,203.77297v0.75h3.4336v-0.75z"/><path d="M279.8,199.1h2.1055c0.23177,-0.36979 0.40755,-0.66797 0.52734,-0.89454l0.8711,0.125c-0.07813,0.14063 -0.21615,0.36979 -0.41407,0.6875l-0.0508,0.082h2.7539v0.76953h-3.2734c-0.34115,0.46875 -0.66667,0.87501 -0.97656,1.2188c0.49219,-0.29427 0.94142,-0.44141 1.3477,-0.44141c0.63021,0 1.04297,0.31641 1.2383,0.94922c0.66667,-0.22135 1.34637,-0.4401 2.0391,-0.65625l0.33594,0.75781l-0.13672,0.0391l-0.38672,0.10157c-0.7292,0.19791 -1.31253,0.36718 -1.75,0.50781c0.03127,0.33854 0.0534,0.77604 0.0664,1.3125l-0.85547,0.0469c-0.00267,-0.30989 -0.00787,-0.64583 -0.0156,-1.0078v-0.0781c-1.19793,0.40885 -1.7969,0.82032 -1.7969,1.2344c0,0.21354 0.15364,0.35937 0.46093,0.4375c0.29688,0.07552 0.82815,0.11328 1.5938,0.11328c0.70573,0 1.44663,-0.04036 2.2227,-0.12109l0.0937,0.83203c-0.7526,0.05727 -1.53253,0.0859 -2.3398,0.0859c-0.9948,0 -1.70183,-0.07552 -2.1211,-0.22656c-0.51823,-0.1875 -0.77734,-0.52473 -0.77734,-1.0117c0,-0.41146 0.18359,-0.77473 0.55078,-1.0898c0.38021,-0.32552 1.04947,-0.66145 2.0078,-1.0078c-0.05207,-0.20052 -0.12108,-0.34114 -0.20703,-0.42187c-0.09635,-0.09115 -0.22396,-0.13672 -0.38281,-0.13672c-0.25781,0 -0.58203,0.09766 -0.97266,0.29297c-0.48177,0.23958 -0.9987,0.60025 -1.5508,1.082l-0.51953,-0.59375c0.80987,-0.7526 1.44397,-1.4922 1.9023,-2.2188h-1.5898z"/><path d="M290.48,199.73v-0.70312h-3.168v-0.70313h7.2148v0.70313h-3.2148v0.70312h2.4961v2.9961h0.91016v0.71875h-0.91016v1.3594c0,0.27865 -0.07812,0.47266 -0.23437,0.58203c-0.125,0.08594 -0.33203,0.12891 -0.6211,0.12891c-0.33073,0 -0.75779,-0.01563 -1.2812,-0.0469l-0.15234,-0.80859c0.50781,0.05727 0.92448,0.0859 1.25,0.0859c0.10156,0 0.16015,-0.02083 0.17578,-0.0625c0.0104,-0.02867 0.0156,-0.07424 0.0156,-0.13672v-1.1016h-4.082v2.1602h-0.84766v-2.1602h-0.91016v-0.71875h0.91016v-2.9961zM290.48,200.40969h-1.6016v0.80078h1.6016zM291.31203,200.40969v0.80078h1.6484v-0.80078zM290.48,201.85109h-1.6016v0.875h1.6016zM291.31203,201.85109v0.875h1.6484v-0.875z"/><path d="M297.05,199.43h1.5195v-1.4336h0.89453v1.4336h2.8047v0.81641h-2.8047v1.6445h2.5625v0.80078h-2.5625v1.8086h3.1133v0.8164h-7.2227v-0.8164h3.2148v-1.8086h-2.7109v-0.80078h2.7109v-1.6445h-1.875c-0.23177,0.45313 -0.50521,0.87369 -0.82032,1.2617l-0.70312,-0.58203c0.625,-0.71613 1.07553,-1.6315 1.3516,-2.7461l0.87109,0.16016c-0.11197,0.42187 -0.22656,0.78514 -0.34375,1.0898z"/><path d="M303.89,198.33h0.92188v4.6562c0,0.9818 0.51563,1.4727 1.5469,1.4727c0.67967,0 1.23697,-0.3138 1.6719,-0.94141c0.28125,-0.40364 0.53385,-1.02864 0.75781,-1.875l0.79297,0.48047c-0.26563,0.94013 -0.58464,1.64327 -0.95703,2.1094c-0.58594,0.72653 -1.34767,1.0898 -2.2852,1.0898c-0.9792,0 -1.6693,-0.30208 -2.0703,-0.90625c-0.25261,-0.3776 -0.37891,-0.86457 -0.37891,-1.4609z"/><path d="M313.52,198.18h0.86328v0.98438h2.457v0.74219h-2.457v0.92968h2.3203v0.73438h-2.3203v1.207c0.92707,0.3125 1.84113,0.78257 2.7422,1.4102l-0.46094,0.74218c-0.68227,-0.51041 -1.44267,-0.96095 -2.2812,-1.3516c-0.0208,0.44531 -0.10674,0.79038 -0.25781,1.0352c-0.26303,0.42448 -0.78126,0.63672 -1.5547,0.63672c-0.59635,0 -1.07552,-0.11198 -1.4375,-0.33594c-0.40365,-0.25 -0.60547,-0.58853 -0.60547,-1.0156c0,-0.51041 0.27214,-0.88801 0.81641,-1.1328c0.36458,-0.16146 0.83855,-0.24219 1.4219,-0.24219c0.22917,0 0.48047,0.01823 0.75391,0.0547v-1.0078h-2.7695v-0.73438h2.7695v-0.92968h-2.9375v-0.74219h2.9375zM313.52,203.305c-0.3099,-0.06507 -0.60678,-0.0976 -0.89063,-0.0976c-0.34635,0 -0.6276,0.05078 -0.84375,0.15234c-0.25781,0.12239 -0.38672,0.29687 -0.38672,0.52344c0,0.1901 0.10026,0.34375 0.30078,0.46094c0.20313,0.11979 0.47396,0.17968 0.8125,0.17968c0.40105,0 0.67709,-0.10677 0.82813,-0.32031c0.11979,-0.16667 0.17969,-0.41536 0.17969,-0.74609z"/><path d="M321.82,198.16h0.8789v1.0781h2.3047v0.75391h-2.3047v1.6719c0.09115,0.32031 0.13672,0.60547 0.13672,0.85547c0,0.92707 -0.20443,1.60807 -0.61328,2.043c-0.44531,0.47656 -1.11588,0.80599 -2.0117,0.98828l-0.44531,-0.66406c0.69533,-0.13281 1.21097,-0.32031 1.5469,-0.5625c0.31511,-0.22917 0.52735,-0.54037 0.63672,-0.9336c-0.27865,0.30469 -0.61068,0.45704 -0.99609,0.45704c-0.43229,0 -0.78256,-0.1224 -1.0508,-0.36719c-0.31511,-0.28907 -0.47266,-0.70833 -0.47266,-1.2578c0,-0.28907 0.06901,-0.56771 0.20703,-0.83594c0.09115,-0.17187 0.20313,-0.3151 0.33594,-0.42969c0.30729,-0.26041 0.67579,-0.39062 1.1055,-0.39062c0.27343,0 0.52083,0.0651 0.74219,0.19531v-0.76953h-3.8555v-0.75391h3.8555zM321.8512,202.2147v-0.14453c0,-0.16667 -0.03906,-0.3138 -0.11719,-0.4414c-0.14583,-0.23959 -0.35677,-0.35938 -0.63281,-0.35938c-0.14063,0 -0.27214,0.03906 -0.39454,0.11719c-0.28645,0.17969 -0.42968,0.45573 -0.42968,0.82812c0,0.23438 0.05208,0.4323 0.15625,0.59375c0.14583,0.22396 0.36068,0.33594 0.64453,0.33594c0.25781,0 0.46224,-0.11589 0.61328,-0.34766c0.10677,-0.16406 0.16016,-0.35807 0.16016,-0.58203z"/></g></g></g></svg>