<svg version="1.1" xmlns="http://www.w3.org/2000/svg" xmlns:xlink="http://www.w3.org/1999/xlink" width="105.49578" height="65.13743" viewBox="0,0,105.49578,65.13743"><g transform="translate(82.68212,-279.36239)"><g data-paper-data="{&quot;isPaintingLayer&quot;:true}" fill="#ff0000" fill-rule="evenodd" stroke="none" stroke-width="0" stroke-linecap="round" stroke-linejoin="round" stroke-miterlimit="10" stroke-dasharray="" stroke-dashoffset="0" style="mix-blend-mode: normal"><path d="M-17.95471,279.51246l0.21999,1.37994l1.47994,1.41994l1.71993,0.26999l0.67997,0.77997l2.72989,-0.14999l1.11996,0.38998l0.79997,1.32995l0.79997,0.04l1.95992,-0.70997l1.27995,0.72997l2.91988,-0.12999l1.06996,-0.88996l1.01996,-0.05l0.51998,0.84997l0.95996,0.41998l1.28995,1.84993l0.59998,1.56994l2.35991,0.45998l0.50998,0.95996l1.16995,0.35999l1.20995,-1.10996l1.63993,0.17999l0.61998,-0.55998l0.51998,-1.40994l-0.15999,-1.58994l0.86997,-0.71997l2.72989,-0.23999l0.87996,1.77993l1.63993,0.01l2.04992,-0.78997l0.40998,0.96996l-0.35999,1.32995l1.32995,1.22995l-0.07,1.08996l0.93996,0.63997l0.34999,0.95996l0.02,1.88992l-0.28999,1.08996l1.22995,2.82989l-0.33999,1.06996l-2.96988,0.89996l-0.80997,-0.81997l-0.76997,0.76997l-1.76993,-0.01l-0.57998,0.48998l-0.53998,1.78993l-2.25991,1.72993l-0.77997,1.56994l-1.55994,0.70997l-0.97996,1.12995l-1.85993,0.78997l-0.70997,-0.54998l-0.80997,0.17999l-0.70997,-0.83997l-0.74997,0.14999l-0.98996,1.36995l0.33999,1.62993l-0.72997,1.19995l0.33999,0.69997l-1.47994,0.67997l-0.46998,0.67997l0.80997,0.89996l-2.10992,1.98992l-1.40994,-0.80997l-1.20995,1.04996l0.28999,0.93996l-0.69997,1.18995l-1.12995,0.82997l-0.77997,0.08l-1.21995,1.77993l-0.35999,1.18995l-0.82997,1.06996l-1.55994,-0.57998l0.18999,-0.93996l-0.97996,-1.00996l-2.3899,-0.21999l-3.24987,0.38998l-3.23987,0.56998l-6.02976,1.44994l-0.91996,1.16995l-1.09996,-0.14999l-0.66997,0.98996l-0.78997,-0.26999l0.27999,-3.23987l0.59998,-0.94996l-1.08996,-0.36999l0.05,1.42994l-1.27995,0.59998l-0.06,0.91996l0.93996,1.47994l0.19999,0.84997l1.37994,0.31999l-2.81989,0.99996l-3.02988,1.37994l-1.55994,1.05996l-3.15987,1.55994l-0.78997,0.61998l-1.19995,-0.37998l-0.59998,0.30999l-0.38998,1.17995l-1.34995,-0.08l-0.23999,-1.19995l-1.04996,0.81997l-1.29995,-0.25999l0.88996,1.39994l-1.95992,0.71997l-1.72993,-0.33999l-0.59998,0.27999l-0.45998,1.43994l1.13995,-0.08l1.53994,-0.55998l0.56998,0.49998l1.66993,-1.27995l0.78997,-1.32995l0.78997,1.20995l1.05996,-0.12l0.66997,-1.12995l1.66993,1.39994l-0.12999,0.93996l-1.13995,-0.15999l-0.40998,0.87996l-0.71997,-0.17999l-2.34991,0.72997l-0.28999,0.52998l-1.44994,0.34999l-4.74981,0.12999l-0.67997,1.00996l-1.88992,1.11996l-1.80993,0.57998l-1.14995,-0.58998l-2.84989,1.64993l0.25999,1.21995l-0.44998,1.37994l0.35999,0.84997l-1.99992,-2.08992l-0.27999,-0.80997l-0.97996,-0.55998l-0.31999,-1.15995l-1.37994,0.08l-0.50998,-0.44998l-1.38994,0.52998l-1.14995,-0.06l-0.45998,-0.57998l-0.35999,-1.85993l1.99992,0.1l1.40994,-0.82997l-0.30999,-0.67997l0.15999,-2.18991l0.89996,-0.22999l1.48994,0.21999l1.91992,-0.53998l0.69997,-0.96996l-0.68997,-1.27995l-1.79993,-1.11996l-1.23995,-0.07l-0.62997,-0.57998l-0.94996,-0.04l-0.82997,-0.77997l-1.34995,0.12999l-0.48998,0.87996l-2.29991,0.01l-1.78993,1.00996l-1.16995,0.05l-1.40994,0.70997l-0.93996,0.87996l-1.16995,-1.03996l-1.71993,-0.1l-0.50998,-1.57994l-0.71997,-0.38998l-0.22999,-1.28995l-1.40994,0.61998l-1.02996,-0.56998l-1.89992,-0.19999l-0.19999,-1.14995l2.08992,-2.5499l0.35999,-1.73993l2.12991,-1.47994l0.33999,-0.79997l-0.03,-1.92992l-1.54994,-1.64993l0.23999,-1.16995l0.81997,-1.36995l1.25995,-0.56998l0.95996,-0.90996l-1.23995,-1.65993l0.77997,-3.36987l1.57994,-0.86997l1.58994,0.13999l0.97996,-0.41998l0.49998,-1.66993l-0.22999,-1.74993l0.60998,-1.16995l1.92992,-0.75997l-0.47998,-1.31995l2.13991,-1.92992l-0.33999,-2.23991l1.30995,-0.86997l1.27995,-1.26995l0.89996,-3.08988l1.09996,-0.11l1.60994,1.71993l1.70993,-0.27999l2.02992,-1.33995l0.52998,-1.31995l-0.16999,-0.74997l0.83997,-1.74993l1.49994,-0.73997l0.95996,0.36999l1.64993,1.53994l1.59994,0.13999l0.69997,-0.78997l1.22995,-0.41998l1.01996,-1.14995l1.31995,0.59998l2.26991,0.58998l0.90996,-1.41994l2.4099,-0.35999l0.75997,0.51998l3.17987,0.05l2.75989,0.25999l0.75997,0.37998l0.83997,-0.79997l0.17999,-1.48994l0.83997,0.11l0.82997,-0.75997v-1.01996l0.97996,-0.47998l-0.03,-0.64997l1.39994,-1.26995l0.71997,-0.02l2.09992,1.69993l1.47994,-0.87996l0.32999,-0.53998l1.48994,-0.11l1.61994,1.04996l0.79997,-0.97996l0.87996,-0.33999l1.65993,0.14999"/></g></g></svg>