<svg version="1.1" xmlns="http://www.w3.org/2000/svg" xmlns:xlink="http://www.w3.org/1999/xlink" width="224" height="140" viewBox="0,0,224,140"><g transform="translate(-128,-110)"><g data-paper-data="{&quot;isPaintingLayer&quot;:true}" stroke="none" stroke-width="1" stroke-linecap="butt" stroke-linejoin="miter" stroke-miterlimit="10" stroke-dasharray="" stroke-dashoffset="0" style="mix-blend-mode: normal"><path d="M342,140l10,0.94444v101.06h-224v-101.06l10,-0.94444z" fill="#1d2a41" fill-rule="evenodd"/><path d="M138,110h204c5.54,0 10,4.46 10,10v22h-224v-22c0,-5.54 4.46,-10 10,-10z" fill="#458eb2" fill-rule="evenodd"/><path d="M128,250v-140h224v140z" fill-opacity="0" fill="#000000" fill-rule="nonzero"/><path d="M216.619,119.2969h1.8789v1.4688h3.9062v2.4375h1.3594v1.4648h-1.3594v2.4141h-3.9062v0.91797h4.2578v1.4805h-4.2578v0.94922h4.8984v1.5742h-4.8984v2.6953h-1.8789v-2.6953h-4.4922v-1.5742h4.4922v-0.94922h-3.8203v-1.4805h3.8203v-0.91797h-3.375v-1.3867h3.375v-1.0273h-4.6875v-1.4648h4.6875v-1.0039h-3.2969v-1.4336h3.2969v-1.4688zM233.244,119.29718h1.8633v2.1719h3.5234l0.89062,0.76953l-0.0195,0.0625c-0.32429,1.0774 -0.70379,2.06488 -1.1387,2.9609l-0.0371,0.07617l-1.793,-0.53125l0.0684,-0.11133c0.31394,-0.5137 0.53545,-1.0271 0.69922,-1.543h-2.1934v2.5586h2.5312l0.85938,0.74023l-0.0195,0.0625c-0.6085,1.8254 -1.42269,3.3605 -2.4141,4.6406c0.9854,0.688 2.2208,1.28639 3.7402,1.7793l0.11523,0.03906l-0.97656,1.7441l-0.082,-0.03125c-1.6217,-0.6384 -2.9539,-1.38263 -4.0234,-2.2227c-1.0988,0.9683 -2.3355,1.7518 -3.7227,2.3242l-0.0645,0.02539l-1.2402,-1.3984l0.14062,-0.04883c1.4048,-0.497 2.6067,-1.20004 3.6309,-2.0879c-1.131,-1.2705 -1.96074,-2.6014 -2.4707,-3.9922h-0.16211c-0.03541,1.3635 -0.15258,2.5636 -0.36719,3.5703c-0.2734,1.2779 -0.7863,2.5004 -1.5371,3.666l-0.0644,0.09961l-1.4141,-1.293l0.04297,-0.07031c0.6803,-1.1081 1.1262,-2.3472 1.3379,-3.7207c0.13442,-0.8583 0.20312,-1.8245 0.20312,-2.8984v-5.1699h4.0938v-2.1719zM259.43897,119.297h1.832v1.6328h2.4297v1.5742h-2.4297v1.1445h2.7656v1.5898h-0.95899c-0.15384,0.5602 -0.35811,1.15213 -0.60351,1.7695h1.4688v1.5586h-2.6719v1.2461h2.5703v1.5898h-2.5703v3.2969h-1.832v-3.2969h-2.7578v-1.5898h2.7578v-1.2461h-2.8828v-1.5586h1.4004c-0.15407,-0.619 -0.3337,-1.2105 -0.54687,-1.7695h-1.1738v-1.5898h3.2031v-1.1445h-2.5469v-1.5742h2.5469v-1.6328zM210.07189,119.35944l0.06641,0.05273c0.9853,0.7546 1.78908,1.54977 2.4102,2.3867l0.05273,0.06836l-1.3281,1.3125l-0.08203,0.08008l-0.06836,-0.09375c-0.6459,-0.8888 -1.41994,-1.7067 -2.3203,-2.457l-0.08594,-0.07226l1.3555,-1.2773zM226.21712,119.47868l0.06836,0.04883c0.981,0.7082 1.86314,1.5397 2.6445,2.4941l0.0566,0.06836l-1.377,1.3926l-0.08203,0.08398l-0.06836,-0.09375c-0.6821,-0.9249 -1.51942,-1.79437 -2.5137,-2.6074l-0.08789,-0.07226l1.3594,-1.3145zM264.26829,119.85976h6.793v3.7559c0,0.46534 -0.08215,0.8099 -0.27539,1.0273c-0.2328,0.26342 -0.67434,0.36914 -1.3164,0.36914c-0.6174,0 -1.23422,-0.02581 -1.8516,-0.07813l-0.0762,-0.0059l-0.30469,-1.6133l0.13281,0.01367c0.86365,0.09364 1.41766,0.14062 1.6387,0.14062c0.10786,0 0.17269,-0.02301 0.20899,-0.05469c0.0363,-0.03168 0.0586,-0.07835 0.0586,-0.16602v-1.7832h-3.2227v4.3398h4.3672l1,0.85742l-0.01,0.05664c-0.2828,1.6655 -0.79827,3.1561 -1.5488,4.4688l-0.002,0.002l-0.0449,0.08398c0.5588,0.6349 1.24214,1.2205 2.0742,1.75l0.082,0.05273l-0.97656,1.6328l-0.0879,-0.05664c-0.7993,-0.5161 -1.50677,-1.14082 -2.1406,-1.8516c-0.545,0.6832 -1.14849,1.33038 -1.8242,1.9355l-0.082,0.07422l-0.80665,-1.1191v1.0078h-1.7852v-14.84zM241.90074,119.90622h10.766l1.0703,1.0449l-0.0879,0.07031c-1.321,1.0638 -2.5849,1.98068 -3.8047,2.7773c0.33517,0.17407 0.6982,0.36444 1.1191,0.5957l0.12891,0.07227l-0.88868,0.7207h4.4629l0.9707,0.9707l-0.0449,0.06836c-1.1749,1.7701 -2.3483,3.2254 -3.5215,4.3672l-0.0547,0.05273l-1.7695,-1.0371l0.0996,-0.0918c0.9645,-0.8812 1.71494,-1.75447 2.3164,-2.623h-3.5703v6.0254c0,0.72479 -0.18073,1.22413 -0.57422,1.4473c-0.2686,0.15468 -0.71453,0.21484 -1.3613,0.21484c-0.8427,0 -1.77,-0.05179 -2.7832,-0.15625l-0.0723,-0.0078l-0.42969,-1.9551l0.14453,0.02344c0.9699,0.15561 1.82979,0.23242 2.5781,0.23242c0.13778,0 0.24657,-0.01123 0.32227,-0.03125c0.0747,-0.01979 0.1103,-0.04867 0.125,-0.06836c0.0291,-0.04527 0.0625,-0.17311 0.0625,-0.37109v-5.3535h-6.5469v-1.707h8.1309c-1.6276,-0.9129 -3.2541,-1.72416 -4.8809,-2.3691l-0.16016,-0.06445l1.4453,-1.1504l0.0547,0.02148c1.1621,0.46592 2.18472,0.91794 3.082,1.3594c0.6925,-0.47416 1.28634,-0.93706 1.8281,-1.3945h-8.1562v-1.6836zM218.499,123.20327h2.0742v-1.0039h-2.0742zM230.968,125.71109h2.2773v-2.5586h-2.2773zM225.53052,123.31465l0.06836,0.04687c0.9092,0.6464 1.77253,1.46938 2.5898,2.4648l0.0566,0.06836l-1.3457,1.3613l-0.08008,0.08203l-0.06836,-0.08984c-0.7404,-0.9527 -1.5676,-1.80424 -2.4785,-2.5547l-0.08594,-0.07227l1.3438,-1.3066zM209.48547,123.32821l0.06836,0.05078c0.8461,0.6412 1.67229,1.45786 2.4785,2.4473l0.05664,0.07031l-1.3613,1.3457l-0.08203,0.08008l-0.06836,-0.0918c-0.7515,-0.9898 -1.53505,-1.83088 -2.3516,-2.5234l-0.08398,-0.07031l1.3438,-1.3086zM218.4992,125.69537h2.0742v-1.0273h-2.0742zM259.13419,125.23838c0.16142,0.4661 0.33244,1.0474 0.51367,1.7695h1.1465c0.23987,-0.599 0.42316,-1.18853 0.55664,-1.7695h-2.2168zM234.7244,130.02938c0.69604,-0.9047 1.18901,-1.81815 1.4805,-2.7441h-3.3887c0.4608,0.9906 1.09278,1.90691 1.9082,2.7441zM266.0544,127.41028v5.5684c0.5597,-0.4113 1.1077,-0.93361 1.6348,-1.6289c-0.76395,-1.1966 -1.30531,-2.5109 -1.627,-3.9395h-0.008zM267.71239,127.41028c0.22835,0.8505 0.55341,1.60746 0.95117,2.2969c0.37294,-0.7685 0.64503,-1.5348 0.77734,-2.2969h-1.7285zM211.06724,127.71505l1.5352,1.0801l-0.02148,0.07031c-0.6529,2.079 -1.47283,3.9928 -2.4609,5.7441l-0.05859,0.10352l-1.5605,-1.2383l-0.06836,-0.05469l0.04492,-0.07617c0.9958,-1.6285 1.84585,-3.4612 2.5469,-5.502l0.04297,-0.12695zM227.06741,127.86544l1.584,1.0938l-0.0254,0.07031c-0.6999,2.0839 -1.54556,3.9685 -2.5391,5.6523l-0.06055,0.10352l-1.5742,-1.3438l-0.06836,-0.05664l0.04883,-0.07422c0.9736,-1.4604 1.83874,-3.2345 2.5918,-5.3223l0.04297,-0.12305z" fill="#ffffff" fill-rule="nonzero"/></g></g></svg>