<?xml version="1.0" encoding="UTF-8"?>
<svg width="480" height="360" version="1.1" viewBox="0 0 480 360" xmlns="http://www.w3.org/2000/svg">
 <g dominant-baseline="central" fill="#fff" aria-label="ニュージーランド付近">
  <path d="m242.69 173.68h13.438v2.0996h-13.438zm-1.9824 11.182h17.402v2.1191h-17.402z" dominant-baseline="central"/>
  <path d="m261.66 175.69h9.8242q-0.23437 4.3262-0.92773 9.7852l-0.0879 0.68359h3.6914v1.8555h-14.355v-1.8555h8.5644q0.75195-5.2637 0.89844-8.6133h-7.6074z" dominant-baseline="central"/>
  <path d="m276.58 178.55h17.197v2.1973h-17.197z" dominant-baseline="central"/>
  <path d="m303.39 175.67q-2.8809-1.2891-5.8789-2.1582l0.63476-1.9336q3.3789 0.83984 5.9277 2.0508zm-2.002 5q-2.4024-1.0547-5.8789-2.1582l0.83985-1.9531q2.9883 0.79102 5.8008 2.0996zm-4.6191 5.3809q3.7793-0.30274 5.9961-1.084 5.7031-2.0215 7.2852-9.1699l2.002 1.2012q-1.2988 5.4785-4.8438 8.1543-2.3242 1.7578-5.7617 2.5-1.6504 0.36133-4.0527 0.58594zm12.363-11.299q-0.625-1.543-2.002-3.4375l1.543-0.55664q1.2402 1.6797 1.9922 3.3984zm2.959-0.53711q-0.81054-1.9238-1.9629-3.4766l1.4453-0.46875q1.1621 1.3476 1.9726 3.3008z" dominant-baseline="central"/>
  <path d="m314.82 178.55h17.197v2.1973h-17.197z" dominant-baseline="central"/>
  <path d="m335.72 171.91h12.881v2.002h-12.881zm-1.3965 4.7852h16.26q-0.42969 4.2578-1.7774 6.6602-1.0156 1.8066-2.5391 2.8809-2.5781 1.8359-7.5 2.5195l-0.98633-1.9824q4.3457-0.41992 6.6504-1.9922 2.9883-2.0215 3.4277-6.084h-13.535z" dominant-baseline="central"/>
  <path d="m360.21 176.36q-3.0859-1.377-6.416-2.207l0.6836-2.0996q3.8574 0.87891 6.4746 2.1875zm-6.1719 9.7168q4.834-0.41016 7.4024-1.7285 3.0273-1.5625 4.6484-4.7949 1.0547-2.0898 1.709-5.4688l1.875 1.377q-0.79102 3.6133-1.9141 5.7422-2.0312 3.877-6.2109 5.6152-2.6367 1.0938-7.0508 1.5625z" dominant-baseline="central"/>
  <path d="m373.51 171.05h2.2754v5.8008q5.8301 1.8066 9.6582 3.6816l-1.0938 2.0996q-3.6719-1.8652-8.5644-3.5449v9.7266h-2.2754zm8.5644 5.2637q-0.5957-1.5527-1.9824-3.623l1.5137-0.55664q1.2109 1.6699 2.0215 3.5547zm2.793-0.64453q-0.73242-1.8945-1.9531-3.6328l1.4551-0.47852q1.1035 1.3379 1.9824 3.3984z" dominant-baseline="central"/>
  <path d="m392.9 175.96v13.545h-2.1191v-10.029q-0.79102 1.1133-1.8359 2.3047l-1.1035-2.0996q1.9824-2.1973 3.3984-5.1172 0.85938-1.7676 1.7188-4.2188l2.041 0.55664q-0.88867 2.6758-2.0996 5.0586zm11.123-0.85937h2.9394v1.9629h-2.9394v10.254q0 1.2891-0.625 1.7188-0.45899 0.32227-1.7285 0.32227-1.5527 0-3.1836-0.17578l-0.41992-2.1387q1.7383 0.2539 3.2422 0.2539 0.41016 0 0.49805-0.17578 0.0586-0.12695 0.0586-0.41992v-9.6387h-7.9883v-1.9629h7.9883v-4.2578h2.1582zm-6.1816 9.4629q-1.1035-2.9395-2.7246-5.3613l1.8652-1.084q1.7578 2.5879 2.8223 5.3027z" dominant-baseline="central"/>
  <path d="m412.98 185.06q0.78125 0.90821 1.7578 1.3477 1.6016 0.72266 4.1992 0.72266h8.3203q-0.35156 0.66406-0.6543 1.9043h-7.7637q-3.3594 0-5.1465-1.0547-0.73243-0.43946-1.6113-1.4356-0.0684 0.0781-0.16602 0.19531-1.4355 1.6992-2.8516 2.7734l-1.1816-2.002q1.5527-0.92774 2.998-2.0996v-4.8242h-2.8418v-1.9238h4.9414zm2.5391-12.959 0.51758-0.0391q4.5215-0.3125 8.125-1.3379l1.5234 1.7188q-3.7891 0.99609-8.0859 1.3476v2.5293h9.043v1.9043h-3.2812v7.959h-2.1582v-7.959h-3.6035q-0.0488 3.1348-0.46875 4.9902-0.38086 1.709-1.25 3.0664l-1.7969-1.3574q0.9668-1.5039 1.2402-3.7305 0.19531-1.5332 0.19531-4.1699zm-3.6133 3.8184q-1.4941-2.1094-3.2227-3.7793l1.6016-1.2793q1.6797 1.4062 3.3789 3.5742z" dominant-baseline="central"/>
 </g>
</svg>
