<?xml version="1.0" encoding="UTF-8"?>
<svg width="480" height="360" version="1.1" viewBox="0 0 480 360" xmlns="http://www.w3.org/2000/svg">
 <g dominant-baseline="central" fill="#fff" aria-label="周防灘">
  <path d="m254.38 181.04v5.1465h-6.5723v1.0352h-1.9629v-6.1816zm-1.9922 1.543h-4.5801v2.002h4.5801zm5.8398-11.377v16.016q0 1.2988-0.66406 1.709-0.47852 0.29297-1.7676 0.29297-1.6211 0-3.2324-0.13672l-0.43945-2.0801q1.7285 0.19532 3.2031 0.19532 0.53711 0 0.64453-0.11719 0.0879-0.10742 0.0879-0.51758v-13.584h-11.865v5.498q0 4.8047-0.33203 6.9141-0.35157 2.2852-1.4746 4.1895l-1.7969-1.5039q1.0254-1.8457 1.2793-4.3945 0.18555-1.7383 0.18555-4.8828v-7.5977zm-7.0996 3.7793h3.8379v1.5625h-3.8379v1.5137h4.2578v1.582h-10.518v-1.582h4.1992v-1.5137h-3.7598v-1.5625h3.7598v-1.4258h2.0605z" dominant-baseline="central"/>
  <path d="m272.89 175.64q-0.0293 1.6699-0.11718 2.793h5.3711q-0.0586 5.9473-0.47851 8.916-0.0977 0.76171-0.48829 1.2012-0.58593 0.68359-2.0898 0.68359-1.4258 0-2.5488-0.11719l-0.38086-2.168q1.3086 0.26368 2.4316 0.26368 0.6543 0 0.84961-0.33203 0.47852-0.80079 0.59571-6.5918h-3.457q-0.78125 6.3867-4.7949 9.1894l-1.5527-1.543q2.9688-2.0117 3.8574-5.6641 0.60547-2.4902 0.68359-6.6309h-3.5254v-1.9434h4.4336v-3.2031h2.1387v3.2031h5.6836v1.9434zm-7.1289 2.0312q1.8848 2.4121 1.8848 5.0293 0 1.2793-0.43945 1.8945-0.55664 0.76172-1.9824 0.76172-0.69336 0-1.416-0.0977l-0.41992-2.002q0.89844 0.17578 1.416 0.17578 0.49804 0 0.625-0.19531 0.13672-0.23438 0.13672-0.91797 0-2.2559-1.8066-4.4434 0.92773-2.2754 1.4453-4.7266h-2.0215v16.348h-2.041v-18.184h5.4785l0.98633 0.87891q-0.8789 3.2129-1.8457 5.4785z" dominant-baseline="central"/>
  <path d="m289.3 175.71v0.88867h2.6562v1.2012q1.3965-3.4473 1.8848-7.3926l1.7773 0.26367q-0.36132 2.0605-0.69336 3.3594h1.0156q0.45898-1.7285 0.71289-3.5156l1.709 0.3125q-0.36132 1.7188-0.86914 3.2031h2.0312v1.7578h-1.9043v2.4902h1.5625v1.6992h-1.5625v2.4316h1.5625v1.7285h-1.5625v2.6172h2.0996v1.7969h-4.8145v0.9375h-1.6602v-10.82q-0.21485 0.51758-0.60547 1.3086l-0.6836-1.9629v2.3438h-2.6562v0.9375h2.793v1.416h-2.793q-0.0195 0.67383-0.0391 0.98633h3.3984v1.416h-3.584q-0.0195 0.10742-0.0684 0.3125 1.8066 1.0644 3.5156 2.4902l-1.1621 1.4551q-1.3281-1.2891-2.8516-2.4219l-0.10742-0.0879q-1.1328 1.8848-3.252 2.9102l-1.2402-1.5625q1.8262-0.64453 2.6856-1.8555 0.34179-0.46875 0.57617-1.2402h-2.9297v-1.416h3.2324q0.0684-0.67383 0.0781-0.98633h-2.7832v-1.416h2.793v-0.9375h-2.6562v-3.7598h2.6367v-0.88867h-1.6602v-2.1777h-0.97657l-1.5039 1.416q-0.9375-1.4746-2.6172-3.1348l1.4844-1.2598q1.2109 1.0059 2.373 2.5586v-1.0644h1.2402v-1.6797h1.6992v1.6797h1.7188v-1.6797h1.6797v1.6797h1.6211v1.4844h-1.6211v2.1777zm-1.6602 2.1289h-1.2598v1.2988h1.2598zm1.5625 0v1.2988h1.3184v-1.2988zm-1.6211-4.3066v0.97656h1.7188v-0.97656zm7.3242 2.2559v2.4902h1.1719v-2.4902zm0 4.1894v2.4316h1.1719v-2.4316zm0 4.1602v2.6172h1.1719v-2.6172zm-12.246-4.3652q-1.4356-1.9922-2.5586-3.1152l1.5234-1.2793q1.4648 1.3086 2.6367 3.0176zm-2.3633 8.418q1.377-2.9394 2.3438-7.1777l1.7578 0.87891q-0.75195 3.8965-2.2168 7.6856z" dominant-baseline="central"/>
 </g>
</svg>
