<svg version="1.1" xmlns="http://www.w3.org/2000/svg" xmlns:xlink="http://www.w3.org/1999/xlink" width="100.12974" height="104.84895" viewBox="0,0,100.12974,104.84895"><g transform="translate(200.78184,-309.42307)"><g data-paper-data="{&quot;isPaintingLayer&quot;:true}" fill="none" fill-rule="evenodd" stroke="#fc3324" stroke-width="36" stroke-linecap="round" stroke-linejoin="round" stroke-miterlimit="4" stroke-dasharray="" stroke-dashoffset="0" style="mix-blend-mode: normal"><g><path d="M-182.78184,343.69048l3.80939,-1.68973l-0.39993,-0.98984l4.3893,-2.38962l2.39962,-0.60991l-1.2798,3.51944l4.14934,-1.64974l0.83987,-1.57975l3.04951,-2.83954l9.69845,-4.13934l1.90969,-3.29947l1.78971,2.06967l0.6599,-1.86971l4.04935,-0.79987l1.32979,2.45961l4.27932,-0.50991l-0.55991,2.28963l-2.5296,3.32947l0.6399,2.32962l-1.76972,1.45977l1.04984,2.13965l3.01951,-1.91969l-1.18981,2.78955l0.40994,1.60974l-3.43945,1.01984l-0.6299,2.30963l2.80955,0.22996l2.40961,1.46977l0.6599,-1.78972l2.44961,1.2198l1.49976,-1.2398l4.28931,0.05999l1.60975,1.46976l-4.57927,2.04967l-0.16997,1.80971l3.46944,1.70973l2.74956,-1.2398l-1.95969,2.08966l1.54975,2.12966l1.38978,-0.12998l0.06,2.04967l-4.16934,0.6199l-0.80987,0.95984l0.6299,3.56943l-1.56975,-0.53992l-0.73988,1.9197l-2.59959,-2.06967l-0.95984,-2.46961l-3.1495,-1.06983l-2.43961,0.60991l0.02,2.26963l2.02967,-0.18997l-1.2098,-1.96969l1.64973,-0.36994l4.39929,4.54927l-2.90953,0.01l-0.17997,1.94969l1.8697,2.64958l0.16997,-1.27979l4.66925,0.63989l-0.10998,1.99968l-3.92938,-0.27995l1.8797,3.36946l0.96985,3.55944l-3.96937,1.09982l-2.27963,-0.41993l-1.00983,-1.54976l-1.85971,1.74972l7.35883,0.95985l1.50975,0.83987l-0.04,3.79939l0.94985,-0.95985l1.61974,4.9592l2.69957,0.58991l1.56975,1.37978l-2.60958,0.03999l-3.1595,-2.05967l-2.23964,0.59991l2.88953,1.89969l-1.1998,1.93969l-2.37962,0.11998l1.05983,1.97968l-0.47992,1.8497l4.3693,0.39994l1.10982,-2.02968l-3.02952,0.11999l2.88954,-1.53976l-1.33979,-2.10966l6.76892,0.80987l1.8597,3.65941l2.88954,-1.34978l2.75956,-0.14998"/><path d="M-153.29656,365.21704l0.24996,1.8497l-2.4496,-1.44976l2.19964,-0.39994"/><path d="M-157.85583,362.72744l2.41962,2.34963l-2.15966,-0.40994l-0.25996,-1.93969"/><path d="M-146.68762,358.30815l0.74988,1.54975l-2.68957,0.46992l1.93969,-2.01967"/></g></g></g></svg>