<svg version="1.1" xmlns="http://www.w3.org/2000/svg" xmlns:xlink="http://www.w3.org/1999/xlink" width="73.73706" height="45.46822" viewBox="0,0,73.73706,45.46822"><g transform="translate(-326.68455,-47.09871)"><g data-paper-data="{&quot;isPaintingLayer&quot;:true}" fill="#ff0000" fill-rule="evenodd" stroke="none" stroke-width="0" stroke-linecap="round" stroke-linejoin="round" stroke-miterlimit="10" stroke-dasharray="" stroke-dashoffset="0" style="mix-blend-mode: normal"><path d="M390.55201,55.30847l-1.04996,0.28999l-1.77993,-0.62998l-0.69997,0.26999l-0.77997,-0.52998l-1.08996,0.08l-1.02996,0.98996l0.08,1.38995l-1.94993,2.96988l0.52998,0.96996l-1.82993,0.90996l0.62997,1.12995l0.79997,0.25999l1.96992,1.91992l2.22991,0.57998l1.32995,1.61993l0.84996,-0.78997l1.38995,1.61993l1.57993,-1.19995l-0.06999,1.34994l1.37995,0.62998l1.25995,-0.88996l1.05996,0.07l-0.02,-1.50994l1.02996,0.62997l0.84996,-0.25999l0.65998,0.44998l1.19995,-0.29999l1.08996,0.56998l0.24999,1.37994l-0.83997,0.02l-0.80997,-0.63997l-3.28987,-0.01l-1.71993,0.69997l-0.22999,0.87996l-0.70997,0.25999l0.12999,1.85993l-1.08996,-0.46998l-1.13995,-1.16995l-0.29998,0.76997l0.15999,2.16992l0.82997,-0.37999l1.01996,0.81996l-0.91996,1.59993l-0.87997,0.89997l-0.33998,0.90996l-0.71997,-0.10999l-1.42994,1.97992l-0.74997,0.21999l0.85996,3.12987l1.48994,-0.72997l0.94997,-0.90996l-0.78997,-0.86996l0.70997,-0.74997l1.13995,0.93996l1.01996,0.16999l-0.01,1.19995l-2.17991,1.25995l-1.42994,1.60994l-0.03,1.28994l-0.82997,-0.29998l0.29998,-0.92997l-1.19995,-0.70997l-0.79997,0.46998l0.24999,0.85996l-1.22995,1.47994l-1.64994,-0.13l-1.33995,-0.89996l-0.68997,-1.06996l-1.09996,-0.13999l-0.31999,1.57994l-1.23995,0.47998l0.41998,0.71997l-0.79997,0.91996l1.04996,1.17995l-0.66997,0.85996l0.07999,0.69997l1.18996,0.38999l-1.21995,0.63997l-1.19996,0.03999l-1.44994,0.49998l-0.28999,-1.38994l0.56998,-0.98996l-0.54998,-2.4899l0.49998,-1.60994l1.07995,-1.85992l-0.13,-1.82993l-1.06995,0.42998l-1.35995,-0.21999l-0.99996,-1.20995l-1.77993,0.91996l-1.88992,-0.68997l-0.04999,-0.67998l-1.84992,-0.38999l-1.46995,0.06l-1.83992,0.62998l-0.45998,1.80993l-0.31999,2.20992l-0.95996,0.76997l-0.57998,2.05991l-1.61993,-0.13l-1.99992,0.73997l-2.79989,-0.39998l-0.75997,0.16999l-1.53994,-0.49998l-0.73997,0.17l-2.77989,-0.12l-1.08996,1.55993l-1.02996,0.80997l-3.25987,-0.54998l-2.4199,-1.28995l-0.35999,-0.53997l0.22999,-1.88993l0.66998,-1.26995l-2.4099,-1.78993l-1.69993,-2.4199l-2.21992,0.84996l-1.71993,0.05l-0.56997,1.21995l-1.00996,0.75997l-2.09992,-0.18l-2.18991,0.47998l-1.43994,0.71997l-1.52994,-0.86996l0.19999,-0.73997l-0.34998,-1.31994l0.25999,-0.48998l1.24995,-0.22999l2.4799,-1.55994l0.99996,-1.68993l-0.88996,-0.67998l1.26995,-1.67993l-0.13,-2.03992l-0.62998,-1.20995l0.79997,-1.59994l-0.24999,-0.81996l0.94996,-0.77997l0.1,-1.53994l1.41994,-2.3699l-0.52998,-4.13984l-1.09996,-0.64998l-1.09996,-0.21999l-0.55997,-0.81997l-0.78997,0.11999l-0.37999,-1.61993l1.14995,-0.21999l1.20995,-2.34991l-0.64998,-1.11996l0.84996,-0.57997l-0.49998,-0.80997l0.61997,-1.17996l1.30995,-1.18995l0.48998,1.52994l1.70993,-1.04996l0.32999,-0.65998l1.04995,0.36998l0.22999,1.26995l0.86996,0.90996l0.93997,0.21999l1.98992,-0.68997l0.71997,-1.30995l-0.54998,-0.56997l1.11996,-0.96996l1.42994,-0.31999l2.01992,-1.65993l1.22995,-0.12l0.48998,0.76997l0.88996,0.13l0.63997,0.95997l1.30995,0.53997l0.60998,-0.55998l1.10996,-0.03l2.3199,1.46994l1.29995,0.35998l0.50998,0.57998l1.47994,-0.76997l-0.02,1.17995l-0.73997,1.47994l0.02,1.54994l0.58997,0.42999l-0.09,1.51994l-1.21996,0.72997l-0.91996,-0.49998l-0.55998,1.97992l0.34999,1.08996l0.85996,0.93996l0.70997,1.97993l0.61997,0.66997l0.48998,1.89992l0.85996,1.49994l1.05996,-0.07999l1.27994,-0.71997l0.76997,-0.92996l1.94993,-0.60997l1.27994,0.28999l1.72993,-0.44998l0.94996,0.21999l2.18991,-1.08995l-0.82997,-2.89989l0.68997,-0.86997l0.38999,-1.39995l0.72997,-0.50997l0.06,-1.04996l1.07995,0.35998l1.09996,-0.06999l0.70997,0.48998l1.25995,-1.25995l1.63994,-0.25999l3.85984,0.01l1.78993,-1.76993l1.07996,-0.03l1.93992,-0.92996l1.29995,0.71997l0.63997,-0.37999l1.54994,0.96996l1.45995,-0.80997l0.06999,-0.44998l1.46994,-0.69997l0.40999,1.08996l-2.08992,1.42995"/><path d="M386.15219,61.50822l-1.63994,1.34995l-1.40994,0.17l0.1,-1.12996l1.16995,-0.78997l-0.51998,-1.46994l1.57994,-0.45998l-0.05,1.33995l0.76997,0.98996"/><path d="M399.05166,66.50802l-0.38999,-1.10996l0.61998,-0.40999l0.14999,-1.13995l0.46998,1.64993l-0.84996,1.00996"/><path d="M383.05229,88.60715l-0.26999,-1.39995l1.47994,1.30995l-1.20995,0.08999"/></g></g></svg>