<svg version="1.1" xmlns="http://www.w3.org/2000/svg" xmlns:xlink="http://www.w3.org/1999/xlink" width="50.05803" height="55.93777" viewBox="0,0,50.05803,55.93777"><g transform="translate(-243.10479,-112.35913)"><g data-paper-data="{&quot;isPaintingLayer&quot;:true}" fill="#ff0000" fill-rule="evenodd" stroke="none" stroke-width="0" stroke-linecap="round" stroke-linejoin="round" stroke-miterlimit="10" stroke-dasharray="" stroke-dashoffset="0" style="mix-blend-mode: normal"><path d="M283.53322,128.11852l1.87992,0.51998l1.88992,2.3799l1.71993,0.95996l1.82993,2.02992l0.37998,3.37986l0.74997,1.86993l1.17995,1.62993l-0.20999,0.35999h-0.74997l-1.35995,-1.83993l-2.21991,1.34995l-1.65993,0.13999l-1.29995,0.47998l0.22999,1.59994l-1.36995,0.38998l-1.09996,-0.32999l-1.48994,0.69997l-0.85997,0.94996l-0.57998,2.03992l0.43998,0.21999l-0.48998,2.29991l-0.78997,1.15995l2.5499,0.12l0.37998,1.01996l-1.36995,-0.04l-0.74997,0.35999l-0.07,2.75989l0.18999,0.92996l-0.80997,0.81997l-0.71997,2.3899l-1.53994,2.5399l-2.66989,3.92984l-1.90992,2.4599l-1.14995,-0.89996l-2.96988,0.47998l-0.23999,-0.50998l-1.53994,0.65997l-0.93996,0.08l-0.66997,0.78997l-2.90988,-1.53994l-1.59994,0.15999l-1.57994,-2.06992l0.03,-1.44994l-1.22995,-0.56998l-0.49998,0.58998l-0.97996,-0.44998l-0.33999,0.62997l-1.56994,0.41998l-1.29995,1.72993l-1.05996,-0.28999l-2.15991,0.54998l-2.05992,-0.09l-0.04,0.83997l-1.05996,0.62997l-1.78993,-0.70997l-1.52994,0.29999l-0.63997,-0.59998l0.54998,-0.77997l0.09,-1.59994l1.13995,-0.72997l-0.69997,-1.91992l-0.51998,-0.33999l0.59998,-1.31995l2.12991,-0.59998l0.78997,-0.65997l0.03,-0.77997l1.30995,-0.19999l1.30995,-0.82997l2.66989,-1.15995l0.16999,-2.06992l0.60998,-0.21999l-0.12,-2.25991l1.49994,-1.31995l0.70997,0.19999l0.82997,-2.15991l1.27995,-1.41994l0.05,-1.37994l0.49998,-0.96996l-0.43998,-1.36995l0.42998,-1.21995l-0.47998,-1.95992l0.13999,-1.48994l0.67997,-0.90996l1.68993,-1.18995l-0.62997,-1.92992l0.67997,-0.44998l-0.33999,-1.24995l0.37998,-1.76993l-0.24999,-0.69997l0.79997,-0.87996l-1.23995,-0.83997l0.72997,-1.02996l0.30999,-1.31995l0.89996,-0.30999l-0.03,-1.09996l-1.07996,-1.25995l-1.93992,-1.55994l-1.57994,-0.32999l0.73997,-2.23991l-0.1,-1.49994l1.57994,-1.42994l0.97996,1.54994l1.30995,-1.56994l1.19995,-0.96996l1.44994,0.30999l0.24999,-0.58998l2.31991,0.57998l0.47998,-0.45998l0.27999,-1.41994l1.43994,-0.88996l0.54998,0.27999l0.62997,1.75993l1.04996,1.10996l-0.32999,1.15995l0.97996,0.21999l0.48998,1.84993l1.27995,0.46998l1.06996,0.88996l1.17995,2.09992l1.54994,2.17991l0.30999,1.16995l0.86997,0.40998l0.61998,-0.44998l1.54994,0.30999l0.03,-2.21991l0.92996,0.57998l0.58998,1.44994l1.12995,1.76993l0.35999,0.71997"/><path d="M282.03328,144.71785l1.56994,0.73997l-1.13995,1.76993l-1.54994,-0.53998l0.26999,-1.76993l1.09996,-0.90996l0.91996,0.16999l-1.16995,0.53998"/></g></g></svg>