<svg xmlns="http://www.w3.org/2000/svg" viewBox="0 0 100 100" version="1.1" height="100" width="100">
 <rect stroke-width=".333" stroke-linejoin="round" stroke-linecap="round" stop-color="#000000" opacity=".988" fill="none" height="100" width="100" y="-1.4211e-14" x="-2.8422e-14"></rect>
 <path fill="#f00" d="m20.158 35.117c-2.1529 0-3.8812 0.65271-5.1836 1.9551-1.2758 1.2758-1.9141 3.0022-1.9141 5.1816v1.1172c0 2.0997 0.63828 3.7867 1.9141 5.0625 0.16213 0.15882 0.33054 0.30821 0.50586 0.44726-0.29163 0.20169-0.56965 0.42045-0.82422 0.66992-1.3024 1.3024-1.9551 3.122-1.9551 5.4609v1.7539c0 2.4187 0.65271 4.3066 1.9551 5.6621 1.3289 1.3289 3.163 1.9941 5.502 1.9941s4.1586-0.6652 5.4609-1.9941c1.3289-1.3555 1.9941-3.2434 1.9941-5.6621v-1.7539c0-2.3389-0.6652-4.1586-1.9941-5.4609-0.24433-0.24433-0.51216-0.45971-0.79297-0.6582 0.17834-0.14254 0.35018-0.29549 0.51367-0.45898 1.2758-1.2758 1.9141-2.9628 1.9141-5.0625v-1.1172c0-2.1795-0.63828-3.9059-1.9141-5.1816-1.2758-1.3024-3.0022-1.9551-5.1816-1.9551zm0 3.1504c0.77079 0 1.4071 0.15957 1.9121 0.47852 0.505 0.29237 0.89046 0.74415 1.1562 1.3555 0.26579 0.61131 0.39844 1.3553 0.39844 2.2324v1.1562c0 1.3289-0.29222 2.3527-0.87695 3.0703-0.58474 0.69105-1.447 1.0371-2.5898 1.0371-1.1163 0-1.9805-0.34606-2.5918-1.0371-0.58473-0.71763-0.87695-1.7414-0.87695-3.0703v-1.1562c0-0.8771 0.13265-1.6211 0.39844-2.2324 0.26579-0.61131 0.65125-1.0631 1.1562-1.3555 0.53158-0.31895 1.1699-0.47852 1.9141-0.47852zm0 12.08c1.2226 0 2.1656 0.39795 2.8301 1.1953 0.66447 0.79737 0.99609 1.9268 0.99609 3.3887v1.7559c0 0.95684-0.15957 1.7797-0.47852 2.4707-0.29237 0.69105-0.72972 1.2236-1.3145 1.5957-0.55816 0.34552-1.2358 0.51758-2.0332 0.51758s-1.4895-0.17205-2.0742-0.51758c-0.55816-0.3721-0.99551-0.90465-1.3145-1.5957-0.29237-0.69105-0.43945-1.5139-0.43945-2.4707v-1.7559c0-1.4618 0.33162-2.5913 0.99609-3.3887 0.69105-0.79737 1.636-1.1953 2.832-1.1953z"></path>
 <path fill="#f00" d="m40.684 59.771q3.4981 1.5262 9.3462 1.5262h9.3732q-0.59427 1.04-0.93192 2.6067h-8.3603q-6.9962 0-10.589-1.8638-1.9719-1.0265-3.5521-3.1469-0.59427 3.201-1.5802 5.5375l-2.0934-2.215q1.5127-3.9843 1.7963-10.913l2.4581 0.39168q-0.08103 2.1475-0.24311 3.9168 0.82387 1.3371 1.7423 2.2285v-8.2793h-5.5375v-2.5121h5.2269v-3.0659h-4.376v-2.4581h4.376v-3.3225h2.6877v3.3225h3.5521v2.4581h-3.5521v3.0659h4.5651v2.5121h-4.3085v3.2415h3.5116v2.5121h-3.5116zm10.98-17.815q-0.82387 5.3214-4.7136 7.8065l-1.8233-1.9854q1.6883-1.0265 2.5932-2.4446 0.83738-1.3236 1.2156-3.3765h-3.6602v-2.4041h12.655q-0.06753 6.0102-0.58076 7.9281-0.27012 0.99945-0.91842 1.3776-0.59427 0.35116-1.9854 0.35116-1.5667 0-2.7823-0.13506l-0.36467-2.4581q1.6072 0.24311 2.4716 0.24311 0.54024 0 0.71582-0.24311 0.48622-0.67531 0.63479-4.2679l0.0135-0.39168zm5.8076 8.3333v9.2922h-11.548v-9.2922zm-8.806 2.269v4.6731h6.0372v-4.6731z"></path>
</svg>
