<svg version="1.1" xmlns="http://www.w3.org/2000/svg" xmlns:xlink="http://www.w3.org/1999/xlink" width="134.36427" height="139.57344" viewBox="0,0,134.36427,139.57344"><g transform="translate(-586.37219,-34.22711)"><g data-paper-data="{&quot;isPaintingLayer&quot;:true}" fill="none" fill-rule="evenodd" stroke="#fc3324" stroke-width="36" stroke-linecap="round" stroke-linejoin="round" stroke-miterlimit="4" stroke-dasharray="" stroke-dashoffset="0" style="mix-blend-mode: normal"><path d="M604.37219,155.80055l5.50912,-2.20965l2.31962,-3.24948l-0.46992,-2.5096l1.96969,-5.51911l2.88954,-3.05952l4.59926,-2.92953l2.75955,-0.48992l1.81971,-1.61974l0.42993,-3.1295l2.91953,-2.40962l5.97905,-0.52991l0.87986,1.94969l2.94953,-0.61991l1.68973,-2.43961l3.64942,0.10998l1.12982,-1.99968l2.85954,1.41978l0.92985,-3.39946l1.39977,-1.63973l2.4996,0.12998l1.96969,-2.81955l1.31979,-5.90906l-0.68989,-2.32962l1.48976,-4.4293l-1.99968,-3.64941l-0.30995,-6.97888l1.02983,-5.6191l2.30963,-6.32899l1.67973,-3.0995l5.33915,-7.5388l5.88906,-5.93905l6.37898,-5.45912l2.59959,-1.77972l4.86922,-2.03967l2.69957,0.11998l0.99984,1.37977l8.93857,-3.15949l1.8497,0.22996l0.70988,1.64973l1.96969,0.54992l0.60991,-3.02952l-0.51992,-2.82955l-1.34978,-0.41993"/></g></g></svg>