<svg version="1.1" xmlns="http://www.w3.org/2000/svg" xmlns:xlink="http://www.w3.org/1999/xlink" width="400" height="400" viewBox="0,0,400,400"><defs><radialGradient cx="240" cy="180" r="200" gradientUnits="userSpaceOnUse" id="color-1"><stop offset="0" stop-color="#86046e"/><stop offset="0.4" stop-color="#86046e"/><stop offset="0.55" stop-color="#86046e" stop-opacity="0.56078"/><stop offset="0.7" stop-color="#86046e" stop-opacity="0.25098"/><stop offset="0.85" stop-color="#86046e" stop-opacity="0.05882"/><stop offset="1" stop-color="#86046e" stop-opacity="0"/></radialGradient></defs><g transform="translate(-40,20)"><g data-paper-data="{&quot;isPaintingLayer&quot;:true}" stroke-linecap="butt" stroke-linejoin="miter" stroke-miterlimit="10" stroke-dasharray="" stroke-dashoffset="0" style="mix-blend-mode: normal"><g><path d="M40,380v-400h400v400z" fill="none" fill-rule="nonzero" stroke="none" stroke-width="0"/><path d="M40,180c0,-110.46 89.543,-200 200,-200c110.457,0 200,89.543 200,200c0,110.457 -89.543,200 -200,200c-110.457,0 -200,-89.543 -200,-200z" fill="url(#color-1)" fill-rule="evenodd" stroke="none" stroke-width="1" opacity="0.09"/><path d="M150.5,180c0,-49.429 40.071,-89.5 89.5,-89.5c49.429,0 89.5,40.071 89.5,89.5c0,49.429 -40.071,89.5 -89.5,89.5c-49.429,0 -89.5,-40.071 -89.5,-89.5z" fill="#86046e" fill-rule="nonzero" stroke="#d855d1" stroke-width="15"/></g><path d="M247.06999,139.57111l-1.1007,0.31828c-14.417,4.184 -24.719,9.4029 -30.911,15.514c-7.068,6.959 -11.3535,14.4356 -13.231,22.412c5.867,-7.2559 14.036,-11.132 24.492,-11.132c9.415,0 17.5622,2.9895 24.275,8.9327l0.002,0.002c7.3546,6.542 11.079,14.995 11.079,25.108c0,10.332 -3.3103,19.0592 -9.8951,25.987c-6.978,7.3626 -16.315,11.056 -27.774,11.056c-13.41,0 -24.1868,-5.0339 -32.023,-14.999v-0.002h-0.002c-6.3437,-8.102 -9.4575,-19.403 -9.4575,-33.797c0,-10.104 2.8925,-20.1382 8.6315,-30.055c9.645,-16.794 25.874,-27.8616 48.447,-33.158l0.75781,-0.17809zM223.3198,180.688c-6.078,0 -11.1585,2.3646 -15.467,7.2371l-0.004,0.004c-3.4187,3.8204 -5.066,7.835 -5.066,12.17c0,4.7349 1.33,9.0221 4.0202,12.957c4.364,6.3853 9.8702,9.4556 16.829,9.4556c6.0853,0 10.9591,-2.2601 14.883,-6.9018c3.1376,-3.773 4.7155,-8.5174 4.7155,-14.385c0,-6.6442 -1.9266,-11.6416 -5.7575,-15.236c-3.784,-3.5446 -8.4384,-5.3009 -14.154,-5.3009z" fill="#ffffff" fill-rule="nonzero" stroke="none" stroke-width="1"/><path d="M278.809,128.36h0.97v22.28h22.28v13.459h-22.28v22.28h-13.459v-22.28h-22.282v-13.459h22.282v-22.28z" fill="#ffffff" fill-rule="nonzero" stroke="none" stroke-width="1"/></g></g></svg>