<svg version="1.1" xmlns="http://www.w3.org/2000/svg" xmlns:xlink="http://www.w3.org/1999/xlink" width="64" height="64" viewBox="0,0,64,64"><g transform="translate(-208,-148)"><g data-paper-data="{&quot;isPaintingLayer&quot;:true}" fill-rule="nonzero" stroke="none" stroke-width="1" stroke-linecap="butt" stroke-linejoin="miter" stroke-miterlimit="10" stroke-dasharray="" stroke-dashoffset="0" style="mix-blend-mode: normal"><path d="M208,212v-64h64v64z" fill="none" opacity="0.988"/><path d="M230.61123,165.928v0.0059c1.3797,0.0132 2.6095,0.35334 3.6816,1.0332c1.12,0.6667 1.9987,1.5865 2.6387,2.7598c0.66667,1.1467 1,2.48 1,4v13.801c0,1.4933 -0.33333,2.8267 -1,4c-0.64,1.1733 -1.5187,2.10547 -2.6387,2.7988c-1.0721,0.65373 -2.3018,0.98341 -3.6816,0.99609v0.0039h-0.24023v-0.0039c-1.3804,-0.01268 -2.6205,-0.34236 -3.7188,-0.99609c-1.0933,-0.6933 -1.97393,-1.6255 -2.6406,-2.7988c-0.64,-1.1733 -0.95898,-2.5067 -0.95898,-4v-13.801c0,-1.52 0.31898,-2.8533 0.95898,-4c0.6666,-1.1734 1.5473,-2.09313 2.6406,-2.7598c1.0983,-0.67986 2.3385,-1.01999 3.7188,-1.0332v-0.0059zM227.69128,170.2873c-0.66667,0.8 -1,1.9462 -1,3.4395v13.801c0,1.4667 0.33333,2.61283 1,3.4395c0.6667,0.80003 1.5865,1.2012 2.7598,1.2012h0.08008c1.2,0 2.1217,-0.4012 2.7617,-1.2012c0.66667,-0.8267 1,-1.9728 1,-3.4395v-13.801c0,-1.4934 -0.33333,-2.6395 -1,-3.4395c-0.64,-0.82663 -1.5617,-1.2402 -2.7617,-1.2402h-0.08008c-1.1734,0 -2.09313,0.41353 -2.7598,1.2402z" fill="#ff0000"/><path d="M249.16799,165.92785c0.00672,0 0.01283,0.00198 0.01953,0.002c0.0067,-0.0001 0.01283,-0.002 0.01953,-0.002v0.002c1.3969,0.0065 2.6377,0.35034 3.7207,1.0371c1.12,0.6667 2.0006,1.5865 2.6406,2.7598c0.66667,1.1733 1,2.5067 1,4v2.7207c0,0.05468 -0.00887,0.10585 -0.0098,0.16016h0.0098c0,2.16 -0.22636,4.1724 -0.67969,6.0391c-0.4267,1.8667 -1.01313,3.6012 -1.7598,5.2012c-0.7467,1.5733 -1.58817,2.9993 -2.5215,4.2793c-0.9066,1.2533 -1.85313,2.34597 -2.8398,3.2793l-2.7188,-1.959c0.88,-0.96 1.7319,-1.9476 2.5586,-2.9609c0.8267,-1.0133 1.5612,-2.1451 2.2012,-3.3984c0.50379,-1.0075 0.92126,-2.1451 1.2598,-3.4004c-0.8663,0.36755 -1.8208,0.55194 -2.8613,0.55664v0.002c-0.00671,0 -0.01283,-0.00198 -0.01953,-0.002c-0.00671,0.0001 -0.01283,0.002 -0.01953,0.002v-0.002c-1.3972,-0.00625 -2.6504,-0.33769 -3.7598,-0.99805c-1.0933,-0.6933 -1.97393,-1.6255 -2.6406,-2.7988c-0.64,-1.2 -0.95898,-2.5333 -0.95898,-4v-2.7207c0,-1.4933 0.31898,-2.8267 0.95898,-4c0.6666,-1.1734 1.5473,-2.09313 2.6406,-2.7598c1.1094,-0.68676 2.3626,-1.0306 3.7598,-1.0371v-0.002zM246.44733,170.2874c-0.66667,0.8 -1,1.9462 -1,3.4395v2.7207c0,1.4667 0.33333,2.61283 1,3.4395c0.6627,0.79528 1.5767,1.1945 2.7402,1.1992c1.1898,-0.0046 2.10389,-0.40381 2.7402,-1.1992c0.66667,-0.8267 1,-1.9728 1,-3.4395v-2.7207c0,-1.4934 -0.33333,-2.6395 -1,-3.4395c-0.6363,-0.79542 -1.5503,-1.1927 -2.7402,-1.1973c-1.1634,0.0047 -2.07745,0.402 -2.7402,1.1973z" fill="#ff0000"/></g></g></svg>