<?xml version="1.0" encoding="UTF-8"?>
<svg width="480" height="360" version="1.1" viewBox="0 0 480 360" xmlns="http://www.w3.org/2000/svg">
 <g dominant-baseline="central" fill="#fff" aria-label="グアム付近">
  <path d="m254.1 173.78 1.7578 1.7383q-1.1035 5.5566-3.9551 8.7109-2.6856 2.9688-8.0859 4.5898l-1.2207-1.9727q4.7168-1.1914 7.3144-3.8086 2.8418-2.8613 3.7305-7.2559h-6.4844q-1.9141 2.8516-4.6777 4.7168l-1.582-1.6211q2.2266-1.4258 3.6426-3.1152 1.6016-1.9336 2.5586-4.6875l2.0996 0.58594q-0.41016 1.1523-0.89844 2.1191zm0.63477 0.19531q-0.58594-1.6211-1.7383-3.2617l1.6406-0.37109q0.9961 1.2695 1.7774 3.2129zm2.9394-0.11719q-0.625-1.8359-1.7188-3.4766l1.6016-0.3418q0.9961 1.3574 1.7188 3.3008z" dominant-baseline="central"/>
  <path d="m260.18 172.5h15.303l1.2598 1.0644q-0.54687 2.041-1.4258 3.4082-1.6504 2.5879-4.9414 3.8672l-1.2305-1.6797q2.2754-0.6836 3.7793-2.4512 0.88867-1.0449 1.2402-2.207h-13.984zm6.2598 4.2188h2.2363v1.6797q0 3.7793-0.83984 5.8398-1.0644 2.6172-4.1406 4.2578l-1.6113-1.6992q2.1191-1.0058 3.0957-2.4023 0.75195-1.084 0.98633-2.2949 0.27344-1.3867 0.27344-3.7207z" dominant-baseline="central"/>
  <path d="m278.12 185.27q0.67383-0.01 1.8555-0.0977 2.7832-6.25 5.127-13.76l2.2363 0.58593q-2.3047 7.207-4.9219 13.018 4.9609-0.36133 8.7988-0.87891-1.4453-2.5488-2.9395-4.707l1.9238-1.2207q3.0762 4.2383 5.4004 8.9844l-2.1973 1.1426q-0.53711-1.1328-1.1816-2.3633-5.7031 0.95703-13.623 1.6992z" dominant-baseline="central"/>
  <path d="m301.46 175.96v13.545h-2.1191v-10.029q-0.79102 1.1133-1.8359 2.3047l-1.1035-2.0996q1.9824-2.1973 3.3984-5.1172 0.85938-1.7676 1.7188-4.2188l2.041 0.55664q-0.88867 2.6758-2.0996 5.0586zm11.123-0.85937h2.9395v1.9629h-2.9395v10.254q0 1.2891-0.625 1.7188-0.45898 0.32227-1.7285 0.32227-1.5527 0-3.1836-0.17578l-0.41993-2.1387q1.7383 0.2539 3.2422 0.2539 0.41016 0 0.49805-0.17578 0.0586-0.12695 0.0586-0.41992v-9.6387h-7.9883v-1.9629h7.9883v-4.2578h2.1582zm-6.1816 9.4629q-1.1035-2.9395-2.7246-5.3613l1.8652-1.084q1.7578 2.5879 2.8223 5.3027z" dominant-baseline="central"/>
  <path d="m321.53 185.06q0.78125 0.90821 1.7578 1.3477 1.6016 0.72266 4.1992 0.72266h8.3203q-0.35157 0.66406-0.6543 1.9043h-7.7637q-3.3594 0-5.1465-1.0547-0.73242-0.43946-1.6113-1.4356-0.0684 0.0781-0.16602 0.19531-1.4356 1.6992-2.8516 2.7734l-1.1816-2.002q1.5527-0.92774 2.998-2.0996v-4.8242h-2.8418v-1.9238h4.9414zm2.5391-12.959 0.51757-0.0391q4.5215-0.3125 8.125-1.3379l1.5234 1.7188q-3.7891 0.99609-8.0859 1.3476v2.5293h9.043v1.9043h-3.2812v7.959h-2.1582v-7.959h-3.6035q-0.0488 3.1348-0.46875 4.9902-0.38086 1.709-1.25 3.0664l-1.7969-1.3574q0.9668-1.5039 1.2402-3.7305 0.19532-1.5332 0.19532-4.1699zm-3.6133 3.8184q-1.4941-2.1094-3.2226-3.7793l1.6016-1.2793q1.6797 1.4062 3.3789 3.5742z" dominant-baseline="central"/>
 </g>
</svg>
