<svg version="1.1" xmlns="http://www.w3.org/2000/svg" xmlns:xlink="http://www.w3.org/1999/xlink" width="35.4286" height="90.70639" viewBox="0,0,35.4286,90.70639"><g transform="translate(-307.29533,-164.13411)"><g data-paper-data="{&quot;isPaintingLayer&quot;:true}" fill="#ff0000" fill-rule="evenodd" stroke="none" stroke-width="0" stroke-linecap="round" stroke-linejoin="round" stroke-miterlimit="10" stroke-dasharray="" stroke-dashoffset="0" style="mix-blend-mode: normal"><path d="M342.35394,174.90369l-2.16991,7.4597l-0.96996,3.68985l-0.53998,2.84989l-0.70997,0.71997l0.91996,0.46998l-0.78997,1.80993l-0.40999,2.63989l-0.40999,1.49994l-0.12,3.56986l0.25999,1.80992l2.5799,3.28987l0.82997,0.27999l-2.05991,4.29982l0.52997,1.36995l-0.99996,0.37998l0.50998,1.50994l-0.98996,1.37994l0.39999,0.64998l-0.61998,0.62998l1.22995,1.33995l-1.18995,0.56998l-0.44999,1.47994l0.90997,0.07l0.21999,1.92992l-0.98996,1.74993l0.86996,0.52998l-0.51998,0.99996l-1.08996,0.87996l-2.34991,0.98996l-1.30995,2.15992l0.27999,0.89997l-1.27995,0.47998l-0.33999,1.96992l-1.16995,0.40999l-0.31998,0.66997l0.40999,1.36995l-0.44998,1.72993l0.44998,0.81997l-1.15995,1.57994l1.12995,0.34998l-0.19999,0.98996l0.57997,1.00996l-0.41998,0.62998l-2.15991,1.00996l0.15999,1.89992l0.52998,0.48998l0.26999,1.80993l-0.71997,1.79993l-0.81997,0.13999l-1.47994,1.02996l0.1,1.34994l-0.96996,0.06l-0.13999,1.06995l0.32998,1.06996l1.43995,1.05996l-0.09,0.58998l-1.35995,0.63997l-1.22995,-0.52997l-0.70997,-0.86997l-0.16,-1.55994l-0.51997,-0.55998l-1.22996,0.64997l-0.59997,-0.46998l-0.85996,0.90996l-1.98992,0.21999l-1.65993,-0.78997l-1.02996,-2.20991l0.12,-1.15996l0.82997,-0.67997l-0.19999,-0.62998l-1.72994,-0.69997l-0.72997,-0.96997l-1.32994,-0.87996l0.13999,-0.55998l-2.4999,-0.42998l-0.48998,0.77997l-1.63993,-1.40994l0.39999,-1.37995l-0.11,-1.22995l0.77996,-1.16995l0.11,-0.93996l2.46991,-1.11996l0.39998,-0.71997l0.07,-1.56994l-0.41998,-0.90996l-0.18999,-1.56994l-0.60998,-0.57997l1.24995,-1.16996l0.35999,-1.49994l-0.79997,-1.78992l-1.01996,-0.97996l-0.19999,-0.76997l0.41998,-1.41994l1.30994,-1.50994l-0.49998,-1.10996l-1.66994,-0.73997l-0.07999,-0.64997l-1.20995,-1.45994l-0.72997,-0.21999l0.84996,-1.77993l1.60994,-1.57994l1.80992,-0.57998l1.46995,-1.09996l1.40994,-0.30998l0.73997,-2.01992l2.06992,-0.34999l0.32998,-1.54994l0.53998,-0.67997l-0.51998,-2.97988l-2.23991,0.30999l-0.34998,-0.53998l0.32998,-1.51994l-0.27999,-1.50994l-1.58993,-2.4399l0.58997,-0.76997l1.30995,-0.67998l0.11,-1.12995l1.17996,-1.15996l-0.44999,-0.56998l-0.28999,-1.59994l-0.76997,0.28999l-2.21992,-0.43998l-1.01995,2.01992l-1.10996,-0.75997l-0.55998,-1.29995l0.08,-3.40986l0.89996,-0.98996l0.89996,0.65997l1.14996,-0.79997l-0.59998,-1.35994l-1.94993,-1.47994l-0.19999,-0.93996l0.73997,-1.43994l0.46998,-0.03l0.37998,-1.69993l-0.80996,-0.30999l-0.33999,-0.87997l-1.22995,-0.50998l-1.05995,0.32999l-0.74997,-0.72997l-0.25999,-1.40994l-1.10996,-1.11996l0.42998,-1.15995l-0.04999,-1.83992l0.95996,-0.98996l-0.02,-1.57994l-0.60997,-1.02996l2.3999,-1.33995l-0.69997,-1.38994l-0.08,-1.63994l-0.60997,-2.21992l0.83997,0.18l1.45994,-0.48998l1.11996,1.22995l1.31995,-0.29998l0.82997,0.94996l0.83997,1.53994l1.14995,0.57997l2.05992,-0.07l0.89997,1.93993l0.90996,0.91996l2.76989,1.62993l0.68998,-0.07l0.25999,1.01996l0.81997,0.83997l0.31998,0.91997l1.61993,1.21995l0.97996,-0.02l1.44995,0.97996l1.34994,-0.24999l-0.12,-1.39994l1.62994,-3.29987l0.49998,-0.52998l1.37994,0.84997l0.41998,0.71997l1.57994,-0.54998l1.17995,0.57997l1.44994,0.20999l1.92992,1.05996l2.06992,-0.56997l-0.36999,0.63997"/><path d="M333.55427,234.80129l-0.62997,1.43994l-0.67997,-1.27994l0.72997,-1.38995l0.57997,1.22995"/></g></g></svg>