<?xml version="1.0" encoding="UTF-8"?>
<svg width="480" height="360" version="1.1" viewBox="0 0 480 360" xmlns="http://www.w3.org/2000/svg">
 <g dominant-baseline="central" fill="#fff" aria-label="山梨県東部・富士五湖">
  <path d="m251.04 185.42h4.9219v-10.742h2.2168v14.658h-2.2168v-1.7969h-11.943v1.7969h-2.1973v-14.658h2.1973v10.742h4.8047v-14.727h2.2168z" dominant-baseline="central"/>
  <path d="m265.18 176.66q-1.3086 1.9531-3.3789 3.3594l-1.2402-1.3965q2.2461-1.2695 3.8477-3.3398h-3.5059v-1.582h4.2773v-1.1426q-1.25 0.11719-3.1152 0.20508l-0.64453-1.4258q4.5801-0.29297 7.7441-0.89844l0.9375 1.4062q-1.582 0.33203-2.9395 0.49805v1.3574h3.6816v1.582h-3.6816v0.48828q1.8457 0.71289 3.6621 1.7676l-1.1426 1.4844q-1.1621-0.87891-2.373-1.582l-0.14649-0.0781v3.0371h-1.9824zm7.6367 6.4551q2.793 2.2168 6.8652 3.6426l-1.2988 1.8652q-4.6387-1.9727-7.3828-4.9805v5.8594h-2.1191v-5.8008l-0.0586 0.0781q-2.7539 3.3984-7.1387 5.1855l-1.2598-1.7676q4.0625-1.4062 6.8945-4.082h-6.8164v-1.6992h8.3789v-1.8945h2.1191v1.8945h8.4961v1.6992zm-1.1719-11.719h2.0801v6.1816h-2.0801zm4.5215-0.74218h2.1387v7.998q0 1.1133-0.85937 1.3965-0.39063 0.13672-1.4062 0.13672-1.0449 0-2.1094-0.10743l-0.36133-1.709q1.1816 0.14648 2.041 0.14648 0.41015 0 0.49805-0.2246 0.0586-0.14649 0.0586-0.45899z" dominant-baseline="central"/>
  <path d="m296.76 170.98v9.4629h-11.621v-9.4629zm-9.5215 1.543v1.2207h7.4023v-1.2207zm0 2.5977v1.2207h7.4023v-1.2207zm0 2.5976v1.2598h7.4023v-1.2598zm-3.9356 4.0234h16.191v1.6992h-8.0762v6.0644h-2.2168v-6.0644h-8.0371v-10.957h2.1387zm-2.5 5.8984q2.3242-1.0742 4.4434-3.6035l1.7969 1.0449q-2.0898 2.6465-4.6387 4.1602zm16.836 1.2598q-1.4941-1.8359-4.4922-3.8574l1.6797-1.1816q2.3535 1.3574 4.6191 3.5644z" dominant-baseline="central"/>
  <path d="m313.2 183.15q2.4219 2.1582 6.5234 3.4863l-1.2598 1.8359q-2.3633-0.83984-4.1211-2.0312-1.8164-1.2402-3.3496-3.0469v6.1035h-2.1191v-5.9961q-1.3574 1.9043-3.5059 3.418-1.6504 1.1621-3.5352 1.875l-1.3379-1.7188q3.0957-1.0254 5.166-2.7637 0.58594-0.48829 1.1914-1.1621h-4.6973v-7.998h6.7188v-1.3184h-8.0957v-1.7578h8.0957v-1.582h2.1191v1.582h8.2227v1.7578h-8.2227v1.3184h6.8457v7.998zm-4.3262-6.3574h-4.5996v1.582h4.5996zm2.1191 0v1.582h4.7266v-1.582zm-2.1191 3.1055h-4.5996v1.6113h4.5996zm2.1191 0v1.6113h4.7266v-1.6113z" dominant-baseline="central"/>
  <path d="m326.98 172.75h4.1797v1.8848h-1.377q-0.3711 1.4941-0.9961 3.1348h2.6074v1.8848h-10.898v-1.8848h2.3926q-0.39062-1.875-0.82031-3.1348h-1.2695v-1.8848h4.1406v-2.2559h2.041zm-2.9394 1.8848q0.49805 1.4551 0.77148 3.1348h1.9922l0.09766-0.27344q0.41992-1.1133 0.78125-2.5293l0.0879-0.33203zm6.0547 6.6602v7.998h-2.002v-0.95703h-4.2578v1.1621h-2.0606v-8.2031zm-6.2598 1.7969v3.3887h4.2578v-3.3887zm13.047-4.9316q1.1621 1.1035 1.8457 2.627 0.67383 1.5234 0.67383 3.0859 0 1.4453-0.53711 2.1289-0.55664 0.71289-1.8359 0.71289-1.0938 0-2.1191-0.15625l-0.47852-2.0801q1.1816 0.21485 1.9531 0.21485 0.58594 0 0.73242-0.27344 0.0977-0.19531 0.0977-0.78125 0-2.4121-1.4453-4.1602-0.38086-0.45898-0.95703-0.98633l0.11719-0.27343q1.0156-2.2949 1.582-4.7852h-2.5v16.064h-2.0215v-18.086h5.8789l1.084 0.99609q-0.98633 3.3594-2.0703 5.752z" dominant-baseline="central"/>
  <path d="m345.02 177.79q0.76172 0 1.377 0.50781 0.81055 0.66406 0.81055 1.6992 0 0.63477-0.36133 1.1816-0.65429 1.0156-1.8555 1.0156-0.52734 0-1.0059-0.25391-0.38085-0.19531-0.64453-0.51758-0.53711-0.63476-0.53711-1.4453 0-1.1328 0.94727-1.7969 0.56641-0.39062 1.2695-0.39062z" dominant-baseline="central"/>
  <path d="m361.03 172.08h7.8613v3.7988h-2.0996v-2.2559h-13.584v2.2559h-2.0996v-3.7988h7.7637v-1.582h2.1582zm5.1562 4.8535v3.8672h-12.383v-3.8672zm-10.381 1.3184v1.2305h8.3789v-1.2305zm12.207 3.3887v7.8613h-2.0801v-0.78125h-11.865v0.78125h-2.0801v-7.8613zm-13.945 1.4356v1.3672h4.8633v-1.3672zm0 2.7246v1.4551h4.8633v-1.4551zm11.865 1.4551v-1.4551h-5v1.4551zm0-2.8125v-1.3672h-5v1.3672zm-11.904-9.8828h11.943v1.5039h-11.943z" dominant-baseline="central"/>
  <path d="m378.84 175.94v-5.2637h2.1973v5.2637h8.4668v2.0215h-8.4668v8.1934h7.4805v2.0215h-17.021v-2.0215h7.3438v-8.1934h-8.3398v-2.0215z" dominant-baseline="central"/>
  <path d="m399.96 173.76q-0.01 0.10742-0.0293 0.26367-0.19531 1.4648-0.50781 3.1836l-0.13672 0.75195h6.9141v8.3398h3.3008v1.9629h-19.004v-1.9629h4.6875q0.73242-2.5391 1.5332-6.416h-3.916v-1.9238h4.2871q0.48828-2.6953 0.64453-4.1992h-5.7129v-1.9238h15.732v1.9238zm4.0039 6.123h-5.0293q-0.21485 1.1328-0.3125 1.6895-0.35157 1.9434-1.0352 4.7266h6.377z" dominant-baseline="central"/>
  <path d="m424.64 182.54q-0.13672 2.2852-0.54687 3.7793-0.49805 1.8066-1.582 3.2422l-1.4356-1.3477q1.2207-1.7578 1.6113-4.1113 0.22461-1.3574 0.22461-3.0566v-9.8438h6.0938v16.416q0 0.92773-0.42969 1.3184-0.39063 0.36132-1.377 0.36132-1.0352 0-1.8262-0.11718l-0.36132-2.002q1.0254 0.15625 1.7383 0.15625 0.35156 0 0.41015-0.20507 0.0293-0.11719 0.0293-0.39063v-4.1992zm0.0293-1.7773h2.5195v-3.0078h-2.5195zm0-4.7852h2.5195v-2.8711h-2.5195zm-5.1367-1.7773h2.8516v1.9043h-2.8516v3.4961h2.1289v7.5781h-4.4629v1.4356h-1.7774v-9.0137h2.168v-3.4961h-2.9492v-1.9043h2.9492v-3.7012h1.9434zm-2.334 7.1387v4.082h2.7051v-4.082zm-3.6328-6.4356q-0.94726-1.4453-2.6367-2.9688l1.4941-1.377q1.3672 1.0742 2.7246 2.8223zm-0.45898 5.0586q-1.3965-1.8652-2.8223-3.0859l1.582-1.3965q1.5039 1.2695 2.7734 2.9785zm-2.4805 8.1934q1.3184-2.4609 2.5781-7.041l1.7578 1.0254q-0.91797 3.9356-2.4414 7.3828z" dominant-baseline="central"/>
 </g>
</svg>
