<svg version="1.1" xmlns="http://www.w3.org/2000/svg" xmlns:xlink="http://www.w3.org/1999/xlink" width="208" height="32" viewBox="0,0,208,32"><g transform="translate(-240,-164)"><g data-paper-data="{&quot;isPaintingLayer&quot;:true}" fill-rule="nonzero" stroke="none" stroke-linecap="butt" stroke-linejoin="miter" stroke-miterlimit="10" stroke-dasharray="" stroke-dashoffset="0" style="mix-blend-mode: normal"><path d="M240,196v-32h208v32z" fill="none" stroke-width="0"/><path d="M258.63,172.24v16.582h-2.1777v-1.4648h-12.939v1.4648h-2.1387v-16.582zM251.1495,174.1834h-2.5976v1.377c0,2.1354 -0.29622,3.7923 -0.88867,4.9707c-0.48829,0.9896 -1.37045,1.90757 -2.6465,2.7539l-1.4062,-1.543c0.8008,-0.41667 1.40953,-0.9082 1.8262,-1.4746c0.71613,-0.9896 1.0742,-2.52607 1.0742,-4.6094v-1.4746h-2.998v11.211h12.939v-3.4277h-3.4863c-1.21093,0 -1.8164,-0.60873 -1.8164,-1.8262zM253.1905,174.1834v5.4785c0,0.24089 0.12044,0.36133 0.36133,0.36133h2.9004v-5.8398z" fill="#ffffff" stroke-width="1"/><path d="M270.76,176.34v2.3242h4.2383v1.6406h-1.9043c0.59245,0.48177 1.24025,1.16864 1.9434,2.0606l-1.4941,0.99609c-0.47526,-0.71613 -1.14259,-1.46807 -2.002,-2.2558l1.4258,-0.80079h-2.207v3.0957h5v1.7188h-11.543v-1.7188h4.5215v-3.0957h-3.7793v-1.6406h3.7793v-2.3242h-4.3164v-1.6992h11.113v1.6992zM278.758,171.4181v18.086h-2.1582v-1.0254h-13.223v1.0254h-2.1387v-18.086zM263.377,173.215v13.408h13.223v-13.408z" fill="#ffffff" stroke-width="1"/><path d="M291.58,174.14v-3.6426h2.0996v3.6426h5.293v8.8379h-5.293v6.5234h-2.0996v-6.5234h-5.1856v-8.8379zM288.4159,176.0834v4.9707h3.1641v-4.9707zM296.8925,181.0541v-4.9707h-3.2129v4.9707zM284.3925,175.2729c-0.79427,-1.1068 -1.8457,-2.16473 -3.1543,-3.1738l1.4551,-1.4844c1.30207,0.918 2.40233,1.94663 3.3008,3.0859zM283.75774,180.2924c-1.1328,-1.31513 -2.23307,-2.3926 -3.3008,-3.2324l1.5039,-1.5039c1.13933,0.8008 2.26563,1.83597 3.3789,3.1055zM280.72064,187.8608c1.25,-1.77733 2.40233,-3.99087 3.457,-6.6406l1.7383,1.3379c-0.89193,2.4414 -1.97917,4.73957 -3.2617,6.8945z" fill="#ffffff" stroke-width="1"/></g></g></svg>