<svg version="1.1" xmlns="http://www.w3.org/2000/svg" xmlns:xlink="http://www.w3.org/1999/xlink" width="79.36682" height="62.73744" viewBox="0,0,79.36682,62.73744"><g transform="translate(136.6817,-340.45471)"><g data-paper-data="{&quot;isPaintingLayer&quot;:true}" fill="#ff0000" fill-rule="evenodd" stroke="none" stroke-width="0" stroke-linecap="round" stroke-linejoin="round" stroke-miterlimit="10" stroke-dasharray="" stroke-dashoffset="0" style="mix-blend-mode: normal"><path d="M-120.48232,401.48227l-0.97996,-1.64993l0.44998,-1.30995l-2.20992,-1.01996l-2.13991,-2.5299l-1.18995,-0.24l-0.69997,-0.78996l-1.80993,-0.76997l-0.55997,-0.57997l-1.37995,0.16999l-1.52994,-1.11996l-0.46998,-1.56993l0.40998,-0.94997l-0.70997,-1.32994l0.07,-0.89997l1.25995,-0.90996l1.95992,-0.83997l0.04999,-0.85996l-1.28995,-1.41994l1.25995,-0.26999l0.35998,-1.99992l0.42998,-0.53998l0.50998,-2.4599l-1.45994,-1.31995l-0.86997,-1.41994l0.25999,-1.13995l-0.96996,-1.00996l1.38994,-1.01996l0.32999,-0.93996l1.02996,-0.27999l-0.62998,-2.93989v-1.38995l0.64997,-0.98996l-1.70993,-2.4799l-2.4499,-1.50994l0.50998,-3.18987l-0.26999,-2.09992l-0.81997,-1.43994l0.53998,-1.61994l-0.85997,-1.41994l0.1,-0.86996l-0.72997,-1.56994l-2.02992,-1.23995l0.43998,-1.43994l1.45994,-2.23991l1.40995,-1.64994l1.21995,-0.78997l1.21995,-0.15999l0.57998,-0.96996l0.59998,1.43994l1.27994,1.09996l2.20991,1.40994l1.64993,2.4399l2.08992,1.06995l1.57993,1.13995l2.82989,0.63998l3.58986,-0.88996l3.90984,-1.79993l3.40986,0.29998l1.61993,-1.54994l1.04996,0.1l1.05996,1.15995l3.61986,1.88992l0.77997,3.11988l1.79993,1.86992h1.44994l0.08999,2.58989l0.84996,0.92996l0.96997,2.25991l2.16991,1.58994l0.99996,1.17995l1.46994,0.87996l0.76997,0.01l3.30987,3.19987l0.56997,1.88992l1.38995,1.37995l0.51998,2.11991l0.72997,1.12995l0.86997,0.23999l0.46998,1.45994l0.70998,0.90997l2.25991,1.43994l3.60986,1.72993l1.30994,-0.49998l4.47982,1.25995l0.47998,0.51998l2.4299,0.95996l2.70989,2.25991l1.61993,0.73997l-0.66997,0.65998l0.27999,2.08992l2.46991,1.66993l0.68997,-0.14999l0.94996,1.59993l-0.13999,0.86996l-2.14991,1.22995l-0.84996,1.15995l-1.40994,-0.07l-1.51994,-0.51998l-1.86992,0.66998l-1.94992,3.00988l-0.85997,0.56997l-0.50998,1.92993l-2.23991,1.13995l-0.49998,1.24995l-1.13995,-0.34998l-1.36995,1.13995l-0.53998,-0.43998l-1.02996,0.94996l-1.46994,-0.23999l-2.3599,0.94996l-1.74993,-0.71997l-0.1,-0.84996l-0.84996,-1.15995l-1.40994,-1.05996l-4.40983,-1.85992l-1.07995,-0.14999l-1.90993,-0.87996l-1.71993,0.13l-4.59982,-1.90993l-2.6799,-0.07999l-2.5099,0.71997l-1.14995,0.94997l-0.84997,1.35994l0.40999,0.75997l-1.81993,0.74997l-1.04996,-1.87992l-0.08999,-1.40995l1.33995,-1.27995l0.86996,0.98996l0.94997,-0.94996l0.23999,-2.28991l-1.29995,-2.10992l-1.17995,-1.18995l-1.92992,-0.76997l-2.73989,0.01l-1.98992,0.86996l-1.24995,1.26995l-0.46998,1.33994l0.25999,1.02996l-0.70997,1.31994l-0.14999,1.22995l-0.75997,0.78997l-0.25999,2.6599l-2.05992,0.73997l-0.33998,0.77996l-1.57994,0.43998l-0.62998,0.69997"/></g></g></svg>