<svg version="1.1" xmlns="http://www.w3.org/2000/svg" xmlns:xlink="http://www.w3.org/1999/xlink" width="263.44932" height="270.9881" viewBox="0,0,263.44932,270.9881"><g transform="translate(-7.21838,-185.88333)"><g data-paper-data="{&quot;isPaintingLayer&quot;:true}" fill="none" fill-rule="evenodd" stroke="#d645ff" stroke-width="72" stroke-linecap="round" stroke-linejoin="round" stroke-miterlimit="4" stroke-dasharray="" stroke-dashoffset="0" style="mix-blend-mode: normal"><g><path d="M234.46773,221.88333l0.19997,1.18981l-2.93953,5.56911l-3.7794,8.47864l-1.49976,1.8597l-1.2598,3.7294l-0.6299,14.87762l-0.72988,3.37946l0.78987,1.58975l-2.05967,4.3493l0.12998,2.36962l-6.269,10.34834l-6.40897,7.4888l-5.71908,4.61926l-1.8597,0.69989l0.09998,2.96952l-1.36978,-2.20965l-1.45977,1.38978l-7.59878,2.76956l-6.60894,1.73972l-1.58975,1.67973l-8.64862,6.249l-3.53943,1.92969l-5.49912,4.12934l-4.9692,6.219l-2.31963,7.23884l-2.16965,9.65845l-2.21964,5.96904l-1.57975,1.90969l-2.34962,4.46928l-3.25948,2.17965l-2.16965,2.29963l-3.7294,5.95905l-2.96952,6.51896l-4.3893,6.56895l-4.81923,2.15965l-5.86906,3.67941l-8.16869,8.48864l-7.91873,7.07887l-1.11982,0.06999l-2.78955,2.61958l-6.91889,1.8797l-3.60942,-0.27996l-2.98952,-1.2398l-4.17933,3.84938l-1.12982,1.93969l-2.11966,1.40977l-2.23964,0.17997l-9.25852,6.80891l-8.32867,2.65957l-1.46976,1.16981l-4.71924,1.59974l-6.68893,2.88954l-6.53895,1.83971"/><path d="M205.30239,229.80206l-0.17997,3.68941l-3.17949,3.32947l-0.76988,-0.18997l2.86954,-5.73908l1.2598,-1.08983"/></g></g></g></svg>