<svg version="1.1" xmlns="http://www.w3.org/2000/svg" xmlns:xlink="http://www.w3.org/1999/xlink" width="208" height="32" viewBox="0,0,208,32"><g transform="translate(-240,-164)"><g data-paper-data="{&quot;isPaintingLayer&quot;:true}" fill-rule="nonzero" stroke="none" stroke-linecap="butt" stroke-linejoin="miter" stroke-miterlimit="10" stroke-dasharray="" stroke-dashoffset="0" style="mix-blend-mode: normal"><path d="M240,196v-32h208v32z" fill="none" stroke-width="0"/><path d="M245.45,179.12c0.86587,0.59896 1.6764,1.24676 2.4316,1.9434v-0.79101h11.123v9.2285h-1.9629v-0.82031h-7.1777v0.82031h-1.9824v-8.1836l-1.0156,1.6113c-0.48177,-0.57292 -0.95377,-1.08399 -1.416,-1.5332v8.1055h-2.0606v-7.998c-0.77473,0.8724 -1.49087,1.6146 -2.1484,2.2266l-1.0156,-1.8555c2.18747,-1.91407 3.8411,-4.01367 4.9609,-6.2988h-4.5215v-1.9434h2.6367v-3.1348h2.0801v3.1348h1.5039l0.89843,0.9375c-0.61198,1.40627 -1.38998,2.81577 -2.334,4.2285zM249.8641,181.8544v1.8164h2.6465v-1.8164zM249.8641,185.1747v1.8848h2.6465v-1.8848zM257.0418,187.0595v-1.8848h-2.7344v1.8848zM257.0418,183.6708v-1.8164h-2.7344v1.8164zM258.0672,174.1786v4.9609h-9.3262v-4.9609zM250.7039,175.6825v1.9727h5.3418v-1.9727zM247.5887,171.2977h11.699v1.6992h-11.699z" fill="#ffffff" stroke-width="1"/><path d="M267.74,171.98c0.24089,-0.57943 0.4362,-1.13283 0.58594,-1.6602l2.3828,0.32226c-0.22787,0.54037 -0.4362,0.98633 -0.625,1.3379h6.5039v6.3672h-11.797v0.98633h14.697v1.582h-14.697v0.99609h14.014c-0.08463,2.9818 -0.27343,4.99353 -0.5664,6.0352c-0.18881,0.66406 -0.54364,1.10353 -1.0645,1.3184c-0.37109,0.15625 -0.93749,0.23437 -1.6992,0.23437c-0.78127,0 -1.51043,-0.04883 -2.1875,-0.14648l-0.39063,-1.6406h-9.7852v1.084h-2.0996v-4.6973h2.0996v2.0117h3.3594v-2.6367h-3.8379v-11.494zM271.8904,186.111v-2.0117h2.0215v3.3984c0.54036,0.05207 0.98956,0.0781 1.3476,0.0781c0.44271,0 0.7194,-0.12695 0.83008,-0.38085c0.21485,-0.47527 0.38412,-1.7155 0.50781,-3.7207h-8.0273v2.6367zM264.7908,173.484v0.96679h9.6387v-0.96679zM264.7908,175.8473v1.0644h9.6387v-1.0644z" fill="#ffffff" stroke-width="1"/><path d="M296.76,170.98v9.4629h-11.621v-9.4629zM287.2385,172.523v1.2207h7.4023v-1.2207zM287.2385,175.1207v1.2207h7.4023v-1.2207zM287.2385,177.7183v1.2598h7.4023v-1.2598zM283.3029,181.7417h16.191v1.6992h-8.0762v6.0644h-2.2168v-6.0644h-8.0371v-10.957h2.1387zM280.8029,187.6401c1.54947,-0.71613 3.0306,-1.9173 4.4434,-3.6035l1.7969,1.0449c-1.3932,1.76433 -2.93943,3.15107 -4.6387,4.1602zM297.6389,188.8999c-0.99607,-1.22393 -2.49347,-2.50973 -4.4922,-3.8574l1.6797,-1.1816c1.569,0.90493 3.1087,2.09307 4.6191,3.5644z" fill="#ffffff" stroke-width="1"/><path d="M307.78,171.93c0.21485,-0.01953 0.43295,-0.03907 0.6543,-0.0586c3.07293,-0.24089 5.81057,-0.70962 8.2129,-1.4062l1.3965,1.582c-2.08333,0.60547 -4.8047,1.10677 -8.1641,1.5039v2.1582h9.1211v1.8848h-2.5781v4.1602h3.0762v1.9043h-13.896v-1.9043h2.1777zM314.3425,177.5941h-4.4629v4.1602h4.4629zM304.4206,175.2308c-0.77473,-1.1328 -1.76107,-2.18423 -2.959,-3.1543l1.4746,-1.5039c1.13933,0.8008 2.16147,1.80013 3.0664,2.998zM303.3757,180.2503c-0.97653,-1.24347 -1.9889,-2.31443 -3.0371,-3.2129l1.4648,-1.543c1.00913,0.7422 2.06707,1.76107 3.1738,3.0566zM300.739,187.8187c0.86587,-1.54947 1.7578,-3.73697 2.6758,-6.5625l1.8066,1.2402c-0.77473,2.84507 -1.66993,5.17253 -2.6856,6.9824zM317.76,189.4984c-1.28253,-1.54293 -2.66273,-2.92967 -4.1406,-4.1602l1.543,-1.2598c1.54947,1.0742 2.99477,2.34047 4.3359,3.7988zM305.016,187.8968c1.78387,-0.93747 3.2129,-2.19723 4.2871,-3.7793l1.7188,1.1524c-1.28907,1.862 -2.74413,3.30407 -4.3652,4.3262z" fill="#ffffff" stroke-width="1"/><path d="M325.21,184.99c1.263,1.4258 3.31053,2.1387 6.1426,2.1387h8.4766c-0.25391,0.44271 -0.47526,1.07747 -0.66406,1.9043h-7.8906c-2.168,0 -3.84443,-0.32552 -5.0293,-0.97656c-0.55989,-0.3125 -1.17839,-0.82683 -1.8555,-1.543l-0.0391,0.0488c-0.931,1.18487 -1.87827,2.16793 -2.8418,2.9492l-1.123,-2.002c1.02213,-0.6836 1.93683,-1.36067 2.7441,-2.0312v-4.8926h-2.627v-1.9238h4.707zM334.3311,175.1756h3.9746v9.375c0,0.69013 -0.14974,1.15237 -0.44922,1.3867c-0.23437,0.18229 -0.64454,0.27344 -1.2305,0.27344c-0.6836,0 -1.35743,-0.03906 -2.0215,-0.11719l-0.3418,-1.6016c0.59245,0.07812 1.15561,0.11718 1.6895,0.11718c0.20182,0 0.32226,-0.04232 0.36132,-0.12695c0.03253,-0.06507 0.0488,-0.18225 0.0488,-0.35156v-1.6016h-2.9394v3.3398h-1.8555v-3.3398h-2.8418v3.6035h-1.9434v-10.957h4.7852c-0.97007,-0.55989 -1.9564,-1.06769 -2.959,-1.5234l1.1523,-1.0156h-2.959v-1.6016h10.02l1.0254,1.084c-1.32813,1.05467 -2.69207,1.9466 -4.0918,2.6758l0.15625,0.10742l0.15625,0.0977c0.10417,0.07161 0.19206,0.13021 0.26367,0.17578zM333.4229,176.6404v1.5332h2.9394v-1.5332zM328.7256,176.6404v1.5332h2.8418v-1.5332zM332.3877,173.9353c0.7552,-0.38412 1.48763,-0.81705 2.1973,-1.2988h-4.6875c0.6706,0.29297 1.42907,0.6836 2.2754,1.1719zM328.7256,179.5701v1.543h2.8418v-1.543zM336.3623,181.1131v-1.543h-2.9394v1.543zM323.9503,175.9959c-0.8724,-1.4258 -1.88803,-2.73113 -3.0469,-3.916l1.6406,-1.2402c1.0156,0.918 2.06377,2.15823 3.1445,3.7207z" fill="#ffffff" stroke-width="1"/><path d="M348.05,179.45c-0.65104,1.21747 -1.31837,2.1322 -2.002,2.7442c-0.58593,0.52734 -1.12303,0.79101 -1.6113,0.79101c-0.625,0 -1.12957,-0.42317 -1.5137,-1.2695c-0.39713,-0.8854 -0.5957,-2.27213 -0.5957,-4.1602c0,-1.90107 0.22135,-3.9616 0.66406,-6.1816l2.1387,0.32227c-0.42969,2.20053 -0.64453,4.0625 -0.64453,5.5859c0,2.0508 0.14648,3.0762 0.43945,3.0762c0.11068,0 0.29948,-0.15625 0.56641,-0.46875c0.41667,-0.46875 0.85613,-1.15885 1.3184,-2.0703zM346.5656,187.0965c1.99867,-0.55989 3.50583,-1.39649 4.5215,-2.5098c1.24347,-1.36067 1.8652,-3.41797 1.8652,-6.1719c0,-2.08987 -0.20182,-4.43687 -0.60547,-7.041l2.2363,-0.21484c0.42969,2.6302 0.64453,5.08137 0.64453,7.3535c0,3.68493 -0.94727,6.33793 -2.8418,7.959c-1.15233,0.9896 -2.70507,1.8099 -4.6582,2.4609z" fill="#ffffff" stroke-width="1"/></g></g></svg>