<svg version="1.1" xmlns="http://www.w3.org/2000/svg" xmlns:xlink="http://www.w3.org/1999/xlink" width="74.85702" height="55.07777" viewBox="0,0,74.85702,55.07777"><g transform="translate(-287.75133,-144.07863)"><g data-paper-data="{&quot;isPaintingLayer&quot;:true}" fill="#ff0000" fill-rule="evenodd" stroke="none" stroke-width="0" stroke-linecap="round" stroke-linejoin="round" stroke-miterlimit="10" stroke-dasharray="" stroke-dashoffset="0" style="mix-blend-mode: normal"><path d="M344.99904,147.63245l0.32998,1.65593l0.94997,1.41895l-0.17,1.26495l1.93993,3.48986l0.41998,1.60193l0.03,2.00692l0.49998,3.11288l1.02996,3.97984l0.11,2.29091l1.54994,5.0148l1.89993,4.02884l2.59989,3.91684l2.16992,2.3779l3.44986,2.79889l0.79997,1.12395l-1.43995,-1.48694l-2.4699,-1.01996l-1.00996,-1.47994l-1.03996,0.48098l-2.11991,-1.50694l0.05,-1.59393l-2.4699,-1.34695l-3.32987,-0.24999l-0.90996,0.40098l-0.86996,2.97588l1.56993,1.50494l0.57998,0.027l-0.05,0.63098l0.42998,0.96896l0.26999,2.42591l-0.75997,1.23895l-1.17995,0.95796l-1.37995,-0.13399l-0.89996,1.14495l0.23999,1.78193l-0.92996,0.80597l-1.42994,-0.94196l-2.79989,-0.111l-1.06996,0.87597l-0.71997,1.17195l-0.77997,-0.14799l-1.87992,1.48494l-0.99996,-0.39799l-3.88984,-0.42899l-0.81997,-0.37198l-2.21991,1.42095l-0.86996,1.66294l-1.13996,0.69697l-1.08995,-0.12899l-1.67994,-1.17795l-1.09996,-1.27794l-2.26991,-0.64498l-1.53994,-1.36395l-0.97996,-0.11399l-2.01992,0.67997l-0.60998,-1.75593l-1.53994,-1.15095l-2.37991,-2.24591l-0.93996,0.66097l-1.53994,-0.79397l-0.60998,-1.28595l-1.79993,-0.84597l-3.45986,-0.36798l-2.00992,-0.47998l-3.01988,-1.78993l-1.16995,0.017l-0.38998,-1.11396l-2.6199,-2.6309l-0.77996,0.65697l-1.02996,-1.33894l-0.81997,-0.30499l-0.12,-1.59394l-0.63998,-1.55394l0.16999,-0.85696l-0.75997,-1.98892l-1.18995,-1.64794l-0.57997,-1.55994l0.30998,-2.4379l1.06995,-1.40794l2.6599,0.64397l6.61973,-6.05576l1.04996,-0.89796l1.87992,1.61593l0.90996,-0.33499l2.07992,0.61998l3.73985,-0.25499l0.39999,-0.34499l1.80993,0.48898l2.4399,-0.25399l1.22995,-0.91096l3.33987,3.61786l0.97996,-0.166l0.93997,-0.90497l2.24991,0.10499l5.32979,-4.8928l0.62998,-1.36195l-2.5699,-2.84188l1.36995,-0.29798l1.39995,-1.18096l2.68989,-0.049l0.36999,-0.48998l2.3899,-0.57797l2.67989,-1.70193l1.56994,0.26099l2.34991,-2.39591l1.16995,-0.45998l0.63998,-1.24195l-0.02,-1.35694l1.83993,-1.33594l0.48998,0.72897l-0.36999,0.96496l1.57994,1.58494"/><path d="M354.09867,145.59253l2.5499,1.14096l0.99996,0.88196l0.78996,1.31195l0.41998,1.85392l-0.49998,1.18496l-2.17992,1.08396l-2.02991,-0.20299l0.26999,-1.87092l2.71989,0.30399l0.81997,-1.18495l0.01,-1.07495l-0.58997,-1.45894l-2.77989,-1.48194l-2.4499,1.17996l-1.04996,-0.97496l-0.52998,-1.55694l-2.12991,-0.46498v-0.18399l5.65977,1.51394"/></g></g></svg>