<?xml version="1.0" encoding="UTF-8"?>
<svg width="208" height="80" version="1.1" viewBox="0 0 208 80" xmlns="http://www.w3.org/2000/svg">
 <rect width="208" height="80" fill-opacity="0" stop-color="#000000"/>
 <g fill="#1c1c1c" aria-label="最大震度">
  <path d="m43.789 30.984v7.3477h-17.543v-7.3477zm-14.93 1.6758v1.207h12.316v-1.207zm0 2.7422v1.3711h12.316v-1.3711zm5.8594 6.1641v9.7734q2.2852-0.62109 4.1836-2.1328-1.7812-2.0742-2.6953-4.4648h-1.0078v-1.875h9.0469l1.1484 1.0078q-1.2773 3.0938-3.1992 5.3086 1.7227 1.125 4.3125 1.9102l-1.4414 2.1445q-2.6719-1.0078-4.5-2.4609-2.0039 1.6523-4.6992 2.625l-1.1484-1.7227v1.6055h-2.4258v-2.6133q-3.3281 0.66797-8.2383 1.1953l-0.64453-2.1562q1.5469-0.08203 2.6367-0.16406v-7.9805h-2.4492v-1.9453h22.805v1.9453zm-2.4258 0h-3.8438v1.418h3.8438zm0 2.9766h-3.8438v1.4414h3.8438zm0 2.9766h-3.8438v1.793q0.99609-0.10547 1.5-0.16406 1.3477-0.14062 2.3438-0.26953zm8.1328 0.19922q1.0664-1.2305 1.9219-2.9766h-3.9727q0.72656 1.582 2.0508 2.9766z"/>
  <path d="m60.629 38.906q0.80859 2.7422 3.0703 5.8359 2.7539 3.7734 6.7734 5.9766l-1.6758 2.4141q-4.2539-2.5078-7.1016-6.6445-1.5352-2.25-2.4609-4.582-0.92578 3.1406-2.8711 5.707-2.8594 3.7969-7.0664 5.6016l-1.6523-2.1445q4.4062-1.8398 7.1133-5.6719 2.2734-3.2344 2.6953-6.4922h-9.3516v-2.543h9.457v-5.6484h2.707v5.6484h9.6562v2.543z"/>
  <path d="m81.676 33.645v-1.0078h-7.3242v-1.6758h17.297v1.6758h-7.4766v1.0078h9.7031v4.207h-2.543v-2.6953h-7.1602v4.5586h-2.4961v-4.5586h-7.0312v2.6953h-2.5195v-4.207zm8.2969 16.629q1.793 0.67969 4.4766 1.0781l-1.3711 1.9922q-3.7617-0.64453-6.1758-2.2148-2.4023-1.5703-3.7383-3.9023h-2.5898v3.6094q2.5898-0.36328 4.8047-0.77344l0.16406 1.7461q-4.125 0.98438-9.4336 1.7109l-0.69141-2.0625q1.8398-0.19922 2.5195-0.28125l0.14062-0.02344v-3.9258h-2.5664q-0.16406 2.0625-0.53906 3.293-0.44531 1.4766-1.4297 2.7539l-2.0859-1.7227q1.1484-1.4883 1.4297-3.4805 0.15234-1.0781 0.15234-2.6836v-4.9688h20.227v1.5586h-17.707v3.5977h18.715v1.6523h-2.6602l1.4883 0.98438q-1.3242 1.1016-3.1289 2.0625zm-1.8281-0.90234q1.6875-1.1484 2.6836-2.1445h-5.1211q1.0078 1.2891 2.4375 2.1445zm-12.469-13.348h4.9922v1.3242h-4.9922zm0 2.1562h4.9922v1.3477h-4.9922zm9.5039-2.1562h5.1445v1.3242h-5.1445zm0 2.1562h5.1445v1.3477h-5.1445zm-8.2266 4.7812h14.59v1.5352h-14.59z"/>
  <path d="m108.83 32.59h9.1875v1.9688h-5.2031v1.9453h4.875v1.8984h-4.875v3.4922h-9.4336v-3.4922h-3.8438v2.1797q0 5.3086-0.5625 8.3906-0.43359 2.3438-1.4062 4.2773l-2.1328-1.6875q0.89062-1.9336 1.2188-4.7227 0.29297-2.4492 0.29297-6.2578v-7.9922h9.2695v-2.1094h2.6133zm-9.293 1.9688v1.9453h3.8438v-1.9453zm6.3398 0v1.9453h4.4414v-1.9453zm0 3.8438v1.8164h4.4414v-1.8164zm2.7188 12.305q-3.3867 1.7578-8.6016 2.6719l-1.2188-2.1562q4.8984-0.58594 7.6758-1.793-2.3789-1.7227-4.0664-4.0898h-1.6172v-2.0391h13.723l1.2305 1.0312q-1.7461 2.6836-4.9805 5.0508 2.7774 1.1133 7.5703 1.6406l-1.3711 2.2148q-4.5938-0.62109-8.3438-2.5312zm-3.4805-5.3672q1.418 1.6641 3.4453 2.9297 2.2852-1.4766 3.5274-2.9297z"/>
 </g>
</svg>
