<svg version="1.1" xmlns="http://www.w3.org/2000/svg" xmlns:xlink="http://www.w3.org/1999/xlink" width="64" height="64" viewBox="0,0,64,64"><g transform="translate(-208,-148)"><g data-paper-data="{&quot;isPaintingLayer&quot;:true}" fill-rule="nonzero" stroke="none" stroke-width="1" stroke-linecap="butt" stroke-linejoin="miter" stroke-miterlimit="10" stroke-dasharray="" stroke-dashoffset="0" style="mix-blend-mode: normal"><path d="M208,212v-64h64v64z" fill="none" opacity="0.988"/><path d="M230.61123,165.928v0.0059c1.3797,0.0132 2.6095,0.35334 3.6816,1.0332c1.12,0.6667 1.9987,1.5865 2.6387,2.7598c0.66667,1.1467 1,2.48 1,4v13.801c0,1.4933 -0.33333,2.8267 -1,4c-0.64,1.1733 -1.5187,2.10547 -2.6387,2.7988c-1.0721,0.65373 -2.3018,0.98341 -3.6816,0.99609v0.0039h-0.24023v-0.0039c-1.3804,-0.01268 -2.6205,-0.34236 -3.7188,-0.99609c-1.0933,-0.6933 -1.97393,-1.6255 -2.6406,-2.7988c-0.64,-1.1733 -0.95898,-2.5067 -0.95898,-4v-13.801c0,-1.52 0.31898,-2.8533 0.95898,-4c0.6666,-1.1734 1.5473,-2.09313 2.6406,-2.7598c1.0983,-0.67986 2.3385,-1.01999 3.7188,-1.0332v-0.0059zM227.69128,170.2873c-0.66667,0.8 -1,1.9462 -1,3.4395v13.801c0,1.4667 0.33333,2.61283 1,3.4395c0.6667,0.80003 1.5865,1.2012 2.7598,1.2012h0.08008c1.2,0 2.1217,-0.4012 2.7617,-1.2012c0.66667,-0.8267 1,-1.9728 1,-3.4395v-13.801c0,-1.4934 -0.33333,-2.6395 -1,-3.4395c-0.64,-0.82663 -1.5617,-1.2402 -2.7617,-1.2402h-0.08008c-1.1734,0 -2.09313,0.41353 -2.7598,1.2402z" fill="#ff0000"/><path d="M250.20696,165.80695l2.7207,1.9609c-0.88,0.96 -1.73383,1.96 -2.5605,3c-0.8266,1.0134 -1.5592,2.1595 -2.1992,3.4395c-0.50693,0.9927 -0.93666,2.1245 -1.293,3.3848c0.8832,-0.38484 1.8488,-0.57693 2.8926,-0.58203v-0.002c0.00671,0 0.01283,0.00198 0.01953,0.002c0.00736,-0.0001 0.01409,-0.002 0.02149,-0.002v0.002c1.3962,0.0068 2.6363,0.35065 3.7188,1.0371c1.12,0.6667 2.0006,1.5865 2.6406,2.7598c0.66667,1.1733 1,2.5067 1,4v2.7207c0,1.4933 -0.33333,2.8267 -1,4c-0.64,1.1733 -1.5206,2.10547 -2.6406,2.7988c-1.0825,0.66005 -2.3227,0.99145 -3.7188,0.99805v0.002c-0.00737,0 -0.01409,-0.00198 -0.02149,-0.002c-0.0067,0.0001 -0.01283,0.002 -0.01953,0.002v-0.002c-1.3965,-0.00655 -2.6509,-0.33799 -3.7598,-0.99805c-1.0933,-0.6933 -1.97393,-1.6255 -2.6406,-2.7988c-0.64,-1.1733 -0.95898,-2.5067 -0.95898,-4v-2.7207c0,-0.06826 0.01042,-0.13163 0.01172,-0.19922h-0.01172c0,-2.1333 0.21395,-4.1333 0.64062,-6c0.4533,-1.8667 1.05213,-3.5869 1.7988,-5.1602c0.7467,-1.6 1.57383,-3.026 2.4805,-4.2793c0.9333,-1.28 1.89223,-2.4013 2.8789,-3.3613zM247.04883,181.3673c-0.66667,0.8 -1,1.9462 -1,3.4395v2.7207c0,1.4667 0.33333,2.61283 1,3.4395c0.6627,0.79529 1.5767,1.1945 2.7402,1.1992c1.1889,-0.005 2.10236,-0.40427 2.7383,-1.1992c0.66667,-0.8267 1,-1.9728 1,-3.4395v-2.7207c0,-1.4934 -0.33333,-2.6395 -1,-3.4395c-0.636,-0.79496 -1.5494,-1.1923 -2.7383,-1.1973c-1.1635,0.0047 -2.07744,0.40199 -2.7402,1.1973z" fill="#ff0000"/></g></g></svg>