<svg xmlns="http://www.w3.org/2000/svg" viewBox="0 0 400 400" version="1.1" height="400" width="400"><defs><radialGradient gradientUnits="userSpaceOnUse" gradientTransform="translate(-40,20)" r="200" cy="180" cx="240" id="a"><stop offset="0" stop-color="#54068e"></stop><stop offset=".4" stop-color="#54068e"></stop><stop offset=".55" stop-opacity=".5607843" stop-color="#54068e"></stop><stop offset=".7" stop-opacity=".2509804" stop-color="#54068e"></stop><stop offset=".85" stop-opacity=".05882353" stop-color="#54068e"></stop><stop offset="1" stop-opacity="0" stop-color="#54068e"></stop></radialGradient></defs><g stroke-miterlimit="10"><path style="mix-blend-mode:normal" stroke-width="0" fill="none" d="m0 400v-400h400v400z"></path><path style="mix-blend-mode:normal" opacity=".06" fill-rule="evenodd" fill="url(#a)" d="m0 200c0-110.46 89.543-200 200-200s200 89.543 200 200-89.543 200-200 200-200-89.543-200-200z"></path><path stroke-width="16" stroke-linejoin="round" stroke-linecap="round" stroke="#cd3beb" stop-color="#000000" fill-rule="evenodd" fill="#54068e" d="m284.5 200c0 58.335-26.165 84.5-84.5 84.5s-84.5-26.165-84.5-84.5 26.165-84.5 84.5-84.5 84.5 26.165 84.5 84.5z"></path></g><path style="font-feature-settings:normal;font-variant-alternates:normal;font-variant-caps:normal;font-variant-east-asian:normal;font-variant-ligatures:normal;font-variant-numeric:normal;font-variant-position:normal;font-variation-settings:normal;inline-size:0;isolation:auto;mix-blend-mode:normal;shape-margin:0;shape-padding:0;text-decoration-color:#000000;text-decoration-line:none;text-decoration-style:solid;text-indent:0;text-orientation:mixed;text-transform:none;white-space:normal" stop-color="#000000" shape-rendering="auto" image-rendering="auto" fill="#fff" color-rendering="auto" color="#000000" d="m160.61 149.93v37.951h17.445v-21.257h43.246c-3.6504 6.0608-9.0808 17.292-16.721 34.778v2e-3c-8.356 19.177-14.296 36.842-17.814 53.009l-0.25576 1.1765h19.423l0.16862-0.75781c2.8629-12.779 7.4361-27.621 13.718-44.512v-2e-3c7.0281-18.881 14.157-34.125 21.359-45.715l0.14588-0.23493v-14.438z"></path></svg>
