<?xml version="1.0" encoding="UTF-8"?>
<svg width="480" height="360" version="1.1" viewBox="0 0 480 360" xmlns="http://www.w3.org/2000/svg">
 <g fill="#fff" aria-label="種子島・屋久島地方">
  <path d="m243.36 181.58q-0.84961 2.5195-2.0996 4.4141l-1.1816-2.0996q2.0215-2.4121 3.0566-5.9375l0.0586-0.20507h-2.7148v-1.8359h2.8809v-2.627q-1.1328 0.2246-2.1777 0.37109l-0.70312-1.582q3.5156-0.49805 5.918-1.5234l1.0449 1.582q-0.9375 0.36133-2.1387 0.69336v3.0859h2.0215v1.8359h-2.0215v1.4355q1.1328 0.83008 2.4609 2.207l-1.1035 1.8848q-0.625-0.97656-1.2207-1.7383l-0.13671-0.17578v8.1348h-1.9434zm8.8965-5.0488v-1.0742h-4.873v-1.6016h4.873v-1.0059l-0.18555 0.01q-1.582 0.14648-3.6719 0.2539l-0.625-1.5137q5.127-0.2539 9.502-1.084l1.1328 1.5039q-2.0215 0.41993-4.2578 0.64454v1.1914h5.2832v1.6016h-5.2832v1.0742h4.4629v6.9238h-4.4629v1.0742h4.6582v1.5625h-4.6582v1.1426h5.4395v1.6602h-12.871v-1.6602h5.5371v-1.1426h-4.541v-1.5625h4.541v-1.0742h-4.3164v-6.9238zm0.0391 1.377h-2.5195v1.3867h2.5195zm1.8164 0v1.3867h2.6856v-1.3867zm-1.8164 2.7051h-2.5195v1.4453h2.5195zm1.8164 0v1.4453h2.6856v-1.4453z"/>
  <path d="m271.32 177.19v2.1289h7.9883v1.9629h-7.9883v6.123q0 0.94727-0.45898 1.4062-0.52735 0.52735-1.9922 0.52735-1.6699 0-3.1641-0.13672l-0.51758-2.1387q1.9726 0.21484 3.3106 0.21484 0.41992 0 0.51757-0.14648 0.0879-0.12696 0.0879-0.48829v-5.3613h-8.3984v-1.9629h8.3984v-3.0371l0.14649-0.0781q1.543-0.80078 4.0918-2.7246h-10.537v-1.9434h13.477l1.1035 1.1621q-1.3281 1.1426-3.1152 2.4512-1.8164 1.3281-2.9492 2.041z"/>
  <path d="m287.74 171.98q0.36133-0.86914 0.58594-1.6602l2.3828 0.32226q-0.34179 0.81055-0.625 1.3379h6.5039v6.3672h-11.797v0.98633h14.697v1.582h-14.697v0.99609h14.014q-0.12696 4.4727-0.56641 6.0352-0.2832 0.99609-1.0644 1.3184-0.55664 0.23437-1.6992 0.23437-1.1719 0-2.1875-0.14648l-0.39063-1.6406h-9.7852v1.084h-2.0996v-4.6973h2.0996v2.0117h3.3594v-2.6367h-3.8379v-11.494zm4.1504 14.131v-2.0117h2.0215v3.3984q0.81054 0.0781 1.3476 0.0781 0.66407 0 0.83008-0.38085 0.32227-0.7129 0.50781-3.7207h-8.0273v2.6367zm-7.0996-12.627v0.96679h9.6387v-0.96679zm0 2.3633v1.0644h9.6387v-1.0644z"/>
  <path d="m305.02 177.79q0.76172 0 1.377 0.50781 0.81054 0.66406 0.81054 1.6992 0 0.63477-0.36133 1.1816-0.65429 1.0156-1.8555 1.0156-0.52735 0-1.0059-0.25391-0.38086-0.19531-0.64453-0.51758-0.53711-0.63476-0.53711-1.4453 0-1.1328 0.94726-1.7969 0.56641-0.39062 1.2695-0.39062z"/>
  <path d="m322.36 182.21v1.8066h5.8301v1.543h-5.8301v1.9043h7.1289v1.6797h-15.869v-1.6797h6.6211v-1.9043h-5.5078v-1.543h5.5078v-1.6992l-1.9629 0.0879q-1.416 0.0684-3.2031 0.11719l-0.53711-1.748h0.96679q0.36133 0 0.79102-0.01 0.74219-0.92774 1.416-1.9629h-3.6328q0 0.23437-0.01 0.5957-0.0391 3.9844-0.32227 5.7617-0.36133 2.2461-1.5918 4.4238l-1.7773-1.6211q0.83984-1.4648 1.1621-3.1152 0.40039-2.041 0.40039-6.6504v-7.1582h16.396v4.7266h-14.258v1.5137h14.775v1.5234h-3.0664q1.6992 1.3184 3.2226 3.0957l-1.8945 1.1426q-0.51758-0.70313-0.88867-1.1523-0.11719 0.01-0.29297 0.0293-1.1133 0.12696-2.8906 0.24414zm3.8379-9.6289h-12.119v1.6992h12.119zm-1.25 6.2207h-4.9414q-0.66407 0.99609-1.4648 1.9434h0.21489q2.8906 0 6.2793-0.20508-0.55664-0.57617-1.2207-1.1621z"/>
  <path d="m338.75 172.28h5.791l1.0059 0.89844q-1.2109 3.8086-3.3301 7.334 3.0469 4.4629 7.2852 6.6699l-1.4355 1.9824q-3.9551-2.4024-6.9336-6.7188l-0.0977-0.13672q-1.3672 1.9336-3.2422 3.5644-2.6074 2.2656-5.6055 3.5449l-1.4648-1.8164q3.0078-1.0352 5.6445-3.3887 1.8555-1.6504 3.1348-3.4766 1.6602-2.3438 2.7539-4.8633 0.3418-0.78125 0.58594-1.5918h-4.9805q-1.9434 3.75-4.8828 6.1426l-1.5527-1.543q3.916-2.998 5.6738-8.3789l2.1387 0.38086q-0.27343 0.82031-0.48828 1.3965z"/>
  <path d="m357.74 171.98q0.36133-0.86914 0.58594-1.6602l2.3828 0.32226q-0.34179 0.81055-0.625 1.3379h6.5039v6.3672h-11.797v0.98633h14.697v1.582h-14.697v0.99609h14.014q-0.12696 4.4727-0.56641 6.0352-0.2832 0.99609-1.0644 1.3184-0.55664 0.23437-1.6992 0.23437-1.1719 0-2.1875-0.14648l-0.39063-1.6406h-9.7852v1.084h-2.0996v-4.6973h2.0996v2.0117h3.3594v-2.6367h-3.8379v-11.494zm4.1504 14.131v-2.0117h2.0215v3.3984q0.81054 0.0781 1.3476 0.0781 0.66407 0 0.83008-0.38085 0.32227-0.7129 0.50781-3.7207h-8.0273v2.6367zm-7.0996-12.627v0.96679h9.6387v-0.96679zm0 2.3633v1.0644h9.6387v-1.0644z"/>
  <path d="m380.23 178.41v7.7344q0 0.75195 0.64453 0.9082 0.66406 0.16602 3.0371 0.16602 2.3144 0 3.0566-0.23438 0.41992-0.13672 0.54687-0.76172 0.16602-0.8789 0.17578-2.0801l2.041 0.57618q-0.15625 2.8809-0.79102 3.6816-0.41992 0.52734-1.2695 0.625-1.3379 0.14648-4.541 0.14648-2.4805 0-3.252-0.13672-1.1621-0.19531-1.4746-1.0254-0.15625-0.43945-0.15625-1.1719v-7.7441l-1.8652 0.64453-0.45898-1.8945 2.3242-0.80078v-5.2637h1.9824v4.5801l2.0996-0.71289v-5.1465h1.9629v4.4629l3.2715-1.123 1.0254 0.625v7.3144q0 0.76172-0.36133 1.1328-0.41015 0.41015-1.377 0.41015-0.79102 0-1.6797-0.13672l-0.32226-1.8652q0.57617 0.14648 1.1719 0.14648 0.42969 0 0.52735-0.17578 0.0976-0.14648 0.0976-0.48828v-4.6191l-2.3535 0.82031v7.9004h-1.9629v-7.2266zm-7.1777-3.1934v-4.7168h2.0996v4.7168h1.8945v1.9824h-1.8945v6.2109q1.0254-0.35156 2.0312-0.73242l0.18555 1.8848q-3.1641 1.4453-6.4941 2.4219l-0.6836-2.0801q1.5039-0.39062 2.6367-0.74218 0.13672-0.0488 0.22461-0.0684v-6.8945h-2.4805v-1.9824z"/>
  <path d="m399.48 175.76q-0.0684 1.6309-0.19531 2.8711h7.8711q-0.14648 6.7774-0.76171 8.7988-0.3125 1.0156-1.1621 1.4062-0.66407 0.30273-1.9434 0.30273-1.3477 0-3.0566-0.20507l-0.38086-2.1973q2.2949 0.32227 3.2324 0.32227 0.79101 0 1.0059-0.44922 0.51758-1.0938 0.72265-6.0352h-5.8105q-0.32227 1.7578-0.90821 3.0469-1.6308 3.5644-5.4492 5.6543l-1.543-1.7188q3.8281-1.9922 5.0586-5.2246 0.82031-2.1582 1.0644-6.5723h-6.4648v-2.002h7.9785v-3.2617h2.2559v3.2617h8.2422v2.002z"/>
 </g>
</svg>
