<?xml version="1.0" encoding="UTF-8"?>
<svg width="480" height="360" version="1.1" viewBox="0 0 480 360" xmlns="http://www.w3.org/2000/svg">
 <g fill="#fff" aria-label="兵庫県瀬戸内海沿岸">
  <path d="m255.03 170.44 1.8457 1.6602q-4.9805 1.0449-10.381 1.4844v2.1777h11.943v1.8848h-3.6035v3.9648h4.6289v1.8848h-18.965v-1.8848h3.7988v-9.7852l0.64453-0.0391q4.9219-0.25391 10.088-1.3477zm-2.373 7.207h-6.1621v3.9648h6.1621zm-11.934 10.088q3.3594-1.2891 5.8984-3.8965l1.8164 1.2793q-2.9688 2.9688-6.123 4.4238zm16.914 1.6016q-2.7344-2.168-6.0742-4.0625l1.5137-1.3574q3.4277 1.5039 6.1816 3.6816z"/>
  <path d="m272.5 173.8v1.1035h6.377v1.582h-6.377v1.0547h5.4394v6.6797h-5.4394v1.1426h7.0801v1.7188h-7.0801v2.4219h-2.0606v-2.4219h-6.7383v-1.7188h6.7383v-1.1426h-5.3613v-6.6797h5.3613v-1.0547h-6.1035v-1.582h6.1035v-1.1035h-6.5625v4.9609q0 6.7676-1.6992 10.684l-1.8359-1.3672q0.91797-2.5 1.2207-5.3223 0.21485-2.0312 0.21485-4.6387v-5.9766h7.4805v-1.6406h2.1973v1.6406h7.8418v1.6602zm-2.0606 5.1172h-3.3203v1.2402h3.3203zm2.0606 0v1.2402h3.3789v-1.2402zm-2.0606 2.5976h-3.3203v1.3281h3.3203zm2.0606 0v1.3281h3.3789v-1.3281z"/>
  <path d="m296.76 170.98v9.4629h-11.621v-9.4629zm-9.5215 1.543v1.2207h7.4023v-1.2207zm0 2.5977v1.2207h7.4023v-1.2207zm0 2.5976v1.2598h7.4023v-1.2598zm-3.9356 4.0234h16.191v1.6992h-8.0762v6.0644h-2.2168v-6.0644h-8.0371v-10.957h2.1387zm-2.5 5.8984q2.3242-1.0742 4.4434-3.6035l1.7969 1.0449q-2.0898 2.6465-4.6387 4.1602zm16.836 1.2598q-1.4941-1.8359-4.4922-3.8574l1.6797-1.1816q2.3535 1.3574 4.6191 3.5644z"/>
  <path d="m316.04 174.76h2.8516v10.645h-6.2988v-10.645h1.7578q0.13672-0.61524 0.3125-1.6602h-2.5781v1.2598h-2.7539v1.8262h2.6172v5.4004h-2.6172v0.76172q1.3574 1.1426 2.7832 2.7734l-1.0644 1.543q-0.91797-1.377-1.7188-2.3242v5.166h-1.7578v-5.8984q-1.0449 2.4512-2.793 4.6387l-1.084-1.7774q2.168-2.0996 3.4082-4.8828h-2.1484v-5.4004h2.6172v-1.8262h-2.9199v-0.87891l-1.3965 1.416q-1.3477-1.8066-2.6562-2.9395l1.4551-1.3965q1.5918 1.3867 2.5976 2.6856v-0.625h2.9199v-2.1191h1.7578v2.1191h2.5391v-1.2793h7.5781v1.7578h-2.9688q-0.15625 0.71289-0.43946 1.6602zm-1.748 1.5625v1.5234h2.9199v-1.5234zm-7.793 1.4258v2.2754h1.1719v-2.2754zm3.9453 2.2754v-2.2754h-1.1914v2.2754zm3.8477-0.74219v1.5039h2.9199v-1.5039zm0 2.9395v1.6016h2.9199v-1.6016zm-11.504-2.4414q-1.2598-1.6992-2.6367-3.0371l1.4844-1.3184q1.3086 1.0742 2.6758 2.9004zm-2.4121 8.3594q1.4746-3.0371 2.5195-7.041l1.7188 1.0254q-0.88867 3.8281-2.4414 7.4219zm10.391 0.20507q1.6797-1.0449 2.8809-2.8027l1.543 0.95703q-1.3672 2.0312-2.9785 3.2031zm7.6074 1.2598q-1.0742-1.875-2.3242-3.2031l1.4844-0.91796q1.2891 1.2305 2.334 2.8418z"/>
  <path d="m337.82 175.78v8.2129h-2.2363v-1.2109h-10.723q-0.11718 2.0703-0.48828 3.3984-0.47851 1.7383-1.7969 3.4082l-1.6602-1.5723q1.123-1.4356 1.4746-3.4668 0.26367-1.4746 0.26367-3.7305v-5.0391zm-2.2363 1.8848h-10.674v3.2324h10.674zm-14.473-6.2305h17.969v1.9434h-17.969z"/>
  <path d="m348.85 173.76v-3.2617h2.1777v3.2617h7.5v13.594q0 1.1523-0.625 1.6113-0.50781 0.38086-1.7676 0.38086-2.1582 0-3.5644-0.10742l-0.40039-2.0801q2.1875 0.13672 3.6523 0.13672 0.39063 0 0.45899-0.18555 0.0488-0.11718 0.0488-0.37109v-10.977h-5.3125l-0.01 0.14648q-0.0488 0.79102-0.19531 1.6211 2.9004 2.373 5.1758 5.3516l-1.6602 1.543q-1.6211-2.3535-4.0723-4.8926-1.2598 3.3106-5.0684 5.5273l-1.2891-1.7188q2.2754-1.3086 3.3594-2.793 1.4258-1.9531 1.5723-4.7852h-5.127v13.74h-2.1973v-15.742z"/>
  <path d="m377.76 175.8q0 0.45899-0.0879 4.3555h1.8652v1.7578h-1.9043q-0.0293 1.2793-0.12695 2.9004h1.6504v1.7188h-1.7774q-0.11718 1.416-0.32226 1.875-0.45899 1.0938-2.2266 1.0938-1.1328 0-2.0898-0.16601l-0.36133-1.7383q1.377 0.19531 2.1094 0.19531 0.5957 0 0.71289-0.41992 0.0586-0.20508 0.10742-0.83985h-6.9531q-0.01 0.0781-0.0293 0.16602-0.0879 0.51758-0.16602 0.97656l-2.0215-0.19531q0.5957-3.5254 0.80078-5.332l0.0293-0.23438h-1.9531v-1.7578h2.1582q0.27343-2.3633 0.46875-4.3555zm-6.1719 1.6992h-2.1387q-0.0293 0.49805-0.17578 2.0996l-0.0586 0.55664h2.168l0.0293-0.27344q0.0195-0.2832 0.0586-0.79101 0.0977-1.3672 0.11719-1.5918zm1.9238 0q-0.0488 1.1621-0.14649 2.5684v0.0879h2.2949q0.0391-1.3379 0.0684-2.6562zm-2.2852 4.4141h-2.1973q-0.14648 1.1914-0.3125 2.3535l-0.0781 0.54687h2.2852q0.23437-2.1191 0.30273-2.9004zm2.002 0q-0.0293 0.39063-0.11718 1.2891l-0.15625 1.6113h2.4902q0.0488-0.94726 0.0781-1.4258 0.0586-1.0449 0.0781-1.4746zm-3.8281-9.6387h9.4336v1.8164h-10.244q-0.79101 1.6113-2.0117 3.0664l-1.3965-1.5234q1.9238-2.2559 2.7344-5.1953l2.0801 0.21485q-0.35156 1.0156-0.5957 1.6211zm-5.3809 2.8418q-1.2012-1.6504-2.9199-3.0957l1.4746-1.4258q1.5918 1.1719 3.0273 2.959zm-0.70313 5.1562q-1.4844-1.9043-2.998-3.1934l1.5234-1.4648q1.6992 1.3379 3.0566 3.0469zm-2.6562 7.666q1.6992-2.3535 3.2227-6.2012l1.7383 1.2402q-1.2695 3.5547-3.2617 6.5234z"/>
  <path d="m397.86 180.14v9.3652h-2.1973v-1.123h-6.2012v1.123h-2.1777v-9.3652zm-8.3984 1.8848v4.4531h6.2012v-4.4531zm-4.6777-6.8457q-1.5039-1.6894-3.2617-2.959l1.3965-1.5625q1.9727 1.2402 3.3203 2.8223zm-1.1035 5.2637q-1.6504-1.8164-3.3398-2.9785l1.4356-1.6211q1.9824 1.2891 3.4473 2.9199zm-3.2226 7.2559q1.9531-2.4121 3.7207-6.2402l1.6602 1.4844q-1.5039 3.7012-3.4961 6.4746zm17.402-8.0371q-3.4082-3.623-5.0195-8.3594l2.0215-0.80078q1.4844 4.1016 4.6191 7.4023zm-12.197-1.5234q2.7344-2.7539 3.916-7.4219l2.0606 0.625q-1.1035 5.0586-4.3945 8.4766z"/>
  <path d="m411.18 173.6h4.4238v-2.3535h2.0801v4.0332h-14.961v-4.0332h2.0801v2.3535h4.2969v-3.0957h2.0801zm-7.002 4.707v2.041q0 3.3789-0.42969 5.2637-0.45898 1.9824-1.7676 3.7305l-1.7188-1.416q0.89844-1.25 1.2598-2.4707 0.49805-1.6797 0.49805-5.2246v-3.6621h17.002v1.7383zm8.3008 3.0566v1.8066h6.6992v1.7383h-6.6992v4.5996h-2.1973v-4.5996h-5.8789v-1.7383h5.8789v-1.8066h-4.8828v-1.6406h12.344v1.6406z"/>
 </g>
</svg>
