<svg version="1.1" xmlns="http://www.w3.org/2000/svg" xmlns:xlink="http://www.w3.org/1999/xlink" width="168.1" height="32.73" viewBox="0,0,168.1,32.73"><g transform="translate(-240,-180)"><g data-paper-data="{&quot;isPaintingLayer&quot;:true}" stroke="none" stroke-linecap="butt" stroke-linejoin="miter" stroke-miterlimit="10" stroke-dasharray="" stroke-dashoffset="0" style="mix-blend-mode: normal"><path d="M248,180h152.1c4.432,0 8,3.568 8,8v16.73c0,4.432 -3.568,8 -8,8h-152.1c-4.432,0 -8,-3.568 -8,-8v-16.73c0,-4.432 3.568,-8 8,-8z" fill-opacity="0.7" fill="#000000" fill-rule="evenodd" stroke-width="0"/><g fill="#ffffff" fill-rule="nonzero" stroke-width="1"><path d="M252.2,190.99v0.55859h2.1289v0.64063h-2.1289v0.57421h2.4492v0.6875h-2.4492v1.3477h-0.83985v-1.3477h-2.2461v-0.6875h2.2461v-0.57421h-1.9102v-0.64063h1.9102v-0.55859h-1.6875v-0.59375h1.6875v-0.61328h-2.3438v-0.63282h2.3438v-0.60156h-1.6484v-0.61719h1.6484v-0.73437h0.83985v0.73437h1.9531v1.2188h0.67969v0.63282h-0.67969v1.207zM252.2,190.39625h1.1367v-0.61328h-1.1367zM252.2,189.15015h1.1367v-0.60156h-1.1367zM248.6023,189.05245c-0.32552,-0.44792 -0.71485,-0.86069 -1.168,-1.2383l0.60547,-0.57032c0.48959,0.375 0.88802,0.76953 1.1953,1.1836zM248.32886,191.08365c-0.3776,-0.4974 -0.77213,-0.92057 -1.1836,-1.2695l0.60156,-0.58594c0.41927,0.31771 0.82944,0.72264 1.2305,1.2148zM247.28196,194.19695c0.5,-0.81773 0.92577,-1.7383 1.2773,-2.7617l0.6836,0.48047c-0.32552,1.03647 -0.73439,1.9909 -1.2266,2.8633z"/><path d="M260.96,193.1c0.50261,0.35677 1.14324,0.66146 1.9219,0.91406l-0.4375,0.78125c-0.82033,-0.32291 -1.4974,-0.69661 -2.0312,-1.1211c-0.55209,0.49219 -1.17839,0.88282 -1.8789,1.1719l-0.54687,-0.61719c0.72133,-0.25521 1.34373,-0.61327 1.8672,-1.0742c-0.59375,-0.65625 -1.01951,-1.34375 -1.2773,-2.0625h-0.15234c-0.0156,0.70313 -0.0781,1.3112 -0.1875,1.8242c-0.13542,0.63281 -0.38933,1.23828 -0.76172,1.8164l-0.63281,-0.57812c0.34375,-0.55989 0.56901,-1.18619 0.67578,-1.8789c0.06771,-0.43229 0.10156,-0.91795 0.10156,-1.457v-2.5352h2.0469v-1.0859h0.83204v1.0859h1.793l0.40625,0.35156c-0.16145,0.53646 -0.35025,1.02733 -0.5664,1.4726l-0.79297,-0.23437c0.17187,-0.28125 0.29948,-0.56381 0.38281,-0.84766h-1.2226v1.3789h1.2969l0.39063,0.33594c-0.3099,0.92967 -0.71877,1.71613 -1.2266,2.3594zM260.36235,192.60781c0.39323,-0.49739 0.66536,-1.00259 0.8164,-1.5156h-1.8711c0.24479,0.55208 0.59636,1.05728 1.0547,1.5156zM259.66703,189.02581h-1.2383v1.3789h1.2383zM256.76473,189.2055c-0.34375,-0.46615 -0.76561,-0.90365 -1.2656,-1.3125l0.60937,-0.58984c0.48698,0.35156 0.92448,0.76433 1.3125,1.2383zM256.40926,191.0922c-0.37239,-0.47917 -0.78776,-0.90757 -1.2461,-1.2852l0.60156,-0.58593c0.45052,0.32031 0.87892,0.72784 1.2852,1.2226zM255.25306,194.182c0.48959,-0.7344 0.92319,-1.62503 1.3008,-2.6719l0.70703,0.48828c-0.34895,1.03907 -0.77082,1.97787 -1.2656,2.8164z"/><path d="M267.83,189.41c0.18229,0.09375 0.39193,0.20573 0.62891,0.33594l-0.49609,0.40234h2.3516l0.44141,0.44141c-0.58594,0.8828 -1.17057,1.60807 -1.7539,2.1758l-0.79297,-0.46485c0.51302,-0.46875 0.92449,-0.93488 1.2344,-1.3984h-1.9453v3.0625c0,0.35417 -0.08724,0.58073 -0.26172,0.67968c-0.11719,0.06771 -0.33594,0.10157 -0.65625,0.10157c-0.41927,0 -0.8815,-0.02603 -1.3867,-0.0781l-0.19141,-0.87112c0.48698,0.07813 0.91928,0.11719 1.2969,0.11719c0.14323,0 0.23178,-0.02343 0.26563,-0.0703c0.02607,-0.03907 0.0391,-0.11068 0.0391,-0.21484v-2.7266h-3.2734v-0.75391h4.2344c-0.8802,-0.50521 -1.7604,-0.93227 -2.6406,-1.2812l0.63282,-0.50391c0.59115,0.23698 1.11328,0.46745 1.5664,0.69141c0.40105,-0.27344 0.75261,-0.54167 1.0547,-0.80469h-4.1758v-0.74218h5.3125l0.48047,0.46875c-0.68227,0.54947 -1.3372,1.02734 -1.9648,1.4336z"/><path d="M272.77,188.02v-0.8164h0.81641v0.8164h1.2148v0.6875h-1.2148v0.67188h1.3828v0.69531h-0.46484c-0.08333,0.3099 -0.19531,0.63803 -0.33594,0.98438h0.7539v0.67968h-1.3359v0.72266h1.2852v0.69531h-1.2852v1.6484h-0.81641v-1.6484h-1.3789v-0.69531h1.3789v-0.72266h-1.4414v-0.67968h0.71875c-0.08333,-0.34635 -0.18489,-0.67448 -0.30468,-0.98438h-0.57422v-0.69531h1.6016v-0.67188h-1.2734v-0.6875zM273.74266,190.0747h-1.2422c0.08854,0.2474 0.18359,0.57553 0.28516,0.98438h0.64843c0.13542,-0.33333 0.23829,-0.66146 0.3086,-0.98438zM278.48096,187.4849v1.8281c0,0.22657 -0.04167,0.38672 -0.125,0.48047c-0.09896,0.11198 -0.30599,0.16797 -0.6211,0.16797c-0.30729,0 -0.61458,-0.01303 -0.92187,-0.0391l-0.13281,-0.70313c0.43229,0.04687 0.70703,0.0703 0.82422,0.0703c0.12239,0 0.18359,-0.05339 0.18359,-0.16016v-0.94141h-1.7109v2.2695h2.2148l0.46484,0.39844c-0.14063,0.82813 -0.39714,1.56773 -0.76953,2.2188l-0.043,0.0781c0.28646,0.33073 0.64453,0.63281 1.0742,0.90625l-0.4375,0.73047c-0.41146,-0.26563 -0.77866,-0.58334 -1.1016,-0.95313c-0.27865,0.35417 -0.59245,0.6875 -0.94141,1l-0.46094,-0.64062v0.60937h-0.79297v-7.3203zM275.97706,191.1607v2.9531c0.32031,-0.21875 0.62891,-0.52604 0.92578,-0.92187c-0.39843,-0.61459 -0.67838,-1.29165 -0.83984,-2.0312zM277.33646,192.5005c0.23177,-0.44791 0.38281,-0.89451 0.45312,-1.3398h-1.0078c0.12761,0.5 0.3125,0.9466 0.55469,1.3398z"/><path d="M281.01,190.12c0.20313,0 0.38672,0.06771 0.55078,0.20312c0.21615,0.17709 0.32422,0.40365 0.32422,0.67969c0,0.16927 -0.04818,0.32683 -0.14453,0.47266c-0.17448,0.27083 -0.42188,0.40625 -0.74219,0.40625c-0.14062,0 -0.27473,-0.03386 -0.40234,-0.10157c-0.10156,-0.05207 -0.1875,-0.12108 -0.25781,-0.20703c-0.14323,-0.16927 -0.21485,-0.36197 -0.21485,-0.57812c0,-0.30209 0.1263,-0.54167 0.37891,-0.71875c0.15104,-0.10417 0.32031,-0.15625 0.50781,-0.15625z"/><path d="M288.25,188.69c-0.49479,-0.38281 -1.02732,-0.72135 -1.5976,-1.0156l0.59375,-0.51953c0.63802,0.29167 1.21355,0.64063 1.7266,1.0469l-0.56641,0.48828h2.2148v0.74219h-2.1367v1.6406h1.9102v0.74219h-1.9102v1.9375h2.3516v0.76172h-5.625v-0.76172h2.4023v-1.9375h-1.8516v-0.74219h1.8516v-1.6406h-2.0742v-0.74219zM284.7305,189.14703c-0.36458,-0.48698 -0.79035,-0.90885 -1.2773,-1.2656l0.57422,-0.60157c0.51823,0.34375 0.95833,0.75002 1.3203,1.2188zM284.4766,191.13143c-0.41667,-0.50781 -0.85157,-0.94011 -1.3047,-1.2969l0.59375,-0.60937c0.48698,0.34375 0.93491,0.76041 1.3438,1.25zM283.2618,194.11973c0.55729,-0.70313 1.08203,-1.58727 1.5742,-2.6524l0.67188,0.53516c-0.41407,1.04427 -0.91537,1.97527 -1.5039,2.793z"/><path d="M295.17,192.49c0.29167,0.22135 0.58333,0.51953 0.875,0.89453l-0.6875,0.48828c-0.23697,-0.36979 -0.52473,-0.70572 -0.86328,-1.0078l0.5625,-0.375h-2.8672v-2.3711h5.625v2.3711zM293.045,190.6853v0.33985h3.9062v-0.33985zM293.045,191.53687v0.38671h3.9062v-0.38671zM295.3966,187.79467h2.8086v0.64062h-1.1016c-0.09375,0.23959 -0.20313,0.46745 -0.32813,0.6836h2.0234v0.64843h-7.6016v-0.64843h1.9805c-0.11979,-0.28385 -0.23698,-0.51172 -0.35157,-0.6836h-1.0352v-0.64062h2.75v-0.59375h0.85547zM293.7794,188.43529c0.11198,0.1875 0.21354,0.41537 0.30469,0.6836h1.8164c0.10417,-0.1849 0.20313,-0.41277 0.29688,-0.6836zM291.213,194.19309c0.35677,-0.42448 0.62631,-0.91798 0.8086,-1.4805l0.80078,0.28125c-0.19792,0.69013 -0.48308,1.26307 -0.85547,1.7188zM293.3732,192.79469h0.84766v0.87109c0,0.125 0.02993,0.20313 0.0898,0.23438c0.10937,0.05727 0.41015,0.0859 0.90234,0.0859c0.45052,0 0.75521,-0.01823 0.91407,-0.0547c0.11719,-0.02607 0.18489,-0.10029 0.20312,-0.22266c0.02347,-0.14844 0.0404,-0.32813 0.0508,-0.53906l0.81641,0.22265c-0.00267,0.33073 -0.03263,0.60027 -0.0899,0.8086c-0.06507,0.2526 -0.26559,0.40234 -0.60156,0.44922c-0.34635,0.04687 -0.81509,0.0703 -1.4062,0.0703c-0.7526,0 -1.22003,-0.03776 -1.4023,-0.11328c-0.21615,-0.09115 -0.32422,-0.28255 -0.32422,-0.57422zM298.1896,194.49779c-0.33855,-0.59635 -0.70181,-1.12239 -1.0898,-1.5781l0.70703,-0.39844c0.42709,0.45313 0.80209,0.94139 1.125,1.4648z"/><path d="M300.77,188.02v-0.8164h0.81641v0.8164h1.2148v0.6875h-1.2148v0.67188h1.3828v0.69531h-0.46484c-0.08333,0.3099 -0.19531,0.63803 -0.33594,0.98438h0.7539v0.67968h-1.3359v0.72266h1.2852v0.69531h-1.2852v1.6484h-0.81641v-1.6484h-1.3789v-0.69531h1.3789v-0.72266h-1.4414v-0.67968h0.71875c-0.08333,-0.34635 -0.18489,-0.67448 -0.30468,-0.98438h-0.57422v-0.69531h1.6016v-0.67188h-1.2734v-0.6875zM301.74266,190.0747h-1.2422c0.08854,0.2474 0.18359,0.57553 0.28516,0.98438h0.64843c0.13542,-0.33333 0.23829,-0.66146 0.3086,-0.98438zM306.48096,187.4849v1.8281c0,0.22657 -0.04167,0.38672 -0.125,0.48047c-0.09896,0.11198 -0.30599,0.16797 -0.6211,0.16797c-0.30729,0 -0.61458,-0.01303 -0.92187,-0.0391l-0.13281,-0.70313c0.43229,0.04687 0.70703,0.0703 0.82422,0.0703c0.12239,0 0.18359,-0.05339 0.18359,-0.16016v-0.94141h-1.7109v2.2695h2.2148l0.46484,0.39844c-0.14063,0.82813 -0.39714,1.56773 -0.76953,2.2188l-0.043,0.0781c0.28646,0.33073 0.64453,0.63281 1.0742,0.90625l-0.4375,0.73047c-0.41146,-0.26563 -0.77866,-0.58334 -1.1016,-0.95313c-0.27865,0.35417 -0.59245,0.6875 -0.94141,1l-0.46094,-0.64062v0.60937h-0.79297v-7.3203zM303.97706,191.1607v2.9531c0.32031,-0.21875 0.62891,-0.52604 0.92578,-0.92187c-0.39843,-0.61459 -0.67838,-1.29165 -0.83984,-2.0312zM305.33646,192.5005c0.23177,-0.44791 0.38281,-0.89451 0.45312,-1.3398h-1.0078c0.12761,0.5 0.3125,0.9466 0.55469,1.3398z"/><path d="M309.01,190.12c0.20313,0 0.38672,0.06771 0.55078,0.20312c0.21615,0.17709 0.32422,0.40365 0.32422,0.67969c0,0.16927 -0.04818,0.32683 -0.14453,0.47266c-0.17448,0.27083 -0.42188,0.40625 -0.74219,0.40625c-0.14062,0 -0.27473,-0.03386 -0.40234,-0.10157c-0.10156,-0.05207 -0.1875,-0.12108 -0.25781,-0.20703c-0.14323,-0.16927 -0.21485,-0.36197 -0.21485,-0.57812c0,-0.30209 0.1263,-0.54167 0.37891,-0.71875c0.15104,-0.10417 0.32031,-0.15625 0.50781,-0.15625z"/><path d="M317.55,189.44c0.36458,0.19791 0.79818,0.35547 1.3008,0.47266l-0.40625,0.63281c-0.57031,-0.19271 -1.03515,-0.41016 -1.3945,-0.65235c-0.36719,0.26563 -0.82032,0.45313 -1.3594,0.5625h1.8477v0.44922h-5.0391v-0.44922h1.3008l-0.0703,-0.29296h-1.8203v-0.82422c-0.1276,0.10677 -0.24869,0.19791 -0.36328,0.27343l-0.41406,-0.57812c0.39323,-0.22656 0.6888,-0.50911 0.88672,-0.84766l0.25,0.0273v-0.14844h-1.0742v-0.52734h1.0742v-0.33594h0.73437v0.33594h0.75v-0.33594h0.7461v0.33594h0.96093v0.52734h-0.96093v0.28125h0.8164c-0.00533,0.07031 -0.01053,0.1224 -0.0156,0.15625c-0.00533,0.05467 -0.00923,0.09764 -0.0117,0.12891c0.36979,-0.36979 0.66927,-0.86979 0.89844,-1.5l0.7539,0.15625c-0.06247,0.16927 -0.12757,0.32682 -0.19531,0.47265h1.9297v0.625h-0.53516c-0.11458,0.36719 -0.31119,0.71875 -0.58984,1.0547zM316.5422,189.4752c-0.15364,-0.14844 -0.319,-0.35157 -0.49609,-0.60938c-0.12239,0.14323 -0.24349,0.26823 -0.36328,0.375l-0.40625,-0.47266c-0.07031,0.67707 -0.14063,1.10413 -0.21094,1.2812c-0.09115,0.22657 -0.26953,0.36198 -0.53515,0.40625h0.98046l-0.34765,-0.52734c0.58333,-0.08594 1.04297,-0.23698 1.3789,-0.45312zM317.00314,189.06113c0.15885,-0.1875 0.28646,-0.41276 0.38281,-0.67578h-0.97265c0.16667,0.25781 0.36328,0.48307 0.58984,0.67578zM313.75314,188.34629v-0.28125h-0.75v0.28125zM312.40154,188.82676c-0.05467,0.07031 -0.12498,0.14974 -0.21094,0.23828h1.918v0.89453c0.03127,0.00267 0.0495,0.004 0.0547,0.004c0.08854,0 0.14844,-0.04037 0.17969,-0.1211c0.08333,-0.19791 0.14583,-0.53645 0.1875,-1.0156zM312.59685,189.49082v0.24609h0.83985v-0.24609zM318.06165,193.26422v1.5391h-0.875v-0.27344h-4.3828v0.27344h-0.87109v-1.5391zM312.80385,193.72125v0.33594h4.3828v-0.33594zM311.19445,191.15485h7.6016v0.50391h-7.6016zM312.24135,191.91267h5.5117v0.42578h-5.5117zM312.24135,192.59626h5.5117v0.41406h-5.5117z"/><path d="M320.77,188.02v-0.8164h0.81641v0.8164h1.2148v0.6875h-1.2148v0.67188h1.3828v0.69531h-0.46484c-0.08333,0.3099 -0.19531,0.63803 -0.33594,0.98438h0.7539v0.67968h-1.3359v0.72266h1.2852v0.69531h-1.2852v1.6484h-0.81641v-1.6484h-1.3789v-0.69531h1.3789v-0.72266h-1.4414v-0.67968h0.71875c-0.08333,-0.34635 -0.18489,-0.67448 -0.30468,-0.98438h-0.57422v-0.69531h1.6016v-0.67188h-1.2734v-0.6875zM321.74266,190.0747h-1.2422c0.08854,0.2474 0.18359,0.57553 0.28516,0.98438h0.64843c0.13542,-0.33333 0.23829,-0.66146 0.3086,-0.98438zM326.48096,187.4849v1.8281c0,0.22657 -0.04167,0.38672 -0.125,0.48047c-0.09896,0.11198 -0.30599,0.16797 -0.6211,0.16797c-0.30729,0 -0.61458,-0.01303 -0.92187,-0.0391l-0.13281,-0.70313c0.43229,0.04687 0.70703,0.0703 0.82422,0.0703c0.12239,0 0.18359,-0.05339 0.18359,-0.16016v-0.94141h-1.7109v2.2695h2.2148l0.46484,0.39844c-0.14063,0.82813 -0.39714,1.56773 -0.76953,2.2188l-0.043,0.0781c0.28646,0.33073 0.64453,0.63281 1.0742,0.90625l-0.4375,0.73047c-0.41146,-0.26563 -0.77866,-0.58334 -1.1016,-0.95313c-0.27865,0.35417 -0.59245,0.6875 -0.94141,1l-0.46094,-0.64062v0.60937h-0.79297v-7.3203zM323.97706,191.1607v2.9531c0.32031,-0.21875 0.62891,-0.52604 0.92578,-0.92187c-0.39843,-0.61459 -0.67838,-1.29165 -0.83984,-2.0312zM325.33646,192.5005c0.23177,-0.44791 0.38281,-0.89451 0.45312,-1.3398h-1.0078c0.12761,0.5 0.3125,0.9466 0.55469,1.3398z"/><path d="M332.89,189.06c0.35156,-0.29427 0.69269,-0.64194 1.0234,-1.043l0.64062,0.49609c-0.28125,0.3125 -0.62368,0.6211 -1.0273,0.92579c0.34375,0.17969 0.77215,0.36458 1.2852,0.55468l-0.42579,0.6875c-0.46875,-0.18229 -0.89581,-0.38671 -1.2812,-0.61328v0.40625h-0.72656v1.0508h2.2578v0.75391h-2.2578v1.3086c0,0.13802 0.02997,0.22005 0.0899,0.2461c0.08073,0.03387 0.24739,0.0508 0.5,0.0508c0.27604,0 0.46484,-0.01693 0.5664,-0.0508c0.10157,-0.03127 0.16667,-0.11851 0.19531,-0.26172c0.03647,-0.17709 0.056,-0.4323 0.0586,-0.76563l0.85547,0.25391c-0.02867,0.69273 -0.10419,1.12763 -0.22657,1.3047c-0.10677,0.15365 -0.27343,0.24609 -0.5,0.27734c-0.22917,0.03127 -0.60027,0.0469 -1.1133,0.0469c-0.48437,0 -0.79687,-0.02993 -0.9375,-0.0898c-0.22917,-0.09635 -0.34375,-0.3138 -0.34375,-0.65234v-1.668h-1.2305c-0.05987,0.67447 -0.28122,1.2018 -0.66406,1.582c-0.42187,0.42187 -1.04427,0.73958 -1.8672,0.95313l-0.5039,-0.7461c0.737,-0.15365 1.27997,-0.38021 1.6289,-0.67969c0.19011,-0.16667 0.32813,-0.36979 0.41407,-0.60937c0.04687,-0.125 0.08593,-0.29167 0.11718,-0.5h-2.0547v-0.75391h2.0938v-1.0508h-0.60938v-0.32422c-0.45833,0.28646 -0.92707,0.51693 -1.4062,0.69141l-0.39062,-0.65625c0.5651,-0.19271 1.09373,-0.4414 1.5859,-0.74609c-0.28385,-0.27083 -0.60416,-0.52604 -0.96093,-0.76563l0.5664,-0.55859c0.40365,0.28125 0.74738,0.5651 1.0312,0.85156c0.30729,-0.26302 0.56901,-0.53906 0.78516,-0.82813h-1.4102v-0.73437h2.6836c0.21354,0.35417 0.43229,0.65234 0.65625,0.89453c0.30469,-0.27083 0.6237,-0.60156 0.95703,-0.99219l0.63281,0.4961c-0.31511,0.34115 -0.67187,0.66667 -1.0703,0.97656c0.14323,0.11198 0.27083,0.20573 0.38281,0.28125zM331.5228,190.4741h-1.2031v1.0508h1.2031zM329.4252,189.75535h3.1836c-0.64844,-0.43489 -1.20834,-0.93619 -1.6797,-1.5039c-0.375,0.53385 -0.8763,1.03515 -1.5039,1.5039z"/><path d="M340.15,193.16l0.0547,0.69921c-1.1302,0.39844 -2.3867,0.72657 -3.7695,0.98438l-0.28906,-0.78125c0.23959,-0.03647 0.57812,-0.09506 1.0156,-0.17578v-1.4297c-0.45053,0.22917 -0.98699,0.44661 -1.6094,0.65234l-0.44531,-0.69531c1.2526,-0.33854 2.20833,-0.77084 2.8672,-1.2969h-2.7891v-0.67969h3.3477v-0.58984h-2.5313v-0.65625h2.5312v-0.55079h-2.9297v-0.67187h2.9297v-0.76953h0.85547v0.76953h3.0156v0.67187h-3.0156v0.55079h2.6172v0.65625h-2.6172v0.58984h3.4336v0.67969h-0.93359l0.57812,0.39843c-0.35677,0.34636 -0.85677,0.72526 -1.5,1.1367l-0.0898,0.0586c0.48958,0.44791 1.15365,0.81771 1.9922,1.1094l-0.52735,0.79297c-0.90887,-0.38541 -1.63933,-0.86978 -2.1914,-1.4531zM338.9664,191.1288c-0.26041,0.30469 -0.57421,0.57812 -0.9414,0.82031v1.7539c0.64323,-0.14323 1.28906,-0.30989 1.9375,-0.5l0.17968,-0.0508c-0.53385,-0.59115 -0.92579,-1.26561 -1.1758,-2.0234zM340.3922,192.1952c0.46355,-0.33073 0.86981,-0.69009 1.2188,-1.0781h-1.8476c0.16667,0.39843 0.3763,0.7578 0.6289,1.0781z"/><path d="M345.84,187.8v5.582h-1.6641v0.66406h-0.77734v-6.2461zM344.1759,188.52656v1.6484h0.89453v-1.6484zM344.1759,190.88596v1.7422h0.89453v-1.7422zM347.84,188.06176v-0.86328h0.83203v0.86328h1.7031v0.71094h-1.7031v0.89843h2.1445v0.71875h-1.1211v0.83985h0.9375v0.73437h-0.9375v2.1133c0,0.28646 -0.07812,0.48308 -0.23437,0.58985c-0.125,0.08333 -0.33724,0.125 -0.63672,0.125c-0.36198,0 -0.66927,-0.01693 -0.92188,-0.0508l-0.16015,-0.78125c0.30729,0.05207 0.59505,0.0781 0.86328,0.0781c0.12239,0 0.19922,-0.02603 0.23047,-0.0781c0.0234,-0.03647 0.0351,-0.09636 0.0351,-0.17969v-1.8164h-2.7656v-0.73437h2.7656v-0.83985h-2.8633v-0.71875h1.832v-0.89843h-1.5938v-0.71094zM347.32047,193.80786c-0.26302,-0.54167 -0.53515,-1.0039 -0.8164,-1.3867l0.71093,-0.39843c0.3099,0.375 0.59506,0.82293 0.85547,1.3438z"/><path d="M351.89,194.46c-0.09896,-0.8854 -0.14844,-1.7656 -0.14844,-2.6406c0,-1.5 0.11068,-2.92447 0.33203,-4.2734l0.85938,0.0898c-0.21094,1.16667 -0.31641,2.48307 -0.31641,3.9492c0,0.9844 0.05469,1.90497 0.16407,2.7617zM354.2338,188.2725h3.7539v0.83203h-3.7539zM358.2533,193.9795c-0.52083,0.08073 -1.13933,0.1211 -1.8555,0.1211c-1.79947,0 -2.6992,-0.52863 -2.6992,-1.5859c0,-0.41927 0.11198,-0.78517 0.33594,-1.0977l0.73828,0.32813c-0.14062,0.19791 -0.21093,0.42057 -0.21093,0.66797c0,0.30469 0.15234,0.51432 0.45703,0.6289c0.33854,0.13021 0.80077,0.19532 1.3867,0.19532c0.63281,0 1.21874,-0.04167 1.7578,-0.125z"/><path d="M364.25,188.84l0.0351,-1.6406h0.78516l-0.0274,1.6406h1.5469c-0.03907,2.72653 -0.13282,4.42707 -0.28125,5.1016c-0.06247,0.28385 -0.16533,0.48307 -0.30859,0.59765c-0.14063,0.10937 -0.36589,0.16406 -0.67579,0.16406c-0.29947,0 -0.58463,-0.01563 -0.85546,-0.0469l-0.16016,-0.80859c0.30729,0.04167 0.58464,0.0625 0.83203,0.0625c0.16667,0 0.27734,-0.04688 0.33203,-0.14063c0.15365,-0.26563 0.26042,-1.64973 0.32031,-4.1523h-0.80468c-0.07031,1.17707 -0.2474,2.1458 -0.53125,2.9062c-0.33594,0.90107 -0.79817,1.65757 -1.3867,2.2695l-0.5586,-0.60938c0.57813,-0.56771 0.99869,-1.28254 1.2617,-2.1445c0.21875,-0.70833 0.36459,-1.51563 0.4375,-2.4219h-1.0352v-0.58985h-4.043v-0.74218h1.7773v-1.0859h0.83203v1.0859h1.582v0.55468zM361.0234,192.5197c-0.32552,-0.36979 -0.67189,-0.71876 -1.0391,-1.0469l0.51953,-0.54688c0.25781,0.22135 0.57422,0.51823 0.94922,0.89063c0.20052,-0.35938 0.375,-0.72788 0.52344,-1.1055l0.71875,0.35156c-0.14844,0.38541 -0.3711,0.84245 -0.66797,1.3711c0.29167,0.32813 0.54948,0.63933 0.77344,0.9336l-0.60938,0.64843c-0.22656,-0.32812 -0.4375,-0.61327 -0.63281,-0.85546c-0.46615,0.65885 -1.01301,1.19662 -1.6406,1.6133l-0.63281,-0.66407c0.69793,-0.38541 1.27737,-0.91535 1.7383,-1.5898zM359.039,190.8556c0.5026,-0.37761 0.9323,-0.92447 1.2891,-1.6406l0.67969,0.35938c-0.35677,0.7552 -0.82424,1.36847 -1.4024,1.8398zM362.8945,191.1095c-0.35157,-0.51302 -0.77863,-1.02995 -1.2812,-1.5508l0.60156,-0.42187c0.49219,0.45833 0.89975,0.92447 1.2227,1.3984z"/><path d="M371.96,191.98c0.77607,0.67187 1.72007,1.21613 2.832,1.6328l-0.52734,0.75391c-1.19273,-0.53646 -2.1732,-1.23699 -2.9414,-2.1016v2.5352h-0.84765v-2.5039c-0.7422,0.95573 -1.69663,1.694 -2.8633,2.2148l-0.51953,-0.70313c1.1068,-0.42448 2.0508,-1.03385 2.832,-1.8281h-2.8008v-0.69531h3.3516v-0.58204h-2.6406v-3.207h6.1797v3.207h-2.6914v0.58204h3.4024v0.69531zM368.667,188.1206v0.63672h1.8086v-0.63672zM368.667,189.3745v0.70312h1.8086v-0.70312zM373.1826,190.07762v-0.70312h-1.8594v0.70312zM373.1826,188.75732v-0.63672h-1.8594v0.63672z"/><path d="M379.32,187.93h2.832v0.69531h-1.1055c-0.13021,0.40885 -0.27343,0.78515 -0.42968,1.1289h2.1055v0.71094h-7.6016v-0.71094h2.0508c-0.10677,-0.36198 -0.2513,-0.73828 -0.43359,-1.1289h-1.0508v-0.69531h2.7773v-0.72656h0.85547zM377.6598,188.62531c0.15364,0.35157 0.28906,0.72787 0.40625,1.1289h1.6758c0.15365,-0.35677 0.28516,-0.73307 0.39453,-1.1289zM381.5036,191.00421v3.8008h-0.8711v-0.41016h-3.4336v0.41016h-0.86328v-3.8008zM377.1989,191.66827v0.67969h3.4336v-0.67969zM377.1989,192.97297v0.75h3.4336v-0.75z"/><path d="M383.8,188.3h2.1055c0.23177,-0.36979 0.40755,-0.66796 0.52734,-0.89453l0.8711,0.125c-0.07813,0.14063 -0.21615,0.36979 -0.41407,0.6875l-0.0508,0.082h2.7539v0.76954h-3.2734c-0.34115,0.46875 -0.66667,0.87501 -0.97656,1.2188c0.49219,-0.29427 0.94142,-0.44141 1.3477,-0.44141c0.63021,0 1.04297,0.31641 1.2383,0.94922c0.66667,-0.22135 1.34637,-0.4401 2.0391,-0.65625l0.33594,0.75781l-0.13672,0.0391l-0.38672,0.10157c-0.7292,0.19791 -1.31253,0.36718 -1.75,0.50781c0.03127,0.33854 0.0534,0.77604 0.0664,1.3125l-0.85547,0.0469c-0.00267,-0.30989 -0.00787,-0.64583 -0.0156,-1.0078v-0.0781c-1.19793,0.40885 -1.7969,0.82032 -1.7969,1.2344c0,0.21354 0.15364,0.35937 0.46093,0.4375c0.29688,0.07552 0.82815,0.11328 1.5938,0.11328c0.70573,0 1.44663,-0.04036 2.2227,-0.12109l0.0937,0.83203c-0.7526,0.05727 -1.53253,0.0859 -2.3398,0.0859c-0.9948,0 -1.70183,-0.07552 -2.1211,-0.22657c-0.51823,-0.1875 -0.77734,-0.52473 -0.77734,-1.0117c0,-0.41146 0.18359,-0.77473 0.55078,-1.0898c0.38021,-0.32552 1.04947,-0.66145 2.0078,-1.0078c-0.05207,-0.20052 -0.12108,-0.34115 -0.20703,-0.42188c-0.09635,-0.09114 -0.22396,-0.13671 -0.38281,-0.13671c-0.25781,0 -0.58203,0.09765 -0.97266,0.29296c-0.48177,0.23959 -0.9987,0.60025 -1.5508,1.082l-0.51953,-0.59375c0.80987,-0.7526 1.44397,-1.4922 1.9023,-2.2188h-1.5898z"/><path d="M250.56,199.73v-0.70312h-3.168v-0.70313h7.2148v0.70313h-3.2148v0.70312h2.4961v2.9961h0.91015v0.71875h-0.91015v1.3594c0,0.27865 -0.07813,0.47266 -0.23438,0.58203c-0.125,0.08594 -0.33203,0.12891 -0.62109,0.12891c-0.33073,0 -0.75779,-0.01563 -1.2812,-0.0469l-0.15234,-0.80859c0.50781,0.05727 0.92447,0.0859 1.25,0.0859c0.10156,0 0.16015,-0.02083 0.17578,-0.0625c0.0104,-0.02867 0.0156,-0.07424 0.0156,-0.13672v-1.1016h-4.082v2.1602h-0.84766v-2.1602h-0.91015v-0.71875h0.91015v-2.9961zM250.56,200.40969h-1.6016v0.80078h1.6016zM251.39203,200.40969v0.80078h1.6484v-0.80078zM250.56,201.85109h-1.6016v0.875h1.6016zM251.39203,201.85109v0.875h1.6484v-0.875z"/><path d="M257.12,199.43h1.5195v-1.4336h0.89453v1.4336h2.8047v0.81641h-2.8047v1.6445h2.5625v0.80078h-2.5625v1.8086h3.1133v0.8164h-7.2226v-0.8164h3.2148v-1.8086h-2.7109v-0.80078h2.7109v-1.6445h-1.875c-0.23177,0.45313 -0.50521,0.87369 -0.82031,1.2617l-0.70313,-0.58203c0.625,-0.71613 1.07553,-1.6315 1.3516,-2.7461l0.87109,0.16016c-0.11198,0.42187 -0.22656,0.78514 -0.34375,1.0898z"/><path d="M263.97,198.33h0.92187v4.6562c0,0.9818 0.51563,1.4727 1.5469,1.4727c0.67967,0 1.23697,-0.3138 1.6719,-0.94141c0.28125,-0.40364 0.53386,-1.02864 0.75782,-1.875l0.79297,0.48047c-0.26563,0.94013 -0.58464,1.64327 -0.95704,2.1094c-0.58593,0.72653 -1.34767,1.0898 -2.2852,1.0898c-0.9792,0 -1.6693,-0.30208 -2.0703,-0.90625c-0.25261,-0.3776 -0.37891,-0.86457 -0.37891,-1.4609z"/><path d="M273.6,198.18h0.86328v0.98438h2.457v0.74219h-2.457v0.92968h2.3203v0.73438h-2.3203v1.207c0.92707,0.3125 1.84113,0.78257 2.7422,1.4102l-0.46094,0.74218c-0.68227,-0.51041 -1.44267,-0.96095 -2.2812,-1.3516c-0.0208,0.44531 -0.10674,0.79038 -0.25781,1.0352c-0.26302,0.42448 -0.78125,0.63672 -1.5547,0.63672c-0.59635,0 -1.07552,-0.11198 -1.4375,-0.33594c-0.40365,-0.25 -0.60547,-0.58853 -0.60547,-1.0156c0,-0.51041 0.27214,-0.88801 0.81641,-1.1328c0.36459,-0.16146 0.83855,-0.24219 1.4219,-0.24219c0.22917,0 0.48047,0.01823 0.7539,0.0547v-1.0078h-2.7695v-0.73438h2.7695v-0.92968h-2.9375v-0.74219h2.9375zM273.6,203.305c-0.30989,-0.06507 -0.60677,-0.0976 -0.89062,-0.0976c-0.34635,0 -0.6276,0.05078 -0.84375,0.15234c-0.25781,0.12239 -0.38672,0.29687 -0.38672,0.52344c0,0.1901 0.10026,0.34375 0.30078,0.46094c0.20313,0.11979 0.47396,0.17968 0.8125,0.17968c0.40104,0 0.67708,-0.10677 0.82812,-0.32031c0.11979,-0.16667 0.17969,-0.41536 0.17969,-0.74609z"/><path d="M281.89,198.16h0.87891v1.0781h2.3047v0.75391h-2.3047v1.6719c0.09115,0.32031 0.13672,0.60547 0.13672,0.85547c0,0.92707 -0.20443,1.60807 -0.61329,2.043c-0.44531,0.47656 -1.11587,0.80599 -2.0117,0.98828l-0.44532,-0.66406c0.69533,-0.13281 1.21097,-0.32031 1.5469,-0.5625c0.3151,-0.22917 0.52734,-0.54037 0.63672,-0.9336c-0.27865,0.30469 -0.61068,0.45704 -0.9961,0.45704c-0.43229,0 -0.78255,-0.1224 -1.0508,-0.36719c-0.3151,-0.28907 -0.47265,-0.70833 -0.47265,-1.2578c0,-0.28907 0.06901,-0.56771 0.20703,-0.83594c0.09115,-0.17187 0.20312,-0.3151 0.33593,-0.42969c0.30729,-0.26041 0.67579,-0.39062 1.1055,-0.39062c0.27344,0 0.52084,0.0651 0.74219,0.19531v-0.76953h-3.8555v-0.75391h3.8555zM281.9212,202.2147v-0.14453c0,-0.16667 -0.03906,-0.3138 -0.11719,-0.4414c-0.14583,-0.23959 -0.35677,-0.35938 -0.63281,-0.35938c-0.14063,0 -0.27214,0.03906 -0.39453,0.11719c-0.28646,0.17969 -0.42969,0.45573 -0.42969,0.82812c0,0.23438 0.05208,0.4323 0.15625,0.59375c0.14583,0.22396 0.36068,0.33594 0.64453,0.33594c0.25781,0 0.46224,-0.11589 0.61328,-0.34766c0.10677,-0.16406 0.16016,-0.35807 0.16016,-0.58203z"/></g></g></g></svg>