<svg xmlns="http://www.w3.org/2000/svg" viewBox="0 0 180 40" version="1.1" height="40" width="180">
 <path style="paint-order:stroke markers fill" stroke-width=".2" stroke-linejoin="round" stroke-linecap="round" stop-color="#000000" fill-opacity="0" fill="none" d="m0 0h180v40h-180z"></path>
 <g aria-label="震度5強以上" fill="#fff">
  <path d="m26.228 15.194v-0.58789h-4.2725v-0.97754h10.09v0.97754h-4.3613v0.58789h5.6602v2.4541h-1.4834v-1.5723h-4.1768v2.6592h-1.4561v-2.6592h-4.1016v1.5723h-1.4697v-2.4541zm4.8398 9.7002q1.0459 0.39648 2.6113 0.62891l-0.7998 1.1621q-2.1943-0.37598-3.6025-1.292-1.4014-0.91602-2.1807-2.2764h-1.5107v2.1055q1.5107-0.21191 2.8027-0.45117l0.0957 1.0186q-2.4062 0.57422-5.5029 0.99805l-0.40332-1.2031q1.0732-0.11621 1.4697-0.16406l0.08203-0.01367v-2.29h-1.4971q-0.0957 1.2031-0.31445 1.9209-0.25977 0.86133-0.83398 1.6064l-1.2168-1.0049q0.66992-0.86816 0.83398-2.0303 0.08887-0.62891 0.08887-1.5654v-2.8984h11.799v0.90918h-10.329v2.0986h10.917v0.96387h-1.5518l0.86816 0.57422q-0.77246 0.64258-1.8252 1.2031zm-1.0664-0.52637q0.98438-0.66992 1.5654-1.251h-2.9873q0.58789 0.75195 1.4219 1.251zm-7.2734-7.7861h2.9121v0.77246h-2.9121zm0 1.2578h2.9121v0.78613h-2.9121zm5.5439-1.2578h3.001v0.77246h-3.001zm0 1.2578h3.001v0.78613h-3.001zm-4.7988 2.7891h8.5107v0.89551h-8.5107z"></path>
  <path d="m42.066 14.579h5.3594v1.1484h-3.0352v1.1348h2.8438v1.1074h-2.8438v2.0371h-5.5029v-2.0371h-2.2422v1.2715q0 3.0967-0.32812 4.8945-0.25293 1.3672-0.82031 2.4951l-1.2441-0.98438q0.51953-1.1279 0.71094-2.7549 0.1709-1.4287 0.1709-3.6504v-4.6621h5.4072v-1.2305h1.5244zm-5.4209 1.1484v1.1348h2.2422v-1.1348zm3.6982 0v1.1348h2.5908v-1.1348zm0 2.2422v1.0596h2.5908v-1.0596zm1.5859 7.1777q-1.9756 1.0254-5.0176 1.5586l-0.71094-1.2578q2.8574-0.3418 4.4775-1.0459-1.3877-1.0049-2.3721-2.3857h-0.94336v-1.1895h8.0049l0.71777 0.60156q-1.0186 1.5654-2.9053 2.9463 1.6201 0.64941 4.416 0.95703l-0.7998 1.292q-2.6797-0.3623-4.8672-1.4766zm-2.0303-3.1309q0.82715 0.9707 2.0098 1.709 1.333-0.86133 2.0576-1.709z"></path>
  <path d="m50.14 14.326h6.624v1.5107h-5.1406l-0.40332 3.2334h0.05469q1.0527-0.75879 2.4404-0.75879 0.9502 0 1.7842 0.43066 1.1689 0.59473 1.6338 1.8115 0.25977 0.68359 0.25977 1.5176 0 1.873-1.3809 2.9531-1.1484 0.89551-2.8574 0.89551-2.4746 0-3.9785-1.4902l0.93652-1.1758q0.54688 0.54004 1.333 0.83398 0.85449 0.32129 1.6816 0.32129 0.93652 0 1.5996-0.51953 0.84766-0.66309 0.84766-1.832 0-1.0186-0.58789-1.6611-0.63574-0.69726-1.7568-0.69726-1.5244 0-2.2354 1.0664l-1.5381-0.25293z"></path>
  <path d="m63.818 20.068q-0.06836 4.3203-0.42383 5.4824-0.18457 0.59473-0.58789 0.83398-0.37598 0.22559-1.0732 0.22559-0.65625 0-1.627-0.11621l-0.28027-1.3604q1.1416 0.14356 1.5996 0.14356 0.47852 0 0.6084-0.24609 0.23926-0.44434 0.36914-3.6914h-1.9072q-0.01367 0.04785-0.02051 0.11621-0.04102 0.2666-0.15039 0.82031l-1.3398-0.20508q0.42383-2.9805 0.51953-5.1133h2.7822v-1.7158h-3.2061v-1.3193h4.5664v4.3066h-2.8574l-0.03418 0.58106q-0.04102 0.59473-0.10254 1.2578zm3.582-2.707-0.25293 0.02051q-1.1621 0.0957-2.8301 0.18457l-0.33496-1.3193q0.37598-0.0068 0.62891-0.01367 0.14356 0 0.36914-0.0068 1.0596-1.4834 1.7773-2.9326l1.4287 0.33496q-0.69726 1.2031-1.709 2.5498l0.5332-0.01367q1.333-0.04102 2.9736-0.15723l-0.11621-0.15039q-0.41016-0.56055-0.98438-1.2168l1.1484-0.6084q1.5449 1.7227 2.3105 3.124l-1.1895 0.74512q-0.28711-0.55371-0.49219-0.88867-1.0459 0.14356-1.873 0.22559v1.3467h2.9258v3.917h-2.9258v2.2832q0.63574-0.06836 1.3535-0.15039l0.15039-0.02051q-0.30762-0.66996-0.67676-1.2989l1.2715-0.50586q0.88184 1.3467 1.6133 3.2607l-1.333 0.65625q-0.24609-0.68359-0.41699-1.0869l-0.5127 0.08203q-2.8848 0.47168-5.9336 0.72461l-0.37598-1.3398q1.6406-0.06152 3.4043-0.19141l0.06836-0.0068v-2.4062h-2.8438v-3.917h2.8438zm0 2.3721h-1.5723v1.6201h1.5723zm1.3877 0v1.6201h1.6064v-1.6201z"></path>
  <path d="m82.433 23.363q-1.5996 1.9824-4.8945 3.1787l-0.86816-1.2646q3.9307-1.1895 5.1338-3.7598 1.1348-2.4336 1.1348-7.4922v-0.21191h1.5312v0.18457q0 3.4658-0.41016 5.5508-0.27344 1.4355-0.83398 2.584 2.2012 1.5654 3.2607 2.7959l-1.0938 1.3467q-1.1553-1.4424-2.8438-2.8164-0.06152-0.04785-0.11621-0.0957zm-6.4395-0.71094q1.8867-0.86133 3.5615-1.9961l0.40332 1.2441q-2.7617 1.9756-6.3574 3.3906l-0.69727-1.3604q0.86816-0.31445 1.6064-0.61523l-0.16406-9.0713h1.5244zm3.9238-3.7051q-1.2646-1.8867-2.6045-3.1514l1.1484-0.96387q1.6816 1.5791 2.7002 3.1035z"></path>
  <path d="m94.047 17.252h4.9355v1.4014h-4.9355v5.7148h6.2412v1.4287h-13.303v-1.4287h5.4072v-11.02h1.6543z"></path>
 </g>
</svg>
