<?xml version="1.0" encoding="UTF-8"?>
<svg width="480" height="360" version="1.1" viewBox="0 0 480 360" xmlns="http://www.w3.org/2000/svg">
 <g dominant-baseline="central" fill="#fff" aria-label="近畿地方">
  <path d="m245.52 185.06q0.78125 0.90821 1.7578 1.3477 1.6016 0.72266 4.1992 0.72266h8.3203q-0.35156 0.66406-0.6543 1.9043h-7.7637q-3.3594 0-5.1465-1.0547-0.73242-0.43946-1.6113-1.4356-0.0684 0.0781-0.16602 0.19531-1.4355 1.6992-2.8516 2.7734l-1.1816-2.002q1.5527-0.92774 2.998-2.0996v-4.8242h-2.8418v-1.9238h4.9414zm2.5391-12.959 0.51758-0.0391q4.5215-0.3125 8.125-1.3379l1.5234 1.7188q-3.7891 0.99609-8.0859 1.3476v2.5293h9.043v1.9043h-3.2812v7.959h-2.1582v-7.959h-3.6035q-0.0488 3.1348-0.46875 4.9902-0.38086 1.709-1.25 3.0664l-1.7969-1.3574q0.9668-1.5039 1.2402-3.7305 0.19531-1.5332 0.19531-4.1699zm-3.6133 3.8184q-1.4941-2.1094-3.2227-3.7793l1.6016-1.2793q1.6797 1.4062 3.3789 3.5742z" dominant-baseline="central"/>
  <path d="m272.02 180.88q0.53711 1.8457 1.6602 3.6523 1.416-1.6894 2.3144-3.3301l1.6406 1.0352q-1.1524 1.9922-2.7246 3.7695 1.25 1.2988 1.8555 1.2988 0.49804 0 0.83008-2.6465l1.7969 0.91797q-0.36133 2.1973-0.68359 2.9102-0.48828 1.084-1.3477 1.084-0.58594 0-1.6113-0.46875-1.2207-0.5664-2.2754-1.6406-1.3086 1.1914-2.5586 1.9922l-0.9375-0.97656h-6.5234v0.89844h-1.7773v-7.6367h8.3984v6.0156q1.0645-0.64454 2.1973-1.748-1.4844-2.1777-2.3047-5.127h-9.4141v-1.5234h9.0527q-0.72265-3.5938-0.91796-8.8574h2.0215q0.13672 4.4043 0.95703 8.7305l0.0195 0.12695h2.334q-0.30274-0.30274-0.75196-0.64453l1.6211-0.45899q0.47851 0.33203 1.3184 1.1035h3.2226v1.5234zm-8.5644 2.1973v1.2598h1.6602v-1.2598zm0 2.5781v1.4258h1.6602v-1.4258zm4.9219 1.4258v-1.4258h-1.6797v1.4258zm0-2.7441v-1.2598h-1.6797v1.2598zm-4.6387-8.2812q-1.1816-1.3574-2.5293-2.5l1.1426-1.2402q0.50781 0.42969 0.73242 0.64453 0.83008-1.1328 1.3672-2.3438l1.7774 0.78125q-0.9375 1.4356-2.0606 2.6465 0.3418 0.36133 0.63477 0.73242 0.94726-1.1914 1.9141-2.6367l1.5332 0.82031q-1.6309 2.2363-3.5547 4.1113l0.37109-0.0195q0.97656-0.0293 1.7188-0.0781-0.29297-0.72266-0.61524-1.2598l1.4453-0.55664q0.83008 1.4746 1.4355 3.3789l-1.6016 0.64453q-0.12695-0.63477-0.2539-0.9961l-0.3711 0.0391q-2.5293 0.3125-5.5762 0.47851l-0.40039-1.5625q1.3672 0 1.9141-0.0195 0.5957-0.625 0.97656-1.0644zm9.6387-0.15625q-1.0254-1.2891-2.3047-2.4414l1.1035-1.1816q0.3711 0.3418 0.6836 0.6543 0.81054-1.0742 1.416-2.3145l1.7383 0.82032q-0.99609 1.377-2.1387 2.5879 0.33203 0.40039 0.56641 0.70312 1.1133-1.2598 2.168-2.7051l1.6016 0.85938q-1.9824 2.3828-3.6719 3.9453 0.83007-0.0195 2.3144-0.10742-0.33203-0.76172-0.66406-1.2598l1.4453-0.49804q0.9082 1.3574 1.5332 3.1738l-1.5723 0.74218q-0.18555-0.60547-0.32227-0.99609-2.4707 0.39062-5.3418 0.51758l-0.40039-1.5234q0.36133 0 0.61524 0l0.29297-0.01 0.21484-0.21484q0.26367-0.26367 0.72266-0.75195z" dominant-baseline="central"/>
  <path d="m290.23 178.41v7.7344q0 0.75195 0.64454 0.9082 0.66406 0.16602 3.0371 0.16602 2.3144 0 3.0566-0.23438 0.41992-0.13672 0.54687-0.76172 0.16602-0.8789 0.17578-2.0801l2.041 0.57618q-0.15625 2.8809-0.79102 3.6816-0.41992 0.52734-1.2695 0.625-1.3379 0.14648-4.541 0.14648-2.4805 0-3.252-0.13672-1.1621-0.19531-1.4746-1.0254-0.15625-0.43945-0.15625-1.1719v-7.7441l-1.8652 0.64453-0.45899-1.8945 2.3242-0.80078v-5.2637h1.9824v4.5801l2.0996-0.71289v-5.1465h1.9629v4.4629l3.2715-1.123 1.0254 0.625v7.3144q0 0.76172-0.36133 1.1328-0.41015 0.41015-1.377 0.41015-0.79102 0-1.6797-0.13672l-0.32226-1.8652q0.57617 0.14648 1.1719 0.14648 0.42969 0 0.52734-0.17578 0.0977-0.14648 0.0977-0.48828v-4.6191l-2.3535 0.82031v7.9004h-1.9629v-7.2266zm-7.1777-3.1934v-4.7168h2.0996v4.7168h1.8945v1.9824h-1.8945v6.2109q1.0254-0.35156 2.0312-0.73242l0.18555 1.8848q-3.1641 1.4453-6.4941 2.4219l-0.6836-2.0801q1.5039-0.39062 2.6367-0.74218 0.13672-0.0488 0.22461-0.0684v-6.8945h-2.4805v-1.9824z" dominant-baseline="central"/>
  <path d="m309.48 175.76q-0.0684 1.6309-0.19531 2.8711h7.8711q-0.14648 6.7774-0.76172 8.7988-0.3125 1.0156-1.1621 1.4062-0.66406 0.30273-1.9434 0.30273-1.3477 0-3.0566-0.20507l-0.38085-2.1973q2.2949 0.32227 3.2324 0.32227 0.79101 0 1.0059-0.44922 0.51757-1.0938 0.72265-6.0352h-5.8105q-0.32227 1.7578-0.90821 3.0469-1.6309 3.5644-5.4492 5.6543l-1.543-1.7188q3.8281-1.9922 5.0586-5.2246 0.82031-2.1582 1.0644-6.5723h-6.4648v-2.002h7.9785v-3.2617h2.2559v3.2617h8.2422v2.002z" dominant-baseline="central"/>
 </g>
</svg>
