<svg xmlns="http://www.w3.org/2000/svg" viewBox="0 0 180 40" version="1.1" height="40" width="180">
 <path style="paint-order:stroke markers fill" stroke-width=".2" stroke-linejoin="round" stroke-linecap="round" stop-color="#000000" fill-opacity="0" fill="none" d="m0 0h180v40h-180z"></path>
 <g aria-label="アイコンのみ" fill="#fff">
  <path d="m20.531 14.752h10.712l0.88184 0.74512q-0.38281 1.4287-0.99805 2.3857-1.1553 1.8115-3.459 2.707l-0.86133-1.1758q1.5928-0.47852 2.6455-1.7158 0.62207-0.73144 0.86816-1.5449h-9.7891zm4.3818 2.9531h1.5654v1.1758q0 2.6455-0.58789 4.0879-0.74512 1.832-2.8984 2.9805l-1.1279-1.1895q1.4834-0.7041 2.167-1.6816 0.52637-0.75879 0.69043-1.6064 0.19141-0.9707 0.19141-2.6045z"></path>
  <path d="m38.489 26.045v-7.0137q-2.0781 1.3945-4.7441 2.3516l-0.82715-1.3877q3.0283-1.0186 5.3115-2.625 2.2422-1.5791 3.9922-3.6162l1.3193 0.82715q-1.5518 1.7842-3.459 3.2744v8.1895z"></path>
  <path d="m45.127 14.929h10.008v10.35h-10.247v-1.4287h8.6201v-7.4922h-8.3809z"></path>
  <path d="m62.524 17.452q-2.1602-0.96387-4.4912-1.5449l0.47852-1.4697q2.7002 0.61523 4.5322 1.5312zm-4.3203 6.8018q3.3838-0.28711 5.1816-1.21 2.1191-1.0938 3.2539-3.3564 0.73828-1.4629 1.1963-3.8281l1.3125 0.96387q-0.55371 2.5293-1.3398 4.0195-1.4219 2.7139-4.3477 3.9307-1.8457 0.76562-4.9355 1.0938z"></path>
  <path d="m77.536 24.575q4.0127-1.0117 4.0127-4.6006 0-1.5654-0.80664-2.6934-0.90234-1.2715-2.748-1.6338-0.40332 3.1719-1.1006 5.1953-0.47852 1.415-1.1895 2.6729-1.0254 1.791-2.3311 1.791-0.9707 0-1.7295-0.875-0.48535-0.55371-0.78613-1.3604-0.39648-1.0459-0.39648-2.249 0-1.9482 1.0732-3.5889 1.0869-1.6748 2.8232-2.4336 1.2646-0.55371 2.7754-0.55371 2.3584 0 4.0059 1.2646 2.0234 1.5518 2.0234 4.3955 0 4.7646-4.8193 6.043zm-1.0254-8.9824q-1.21 0.13672-2.0234 0.64942-0.51953 0.33496-1.0322 0.88867-1.4219 1.5723-1.4219 3.6436 0 1.5107 0.60156 2.3652 0.36914 0.52637 0.73144 0.52637 0.49219 0 1.1074-1.0869 1.5039-2.6455 2.0371-6.9863z"></path>
  <path d="m85.937 14.328h5.3457l0.95703 0.81348q-0.67676 2.3721-1.1211 3.5684 1.7021 0.28711 3.1377 0.92969 0.08203-0.88184 0.08203-1.7295 0-0.45117-0.02734-1.0596l1.4971 0.15723q-0.0068 1.9551-0.15723 3.2881 0.84766 0.4375 1.7773 1.0322l-0.58789 1.4561q-0.65625-0.47852-1.4219-0.9502-0.52637 2.0303-1.6816 3.1582-0.82031 0.80664-2.2422 1.4219l-0.85449-1.1484q1.6748-0.71777 2.4746-1.832 0.62891-0.88867 0.92969-2.3242-1.6748-0.84082-3.3906-1.1348-1.1143 3.0488-2.2354 4.6211-0.85449 1.1895-1.9209 1.1895-1.0322 0-1.5996-0.98438-0.43066-0.75195-0.43066-1.791 0-1.2852 0.66308-2.2969 0.78613-1.2031 2.4199-1.7568 0.94336-0.31445 2.1123-0.3418 0.62891-1.6406 0.96387-2.9395h-4.6895zm3.2334 5.5918q-0.88184 0.04785-1.5107 0.33496-0.98438 0.4375-1.4492 1.3398-0.32812 0.63574-0.32812 1.3535 0 0.57422 0.22559 0.99805 0.1709 0.33496 0.41016 0.33496 0.95703 0 2.6523-4.3613z"></path>
 </g>
</svg>
