<svg version="1.1" xmlns="http://www.w3.org/2000/svg" xmlns:xlink="http://www.w3.org/1999/xlink" width="412.913" height="708.7" viewBox="0,0,412.913,708.7"><g transform="translate(-25.627,156.21)"><g data-paper-data="{&quot;isPaintingLayer&quot;:true}" fill="none" fill-rule="nonzero" stroke-opacity="0.9" stroke="#dce3ff" stroke-width="1.5" stroke-linecap="round" stroke-linejoin="round" stroke-miterlimit="10" stroke-dasharray="" stroke-dashoffset="0" style="mix-blend-mode: normal"><g><path d="M398.9,-115.3l-1.88,0.16l-1.07,-0.31l-0.43,0.67l-1.15,0.27l-0.79,1.11l0.08,1.76l-1.87,1.18l-0.76,1.67l0.76,0.84l0.28,1.19l1.32,1.84l-0.14,1.78l-1.11,0.14l-1.14,1.68l-0.6,0.17l-0.81,1.64l-0.51,1.66l-0.96,0.35l0.27,0.87l-0.48,0.88l-1.65,-2.3l-1.46,-1.13l-1.26,-0.1l-0.17,0.63l-1.35,1.36l-0.93,-0.64l-0.65,0.37l0.13,1.29l-2.5,0.73l-2.62,-0.79l-0.27,1.03l-1.49,-0.92l-1.02,-0.26l-0.98,-0.79l-0.04,-0.93l-0.8,-0.26l-1.35,-1.06l0.49,-0.86l-0.15,-1.07l-0.68,-0.29l-0.5,-1.1l0.1,-1.21l-0.37,-0.73l0.92,-0.77l0.2,-0.91l1.01,-0.62l0.21,-1.52l0.63,-1.2l0.17,-1.28l-2.2,-0.26l-1.15,0.16l-0.95,-0.64l-1.41,1.26l-0.82,-0.5l-1.67,0.51l-1.9,-1.83l0.52,-0.95l-0.52,-1.73l0.61,-1.09l-0.39,-0.75l-1.26,0.29l-0.11,-1.16l-0.69,-1.57l-0.75,-0.38l1.05,-1.54l1.68,-0.85l1.14,-1.13l-0.58,-2.17l0.51,-1.51l0.72,0.07l0.68,-1.16l0.08,-1.17l-0.39,-2.91l0.15,-0.9l-1.17,0.06l-1.19,-0.94l0.35,-1.35l0.06,-2.08l-0.9,-1.73l-0.55,-0.49l0.62,-1.69"/><path d="M416.6,-84.1l-2.33,0.27l-0.8,0.59l-1.3,-0.51l-0.8,0.09l0.89,-1.94l-3.21,-1.3l-1.36,0.54l-0.65,-0.96l-0.26,-1.59l-1.38,-2.66l0.61,-1.16l-0.15,-0.72l-0.98,-0.94l-0.57,-1.93l0.68,-1.86l-1.02,-0.43l-1.38,0.11l-0.42,-1.9l-1.53,-1.06l-1.47,-0.16l-0.09,-1.89l0.7,-2.21l-0.74,-0.34l0.46,-1.2l-0.57,-1.73l0.46,-0.4l0.35,-2.2l0.4,-0.71l-0.95,-1.79l-0.29,-1.14"/><path d="M284.8,-49.8l-0.5,1.45l-0.99,0.34l-1.1,-0.39l-0.3,-1.62l-2.21,-1.97l0.66,-0.99l1.13,1.03l1.69,-1.21l0.46,0.72l-0.21,1.19l0.91,0.34l0.46,1.11"/><path d="M348.6,-57.1l-0.12,-0.77l0.39,-2.42l1.73,-1.22l1.52,1.09l-0.57,0.4l-0.41,1.43l-2.54,1.49"/><path d="M364.9,-57.2l-0.11,0.82l-1,-0.17l0.17,-0.87l-0.79,-0.27l-0.68,-1.99l-0.06,-2.33l0.47,-0.95l0.42,1.79l-0.24,2.42l0.9,1.2l0.92,0.35"/><path d="M364.8,-62.8l0.56,-0.46l1.59,0.11l0.37,0.47l0.99,-1.85l1.03,-0.27l-1,1.47l-1.74,1.82l-1.69,0.05l-0.11,-1.34"/><path d="M416.6,-84.1l0.12,0.7l-0.63,0.99l-0.78,0.11l-0.07,1.02l1.6,1.85l0.44,1.68l-0.48,2.98l-1.13,0.2l-0.48,0.58l-2.83,0.21l-0.29,1.15l0.33,1.99l0.76,1.96l-0.16,2.86l0.73,1.39l0.22,1.06l-0.05,2.18l-0.57,2.29l-1.24,1.65v0.56l-1.3,2.46l-0.85,0.01l-2.63,0.84l-2.46,-0.12l-0.35,1.23l0.05,2.53l0.65,2.58l-0.31,1.98l0.82,1.1l1.16,0.53l-0.2,0.9l1.2,0.9l-0.09,1.8l-1.75,1.56l-1.53,-0.4l-0.91,0.17l0.09,-2.09l0.36,-2.94l-1.81,-0.77l-1.42,-1.04l-1.02,-0.32l-0.35,-1.48l-2.05,-0.52l-0.8,-0.52l-1.49,0.84l-1.12,0.06l-1.17,-0.47l-2.75,-2.33l-1.07,0.97l-0.65,-0.77l0.6,-0.56l-0.64,-1.48l-0.56,-0.54l-2.06,0.28l-1.78,-2.36l-2.06,-1.25l-1.53,-0.47l-1.45,-1.36l0.05,-0.71l-0.93,-1.01l-1.78,-0.44l-1.54,0.99l-0.77,1.08l-1.47,0.57l1.23,0.74l0.06,1.53l-0.65,0.22l-0.88,-0.98l-1.2,0.27l-1.74,-0.5l0.47,-0.89l1.07,-0.3l-0.47,-0.92l1.69,-1.74l0.48,-0.78l0.75,0.03l0.95,-1.43l-0.29,-0.92l-1.41,-0.91l-1.65,1.75l-0.18,-0.73l0.78,-1.48l-0.22,-0.86l-2.65,0.03l-1.52,0.79l-1.11,-0.99l0.24,-1.26l-2.11,1.01l-1.05,-0.38l-0.94,0.59l-0.23,1.07l-0.97,-0.1l-0.97,-0.83l-0.23,1.39l-1,-0.17l-1.43,0.63l-0.85,-0.92l-0.87,-0.01l-1.15,0.86l-0.53,1.4l-0.66,0.55l-0.92,-0.5l-0.28,-1.32l-1.15,0.79l-0.25,0.8l-1,0.93l-1.27,0.61l-0.09,0.68l-2.16,1.14l-2.33,-0.68l-0.73,-0.79l0.6,-0.53l-0.69,-1.06l-2.45,-0.63l-0.84,-1.07l-0.89,0.47l0.29,1.75l0.97,0.64l-1.73,1.17l0.14,1.24l-0.85,0.6l-0.56,-0.85l-1.35,0.91l-1.22,-0.41l0.8,-1.86l-0.45,-0.92l-1.81,1.1l-0.25,-1.04l0.57,-0.78l-1.01,-0.68l-0.79,-0.03l0.43,-2.01l-0.43,-0.97l-0.81,0.5l0.02,1.77l-1.47,0.43l1.16,0.8l-0.52,1.63l-1.52,1.39l-0.42,1.1l-1.07,0.73l0.3,0.53l-0.24,1.33l-1.53,1.55l-1.62,-0.16l-1.3,0.84l-1.16,1.62l-2.61,1.38l-1.59,-0.09l-0.39,-0.94l-1.41,0.52l0.14,-1.13l0.92,-0.26l0.11,-0.69l-1.01,-0.38l-0.3,1.17l-0.87,0.48l-0.58,-0.74l1.05,-0.58l-0.95,-0.61l-0.72,0.64l-2.57,0.67l-0.64,0.91l-0.71,-1.29l-1.36,-1.6l0.52,-1.83l-0.23,-1.9l-1.44,-1.1l0.44,-0.97l-1.62,0.02l-0.21,0.82l-1.09,-0.85l-1.85,-3.29l-0.69,-0.57l-1.28,0.22l-1.84,-0.73l-1.72,-0.3l0.03,-0.97l-1.11,-0.82l-0.84,1.38l0.19,0.79l-0.89,0.53l-0.67,0.97l0.66,0.79l-1.5,2.06l-0.75,0.4l-0.38,1.29l-1.75,1.46l-1.92,1.25l-2.41,2.27l-0.96,0.04l-1.43,-1.41l0.66,-2.34l-0.82,-1.69l0.1,-1.01l0.64,-1.2l0.02,-1.07l-1.27,-0.66l1.13,-2.5l-0.4,-1.91l-1.53,-1.09l-1.35,-0.45l-0.07,-1.24l-0.88,-0.71l0.02,-0.97l-1.09,-0.65l0.34,-1.25l0.18,-2.73l1.35,-0.58l1.11,0.88l1.1,-0.73l-0.25,-0.94l0.9,-1.28l0.65,-0.08l0.99,-1.22l0.69,-2.49l-0.19,-2.35l-1.44,-0.65l0.58,-1.16l-0.04,-1.79l-2.12,-1.82l-0.44,-1.42l-1.49,-1.16l-1.42,-1.45l0.69,-0.95l1.09,-0.38l-0.11,-0.85l0.78,-0.8l0.1,-2.1l-0.27,-1.76l0.95,-0.8l0.06,-1.18l0.6,-0.21l0.58,0.98l0.73,0.1l1.22,1.31l0.37,-1.11l1.45,-0.09l3.26,-1.34l1.9,-1.26l0.47,0.43l1.55,-0.52l1.27,0.53l0.27,-1.02l-0.75,-1.28l-1.83,-1.51l-0.89,0.39l-2.18,-0.1l-0.77,-0.71l-1.38,-0.32l-0.81,0.92l0.62,0.43l-0.14,0.94l-0.79,0.21l-1.09,-0.88l0.32,-1.18l0.65,0.13l1.34,-1.31l0.16,-1.64l0.91,-0.09l1.02,-0.86l2.29,0.92l0.17,1.56l1.5,0.48l2.33,0.09l1.45,-0.63l1.66,-1.1l1.85,0.46l1.59,0.86l0.3,0.51l1.71,-0.39l1.07,1.62l-0.24,0.8l1.65,2.37l1.54,0.03l1.89,-0.93l1.18,-2.06l0.53,2.75l1.02,0.49l0.84,-0.98l0.1,-1.6l0.91,0.15l1.28,0.83l1.54,-0.01l0.99,-0.72l0.87,0.79l1.28,0.38l1.13,-0.24l1.24,-1.06l0.81,-0.18l0.26,-1.62l0.9,-1.25l1.16,-0.1l0.42,0.72l0.9,0.01l1.44,-0.52l0.31,-0.81l1.23,0.58l1.21,-1.39l1.81,-1.28l-0.73,-0.84l-1.05,0.16l-0.94,-1.04l0.67,-0.73l1.39,1.3l0.92,-0.62l1.32,-2.02l2.52,-1.98l0.47,-1.3l-0.89,-0.6l-0.67,-1.65l1.29,-1.95l1.31,-0.21l1.5,0.31l1.13,-0.31l0.31,-0.92l1.32,-1.52l1.87,-1.09l0.23,-0.75l1.35,-1.3l0.12,-1.02l-0.5,-0.57l0.63,-0.79l-0.25,-0.97l0.67,-1.33l2.96,-1.3l0.6,-2.87l0.49,-0.92l1.03,-0.7l1.67,0.08l1.06,0.47l0.37,0.64l-0.5,1.15l0.93,0.52l0.11,-1.32l1.62,-0.38l0.67,-0.92l-0.34,-0.91l1.65,-0.39l0.59,-0.76"/><path d="M276.8,-100l-0.94,-1.17l1.86,-0.43l1.36,-1.39l-0.31,-0.93l1.32,1.22l-0.29,1.24l-2.01,0.11l-0.99,1.35"/><path d="M314.2,-110l-1.5,1.61l0.58,0.86l-1.67,0.68l-2.36,-1.25l-0.19,-2.12l0.99,-0.24l0.52,0.54l3.14,-0.27l2.89,-1.54l0.8,0.22l0.7,1.22l-0.62,0.58l-3.28,-0.29"/><path d="M333.2,-120.8l0.64,2.29l-1.13,0.59l-0.6,-0.73l0.16,-1.35l0.93,-0.8"/><path d="M319.8,-121.4l1.63,0.8l-0.21,0.77l-1.14,0.35l-0.88,-0.34l0.6,-1.58"/><path d="M308.2,-152.2l-0.15,1.01l-1.24,0.65l-1.09,0.02l-0.67,-1.34l-0.28,-2.1l0.26,-1.5l0.38,0.69l1.16,0.58l0.07,1.04l1.56,0.95"/><path d="M407.3,-25.9l-0.37,0.79l-1.58,0.96l-0.69,-0.78l0.63,-0.86l1.21,-0.51l-0.46,-0.95l0.23,-1.29l0.82,-1.74l-0.46,1.14l0.29,0.48l-0.31,1.23l0.69,1.53"/><path d="M389.4,-31.5l-1.03,0.67l-1.37,-0.49l-0.33,-0.98h1.18l0.37,-1.7l0.8,-0.37l0.64,0.2l1.44,1.23l0.21,0.76l-1.91,0.68"/><path d="M418,-32.2l-0.29,1.04l-1.5,-1.28l-0.85,-0.24l-1.74,0.21l-0.27,-0.65l-1.11,-0.71l-0.02,-0.81l-1.15,-0.5l-1.36,0.91l-0.44,-0.88l1.57,-0.46l2.15,-1.16l1.4,0.49l1.23,1.83l1.18,0.18l0.79,0.91l0.41,1.12"/><path d="M402.4,-37.6l-1.57,-0.13l-0.28,1.02l-1.02,0.42l-0.28,1.29l-1.22,0.08l-0.47,0.82l0.19,0.8l-0.84,0.54l-0.99,-1.41l1.48,-0.25l0.54,-1.01l-0.11,-0.93l1.99,-1.56l0.27,-1.06l-1.11,-0.83l-0.24,-0.65l0.38,-1.2l1.22,1.64l1.88,0.13l0.18,0.86l0.72,0.59l-0.72,0.84"/><path d="M393.7,-43.2l0.53,2.03l-1.59,0.21l1.04,-1.31l0.02,-0.93"/><path d="M420.6,-53.3l0.15,1.62l1.44,1.44l-0.04,1.19l0.6,0.57l1.62,-0.22l-0.68,1.35l1.84,0.54l1.1,-0.33l1.17,-0.8l0.24,-0.83l0.96,-1.28l0.88,0.44l1.65,-0.13l1.07,-0.86l-0.4,-0.95l0.72,-0.38l0.75,-1.07l0.74,-0.14l2.06,1.44l1.32,-0.19l-0.38,1.05l-2.12,0.99l-0.99,0.12l-0.45,0.92l-1.32,0.3l-1.13,-0.26l-1.8,0.45l-0.4,1.21l-0.91,0.72l0.4,0.73l-0.36,0.87l0.62,0.97l-0.09,1.13l-0.73,0.8l-0.59,-0.76l-1.09,0.19l-1.69,0.95l-0.25,-0.82l0.46,-1.01l0.82,-0.64l-0.46,-0.98l-1.34,-0.86l-2.37,-0.4l-0.74,-0.66l-1.96,1.43l-0.09,2.41l-0.95,-0.89l-1.64,0.4l-0.45,-0.38l-1.5,0.42l-1.33,1.75l-0.98,-1.41l0.46,-0.91l-2.43,-2.12l-0.47,-0.77l0.16,-2.05l-0.36,-0.51l1.48,-1.3l-0.46,-1.91l0.81,-0.57l1.13,0.75l0.91,-0.38l-0.08,-0.98l1.82,0.09l0.47,-0.97l1.06,0.59l0.43,1.04l1.9,0.73l1.79,-0.88"/><path d="M425.8,-53.2l1.02,-0.54l0.78,0.83l-0.7,0.76l-1.11,-0.06l0.01,-0.99"/><path d="M378.1,-53.8l-0.56,1.34l-0.88,0.34l-1.05,1.43l-1.56,0.21l-1.49,-1.2l0.66,-1.53l1.22,1.16l1.52,-1.39l0.91,0.58l0.06,-1.89l0.62,-1.06l0.29,-1.66l0.16,0.84l0.91,0.26l0.46,0.79l-1.52,1.29l0.25,0.49"/><path d="M433.5,-62.4l1.28,1.77l-0.74,0.55l-1.59,-0.64l-0.16,-1.32l1.21,-0.36"/><path d="M233.43,60.94l2.21,-0.33l4.78,0.41l1.51,-0.59l0.8,0.32l0.87,-1.21l-1.02,-1.44l-0.11,-1.28l-0.95,-1.41l0.91,-1.12l1.28,-0.9l1.53,0.01l0.32,-1.5l1.12,-0.3l0.94,-0.66l0.96,-0.12l-0.44,-1.05l0.06,-0.99l0.9,-0.3l0.94,-1.11l2.08,0.15l1.46,0.74l0.57,-0.33l1.88,-0.25l1.61,0.58l0.41,-1.14l0.6,-3.02l0.12,-1.62l1.77,-1.45l0.79,1.09l-0.21,0.6l1.33,0.39l0.81,-0.44l1.06,0.41l1.15,-0.18l0.3,0.85l1.64,1.06l0.47,0.7l1.23,0.87l1.83,0.03l1.81,0.98l0.45,-0.09l1.48,1.19l1.32,0.31"/><path d="M227.57,44.52l1.75,-0.11l0.37,1.56l-0.37,1.03l2.44,1.4l-1.01,1.35l0.2,0.34l1.91,0.73l0.94,2.03l0.72,2.1l-0.6,2.02l0.38,0.78l-1.38,2.4l-1.27,0.55l0.01,0.57l1.74,-0.27"/><path d="M195.92,5.06l0.59,0.31l2.32,-0.61l0.55,0.4l2.48,-0.08l0.47,-0.73l2.66,0.04l0.91,0.62l0.97,-0.82l0.83,0.06l0.81,0.91l1.79,0.3l0.59,-0.96l1.69,-0.81l1.77,0.38l1.01,-0.07l0.48,0.58l1.42,0.37l0.51,-0.62l1.92,-0.33l1.92,1.83l1.52,0.19l3.43,2.03l1.04,1.42l0.77,-0.2l2.06,0.85l1.39,0.14l0.68,1.24l1.03,0.84l0.39,0.97l0.98,0.51l0.82,-0.95l0.52,-1.29l1.61,-0.52l-0.03,-0.61l1.11,-0.95l2.2,-0.81l0.48,-0.6l1.52,-0.53l2.26,0.92l0.74,2.43l0.09,6.57l-0.6,2.8l-1.64,0.29l-1.29,-0.08l-0.11,1.21l-0.61,0.66l-1.54,-0.88l-0.71,0.83l1.24,1.2l-0.45,1.17l-1.82,0.17l-1.11,0.47l0.06,0.84l1,0.42l-0.13,0.65l-1.19,0.23l-0.43,0.54l0.1,1.6l-0.72,0.12l-0.74,-1.41l0.34,-1.62l-1.16,-0.09l0.4,1.15l-0.46,1.19l-0.92,0.4l0.24,0.67l-0.46,1.07l-1.28,0.48l-0.21,-1.25l-1.1,0.24l0.13,1.41l-0.49,0.57l-1.21,-0.44l-0.27,0.97l0.84,0.83l-0.28,1.11l-1.41,0.56l-0.71,0.71l-1.53,0.51l0.09,1.98l1.25,0.95l-0.1,1.31l0.38,1.88l-0.01,1.6"/><path d="M195.9,5l0.99,-2.09l-0.05,-0.93l1.45,-0.33l0.78,-0.56l3.55,-0.85l1.32,0.23l0.74,-0.27l0.63,-0.88l0.16,-1.35l0.85,-0.75l1.07,-0.26l1.14,-2.16l-0.96,-0.6l-1.44,1.22l-0.92,-1.05l0.29,-0.92l-1.53,-1l-1.91,1.32l-0.33,-1.28l-0.91,-0.42l0.39,-0.89l2.55,-0.77l1.04,0.21l2.08,-0.81l1.32,-1.92l-0.78,-1.02l0.27,-0.84l1.05,-0.54l0.79,0.33l0.91,-0.33l2.22,-1.68l0.26,-0.83l-0.28,-1.22l0.37,-0.46l2.08,1.44l0.62,0.81l-0.81,0.8l-0.41,1.2l0.69,1.83l1.48,0.62l2.85,0.23l-0.43,1.64l-0.83,-0.8l-1.06,0.74l2.1,1.68l1.36,-0.06l0.61,0.36l1.93,-0.94l0.17,-1.21l1.61,-0.07l1.71,0.44l1.26,-0.22l1.42,-1l0.77,0.29l0.44,1.02l0.75,-0.37l-0.85,-1.23l1.13,-0.32l0.94,-2.25l0.2,-1.62l1.31,0.15l0.13,-0.66l-1.68,-0.66l2.05,-1.01l0.9,-0.2l-0.89,-1.53l0.63,-0.43l-0.14,-0.99l-1.2,0.05l-1.5,0.64l-0.5,1.21l-3.01,0.7l-0.81,0.83l-0.13,1.17l-1.94,-0.42l-0.58,0.32l-0.88,-1.3l2.13,-0.21l2.1,-0.88l1.96,-1.15l1.28,-1.01l1.66,-1.88l0.5,-1.87l1.09,0.27l1.26,-0.85l1.34,-1.56l1.06,-2.63l0.2,-1.94l-0.97,-1.7l-1.08,0.42l-0.46,-1.21l0.55,-0.81l0.08,-1.11l1.38,-0.11l1.24,-1.94l0.38,-1.85l0.6,-0.93l2.34,-0.71l1.01,-0.75l0.67,-1.24l0.11,-1.75l3.34,-0.27l0.7,1.18l2.13,0.3l1.51,-0.11l2.36,-0.54l1.41,-0.63l1.94,-1.52l-0.11,-1.47l2.03,-1.32l0.5,-1.22l1.36,-0.51l1.64,0.13l2.22,0.68l1.3,-0.01v-1.6l1.61,-0.25l0.01,0.81l-0.87,0.81l1.52,0.81l0.22,-0.86l2.99,0.33l1.12,1.04l-0.43,2.5l-1.85,1.42l-1.2,0.54l-3.01,0.93l-0.38,0.51l4.74,-1.4l1.88,-1.42l0.67,-0.75l0.2,-2.04l2.02,-0.89l1,-0.19l4.62,4.67l1.59,-0.65l1.48,-1.41l1.43,-3.68l1.62,-1.12l0.06,-1.75l1.15,0.37l1.77,-0.32l1,-0.98l1.79,0.92l-0.17,1.34l0.27,1.12h-1.03l-0.02,1.39l-0.92,0.7l0.38,1.11l-0.08,1.36l-1.58,0.44l0.23,0.55l1.31,0.76l-0.42,1.91l-1.32,-0.94l0.21,1.53l0.95,0.05l-0.47,2.08l-0.56,0.03l-1.08,1.12l-0.09,0.86l-1.58,-0.56l-0.37,1.13l0.99,2.42l1.87,-0.09l2.65,-1.12l0.39,0.96l-1.12,0.64l-0.62,1.77l0.54,0.99l-0.92,1.01l0.48,0.67l1.24,-0.97l0.6,1.14l-1.69,1.29l0.75,1.6l1.1,-0.17l-0.44,1.28l0.62,0.46l0.95,3.05l0.88,1.61l0.89,0.25l1.36,2.13l0.54,1.62l1.31,1.29l0.36,1.36l1.04,1.08l0.68,1.21l0.79,-0.06l0.58,-1.48l0.9,0.5l2.08,0.11l1.7,1.05l1.7,-0.55l0.69,0.53"/><path d="M276.02,48.8l1.35,-0.61l0.83,-1l0.46,-1.11l0.51,-2.47l0.83,-0.66l-0.3,-1.39l0.12,-1.14l0.79,-0.25l0.18,-1.19l-2.38,-0.81l-2.72,-2.1l0.23,-0.76l2.08,-1.45l-0.71,-0.38l-1.96,-0.23l-0.66,-0.31l-0.16,-1.7l0.4,-0.77l1.66,-0.01l1.01,-0.6l0.85,0.17l-0.74,-1.7l0.06,-1.15l0.92,-0.86l-0.33,-1.54l-0.67,-1.62l-0.57,-2.17h-0.85l-0.68,-0.82l2.65,-2.28l0.06,-1.69l2.34,-0.3l-0.12,-1.23l0.71,-4.85l0.59,-1.03l-0.27,-0.91l1.56,-0.44l1.58,-0.94l0.35,-1.08l1.26,-2.27l1.92,-0.96l1.52,-1.62l0.98,-0.03l1.48,-0.58l1.38,0.38l2.05,-1.2l1.76,1.34l0.98,-0.28l1.66,0.58l2.58,-0.29l1.35,0.68l1.12,-0.04l3.3,-0.72l0.49,-0.92l-0.14,-1.51l1.01,-0.68l1.01,-1.16l0.37,-1.68l-0.44,-1.18l-1.02,-0.82l-0.36,-0.9l0.6,-1.75l-0.05,-0.96l0.77,-1.45"/><path d="M222.7,-11.6l-0.95,0.01l-0.27,-1.11l0.67,-2.46l1.18,1.85l0.03,0.84l-0.66,0.87"/><path d="M231.5,-18.3l2.09,-1.28l0.5,-0.01l0.72,1.22l-2.66,1.07l-0.65,-1"/><path d="M221.9,-17.8l-0.89,-1.3l0.04,-1.65l0.94,-0.56l1.05,1.32l0.65,2.05l-1.79,0.14"/><path d="M214.4,-21.5l0.48,-0.38l0.87,0.57l-0.49,0.85l-0.86,-1.04"/><path d="M294.5,-41.4l1.09,-0.01l0.64,4.28l-0.96,0.16l-0.77,-4.43"/><path d="M234.9,-45l-1.72,-0.6l-0.59,-0.71l0.19,-1.48l3.17,-0.6l0.83,0.35l-1.53,1.94l-0.35,1.1"/><path d="M240.9,-48.3l0.77,0.16l0.98,1.35l-1.08,0.21l-0.67,-1.72"/><path d="M274.2,-50.3l-3.81,-0.55l-0.68,-1.34h2.23l0.92,-0.32l0.54,0.64l1.8,-0.77l1.27,1.28l-2.27,1.06"/><path d="M212.38,66.36l2.08,-0.6l-0.17,-1.38l-1.26,-1.47l-0.93,-0.66l-0.51,0.36l-1.28,-2.9l-0.39,-1.99l-0.75,-0.7l-0.15,-1.62l-2.01,-2.17l-0.7,-1.46l0.28,-0.8l-1,-1.1l-0.7,-1.99l0.41,-0.57l1.7,0.51l1.9,-2.05l2.35,-1.42l-0.22,-0.53l3.21,-2.26l1,-2.18l0.12,-1.31l1.8,0.48l0.86,1.22l1.86,1.33l0.71,0.85l-0.17,0.68l0.45,1.12l1.87,0.08l4.86,0.67"/><path d="M212.4,66.3l-3.05,-0.6l-2.34,-0.07l-0.56,-1.06l-1.32,0.4l-2.79,-0.77l-1.41,0.09l-1.29,-1.62l-1.48,0.21l-1.41,-1.87l-1.91,-1.3l-0.06,-0.94l-1.24,0.34l-1.39,-0.98l-0.66,-1.37l-0.038,-1.29l-1.083,-1.05l-1.926,-0.9l-0.928,-0.2l-1.592,-0.97l-0.576,-1.7l-1.071,-0.25l0.291,-1.84l1.546,-0.83l1.056,0.34l0.54,-0.98l-0.041,-1.25l-0.743,-0.65l-1.023,-3.74l-3.268,0.87l-2.696,-0.47l-0.961,-0.84l-1.16,-0.22l-0.429,-0.64l-1.615,0.25l-2.018,-1.23l-0.016,-0.93l-1.009,-2.26l0.617,-1.2l-0.316,-1.09l0.553,-1.05l-3.534,-3.35l-0.763,-1.57l-1.35,-1.27l1.014,-3.37l0.747,-1.65l1.423,-0.9"/><path d="M171.08,20.6l1.201,1l1.061,2.06l0.441,-0.02l1.344,2.2l1.115,1.17l0.418,-1.69l-1.553,-0.4l1.073,-2.29l-0.846,-0.66l-0.287,-0.83l1.735,-0.92l-0.385,-0.61l0.707,-1.28l-0.176,-0.68l0.985,-0.57l0.563,-1.84l0.706,-1.02l-0.775,-2.04l-0.41,0.49l-1.272,0.1l-1.411,-0.99l-1.102,-0.05l0.286,-1.15l-0.958,-0.36l-0.378,-0.97l-2.02,-0.87l-0.814,-0.99l0.719,-1.01l1.033,0.52l-0.703,-2.1l0.616,-0.28l0.649,-1.33l2.018,0.76l-0.058,1.31l1.134,0.5l-0.243,1.61l0.833,0.71l1.342,-1.64l0.053,-0.75l-0.907,-1.28l-0.518,0.53l-0.847,-0.59l0.999,-0.59l-0.775,-0.75l0.363,-0.9l-1.073,-1.26l0.348,-0.8l-0.237,-0.95l1.808,0.5l0.762,-2.11l-0.838,-0.56l-0.078,-1.15l2.595,1.36l0.868,0.22l0.418,-0.88l1.155,-0.91l1.16,-0.02l0.489,0.84l1.649,-0.34l-0.112,1.01l1.643,1.01l0.681,-0.16l0.431,1.46l1.223,0.73l-1.096,0.67l-1.437,1.54l0.167,0.99l-0.821,0.38l1.029,1.1l1.751,-1.29l0.593,0.92l-1.118,0.81l1.076,1.68l1.481,0.3l1.337,0.65l2.769,-0.1l1.17,-0.66l-0.28,-1.51l0.35,-0.51"/><path d="M189.4,-2l-0.936,-0.05l0.912,-1.73l0.425,0.61l-0.401,1.17"/><path d="M181.05,-4.8l-0.94,0.92l-0.718,-1.79l0.801,-0.99l0.766,0.93l0.091,0.93"/><path d="M168.29,-6.2l-0.757,-0.02l-1.516,-1.08l0.73,-1.16l0.646,0.57l0.67,-0.58l0.802,0.07l0.435,1.21l-1.01,0.99"/><path d="M176.81,-10.5l1.481,-2.2l-0.347,1.72l0.534,1.85l-1.668,-1.37"/><path d="M27.83,179.4l-0.815,0.73l-0.638,-0.81l1.28,-0.47l0.173,0.55"/><path d="M32.53,175.4l-1.39,-0.96l0.264,-1.04l1.277,0.64l-0.151,1.36"/><path d="M81.63,113.5l-0.477,-0.76l1.399,-0.47l0.009,1.07l-0.931,0.16"/><path d="M76.13,108.6l-0.045,0.72l-1.23,-0.18l0.294,-0.98l0.981,0.44"/><path d="M54.85,99.7l0.612,-0.38l0.601,0.84l-0.948,1.05l0.448,2.03l-1.318,1.09l-0.722,-2.07l1.327,-2.56"/><path d="M75.95,94l0.129,1.85l1.006,1.01l-0.364,0.49l3.561,3.2l0.38,1.64l1.073,0.59l-0.406,0.77l-1.082,0.57l-1.179,-0.49l-2.583,0.37l-1.896,0.59l-0.768,-0.35l-0.254,-0.9l-0.931,-1.11l-2.003,0.79l-0.477,0.5l-1.15,-0.01l-0.415,0.73l0.334,2.41l1.955,1.48l0.435,1.71l-1.094,0.46l-0.936,1.55l-1.999,-0.59l-0.133,-1.35l-1.479,-1.92l-2.088,0.34l-1.022,-0.14l-1.728,0.33l-0.998,-0.58l-1.278,-0.12l-1.044,1.04l-1.446,0.84l-1.054,-1.48l-1.183,-0.64l-2.012,-0.26l1.1,-1.91l-0.233,-0.95l0.82,-1.05l0.407,1.76l2.061,2.48l0.767,0.37l0.835,-0.72l-0.522,-0.87l-1.336,-0.65l-0.081,-1.06l0.877,-0.95l0.022,-1.03l1.963,0.45l-0.643,-1.45l0.781,-0.05l-1.756,-4.36l0.239,-0.7l0.885,-0.13l-0.009,-0.84l-1.328,-1.08l-0.162,-0.54l0.697,-2.63l-0.555,-0.58l0.053,-2.1l0.863,-1.24l1.027,-0.17l1.573,0.24l0.323,1.15l1.239,0.34l0.109,2.18l-0.636,0.89l1.477,0.24l0.629,-1.03l1.295,-1.01l0.928,0.92l1.648,-1.41l1.673,0.79l0.149,2.16l0.794,-0.49l-0.286,-1.34l-0.985,-1.2l1.409,-2.07l1.316,0.11l-0.013,-1.44l1.259,-0.4l0.383,-0.67l0.07,2.86l0.99,0.89l-0.49,1.89l2.959,0.36l0.004,1.15l-0.46,1.57"/><path d="M82.57,96.3l-0.73,0.86l-0.487,-0.93l0.471,-0.73l0.746,0.8"/><path d="M51.05,93.7l1.554,-1.6l0.118,1.06l-0.69,0.31l0.31,1.26l-0.502,0.89l-0.764,-0.26l-0.026,-1.66"/><path d="M88.29,90.9l1.636,-1.14l1.007,0.04l-0.353,-1.69l0.719,-1.99l0.588,0.53l0.852,1.96l-0.309,2.33l-1.932,0.21l-1.212,0.6l-0.996,-0.85"/><path d="M87.79,87.8l0.938,1.02l-0.213,0.83l-0.969,-0.31l-0.209,-1l0.453,-0.54"/><path d="M81.36,86.8l-0.764,1.08l-0.299,1.34l-1.695,0.15l-0.601,-0.37l-1.029,-1.47l-0.804,-0.25l-0.688,-1.81l0.449,-2.1l-0.176,-1.92l1.994,-0.77l0.715,0.73l-0.267,1.37l0.412,1.27l1.119,0.7l0.112,-1.85l-0.847,-0.24l-0.387,-0.79l-0.212,-2.17l1.937,1.29l0.254,1.06l1.476,0.4l0.363,3.02l-0.179,0.93l-0.883,0.4"/><path d="M86.12,82.1l0.74,1.3l-0.337,1.34l-0.49,0.33l-0.183,-2.76l-0.863,-0.55l-1.11,-1.86l-2.891,-1.55l-0.827,0.37l-0.204,-1.75l1.467,-1.28l0.535,0.92l1.679,0.08l1.043,2.02l0.503,-0.89l1.027,0.12l0.714,-1.56l-0.76,-1.43l0.693,0.4l0.986,1.46l0.463,2.32l-0.877,1.87l-0.92,0.15l-0.388,0.95"/><path d="M94.34,72.7l0.96,1.03l-0.592,1.15l0.201,1.85l-0.504,0.7l0.618,1.26l-1.016,0.82l-0.83,-1.56l-1.007,-0.63l-1.592,-0.18l-1.189,-1.11l-1.288,-2.8l1.049,-0.5l0.236,0.91l1.669,0.18l-1,-1.51l0.688,-0.33l-0.062,-1.24l0.313,-1.53l0.82,0.64l0.245,0.88l1.035,-0.68l1.283,1.63l-0.037,1.02"/><path d="M87.6,71.2l-0.18,-0.01l-0.681,1.23l-0.875,-0.45l-0.843,-1.2l0.843,-0.64l0.868,0.01l0.1,0.66l0.411,0.07l0.174,0.31l0.221,0.01l0.074,-0.12l0.016,-0.28l0.105,-0.33l-0.105,-0.49l0.583,-0.74l0.602,0.33l-0.415,1.35l-0.514,0.26l-0.257,-0.02l-0.026,0.21l-0.101,-0.16"/><path d="M91.48,66.9l-1.433,0.04l0.962,-1.62l0.69,0.48l-0.219,1.1"/><path d="M99.34,38.8l-0.509,-0.72l-0.821,0.17l-0.536,0.93l-0.862,0.01l0.078,-1.34l-1.447,0.08l-0.402,-0.7l2.855,-2.27l-0.332,0.72l1.259,0.71l1.396,-0.23l0.273,1.71l-0.952,0.93"/><path d="M93.26,37.3l0.377,-1.38l0.727,-0.1l0.04,1.5l-1.144,-0.02"/><path d="M104.08,48.5l-0.369,2.56l-0.378,0.06l-0.472,2l-1.027,1.86l-0.037,1.31l-0.672,0.34l0.636,1.66l-0.815,0.82l0.658,2.21l-0.491,1.23l0.653,1.04l0.844,-0.58l1.687,-0.04l0.868,-0.63l0.504,-1l1.087,-0.45l1.064,0.32l0.433,-0.82l1.347,-0.03l0.157,1.89l0.47,2.38l-3.387,1.84l-0.645,2.11l-2.372,-0.01l-0.682,-0.33l-0.21,1.74l-0.611,-0.15l-1.16,0.7l0.433,0.49l-0.229,1.67l-0.904,-0.01l-0.18,1.16l0.949,0.64l-0.506,1.02l0.707,0.4l0.589,1.99l-0.583,0.63l-1.671,-0.8l-1.2,0.69l-0.446,1.3l0.787,1.58l-0.565,1.75l-1.42,-0.31l-0.262,-1.14l0.074,-2.84l-0.307,-0.72l0.295,-1.12l-0.482,-0.86l0.397,-0.98l1.032,-0.83l-1.644,-0.63l0.157,-1.16l1.912,1.13l0.041,-1.46l-0.899,-0.22l-0.343,-1l-0.806,-0.43l-0.73,0.48l-0.708,-0.46l1.428,-1.1l-0.246,-1l-1.247,0.68l-0.885,-0.61l-1.019,-0.12l-0.168,-1.25l-0.748,-1.87l1.261,-0.61l1.35,-0.21l0.916,0.74l0.726,-1.12l1.102,0.45l0.024,-1.35l-0.859,-0.79l0.7,-0.57l-0.865,-0.93l0.109,-2.9l1.59,-1.55l0.776,0.1l0.427,2.45l1.579,-0.39l-0.675,-1.38l0.126,-1.93l0.506,-3l1.601,-0.55l0.616,-0.99l0.023,-1.72l-0.36,-1.1l-1.011,-1.12l0.481,-0.43l0.298,-2.11l0.472,-0.77l0.039,-1.1l0.582,-0.71l0.47,0.92l-0.623,0.76l0.254,0.95l-0.702,1.83l-0.379,0.25l1.763,2.16"/><path d="M115.26,61.1l0.033,-1.22l1.435,-1.45l-0.085,0.74l0.663,1.1l0.147,0.94l-0.859,0.75l-1.334,-0.86"/><path d="M126.1,60.4l0.172,-1.02l1.038,-0.62l0.411,2.01l-1.621,-0.37"/><path d="M111.06,60.5l-0.877,-0.91l0.713,-0.7l0.76,0.65l-0.596,0.96"/><path d="M144.5,45l-0.147,-1.1l2.036,-0.75l0.69,0.91l-0.084,0.93l-1.019,-0.16l-0.364,0.8l-1.112,-0.63"/><path d="M104.43,41.8l-0.468,-1.97l0.486,-1.02l-0.955,-2.41l0.784,-0.69l1.214,2.03l0.862,0.51l-1.216,0.85l0.321,1.36l-0.184,1.82l-0.844,-0.48"/><path d="M98.18,31.7l-0.338,-1.21l0.815,-0.67l0.869,1.77l-1.346,0.11"/><path d="M105.8,29.9l-0.792,0.1l-0.02,1.46l-1.176,0.43l-2.358,-0.75l-0.76,-1.35l-1.095,-0.26l-0.619,-0.7l1.369,-0.81l0.491,-0.83l1.942,-0.63l1.349,0.04l0.736,-1.51l0.726,0.18l0.633,2.08l-0.221,0.56l0.973,1.06l-1.178,0.93"/><path d="M146.6,19.6l0.065,0.86l-0.997,1.03l-1.621,0.41l0.19,1.09l0.93,1.22l-0.777,0.94l-0.592,-0.22l-1.37,0.49l0.803,1.25l-1.678,0.86l0.911,1.6l-0.338,1.2l-1.342,0.96l-0.293,1.17l-1.242,1.35l-0.895,1.95l-0.664,-0.12l-1.268,1.35l-1.021,1.5l-1.872,1.01l-1.025,0.2l-0.752,0.69l-2.236,0.76l-2.383,-1.69l0.765,-1.1l-0.737,-1.19l0.55,-0.62l1.591,2.7l1.414,0.02l0.894,0.35l0.671,-0.4l0.309,-1.54l-1.279,0.09l-1.267,-1.32l-0.016,-1.9l0.998,-0.77l0.442,-0.9l1.371,-0.27l1.3,0.79l1.049,-0.65l-0.928,-1.14l-1.256,-0.48l0.2,-0.96l-0.815,-0.59l0.548,-1.33l1.164,-0.22l0.214,-1.26l2.378,-0.96l-1.438,-2.08l1.096,-2.03l-0.648,-1.58l0.429,-0.77l1.237,0.27l1.563,-0.66l0.857,0.33l0.609,-0.52l1.796,-0.17l0.453,-1.11l0.118,-1.52l1.063,0.03l0.015,1.72l-0.447,0.79l0.862,0.5l0.263,-1.05l0.662,-0.77l-0.18,-0.86l1.693,-0.04l0.494,-0.5l-0.71,-1.09l-1.83,-0.3l-0.664,-1.05l0.949,-0.43l0.552,0.35l0.793,-0.83l1.177,-0.1l0.138,1.52l0.699,1.77l-0.555,0.97l0.321,1.17l0.63,0.66l-2.09,1.17"/><path d="M135.07,16.5l0.653,1.06l-0.562,0.56l0.342,0.76l-1.505,0.43l-1.912,-0.9l0.761,-1.94l0.479,-1.96l-0.083,-0.81l0.917,-1.25l0.186,-1.49l-0.292,-1.31l1.401,-1.06l-0.128,2.63l-0.494,1.13l0.696,0.66l0.142,0.89l-0.549,1.33l-0.052,1.27"/><path d="M144.14,8.6l0.916,-1.68l0.909,1.04l-0.733,0.9l-2.748,1.25l0.2,-0.89l1.456,-0.62"/><path d="M148.22,4.7l-0.84,0.44l-1.905,-0.63l-0.73,-1.21l-0.898,0.14l0.004,1.43l-1.11,-0.29l0.208,-1.05l1.737,-1.6l0.085,-0.39l2.874,-1.36l-0.259,2.58l0.75,0.19l0.915,-1.21l0.982,0.08l-0.539,1.61l-1.274,1.27"/><path d="M115.15,-94l1.83,-1.59l0.827,-0.32l0.805,0.4l0.829,-0.66l-0.169,-1.08l1.277,-0.19l0.73,1.13l1.219,0.27l-0.156,1.6l-0.472,1.08l0.368,0.54l1.186,-0.21l0.239,-1.81l0.647,0.62l1.536,-0.67l0.999,0.86l-0.231,0.7l0.692,1.09l-2.212,0.21l-1.124,1.96l-0.437,1.95l1.057,2.07l-2.564,1.78l-0.009,1.47l-0.831,1.1l0.517,2.15l-0.103,1.3l-1.017,-0.47l-0.534,1.45l0.384,1.06l-0.685,0.47l0.303,0.81l-1.622,0.98l-0.204,1.18l-0.854,0.82l-1.534,0.65l-0.897,0.72l-1.089,0.36l-0.809,-1.47l-1.366,0.16l-0.067,-0.83l-0.878,-0.37l-1.007,0.34l-0.556,-0.54l-0.394,-1.5l-0.017,-1.37l0.699,-0.99l-0.052,-2.19l0.487,-1.5l0.072,-4.76l0.234,-0.96l0.943,-0.81l-0.64,-1.41l1.061,-2.74l0.224,-1.65l-0.283,-0.48l0.384,-1.96l-0.25,-1.31l0.907,-2.22l0.579,0.55l1.065,-0.38l0.59,0.72l-0.124,1.97l-0.423,1.1l0.92,0.82"/><path d="M127.08,-92.9l-0.001,-1.16l0.577,-0.63l1.286,-0.57l1.367,-0.17l1.039,0.5l-0.948,1.69l-1.583,0.95l-0.848,0.92l-0.889,-1.53"/><path d="M123.42,-97.3l-1.854,-0.49l-0.389,-0.54l0.578,-1.12l1.56,1.28l1.345,-1.18l0.057,1.73l0.632,1.56l-1.003,0.03l-0.926,-1.27"/><path d="M131.69,-102.2l0.908,1.23l0.167,1.41l-1.247,0.11l-0.609,-0.36l0.277,-1.66l0.504,-0.73"/><path d="M140.28,-140.5l0.636,1.45l-1.114,0.95l-0.196,1.38l1.505,-0.03l-0.959,2.12l-0.109,0.93l-2.073,0.38l-1.321,-0.84l0.363,1.9l1.963,0.37l0.983,1.4l-1.05,3.01l0.257,0.88l-0.305,1.29l-0.987,-0.27l0.22,1.44l-0.949,2.08l-1.438,1.94l-2.583,2.32l-2.378,3.01l-0.119,0.76l-1.228,1.17l1.102,2.25l-1.934,-0.41l0.174,1.56l0.816,-0.76l0.298,1.51l-1.912,2.67l1.001,-0.16l0.672,-0.69l1.66,0.08l0.075,0.65l-1.309,0.55l-0.334,1.1l0.853,1.61l0.781,0.68l-0.591,1.14l0.064,1.17l0.57,0.79l-0.891,0.46l-0.395,-0.73l-1.187,0.21l0.887,1.22l0.07,0.87l-2.594,2.66l-1.577,-1.5l-0.353,-1.39l0.512,-0.54l0.937,0.06l-0.334,-1.66l0.834,-0.86l-0.953,-1.59l0.561,-0.8l-1.989,-0.46l-0.594,0.26l0.276,1.35l-0.814,0.61l-0.73,1.21l-0.861,-0.5l-0.216,-0.74l0.82,-0.46l-0.87,-2.03l1.401,-1.66l-0.411,-0.25l-1.912,1.8l-0.65,1.44l0.854,0.07l-0.062,1.65l-1.295,-0.24l-0.2,-0.92h-1.67l-0.864,0.37l-1.736,-0.2l-0.567,-1.25l1.088,-0.45l0.607,0.89l0.647,-0.67l1.145,-0.32l1.404,-1.87l-0.502,-0.85l0.254,-1.71l-0.386,-2.78l0.171,-1.06l0.601,-0.95l0.961,-0.62l-1.406,-0.9l-0.073,-1.14l0.831,-1.83l0.592,-0.26l0.889,-1.88l0.032,-0.96l1.112,-2.21l2.821,-0.79l-0.845,-0.78l0.13,-0.66l-0.865,-0.56l-1.285,-2.35l-1.22,1.35l-0.639,-0.01l-0.186,-1.6l0.918,-0.68l0.288,-1.18l0.825,-1.49l-0.237,-0.71l0.829,-1.39l0.477,-1.59l0.183,-2.42l0.801,-0.4l1.442,0.62l1.637,-0.48l0.692,1.3l0.884,-1.01l0.455,0.53l1.423,-1.65l1.523,-2.69l1.06,-1.18l-0.04,-0.93l1.414,0.46l0.866,-0.55l0.812,-1.24l0.627,1.51l0.999,-0.22l0.662,0.98l0.219,1.09l0.832,0.45"/><path d="M171.07,113.1l-0.115,0.97l-1.655,0.27l0.237,-1.41l1.123,-0.62l0.41,0.79"/><path d="M169.98,98.1l-0.809,-1.23l0.914,-0.23l0.487,1.16l-0.592,0.3"/><path d="M190.07,89.8l-0.277,0.88l-1.059,-0.15l-0.188,-0.98l1.524,0.25"/><path d="M151.95,75.5l-0.698,-0.59l0.963,-0.72l0.331,0.73l-0.596,0.58"/><path d="M183.83,72.7l-1.193,-1.48l-0.454,-1.55l2.399,1.9l-0.752,1.13"/><path d="M153.65,71.1l-1.131,-0.12l-0.609,-0.54l-0.602,-1.34l0.042,-1.13l0.501,-0.5l0.654,1.06l0.776,-0.49l1.105,0.67l0.19,1.19l-0.926,1.2"/><path d="M212.4,66.3l-0.39,2.24l0.22,1.1l-1.49,0.54l-0.36,1.32l-1,-0.33l-0.89,1.11l-0.82,0.17l-0.1,1.43l2.88,4.27l1.11,1.14l1.47,-0.91l1.48,-0.55l1.06,-1.28l0.85,-0.53l1.73,0.48l2.79,-0.65l0.82,-0.52l0.72,0.22l0.69,1.07l2.15,1.13l0.82,0.69l0.5,1.83l1.55,2.9l0.45,1.42l1.13,1.75l0.14,1.2l-0.81,1.73l0.67,2.03l-0.08,0.85l-3.07,3.79l0.3,0.79l0.88,0.75l-0.33,1.48l-0.59,1l-1.23,0.45l-0.84,0.81l-2.72,1.46l-2.7,-0.32l-1.41,1.41l0.01,0.94l-1.18,1.02l-0.96,-0.1l-1.19,1.91l-0.81,0.6l-2.26,0.15l-1.44,1.35l-1.14,0.22l-0.4,-0.85l0.94,-1.09l-0.54,-1.44l-1.24,-0.51l-0.84,-1.13l-1.93,-0.91l-0.22,-1.12l0.52,-3.71l2.18,-0.17l0.57,-1.32l1.23,-1.03l1.4,-0.6l0.52,-0.99l0.74,-0.2l0.92,-1.85l0.19,-1.19l-0.23,-1.12l-1.28,-0.33l-0.89,-2.34l0.7,-0.92l-1.4,-1.38l-2.4,0.11l-1.09,-0.29l-0.9,0.75l-1.09,0.23l-1.99,-0.65l-2.09,-0.14l-2.88,1.72l-1.39,1.51l-0.9,0.21l-0.78,0.85l-1.89,0.06l-0.623,-0.48l-1.08,0.36l-2.216,-0.74h-0.757l-1.107,0.74l0.928,2.07l-0.302,0.53l-1.29,0.62l0.243,0.69l-1.668,1.07l-0.08,1.05l-1.253,-0.5l-0.157,1.14l0.427,0.46l-0.542,1.43l-0.845,0.84l-0.582,2.03l-1.237,1.22l-1.167,0.22l-0.62,0.83l-1.949,0.68l-0.874,-0.26l-0.262,0.95l0.285,1.32l-0.751,0.95l-1.926,1.78l-0.654,0.86l-1.997,0.96l-0.488,0.59l-1.139,-0.63l-1.269,0.26l-0.298,0.73l-1.528,0.01l1.217,-2.06l1.77,-0.35l2.338,-2.36l0.129,-1.89l0.965,-1.14l0.827,-1.86l0.711,0.18l-0.028,-2.15l0.305,-1.55l-1.352,0.53l-1.083,-0.42l-0.109,-1.03l1.674,0.04l0.675,-1.59l1.135,-0.09l-0.316,1.36l1.446,-0.25l0.744,-0.98l0.402,-1.76l1.668,-2.03l-0.963,-0.47l-0.226,1.24l-0.915,0.6l-0.188,0.74l-1.223,-0.57l-0.588,0.86l-0.802,-0.65l1.201,-1.71l-0.805,-0.99l-1.451,0.42l-0.151,-1.43l-1.084,-1.27l0.46,-1.46l-0.998,-0.22l-0.138,-0.97l-0.679,-0.08l-0.842,-1.24l-0.831,-0.23l0.923,-1.98l-1.305,-0.77l-0.502,0.54l-1.148,-0.38l-0.655,1.81l-0.761,-1.05l-1.215,-0.8l-0.126,-1.31l-1.827,-0.01l0.097,-0.72l-0.814,-0.44l-0.761,-1.07l-0.805,-1.74l0.268,-1.51l-0.562,-0.59l-0.743,-1.65l-0.568,-2.06l-0.619,-0.63l-0.285,-1.2l-1.779,-0.63l0.352,-1.2l-1.121,-0.52l0.292,-1.22l-0.191,-2.15l0.542,-1l1.25,-0.46l0.634,0.55l0.326,-1.85l-0.783,-2.24l0.273,-2.47l0.918,0.19l0.294,-2.5l0.75,-0.76l0.106,-1.19l0.529,-0.97l-0.301,-0.92l0.892,-0.72l2.193,1.54l0.7,-0.04l0.976,1.18l0.905,0.17l0.614,1.28l-0.579,0.79l-0.313,1.29l0.805,-0.07l0.72,-1.11l1.777,0.62l0.159,0.7l-1.235,0.98l-0.869,1.22l-0.5,1.88l0.505,0.95l-0.494,0.68l0.513,0.76l0.857,-0.36l0.384,-1.63l0.867,-0.91l1.744,0.33l0.241,0.69l1.492,-0.19l1.463,1.13l-0.021,0.82l1.169,1.32l-0.433,1.56l-1.003,0.43l1.014,2.11l-0.555,3.18l-0.599,0.49l-0.851,-0.66l-0.284,-2.04l0.02,-1.51l-1.07,0.58l-0.073,2.03l0.875,1.86l1.199,0.79l0.152,2.48l-0.665,0.64l-0.976,-0.32l-0.226,1.3h0.767l0.415,1.14l1.188,-0.14l3.213,2.66l0.811,-0.56l1.524,0.1l0.585,-1.44l0.647,-0.59l-0.083,-1.3l1.08,0.01l1.437,-0.44l0.853,1.39l0.566,-0.28l1.597,1.33l1.363,-0.55l1.043,0.82l-0.024,1.02l1.267,-0.36l1.039,1.1l1.325,-0.17l-0.455,-2.08l-0.972,-0.95l-1.706,-1.03l0.199,-1.04l-1.139,-1.68l0.048,-0.75l-2.273,-2.4l-0.221,-2.33l0.319,-2.53l0.366,-1.14l0.645,0.1l0.784,-1.26l-0.565,-1.6l0.132,-1.95l-1.688,-1.51l-2.458,-1.38l-0.483,-1.33l-2.455,-1.78l-0.58,0.47l-1.453,-0.11l-0.659,1.02l-0.855,-0.31l-0.635,1.83l-1.062,0.54l-0.137,-1.94l1.341,-0.4l-0.647,-0.76l-1.389,-0.16l-1.065,-0.46l0.167,-0.9l-1.045,-1.02l0.155,-0.96l-0.834,-1.31l0.814,-0.99l-0.257,-1.67l0.442,-0.76l-0.393,-0.82l-0.893,-0.59l-3.146,-0.18l-1.37,1.51l-0.44,-0.5l-1.411,-0.13l-0.039,-1.99l0.276,-1.21l-1.025,-0.3l-1.189,0.42l0.349,0.88l0.121,1.73l0.308,0.36l0.232,2.47l-1.403,0.56l-0.783,-0.28l-1.578,0.46l-1.278,-0.12l-0.009,-1.52l1.804,-0.62l1.301,-1.18l-0.71,-0.49l-0.765,-1.18l0.152,-0.56l-0.827,-0.97l-2.016,-0.79l0.206,-0.9l-0.119,-1.72l-1.702,-0.04l-0.831,0.74l-1.238,-1.58l-0.875,-0.09l-0.513,-1.02l-1.619,-0.45l-1.917,-0.23l0.2,-2.34l-1.054,-0.45l0.852,-0.7l0.487,-2.49l1.971,-0.45l0.028,-1.54l-0.371,-1.11l0.958,-0.44l-0.354,-0.8l-1.639,-0.54l-1.33,-1.93l0.15,-0.99l0.852,0.23l-0.041,-1.77l0.571,-2.01l-0.841,-0.98l0.917,-1.08l1.025,0.24l0.683,0.96l1.044,0.18l0.644,-0.63l1.203,1.03l1.166,-0.35l1.004,0.39l2.204,-2.59l-0.241,-0.95l0.74,-0.59l0.53,1.1l-0.227,0.65l-0.153,2.76l0.348,1.03l0.91,-0.18l-0.006,-0.83l1.017,0.02l-0.031,0.89l0.901,0.89l1.653,-0.5l0.922,-1.25l1.401,-0.71l0.919,0.11l0.844,1.41l0.805,-0.02l0.488,-0.95l0.053,-1.14l1.213,0.04l0.031,1.65l0.412,0.6l-0.229,1.49"/><path d="M147.71,60.2l1.039,-0.7l-0.749,-1.4l0.187,-0.48l2.163,0.34l0.683,0.69l-0.673,1.07l-1.213,0.41l-0.898,1.02l-0.539,-0.95"/><path d="M153.3,57.2l-0.465,1.25l-0.874,0.01l-1.215,-0.51l-0.036,-0.93l0.466,-1.31l1.284,-1.21l0.414,-1.02l1.437,0.66l1.366,-0.29l-0.216,1.36l-0.982,2.12l-1.179,-0.13"/><path d="M171.33,51.4l-0.957,0.5l-1.078,0.06l-0.175,1.44l-0.616,1.47l-0.977,-0.2l0.025,-1.1l-1.262,0.31l-0.342,-2.03l-1.063,-2.55l0.234,-0.4l1.54,0.59l0.481,-1.21l-0.848,-0.76l0.414,-1.24l1.028,0.63l0.068,-1.75l1.024,-1.04l2.562,0.7l-0.141,1.3l0.119,1.89l-0.713,0.81l0.864,1.54l-0.187,1.04"/><path d="M151.08,38.1l0.318,0.27l-0.026,1.96l-0.436,0.28l-1.001,-1.14l0.197,-1.2l0.948,-0.17"/><path d="M175.39,15.4l1.726,-0.24l0.752,1.23l-2.319,1.55l-1.305,0.2l-1.24,0.56l-0.649,-0.71l0.736,-0.88l-0.335,-2.86l0.597,-0.68l-1.755,-1.58l0.098,-0.29l0.393,0.42l1.883,0.05l1.037,0.47l0.354,0.83l-0.483,1.01l0.51,0.92"/><path d="M168.4,9.9l-1.883,2.58l-1.395,0.15l-0.486,-0.96l-0.763,-0.52l1.465,-1.08l0.944,-0.08l-0.366,-1.12l1.079,-0.73l0.469,-1.31l-0.418,-1.51l0.445,-0.37l1.631,1.21l0.245,0.67l-0.265,1.42l1.929,1.55l-0.016,0.48l-2.615,-0.38"/><path d="M155.04,-26.5l-0.236,-1.06l0.857,-0.42l0.42,0.74l-1.041,0.74"/><path d="M168.49,-38.7l-0.067,1.75l-0.861,1.59l1.477,1.23l0.788,0.16l0.624,1.07l-1.98,0.15l-0.602,1.3l0.728,0.79l0.613,-0.65l1.499,0.43l0.693,1.61l-0.611,0.09l-0.181,1.31l-0.739,0.45l-1.63,0.23l-0.935,-0.21l-1.458,0.26l-0.599,0.63l-0.586,1.38l-0.797,0.57l-0.348,1.15l-1.858,-0.63l-0.507,-0.85l-1.493,-1.08l0.8,-1.21l-0.192,-0.72l-1.136,-1.22l-0.402,0.75l-1.357,0.19l-0.646,-0.77l0.369,-1.04l-0.826,-0.74l0.349,-0.64l2.74,0.62l-0.063,-0.92h-1.282l-0.441,-0.63l0.353,-2.66l-0.503,-1.16l2.298,0.93h0.652l-1.327,-2.59l0.097,-1.4l0.496,-0.88l2.788,-2.18l0.711,1.01l0.976,-0.07l0.318,0.62l2.933,0.4l1.944,0.6l-0.819,0.98"/><path d="M196.9,160l-0.38,1l-1.26,-1.92l-0.82,0.6l-0.87,-0.19l0.43,-1.71l0.96,-0.55l1.07,1.2l-0.36,0.52l1.23,1.05"/><path d="M205.4,147.7l0.75,-0.66l0.73,0.38l-0.2,1.1l-1.17,0.29l-0.11,-1.11"/><path d="M226.5,142.9l-1.41,0.73l-1.43,-0.61l0.52,-0.71l1.21,-0.02l-0.4,-1.88l0.75,-0.49l0.73,-1.34l1.07,-0.39l1.88,1.08l-1.02,0.93l-0.38,1.07l-1.52,1.63"/><path d="M225,138.7l-0.82,0.88l-0.53,-0.95l-1.42,-0.27l-0.23,-1l1.14,0.16l0.36,-1.21l0.55,0.6l2.05,1.35l-1.1,0.44"/><path d="M227.1,135.9l0.41,0.96l-0.57,0.37l-0.78,-0.7l0.94,-0.63"/><path d="M211.8,120.1l-0.55,1.02l1.34,2.06l-0.08,1.73l-0.81,0.67l0.61,0.56l0.18,1.47l0.45,1.25l0.05,1.99l-1.21,1.01l0.36,1.59l0.77,-0.46l1.03,0.41l0.38,0.78l-0.65,0.68l0.88,1.34l-0.7,0.48l-1.13,2.16l0.1,1.38l-0.48,0.25l-1.78,2.24l-1.29,0.4l-0.46,-0.75l0.02,-1.1l0.88,-1.1l-0.22,-0.47l-1.62,1.81l-0.18,1.23l-0.91,0.2l0.02,1.19l1.55,0.05l0.3,0.67l-1.72,1.52l-1.56,-0.61l-1.1,1.16l-1.98,3.47l-0.24,2.05l-1.09,0.41l-0.74,-0.23l-0.98,0.63l0.83,0.76l-0.73,0.84l-1.52,0.01l-1.36,1.12l-0.43,-0.86l-1.07,0.02l0.3,1.04l-0.97,1.34l-0.99,-0.1l-0.04,-1.14l-1.07,0.71l-0.979,-0.92l0.497,-0.4l0.281,-1.61l1.481,-0.53l-0.22,-1.51l-2.269,-0.52l-0.649,-0.78l-0.822,0.73l-0.455,-0.9l1.121,-2.49l1.203,-1.68l1.081,-0.7l0.63,-1.13l2.41,-0.47l0.9,0.5l0.75,1.31l0.02,0.98l1.11,0.03l0.44,-1.19l-0.15,-2.03l-2.75,-0.85l-0.98,0.47l-2.31,-0.03l-1.151,0.22l-0.13,-1.88l-1.164,-0.22l0.02,-1.98l-0.625,-1.66l0.483,-1.2l0.822,-1.12l0.605,-0.15l0.427,-3.17l0.843,-2.9l1.29,-1.52l0.86,-1.76l0.98,-1.28l-0.27,-1.21l0.53,-1.56l0.69,-0.14l-1.2,-3.13l-2.29,-1.42l1.31,-1l1.22,0.22l-0.5,1.14l1.08,1.34l2.24,-0.1l1.62,-0.93l1.49,-1.21l2.08,-1.13l2.94,-0.73l2.93,-0.08l1.14,0.21l0.7,1.94l-0.19,0.82l0.49,2.43"/><path d="M235.6,124.3l-0.73,1.69l-0.98,0.59l-1.08,2.01l0.75,0.37l0.03,0.93l-1.56,2.89l-1.83,1.32l-1.51,-0.34l-1.07,1.51l-0.92,-2.64l0.71,-0.76l-0.32,-1.44l-0.91,1.36l-1.24,0.84l-2.08,0.39l-3.02,-0.81l-0.36,-1.1l-1.29,0.19l-0.13,0.8l-0.82,1.25v0.67l-0.91,0.36l-0.91,-0.34l1.18,-1.13l-0.21,-1.84l-1.21,-0.32l-0.67,0.36l-0.58,-1.29l-1.38,-2.25l-0.09,-1.12l1.19,-0.68l3.45,-1.55l0.8,-1.04l2.28,-0.6l1.28,-0.99l-0.07,-0.65l1.72,-1.5l0.46,-0.83l1.88,-0.51l0.88,0.02l1.62,-0.67l1.01,0.33l-0.09,0.77l2.08,0.48l-0.02,1.11l0.54,0.55l1.04,-1.76l1.36,-0.96l1.37,0.44l0.92,-1.11l0.55,0.7l0.88,-0.16l0.48,-0.74l-0.84,2.78l-1.47,2.43l-0.16,1.99"/><path d="M233.5,132.6l0.8,0.67l-0.17,1.8l-1.21,-0.61l0.58,-1.86"/><path d="M238.1,112l0.72,-1.39l0.56,-0.32l1.39,2.06l-1.69,2.36l-0.45,-0.61l-0.53,-2.1"/><path d="M237.8,110.4l-1.09,1.65l0.3,1.46l-1.01,0.81l-0.14,0.62l-1.09,-0.05l-0.51,-0.49l-1.79,0.2l0.24,-1.73l0.75,-0.97l0.2,-0.87l-2.29,-0.6l0.15,-0.65l1.06,-0.82l0.79,-1.41l0.78,-0.84l0.96,-0.01l1.17,-1l1.25,1.99l-1.11,1.17l0.39,0.96l0.99,0.58"/><path d="M240.6,110.9v-1.12l-1.25,-1.32l1.95,-0.78l1.56,0.31l0.02,1.83l-1.72,1.84l-0.56,-0.76"/><path d="M228.12,159.89l1.92,2.13l0.67,0.38l0.53,1.56l1.13,1.16l-0.06,0.49l3.85,0.73l2.58,-0.19l0.9,-0.81l0.09,-1.95l1.55,0.63l1.68,-0.81l0.8,0.55l2.3,-0.18l0.59,-1.41l1.14,-0.57l2.52,-0.09l0.63,-1.52l0.77,-0.96l-0.15,-0.9l1.53,-0.37l0.48,1.24l0.23,1.55l0.51,0.83l2.89,0.56l0.34,1.84l1.54,0.8l2.87,2.59l2.15,0.73"/><path d="M233.43,60.96l0.43,1.07l0.72,-0.06l0.44,0.8l0.19,3.29l0.81,3.15l-0.03,1.45l1.73,1.84l1.38,0.6l0.85,-0.41l1.55,1.28h0.45l2.39,1.45l-0.04,3.28l4.21,1.35l0.56,-0.83l0.84,0.9l0.29,1.77l1.05,0.31l0.35,1.59l1.86,2.14l-0.69,0.31l-0.91,1.41l0.1,1.34l0.79,2.89l-0.36,1.35l0.33,2.17l-1.01,0.19l-0.85,0.83l-2.05,0.61l-1.49,1.49l-1.51,2.58l-1.4,0.18l-1.38,0.97l-1.05,0.14l-2.2,1.77l-1.6,0.6l-0.89,0.89l0.87,1.12l-0.21,1.11l0.77,0.39l1.9,-0.95l2.37,0.13l3.13,-1.54l1.91,-0.02l1.88,0.37l1.13,-0.5l0.79,0.1l1.75,-0.81l2.11,-0.41l1.5,-0.87l0.5,2.87l-0.3,0.65l-1.26,-1.25l-1.79,0.17l-0.38,0.82l1.46,1.39l-1.81,1.78l-0.72,-0.56l-1.89,2l-1.39,2.12l-1.35,2.42l-0.64,-0.58l-1.22,0.55l-1.26,2.16l2.15,1.24l1.24,0.49l-0.24,0.8l-1.59,-0.18l-0.46,0.78l0.03,1.08l0.67,0.87l1.58,0.14l0.42,1.38l-0.42,0.99l0.88,1.95l-1.77,1.91l-1.12,0.35l-0.37,0.94l-2.96,2.96l-2.24,2.51l1.84,0.97l-2.48,1.91l-1.66,2.44l0.53,0.65l0.07,1.72l1.78,0.16l-1.24,1.54l-0.97,0.17l-0.94,-0.53l-0.97,0.28l0.37,0.77l-0.2,1.02l-1.77,1.07l-0.18,1.24l-0.69,0.38l0.73,1.05l-0.73,0.49l-2.99,1.1l-0.75,1.62l-1.49,1.47l0.84,1.09l-1.94,2.77"/><path d="M276,48.8l0.32,1.19l2.09,-0.11l1.28,0.37l1.3,0.99l0.09,0.93l0.62,0.34l0.32,1.06l0.68,-0.1l1.66,1.55l1.18,-0.38l1.16,0.27l1.02,0.68l0.22,1.18l1.11,1.61l2.06,-0.01l1.24,-1.07l0.85,-1.23l0.59,-2.45l-0.7,-0.74l0.38,-1.17l0.96,-0.94l-0.48,-0.49l-1.03,-2.02l-1.5,-1.3l-0.24,-1.23l-1.31,-1.49l0.58,-1.21l0.12,-1.92l0.87,-1.84l1.15,0.73l1.09,-0.02l2.22,-1.94l2.15,-0.12l0.72,0.44l2.79,0.75l1.02,-0.14l0.99,0.73l0.29,1.19l1.05,0.4l0.5,0.82l1.39,0.6l0.02,0.63l1.32,1.07l0.57,1.44l-0.33,1.46l0.96,1.39l-0.09,1.81l0.22,0.79l1.15,1.1l1.05,0.37l1.95,2.35l0.76,4.05l1.17,1.03l1.24,1.58l-0.05,1.53l1.6,0.63l-0.72,1.63l-0.95,0.18l0.19,1.67l-0.24,0.91l0.7,1.88l0.02,3.15l1.06,2.22l0.78,0.3l2.29,2.37l1.57,0.5l1.23,1.03l0.7,1.32"/><path d="M325,81.1l-0.66,0.52l-2.14,-0.11l-0.99,0.21l-0.55,-0.42l-2.07,0.58l-0.76,1l-0.25,1.6l-0.87,0.67l-0.12,1.48l-0.8,0.25l-0.02,0.88l0.93,0.91l-0.94,1.3l-0.56,1.72l-1.96,1.82l-0.58,-0.17l-1.69,1.11l-0.01,0.04l-0.98,1.27l0.11,1.15l-0.53,0.8l-0.03,2.56l-1.17,0.02l-1.17,-1l-0.82,0.5l-0.3,1.33l-1.33,1.27v0.01l-0.32,1.1l-0.75,0.23l0.37,1.61l-0.4,0.97l0.36,2.63l-1.13,1.99l-0.88,0.43l-1.15,-0.1l-1.34,-0.66l-2.23,-0.34l-0.89,0.64l-0.56,2.09l0.13,1.22l-1.51,0.13l-0.59,0.82l0.69,1.76l-0.02,1.34l-1.53,0.58l-0.24,3l0.94,1.99l0.01,3.03l1.64,3.2l1.09,1.49l2.42,0.06l0.62,2.93l0.57,1.02l-0.59,0.99l0.4,1.28l1.29,0.66l0.46,-0.15l1.17,2.06l-0.12,1.06l-1.55,3.6l-2,1.61l-1.17,-0.76l-0.9,0.41l0.44,1.93l-0.97,0.47l-0.18,1.76l0.43,0.47l1,-0.21l1.39,1.33l0.28,1.25l1.06,2.12l1.62,0.55l0.38,1.13l-0.29,2.23l0.76,1.53l-1.28,0.92l-2.6,-0.86l-1.07,0.43l-1.42,-0.62l-0.72,-1.02l-1.94,0.01l-0.55,-0.54l-0.94,0.58l-0.94,1.35l-0.18,1.18l-1.79,1.33l-0.02,1.88l-1.31,0.1l-0.63,0.55l-1.1,-0.5l-1.15,0.38l-0.51,-0.72l-1.12,-0.32l-1.03,-0.99l-0.87,0.9l-1.92,0.58l-0.87,0.71l-0.7,1.56l-0.53,0.25l-1.81,-0.89l-1.61,0.89l-0.21,0.56l-1.29,-0.52l-2.85,-0.01l-1.25,-0.24l-0.74,0.55l-0.59,-0.78l-3.3,0.31"/><path d="M251.3,88.8l-0.2,0.68l-1.78,0.01l0.09,-0.67l1.89,-0.02"/><path d="M383.1,88.7l-0.27,-1.4l1.48,1.31l-1.21,0.09"/><path d="M399.1,66.6l-0.39,-1.11l0.62,-0.41l0.15,-1.14l0.54,0.87l-0.07,0.78l-0.85,1.01"/><path d="M384.6,63l-1.41,0.17l0.1,-1.13l1.17,-0.79l-0.52,-1.47l1.58,-0.46l-0.05,1.34l0.77,0.99l-1.64,1.35"/><path d="M392.4,48.4l0.71,-0.48l0.57,0.56l-1.03,0.87l-0.25,-0.95"/><path d="M310.6,-12.6l1.94,-0.01l1.72,1.46l1.65,0.41l0.66,-1.16l1.33,0.92l-0.28,0.52l1.23,0.77l0.53,1.09l1.75,0.54l0.45,-0.25l2.52,-0.23l1.42,0.26l0.44,0.91l1,0.04l0.89,-0.51l3.56,0.11l1.19,0.49l1.45,-0.12l1.44,0.34l-1.01,-1.47l-0.04,-1.11l3.83,-3.28l1.15,-0.19l0.13,-1.18l0.92,-0.77l0.16,-0.86l1.19,-0.17l-0.26,-1.08l0.47,-2.01l1.11,-0.25l0.41,0.49l1.47,-0.58l0.75,-0.69l1.2,0.09l1.23,-0.88l0.47,1.41l0.92,-0.04l-0.19,-1.41l1.28,-0.65l0.75,0.63l1.36,0.01l-0.03,0.99l1.74,0.51l1.11,-0.95l1.13,2.33l1.38,-0.83l0.65,0.74l0.67,1.66l1,1.23l0.91,-0.05l0.79,3.14l0.63,1.08l0.72,0.04l1.09,1.89l0.83,0.96l-0.11,0.73l0.75,1.43l-0.1,3.34l-0.68,2.2l-0.32,1.88l0.14,1.13l0.84,-0.29l-0.03,3.48l-1.14,-0.14l-0.49,1.82l-1.1,1.47l-0.99,3.92l-1.49,-0.03l-1.5,-0.78l0.01,-0.54l-1.12,-0.65l-0.69,0.33l-1.79,-0.42l-0.1,0.9l0.35,2.03l0.85,0.79l-0.25,2.03l-2.12,0.08l-0.87,0.43l-1.6,0.16l0.08,1.23l-0.6,1.48l-1.86,-0.15l-1.06,-0.43l-1.4,0.23l-0.65,-0.57l-0.44,-1.27l-1.5,-0.27l-2.51,0.89l-0.28,3.64l0.82,2.36l-0.1,1.06l0.52,3.11l0.42,0.93l1.15,0.25l1.54,0.95l1.2,-0.03l3.78,1.44l1.09,-1.3l1.41,-0.66l4.66,-1.36l0.59,1.85l0.56,-0.27l-0.54,-1.74l1.37,-0.53l1.12,-0.03l1.33,0.58l2.92,2.14l0.01,0.44l1.23,1.1l0.77,0.28l0.01,-1.3l1.16,0.01l1.2,0.66l1.85,0.54l0.96,0.02l1.71,-0.6l1.82,-0.2l1.49,-0.83l2.7,-1.14l1.95,-0.27l0.01,0.68l-0.84,0.93l-0.55,1.2l-1.02,-0.03l-0.77,1.43l0.59,0.77l-0.55,1.18l-0.58,0.35l-0.83,2.04l-1.96,1.56l-0.86,1.01l-0.76,1.47l0.68,1.44l-1.92,1.43l0.14,1.29l0.48,0.56l1.22,0.13l1.54,0.87l1.29,-0.71l0.56,-0.93l1.63,-0.31l0.53,1.05l1.61,-0.87l1.52,0.72l-1.4,0.61l-0.54,1.29l-1.01,-0.43l-0.89,0.55l0.05,0.72l-2.42,1.35l1.56,1.48l1.31,-0.19l0.49,-0.63l1.11,0.89l1.02,-0.67l1.19,1.38l0.91,0.24l0.62,-1.67l0.78,1.39l1.1,0.47l0.27,-0.75l2.12,0.62l1.17,-0.12l-0.41,-1.32l0.18,-1.16l1.16,-0.57l-0.2,1.84l0.66,0.69l0.38,1.42l-2.09,1.43l-1.05,0.29l-1.78,-0.63l-0.7,0.27l-0.78,-0.53l-1.09,0.08l-1.03,0.99l0.08,1.39l-1.95,2.97l0.53,0.97l-1.83,0.91l0.63,1.13l0.8,0.26l1.97,1.92l2.23,0.58l1.33,1.62l0.85,-0.79l1.39,1.62l1.58,-1.2l-0.07,1.35l1.38,0.63l1.26,-0.89l1.06,0.07l-0.02,-1.51l1.03,0.63l0.85,-0.26l0.66,0.45l1.2,-0.3l1.09,0.57l0.25,1.38l-0.84,0.02l-0.81,-0.64l-3.29,-0.01l-1.72,0.7l-0.23,0.88l-0.71,0.26l0.13,1.86l-1.09,-0.47l-1.14,-1.17l-0.3,0.77l0.16,2.17l0.83,-0.38l1.02,0.82l-0.92,1.6l-0.88,0.9l-0.34,0.91l-0.72,-0.11l-1.43,1.98l-0.75,0.22l0.86,3.13l1.49,-0.73l0.95,-0.91l-0.79,-0.87l0.71,-0.75l1.14,0.94l1.02,0.17l-0.01,1.2l-2.18,1.26l-1.43,1.61l-0.03,1.29l-0.83,-0.3l0.3,-0.93l-1.2,-0.71l-0.8,0.47l0.25,0.86l-1.23,1.48l-1.65,-0.13l-1.34,-0.9l-0.69,-1.07l-1.1,-0.14l-0.32,1.58l-1.24,0.48l0.42,0.72l-0.8,0.92l1.05,1.18l-0.67,0.86l0.08,0.7l1.19,0.39"/><path d="M324.98,81.13l1.08,-0.05l0.95,1.08l-0.12,1.63l1.53,0.87l1.44,-0.72l2.19,-0.48l2.1,0.18l1.01,-0.76l0.57,-1.22l1.72,-0.05l2.22,-0.85l0.25,0.62l1.45,1.8l2.41,1.79l-0.67,1.27l-0.23,1.89l0.36,0.54l2.42,1.29l3.26,0.55l1.03,-0.81l1.09,-1.56l2.78,0.12l0.74,-0.17l1.54,0.5l0.76,-0.17l2.8,0.4l2,-0.74l1.62,0.13l0.58,-2.06l0.96,-0.77l0.32,-2.21l0.36,-0.25l0.1,-1.56l1.84,-0.63l1.47,-0.06l1.85,0.39l0.05,0.68l1.89,0.69l1.78,-0.92l1,1.21l1.36,0.22l1.07,-0.43l0.13,1.83l-1.08,1.86l-0.5,1.61l0.55,2.49l-0.57,0.99l0.29,1.39l1.45,-0.5l1.2,-0.04l1.22,-0.64"/><path d="M387.6,27.9l-1.13,0.93l-0.57,-0.7l1.7,-0.23"/><path d="M358.6,-24.6l-0.76,-0.53l-1.2,-0.05l-0.09,-1.06l0.97,0.04l1.26,-1.21l0.4,0.17l1.89,0.77l-1.43,0.83l-1.04,1.04"/><path d="M333.6,234.9l-0.63,1.44l-0.68,-1.28l0.73,-1.39l0.58,1.23"/><path d="M264.03,167.93l-0.46,1.78l-1.24,1.01l0.03,2.3l3.17,1.12l1.19,1.41l1.1,0.35l0.3,0.95l1.54,1.03l0.18,2.18l0.55,2.23l1.03,0.68l1.08,2.77l1.28,1.04l2.24,-0.2l2.51,1.03l1.26,1.39l1.24,2.19l0.71,1.77l0.47,0.48l-0.78,0.76l-0.68,2.02l0.14,1.07l-0.48,0.74l-0.82,0.15l0.55,1.26l-0.34,0.55l-0.14,1.54l0.59,1.02l1.82,0.71l1.69,-0.29l1.16,2.02l3.72,0.56l0.47,-0.36l0.89,0.72l0.67,-0.19l0.47,1.05l-1.36,1.45l0.04,0.86l1.22,0.05l0.72,0.61l1.73,-0.34l0.24,2.87l-0.45,1.33l0.54,0.93l1.01,0.91l-0.49,0.67l0.29,1.1l-0.24,0.98l0.67,1.31l0.59,0.13l0.93,1.1l0.14,1.22l0.68,1.01l1.82,-2.9l0.68,-0.24l2.17,1.82l1.4,1.64l1.28,0.5l2.03,-0.49l1.08,-0.76l2.95,1.47l-0.32,1.7l0.2,0.77l1.02,0.98l0.8,1.79l-0.36,1.5l-1.25,1.17l0.61,0.58l0.19,1.57l0.42,0.91l-0.07,1.57l-0.4,0.72l-1.78,0.63l-0.69,0.49l-0.11,0.94l-0.78,1.17l0.11,1.23l-0.4,1.38"/><path d="M380.6,91.5l-0.85,0.78l-0.12,0.69l-1.43,-0.13l-0.41,0.62l0.67,1.29l-1.43,-0.4l-0.42,1.61l0.78,0.68l-1.06,1.44l-1.64,-1.91l-0.98,0.45l-0.13,1.89l-1.37,0.37l-1.08,1.36l-0.61,-0.26l-1.29,0.98l-0.05,0.78l-0.86,0.12l0.44,1.39l0.62,0.75l-0.03,0.77l-0.85,0.7l-0.02,1.42l-0.85,1.48l-0.77,0.24l-0.59,1.17l-2.99,0.28l-0.88,1.01l-1.56,2.82l-0.57,1.83l0.01,1.16l0.55,1.02l-0.5,1.25l1.13,0.3l0.36,-0.51l1.35,-0.2l-0.14,1.63l1.54,0.29l0.05,0.97l-0.86,1.03l-1.83,1.27l-1.26,0.38l-1.14,-1.28l-1.65,-0.24l-0.07,1.55l-0.69,0.77l0.15,1.32l1.39,0.97l1.37,0.3l0.1,0.93l-1.16,0.15l0.54,1.15l-0.99,1.32l-1.21,-0.32l-0.72,0.53l-0.72,1.5l-0.57,1.87l0.32,1.15l-0.66,0.29l-0.68,1.51l0.54,0.7l-0.52,0.99l-1.11,0.88l-1.34,1.91l-1.32,3.13l-0.78,2.43l-0.13,1.46l-0.41,0.65l0.36,1.41l-1.24,2.8l-1,3.38l-0.04,1.15l-0.65,1.61l-0.48,1.9l-0.12,2.04l-0.52,1.69l-0.91,1.91l-1.1,3.48l-0.61,2.5l-0.49,1.2l-2.17,7.46l-0.97,3.69l-0.54,2.85l-0.71,0.72l0.92,0.47l-0.79,1.81l-0.41,2.64l-0.41,1.5l-0.12,3.57l0.26,1.81l2.58,3.29l0.83,0.28l-2.06,4.3l0.53,1.37l-1,0.38l0.51,1.51l-0.99,1.38l0.4,0.65l-0.62,0.63l1.23,1.34l-1.19,0.57l-0.45,1.48l0.91,0.07l0.22,1.93l-0.99,1.75l0.87,0.53l-0.52,1l-1.09,0.88l-2.35,0.99l-1.31,2.16l0.28,0.9l-1.28,0.48l-0.34,1.97l-1.17,0.41l-0.32,0.67l0.41,1.37l-0.45,1.73l0.45,0.82l-1.16,1.58l1.13,0.35l-0.2,0.99l0.58,1.01l-0.42,0.63l-2.16,1.01l0.16,1.9l0.53,0.49l0.27,1.81l-0.72,1.8l-0.82,0.14l-1.48,1.03l0.1,1.35l-0.97,0.06l-0.14,1.07l0.33,1.07l1.44,1.06l-0.09,0.59l-1.36,0.64l-1.23,-0.53l-0.71,-0.87l-0.16,-1.56l-0.52,-0.56l-1.23,0.65l-0.6,-0.47l-0.86,0.91l-1.99,0.22l-1.66,-0.79l-1.03,-2.21l0.12,-1.16l0.83,-0.68l-0.2,-0.63l-1.73,-0.7l-0.73,-0.97l-1.33,-0.88l0.14,-0.56l-2.5,-0.43l-0.49,0.78l-1.64,-1.41"/><path d="M374.7,102.2l-1.45,-0.32l-0.11,-0.85l0.73,-1.05l1.08,1.46l-0.25,0.76"/><path d="M89.82,551.6l-0.45,-0.78l1.311,-0.16l0.752,-0.62l0.921,0.89l-0.864,0.81l-0.803,-0.51l-0.867,0.37"/><path d="M112.04,512.2l-1.366,-1.68l1.46,-0.65l1.729,0.05l0.402,0.78l-0.402,0.73l0.153,2.14l-1.976,-1.37"/><path d="M151.58,475.8l-0.899,-0.49l0.217,-1.19l0.638,-0.79l1.415,0.56l1.069,2.53l-0.739,0.57l-1.653,-0.01l-0.048,-1.18"/><path d="M165.35,456.1l-0.991,0.54l-1.195,1.18l-0.514,1.2l-0.854,-0.12l-0.102,-0.91l-0.723,-1.23l0.058,-1.29l-0.628,-1.03l-0.042,-1.14l0.952,-0.94l2.83,-1.16l1.867,-0.19l0.289,0.29l-0.489,2.29l0.117,1.06l-0.575,1.45"/><path d="M145.45,448.1l0.467,0.27l-0.179,1.88l-1.111,-0.61l0.163,-1.14l0.66,-0.4"/><path d="M181.34,430l0.192,1.11l1.767,1.61l0.254,1.06l-2.719,-0.17l-0.923,0.63l-1.132,-0.11l-0.718,-0.48l-0.85,-1.92l-1.232,-0.79l-0.568,-1.68l0.649,-1.88l1.118,-0.85l1.633,0.27v0.49l1.819,0.54l1.081,1.4l-0.371,0.77"/><path d="M145.22,425.2l-0.196,-1.82l0.665,-0.55l1.321,1.02l0.44,1.13l-0.662,0.55l-1.568,-0.33"/><path d="M186.42,418.6l-0.978,0.42l-2.078,-0.99l-0.877,-0.9l-0.41,-1.01l0.656,-1.37l0.726,-0.63l-0.524,-1.12l0.734,-0.72l0.586,2.12l1.074,1.72l0.839,0.5l0.543,1.14l-0.291,0.84"/><path d="M185.74,319l-0.772,0.02l-1.239,-0.63l-1.234,-1.61l0.034,-0.91l1.03,-0.03l0.939,-1.16l1.426,-0.26l0.341,0.77l0.925,0.31l1.271,1.42l-1.151,1.36l-1.57,0.72"/><path d="M136.74,276.3l-0.594,-0.27l0.542,-2.28l0.052,2.55"/><path d="M170.94,209.1l-1.133,0.86l0.188,0.89l-1.127,2.74l-1.062,0.3l-0.129,-0.8l-0.854,-0.03l-0.87,1.33l0.349,1.94l-1.751,2.15l0.133,1.22l1.1,0.71l-1.153,0.77l-0.592,0.94l-0.983,0.63l-0.93,-0.22l-0.465,1.63l-1.163,-0.02l-0.029,-0.77l-1.848,-1.35l-0.741,-2.23l2.342,-0.31l0.169,-2.1l0.948,-1.4l-0.259,-1.13l1.105,-0.51l-0.094,-0.76l0.483,-1.14l1.499,-0.67l1.89,-0.47l0.958,-0.65l1.418,0.02l1.054,-0.31l0.59,-1.65l0.933,-1.7l-0.726,-0.6l0.319,-2.03l1.162,1.03l-0.351,0.65l0.33,1.08l-0.722,1.16l0.012,0.8"/><path d="M174.97,206.2l-1.357,-0.57l-0.253,-2.02l0.508,-0.48l0.19,-1.3l1.905,-0.75l0.334,0.52l-0.685,1.08l-0.045,0.93l-0.952,1.43l0.355,1.16"/><path d="M181.66,197.2l0.189,0.59l1.228,0.51l0.777,-0.77l-0.921,-0.76l0.056,-1.11l1.398,0.45l0.73,1.3l-0.875,0.33l-0.171,0.98l0.858,0.09l0.075,1.67l-1.099,0.88l-1.133,-0.61l-0.852,0.98l-2.516,0.52l-0.047,-1.29l-0.86,0.11l-0.431,-0.79l0.177,-1.15l-1.466,0.38l0.109,-1.18l-0.558,-0.76l0.952,-0.34l-1.03,-0.93l-0.844,0.74l-0.232,1.77l-1.012,-1.14l-0.443,-1.58l1.069,-0.74l0.706,-1.61l1.717,-0.16l1.074,0.67l1.082,1.09l0.792,1.27l1.501,0.59"/><path d="M247.7,362.5l1.35,0.65l0.24,0.72l2.45,1l0.15,0.89l3.05,0.99h0.89l2.44,1.77l0.84,1.64l-0.54,1.68l0.11,0.98l-0.36,1.1l-0.15,1.92l-0.66,1.11l0.24,0.84l-0.42,0.76l-2.53,2.18l-0.57,0.93l-1.11,0.82l-0.69,1.42l-1.31,0.5l-0.6,0.98l-3.52,0.74l-1.24,0.48l-0.56,-0.49l-1.08,0.87l-0.96,-0.61l-2.32,0.51l-1.21,-0.79l-0.59,0.12l-2.8,-0.42l-0.74,-0.87l-1.44,-2.64l-0.68,-0.45l-0.04,-1.97l-0.85,-2.84l-1.33,-1.05l-0.43,-2.13l-0.68,-1.3l0.19,-0.86l-0.62,-1.97l0.47,-2.07l0.93,-0.36l2.86,0.06l1.6,-1.59l0.51,-1.3l1.21,-1.35l0.76,0.05l0.65,-1.65l-0.34,-0.89l0.84,-0.85l0.77,0.38l1.74,0.26l-0.31,-1.25l0.45,-0.32l0.58,1.91l0.69,-0.34l1.1,1.03l2.17,-0.01l1.4,1.08"/><path d="M213.3,358.4l0.82,-0.07l0.71,0.61l0.68,-0.19l2.75,2.58l0.3,0.92l-0.5,0.79l-0.74,-0.66l-1.9,0.43l-0.84,1.27l-1.61,-0.15l-1.74,-1.59l-0.28,-1.68l0.17,-1.15l-1.38,0.91l-0.72,-0.68l-0.43,-1.04l-1.62,-0.98l-0.31,-1.33l0.88,0.61l2.57,0.15l0.96,1.38l0.93,-1.09l1.3,0.96"/><path d="M299.2,320.7l0.81,0.29l0.38,1.42l-1.12,1.66l-0.03,3.27l0.1,2.68l0.49,2.53l-0.92,0.27l-0.67,1.17l0.16,0.9l-0.73,0.53l-0.64,2.8l0.89,0.75l-0.58,1.3l0.22,2.82l-0.74,1.15l-1.38,0.7l0.13,1.61l-1.16,2.18l-0.83,0.64l-1.6,0.31l-0.41,2l-1.02,0.75l-0.6,1.09l-0.01,1.54l-1.63,2.69l0.65,0.98l-1.06,1.21l1.21,1.43l0.71,1.67l-0.87,0.95l0.05,1.43l0.9,1.11l-1.34,1.26l-0.1,2.16l-2.76,-0.22l-3.22,1.33l-1.15,0.81l-0.98,1.52l-1.3,-0.39l-0.88,-1.5l-0.36,-1.18l0.82,-2.69l-0.02,-2.74l-1.43,-3.63l-0.03,-2.3l1.85,0.51l0.49,-0.49l0.8,-2.16l1.34,-0.83l1.97,-3.03l1.91,-3.65l1.05,-2.3l0.83,-2.58l-0.4,-1.47l0.06,-3.34l-0.82,-1.54l0.59,-2.03l-0.61,-0.82l1.38,-1.37l1.92,-3.02l0.39,-1.76l0.93,0.26l0.59,-0.47l-0.45,-1.13l1.39,-1.65l0.57,-1.75l-0.12,-1.2l-0.47,-0.69l2.89,-3.78l0.08,-1.1l0.8,0.27l1.59,-2.07l0.55,0.57l0.17,2.21l0.91,0.78l-0.13,1.37"/><path d="M275.8,328.9l0.4,-2.56l1.53,-1.96l0.36,1.72l0.68,1.16l-0.36,1.19l-0.77,0.63l-1.84,-0.18"/><path d="M220.1,322.9l-1.59,-0.09l-0.03,-1.46l1.1,-0.02l0.6,-0.65l2.14,-1.29l1.44,1.08l0.38,0.84l-0.81,1.28l-0.81,-0.14l-2.42,0.45"/><path d="M233.2,319.2l1.6,-1.1l1.03,1.01l0.8,0.14l-0.42,1.12l-3.01,-1.17"/><path d="M295.6,254.5h-1.52l0.2,-1.46l1.02,-0.07l0.3,1.53"/><path d="M308,243.1l-0.69,-0.66l-1.65,0.03l-1.27,-0.72l-1.36,-0.34l-1.57,2.25l-0.75,-0.51l-0.92,0.37l-2.15,1.79l-1.57,1.93l-1.16,1.89l-1.02,2.3l-0.34,1.76l-0.08,1.9l0.83,0.6l2.46,0.67l1.43,0.85l1.32,0.1l2.38,0.97l0.69,-0.11l-0.32,1.77l-0.6,1.29l-1.05,1.15l-1.29,0.67l0.27,1.37l0.74,0.59l0.84,-0.51l1.52,0.4l2.3,-1.06l0.15,0.55l-0.97,1.06l-1.1,0.61l-0.29,0.74l-0.85,0.24l-1.96,1.49l-1.35,1.96l-3.07,0.22l-1.83,-0.25l-1.1,1.56l0.34,1.15l-0.56,0.76l-0.1,1.01l-1.82,1.31l0.24,0.64l-1.49,0.78l0.61,1.09l-0.41,1.23l-1.19,0.96l-1.52,0.66l-1.88,1.09l-0.7,-0.2l-0.58,1.37l-1.57,0.08l-2.29,1.62l-3.25,1.06l-1.43,-0.47l-0.87,0.75l-0.89,-0.21l-0.61,0.97l-0.88,-0.34l-0.57,1.12l-1.44,0.95l-1.06,0.02l-0.88,1.03l-0.67,-0.51l-0.86,1.04l-2.74,1.19l0.3,1.03l-1.16,0.25l-1,0.95l-1.34,-0.22l0.47,1.23l-0.56,1.25l-1.45,-0.54l-0.65,1.25l-0.52,-1.07l2.02,-3.16l-0.22,-1.23l0.34,-1.99l-0.88,-0.8l-1.13,-0.34l0.99,-1.62l1.49,-0.43l1.91,-1.54l1.22,-1.49l1.69,-0.23l1.31,-1.71l0.96,-2.29l0.5,-1.93l0.81,-1.52l-0.46,-1.48l-0.9,-1.16l0.05,-1.03l1.48,-1.64l0.44,-1.48l1.52,-1.17l-0.07,-1.26l0.75,-3l-0.45,-2.38l0.96,-1.96l0.29,-1.73l-0.92,-1.44l-0.38,-1.34l-1.08,-1.47l-0.25,-1.37l-0.55,-0.95l-0.54,-1.71l-0.83,-1.73l-2.8,-3.47l-2.31,-0.73l-0.7,-0.41l-0.81,-3.22l0.68,-1.36l-0.28,-1.07l0.38,-1.83l0.76,-0.77l0.04,-1.07l-0.86,-1.7l-1,0.48l-0.65,0.83l-0.73,-0.76l-0.92,-0.28l-2.63,0.97l-0.95,-1.29l-0.91,-0.61l-1.34,-1.55l-0.48,0.13l-1.03,-0.89l-0.09,-0.93l1.52,-1l0.49,-1.3l1.49,-1.4l1.64,-0.03l1.08,-0.51l1.59,-0.28l1.51,0.68l0.78,-0.35l2.14,2.83l-0.21,0.54l0.66,0.98l-0.78,0.87l0.59,0.63l-0.51,0.92l1.01,0.37l0.44,0.76l2.67,-0.12l1.48,-0.61l1.03,-1.08l1.02,-1.55l-0.02,-2.15l0.87,-1.04l0.1,-1.24l1.28,-2.07l0.86,-0.44l0.48,-1.73l-0.57,-1.72l-0.62,-1.08l-0.85,-0.59l-1.04,-1.69l-1.07,0.07l-1.55,-0.56l-3.58,-0.32l-0.22,-0.95l-1.17,-0.86h-1.06l-1.99,-1.14l-1.28,0.84l-1.29,-0.09l-2.68,2.06l-0.59,-0.3l-1.34,2l0.11,0.53l-0.6,1.44l0.39,1.69l-0.19,1.19l-0.8,1.2l-0.1,1.54l-2.63,1.96l-0.35,1.4l-0.97,0.73l0.7,1.49l-0.1,1.67l-1,2.79l-0.99,0.32l-0.83,1.01l-0.21,1.52l-0.54,1.76l-0.17,2.69l-1.07,-0.95l-0.7,0.18l0.55,2.27l1.36,0.17l-0.06,0.9l-1.67,-0.21l-0.19,0.65l0.51,1.14l-0.03,1.28l0.64,1.54l0.28,2.05l1.14,1.93l1.11,-0.66l0.81,1.22l-1.01,0.75l-0.2,0.6l1.86,6.09l0.84,1.28l1.71,1.16l0.46,0.79l1.31,0.43l1.33,1.71l0.7,0.39l3.06,0.27l0.65,0.69l-0.8,0.94l-0.82,2.12l0.89,2.01l-0.33,0.53l-1.37,0.03l-1.13,0.72l1.61,0.96l-0.54,1.42l-1.43,1.11l-1.25,-0.26l-1.22,0.1l-1.08,0.78l-0.48,1.75l-2.1,-1.75l-1.1,-0.32l-1.37,1.32l-0.99,0.43l-1.21,-0.29l-0.95,-1.08l-0.04,-2.16l0.74,-0.56l-0.35,-1.06l-0.93,-1.6l-1.65,-1.87l-1.18,-0.95l-1.5,-0.7l-1.53,-0.16l-1.31,0.7l-0.54,-0.33l-1.23,0.11l-1.04,-0.59l-1.54,0.31l-2.4,-0.15l-1.29,0.15l-0.96,-0.57l-1.81,0.07l-0.69,-0.25l-0.92,-1.1l-0.84,0.36l-1.43,-0.44l-0.18,1.53l-0.72,0.62l-1.54,-0.86l-1.58,0.38l-0.46,-0.73l-1.62,0.63l-0.27,-2.28l0.58,-1.13l-1.96,0.08l-0.78,-1.07l0.41,-0.52l1.88,-0.55l0.45,-0.58l-1.15,-1.78l-2.52,0.5l-1.17,-1.52l1.33,-0.29l0.47,0.3l1.05,-0.87l0.28,-1.31l-1.42,-1.14l-0.45,-1.03l-1.58,0.03l-2.49,-2.71l-0.63,-1.49l-1.94,-1.62l-1.75,0.37l0.31,-1.02l1.26,-0.21l1.23,0.79l1.09,-1.25l0.85,-0.42l0.41,-0.98l0.89,0.51l0.39,1.69l1.26,0.28l0.32,0.92l3.85,0.93l0.87,-0.87l3.75,-1.99l2.05,-3.09l1.54,-2.96l1.23,-3.11l0.69,-2.44l0.72,-4.35l0.06,-4.31l-0.51,-3.47l-0.52,-1.75l-0.85,-1.73l-1.6,-0.35l-0.03,-0.97l-1.09,-2.26l-1.27,-1.87l-1.34,-0.22l-0.21,-1.74l-0.78,-0.06l-0.39,-1.06l-0.89,-0.26l-1.34,-1.51l-1.5,-1.16l-1.23,0.2l-0.71,0.93l-0.62,-2.81l-0.51,-1.03l-0.84,-0.66l-0.53,-1.19l0.65,-0.71v-1.64l0.69,-0.39l0.74,-2.15l0.78,-0.87l0.07,-1.6l0.7,-1.34l0.65,-0.32l1.18,-2.84l0.29,-1.77l-0.49,-0.75l0.04,-1.85l-0.32,-1.9l-0.78,-2.78l-0.85,-0.63l0.14,-0.78l-1.29,-0.6l-0.98,-1.36l0.05,-1.71l1.23,-0.27l-0.07,-1.39l1.22,-1.02l0.05,-1.78l0.39,-0.58l-0.84,-2.21l-2.77,-0.14l0.35,-1.51l0.09,-1.76l0.53,-0.55l3.01,-1.72l1.55,-0.43l2.4,0.07l1.28,1.07l2.31,1.16l2.27,0.13l0.63,-1.03l2.13,-0.95l1.54,-1.29l0.2,-1.08l0.85,-0.77l-0.44,-1.26l0.23,-0.76"/><path d="M210.9,157.8l-0.43,0.89l0.29,1.52l0.98,-0.18l0.95,0.63l0.3,1.06l-0.42,0.57l-1.23,0.16l-1.36,1.23l-0.3,2.55l-0.95,2.15l-0.97,0.91l-0.86,-0.51l0.22,-0.7l-0.49,-0.77l-0.78,0.14l-0.96,-1.18l-0.93,-0.34l-0.62,-0.88l0.39,-2.94l-0.69,-1.24l-0.13,-1.15l-0.92,-0.48l-0.31,-1.23l0.51,-0.91l1.69,-0.96l-1.3,-0.35l0.03,-1.14l0.64,-0.34l0.86,0.48l1.07,-0.49l1.78,1l-0.09,-1.03l0.79,-1.1l0.83,0.47l0.98,-0.87l0.15,0.97l0.65,0.35l0.29,1.04l1.44,1.67l-1.1,1"/><path d="M211.3,154.1l0.42,-1.48l-0.28,-1.65l0.7,0.57l-0.05,1.13l1.02,1.19l-0.11,1.17l-1.7,-0.93"/><path d="M209.1,152.7l-0.88,-0.34l0.57,-2l0.9,-0.51l1.13,-1.23l-0.15,-0.54l0.3,0.91l-0.58,1.01l-0.84,0.62l0.11,1.07l-0.56,1.01"/><path d="M217.8,147.3l-2.24,1.64l-0.9,-0.06l-1.3,1.13l0.03,-3.27l0.93,-1.51l0.64,0.49l0.39,-1.32l1.44,-0.19l0.96,-0.59l0.02,0.83l0.76,0.79l0.41,1.21l-0.94,0.15l-0.2,0.7"/></g></g></g></svg>