<svg version="1.1" xmlns="http://www.w3.org/2000/svg" xmlns:xlink="http://www.w3.org/1999/xlink" width="89.87641" height="104.38584" viewBox="0,0,89.87641,104.38584"><g transform="translate(-291.33289,36.60493)"><g data-paper-data="{&quot;isPaintingLayer&quot;:true}" fill="#ff0000" fill-rule="evenodd" stroke="none" stroke-width="0" stroke-linecap="round" stroke-linejoin="round" stroke-miterlimit="10" stroke-dasharray="" stroke-dashoffset="0" style="mix-blend-mode: normal"><path d="M374.62957,-27.27526l-0.02,2.20991l1.27995,0.21999l1.92992,0.74997l1.62993,2.68989l1.00996,0.15999l0.50998,1.71993l-0.17999,2.28991l0.41998,0.52998l-0.61998,1.01996l0.09,0.90996l-1.89992,1.32995l-0.23999,0.76997l-1.16995,1.14995l-0.87996,1.74993l-0.94996,0.71997l-0.66997,1.77993l-0.66997,1.01996l-0.99996,0.23999l0.20999,1.80993l0.58998,1.05996l1.41994,0.60998l-0.39998,1.48994l0.38998,0.77997l-0.38998,0.97996l-2.32991,1.32995l-1.31995,1.94992l0.57998,0.88996l-0.95996,2.5499l2.13991,2.62989l2.04992,0.94996l0.39998,0.62997l1.13995,-0.25999l0.54998,2.26991l-1.53994,2.02992l0.12,2.12991l-0.91996,2.3999l-1.55994,1.33995l-3.11988,1.58994l0.08,1.28995l-1.16995,1.32995l-0.82997,2.05992l-0.53998,0.64997l-1.32995,-0.11l-0.78997,1.44994l-1.34995,1.56994l-0.22999,1.92992l-0.64997,0.84997l-1.67993,0.52998l-0.98996,-0.43998l-1.10996,-1.49994l-2.31991,0.44998l-1.65993,0.70997l-1.69993,0.39998l-1.35995,1.92992l0.04,1.98992l-1.07996,2.20991l-2.07992,-0.17999l-0.38998,0.42998l-0.60998,3.51986l0.62997,0.34999l0.39998,1.28995l1.73993,-0.30999l0.65997,0.66997l-1.60994,2.73989l-1.01996,1.13995l-0.51998,2.87988l0.33999,2.95988l-0.16999,0.79997l-2.80989,1.02996l-0.18999,0.82997l-1.55994,0.51998l-0.91996,-0.12l-0.77997,-0.74997l-1.83993,1.07996l-0.59998,1.81993l-2.5099,-0.84997l-1.34995,0.52998l-1.16995,1.15995l0.45998,1.39994l-0.95996,1.05996l-0.94996,0.33999l-0.86997,0.97996l-2.3899,0.73997l-0.61998,0.83997l-2.74989,0.43998l-0.75997,-0.62997l-0.88996,0.11l-0.47998,-0.78997l0.16999,-1.73993l-0.68997,-0.49998l1.02996,-0.97996l0.27999,-2.67989l-1.65993,0.25999l-0.17999,-0.69997l-1.72993,-0.56998l-1.22995,-0.78997l0.06,-0.64997l1.49994,-0.55998l0.23999,-1.98992l1.22995,-0.70997l1.55994,-0.08l1.38994,-0.97996l1.32995,-0.19999l0.78997,-0.61998l-0.19999,-2.19991l0.15999,-1.26995l-0.39998,-0.94996l0.50998,-0.97996l-0.34999,-0.52998l0.12,-1.84993l-0.76997,-3.60986l0.64997,-1.51994l1.44994,-0.60998l1.16995,0.66997l0.94996,-0.21999l0.05,-1.63993l-2.4999,-2.75989l-1.83993,-3.44986l-1.35995,-0.46998l-0.59998,-1.37994l-0.69997,-0.39998l-0.47998,0.98996l0.23999,0.92996l-0.26999,1.83993l-0.56998,-0.08l-0.55998,-1.66993l-0.93996,-0.58998l-0.41998,-2.07992l0.36999,-0.60998l-1.11996,-1.08996l-0.93996,-1.54994l-0.89996,0.83997l-1.54994,-0.85997l-0.72997,0.99996l-0.83997,0.17999l-1.04996,1.45994l0.14999,1.05996l-0.72997,0.30999l-0.90996,1.31995l-1.08996,-0.87996l0.05,-1.63993l-0.39998,-1.32995l0.28999,-1.01996l-0.57998,-0.60998l-0.61998,-2.05992l-0.80997,-0.14999l-1.96992,-2.29991l-0.08,-0.90996l-2.68989,-1.54994l-0.79997,-1.16995l-2.12991,1.48994l-1.01996,0.12999l-1.89992,0.76997l-2.15991,-0.18999l-1.14995,-0.59998l-0.47998,-1.58994l-0.85997,-0.69997l0.29999,-1.19995l-0.67997,-1.04996l-1.78993,-0.13999l-0.90996,-0.64997l-0.37998,-1.20995l-0.02,-0.80997l-0.97996,-1.48994l0.18999,-1.58994l0.91996,-0.84997l0.70997,-2.4999l0.60998,-0.41998l0.20999,-1.45994l-0.48998,-0.31999l-0.39998,-1.36995l-0.57998,-0.72997l1.12995,-0.67997l0.90996,0.03l1.19995,-0.78997l0.1,-1.08996l1.12995,-1.83993l0.79997,-0.60998l0.22999,-1.18995l1.06996,-0.85997l0.06,-0.73997l1.15995,-1.62993l0.64997,-1.87992l-1.68993,-1.59994l-1.88992,-0.19999l-0.85997,-1.15995l0.01,-0.96996l-1.05996,-1.09996l-0.31999,-0.83997l1.18995,-0.85997l0.49998,0.42998l1.73993,0.02l1.58994,-3.80985l-0.51998,-1.74993l0.66997,-0.46998l0.76997,0.43998l1.33995,-0.25999l0.36999,-1.75993l0.71997,0.38998l0.05,1.71993l0.62997,0.59998l0.72997,-0.43998l1.73993,-1.89992l1.52994,0.72997l0.95996,0.80997l0.71997,-0.09l1.52994,1.21995l0.88996,2.4999l0.72997,0.45998l-0.55998,2.89988l-0.72997,1.79993l1.79993,0.21999l1.38994,-1.39994l1.24995,0.03l1.86993,-2.75989l-0.28999,-0.82997l1.91992,-0.19999l1.46994,-1.49994l-0.32999,-1.99992l1.29995,-2.4999l-0.35999,-0.76997l2.02992,-1.52994l1.61994,0.04l0.12999,-1.90992l0.56998,0.02l0.95996,-2.00992l1.26995,-0.82997l1.80993,-2.6199l1.25995,-0.74997l0.47998,-0.89996l1.61994,0.66997l1.49994,-0.49998l0.37998,1.03996l1.78993,2.03992l0.06,-0.95996l0.89996,-0.69997l0.91996,-0.08l1.61994,-2.19991l0.87996,1.33995l0.74997,-0.89996l1.38994,-0.79997l2.04992,0.81997l0.82997,-0.69997l1.01996,0.35999l0.1,1.21995l-0.38998,1.17995l-0.87996,0.67997l0.77997,1.34995l0.65997,0.11l1.90992,-1.16995l1.14995,0.11l0.78997,-0.40998l0.34999,-1.70993l2.75989,-0.89996l0.57998,0.20999l0.03,2.3899l1.49994,1.45994l2.5799,0.52998l0.61998,0.75997l1.03996,-0.21999l0.81997,0.46998l1.31995,-1.62993l1.73993,0.21999l0.55998,-0.30999l1.46994,0.32999l0.1,0.86997l0.75997,1.28995l0.96996,0.33999l1.08996,1.46994l1.85993,0.49998l1.81993,-0.67997l0.95996,0.38998"/></g></g></svg>