<?xml version="1.0" encoding="UTF-8"?>
<svg width="480" height="360" version="1.1" viewBox="0 0 480 360" xmlns="http://www.w3.org/2000/svg">
 <g dominant-baseline="central" fill="#fff" aria-label="インド洋">
  <path d="m248.21 188.63v-10.02q-2.9688 1.9922-6.7773 3.3594l-1.1816-1.9824q4.3262-1.4551 7.5879-3.75 3.2031-2.2559 5.7031-5.166l1.8848 1.1816q-2.2168 2.5488-4.9414 4.6777v11.699z" dominant-baseline="central"/>
  <path d="m264.35 176.36q-3.0859-1.377-6.416-2.207l0.68359-2.0996q3.8574 0.87891 6.4746 2.1875zm-6.1719 9.7168q4.834-0.41016 7.4023-1.7285 3.0274-1.5625 4.6484-4.7949 1.0547-2.0898 1.709-5.4688l1.875 1.377q-0.79101 3.6133-1.9141 5.7422-2.0312 3.877-6.2109 5.6152-2.6367 1.0938-7.0508 1.5625z" dominant-baseline="central"/>
  <path d="m277.65 171.05h2.2754v5.8008q5.8301 1.8066 9.6582 3.6816l-1.0938 2.0996q-3.6719-1.8652-8.5645-3.5449v9.7266h-2.2754zm8.5645 5.2637q-0.59571-1.5527-1.9824-3.623l1.5137-0.55664q1.2109 1.6699 2.0215 3.5547zm2.793-0.64453q-0.73243-1.8945-1.9531-3.6328l1.4551-0.47852q1.1035 1.3379 1.9824 3.3984z" dominant-baseline="central"/>
  <path d="m303.16 175.5h-5.2246v-1.8164h2.666q-0.63477-1.4551-1.3477-2.5391l1.9434-0.72266q0.82031 1.377 1.5039 3.2617h3.1055q0.625-1.4453 1.1914-3.2617l2.1973 0.60547q-0.60547 1.543-1.2109 2.6562h2.5586v1.8164h-5.2246v2.5195h4.6387v1.7578h-4.6387v2.6953h5.7812v1.8848h-5.7812v5.1465h-2.1582v-5.1465h-5.6445v-1.8848h5.6445v-2.6953h-4.668v-1.7578h4.668zm-7.4023-0.26368q-1.1621-1.6113-3.0762-3.1348l1.4746-1.5039q1.9629 1.4258 3.2031 3.0371zm-0.63477 5.0195q-1.5234-1.8555-3.1641-3.1738l1.4844-1.5039q1.748 1.2695 3.2324 3.0566zm-2.8223 7.5195q1.7383-2.4024 3.3398-6.4551l1.6602 1.2988q-1.3672 4.1016-3.2812 6.8652z" dominant-baseline="central"/>
 </g>
</svg>
