<svg version="1.1" xmlns="http://www.w3.org/2000/svg" xmlns:xlink="http://www.w3.org/1999/xlink" width="212.92171" height="205.55288" viewBox="0,0,212.92171,205.55288"><g transform="translate(174.58255,-257.05967)"><g data-paper-data="{&quot;isPaintingLayer&quot;:true}" fill="none" fill-rule="evenodd" stroke="#fc3324" stroke-width="36" stroke-linecap="round" stroke-linejoin="round" stroke-miterlimit="4" stroke-dasharray="" stroke-dashoffset="0" style="mix-blend-mode: normal"><path d="M-156.58255,444.61255l1.8697,-1.63974l4.19933,-9.3485l5.14918,-1.76972l4.3793,-2.5196l5.57911,-0.6199l2.77956,-4.14934l-0.57991,-1.93969l-0.22996,-5.88906l0.42993,-5.86906l0.85986,-4.09934l1.33979,-1.78971l7.17885,-0.80987l3.49944,-3.68941l3.97936,-1.95969l0.25996,-2.65957l2.70957,-6.71892l2.35962,-1.12982l2.73956,-0.01l3.32947,1.93969l0.83987,4.41929l-1.8997,-0.87986l-1.2498,2.06967l0.6499,2.91953l3.88938,-3.39946l5.18917,-0.6399l4.65925,1.90969l5.46912,1.13982l4.9992,2.67957l0.94985,2.00968l1.74972,0.71988l10.13838,-3.89938l3.82939,-6.00904l2.24964,-0.65989l2.54959,0.57991l3.05951,-2.35962l-0.86986,-2.4996l-3.15949,-1.51976l-1.2298,-3.48944l-5.6191,-3.7394l-4.69925,-1.20981l-0.80987,0.44993l-6.14902,-3.16949l-2.77956,-3.7394l-2.4796,-5.38914l-8.7186,-6.8589l-1.81971,-3.18949l-0.08999,-2.58959l-3.24948,-1.8697l-0.77988,-3.1195l-5.5991,-3.21948l-1.74972,1.61974l-3.0995,-0.37994l-7.35882,2.76956l-3.27948,-0.6399l-3.66941,-2.20965l-1.64974,-2.43961l-3.48944,-2.5096l-0.69989,-1.56975l-4.54927,-3.1495l-2.27964,-2.85954l-3.94937,-0.34994l-4.11934,-1.70973l-2.24964,-2.53959l-0.82987,-3.1295l0.09998,-5.55911l1.77972,-7.76876l3.36946,-8.70861l4.3993,-8.31867l2.60958,-3.81939l4.9692,-5.55911l2.68957,-2.18965l3.55943,0.6399l2.73956,-0.38994l2.86954,2.29963l7.13886,-2.04967l5.68909,-0.17997l1.31979,0.53991l5.35914,4.63926l1.52976,2.63958l0.24996,4.02936l1.8497,-0.08999l4.19933,4.01936l2.19965,0.6499l3.32947,5.20917l1.32979,6.83891l2.72956,1.77972l5.04919,1.12982l-0.26996,3.81939l-3.35946,-2.4896l-1.96968,1.07983l1.81971,2.78955l1.92969,1.2298l3.55943,0.74988l0.50992,-2.07967l6.73892,-8.7286l7.90873,-7.90873l5.03919,-1.77972l7.42881,-6.64894l5.94905,-4.69925l7.80875,-5.10918l4.3893,-2.41961l6.31899,-2.60958l9.91841,-2.5296l0.99984,-0.89986l6.11902,-2.77956l-6.42897,3.97936l2.83955,-0.31995l5.32915,0.36994l7.44881,1.72972l-0.6099,1.10982l4.05935,0.15997l8.32867,3.92937l1.34978,2.26964l4.82923,4.28931"/></g></g></svg>