<svg version="1.1" xmlns="http://www.w3.org/2000/svg" xmlns:xlink="http://www.w3.org/1999/xlink" width="224" height="156" viewBox="0,0,224,156"><g transform="translate(-128,-180)"><g data-paper-data="{&quot;isPaintingLayer&quot;:true}" stroke="none" stroke-width="1" stroke-linecap="butt" stroke-linejoin="miter" stroke-miterlimit="10" stroke-dasharray="" stroke-dashoffset="0" style="mix-blend-mode: normal"><path d="M352,180v156h-224v-156z" fill="#1d2a41" fill-rule="evenodd"/><g fill="#ffffff" fill-rule="nonzero"><path d="M147.35,193.6h4.9561v1.2168h-1.9346c-0.22787,0.71547 -0.47852,1.374 -0.75196,1.9756h3.6846v1.2441h-13.303v-1.2441h3.5889c-0.18685,-0.63347 -0.43978,-1.292 -0.75879,-1.9756h-1.8389v-1.2168h4.8604v-1.2715h1.4971zM144.4447,194.8168c0.26888,0.6152 0.50586,1.27373 0.71094,1.9756h2.9326c0.26888,-0.6244 0.49902,-1.28293 0.69043,-1.9756zM151.1713,198.9799v6.6513h-1.5244v-0.7177h-6.0088v0.7177h-1.5107v-6.6513zM143.6381,200.142v1.1894h6.0088v-1.1894zM143.6381,202.4252v1.3125h6.0088v-1.3125z"/><path d="M155.19,194.3h3.6846c0.4056,-0.64713 0.71322,-1.16893 0.92286,-1.5654l1.5244,0.2187c-0.13672,0.24613 -0.37826,0.64717 -0.72461,1.2031l-0.0889,0.1436h4.8193v1.3467h-5.7285c-0.597,0.82027 -1.16667,1.5312 -1.709,2.1328c0.86133,-0.515 1.64747,-0.7725 2.3584,-0.7725c1.10287,0 1.8252,0.55373 2.167,1.6612c1.16667,-0.3874 2.35613,-0.77023 3.5684,-1.1485l0.58789,1.3262l-0.23926,0.068l-0.67676,0.1777c-1.27607,0.34633 -2.2969,0.64257 -3.0625,0.8887c0.05467,0.5924 0.0934,1.358 0.11621,2.2968l-1.4971,0.082c-0.00467,-0.54233 -0.01377,-1.13023 -0.0273,-1.7637v-0.1367c-2.09633,0.71547 -3.1445,1.4355 -3.1445,2.1601c0,0.37373 0.26888,0.62897 0.80664,0.7657c0.51953,0.13213 1.44923,0.1982 2.7891,0.1982c1.235,0 2.53153,-0.07063 3.8896,-0.2119l0.16406,1.456c-1.31707,0.10027 -2.68197,0.1504 -4.0947,0.1504c-1.74087,0 -2.97817,-0.13217 -3.7119,-0.3965c-0.90693,-0.32807 -1.3604,-0.91823 -1.3604,-1.7705c0,-0.72 0.32129,-1.35573 0.96387,-1.9072c0.66537,-0.56967 1.8366,-1.15757 3.5137,-1.7637c-0.09115,-0.35087 -0.21191,-0.59693 -0.3623,-0.7382c-0.16862,-0.15953 -0.39193,-0.2393 -0.66993,-0.2393c-0.45117,0 -1.01853,0.1709 -1.7021,0.5127c-0.84307,0.41927 -1.7477,1.05047 -2.7139,1.8936l-0.90918,-1.0391c1.41733,-1.31707 2.52703,-2.61133 3.3291,-3.8828h-2.7822z"/><path d="M172.28,193.4v9.4473h-2.7139v1.1348h-1.2578v-10.582zM169.5661,194.7467v6.7539h1.4697v-6.7539zM175.5134,193.4821c0.11849,-0.3236 0.23697,-0.75653 0.35546,-1.2988l1.5244,0.2187c-0.12305,0.35547 -0.27344,0.7155 -0.45117,1.0801h3.165v4.2656h-5.6396v0.6494h6.8975v1.0801h-6.8975v0.6426h6.5625c-0.05013,2.2604 -0.15039,3.7119 -0.30078,4.3545c-0.09571,0.4056 -0.25749,0.69497 -0.48536,0.8681c-0.23697,0.17773 -0.63344,0.2666 -1.1894,0.2666c-0.55599,0 -1.04132,-0.025 -1.456,-0.075l-0.27344,-1.3125c0.53776,0.07293 1.04363,0.1094 1.5176,0.1094c0.26432,0 0.43294,-0.07063 0.50586,-0.2119c0.11849,-0.2324 0.22102,-1.17577 0.30761,-2.8301l0.007,-0.1025h-6.5693v-7.7041zM174.4675,194.4596v0.7041h4.2656v-0.7041zM174.4675,196.0729v0.7246h4.2656v-0.7246zM174.67941,204.8229c-0.03647,-1.1074 -0.12533,-2.09177 -0.2666,-2.9531l0.96387,-0.1983c0.24153,0.9388 0.39192,1.8776 0.45117,2.8164zM172.04761,204.5563c0.41927,-0.8932 0.69954,-1.8548 0.84082,-2.8848l1.1211,0.2256c-0.15039,1.3672 -0.38965,2.46323 -0.71777,3.2881zM176.56621,204.3717c-0.18685,-1.01627 -0.39648,-1.88443 -0.62891,-2.6045l0.88184,-0.3076c0.30989,0.6836 0.58105,1.5153 0.81348,2.4951zM178.30251,203.7428c-0.18685,-0.67447 -0.45801,-1.37857 -0.81348,-2.1123l0.82715,-0.376c0.38281,0.60613 0.68132,1.2624 0.89551,1.9688z"/><path d="M190.96,195.5c-1.7272,-0.7656 -3.67317,-1.3535 -5.8379,-1.7637l0.57422,-1.2168c2.22393,0.41473 4.18813,0.9548 5.8926,1.6202zM183.1602,200.5108c0.18685,-2.1784 0.46712,-4.07653 0.84082,-5.6944l1.4697,0.2735c-0.34635,1.44007 -0.56966,2.789 -0.66993,4.0468c0.66081,-0.50587 1.42188,-0.90917 2.2832,-1.2099c0.82487,-0.29167 1.59503,-0.4375 2.3105,-0.4375c1.07093,0 1.94593,0.20733 2.625,0.622c0.90693,0.5606 1.3604,1.4584 1.3604,2.6934c0,1.21227 -0.41243,2.15107 -1.2373,2.8164c-1.153,0.9206 -3.1582,1.42873 -6.0156,1.5244l-0.54688,-1.415c1.90953,-0.00667 3.3633,-0.1844 4.3613,-0.5332c1.20767,-0.41927 1.8115,-1.21907 1.8115,-2.3994c0,-0.7474 -0.2666,-1.3034 -0.7998,-1.668c-0.42383,-0.29167 -0.97983,-0.4375 -1.668,-0.4375c-0.9798,0 -2.03253,0.3213 -3.1582,0.9639c-0.68813,0.39187 -1.30337,0.8681 -1.8457,1.4287z"/><path d="M202.25,192.6h1.5381v1.8867h4.0332v1.3193h-4.0332v2.9258c0.15951,0.56053 0.23926,1.05957 0.23926,1.4971c0,1.6224 -0.35773,2.81413 -1.0732,3.5752c-0.77933,0.83393 -1.95283,1.41043 -3.5205,1.7295l-0.7793,-1.1621c1.2168,-0.23247 2.11913,-0.5606 2.707,-0.9844c0.55143,-0.40107 0.92283,-0.94567 1.1142,-1.6338c-0.48763,0.5332 -1.06869,0.7998 -1.7432,0.7998c-0.75653,0 -1.3695,-0.2142 -1.8389,-0.6426c-0.55143,-0.50587 -0.82715,-1.2396 -0.82715,-2.2012c0,-0.5058 0.12077,-0.9934 0.36231,-1.4628c0.15951,-0.3008 0.35547,-0.55147 0.58789,-0.752c0.53776,-0.45573 1.18263,-0.6836 1.9346,-0.6836c0.47851,0 0.91145,0.11393 1.2988,0.3418v-1.3467h-6.7471v-1.3193h6.7471zM202.3047,199.6957v-0.253c0,-0.29167 -0.06836,-0.54913 -0.20507,-0.7724c-0.25521,-0.41927 -0.62435,-0.6289 -1.1074,-0.6289c-0.24609,0 -0.47624,0.06837 -0.69043,0.2051c-0.5013,0.3144 -0.75195,0.79747 -0.75195,1.4492c0,0.41013 0.09115,0.75647 0.27344,1.039c0.25521,0.39193 0.63117,0.5879 1.1279,0.5879c0.45117,0 0.80891,-0.2028 1.0732,-0.6084c0.18685,-0.28707 0.28027,-0.62657 0.28027,-1.0185z"/><path d="M216.84,196.2c0.31901,0.16407 0.68588,0.36003 1.1006,0.5879l-0.86816,0.7041h4.1152l0.77246,0.7725c-1.0254,1.54487 -2.0485,2.81407 -3.0693,3.8076l-1.3877,-0.8135c0.8978,-0.82033 1.61787,-1.6361 2.1602,-2.4473h-3.4043v5.3594c0,0.6198 -0.15267,1.0163 -0.45801,1.1895c-0.20508,0.11847 -0.58788,0.1777 -1.1484,0.1777c-0.73373,0 -1.54267,-0.04557 -2.4268,-0.1367l-0.33497,-1.5244c0.8522,0.13667 1.6087,0.205 2.2695,0.205c0.25065,0 0.40559,-0.041 0.46484,-0.123c0.0456,-0.06833 0.0684,-0.19367 0.0684,-0.376v-4.7715h-5.7285v-1.3193h7.4102c-1.5404,-0.88413 -3.08077,-1.63153 -4.6211,-2.2422l1.1074,-0.8818c1.03453,0.41467 1.94827,0.81797 2.7412,1.2099c0.7018,-0.47847 1.31703,-0.94787 1.8457,-1.4082h-7.3076v-1.2988h9.2969l0.84082,0.8203c-1.194,0.9616 -2.34017,1.79787 -3.4385,2.5088z"/><path d="M225.48,197c-0.59245,1.08013 -1.27831,1.96427 -2.0576,2.6524l-0.78614,-1.2715c1.0208,-0.77473 1.88213,-1.82063 2.584,-3.1377h-2.2627v-1.2578h2.5225v-1.6543h1.4697v1.6543h1.9756v1.2578h-1.9756v0.834c0.8112,0.46487 1.53353,0.95707 2.167,1.4766l-0.82715,1.2031c-0.43294,-0.48307 -0.87954,-0.91373 -1.3398,-1.292v3.042h-1.4697zM229.6773,200.2813c0.58333,0.556 1.15753,1.22363 1.7226,2.0029l-1.2168,0.8682c-0.62891,-0.97073 -1.23731,-1.72723 -1.8252,-2.2695l0.97071,-0.6768v-7.3828h5.8379v7.458zM230.7095,193.9444v1.0459h3.042v-1.0459zM230.7095,196.043v1.0322h3.042v-1.0322zM230.7095,198.1143v1.0459h3.042v-1.0459zM222.814,204.4717c0.52409,-0.85673 0.93195,-1.90717 1.2236,-3.1513l1.4219,0.4033c-0.25521,1.46287 -0.69271,2.6865 -1.3125,3.6709zM226.5532,201.334h1.4971v2.1807c0,0.28253 0.06836,0.45117 0.20507,0.5059c0.17318,0.064 0.65171,0.096 1.4356,0.096c0.7474,0 1.24643,-0.025 1.4971,-0.075c0.18229,-0.04133 0.2985,-0.14617 0.34863,-0.3145c0.06836,-0.22787 0.11393,-0.64257 0.13672,-1.2441l1.5107,0.3486c-0.0182,0.67907 -0.06833,1.16443 -0.15039,1.4561c-0.11393,0.41467 -0.28255,0.6972 -0.50586,0.8476c-0.19141,0.1322 -0.46712,0.20967 -0.82714,0.2324c-0.7474,0.04533 -1.5153,0.068 -2.3037,0.068c-1.32613,0 -2.13507,-0.07747 -2.4268,-0.2324c-0.278,-0.1504 -0.417,-0.46943 -0.417,-0.9571zM234.8862,204.9981c-0.55143,-1.33073 -1.1644,-2.45867 -1.8389,-3.3838l1.251,-0.7451c0.75193,1.0026 1.3945,2.08497 1.9277,3.2471z"/><path d="M242.62,194.2v-0.5879h-4.2725v-0.9775h10.09v0.9775h-4.3613v0.5879h5.6602v2.4541h-1.4834v-1.5723h-4.1768v2.6592h-1.4561v-2.6592h-4.1016v1.5723h-1.4697v-2.4541zM247.4598,203.9002c0.69727,0.26433 1.5677,0.47397 2.6113,0.6289l-0.79981,1.1621c-1.46287,-0.25067 -2.6637,-0.68133 -3.6025,-1.292c-0.93427,-0.61067 -1.66117,-1.36943 -2.1807,-2.2763h-1.5107v2.1054c1.00713,-0.14127 1.94137,-0.29167 2.8027,-0.4512l0.0957,1.0186c-1.60413,0.3828 -3.43843,0.7155 -5.5029,0.9981l-0.40332,-1.2032c0.71547,-0.07747 1.20537,-0.13213 1.4697,-0.164l0.082,-0.014v-2.29h-1.4971c-0.0638,0.80207 -0.16862,1.44237 -0.31445,1.9209c-0.17318,0.5742 -0.45118,1.10967 -0.83399,1.6064l-1.2168,-1.0049c0.44661,-0.5788 0.72461,-1.25557 0.83398,-2.0303c0.05927,-0.41927 0.0889,-0.94107 0.0889,-1.5654v-2.8984h11.799v0.9092h-10.329v2.0986h10.917v0.9639h-1.5518l0.86816,0.5742c-0.51497,0.42833 -1.12337,0.82937 -1.8252,1.2031zM246.3934,203.3738c0.65625,-0.4466 1.17805,-0.86357 1.5654,-1.2509h-2.9873c0.39193,0.50127 0.86589,0.91823 1.4219,1.2509zM239.12,195.5877h2.9121v0.7725h-2.9121zM239.12,196.8455h2.9121v0.7861h-2.9121zM244.664,195.5877h3.001v0.7725h-3.001zM244.664,196.8455h3.001v0.7861h-3.001zM239.8652,199.6346h8.5107v0.8955h-8.5107z"/><path d="M258.46,193.6h5.3594v1.1484h-3.0352v1.1348h2.8438v1.1074h-2.8438v2.0371h-5.5029v-2.0371h-2.2422v1.2715c0,2.06447 -0.10937,3.69597 -0.32812,4.8945c-0.16862,0.91147 -0.44206,1.74317 -0.82031,2.4951l-1.2442,-0.9844c0.34636,-0.75193 0.58334,-1.6702 0.71094,-2.7548c0.11393,-0.95247 0.1709,-2.16927 0.1709,-3.6504v-4.6621h5.4072v-1.2305h1.5244zM253.0391,194.7484v1.1348h2.2422v-1.1348zM256.7373,194.7484v1.1348h2.5908v-1.1348zM256.7373,196.9906v1.0596h2.5908v-1.0596zM258.3232,204.1683c-1.31707,0.6836 -2.9896,1.20313 -5.0176,1.5586l-0.71093,-1.2578c1.90493,-0.22787 3.39743,-0.5765 4.4775,-1.0459c-0.92513,-0.66993 -1.71583,-1.46517 -2.3721,-2.3857h-0.94336v-1.1895h8.0049l0.71777,0.6016c-0.67907,1.0436 -1.6475,2.0257 -2.9053,2.9463c1.08007,0.43293 2.55207,0.75193 4.416,0.957l-0.7998,1.292c-1.78647,-0.24153 -3.40887,-0.73373 -4.8672,-1.4766zM256.2929,201.0375c0.55143,0.64713 1.22137,1.2168 2.0098,1.709c0.88867,-0.57427 1.57453,-1.14393 2.0576,-1.709z"/></g><g fill="#ffffff" fill-rule="nonzero"><path d="M147.35,263.8h4.9561v1.2168h-1.9346c-0.22787,0.71547 -0.47852,1.37397 -0.75196,1.9755h3.6846v1.2442h-13.303v-1.2442h3.5889c-0.18685,-0.63347 -0.43978,-1.29197 -0.75879,-1.9755h-1.8389v-1.2168h4.8604v-1.2715h1.4971zM144.4447,265.0168c0.26888,0.6152 0.50586,1.2737 0.71094,1.9755h2.9326c0.26888,-0.62433 0.49902,-1.28283 0.69043,-1.9755zM151.1713,269.1798v6.6514h-1.5244v-0.7178h-6.0088v0.7178h-1.5107v-6.6514zM143.6381,270.342v1.1894h6.0088v-1.1894zM143.6381,272.6252v1.3125h6.0088v-1.3125z"/><path d="M155.19,264.4h3.6846c0.4056,-0.64713 0.71322,-1.16897 0.92286,-1.5655l1.5244,0.2188c-0.13672,0.24607 -0.37826,0.6471 -0.72461,1.2031l-0.0889,0.1436h4.8193v1.3467h-5.7285c-0.597,0.82027 -1.16667,1.5312 -1.709,2.1328c0.86133,-0.515 1.64747,-0.7725 2.3584,-0.7725c1.10287,0 1.8252,0.5537 2.167,1.6611c1.16667,-0.38733 2.35613,-0.77013 3.5684,-1.1484l0.58789,1.3262l-0.23926,0.068l-0.67676,0.1778c-1.27607,0.34633 -2.2969,0.64253 -3.0625,0.8886c0.05467,0.59247 0.0934,1.3581 0.11621,2.2969l-1.4971,0.082c-0.00467,-0.54227 -0.01377,-1.13013 -0.0273,-1.7636v-0.1367c-2.09633,0.71547 -3.1445,1.4355 -3.1445,2.1601c0,0.37373 0.26888,0.62893 0.80664,0.7656c0.51953,0.1322 1.44923,0.1983 2.7891,0.1983c1.235,0 2.53153,-0.07063 3.8896,-0.2119l0.16406,1.456c-1.31707,0.10027 -2.68197,0.1504 -4.0947,0.1504c-1.74087,0 -2.97817,-0.13217 -3.7119,-0.3965c-0.90693,-0.32813 -1.3604,-0.9183 -1.3604,-1.7705c0,-0.72007 0.32129,-1.3558 0.96387,-1.9072c0.66537,-0.56967 1.8366,-1.15757 3.5137,-1.7637c-0.09115,-0.35087 -0.21191,-0.59697 -0.3623,-0.7383c-0.16862,-0.15947 -0.39193,-0.2392 -0.66993,-0.2392c-0.45117,0 -1.01853,0.1709 -1.7021,0.5127c-0.84307,0.41927 -1.7477,1.05043 -2.7139,1.8935l-0.90918,-1.039c1.41733,-1.31707 2.52703,-2.61133 3.3291,-3.8828h-2.7822z"/><path d="M172.28,263.6v9.4473h-2.7139v1.1348h-1.2578v-10.582zM169.5661,264.9467v6.7539h1.4697v-6.7539zM175.5134,263.6821c0.11849,-0.3236 0.23697,-0.75657 0.35546,-1.2989l1.5244,0.2188c-0.12305,0.35547 -0.27344,0.7155 -0.45117,1.0801h3.165v4.2656h-5.6396v0.6494h6.8975v1.0801h-6.8975v0.6426h6.5625c-0.05013,2.2604 -0.15039,3.71187 -0.30078,4.3544c-0.09571,0.4056 -0.25749,0.695 -0.48536,0.8682c-0.23697,0.17773 -0.63344,0.2666 -1.1894,0.2666c-0.55599,0 -1.04132,-0.025 -1.456,-0.075l-0.27344,-1.3125c0.53776,0.07293 1.04363,0.1094 1.5176,0.1094c0.26432,0 0.43294,-0.07063 0.50586,-0.2119c0.11849,-0.23247 0.22102,-1.17583 0.30761,-2.8301l0.007,-0.1025h-6.5693v-7.7041zM174.4675,264.6596v0.7041h4.2656v-0.7041zM174.4675,266.2729v0.7246h4.2656v-0.7246zM174.67941,275.0229c-0.03647,-1.10747 -0.12533,-2.09183 -0.2666,-2.9531l0.96387,-0.1983c0.24153,0.9388 0.39192,1.8776 0.45117,2.8164zM172.04761,274.7563c0.41927,-0.89327 0.69954,-1.85487 0.84082,-2.8848l1.1211,0.2256c-0.15039,1.3672 -0.38965,2.46323 -0.71777,3.2881zM176.56621,274.5717c-0.18685,-1.01627 -0.39648,-1.88443 -0.62891,-2.6045l0.88184,-0.3076c0.30989,0.6836 0.58105,1.5153 0.81348,2.4951zM178.30251,273.9428c-0.18685,-0.67447 -0.45801,-1.37857 -0.81348,-2.1123l0.82715,-0.376c0.38281,0.60613 0.68132,1.2624 0.89551,1.9688z"/><path d="M190.96,265.7c-1.7272,-0.7656 -3.67317,-1.3535 -5.8379,-1.7637l0.57422,-1.2168c2.22393,0.41473 4.18813,0.95477 5.8926,1.6201zM183.1602,270.7107c0.18685,-2.17833 0.46712,-4.07643 0.84082,-5.6943l1.4697,0.2734c-0.34635,1.44013 -0.56966,2.7891 -0.66993,4.0469c0.66081,-0.50587 1.42188,-0.9092 2.2832,-1.21c0.82487,-0.29167 1.59503,-0.4375 2.3105,-0.4375c1.07093,0 1.94593,0.20737 2.625,0.6221c0.90693,0.56053 1.3604,1.45833 1.3604,2.6934c0,1.2122 -0.41243,2.151 -1.2373,2.8164c-1.153,0.92053 -3.1582,1.42867 -6.0156,1.5244l-0.54688,-1.415c1.90953,-0.00667 3.3633,-0.1844 4.3613,-0.5332c1.20767,-0.41933 1.8115,-1.21917 1.8115,-2.3995c0,-0.7474 -0.2666,-1.30337 -0.7998,-1.6679c-0.42383,-0.29167 -0.97983,-0.4375 -1.668,-0.4375c-0.9798,0 -2.03253,0.32127 -3.1582,0.9638c-0.68813,0.39193 -1.30337,0.86817 -1.8457,1.4287z"/><path d="M202.25,262.8h1.5381v1.8867h4.0332v1.3193h-4.0332v2.9258c0.15951,0.56053 0.23926,1.05957 0.23926,1.4971c0,1.6224 -0.35773,2.81413 -1.0732,3.5752c-0.77933,0.83393 -1.95283,1.4104 -3.5205,1.7294l-0.7793,-1.1621c1.2168,-0.2324 2.11913,-0.5605 2.707,-0.9843c0.55143,-0.40107 0.92283,-0.94567 1.1142,-1.6338c-0.48763,0.5332 -1.06869,0.7998 -1.7432,0.7998c-0.75653,0 -1.3695,-0.2142 -1.8389,-0.6426c-0.55143,-0.50587 -0.82715,-1.2396 -0.82715,-2.2012c0,-0.50587 0.12077,-0.9935 0.36231,-1.4629c0.15951,-0.30073 0.35547,-0.55137 0.58789,-0.7519c0.53776,-0.45573 1.18263,-0.6836 1.9346,-0.6836c0.47851,0 0.91145,0.11393 1.2988,0.3418v-1.3467h-6.7471v-1.3193h6.7471zM202.3047,269.8957v-0.253c0,-0.29167 -0.06836,-0.54913 -0.20507,-0.7724c-0.25521,-0.41927 -0.62435,-0.6289 -1.1074,-0.6289c-0.24609,0 -0.47624,0.06833 -0.69043,0.205c-0.5013,0.31447 -0.75195,0.79757 -0.75195,1.4493c0,0.41013 0.09115,0.75647 0.27344,1.039c0.25521,0.39193 0.63117,0.5879 1.1279,0.5879c0.45117,0 0.80891,-0.2028 1.0732,-0.6084c0.18685,-0.28713 0.28027,-0.62663 0.28027,-1.0185z"/><path d="M209.05,264.1h10.685l1.0186,0.9229c-0.7064,1.52213 -1.54493,2.8574 -2.5156,4.0058c-0.75193,0.88413 -1.6201,1.7113 -2.6045,2.4815c0.77473,0.8294 1.40363,1.56083 1.8867,2.1943l-1.2578,1.1074c-1.59507,-2.11913 -3.60257,-4.17217 -6.0225,-6.1591l1.0801,-1.0801c1.01173,0.8066 2.11233,1.7773 3.3018,2.9121c1.235,-0.95247 2.2809,-2.028 3.1377,-3.2266c0.41015,-0.57873 0.74969,-1.16433 1.0186,-1.7568h-9.7275z"/><path d="M231.42,264.8l1.2305,1.2167c-0.51497,2.59313 -1.43784,4.6257 -2.7686,6.0977c-1.25327,1.3854 -3.14,2.45637 -5.6602,3.2129l-0.85449,-1.3809c2.2012,-0.55593 3.9079,-1.4446 5.1201,-2.666c1.32613,-1.33527 2.19657,-3.0283 2.6113,-5.0791h-4.5391c-0.8932,1.33073 -1.98467,2.43133 -3.2744,3.3018l-1.1074,-1.1348c1.03907,-0.66533 1.889,-1.39223 2.5498,-2.1807c0.7474,-0.90233 1.3444,-1.99607 1.791,-3.2812l1.4697,0.4102c-0.19141,0.53773 -0.40104,1.0322 -0.6289,1.4834zM231.86434,264.9367c-0.27344,-0.75653 -0.67904,-1.5176 -1.2168,-2.2832l1.1484,-0.2598c0.46484,0.59247 0.87954,1.34213 1.2441,2.249zM233.92194,264.8547c-0.29167,-0.85673 -0.6927,-1.66793 -1.2031,-2.4336l1.1211,-0.2392c0.46485,0.63347 0.86588,1.40363 1.2031,2.3105z"/><path d="M237.02,264.7h9.4062v1.4697h-9.4062zM235.6323,272.5271h12.182v1.4834h-12.182z"/><path d="M254.38,267.8v-2.6318c-1.15753,0.1458 -2.45637,0.24833 -3.8965,0.3076l-0.44433,-1.3193c3.62307,-0.16867 6.44173,-0.5834 8.456,-1.2442l0.89551,1.2442c-1.01627,0.3144 -2.17383,0.57643 -3.4727,0.7861v2.8574h5.2227v1.4014h-5.25c-0.09571,1.472 -0.44891,2.65917 -1.0596,3.5615c-0.77473,1.14847 -1.87303,2.0189 -3.2949,2.6113l-0.99121,-1.2715c1.4264,-0.58333 2.43583,-1.35123 3.0283,-2.3037c0.42838,-0.68813 0.68359,-1.554 0.76562,-2.5976h-5.4482v-1.4014z"/><path d="M263.75,266.1h6.877c-0.10937,2.01887 -0.32584,4.30207 -0.64941,6.8496l-0.0615,0.4785h2.584v1.2988h-10.049v-1.2988h5.9951c0.35091,-2.45633 0.56054,-4.4661 0.6289,-6.0293h-5.3252z"/><path d="M274.2,268.1h12.038v1.5381h-12.038z"/><path d="M288.941,262.9h1.5928v4.0606c2.72073,0.84307 4.9743,1.7021 6.7607,2.5771l-0.76562,1.4697c-1.71353,-0.8704 -3.7119,-1.69753 -5.9951,-2.4814v6.8086h-1.5928zM294.9361,266.5846c-0.27799,-0.7246 -0.74056,-1.56997 -1.3877,-2.5361l1.0596,-0.3897c0.56511,0.77933 1.03677,1.60877 1.415,2.4883zM296.8912,266.1334c-0.3418,-0.88407 -0.79753,-1.7317 -1.3672,-2.5429l1.0186,-0.335c0.51497,0.62433 0.97754,1.4173 1.3877,2.3789z"/></g></g></g></svg>