<svg version="1.1" xmlns="http://www.w3.org/2000/svg" xmlns:xlink="http://www.w3.org/1999/xlink" width="220" height="122" viewBox="0,0,220,122"><g transform="translate(-130,-156)"><g data-paper-data="{&quot;isPaintingLayer&quot;:true}" stroke="none" stroke-width="1" stroke-linecap="butt" stroke-linejoin="miter" stroke-miterlimit="10" stroke-dasharray="" stroke-dashoffset="0" style="mix-blend-mode: normal"><path d="M140,156h200c5.54,0 10,4.46 10,10v28c0,5.54 -4.46,10 -10,10h-200c-5.54,0 -10,-4.46 -10,-10v-28c0,-5.54 4.46,-10 10,-10z" fill="#e4e600" fill-rule="evenodd"/><g fill="#191500" fill-rule="nonzero"><path d="M139.187,175.8c0.793,-1.16666 1.4743,-2.59537 2.0439,-4.2861c0.6198,-1.85027 1.01173,-3.73013 1.1758,-5.6396l1.5654,0.32129c-0.4056,2.7982 -0.9502,5.14977 -1.6338,7.0547c-0.49219,1.3854 -1.09832,2.59993 -1.8184,3.6436zM150.22,176.9621c-1.64973,-2.73893 -2.9235,-6.33227 -3.8213,-10.78l1.4834,-0.45801c0.793,3.97394 2.02346,7.37594 3.6914,10.206zM149.50223,167.4875c-0.26432,-0.7246 -0.72462,-1.56544 -1.3809,-2.5225l1.0732,-0.38965c0.52409,0.72007 0.99576,1.54494 1.415,2.4746zM151.46413,167.17988c-0.35091,-0.90694 -0.80892,-1.75687 -1.374,-2.5498l1.0254,-0.33496c0.54232,0.66537 1.00489,1.46747 1.3877,2.4063z"/><path d="M153.242,170.228h12.038v1.5381h-12.038z"/><path d="M172.006,168.212c-1.3444,-0.60156 -2.71613,-1.10512 -4.1152,-1.5107l0.44434,-1.3535c1.5768,0.39192 2.95994,0.87042 4.1494,1.4355zM170.6046,171.712c-1.12106,-0.49219 -2.4928,-0.99575 -4.1152,-1.5107l0.58789,-1.3672c1.39453,0.36914 2.74803,0.85904 4.0605,1.4697zM167.3712,175.4786c1.76367,-0.14128 3.16277,-0.3942 4.1973,-0.75879c2.66146,-0.94333 4.36133,-3.08297 5.0996,-6.4189l1.4014,0.84082c-0.60612,2.55667 -1.73632,4.45934 -3.3906,5.708c-1.08467,0.82034 -2.42906,1.40366 -4.0332,1.75c-0.7702,0.16862 -1.71584,0.30534 -2.8369,0.41016zM176.0255,167.5694c-0.29166,-0.72007 -0.7588,-1.52217 -1.4014,-2.4063l1.0801,-0.38965c0.57878,0.78386 1.04361,1.57684 1.3945,2.3789zM178.0968,167.19342c-0.37825,-0.8978 -0.83625,-1.709 -1.374,-2.4336l1.0117,-0.32812c0.54232,0.62891 1.00262,1.39907 1.3809,2.3105z"/><path d="M180.572,167.85h8.415v8.9893h-8.7363v-1.2988h7.2939v-2.707h-6.6924v-1.2852h6.6924v-2.3994h-6.9727z"/><path d="M196.493,168.69c-1.44013,-0.64258 -2.9372,-1.15754 -4.4912,-1.5449l0.47852,-1.4697c1.80014,0.41016 3.31086,0.92056 4.5322,1.5312zM192.1727,175.4918c2.25587,-0.19141 3.98307,-0.59474 5.1816,-1.21c1.41273,-0.7292 2.49737,-1.848 3.2539,-3.3564c0.49219,-0.97527 0.89095,-2.2513 1.1963,-3.8281l1.3125,0.96387c-0.36914,1.6862 -0.81574,3.02604 -1.3398,4.0195c-0.94794,1.80927 -2.39717,3.1195 -4.3477,3.9307c-1.23047,0.51041 -2.87563,0.87501 -4.9355,1.0938z"/><path d="M204.457,167.61h3.0215c0.13672,-0.7018 0.28939,-1.57453 0.45801,-2.6182l0.03418,-0.19824l1.4971,0.22559c-0.15494,0.96614 -0.31446,1.82973 -0.47852,2.5908h0.82715c1.09374,0 1.8776,0.24609 2.3516,0.73828c0.42382,0.44206 0.63574,1.13022 0.63574,2.0645c0,1.57226 -0.16634,3.042 -0.49902,4.4092c-0.19141,0.77473 -0.42382,1.34667 -0.69726,1.7158c-0.34635,0.46028 -0.82716,0.69043 -1.4424,0.69043c-0.73827,0 -1.5449,-0.23698 -2.4199,-0.71094l0.1709,-1.4424c0.86587,0.41472 1.53807,0.62207 2.0166,0.62207c0.25065,0 0.44434,-0.13444 0.58106,-0.40332c0.14584,-0.29166 0.28483,-0.7132 0.41699,-1.2646c0.25976,-1.11653 0.38965,-2.29003 0.38965,-3.5205c0,-0.64713 -0.12989,-1.0664 -0.38965,-1.2578c-0.22331,-0.1595 -0.62207,-0.23926 -1.1963,-0.23926h-1.0527c-0.7246,3.22654 -1.76367,5.97913 -3.1172,8.2578l-1.374,-0.75195c1.39907,-2.347 2.3971,-4.84896 2.9941,-7.5059h-2.7275zM215.811,174.3571c-0.51497,-1.89586 -1.32844,-3.75754 -2.4404,-5.585l1.333,-0.60156c1.14846,1.832 2.0075,3.67544 2.5771,5.5303zM214.7993,167.8083c-0.28256,-0.73827 -0.73828,-1.55857 -1.3672,-2.4609l1.0596,-0.39648c0.55143,0.77927 1.014,1.5882 1.3877,2.4268zM216.6382,167.22041c-0.35547,-0.87954 -0.80893,-1.70666 -1.3604,-2.4814l1.0049,-0.33496c0.52409,0.62435 0.98208,1.40364 1.374,2.3379z"/><path d="M229.941,164.8828v4.2861h-10.233v-4.2861zM221.232,165.86034v0.7041h7.1846v-0.7041zM221.232,167.45994v0.7998h7.1846v-0.7998zM224.65,171.05564v5.7012c0.88867,-0.24153 1.70213,-0.65624 2.4404,-1.2441c-0.69273,-0.80667 -1.21683,-1.67484 -1.5723,-2.6045h-0.58789v-1.0938h5.2773l0.66992,0.58789c-0.49675,1.20314 -1.11881,2.23537 -1.8662,3.0967c0.66994,0.4375 1.50846,0.80893 2.5156,1.1143l-0.84082,1.251c-1.03906,-0.39192 -1.91406,-0.87042 -2.625,-1.4355c-0.77927,0.64258 -1.693,1.15298 -2.7412,1.5312l-0.66992,-1.0049v0.93652h-1.415v-1.5244c-1.29426,0.25976 -2.89616,0.49219 -4.8057,0.69727l-0.37598,-1.2578c0.60156,-0.0319 1.11426,-0.0638 1.5381,-0.0957v-4.6553h-1.4287v-1.1348h13.303v1.1348zM223.235,171.05564h-2.2422v0.82715h2.2422zM223.235,172.79194h-2.2422v0.84082h2.2422zM223.235,174.52824h-2.2422v1.0459c0.38736,-0.04101 0.67903,-0.07291 0.875,-0.0957c0.52409,-0.05469 0.97982,-0.10709 1.3672,-0.15723zM227.9791,174.64445c0.41472,-0.47851 0.78842,-1.05728 1.1211,-1.7363h-2.3174c0.28256,0.61524 0.68132,1.194 1.1963,1.7363z"/><path d="M236.41,173.182c0.66082,0.36003 1.39225,0.8659 2.1943,1.5176l-0.7793,1.2715c-0.51497,-0.57878 -0.98664,-1.05501 -1.415,-1.4287v3.3496h-1.4014v-3.6504c-0.61524,1.1302 -1.34667,2.07583 -2.1943,2.8369l-0.7998,-1.292c1.01627,-0.72007 1.86164,-1.61557 2.5361,-2.6865h-2.1602v-1.2031h2.6182v-1.333h-2.8848v-1.2578h1.4971c-0.11848,-0.57878 -0.28483,-1.20997 -0.49902,-1.8936h-0.73145v-1.2715h2.5908v-1.5518h1.4561v1.5518h2.4814v1.2715h-0.73144c-0.16862,0.6836 -0.37825,1.3148 -0.62891,1.8936h1.5654v1.2578h-2.7139v1.333h2.4609v1.2031h-2.4609zM234.4823,167.4125c0.17318,0.56966 0.32357,1.20086 0.45117,1.8936h1.3535c0.20963,-0.5879 0.38965,-1.21909 0.54004,-1.8936zM240.9149,170.7348c0.00466,1.41273 -0.10471,2.72296 -0.32813,3.9307c-0.23242,1.25326 -0.64486,2.37436 -1.2373,3.3633l-1.1279,-1.0322c0.50586,-0.82033 0.85223,-1.8275 1.0391,-3.0215c0.16406,-1.0208 0.24609,-2.3242 0.24609,-3.9102v-4.2861c0.09115,-0.00912 0.23014,-0.02278 0.417,-0.04101c1.4492,-0.13672 2.9007,-0.44889 4.3545,-0.93652l0.89551,1.1895c-1.21227,0.41016 -2.6296,0.72689 -4.252,0.9502v2.3652h4.5869v1.4287h-1.5654v7.1572h-1.415v-7.1572z"/><path d="M246.61,166.25c4.19273,-0.0638 8.1554,-0.1709 11.888,-0.32129l0.082,1.3604c-1.6452,0.08203 -2.9258,0.33268 -3.8418,0.75195c-0.875,0.40104 -1.57684,0.95704 -2.1055,1.668c-0.60156,0.80667 -0.90234,1.70446 -0.90234,2.6934c0,0.9844 0.3418,1.72267 1.0254,2.2148c0.78386,0.56054 1.987,0.94565 3.6094,1.1553l-0.32129,1.5381c-2.1146,-0.28256 -3.60257,-0.82942 -4.4639,-1.6406c-0.92514,-0.86587 -1.3877,-1.9414 -1.3877,-3.2266c0,-1.16666 0.41926,-2.25586 1.2578,-3.2676c0.61068,-0.74286 1.44694,-1.33987 2.5088,-1.791c-1.88214,0.0638 -4.3089,0.1709 -7.2803,0.32129zM256.5494,172.1494c-0.26888,-0.71546 -0.72234,-1.52667 -1.3604,-2.4336l1.0664,-0.39648c0.56966,0.78386 1.02766,1.58593 1.374,2.4062zM258.3951,171.43163c-0.32358,-0.83854 -0.77474,-1.6543 -1.3535,-2.4473l1.0186,-0.3623c0.53321,0.64713 0.98667,1.431 1.3604,2.3516z"/><path d="M268.79,165.0947h1.4971v2.4746h2.7891v1.3604h-2.7891v4.1973c1.08006,0.49675 2.14876,1.19401 3.2061,2.0918l-0.76563,1.3535c-0.8932,-0.77927 -1.71124,-1.39907 -2.4541,-1.8594c-0.08204,1.11653 -0.4785,1.86393 -1.1894,2.2422c-0.39648,0.20963 -0.93882,0.31445 -1.627,0.31445c-0.7474,0 -1.3968,-0.13444 -1.9482,-0.40332c-0.834,-0.4056 -1.251,-1.08007 -1.251,-2.0234c0,-0.74286 0.31673,-1.33303 0.9502,-1.7705c0.57878,-0.40104 1.3216,-0.60156 2.2285,-0.60156c0.41472,0 0.86588,0.05241 1.3535,0.15723v-3.6982h-4.3955v-1.3604h4.3955zM268.79,173.9541c-0.5332,-0.16862 -1.00716,-0.25293 -1.4219,-0.25293c-0.39648,0 -0.73372,0.06153 -1.0117,0.18457c-0.4375,0.18685 -0.65625,0.49219 -0.65625,0.91602c0,0.34635 0.1595,0.61751 0.47851,0.81348c0.3099,0.19141 0.7246,0.28711 1.2441,0.28711c0.91147,0 1.3672,-0.5127 1.3672,-1.5381zM261.3662,177.2422c-0.15951,-1.50394 -0.23926,-3.0853 -0.23926,-4.7441c0,-2.58854 0.17318,-5.0563 0.51954,-7.4033l1.5039,0.21875c-0.34179,2.02346 -0.51269,4.21096 -0.51269,6.5625c0,1.7272 0.08658,3.43847 0.25976,5.1338z"/><path d="M275.44,166.537h3.418c0.0957,-0.7884 0.16861,-1.3535 0.21875,-1.6953l1.5176,0.15723l-0.0205,0.10938l-0.0479,0.35547l-0.123,0.91602l-0.0205,0.15723h5.6533v1.3467h-5.8106c-0.01367,0.15494 -0.0433,0.48535 -0.0889,0.99121l-0.0342,0.4375l-0.0137,0.13672c0.54688,-0.09115 1.10514,-0.13672 1.6748,-0.13672c1.5768,0 2.82776,0.36913 3.7529,1.1074c0.24153,0.19596 0.46256,0.44206 0.66309,0.73828c0.40104,0.59244 0.60156,1.27375 0.60156,2.0439c0,1.37174 -0.5651,2.41763 -1.6953,3.1377c-0.73827,0.4694 -1.76137,0.8226 -3.0693,1.0596l-0.65625,-1.2031c1.19853,-0.19596 2.11453,-0.50814 2.748,-0.93652c0.75653,-0.51497 1.1348,-1.22591 1.1348,-2.1328c0,-0.5879 -0.16407,-1.10516 -0.49219,-1.5518c-0.1914,-0.26432 -0.44888,-0.47851 -0.77246,-0.64258c-1.13473,1.97787 -2.6227,3.5866 -4.4639,4.8262c-0.59245,0.40104 -1.08918,0.66764 -1.4902,0.7998c-0.39648,0.1276 -0.78384,0.19141 -1.1621,0.19141c-0.69727,0 -1.22137,-0.23243 -1.5723,-0.69727c-0.29167,-0.38281 -0.4375,-0.90692 -0.4375,-1.5723c0,-1.18034 0.4466,-2.22167 1.3398,-3.124c0.6608,-0.66994 1.45604,-1.1849 2.3857,-1.5449l0.0137,-0.18457c0.05466,-0.78386 0.10023,-1.36494 0.13671,-1.7432h-3.2881zM278.5162,171.1991c-0.63802,0.3418 -1.14842,0.7679 -1.5312,1.2783c-0.48764,0.65169 -0.73145,1.3011 -0.73145,1.9482c0,0.72007 0.25976,1.0801 0.7793,1.0801c0.45574,0 1.01626,-0.24609 1.6816,-0.73828c-0.13672,-0.916 -0.20508,-1.8867 -0.20508,-2.9121c0,-0.14128 0.00234,-0.36003 0.007,-0.65625zM279.9859,170.67957c-0.00914,0.29622 -0.0137,0.5651 -0.0137,0.80664c0,0.77473 0.03418,1.5039 0.10254,2.1875c1.10287,-1.0254 1.94597,-2.07357 2.5293,-3.1445c-0.29167,-0.03646 -0.58333,-0.05469 -0.875,-0.05469c-0.60612,0 -1.18718,0.06836 -1.7432,0.20508z"/><path d="M293.45,170.857c-0.45574,0.8522 -0.92286,1.4925 -1.4014,1.9209c-0.41015,0.36914 -0.78612,0.55371 -1.1279,0.55371c-0.4375,0 -0.7907,-0.29623 -1.0596,-0.88867c-0.27799,-0.6198 -0.41699,-1.59049 -0.41699,-2.9121c0,-1.33074 0.15494,-2.7731 0.46484,-4.3271l1.4971,0.22559c-0.30078,1.54033 -0.45117,2.84374 -0.45117,3.9102c0,1.43553 0.10254,2.1533 0.30762,2.1533c0.07747,0 0.20963,-0.10937 0.39648,-0.32812c0.29167,-0.32812 0.59929,-0.8112 0.92285,-1.4492zM292.4109,176.2095c1.39907,-0.39192 2.45406,-0.97752 3.165,-1.7568c0.87047,-0.95246 1.3057,-2.39256 1.3057,-4.3203c0,-1.46286 -0.14128,-3.10576 -0.42383,-4.9287l1.5654,-0.15039c0.30078,1.84114 0.45117,3.55696 0.45117,5.1475c0,2.5794 -0.6631,4.4365 -1.9893,5.5713c-0.80667,0.69273 -1.89357,1.26696 -3.2607,1.7227z"/><path d="M306.79,164.9101h1.5107v1.7227h4.2998v1.2988h-4.2998v1.627h4.0606v1.2852h-4.0606v2.1123c1.6224,0.54688 3.222,1.36948 4.7988,2.4678l-0.80664,1.2988c-1.194,-0.8932 -2.52474,-1.6816 -3.9922,-2.3652c-0.03647,0.77927 -0.18685,1.3831 -0.45117,1.8115c-0.46028,0.74286 -1.36719,1.1143 -2.7207,1.1143c-1.0436,0 -1.88214,-0.19597 -2.5156,-0.58789c-0.7064,-0.4375 -1.0596,-1.02993 -1.0596,-1.7773c0,-0.8932 0.47623,-1.554 1.4287,-1.9824c0.63802,-0.28256 1.46746,-0.42383 2.4883,-0.42383c0.40104,0 0.8408,0.0319 1.3193,0.0957v-1.7637h-4.8467v-1.2852h4.8467v-1.627h-5.1406v-1.2988h5.1406zM306.79,173.8788c-0.54232,-0.11393 -1.06186,-0.1709 -1.5586,-0.1709c-0.60612,0 -1.09832,0.08886 -1.4766,0.2666c-0.45117,0.21419 -0.67676,0.51953 -0.67676,0.91602c0,0.33268 0.17545,0.60156 0.52637,0.80664c0.35546,0.20963 0.82944,0.31445 1.4219,0.31445c0.7018,0 1.18486,-0.18685 1.4492,-0.56055c0.20964,-0.29166 0.31446,-0.7269 0.31446,-1.3057z"/><path d="M323.05,165.0332h1.5244v3.001h2.5156v1.374h-2.5156v2.5635c0,0.5332 -0.08887,0.90917 -0.2666,1.1279c-0.21875,0.27344 -0.61295,0.41016 -1.1826,0.41016c-0.75653,0 -1.48796,-0.12533 -2.1943,-0.37598v-1.3193c0.7428,0.20508 1.31473,0.30762 1.7158,0.30762c0.26888,0 0.40332,-0.16178 0.40332,-0.48535v-2.2285h-4.6416v5.3047c0,0.29622 0.05241,0.50131 0.15722,0.61524c0.11394,0.13216 0.36231,0.21875 0.74512,0.25976c0.59244,0.06836 1.42414,0.10254 2.4951,0.10254c1.2578,0 2.52017,-0.05469 3.7871,-0.16406v1.4424c-1.36266,0.08203 -2.70706,0.12305 -4.0332,0.12305c-1.97334,0 -3.22203,-0.11393 -3.7461,-0.3418c-0.6289,-0.26888 -0.94336,-0.84994 -0.94336,-1.7432v-5.5986h-2.4609v-1.374h2.4609v-2.8711h1.5381v2.8711h4.6416z"/><path d="M327.89,176.613c1.75914,-4.0742 3.6527,-8.01154 5.6807,-11.812l1.333,0.5332c-0.916,1.68167 -1.99836,3.73016 -3.2471,6.1455c0.86133,-0.93427 1.65657,-1.4014 2.3857,-1.4014c1.14846,0 1.7227,0.8659 1.7227,2.5977c0,0.1276 -0.00456,0.28484 -0.0137,0.47168c-0.0182,0.39649 -0.0273,0.70866 -0.0273,0.93652c0,0.5332 0.0319,0.91146 0.0957,1.1348c0.14128,0.48308 0.49448,0.72461 1.0596,0.72461c0.54688,0 0.99122,-0.2666 1.333,-0.7998c0.51042,-0.793 0.92968,-2.24907 1.2578,-4.3682l1.3398,0.78613c-0.25977,1.67254 -0.59017,2.94857 -0.99121,3.8281c-0.6198,1.3672 -1.6224,2.0508 -3.0078,2.0508c-0.957,0 -1.64286,-0.29622 -2.0576,-0.88867c-0.32812,-0.4694 -0.49219,-1.25327 -0.49219,-2.3516c0,-0.09571 0.00457,-0.24154 0.0137,-0.4375c0.01826,-0.38281 0.0274,-0.65398 0.0274,-0.81348c0,-0.5013 -0.04558,-0.8636 -0.13672,-1.0869c-0.10482,-0.24609 -0.28483,-0.36914 -0.54004,-0.36914c-0.43295,0 -0.92058,0.26432 -1.4629,0.79297c-0.46485,0.45573 -0.92284,1.12336 -1.374,2.0029c-0.32812,0.63802 -0.82716,1.72038 -1.4971,3.2471z"/></g><g fill="#191500" fill-rule="nonzero"><path d="M145.066,185.328v-1.2305h-5.5439v-1.2305h12.626v1.2305h-5.626v1.2305h4.3682v5.2432h1.5928v1.2578h-1.5928v2.3789c0,0.48763 -0.13672,0.82716 -0.41016,1.0186c-0.21875,0.1504 -0.58105,0.22559 -1.0869,0.22559c-0.57878,0 -1.32618,-0.02734 -2.2422,-0.08203l-0.2666,-1.415c0.88867,0.10026 1.61784,0.15039 2.1875,0.15039c0.17774,0 0.28027,-0.03646 0.30762,-0.10938c0.01823,-0.05013 0.02734,-0.12988 0.02734,-0.23926v-1.9277h-7.1436v3.7803h-1.4834v-3.7803h-1.5928v-1.2578h1.5928v-5.2432zM145.066,186.5175h-2.8027v1.4014h2.8027zM146.5221,186.5175v1.4014h2.8848v-1.4014zM145.066,189.04h-2.8027v1.5312h2.8027zM146.5221,189.04v1.5312h2.8848v-1.5312z"/><path d="M158.218,190.899v3.5889c0.91146,-0.32357 1.53127,-0.84083 1.8594,-1.5518c0.2552,-0.54687 0.39192,-1.59278 0.41016,-3.1377h1.374c-0.01368,1.80014 -0.20052,3.0534 -0.56055,3.7598c-0.48764,0.94794 -1.31933,1.66343 -2.4951,2.1465l-0.58789,-0.80664v0.0068h-3.2676v0.7041h-1.3467v-4.71zM154.9504,192.0748v1.668h1.9209v-1.668zM161.6701,183.5641v-1.2441h1.3877v1.2441h3.3291v1.2031h-3.3291v0.9707h2.9395v1.1758h-7.0957v-1.1758h2.7686v-0.9707h-3.2471v-1.2031zM166.3322,187.8502v2.8711h-1.374v-1.709h-4.9492v1.8184h-1.333v-2.9805zM153.8292,182.8121h4.1289v1.1484h-4.1289zM153.18662,184.815h5.332v1.2305h-5.332zM153.8292,186.9136h4.1289v1.1348h-4.1289zM153.8292,188.9165h4.1289v1.1074h-4.1289zM162.6886,189.77099h1.3193v4.0537c0,0.1276 0.0319,0.20508 0.0957,0.23242c0.10482,0.04558 0.22331,0.06836 0.35547,0.06836c0.30078,0 0.49675,-0.0433 0.58789,-0.12988c0.12304,-0.10937 0.20963,-0.72004 0.25977,-1.832l1.2373,0.43066c-0.04101,1.22134 -0.1709,1.99607 -0.38965,2.3242c-0.13672,0.20508 -0.35547,0.34408 -0.65625,0.41699c-0.25976,0.05925 -0.60613,0.08887 -1.0391,0.08887c-0.75194,0 -1.2373,-0.07747 -1.4561,-0.23242c-0.20963,-0.1504 -0.31445,-0.42838 -0.31445,-0.83398z"/><path d="M168.93,183.284h5.3457l0.95703,0.81348c-0.45118,1.5814 -0.82488,2.77086 -1.1211,3.5684c1.13474,0.19141 2.18063,0.50131 3.1377,0.92969c0.05469,-0.5879 0.08203,-1.1644 0.08203,-1.7295c0,-0.30078 -0.00911,-0.65398 -0.02734,-1.0596l1.4971,0.15723c-0.00454,1.3034 -0.05694,2.39944 -0.15723,3.2881c0.5651,0.29166 1.15754,0.63573 1.7773,1.0322l-0.58789,1.4561c-0.4375,-0.31902 -0.91147,-0.63575 -1.4219,-0.9502c-0.35091,1.35353 -0.91144,2.40627 -1.6816,3.1582c-0.54687,0.53776 -1.29428,1.01172 -2.2422,1.4219l-0.85449,-1.1484c1.11653,-0.47851 1.9414,-1.08918 2.4746,-1.832c0.41927,-0.59244 0.72917,-1.36718 0.92969,-2.3242c-1.11653,-0.56054 -2.24673,-0.93882 -3.3906,-1.1348c-0.74286,2.03253 -1.488,3.5729 -2.2354,4.6211c-0.56966,0.793 -1.20996,1.1895 -1.9209,1.1895c-0.68813,0 -1.22134,-0.32812 -1.5996,-0.98438c-0.2871,-0.5013 -0.43066,-1.0983 -0.43066,-1.791c0,-0.8568 0.22103,-1.62243 0.66309,-2.2969c0.52409,-0.80206 1.33072,-1.38767 2.4199,-1.7568c0.62891,-0.20963 1.33301,-0.32356 2.1123,-0.3418c0.41927,-1.09374 0.74057,-2.07357 0.96387,-2.9395h-4.6895zM172.1634,188.8758c-0.5879,0.0319 -1.09146,0.14355 -1.5107,0.33496c-0.65625,0.29166 -1.13932,0.73826 -1.4492,1.3398c-0.21875,0.42382 -0.32812,0.87499 -0.32812,1.3535c0,0.38281 0.07519,0.7155 0.22559,0.99805c0.11393,0.22331 0.25066,0.33496 0.41016,0.33496c0.63802,0 1.52212,-1.45377 2.6523,-4.3613z"/><path d="M190.778,183.079v0.88184c0,1.5768 0.36914,3.1126 1.1074,4.6074c0.61068,1.23047 1.43555,2.29916 2.4746,3.2061l-0.96387,1.3604c-0.84306,-0.7474 -1.6064,-1.72723 -2.29,-2.9395c-0.51953,-0.916 -0.8955,-1.7682 -1.1279,-2.5566c-0.20963,0.93427 -0.4808,1.709 -0.81348,2.3242c-0.68813,1.2806 -1.5449,2.32423 -2.5703,3.1309l-1.0254,-1.2646c2.1328,-1.4948 3.3496,-3.96714 3.6504,-7.417h-2.8232v-1.333zM184.8376,192.3349c0.39649,0.46028 0.79525,0.77929 1.1963,0.95703c0.73827,0.33724 1.72947,0.50586 2.9736,0.50586h5.6123c-0.19596,0.41472 -0.34863,0.90008 -0.45801,1.4561h-5.1406c-1.5768,0 -2.8027,-0.24838 -3.6777,-0.74512c-0.3737,-0.20963 -0.76564,-0.56283 -1.1758,-1.0596c-0.76107,0.90694 -1.47427,1.6247 -2.1396,2.1533l-0.86816,-1.4697c0.7702,-0.4694 1.4971,-1.01173 2.1807,-1.627v-3.1377h-2.0713v-1.3467h3.5684zM184.08565,186.1826c-0.6198,-0.8568 -1.39909,-1.73863 -2.3379,-2.6455l1.1348,-0.92285c0.82486,0.66537 1.63606,1.49707 2.4336,2.4951z"/><path d="M196.93,183.284h5.3457l0.95703,0.81348c-0.45118,1.5814 -0.82488,2.77086 -1.1211,3.5684c1.13474,0.19141 2.18063,0.50131 3.1377,0.92969c0.05469,-0.5879 0.08203,-1.1644 0.08203,-1.7295c0,-0.30078 -0.00911,-0.65398 -0.02734,-1.0596l1.4971,0.15723c-0.00454,1.3034 -0.05694,2.39944 -0.15723,3.2881c0.5651,0.29166 1.15754,0.63573 1.7773,1.0322l-0.58789,1.4561c-0.4375,-0.31902 -0.91147,-0.63575 -1.4219,-0.9502c-0.35091,1.35353 -0.91144,2.40627 -1.6816,3.1582c-0.54687,0.53776 -1.29428,1.01172 -2.2422,1.4219l-0.85449,-1.1484c1.11653,-0.47851 1.9414,-1.08918 2.4746,-1.832c0.41927,-0.59244 0.72917,-1.36718 0.92969,-2.3242c-1.11653,-0.56054 -2.24673,-0.93882 -3.3906,-1.1348c-0.74286,2.03253 -1.488,3.5729 -2.2354,4.6211c-0.56966,0.793 -1.20996,1.1895 -1.9209,1.1895c-0.68813,0 -1.22134,-0.32812 -1.5996,-0.98438c-0.2871,-0.5013 -0.43066,-1.0983 -0.43066,-1.791c0,-0.8568 0.22103,-1.62243 0.66309,-2.2969c0.52409,-0.80206 1.33072,-1.38767 2.4199,-1.7568c0.62891,-0.20963 1.33301,-0.32356 2.1123,-0.3418c0.41927,-1.09374 0.74057,-2.07357 0.96387,-2.9395h-4.6895zM200.1634,188.8758c-0.5879,0.0319 -1.09146,0.14355 -1.5107,0.33496c-0.65625,0.29166 -1.13932,0.73826 -1.4492,1.3398c-0.21875,0.42382 -0.32812,0.87499 -0.32812,1.3535c0,0.38281 0.07519,0.7155 0.22559,0.99805c0.11393,0.22331 0.25066,0.33496 0.41016,0.33496c0.63802,0 1.52212,-1.45377 2.6523,-4.3613z"/><path d="M210.534,182.881h1.6133v8.1484c0,1.71806 0.90233,2.5771 2.707,2.5771c1.18947,0 2.16474,-0.54917 2.9258,-1.6475c0.49219,-0.7064 0.93426,-1.80014 1.3262,-3.2812l1.3877,0.84082c-0.46484,1.6452 -1.02311,2.87566 -1.6748,3.6914c-1.0254,1.27147 -2.3584,1.9072 -3.999,1.9072c-1.71354,0 -2.9212,-0.52864 -3.623,-1.5859c-0.44206,-0.66081 -0.66309,-1.513 -0.66309,-2.5566z"/><path d="M221.833,183.968c4.19273,-0.0638 8.1554,-0.17089 11.888,-0.32129l0.082,1.3604c-1.6452,0.08203 -2.9258,0.33268 -3.8418,0.75195c-0.875,0.40104 -1.57683,0.95704 -2.1055,1.668c-0.60156,0.80667 -0.90234,1.70446 -0.90234,2.6934c0,0.9844 0.3418,1.72267 1.0254,2.2148c0.78386,0.56054 1.987,0.94564 3.6094,1.1553l-0.32129,1.5381c-2.1146,-0.28256 -3.60257,-0.82942 -4.4639,-1.6406c-0.92514,-0.86587 -1.3877,-1.9414 -1.3877,-3.2266c0,-1.16666 0.41926,-2.25587 1.2578,-3.2676c0.61068,-0.74286 1.44694,-1.33987 2.5088,-1.791c-1.88214,0.0638 -4.3089,0.1709 -7.2803,0.32129z"/><path d="M244.97,195.268c-2.05987,-1.60414 -4.7578,-3.39513 -8.0938,-5.373c-0.61524,-0.36003 -0.92285,-0.7383 -0.92285,-1.1348c0,-0.28256 0.13444,-0.54916 0.40332,-0.7998c0.11393,-0.10937 0.40104,-0.29166 0.86133,-0.54688c1.68167,-0.93427 3.49547,-2.04854 5.4414,-3.3428c0.73373,-0.48308 1.40136,-0.9502 2.0029,-1.4014l0.89551,1.1758c-2.347,1.6634 -4.75553,3.18096 -7.2256,4.5527c-0.24153,0.13672 -0.3623,0.25065 -0.3623,0.3418c0,0.07292 0.06608,0.15495 0.19824,0.24609c0.03646,0.02734 0.24838,0.15495 0.63574,0.38281c3.12634,1.84573 5.48017,3.35647 7.0615,4.5322z"/><path d="M247.97,184.74h3.1924c0.1276,-0.5651 0.27117,-1.29654 0.43067,-2.1943l1.5449,0.19141c-0.13672,0.7064 -0.28256,1.37404 -0.4375,2.0029h3.6846v1.3604h-4.0059c-0.91146,3.64127 -1.91863,6.66046 -3.0215,9.0576l-1.5108,-0.5332c1.1986,-2.65694 2.19664,-5.4984 2.9941,-8.5244h-2.8711zM260.07,194.796c-0.73827,0.0957 -1.5677,0.14355 -2.4883,0.14355c-1.49027,0 -2.61594,-0.12761 -3.377,-0.38281c-0.29166,-0.10026 -0.54004,-0.24153 -0.74512,-0.42383c-0.40104,-0.36459 -0.60156,-0.82942 -0.60156,-1.3945c0,-0.57878 0.18685,-1.08917 0.56054,-1.5312l1.2168,0.71777c-0.14128,0.17774 -0.21191,0.37369 -0.21191,0.58789c0,0.36914 0.16862,0.6084 0.50586,0.71777c0.51497,0.16406 1.24871,0.24609 2.2012,0.24609c0.92514,0 1.848,-0.06836 2.7686,-0.20508zM253.6579,188.0216c1.78646,-0.20508 3.74153,-0.31446 5.8652,-0.32812l0.0684,1.3877c-2.08267,0.00912 -3.99446,0.1071 -5.7354,0.29394zM258.0397,185.4308c-0.25065,-0.69726 -0.70412,-1.5244 -1.3604,-2.4814l1.0664,-0.38965c0.57878,0.82486 1.03678,1.63606 1.374,2.4336zM259.9743,184.97963c-0.32812,-0.8568 -0.77703,-1.68166 -1.3467,-2.4746l1.0049,-0.36914c0.51954,0.64258 0.97754,1.42645 1.374,2.3516z"/><path d="M261.92,185.007h5.4893c-0.29622,-0.77927 -0.56738,-1.554 -0.81348,-2.3242l1.4971,-0.0957c0.23697,0.8112 0.5218,1.61784 0.85449,2.4199h5.0518v1.4014h-4.4092c0.58789,1.2168 1.32388,2.486 2.208,3.8076l-1.4355,0.68359c-0.97526,-1.47654 -1.77507,-2.9736 -2.3994,-4.4912h-6.043zM271.8595,195.09c-0.90693,0.05014 -1.709,0.0752 -2.4062,0.0752c-1.89587,0 -3.29266,-0.14812 -4.1904,-0.44434c-1.6224,-0.52865 -2.4336,-1.52668 -2.4336,-2.9941c0,-0.90233 0.28028,-1.62923 0.84082,-2.1807l1.2852,0.69726c-0.3737,0.36914 -0.56055,0.8522 -0.56055,1.4492c0,0.76107 0.41017,1.29426 1.2305,1.5996c0.7246,0.26888 1.93684,0.40332 3.6367,0.40332c0.72006,0 1.53126,-0.03418 2.4336,-0.10254z"/><path d="M282.15,191.234c-0.84307,2.4792 -1.7887,3.7188 -2.8369,3.7188c-0.7474,0 -1.3877,-0.5241 -1.9209,-1.5723c-0.41015,-0.8112 -0.69271,-1.70444 -0.84766,-2.6797c-0.18685,-1.18487 -0.28027,-2.707 -0.28027,-4.5664c0,-0.80667 0.02963,-1.67256 0.0889,-2.5977l1.6064,0.12305c-0.05926,0.92514 -0.0889,1.8047 -0.0889,2.6387c0,2.9258 0.27344,4.9652 0.82031,6.1182c0.2233,0.47396 0.43294,0.71094 0.6289,0.71094c0.12761,0 0.28712,-0.14584 0.47852,-0.4375c0.39193,-0.59244 0.7702,-1.40821 1.1348,-2.4473zM286.4772,192.861c-0.23242,-1.9232 -0.51725,-3.47723 -0.85449,-4.6621c-0.41016,-1.43553 -0.88639,-2.7503 -1.4287,-3.9443l1.456,-0.35547c0.75194,1.49026 1.3102,2.9258 1.6748,4.3066c0.30078,1.12106 0.54915,2.5475 0.74511,4.2793z"/></g><path d="M140,214h200c5.54,0 10,4.46 10,10v44c0,5.54 -4.46,10 -10,10h-200c-5.54,0 -10,-4.46 -10,-10v-44c0,-5.54 4.46,-10 10,-10z" fill="#12151a" fill-rule="evenodd"/><g fill="#ffffff" fill-rule="nonzero"><path d="M144.525,231.186v4.0059h-3.582v0.7041h-1.3604v-4.71zM140.943,232.3618v1.668h2.208v-1.668zM145.7692,223.0854h4.3818v3.3291c0,0.1504 0.02278,0.24382 0.06836,0.28027c0.05925,0.04558 0.16179,0.06836 0.30762,0.06836c0.20052,0 0.3304,-0.02734 0.38965,-0.08203c0.04558,-0.03646 0.07747,-0.15722 0.0957,-0.3623c0.04558,-0.52409 0.07064,-0.92969 0.0752,-1.2168l1.2783,0.40332c-0.00454,0.52409 -0.03871,1.02312 -0.10254,1.4971c-0.06836,0.55598 -0.36686,0.88639 -0.89551,0.99121c-0.22331,0.04558 -0.55828,0.06836 -1.0049,0.06836c-0.63347,0 -1.05956,-0.07976 -1.2783,-0.23926c-0.18685,-0.13672 -0.28027,-0.38737 -0.28027,-0.75195v-2.7412h-1.709v0.14355c0,0.92514 -0.10026,1.69076 -0.30078,2.2969c-0.22787,0.66537 -0.62664,1.2282 -1.1963,1.6885l-0.99121,-0.99121c0.57422,-0.40104 0.92968,-0.9798 1.0664,-1.7363c0.0638,-0.36003 0.0957,-0.79979 0.0957,-1.3193zM149.488,232.8745c0.87046,0.62891 1.88447,1.16667 3.042,1.6133l-0.81348,1.3604c-1.39,-0.65169 -2.4883,-1.30796 -3.2949,-1.9688c-1.0208,0.8568 -2.0462,1.52673 -3.0762,2.0098l-0.79297,-1.2168c0.99806,-0.3418 1.97104,-0.90233 2.9189,-1.6816c-0.8522,-0.91146 -1.49933,-1.88217 -1.9414,-2.9121h-0.68359v-1.2578h6.1318l0.73828,0.66992c-0.6198,1.33526 -1.36263,2.4632 -2.2285,3.3838zM148.4763,232.04052c0.63802,-0.7246 1.07552,-1.37856 1.3125,-1.9619h-2.8574c0.3737,0.67907 0.8636,1.30796 1.4697,1.8867zM139.8767,223.09912h4.3408v1.1484h-4.3408zM139.09057,225.10202h5.7422v1.2305h-5.7422zM139.8767,227.20062h4.3408v1.1348h-4.3408zM139.8767,229.20352h4.3408v1.1074h-4.3408z"/><path d="M160.453,233.907c0.7702,0.1276 1.61104,0.19141 2.5225,0.19141h3.5479c-0.22787,0.45573 -0.39649,0.93652 -0.50586,1.4424h-3.0557c-1.85027,0 -3.31087,-0.22103 -4.3818,-0.66309c-1.03906,-0.42838 -1.89584,-1.13476 -2.5703,-2.1191c-0.53776,1.2806 -1.19856,2.34243 -1.9824,3.1855l-1.0596,-1.2715c1.28513,-1.39 2.0872,-3.19013 2.4062,-5.4004l1.5518,0.23926c-0.14584,0.72007 -0.28711,1.31937 -0.42383,1.7979c0.55143,0.9798 1.3649,1.7044 2.4404,2.1738v-5.291h-3.7939v-0.90918h-1.4834v-3.165h5.2363v-1.5244h1.5244v1.5244h5.3525v3.165h-1.4834v0.90918h-3.8418v2.0918h4.6826v1.2715h-4.6826zM155.162,225.4031v1.4902h9.1055v-1.4902z"/><path d="M167.357,225.615h3.0215c0.13672,-0.7018 0.28939,-1.57453 0.45801,-2.6182l0.03418,-0.19824l1.4971,0.22559c-0.15494,0.96614 -0.31446,1.82973 -0.47852,2.5908h0.82715c1.09374,0 1.8776,0.24609 2.3516,0.73828c0.42382,0.44206 0.63574,1.13022 0.63574,2.0645c0,1.57226 -0.16634,3.042 -0.49902,4.4092c-0.19141,0.77473 -0.42382,1.34667 -0.69726,1.7158c-0.34635,0.46028 -0.82716,0.69043 -1.4424,0.69043c-0.73827,0 -1.5449,-0.23698 -2.4199,-0.71094l0.1709,-1.4424c0.86587,0.41472 1.53807,0.62207 2.0166,0.62207c0.25065,0 0.44434,-0.13444 0.58106,-0.40332c0.14584,-0.29166 0.28483,-0.7132 0.41699,-1.2646c0.25976,-1.11653 0.38965,-2.29003 0.38965,-3.5205c0,-0.64713 -0.12989,-1.0664 -0.38965,-1.2578c-0.22331,-0.1595 -0.62207,-0.23926 -1.1963,-0.23926h-1.0527c-0.7246,3.22654 -1.76367,5.97914 -3.1172,8.2578l-1.374,-0.75195c1.39907,-2.347 2.3971,-4.84896 2.9941,-7.5059h-2.7275zM178.711,232.3621c-0.51497,-1.89586 -1.32844,-3.75754 -2.4404,-5.585l1.333,-0.60156c1.14846,1.832 2.0075,3.67543 2.5771,5.5303zM177.6993,225.8133c-0.28256,-0.73827 -0.73828,-1.55857 -1.3672,-2.4609l1.0596,-0.39648c0.55143,0.77927 1.014,1.5882 1.3877,2.4268zM179.5382,225.22541c-0.35547,-0.87954 -0.80893,-1.70667 -1.3604,-2.4814l1.0049,-0.33496c0.52409,0.62435 0.98208,1.40364 1.374,2.3379z"/><path d="M184.686,231.835c-0.84767,0.57422 -1.67254,1.00946 -2.4746,1.3057l-0.93652,-1.0527c2.18293,-0.73827 3.7643,-1.75683 4.7441,-3.0557l1.3877,0.3418c-0.19597,0.2552 -0.39193,0.48307 -0.58789,0.68359h4.7168l0.86816,0.73144c-0.69273,0.834 -1.67484,1.6885 -2.9463,2.5635c1.431,0.48308 3.06706,0.84994 4.9082,1.1006l-0.77246,1.4287c-2.16926,-0.41472 -4.02636,-0.98208 -5.5713,-1.7021c-1.7318,0.84767 -3.73474,1.43327 -6.0088,1.7568l-0.68359,-1.2988c1.80014,-0.14128 3.57746,-0.54687 5.332,-1.2168l-0.0752,-0.04785c-0.72007,-0.47851 -1.35353,-0.99121 -1.9004,-1.5381zM185.8071,231.19242c0.60612,0.56054 1.37629,1.08008 2.3105,1.5586c0.97527,-0.56054 1.66113,-1.08008 2.0576,-1.5586zM188.4116,223.85062h5.6738v1.1895h-3.9648v3.0625c0,0.44662 -0.12077,0.75196 -0.3623,0.91602c-0.20052,0.13672 -0.53548,0.20508 -1.0049,0.20508c-0.44206,0 -0.92056,-0.03646 -1.4355,-0.10938l-0.17773,-1.1895c0.49675,0.08203 0.91374,0.12305 1.251,0.12305c0.13216,0 0.20964,-0.02962 0.23242,-0.08887c0.01823,-0.04101 0.02734,-0.10937 0.02734,-0.20508v-2.7139h-1.7637c0,0.99346 -0.11165,1.77276 -0.33496,2.3379c-0.39192,0.99806 -1.13932,1.71126 -2.2422,2.1396l-1.0322,-0.9502c0.8522,-0.33268 1.4287,-0.76108 1.7295,-1.2852c0.17317,-0.30078 0.29394,-0.66081 0.3623,-1.0801c0.04101,-0.24609 0.07063,-0.63346 0.08887,-1.1621h-4.1426v-1.1895h5.5986v-1.2578h1.4971zM193.0327,228.93652c-0.67446,-1.01627 -1.45377,-1.9642 -2.3379,-2.8438l1.1211,-0.75879c0.86587,0.7474 1.65426,1.64064 2.3652,2.6797zM181.0087,227.95214c0.93427,-0.71546 1.6247,-1.5449 2.0713,-2.4883l1.2715,0.47168c-0.63347,1.30793 -1.44466,2.32193 -2.4336,3.042z"/><path d="M200.983,225.478v-1.0391h-5.5098v-1.2578h12.503v1.2578h-5.5371v1.0391h4.792v5.5439h-4.8262c-0.00454,0.0319 -0.0068,0.0638 -0.0068,0.0957c-0.05014,0.80206 -0.25521,1.51073 -0.61524,2.126c1.7682,0.6198 3.96254,1.0459 6.583,1.2783l-0.84082,1.333c-2.54754,-0.29622 -4.7487,-0.82032 -6.6035,-1.5723c-0.52865,0.46028 -1.20994,0.83172 -2.0439,1.1143c-0.7474,0.2552 -1.71583,0.45801 -2.9053,0.6084l-0.73832,-1.2988c1.84114,-0.13672 3.26074,-0.48536 4.2588,-1.0459c-0.9798,-0.48308 -1.8867,-1.0459 -2.7207,-1.6885l1.0049,-0.85449c0.87046,0.67446 1.76144,1.20993 2.6729,1.6064c0.26432,-0.45118 0.43294,-1.01854 0.50586,-1.7021h-4.7578v-5.5439zM200.983,226.5718h-3.3154v1.1006h3.3154zM202.4391,226.5718v1.1006h3.3223v-1.1006zM200.983,228.7251h-3.3154v1.1895h3.3154zM202.4391,228.7251v1.1895h3.3223v-1.1895z"/><path d="M209.541,225.293h5.4893c-0.29622,-0.77927 -0.56739,-1.554 -0.81348,-2.3242l1.4971,-0.0957c0.23698,0.8112 0.52181,1.61783 0.85449,2.4199h5.0518v1.4014h-4.4092c0.5879,1.2168 1.32389,2.486 2.208,3.8076l-1.4355,0.68359c-0.97527,-1.47654 -1.77506,-2.9736 -2.3994,-4.4912h-6.043zM219.4805,235.376c-0.90694,0.05014 -1.709,0.0752 -2.4062,0.0752c-1.89586,0 -3.29266,-0.14812 -4.1904,-0.44434c-1.6224,-0.52865 -2.4336,-1.52668 -2.4336,-2.9941c0,-0.90233 0.28028,-1.62923 0.84082,-2.1807l1.2852,0.69727c-0.3737,0.36914 -0.56055,0.85221 -0.56055,1.4492c0,0.76107 0.41017,1.29426 1.2305,1.5996c0.7246,0.26888 1.93684,0.40332 3.6367,0.40332c0.72007,0 1.53127,-0.03418 2.4336,-0.10254z"/><path d="M225.92,222.9009h1.5107v3.8623c1.08467,-1.12566 1.95283,-1.89814 2.6045,-2.3174c0.60612,-0.39192 1.23502,-0.58789 1.8867,-0.58789c0.65625,0 1.18489,0.18457 1.5859,0.55371c0.52865,0.49219 0.79297,1.13705 0.79297,1.9346c0,0.20963 -0.02733,0.48763 -0.082,0.83398c-0.40104,2.54754 -0.60156,4.3112 -0.60156,5.291c0,0.41927 0.1071,0.62891 0.32129,0.62891c0.13672,0 0.31672,-0.07747 0.54003,-0.23242c0.4694,-0.32357 0.94338,-0.8545 1.4219,-1.5928l0.56055,1.5654c-0.29166,0.46484 -0.65397,0.87727 -1.0869,1.2373c-0.5013,0.41927 -1.03676,0.62891 -1.6064,0.62891c-0.54232,0 -0.96385,-0.18913 -1.2646,-0.56738c-0.2552,-0.32357 -0.38281,-0.8636 -0.38281,-1.6201c0,-0.57422 0.0752,-1.43782 0.22558,-2.5908c0.19141,-1.4492 0.31901,-2.52474 0.38281,-3.2266c0.00913,-0.11393 0.0137,-0.20963 0.0137,-0.28711c0,-0.40104 -0.08431,-0.70866 -0.25293,-0.92285c-0.1595,-0.20508 -0.38054,-0.30762 -0.66309,-0.30762c-0.95246,0 -2.41763,1.2692 -4.3955,3.8076v6.4531h-1.5108v-4.7305c-0.76107,1.0664 -1.4629,2.07357 -2.1055,3.0215l-0.71094,-1.6201c1.08006,-1.30793 2.01886,-2.55437 2.8164,-3.7393v-1.7363h-2.3994v-1.374h2.3994z"/><path d="M237.51,224.254c4.19273,-0.0638 8.1554,-0.1709 11.888,-0.32129l0.082,1.3604c-1.6452,0.08203 -2.9258,0.33268 -3.8418,0.75195c-0.875,0.40104 -1.57684,0.95704 -2.1055,1.668c-0.60156,0.80667 -0.90234,1.70446 -0.90234,2.6934c0,0.9844 0.3418,1.72267 1.0254,2.2148c0.78386,0.56054 1.987,0.94564 3.6094,1.1553l-0.32129,1.5381c-2.1146,-0.28256 -3.60256,-0.82942 -4.4639,-1.6406c-0.92514,-0.86587 -1.3877,-1.9414 -1.3877,-3.2266c0,-1.16666 0.41926,-2.25587 1.2578,-3.2676c0.61068,-0.74286 1.44694,-1.33987 2.5088,-1.791c-1.88214,0.0638 -4.3089,0.1709 -7.2803,0.32129z"/><path d="M257.63,231.521c-0.84307,2.4792 -1.7887,3.7188 -2.8369,3.7188c-0.7474,0 -1.3877,-0.5241 -1.9209,-1.5723c-0.41016,-0.8112 -0.6927,-1.70443 -0.84765,-2.6797c-0.18686,-1.18487 -0.28028,-2.707 -0.28028,-4.5664c0,-0.80667 0.02963,-1.67256 0.0889,-2.5977l1.6064,0.12305c-0.05927,0.92514 -0.0889,1.8047 -0.0889,2.6387c0,2.9258 0.27343,4.9652 0.82031,6.1182c0.22331,0.47396 0.43295,0.71094 0.62891,0.71094c0.1276,0 0.2871,-0.14584 0.47851,-0.4375c0.39192,-0.59244 0.7702,-1.40822 1.1348,-2.4473zM261.9572,233.148c-0.23242,-1.9232 -0.51725,-3.47724 -0.85449,-4.6621c-0.41015,-1.43553 -0.88639,-2.7503 -1.4287,-3.9443l1.456,-0.35547c0.75194,1.49026 1.3102,2.9258 1.6748,4.3066c0.30078,1.12106 0.54916,2.5475 0.74512,4.2793z"/><path d="M270.95,222.9146h1.5107v1.7227h4.2998v1.2988h-4.2998v1.627h4.0606v1.2852h-4.0606v2.1123c1.6224,0.54688 3.222,1.36948 4.7988,2.4678l-0.80664,1.2988c-1.194,-0.8932 -2.52473,-1.6816 -3.9922,-2.3652c-0.03647,0.77927 -0.18685,1.3831 -0.45117,1.8115c-0.46028,0.74286 -1.36719,1.1143 -2.7207,1.1143c-1.0436,0 -1.88214,-0.19597 -2.5156,-0.58789c-0.7064,-0.4375 -1.0596,-1.02993 -1.0596,-1.7773c0,-0.8932 0.47623,-1.554 1.4287,-1.9824c0.63802,-0.28256 1.46745,-0.42383 2.4883,-0.42383c0.40105,0 0.84082,0.0319 1.3193,0.0957v-1.7637h-4.8467v-1.2852h4.8467v-1.627h-5.1406v-1.2988h5.1406zM270.95,231.8833c-0.54232,-0.11393 -1.06186,-0.1709 -1.5586,-0.1709c-0.60612,0 -1.09832,0.08886 -1.4766,0.2666c-0.45117,0.21419 -0.67675,0.51953 -0.67675,0.91602c0,0.33268 0.17545,0.60156 0.52636,0.80664c0.35548,0.20963 0.82944,0.31445 1.4219,0.31445c0.7018,0 1.18487,-0.18685 1.4492,-0.56055c0.20963,-0.29166 0.31445,-0.7269 0.31445,-1.3057z"/><path d="M285.47,222.8736h1.5381v1.8867h4.0332v1.3193h-4.0332v2.9258c0.15951,0.56054 0.23926,1.05958 0.23926,1.4971c0,1.6224 -0.35774,2.81413 -1.0732,3.5752c-0.77934,0.834 -1.95283,1.4105 -3.5205,1.7295l-0.7793,-1.1621c1.2168,-0.23242 2.11913,-0.56055 2.707,-0.98438c0.55142,-0.40104 0.92282,-0.94564 1.1142,-1.6338c-0.48762,0.5332 -1.06869,0.7998 -1.7432,0.7998c-0.75653,0 -1.3695,-0.21419 -1.8389,-0.64258c-0.55144,-0.50586 -0.82715,-1.2396 -0.82715,-2.2012c0,-0.50586 0.12077,-0.9935 0.36231,-1.4629c0.15951,-0.30078 0.35547,-0.55143 0.58789,-0.75195c0.53776,-0.45573 1.18262,-0.68359 1.9346,-0.68359c0.47852,0 0.91145,0.11393 1.2988,0.3418v-1.3467h-6.7471v-1.3193h6.7471zM285.5247,229.9693v-0.25293c0,-0.29166 -0.06836,-0.54916 -0.20508,-0.77246c-0.25522,-0.41927 -0.62435,-0.62891 -1.1074,-0.62891c-0.2461,0 -0.47625,0.06836 -0.69043,0.20508c-0.50131,0.31446 -0.75196,0.79752 -0.75196,1.4492c0,0.41016 0.09114,0.75652 0.27344,1.0391c0.2552,0.39192 0.63117,0.58789 1.1279,0.58789c0.45117,0 0.8089,-0.2028 1.0732,-0.6084c0.18685,-0.2871 0.28028,-0.62664 0.28028,-1.0186z"/><path d="M146.835,246.984c-0.05925,2.63867 -0.22558,4.3317 -0.49902,5.0791c-0.19596,0.52865 -0.52409,0.86818 -0.98438,1.0186c-0.24153,0.07747 -0.60383,0.11621 -1.0869,0.11621c-0.80206,0 -1.66797,-0.04785 -2.5977,-0.14356l-0.28027,-1.5244c1.0254,0.14128 1.90266,0.21191 2.6318,0.21191c0.35091,0 0.59017,-0.08203 0.71777,-0.24609c0.23698,-0.31446 0.41244,-1.38998 0.52637,-3.2266h-3.9307c-0.04101,0.23242 -0.11165,0.55827 -0.21191,0.97754l-1.5381,-0.25293c0.36003,-1.6406 0.62663,-3.35643 0.79981,-5.1475h4.6758v-1.6748h-5.1543v-1.333h6.6377v4.2793h-4.7578l-0.01367,0.11621c-0.05014,0.52409 -0.12077,1.10742 -0.21191,1.75zM149.4668,240.5104h1.5381v12.701h-1.5381z"/><path d="M154.102,241.98h4.1426c-0.1504,-0.42382 -0.31217,-0.92739 -0.48535,-1.5107l1.5107,-0.08203c0.17774,0.60612 0.35091,1.13706 0.51953,1.5928h4.7578v1.3193h-4.2861c0.25976,0.64713 0.55372,1.30566 0.88184,1.9756h4.3271v1.3193h-3.6367c0.47851,0.834 0.95932,1.5814 1.4424,2.2422l-1.5312,0.44434c-0.52865,-0.75194 -1.05958,-1.64744 -1.5928,-2.6865h-6.2891v-1.3193h5.6602c-0.26432,-0.56054 -0.53548,-1.21908 -0.81348,-1.9756h-4.6074zM163.2143,252.692c-0.875,0.0638 -1.68847,0.0957 -2.4404,0.0957c-1.97333,0 -3.40204,-0.18457 -4.2861,-0.55371c-1.22593,-0.51497 -1.8389,-1.32844 -1.8389,-2.4404c0,-0.62435 0.1709,-1.12791 0.5127,-1.5107l1.2236,0.66992c-0.14128,0.2871 -0.21191,0.57193 -0.21191,0.85449c0,0.57422 0.39193,0.98892 1.1758,1.2441c0.69726,0.22787 1.76367,0.3418 3.1992,0.3418c0.72007,0 1.56773,-0.03874 2.543,-0.11621z"/><path d="M172.634,247.374l-0.97754,0.46484c-0.05925,-0.3099 -0.11622,-0.58333 -0.1709,-0.82031l-0.25976,0.04102c-0.26888,0.04101 -0.49674,0.0752 -0.68359,0.10254v6.2344h-1.333v-6.0566c-0.56054,0.06836 -1.20995,0.1276 -1.9482,0.17774l-0.2666,-1.2646c0.19597,-0.00454 0.38966,-0.01137 0.58106,-0.02051l0.43066,-0.02051c0.2552,-0.29166 0.54003,-0.63573 0.85449,-1.0322c-0.51041,-0.78386 -1.12565,-1.5495 -1.8457,-2.2969l0.80664,-0.99805c0.14128,0.14584 0.2666,0.278 0.37598,0.39648c0.44662,-0.67907 0.85448,-1.43786 1.2236,-2.2764l1.2031,0.63574c-0.4056,0.73373 -0.9707,1.57227 -1.6953,2.5156c0.23242,0.30534 0.4694,0.6403 0.71094,1.0049c0.84767,-1.194 1.431,-2.0462 1.75,-2.5566l1.0596,0.74512c-0.8932,1.3262 -1.89123,2.58856 -2.9941,3.7871c0.66081,-0.04101 1.24187,-0.08658 1.7432,-0.13672c-0.10937,-0.33268 -0.2347,-0.67221 -0.37598,-1.0186l1.0049,-0.40332c0.33268,0.75654 0.60156,1.6361 0.80664,2.6387v-6.4531h1.333v4.1631h2.2217v-4.7373h1.333v4.7373h2.6865v1.2305h-2.6865v0.5332l0.06836,0.04102c0.87954,0.51497 1.65883,1.09374 2.3379,1.7363l-0.75195,1.1895c-0.4694,-0.5879 -1.02084,-1.17579 -1.6543,-1.7637v3.2197h-1.333v-3.3633c-0.40104,0.92967 -0.91374,1.81833 -1.5381,2.666l-0.68359,-1.0459v1.9961h6.3984v1.2988h-6.3984v0.73145h-1.333zM173.967,249.1308c0.73373,-0.67907 1.36037,-1.67027 1.8799,-2.9736h-1.8799zM166.9807,251.7148c0.24153,-0.916 0.41471,-2.1009 0.51953,-3.5547l1.2305,0.16406c-0.04101,1.57226 -0.20963,2.903 -0.50586,3.9922zM171.3625,251.37984c-0.16862,-1.22134 -0.36459,-2.2399 -0.58789,-3.0557l1.0049,-0.32129c0.32357,1.02993 0.54916,1.99153 0.67676,2.8848zM174.7805,244.42084c-0.17318,-0.92966 -0.42155,-1.9072 -0.74512,-2.9326l1.0664,-0.38965c0.36914,0.94794 0.63574,1.9346 0.7998,2.96zM177.8567,244.07221c0.32357,-0.88867 0.61751,-1.90724 0.88184,-3.0557l1.251,0.38965c-0.27344,1.03906 -0.62434,2.03484 -1.0527,2.9873z"/><path d="M190.736,253.054c-1.7956,-1.39453 -4.50036,-3.18327 -8.1143,-5.3662l-0.04785,-0.03418c-0.56966,-0.34635 -0.85449,-0.71548 -0.85449,-1.1074c0,-0.27344 0.11849,-0.52865 0.35547,-0.76562c0.12304,-0.12304 0.52865,-0.37369 1.2168,-0.75195c1.7682,-0.97073 3.6982,-2.17156 5.79,-3.6025c0.41927,-0.29166 0.86818,-0.61523 1.3467,-0.9707l0.89551,1.1758c-2.33334,1.64973 -4.74186,3.1673 -7.2256,4.5527c-0.24153,0.13672 -0.3623,0.25065 -0.3623,0.3418c0,0.09115 0.13899,0.21875 0.41699,0.38281c3.2448,1.9004 5.73763,3.49317 7.4785,4.7783zM190.36002,246.8948c-0.30078,-0.7474 -0.75878,-1.5586 -1.374,-2.4336l1.0664,-0.38965c0.55143,0.77473 1.01173,1.58136 1.3809,2.4199zM192.28772,246.01296c-0.3418,-0.86587 -0.79297,-1.69073 -1.3535,-2.4746l1.0049,-0.3623c0.51953,0.63802 0.97753,1.42189 1.374,2.3516z"/><path d="M205.002,248.898c-0.30078,0.8294 -0.68132,1.554 -1.1416,2.1738c-0.5879,0.79754 -1.38086,1.5062 -2.3789,2.126l-0.95703,-0.84082c1.45834,-0.82033 2.53157,-1.97333 3.2197,-3.459h-0.9502c-0.86587,1.6406 -2.2057,2.88247 -4.0195,3.7256l-0.86816,-0.89551c1.5814,-0.71546 2.76856,-1.65884 3.5615,-2.8301h-0.91602c-0.41016,0.41927 -0.83399,0.76564 -1.2715,1.0391l-0.76562,-0.74512c-1.11653,0.67907 -2.34016,1.2852 -3.6709,1.8184l-0.50586,-1.3877c0.57422,-0.17317 1.18945,-0.39192 1.8457,-0.65625v-4.6006h-1.6064v-1.3604h1.6064v-2.9121h1.415v2.9121h1.3467v1.3604h-1.3467v3.9854c0.34635,-0.16406 0.77246,-0.3737 1.2783,-0.62891l0.17773,0.875c0.55143,-0.4375 1.00943,-0.95703 1.374,-1.5586h-1.9346v-1.1484h9.3857v1.1484h-5.9746c-0.12304,0.22787 -0.28027,0.48307 -0.47168,0.76562h5.9268c-0.09571,2.347 -0.26889,3.9056 -0.51953,4.6758c-0.12304,0.37825 -0.33269,0.63119 -0.62891,0.75879c-0.20963,0.09571 -0.51725,0.14356 -0.92285,0.14356c-0.47396,0 -0.93652,-0.03418 -1.3877,-0.10254l-0.25293,-1.2988c0.42838,0.10026 0.85449,0.15039 1.2783,0.15039c0.30534,0 0.50131,-0.10026 0.58789,-0.30078c0.16862,-0.40104 0.30534,-1.37857 0.41016,-2.9326zM206.6153,240.4966v4.71h-7.041v-4.71zM200.9483,241.5357v0.81348h4.293v-0.81348zM200.9483,243.3404v0.84082h4.293v-0.84082z"/><path d="M218.408,244.571v1.0186h-6.3438v-0.875c-0.8522,0.6198 -1.77276,1.1644 -2.7617,1.6338l-0.96387,-1.2783c1.28513,-0.51041 2.388,-1.14162 3.3086,-1.8936c1.0208,-0.834 1.87757,-1.86166 2.5703,-3.083h1.7227c0.875,1.28513 2.00066,2.37433 3.377,3.2676c0.74286,0.48308 1.63384,0.95474 2.6729,1.415l-0.90918,1.3467c-0.96614,-0.47851 -1.8115,-0.96388 -2.5361,-1.4561zM218.01835,244.29073c-1.08467,-0.81573 -2.0531,-1.7682 -2.9053,-2.8574c-0.67446,1.08467 -1.51073,2.03713 -2.5088,2.8574zM219.86405,247.07983v6.3164h-1.5654v-0.82715h-6.2549v0.82715h-1.5654v-6.3164zM212.04375,248.36503v2.8711h6.2549v-2.8711z"/><path d="M231.14,240.599h1.4971v2.4746h2.7891v1.3604h-2.7891v4.1973c1.08006,0.49675 2.14873,1.19401 3.206,2.0918l-0.76562,1.3535c-0.8932,-0.77927 -1.71124,-1.39907 -2.4541,-1.8594c-0.08203,1.11653 -0.47854,1.86393 -1.1895,2.2422c-0.39648,0.20963 -0.93881,0.31445 -1.627,0.31445c-0.7474,0 -1.3968,-0.13444 -1.9482,-0.40332c-0.834,-0.4056 -1.251,-1.08007 -1.251,-2.0234c0,-0.74286 0.31674,-1.33303 0.9502,-1.7705c0.57878,-0.40104 1.32161,-0.60156 2.2285,-0.60156c0.41472,0 0.86588,0.05241 1.3535,0.15723v-3.6982h-4.3955v-1.3604h4.3955zM231.14,249.4584c-0.53321,-0.16862 -1.00717,-0.25293 -1.4219,-0.25293c-0.39649,0 -0.73372,0.06153 -1.0117,0.18457c-0.4375,0.18685 -0.65625,0.49219 -0.65625,0.91602c0,0.34635 0.1595,0.61751 0.47852,0.81348c0.3099,0.19141 0.72459,0.28711 1.2441,0.28711c0.91146,0 1.3672,-0.5127 1.3672,-1.5381zM223.7162,252.7465c-0.1595,-1.50394 -0.23926,-3.0853 -0.23926,-4.7441c0,-2.58854 0.17317,-5.0563 0.51953,-7.4033l1.5039,0.21875c-0.3418,2.02346 -0.5127,4.21096 -0.5127,6.5625c0,1.7272 0.08659,3.43847 0.25977,5.1338z"/><path d="M241.98,248.686v4.0059h-3.582v0.7041h-1.3604v-4.71zM238.398,249.8618v1.668h2.208v-1.668zM243.2242,240.5854h4.3818v3.3291c0,0.1504 0.0228,0.24382 0.0684,0.28027c0.05927,0.04558 0.16181,0.06836 0.30762,0.06836c0.20052,0 0.3304,-0.02734 0.38965,-0.08203c0.0456,-0.03646 0.0775,-0.15722 0.0957,-0.3623c0.0456,-0.52409 0.07067,-0.92969 0.0752,-1.2168l1.2783,0.40332c-0.00466,0.52409 -0.03885,1.02312 -0.10254,1.4971c-0.06836,0.55598 -0.36686,0.88639 -0.89551,0.99121c-0.22331,0.04558 -0.55828,0.06836 -1.0049,0.06836c-0.63347,0 -1.05956,-0.07976 -1.2783,-0.23926c-0.18686,-0.13672 -0.28028,-0.38737 -0.28028,-0.75195v-2.7412h-1.709v0.14355c0,0.92514 -0.10026,1.69076 -0.30078,2.2969c-0.22787,0.66537 -0.62664,1.2282 -1.1963,1.6885l-0.99121,-0.99121c0.57422,-0.40104 0.92968,-0.9798 1.0664,-1.7363c0.0638,-0.36003 0.0957,-0.79979 0.0957,-1.3193zM246.943,250.3745c0.87046,0.62891 1.88447,1.16667 3.042,1.6133l-0.81348,1.3604c-1.39,-0.65169 -2.4883,-1.30796 -3.2949,-1.9688c-1.0208,0.8568 -2.0462,1.52673 -3.0762,2.0098l-0.79297,-1.2168c0.99806,-0.3418 1.97106,-0.90233 2.919,-1.6816c-0.8522,-0.91146 -1.49933,-1.88217 -1.9414,-2.9121h-0.68359v-1.2578h6.1318l0.73828,0.66992c-0.61979,1.33526 -1.36262,2.4632 -2.2285,3.3838zM245.9313,249.54052c0.63802,-0.7246 1.07552,-1.37856 1.3125,-1.9619h-2.8574c0.37369,0.67907 0.86359,1.30796 1.4697,1.8867zM237.3317,240.59912h4.3408v1.1484h-4.3408zM236.54557,242.60202h5.7422v1.2305h-5.7422zM237.3317,244.70062h4.3408v1.1348h-4.3408zM237.3317,246.70352h4.3408v1.1074h-4.3408z"/><path d="M257.91,251.407c0.7702,0.1276 1.61103,0.19141 2.5225,0.19141h3.5478c-0.22786,0.45573 -0.39648,0.93652 -0.50585,1.4424h-3.0557c-1.85026,0 -3.31086,-0.22103 -4.3818,-0.66309c-1.03906,-0.42838 -1.89584,-1.13476 -2.5703,-2.1191c-0.53776,1.2806 -1.19856,2.34243 -1.9824,3.1855l-1.0596,-1.2715c1.28513,-1.39 2.0872,-3.19013 2.4062,-5.4004l1.5518,0.23926c-0.14584,0.72007 -0.28711,1.31937 -0.42383,1.7979c0.55143,0.9798 1.3649,1.7044 2.4404,2.1738v-5.291h-3.794v-0.90918h-1.4834v-3.165h5.2363v-1.5244h1.5244v1.5244h5.3525v3.165h-1.4834v0.90918h-3.8418v2.0918h4.6826v1.2715h-4.6826zM252.619,242.9031v1.4902h9.1055v-1.4902z"/><path d="M271.86,251.318c2.67514,-0.67446 4.0127,-2.208 4.0127,-4.6006c0,-1.0436 -0.26888,-1.9414 -0.80664,-2.6934c-0.60156,-0.84767 -1.51756,-1.39227 -2.748,-1.6338c-0.26888,2.1146 -0.63574,3.84636 -1.1006,5.1953c-0.31901,0.94333 -0.71548,1.8343 -1.1894,2.6729c-0.6836,1.194 -1.46063,1.791 -2.3311,1.791c-0.64713,0 -1.22363,-0.29166 -1.7295,-0.875c-0.32356,-0.36914 -0.58561,-0.82261 -0.78613,-1.3604c-0.26432,-0.69726 -0.39648,-1.44693 -0.39648,-2.249c0,-1.2988 0.35773,-2.4951 1.0732,-3.5889c0.7246,-1.11653 1.66566,-1.92774 2.8232,-2.4336c0.84307,-0.36914 1.7682,-0.55371 2.7754,-0.55371c1.57227,0 2.90756,0.42154 4.0059,1.2646c1.34893,1.03454 2.0234,2.4997 2.0234,4.3955c0,3.1764 -1.60643,5.19074 -4.8193,6.043zM270.8346,242.3356c-0.80667,0.09115 -1.48114,0.30761 -2.0234,0.64941c-0.34636,0.22331 -0.69042,0.51953 -1.0322,0.88867c-0.94793,1.0482 -1.4219,2.26273 -1.4219,3.6436c0,1.00714 0.20052,1.79554 0.60156,2.3652c0.2461,0.35091 0.48991,0.52637 0.73145,0.52637c0.32813,0 0.69726,-0.3623 1.1074,-1.0869c1.0026,-1.76367 1.68164,-4.09243 2.0371,-6.9863z"/><path d="M284.38,240.879v-0.78613h1.4834v0.78613h4.4092v1.5518h1.5381v0.97754h-1.5381v1.5996h-4.4092v0.57422h5.0928v0.9502h-5.0928v0.58789h5.9473v1.0049h-13.296v-1.0049h5.8652v-0.58789h-4.915v-0.9502h4.915v-0.57422h-4.3545v-0.92285h4.3545v-0.67676h-5.8652v-0.97754h5.8652v-0.62891h-4.3545v-0.92285zM288.8028,241.80185h-2.9394v0.62891h2.9394zM288.8028,243.40825h-2.9394v0.67676h2.9394zM290.1632,248.69245v4.7031h-1.5107v-0.56055h-6.9727v0.56055h-1.5107v-4.7031zM281.6798,249.62897v0.62891h6.9727v-0.62891zM281.6798,251.15337v0.67676h6.9727v-0.67676z"/><path d="M293.56,241.98h4.1426c-0.15038,-0.42382 -0.31217,-0.92739 -0.48535,-1.5107l1.5107,-0.08203c0.17774,0.60612 0.35092,1.13706 0.51954,1.5928h4.7578v1.3193h-4.2861c0.25976,0.64713 0.5537,1.30566 0.88183,1.9756h4.3272v1.3193h-3.6367c0.47852,0.834 0.95932,1.5814 1.4424,2.2422l-1.5312,0.44434c-0.52864,-0.75194 -1.05957,-1.64744 -1.5928,-2.6865h-6.2891v-1.3193h5.6602c-0.26432,-0.56054 -0.53548,-1.21908 -0.81347,-1.9756h-4.6074zM302.6723,252.692c-0.875,0.0638 -1.68847,0.0957 -2.4404,0.0957c-1.97334,0 -3.40203,-0.18457 -4.2861,-0.55371c-1.22593,-0.51497 -1.8389,-1.32844 -1.8389,-2.4404c0,-0.62435 0.1709,-1.12791 0.5127,-1.5107l1.2236,0.66992c-0.14128,0.2871 -0.21191,0.57193 -0.21191,0.85449c0,0.57422 0.39194,0.98892 1.1758,1.2441c0.69727,0.22787 1.76366,0.3418 3.1992,0.3418c0.72006,0 1.56774,-0.03874 2.543,-0.11621z"/><path d="M313.88,244.728h3.3359v-3.4043h1.5244v4.7646h-4.8604v5.0518h3.7666v-3.1514h1.5518v5.4072h-1.5518v-0.86816h-8.9756v0.86816h-1.5381v-5.4072h1.5381v3.1514h3.6846v-5.0518h-4.7715v-4.7646h1.5244v3.4043h3.2471v-4.6348h1.5244z"/><path d="M321.86,240.668h1.6133v8.1484c0,1.71806 0.90233,2.5771 2.707,2.5771c1.18946,0 2.16474,-0.54916 2.9258,-1.6475c0.49219,-0.7064 0.93425,-1.80014 1.3262,-3.2812l1.3877,0.84082c-0.46484,1.6452 -1.0231,2.87566 -1.6748,3.6914c-1.0254,1.27147 -2.3584,1.9072 -3.999,1.9072c-1.71353,0 -2.9212,-0.52864 -3.623,-1.5859c-0.44206,-0.66081 -0.66309,-1.513 -0.66309,-2.5566z"/><path d="M333.16,241.754c4.19274,-0.0638 8.1554,-0.1709 11.888,-0.32129l0.082,1.3604c-1.6452,0.08203 -2.9258,0.33268 -3.8418,0.75195c-0.875,0.40104 -1.57684,0.95704 -2.1055,1.668c-0.60156,0.80667 -0.90234,1.70446 -0.90234,2.6934c0,0.9844 0.3418,1.72267 1.0254,2.2148c0.78386,0.56054 1.987,0.94564 3.6094,1.1553l-0.32129,1.5381c-2.1146,-0.28256 -3.60256,-0.82942 -4.4639,-1.6406c-0.92514,-0.86587 -1.3877,-1.9414 -1.3877,-3.2266c0,-1.16666 0.41926,-2.25587 1.2578,-3.2676c0.61068,-0.74286 1.44695,-1.33987 2.5088,-1.791c-1.88214,0.0638 -4.3089,0.1709 -7.2803,0.32129zM343.0994,247.6534c-0.26888,-0.71546 -0.72235,-1.52667 -1.3604,-2.4336l1.0664,-0.39648c0.56966,0.78386 1.02766,1.58594 1.374,2.4062zM344.9451,246.93563c-0.32356,-0.83854 -0.77474,-1.6543 -1.3535,-2.4473l1.0186,-0.3623c0.53321,0.64713 0.98667,1.431 1.3604,2.3516z"/><path d="M139.7533,259.172h10.008v10.35h-10.247v-1.4287h8.6201v-7.4922h-8.3809z"/><path d="M153.049,258.304h1.5928v4.3682c2.347,-0.64258 4.35904,-1.44921 6.0361,-2.4199l0.89551,1.2988c-2.15106,1.07553 -4.4616,1.93456 -6.9316,2.5771v3.165c0,0.39648 0.17318,0.63347 0.51953,0.71094c0.41927,0.09571 1.36491,0.14356 2.8369,0.14356c1.52667,0 3.16273,-0.07975 4.9082,-0.23926v1.5449c-1.58594,0.11394 -3.24023,0.1709 -4.9629,0.1709c-1.80014,0 -2.96223,-0.04785 -3.4863,-0.14355c-0.62435,-0.11394 -1.03451,-0.3942 -1.2305,-0.84082c-0.11848,-0.27344 -0.17773,-0.6198 -0.17773,-1.0391zM163.0363,257.63408c0.30534,0 0.597,0.08431 0.875,0.25293c0.27344,0.1595 0.48535,0.38281 0.63574,0.66992c0.13672,0.25521 0.20508,0.52181 0.20508,0.7998c0,0.44662 -0.1595,0.84082 -0.47852,1.1826c-0.33724,0.36003 -0.75424,0.54004 -1.251,0.54004c-0.24609,0 -0.48308,-0.05241 -0.71094,-0.15723c-0.28256,-0.13216 -0.51269,-0.32585 -0.69043,-0.58106c-0.20963,-0.30078 -0.31445,-0.63119 -0.31445,-0.99121c0,-0.278 0.07063,-0.54687 0.21191,-0.80664c0.14128,-0.25977 0.3304,-0.4694 0.56738,-0.62891c0.2871,-0.18685 0.60384,-0.28027 0.9502,-0.28027zM163.0295,258.4749c-0.16862,0 -0.32812,0.04785 -0.47852,0.14356c-0.26888,0.16862 -0.40332,0.41699 -0.40332,0.74512c0,0.23242 0.07976,0.43294 0.23926,0.60156c0.17318,0.18229 0.38738,0.27344 0.64258,0.27344c0.14584,0 0.28027,-0.0319 0.40332,-0.0957c0.31902,-0.16406 0.47852,-0.42382 0.47852,-0.7793c0,-0.25065 -0.08886,-0.46257 -0.2666,-0.63574c-0.16406,-0.16862 -0.36914,-0.25293 -0.61524,-0.25293z"/><path d="M165.744,263.233h12.038v1.5381h-12.038z"/><path d="M180.195,258.168h1.6133v8.1484c0,1.71807 0.90233,2.5771 2.707,2.5771c1.18947,0 2.16474,-0.54917 2.9258,-1.6475c0.49219,-0.7064 0.93426,-1.80013 1.3262,-3.2812l1.3877,0.84082c-0.46484,1.6452 -1.02311,2.87567 -1.6748,3.6914c-1.0254,1.27146 -2.3584,1.9072 -3.999,1.9072c-1.71354,0 -2.9212,-0.52864 -3.623,-1.5859c-0.44206,-0.6608 -0.66308,-1.51301 -0.66308,-2.5566z"/><path d="M191.494,259.254c4.19273,-0.0638 8.1554,-0.1709 11.888,-0.32129l0.08203,1.3604c-1.6452,0.08203 -2.9258,0.33269 -3.8418,0.75195c-0.875,0.40104 -1.57684,0.95704 -2.1055,1.668c-0.60156,0.80666 -0.90234,1.70446 -0.90234,2.6934c0,0.9844 0.3418,1.72266 1.0254,2.2148c0.78386,0.56054 1.987,0.94565 3.6094,1.1553l-0.32129,1.5381c-2.1146,-0.28256 -3.60256,-0.82942 -4.4639,-1.6406c-0.92514,-0.86586 -1.3877,-1.9414 -1.3877,-3.2266c0,-1.16666 0.41926,-2.25586 1.2578,-3.2676c0.61068,-0.74286 1.44694,-1.33986 2.5088,-1.791c-1.88214,0.0638 -4.3089,0.17089 -7.2803,0.32129z"/><path d="M214.627,270.554c-2.05987,-1.60413 -4.7578,-3.39513 -8.0938,-5.373c-0.61524,-0.36003 -0.92285,-0.7383 -0.92285,-1.1348c0,-0.28256 0.13444,-0.54916 0.40332,-0.7998c0.11393,-0.10937 0.40105,-0.29166 0.86133,-0.54688c1.68167,-0.93426 3.49546,-2.04854 5.4414,-3.3428c0.73373,-0.48307 1.40136,-0.9502 2.0029,-1.4014l0.89551,1.1758c-2.347,1.6634 -4.75553,3.18097 -7.2256,4.5527c-0.24153,0.13672 -0.3623,0.25066 -0.3623,0.3418c0,0.07292 0.06608,0.15495 0.19824,0.24609c0.03646,0.02735 0.24838,0.15495 0.63574,0.38281c3.12634,1.84573 5.48017,3.35647 7.0615,4.5322z"/><path d="M217.635,260.027h3.1924c0.1276,-0.5651 0.27116,-1.29654 0.43066,-2.1943l1.5449,0.19141c-0.13672,0.7064 -0.28256,1.37403 -0.4375,2.0029h3.6846v1.3604h-4.0059c-0.91146,3.64127 -1.91863,6.66047 -3.0215,9.0576l-1.5107,-0.5332c1.1986,-2.65693 2.19664,-5.4984 2.9941,-8.5244h-2.8711zM229.735,270.083c-0.73827,0.09571 -1.5677,0.14356 -2.4883,0.14356c-1.49026,0 -2.61594,-0.12761 -3.377,-0.38281c-0.29166,-0.10026 -0.54004,-0.24153 -0.74512,-0.42383c-0.40104,-0.36458 -0.60156,-0.82942 -0.60156,-1.3945c0,-0.57878 0.18685,-1.08918 0.56055,-1.5312l1.2168,0.71777c-0.14128,0.17773 -0.21191,0.37369 -0.21191,0.58789c0,0.36914 0.16862,0.6084 0.50586,0.71777c0.51497,0.16406 1.24871,0.24609 2.2012,0.24609c0.92514,0 1.848,-0.06836 2.7686,-0.20508zM223.3229,263.3086c1.78646,-0.20508 3.74153,-0.31446 5.8652,-0.32812l0.06836,1.3877c-2.08266,0.00912 -3.99446,0.1071 -5.7354,0.29395zM227.7047,260.7178c-0.25065,-0.69727 -0.70412,-1.5244 -1.3604,-2.4814l1.0664,-0.38965c0.57878,0.82486 1.03678,1.63606 1.374,2.4336zM229.6393,260.26663c-0.32812,-0.8568 -0.77703,-1.68166 -1.3467,-2.4746l1.0049,-0.36914c0.51953,0.64258 0.97753,1.42645 1.374,2.3516z"/><path d="M231.58,260.293h5.4892c-0.29622,-0.77927 -0.56737,-1.554 -0.81347,-2.3242l1.4971,-0.0957c0.23698,0.8112 0.52181,1.61784 0.85449,2.4199h5.0518v1.4014h-4.4092c0.58789,1.2168 1.32388,2.486 2.208,3.8076l-1.4356,0.68359c-0.97527,-1.47654 -1.77507,-2.9736 -2.3994,-4.4912h-6.043zM241.5194,270.376c-0.90694,0.05014 -1.709,0.0752 -2.4062,0.0752c-1.89586,0 -3.29266,-0.14811 -4.1904,-0.44434c-1.6224,-0.52864 -2.4336,-1.52668 -2.4336,-2.9941c0,-0.90233 0.28027,-1.62923 0.84082,-2.1807l1.2852,0.69727c-0.37369,0.36914 -0.56054,0.85221 -0.56054,1.4492c0,0.76106 0.41017,1.29426 1.2305,1.5996c0.7246,0.26888 1.93684,0.40332 3.6367,0.40332c0.72007,0 1.53127,-0.03418 2.4336,-0.10254z"/><path d="M251.81,266.521c-0.84306,2.4792 -1.7887,3.7188 -2.8369,3.7188c-0.7474,0 -1.3877,-0.5241 -1.9209,-1.5723c-0.41016,-0.8112 -0.6927,-1.70444 -0.84765,-2.6797c-0.18686,-1.18487 -0.28028,-2.707 -0.28028,-4.5664c0,-0.80667 0.02963,-1.67257 0.0889,-2.5977l1.6064,0.12305c-0.05927,0.92514 -0.0889,1.8047 -0.0889,2.6387c0,2.9258 0.27344,4.9652 0.82031,6.1182c0.22331,0.47396 0.43295,0.71094 0.62891,0.71094c0.1276,0 0.2871,-0.14583 0.47851,-0.4375c0.39192,-0.59244 0.77019,-1.40821 1.1348,-2.4473zM256.1371,268.148c-0.23242,-1.9232 -0.51725,-3.47724 -0.85449,-4.6621c-0.41016,-1.43554 -0.88638,-2.7503 -1.4287,-3.9443l1.4561,-0.35547c0.75193,1.49026 1.3102,2.9258 1.6748,4.3066c0.30078,1.12106 0.54916,2.5475 0.74512,4.2793z"/></g></g></g></svg>