<svg version="1.1" xmlns="http://www.w3.org/2000/svg" xmlns:xlink="http://www.w3.org/1999/xlink" width="80.39289" height="119.25666" viewBox="0,0,80.39289,119.25666"><g transform="translate(-28.3415,-217.89773)"><g data-paper-data="{&quot;isPaintingLayer&quot;:true}" fill="none" fill-rule="evenodd" stroke="#fc3324" stroke-width="36" stroke-linecap="round" stroke-linejoin="round" stroke-miterlimit="4" stroke-dasharray="" stroke-dashoffset="0" style="mix-blend-mode: normal"><g><path d="M59.78933,239.76711l3.50944,-0.27995l2.11966,-1.71972l4.48928,-0.23996l3.0895,0.44993l-0.6299,-1.21981l2.01968,-0.85987l-0.07998,4.59927l3.81939,2.4796l1.8297,0.14997l-2.56959,4.29931l0.71988,1.96968l-1.57975,0.31995l0.04999,2.72956l-1.11982,4.20933l-1.12982,1.8997l0.31995,2.92953l1.17981,1.2198l-0.97984,1.41978l1.97968,1.8297l2.85955,-2.02967l2.90953,5.50912l2.76956,1.2498l0.95985,3.10951l-0.68989,2.32963l-5.29915,5.0292l-0.5899,2.52959l4.50928,-0.89986l3.53944,0.74988l-2.36962,0.38993l2.25964,1.2698l2.27963,-1.30979l0.76988,0.91985l-2.03967,1.30979l-5.93905,2.57959l-1.99968,1.56975l-2.96952,0.29995l-2.44961,2.61958l-2.57959,0.37994l-0.6099,3.57943l-0.75988,-1.12982l-1.2698,2.4896l-3.33946,2.66957l-4.40929,2.17965l-2.35963,1.94968l-3.93937,0.47993l-4.03935,4.20932l2.71956,0.18997l-1.82971,1.65974l-0.75987,2.51959l-4.60926,0.81987l-0.89986,1.18981l1.09983,2.02967l-1.40978,0.75988"/><path d="M80.13608,235.92773l-1.62974,3.83938l-0.15997,2.47961l-3.46945,-1.69973l-0.21997,-1.14982l2.56959,-1.03983l0.30995,-1.28979l2.59958,-1.13982"/></g></g></g></svg>