<svg version="1.1" xmlns="http://www.w3.org/2000/svg" xmlns:xlink="http://www.w3.org/1999/xlink" width="36.41855" height="54.81781" viewBox="0,0,36.41855,54.81781"><g transform="translate(-82.12128,-191.43597)"><g data-paper-data="{&quot;isPaintingLayer&quot;:true}" fill="#ff0000" fill-rule="evenodd" stroke="none" stroke-width="0" stroke-linecap="round" stroke-linejoin="round" stroke-miterlimit="10" stroke-dasharray="" stroke-dashoffset="0" style="mix-blend-mode: normal"><path d="M104.74038,201.0156l0.90996,0.16999l1.66993,-0.85997l1.25995,-1.51994l0.89996,-0.11l2.5199,-3.18987l0.56998,-1.28995l1.80993,-2.09992l1.80993,-0.67997l0.80997,0.89996l0.66997,1.33995l0.57998,0.22999l0.28999,1.48994l-0.80997,1.46994l-2.20991,2.29991l-0.27999,2.78989l-1.30995,2.29991l-1.77993,1.44994l-1.01996,1.32995l-1.72993,3.13987l-3.31987,4.38982l-0.62997,2.3799l0.31999,3.61986l-0.42998,1.92992l0.98996,1.44994l1.12995,0.55998l0.32999,2.32991l1.02996,1.45994l1.54994,0.98996l0.50998,1.23995l0.24999,2.4599l-2.74989,1.02996l-2.5699,0.70997l-1.37994,0.95996l-3.82985,1.58994l-1.69993,1.13995l-1.41994,1.62993l-1.46994,0.98996l-2.5199,-0.06l-4.10984,1.41994l-0.33999,-2.16991l-1.17995,-0.98996l-1.53994,-0.22999l-0.36999,-0.65997l1.03996,-2.01992l1.05996,-0.72997l-0.26999,-1.42994l-1.78993,1.48994l-0.50998,-0.40998l-2.31991,-0.24999l0.39998,-0.75997l-0.40998,-1.49994l-1.02996,-1.01996l0.07,-2.4099l1.17995,-2.4999l1.94992,-0.83997l1.99992,0.26999l1.73993,-1.48994l0.86997,-1.83993l1.53994,-4.23983l0.87996,-0.25999l1.17995,-2.96988l0.75997,-0.66997l0.74997,-1.63993l0.67997,-2.18991l0.62997,-0.22999l1.45994,-2.15991l1.75993,0.17999l1.04996,-1.16995l2.27991,-4.45982l0.72997,-1.08996l1.10996,-0.98996"/><path d="M99.0406,244.41386l-0.01,0.90996l-0.92996,0.92996l-1.00996,-0.03l0.04,-0.96996l0.74997,-0.30999l0.22999,-1.42994l0.92996,0.89996"/></g></g></svg>