<?xml version="1.0" encoding="UTF-8"?>
<svg width="480" height="360" version="1.1" viewBox="0 0 480 360" xmlns="http://www.w3.org/2000/svg">
 <g dominant-baseline="central" fill="#fff" aria-label="ヨーロッパ東部">
  <path d="m241.68 172.5h14.668v15.42h-15.244v-2.002h12.988v-5h-11.924v-2.002h11.924v-4.4141h-12.412z" dominant-baseline="central"/>
  <path d="m259.59 178.55h17.197v2.1973h-17.197z" dominant-baseline="central"/>
  <path d="m279.76 172.7h15.322v15.078h-15.322zm2.2754 2.0801v10.918h10.771v-10.918z" dominant-baseline="central"/>
  <path d="m300.12 181.74q-0.70313-3.0078-1.9043-5.5566l1.8555-0.9082q1.2402 2.5391 2.0215 5.7031zm4.5312-0.87891q-0.54688-2.3926-1.7969-5.5371l1.9238-0.80079q1.123 2.4707 1.875 5.5957zm-3.0371 6.0742q3.2617-0.86914 4.9805-2.3438t2.6172-4.2578q0.70313-2.207 1.0254-5.6738l2.0801 0.61524q-0.58593 4.5801-1.6309 7.0215-1.2695 2.9883-3.8086 4.6094-1.6113 1.0352-4.1211 1.8359z" dominant-baseline="central"/>
  <path d="m314.75 186.51q1.6992-2.5 2.9199-6.123 1.3281-3.9648 1.6797-8.0566l2.2363 0.45899q-0.86914 5.9961-2.334 10.078-1.0547 2.9688-2.5977 5.2051zm15.557 1.6602q-1.7383-2.9199-3.1836-7.041-1.377-3.9355-2.2754-8.3594l2.1191-0.6543q1.6797 8.4277 5.2832 14.58zm0.71289-17.881q0.6543 0 1.25 0.36133 0.58594 0.35156 0.90821 0.95703 0.29297 0.54687 0.29297 1.1426 0 0.95703-0.6836 1.6894-0.72265 0.77148-1.7871 0.77148-0.52734 0-1.0156-0.22461-0.60547-0.2832-0.98633-0.83007-0.44922-0.64454-0.44922-1.416 0-0.5957 0.30274-1.1523 0.30273-0.55664 0.82031-0.89844 0.61523-0.40039 1.3476-0.40039zm-0.01 1.2012q-0.36133 0-0.68359 0.20508-0.57618 0.36133-0.57618 1.0644 0 0.49805 0.3418 0.85938 0.37109 0.39062 0.91797 0.39062 0.3125 0 0.57617-0.13672 0.68359-0.35156 0.68359-1.1133 0-0.53711-0.38085-0.9082-0.35157-0.36133-0.87891-0.36133z" dominant-baseline="central"/>
  <path d="m347.03 183.15q2.4219 2.1582 6.5234 3.4863l-1.2598 1.8359q-2.3633-0.83984-4.1211-2.0312-1.8164-1.2402-3.3496-3.0469v6.1035h-2.1191v-5.9961q-1.3574 1.9043-3.5059 3.418-1.6504 1.1621-3.5352 1.875l-1.3379-1.7188q3.0957-1.0254 5.166-2.7637 0.58593-0.48829 1.1914-1.1621h-4.6973v-7.998h6.7188v-1.3184h-8.0957v-1.7578h8.0957v-1.582h2.1191v1.582h8.2226v1.7578h-8.2226v1.3184h6.8457v7.998zm-4.3262-6.3574h-4.5996v1.582h4.5996zm2.1191 0v1.582h4.7266v-1.582zm-2.1191 3.1055h-4.5996v1.6113h4.5996zm2.1191 0v1.6113h4.7266v-1.6113z" dominant-baseline="central"/>
  <path d="m360.81 172.75h4.1797v1.8848h-1.377q-0.37109 1.4941-0.99609 3.1348h2.6074v1.8848h-10.898v-1.8848h2.3926q-0.39063-1.875-0.82031-3.1348h-1.2695v-1.8848h4.1406v-2.2559h2.041zm-2.9395 1.8848q0.49805 1.4551 0.77149 3.1348h1.9922l0.0976-0.27344q0.41992-1.1133 0.78125-2.5293l0.0879-0.33203zm6.0547 6.6602v7.998h-2.002v-0.95703h-4.2578v1.1621h-2.0606v-8.2031zm-6.2598 1.7969v3.3887h4.2578v-3.3887zm13.047-4.9316q1.1621 1.1035 1.8457 2.627 0.67383 1.5234 0.67383 3.0859 0 1.4453-0.53711 2.1289-0.55664 0.71289-1.8359 0.71289-1.0938 0-2.1191-0.15625l-0.47851-2.0801q1.1816 0.21485 1.9531 0.21485 0.58594 0 0.73243-0.27344 0.0976-0.19531 0.0976-0.78125 0-2.4121-1.4453-4.1602-0.38086-0.45898-0.95703-0.98633l0.11719-0.27343q1.0156-2.2949 1.582-4.7852h-2.5v16.064h-2.0215v-18.086h5.8789l1.084 0.99609q-0.98633 3.3594-2.0703 5.752z" dominant-baseline="central"/>
 </g>
</svg>
