<?xml version="1.0" encoding="UTF-8"?>
<svg width="480" height="360" version="1.1" viewBox="0 0 480 360" xmlns="http://www.w3.org/2000/svg">
 <g fill="#fff" aria-label="愛知県外海">
  <path d="m255.53 174.82h3.4961v4.0039h-1.748q0.57617 0.84961 1.1035 1.8164l-1.875 1.0058q-1.2012-2.4023-2.4414-3.9062l1.7188-0.82031q0.625 0.72266 1.123 1.377v-1.875h-6.4844q0.83008 0.85937 1.7188 2.2168l-1.7578 1.084q-0.61524-1.2305-1.7188-2.5586l1.3184-0.74218h-6.9141v2.4023h-2.1191v-4.0039h3.3398q-0.30274-0.74218-0.77149-1.543-0.42969 0.0195-1.4551 0.0684l-0.82031-1.6406q9.0918-0.22461 15.137-1.3086l1.543 1.4453q-1.416 0.23437-2.6074 0.40039l1.4258 0.41992q-0.35156 0.82031-1.2109 2.1582zm-2.1191 0q0.73242-1.3281 1.1719-2.4805-1.8945 0.25391-4.248 0.44922 0.61523 0.95703 0.98633 2.0312zm-4.1992 0q-0.37109-0.88867-0.98633-1.875l-2.6074 0.20508q0.57617 0.9375 0.83985 1.6699zm-3.2812 9.7266q-1.7285 1.0938-3.7598 1.8164l-1.2207-1.582q3.7891-1.1621 6.0645-3.418-0.76172-0.3125-0.76172-1.0644v-3.1348h2.0801v2.1387q0 0.51758 0.2539 0.625 0.24414 0.0977 1.8066 0.0977 1.7676 0 1.9727-0.21484 0.24414-0.25391 0.26367-1.4062l1.8945 0.47851q0.01 0.0977 0.01 0.18555 0 1.2695-0.40039 1.8555-0.28321 0.41992-1.1035 0.51758-1.0742 0.13672-3.0078 0.13672-0.41016 0-0.75195-0.01-0.3711 0.45898-0.74219 0.83008h6.8652l0.89844 0.89844q-1.6016 1.6992-3.7988 2.9492 2.8809 0.90821 7.0312 1.2988l-1.2402 1.9141q-4.2383-0.61523-7.8906-2.1094-3.8574 1.8066-8.6816 2.4121l-1.123-1.7578q4.0332-0.32227 7.7637-1.6602-1.3281-0.78125-2.4219-1.7969zm4.4727 0.92773q0.0586-0.0195 0.2539-0.12695 1.2988-0.69336 2.2754-1.4648h-5.2148q1.2695 0.9375 2.6856 1.5918zm-8.4766-4.5312q0.96679-1.2402 1.7969-3.7207l1.9043 0.55664q-0.63477 2.5293-1.8652 4.209z"/>
  <path d="m267.04 174.72v3.6621h3.1934v1.8848h-3.2227q-0.0488 0.9668-0.17578 1.9434 1.9922 1.6504 3.6816 3.6816l-1.4062 1.9336q-1.1328-1.748-2.7734-3.457-0.38086 1.1328-1.1328 2.3047-1.1426 1.7774-2.8516 2.8711l-1.5039-1.7188q3.75-2.2461 4.082-7.5586h-4.2383v-1.8848h4.2871v-3.6621h-1.1621q-0.68359 1.6211-1.6797 2.9785l-1.6016-1.2988q1.6894-2.1875 2.4023-5.8984l2.0996 0.3125q-0.2832 1.2012-0.52734 1.9629h5.3223v1.9434zm11.66-2.1973v16.143h-2.0996v-1.2891h-3.6816v1.4844h-2.0801v-16.338zm-5.7812 1.9629v10.928h3.6816v-10.928z"/>
  <path d="m296.76 170.98v9.4629h-11.621v-9.4629zm-9.5215 1.543v1.2207h7.4023v-1.2207zm0 2.5977v1.2207h7.4023v-1.2207zm0 2.5976v1.2598h7.4023v-1.2598zm-3.9356 4.0234h16.191v1.6992h-8.0762v6.0644h-2.2168v-6.0644h-8.0371v-10.957h2.1387zm-2.5 5.8984q2.3242-1.0742 4.4434-3.6035l1.7969 1.0449q-2.0898 2.6465-4.6387 4.1602zm16.836 1.2598q-1.4941-1.8359-4.4922-3.8574l1.6797-1.1816q2.3535 1.3574 4.6191 3.5644z"/>
  <path d="m310.46 175.44q1.0742 1.2012 2.2656 2.2363v-7.1777h2.1973v8.8574q2.2363 1.4746 4.9023 2.4316l-1.123 2.0312q-1.9629-0.83008-3.7793-1.9922v7.6758h-2.1973v-9.2676q-1.5723-1.2598-2.6953-2.5586-0.83008 3.5547-2.3535 5.9668-2.1875 3.457-5.5957 5.5371l-1.5332-1.6016q3.5449-1.9531 5.8301-5.9375-1.3574-1.3965-2.9883-2.5586-0.81054 1.2109-1.8066 2.3047l-1.2793-1.7383q1.748-1.8945 2.8516-4.541 0.83008-2.0215 1.3672-4.6484l2.041 0.30274q-0.24414 1.2402-0.46875 2.0996h3.5938l0.9961 0.8789q-0.14649 1.2207-0.22461 1.6992zm-3.1543 4.209q0.91797-2.5488 1.2207-4.9024h-3.0176q-0.52734 1.4551-1.1816 2.7246 1.748 1.0742 2.9785 2.1777z"/>
  <path d="m337.76 175.8q0 0.45899-0.0879 4.3555h1.8652v1.7578h-1.9043q-0.0293 1.2793-0.12695 2.9004h1.6504v1.7188h-1.7774q-0.11718 1.416-0.32226 1.875-0.45899 1.0938-2.2266 1.0938-1.1328 0-2.0898-0.16601l-0.36133-1.7383q1.377 0.19531 2.1094 0.19531 0.5957 0 0.71289-0.41992 0.0586-0.20508 0.10742-0.83985h-6.9531q-0.01 0.0781-0.0293 0.16602-0.0879 0.51758-0.16602 0.97656l-2.0215-0.19531q0.5957-3.5254 0.80078-5.332l0.0293-0.23438h-1.9531v-1.7578h2.1582q0.27343-2.3633 0.46875-4.3555zm-6.1719 1.6992h-2.1387q-0.0293 0.49805-0.17578 2.0996l-0.0586 0.55664h2.168l0.0293-0.27344q0.0195-0.2832 0.0586-0.79101 0.0977-1.3672 0.11719-1.5918zm1.9238 0q-0.0488 1.1621-0.14649 2.5684v0.0879h2.2949q0.0391-1.3379 0.0684-2.6562zm-2.2852 4.4141h-2.1973q-0.14648 1.1914-0.3125 2.3535l-0.0781 0.54687h2.2852q0.23437-2.1191 0.30273-2.9004zm2.002 0q-0.0293 0.39063-0.11718 1.2891l-0.15625 1.6113h2.4902q0.0488-0.94726 0.0781-1.4258 0.0586-1.0449 0.0781-1.4746zm-3.8281-9.6387h9.4336v1.8164h-10.244q-0.79101 1.6113-2.0117 3.0664l-1.3965-1.5234q1.9238-2.2559 2.7344-5.1953l2.0801 0.21485q-0.35156 1.0156-0.5957 1.6211zm-5.3809 2.8418q-1.2012-1.6504-2.9199-3.0957l1.4746-1.4258q1.5918 1.1719 3.0273 2.959zm-0.70313 5.1562q-1.4844-1.9043-2.998-3.1934l1.5234-1.4648q1.6992 1.3379 3.0566 3.0469zm-2.6562 7.666q1.6992-2.3535 3.2227-6.2012l1.7383 1.2402q-1.2695 3.5547-3.2617 6.5234z"/>
 </g>
</svg>
