<svg version="1.1" xmlns="http://www.w3.org/2000/svg" xmlns:xlink="http://www.w3.org/1999/xlink" width="126" height="100" viewBox="0,0,126,100"><g transform="translate(-177,-130)"><g data-paper-data="{&quot;isPaintingLayer&quot;:true}" fill-rule="nonzero" stroke-linecap="butt" stroke-linejoin="miter" stroke-miterlimit="10" stroke-dasharray="" stroke-dashoffset="0" style="mix-blend-mode: normal"><path d="M191.78047,170.37207h13.85952v3.01481h-13.85952zM210.0178,191.16972c-2.89183,0.45383 -5.9628,0.68075 -9.21296,0.68075c-3.33948,0 -6.02096,-0.32417 -8.04445,-0.97253c-0.78786,-0.25007 -1.51753,-0.64834 -2.18899,-1.19479c-1.02958,-0.85213 -1.54438,-2.03305 -1.54438,-3.54274c0,-1.89872 0.7073,-3.56128 2.12187,-4.98767l2.33671,1.59769c-0.85948,1.04665 -1.28922,2.03304 -1.28922,2.95921c0,1.03738 0.60432,1.77372 1.81296,2.20904c0.64463,0.24083 1.66977,0.43532 3.07539,0.58351c1.16391,0.12968 2.36809,0.1945 3.61257,0.1945c3.14251,0 6.11055,-0.23617 8.90413,-0.70854zM208.16453,172.53939c-0.67146,-1.66719 -1.56677,-3.29269 -2.68594,-4.87646l2.05469,-0.76413c1.08334,1.50048 1.98312,3.08429 2.69938,4.75142zM211.88453,171.81694c-0.62672,-1.63012 -1.5086,-3.25098 -2.64563,-4.86255l1.98757,-0.70854c0.96694,1.20409 1.86224,2.75084 2.68594,4.64029z" fill="#ff0000" stroke="none" stroke-width="1"/><path d="M233.80225,193.21264c-4.04676,-3.26024 -9.34687,-6.90034 -15.90029,-10.92032c-1.20865,-0.73172 -1.81295,-1.50045 -1.81295,-2.30625c0,-0.57425 0.26412,-1.1161 0.79234,-1.62548c0.22383,-0.22228 0.78786,-0.59278 1.6921,-1.11147c3.30369,-1.89872 6.86713,-4.16329 10.6903,-6.79372c1.44145,-0.98177 2.75307,-1.93113 3.93484,-2.84808l1.7593,2.38965c-4.61083,3.38065 -9.34252,6.465 -14.19505,9.25297c-0.47451,0.27785 -0.71177,0.50944 -0.71177,0.69466c0,0.14819 0.12983,0.3149 0.38946,0.50014c0.07163,0.05557 0.48795,0.31492 1.24899,0.77803c6.14197,3.75116 10.76627,6.82165 13.87288,9.2115z" fill="#ff0000" stroke="none" stroke-width="1"/><path d="M254.45597,171.45573l4.9689,-0.38902c-1.09229,-1.04665 -2.39049,-2.03768 -3.89461,-2.97311l2.05476,-1.44486c1.47724,0.8058 2.82466,1.74126 4.04226,2.80638l-2.04133,1.59767l3.80055,-0.27785l0.20144,2.41738l-9.02438,0.70854c0.00895,0.37975 0.05373,1.09292 0.1343,2.13951l7.89671,-0.66687l0.18801,2.33406l-7.84288,0.68076c0.01791,0.17597 0.04925,0.43995 0.094,0.79191c0.01791,0.15747 0.08058,0.57891 0.18801,1.26429l8.86327,-0.79191l0.21487,2.44519l-8.50101,0.84749c0.34917,1.12073 0.74309,2.09325 1.1818,2.9176c1.51308,-1.01884 2.89184,-2.06547 4.13633,-3.13986l1.94727,1.76441c-1.55781,1.29671 -3.12459,2.45448 -4.70031,3.47333c0.66251,0.84286 1.27579,1.47267 1.83985,1.88944c0.59088,0.44458 0.98032,0.66687 1.16836,0.66687c0.25068,0 0.4387,-0.28251 0.56405,-0.8475c0.16115,-0.72244 0.29095,-1.8061 0.38945,-3.25098l2.52477,1.38932c-0.19696,2.0006 -0.48793,3.45475 -0.87289,4.36242c-0.44765,1.05587 -1.07885,1.58379 -1.89358,1.58379c-0.62672,0 -1.49068,-0.29176 -2.59188,-0.8753c-1.36985,-0.73172 -2.60536,-1.85241 -3.70656,-3.36211c-2.69483,1.50048 -5.54187,2.81107 -8.54109,3.93175l-1.67867,-2.38967c3.11568,-0.94476 6.08816,-2.17661 8.91749,-3.69559c-0.61775,-1.17627 -1.14151,-2.55169 -1.57125,-4.12626l-6.71475,0.68076l-0.26859,-2.62581l6.44617,-0.58352l-0.0403,-0.20839c-0.08953,-0.54646 -0.17459,-1.16701 -0.25516,-1.86164l-4.99577,0.44458l-0.18802,-2.38966l4.9421,-0.4168c-0.04479,-0.52794 -0.09403,-1.24111 -0.14772,-2.13951l-5.54639,0.44459l-0.26859,-2.47299l5.69413,-0.43068c-0.05372,-1.47267 -0.08057,-3.07502 -0.08057,-4.80704h2.88734c0.00895,1.96354 0.03581,3.49177 0.08057,4.58469zM243.83324,173.30356c-1.22656,-1.42635 -2.66351,-2.80177 -4.31085,-4.12627l2.001,-2.13951c1.7011,1.30596 3.16044,2.63509 4.37805,3.98735zM242.85285,180.30572c-1.45933,-1.69493 -2.91867,-3.07963 -4.37803,-4.15408l1.92038,-2.27844c1.66525,1.12073 3.16938,2.44521 4.51234,3.97344zM238.66286,191.36505c1.72792,-2.45445 3.335,-5.44148 4.82125,-8.96112l2.28304,1.95896c-1.36083,3.51036 -2.90972,6.62233 -4.64664,9.3359z" fill="#ff0000" stroke="none" stroke-width="1"/><path d="M279.3429,185.01569c-1.6563,5.03858 -3.51406,7.55789 -5.57328,7.55789c-1.46828,0 -2.72617,-1.06515 -3.77366,-3.19546c-0.80578,-1.64866 -1.36086,-3.464 -1.66524,-5.44609c-0.36707,-2.40817 -0.55061,-5.50171 -0.55061,-9.28062c0,-1.6394 0.05819,-3.39918 0.17458,-5.27935l3.15593,0.25007c-0.11639,1.88019 -0.17458,3.66778 -0.17458,5.36277c0,5.94645 0.53718,10.09112 1.61156,12.43403c0.43869,0.96324 0.85055,1.44486 1.23555,1.44486c0.25068,0 0.56404,-0.2964 0.94008,-0.88921c0.76995,-1.20409 1.51304,-2.86201 2.22929,-4.97377zM287.84391,188.32227c-0.45661,-3.9086 -1.01616,-7.06689 -1.67866,-9.47491c-0.80578,-2.91755 -1.74139,-5.58967 -2.80681,-8.01632l2.86048,-0.72244c1.47724,3.02872 2.57397,5.94638 3.29023,8.75302c0.59088,2.27847 1.07884,5.17743 1.46383,8.69689z" fill="#ff0000" stroke="none" stroke-width="1"/><path d="M177,230v-100h126v100z" fill="none" stroke="#959196" stroke-width="0"/><path d="M177,230v-100h126v100z" fill="none" stroke="#959196" stroke-width="0"/></g></g></svg>