<?xml version="1.0" encoding="UTF-8"?>
<svg width="480" height="360" version="1.1" viewBox="0 0 480 360" xmlns="http://www.w3.org/2000/svg">
 <g dominant-baseline="central" fill="#fff" aria-label="秋田県沖">
  <path d="m244.14 180.84q-1.1621 2.9688-2.7637 5.0195l-1.0742-1.8262q2.207-2.5879 3.5254-6.2402h-3.3301v-1.8555h3.6426v-2.6465q-1.2988 0.23437-2.7051 0.39062l-0.73243-1.6797q3.9062-0.44922 7.041-1.5625l1.2207 1.6602q-1.123 0.36133-2.7832 0.77148v3.0664h2.5781v1.8555h-2.5781v1.582q1.6894 1.0644 3.1152 2.4023l-1.1719 1.8359q-0.81055-1.0352-1.9434-2.1973v8.0859h-2.041zm10.645-10.342v6.084q0 2.4316 0.67382 4.2578 0.6836 1.8262 2.002 3.7695 1.1035 1.6211 2.3828 2.793l-1.4551 2.0117q-2.2656-2.334-3.6719-5.4688-0.44922-0.98633-0.74219-2.0801-0.27344 1.5039-1.1035 3.1055-1.5527 2.9785-4.0039 4.6289l-1.416-1.7188q2.4609-1.6113 3.8477-4.1602 1.3476-2.4902 1.3476-6.7871v-6.4355zm0.65429 8.8965q1.4356-3.0469 2.0996-5.6543l2.0215 0.87891q-1.1426 3.418-2.4024 5.5566zm-6.7969 0.26367q0.68359-1.8262 1.0449-5.3418l1.8945 0.2832q-0.27344 3.8086-1.1035 5.918z" dominant-baseline="central"/>
  <path d="m278.3 171.93v17.041h-2.1777v-1.3965h-12.246v1.377h-2.1777v-17.021zm-14.424 1.9629v4.6777h5v-4.6777zm0 6.6016v5.0586h5v-5.0586zm12.246 5.0586v-5.0586h-5.127v5.0586zm0-6.9824v-4.6777h-5.127v4.6777z" dominant-baseline="central"/>
  <path d="m296.76 170.98v9.4629h-11.621v-9.4629zm-9.5215 1.543v1.2207h7.4023v-1.2207zm0 2.5977v1.2207h7.4023v-1.2207zm0 2.5976v1.2598h7.4023v-1.2598zm-3.9356 4.0234h16.191v1.6992h-8.0762v6.0644h-2.2168v-6.0644h-8.0371v-10.957h2.1387zm-2.5 5.8984q2.3242-1.0742 4.4434-3.6035l1.7969 1.0449q-2.0898 2.6465-4.6387 4.1602zm16.836 1.2598q-1.4941-1.8359-4.4922-3.8574l1.6797-1.1816q2.3535 1.3574 4.6191 3.5644z" dominant-baseline="central"/>
  <path d="m311.58 174.14v-3.6426h2.0996v3.6426h5.293v8.8379h-5.293v6.5234h-2.0996v-6.5234h-5.1856v-8.8379zm-3.1641 1.9434v4.9707h3.1641v-4.9707zm8.4766 4.9707v-4.9707h-3.2129v4.9707zm-12.5-5.7812q-1.1914-1.6602-3.1543-3.1738l1.4551-1.4844q1.9531 1.377 3.3008 3.0859zm-0.63476 5.0195q-1.6992-1.9727-3.3008-3.2324l1.5039-1.5039q1.709 1.2012 3.3789 3.1055zm-3.0371 7.5684q1.875-2.666 3.457-6.6406l1.7383 1.3379q-1.3379 3.6621-3.2617 6.8945z" dominant-baseline="central"/>
 </g>
</svg>
