<svg version="1.1" xmlns="http://www.w3.org/2000/svg" xmlns:xlink="http://www.w3.org/1999/xlink" width="208" height="48" viewBox="0,0,208,48"><g transform="translate(-136,-156)"><g data-paper-data="{&quot;isPaintingLayer&quot;:true}" fill-rule="nonzero" stroke="none" stroke-width="1" stroke-linecap="butt" stroke-linejoin="miter" stroke-miterlimit="10" stroke-dasharray="" stroke-dashoffset="0" style="mix-blend-mode: normal"><path d="M136,204v-48h208v48z" fill="none" opacity="0.988"/><g fill="#ffffff"><path d="M167.6,172.7v5.5107h-13.157v-5.5107zM156.403,173.9568v0.9053h9.2373v-0.9053zM156.403,176.0135v1.0283h9.2373v-1.0283zM160.7975,180.6365v7.3301c1.1426,-0.31053 2.1885,-0.84373 3.1377,-1.5996c-0.89067,-1.03713 -1.5645,-2.15337 -2.0215,-3.3487h-0.7559v-1.4062h6.7852l0.8613,0.7559c-0.63867,1.54687 -1.43847,2.874 -2.3994,3.9814c0.86133,0.56253 1.93947,1.04007 3.2344,1.4326l-1.0811,1.6084c-1.33593,-0.50387 -2.46093,-1.1191 -3.375,-1.8457c-1.00193,0.8262 -2.17673,1.48247 -3.5244,1.9688l-0.8613,-1.292v1.2041h-1.8193v-1.96c-1.66407,0.334 -3.72367,0.63283 -6.1788,0.8965l-0.4834,-1.6172c0.77347,-0.04133 1.43267,-0.08233 1.9776,-0.123v-5.9854h-1.8369v-1.459h17.104v1.459zM158.9782,180.6365h-2.8829v1.0635h2.8829zM158.9782,182.8689h-2.8829v1.0811h2.8829zM158.9782,185.1014h-2.8829v1.3447c0.49807,-0.05267 0.87307,-0.0937 1.125,-0.1231c0.67387,-0.07027 1.25983,-0.13763 1.7579,-0.2021zM165.0778,185.2508c0.5332,-0.61527 1.01367,-1.35943 1.4414,-2.2325h-2.9795c0.36327,0.79107 0.87597,1.53523 1.5381,2.2325z"/><path d="M180.2,178.7c0.40433,1.37107 1.1719,2.83003 2.3027,4.3769c1.377,1.88673 3.07037,3.3809 5.0801,4.4825l-1.2568,1.8105c-2.12693,-1.25387 -3.90233,-2.915 -5.3262,-4.9834c-0.7676,-1.125 -1.38283,-2.2705 -1.8457,-3.4365c-0.46287,1.57033 -1.18063,2.9971 -2.1533,4.2803c-1.42967,1.8984 -3.19627,3.29877 -5.2998,4.2011l-1.2393,-1.6084c2.20313,-0.91987 3.98147,-2.33783 5.335,-4.2539c1.13673,-1.61713 1.81057,-3.24017 2.0215,-4.8691h-7.0137v-1.9072h7.0928v-4.2364h2.0302v4.2364h7.2422v1.9072z"/><path d="M200.8,185.5c1.17773,0.83207 2.78027,1.51177 4.8076,2.0391l-1.2217,1.6699c-2.66013,-0.75 -4.76657,-1.98633 -6.3193,-3.709c-0.9258,-1.01953 -1.61133,-2.1826 -2.0566,-3.4892h-2.4786v5.1064c1.50587,-0.2754 3.10257,-0.63867 4.7901,-1.0898l0.123,1.6699c-2.7656,0.791 -5.50777,1.40917 -8.2265,1.8545l-0.6241,-1.8193c0.9258,-0.1172 1.57327,-0.2051 1.9424,-0.2637v-5.458h-3.0937v-1.4942h3.0937v-7.5674h12.146v1.4766h-10.151v1.0459h9.3428v1.4238h-9.3428v1.0635h9.3428v1.3887h-9.3428v1.1689h12.006v1.4942h-2.3994l1.3887,1.2041c-1.11333,0.80273 -2.35553,1.56443 -3.7266,2.2851zM199.5344,184.4629c1.35347,-0.84373 2.48723,-1.6611 3.4013,-2.4521h-5.124c0.3926,0.9082 0.96683,1.72557 1.7227,2.4521z"/><path d="M218.9,181.8v4.6318h-5.915v0.9316h-1.7666v-5.5634zM217.107,183.1886h-4.122v1.8018h4.122zM222.3629,172.9496v14.414c0,0.77933 -0.1992,1.29203 -0.5976,1.5381c-0.28713,0.1758 -0.81743,0.2637 -1.5909,0.2637c-0.97267,0 -1.94237,-0.04103 -2.9091,-0.1231l-0.3956,-1.872c1.03713,0.1172 1.9981,0.1758 2.8829,0.1758c0.32227,0 0.5156,-0.03517 0.58,-0.1055c0.05267,-0.06467 0.079,-0.21993 0.079,-0.4658v-12.226h-10.679v4.9482c0,2.8828 -0.0996,4.95703 -0.2988,6.2227c-0.21093,1.37107 -0.65333,2.6279 -1.3272,3.7705l-1.6171,-1.3535c0.6152,-1.10747 0.99897,-2.42583 1.1513,-3.9551c0.11133,-1.043 0.167,-2.50783 0.167,-4.3945v-6.8379zM215.9733,176.3509h3.4541v1.4063h-3.4541v1.3623h3.832v1.4238h-9.4658v-1.4238h3.7793v-1.3623h-3.3838v-1.4063h3.3838v-1.2832h1.8545z"/><path d="M226,174.7v-2.3554h1.7139v2.3554h2.7861v-2.3554h1.7139v2.3554h1.0986v1.5469h-1.0986v7.0049h1.2392v1.6172h-9.0527v-1.6172h1.5996v-7.0049h-1.292v-1.5469zM230.5,176.2469h-2.7861v1.459h2.7861zM230.5,178.9979h-2.7861v1.4678h2.7861zM230.5,181.7401h-2.7861v1.5117h2.7861zM240.845,172.9774v14.686c0,0.62107 -0.16113,1.06053 -0.4834,1.3184c-0.26367,0.21093 -0.69727,0.3164 -1.3008,0.3164c-0.83787,0 -1.5322,-0.03517 -2.083,-0.1055l-0.3603,-1.8369c0.84373,0.0996 1.44137,0.1494 1.7929,0.1494c0.26953,0 0.4424,-0.0498 0.5186,-0.1494c0.06467,-0.08793 0.097,-0.23737 0.097,-0.4483v-3.7265h-3.2168c-0.0762,1.17773 -0.20803,2.14453 -0.3955,2.9004c-0.30473,1.2246 -0.87603,2.35837 -1.7139,3.4013l-1.4238,-1.2656c0.7324,-0.91993 1.22457,-2.02443 1.4765,-3.3135c0.18167,-0.92573 0.2725,-2.05657 0.2725,-3.3925v-8.5342zM239.0257,174.6912h-3.1817v2.584h3.1817zM239.0257,178.8748h-3.1817v2.708h3.1817zM224.3037,188.2c1.01953,-0.8672 1.8369,-1.89257 2.4521,-3.0761l1.5997,0.8261c-0.77347,1.54107 -1.6553,2.72467 -2.6455,3.5508zM231.3437,188.4198c-0.39253,-0.86133 -0.94623,-1.69043 -1.6611,-2.4873l1.4063,-0.9668c0.63867,0.62107 1.19823,1.3154 1.6787,2.083z"/><path d="M248.5,178.3v-5.7041h1.7666v1.872h2.8828v1.5821h-2.8828v1.9775c0.77927,-0.12893 1.73433,-0.30763 2.8652,-0.5361l0.088,1.459c-1.52927,0.42773 -3.35447,0.80563 -5.4756,1.1337l-0.5185,-1.6084c0.24607,-0.02933 0.55953,-0.07033 0.9404,-0.123zM246.54,178.4757c0.91407,1.3184 1.3711,2.7862 1.3711,4.4034c0,0.73827 -0.0791,1.30077 -0.2373,1.6875c-0.24607,0.58593 -0.8144,0.8789 -1.705,0.8789c-0.33987,0 -0.65337,-0.02933 -0.9405,-0.088l-0.4131,-1.7315c0.36913,0.0762 0.68557,0.1143 0.9493,0.1143c0.29293,0 0.47457,-0.0703 0.5449,-0.2109c0.05267,-0.10547 0.079,-0.2959 0.079,-0.5713c0,-1.64653 -0.41603,-3.07917 -1.2481,-4.2979c0.40433,-1.11913 0.7764,-2.52537 1.1162,-4.2187h-1.5117v15.02h-1.7314v-16.638h4.1572l0.9404,0.7383c-0.39253,1.916 -0.84957,3.55367 -1.3711,4.913zM255.3555,174.5031c1.07813,-0.3926 2.01563,-0.83207 2.8125,-1.3184l1.1162,1.4414c-1.13087,0.54493 -2.44043,1.01957 -3.9287,1.4239v1.5644c0,0.26367 0.08497,0.42187 0.2549,0.4746c0.16987,0.05267 0.52727,0.079 1.0722,0.079c0.43947,0 0.7295,-0.02933 0.8701,-0.088c0.18753,-0.07027 0.3106,-0.2724 0.3692,-0.6064c0.04133,-0.26367 0.07367,-0.6914 0.097,-1.2832l1.5996,0.4834c-0.00667,1.31247 -0.17953,2.15913 -0.5186,2.54c-0.21093,0.2344 -0.5332,0.3809 -0.9668,0.4395c-0.48633,0.06467 -1.11327,0.097 -1.8808,0.097c-1.13087,0 -1.8633,-0.12307 -2.1973,-0.3692c-0.29887,-0.2168 -0.4483,-0.59473 -0.4483,-1.1338v-5.7656h1.7491zM251.7783,181.1213c0.22267,-0.5332 0.3838,-1.06643 0.4834,-1.5997l1.8545,0.211c-0.1172,0.38087 -0.30763,0.84377 -0.5713,1.3887h4.8955v8.3408h-1.9072v-0.9405h-6.0557v0.9405h-1.8896v-8.3408zM250.4775,182.5627v1.4941h6.0557v-1.4941zM250.4775,185.4279v1.6172h6.0557v-1.6172z"/><path d="M270.8,180.9c-0.22267,1.7988 -0.51857,3.24603 -0.8877,4.3417c-0.5508,1.64067 -1.29787,3.0147 -2.2412,4.1221l-1.169,-1.4765c1.17187,-1.3594 1.9834,-3.32817 2.4346,-5.9063c0.1992,-1.166 0.34277,-2.5371 0.4307,-4.1133c0.06467,-1.27147 0.097,-2.2324 0.097,-2.8828h-1.5029v-1.7314h7.04l0.8965,0.7382c-0.38087,1.7344 -0.76463,3.21977 -1.1513,4.4561h2.1269c-0.34567,2.6074 -1.01363,4.77537 -2.0039,6.5039c0.84373,0.9668 1.8457,1.7959 3.0059,2.4873l-1.1514,1.7754c-1.084,-0.73827 -2.0596,-1.6289 -2.9268,-2.6719c-0.83787,1.0606 -1.9365,2.0479 -3.2959,2.9619l-1.2832,-1.5117c0.97267,-0.5566 1.7432,-1.10737 2.3116,-1.6523c0.3574,-0.33987 0.73823,-0.7764 1.1425,-1.3096c-0.80853,-1.25387 -1.43253,-2.6308 -1.872,-4.1308zM271.1252,175.8023c0.42773,3.07033 1.28027,5.59867 2.5576,7.585c0.48633,-0.99613 0.86133,-2.08893 1.125,-3.2784h-2.4346c0.5508,-1.52927 1.03713,-3.23727 1.459,-5.124h-2.6982c0,0.26367 -0.00333,0.53613 -0.01,0.8174zM263.0129,178.896c-0.76173,-1.07227 -1.60843,-2.05957 -2.5401,-2.9619l1.0811,-1.2568c0.12307,0.1172 0.2461,0.2373 0.3691,0.3603l0.1143,0.1143c0.63867,-0.89647 1.22753,-1.88377 1.7666,-2.9619l1.582,0.8789c-0.65627,1.05467 -1.4385,2.124 -2.3467,3.208c0.45707,0.56833 0.80277,1.01363 1.0371,1.3359c0.89653,-1.0898 1.73443,-2.2177 2.5137,-3.3837l1.3887,1.0019c-1.21873,1.68167 -2.5957,3.31057 -4.1309,4.8867c0.99613,-0.06467 1.85747,-0.13203 2.584,-0.2021c-0.1582,-0.45707 -0.3457,-0.92583 -0.5625,-1.4063l1.4238,-0.5625c0.5274,1.08987 0.9786,2.376 1.3536,3.8584l-1.4766,0.6416c-0.0996,-0.41013 -0.208,-0.81737 -0.3252,-1.2217c-0.26953,0.04667 -0.70313,0.11113 -1.3008,0.1934l-0.2285,0.035v7.9453h-1.7666v-7.7432l-0.2109,0.026c-0.86133,0.08787 -1.71973,0.15817 -2.5752,0.2109l-0.3604,-1.6347l0.5889,-0.018c0.26953,-0.012 0.5537,-0.02367 0.8525,-0.035c0.35747,-0.38087 0.74713,-0.8174 1.169,-1.3096zM260.4728,187.3423c0.42187,-1.4824 0.68553,-3.01753 0.791,-4.6054l1.6612,0.2109c-0.08793,2.0098 -0.3516,3.7266 -0.791,5.1504zM266.3088,186.2437c-0.12307,-1.11327 -0.334,-2.18553 -0.6328,-3.2168l1.4414,-0.457c0.31053,1.0254 0.55077,2.0215 0.7207,2.9883z"/></g></g></g></svg>