<?xml version="1.0" encoding="UTF-8"?>
<svg width="480" height="360" version="1.1" viewBox="0 0 480 360" xmlns="http://www.w3.org/2000/svg">
 <g dominant-baseline="central" fill="#fff" aria-label="インド付近">
  <path d="m248.21 188.63v-10.02q-2.9688 1.9922-6.7773 3.3594l-1.1816-1.9824q4.3262-1.4551 7.5879-3.75 3.2031-2.2559 5.7031-5.166l1.8848 1.1816q-2.2168 2.5488-4.9414 4.6777v11.699z" dominant-baseline="central"/>
  <path d="m264.35 176.36q-3.0859-1.377-6.416-2.207l0.68359-2.0996q3.8574 0.87891 6.4746 2.1875zm-6.1719 9.7168q4.834-0.41016 7.4023-1.7285 3.0274-1.5625 4.6484-4.7949 1.0547-2.0898 1.709-5.4688l1.875 1.377q-0.79101 3.6133-1.9141 5.7422-2.0312 3.877-6.2109 5.6152-2.6367 1.0938-7.0508 1.5625z" dominant-baseline="central"/>
  <path d="m277.65 171.05h2.2754v5.8008q5.8301 1.8066 9.6582 3.6816l-1.0938 2.0996q-3.6719-1.8652-8.5645-3.5449v9.7266h-2.2754zm8.5645 5.2637q-0.59571-1.5527-1.9824-3.623l1.5137-0.55664q1.2109 1.6699 2.0215 3.5547zm2.793-0.64453q-0.73243-1.8945-1.9531-3.6328l1.4551-0.47852q1.1035 1.3379 1.9824 3.3984z" dominant-baseline="central"/>
  <path d="m297.04 175.96v13.545h-2.1192v-10.029q-0.79101 1.1133-1.8359 2.3047l-1.1035-2.0996q1.9824-2.1973 3.3984-5.1172 0.85937-1.7676 1.7188-4.2188l2.041 0.55664q-0.88867 2.6758-2.0996 5.0586zm11.123-0.85937h2.9395v1.9629h-2.9395v10.254q0 1.2891-0.625 1.7188-0.45898 0.32227-1.7285 0.32227-1.5527 0-3.1836-0.17578l-0.41992-2.1387q1.7383 0.2539 3.2422 0.2539 0.41015 0 0.49805-0.17578 0.0586-0.12695 0.0586-0.41992v-9.6387h-7.9883v-1.9629h7.9883v-4.2578h2.1582zm-6.1816 9.4629q-1.1035-2.9395-2.7246-5.3613l1.8652-1.084q1.7578 2.5879 2.8223 5.3027z" dominant-baseline="central"/>
  <path d="m317.12 185.06q0.78125 0.90821 1.7578 1.3477 1.6016 0.72266 4.1992 0.72266h8.3203q-0.35156 0.66406-0.65429 1.9043h-7.7637q-3.3594 0-5.1465-1.0547-0.73242-0.43946-1.6113-1.4356-0.0684 0.0781-0.16601 0.19531-1.4356 1.6992-2.8516 2.7734l-1.1816-2.002q1.5527-0.92774 2.998-2.0996v-4.8242h-2.8418v-1.9238h4.9414zm2.5391-12.959 0.51758-0.0391q4.5215-0.3125 8.125-1.3379l1.5234 1.7188q-3.7891 0.99609-8.0859 1.3476v2.5293h9.043v1.9043h-3.2812v7.959h-2.1582v-7.959h-3.6035q-0.0488 3.1348-0.46875 4.9902-0.38086 1.709-1.25 3.0664l-1.7969-1.3574q0.96679-1.5039 1.2402-3.7305 0.19531-1.5332 0.19531-4.1699zm-3.6133 3.8184q-1.4941-2.1094-3.2226-3.7793l1.6016-1.2793q1.6797 1.4062 3.3789 3.5742z" dominant-baseline="central"/>
 </g>
</svg>
