<svg version="1.1" xmlns="http://www.w3.org/2000/svg" xmlns:xlink="http://www.w3.org/1999/xlink" width="143.73854" height="131.55047" viewBox="0,0,143.73854,131.55047"><g transform="translate(-274.38149,63.68145)"><g data-paper-data="{&quot;isPaintingLayer&quot;:true}" fill="none" fill-rule="evenodd" stroke="#d645ff" stroke-width="72" stroke-linecap="round" stroke-linejoin="round" stroke-miterlimit="4" stroke-dasharray="" stroke-dashoffset="0" style="mix-blend-mode: normal"><g><path d="M310.38149,-13.03379l1.93969,-0.01l0.88986,1.41977l2.45961,0.47992l1.91969,-1.37978l-0.19997,1.63974l1.92969,1.98968l4.80923,-0.08999l1.76972,1.44977l1.72972,-0.73988l7.63878,0.81987l-1.04983,-2.57959l3.82939,-3.27948l0.57991,0.67989l1.8797,-4.17933l2.81955,-2.5196l4.73924,-1.96968l1.29979,1.2798l0.6299,-2.03967l3.55943,1.99968l1.82971,-0.82987l1.58975,2.60958l1.00984,-1.17981l2.22964,3.69941l0.90985,-0.04999l0.78987,3.1395l3.26948,3.96936l0.67989,2.31963l-1.07983,8.01872l0.91985,0.07999l-0.03,3.47944l-1.11982,0.03999l-1.60974,3.1095l-0.98984,3.91937l-4.09934,-1.99968l-2.60958,-0.12998l-0.71988,1.51976l1.8797,2.10966l-0.17997,2.15965l-4.69925,0.43993l-0.02,2.63958l-1.01984,0.49992l-3.7394,-0.5999l-1.03983,-1.78971l-4.00936,0.6199l-0.27996,3.63942l0.6499,0.99984l0.29995,4.26932l0.70989,2.18965l7.66877,2.60958l2.4996,-1.95969l6.63894,-2.04967l2.44961,0.54991l4.60926,3.1395l5.49912,0.74988l3.52944,-0.79987l6.14902,-2.23964"/><path d="M358.96372,-27.68145l1.8897,0.76988l-2.4696,1.8697h-3.24948l0.99984,-1.81971l2.82955,-0.81987"/></g></g></g></svg>