<svg version="1.1" xmlns="http://www.w3.org/2000/svg" xmlns:xlink="http://www.w3.org/1999/xlink" width="68.7073" height="98.71606" viewBox="0,0,68.7073,98.71606"><g transform="translate(-434.00713,-24.61265)"><g data-paper-data="{&quot;isPaintingLayer&quot;:true}" fill="#ff0000" fill-rule="evenodd" stroke="none" stroke-width="0" stroke-linecap="round" stroke-linejoin="round" stroke-miterlimit="10" stroke-dasharray="" stroke-dashoffset="0" style="mix-blend-mode: normal"><path d="M490.82491,33.22232l1.65993,0.30999l1.14995,-0.15999l1.18995,0.88996l0.78997,2.5999l1.13995,0.25999l0.51998,0.94996l1.48994,-0.41998l0.38998,0.42998l1.29995,-0.62997l1.11996,0.33999l0.60998,0.71997l0.26999,2.16991l-0.42998,1.11996l-0.98996,1.02996l0.87996,0.93996l-0.30999,1.17995l0.59998,0.28999l0.50998,2.62989l-0.50998,0.42998l-4.56982,0.33999l0.22999,1.41994l0.85997,1.23995l1.73993,0.75997l1.39994,2.66989l-0.43998,1.54994l0.01,1.54994l0.46998,1.63993l-1.28995,1.96992l0.34999,1.45994v1.43994l-2.05992,2.4599l-0.98996,-0.05l-0.51998,0.91996l-1.12995,-0.14999l-0.99996,0.72997l-1.19995,0.20999l-0.21999,0.72997l-1.02996,1.06996l0.49998,0.94996l-0.12,0.82997l1.20995,0.12999l0.17999,1.30995l0.65997,0.60998l-0.16999,1.11996l-0.88996,0.26999l-1.73993,-0.07l-1.10996,0.65997l-2.18991,0.85997l-0.55998,0.45998l-3.25987,1.14995l-1.75993,1.71993l-3.98984,0.77997l-1.55994,1.35995l-1.85993,-0.31999l-0.78997,1.13995l0.12999,1.49994l-1.30995,1.09996v0.11l-0.56998,-0.05l-0.35999,1.18995l0.59998,1.05996l0.41998,0.02l0.04,0.96996l-0.20999,0.21999l-0.44998,0.59998l-1.82993,0.81997l-0.34999,0.98996l-0.98996,1.13995l-1.38994,0.90996l-0.06,0.88996l0.45998,1.50994l-0.50998,1.67993l-0.01,3.74985l0.41998,0.54998l0.03,1.28995l-2.29991,2.07992l0.39998,2.13991l0.55998,1.54994l-0.13999,1.53994l-0.60998,1.05996l0.64997,0.82997l0.61998,2.79989l0.53998,1.12995l-0.48998,0.79997l0.57998,1.94992l-1.07996,0.20999l-1.61994,1.59994l-0.50998,1.16995l-0.95996,0.99996l-0.71997,-0.70997l-2.31991,-0.64997l-0.42998,0.15999l-2.5899,-0.26999l-1.18995,-2.10992l-1.13995,-0.64997l-0.79997,0.32999l-0.52998,-0.92996l-0.24999,-2.07992l-0.55998,-2.6199l-0.79997,-0.93996l-1.11996,-1.98992l-0.02,-2.4699l0.56998,-1.10996l-0.18999,-0.65997l-1.29995,-1.58994l-1.41994,-0.03l-0.80997,-1.04996l-1.07996,-0.08l-2.15991,1.29995l-0.63997,0.01l-1.11996,1.49994l-1.54994,-1.23995l-1.18995,-0.24999l-0.91996,-1.85993l0.82997,-0.85997l-0.56998,-3.04988l-1.92992,-0.94996l0.80997,-2.06992l0.57998,-0.35999l0.05,-1.06996l1.16995,-0.92996l0.12999,-2.90988l-0.40998,-1.65993l-1.09996,-1.16995l0.19999,-1.14995l0.71997,-0.29999l0.43998,-1.23995l0.22999,-3.66985l0.87996,-1.00996l-0.63997,-1.59994l-0.52998,-0.44998l0.21999,-2.71989l-1.50994,-1.28995l-0.49998,-2.84989l0.41998,-0.59998l-0.29999,-1.66993l-0.48998,-0.12999l0.04,-1.97992l-0.77997,-0.60998l0.39998,-1.58994l-0.41998,-0.70997l-0.93996,0.16999l-1.05996,-1.38994l-0.25999,-1.03996l-1.21995,-0.97996l0.07,-2.85989l-1.30995,-1.93992l0.09,-0.87996l1.56994,-1.06996l2.16991,-2.26991l0.28999,-0.61998l1.45994,-0.88996l-1.19995,-0.97996l-1.93992,-2.07992l-0.69997,0.12l-1.30995,-1.16995l0.25999,-1.08996l1.78993,-1.94992l-0.21999,-0.84997l2.32991,-4.28983l0.57998,-2.30991l0.55998,-0.76997l1.03996,-0.43998l1.57994,1.23995l0.83997,1.34995l1.07996,0.68997l0.94996,-0.94996l1.45994,-2.5199l1.65993,-1.83993l0.71997,-1.47994l1.04996,-1.39994l0.29999,-1.92992l1.50994,-1.19995l0.17999,-1.42994l0.85997,-1.07996l1.12995,0.01l0.88996,0.60998l3.34987,0.90996l1.89992,0.96996l1.10996,1.57994l-0.67997,1.11996l-0.30999,1.41994l0.97996,1.79993l0.62997,-0.04l1.11996,0.89996l2.29991,-0.71997l-0.01,-1.11996l0.81997,-0.12999l0.28999,-0.82997l1.56994,0.02l0.79997,0.51998l1.59994,-0.03l0.83997,-0.51998l1.05996,0.19999l1.22995,0.72997l0.42998,-0.68997l1.13995,-0.14999l1.00996,1.03996l0.97996,0.13999l-0.50998,1.10996l-0.04,2.6199l0.39998,0.58998l2.33991,0.44998l0.82997,-0.57998l1.33995,-0.13999l2.00992,0.74997l0.66997,-1.43994l0.30999,-1.52994l0.60998,-0.24999l1.60994,-1.69993l2.09992,0.05l2.00992,0.93996"/></g></g></svg>