<svg version="1.1" xmlns="http://www.w3.org/2000/svg" xmlns:xlink="http://www.w3.org/1999/xlink" width="92.61626" height="139.95136" viewBox="0,0,92.61626,139.95136"><g transform="translate(-21.53199,36.05714)"><g data-paper-data="{&quot;isPaintingLayer&quot;:true}" fill="#ff0000" fill-rule="evenodd" stroke="none" stroke-width="0" stroke-linecap="round" stroke-linejoin="round" stroke-miterlimit="10" stroke-dasharray="" stroke-dashoffset="0" style="mix-blend-mode: normal"><path d="M39.11129,-33.32031l0.79997,2.21691l-0.95997,1.40194l0.15,0.73497l1.35994,0.36199l-0.36998,2.21491l0.38998,1.87993l-0.71997,1.51594l0.24999,1.15695l1.24995,0.89397l1.72993,-0.17l1.40994,-1.26795l0.38999,-1.83092l1.78992,-0.26899l3.63986,0.81497l1.77993,-0.69797l-0.07999,2.76089l0.31999,1.99692l1.20995,0.035l1.58994,1.26695l-0.65998,2.39391l-0.21999,2.02191l2.16991,2.98089l0.30999,2.33691l1.51994,0.57497l1.61993,-0.56397l0.37998,0.68097l1.35995,0.48398l1.88993,0.15l0.16999,0.80697l1.23995,1.11196l0.90996,1.87892l-0.51998,0.67097l-0.76997,2.85289l0.78997,1.68493l1.81993,1.23895l0.41998,1.05096l2.24991,0.59197l1.02996,-0.52198l1.03996,1.95992l-0.13,1.33395l0.62998,0.92496l0.90996,0.08l0.22999,1.52394l1.51994,-0.68297l0.86996,-1.76693l0.49998,-1.85393l1.23995,-0.79597l2.09991,-0.06999l0.69998,2.09192l1.09995,0.018l1.81993,0.90696l1.51994,-0.58898l1.31995,0.44498l1.94992,-0.33698l0.51998,1.01596l-0.17,1.31095l1.03996,0.34898l-0.27999,1.47994l-1.66994,1.97493v2.4399l0.98996,0.77797l-1.81993,1.06395l-0.73997,1.19395l-0.21999,2.01692l-1.67994,1.90692l-0.47998,1.64993l0.12,1.18596l-1.32995,3.31186l-0.05,1.25195l0.97996,0.19399l1.25995,-0.61097l1.33995,0.27999l3.07988,-0.43498l0.40999,-1.39794l1.27994,-0.85897l1.57994,-2.74789l1.15995,-1.18095l1.76993,0.094l0.79997,1.77993l0.05,1.07996l1.79993,-0.33399l0.99996,1.15696l1.61993,-1.33294l2.95988,1.14295l1.66994,-0.34198l1.00996,0.54998l2.17991,-0.64298l-0.32999,1.81293l1.09996,1.14095l-1.55993,1.71493l-1.11996,0.33299l-0.60998,1.37394l1.19995,2.32791l-0.64997,1.22995l0.47998,1.27195l-0.29998,1.38994l-2.31991,3.75485l0.01,1.54594l1.46994,-0.082l0.68998,0.45798l-0.04,3.33387l0.53998,1.62394l-0.49998,1.97592l0.21999,0.95196l1.91992,0.72098l1.36994,1.39294l0.73997,1.23495l-0.08999,1.09196l0.52997,1.98892l-0.62998,1.07496l0.76997,2.10992l0.49998,3.99784l0.48998,0.86196l-0.54997,1.25795l-1.40995,0.67798l-2.10992,-0.57598l-0.33998,1.20095l0.47998,0.64497l-0.32999,1.38495l0.18999,1.11595l0.95996,0.70997l0.91996,2.10191l-0.41998,0.45498l0.06,1.93592l1.35994,0.75697l-0.98996,2.06892l0.36999,0.88797l0.99996,0.57998l0.46998,1.46094l-1.24995,1.20795l1.00996,1.07496l-0.24999,1.79593l1.54994,-0.149l0.85996,1.51394l-0.38999,0.88097l0.82997,1.92192l-0.28999,1.10595l-1.07995,0.72197l0.19999,0.77097l-0.89996,2.4849l-1.27995,0.35098l-0.65997,1.12295l-1.18995,-0.28598l-2.01992,2.02792l-0.01,1.12496l-1.41994,0.95197l-1.77992,-0.166l-0.23999,-0.84497l-1.24995,-0.37198l-3.64986,-3.38987l-0.81997,-1.56793l-0.44998,-2.10992l-0.74997,-0.37099l-0.48998,-2.12592l-1.42995,-0.90096l-1.90992,-1.76393l-0.67997,-0.95297l-2.20991,0.52798l-1.52994,0.80097l-0.68997,-0.91196l-0.90996,-0.172l-1.71993,-1.55593l-2.3999,1.02496l0.14999,0.85496l-2.5399,1.12295l-1.52994,0.041l-1.14995,1.83792l-1.60994,0.12099l-0.61998,0.97596l-1.64993,0.69997l-0.58998,0.74297l-0.39998,2.7129l-2.18991,-1.26395l-1.74993,-0.27899l-1.07995,0.88496l-0.52998,1.91793l-0.73997,0.66797l-1.20995,-1.52094l-2.5099,-0.21099l-2.00992,-0.48198l-0.54998,-0.61398l-2.94988,0.63198l-0.60997,0.51198l-1.49994,-0.63597l-0.68998,1.91492l-1.63993,0.021l-0.53998,0.78997l-1.97992,-0.60798l-1.49994,-1.35294l-2.73989,0.82396l-1.25995,-0.18699l-0.91996,0.52298l-1.82993,2.76289l-0.89997,0.35299l-2.18991,2.4319l-0.95996,-1.87993l-1.70993,-2.06791l-0.75997,-3.07388l-0.97996,-1.30494l0.73997,-1.65893l-0.80997,-1.23195l-0.24999,-1.56694l-1.10996,-2.4009l-0.23999,-2.03892l0.94996,-1.40094l-0.30998,-0.72897l-2.88989,-0.50398l-0.90996,-1.06995l1.29995,-1.88792l-0.75997,-1.24195l-0.98996,-3.60885l1.83992,-2.09892l0.11,-2.78888l0.34999,-0.92297l-0.41998,-1.62794l0.42998,-0.99796l1.24995,-2.4129l-0.61998,-1.87293l-2.19991,-0.25499l-1.02996,-0.91397l-0.60998,-1.17595l0.63997,-0.67997l-0.64997,-1.44995l2.29991,-1.07595l-0.86996,-2.84788l-1.85993,-1.93693l-0.81997,-2.08491l2.95989,-1.88193l-0.71998,-1.45994l0.55998,-0.84196l-0.50998,-1.65994l0.71997,-1.34095l-1.26995,-1.18496l-1.15995,-0.18599l-0.78997,-3.48887l0.27999,-0.94196l-1.02996,-1.77293l1.43994,-1.47394l-0.03999,-0.67398l1.89992,-0.45698l3.39986,-4.17783l1.71994,-0.017l1.00995,-3.70485l-0.01999,-1.30994l-0.68998,-1.97492l-2.23991,-0.048l-1.31995,-0.99996l-0.55998,-1.17095l-1.28995,-1.27495l-1.36995,-2.3779l0.96997,-1.43494l0.48998,-1.58094l-0.80997,-1.12795l-0.68997,-3.62886l-2.4799,-0.95696l-0.78997,-1.85293l0.66998,-0.58197l-0.02,-1.32994l-1.07996,-0.67697l-0.01999,-3.02088l0.66997,-1.13595l-1.13995,-0.70997l-0.10999,-2.24991l-0.85997,-1.51694l0.71997,-0.60298l0.53998,-1.51294l-0.74997,-0.67897l0.13999,-1.96692l-1.06996,-1.24195l-0.80996,-2.4059l1.32995,-2.16992l-0.25999,-1.02296l1.39995,-4.59581l-0.39999,-0.60298l0.78997,-1.91592l-0.70997,-2.07791l0.95996,-2.73389l-0.42998,-1.16396l-1.37994,-1.35195l0.99996,-1.34095l0.37998,-1.95892l1.61994,-0.31798l0.87996,-1.25295l0.13999,0.92596l2.34991,0.047l1.65993,-0.43898l2.6599,0.032l2.4699,0.45699l1.22995,-0.59498l1.88993,2.3089M44.03109,39.80676l0.88997,1.42294l-1.56994,2.3829l-0.95996,0.62798l0.14999,2.4419l-0.38999,2.26491l1.74993,1.22395l0.67997,-1.09696l1.30995,0.34298l1.97992,-2.12491l-0.09999,-3.07188l-0.87996,0.43499l-1.74993,-2.37691l0.67997,-1.84493l-0.46998,-1.10596l-1.31995,0.47898"/></g></g></svg>