<?xml version="1.0" encoding="UTF-8"?>
<svg width="480" height="360" version="1.1" viewBox="0 0 480 360" xmlns="http://www.w3.org/2000/svg">
 <g dominant-baseline="central" fill="#fff" aria-label="岩手県沿岸南部">
  <path d="m247 181.93h10.762v7.5684h-2.1582v-1.0644h-9.2774v1.0644h-2.0996v-4.834q-1.1426 0.92773-2.5879 1.7676l-1.3965-1.6797q1.543-0.73242 2.8125-1.7188 2.0801-1.6309 3.3398-3.6426h-5.8887v-1.7383h18.994v1.7383h-10.713q-0.70312 1.25-1.7871 2.5391zm-0.67383 1.6797v3.1445h9.2774v-3.1445zm4.7754-9.3945h4.5801v-2.9004h2.1191v4.5606h-15.4v-4.5606h2.0996v2.9004h4.4629v-3.7207h2.1387z" dominant-baseline="central"/>
  <path d="m271.23 173.24v3.1543h7.0898v1.9238h-7.0898v2.6953h8.2715v1.9629h-8.2715v4.3945q0 1.1719-0.6543 1.6211-0.49805 0.3418-1.6602 0.3418-1.9043 0-3.7207-0.19532l-0.38086-2.0996q2.2559 0.29296 3.4082 0.29296 0.54687 0 0.68359-0.20507 0.0879-0.14649 0.0879-0.48829v-3.6621h-8.4961v-1.9629h8.4961v-2.6953h-7.5v-1.9238h7.5v-2.8711l-0.53711 0.0586q-2.793 0.30274-5.8398 0.46875l-0.83985-1.8164q7.7344-0.32227 14.062-1.7188l1.2207 1.6797q-2.7344 0.61523-5.8301 1.0449z" dominant-baseline="central"/>
  <path d="m296.76 170.98v9.4629h-11.621v-9.4629zm-9.5215 1.543v1.2207h7.4023v-1.2207zm0 2.5977v1.2207h7.4023v-1.2207zm0 2.5976v1.2598h7.4023v-1.2598zm-3.9356 4.0234h16.191v1.6992h-8.0762v6.0644h-2.2168v-6.0644h-8.0371v-10.957h2.1387zm-2.5 5.8984q2.3242-1.0742 4.4434-3.6035l1.7969 1.0449q-2.0898 2.6465-4.6387 4.1602zm16.836 1.2598q-1.4941-1.8359-4.4922-3.8574l1.6797-1.1816q2.3535 1.3574 4.6191 3.5644z" dominant-baseline="central"/>
  <path d="m317.86 180.14v9.3652h-2.1973v-1.123h-6.2012v1.123h-2.1777v-9.3652zm-8.3984 1.8848v4.4531h6.2012v-4.4531zm-4.6777-6.8457q-1.5039-1.6894-3.2617-2.959l1.3965-1.5625q1.9727 1.2402 3.3203 2.8223zm-1.1035 5.2637q-1.6504-1.8164-3.3398-2.9785l1.4355-1.6211q1.9824 1.2891 3.4473 2.9199zm-3.2227 7.2559q1.9531-2.4121 3.7207-6.2402l1.6602 1.4844q-1.5039 3.7012-3.4961 6.4746zm17.402-8.0371q-3.4082-3.623-5.0195-8.3594l2.0215-0.80078q1.4844 4.1016 4.6191 7.4023zm-12.197-1.5234q2.7344-2.7539 3.916-7.4219l2.0605 0.625q-1.1035 5.0586-4.3945 8.4766z" dominant-baseline="central"/>
  <path d="m331.18 173.59h4.4238v-2.3535h2.0801v4.0332h-14.961v-4.0332h2.0801v2.3535h4.2969v-3.0957h2.0801zm-7.002 4.707v2.041q0 3.3789-0.42969 5.2637-0.45898 1.9824-1.7676 3.7305l-1.7188-1.416q0.89844-1.25 1.2598-2.4707 0.49804-1.6797 0.49804-5.2246v-3.6621h17.002v1.7383zm8.3008 3.0566v1.8066h6.6992v1.7383h-6.6992v4.5996h-2.1973v-4.5996h-5.8789v-1.7383h5.8789v-1.8066h-4.8828v-1.6406h12.344v1.6406z" dominant-baseline="central"/>
  <path d="m348.92 182.24h-4.043v-1.6016h1.9531q-0.43945-0.9961-0.99609-1.8555l1.7578-0.64453q0.76172 1.2793 1.2305 2.5h2.2949q0.57617-1.1816 1.0156-2.5391l1.9629 0.61524q-0.49805 1.0742-1.0547 1.9238h2.0996v1.6016h-4.1797v1.4258h4.4531v1.6602h-4.4531v3.6914h-2.041v-3.6914h-4.2871v-1.6602h4.2871zm2.0996-6.0156h7.4024v11.416q0 1.0059-0.53711 1.416-0.44922 0.35157-1.5137 0.35157-1.377 0-2.6562-0.14649l-0.47852-1.9629q1.709 0.20508 2.5586 0.20508 0.35156 0 0.41015-0.17578 0.0391-0.10742 0.0391-0.30274v-9.1016h-12.48v11.582h-2.1777v-13.281h7.2754v-1.7676h-8.3594v-1.8164h8.3594v-2.1387h2.1582v2.1387h8.4766v1.8164h-8.4766z" dominant-baseline="central"/>
  <path d="m366.98 172.75h4.1797v1.8848h-1.377q-0.3711 1.4941-0.9961 3.1348h2.6074v1.8848h-10.898v-1.8848h2.3926q-0.39062-1.875-0.82031-3.1348h-1.2695v-1.8848h4.1406v-2.2559h2.041zm-2.9394 1.8848q0.49805 1.4551 0.77148 3.1348h1.9922l0.09766-0.27344q0.41992-1.1133 0.78125-2.5293l0.0879-0.33203zm6.0547 6.6602v7.998h-2.002v-0.95703h-4.2578v1.1621h-2.0606v-8.2031zm-6.2598 1.7969v3.3887h4.2578v-3.3887zm13.047-4.9316q1.1621 1.1035 1.8457 2.627 0.67383 1.5234 0.67383 3.0859 0 1.4453-0.53711 2.1289-0.55664 0.71289-1.8359 0.71289-1.0938 0-2.1191-0.15625l-0.47852-2.0801q1.1816 0.21485 1.9531 0.21485 0.58594 0 0.73242-0.27344 0.0977-0.19531 0.0977-0.78125 0-2.4121-1.4453-4.1602-0.38086-0.45898-0.95703-0.98633l0.11719-0.27343q1.0156-2.2949 1.582-4.7852h-2.5v16.064h-2.0215v-18.086h5.8789l1.084 0.99609q-0.98633 3.3594-2.0703 5.752z" dominant-baseline="central"/>
 </g>
</svg>
