<svg version="1.1" xmlns="http://www.w3.org/2000/svg" xmlns:xlink="http://www.w3.org/1999/xlink" width="227.24519" height="125.12149" viewBox="0,0,227.24519,125.12149"><g transform="translate(-247.62575,120.57234)"><g data-paper-data="{&quot;isPaintingLayer&quot;:true}" fill="none" fill-rule="evenodd" stroke="#d645ff" stroke-width="72" stroke-linecap="round" stroke-linejoin="round" stroke-miterlimit="4" stroke-dasharray="" stroke-dashoffset="0" style="mix-blend-mode: normal"><g><path d="M412.74511,-37.12994l3.80939,2.4996l1.14982,3.17949l-1.73972,-1.38978l-2.56959,0.09998l-2.56959,-2.79955l-1.79971,0.03l3.7194,-1.61974"/><path d="M398.94732,-42.07914l0.6299,1.14982l2.68957,0.66989l0.20997,2.19965l-1.81971,-0.08999l-1.57975,2.72956l-1.36978,0.15997l-0.96984,2.07967l-2.11966,-1.06983l2.44961,-0.57991l0.71988,-2.41961l2.12966,-2.14966l-0.96984,-2.67957"/><path d="M415.20472,-55.23704l3.38946,2.35962l1.80971,-0.86986l1.52976,4.23932l2.21964,0.34994l-0.65989,1.14982l3.22948,0.30995l2.05967,-2.80955l3.27948,-0.07999l1.48976,-2.90953l2.78955,1.34978l2.5296,-0.74988l-2.13966,1.99968l-2.64958,0.70989l-1.40977,1.90969l-0.96984,-0.94985l-2.31963,0.44993l-1.30979,1.92969l0.95985,4.11934l-2.45961,-0.69989l-1.99968,1.44977l0.99984,-2.45961l-1.79971,-1.83971l-3.34946,-1.03983l-2.57959,3.07951l-4.58927,0.73988l-3.87938,-4.03935l0.06999,-3.21948l1.10982,-0.42993l-0.35994,-2.28963l1.8897,0.47992l0.97984,-1.79971l2.13966,-0.43993"/><path d="M377.62073,-57.93661l1.81971,2.53959l-4.00936,4.18933l-1.64974,0.42993l-1.43977,-1.34978l3.42945,-1.79971l0.87986,0.5999l0.96984,-4.60926"/><path d="M362.72311,-63.38573l0.17997,4.20933l2.18965,2.12966l-1.40977,0.35994l-1.67973,-2.87954l0.71988,-3.81939"/><path d="M416.36453,-84.57234l-0.80987,2.4896l1.48976,3.85938l-0.47992,2.97952l-4.43929,0.98984l0.79987,5.09918l-0.15997,2.85954l1.08983,1.28979l-0.75988,5.6291l-2.81955,4.89922l-5.65909,0.49992l-0.29995,3.7594l0.34994,4.60926l2.96952,3.37946l-0.08999,1.82971l-1.8897,1.55975l-2.29963,-0.25996l-0.26996,-3.23948l0.71988,-1.78971l-4.3593,-2.24964l-0.23996,-1.35978l-2.80955,-0.57991l-2.16965,1.01984l-4.18933,-3.29947l-1.35978,0.03999l-1.10982,-2.45961l-2.11966,0.23996l-2.5296,-2.91953l-2.83955,-1.15981l-2.32963,-3.07951l-2.76956,-0.56991l-1.31979,2.19965l-2.37962,0.6499l2.71956,1.38978l-1.49976,0.84986l-3.63942,-1.39978l3.38946,-4.26932l2.23964,-0.88986l-2.44961,-2.37962l-2.11966,1.8997l1.53975,-3.32947l-6.28899,0.74988l1.47976,-1.66973l-3.86938,0.26996l-1.2398,1.68973l-1.96968,-0.88986l-0.01,1.29979l-5.41913,0.40993l-1.29979,2.22964l-0.6099,-1.92969l-1.62974,0.6199l-2.60958,3.01952l-2.16965,1.14982l-1.54975,-1.16981l-1.49976,0.43993l-0.08999,-2.33963l-4.17933,-1.2298l1.2798,2.56959l-2.5096,1.14982l0.88986,1.14982l-3.63942,0.50992l0.46992,-2.18965l-1.67973,-1.77972l-2.05967,-0.56991l0.42993,-2.78955l-1.40977,-0.07999l-0.6399,5.0192l-3.04951,3.37946l0.71988,1.73972l-2.14966,1.50976l-1.72972,-0.12998l-2.34962,2.42961l-4.19933,1.28979l-4.16933,-4.25932l0.15997,1.73972l-2.99952,1.69973l-2.27964,-2.75956l1.17981,-2.60958l-3.56943,-3.42945l-1.2398,-0.02l-2.56959,-3.87938l-4.80923,-0.78987l-1.07983,-1.78971l-1.54975,4.45929l-2.44961,3.65941l-7.87874,6.18901"/></g></g></g></svg>