<?xml version="1.0" encoding="UTF-8"?>
<svg width="480" height="360" version="1.1" viewBox="0 0 480 360" xmlns="http://www.w3.org/2000/svg">
 <g dominant-baseline="central" fill="#fff" aria-label="宗谷海峡">
  <path d="m251.02 172.42h7.7832v4.3164h-2.1777v-2.5391h-13.311v2.5391h-2.1387v-4.3164h7.666v-1.9238h2.1777zm0.21485 9.4336v5.8594q0 0.92774-0.3125 1.3281-0.39063 0.49805-1.7774 0.49805-1.7871 0-3.0664-0.16602l-0.32227-2.0606q1.416 0.24414 2.8027 0.24414 0.39062 0 0.44922-0.15625 0.0488-0.11718 0.0488-0.38086v-5.166h-8.4766v-1.8555h18.857v1.8555zm-7.2168-5.5957h11.963v1.7188h-11.963zm-3.418 10.693q2.1777-1.6308 3.457-4.3164l2.002 0.91797q-1.4453 3.0664-3.7402 4.9219zm16.865 1.2598q-1.4648-2.373-3.6035-4.6191l1.582-1.2207q2.373 2.2266 3.7793 4.3848z" dominant-baseline="central"/>
  <path d="m265.69 188.42v1.084h-2.2168v-7.7148q-0.73242 0.42969-1.8359 0.98633l-1.2598-1.8359q2.959-1.1621 5.0488-3.0078 1.7969-1.6016 3.1641-3.8965h2.4121q3.0176 4.043 8.6133 6.4453l-1.1914 1.8945q-0.96679-0.47852-1.6602-0.85938l-0.24414-0.12695v8.1152h-2.2363v-1.084zm-1.0449-7.3438h11.338q-3.623-2.1973-6.123-5.1758-1.3477 2.0508-3.0273 3.5254-0.94727 0.82031-2.1875 1.6504zm9.6387 1.8359h-8.5938v3.6035h8.5938zm-13.408-7.4316q1.5234-0.83008 2.6172-1.7676 1.3574-1.1524 2.5488-2.832l1.8359 1.0547q-2.1484 3.2227-5.3809 5.2246zm16.26 1.2988q-2.6856-2.8613-5.3613-4.9023l1.582-1.1816q2.6172 1.7578 5.3418 4.502z" dominant-baseline="central"/>
  <path d="m297.76 175.8q0 0.45899-0.0879 4.3555h1.8652v1.7578h-1.9043q-0.0293 1.2793-0.12695 2.9004h1.6504v1.7188h-1.7774q-0.11719 1.416-0.32226 1.875-0.45899 1.0938-2.2266 1.0938-1.1328 0-2.0898-0.16601l-0.36133-1.7383q1.377 0.19531 2.1094 0.19531 0.5957 0 0.71289-0.41992 0.0586-0.20508 0.10742-0.83985h-6.9531q-0.01 0.0781-0.0293 0.16602-0.0879 0.51758-0.16602 0.97656l-2.0215-0.19531q0.5957-3.5254 0.80078-5.332l0.0293-0.23438h-1.9531v-1.7578h2.1582q0.27344-2.3633 0.46875-4.3555zm-6.1719 1.6992h-2.1387q-0.0293 0.49805-0.17578 2.0996l-0.0586 0.55664h2.168l0.0293-0.27344q0.0195-0.2832 0.0586-0.79101 0.0977-1.3672 0.11719-1.5918zm1.9238 0q-0.0488 1.1621-0.14648 2.5684v0.0879h2.2949q0.0391-1.3379 0.0684-2.6562zm-2.2852 4.4141h-2.1973q-0.14648 1.1914-0.3125 2.3535l-0.0781 0.54687h2.2852q0.23438-2.1191 0.30274-2.9004zm2.002 0q-0.0293 0.39063-0.11719 1.2891l-0.15625 1.6113h2.4902q0.0488-0.94726 0.0781-1.4258 0.0586-1.0449 0.0781-1.4746zm-3.8281-9.6387h9.4336v1.8164h-10.244q-0.79102 1.6113-2.0117 3.0664l-1.3965-1.5234q1.9238-2.2559 2.7344-5.1953l2.0801 0.21485q-0.35156 1.0156-0.5957 1.6211zm-5.3809 2.8418q-1.2012-1.6504-2.9199-3.0957l1.4746-1.4258q1.5918 1.1719 3.0274 2.959zm-0.70313 5.1562q-1.4844-1.9043-2.998-3.1934l1.5234-1.4648q1.6992 1.3379 3.0566 3.0469zm-2.6562 7.666q1.6992-2.3535 3.2227-6.2012l1.7383 1.2402q-1.2695 3.5547-3.2617 6.5234z" dominant-baseline="central"/>
  <path d="m311.98 180.1v-5h-4.0137v-1.8555h4.0137v-2.7441h2.0606v2.7441h4.8633v1.8555h-4.8633v5h5.4394v1.8555h-5.0293q1.6699 3.8477 5.3125 5.5469l-1.3184 1.9336q-2.207-1.3672-3.4082-2.8613-1.0449-1.3184-1.7578-3.0469-1.1914 4.1016-5.6934 6.0938l-1.3379-1.7188q2.5488-0.91797 3.8379-2.5 1.1719-1.4453 1.6699-3.4473h-4.2676v3.9844h-5.1074v1.6406h-1.6602v-13.662h1.582v10.117h0.95703v-13.398h1.6797v13.398h1.0059v-10.117h1.543v6.1816zm-2.6367-0.26368q-0.55664-2.1387-1.2598-3.6523l1.7578-0.625q0.79102 1.6016 1.3184 3.6035zm5.498-0.55664q0.89844-1.8457 1.4356-3.8184l1.9629 0.67383q-0.72266 2.041-1.6797 3.7012z" dominant-baseline="central"/>
 </g>
</svg>
