<svg version="1.1" xmlns="http://www.w3.org/2000/svg" xmlns:xlink="http://www.w3.org/1999/xlink" width="208" height="32" viewBox="0,0,208,32"><g transform="translate(-240,-164)"><g data-paper-data="{&quot;isPaintingLayer&quot;:true}" fill-rule="nonzero" stroke="none" stroke-linecap="butt" stroke-linejoin="miter" stroke-miterlimit="10" stroke-dasharray="" stroke-dashoffset="0" style="mix-blend-mode: normal"><path d="M240,196v-32h208v32z" fill="none" stroke-width="0"/><path d="M248.89,170.69h2.2754v16.279c0,0.84633 -0.14648,1.429 -0.43945,1.748c-0.32553,0.35807 -1.00913,0.53711 -2.0508,0.53711c-0.93747,0 -1.93357,-0.04883 -2.9883,-0.14648l-0.49804,-2.2754c1.62107,0.20182 2.72133,0.27669 3.3008,0.22461c0.26693,-0.02607 0.40039,-0.22138 0.40039,-0.58594zM257.3275,185.378c-1.1784,-4.6094 -2.31773,-8.15773 -3.418,-10.645l2.0606,-0.87891c1.38673,2.83853 2.57163,6.28587 3.5547,10.342zM240.2865,184.1182c1.2956,-2.17447 2.23637,-5.41013 2.8223,-9.707l2.2363,0.50781c-0.41667,2.8776 -0.92447,5.23437 -1.5234,7.0703c-0.44922,1.3672 -0.99935,2.5814 -1.6504,3.6426z" fill="#ffffff" stroke-width="1"/><path d="M267.43,174.58c0.41667,0.6836 0.75847,1.36393 1.0254,2.041l-2.041,0.70313c-0.51433,-1.26953 -0.92123,-2.18423 -1.2207,-2.7441h-0.9082c-0.55339,1.03513 -1.21095,1.96937 -1.9727,2.8027l-1.6797,-1.4844c1.34767,-1.3216 2.3633,-3.15427 3.0469,-5.498l2.1191,0.40039c-0.25391,0.83333 -0.48503,1.50717 -0.69336,2.0215h4.5312v1.7578zM275.5745,174.58c0.35807,0.50781 0.75847,1.16211 1.2012,1.9629l-2.002,0.78125c-0.38411,-0.918 -0.85285,-1.8327 -1.4062,-2.7441h-1.084c-0.42318,0.8724 -0.91145,1.6797 -1.4648,2.4219l-1.6016,-1.2598c1.15887,-1.4388 1.92383,-3.18683 2.2949,-5.2441l2.041,0.30273c-0.16276,0.73567 -0.34505,1.4095 -0.54688,2.0215h5.8691v1.7578zM271.0335,178.8573h7.6074v1.7578h-17.285v-1.7578h7.4609v-1.7578h2.2168zM271.63896,186.8651c0.7552,-1.7448 1.44207,-3.76627 2.0606,-6.0644l2.2168,0.74219c-0.54037,1.80987 -1.20117,3.58397 -1.9824,5.3223h5.5664v1.8164h-19.004v-1.8164zM265.39876,186.71862c-0.44271,-2.20707 -0.94401,-3.97463 -1.5039,-5.3027l2.1191,-0.59571c0.65755,1.52993 1.21745,3.29427 1.6797,5.293z" fill="#ffffff" stroke-width="1"/><path d="M291.5,174.92h6.0547v7.7344h-4.7363v5.3223c0,0.55989 -0.13347,0.95376 -0.4004,1.1816c-0.26693,0.22786 -0.75846,0.34179 -1.4746,0.34179c-0.944,0 -1.7806,-0.06185 -2.5098,-0.18554l-0.3125,-1.8164c0.84633,0.13672 1.4583,0.20508 1.8359,0.20508c0.35156,0 0.5664,-0.0293 0.64453,-0.0879c0.07813,-0.0586 0.11719,-0.18555 0.11719,-0.38086v-4.5801h-5.0195v-7.7344h3.7012c0.20182,-0.47526 0.43945,-1.09049 0.71289,-1.8457h-5.9766v4.5996c0,3.112 -0.16601,5.57293 -0.49804,7.3828c-0.28646,1.57553 -0.78776,3.02083 -1.5039,4.3359l-1.7383,-1.4746c0.66406,-1.33467 1.11003,-2.84507 1.3379,-4.5312c0.17578,-1.3086 0.26367,-2.95247 0.26367,-4.9316v-7.1777h16.836v1.7969h-6.4453c-0.25391,0.58594 -0.55013,1.20117 -0.88867,1.8457zM295.4355,176.502h-7.6758v1.4746h7.6758zM287.7597,179.5586v1.5137h7.6758v-1.5137zM297.8577,188.7383c-0.95053,-1.45833 -2.10613,-2.8776 -3.4668,-4.2578l1.5234,-1.1816c1.37373,1.25 2.55537,2.5944 3.5449,4.0332zM283.7557,187.5371c1.34767,-1.1784 2.38607,-2.57163 3.1152,-4.1797l1.7285,0.87891c-0.83333,1.8164 -1.9401,3.36913 -3.3203,4.6582z" fill="#ffffff" stroke-width="1"/><path d="M307.63,182.77l-0.58593,-0.83008c0.7422,-0.38411 1.47787,-0.83335 2.207,-1.3477c1.26953,-0.8854 2.32097,-1.7578 3.1543,-2.6172h-4.7363v-1.7383h3.8672v-1.9238h-2.7148v-1.6992h2.7148v-2.1191h1.9824v2.1191h1.9043v1.3965c0.57943,-0.95053 1.13283,-1.98893 1.6602,-3.1152l1.7383,0.8789c-0.89847,1.71873 -1.78387,3.20637 -2.6562,4.4629h3.3398v1.7383h-4.541c-0.48177,0.57291 -1.11004,1.21418 -1.8848,1.9238h4.8828v9.5996h-2.002v-1.0059h-4.3164v1.0059h-1.9629v-6.9824c-0.54687,0.36459 -1.06444,0.69011 -1.5527,0.97656l-0.43945,-0.63476v5.6348h-4.668v1.0059h-1.9238v-6.7285zM315.2277,174.313h-1.709v1.9238h0.41993c0.27995,-0.38411 0.70965,-1.02538 1.2891,-1.9238zM303.0207,184.45v2.3828h2.7441v-2.3828zM311.6437,181.4812v1.8555h4.3164v-1.8555zM311.6437,184.9187v1.9531h4.3164v-1.9531zM301.4187,171.2177h5.8984v1.6406h-5.8984zM300.50073,174.079h7.4219v1.7578h-7.4219zM301.4187,177.077h5.8984v1.6211h-5.8984zM301.4187,179.9383h5.8984v1.582h-5.8984z" fill="#ffffff" stroke-width="1"/><path d="M327.74,171.98c0.24089,-0.57943 0.4362,-1.13283 0.58594,-1.6602l2.3828,0.32226c-0.22787,0.54037 -0.4362,0.98633 -0.625,1.3379h6.5039v6.3672h-11.797v0.98633h14.697v1.582h-14.697v0.99609h14.014c-0.08463,2.9818 -0.27343,4.99353 -0.5664,6.0352c-0.18881,0.66406 -0.54364,1.10353 -1.0645,1.3184c-0.37109,0.15625 -0.93749,0.23437 -1.6992,0.23437c-0.78127,0 -1.51043,-0.04883 -2.1875,-0.14648l-0.39063,-1.6406h-9.7852v1.084h-2.0996v-4.6973h2.0996v2.0117h3.3594v-2.6367h-3.8379v-11.494zM331.8904,186.111v-2.0117h2.0215v3.3984c0.54036,0.05207 0.98956,0.0781 1.3476,0.0781c0.44271,0 0.7194,-0.12695 0.83008,-0.38085c0.21485,-0.47527 0.38412,-1.7155 0.50781,-3.7207h-8.0273v2.6367zM324.7908,173.484v0.96679h9.6387v-0.96679zM324.7908,175.8473v1.0644h9.6387v-1.0644z" fill="#ffffff" stroke-width="1"/><path d="M346.44,176.07v-2.7344h-5.8203v-1.8848h18.779v1.8848h-6.4551v2.7344h5.4785v13.164h-2.1191v-1.377h-12.607v1.377h-2.0996v-13.164zM348.4615,176.07h2.4609v-2.7344h-2.4609zM346.4303,177.8473h-2.7344v8.1543h12.607v-2.9297h-3.7012c-1.1198,0 -1.6797,-0.5599 -1.6797,-1.6797v-3.5449h-2.4805c-0.02607,1.6016 -0.26695,2.88417 -0.72266,3.8477c-0.42969,0.918 -1.27605,1.8262 -2.5391,2.7246l-1.3477,-1.5039c1.21093,-0.7422 1.9759,-1.66017 2.2949,-2.7539c0.16927,-0.58594 0.27018,-1.35744 0.30273,-2.3145zM352.944,177.8473v2.9883c0,0.25391 0.11393,0.38086 0.3418,0.38086h3.0176v-3.3691z" fill="#ffffff" stroke-width="1"/><path d="M369.48,175.76c-0.0456,1.08727 -0.1107,2.0443 -0.19531,2.8711h7.8711c-0.09765,4.51827 -0.35156,7.4512 -0.76172,8.7988c-0.20833,0.67707 -0.5957,1.1458 -1.1621,1.4062c-0.44271,0.20182 -1.09051,0.30273 -1.9434,0.30273c-0.89847,0 -1.91733,-0.06836 -3.0566,-0.20507l-0.38085,-2.1973c1.52993,0.21485 2.6074,0.32227 3.2324,0.32227c0.52734,0 0.86264,-0.14974 1.0059,-0.44922c0.34505,-0.7292 0.58593,-2.74093 0.72265,-6.0352h-5.8105c-0.21485,1.17187 -0.51758,2.1875 -0.90821,3.0469c-1.08727,2.37627 -2.90367,4.26103 -5.4492,5.6543l-1.543,-1.7188c2.55207,-1.32813 4.23827,-3.06967 5.0586,-5.2246c0.54687,-1.4388 0.90167,-3.62957 1.0644,-6.5723h-6.4648v-2.002h7.9785v-3.2617h2.2559v3.2617h8.2422v2.002z" fill="#ffffff" stroke-width="1"/><path d="M391.58,174.14v-3.6426h2.0996v3.6426h5.293v8.8379h-5.293v6.5234h-2.0996v-6.5234h-5.1856v-8.8379zM388.4159,176.0834v4.9707h3.1641v-4.9707zM396.8925,181.0541v-4.9707h-3.2129v4.9707zM384.3925,175.2729c-0.79427,-1.1068 -1.8457,-2.16473 -3.1543,-3.1738l1.4551,-1.4844c1.30207,0.918 2.40233,1.94663 3.3008,3.0859zM383.75774,180.2924c-1.1328,-1.31513 -2.23307,-2.3926 -3.3008,-3.2324l1.5039,-1.5039c1.13933,0.8008 2.26563,1.83597 3.3789,3.1055zM380.72064,187.8608c1.25,-1.77733 2.40233,-3.99087 3.457,-6.6406l1.7383,1.3379c-0.89193,2.4414 -1.97917,4.73957 -3.2617,6.8945z" fill="#ffffff" stroke-width="1"/></g></g></svg>