<svg version="1.1" xmlns="http://www.w3.org/2000/svg" xmlns:xlink="http://www.w3.org/1999/xlink" width="208" height="32" viewBox="0,0,208,32"><g transform="translate(-240,-164)"><g data-paper-data="{&quot;isPaintingLayer&quot;:true}" fill-rule="nonzero" stroke="none" stroke-linecap="butt" stroke-linejoin="miter" stroke-miterlimit="10" stroke-dasharray="" stroke-dashoffset="0" style="mix-blend-mode: normal"><path d="M240,196v-32h208v32z" fill="none" stroke-width="0"/><path d="M253.2,183.15c1.6146,1.4388 3.78907,2.6009 6.5234,3.4863l-1.2598,1.8359c-1.57553,-0.55989 -2.94923,-1.23696 -4.1211,-2.0312c-1.21093,-0.8268 -2.32747,-1.84243 -3.3496,-3.0469v6.1035h-2.1191v-5.9961c-0.90493,1.26953 -2.07357,2.40887 -3.5059,3.418c-1.10027,0.77473 -2.27867,1.39973 -3.5352,1.875l-1.3379,-1.7188c2.0638,-0.6836 3.7858,-1.60483 5.166,-2.7637c0.39063,-0.32553 0.78776,-0.71289 1.1914,-1.1621h-4.6973v-7.998h6.7188v-1.3184h-8.0957v-1.7578h8.0957v-1.582h2.1191v1.582h8.2227v1.7578h-8.2227v1.3184h6.8457v7.998zM248.8738,176.7926h-4.5996v1.582h4.5996zM250.9929,176.7926v1.582h4.7266v-1.582zM248.8738,179.8981h-4.5996v1.6113h4.5996zM250.9929,179.8981v1.6113h4.7266v-1.6113z" fill="#ffffff" stroke-width="1"/><path d="M268.58,175.67c-1.9206,-0.8594 -3.88023,-1.5788 -5.8789,-2.1582l0.63476,-1.9336c2.2526,0.55989 4.2285,1.24349 5.9277,2.0508zM266.578,180.67c-1.60153,-0.70313 -3.56117,-1.42253 -5.8789,-2.1582l0.83985,-1.9531c1.9922,0.52735 3.9258,1.22721 5.8008,2.0996zM261.9589,186.0509c2.66273,-0.22135 4.74933,-0.62499 6.2598,-1.2109c2.23307,-0.85287 3.98763,-2.3763 5.2637,-4.5703c0.85287,-1.46487 1.5267,-3.31707 2.0215,-5.5566l1.9727,1.1426c-0.63151,2.806 -1.51368,5.04233 -2.6465,6.709c-1.32813,1.9466 -3.18033,3.3854 -5.5566,4.3164c-1.6732,0.64453 -3.903,1.09699 -6.6894,1.3574z" fill="#ffffff" stroke-width="1"/><path d="M286.69,171.04h2.2363v4.5801h7.4023v2.041h-7.4023c-0.00667,1.9792 -0.11083,3.46357 -0.3125,4.4531c-0.63151,3.09893 -2.65297,5.39387 -6.0644,6.8848l-1.377,-1.8164c2.27213,-0.93747 3.8151,-2.21677 4.6289,-3.8379c0.42969,-0.86587 0.69661,-1.89127 0.80078,-3.0762c0.05207,-0.60547 0.08137,-1.4746 0.0879,-2.6074h-7.8027v-2.041h7.8027z" fill="#ffffff" stroke-width="1"/><path d="M315.19,175.8c0,0.30599 -0.0293,1.75783 -0.0879,4.3555h1.8652v1.7578h-1.9043c-0.01953,0.85287 -0.06185,1.81967 -0.12695,2.9004h1.6504v1.7188h-1.7773c-0.07813,0.944 -0.18555,1.569 -0.32227,1.875c-0.30599,0.7292 -1.04819,1.0938 -2.2266,1.0938c-0.7552,0 -1.4518,-0.05534 -2.0898,-0.16601l-0.36133,-1.7383c0.918,0.13021 1.62113,0.19531 2.1094,0.19531c0.39714,0 0.63477,-0.13997 0.71289,-0.41992c0.03907,-0.13672 0.07487,-0.41667 0.10742,-0.83985h-6.9531c-0.00667,0.05207 -0.01643,0.10741 -0.0293,0.16602c-0.0586,0.34505 -0.11394,0.67057 -0.16601,0.97656l-2.0215,-0.19531c0.39714,-2.35027 0.66407,-4.1276 0.80078,-5.332l0.0293,-0.23438h-1.9531v-1.7578h2.1582c0.18229,-1.57553 0.33854,-3.02737 0.46875,-4.3555zM309.0181,177.4992h-2.1387c-0.01953,0.33203 -0.07813,1.0319 -0.17578,2.0996l-0.0586,0.55664h2.168l0.0293,-0.27344c0.013,-0.1888 0.03253,-0.45247 0.0586,-0.79101c0.06513,-0.91147 0.1042,-1.44207 0.11719,-1.5918zM310.9419,177.4992c-0.03253,0.77473 -0.08136,1.63087 -0.14648,2.5684v0.0879h2.2949c0.02607,-0.89193 0.04887,-1.77733 0.0684,-2.6562zM308.6567,181.9133h-2.1973c-0.09766,0.79427 -0.20183,1.57877 -0.3125,2.3535l-0.0781,0.54687h2.2852c0.15625,-1.41273 0.25716,-2.37953 0.30273,-2.9004zM310.6587,181.9133c-0.01953,0.26042 -0.0586,0.69012 -0.11719,1.2891l-0.15625,1.6113h2.4902c0.03253,-0.63151 0.05857,-1.10677 0.0781,-1.4258c0.03907,-0.6966 0.0651,-1.18813 0.0781,-1.4746zM306.8306,172.2746h9.4336v1.8164h-10.244c-0.52734,1.0742 -1.19791,2.09633 -2.0117,3.0664l-1.3965,-1.5234c1.28253,-1.50393 2.194,-3.2357 2.7344,-5.1953l2.0801,0.21485c-0.23437,0.67707 -0.43294,1.21743 -0.5957,1.6211zM301.4497,175.1164c-0.8008,-1.10027 -1.7741,-2.13217 -2.9199,-3.0957l1.4746,-1.4258c1.0612,0.78127 2.0703,1.7676 3.0273,2.959zM300.74658,180.2726c-0.9896,-1.26953 -1.98893,-2.334 -2.998,-3.1934l1.5234,-1.4648c1.1328,0.89193 2.15167,1.90757 3.0566,3.0469zM298.09038,187.9386c1.1328,-1.569 2.207,-3.63607 3.2226,-6.2012l1.7383,1.2402c-0.84633,2.3698 -1.93357,4.54427 -3.2617,6.5234z" fill="#ffffff" stroke-width="1"/></g></g></svg>