<svg version="1.1" xmlns="http://www.w3.org/2000/svg" xmlns:xlink="http://www.w3.org/1999/xlink" width="52.56789" height="83.95664" viewBox="0,0,52.56789,83.95664"><g transform="translate(-292.60594,-80.63745)"><g data-paper-data="{&quot;isPaintingLayer&quot;:true}" fill="#ff0000" fill-rule="evenodd" stroke="none" stroke-width="0" stroke-linecap="round" stroke-linejoin="round" stroke-miterlimit="10" stroke-dasharray="" stroke-dashoffset="0" style="mix-blend-mode: normal"><path d="M342.75392,88.00716l-1.68993,0.02l-0.95996,1.65993l0.64998,0.40999l0.14999,1.03996l-0.85996,1.18995l0.30999,0.90996l-0.13999,1.48994l-0.73997,1.54994l-0.95996,0.33999l-1.25995,1.15995l-0.65998,1.66994l0.11,0.71997l-1.36995,1.18995l0.61998,0.81997l-0.54998,2.5399l1.36994,0.82997l0.33999,1.53994l-0.27999,0.34999l-0.11,2.74989l-0.79997,2.20991l-0.75997,0.41998l-0.21999,1.08996l1.18996,-0.30999l1.42994,0.16999l1.61993,-1.12995l1.26995,0.22999l1.93992,0.92996l1.61994,1.74993l1.15995,2.5999l-0.91996,1.76993l0.23999,1.72993l-1.36994,0.48998l-0.30999,2.25991l0.28999,0.97996l-0.75997,0.52998l-2.4699,0.28999l-0.42998,1.07995l0.76997,1.77993l0.04,1.41995l-1.17995,1.72993l-1.95992,0.29998l-0.54998,0.75997l-1.10996,-0.01l-0.77997,0.43998l-2.16991,-0.06l-0.87996,2.21991l-1.89993,1.90992l-2.01992,-1.29994l-0.72997,-0.09l-0.64998,0.92997l-0.44998,2.4999l0.17999,0.95996l-1.87992,0.88996l-1.29994,0.02l-0.74997,0.77997l-1.58993,0.74997l-2.32991,-0.84997l-1.37995,-1.51993l-1.41994,0.04999l-1.12995,0.54998l-1.22995,-0.71997l-0.70997,-0.81997l-1.41994,-0.45998l-0.67998,1.36994l-0.67998,0.52998l-0.14999,1.54994l1.60993,0.35998l1.21995,1.30995l-0.11,0.42998l2.27991,2.34991l-0.36998,1.69993l1.59993,2.29991l0.28999,1.22996l1.28995,1.94992l1.36995,0.27999l0.99996,-0.26999l0.04,1.08995l-0.94996,0.35998l1.43994,2.20992l-1.37995,0.29998l-0.18999,0.71997l-1.07996,0.89997l-0.98996,-0.38999l-0.67998,0.35998l-1.31994,-0.60997l-0.97996,0.48998l-0.49998,2.02992l-1.35994,-0.13l-0.80997,1.26995l0.41998,0.97996l-1.45994,0.48998l-0.83997,-0.17999l-1.05995,-1.05996l-2.5499,0.2l-0.44998,-1.18995l-0.83997,0.25999l-1.23995,-1.83992l-0.75997,-1.52994l0.28999,-2.22991l-0.37998,-1.12995l-1.61994,-0.54998l-1.05995,-2.11991l-0.27999,-1.24995l-1.38995,-1.32995l-1.42994,-0.25999l0.17999,-1.75993l0.96996,-0.46998l-0.43998,-1.92993l0.89996,-0.40998l1.16995,0.75997l1.99992,-1.60994l1.54994,-3.59986l0.12,-1.05996l-1.16996,-2.05992l-1.74993,-0.50998l-0.39998,-1.27994l0.58997,-0.98996l-0.56998,-1.01996l-0.61997,-2.92989l-2.4199,-0.06l-1.08996,-1.48994l-1.63993,-3.19987l-0.22,-1.77992l0.21,-1.24995l-0.93997,-1.98993l0.23999,-2.99987l1.52994,-0.57998l0.02,-1.33995l-0.68998,-1.75993l0.58998,-0.81996l1.50994,-0.13l-0.13,-1.21996l0.55998,-2.08991l0.88996,-0.63997l2.22991,0.33999l1.33995,0.65997l1.14995,0.09999l0.87996,-0.42998l1.12995,-1.98992l-0.35998,-2.62989l0.39999,-0.96996l-0.36999,-1.60994l0.74997,-0.23l0.34999,-1.13995l1.29995,-1.23995l0.29998,-1.32995l0.81997,-0.49998l1.16995,0.99996l1.16996,-0.02l0.03,-2.5599l0.52998,-0.79997l-0.11,-1.14996l1.06996,-1.44994l1.60994,-0.96996l0.57997,0.16999l1.95992,-1.81992l0.26999,-1.11996l1.22995,-1.89992l-0.92996,-0.90996l0.02,-0.87996l0.79997,-0.24999l0.12,-1.47995l0.86996,-0.66997l0.24999,-1.59994l0.75997,-0.99996l2.06992,-0.57998l0.54998,0.41998l0.98996,-0.20999l2.13991,0.10999l0.65998,-0.51998l1.07995,-0.05l0.67998,0.64998l0.34999,1.31994l-0.19999,0.73998l1.52994,0.86996l1.43994,-0.71997l2.18991,-0.47998l2.09992,0.18l1.00996,-0.75997l0.56998,-1.21995l1.71993,-0.05l2.21991,-0.84996l1.69993,2.4199l2.4099,1.78993l-0.66997,1.26995l-0.22999,1.88993"/></g></g></svg>