<svg version="1.1" xmlns="http://www.w3.org/2000/svg" xmlns:xlink="http://www.w3.org/1999/xlink" width="64" height="64" viewBox="0,0,64,64"><g transform="translate(-208,-148)"><g data-paper-data="{&quot;isPaintingLayer&quot;:true}" fill-rule="nonzero" stroke="none" stroke-width="1" stroke-linecap="butt" stroke-linejoin="miter" stroke-miterlimit="10" stroke-dasharray="" stroke-dashoffset="0" style="mix-blend-mode: normal"><path d="M208,212v-64h64v64z" fill="none" opacity="0.988"/><path d="M230.64555,165.60716c0.0067,0 0.01283,0.00199 0.01953,0.002c0.00731,-0.0001 0.01419,-0.002 0.02149,-0.002v0.002c1.3965,0.00628 2.6509,0.32338 3.7598,0.95703c1.12,0.6133 2.0006,1.4672 2.6406,2.5605c0.65979,1.0556 0.99125,2.2566 0.99805,3.5996h0.002c0,0.00879 -0.00198,0.01659 -0.002,0.02539c0.0001,0.00538 0.002,0.01023 0.002,0.01563h-0.002c-0.0043,1.635 -0.25744,3.0359 -0.75976,4.1992c-0.5067,1.1467 -1.159,2.161 -1.959,3.041c-0.7733,0.88 -1.61283,1.70517 -2.5195,2.4785c-0.88,0.7466 -1.7215,1.53463 -2.5215,2.3613c-0.7733,0.8266 -1.41323,1.7731 -1.9199,2.8398c-0.50667,1.04 -0.77216,2.3055 -0.79883,3.7988h10.439v3.2402h-13.959v-3.2402c0.02666,-1.7867 0.27976,-3.3196 0.75976,-4.5996c0.5066,-1.3067 1.14657,-2.42607 1.9199,-3.3594c0.8,-0.96 1.6395,-1.82627 2.5195,-2.5996c0.88,-0.8 1.70717,-1.58797 2.4805,-2.3613c0.7733,-0.8 1.41323,-1.65193 1.9199,-2.5586c0.50313,-0.9269 0.75431,-2.0135 0.75781,-3.2559c-0.0033,-1.1658 -0.36146,-2.12202 -1.0781,-2.8652c-0.7155,-0.74203 -1.617,-1.1126 -2.7012,-1.1172c-0.9508,0.00429 -1.78555,0.28221 -2.5,0.83789c-0.72,0.56 -1.14597,1.4387 -1.2793,2.6387l-3.3594,-0.67969c0.16,-1.1734 0.5592,-2.2001 1.1992,-3.0801c0.6666,-0.9066 1.5205,-1.61243 2.5605,-2.1191c1.0282,-0.50091 2.1488,-0.75211 3.3594,-0.75781v-0.002z" fill="#ff0000"/><path d="M249.49599,165.92801c2.1867,0 3.9212,0.6523 5.2012,1.959c1.27998,1.28 1.9199,3.0145 1.9199,5.2012v1.1191c0,2.1067 -0.6399,3.8001 -1.9199,5.0801c-0.16467,0.16467 -0.3379,0.31745 -0.51758,0.46094c0.28205,0.1993 0.55149,0.41282 0.79687,0.6582c1.33333,1.3067 2,3.1338 2,5.4805v1.7598c0,2.4267 -0.6667,4.3197 -2,5.6797c-1.3067,1.33333 -3.1338,2 -5.4805,2c-2.3466,0 -4.1862,-0.6667 -5.5195,-2c-1.30668,-1.36 -1.959,-3.253 -1.959,-5.6797v-1.7598c0,-2.3467 0.6523,-4.1738 1.959,-5.4805c0.25551,-0.2504 0.53541,-0.46947 0.82813,-0.67188c-0.17589,-0.13952 -0.34514,-0.28792 -0.50781,-0.44727c-1.27998,-1.28 -1.9199,-2.9734 -1.9199,-5.0801v-1.1191c0,-2.1867 0.6399,-3.9212 1.9199,-5.2012c1.3066,-1.30668 3.0392,-1.959 5.1992,-1.959zM249.49596,169.0882c-0.7466,0 -1.38657,0.15852 -1.9199,0.47852c-0.50666,0.2933 -0.89153,0.74797 -1.1582,1.3613c-0.26667,0.6133 -0.40039,1.3602 -0.40039,2.2402v1.1582c0,1.3334 0.29224,2.3601 0.87891,3.0801c0.6133,0.69332 1.4796,1.041 2.5996,1.041c1.1467,0 2.01493,-0.34767 2.6016,-1.041c0.58667,-0.72 0.87891,-1.7468 0.87891,-3.0801v-1.1582c0,-0.88 -0.13372,-1.62687 -0.40039,-2.2402c-0.26666,-0.6133 -0.65153,-1.06797 -1.1582,-1.3613c-0.5067,-0.32 -1.14857,-0.47852 -1.9219,-0.47852zM249.49602,181.2072c-1.2,0 -2.14647,0.3992 -2.8398,1.1992c-0.66667,0.8 -1,1.9337 -1,3.4004v1.7598c0,0.96 0.14808,1.78717 0.44141,2.4805c0.32,0.69332 0.7603,1.22627 1.3203,1.5996c0.5866,0.34666 1.2781,0.52148 2.0781,0.52148c0.8,0 1.481,-0.17481 2.041,-0.52148c0.58665,-0.3733 1.02697,-0.90627 1.3203,-1.5996c0.32,-0.6934 0.48047,-1.5205 0.48047,-2.4805v-1.7598c0,-1.4667 -0.33333,-2.6004 -1,-3.4004c-0.6667,-0.79998 -1.6151,-1.1992 -2.8418,-1.1992z" fill="#ff0000"/></g></g></svg>