<?xml version="1.0" encoding="UTF-8"?>
<svg width="480" height="360" version="1.1" viewBox="0 0 480 360" xmlns="http://www.w3.org/2000/svg">
 <g dominant-baseline="central" fill="#fff" aria-label="橘湾">
  <path d="m252.91 175.85q-1.8848 2.0606-4.8535 3.252l-1.1035-1.4258q2.7344-0.85937 4.4922-2.2363h-4.3555v-1.4844h4.6777q-1.0254-0.49805-1.9141-0.85938l1.2109-0.63476h-2.7539v-1.4648h8.8184l0.98632 0.92774q-1.1328 1.0742-2.7246 2.0312h3.3984l0.9668 0.89844q-1.2207 1.9726-2.5781 3.3691l-1.4844-0.92774q0.94726-0.83008 1.6016-1.8555h-2.5195v2.5781q0 0.74219-0.3125 1.0644-0.32227 0.32227-1.1523 0.32227-0.95703 0-2.1191-0.18555l-0.23438-1.2988q0.88867 0.13672 1.5723 0.13672 0.2832 0 0.34179-0.11719 0.0391-0.0879 0.0391-0.32226zm0.78125-2.3047q0.91796-0.49805 1.6406-1.084h-3.7012q0.0586 0.0293 0.13672 0.0586 0.71289 0.3418 1.9238 1.0254zm2.2656 9.9707v3.6621h-4.2188v0.95704h-1.5039v-3.916q-0.24414 0.14648-0.65429 0.33203l-0.57617-1.0742v6.0254h-1.8848v-9.9414h12.021v8.1348q0 0.85938-0.3125 1.2402-0.38085 0.46875-1.4844 0.46875-0.77148 0-2.1094-0.14649l-0.34179-1.6602q1.1816 0.0977 1.8457 0.0977 0.37109 0 0.44922-0.15625 0.0488-0.0977 0.0488-0.30273v-3.7207zm-1.5234 1.2988h-2.6953v1.0449h2.6953zm2.8027-2.5976v-1.1914h-1.9043v0.97656q0 0.21485 0.24414 0.21485zm-3.457-1.1914h-1.3281q-0.3125 1.4941-1.2891 2.4707h3.6426q-0.47852-0.0586-0.72266-0.2539-0.30273-0.27344-0.30273-0.91797zm-2.9688 0h-1.8066v2.041q1.377-0.55664 1.8066-2.041zm-7.832-0.56641q-0.84961 2.8711-1.9824 4.9414l-0.83984-2.2949q1.7676-3.0176 2.6465-6.6797h-2.3047v-1.9043h2.4805v-4.0234h2.002v4.0234h1.7188v1.9043h-1.7188v1.4844q1.2988 1.1426 2.0801 2.0898l-0.91797 1.8457q-0.60547-0.94726-1.1621-1.6602v9.3164h-2.002z" dominant-baseline="central"/>
  <path d="m275.09 173.8v3.7793q0 0.64454-0.27344 0.94727-0.32226 0.35156-1.4258 0.35156-1.0547 0-1.7285-0.11718l-0.25391-1.6211q0.77148 0.15625 1.2988 0.15625 0.2832 0 0.36133-0.13672 0.0586-0.11718 0.0586-0.38086v-2.9785h-1.7383q-0.0781 2.0605-0.54688 3.1641-0.51757 1.2012-2.1387 2.1973l-1.3965-1.2402q1.4648-0.76172 1.8848-1.9629 0.25391-0.75195 0.3125-2.1582h-3.8574v-1.6602h5.5566v-1.6406h2.1484v1.6406h6.1328v1.6602zm3.0176 5.5371v3.9648h-9.6387q-0.0781 0.53711-0.18555 1.0742h10.664q-0.24414 2.6856-0.67383 3.6816-0.625 1.4453-2.9297 1.4453-1.9141 0-4.1113-0.16601l-0.36133-1.7774q2.0996 0.22461 3.7598 0.22461 0.89843 0 1.1816-0.20508 0.43945-0.32226 0.68359-1.6797h-8.5938q-0.10742 0.40039-0.37109 1.2012l-2.0996-0.41992q0.74218-2.2266 1.1133-4.8145h9.4238v-1.0449h-10v-1.4844zm-14.365-4.3164q-1.084-1.5039-2.7734-2.9785l1.4551-1.3867q1.5332 1.123 2.8809 2.8613zm-0.5957 5.0391q-1.5039-1.9043-2.9199-3.1055l1.4648-1.416q1.4648 1.123 3.0176 2.9004zm-2.5195 7.9004q1.7188-2.6758 3.2617-6.8652l1.6016 1.1816q-1.2793 3.877-3.0664 7.2461zm17.402-9.3652q-1.2793-2.0703-2.6855-3.5742l1.4844-0.95703q1.7188 1.5625 2.7832 3.418zm-13.662-1.1719q1.4258-1.1719 2.3438-3.1055l1.7774 0.66406q-0.95703 2.1777-2.6465 3.6328z" dominant-baseline="central"/>
 </g>
</svg>
