<svg version="1.1" xmlns="http://www.w3.org/2000/svg" xmlns:xlink="http://www.w3.org/1999/xlink" width="208" height="32" viewBox="0,0,208,32"><g transform="translate(-240,-164)"><g data-paper-data="{&quot;isPaintingLayer&quot;:true}" fill-rule="nonzero" stroke="none" stroke-linecap="butt" stroke-linejoin="miter" stroke-miterlimit="10" stroke-dasharray="" stroke-dashoffset="0" style="mix-blend-mode: normal"><path d="M240,196v-32h208v32z" fill="none" stroke-width="0"/><path d="M251.13,175.97l-0.41015,0.0293l-0.44922,0.0195l-1.0352,0.0586l-0.49805,-1.7383l1.1133,-0.01h0.18554l0.20508,-0.01c0.70313,-1.25 1.32813,-2.54233 1.875,-3.877l2.002,0.40039c-0.58593,1.18493 -1.2272,2.32427 -1.9238,3.418c0.95053,-0.03907 1.9271,-0.09115 2.9297,-0.15625l1.0742,-0.0684c-0.39713,-0.61849 -0.87567,-1.28255 -1.4356,-1.9922l1.5723,-0.70313c1.0482,1.1784 2.0573,2.59767 3.0273,4.2578l-1.7285,0.87891c-0.11719,-0.22135 -0.26042,-0.47852 -0.42969,-0.77149l-0.14648,-0.27343c-0.44271,0.05207 -0.86265,0.09764 -1.2598,0.13672v2.0117c0,0.22136 0.04883,0.35483 0.14649,0.4004c0.08463,0.03907 0.29948,0.0586 0.64453,0.0586c0.61198,0 0.95051,-0.11068 1.0156,-0.33203c0.05207,-0.18229 0.08463,-0.52409 0.0977,-1.0254l1.7383,0.49804c-0.01953,1.06773 -0.22787,1.7676 -0.625,2.0996c-0.32552,0.26693 -1.12629,0.40039 -2.4023,0.40039c-1.04167,0 -1.709,-0.11393 -2.002,-0.34179c-0.22135,-0.16927 -0.33203,-0.52734 -0.33203,-1.0742v-2.5293l-0.95703,0.0781l-0.0488,0.01l-0.16601,0.01c-0.09766,0.79427 -0.26693,1.4518 -0.50782,1.9726c-0.48828,1.05467 -1.40298,1.87173 -2.7441,2.4512l-1.2109,-1.3574c1.0742,-0.40364 1.8001,-0.90167 2.1777,-1.4941c0.24739,-0.38411 0.41666,-0.86261 0.50781,-1.4355zM249.1574,180.0227c-0.00667,1.3216 -0.02947,2.54557 -0.0684,3.6719c1.25,-1.06773 2.2526,-2.5456 3.0078,-4.4336l1.7773,0.38086c-0.20833,0.47526 -0.39062,0.87566 -0.54687,1.2012h3.9453l1.0449,0.87891c-0.8008,1.7448 -1.72203,3.16733 -2.7637,4.2676c0.98307,0.58593 2.39583,1.14907 4.2383,1.6894l-1.0547,1.8262c-1.9792,-0.69013 -3.5059,-1.4421 -4.5801,-2.2559c-1.3802,1.04167 -2.88737,1.80663 -4.5215,2.2949l-0.97656,-1.4648c-0.1237,0.52083 -0.35156,0.89193 -0.68359,1.1133c-0.31901,0.20833 -0.84311,0.3125 -1.5723,0.3125c-0.7096,0 -1.3346,-0.04232 -1.875,-0.12695l-0.27344,-1.8359c0.76173,0.13021 1.3737,0.19531 1.8359,0.19531c0.41667,0 0.68034,-0.11719 0.79102,-0.35156c0.14323,-0.27995 0.25065,-0.86261 0.32226,-1.748l-0.94726,0.36132c-0.20833,-1.4388 -0.46224,-2.64973 -0.76172,-3.6328l1.0156,-0.40039c0.38411,1.0482 0.63151,2.015 0.74219,2.9004c0.06513,-1.1328 0.10094,-2.21353 0.10742,-3.2422h-6.3477v-10.527h8.125v1.6602h-2.8027v1.4258h2.2559v1.5039h-2.2559v1.3965h2.2559v1.4844h-2.2559v1.4551zM248.71794,187.8352c1.35413,-0.34505 2.67573,-0.97332 3.9648,-1.8848c-0.57292,-0.61849 -1.05469,-1.25653 -1.4453,-1.9141c-0.42969,0.46224 -0.86589,0.87891 -1.3086,1.25l-0.86914,-1.0644c-0.0586,1.4974 -0.17253,2.70183 -0.3418,3.6133zM254.03044,184.8469c0.76827,-0.78773 1.33467,-1.56247 1.6992,-2.3242h-3.3496c-0.03907,0.05207 -0.07487,0.10415 -0.10742,0.15625c0.52735,0.83987 1.11328,1.56253 1.7578,2.168zM242.84844,172.7569v1.4258h1.748v-1.4258zM242.84844,175.6866v1.3965h1.748v-1.3965zM242.84844,178.5675v1.4551h1.748v-1.4551zM240.11404,187.2394c0.33203,-1.3932 0.5664,-2.97197 0.70312,-4.7363l1.416,0.19531c-0.07161,2.16147 -0.27669,3.99413 -0.61524,5.498zM242.67264,187.2394c-0.00667,-1.44533 -0.07177,-2.92647 -0.19531,-4.4434l1.1328,-0.21485c0.20833,1.30207 0.33529,2.7539 0.38086,4.3555zM244.59644,186.68276c-0.09766,-1.5104 -0.27995,-2.85807 -0.54688,-4.043l1.0059,-0.32227c0.38412,1.28253 0.62501,2.61717 0.72266,4.0039z" fill="#ffffff" stroke-width="1"/><path d="M277.72,173.66v13.711c0,0.8008 -0.20833,1.34767 -0.625,1.6406c-0.33203,0.22787 -0.89843,0.3418 -1.6992,0.3418c-0.99607,0 -1.9824,-0.04557 -2.959,-0.13672l-0.49805,-2.0801c1.1784,0.14974 2.2038,0.22461 3.0762,0.22461c0.3125,0 0.5013,-0.05859 0.56641,-0.17578c0.05207,-0.09115 0.0781,-0.26042 0.0781,-0.50781v-13.018h-10.107v-1.9238h14.082v1.9238zM273.8528,176.16v7.7539h-5.0293v1.5039h-1.9434v-9.2578zM268.8235,177.8592v4.3359h3.1445v-4.3359zM263.9602,175.4178c-1.0482,-1.237 -2.1094,-2.2917 -3.1836,-3.1641l1.4844,-1.4356c1.1914,0.8854 2.24283,1.89777 3.1543,3.0371zM263.45239,180.4569c-1.11327,-1.28907 -2.14517,-2.33723 -3.0957,-3.1445l1.4355,-1.4746c1.11327,0.79427 2.18097,1.80663 3.2031,3.0371zM260.65939,187.8788c1.3216,-1.8164 2.57487,-4.0983 3.7598,-6.8457l1.7188,1.2012c-0.93747,2.59113 -2.16467,4.99023 -3.6816,7.1973z" fill="#ffffff" stroke-width="1"/><path d="M295.09,173.8v3.7793c0,0.42969 -0.09115,0.74545 -0.27344,0.94727c-0.21484,0.23437 -0.69011,0.35156 -1.4258,0.35156c-0.70313,0 -1.2793,-0.03906 -1.7285,-0.11718l-0.25391,-1.6211c0.51432,0.10417 0.94725,0.15625 1.2988,0.15625c0.1888,0 0.30924,-0.04557 0.36133,-0.13672c0.03907,-0.07812 0.0586,-0.20507 0.0586,-0.38086v-2.9785h-1.7383c-0.05207,1.37367 -0.23436,2.42837 -0.54688,3.1641c-0.34505,0.8008 -1.05795,1.53323 -2.1387,2.1973l-1.3965,-1.2402c0.97653,-0.50781 1.6048,-1.16211 1.8848,-1.9629c0.16927,-0.5013 0.27344,-1.2207 0.3125,-2.1582h-3.8574v-1.6602h5.5566v-1.6406h2.1484v1.6406h6.1328v1.6602zM298.1076,179.3371v3.9648h-9.6387c-0.05207,0.35807 -0.11392,0.71614 -0.18555,1.0742h10.664c-0.16276,1.7904 -0.38737,3.0176 -0.67383,3.6816c-0.41667,0.96353 -1.39323,1.4453 -2.9297,1.4453c-1.27607,0 -2.6465,-0.05534 -4.1113,-0.16601l-0.36133,-1.7774c1.39973,0.14974 2.653,0.22461 3.7598,0.22461c0.59895,0 0.99282,-0.06836 1.1816,-0.20508c0.29297,-0.21484 0.52083,-0.77474 0.68359,-1.6797h-8.5938c-0.07161,0.26693 -0.19531,0.66733 -0.37109,1.2012l-2.0996,-0.41992c0.49479,-1.4844 0.86589,-3.08923 1.1133,-4.8145h9.4238v-1.0449h-10v-1.4844zM283.7426,175.0207c-0.72267,-1.0026 -1.64713,-1.99543 -2.7734,-2.9785l1.4551,-1.3867c1.02213,0.74867 1.98243,1.70243 2.8809,2.8613zM283.1469,180.0598c-1.0026,-1.26953 -1.9759,-2.3047 -2.9199,-3.1055l1.4648,-1.416c0.97653,0.74867 1.9824,1.71547 3.0176,2.9004zM280.6274,187.9602c1.14587,-1.78387 2.2331,-4.07227 3.2617,-6.8652l1.6016,1.1816c-0.85287,2.58467 -1.875,5.00003 -3.0664,7.2461zM298.0294,178.595c-0.85287,-1.3802 -1.74803,-2.5716 -2.6855,-3.5742l1.4844,-0.95703c1.14587,1.04167 2.0736,2.181 2.7832,3.418zM284.3674,177.4231c0.95053,-0.78127 1.7318,-1.81643 2.3438,-3.1055l1.7774,0.66406c-0.63802,1.4518 -1.52019,2.66273 -2.6465,3.6328z" fill="#ffffff" stroke-width="1"/></g></g></svg>