<?xml version="1.0" encoding="UTF-8"?>
<svg width="480" height="360" version="1.1" viewBox="0 0 480 360" xmlns="http://www.w3.org/2000/svg">
 <g dominant-baseline="central" fill="#fff" aria-label="神奈川県東部">
  <path d="m245.51 179.09q0.10742 0.0781 0.3125 0.22461 1.1816 0.82031 2.4902 2.1289l-1.2012 1.6602q-0.63476-0.79102-1.5332-1.6699l-0.0684-0.0781v8.1445h-2.0215v-7.959q-0.84961 0.97656-2.2266 2.2168l-1.0352-1.8945q3.4375-2.8809 5.127-6.2207h-4.6094v-1.9629h2.7051v-3.1836h2.041v3.1836h1.6992l0.78125 1.0449q-0.89844 2.0801-2.4609 4.2969zm6.8945-5.6543v-2.9394h2.0606v2.9394h4.2383v11.084h-4.2383v4.9805h-2.0606v-4.9805h-3.9941v-11.084zm-2.1094 1.7969v2.8223h2.1484v-2.8223zm0 4.541v2.9297h2.1484v-2.9297zm6.4844 2.9297v-2.9297h-2.3535v2.9297zm0-4.6484v-2.8223h-2.3535v2.8223z" dominant-baseline="central"/>
  <path d="m273.45 174.61q2.1973 2.0215 6.2891 3.4668l-1.0547 1.8164q-2.0606-0.84961-3.5059-1.7188v1.1621h-10.117v-1.0156q-1.3476 0.88867-3.7012 2.0117l-1.2402-1.6602q3.2226-1.2988 5.0684-2.8125 0.63476-0.51757 1.3086-1.25h-5.4199v-1.8359h6.7578q0.55664-0.95703 1.0254-2.3242l2.1582 0.30273q-0.42968 1.1035-0.8789 2.0215h8.7598v1.8359zm-2.5391 0h-1.875q-1.1719 1.6699-2.9883 3.0274h8.2812q-2.002-1.377-3.418-3.0274zm0.3711 8.4277v4.8242q0 0.80078-0.30274 1.1816-0.39062 0.49805-1.748 0.49805-1.6797 0-2.8711-0.12696l-0.38086-2.0117q1.2109 0.19532 2.5098 0.19532 0.42969 0 0.52734-0.13672 0.0879-0.11719 0.0879-0.45899v-3.9648h-7.6758v-1.8359h17.178v1.8359zm-10.82 4.2383q2.2363-1.4062 3.6621-3.8574l1.8555 0.9375q-1.5137 2.8418-3.9355 4.502zm17.275 1.2207q-1.8848-2.3828-3.8965-4.1016l1.6992-1.2012q2.1777 1.6602 3.877 3.8086z" dominant-baseline="central"/>
  <path d="m282.94 171.3h2.3438v6.6016q0 4.0918-0.45898 6.2598-0.42969 2.002-1.4551 3.584-0.36133 0.56641-0.99609 1.3184l-1.8555-1.582q1.7578-1.8652 2.1875-4.9512 0.23437-1.6504 0.23437-4.3066zm6.2012 0.30273h2.2754v15.898h-2.2754zm6.416-0.78125h2.3047v18.457h-2.3047z" dominant-baseline="central"/>
  <path d="m316.76 170.98v9.4629h-11.621v-9.4629zm-9.5215 1.543v1.2207h7.4023v-1.2207zm0 2.5977v1.2207h7.4023v-1.2207zm0 2.5976v1.2598h7.4023v-1.2598zm-3.9356 4.0234h16.191v1.6992h-8.0762v6.0644h-2.2168v-6.0644h-8.0371v-10.957h2.1387zm-2.5 5.8984q2.3242-1.0742 4.4434-3.6035l1.7969 1.0449q-2.0898 2.6465-4.6387 4.1602zm16.836 1.2598q-1.4941-1.8359-4.4922-3.8574l1.6797-1.1816q2.3535 1.3574 4.6191 3.5644z" dominant-baseline="central"/>
  <path d="m333.2 183.15q2.4219 2.1582 6.5234 3.4863l-1.2598 1.8359q-2.3633-0.83984-4.1211-2.0312-1.8164-1.2402-3.3496-3.0469v6.1035h-2.1191v-5.9961q-1.3574 1.9043-3.5059 3.418-1.6504 1.1621-3.5352 1.875l-1.3379-1.7188q3.0957-1.0254 5.166-2.7637 0.58594-0.48829 1.1914-1.1621h-4.6973v-7.998h6.7188v-1.3184h-8.0957v-1.7578h8.0957v-1.582h2.1191v1.582h8.2227v1.7578h-8.2227v1.3184h6.8457v7.998zm-4.3262-6.3574h-4.5996v1.582h4.5996zm2.1191 0v1.582h4.7266v-1.582zm-2.1191 3.1055h-4.5996v1.6113h4.5996zm2.1191 0v1.6113h4.7266v-1.6113z" dominant-baseline="central"/>
  <path d="m346.98 172.75h4.1797v1.8848h-1.377q-0.3711 1.4941-0.9961 3.1348h2.6074v1.8848h-10.898v-1.8848h2.3926q-0.39062-1.875-0.82031-3.1348h-1.2695v-1.8848h4.1406v-2.2559h2.041zm-2.9394 1.8848q0.49805 1.4551 0.77148 3.1348h1.9922l0.09766-0.27344q0.41992-1.1133 0.78125-2.5293l0.0879-0.33203zm6.0547 6.6602v7.998h-2.002v-0.95703h-4.2578v1.1621h-2.0606v-8.2031zm-6.2598 1.7969v3.3887h4.2578v-3.3887zm13.047-4.9316q1.1621 1.1035 1.8457 2.627 0.67383 1.5234 0.67383 3.0859 0 1.4453-0.53711 2.1289-0.55664 0.71289-1.8359 0.71289-1.0938 0-2.1191-0.15625l-0.47852-2.0801q1.1816 0.21485 1.9531 0.21485 0.58594 0 0.73242-0.27344 0.0977-0.19531 0.0977-0.78125 0-2.4121-1.4453-4.1602-0.38086-0.45898-0.95703-0.98633l0.11719-0.27343q1.0156-2.2949 1.582-4.7852h-2.5v16.064h-2.0215v-18.086h5.8789l1.084 0.99609q-0.98633 3.3594-2.0703 5.752z" dominant-baseline="central"/>
 </g>
</svg>
