<svg version="1.1" xmlns="http://www.w3.org/2000/svg" xmlns:xlink="http://www.w3.org/1999/xlink" width="147.86783" height="209.15807" viewBox="0,0,147.86783,209.15807"><g transform="translate(-335.16588,-132.3119)"><g data-paper-data="{&quot;isPaintingLayer&quot;:true}" fill="none" fill-rule="evenodd" stroke="#d645ff" stroke-width="72" stroke-linecap="round" stroke-linejoin="round" stroke-miterlimit="4" stroke-dasharray="" stroke-dashoffset="0" style="mix-blend-mode: normal"><g><path d="M426.66697,256.24783l0.93985,0.53991l2.16965,4.11934l-2.4796,-0.6099l-1.93969,-2.15965l1.30979,-1.8897"/><path d="M436.34542,252.43844l2.22964,1.55975l-1.40977,4.09934l-2.18965,-2.25964l-0.52992,-2.04967l1.8997,-1.34978"/><path d="M394.66209,246.94932l1.92969,4.20933l-2.97952,-0.01l-0.6299,-2.20965l1.47976,0.29995l0.19997,-2.28963"/><path d="M431.4462,233.04154l1.67973,2.67957l-1.60974,0.22996l-0.06999,-2.90953"/><path d="M442.0845,179.28015l0.85986,2.63958l-0.98984,1.36978l1.42977,1.8997l-2.16965,0.04999l-1.08983,-4.91921l1.95969,-1.03983"/><path d="M442.84438,168.3119l-0.03999,1.64974l2.16965,4.9792l-0.17997,2.22964l1.35978,1.43977l0.87986,4.30931l-2.34962,-1.64974l-1.72972,-4.15933l-2.84954,2.85954l-1.07983,-1.2498l-1.13982,4.64926l0.89986,3.92937l-3.21948,1.33979l-0.34994,1.43977l-3.51944,1.63974l-0.86986,2.64958l1.73972,1.15981l1.91969,3.24948l1.68973,-0.79987l-0.6099,4.88922l-2.28963,-0.47992l-0.68989,-1.58975l-1.28979,3.62942l-1.67973,-0.78987l-0.48992,2.74956l-1.8697,-0.74988l-1.47976,1.2398l-1.66973,-0.41993l0.56991,2.05967l-0.76988,1.72972l2.17965,-0.50992l6.53895,1.38978l-0.55991,3.56943l-2.29963,0.77988l-1.35978,2.53959l-2.88954,0.5999l0.43993,2.19965l2.4796,0.92985l0.52992,2.65957l2.84954,-0.80987l2.4796,2.01968l-1.8797,4.48928l-1.2498,-0.58991l-0.13998,-2.5296l-2.78955,0.39994l1.2798,4.01936l-2.15965,1.94969l3.15949,2.17965l-4.09934,0.93985l-1.90969,-0.87986l2.42961,2.67957l-0.72988,3.29947l1.57975,0.01l1.8897,-2.18965l1.49976,2.94953l2.32963,-0.99984l-0.07999,1.64974l-2.87954,-0.43993l-2.68957,2.16965l3.05951,0.38994l2.02968,4.13934l-0.77988,1.80971l1.45977,0.66989l-2.08967,6.04903l-1.2198,-3.36946l-3.19949,-1.74972l-2.5196,-0.47992l1.79971,-0.93985l-0.49992,-3.61942l-2.60958,1.2798l-1.78971,-1.66973l3.66941,-2.63958l-2.30963,0.17997l-2.35962,-3.86938l-1.80971,2.27964l-2.27964,0.10998l0.15997,-2.82955l-1.16981,-0.82987l-6.44897,0.06999l0.18997,1.69973l-2.81955,-2.45961v1.44977l-3.51944,0.85986l-5.73908,3.29947l-1.53975,2.78955l-2.63958,-0.84986l0.58991,-1.50976l-3.1095,-1.81971l0.16997,2.01968l-2.08967,-1.42977l-2.68957,1.82971l0.42993,2.10966l-2.21964,0.55991l0.91985,1.8597l-1.10982,2.63958l3.55943,-1.04983l0.79987,3.37946l-6.31899,2.75956l0.53991,0.45993l-5.85906,9.73844l-3.7694,11.52816l-1.55975,12.64798v3.79939l0.88986,7.40881l0.72988,2.04967"/></g></g></g></svg>