<svg version="1.1" xmlns="http://www.w3.org/2000/svg" xmlns:xlink="http://www.w3.org/1999/xlink" width="400" height="400" viewBox="0,0,400,400"><g transform="translate(-40,20)"><g data-paper-data="{&quot;isPaintingLayer&quot;:true}" stroke="none" stroke-linecap="butt" stroke-linejoin="miter" stroke-miterlimit="10" stroke-dasharray="" stroke-dashoffset="0" style="mix-blend-mode: normal"><path d="M40,380v-400h400v400z" fill="none" fill-rule="nonzero" stroke-width="0"/><path d="M190.0001,100h100c16.62,0 30,13.38 30,30v100c0,16.62 -13.38,30 -30,30h-100c-16.62,0 -30,-13.38 -30,-30v-100c0,-16.62 13.38,-30 30,-30z" fill="#3098bd" fill-rule="evenodd" stroke-width="0"/><path d="M241.09029,123.43868h13.609v110.86l-17.951,0.002h-1v-90.73c-8.649,2.8378 -16.8726,5.012 -24.604,6.4102l-0.92773,0.16797l-3.6152,-14.973l0.9707,-0.23633c13.572,-3.296 24.6795,-7.1033 33.307,-11.396l0.21094,-0.10352z" fill="#ffffff" fill-rule="nonzero" stroke-width="1" opacity="0.75"/></g></g></svg>