<?xml version="1.0" encoding="UTF-8"?>
<svg width="480" height="360" version="1.1" viewBox="0 0 480 360" xmlns="http://www.w3.org/2000/svg">
 <g dominant-baseline="central" fill="#fff" aria-label="朝鮮半島北部">
  <path d="m246.7 175.65h3.2031v7.2656h-3.2031v1.5234h3.7988v1.7383h-3.7988v3.3203h-2.041v-3.3203h-4.1797v-1.7383h4.1797v-1.5234h-3.1445v-7.2656h3.1445v-1.4551h-3.8672v-1.7188h3.8672v-1.9824h2.041v1.9824h3.8281v1.7188h-3.8281zm1.3574 1.543h-4.5801v1.3379h4.5801zm-4.5801 2.7734v1.4062h4.5801v-1.4062zm15.186-8.7305v16.24q0 1.0254-0.49805 1.4648-0.43945 0.39063-1.4355 0.39063-0.89844 0-2.3633-0.13672l-0.41992-1.9824q1.3867 0.18554 2.168 0.18554 0.36133 0 0.44922-0.15625 0.0586-0.11718 0.0586-0.37109v-4.3555h-3.3691q-0.0976 2.1289-0.48828 3.6621-0.45898 1.7871-1.5234 3.3789l-1.7188-1.4258q1.1719-1.5723 1.5234-3.6914 0.23438-1.416 0.23438-3.623v-9.5801zm-2.041 1.8164h-3.3398v2.9199h3.3398zm0 4.6777h-3.3398v3.0274h3.3398z" dominant-baseline="central"/>
  <path d="m266.95 175.16h2.4024v8.584h-7.7832v-6.9629q-0.30274 0.3125-0.45899 0.45899l-0.95703-1.6406q2.3438-2.1973 3.3203-5.0586l1.3477 0.78125h2.9102l0.80079 0.85937q-0.71289 1.6211-1.582 2.9785zm-2.334 1.4844h-1.3477v2.041h1.3477zm1.6602 0v2.041h1.377v-2.041zm-1.6602 3.4375h-1.3477v2.1777h1.3477zm1.6602 0v2.1777h1.377v-2.1777zm-1.2305-4.9219q0.85937-1.4258 1.2109-2.1582h-1.9043q-0.51758 0.96679-1.4062 2.1582zm8.4473 0.3418h-3.5449v-1.8164h1.7578q-0.65429-1.5137-1.3184-2.5586l1.8848-0.60547q0.73242 1.2207 1.4062 3.1641h1.4746q0.5957-1.4453 1.1621-3.2227l2.0996 0.54688q-0.56641 1.4062-1.1816 2.6758h1.9922v1.8164h-3.6524v2.5195h3.2715v1.7578h-3.2715v2.6953h3.916v1.8848h-3.916v5.1465h-2.0801v-5.1465h-3.7207v-1.8848h3.7207v-2.6953h-3.1836v-1.7578h3.1836zm-13.145 13.135q0.76172-1.6016 1.1621-4.2773l1.543 0.32226q-0.27344 3.0371-1.0644 4.9414zm3.5449 0.6836q-0.0781-2.5098-0.38086-4.5996l1.4453-0.19532q0.45898 2.1777 0.53711 4.3945zm2.5391-0.40039q-0.32227-2.1875-0.83985-4.2188l1.2988-0.38086q0.72266 1.9531 1.123 4.043zm2.4219-0.45899q-0.57617-2.3144-1.2988-4.0234l1.2598-0.47851q1.0644 2.168 1.4941 3.8672z" dominant-baseline="central"/>
  <path d="m288.84 177.31v-6.8164h2.1973v6.8164h7.4414v1.9434h-7.4414v2.7734h8.4668v1.9824h-8.4668v5.4883h-2.1973v-5.4883h-8.3398v-1.9824h8.3398v-2.7734h-7.3047v-1.9434zm-4.2773-0.63476q-1.2109-2.6856-2.5391-4.4629l2.041-0.9961q1.5039 2.0703 2.6367 4.4727zm8.5742-0.76172q1.543-2.3438 2.4609-4.9219l2.2852 0.89844q-1.1035 2.4219-2.7832 4.8633z" dominant-baseline="central"/>
  <path d="m307.74 171.98q0.36133-0.86914 0.58594-1.6602l2.3828 0.32226q-0.3418 0.81055-0.625 1.3379h6.5039v6.3672h-11.797v0.98633h14.697v1.582h-14.697v0.99609h14.014q-0.12695 4.4727-0.5664 6.0352-0.28321 0.99609-1.0645 1.3184-0.55664 0.23437-1.6992 0.23437-1.1719 0-2.1875-0.14648l-0.39063-1.6406h-9.7852v1.084h-2.0996v-4.6973h2.0996v2.0117h3.3594v-2.6367h-3.8379v-11.494zm4.1504 14.131v-2.0117h2.0215v3.3984q0.81054 0.0781 1.3476 0.0781 0.66406 0 0.83008-0.38085 0.32227-0.7129 0.50781-3.7207h-8.0273v2.6367zm-7.0996-12.627v0.96679h9.6387v-0.96679zm0 2.3633v1.0644h9.6387v-1.0644z" dominant-baseline="central"/>
  <path d="m325.84 184.3q-2.6953 1.416-4.6973 2.168l-0.82031-2.1484q3.1348-1.0547 5.5176-2.1875v-4.375h-4.834v-2.0606h4.834v-5.1953h2.1777v19.004h-2.1777zm6.9434-7.6074q2.2754-1.1914 4.4141-3.0273l1.6211 1.6992q-2.8906 2.0508-6.0352 3.4961v7.3242q0 0.47852 0.3125 0.58594 0.33203 0.10742 1.5332 0.10742 1.582 0 1.9824-0.18555 0.2832-0.12695 0.39062-0.79101 0.14649-0.92774 0.21485-2.998l2.1875 0.67383q-0.0977 2.5293-0.3125 3.6328-0.24414 1.2305-1.2793 1.5918-0.98633 0.33203-3.2324 0.33203-2.6367 0-3.3203-0.43945-0.6543-0.42969-0.6543-1.6504v-16.543h2.1777z" dominant-baseline="central"/>
  <path d="m346.98 172.75h4.1797v1.8848h-1.377q-0.3711 1.4941-0.9961 3.1348h2.6074v1.8848h-10.898v-1.8848h2.3926q-0.39062-1.875-0.82031-3.1348h-1.2695v-1.8848h4.1406v-2.2559h2.041zm-2.9394 1.8848q0.49805 1.4551 0.77148 3.1348h1.9922l0.09766-0.27344q0.41992-1.1133 0.78125-2.5293l0.0879-0.33203zm6.0547 6.6602v7.998h-2.002v-0.95703h-4.2578v1.1621h-2.0606v-8.2031zm-6.2598 1.7969v3.3887h4.2578v-3.3887zm13.047-4.9316q1.1621 1.1035 1.8457 2.627 0.67383 1.5234 0.67383 3.0859 0 1.4453-0.53711 2.1289-0.55664 0.71289-1.8359 0.71289-1.0938 0-2.1191-0.15625l-0.47852-2.0801q1.1816 0.21485 1.9531 0.21485 0.58594 0 0.73242-0.27344 0.0977-0.19531 0.0977-0.78125 0-2.4121-1.4453-4.1602-0.38086-0.45898-0.95703-0.98633l0.11719-0.27343q1.0156-2.2949 1.582-4.7852h-2.5v16.064h-2.0215v-18.086h5.8789l1.084 0.99609q-0.98633 3.3594-2.0703 5.752z" dominant-baseline="central"/>
 </g>
</svg>
