<?xml version="1.0" encoding="UTF-8"?>
<svg width="480" height="360" version="1.1" viewBox="0 0 480 360" xmlns="http://www.w3.org/2000/svg">
 <g dominant-baseline="central" fill="#fff" aria-label="南太平洋">
  <path d="m248.92 182.24h-4.043v-1.6016h1.9531q-0.43945-0.9961-0.99609-1.8555l1.7578-0.64453q0.76172 1.2793 1.2305 2.5h2.2949q0.57617-1.1816 1.0156-2.5391l1.9629 0.61524q-0.49805 1.0742-1.0547 1.9238h2.0996v1.6016h-4.1797v1.4258h4.4531v1.6602h-4.4531v3.6914h-2.041v-3.6914h-4.2871v-1.6602h4.2871zm2.0996-6.0156h7.4024v11.416q0 1.0059-0.53711 1.416-0.44922 0.35157-1.5137 0.35157-1.377 0-2.6562-0.14649l-0.47852-1.9629q1.709 0.20508 2.5586 0.20508 0.35156 0 0.41015-0.17578 0.0391-0.10742 0.0391-0.30274v-9.1016h-12.48v11.582h-2.1777v-13.281h7.2754v-1.7676h-8.3594v-1.8164h8.3594v-2.1387h2.1582v2.1387h8.4766v1.8164h-8.4766z" dominant-baseline="central"/>
  <path d="m271.5 176.91q0.73242 2.3828 2.334 4.7559 2.2559 3.3496 5.8008 5.5078l-1.3574 2.0312q-3.252-2.0215-5.7422-5.6152-1.4648-2.1191-2.334-4.668-0.61524 2.2461-1.6699 4.0625 2.3633 1.6113 3.8672 3.0859l-1.3574 1.6016q-1.4941-1.4941-3.5644-3.0469-1.4551 1.9336-2.9785 3.1445-1.0449 0.83984-2.4414 1.6406l-1.582-1.8359q3.6621-1.582 5.8594-4.9707 1.6602-2.5684 2.2754-5.6934h-7.6953v-2.0801h7.9004v-4.3359h2.3047v4.3359h7.9785v2.0801z" dominant-baseline="central"/>
  <path d="m291.04 173.3v7.6367h8.4668v2.002h-8.4668v6.5625h-2.1973v-6.5625h-8.3398v-2.002h8.3398v-7.6367h-7.4414v-1.9434h17.217v1.9434zm-6.5137 6.8945q-0.96679-2.8711-2.1387-5.1172l2.1191-0.85937q1.0938 1.8945 2.2363 5.1367zm8.6524-0.67383q1.2598-2.3633 2.1289-5.4199l2.2168 0.71289q-0.91797 2.8223-2.3047 5.4785z" dominant-baseline="central"/>
  <path d="m311.56 175.5h-5.2246v-1.8164h2.666q-0.63477-1.4551-1.3477-2.5391l1.9434-0.72266q0.82031 1.377 1.5039 3.2617h3.1055q0.625-1.4453 1.1914-3.2617l2.1973 0.60547q-0.60547 1.543-1.2109 2.6562h2.5586v1.8164h-5.2246v2.5195h4.6387v1.7578h-4.6387v2.6953h5.7812v1.8848h-5.7812v5.1465h-2.1582v-5.1465h-5.6445v-1.8848h5.6445v-2.6953h-4.668v-1.7578h4.668zm-7.4023-0.26368q-1.1621-1.6113-3.0762-3.1348l1.4746-1.5039q1.9629 1.4258 3.2031 3.0371zm-0.63477 5.0195q-1.5234-1.8555-3.1641-3.1738l1.4844-1.5039q1.748 1.2695 3.2324 3.0566zm-2.8223 7.5195q1.7383-2.4024 3.3398-6.4551l1.6602 1.2988q-1.3672 4.1016-3.2812 6.8652z" dominant-baseline="central"/>
 </g>
</svg>
