<svg xmlns="http://www.w3.org/2000/svg" xml:space="preserve" viewBox="0 0 400 400" version="1.1" height="400" width="400"><path style="mix-blend-mode:normal" stroke-width="0" stroke-miterlimit="10" fill="none" d="m0 400v-400h400v400z"></path><path style="paint-order:stroke fill markers" stroke-width="0" fill-rule="evenodd" fill="#3098bd" d="m150.0001 120h100c16.62 0 30 13.38 30 30v100c0 16.62-13.38 30-30 30h-100c-16.62 0-30-13.38-30-30v-100c0-16.62 13.38-30 30-30z"></path><path style="font-feature-settings:normal;font-variant-alternates:normal;font-variant-caps:normal;font-variant-east-asian:normal;font-variant-ligatures:normal;font-variant-numeric:normal;font-variant-position:normal;font-variation-settings:normal;inline-size:0;isolation:auto;mix-blend-mode:normal;shape-margin:0;shape-padding:0;text-decoration-color:#000000;text-decoration-line:none;text-decoration-style:solid;text-indent:0;text-orientation:mixed;text-transform:none;white-space:normal" stop-color="#000000" shape-rendering="auto" opacity=".75" image-rendering="auto" fill="#fff" color-rendering="auto" color="#000000" d="m201.09 143.44-0.21094 0.10352c-8.6275 4.2927-19.735 8.1-33.307 11.396l-0.9707 0.23633 3.6152 14.973 0.92773-0.16797c7.7314-1.3982 15.955-3.5724 24.604-6.4102v90.73h1l17.951-2e-3v-110.86h-13.609z"></path></svg>
