<svg version="1.1" xmlns="http://www.w3.org/2000/svg" xmlns:xlink="http://www.w3.org/1999/xlink" width="208" height="32" viewBox="0,0,208,32"><g transform="translate(-240,-164)"><g data-paper-data="{&quot;isPaintingLayer&quot;:true}" fill-rule="nonzero" stroke="none" stroke-linecap="butt" stroke-linejoin="miter" stroke-miterlimit="10" stroke-dasharray="" stroke-dashoffset="0" style="mix-blend-mode: normal"><path d="M240,196v-32h208v32z" fill="none" stroke-width="0"/><path d="M244.34,181.49c-0.7422,1.69273 -1.66343,3.25197 -2.7637,4.6777l-1.2207,-2.041c1.6146,-1.73827 2.8581,-3.7565 3.7305,-6.0547l0.0488,-0.13672h-3.4961v-1.8359h3.7012v-2.7539c-0.9896,0.18229 -1.8913,0.32552 -2.7051,0.42969l-0.82032,-1.7188c2.78647,-0.33854 5.306,-0.91147 7.5586,-1.7188l1.1816,1.7188c-1.12627,0.34505 -2.1712,0.62826 -3.1348,0.84961v3.1934h3.1152v1.8359h-3.1152v1.5723c1.23047,0.74867 2.36327,1.62433 3.3984,2.627l-1.2207,1.9434c-0.69013,-0.86587 -1.41603,-1.66667 -2.1777,-2.4024v7.832h-2.0801zM258.656,172.447v16.514h-2.1191v-1.3965h-4.2383v1.543h-2.0801v-16.66zM252.2986,174.4294v11.172h4.2383v-11.172z" fill="#ffffff" stroke-width="1"/><path d="M269.78,187.54c1.3086,-1.15887 2.2884,-2.70183 2.9394,-4.6289c0.39713,-1.17187 0.67057,-2.5358 0.82031,-4.0918c0.05207,-0.57943 0.0781,-1.10676 0.0781,-1.582v-1.6797h-0.6836c-0.01953,0.08463 -0.04557,0.20182 -0.0781,0.35156c-0.30599,1.38673 -0.76499,2.63023 -1.377,3.7305l-1.3184,-1.6602c0.944,-1.99867 1.569,-4.52797 1.875,-7.5879l1.9238,0.28321c-0.14323,1.12627 -0.31251,2.1126 -0.50782,2.959h5.0098l1.0547,0.85938c-0.44922,1.88153 -0.97982,3.51563 -1.5918,4.9023l-1.7285,-0.69336c0.59245,-1.3216 0.96679,-2.36977 1.123,-3.1445h-1.8555v1.7383c0,1.89453 0.44923,3.8151 1.3477,5.7617c0.69013,1.4974 1.68623,2.90367 2.9883,4.2188l-1.2988,2.2266c-1.3086,-1.51693 -2.41863,-3.32033 -3.3301,-5.4102c-0.24739,-0.5599 -0.42968,-1.10353 -0.54687,-1.6309c-0.52083,2.832 -1.7871,5.2441 -3.7988,7.2363l-1.0644,-1.4551c-0.0456,0.48828 -0.20185,0.82358 -0.46875,1.0059c-0.25391,0.16927 -0.71941,0.2539 -1.3965,0.2539c-1.00913,0 -1.78387,-0.04883 -2.3242,-0.14648l-0.37109,-1.8359l0.41992,0.0293c0.84633,0.0586 1.43553,0.0879 1.7676,0.0879c0.24089,0 0.38412,-0.05208 0.42969,-0.15625c0.03907,-0.07813 0.0586,-0.19857 0.0586,-0.36133v-5.7227h-7.4805v-1.6602h10.723v1.6602h-1.3379zM269.59445,173.077v4.9024c0,0.50781 -0.10091,0.86261 -0.30273,1.0644c-0.21485,0.21484 -0.59898,0.32226 -1.1524,0.32226c-0.48177,0 -1.07747,-0.04232 -1.7871,-0.12695l-0.18554,-0.99609h-4.6094v-4.1406h5.0586v3.6035c0.32552,0.02607 0.58594,0.0391 0.78125,0.0391c0.24088,0 0.36132,-0.12044 0.36132,-0.36133v-4.3066h-7.1387v-1.6797h10.234v1.6797zM263.21745,175.4598v1.4062h1.8164v-1.4062zM266.69405,182.5204v4.3164h-3.4766v1.1816h-1.7188v-5.498zM263.21745,183.8778v1.5625h1.8359v-1.5625z" fill="#ffffff" stroke-width="1"/><path d="M291.03,185.42h4.9219v-10.742h2.2168v14.658h-2.2168v-1.7969h-11.943v1.7969h-2.1973v-14.658h2.1973v10.742h4.8047v-14.727h2.2168z" fill="#ffffff" stroke-width="1"/><path d="M316.76,170.98v9.4629h-11.621v-9.4629zM307.2385,172.523v1.2207h7.4023v-1.2207zM307.2385,175.1207v1.2207h7.4023v-1.2207zM307.2385,177.7183v1.2598h7.4023v-1.2598zM303.3029,181.7417h16.191v1.6992h-8.0762v6.0644h-2.2168v-6.0644h-8.0371v-10.957h2.1387zM300.8029,187.6401c1.54947,-0.71613 3.0306,-1.9173 4.4434,-3.6035l1.7969,1.0449c-1.3932,1.76433 -2.93943,3.15107 -4.6387,4.1602zM317.6389,188.8999c-0.99607,-1.22393 -2.49347,-2.50973 -4.4922,-3.8574l1.6797,-1.1816c1.569,0.90493 3.1087,2.09307 4.6191,3.5644z" fill="#ffffff" stroke-width="1"/></g></g></svg>