<svg version="1.1" xmlns="http://www.w3.org/2000/svg" xmlns:xlink="http://www.w3.org/1999/xlink" width="73.81707" height="73.67707" viewBox="0,0,73.81707,73.67707"><g transform="translate(42.30548,-60.81691)"><g data-paper-data="{&quot;isPaintingLayer&quot;:true}" fill="#ff0000" fill-rule="evenodd" stroke="none" stroke-width="0" stroke-linecap="round" stroke-linejoin="round" stroke-miterlimit="10" stroke-dasharray="" stroke-dashoffset="0" style="mix-blend-mode: normal"><path d="M31.51159,67.78565l-0.42998,0.99796l0.41998,1.62794l-0.34999,0.92296l-0.11,2.78889l-1.83992,2.09892l0.98996,3.60886l0.75997,1.24195l-1.29995,1.88792l0.90996,1.06995l-0.62998,0.47198l0.15999,1.93393l-0.75997,1.71193l-1.07996,1.30595l-0.23999,1.35494l-1.15996,0.038l-0.89996,-0.89897l-0.90996,0.26099l-1.51994,-0.28599l-0.97996,1.74293l-1.83992,-0.59897l-1.86992,-0.20799l-1.77993,2.23791l0.03,2.7319l-1.16996,0.68397l-1.82993,0.24799l-0.61998,1.56194l-0.99996,0.29998l0.42998,1.08196l-0.77997,1.30494l1.85992,3.42987l-0.40998,0.98696l-1.80993,0.68197l-1.14995,1.39294l-0.04,1.36395l-0.76997,1.48194l0.02,1.63494l-2.86988,0.61697l0.07,1.42694l-1.68993,-0.31199l-1.63994,1.08496l0.92996,1.52094l-0.21999,1.99692l-1.74993,1.49095l-1.59993,0.82796l0.46998,1.13296l-0.81996,2.78689l-0.61998,-0.25999l-1.27995,-1.90393l-0.68997,-1.89992l-2.19991,-1.36595l-0.85997,0.43198l-1.19995,-0.53398l-0.38998,1.44394l0.96996,4.01684l-1.11996,1.44295l-2.93988,-1.85593l-1.68993,0.48498l-1.46994,-0.50698l-1.49994,1.03695l-0.23999,1.33395l-0.85997,-0.32099l-3.31987,2.28791l-1.43994,1.45494l-2.05992,0.81697l-1.31994,0.16499l-0.53998,1.02896l-1.42994,0.57198l-1.20996,1.08696l-0.26998,0.98096l-1.05996,-0.48898l-1.12996,-1.77093l-2.98988,-0.42199l-0.70997,-0.94396l-1.43994,-0.075l-0.55998,-1.07896l0.21999,-1.04496l-0.88997,-1.55494l-1.17995,0.025l-2.18992,1.38195l-3.38986,-1.36695l1.35994,-2.4009l1.06996,-0.91897l0.85997,-2.22291l0.15999,-1.93092l0.99996,-1.45995l1.67993,-1.34395l1.16996,-0.31599l2.3199,-1.64993l1.25995,-0.38999l1.12996,-0.97396l0.88996,0.37198l2.71989,-0.43599l1.61993,-2.6309l0.94996,-0.51598l1.79993,0.97897l0.91997,-1.19896l1.55993,0.099l0.28999,-0.95896l1.71993,-0.82696l0.58998,-1.28995l0.92996,-0.33098l1.94992,-4.17783l0.98996,-0.90797l0.65998,-3.03887l0.49998,-1.08896l0.70997,-2.83788l0.52998,-3.67485l0.90996,-1.50594l0.23999,-2.08792l-0.02,-7.65069l-0.21999,-3.08988l-0.66997,-5.83577l0.07,-1.66993l0.43998,-1.01696l-0.20999,-6.58474l1.10995,-0.61597l1.87993,-0.20699l1.19995,1.26895l0.96997,-0.039l2.02991,2.63289l-0.59998,2.02392l0.76997,0.66098l1.82993,0.61198l2.3599,3.02387l0.60998,2.86789l-0.73998,1.27694l1.47995,1.92493l2.73989,1.04296l1.21995,-1.19096l-0.06,-1.19895l1.53994,-1.30095l2.6599,0.90096l0.50998,0.55298l1.80992,0.233l2.18991,-1.08996l0.41998,-1.13395l3.06988,0.75597l0.52997,-1.23195l-0.40998,-2.98988l0.83996,-0.10199l1.25995,0.70097l1.87993,-0.95796l1.51994,0.57198l1.92992,-0.94496l1.17996,0.64697l1.40994,-1.37894l0.75997,-1.77793l2.03992,0.60798"/></g></g></svg>