<svg xmlns="http://www.w3.org/2000/svg" viewBox="0 0 224 156" version="1.1" height="156" width="224">
 <g fill-rule="evenodd">
  <rect stroke-width=".333" stroke-linejoin="round" stroke-linecap="round" stop-color="#000000" opacity=".988" fill="#1d2a41" height="154" width="224" y="2" x="-7.3242e-6"></rect>
  <path stop-color="#000000" fill="#31476d" d="m20 56h184c5.54 0 10 4.46 10 10v68c0 5.54-4.46 10-10 10h-184c-5.54 0-10-4.46-10-10v-68c0-5.54 4.46-10 10-10z"></path>
  <rect stop-color="#000000" fill="#fff" ry="0" rx="0" height="30" width="16" y="104" x="187.97"></rect>
  <rect stop-color="#000000" fill="#fff" ry="0" rx="0" height="30" width="16" y="66" x="187.97"></rect>
 </g>
 <g aria-label="深さ" fill="#fff">
  <path d="m32.429 123.41v4.6562h-1.6641v-4.6094q-0.96094 1.5156-2.1875 2.5156-0.82812 0.67969-2.0078 1.2812l-1.0859-1.3828q1.5-0.58594 2.5859-1.4531 1.0938-0.88281 1.9688-2.2422h-3.7188v-1.4375h4.4453v-1.4922h1.6641v1.4922h4.625v1.4375h-3.8672q1.6641 2.0703 4.3281 3.1875l-1.1484 1.5312q-2.5781-1.5234-3.9375-3.4844zm1.1016-8.4375v2.5312q0 0.33594 0.10938 0.4375 0.09375 0.0859 0.50781 0.0859 0.59375 0 0.69531-0.0781 0.24219-0.1875 0.27344-1.2344l1.5156 0.41406q-0.05469 1.4609-0.48438 1.8672-0.42188 0.40625-2.0625 0.40625-1.0859 0-1.5547-0.21875-0.58594-0.26563-0.58594-0.94531v-3.2656h-3.8828v2.0469h-1.5859v-3.4375h10.383v2.7812h-1.6016v-1.3906zm-8.6562 1.5859q-1.0234-1.3828-2.3516-2.5078l1.1484-1.1094q1.3281 0.97656 2.4688 2.3828zm-0.60938 4.0156q-1.125-1.4375-2.3984-2.5078l1.1875-1.1719q1.3281 0.97656 2.4766 2.4297zm-2.0625 6.2734q1.3203-2.0312 2.3828-5.2344l1.4062 0.91406q-0.8125 2.8984-2.3516 5.5234zm4.1094-8.2734q1.0859-0.32031 1.7344-0.80468 1.1719-0.86719 1.4688-2.6172l1.4844 0.39844q-0.38281 1.3984-0.90625 2.2031-0.875 1.3281-2.8203 2.0703z"></path>
  <path d="m38.632 115.95h6.2734q-0.50781-1.3359-0.92969-2.6562l1.7109-0.10937q0.40625 1.3906 0.97656 2.7656h5.7734v1.6016h-5.0391q1.0078 2.0859 2.5234 4.3516l-1.6406 0.78125q-1.6719-2.5312-2.7422-5.1328h-6.9062zm11.359 11.523q-1.5547 0.0859-2.75 0.0859-3.25 0-4.7891-0.50781-2.7812-0.90625-2.7812-3.4219 0-1.5469 0.96094-2.4922l1.4688 0.79688q-0.64062 0.63281-0.64062 1.6562 0 1.3047 1.4062 1.8281 1.2422 0.46094 4.1562 0.46094 1.2344 0 2.7812-0.11719z"></path>
 </g>
</svg>
