<svg xmlns="http://www.w3.org/2000/svg" viewBox="0 0 100 100" version="1.1" height="100" width="100">
 <rect stroke-width=".333" stroke-linejoin="round" stroke-linecap="round" stop-color="#000000" opacity=".988" fill="none" height="100" width="100" y="-1.4211e-14" x="-3.5527e-14"></rect>
 <g aria-label="微弱" fill="#f00">
  <path d="m46.757 54.715q1.7871 3.3691 4.1602 5.9326l-1.5967 3.0908q-1.8896-2.3877-3.8965-6.0498-2.0654 4.043-4.9365 6.3867l-1.8604-2.5488q2.0068-1.4941 3.4131-3.5303 0.95215-1.377 1.9336-3.3838-1.333-3.2666-1.8896-5.3467-0.32227 0.83496-1.0254 2.2119l-0.5127-0.9668h-2.0947v6.3574q1.5234-0.74707 3.208-1.7725l0.5127 2.373q-2.8857 1.9629-6.8994 3.8086l-1.084-2.5195q0.4248-0.16113 1.6846-0.68848v-7.5586h-2.0947q-0.0293 4.4531-0.54199 7.0459-0.67383 3.2812-2.7686 5.4932l-2.0068-2.0361q1.6992-1.7871 2.1973-4.541 0.36621-1.9922 0.41016-5.4785v-0.4834h-2.4316v-2.5195h11.118q1.6699-4.1455 2.5635-12.773l2.7686 0.35156q-0.36621 2.7246-0.70312 4.834h6.1084v2.8857h-1.4209l-0.01465 0.19043q-0.46875 6.416-2.2998 11.235zm-1.5234-3.3252q0.89355-3.2666 1.1865-8.1006h-2.5781q-0.11719 0.57129-0.38086 1.626 0.52734 3.252 1.7725 6.4746zm-17.681-3.75v16.172h-2.8564v-12.422q-1.0547 1.2451-2.1533 2.4023l-1.2891-3.0615q3.7939-3.6328 6.3574-8.584l1.9336 1.4648v-6.3867h2.4316v5.6982h1.626v-7.6172h2.4902v7.6172h1.6406v-5.6982h2.4609v8.1885h-10.649v-0.9082q-0.67383 1.1572-1.9922 3.1348zm-6.3135-5.8301q3.5742-2.7686 5.5518-6.5332l2.4609 1.5234q-2.6807 4.7021-6.3574 7.5293z"></path>
  <path d="m63.804 36.595v7.5879h-8.2471q-0.01465 0.20508-0.04395 0.52734-0.07324 0.98144-0.24902 2.3584h9.1699v1.5967q-0.0293 9.0674-0.65918 12.407-0.26367 1.3623-1.0693 1.9922-0.82031 0.64453-2.5928 0.64453-2.0654 0-3.75-0.26367l-0.5127-3.0029q2.6807 0.4834 3.3545 0.4834 1.1719 0 1.4502-0.71777 0.5127-1.2891 0.65918-10.649h-9.5654q0.70313-3.5156 0.89356-7.8369h8.042v-2.4902h-9.1553v-2.6367zm13.96 0v7.5879h-8.5107q-0.13184 1.7139-0.30762 2.8857h9.8145q-0.0293 10.005-0.74707 13.711-0.24902 1.3477-0.89356 1.9922-0.76172 0.79102-2.6221 0.79102-2.2412 0-4.0869-0.17578l-0.68848-2.9443q2.3438 0.27832 3.7354 0.27832 1.1865 0 1.4502-0.65918 0.52734-1.3037 0.70312-10.063l0.01465-0.43945h-10.195q0.73242-3.3984 0.9082-7.8369h8.3057v-2.4902h-9.3896v-2.6367zm-21.27 18.838q-2.0361-2.0361-4.0283-3.3545l2.2559-1.9189q2.5195 1.582 4.1455 3.1494zm13.682-0.17578q-1.5381-1.7578-3.999-3.3984l2.168-1.7578q2.8418 1.7725 4.1895 3.1494zm-19.175 3.3545q4.3213-1.5674 8.9648-4.1309l0.62988 2.5195q-3.5742 2.2559-8.2178 4.4092zm14.165-0.5127q4.6729-1.6553 9.1992-4.4092l0.68848 2.5928q-4.292 2.7539-8.54 4.585z"></path>
 </g>
</svg>
