<svg version="1.1" xmlns="http://www.w3.org/2000/svg" xmlns:xlink="http://www.w3.org/1999/xlink" width="840.0244" height="501.32996" viewBox="0,0,840.0244,501.32996"><g transform="translate(178.38978,66.93262)"><g data-paper-data="{&quot;isPaintingLayer&quot;:true}" fill="#3b4238" fill-rule="evenodd" stroke-opacity="0.75" stroke="#dce3ff" stroke-width="1" stroke-linecap="round" stroke-linejoin="round" stroke-miterlimit="10" stroke-dasharray="" stroke-dashoffset="0" style="mix-blend-mode: normal"><g><g><path d="M-90.82527,393.76895l-0.23299,1.24995l0.74297,0.96996l1.25395,-0.88996l0.29799,-0.91996l1.18595,0.56998l0.41298,-0.22999l1.31895,1.05996l0.83497,-1.06996l1.10896,0.55998l0.123,1.18995l2.04992,0.32999l1.41094,0.78997l0.54098,1.30995l1.61494,0.1l-0.23499,1.75993l-0.81997,0.54998l-0.123,1.16995l0.29899,0.63997l-1.93692,0.93996l-1.12795,2.02992l0.43898,1.36995l-0.27199,1.60994l-0.97996,-0.72997l-0.99296,0.01l0.32299,1.15995l-0.36599,1.48994l-1.80293,-0.01l-1.77693,-1.23995l-1.14995,-0.47998l-2.75989,0.25999l-1.59394,-0.60998l-1.62493,-0.12l-1.86093,-0.36999l-1.42794,-0.99996l-0.74197,-0.81997l-1.01296,-0.36999l-0.40198,2.32991l-1.58294,-0.1l-0.67997,-0.46998l-1.61594,0.03l-1.85793,-2.75989l0.89496,-0.60998l1.12495,0.68997l0.51798,-0.30999l-0.70397,-1.27995l0.31399,-0.94996l2.5459,0.78997l-0.57998,-1.07996l1.11696,0.1l1.06796,-0.90996l0.36799,0.76997l0.93796,0.48998l0.18199,0.86997l0.85297,-0.09l0.20899,-1.76993l-0.54998,-0.46998l0.88496,-1.14995l-0.69597,-0.66997l-0.34999,-0.99996l0.99496,-0.93996l-0.69697,-1.29995l0.65397,-0.28999l-0.13499,-1.07996l0.99396,-1.43994l1.15795,-0.34999l-0.029,-0.98996l-0.83597,-0.40998l0.61798,-0.71997l1.17295,-0.05l1.77693,1.63993l0.13799,0.73997l1.07296,0.47998"/><path d="M-91.71523,433.56736l-0.76897,0.32999l-3.49086,-0.28999l-0.73597,-0.49998l0.115,-1.06996l2.24491,-0.93996l1.04396,-0.03l1.99292,0.57998l0.28299,0.85997l-0.68397,1.05996"/><path d="M-68.99614,412.86819l-0.33899,0.82997l-1.30595,0.95996l-1.24695,-0.28999l-1.01596,-1.87992l-0.016,-0.65997l1.32295,-0.71997l1.19995,0.74997l0.80397,-0.32999l0.59698,1.33995"/><path d="M-71.77603,402.4686l0.022,0.63997l-0.90096,0.36999l-1.03096,-0.82997l-2.03292,-0.17999l0.61898,-1.14995l-0.44498,-0.89996l0.96496,-0.37998l1.79193,0.87996l-0.26399,0.64997l1.27595,0.89996"/><path d="M-62.75639,404.46852l-1.23295,0.02l-0.42298,-1.29995l0.45898,-1.17995l0.62797,-0.48998l0.60498,0.39998l0.90996,1.75993l-0.94596,0.78997"/><path d="M-98.89494,399.06874l1.26095,0.98996l-0.19199,0.89996l-1.78293,-1.46994l0.71397,-0.41998"/><path d="M-78.11577,413.16817l1.16595,-0.88996l0.37598,0.59998l-1.26895,1.26995l-0.27299,-0.97996"/><path d="M-99.50492,397.16881l-0.65397,1.64993l-0.70497,-0.59998l0.29599,-0.79997l1.06296,-0.24999"/><path d="M-79.9357,415.0681l1.37095,-0.42998l0.13899,1.03996l-1.02496,0.08l-0.48498,-0.68997"/></g><g><path d="M-172.21201,386.76923l1.46794,0.15999l2.6009,1.17995l-0.48198,1.09996l-1.35595,0.78997l-0.89396,0.95996l-2.88488,-0.56998l-0.18799,0.37998l-1.38994,0.12l-1.93192,-0.73997l-0.61998,0.04l0.17799,-1.54994l1.19395,-0.43998l0.75797,-1.15995l1.20995,0.56998l1.43294,-0.33999l0.90496,-0.49998"/></g><g><g><path d="M-38.20737,372.4698l-0.116,1.20995l0.35799,0.72997l-0.60898,1.78993l-1.29195,1.29995l-0.93396,0.40998l-0.76797,0.98996l-0.12799,0.93996l0.55098,0.77997l-1.31695,1.77993l-1.17595,0.69997l-0.23399,1.96992l-2.11692,1.45994l-0.92596,1.58994l0.054,1.27995l0.59398,0.49998l-0.75097,1.76993l0.80997,1.96992l-0.50098,1.50994l-0.33299,4.29983l-1.36895,1.57994l-1.50894,-0.47998l-0.58598,-0.63997l-1.22895,0.06l-0.19699,1.26995l-0.84697,0.87996l-1.11996,0.50998l-1.13995,0.07l-2.02992,-1.46994l-0.53198,-0.67997l-1.85493,-0.73997l-1.41394,-1.19995l0.48398,-0.78997l1.07096,-0.38998l1.02096,-0.82997l0.38598,-0.75997l-0.13499,-0.92996l0.33499,-1.41994l-0.88796,-0.18999l-0.15399,-0.66997l-1.21195,-1.41994l-0.59698,0.32999l-1.16195,-0.20999l-1.51894,1.11996l-1.78393,-0.60998l0.22999,-1.05996l0.83497,-1.17995l1.40794,-0.53998l1.59594,1.08996l0.78297,-0.20999l-0.17599,-1.80993l0.77697,-0.41998l-0.119,-0.88996l1.03596,-0.14999l1.05696,1.33995l-0.97996,1.74993l0.53498,0.56998l1.28395,-1.30995l2.6139,0.62997l1.39594,-0.97996l1.29395,-0.03l1.72593,0.27999l0.31799,-0.41998l-0.52498,-1.02996l0.35499,-1.47994l0.50198,-0.90996l-0.01,-0.82997l0.95796,-0.1l1.96192,-2.29991l0.89496,0.57998l0.75497,1.06996l0.49398,-1.75993l1.39194,-3.02988l-1.12695,-1.15995l1.49594,-1.22995l0.42898,-1.16995l0.97496,-1.53994l0.058,-1.74993l0.43098,-0.16999l0.55398,0.48998l1.60894,0.28999"/><path d="M-123.16397,247.07483l-0.98496,-0.09l-1.44794,0.74997l-0.39898,-1.03996l1.62993,-0.86997l1.03696,0.25999l0.16499,0.98996"/><path d="M-56.57664,402.86859l-1.28395,0.12l-0.093,-0.53998l1.58794,-0.08l-0.21099,0.49998"/></g><g><path d="M56.18885,340.77107l0.29299,1.17995l1.34795,0.61998l0.77897,1.84993l-0.1,0.77997l0.79097,1.80993l1.92192,1.38994l-0.079,2.11992l0.58398,0.81997l0.98896,0.22999l0.50698,0.59998l1.19695,0.11l0.52098,-0.36999l1.94692,1.00996l0.17699,0.84997l1.17895,1.02996l2.33691,0.67997l0.72997,-0.11l0.75497,0.68997l0.22799,0.90996l1.11796,1.24995l-0.46498,1.04996l-1.71793,-0.44998l-0.91996,0.25999l-1.63193,-0.26999l-1.43994,0.09l-0.90796,0.41998l-1.08096,-0.38998l-2.62889,1.00996l-2.4129,0.09l-0.48598,0.61998l-0.85197,0.16999l-1.99092,-1.29995l-1.77793,-0.66997l-1.03596,-0.68997l-0.72297,-1.93992l0.30999,-0.86997l1.12296,1.13995l1.61794,-0.07l-0.22999,-1.51994l-1.25495,-1.87992l-0.97496,-0.16999l-0.34099,-1.15995l1.03296,-0.50998l1.42894,-1.56994l-0.35799,-2.5899l1.93192,-0.94996l-1.76393,-3.31987l-0.60998,-0.55998l-0.107,-1.26995l-0.90596,-1.01996l0.81397,-0.53998l-0.37299,-0.93996l0.41698,0.70997l0.103,0.69997l0.98896,0.93996"/><path d="M49.19913,346.17086l0.83097,2.08992l0.084,1.21995l-0.51298,0.77997l-1.07996,0.29999l-2.78989,-0.85997l-0.13799,-0.31999l-0.41398,-0.24999l-0.24799,-0.44998l-0.32699,-0.15999l-0.44098,-0.76997l-0.27999,-0.13999l-0.078,-0.35999l-0.28999,-0.34999l0.45098,-0.29999l-0.32199,-1.84993l0.66397,-0.95996l1.56194,0.41998l1.00896,0.76997l2.31991,1.18995"/><path d="M0.58107,367.47l-1.78393,1.35995h-1.52694l-1.75193,-0.56998l-0.45798,-1.39994l0.20899,-1.00996l0.96196,-0.88996l1.43794,-0.40998l1.38894,-0.04l1.57294,1.16995l-0.05,1.78993"/><path d="M43.84934,347.77079l0.19299,0.05l0.43398,0.56998l0.092,0.23999l0.23499,0.12l0.054,0.26999l0.66997,0.49998l-0.101,0.73997l-1.26495,0.51998l-1.46394,-0.43998l-0.89296,-1.12995l-0.28899,-1.99992l0.46998,-1.06996l0.77497,1.34995l1.01296,0.01l0.076,0.26999"/><path d="M52.70899,337.6712l-1.22295,-0.74997l-0.37399,-0.84997l0.85797,-0.31999l1.22095,0.67997l0.38298,0.80997l-0.86497,0.42998"/><path d="M53.00897,360.57028l-0.78697,-0.22999l-0.37299,-0.71997l0.32199,-1.08996l1.01496,0.45998l0.62897,0.89996l-0.80597,0.67997"/><path d="M-3.63876,355.77047l1.12395,-0.53998l0.60798,0.81997l0.23899,1.01996l-1.97092,-1.29995"/></g><g><path d="M653.15494,232.47541l1.34995,0.56998l0.80997,1.59994l-0.58998,1.53994v0.95996l-1.02996,1.38994l-2.35991,0.54998l-0.87996,-0.29999l-1.11996,-0.84997l0.37998,-0.90996v-1.86993l0.80997,-2.4699l1.52994,-0.24999l1.09996,0.04"/><path d="M658.55472,223.17578l1.29995,-0.08l1.27995,0.57998l-0.89996,2.13991l-1.77993,0.38998l-1.09996,-0.57998l-0.91996,-1.64993l0.08,-1.39994l2.03992,0.59998"/></g><g><path d="M206.61282,175.17771l1.16195,1.91992l0.67397,-0.20999l0.76997,1.33995l1.14995,1.34995l-0.97396,0.78997l-0.87596,1.71993l-0.14399,1.84993l0.61898,0.52998l0.33899,0.99996h-1.36895l-0.63097,-0.68997l-1.29195,-0.56998l-0.44798,-1.05996l-0.79297,-0.84997l-0.47898,-1.38994l-1.72593,-1.26995l-2.07792,-0.32999l-0.80697,-0.49998l-0.79097,-1.57994l0.77997,-0.79997l1.01296,0.01l1.28695,-0.42998l1.86893,-1.20995l1.72293,-0.23999l1.02196,0.61998"/><path d="M351.60701,8.88437l-0.23899,0.68997l-1.11296,-0.76997l-0.53898,-1.20995l0.52098,-0.83997l1.36995,2.12991"/></g><g><path d="M310.63866,171.07787l1.74393,1.85993l2.71089,2.00992l0.99796,1.30995l-0.57598,0.22999l-0.25499,1.36995l1.50894,2.35991l1.77093,1.12995l0.97896,0.97996l0.80697,2.21991l-0.22599,0.79997l-2.21091,-1.06996l-2.78189,-2.97988l-0.24799,-0.53998l-0.62897,-0.93996l-2.27991,1.30995l-0.51298,0.75997l1.27995,1.28995l-1.82293,0.12999l-0.19399,1.10996l-1.10996,-0.20999l-0.57398,1.25995l0.54798,0.58998l0.023,1.24995l-0.67597,0.23999l-1.14495,1.07996l-0.84697,1.88992l-0.21699,2.5099l-2.16691,2.36991l0.48698,1.32995l0.75597,0.61998l-0.03,1.64993l1.26995,0.13999l0.45098,-1.59994l2.5939,-0.67997l0.034,1.05996l0.98396,0.64997l-0.13699,1.21995l-1.78793,1.11996l-1.89892,2.26991l-0.79897,0.25999l-0.95596,-0.26999l-1.95092,1.69993l-0.86597,0.16999l-1.28695,2.10992l-0.87197,0.92996l-1.21695,0.37998l-0.64897,-0.27999l-2.02992,0.94996l-0.62697,0.72997l-2.3809,-1.04996l0.23999,-2.01992l0.54998,-1.33995l0.025,-1.04996l-0.45198,-1.42994l-0.66997,0.16999l-0.55198,-1.10996l2.10992,-0.76997l-0.31399,-0.56998l-0.17499,-0.17999l-0.22799,-0.12l-0.15199,-0.21999l-0.115,0.06l-0.51198,-0.06l-0.98896,-1.79993l-0.055,-1.17995l-0.71597,-1.10996l1.23895,-2.00992l0.86997,0.35999l0.75197,-0.89996l1.59394,-0.55998l-1.39694,-0.63997l0.22099,-1.12995l0.55098,-0.43998l0.81197,0.35999l0.074,-1.40994l0.72297,0.07l1.57194,-1.99992l1.29795,-0.16999l0.38698,0.34999l0.93596,-1.18995l0.79097,-0.14999l0.97596,-0.71997l0.95896,-2.21991l-1.39694,-1.42994l-0.33499,-0.91996l0.44698,-0.97996l-0.58598,-1.17995l-0.34099,-1.39994l-2.14491,-4.35983l-0.30299,-1.04996l0.098,-3.29987l1.05096,0.09l1.12995,1.96992l0.56198,0.02l1.08396,0.45998l1.17495,-0.48998l1.14695,0.59998l1.00796,0.13999l0.23999,-0.68997l1.93392,-1.29995l0.32799,-0.76997l1.27495,-0.87996l1.43294,-0.03l0.35099,1.49994l0.21799,0.40998l-0.34299,0.51998l-0.92496,-0.54998l-0.44298,1.01996"/><path d="M264.90049,197.07683l-0.88096,0.72997l-0.075,0.88996l0.35799,2.05992l-1.85093,0.27999l0.34999,-1.43994l-0.66397,-0.44998l-0.23499,-1.24995l0.55398,-0.88996l0.34299,-2.25991l0.63897,-0.64997l0.25299,-1.11996l0.94296,0.46998l0.55098,0.76997l0.17699,1.46994l-0.46198,1.38994"/><path d="M260.14068,192.37702l-0.16099,-0.91996l-0.91396,0.28999l0.32799,1.10996l-1.08696,0.84997l-1.18995,-0.81997l-0.086,-0.71997l0.55898,-0.94996l0.60298,0.47998l0.78397,-1.57994l0.1,0.48998l1.52794,0.33999l0.61798,0.48998l-1.08196,0.93996"/><path d="M324.91808,177.27762l0.41998,-1.00996l1.42994,-0.95996l0.68997,2.26991l-1.39594,1.02996l-1.02896,0.02l-0.115,-1.34995"/><path d="M322.83817,180.2775l-0.25199,-1.17995l1.94592,-1.61994l0.43498,1.12995l0.42798,0.53998l-1.48794,1.31995l-1.06896,-0.18999"/><path d="M242.62138,178.97755l-0.94996,-1.55994l0.98096,-1.80993l-0.051,1.14995l0.34199,0.96996l1.02896,0.47998l-1.35095,0.76997"/><path d="M313.31855,182.07743l-1.38694,-0.32999l0.35299,-0.76997l1.86093,-1.01996l0.65997,0.83997l0.15699,0.67997l-0.36399,0.28999l-1.27995,0.30999"/><path d="M254.74089,196.27686l0.27899,-1.08996l1.04096,-0.55998l1.24595,1.90992l-1.43194,0.57998l-0.28299,-0.65997l-0.85097,-0.17999"/><path d="M318.91832,199.07675l-0.015,0.26999l-2.16891,1.72993l0.116,-0.94996l2.06792,-1.04996"/><path d="M272.69018,193.87696l0.55398,-0.66997l0.24099,0.72997l-0.82697,1.66993l-0.65197,-0.09l0.68397,-1.63993"/><path d="M321.31823,190.67708l1.10896,-1.64993l0.36899,0.47998l-0.16499,1.09996l-0.61898,0.70997l-0.69397,-0.63997"/><path d="M326.948,174.37774l1.01396,-0.84997l0.33899,0.32999l-0.53098,1.76993l-0.51198,-0.14999l-0.30999,-1.09996"/><path d="M324.70809,182.27742l-1.45894,0.92996l-0.015,-1.63993l1.47394,0.70997"/><path d="M294.72929,201.07667l-0.79897,0.23999l-0.97796,-0.14999l0.43698,-0.93996l0.58498,0.06l0.46598,0.28999l0.28899,0.49998"/><path d="M256.87081,197.27682l0.55098,0.95996l-0.82297,0.32999l-0.38398,-0.77997l0.65597,-0.50998"/></g><g><path d="M310.34867,168.17799l-1.27495,0.87996l-0.32799,0.76997l-1.93392,1.29995l-0.23999,0.68997l-1.00796,-0.13999l-1.14695,-0.59998l-1.17495,0.48998l-1.08396,-0.45998l3.17887,-2.24991l1.33695,0.84997l1.46594,-0.60998l-0.079,-1.08996l2.04092,-1.96992l0.98296,-0.40998l0.43798,-0.90996l0.93096,-0.12999l-0.46398,-1.66993l0.36399,-0.91996l1.17395,0.40998l1.11096,-1.14995l2.27091,0.67997l0.27499,-0.88996l1.38894,-0.57998l1.30095,-0.03l0.20799,-1.19995l0.58298,0.06l0.73797,-1.18995l0.73497,0.30999l2.6019,-1.78993l0.82497,-0.79997l0.74397,-1.75993l-0.041,-1.13995l-1.79793,-0.65997l-2.14391,-1.33995l-2.28491,-0.72997l-0.89196,0.91996l-1.68893,-0.60998l-0.043,-0.90996l-1.42094,-2.4099l-0.13099,-1.99992l1.19895,-0.73997l-0.19199,-1.30995l-1.47794,-1.35995l-0.026,-0.72997l0.61898,-1.38994l0.92996,-0.06l1.43094,0.56998l0.73897,-0.36999l2.34891,-0.06l1.38094,-0.57998l1.04296,0.09l1.30395,1.09996l3.37986,1.05996l0.24499,0.52998l-1.18495,0.69997l-0.75597,2.4099l0.124,0.93996l0.90096,0.41998l0.61298,1.36995l0.83897,-0.08l1.09896,0.47998l1.49394,-1.02996l0.94596,0.24999l2.29091,-1.11996l0.77697,-0.02l2.31591,-2.16991l2.04892,0.41998l-0.39498,-0.96996l-1.11396,-0.37998l-0.99096,-0.82997l1.98092,-2.63989l0.82497,0.02l1.76893,-0.63997l1.21895,-1.10996l0.44598,-0.82997l-0.52598,-1.57994l1.62993,-0.75997l1.02096,-0.19999l0.74797,-1.29995l1.57894,-0.98996l0.44398,-0.88996l2.15591,-2.24991l-0.05,-0.86997l2.17891,-3.89984l0.062,-1.25995l-0.89796,-0.87996l0.25299,-1.00996l1.07796,-0.84997l0.44998,1.01996l0.85297,0.84997l1.06596,0.52998l0.86097,0.86997l1.39094,0.06l0.1,1.66993l1.60294,2.09992l-0.28699,0.69997l0.36499,1.03996l-0.44798,0.38998l0.91096,1.19995l-0.37798,1.35995l-0.114,1.49994l0.57698,0.84997l-0.70097,0.36999l-0.28499,1.28995l-1.09596,0.51998l-0.67497,1.90992l-0.82697,0.47998l0.29099,0.73997l-1.41194,1.12995l-0.049,1.57994l-0.53698,0.77997l-0.90896,0.30999l-0.124,0.98996l-0.74197,0.06l-1.16695,2.33991l-0.60698,0.63997l-2.5629,0.63997l-3.08888,0.24999l-2.25991,-0.75997l-1.06596,0.14999l-0.31999,0.69997l0.76897,1.11996l0.16399,0.86997l-0.33399,0.85997l-2.79189,-0.55998l0.49998,1.11996l0.80297,0.63997l0.78997,1.65993l-0.65697,0.63997l0.17399,1.17995l-1.37195,0.07l-1.51994,0.46998l-1.99992,1.64993l-1.40494,-1.12995l-1.25495,-0.58998l-1.31195,0.47998l-0.96296,-0.45998l-0.57398,0.36999l0.83797,1.20995l0.89096,1.89992l-1.37494,-0.05l-1.35795,1.14995l-1.35695,-0.28999l-1.48894,0.39998l-0.56598,0.58998l0.95896,1.19995l-0.049,1.15995l-0.96096,0.89996l-2.34991,0.76997l-1.37694,-0.63997l-0.72097,1.30995l-0.35899,1.69993l0.14599,0.52998l-2.03792,0.35999l-0.76197,-0.89996l-1.99292,-0.38998l-1.13495,-0.74997l-1.58594,-0.03l-1.91392,1.01996l-0.72197,1.23995l-0.13099,0.21999l-0.35099,-1.49994l-1.43294,0.03"/><path d="M326.31803,101.98064h-1.09396l-0.77997,0.60998l-0.14499,1.45994l-1.62993,0.18999l-1.45594,0.66997l0.065,-0.86997l1.26395,-1.28995l0.55598,-1.29995l0.86897,-0.58998l0.99296,-1.42994l1.74193,-1.31995l0.83597,-1.58994l1.28295,-0.13999l1.22395,-0.48998l-1.95692,2.21991l-0.23799,1.48994l-0.74397,1.93992l-0.78797,0.43998"/><path d="M309.05872,139.27914l-2.4609,-0.34999l-2.5529,0.15999l-0.89996,-0.59998l-0.28799,-0.92996l0.57498,-1.46994l0.57398,-0.26999l1.59194,0.41998l1.84393,-0.05l1.31295,-0.51998l2.11192,1.68993l-0.036,1.56994l-1.77193,0.34999"/><path d="M322.98816,114.98012l0.17199,1.15995l-1.29995,0.18999l-1.74593,-0.80997l0.066,-1.35995l-1.01696,-0.61998l0.77397,-1.24995l1.79193,-0.87996l1.77293,1.11996l0.18199,1.19995l-0.69597,1.24995"/><path d="M330.48786,145.47889l-1.02996,-0.64997l-0.75697,0.67997l-1.02096,-0.53998l-0.27399,-1.05996l0.63997,-0.98996l1.93092,-0.67997l0.15199,0.98996l1.02496,1.43994l-0.66597,0.80997"/><path d="M252.121,153.77856l-0.68497,-0.27999l-2.65389,0.43998l0.84397,-1.85993l1.47194,-1.05996l0.87896,0.22999l0.81297,1.52994l-0.66897,0.99996"/><path d="M329.11792,140.17911l-0.31499,-1.02996l0.83297,-0.66997l1.10596,0.46998l-0.42598,1.67993l-1.19795,-0.44998"/><path d="M313.89853,146.97883l-0.45098,-1.07996l1.17395,-0.62997l0.78697,0.55998l-0.36799,0.91996l-1.14195,0.22999"/><path d="M320.03828,107.68041l-0.79597,-0.67997l1.14595,-0.61998l-0.34999,1.29995"/></g><g><path d="M421.61421,5.98448l1.27795,0.21999l2.02192,-0.33999l-0.073,0.73997l0.70997,1.54994l-1.06796,0.16999l-0.92296,0.93996l1.56494,0.85997l-0.52298,3.55986l0.43798,0.86997l1.03496,0.42998l0.48698,0.88996l1.18695,0.23999l1.16495,1.02996l0.53298,1.37994l1.78693,0.63997l0.49498,0.78997l-0.1,1.26995l-0.44498,1.17995l-0.62398,0.56998l-0.68497,1.92992l0.25099,0.68997l-1.37494,0.82997l-0.89396,1.54994l-0.13699,1.43994l-0.97196,1.50994l-0.57198,0.29999l-1.64093,-0.27999l-1.31395,0.83997l-1.63993,0.28999l-1.04096,-0.56998l-0.52798,-0.92996l-0.072,-1.58994l-0.32399,-0.89996l-1.82693,-1.35995l-0.47998,0.04l-1.24695,-1.60994l1.87193,-1.55994l0.12499,-1.63993l0.51898,-1.68993l-0.92796,-0.71997l-0.14599,-1.30995l-0.55498,-0.36999l-0.23699,-3.71985l-0.83997,-0.77997l0.48698,-1.46994l0.79497,-1.46994l0.12499,-0.99996l-0.48898,-0.41998l0.05,-1.33995l0.81397,-1.56994l0.97496,-0.32999l2.09192,0.57998l0.89296,-0.35999"/><path d="M399.3351,57.58242l-1.24995,1.22995l-1.41194,0.88996l-0.98696,0.20999l-1.43694,2.07992l-1.45494,1.68993l-1.22395,1.72993l-1.24995,0.36999l-1.66593,1.94992l-1.44294,0.87996l-2.4349,0.77997l-1.79393,-0.27999l-1.87292,-1.81993l-1.14295,-2.76989l0.35599,-2.00992l0.59398,-1.23995l2.93088,0.70997l1.83393,-0.61998l1.38494,0.18999l2.20691,-1.07996l0.81097,0.47998l1.37095,-0.49998l2.00092,-1.59994l0.60298,0.03l1.77393,-0.76997l0.55298,-0.76997l0.97796,-0.44998l1.72093,0.22999l0.24999,0.45998"/><path d="M372.0162,99.08075l1.46494,2.03992l-0.16499,0.80997l0.39398,1.88992l-1.52994,0.25999l-1.91192,-0.21999l-1.04996,-0.56998l-0.68697,-1.11996l-0.82397,-0.08l0.17399,-1.36995l1.23795,0.40998l0.37199,-1.37994l0.60598,-0.67997l1.07296,-0.24999l0.84597,0.25999"/></g><g><path d="M497.79116,-61.21283l0.57598,0.77997l1.32195,0.72997l0.33299,1.88992l-0.68797,0.83997l0.52798,0.87996l-1.00096,2.02992l-0.68697,0.08l-0.79497,0.79997l-2.09592,0.31999l-0.73297,1.32995l-3.49386,-0.93996l-1.91592,0.92996l-0.36999,1.20995l-1.34695,1.46994l-0.14499,0.99996l-0.76997,0.13999l-2.30091,3.70985l-2.5649,0.25999l-0.40298,0.72997l1.21295,1.34995l-0.71697,0.64997l-1.17595,0.13999l-0.70697,0.50998l-1.88792,0.27999l-1.36995,0.99996l-2.4469,-0.88996l-0.72997,2.27991l0.54498,1.03996l-1.10796,0.76997l-0.57198,1.17995l-0.94996,0.28999l-2.5909,-0.23999l0.98996,0.89996l0.62597,-0.06l2.01092,1.52994l0.87396,-0.31999l1.88692,1.25995l-0.21799,1.02996l-1.35995,0.44998l-0.23299,0.98996l-3.25087,1.08996l-1.47494,-0.41998l0.111,2.5899l-0.56498,1.65993l-1.82493,-0.97996l-1.53294,-0.07l-1.73793,-0.97996l-1.37594,0.78997l1.76893,1.20995l1.45894,1.80993l0.24599,1.21995l0.65797,0.43998l-0.14899,1.64993l-1.48694,-0.99996l-0.16199,-1.67993l-1.19895,0.42998l-2.22291,-0.48998l-1.01996,-0.86997l-2.4469,-1.16995l0.52998,-0.86997l-0.73297,-3.22987l-0.74597,-0.11l-0.80897,0.99996l-1.07396,-0.14999l0.13199,-1.15995l0.83397,-0.69997l0.004,-0.88996l0.72997,-0.11l1.51194,-1.27995l-1.49594,-0.19999l-0.67097,0.59998l-0.72597,-1.81993l-1.32395,-0.02l0.11,1.45994l-0.85197,1.69993l-0.37798,-1.39994l-2.00592,-0.61998l-1.65093,0.40998l-1.06996,-1.03996l-0.88696,0.67997l-0.82397,-0.24999l-0.41898,-1.73993l-1.02596,-0.42998l-1.07996,0.70997l-0.19499,-1.02996l-0.69997,-0.19999l-0.15899,-1.10996l2.4239,0.14999l0.19599,-0.74997l1.06896,-0.73997l0.72797,0.74997l1.34795,0.05l0.27099,0.69997l0.98996,0.37998l0.29499,-1.52994l1.23395,-0.83997l1.61294,0.72997l1.17395,0.19999l0.95296,-0.22999l0.91296,0.68997l0.46098,-1.69993l1.81993,-0.19999l-0.31299,-0.74997l-3.02788,0.27999l-0.30799,1.07996l-0.89996,-0.25999l-1.15395,-1.13995l-0.39898,0.30999l-2.29891,-2.30991l1.57294,-0.85997l0.66497,0.20999l1.05696,-0.52998l2.20691,-1.52994l2.5919,-0.1l1.15195,-0.30999l0.84797,-0.64997l-0.22799,-0.73997l0.53498,-0.62997l0.98496,-0.24999l0.27199,-0.88996l0.99596,-1.20995l0.63697,-0.09l0.70197,0.97996l1.40294,0.68997l2.11592,-2.16991l0.81897,0.62997l0.39298,1.42994l0.57798,-0.47998l0.085,-1.53994l-0.69897,-0.78997l2.92688,-0.90996l0.74497,0.77997l1.37894,-0.09l0.64397,-3.29987l1.16995,-0.04l-0.022,1.08996l1.05796,0.20999l0.74497,-0.71997l1.08896,0.39998l-0.15599,2.4099l0.45398,-0.12l0.78697,-1.84993l1.02296,-0.51998l-0.69397,-0.82997l0.80097,-1.71993l-0.25599,-1.02996l0.49998,-1.09996l1.42494,-0.57998l0.62597,-1.18995l1.19295,0.55998l2.76989,-1.42994l0.67997,0.12999l0.68197,-0.90996l2.03892,-0.28999l0.59898,1.10996l-0.65297,0.23999l-1.00596,1.61994l0.14899,1.78993l-0.99796,-0.01l0.05,0.78997l-0.73597,1.70993l1.23495,-0.16999l0.107,-1.87992l1.65893,-0.83997l-0.44398,-0.82997l0.97896,-0.33999l0.41498,1.57994l-0.86897,0.66997l-0.017,1.29995l0.87996,0.41998l1.06296,-0.24999l0.33499,-0.76997l1.58594,-0.96996l-1.06196,-1.88992l0.97696,-1.22995l0.25999,1.48994l1.27895,-1.29995l-0.17399,-1.15995l-1.51194,-1.52994l-0.1,-0.82997l-0.94196,-0.96996l1.11496,-0.30999l1.95992,-3.01988l1.31195,-0.38998l0.36299,2.24991l-0.34099,0.83997l0.79997,2.12991"/><path d="M449.2931,-25.91424l-0.13099,1.00996l1.50394,0.97996l1.83893,0.40998l1.00996,-0.81997l-0.18599,-1.50994l0.89996,0.18999l0.87496,0.75997l0.35099,1.44994l-2.4249,-0.22999l-0.017,1.22995l-0.82897,0.53998l0.37299,1.08996l2.12791,-0.86997l0.37598,0.60998l0.028,1.71993l0.74697,-0.02l0.36599,-0.81997l0.82897,1.58994l1.62593,-0.76997l1.06496,1.02996l2.35891,-0.86997l1.07196,1.50994l-1.02696,1.76993l-0.13599,0.96996l-2.4639,0.61998l0.52698,-1.84993l-0.028,-1.07996l-1.67293,1.13995l-1.23395,-0.43998l-0.67497,0.79997l0.33599,0.88996l-0.45698,1.45994l-1.47594,-0.81997l-0.74797,-0.93996l0.38898,-0.54998l-0.37199,-0.85997l-0.26599,-1.81993l-1.81293,0.75997l-1.17495,1.23995l-0.78097,-2.4399l-0.54398,-0.20999l-0.017,-2.4999l0.43698,-0.48998l-1.00296,-0.85997l-1.07596,0.14999l-0.36899,-1.08996l-0.71397,-0.22999l-0.31699,-1.91992l-0.69097,-0.50998l-0.25299,-1.06996h1.43194l0.59498,-1.01996l1.34695,-0.51998l0.28299,0.98996l-0.70597,1.02996l0.80897,1.18995"/><path d="M530.95983,-46.21343l-0.70997,0.37998l-0.52998,1.22995l-1.47994,0.68997l-0.33399,1.42994l-0.68597,0.66997l-1.48894,2.86989l-0.48198,0.46998l-1.89792,0.91996l-1.02496,0.14999l-0.60098,-0.40998l-0.76297,-1.60994l-1.03796,0.18999l-0.44898,-0.67997l-0.20699,-1.73993l0.99196,-1.35995l2.62989,-0.50998l1.81693,-1.42994l0.67697,-0.19999l1.43194,-1.49994l0.54398,-0.89996l0.85997,-0.49998l0.59998,-0.85997l1.03996,-0.31999l1.46994,1.17995l0.13999,0.73997l-0.50998,1.09996"/><path d="M451.54301,-9.81489l1.19995,-0.95996l0.65397,1.02996l1.13895,-0.68997l0.40498,1.18995l-0.035,0.97996l-1.21295,1.37994l-0.39498,-1.01996l-2.75789,-1.25995l-1.41994,0.26999l-0.59798,-1.28995l0.83697,-2.34991l1.20195,1.18995l0.98196,1.52994"/><path d="M444.50329,-11.11483l0.47098,0.59998l-0.52398,0.77997l0.068,1.01996l-1.78193,0.84997l-0.37399,-1.05996l0.52598,-1.44994l0.13099,-1.27995l1.56294,-2.31991l0.63697,-0.11l-0.27399,0.74997l0.22699,1.53994l-0.66897,0.67997"/><path d="M450.03307,-38.61373l-1.32695,0.32999l-2.89688,-1.71993l0.59198,-0.94996l2.81089,0.83997l0.82097,1.49994"/></g></g></g></g></g></svg>