<svg version="1.1" xmlns="http://www.w3.org/2000/svg" xmlns:xlink="http://www.w3.org/1999/xlink" width="85.892" height="92.33095" viewBox="0,0,85.892,92.33095"><g transform="translate(-239.9599,-222.89558)"><g data-paper-data="{&quot;isPaintingLayer&quot;:true}" fill="none" fill-rule="evenodd" stroke="#fc3324" stroke-width="36" stroke-linecap="round" stroke-linejoin="round" stroke-miterlimit="4" stroke-dasharray="" stroke-dashoffset="0" style="mix-blend-mode: normal"><path d="M307.8519,242.58531l-4.9692,-1.68973l-2.57959,3.30947l-0.6599,-1.19981l-3.7194,3.7194l-2.17965,4.18933l-0.41994,3.65941l4.71925,2.11966l4.66926,1.2698l-0.53991,2.28963l-2.99952,2.27963l1.05983,2.04968l2.30963,-0.19997l1.42977,-1.2798l1.03983,0.72989l-5.49912,4.45928l-1.13982,1.73972l-4.79923,-0.08999l-1.09983,1.58974l-0.31994,2.84955l-2.54959,2.4896l-0.45992,2.73956l-3.29948,2.07967l-1.8497,0.28995l-4.43929,3.06951l-3.24948,1.05983l-3.62942,0.26995l-1.64973,1.66974l-2.46961,0.84986l-0.5999,1.21981l-4.58927,1.72972l0.33995,0.82986l-3.01952,2.02967l-0.56991,1.42978l-1.44977,-0.53992l-0.70988,1.62974"/></g></g></svg>