<svg version="1.1" xmlns="http://www.w3.org/2000/svg" xmlns:xlink="http://www.w3.org/1999/xlink" width="224.00001" height="282" viewBox="0,0,224.00001,282"><defs><linearGradient x1="128" y1="212" x2="128" y2="228" gradientUnits="userSpaceOnUse" id="color-1"><stop offset="0" stop-color="#000000" stop-opacity="0.1"/><stop offset="1" stop-color="#000000" stop-opacity="0"/></linearGradient></defs><g transform="translate(-128,-180)"><g data-paper-data="{&quot;isPaintingLayer&quot;:true}" stroke="none" stroke-miterlimit="10" stroke-dasharray="" stroke-dashoffset="0" style="mix-blend-mode: normal"><g fill-rule="evenodd"><path d="M138,210h204l10,2v250h-224v-250z" fill="#1d2a41" stroke-width="1" stroke-linecap="butt" stroke-linejoin="miter"/><path d="M128.00001,228v-16h224v16z" fill="url(#color-1)" stroke-width="12" stroke-linecap="round" stroke-linejoin="round" opacity="0.80769"/><path d="M138,180h204c5.54,0 10,4.46 10,10v22h-224v-22c0,-5.54 4.46,-10 10,-10z" fill="#31476d" stroke-width="1" stroke-linecap="butt" stroke-linejoin="miter"/></g><g fill-rule="evenodd" stroke-width="1" stroke-linecap="butt" stroke-linejoin="miter"><path d="M336,332c0.55228,0 1,0.44772 1,1c0,0.55228 -0.44772,1 -1,1h-192c-0.55228,0 -1,-0.44772 -1,-1c0,-0.55228 0.44772,-1 1,-1z" fill="#31476d"/><g fill="#7d97b4"><path d="M335,333c0,-0.55228 0.44772,-1 1,-1c0.55228,0 1,0.44772 1,1c0,0.55228 -0.44772,1 -1,1c-0.55228,0 -1,-0.44772 -1,-1z"/><path d="M143,333c0,-0.55228 0.44772,-1 1,-1c0.55228,0 1,0.44772 1,1c0,0.55228 -0.44772,1 -1,1c-0.55228,0 -1,-0.44772 -1,-1z"/><path d="M181.4,333c0,-0.55228 0.44772,-1 1,-1c0.55228,0 1,0.44772 1,1c0,0.55228 -0.44772,1 -1,1c-0.55228,0 -1,-0.44772 -1,-1z"/><path d="M219.8,333c0,-0.55228 0.44772,-1 1,-1c0.55228,0 1,0.44772 1,1c0,0.55228 -0.44772,1 -1,1c-0.55228,0 -1,-0.44772 -1,-1z"/><path d="M258.2,333c0,-0.55228 0.44772,-1 1,-1c0.55228,0 1,0.44772 1,1c0,0.55228 -0.44772,1 -1,1c-0.55228,0 -1,-0.44772 -1,-1z"/><path d="M296.6,333c0,-0.55228 0.44772,-1 1,-1c0.55228,0 1,0.44772 1,1c0,0.55228 -0.44772,1 -1,1c-0.55228,0 -1,-0.44772 -1,-1z"/></g></g><g fill="#ffffff" fill-rule="nonzero" stroke-width="1" stroke-linecap="butt"><path d="M145.96094,437.126v-0.58789h-4.27246v-0.97754h10.08984v0.97754h-4.36133v0.58789h5.66016v2.4541h-1.4834v-1.57227h-4.17676v2.65918h-1.45605v-2.65918h-4.10156v1.57227h-1.46973v-2.4541zM150.80078,446.82619c0.69727,0.26433 1.56771,0.47396 2.61133,0.62891l-0.7998,1.16211c-1.46289,-0.25065 -2.66374,-0.68132 -3.60254,-1.29199c-0.93425,-0.61068 -1.66113,-1.36947 -2.18066,-2.27637h-1.51074v2.10547c1.00716,-0.14128 1.94141,-0.29167 2.80273,-0.45118l0.0957,1.01856c-1.60417,0.38281 -3.43848,0.7155 -5.50293,0.99805l-0.40332,-1.20313c0.71549,-0.07747 1.2054,-0.13216 1.46973,-0.16406l0.08203,-0.0137v-2.29004h-1.49707c-0.0638,0.80208 -0.16862,1.44238 -0.31445,1.9209c-0.17318,0.57421 -0.45117,1.10969 -0.83398,1.60644l-1.21679,-1.00485c0.44661,-0.57878 0.72461,-1.25554 0.83398,-2.03027c0.05925,-0.41927 0.08887,-0.94108 0.08887,-1.56543v-2.89844h11.79883v0.90918h-10.3291v2.09863h10.91699v0.96387h-1.55176l0.86817,0.57422c-0.51497,0.42838 -1.12337,0.82942 -1.8252,1.20312zM149.73438,446.29982c0.65625,-0.44661 1.17806,-0.8636 1.56543,-1.25097h-2.9873c0.39193,0.5013 0.86589,0.91829 1.42188,1.25097zM142.46094,438.51369h2.91211v0.77246h-2.91211zM142.46094,439.7715h2.91211v0.78614h-2.91211zM148.00489,438.51369h3.00098v0.77246h-3.00098zM148.00489,439.7715h3.00098v0.78614h-3.00098zM143.20606,442.56057h8.51074v0.8955h-8.51074zM161.79981,436.51076h5.35938v1.14844h-3.03516v1.13477h2.84375v1.10742h-2.84375v2.03711h-5.50293v-2.03711h-2.24219v1.27148c0,2.06445 -0.10937,3.69596 -0.32812,4.89453c-0.16862,0.91146 -0.44206,1.74317 -0.82031,2.49512l-1.24414,-0.98438c0.34635,-0.75195 0.58333,-1.67024 0.71094,-2.75488c0.11393,-0.95247 0.1709,-2.16927 0.1709,-3.65039v-4.66211h5.40723v-1.23047h1.52441zM156.37891,437.6592v1.13477h2.24219v-1.13477zM160.07715,437.6592v1.13477h2.59082v-1.13477zM160.07715,439.90139v1.05957h2.59082v-1.05957zM161.66309,447.07912c-1.31706,0.68359 -2.98958,1.20313 -5.01758,1.5586l-0.71094,-1.25782c1.90495,-0.22786 3.39746,-0.57649 4.47754,-1.0459c-0.92513,-0.66992 -1.71582,-1.46517 -2.37207,-2.38574h-0.94336v-1.18945h8.00488l0.71777,0.60156c-0.67904,1.04362 -1.64746,2.02572 -2.90527,2.94629c1.08008,0.43294 2.55208,0.75195 4.41602,0.95703l-0.7998,1.29199c-1.78646,-0.24153 -3.40885,-0.73372 -4.86719,-1.47656zM159.63282,443.94826c0.55143,0.64714 1.22135,1.2168 2.00977,1.70899c0.88867,-0.57422 1.57454,-1.14388 2.05762,-1.70899zM172.81251,439.90139v-4.43653h1.37402v1.45606h2.24219v1.23047h-2.24219v1.53808c0.60612,-0.10026 1.34896,-0.23926 2.22852,-0.41699l0.06836,1.13477c-1.18945,0.33268 -2.60905,0.62662 -4.25879,0.88183l-0.40332,-1.25097c0.19141,-0.0228 0.43522,-0.0547 0.73145,-0.0957zM171.28809,440.03811c0.71094,1.02539 1.06641,2.16699 1.06641,3.4248c0,0.57422 -0.06152,1.01172 -0.18457,1.3125c-0.19141,0.45573 -0.63346,0.68359 -1.32617,0.68359c-0.26432,0 -0.50814,-0.0228 -0.73144,-0.0684l-0.32129,-1.34667c0.28711,0.05927 0.5332,0.0889 0.73828,0.0889c0.22786,0 0.36914,-0.05469 0.42383,-0.16406c0.04101,-0.08203 0.06152,-0.23015 0.06152,-0.44434c0,-1.28059 -0.32357,-2.39485 -0.9707,-3.34277c0.31445,-0.87044 0.60384,-1.96419 0.86816,-3.28125h-1.17578v11.68262h-1.34668v-12.94043h3.2334l0.73144,0.57422c-0.30534,1.49023 -0.66081,2.764 -1.06641,3.82129zM178.14454,436.94826c0.83854,-0.30534 1.56771,-0.64714 2.1875,-1.02539l0.86816,1.1211c-0.87956,0.42383 -1.89811,0.79297 -3.05566,1.10742v1.21679c0,0.20508 0.06608,0.32813 0.19824,0.36914c0.13216,0.041 0.41016,0.0615 0.83398,0.0615c0.3418,0 0.56738,-0.0228 0.67676,-0.0684c0.14583,-0.05467 0.24154,-0.21189 0.28711,-0.47168c0.0319,-0.20508 0.05697,-0.53776 0.0752,-0.99805l1.24414,0.37598c-0.00453,1.02083 -0.13897,1.67936 -0.40332,1.97558c-0.16406,0.18229 -0.41471,0.29623 -0.75195,0.3418c-0.37825,0.05013 -0.86588,0.0752 -1.46289,0.0752c-0.87956,0 -1.44922,-0.0957 -1.70899,-0.28711c-0.23242,-0.16862 -0.34863,-0.46257 -0.34863,-0.88184v-4.48437h1.36035zM175.36231,442.09572c0.17318,-0.41471 0.2985,-0.82943 0.37598,-1.24414l1.44238,0.16406c-0.09115,0.29623 -0.23926,0.65625 -0.44434,1.08008h3.80762v6.48731h-1.4834v-0.73145h-4.70996v0.73145h-1.46973v-6.48731zM174.35059,443.21682v1.16211h4.70996v-1.16211zM174.35059,445.44533v1.25781h4.70996v-1.25781zM190.14161,441.97268c-0.17318,1.39909 -0.40332,2.52474 -0.69043,3.37695c-0.42839,1.27604 -1.00944,2.34472 -1.74316,3.20605l-0.90918,-1.14843c0.91146,-1.05729 1.54264,-2.58854 1.89355,-4.59375c0.15495,-0.90691 0.2666,-1.97331 0.33496,-3.19922c0.05013,-0.98893 0.0752,-1.73633 0.0752,-2.24219h-1.16895v-1.34668h5.47559l0.69726,0.57422c-0.29622,1.34896 -0.59473,2.50423 -0.89551,3.46582h1.6543c-0.26888,2.02799 -0.78841,3.71419 -1.55859,5.05859c0.65625,0.75195 1.43555,1.39681 2.33789,1.93457l-0.89551,1.38086c-0.8431,-0.57422 -1.60189,-1.26693 -2.27637,-2.07812c-0.65169,0.82487 -1.50618,1.59277 -2.56348,2.30371l-0.99805,-1.17578c0.75651,-0.43295 1.35579,-0.86133 1.79785,-1.28516c0.278,-0.26432 0.57422,-0.60384 0.88867,-1.01855c-0.62891,-0.97526 -1.11426,-2.04622 -1.45605,-3.21289zM190.39454,438.00783c0.33268,2.38802 0.99577,4.35449 1.98926,5.89942c0.37826,-0.77474 0.66992,-1.62468 0.875,-2.54981h-1.89356c0.42839,-1.18945 0.80664,-2.5179 1.13477,-3.98535h-2.09863c0,0.20508 -0.00227,0.41699 -0.0068,0.63574zM184.08497,440.41408c-0.59245,-0.83398 -1.25098,-1.60188 -1.97559,-2.30371l0.84082,-0.97754c0.0957,0.09115 0.19141,0.18457 0.28711,0.28028l0.08887,0.0889c0.49674,-0.69727 0.95475,-1.46517 1.37402,-2.30371l1.23047,0.6836c-0.51042,0.82031 -1.11882,1.65201 -1.8252,2.49511c0.35547,0.44206 0.62435,0.78842 0.80664,1.03907c0.69727,-0.84766 1.34896,-1.72494 1.95508,-2.63184l1.08008,0.7793c-0.94792,1.30794 -2.01888,2.57487 -3.21289,3.80078c0.77474,-0.05013 1.44466,-0.10254 2.00977,-0.15723c-0.12305,-0.35547 -0.26888,-0.72005 -0.4375,-1.09375l1.10742,-0.4375c0.41016,0.84766 0.76107,1.84799 1.05274,3.00098l-1.14844,0.49902c-0.07747,-0.31901 -0.16178,-0.63574 -0.25293,-0.95019c-0.20964,0.03647 -0.54687,0.0866 -1.01172,0.15039l-0.17773,0.0273v6.17969h-1.37402v-6.02246l-0.16406,0.0205c-0.66992,0.06836 -1.33757,0.12305 -2.00293,0.16407l-0.28027,-1.27149l0.45801,-0.0137c0.20964,-0.00913 0.43066,-0.01823 0.66309,-0.0273c0.27799,-0.29623 0.58105,-0.63575 0.90918,-1.01856zM182.10938,446.98342c0.32812,-1.15299 0.5332,-2.347 0.61523,-3.58203l1.29199,0.16406c-0.06836,1.56315 -0.27344,2.89844 -0.61524,4.00586zM186.64845,446.12893c-0.0957,-0.86589 -0.25977,-1.69987 -0.49219,-2.50196l1.12109,-0.35547c0.24154,0.79753 0.42838,1.57227 0.56055,2.32422zM203.42384,446.5049c2.67513,-0.67448 4.0127,-2.20801 4.0127,-4.60058c0,-1.04362 -0.26888,-1.94141 -0.80664,-2.69336c-0.60156,-0.84766 -1.51758,-1.39226 -2.74805,-1.63379c-0.26888,2.11458 -0.63574,3.84635 -1.10059,5.19531c-0.31901,0.94336 -0.7155,1.83431 -1.18945,2.67285c-0.68359,1.19401 -1.46061,1.79102 -2.33105,1.79102c-0.64714,0 -1.22363,-0.29167 -1.72949,-0.875c-0.32357,-0.36914 -0.58561,-0.82259 -0.78613,-1.36035c-0.26432,-0.69727 -0.39648,-1.44694 -0.39648,-2.24903c0,-1.29883 0.35775,-2.49511 1.07324,-3.58886c0.72461,-1.11654 1.66569,-1.92774 2.82324,-2.4336c0.8431,-0.36914 1.76823,-0.55371 2.77539,-0.55371c1.57227,0 2.90755,0.42155 4.00586,1.26465c1.34896,1.03451 2.02344,2.49968 2.02344,4.39551c0,3.17643 -1.60645,5.19076 -4.81934,6.04297zM202.39844,437.52248c-0.80664,0.09115 -1.48112,0.30762 -2.02344,0.64941c-0.34635,0.22331 -0.69043,0.51954 -1.03223,0.88868c-0.94792,1.04817 -1.42187,2.26269 -1.42187,3.64355c0,1.00716 0.20052,1.79557 0.60156,2.36524c0.24609,0.35091 0.48991,0.52636 0.73144,0.52636c0.32813,0 0.69727,-0.3623 1.10742,-1.08691c1.0026,-1.76367 1.68164,-4.09245 2.03711,-6.98633zM218.22364,439.24514c-0.04557,0.83398 -0.16406,1.49251 -0.35547,1.97558c-0.20508,0.51042 -0.56966,0.96159 -1.09375,1.35352l-0.69727,-0.71777v1.333h-1.25781v-4.08789l-0.65625,-0.71777v0.7793h-1.09375v2.21484c0.29167,-0.11393 0.66536,-0.26432 1.12109,-0.45117l0.13672,1.29883c-0.34635,0.16406 -0.76562,0.35319 -1.25781,0.56738v4.5664c0,0.41016 -0.07292,0.70411 -0.21875,0.88184c-0.17318,0.20508 -0.50814,0.30762 -1.00488,0.30762c-0.49219,0 -0.94336,-0.04557 -1.35352,-0.13672l-0.2666,-1.36035l0.24609,0.0342c0.41927,0.05467 0.72005,0.082 0.90234,0.082c0.15039,0 0.23926,-0.03646 0.2666,-0.10938c0.01823,-0.0456 0.02734,-0.11624 0.02734,-0.21191v-3.49316c-0.51497,0.18685 -0.96842,0.34407 -1.36035,0.47168l-0.41699,-1.3877c0.66081,-0.19141 1.25326,-0.37598 1.77734,-0.55371v-2.7207h-1.5791v-1.36036h1.5791v-2.52246h1.40137v2.52246h1.09375v0.38965c0.98437,-0.67448 1.79102,-1.63607 2.41992,-2.88476l0.88867,0.54687h2.8916l0.71777,0.57422c-0.44206,0.66537 -0.86589,1.23503 -1.27148,1.70899h2.59766v5.05175h-1.29883v-1.1416h-1.29199c-0.59701,0 -0.89551,-0.2985 -0.89551,-0.89551v-1.90722zM217.08888,439.24514h-1.01172v2.41308c0.44206,-0.32812 0.73145,-0.76562 0.86816,-1.3125c0.08203,-0.31901 0.12988,-0.68587 0.14356,-1.10058zM218.43556,438.13772c0.39648,-0.48763 0.67904,-0.87956 0.84766,-1.17579h-2.24902c-0.25521,0.3737 -0.58105,0.76563 -0.97754,1.17579zM220.042,439.24514v1.56543c0,0.11393 0.05469,0.1709 0.16406,0.1709h0.90234v-1.73633zM217.52638,444.93947h-3.80078v-1.18945h4.10156v-1.23047h1.37402v1.23047h4.18359v1.18945h-3.82129c0.70638,1.04362 2.03255,1.80013 3.97852,2.26953l-0.77246,1.25782c-2.03255,-0.49675 -3.41569,-1.4515 -4.14941,-2.86426c-0.41016,0.93425 -1.09375,1.66569 -2.05078,2.19433c-0.61068,0.33724 -1.39453,0.61296 -2.35156,0.82715l-0.69043,-1.17578c1.00716,-0.19141 1.80241,-0.45117 2.38574,-0.77929c0.69727,-0.39193 1.23503,-0.96843 1.61328,-1.7295zM228.96974,446.08791c-0.30534,1.33529 -1.41732,2.20345 -3.33594,2.60449l-0.78613,-1.17578c1.38997,-0.20963 2.24219,-0.68587 2.55664,-1.42871h-3.32227v-1.13477h3.45899v-0.78613h-1.62695v-5.53027h5.17481l-1.08692,-0.73828c0.70183,-0.66993 1.2487,-1.58594 1.64063,-2.74805l1.41504,0.23926c-0.12305,0.31901 -0.24154,0.59928 -0.35547,0.84082h4.38867v1.10742h-2.54297c0.19597,0.22787 0.39877,0.48308 0.6084,0.76563l-1.41504,0.3623c-0.22331,-0.38737 -0.47168,-0.76334 -0.74512,-1.12793h-0.88183c-0.31901,0.51953 -0.64942,0.95248 -0.99121,1.29883h4.45703v5.53027h-1.51758v0.78613h3.32227v1.13477h-3.32227v2.49512h-1.52441v-2.49512zM229.03814,444.95314h3.5v-0.78613h-3.5zM234.07622,443.23049v-0.64258h-6.65136v0.64258zM234.07622,441.6924v-0.61523h-6.65136v0.61523zM234.07622,440.18166v-0.62207h-6.65136v0.62207zM228.71685,437.33791c0.21419,0.29623 0.40104,0.59017 0.56054,0.88184l-1.42871,0.30761c-0.23698,-0.50586 -0.45345,-0.90234 -0.64941,-1.18945h-0.75883c-0.40104,0.56055 -0.87044,1.08236 -1.4082,1.56543l-1.00488,-0.93652c0.93424,-0.72917 1.60189,-1.67708 2.00293,-2.84375l1.4834,0.23925c-0.1276,0.30534 -0.25977,0.59473 -0.39648,0.86817h3.13769v1.10742z" stroke-linejoin="miter"/><path d="M149.44043,405.1728v1.34668h3.97168v1.23047h-3.97168v2.91211h1.83203v-2.25586h1.42871v4.17676h-1.42871v-0.73145h-5.01074v0.73145h-1.42871v-4.17676h1.42871v2.25586h1.73633v-2.91211h-3.78028v-1.23047h3.78028v-1.34668h-3.24024v-1.18945h5.40039c0.4375,-0.82031 0.85449,-1.80469 1.25098,-2.95313l1.36035,0.54688c-0.33724,0.77474 -0.74284,1.57682 -1.2168,2.40625h1.27149v1.18945zM141.75,401.80268v-2.52246h1.46973v2.52246h1.36035v1.36036h-1.36035v2.208c0.33724,-0.11393 0.72917,-0.25748 1.17578,-0.43066l0.1709,1.28516c-0.52865,0.22331 -0.97754,0.4056 -1.34668,0.54687v4.5459c0,0.40104 -0.07292,0.69271 -0.21875,0.875c-0.18685,0.22787 -0.55144,0.3418 -1.09375,0.3418c-0.49219,0 -0.9502,-0.04557 -1.37403,-0.13672l-0.28027,-1.42871c0.54687,0.08203 0.94336,0.12304 1.18945,0.12304c0.14128,0 0.22787,-0.02963 0.25977,-0.0889c0.03187,-0.05013 0.0478,-0.13672 0.0478,-0.25977v-3.43848c-0.46485,0.15495 -0.93653,0.30307 -1.41504,0.44434l-0.41699,-1.4082c0.77018,-0.19597 1.34896,-0.35319 1.73633,-0.47168c0.03187,-0.00913 0.06377,-0.01827 0.0957,-0.0274v-2.67968h-1.63379v-1.36036zM144.28613,400.06636c2.83464,-0.12761 5.35482,-0.39877 7.56055,-0.81348l0.92285,1.13477c-2.53841,0.45117 -5.18848,0.75878 -7.95019,0.92285zM145.86523,403.90132c-0.22786,-0.78385 -0.50357,-1.49251 -0.82714,-2.12598l1.26464,-0.42383c0.38281,0.74284 0.6722,1.44239 0.86817,2.09864zM148.40137,403.74409c-0.17318,-0.77929 -0.44434,-1.50618 -0.81348,-2.18066l1.27149,-0.42383c0.37825,0.66537 0.6722,1.40365 0.88183,2.21484zM156.93945,399.58784h1.51075v3.86231c1.08463,-1.12565 1.9528,-1.89812 2.60449,-2.31739c0.60612,-0.39193 1.23503,-0.58789 1.88672,-0.58789c0.65625,0 1.18489,0.18457 1.58593,0.55371c0.52865,0.49219 0.79297,1.13704 0.79297,1.93457c0,0.20964 -0.02733,0.48764 -0.082,0.83399c-0.40104,2.54753 -0.60156,4.3112 -0.60156,5.29101c0,0.41927 0.1071,0.62891 0.32129,0.62891c0.13672,0 0.31673,-0.07747 0.54004,-0.23242c0.4694,-0.32357 0.94336,-0.85449 1.42187,-1.59278l0.56055,1.56543c-0.29167,0.46485 -0.65397,0.87728 -1.08691,1.23731c-0.50131,0.41927 -1.03679,0.6289 -1.60645,0.6289c-0.54232,0 -0.96387,-0.18913 -1.26465,-0.56738c-0.25521,-0.32357 -0.38281,-0.86361 -0.38281,-1.62012c0,-0.57421 0.0752,-1.43782 0.22559,-2.59082c0.1914,-1.44921 0.319,-2.52473 0.38281,-3.22656c0.00913,-0.11393 0.0137,-0.20964 0.0137,-0.28711c0,-0.40104 -0.08431,-0.70866 -0.25293,-0.92285c-0.15951,-0.20508 -0.38054,-0.30762 -0.66309,-0.30762c-0.95247,0 -2.41764,1.26921 -4.39551,3.80762v6.45313h-1.51074v-4.73047c-0.76107,1.06641 -1.46289,2.07357 -2.10547,3.02148l-0.71093,-1.62012c1.08007,-1.30794 2.01887,-2.55436 2.8164,-3.73925v-1.73633h-2.39941v-1.37403h2.39941zM177.85058,408.46089c0.34635,0.57877 0.75879,1.06412 1.23731,1.45605c0.61979,0.50131 1.40593,0.93653 2.3584,1.30567l-0.82715,1.36035c-1.69987,-0.70638 -2.93946,-1.89128 -3.71875,-3.55469c-0.29623,0.87044 -0.76563,1.61784 -1.40821,2.24219c-0.57877,0.56055 -1.35579,1.04818 -2.33105,1.46289l-0.9502,-1.20313c1.1211,-0.36458 1.97104,-0.83626 2.54981,-1.41504c0.48763,-0.48763 0.84993,-1.03906 1.08691,-1.65429h-2.6455v-3.67774h2.89843v-1.14843h-1.4834v-0.6084c-0.49219,0.42839 -1.03906,0.80436 -1.64062,1.12793l-0.54004,-0.72461h-1.13476v1.16894c0.597,0.50131 1.1735,1.0573 1.72949,1.66797l-0.72461,1.29883c-0.32813,-0.47851 -0.66309,-0.9388 -1.00488,-1.38086v6.39844h-1.40137v-6.13867c-0.45117,1.29427 -0.93197,2.38802 -1.44238,3.28125l-0.60157,-1.59961c0.83855,-1.40821 1.47657,-2.97364 1.91407,-4.69629h-1.68848v-1.33301h1.81836v-2.81641h1.40136v2.81641h1.2168v0.7998c1.45378,-0.85221 2.56348,-2.05762 3.3291,-3.61621h1.55176c0.68815,1.07097 1.5586,1.96648 2.61133,2.68653c0.45573,0.30989 0.98665,0.61979 1.59277,0.92968l-0.82715,1.17579c-0.63346,-0.3418 -1.21907,-0.71322 -1.75683,-1.11426v0.67676h-1.53125v1.14843h2.95312v3.67774zM176.12793,405.86323h-1.60645v1.50391h1.60645zM177.46093,405.86323v1.50391h1.64747v-1.50391zM175.21191,402.45893h3.20606c-0.64714,-0.5651 -1.23275,-1.23274 -1.75684,-2.00293c-0.37825,0.7155 -0.86133,1.38314 -1.44922,2.00293zM189.44433,403.91499h3.33594v-3.4043h1.52441v4.76465h-4.86035v5.05176h3.7666v-3.15137h1.55176v5.40723h-1.55176v-0.86817h-8.97558v0.86817h-1.53809v-5.40723h1.53809v3.15137h3.68457v-5.05176h-4.77149v-4.76465h1.52442v3.4043h3.24707v-4.63477h1.52441zM205.66601,407.51069c0.15039,0.54232 0.33496,1.03679 0.55371,1.4834c0.45573,-0.4694 0.86361,-0.95019 1.22363,-1.44238l1.01172,0.7041c-0.51953,0.67448 -1.01855,1.24642 -1.49707,1.71582c-0.03187,0.03193 -0.0592,0.05927 -0.082,0.082c0.26433,0.32357 0.53777,0.58561 0.82032,0.78613c0.18685,0.13217 0.31901,0.19825 0.39648,0.19825c0.07291,0 0.1276,-0.07748 0.16406,-0.23243c0.0456,-0.20507 0.10257,-0.67219 0.1709,-1.40136l1.16211,0.6289c-0.0638,0.82031 -0.18229,1.44694 -0.35547,1.87989c-0.18229,0.45573 -0.45345,0.68359 -0.81348,0.68359c-0.32812,0 -0.74283,-0.15723 -1.24414,-0.47168c-0.47851,-0.30078 -0.90918,-0.69271 -1.29199,-1.17578c-0.69727,0.58333 -1.49707,1.15527 -2.39941,1.71582l-0.77246,-0.99121c0.85677,-0.48763 1.69075,-1.06869 2.50195,-1.74317c-0.41015,-0.77474 -0.69954,-1.58138 -0.86816,-2.41992h-1.63379c-0.02733,0.24609 -0.06835,0.51497 -0.12305,0.80664c0.60612,0.36914 1.15527,0.79069 1.64746,1.26465l-0.72461,1.05274c-0.36003,-0.44206 -0.76335,-0.84538 -1.20996,-1.20997c-0.32813,1.06185 -0.87272,2.01661 -1.63379,2.86426l-0.93652,-0.95703c0.92969,-1.14388 1.48568,-2.41764 1.66797,-3.82129h-1.36035l-0.23926,0.46485c-0.23243,-0.60612 -0.46941,-1.17123 -0.71094,-1.69532v6.30274h-1.34668v-6.35059c-0.31901,1.22591 -0.73373,2.33789 -1.24414,3.33594l-0.64258,-1.45606c0.79753,-1.41731 1.37402,-2.96907 1.72949,-4.65527h-1.51758v-1.36035h1.67481v-2.81641h1.34668v2.81641h1.14844v1.36035h-1.14844v1.03223c0.5332,0.79297 0.91829,1.38997 1.15527,1.79101h3.91016c-0.15951,-1.3444 -0.24837,-2.79134 -0.2666,-4.34082l-0.0273,-2.65918h1.26465l0.0273,2.70703c0.00913,0.88867 0.03647,1.66114 0.082,2.31739c0.05927,-0.00467 0.11395,-0.007 0.16406,-0.007l0.14355,-0.007l0.13672,-0.007c0.07292,-0.09571 0.15039,-0.19597 0.23242,-0.30078c0.0456,-0.05467 0.19827,-0.26202 0.45801,-0.62207c-0.39193,-0.59701 -0.7793,-1.13021 -1.16211,-1.59961l0.6084,-0.40332c0.38281,-0.56055 0.74056,-1.23958 1.07324,-2.03711l1.0459,0.62891c-0.38281,0.69271 -0.82031,1.34668 -1.3125,1.96191c0.18685,0.26432 0.3099,0.44661 0.36914,0.54687c0.3418,-0.51953 0.66993,-1.04134 0.98438,-1.56543l0.98437,0.64258c-0.51041,0.75651 -1.22363,1.64974 -2.13965,2.67969c0.50586,-0.041 0.90918,-0.07974 1.20997,-0.11621c-0.07748,-0.20963 -0.16863,-0.42383 -0.27344,-0.64258l0.93652,-0.38965c0.35091,0.71549 0.59701,1.45605 0.73828,2.22168l-0.96386,0.37598c-0.07748,-0.33268 -0.13217,-0.55827 -0.16407,-0.67676c-1.14843,0.20963 -2.10774,0.34635 -2.87793,0.41016l-0.10254,0.0137c0.041,0.41015 0.0729,0.69954 0.0957,0.86816h1.37403c-0.13672,-0.1595 -0.30078,-0.32812 -0.49219,-0.50586l1.0459,-0.38964c0.26432,0.30989 0.48763,0.60839 0.66992,0.8955h1.42871v1.23047zM201.41406,403.41597c-0.4375,-0.58789 -0.84766,-1.08464 -1.23047,-1.49024l0.51953,-0.34863c0.37825,-0.5013 0.78385,-1.22591 1.2168,-2.17383l1.03222,0.51953c-0.35547,0.65625 -0.79297,1.33301 -1.3125,2.03027c0.22331,0.27344 0.35547,0.4375 0.39649,0.49219c0.03187,-0.05013 0.07288,-0.11621 0.12304,-0.19824c0.23243,-0.3737 0.49219,-0.82715 0.7793,-1.36035l0.86817,0.64941c-0.56511,0.97526 -1.2601,1.98014 -2.08497,3.01465c0.4375,-0.03647 0.82487,-0.07065 1.16211,-0.10254c-0.07291,-0.21875 -0.15722,-0.42838 -0.25293,-0.6289l0.75879,-0.4375c0.27344,0.57421 0.48763,1.23274 0.64258,1.97558l-0.78613,0.45801c-0.05013,-0.21875 -0.08431,-0.36687 -0.10254,-0.44434c-0.875,0.18229 -1.80697,0.33496 -2.7959,0.45801l-0.29394,-1.17578c0.17317,-0.00913 0.30078,-0.01597 0.38281,-0.0205c0.03647,0 0.0752,-0.00233 0.11621,-0.007c0.16406,-0.20508 0.45117,-0.6084 0.86133,-1.20996zM211.10058,402.40425c0.56966,-0.99805 1.0459,-2.05762 1.42871,-3.17871l1.53809,0.32128c-0.44206,1.02995 -0.93197,1.96876 -1.46973,2.81641c0.27799,-0.01367 0.70638,-0.03417 1.28516,-0.0615c0.05013,0 0.39649,-0.0205 1.03906,-0.0615l-0.041,-0.0684c-0.20508,-0.35091 -0.44206,-0.72232 -0.71094,-1.11425l1.16211,-0.57422c0.79753,1.03451 1.42643,2.02344 1.88672,2.9668l-1.3125,0.71777c-0.11849,-0.25521 -0.2552,-0.54232 -0.41015,-0.86133c-1.44011,0.17773 -3.19922,0.31445 -5.27735,0.41016l-0.34863,-1.28516c0.17773,0 0.58789,-0.0091 1.23047,-0.0273zM216.24121,404.57124v6.69238c0,0.4694 -0.11165,0.79297 -0.33496,0.9707c-0.20053,0.15951 -0.5446,0.23926 -1.03223,0.23926c-0.50131,0 -0.95931,-0.02963 -1.37402,-0.0889l-0.22559,-1.292c0.5651,0.06836 0.97981,0.10254 1.24414,0.10254c0.16862,0 0.26888,-0.03418 0.30078,-0.10254c0.0228,-0.05467 0.0342,-0.13898 0.0342,-0.25293v-1.24414h-2.67285v2.98731h-1.41504v-8.01172zM212.18066,405.69233v0.89551h2.67285v-0.89551zM212.18066,407.61323v0.95703h2.67285v-0.95703zM218.8457,401.35151c1.06185,-0.38737 2.07356,-0.8636 3.03515,-1.42871l1.0254,1.03906c-1.38086,0.72917 -2.73438,1.27604 -4.06055,1.64063v1.15527c0,0.22787 0.06608,0.36231 0.19824,0.40332c0.18229,0.05927 0.63119,0.0889 1.34668,0.0889c0.61523,0 0.99805,-0.06836 1.14844,-0.20508c0.11849,-0.10937 0.19596,-0.52181 0.23242,-1.2373c0.00467,-0.13672 0.00923,-0.24382 0.0137,-0.32129l1.44238,0.34863c-0.03647,1.23047 -0.17546,1.98014 -0.41699,2.24902c-0.15495,0.17318 -0.41243,0.29395 -0.77246,0.36231c-0.46029,0.09115 -1.13249,0.13672 -2.0166,0.13672c-1.10742,0 -1.82975,-0.08203 -2.16699,-0.2461c-0.31901,-0.1595 -0.47852,-0.50357 -0.47852,-1.03222v-5.02442h1.46973zM218.8457,408.00972c1.06641,-0.35547 2.15788,-0.84766 3.27441,-1.47657l0.95703,1.13477c-1.48112,0.74284 -2.8916,1.2806 -4.23144,1.61328v1.22363c0,0.29623 0.0957,0.47168 0.28711,0.52637c0.14583,0.0456 0.52181,0.0684 1.12793,0.0684c0.84765,0 1.33073,-0.07292 1.44922,-0.21875c0.1276,-0.15495 0.20963,-0.74056 0.24609,-1.75684l1.45605,0.38965c-0.00913,1.35352 -0.21421,2.19662 -0.61523,2.5293c-0.35091,0.29167 -1.23731,0.4375 -2.65918,0.4375c-1.12565,0 -1.87077,-0.09115 -2.23535,-0.27344c-0.35091,-0.16862 -0.52637,-0.51042 -0.52637,-1.02539v-5.1543h1.46973zM231.42383,410.50483c2.67513,-0.67448 4.01269,-2.20801 4.01269,-4.60058c0,-1.04362 -0.26888,-1.94141 -0.80664,-2.69336c-0.60156,-0.84766 -1.51757,-1.39226 -2.74804,-1.63379c-0.26888,2.11458 -0.63574,3.84635 -1.10059,5.19531c-0.31901,0.94336 -0.7155,1.83431 -1.18945,2.67285c-0.68359,1.19401 -1.46061,1.79102 -2.33106,1.79102c-0.64713,0 -1.22363,-0.29167 -1.72949,-0.875c-0.32357,-0.36914 -0.58561,-0.82259 -0.78613,-1.36035c-0.26433,-0.69727 -0.39649,-1.44694 -0.39649,-2.24903c0,-1.29883 0.35775,-2.49511 1.07324,-3.58886c0.72461,-1.11654 1.6657,-1.92774 2.82325,-2.4336c0.8431,-0.36914 1.76823,-0.55371 2.77539,-0.55371c1.57227,0 2.90755,0.42155 4.00586,1.26465c1.34895,1.03451 2.02343,2.49968 2.02343,4.39551c0,3.17643 -1.60644,5.19076 -4.81933,6.04297zM230.39844,401.52241c-0.80664,0.09115 -1.48112,0.30762 -2.02344,0.64941c-0.34635,0.22331 -0.69043,0.51954 -1.03223,0.88868c-0.94791,1.04817 -1.42187,2.26269 -1.42187,3.64355c0,1.00716 0.20052,1.79557 0.60156,2.36524c0.24609,0.35091 0.48991,0.52636 0.73144,0.52636c0.32813,0 0.69727,-0.3623 1.10743,-1.08691c1.0026,-1.76367 1.68164,-4.09245 2.03711,-6.98633zM245.73145,403.03315v-1.14843h-3.76661v-1.2168h3.76661v-1.3877h1.41503v1.3877h4.21094v1.2168h-4.21094v1.14843h3.55469v4.34082h-3.57519c-0.05467,0.92513 -0.22784,1.67253 -0.51953,2.24219c1.47656,0.74284 3.11718,1.25554 4.92187,1.53809l-0.71777,1.42871c-1.87305,-0.46485 -3.52962,-1.09831 -4.96973,-1.90039c-0.8112,0.86133 -1.9961,1.53125 -3.55469,2.00976l-0.7998,-1.20312c1.31705,-0.27344 2.36295,-0.78841 3.13769,-1.54492c-0.65169,-0.43295 -1.36035,-0.95932 -2.12597,-1.57911l0.98437,-0.82031c0.64714,0.52865 1.28288,0.98893 1.90723,1.38086c0.20052,-0.43294 0.32585,-0.95019 0.37598,-1.55176h-3.53418v-4.34082zM245.73145,404.18159h-2.11231v2.04395h2.11231zM247.14648,404.18159v2.04395h2.15332v-2.04395zM241.19238,402.57515v10.00781h-1.45605v-7.01367c-0.29623,0.50585 -0.67904,1.08007 -1.14844,1.72265l-0.69726,-1.53808c0.75651,-1.05274 1.39225,-2.26042 1.90722,-3.62305c0.3099,-0.8112 0.62663,-1.7933 0.9502,-2.94629l1.46972,0.37598c-0.35091,1.17578 -0.6927,2.18066 -1.02539,3.01465zM264.27734,399.99116v10.93066c0,0.46485 -0.08431,0.80209 -0.25293,1.01172c-0.20963,0.25977 -0.63346,0.38965 -1.27148,0.38965c-0.71094,0 -1.34213,-0.02733 -1.89356,-0.082l-0.2666,-1.46973c0.72461,0.09115 1.3239,0.13672 1.79785,0.13672c0.19141,0 0.30534,-0.04329 0.3418,-0.12988c0.0228,-0.05927 0.0342,-0.14586 0.0342,-0.25977v-2.70019h-3.34961v4.12891h-1.46972v-4.12891h-3.20606c-0.041,0.94791 -0.13215,1.73405 -0.27344,2.3584c-0.20052,0.85221 -0.5765,1.65657 -1.12793,2.41308l-1.28515,-1.05957c0.52865,-0.70182 0.87728,-1.55175 1.0459,-2.5498c0.0957,-0.57878 0.14355,-1.23047 0.14355,-1.95508v-7.03418zM254.75488,401.3105v1.97558h3.19239v-1.97558zM254.75488,404.53022v2.03028h3.19239v-2.03028zM262.7666,406.5605v-2.03028h-3.34961v2.03028zM262.7666,403.28608v-1.97558h-3.34961v1.97558z" stroke-linejoin="miter"/><path d="M141.27148,363.8545h1.59278v7.4785h-1.59278zM148.29199,363.7109h1.59278v4.8877c0,1.71813 -0.139,2.99647 -0.417,3.835c-0.23242,0.71547 -0.54915,1.28513 -0.95019,1.709c-0.83399,0.8978 -2.17383,1.56087 -4.01953,1.9892l-0.78614,-1.4013c2.01888,-0.4102 3.31315,-1.09153 3.88282,-2.044c0.36003,-0.60613 0.5765,-1.37177 0.64941,-2.2969c0.03193,-0.42833 0.0479,-1.02077 0.0479,-1.7773zM152.30469,364.6816h10.71191l0.88184,0.7452c-0.25521,0.95247 -0.58789,1.7477 -0.99805,2.3857c-0.77018,1.20767 -1.92317,2.11 -3.45898,2.707l-0.86133,-1.1757c1.06185,-0.31907 1.94368,-0.89103 2.64551,-1.7159c0.41471,-0.4876 0.7041,-1.00257 0.86816,-1.5449h-9.78906zM156.68652,367.6348h1.56543v1.1757c0,1.76373 -0.19596,3.12637 -0.58789,4.0879c-0.49674,1.2214 -1.46288,2.2149 -2.89843,2.9805l-1.12793,-1.1894c0.98893,-0.4694 1.71126,-1.02997 2.16699,-1.6817c0.35091,-0.50587 0.58105,-1.04133 0.69043,-1.6064c0.1276,-0.64713 0.1914,-1.5153 0.1914,-2.6045zM167.89746,364.3467h1.53809v2.4883c0,2.38347 -0.17774,4.12433 -0.53321,5.2226c-0.4694,1.4538 -1.45377,2.66603 -2.95312,3.6367l-1.0459,-1.2168c1.03906,-0.72913 1.77051,-1.48563 2.19434,-2.2695c0.35547,-0.6608 0.59017,-1.5472 0.7041,-2.6592c0.0638,-0.62887 0.0957,-1.52437 0.0957,-2.6865zM171.39746,363.9502h1.53809v9.7139c0.9069,-0.4694 1.70215,-1.13707 2.38574,-2.003c0.74739,-0.94787 1.30566,-2.07123 1.6748,-3.3701l1.20313,1.1621c-0.45573,1.35353 -1.08008,2.5088 -1.87305,3.4658c-0.99805,1.20773 -2.30599,2.15793 -3.92383,2.8506l-1.00488,-0.8681zM189.32129,365.1123l0.97754,0.7998c-0.63802,2.91667 -1.67253,5.1748 -3.10352,6.7744c-0.79297,0.88413 -1.81836,1.65887 -3.07617,2.3242c-0.89323,0.4694 -1.85254,0.8431 -2.87793,1.1211l-0.79297,-1.3466c2.34245,-0.61073 4.16081,-1.586 5.45508,-2.9258c-1.06641,-0.95707 -2.24219,-1.80473 -3.52734,-2.543l0.8955,-1.1074c1.25326,0.65167 2.44499,1.45373 3.5752,2.4062c0.88867,-1.42187 1.44694,-2.79817 1.6748,-4.1289h-4.8125c-1.10286,1.71813 -2.40169,3.03293 -3.89648,3.9444l-1.00488,-1.0869c1.44466,-0.87047 2.63183,-2.0212 3.56152,-3.4522c0.47851,-0.72913 0.84993,-1.51527 1.11426,-2.3584l1.4834,0.3623c-0.15039,0.41013 -0.31901,0.81573 -0.50586,1.2168zM196.86133,375.9746v-7.0137c-1.38542,0.92973 -2.9668,1.7136 -4.74414,2.3516l-0.82715,-1.3877c2.01888,-0.679 3.78939,-1.554 5.31152,-2.625c1.49479,-1.05273 2.82552,-2.25813 3.99219,-3.6162l1.31934,0.8271c-1.03451,1.18947 -2.1875,2.28097 -3.45899,3.2745v8.1894zM202.80176,373.623c0.31445,-0.00667 0.7474,-0.02933 1.29883,-0.068c1.29883,-2.91667 2.49511,-6.12727 3.58886,-9.6318l1.56543,0.4101c-1.07552,3.36327 -2.22396,6.4007 -3.44531,9.1123c2.31511,-0.1686 4.36817,-0.37367 6.15918,-0.6152c-0.67448,-1.18947 -1.36035,-2.28777 -2.05762,-3.2949l1.34668,-0.8545c1.43555,1.97787 2.69564,4.0742 3.78028,6.289l-1.53809,0.7998c-0.25065,-0.5286 -0.52637,-1.08003 -0.82715,-1.6543c-2.66146,0.44667 -5.84017,0.84317 -9.53613,1.1895zM221.55957,365.126v-0.5879h-4.27246v-0.9776h10.08984v0.9776h-4.36132v0.5879h5.66015v2.4541h-1.4834v-1.5723h-4.17675v2.6592h-1.45606v-2.6592h-4.10156v1.5723h-1.46973v-2.4541zM226.39941,374.8262c0.69727,0.26433 1.56771,0.47397 2.61133,0.6289l-0.7998,1.1621c-1.46289,-0.25067 -2.66374,-0.68133 -3.60254,-1.292c-0.93425,-0.61067 -1.66114,-1.36947 -2.18067,-2.2764h-1.51074v2.1055c1.00716,-0.14127 1.94141,-0.29167 2.80274,-0.4512l0.0957,1.0186c-1.60417,0.3828 -3.43848,0.71547 -5.50293,0.998l-0.40332,-1.2031c0.71549,-0.07747 1.2054,-0.13217 1.46973,-0.1641l0.082,-0.014v-2.2901h-1.49707c-0.0638,0.80213 -0.16862,1.44243 -0.31446,1.9209c-0.17317,0.57427 -0.45117,1.10977 -0.83398,1.6065l-1.2168,-1.0049c0.44661,-0.5788 0.72461,-1.25557 0.83399,-2.0303c0.05927,-0.41927 0.0889,-0.94107 0.0889,-1.5654v-2.8985h11.79883v0.9092h-10.3291v2.0987h10.91699v0.9638h-1.55175l0.86816,0.5742c-0.51497,0.4284 -1.12337,0.82947 -1.8252,1.2032zM225.33301,374.2998c0.65625,-0.4466 1.17806,-0.8636 1.56543,-1.251h-2.98731c0.39193,0.50133 0.86589,0.91833 1.42188,1.251zM218.05957,366.5137h2.91211v0.7724h-2.91211zM218.05957,367.7715h2.91211v0.7861h-2.91211zM223.60352,366.5137h3.00097v0.7724h-3.00097zM223.60352,367.7715h3.00097v0.7861h-3.00097zM218.80469,370.5605h8.51074v0.8956h-8.51074zM237.39844,364.5107h5.35937v1.1485h-3.03515v1.1347h2.84375v1.1075h-2.84375v2.0371h-5.50293v-2.0371h-2.24219v1.2715c0,2.0644 -0.10938,3.6959 -0.32813,4.8945c-0.16862,0.91147 -0.44206,1.74317 -0.82031,2.4951l-1.24414,-0.9844c0.34635,-0.75193 0.58333,-1.67023 0.71094,-2.7549c0.11393,-0.95247 0.1709,-2.16923 0.1709,-3.6503v-4.6622h5.40722v-1.2304h1.52442zM231.97754,365.6592v1.1347h2.24219v-1.1347zM235.67578,365.6592v1.1347h2.59082v-1.1347zM235.67578,367.9014v1.0595h2.59082v-1.0595zM237.26172,375.0791c-1.31706,0.6836 -2.98959,1.20313 -5.01758,1.5586l-0.71094,-1.2578c1.90495,-0.22787 3.39747,-0.5765 4.47754,-1.0459c-0.92513,-0.66993 -1.71582,-1.4652 -2.37207,-2.3858h-0.94336v-1.1894h8.00489l0.71777,0.6016c-0.67904,1.0436 -1.64746,2.02567 -2.90527,2.9462c1.08007,0.433 2.55208,0.75203 4.41601,0.9571l-0.7998,1.292c-1.78646,-0.24153 -3.40886,-0.73373 -4.86719,-1.4766zM235.23145,371.9482c0.55143,0.64713 1.22135,1.2168 2.00976,1.709c0.88867,-0.5742 1.57455,-1.14387 2.05762,-1.709zM251.02246,374.5049c2.67513,-0.67447 4.0127,-2.208 4.0127,-4.6006c0,-1.0436 -0.26888,-1.9414 -0.80664,-2.6934c-0.60157,-0.8476 -1.51758,-1.3922 -2.74805,-1.6338c-0.26888,2.1146 -0.63574,3.8464 -1.10059,5.1954c-0.31901,0.94333 -0.71549,1.83427 -1.18945,2.6728c-0.68359,1.194 -1.46061,1.791 -2.33105,1.791c-0.64714,0 -1.22364,-0.29167 -1.7295,-0.875c-0.32357,-0.36913 -0.58561,-0.82257 -0.78613,-1.3603c-0.26432,-0.69727 -0.39648,-1.44693 -0.39648,-2.249c0,-1.29887 0.35775,-2.49517 1.07324,-3.5889c0.72461,-1.11653 1.66569,-1.92773 2.82324,-2.4336c0.8431,-0.36913 1.76823,-0.5537 2.77539,-0.5537c1.57227,0 2.90755,0.42153 4.00586,1.2646c1.34896,1.03453 2.02344,2.4997 2.02344,4.3955c0,3.17647 -1.60645,5.1908 -4.81934,6.043zM249.99707,365.5225c-0.80664,0.09113 -1.48112,0.3076 -2.02344,0.6494c-0.34635,0.22327 -0.69043,0.51947 -1.03222,0.8886c-0.94792,1.0482 -1.42188,2.26273 -1.42188,3.6436c0,1.00713 0.20052,1.79553 0.60156,2.3652c0.24609,0.35093 0.48991,0.5264 0.73145,0.5264c0.32813,0 0.69727,-0.3623 1.10742,-1.0869c1.00261,-1.76367 1.68164,-4.09243 2.03711,-6.9863zM265.33008,367.0332v-1.1484h-3.7666v-1.2168h3.7666v-1.3877h1.41504v1.3877h4.21093v1.2168h-4.21093v1.1484h3.55468v4.3408h-3.57519c-0.05467,0.92513 -0.22784,1.67253 -0.51953,2.2422c1.47656,0.74287 3.11718,1.25557 4.92187,1.5381l-0.71777,1.4287c-1.87305,-0.46487 -3.52962,-1.09833 -4.96973,-1.9004c-0.81119,0.86133 -1.99609,1.53127 -3.55468,2.0098l-0.79981,-1.2031c1.31706,-0.27347 2.36296,-0.78847 3.1377,-1.545c-0.65169,-0.43293 -1.36035,-0.9593 -2.12598,-1.5791l0.98437,-0.8203c0.64714,0.52867 1.28288,0.98897 1.90723,1.3809c0.20052,-0.43293 0.32585,-0.9502 0.37598,-1.5518h-3.53418v-4.3408zM265.33008,368.1816h-2.11231v2.044h2.11231zM266.74512,368.1816v2.044h2.15332v-2.044zM260.79102,366.5752v10.0078h-1.45606v-7.0137c-0.29623,0.50587 -0.67904,1.0801 -1.14844,1.7227l-0.69726,-1.5381c0.75651,-1.05273 1.39225,-2.2604 1.90722,-3.623c0.3099,-0.8112 0.62663,-1.7933 0.9502,-2.9463l1.46973,0.3759c-0.35091,1.1758 -0.69271,2.1807 -1.02539,3.0147zM283.87598,363.9912v10.9307c0,0.4648 -0.08431,0.80203 -0.25293,1.0117c-0.20964,0.25973 -0.63347,0.3896 -1.27149,0.3896c-0.71093,0 -1.34212,-0.02733 -1.89355,-0.082l-0.2666,-1.4697c0.72461,0.09113 1.32389,0.1367 1.79785,0.1367c0.19141,0 0.30534,-0.0433 0.3418,-0.1299c0.0228,-0.05933 0.0342,-0.1459 0.0342,-0.2597v-2.7002h-3.34962v4.1289h-1.46972v-4.1289h-3.20606c-0.041,0.94787 -0.13214,1.734 -0.27343,2.3584c-0.20053,0.8522 -0.5765,1.65653 -1.12793,2.413l-1.28516,-1.0595c0.52865,-0.70187 0.87728,-1.5518 1.0459,-2.5498c0.0957,-0.5788 0.14355,-1.2305 0.14355,-1.9551v-7.0342zM274.35352,365.3105v1.9756h3.19238v-1.9756zM274.35352,368.5303v2.0302h3.19238v-2.0302zM282.36523,370.5605v-2.0302h-3.34961v2.0302zM282.36523,367.2861v-1.9756h-3.34961v1.9756z" stroke-linejoin="miter"/><path d="M157.36328,300.19338c-0.1276,0.30534 -0.25976,0.59571 -0.39648,0.86914h3.13867v1.10742h-1.53906c0.21419,0.29622 0.40105,0.58919 0.56055,0.88086l-1.42773,0.3086c-0.23698,-0.50586 -0.45443,-0.90239 -0.65039,-1.18946h-0.75781c-0.40104,0.56055 -0.87044,1.0814 -1.4082,1.56446l-1.00586,-0.93555c0.93427,-0.7292 1.60291,-1.67709 2.00391,-2.84375zM162.9082,300.22268c-0.12305,0.31901 -0.24153,0.59831 -0.35547,0.83984h4.38867v1.10742h-2.54297c0.19597,0.22786 0.39779,0.48307 0.60742,0.76563l-1.41406,0.36328c-0.22331,-0.38737 -0.47265,-0.76435 -0.74609,-1.12891h-0.88086c-0.31901,0.51953 -0.6504,0.95249 -0.99219,1.29883h4.45703v5.53125h-1.51758v0.78516h3.32227v1.13476h-3.32227v2.4961h-1.52344v-2.4961h-3.56836c-0.30534,1.33527 -1.41735,2.2044 -3.33594,2.60547l-0.78711,-1.17578c1.39,-0.20964 2.24224,-0.68686 2.55664,-1.42969h-3.32226v-1.13476h3.45898v-0.78516h-1.62695v-5.53129h5.17578l-1.08789,-0.73828c0.7018,-0.66993 1.24869,-1.58598 1.64063,-2.74805zM172.33008,300.10354v1.73632h1.79102v1.23047h-1.79102v1.42969h2.20117v1.28513h-2.35156v3.03515c0,0.38737 -0.0944,0.66667 -0.28125,0.83985c-0.17317,0.15953 -0.45117,0.24023 -0.83398,0.24023c-0.24609,0 -0.63347,-0.0273 -1.16211,-0.082l-0.21875,-1.18945c0.39649,0.0638 0.70964,0.0957 0.9375,0.0957c0.14128,0 0.2233,-0.03512 0.24609,-0.10352c0.01824,-0.041 0.02734,-0.1048 0.02734,-0.1914v-2.64453h-2.96094v-1.28516h0.86914v-3.17969h1.25781v3.17969h0.9707v-4.39652zM150.47266,300.1075v4.46289h2.75391v1.40235h-2.75391v7.4375h-1.48437v-7.4375h-2.80273v-1.40235h2.80273v-4.46289zM200.88476,300.10754v1.72266h2.84375v1.2168h-2.84375v1.42773h3.39063v1.23047h-3.39062v1.33398h2.89844v3.76563c0,0.40104 -0.11979,0.68359 -0.36133,0.84765c-0.17773,0.12305 -0.45898,0.18555 -0.8418,0.18555c-0.39193,0 -0.76108,-0.0228 -1.10742,-0.0684l-0.22461,-1.29883c0.38737,0.07288 0.71224,0.10938 0.97656,0.10938c0.15039,0 0.22656,-0.08529 0.22656,-0.25391v-2.09765h-1.56641v5.18164h-1.41406v-5.18164h-1.45703v3.84765h-1.35937v-5.03711h2.81641v-1.33398h-3.52734v-1.23047h3.52734v-1.42773h-1.62109c-0.18229,0.40103 -0.39779,0.78841 -0.64844,1.1621l-1.17578,-0.74609c0.58789,-0.82033 0.98895,-1.78323 1.20313,-2.89062l1.35938,0.1914c-0.07291,0.29167 -0.16862,0.64714 -0.28711,1.06641h1.16992v-1.72266zM189.65039,300.1095v1.23046h5.35938v1.14844h-3.03516v1.13477h2.84375v1.10742h-2.84375v2.03711h-5.50391v-2.03711h-2.24219v1.27148c0,2.06447 -0.10937,3.696 -0.32812,4.89453c-0.16862,0.91147 -0.44206,1.74417 -0.82031,2.4961l-1.24414,-0.98438c0.34635,-0.75193 0.58333,-1.67119 0.71094,-2.75586c0.11392,-0.95246 0.17188,-2.16926 0.17188,-3.65039v-4.66211h5.40625v-1.23046zM208.71289,300.42785v11.47852c0,0.44661 -0.10938,0.77474 -0.32812,0.98437c-0.22331,0.2142 -0.62758,0.32227 -1.21094,0.32227c-0.60157,0 -1.21352,-0.0319 -1.83789,-0.0957l-0.29492,-1.42969c0.63346,0.09112 1.22594,0.13672 1.77734,0.13672c0.20963,0 0.34049,-0.0319 0.39063,-0.0957c0.041,-0.05014 0.06055,-0.15626 0.06055,-0.32032v-10.98047zM214.35742,300.5742l0.71094,0.60156c-0.31901,1.38087 -0.73501,2.65232 -1.25,3.81445c0.8568,1.1074 1.28516,2.28322 1.28516,3.52735c0,0.65169 -0.10351,1.12696 -0.30859,1.42773c-0.23698,0.3418 -0.69724,0.51367 -1.38086,0.51367c-0.39649,0 -0.77472,-0.0305 -1.13477,-0.0898l-0.2793,-1.4082l0.27929,0.03524c0.44662,0.0593 0.75651,0.0879 0.92969,0.0879c0.22787,0 0.36329,-0.05599 0.4043,-0.16992c0.041,-0.10482 0.06055,-0.28581 0.06055,-0.54101c0,-1.10287 -0.42061,-2.17383 -1.26367,-3.21289c0.42383,-0.9798 0.77148,-2.07939 1.04492,-3.30078h-1.5918v11.55273h-1.41601v-12.83789zM145.50195,300.61344v1.13477h-4.66211v-1.13477zM222.2461,300.61544v6.28907l0.97852,0.88867c-0.75653,0.84766 -1.48898,1.53257 -2.19531,2.05664c0.60612,0.8294 1.41278,1.50712 2.41992,2.03125l-0.86719,1.3457c-1.112,-0.64713 -1.99482,-1.47333 -2.64648,-2.48047c-0.69727,-1.07093 -1.19076,-2.33652 -1.48242,-3.79492h-1.39453v4.50586c0.916,-0.25065 1.81963,-0.55013 2.71289,-0.89648l0.16406,1.27929c-1.50393,0.6517 -3.12178,1.16795 -4.85352,1.55078l-0.51953,-1.3457c0.56966,-0.11849 0.93881,-0.19592 1.10742,-0.23242v-11.19727zM181.18164,300.66424v1.24414h-2.91797c-0.12305,0.42383 -0.26302,0.82489 -0.41797,1.20313h2.70703v7.4375h-5.71484v-2.0293l-0.93555,0.60156c-0.48307,-1.14846 -0.93293,-2.02346 -1.34766,-2.625l0.9375,-0.51953c0.47396,0.67907 0.92186,1.47337 1.3457,2.38477v-5.25h1.73047c0.05927,-0.20052 0.15497,-0.60158 0.28711,-1.20313h-2.48242v-1.24414zM205.99219,301.20135v8.69531h-1.40234v-8.69531zM217.0586,303.20526h3.78711v-1.40039h-3.78711zM184.22852,303.62323h2.24219v-1.13477h-2.24219zM187.92773,303.62323h2.58984v-1.13477h-2.58984zM146.27539,302.61525v1.23047h-6.27539v-1.23047zM176.1582,305.25783h3.04883v-1.0664h-3.04883zM217.05859,305.78908h3.78711v-1.46289h-3.78711zM157.27539,305.01368h6.65039v-0.62109h-6.65039zM145.50195,304.71485v1.13477h-4.66211v-1.13477zM187.92773,305.791h2.58984v-1.06055h-2.58984zM157.27539,306.52342h6.65039v-0.61524h-6.65039zM170.375,306.52928c-0.39193,1.45833 -0.9206,2.55533 -1.58594,3.28906l-0.96484,-0.86914c0.57421,-0.67447 1.04229,-1.60092 1.40234,-2.78125zM176.1582,307.31639h3.04883v-1.03321h-3.04883zM145.50195,306.71678v1.09375h-4.66211v-1.09375zM220.42774,308.80467c0.67907,-0.67447 1.2201,-1.29299 1.62109,-1.85352h-2.24219c0.16862,0.73827 0.375,1.35678 0.62109,1.85352zM157.27539,308.06248h6.65039v-0.64258h-6.65039zM192.95118,307.58787l0.71875,0.60156c-0.67907,1.0436 -1.64845,2.02667 -2.90625,2.94727c1.08007,0.43294 2.55208,0.75195 4.41602,0.95703l-0.79883,1.29102c-1.78646,-0.24154 -3.40885,-0.73371 -4.86719,-1.47657c-1.31706,0.6836 -2.98958,1.20313 -5.01758,1.5586l-0.71094,-1.25782c1.90493,-0.22786 3.3965,-0.57552 4.47656,-1.04492c-0.92513,-0.66993 -1.71483,-1.46618 -2.37109,-2.38672h-0.94336v-1.18945zM176.15821,309.45506h3.04883v-1.11328h-3.04883zM173.86134,309.37303c-1.06187,1.87759 -2.63413,3.19338 -4.7168,3.94531l-0.90234,-1.12109c2.2604,-0.7064 3.79622,-1.93688 4.60742,-3.69141zM145.81056,308.6992v4.00586h-3.84961v0.70508h-1.41406v-4.71094zM189.4922,310.48629c0.88867,-0.57422 1.57553,-1.14387 2.05859,-1.70899h-4.06836c0.55143,0.64714 1.22133,1.21679 2.00977,1.70899zM158.88869,309.78518h3.5v-0.78516h-3.5zM141.96096,311.54299h2.43359v-1.68164h-2.43359zM181.3594,312.53908l-1.09961,0.93555c-0.67447,-0.8112 -1.40817,-1.50979 -2.20117,-2.09766l1.02539,-0.78711c0.875,0.59245 1.63279,1.24287 2.27539,1.94922zM177.18948,311.31452c-0.83853,0.99807 -1.6875,1.74092 -2.54883,2.22852l-1.01953,-0.94922c0.91147,-0.49675 1.72266,-1.15624 2.43359,-1.97656z" stroke-linejoin="miter"/><path d="M146.04101,264.457c-0.00913,1.03907 -0.03517,1.94269 -0.07617,2.71289h5.03125c-0.02733,3.23113 -0.15949,5.70898 -0.39649,7.43164c-0.10481,0.78387 -0.31575,1.32162 -0.63476,1.61328c-0.33268,0.30079 -0.90561,0.45118 -1.7168,0.45118c-0.58789,0 -1.21227,-0.04884 -1.87305,-0.14454l-0.25195,-1.5371c0.7884,0.14123 1.43226,0.21093 1.93359,0.21093c0.34636,0 0.57292,-0.05143 0.67773,-0.15625c0.11849,-0.11393 0.2155,-0.4694 0.29297,-1.0664c0.22331,-1.76827 0.3418,-3.5684 0.35547,-5.40039h-3.48633c-0.17318,1.87759 -0.57096,3.38152 -1.19531,4.51171c-0.8112,1.46287 -2.03127,2.6569 -3.6582,3.58204l-1.03906,-1.2168c1.0208,-0.56055 1.89126,-1.26563 2.61133,-2.11328c0.54231,-0.63802 0.94337,-1.35937 1.20313,-2.16602c0.25065,-0.76106 0.42252,-1.62699 0.51367,-2.59765h-4.10156v-1.40235h4.16992c0.03647,-1.01173 0.05469,-1.91536 0.05469,-2.71289zM163.74415,265.32028c-0.73827,1.7682 -1.67254,3.52735 -2.80273,5.27735c1.33527,0.9844 2.58075,2.07036 3.73828,3.25976l-1.08008,1.23828c-0.71547,-0.78386 -1.82615,-1.79883 -3.33008,-3.04297l-0.25195,-0.20507c-1.709,2.06899 -3.72009,3.77215 -6.03516,5.10742l-0.99219,-1.36133c2.0508,-1.05273 3.97854,-2.63414 5.7832,-4.74414c-1.30793,-0.95707 -2.67056,-1.89587 -4.08789,-2.81641l0.85351,-1.24414c1.0482,0.64258 2.33662,1.5254 3.86328,2.64649l0.26563,0.19726c1.08466,-1.61326 1.94466,-3.28256 2.57813,-5.00976zM230.10353,265.32028c-0.73827,1.7682 -1.67254,3.52735 -2.80274,5.27735c1.33527,0.9844 2.58068,2.07036 3.73828,3.25976l-1.08008,1.23828c-0.71546,-0.78386 -1.82419,-1.79883 -3.32812,-3.04297l-0.25391,-0.20507c-1.709,2.06899 -3.72009,3.77215 -6.03516,5.10742l-0.99219,-1.36133c2.0508,-1.05273 3.97854,-2.63414 5.7832,-4.74414c-1.30793,-0.95707 -2.67056,-1.89587 -4.08789,-2.81641l0.85547,-1.24414c1.0482,0.64258 2.33466,1.5254 3.86133,2.64649l0.26758,0.19726c1.08466,-1.61326 1.94271,-3.28256 2.57617,-5.00976zM252.03907,266.30075l-0.47851,1.42969c-1.3444,-0.60157 -2.71617,-1.10609 -4.11524,-1.51172l0.44336,-1.35352c1.5768,0.39193 2.96093,0.87048 4.15039,1.43555zM190.34181,266.26559c1.34893,1.03454 2.02344,2.49874 2.02344,4.39454c0,3.17639 -1.6055,5.1907 -4.81836,6.04296l-0.80664,-1.37304c2.67513,-0.67447 4.01172,-2.20897 4.01172,-4.60156c0,-1.0436 -0.26888,-1.94136 -0.80664,-2.69336c-0.60157,-0.84767 -1.51761,-1.39128 -2.74805,-1.63282c-0.26888,2.1146 -0.63476,3.84638 -1.09961,5.19532c-0.31901,0.94333 -0.71553,1.83334 -1.18945,2.67187c-0.6836,1.194 -1.46156,1.79102 -2.33203,1.79102c-0.64713,0 -1.22265,-0.29167 -1.72852,-0.875c-0.32357,-0.36914 -0.58659,-0.82159 -0.78711,-1.35938c-0.26432,-0.69726 -0.39649,-1.44793 -0.39649,-2.25c0,-1.2988 0.35875,-2.49409 1.07422,-3.58789c0.7246,-1.11653 1.66473,-1.92773 2.82227,-2.43359c0.84307,-0.36914 1.76819,-0.55469 2.77539,-0.55469c1.57226,0 2.90753,0.42256 4.00586,1.26562zM176.62697,265.09957v1.40234h-9.01758v-1.40234zM275.99029,266.72652l-0.51953,1.48438c-1.44013,-0.64258 -2.93819,-1.15757 -4.49218,-1.54492l0.47851,-1.47071c1.80013,0.41016 3.31187,0.92061 4.5332,1.53125zM204.30279,265.50973l0.88086,0.74609c-0.25521,0.95247 -0.58789,1.74677 -0.99805,2.38476c-0.7702,1.20767 -1.92319,2.11004 -3.45899,2.70704l-0.86133,-1.17578c1.06187,-0.31901 1.94468,-0.88999 2.64648,-1.71485c0.41471,-0.48762 0.70312,-1.00261 0.86719,-1.54492h-9.78906v-1.40234zM217.08599,266.3398v1.47071h-9.40625v-1.47071zM183.69146,266.99623c-0.34635,0.22331 -0.69142,0.51954 -1.0332,0.88868c-0.94793,1.04819 -1.42187,2.26366 -1.42187,3.64453c0,1.00713 0.20052,1.79557 0.60156,2.36523c0.24609,0.35091 0.49088,0.52539 0.73242,0.52539c0.32813,0 0.69728,-0.36134 1.10742,-1.08594c1.0026,-1.76366 1.68164,-4.09246 2.03711,-6.98632c-0.80667,0.09114 -1.48117,0.30663 -2.02344,0.64843zM282.09381,267.58217c-0.36914,1.6862 -0.81578,3.02607 -1.33984,4.01953c-0.94794,1.80927 -2.39713,3.11849 -4.34766,3.92969c-1.23047,0.51041 -2.87568,0.87496 -4.93555,1.09375l-0.32031,-1.61328c2.25587,-0.19141 3.98311,-0.59373 5.18164,-1.20899c1.41273,-0.72919 2.49737,-1.84902 3.25391,-3.35742c0.49218,-0.97526 0.88996,-2.25132 1.19531,-3.82812zM257.78717,267.85952c-0.44206,1.96419 -1.05862,3.5306 -1.85156,4.69726c-0.92967,1.3626 -2.22723,2.36975 -3.89063,3.02148c-1.1712,0.45118 -2.73111,0.76693 -4.68164,0.94922l-0.4375,-1.53125c1.86393,-0.15495 3.3236,-0.4375 4.38086,-0.84765c1.56313,-0.59701 2.79228,-1.66343 3.68555,-3.19922c0.597,-1.0254 1.06773,-2.32101 1.41406,-3.88867zM267.9649,267.36928v8.99024h-8.73632v-1.29883h7.29492v-2.70703h-6.69336v-1.28516h6.69336v-2.40039h-6.97266v-1.29883zM250.69147,269.82241l-0.53321,1.4082c-1.12106,-0.49219 -2.49283,-0.99671 -4.11523,-1.51172l0.58789,-1.36719c1.39453,0.36914 2.74801,0.86005 4.06055,1.47071zM178.01373,268.4494c-0.20052,1.987 -0.61526,3.54104 -1.24414,4.66211c-0.47396,0.84306 -1.06637,1.51624 -1.77734,2.01758c-1.20313,0.8568 -2.95314,1.44467 -5.25,1.76367l-0.68945,-1.38867c2.028,-0.19597 3.57877,-0.66084 4.6543,-1.39453c1.39453,-0.94334 2.19532,-2.36195 2.40039,-4.25782h-9.47461v-1.40234zM199.53716,268.4631v1.17578c0,1.76367 -0.19596,3.12629 -0.58789,4.08789c-0.49675,1.22133 -1.46292,2.21481 -2.89844,2.98047l-1.12695,-1.18945c0.98893,-0.4694 1.71028,-1.02998 2.16602,-1.68164c0.35091,-0.50586 0.58203,-1.0404 0.69141,-1.60547c0.12761,-0.64713 0.19141,-1.51627 0.19141,-2.60547v-1.16211zM244.83794,269.74997v1.53906h-12.03711v-1.53906zM218.47466,274.16794v1.48242h-12.18164v-1.48242z" stroke-linejoin="miter"/><path d="M143.64355,229.9951c0.21419,-0.58333 0.39421,-1.21224 0.54004,-1.88672l1.75,0.28027c-0.18685,0.54687 -0.39876,1.08236 -0.63574,1.60645h5.01758v11.41601h-1.55176v-0.9707h-7.23926v0.9707h-1.52441v-11.41601zM141.52441,231.28025v1.77051h7.23926v-1.77051zM141.52441,234.26756v1.75h7.23926v-1.75zM141.52441,237.22068v1.9209h7.23926v-1.9209zM161.62207,231.00682l0.0684,-2.89844h1.37402l-0.0615,2.89844h2.59082c-0.0456,5.09505 -0.23701,8.18033 -0.57422,9.25586c-0.14583,0.46484 -0.41016,0.76106 -0.79297,0.88867c-0.19596,0.06836 -0.48763,0.10254 -0.875,0.10254c-0.50586,0 -0.98437,-0.0319 -1.43554,-0.0957l-0.26661,-1.44238c0.52409,0.10026 0.98666,0.15039 1.3877,0.15039c0.32357,0 0.53092,-0.08887 0.62207,-0.2666c0.08659,-0.17318 0.1709,-0.59245 0.25293,-1.25781c0.16406,-1.32162 0.26888,-3.20378 0.31445,-5.64649l0.007,-0.34179h-1.31934c-0.07747,2.02343 -0.31901,3.70052 -0.72461,5.03125c-0.49674,1.62239 -1.27376,2.96907 -2.33105,4.04003l-1.1211,-0.86816c0.22331,-0.20963 0.40333,-0.39648 0.54004,-0.56055c-2.27865,0.41471 -4.46159,0.72233 -6.54882,0.92286l-0.30762,-1.292c1.13477,-0.06836 2.21257,-0.15267 3.2334,-0.25293v-0.95019h-2.93946v-1.08008h2.93946v-0.7793h-2.61817v-4.49121h2.61817v-0.75879h-3.15137v-1.0664h3.15137v-0.6084c-0.68815,0.06836 -1.47201,0.1276 -2.35157,0.17773l-0.49218,-1.05273c2.1875,-0.09115 4.1403,-0.32813 5.8584,-0.71094l0.77929,0.99121c-0.74284,0.18685 -1.55859,0.33497 -2.44726,0.44434v0.75879h3.0625v0.75879zM161.56057,232.3535h-1.52442v-1.03907h-3.03515v0.75879h2.65918v4.49121h-2.65918v0.7793h2.83007v1.08008h-2.83007v0.81347l0.57422,-0.0547c0.76562,-0.07747 1.59277,-0.19141 2.48144,-0.3418c0.85677,-1.56315 1.35352,-3.66406 1.49023,-6.30273zM155.69533,232.99607h-1.4834v0.86817h1.4834zM156.95998,232.99607v0.86817h1.52441v-0.86817zM155.69533,234.70506h-1.4834v0.93652h1.4834zM156.95998,234.70506v0.93652h1.52441v-0.93652zM167.24807,231.17088h4.16992c0.03647,-1.01172 0.0547,-1.91634 0.0547,-2.71387h1.58593c-0.00913,1.03906 -0.0342,1.94368 -0.0752,2.71387h5.03125c-0.02733,3.23112 -0.1595,5.70801 -0.39649,7.43066c-0.10481,0.78385 -0.31673,1.32161 -0.63574,1.61328c-0.33268,0.30079 -0.90462,0.45118 -1.71582,0.45118c-0.58789,0 -1.21224,-0.04785 -1.87305,-0.14356l-0.25293,-1.53809c0.78841,0.14128 1.43327,0.21192 1.93458,0.21192c0.34635,0 0.57194,-0.05241 0.67675,-0.15723c0.11849,-0.11393 0.21648,-0.4694 0.29395,-1.0664c0.22331,-1.76823 0.3418,-3.56836 0.35547,-5.40039h-3.48633c-0.17318,1.8776 -0.57194,3.3815 -1.19629,4.51171c-0.8112,1.46289 -2.03028,2.65691 -3.65723,3.58204l-1.03906,-1.2168c1.02083,-0.56055 1.89128,-1.26465 2.61133,-2.11231c0.54232,-0.63802 0.94336,-1.36035 1.20312,-2.16699c0.25065,-0.76107 0.42155,-1.62695 0.5127,-2.59765h-4.10156zM182.54689,230.7949c1.04818,0.64258 2.33562,1.52442 3.86231,2.64551l0.2666,0.19824c1.08463,-1.61328 1.94368,-3.28353 2.57715,-5.01074l1.49707,0.69727c-0.73828,1.76823 -1.67252,3.52734 -2.80273,5.27734c1.33529,0.98437 2.5817,2.07129 3.73925,3.26074l-1.08007,1.23731c-0.7155,-0.78386 -1.8252,-1.79786 -3.32911,-3.042l-0.25293,-0.20507c-1.70898,2.06901 -3.72102,3.77115 -6.03613,5.10644l-0.99121,-1.36035c2.05078,-1.05273 3.97851,-2.63411 5.7832,-4.74414c-1.30794,-0.95703 -2.67057,-1.89584 -4.08789,-2.81641zM194.626,229.09959h9.0166v1.40137h-9.0166zM193.64846,232.4492h11.38183c-0.20052,1.98698 -0.61523,3.54102 -1.24414,4.66211c-0.47395,0.8431 -1.0664,1.5153 -1.77734,2.0166c-1.20313,0.85677 -2.95313,1.44466 -5.25,1.76367l-0.69043,-1.38769c2.02799,-0.19597 3.57975,-0.66081 4.65527,-1.39454c1.39453,-0.94335 2.19434,-2.36295 2.39942,-4.25878h-9.47461zM216.67873,234.62986h2.39258l0.64941,0.56055c-0.91145,1.81836 -2.03255,3.25619 -3.36328,4.31348c-1.10742,0.87955 -2.57259,1.56542 -4.39551,2.05761l-0.86816,-1.23047c1.92773,-0.44205 3.42252,-1.07779 4.48437,-1.90722c-0.41927,-0.38281 -0.91829,-0.78158 -1.49707,-1.19629c-0.47395,0.35547 -1.03678,0.68815 -1.68847,0.99805l-1.0459,-0.97754c0.92057,-0.38281 1.71354,-0.82943 2.37891,-1.33985c0.77929,-0.60612 1.47884,-1.37174 2.09863,-2.29687l1.34668,0.29394c-0.19141,0.29167 -0.35547,0.5332 -0.49219,0.72461zM215.70803,235.79197c-0.23243,0.24609 -0.46257,0.47168 -0.69043,0.67676c0.50586,0.30078 1.01628,0.66081 1.53125,1.08008c0.57877,-0.61979 1.01399,-1.20541 1.30566,-1.75684zM208.54397,235.66209l-0.082,0.21191c-0.44661,1.16211 -0.95703,2.167 -1.53125,3.01465l-0.79296,-1.4834c0.99805,-1.20312 1.75456,-2.63183 2.26953,-4.28613h-2.01661v-1.29883h2.15333v-1.75683c-0.47396,0.08659 -1.02084,0.16406 -1.64063,0.23242l-0.48535,-1.10742c1.8457,-0.23698 3.35188,-0.57878 4.51855,-1.02539l0.84082,1.10742c-0.66992,0.23242 -1.28515,0.4056 -1.8457,0.51953v2.03027h1.75v1.29883h-1.75v0.99805c0.69727,0.48307 1.33301,1.01855 1.90723,1.60644l-0.81348,1.26465c-0.40104,-0.56966 -0.76562,-1.03906 -1.09375,-1.4082v5.83105h-1.38769zM215.87893,229.07225h2.73437l0.62891,0.57421c-0.90235,1.44922 -1.9528,2.67058 -3.15137,3.66407c-1.03906,0.85677 -2.3789,1.58137 -4.01953,2.17382l-0.9502,-1.12109c1.43099,-0.4056 2.65235,-0.96387 3.66407,-1.6748c-0.42383,-0.40105 -0.86133,-0.76107 -1.3125,-1.08008c-0.28711,0.22787 -0.6403,0.47396 -1.05957,0.73828l-1.03907,-0.88184c1.53581,-0.83398 2.73438,-1.9733 3.59571,-3.41797l1.37402,0.31446c-0.19597,0.30989 -0.35091,0.54687 -0.46484,0.71094zM214.92873,230.2617c-0.19141,0.20963 -0.38965,0.41015 -0.59473,0.60156c0.57878,0.37825 1.0573,0.72461 1.43555,1.03906c0.61068,-0.5332 1.11882,-1.08007 1.52442,-1.64062zM229.52346,231.00682l0.0684,-2.89844h1.37402l-0.0615,2.89844h2.59082c-0.0456,5.09505 -0.23701,8.18033 -0.57422,9.25586c-0.14583,0.46484 -0.41016,0.76106 -0.79297,0.88867c-0.19597,0.06836 -0.48763,0.10254 -0.875,0.10254c-0.50586,0 -0.98438,-0.0319 -1.43555,-0.0957l-0.2666,-1.44238c0.52409,0.10026 0.98665,0.15039 1.3877,0.15039c0.32357,0 0.53092,-0.08887 0.62207,-0.2666c0.08659,-0.17318 0.1709,-0.59245 0.25293,-1.25781c0.16406,-1.32162 0.26888,-3.20378 0.31445,-5.64649l0.007,-0.34179h-1.31934c-0.07747,2.02343 -0.31901,3.70052 -0.72461,5.03125c-0.49675,1.62239 -1.27376,2.96907 -2.33105,4.04003l-1.1211,-0.86816c0.22331,-0.20963 0.40332,-0.39648 0.54004,-0.56055c-2.27865,0.41471 -4.46159,0.72233 -6.54883,0.92286l-0.30761,-1.292c1.13476,-0.06836 2.21256,-0.15267 3.23339,-0.25293v-0.95019h-2.93945v-1.08008h2.93945v-0.7793h-2.61816v-4.49121h2.61816v-0.75879h-3.15136v-1.0664h3.15136v-0.6084c-0.68815,0.06836 -1.472,0.1276 -2.35156,0.17773l-0.49219,-1.05273c2.1875,-0.09115 4.1403,-0.32813 5.8584,-0.71094l0.7793,0.99121c-0.74284,0.18685 -1.5586,0.33497 -2.44727,0.44434v0.75879h3.0625v0.75879zM229.46196,232.3535h-1.52441v-1.03907h-3.03516v0.75879h2.65918v4.49121h-2.65918v0.7793h2.83008v1.08008h-2.83008v0.81347l0.57422,-0.0547c0.76563,-0.07747 1.59278,-0.19141 2.48145,-0.3418c0.85677,-1.56315 1.35351,-3.66406 1.49023,-6.30273zM223.59673,232.99607h-1.4834v0.86817h1.4834zM224.86138,232.99607v0.86817h1.52441v-0.86817zM223.59673,234.70506h-1.4834v0.93652h1.4834zM224.86138,234.70506v0.93652h1.52441v-0.93652z" stroke-linejoin="miter"/><path d="M198.19726,188.60549c0.02657,0.00687 0.04914,0.02436 0.06244,0.04837c0.0133,0.024 0.01614,0.05242 0.00788,0.07858c-0.38913,1.27118 -0.84763,2.46993 -1.37109,3.59766v11.27148c-0.00022,0.05492 -0.04469,0.09939 -0.09961,0.09961h-1.74219c-0.05492,-0.00022 -0.09939,-0.04469 -0.09961,-0.09961v-7.875c-0.41184,0.5996 -0.8493,1.20119 -1.3457,1.8125c-0.02155,0.0267 -0.05529,0.04048 -0.08937,0.03652c-0.03408,-0.00396 -0.06375,-0.02512 -0.0786,-0.05605l-0.82812,-1.75c-0.01776,-0.03591 -0.01238,-0.07894 0.01367,-0.10937c0.9613,-1.11118 1.80018,-2.46376 2.51563,-4.06055c0.4147,-0.92272 0.83804,-2.04216 1.26953,-3.35742c0.01615,-0.05093 0.06947,-0.08017 0.12109,-0.06641zM201.65234,188.51174c0.02675,0.00564 0.05003,0.02198 0.06442,0.04522c0.01439,0.02325 0.01864,0.05137 0.01175,0.07783c-0.1912,0.70594 -0.40147,1.38013 -0.625,2.03125h6.97461c0.05492,0.00022 0.09938,0.04468 0.09961,0.0996v1.53907c-0.00022,0.05492 -0.04469,0.09939 -0.09961,0.09961h-4.66602v2.05078h3.70508c0.05492,0.00022 0.09939,0.04469 0.09961,0.09961v1.4375c-0.00022,0.05492 -0.04469,0.09939 -0.09961,0.09961h-3.70508v2.03515h4.04102c0.05492,0.00022 0.09939,0.04469 0.09961,0.09961v1.46875c-0.00022,0.05492 -0.04469,0.09939 -0.09961,0.09961h-4.04102v3.80664c-0.00022,0.05492 -0.04469,0.09939 -0.09961,0.09961h-1.67969c-0.05492,-0.00022 -0.09939,-0.04469 -0.09961,-0.09961v-11.19726h-1.12695c-0.53561,1.298 -1.20909,2.47359 -2.03906,3.50976c-0.01898,0.02375 -0.04773,0.03757 -0.07812,0.03757c-0.0304,0 -0.05915,-0.01383 -0.07812,-0.03757l-1.13281,-1.39062c-0.02925,-0.03653 -0.02925,-0.08847 0,-0.125c1.3175,-1.65334 2.25403,-3.69492 2.80859,-6.13086c0.01189,-0.053 0.06392,-0.08682 0.11719,-0.07617zM183.99999,188.27346l0.89063,1.13281c0.02159,0.02672 0.02796,0.06266 0.01685,0.09517c-0.0111,0.03251 -0.03812,0.05705 -0.07154,0.06499c-0.82693,0.208 -1.73847,0.36993 -2.7207,0.49414v0.68359h3.40039c0.05492,0.00022 0.09939,0.04469 0.09961,0.09961v0.76758h1.58398l0.07617,-3.21485c0.00128,-0.05415 0.04544,-0.09745 0.09961,-0.09765h1.57031c0.02673,0.0001 0.0523,0.0109 0.07101,0.02998c0.01871,0.01908 0.02901,0.04486 0.0286,0.07158l-0.06836,3.21094h2.85938c0.05492,0.00022 0.09939,0.04469 0.09961,0.09961c-0.02605,2.91251 -0.09357,5.25165 -0.20312,7.01758c-0.10956,1.76591 -0.25777,2.95436 -0.45703,3.58984c-0.17304,0.55156 -0.50173,0.92341 -0.96875,1.08008c-0.24331,0.08484 -0.58461,0.12304 -1.0332,0.12304c-0.58233,0 -1.13354,-0.03577 -1.6543,-0.10937c-0.04279,-0.00631 -0.07667,-0.0394 -0.08398,-0.08203l-0.30469,-1.64844c-0.00556,-0.03231 0.00506,-0.06529 0.02844,-0.08828c0.02338,-0.02299 0.05654,-0.03306 0.08875,-0.02695c0.59433,0.11372 1.11641,0.16992 1.56641,0.16992c0.35148,0 0.53885,-0.08963 0.62109,-0.25c0.0817,-0.1634 0.18594,-0.64708 0.2793,-1.4043c0.18671,-1.50407 0.30733,-3.6536 0.35938,-6.44336l0.00586,-0.28906h-1.32031c-0.09341,2.26708 -0.35896,4.17243 -0.81836,5.67969c-0.57172,1.86726 -1.46889,3.42185 -2.68945,4.6582c-0.03559,0.03481 -0.09138,0.03814 -0.13086,0.00781l-1.28125,-0.99219c-0.02268,-0.01784 -0.03655,-0.0446 -0.03805,-0.07342c-0.0015,-0.02882 0.00953,-0.05688 0.03024,-0.07697c0.17194,-0.16142 0.28845,-0.29325 0.41406,-0.42968c-2.49798,0.44702 -4.90679,0.79501 -7.20312,1.01562c-0.04983,0.00509 -0.09574,-0.02746 -0.10742,-0.07617l-0.35156,-1.47656c-0.00687,-0.02883 -0.0006,-0.05923 0.01712,-0.08299c0.01772,-0.02376 0.04508,-0.03843 0.07467,-0.04006c1.26418,-0.07616 2.46156,-0.17046 3.60156,-0.28125v-0.89453h-3.25976c-0.05492,-0.00022 -0.09939,-0.04469 -0.09961,-0.09961v-1.23438c0.00022,-0.05492 0.04469,-0.09938 0.09961,-0.0996h3.25976v-0.69141h-2.89258c-0.05492,-0.00022 -0.09939,-0.04469 -0.09961,-0.09961v-5.13281c0.00022,-0.05492 0.04469,-0.09939 0.09961,-0.09961h2.89258v-0.66797h-3.50195c-0.05492,-0.00022 -0.09939,-0.04469 -0.09961,-0.09961v-1.21875c0.00022,-0.05492 0.04469,-0.09939 0.09961,-0.09961h3.50195v-0.48828c-0.7647,0.0743 -1.61661,0.14031 -2.58203,0.19531c-0.04042,0.00223 -0.07821,-0.02013 -0.0957,-0.05664l-0.5625,-1.20312c-0.01427,-0.03026 -0.01247,-0.06565 0.00479,-0.0943c0.01727,-0.02865 0.04772,-0.04677 0.08114,-0.04828c2.49527,-0.10397 4.72135,-0.37464 6.67773,-0.81055c0.03719,-0.0082 0.07581,0.00543 0.09961,0.03516zM296.33597,188.29885c0.05492,0.00022 0.09939,0.04469 0.09961,0.09961v1.64258h6.01757c0.05492,0.00022 0.09939,0.04468 0.09961,0.0996v3.61719c-0.00022,0.05492 -0.04469,0.09939 -0.09961,0.09961h-1.5957v0.93946c-0.00022,0.05492 -0.04469,0.09938 -0.09961,0.0996h-4.29101v2.19141h5.25195c0.05492,0.00022 0.09939,0.04469 0.09961,0.09961v1.45312c-0.00022,0.05492 -0.04469,0.09939 -0.09961,0.09961h-5.25195v2.49415c0.85298,0.13649 1.77656,0.21289 2.7832,0.21289h4.05469c0.03467,-0.0001 0.06692,0.01777 0.08522,0.04721c0.0183,0.02945 0.02005,0.06627 0.00462,0.09732c-0.25666,0.51332 -0.44703,1.05483 -0.57031,1.625c-0.01025,0.04569 -0.05083,0.07816 -0.09766,0.07812h-3.49218c-2.12254,0 -3.80415,-0.25267 -5.04688,-0.76562c-1.16167,-0.47894 -2.11749,-1.27398 -2.88477,-2.34961c-0.60658,1.40575 -1.33263,2.60444 -2.20703,3.54492c-0.01951,0.0205 -0.04679,0.03178 -0.07508,0.03103c-0.02829,-0.00075 -0.05494,-0.01344 -0.07335,-0.03494l-1.21094,-1.45312c-0.03309,-0.03837 -0.03225,-0.09543 0.00195,-0.13281c1.45361,-1.57217 2.36231,-3.60701 2.72461,-6.11719c0.00346,-0.02687 0.01768,-0.05119 0.0394,-0.06739c0.02172,-0.0162 0.04908,-0.02289 0.07583,-0.01855l1.77344,0.27344c0.02698,0.00434 0.051,0.01952 0.0665,0.04203c0.01549,0.0225 0.02111,0.05037 0.01553,0.07711c-0.16291,0.80437 -0.32094,1.46813 -0.47461,2.01172c0.5923,1.03912 1.45874,1.80364 2.58204,2.32812v-5.76758h-4.23633c-0.05492,-0.00022 -0.09939,-0.04468 -0.09961,-0.0996v-0.93946h-1.5957c-0.05492,-0.00022 -0.09939,-0.04469 -0.09961,-0.09961v-3.61719c0.00022,-0.05492 0.04469,-0.09938 0.09961,-0.0996h5.88476v-1.64258c0.00022,-0.05492 0.04469,-0.09939 0.09961,-0.09961zM250.58597,188.61916c0.05492,0.00022 0.09939,0.04469 0.09961,0.09961v2.05664h4.50976c0.05492,0.00022 0.09939,0.04469 0.09961,0.09961v1.50781c-0.00022,0.05492 -0.04469,0.09939 -0.09961,0.09961h-4.50976v3.24219v0.00195c0.17843,0.63495 0.27343,1.20682 0.27343,1.71094c0,1.86887 -0.4119,3.25867 -1.2539,4.1543c-0.90912,0.97291 -2.27101,1.63852 -4.07617,2.00586c-0.04005,0.00818 -0.08104,-0.00884 -0.10352,-0.04297l-0.89062,-1.32813c-0.01797,-0.02782 -0.021,-0.06273 -0.0081,-0.09323c0.0129,-0.0305 0.04007,-0.05263 0.07255,-0.05911c1.38254,-0.26408 2.40233,-0.63907 3.05469,-1.10938c0.51564,-0.37539 0.81785,-0.91887 1.04687,-1.52343c-0.12032,0.10362 -0.24586,0.19302 -0.375,0.27148c-0.40105,0.2835 -0.83303,0.48047 -1.33203,0.48047c-0.88345,0 -1.6137,-0.25215 -2.16992,-0.75977c-0.65347,-0.59945 -0.97656,-1.47177 -0.97656,-2.58984c0,-0.59404 0.1411,-1.16734 0.42382,-1.7168c0.00064,-0.00066 0.0013,-0.00131 0.00196,-0.00195c0.1874,-0.35338 0.41953,-0.65074 0.69531,-0.88867c0.63212,-0.5357 1.39582,-0.80469 2.27539,-0.80469c0.50767,0 0.96159,0.14587 1.38477,0.36524v-1.31446h-7.61133c-0.05492,-0.00022 -0.09939,-0.04469 -0.09961,-0.09961v-1.50781c0.00022,-0.05492 0.04469,-0.09939 0.09961,-0.09961h7.61133v-2.05664c0.00022,-0.05492 0.04468,-0.09939 0.0996,-0.09961zM231.49222,188.86135c0.05492,0.00022 0.09939,0.04469 0.09961,0.09961v5.03125c-0.00022,0.05492 -0.04469,0.09939 -0.09961,0.09961h-0.78907c0.01383,0.00178 0.02714,0.00644 0.03907,0.01367c0.35272,0.60466 0.61529,1.14348 0.80469,1.63086h1.45117c0.30687,-0.5797 0.55662,-1.13038 0.73633,-1.64453h-0.67969c-0.05492,-0.00022 -0.09939,-0.04469 -0.09961,-0.09961v-5.03125c0.00022,-0.05492 0.04469,-0.09939 0.09961,-0.09961h6.32031c0.05492,0.00022 0.09939,0.04469 0.09961,0.09961v13.10156c0,0.60059 -0.15701,1.03903 -0.49414,1.27734c-0.00065,0.00001 -0.0013,0.00001 -0.00195,0c-0.25687,0.18097 -0.63691,0.25977 -1.14258,0.25977c-0.46803,0 -0.93638,-0.03065 -1.4043,-0.09375c-0.0422,-0.00606 -0.07592,-0.03822 -0.08398,-0.08008l-0.30078,-1.58398l-0.79883,0.92578c-0.01809,0.02113 -0.04417,0.03377 -0.07197,0.03488c-0.0278,0.00111 -0.0548,-0.0094 -0.07452,-0.02902c-0.75615,-0.75111 -1.64124,-1.48307 -2.63476,-2.20117c-0.27701,0.56201 -0.65654,1.07416 -1.1836,1.51171c-0.57051,0.47454 -1.36496,0.88738 -2.38281,1.24414c-0.04238,0.01492 -0.08952,-0.00025 -0.11523,-0.0371l-0.86719,-1.26563c-0.01803,-0.02646 -0.0223,-0.05997 -0.01148,-0.09011c0.01082,-0.03014 0.03542,-0.05328 0.06617,-0.06223c1.77271,-0.48527 2.80443,-1.33878 3.21289,-2.52344h-3.35743c-0.05492,-0.00022 -0.09939,-0.04469 -0.09961,-0.09961v-1.26562c0.00022,-0.05492 0.04469,-0.09939 0.09961,-0.09961h3.58007v-0.76172h-3.16601c-0.05492,-0.00022 -0.09939,-0.04469 -0.09961,-0.09961v-1.1875c0.00022,-0.05492 0.04469,-0.09939 0.09961,-0.09961h1.46679c-0.17931,-0.34419 -0.36593,-0.67604 -0.57226,-0.97656c-0.01749,-0.0253 -0.02236,-0.05725 -0.0132,-0.08661c0.00915,-0.02937 0.03131,-0.05289 0.06007,-0.06378l1.36133,-0.51758h-3.5v9.50976c-0.00022,0.05492 -0.04469,0.09939 -0.09961,0.09961h-1.67969c-0.05492,-0.00022 -0.09939,-0.04469 -0.09961,-0.09961v-14.64062c0.00022,-0.05492 0.04469,-0.09939 0.09961,-0.09961zM284.59378,188.86135c0.05492,0.00022 0.09939,0.04469 0.09961,0.09961v3.80468c0,0.0809 0.00748,0.14415 0.01758,0.18555c0.0097,0.0397 0.02053,0.05369 0.02148,0.05469h0.00196c0.03684,0.0278 0.13381,0.05859 0.28906,0.05859c0.22008,0 0.35055,-0.04406 0.37695,-0.06836c0.00191,-0.00137 0.00386,-0.00267 0.00586,-0.0039c-0.0072,0.0057 0.01535,-0.02203 0.03125,-0.08203c0.0157,-0.05962 0.03092,-0.14912 0.04102,-0.26172c0.0519,-0.59768 0.08093,-1.06097 0.08593,-1.38477c0.00062,-0.03129 0.01586,-0.06049 0.04117,-0.0789c0.02531,-0.01841 0.05778,-0.02391 0.08774,-0.01485l1.46094,0.46094c0.04189,0.01303 0.0704,0.05183 0.07031,0.0957c-0.00536,0.60206 -0.04399,1.17704 -0.11719,1.72266v0.00195c-0.04113,0.33191 -0.15349,0.60624 -0.33984,0.8125c-0.18673,0.20669 -0.44545,0.3412 -0.76367,0.4043c-0.268,0.0547 -0.65416,0.08008 -1.16797,0.08008c-0.73236,0 -1.2324,-0.0836 -1.51953,-0.29297c-0.24773,-0.18127 -0.36133,-0.50571 -0.36133,-0.93946v-3.0332h-1.75391v0.06446c0,1.06451 -0.11372,1.94915 -0.34765,2.65624c-0.00064,0.00066 -0.0013,0.00132 -0.00196,0.00196c-0.2664,0.7779 -0.73414,1.43786 -1.39844,1.97461c-0.03983,0.03149 -0.09694,0.02813 -0.13281,-0.00781l-1.13281,-1.13282c-0.02076,-0.02094 -0.03122,-0.04998 -0.02859,-0.07935c0.00264,-0.02937 0.0181,-0.05608 0.04226,-0.07299c0.63511,-0.44357 1.0253,-1.0764 1.17774,-1.91992c0.07142,-0.40332 0.10742,-0.90058 0.10742,-1.49024v-1.51562c0.00022,-0.05492 0.04469,-0.09939 0.09961,-0.09961zM277.81253,188.87697c0.05492,0.00022 0.09939,0.04469 0.09961,0.09961v1.3125c-0.00022,0.05492 -0.04469,0.09939 -0.09961,0.09961h-4.96094c-0.05492,-0.00022 -0.09939,-0.04469 -0.09961,-0.09961v-1.3125c0.00022,-0.05492 0.04469,-0.09939 0.09961,-0.09961zM212.36136,189.18166c0.02763,0.00293 0.0528,0.01722 0.06947,0.03945c0.01667,0.02223 0.02334,0.05039 0.01842,0.07774c-0.42057,2.32611 -0.63086,4.95336 -0.63086,7.88086c0,1.96504 0.10999,3.80295 0.32813,5.51172c0.00318,0.02643 -0.0043,0.05304 -0.0208,0.07394c-0.0165,0.02089 -0.04064,0.03435 -0.06709,0.03738l-1.78125,0.22657c-0.02643,0.00319 -0.05304,-0.0043 -0.07394,-0.02079c-0.0209,-0.0165 -0.03435,-0.04065 -0.03739,-0.0671c-0.19833,-1.77445 -0.29687,-3.5392 -0.29687,-5.29297c0,-3.00492 0.2204,-5.85875 0.66406,-8.5625c0.00824,-0.05268 0.05636,-0.08962 0.10938,-0.08399zM267.25003,189.16604c0.03378,-0.00017 0.06537,0.01672 0.08398,0.04492l0.83594,1.29687c0.01502,0.02265 0.02017,0.05043 0.01428,0.07696c-0.00589,0.02653 -0.02233,0.04951 -0.04553,0.06367c-2.53509,1.5503 -4.68823,2.93968 -6.58789,4.22461c0.10267,-0.03696 0.20586,-0.05674 0.3086,-0.0918c0.13785,-0.04544 0.27608,-0.08379 0.41406,-0.12305c0.87501,-0.27255 1.75161,-0.48437 2.63281,-0.48437c1.17207,0 2.15569,0.18633 2.94922,0.56445c0.73243,0.3503 1.3072,0.83016 1.71875,1.43945c0.00066,0.00064 0.00131,0.0013 0.00195,0.00196c0.42764,0.64681 0.64063,1.39187 0.64063,2.22656c0,1.16856 -0.40229,2.15708 -1.20118,2.94531c-0.5488,0.54882 -1.25076,0.96407 -2.10156,1.24414c-1.11009,0.36302 -2.32417,0.54297 -3.64062,0.54297c-1.51756,0 -2.6502,-0.27913 -3.39063,-0.85742c-0.57897,-0.45452 -0.87304,-1.08183 -0.87304,-1.85156c0,-0.58658 0.21397,-1.1152 0.63476,-1.56836c0.63385,-0.6822 1.49847,-1.02344 2.56641,-1.02344c1.13175,0 2.05323,0.38506 2.73828,1.15039c0.47216,0.52801 0.79485,1.2498 1.01367,2.10742c0.74122,-0.24912 1.31779,-0.58109 1.6875,-1.01562c0.38549,-0.45308 0.57813,-1.00578 0.57813,-1.67383c0,-1.01383 -0.41034,-1.73887 -1.25391,-2.21875c-0.56419,-0.32239 -1.28649,-0.48633 -2.16992,-0.48633c-1.32934,0 -2.52569,0.18316 -3.5918,0.54883c-0.00065,0.00001 -0.0013,0.00001 -0.00195,0c-0.7763,0.26384 -1.84213,0.91407 -3.18164,1.94727c-0.04248,0.03195 -0.10254,0.02509 -0.13672,-0.01563l-1.10156,-1.32812c-0.03547,-0.04211 -0.03024,-0.10497 0.01171,-0.14063c1.45101,-1.25267 3.10175,-2.5224 4.95313,-3.81055c1.16909,-0.8112 2.17635,-1.45227 3.09375,-1.99804h-6.36523c-0.05492,-0.00022 -0.09939,-0.04469 -0.09961,-0.09961v-1.53907c0.00022,-0.05492 0.04469,-0.09938 0.09961,-0.0996zM227.04495,190.86135h2.8086v-0.62891h-2.8086zM234.70901,190.86135h2.88672v-0.62891h-2.88672zM222.46096,190.4551c0.05492,0.00022 0.09939,0.04469 0.09961,0.09961v1.66406c-0.00022,0.05492 -0.04469,0.09939 -0.09961,0.09961h-7.50781c-0.05492,-0.00022 -0.09939,-0.04469 -0.09961,-0.09961v-1.66406c0.00022,-0.05492 0.04469,-0.09939 0.09961,-0.09961zM278.51565,191.16604c0.05492,0.00022 0.09939,0.04468 0.09961,0.0996v1.40626c-0.00022,0.05492 -0.04469,0.09938 -0.09961,0.0996h-6.5625c-0.05491,-0.00022 -0.09938,-0.04469 -0.0996,-0.0996v-1.40626c0.00022,-0.05491 0.04469,-0.09938 0.0996,-0.0996zM290.41995,193.21291h10.20703v-1.50391h-10.20703zM227.04495,192.75979h2.8086v-0.66016h-2.8086zM234.70901,192.75979h2.88672v-0.66016h-2.88672zM182.11526,192.8301h2.93945c0.05492,0.00022 0.09939,0.04469 0.09961,0.09961v5.13281c-0.00022,0.05492 -0.04469,0.09939 -0.09961,0.09961h-2.93945v0.69141h3.13477c0.05492,0.00022 0.09938,0.04468 0.09961,0.0996v1.23438c-0.00022,0.05492 -0.04469,0.09939 -0.09961,0.09961h-3.13477v0.7207l0.54688,-0.05273c0.85553,-0.08658 1.78198,-0.21616 2.77344,-0.38281c0.95667,-1.76393 1.52111,-4.13203 1.67578,-7.11719c-0.00001,-0.00065 -0.00001,-0.00131 0,-0.00196l0.00781,-0.10351h-1.63477c-0.05492,-0.00022 -0.09939,-0.04469 -0.09961,-0.09961v-1.08789h-3.26953zM277.81253,193.56447c0.05492,0.00022 0.09939,0.04469 0.09961,0.09961v1.29688c-0.00022,0.05492 -0.04469,0.09939 -0.09961,0.09961h-4.96094c-0.05492,-0.00022 -0.09939,-0.04469 -0.09961,-0.09961v-1.29688c0.00022,-0.05492 0.04469,-0.09939 0.09961,-0.09961zM178.92776,194.87697h1.49609v-0.79297h-1.49609zM182.06838,194.87697h1.54297v-0.79297h-1.54297zM235.37111,194.459c0.02793,0.00783 0.05108,0.02741 0.06345,0.05364c0.01237,0.02624 0.01274,0.05655 0.00101,0.08308c-0.19864,0.43885 -0.41063,0.8052 -0.62696,1.14063h1.57422c0.05492,0.00022 0.09939,0.04469 0.09961,0.09961v1.1875c-0.00022,0.05492 -0.04469,0.09939 -0.09961,0.09961h-3.25976v0.76172h3.68164c0.05492,0.00022 0.09939,0.04469 0.09961,0.09961v1.26562c-0.00022,0.05492 -0.04469,0.09939 -0.09961,0.09961h-3.49219c1.05252,0.59905 2.0648,1.25646 3.00781,2.01758c0.02102,0.01689 0.03433,0.04156 0.0369,0.06841c0.00257,0.02684 -0.0058,0.05359 -0.02323,0.07417l-0.16992,0.19531c0.40368,0.06606 0.79226,0.10156 1.16406,0.10156c0.10607,0 0.16768,-0.0259 0.20508,-0.0625c0.0374,-0.03659 0.0625,-0.0945 0.0625,-0.19726v-7.45508h-3.51953zM246.65627,195.25588c-0.00065,0.00001 -0.0013,0.00001 -0.00195,0c-0.54657,0.34285 -0.8125,0.85313 -0.8125,1.57226c0,0.45394 0.10049,0.82843 0.29687,1.13282c0.27548,0.42306 0.66367,0.62695 1.20508,0.62695c0.48566,0 0.85471,-0.20866 1.14258,-0.65039c0.2022,-0.31069 0.30469,-0.67735 0.30469,-1.10938v-0.28906c0,-0.31771 -0.07458,-0.5914 -0.22071,-0.83008c-0.27709,-0.45522 -0.65655,-0.67187 -1.17969,-0.67187c-0.26273,0 -0.50422,0.07185 -0.73437,0.21875zM285.53908,195.41604c0.0245,0.00004 0.04813,0.00908 0.06641,0.02539l0.84375,0.76562c0.03286,0.02959 0.04239,0.07724 0.02344,0.11719c-0.69276,1.49249 -1.53092,2.74241 -2.49414,3.78711c0.97059,0.69077 2.08514,1.2917 3.36914,1.78711c0.02765,0.01043 0.04928,0.03255 0.05908,0.06043c0.0098,0.02788 0.00676,0.05867 -0.0083,0.0841l-0.92969,1.55469c-0.02645,0.04434 -0.0823,0.06127 -0.12891,0.03906c-1.56632,-0.73438 -2.79432,-1.47317 -3.7207,-2.22266c-1.15175,0.95904 -2.30943,1.72303 -3.47461,2.26953c-0.04515,0.02174 -0.09941,0.00672 -0.12695,-0.03515l-0.75391,-1.15625v0.30469c-0.00022,0.05492 -0.04469,0.09938 -0.09961,0.0996h-3.99414v0.70508c-0.00022,0.05492 -0.04469,0.09939 -0.09961,0.09961h-1.55469c-0.05492,-0.00022 -0.09938,-0.04469 -0.0996,-0.09961v-5.38281c0.00022,-0.05492 0.04468,-0.09939 0.0996,-0.09961h5.64844c0.05492,0.00022 0.09939,0.04469 0.09961,0.09961v3.83203c1.06573,-0.37991 2.10798,-0.97874 3.12695,-1.80469c-0.91925,-1.00192 -1.63551,-2.06517 -2.1289,-3.19336h-0.73047c-0.05492,-0.00022 -0.09939,-0.04469 -0.09961,-0.09961v-1.4375c0.00022,-0.05492 0.04469,-0.09938 0.09961,-0.0996zM277.81252,195.85354c0.05492,0.00022 0.09939,0.04468 0.09961,0.0996v1.26563c-0.00022,0.05492 -0.04469,0.09939 -0.09961,0.09961h-4.96094c-0.05492,-0.00022 -0.09939,-0.04469 -0.09961,-0.09961v-1.26563c0.00022,-0.05492 0.04469,-0.09938 0.09961,-0.0996zM178.92775,196.90822h1.49609v-0.87109h-1.49609zM182.06838,196.90822h1.54297v-0.87109h-1.54297zM216.07228,197.40822c0.02777,0.0121 0.04856,0.03614 0.05653,0.06537c0.00797,0.02923 0.00226,0.06049 -0.01552,0.08502c-0.26985,0.3798 -0.4043,0.8015 -0.4043,1.27735c0,0.57604 0.26757,0.94517 0.84961,1.16406c0.65904,0.25347 1.57382,0.38477 2.73828,0.38477c1.26123,0 2.42771,-0.08424 3.5,-0.25c0.02735,-0.00433 0.05528,0.00288 0.07712,0.01991c0.02184,0.01703 0.03564,0.04235 0.03812,0.06993l0.17969,1.73437c0.00564,0.05302 -0.03131,0.10114 -0.08398,0.10938c-1.04852,0.16249 -2.29052,0.24219 -3.72656,0.24219c-1.80927,0 -3.17477,-0.26325 -4.09961,-0.80664c-0.92484,-0.5434 -1.39844,-1.37919 -1.39844,-2.46485c0,-0.85634 0.2292,-1.61169 0.68945,-2.2539c0.02774,-0.03916 0.07938,-0.05309 0.12305,-0.03321zM282.66213,199.03713c0.00066,0.00064 0.00131,0.00129 0.00195,0.00195c0.63377,-0.73275 1.06912,-1.39189 1.33203,-1.98633h-2.8789c0.40954,0.70602 0.90661,1.37487 1.54492,1.98438zM261.01174,199.9551c-0.00064,0.00066 -0.00129,0.00131 -0.00195,0.00195c-0.11427,0.15711 -0.16797,0.31924 -0.16797,0.49609c0,0.18211 0.06071,0.3338 0.1914,0.47266c0.1307,0.13886 0.33534,0.26262 0.61719,0.36328c0.40554,0.14019 0.96064,0.21289 1.66211,0.21289c0.25783,0 0.58586,-0.02358 0.93945,-0.05468c-0.18051,-0.64874 -0.41716,-1.17037 -0.73828,-1.4961c-0.34583,-0.35079 -0.76812,-0.52344 -1.28711,-0.52344c-0.5778,0 -0.96943,0.17606 -1.21484,0.52735zM274.16994,201.36916h2.32422v-1.70703h-2.32422z" stroke-linejoin="round"/></g></g></g></svg>