<svg version="1.1" xmlns="http://www.w3.org/2000/svg" xmlns:xlink="http://www.w3.org/1999/xlink" width="70.6872" height="140.2944" viewBox="0,0,70.6872,140.2944"><g transform="translate(199.38919,-280.7571)"><g data-paper-data="{&quot;isPaintingLayer&quot;:true}" fill="#ff0000" fill-rule="evenodd" stroke="none" stroke-width="0" stroke-linecap="round" stroke-linejoin="round" stroke-miterlimit="10" stroke-dasharray="" stroke-dashoffset="0" style="mix-blend-mode: normal"><path d="M-130.68191,362.58384l1.70993,2.4799l-0.64997,0.98996v1.38995l0.62998,2.93988l-1.02996,0.27999l-0.32998,0.93997l-1.38995,1.01996l0.96996,1.00995l-0.25999,1.13995l0.86996,1.41994l1.45994,1.31995l-0.50998,2.4599l-0.42998,0.53998l-0.35999,1.99992l-1.25995,0.26999l1.28994,1.41994l-0.04999,0.85996l-1.95992,0.83997l-1.25995,0.90997l-0.07,0.89996l0.70998,1.32995l-0.40999,0.94996l-0.88997,-0.70997l-1.27995,0.04l-1.07995,0.97996l-0.99996,-0.30999l-0.98996,0.33999l-0.62998,1.50994l-1.86992,1.15995l-0.38999,1.36995l0.28999,1.10995l-0.21999,1.39995l-0.84996,0.72997l0.89996,0.99996l-1.06995,2.87988l-3.06988,0.56998l-0.43998,0.80997l-0.82997,4.18984l-1.43994,1.30994l-0.02,1.46994l-2.4099,0.98996l-0.86996,1.47994l-1.31995,1.06996l-0.99996,-0.07l-1.16996,1.28994l-1.30994,-0.34998l-0.64997,0.95996l-0.02,2.62989l-1.02996,1.32995l-0.77997,0.25999l-1.15995,1.41994l-1.41994,-0.90996l-1.98992,0.13999l-1.23995,0.96997l-0.73997,-1.23995l-1.11996,-0.94997l-0.79997,0.27999l-2.85989,-0.29999l-0.35998,-1.83992l-1.00996,-0.44998l-1.40994,-2.37991l-0.89996,-0.58998l-1.35994,0.38999l-1.88993,-0.16999l0.90996,-2.89989l0.17999,-3.12987l0.40998,-2.11991l1.51994,-2.01992l0.63998,-1.50994l0.97996,-0.92996l1.00996,-2.00992l0.53997,-0.46998l1.18995,-2.28991l0.54998,-2.09992l0.04,-3.10987l-0.31998,-0.75997l1.38994,-0.65998l2.4899,0.59997l1.32995,-2.3199l0.30998,-1.70993l0.12999,-2.67989l-0.63997,-1.56993l1.09996,-0.73998l0.27998,-2.03991l0.46999,-0.74997l-0.27999,-1.69993l0.48998,-1.06995l-0.06,-1.48994l-0.76997,-3.96984l-0.56998,-0.99996l0.60997,-1.78993l-0.54998,-0.63998l-0.80997,-3.26987l-1.58993,-0.50998l0.25999,-0.71997l-0.96996,-2.65989l-0.98996,-0.88997l-0.23,-0.85996l-1.19995,-1.14995l-0.14,-0.75997l1.63994,-1.05996l1.65994,-0.67997l3.26986,0.51998l1.00996,-0.45998l0.81997,1.11995l2.03991,-0.74997l1.80993,0.21l0.04,-1.50994l0.50998,-1.05996l1.37995,-0.08999l0.90996,-0.67998l0.71997,1.06996l-0.84997,0.86996l2.5699,1.77993l0.20999,0.66997l2.5099,0.87996l0.81996,0.74997l3.04988,-0.61998l0.98996,1.50994l1.01996,-0.45998l1.17995,0.34998l0.78997,0.88997l0.94996,-1.00996l1.77993,0.05l0.94997,1.78993l1.24995,0.63998l2.3299,-0.04l0.50998,0.28999l2.4499,1.50994"/><path d="M-157.18085,284.98694l1.18995,0.73998l1.03996,1.15995l1.70993,-0.04l0.33998,0.92996l1.29995,-0.39998l0.28999,1.77993l1.81993,0.98996l-1.05996,2.62989l-1.59994,1.89992l-0.36998,1.94992l-1.02996,1.94993l-1.45994,1.29994l0.38999,1.37995l0.15999,2.68989l0.97996,1.79993l-0.08,1.29995l0.55998,1.94992l0.56997,0.83997l-0.75997,1.12995l-1.26995,0.32999l-2.97988,1.83992l-2.6899,0.91996l-1.26995,2.14991l-1.39995,-0.19999l-0.84996,1.99992l-2.67989,0.13l-1.20996,0.98996l0.66998,0.70997l-0.97996,2.97988l0.31999,0.82997l-1.76993,1.36995l-0.98996,1.59994l-0.74997,0.26999l-0.99996,-0.87996l-1.37994,0.19999l-0.71997,3.29987l1.04996,0.21999l-0.34999,1.14995l0.78997,1.47994l0.36998,1.85992l-0.77997,0.36998l-1.41994,-0.17999l-1.31995,1.43994l0.07,1.04996l-1.18995,0.74997l-2.23992,-1.09996l-0.63997,0.19999l-1.15995,1.72993l-1.42995,1.06996l-0.03999,2.11991l-0.88997,1.94993l0.16999,1.82993l-0.78997,0.58997l-1.67994,-4.08983l-0.85997,-1.23995l-0.13,-1.18995l-1.25995,-0.96997l-0.16999,-2.2699l-1.67994,-1.50994l-1.03996,0.33998l-2.77988,-1.03996l-1.15996,0.18999l-0.18999,-0.84996l-1.22995,0.01999l-0.63997,-0.61997l-0.46998,-1.42994l-0.93996,-0.92996l-0.43999,-1.48994l1.07996,-1.75993l-1.38994,-3.48986l-0.46998,-0.21999l0.51997,-3.64986l0.86997,-3.16987l1.50994,-0.45999l0.62998,-1.32994l1.22995,-1.11996l0.15999,-0.91996l1.25995,-1.65993l0.70997,-1.63993l1.00996,-3.62986l-0.15999,-1.53994l0.83996,-2.97988l-0.64997,-1.85993l0.23999,-1.88993l-0.61997,-2.4799l0.39998,-1.89992l-1.03996,-3.70985l-0.30999,-2.85988l-0.43999,-0.46998l-0.53998,-2.36991l-0.00999,-2.4599l2.24991,-0.02l0.99996,0.58998l5.52978,-1.05996l0.67998,0.56998l2.12991,-0.17l0.38999,0.82997l-1.12996,1.57994l0.47998,0.96996l3.00988,0.19999l0.44998,0.58998l2.31991,0.70997l1.65993,-0.26999l1.08996,1.07995l0.53998,2.14992l0.99996,-0.57998l1.39995,0.88997l2.3899,-0.76997l2.2999,0.73997l1.09996,1.11996l1.37994,-0.41999l0.51998,-1.59993l1.33995,-0.60998l0.18999,-1.93992l0.89997,-0.06l0.54997,-1.74993l-0.95996,-1.04996l0.31999,-2.07992l2.09991,-0.26999l1.25995,0.76997l0.34999,1.19996l0.06,2.2599"/></g></g></svg>