<svg version="1.1" xmlns="http://www.w3.org/2000/svg" xmlns:xlink="http://www.w3.org/1999/xlink" width="60.41759" height="73.51701" viewBox="0,0,60.41759,73.51701"><g transform="translate(98.93146,-160.79726)"><g data-paper-data="{&quot;isPaintingLayer&quot;:true}" fill="#ff0000" fill-rule="evenodd" stroke="none" stroke-width="0" stroke-linecap="round" stroke-linejoin="round" stroke-miterlimit="10" stroke-dasharray="" stroke-dashoffset="0" style="mix-blend-mode: normal"><path d="M-48.75348,164.51706l0.58998,1.33995l0.89996,0.08l1.01996,1.28995l-0.05,1.37994l-0.77997,0.88996l0.25999,1.17995l-0.76997,1.57994l0.46998,2.79989l-0.84997,1.15995l0.06,0.89996l0.75997,0.43998l0.50998,3.42986l1.21995,1.20995l-0.09,0.94996l1.58994,0.42998l0.13999,0.84997l-1.42994,2.86989l0.33999,1.48994l-0.68997,0.70997l-0.02,1.03996l1.10996,1.38994l0.11,1.26995l0.87996,0.67997l1.73993,0.44998l0.34999,1.99992l0.83997,0.39998l1.08996,1.13995l0.36999,2.15991l0.41998,1.02996l-0.65997,1.29995l0.60998,1.53994l0.19999,1.43994l-0.65997,0.76997l-0.18999,0.99996l-0.13999,3.69985l-0.27999,0.55998l-2.81989,-1.69993l0.06,0.76997l2.00992,1.18995l0.52998,0.81997l-0.91996,1.46994l-1.82993,-1.46994l-0.49998,0.79997l-1.20995,0.35999l-1.04996,0.75997l-0.33999,1.55994l-0.25999,3.01988l-1.22995,1.66993l-1.53994,0.34999l-0.45998,-1.19995l-1.21995,-0.62997l-1.07996,0.25999l-0.93996,-0.24999l-0.84997,-0.76997l-1.31995,0.50998l-0.89996,-1.14995l-1.31995,0.1l-0.79997,-0.33999l-0.73997,0.68997l-1.08996,-0.25999l0.07,-0.85997l2.68989,-1.02996l0.17999,-1.48994l-0.35999,-1.66993l-1.28995,-0.38998l-1.52994,0.01l0.33999,1.40994l-0.72997,0.34999l-0.55998,1.17995l-1.20995,0.30999l-1.09996,-0.18999l-2.15991,1.15995l-3.85985,0.99996l-2.17991,1.23995l-1.01996,-0.07l-1.03996,-0.73997l-1.38994,0.03l-0.90996,2.75989l-0.24999,2.02992l-0.36999,0.60998l-2.4599,0.14999l-1.31995,1.33995l-0.97996,-0.08l-1.94992,0.43998l-0.08,-1.80993l-0.72997,-0.64997l-1.70993,0.31999l-2.4599,-1.19995l-1.04996,0.56998l-1.00996,-0.65997l0.03,-1.94992l-0.84997,-1.01996l-1.88992,-1.18995l-0.82997,-0.84997l0.33999,-0.80997l-0.41998,-2.88988l-1.01996,-0.63997l0.90996,-1.01996l-0.08,-0.60998l-1.23995,-1.76993l0.90996,-0.32999l0.58998,0.67997l1.11996,0.23999l0.49998,-1.16995l-0.87996,-0.90996l-1.80993,-3.31987l0.04,-0.56998l-0.82997,-1.38994l-1.83993,-0.19999l-1.12995,-0.50998l-0.51998,-2.4899l2.11992,-0.71997l1.18995,-1.00996l-0.51998,-1.88992l0.72997,-0.05l0.95996,-0.97996l-0.23999,-1.45994l-0.64997,-0.34999l-1.07996,-1.94992l-0.52998,-0.75997l0.62997,-1.64993l-0.51998,-0.38998l0.04,-1.14995l0.65997,-0.39998l-0.09,-1.72993l1.80993,-2.4499l2.72989,0.78997l1.47994,-0.56998l0.20999,2.21991l1.29995,1.11996l1.33995,-0.27999l0.25999,-0.92996l1.29995,-0.50998l0.26999,-0.97996l3.31987,-0.17999l0.22999,0.64997l1.08996,0.42998l1.68993,1.48994l1.16995,-0.17999l0.19999,0.82997l2.25991,-1.02996l0.12,-1.88992l1.55994,-2.07992l-0.47998,-1.24995l0.51998,-0.90996l-0.38998,-1.01996l0.70997,-1.83993l1.26995,-0.05l0.18999,-0.66997l1.58994,-1.84993l1.36995,0.18999l1.62993,-0.52998l0.22999,-0.92996l-1.96992,-2.02992l-1.02996,-0.44998l0.32999,-2.13991l0.36999,-0.70997l-0.99996,-1.71993l0.72997,-0.64997v-1.18995l1.46994,-0.75997l0.56998,-1.01996l1.33995,0.58998l2.26991,-0.42998l1.14995,-1.06996l1.45994,1.68993l1.04996,2.3899l-0.48998,0.39998l1.29995,1.27995l1.02996,-1.35995l1.62993,-0.69997l0.71997,-1.99992l0.05,-0.81997l1.12995,0.02l1.04996,0.72997l1.45994,0.01l1.46994,-0.64997l0.36999,1.49994l0.95996,1.26995l1.07996,-0.04"/><path d="M-64.25286,225.31463l1.23995,1.40994l0.04,0.56998l-1.21995,0.74997l-0.52998,0.94996l1.14995,1.01996l-0.85997,0.65997l0.30999,0.78997l-0.78997,0.54998l-1.08996,-0.68997l-0.65997,-1.40994l-1.79993,-0.81997l-1.46994,-3.28987l-0.67997,-0.31999l0.33999,-1.78993l1.03996,-0.67997l0.33999,-1.12995l2.16991,0.12l0.31999,1.67993l2.14991,1.62993"/><path d="M-69.45265,230.51442l-2.12991,1.05996l-1.11996,0.78997l-0.14999,0.67997l-1.04996,0.70997l-1.93992,0.55998l-1.50994,-1.23995l0.62997,-2.4399l1.53994,-3.20987l0.68997,0.71997l2.18991,-0.41998l1.54994,-0.77997l0.74997,0.26999l0.81997,1.64993l-0.26999,1.64993"/><path d="M-62.25294,220.51482l-0.51998,0.84997l-2.31991,0.74997l-1.28995,-1.67993l-0.64997,-1.96992l0.75997,-1.02996l1.23995,-0.12999l1.02996,-0.95996l1.51994,-0.53998l1.97992,0.30999l0.15999,1.83993l-1.55994,1.07996l-0.34999,1.47994"/><path d="M-49.85343,220.51482l-0.74997,1.80993l-1.36995,0.16999l-2.01992,1.36995l-0.49998,-0.27999l-0.45998,-1.80993l1.03996,-1.02996l1.70993,-0.53998l0.48998,1.35995l0.96996,-0.87996l0.88996,-0.16999"/><path d="M-73.0525,226.91456l-1.51994,-0.92996l0.53998,-1.12995l-0.17999,-0.72997l0.59998,-0.93996l-0.04,-0.95996l1.31995,-0.50998l0.50998,0.80997l0.37998,2.02992l-1.03996,2.09992l-0.56998,0.25999"/><path d="M-77.15234,228.61449l-0.72997,-1.45994l0.42998,-1.34995l1.24995,-0.87996l0.83997,2.3999l-0.52998,1.18995l-1.25995,0.1"/><path d="M-57.45313,224.51466l-0.21999,-1.35995l2.22991,-1.19995l0.17999,0.69997l-0.27999,1.69993l-0.60998,0.35999l-1.29995,-0.19999"/><path d="M-58.35309,219.41486l0.35999,-0.68997l1.20995,0.72997l0.36999,1.01996l-1.27995,0.54998l-0.65997,-1.60994"/><path d="M-68.75268,218.5149l0.90996,-0.66997l0.98996,1.29995l0.05,0.82997l-1.65993,-0.05l-0.28999,-1.40994"/><path d="M-41.25378,223.61469l0.85997,-0.82997l1.18995,1.19995l-0.40998,0.55998l-1.40994,-0.32999l-0.22999,-0.59998"/></g></g></svg>