<?xml version="1.0" encoding="UTF-8"?>
<svg width="480" height="360" version="1.1" viewBox="0 0 480 360" xmlns="http://www.w3.org/2000/svg">
 <g dominant-baseline="central" fill="#fff" aria-label="長崎県壱岐">
  <path d="m254.23 185.08q1.9629 1.3867 5.3418 2.2656l-1.3574 1.8555q-4.4336-1.25-7.0215-4.1211-1.543-1.6992-2.2852-3.877h-2.7539v5.6738q2.5098-0.45898 5.3223-1.2109l0.13672 1.8555q-4.6094 1.3184-9.1406 2.0606l-0.69336-2.0215q1.543-0.19531 2.1582-0.29297v-6.0644h-3.4375v-1.6602h3.4375v-8.4082h13.496v1.6406h-11.279v1.1621h10.381v1.582h-10.381v1.1816h10.381v1.543h-10.381v1.2988h13.34v1.6602h-2.666l1.543 1.3379q-1.8555 1.3379-4.1406 2.5391zm-1.4062-1.1523q2.2558-1.4062 3.7793-2.7246h-5.6934q0.6543 1.5137 1.9141 2.7246z" dominant-baseline="central"/>
  <path d="m277.82 179.78v7.8809q0 0.87891-0.32227 1.2891-0.39063 0.48828-1.6504 0.48828-1.2109 0-2.5488-0.13672l-0.40039-1.9434q1.3965 0.24414 2.3144 0.24414 0.41016 0 0.50782-0.15625 0.0781-0.12696 0.0781-0.48829v-7.1777h-8.1738v6.1621h-5.1465v1.6602h-1.7188v-13.682h1.6406v10.156h0.95703v-13.359h1.6992v13.359h1.0059v-10.156h1.5625v4.1016h11.934v1.7578zm-3.9453-5.6738q2.373 0.97656 4.8242 2.373l-1.2793 1.4551q-1.8066-1.1914-4.2383-2.4609-1.3086 1.8164-4.043 2.5098l-1.0352-1.5234q2.9297-0.64453 3.7695-2.4609h-3.8574v-1.6992h4.1016v-1.7969h1.9434v1.7969h4.6777v1.6992h-4.8242q-0.01 0.0488-0.0391 0.10742zm0.72266 7.0606v5.2344h-4.1797v0.9375h-1.7773v-6.1719zm-4.2188 1.6016v2.0312h2.5586v-2.0312z" dominant-baseline="central"/>
  <path d="m296.76 170.98v9.4629h-11.621v-9.4629zm-9.5215 1.543v1.2207h7.4023v-1.2207zm0 2.5977v1.2207h7.4023v-1.2207zm0 2.5976v1.2598h7.4023v-1.2598zm-3.9356 4.0234h16.191v1.6992h-8.0762v6.0644h-2.2168v-6.0644h-8.0371v-10.957h2.1387zm-2.5 5.8984q2.3242-1.0742 4.4434-3.6035l1.7969 1.0449q-2.0898 2.6465-4.6387 4.1602zm16.836 1.2598q-1.4941-1.8359-4.4922-3.8574l1.6797-1.1816q2.3535 1.3574 4.6191 3.5644z" dominant-baseline="central"/>
  <path d="m308.85 172.12v-1.6211h2.1777v1.6211h8.3203v1.7383h-8.3203v1.543h7.0215v1.582h-15.879v-1.582h6.6797v-1.543h-8.1836v-1.7383zm10.234 6.3574v4.1992h-2.2168v-2.5977h-13.76v2.5977h-2.1777v-4.1992zm-12.861 4.8633q5.1172-0.80078 8.4375-1.9043l1.4062 1.6016q-4.2383 1.2988-9.8438 1.9727v1.582q0 0.45898 0.3125 0.54687 0.56641 0.15625 4.1113 0.15625 3.6914 0 4.4043-0.19531 0.50781-0.14649 0.61523-0.73242 0.14649-0.72266 0.19531-1.9336l2.1387 0.64453q-0.01 1.8262-0.3418 2.7148-0.39063 1.0352-1.9727 1.2305-1.6992 0.20508-5.4688 0.20508-4.4043 0-5.2734-0.3711-0.95704-0.40039-0.95704-1.6406v-6.084h2.2363z" dominant-baseline="central"/>
  <path d="m335.39 184.74q1.9824 1.6797 4.4336 2.6758l-1.1621 1.9629q-2.5098-1.2109-4.6094-3.2324-2.2168 2.1484-5.332 3.4668l-1.2793-1.7383q2.8711-0.8789 5.3125-3.1152-2.041-2.4414-3.0176-5.0098h-0.91797v-1.8848h3.8379v-2.6367h-4.4531v10.889h-5.5469v1.6992h-1.7773v-13.33h1.6797v9.7559h1.084v-13.457h1.7773v13.457h1.123v-9.7559h1.3965v-1.1816h4.7168v-2.8027h2.0606v2.8027h4.8047v1.9238h-4.8047v2.6367h3.1055l0.9375 0.96679q-1.5918 3.7891-3.3692 5.9082zm-1.377-1.3379q1.5723-2.0703 2.168-3.6524h-4.4336q0.8789 2.0996 2.2656 3.6524z" dominant-baseline="central"/>
 </g>
</svg>
