<?xml version="1.0" encoding="UTF-8"?>
<svg width="480" height="360" version="1.1" viewBox="0 0 480 360" xmlns="http://www.w3.org/2000/svg">
 <g dominant-baseline="central" fill="#fff" aria-label="鹿児島県甑島">
  <path d="m245.19 187.08v-5.8398h2.041v1.6406h3.7012v1.6797h-3.7012v2.2168q2.4024-0.39062 3.8184-0.71289l0.0586 1.6406q-3.2227 0.91797-7.2949 1.4941l-0.5664-1.875q1.0449-0.11719 1.9434-0.24414zm5.9277-14.961h7.8516v1.6797h-5.5664v1.7188h4.8633v5.127h-14.58q-0.0586 3.0859-0.3125 4.8144-0.32227 2.207-1.2891 4.0234l-1.7969-1.4551q0.91797-1.8066 1.1719-4.2969 0.18554-1.8262 0.18554-4.9121v-6.6992h7.3047v-1.6211h2.168zm-7.4121 1.6797v1.7188h2.9004v-1.7188zm0 3.2812v2.002h2.9004v-2.002zm12.5 2.002v-2.002h-2.8027v2.002zm-7.5976-5.2832v1.7188h2.793v-1.7188zm0 3.2812v2.002h2.793v-2.002zm5.0976 6.2012q2.1191-0.72266 3.6621-1.6797l1.2988 1.582q-2.1973 1.0742-4.9609 1.8262v1.4844q0 0.58594 0.36133 0.68359 0.30273 0.0879 1.4356 0.0879 1.3574 0 1.5918-0.2832 0.21485-0.2539 0.3125-1.7383l0.0195-0.30273 2.002 0.53711q-0.0195 0.12695-0.0586 0.72265-0.14648 1.9043-0.84961 2.4609-0.69335 0.55664-3.4863 0.55664-1.9727 0-2.627-0.29297-0.72265-0.33203-0.72265-1.4258v-6.2598h2.0215z" dominant-baseline="central"/>
  <path d="m277.58 171.07v9.7266h-10.117v-9.7266zm-7.998 1.7578v2.2266h5.8594v-2.2266zm0 3.9062v2.3438h5.8594v-2.3438zm-6.9629-6.0449h2.2559v10.84h-2.2559zm-2.0606 17.041q2.5293-0.2539 4.1113-1.4355 1.084-0.81055 1.4453-2.1973 0.20508-0.80078 0.2832-2.3438h2.1582q-0.0293 3.6621-1.5918 5.4199-1.5234 1.709-5.1074 2.4414zm10.547-6.0352h2.1973v4.834q0 0.50782 0.32227 0.60547 0.34179 0.10742 1.3672 0.10742 1.1035 0 1.4746-0.11718 0.39063-0.12696 0.50782-0.77149 0.13671-0.66406 0.16601-2.041l2.2266 0.64453q-0.0391 0.37109-0.11718 1.3379-0.17578 2.0312-0.90821 2.5391-0.41015 0.27344-1.1816 0.3418-1.0644 0.0879-2.6074 0.0879-2.1387 0-2.793-0.38086-0.65429-0.39063-0.65429-1.5332z" dominant-baseline="central"/>
  <path d="m287.74 171.98q0.36133-0.86914 0.58594-1.6602l2.3828 0.32226q-0.3418 0.81055-0.625 1.3379h6.5039v6.3672h-11.797v0.98633h14.697v1.582h-14.697v0.99609h14.014q-0.12695 4.4727-0.5664 6.0352-0.28321 0.99609-1.0645 1.3184-0.55664 0.23437-1.6992 0.23437-1.1719 0-2.1875-0.14648l-0.39063-1.6406h-9.7852v1.084h-2.0996v-4.6973h2.0996v2.0117h3.3594v-2.6367h-3.8379v-11.494zm4.1504 14.131v-2.0117h2.0215v3.3984q0.81054 0.0781 1.3476 0.0781 0.66406 0 0.83008-0.38085 0.32227-0.7129 0.50781-3.7207h-8.0273v2.6367zm-7.0996-12.627v0.96679h9.6387v-0.96679zm0 2.3633v1.0644h9.6387v-1.0644z" dominant-baseline="central"/>
  <path d="m316.76 170.98v9.4629h-11.621v-9.4629zm-9.5215 1.543v1.2207h7.4023v-1.2207zm0 2.5977v1.2207h7.4023v-1.2207zm0 2.5976v1.2598h7.4023v-1.2598zm-3.9356 4.0234h16.191v1.6992h-8.0762v6.0644h-2.2168v-6.0644h-8.0371v-10.957h2.1387zm-2.5 5.8984q2.3242-1.0742 4.4434-3.6035l1.7969 1.0449q-2.0898 2.6465-4.6387 4.1602zm16.836 1.2598q-1.4941-1.8359-4.4922-3.8574l1.6797-1.1816q2.3535 1.3574 4.6191 3.5644z" dominant-baseline="central"/>
  <path d="m323.78 178.88q-0.11719-1.2207-0.45899-2.3438l0.85938-0.21484q0.35156 1.4062 0.43945 2.3438zm2.7734-0.24414q0.35157-1.1426 0.50782-2.3535l0.95703 0.2832q-0.35156 1.5625-0.60547 2.3144zm1.9238-4.2383q-0.83008-0.92773-1.543-2.0312h-2.5391v-1.543h3.457q0.59571 1.0742 1.1621 1.748 0.92774 1.1035 2.2461 1.9824l-1.0254 1.4258q-0.35156-0.26367-0.45898-0.35156v5.1074h-8.1836v-5q-0.29297 0.27344-0.64453 0.53711l-0.77149-1.4356q1.8945-1.6602 2.7832-3.4766l1.3184 0.9082q-0.5957 1.1133-1.4355 2.1289zm-5.4199 1.377v3.584h2.041v-3.584zm5.2148 3.584v-3.584h-2.0508v3.584zm6.2012 5.4394q-0.6836-2.6074-1.3379-4.1406l0.95703-1.2402q0.9082 1.7871 1.4844 3.9453zm-1.0938-8.5547h4.0527v3.3398q0 4.4824 0.49805 6.7676 0.10742 0.47851 0.20508 0.47851 0.0781 0 0.13671-0.39062 0.20508-1.2305 0.24414-2.5l1.2598 1.3184q-0.21484 4.209-1.5137 4.209-0.53711 0-1.0644-0.76172-0.32227-0.47851-0.56641-1.2109-2.5293 1.0156-6.4062 1.9043l-0.52734-2.0215q0.85937-0.16602 1.0352-0.19532 0.13672-1.0938 0.32227-3.0859 0.50781-5.4492 0.67383-10.352 0-0.10742 0.01-0.21484h-1.3379v-1.9043h8.7793v1.9043h-5.6641q0 0.13672-0.01 0.2832-0.0391 1.0547-0.11719 2.2852zm-0.11719 1.8555-0.10742 1.7285q-0.21485 3.3008-0.52735 6.4062l-0.0586 0.55664q2.1094-0.49805 3.623-0.95703-0.53711-2.6465-0.54688-7.7344zm-3.9062 3.623v7.5391h-1.6992v-0.66406h-3.9844v0.82031h-1.6992v-7.6953zm-5.6836 1.377v1.3867h3.9844v-1.3867zm0 2.7051v1.377h3.9844v-1.377z" dominant-baseline="central"/>
  <path d="m347.74 171.98q0.36133-0.86914 0.58594-1.6602l2.3828 0.32226q-0.3418 0.81055-0.625 1.3379h6.5039v6.3672h-11.797v0.98633h14.697v1.582h-14.697v0.99609h14.014q-0.12695 4.4727-0.5664 6.0352-0.28321 0.99609-1.0645 1.3184-0.55664 0.23437-1.6992 0.23437-1.1719 0-2.1875-0.14648l-0.39063-1.6406h-9.7852v1.084h-2.0996v-4.6973h2.0996v2.0117h3.3594v-2.6367h-3.8379v-11.494zm4.1504 14.131v-2.0117h2.0215v3.3984q0.81054 0.0781 1.3476 0.0781 0.66406 0 0.83008-0.38085 0.32227-0.7129 0.50781-3.7207h-8.0273v2.6367zm-7.0996-12.627v0.96679h9.6387v-0.96679zm0 2.3633v1.0644h9.6387v-1.0644z" dominant-baseline="central"/>
 </g>
</svg>
