<svg version="1.1" xmlns="http://www.w3.org/2000/svg" xmlns:xlink="http://www.w3.org/1999/xlink" width="113.69545" height="71.4572" viewBox="0,0,113.69545,71.4572"><g transform="translate(-333.72775,-164.95794)"><g data-paper-data="{&quot;isPaintingLayer&quot;:true}" fill="#ff0000" fill-rule="evenodd" stroke="none" stroke-width="0" stroke-linecap="round" stroke-linejoin="round" stroke-miterlimit="10" stroke-dasharray="" stroke-dashoffset="0" style="mix-blend-mode: normal"><path d="M444.11333,170.13774l-0.59998,0.32999l0.32999,1.64993l1.17995,3.36987l0.04,1.79993l1.60994,1.29995l-0.44998,1.43994l0.81997,0.99996l0.37998,2.02992l-1.54994,-0.43998l-0.90996,-1.10996l-0.24999,-1.25995l-0.84997,-0.53998l-0.87996,-1.51994l-2.5699,2.05992l-0.86997,-1.72993l-0.69997,-0.13999l-0.20999,-1.89992l-0.69997,0.56998l1.19995,3.31987l-0.93996,3.26987l0.85997,2.4899l-1.59994,1.87992l0.28999,0.89996l-1.86993,0.01l-0.27999,1.05996l-1.22995,0.85997l-1.43994,0.46998l-0.91996,0.68997l-0.18999,1.57994l-0.67997,1.06996l1.75993,1.18995l0.09,1.27995l0.96996,0.16999v0.97996l1.23995,0.41998l1.07996,-0.33999l0.16999,1.40994l-0.79997,1.09996l0.86997,0.90996l-0.77997,0.83997l-0.83997,-0.69997l-0.75997,0.35999l-1.05996,-1.05996l-0.66997,0.63997l-0.70997,1.73993l-0.09,1.11996l-1.89992,-0.15999l-0.61998,0.54998l0.12999,1.25995l-1.64993,-0.43998l-1.82993,1.25995l-1.31995,-0.43998l0.55998,2.05992l-0.68997,1.79993l1.79993,0.14999l0.30999,-0.72997l2.19991,0.77997l4.33983,0.74997l-0.12999,0.71997l-0.53998,-0.26999l-1.44994,2.25991l-3.41986,-0.77997l-1.32995,0.75997l-0.30999,0.61998l-3.17987,2.16991l-0.91996,-0.1l-0.97996,-1.00996l-0.97996,-0.25999l-2.02992,1.80993l-1.40994,-0.18999l-2.5899,1.81993l-1.25995,0.07l-0.76997,0.97996l-1.96992,-0.37998l-1.03996,-0.67997l0.35999,-3.21987l-1.37994,-0.40998l-1.12995,0.64997l0.16999,1.67993l-0.50998,0.67997l-2.31991,1.11996l-0.42998,0.75997l-0.25999,2.35991l-0.50998,1.86993l-0.98996,-0.02l-2.00992,-0.91996l-1.85993,1.33995l-0.06,1.58994l-1.33995,2.17991l0.64997,1.72993l-0.94996,1.50994l0.70997,2.90988l-1.28995,0.20999l-1.94992,1.20995l-0.76997,-0.97996l-1.28995,1.00996l-2.78989,-0.51998l-0.57998,-0.46998l-2.05992,0.53998l-0.02,0.51998l-2.5099,-0.57998l-0.94996,0.14999l1.02996,-2.22991l-1.29995,-0.81997l-0.77997,-1.10996l-0.84997,0.50998l-0.57998,-0.66997l-0.32999,-1.70993l-1.97992,-1.48994l-2.09992,-0.24999l-0.79997,0.93996l0.01,1.06996l-1.61994,0.36999l-2.25991,-0.81997l-1.49994,-1.44994l-2.15991,0.40998l-2.33991,-0.85997l-3.18987,0.74997l-1.60994,0.92996l-1.46994,0.13999l-1.63993,-0.34999l-0.62997,0.26999l-4.12983,-0.09l-1.62993,1.28995l-0.57998,-0.13999l-2.92988,1.73993l-4.54982,3.17987l-0.69997,-0.87996l-1.14995,-0.46998v-1.32995l-1.04996,-2.36991l-2.3999,-0.95996l-1.01996,-2.00992l0.84997,-1.91992l-0.94996,-0.13999l-0.83997,-1.78993l1.05996,-0.65997l0.51998,-1.18995l-0.32999,-0.55998l1.19995,-1.08996l-0.75997,-1.54994l-0.14999,-1.78993l-1.10996,-0.43998l0.38998,-0.92996l-1.00996,-1.07996l-1.45994,-2.6199l0.88996,-2.02992l1.62993,0.20999l0.65997,1.25995l2.04992,0.55998l1.20995,-0.86997l0.40998,-1.89992l1.27995,-2.23991l0.54998,-1.88992l-0.79997,-1.63993l-0.93996,-0.35999v-2.30991l1.38994,-1.30995l0.20999,-1.29995l0.82997,-0.68997l0.50998,-1.92992l1.00996,-0.94996l-0.96996,-1.00996l-0.93996,0.44998l-2.3899,-1.25995l-0.77997,-2.36991l0.36999,-1.94992l-0.09,-1.09996l-0.77997,-1.28995l-2.13991,-1.37994l-1.01996,-0.06l-0.60998,-1.52994l-1.16995,-0.27999l-0.24999,-1.28995l0.88996,-1.25995l-0.06,-1.02996l0.71997,1.66993l0.78997,0.38998l3.09988,-1.77993l1.38994,0.05l0.24999,-0.74997l2.03992,0.40998l1.02996,0.68997l0.46998,-0.60998l2.6099,-1.08996l0.18999,-0.82997l1.25995,-1.79993l1.47994,-0.79997l0.66997,0.45998l1.61994,-1.81993l0.87996,-1.90992l1.31995,-0.90996l2.82989,-0.21999l0.85997,-0.02l1.17995,-0.74997l3.00988,-0.01l1.29995,0.80997l0.35999,0.92996l2.36991,1.17995l1.12995,1.33995l1.74993,0.45998l1.71993,-0.01l0.99996,1.44994l0.42998,-0.59998l2.24991,1.38994l1.42994,0.55998l2.27991,3.78985l1.07996,-0.49998l0.94996,0.17999l1.16995,-0.72997l1.32995,0.12l0.28999,0.70997l1.09996,0.16999l0.40998,-0.58998l1.38994,-0.34999l1.32995,0.56998l1.68993,-1.01996l1.05996,0.36999l0.56998,0.87996l1.57994,-0.35999l1.56994,0.37998l0.60998,1.52994l0.12,1.19995l-1.65993,2.08992l-0.97996,0.62997l-1.55994,-0.28999l-0.19999,0.85997l2.70989,2.28991l0.99996,-0.18999l-0.12,2.99988l2.87988,1.59994l1.34995,-0.77997l2.5099,1.92992l0.12,1.61994l0.84997,1.06996l1.66993,0.11l0.26999,-1.08996l2.20991,-0.79997l-0.13999,-1.05996l1.31995,-2.92988l1.06996,0.1l0.53998,-0.62997l1.92992,0.52998l-0.14999,-1.45994l0.35999,-1.80993l1.01996,-0.54998l1.78993,2.09992l1.83993,-0.70997l1.82993,0.63997l0.65997,1.31995l1.57994,-0.34999l0.42998,1.32995l1.67993,0.41998l0.07,0.83997l-0.58998,1.50994l1.33995,-0.49998l-0.16999,-0.98996l1.00996,-0.47998l0.51998,-2.32991l0.06,-1.46994l1.69993,0.24999l0.02,-1.33995l-0.46998,-2.05992l0.47998,-1.25995l0.92996,-0.73997l-0.81997,-0.93996l-0.49998,-1.89992l1.52994,-1.32995l0.02,-1.04996l2.28991,-1.71993l0.29999,-1.87992l-0.64997,-1.36995l0.48998,-1.39994l-0.15999,-3.22987l-0.53998,-1.26995l0.37998,-1.96992l0.50998,-0.69997l2.4199,0.09l0.64997,0.88996l2.5099,-0.63997l1.87992,0.04l0.74997,1.11996l0.94996,-0.17999l1.73993,0.30999l1.77993,1.55994l1.26995,0.43998l0.95996,1.54994"/><path d="M443.01337,180.53732l0.15999,1.55994l-1.06996,0.49998l0.98996,1.63993l-0.58998,1.75993l-0.99996,-0.57998l-0.24999,-1.20995l-0.70997,-0.81997l0.15999,-1.12995l-0.64997,-1.22995l1.66993,-0.62997l0.57998,-0.85997l0.70997,0.99996"/></g></g></svg>