<svg version="1.1" xmlns="http://www.w3.org/2000/svg" xmlns:xlink="http://www.w3.org/1999/xlink" width="168.1" height="65.153" viewBox="0,0,168.1,65.153"><g transform="translate(-240,-180)"><g data-paper-data="{&quot;isPaintingLayer&quot;:true}" stroke="none" stroke-linecap="butt" stroke-linejoin="miter" stroke-miterlimit="10" stroke-dasharray="" stroke-dashoffset="0" style="mix-blend-mode: normal"><path d="M248,180h152.1c4.432,0 8,3.568 8,8v49.153c0,4.432 -3.568,8 -8,8h-152.1c-4.432,0 -8,-3.568 -8,-8v-49.153c0,-4.432 3.568,-8 8,-8z" fill-opacity="0.7" fill="#000000" fill-rule="evenodd" stroke-width="0"/><g fill="#ffffff" fill-rule="nonzero" stroke-width="1"><path d="M248.7744,189.61439c-0.13289,-0.33334 -0.28878,-0.62632 -0.46766,-0.87894l0.80116,-0.19922c0.2121,0.33855 0.38716,0.69793 0.52516,1.07815h0.99666c-0.15333,-0.40105 -0.31561,-0.73961 -0.48683,-1.01566l0.78583,-0.20704c0.22233,0.35158 0.40505,0.75914 0.54816,1.22271h0.64784c0.20189,-0.37502 0.4025,-0.82556 0.60183,-1.35162l0.83566,0.34377c-0.19422,0.38543 -0.38589,0.72138 -0.575,1.00784h1.49881v1.72271h-0.85484v-1.03514h-5.40502v0.7383h4.97945l0.4025,0.40236c-0.49833,0.64065 -1.09251,1.21879 -1.78252,1.73442c0.01281,0.00781 0.03454,0.01824 0.06518,0.03129c0.69509,0.29948 1.63297,0.5521 2.81366,0.75783l-0.50216,0.78518c-1.16787,-0.21875 -2.2182,-0.57554 -3.15096,-1.07037c-1.00944,0.55992 -2.15559,0.94275 -3.43844,1.14851l-0.44467,-0.78128c1.10401,-0.13282 2.13901,-0.41668 3.105,-0.85158l-0.06905,-0.05078c-0.61588,-0.44012 -1.11294,-0.90237 -1.49118,-1.38675h-0.50983v-0.42189h-0.83183v-1.72271zM249.75573,191.75897c0.35522,0.36981 0.78584,0.70705 1.29187,1.01172c0.49066,-0.32553 0.90722,-0.66277 1.24967,-1.01172zM247.49791,187.82525c2.1441,-0.07552 4.11698,-0.28386 5.91866,-0.62502l0.59033,0.67971c-1.96268,0.34116 -4.03268,0.56773 -6.21,0.67971z"/><path d="M256.87767,189.08945v5.71498h-0.81649v-4.07828c-0.21211,0.35417 -0.45617,0.71618 -0.73217,1.08602l-0.38333,-0.96097c0.47533,-0.60158 0.87657,-1.31385 1.2037,-2.13681c0.17122,-0.4297 0.35138,-0.96228 0.54049,-1.59774l0.80883,0.2461c-0.21211,0.66929 -0.41911,1.24484 -0.621,1.72665zM262.03345,192.21062v2.59381h-0.84717v-0.38673h-2.7561v0.38673h-0.83949v-2.59381zM258.43017,192.88251v0.8633h2.7561v-0.8633zM257.88201,187.47613h3.84479v0.64065h-3.84479zM257.88201,189.82776h3.84479v0.67189h-3.84479zM257.88201,190.99575h3.84479v0.67189h-3.84479zM257.10385,188.60899h5.43177v0.71877h-5.43177z"/><path d="M263.65351,187.53482h0.90466v4.65642c0,0.98177 0.50601,1.47266 1.51803,1.47266c0.66702,0 1.21391,-0.31381 1.64066,-0.94143c0.276,-0.40366 0.52389,-1.02867 0.74366,-1.87505l0.77816,0.48049c-0.26067,0.94011 -0.57372,1.64326 -0.93916,2.10945c-0.575,0.72657 -1.32248,1.08986 -2.24247,1.08986c-0.9609,0 -1.63812,-0.30209 -2.03166,-0.90628c-0.24789,-0.37762 -0.37183,-0.8646 -0.37183,-1.46095z"/><path d="M270.03311,188.59479h1.79015c0.07156,-0.32293 0.15206,-0.74093 0.2415,-1.254l0.86633,0.10938c-0.07667,0.40366 -0.15845,0.78518 -0.24534,1.14457h2.55303v0.77737h-2.73312c-0.51111,2.08078 -1.07589,3.80608 -1.69436,5.17591l-0.84716,-0.3047c0.6721,-1.51829 1.23177,-3.14204 1.679,-4.87124h-1.60996zM276.81806,194.34107c-0.414,0.05471 -0.8791,0.08207 -1.39529,0.08207c-0.83569,0 -1.46691,-0.07292 -1.89367,-0.21876c-0.16356,-0.05727 -0.30284,-0.13801 -0.41783,-0.2422c-0.22489,-0.20834 -0.33734,-0.47397 -0.33734,-0.7969c0,-0.33074 0.10478,-0.62241 0.31433,-0.87502l0.68233,0.41017c-0.07922,0.10156 -0.11883,0.21354 -0.11883,0.33594c0,0.21095 0.09455,0.34767 0.28366,0.41017c0.28878,0.09376 0.70022,0.14063 1.23431,0.14063c0.51877,0 1.03627,-0.03906 1.5525,-0.11719zM273.22241,190.46984c1.00178,-0.11719 2.0981,-0.17969 3.28896,-0.1875l0.03834,0.79299c-1.16787,0.00538 -2.23992,0.06137 -3.21615,0.16797z"/><path d="M279.31522,188.69574v6.11343h-0.80116v-7.60184h0.80116v1.18364l0.368,-0.31251c0.22233,0.39324 0.39867,0.77217 0.529,1.1368l-0.52133,0.52735c-0.13544,-0.44012 -0.26067,-0.78907 -0.37566,-1.04685zM282.84569,187.72696h1.9857v0.58595h-1.9857v0.37501h1.71348v0.55861h-1.71348v0.38674h2.2386v0.62501h-5.16727v-0.62501h2.13518v-0.38674h-1.66365v-0.55861h1.66365v-0.37501h-1.88981v-0.58595h1.88981v-0.51955h0.7935zM284.44039,190.67238v3.42978c0,0.23959 -0.05622,0.41407 -0.16867,0.52346c-0.10989,0.10677 -0.29772,0.16016 -0.56349,0.16016c-0.31433,0 -0.63761,-0.02214 -0.96983,-0.06643l-0.11117,-0.70315c0.33989,0.04166 0.6095,0.06249 0.80883,0.06249c0.10222,0 0.16355,-0.02605 0.184,-0.07814c0.01275,-0.03123 0.01912,-0.07941 0.01912,-0.14454v-0.50388h-2.35361v1.45711h-0.80116v-4.13683zM281.28556,191.24662v0.45705h2.35361v-0.45705zM281.28556,192.27792v0.48048h2.35361v-0.48048zM277.42927,191.2857c0.115,-0.54168 0.19805,-1.24221 0.24916,-2.10158l0.01922,-0.32032l0.65167,0.06249c-0.03064,1.11462 -0.12009,2.01961 -0.26834,2.71495z"/><path d="M286.97271,188.01938v-0.81643h0.80116v0.81643h1.19211v0.68752h-1.19211v0.67189h1.35695v0.69533h-0.45617c-0.08177,0.3099 -0.19166,0.63804 -0.32966,0.9844h0.73982v0.67971h-1.31099v0.72268h1.26116v0.69533h-1.26116v1.64851h-0.80116v-1.64851h-1.35319v-0.69533h1.35319v-0.72268h-1.41451v-0.67971h0.70533c-0.08178,-0.34637 -0.18145,-0.6745 -0.299,-0.9844h-0.56349v-0.69533h1.57162v-0.67189h-1.24967v-0.68752zM287.9272,190.07411h-1.21896c0.08688,0.2474 0.18016,0.57554 0.27983,0.9844h0.63632c0.13289,-0.33334 0.23383,-0.66148 0.30283,-0.9844zM292.57697,187.48414v1.8282c0,0.22657 -0.04089,0.38673 -0.12267,0.48048c-0.09711,0.11198 -0.30028,0.16797 -0.6095,0.16797c-0.30155,0 -0.60311,-0.01302 -0.90466,-0.03907l-0.13033,-0.70315c0.42422,0.04684 0.69382,0.07026 0.80882,0.07026c0.12012,0 0.18017,-0.05339 0.18017,-0.16016v-0.94144h-1.679v2.26956h2.17352l0.45616,0.39845c-0.138,0.82813 -0.38972,1.56772 -0.75516,2.21878l-0.0422,0.07814c0.28111,0.33074 0.63248,0.63283 1.05412,0.90628l-0.42932,0.73049c-0.40378,-0.26563 -0.7641,-0.58335 -1.08096,-0.95316c-0.27344,0.35418 -0.58139,0.68752 -0.92383,1.00003l-0.45233,-0.64064v0.60939h-0.77816v-7.32049zM290.11984,191.16003v2.95319c0.31433,-0.21876 0.61716,-0.52606 0.9085,-0.92191c-0.391,-0.6146 -0.66573,-1.29171 -0.82417,-2.03132zM291.45381,192.49994c0.22745,-0.44793 0.37567,-0.89457 0.44467,-1.33991h-0.989c0.12522,0.50002 0.30666,0.94666 0.54433,1.33991z"/><path d="M297.40394,193.6221c1.50013,-0.38543 2.25019,-1.26175 2.25019,-2.62894c0,-0.59637 -0.15078,-1.1094 -0.45234,-1.53908c-0.33733,-0.48439 -0.851,-0.79559 -1.54101,-0.93362c-0.15078,1.20837 -0.3565,2.19798 -0.61717,2.96884c-0.17889,0.53908 -0.40122,1.0482 -0.66699,1.52737c-0.38333,0.68229 -0.81904,1.02343 -1.30712,1.02343c-0.36288,0 -0.68616,-0.16667 -0.96983,-0.50002c-0.18144,-0.21094 -0.32838,-0.47006 -0.44083,-0.77737c-0.14822,-0.39845 -0.22233,-0.82685 -0.22233,-1.28519c0,-0.74218 0.20061,-1.42578 0.60183,-2.0508c0.40633,-0.63804 0.93407,-1.10161 1.58321,-1.39069c0.47278,-0.21095 0.99156,-0.31642 1.55636,-0.31642c0.88165,0 1.63043,0.24089 2.24633,0.72267c0.75644,0.59117 1.13466,1.42845 1.13466,2.51184c0,1.81515 -0.90084,2.96621 -2.70251,3.4532zM296.82894,188.4891c-0.45234,0.05209 -0.83056,0.17579 -1.13466,0.3711c-0.19422,0.12761 -0.38716,0.29688 -0.57883,0.50783c-0.53155,0.59898 -0.79733,1.29301 -0.79733,2.08209c0,0.57554 0.11245,1.02608 0.33734,1.35162c0.138,0.20053 0.27472,0.30079 0.41017,0.30079c0.184,0 0.39099,-0.20704 0.62099,-0.62112c0.56222,-1.00782 0.94302,-2.33857 1.14238,-3.99227z"/><path d="M303.55569,192.47127c0.61077,0.8568 1.5755,1.28519 2.8942,1.28519h2.1965c-0.10478,0.23439 -0.18017,0.51695 -0.22617,0.84769h-2.03553c-1.34936,0 -2.42395,-0.47527 -3.22377,-1.42582c-0.37823,0.64325 -0.85993,1.17973 -1.44512,1.60945l-0.52899,-0.67971c0.60822,-0.45053 1.11423,-1.01044 1.51803,-1.67971c-0.28366,-0.63544 -0.48299,-1.24484 -0.598,-1.8282c-0.16866,0.41147 -0.3386,0.74091 -0.50982,0.98831l-0.48683,-0.71877c0.56988,-0.95055 0.94681,-2.17975 1.13079,-3.6876l0.7935,0.16016c-0.02047,0.15886 -0.04346,0.31382 -0.06895,0.46486h1.20747l0.37567,0.34375c-0.14311,1.84119 -0.47404,3.28135 -0.9928,4.32046zM303.11485,191.5728c0.322,-0.91407 0.53539,-1.90499 0.64017,-2.97278h-0.9545c-0.10222,0.38022 -0.1776,0.63674 -0.22616,0.76955c0.115,0.80989 0.29516,1.5443 0.54049,2.20323zM307.35837,187.65473v4.57041c0,0.06771 0.00766,0.11849 0.02298,0.15234c0.02047,0.04166 0.06903,0.06249 0.14566,0.06249c0.13033,0 0.20956,-0.05859 0.23767,-0.17578c0.03064,-0.11979 0.05491,-0.45574 0.07281,-1.00784l0.68233,0.28126c-0.02556,0.612 -0.069,1.02088 -0.13034,1.22664c-0.07155,0.23959 -0.21338,0.38153 -0.42549,0.4258c-0.11755,0.02605 -0.29261,0.03907 -0.52517,0.03907c-0.36544,0 -0.60183,-0.0599 -0.70917,-0.1797c-0.08944,-0.09635 -0.13416,-0.2461 -0.13416,-0.44923v-4.16025h-0.78966v1.41804c0,0.81514 -0.08306,1.49615 -0.24917,2.04303c-0.14566,0.48439 -0.38716,0.93884 -0.72449,1.36333l-0.598,-0.61721c0.31177,-0.3724 0.52644,-0.78125 0.64399,-1.22654c0.115,-0.44273 0.1725,-1.02867 0.1725,-1.75784v-2.0079z"/><path d="M310.78721,188.40299v1.58603h0.75899v0.80081h-0.75899v1.57038c0.207,-0.08854 0.43061,-0.19401 0.67083,-0.31642l0.09579,0.77738c-0.71298,0.39845 -1.53203,0.76564 -2.45713,1.10157l-0.23383,-0.87894c0.42166,-0.125 0.79605,-0.2487 1.12316,-0.3711v-1.88292h-0.897v-0.80081h0.897v-1.58603h-0.989v-0.80862h2.63733v0.80862zM316.11556,187.4928v4.00792h-1.74032v0.7422h1.80927v0.71096h-1.80927v0.82425h2.08535v0.76174h-5.15578v-0.76174h2.28467v-0.82425h-1.83998v-0.71096h1.83998v-0.7422h-1.71348v-4.00792zM312.6157,188.19595v0.93753h0.97367v-0.93753zM312.6157,189.82881v0.96878h0.97367v-0.96878zM315.36031,190.79759v-0.96878h-0.98515v0.96878zM315.36031,189.13353v-0.93753h-0.98515v0.93753z"/><path d="M318.41499,187.78719c0.20444,0.42449 0.437,0.94274 0.69766,1.55473c0.253,-0.09375 0.57756,-0.20573 0.97366,-0.33594c0.21467,-0.07032 0.37694,-0.1237 0.48683,-0.16017c-0.17889,-0.4323 -0.36927,-0.82426 -0.57116,-1.17587l0.70533,-0.27344c0.23256,0.38803 0.44467,0.80731 0.63633,1.25784c0.33478,-0.07032 0.61844,-0.10547 0.85099,-0.10547c0.48556,0 0.88167,0.12501 1.18835,0.37502c0.04603,0.03903 0.08564,0.07679 0.11883,0.11328c0.34499,0.37502 0.51749,0.82034 0.51749,1.33597c0,0.79952 -0.30283,1.37117 -0.90849,1.71494c-0.35778,0.20574 -0.92128,0.35158 -1.69049,0.43752l-0.31433,-0.72659c0.70532,-0.0599 1.22919,-0.19792 1.57162,-0.41408c0.30922,-0.19271 0.46383,-0.53776 0.46383,-1.03514c0,-0.32293 -0.08305,-0.57554 -0.24916,-0.75783c-0.16867,-0.1875 -0.40378,-0.28126 -0.70533,-0.28126c-0.13544,0 -0.31944,0.02083 -0.55199,0.06249c0.12011,0.32293 0.23766,0.67709 0.35266,1.0625l-0.73982,0.36329c-0.13289,-0.47397 -0.26067,-0.88285 -0.38333,-1.22664c-0.45234,0.13282 -0.93662,0.29558 -1.45284,0.4883c0.61333,1.53128 1.11805,2.9506 1.51416,4.25797l-0.7935,0.26954c-0.414,-1.38806 -0.9136,-2.80086 -1.49881,-4.23839l-0.13799,0.05471c-0.58777,0.22917 -1.00433,0.39454 -1.24967,0.49611l-0.28366,-0.77737l0.10733,-0.03907c0.59033,-0.22136 1.012,-0.37892 1.26502,-0.47267c-0.24277,-0.57554 -0.47533,-1.0951 -0.69766,-1.55867z"/><path d="M326.54798,194.68208c-0.47277,-0.70315 -1.00688,-1.35421 -1.60233,-1.95318l0.62099,-0.55862c0.61844,0.59898 1.16279,1.2357 1.63304,1.91018z"/><path d="M333.85875,189.41249c0.17889,0.09375 0.38461,0.20573 0.61717,0.33594l-0.48683,0.40236h2.30765l0.43317,0.44142c-0.575,0.88284 -1.14873,1.60813 -1.7212,2.17588l-0.77816,-0.46485c0.50345,-0.46876 0.90722,-0.93492 1.21133,-1.39846h-1.90902v3.06262c0,0.35418 -0.08561,0.58075 -0.25683,0.67971c-0.115,0.06771 -0.32966,0.10157 -0.64399,0.10157c-0.41144,0 -0.86505,-0.02605 -1.36081,-0.07814l-0.18783,-0.87112c0.47789,0.07813 0.9021,0.11719 1.27265,0.11719c0.14056,0 0.22745,-0.02345 0.26067,-0.07036c0.02556,-0.03903 0.03834,-0.11065 0.03834,-0.21484v-2.72666h-3.21228v-0.75393h4.15535c-0.86375,-0.50522 -1.72754,-0.93231 -2.59136,-1.28126l0.621,-0.50392c0.58011,0.23699 1.09249,0.46747 1.53715,0.69143c0.39355,-0.27345 0.73855,-0.54168 1.035,-0.80471h-4.0978v-0.7422h5.21334l0.4715,0.46876c-0.66953,0.5495 -1.31224,1.0274 -1.92814,1.43369z"/><path d="M338.71279,188.01938v-0.81643h0.80116v0.81643h1.19211v0.68752h-1.19211v0.67189h1.35695v0.69533h-0.45616c-0.08178,0.3099 -0.19167,0.63804 -0.32967,0.9844h0.73983v0.67971h-1.31099v0.72268h1.26116v0.69533h-1.26116v1.64851h-0.80116v-1.64851h-1.35319v-0.69533h1.35319v-0.72268h-1.41451v-0.67971h0.70533c-0.08178,-0.34637 -0.18145,-0.6745 -0.299,-0.9844h-0.5635v-0.69533h1.57162v-0.67189h-1.24967v-0.68752zM339.66729,190.07411h-1.21896c0.08689,0.2474 0.18017,0.57554 0.27983,0.9844h0.63633c0.13289,-0.33334 0.23383,-0.66148 0.30283,-0.9844zM344.31706,187.48414v1.8282c0,0.22657 -0.04089,0.38673 -0.12267,0.48048c-0.09711,0.11198 -0.30027,0.16797 -0.60949,0.16797c-0.30156,0 -0.60311,-0.01302 -0.90466,-0.03907l-0.13034,-0.70315c0.42422,0.04684 0.69383,0.07026 0.80883,0.07026c0.12011,0 0.18016,-0.05339 0.18016,-0.16016v-0.94144h-1.679v2.26956h2.17352l0.45616,0.39845c-0.13799,0.82813 -0.38971,1.56772 -0.75516,2.21878l-0.0422,0.07814c0.2811,0.33074 0.63248,0.63283 1.05412,0.90628l-0.42933,0.73049c-0.40378,-0.26563 -0.7641,-0.58335 -1.08096,-0.95316c-0.27344,0.35418 -0.58138,0.68752 -0.92382,1.00003l-0.45234,-0.64064v0.60939h-0.77816v-7.32049zM341.85993,191.16003v2.95319c0.31433,-0.21876 0.61716,-0.52606 0.9085,-0.92191c-0.391,-0.6146 -0.66572,-1.29171 -0.82417,-2.03132zM343.1939,192.49994c0.22744,-0.44793 0.37566,-0.89457 0.44466,-1.33991h-0.989c0.12522,0.50002 0.30667,0.94666 0.54434,1.33991z"/><path d="M352.05644,187.60548v6.25799c0,0.30991 -0.0805,0.52606 -0.2415,0.64846c-0.13033,0.10156 -0.34883,0.15234 -0.65549,0.15234c-0.48811,0 -0.94555,-0.01952 -1.37231,-0.05855l-0.1725,-0.8555c0.506,0.0599 0.93404,0.08985 1.28414,0.08985c0.12522,0 0.20572,-0.02214 0.24149,-0.06643c0.02556,-0.03385 0.03834,-0.08984 0.03834,-0.16797v-2.23059h-4.84532v3.34387h-0.87783v-7.11354zM346.33333,188.36722v2.24614h1.97797v-2.24614zM351.17865,190.61336v-2.24614h-2.03553v2.24614z"/><path d="M356.98973,193.6221c1.50013,-0.38543 2.25019,-1.26175 2.25019,-2.62894c0,-0.59637 -0.15078,-1.1094 -0.45233,-1.53908c-0.33733,-0.48439 -0.851,-0.79559 -1.54101,-0.93362c-0.15078,1.20837 -0.3565,2.19798 -0.61717,2.96884c-0.17889,0.53908 -0.40122,1.0482 -0.66699,1.52737c-0.38333,0.68229 -0.81904,1.02343 -1.30712,1.02343c-0.36288,0 -0.68616,-0.16667 -0.96983,-0.50002c-0.18144,-0.21094 -0.32839,-0.47006 -0.44084,-0.77737c-0.14822,-0.39845 -0.22232,-0.82685 -0.22232,-1.28519c0,-0.74218 0.20061,-1.42578 0.60183,-2.0508c0.40633,-0.63804 0.93403,-1.10161 1.58311,-1.39069c0.47278,-0.21095 0.99156,-0.31642 1.55636,-0.31642c0.88165,0 1.63043,0.24089 2.24633,0.72267c0.75644,0.59117 1.13466,1.42845 1.13466,2.51184c0,1.81515 -0.90084,2.96621 -2.70251,3.4532zM356.41473,188.4891c-0.45233,0.05209 -0.83055,0.17579 -1.13466,0.3711c-0.19422,0.12761 -0.38716,0.29688 -0.57883,0.50783c-0.53155,0.59898 -0.79733,1.29301 -0.79733,2.08209c0,0.57554 0.11244,1.02608 0.33733,1.35162c0.138,0.20053 0.27472,0.30079 0.41017,0.30079c0.184,0 0.391,-0.20704 0.621,-0.62112c0.56222,-1.00782 0.94298,-2.33857 1.14228,-3.99227z"/><path d="M364.02313,192.11795v2.28914h-2.15816v0.40236h-0.7935v-2.69153zM361.86497,192.78202v0.96096h1.36468v-0.96096zM365.80565,189.75847v-2.5508h0.83183v2.5508h1.54477v0.80081h-1.54477v4.2501h-0.83183v-4.2501h-1.57162v-0.80081zM361.23632,187.49669h2.61435v0.64845h-2.61435zM360.76482,188.64126h3.51898v0.70315h-3.51898zM361.23632,189.84054h2.61435v0.64846h-2.61435zM361.23632,190.98511h2.61435v0.62502h-2.61435z"/><path d="M371.31409,193.37982c-0.17123,0.76305 -0.79479,1.25915 -1.87069,1.48831l-0.44084,-0.67189c0.77942,-0.11979 1.25729,-0.39194 1.43363,-0.81643h-1.86296v-0.64845h1.93963v-0.44924h-0.91233v-3.16024h2.90182l-0.60949,-0.42189c0.39355,-0.38282 0.70022,-0.90628 0.91999,-1.57038l0.7935,0.13672c-0.069,0.1823 -0.13544,0.34246 -0.19933,0.48048h2.461v0.63284h-1.426c0.10989,0.13021 0.22361,0.27605 0.34116,0.43752l-0.7935,0.20704c-0.12522,-0.22136 -0.2645,-0.43622 -0.41782,-0.64456h-0.4945c-0.17889,0.29689 -0.36417,0.54429 -0.55584,0.74221h2.49933v3.16024h-0.851v0.44924h1.86296v0.64845h-1.86296v1.42582h-0.85483v-1.42582zM371.35243,192.73137h1.96262v-0.44924h-1.96262zM374.17758,191.74695v-0.3672h-3.72978v0.3672zM374.17758,190.86802v-0.35157h-3.72978v0.35157zM374.17758,190.00472v-0.35549h-3.72978v0.35549zM371.17224,188.37963c0.12011,0.16928 0.22489,0.33725 0.31433,0.50392l-0.80116,0.17578c-0.13289,-0.28907 -0.25428,-0.51564 -0.36416,-0.67971h-0.4255c-0.22489,0.32032 -0.48811,0.61851 -0.78966,0.89456l-0.56349,-0.53518c0.52389,-0.41667 0.89827,-0.95837 1.12316,-1.62509l0.83183,0.13672c-0.07156,0.17449 -0.14567,0.33986 -0.22233,0.49611h1.75954v0.63284z"/><path d="M380.53677,193.6221c1.50013,-0.38543 2.25019,-1.26175 2.25019,-2.62894c0,-0.59637 -0.15078,-1.1094 -0.45233,-1.53908c-0.33733,-0.48439 -0.851,-0.79559 -1.54101,-0.93362c-0.15077,1.20837 -0.35649,2.19798 -0.61716,2.96884c-0.17889,0.53908 -0.40123,1.0482 -0.667,1.52737c-0.38333,0.68229 -0.81904,1.02343 -1.30712,1.02343c-0.36289,0 -0.68617,-0.16667 -0.96983,-0.50002c-0.18145,-0.21094 -0.32839,-0.47006 -0.44084,-0.77737c-0.14822,-0.39845 -0.22233,-0.82685 -0.22233,-1.28519c0,-0.74218 0.20061,-1.42578 0.60183,-2.0508c0.40633,-0.63804 0.93407,-1.10161 1.58321,-1.39069c0.47278,-0.21095 0.99156,-0.31642 1.55636,-0.31642c0.88165,0 1.63043,0.24089 2.24633,0.72267c0.75644,0.59117 1.13466,1.42845 1.13466,2.51184c0,1.81515 -0.90084,2.96621 -2.70251,3.4532zM379.96177,188.4891c-0.45233,0.05209 -0.83055,0.17579 -1.13466,0.3711c-0.19422,0.12761 -0.38716,0.29688 -0.57883,0.50783c-0.53155,0.59898 -0.79733,1.29301 -0.79733,2.08209c0,0.57554 0.11245,1.02608 0.33734,1.35162c0.138,0.20053 0.27472,0.30079 0.41017,0.30079c0.184,0 0.391,-0.20704 0.621,-0.62112c0.56222,-1.00782 0.94298,-2.33857 1.14228,-3.99227z"/><path d="M386.73805,188.20109h1.00429v0.70315h-1.00429v0.81643h1.23431v0.73439h-1.31871v1.73442c0,0.22136 -0.05239,0.38152 -0.15716,0.48048c-0.09711,0.09115 -0.25299,0.13673 -0.46766,0.13673c-0.138,0 -0.35522,-0.01561 -0.65167,-0.04684l-0.12266,-0.67971c0.22233,0.03648 0.39738,0.05471 0.52516,0.05471c0.07922,0 0.12522,-0.01955 0.138,-0.05865c0.01024,-0.02342 0.01535,-0.05988 0.01535,-0.10938v-1.51173h-1.65978v-0.73439h0.48683v-1.81649h0.70533v1.81649h0.54433v-2.51184h0.72833zM388.14483,191.92776v-3.00013h0.96983c0.03322,-0.11459 0.08689,-0.34377 0.16101,-0.68753h-1.39152v-0.71095h3.81795v0.71095h-1.6368c-0.069,0.2422 -0.14695,0.47138 -0.23384,0.68753h1.51803v4.2501h-3.20466v-1.16022l-0.52516,0.34375c-0.27089,-0.65627 -0.52261,-1.15627 -0.75517,-1.50002l0.52517,-0.29688c0.26578,0.38803 0.5175,0.84247 0.75516,1.36333zM390.59433,189.54483h-1.70961v0.60939h1.70961zM390.59433,190.74018h-1.70961v0.58987h1.70961zM390.59433,191.91605h-1.70961v0.63673h1.70961zM387.46249,194.34581c0.51111,-0.28386 0.966,-0.66017 1.36468,-1.12892l0.63633,0.39845c-0.47022,0.57033 -0.94684,0.99482 -1.42986,1.27348zM391.18464,194.84973c-0.37822,-0.46356 -0.78966,-0.86332 -1.23431,-1.19929l0.575,-0.44923c0.49066,0.33855 0.91617,0.70964 1.27651,1.11328zM384.21187,192.2637c0.322,-0.38543 0.58394,-0.91538 0.78583,-1.58986l0.644,0.20704c-0.21978,0.83338 -0.51622,1.4597 -0.88933,1.87898zM384.4457,194.11926c1.26753,-0.40366 2.12874,-1.10681 2.58364,-2.10945l0.56733,0.49611c-0.59544,1.07296 -1.47709,1.8243 -2.64496,2.25401z"/><path d="M396.45603,187.90833h3.00534v0.65627h-1.70198v0.64846h1.5947v0.63283h-1.5947v1.16416h-3.08578v-1.16416h-1.25729v0.72659c0,1.1797 -0.06133,2.11201 -0.184,2.79692c-0.09455,0.52085 -0.24788,0.99612 -0.45999,1.42582l-0.69766,-0.56251c0.19422,-0.4297 0.32711,-0.95448 0.39867,-1.57432c0.06386,-0.54429 0.09579,-1.23963 0.09579,-2.08603v-2.66417h3.03219v-0.70315h0.85483zM393.41621,188.5646v0.64846h1.25729v-0.64846zM395.49008,188.5646v0.64846h1.45284v-0.64846zM395.49008,189.84585v0.60549h1.45284v-0.60549zM396.37941,193.94755c-0.73854,0.39064 -1.67643,0.68753 -2.81366,0.89065l-0.39867,-0.71876c1.06822,-0.13021 1.90516,-0.32944 2.51083,-0.59767c-0.51877,-0.38283 -0.96218,-0.83727 -1.3302,-1.36333h-0.529v-0.67971h4.4888l0.4025,0.34377c-0.38077,0.59637 -0.92383,1.15759 -1.62917,1.68364c0.60567,0.2474 1.43112,0.4297 2.47635,0.54689l-0.4485,0.73831c-1.00178,-0.13803 -1.91157,-0.41929 -2.72936,-0.84378zM395.24089,192.15842c0.30922,0.36981 0.68489,0.69534 1.12703,0.9766c0.49833,-0.32814 0.88296,-0.65367 1.15387,-0.9766z"/><path d="M247.86303,199.10369h2.06614c0.22745,-0.3698 0.39995,-0.66799 0.5175,-0.89456l0.85483,0.12501c-0.07667,0.14063 -0.21211,0.3698 -0.40633,0.68752l-0.04983,0.08207h2.70251v0.76956h-3.21228c-0.33478,0.46876 -0.65422,0.87502 -0.95833,1.21877c0.48299,-0.29428 0.92382,-0.44142 1.32248,-0.44142c0.61844,0 1.02351,0.31642 1.21519,0.94925c0.65422,-0.22136 1.3212,-0.44012 2.00095,-0.65628l0.32967,0.75783l-0.13417,0.03907l-0.3795,0.10157c-0.71556,0.19792 -1.288,0.3672 -1.71734,0.50783c0.03064,0.33855 0.05237,0.77607 0.06518,1.31255l-0.83949,0.04684c-0.00264,-0.3099 -0.00776,-0.64585 -0.01535,-1.00784v-0.07814c-1.17554,0.40887 -1.7633,0.82034 -1.7633,1.23442c0,0.21355 0.15078,0.35939 0.45233,0.43752c0.29133,0.07552 0.81267,0.11328 1.56399,0.11328c0.69258,0 1.41962,-0.04036 2.18115,-0.12109l0.09203,0.83205c-0.73854,0.05727 -1.50393,0.08591 -2.29616,0.08591c-0.97622,0 -1.67005,-0.07552 -2.08149,-0.22656c-0.50855,-0.1875 -0.76283,-0.52474 -0.76283,-1.01172c0,-0.41147 0.18016,-0.77476 0.54049,-1.08986c0.37311,-0.32553 1.02989,-0.66148 1.97034,-1.00784c-0.05112,-0.20053 -0.11884,-0.34116 -0.20317,-0.42189c-0.09456,-0.09115 -0.21978,-0.13673 -0.37566,-0.13673c-0.253,0 -0.57116,0.09766 -0.95449,0.29298c-0.47278,0.23959 -0.98004,0.60029 -1.52179,1.08208l-0.50983,-0.59377c0.79474,-0.75262 1.41702,-1.49221 1.86682,-2.21878h-1.56013z"/><path d="M257.0857,203.28302c-0.47533,0.32813 -0.93788,0.57684 -1.38766,0.74611l-0.52516,-0.60158c1.22408,-0.42188 2.11085,-1.00393 2.66031,-1.74613l0.77816,0.19532c-0.10989,0.14584 -0.21978,0.27605 -0.32967,0.39064h2.64496l0.48683,0.41798c-0.38844,0.47657 -0.93916,0.96487 -1.65216,1.46489c0.80247,0.27605 1.71991,0.48569 2.75234,0.62893l-0.43317,0.81643c-1.21642,-0.23699 -2.25779,-0.56122 -3.12412,-0.97269c-0.97107,0.48439 -2.09424,0.81904 -3.36949,1.00394l-0.38334,-0.7422c1.00944,-0.08073 2.0061,-0.31251 2.98999,-0.69533l-0.0422,-0.02736c-0.40377,-0.27345 -0.75901,-0.56642 -1.06571,-0.87893zM257.71437,202.91581c0.33989,0.32033 0.77177,0.61721 1.29563,0.89065c0.54688,-0.32032 0.93151,-0.6172 1.15387,-0.89065zM259.17484,198.72033h3.18167v0.67971h-2.22335v1.75007c0,0.25522 -0.06772,0.4297 -0.20317,0.52346c-0.11244,0.07813 -0.30027,0.11719 -0.56349,0.11719c-0.24789,0 -0.51622,-0.02083 -0.805,-0.06249l-0.09967,-0.67971c0.27856,0.04684 0.51239,0.07026 0.7015,0.07026c0.07411,0 0.11756,-0.01693 0.13034,-0.05078c0.01024,-0.02342 0.01535,-0.06248 0.01535,-0.11719v-1.55079h-0.989c0,0.56773 -0.06261,1.01305 -0.18783,1.33597c-0.21978,0.57033 -0.63888,0.9779 -1.25729,1.22271l-0.57883,-0.54299c0.47789,-0.19011 0.80116,-0.43491 0.96983,-0.73439c0.09711,-0.17188 0.16484,-0.37762 0.20317,-0.61721c0.02298,-0.14063 0.03959,-0.36199 0.04983,-0.66409h-2.323v-0.67971h3.13947v-0.71874h0.83949zM261.7662,201.62668c-0.37823,-0.58075 -0.81522,-1.12244 -1.31099,-1.62509l0.62867,-0.4336c0.48555,0.42709 0.92766,0.93753 1.32634,1.53131zM255.02345,201.06416c0.52389,-0.40887 0.91105,-0.88283 1.1615,-1.42188l0.713,0.26954c-0.35522,0.74743 -0.81011,1.32689 -1.36468,1.73836z"/><path d="M266.21922,199.64882v-0.59377h-3.08964v-0.71877h7.01111v0.71877h-3.105v0.59377h2.68716v3.16801h-2.70627c-0.00264,0.01824 -0.00396,0.03648 -0.00396,0.05471c-0.02813,0.45835 -0.14313,0.86329 -0.34499,1.21483c0.99154,0.35417 2.22203,0.59767 3.69145,0.73048l-0.4715,0.76175c-1.42854,-0.16928 -2.66285,-0.46877 -3.70294,-0.89847c-0.29645,0.26303 -0.6785,0.47527 -1.14615,0.63673c-0.4191,0.14584 -0.96216,0.26173 -1.62917,0.34767l-0.414,-0.74221c1.03242,-0.07813 1.82849,-0.27735 2.38819,-0.59767c-0.54944,-0.27605 -1.058,-0.59767 -1.52565,-0.96487l0.56349,-0.4883c0.48811,0.38543 0.98771,0.69143 1.49881,0.918c0.14822,-0.25783 0.24278,-0.58206 0.28366,-0.97269h-2.66794v-3.16801zM266.21922,200.27384h-1.8592v0.62892h1.8592zM267.03572,200.27384v0.62892h1.86296v-0.62892zM266.21922,201.50432h-1.8592v0.67972h1.8592zM267.03572,201.50432v0.67972h1.86296v-0.67972z"/><path d="M271.50913,198.33647h0.90466v4.65642c0,0.98177 0.50601,1.47266 1.51803,1.47266c0.66702,0 1.21391,-0.31381 1.64066,-0.94144c0.276,-0.40366 0.52389,-1.02867 0.74366,-1.87505l0.77816,0.48048c-0.26067,0.94011 -0.57372,1.64326 -0.93916,2.10945c-0.575,0.72657 -1.32248,1.08986 -2.24247,1.08986c-0.9609,0 -1.63812,-0.30209 -2.03166,-0.90628c-0.24789,-0.37761 -0.37183,-0.8646 -0.37183,-1.46095z"/><path d="M280.95964,198.18504h0.84716v0.9844h2.41117v0.7422h-2.41117v0.92972h2.27704v0.7344h-2.27704v1.20706c0.90979,0.31251 1.80679,0.78256 2.69102,1.41017l-0.45233,0.7422c-0.66953,-0.51043 -1.41576,-0.96097 -2.2387,-1.35162c-0.02047,0.44532 -0.1048,0.79037 -0.25299,1.03514c-0.25811,0.42449 -0.76666,0.63674 -1.52565,0.63674c-0.58522,0 -1.05543,-0.11198 -1.41064,-0.33595c-0.39611,-0.25001 -0.59416,-0.58856 -0.59416,-1.01566c0,-0.51043 0.26705,-0.88805 0.80116,-1.13286c0.35777,-0.16147 0.82287,-0.2422 1.39529,-0.2422c0.22488,0 0.47149,0.01824 0.73982,0.05471v-1.00784h-2.71787v-0.7344h2.71787v-0.92972h-2.8827v-0.7422h2.8827zM280.95964,203.31017c-0.30411,-0.06508 -0.59544,-0.09762 -0.87399,-0.09762c-0.33989,0 -0.61589,0.05078 -0.828,0.15235c-0.253,0.1224 -0.3795,0.29688 -0.3795,0.52346c0,0.19011 0.09839,0.34376 0.29517,0.46095c0.19933,0.11979 0.46511,0.17969 0.79733,0.17969c0.39355,0 0.66444,-0.10677 0.81267,-0.32032c0.11755,-0.16667 0.17633,-0.41537 0.17633,-0.74611z"/><path d="M289.09263,198.16485h0.86249v1.07815h2.26168v0.75393h-2.26168v1.67193c0.08945,0.32032 0.13417,0.60548 0.13417,0.85549c0,0.92712 -0.20061,1.60813 -0.60183,2.04303c-0.437,0.47658 -1.09503,0.80602 -1.97411,0.98831l-0.437,-0.66408c0.68234,-0.13282 1.18835,-0.32032 1.51803,-0.56252c0.30922,-0.22917 0.5175,-0.54038 0.62483,-0.93362c-0.27344,0.30469 -0.59928,0.45704 -0.97749,0.45704c-0.42422,0 -0.76794,-0.1224 -1.03114,-0.3672c-0.30922,-0.28907 -0.46383,-0.70835 -0.46383,-1.25784c0,-0.28907 0.06772,-0.56772 0.20317,-0.83596c0.08944,-0.17188 0.19933,-0.31512 0.32966,-0.4297c0.30156,-0.26042 0.66317,-0.39064 1.08483,-0.39064c0.26833,0 0.51111,0.06511 0.72833,0.19532v-0.76955h-3.78347v-0.75393h3.78347zM289.12334,202.21961v-0.14453c0,-0.16668 -0.03833,-0.31382 -0.115,-0.44142c-0.14311,-0.23959 -0.35011,-0.35938 -0.621,-0.35938c-0.138,0 -0.26705,0.03906 -0.38716,0.11719c-0.28111,0.17969 -0.42167,0.45574 -0.42167,0.82814c0,0.23439 0.05111,0.43231 0.15334,0.59377c0.14311,0.22397 0.35394,0.33595 0.63249,0.33595c0.253,0 0.45361,-0.11589 0.60183,-0.34767c0.10478,-0.16406 0.15717,-0.35808 0.15717,-0.58205z"/><path d="M248.00172,209.27945l2.92867,2.98449l2.92867,-2.98449l0.33734,0.34377l-2.92867,2.98449l2.92867,2.98449l-0.33734,0.34377l-2.92867,-2.98449l-2.92867,2.98449l-0.33734,-0.34377l2.92867,-2.98449l-2.92867,-2.98449zM248.27771,211.95139c0.10733,0 0.20955,0.02736 0.30667,0.08207c0.22488,0.125 0.33733,0.31511 0.33733,0.57033c0,0.11458 -0.0281,0.22266 -0.0843,0.32423c-0.12267,0.22397 -0.3105,0.33595 -0.56349,0.33595c-0.14567,0 -0.276,-0.04688 -0.391,-0.14063c-0.16611,-0.13021 -0.24916,-0.30209 -0.24916,-0.51564c0,-0.19011 0.06772,-0.35027 0.20316,-0.48048c0.12523,-0.11719 0.27217,-0.17578 0.44084,-0.17578zM250.93416,209.24431c0.10477,0 0.20572,0.02736 0.30283,0.08207c0.22488,0.125 0.33733,0.31511 0.33733,0.57033c0,0.11458 -0.0281,0.22266 -0.0843,0.32423c-0.12267,0.22397 -0.3105,0.33595 -0.56349,0.33595c-0.14311,0 -0.27344,-0.04688 -0.391,-0.14063c-0.16611,-0.13021 -0.24916,-0.30209 -0.24916,-0.51564c0,-0.19011 0.069,-0.35027 0.20699,-0.48048c0.12267,-0.11719 0.26962,-0.17578 0.44084,-0.17578zM253.58684,211.95139c0.10477,0 0.20572,0.02736 0.30283,0.08207c0.22488,0.125 0.33733,0.31511 0.33733,0.57033c0,0.11458 -0.0281,0.22266 -0.0843,0.32423c-0.12267,0.22397 -0.3105,0.33595 -0.56349,0.33595c-0.14567,0 -0.276,-0.04688 -0.391,-0.14063c-0.16611,-0.13021 -0.24917,-0.30209 -0.24917,-0.51564c0,-0.19011 0.069,-0.35027 0.207,-0.48048c0.12267,-0.11719 0.26962,-0.17578 0.44084,-0.17578zM250.93416,214.65463c0.10477,0 0.20572,0.02736 0.30283,0.08207c0.22488,0.125 0.33733,0.31511 0.33733,0.57033c0,0.11458 -0.0281,0.22266 -0.0843,0.32423c-0.12267,0.22396 -0.3105,0.33594 -0.56349,0.33594c-0.14311,0 -0.27344,-0.04687 -0.391,-0.14062c-0.16611,-0.13021 -0.24916,-0.30209 -0.24916,-0.51564c0,-0.19011 0.069,-0.35027 0.20699,-0.48048c0.12267,-0.11719 0.26962,-0.17578 0.44084,-0.17578z"/><path d="M257.51167,209.79429h1.00429v0.70315h-1.00429v0.81643h1.23431v0.7344h-1.31861v1.73442c0,0.22136 -0.05239,0.38152 -0.15717,0.48048c-0.09711,0.09115 -0.25299,0.13673 -0.46766,0.13673c-0.138,0 -0.35522,-0.01561 -0.65166,-0.04684l-0.12267,-0.67972c0.22233,0.03648 0.39739,0.05471 0.52517,0.05471c0.07922,0 0.12521,-0.01955 0.13799,-0.05865c0.01024,-0.02342 0.01535,-0.05988 0.01535,-0.10937v-1.51173h-1.65978v-0.7344h0.48683v-1.81649h0.70533v1.81649h0.54433v-2.51184h0.72833zM258.91855,213.52096v-3.00013h0.96983c0.03322,-0.11458 0.08688,-0.34376 0.161,-0.68752h-1.39152v-0.71096h3.81795v0.71096h-1.6368c-0.069,0.24219 -0.14695,0.47137 -0.23384,0.68752h1.51803v4.2501h-3.20466v-1.16022l-0.52517,0.34377c-0.27089,-0.65628 -0.52261,-1.15628 -0.75516,-1.50002l0.52516,-0.29688c0.26578,0.38803 0.5175,0.84247 0.75517,1.36333zM261.36805,211.13804h-1.70961v0.60939h1.70961zM261.36805,212.33338h-1.70961v0.58986h1.70961zM261.36805,213.50925h-1.70961v0.63674h1.70961zM258.23621,215.93902c0.51111,-0.28386 0.96601,-0.66017 1.36468,-1.12892l0.63632,0.39845c-0.47022,0.57033 -0.94684,0.99482 -1.42986,1.27348zM261.95836,216.44294c-0.37823,-0.46356 -0.78966,-0.86332 -1.23431,-1.19929l0.575,-0.44924c0.49067,0.33855 0.91617,0.70964 1.27651,1.11328zM254.98559,213.8569c0.322,-0.38543 0.58394,-0.91539 0.78583,-1.58986l0.64399,0.20704c-0.21978,0.83338 -0.51622,1.4597 -0.88933,1.87898zM255.21941,215.71246c1.26753,-0.40366 2.12874,-1.10681 2.58364,-2.10945l0.56733,0.49611c-0.59544,1.07296 -1.47709,1.8243 -2.64496,2.25401z"/><path d="M267.22965,209.51163h3.00534v0.65627h-1.70198v0.64846h1.5947v0.63284h-1.5947v1.16405h-3.08578v-1.16405h-1.25729v0.72658c0,1.1797 -0.06133,2.11201 -0.184,2.79692c-0.09456,0.52085 -0.24789,0.99613 -0.46,1.42582l-0.69765,-0.56251c0.19422,-0.4297 0.32711,-0.95444 0.39866,-1.57421c0.06386,-0.54429 0.09579,-1.23963 0.09579,-2.08603v-2.66417h3.03219v-0.70315h0.85483zM264.18983,210.1679v0.64846h1.25729v-0.64846zM266.2637,210.1679v0.64846h1.45284v-0.64846zM266.2637,211.44915v0.60549h1.45284v-0.60549zM267.15303,215.55085c-0.73854,0.39064 -1.67643,0.68752 -2.81366,0.89065l-0.39867,-0.71877c1.06822,-0.13021 1.90516,-0.32944 2.51083,-0.59767c-0.51877,-0.38282 -0.96218,-0.83727 -1.3302,-1.36333h-0.52899v-0.67972h4.4888l0.4025,0.34377c-0.38077,0.59637 -0.92383,1.15759 -1.62917,1.68364c0.60566,0.2474 1.43111,0.4297 2.47635,0.5469l-0.44849,0.7383c-1.00178,-0.13803 -1.91157,-0.41928 -2.72936,-0.84377zM266.01451,213.76172c0.30923,0.3698 0.6849,0.69533 1.12703,0.97659c0.49833,-0.32813 0.88295,-0.65366 1.15387,-0.97659z"/><path d="M270.91476,210.53123h1.69436c0.07667,-0.40105 0.16228,-0.89978 0.25683,-1.49618l0.01922,-0.11329l0.8395,0.12891c-0.08689,0.5521 -0.17634,1.04561 -0.26834,1.48053h0.46384c0.61333,0 1.05286,0.14063 1.31861,0.42189c0.23767,0.25261 0.3565,0.64584 0.3565,1.1797c0,0.89846 -0.09328,1.73833 -0.27984,2.51961c-0.10733,0.44272 -0.23766,0.76955 -0.391,0.9805c-0.19422,0.26303 -0.46383,0.39454 -0.80882,0.39454c-0.414,0 -0.86632,-0.13542 -1.35695,-0.40626l0.09579,-0.82425c0.48556,0.23699 0.86249,0.35549 1.13079,0.35549c0.14056,0 0.24917,-0.07683 0.32583,-0.23048c0.08177,-0.16668 0.15971,-0.40757 0.23383,-0.72268c0.14567,-0.63804 0.2185,-1.30861 0.2185,-2.01173c0,-0.3698 -0.07283,-0.60939 -0.2185,-0.71877c-0.12522,-0.09114 -0.34883,-0.13672 -0.67083,-0.13672h-0.59033c-0.40633,1.84382 -0.98898,3.41679 -1.74795,4.71891l-0.77049,-0.4297c0.78457,-1.34115 1.34424,-2.77088 1.679,-4.28916h-1.52952zM277.28187,214.38681c-0.28877,-1.0834 -0.74492,-2.14724 -1.36844,-3.19153l0.7475,-0.34375c0.644,1.04692 1.1257,2.10033 1.44512,3.16024zM276.71454,210.64449c-0.15844,-0.42189 -0.41399,-0.89067 -0.76666,-1.40633l0.59416,-0.22657c0.30922,0.44532 0.56861,0.90757 0.77816,1.38675zM277.74568,210.30854c-0.19933,-0.50262 -0.45361,-0.9753 -0.76284,-1.41804l0.5635,-0.19141c0.29388,0.35678 0.55072,0.80211 0.77049,1.33597z"/><path d="M280.39499,210.69275v5.71892h-0.83183v-3.98056c-0.16866,0.29428 -0.368,0.60809 -0.598,0.94143l-0.39867,-0.87502c0.437,-0.62241 0.80373,-1.35288 1.10018,-2.19142c0.14822,-0.41668 0.3105,-0.94926 0.48683,-1.59774l0.83183,0.22267c-0.17634,0.61721 -0.37311,1.20447 -0.59033,1.76178zM281.28432,209.59501c0.09455,-0.00781 0.19166,-0.01561 0.29133,-0.02342c0.96856,-0.07031 1.92306,-0.21484 2.86349,-0.4336c0.23,-0.05471 0.47405,-0.12112 0.73216,-0.19922l0.53283,0.65627c-0.50089,0.14584 -1.02476,0.26824 -1.57162,0.36721c0.01024,0.50522 0.03834,0.99611 0.0843,1.47266l1.80164,-0.10547l0.03071,0.76174l-1.75568,0.09762c0.13289,1.0912 0.32711,1.91674 0.58266,2.47661c0.069,0.15104 0.1495,0.29167 0.2415,0.42188c0.06135,0.08594 0.10479,0.12891 0.13033,0.12891c0.02813,0 0.06519,-0.08724 0.11117,-0.26172c0.05878,-0.22918 0.10861,-0.57032 0.1495,-1.02343l0.65933,0.52736c-0.07922,0.63283 -0.17122,1.07947 -0.276,1.33991c-0.14311,0.34897 -0.31433,0.52346 -0.51367,0.52346c-0.17122,0 -0.37439,-0.11719 -0.6095,-0.35158c-0.27856,-0.27865 -0.529,-0.69143 -0.75133,-1.23835c-0.15078,-0.37241 -0.26322,-0.76043 -0.33734,-1.16405c-0.06386,-0.35158 -0.12136,-0.75783 -0.1725,-1.21877l-0.01149,-0.10547l-1.41837,0.08591v1.87111c0.50344,-0.13803 0.9826,-0.28386 1.43749,-0.43751l0.06132,0.71876c-0.77176,0.32033 -1.64321,0.60549 -2.61435,0.8555l-0.29133,-0.80081c0.14822,-0.02867 0.35267,-0.07294 0.61333,-0.13282zM283.34283,210.09112c-0.39355,0.06252 -0.81523,0.11331 -1.26502,0.15235v1.31649l1.34546,-0.07814c-0.03322,-0.40887 -0.06006,-0.87243 -0.08054,-1.39069zM281.12721,215.44289h2.90945v0.79299h-2.90945z"/><path d="M290.21204,213.90296c-0.47278,1.41673 -1.00306,2.1251 -1.59084,2.1251c-0.41911,0 -0.77818,-0.29949 -1.0772,-0.89847c-0.23,-0.46356 -0.38844,-0.97399 -0.47533,-1.53131c-0.10478,-0.67711 -0.15717,-1.54692 -0.15717,-2.60946c0,-0.46095 0.01661,-0.95574 0.04983,-1.48437l0.90083,0.07026c-0.03322,0.52866 -0.04983,1.03129 -0.04983,1.50789c0,1.67193 0.15333,2.83733 0.46,3.4962c0.12522,0.27084 0.24277,0.40626 0.35266,0.40626c0.07156,0 0.161,-0.08333 0.26833,-0.25c0.21978,-0.33855 0.43189,-0.80471 0.63633,-1.39846zM292.63856,214.83267c-0.13033,-1.09901 -0.29005,-1.98707 -0.47916,-2.66417c-0.23,-0.82032 -0.49706,-1.57166 -0.80116,-2.25401l0.8165,-0.20313c0.42166,0.85161 0.73471,1.67193 0.93916,2.46096c0.16867,0.64065 0.30795,1.45579 0.41783,2.44541z"/><path d="M296.88881,209.39049h4.41975v0.76175h-1.31861v1.30468h1.54101v0.76174h-1.54101v1.61722c0.62866,0.27605 1.23175,0.64846 1.80927,1.11721l-0.44466,0.75392c-0.42167,-0.3698 -0.8791,-0.70314 -1.37231,-1.00003c-0.07922,0.91669 -0.60184,1.37504 -1.56785,1.37504c-0.47022,0 -0.87271,-0.11979 -1.20747,-0.35938c-0.36288,-0.25782 -0.54433,-0.58595 -0.54433,-0.9844c0,-0.43491 0.19039,-0.76956 0.57116,-1.00394c0.30666,-0.19011 0.68871,-0.28516 1.14615,-0.28516c0.23,0 0.48428,0.03254 0.76284,0.09762v-1.3282h-2.43415v-0.76174h2.43415v-1.30468h-2.25396zM299.14277,214.30474c-0.26833,-0.09635 -0.52517,-0.14453 -0.7705,-0.14453c-0.25044,0 -0.4536,0.04167 -0.60949,0.125c-0.19422,0.10417 -0.29133,0.25652 -0.29133,0.45705c0,0.14584 0.06389,0.27084 0.19167,0.37501c0.184,0.15365 0.42166,0.23048 0.71299,0.23048c0.51111,0 0.76667,-0.25392 0.76667,-0.76175zM294.98365,216.13678c-0.10733,-0.88802 -0.161,-1.85418 -0.161,-2.89848c0,-1.48181 0.09583,-2.84383 0.2875,-4.08605l0.83182,0.12109c-0.18655,1.13286 -0.27983,2.39854 -0.27983,3.79703c0,1.01825 0.05111,1.98962 0.15333,2.91412z"/><path d="M308.72672,215.8412c-0.75644,0.08073 -1.53843,0.1211 -2.34599,0.1211c-1.19086,0 -2.02526,-0.07683 -2.5032,-0.23048c-0.34755,-0.11198 -0.62227,-0.27865 -0.82416,-0.50002c-0.23256,-0.25782 -0.34884,-0.57163 -0.34884,-0.94144c0,-0.612 0.26961,-1.1537 0.80883,-1.62509c0.21467,-0.18751 0.55712,-0.41148 1.02737,-0.6719c-0.35267,-0.80733 -0.67211,-1.72662 -0.95834,-2.75785l0.85484,-0.22657c0.26067,0.96098 0.53922,1.83339 0.83566,2.61723c0.99921,-0.46095 1.85404,-0.78909 2.56452,-0.9844l0.38716,0.76174c-0.92002,0.22918 -1.9678,0.62631 -3.14334,1.19141c-0.38589,0.1875 -0.65677,0.33855 -0.81267,0.45314c-0.45744,0.34116 -0.68616,0.72006 -0.68616,1.1367c0,0.36199 0.21211,0.61461 0.63633,0.75784c0.35267,0.11719 0.98389,0.17578 1.89367,0.17578c0.84077,0 1.68283,-0.04948 2.52618,-0.14845zM308.23223,210.59492c-0.16611,-0.42709 -0.42038,-0.89193 -0.76283,-1.39452l0.58266,-0.21485c0.30155,0.42449 0.5571,0.88025 0.76666,1.36727zM309.19822,210.25117c-0.18144,-0.47137 -0.43316,-0.93884 -0.75516,-1.4024l0.55583,-0.19141c0.29389,0.36459 0.54561,0.80732 0.75517,1.3282z"/><path d="M311.79765,210.69275v5.71892h-0.83183v-3.98056c-0.16866,0.29428 -0.368,0.60809 -0.598,0.94143l-0.39867,-0.87502c0.437,-0.62241 0.80373,-1.35288 1.10018,-2.19142c0.14822,-0.41668 0.3105,-0.94926 0.48683,-1.59774l0.83183,0.22267c-0.17633,0.61721 -0.37311,1.20447 -0.59033,1.76178zM312.68697,209.59501c0.09455,-0.00781 0.19166,-0.01561 0.29133,-0.02342c0.96856,-0.07031 1.92306,-0.21484 2.86349,-0.4336c0.23,-0.05471 0.47405,-0.12112 0.73216,-0.19922l0.53283,0.65627c-0.50089,0.14584 -1.02476,0.26824 -1.57162,0.36721c0.01024,0.50522 0.03834,0.99611 0.0843,1.47266l1.80164,-0.10547l0.03061,0.76174l-1.75568,0.09762c0.13289,1.0912 0.32711,1.91674 0.58266,2.47661c0.069,0.15104 0.1495,0.29167 0.2415,0.42188c0.06135,0.08594 0.10479,0.12891 0.13033,0.12891c0.02813,0 0.06519,-0.08724 0.11117,-0.26172c0.05878,-0.22918 0.10861,-0.57032 0.1495,-1.02343l0.65933,0.52736c-0.07922,0.63283 -0.17122,1.07947 -0.276,1.33991c-0.14311,0.34897 -0.31433,0.52346 -0.51367,0.52346c-0.17122,0 -0.37439,-0.11719 -0.6095,-0.35158c-0.27855,-0.27865 -0.52899,-0.69143 -0.75133,-1.23835c-0.15078,-0.37241 -0.26322,-0.76043 -0.33734,-1.16405c-0.06386,-0.35158 -0.12136,-0.75783 -0.1725,-1.21877l-0.01149,-0.10547l-1.41837,0.08591v1.87111c0.50344,-0.13803 0.9826,-0.28386 1.43749,-0.43751l0.06132,0.71876c-0.77176,0.32033 -1.64321,0.60549 -2.61435,0.8555l-0.29133,-0.80081c0.14822,-0.02867 0.35267,-0.07294 0.61333,-0.13282zM314.74548,210.09112c-0.39355,0.06252 -0.81523,0.11331 -1.26502,0.15235v1.31649l1.34546,-0.07814c-0.03322,-0.40887 -0.06006,-0.87243 -0.08054,-1.39069zM312.52986,215.44289h2.90945v0.79299h-2.90945z"/><path d="M322.40719,210.54132h2.03553v4.28139h-1.62531c0.95833,0.27084 1.79781,0.57814 2.51845,0.92191l-0.644,0.70315c-0.73854,-0.41147 -1.58314,-0.77738 -2.53381,-1.09773l0.5175,-0.52736h-2.44564l0.62482,0.53518c-0.73596,0.46356 -1.56779,0.83206 -2.49547,1.1055l-0.61333,-0.72659c0.8868,-0.19792 1.69947,-0.50262 2.43801,-0.91409h-1.52565v-3.70719c-0.08178,0.04947 -0.22872,0.1302 -0.44084,0.2422l-0.45616,-0.64065c1.07845,-0.52866 1.86299,-1.1706 2.35361,-1.92582l0.56733,0.36721h2.21186l0.4025,0.37501c-0.27344,0.36459 -0.56988,0.70054 -0.88933,1.00784zM321.40666,210.54132c0.28366,-0.26303 0.51877,-0.51043 0.70532,-0.74221h-1.75568c-0.22488,0.2474 -0.4996,0.49481 -0.82416,0.74221zM319.50536,211.15071v0.6172h4.07868v-0.6172zM319.50536,212.33435v0.60939h4.07868v-0.60939zM319.50536,213.5297v0.6758h4.07868v-0.6758z"/><path d="M332.30348,211.83348v3.73838c0,0.29168 -0.07283,0.49481 -0.2185,0.60939c-0.12778,0.10417 -0.36417,0.15626 -0.70917,0.15626c-0.45999,0 -0.84716,-0.01824 -1.1615,-0.05471l-0.15716,-0.76955c0.4881,0.04947 0.88039,0.0742 1.17686,0.0742c0.11755,0 0.18783,-0.02214 0.21083,-0.06643c0.0179,-0.03123 0.02685,-0.08722 0.02685,-0.16797v-3.51962h-3.55732v-0.71096h5.25167v0.71096zM327.74187,209.48185v-0.67971h0.82416v0.67971h1.65602v-0.67971h0.8395v0.67971h1.93201v0.71877h-1.93201v0.61721h-0.8395v-0.61721h-1.65602v0.61721h-0.54816c-0.17378,0.45314 -0.36289,0.85808 -0.56734,1.21483v4.37124h-0.82416v-3.12905c-0.20189,0.25782 -0.42678,0.50913 -0.67466,0.75393l-0.37566,-0.78518c0.7283,-0.73182 1.28031,-1.63418 1.65602,-2.70708l0.50983,0.1836v-0.51955h-1.87069v-0.71877zM330.75871,212.54447v2.20323h-1.94736v0.54298h-0.73983v-2.74614zM328.81135,213.14605v0.96878h1.21896v-0.96878z"/><path d="M334.23519,216.07338c-0.09711,-0.88547 -0.14566,-1.76568 -0.14566,-2.64065c0,-1.50005 0.10861,-2.92459 0.32582,-4.27362l0.84333,0.08985c-0.207,1.16671 -0.3105,2.48317 -0.3105,3.94937c0,0.9844 0.05367,1.90499 0.161,2.76179zM336.53521,209.88565h3.68382v0.83206h-3.68382zM340.47966,215.59286c-0.51111,0.08073 -1.11806,0.1211 -1.82086,0.1211c-1.76588,0 -2.64882,-0.52868 -2.64882,-1.58603c0,-0.41929 0.10989,-0.7852 0.32967,-1.09773l0.72449,0.32814c-0.138,0.19792 -0.207,0.42058 -0.207,0.66799c0,0.30469 0.1495,0.51434 0.4485,0.62893c0.33222,0.13021 0.78583,0.19532 1.36081,0.19532c0.62099,0 1.19598,-0.04167 1.72497,-0.12501z"/><path d="M345.89479,211.63158h0.87016v2.14458c0.598,0.26824 1.21004,0.6224 1.83611,1.0625l-0.44083,0.73048c-0.43956,-0.32813 -0.90465,-0.63283 -1.39529,-0.91408c-0.02813,0.46095 -0.17508,0.81512 -0.44084,1.0625c-0.29644,0.27345 -0.71171,0.41017 -1.2458,0.41017c-0.51622,0 -0.94172,-0.1198 -1.27651,-0.35939c-0.32711,-0.23698 -0.49066,-0.56772 -0.49066,-0.99222c0,-0.44532 0.20572,-0.80212 0.61717,-1.07037c0.31944,-0.20834 0.72834,-0.31251 1.22668,-0.31251c0.23256,0 0.47917,0.02864 0.73983,0.08591zM345.89479,214.2801c-0.30411,-0.10677 -0.59161,-0.16016 -0.8625,-0.16016c-0.26577,0 -0.47916,0.04818 -0.64016,0.14454c-0.207,0.125 -0.3105,0.29167 -0.3105,0.50002c0,0.25522 0.14822,0.44142 0.44467,0.55861c0.14822,0.05727 0.32582,0.08591 0.53282,0.08591c0.33222,0 0.57117,-0.14323 0.71683,-0.4297c0.07922,-0.15365 0.11883,-0.33334 0.11883,-0.53907zM341.78163,210.1355h1.46433c0.13033,-0.45053 0.23511,-0.84767 0.31432,-1.19141l0.8395,0.10547c-0.10223,0.38282 -0.207,0.74483 -0.31433,1.08602h1.39915v0.78518h-1.64829c-0.45744,1.33597 -0.99409,2.46621 -1.60996,3.39071l-0.713,-0.41408c0.58266,-0.88022 1.0746,-1.87242 1.47583,-2.97661h-1.20747zM348.18322,212.0379c-0.56733,-0.64325 -1.21899,-1.2292 -1.95499,-1.75784l0.506,-0.56251c0.73088,0.48179 1.39786,1.043 2.00095,1.68364z"/><path d="M352.1456,212.38871c-0.25555,0.487 -0.5175,0.85291 -0.78583,1.09773c-0.23,0.21095 -0.44084,0.31642 -0.6325,0.31642c-0.24533,0 -0.44339,-0.16928 -0.59416,-0.50783c-0.15588,-0.35417 -0.23383,-0.90886 -0.23383,-1.66406c0,-0.76042 0.08689,-1.58468 0.26066,-2.47277l0.83949,0.1289c-0.16866,0.88022 -0.25299,1.62503 -0.25299,2.23443c0,0.82032 0.0575,1.23048 0.1725,1.23048c0.04346,0 0.11757,-0.0625 0.22233,-0.1875c0.16356,-0.18751 0.33606,-0.46356 0.5175,-0.82815zM351.56293,215.44739c0.78457,-0.22397 1.37617,-0.55861 1.77479,-1.00394c0.4881,-0.54429 0.73216,-1.36723 0.73216,-2.46883c0,-0.83593 -0.07922,-1.77477 -0.23766,-2.81651l0.87783,-0.08591c0.16866,1.0521 0.25299,2.03259 0.25299,2.94148c0,1.474 -0.37185,2.53522 -1.11554,3.18366c-0.45233,0.39585 -1.06183,0.72398 -1.82849,0.9844z"/><path d="M359.62478,208.98669h0.84716v0.9844h2.41117v0.74221h-2.41117v0.92972h2.27704v0.73439h-2.27704v1.20706c0.90979,0.31251 1.80679,0.78257 2.69102,1.41017l-0.45234,0.74221c-0.66953,-0.51044 -1.41573,-0.96098 -2.2386,-1.35162c-0.02047,0.44533 -0.1048,0.79038 -0.25299,1.03514c-0.25811,0.42449 -0.76666,0.63674 -1.52565,0.63674c-0.58522,0 -1.05543,-0.11198 -1.41064,-0.33595c-0.39611,-0.25001 -0.59416,-0.58856 -0.59416,-1.01566c0,-0.51043 0.26705,-0.88805 0.80115,-1.13286c0.35778,-0.16146 0.82288,-0.24219 1.39529,-0.24219c0.22489,0 0.4715,0.01824 0.73983,0.05471v-1.00784h-2.71787v-0.73439h2.71787v-0.92972h-2.8827v-0.74221h2.8827zM359.62478,214.11182c-0.30411,-0.06508 -0.59545,-0.09762 -0.87399,-0.09762c-0.33989,0 -0.61589,0.05078 -0.828,0.15234c-0.253,0.12241 -0.3795,0.29689 -0.3795,0.52346c0,0.19011 0.09839,0.34376 0.29517,0.46096c0.19933,0.11979 0.46511,0.17969 0.79733,0.17969c0.39355,0 0.66444,-0.10677 0.81266,-0.32032c0.11756,-0.16667 0.17634,-0.41538 0.17634,-0.74612z"/><path d="M367.75777,208.9665h0.86249v1.07815h2.26168v0.75392h-2.26168v1.67193c0.08944,0.32033 0.13416,0.60549 0.13416,0.8555c0,0.92712 -0.20061,1.60813 -0.60182,2.04303c-0.437,0.47658 -1.09504,0.80602 -1.97411,0.98832l-0.437,-0.66409c0.68234,-0.13282 1.18835,-0.32032 1.51803,-0.56251c0.30922,-0.22918 0.51749,-0.54039 0.62482,-0.93363c-0.27344,0.3047 -0.59928,0.45705 -0.97749,0.45705c-0.42422,0 -0.76793,-0.1224 -1.03114,-0.36721c-0.30922,-0.28907 -0.46383,-0.70835 -0.46383,-1.25784c0,-0.28907 0.06772,-0.56773 0.20316,-0.83597c0.08945,-0.17188 0.19934,-0.31511 0.32967,-0.42969c0.30155,-0.26043 0.66316,-0.39065 1.08483,-0.39065c0.26833,0 0.51111,0.06511 0.72833,0.19532v-0.76955h-3.78347v-0.75392h3.78347zM367.78848,213.02136v-0.14454c0,-0.16667 -0.03833,-0.31381 -0.115,-0.44141c-0.1431,-0.23959 -0.3501,-0.35939 -0.62099,-0.35939c-0.138,0 -0.26705,0.03906 -0.38716,0.11719c-0.28111,0.1797 -0.42167,0.45575 -0.42167,0.82815c0,0.23438 0.05111,0.4323 0.15333,0.59377c0.14311,0.22397 0.35395,0.33595 0.6325,0.33595c0.253,0 0.45361,-0.11589 0.60183,-0.34767c0.10477,-0.16406 0.15716,-0.35808 0.15716,-0.58205z"/><path d="M371.56175,210.53123h1.69436c0.07667,-0.40105 0.16228,-0.89978 0.25684,-1.49618l0.01912,-0.11329l0.83949,0.12891c-0.08689,0.5521 -0.17633,1.04561 -0.26833,1.48053h0.46383c0.61333,0 1.0529,0.14063 1.31871,0.42189c0.23766,0.25261 0.35649,0.64584 0.35649,1.1797c0,0.89846 -0.09328,1.73833 -0.27983,2.51961c-0.10734,0.44272 -0.23767,0.76955 -0.391,0.9805c-0.19422,0.26303 -0.46383,0.39454 -0.80883,0.39454c-0.414,0 -0.86632,-0.13542 -1.35695,-0.40626l0.09579,-0.82425c0.48555,0.23699 0.86248,0.35549 1.13079,0.35549c0.14056,0 0.24917,-0.07683 0.32583,-0.23048c0.08178,-0.16668 0.15972,-0.40757 0.23384,-0.72268c0.14566,-0.63804 0.21849,-1.30861 0.21849,-2.01173c0,-0.3698 -0.07283,-0.60939 -0.21849,-0.71877c-0.12522,-0.09114 -0.34883,-0.13672 -0.67084,-0.13672h-0.59033c-0.40633,1.84382 -0.98898,3.41679 -1.74795,4.71891l-0.77049,-0.4297c0.78457,-1.34115 1.34424,-2.77088 1.679,-4.28916h-1.52952zM377.92886,214.38681c-0.28878,-1.0834 -0.74493,-2.14724 -1.36844,-3.19153l0.74749,-0.34375c0.644,1.04692 1.1257,2.10033 1.44512,3.16024zM377.36153,210.64449c-0.15845,-0.42189 -0.414,-0.89067 -0.76667,-1.40633l0.59416,-0.22657c0.30923,0.44532 0.56861,0.90757 0.77816,1.38675zM378.39267,210.30854c-0.19933,-0.50262 -0.45361,-0.9753 -0.76283,-1.41804l0.56349,-0.19141c0.29389,0.35678 0.55072,0.80211 0.77049,1.33597z"/><path d="M381.19058,216.27528c-0.47278,-0.70315 -1.00689,-1.35421 -1.60233,-1.95318l0.621,-0.55862c0.61844,0.59898 1.16276,1.2357 1.63294,1.91018z"/><path d="M251.3302,225.34059v1.87121h-0.84716v-1.83204l-1.24967,0.04684c-0.46255,0.01824 -1.01456,0.03385 -1.65602,0.04684l-0.24916,-0.71877l0.782,-0.00404l0.34116,-0.00404l1.17299,-0.00808c-0.02813,-0.02086 -0.06647,-0.04822 -0.115,-0.08207c-0.39866,-0.29688 -0.78837,-0.5547 -1.16913,-0.77346l0.55584,-0.4883c0.18144,0.11458 0.3105,0.19922 0.38716,0.25391c0.18655,-0.14583 0.38205,-0.32422 0.5865,-0.53517h-2.36134v-3.32045h3.36177v0.55861h-1.10018v0.4258h1.10018v1.35939h-1.10018v0.45705h1.22668v0.51955h-0.73982l0.38333,0.25782c-0.28111,0.23439 -0.57117,0.44533 -0.87016,0.63284c0.27089,0.20574 0.4945,0.38412 0.67083,0.53517c0.56988,-0.40886 1.12315,-0.84375 1.65978,-1.30468l0.6095,0.47268c-0.36545,0.29428 -0.86251,0.62892 -1.49118,1.00394h0.11883c0.47022,-0.01043 0.96728,-0.02867 1.49118,-0.05471l0.18016,-0.01171c-0.138,-0.13542 -0.29261,-0.26954 -0.46383,-0.40236l0.59799,-0.37501c0.49833,0.34897 0.97238,0.78386 1.42213,1.30468l-0.65166,0.45314c-0.16356,-0.19792 -0.29389,-0.34767 -0.391,-0.44924c-0.03064,0.00269 -0.07025,0.0066 -0.11883,0.01171c-0.51366,0.05471 -1.13977,0.10289 -1.87831,0.14453zM249.07624,220.35215h-0.81267v0.4258h0.81267zM250.13036,221.25842h-1.86682v0.39845h1.86682zM249.07624,222.13736h-0.81267v0.45705h0.81267zM253.27756,221.9147c0.0179,0.01299 0.03705,0.02601 0.05746,0.03907c0.34756,0.2448 0.79479,0.46617 1.3417,0.66409l-0.45617,0.67189c-0.51111,-0.21095 -0.9941,-0.49871 -1.44898,-0.8633c-0.37055,0.3073 -0.77945,0.57163 -1.22668,0.79299l-0.50983,-0.60939c0.45233,-0.16407 0.85994,-0.39194 1.22282,-0.68361c-0.42166,-0.48179 -0.72193,-0.9792 -0.90082,-1.49224h-0.23767v-0.65627h2.81752l0.39483,0.32814c-0.28366,0.71096 -0.63503,1.31383 -1.05412,1.80862zM252.74473,221.45765c0.26578,-0.30209 0.47789,-0.64323 0.63633,-1.02343h-1.30336c0.17123,0.39845 0.39356,0.73959 0.66699,1.02343zM247.32821,226.52029c0.68742,-0.25001 1.25475,-0.58857 1.70198,-1.01566l0.7015,0.44141c-0.59544,0.55731 -1.19982,0.97659 -1.81313,1.25784zM254.00965,227.10625c-0.54689,-0.4271 -1.16404,-0.83204 -1.85147,-1.21483l0.57117,-0.51174c0.71556,0.32553 1.34678,0.68232 1.89367,1.07037z"/><path d="M259.67122,221.24202h2.00868v3.12905h-2.74085c0.33478,0.3099 0.64144,0.66669 0.92,1.07037l-0.65933,0.53908c-0.34756,-0.53648 -0.66445,-0.94014 -0.95067,-1.211l0.53667,-0.39845h-2.86735v-0.66408h4.8683v-0.61721h-4.60381v-0.61721h4.60381v-0.58205h-4.61916v-0.28907c-0.21467,0.15365 -0.44211,0.30078 -0.68233,0.44141l-0.5175,-0.62501c0.84586,-0.44012 1.56013,-1.05602 2.14281,-1.84769l0.53667,0.32814h2.51083l0.43699,0.35938c-0.26067,0.33074 -0.54688,0.63934 -0.85866,0.92581zM258.69373,221.24202c0.276,-0.23438 0.4945,-0.45834 0.65549,-0.67189h-2.04702c-0.21722,0.25001 -0.44467,0.47397 -0.68233,0.67189zM255.07895,226.54684c0.30922,-0.51564 0.53666,-1.10549 0.68233,-1.76955l0.82416,0.25c-0.15588,0.82032 -0.39994,1.49742 -0.73216,2.03132zM257.19115,224.84755h0.8395v1.1055c0,0.16407 0.04344,0.26173 0.13033,0.29298c0.10223,0.03385 0.34756,0.05078 0.736,0.05078c0.46767,0 0.77561,-0.01433 0.92382,-0.043c0.09967,-0.01824 0.16356,-0.07553 0.19167,-0.17188c0.04088,-0.13021 0.06898,-0.36069 0.0843,-0.69143l0.82416,0.28126c-0.02556,0.60939 -0.12267,0.99613 -0.29133,1.16022c-0.10989,0.10417 -0.26961,0.16668 -0.47916,0.18751c-0.32711,0.03123 -0.77177,0.04684 -1.33397,0.04684c-0.68491,0 -1.12062,-0.03254 -1.30712,-0.09762c-0.14822,-0.05209 -0.24278,-0.14454 -0.28366,-0.27735c-0.02298,-0.07552 -0.03447,-0.17449 -0.03447,-0.29688zM261.86777,226.8398c-0.322,-0.76567 -0.65677,-1.38678 -1.00429,-1.86334l0.70533,-0.43752c0.43444,0.59377 0.78327,1.19536 1.04649,1.80478z"/><path d="M266.72443,222.76637v3.09381c0,0.20053 0.08433,0.32163 0.25299,0.3633c0.17378,0.04428 0.57115,0.06643 1.19211,0.06643c0.60567,0 1.00561,-0.03126 1.19984,-0.09378c0.10989,-0.03648 0.18144,-0.13804 0.21467,-0.3047c0.04346,-0.23439 0.06644,-0.51174 0.06895,-0.83206l0.80116,0.23048c-0.04088,0.76823 -0.14438,1.25912 -0.3105,1.47266c-0.10989,0.14063 -0.276,0.22397 -0.49833,0.25001c-0.3501,0.03903 -0.94428,0.05855 -1.78252,0.05855c-0.64911,0 -1.07461,-0.01824 -1.27651,-0.05471c-0.30411,-0.05209 -0.49705,-0.18881 -0.57883,-0.41017c-0.04088,-0.1172 -0.06132,-0.27345 -0.06132,-0.46877v-3.09775l-0.73217,0.25783l-0.18016,-0.75784l0.91233,-0.32031v-2.10551h0.77816v1.83204l0.82417,-0.28516v-2.05867h0.77049v1.7852l1.28414,-0.44924l0.4025,0.25001v2.92583c0,0.20313 -0.04728,0.35418 -0.14184,0.45313c-0.10733,0.10938 -0.28749,0.16406 -0.54049,0.16406c-0.207,0 -0.42678,-0.01824 -0.65934,-0.05471l-0.12649,-0.74612c0.15077,0.0391 0.3041,0.05865 0.45999,0.05865c0.11244,0 0.18144,-0.02342 0.207,-0.07026c0.02556,-0.0391 0.03834,-0.10421 0.03834,-0.19532v-1.84769l-0.92382,0.32814v3.16024h-0.77049v-2.8907zM263.90691,221.48894v-1.88676h0.82416v1.88676h0.74367v0.79299h-0.74367v2.48448c0.26833,-0.09376 0.53411,-0.19141 0.79733,-0.29298l0.07281,0.75392c-0.82803,0.38543 -1.67775,0.70836 -2.54916,0.96879l-0.26833,-0.83206c0.39355,-0.10417 0.73855,-0.20313 1.035,-0.29688c0.03579,-0.01306 0.06518,-0.02218 0.08817,-0.02736v-2.75785h-0.97366v-0.79299z"/><path d="M274.04512,220.65651v-0.33594h-2.39581v-0.55862h5.65793v0.55862h-2.44564v0.33594h3.17395v1.4024h-0.83183v-0.89847h-2.34212v1.5196h-0.8165v-1.5196h-2.30002v0.89847h-0.82417v-1.4024zM276.75912,226.19967c0.391,0.15104 0.87911,0.27084 1.46433,0.35938l-0.4485,0.66409c-0.8203,-0.14323 -1.49369,-0.38934 -2.02017,-0.73831c-0.52389,-0.34897 -0.93149,-0.78258 -1.22282,-1.30084h-0.84716v1.20312c0.56477,-0.08073 1.08865,-0.16668 1.57162,-0.25783l0.05369,0.58206c-0.89955,0.21875 -1.92814,0.40886 -3.08578,0.57033l-0.22617,-0.68752c0.40122,-0.04428 0.67594,-0.07554 0.82417,-0.09378l0.04596,-0.00808v-1.30861h-0.83949c-0.03579,0.45835 -0.09457,0.82426 -0.17633,1.09773c-0.09711,0.32813 -0.253,0.63413 -0.46767,0.918l-0.68233,-0.57424c0.25045,-0.33074 0.40634,-0.71748 0.46767,-1.16022c0.03322,-0.23959 0.04983,-0.53777 0.04983,-0.89456v-1.65629h6.61635v0.51954h-5.79216v1.19929h6.12183v0.5508h-0.87016l0.48683,0.32814c-0.28877,0.2448 -0.62994,0.47397 -1.02351,0.68752zM276.16112,225.89888c0.368,-0.25522 0.6606,-0.4935 0.87783,-0.71487h-1.67514c0.21978,0.28647 0.48556,0.52476 0.79733,0.71487zM272.08244,221.44951h1.63304v0.44142h-1.63304zM272.08244,222.16829h1.63304v0.44924h-1.63304zM275.1913,221.44951h1.68287v0.44142h-1.68287zM275.1913,222.16829h1.68287v0.44924h-1.68287zM272.50028,223.76209h4.77251v0.51174h-4.77251z"/><path d="M280.39499,225.50211c0.01275,0.01306 0.02936,0.02998 0.04983,0.05078c0.21978,0.22918 0.46767,0.39585 0.74367,0.50002c0.44466,0.16668 0.98898,0.25001 1.63294,0.25001h3.358c-0.09711,0.19011 -0.18017,0.43751 -0.24917,0.7422h-3.13185c-0.86375,0 -1.52054,-0.11589 -1.97034,-0.34766c-0.26578,-0.13803 -0.52005,-0.34116 -0.76283,-0.60939c-0.36033,0.46095 -0.72448,0.84116 -1.09246,1.14063l-0.42932,-0.78909c0.38333,-0.2474 0.73087,-0.50913 1.04263,-0.78518v-2.01567h-0.98133v-0.76955h1.79015zM282.89046,224.27547c-0.46767,0.62763 -1.03371,1.14197 -1.69812,1.54302l-0.52133,-0.59767c0.76925,-0.38543 1.44135,-0.92713 2.01631,-1.62509h-1.57548v-1.98448h1.77866v-0.53518h-2.07763v-0.70315h2.07763v-0.76955h0.78583v0.76955h2.14667v0.70315h-2.14667v0.53518h1.8477v1.98448h-1.8477v0.15234c0.71298,0.31512 1.4362,0.71488 2.16966,1.19929l-0.4945,0.6719c-0.50855,-0.41147 -1.06693,-0.80343 -1.67514,-1.17587v1.63287h-0.78583zM282.89046,222.22073h-1.02351v0.78127h1.02351zM283.67629,222.22073v0.78127h1.08483v-0.78127zM279.89282,221.65039c-0.36545,-0.58335 -0.75007,-1.08208 -1.15387,-1.49618l0.62866,-0.49611c0.44722,0.42449 0.84459,0.90498 1.19211,1.44147z"/><path d="M287.99305,220.42433v-0.81643h0.80116v0.81643h1.19211v0.68752h-1.19211v0.67189h1.35695v0.69533h-0.45616c-0.08178,0.3099 -0.19167,0.63804 -0.32967,0.9844h0.73983v0.67971h-1.31099v0.72268h1.26116v0.69533h-1.26116v1.64851h-0.80116v-1.64851h-1.35319v-0.69533h1.35319v-0.72268h-1.41451v-0.67971h0.70533c-0.08178,-0.34637 -0.18145,-0.6745 -0.299,-0.9844h-0.5635v-0.69533h1.57162v-0.67189h-1.24967v-0.68752zM288.94755,222.47906h-1.21896c0.08689,0.2474 0.18017,0.57554 0.27983,0.9844h0.63633c0.13289,-0.33334 0.23383,-0.66148 0.30283,-0.9844zM293.59732,219.88909v1.8282c0,0.22657 -0.04089,0.38673 -0.12266,0.48048c-0.09711,0.11198 -0.30028,0.16797 -0.6095,0.16797c-0.30156,0 -0.60311,-0.01302 -0.90466,-0.03907l-0.13034,-0.70315c0.42422,0.04684 0.69383,0.07026 0.80883,0.07026c0.12011,0 0.18016,-0.05339 0.18016,-0.16017v-0.94143h-1.679v2.26956h2.17352l0.45617,0.39845c-0.138,0.82813 -0.38972,1.56772 -0.75517,2.21878l-0.0422,0.07814c0.2811,0.33074 0.63248,0.63283 1.05412,0.90628l-0.42933,0.73049c-0.40378,-0.26563 -0.7641,-0.58335 -1.08096,-0.95316c-0.27344,0.35418 -0.58138,0.68752 -0.92382,1.00003l-0.45234,-0.64064v0.60939h-0.77816v-7.32049zM291.14019,223.56498v2.95319c0.31434,-0.21876 0.61717,-0.52606 0.9085,-0.92191c-0.391,-0.6146 -0.66572,-1.29171 -0.82417,-2.03132zM292.47416,224.90489c0.22744,-0.44794 0.37566,-0.89457 0.44466,-1.33991h-0.989c0.12522,0.50002 0.30667,0.94666 0.54434,1.33991z"/><path d="M294.4717,221.33288h1.69436c0.07667,-0.40105 0.16228,-0.89978 0.25683,-1.49618l0.01922,-0.11328l0.8395,0.1289c-0.08689,0.5521 -0.17634,1.04561 -0.26834,1.48053h0.46384c0.61333,0 1.05286,0.14063 1.31861,0.42189c0.23766,0.25261 0.35649,0.64584 0.35649,1.1797c0,0.89846 -0.09328,1.73833 -0.27983,2.51961c-0.10733,0.44273 -0.23766,0.76956 -0.391,0.9805c-0.19422,0.26303 -0.46383,0.39454 -0.80882,0.39454c-0.414,0 -0.86632,-0.13542 -1.35695,-0.40625l0.09579,-0.82425c0.48556,0.23698 0.86249,0.35548 1.13079,0.35548c0.14056,0 0.24917,-0.07682 0.32583,-0.23047c0.08177,-0.16668 0.15971,-0.40757 0.23383,-0.72268c0.14567,-0.63804 0.2185,-1.30862 0.2185,-2.01173c0,-0.36981 -0.07283,-0.6094 -0.2185,-0.71877c-0.12522,-0.09115 -0.34883,-0.13673 -0.67083,-0.13673h-0.59033c-0.40633,1.84382 -0.98898,3.41679 -1.74795,4.71891l-0.77049,-0.42969c0.78457,-1.34115 1.34424,-2.77088 1.679,-4.28916h-1.52952zM300.83881,225.18846c-0.28877,-1.0834 -0.74492,-2.14724 -1.36844,-3.19153l0.7475,-0.34377c0.644,1.04692 1.1257,2.10033 1.44512,3.16024zM300.27148,221.44614c-0.15845,-0.42188 -0.414,-0.89066 -0.76666,-1.40633l0.59416,-0.22656c0.30922,0.44532 0.56861,0.90757 0.77816,1.38675zM301.30262,221.1102c-0.19933,-0.50262 -0.45361,-0.9753 -0.76284,-1.41804l0.5635,-0.19141c0.29388,0.35678 0.55072,0.8021 0.77049,1.33597z"/><path d="M304.23921,226.64285v-5.51974c-0.54178,0.1849 -1.05287,0.32162 -1.53328,0.41016l-0.18783,-0.79299c0.81013,-0.20053 1.47457,-0.4323 1.99333,-0.69533h0.73599v6.59789z"/><path d="M308.30076,223.92729c-0.27344,0.72401 -0.575,1.33601 -0.90466,1.83598l-0.44467,-0.84768c0.55456,-0.68229 0.97623,-1.4987 1.26502,-2.44925h-1.12316v-0.7422h1.20747v-1.08986c-0.42422,0.07032 -0.73089,0.11589 -0.92,0.13673l-0.27216,-0.64065c0.93534,-0.11719 1.75951,-0.3086 2.47249,-0.57423l0.4715,0.63284c-0.26067,0.09114 -0.54561,0.17448 -0.85484,0.25l-0.11882,0.03129v1.254h0.95066v0.7422h-0.95066v0.61721c0.38077,0.2474 0.7475,0.56512 1.10018,0.95315l-0.47916,0.72659c-0.17377,-0.29428 -0.38077,-0.57293 -0.62099,-0.83597v3.27744h-0.77816zM311.74693,219.603h0.80116v4.48056c0,0.43751 -0.23255,0.65627 -0.69766,0.65627c-0.22233,0 -0.4421,-0.01693 -0.65933,-0.05078l-0.13417,-0.77346c0.14822,0.03123 0.31433,0.04684 0.49833,0.04684c0.09967,0 0.15845,-0.02214 0.17634,-0.06643c0.01024,-0.02867 0.01535,-0.07555 0.01535,-0.14063zM313.94729,223.51329c-0.26833,-0.85942 -0.61204,-1.75528 -1.03114,-2.68759l0.63632,-0.32813c0.45489,0.82294 0.81904,1.69535 1.09246,2.61723zM309.80729,223.3375c0.31689,-0.6172 0.5405,-1.48053 0.67083,-2.58997l0.72833,0.10938c-0.138,1.30737 -0.38972,2.3022 -0.75516,2.98449zM309.91079,226.56416c1.0733,-0.35678 1.9358,-0.94664 2.5875,-1.76955c0.32711,-0.41408 0.59033,-0.89716 0.78966,-1.44924l0.75133,0.37111c-0.46,1.02868 -1.02733,1.8308 -1.70198,2.40635c-0.50344,0.42709 -1.14487,0.793 -1.92428,1.09773z"/><path d="M318.26639,219.84891v2.88293h-2.18115v4.47279h-0.82416v-7.35572zM316.08525,220.47393v0.51174h1.40302v-0.51174zM316.08525,221.55995v0.5469h1.40302v-0.5469zM322.0997,219.84895v6.44162c0,0.27866 -0.05111,0.48048 -0.15333,0.60549c-0.115,0.14584 -0.345,0.21876 -0.69,0.21876c-0.20956,0 -0.45489,-0.00781 -0.736,-0.02342l-0.14183,-0.80081c0.26067,0.03123 0.48683,0.04684 0.6785,0.04684c0.10733,0 0.1725,-0.02342 0.1955,-0.07026c0.01532,-0.03123 0.02298,-0.08722 0.02298,-0.16797v-3.36729h-2.2386v-2.88293zM319.82266,220.47397v0.51174h1.45284v-0.51174zM319.82266,221.55999v0.5469h1.45284v-0.5469zM320.29415,223.18509v3.01184h-2.53381v0.42969h-0.76283v-3.44149zM317.76035,223.80229v0.55079h1.7633v-0.55079zM317.76035,224.94686v0.60939h1.7633v-0.60939z"/><path d="M323.47705,226.87503c-0.09711,-0.88547 -0.14567,-1.76572 -0.14567,-2.64075c0,-1.50005 0.10861,-2.92459 0.32583,-4.27362l0.84332,0.08985c-0.207,1.16671 -0.3105,2.48317 -0.3105,3.94937c0,0.9844 0.05367,1.90499 0.16101,2.76179zM325.77708,220.6873h3.68382v0.83206h-3.68382zM329.72153,226.39451c-0.51111,0.08073 -1.11806,0.1211 -1.82086,0.1211c-1.76588,0 -2.64882,-0.52868 -2.64882,-1.58603c0,-0.41929 0.10989,-0.7852 0.32966,-1.09773l0.7245,0.32814c-0.138,0.19792 -0.207,0.42059 -0.207,0.668c0,0.30469 0.1495,0.51433 0.44849,0.62892c0.33222,0.13021 0.78583,0.19532 1.36081,0.19532c0.62099,0 1.19598,-0.04167 1.72497,-0.125z"/><path d="M335.68149,224.97717c-0.31689,-0.52345 -0.56861,-1.14588 -0.75516,-1.86727c-0.10989,0.22657 -0.22873,0.44923 -0.3565,0.66799l-0.52132,-0.70315c0.51877,-0.83593 0.88038,-1.98572 1.08483,-3.44936l0.7935,0.11329c-0.07922,0.4297 -0.16484,0.83465 -0.25684,1.21483h2.34599v0.76175h-0.60567l-0.00396,0.05855c-0.07156,0.81776 -0.21978,1.57691 -0.44467,2.27743c-0.11755,0.36199 -0.2415,0.6693 -0.37183,0.92191c0.39611,0.49221 0.89954,0.96098 1.5103,1.40633l-0.42932,0.80081c-0.52133,-0.38282 -1.00561,-0.86072 -1.45284,-1.43369l-0.05369,-0.06249c-0.42166,0.60679 -0.93021,1.12372 -1.52565,1.55079l-0.5175,-0.63283c0.62866,-0.44273 1.1487,-0.98442 1.56013,-1.62509zM336.08783,224.1998c0.26067,-0.64846 0.43955,-1.47662 0.53666,-2.48448h-1.16913c-0.04596,0.15365 -0.08174,0.26432 -0.10733,0.33203c0.16867,0.836 0.41528,1.55349 0.73983,2.15246zM334.00633,224.55528c-0.09711,0.39585 -0.26705,0.7878 -0.50983,1.17587c0.184,0.08855 0.43828,0.21616 0.76284,0.38283l-0.4485,0.71486c-0.23,-0.15885 -0.49961,-0.32943 -0.80883,-0.51173c-0.4881,0.4297 -1.10909,0.73309 -1.86296,0.91018l-0.46383,-0.65627c0.62866,-0.10677 1.16148,-0.31772 1.59846,-0.63284c-0.39355,-0.1823 -0.81394,-0.34506 -1.26116,-0.4883c0.184,-0.28907 0.35394,-0.58725 0.50982,-0.89456h-0.94682v-0.65627h1.2458c0.069,-0.16407 0.15078,-0.38022 0.24534,-0.64846l0.13417,0.02736v-1.04302c-0.33478,0.47137 -0.76665,0.89065 -1.29563,1.25784l-0.45617,-0.59377c0.50345,-0.29168 0.96983,-0.68101 1.39915,-1.16799h-1.27265v-0.66408h1.62531v-1.46489h0.77049v1.46489h1.40302v0.66408h-1.40302v0.12501c0.35777,0.15105 0.75772,0.35678 1.19984,0.61721l-0.38333,0.64065l-0.11116,-0.08985c-0.23,-0.1875 -0.46511,-0.36459 -0.70533,-0.53126v0.97268h-0.207c-0.05112,0.15626 -0.10351,0.30079 -0.15717,0.43361h1.95499v0.65627zM333.23201,224.55528h-0.90083c-0.12522,0.26563 -0.22233,0.45835 -0.29133,0.57814c0.22233,0.07292 0.47405,0.16798 0.75516,0.28517c0.17889,-0.23959 0.32456,-0.52737 0.437,-0.86331zM331.16973,221.05131c-0.12011,-0.35938 -0.27472,-0.70705 -0.46383,-1.04302l0.61333,-0.26173c0.23255,0.39064 0.41016,0.73178 0.53282,1.02343zM333.25885,220.79349c0.18655,-0.34637 0.3335,-0.70575 0.44083,-1.07815l0.713,0.25391c-0.02298,0.05209 -0.04725,0.10678 -0.07281,0.16406c-0.16867,0.38283 -0.32711,0.68362 -0.47533,0.90237z"/><path d="M343.74514,221.77706v3.07039h-3.20466v-3.07039zM341.33397,222.48802v1.64851h1.60996v-1.64851zM345.46248,220.03483v7.13303h-0.86249v-0.51174h-4.89901v0.51174h-0.85484v-7.13303zM339.70103,220.79658v5.06658h4.89901v-5.06658z"/><path d="M349.5898,221.25212v-0.59377h-3.08964v-0.71877h7.01111v0.71877h-3.105v0.59377h2.68716v3.16811h-2.70637c-0.00264,0.01824 -0.00396,0.03648 -0.00396,0.05471c-0.02813,0.45835 -0.14313,0.86329 -0.34499,1.21483c0.99154,0.35418 2.22203,0.59768 3.69145,0.73049l-0.4715,0.76174c-1.42854,-0.16928 -2.66285,-0.46877 -3.70294,-0.89847c-0.29645,0.26303 -0.6785,0.47528 -1.14615,0.63674c-0.41911,0.14583 -0.96217,0.26172 -1.62917,0.34766l-0.414,-0.7422c1.03242,-0.07813 1.82849,-0.27736 2.38819,-0.59768c-0.54944,-0.27604 -1.058,-0.59767 -1.52565,-0.96487l0.56349,-0.4883c0.4881,0.38543 0.98771,0.69143 1.49881,0.918c0.14822,-0.25782 0.24277,-0.58205 0.28366,-0.97268h-2.66794v-3.16811zM349.5898,221.87714h-1.8592v0.62893h1.8592zM350.4063,221.87714v0.62893h1.86296v-0.62893zM349.5898,223.10762h-1.8592v0.67971h1.8592zM350.4063,223.10762v0.67971h1.86296v-0.67971z"/><path d="M356.50433,224.5128c0.37055,0.20574 0.7807,0.49481 1.23045,0.86721l-0.437,0.72659c-0.28877,-0.33074 -0.55327,-0.60288 -0.79349,-0.81643v1.91411h-0.78583v-2.08603c-0.345,0.64585 -0.75518,1.18624 -1.23055,1.62116l-0.44849,-0.7383c0.56988,-0.41147 1.04393,-0.92322 1.42213,-1.53525h-1.21133v-0.68752h1.4682v-0.76174h-1.61768v-0.71877h0.83949c-0.06644,-0.33074 -0.15971,-0.69143 -0.27983,-1.08208h-0.41016v-0.72659h1.45284v-0.88674h0.81649v0.88674h1.39152v0.72659h-0.41017c-0.09455,0.39064 -0.2121,0.75133 -0.35266,1.08208h0.87783v0.71877h-1.52179v0.76174h1.37993v0.68752h-1.37993zM355.42336,221.21577c0.09711,0.32553 0.18144,0.68622 0.25299,1.08208h0.75899c0.11755,-0.33595 0.2185,-0.69664 0.30283,-1.08208zM359.03051,223.11424c0.00264,0.80733 -0.05869,1.55604 -0.184,2.24614c-0.13033,0.71614 -0.36161,1.35677 -0.69383,1.92189l-0.6325,-0.58986c0.28367,-0.46876 0.47789,-1.04431 0.58266,-1.72665c0.092,-0.58335 0.138,-1.32816 0.138,-2.23443v-2.44925c0.05112,-0.00538 0.12906,-0.01319 0.23383,-0.02342c0.81264,-0.07813 1.6266,-0.25652 2.44188,-0.53517l0.50216,0.67971c-0.67976,0.23438 -1.47454,0.41537 -2.38432,0.54298v1.35162h2.57214v0.81643h-0.87783v4.08999h-0.7935v-4.08999z"/><path d="M362.24002,221.15117h3.07815c-0.16611,-0.44532 -0.31816,-0.88806 -0.45616,-1.3282l0.8395,-0.05471c0.13289,0.46356 0.29261,0.92449 0.47916,1.38281h2.83278v0.80081h-2.47249c0.32967,0.69534 0.74239,1.42064 1.23818,2.17588l-0.80499,0.39064c-0.54689,-0.84381 -0.99537,-1.69929 -1.34546,-2.56645h-3.38861zM367.81364,226.91309c-0.50855,0.02867 -0.95833,0.043 -1.34932,0.043c-1.06313,0 -1.84642,-0.08464 -2.34985,-0.25391c-0.90979,-0.3021 -1.36468,-0.87243 -1.36468,-1.711c0,-0.51564 0.15717,-0.93101 0.4715,-1.24613l0.72066,0.39845c-0.20955,0.21095 -0.31432,0.487 -0.31432,0.82815c0,0.43491 0.23,0.73961 0.69,0.91409c0.40633,0.15365 1.08609,0.23048 2.03929,0.23048c0.40378,0 0.85867,-0.01952 1.36468,-0.05855z"/><path d="M371.43297,219.77825h0.84716v2.20707c0.60822,-0.64325 1.09504,-1.08467 1.46047,-1.32426c0.33989,-0.22397 0.69255,-0.33595 1.05798,-0.33595c0.368,0 0.66444,0.10547 0.88933,0.31642c0.29644,0.28126 0.44466,0.64976 0.44466,1.1055c0,0.11979 -0.01532,0.27866 -0.04596,0.47658c-0.22489,1.45577 -0.33734,2.46362 -0.33734,3.02355c0,0.23959 0.06005,0.35939 0.18016,0.35939c0.07667,0 0.17761,-0.04427 0.30283,-0.13282c0.26322,-0.1849 0.529,-0.4883 0.79733,-0.91019l0.31433,0.89456c-0.16356,0.26563 -0.36672,0.50132 -0.6095,0.70705c-0.28111,0.23959 -0.58139,0.35939 -0.90083,0.35939c-0.30411,0 -0.5405,-0.10808 -0.70917,-0.32423c-0.1431,-0.1849 -0.21466,-0.4935 -0.21466,-0.92581c0,-0.32813 0.04216,-0.82165 0.12649,-1.48053c0.10734,-0.82813 0.17889,-1.44274 0.21467,-1.84385c0.00528,-0.06508 0.00792,-0.11977 0.00792,-0.16406c0,-0.22918 -0.04728,-0.40496 -0.14184,-0.52736c-0.08944,-0.11719 -0.21338,-0.17578 -0.37183,-0.17578c-0.53411,0 -1.35573,0.72529 -2.46486,2.17588v3.6876h-0.84716v-2.70324c-0.42678,0.60939 -0.82032,1.18494 -1.18062,1.72665l-0.39867,-0.92581c0.60567,-0.74743 1.13211,-1.4597 1.57935,-2.13681v-0.99222h-1.34546v-0.78519h1.34546z"/><path d="M377.97106,220.99974h1.79015c0.07156,-0.32293 0.15205,-0.74093 0.24149,-1.254l0.86633,0.10938c-0.07666,0.40366 -0.15844,0.78518 -0.24533,1.14457h2.55303v0.77737h-2.73312c-0.51111,2.08078 -1.07589,3.80608 -1.69436,5.17591l-0.84716,-0.3047c0.6721,-1.51829 1.23177,-3.14204 1.679,-4.87124h-1.60996zM384.75602,226.74602c-0.414,0.05471 -0.8791,0.08207 -1.39529,0.08207c-0.83569,0 -1.46691,-0.07292 -1.89367,-0.21876c-0.16355,-0.05727 -0.30283,-0.13801 -0.41782,-0.2422c-0.22489,-0.20834 -0.33734,-0.47397 -0.33734,-0.7969c0,-0.33074 0.10478,-0.62241 0.31433,-0.87502l0.68233,0.41017c-0.07922,0.10156 -0.11883,0.21354 -0.11883,0.33594c0,0.21095 0.09455,0.34767 0.28366,0.41017c0.28878,0.09376 0.70022,0.14063 1.23431,0.14063c0.51877,0 1.03627,-0.03906 1.5525,-0.11719zM381.16036,222.87479c1.00178,-0.11719 2.0981,-0.17969 3.28896,-0.1875l0.03834,0.79299c-1.16787,0.00538 -2.23992,0.06137 -3.21615,0.16797z"/><path d="M391.40387,224.63394c-0.16866,0.47397 -0.38205,0.88804 -0.64016,1.24219c-0.32967,0.45574 -0.77432,0.86069 -1.33397,1.21483l-0.53666,-0.48048c0.81779,-0.46876 1.41962,-1.12763 1.8055,-1.9766h-0.53283c-0.48556,0.93756 -1.23687,1.6472 -2.25396,2.12893l-0.48683,-0.51174c0.8868,-0.40887 1.55253,-0.94794 1.99719,-1.61722h-0.51367c-0.23,0.23959 -0.46767,0.43752 -0.713,0.59377l-0.42933,-0.42579c-0.6261,0.38803 -1.31227,0.73439 -2.05851,1.03908l-0.28366,-0.79299c0.322,-0.09896 0.667,-0.22396 1.035,-0.37501v-2.62894h-0.90083v-0.77737h0.90083v-1.66406h0.7935v1.66406h0.75516v0.77737h-0.75516v2.27743c0.19422,-0.09376 0.43316,-0.21355 0.71682,-0.35939l0.09967,0.50002c0.30923,-0.25001 0.56606,-0.54689 0.77049,-0.89065h-1.08483v-0.65627h5.26316v0.65627h-3.35028c-0.069,0.13021 -0.15717,0.27605 -0.2645,0.43752h3.32353c-0.05369,1.34115 -0.1508,2.2318 -0.29133,2.67194c-0.069,0.21615 -0.18656,0.36069 -0.35267,0.43361c-0.11755,0.05471 -0.29005,0.08207 -0.51749,0.08207c-0.26578,0 -0.52516,-0.01952 -0.77816,-0.05855l-0.14184,-0.7422c0.24022,0.05727 0.47916,0.08591 0.71683,0.08591c0.17122,0 0.2811,-0.05729 0.32966,-0.17188c0.09456,-0.22918 0.17123,-0.7878 0.23,-1.67587zM392.30853,219.83296v2.69153h-3.94831v-2.69153zM389.13072,220.42673v0.46486h2.40731v-0.46486zM389.13072,221.45803v0.48048h2.40731v-0.48048z"/><path d="M398.92267,222.16067v0.58205h-3.55732v-0.50002c-0.47789,0.35418 -0.9941,0.66539 -1.54864,0.93363l-0.54049,-0.73049c0.72064,-0.29167 1.33909,-0.65237 1.85533,-1.08208c0.57244,-0.47658 1.05289,-1.06384 1.44135,-1.76178h0.966c0.49066,0.73438 1.12188,1.3568 1.89367,1.86727c0.41656,0.27605 0.91616,0.54559 1.49881,0.80862l-0.50983,0.76955c-0.54178,-0.27345 -1.01582,-0.5508 -1.42213,-0.83205zM398.70418,222.00051c-0.60822,-0.46616 -1.15128,-1.01045 -1.62917,-1.63287c-0.37822,0.61981 -0.84715,1.1641 -1.40678,1.63287zM399.73918,223.59431v3.60947h-0.87783v-0.47268h-3.50749v0.47268h-0.87783v-3.60947zM395.35391,224.3287v1.64064h3.50749v-1.64064z"/><path d="M251.76607,233.23488h0.87017v2.14458c0.59799,0.26824 1.21003,0.6224 1.83611,1.0625l-0.44084,0.73049c-0.43955,-0.32813 -0.90465,-0.63283 -1.39529,-0.91409c-0.02813,0.46095 -0.17508,0.81512 -0.44084,1.0625c-0.29644,0.27345 -0.71171,0.41017 -1.2458,0.41017c-0.51622,0 -0.94172,-0.11979 -1.27651,-0.35938c-0.32711,-0.23699 -0.49066,-0.56773 -0.49066,-0.99222c0,-0.44533 0.20572,-0.80212 0.61716,-1.07037c0.31945,-0.20834 0.72834,-0.31251 1.22668,-0.31251c0.23255,0 0.47916,0.02864 0.73982,0.08591zM251.76607,235.8834c-0.30411,-0.10678 -0.5916,-0.16017 -0.86249,-0.16017c-0.26578,0 -0.47916,0.04818 -0.64016,0.14454c-0.207,0.125 -0.3105,0.29167 -0.3105,0.50002c0,0.25522 0.14822,0.44142 0.44466,0.55861c0.14822,0.05727 0.32583,0.08591 0.53283,0.08591c0.33222,0 0.57117,-0.14323 0.71683,-0.42969c0.07922,-0.15365 0.11882,-0.33335 0.11882,-0.53908zM247.65292,231.7387h1.46433c0.13033,-0.45053 0.23511,-0.84767 0.31433,-1.19141l0.8395,0.10547c-0.10223,0.38282 -0.207,0.74483 -0.31433,1.08602h1.39915v0.78518h-1.64829c-0.45744,1.33597 -0.99409,2.46621 -1.60996,3.39071l-0.713,-0.41408c0.58266,-0.88022 1.0746,-1.87242 1.47583,-2.97661h-1.20747zM254.0545,233.6411c-0.56733,-0.64325 -1.21899,-1.22919 -1.95499,-1.75784l0.506,-0.56252c0.73088,0.48179 1.39786,1.043 2.00095,1.68364z"/><path d="M261.62274,237.4344c-0.75644,0.08073 -1.53843,0.1211 -2.34599,0.1211c-1.19086,0 -2.02526,-0.07683 -2.5032,-0.23048c-0.34755,-0.11198 -0.62227,-0.27865 -0.82416,-0.50002c-0.23256,-0.25782 -0.34884,-0.57163 -0.34884,-0.94143c0,-0.612 0.26961,-1.1537 0.80883,-1.62509c0.21467,-0.1875 0.55712,-0.41147 1.02737,-0.67189c-0.35267,-0.80733 -0.67211,-1.72665 -0.95834,-2.75795l0.85484,-0.22657c0.26067,0.96098 0.53922,1.83339 0.83566,2.61723c0.99921,-0.46095 1.85404,-0.78909 2.56452,-0.9844l0.38716,0.76174c-0.92002,0.22918 -1.9678,0.62631 -3.14334,1.19141c-0.38589,0.1875 -0.65677,0.33855 -0.81267,0.45313c-0.45744,0.34116 -0.68616,0.72009 -0.68616,1.1368c0,0.36199 0.21211,0.6146 0.63633,0.75783c0.35267,0.11719 0.98389,0.17578 1.89367,0.17578c0.84077,0 1.68283,-0.04948 2.52618,-0.14844zM261.12824,232.18813c-0.16611,-0.4271 -0.42038,-0.89197 -0.76283,-1.39462l0.58266,-0.21484c0.30155,0.42449 0.5571,0.88024 0.76666,1.36727zM262.09424,231.84436c-0.18144,-0.47137 -0.43316,-0.93884 -0.75516,-1.4024l0.55583,-0.19141c0.29389,0.36459 0.54561,0.80732 0.75517,1.3282z"/><path d="M263.58417,237.67668c-0.09711,-0.88547 -0.14566,-1.76572 -0.14566,-2.64075c0,-1.50005 0.10861,-2.92459 0.32582,-4.27362l0.84333,0.08985c-0.207,1.16671 -0.3105,2.48317 -0.3105,3.94937c0,0.9844 0.05367,1.90499 0.161,2.76179zM265.88419,231.48895h3.68382v0.83205h-3.68382zM269.82864,237.19616c-0.51111,0.08073 -1.11806,0.12109 -1.82086,0.12109c-1.76588,0 -2.64882,-0.52868 -2.64882,-1.58603c0,-0.41929 0.10989,-0.7852 0.32967,-1.09773l0.72449,0.32814c-0.138,0.19792 -0.207,0.42058 -0.207,0.66799c0,0.3047 0.1495,0.51434 0.4485,0.62893c0.33222,0.13021 0.78583,0.19532 1.36081,0.19532c0.62099,0 1.19598,-0.04167 1.72497,-0.12501z"/><path d="M275.53105,236.36433l0.05369,0.69924c-1.1091,0.39845 -2.34216,0.72658 -3.69917,0.9844l-0.28366,-0.78127c0.23511,-0.03648 0.56733,-0.09507 0.99666,-0.17579v-1.42975c-0.44211,0.22917 -0.96856,0.44662 -1.57935,0.65236l-0.43699,-0.69533c1.22923,-0.33855 2.16711,-0.77085 2.81366,-1.2969h-2.73698v-0.67971h3.28519v-0.58986h-2.48398v-0.65628h2.48398v-0.55079h-2.87498v-0.67189h2.87498v-0.76956h0.83949v0.76956h2.95928v0.67189h-2.95928v0.55079h2.56828v0.65628h-2.56828v0.58986h3.36949v0.67971h-0.91617l0.56733,0.39845c-0.3501,0.34637 -0.84076,0.7253 -1.47196,1.1368l-0.08817,0.05855c0.48044,0.44794 1.13211,0.81775 1.95499,1.10944l-0.5175,0.79299c-0.89189,-0.38543 -1.6087,-0.86982 -2.15044,-1.45318zM274.36954,234.33301c-0.25555,0.30469 -0.56349,0.57814 -0.92382,0.82034v1.75391c0.63122,-0.14323 1.26498,-0.30991 1.9013,-0.50002l0.17633,-0.05078c-0.52389,-0.59116 -0.90851,-1.26568 -1.15387,-2.02354zM275.7687,235.39945c0.45489,-0.33074 0.85354,-0.69012 1.19598,-1.07815h-1.81313c0.16356,0.39845 0.36928,0.75783 0.61717,1.07815z"/><path d="M282.72295,233.73963v3.46491c0,0.31512 -0.06261,0.52997 -0.18783,0.64456c-0.11755,0.10417 -0.345,0.15625 -0.68233,0.15625c-0.38333,0 -0.74748,-0.02473 -1.09246,-0.0742l-0.16483,-0.82425c0.35777,0.0599 0.7002,0.08985 1.02727,0.08985c0.10989,0 0.17889,-0.01955 0.207,-0.05865c0.02047,-0.03385 0.03071,-0.08984 0.03071,-0.16797v-3.2305h-3.29668v-0.77737h7.38676v0.77737zM279.48382,230.84499h5.54301v0.76955h-5.54301zM278.51783,236.83738c0.55199,-0.58856 0.99665,-1.37112 1.33397,-2.34769l0.7935,0.3047c-0.391,1.11725 -0.88294,1.99487 -1.47583,2.63288zM285.09574,237.31396c-0.529,-1.14067 -0.98901,-1.97532 -1.38003,-2.50396l0.72067,-0.43751c0.56222,0.737 1.04138,1.53912 1.43749,2.40635z"/><path d="M286.53684,232.13453h1.69436c0.07667,-0.40105 0.16228,-0.89978 0.25683,-1.49618l0.01912,-0.11329l0.8395,0.12891c-0.08689,0.5521 -0.17634,1.04561 -0.26834,1.48053h0.46384c0.61333,0 1.05286,0.14063 1.31861,0.42189c0.23766,0.25261 0.35649,0.64584 0.35649,1.1797c0,0.89846 -0.09328,1.73833 -0.27983,2.51961c-0.10733,0.44272 -0.23766,0.76955 -0.391,0.9805c-0.19422,0.26303 -0.46383,0.39454 -0.80882,0.39454c-0.414,0 -0.86632,-0.13542 -1.35695,-0.40626l0.09579,-0.82425c0.48556,0.23699 0.86249,0.35549 1.13079,0.35549c0.14056,0 0.24917,-0.07683 0.32583,-0.23048c0.08177,-0.16667 0.15971,-0.40756 0.23383,-0.72268c0.14567,-0.63804 0.2185,-1.30861 0.2185,-2.01173c0,-0.36981 -0.07283,-0.6094 -0.2185,-0.71877c-0.12522,-0.09115 -0.34883,-0.13673 -0.67083,-0.13673h-0.59033c-0.40633,1.84382 -0.98898,3.41679 -1.74795,4.71891l-0.77049,-0.4297c0.78457,-1.34115 1.34424,-2.77088 1.679,-4.28916h-1.52952zM292.90395,235.99011c-0.28877,-1.0834 -0.74492,-2.14724 -1.36844,-3.19153l0.7475,-0.34375c0.644,1.04692 1.1257,2.10033 1.44512,3.16024zM292.33662,232.24779c-0.15844,-0.42189 -0.41399,-0.89067 -0.76666,-1.40633l0.59416,-0.22657c0.30922,0.44533 0.56861,0.90758 0.77816,1.38675zM293.36775,231.91184c-0.19933,-0.50262 -0.45361,-0.9753 -0.76284,-1.41804l0.5635,-0.19141c0.29388,0.35678 0.55072,0.80211 0.77049,1.33597z"/><path d="M298.97902,233.83049h-1.42213v-0.58595h0.69383c-0.10477,-0.21876 -0.23639,-0.43491 -0.39483,-0.64846l0.66699,-0.23828c0.20956,0.34376 0.36033,0.63934 0.45234,0.88674h0.70149c0.11245,-0.2448 0.22617,-0.54298 0.34117,-0.89456l0.73599,0.23048c-0.115,0.25001 -0.23639,0.47137 -0.36416,0.66408h0.93917v0.58595h-1.5947v0.4922h1.40302v0.56643h-1.40302v0.53126h1.74795v0.64065h-1.74795v0.77737h-0.75516v-0.77737h-1.56399v-0.64065h1.56399v-0.53126h-1.23431v-0.56643h1.23431zM295.97368,236.23289c0.25044,0.2474 0.506,0.42058 0.76666,0.51955c0.51111,0.19532 1.19216,0.29298 2.04315,0.29298h3.00534c-0.09711,0.22136 -0.18528,0.4883 -0.2645,0.80081h-2.6297c-0.91229,0 -1.6649,-0.10547 -2.25782,-0.31642c-0.33222,-0.11979 -0.65805,-0.34897 -0.97749,-0.68752c-0.29644,0.41408 -0.66317,0.80994 -1.10018,1.18758l-0.47151,-0.8633c0.36545,-0.22397 0.72194,-0.49872 1.06947,-0.82425v-1.89069h-0.95066v-0.82425h1.76717zM301.26369,230.5804v1.68758h-3.96367v1.39069c0,1.29431 -0.13161,2.25788 -0.39483,2.8907l-0.68233,-0.4883c0.13799,-0.34376 0.22999,-0.74611 0.276,-1.20706c0.03579,-0.35678 0.05369,-0.78649 0.05369,-1.28913v-2.98449zM300.5162,231.18198h-3.21615v0.51173h3.21615zM295.45235,232.4906c-0.33733,-0.60157 -0.70914,-1.12113 -1.11544,-1.55867l0.63632,-0.50392c0.44211,0.44272 0.82416,0.93882 1.14615,1.48831z"/><path d="M303.67456,230.5799h0.84717v2.20707c0.60821,-0.64325 1.09504,-1.08467 1.46047,-1.32426c0.33989,-0.22397 0.69255,-0.33595 1.05798,-0.33595c0.368,0 0.66444,0.10547 0.88933,0.31642c0.29644,0.28126 0.44466,0.64976 0.44466,1.1055c0,0.11979 -0.01532,0.27865 -0.04596,0.47657c-0.22489,1.45577 -0.33734,2.46362 -0.33734,3.02355c0,0.23959 0.06006,0.35938 0.18017,0.35938c0.07666,0 0.1776,-0.04427 0.30282,-0.13281c0.26322,-0.18491 0.529,-0.4883 0.79733,-0.91019l0.31433,0.89456c-0.16355,0.26563 -0.36672,0.50132 -0.6095,0.70705c-0.2811,0.23959 -0.58138,0.35938 -0.90082,0.35938c-0.30411,0 -0.5405,-0.10808 -0.70917,-0.32423c-0.14311,-0.1849 -0.21467,-0.4935 -0.21467,-0.9258c0,-0.32813 0.04217,-0.82165 0.1265,-1.48053c0.10733,-0.82813 0.17888,-1.44271 0.21466,-1.84375c0.00528,-0.06508 0.00792,-0.11977 0.00792,-0.16406c0,-0.22918 -0.04728,-0.40496 -0.14183,-0.52736c-0.08945,-0.11719 -0.21339,-0.17578 -0.37183,-0.17578c-0.53411,0 -1.35573,0.72529 -2.46486,2.17588v3.6876h-0.84717v-2.70324c-0.42677,0.60939 -0.82031,1.18494 -1.18062,1.72665l-0.39867,-0.92581c0.60567,-0.74743 1.13211,-1.4597 1.57935,-2.13681v-0.99222h-1.34546v-0.78518h1.34546z"/><path d="M311.02496,230.84237h4.30097l0.41017,0.64846c-1.32888,0.82813 -2.48015,1.58074 -3.4538,2.25785c0.62866,-0.26824 1.25988,-0.40236 1.89367,-0.40236c0.56989,0 1.04522,0.09245 1.426,0.27735c0.35267,0.17188 0.62739,0.40627 0.82417,0.70315c0.20444,0.31511 0.30666,0.67712 0.30666,1.08602c0,0.57294 -0.19167,1.05211 -0.575,1.43753c-0.26322,0.26824 -0.60056,0.47137 -1.01202,0.60939c-0.53922,0.17969 -1.12956,0.26954 -1.77103,0.26954c-0.73854,0 -1.28289,-0.13933 -1.63304,-0.41798c-0.27344,-0.21875 -0.41017,-0.51433 -0.41017,-0.88674c0,-0.28126 0.09967,-0.53127 0.299,-0.75002c0.30156,-0.33074 0.70917,-0.49611 1.22282,-0.49611c0.54433,0 0.98004,0.1862 1.30712,0.55861c0.23766,0.27084 0.40888,0.63413 0.51366,1.08986c0.78708,-0.25522 1.18062,-0.72658 1.18062,-1.41411c0,-0.52085 -0.21339,-0.90496 -0.64016,-1.15234c-0.28622,-0.16668 -0.64912,-0.25001 -1.08869,-0.25001c-0.65677,0 -1.24966,0.09245 -1.77866,0.27736c-0.391,0.13542 -0.91616,0.46225 -1.57548,0.9805l-0.54049,-0.66409c0.71047,-0.62502 1.51931,-1.25915 2.42652,-1.9024c0.6261,-0.44272 1.17811,-0.806 1.65602,-1.08986h-3.28896zM313.93065,236.97932c-0.18144,-0.737 -0.53793,-1.1055 -1.06947,-1.1055c-0.29389,0 -0.506,0.09505 -0.63633,0.28516c-0.06135,0.08594 -0.09203,0.17839 -0.09203,0.27735c0,0.20574 0.14311,0.36069 0.42933,0.46485c0.207,0.07292 0.48427,0.10938 0.83182,0.10938c0.14822,0 0.32711,-0.0104 0.53667,-0.03119z"/><path d="M324.08133,231.67016v5.42202c0,0.34116 -0.10861,0.56643 -0.32582,0.67581c-0.14311,0.07292 -0.38972,0.10938 -0.73983,0.10938c-0.38589,0 -0.84973,-0.01824 -1.39152,-0.05471l-0.18783,-0.8633c0.53922,0.04166 1.01584,0.06249 1.42986,0.06249c0.161,0 0.25683,-0.01302 0.2875,-0.03907c0.03322,-0.03123 0.04983,-0.11196 0.04983,-0.2422v-5.07052h-5.58512v-0.78518h7.45967v0.78518zM322.15705,232.75618v2.98449h-2.77146v0.64065h-0.84716v-3.62511zM319.3856,233.48276v1.51566h1.94736v-1.51566z"/><path d="M326.04276,232.1951c0.31944,-0.57033 0.5865,-1.17583 0.80116,-1.81649l0.86249,0.1836c-0.24789,0.58856 -0.52261,1.12504 -0.82417,1.60945c0.15589,-0.00781 0.39611,-0.01952 0.72067,-0.03513c0.02813,0 0.22235,-0.01171 0.58266,-0.03513l-0.02298,-0.03907c-0.115,-0.20053 -0.24789,-0.41277 -0.39867,-0.63674l0.65167,-0.32814c0.44722,0.59117 0.79988,1.15629 1.05798,1.69535l-0.736,0.41016c-0.06644,-0.14583 -0.14311,-0.3099 -0.22999,-0.4922c-0.80755,0.10157 -1.79398,0.1797 -2.95928,0.23439l-0.1955,-0.7344c0.09966,0 0.32966,-0.00522 0.69,-0.01565zM328.92546,233.43345v3.82439c0,0.26824 -0.06261,0.45314 -0.18784,0.5547c-0.11244,0.09115 -0.30539,0.13673 -0.57883,0.13673c-0.2811,0 -0.53794,-0.01693 -0.77049,-0.05078l-0.1265,-0.7383c0.31689,0.03903 0.54945,0.05855 0.69766,0.05855c0.09456,0 0.15078,-0.01952 0.16867,-0.05855c0.01275,-0.03123 0.01912,-0.07941 0.01912,-0.14454v-0.71096h-1.49881v1.70706h-0.7935v-4.57828zM326.64843,234.0741v0.51174h1.49881v-0.51174zM326.64843,235.17183v0.54689h1.49881v-0.54689zM330.38594,231.59355c0.59544,-0.22136 1.16277,-0.49351 1.70198,-0.81643l0.575,0.59377c-0.77433,0.41667 -1.53331,0.72918 -2.27694,0.93752v0.66018c0,0.13021 0.03705,0.20703 0.11116,0.23047c0.10223,0.03385 0.35395,0.05078 0.75517,0.05078c0.345,0 0.55966,-0.03906 0.64399,-0.11719c0.06644,-0.06252 0.10989,-0.29821 0.13034,-0.70705c0.00264,-0.07813 0.00528,-0.13933 0.00792,-0.1836l0.80883,0.19922c-0.02047,0.70315 -0.09842,1.13155 -0.23384,1.28519c-0.08689,0.09896 -0.23128,0.16798 -0.43317,0.20704c-0.25811,0.05209 -0.63504,0.07814 -1.13079,0.07814c-0.621,0 -1.02606,-0.04687 -1.21519,-0.14062c-0.17889,-0.09115 -0.26833,-0.28777 -0.26833,-0.58986v-2.87122h0.82417zM330.38594,235.39836c0.59799,-0.20312 1.21003,-0.48438 1.83611,-0.84377l0.53666,0.64845c-0.83054,0.42449 -1.62148,0.7318 -2.37283,0.92191v0.69924c0,0.16928 0.05367,0.26954 0.161,0.30079c0.08178,0.02605 0.29261,0.03907 0.6325,0.03907c0.47533,0 0.74621,-0.04167 0.81266,-0.12501c0.07156,-0.08855 0.11756,-0.42319 0.138,-1.00394l0.8165,0.22267c-0.00528,0.77348 -0.12028,1.25528 -0.345,1.4454c-0.19678,0.16668 -0.69384,0.25001 -1.49118,0.25001c-0.63122,0 -1.04906,-0.05209 -1.25353,-0.15626c-0.19678,-0.09635 -0.29517,-0.29167 -0.29517,-0.58595v-2.94542h0.82417z"/><path d="M335.06731,231.72063v6.28535h-0.80883v-7.60184h0.80883v1.23048l0.45616,-0.38282c0.207,0.38803 0.36928,0.76956 0.48683,1.14457l-0.50983,0.47268c-0.17122,-0.53908 -0.3156,-0.92192 -0.43316,-1.14851zM336.98782,231.86126h0.897v-1.45711h0.80883v1.45711h1.81313v0.76955h-1.81313v1.66022h1.64066v0.76175h-1.64066v1.92582h2.04702v0.76174h-5.02928v-0.76174h2.17352v-1.92582h-1.68663v-0.76175h1.68663v-1.66022h-1.12703c-0.16355,0.487 -0.37822,0.94666 -0.64399,1.37898l-0.58266,-0.53126c0.45489,-0.79952 0.76283,-1.73836 0.92383,-2.8165l0.76283,0.10938c-0.07667,0.43491 -0.15333,0.79819 -0.23,1.08986zM333.15066,234.45124c0.11244,-0.51824 0.1955,-1.21618 0.24917,-2.0938l0.01912,-0.32032l0.667,0.07026c-0.02813,1.08595 -0.11758,1.98182 -0.26834,2.68759z"/><path d="M341.33793,232.13453h1.69436c0.07667,-0.40105 0.16228,-0.89978 0.25684,-1.49618l0.01912,-0.11329l0.8395,0.12891c-0.08689,0.5521 -0.17633,1.04561 -0.26833,1.48053h0.46383c0.61333,0 1.05286,0.14063 1.31861,0.42189c0.23767,0.25261 0.3565,0.64584 0.3565,1.1797c0,0.89846 -0.09328,1.73833 -0.27983,2.51961c-0.10734,0.44272 -0.23767,0.76955 -0.391,0.9805c-0.19422,0.26303 -0.46383,0.39454 -0.80883,0.39454c-0.414,0 -0.86632,-0.13542 -1.35695,-0.40626l0.09579,-0.82425c0.48555,0.23699 0.86248,0.35549 1.13079,0.35549c0.14056,0 0.24917,-0.07683 0.32583,-0.23048c0.08178,-0.16667 0.15972,-0.40756 0.23383,-0.72268c0.14567,-0.63804 0.2185,-1.30861 0.2185,-2.01173c0,-0.36981 -0.07283,-0.6094 -0.2185,-0.71877c-0.12522,-0.09115 -0.34883,-0.13673 -0.67083,-0.13673h-0.59033c-0.40633,1.84382 -0.98898,3.41679 -1.74795,4.71891l-0.77049,-0.4297c0.78457,-1.34115 1.34424,-2.77088 1.679,-4.28916h-1.52952zM347.70504,235.99011c-0.28878,-1.0834 -0.74493,-2.14724 -1.36844,-3.19153l0.74749,-0.34375c0.644,1.04692 1.1257,2.10033 1.44512,3.16024zM347.13771,232.24779c-0.15844,-0.42189 -0.41399,-0.89067 -0.76666,-1.40633l0.59416,-0.22657c0.30922,0.44533 0.56861,0.90758 0.77816,1.38675zM348.16884,231.91184c-0.19933,-0.50262 -0.45361,-0.9753 -0.76283,-1.41804l0.56349,-0.19141c0.29388,0.35678 0.55072,0.80211 0.77049,1.33597z"/><path d="M349.73839,231.51873h1.91665c0.05369,-0.45053 0.09458,-0.77346 0.12267,-0.96878l0.85099,0.08985l-0.01149,0.06249l-0.02685,0.20313l-0.03447,0.26173l-0.03447,0.26172l-0.01149,0.08985h3.17018v0.76956h-3.25835c-0.00766,0.08854 -0.02427,0.27735 -0.04983,0.56642l-0.01922,0.25l-0.00792,0.07814c0.30666,-0.05209 0.61972,-0.07814 0.93916,-0.07814c0.88423,0 1.58572,0.21095 2.10447,0.63284c0.13544,0.11198 0.25939,0.25261 0.37183,0.42189c0.22489,0.33855 0.33734,0.72788 0.33734,1.16799c0,0.78391 -0.31689,1.3816 -0.95067,1.79307c-0.41399,0.26824 -0.98769,0.47007 -1.7211,0.60549l-0.368,-0.68752c0.6721,-0.11198 1.18577,-0.29037 1.54101,-0.53518c0.42422,-0.29428 0.63632,-0.70053 0.63632,-1.21877c0,-0.33595 -0.092,-0.63153 -0.276,-0.88675c-0.10733,-0.15104 -0.25172,-0.27344 -0.43316,-0.3672c-0.63633,1.13024 -1.47073,2.04955 -2.5032,2.75795c-0.33222,0.22917 -0.61077,0.38152 -0.83566,0.45704c-0.22233,0.07292 -0.43956,0.10938 -0.65167,0.10938c-0.391,0 -0.68488,-0.13282 -0.88166,-0.39845c-0.16355,-0.21876 -0.24533,-0.51825 -0.24533,-0.89847c0,-0.67448 0.25044,-1.26955 0.75133,-1.7852c0.37055,-0.38283 0.8165,-0.67711 1.33783,-0.88284l0.00792,-0.10547c0.03064,-0.44794 0.0562,-0.77998 0.07667,-0.99612h-1.84384zM351.46336,234.1829c-0.35778,0.19532 -0.644,0.43881 -0.85866,0.73048c-0.27344,0.37241 -0.41017,0.7435 -0.41017,1.11328c0,0.41147 0.14566,0.61721 0.43699,0.61721c0.25555,0 0.56989,-0.14063 0.943,-0.42189c-0.07667,-0.52345 -0.115,-1.07814 -0.115,-1.66406c0,-0.08073 0.00132,-0.20574 0.00396,-0.37501zM352.28751,233.88602c-0.00528,0.16927 -0.00792,0.32292 -0.00792,0.46095c0,0.44272 0.01919,0.85941 0.05756,1.25006c0.61844,-0.58595 1.09123,-1.18492 1.41837,-1.79691c-0.16355,-0.0208 -0.32711,-0.03119 -0.49066,-0.03119c-0.33988,0 -0.66571,0.03906 -0.97749,0.11719z"/><path d="M359.83281,233.99201c-0.25555,0.48699 -0.5175,0.8529 -0.78583,1.09773c-0.23,0.21094 -0.44083,0.31641 -0.63249,0.31641c-0.24534,0 -0.44339,-0.16928 -0.59416,-0.50783c-0.15589,-0.35417 -0.23384,-0.90886 -0.23384,-1.66406c0,-0.76042 0.08689,-1.58468 0.26066,-2.47277l0.8395,0.12891c-0.16867,0.88022 -0.253,1.62503 -0.253,2.23443c0,0.82032 0.0575,1.23048 0.17251,1.23048c0.04346,0 0.11756,-0.0625 0.22232,-0.1875c0.16356,-0.1875 0.33606,-0.46356 0.5175,-0.82815zM359.25015,237.05069c0.78457,-0.22397 1.37617,-0.55861 1.77479,-1.00394c0.48811,-0.54429 0.73217,-1.36723 0.73217,-2.46883c0,-0.836 -0.07922,-1.77484 -0.23767,-2.8165l0.87783,-0.08591c0.16866,1.0521 0.25299,2.03259 0.25299,2.94148c0,1.474 -0.37181,2.53522 -1.11544,3.18366c-0.45233,0.39585 -1.06183,0.72399 -1.82849,0.98441z"/><path d="M367.31199,230.58999h0.84716v0.9844h2.41117v0.7422h-2.41117v0.92972h2.27704v0.7344h-2.27704v1.20706c0.90979,0.31251 1.80679,0.78256 2.69102,1.41017l-0.45233,0.74221c-0.66953,-0.51043 -1.41576,-0.96097 -2.2387,-1.35162c-0.02041,0.44532 -0.10474,0.79037 -0.25299,1.03514c-0.25811,0.42449 -0.76666,0.63674 -1.52565,0.63674c-0.58523,0 -1.05544,-0.11198 -1.41064,-0.33595c-0.39611,-0.25001 -0.59416,-0.58856 -0.59416,-1.01566c0,-0.51043 0.26705,-0.88805 0.80116,-1.13286c0.35777,-0.16147 0.82287,-0.2422 1.39529,-0.2422c0.22488,0 0.47149,0.01824 0.73982,0.05471v-1.00784h-2.71787v-0.7344h2.71787v-0.92972h-2.8827v-0.7422h2.8827zM367.31199,235.71512c-0.30411,-0.06508 -0.59544,-0.09762 -0.87399,-0.09762c-0.33989,0 -0.61589,0.05078 -0.828,0.15235c-0.253,0.1224 -0.3795,0.29688 -0.3795,0.52345c0,0.19012 0.09839,0.34377 0.29517,0.46096c0.19933,0.11979 0.46511,0.17969 0.79733,0.17969c0.39355,0 0.66444,-0.10677 0.81267,-0.32032c0.11755,-0.16667 0.17633,-0.41537 0.17633,-0.74611z"/><path d="M375.45489,230.5698h0.86249v1.07815h2.26168v0.75392h-2.26168v1.67193c0.08945,0.32032 0.13417,0.60548 0.13417,0.85549c0,0.92712 -0.20061,1.60813 -0.60183,2.04303c-0.437,0.47658 -1.09503,0.80602 -1.97411,0.98831l-0.43699,-0.66409c0.68234,-0.13282 1.18835,-0.32032 1.51803,-0.56251c0.30922,-0.22917 0.5175,-0.54038 0.62483,-0.93363c-0.27344,0.3047 -0.59928,0.45705 -0.97749,0.45705c-0.42422,0 -0.76794,-0.1224 -1.03114,-0.3672c-0.30922,-0.28907 -0.46383,-0.70835 -0.46383,-1.25784c0,-0.28907 0.06772,-0.56773 0.20317,-0.83597c0.08944,-0.17188 0.19933,-0.31511 0.32966,-0.42969c0.30156,-0.26042 0.66317,-0.39064 1.08483,-0.39064c0.26833,0 0.51111,0.06511 0.72833,0.19532v-0.76956h-3.78347v-0.75392h3.78347zM375.4856,234.62456v-0.14453c0,-0.16668 -0.03833,-0.31382 -0.115,-0.44142c-0.14311,-0.23959 -0.35011,-0.35938 -0.621,-0.35938c-0.138,0 -0.26705,0.03906 -0.38716,0.11718c-0.28111,0.1797 -0.42167,0.45575 -0.42167,0.82815c0,0.23439 0.05111,0.43231 0.15334,0.59377c0.14311,0.22397 0.35394,0.33595 0.63249,0.33595c0.253,0 0.45361,-0.11589 0.60183,-0.34767c0.10478,-0.16406 0.15717,-0.35808 0.15717,-0.58205z"/></g></g></g></svg>