<svg version="1.1" xmlns="http://www.w3.org/2000/svg" xmlns:xlink="http://www.w3.org/1999/xlink" width="208" height="32" viewBox="0,0,208,32"><g transform="translate(-240,-164)"><g data-paper-data="{&quot;isPaintingLayer&quot;:true}" fill-rule="nonzero" stroke="none" stroke-linecap="butt" stroke-linejoin="miter" stroke-miterlimit="10" stroke-dasharray="" stroke-dashoffset="0" style="mix-blend-mode: normal"><path d="M240,196v-32h208v32z" fill="none" stroke-width="0"/><path d="M246.66,178.9h11.152v10.605h-2.2559v-1.3476h-9.4043v1.3476h-2.2168v-7.2266c-0.80727,0.8008 -1.67317,1.56577 -2.5977,2.2949l-1.2012,-1.875c1.78387,-1.24347 3.3008,-2.7897 4.5508,-4.6387c0.97007,-1.4388 1.72853,-2.9297 2.2754,-4.4727h-5.9863v-1.9434h18.125v1.9434h-9.7461c-0.6966,1.88153 -1.59503,3.65237 -2.6953,5.3125zM246.15219,180.8043v5.4102h9.4043v-5.4102z" fill="#ffffff" stroke-width="1"/><path d="M262.94,171.3h2.3438v6.6016c0,2.72787 -0.15299,4.81447 -0.45898,6.2598c-0.28646,1.33467 -0.77149,2.52933 -1.4551,3.584c-0.24089,0.37761 -0.57292,0.81707 -0.99609,1.3184l-1.8555,-1.582c1.17187,-1.24347 1.90103,-2.89387 2.1875,-4.9512c0.15625,-1.10027 0.23437,-2.5358 0.23437,-4.3066zM269.1412,171.60273h2.2754v15.898h-2.2754zM275.5572,170.82148h2.3047v18.457h-2.3047z" fill="#ffffff" stroke-width="1"/><path d="M296.76,170.98v9.4629h-11.621v-9.4629zM287.2385,172.523v1.2207h7.4023v-1.2207zM287.2385,175.1207v1.2207h7.4023v-1.2207zM287.2385,177.7183v1.2598h7.4023v-1.2598zM283.3029,181.7417h16.191v1.6992h-8.0762v6.0644h-2.2168v-6.0644h-8.0371v-10.957h2.1387zM280.8029,187.6401c1.54947,-0.71613 3.0306,-1.9173 4.4434,-3.6035l1.7969,1.0449c-1.3932,1.76433 -2.93943,3.15107 -4.6387,4.1602zM297.6389,188.8999c-0.99607,-1.22393 -2.49347,-2.50973 -4.4922,-3.8574l1.6797,-1.1816c1.569,0.90493 3.1087,2.09307 4.6191,3.5644z" fill="#ffffff" stroke-width="1"/><path d="M308.01,176.32h-2.0117c-0.18229,2.94273 -0.53713,5.3516 -1.0645,7.2266c-0.61849,2.22653 -1.63735,4.0527 -3.0566,5.4785l-1.5332,-1.6211c1.3216,-1.38673 2.26887,-3.22267 2.8418,-5.5078c0.33854,-1.34767 0.58268,-3.2064 0.73242,-5.5762h-2.998v-1.9238h3.1543l0.12695,-3.8965h2.041l-0.10743,3.8965h3.8867c0,6.89467 -0.1888,11.17533 -0.5664,12.842c-0.15625,0.6706 -0.45573,1.12307 -0.89844,1.3574c-0.31901,0.16276 -0.78775,0.24414 -1.4062,0.24414c-0.76173,0 -1.53973,-0.05859 -2.334,-0.17578l-0.38085,-2.0996c0.8594,0.15625 1.53647,0.23437 2.0312,0.23437c0.44271,0 0.72265,-0.11719 0.83984,-0.35156c0.35156,-0.6706 0.58268,-3.89327 0.69336,-9.668zM318.781,173.3024v15.4h-2.0606v-1.3476h-3.2324v1.543h-2.0215v-15.596zM313.488,175.2458v10.166h3.2324v-10.166z" fill="#ffffff" stroke-width="1"/><path d="M322.68,177.34h14.639v8.6816h-3.877c2.03127,0.47527 4.01043,1.11653 5.9375,1.9238l-1.4453,1.6309c-2.0768,-0.931 -4.20897,-1.72853 -6.3965,-2.3926l0.98633,-1.1621h-5.5176l1.2891,1.1035c-1.91407,1.05467 -4.05273,1.92057 -6.416,2.5977l-1.3184,-1.7774c2.04427,-0.41015 3.9974,-1.05142 5.8594,-1.9238h-3.7402zM335.16,178.6974h-10.342v1.0449h10.342zM324.818,181.0802v1.084h10.342v-1.084zM324.818,183.4825v1.123h10.342v-1.123zM328.2262,173.2485h-2.1582c-0.49479,1.8294 -2.03126,3.22263 -4.6094,4.1797l-1.1621,-1.5234c1.95313,-0.49479 3.1771,-1.38019 3.6719,-2.6562h-2.9883v-1.543h3.2812l0.11719,-1.2012h2.0605l-0.11718,1.2012h3.8965c-0.10417,1.9206 -0.24089,3.15107 -0.41016,3.6914c-0.18229,0.55339 -0.46874,0.91145 -0.85937,1.0742c-0.29297,0.11719 -0.70963,0.17578 -1.25,0.17578c-0.59245,0 -1.24675,-0.04883 -1.9629,-0.14648l-0.26367,-1.5332c0.6706,0.11719 1.2077,0.17578 1.6113,0.17578c0.42969,0 0.69987,-0.0944 0.81054,-0.2832c0.06513,-0.10417 0.13675,-0.40039 0.21485,-0.88868zM338.5782,171.4223v5.127h-7.4024v-5.127zM333.0802,172.9848v2.0215h3.5156v-2.0215z" fill="#ffffff" stroke-width="1"/></g></g></svg>