<?xml version="1.0" encoding="UTF-8"?>
<svg width="480" height="360" version="1.1" viewBox="0 0 480 360" xmlns="http://www.w3.org/2000/svg">
 <g dominant-baseline="central" fill="#fff" aria-label="オホーツク海南部">
  <path d="m251.27 171.11h2.2363v3.7598h4.6387v2.002h-4.6387v9.6582q0 1.0742-0.38086 1.5527-0.43945 0.5664-1.7969 0.5664-1.5332 0-3.0176-0.0977l-0.52735-2.1191q1.5332 0.13672 2.9004 0.13672 0.45899 0 0.53711-0.20508 0.0488-0.11719 0.0488-0.35157v-8.1445q-1.9043 2.7832-4.1699 4.9414-2.0508 1.9531-4.9414 3.5644l-1.3965-1.9043q5.4004-2.7441 8.9844-7.5977h-8.5644v-2.002h10.088z" dominant-baseline="central"/>
  <path d="m267.41 171.04h2.1973v3.6035h7.3633v1.9629h-7.3633v12.256h-2.1973v-12.256h-7.207v-1.9629h7.207zm-7.7832 15.02q2.1582-2.8223 2.9004-7.373l2.1387 0.57617q-0.89844 5.2734-3.0957 8.3008zm15.938 1.2402q-2.1973-3.3008-3.6328-8.2129l2.0996-0.70312q1.1914 4.082 3.5156 7.6172z" dominant-baseline="central"/>
  <path d="m279.39 178.55h17.197v2.1973h-17.197z" dominant-baseline="central"/>
  <path d="m300.81 180.06q-0.91797-3.7793-2.1582-6.5039l2.041-0.95703q1.3672 2.9199 2.2754 6.6406zm5.4004-1.0254q-0.79102-3.3496-2.0606-6.4941l2.0801-0.83984q1.2305 2.7246 2.1191 6.5137zm-3.4961 7.5586q3.584-1.0547 5.5859-2.7637 1.5723-1.3281 2.4707-3.2324 1.4356-3.0176 2.002-8.7012l2.2363 0.625q-0.56641 4.6387-1.4551 7.2656-1.2402 3.6719-3.8867 5.8203-2.2266 1.8066-5.7129 2.8906z" dominant-baseline="central"/>
  <path d="m331.22 173.54 1.5234 1.2598q-1.1035 6.1719-4.0527 9.4336-2.6856 2.9688-8.0859 4.5898l-1.2207-1.9824q4.9512-1.25 7.5391-4.043 2.5098-2.6953 3.3594-7.2559h-6.582q-2.0508 3.1055-4.8144 4.9609l-1.6016-1.6211q2.2461-1.4453 3.6621-3.1445 1.6016-1.9336 2.5-4.6582l2.1191 0.57617q-0.35157 1.0254-0.76172 1.8848z" dominant-baseline="central"/>
  <path d="m351.98 175.8q0 0.45899-0.0879 4.3555h1.8652v1.7578h-1.9043q-0.0293 1.2793-0.12695 2.9004h1.6504v1.7188h-1.7774q-0.11719 1.416-0.32226 1.875-0.45899 1.0938-2.2266 1.0938-1.1328 0-2.0898-0.16601l-0.36133-1.7383q1.377 0.19531 2.1094 0.19531 0.5957 0 0.71289-0.41992 0.0586-0.20508 0.10742-0.83985h-6.9531q-0.01 0.0781-0.0293 0.16602-0.0879 0.51758-0.16602 0.97656l-2.0215-0.19531q0.5957-3.5254 0.80078-5.332l0.0293-0.23438h-1.9531v-1.7578h2.1582q0.27344-2.3633 0.46875-4.3555zm-6.1719 1.6992h-2.1387q-0.0293 0.49805-0.17578 2.0996l-0.0586 0.55664h2.168l0.0293-0.27344q0.0195-0.2832 0.0586-0.79101 0.0977-1.3672 0.11719-1.5918zm1.9238 0q-0.0488 1.1621-0.14648 2.5684v0.0879h2.2949q0.0391-1.3379 0.0684-2.6562zm-2.2852 4.4141h-2.1973q-0.14648 1.1914-0.3125 2.3535l-0.0781 0.54687h2.2852q0.23438-2.1191 0.30274-2.9004zm2.002 0q-0.0293 0.39063-0.11719 1.2891l-0.15625 1.6113h2.4902q0.0488-0.94726 0.0781-1.4258 0.0586-1.0449 0.0781-1.4746zm-3.8281-9.6387h9.4336v1.8164h-10.244q-0.79102 1.6113-2.0117 3.0664l-1.3965-1.5234q1.9238-2.2559 2.7344-5.1953l2.0801 0.21485q-0.35156 1.0156-0.5957 1.6211zm-5.3809 2.8418q-1.2012-1.6504-2.9199-3.0957l1.4746-1.4258q1.5918 1.1719 3.0274 2.959zm-0.70313 5.1562q-1.4844-1.9043-2.998-3.1934l1.5234-1.4648q1.6992 1.3379 3.0566 3.0469zm-2.6562 7.666q1.6992-2.3535 3.2227-6.2012l1.7383 1.2402q-1.2695 3.5547-3.2617 6.5234z" dominant-baseline="central"/>
  <path d="m363.13 182.24h-4.043v-1.6016h1.9531q-0.43945-0.9961-0.99609-1.8555l1.7578-0.64453q0.76172 1.2793 1.2305 2.5h2.2949q0.57617-1.1816 1.0156-2.5391l1.9629 0.61524q-0.49805 1.0742-1.0547 1.9238h2.0996v1.6016h-4.1797v1.4258h4.4531v1.6602h-4.4531v3.6914h-2.041v-3.6914h-4.2871v-1.6602h4.2871zm2.0996-6.0156h7.4024v11.416q0 1.0059-0.53711 1.416-0.44922 0.35157-1.5137 0.35157-1.377 0-2.6562-0.14649l-0.47852-1.9629q1.709 0.20508 2.5586 0.20508 0.35156 0 0.41015-0.17578 0.0391-0.10742 0.0391-0.30274v-9.1016h-12.48v11.582h-2.1777v-13.281h7.2754v-1.7676h-8.3594v-1.8164h8.3594v-2.1387h2.1582v2.1387h8.4766v1.8164h-8.4766z" dominant-baseline="central"/>
  <path d="m381.2 172.75h4.1797v1.8848h-1.377q-0.3711 1.4941-0.9961 3.1348h2.6074v1.8848h-10.898v-1.8848h2.3926q-0.39062-1.875-0.82031-3.1348h-1.2695v-1.8848h4.1406v-2.2559h2.041zm-2.9394 1.8848q0.49805 1.4551 0.77148 3.1348h1.9922l0.0977-0.27344q0.41992-1.1133 0.78125-2.5293l0.0879-0.33203zm6.0547 6.6602v7.998h-2.002v-0.95703h-4.2578v1.1621h-2.0606v-8.2031zm-6.2598 1.7969v3.3887h4.2578v-3.3887zm13.047-4.9316q1.1621 1.1035 1.8457 2.627 0.67383 1.5234 0.67383 3.0859 0 1.4453-0.53711 2.1289-0.55664 0.71289-1.8359 0.71289-1.0938 0-2.1191-0.15625l-0.47852-2.0801q1.1816 0.21485 1.9531 0.21485 0.58594 0 0.73242-0.27344 0.0977-0.19531 0.0977-0.78125 0-2.4121-1.4453-4.1602-0.38086-0.45898-0.95703-0.98633l0.11719-0.27343q1.0156-2.2949 1.582-4.7852h-2.5v16.064h-2.0215v-18.086h5.8789l1.084 0.99609q-0.98633 3.3594-2.0703 5.752z" dominant-baseline="central"/>
 </g>
</svg>
