<svg xmlns="http://www.w3.org/2000/svg" viewBox="0 0 208 80" version="1.1" height="80" width="208"><rect stop-color="#000000" fill-opacity="0" height="80" width="208"></rect><path aria-label="遠地噴火" fill="#fff" d="m73.41211 45.80762 0.177735 0.08887q1.320312 0.609375 2.856445 1.434571l-1.663086 1.980468q-2.704101-1.625-5.585937-3.046875v3.821289h-2.653321v-5.128906q-2.412109 1.904297-5.446289 3.173828l-1.637695-1.891601q3.935547-1.447266 7.033203-3.694336h-5.078125v-5.293945h13.16504v5.293945h-0.101562l1.586914 1.015625q-1.345703 1.256836-2.653321 2.24707zm-2.158203-0.939453q0.152344-0.126953 0.431641-0.380859 0.977539-0.888672 1.866211-1.942383h-3.745117q-0.165039 0.139648-0.457032 0.380859l-0.152343 0.126953v1.041016q0.774414 0.266602 2.05664 0.774414zm-7.236328-5.87793v1.840821h7.93457v-1.840821zm-5.408203 8.899414q0.990234 1.041016 2.259766 1.663086 0.863281 0.418946 2.488281 0.710938 1.65039 0.279297 3.338867 0.279297h11.12109q-0.482422 0.926758-0.825196 2.412109h-10.37207q-4.291015 0-6.52539-1.129883-1.320313-0.672851-2.526368-1.980468-1.790039 2.24707-3.618164 3.707031l-1.421875-2.564453q1.637696-1.028321 3.427735-2.526368v-6.576171h-3.25v-2.500977h5.90332zm7.93457-17.37988v-1.739258h2.653321v1.739258h6.208007v1.929687h-6.208007v1.447266h7.591796v2.03125h-17.31641v-2.03125h7.071289v-1.447266h-5.649414v-1.929687zm-9.597656 5.014648q-1.688477-2.907227-3.770508-5.06543l2.107422-1.536132q1.967774 1.916992 3.87207 4.836914zm34.41699 3.529297v10.05469q0 0.977539 0.837891 1.180664 0.863281 0.215821 3.948242 0.215821 3.008789 0 3.973636-0.304688 0.5459-0.177734 0.71093-0.990234 0.21582-1.142578 0.22852-2.704102l2.65332 0.749024q-0.20312 3.745117-1.02832 4.786133-0.5459 0.685546-1.65039 0.8125-1.739258 0.190429-5.903321 0.190429-3.224609 0-4.227539-0.177734-1.510742-0.253906-1.916992-1.333008-0.203125-0.571289-0.203125-1.523437v-10.06738l-2.424805 0.83789-0.59668-2.46289 3.021485-1.041016v-6.842773h2.577148v5.954101l2.729492-0.926758v-6.690429h2.551758v5.801758l4.252929-1.459961 1.33301 0.8125v9.508789q0 0.990234-0.46973 1.472656-0.5332 0.533203-1.790037 0.533203-1.02832 0-2.183594-0.177734l-0.418945-2.424805q0.749023 0.19043 1.523438 0.19043 0.558593 0 0.685546-0.228516 0.126954-0.19043 0.126954-0.634766v-6.004882l-3.059571 1.066406v10.27051h-2.551758v-9.394532zm-9.331054-4.151367v-6.131836h2.729492v6.131836h2.46289v2.577148h-2.46289v8.074219q1.333008-0.457031 2.640625-0.952149l0.241211 2.450196q-4.113282 1.878906-8.442383 3.148437l-0.888672-2.704101q1.955078-0.507813 3.427734-0.964844 0.177735-0.06348 0.291993-0.08887v-8.962891h-3.22461v-2.577148zm42.47851 14.45996q2.78028 0.977539 5.25586 2.386718l-1.81543 1.904297-0.52051-0.317383q-2.67871-1.599609-5.1416-2.65332l1.48535-1.320312h-6.25878l1.48535 1.24414q-3.07227 1.980469-6.52539 3.021485l-1.6377-2.132813q3.46582-0.698242 5.92871-2.132812h-3.30078v-10.89258h14.38379v10.89258zm-8.44238-9.178711v1.269531h9.15332v-1.269531zm0 2.932617v1.383789h9.15332v-1.383789zm0 3.046875v1.43457h9.15332v-1.43457zm-4.01172-15.36133v17.51953h-4.51953v2.056641h-2.33594v-19.57617zm-4.51953 2.46289v12.53027h2.20898v-12.53027zm11.78125-2.881836v-1.612304h2.62793v1.612304h6.34766v2.056641h-6.34766v1.510742h-2.62793v-1.510742h-6.08106v-2.056641zm-3.7959 4.113282v-1.536133h2.33594v1.536133h5.59863v-1.536133h2.36133v1.536133h3.59277v2.107422h-3.59277v1.409179h-2.36133v-1.409179h-5.59863v1.409179h-2.33594v-1.409179h-2.83105v-2.107422zm28.88184-5.725586v6.233398q0 5.535156 3.7959 10.35938 2.58984 3.300781 7.14746 5.382813l-1.917 2.615234q-7.87109-4.151367-10.21972-11.42578-1.02832 4.164062-3.13574 6.71582-2.4629 2.970703-7.18555 4.735352l-1.86621-2.41211q5.34472-1.777343 7.74414-5.408203 1.49804-2.272461 2.22168-5.522461 0.5332-2.374023 0.5332-4.824218v-6.449219zm-12.39063 12.65723q2.06934-3.135742 3.00879-7.998047l2.89453 0.545899q-1.01562 5.408203-3.25 9.115234zm15.20899-0.875976q2.4248-3.427735 4.26562-8.010742l2.88184 1.269531q-2.08203 4.506836-4.59571 8.036133z"></path></svg>
