<svg version="1.1" xmlns="http://www.w3.org/2000/svg" xmlns:xlink="http://www.w3.org/1999/xlink" width="80" height="80" viewBox="0,0,80,80"><g transform="translate(-200,-140)"><g data-paper-data="{&quot;isPaintingLayer&quot;:true}" fill-rule="nonzero" stroke="none" stroke-width="1" stroke-linecap="butt" stroke-linejoin="miter" stroke-miterlimit="10" stroke-dasharray="" stroke-dashoffset="0" style="mix-blend-mode: normal"><path d="M200,220v-80h80v80z" fill-opacity="0" fill="#000000"/><path d="M240.2965,156.77514c2.2347,0.0099 4.2411,0.5192 6.0156,1.5332c1.792,0.9813 3.1987,2.3464 4.2227,4.0957c1.05598,1.6896 1.58903,3.6102 1.5996,5.7598v0.06446c-0.0067,2.6167 -0.41096,4.8573 -1.2148,6.7188c-0.8106,1.8346 -1.8567,3.4572 -3.1367,4.8652c-1.2373,1.408 -2.5805,2.7295 -4.0312,3.9668c-1.408,1.1946 -2.7512,2.4546 -4.0312,3.7773c-1.2374,1.3227 -2.26163,2.8363 -3.0723,4.543c-0.81062,1.664 -1.23853,3.6908 -1.2812,6.0801h16.705v5.1836h-22.336v-5.1836c0.0426,-2.8587 0.4468,-5.3114 1.2148,-7.3594c0.8107,-2.0907 1.835,-3.8837 3.0723,-5.377c1.28,-1.536 2.6252,-2.9229 4.0332,-4.1602c1.408,-1.28 2.7295,-2.5381 3.9668,-3.7754c1.2374,-1.28 2.26163,-2.645 3.0723,-4.0957c0.80681,-1.4863 1.211,-3.2272 1.2148,-5.2207c-0.0077,-1.8602 -0.5824,-3.3857 -1.7266,-4.5723c-1.1427,-1.18514 -2.5799,-1.7796 -4.3105,-1.7891c-1.526,0.0047 -2.8638,0.4505 -4.0098,1.3418c-1.15202,0.896 -1.83357,2.3046 -2.0469,4.2246l-5.377,-1.0879c0.256,-1.8773 0.8959,-3.5197 1.9199,-4.9277c1.0667,-1.4507 2.4317,-2.58193 4.0957,-3.3926c1.6455,-0.80164 3.4395,-1.204 5.377,-1.2129z" fill="#ffffff"/></g></g></svg>