<?xml version="1.0" encoding="UTF-8"?>
<svg width="480" height="360" version="1.1" viewBox="0 0 480 360" xmlns="http://www.w3.org/2000/svg">
 <g fill="#fff" aria-label="大阪府">
  <path d="m251.35 177.52q0.67383 2.2852 2.5586 4.8633 2.2949 3.1445 5.6445 4.9805l-1.3965 2.0117q-3.5449-2.0898-5.918-5.5371-1.2793-1.875-2.0508-3.8184-0.77148 2.6172-2.3926 4.7559-2.3828 3.1641-5.8887 4.668l-1.377-1.7871q3.6719-1.5332 5.9277-4.7266 1.8945-2.6953 2.2461-5.4102h-7.793v-2.1191h7.8809v-4.707h2.2559v4.707h8.0469v2.1191z"/>
  <path d="m270.66 178.52v0.22461q-0.0488 3.7695-0.46875 6.1426-0.41992 2.3828-1.4355 4.4531l-1.7383-1.3574q0.9375-1.9531 1.2988-4.5117 0.32227-2.2461 0.32227-5.3906v-6.4941h10.635v1.9238h-8.6133v3.1738h7.2559l0.97657 0.76172q-1.0645 4.707-2.8125 7.3535 1.4844 1.5625 3.7305 2.7832l-1.1523 1.8164q-2.3047-1.3477-3.8184-2.9883-1.4062 1.6211-3.8184 3.1934l-1.2402-1.6211q2.3828-1.2793 3.8281-3.125-1.8359-2.7148-2.5195-6.3379zm4.1504 4.6387q1.25-2.1875 1.7285-4.6387h-3.6133q0.58594 2.627 1.8848 4.6387zm-8.9355-5.3906q0.77148 0.89844 1.2891 2.1387 0.58594 1.4062 0.58594 2.8223 0 1.2891-0.41016 1.9434-0.51758 0.81055-1.9922 0.81055-0.78125 0-1.5918-0.11719l-0.38086-1.9824 0.37109 0.0391q0.89844 0.0976 1.25 0.0976 0.48828 0 0.61524-0.18554 0.14648-0.23438 0.14648-0.9961 0-2.2754-1.7773-4.3945l0.10742-0.29297q0.72265-1.8457 1.3476-4.4141h-2.2168v16.27h-2.002v-18.125h5.4395l1.0059 0.82032q-0.83008 3.3789-1.7871 5.5664z"/>
  <path d="m291.6 172.66h7.4024v1.8359h-15.146v4.2188q0 1.4453-0.0391 2.5195 2.0801-2.4805 3.457-6.5137l2.0312 0.45898q-0.52734 1.4746-1.3086 2.9883v11.338h-2.0801v-7.9297q-0.6543 0.9082-1.3184 1.709l-0.79101-1.8066q-0.10743 2.5195-0.43946 4.2969-0.38086 2.0312-1.25 3.7305l-1.7383-1.5625q0.80078-1.8262 1.1035-4.1406 0.27343-2.1191 0.27343-5.2051v-5.9375h7.627v-2.1582h2.2168zm2.998 5.3223v-2.8809h2.0996v2.8809h2.8027v1.8555h-2.8027v7.7051q0 1.2402-0.71289 1.6016-0.41016 0.21485-1.3574 0.21485-1.5234 0-2.793-0.15625l-0.41992-1.9824q1.582 0.22461 2.5781 0.22461 0.43946 0 0.53711-0.14649 0.0684-0.11719 0.0684-0.41992v-7.041h-5.957v-1.8555zm-2.7832 7.5q-1.2305-2.4024-2.5-4.0625l1.6797-1.0156q1.5918 2.0215 2.5 3.9356z"/>
 </g>
</svg>
