<svg version="1.1" xmlns="http://www.w3.org/2000/svg" xmlns:xlink="http://www.w3.org/1999/xlink" width="187.90569" height="190.59526" viewBox="0,0,187.90569,190.59526"><g transform="translate(215.56948,152.09306)"><g data-paper-data="{&quot;isPaintingLayer&quot;:true}" fill="none" fill-rule="evenodd" stroke="#fc3324" stroke-width="36" stroke-linecap="round" stroke-linejoin="round" stroke-miterlimit="4" stroke-dasharray="" stroke-dashoffset="0" style="mix-blend-mode: normal"><g><path d="M-83.82768,16.65282l2.32962,0.12998l3.09951,3.36946l-4.83922,0.34994l-0.58991,-3.84938"/><path d="M-72.94942,5.86455l2.00967,1.13981l-1.96968,3.99936l0.25996,1.74972l-4.72924,2.77956l1.10982,-3.17949l-1.50976,-4.12934l1.8997,-1.61974l0.79987,2.18965l0.21997,-2.62958l1.90969,-0.29995"/><path d="M-77.28872,3.06499l2.12965,0.6199l-2.17965,3.03951l-2.91953,0.86986l1.64973,2.21964l-0.97985,3.37946l-2.33962,-0.28995l-1.95969,-3.53943l-2.64957,1.04983l2.08966,5.55911l-2.44961,-2.34963l-2.53959,-0.81987l0.31995,-2.66957l1.60975,-0.82987l1.16981,-2.59958l3.40946,-0.26996l-0.02999,-2.50959l1.59974,-0.31995l2.68957,1.44976l1.37978,-1.98968"/><path d="M-56.31208,-22.49092l2.98952,3.67941l0.91985,-0.41993l2.69957,2.96952l1.13981,-0.02l0.79988,2.54959l2.09966,1.01984l-1.2498,2.4896l0.41993,2.5196l-0.92985,3.1295l-1.84971,-0.26996l-0.96984,-1.8597l-0.04,6.43897l-1.39978,0.26996l-3.63942,-1.44977l-1.08983,1.17981l-3.06951,0.98984l-1.03983,-0.48992l0.13998,-3.22949l-1.41977,0.39993l-1.53975,-2.58958l-2.40962,-0.17997l0.78987,-4.3393l-1.47977,-0.48992l1.01984,-3.98936l1.01984,0.30995l2.64957,-6.10902l2.28964,-0.70989l0.88986,0.86987l2.35962,-1.62974l-0.09998,-1.03984"/><path d="M-197.56948,-134.09306v0"/></g></g></g></svg>