<?xml version="1.0" encoding="UTF-8"?>
<svg width="480" height="360" version="1.1" viewBox="0 0 480 360" xmlns="http://www.w3.org/2000/svg">
 <g dominant-baseline="central" fill="#fff" aria-label="網走沖">
  <path d="m242.68 177.69q-0.99609-1.6602-2.3926-3.291l1.084-1.416q0.36133 0.41015 0.51758 0.5957 0.8496-1.4551 1.5039-3.2129l1.6894 0.83984q-0.86914 1.7285-2.2266 3.6426 0.47852 0.66406 0.86914 1.3281l0.0684-0.10742q1.084-1.6309 2.0898-3.4082l1.4648 1.0254q-1.7871 2.8418-3.9062 5.3906 1.6406-0.13672 2.168-0.19532 0.13672-0.0195 0.21484-0.0293-0.17578-0.63477-0.45898-1.3281l1.3379-0.56641q0.77148 1.6602 1.084 3.8086l-1.4453 0.6543q-0.0684-0.66407-0.16602-1.123-0.37109 0.0684-1.2305 0.21484v8.9941h-1.8359v-8.7402q-0.12695 0.0195-0.30274 0.0391-0.65429 0.0879-2.0996 0.21484l-0.38085-1.7578q0.38085-0.0195 0.72265-0.0391l0.47852-0.0293q0.57617-0.69336 1.1523-1.5039zm10.41 4.0332v1.6992q0 0.54687 0.21484 0.64453 0.19531 0.0879 1.0352 0.0879 0.86914 0 2.0703-0.12695v1.6797q-1.1719 0.12696-2.2168 0.12696-1.9726 0-2.4121-0.3418-0.41015-0.32226-0.41015-1.2695v-2.5h-1.123v-1.6016h2.2656v-1.9336h-2.2656v-1.582h3.584q0.79102-1.7383 1.2207-3.3398l1.6992 0.61523q-0.51758 1.4062-1.2402 2.7246h1.2598v1.582h-2.4414v1.9336h2.4414v1.6016zm6.0547-10.459v16.24q0 0.98633-0.46875 1.3867-0.40039 0.35156-1.377 0.35156-1.0449 0-2.0703-0.13672l-0.3418-1.8457q1.1035 0.16601 1.9629 0.16601 0.3711 0 0.42969-0.17578 0.0488-0.11718 0.0488-0.46875v-13.701h-7.6856v16.426h-1.7969v-18.242zm-18.877 15.859q0.51758-2.3144 0.64453-5.166l1.6113 0.18555q-0.11719 3.5644-0.57617 5.7422zm5.7227-0.60547q-0.3125-2.7051-0.72266-4.3359l1.416-0.41992q0.53711 1.7188 0.9082 4.0234zm5.293-9.9512q-0.42969-1.4648-1.0742-2.6074l1.4746-0.57617q0.70312 1.1035 1.1426 2.5586z" dominant-baseline="central"/>
  <path d="m271.04 179.07v2.4121h6.9238v1.8359h-6.9238v3.3398q1.5332 0.27343 3.623 0.27343h5.0586q-0.48828 0.97657-0.72266 2.0606h-4.3555q-3.9648 0-6.2598-0.94727-2.1191-0.86914-3.6816-3.0371-1.0645 2.5976-2.8418 4.5215l-1.4941-1.7773q2.7539-2.9785 3.4375-7.7148l2.2168 0.3418q-0.32226 1.5625-0.60546 2.5684 1.2988 2.207 3.4473 3.0859v-6.9629h-8.2031v-1.8555h8.1836v-2.4805h-6.582v-1.7969h6.582v-2.4414h2.1777v2.4414h6.7383v1.7969h-6.7383v2.4805h8.3398v1.8555z" dominant-baseline="central"/>
  <path d="m291.58 174.14v-3.6426h2.0996v3.6426h5.293v8.8379h-5.293v6.5234h-2.0996v-6.5234h-5.1856v-8.8379zm-3.1641 1.9434v4.9707h3.1641v-4.9707zm8.4766 4.9707v-4.9707h-3.2129v4.9707zm-12.5-5.7812q-1.1914-1.6602-3.1543-3.1738l1.4551-1.4844q1.9531 1.377 3.3008 3.0859zm-0.63476 5.0195q-1.6992-1.9727-3.3008-3.2324l1.5039-1.5039q1.709 1.2012 3.3789 3.1055zm-3.0371 7.5684q1.875-2.666 3.457-6.6406l1.7383 1.3379q-1.3379 3.6621-3.2617 6.8945z" dominant-baseline="central"/>
 </g>
</svg>
