<svg version="1.1" xmlns="http://www.w3.org/2000/svg" xmlns:xlink="http://www.w3.org/1999/xlink" width="110.87561" height="86.41655" viewBox="0,0,110.87561,86.41655"><g transform="translate(-374.64952,107.16208)"><g data-paper-data="{&quot;isPaintingLayer&quot;:true}" fill="#ff0000" fill-rule="evenodd" stroke="none" stroke-width="0" stroke-linecap="round" stroke-linejoin="round" stroke-miterlimit="10" stroke-dasharray="" stroke-dashoffset="0" style="mix-blend-mode: normal"><path d="M485.52513,-70.67352l-2.05992,0.94996l-2.63989,0.46998l-1.87992,0.94996l-0.82997,-0.09l-1.06996,1.70993l-1.67993,-0.89996l-1.09996,1.54994l-0.83997,-0.71997l-1.44994,0.02l-1.67993,0.38998l-0.61998,0.61998l-1.73993,0.80997l-0.20999,1.90992l1.63993,1.33995l-0.93996,1.91992l-1.67993,0.32999l-1.79993,0.87996l-1.69993,-0.35999l-1.39994,1.14995l0.14999,1.03996l-0.55998,1.56994l-1.33995,0.39998l-0.63997,1.29995l-0.63997,0.28999l-0.16999,1.19995l-0.67997,1.37994l0.80997,1.05996l0.04,1.54994l-1.10996,1.61994l-0.52998,0.21999l-3.02988,-1.63993l-2.5899,0.66997l-0.41998,0.98996l-1.79993,0.48998l-1.02996,-1.08996l-1.48994,0.06l-1.48994,1.65993l-1.63993,-0.32999l-1.09996,2.69989l-1.65993,-0.29999l-1.04996,0.76997l-0.98996,-0.57998l-0.94996,0.78997l-1.97992,-0.47998l0.15999,1.32995l1.77993,1.29995l0.20999,0.92996l0.88996,0.41998l-0.18999,1.85993l1.26995,0.94996l0.83997,1.60994l-0.11,1.33995l-3.24987,0.48998l-0.50998,0.40998l-3.04988,0.62997l-1.47994,0.52998l-2.5899,-2.14991l-1.05996,-0.49998l-0.76997,0.14999l-0.35999,-1.50994l-1.19995,-1.26995l-0.38998,-1.09996l-1.50994,-1.19995l-1.11996,-0.33999l-0.26999,-1.18995l-1.28995,-0.08l-1.36995,-0.52998l-1.57994,1.27995l-2.5199,0.55998l-2.83989,2.4199l-0.86997,-0.09l-0.89996,-0.80997l-1.24995,-2.66989l-2.05992,2.26991l0.65997,1.28995l-0.39998,1.30995l-1.51994,1.13995l-0.83997,0.20999l0.79997,2.02992l1.16995,1.32995l-1.21995,0.66997l-0.54998,1.55994l-0.57998,0.54998l0.67997,2.30991l-2.01992,0.90996l-1.17995,-1.69993l-2.28991,-1.99992l-1.71993,1.31995h-0.79997l-0.28999,-0.98996l-2.5699,-0.44998l-0.88996,0.32999l-1.52994,-0.63997l-0.48998,0.67997l-1.52994,-1.22995l-0.12,-1.03996l-0.70997,-1.03996l-1.98992,-0.84997l-1.54994,1.81993l0.29999,1.53994l-0.82997,1.64993l0.27999,1.01996l-0.79997,1.45994l-0.80997,0.27999l-0.52998,0.86997l-0.66997,2.19991l-2.20991,0.08l-1.31995,-0.47998l-1.00996,-0.15999l-1.62993,-2.68989l-1.92992,-0.74997l-1.27995,-0.21999l0.02,-2.20991l0.50998,0.01l1.29995,-1.58994l-0.15999,-0.76997l0.53998,-1.13995l1.33995,-0.70997l1.06996,-0.17999l0.44998,-0.78997l0.20999,-1.79993l0.53998,-1.07996l0.97996,-0.51998l0.14999,-1.44994l-0.57998,-1.20995l0.12,-0.99996l1.41994,-0.62997l0.24999,-2.01992l3.67985,-1.04996l-0.26999,-0.83997l0.56998,-1.08996l-0.97996,-0.50998l-1.40994,-0.04l0.48998,-1.95992l-0.17999,-1.05996l2.5499,-1.86993l1.18995,-1.18995l2.27991,-0.02l0.51998,-0.85997l-0.91996,-2.36991l0.27999,-1.45994l0.45998,-0.27999l0.49998,-2.5099l-0.27999,-1.36995l0.81997,-1.13995l-0.31999,-1.13995l0.12,-1.21995l-0.95996,-2.36991l0.25999,-1.79993l-0.16999,-0.93996l0.82997,-1.70993l-0.74997,-1.30995l1.05996,-1.87992l1.32995,-0.92996l1.57994,-0.69997l0.17999,-0.92996l2.66989,-1.43994l0.27999,-0.96996l0.81997,-0.25999v-1.21995l1.41994,-2.09992l1.16995,-1.14995l-0.1,-0.70997l2.19991,-2.95988l-0.95996,-0.56998l-0.65997,-1.62993l0.96996,-1.48994l-0.87996,-0.52998l0.09,-0.73997l1.11996,-0.36999l1.85993,0.72997l2.63989,-1.23995l1.23995,0.69997l1.52994,0.15999l0.57998,0.99996l0.91996,0.35999l0.71997,-1.07996l0.67997,0.30999l1.51994,-0.29999l1.12995,0.70997l1.06996,0.12l0.19999,1.35995l1.54994,0.22999l0.05,1.64993l-1.49994,2.21991l-0.08,0.99996l0.42998,1.26995l-1.65993,1.97992l1.34995,0.93996l1.18995,0.21999l0.48998,1.02996l1.79993,0.16999l0.04,0.93996l1.59994,-0.47998l0.69997,-0.83997l-0.21999,-0.78997l0.83997,-1.62993l1.78993,-1.69993l1.57994,-0.85997l1.66993,-0.03l0.96996,0.42998l2.12991,0.35999l1.49994,-0.93996l1.77993,-0.22999l1.00996,-0.67997l0.72997,-1.14995l1.63993,0.51998l1.98992,-0.14999l1.90992,0.60998l0.32999,0.67997l-0.12,1.34995l0.43998,0.41998l1.26995,-0.59998l0.85997,-1.56994l-0.75997,-1.27995l1.07996,-2.27991l-0.90996,-1.25995l0.59998,-1.74993l2.12991,-1.79993l1.16995,-0.20999l1.38994,0.75997l0.57998,-1.02996l0.86997,-0.59998l0.67997,-1.30995l-0.07,-1.13995l1.21995,-2.36991l0.26999,-0.99996l1.19995,-1.01996l0.30999,-0.82997l1.71993,-0.44998l0.09,-0.41998l1.94992,-0.50998l2.36991,-1.68993l1.28995,0.21999l1.33995,-0.45998l1.02996,0.12999l0.96996,-0.56998l2.32991,-0.66997l1.17995,1.18995l1.59994,-0.33999l1.33995,0.28999l0.97996,3.08988l1.05996,1.21995l0.18999,1.23995l-0.36999,5.63977l0.74997,0.80997l-0.26999,1.24995l0.68997,1.03996l1.66993,-0.17999l0.80997,0.55998l-0.31999,1.51994l0.55998,0.90996l2.75989,1.27995l0.63997,0.78997l1.90992,0.1l1.66993,1.55994l-0.30999,1.07996l-0.01,1.71993l-0.92996,1.02996l1.50994,1.87992l-1.15995,2.63989l-1.24995,0.53998l-0.21999,1.23995l1.04996,0.90996l0.79997,0.07l0.38998,2.4599l0.39998,0.94996"/></g></g></svg>