<svg version="1.1" xmlns="http://www.w3.org/2000/svg" xmlns:xlink="http://www.w3.org/1999/xlink" width="168.1" height="32.695" viewBox="0,0,168.1,32.695"><g transform="translate(-240,-180)"><g data-paper-data="{&quot;isPaintingLayer&quot;:true}" stroke="none" stroke-linecap="butt" stroke-linejoin="miter" stroke-miterlimit="10" stroke-dasharray="" stroke-dashoffset="0" style="mix-blend-mode: normal"><path d="M248,180h152.1c4.432,0 8,3.568 8,8v16.695c0,4.432 -3.568,8 -8,8h-152.1c-4.432,0 -8,-3.568 -8,-8v-16.695c0,-4.432 3.568,-8 8,-8z" fill-opacity="0.7" fill="#000000" fill-rule="evenodd" stroke-width="0"/><g fill="#ffffff" fill-rule="nonzero" stroke-width="1"><path d="M251.83,189.41c0.18229,0.09375 0.39193,0.20573 0.62891,0.33594l-0.49609,0.40234h2.3516l0.44141,0.44141c-0.58594,0.8828 -1.17057,1.60807 -1.7539,2.1758l-0.79297,-0.46485c0.51302,-0.46875 0.92449,-0.93488 1.2344,-1.3984h-1.9453v3.0625c0,0.35417 -0.08724,0.58073 -0.26172,0.67968c-0.11719,0.06771 -0.33594,0.10157 -0.65625,0.10157c-0.41927,0 -0.8815,-0.02603 -1.3867,-0.0781l-0.19141,-0.87112c0.48698,0.07813 0.91928,0.11719 1.2969,0.11719c0.14323,0 0.23178,-0.02343 0.26563,-0.0703c0.02607,-0.03907 0.0391,-0.11068 0.0391,-0.21484v-2.7266h-3.2734v-0.75391h4.2344c-0.8802,-0.50521 -1.7604,-0.93227 -2.6406,-1.2812l0.63282,-0.50391c0.59115,0.23698 1.11328,0.46745 1.5664,0.69141c0.40105,-0.27344 0.75261,-0.54167 1.0547,-0.80469h-4.1758v-0.74218h5.3125l0.48047,0.46875c-0.68227,0.54947 -1.3372,1.02734 -1.9648,1.4336z"/><path d="M256.77,188.02v-0.8164h0.81641v0.8164h1.2148v0.6875h-1.2148v0.67188h1.3828v0.69531h-0.46484c-0.08333,0.3099 -0.19531,0.63803 -0.33594,0.98438h0.7539v0.67968h-1.3359v0.72266h1.2852v0.69531h-1.2852v1.6484h-0.81641v-1.6484h-1.3789v-0.69531h1.3789v-0.72266h-1.4414v-0.67968h0.71875c-0.08333,-0.34635 -0.18489,-0.67448 -0.30468,-0.98438h-0.57422v-0.69531h1.6016v-0.67188h-1.2734v-0.6875zM257.74266,190.0747h-1.2422c0.08854,0.2474 0.18359,0.57553 0.28516,0.98438h0.64843c0.13542,-0.33333 0.23829,-0.66146 0.3086,-0.98438zM262.48096,187.4849v1.8281c0,0.22657 -0.04167,0.38672 -0.125,0.48047c-0.09896,0.11198 -0.30599,0.16797 -0.6211,0.16797c-0.30729,0 -0.61458,-0.01303 -0.92187,-0.0391l-0.13281,-0.70313c0.43229,0.04687 0.70703,0.0703 0.82422,0.0703c0.12239,0 0.18359,-0.05339 0.18359,-0.16016v-0.94141h-1.7109v2.2695h2.2148l0.46484,0.39844c-0.14063,0.82813 -0.39714,1.56773 -0.76953,2.2188l-0.043,0.0781c0.28646,0.33073 0.64453,0.63281 1.0742,0.90625l-0.4375,0.73047c-0.41146,-0.26563 -0.77866,-0.58334 -1.1016,-0.95313c-0.27865,0.35417 -0.59245,0.6875 -0.94141,1l-0.46094,-0.64062v0.60937h-0.79297v-7.3203zM259.97706,191.1607v2.9531c0.32031,-0.21875 0.62891,-0.52604 0.92578,-0.92187c-0.39843,-0.61459 -0.67838,-1.29165 -0.83984,-2.0312zM261.33646,192.5005c0.23177,-0.44791 0.38281,-0.89451 0.45312,-1.3398h-1.0078c0.12761,0.5 0.3125,0.9466 0.55469,1.3398z"/><path d="M270.37,187.6v6.2578c0,0.30989 -0.08203,0.52604 -0.2461,0.64844c-0.13281,0.10156 -0.35547,0.15234 -0.66797,0.15234c-0.49739,0 -0.96353,-0.01953 -1.3984,-0.0586l-0.17578,-0.85547c0.51562,0.05987 0.95182,0.0898 1.3086,0.0898c0.12761,0 0.20964,-0.02213 0.24609,-0.0664c0.02607,-0.03387 0.0391,-0.08985 0.0391,-0.16796v-2.2305h-4.9375v3.3438h-0.89454v-7.1133zM264.538,188.36171v2.2461h2.0156v-2.2461zM269.4755,190.60781v-2.2461h-2.0742v2.2461z"/><path d="M274.54,188.5v-1.3047h0.8711v1.3047h3v5.4375c0,0.30729 -0.08333,0.52213 -0.25,0.64453c-0.13542,0.10156 -0.3711,0.15234 -0.70704,0.15234c-0.57552,0 -1.05079,-0.01433 -1.4258,-0.043l-0.16015,-0.83203c0.58333,0.03647 1.0703,0.0547 1.4609,0.0547c0.10417,0 0.16537,-0.02473 0.1836,-0.0742c0.013,-0.03127 0.0195,-0.08075 0.0195,-0.14844v-4.3906h-2.125l-0.004,0.0586c-0.013,0.21094 -0.03903,0.42709 -0.0781,0.64844c0.77347,0.63281 1.46357,1.34635 2.0703,2.1406l-0.66406,0.61719c-0.43229,-0.62761 -0.97526,-1.27994 -1.6289,-1.957c-0.33593,0.8828 -1.0117,1.61977 -2.0273,2.2109l-0.51563,-0.6875c0.60677,-0.34896 1.05471,-0.72136 1.3438,-1.1172c0.38021,-0.52083 0.58985,-1.15887 0.62891,-1.9141h-2.0508v5.4961h-0.87891v-6.2969z"/><path d="M283.39,193.61c1.52867,-0.38541 2.293,-1.26171 2.293,-2.6289c0,-0.59635 -0.15365,-1.10939 -0.46094,-1.5391c-0.34375,-0.48437 -0.86718,-0.79557 -1.5703,-0.93359c-0.15365,1.20833 -0.36328,2.19793 -0.62891,2.9688c-0.18229,0.53906 -0.40885,1.04816 -0.67968,1.5273c-0.39063,0.68227 -0.83463,1.0234 -1.332,1.0234c-0.36979,0 -0.69921,-0.16667 -0.98828,-0.5c-0.18489,-0.21094 -0.33463,-0.47005 -0.44922,-0.77734c-0.15104,-0.39844 -0.22656,-0.82684 -0.22656,-1.2852c0,-0.7422 0.20443,-1.4258 0.61328,-2.0508c0.41407,-0.63802 0.95183,-1.10155 1.6133,-1.3906c0.48177,-0.21093 1.01041,-0.3164 1.5859,-0.3164c0.89847,0 1.6615,0.24088 2.2891,0.72265c0.7708,0.59115 1.1562,1.42838 1.1562,2.5117c0,1.81513 -0.91797,2.96617 -2.7539,3.4531zM282.80406,188.4772c-0.46093,0.05207 -0.84633,0.17576 -1.1562,0.37109c-0.19791,0.12761 -0.39453,0.29688 -0.58984,0.50781c-0.54167,0.59896 -0.8125,1.29296 -0.8125,2.082c0,0.57552 0.11458,1.02605 0.34375,1.3516c0.14063,0.20052 0.27995,0.30078 0.41797,0.30078c0.1875,0 0.39844,-0.20703 0.63281,-0.62109c0.57292,-1.0078 0.96095,-2.33853 1.1641,-3.9922z"/><path d="M287.91,192.6c0.53646,0.60417 1.20053,0.90625 1.9922,0.90625c0.35937,0 0.64713,-0.07162 0.86328,-0.21485c0.25521,-0.17448 0.38281,-0.41667 0.38281,-0.72656c0,-0.28125 -0.11068,-0.51042 -0.33203,-0.6875c-0.14583,-0.11719 -0.4974,-0.28516 -1.0547,-0.50391l-0.14843,-0.0586l-0.26563,-0.10547c-0.0182,-0.0078 -0.05073,-0.02083 -0.0976,-0.0391c-0.57292,-0.21615 -0.94402,-0.39453 -1.1133,-0.53516c-0.02607,-0.02347 -0.0586,-0.05603 -0.0976,-0.0977c-0.27865,-0.29948 -0.41797,-0.66015 -0.41797,-1.082c0,-0.54427 0.19531,-0.98307 0.58594,-1.3164c0.40885,-0.34896 0.96092,-0.52344 1.6562,-0.52344c0.48437,0 0.91667,0.07161 1.2969,0.21484c0.30209,0.11719 0.60287,0.29688 0.90235,0.53907l-0.53907,0.75c-0.46093,-0.4375 -1.0117,-0.65625 -1.6523,-0.65625c-0.41927,0 -0.72396,0.09766 -0.91406,0.29297c-0.16146,0.16667 -0.24219,0.36849 -0.24219,0.60546c0,0.27083 0.11719,0.48698 0.35156,0.64844c0.14844,0.10417 0.46354,0.24219 0.94531,0.41406l0.3125,0.11329c0.68747,0.24739 1.15883,0.48958 1.4141,0.72656c0.35417,0.33073 0.53125,0.74609 0.53125,1.2461c0,0.61979 -0.24349,1.10286 -0.73047,1.4492c-0.40104,0.28385 -0.94791,0.42578 -1.6406,0.42578c-1.07813,0 -1.9414,-0.36587 -2.5898,-1.0976z"/><path d="M298.8,193.1c0.5026,0.35677 1.14323,0.66146 1.9219,0.91406l-0.4375,0.78125c-0.82033,-0.32291 -1.4974,-0.69661 -2.0312,-1.1211c-0.55208,0.49219 -1.17838,0.88282 -1.8789,1.1719l-0.54688,-0.61719c0.72133,-0.25521 1.34373,-0.61327 1.8672,-1.0742c-0.59375,-0.65625 -1.01955,-1.34375 -1.2774,-2.0625h-0.15234c-0.0156,0.70313 -0.0781,1.3112 -0.1875,1.8242c-0.13541,0.63281 -0.38932,1.23828 -0.76172,1.8164l-0.63281,-0.57812c0.34375,-0.55989 0.56901,-1.18619 0.67578,-1.8789c0.06771,-0.43229 0.10156,-0.91795 0.10156,-1.457v-2.5352h2.0469v-1.0859h0.83203v1.0859h1.793l0.40625,0.35156c-0.16146,0.53646 -0.35026,1.02733 -0.56641,1.4726l-0.79297,-0.23437c0.17188,-0.28125 0.29949,-0.56381 0.38282,-0.84766h-1.2227v1.3789h1.2969l0.39063,0.33594c-0.30989,0.92967 -0.71876,1.71613 -1.2266,2.3594zM298.20234,192.60781c0.39323,-0.49739 0.66536,-1.00259 0.81641,-1.5156h-1.8711c0.24479,0.55208 0.59636,1.05728 1.0547,1.5156zM297.50703,189.02581h-1.2383v1.3789h1.2383zM294.60463,189.2055c-0.34375,-0.46615 -0.76561,-0.90365 -1.2656,-1.3125l0.60937,-0.58984c0.48698,0.35156 0.92448,0.76433 1.3125,1.2383zM294.24917,191.0922c-0.3724,-0.47917 -0.78777,-0.90757 -1.2461,-1.2852l0.60156,-0.58593c0.45053,0.32031 0.87893,0.72784 1.2852,1.2226zM293.09297,194.182c0.48958,-0.7344 0.92318,-1.62503 1.3008,-2.6719l0.70703,0.48828c-0.34896,1.03907 -0.77083,1.97787 -1.2656,2.8164z"/><path d="M302.99,191.69v-0.9375h0.82422v0.9375h1.5039v0.73437h-1.5039v1.0274c0.23437,-0.03647 0.41146,-0.0638 0.53125,-0.082c0.42187,-0.06513 0.84504,-0.14066 1.2695,-0.22657l0.0234,0.7461c-1.56253,0.34635 -2.99743,0.59114 -4.3047,0.73437l-0.21485,-0.8164c0.32292,-0.03387 0.94662,-0.11069 1.8711,-0.23047v-1.1524h-1.6016v-0.73437zM303.38453,188.3111c-0.0078,0.0182 -0.0156,0.03773 -0.0234,0.0586c-0.21094,0.5625 -0.44271,1.07423 -0.69531,1.5352c0.03387,0 0.07683,-0.00133 0.1289,-0.004c0.61979,-0.02607 1.14973,-0.06122 1.5898,-0.10547c-0.21615,-0.34635 -0.42969,-0.65755 -0.64063,-0.9336l0.72657,-0.32812c0.48437,0.57813 0.90624,1.21876 1.2656,1.9219l-0.75391,0.4375c-0.12239,-0.24479 -0.20312,-0.40364 -0.24218,-0.47656c-1.07293,0.15104 -2.168,0.25651 -3.2852,0.31641l-0.19922,-0.76563l0.48047,-0.0195c0.03127,0 0.0612,-0.00133 0.0898,-0.004c0.27344,-0.58073 0.48959,-1.125 0.64844,-1.6328h-1.2852v-0.72656h4.4102v0.72656zM305.99783,188.1197h0.79297v4.7695h-0.79297zM307.54083,187.44782h0.8164v6.5039c0,0.28385 -0.05599,0.48437 -0.16796,0.60156c-0.11719,0.12761 -0.35027,0.19141 -0.69922,0.19141c-0.34375,0 -0.72655,-0.02343 -1.1484,-0.0703l-0.16016,-0.82421c0.34635,0.05207 0.71615,0.0781 1.1094,0.0781c0.1276,0 0.20312,-0.02733 0.22656,-0.082c0.0156,-0.03647 0.0234,-0.10418 0.0234,-0.20313z"/><path d="M310.92,193.09c0.21094,0.23177 0.44271,0.40495 0.69532,0.51953c0.42187,0.19271 1.00911,0.28907 1.7617,0.28907h3.3906c-0.10156,0.18229 -0.1901,0.42968 -0.26562,0.74218h-3.1562c-0.8854,0 -1.55857,-0.11849 -2.0195,-0.35546c-0.24219,-0.1224 -0.48958,-0.32162 -0.74218,-0.59766c-0.42188,0.49479 -0.80338,0.87369 -1.1445,1.1367l-0.44922,-0.78906c0.35156,-0.20573 0.72006,-0.46745 1.1055,-0.78516v-2.0156h-1.043v-0.76953h1.8672zM313.3497,187.8322v-0.63281h0.83203v0.63281h1.7852v0.60938h-1.7852v0.50781h2.2383v0.625h-0.88281c-0.08593,0.21354 -0.20052,0.44531 -0.34375,0.69531h1.0039v0.59375h-2.0156v0.44141h1.8086v0.5664h-1.8086v0.47266h2.2578v0.61719h-2.2578v0.78125h-0.83203v-0.78125h-2.1836v-0.61719h2.1836v-0.47266h-1.7422v-0.5664h1.7422v-0.44141h-1.9453v-0.59375h0.98437c-0.09375,-0.25261 -0.20312,-0.48438 -0.32812,-0.69531h-0.87891v-0.625h2.168v-0.50781h-1.7109v-0.60938zM314.67,189.5744h-1.7734c0.0078,0.013 0.02473,0.04685 0.0508,0.10156c0.09115,0.17969 0.17448,0.3776 0.25,0.59375h1.1562c0.13541,-0.25261 0.24088,-0.48438 0.3164,-0.69531zM310.3966,189.27752c-0.375,-0.625 -0.77213,-1.14453 -1.1914,-1.5586l0.65625,-0.47266c0.38021,0.35417 0.79167,0.85027 1.2344,1.4883z"/><path d="M317.37,188.93h1.7266c0.07813,-0.40104 0.16537,-0.89974 0.26172,-1.4961l0.0195,-0.11328l0.85547,0.1289c-0.08854,0.55209 -0.17969,1.04559 -0.27344,1.4805h0.61719c0.62239,0 1.06899,0.14063 1.3398,0.42188c0.24219,0.2526 0.36328,0.64583 0.36328,1.1797c0,0.89587 -0.09505,1.7357 -0.28515,2.5195c-0.10938,0.44271 -0.24219,0.76954 -0.39844,0.98047c-0.19792,0.26302 -0.47266,0.39453 -0.82422,0.39453c-0.41927,0 -0.87891,-0.13542 -1.3789,-0.40625l0.0977,-0.82421c0.49479,0.23697 0.87759,0.35546 1.1484,0.35546c0.14583,0 0.25651,-0.07682 0.33203,-0.23046c0.08333,-0.16927 0.16276,-0.41016 0.23828,-0.72266c0.14844,-0.63542 0.22266,-1.30599 0.22266,-2.0117c0,-0.36979 -0.07422,-0.60938 -0.22266,-0.71875c-0.12761,-0.09115 -0.35417,-0.13672 -0.67969,-0.13672h-0.74609c-0.41406,1.84373 -1.00779,3.41667 -1.7812,4.7188l-0.78516,-0.42969c0.79947,-1.34113 1.36977,-2.77083 1.7109,-4.2891h-1.5586zM323.7762,192.0667c-0.39323,-1.3672 -0.92057,-2.57033 -1.582,-3.6094l0.75,-0.38281c0.7448,1.19273 1.2995,2.40367 1.6641,3.6328z"/><path d="M330.16,189.02c-0.987,-0.4375 -2.09897,-0.77343 -3.3359,-1.0078l0.32812,-0.69531c1.2708,0.23698 2.3932,0.54557 3.3672,0.92578zM325.703,191.8833c0.10677,-1.2448 0.26693,-2.32943 0.48047,-3.2539l0.83985,0.15625c-0.19792,0.82293 -0.32553,1.59377 -0.38282,2.3125c0.37761,-0.28906 0.81251,-0.51953 1.3047,-0.69141c0.47135,-0.16667 0.91145,-0.25 1.3203,-0.25c0.61198,0 1.11198,0.11849 1.5,0.35547c0.51823,0.32031 0.77735,0.83335 0.77735,1.5391c0,0.69273 -0.23568,1.2292 -0.70703,1.6094c-0.65885,0.52604 -1.80469,0.8164 -3.4375,0.87109l-0.3125,-0.80859c1.09113,-0.00267 1.92187,-0.10423 2.4922,-0.30469c0.69013,-0.23958 1.0352,-0.69661 1.0352,-1.3711c0,-0.42709 -0.15234,-0.7448 -0.45703,-0.95313c-0.24219,-0.16667 -0.5599,-0.25 -0.95313,-0.25c-0.55989,0 -1.16146,0.18359 -1.8047,0.55078c-0.39323,0.22396 -0.7448,0.4961 -1.0547,0.81641z"/><path d="M333.71,190.13c-0.33854,-0.47656 -0.71614,-0.91536 -1.1328,-1.3164l0.48047,-0.5586c0.05467,0.05207 0.10935,0.10545 0.16406,0.16016l0.0508,0.0508c0.27865,-0.38802 0.54037,-0.82682 0.78516,-1.3164l0.70703,0.39063c-0.29167,0.46875 -0.63933,0.94401 -1.043,1.4258c0.21615,0.27083 0.36979,0.46875 0.46094,0.59375c0.39843,-0.48698 0.77083,-0.98828 1.1172,-1.5039l0.61719,0.44532c-0.58593,0.80727 -1.1979,1.53123 -1.8359,2.1719c0.51823,-0.03387 0.91927,-0.06643 1.2031,-0.0977c-0.06513,-0.19531 -0.14847,-0.40364 -0.25,-0.625l0.61719,-0.21484c0.24479,0.48437 0.45312,1.03254 0.625,1.6445l-0.67969,0.29688c-0.03647,-0.15365 -0.08074,-0.32813 -0.13281,-0.52344c-0.12761,0.02347 -0.33073,0.0547 -0.60938,0.0937l-0.11328,0.0156v3.5352h-0.76953v-3.4414c-0.34896,0.03907 -0.77083,0.07422 -1.2656,0.10547l-0.16015,-0.72656l0.26562,-0.008c0.11979,-0.00533 0.2461,-0.01053 0.37891,-0.0156c0.15625,-0.16927 0.32942,-0.36328 0.51953,-0.58203zM339.9209,188.4034v0.5703c0,2.52607 -0.10807,4.1771 -0.32422,4.9531c-0.08073,0.29948 -0.21094,0.50651 -0.39063,0.62109c-0.16145,0.10156 -0.38801,0.15234 -0.67968,0.15234c-0.35677,0 -0.75391,-0.02603 -1.1914,-0.0781l-0.16016,-0.85156c0.43229,0.08073 0.81643,0.12109 1.1524,0.12109c0.17187,0 0.28776,-0.03385 0.34765,-0.10156c0.21875,-0.24479 0.35938,-1.70313 0.42188,-4.375l0.008,-0.25h-1.9922c-0.18489,0.47135 -0.42708,0.89582 -0.72656,1.2734l-0.59375,-0.54688c0.48959,-0.70053 0.83595,-1.6159 1.0391,-2.7461l0.82422,0.14453c-0.09375,0.42187 -0.18619,0.79297 -0.27734,1.1133zM332.5928,193.8917c0.17709,-0.60677 0.28646,-1.28647 0.32813,-2.0391l0.73437,0.0859c-0.0234,0.90107 -0.13017,1.6641 -0.32031,2.2891zM335.3858,193.77842c-0.08854,-0.65365 -0.22526,-1.26431 -0.41015,-1.832l0.67187,-0.17578c0.21875,0.52343 0.38151,1.09243 0.48828,1.707zM337.6983,192.51672c-0.29948,-0.77607 -0.65755,-1.46487 -1.0742,-2.0664l0.67188,-0.42187c0.47135,0.65104 0.85025,1.31771 1.1367,2z"/><path d="M342.69,194.24v-5.5195c-0.55209,0.18489 -1.07292,0.32161 -1.5625,0.41016l-0.19141,-0.79297c0.82553,-0.20052 1.5026,-0.43229 2.0312,-0.69532h0.75v6.5977z"/><path d="M349.32,190.96c-0.08073,0.84893 -0.26433,1.53123 -0.55078,2.0469c-0.42969,0.77867 -1.16795,1.37633 -2.2148,1.793l-0.55078,-0.73047c0.72133,-0.21354 1.29163,-0.57681 1.7109,-1.0898c0.38802,-0.47396 0.625,-1.14713 0.71094,-2.0195h-1.3672v-0.5625c-0.28646,0.29427 -0.60677,0.57291 -0.96094,0.83593l-0.55859,-0.67578c1.1406,-0.78647 1.9518,-1.88543 2.4336,-3.2969l0.83203,0.29687c-0.35417,0.9844 -0.8685,1.8594 -1.543,2.625h4.4453c-0.77867,-0.737 -1.4271,-1.62503 -1.9453,-2.6641l0.79297,-0.32031c0.65105,1.32813 1.55208,2.34377 2.7031,3.0469l-0.51953,0.76953c-0.34896,-0.24739 -0.65365,-0.48828 -0.91407,-0.72265l-0.004,0.16015c-0.03127,1.3516 -0.09898,2.43103 -0.20313,3.2383c-0.05467,0.42708 -0.17706,0.70703 -0.36718,0.83984c-0.16927,0.11979 -0.46615,0.17969 -0.89063,0.17969c-0.32031,0 -0.71615,-0.01563 -1.1875,-0.0469l-0.16016,-0.82422c0.42709,0.05727 0.81382,0.0859 1.1602,0.0859c0.20313,0 0.33854,-0.02863 0.40625,-0.0859c0.06771,-0.05727 0.12109,-0.20831 0.16016,-0.45312c0.09635,-0.58073 0.15495,-1.38933 0.17578,-2.4258z"/><path d="M356.98,187.45v2.8828h-2.2227v4.4727h-0.83984v-7.3555zM354.7573,188.075v0.51172h1.4297v-0.51172zM354.7573,189.1609v0.54687h1.4297v-0.54687zM360.8862,187.45v6.4414c0,0.27865 -0.05208,0.48047 -0.15625,0.60547c-0.11719,0.14583 -0.35156,0.21875 -0.70313,0.21875c-0.21354,0 -0.46354,-0.0078 -0.75,-0.0234l-0.14453,-0.80078c0.26563,0.03127 0.4961,0.0469 0.69141,0.0469c0.10937,0 0.17578,-0.02343 0.19922,-0.0703c0.0156,-0.03127 0.0234,-0.08726 0.0234,-0.16797v-3.3672h-2.2812v-2.8828zM358.5659,188.075v0.51172h1.4805v-0.51172zM358.5659,189.1609v0.54687h1.4805v-0.54687zM359.04636,190.7859v3.0117h-2.582v0.42969h-0.77734v-3.4414zM356.46436,191.40309v0.55078h1.7969v-0.55078zM356.46436,192.54759v0.60937h1.7969v-0.60937z"/><path d="M365.79,193.61c1.52867,-0.38541 2.293,-1.26171 2.293,-2.6289c0,-0.59635 -0.15365,-1.10939 -0.46094,-1.5391c-0.34375,-0.48437 -0.86719,-0.79557 -1.5703,-0.93359c-0.15365,1.20833 -0.36328,2.19793 -0.62891,2.9688c-0.18229,0.53906 -0.40886,1.04816 -0.67969,1.5273c-0.39062,0.68227 -0.83462,1.0234 -1.332,1.0234c-0.36979,0 -0.69922,-0.16667 -0.98828,-0.5c-0.18489,-0.21094 -0.33463,-0.47005 -0.44922,-0.77734c-0.15104,-0.39844 -0.22656,-0.82684 -0.22656,-1.2852c0,-0.7422 0.20443,-1.4258 0.61328,-2.0508c0.41406,-0.63802 0.95183,-1.10155 1.6133,-1.3906c0.48177,-0.21093 1.01041,-0.3164 1.5859,-0.3164c0.89847,0 1.6615,0.24088 2.2891,0.72265c0.7708,0.59115 1.1562,1.42838 1.1562,2.5117c0,1.81513 -0.91797,2.96617 -2.7539,3.4531zM365.20406,188.4772c-0.46094,0.05207 -0.84634,0.17576 -1.1562,0.37109c-0.19791,0.12761 -0.39453,0.29688 -0.58984,0.50781c-0.54167,0.59896 -0.8125,1.29296 -0.8125,2.082c0,0.57552 0.11458,1.02605 0.34375,1.3516c0.14062,0.20052 0.27994,0.30078 0.41797,0.30078c0.1875,0 0.39844,-0.20703 0.63281,-0.62109c0.57291,-1.0078 0.96095,-2.33853 1.1641,-3.9922z"/><path d="M372.27,188.43c0.10938,0.16667 0.20443,0.32422 0.28516,0.47266l-0.78516,0.25391c-0.09895,-0.26042 -0.21614,-0.50261 -0.35156,-0.72657h-0.43359c-0.21615,0.29427 -0.45313,0.55599 -0.71094,0.78516l-0.65625,-0.48828c0.51563,-0.41407 0.91016,-0.9427 1.1836,-1.5859l0.83985,0.14453c-0.09375,0.20573 -0.17839,0.37631 -0.25391,0.51172h1.8164v0.63281zM375.5278,188.43c0.125,0.17188 0.22917,0.33204 0.3125,0.48047l-0.75,0.26172c-0.11459,-0.23177 -0.25651,-0.47917 -0.42578,-0.74219h-0.45313c-0.20052,0.32813 -0.40104,0.60287 -0.60156,0.82422l-0.64844,-0.43359c0.45052,-0.47657 0.77865,-1.03127 0.98438,-1.6641l0.80859,0.1289c-0.05987,0.15885 -0.13148,0.32943 -0.21484,0.51172h2.5586v0.63281zM371.2817,190.5003v-0.33204h-1.5781v-0.57421h1.5781v-0.39844h0.75391v0.39844h1.5664v0.57421h-1.5664v0.33204h1.3359v2.4062h-1.3359v0.375h1.6172v0.60937h-1.6172v0.90625h-0.75391v-0.90625h-1.6797v-0.60937h1.6797v-0.375h-1.3203v-2.4062zM371.3051,191.0042h-0.67187v0.4375h0.67187zM372.01213,191.0042v0.4375h0.67188v-0.4375zM371.3051,191.92217h-0.67187v0.45703h0.67187zM372.01213,191.92217v0.45703h0.67188v-0.45703zM374.62543,190.12917v3.5234c0,0.14844 0.03516,0.23568 0.10547,0.26172c0.08594,0.03127 0.33464,0.0469 0.7461,0.0469c0.44791,0 0.71093,-0.01823 0.78906,-0.0547c0.08073,-0.03907 0.13541,-0.14975 0.16406,-0.33204c0.02607,-0.16406 0.0404,-0.38671 0.043,-0.66796l0.82422,0.20703c-0.02867,0.48177 -0.06252,0.80338 -0.10156,0.96484c-0.07031,0.29687 -0.26042,0.48047 -0.57032,0.55078c-0.23437,0.05467 -0.61197,0.082 -1.1328,0.082c-0.71093,0 -1.15623,-0.03516 -1.3359,-0.10547c-0.21615,-0.08593 -0.32422,-0.3138 -0.32422,-0.68359v-4.4805h2.9375v2.6641c0,0.23177 -0.05208,0.39974 -0.15625,0.50391c-0.09895,0.09635 -0.27213,0.14453 -0.51953,0.14453c-0.32291,0 -0.63411,-0.02083 -0.93359,-0.0625l-0.12891,-0.74609c0.07292,0.0104 0.17058,0.02473 0.29297,0.043c0.17187,0.02607 0.32422,0.0391 0.45703,0.0391c0.09635,0 0.15365,-0.02603 0.17188,-0.0781c0.0104,-0.03387 0.0156,-0.08595 0.0156,-0.15625v-1.6641z"/><path d="M380.03,189.41v-0.97656h0.79297v0.97656h1.1641v-0.97656h0.79297v0.97656h0.89453v0.66406h-0.89453v1.0664h1.0898v0.67969h-1.0898v1.5664h-0.79297v-1.5664h-1.2344c-0.05207,0.32552 -0.14321,0.61458 -0.27344,0.86719c-0.16407,0.31771 -0.41797,0.59635 -0.76172,0.83593l-0.60547,-0.5664c0.43229,-0.26823 0.70703,-0.64713 0.82422,-1.1367h-0.98438v-0.67969h1.0742c0.00267,-0.06771 0.004,-0.13672 0.004,-0.20703v-0.85938h-0.91016v-0.66406zM381.987,190.07406h-1.1641v0.77735c0,0.07291 -0.00133,0.16927 -0.004,0.28906h1.168zM384.9011,187.50766v7.2812h-0.83984v-0.46485h-5.3203v0.47266h-0.83985v-7.2891zM378.7409,188.21078v5.3789h5.3203v-5.3789z"/><path d="M386.28,188.3h2.1055c0.23177,-0.36979 0.40756,-0.66796 0.52735,-0.89453l0.87109,0.125c-0.07813,0.14063 -0.21615,0.36979 -0.41406,0.6875l-0.0508,0.082h2.7539v0.76954h-3.2734c-0.34114,0.46875 -0.66666,0.87501 -0.97656,1.2188c0.49219,-0.29427 0.94142,-0.44141 1.3477,-0.44141c0.63021,0 1.04297,0.31641 1.2383,0.94922c0.66667,-0.22135 1.34637,-0.4401 2.0391,-0.65625l0.33594,0.75781l-0.13672,0.0391l-0.38672,0.10157c-0.7292,0.19791 -1.31253,0.36718 -1.75,0.50781c0.03127,0.33854 0.0534,0.77604 0.0664,1.3125l-0.85547,0.0469c-0.00267,-0.30989 -0.00787,-0.64583 -0.0156,-1.0078v-0.0781c-1.19793,0.40885 -1.7969,0.82032 -1.7969,1.2344c0,0.21354 0.15365,0.35937 0.46094,0.4375c0.29687,0.07552 0.82814,0.11328 1.5938,0.11328c0.70573,0 1.4466,-0.04036 2.2226,-0.12109l0.0937,0.83203c-0.7526,0.05727 -1.53253,0.0859 -2.3398,0.0859c-0.9948,0 -1.70183,-0.07552 -2.1211,-0.22657c-0.51823,-0.1875 -0.77735,-0.52473 -0.77735,-1.0117c0,-0.41146 0.18359,-0.77473 0.55078,-1.0898c0.38021,-0.32552 1.04948,-0.66145 2.0078,-1.0078c-0.05207,-0.20052 -0.12108,-0.34115 -0.20704,-0.42188c-0.09635,-0.09114 -0.22396,-0.13671 -0.38281,-0.13671c-0.25781,0 -0.58203,0.09765 -0.97265,0.29296c-0.48177,0.23959 -0.99871,0.60025 -1.5508,1.082l-0.51953,-0.59375c0.80987,-0.7526 1.444,-1.4922 1.9024,-2.2188h-1.5898z"/><path d="M250.96,202.9l-0.11719,-0.51172c0.17709,0.02607 0.34115,0.0391 0.49219,0.0391c0.07552,0 0.11979,-0.01953 0.13281,-0.0586c0.0104,-0.02607 0.0156,-0.07034 0.0156,-0.13281v-0.91797h-2.0469v-0.63281h2.0469v-0.55078h-1.0234v-0.27344c-0.27604,0.16146 -0.57161,0.3112 -0.88672,0.44922l-0.51562,-0.5625c0.59635,-0.22917 1.09765,-0.50781 1.5039,-0.83594c0.3125,-0.2526 0.60156,-0.55729 0.86719,-0.91406h0.84766c0.29687,0.36719 0.67577,0.68229 1.1367,0.94531c0.34114,0.19531 0.80467,0.40235 1.3906,0.6211l-0.46484,0.63281c-0.38802,-0.15104 -0.72395,-0.30078 -1.0078,-0.44922v0.38672h-1.0234v0.55078h2.1602v0.63281h-2.1602v1.1992c0,0.18229 -0.04427,0.31641 -0.13282,0.40234c-0.09114,0.08855 -0.2565,0.13282 -0.49609,0.13282c-0.07552,0 -0.16406,-0.00133 -0.26562,-0.004v0.35547h2.6953v0.65625h-2.6953v0.625h3.2695v0.69531h-7.3594v-0.69531h3.2227v-0.625h-2.6641v-0.65625h2.6641v-0.50391zM250.9248,199.5484h2.0547c-0.42187,-0.25521 -0.79817,-0.5664 -1.1289,-0.93359c-0.25261,0.34895 -0.5612,0.66015 -0.92579,0.93359zM248.956,199.4703c-0.37239,-0.34115 -0.77603,-0.63151 -1.2109,-0.8711l0.5039,-0.5625c0.51823,0.26823 0.9375,0.54297 1.2578,0.82422zM247.2841,202.3883c0.52344,-0.36719 1.08334,-0.87629 1.6797,-1.5273l0.42968,0.61719c-0.39323,0.49479 -0.91536,1.01953 -1.5664,1.5742zM253.8896,202.98205c-0.40625,-0.53125 -0.80079,-0.94271 -1.1836,-1.2344l0.59375,-0.41406c0.45313,0.34895 0.85806,0.72785 1.2148,1.1367zM248.4013,200.82975c-0.36459,-0.32552 -0.76692,-0.60807 -1.207,-0.84766l0.5039,-0.58593c0.41927,0.20833 0.82421,0.47526 1.2148,0.80078zM249.13958,202.53285c0.39843,-0.26303 0.7604,-0.63933 1.0859,-1.1289l0.625,0.35547c-0.35417,0.5651 -0.7435,1.0013 -1.168,1.3086z"/><path d="M258.22,201.58c-0.26042,0.48698 -0.52735,0.85288 -0.80078,1.0977c-0.23437,0.21093 -0.44922,0.3164 -0.64453,0.3164c-0.25,0 -0.45182,-0.16927 -0.60547,-0.50781c-0.15885,-0.35417 -0.23828,-0.90887 -0.23828,-1.6641c0,-0.7604 0.08854,-1.58463 0.26562,-2.4727l0.85547,0.12891c-0.17187,0.8802 -0.25781,1.625 -0.25781,2.2344c0,0.82033 0.05859,1.2305 0.17578,1.2305c0.04427,0 0.11979,-0.0625 0.22656,-0.1875c0.16667,-0.1875 0.34245,-0.46354 0.52735,-0.82812zM257.62625,204.6386c0.79947,-0.22395 1.40233,-0.55859 1.8086,-1.0039c0.4974,-0.54427 0.7461,-1.36721 0.7461,-2.4688c0,-0.83593 -0.08073,-1.77473 -0.24219,-2.8164l0.89453,-0.0859c0.17187,1.05207 0.25781,2.03253 0.25781,2.9414c0,1.47393 -0.3789,2.53513 -1.1367,3.1836c-0.46093,0.39583 -1.08203,0.72396 -1.8633,0.98438z"/><path d="M262.6,199.53c2.16407,-0.34115 3.6159,-0.51172 4.3555,-0.51172c0.82033,0 1.45707,0.1888 1.9102,0.5664c0.53646,0.44792 0.80469,1.11589 0.80469,2.0039c0,0.69273 -0.22396,1.2969 -0.67188,1.8125c-0.68227,0.78647 -2.082,1.26693 -4.1992,1.4414l-0.29687,-0.86329c1.42967,-0.11458 2.444,-0.31901 3.043,-0.61328c0.32031,-0.15885 0.58333,-0.36719 0.78906,-0.625c0.27865,-0.34895 0.41797,-0.75259 0.41797,-1.2109c0,-0.5625 -0.13021,-0.97787 -0.39063,-1.2461c-0.13281,-0.13541 -0.27734,-0.23698 -0.43359,-0.30469c-0.21875,-0.09635 -0.53125,-0.14453 -0.9375,-0.14453c-0.66406,0 -2.06639,0.18359 -4.207,0.55078z"/><path d="M275.36,200.01c-0.84633,-0.4401 -1.85807,-0.78907 -3.0352,-1.0469l0.35156,-0.72266c1.17707,0.22135 2.2018,0.56119 3.0742,1.0195zM272.7272,203.7131c0.3125,0.48177 0.65757,0.72266 1.0352,0.72266c0.4401,0 0.66015,-0.2487 0.66015,-0.7461c0,-0.36979 -0.11328,-0.83073 -0.33984,-1.3828c-0.23437,-0.56771 -0.53515,-1.06901 -0.90234,-1.5039l0.70703,-0.36718c0.49739,0.58593 0.87889,1.22527 1.1445,1.918c0.19531,0.51042 0.29297,0.97135 0.29297,1.3828c0,0.45573 -0.11328,0.81899 -0.33985,1.0898c-0.27083,0.32031 -0.66537,0.48047 -1.1836,0.48047c-0.60937,0 -1.10157,-0.30729 -1.4766,-0.92188zM270.4381,204.12326c0.51823,-0.85413 0.88149,-1.8867 1.0898,-3.0977l0.8125,0.26562c-0.2526,1.3932 -0.63933,2.48567 -1.1602,3.2774zM277.0123,204.43576c-0.29167,-1.20313 -0.70443,-2.29687 -1.2383,-3.2812l0.72656,-0.32032c0.59375,0.9844 1.03385,2.07033 1.3203,3.2578zM276.62167,199.77956c-0.16667,-0.42709 -0.42578,-0.89192 -0.77734,-1.3945l0.59375,-0.21484c0.30729,0.42448 0.56901,0.88021 0.78516,1.3672zM277.60605,199.43581c-0.18229,-0.47136 -0.4388,-0.93883 -0.76953,-1.4024l0.57031,-0.1914c0.29948,0.36458 0.55469,0.80728 0.76562,1.3281z"/><path d="M279.17,198.33h0.92187v4.6562c0,0.9818 0.51563,1.4727 1.5469,1.4727c0.67967,0 1.23697,-0.3138 1.6719,-0.94141c0.28125,-0.40364 0.53386,-1.02864 0.75782,-1.875l0.79296,0.48047c-0.26562,0.94013 -0.58463,1.64327 -0.95703,2.1094c-0.58593,0.72653 -1.34767,1.0898 -2.2852,1.0898c-0.9792,0 -1.6693,-0.30208 -2.0703,-0.90625c-0.2526,-0.3776 -0.3789,-0.86457 -0.3789,-1.4609z"/><path d="M288.8,198.18h0.86328v0.98438h2.457v0.74219h-2.457v0.92968h2.3203v0.73438h-2.3203v1.207c0.92707,0.3125 1.84113,0.78257 2.7422,1.4102l-0.46094,0.74218c-0.68227,-0.51041 -1.44267,-0.96095 -2.2812,-1.3516c-0.0208,0.44531 -0.10674,0.79038 -0.25781,1.0352c-0.26302,0.42448 -0.78125,0.63672 -1.5547,0.63672c-0.59635,0 -1.07552,-0.11198 -1.4375,-0.33594c-0.40365,-0.25 -0.60547,-0.58853 -0.60547,-1.0156c0,-0.51041 0.27214,-0.88801 0.81641,-1.1328c0.36458,-0.16146 0.83855,-0.24219 1.4219,-0.24219c0.22917,0 0.48047,0.01823 0.75391,0.0547v-1.0078h-2.7695v-0.73438h2.7695v-0.92968h-2.9375v-0.74219h2.9375zM288.8,203.305c-0.30989,-0.06507 -0.60677,-0.0976 -0.89062,-0.0976c-0.34636,0 -0.62761,0.05078 -0.84375,0.15234c-0.25781,0.12239 -0.38672,0.29687 -0.38672,0.52344c0,0.1901 0.10026,0.34375 0.30078,0.46094c0.20313,0.11979 0.47396,0.17968 0.8125,0.17968c0.40104,0 0.67708,-0.10677 0.82812,-0.32031c0.11979,-0.16667 0.17969,-0.41536 0.17969,-0.74609z"/><path d="M297.09,198.16h0.87891v1.0781h2.3047v0.75391h-2.3047v1.6719c0.09114,0.32031 0.13671,0.60547 0.13671,0.85547c0,0.92707 -0.20443,1.60807 -0.61328,2.043c-0.44531,0.47656 -1.11588,0.80599 -2.0117,0.98828l-0.44531,-0.66406c0.69533,-0.13281 1.21097,-0.32031 1.5469,-0.5625c0.3151,-0.22917 0.52734,-0.54037 0.63672,-0.9336c-0.27865,0.30469 -0.61068,0.45704 -0.9961,0.45704c-0.43229,0 -0.78256,-0.1224 -1.0508,-0.36719c-0.31511,-0.28907 -0.47266,-0.70833 -0.47266,-1.2578c0,-0.28907 0.06901,-0.56771 0.20704,-0.83594c0.09114,-0.17187 0.20312,-0.3151 0.33593,-0.42969c0.30729,-0.26041 0.67579,-0.39062 1.1055,-0.39062c0.27344,0 0.52084,0.0651 0.74219,0.19531v-0.76953h-3.8555v-0.75391h3.8555zM297.1212,202.2147v-0.14453c0,-0.16667 -0.03906,-0.3138 -0.11719,-0.4414c-0.14583,-0.23959 -0.35677,-0.35938 -0.63281,-0.35938c-0.14063,0 -0.27214,0.03906 -0.39453,0.11719c-0.28646,0.17969 -0.42969,0.45573 -0.42969,0.82812c0,0.23438 0.05208,0.4323 0.15625,0.59375c0.14583,0.22396 0.36068,0.33594 0.64453,0.33594c0.25781,0 0.46224,-0.11589 0.61328,-0.34766c0.10677,-0.16406 0.16016,-0.35807 0.16016,-0.58203z"/></g></g></g></svg>