<svg version="1.1" xmlns="http://www.w3.org/2000/svg" xmlns:xlink="http://www.w3.org/1999/xlink" width="80" height="80" viewBox="0,0,80,80"><g transform="translate(-200,-140)"><g data-paper-data="{&quot;isPaintingLayer&quot;:true}" fill-rule="nonzero" stroke="none" stroke-width="1" stroke-linecap="butt" stroke-linejoin="miter" stroke-miterlimit="10" stroke-dasharray="" stroke-dashoffset="0" style="mix-blend-mode: normal"><path d="M200,220v-80h80v80z" fill-opacity="0" fill="#000000"/><path d="M239.90635,157.28495c2.2343,0.0102 4.1985,0.5432 5.8887,1.5996c1.7067,1.024 3.02813,2.4743 3.9668,4.3516c0.97244,1.8179 1.4599,3.9314 1.4688,6.3359v0.06445c-0.0089,2.4053 -0.49638,4.5603 -1.4688,6.4629c-0.6333,1.2666 -1.44482,2.35449 -2.4277,3.2715c1.2225,0.8861 2.22532,1.9902 3.0039,3.3203c1.01358,1.7316 1.52094,3.6745 1.5312,5.8242v4.4805c-0.0102,2.1497 -0.5176,4.0926 -1.5312,5.8242c-1.024,1.7067 -2.4326,3.0717 -4.2246,4.0957c-1.7745,0.97181 -3.7809,1.4593 -6.0156,1.4688h-0.06445c-1.9797,-0.0088 -3.7937,-0.41112 -5.4395,-1.2129c-1.6213,-0.8107 -2.9645,-1.9419 -4.0312,-3.3926c-1.02398,-1.4506 -1.6639,-3.093 -1.9199,-4.9277l5.375,-1.0879c0.2134,1.8773 0.8751,3.28593 1.9844,4.2246c1.1461,0.89141 2.5039,1.3372 4.0723,1.3418c1.7303,-0.0094 3.1475,-0.6059 4.248,-1.791c1.15198,-1.2373 1.7285,-2.7727 1.7285,-4.6074v-4.3516c0,-1.8773 -0.5765,-3.4127 -1.7285,-4.6074c-1.1094,-1.1947 -2.5398,-1.793 -4.2891,-1.793h-4.0957v-5.0566h3.9043c1.6214,0 2.9448,-0.7033 3.9688,-2.1113c1.06126,-1.4008 1.5923,-3.203 1.5977,-5.4062c-0.0053,-2.1189 -0.5364,-3.8583 -1.5977,-5.2168c-1.016,-1.35469 -2.3276,-2.03632 -3.9316,-2.0469c-1.5243,0.0054 -2.8609,0.45128 -4.0059,1.3418c-1.15202,0.896 -1.83357,2.3046 -2.0469,4.2246l-5.377,-1.0879c0.256,-1.8773 0.8959,-3.5197 1.9199,-4.9277c1.0667,-1.4507 2.4337,-2.58193 4.0977,-3.3926c1.6454,-0.80162 3.4376,-1.2039 5.375,-1.2129z" fill="#ffffff"/></g></g></svg>