<svg version="1.1" xmlns="http://www.w3.org/2000/svg" xmlns:xlink="http://www.w3.org/1999/xlink" width="97.21598" height="202.44915" viewBox="0,0,97.21598,202.44915"><g transform="translate(-322.64785,-269.46995)"><g data-paper-data="{&quot;isPaintingLayer&quot;:true}" fill="none" fill-rule="evenodd" stroke="#d645ff" stroke-width="72" stroke-linecap="round" stroke-linejoin="round" stroke-miterlimit="4" stroke-dasharray="" stroke-dashoffset="0" style="mix-blend-mode: normal"><path d="M372.78559,305.46995l0.90985,4.12934l1.93969,3.88938l2.62958,1.12982l0.40993,6.78891l2.20965,4.64926l-0.09998,5.55911l0.95985,2.56959l0.43993,10.6183l0.52992,6.8889l1.14982,5.95905l-0.85986,9.75844l0.28995,5.74908l-0.79987,2.39962l-0.37994,5.58911l-1.07983,4.69925l0.71988,3.01952l-1.83971,4.3793l-0.24996,11.00824l-1.63974,2.72956l-0.99984,5.34914l-0.07999,3.23948l0.92985,3.41945l-1.2498,2.70957l-3.25948,2.60958l-1.8497,2.24964l-1.07983,-1.38978l-3.17949,1.52976l-3.38946,2.87954l-2.4696,0.17997l-2.74956,4.51928l0.36994,1.63974"/></g></g></svg>