<?xml version="1.0" encoding="UTF-8"?>
<svg width="480" height="360" version="1.1" viewBox="0 0 480 360" xmlns="http://www.w3.org/2000/svg">
 <g dominant-baseline="central" fill="#fff" aria-label="宮城県北部">
  <path d="m251 172.48h7.9785v4.3164h-2.1582v-2.6367h-13.701v2.6367h-2.1191v-4.3164h7.8613v-1.9824h2.1387zm5 3.2812v5.2734h-5.1855q-0.26368 0.9082-0.66407 1.7578h7.793v6.709h-2.2559v-1.0059h-11.367v1.0059h-2.2363v-6.709h5.8105q0.45899-1.2598 0.57618-1.7578h-4.5898v-5.2734zm-9.9219 1.582v2.0898h7.7441v-2.0898zm-1.7578 7.1094v2.3633h11.367v-2.3633z" dominant-baseline="central"/>
  <path d="m274.22 183.85q-0.80078-2.7246-1.1328-8.0859h-4.4824v2.4316h3.9355q-0.0586 4.7559-0.40039 6.4746-0.17578 0.84961-0.69336 1.1816-0.41015 0.26367-1.1719 0.26367-0.82032 0-1.3965-0.14648l-0.19531-1.7969q0.71289 0.11719 1.1523 0.11719 0.43946 0 0.56641-0.27344 0.23438-0.5664 0.38086-4.0234h-2.1777q-0.01 0.16602-0.01 0.45899-0.0391 3.5156-0.66406 5.8203-0.44922 1.6406-1.4356 3.125l-1.6602-1.2891q1.0742-1.6309 1.4648-3.8867 0.32226-1.8652 0.32226-4.5508v-5.791h6.377q-0.0488-1.2305-0.0586-3.3789h2.002q0.01 2.207 0.0586 3.3789h4.3848v1.8848h-4.2969l0.01 0.20508q0.18554 3.0371 0.61523 5.3613 0.9082-1.8262 1.4844-3.8476l1.8457 0.79101q-1.2109 3.2812-2.666 5.6934 0.56641 1.5625 1.1524 2.4121 0.2539 0.38086 0.33203 0.38086 0.17578 0 0.38086-2.1777l0.0391-0.41016 1.5234 0.97656q-0.20508 2.3145-0.43946 3.0469-0.36132 1.1426-1.1816 1.1426-1.3867 0-3.1348-3.418-1.5723 2.0508-3.4473 3.5156l-1.377-1.5234q1.8848-1.3672 3.2227-3.0371 0.35156-0.43946 0.77148-1.0254zm-11.494-8.6133v-4.8144h1.9824v4.8144h1.4356v1.9629h-1.4356v6.1133q0.63477-0.27344 1.25-0.57618l0.18555 1.8652q-2.207 1.3184-5.2539 2.4023l-0.64453-2.0605q1.377-0.41016 2.4805-0.83008v-6.9141h-2.1973v-1.9629zm14.473-1.416q-0.6836-1.4062-1.7578-2.5781l1.543-0.82031q1.1426 1.1719 1.8555 2.5z" dominant-baseline="central"/>
  <path d="m296.76 170.98v9.4629h-11.621v-9.4629zm-9.5215 1.543v1.2207h7.4023v-1.2207zm0 2.5977v1.2207h7.4023v-1.2207zm0 2.5976v1.2598h7.4023v-1.2598zm-3.9356 4.0234h16.191v1.6992h-8.0762v6.0644h-2.2168v-6.0644h-8.0371v-10.957h2.1387zm-2.5 5.8984q2.3242-1.0742 4.4434-3.6035l1.7969 1.0449q-2.0898 2.6465-4.6387 4.1602zm16.836 1.2598q-1.4941-1.8359-4.4922-3.8574l1.6797-1.1816q2.3535 1.3574 4.6191 3.5644z" dominant-baseline="central"/>
  <path d="m305.84 184.3q-2.6953 1.416-4.6973 2.168l-0.82031-2.1484q3.1348-1.0547 5.5176-2.1875v-4.375h-4.834v-2.0606h4.834v-5.1953h2.1777v19.004h-2.1777zm6.9434-7.6074q2.2754-1.1914 4.4141-3.0273l1.6211 1.6992q-2.8906 2.0508-6.0352 3.4961v7.3242q0 0.47852 0.3125 0.58594 0.33203 0.10742 1.5332 0.10742 1.582 0 1.9824-0.18555 0.2832-0.12695 0.39062-0.79101 0.14649-0.92774 0.21485-2.998l2.1875 0.67383q-0.0977 2.5293-0.3125 3.6328-0.24414 1.2305-1.2793 1.5918-0.98633 0.33203-3.2324 0.33203-2.6367 0-3.3203-0.43945-0.6543-0.42969-0.6543-1.6504v-16.543h2.1777z" dominant-baseline="central"/>
  <path d="m326.98 172.75h4.1797v1.8848h-1.377q-0.3711 1.4941-0.9961 3.1348h2.6074v1.8848h-10.898v-1.8848h2.3926q-0.39062-1.875-0.82031-3.1348h-1.2695v-1.8848h4.1406v-2.2559h2.041zm-2.9394 1.8848q0.49805 1.4551 0.77148 3.1348h1.9922l0.09766-0.27344q0.41992-1.1133 0.78125-2.5293l0.0879-0.33203zm6.0547 6.6602v7.998h-2.002v-0.95703h-4.2578v1.1621h-2.0606v-8.2031zm-6.2598 1.7969v3.3887h4.2578v-3.3887zm13.047-4.9316q1.1621 1.1035 1.8457 2.627 0.67383 1.5234 0.67383 3.0859 0 1.4453-0.53711 2.1289-0.55664 0.71289-1.8359 0.71289-1.0938 0-2.1191-0.15625l-0.47852-2.0801q1.1816 0.21485 1.9531 0.21485 0.58594 0 0.73242-0.27344 0.0977-0.19531 0.0977-0.78125 0-2.4121-1.4453-4.1602-0.38086-0.45898-0.95703-0.98633l0.11719-0.27343q1.0156-2.2949 1.582-4.7852h-2.5v16.064h-2.0215v-18.086h5.8789l1.084 0.99609q-0.98633 3.3594-2.0703 5.752z" dominant-baseline="central"/>
 </g>
</svg>
