<svg xmlns="http://www.w3.org/2000/svg" viewBox="0 0 400 400" version="1.1" height="400" width="400"><defs><radialGradient gradientUnits="userSpaceOnUse" gradientTransform="translate(-40,20)" r="200" cy="180" cx="240" id="a"><stop offset="0" stop-color="#686870"></stop><stop offset=".4" stop-color="#686870"></stop><stop offset=".55" stop-opacity=".5607843" stop-color="#686870"></stop><stop offset=".7" stop-opacity=".2509804" stop-color="#686870"></stop><stop offset=".85" stop-opacity=".05882353" stop-color="#686870"></stop><stop offset="1" stop-opacity="0" stop-color="#686870"></stop></radialGradient></defs><g stroke-miterlimit="10"><path style="mix-blend-mode:normal" stroke-width="0" fill="none" d="m0 400v-400h400v400z"></path><path style="mix-blend-mode:normal" opacity=".12" fill-rule="evenodd" fill="url(#a)" d="m0 200c0-110.46 89.543-200 200-200s200 89.543 200 200-89.543 200-200 200-200-89.543-200-200z"></path><path style="mix-blend-mode:normal" stroke-width="13" stroke="#525257" fill="#686870" d="m110.5 200c0-49.429 40.071-89.5 89.5-89.5s89.5 40.071 89.5 89.5-40.071 89.5-89.5 89.5-89.5-40.071-89.5-89.5z"></path></g><path style="font-feature-settings:normal;font-variant-alternates:normal;font-variant-caps:normal;font-variant-east-asian:normal;font-variant-ligatures:normal;font-variant-numeric:normal;font-variant-position:normal;font-variation-settings:normal;inline-size:0;isolation:auto;mix-blend-mode:normal;shape-margin:0;shape-padding:0;text-decoration-color:#000000;text-decoration-line:none;text-decoration-style:solid;text-indent:0;text-orientation:mixed;text-transform:none;white-space:normal" stop-color="#000000" shape-rendering="auto" image-rendering="auto" fill="#fff" color-rendering="auto" color="#000000" d="m200.1 144.45c-12.721 0-22.916 5.2164-30.238 15.479-7.0703 9.9265-10.557 23.332-10.557 40.133 0 16.172 3.2555 29.193 9.8555 38.988 7.317 10.891 17.689 16.437 30.752 16.438 14.544 0 25.664-6.7048 32.922-19.822l0.00195-0.00195c5.2281-9.3967 7.8086-21.277 7.8086-35.602 0-15.666-3.0423-28.382-9.2129-38.088l-0.00195-0.00195c-7.3517-11.603-17.923-17.521-31.33-17.521zm-0.1875 15.434h0.00196c6.508 0 11.489 3.4252 15.293 10.711 3.6376 7.0364 5.5078 16.862 5.5078 29.467 0 13.264-2.1612 23.424-6.3555 30.482-3.752 6.2945-8.4222 9.2598-14.322 9.2598-6.7432 0-11.865-3.6937-15.717-11.561l-0.00196-0.00195c-3.3602-6.9258-5.084-16.322-5.084-28.18 0-12.688 1.8935-22.554 5.5703-29.588v-0.00195l0.00195-0.00195c3.8042-7.2025 8.7263-10.586 15.105-10.586z"></path></svg>
