<?xml version="1.0" encoding="UTF-8"?>
<svg width="480" height="360" version="1.1" viewBox="0 0 480 360" xmlns="http://www.w3.org/2000/svg">
 <g dominant-baseline="central" fill="#fff" aria-label="根室地方中部">
  <path d="m256.35 184.4q1.3086 1.7871 3.4473 2.9102l-1.2207 1.9238q-2.3926-1.3867-3.7988-3.5449-1.5039-2.2949-2.1289-5.4199h-2.0117v6.4258q2.2558-0.66406 3.7793-1.2207l0.18555 1.8555q-2.8711 1.25-6.5918 2.1387l-0.67383-2.002q0.69336-0.12695 1.2988-0.26367v-16.006h9.4629v9.0625l1.3965 1.1914q-1.5918 1.7773-3.1445 2.9492zm-0.86914-1.5039q1.3965-1.3574 2.3242-2.627h-3.1934q0.33204 1.4746 0.86915 2.627zm0.5957-10h-5.4394v2.002h5.4394zm0 3.6035h-5.4394v2.1094h5.4394zm-12.559 4.248q-0.83984 2.4805-2.2558 4.8535l-1.1035-2.168q2.1973-3.0664 3.1445-6.8555h-2.7246v-1.9238h2.9394v-4.1602h2.041v4.1602h2.2949v1.9238h-2.2949v1.709q1.6699 1.2109 2.8906 2.627l-1.0742 1.8457q-0.87891-1.2109-1.8164-2.207v8.9453h-2.041z" dominant-baseline="central"/>
  <path d="m271.01 181.11v2.1875h6.6309v1.6797h-6.6309v2.1387h8.3203v1.7188h-18.662v-1.7188h8.1836v-2.1387h-6.4844v-1.6797h6.4844v-2.0703l-0.76172 0.0391q-2.0508 0.0977-5.4395 0.16602l-0.64453-1.7578 1.25-0.01h0.30274l1.0449-0.01q0.75195-0.86914 1.7578-2.4219h-2.5976v-1.6992h12.461v1.6992h-1.6602q1.6602 1.2305 3.8965 3.5644l-1.6797 1.2207q-0.55664-0.66406-1.123-1.25-0.74219 0.0586-1.1133 0.0977-1.4258 0.11719-3.5352 0.24414zm3.0078-3.877h-5.2246q-0.98633 1.3965-1.9238 2.3828l1.3184-0.0293q3.6035-0.0586 6.0645-0.20507-0.74219-0.67383-1.582-1.3672zm-3.0078-4.8145h7.8809v4.0137h-2.1387v-2.3535h-13.506v2.3535h-2.1387v-4.0137h7.7441v-1.9238h2.1582z" dominant-baseline="central"/>
  <path d="m290.23 178.41v7.7344q0 0.75195 0.64454 0.9082 0.66406 0.16602 3.0371 0.16602 2.3144 0 3.0566-0.23438 0.41992-0.13672 0.54687-0.76172 0.16602-0.8789 0.17578-2.0801l2.041 0.57618q-0.15625 2.8809-0.79102 3.6816-0.41992 0.52734-1.2695 0.625-1.3379 0.14648-4.541 0.14648-2.4805 0-3.252-0.13672-1.1621-0.19531-1.4746-1.0254-0.15625-0.43945-0.15625-1.1719v-7.7441l-1.8652 0.64453-0.45899-1.8945 2.3242-0.80078v-5.2637h1.9824v4.5801l2.0996-0.71289v-5.1465h1.9629v4.4629l3.2715-1.123 1.0254 0.625v7.3144q0 0.76172-0.36133 1.1328-0.41015 0.41015-1.377 0.41015-0.79102 0-1.6797-0.13672l-0.32226-1.8652q0.57617 0.14648 1.1719 0.14648 0.42969 0 0.52734-0.17578 0.0977-0.14648 0.0977-0.48828v-4.6191l-2.3535 0.82031v7.9004h-1.9629v-7.2266zm-7.1777-3.1934v-4.7168h2.0996v4.7168h1.8945v1.9824h-1.8945v6.2109q1.0254-0.35156 2.0312-0.73242l0.18555 1.8848q-3.1641 1.4453-6.4941 2.4219l-0.6836-2.0801q1.5039-0.39062 2.6367-0.74218 0.13672-0.0488 0.22461-0.0684v-6.8945h-2.4805v-1.9824z" dominant-baseline="central"/>
  <path d="m309.48 175.76q-0.0684 1.6309-0.19531 2.8711h7.8711q-0.14648 6.7774-0.76172 8.7988-0.3125 1.0156-1.1621 1.4062-0.66406 0.30273-1.9434 0.30273-1.3477 0-3.0566-0.20507l-0.38085-2.1973q2.2949 0.32227 3.2324 0.32227 0.79101 0 1.0059-0.44922 0.51757-1.0938 0.72265-6.0352h-5.8105q-0.32227 1.7578-0.90821 3.0469-1.6309 3.5644-5.4492 5.6543l-1.543-1.7188q3.8281-1.9922 5.0586-5.2246 0.82031-2.1582 1.0644-6.5723h-6.4648v-2.002h7.9785v-3.2617h2.2559v3.2617h8.2422v2.002z" dominant-baseline="central"/>
  <path d="m328.84 174.08v-3.584h2.1973v3.584h7.2461v10.332h-2.1582v-1.3574h-5.0879v6.4453h-2.1973v-6.4453h-4.9609v1.4648h-2.1582v-10.439zm-4.9609 2.002v4.9707h4.9609v-4.9707zm12.246 4.9707v-4.9707h-5.0879v4.9707z" dominant-baseline="central"/>
  <path d="m346.98 172.75h4.1797v1.8848h-1.377q-0.3711 1.4941-0.9961 3.1348h2.6074v1.8848h-10.898v-1.8848h2.3926q-0.39062-1.875-0.82031-3.1348h-1.2695v-1.8848h4.1406v-2.2559h2.041zm-2.9394 1.8848q0.49805 1.4551 0.77148 3.1348h1.9922l0.09766-0.27344q0.41992-1.1133 0.78125-2.5293l0.0879-0.33203zm6.0547 6.6602v7.998h-2.002v-0.95703h-4.2578v1.1621h-2.0606v-8.2031zm-6.2598 1.7969v3.3887h4.2578v-3.3887zm13.047-4.9316q1.1621 1.1035 1.8457 2.627 0.67383 1.5234 0.67383 3.0859 0 1.4453-0.53711 2.1289-0.55664 0.71289-1.8359 0.71289-1.0938 0-2.1191-0.15625l-0.47852-2.0801q1.1816 0.21485 1.9531 0.21485 0.58594 0 0.73242-0.27344 0.0977-0.19531 0.0977-0.78125 0-2.4121-1.4453-4.1602-0.38086-0.45898-0.95703-0.98633l0.11719-0.27343q1.0156-2.2949 1.582-4.7852h-2.5v16.064h-2.0215v-18.086h5.8789l1.084 0.99609q-0.98633 3.3594-2.0703 5.752z" dominant-baseline="central"/>
 </g>
</svg>
