<?xml version="1.0" encoding="UTF-8"?>
<svg width="480" height="360" version="1.1" viewBox="0 0 480 360" xmlns="http://www.w3.org/2000/svg">
 <g dominant-baseline="central" fill="#fff" aria-label="南米東部">
  <path d="m248.92 182.24h-4.043v-1.6016h1.9531q-0.43945-0.9961-0.99609-1.8555l1.7578-0.64453q0.76172 1.2793 1.2305 2.5h2.2949q0.57617-1.1816 1.0156-2.5391l1.9629 0.61524q-0.49805 1.0742-1.0547 1.9238h2.0996v1.6016h-4.1797v1.4258h4.4531v1.6602h-4.4531v3.6914h-2.041v-3.6914h-4.2871v-1.6602h4.2871zm2.0996-6.0156h7.4024v11.416q0 1.0059-0.53711 1.416-0.44922 0.35157-1.5137 0.35157-1.377 0-2.6562-0.14649l-0.47852-1.9629q1.709 0.20508 2.5586 0.20508 0.35156 0 0.41015-0.17578 0.0391-0.10742 0.0391-0.30274v-9.1016h-12.48v11.582h-2.1777v-13.281h7.2754v-1.7676h-8.3594v-1.8164h8.3594v-2.1387h2.1582v2.1387h8.4766v1.8164h-8.4766z" dominant-baseline="central"/>
  <path d="m271.91 179.4q2.8906 3.6426 7.7832 6.2012l-1.3574 2.0215q-4.375-2.5488-7.3047-6.5918v8.4668h-2.1973v-8.2812q-2.5879 4.1895-7.0215 6.7774l-1.3965-1.8359q2.7734-1.4258 4.668-3.2422 1.5137-1.4453 2.9297-3.5156h-7.1973v-1.9238h8.0176v-6.9824h2.1973v6.9824h8.1445v1.9238zm-7.4902-2.4707q-1.2305-2.6074-2.4609-4.3945l1.8359-1.0059q1.5039 1.9238 2.5586 4.3066zm8.7402-0.77148q1.4941-2.1875 2.6562-4.8438l2.0801 0.95703q-1.2012 2.4512-2.9004 4.7461z" dominant-baseline="central"/>
  <path d="m293.2 183.15q2.4219 2.1582 6.5234 3.4863l-1.2598 1.8359q-2.3633-0.83984-4.1211-2.0312-1.8164-1.2402-3.3496-3.0469v6.1035h-2.1191v-5.9961q-1.3574 1.9043-3.5059 3.418-1.6504 1.1621-3.5352 1.875l-1.3379-1.7188q3.0957-1.0254 5.166-2.7637 0.58594-0.48829 1.1914-1.1621h-4.6973v-7.998h6.7188v-1.3184h-8.0957v-1.7578h8.0957v-1.582h2.1191v1.582h8.2227v1.7578h-8.2227v1.3184h6.8457v7.998zm-4.3262-6.3574h-4.5996v1.582h4.5996zm2.1191 0v1.582h4.7266v-1.582zm-2.1191 3.1055h-4.5996v1.6113h4.5996zm2.1191 0v1.6113h4.7266v-1.6113z" dominant-baseline="central"/>
  <path d="m306.98 172.75h4.1797v1.8848h-1.377q-0.3711 1.4941-0.9961 3.1348h2.6074v1.8848h-10.898v-1.8848h2.3926q-0.39062-1.875-0.82031-3.1348h-1.2695v-1.8848h4.1406v-2.2559h2.041zm-2.9394 1.8848q0.49805 1.4551 0.77148 3.1348h1.9922l0.09766-0.27344q0.41992-1.1133 0.78125-2.5293l0.0879-0.33203zm6.0547 6.6602v7.998h-2.002v-0.95703h-4.2578v1.1621h-2.0606v-8.2031zm-6.2598 1.7969v3.3887h4.2578v-3.3887zm13.047-4.9316q1.1621 1.1035 1.8457 2.627 0.67383 1.5234 0.67383 3.0859 0 1.4453-0.53711 2.1289-0.55664 0.71289-1.8359 0.71289-1.0938 0-2.1191-0.15625l-0.47852-2.0801q1.1816 0.21485 1.9531 0.21485 0.58594 0 0.73242-0.27344 0.0977-0.19531 0.0977-0.78125 0-2.4121-1.4453-4.1602-0.38086-0.45898-0.95703-0.98633l0.11719-0.27343q1.0156-2.2949 1.582-4.7852h-2.5v16.064h-2.0215v-18.086h5.8789l1.084 0.99609q-0.98633 3.3594-2.0703 5.752z" dominant-baseline="central"/>
 </g>
</svg>
