<svg version="1.1" xmlns="http://www.w3.org/2000/svg" xmlns:xlink="http://www.w3.org/1999/xlink" width="83.12664" height="123.82507" viewBox="0,0,83.12664,123.82507"><g transform="translate(-365.07652,117.12075)"><g data-paper-data="{&quot;isPaintingLayer&quot;:true}" fill="#ff0000" fill-rule="evenodd" stroke="none" stroke-width="0" stroke-linecap="round" stroke-linejoin="round" stroke-miterlimit="10" stroke-dasharray="" stroke-dashoffset="0" style="mix-blend-mode: normal"><path d="M419.21433,-111.45098l0.55998,1.81993l-0.74997,4.09984l-0.51998,7.10972l-0.14999,4.66981l0.20999,0.68997l0.06,6.77973l0.38998,0.68997l0.13999,3.12987l0.53998,6.28975l0.88996,6.83973l1.04996,7.06972l1.10996,6.23975l0.79997,2.23991l1.17995,5.19979l1.76993,4.9198l0.44998,1.58994l0.56998,0.50998l0.65997,2.18991l0.95996,0.53998l-0.44998,1.04996h1.25995l0.27999,1.81993l1.21995,0.53998l0.91996,1.21995l1.02996,0.31999l1.87992,-0.45998l1.26995,-1.62993l0.98996,0.02l1.17995,2.71989l2.07992,1.08996l0.24999,0.99996l2.04992,1.64993l0.19999,1.25995l1.14995,0.91996l0.40998,0.91996l1.06996,0.53998l0.60998,0.96996l1.66993,1.10996l-0.84997,0.50998l-0.42998,1.19995l-1.74993,1.25995l-0.52998,-0.08l-1.57994,1.04996l-1.18995,-0.07l-0.67997,0.69997l-1.74993,0.43998l-1.38994,1.79993l0.02,3.22987l-1.74993,1.60994l-0.78997,0.04l-1.69993,1.73993l-2.3799,-0.71997l-0.79997,-1.23995l-2.66989,-1.72993l-1.43994,-0.16999l-1.17995,0.57998l-1.26995,-0.39998l-1.41994,1.44994l-2.03992,1.02996l-0.94996,-1.33995l-0.76997,1.87992l-0.75997,1.02996l-2.90988,1.85993l-0.46998,-1.00996l-1.43994,-0.90996l0.32999,-1.21995l-1.28995,-1.95992l-0.84997,-0.34999l-0.54998,0.74997l-1.14995,0.12999l-0.69997,1.03996l0.04,0.81997l-1.71993,0.91996l-1.26995,-0.63997l-0.22999,0.99996l-1.16995,0.12l-1.65993,1.68993l-0.54998,0.02l-0.76997,1.29995l-2.08992,1.34995l-2.5699,-0.26999l-1.77993,1.09996l-1.57994,0.12l-0.39998,0.74997l-1.44994,0.62997l-2.00992,1.27995l1.02996,2.5099l-0.59998,0.69997l-1.38994,0.45998l-1.37994,-0.06l-1.64993,1.87992l-1.33995,0.14999l-1.96992,1.38994l-0.43998,0.81997l-1.63993,0.30999l-1.45994,-0.62997l-1.12995,0.40998l-1.06996,-1.12995l-0.39998,-1.50994l-1.02996,-1.02996l-0.93996,-1.36995l0.70997,-1.72993l-0.04,-2.11992l-0.83997,-1.15995l1.35995,-1.33995l0.12999,-1.97992l0.96996,-2.07992l-0.56998,-1.20995l1.82993,0.43998l1.39994,-1.55994l-0.39998,-1.58994l0.37998,-0.36999l-1.05996,-2.3999l0.28999,-1.29995l-0.58998,-0.95996l0.37998,-2.82989l-1.29995,-0.47998l-2.08992,0.59998l-0.92996,-0.50998l-0.89996,1.16995l-1.37994,-0.78997l-2.65989,0.50998v-0.71997l1.51994,-0.52998l0.72997,-1.50994l-0.93996,-2.74989l1.39994,0.03l-0.28999,1.63993l1.95992,0.71997l0.69997,-1.28995l-0.28999,-2.82989l-0.71997,-0.51998l-1.69993,-2.77989l-1.96992,0.04l-1.83993,0.57998l0.18999,-1.49994l-1.93992,-3.86985l-0.92996,-0.68997l1.06996,-1.21995l0.45998,-2.6099l-0.04,-1.46994l-0.73997,-0.41998l0.40998,-1.20995l-0.46998,-0.81997l0.45998,-0.76997l1.37994,-0.55998l-0.05,-1.30995l0.74997,-1.53994l-0.73997,-1.44994l1.05996,-0.86997l1.78993,-0.14999l1.61994,1.16995l1.78993,0.32999l1.60994,-0.53998l0.46998,-2.4099l0.84997,-1.16995l0.27999,-2.5299l0.58998,-0.60998l-0.68997,-1.03996l-1.67993,-1.69993l-2.3999,-0.37998l-0.28999,-0.66997l-1.64993,-0.32999l-0.85997,-1.20995l0.92996,-2.4699l0.97996,-0.60998l1.91992,0.28999l1.38994,-0.79997l0.76997,-0.94996l-0.29999,-0.95996l1.74993,-1.53994l0.49998,-1.91992l1.54994,-1.15995l2.05992,-0.63997l0.33999,-0.80997l-0.19999,-1.47994l2.12991,-0.42998l0.67997,-1.52994l-0.45998,-1.70993l0.53998,-1.60994l2.97988,-1.17995l0.72997,-0.02l1.91992,1.80993l2.87988,-0.02l1.66993,-0.87996l2.79989,-3.15987l1.27995,-1.93992l1.31995,-2.5599l1.68993,-4.13983l0.92996,-3.05988l0.83997,-4.01984l0.53998,-5.27979l-0.07,-2.85989l0.50998,-0.79997l-0.07,-2.03992l0.83997,-2.11992l1.73993,-1.87992l0.39998,-2.10992l0.92996,-0.81997l2.4999,0.68997l1.23995,-0.31999l0.44998,2.4599l0.63997,1.60994l-0.86997,0.88996l0.97996,1.05996l1.25995,0.30999l2.08992,-0.74997l0.89996,-1.68993l1.82993,-1.00996l-0.29999,2.4199M412.73458,-76.81237l-1.25995,0.68997l-0.76997,2.13991l-0.96996,1.31995l-0.06,1.38994l1.19995,4.13983l0.71997,0.73997l0.13999,1.34995l0.84997,1.34995l-1.00996,0.57998l-2.70989,-0.28999l-1.23995,1.26995l0.58998,1.65993l1.38994,1.48994l0.85997,0.12999l1.56994,-1.15995l1.03996,-0.19999l1.46994,0.84997l1.22995,-1.99992l0.12,-2.65989l-0.44998,-2.5099l-0.61998,-0.40998l-0.1,-3.43986l1.11996,-1.58994l0.91996,-2.64989l-1.16995,-1.13995l-1.72993,0.29999l-1.09996,-1.35995l-0.03,0.01"/></g></g></svg>