<?xml version="1.0" encoding="UTF-8"?>
<svg width="480" height="360" version="1.1" viewBox="0 0 480 360" xmlns="http://www.w3.org/2000/svg">
 <g dominant-baseline="central" fill="#fff" aria-label="鹿児島湾">
  <path d="m245.19 187.08v-5.8398h2.041v1.6406h3.7012v1.6797h-3.7012v2.2168q2.4024-0.39062 3.8184-0.71289l0.0586 1.6406q-3.2227 0.91797-7.2949 1.4941l-0.5664-1.875q1.0449-0.11719 1.9434-0.24414zm5.9277-14.961h7.8516v1.6797h-5.5664v1.7188h4.8633v5.127h-14.58q-0.0586 3.0859-0.3125 4.8144-0.32227 2.207-1.2891 4.0234l-1.7969-1.4551q0.91797-1.8066 1.1719-4.2969 0.18554-1.8262 0.18554-4.9121v-6.6992h7.3047v-1.6211h2.168zm-7.4121 1.6797v1.7188h2.9004v-1.7188zm0 3.2812v2.002h2.9004v-2.002zm12.5 2.002v-2.002h-2.8027v2.002zm-7.5976-5.2832v1.7188h2.793v-1.7188zm0 3.2812v2.002h2.793v-2.002zm5.0976 6.2012q2.1191-0.72266 3.6621-1.6797l1.2988 1.582q-2.1973 1.0742-4.9609 1.8262v1.4844q0 0.58594 0.36133 0.68359 0.30273 0.0879 1.4356 0.0879 1.3574 0 1.5918-0.2832 0.21485-0.2539 0.3125-1.7383l0.0195-0.30273 2.002 0.53711q-0.0195 0.12695-0.0586 0.72265-0.14648 1.9043-0.84961 2.4609-0.69335 0.55664-3.4863 0.55664-1.9727 0-2.627-0.29297-0.72265-0.33203-0.72265-1.4258v-6.2598h2.0215z" dominant-baseline="central"/>
  <path d="m277.58 171.07v9.7266h-10.117v-9.7266zm-7.998 1.7578v2.2266h5.8594v-2.2266zm0 3.9062v2.3438h5.8594v-2.3438zm-6.9629-6.0449h2.2559v10.84h-2.2559zm-2.0606 17.041q2.5293-0.2539 4.1113-1.4355 1.084-0.81055 1.4453-2.1973 0.20508-0.80078 0.2832-2.3438h2.1582q-0.0293 3.6621-1.5918 5.4199-1.5234 1.709-5.1074 2.4414zm10.547-6.0352h2.1973v4.834q0 0.50782 0.32227 0.60547 0.34179 0.10742 1.3672 0.10742 1.1035 0 1.4746-0.11718 0.39063-0.12696 0.50782-0.77149 0.13671-0.66406 0.16601-2.041l2.2266 0.64453q-0.0391 0.37109-0.11718 1.3379-0.17578 2.0312-0.90821 2.5391-0.41015 0.27344-1.1816 0.3418-1.0644 0.0879-2.6074 0.0879-2.1387 0-2.793-0.38086-0.65429-0.39063-0.65429-1.5332z" dominant-baseline="central"/>
  <path d="m287.74 171.98q0.36133-0.86914 0.58594-1.6602l2.3828 0.32226q-0.3418 0.81055-0.625 1.3379h6.5039v6.3672h-11.797v0.98633h14.697v1.582h-14.697v0.99609h14.014q-0.12695 4.4727-0.5664 6.0352-0.28321 0.99609-1.0645 1.3184-0.55664 0.23437-1.6992 0.23437-1.1719 0-2.1875-0.14648l-0.39063-1.6406h-9.7852v1.084h-2.0996v-4.6973h2.0996v2.0117h3.3594v-2.6367h-3.8379v-11.494zm4.1504 14.131v-2.0117h2.0215v3.3984q0.81054 0.0781 1.3476 0.0781 0.66406 0 0.83008-0.38085 0.32227-0.7129 0.50781-3.7207h-8.0273v2.6367zm-7.0996-12.627v0.96679h9.6387v-0.96679zm0 2.3633v1.0644h9.6387v-1.0644z" dominant-baseline="central"/>
  <path d="m315.09 173.8v3.7793q0 0.64454-0.27344 0.94727-0.32226 0.35156-1.4258 0.35156-1.0547 0-1.7285-0.11718l-0.25391-1.6211q0.77148 0.15625 1.2988 0.15625 0.2832 0 0.36133-0.13672 0.0586-0.11718 0.0586-0.38086v-2.9785h-1.7383q-0.0781 2.0605-0.54688 3.1641-0.51757 1.2012-2.1387 2.1973l-1.3965-1.2402q1.4648-0.76172 1.8848-1.9629 0.25391-0.75195 0.3125-2.1582h-3.8574v-1.6602h5.5566v-1.6406h2.1484v1.6406h6.1328v1.6602zm3.0176 5.5371v3.9648h-9.6387q-0.0781 0.53711-0.18555 1.0742h10.664q-0.24414 2.6856-0.67383 3.6816-0.625 1.4453-2.9297 1.4453-1.9141 0-4.1113-0.16601l-0.36133-1.7774q2.0996 0.22461 3.7598 0.22461 0.89843 0 1.1816-0.20508 0.43945-0.32226 0.68359-1.6797h-8.5938q-0.10742 0.40039-0.37109 1.2012l-2.0996-0.41992q0.74218-2.2266 1.1133-4.8145h9.4238v-1.0449h-10v-1.4844zm-14.365-4.3164q-1.084-1.5039-2.7734-2.9785l1.4551-1.3867q1.5332 1.123 2.8809 2.8613zm-0.5957 5.0391q-1.5039-1.9043-2.9199-3.1055l1.4648-1.416q1.4648 1.123 3.0176 2.9004zm-2.5195 7.9004q1.7188-2.6758 3.2617-6.8652l1.6016 1.1816q-1.2793 3.877-3.0664 7.2461zm17.402-9.3652q-1.2793-2.0703-2.6855-3.5742l1.4844-0.95703q1.7188 1.5625 2.7832 3.418zm-13.662-1.1719q1.4258-1.1719 2.3438-3.1055l1.7774 0.66406q-0.95703 2.1777-2.6465 3.6328z" dominant-baseline="central"/>
 </g>
</svg>
