<svg version="1.1" xmlns="http://www.w3.org/2000/svg" xmlns:xlink="http://www.w3.org/1999/xlink" width="35.58857" height="35.04863" viewBox="0,0,35.58857,35.04863"><g transform="translate(-572.25165,-43.69187)"><g data-paper-data="{&quot;isPaintingLayer&quot;:true}" fill="#ff0000" fill-rule="evenodd" stroke="none" stroke-width="0" stroke-linecap="round" stroke-linejoin="round" stroke-miterlimit="10" stroke-dasharray="" stroke-dashoffset="0" style="mix-blend-mode: normal"><path d="M605.9203,52.62154l-0.08,2.5799l1.74993,1.90992l0.24999,1.25995l-1.00996,1.50994l-2.21991,0.84997l0.1,2.75989l-0.38998,1.35995l-1.19995,0.78997l-1.34995,-0.06l-2.34991,-0.59998l-2.63989,0.43998l-0.66997,0.49998l0.08,1.24995l-1.48994,-0.12999l-1.11996,-1.85993l1.62993,-1.28995l-0.38998,-0.39998l-1.56994,1.23995l-1.14995,-0.76997l-0.09,1.90992l-0.77997,0.28999l-0.19999,3.49986l-0.28999,0.39998l0.01,1.72993l1.07996,2.98988l1.23995,-0.56998l1.43994,-0.18999l2.3799,3.86985l-1.42994,0.84997l-1.83993,-0.28999l-1.99992,-1.23995l-3.03988,0.13999l-0.87996,0.66997l-1.15995,0.21999l-0.72997,-1.12995l0.46998,-0.96996l-1.34995,-0.48998l-1.31995,-1.07996l-0.70997,-2.28991l-1.24995,-0.60998l-2.5599,-2.15991l-1.89992,-1.05996l-2.19991,-0.31999l0.32999,-0.99996l-0.89996,-1.76993l0.75997,-0.60998l0.02,-1.16995l-0.45998,-1.09996v-2.13991l0.58998,-0.28999l-0.32999,-1.31995l0.51998,-1.30995l-2.14991,-1.71993l-0.83997,-0.27999l0.37998,-1.53994l-0.04,-2.17991l-0.61998,-1.19995l1.93992,-1.17995l0.65997,-0.89996l1.55994,0.42998l1.85993,0.99996l0.14999,-1.70993l1.48994,-1.48994l0.12,-0.59998l1.27995,-0.30999l4.27983,0.12l1.29995,0.88996l2.4699,0.24999l0.38998,1.16995l1.71993,-0.77997l0.57998,-1.29995l-0.99996,-1.56994l2.09992,-0.82997l0.73997,1.05996l1.31995,0.36999l2.08992,-0.37998l1.27995,1.84993l1.18995,-0.91996l1.45994,1.06996l1.81993,-0.63997l0.57998,0.42998l-0.52998,1.01996l0.58998,0.53998l1.65993,-0.18999l-1.42994,1.86993l0.44998,1.24995l1.54994,1.59994"/><path d="M594.22077,73.22072l-2.70989,0.01l-0.65997,-1.47994l-0.02,-1.42994l0.58998,-2.08992l0.84997,1.10996l1.49994,2.72989l0.44998,1.14995"/><path d="M597.22065,73.02072l-1.99992,-1.71993l2.68989,-1.79993l0.62997,1.19995l0.55998,1.06996l-1.87992,1.24995"/><path d="M594.62076,70.12084l-1.90992,-2.93988l0.89996,-1.26995l0.43998,1.49994l1.15995,1.75993l-0.58998,0.94996"/><path d="M595.82071,69.52087l1.09996,-0.80997l0.87996,0.57998l-2.67989,1.78993l0.69997,-1.55994"/><path d="M598.5206,66.62098l1.41994,-0.06l-0.13999,2.08992l-1.12995,-0.68997l-0.14999,-1.33995"/><path d="M591.32089,66.52099l0.39998,-0.34999l0.16999,1.77993l-0.65997,0.04l0.09,-1.46994"/></g></g></svg>