<svg version="1.1" xmlns="http://www.w3.org/2000/svg" xmlns:xlink="http://www.w3.org/1999/xlink" width="208" height="32" viewBox="0,0,208,32"><g transform="translate(-240,-164)"><g data-paper-data="{&quot;isPaintingLayer&quot;:true}" fill-rule="nonzero" stroke="none" stroke-linecap="butt" stroke-linejoin="miter" stroke-miterlimit="10" stroke-dasharray="" stroke-dashoffset="0" style="mix-blend-mode: normal"><path d="M240,196v-32h208v32z" fill="none" stroke-width="0"/><path d="M254.23,185.08c1.3086,0.92447 3.0892,1.67967 5.3418,2.2656l-1.3574,1.8555c-2.95573,-0.83333 -5.29623,-2.20703 -7.0215,-4.1211c-1.02867,-1.1328 -1.7904,-2.42513 -2.2852,-3.877h-2.7539v5.6738c1.6732,-0.30599 3.4473,-0.70962 5.3223,-1.2109l0.13672,1.8555c-3.07293,0.87893 -6.1198,1.5658 -9.1406,2.0606l-0.69336,-2.0215c1.02867,-0.13021 1.74807,-0.22786 2.1582,-0.29297v-6.0644h-3.4375v-1.6602h3.4375v-8.4082h13.496v1.6406h-11.279v1.1621h10.381v1.582h-10.381v1.1816h10.381v1.543h-10.381v1.2988h13.34v1.6602h-2.666l1.543,1.3379c-1.237,0.89193 -2.6172,1.7383 -4.1406,2.5391zM252.8238,183.9277c1.50387,-0.93747 2.76363,-1.84567 3.7793,-2.7246h-5.6934c0.4362,1.00913 1.07423,1.91733 1.9141,2.7246z" fill="#ffffff" stroke-width="1"/><path d="M277.82,179.78v7.8809c0,0.58594 -0.10742,1.01564 -0.32227,1.2891c-0.26042,0.32552 -0.81055,0.48828 -1.6504,0.48828c-0.80727,0 -1.65687,-0.04557 -2.5488,-0.13672l-0.40039,-1.9434c0.931,0.16276 1.70247,0.24414 2.3144,0.24414c0.27344,0 0.44271,-0.05208 0.50782,-0.15625c0.05207,-0.08464 0.0781,-0.2474 0.0781,-0.48829v-7.1777h-8.1738v6.1621h-5.1465v1.6602h-1.7188v-13.682h1.6406v10.156h0.95703v-13.359h1.6992v13.359h1.0059v-10.156h1.5625v4.1016h11.934v1.7578zM273.8747,174.1062c1.582,0.65104 3.19007,1.44204 4.8242,2.373l-1.2793,1.4551c-1.2044,-0.79427 -2.61717,-1.61457 -4.2383,-2.4609c-0.8724,1.21093 -2.22007,2.04753 -4.043,2.5098l-1.0352,-1.5234c1.95313,-0.42969 3.20963,-1.24999 3.7695,-2.4609h-3.8574v-1.6992h4.1016v-1.7969h1.9434v1.7969h4.6777v1.6992h-4.8242c-0.00667,0.03253 -0.0197,0.06834 -0.0391,0.10742zM274.59736,181.1668v5.2344h-4.1797v0.9375h-1.7773v-6.1719zM270.37856,182.7684v2.0312h2.5586v-2.0312z" fill="#ffffff" stroke-width="1"/><path d="M296.76,170.98v9.4629h-11.621v-9.4629zM287.2385,172.523v1.2207h7.4023v-1.2207zM287.2385,175.1207v1.2207h7.4023v-1.2207zM287.2385,177.7183v1.2598h7.4023v-1.2598zM283.3029,181.7417h16.191v1.6992h-8.0762v6.0644h-2.2168v-6.0644h-8.0371v-10.957h2.1387zM280.8029,187.6401c1.54947,-0.71613 3.0306,-1.9173 4.4434,-3.6035l1.7969,1.0449c-1.3932,1.76433 -2.93943,3.15107 -4.6387,4.1602zM297.6389,188.8999c-0.99607,-1.22393 -2.49347,-2.50973 -4.4922,-3.8574l1.6797,-1.1816c1.569,0.90493 3.1087,2.09307 4.6191,3.5644z" fill="#ffffff" stroke-width="1"/><path d="M305.84,184.3c-1.79687,0.944 -3.36263,1.66667 -4.6973,2.168l-0.82031,-2.1484c2.08987,-0.70313 3.92907,-1.4323 5.5176,-2.1875v-4.375h-4.834v-2.0606h4.834v-5.1953h2.1777v19.004h-2.1777zM312.7834,176.6926c1.51693,-0.79427 2.9883,-1.80337 4.4141,-3.0273l1.6211,1.6992c-1.92707,1.3672 -3.9388,2.53257 -6.0352,3.4961v7.3242c0,0.31901 0.10417,0.51433 0.3125,0.58594c0.22135,0.07161 0.73242,0.10742 1.5332,0.10742c1.05467,0 1.71547,-0.06185 1.9824,-0.18555c0.1888,-0.08463 0.31901,-0.3483 0.39062,-0.79101c0.09766,-0.61849 0.16928,-1.61783 0.21485,-2.998l2.1875,0.67383c-0.06513,1.6862 -0.1693,2.89713 -0.3125,3.6328c-0.16276,0.82033 -0.58919,1.35093 -1.2793,1.5918c-0.65755,0.22135 -1.73502,0.33203 -3.2324,0.33203c-1.7578,0 -2.86457,-0.14648 -3.3203,-0.43945c-0.4362,-0.28646 -0.6543,-0.83659 -0.6543,-1.6504v-16.543h2.1777z" fill="#ffffff" stroke-width="1"/><path d="M326.98,172.75h4.1797v1.8848h-1.377c-0.2474,0.99607 -0.57943,2.041 -0.9961,3.1348h2.6074v1.8848h-10.898v-1.8848h2.3926c-0.26041,-1.25 -0.53385,-2.29493 -0.82031,-3.1348h-1.2695v-1.8848h4.1406v-2.2559h2.041zM324.0406,174.6348c0.33203,0.97007 0.58919,2.015 0.77148,3.1348h1.9922l0.09766,-0.27344c0.27995,-0.7422 0.54036,-1.5853 0.78125,-2.5293l0.0879,-0.33203zM330.0953,181.295v7.998h-2.002v-0.95703h-4.2578v1.1621h-2.0606v-8.2031zM323.8355,183.0919v3.3887h4.2578v-3.3887zM336.8825,178.1603c0.77473,0.73567 1.38997,1.61133 1.8457,2.627c0.44922,1.0156 0.67383,2.04423 0.67383,3.0859c0,0.96353 -0.17904,1.67317 -0.53711,2.1289c-0.37109,0.47526 -0.98306,0.71289 -1.8359,0.71289c-0.7292,0 -1.43557,-0.05208 -2.1191,-0.15625l-0.47852,-2.0801c0.78773,0.14323 1.43877,0.21485 1.9531,0.21485c0.39063,0 0.63477,-0.09115 0.73242,-0.27344c0.06513,-0.13021 0.0977,-0.39062 0.0977,-0.78125c0,-1.60807 -0.48177,-2.9948 -1.4453,-4.1602c-0.25391,-0.30599 -0.57292,-0.63476 -0.95703,-0.98633l0.11719,-0.27343c0.67707,-1.52993 1.2044,-3.125 1.582,-4.7852h-2.5v16.064h-2.0215v-18.086h5.8789l1.084,0.99609c-0.65755,2.2396 -1.34765,4.15693 -2.0703,5.752z" fill="#ffffff" stroke-width="1"/></g></g></svg>