<svg version="1.1" xmlns="http://www.w3.org/2000/svg" xmlns:xlink="http://www.w3.org/1999/xlink" width="71.48717" height="57.8727" viewBox="0,0,71.48717,57.8727"><g transform="translate(23.61624,-84.03598)"><g data-paper-data="{&quot;isPaintingLayer&quot;:true}" fill="#ff0000" fill-rule="evenodd" stroke="none" stroke-width="0" stroke-linecap="round" stroke-linejoin="round" stroke-miterlimit="10" stroke-dasharray="" stroke-dashoffset="0" style="mix-blend-mode: normal"><path d="M38.8113,103.89419l-0.04,0.89596l1.29994,0.90897l-0.27998,2.3889l1.28994,0.83397l1.57994,0.31198h2.29991l0.94997,1.49094l-1.16996,2.5379l2.13991,3.62086l0.79997,0.48298l0.18999,1.25695l-1.20995,0.47498l-0.58998,1.07996l0.47998,1.59493l-0.71998,0.28799l-2.23991,2.66889l-0.13999,1.19696l0.37998,1.62394l-0.41998,0.44698l-1.95992,0.08499l-0.23999,1.36095l0.90996,0.73098l-0.36999,2.3769l-0.06999,3.51386l1.69993,2.62789l0.49998,1.79693l0.88996,-0.70697l2.94988,-0.84597l-0.22999,1.57094l-1.18995,0.16499l-1.16996,0.95196l-3.93984,-0.79197l-2.2799,0.24499l-1.88993,-0.60197l-1.77993,0.72297l-1.02996,-1.41494l-1.26995,-0.23999l-2.5399,2.29291l-1.14995,0.071l-0.85997,-0.64797l-2.16992,0.082l-1.48994,-0.87097l-0.41998,-0.99696l-2.5299,-1.40994l-1.05996,-1.13495l-2.15991,-0.76497l-1.55994,0.49498l-0.76997,0.93796l-1.00996,-2.10992l-1.13995,-0.48098v-0.96796l1.44994,-0.52098l0.10999,-1.34494l-1.76993,-2.77089l-0.86997,0.36698l-1.46994,-0.43699l-2.68989,0.203l-2.90989,1.48694l-2.3299,-1.11396l-0.88996,-0.84497l-1.55994,-0.74297l-1.02996,0.052l-1.78993,-0.90397l-2.26991,-0.09299l-1.97992,-0.53898l-0.11999,-0.89497l-2.16992,1.13095l-1.04996,0.16199l-2.5299,-0.46298l-1.12995,0.10499l-3.97984,1.78293l-1.55994,0.20399l-1.36995,2.03392l-1.47994,0.73197l-2.3099,-0.79897l1.31994,-0.16499l2.05992,-0.81697l1.43994,-1.45494l3.31986,-2.28791l0.85996,0.32099l0.24,-1.33395l1.49994,-1.03695l1.46994,0.50698l1.68993,-0.48498l2.93989,1.85592l1.11995,-1.44294l-0.96996,-4.01684l0.38998,-1.44394l1.19995,0.53398l0.85997,-0.43198l2.19991,1.36595l0.68998,1.89992l1.27994,1.90393l0.61998,0.25998l0.81996,-2.78688l-0.46998,-1.13295l1.59993,-0.82797l1.74993,-1.49095l0.21999,-1.99692l-0.92996,-1.52094l1.63993,-1.08496l1.68994,0.31199l-0.07,-1.42695l2.86989,-0.61697l-0.01999,-1.63493l0.76996,-1.48194l0.04,-1.36395l1.14995,-1.39294l1.80993,-0.68197l0.40998,-0.98696l-1.85993,-3.42986l0.77997,-1.30495l-0.42999,-1.08196l0.99996,-0.29998l0.61997,-1.56194l1.82993,-0.24799l1.16995,-0.68397l-0.03,-2.7319l1.77993,-2.23791l1.86993,0.20799l1.83992,0.59897l0.97996,-1.74293l1.51994,0.28599l0.90996,-0.26099l0.89996,0.89896l1.15996,-0.038l0.23999,-1.35494l1.07996,-1.30595l0.75997,-1.71193l-0.15999,-1.93392l0.62998,-0.47198l2.88988,0.50398l0.30999,0.72897l-0.94997,1.40094l0.23999,2.03892l1.10996,2.4009l0.24999,1.56694l0.80997,1.23195l-0.73997,1.65893l0.97996,1.30494l0.75997,3.07388l1.70993,2.06791l0.95997,1.87993"/></g></g></svg>