<svg version="1.1" xmlns="http://www.w3.org/2000/svg" xmlns:xlink="http://www.w3.org/1999/xlink" width="73.85701" height="69.24725" viewBox="0,0,73.85701,69.24725"><g transform="translate(-321.20487,119.84451)"><g data-paper-data="{&quot;isPaintingLayer&quot;:true}" fill="#ff0000" fill-rule="evenodd" stroke="none" stroke-width="0" stroke-linecap="round" stroke-linejoin="round" stroke-miterlimit="10" stroke-dasharray="" stroke-dashoffset="0" style="mix-blend-mode: normal"><path d="M360.35322,-116.68463l1.25995,-0.28999l0.38999,0.74997l-0.60998,1.08996l0.51998,1.72993l-0.51998,0.94996l1.89993,1.82993l1.66994,-0.50998l0.81997,0.49998l1.40994,-1.25995l0.94996,0.63998l1.14996,-0.16l2.19991,0.25999l-0.16999,1.27995l-0.62997,1.19995l-0.21,1.51994l-1.00995,0.61997l-0.2,0.90996l-0.91996,0.76997l0.36999,0.72997l-0.1,1.20995l0.49998,1.09995l0.67998,0.28999l0.14999,1.06996l-0.48998,0.85997l1.34994,1.05996l0.79997,0.25999l0.04,0.92996l0.97996,0.78997l1.01996,0.25999l1.48994,0.91996l0.26999,-1.02996l2.6199,0.78997l2.09992,-0.48999l0.10999,3.54986l-0.11999,1.16996l1.29995,2.20991l-0.61998,1.20995l0.35999,0.76997l2.25991,0.72997l0.46998,0.72997l1.51994,-0.98996l0.79997,0.74997l-0.31998,1.01996l0.58997,1.91992l1.12995,0.27999l0.21999,2.04991l0.74997,0.60998l-0.86996,0.85997l0.27999,1.21995l-0.72997,1.36995l0.46998,0.73997l0.23999,3.11987l0.48998,1.07995l0.24,2.11992l1.50993,0.15l1.35995,1.16995l0.16999,1.67994l2.6299,-0.62998l0.68998,2.69989l-0.41998,1.85993l-0.47998,0.70997l-1.31995,-0.26999l-2.56989,0.44998l-1.09996,-0.89996l-0.75997,0.02999l0.09999,1.13996l-0.41998,0.80997l-2.61989,1.01996l-1.19995,1.00996l-1.43994,0.28999l-1.66994,2.15991l-0.88996,-0.31999l-1.44994,-1.35995l0.05,-0.70997l-0.92996,-1.00996l-1.77993,-0.43998l-1.53994,0.98996l-0.76997,1.07995l-1.46994,0.56997l1.22995,0.73998l0.06,1.52994l-0.64998,0.21999l-0.87996,-0.97997l-1.19995,0.26999l-1.73993,-0.49998l0.46998,-0.88996l1.06996,-0.29999l-0.46998,-0.91996l1.68993,-1.73993l0.47998,-0.77997l0.74997,0.03l0.94996,-1.42994l-0.28999,-0.91997l-1.40994,-0.90996l-1.64994,1.74993l-0.17999,-0.72997l0.77997,-1.47994l-0.21999,-0.85996l-2.6499,0.03l-1.51994,0.78996l-1.10996,-0.98996l0.23999,-1.25995l-2.10992,1.00996l-1.04995,-0.37998l-0.93997,0.58997l-0.22999,1.06996l-0.96996,-0.09999l-0.96996,-0.82997l-0.23,1.38994l-0.99996,-0.16999l-1.42994,0.62998l-0.84996,-0.91997l-0.86997,-0.01l-1.14995,0.85997l-0.52998,1.39995l-0.65997,0.54997l-0.91996,-0.49998l-0.27999,-1.31995l-1.14995,0.78997l-0.24999,0.79997l-0.99996,0.92997l-1.26995,0.60997l-0.09,0.67997l-2.15991,1.13995l-2.3299,-0.67997l-0.72997,-0.78997l0.59998,-0.52998l-0.68997,-1.05996l-2.44991,-0.62998l-0.83997,-1.06996l-0.88996,0.46998l0.28999,1.74993l0.96996,0.63998l-1.72993,1.16995l0.13999,1.23995l-0.84996,0.59998l-0.55998,-0.84996l-1.34995,0.90996l-1.21995,-0.40998l0.79997,-1.85993l-0.44998,-0.91996l-1.80993,1.09996l-0.24999,-1.03996l0.56998,-0.77997l-1.00996,-0.67997l-0.78997,-0.03l0.42999,-2.00992l-0.42999,-0.96996l-0.80996,0.49998l0.01999,1.76993l-1.46994,0.42998l1.15996,0.79997l-0.51998,1.62994l-1.50994,1.36995l-1.51994,-0.52998l-1.42994,0.44998l-0.85996,-0.26999l-1.14995,0.65997l-1.68993,-0.19999l-0.45998,-0.59998l0.26999,-1.08996l1.01996,-0.58997l0.23999,-1.25995l0.95996,-1.73993l0.17,-0.82997l1.08995,-0.17999l0.64998,-0.75997l0.31998,-1.55994l0.77997,-0.34998l-0.11,-1.51994l0.74997,-0.55998l-0.10999,-2.64989l0.81996,0.52997l1.53994,-1.17995l0.33999,-0.75997l-0.29998,-1.28995l-0.66998,-0.70997l0.91996,-2.3599l-0.01,-1.10995l1.87993,-1.90993l0.07999,-0.79997l0.71997,-0.99996l-0.03999,-1.40994l1.04996,-0.2l0.54998,-0.85997l1.17995,-0.56997h1.34994l1.73994,-1.88993l1.76992,-0.82996l0.68998,0.55997l1.07996,-0.03l0.77997,-1.28995l-0.29999,-0.89996l1.22996,-1.82993l1.00995,-0.98996l-0.48998,-0.72997l1.20995,-0.91996l0.71997,-1.10995l0.85996,0.67997l0.84996,-1.09996l0.21999,-1.14995l0.63998,-1.01996l-0.83997,-1.15995l0.22999,-1.29995l-0.68997,-1.87992l-1.94993,-0.86996l-0.07,-1.04996l1.34995,-1.17995l-0.03,-0.81997l-0.81997,-0.74997l-0.09,-1.11996l1.39994,0.13999l1.78993,-0.59998l0.70997,0.67998l1.55994,-0.29999l0.99996,0.31999l1.52994,-2.95988l1.01995,-1.37995l0.60998,-0.10999l0.07999,-1.31995l0.46998,-1.20995l1.08996,-0.56997l0.28999,-1.16996l-0.65997,-2.3599l1.11996,-0.66997l1.04996,0.04999l0.74997,0.37999l0.68997,1.56994l0.11,1.15995"/><path d="M378.85248,-56.48704l0.45998,0.78997l-1.51994,1.28995l0.24999,0.48999l-0.55998,1.33995l-0.87996,0.33998l-1.04996,1.42995l-1.55994,0.20999l-1.48994,-1.19995l0.65998,-1.52994l1.21995,1.15995l1.51994,-1.38994l0.90996,0.57998l0.05999,-1.88993l0.61998,-1.05996l0.28999,-1.65993l0.15999,0.83996l0.90996,0.25999"/><path d="M363.0531,-58.78695l0.89997,1.19995l0.91996,0.34998l-0.11,0.81997l-0.99996,-0.17l0.17,-0.86997l-0.78997,-0.26999l-0.67997,-1.98992l-0.06,-2.3299l0.46998,-0.94996l0.41998,1.78993l-0.23999,2.41991"/><path d="M351.55355,-60.0869l-0.40998,1.42995l-2.5399,1.48994l-0.12,-0.76997l0.38998,-2.4199l1.72993,-1.21995l1.51994,1.08996l-0.56998,0.39998"/><path d="M364.85304,-61.48684l-0.11,-1.33995l0.55998,-0.45998l1.58994,0.10999l0.36998,0.46998l0.98996,-1.84992l1.02996,-0.26999l-0.99996,1.46994l-1.73993,1.81993l-1.68993,0.05"/></g></g></svg>