<svg version="1.1" xmlns="http://www.w3.org/2000/svg" xmlns:xlink="http://www.w3.org/1999/xlink" width="224.00001" height="392" viewBox="0,0,224.00001,392"><defs><linearGradient x1="128" y1="212" x2="128" y2="228" gradientUnits="userSpaceOnUse" id="color-1"><stop offset="0" stop-color="#000000" stop-opacity="0.1"/><stop offset="1" stop-color="#000000" stop-opacity="0"/></linearGradient></defs><g transform="translate(-128,-180)"><g data-paper-data="{&quot;isPaintingLayer&quot;:true}" stroke="none" stroke-miterlimit="10" stroke-dasharray="" stroke-dashoffset="0" style="mix-blend-mode: normal"><g fill-rule="evenodd"><path d="M138,210h204l10,2v350c0,5.54 -4.46,10 -10,10h-204c-5.54,0 -10,-4.46 -10,-10v-350z" fill="#1d2a41" stroke-width="1" stroke-linecap="butt" stroke-linejoin="miter"/><path d="M128.00001,228v-16h224v16z" fill="url(#color-1)" stroke-width="12" stroke-linecap="round" stroke-linejoin="round" opacity="0.80769"/><path d="M138,180h204c5.54,0 10,4.46 10,10v22h-224v-22c0,-5.54 4.46,-10 10,-10z" fill="#31476d" stroke-width="1" stroke-linecap="butt" stroke-linejoin="miter"/></g><g fill="#ffffff" fill-rule="nonzero" stroke-width="1" stroke-linecap="butt" stroke-linejoin="miter"><path d="M145.82121,425.16928v1.17986h3.12084v1.07797h-3.12084v2.55127h1.43958v-1.97633h1.12261v3.65922h-1.12261v-0.64082h-3.93728v0.64082h-1.12261v-3.65922h1.12261v1.97633h1.36439v-2.55127h-2.97036v-1.07797h2.97036v-1.17986h-2.54609v-1.04208h4.24345c0.34377,-0.71865 0.67144,-1.58103 0.98302,-2.58717l1.06891,0.47911c-0.26499,0.67875 -0.5837,1.38145 -0.95612,2.1081h0.99912v1.04208zM139.77831,422.21677v-2.20989h1.1549v2.20989h1.06891v1.19179h-1.06891v1.93441c0.26499,-0.09981 0.57295,-0.22558 0.92388,-0.37729l0.13429,1.12591c-0.41539,0.19564 -0.76813,0.35534 -1.05821,0.47911v3.98264c0,0.35135 -0.0573,0.60688 -0.17189,0.76658c-0.14682,0.19963 -0.4333,0.29944 -0.85943,0.29944c-0.38674,0 -0.74661,-0.03993 -1.07961,-0.11978l-0.22023,-1.25166c0.42971,0.07186 0.74126,0.1078 0.93463,0.1078c0.11101,0 0.17905,-0.02594 0.20411,-0.07782c0.02506,-0.04393 0.0376,-0.11978 0.0376,-0.22758v-3.01248c-0.36526,0.13575 -0.73589,0.26552 -1.11191,0.38929l-0.32765,-1.23371c0.60518,-0.17168 1.05998,-0.30943 1.36439,-0.41324c0.02506,-0.00795 0.05013,-0.01594 0.0752,-0.02397v-2.34769h-1.28379v-1.19179zM141.77114,420.69554c2.22735,-0.11179 4.20762,-0.34935 5.94081,-0.71268l0.72514,0.99416c-1.99457,0.39527 -4.0769,0.66477 -6.24699,0.8085zM143.01194,424.05531c-0.17905,-0.68673 -0.39569,-1.3076 -0.64995,-1.86261l0.99372,-0.37132c0.3008,0.6508 0.52819,1.26368 0.68217,1.83864zM145.00478,423.91756c-0.13608,-0.68274 -0.34914,-1.31955 -0.6392,-1.91044l0.99912,-0.37132c0.29722,0.58293 0.52819,1.22974 0.69291,1.94043z"/><path d="M151.71363,420.28046h1.1871v3.38374c0.85226,-0.98621 1.53444,-1.66297 2.04653,-2.03028c0.47627,-0.34336 0.97043,-0.51505 1.48248,-0.51505c0.51566,0 0.93106,0.1617 1.2462,0.4851c0.41539,0.4312 0.62309,0.99614 0.62309,1.69483c0,0.18366 -0.02148,0.42721 -0.06445,0.73065c-0.31512,2.23189 -0.47268,3.77702 -0.47268,4.6354c0,0.36733 0.08415,0.55099 0.25246,0.55099c0.10743,0 0.24888,-0.06788 0.42435,-0.20363c0.36884,-0.28347 0.74127,-0.74863 1.11731,-1.39548l0.44045,1.37151c-0.22918,0.40725 -0.51387,0.76858 -0.85406,1.08399c-0.39391,0.36733 -0.81467,0.55099 -1.2623,0.55099c-0.42613,0 -0.75737,-0.1657 -0.99372,-0.49709c-0.20053,-0.28347 -0.3008,-0.75659 -0.3008,-1.41934c0,-0.50307 0.05909,-1.25966 0.17726,-2.26976c0.1504,-1.26968 0.25067,-2.21193 0.3008,-2.82675c0.00716,-0.09982 0.01074,-0.18366 0.01074,-0.25154c0,-0.35135 -0.06625,-0.62085 -0.19874,-0.8085c-0.12534,-0.17967 -0.29901,-0.26951 -0.52103,-0.26951c-0.74841,0 -1.89968,1.11193 -3.45382,3.3358v5.6535h-1.1871v-4.1443c-0.59802,0.93426 -1.14947,1.81664 -1.65437,2.64714l-0.55863,-1.41934c0.84867,-1.14586 1.58634,-2.23784 2.21302,-3.27593v-1.52124h-1.88535v-1.20373h1.88535z"/><path d="M168.1446,428.05189c0.27215,0.50706 0.59622,0.93228 0.97222,1.27563c0.48701,0.43919 1.10473,0.82048 1.85315,1.14386l-0.64995,1.19179c-1.33569,-0.61886 -2.30971,-1.65695 -2.92206,-3.11427c-0.23276,0.76257 -0.6016,1.41737 -1.10651,1.9644c-0.45478,0.49109 -1.06533,0.91831 -1.83165,1.28165l-0.74663,-1.05405c0.88093,-0.31941 1.54877,-0.73265 2.00354,-1.23973c0.38316,-0.42722 0.66785,-0.91033 0.85406,-1.44933h-2.07873v-3.22208h2.27751v-1.00614h-1.1656v-0.53302c-0.38674,0.37531 -0.81644,0.7047 -1.2891,0.98817l-0.42435,-0.63483h-0.89166v1.02411c0.46911,0.43919 0.9221,0.92628 1.35899,1.46126l-0.56937,1.13794c-0.25783,-0.41923 -0.52103,-0.82248 -0.78961,-1.20974v5.60567h-1.10111v-5.37802c-0.35452,1.1339 -0.73232,2.09213 -1.13341,2.87469l-0.47268,-1.40139c0.65888,-1.23371 1.16021,-2.60519 1.50398,-4.11442h-1.32679v-1.16783h1.42878v-2.46743h1.10111v2.46743h0.95612v0.70071c1.14231,-0.74659 2.01427,-1.80263 2.61589,-3.16812h1.2193c0.54072,0.93827 1.2247,1.72281 2.05193,2.3536c0.3581,0.2715 0.77526,0.543 1.2515,0.8145l-0.64995,1.03009c-0.49775,-0.29945 -0.95791,-0.62485 -1.38049,-0.9762v0.59291h-1.2032v1.00614h2.32041v3.22208zM166.79101,425.77611h-1.2623v1.31755h1.2623zM167.83843,425.77611v1.31755h1.2945v-1.31755zM166.07127,422.79361h2.51919c-0.5085,-0.49509 -0.96866,-1.08002 -1.38049,-1.7548c-0.29722,0.62684 -0.67679,1.21177 -1.13871,1.7548z"/><path d="M177.25503,424.07115h2.62128v-2.9825h1.1978v4.17429h-3.81909v4.4258h2.95966v-2.76086h1.2193v4.73719h-1.2193v-0.7606h-7.05272v0.7606h-1.2086v-4.73719h1.2086v2.76086h2.89517v-4.4258h-3.74929v-4.17429h1.1978v2.9825h2.55139v-4.06046h1.1978z"/><path d="M188.23963,429.84692c2.10203,-0.59091 3.15304,-1.93444 3.15304,-4.03058c0,-0.91434 -0.21128,-1.70088 -0.63383,-2.35962c-0.47269,-0.74265 -1.19246,-1.21978 -2.15932,-1.43138c-0.21128,1.85261 -0.49954,3.3698 -0.8648,4.55156c-0.25067,0.82649 -0.56221,1.60704 -0.93463,2.34167c-0.53714,1.04604 -1.14769,1.56907 -1.83165,1.56907c-0.5085,0 -0.96149,-0.25553 -1.35899,-0.76658c-0.25425,-0.3234 -0.46015,-0.72067 -0.61772,-1.19179c-0.2077,-0.61087 -0.31154,-1.26764 -0.31154,-1.97031c0,-1.13791 0.2811,-2.18596 0.84331,-3.14415c0.56937,-0.97819 1.30885,-1.68888 2.21842,-2.13207c0.66248,-0.3234 1.38942,-0.4851 2.18082,-0.4851c1.23543,0 2.28465,0.36932 3.14764,1.10796c1.05998,0.90631 1.58997,2.18994 1.58997,3.85087c0,2.78286 -1.2623,4.54759 -3.78689,5.29418zM187.43392,421.97751c-0.63382,0.07985 -1.16381,0.2695 -1.58997,0.56895c-0.27215,0.19564 -0.54251,0.45516 -0.81108,0.77856c-0.74487,0.91828 -1.11731,1.98231 -1.11731,3.19209c0,0.88238 0.15756,1.57312 0.47268,2.0722c0.19337,0.30743 0.38495,0.46114 0.57474,0.46114c0.25783,0 0.54789,-0.31741 0.87017,-0.95224c0.7878,-1.54513 1.32136,-3.58534 1.60067,-6.12063z"/><path d="M195.37266,421.87487v7.70775h8.25053v1.23973h-8.25053v0.83845h-1.2301v-10.97819h9.19585v1.19179zM198.6116,425.8156c-0.74487,-0.67875 -1.60073,-1.37145 -2.56759,-2.07812l0.752,-0.93427c0.89879,0.63483 1.75642,1.30561 2.57289,2.01233c0.51208,-0.75863 0.98834,-1.63302 1.42878,-2.62317l1.11191,0.5989c-0.51924,1.12594 -1.05279,2.08216 -1.60067,2.86867c0.66608,0.61087 1.41988,1.35951 2.26141,2.2459l-0.87017,1.01812c-0.795,-0.87443 -1.51657,-1.62306 -2.16472,-2.2459c-0.23993,0.27549 -0.42614,0.48311 -0.55863,0.62285c-0.70901,0.73068 -1.54337,1.38147 -2.50309,1.95236l-0.73589,-1.05405c0.42255,-0.24755 0.76812,-0.46914 1.03671,-0.66477c0.60518,-0.44318 1.21753,-1.01611 1.83705,-1.71879z"/><path d="M207.42646,424.46183c-0.0036,0.4312 -0.02329,0.89034 -0.05909,1.37742h2.61589c-0.06088,2.45947 -0.16293,4.01661 -0.30617,4.67141c-0.08953,0.40725 -0.25425,0.68274 -0.49417,0.82647c-0.20053,0.11978 -0.48522,0.17967 -0.85406,0.17967c-0.34735,0 -0.74125,-0.03196 -1.1817,-0.09588l-0.19874,-1.23973c0.42971,0.11179 0.81108,0.16769 1.14411,0.16769c0.23993,0 0.39033,-0.08185 0.4512,-0.24555c0.14682,-0.40326 0.25246,-1.48527 0.31691,-3.24605h-1.58997l-0.01612,0.10179c-0.24709,2.00431 -0.90957,3.54346 -1.98744,4.61745l-0.85943,-0.94026c0.795,-0.74265 1.31782,-1.71886 1.56847,-2.92864c0.17189,-0.84247 0.2811,-1.92448 0.32765,-3.24605h-1.1925v-4.03058h4.75371v4.03058zM206.22326,421.49728v1.95838h2.54069v-1.95838zM210.85348,420.97025h1.14411v7.56405h-1.14411zM213.23298,420.23361h1.17631v9.9716c0,0.52304 -0.12533,0.87838 -0.376,1.06604c-0.18979,0.13974 -0.5246,0.20961 -1.00442,0.20961c-0.45478,0 -1.00267,-0.02795 -1.64367,-0.08384l-0.23097,-1.30562c0.67681,0.11578 1.23903,0.17367 1.68666,0.17367c0.20412,0 0.32408,-0.04591 0.35989,-0.13774c0.02148,-0.0599 0.03223,-0.16172 0.03223,-0.30544z"/><path d="M224.68229,430.78667c-1.05998,0.12377 -2.15576,0.18566 -3.28733,0.18566c-1.66873,0 -2.8379,-0.11778 -3.50752,-0.35335c-0.48701,-0.17168 -0.87198,-0.42721 -1.1549,-0.76658c-0.32587,-0.39527 -0.4888,-0.87638 -0.4888,-1.44331c0,-0.74659 0.22918,-1.41737 0.68754,-2.01233c0.39032,-0.50706 1.01877,-1.01012 1.88535,-1.5092c-0.49417,-1.23773 -0.9418,-2.64711 -1.34289,-4.22814l1.1978,-0.34736c0.37242,1.51719 0.76632,2.85871 1.1817,4.02456c1.37869,-0.70668 2.8415,-1.29559 4.38844,-1.76673l0.35989,1.21576c-1.69739,0.47911 -3.38402,1.15985 -5.05989,2.04222c-0.51924,0.27549 -0.88807,0.50107 -1.10651,0.67675c-0.64101,0.52303 -0.96152,1.10395 -0.96152,1.74276c0,0.55497 0.29722,0.94228 0.89166,1.16191c0.49417,0.17966 1.37867,0.2695 2.65348,0.2695c1.17817,0 2.3581,-0.07586 3.53981,-0.22758z"/><path d="M230.64858,421.63202v-0.51505h-3.35713v-0.85642h7.92825v0.85642h-3.42692v0.51505h4.44754v2.15002h-1.1656v-1.37742h-3.28193v2.32974h-1.14411v-2.32974h-3.22284v1.37742h-1.15481v-2.15002zM234.45157,430.13032c0.54789,0.23157 1.23187,0.41523 2.05193,0.55098l-0.62846,1.01812c-1.14951,-0.21959 -2.09309,-0.5969 -2.83077,-1.13192c-0.73407,-0.53501 -1.30523,-1.19977 -1.71346,-1.99428h-1.1871v1.84455c0.7914,-0.12377 1.52551,-0.25553 2.20232,-0.39527l0.07519,0.89235c-1.2605,0.33537 -2.70185,0.62684 -4.32404,0.87438l-0.31691,-1.05405c0.56221,-0.06786 0.94714,-0.11577 1.15481,-0.14374l0.06449,-0.01193v-2.00632h-1.17631c-0.05013,0.7027 -0.13249,1.26367 -0.24709,1.68289c-0.13608,0.50307 -0.35451,0.97221 -0.65531,1.40741l-0.95612,-0.88038c0.35094,-0.50706 0.56938,-1.09995 0.65532,-1.77866c0.04653,-0.36732 0.0698,-0.82449 0.0698,-1.37151v-2.53933h9.27114v0.79653h-8.11624v1.83864h8.5782v0.84443h-1.2193l0.68216,0.50307c-0.40465,0.37531 -0.88271,0.72666 -1.43418,1.05405zM233.61363,429.66918c0.51566,-0.39128 0.92569,-0.75662 1.2301,-1.09602h-2.34731c0.30796,0.43919 0.6804,0.80453 1.11731,1.09602zM227.8984,422.84775h2.28821v0.67675h-2.28821zM227.8984,423.94968h2.28821v0.68872h-2.28821zM232.25464,422.84775h2.3581v0.67675h-2.3581zM232.25464,423.94968h2.3581v0.68872h-2.3581zM228.48385,426.39314h6.68745v0.78455h-6.68745z"/><path d="M243.27249,427.13326c0.41181,0.75462 0.95969,1.40343 1.64367,1.94645c0.63741,0.50307 1.46998,0.91632 2.4977,1.23973l-0.67679,1.23973c-2.0555,-0.74265 -3.52011,-2.02229 -4.39384,-3.83894c-0.27215,0.79854 -0.70902,1.52718 -1.31059,2.18592c-0.47627,0.52304 -1.04742,0.93829 -1.71346,1.24575c-0.38317,0.17168 -0.86839,0.34536 -1.45568,0.52104l-0.64995,-1.11989c1.24617,-0.28747 2.25778,-0.83844 3.03485,-1.65291c0.49417,-0.52304 0.87554,-1.11195 1.14411,-1.76673h-4.35624v-1.19179h1.26769v-3.93471h3.34103v-2.0003h1.1656v2.0003h3.41082v3.93471h1.26769v1.19179zM241.64493,423.16265h-2.17542v2.77892h2.17542zM242.81053,423.16265v2.77892h2.24522v-2.77892z"/><path d="M253.80347,429.84692c2.10203,-0.59091 3.15304,-1.93444 3.15304,-4.03058c0,-0.91434 -0.21128,-1.70088 -0.63383,-2.35962c-0.47269,-0.74265 -1.19246,-1.21978 -2.15932,-1.43138c-0.21128,1.85261 -0.49955,3.3698 -0.86481,4.55156c-0.25067,0.82649 -0.56221,1.60704 -0.93462,2.34167c-0.53714,1.04604 -1.14769,1.56907 -1.83165,1.56907c-0.5085,0 -0.96149,-0.25553 -1.35899,-0.76658c-0.25425,-0.3234 -0.46015,-0.72067 -0.61771,-1.19179c-0.2077,-0.61087 -0.31154,-1.26764 -0.31154,-1.97031c0,-1.13791 0.2811,-2.18596 0.84331,-3.14415c0.56937,-0.97819 1.30885,-1.68888 2.21842,-2.13207c0.66248,-0.3234 1.38942,-0.4851 2.18082,-0.4851c1.23543,0 2.28465,0.36932 3.14764,1.10796c1.05998,0.90631 1.58997,2.18994 1.58997,3.85087c0,2.78286 -1.2623,4.54759 -3.78689,5.29418zM252.99775,421.97751c-0.63382,0.07985 -1.16381,0.2695 -1.58997,0.56895c-0.27215,0.19564 -0.54251,0.45516 -0.81108,0.77856c-0.74487,0.91828 -1.11731,1.98231 -1.11731,3.19209c0,0.88238 0.15756,1.57312 0.47269,2.0722c0.19337,0.30743 0.38495,0.46114 0.57474,0.46114c0.25783,0 0.54788,-0.31741 0.87017,-0.95224c0.7878,-1.54513 1.32136,-3.58534 1.60067,-6.12063z"/><path d="M266.71148,428.05189c0.27216,0.50706 0.59623,0.93228 0.97222,1.27563c0.48701,0.43919 1.10473,0.82048 1.85315,1.14386l-0.64995,1.19179c-1.33569,-0.61886 -2.30971,-1.65695 -2.92206,-3.11427c-0.23276,0.76257 -0.6016,1.41737 -1.10651,1.9644c-0.45478,0.49109 -1.06533,0.91831 -1.83165,1.28165l-0.74663,-1.05405c0.88093,-0.31941 1.54877,-0.73265 2.00354,-1.23973c0.38316,-0.42722 0.66785,-0.91033 0.85405,-1.44933h-2.07873v-3.22208h2.27751v-1.00614h-1.1656v-0.53302c-0.38675,0.37531 -0.81645,0.7047 -1.2891,0.98817l-0.42435,-0.63483h-0.89166v1.02411c0.4691,0.43919 0.9221,0.92628 1.35899,1.46126l-0.56937,1.13794c-0.25783,-0.41923 -0.52102,-0.82248 -0.7896,-1.20974v5.60567h-1.10111v-5.37802c-0.35451,1.1339 -0.73231,2.09213 -1.13341,2.87469l-0.47269,-1.40139c0.65888,-1.23371 1.16021,-2.60519 1.50398,-4.11442h-1.32679v-1.16783h1.42878v-2.46743h1.10111v2.46743h0.95612v0.70071c1.14231,-0.74659 2.01427,-1.80263 2.61589,-3.16812h1.2193c0.54072,0.93827 1.2247,1.72281 2.05193,2.3536c0.35809,0.2715 0.77526,0.543 1.2515,0.8145l-0.64994,1.03009c-0.49776,-0.29945 -0.95792,-0.62485 -1.38049,-0.9762v0.59291h-1.2032v1.00614h2.32041v3.22208zM265.35789,425.77611h-1.2623v1.31755h1.2623zM266.40531,425.77611v1.31755h1.2945v-1.31755zM264.63815,422.79361h2.51919c-0.5085,-0.49509 -0.96866,-1.08002 -1.38049,-1.7548c-0.29722,0.62684 -0.67679,1.21177 -1.13871,1.7548z"/><path d="M275.82191,424.07115h2.62128v-2.9825h1.1978v4.17429h-3.81909v4.4258h2.95966v-2.76086h1.2193v4.73719h-1.2193v-0.7606h-7.05272v0.7606h-1.2086v-4.73719h1.2086v2.76086h2.89517v-4.4258h-3.74929v-4.17429h1.1978v2.9825h2.55139v-4.06046h1.1978z"/><path d="M141.93271,446.99473c-0.65534,-0.65878 -1.1925,-1.46331 -1.61147,-2.41358c-0.51566,-1.16987 -0.77349,-2.30975 -0.77349,-3.41964c0,-1.25765 0.32407,-2.53729 0.97222,-3.83894c0.39391,-0.78658 0.8648,-1.44736 1.41268,-1.98235h1.04742c-0.47985,0.61486 -0.86658,1.18181 -1.16021,1.70084c-0.74487,1.32558 -1.11731,2.70303 -1.11731,4.13237c0,1.34951 0.33304,2.65112 0.99912,3.90482c0.31512,0.59091 0.74125,1.22973 1.2784,1.91646z"/><path d="M151.69753,443.38356c0.27215,0.50706 0.59622,0.93228 0.97222,1.27563c0.48701,0.43919 1.10473,0.82048 1.85315,1.14386l-0.64995,1.19179c-1.33569,-0.61886 -2.30971,-1.65695 -2.92206,-3.11427c-0.23276,0.76257 -0.6016,1.41737 -1.10651,1.9644c-0.45478,0.49109 -1.06533,0.91831 -1.83165,1.28165l-0.74663,-1.05405c0.88093,-0.31941 1.54877,-0.73265 2.00354,-1.23973c0.38316,-0.42721 0.66785,-0.91032 0.85406,-1.44933h-2.07873v-3.22208h2.27751v-1.00614h-1.1656v-0.53302c-0.38674,0.37531 -0.81644,0.7047 -1.2891,0.98817l-0.42435,-0.63483h-0.89166v1.02411c0.46911,0.43919 0.9221,0.92628 1.35899,1.46126l-0.56937,1.13794c-0.25783,-0.41923 -0.52103,-0.82248 -0.78961,-1.20974v5.60567h-1.10111v-5.37802c-0.35452,1.1339 -0.73232,2.09213 -1.13341,2.87469l-0.47268,-1.40139c0.65888,-1.23371 1.16021,-2.60519 1.50398,-4.11442h-1.32679v-1.16783h1.42878v-2.46743h1.10111v2.46743h0.95612v0.70071c1.14231,-0.74659 2.01427,-1.80263 2.61589,-3.16812h1.2193c0.54072,0.93827 1.2247,1.72281 2.05193,2.3536c0.3581,0.2715 0.77526,0.543 1.2515,0.8145l-0.64995,1.03009c-0.49775,-0.29945 -0.95791,-0.62485 -1.38049,-0.9762v0.59291h-1.2032v1.00614h2.32041v3.22208zM150.34394,441.10777h-1.2623v1.31755h1.2623zM151.39136,441.10777v1.31755h1.2945v-1.31755zM149.6242,438.12528h2.51919c-0.5085,-0.49509 -0.96866,-1.08002 -1.38049,-1.7548c-0.29722,0.62684 -0.67679,1.21177 -1.13871,1.7548z"/><path d="M160.80796,439.40281h2.62128v-2.9825h1.1978v4.17429h-3.81909v4.4258h2.95966v-2.76086h1.2193v4.73719h-1.2193v-0.7606h-7.05272v0.7606h-1.2086v-4.73719h1.2086v2.76086h2.89517v-4.4258h-3.74929v-4.17429h1.1978v2.9825h2.55139v-4.06046h1.1978z"/><path d="M173.17807,443.58418c-0.44404,-0.80248 -0.79677,-1.75674 -1.05821,-2.86276c-0.15398,0.34736 -0.32049,0.68872 -0.49954,1.02411l-0.73052,-1.07797c0.72694,-1.28165 1.23363,-3.04441 1.52008,-5.28826l1.11191,0.17368c-0.11101,0.65878 -0.23097,1.27965 -0.35989,1.86261h3.28733v1.16783h-0.84869l-0.0054,0.08986c-0.10027,1.25371 -0.30796,2.41755 -0.62309,3.49154c-0.16473,0.55497 -0.3384,1.02612 -0.52103,1.41343c0.55505,0.75462 1.26049,1.4733 2.11633,2.15604l-0.6016,1.22769c-0.73054,-0.58691 -1.40912,-1.31957 -2.03574,-2.19796l-0.0752,-0.09588c-0.59086,0.93032 -1.30347,1.72284 -2.13783,2.37757l-0.72514,-0.97021c0.88093,-0.67874 1.60967,-1.5092 2.18622,-2.4914zM173.74744,442.39238c0.36526,-0.99417 0.61592,-2.26381 0.752,-3.80895h-1.63827c-0.06445,0.23556 -0.11459,0.40525 -0.1504,0.50906c0.23634,1.28165 0.58191,2.38162 1.03671,3.2999zM170.83078,442.93737c-0.13608,0.60688 -0.37421,1.20776 -0.7144,1.80263c0.25783,0.13575 0.61414,0.33138 1.06891,0.58691l-0.62846,1.09602c-0.32229,-0.24355 -0.70009,-0.50506 -1.13341,-0.78454c-0.68395,0.65878 -1.55411,1.12391 -2.61049,1.39537l-0.64995,-1.00614c0.88093,-0.1637 1.62757,-0.4871 2.23992,-0.9702c-0.55147,-0.27949 -1.14052,-0.52903 -1.76716,-0.74862c0.25783,-0.44318 0.49597,-0.90035 0.7144,-1.37151h-1.32679v-1.00614h1.74576c0.09669,-0.25154 0.21128,-0.58293 0.34377,-0.99417l0.188,0.04192v-1.59905c-0.46911,0.72266 -1.07429,1.36545 -1.81555,1.92839l-0.6392,-0.91031c0.70547,-0.44717 1.35899,-1.04407 1.96054,-1.7907h-1.78335v-1.01812h2.27751v-2.2459h1.07961v2.2459h1.96594v1.01812h-1.96594v0.19165c0.50133,0.23157 1.06175,0.54698 1.68126,0.94624l-0.53715,0.98219l-0.15577,-0.13774c-0.32229,-0.28747 -0.65173,-0.55897 -0.98832,-0.8145v1.49125h-0.29006c-0.07162,0.23956 -0.14503,0.46115 -0.22023,0.66477h2.73947v1.00614zM169.74576,442.93737h-1.2623c-0.17547,0.40725 -0.31154,0.7027 -0.40823,0.88636c0.31154,0.11179 0.66428,0.25752 1.05821,0.4372c0.25067,-0.36733 0.45478,-0.80852 0.61234,-1.32357zM166.8559,437.56527c-0.16831,-0.55098 -0.38496,-1.084 -0.64995,-1.59905l0.85943,-0.40126c0.32587,0.59889 0.57474,1.12191 0.74663,1.56907zM169.78336,437.17001c0.26141,-0.53102 0.46732,-1.08199 0.61772,-1.65291l0.99912,0.38928c-0.03223,0.07985 -0.06625,0.1637 -0.10206,0.25154c-0.23634,0.58691 -0.45836,1.04806 -0.66606,1.38344z"/><path d="M177.25503,437.98791h2.3742c0.10743,-0.61486 0.22739,-1.37944 0.35989,-2.29373l0.02686,-0.17367l1.17631,0.19763c-0.12175,0.84641 -0.24708,1.603 -0.376,2.26976h0.64995c0.8594,0 1.47531,0.2156 1.84775,0.6468c0.33303,0.38729 0.49954,0.99017 0.49954,1.80865c0,1.37746 -0.13071,2.66509 -0.39212,3.8629c-0.1504,0.67875 -0.33303,1.17981 -0.54789,1.50318c-0.27215,0.40326 -0.64995,0.60488 -1.13341,0.60488c-0.58011,0 -1.21393,-0.20761 -1.90145,-0.62284l0.13429,-1.2637c0.68041,0.36333 1.2086,0.54499 1.58457,0.54499c0.19695,0 0.34914,-0.11778 0.45657,-0.35335c0.11459,-0.25553 0.22381,-0.62485 0.32765,-1.10796c0.20412,-0.97819 0.30617,-2.00628 0.30617,-3.08428c0,-0.56695 -0.10206,-0.93427 -0.30617,-1.10194c-0.17547,-0.13974 -0.4888,-0.20961 -0.94,-0.20961h-0.8272c-0.56937,2.82679 -1.38584,5.23832 -2.4494,7.2346l-1.07961,-0.65878c1.09938,-2.05619 1.88361,-4.24813 2.35271,-6.57583h-2.14322zM186.177,443.89894c-0.40465,-1.66093 -1.04386,-3.29191 -1.91764,-4.89294l1.04742,-0.52702c0.90239,1.60504 1.5774,3.22004 2.02503,4.845zM185.38203,438.1616c-0.22202,-0.64681 -0.58013,-1.36549 -1.07431,-2.15604l0.83257,-0.34736c0.4333,0.68274 0.79677,1.39142 1.09041,2.12605zM186.82691,437.64656c-0.27932,-0.7706 -0.63562,-1.49526 -1.06891,-2.17399l0.7896,-0.29346c0.41181,0.54699 0.77168,1.22974 1.07961,2.04823z"/><path d="M194.06197,444.31275c-0.35452,-0.39926 -0.82005,-0.84246 -1.39659,-1.32959c-0.73767,0.49508 -1.53981,0.90034 -2.4064,1.21576l-0.68217,-0.99416c2.10563,-0.69871 3.74929,-1.87255 4.931,-3.52153l1.09581,0.30544c-0.15756,0.23157 -0.31154,0.44917 -0.46194,0.65279h2.57829l0.56937,0.55099c-1.17457,1.98833 -2.56219,3.45163 -4.16286,4.3899c-1.16737,0.68673 -2.71971,1.18181 -4.65702,1.48523l-0.66069,-1.13794c2.38847,-0.31542 4.13956,-0.85442 5.25327,-1.61701zM194.96975,443.60007c0.71621,-0.65878 1.25873,-1.30559 1.62757,-1.94043h-2.34191c-0.24351,0.25154 -0.48701,0.47712 -0.73052,0.67675c0.5443,0.41524 1.02593,0.83647 1.44488,1.2637zM192.28937,439.56949c-0.41897,-0.46315 -0.829,-0.86639 -1.2301,-1.20974l-0.06445,0.05385c-0.50133,0.35933 -1.07608,0.7007 -1.72426,1.02411l-0.7144,-0.8684c1.67946,-0.76658 3.00979,-1.8845 3.99097,-3.35375l1.14411,0.27549c-0.19695,0.29945 -0.33482,0.50307 -0.4136,0.61087h3.00796l0.52103,0.51505c-0.70547,0.98621 -1.59713,1.94243 -2.67498,2.86867c-0.73407,0.63084 -1.44848,1.12394 -2.14322,1.47932c-0.91313,0.46315 -1.96951,0.85443 -3.16914,1.17384l-0.61771,-1.04807c1.60787,-0.33937 2.97042,-0.84642 4.08767,-1.52113zM193.20251,438.91669c0.74487,-0.62684 1.35542,-1.21374 1.83165,-1.76071h-2.62128c-0.16473,0.17567 -0.34914,0.35933 -0.55325,0.55098c0.53714,0.41124 0.98477,0.81449 1.34289,1.20974z"/><path d="M204.29463,443.16182c-0.66248,2.17199 -1.40552,3.25798 -2.22912,3.25798c-0.58728,0 -1.0904,-0.45914 -1.50938,-1.37742c-0.32229,-0.71069 -0.54431,-1.49325 -0.66606,-2.34769c-0.14682,-1.03809 -0.22023,-2.37162 -0.22023,-4.00059c0,-0.70668 0.02327,-1.46527 0.06982,-2.27578l1.2623,0.1078c-0.04655,0.81051 -0.06982,1.5811 -0.06982,2.31179c0,2.56323 0.21486,4.34992 0.64457,5.36007c0.17547,0.41523 0.34019,0.62284 0.49417,0.62284c0.10027,0 0.2256,-0.12776 0.376,-0.38329c0.30796,-0.51904 0.60518,-1.23371 0.89166,-2.144zM207.69475,444.58718c-0.18263,-1.68486 -0.40643,-3.04634 -0.67143,-4.08443c-0.32229,-1.25765 -0.69649,-2.40953 -1.12261,-3.45564l1.14411,-0.31143c0.59086,1.30559 1.02952,2.56327 1.31599,3.77305c0.23634,0.9822 0.4315,2.23189 0.58548,3.74908z"/><path d="M218.26616,443.05623c-0.23634,0.72667 -0.53535,1.36151 -0.89703,1.90453c-0.46194,0.6987 -1.08502,1.31957 -1.86925,1.86261l-0.752,-0.73664c1.14591,-0.71865 1.98924,-1.72879 2.52999,-3.03043h-0.74663c-0.68041,1.43736 -1.73322,2.52536 -3.15844,3.264l-0.68217,-0.78454c1.24257,-0.62685 2.17539,-1.45333 2.79847,-2.47946h-0.71977c-0.32229,0.36732 -0.65533,0.67076 -0.99912,0.91031l-0.6016,-0.65279c-0.87733,0.5949 -1.83882,1.12591 -2.88446,1.59304l-0.39749,-1.21576c0.4512,-0.15172 0.93463,-0.34336 1.45028,-0.57494v-4.03058h-1.2623v-1.19179h1.2623v-2.55127h1.11191v2.55127h1.05821v1.19179h-1.05821v3.49154c0.27215,-0.14374 0.60696,-0.3274 1.00442,-0.55098l0.13966,0.76658c0.4333,-0.38329 0.79317,-0.83845 1.07961,-1.36549h-1.52008v-1.00615h7.375v1.00615h-4.69462c-0.09669,0.19963 -0.22023,0.42322 -0.37063,0.67076h4.65702c-0.0752,2.05619 -0.21128,3.42168 -0.40823,4.09647c-0.09669,0.33139 -0.26141,0.55298 -0.49417,0.66477c-0.16473,0.08385 -0.40644,0.12577 -0.72514,0.12577c-0.37242,0 -0.73589,-0.02995 -1.09041,-0.08986l-0.19874,-1.13794c0.33661,0.08784 0.67142,0.13177 1.00442,0.13177c0.23993,0 0.39391,-0.08784 0.46194,-0.26352c0.1325,-0.35135 0.23992,-1.20775 0.32228,-2.56922zM219.53386,435.69586v4.12635h-5.53255v-4.12635zM215.08092,436.60619v0.71268h3.37323v-0.71268zM215.08092,438.18729v0.73664h3.37323v-0.73664z"/><path d="M228.80187,439.26555v0.89235h-4.98469v-0.76658c-0.66961,0.543 -1.39295,1.02013 -2.17002,1.43138l-0.75737,-1.11989c1.00985,-0.44717 1.87645,-1.00015 2.59979,-1.65892c0.80213,-0.73068 1.47535,-1.63101 2.01964,-2.70099h1.35359c0.68754,1.12594 1.57204,2.08019 2.65348,2.86276c0.5837,0.42322 1.28377,0.83646 2.10023,1.23973l-0.7144,1.17986c-0.75914,-0.41923 -1.42342,-0.84444 -1.99284,-1.27563zM228.4957,439.02c-0.85226,-0.7147 -1.6132,-1.54915 -2.28282,-2.50333c-0.52998,0.95024 -1.1871,1.78468 -1.97134,2.50333zM229.94598,441.46345v5.53376h-1.2301v-0.72465h-4.9149v0.72465h-1.2301v-5.53376zM223.80108,442.58936v2.51536h4.9149v-2.51536z"/><path d="M232.98775,446.47734c-0.13608,-1.35747 -0.20411,-2.70698 -0.20411,-4.04853c0,-2.29975 0.15219,-4.4837 0.45657,-6.55186l1.1817,0.13775c-0.29006,1.78869 -0.43508,3.80698 -0.43508,6.05485c0,1.50923 0.0752,2.92062 0.2256,4.23416zM236.21058,436.99093h5.16198v1.27563h-5.16198zM241.73783,445.74075c-0.71621,0.12377 -1.56667,0.18566 -2.55139,0.18566c-2.47446,0 -3.71169,-0.81051 -3.71169,-2.43153c0,-0.64281 0.15398,-1.20378 0.46194,-1.68289l1.01522,0.50307c-0.19337,0.30344 -0.29006,0.64481 -0.29006,1.02411c0,0.46714 0.20949,0.78854 0.62846,0.96422c0.46552,0.19963 1.10114,0.29944 1.90684,0.29944c0.87019,0 1.6759,-0.06388 2.4171,-0.19165z"/><path d="M250.22369,445.75933h-3.48071v0.4911h-1.10111v-3.32989h4.8934v2.79085c0.2435,0.03196 0.49954,0.04794 0.76811,0.04794c0.17905,0 0.28827,-0.03393 0.32766,-0.10179c0.0322,-0.05188 0.0483,-0.13772 0.0483,-0.25752v-3.0903h-7.06342v4.68936h-1.1871v-5.65952h9.43763v4.46772c0,0.38329 -0.0949,0.66277 -0.28469,0.83845c-0.17547,0.1637 -0.45836,0.24555 -0.84869,0.24555c-0.29364,0 -0.72157,-0.02594 -1.28379,-0.07782zM249.43409,443.87877h-2.69108v0.92229h2.69108zM248.6982,436.31473h4.44754v1.00614h-9.99117v-1.00614h4.36694v-0.97021h1.17631zM251.58266,437.9557v2.73689h-6.86474v-2.73689zM245.89433,438.88997v0.8684h4.50123v-0.8684z"/><path d="M260.30009,437.99847h2.85226v6.5639h-2.27751c1.34289,0.41524 2.51923,0.88638 3.52901,1.41343l-0.9024,1.07797c-1.03491,-0.63083 -2.21842,-1.19179 -3.55051,-1.68289l0.72514,-0.8085h-3.42692l0.87554,0.82049c-1.03132,0.71069 -2.19692,1.27563 -3.49681,1.69483l-0.85943,-1.11397c1.24257,-0.30344 2.38131,-0.77057 3.41622,-1.40139h-2.13783v-5.68349c-0.11459,0.07586 -0.3205,0.19964 -0.61772,0.37132l-0.6392,-0.98219c1.51114,-0.81051 2.61049,-1.79468 3.29803,-2.95251l0.79497,0.56295h3.09935l0.564,0.57494c-0.38316,0.55897 -0.79856,1.07403 -1.2462,1.5452zM258.89811,437.99847c0.39749,-0.40326 0.72693,-0.78257 0.98832,-1.13794h-2.4601c-0.31513,0.3793 -0.7001,0.75861 -1.1549,1.13794zM256.23392,438.93274v0.94624h5.71523v-0.94624zM256.23392,440.74741v0.93427h5.71523v-0.93427zM256.23392,442.58003v1.03608h5.71523v-1.03608z"/><path d="M274.17408,439.99412v5.73143c0,0.44717 -0.10206,0.7586 -0.30617,0.93428c-0.17905,0.1597 -0.51029,0.23955 -0.99372,0.23955c-0.64455,0 -1.18707,-0.02795 -1.62757,-0.08384l-0.22023,-1.17986c0.68395,0.07586 1.23363,0.11378 1.64906,0.11378c0.16472,0 0.2632,-0.03393 0.29543,-0.10179c0.02506,-0.04794 0.0376,-0.13378 0.0376,-0.25752v-5.39607h-4.98469v-1.09001h7.3589v1.09001zM267.7821,436.38875v-1.04208h1.15481v1.04208h2.32041v-1.04208h1.17631v1.04208h2.70718v1.10194h-2.70718v0.94626h-1.17631v-0.94626h-2.32041v0.94626h-0.76812c-0.2435,0.69472 -0.50849,1.31559 -0.79497,1.86261v6.70159h-1.1549v-4.79716c-0.2829,0.39527 -0.59802,0.78057 -0.94537,1.15589l-0.5264,-1.20373c1.02058,-1.12193 1.79405,-2.50537 2.32041,-4.15032l0.7144,0.28147v-0.79653h-2.62128v-1.10194zM272.00945,441.08412v3.37772h-2.72868v0.83246h-1.03671v-4.21019zM269.28078,442.00642v1.48523h1.70816v-1.48523z"/><path d="M276.41854,446.99473c0.47985,-0.61486 0.86658,-1.18181 1.16021,-1.70084c0.74487,-1.32558 1.11731,-2.69902 1.11731,-4.12033c0,-1.35747 -0.33304,-2.66305 -0.99912,-3.91676c-0.31155,-0.58292 -0.73768,-1.22174 -1.2784,-1.91646h1.04742c0.65534,0.66277 1.1925,1.4673 1.61147,2.41358c0.51566,1.16987 0.77349,2.30778 0.77349,3.41372c0,1.26166 -0.32587,2.54328 -0.97762,3.84485c-0.39033,0.78256 -0.85942,1.44334 -1.40729,1.98235z"/></g><path d="M213.67599,188.29997v1.6484h4.5742v-1.6484h1.9102v1.6484h2.7188v1.4336h-2.7188v4.8711h3.5391v1.4961h-3.1055c0.9017,0.58184 1.9386,1.11553 3.2559,1.5469l0.13086,0.043l-1.1836,1.6289l-0.0723,-0.0312c-0.6168,-0.26223 -1.24342,-0.59286 -1.877,-0.9668v0.83398h-3.9531v0.94922h5.8594v1.5274h-13.387v-1.5274h5.6328v-0.94922h-3.7812v-0.75195c-0.6426,0.42531 -1.34491,0.82233 -2.1406,1.1738l-0.0762,0.0332l-1.0664,-1.5508l0.12305,-0.043c1.3313,-0.469 2.44676,-1.13655 3.4414,-1.916h-3.2031v-1.4961h3.4531v-4.8711h-2.6406v-1.4336h2.6406v-1.6484zM232.9413,188.3v2.8125h6.375v1.8008h-5.6816c1.6787,2.398 3.7134,4.3384 6.1328,5.791l0.0957,0.0566l-1.2344,1.6758l-0.0801,-0.0586c-2.4586,-1.7999 -4.324,-3.7494 -5.6543,-5.8359v4.375h3.2031v1.7383h-3.1719v3.0469h-1.957v-3.0469h-2.9922v-1.7383h3.0234v-4.2754c-1.2834,2.271 -3.0866,4.3209 -5.4726,6.1192l-0.0781,0.0586l-1.2617,-1.5684l0.0918,-0.0606c2.4505,-1.6235 4.4278,-3.7244 5.9648,-6.2773h-5.5644v-1.8008h6.2734v-2.8125zM264.91042,188.30005v1.7422h6.1172v3.8164h-1.6953v1.0391h-4.3906v2.1914h5.3516v1.6523h-5.3516v2.4942c0.853,0.13649 1.7766,0.21289 2.7832,0.21289h4.2168l-0.0723,0.14453c-0.25666,0.5133 -0.44703,1.05483 -0.57031,1.625l-0.0176,0.0781h-3.5723c-2.1226,0 -3.8042,-0.25267 -5.0469,-0.76562c-1.1617,-0.4789 -2.11752,-1.274 -2.8848,-2.3496c-0.6066,1.4057 -1.33261,2.60442 -2.207,3.5449l-0.0762,0.082l-1.3398,-1.6074l0.0586,-0.0644c1.4536,-1.5722 2.36231,-3.607 2.7246,-6.1172l0.0156,-0.0996l1.9766,0.30469l-0.0215,0.10156c-0.16291,0.8043 -0.32095,1.46811 -0.47461,2.0117c0.5923,1.0391 1.4587,1.80362 2.582,2.3281v-5.7676h-4.3359v-1.0391h-1.6953v-3.8164h5.9844v-1.7422zM253.16795,188.86237v3.9043c0,0.08091 0.0075,0.14415 0.0176,0.18555c0.0097,0.0397 0.02056,0.0537 0.0215,0.0547h0.002c0.03683,0.0277 0.13381,0.0586 0.28906,0.0586c0.22008,0 0.35055,-0.0441 0.37695,-0.0684l0.004,-0.002l0.002,-0.002c-0.0073,0.0057 0.0153,-0.022 0.0312,-0.082c0.0157,-0.05962 0.0309,-0.14912 0.041,-0.26172c0.0519,-0.59771 0.0809,-1.06099 0.0859,-1.3848l0.002,-0.13281l1.6602,0.52344l-0.002,0.0723c-0.00536,0.6021 -0.04399,1.17708 -0.11719,1.7227v0.002c-0.04112,0.33191 -0.15349,0.60624 -0.33984,0.8125c-0.18673,0.20669 -0.44545,0.3412 -0.76367,0.4043c-0.26804,0.0547 -0.65419,0.0801 -1.168,0.0801c-0.73232,0 -1.23237,-0.0836 -1.5195,-0.29297c-0.24773,-0.18127 -0.36133,-0.5057 -0.36133,-0.93946v-3.0332h-1.7539v0.0645c0,1.0645 -0.11372,1.9491 -0.34765,2.6562h-0.002v0.002c-0.2664,0.7779 -0.73411,1.43785 -1.3984,1.9746l-0.0703,0.0566l-1.2793,-1.2812l0.0976,-0.0684c0.63507,-0.4435 1.02525,-1.07638 1.1777,-1.9199c0.07152,-0.4033 0.10742,-0.90054 0.10742,-1.4902v-1.6152zM246.3868,188.8781v1.5117h-5.1602v-1.5117zM247.08986,191.1672v1.6055h-6.7617v-1.6055zM213.67616,192.12032h4.5742v-0.73828h-4.5742zM258.89516,193.21406h10.207v-1.5039h-10.207zM213.67616,194.17499h4.5742v-0.76953h-4.5742zM246.38736,193.56561v1.4961h-5.1602v-1.4961zM254.05332,195.41729l0.92578,0.83984l-0.0312,0.0684c-0.6929,1.4928 -1.53256,2.7423 -2.4961,3.7871c0.9711,0.6914 2.0862,1.29135 3.3711,1.7871l0.11133,0.043l-1.0371,1.7344l-0.082,-0.0391c-1.5663,-0.7344 -2.79432,-1.47321 -3.7207,-2.2227c-1.1517,0.959 -2.3094,1.723 -3.4746,2.2695l-0.0801,0.0371l-0.80079,-1.2285v0.40429h-4.0938v0.80469h-1.7539v-5.582h5.8476v3.9316c1.0658,-0.3799 2.108,-0.97875 3.127,-1.8047c-0.9193,-1.002 -1.6355,-2.0652 -2.1289,-3.1934h-0.83008v-1.6367zM213.67686,196.25313h4.5742v-0.76172h-4.5742zM246.38806,195.8547v1.4648h-5.1602v-1.4648zM249.59296,197.0538c0.4095,0.706 0.90659,1.37489 1.5449,1.9844h0.002l0.002,0.002c0.63333,-0.7323 1.0673,-1.39213 1.3301,-1.9863h-2.8789zM213.81416,197.74922c-0.4776,0.58323 -1.01872,1.09264 -1.5938,1.5586h2.7812v-1.3281h1.8945v1.3281h2.9824c-0.6641,-0.4944 -1.2604,-1.00958 -1.7363,-1.5586h-4.3281zM242.64606,201.37032h2.3242v-1.707h-2.3242z" fill="#ffffff" fill-rule="nonzero" stroke-width="1" stroke-linecap="butt" stroke-linejoin="miter"/><g fill-rule="evenodd" stroke-width="1" stroke-linecap="butt" stroke-linejoin="miter"><path d="M336,332c0.55228,0 1,0.44772 1,1c0,0.55228 -0.44772,1 -1,1h-192c-0.55228,0 -1,-0.44772 -1,-1c0,-0.55228 0.44772,-1 1,-1z" fill="#31476d"/><g fill="#7d97b4"><path d="M335,333c0,-0.55228 0.44772,-1 1,-1c0.55228,0 1,0.44772 1,1c0,0.55228 -0.44772,1 -1,1c-0.55228,0 -1,-0.44772 -1,-1z"/><path d="M143,333c0,-0.55228 0.44772,-1 1,-1c0.55228,0 1,0.44772 1,1c0,0.55228 -0.44772,1 -1,1c-0.55228,0 -1,-0.44772 -1,-1z"/><path d="M181.4,333c0,-0.55228 0.44772,-1 1,-1c0.55228,0 1,0.44772 1,1c0,0.55228 -0.44772,1 -1,1c-0.55228,0 -1,-0.44772 -1,-1z"/><path d="M219.8,333c0,-0.55228 0.44772,-1 1,-1c0.55228,0 1,0.44772 1,1c0,0.55228 -0.44772,1 -1,1c-0.55228,0 -1,-0.44772 -1,-1z"/><path d="M258.2,333c0,-0.55228 0.44772,-1 1,-1c0.55228,0 1,0.44772 1,1c0,0.55228 -0.44772,1 -1,1c-0.55228,0 -1,-0.44772 -1,-1z"/><path d="M296.6,333c0,-0.55228 0.44772,-1 1,-1c0.55228,0 1,0.44772 1,1c0,0.55228 -0.44772,1 -1,1c-0.55228,0 -1,-0.44772 -1,-1z"/></g></g><g fill-rule="evenodd" stroke-width="1" stroke-linecap="butt" stroke-linejoin="miter"><path d="M336,392c0.55228,0 1,0.44772 1,1c0,0.55228 -0.44772,1 -1,1h-192c-0.55228,0 -1,-0.44772 -1,-1c0,-0.55228 0.44772,-1 1,-1z" fill="#31476d"/><g fill="#7d97b4"><path d="M143,393c0,-0.55228 0.44772,-1 1,-1c0.55228,0 1,0.44772 1,1c0,0.55228 -0.44772,1 -1,1c-0.55228,0 -1,-0.44772 -1,-1z"/><path d="M335,393c0,-0.55228 0.44772,-1 1,-1c0.55228,0 1,0.44772 1,1c0,0.55228 -0.44772,1 -1,1c-0.55228,0 -1,-0.44772 -1,-1z"/><path d="M239,393c0,-0.55228 0.44772,-1 1,-1c0.55228,0 1,0.44772 1,1c0,0.55228 -0.44772,1 -1,1c-0.55228,0 -1,-0.44772 -1,-1z"/><path d="M271,393c0,-0.55228 0.44772,-1 1,-1c0.55228,0 1,0.44772 1,1c0,0.55228 -0.44772,1 -1,1c-0.55228,0 -1,-0.44772 -1,-1z"/><path d="M175,393c0,-0.55228 0.44772,-1 1,-1c0.55228,0 1,0.44772 1,1c0,0.55228 -0.44772,1 -1,1c-0.55228,0 -1,-0.44772 -1,-1z"/><path d="M303,393c0,-0.55228 0.44772,-1 1,-1c0.55228,0 1,0.44772 1,1c0,0.55228 -0.44772,1 -1,1c-0.55228,0 -1,-0.44772 -1,-1z"/><path d="M207,393c0,-0.55228 0.44772,-1 1,-1c0.55228,0 1,0.44772 1,1c0,0.55228 -0.44772,1 -1,1c-0.55228,0 -1,-0.44772 -1,-1z"/></g></g><g fill="#ffffff" fill-rule="nonzero" stroke-width="1" stroke-linecap="butt" stroke-linejoin="miter"><g><path d="M143.64,230c0.21419,-0.58333 0.39421,-1.21223 0.54004,-1.8867l1.75,0.28027c-0.18685,0.54687 -0.39876,1.08234 -0.63574,1.6064h5.0176v11.416h-1.5518v-0.9707h-7.2393v0.9707h-1.5244v-11.416zM141.5209,231.2852v1.7705h7.2393v-1.7705zM141.5209,234.2725v1.75h7.2393v-1.75zM141.5209,237.2256v1.9209h7.2393v-1.9209z"/><path d="M161.62,231.01l0.0684,-2.8984h1.374l-0.0615,2.8984h2.5908c-0.0456,5.09507 -0.23701,8.18037 -0.57422,9.2559c-0.14583,0.46484 -0.41016,0.76106 -0.79297,0.88867c-0.19596,0.06836 -0.48763,0.10254 -0.875,0.10254c-0.50586,0 -0.98436,-0.0319 -1.4355,-0.0957l-0.26661,-1.4424c0.52409,0.10026 0.98666,0.15039 1.3877,0.15039c0.32357,0 0.53092,-0.08887 0.62207,-0.2666c0.08659,-0.17318 0.1709,-0.59245 0.25293,-1.2578c0.16406,-1.3216 0.26888,-3.20377 0.31445,-5.6465l0.007,-0.34179h-1.3193c-0.07747,2.02347 -0.31901,3.70053 -0.72461,5.0312c-0.49674,1.6224 -1.27374,2.96907 -2.331,4.04l-1.1211,-0.86816c0.22331,-0.20963 0.40333,-0.39648 0.54004,-0.56055c-2.27867,0.41471 -4.4616,0.72233 -6.5488,0.92286l-0.30762,-1.292c1.1348,-0.06836 2.2126,-0.15267 3.2334,-0.25293v-0.95019h-2.9395v-1.0801h2.9395v-0.7793h-2.6182v-4.4912h2.6182v-0.75879h-3.1514v-1.0664h3.1514v-0.6084c-0.68813,0.06836 -1.472,0.1276 -2.3516,0.17773l-0.49218,-1.0527c2.18747,-0.09115 4.14027,-0.32813 5.8584,-0.71094l0.77929,0.99121c-0.74287,0.18685 -1.55863,0.33497 -2.4473,0.44434v0.75879h3.0625v0.75879zM161.5585,232.3567h-1.5244v-1.0391h-3.0352v0.75879h2.6592v4.4912h-2.6592v0.7793h2.8301v1.0801h-2.8301v0.81347l0.57422,-0.0547c0.7656,-0.07747 1.59273,-0.19141 2.4814,-0.3418c0.8568,-1.56313 1.35353,-3.66403 1.4902,-6.3027zM155.6933,232.99927h-1.4834v0.86817h1.4834zM156.9579,232.99927v0.86817h1.5244v-0.86817zM155.6933,234.70827h-1.4834v0.93652h1.4834zM156.9579,234.70827v0.93652h1.5244v-0.93652z"/><path d="M167.25,231.17h4.1699c0.03647,-1.01173 0.0547,-1.91637 0.0547,-2.7139h1.5859c-0.00913,1.03907 -0.0342,1.9437 -0.0752,2.7139h5.0312c-0.02733,3.23113 -0.1595,5.70803 -0.39649,7.4307c-0.10481,0.78387 -0.31673,1.32163 -0.63574,1.6133c-0.33268,0.30079 -0.90461,0.45118 -1.7158,0.45118c-0.58789,0 -1.21222,-0.04785 -1.873,-0.14356l-0.25292,-1.5381c0.7884,0.14128 1.43327,0.21192 1.9346,0.21192c0.34635,0 0.57194,-0.05241 0.67675,-0.15723c0.11849,-0.11393 0.21648,-0.4694 0.29395,-1.0664c0.22331,-1.76827 0.3418,-3.5684 0.35547,-5.4004h-3.4863c-0.17318,1.8776 -0.57195,3.3815 -1.1963,4.5117c-0.8112,1.46287 -2.03027,2.65687 -3.6572,3.582l-1.0391,-1.2168c1.0208,-0.56055 1.89123,-1.26465 2.6113,-2.1123c0.54232,-0.63802 0.94335,-1.36035 1.2031,-2.167c0.25065,-0.76107 0.42155,-1.62693 0.5127,-2.5976h-4.1016z"/><path d="M182.56,230.79c1.0482,0.64258 2.33563,1.52441 3.8623,2.6455l0.2666,0.19824c1.08467,-1.61327 1.94373,-3.2835 2.5772,-5.0107l1.4971,0.69727c-0.73827,1.7682 -1.6725,3.5273 -2.8027,5.2773c1.33527,0.9844 2.5817,2.0713 3.7393,3.2607l-1.0801,1.2373c-0.71547,-0.78387 -1.82517,-1.79787 -3.3291,-3.042l-0.25293,-0.20507c-1.709,2.069 -3.72103,3.77113 -6.0361,5.1064l-0.99121,-1.3604c2.0508,-1.05273 3.97853,-2.6341 5.7832,-4.7441c-1.30793,-0.95707 -2.67057,-1.89587 -4.0879,-2.8164z"/><path d="M194.63,229.1h9.0166v1.4014h-9.0166zM193.65246,232.4496h11.382c-0.20052,1.987 -0.61522,3.54103 -1.2441,4.6621c-0.47396,0.84307 -1.06639,1.51527 -1.7773,2.0166c-1.20313,0.8568 -2.95313,1.4447 -5.25,1.7637l-0.69043,-1.3877c2.028,-0.19597 3.57977,-0.6608 4.6553,-1.3945c1.39453,-0.94333 2.19433,-2.36293 2.3994,-4.2588h-9.4746z"/></g><g><path d="M140.23,267.17h4.1699c0.03647,-1.01173 0.0547,-1.91637 0.0547,-2.7139h1.5859c-0.00913,1.03907 -0.0342,1.9437 -0.0752,2.7139h5.0312c-0.02733,3.23113 -0.1595,5.70803 -0.39649,7.4307c-0.10481,0.78387 -0.31673,1.32163 -0.63574,1.6133c-0.33268,0.30079 -0.90461,0.45118 -1.7158,0.45118c-0.58789,0 -1.21223,-0.04785 -1.873,-0.14356l-0.25293,-1.5381c0.7884,0.14128 1.43327,0.21192 1.9346,0.21192c0.34636,0 0.57195,-0.05241 0.67676,-0.15723c0.11849,-0.11393 0.21648,-0.4694 0.29395,-1.0664c0.22331,-1.76827 0.3418,-3.5684 0.35547,-5.4004h-3.4863c-0.17318,1.8776 -0.57195,3.3815 -1.1963,4.5117c-0.8112,1.46287 -2.03027,2.65687 -3.6572,3.582l-1.0391,-1.2168c1.0208,-0.56055 1.89123,-1.26465 2.6113,-2.1123c0.54231,-0.63802 0.94335,-1.36035 1.2031,-2.167c0.25065,-0.76107 0.42155,-1.62693 0.5127,-2.5976h-4.1016z"/><path d="M155.54,266.79c1.0482,0.64258 2.33563,1.52441 3.8623,2.6455l0.2666,0.19824c1.08467,-1.61327 1.94373,-3.2835 2.5772,-5.0107l1.4971,0.69727c-0.73827,1.7682 -1.6725,3.5273 -2.8027,5.2773c1.33527,0.9844 2.58167,2.0713 3.7392,3.2607l-1.0801,1.2373c-0.71547,-0.78387 -1.82517,-1.79787 -3.3291,-3.042l-0.25292,-0.20507c-1.709,2.069 -3.72103,3.77113 -6.0361,5.1064l-0.99121,-1.3604c2.0508,-1.05273 3.97853,-2.6341 5.7832,-4.7441c-1.30793,-0.95707 -2.67057,-1.89587 -4.0879,-2.8164z"/><path d="M167.61,265.1h9.0166v1.4014h-9.0166zM166.63246,268.4496h11.382c-0.20052,1.987 -0.61522,3.54103 -1.2441,4.6621c-0.47396,0.84307 -1.06643,1.51527 -1.7774,2.0166c-1.20313,0.8568 -2.95313,1.4447 -5.25,1.7637l-0.69043,-1.3877c2.028,-0.19597 3.57977,-0.6608 4.6553,-1.3945c1.39453,-0.94333 2.19433,-2.36293 2.3994,-4.2588h-9.4746z"/><path d="M186.74,275.33c2.67513,-0.67447 4.0127,-2.208 4.0127,-4.6006c0,-1.0436 -0.26888,-1.9414 -0.80664,-2.6934c-0.60157,-0.84767 -1.51757,-1.39227 -2.748,-1.6338c-0.26888,2.1146 -0.63575,3.84637 -1.1006,5.1953c-0.31901,0.94333 -0.71547,1.83427 -1.1894,2.6728c-0.6836,1.194 -1.46063,1.791 -2.3311,1.791c-0.64713,0 -1.22363,-0.29167 -1.7295,-0.875c-0.32357,-0.36914 -0.58561,-0.82261 -0.78613,-1.3604c-0.26432,-0.69727 -0.39648,-1.44693 -0.39648,-2.249c0,-1.2988 0.35773,-2.4951 1.0732,-3.5889c0.7246,-1.11653 1.66567,-1.92773 2.8232,-2.4336c0.84307,-0.36914 1.7682,-0.55371 2.7754,-0.55371c1.57227,0 2.90757,0.42153 4.0059,1.2646c1.34893,1.03453 2.0234,2.4997 2.0234,4.3955c0,3.1764 -1.60643,5.19073 -4.8193,6.043zM185.7146,266.3476c-0.80667,0.09114 -1.48113,0.30761 -2.0234,0.64941c-0.34635,0.22331 -0.69042,0.51953 -1.0322,0.88867c-0.94793,1.0482 -1.4219,2.26273 -1.4219,3.6436c0,1.00713 0.20052,1.79553 0.60156,2.3652c0.24609,0.35091 0.48991,0.52637 0.73145,0.52637c0.32813,0 0.69726,-0.3623 1.1074,-1.0869c1.0026,-1.76367 1.68163,-4.09243 2.0371,-6.9863z"/><path d="M193.59,265.51h10.712l0.88183,0.74511c-0.25521,0.95247 -0.58789,1.7477 -0.99804,2.3857c-0.7702,1.20767 -1.9232,2.11 -3.459,2.707l-0.86133,-1.1758c1.06187,-0.31901 1.9437,-0.89094 2.6455,-1.7158c0.41471,-0.48763 0.7041,-1.00259 0.86817,-1.5449h-9.7891zM197.9718,268.4631h1.5654v1.1758c0,1.76367 -0.19596,3.1263 -0.58789,4.0879c-0.49675,1.22133 -1.46288,2.21483 -2.8984,2.9805l-1.1279,-1.1894c0.98893,-0.4694 1.71127,-1.02993 2.167,-1.6816c0.35091,-0.50586 0.58106,-1.04133 0.69043,-1.6064c0.12761,-0.64713 0.19141,-1.5153 0.19141,-2.6045z"/><path d="M207.68,266.34h9.4062v1.4697h-9.4062zM206.2923,274.1672h12.182v1.4834h-12.182z"/><path d="M221.9,266.79c1.0482,0.64258 2.33563,1.52441 3.8623,2.6455l0.2666,0.19824c1.08467,-1.61327 1.94373,-3.2835 2.5772,-5.0107l1.4971,0.69727c-0.73827,1.7682 -1.6725,3.5273 -2.8027,5.2773c1.33527,0.9844 2.5817,2.0713 3.7393,3.2607l-1.0801,1.2373c-0.71547,-0.78387 -1.82517,-1.79787 -3.3291,-3.042l-0.25293,-0.20507c-1.709,2.069 -3.72103,3.77113 -6.0361,5.1064l-0.99121,-1.3604c2.0508,-1.05273 3.97853,-2.6341 5.7832,-4.7441c-1.30793,-0.95707 -2.67057,-1.89587 -4.0879,-2.8164z"/><path d="M232.8,269.75h12.038v1.5381h-12.038z"/><path d="M251.56,267.73c-1.3444,-0.60157 -2.71613,-1.10517 -4.1152,-1.5108l0.44433,-1.3535c1.5768,0.39193 2.95993,0.87043 4.1494,1.4355zM250.1586,271.23c-1.12107,-0.49219 -2.4928,-0.99579 -4.1152,-1.5108l0.58789,-1.3672c1.39453,0.36914 2.74807,0.85904 4.0606,1.4697zM246.9252,274.9966c1.86393,-0.15495 3.32453,-0.43751 4.3818,-0.84766c1.56313,-0.59701 2.79133,-1.66341 3.6846,-3.1992c0.59701,-1.0254 1.06867,-2.32193 1.415,-3.8896l1.3809,0.79981c-0.44206,1.9642 -1.05956,3.52963 -1.8525,4.6963c-0.92967,1.3626 -2.2262,2.36977 -3.8896,3.0215c-1.1712,0.45117 -2.73207,0.76791 -4.6826,0.9502z"/><path d="M259.55,267.37h8.415v8.9893h-8.7363v-1.2988h7.294v-2.707h-6.6924v-1.2852h6.6924v-2.3994h-6.9727z"/><path d="M275.47,268.21c-1.44013,-0.64258 -2.9372,-1.15755 -4.4912,-1.5449l0.47851,-1.4697c1.80013,0.41016 3.31087,0.92056 4.5322,1.5312zM271.1497,275.0118c2.25587,-0.19141 3.98307,-0.59474 5.1816,-1.21c1.41273,-0.7292 2.49737,-1.848 3.2539,-3.3564c0.49219,-0.97527 0.89095,-2.2513 1.1963,-3.8281l1.3125,0.96386c-0.36914,1.6862 -0.81574,3.02603 -1.3398,4.0195c-0.94793,1.80927 -2.39717,3.1195 -4.3477,3.9307c-1.23047,0.51041 -2.87563,0.87501 -4.9355,1.0938z"/></g><g><path d="M145.81,308.7v4.0059h-3.8486v0.7041h-1.415v-4.71zM141.9614,309.8621v1.6816h2.4336v-1.6816zM148.9888,304.5711v-4.4639h1.4834v4.4639h2.7549v1.4014h-2.7549v7.4375h-1.4834v-7.4375h-2.8027v-1.4014zM140.8404,300.6131h4.6621v1.1348h-4.6621zM139.99958,302.616h6.2754v1.2305h-6.2754zM140.8404,304.7146h4.6621v1.1348h-4.6621zM140.8404,306.7175h4.6621v1.0938h-4.6621z"/><path d="M158.82,310.92c-0.30534,1.33527 -1.41731,2.20343 -3.3359,2.6045l-0.78613,-1.1758c1.39,-0.20964 2.2422,-0.68587 2.5566,-1.4287h-3.3223v-1.1348h3.459v-0.78613h-1.627v-5.5303h5.1748l-1.0869,-0.73828c0.7018,-0.66993 1.24867,-1.58593 1.6406,-2.748l1.415,0.23925c-0.12305,0.31901 -0.24154,0.59929 -0.35547,0.84082h4.3887v1.1074h-2.543c0.19597,0.22786 0.39877,0.48307 0.6084,0.76562l-1.415,0.36231c-0.22331,-0.38737 -0.47168,-0.76334 -0.74512,-1.1279h-0.88183c-0.31901,0.51953 -0.64942,0.95246 -0.99121,1.2988h4.457v5.5303h-1.5176v0.78613h3.3223v1.1348h-3.3223v2.4951h-1.5244v-2.4951zM158.8884,309.7852h3.5v-0.78613h-3.5zM163.9265,308.0625v-0.64257h-6.6514v0.64257zM163.9265,306.5244v-0.61524h-6.6514v0.61524zM163.9265,305.0137v-0.62207h-6.6514v0.62207zM158.5671,302.1699c0.21419,0.29622 0.40104,0.59016 0.56054,0.88183l-1.4287,0.30762c-0.23698,-0.50586 -0.45345,-0.90233 -0.64941,-1.1894h-0.75879c-0.40104,0.56055 -0.87044,1.08235 -1.4082,1.5654l-1.0049,-0.93653c0.93427,-0.7292 1.6019,-1.67713 2.0029,-2.8438l1.4834,0.23926c-0.1276,0.30534 -0.25976,0.59473 -0.39648,0.86816h3.1377v1.1074z"/><path d="M172.33,301.84h1.791v1.2305h-1.791v1.4287h2.2012v1.2852h-2.3516v3.0352c0,0.38737 -0.09343,0.66764 -0.28028,0.84082c-0.17317,0.15951 -0.45117,0.23926 -0.83398,0.23926c-0.24609,0 -0.63346,-0.02733 -1.1621,-0.082l-0.21875,-1.1895c0.39649,0.0638 0.70866,0.0957 0.93652,0.0957c0.14128,0 0.22331,-0.03418 0.2461,-0.10254c0.0182,-0.041 0.0273,-0.1048 0.0273,-0.19141v-2.6455h-2.96v-1.2852h0.86816v-3.1787h1.2578v3.1787h0.9707v-4.3955h1.2988zM174.8388,308.3615v-5.25h1.7295c0.05927,-0.20052 0.15497,-0.60155 0.28711,-1.2031h-2.4814v-1.2441h6.8086v1.2441h-2.919c-0.12305,0.42383 -0.26204,0.82486 -0.41699,1.2031h2.707v7.4375h-5.7148v-2.0303l-0.93653,0.60156c-0.48307,-1.14847 -0.93197,-2.02347 -1.3467,-2.625l0.93653,-0.51953c0.47396,0.67907 0.92286,1.4743 1.3467,2.3857zM179.207,304.1916h-3.0488v1.0664h3.0488zM179.207,306.2834h-3.0488v1.0322h3.0488zM179.207,308.341h-3.0488v1.1143h3.0488zM173.622,312.593c0.91147,-0.49675 1.72267,-1.15528 2.4336,-1.9756l1.1348,0.69727c-0.83853,0.99807 -1.68847,1.7409 -2.5498,2.2285zM180.2597,313.47483c-0.67447,-0.8112 -1.4082,-1.51073 -2.2012,-2.0986l1.0254,-0.78613c0.875,0.59245 1.6338,1.24185 2.2764,1.9482zM167.8247,308.94943c0.57421,-0.67447 1.04135,-1.60187 1.4014,-2.7822l1.1484,0.36231c-0.39193,1.45833 -0.92056,2.55437 -1.5859,3.2881zM168.24169,312.19653c2.2604,-0.7064 3.7962,-1.93687 4.6074,-3.6914l1.0117,0.86816c-1.06187,1.8776 -2.63413,3.19237 -4.7168,3.9443z"/><path d="M189.65,301.34h5.3594v1.1484h-3.0352v1.1348h2.8438v1.1074h-2.8438v2.0371h-5.5029v-2.0371h-2.2422v1.2715c0,2.06447 -0.10938,3.69597 -0.32813,4.8945c-0.16862,0.91147 -0.44206,1.74317 -0.82031,2.4951l-1.2441,-0.98437c0.34635,-0.75193 0.58333,-1.67023 0.71094,-2.7549c0.11393,-0.95247 0.17089,-2.16927 0.17089,-3.6504v-4.6621h5.4072v-1.2305h1.5244zM184.2291,302.4884v1.1348h2.2422v-1.1348zM187.9273,302.4884v1.1348h2.5908v-1.1348zM187.9273,304.7306v1.0596h2.5908v-1.0596zM189.5132,311.9083c-1.31707,0.6836 -2.9896,1.20313 -5.0176,1.5586l-0.71094,-1.2578c1.90493,-0.22787 3.39743,-0.5765 4.4775,-1.0459c-0.92513,-0.66993 -1.71583,-1.46517 -2.3721,-2.3857h-0.94336v-1.1895h8.0049l0.71778,0.60157c-0.67907,1.0436 -1.6475,2.0257 -2.9053,2.9463c1.08007,0.43294 2.55207,0.75195 4.416,0.95703l-0.79981,1.292c-1.78647,-0.24154 -3.40887,-0.73374 -4.8672,-1.4766zM187.4829,308.7774c0.55143,0.64713 1.22137,1.2168 2.0098,1.709c0.88867,-0.57422 1.57453,-1.14389 2.0576,-1.709z"/><path d="M199.47,301.83v-1.7226h1.415v1.7226h2.8438v1.2168h-2.8438v1.4287h3.3906v1.2305h-3.3906v1.333h2.8984v3.7666c0,0.40104 -0.12077,0.68359 -0.3623,0.84766c-0.17773,0.12305 -0.45801,0.18457 -0.84082,0.18457c-0.39193,0 -0.76106,-0.0228 -1.1074,-0.0684l-0.22559,-1.2988c0.38737,0.07291 0.71321,0.10937 0.97754,0.10937c0.15039,0 0.22559,-0.08431 0.22559,-0.25293v-2.0986h-1.5654v5.1816h-1.415v-5.1816h-1.4561v3.8486h-1.3604v-5.0381h2.8164v-1.333h-3.5274v-1.2305h3.5274v-1.4287h-1.6201c-0.18229,0.40104 -0.39876,0.78841 -0.64941,1.1621l-1.1758,-0.74512c0.58789,-0.82033 0.98893,-1.7842 1.2031,-2.8916l1.3604,0.19141c-0.07291,0.29167 -0.16862,0.64713 -0.28711,1.0664zM204.5901,301.2011h1.4014v8.6953h-1.4014zM207.2698,300.42864h1.4424v11.478c0,0.44661 -0.10937,0.77474 -0.32812,0.98437c-0.22331,0.21419 -0.62664,0.32129 -1.21,0.32129c-0.60157,0 -1.21453,-0.0319 -1.8389,-0.0957l-0.29394,-1.4287c0.63346,0.09115 1.22589,0.13672 1.7773,0.13672c0.20963,0 0.33952,-0.0319 0.38965,-0.0957c0.041,-0.05013 0.0615,-0.15723 0.0615,-0.32129z"/><path d="M221.03,309.85c0.60612,0.8294 1.41275,1.50617 2.4199,2.0303l-0.86817,1.3467c-1.112,-0.64713 -1.99383,-1.47427 -2.6455,-2.4814c-0.69727,-1.07093 -1.19173,-2.3356 -1.4834,-3.794h-1.3945v4.5049c0.916,-0.25065 1.82063,-0.54915 2.7139,-0.8955l0.16406,1.2783c-1.50393,0.65169 -3.12177,1.16896 -4.8535,1.5518l-0.51953,-1.3467c0.56966,-0.11849 0.93879,-0.19597 1.1074,-0.23243v-11.197h6.5762v6.2891l0.97754,0.88867c-0.75653,0.84767 -1.48797,1.53353 -2.1943,2.0576zM220.42844,308.8041c0.67907,-0.67447 1.2191,-1.29197 1.6201,-1.8525h-2.2422c0.16862,0.73827 0.37598,1.35577 0.62207,1.8525zM220.84543,301.8041h-3.7871v1.4014h3.7871zM220.84543,304.3266h-3.7871v1.4629h3.7871zM213.81813,304.98969c0.8568,1.1074 1.2852,2.28317 1.2852,3.5273c0,0.65169 -0.10254,1.12793 -0.30762,1.4287c-0.23698,0.3418 -0.69728,0.5127 -1.3809,0.5127c-0.39649,0 -0.77475,-0.02963 -1.1348,-0.0889l-0.28027,-1.4082l0.28027,0.0342c0.44662,0.05927 0.75652,0.0889 0.92969,0.0889c0.22787,0 0.36231,-0.05696 0.40332,-0.17089c0.041,-0.10482 0.0615,-0.28483 0.0615,-0.54004c0,-1.10287 -0.42153,-2.17383 -1.2646,-3.2129c0.42383,-0.9798 0.77246,-2.0804 1.0459,-3.3018h-1.5928v11.553h-1.415v-12.838h3.9102l0.71094,0.60156c-0.31901,1.38087 -0.73601,2.65237 -1.251,3.8145z"/></g><path d="M140,361.08h1.832v7.0957c0,0.79293 0.1709,1.4264 0.5127,1.9004c0.52409,0.71547 1.30565,1.0732 2.3447,1.0732c1.153,0 1.9756,-0.42153 2.4678,-1.2646c0.25977,-0.44661 0.38965,-1.01628 0.38965,-1.709v-7.0957h1.832v7.4033c0,1.0664 -0.27572,1.93913 -0.82715,2.6182c-0.86133,1.0664 -2.15103,1.5996 -3.8691,1.5996c-1.7044,0 -2.98957,-0.5332 -3.8555,-1.5996c-0.55143,-0.67447 -0.82715,-1.5472 -0.82715,-2.6182z"/><path d="M151.4,361.08h4.7578v1.2578h-1.456v8.8252h1.456v1.2578h-4.7578v-1.2578h1.456v-8.8252h-1.456z"/><path d="M165.69,360.54h1.5381v2.7617h2.7412v1.4014h-2.7412v0.43066c0,2.3242 -0.33268,4.06963 -0.99805,5.2363c-0.64257,1.12107 -1.77507,1.98013 -3.3975,2.5772l-0.95703,-1.2168c1.58593,-0.54687 2.6478,-1.38997 3.1856,-2.5293c0.41927,-0.87953 0.6289,-2.2285 0.6289,-4.0469v-0.45117h-4.1494v3.917h-1.5381v-3.917h-2.5498v-1.4014h2.5498v-2.6592h1.5381v2.6592h4.1494z"/><path d="M176.33,372.8v-7.0137c-1.3854,0.92967 -2.96677,1.71353 -4.7441,2.3516l-0.82715,-1.3877c2.01887,-0.67907 3.78937,-1.55407 5.3115,-2.625c1.4948,-1.05273 2.82553,-2.25813 3.9922,-3.6162l1.3193,0.82715c-1.03453,1.18947 -2.18753,2.28093 -3.459,3.2744v8.1894z"/><path d="M183.44,361.63h7.5605l0.84082,1.0254c-0.40559,1.57227 -1.08689,3.09667 -2.0439,4.5732c1.48567,1.16213 2.94173,2.5111 4.3682,4.0469l-1.1211,1.292c-1.25327,-1.4264 -2.625,-2.8141 -4.1152,-4.1631c-1.54033,1.85027 -3.42707,3.25163 -5.6602,4.2041l-0.83399,-1.415c1.61787,-0.64258 2.94403,-1.41961 3.9785,-2.3311c1.21227,-1.06187 2.18297,-2.2946 2.9121,-3.6982c0.36458,-0.7064 0.63346,-1.41733 0.80664,-2.1328h-6.6924zM192.6959,363.004c-0.28711,-0.75193 -0.74968,-1.59277 -1.3877,-2.5225l1.0801,-0.38964c0.52409,0.72007 0.99575,1.54493 1.415,2.4746zM194.5758,362.69638c-0.36003,-0.92513 -0.82259,-1.77507 -1.3877,-2.5498l1.0322,-0.33496c0.54687,0.66537 1.00944,1.46743 1.3877,2.4062z"/><g><path d="M147.25,524.7v0.9775h3.7256v1.1211h-3.7256v1.0049h4.2861v1.2031h-4.2861v2.3584h-1.4697v-2.3584h-3.9307v-1.2031h3.9307v-1.0049h-3.3428v-1.1211h3.3428v-0.9775h-2.9531v-1.0391h2.9531v-1.0732h-4.1016v-1.1074h4.1016v-1.0528h-2.8848v-1.08h2.8848v-1.2852h1.4697v1.2852h3.418v2.1328h1.1894v1.1074h-1.1894v2.1123zM147.25,523.6609h1.9893v-1.0732h-1.9893zM147.25,521.4803h1.9893v-1.0528h-1.9893zM140.9541,521.3094c-0.56966,-0.78387 -1.25096,-1.5062 -2.0439,-2.167l1.0596,-0.9981c0.8568,0.65627 1.55407,1.3467 2.0918,2.0713zM140.47559,524.8641c-0.66081,-0.87047 -1.35125,-1.61103 -2.0713,-2.2217l1.0527,-1.0254c0.73373,0.556 1.4515,1.26467 2.1533,2.126zM138.64359,530.3123c0.875,-1.431 1.62013,-3.042 2.2354,-4.833l1.1963,0.8408c-0.56967,1.8138 -1.28517,3.48407 -2.1465,5.0108z"/><path d="M162.59,528.4c0.87953,0.62433 2.00063,1.15753 3.3633,1.5996l-0.76562,1.3672c-1.43553,-0.56513 -2.62043,-1.2191 -3.5547,-1.9619c-0.96613,0.86133 -2.06217,1.54493 -3.2881,2.0508l-0.95703,-1.0801c1.2624,-0.4466 2.3516,-1.07323 3.2676,-1.8799c-1.03907,-1.14847 -1.7842,-2.3516 -2.2354,-3.6094h-0.2666c-0.02733,1.23047 -0.13671,2.2946 -0.32812,3.1924c-0.23698,1.1074 -0.68131,2.16697 -1.333,3.1787l-1.1074,-1.0117c0.60156,-0.9798 0.99576,-2.07583 1.1826,-3.2881c0.11849,-0.75647 0.17774,-1.6064 0.17774,-2.5498v-4.4365h3.582v-1.9004h1.456v1.9004h3.1377l0.71094,0.6152c-0.28255,0.9388 -0.61296,1.79787 -0.99122,2.5772l-1.3877,-0.4102c0.30078,-0.4922 0.52409,-0.98667 0.66992,-1.4834h-2.1396v2.4131h2.2695l0.6836,0.5879c-0.54232,1.62693 -1.25782,3.00323 -2.1465,4.1289zM161.5441,527.5387c0.68813,-0.87047 1.16437,-1.7546 1.4287,-2.6524h-3.2744c0.42839,0.96613 1.04362,1.85027 1.8457,2.6524zM160.3273,521.2701h-2.167v2.4131h2.167zM155.2482,521.5846c-0.60157,-0.8158 -1.33983,-1.58143 -2.2148,-2.2969l1.0664,-1.0322c0.8522,0.6152 1.61783,1.33753 2.2969,2.167zM154.62613,524.8863c-0.65169,-0.83853 -1.37859,-1.5882 -2.1807,-2.249l1.0527,-1.0254c0.7884,0.56053 1.53807,1.27377 2.249,2.1397zM152.60273,530.2936c0.8568,-1.2852 1.6156,-2.8438 2.2764,-4.6758l1.2373,0.8545c-0.61067,1.81833 -1.34894,3.46123 -2.2148,4.9287z"/><path d="M169.59,520.7v10.698h-1.4287v-13.303h1.4287v2.0713l0.65625,-0.5469c0.39648,0.68813 0.71093,1.35123 0.94336,1.9893l-0.92969,0.9228c-0.24154,-0.7702 -0.46485,-1.38087 -0.66992,-1.832zM175.8859,519.0047h3.541v1.0254h-3.541v0.6562h3.0557v0.9776h-3.0557v0.6767h3.9922v1.0938h-9.2148v-1.0938h3.8076v-0.6767h-2.9668v-0.9776h2.9668v-0.6562h-3.3701v-1.0254h3.3701v-0.9092h1.415zM178.7297,524.159v6.0019c0,0.41927 -0.10026,0.7246 -0.30079,0.916c-0.19596,0.18687 -0.53093,0.2803 -1.0049,0.2803c-0.56055,0 -1.13705,-0.03873 -1.7295,-0.1162l-0.19824,-1.2305c0.60612,0.07293 1.08692,0.1094 1.4424,0.1094c0.18229,0 0.29167,-0.04557 0.32813,-0.1367c0.0228,-0.05467 0.0342,-0.13897 0.0342,-0.2529v-0.8819h-4.1973v2.5498h-1.4287v-7.2392zM173.1037,525.1639v0.7998h4.1973v-0.7998zM173.1037,526.9685v0.8409h4.1973v-0.8409zM166.2267,525.2322c0.20507,-0.94793 0.35318,-2.17383 0.44433,-3.6777l0.0342,-0.5606l1.1621,0.1094c-0.05467,1.95053 -0.21417,3.5342 -0.47851,4.751z"/><path d="M183.25,519.5v-1.4287h1.4287v1.4287h2.126v1.2031h-2.126v1.1758h2.4199v1.2168h-0.81348c-0.14583,0.54233 -0.3418,1.11657 -0.58789,1.7227h1.3193v1.1894h-2.3379v1.2647h2.249v1.2168h-2.249v2.8847h-1.4287v-2.8847h-2.4131v-1.2168h2.4131v-1.2647h-2.5225v-1.1894h1.2578c-0.14583,-0.60613 -0.32357,-1.18037 -0.5332,-1.7227h-1.0049v-1.2168h2.8027v-1.1758h-2.2285v-1.2031zM184.9522,523.0957h-2.1738c0.15495,0.43293 0.32129,1.00717 0.49902,1.7227h1.1348c0.23697,-0.58333 0.41699,-1.15757 0.54004,-1.7227zM193.2442,518.5635v3.1992c0,0.39647 -0.07292,0.67673 -0.21875,0.8408c-0.17318,0.196 -0.53548,0.294 -1.0869,0.294c-0.53776,0 -1.07553,-0.02267 -1.6133,-0.068l-0.23242,-1.2305c0.75653,0.08207 1.23733,0.1231 1.4424,0.1231c0.21419,0 0.32129,-0.09343 0.32129,-0.2803v-1.6474h-2.9941v3.9716h3.876l0.81347,0.6973c-0.24609,1.4492 -0.69499,2.74347 -1.3467,3.8828l-0.0752,0.1367c0.5013,0.5788 1.12793,1.10747 1.8799,1.586l-0.76562,1.2783c-0.72007,-0.46487 -1.36263,-1.02087 -1.9277,-1.668c-0.48763,0.6198 -1.03679,1.20313 -1.6475,1.75l-0.80664,-1.1211v1.0664h-1.3877v-12.81zM188.8624,524.9961v5.168c0.56055,-0.3828 1.10058,-0.92057 1.6201,-1.6133c-0.69727,-1.07553 -1.18717,-2.26043 -1.4697,-3.5547zM191.2413,527.3408c0.4056,-0.78387 0.66992,-1.56543 0.79297,-2.3447h-1.7637c0.22331,0.875 0.54688,1.65657 0.97071,2.3447z"/><path d="M204.47,521.4c0.61523,-0.51493 1.21223,-1.12333 1.791,-1.8252l1.1211,0.8682c-0.49219,0.54687 -1.09149,1.0869 -1.7979,1.6201c0.60157,0.31447 1.35123,0.63803 2.249,0.9707l-0.74512,1.2032c-0.82033,-0.31907 -1.56773,-0.67683 -2.2422,-1.0733v0.711h-1.2715v1.8388h3.9512v1.3194h-3.9512v2.29c0,0.24153 0.05241,0.3851 0.15723,0.4307c0.14127,0.05933 0.43294,0.089 0.875,0.089c0.48307,0 0.81347,-0.02967 0.99121,-0.089c0.17773,-0.05467 0.29166,-0.20737 0.34179,-0.4581c0.0638,-0.30987 0.09798,-0.75647 0.10254,-1.3398l1.4971,0.4443c-0.05013,1.21227 -0.18229,1.97333 -0.39648,2.2832c-0.18685,0.26893 -0.47852,0.43073 -0.875,0.4854c-0.40104,0.05467 -1.05044,0.082 -1.9482,0.082c-0.84767,0 -1.39453,-0.0524 -1.6406,-0.1572c-0.40104,-0.1686 -0.60156,-0.54913 -0.60156,-1.1416v-2.9189h-2.1533c-0.10482,1.18033 -0.49219,2.10317 -1.1621,2.7685c-0.73827,0.73827 -1.82747,1.29427 -3.2676,1.668l-0.88184,-1.3057c1.28973,-0.26887 2.23993,-0.66533 2.8506,-1.1894c0.33268,-0.29167 0.57422,-0.64713 0.72461,-1.0664c0.08203,-0.2188 0.15039,-0.51047 0.20508,-0.875h-3.5957v-1.3194h3.6641v-1.8388h-1.0664v-0.5674c-0.80207,0.50127 -1.62237,0.90457 -2.4609,1.2099l-0.68359,-1.1484c0.98893,-0.33727 1.91407,-0.7725 2.7754,-1.3057c-0.49675,-0.47393 -1.05728,-0.92053 -1.6816,-1.3398l0.99121,-0.9776c0.7064,0.4922 1.30797,0.98897 1.8047,1.4903c0.53776,-0.46033 0.99576,-0.9434 1.374,-1.4492h-2.4678v-1.2852h4.6963c0.37369,0.6198 0.75649,1.1416 1.1484,1.5654c0.5332,-0.47393 1.09147,-1.0527 1.6748,-1.7363l1.1074,0.8682c-0.55143,0.597 -1.17577,1.16667 -1.873,1.709c0.25065,0.19593 0.47396,0.35997 0.66993,0.4921zM202.0774,523.8747h-2.1055v1.8388h2.1055zM198.4065,522.6168h5.5713c-1.1348,-0.76107 -2.1146,-1.63833 -2.9394,-2.6318c-0.65625,0.93427 -1.53352,1.81153 -2.6318,2.6318z"/><path d="M217.16,528.5l0.0957,1.2237c-1.97787,0.69727 -4.17677,1.27147 -6.5967,1.7226l-0.50586,-1.3672c0.41927,-0.064 1.0117,-0.16653 1.7773,-0.3076v-2.5019c-0.7884,0.401 -1.7272,0.78153 -2.8164,1.1416l-0.77929,-1.2168c2.19207,-0.59247 3.8646,-1.349 5.0176,-2.2696h-4.8809v-1.1894h5.8584v-1.0322h-4.4297v-1.1485h4.4297v-0.9638h-5.127v-1.1758h5.127v-1.3467h1.4971v1.3467h5.2774v1.1758h-5.2774v0.9638h4.5801v1.1485h-4.5801v1.0322h6.0088v1.1894h-1.6338l1.0117,0.6973c-0.62435,0.60613 -1.49935,1.26923 -2.625,1.9893l-0.15722,0.1025c0.8568,0.78387 2.0189,1.431 3.4863,1.9414l-0.92286,1.3877c-1.59047,-0.67447 -2.8688,-1.52213 -3.835,-2.543zM215.0887,524.9454c-0.45573,0.5332 -1.00489,1.0117 -1.6475,1.4355v3.0693c1.12567,-0.2506 2.25587,-0.54227 3.3906,-0.875l0.31445,-0.089c-0.93427,-1.03453 -1.62013,-2.21487 -2.0576,-3.541zM217.5838,526.8116c0.8112,-0.5788 1.52213,-1.20773 2.1328,-1.8868h-3.2334c0.29167,0.69727 0.65853,1.3262 1.1006,1.8868z"/><path d="M228.34,520.6v-2.5088h1.5381v2.5088h5.0723v7.2324h-1.5107v-0.9502h-3.5615v4.5117h-1.5381v-4.5117h-3.4727v1.0254h-1.5107v-7.3076zM224.8673,522.0014v3.4794h3.4727v-3.4794zM233.4396,525.4808v-3.4794h-3.5615v3.4794z"/><path d="M245.13,518.6h1.4971v2.4746h2.7891v1.3603h-2.7891v4.1973c1.08007,0.49673 2.14877,1.194 3.2061,2.0918l-0.76563,1.3535c-0.8932,-0.77927 -1.71123,-1.39907 -2.4541,-1.8594c-0.08203,1.11653 -0.4785,1.86393 -1.1894,2.2422c-0.39649,0.20967 -0.93882,0.3145 -1.627,0.3145c-0.7474,0 -1.3968,-0.13447 -1.9482,-0.4034c-0.834,-0.4056 -1.251,-1.08007 -1.251,-2.0234c0,-0.74287 0.31673,-1.33303 0.95019,-1.7705c0.57878,-0.40107 1.32161,-0.6016 2.2285,-0.6016c0.41471,0 0.86588,0.05243 1.3535,0.1573v-3.6983h-4.3955v-1.3603h4.3955zM245.13,527.4593c-0.5332,-0.1686 -1.00717,-0.2529 -1.4219,-0.2529c-0.39649,0 -0.73372,0.06153 -1.0117,0.1846c-0.4375,0.1868 -0.65625,0.49213 -0.65625,0.916c0,0.34633 0.1595,0.6175 0.47851,0.8135c0.3099,0.1914 0.72463,0.2871 1.2442,0.2871c0.91147,0 1.3672,-0.5127 1.3672,-1.5381zM237.7062,530.7474c-0.1595,-1.50387 -0.23925,-3.08523 -0.23925,-4.7441c0,-2.58853 0.17318,-5.0563 0.51953,-7.4033l1.5039,0.2187c-0.34179,2.02347 -0.51269,4.21097 -0.51269,6.5625c0,1.7272 0.08659,3.43847 0.25976,5.1338z"/><path d="M259.25,524.7v0.9775h3.7256v1.1211h-3.7256v1.0049h4.2861v1.2031h-4.2861v2.3584h-1.4697v-2.3584h-3.9307v-1.2031h3.9307v-1.0049h-3.3428v-1.1211h3.3428v-0.9775h-2.9531v-1.0391h2.9531v-1.0732h-4.1016v-1.1074h4.1016v-1.0528h-2.8848v-1.08h2.8848v-1.2852h1.4697v1.2852h3.418v2.1328h1.1894v1.1074h-1.1894v2.1123zM259.25,523.6609h1.9893v-1.0732h-1.9893zM259.25,521.4803h1.9893v-1.0528h-1.9893zM252.9541,521.3094c-0.56966,-0.78387 -1.25096,-1.5062 -2.0439,-2.167l1.0596,-0.9981c0.8568,0.65627 1.55407,1.3467 2.0918,2.0713zM252.47559,524.8641c-0.66081,-0.87047 -1.35125,-1.61103 -2.0713,-2.2217l1.0527,-1.0254c0.73373,0.556 1.4515,1.26467 2.1533,2.126zM250.64359,530.3123c0.875,-1.431 1.62013,-3.042 2.2354,-4.833l1.1963,0.8408c-0.56966,1.8138 -1.28516,3.48407 -2.1465,5.0108z"/><path d="M274.59,528.4c0.87953,0.62433 2.00063,1.15753 3.3633,1.5996l-0.76562,1.3672c-1.43553,-0.56513 -2.62043,-1.2191 -3.5547,-1.9619c-0.96613,0.86133 -2.06217,1.54493 -3.2881,2.0508l-0.95704,-1.0801c1.2624,-0.4466 2.3516,-1.07323 3.2676,-1.8799c-1.03907,-1.14847 -1.7842,-2.3516 -2.2354,-3.6094h-0.2666c-0.02733,1.23047 -0.13671,2.2946 -0.32813,3.1924c-0.23697,1.1074 -0.68131,2.16697 -1.333,3.1787l-1.1074,-1.0117c0.60156,-0.9798 0.99576,-2.07583 1.1826,-3.2881c0.11849,-0.75647 0.17774,-1.6064 0.17774,-2.5498v-4.4365h3.582v-1.9004h1.456v1.9004h3.1377l0.71094,0.6152c-0.28255,0.9388 -0.61296,1.79787 -0.99122,2.5772l-1.3877,-0.4102c0.30078,-0.4922 0.52409,-0.98667 0.66992,-1.4834h-2.1396v2.4131h2.2695l0.6836,0.5879c-0.54232,1.62693 -1.25782,3.00323 -2.1465,4.1289zM273.5441,527.5387c0.68813,-0.87047 1.16437,-1.7546 1.4287,-2.6524h-3.2744c0.42839,0.96613 1.04362,1.85027 1.8457,2.6524zM272.3273,521.2701h-2.167v2.4131h2.167zM267.2482,521.5846c-0.60157,-0.8158 -1.33983,-1.58143 -2.2148,-2.2969l1.0664,-1.0322c0.8522,0.6152 1.61783,1.33753 2.2969,2.167zM266.62613,524.8863c-0.65169,-0.83853 -1.37859,-1.5882 -2.1807,-2.249l1.0527,-1.0254c0.7884,0.56053 1.53807,1.27377 2.249,2.1397zM264.60273,530.2936c0.8568,-1.2852 1.6156,-2.8438 2.2764,-4.6758l1.2373,0.8545c-0.61068,1.81833 -1.34895,3.46123 -2.2148,4.9287z"/><path d="M141.59,538.2v10.698h-1.4287v-13.303h1.4287v2.0713l0.65625,-0.5469c0.39648,0.68813 0.71093,1.35123 0.94336,1.9893l-0.92969,0.9228c-0.24154,-0.7702 -0.46485,-1.38087 -0.66992,-1.832zM147.8859,536.5047h3.541v1.0254h-3.541v0.6562h3.0557v0.9776h-3.0557v0.6767h3.9922v1.0938h-9.2148v-1.0938h3.8076v-0.6767h-2.9668v-0.9776h2.9668v-0.6562h-3.3701v-1.0254h3.3701v-0.9092h1.415zM150.7297,541.659v6.0019c0,0.41927 -0.10026,0.7246 -0.30079,0.916c-0.19596,0.18687 -0.53093,0.2803 -1.0049,0.2803c-0.56055,0 -1.13705,-0.03873 -1.7295,-0.1162l-0.19824,-1.2305c0.60612,0.07293 1.08692,0.1094 1.4424,0.1094c0.18229,0 0.29167,-0.04557 0.32813,-0.1367c0.0228,-0.05467 0.0342,-0.13897 0.0342,-0.2529v-0.8819h-4.1973v2.5498h-1.4287v-7.2392zM145.1037,542.6639v0.7998h4.1973v-0.7998zM145.1037,544.4685v0.8409h4.1973v-0.8409zM138.2267,542.7322c0.20507,-0.94793 0.35318,-2.17383 0.44433,-3.6777l0.0342,-0.5606l1.1621,0.1094c-0.05467,1.95053 -0.21417,3.5342 -0.47851,4.751z"/><path d="M155.25,537v-1.4287h1.4287v1.4287h2.126v1.2031h-2.126v1.1758h2.4199v1.2168h-0.81348c-0.14583,0.54233 -0.3418,1.11657 -0.58789,1.7227h1.3193v1.1894h-2.3379v1.2647h2.249v1.2168h-2.249v2.8847h-1.4287v-2.8847h-2.4131v-1.2168h2.4131v-1.2647h-2.5225v-1.1894h1.2578c-0.14583,-0.60613 -0.32357,-1.18037 -0.5332,-1.7227h-1.0049v-1.2168h2.8027v-1.1758h-2.2285v-1.2031zM156.9522,540.5957h-2.1738c0.15495,0.43293 0.32129,1.00717 0.49902,1.7227h1.1348c0.23697,-0.58333 0.41699,-1.15757 0.54004,-1.7227zM165.2442,536.0635v3.1992c0,0.39647 -0.07292,0.67673 -0.21875,0.8408c-0.17318,0.196 -0.53548,0.294 -1.0869,0.294c-0.53776,0 -1.07553,-0.02267 -1.6133,-0.068l-0.23242,-1.2305c0.75653,0.08207 1.23733,0.1231 1.4424,0.1231c0.21419,0 0.32129,-0.09343 0.32129,-0.2803v-1.6474h-2.9941v3.9716h3.876l0.81347,0.6973c-0.24609,1.4492 -0.69499,2.74347 -1.3467,3.8828l-0.0752,0.1367c0.5013,0.5788 1.12793,1.10747 1.8799,1.586l-0.76562,1.2783c-0.72007,-0.46487 -1.36263,-1.02087 -1.9277,-1.668c-0.48763,0.6198 -1.03679,1.20313 -1.6475,1.75l-0.80664,-1.1211v1.0664h-1.3877v-12.81zM160.8624,542.4961v5.168c0.56055,-0.3828 1.10058,-0.92057 1.6201,-1.6133c-0.69727,-1.07553 -1.18717,-2.26043 -1.4697,-3.5547zM163.2413,544.8408c0.4056,-0.78387 0.66992,-1.56543 0.79297,-2.3447h-1.7637c0.22331,0.875 0.54688,1.65657 0.97071,2.3447z"/><path d="M176.96,537.4l0.97754,0.7998c-0.63802,2.91667 -1.67252,5.1748 -3.1035,6.7744c-0.793,0.88413 -1.8184,1.6589 -3.0762,2.3243c-0.8932,0.4694 -1.8525,0.8431 -2.8779,1.1211l-0.79297,-1.3467c2.34247,-0.61067 4.16083,-1.58593 5.4551,-2.9258c-1.0664,-0.957 -2.2422,-1.80467 -3.5274,-2.543l0.89551,-1.1074c1.25327,0.65167 2.445,1.45377 3.5752,2.4063c0.88867,-1.42193 1.44693,-2.79823 1.6748,-4.1289h-4.8125c-1.10287,1.71807 -2.4017,3.03283 -3.8965,3.9443l-1.0049,-1.0869c1.44467,-0.87047 2.63183,-2.0212 3.5615,-3.4522c0.47851,-0.72913 0.84991,-1.51527 1.1142,-2.3584l1.4834,0.3623c-0.15039,0.4102 -0.31901,0.8158 -0.50586,1.2168z"/><path d="M179.57,537.7h9.0439l1.4697,1.2852c-0.17773,1.85027 -0.48763,3.2995 -0.92969,4.3477c-0.64713,1.54033 -1.72037,2.73207 -3.2197,3.5752c-0.99347,0.56507 -2.35837,1.05267 -4.0947,1.4628l-0.78614,-1.3876c1.52213,-0.278 2.72753,-0.63803 3.6162,-1.0801c1.4492,-0.71553 2.4746,-1.80473 3.0762,-3.2676c0.37369,-0.91147 0.58789,-2.0804 0.64258,-3.5068h-8.8184zM189.3864,538.0555c-0.28255,-0.86587 -0.64259,-1.6611 -1.0801,-2.3857l1.0938,-0.253c0.38281,0.5332 0.74511,1.29427 1.0869,2.2832zM191.3415,537.7752c-0.25521,-0.7884 -0.62664,-1.54947 -1.1143,-2.2832l1.0322,-0.2529c0.4694,0.61067 0.85677,1.333 1.1621,2.167z"/><path d="M194.01,537.5h3.6846c0.4056,-0.64713 0.71322,-1.16893 0.92285,-1.5654l1.5244,0.2187c-0.13672,0.24613 -0.37826,0.64717 -0.72461,1.2031l-0.0889,0.1436h4.8193v1.3467h-5.7285c-0.59701,0.82027 -1.16667,1.5312 -1.709,2.1328c0.86133,-0.515 1.64747,-0.7725 2.3584,-0.7725c1.10287,0 1.8252,0.55373 2.167,1.6612c1.16667,-0.3874 2.35613,-0.77023 3.5684,-1.1485l0.58789,1.3262l-0.23926,0.068l-0.67676,0.1777c-1.27607,0.34633 -2.2969,0.64257 -3.0625,0.8887c0.05467,0.5924 0.0934,1.358 0.11621,2.2968l-1.4971,0.082c-0.00467,-0.54233 -0.01377,-1.13023 -0.0273,-1.7637v-0.1367c-2.09633,0.71547 -3.1445,1.4355 -3.1445,2.1601c0,0.37373 0.26888,0.62897 0.80664,0.7657c0.51953,0.13213 1.44923,0.1982 2.7891,0.1982c1.235,0 2.53153,-0.07063 3.8896,-0.2119l0.16406,1.456c-1.31707,0.10027 -2.68197,0.1504 -4.0947,0.1504c-1.74087,0 -2.97817,-0.13217 -3.7119,-0.3965c-0.90693,-0.32807 -1.3604,-0.91823 -1.3604,-1.7705c0,-0.72 0.32129,-1.35573 0.96387,-1.9072c0.66536,-0.56967 1.83659,-1.15757 3.5137,-1.7637c-0.09115,-0.35087 -0.21192,-0.59693 -0.36231,-0.7382c-0.16862,-0.15953 -0.39193,-0.2393 -0.66992,-0.2393c-0.45117,0 -1.01857,0.1709 -1.7022,0.5127c-0.84307,0.41927 -1.7477,1.05047 -2.7139,1.8936l-0.90918,-1.0391c1.41733,-1.31707 2.52703,-2.61133 3.3291,-3.8828h-2.7822z"/><path d="M208.67,542.8c-0.3418,1.14847 -0.7907,2.25817 -1.3467,3.3291l-0.69727,-1.5722c0.8294,-1.40367 1.45373,-2.98507 1.873,-4.7442h-1.6475v-1.333h1.8184v-2.8574h1.3604v2.8574h1.2168v1.333h-1.2168v1.0459c0.65169,0.55147 1.18716,1.0938 1.6064,1.627l-0.71094,1.2168c-0.30534,-0.48307 -0.60384,-0.8955 -0.89551,-1.2373v6.4599h-1.3604zM217.2218,537.1877v0.8682h2.2695v3.0283h-7.8682v-3.0283h2.1943v-0.8682h-2.4746v-1.1211h8.5791v1.1211zM216.0597,537.1877h-1.0801v0.8682h1.0801zM218.2745,539.0061h-1.1074v1.1416h1.1074zM216.0597,539.0061h-1.0801v1.1416h1.0801zM213.8927,539.0061h-1.0527v1.1416h1.0527zM216.34,544.9875v2.8164c0,0.3646 -0.06152,0.6312 -0.18457,0.7998c-0.16406,0.22333 -0.52179,0.335 -1.0732,0.335c-0.56055,0 -1.02538,-0.03417 -1.3945,-0.1025l-0.23243,-1.2168c0.53321,0.06833 0.93424,0.1025 1.2031,0.1025c0.13216,0 0.21647,-0.02967 0.25293,-0.089c0.03647,-0.05467 0.0547,-0.13897 0.0547,-0.2529v-2.3926h-3.8828v-1.1347h9.0918v1.1347zM211.9582,541.9387h7.2393v1.0664h-7.2393zM210.9533,547.6194c0.79753,-0.6608 1.39,-1.42643 1.7774,-2.2969l1.1758,0.5879c-0.52865,1.05273 -1.17805,1.93913 -1.9482,2.6592zM218.9445,548.4328c-0.4056,-0.77473 -0.9935,-1.64743 -1.7637,-2.6181l1.1074,-0.6426c0.7018,0.71547 1.29427,1.513 1.7774,2.3926z"/><path d="M230.31,538.1v0.8613h2.3242v0.9502h-2.3242v0.8477h2.3242v0.9639h-2.3242v0.8681h3.2197v1.0801h-5.3594v1.0049h5.9473v1.2441h-5.9473v2.9873h-1.4971v-2.9873h-5.8516v-1.2441h5.8516v-1.0049h-0.97754v-4.375c-0.24153,0.26433 -0.4899,0.52637 -0.74511,0.7861l-0.71094,-1.1484c1.112,-1.0664 1.91863,-2.22623 2.4199,-3.4795l1.3535,0.2803c-0.21875,0.47853 -0.44434,0.91603 -0.67676,1.3125h1.6611c0.27799,-0.515 0.50586,-1.0277 0.68359,-1.5381l1.4697,0.2939c-0.18685,0.4056 -0.41471,0.82033 -0.68359,1.2442h2.8096v1.0527zM228.9086,538.1h-1.791v0.8613h1.791zM228.9086,539.9115h-1.791v0.8477h1.791zM228.9086,541.7231h-1.791v0.8681h1.791zM223.8158,538.0522c-0.64713,-0.61527 -1.3558,-1.12797 -2.126,-1.5381l0.84082,-1.0322c0.90233,0.47393 1.63377,0.95927 2.1943,1.456zM221.1566,542.8031c0.98893,-0.72913 1.889,-1.60183 2.7002,-2.6181l0.86816,0.9912c-0.8294,1.07553 -1.72033,2.02343 -2.6728,2.8437zM222.9476,540.3627c-0.64258,-0.54687 -1.33758,-1.01853 -2.085,-1.415l0.79981,-1.1006c0.83853,0.41927 1.5563,0.8841 2.1533,1.3945z"/><path d="M236.04,548.3c-0.17318,-1.54947 -0.25977,-3.08983 -0.25977,-4.6211c0,-2.625 0.19369,-5.11783 0.58106,-7.4785l1.5039,0.1573c-0.36914,2.04167 -0.55371,4.34537 -0.55371,6.9111c0,1.72267 0.0957,3.33367 0.28711,4.833zM240.1416,537.472h6.5693v1.4561h-6.5693zM247.1758,547.4593c-0.91147,0.14127 -1.99383,0.2119 -3.2471,0.2119c-3.14907,0 -4.7236,-0.92513 -4.7236,-2.7754c0,-0.73367 0.19596,-1.37397 0.58789,-1.9209l1.292,0.5743c-0.24609,0.34633 -0.36914,0.73597 -0.36914,1.1689c0,0.5332 0.2666,0.90007 0.7998,1.1006c0.59245,0.22787 1.40138,0.3418 2.4268,0.3418c1.1074,0 2.1328,-0.07293 3.0762,-0.2188z"/><path d="M255.78,535.9h1.5381v1.8867h4.0332v1.3193h-4.0332v2.9258c0.15951,0.56053 0.23926,1.05957 0.23926,1.4971c0,1.6224 -0.35773,2.81413 -1.0732,3.5752c-0.77927,0.834 -1.95277,1.4105 -3.5205,1.7295l-0.7793,-1.1621c1.2168,-0.23247 2.11913,-0.5606 2.707,-0.9844c0.55143,-0.40107 0.92287,-0.94567 1.1143,-1.6338c-0.48763,0.5332 -1.0687,0.7998 -1.7432,0.7998c-0.75653,0 -1.3695,-0.2142 -1.8389,-0.6426c-0.55143,-0.50587 -0.82715,-1.2396 -0.82715,-2.2012c0,-0.5058 0.12077,-0.9934 0.3623,-1.4628c0.15951,-0.3008 0.35547,-0.55147 0.58789,-0.752c0.53777,-0.45573 1.18263,-0.6836 1.9346,-0.6836c0.47851,0 0.91145,0.11393 1.2988,0.3418v-1.3467h-6.7471v-1.3193h6.7471zM255.8347,542.9957v-0.253c0,-0.29167 -0.06836,-0.54913 -0.20508,-0.7724c-0.25521,-0.41927 -0.62434,-0.6289 -1.1074,-0.6289c-0.24609,0 -0.47624,0.06837 -0.69043,0.2051c-0.5013,0.3144 -0.75195,0.79747 -0.75195,1.4492c0,0.41013 0.09115,0.75647 0.27344,1.039c0.25521,0.39193 0.63117,0.5879 1.1279,0.5879c0.45117,0 0.8089,-0.2028 1.0732,-0.6084c0.18685,-0.28707 0.28027,-0.62657 0.28027,-1.0185z"/><path d="M264.23,536.4h7.6699l0.73145,1.1348c-2.3698,1.4492 -4.42287,2.76623 -6.1592,3.9511c1.12107,-0.4694 2.24673,-0.7041 3.377,-0.7041c1.01627,0 1.86393,0.1618 2.543,0.4854c0.62891,0.30073 1.11881,0.71087 1.4697,1.2304c0.36458,0.55147 0.54687,1.18493 0.54687,1.9004c0,1.0026 -0.3418,1.84117 -1.0254,2.5157c-0.4694,0.4694 -1.07097,0.82487 -1.8047,1.0664c-0.9616,0.3144 -2.01433,0.4716 -3.1582,0.4716c-1.31707,0 -2.28777,-0.2438 -2.9121,-0.7314c-0.48763,-0.3828 -0.73144,-0.90007 -0.73144,-1.5518c0,-0.49213 0.17773,-0.92963 0.5332,-1.3125c0.53776,-0.57873 1.26466,-0.8681 2.1807,-0.8681c0.97073,0 1.74777,0.32583 2.3311,0.9775c0.42383,0.474 0.72916,1.10973 0.91601,1.9072c1.40367,-0.4466 2.1055,-1.27147 2.1055,-2.4746c0,-0.91147 -0.38053,-1.58367 -1.1416,-2.0166c-0.51041,-0.29167 -1.15755,-0.4375 -1.9414,-0.4375c-1.1712,0 -2.2285,0.1618 -3.1719,0.4854c-0.69727,0.237 -1.6338,0.80893 -2.8096,1.7158l-0.96387,-1.1621c1.26693,-1.09373 2.70933,-2.20343 4.3272,-3.3291c1.11653,-0.77473 2.1009,-1.41047 2.9531,-1.9072h-5.8652zM269.4116,547.139c-0.32357,-1.28967 -0.9593,-1.9345 -1.9072,-1.9345c-0.52409,0 -0.90236,0.16633 -1.1348,0.499c-0.10937,0.1504 -0.16406,0.3122 -0.16406,0.4854c0,0.36 0.25521,0.63113 0.76562,0.8134c0.36914,0.1276 0.86361,0.1914 1.4834,0.1914c0.26433,0 0.58334,-0.01833 0.95703,-0.055z"/></g><g><path d="M146.18074,478.0614c0.27343,0.50715 0.59903,0.93242 0.97678,1.27579c0.48929,0.43917 1.10991,0.82047 1.86186,1.14389l-0.653,1.19193c-1.34199,-0.6189 -2.32057,-1.65705 -2.93575,-3.11446c-0.23386,0.76266 -0.60444,1.41748 -1.11176,1.96446c-0.45691,0.49114 -1.07032,0.91841 -1.84022,1.28179l-0.75014,-1.05413c0.88508,-0.31942 1.55607,-0.73267 2.01298,-1.23976c0.38496,-0.4273 0.67098,-0.91047 0.85807,-1.44951h-2.08854v-3.22224h2.28817v-1.0062h-1.17109v-0.53307c-0.38855,0.37533 -0.82027,0.70476 -1.29516,0.98829l-0.42634,-0.63484h-0.89585v1.02411c0.47131,0.43924 0.92644,0.92638 1.3654,1.46142l-0.57205,1.13799c-0.25904,-0.41929 -0.52347,-0.82257 -0.79331,-1.20984v5.60599h-1.10626v-5.37843c-0.35618,1.13399 -0.73575,2.09229 -1.13872,2.8749l-0.47491,-1.40147c0.66201,-1.23379 1.16568,-2.60534 1.51102,-4.11465h-1.33294v-1.16791h1.43555v-2.46761h1.10626v2.46761h0.96064v0.70068c1.14771,-0.74665 2.02377,-1.80275 2.62819,-3.1683h1.22501c0.54326,0.93832 1.23042,1.72289 2.06149,2.35373c0.35978,0.27152 0.7789,0.54304 1.25738,0.81457l-0.65299,1.03022c-0.50009,-0.29947 -0.96241,-0.6249 -1.38695,-0.97628v0.59291h-1.20887v1.0062h2.33136v3.22224zM144.82075,475.78552h-1.2682v1.31761h1.2682zM145.87309,475.78552v1.31761h1.30057v-1.31761zM144.09761,472.80285h2.53099c-0.51088,-0.49514 -0.9732,-1.08012 -1.38695,-1.75492c-0.29862,0.6269 -0.67999,1.21188 -1.14413,1.75492z"/><path d="M155.33151,474.16345h2.6336v-2.98267h1.20346v4.1746h-3.83696v4.42607h2.97353v-2.76112h1.22501v4.73759h-1.22501v-0.76063h-7.08577v0.76063h-1.21428v-4.73759h1.21428v2.76112h2.90879v-4.42607h-3.76681v-4.1746h1.20346v2.98267h2.56335v-4.06072h1.20346z"/><path d="M161.63453,470.58155h1.27361v7.13925c0,1.50531 0.71235,2.25797 2.13705,2.25797c0.939,0 1.7089,-0.48113 2.30972,-1.4434c0.38855,-0.6189 0.73753,-1.57719 1.04693,-2.8749l1.09553,0.73671c-0.36697,1.44147 -0.8077,2.51955 -1.32221,3.23425c-0.80952,1.11404 -1.86186,1.67106 -3.15702,1.67106c-1.35274,0 -2.30614,-0.46319 -2.86019,-1.38957c-0.34898,-0.57893 -0.52347,-1.32558 -0.52347,-2.23995z"/><path d="M170.61444,472.1618h2.52026c0.10074,-0.49515 0.21407,-1.13599 0.33999,-1.92253l1.2196,0.16761c-0.10793,0.6189 -0.22306,1.20387 -0.34538,1.75492h3.59415v1.19182h-3.84778c-0.71953,3.19035 -1.51462,5.83565 -2.38528,7.93591l-1.19264,-0.46723c0.94621,-2.32781 1.73412,-4.81737 2.36373,-7.46868h-2.26662zM180.16674,480.97212c-0.58283,0.08379 -1.23763,0.12568 -1.96438,0.12568c-1.17644,0 -2.06509,-0.11178 -2.66597,-0.33533c-0.23026,-0.08786 -0.42634,-0.21165 -0.58824,-0.37136c-0.3166,-0.31942 -0.4749,-0.7267 -0.4749,-1.22185c0,-0.50708 0.14751,-0.95426 0.44252,-1.34153l0.96064,0.62883c-0.11153,0.15571 -0.1673,0.32739 -0.1673,0.51506c0,0.32342 0.13312,0.53307 0.39935,0.62894c0.40655,0.1437 0.98578,0.21555 1.7377,0.21555c0.73035,0 1.4589,-0.05987 2.18565,-0.17962zM175.10467,475.0367c1.41033,-0.17973 2.95378,-0.27556 4.63035,-0.2875l0.05392,1.21584c-1.64416,0.00773 -3.15341,0.09355 -4.52773,0.25748z"/><path d="M185.87838,471.63505v-0.51516h-3.37288v-0.85639h7.96544v0.85639h-3.44302v0.51516h4.4684v2.15009h-1.17109v-1.37745h-3.29731v2.32982h-1.14945v-2.32982h-3.23799v1.37745h-1.16027v-2.15009zM189.6992,480.13385c0.55046,0.23156 1.23762,0.41522 2.06149,0.55098l-0.63141,1.01821c-1.15486,-0.21962 -2.10287,-0.59695 -2.84405,-1.13199c-0.73757,-0.53504 -1.31142,-1.19983 -1.72156,-1.99438h-1.19264v1.84468c0.79509,-0.12375 1.53263,-0.25551 2.21261,-0.39527l0.07556,0.89242c-1.26643,0.33536 -2.71454,0.62683 -4.34434,0.8744l-0.31841,-1.05413c0.56485,-0.06813 0.9516,-0.11603 1.16027,-0.1437l0.06474,-0.01159v-2.00639h-1.18182c-0.05037,0.70275 -0.13312,1.26374 -0.24824,1.68297c-0.13672,0.50308 -0.35618,0.97224 -0.65839,1.40748l-0.96064,-0.88041c0.35258,-0.50708 0.57205,-1.10003 0.65839,-1.77883c0.04677,-0.36732 0.07015,-0.8245 0.07015,-1.37155v-2.53946h9.31461v0.79655h-8.15434v1.83878h8.61843v0.84449h-1.22501l0.68537,0.50305c-0.40654,0.37533 -0.88683,0.7267 -1.44087,1.05413zM188.85732,479.67273c0.51808,-0.39134 0.93002,-0.75669 1.23583,-1.09606h-2.35832c0.3094,0.43917 0.68357,0.80452 1.12249,1.09606zM183.11531,472.85089h2.29899v0.67677h-2.29899zM183.11531,473.95286h2.29899v0.68878h-2.29899zM187.49201,472.85089h2.36914v0.67677h-2.36914zM187.49201,473.95286h2.36914v0.68878h-2.36914zM183.70356,476.39655h6.71879v0.78454h-6.71879z"/><path d="M199.55707,472.7939h2.50944v4.64762h-2.0669v3.28818c0,0.37933 -0.08095,0.64285 -0.24285,0.79055c-0.13312,0.11982 -0.36877,0.17973 -0.70695,0.17973c-0.40655,0 -0.81308,-0.04193 -1.2196,-0.12579l-0.1511,-1.12598c0.41734,0.07185 0.74113,0.10777 0.97137,0.10777c0.13671,0 0.21766,-0.03592 0.24285,-0.10777c0.01437,-0.05197 0.02155,-0.13383 0.02155,-0.24557v-2.76112h-2.0669v-4.64762h1.62977c0.13312,-0.43924 0.22846,-0.80059 0.28602,-1.08405h-2.53099v3.25215c0,1.4414 -0.08095,2.63126 -0.24286,3.56957c-0.19068,1.12205 -0.56665,2.17418 -1.1279,3.15639l-0.86347,-0.94625c0.73757,-1.30571 1.10635,-3.04261 1.10635,-5.21072v-4.92322h7.5715v1.10207h-2.74684c-0.10794,0.38326 -0.23206,0.74461 -0.37237,1.08405zM200.97098,473.75216h-3.05991v0.90432h3.05991zM197.91107,475.57893v0.92834h3.05991v-0.92834zM194.09565,472.7939c-0.35618,-0.59094 -0.87605,-1.20984 -1.55962,-1.85669l0.83109,-0.80856c0.61881,0.49507 1.14229,1.07204 1.57044,1.7309zM193.79884,475.87233c-0.59723,-0.83451 -1.12432,-1.46935 -1.58126,-1.90452l0.85266,-0.8565c0.58643,0.54304 1.1171,1.15197 1.59199,1.82677zM192.34174,480.80155c0.55046,-1.16587 0.99477,-2.58532 1.33294,-4.25835l0.9876,0.66476c-0.24465,1.16995 -0.46771,2.08832 -0.66918,2.75511c-0.17629,0.58294 -0.39216,1.16988 -0.6476,1.76082zM195.74158,480.39427c0.59363,-0.69475 1.04696,-1.54921 1.35999,-2.56338l1.03079,0.34734c-0.34179,1.20984 -0.84369,2.22805 -1.5057,3.05462zM201.94227,481.13098c-0.38496,-0.99022 -0.86705,-1.93054 -1.44628,-2.82096l0.89585,-0.575c0.59003,0.81457 1.10629,1.69301 1.5488,2.63533z"/><path d="M203.70529,471.5297c3.30997,-0.05619 6.43822,-0.15002 9.38476,-0.2815l0.06474,1.19182c-1.29876,0.07185 -2.30975,0.29147 -3.03295,0.65886c-0.6908,0.35138 -1.24485,0.83852 -1.66214,1.46142c-0.4749,0.70669 -0.71236,1.49327 -0.71236,2.35973c0,0.86247 0.26983,1.50931 0.8095,1.94055c0.61881,0.49114 1.56863,0.82854 2.84946,1.0122l-0.25364,1.34764c-1.66935,-0.24757 -2.84402,-0.72674 -3.524,-1.4375c-0.73035,-0.75866 -1.09553,-1.70098 -1.09553,-2.82696c0,-1.02218 0.331,-1.97647 0.99301,-2.86289c0.4821,-0.65085 1.14227,-1.17392 1.98052,-1.56919c-1.48589,0.05619 -3.4017,0.15002 -5.74742,0.2815zM211.55198,476.69849c-0.21227,-0.6269 -0.57027,-1.33766 -1.07398,-2.13228l0.84188,-0.34734c0.44972,0.68681 0.81129,1.38957 1.08471,2.10826zM213.00908,476.06955c-0.25544,-0.73464 -0.61163,-1.44937 -1.06857,-2.14419l0.8041,-0.31742c0.42094,0.56699 0.7789,1.25377 1.07389,2.06033z"/><path d="M220.19376,479.85235c2.11189,-0.59094 3.16784,-1.93454 3.16784,-4.0308c0,-0.91437 -0.21227,-1.70098 -0.6368,-2.35984c-0.4749,-0.74265 -1.19804,-1.21978 -2.16942,-1.43139c-0.21227,1.85269 -0.50189,3.36997 -0.86886,4.55186c-0.25184,0.82651 -0.56485,1.60711 -0.93902,2.34183c-0.53966,1.04613 -1.15307,1.56919 -1.84022,1.56919c-0.51088,0 -0.96598,-0.25554 -1.36531,-0.76663c-0.25544,-0.32342 -0.46231,-0.7207 -0.62061,-1.19182c-0.20867,-0.61096 -0.31301,-1.26778 -0.31301,-1.97047c0,-1.13799 0.28242,-2.18615 0.84727,-3.14449c0.57204,-0.97821 1.31499,-1.68894 2.22884,-2.13218c0.66561,-0.32342 1.39597,-0.48514 2.19106,-0.48514c1.24124,0 2.29538,0.36936 3.16243,1.10807c1.06493,0.90636 1.5974,2.19005 1.5974,3.85107c0,2.78307 -1.2682,4.54792 -3.80459,5.29457zM219.38427,471.98239c-0.63682,0.07986 -1.16929,0.26952 -1.5974,0.569c-0.27343,0.19567 -0.54506,0.45522 -0.81489,0.77864c-0.74833,0.91837 -1.12249,1.98248 -1.12249,3.19232c0,0.88241 0.1583,1.57316 0.47491,2.07223c0.19427,0.30748 0.38675,0.46122 0.57744,0.46122c0.25904,0 0.55045,-0.31745 0.87425,-0.95236c0.79148,-1.5452 1.32756,-3.58555 1.60822,-6.12105z"/><path d="M226.33541,470.8976h3.11382c0.98216,0 1.74849,0.16171 2.29899,0.48514c0.30581,0.17966 0.56665,0.4292 0.78251,0.74862c0.34179,0.51509 0.51268,1.11204 0.51268,1.79084c0,0.85846 -0.21227,1.56719 -0.6368,2.12617c-0.331,0.43924 -0.7879,0.74068 -1.37072,0.90432c-0.44972,0.12782 -0.99298,0.19174 -1.62977,0.19174h-1.62436v3.68936h-1.44628zM227.78169,472.17328v3.69536h1.37072c0.80952,0 1.37436,-0.11978 1.69451,-0.35935c0.41015,-0.30341 0.61522,-0.81846 0.61522,-1.54517c0,-1.1939 -0.71055,-1.79084 -2.13164,-1.79084z"/><path d="M238.03966,470.0548l0.66378,0.32943l-4.06906,11.24822l-0.66378,-0.32943z"/><path d="M240.36533,478.37745c0.74111,0.92631 1.65853,1.38946 2.75226,1.38946c0.49649,0 0.89404,-0.10981 1.19264,-0.32943c0.35258,-0.26752 0.52887,-0.63884 0.52887,-1.11397c0,-0.43123 -0.15291,-0.78261 -0.45872,-1.05413c-0.20148,-0.17966 -0.68717,-0.4372 -1.4571,-0.77264l-0.20508,-0.08955l-0.36697,-0.16171c-0.02519,-0.01194 -0.07016,-0.03196 -0.13491,-0.06005c-0.79148,-0.33143 -1.30417,-0.60495 -1.53807,-0.82057c-0.03601,-0.03582 -0.08098,-0.08572 -0.13492,-0.1497c-0.38496,-0.45919 -0.57744,-1.0122 -0.57744,-1.65905c0,-0.83451 0.26983,-1.50731 0.80949,-2.0184c0.56485,-0.53504 1.32757,-0.80256 2.28817,-0.80256c0.66916,0 1.26639,0.10981 1.79171,0.32943c0.41733,0.17966 0.83288,0.45515 1.24665,0.82647l-0.74473,1.15c-0.63682,-0.6708 -1.39774,-1.0062 -2.28276,-1.0062c-0.57924,0 -1.00017,0.14974 -1.26279,0.44921c-0.22306,0.25551 -0.33459,0.56496 -0.33459,0.92834c0,0.41522 0.1619,0.74662 0.48569,0.99419c0.20508,0.15971 0.6404,0.37132 1.30598,0.63484l0.43173,0.17372c0.94982,0.37933 1.60101,0.75065 1.95356,1.11397c0.48929,0.50715 0.73394,1.14403 0.73394,1.91063c0,0.95033 -0.33638,1.69101 -1.00915,2.22204c-0.55406,0.43524 -1.3096,0.65285 -2.26662,0.65285c-1.48944,0 -2.68211,-0.56099 -3.57801,-1.68297z"/><path d="M257.34741,470.6869v9.59486c0,0.47513 -0.11333,0.80652 -0.33999,0.99419c-0.18348,0.15571 -0.49109,0.23356 -0.92282,0.23356c-0.68719,0 -1.3312,-0.02985 -1.93201,-0.08955l-0.24286,-1.31171c0.71238,0.09187 1.315,0.1378 1.80785,0.1378c0.17629,0 0.28962,-0.03406 0.33999,-0.10219c0.03594,-0.05197 0.05392,-0.1378 0.05392,-0.25748v-3.41998h-6.82131v5.12686h-1.23583v-10.90689zM249.29027,471.85481v3.44379h2.78462v-3.44379zM256.11158,475.2986v-3.44379h-2.8656v3.44379z"/><path d="M265.3306,479.22025l0.07556,1.07215c-1.56145,0.61089 -3.29738,1.11397 -5.20778,1.50924l-0.39935,-1.19783c0.33099,-0.05619 0.79869,-0.14602 1.40309,-0.26949v-2.19212c-0.62241,0.35138 -1.36355,0.68477 -2.22343,1.00019l-0.61522,-1.06604c1.73055,-0.51909 3.05092,-1.18192 3.96113,-1.98848h-3.8532v-1.04212h4.62494v-0.90443h-3.49704v-1.0062h3.49704v-0.84449h-4.04751v-1.03011h4.04751v-1.17992h1.18182v1.17992h4.16616v1.03011h-4.16616v0.84449h3.61569v1.0062h-3.61569v0.90443h4.74359v1.04212h-1.28984l0.7987,0.61092c-0.49289,0.53103 -1.18366,1.112 -2.07231,1.74291l-0.12412,0.08955c0.67637,0.68681 1.59379,1.25381 2.75226,1.70098l-0.72854,1.21584c-1.2556,-0.59094 -2.26478,-1.33363 -3.02754,-2.22805zM263.69542,476.10579c-0.35977,0.46719 -0.79329,0.88645 -1.30057,1.25777v2.68927c0.88862,-0.21962 1.78086,-0.47516 2.6767,-0.76663l0.24825,-0.07796c-0.73757,-0.90643 -1.27902,-1.94062 -1.62436,-3.10256zM265.66521,477.74093c0.64043,-0.50708 1.20169,-1.0581 1.68378,-1.65305h-2.55263c0.23026,0.61089 0.51988,1.16191 0.86886,1.65305z"/><path d="M275.4591,475.1116v5.31259c0,0.48314 -0.08814,0.81253 -0.26443,0.98818c-0.1655,0.15971 -0.48571,0.23957 -0.96064,0.23957c-0.53966,0 -1.05235,-0.03793 -1.53807,-0.11378l-0.23205,-1.26378c0.50368,0.09187 0.98578,0.1378 1.44628,0.1378c0.1547,0 0.25184,-0.02985 0.29142,-0.08955c0.02879,-0.05197 0.04319,-0.1378 0.04319,-0.25748v-4.95324h-4.64107v-1.19182h10.39903v1.19182zM270.8989,470.67352h7.8035v1.17992h-7.8035zM269.53891,479.8612c0.77712,-0.90243 1.40312,-2.10229 1.878,-3.5996l1.11708,0.46712c-0.55046,1.71299 -1.24303,3.05859 -2.07772,4.0368zM278.79951,480.59191c-0.74472,-1.74888 -1.3923,-3.0286 -1.94274,-3.83916l1.01456,-0.67087c0.79148,1.12998 1.46605,2.3598 2.02371,3.68946z"/><path d="M141.94708,497.0244c-0.6584,-0.65886 -1.19808,-1.46342 -1.61904,-2.41367c-0.51808,-1.16995 -0.77711,-2.3099 -0.77711,-3.41987c0,-1.25781 0.32559,-2.53753 0.97678,-3.83916c0.39575,-0.78661 0.86886,-1.44744 1.41932,-1.98248h1.05234c-0.4821,0.61489 -0.87066,1.18189 -1.16568,1.70098c-0.74833,1.32558 -1.12249,2.70311 -1.12249,4.13256c0,1.3496 0.33458,2.65127 1.00374,3.90501c0.3166,0.59094 0.74474,1.22982 1.28443,1.91663z"/><path d="M146.56993,488.28035v8.76839h-1.17109v-6.10314c-0.23745,0.45118 -0.51808,0.93231 -0.84188,1.4434l-0.56125,-1.34153c0.61522,-0.95433 1.13149,-2.07434 1.5488,-3.36003c0.20867,-0.63884 0.43713,-1.45538 0.68538,-2.4496l1.17109,0.34133c-0.24825,0.94632 -0.52528,1.84672 -0.83109,2.70117zM147.82199,486.59738c0.13312,-0.01194 0.26983,-0.02388 0.41014,-0.03582c1.36357,-0.10781 2.70732,-0.32943 4.03127,-0.66486c0.3238,-0.08386 0.6674,-0.18566 1.03079,-0.30541l0.75014,1.0062c-0.70517,0.22362 -1.4427,0.41129 -2.21261,0.56299c0.01437,0.7746 0.05394,1.52726 0.11872,2.25797l2.5364,-0.16171l0.04319,1.16791l-2.47166,0.1497c0.18708,1.67303 0.46051,2.93877 0.82028,3.79724c0.09714,0.23163 0.21047,0.44725 0.33999,0.64685c0.08634,0.13176 0.1475,0.19764 0.18348,0.19764c0.03955,0 0.09172,-0.13376 0.1565,-0.40128c0.08275,-0.35138 0.15291,-0.87444 0.21047,-1.56919l0.92822,0.80856c-0.11153,0.97027 -0.24105,1.65505 -0.38856,2.05433c-0.20148,0.53504 -0.44252,0.80256 -0.72315,0.80256c-0.24105,0 -0.52707,-0.17966 -0.85807,-0.53897c-0.39215,-0.42723 -0.74474,-1.0601 -1.05775,-1.89862c-0.21227,-0.571 -0.37057,-1.16594 -0.47491,-1.78484c-0.08994,-0.53904 -0.17089,-1.16194 -0.24285,-1.8687l-0.01614,-0.16171l-1.99675,0.13179v2.86889c0.70877,-0.21161 1.38334,-0.4352 2.02371,-0.67076l0.08638,1.10196c-1.08651,0.49114 -2.31335,0.92838 -3.68053,1.31171l-0.41014,-1.22785c0.20866,-0.04354 0.49648,-0.11143 0.86346,-0.20364zM150.71996,487.35801c-0.55405,0.09587 -1.14768,0.17372 -1.78089,0.23356v2.0184l1.89423,-0.11978c-0.04677,-0.62683 -0.08454,-1.33756 -0.11333,-2.13218zM147.60072,495.56341h4.09601v1.21584h-4.09601z"/><path d="M159.08105,489.6499v-0.5869h2.585v-0.59302h-1.99134v-0.85639h1.99134v-0.575h-2.26662v-0.89842h2.26662v-0.79655h1.10635v0.79655h2.585v0.89842h-2.585v0.575h2.19647v0.85639h-2.19647v0.59302h2.87101v0.95826h-6.49752v0.80856h-1.43546v0.64084c0.56125,0.58294 1.08473,1.21181 1.57044,1.88661l-0.60982,1.09006c-0.35978,-0.61489 -0.67999,-1.14196 -0.96064,-1.5812v4.13267h-1.06316v-4.00688c-0.30581,0.87448 -0.69975,1.69104 -1.18182,2.4497l-0.60982,-1.19193c0.68719,-0.88641 1.24304,-2.02637 1.66755,-3.41987h-1.4571v-1.17992h1.58126v-4.30629h1.06316v4.30629zM164.82306,490.6561v5.25865c0,0.35538 -0.07735,0.6189 -0.23205,0.79055c-0.14751,0.17172 -0.39935,0.25758 -0.75553,0.25758c-0.38856,0 -0.83287,-0.03406 -1.33294,-0.10219l-0.17809,-1.09006c0.48929,0.06391 0.86706,0.09587 1.13331,0.09587c0.12592,0 0.20148,-0.04193 0.22666,-0.12579c0.01437,-0.05197 0.02155,-0.13183 0.02155,-0.23957v-0.91033h-2.90338v2.40767h-1.11708v-6.3427zM160.80261,491.53651v0.67687h2.90338v-0.67687zM160.80261,493.04586v0.70079h2.90338v-0.70079zM155.46535,489.13484c-0.10074,-1.03018 -0.24105,-1.94255 -0.42094,-2.7371l0.93901,-0.29351c0.21587,0.92237 0.35618,1.85072 0.42094,2.78503zM157.81826,488.85335c0.19427,-0.83852 0.35617,-1.79081 0.48569,-2.85688l0.96064,0.25748c-0.15111,1.16995 -0.34719,2.13025 -0.58823,2.8809z"/><path d="M172.24715,486.4894h4.231v1.0062h-2.3961v0.99419h2.24498v0.97027h-2.24498v1.78484h-4.34434v-1.78484h-1.77007v1.11408c0,1.80879 -0.08635,3.23825 -0.25904,4.28838c-0.13312,0.79855 -0.34898,1.52722 -0.6476,2.18601l-0.98219,-0.8624c0.27343,-0.65886 0.46052,-1.46342 0.56125,-2.41367c0.08994,-0.83451 0.13492,-1.90062 0.13492,-3.19832v-4.08474h4.26878v-1.07805h1.20346zM167.96764,487.4956v0.99419h1.77007v-0.99419zM170.88725,487.4956v0.99419h2.04535v-0.99419zM170.88725,489.46006v0.92834h2.04535v-0.92834zM172.13931,495.74893c-1.03975,0.59888 -2.36012,1.05406 -3.96113,1.36555l-0.56125,-1.10207c1.50387,-0.19967 2.68214,-0.50512 3.53482,-0.91633c-0.73035,-0.58694 -1.35458,-1.28369 -1.87268,-2.09025h-0.74473v-1.04223h6.31944l0.56665,0.52707c-0.53607,0.91437 -1.30059,1.77483 -2.29358,2.58139c0.85268,0.37933 2.01475,0.65886 3.48622,0.83859l-0.6314,1.13199c-1.41033,-0.21168 -2.69112,-0.64292 -3.84237,-1.2937zM170.5365,493.00582c0.43533,0.56692 0.96419,1.066 1.58658,1.49723c0.70156,-0.50308 1.24301,-1.00216 1.62436,-1.49723z"/><path d="M179.70825,489.8606c0.28063,0 0.53427,0.1038 0.76093,0.31141c0.29862,0.27152 0.44792,0.6189 0.44792,1.04212c0,0.25958 -0.06656,0.50115 -0.19967,0.7247c-0.24105,0.41529 -0.58285,0.62293 -1.02538,0.62293c-0.19428,0 -0.37956,-0.0519 -0.55585,-0.15571c-0.14031,-0.07986 -0.25904,-0.18566 -0.35618,-0.31742c-0.19788,-0.25958 -0.29682,-0.55505 -0.29682,-0.88641c0,-0.46319 0.17449,-0.83054 0.52347,-1.10207c0.20867,-0.15971 0.44252,-0.23957 0.70156,-0.23957z"/><path d="M186.78966,487.01615c0.16909,-0.51109 0.31121,-1.0621 0.42634,-1.65305l1.38154,0.24557c-0.14751,0.47913 -0.3148,0.94829 -0.50189,1.40748h3.96113v10.00214h-1.22501v-0.85049h-5.71505v0.85049h-1.20346v-10.00214zM185.1167,488.14213v1.55117h5.71505v-1.55117zM185.1167,490.75945v1.53326h5.71505v-1.53326zM185.1167,493.34684v1.68297h5.71505v-1.68297z"/><path d="M195.91195,491.23015v3.40797c0,0.27953 0.05217,0.46719 0.1565,0.56299c0.10074,0.0958 0.28243,0.15567 0.54506,0.17962c0.61522,0.06391 1.41031,0.09587 2.38528,0.09587c2.01836,0 3.16603,-0.07385 3.44302,-0.22155c0.1583,-0.08386 0.26624,-0.2895 0.3238,-0.61693c0.0324,-0.17572 0.06119,-0.575 0.08638,-1.19783c0.0038,-0.09587 0.00921,-0.21569 0.01623,-0.35945l1.28443,0.35945c-0.01797,0.90636 -0.08094,1.58113 -0.18889,2.0243c-0.12952,0.55906 -0.44072,0.90647 -0.93362,1.04223c-0.53247,0.1477 -1.81326,0.22155 -3.84237,0.22155c-1.57582,0 -2.64974,-0.03196 -3.22175,-0.09587c-0.56125,-0.0597 -0.93902,-0.25934 -1.13331,-0.59891c-0.11873,-0.20761 -0.17809,-0.4791 -0.17809,-0.81446v-5.16879h6.89687v-2.59941h-7.18288v-1.23976h8.45649v5.01898z"/><path d="M212.07768,495.02275c0.96779,0.26352 2.04351,0.65682 3.22717,1.17992l-0.88504,0.96427c-1.01456,-0.53504 -2.17483,-1.03815 -3.4808,-1.50935l0.62061,-0.63484h-3.18397l0.77172,0.58701c-1.19808,0.74265 -2.39974,1.28766 -3.60497,1.63503l-0.75013,-1.03011c1.03975,-0.21168 2.11547,-0.60899 3.22717,-1.19193h-1.86727v-4.83936h7.85751v4.83936zM207.35563,490.97994v0.55109h5.45059v-0.55109zM207.35563,492.27965v0.56299h5.45059v-0.56299zM207.35563,493.60326v0.59891h5.45059v-0.59891zM209.43335,486.1586v-0.7247h1.23583v0.7247h3.99349v0.82047h-3.99349v0.49114h3.44844v0.79666h-3.44844v0.52707h4.66813v0.88041h-10.50155v-0.88041h4.59798v-0.52707h-3.39452v-0.79666h3.39452v-0.49114h-3.93417v-0.82047z"/><path d="M218.42816,488.5964v8.45097h-1.18182v-6.06721c-0.24824,0.4233 -0.54685,0.88448 -0.89584,1.38356l-0.55046,-1.32962c0.66916,-0.94232 1.2394,-2.05036 1.71074,-3.32411c0.24824,-0.66279 0.51267,-1.4913 0.7933,-2.48552l1.14945,0.34133c-0.29501,1.07808 -0.63681,2.08828 -1.02538,3.0306zM223.20421,487.42248v2.97677h3.18397v1.21584h-3.18397v3.7493h2.66597v1.21584h-6.37877v-1.21584h2.52026v-3.7493h-3.11924v-1.21584h3.11924v-2.7371c-0.03594,0.00702 -0.07732,0.01299 -0.12412,0.01791c-0.59723,0.11181 -1.32939,0.21762 -2.19647,0.31742l-0.44252,-1.09606c2.17302,-0.21955 4.06004,-0.62283 5.66104,-1.20984l0.73933,1.04223c-0.66916,0.2435 -1.48406,0.47306 -2.4447,0.68867z"/><path d="M227.43654,497.0244c0.4821,-0.61489 0.87066,-1.18189 1.16568,-1.70098c0.74833,-1.32565 1.12249,-2.69921 1.12249,-4.12066c0,-1.35754 -0.33458,-2.66321 -1.00374,-3.91702c-0.31301,-0.58294 -0.74115,-1.22178 -1.28443,-1.91653h1.05234c0.6584,0.66279 1.19808,1.46735 1.61904,2.41367c0.51808,1.16988 0.77711,2.30783 0.77711,3.41387c0,1.26174 -0.3274,2.54347 -0.98219,3.84517c-0.39215,0.78261 -0.86346,1.44344 -1.41391,1.98248z"/></g></g></g></g></svg>