<?xml version="1.0" encoding="UTF-8"?>
<svg width="480" height="360" version="1.1" viewBox="0 0 480 360" xmlns="http://www.w3.org/2000/svg">
 <g dominant-baseline="central" fill="#fff" aria-label="鳥取県中部">
  <path d="m247.69 172.18q0.41015-0.95703 0.65429-1.8164l2.3828 0.3125q-0.36133 0.83984-0.6543 1.3965l-0.0586 0.10742h6.5918v6.1914h-11.797v0.92773h14.697v1.5234h-14.697v0.95703h14.014q-0.0879 4.5312-0.54688 6.1426-0.26367 0.9375-0.96679 1.2891-0.56641 0.29297-1.7285 0.29297-1.1719 0-2.2168-0.14648l-0.45898-2.002q1.3965 0.2246 2.373 0.2246 0.70312 0 0.86914-0.40039 0.27344-0.66406 0.47851-3.8965h-13.975v-11.104zm-2.8809 1.4356v0.98633h9.6387v-0.98633zm0 2.3242v1.0156h9.6387v-1.0156zm-4.5606 12.061q1.2695-1.5527 2.0606-4.082l1.9238 0.60546q-0.53711 2.4805-2.002 4.7168zm5.5762 0.8789q-0.13672-2.3047-0.53711-4.3359l1.8164-0.3418q0.625 1.9434 0.88867 4.1797zm4.1406-0.47851q-0.63477-2.4805-1.416-4.0039l1.7578-0.55664q1.0156 1.7969 1.6016 3.8184zm3.7793-1.123q-0.60546-1.6016-1.7383-3.1543l1.582-0.74218q1.1426 1.3672 1.8848 2.9785z" dominant-baseline="central"/>
  <path d="m270.64 172.44h7.5586l0.98633 1.0059q-0.40039 2.9688-1.0254 5.0781-0.68359 2.3535-1.9336 4.5801 1.5723 2.4121 3.5547 3.9356l-1.2793 2.2168q-2.0215-1.8359-3.4863-4.2188-1.1816 1.6602-2.1289 2.627-0.97656 1.0058-2.1289 1.7383l-1.377-1.8848q2.5391-1.4453 4.4726-4.5215-0.0391-0.0781-0.0781-0.14649-1.1328-2.2656-1.8262-5.4102-0.39062-1.7676-0.52734-3.0176h-1.1426v-1.2207h-0.9375v16.299h-2.002v-3.9746l-0.63477 0.15625q-2.9394 0.76172-5.625 1.2402l-0.64453-2.0801q1.3281-0.17578 1.8359-0.25391v-11.387h-1.4356v-1.9043h9.8047zm-3.3008 0.76171h-3.125v2.334h3.125zm0 3.9942h-3.125v2.3633h3.125zm0 3.9844h-3.125v3.1055q0.50781-0.0879 0.76172-0.12695 0.78125-0.12696 2.3633-0.41993zm5.9766-6.7578q0.40039 3.6914 1.6797 6.4844 1.3672-2.9004 1.9434-6.4844z" dominant-baseline="central"/>
  <path d="m296.76 170.98v9.4629h-11.621v-9.4629zm-9.5215 1.543v1.2207h7.4023v-1.2207zm0 2.5977v1.2207h7.4023v-1.2207zm0 2.5976v1.2598h7.4023v-1.2598zm-3.9356 4.0234h16.191v1.6992h-8.0762v6.0644h-2.2168v-6.0644h-8.0371v-10.957h2.1387zm-2.5 5.8984q2.3242-1.0742 4.4434-3.6035l1.7969 1.0449q-2.0898 2.6465-4.6387 4.1602zm16.836 1.2598q-1.4941-1.8359-4.4922-3.8574l1.6797-1.1816q2.3535 1.3574 4.6191 3.5644z" dominant-baseline="central"/>
  <path d="m308.84 174.08v-3.584h2.1973v3.584h7.2461v10.332h-2.1582v-1.3574h-5.0879v6.4453h-2.1973v-6.4453h-4.9609v1.4648h-2.1582v-10.439zm-4.9609 2.002v4.9707h4.9609v-4.9707zm12.246 4.9707v-4.9707h-5.0879v4.9707z" dominant-baseline="central"/>
  <path d="m326.98 172.75h4.1797v1.8848h-1.377q-0.3711 1.4941-0.9961 3.1348h2.6074v1.8848h-10.898v-1.8848h2.3926q-0.39062-1.875-0.82031-3.1348h-1.2695v-1.8848h4.1406v-2.2559h2.041zm-2.9394 1.8848q0.49805 1.4551 0.77148 3.1348h1.9922l0.09766-0.27344q0.41992-1.1133 0.78125-2.5293l0.0879-0.33203zm6.0547 6.6602v7.998h-2.002v-0.95703h-4.2578v1.1621h-2.0606v-8.2031zm-6.2598 1.7969v3.3887h4.2578v-3.3887zm13.047-4.9316q1.1621 1.1035 1.8457 2.627 0.67383 1.5234 0.67383 3.0859 0 1.4453-0.53711 2.1289-0.55664 0.71289-1.8359 0.71289-1.0938 0-2.1191-0.15625l-0.47852-2.0801q1.1816 0.21485 1.9531 0.21485 0.58594 0 0.73242-0.27344 0.0977-0.19531 0.0977-0.78125 0-2.4121-1.4453-4.1602-0.38086-0.45898-0.95703-0.98633l0.11719-0.27343q1.0156-2.2949 1.582-4.7852h-2.5v16.064h-2.0215v-18.086h5.8789l1.084 0.99609q-0.98633 3.3594-2.0703 5.752z" dominant-baseline="central"/>
 </g>
</svg>
