<?xml version="1.0" encoding="UTF-8"?>
<svg width="224" height="32" version="1.1" viewBox="0 0 224 32" xmlns="http://www.w3.org/2000/svg">
 <rect width="224" height="32" fill-opacity="0" stop-color="#000000" style="paint-order:markers stroke fill"/>
 <g fill="#fff" shape-rendering="auto">
  <path d="m114.38 8.3301v1.4062h-6.1797v5.4277c0 1.6901-0.0658 3.0777-0.19532 4.1602-0.14492 1.2318-0.41454 2.2721-0.80468 3.1191l-0.0312 0.07031 1.5801 1.25 0.0547-0.10938c0.22717-0.4516 0.42084-0.92925 0.58203-1.4297l0.89258 1.582 0.0703-0.01172c2.3067-0.40433 4.2068-0.99878 5.7188-1.7773 1.6666 0.84254 3.5124 1.4085 5.5469 1.6836l0.0645 0.0098 1.0312-1.668-0.15625-0.01758c-2.0577-0.2264-3.6531-0.58446-4.8633-1.0508 1.3603-1.0202 2.4569-2.1 3.209-3.2559l0.0488-0.07422-0.91601-0.76758h-9.2852v1.5605h1.1387c0.71124 0.9871 1.5731 1.8356 2.5547 2.5703-1.211 0.50606-2.829 0.89865-4.9336 1.1504l-0.10742 0.01367c0.14133-0.44643 0.25981-0.90914 0.34961-1.3945 0.25182-1.3798 0.37695-3.2504 0.37695-5.6133v-1.3516h2.3633v2.3281h6.4883v-2.3281h3.25v-1.4668h-3.25v-1.0957h3.4688v-1.5137h-6.125v-1.4062zm17.672 0v1.5391h-4.2344v1.6074h4.2344v0.86914h-3.625v4.1699h3.0644c-1.128 1.2969-2.423 2.3283-3.9082 3.0586l-0.11719 0.05859 1.2051 1.3555 0.0703-0.04297c1.2947-0.76688 2.3794-1.7733 3.3106-2.9512v3.4824h1.8008v-3.1777c1.173 0.7132 2.2648 1.4565 3.252 2.2402l0.0801 0.06445 1.1348-1.5117-0.0898-0.05859c-1.4784-0.95812-2.9376-1.7445-4.377-2.373v-0.14453h3.7656v-4.1699h-3.7656v-0.86914h4.375v-1.6074h-4.375v-1.5391zm10.391 0v1.6328h-2.5469v1.5762h2.5469v1.1426h-3.2031v1.5918h1.1738c0.2129 0.55849 0.39295 1.1492 0.54687 1.7676h-1.4004v1.5605h2.8828v1.2441h-2.7578v1.5918h2.7578v3.2969h1.832v-3.2969h2.5703v-1.5918h-2.5703v-1.2441h2.6719v-1.5605h-1.4688c0.24506-0.61671 0.44982-1.2079 0.60351-1.7676h0.95899v-1.5918h-2.7656v-1.1426h2.4297v-1.5762h-2.4297v-1.6328zm-17.465 0.078125-1.4375 1.1133 0.0801 0.080078c0.817 0.82217 1.5963 1.8149 2.3379 2.9766l0.0605 0.09375 0.0859-0.07031 1.4297-1.1582-0.0488-0.07617c-0.71249-1.0793-1.5279-2.0459-2.4453-2.9004zm-31.84 0.24219v1.3184h4.8828v0.4707h-6.3672v3.0059h1.8789v-1.7969h4.4883v3.0391h1.8633v-3.0391h4.5742v1.7969h1.8945v-3.0059h-6.4688v-0.4707h4.9844v-1.3184zm54.133 0.24219v14.842h1.7852v-1.0098l0.80665 1.1191 0.082-0.07422c0.67571-0.60512 1.2792-1.2523 1.8242-1.9355 0.63383 0.71078 1.3412 1.3355 2.1406 1.8516l0.0879 0.05664 0.97852-1.6328-0.082-0.05273c-0.83207-0.5295-1.5174-1.1151-2.0762-1.75l0.0449-0.08398 2e-3 -2e-3c0.75052-1.3127 1.266-2.8033 1.5488-4.4688l0.01-0.05664-1-0.85742h-4.3672v-4.3379h3.2227v1.7812c0 0.08766-0.0223 0.13434-0.0586 0.16602s-0.10113 0.05469-0.20899 0.05469c-0.22104 0-0.77309-0.04698-1.6367-0.14062l-0.13476-0.01367 0.30469 1.6133 0.0762 0.0059c0.61737 0.05232 1.2342 0.08008 1.8516 0.08008 0.64205 0 1.0836-0.10767 1.3164-0.37109 0.19324-0.2174 0.27539-0.56196 0.27539-1.0273v-3.7559h-0.0996zm-37.145 2.3574h2.3633v1.0957h-2.3633zm4.2266 0h2.7617v1.0957h-2.7617zm-20.332 0.77539v1.084h3.5273v-1.084zm6.3359 0v1.084h3.6289v-1.084zm-6.3359 1.4375v1.0996h3.5273v-1.0996zm6.3359 0v1.0996h3.6289v-1.0996zm29.809 0.30273h1.8867v1.3613h-1.8867zm3.6875 0h2.0117v1.3613h-2.0117zm-19.5 0.04687h2.7617v1.0098h-2.7617zm27.783 0.46094h2.2148c-0.13344 0.58021-0.31319 1.1693-0.55274 1.7676h-1.1484c-0.18105-0.72136-0.3524-1.3016-0.51367-1.7676zm-18.818 0.58789v1.7402h2v3.8809c-0.6235 0.53887-1.3131 1.0506-2.0781 1.5352l-0.0801 0.05078 0.97852 1.7637 0.0918-0.07422c0.73398-0.58616 1.4577-1.3378 2.1738-2.2266 0.47755 0.50204 0.97511 0.90829 1.5 1.1758 0.93967 0.47518 2.2914 0.70703 4.0606 0.70703h6.4629l0.0176-0.07812c0.13934-0.6038 0.30575-1.0915 0.49804-1.4609l0.0762-0.14648h-7.0078c-1.304 0-2.4014-0.16621-3.293-0.49414-0.54821-0.20304-1.0399-0.52582-1.4785-0.97461l-2e-3 -2e-3c-0.0296-0.02966-0.0505-0.05051-0.0723-0.07227v-5.3242zm-31.055 0.09375v3.4121c0 0.71038-0.03482 1.303-0.10156 1.7754-0.12285 0.87018-0.43395 1.6259-0.93359 2.2734l-0.05859 0.07617 1.5449 1.2773 0.06445-0.08203c0.44442-0.57669 0.76725-1.201 0.96875-1.8691 0.16283-0.53428 0.27368-1.2558 0.34766-2.123h1.5273v2.4316h-0.0059c-0.30099 0.03633-0.86213 0.09897-1.6797 0.1875l-0.12305 0.01367 0.52734 1.5723 0.08203-0.01172c2.3619-0.32327 4.4615-0.70412 6.2988-1.1426l0.084-0.01953-0.11523-1.2324c0.11391 0.09925 0.23235 0.19499 0.35351 0.28906 0.14611 0.18162 0.29722 0.35972 0.50586 0.49609 1.0876 0.70745 2.4726 1.204 4.1543 1.4922l0.0644 0.0098 1.041-1.5117-0.1582-0.02344c-1.1025-0.16369-1.9942-0.39498-2.752-0.66406 0.71154-0.39421 1.3645-0.80652 1.9023-1.2539l0.10352-0.08594-0.82813-0.54688h1.541v-1.3028h-12.476v-2.1973h11.805v-1.2402zm56.793 1.4902h8e-3c0.3218 1.4282 0.86511 2.7413 1.6289 3.9375-0.52766 0.69642-1.0764 1.2171-1.6367 1.6289zm1.6602 0h1.7266c-0.13248 0.76208-0.40228 1.5285-0.77539 2.2969-0.39793-0.68928-0.72264-1.4466-0.95117-2.2969zm-55.844 0.20508v1.2246h9.9258v-1.2246zm19.145 1.7871h4.1016c-0.51965 0.56781-1.186 1.1415-2.0762 1.7227-0.79015-0.50037-1.4497-1.0845-2.0254-1.7227zm-16.531 1.2578h1.5898c0.1994 0.34062 0.46529 0.63383 0.7539 0.91016 0.2269 0.27484 0.47288 0.53671 0.74219 0.78125-0.94795 0.17554-1.9825 0.34176-3.0859 0.49805zm3.584 0h2.8672c-0.40093 0.37665-0.87918 0.77144-1.502 1.1992-0.52931-0.32454-0.971-0.73673-1.3652-1.1992z" color="#000000" color-rendering="auto" dominant-baseline="auto" image-rendering="auto" solid-color="#000000" stop-color="#000000" style="font-feature-settings:normal;font-variant-alternates:normal;font-variant-caps:normal;font-variant-east-asian:normal;font-variant-ligatures:normal;font-variant-numeric:normal;font-variant-position:normal;font-variation-settings:normal;inline-size:0;isolation:auto;mix-blend-mode:normal;shape-margin:0;shape-padding:0;text-decoration-color:#000000;text-decoration-line:none;text-decoration-style:solid;text-indent:0;text-orientation:mixed;text-transform:none;white-space:normal"/>
  <path d="m73.381 8c-2.4096 0-4.3809 1.9713-4.3809 4.3809v7.2383c0 2.4096 1.9713 4.3809 4.3809 4.3809h7.2383c2.4096 0 4.3809-1.9713 4.3809-4.3809v-7.2383c0-2.4096-1.9713-4.3809-4.3809-4.3809zm0 2h7.2383c1.3362 0 2.3809 1.0447 2.3809 2.3809v7.2383c0 1.3362-1.0447 2.3809-2.3809 2.3809h-7.2383c-1.3362 0-2.3809-1.0447-2.3809-2.3809v-7.2383c0-1.3362 1.0447-2.3809 2.3809-2.3809z" color="#000000" color-rendering="auto" dominant-baseline="auto" image-rendering="auto" solid-color="#000000" stop-color="#000000" style="font-feature-settings:normal;font-variant-alternates:normal;font-variant-caps:normal;font-variant-east-asian:normal;font-variant-ligatures:normal;font-variant-numeric:normal;font-variant-position:normal;font-variation-settings:normal;inline-size:0;isolation:auto;mix-blend-mode:normal;shape-margin:0;shape-padding:0;text-decoration-color:#000000;text-decoration-line:none;text-decoration-style:solid;text-indent:0;text-orientation:mixed;text-transform:none;white-space:normal"/>
  <path d="m77.01 11.809c-0.30062 0-0.57026 0.11213-0.77734 0.32617-0.21404 0.20708-0.32812 0.47868-0.32812 0.7793 0 0.30669 0.11382 0.57806 0.33008 0.7793h2e-3v2e-3c0.20805 0.19911 0.47545 0.30274 0.77344 0.30274 0.30505 0 0.57477-0.10406 0.77734-0.30664 0.20258-0.20258 0.30664-0.47229 0.30664-0.77734 0-0.29799-0.10166-0.56734-0.30078-0.77539-0.20142-0.21753-0.47559-0.33008-0.7832-0.33008zm-0.88086 2.625a0.15002 0.15002 0 0 0-0.15039 0.14844v5.4609a0.15002 0.15002 0 0 0 0.15039 0.15039h1.7422a0.15002 0.15002 0 0 0 0.15039-0.15039v-5.4609a0.15002 0.15002 0 0 0-0.15039-0.14844z" color="#000000" color-rendering="auto" dominant-baseline="auto" image-rendering="auto" solid-color="#000000" stop-color="#000000" style="font-feature-settings:normal;font-variant-alternates:normal;font-variant-caps:normal;font-variant-east-asian:normal;font-variant-ligatures:normal;font-variant-numeric:normal;font-variant-position:normal;font-variation-settings:normal;inline-size:0;isolation:auto;mix-blend-mode:normal;shape-margin:0;shape-padding:0;text-decoration-color:#000000;text-decoration-line:none;text-decoration-style:solid;text-indent:0;text-orientation:mixed;text-transform:none;white-space:normal"/>
 </g>
</svg>
