<svg xmlns="http://www.w3.org/2000/svg" viewBox="0 0 900 900" version="1.2" height="900" width="900"><desc>Generated with Qt</desc><g stroke-opacity=".749" stroke-linejoin="round" stroke="#dce3ff" fill="#2c3329"><g fill-rule="evenodd"><g stroke-width=".7502" font-weight="400" font-size="37.5px" font-family="'MS UI Gothic'" transform="matrix(1 0 0 .9994 0 -900)"><path d="m552.4 988.9 1.038 2.465 0.808 0.287 0.931 4.355-0.175 0.473 2.466 2.71-1.01 1.532 0.724 0.59-0.174 1.05-0.936 0.18 0.45 2.28 1.02 0.67-0.452 1.23 0.778 0.47 1.044 1.74 0.557 3.6 0.53 0.56 0.657 2.75-0.088 1.45 1.646 0.32 1.766-0.39 0.9 0.97-1.742 5.62-4.41 1.94-1.64 2.12 1.025 1.84-0.743 0.44-0.45 1.4 0.931 4.12-0.777 0.7 0.025 1.38 1.25 1.78-0.051 0.99-1.277 0.66-1.076-0.28-1.617 3.5-0.243 1.07-2.4 2.69-0.755 3.99-1.193 1.52 0.568 2.04-0.233 1.96 0.364 1.47-1.572 1.18-0.613 3.06-0.7 0.32-0.558 2.65 0.816 1.89 0.932 0.53-0.4 1.89 0.747 1.09 0.162 1.8 0.699 0.65-0.503 1.85 1.566 1.15-0.539 1.69 0.313 3.51-1.038 0.2-0.937 1.87-0.794 3.54-0.781 0.26 0.673 1.82 0.139 3.33-1.614 1.33-0.077 0.95-1.623 0.44-0.511 1.27 0.112 4.73-0.31 1.66 0.875 2.27 0.681 4-2.71 1.56 0.069 1.94-0.59 2.45-0.994 0.06 0.47 2-0.995 1.82 0.098 1.42-0.757 1.93 0.521 1.44-0.373 4.56 0.949 3.09-1.943 1.21-0.119 5 2.028 1.31-0.972 1.84 1.068 0.95-0.477 1.13 0.797 1.16-0.995 1.26 0.184 2.07 3.061 0.17 0.436 0.72-2.331 3.15 1.386 2.28-2.435 3.14 0.932 1.66-0.79 1.02 0.415 4.19-1.235 0.8-0.378 2.92-2.671 5.31 1.005 1.16 0.087 1.61-1.256 1.26-0.078 2.56-2.087 1.52-0.442 2.15-1.798 0.27-0.644 1.71 0.608 1.78-0.328 2.96 1.038 0.99 1.135 3.95 1.588-1.19 2.378 0.23-0.397 4.06 0.505 4.34 1.818 2.33 9.824 0.14 3.703 1.06 3.818 1.71-3.931-1.17-3.059 2.32-3.682 1.52-1.146 1.24-0.903 4.67 0.096 3.14-1.276 1.01-4.123-1.42-1.999-2.52 0.855-1.38 2.236 0.08 2.904-1.96-1.383-1.25-4.681 3.47-0.278 2.19-3.382-2.55 1.54-1.53-0.347-1.92 1.991 0.07 2.007-1.5 1.551 0.35 1.395-1.1-5.423-0.33-0.673 1.91-1.072 0.66 0.258 1.58-1.868 0.4 0.291-3.29-1.31-1.79-0.045-3.28-0.702-2.32-1.119-1.27-0.151-1.7-1.61-3.67 0.652-1.4-2.239-5.21 1.615-0.14-0.867-5.49 0.16-5.88 0.975-0.95-1.091-3.68 2.621 0.29 0.907-1.84-4.593-0.06-0.539-0.47 2.058-3.59 1.835-1.16-1.546-2.04-1.92 0.04-2.163-1.07-3.107-0.01 4.957-4.74 0.112-1.03 2.508-0.34 2.098 3.17 1.075-2.57 0.471-4.37 1.718-2.25 1.947-1.34 0.204-1.9-2.955-2.64 1.492-2.42-0.66-2.07 1.752-3.11-0.406-1.16 0.162-4.04 1.609-1.21-1.878-1.06 1.092-1.23-1.56-1.6-1.221 2.01-2.293-0.18-0.691-1.28-0.744-3.95 1.319-6.77 1.406-0.9 0.802-2.04-0.209-2.68-1.299-4.19 0.402-2.1-1.026-2.36-0.019-2.25 1.946-0.93 0.546-0.87 0.069-2.13 0.788-0.13 0.848-2.53 0.261-2.2 0.911-0.88-0.243-1.5 2.08-2.76 0.867-2.78 0.152-3.01 1.93-3.99-0.398-1.99 0.761-0.99 0.779-3.75-0.657-1.05 0.144-2.46-0.764-3.66-0.228-3.12 0.371-2.11 1.283-0.6 0.48-1.37-0.103-2.82-0.935-1.31-0.139-1.44 1.101-1.52 0.639-1.78 0.18-2.36 1.128-1.83-0.238-2.59 0.857-0.93 0.731-3.81-0.34-2.67 0.295-1.63 1.033-1.09-0.14-2.04-0.55-2.48 0.421-4.06 0.428-1.49-0.86-0.48 0.114-1.98 1.326-0.77 0.725-6.77 0.467-1.24-0.735-3.72 0.412-3.56-0.14-1.88-0.683-2.216-0.344-2.791 0.265-1.73-0.456-0.568 2.122-0.458 0.937-1.416-0.373-1.299 1.738-1.194"></path><path d="m556.8 1229-0.061 0.75-2.064 0.55-3.64-1.4-2.224 0.61-5.249-1.58-3.252-1.42 1.075-0.91 3.571 0.37 0.752-1.12 3.937-0.59-0.32-4.34 3.881-1.83-1.573-1.37-2.907 0.86-1.084-1.27 2.362-3.9 1.334-0.55 0.753-2.18 2.218 1.43 2.563-0.37-0.071 18.12-1e-3 0.14"></path><path d="m524 1188-1.344-3.38 2.685-0.14 0.628-1.61-1.235-1.88 1.476-1.35 1.154 0.33 0.525 7.4-0.324 2.04-1.912 0.5-0.469-1.8-1.184-0.11"></path><path d="m528.3 1141 1.035-4.17-0.31-1.62 0.672-3.29 2.591-0.71 0.24 2.06-1.601 3.13 1.463 1.23-1.802 4.34-2.288-0.97"></path><path d="m560 1236-1.267-0.91-3.574-0.84-1.524-1.9-1.677 1.33-1.392-2.64 7.224-1.08-0.447 1.48 1.457 1.6 1.2 2.96"></path><path d="m537.4 1223-1.067-1.54-1.617-0.53-2.592-2.1 2.265-0.79 2.38 0.4 2.344 2.03-1.713 2.53"></path><path d="m533.1 1150 1.902-1.59 1.404 1.17-2.131 2.7-1.301-0.63 0.126-1.65"></path><path d="m560.6 1233-1.368-0.42 1.075-2.54 3.2 0.2 1.2 1.25-1.807 1.27-2.3 0.24"></path><path d="m524.3 1179-0.604-1.82-1.422-0.3-0.152-2.19 1.037-0.58 1.533 4.42-0.392 0.47"></path><path d="m547.7 1219 0.594 3.36-1.021 1.82-1.412-0.92-0.294-2.31 2.133-1.95"></path><path d="m541.8 1223 0.839-1.16 2.365 2.76-0.618 0.98-2.586-2.58"></path><path d="m527.5 1179-0.609 0.82-2.06-1.42 1.828-1.81 0.841 2.41"></path><path d="m539.9 1224-1.215-2.19 2.655-0.4 0.069 2.12-1.509 0.47"></path><path d="m530.4 1150-1.764 1.23-0.605-1.25 2.369 0.02"></path><path d="m528.1 1197-2.538 0.54 0.073-1.29 2.465 0.75"></path><path d="m552.4 988.9-0.564-1.682 0.977-0.516 1.179-1.797 0.773-0.38 0.176-1.291 0.791-0.629-1.88-0.778-1.024-2.581 0.666-1.585 0.715-0.609-1.212-1.393 0.716-1.917 1.818-1.973-0.661-2.361 0.266-2.415-0.091-2.133 1.484-1.873-4.467-7.917 3.468 0.326 1.341 0.49 1.612-0.68 0.978-1.432 1.71 0.084 2.09-1.974 1.368-0.351 2.162-1.791 4.216-0.869 1.023 0.529 1.398-0.059 0.082 1.983-0.81 1.28 0.735 2.66-0.25 2.038 1.437 1.85 0.341 1.242 2.642 1.355 0.366 1.004 2.373 0.446 0.599-0.458 2.77 1.262 0.862-0.249 1.338 1.724 2.929 0.679 1.868 2.105 2.501-0.191 2.255 0.305 2.158 1.356-0.042 1.549 0.909 2.647 0.084 2.406-1.272 0.252 1.457 1.861 0.291 3.739 0.25 0.266 8.325 0.303 0.544 0.929-0.621 0.909 0.495 3.05 1.855 1.203 1.097 0.31 0.304 1.523 0.895 1.775-1.157 3.833-0.033 0.787-1.678 3.556 1.324 1.33-1.495 0.98-0.082-1.82-4.572-2.842-4.584 0.06-8.774 1.912-0.915 2.37-1.666 2.54 8e-3 2.6-1.873 6.28-0.77-1.24-5.716 0.02-1.732 3.69-1.39-1.88-0.074-0.7-2.168-0.63-3.621 0.09-1.749-1.51-0.728-0.22-0.687 1.8-1.792 0.53-0.303 1.14-1.182 0.48-0.806 1.61-1.766 0.39-1.646-0.32 0.088-1.45-0.657-2.75-0.53-0.56-0.557-3.6-1.044-1.74-0.778-0.47 0.452-1.23-1.02-0.67-0.45-2.28 0.936-0.18 0.174-1.05-0.724-0.59 1.01-1.532-2.466-2.71 0.175-0.473-0.931-4.355-0.808-0.287-1.038-2.465"></path><path d="m552.4 988.9-1.738 1.194 0.373 1.299-0.937 1.416-2.122 0.458-3.459-2.465-1.365-1.239-0.775-1.827-1.465-0.488-2.429-1.625-0.344-0.623-1.651-0.525-5.039-2.294-1.732-1.356-2.082-1.213-3.489-1.73-1.949-2.634-1.9-1.218-0.25-0.972-1.507-1.652 0.504-3.098-0.2-0.935-1.311-1.65-0.164-0.853-1.478-1.985-0.209-0.922-1.607-1.18 0.145-0.715-0.872-2.238-1.634-1.027-0.117-1.859-1.926-2.951-1.571-3.717-0.637-2.158-1.334-2.098 0.024-0.844-0.904-0.873-0.228-1.102-2.401-2.532-0.734-2.267-1.759-2.414-1.667-1.222-2.463-1.232-1.554-1.145 1.226-2.119-0.378-0.937-1.333-1.285 0.675-0.934-1.371-1.724 0.424-2.205 1.925-1.835 0.48-0.814 2.155-1.587 0.878 2.488-1.579 0.545-0.038 1.991 0.401 0.409 1.644-0.844 1.419 0.881 1.443 0.234 0.283 1.398 0.737 0.758 1.47-5e-3 0.781-1.545 0.902-0.508-0.049-1.124 0.903-1.871 0.694-2.33 2.57-2.544 5.822-2.037 2.967-2.226 2.656-3.133 1.44-4.885-0.811-0.614-0.105-1.209 0.859-0.271 0.709-0.318 1.585 0.635 2.06 2.014 0.617 1.849 3.263 1.561 0.697 1.115-0.169 0.979 1.724 0.63 0.376 1.369-0.421 0.57 1.26 1.16 1.494-0.425 1.239 0.562 2.152-0.59 0.991-0.932 2.741 0.997 1.728-0.56 4.118 2.43-3.418 5.343 0.95 0.417 1.165-0.18 1.731 2.041-1.332 0.337-0.993-0.85-2.011 0.227-0.682 1.032-4.029 0.483-1.484 0.62-2.78 2.093-1.454 0.551-0.417 2.896-1.167 1.854 0.515 1.799-3.168 2.361 0.023 2.183-1.093 0.187 0.05 1.06 1.286 1.026 0.928 2.951 1.76 1.761 1.076 1.847-1.278 1.638 2.008 0.01 1.916 0.361 0.843 0.939 0.33 1.716 4.021 6e-3 0.974-0.34 2.579-2.09 0.687 1.01-0.475 0.634-0.015 5.892 1.76 0.275 1.666-0.741 1.893 0.168 4.467 7.917-1.484 1.873 0.091 2.133-0.266 2.415 0.661 2.361-1.818 1.973-0.716 1.917 1.212 1.393-0.715 0.609-0.666 1.585 1.024 2.581 1.88 0.778-0.791 0.629-0.176 1.291-0.773 0.38-1.179 1.797-0.977 0.516 0.564 1.682"></path><path d="m564 1017 0.806-1.61 1.182-0.48 0.303-1.14 1.792-0.53 0.687-1.8 0.728 0.22 1.749 1.51 3.621-0.09 2.168 0.63 0.074 0.7 1.39 1.88 1.732-3.69 5.716-0.02 0.77 1.24 1.816 1.35 1.654 2.99 2.323 2.06 1.91 1.05 0.517 1.09 3.392 1.16 1.472-0.06 2.869 1.93 0.594 0.71 2.659 1.59 2.926 0.9 2.35 1.32 0.985 1.55-2.648 3.7-0.598 1.54-0.209 1.99-2.026 2.23 0.712 0.69 2.444-0.11 4.21 1.28 1.378-0.38 1.79 0.2 0.894 0.71 1.215-1.59 1.849 0.82 1.704-2.61 2.194-1.08 1.344-1.93 0.531-4.82 1.927-0.25 1.524 0.55 0.419 1.9 0.797 1.38-0.396 2.65 0.177 1.01-0.543 1.49-1.852 0.68-3.19 1.6-0.991 1.67-1.52 0.49-0.555 0.86-1.659 0.87-0.627 1.29-2.589 3.37-4.547 5.34-1.432 1.17-0.154 0.06-1.036 1.69 0.212 2.46-0.898 3.78-0.909 1.71-0.158 3.56 0.267 3.58-1.182 0.15-0.831 3.64 0.854 3.04-0.664 1.5 1.783 1.91 3.164 1.6 1.366 1.44 0.519 1.45-1.038 1.49-0.069 1.61 0.592 1.13 1.596 1.2 1.156 0.2 0.164 2.83-1.955 3.53-2.28 2.9-0.409 1.78-2.81 1.77-4.538 1.68-9.013 1.81-3.261 0.23-2.544-0.47-1.655 1.06 0.207 1.05 1.303 1.2-0.542 2.65-0.752 0.07-0.271 2.23-0.577 0.5 1.168 2.2-0.436 1.65-3.809 1.87-3.399 0.03-5.836-2.96-1.143 1.97 0.91 3.61-0.382 2.9 1.062 1.4 1.629 0.35-0.174 1.29 2.193-0.02-0.173-1.51 1.761-0.94 1.098 1.83-0.149 2.78-2.438 0.91-1.074-2.33-1.461-0.18-1.912 1.83 2.421 1.04-4.105 5.06 0.558 2.52 0.028 2.3-2.344 2.43 0.415 2.22-2.989-0.25-1.618 1.59-1.725 0.13-2.315 2.7-1.452 3.95 0.996 2.92 1.466 1.02 1.718 2.19 5.207 1.45 0.047 2.26-0.557 3.23-3.107 3.42-3.23 2.06-2.211 2.6-0.877 5.88-1.722 2.38-4 1.9-1.001 1.8-0.456 3.31 1.159 5.34 2.437 5.69-3.818-1.71-3.703-1.06-9.824-0.14-1.818-2.33-0.505-4.34 0.397-4.06-2.378-0.23-1.588 1.19-1.135-3.95-1.038-0.99 0.328-2.96 2.026-1.59-0.192-2.17 0.442-2.15 2.087-1.52 0.078-2.56 1.256-1.26-0.087-1.61-1.005-1.16 2.671-5.31 0.378-2.92 1.235-0.8-0.415-4.19 0.79-1.02-0.932-1.66 2.435-3.14-1.386-2.28 2.331-3.15-0.436-0.72-3.061-0.17-0.184-2.07 0.995-1.26-0.797-1.16 0.477-1.13-1.068-0.95 0.972-1.84-2.028-1.31 0.119-5 1.943-1.21-0.949-3.09 0.373-4.56-0.521-1.44 0.757-1.93-0.098-1.42 0.995-1.82-0.47-2 0.994-0.06 0.59-2.45-0.069-1.94 2.71-1.56-0.681-4-0.875-2.27 0.31-1.66-0.112-4.73 0.511-1.27 1.623-0.44 0.077-0.95 1.614-1.33-0.139-3.33-0.673-1.82 0.781-0.26 0.794-3.54 0.937-1.87 1.038-0.2-0.313-3.51 0.539-1.69-1.566-1.15 0.503-1.85-0.699-0.65-0.162-1.8-0.747-1.09 0.4-1.89-0.932-0.53-0.816-1.89 0.558-2.65 0.7-0.32 0.613-3.06 1.572-1.18-0.364-1.47 0.233-1.96-0.568-2.04 1.193-1.52 0.755-3.99 2.4-2.69 0.243-1.07 1.617-3.5 1.076 0.28 1.277-0.66 0.051-0.99-1.25-1.78-0.025-1.38 0.777-0.7-0.931-4.12 0.45-1.4 0.743-0.44-1.025-1.84 1.64-2.12 4.41-1.94 1.742-5.62-0.9-0.97"></path><path d="m556.8 1229 0.071-18.12 1.808 2.83-1.274 1.16 0.347 1.48 1.7 0.38 0.639 2.17 3.429 3.83 2.656 1.67 1.422 1.86 3.19 1.56 3.443-0.06-0.883 2.37-3.17-0.1-2.872 1.3-2.452-1.27-8.054-1.06"></path><path d="m612 1058-0.044-0.05 1.432-1.17 4.547-5.34 2.589-3.37 0.627-1.29 1.659-0.87 0.555-0.86 1.52-0.49 0.991-1.67 3.19-1.6 1.852-0.68 0.543-1.49-0.177-1.01 0.396-2.65-0.797-1.38-0.419-1.9-1.524-0.55-1.927 0.25 1.696-6.87 0.079-1.53-1.837-1.31-1.655 0.86-2.272 0.04-0.663-2.04-0.023-2.04-0.513-1.24 0.033-2.03-1.309-1.73-1.519-0.15-1.125-1.1-2.105 1.16-1.855-0.55-3.15-0.24-0.715-0.58 0.656-3.79-0.023-3.22-1.493-3.02 1.495-0.98-1.324-1.33 1.678-3.556 0.033-0.787 1.157-3.833-0.895-1.775-0.304-1.523-1.097-0.31-1.855-1.203-0.495-3.05 0.621-0.909-0.544-0.929-8.325-0.303-0.25-0.266-0.291-3.739-1.457-1.861 1.272-0.252-0.084-2.406-0.909-2.647 0.042-1.549-2.158-1.356-2.255-0.305-2.501 0.191-1.868-2.105-2.929-0.679-1.338-1.724-0.862 0.249-2.77-1.262-0.599 0.458-2.373-0.446-0.366-1.004-2.642-1.355-0.341-1.242-1.437-1.85 0.25-2.038-0.735-2.66 0.81-1.28-0.082-1.983-1.398 0.059-1.023-0.529-4.216 0.869-2.162 1.791-1.368 0.351-2.09 1.974-1.71-0.084-0.978 1.432-1.612 0.68-1.341-0.49-3.468-0.326-1.893-0.168-1.666 0.741-1.76-0.275 0.015-5.892 0.475-0.634-0.687-1.01-2.579 2.09-0.974 0.34-4.021-6e-3 -0.33-1.716-0.843-0.939-1.916-0.361-2.008-0.01 1.278-1.638-1.076-1.847-1.76-1.761-0.928-2.951-1.286-1.026-0.05-1.06 1.093-0.187-0.023-2.183 3.168-2.361-0.515-1.799 1.167-1.854 0.417-2.896 1.454-0.551 2.78-2.093 1.484-0.62 4.029-0.483 0.682-1.032 2.011-0.227 0.993 0.85 1.332-0.337 0.969-5.023 1.859-10.26-1.145-2.247-0.018-1.133-1.562-1.007-0.647-0.902 0.098-3.566 96.32 2.093-2.055 1.093-1.218 2.112-1.261 1.379-0.134 1.46-1.026 0.696 0.04 0.737-2.403 0.482 1.391 0.985 4.278-1.994 1.176-0.912 1.043-0.035 0.026 2.027 1.269 2.273 0.963 0.416 1.979-0.739 1.505 0.413 0.954-0.724 1.266 0.922 1.332-1.743 0.769 0.107 0.848-1.178 1.512-0.348 0.895-1.78 0.034-0.892 2.847-1.018 1.453 0.073 1.047 0.789 2.354 0.313 0.669 1.045 1.294-0.055 2.057 1.32 0.569-0.573 1.474 1.387 0.305 0.727 1.244-0.596 2.848 1.917 0.239 2.776-1.098 2.967 1.303-0.223 0.325-2.006 1.475-0.751 0.294 1.177 1.378-0.588 1.308 0.103 0.826-0.957 3.009 1.07 1.285 0.96 2.245 0.303 0.914-0.396 0.731 0.731 1.66 0.204 4.217-0.671 2.569 0.311 3.138 1.678 3.493 2.469 1.011 0.21 1.754 2.203 1.69 1.196 0.807 1.061 1.412 0.444 0.709 1.076 1.421 0.137 1.544 0.827 2.964-0.279 2.433 0.483 1.242 1.706 0.847 3.53 0.273 0.255 0.894 4.203 0.31 0.439-0.071 3.769-1.679 5.085-2.176 3.146-1.353 1.006-0.915 1.689-1.074 0.936-0.785 1.29-2.475 1.378-2.659 4.058-1.099 2.455-1.981 3.026-1.348 1.509-0.943-1.089-1.146 0.07-0.518 2.179-1.103 1.226 0.694 3.109-0.718 3.463 0.717 5.391 0.297 0.664-0.948 3.087-0.773 3.791 0.124 2.298-0.456 1.396-1.12 0.73-1.128 2.701 0.074 4.745-0.625 1.276-0.96 0.57-1.61 3.92-1.173 1.61-0.742 0.23-1.7 3.64 0.523 2.28-1.382 1.07-2.114 0.74-1.499 1.37-0.46 2.27-2.83-0.08-2.036 0.19-0.221-1.67-0.973 0.44 0.25 1.34-1.61 0.3-1.611-0.83-1.633 0.82-1.223-0.28-3.223 2.73-1.767 0.91-0.378 0.94-1.776-0.44-1.077 0.39-4.433 2.58-1.075 1.29-3.221 1.98-0.631 1.7-2.405 2.33-0.899 2.32 0.15 0.65-0.498 3.14 0.535 1.66-0.361 3.56 0.409 1.2-1.249 4.26-2.637 1.78-2.339 2.98-1.174 2.13-1.351 3.75-2.029 3.39-2.152 2.55-0.122-1.94 2.226-2.08 0.969-2.74-2.927-0.38-1.602 4.8-1.049 1.04-1.35 0.28-0.39 1.43-1.224 1.71 0.591 1.98-1.24 1.9-1.231 3.59-0.989 1.32-2.798 2.51-0.803-0.55 0.14-3.3 1.924-2.05-2.609-2.47-0.616-1.72-1.816-0.81-1.644-1.4-0.639-1.18-1.141-0.21-2.201-1.21-1.659-2.22-1.125 1.14-0.861-1.09-1.23-1.69-2.981-2.69-1.355 0.11-0.552 0.97-1.951-0.56"></path><path d="m657.7 902.9-0.901 2.537-0.996 0.649 0.014 1.147-1.918 0.893-1.669 0.121-1.335 0.856-1.142-0.563-1.766 0.635-1.995-2.03 0.122-3.823 0.982-2.342 1.076-0.433 3.574 0.678 2.19-0.5 3.941 0.594-0.177 1.581"></path><path d="m644.1 903.1-0.426 2.019-2.572 2.162-0.434-1.034 0.773-0.568 0.21-1.415 0.853-1.198 1.596 0.034"></path><path d="m649.8 898.5 1.933-0.433-0.898 1.876-2.339-4e-3 -0.346-1.013 1.65-0.426"></path><path d="m645.1 901.5 0.133-1.396 0.906-0.292 0.693 0.661-1.732 1.027"></path><path d="m612 1058 1.951 0.56 0.552-0.97 1.355-0.11 2.981 2.69 1.23 1.69 0.861 1.09 1.125-1.14 1.659 2.22 2.201 1.21 1.141 0.21 0.639 1.18 1.644 1.4 1.816 0.81 0.616 1.72 2.609 2.47-1.924 2.05-0.14 3.3 0.803 0.55-1.929 3.92-1.906 1.68-3.967 1.84-2.188-1.03-2.075-0.16-2.596 0.8-0.686-0.9-1.734-0.36-1.624-1.43-3.513 0.07-2.831-3.22-0.229-0.95 0.338-3.78 0.963-0.26 0.63-1.19-0.759-2.75 0.158-3.56 0.909-1.71 0.898-3.78-0.212-2.46 1.036-1.69 0.198-0.01"></path></g><g stroke-width=".75"><path d="m521.1-0.9222 0.716-5e-3 1.816 0.9615-0.859 0.2708 0.105 1.208 0.811 0.6137-1.44 4.882-2.656 3.131-2.967 2.225-5.822 2.036-2.57 2.543-0.694 2.329-0.903 1.87 0.049 1.123-0.902 0.5077-0.781 1.544-1.47 5e-3 -0.737-0.7576-0.283-1.397-1.443-0.2339-1.419-0.8805-1.644 0.8435-0.401-0.4088 0.038-1.99 1.579-0.5447-0.878-2.487 1.938-0.9804 1.141-3.141-2.251 0.085-0.727 0.6196-1.68-1.474-1.285-0.4857 0.843-1.079 0.06-0.9944-0.583-1.441 0.527-1.36-0.86-1.39 1.499-0.6207 0.972-1.708-0.372-1.09 2.15-2.167"></path><path d="m445.9 3.151-0.587 1.198-2.355 0.2409-0.18-1.2 1.708-1.044-1.289-1.31-0.357-1.392 1.071-0.09 0.123 1.001 1.112 1.154 0.754 1.442"></path><path d="m449 2.189-0.725 1.193-0.754-1.257 1.479 0.064"></path></g><g stroke-width=".7502" font-weight="400" font-size="37.5px" font-family="'MS UI Gothic'" transform="matrix(1 0 0 .9994 0 -900)"><path d="m549.7 897.1-0.098 3.566 0.647 0.902 1.562 1.007 0.018 1.133 1.145 2.247-1.859 10.26-0.969 5.023-1.731-2.041-1.165 0.18-0.95-0.417 3.418-5.343-4.118-2.43-1.728 0.56-2.741-0.997-0.991 0.932-2.152 0.59-1.239-0.562-1.494 0.425-1.26-1.16 0.421-0.57-0.376-1.369-1.724-0.63 0.169-0.979-0.697-1.115-3.263-1.561-0.617-1.849-2.06-2.014-1.585-0.635-0.709 0.318"></path><path d="m586.7 1014 1.873-6.28-8e-3 -2.6 1.666-2.54 0.915-2.37 8.774-1.912 4.584-0.06 4.572 2.842 0.082 1.82 1.493 3.02 0.023 3.22-0.656 3.79 0.715 0.58 3.15 0.24 1.855 0.55 2.105-1.16 1.125 1.1 1.519 0.15 1.309 1.73-0.033 2.03 0.513 1.24 0.023 2.04 0.663 2.04 2.272-0.04 1.655-0.86 1.837 1.31-0.079 1.53-1.696 6.87-0.531 4.82-1.344 1.93-2.194 1.08-1.704 2.61-1.849-0.82-1.215 1.59-0.894-0.71-1.79-0.2-1.378 0.38-4.21-1.28-2.444 0.11-0.712-0.69 2.026-2.23 0.209-1.99 0.598-1.54 2.648-3.7-0.985-1.55-2.35-1.32-2.926-0.9-2.659-1.59-0.594-0.71-2.869-1.93-1.472 0.06-3.392-1.16-0.517-1.09-1.91-1.05-2.323-2.06-1.654-2.99-1.816-1.35"></path><path d="m611.8 1058 0.154-0.06 0.044 0.05-0.198 0.01"></path></g></g><path stroke-width=".75" d="m0 861.2 24.11 3.168 34.62 12.24 1.18 7.206 25.85 5.657 18.17 11.58h-103.9"></path><path stroke-width=".75" d="m900 901h-783.5l-1.163-4.549 6.481-10.1-41.1-15.01-7.734-9.585 1.277-11.3 7.258-4.278-8.589-13.33-13.16-0.6097-6.897-15.39-22.97-20.75 13.1 1.569 3.444 10.07 13.17 2.479 15-2.259 4.6 8.305 9.986 5.647 23.07-5.897 9.815-14.57 2.667-9.904 12.58-9.944-1.769-6.636-9.536-14.97 5.068-9.665-6.031-6.896-10.3-4.618 3.033-6.656 19.6-3.278 24.51-4.048-14.91-19.91 1.198-5.707 7.678 1.649 4.442-9.884-5.734-4.368-6.772-1.969-13.16-11.35-9.452-2.758-7.792-9.595 2.377-4.278 6.612-0.9894 2.969-5.107-11.06-1.179-4.258 1.289-7.187-9.375 2.484-10.19 5.286-1.759 3.796-6.436 7.147 0.8395 16.9 7.086 7.698 9.315 6.507-3.328 8.919-9.645 2.466 5.477 4.95-0.3698 0.658-5.897-1.588-6.796-7.445-10.49-6.856 1.569-5.935-1.629 7.214-7.216 9.731 7.086 3.561-2.299-4.805-4.787 1.452-3.538 10.24-2.279-0.736-3.278 9.203-4.218 6.143 3.338 4.807-3.318 3.552-5.597 13.44-2.139-0.036-4.038 7.712-5.077 7.384 6.996 5.372-3.048 8.892 0.9095 5.189 1.849 7.51-2.858 7.67-1.649 12.87 0.5697 1.571 1.989 16.11-1.359 8.472-2.678 0.798-3.628 4.258-1.699 2.307 3.548 4.845 1.019 9.275-1.619-1.432-6.946 4.574-4.188 2.994 2.918-1.36 3.878 1.17 6.526-1.602 5.637 12.14-1.599-1.871-3.468 0.149-7.256 7.192 0.7896 1.727 5.157-0.956 4.408-6.162 6.276 0.229 1.709 8.941-0.9694 9.134 3.478 7.084-0.1299 6.537-2.658 9.229-1.869 8.659 1.189-0.463 3.108 7.597 1.559 3.53-1.599 0.537-6.636-3.797-2.239-0.237-7.036-6.326 0.5497-0.966-9.255-6.671-2.578 0.168-4.847 7.522 1.449 1.107 1.839 6.483-0.6696 1.911-3.288-1.414-3.218-10.44-1.039-5.085 0.06-2.074-2.579-0.708-5.297 1.943-2.389 4.737 1.079 0.668 4.827 5.972-1.359 15.24 0.8395 6.212 4.727 3.162 0.5597 3.244-2.129 4.29 1.959 3.821-2.538 8.089 0.1599 4.195 2.009 4.541-2.609 4.614-0.7496 0.866-5.827 5.009 1.339-3.026 4.717 1.351 2.489 4.694-1.089 2.792 3.178 6.34-3.578 0.679 3.368 8.306 5.197 4.739 0.7795 4.345 3.158 4.154-2.808-0.386-8.046 8.319-4.038 4.517 5.637-0.639 3.838 6.703-2.039 4.162 1.409-2.718 4.707 4.826 0.1499 5.045-3.558 5.815 1.689 5.16-4.807 13.9-2.629 8.128-3.548 5.782-4.338 3.815-12.3-0.261-2.219-4.112-8.305 1.057-6.836-2.691-10.27-2.672-3.818 0.61-5.357-2.315-3.608 4.358-0.8095 2.129 0.8395 3.841-5.107-1.285-3.978 0.352-7.676-1.615-3.398 3.184-5.617-4.201 0.07-0.341-5.317 5.499-3.748 0.742-3.288 2.459 1.639 0.799-6.266 1.904-3.178 2.866 0.9995 2.707-5.057 2.315-1.209-2.138-3.078 1.414-2.828 3.717 1.619 2.828-5.127 1.881 0.6197 2.795-3.988 2.348-0.7096 1.18-3.838 4.832-2.269 2.109 0.3598 2.952-3.828 3.834-1.069 1.258-1.449 3.872-0.8195-0.105 2.928-4.751 1.789-3.282 4.178-1.298 4.737-2.123-1.299-4.084 2.199-4.087 5.747-3.438 0.9095-2.295 2.578 1.188 2.269-2.058 5.127 1.748 2.409 3.417-0.2899 0.474-2.149 3.335 0.3299-5.524 4.647-2.69-1.759-2.239 0.6497-5.438-0.1499-0.902 6.117 0.525 2.718-4.713-0.9195-0.962 2.399 1.085 3.518-4.198 3.218-0.42 4.408 3.419 2.678-2.46 2.948 0.712 3.468 4.896 3.038 2.733-0.9195 3.002 1.669-0.542 2.938 1.791 4.628 2.827 1.939-0.662 5.027 2.602 3.088-1.856 4.997 5.131 2.209-3.258 3.498 3.72 1.539 1.636 4.428-0.922 5.587 1.737 3.508-3.628 1.509 0.349 3.398 3.828 3.108 0.096 2.868-3.615 0.5996 6.36 14.15-5.37 0.3498 1.84 4.537-1.279 9.425 1.867 4.078-4.304 4.078-2.946 7.746-2.706-4.747-4.5 3.208 2.661 5.327-6.157 1.839 5.554 3.318-15.28 12.17-9.429 2.848-10.38 6.386-0.757 4.887-6.884 1.849-3.486-1.599-20.46-3.548-5.122 4.428 9.985 18.22 2.231-2.399 11.79 3.198-4.526 10.62-7.951 2.898-12.34-5.177-15.38-3.328-4.27 1.709 21.02 13.56-1.707 7.976-12.71 2.858-10.96-9.685-5.953-11.13-1.043 9.974 3.163 8.935 10.74 11.26 3.382 1.479 19.48 1.459 3.04 5.647-3.538 11.74 5.269 13.59-0.668 7.116 4.369 8.775 3.957-3.628 7.449-0.1699 10.62-4.388 2.29 9.984 8.021 4.308 15.99 13.3 13.8 1.539 1.034 4.627-17.42 0.6196-1.853 17.32 4.949 7.856 13-5.607-1.615 9.934 5.851 32.15 10.77 6.416 8.856-23.17 8.858-16.8 13.51-13.36 24.22-8.435 10.51 0.6897 0.952 11.39-3 6.766 5.842 4.618 7.547-5.157 4.316-10.27-0.212-7.706 6.02-9.765 1.112-7.086 15.04-17.51 5.663 3.968 7.948-2.399 4.091-7.046 8.694-2.459 10.99-9.595 7.59-3.588 27.53-2.898 6.743-2.688-9.121-5.717-29.72-5.407 5.659-8.395-5.349-5.457-11.04 4.488-17.16-10.32-0.949-6.147 2.141-9.964 3.501-8.825 7.959-12.39 15.14-10.3 2.694-4.677 6.471-6.037 9.37-3.858 5.185-4.907 8.113-3.138 10.12-2.738 5.639 1.219 3.873-4.667 5.795 1.519 3.67-2.648-1.836-3.278 5.357-9.135 1.73-8.245 4.295-0.5597 4.221 2.289 6.956-10.48-1.677-1.219-4.945 2.858-4.583-5.637 0.822-3.878 4.485-5.837 3.291-0.5897 3.929 1.559-0.626-5.207 5.207-0.4098 3.626-4.098 5.497-2.708 2.038-10.61-6.131-1.889-1.028-3.598 2.506-2.109 4.038 4.518 5.662-7.586 4.173 1.899 2.454 8.086 5.088-1.689-0.843-2.608 1.005-4.328-1.458-4.977 2.858-0.5297 3.33 2.029 1.502-3.288 3.213 0.3698-0.303 4.677-2.07 5.077 4.78-0.5497 9.28 1.469 2.254-2.449 3.779 3.358 6.592-1.649-0.697 3.868 2.414 2.079 2.347-5.273"></path><g fill-rule="evenodd"><g stroke-width=".75"><path d="m637.4 702.9 11.28-18.88-2.248-6.906 2.546-17.94 5.658-13.59 9.249-6.436 6.443 1.049 7.097 5.387 3.479 5.007-0.722 8.845-5.963 1.489-0.316 4.018 7.4-0.4697 3.837 16.66-0.221 11.66-2.579 10.1-30.94 14.62-0.394 3.268-21.82 2.698-1.231-4.288 4.751-17.45 4.694 1.149"></path><path d="m542.7 537.5-4.741 0.7596-3.505-3.358 2.162-3.338 9.835 2.069 1.261-4.208-1.311-3.798-5.554-1.649-2.542-3.018-3.48 5.007-4.849 3.998-6.756-4.048-0.239-4.048 4.905-3.828 7.635-3.088 0.548-2.589 5.481 1.479 3.322-3.028-1.205-4.288 1.34-3.218 4.405-2.029-0.566-2.858-5.43 0.5996-2.977-3.098 3e-3 -3.738 1.479-3.628-2.631-3.148 0.647-3.878 8.053-2.339 1.482 1.439 0.142 5.607 1.872 0.3499 1.928 4.418 0.162 4.298 2.822 6.556 2.106 7.536 0.69 11.45-1.265 9.874-3.623 2.559-0.397 2.778-6.528 2.079-4.681-0.6397"></path><path d="m603.6 703.1-2.353 3.728-0.308 12.44-4.168 6.776-9.347-3.018-3.096-8.455-5.718 4.897-12.08-10.34 24.75-1.319 1.422-14.19 8.227-3.178 2.669 12.66"></path><path d="m566.3 655.3-11.06 16.83-6.977 16.28-5.512-1.219-1.857-4.797 2.101-10.15 4.013-5.647 18-14.64 1.293 3.348"></path><path d="m100.8 678.9 4.337 10.28-8.69 3.728-16.12-12.3-1.057-11.19 4.415-6.087 4.559-0.1199 12.56 15.69"></path><path d="m422.5 532.3-2.778 4.448-12.63-0.1799-4.082-1.249-4.044-3.748-10.43-2.359 1.026-2.479 8.248-1.519 3.439 2.598 4.607-4.508 4.229 1.589-1.231 2.988 4.615 2.149 1.287-4.867 3.439-0.6596 3.222 4.348 1.084 3.448"></path><path d="m262.6 553.3 0.85-4.048 3.88-0.8695 4.64 2.808 1.646 4.757 3.202 0.5696 4.233 6.836-5.006 2.129-8.456-6.966-0.356-3.078-4.633-2.139"></path><path d="m298.7 560-3.714 4.008-0.475 3.678-5.722 1.209-3.924-3.058 1.486-4.577-1.673-5.787 11.9 1.639 2.126 2.888"></path><path d="m525.4 511.7-6.089 1.769-2.061-2.659 2.168-1.949 4.546-0.9295 1.895-2.558 4.684-0.5497 1.326 3.088-6.469 3.788"></path><path d="m525.8 541.5 3.141 2.119-1.873 10.84-6.407-4.707-1.258-3.258 6.397-4.997"></path><path d="m554.5 463.5-0.228-1.969 3.885-8.425 3.505 4.188-2.311 5.497-3.728 2.509-1.123-1.799"></path><path d="m97.14 747.1-15.79-3.988 3.723-7.036 11.54 6.406 0.523 4.618"></path><path d="m522.6 498.3-1.476-3.078 4.08-2.988 2.778 3.198-2.33 3.598-3.052-0.7296"></path><path d="m730.4 677.9-14.05-0.3898 6.115-5.537 7.935 5.927"></path><path d="m612.4 423.1-3.4 0.4598-0.321-5.437 2.252-1.009 3.259 3.038-1.79 2.948"></path><path d="m585.5 425.2-2.147 2.778-3.467 0.1799 2.271-5.917 3.343 2.958"></path><path d="m569.3 686.5 3.187 9.485-7.307-1.219 4.12-8.265"></path></g><g stroke-width=".7502" font-weight="400" font-size="37.5px" font-family="'MS UI Gothic'" transform="matrix(1 0 0 .9994 0 -900)"><path d="m154.1 990.1h-2.021l-0.084-1.078 1.251 0.076 0.854 1.002"></path><path d="m38.99 968.6-0.4826 0.912-1.128 0.184-1.133-1.169 1.918-0.594 0.8256 0.667"></path><path d="m720.5 1228-0.965 1.73-1.807-3.02-1.751-0.8-2.873-2.55 1.092-0.88 2.74 0.64 2.898 2.95 0.666 1.93"></path><path d="m610.9 1203-1.641 0.56-2.3 1.94-3.908 0.89-0.976-1.63 2.403-2.34 0.082-1.73 3.014-0.84 0.762 0.92 2.113-0.31 0.451 2.54"></path><path d="m601.8 1203-1.197 1.68-1.94 0.29-1.384 1.89-1.751-1.47 2.435-0.97-1.052-1.41 1.807-1.06 1.096-1.76 1.405 0.44 2.463-0.48-1.882 2.85"></path></g></g></g></svg>
