<svg version="1.1" xmlns="http://www.w3.org/2000/svg" xmlns:xlink="http://www.w3.org/1999/xlink" width="208" height="32" viewBox="0,0,208,32"><g transform="translate(-240,-164)"><g data-paper-data="{&quot;isPaintingLayer&quot;:true}" fill-rule="nonzero" stroke="none" stroke-linecap="butt" stroke-linejoin="miter" stroke-miterlimit="10" stroke-dasharray="" stroke-dashoffset="0" style="mix-blend-mode: normal"><path d="M240,196v-32h208v32z" fill="none" stroke-width="0"/><path d="M255.53,174.82h3.4961v4.0039h-1.748c0.38411,0.56641 0.75195,1.17187 1.1035,1.8164l-1.875,1.0058c-0.8008,-1.60153 -1.6146,-2.9036 -2.4414,-3.9062l1.7188,-0.82031c0.41667,0.48177 0.791,0.94077 1.123,1.377v-1.875h-6.4844c0.55339,0.57291 1.12632,1.31185 1.7188,2.2168l-1.7578,1.084c-0.41016,-0.82033 -0.98309,-1.6732 -1.7188,-2.5586l1.3184,-0.74218h-6.9141v2.4023h-2.1191v-4.0039h3.3398c-0.20183,-0.49479 -0.45899,-1.00912 -0.77149,-1.543c-0.28646,0.013 -0.77149,0.0358 -1.4551,0.0684l-0.82031,-1.6406c6.0612,-0.14974 11.10687,-0.58594 15.137,-1.3086l1.543,1.4453c-0.944,0.15625 -1.81313,0.28971 -2.6074,0.40039l1.4258,0.41992c-0.23437,0.54687 -0.63801,1.26627 -1.2109,2.1582zM253.4109,174.82c0.48828,-0.8854 0.87891,-1.71223 1.1719,-2.4805c-1.263,0.16927 -2.679,0.31901 -4.248,0.44922c0.41015,0.63802 0.73893,1.31509 0.98633,2.0312zM249.2117,174.82c-0.24739,-0.59245 -0.57617,-1.21745 -0.98633,-1.875l-2.6074,0.20508c0.38411,0.625 0.66406,1.18163 0.83985,1.6699zM245.9305,184.5466c-1.15233,0.7292 -2.4056,1.33467 -3.7598,1.8164l-1.2207,-1.582c2.52607,-0.77473 4.54757,-1.91407 6.0645,-3.418c-0.50781,-0.20833 -0.76172,-0.56313 -0.76172,-1.0644v-3.1348h2.0801v2.1387c0,0.34505 0.08463,0.55339 0.2539,0.625c0.16276,0.06513 0.76496,0.0977 1.8066,0.0977c1.1784,0 1.83597,-0.07161 1.9727,-0.21484c0.16276,-0.16927 0.25065,-0.63801 0.26367,-1.4062l1.8945,0.47851c0.00667,0.06513 0.01,0.12698 0.01,0.18555c0,0.84633 -0.13346,1.46483 -0.40039,1.8555c-0.18881,0.27995 -0.55664,0.45247 -1.1035,0.51758c-0.71613,0.09115 -1.71873,0.13672 -3.0078,0.13672c-0.27344,0 -0.52409,-0.00333 -0.75195,-0.01c-0.2474,0.30599 -0.4948,0.58268 -0.74219,0.83008h6.8652l0.89844,0.89844c-1.06773,1.1328 -2.334,2.11587 -3.7988,2.9492c1.9206,0.60547 4.26433,1.03841 7.0312,1.2988l-1.2402,1.9141c-2.82553,-0.41015 -5.45573,-1.11329 -7.8906,-2.1094c-2.5716,1.2044 -5.46547,2.00843 -8.6816,2.4121l-1.123,-1.7578c2.6888,-0.21485 5.2767,-0.76825 7.7637,-1.6602c-0.8854,-0.52083 -1.6927,-1.1198 -2.4219,-1.7969zM250.4032,185.47433c0.03907,-0.013 0.1237,-0.05532 0.2539,-0.12695c0.86587,-0.46224 1.62433,-0.95051 2.2754,-1.4648h-5.2148c0.84633,0.625 1.74153,1.1556 2.6856,1.5918zM241.9266,180.94313c0.64453,-0.8268 1.24349,-2.06703 1.7969,-3.7207l1.9043,0.55664c-0.42318,1.6862 -1.04491,3.0892 -1.8652,4.209z" fill="#ffffff" stroke-width="1"/><path d="M270.1,177.48h-2.1582v-1.6406h1.4844c-0.29948,-0.944 -0.60872,-1.6992 -0.92773,-2.2656l1.4844,-0.47852c0.49479,0.78773 0.86589,1.56247 1.1133,2.3242l-1.3184,0.41992h5.2441c0.59896,-1.22393 1.05796,-2.39257 1.377,-3.5059l1.9434,0.72266c-0.44271,0.92447 -0.93098,1.8522 -1.4648,2.7832h2.1582v1.6406h-7.0215c-0.02607,0.36458 -0.06838,0.84311 -0.12695,1.4356h7.6367v1.7188h-7.8613c-0.01953,0.11067 -0.04883,0.27018 -0.0879,0.47851c-0.0456,0.27344 -0.10094,0.54688 -0.16602,0.82031h6.1524l0.91796,0.85938c-0.72267,1.43227 -1.60807,2.63343 -2.6562,3.6035c1.17187,0.57943 2.45117,1.01236 3.8379,1.2988l-0.85937,1.8359c-1.6276,-0.39713 -3.0892,-1.0254 -4.3848,-1.8848l-0.0977,-0.0586c-1.3216,0.87893 -2.7539,1.58857 -4.2969,2.1289l-1.0449,-1.6016c1.4518,-0.31901 2.75387,-0.85287 3.9062,-1.6016c-0.83987,-0.7096 -1.56253,-1.5169 -2.168,-2.4219c-0.78127,2.02473 -1.9336,3.7923 -3.457,5.3027l-1.4551,-1.377c2.0052,-1.7578 3.30403,-4.21873 3.8965,-7.3828h-2.1973v-1.7188h2.4609c0.06513,-0.55339 0.11071,-1.03192 0.13672,-1.4356zM274.2602,185.4585c0.78127,-0.6836 1.3607,-1.3314 1.7383,-1.9434h-3.9062c0.54687,0.64453 1.26954,1.29233 2.168,1.9434zM263.8602,184.3062c-0.9896,-0.67707 -2.00197,-1.26627 -3.0371,-1.7676l0.0977,-0.3125c0.50781,-1.53647 0.96681,-3.5254 1.377,-5.9668h-1.7969v-1.9043h2.0703c0.20183,-1.4844 0.36459,-2.77673 0.48828,-3.877l1.9043,0.23437c-0.14974,1.3086 -0.29948,2.5228 -0.44922,3.6426h2.9492c-0.10417,4.04293 -0.54363,7.15817 -1.3184,9.3457c0.3125,0.21485 0.778,0.56641 1.3965,1.0547l-1.123,1.6016c-0.42318,-0.38411 -0.76825,-0.68359 -1.0352,-0.89844c-0.85287,1.69273 -1.92057,3.06317 -3.2031,4.1113l-1.416,-1.5527c1.24347,-0.8268 2.27537,-2.06377 3.0957,-3.7109zM264.52427,182.6168c0.51432,-1.6732 0.87565,-3.79233 1.084,-6.3574h-1.3867c-0.33203,2.14193 -0.72917,3.97787 -1.1914,5.5078c0.41015,0.20833 0.90819,0.49154 1.4941,0.84961zM267.27817,171.4158c3.5156,-0.0586 6.98227,-0.39713 10.4,-1.0156l1.0059,1.5332c-3.26173,0.48829 -6.83607,0.84312 -10.723,1.0645zM272.67857,175.8006c-0.34505,-1.13933 -0.69012,-1.97917 -1.0352,-2.5195l1.5332,-0.45898c0.46224,0.61849 0.89194,1.41602 1.2891,2.3926z" fill="#ffffff" stroke-width="1"/><path d="M296.76,170.98v9.4629h-11.621v-9.4629zM287.2385,172.523v1.2207h7.4023v-1.2207zM287.2385,175.1207v1.2207h7.4023v-1.2207zM287.2385,177.7183v1.2598h7.4023v-1.2598zM283.3029,181.7417h16.191v1.6992h-8.0762v6.0644h-2.2168v-6.0644h-8.0371v-10.957h2.1387zM280.8029,187.6401c1.54947,-0.71613 3.0306,-1.9173 4.4434,-3.6035l1.7969,1.0449c-1.3932,1.76433 -2.93943,3.15107 -4.6387,4.1602zM297.6389,188.8999c-0.99607,-1.22393 -2.49347,-2.50973 -4.4922,-3.8574l1.6797,-1.1816c1.569,0.90493 3.1087,2.09307 4.6191,3.5644z" fill="#ffffff" stroke-width="1"/><path d="M316.04,174.76h2.8516v10.645h-6.2988v-10.645h1.7578c0.09115,-0.41016 0.19531,-0.96356 0.3125,-1.6602h-2.5781v1.2598h-2.7539v1.8262h2.6172v5.4004h-2.6172v0.76172c0.90493,0.76173 1.83267,1.6862 2.7832,2.7734l-1.0644,1.543c-0.61198,-0.918 -1.18491,-1.69273 -1.7188,-2.3242v5.166h-1.7578v-5.8984c-0.6966,1.63413 -1.6276,3.18037 -2.793,4.6387l-1.084,-1.7774c1.44533,-1.39973 2.5814,-3.02733 3.4082,-4.8828h-2.1484v-5.4004h2.6172v-1.8262h-2.9199v-0.87891l-1.3965,1.416c-0.89847,-1.2044 -1.78387,-2.18423 -2.6562,-2.9395l1.4551,-1.3965c1.0612,0.92447 1.92707,1.81967 2.5976,2.6856v-0.625h2.9199v-2.1191h1.7578v2.1191h2.5391v-1.2793h7.5781v1.7578h-2.9688c-0.10417,0.47526 -0.25065,1.02866 -0.43946,1.6602zM314.292,176.3225v1.5234h2.9199v-1.5234zM306.499,177.7483v2.2754h1.1719v-2.2754zM310.4443,180.0237v-2.2754h-1.1914v2.2754zM314.292,179.28151v1.5039h2.9199v-1.5039zM314.292,182.22101v1.6016h2.9199v-1.6016zM302.788,179.77961c-0.83987,-1.1328 -1.71877,-2.14517 -2.6367,-3.0371l1.4844,-1.3184c0.8724,0.71613 1.76433,1.68293 2.6758,2.9004zM300.3759,188.13901c0.98307,-2.02473 1.8229,-4.37173 2.5195,-7.041l1.7188,1.0254c-0.59245,2.55207 -1.40625,5.02603 -2.4414,7.4219zM310.7669,188.34408c1.1198,-0.6966 2.0801,-1.63083 2.8809,-2.8027l1.543,0.95703c-0.91147,1.35413 -1.9043,2.42183 -2.9785,3.2031zM318.3743,189.60388c-0.71613,-1.25 -1.49087,-2.3177 -2.3242,-3.2031l1.4844,-0.91796c0.8594,0.82033 1.6374,1.7676 2.334,2.8418z" fill="#ffffff" stroke-width="1"/><path d="M337.82,175.78v8.2129h-2.2363v-1.2109h-10.723c-0.07812,1.3802 -0.24088,2.513 -0.48828,3.3984c-0.31901,1.15887 -0.91797,2.29493 -1.7969,3.4082l-1.6602,-1.5723c0.74867,-0.95707 1.2402,-2.11267 1.4746,-3.4668c0.17578,-0.98307 0.26367,-2.22657 0.26367,-3.7305v-5.0391zM335.5837,177.6648h-10.674v3.2324h10.674zM321.1107,171.4343h17.969v1.9434h-17.969z" fill="#ffffff" stroke-width="1"/><path d="M348.85,173.76v-3.2617h2.1777v3.2617h7.5v13.594c0,0.7682 -0.20833,1.3053 -0.625,1.6113c-0.33854,0.25391 -0.92774,0.38086 -1.7676,0.38086c-1.4388,0 -2.62693,-0.03581 -3.5644,-0.10742l-0.40039,-2.0801c1.45833,0.09115 2.67577,0.13672 3.6523,0.13672c0.26042,0 0.41342,-0.06185 0.45899,-0.18555c0.03253,-0.07812 0.0488,-0.20182 0.0488,-0.37109v-10.977h-5.3125l-0.01,0.14648c-0.03253,0.52735 -0.09764,1.06771 -0.19531,1.6211c1.9336,1.582 3.65887,3.36587 5.1758,5.3516l-1.6602,1.543c-1.08073,-1.569 -2.43817,-3.19987 -4.0723,-4.8926c-0.83987,2.20707 -2.52933,4.0495 -5.0684,5.5273l-1.2891,-1.7188c1.51693,-0.8724 2.63673,-1.8034 3.3594,-2.793c0.95053,-1.30207 1.47463,-2.89713 1.5723,-4.7852h-5.127v13.74h-2.1973v-15.742z" fill="#ffffff" stroke-width="1"/><path d="M377.76,175.8c0,0.30599 -0.0293,1.75783 -0.0879,4.3555h1.8652v1.7578h-1.9043c-0.01953,0.85287 -0.06185,1.81967 -0.12695,2.9004h1.6504v1.7188h-1.7774c-0.07812,0.944 -0.18554,1.569 -0.32226,1.875c-0.30599,0.7292 -1.04819,1.0938 -2.2266,1.0938c-0.7552,0 -1.4518,-0.05534 -2.0898,-0.16601l-0.36133,-1.7383c0.918,0.13021 1.62113,0.19531 2.1094,0.19531c0.39713,0 0.63476,-0.13997 0.71289,-0.41992c0.03907,-0.13672 0.07487,-0.41667 0.10742,-0.83985h-6.9531c-0.00667,0.05207 -0.01643,0.10741 -0.0293,0.16602c-0.0586,0.34505 -0.11394,0.67057 -0.16602,0.97656l-2.0215,-0.19531c0.39713,-2.35027 0.66406,-4.1276 0.80078,-5.332l0.0293,-0.23438h-1.9531v-1.7578h2.1582c0.18229,-1.57553 0.33854,-3.02737 0.46875,-4.3555zM371.5881,177.4992h-2.1387c-0.01953,0.33203 -0.07813,1.0319 -0.17578,2.0996l-0.0586,0.55664h2.168l0.0293,-0.27344c0.013,-0.1888 0.03253,-0.45247 0.0586,-0.79101c0.06513,-0.91147 0.1042,-1.44207 0.11719,-1.5918zM373.5119,177.4992c-0.03253,0.77473 -0.08136,1.63087 -0.14649,2.5684v0.0879h2.2949c0.02607,-0.89193 0.04887,-1.77733 0.0684,-2.6562zM371.2267,181.9133h-2.1973c-0.09765,0.79427 -0.20182,1.57877 -0.3125,2.3535l-0.0781,0.54687h2.2852c0.15625,-1.41273 0.25716,-2.37953 0.30273,-2.9004zM373.2287,181.9133c-0.01953,0.26042 -0.05859,0.69012 -0.11718,1.2891l-0.15625,1.6113h2.4902c0.03253,-0.63151 0.05857,-1.10677 0.0781,-1.4258c0.03907,-0.6966 0.0651,-1.18813 0.0781,-1.4746zM369.4006,172.2746h9.4336v1.8164h-10.244c-0.52734,1.0742 -1.19791,2.09633 -2.0117,3.0664l-1.3965,-1.5234c1.28253,-1.50393 2.194,-3.2357 2.7344,-5.1953l2.0801,0.21485c-0.23437,0.67707 -0.43294,1.21743 -0.5957,1.6211zM364.0197,175.1164c-0.8008,-1.10027 -1.7741,-2.13217 -2.9199,-3.0957l1.4746,-1.4258c1.0612,0.78127 2.0703,1.7676 3.0273,2.959zM363.31657,180.2726c-0.9896,-1.26953 -1.98893,-2.334 -2.998,-3.1934l1.5234,-1.4648c1.1328,0.89193 2.15167,1.90757 3.0566,3.0469zM360.66037,187.9386c1.1328,-1.569 2.20703,-3.63607 3.2227,-6.2012l1.7383,1.2402c-0.84633,2.3698 -1.93357,4.54427 -3.2617,6.5234z" fill="#ffffff" stroke-width="1"/><path d="M397.86,180.14v9.3652h-2.1973v-1.123h-6.2012v1.123h-2.1777v-9.3652zM389.4616,182.0248v4.4531h6.2012v-4.4531zM384.7839,175.1791c-1.0026,-1.12627 -2.08983,-2.1126 -3.2617,-2.959l1.3965,-1.5625c1.31513,0.8268 2.4219,1.76757 3.3203,2.8223zM383.6804,180.4428c-1.10027,-1.21093 -2.21353,-2.20377 -3.3398,-2.9785l1.4356,-1.6211c1.3216,0.8594 2.4707,1.8327 3.4473,2.9199zM380.4578,187.6987c1.30207,-1.60807 2.5423,-3.68813 3.7207,-6.2402l1.6602,1.4844c-1.0026,2.46747 -2.16797,4.62567 -3.4961,6.4746zM397.8598,179.6616c-2.27213,-2.41533 -3.9453,-5.2018 -5.0195,-8.3594l2.0215,-0.80078c0.9896,2.7344 2.5293,5.20183 4.6191,7.4023zM385.6628,178.1382c1.82293,-1.83593 3.12827,-4.3099 3.916,-7.4219l2.0606,0.625c-0.73567,3.3724 -2.2005,6.19793 -4.3945,8.4766z" fill="#ffffff" stroke-width="1"/><path d="M411.18,173.6h4.4238v-2.3535h2.0801v4.0332h-14.961v-4.0332h2.0801v2.3535h4.2969v-3.0957h2.0801zM404.178,178.307v2.041c0,2.2526 -0.14323,4.00717 -0.42969,5.2637c-0.30599,1.3216 -0.89519,2.5651 -1.7676,3.7305l-1.7188,-1.416c0.59896,-0.83333 1.01889,-1.6569 1.2598,-2.4707c0.33203,-1.1198 0.49805,-2.86133 0.49805,-5.2246v-3.6621h17.002v1.7383zM412.4788,181.3636v1.8066h6.6992v1.7383h-6.6992v4.5996h-2.1973v-4.5996h-5.8789v-1.7383h5.8789v-1.8066h-4.8828v-1.6406h12.344v1.6406z" fill="#ffffff" stroke-width="1"/></g></g></svg>