<?xml version="1.0" encoding="UTF-8"?>
<svg width="480" height="360" version="1.1" viewBox="0 0 480 360" xmlns="http://www.w3.org/2000/svg">
 <g dominant-baseline="central" fill="#fff" aria-label="兵庫県北方沖">
  <path d="m255.03 170.44 1.8457 1.6602q-4.9805 1.0449-10.381 1.4844v2.1777h11.943v1.8848h-3.6035v3.9648h4.6289v1.8848h-18.965v-1.8848h3.7988v-9.7852l0.64454-0.0391q4.9219-0.25391 10.088-1.3477zm-2.373 7.207h-6.1621v3.9648h6.1621zm-11.934 10.088q3.3594-1.2891 5.8984-3.8965l1.8164 1.2793q-2.9688 2.9688-6.123 4.4238zm16.914 1.6016q-2.7344-2.168-6.0742-4.0625l1.5137-1.3574q3.4277 1.5039 6.1816 3.6816z" dominant-baseline="central"/>
  <path d="m272.5 173.8v1.1035h6.377v1.582h-6.377v1.0547h5.4394v6.6797h-5.4394v1.1426h7.0801v1.7188h-7.0801v2.4219h-2.0606v-2.4219h-6.7383v-1.7188h6.7383v-1.1426h-5.3613v-6.6797h5.3613v-1.0547h-6.1035v-1.582h6.1035v-1.1035h-6.5625v4.9609q0 6.7676-1.6992 10.684l-1.8359-1.3672q0.91797-2.5 1.2207-5.3223 0.21484-2.0312 0.21484-4.6387v-5.9766h7.4805v-1.6406h2.1973v1.6406h7.8418v1.6602zm-2.0606 5.1172h-3.3203v1.2402h3.3203zm2.0606 0v1.2402h3.3789v-1.2402zm-2.0606 2.5976h-3.3203v1.3281h3.3203zm2.0606 0v1.3281h3.3789v-1.3281z" dominant-baseline="central"/>
  <path d="m296.76 170.98v9.4629h-11.621v-9.4629zm-9.5215 1.543v1.2207h7.4023v-1.2207zm0 2.5977v1.2207h7.4023v-1.2207zm0 2.5976v1.2598h7.4023v-1.2598zm-3.9356 4.0234h16.191v1.6992h-8.0762v6.0644h-2.2168v-6.0644h-8.0371v-10.957h2.1387zm-2.5 5.8984q2.3242-1.0742 4.4434-3.6035l1.7969 1.0449q-2.0898 2.6465-4.6387 4.1602zm16.836 1.2598q-1.4941-1.8359-4.4922-3.8574l1.6797-1.1816q2.3535 1.3574 4.6191 3.5644z" dominant-baseline="central"/>
  <path d="m305.84 184.3q-2.6953 1.416-4.6973 2.168l-0.82031-2.1484q3.1348-1.0547 5.5176-2.1875v-4.375h-4.834v-2.0606h4.834v-5.1953h2.1777v19.004h-2.1777zm6.9434-7.6074q2.2754-1.1914 4.4141-3.0273l1.6211 1.6992q-2.8906 2.0508-6.0352 3.4961v7.3242q0 0.47852 0.3125 0.58594 0.33203 0.10742 1.5332 0.10742 1.582 0 1.9824-0.18555 0.2832-0.12695 0.39062-0.79101 0.14649-0.92774 0.21485-2.998l2.1875 0.67383q-0.0977 2.5293-0.3125 3.6328-0.24414 1.2305-1.2793 1.5918-0.98633 0.33203-3.2324 0.33203-2.6367 0-3.3203-0.43945-0.6543-0.42969-0.6543-1.6504v-16.543h2.1777z" dominant-baseline="central"/>
  <path d="m329.48 175.76q-0.0684 1.6309-0.19531 2.8711h7.8711q-0.14648 6.7774-0.76172 8.7988-0.3125 1.0156-1.1621 1.4062-0.66406 0.30273-1.9434 0.30273-1.3477 0-3.0566-0.20507l-0.38085-2.1973q2.2949 0.32227 3.2324 0.32227 0.79101 0 1.0059-0.44922 0.51757-1.0938 0.72265-6.0352h-5.8105q-0.32227 1.7578-0.90821 3.0469-1.6309 3.5644-5.4492 5.6543l-1.543-1.7188q3.8281-1.9922 5.0586-5.2246 0.82031-2.1582 1.0644-6.5723h-6.4648v-2.002h7.9785v-3.2617h2.2559v3.2617h8.2422v2.002z" dominant-baseline="central"/>
  <path d="m351.58 174.14v-3.6426h2.0996v3.6426h5.293v8.8379h-5.293v6.5234h-2.0996v-6.5234h-5.1856v-8.8379zm-3.1641 1.9434v4.9707h3.1641v-4.9707zm8.4766 4.9707v-4.9707h-3.2129v4.9707zm-12.5-5.7812q-1.1914-1.6602-3.1543-3.1738l1.4551-1.4844q1.9531 1.377 3.3008 3.0859zm-0.63476 5.0195q-1.6992-1.9727-3.3008-3.2324l1.5039-1.5039q1.709 1.2012 3.3789 3.1055zm-3.0371 7.5684q1.875-2.666 3.457-6.6406l1.7383 1.3379q-1.3379 3.6621-3.2617 6.8945z" dominant-baseline="central"/>
 </g>
</svg>
