<svg version="1.1" xmlns="http://www.w3.org/2000/svg" xmlns:xlink="http://www.w3.org/1999/xlink" width="92.66635" height="80.03681" viewBox="0,0,92.66635,80.03681"><g transform="translate(-216.0424,-438.32703)"><g data-paper-data="{&quot;isPaintingLayer&quot;:true}" fill="#ff0000" fill-rule="evenodd" stroke="none" stroke-width="0" stroke-linecap="round" stroke-linejoin="round" stroke-miterlimit="10" stroke-dasharray="" stroke-dashoffset="0" style="mix-blend-mode: normal"><path d="M305.31889,445.7267l-0.01,1.13995l0.73997,0.85997l-0.61998,0.91996l0.72997,1.48994l2.10992,1.76993l0.43998,1.08996l-0.53998,2.14991l-1.44994,0.72997h-2.10992l-1.32995,0.25999l-1.29995,1.62993l1.09996,2.11992l-0.20999,0.97996l1.15995,1.41994l0.17999,1.78993l-0.83997,0.23999l1.40994,2.94988l0.07,1.42994l-0.56998,1.84993l0.35999,2.11992l-0.31999,0.58998l0.76997,1.02996l-0.44998,0.80997l0.07,1.68993l1.24995,2.09992l-1.25995,0.30999l0.12999,0.92996l-0.73997,0.55998l-1.08996,0.02l-0.1,1.49994l-0.61998,1.14995l-0.67997,0.32999l-1.36995,3.04988l0.32999,0.98996l-0.48998,1.03996l0.19999,2.15991l-1.07996,2.00992l-0.72997,0.77997l-1.95992,-0.21999l-0.93996,0.23999l-1.10996,-1.68993l-1.32995,-0.38998l-1.76993,0.50998l-0.28999,1.57994l-0.94996,0.12999l-0.93996,-0.56998l-2.4099,-0.19999l0.09,1.75993l-0.54998,0.86997l-1.53994,0.79997l-1.26995,-0.26999l-2.26991,0.16999l-1.11996,1.03996l-1.16995,0.1l-1.52994,-0.90996l-0.92996,0.87996l-0.08,2.04992l-1.82993,0.21999l-1.10996,0.70997l-1.23995,0.23999l-0.83997,0.59998l-0.39998,3.33987l0.05,1.06996l-0.64997,0.39998l-0.99996,-0.48998l0.22999,-0.96996l-2.4099,-0.65997l-1.55994,0.56998l-0.68997,-0.16999l-1.47994,2.4799l0.64997,1.79993l-0.97996,1.51994l-0.50998,2.16991l-0.49998,0.96996l-6.17975,2.5399l-1.16995,1.00996l-1.92992,1.08996l-0.14999,-0.43998l-1.99992,-0.61998l-0.1,1.11996l-1.28995,-0.57998l-0.56998,0.84997l-1.05996,-0.22999l-0.23999,-0.83997l-1.04996,0.14999l0.51998,-0.99996l-1.06996,-2.01992l-0.82997,-0.94996l-0.81997,-0.27999l-1.16995,-1.66993l0.57998,-0.86997l-0.25999,-1.03996l-1.79993,-0.41998l-0.72997,0.67997l-2.3999,-0.12999l-2.32991,0.24999l-1.20995,-1.64993l-0.51998,0.57998l-1.83993,-1.10996l-0.50998,0.47998l-3.79985,1.09996l-1.85993,0.06l0.35999,-1.10996l-1.03996,-1.07996l-1.34995,0.1l-0.01,-0.65997l-1.67993,-1.26995l-1.09996,-1.47994l-0.08,-1.04996l1.16995,-0.01l-0.37998,-0.97996l-2.5899,-1.67993l-0.84997,-1.09996l-1.97992,-1.56994l-0.22999,-1.49994l-0.52998,-0.52998l0.88996,-1.74993l0.55998,-0.31999l0.13999,-1.32995l1.47994,-1.64993l0.26999,-1.22995l0.80997,-0.31999l0.24999,-1.01996l0.72997,-0.70997l-0.12,-0.95996l1.66993,-0.09l0.86997,-0.84997l-0.67997,-1.98992l-1.17995,-1.56994l0.37998,-1.75993l0.59998,-0.22999l1.21995,-1.83993l-0.35999,-1.57994l0.29999,-1.59994l1.28995,0.16999l0.85997,-0.45998l0.47998,-1.28995l0.83997,-0.38998l-0.01,-0.78997l0.90996,-1.26995l-0.91996,-0.88996l-0.23999,-1.54994l-0.59998,-0.44998l0.14999,-0.78997l2.12991,-1.40994l2.03992,-0.95996l-1.12995,-1.76993l-0.16999,-1.00996l0.41998,-1.29995l0.78997,-0.44998l0.79997,-1.54994l0.87996,-0.23999l-0.16999,-3.15987l1.38994,-0.27999l1.10996,-0.60998l1.23995,0.09l1.42994,1.17995l-0.25999,0.89996l0.69997,3.73985l0.82997,0.39998l1.64993,1.81993l3.82985,1.73993l1.40994,-1.69993l-1.20995,-1.63993l0.75997,-0.30999l1.04996,0.42998l1.32995,-0.12999l0.60998,0.78997l1.31995,-0.75997l1.30995,-0.03l0.1,1.94992l1.22995,0.73997l-0.77997,1.02996l-0.06,1.21995l1.29995,0.83997l1.19995,-0.39998l0.63997,0.37998l1.21995,-1.32995l1.42994,-0.07l-0.22999,-0.83997l2.4099,-0.83997l0.17999,-1.47994l-0.31999,-2.07992l-0.74997,-1.18995l0.24999,-2.89988l1.05996,-0.15999l1.14995,-1.14995l0.95996,-0.32999l0.57998,1.20995l1.75993,0.03l0.12,-1.71993l1.79993,-1.30995l2.13991,0.92996l2.4599,0.06l0.49998,0.24999l2.5399,0.02l0.18999,-0.85997l2.5599,-0.26999l0.30999,-1.68993l-0.54998,-0.66997l1.04996,-0.67997l-0.29999,-0.61998l1.49994,-1.48994l-0.91996,-1.41994l0.98996,-2.4599l1.57994,0.95996l0.86997,1.22995l2.84989,1.97992l0.64997,-0.89996l0.41998,-1.53994l0.78997,0.50998l1.61994,-0.35999l0.78997,-1.24995l1.12995,-0.14999l2.01992,1.04996l0.33999,0.55998h2.12991l2.19991,-2.02992l0.65997,-1.64993l0.48998,-0.21999l0.37998,-1.44994l1.28995,0.94996l1.07996,-0.63997l0.61998,-1.48994l1.29995,-0.73997l1.37994,0.64997l0.11,1.17995l-0.40998,1.38994l0.53998,1.86993l2.04992,2.30991"/></g></g></svg>