<svg version="1.1" xmlns="http://www.w3.org/2000/svg" xmlns:xlink="http://www.w3.org/1999/xlink" width="163.47533" height="173.84371" viewBox="0,0,163.47533,173.84371"><g transform="translate(-180.9342,-160.33406)"><g data-paper-data="{&quot;isPaintingLayer&quot;:true}" fill="none" fill-rule="evenodd" stroke="#d645ff" stroke-width="72" stroke-linecap="round" stroke-linejoin="round" stroke-miterlimit="4" stroke-dasharray="" stroke-dashoffset="0" style="mix-blend-mode: normal"><g><path d="M305.59,199.68353l0.52992,1.15981l-4.56927,2.83955l1.33979,-2.71956l2.69957,-1.2798"/><path d="M281.77382,196.33406l3.37946,2.33963l2.17965,0.30995l5.91905,4.27932l3.34946,0.10998l0.73988,2.89954l2.15965,-0.53991l3.46944,2.12966l-0.67989,2.04967l1.8597,0.57991l2.66957,-0.6499l1.35978,1.29979l-0.55991,2.15965l0.78987,1.58975l-1.73972,1.80971l0.41993,2.30963l-2.06967,-1.19981l-1.58975,2.17965l-2.98952,-0.15997l-2.75956,1.69973l1.76972,0.42993l0.93985,-1.8497l2.4996,2.32963l2.02968,-1.77972l0.90985,1.2598l-1.93969,1.2198l-0.26996,2.41961l1.2598,1.20981l-0.72988,2.00968l1.61974,2.73956l-3.08951,0.33995l-2.53959,2.68957l-2.4796,0.03999l-5.41913,-1.11982l-1.49976,-1.2498l3.46944,-1.03983l4.42929,0.89986l0.57991,1.32979l1.83971,-1.71972l-2.00968,0.49992l-0.35994,-3.27948l2.08967,-1.2198l-2.37962,-0.89986l-3.39946,0.91985l1.8897,1.13982l-3.1195,0.86986l-0.71988,-2.74956l-2.54959,2.16965l-2.91953,-0.98984l-2.84954,1.96968l0.6199,-3.91937l2.04967,-0.26996l0.89986,-2.12966l-1.92969,-1.14982l-2.30963,3.0995l0.43993,-2.40961l-3.48944,2.4996l2.45961,0.89986l-2.37962,2.25964l0.19997,1.17981l-6.79891,3.46944l-0.88986,-2.55959l1.83971,-1.36978l-3.82939,0.67989l-1.09982,4.23932l-1.04983,-0.74988l0.13998,-2.71956l-1.56975,1.48976l-1.73972,-1.48976l0.46992,3.7494l-2.19965,0.21996l2.11966,1.69973l-8.00872,1.49976l-3.04951,2.02968l-1.17981,-0.75988l-2.25964,2.36962l-2.54959,-1.82971l-0.72988,2.94953l-2.84954,0.04999l-2.66957,4.87922l1.52976,1.48976l-0.6199,1.2198l2.74956,-0.09998l-1.8797,3.78939l-0.14998,-1.2298l-1.99968,1.49976l-2.45961,-2.27964l2.76956,-2.35962l-0.76988,-0.77988l-1.56975,2.09966l-2.4996,1.56975l0.93985,1.13982l-3.52944,1.48976l0.93985,1.67973l3.80939,-0.04999l-0.40993,3.07951l3.61942,1.8597l-2.79955,1.8997l1.96968,0.23996l-0.06999,3.88938l-0.92985,0.6499l-2.72956,-0.67989l0.96984,-1.43977l-3.50944,-1.65973l1.65973,6.35898l-2.99952,1.16981l0.15997,1.67973l-2.76956,1.12982l-1.17981,-2.23964l-1.15981,0.55991l0.34994,3.18949l-2.23964,1.63974l-0.77988,-1.50976l-1.96968,1.63974l-2.40961,3.34946l-3.07951,6.259l-3.40945,9.90841"/></g></g></g></svg>