<svg xmlns="http://www.w3.org/2000/svg" viewBox="0 0 400 400" version="1.1" height="400" width="400"><defs><radialGradient gradientUnits="userSpaceOnUse" gradientTransform="translate(-40,20)" r="200" cy="180" cx="240" id="a"><stop offset="0" stop-color="#ff9939"></stop><stop offset=".4" stop-color="#ff9939"></stop><stop offset=".55" stop-opacity=".5607843" stop-color="#ff9939"></stop><stop offset=".7" stop-opacity=".2509804" stop-color="#ff9939"></stop><stop offset=".85" stop-opacity=".05882353" stop-color="#ff9939"></stop><stop offset="1" stop-opacity="0" stop-color="#ff9939"></stop></radialGradient></defs><g stroke-miterlimit="10"><path style="mix-blend-mode:normal" stroke-width="0" fill="none" d="m0 400v-400h400v400z"></path><path style="mix-blend-mode:normal" opacity=".08" fill-rule="evenodd" fill="url(#a)" d="m0 200c0-110.46 89.543-200 200-200s200 89.543 200 200-89.543 200-200 200-200-89.543-200-200z"></path><path stroke-width="13" stroke-linejoin="round" stroke-linecap="round" stroke="#d17d2e" stop-color="#000000" fill-rule="evenodd" fill="#ff9939" d="m284.5 200c0 58.335-26.165 84.5-84.5 84.5s-84.5-26.165-84.5-84.5 26.165-84.5 84.5-84.5 84.5 26.165 84.5 84.5z"></path></g><path style="font-feature-settings:normal;font-variant-alternates:normal;font-variant-caps:normal;font-variant-east-asian:normal;font-variant-ligatures:normal;font-variant-numeric:normal;font-variant-position:normal;font-variation-settings:normal;inline-size:0;isolation:auto;mix-blend-mode:normal;shape-margin:0;shape-padding:0;text-decoration-color:#000000;text-decoration-line:none;text-decoration-style:solid;text-indent:0;text-orientation:mixed;text-transform:none;white-space:normal" stop-color="#000000" shape-rendering="auto" image-rendering="auto" fill="#1c1c1c" color-rendering="auto" color="#000000" d="m201.57 146.39-0.29175 0.40543-48.32 67.46v14.474h51.954v23.945h17.57v-23.945h18.568v-15.257h-18.568v-67.083zm4.0903 18.502c-0.42605 7.1807-0.74834 14.032-0.74834 19.855v28.727h-30.93l22.687-32.417 2e-3 -2e-3c2.5558-3.5935 5.5951-9.1864 8.9895-16.162z"></path></svg>
