<svg version="1.1" xmlns="http://www.w3.org/2000/svg" xmlns:xlink="http://www.w3.org/1999/xlink" width="208" height="32" viewBox="0,0,208,32"><g transform="translate(-240,-164)"><g data-paper-data="{&quot;isPaintingLayer&quot;:true}" fill-rule="nonzero" stroke="none" stroke-linecap="butt" stroke-linejoin="miter" stroke-miterlimit="10" stroke-dasharray="" stroke-dashoffset="0" style="mix-blend-mode: normal"><path d="M240,196v-32h208v32z" fill="none" stroke-width="0"/><path d="M251.04,185.42h4.9219v-10.742h2.2168v14.658h-2.2168v-1.7969h-11.943v1.7969h-2.1973v-14.658h2.1973v10.742h4.8047v-14.727h2.2168z" fill="#ffffff" stroke-width="1"/><path d="M269.43,173.28v4.9609h2.3633v1.9238h-2.3633v9.3359h-2.0801v-9.3359h-2.3926c-0.03253,1.96613 -0.17576,3.57093 -0.42969,4.8144c-0.35156,1.76433 -1.06769,3.31707 -2.1484,4.6582l-1.7676,-1.3379c0.99607,-1.21093 1.65037,-2.6823 1.9629,-4.4141c0.16927,-0.96353 0.26693,-2.15167 0.29297,-3.5644l0.01,-0.15625h-2.3828v-1.9238h2.3828v-4.9609h-1.9629v-1.9043h10.381v1.9043zM267.3499,173.28h-2.3926v4.9609h2.3926zM270.4163,187.372c2.9232,-1.0026 5.4232,-2.98827 7.5,-5.957l1.6211,1.2988c-1.9466,2.95573 -4.56703,5.07813 -7.8613,6.3672zM271.012,176.22c2.6172,-1.31507 4.62567,-3.10217 6.0254,-5.3613l1.7188,1.0938c-1.63413,2.51953 -3.8021,4.47593 -6.5039,5.8692zM271.39286,181.3762c2.49347,-1.1784 4.554,-2.92643 6.1816,-5.2441l1.6211,1.2891c-1.72527,2.42187 -3.89323,4.2806 -6.5039,5.5762z" fill="#ffffff" stroke-width="1"/><path d="M296.76,170.98v9.4629h-11.621v-9.4629zM287.2385,172.523v1.2207h7.4023v-1.2207zM287.2385,175.1207v1.2207h7.4023v-1.2207zM287.2385,177.7183v1.2598h7.4023v-1.2598zM283.3029,181.7417h16.191v1.6992h-8.0762v6.0644h-2.2168v-6.0644h-8.0371v-10.957h2.1387zM280.8029,187.6401c1.54947,-0.71613 3.0306,-1.9173 4.4434,-3.6035l1.7969,1.0449c-1.3932,1.76433 -2.93943,3.15107 -4.6387,4.1602zM297.6389,188.8999c-0.99607,-1.22393 -2.49347,-2.50973 -4.4922,-3.8574l1.6797,-1.1816c1.569,0.90493 3.1087,2.09307 4.6191,3.5644z" fill="#ffffff" stroke-width="1"/><path d="M303.87,180.53c-0.63802,1.84247 -1.45182,3.5612 -2.4414,5.1562l-1.1426,-2.1387c1.4844,-2.03127 2.60743,-4.3327 3.3691,-6.9043h-3.0273v-1.9629h3.2422v-4.1797h2.0801v4.1797h2.373v1.9629h-2.373v2.0703c1.24347,1.08727 2.25257,2.09637 3.0273,3.0273l-1.1133,1.8457c-0.72267,-1.04167 -1.3607,-1.8815 -1.9141,-2.5195v8.4375h-2.0801zM314.808,174.6804v-4.1797h2.1191v4.1797h2.6367v1.9434h-2.6367v10.693c0,0.8594 -0.1888,1.4258 -0.56641,1.6992c-0.26693,0.1888 -0.77149,0.2832 -1.5137,0.2832c-1.16533,0 -2.207,-0.04557 -3.125,-0.13671l-0.47852,-2.1387c0.944,0.15625 1.9108,0.23438 2.9004,0.23438c0.33203,0 0.5306,-0.05859 0.59571,-0.17578c0.0456,-0.08464 0.0684,-0.25066 0.0684,-0.49805v-9.9609h-5.7617v-1.9434zM311.7221,184.2995c-0.65104,-1.94013 -1.44857,-3.73373 -2.3926,-5.3808l1.8359,-0.9961c1.0742,1.84893 1.90753,3.61327 2.5,5.293z" fill="#ffffff" stroke-width="1"/><path d="M331.04,185.42h4.9219v-10.742h2.2168v14.658h-2.2168v-1.7969h-11.943v1.7969h-2.1973v-14.658h2.1973v10.742h4.8047v-14.727h2.2168z" fill="#ffffff" stroke-width="1"/></g></g></svg>