<?xml version="1.0" encoding="UTF-8"?>
<svg width="480" height="360" version="1.1" viewBox="0 0 480 360" xmlns="http://www.w3.org/2000/svg">
 <g dominant-baseline="central" fill="#fff" aria-label="薩摩半島西方沖">
  <path d="m249.45 180.92v2.0996q0 0.61523-0.0195 0.97656 1.0742-1.2402 1.4551-2.6758l1.7285 0.38086q-0.12696 0.42969-0.27344 0.80078h1.1523v-1.084h1.8555v1.084h3.457v1.377h-3.457v1.1035h2.998v1.3379h-2.998v1.2988h4.1406v1.4844h-10.264v-1.4844h4.2676v-1.2988h-2.8027v-1.3281l-1.2695-0.92773q-0.0586 1.6113-0.44922 2.8516-0.45899 1.4453-1.543 2.666l-1.5332-1.2793q1.2402-1.3477 1.582-3.1152 0.19531-0.97657 0.19531-2.2461v-3.418h1.7773l-0.76171-0.83984q1.6504-0.25391 3.0371-0.5957-0.81055-0.21485-2.5-0.625l0.80078-0.625h-2.1973v-1.4356h4.8438v-1.0644h-0.98633v-1.0156h-3.8965v1.0938h-2.0996v-1.0938h-5.2148v-1.582h5.2148v-1.2402h2.0996v1.2402h3.8965v-1.2402h2.1484v1.2402h5.6738v1.582h-5.6738v0.89844h0.89844v1.1816h4.4336v1.4356h-2.5781l0.91797 0.45898q-0.70313 0.32227-1.5039 0.63477l-0.32227 0.12695 0.67383 0.17578 0.30274 0.0879 0.625 0.17578 1.0059 0.28321-0.89844 0.74218h1.9629v1.3965zm4.3848-2.2461q-1.3965 0.43946-3.3887 0.84961h6.2207l-1.0254-0.3125q-0.85937-0.26367-1.6406-0.48828zm-0.11719-1.1523q0.0684-0.0293 0.13672-0.0488 0.67383-0.20508 1.8164-0.63476h-4.7168q1.7188 0.39062 2.7637 0.68359zm-2.0605 6.3574q-0.3711 0.60547-0.77149 1.1035h2.6074v-1.1035zm-5.8984-3.8672q1.4062 1.875 1.4062 3.9648 0 1.2598-0.45899 1.7871-0.45898 0.51758-1.6016 0.51758-0.8789 0-1.5234-0.13672l-0.2832-1.6992q0.18555 0.0293 0.50781 0.0781 0.48828 0.0781 0.88868 0.0781 0.37109 0 0.48828-0.14649 0.11718-0.14648 0.11718-0.51757 0-1.9629-1.4648-3.7891 1.0938-2.207 1.3477-3.6426h-1.9434v12.998h-1.9043v-14.541h5.2441l0.68359 0.76172q-0.69335 2.4609-1.5039 4.2871z" dominant-baseline="central"/>
  <path d="m275.57 173.54v1.1035h3.2812v1.3965h-2.5195q1.1816 1.377 3.0176 2.3633l-0.9375 1.3965q-1.7285-1.1133-2.8809-2.666v2.168h-1.8164v-1.9726q-0.80078 1.2695-2.1387 2.1289l-1.0254-1.1426q1.4356-0.79102 2.4902-2.2754h-2.0312v-1.3965h2.666v-1.1035h-5.0391v1.1035h1.9531v1.3965h-2.002v0.36132q1.123 0.55664 2.0898 1.3379l-0.92774 1.2207q-0.48828-0.51758-1.1621-1.0645v1.8457h-1.7969v-2.2559q-0.84961 1.2793-2.2461 2.2559l-0.95704-1.2402v0.55664q0 3.9453-0.34179 6.3574-0.3125 2.1875-1.1426 4.0625l-1.8555-1.3184q0.71289-1.6309 1.0059-3.7793 0.29297-2.168 0.29297-5.3223v-7.1191h7.8613v-1.4355h2.168v1.4355h7.5976v1.6016zm-8.8379 0h-3.1445v4.9316q1.6016-0.9668 2.5977-2.4316h-2.1973v-1.3965h2.7442zm5.8984 7.6758v1.1133h5.9766v1.3965h-5.9766v0.95703h6.875v1.4844h-6.875v1.7188q0 0.88867-0.44922 1.2598-0.42968 0.36133-1.5918 0.36133-1.7969 0-2.8223-0.16601l-0.30273-1.6211q1.4648 0.20508 2.7148 0.20508 0.33203 0 0.38086-0.12695 0.0488-0.10742 0.0488-0.35156v-1.2793h-6.9043v-1.4844h6.9043v-0.95703h-6.0644v-1.3965h6.0644v-0.95703q-2.7344 0.16601-4.6387 0.19531l-0.60547-1.3965q6.0254-0.0977 10.723-0.80079l1.1426 1.2988q-2.5684 0.38086-4.5996 0.54688z" dominant-baseline="central"/>
  <path d="m288.84 177.31v-6.8164h2.1973v6.8164h7.4414v1.9434h-7.4414v2.7734h8.4668v1.9824h-8.4668v5.4883h-2.1973v-5.4883h-8.3398v-1.9824h8.3398v-2.7734h-7.3047v-1.9434zm-4.2773-0.63476q-1.2109-2.6856-2.5391-4.4629l2.041-0.9961q1.5039 2.0703 2.6367 4.4727zm8.5742-0.76172q1.543-2.3438 2.4609-4.9219l2.2852 0.89844q-1.1035 2.4219-2.7832 4.8633z" dominant-baseline="central"/>
  <path d="m307.74 171.98q0.36133-0.86914 0.58594-1.6602l2.3828 0.32226q-0.3418 0.81055-0.625 1.3379h6.5039v6.3672h-11.797v0.98633h14.697v1.582h-14.697v0.99609h14.014q-0.12695 4.4727-0.5664 6.0352-0.28321 0.99609-1.0645 1.3184-0.55664 0.23437-1.6992 0.23437-1.1719 0-2.1875-0.14648l-0.39063-1.6406h-9.7852v1.084h-2.0996v-4.6973h2.0996v2.0117h3.3594v-2.6367h-3.8379v-11.494zm4.1504 14.131v-2.0117h2.0215v3.3984q0.81054 0.0781 1.3476 0.0781 0.66406 0 0.83008-0.38085 0.32227-0.7129 0.50781-3.7207h-8.0273v2.6367zm-7.0996-12.627v0.96679h9.6387v-0.96679zm0 2.3633v1.0644h9.6387v-1.0644z" dominant-baseline="central"/>
  <path d="m326.44 176.07v-2.7344h-5.8203v-1.8848h18.779v1.8848h-6.4551v2.7344h5.4785v13.164h-2.1191v-1.377h-12.607v1.377h-2.0996v-13.164zm2.0215 0h2.4609v-2.7344h-2.4609zm-2.0312 1.7773h-2.7344v8.1543h12.607v-2.9297h-3.7012q-1.6797 0-1.6797-1.6797v-3.5449h-2.4805q-0.0391 2.4024-0.72266 3.8477-0.64453 1.377-2.5391 2.7246l-1.3477-1.5039q1.8164-1.1133 2.2949-2.7539 0.2539-0.87891 0.30273-2.3145zm6.5137 0v2.9883q0 0.38086 0.3418 0.38086h3.0176v-3.3691z" dominant-baseline="central"/>
  <path d="m349.48 175.76q-0.0684 1.6309-0.19531 2.8711h7.8711q-0.14648 6.7774-0.76172 8.7988-0.3125 1.0156-1.1621 1.4062-0.66406 0.30273-1.9434 0.30273-1.3477 0-3.0566-0.20507l-0.38085-2.1973q2.2949 0.32227 3.2324 0.32227 0.79101 0 1.0059-0.44922 0.51757-1.0938 0.72265-6.0352h-5.8105q-0.32227 1.7578-0.90821 3.0469-1.6309 3.5644-5.4492 5.6543l-1.543-1.7188q3.8281-1.9922 5.0586-5.2246 0.82031-2.1582 1.0644-6.5723h-6.4648v-2.002h7.9785v-3.2617h2.2559v3.2617h8.2422v2.002z" dominant-baseline="central"/>
  <path d="m371.58 174.14v-3.6426h2.0996v3.6426h5.293v8.8379h-5.293v6.5234h-2.0996v-6.5234h-5.1856v-8.8379zm-3.1641 1.9434v4.9707h3.1641v-4.9707zm8.4766 4.9707v-4.9707h-3.2129v4.9707zm-12.5-5.7812q-1.1914-1.6602-3.1543-3.1738l1.4551-1.4844q1.9531 1.377 3.3008 3.0859zm-0.63476 5.0195q-1.6992-1.9727-3.3008-3.2324l1.5039-1.5039q1.709 1.2012 3.3789 3.1055zm-3.0371 7.5684q1.875-2.666 3.457-6.6406l1.7383 1.3379q-1.3379 3.6621-3.2617 6.8945z" dominant-baseline="central"/>
 </g>
</svg>
