<svg version="1.1" xmlns="http://www.w3.org/2000/svg" xmlns:xlink="http://www.w3.org/1999/xlink" width="100" height="100" viewBox="0,0,100,100"><g transform="translate(-190,-130)"><g data-paper-data="{&quot;isPaintingLayer&quot;:true}" fill-rule="nonzero" stroke-linecap="butt" stroke-linejoin="miter" stroke-miterlimit="10" stroke-dasharray="" stroke-dashoffset="0" style="mix-blend-mode: normal"><path d="M190,230v-100h100v100z" fill="none" stroke="#959196" stroke-width="0"/><path d="M233.152,182.307v-16.28h3.44v16.28zM243.632,187.067v-4.64h3.64v4.64zM233.152,169.267v-3.24h13.4v3.24zM243.632,182.427c0,-1.2 -0.36,-2.18667 -1.08,-2.96c-0.72,-0.77333 -1.62667,-1.16 -2.72,-1.16l0.48,-3c1.33333,0 2.52,0.30667 3.56,0.92c1.06667,0.61333 1.89333,1.46667 2.48,2.56c0.61333,1.06667 0.92,2.28 0.92,3.64zM234.272,182.307c0,-1.33333 0.25333,-2.52 0.76,-3.56c0.53333,-1.06667 1.26667,-1.90667 2.2,-2.52c0.93333,-0.61333 1.97333,-0.92 3.12,-0.92l-0.48,3c-0.93333,0 -1.72,0.37333 -2.36,1.12c-0.61333,0.74667 -0.92,1.70667 -0.92,2.88zM247.272,187.067c0,1.49333 -0.33333,2.82667 -1,4c-0.64,1.17333 -1.52,2.10667 -2.64,2.8c-1.09333,0.66667 -2.34667,1 -3.76,1v-3.16c1.2,0 2.12,-0.41333 2.76,-1.24c0.66667,-0.82667 1,-1.96 1,-3.4zM236.112,188.227c0.13333,1.17333 0.56,2.05333 1.28,2.64c0.72,0.56 1.56,0.84 2.52,0.84v3.16c-1.22667,0 -2.36,-0.25333 -3.4,-0.76c-1.04,-0.50667 -1.89333,-1.21333 -2.56,-2.12c-0.64,-0.90667 -1.04,-1.93333 -1.2,-3.08z" fill="#ff0505" stroke="none" stroke-width="1"/></g></g></svg>