<svg version="1.1" xmlns="http://www.w3.org/2000/svg" xmlns:xlink="http://www.w3.org/1999/xlink" width="65.3774" height="85.65655" viewBox="0,0,65.3774,85.65655"><g transform="translate(-41.35294,-102.45957)"><g data-paper-data="{&quot;isPaintingLayer&quot;:true}" fill="#ff0000" fill-rule="evenodd" stroke="none" stroke-width="0" stroke-linecap="round" stroke-linejoin="round" stroke-miterlimit="10" stroke-dasharray="" stroke-dashoffset="0" style="mix-blend-mode: normal"><path d="M106.34031,124.21867l-1.72993,1.79993l-1.08996,0.80997l-0.81997,2.29991l-1.32995,0.90996l-0.37998,1.19995l0.60998,1.74993l-1.11996,0.62997l-0.24999,1.67993l-0.74997,0.76997l1.29995,2.01992l-1.00996,1.19995l1.02996,1.61994l-0.13999,0.68997l-1.40994,1.59994l0.14999,0.94996l-0.58998,0.82997l-1.48994,0.77997l-0.93996,2.80989l-0.79997,0.98996l0.43998,2.09992l-0.61998,0.86997l-0.09,1.45994l0.33999,1.39994l-0.26999,1.22995l-0.78997,0.98996l0.30999,0.75997l2.13991,1.13995l-0.91996,2.02992l-0.24999,1.85993l-1.38994,0.38998l-0.80997,-0.31999l-0.19999,1.88992l0.46998,0.79997l-1.66993,2.3899l-0.93996,0.29999l-0.83997,0.89996l2.20991,0.70997l-0.58998,2.4099l-1.49994,-0.80997l-2.08992,-0.28999l-1.38994,-0.64997l-1.20995,0.05l-0.65997,0.71997l-1.90992,-0.76997l-1.28995,-0.88996l-0.81997,1.60994l-1.91992,0.39998l-0.14999,-1.23995l-2.03992,1.17995l-0.26999,-0.86997l-2.3999,0.75997l0.15999,0.82997l-1.63993,0.47998l-1.16995,-0.77997l0.12,-0.61998l-1.15995,-0.45998l-0.81997,0.26999l-1.67993,-0.99996l-0.37998,0.78997l-1.04996,0.85997l-1.41994,-0.73997l-1.31995,0.70997l-0.76997,1.20995l-0.34999,-1.90992l-0.03,-1.53994l-1.23995,-0.17999l-0.05,0.83997l0.74997,1.77993l-1.45994,-0.55998l-1.65993,0.32999l-0.69997,1.33995l0.17999,1.18995l-1.15995,1.71993l-2.33991,0.26999l-0.75997,0.34999l-0.96996,-0.65997l-0.70997,-1.60994l-0.46998,0.47998l-1.87992,0.65997l-0.52998,-0.41998l-1.79993,2.05992l-0.09,-1.62993l-0.41998,-1.06996l0.48998,-2.13991l1.15995,-0.48998l-0.34999,-1.02996l-1.37994,-0.82997l0.33999,-0.86997l-0.27999,-1.74993l-0.89996,-1.01996l-1.94992,-1.28995l-0.45998,-0.99996l-1.69993,0.49998l-0.52998,-2.5999l-0.69997,-1.21995l1.30995,-2.24991l0.21999,-1.65993l0.84997,-0.73997l1.12995,-0.30999l0.58998,-1.18995l-2.01992,-2.05992l0.12999,-0.64997l-1.31995,-0.97996l-0.91996,-0.16999l0.05,-0.84997l0.57998,-0.75997l1.69993,-1.34995l0.01,-1.51994l-0.59998,-0.98996l0.66997,-0.38998l0.45998,-1.15995l-0.33999,-0.53998l-1.31995,-0.47998l-0.13999,-1.42994l1.07996,-0.80997l0.63997,-1.25995l1.61994,-1.15995l0.98996,-0.28999l0.85997,0.27999l-0.17999,-2.15991l0.66997,-0.80997l-0.20999,-1.94992l1.73993,-0.64997l1.30995,-0.17999l0.53998,-1.11996l-0.26999,-1.42994l0.83997,-1.12995l-0.42998,-0.53998l1.09996,-2.70989l1.56994,-0.67997l1.43994,0.04l0.94996,0.58998l0.61998,-1.37994l-0.69997,-0.86997l0.63997,-1.45994l-0.14999,-1.13995l-1.13995,-0.08l-1.59994,-0.76997l-0.23999,-1.51994l0.12,-1.87992l1.44994,-0.71997l0.57998,-1.63993l1.24995,0.22999l1.99992,1.21995l1.26995,-1.06996l1.57994,0.06l-0.19999,-0.69997l1.46994,-0.72997l0.70997,-1.36995l3.15987,-2.07992l-0.58998,-2.01992l0.54998,-1.70993l-0.97996,-1.04996l-0.30999,-1.25995l0.48998,-1.46994l2.19991,1.93992l1.63993,0.84997l0.48998,0.77997l1.11996,0.24999l1.11996,1.15995l0.65997,0.19999l0.20999,1.77993l1.93992,1.84993l1.28995,-0.34999l0.62997,-1.03996l1.42994,-0.08l1.70993,2.05992l0.24999,1.01996l1.67993,0.41998l1.15995,1.02996l0.64997,-0.65997l0.83997,0.65997l-0.65997,0.82997l0.69997,0.71997l0.04,1.77993l1.24995,0.28999l0.98996,1.19995l0.71997,1.61994l-0.97996,1.16995l1.06996,1.64993l-0.47998,0.73997l1.17995,2.30991l1.98992,0.53998l0.86997,-0.97996l0.97996,2.30991l1.60994,-2.01992l1.53994,0.26999l0.83997,-0.23999l1.15995,0.91996l1.01996,-0.66997l0.90996,-1.13995l-0.02,-1.56994l2.22991,-0.73997l1.25995,-0.82997l0.37998,-1.27995l0.85997,-1.05996l0.98996,-0.05l0.59998,0.69997l-0.98996,2.11992l0.59998,1.29995"/><path d="M65.14196,187.11616l-1.16995,-0.58998l-1.31995,1.15995l-0.72997,-1.26995l0.67997,-1.30995l1.32995,0.32999l0.57998,-0.29999l0.11,-1.24995l0.52998,0.43998l0.82997,2.73989l-0.83997,0.05"/><path d="M70.44175,183.6163l-0.34999,1.93992l-2.82989,-1.52994l-0.30999,-0.71997l2.5099,-1.19995l0.24999,0.94996l0.72997,0.55998"/><path d="M73.04165,186.21619l-0.85997,-1.37994l-0.03,-0.67997l1.12995,-0.88996l1.69993,1.03996l-0.49998,1.24995l-1.43994,0.65997"/><path d="M67.44187,188.11612l-1.23995,-0.82997l0.03,-0.72997l1.13995,-0.62997l0.16999,-0.60998l0.33999,0.61998l-0.43998,2.17991"/><path d="M75.24156,172.01676l1.23995,-0.32999l0.08,0.70997l-1.04996,0.55998l-0.26999,-0.93996"/></g></g></svg>