<?xml version="1.0" encoding="UTF-8"?>
<svg width="480" height="360" version="1.1" viewBox="0 0 480 360" xmlns="http://www.w3.org/2000/svg">
 <g dominant-baseline="central" fill="#fff" aria-label="北東太平洋">
  <path d="m245.84 184.3q-2.6953 1.416-4.6973 2.168l-0.82031-2.1484q3.1348-1.0547 5.5176-2.1875v-4.375h-4.834v-2.0606h4.834v-5.1953h2.1777v19.004h-2.1777zm6.9434-7.6074q2.2754-1.1914 4.4141-3.0273l1.6211 1.6992q-2.8906 2.0508-6.0352 3.4961v7.3242q0 0.47852 0.3125 0.58594 0.33203 0.10742 1.5332 0.10742 1.582 0 1.9824-0.18555 0.2832-0.12695 0.39062-0.79101 0.14649-0.92774 0.21485-2.998l2.1875 0.67383q-0.0977 2.5293-0.3125 3.6328-0.24414 1.2305-1.2793 1.5918-0.98633 0.33203-3.2324 0.33203-2.6367 0-3.3203-0.43945-0.6543-0.42969-0.6543-1.6504v-16.543h2.1777z" dominant-baseline="central"/>
  <path d="m273.2 183.15q2.4219 2.1582 6.5234 3.4863l-1.2598 1.8359q-2.3633-0.83984-4.1211-2.0312-1.8164-1.2402-3.3496-3.0469v6.1035h-2.1191v-5.9961q-1.3574 1.9043-3.5059 3.418-1.6504 1.1621-3.5352 1.875l-1.3379-1.7188q3.0957-1.0254 5.166-2.7637 0.58594-0.48829 1.1914-1.1621h-4.6973v-7.998h6.7188v-1.3184h-8.0957v-1.7578h8.0957v-1.582h2.1191v1.582h8.2227v1.7578h-8.2227v1.3184h6.8457v7.998zm-4.3262-6.3574h-4.5996v1.582h4.5996zm2.1191 0v1.582h4.7266v-1.582zm-2.1191 3.1055h-4.5996v1.6113h4.5996zm2.1191 0v1.6113h4.7266v-1.6113z" dominant-baseline="central"/>
  <path d="m291.5 176.91q0.73242 2.3828 2.334 4.7559 2.2559 3.3496 5.8008 5.5078l-1.3574 2.0312q-3.252-2.0215-5.7422-5.6152-1.4648-2.1191-2.334-4.668-0.61524 2.2461-1.6699 4.0625 2.3633 1.6113 3.8672 3.0859l-1.3574 1.6016q-1.4941-1.4941-3.5644-3.0469-1.4551 1.9336-2.9785 3.1445-1.0449 0.83984-2.4414 1.6406l-1.582-1.8359q3.6621-1.582 5.8594-4.9707 1.6602-2.5684 2.2754-5.6934h-7.6953v-2.0801h7.9004v-4.3359h2.3047v4.3359h7.9785v2.0801z" dominant-baseline="central"/>
  <path d="m311.04 173.3v7.6367h8.4668v2.002h-8.4668v6.5625h-2.1973v-6.5625h-8.3398v-2.002h8.3398v-7.6367h-7.4414v-1.9434h17.217v1.9434zm-6.5137 6.8945q-0.96679-2.8711-2.1387-5.1172l2.1191-0.85937q1.0938 1.8945 2.2363 5.1367zm8.6524-0.67383q1.2598-2.3633 2.1289-5.4199l2.2168 0.71289q-0.91797 2.8223-2.3047 5.4785z" dominant-baseline="central"/>
  <path d="m331.56 175.5h-5.2246v-1.8164h2.666q-0.63477-1.4551-1.3477-2.5391l1.9434-0.72266q0.82031 1.377 1.5039 3.2617h3.1055q0.625-1.4453 1.1914-3.2617l2.1973 0.60547q-0.60547 1.543-1.2109 2.6562h2.5586v1.8164h-5.2246v2.5195h4.6387v1.7578h-4.6387v2.6953h5.7812v1.8848h-5.7812v5.1465h-2.1582v-5.1465h-5.6445v-1.8848h5.6445v-2.6953h-4.668v-1.7578h4.668zm-7.4023-0.26368q-1.1621-1.6113-3.0762-3.1348l1.4746-1.5039q1.9629 1.4258 3.2031 3.0371zm-0.63477 5.0195q-1.5234-1.8555-3.1641-3.1738l1.4844-1.5039q1.748 1.2695 3.2324 3.0566zm-2.8223 7.5195q1.7383-2.4024 3.3398-6.4551l1.6602 1.2988q-1.3672 4.1016-3.2812 6.8652z" dominant-baseline="central"/>
 </g>
</svg>
