<svg version="1.1" xmlns="http://www.w3.org/2000/svg" xmlns:xlink="http://www.w3.org/1999/xlink" width="224" height="207" viewBox="0,0,224,207"><defs><linearGradient x1="128" y1="212" x2="128" y2="228" gradientUnits="userSpaceOnUse" id="color-1"><stop offset="0" stop-color="#000000" stop-opacity="0.1"/><stop offset="1" stop-color="#000000" stop-opacity="0"/></linearGradient></defs><g transform="translate(-128,-180)"><g data-paper-data="{&quot;isPaintingLayer&quot;:true}" stroke="none" stroke-miterlimit="10" stroke-dasharray="" stroke-dashoffset="0" style="mix-blend-mode: normal"><g fill-rule="evenodd"><path d="M138,210h204l10,2v175h-224v-175z" fill="#1d2a41" stroke-width="1" stroke-linecap="butt" stroke-linejoin="miter"/><path d="M128,228v-16h224v16z" fill="url(#color-1)" stroke-width="12" stroke-linecap="round" stroke-linejoin="round" opacity="0.80769"/><path d="M138,180h204c5.54,0 10,4.46 10,10v22h-224v-22c0,-5.54 4.46,-10 10,-10z" fill="#31476d" stroke-width="1" stroke-linecap="butt" stroke-linejoin="miter"/></g><g fill-rule="evenodd" stroke-width="1" stroke-linecap="butt" stroke-linejoin="miter"><path d="M144,258v-2h192v2z" fill="#31476d"/><g fill="#7d97b4"><path d="M143,257c0,-0.55228 0.44772,-1 1,-1c0.55228,0 1,0.44772 1,1c0,0.55228 -0.44772,1 -1,1c-0.55228,0 -1,-0.44772 -1,-1z"/><path d="M335,257c0,-0.55228 0.44772,-1 1,-1c0.55228,0 1,0.44772 1,1c0,0.55228 -0.44772,1 -1,1c-0.55228,0 -1,-0.44772 -1,-1z"/><path d="M271,257c0,-0.55228 0.44772,-1 1,-1c0.55228,0 1,0.44772 1,1c0,0.55228 -0.44772,1 -1,1c-0.55228,0 -1,-0.44772 -1,-1z"/><path d="M207,257c0,-0.55228 0.44772,-1 1,-1c0.55228,0 1,0.44772 1,1c0,0.55228 -0.44772,1 -1,1c-0.55228,0 -1,-0.44772 -1,-1z"/></g></g><g fill="#ffffff" fill-rule="nonzero" stroke-width="1" stroke-linecap="butt" stroke-linejoin="miter"><path d="M145.46191,367.979v4.0059h-3.58203v0.7041h-1.36035v-4.71zM141.87988,369.1548v1.668h2.20801v-1.668zM146.70605,359.8784h4.38184v3.3291c0,0.1504 0.0228,0.24383 0.0684,0.2803c0.05927,0.04533 0.16181,0.068 0.30762,0.068c0.20052,0 0.3304,-0.02733 0.38965,-0.082c0.0456,-0.03667 0.0775,-0.15743 0.0957,-0.3623c0.0456,-0.52407 0.07067,-0.92967 0.0752,-1.2168l1.27832,0.4033c-0.00467,0.52413 -0.03884,1.02317 -0.10253,1.4971c-0.06836,0.556 -0.36686,0.8864 -0.89551,0.9912c-0.22331,0.04533 -0.55827,0.068 -1.00489,0.068c-0.63346,0 -1.05957,-0.07977 -1.27832,-0.2393c-0.18685,-0.13673 -0.28027,-0.38737 -0.28027,-0.7519v-2.7412h-1.70898v0.1435c0,0.92513 -0.10026,1.69077 -0.30078,2.2969c-0.22787,0.66533 -0.62663,1.22817 -1.19629,1.6885l-0.99121,-0.9912c0.57421,-0.40107 0.92968,-0.97987 1.0664,-1.7364c0.0638,-0.36 0.0957,-0.79977 0.0957,-1.3193zM150.4248,369.6675c0.87045,0.62887 1.88445,1.16663 3.042,1.6133l-0.81348,1.3603c-1.38997,-0.65167 -2.48828,-1.3079 -3.29492,-1.9687c-1.02083,0.85673 -2.04622,1.52663 -3.07617,2.0097l-0.79297,-1.2168c0.99805,-0.3418 1.97103,-0.90233 2.91894,-1.6816c-0.85221,-0.91147 -1.49935,-1.88217 -1.9414,-2.9121h-0.6836v-1.2578h6.13184l0.73828,0.6699c-0.61979,1.33527 -1.36263,2.4632 -2.22852,3.3838zM149.41309,368.8335c0.63802,-0.7246 1.07552,-1.37857 1.3125,-1.9619h-2.85743c0.3737,0.679 0.86361,1.3079 1.46973,1.8867zM140.81348,359.8921h4.34082v1.1484h-4.34082zM140.02734,361.895h5.74219v1.2305h-5.74219zM140.81348,363.9937h4.34082v1.1347h-4.34082zM140.81348,365.9966h4.34082v1.1074h-4.34082zM161.38965,370.6997c0.77018,0.1276 1.611,0.1914 2.52246,0.1914h3.54785c-0.22787,0.45573 -0.39649,0.93653 -0.50586,1.4424h-3.05566c-1.85026,0 -3.31087,-0.22103 -4.38184,-0.6631c-1.03906,-0.4284 -1.89583,-1.13477 -2.57031,-2.1191c-0.53776,1.2806 -1.19857,2.34243 -1.98242,3.1855l-1.05957,-1.2715c1.28515,-1.38993 2.08724,-3.19007 2.40625,-5.4004l1.55175,0.2393c-0.14583,0.72007 -0.28711,1.31937 -0.42382,1.7979c0.55143,0.9798 1.36491,1.7044 2.44043,2.1738v-5.291h-3.79395v-0.9092h-1.4834v-3.1651h5.23633v-1.5244h1.52441v1.5244h5.35254v3.1651h-1.48339v0.9092h-3.8418v2.0918h4.68262v1.2714h-4.68262zM156.09863,362.1958v1.4902h9.10547v-1.4902zM169.18945,361.3071h3.68457c0.4056,-0.64713 0.71322,-1.16893 0.92286,-1.5654l1.52441,0.2187c-0.13672,0.24613 -0.37826,0.6472 -0.72461,1.2032l-0.0889,0.1435h4.81934v1.3467h-5.72852c-0.597,0.82033 -1.16666,1.53127 -1.70898,2.1328c0.86133,-0.51493 1.64746,-0.7724 2.3584,-0.7724c1.10286,0 1.82519,0.5537 2.16699,1.6611c1.16667,-0.3874 2.35612,-0.7702 3.56836,-1.1484l0.58789,1.3261l-0.23926,0.068l-0.67676,0.1777c-1.27604,0.3464 -2.29687,0.64263 -3.0625,0.8887c0.05467,0.59247 0.0934,1.3581 0.11621,2.2969l-1.49707,0.082c-0.00467,-0.54233 -0.01377,-1.13023 -0.0273,-1.7637v-0.1367c-2.09635,0.71553 -3.14453,1.4356 -3.14453,2.1602c0,0.37367 0.26888,0.62887 0.80664,0.7656c0.51953,0.13213 1.44922,0.1982 2.78906,0.1982c1.23503,0 2.53158,-0.07063 3.88965,-0.2119l0.16406,1.4561c-1.31705,0.10027 -2.68196,0.1504 -4.09472,0.1504c-1.74089,0 -2.97819,-0.13217 -3.71192,-0.3965c-0.9069,-0.32813 -1.36035,-0.9183 -1.36035,-1.7705c0,-0.72007 0.32129,-1.35583 0.96387,-1.9073c0.66537,-0.5696 1.83659,-1.15747 3.51367,-1.7636c-0.09115,-0.35093 -0.21191,-0.59703 -0.3623,-0.7383c-0.16862,-0.15953 -0.39193,-0.2393 -0.66993,-0.2393c-0.45117,0 -1.01855,0.1709 -1.70214,0.5127c-0.8431,0.41927 -1.74772,1.05047 -2.71387,1.8936l-0.90918,-1.0391c1.41731,-1.31707 2.52701,-2.61133 3.3291,-3.8828h-2.78223zM182.46484,361.5259h9.04395l1.46973,1.2851c-0.17774,1.85027 -0.48764,3.2995 -0.92969,4.3477c-0.64713,1.54033 -1.72038,2.73207 -3.21973,3.5752c-0.99349,0.56507 -2.35839,1.0527 -4.09472,1.4629l-0.78614,-1.3877c1.52214,-0.278 2.72754,-0.63803 3.61621,-1.0801c1.44922,-0.71547 2.47461,-1.80467 3.07618,-3.2676c0.37369,-0.91147 0.58788,-2.0804 0.64257,-3.5068h-8.81836zM192.28125,361.8813c-0.28255,-0.86587 -0.64258,-1.6611 -1.08008,-2.3857l1.09375,-0.2529c0.38281,0.5332 0.74512,1.29427 1.08692,2.2832zM194.23633,361.6011c-0.25521,-0.7884 -0.62663,-1.54947 -1.11426,-2.2832l1.03223,-0.253c0.4694,0.61073 0.85677,1.33307 1.16211,2.167zM197.24414,360.3774h9.0166v1.4014h-9.0166zM196.2666,363.7271h11.38184c-0.20052,1.98693 -0.61523,3.54097 -1.24414,4.6621c-0.47396,0.84307 -1.06641,1.51527 -1.77735,2.0166c-1.20312,0.85673 -2.95312,1.4446 -5.25,1.7636l-0.69043,-1.3877c2.028,-0.19593 3.57976,-0.66077 4.65528,-1.3945c1.39453,-0.94333 2.19433,-2.36293 2.39941,-4.2588h-9.47461zM214.34766,359.6802h1.53808v2.2285h4.84668c-0.0456,2.15107 -0.29169,3.87373 -0.73828,5.168c-0.49675,1.46287 -1.29199,2.57483 -2.38574,3.3359c-1.03907,0.7246 -2.36068,1.29653 -3.96485,1.7158l-0.76562,-1.292c1.38541,-0.29167 2.59537,-0.80207 3.62988,-1.5312c0.82487,-0.5788 1.43555,-1.3581 1.83203,-2.3379c0.42383,-1.0436 0.6517,-2.2718 0.6836,-3.6846h-7.69043v3.3154h-1.59278v-4.6894h4.60743zM230.4873,359.9604h1.53809v2.8985h2.85742v1.4014h-2.85742c-0.0182,1.52667 -0.1253,2.7366 -0.32129,3.6298c-0.28255,1.26693 -0.79981,2.25587 -1.55176,2.9668c-0.65169,0.6244 -1.49707,1.128 -2.53613,1.5108l-0.96387,-1.2031c1.61784,-0.56513 2.69564,-1.44013 3.2334,-2.625c0.37826,-0.834 0.57878,-2.26043 0.60156,-4.2793h-4.01953v3.7802h-1.53808v-3.7802h-2.56348v-1.4014h2.56348v-2.8027h1.53808v2.8027h4.01953zM233.0918,361.9907c-0.20964,-0.85673 -0.52182,-1.693 -0.93653,-2.5088l1.01856,-0.1914c0.44205,0.75653 0.7679,1.55863 0.97754,2.4063zM234.78711,361.7788c-0.30078,-1.0208 -0.61523,-1.8411 -0.94336,-2.4609l0.98438,-0.2119c0.40559,0.6608 0.73144,1.4492 0.97753,2.3652zM237.39844,372.1011c-0.17318,-1.54947 -0.25977,-3.08983 -0.25977,-4.6211c0,-2.625 0.19369,-5.11783 0.58106,-7.4785l1.5039,0.1572c-0.36914,2.04167 -0.55371,4.34537 -0.55371,6.9111c0,1.72267 0.0957,3.33367 0.28711,4.833zM241.5,361.2729h6.56934v1.4561h-6.56934zM248.53418,371.2603c-0.91146,0.14127 -1.99382,0.2119 -3.24707,0.2119c-3.14909,0 -4.72363,-0.92513 -4.72363,-2.7754c0,-0.73373 0.19596,-1.37403 0.58789,-1.9209l1.29199,0.5742c-0.24609,0.34633 -0.36914,0.73597 -0.36914,1.1689c0,0.5332 0.2666,0.90007 0.7998,1.1006c0.59245,0.22787 1.40137,0.3418 2.42676,0.3418c1.10742,0 2.13281,-0.0729 3.07617,-0.2187zM259.74512,367.2681c0.92513,1.2988 2.17154,2.39027 3.73925,3.2744l-0.85449,1.2646c-1.44922,-0.96613 -2.61361,-2.13963 -3.49316,-3.5205v4.4024h-1.42871v-4.3477c-0.7793,1.44467 -1.87533,2.67513 -3.28809,3.6914l-0.96387,-1.1484c1.49024,-0.86593 2.69792,-2.07133 3.62305,-3.6162h-3.35644v-1.2442h3.98535v-1.5039h-3.02149v-4.6416h7.54004v4.6416h-3.08984v1.5039h4.13574v1.2442zM256.12891,361.0815v2.2354h4.66894v-2.2354zM253.0459,363.0503v9.6387h-1.4834v-6.7881c-0.27799,0.45573 -0.61523,0.95473 -1.01172,1.497l-0.69726,-1.5244c0.76562,-1.02993 1.41959,-2.2285 1.96191,-3.5957c0.32813,-0.83393 0.65397,-1.8297 0.97754,-2.9873l1.44238,0.3897c-0.3737,1.2988 -0.77018,2.42217 -1.18945,3.3701zM273.75879,367.0288h3.64355v1.3193h-3.64355v2.9668c0,0.46033 -0.1276,0.79077 -0.38281,0.9913c-0.22787,0.17773 -0.59473,0.2666 -1.10059,0.2666c-0.57422,0 -1.27376,-0.032 -2.09863,-0.096l-0.28028,-1.4288c0.97982,0.12307 1.6543,0.1846 2.02344,0.1846c0.15039,0 0.24382,-0.03647 0.28028,-0.1094c0.0228,-0.04533 0.0342,-0.11823 0.0342,-0.2187v-2.5567h-3.97851v-1.3193h3.97851v-0.7725c0.05013,-0.032 0.12533,-0.07757 0.22559,-0.1367c0.48763,-0.28707 0.97299,-0.64253 1.45606,-1.0664h-4.48438v-1.2578h6.09082l0.79981,0.752c-0.77019,0.79753 -1.62468,1.50847 -2.56348,2.1328zM268.17383,361.0132c0.17317,-0.4512 0.34863,-1.02543 0.52637,-1.7227l1.53125,0.1983c-0.15495,0.5286 -0.31902,1.03673 -0.49219,1.5244h7.50586v1.3193h-8.06641c-0.49219,1.0482 -1.08008,2.03257 -1.76367,2.9531v7.4034h-1.49707v-5.6397c-0.38281,0.39193 -0.79753,0.78387 -1.24414,1.1758l-0.85449,-1.3193c0.83398,-0.69727 1.50846,-1.34213 2.02343,-1.9346c0.64714,-0.7474 1.23503,-1.62697 1.76368,-2.6387h-3.41114v-1.3193z"/><path d="M145.46192,292.7015v4.00586h-3.58203v0.7041h-1.36035v-4.70996zM141.87989,293.87728v1.66797h2.20801v-1.66797zM146.70606,284.60091h4.38183v3.3291c0,0.15039 0.02279,0.24382 0.06836,0.28028c0.05925,0.0456 0.16179,0.0684 0.30762,0.0684c0.20052,0 0.3304,-0.02733 0.38965,-0.082c0.04557,-0.03647 0.07747,-0.15724 0.0957,-0.36231c0.04557,-0.52409 0.07064,-0.92969 0.0752,-1.2168l1.27832,0.40332c-0.00453,0.52409 -0.03871,1.02312 -0.10254,1.49707c-0.06836,0.55599 -0.36686,0.8864 -0.89551,0.99122c-0.22331,0.0456 -0.55827,0.0684 -1.00488,0.0684c-0.63346,0 -1.05957,-0.07975 -1.27832,-0.23925c-0.18685,-0.13672 -0.28027,-0.38737 -0.28027,-0.75196v-2.74121h-1.70899v0.14356c0,0.92513 -0.10026,1.69075 -0.30078,2.29687c-0.22786,0.66537 -0.62663,1.22819 -1.19629,1.68848l-0.99121,-0.99121c0.57422,-0.40104 0.92969,-0.97982 1.06641,-1.73633c0.0638,-0.36003 0.0957,-0.79981 0.0957,-1.31934zM150.42481,294.38997c0.87044,0.62891 1.88444,1.16667 3.04199,1.61329l-0.81348,1.36035c-1.38997,-0.65169 -2.48828,-1.30794 -3.29492,-1.96875c-1.02083,0.85677 -2.04622,1.52669 -3.07617,2.00976l-0.79297,-1.21679c0.99805,-0.3418 1.97103,-0.90235 2.91895,-1.68164c-0.85221,-0.91146 -1.49935,-1.88216 -1.94141,-2.91211h-0.68359v-1.25782h6.13184l0.73828,0.66993c-0.61979,1.33529 -1.36263,2.46321 -2.22851,3.38378zM149.41309,293.55599c0.63802,-0.72461 1.07552,-1.37858 1.3125,-1.96191h-2.85742c0.3737,0.67903 0.86361,1.30794 1.46973,1.88671zM140.81348,284.61458h4.34082v1.14844h-4.34082zM140.02735,286.61751h5.74219v1.23047h-5.74219zM140.81348,288.71615h4.34082v1.13476h-4.34082zM140.81348,290.71908h4.34082v1.10742h-4.34082zM161.38965,295.4222c0.77018,0.12761 1.611,0.19141 2.52246,0.19141h3.54785c-0.22786,0.45573 -0.39648,0.93652 -0.50586,1.44238h-3.05566c-1.85026,0 -3.31087,-0.22103 -4.38184,-0.66309c-1.03906,-0.42838 -1.89583,-1.13476 -2.57031,-2.11914c-0.53776,1.2806 -1.19857,2.34245 -1.98242,3.18555l-1.05957,-1.27148c1.28516,-1.38997 2.08724,-3.1901 2.40625,-5.40039l1.55176,0.23925c-0.14583,0.72005 -0.28711,1.31934 -0.42383,1.79785c0.55143,0.97982 1.36491,1.70443 2.44043,2.17383v-5.29101h-3.79395v-0.90918h-1.4834v-3.16504h5.23633v-1.52442h1.52441v1.52442h5.35254v3.16504h-1.4834v0.90918h-3.8418v2.09179h4.68262v1.27149h-4.68262zM156.09864,286.91829v1.49024h9.10547v-1.49024zM175.3418,295.33333c2.67513,-0.67447 4.0127,-2.208 4.0127,-4.60058c0,-1.04362 -0.26888,-1.94141 -0.80664,-2.69336c-0.60156,-0.84766 -1.51758,-1.39226 -2.74805,-1.63379c-0.26888,2.11458 -0.63574,3.84635 -1.10059,5.19531c-0.31901,0.94336 -0.7155,1.83431 -1.18945,2.67285c-0.68359,1.19401 -1.46061,1.79102 -2.33105,1.79102c-0.64714,0 -1.22363,-0.29167 -1.72949,-0.875c-0.32357,-0.36914 -0.58561,-0.82259 -0.78613,-1.36035c-0.26432,-0.69727 -0.39648,-1.44694 -0.39648,-2.24903c0,-1.29883 0.35775,-2.49511 1.07324,-3.58886c0.72461,-1.11654 1.66569,-1.92774 2.82324,-2.4336c0.8431,-0.36914 1.76823,-0.55371 2.77539,-0.55371c1.57227,0 2.90755,0.42155 4.00586,1.26465c1.34896,1.03451 2.02344,2.49968 2.02344,4.39551c0,3.17643 -1.60645,5.19076 -4.81934,6.04297zM174.31641,286.35091c-0.80664,0.09115 -1.48112,0.30762 -2.02344,0.64942c-0.34635,0.22331 -0.69043,0.51953 -1.03223,0.88867c-0.94792,1.04817 -1.42187,2.26269 -1.42187,3.64355c0,1.00716 0.20052,1.79557 0.60156,2.36524c0.24609,0.35091 0.48991,0.52636 0.73145,0.52636c0.32812,0 0.69727,-0.3623 1.10742,-1.08691c1.0026,-1.76367 1.68164,-4.09245 2.03711,-6.98633zM187.86524,284.89486v-0.78614h1.4834v0.78614h4.40918v1.55176h1.53809v0.97753h-1.53809v1.59961h-4.40918v0.57422h5.09277v0.9502h-5.09277v0.58789h5.94726v1.00488h-13.2959v-1.00488h5.86523v-0.58789h-4.91504v-0.9502h4.91504v-0.57422h-4.35449v-0.92285h4.35449v-0.67676h-5.86523v-0.97753h5.86523v-0.62891h-4.35449v-0.92285zM192.28809,285.81771h-2.93945v0.62891h2.93945zM192.28809,287.42415h-2.93945v0.67676h2.93945zM193.64844,292.70833v4.70313h-1.51074v-0.56055h-6.97266v0.56055h-1.51074v-4.70313zM185.16504,293.64486v0.6289h6.97266v-0.6289zM185.16504,295.16927v0.67676h6.97266v-0.67676zM197.03906,285.99544h4.14258c-0.15039,-0.42383 -0.31217,-0.92741 -0.48535,-1.51074l1.51074,-0.082c0.17773,0.60612 0.35091,1.13704 0.51953,1.59277h4.75781v1.31934h-4.28613c0.25977,0.64713 0.55371,1.30566 0.88184,1.97559h4.32715v1.31933h-3.63672c0.47852,0.83399 0.95931,1.58138 1.44238,2.24219l-1.53125,0.44433c-0.52865,-0.75195 -1.05957,-1.64746 -1.59277,-2.68652h-6.28906v-1.31933h5.66016c-0.26432,-0.56055 -0.53548,-1.21908 -0.81348,-1.97559h-4.60742zM206.15137,296.70736c-0.875,0.0638 -1.68848,0.0957 -2.44043,0.0957c-1.97331,0 -3.40202,-0.18457 -4.28613,-0.55371c-1.22591,-0.51497 -1.83887,-1.32845 -1.83887,-2.44043c0,-0.62435 0.1709,-1.12793 0.5127,-1.51074l1.22363,0.66992c-0.14128,0.28711 -0.21191,0.57194 -0.21191,0.85449c0,0.57422 0.39193,0.98893 1.17578,1.24414c0.69727,0.22787 1.76367,0.3418 3.19922,0.3418c0.72005,0 1.56771,-0.03874 2.54297,-0.11621zM217.36231,288.74349h3.33594v-3.4043h1.52441v4.76465h-4.86035v5.05176h3.7666v-3.15137h1.55176v5.40723h-1.55176v-0.86817h-8.97559v0.86817h-1.53809v-5.40723h1.53809v3.15137h3.68457v-5.05176h-4.77148v-4.76465h1.52441v3.4043h3.24707v-4.63477h1.52442zM225.34668,284.68294h1.61328v8.14844c0,1.7181 0.90234,2.57715 2.70703,2.57715c1.18945,0 2.16471,-0.54915 2.92578,-1.64746c0.49219,-0.70638 0.93424,-1.80013 1.32617,-3.28125l1.38769,0.84082c-0.46484,1.64518 -1.02311,2.87565 -1.6748,3.6914c-1.02539,1.27149 -2.3584,1.90723 -3.99902,1.90723c-1.71354,0 -2.92123,-0.52865 -3.62305,-1.58594c-0.44206,-0.66081 -0.66309,-1.51302 -0.66309,-2.55664zM239.34668,289.21517c0.35547,0 0.67676,0.11849 0.96387,0.35547c0.37825,0.30989 0.56738,0.70638 0.56738,1.18945c0,0.29623 -0.08431,0.57194 -0.25293,0.82715c-0.30533,0.47396 -0.73827,0.71094 -1.29882,0.71094c-0.24609,0 -0.4808,-0.05925 -0.70411,-0.17774c-0.17773,-0.09115 -0.32812,-0.21191 -0.45117,-0.3623c-0.25065,-0.29623 -0.37597,-0.63347 -0.37597,-1.01172c0,-0.52865 0.22103,-0.94792 0.66308,-1.25781c0.26433,-0.18229 0.56055,-0.27344 0.88867,-0.27344zM248.21289,292.7015v3.58887c0.91146,-0.32357 1.53125,-0.84083 1.85938,-1.55176c0.25521,-0.54688 0.39193,-1.59278 0.41016,-3.1377h1.37402c-0.01367,1.80013 -0.20052,3.05339 -0.56055,3.75977c-0.48763,0.94791 -1.31933,1.66341 -2.49511,2.14648l-0.5879,-0.80664v0.007h-3.26757v0.7041h-1.34668v-4.70996zM244.94532,293.87728v1.66797h1.92089v-1.66797zM251.66504,285.36654v-1.24414h1.3877v1.24414h3.3291v1.20312h-3.3291v0.97071h2.93945v1.17578h-7.0957v-1.17578h2.76855v-0.97071h-3.24707v-1.20312zM256.32715,289.65267v2.87109h-1.37402v-1.70898h-4.94922v1.81836h-1.33301v-2.98047zM243.82422,284.61458h4.12891v1.14844h-4.12891zM243.18164,286.61751h5.33204v1.23047h-5.33204zM243.82422,288.71615h4.12891v1.13476h-4.12891zM243.82422,290.71908h4.12891v1.10742h-4.12891zM252.6836,291.57357h1.31933v4.05371c0,0.12761 0.0319,0.20508 0.0957,0.23242c0.10481,0.0456 0.2233,0.0684 0.35547,0.0684c0.30078,0 0.49674,-0.04329 0.58789,-0.12988c0.12305,-0.10937 0.20963,-0.72005 0.25976,-1.83203l1.23731,0.43066c-0.041,1.22135 -0.17088,1.99609 -0.38965,2.32422c-0.13672,0.20508 -0.35547,0.34408 -0.65625,0.41699c-0.25977,0.05927 -0.60612,0.0889 -1.03906,0.0889c-0.75195,0 -1.23731,-0.07747 -1.45606,-0.23242c-0.20963,-0.15039 -0.31445,-0.42839 -0.31445,-0.83399zM258.92481,285.08626h5.3457l0.95703,0.81348c-0.45117,1.58138 -0.82486,2.77083 -1.12109,3.56836c1.13477,0.19141 2.18066,0.5013 3.13769,0.92969c0.05467,-0.58789 0.082,-1.16439 0.082,-1.7295c0,-0.30078 -0.0091,-0.65397 -0.0273,-1.05957l1.49707,0.15723c-0.00467,1.30339 -0.05707,2.39942 -0.15722,3.28809c0.5651,0.29167 1.15755,0.63574 1.77734,1.03222l-0.58789,1.45606c-0.4375,-0.31901 -0.91146,-0.63575 -1.42188,-0.9502c-0.35091,1.35352 -0.91145,2.40626 -1.68164,3.15821c-0.54687,0.53776 -1.29427,1.01172 -2.24218,1.42187l-0.8545,-1.14844c1.11654,-0.47851 1.94141,-1.08919 2.47461,-1.83203c0.41927,-0.59245 0.72917,-1.36719 0.92969,-2.32422c-1.11653,-0.56055 -2.24674,-0.9388 -3.39062,-1.13476c-0.74284,2.03255 -1.48796,3.57292 -2.23536,4.62109c-0.56966,0.79297 -1.20996,1.18945 -1.92089,1.18945c-0.68815,0 -1.22136,-0.32812 -1.59961,-0.98437c-0.28711,-0.5013 -0.43067,-1.09831 -0.43067,-1.79102c0,-0.85677 0.22103,-1.62239 0.66309,-2.29687c0.52409,-0.80209 1.33073,-1.3877 2.41992,-1.75684c0.62891,-0.20963 1.33301,-0.32356 2.1123,-0.34179c0.41927,-1.09375 0.74056,-2.07357 0.96387,-2.93946h-4.68945zM262.15821,290.67806c-0.58789,0.03193 -1.09148,0.14359 -1.51075,0.33496c-0.65625,0.29167 -1.13932,0.73828 -1.44921,1.33985c-0.21875,0.42383 -0.32813,0.875 -0.32813,1.35351c0,0.38281 0.0752,0.7155 0.22559,0.99805c0.11393,0.22331 0.25065,0.33496 0.41015,0.33496c0.63802,0 1.52214,-1.45378 2.65235,-4.36133zM280.77246,284.88119v0.88183c0,1.57683 0.36914,3.11263 1.10743,4.60742c0.61067,1.23047 1.43554,2.29916 2.47461,3.20606l-0.96387,1.36035c-0.8431,-0.74739 -1.60645,-1.72721 -2.29004,-2.93945c-0.51953,-0.91602 -0.89551,-1.76823 -1.12793,-2.55664c-0.20963,0.93424 -0.48079,1.70898 -0.81348,2.32421c-0.68815,1.2806 -1.54492,2.32422 -2.57031,3.13086l-1.02539,-1.26464c2.13281,-1.49479 3.34961,-3.96713 3.65039,-7.417h-2.82324v-1.333zM274.83204,294.13704c0.39648,0.46029 0.79524,0.7793 1.19628,0.95704c0.73829,0.33724 1.7295,0.50586 2.97364,0.50586h5.6123c-0.19596,0.41471 -0.34863,0.90006 -0.45801,1.45605h-5.14062c-1.57683,0 -2.80274,-0.24837 -3.67774,-0.74512c-0.37369,-0.20963 -0.76562,-0.56282 -1.17578,-1.05957c-0.76107,0.9069 -1.47428,1.62467 -2.13965,2.15332l-0.86816,-1.46972c0.77018,-0.46941 1.49707,-1.01173 2.18066,-1.62696v-3.13769h-2.07128v-1.34668h3.56836zM274.08008,287.9847c-0.61979,-0.85677 -1.39909,-1.73861 -2.33789,-2.64551l1.13477,-0.92285c0.82487,0.66537 1.63606,1.49707 2.43359,2.49512zM286.92481,285.08626h5.3457l0.95703,0.81348c-0.45117,1.58138 -0.82486,2.77083 -1.12109,3.56836c1.13477,0.19141 2.18066,0.5013 3.13769,0.92969c0.05467,-0.58789 0.082,-1.16439 0.082,-1.7295c0,-0.30078 -0.0091,-0.65397 -0.0273,-1.05957l1.49707,0.15723c-0.00467,1.30339 -0.05707,2.39942 -0.15722,3.28809c0.5651,0.29167 1.15755,0.63574 1.77734,1.03222l-0.58789,1.45606c-0.4375,-0.31901 -0.91146,-0.63575 -1.42188,-0.9502c-0.35091,1.35352 -0.91145,2.40626 -1.68164,3.15821c-0.54687,0.53776 -1.29427,1.01172 -2.24218,1.42187l-0.8545,-1.14844c1.11654,-0.47851 1.94141,-1.08919 2.47461,-1.83203c0.41927,-0.59245 0.72917,-1.36719 0.92969,-2.32422c-1.11653,-0.56055 -2.24674,-0.9388 -3.39062,-1.13476c-0.74284,2.03255 -1.48796,3.57292 -2.23536,4.62109c-0.56966,0.79297 -1.20996,1.18945 -1.92089,1.18945c-0.68815,0 -1.22136,-0.32812 -1.59961,-0.98437c-0.28711,-0.5013 -0.43067,-1.09831 -0.43067,-1.79102c0,-0.85677 0.22103,-1.62239 0.66309,-2.29687c0.52409,-0.80209 1.33073,-1.3877 2.41992,-1.75684c0.62891,-0.20963 1.33301,-0.32356 2.1123,-0.34179c0.41927,-1.09375 0.74056,-2.07357 0.96387,-2.93946h-4.68945zM290.15821,290.67806c-0.58789,0.03193 -1.09148,0.14359 -1.51075,0.33496c-0.65625,0.29167 -1.13932,0.73828 -1.44921,1.33985c-0.21875,0.42383 -0.32813,0.875 -0.32813,1.35351c0,0.38281 0.0752,0.7155 0.22559,0.99805c0.11393,0.22331 0.25065,0.33496 0.41015,0.33496c0.63802,0 1.52214,-1.45378 2.65235,-4.36133z"/><path d="M140.37598,225.7148h10.83496c-0.0638,2.40627 -0.34407,4.29073 -0.84082,5.6534c-0.58333,1.58593 -1.5905,2.83463 -3.02149,3.7461c-1.07096,0.68353 -2.54069,1.24633 -4.40918,1.6884l-0.78613,-1.3877c1.89127,-0.35547 3.34277,-0.8727 4.35449,-1.5517c1.11198,-0.74287 1.90951,-1.77053 2.39258,-3.083c0.35547,-0.97073 0.55143,-2.18297 0.58789,-3.6367h-9.1123zM153.97266,224.751h1.59277v10.247c0.85221,-0.2734 1.611,-0.5901 2.27637,-0.9501c1.86849,-1.0072 3.42024,-2.2901 4.65527,-3.8487c0.36459,-0.46027 0.71322,-0.9889 1.0459,-1.5859l1.01172,1.4287c-0.94792,1.472 -2.14421,2.75717 -3.58887,3.8555c-1.75911,1.33527 -3.76432,2.3242 -6.01562,2.9668l-0.97754,-0.9571zM165.68945,229.748h12.03809v1.5381h-12.03809zM178.78027,234.4512c0.31445,-0.00667 0.7474,-0.02933 1.29883,-0.068c1.29883,-2.91667 2.49512,-6.12727 3.58887,-9.6318l1.56543,0.4101c-1.07552,3.36333 -2.22396,6.40077 -3.44531,9.1123c2.3151,-0.1686 4.36816,-0.37367 6.15918,-0.6152c-0.67448,-1.18947 -1.36035,-2.28777 -2.05762,-3.2949l1.34668,-0.8545c1.43555,1.97787 2.69564,4.07423 3.78027,6.2891l-1.53808,0.7998c-0.25065,-0.52867 -0.52637,-1.0801 -0.82715,-1.6543c-2.66146,0.4466 -5.84017,0.84307 -9.53614,1.1894zM192.75293,224.751h1.59277v10.247c0.85221,-0.2734 1.611,-0.5901 2.27637,-0.9501c1.86849,-1.0072 3.42024,-2.2901 4.65527,-3.8487c0.36459,-0.46027 0.71322,-0.9889 1.0459,-1.5859l1.01172,1.4287c-0.94791,1.472 -2.1442,2.75717 -3.58887,3.8555c-1.75911,1.33527 -3.76432,2.3242 -6.01562,2.9668l-0.97754,-0.9571zM204.46973,229.748h12.03808v1.5381h-12.03808zM219.20117,224.498h1.59278v3.9239c2.7207,0.83853 4.97428,1.6953 6.76074,2.5703l-0.76563,1.4766c-1.71354,-0.87047 -3.71191,-1.69763 -5.99511,-2.4815v6.9453h-1.59278zM232.01855,225.8311v-1.7227h1.41504v1.7227h2.84375v1.2168h-2.84375v1.4287h3.39063v1.2304h-3.39063v1.333h2.89844v3.7666c0,0.40107 -0.12077,0.68363 -0.3623,0.8477c-0.17773,0.12307 -0.45801,0.1846 -0.84082,0.1846c-0.39193,0 -0.76107,-0.02267 -1.10743,-0.068l-0.22558,-1.2988c0.38737,0.07293 0.71321,0.1094 0.97754,0.1094c0.15039,0 0.22558,-0.08433 0.22558,-0.253v-2.0986h-1.56543v5.1816h-1.41504v-5.1816h-1.45605v3.8486h-1.36035v-5.0381h2.8164v-1.333h-3.52734v-1.2304h3.52734v-1.4287h-1.62011c-0.18229,0.401 -0.39877,0.78837 -0.64942,1.1621l-1.17578,-0.7452c0.58789,-0.82027 0.98894,-1.78413 1.20313,-2.8916l1.36035,0.1914c-0.07292,0.29167 -0.16862,0.64717 -0.28711,1.0665zM237.13867,225.2021h1.40137v8.6954h-1.40137zM239.81836,224.4297h1.44238v11.4775c0,0.4466 -0.10937,0.77473 -0.32812,0.9844c-0.22331,0.2142 -0.62663,0.3213 -1.20996,0.3213c-0.60157,0 -1.21452,-0.032 -1.83887,-0.096l-0.29395,-1.4287c0.63347,0.09113 1.22592,0.1367 1.77735,0.1367c0.20963,0 0.33952,-0.032 0.38965,-0.096c0.041,-0.05 0.0615,-0.1571 0.0615,-0.3213zM253.5791,233.8496c0.60612,0.82947 1.41276,1.50623 2.41992,2.0303l-0.86816,1.3467c-1.11198,-0.64713 -1.99382,-1.4743 -2.64551,-2.4815c-0.69727,-1.07093 -1.19173,-2.33557 -1.4834,-3.7939h-1.39453v4.5049c0.91602,-0.25067 1.82064,-0.5492 2.71387,-0.8956l0.16406,1.2784c-1.50391,0.65167 -3.12174,1.1689 -4.85351,1.5517l-0.51954,-1.3467c0.56967,-0.11847 0.93881,-0.19593 1.10743,-0.2324v-11.1972h6.57617v6.289l0.97754,0.8887c-0.75651,0.84767 -1.48796,1.53353 -2.19434,2.0576zM252.97754,232.8037c0.67903,-0.67447 1.21907,-1.29197 1.62012,-1.8525h-2.24219c0.16862,0.73827 0.37598,1.35577 0.62207,1.8525zM253.39453,225.8037h-3.78711v1.4014h3.78711zM253.39453,228.3262h-3.78711v1.4629h3.78711zM246.36719,228.9893c0.85677,1.1074 1.28515,2.28317 1.28515,3.5273c0,0.65167 -0.10254,1.1279 -0.30761,1.4287c-0.23698,0.3418 -0.69727,0.5127 -1.38086,0.5127c-0.39649,0 -0.77474,-0.02967 -1.13477,-0.089l-0.28027,-1.4082l0.28027,0.034c0.44661,0.05933 0.75651,0.089 0.92969,0.089c0.22787,0 0.36231,-0.05697 0.40332,-0.1709c0.041,-0.1048 0.0615,-0.28483 0.0615,-0.5401c0,-1.1028 -0.42155,-2.17373 -1.26465,-3.2128c0.42383,-0.97987 0.77247,-2.08047 1.0459,-3.3018h-1.59277v11.5527h-1.41504v-12.8379h3.91016l0.71093,0.6016c-0.31901,1.38087 -0.736,2.65237 -1.25097,3.8145z"/><path d="M206.98633,188.2988h1.91016v1.26562h6.46875v1.51172h-14.73047v-1.51172h6.35156zM225.31836,188.2988v1.40625h6.125v1.51172h-3.46875v1.09765h3.25v1.46485h-3.25v2.32812h-6.48828v-2.32812h-2.36328v1.35351c0,2.36291 -0.12513,4.23156 -0.37695,5.61133c-0.08964,0.48456 -0.20666,0.94835 -0.34766,1.39453l0.10547,-0.01172c2.10551,-0.25185 3.72435,-0.64593 4.93555,-1.15234c-0.9828,-0.73547 -1.84677,-1.58192 -2.55859,-2.57031h-1.13672v-1.5586h9.28516l0.91601,0.76758l-0.04883,0.07422c-0.75204,1.15585 -1.84875,2.23375 -3.20898,3.25391c1.21021,0.46632 2.80561,0.82634 4.86328,1.05273l0.15625,0.01758l-1.03125,1.66601l-0.06445,-0.00781c-2.03575,-0.27524 -3.88337,-0.84014 -5.55078,-1.68359c-1.51144,0.77773 -3.40978,1.37136 -5.71484,1.77539l-0.07031,0.01367l-0.89258,-1.58398c-0.16131,0.50159 -0.3546,0.97951 -0.58203,1.43164l-0.05469,0.10937l-1.58008,-1.25l0.03125,-0.07031c0.39014,-0.84702 0.65977,-1.88733 0.80469,-3.11914c0.12948,-1.08248 0.19531,-2.47002 0.19531,-4.16016v-5.42773h6.17969v-1.40625zM272.91211,188.2988v1.74219h6.11719v3.8164h-1.69532v1.03906h-4.39062v2.19141h5.35156v1.65234h-5.35156v2.49415c0.85298,0.13649 1.77656,0.21289 2.7832,0.21289h4.2168l-0.07227,0.14453c-0.25666,0.51332 -0.44703,1.05483 -0.57031,1.625l-0.01758,0.07812h-3.57226c-2.12255,0 -3.80414,-0.25267 -5.04688,-0.76562c-1.16167,-0.47894 -2.11748,-1.27398 -2.88476,-2.34961c-0.60659,1.40575 -1.33265,2.60444 -2.20703,3.54492l-0.07618,0.08203l-1.33984,-1.60742l0.05859,-0.06445c1.45362,-1.57217 2.36232,-3.60701 2.72461,-6.11719l0.01563,-0.09961l1.97656,0.30469l-0.02148,0.10156c-0.16291,0.80437 -0.32095,1.46813 -0.47461,2.01172c0.5923,1.03912 1.45873,1.80364 2.58203,2.32812v-5.76758h-4.33594v-1.03906h-1.69531v-3.8164h5.98437v-1.74219zM238.79102,188.79685l-0.03125,0.11132c-0.19614,0.72079 -0.39611,1.39947 -0.60157,2.04688h2.81641v1.76953h-3.39649c-0.92858,2.64439 -2.01264,4.89836 -3.26171,6.73828l-0.05079,0.07617l-1.62695,-0.92773l0.06055,-0.08985c1.15572,-1.71328 2.12286,-3.65525 2.92773,-5.79687h-2.39843v-1.76953h3.00781c0.25409,-0.86605 0.46314,-1.64238 0.61914,-2.30664l0.02148,-0.08594zM261.16992,188.8613v3.90429c0,0.0809 0.00748,0.14415 0.01758,0.18555c0.0097,0.0397 0.02054,0.05369 0.02148,0.05469h0.00196c0.03683,0.0277 0.13381,0.05859 0.28906,0.05859c0.22008,0 0.35055,-0.04406 0.37695,-0.06836l0.00391,-0.00195l0.00195,-0.00195c-0.0072,0.0057 0.01535,-0.02203 0.03125,-0.08203c0.0157,-0.05962 0.03092,-0.14912 0.04102,-0.26172c0.0519,-0.59768 0.08094,-1.06097 0.08594,-1.38477l0.00195,-0.13281l1.66015,0.52344l-0.00195,0.07226c-0.00536,0.60206 -0.04399,1.17704 -0.11719,1.72266v0.00195c-0.04112,0.33191 -0.15349,0.60624 -0.33984,0.8125c-0.18673,0.20669 -0.44545,0.3412 -0.76367,0.4043c-0.26801,0.0547 -0.65416,0.08008 -1.16797,0.08008c-0.73235,0 -1.2324,-0.0836 -1.51953,-0.29297c-0.24773,-0.18127 -0.36133,-0.50571 -0.36133,-0.93946v-3.0332h-1.75391v0.06446c0,1.06451 -0.11372,1.94915 -0.34765,2.65624h-0.00196v0.00196c-0.26638,0.7779 -0.73414,1.43786 -1.39843,1.97461l-0.07031,0.05664l-1.2793,-1.28125l0.09765,-0.06836c0.63511,-0.44357 1.02529,-1.0764 1.17774,-1.91992c0.07152,-0.40332 0.10742,-0.90058 0.10742,-1.49024v-1.61523zM254.38867,188.87692v1.51172h-5.16015v-1.51172zM243.47656,190.13474c1.49602,0.96769 2.86124,2.09603 4.09571,3.38281l0.06445,0.0664l-1.1875,1.3418l-0.07422,0.08399l-0.07422,-0.08399c-1.15098,-1.28059 -2.47252,-2.44674 -3.9668,-3.5l-0.09375,-0.0664l1.16407,-1.26954zM255.0918,191.16599v1.60546h-6.76172v-1.60546zM219.12305,192.31442h2.36328v-1.09765h-2.36328zM223.34961,192.31442h2.76172v-1.09765h-2.76172zM213.09179,191.70505v3.76953h-10.18359v-3.76953zM266.89648,193.21286h10.20704v-1.50391h-10.20704zM204.81836,194.05661h6.34766v-0.93359h-6.34766zM254.38867,193.56442v1.4961h-5.16015v-1.4961zM223.34961,194.79099h2.76172v-1.01172h-2.76172zM243.58398,193.94724v4.33007c1.20717,0.53627 2.43871,1.23206 3.69922,2.10157l0.07813,0.05273l-1.00391,1.63477l-0.08789,-0.06446c-0.86437,-0.63319 -1.78211,-1.21789 -2.74414,-1.76367c-0.08442,0.85679 -0.34345,1.57273 -0.87109,2.05469h-0.00196c-0.62632,0.56692 -1.50019,0.8457 -2.60546,0.8457c-1.06727,0 -1.95613,-0.24327 -2.65821,-0.73633h-0.00195c-0.68965,-0.49029 -1.04102,-1.19127 -1.04102,-2.0664c0,-0.92201 0.44303,-1.67461 1.30274,-2.22461c0.67092,-0.4294 1.52538,-0.64063 2.55468,-0.64063c0.44384,0 0.91753,0.06186 1.40821,0.16016v-3.68359zM262.05469,195.41599l0.92578,0.83984l-0.03125,0.06836c-0.69293,1.49284 -1.53257,2.74227 -2.4961,3.78711c0.97107,0.69137 2.08622,1.29136 3.3711,1.78711l0.11133,0.04297l-1.03711,1.73437l-0.08203,-0.03906c-1.56634,-0.73438 -2.79433,-1.47317 -3.72071,-2.22266c-1.15175,0.95904 -2.30944,1.72303 -3.47461,2.26953l-0.08007,0.03711l-0.80079,-1.22851v0.40429h-4.09375v0.80469h-1.7539v-5.58203h5.84765v3.93164c1.06572,-0.37991 2.10797,-0.97874 3.12696,-1.80469c-0.91926,-1.00192 -1.63552,-2.06517 -2.12891,-3.19336h-0.83008v-1.63671zM254.38867,195.85349v1.46484h-5.16015v-1.46484zM201.0332,196.11911h13.92578v5.92774c0,0.5184 -0.14568,0.91792 -0.44922,1.16992c-0.2832,0.23696 -0.71858,0.34375 -1.29883,0.34375c-0.43237,0 -1.05587,-0.03377 -1.875,-0.10157l-0.07227,-0.00586l-0.32812,-1.36914h-4.88281v0.64063h-1.80078v-4.54297h7.31641v3.64648c0.32481,0.0348 0.6613,0.05665 1.01758,0.05665c0.12454,0 0.22129,-0.011 0.28711,-0.0293c0.06582,-0.0183 0.09557,-0.0433 0.10547,-0.05859l0.00195,-0.00196c0.02638,-0.0381 0.05273,-0.13304 0.05273,-0.2793v-3.93164h-10.07422v6.11719h-1.92578zM259.13867,199.03708h0.00195l0.00196,0.00195c0.63331,-0.73236 1.06728,-1.39216 1.33008,-1.98633h-2.87891c0.40954,0.70602 0.90661,1.37487 1.54492,1.98438zM225.03907,200.12888c0.89108,-0.58178 1.55833,-1.15624 2.07813,-1.72461h-4.10547c0.57603,0.63893 1.23637,1.22372 2.02734,1.72461zM238.69922,199.39841c-0.40091,0.23758 -0.58399,0.53114 -0.58399,0.91406c0,0.23548 0.06812,0.43077 0.20508,0.59961c0.13667,0.16848 0.347,0.31117 0.63672,0.42383h0.00195c0.28736,0.10871 0.63676,0.16601 1.04883,0.16601c0.64888,0 1.09046,-0.2613 1.37305,-0.80664c0.15287,-0.29102 0.23047,-0.63287 0.23047,-1.03125v-0.23828c-0.58496,-0.1946 -1.13977,-0.30273 -1.65821,-0.30273c-0.5298,0 -0.94649,0.09485 -1.2539,0.27539zM206.05273,200.63474h3.71484v-1.00391h-3.71484zM250.64648,201.36911h2.32422v-1.70703h-2.32422z"/></g></g></g></svg>