<?xml version="1.0" encoding="UTF-8"?>
<svg width="480" height="360" version="1.1" viewBox="0 0 480 360" xmlns="http://www.w3.org/2000/svg">
 <g dominant-baseline="central" fill="#fff" aria-label="内浦湾">
  <path d="m248.85 173.76v-3.2617h2.1777v3.2617h7.5v13.594q0 1.1523-0.625 1.6113-0.50781 0.38086-1.7676 0.38086-2.1582 0-3.5644-0.10742l-0.40039-2.0801q2.1875 0.13672 3.6523 0.13672 0.39063 0 0.45899-0.18555 0.0488-0.11718 0.0488-0.37109v-10.977h-5.3125l-0.01 0.14648q-0.0488 0.79102-0.19531 1.6211 2.9004 2.373 5.1758 5.3516l-1.6602 1.543q-1.6211-2.3535-4.0723-4.8926-1.2598 3.3106-5.0684 5.5273l-1.2891-1.7188q2.2754-1.3086 3.3594-2.793 1.4258-1.9531 1.5723-4.7852h-5.127v13.74h-2.1973v-15.742z" dominant-baseline="central"/>
  <path d="m273.14 174.87v1.5039h5.3613v11.504q0 0.87891-0.44922 1.2207-0.38086 0.28321-1.3477 0.28321-1.1133 0-2.002-0.12696l-0.32226-1.9043q0.99609 0.14648 1.6406 0.14648 0.36133 0 0.43945-0.18555 0.0586-0.13672 0.0586-0.38086v-2.2559h-3.418v4.3164h-1.9434v-4.3164h-3.0762v4.8242h-1.9824v-13.125h5.0195v-1.5039h-5.8594v-1.8164h5.8594v-2.5586h2.0215v2.5586h3.3496q-1.0449-1.0449-2.168-1.7969l1.5723-0.87891q1.2109 0.70312 2.5098 1.9336l-1.1914 0.74219h2.2852v1.8164zm-1.9824 3.1641h-3.0762v1.6406h3.0762zm1.9434 0v1.6406h3.418v-1.6406zm-1.9434 3.2227h-3.0762v1.8555h3.0762zm1.9434 0v1.8555h3.418v-1.8555zm-9.5215-6.1621q-1.1133-1.6406-2.8223-3.1445l1.5234-1.4355q1.6992 1.4551 2.8613 2.9785zm-0.49804 5.0195q-1.3574-1.8262-2.8027-3.2227l1.4356-1.4356q1.582 1.3184 2.9688 3.1152zm-2.5391 7.9199q1.5527-2.6172 2.8809-6.8359l1.8359 1.0742q-1.1523 4.0723-2.8418 7.2461z" dominant-baseline="central"/>
  <path d="m295.09 173.8v3.7793q0 0.64454-0.27344 0.94727-0.32226 0.35156-1.4258 0.35156-1.0547 0-1.7285-0.11718l-0.25391-1.6211q0.77148 0.15625 1.2988 0.15625 0.2832 0 0.36133-0.13672 0.0586-0.11718 0.0586-0.38086v-2.9785h-1.7383q-0.0781 2.0605-0.54688 3.1641-0.51757 1.2012-2.1387 2.1973l-1.3965-1.2402q1.4648-0.76172 1.8848-1.9629 0.25391-0.75195 0.3125-2.1582h-3.8574v-1.6602h5.5566v-1.6406h2.1484v1.6406h6.1328v1.6602zm3.0176 5.5371v3.9648h-9.6387q-0.0781 0.53711-0.18555 1.0742h10.664q-0.24414 2.6856-0.67383 3.6816-0.625 1.4453-2.9297 1.4453-1.9141 0-4.1113-0.16601l-0.36133-1.7774q2.0996 0.22461 3.7598 0.22461 0.89843 0 1.1816-0.20508 0.43945-0.32226 0.68359-1.6797h-8.5938q-0.10742 0.40039-0.37109 1.2012l-2.0996-0.41992q0.74218-2.2266 1.1133-4.8145h9.4238v-1.0449h-10v-1.4844zm-14.365-4.3164q-1.084-1.5039-2.7734-2.9785l1.4551-1.3867q1.5332 1.123 2.8809 2.8613zm-0.5957 5.0391q-1.5039-1.9043-2.9199-3.1055l1.4648-1.416q1.4648 1.123 3.0176 2.9004zm-2.5195 7.9004q1.7188-2.6758 3.2617-6.8652l1.6016 1.1816q-1.2793 3.877-3.0664 7.2461zm17.402-9.3652q-1.2793-2.0703-2.6855-3.5742l1.4844-0.95703q1.7188 1.5625 2.7832 3.418zm-13.662-1.1719q1.4258-1.1719 2.3438-3.1055l1.7774 0.66406q-0.95703 2.1777-2.6465 3.6328z" dominant-baseline="central"/>
 </g>
</svg>
