<?xml version="1.0" encoding="UTF-8"?>
<svg width="480" height="360" version="1.1" viewBox="0 0 480 360" xmlns="http://www.w3.org/2000/svg">
 <g dominant-baseline="central" fill="#fff" aria-label="本州南方沖">
  <path d="m251.78 176.02q3.2031 4.668 7.8711 7.4707l-1.3867 1.8848q-4.7754-3.4961-7.2656-7.5586v5.957h4.0039v1.9238h-3.9648v3.8086h-2.1973v-3.8086h-3.7402v-1.9238h3.7793v-5.8594q-2.4023 4.4434-7.041 7.9394l-1.416-1.7578q4.7168-3.125 7.6367-8.0762h-7.0801v-2.002h7.8418v-3.5156h2.2363v3.5156h7.9688v2.002z" dominant-baseline="central"/>
  <path d="m260.46 182.12q0.72266-1.4844 1.0547-3.3691 0.20508-1.1426 0.3418-2.9492l1.7676 0.29297q-0.24414 4.4824-1.4453 7.0801zm7.5 0.53711q-0.50781-3.6035-1.3184-6.1426l1.543-0.8789q0.97657 2.5 1.5137 5.9863zm1.9043-10.977h2.1582v16.455h-2.1582zm4.1309 10.742q-0.71289-3.8672-1.6309-6.0449l1.6309-0.8789q1.2012 2.8809 1.748 5.8008zm1.9238-11.426h2.1777v18.506h-2.1777zm-11.699 0.13672h2.1777v8.8379q0 3.7402-0.8789 6.0449-0.6543 1.7188-2.1582 3.3984l-1.8848-1.4258q2.7441-2.8613 2.7441-8.0371z" dominant-baseline="central"/>
  <path d="m288.92 182.24h-4.043v-1.6016h1.9531q-0.43945-0.9961-0.99609-1.8555l1.7578-0.64453q0.76172 1.2793 1.2305 2.5h2.2949q0.57617-1.1816 1.0156-2.5391l1.9629 0.61524q-0.49805 1.0742-1.0547 1.9238h2.0996v1.6016h-4.1797v1.4258h4.4531v1.6602h-4.4531v3.6914h-2.041v-3.6914h-4.2871v-1.6602h4.2871zm2.0996-6.0156h7.4024v11.416q0 1.0059-0.53711 1.416-0.44922 0.35157-1.5137 0.35157-1.377 0-2.6562-0.14649l-0.47852-1.9629q1.709 0.20508 2.5586 0.20508 0.35156 0 0.41015-0.17578 0.0391-0.10742 0.0391-0.30274v-9.1016h-12.48v11.582h-2.1777v-13.281h7.2754v-1.7676h-8.3594v-1.8164h8.3594v-2.1387h2.1582v2.1387h8.4766v1.8164h-8.4766z" dominant-baseline="central"/>
  <path d="m309.48 175.76q-0.0684 1.6309-0.19531 2.8711h7.8711q-0.14648 6.7774-0.76172 8.7988-0.3125 1.0156-1.1621 1.4062-0.66406 0.30273-1.9434 0.30273-1.3477 0-3.0566-0.20507l-0.38085-2.1973q2.2949 0.32227 3.2324 0.32227 0.79101 0 1.0059-0.44922 0.51757-1.0938 0.72265-6.0352h-5.8105q-0.32227 1.7578-0.90821 3.0469-1.6309 3.5644-5.4492 5.6543l-1.543-1.7188q3.8281-1.9922 5.0586-5.2246 0.82031-2.1582 1.0644-6.5723h-6.4648v-2.002h7.9785v-3.2617h2.2559v3.2617h8.2422v2.002z" dominant-baseline="central"/>
  <path d="m331.58 174.14v-3.6426h2.0996v3.6426h5.293v8.8379h-5.293v6.5234h-2.0996v-6.5234h-5.1856v-8.8379zm-3.1641 1.9434v4.9707h3.1641v-4.9707zm8.4766 4.9707v-4.9707h-3.2129v4.9707zm-12.5-5.7812q-1.1914-1.6602-3.1543-3.1738l1.4551-1.4844q1.9531 1.377 3.3008 3.0859zm-0.63476 5.0195q-1.6992-1.9727-3.3008-3.2324l1.5039-1.5039q1.709 1.2012 3.3789 3.1055zm-3.0371 7.5684q1.875-2.666 3.457-6.6406l1.7383 1.3379q-1.3379 3.6621-3.2617 6.8945z" dominant-baseline="central"/>
 </g>
</svg>
