<svg version="1.1" xmlns="http://www.w3.org/2000/svg" xmlns:xlink="http://www.w3.org/1999/xlink" width="134.28501" height="192.97066" viewBox="0,0,134.28501,192.97066"><g transform="translate(-72.6048,180.71275)"><g data-paper-data="{&quot;isPaintingLayer&quot;:true}" fill="none" fill-rule="evenodd" stroke="#d645ff" stroke-width="72" stroke-linecap="round" stroke-linejoin="round" stroke-miterlimit="4" stroke-dasharray="" stroke-dashoffset="0" style="mix-blend-mode: normal"><g><path d="M162.27119,-42.68905l2.00468,1.55975l4.87622,0.99984l-0.83287,2.61958l-1.61074,1.65973l3.58543,2.4996l-2.07767,0.18997l0.22396,2.04967l1.2368,-0.73988l1.21281,1.2598l-0.40693,2.4696l-5.39314,0.56991l-1.51476,3.80939l-2.46261,-0.71988l-1.60774,-1.95969l0.92685,-1.2498l-1.70473,-2.20965l-1.52776,1.18981l-0.70289,-3.1295l3.53743,1.46976l-0.17197,-1.31979l-2.00268,-0.44993l0.19097,-4.48928l0.91285,1.65973l0.99884,-1.42977l-0.98384,-3.21948l3.29347,-3.08951"/><path d="M130.16333,-95.89053l0.09099,2.18965l-2.43061,1.8697l-1.08083,-1.96968l0.92785,-1.47976l2.4926,-0.6099"/><path d="M112.39917,-99.2l2.23364,0.88986l-0.54791,4.11934l2.86754,-1.90969l3.17049,0.02l-1.19681,-2.19965l2.42261,0.6399l1.34079,1.44977l-1.01584,2.97952l4.14434,-2.10966l1.34179,2.65957l-2.42661,0.21996l-1.34578,3.89938l1.00584,2.12966l-1.98868,1.16981l-1.01184,6.70893l-1.48876,0.58991l0.13598,2.70957l-5.23816,4.66925l-1.80871,-2.13966l-3.41245,-0.10998l-0.97584,1.40977l0.009,-4.81923l1.40977,-5.48912l-0.20397,-3.94937l1.17681,-1.76972l-0.6399,-1.40977l0.91185,-3.35946l0.22396,-4.77924l0.90685,-2.21964"/><path d="M121.6017,-99.87989l3.25548,1.00984l-0.49892,2.79955l-1.29579,-2.30963l-2.03867,-0.37994l0.57791,-1.11982"/><path d="M131.53711,-102.63945l1.07483,2.63958l-1.8557,-0.24996l0.78088,-2.38962"/><path d="M136.79527,-144.71272l1.50176,0.86986l1.96868,3.87938l-0.89386,1.76972l1.55275,0.92985l-1.97168,4.48928l0.88786,1.8497l-2.11366,4.93921l0.17097,1.8597l-2.33763,3.59942l-5.35914,5.6391l-1.48876,0.99984l1.69873,3.05951l-0.6259,1.91969l-2.10966,2.55959l2.5176,-0.67989l1.42677,-1.90969l-1.20781,3.48944l0.81487,2.59958l-1.09582,2.11966l0.76788,1.80971l-2.45961,-1.11982l1.21381,1.66973l-2.41161,3.49944l-1.73372,-1.01984l0.65889,-3.89938l1.2718,-0.13998l-1.28979,-2.88954l0.58191,-1.8997l-2.37362,3.29947l-2.26164,1.07983l0.67389,-5.44913l-2.67557,2.30963l0.98984,0.97984l-0.42293,2.35962l-1.20081,-1.8697l-4.24932,0.16997l-0.50592,-1.2598l4.85122,-1.2598l-0.87086,-1.36978l0.6259,-2.31963l-0.44093,-2.63958l0.82687,-2.14966l1.57175,-0.89986l-2.03068,-0.65989l3.39946,-8.29867l2.02368,-1.2398l-0.27196,-1.93969l-2.08467,-1.96968l-1.57275,1.40977l1.65074,-5.73908l1.2608,-2.84954l0.18497,-2.4696l3.84039,-0.26996l0.73088,1.30979l2.99152,-1.67973l2.31163,-5.21916l1.33179,0.52992l1.76072,-1.8897"/></g></g></g></svg>