<svg version="1.1" xmlns="http://www.w3.org/2000/svg" xmlns:xlink="http://www.w3.org/1999/xlink" width="101.36529" height="210.30785" viewBox="0,0,101.36529,210.30785"><g transform="translate(-634.06809,122.08073)"><g data-paper-data="{&quot;isPaintingLayer&quot;:true}" fill="none" fill-rule="evenodd" stroke="#d645ff" stroke-width="72" stroke-linecap="round" stroke-linejoin="round" stroke-miterlimit="4" stroke-dasharray="" stroke-dashoffset="0" style="mix-blend-mode: normal"><path d="M699.43338,52.22712l-2.66957,-1.94969l-4.54927,-6.8689l-3.91937,-6.58895l0.18997,-0.43993l-3.45945,-5.93905l-0.78987,-0.53991l-2.27964,1.70973l-0.82987,-0.89986l3.20949,-2.30963l-1.60974,-3.28947l-1.98968,-2.02968l-5.41913,-12.478l-3.1395,-9.55847l-1.50976,-7.40881l-0.5999,-6.67893l0.40993,-2.91953l3.03951,-2.82955l0.37994,-2.80955l2.44961,-2.22964l0.6199,-2.16965l-1.12982,-1.19981l-0.70989,-3.90937l1.82971,-1.60974l-1.63974,-1.45977l0.35994,-5.03919l1.8797,-3.20949l0.54991,-3.62942l1.40977,-4.28931l2.73956,-5.23916l1.17981,-3.19949l2.45961,-2.61958l0.02,-4.01936l1.2498,-2.68957l0.04999,-2.91953l1.66973,-5.17917l2.19965,-4.72924l3.7194,-1.60974l-1.2198,-3.52944"/></g></g></svg>