<svg version="1.1" xmlns="http://www.w3.org/2000/svg" xmlns:xlink="http://www.w3.org/1999/xlink" width="208" height="32" viewBox="0,0,208,32"><g transform="translate(-240,-164)"><g data-paper-data="{&quot;isPaintingLayer&quot;:true}" fill-rule="nonzero" stroke="none" stroke-linecap="butt" stroke-linejoin="miter" stroke-miterlimit="10" stroke-dasharray="" stroke-dashoffset="0" style="mix-blend-mode: normal"><path d="M240,196v-32h208v32z" fill="none" stroke-width="0"/><path d="M248.21,188.63v-10.02c-1.9792,1.32813 -4.2383,2.44793 -6.7773,3.3594l-1.1816,-1.9824c2.88413,-0.97007 5.41343,-2.22007 7.5879,-3.75c2.1354,-1.50393 4.03643,-3.22593 5.7031,-5.166l1.8848,1.1816c-1.47787,1.6992 -3.125,3.25843 -4.9414,4.6777v11.699z" fill="#ffffff" stroke-width="1"/><path d="M264.35,176.36c-2.05727,-0.918 -4.19593,-1.65367 -6.416,-2.207l0.68359,-2.0996c2.5716,0.58594 4.7298,1.31511 6.4746,2.1875zM258.1781,186.0768c3.22267,-0.27344 5.6901,-0.84961 7.4023,-1.7285c2.01827,-1.04167 3.56773,-2.63997 4.6484,-4.7949c0.70313,-1.3932 1.2728,-3.21613 1.709,-5.4688l1.875,1.377c-0.52734,2.40887 -1.16537,4.32293 -1.9141,5.7422c-1.35413,2.58467 -3.42443,4.4564 -6.2109,5.6152c-1.7578,0.7292 -4.10807,1.25003 -7.0508,1.5625z" fill="#ffffff" stroke-width="1"/><path d="M277.65,171.05h2.2754v5.8008c3.88673,1.2044 7.10613,2.4316 9.6582,3.6816l-1.0938,2.0996c-2.44793,-1.24347 -5.30277,-2.4251 -8.5645,-3.5449v9.7266h-2.2754zM286.2145,176.3137c-0.39714,-1.03513 -1.05794,-2.2428 -1.9824,-3.623l1.5137,-0.55664c0.80727,1.11327 1.4811,2.29817 2.0215,3.5547zM289.0075,175.66917c-0.48829,-1.263 -1.13932,-2.47393 -1.9531,-3.6328l1.4551,-0.47852c0.73567,0.89193 1.39647,2.02473 1.9824,3.3984z" fill="#ffffff" stroke-width="1"/><path d="M300.19,175.67c-1.9206,-0.8594 -3.88023,-1.5788 -5.8789,-2.1582l0.63477,-1.9336c2.2526,0.55989 4.2285,1.24349 5.9277,2.0508zM298.188,180.67c-1.60153,-0.70313 -3.56117,-1.42253 -5.8789,-2.1582l0.83984,-1.9531c1.9922,0.52735 3.9258,1.22721 5.8008,2.0996zM293.5689,186.0509c2.66273,-0.22135 4.74933,-0.62499 6.2598,-1.2109c2.23307,-0.85287 3.98763,-2.3763 5.2637,-4.5703c0.85287,-1.46487 1.5267,-3.31707 2.0215,-5.5566l1.9727,1.1426c-0.63151,2.806 -1.51367,5.04233 -2.6465,6.709c-1.32813,1.9466 -3.18033,3.3854 -5.5566,4.3164c-1.6732,0.64453 -3.90303,1.09699 -6.6895,1.3574z" fill="#ffffff" stroke-width="1"/><path d="M318.29,171.04h2.2363v4.5801h7.4024v2.041h-7.4024c-0.00667,1.9792 -0.11083,3.46357 -0.3125,4.4531c-0.63151,3.09893 -2.65297,5.39387 -6.0644,6.8848l-1.377,-1.8164c2.27213,-0.93747 3.8151,-2.21677 4.6289,-3.8379c0.42969,-0.86587 0.69661,-1.89127 0.80078,-3.0762c0.05207,-0.60547 0.08137,-1.4746 0.0879,-2.6074h-7.8027v-2.041h7.8027z" fill="#ffffff" stroke-width="1"/><path d="M337.86,177.31v-6.8164h2.1973v6.8164h7.4414v1.9434h-7.4414v2.7734h8.4668v1.9824h-8.4668v5.4883h-2.1973v-5.4883h-8.3398v-1.9824h8.3398v-2.7734h-7.3047v-1.9434zM333.5826,176.67524c-0.80727,-1.7904 -1.65363,-3.27803 -2.5391,-4.4629l2.041,-0.9961c1.0026,1.3802 1.8815,2.8711 2.6367,4.4727zM342.1568,175.91352c1.02867,-1.56253 1.84897,-3.20317 2.4609,-4.9219l2.2852,0.89844c-0.73567,1.6146 -1.6634,3.2357 -2.7832,4.8633z" fill="#ffffff" stroke-width="1"/><path d="M356.77,171.98c0.24089,-0.57943 0.4362,-1.13283 0.58594,-1.6602l2.3828,0.32226c-0.22787,0.54037 -0.4362,0.98633 -0.625,1.3379h6.5039v6.3672h-11.797v0.98633h14.697v1.582h-14.697v0.99609h14.014c-0.08463,2.9818 -0.27344,4.99353 -0.56641,6.0352c-0.1888,0.66406 -0.5436,1.10353 -1.0644,1.3184c-0.37109,0.15625 -0.93749,0.23437 -1.6992,0.23437c-0.78127,0 -1.51043,-0.04883 -2.1875,-0.14648l-0.39062,-1.6406h-9.7852v1.084h-2.0996v-4.6973h2.0996v2.0117h3.3594v-2.6367h-3.8379v-11.494zM360.9204,186.111v-2.0117h2.0215v3.3984c0.54037,0.05207 0.9896,0.0781 1.3477,0.0781c0.44271,0 0.7194,-0.12695 0.83008,-0.38085c0.21484,-0.47527 0.38411,-1.7155 0.50781,-3.7207h-8.0273v2.6367zM353.8208,173.484v0.96679h9.6387v-0.96679zM353.8208,175.8473v1.0644h9.6387v-1.0644z" fill="#ffffff" stroke-width="1"/><path d="M374.46,175.96v13.545h-2.1191v-10.029c-0.52735,0.7422 -1.13931,1.51043 -1.8359,2.3047l-1.1035,-2.0996c1.3216,-1.46487 2.4544,-3.1706 3.3984,-5.1172c0.57292,-1.1784 1.14585,-2.58467 1.7188,-4.2188l2.041,0.55664c-0.59245,1.78387 -1.29231,3.47007 -2.0996,5.0586zM385.583,175.10063h2.9394v1.9629h-2.9394v10.254c0,0.8594 -0.20833,1.43233 -0.625,1.7188c-0.30599,0.21485 -0.88216,0.32227 -1.7285,0.32227c-1.03513,0 -2.09633,-0.05859 -3.1836,-0.17578l-0.41992,-2.1387c1.15887,0.16927 2.2396,0.2539 3.2422,0.2539c0.27344,0 0.43946,-0.05859 0.49805,-0.17578c0.03907,-0.08463 0.0586,-0.22461 0.0586,-0.41992v-9.6387h-7.9883v-1.9629h7.9883v-4.2578h2.1582zM379.4014,184.56353c-0.73567,-1.95967 -1.64387,-3.74677 -2.7246,-5.3613l1.8652,-1.084c1.17187,1.72527 2.11263,3.49283 2.8223,5.3027z" fill="#ffffff" stroke-width="1"/><path d="M394.54,185.06c0.52083,0.60547 1.10677,1.05471 1.7578,1.3477c1.06773,0.48177 2.46747,0.72266 4.1992,0.72266h8.3203c-0.23437,0.44271 -0.45247,1.07747 -0.6543,1.9043h-7.7637c-2.2396,0 -3.9551,-0.35157 -5.1465,-1.0547c-0.48829,-0.29297 -1.02539,-0.77151 -1.6113,-1.4356c-0.0456,0.05207 -0.10094,0.11717 -0.16602,0.19531c-0.957,1.1328 -1.90753,2.05727 -2.8516,2.7734l-1.1816,-2.002c1.03513,-0.61849 2.03447,-1.31836 2.998,-2.0996v-4.8242h-2.8418v-1.9238h4.9414zM397.0791,172.101l0.51758,-0.0391c3.01433,-0.20833 5.72267,-0.6543 8.125,-1.3379l1.5234,1.7188c-2.52607,0.66406 -5.22137,1.11326 -8.0859,1.3476v2.5293h9.043v1.9043h-3.2812v7.959h-2.1582v-7.959h-3.6035c-0.03253,2.08987 -0.18878,3.75327 -0.46875,4.9902c-0.25391,1.13933 -0.67057,2.16147 -1.25,3.0664l-1.7969,-1.3574c0.64453,-1.0026 1.05793,-2.2461 1.2402,-3.7305c0.13021,-1.02213 0.19531,-2.4121 0.19531,-4.1699zM393.4658,175.9194c-0.99607,-1.40627 -2.0703,-2.66603 -3.2227,-3.7793l1.6016,-1.2793c1.1198,0.93747 2.2461,2.12887 3.3789,3.5742z" fill="#ffffff" stroke-width="1"/></g></g></svg>