<?xml version="1.0" encoding="UTF-8"?>
<svg width="480" height="360" version="1.1" viewBox="0 0 480 360" xmlns="http://www.w3.org/2000/svg">
 <g dominant-baseline="central" fill="#fff" aria-label="福岡県筑後地方">
  <path d="m245.45 179.12q1.2988 0.89844 2.4316 1.9434v-0.79101h11.123v9.2285h-1.9629v-0.82031h-7.1777v0.82031h-1.9824v-8.1836l-1.0156 1.6113q-0.72265-0.85938-1.416-1.5332v8.1055h-2.0606v-7.998q-1.1621 1.3086-2.1484 2.2266l-1.0156-1.8555q3.2812-2.8711 4.9609-6.2988h-4.5215v-1.9434h2.6367v-3.1348h2.0801v3.1348h1.5039l0.89843 0.9375q-0.91797 2.1094-2.334 4.2285zm4.4141 2.7344v1.8164h2.6465v-1.8164zm0 3.3203v1.8848h2.6465v-1.8848zm7.1777 1.8848v-1.8848h-2.7344v1.8848zm0-3.3887v-1.8164h-2.7344v1.8164zm1.0254-9.4922v4.9609h-9.3262v-4.9609zm-7.3633 1.5039v1.9727h5.3418v-1.9727zm-3.1152-4.3848h11.699v1.6992h-11.699z" dominant-baseline="central"/>
  <path d="m273.12 184.26v-4.2188h1.8555v5.9766h-8.1445v1.3184h-1.8555v-7.2949h1.8555v4.2188h2.1582v-5.498h-5.0098v-1.7578h6.9531q0.97656-1.709 1.6797-3.7988l2.0215 0.70313q-0.83984 1.7676-1.748 3.0957h3.1543v1.7578h-5.1953v5.498zm5.5566-13.076v16.357q0 0.98633-0.52734 1.416-0.50782 0.41015-1.7676 0.41015-0.98633 0-3.3691-0.16601l-0.49805-2.0606q1.6992 0.20508 3.3301 0.20508 0.54687 0 0.64453-0.18555 0.0684-0.12695 0.0684-0.49804v-13.643h-13.105v16.484h-2.1191v-18.32zm-11.982 5.7715q-0.6543-1.5625-1.4844-2.8516l1.8262-0.78125q0.91796 1.3379 1.5332 2.8125z" dominant-baseline="central"/>
  <path d="m296.76 170.98v9.4629h-11.621v-9.4629zm-9.5215 1.543v1.2207h7.4023v-1.2207zm0 2.5977v1.2207h7.4023v-1.2207zm0 2.5976v1.2598h7.4023v-1.2598zm-3.9356 4.0234h16.191v1.6992h-8.0762v6.0644h-2.2168v-6.0644h-8.0371v-10.957h2.1387zm-2.5 5.8984q2.3242-1.0742 4.4434-3.6035l1.7969 1.0449q-2.0898 2.6465-4.6387 4.1602zm16.836 1.2598q-1.4941-1.8359-4.4922-3.8574l1.6797-1.1816q2.3535 1.3574 4.6191 3.5644z" dominant-baseline="central"/>
  <path d="m307.35 174.34q0.57617 0.98633 1.0254 2.0996l-2.041 0.57617q-0.49805-1.4258-1.1719-2.6758h-1.0352q-0.85938 1.5723-2.1094 2.8613l-1.5625-1.4258q1.9531-1.8262 3.0566-5.3906l2.0801 0.40039q-0.33203 1.0644-0.63476 1.7969h4.6582v1.7578zm8.1836 0q0.61523 0.9082 1.1426 1.8848l-2.041 0.63477q-0.72265-1.5723-1.2891-2.5195h-0.9668q-0.75195 1.5918-1.709 2.7637l-1.6797-1.1426q1.7676-2.0508 2.5586-5.5176l2.0606 0.3418q-0.30273 1.1621-0.53711 1.7969h6.0644v1.7578zm-9.9512 5.1367v5.2637q1.1621-0.40039 2.6172-0.98633l0.21485 1.6602q-3.6426 1.7285-7.334 2.8613l-0.70312-1.9238q1.3184-0.35157 3.1641-0.92774v-5.9473h-2.7637v-1.7774h7.4023v1.7774zm11.26-2.1973v9.502q0 0.26368 0.0879 0.3418 0.10743 0.0977 0.44922 0.0977 0.38086 0 0.47852-0.24414 0.0391-0.12696 0.0879-0.54688 0.11719-1.084 0.11719-2.0898l1.6797 0.68359q-0.0976 2.8516-0.46875 3.5059-0.29297 0.52734-0.9375 0.625-0.40039 0.0684-1.1426 0.0684-1.5039 0-1.9336-0.33203-0.40039-0.30274-0.40039-1.1133v-3.0859l-1.2402 1.5137q-1.25-3.2324-2.4609-4.9707v0.625q0 2.3438-0.47852 3.8672-0.55664 1.7676-1.9531 3.1445-0.36133 0.35156-0.97656 0.84961l-1.6016-1.5234q1.0352-0.74219 1.5625-1.3281 1.1621-1.3086 1.3965-3.3398 0.0879-0.72266 0.0879-1.5918v-4.6582zm-1.9824 1.7383h-3.7012v2.0117l0.99609-1.1328q1.5527 2.0898 2.7051 4.5898z" dominant-baseline="central"/>
  <path d="m330.49 177.33q-1.5723-1.875-3.6914-3.5644l1.4062-1.3379q0.72266 0.61523 1.2598 1.1328 1.1133-1.3867 2.1191-3.2129l1.875 0.82031q-1.3281 1.9141-2.8418 3.5352l0.14649 0.14649q0.61523 0.66406 1.0547 1.1816 1.8848-1.9531 3.5254-3.9648l1.6602 1.0254q-2.2266 2.6367-5.0586 5.1562 1.7969-0.0879 4.248-0.2539-0.54688-0.9668-1.2305-1.8848l1.6406-0.76172q1.543 1.8848 2.7344 4.4629l-1.7774 0.85938-0.27343-0.57617q-0.26368-0.54688-0.33204-0.67383-2.6367 0.35156-4.7461 0.45898-0.0684 0.01-0.14648 0.0195-0.29297 0.48828-0.77149 1.1914h5.293l1.1816 1.084q-1.4941 2.1289-3.3203 3.584 2.2461 1.1523 5.1953 1.8164l-1.0742 1.8945q-3.0469-0.78125-5.8398-2.5195-3.1934 1.9336-6.1426 2.666l-1.0644-1.8262q2.627-0.44922 5.5566-1.9727-1.2305-1.0156-2.2168-2.041-0.76172 0.64453-1.7773 1.2207l-1.2598-1.3477q2.3242-1.2891 3.9941-3.623l-1.4648 0.0781q-0.84961 0.0488-1.5137 0.0684l-0.43946-1.7578q0.64454-0.01 2.959-0.0684l0.33203-0.2832q0.40039-0.36133 0.80078-0.73243zm2.3047 7.4512q1.3574-0.98633 2.2852-2.1094h-4.8926q1.1328 1.1621 2.6074 2.1094zm-7.6856-5.957v10.674h-2.0996v-8.2226q-0.9082 0.91797-1.7871 1.6797l-0.97656-1.9141q2.6856-2.0898 5.0586-6.1035l1.7578 0.99609q-0.87891 1.4551-1.9531 2.8906zm-4.707-3.8281q2.4902-1.748 4.2578-4.4434l1.8066 0.95703q-2.3047 3.3008-4.9805 5.1856z" dominant-baseline="central"/>
  <path d="m350.23 178.41v7.7344q0 0.75195 0.64454 0.9082 0.66406 0.16602 3.0371 0.16602 2.3144 0 3.0566-0.23438 0.41992-0.13672 0.54687-0.76172 0.16602-0.8789 0.17578-2.0801l2.041 0.57618q-0.15625 2.8809-0.79102 3.6816-0.41992 0.52734-1.2695 0.625-1.3379 0.14648-4.541 0.14648-2.4805 0-3.252-0.13672-1.1621-0.19531-1.4746-1.0254-0.15625-0.43945-0.15625-1.1719v-7.7441l-1.8652 0.64453-0.45899-1.8945 2.3242-0.80078v-5.2637h1.9824v4.5801l2.0996-0.71289v-5.1465h1.9629v4.4629l3.2715-1.123 1.0254 0.625v7.3144q0 0.76172-0.36133 1.1328-0.41015 0.41015-1.377 0.41015-0.79102 0-1.6797-0.13672l-0.32226-1.8652q0.57617 0.14648 1.1719 0.14648 0.42969 0 0.52734-0.17578 0.0977-0.14648 0.0977-0.48828v-4.6191l-2.3535 0.82031v7.9004h-1.9629v-7.2266zm-7.1777-3.1934v-4.7168h2.0996v4.7168h1.8945v1.9824h-1.8945v6.2109q1.0254-0.35156 2.0312-0.73242l0.18555 1.8848q-3.1641 1.4453-6.4941 2.4219l-0.6836-2.0801q1.5039-0.39062 2.6367-0.74218 0.13672-0.0488 0.22461-0.0684v-6.8945h-2.4805v-1.9824z" dominant-baseline="central"/>
  <path d="m369.48 175.76q-0.0684 1.6309-0.19531 2.8711h7.8711q-0.14648 6.7774-0.76172 8.7988-0.3125 1.0156-1.1621 1.4062-0.66406 0.30273-1.9434 0.30273-1.3477 0-3.0566-0.20507l-0.38085-2.1973q2.2949 0.32227 3.2324 0.32227 0.79101 0 1.0059-0.44922 0.51757-1.0938 0.72265-6.0352h-5.8105q-0.32227 1.7578-0.90821 3.0469-1.6309 3.5644-5.4492 5.6543l-1.543-1.7188q3.8281-1.9922 5.0586-5.2246 0.82031-2.1582 1.0644-6.5723h-6.4648v-2.002h7.9785v-3.2617h2.2559v3.2617h8.2422v2.002z" dominant-baseline="central"/>
 </g>
</svg>
