<svg version="1.1" xmlns="http://www.w3.org/2000/svg" xmlns:xlink="http://www.w3.org/1999/xlink" width="400" height="400" viewBox="0,0,400,400"><g transform="translate(-40,20)"><g data-paper-data="{&quot;isPaintingLayer&quot;:true}" stroke="none" stroke-linecap="butt" stroke-linejoin="miter" stroke-miterlimit="10" stroke-dasharray="" stroke-dashoffset="0" style="mix-blend-mode: normal"><path d="M40,380v-400h400v400z" fill="none" fill-rule="nonzero" stroke-width="0"/><path d="M190.0001,100h100c16.62,0 30,13.38 30,30v100c0,16.62 -13.38,30 -30,30h-100c-16.62,0 -30,-13.38 -30,-30v-100c0,-16.62 13.38,-30 30,-30z" fill="#54068e" fill-rule="evenodd" stroke-width="0"/><path d="M199.39055,128.37947h83.211v14.885l-0.15039,0.24219c-7.426,11.949 -14.7746,27.664 -22.02,47.129v0.00195c-6.4769,17.414 -11.1916,32.715 -14.143,45.889l-0.17383,0.78125h-20.023l0.26367,-1.2129c3.627,-16.666 9.7506,-34.878 18.365,-54.648v-0.00196c7.8763,-18.027 13.4747,-29.6057 17.238,-35.854h-44.584v21.914h-17.984v-39.125z" fill="#ffffff" fill-rule="nonzero" stroke-width="1" opacity="0.75"/></g></g></svg>