<svg version="1.1" xmlns="http://www.w3.org/2000/svg" xmlns:xlink="http://www.w3.org/1999/xlink" width="108.52838" height="199.41381" viewBox="0,0,108.52838,199.41381"><g transform="translate(-289.85191,-73.01956)"><g data-paper-data="{&quot;isPaintingLayer&quot;:true}" fill="none" fill-rule="evenodd" stroke="#fc3324" stroke-width="36" stroke-linecap="round" stroke-linejoin="round" stroke-miterlimit="4" stroke-dasharray="" stroke-dashoffset="0" style="mix-blend-mode: normal"><path d="M380.38029,91.01956l-2.62958,1.49976l-1.37978,2.70956l1.06983,1.52976l-1.76971,0.72988l-1.19981,-1.79971l-0.81987,1.85971l-2.56959,1.52975l-0.05999,1.62974l-1.48976,-1.14981l-1.42977,1.81971l1.02983,2.90954l-3.07951,5.0092l-2.98952,0.27996l-2.43961,3.82939l-0.50992,5.25916l4.56927,2.4796l-3.97936,2.68957l-2.20965,-1.68973l-1.03983,0.6299l-0.53992,5.16917l2.75956,-1.03983l-0.37994,2.53959l-3.05951,1.61974l-2.16966,6.229l0.6499,1.55975l-3.0795,2.91953l-2.63958,7.67877l0.35995,1.39978l-1.23981,2.79955l-2.16965,8.03871l-0.11998,2.03967l-1.42977,3.59942l-4.3893,14.74764l-1.2698,5.42913l-0.01,2.18964l-1.16981,3.38946l-0.58991,5.99904l0.38994,1.95968l3.01952,4.09935l-1.76972,3.7494l0.02999,3.27947l-1.18981,2.91953l1.2498,1.13981l-1.8397,0.84987l1.29979,3.1195l-0.11998,2.27963l-1.56975,1.85971l-2.38961,1.00983l-1.58974,3.1495l-2.22965,2.76955l-0.23996,3.18949l-0.94985,1.57975l1.63974,3.83938l-2.58959,1.54976l0.95985,4.19932l-0.71988,1.79971l-2.29963,1.16981l-0.65989,3.56943l1.46976,0.98984l-1.45976,1.27979l-1.97968,-1.38977l-0.67989,-2.12966l-2.61958,1.05983l-2.92953,0.09999l-1.81971,-2.84954l0.74988,-2.46961l-1.72972,-0.69988l-1.9197,-2.40962l-4.62926,-1.05983"/></g></g></svg>