<?xml version="1.0" encoding="UTF-8"?>
<svg width="480" height="360" version="1.1" viewBox="0 0 480 360" xmlns="http://www.w3.org/2000/svg">
 <g fill="#fff" aria-label="伊豆諸島">
  <path d="m258.08 175.78h1.5039v1.7969h-1.5039v4.5996h-4.9805q-0.17578 2.7051-1.123 4.3359-1.2012 2.0801-3.0566 3.2227l-1.5625-1.5625q1.7871-1.0352 2.832-2.8223 0.69336-1.2012 0.82032-3.1738h-4.0527v-1.8164h4.082v-2.7832h-5.5762v-1.7969h5.5762v-2.6074h-3.7793v-1.8164h10.82zm-2.0606 0v-2.6074h-2.9004v2.6074zm0 1.7969h-2.9004v2.7832h2.9004zm-11.064-2.2363v14.16h-2.0996v-10.02q-0.72266 1.1914-1.6406 2.4609l-0.99609-2.1777q1.6504-2.2363 2.793-5.1367 0.71289-1.7969 1.4062-4.2676l2.1191 0.53711q-0.76172 2.5488-1.582 4.4434z"/>
  <path d="m277.12 175.74v6.4941h-14.219v-6.4941zm-12.021 1.6992v3.0762h9.8047v-3.0762zm0.70312 9.3555q-0.46875-1.7676-1.6211-3.623l2.0996-0.78125q1.0156 1.5723 1.7383 3.584l-1.9043 0.82031h5.7617q0.9961-2.0312 1.748-4.502l2.3144 0.70313q-0.83984 2.0605-1.8164 3.7988h5.3808v1.9043h-19.004v-1.9043zm-4.6875-15.234h17.783v1.8555h-17.783z"/>
  <path d="m287.62 182.77-0.58593-0.83008q1.1133-0.57617 2.207-1.3477 1.9043-1.3281 3.1543-2.6172h-4.7363v-1.7383h3.8672v-1.9238h-2.7148v-1.6992h2.7148v-2.1191h1.9824v2.1191h1.9043v1.3965q0.86914-1.4258 1.6602-3.1152l1.7383 0.8789q-1.3477 2.5781-2.6562 4.4629h3.3398v1.7383h-4.541q-0.72266 0.85937-1.8848 1.9238h4.8828v9.5996h-2.002v-1.0059h-4.3164v1.0059h-1.9629v-6.9824q-0.82032 0.54688-1.5527 0.97656l-0.43945-0.63476v5.6348h-4.668v1.0059h-1.9238v-6.7285zm7.5977-8.457h-1.709v1.9238h0.41992q0.41992-0.57617 1.2891-1.9238zm-12.207 10.137v2.3828h2.7441v-2.3828zm8.623-2.9688v1.8555h4.3164v-1.8555zm0 3.4375v1.9531h4.3164v-1.9531zm-10.225-13.701h5.8984v1.6406h-5.8984zm-0.91797 2.8613h7.4219v1.7578h-7.4219zm0.91797 2.998h5.8984v1.6211h-5.8984zm0 2.8613h5.8984v1.582h-5.8984z"/>
  <path d="m307.74 171.98q0.36133-0.86914 0.58594-1.6602l2.3828 0.32226q-0.34179 0.81055-0.625 1.3379h6.5039v6.3672h-11.797v0.98633h14.697v1.582h-14.697v0.99609h14.014q-0.12696 4.4727-0.56641 6.0352-0.2832 0.99609-1.0644 1.3184-0.55664 0.23437-1.6992 0.23437-1.1719 0-2.1875-0.14648l-0.39063-1.6406h-9.7852v1.084h-2.0996v-4.6973h2.0996v2.0117h3.3594v-2.6367h-3.8379v-11.494zm4.1504 14.131v-2.0117h2.0215v3.3984q0.81054 0.0781 1.3476 0.0781 0.66407 0 0.83008-0.38085 0.32227-0.7129 0.50781-3.7207h-8.0273v2.6367zm-7.0996-12.627v0.96679h9.6387v-0.96679zm0 2.3633v1.0644h9.6387v-1.0644z"/>
 </g>
</svg>
