<svg version="1.1" xmlns="http://www.w3.org/2000/svg" xmlns:xlink="http://www.w3.org/1999/xlink" width="113.5576" height="136.82388" viewBox="0,0,113.5576,136.82388"><g transform="translate(-144.57288,33.84198)"><g data-paper-data="{&quot;isPaintingLayer&quot;:true}" fill="none" fill-rule="evenodd" stroke="#fc3324" stroke-width="36" stroke-linecap="round" stroke-linejoin="round" stroke-miterlimit="4" stroke-dasharray="" stroke-dashoffset="0" style="mix-blend-mode: normal"><path d="M240.13048,-15.84198l-3.09951,2.71956l-3.68941,2.38962l-5.25916,0.49992l0.80987,1.18981l-0.37994,6.239l-1.32979,-0.31995l-2.39961,3.98936l0.29995,0.89986l-3.95936,3.0995l-3.23948,7.02887l-0.97985,4.51928l-2.59958,3.20949l-1.74972,0.97984l-1.03983,2.36962l3.89938,5.67909l-0.26996,5.91906l4.93921,5.39914l2.68957,2.37962l2.94953,5.6291l0.00999,3.99936l-1.33978,1.04983l1.20981,1.45977l-1.95969,2.96953l0.68989,1.91969l-1.40977,3.18949l-2.85954,0.08998l-1.66974,-2.34963l1.77972,-3.20949l-0.66989,-4.14933l-1.75972,-3.05951l-6.54895,5.03919l1.66973,1.34978l0.6399,3.08951l-1.10983,3.37946l1.96968,2.15965l-1.18981,2.08966l-1.94968,-1.16981l-1.67974,2.43961l-2.62957,0.45993l-0.46992,-1.79971l-3.67942,2.08966l-2.39961,-3.33946l-3.15949,-0.81986l0.91985,2.20964l1.20981,0.04l-0.33995,2.56958l2.09966,-0.01999l0.40994,1.69973l-1.78972,3.20949l-1.90969,-1.31979l-1.73972,0.67989l2.13966,1.93969l0.25996,2.36962l-1.44977,-0.53991l-1.64974,1.41977l-1.64973,-2.96952l-2.56959,0.52992l-0.31995,-2.41961l-3.56943,-0.52992l-2.43961,2.5296l2.60958,1.05983l0.12998,2.58958l1.8997,-1.9197l2.61958,-0.27995l-2.65957,5.39914l-2.24964,1.27979l-5.17918,-1.28979l-1.41977,1.8897l-2.74956,-0.93985l-1.66974,0.31995l-1.17981,-1.36978l3.42945,0.40994l1.54975,-1.92969l-0.91985,-1.36978l2.45961,-1.60974l0.07999,-1.69973l-2.60959,0.87986l-5.91905,5.57911l-2.10967,-0.5899l-1.56975,1.02983l-2.88954,-2.24964l0.99984,-2.35962l0.10998,-2.85954h-1.46976l-0.21997,3.1495l-1.99968,0.25996l-1.31979,-1.16981l1.8397,-3.25948"/></g></g></svg>