<?xml version="1.0" encoding="UTF-8"?>
<svg width="480" height="360" version="1.1" viewBox="0 0 480 360" xmlns="http://www.w3.org/2000/svg">
 <g dominant-baseline="central" fill="#fff" aria-label="大分県南部">
  <path d="m251.36 177.52q0.67383 2.2852 2.5586 4.8633 2.2949 3.1445 5.6445 4.9805l-1.3965 2.0117q-3.5449-2.0898-5.918-5.5371-1.2793-1.875-2.0508-3.8184-0.77148 2.6172-2.3926 4.7559-2.3828 3.1641-5.8887 4.668l-1.377-1.7871q3.6719-1.5332 5.9277-4.7266 1.8945-2.6953 2.2461-5.4102h-7.793v-2.1191h7.8809v-4.707h2.2559v4.707h8.0469v2.1191z" dominant-baseline="central"/>
  <path d="m269.81 179.9q-0.30273 3.1836-1.377 5.1172-1.6113 2.9199-5.5371 4.4824l-1.377-1.8262q2.7051-0.80078 4.2773-2.7246 1.4551-1.7773 1.7773-5.0488h-3.418v-1.4062q-1.0742 1.1035-2.4024 2.0898l-1.3965-1.6895q4.2773-2.9492 6.084-8.2422l2.0801 0.74218q-1.3281 3.6914-3.8574 6.5625h11.113q-2.9199-2.7637-4.8633-6.6602l1.9824-0.80078q2.4414 4.9805 6.7578 7.6172l-1.2988 1.9238q-1.3086-0.92773-2.2852-1.8066l-0.01 0.40039q-0.11718 5.0684-0.50781 8.0957-0.20508 1.6016-0.91797 2.0996-0.63476 0.44922-2.2266 0.44922-1.2012 0-2.9688-0.11718l-0.40039-2.0606q1.6016 0.21484 2.9004 0.21484 0.76172 0 1.0156-0.21484 0.25391-0.21484 0.40039-1.1328 0.36133-2.1777 0.43946-6.0645z" dominant-baseline="central"/>
  <path d="m296.76 170.98v9.4629h-11.621v-9.4629zm-9.5215 1.543v1.2207h7.4023v-1.2207zm0 2.5977v1.2207h7.4023v-1.2207zm0 2.5976v1.2598h7.4023v-1.2598zm-3.9356 4.0234h16.191v1.6992h-8.0762v6.0644h-2.2168v-6.0644h-8.0371v-10.957h2.1387zm-2.5 5.8984q2.3242-1.0742 4.4434-3.6035l1.7969 1.0449q-2.0898 2.6465-4.6387 4.1602zm16.836 1.2598q-1.4941-1.8359-4.4922-3.8574l1.6797-1.1816q2.3535 1.3574 4.6191 3.5644z" dominant-baseline="central"/>
  <path d="m308.92 182.24h-4.043v-1.6016h1.9531q-0.43945-0.9961-0.99609-1.8555l1.7578-0.64453q0.76172 1.2793 1.2305 2.5h2.2949q0.57617-1.1816 1.0156-2.5391l1.9629 0.61524q-0.49805 1.0742-1.0547 1.9238h2.0996v1.6016h-4.1797v1.4258h4.4531v1.6602h-4.4531v3.6914h-2.041v-3.6914h-4.2871v-1.6602h4.2871zm2.0996-6.0156h7.4024v11.416q0 1.0059-0.53711 1.416-0.44922 0.35157-1.5137 0.35157-1.377 0-2.6562-0.14649l-0.47852-1.9629q1.709 0.20508 2.5586 0.20508 0.35156 0 0.41015-0.17578 0.0391-0.10742 0.0391-0.30274v-9.1016h-12.48v11.582h-2.1777v-13.281h7.2754v-1.7676h-8.3594v-1.8164h8.3594v-2.1387h2.1582v2.1387h8.4766v1.8164h-8.4766z" dominant-baseline="central"/>
  <path d="m326.98 172.75h4.1797v1.8848h-1.377q-0.3711 1.4941-0.9961 3.1348h2.6074v1.8848h-10.898v-1.8848h2.3926q-0.39062-1.875-0.82031-3.1348h-1.2695v-1.8848h4.1406v-2.2559h2.041zm-2.9394 1.8848q0.49805 1.4551 0.77148 3.1348h1.9922l0.09766-0.27344q0.41992-1.1133 0.78125-2.5293l0.0879-0.33203zm6.0547 6.6602v7.998h-2.002v-0.95703h-4.2578v1.1621h-2.0606v-8.2031zm-6.2598 1.7969v3.3887h4.2578v-3.3887zm13.047-4.9316q1.1621 1.1035 1.8457 2.627 0.67383 1.5234 0.67383 3.0859 0 1.4453-0.53711 2.1289-0.55664 0.71289-1.8359 0.71289-1.0938 0-2.1191-0.15625l-0.47852-2.0801q1.1816 0.21485 1.9531 0.21485 0.58594 0 0.73242-0.27344 0.0977-0.19531 0.0977-0.78125 0-2.4121-1.4453-4.1602-0.38086-0.45898-0.95703-0.98633l0.11719-0.27343q1.0156-2.2949 1.582-4.7852h-2.5v16.064h-2.0215v-18.086h5.8789l1.084 0.99609q-0.98633 3.3594-2.0703 5.752z" dominant-baseline="central"/>
 </g>
</svg>
