<?xml version="1.0" encoding="UTF-8"?>
<svg width="480" height="360" version="1.1" viewBox="0 0 480 360" xmlns="http://www.w3.org/2000/svg">
 <g dominant-baseline="central" fill="#fff" aria-label="鹿児島県薩摩地方">
  <path d="m245.19 187.08v-5.8398h2.041v1.6406h3.7012v1.6797h-3.7012v2.2168q2.4024-0.39062 3.8184-0.71289l0.0586 1.6406q-3.2227 0.91797-7.2949 1.4941l-0.5664-1.875q1.0449-0.11719 1.9434-0.24414zm5.9277-14.961h7.8516v1.6797h-5.5664v1.7188h4.8633v5.127h-14.58q-0.0586 3.0859-0.3125 4.8144-0.32227 2.207-1.2891 4.0234l-1.7969-1.4551q0.91797-1.8066 1.1719-4.2969 0.18554-1.8262 0.18554-4.9121v-6.6992h7.3047v-1.6211h2.168zm-7.4121 1.6797v1.7188h2.9004v-1.7188zm0 3.2812v2.002h2.9004v-2.002zm12.5 2.002v-2.002h-2.8027v2.002zm-7.5976-5.2832v1.7188h2.793v-1.7188zm0 3.2812v2.002h2.793v-2.002zm5.0976 6.2012q2.1191-0.72266 3.6621-1.6797l1.2988 1.582q-2.1973 1.0742-4.9609 1.8262v1.4844q0 0.58594 0.36133 0.68359 0.30273 0.0879 1.4356 0.0879 1.3574 0 1.5918-0.2832 0.21485-0.2539 0.3125-1.7383l0.0195-0.30273 2.002 0.53711q-0.0195 0.12695-0.0586 0.72265-0.14648 1.9043-0.84961 2.4609-0.69335 0.55664-3.4863 0.55664-1.9727 0-2.627-0.29297-0.72265-0.33203-0.72265-1.4258v-6.2598h2.0215z" dominant-baseline="central"/>
  <path d="m277.58 171.07v9.7266h-10.117v-9.7266zm-7.998 1.7578v2.2266h5.8594v-2.2266zm0 3.9062v2.3438h5.8594v-2.3438zm-6.9629-6.0449h2.2559v10.84h-2.2559zm-2.0606 17.041q2.5293-0.2539 4.1113-1.4355 1.084-0.81055 1.4453-2.1973 0.20508-0.80078 0.2832-2.3438h2.1582q-0.0293 3.6621-1.5918 5.4199-1.5234 1.709-5.1074 2.4414zm10.547-6.0352h2.1973v4.834q0 0.50782 0.32227 0.60547 0.34179 0.10742 1.3672 0.10742 1.1035 0 1.4746-0.11718 0.39063-0.12696 0.50782-0.77149 0.13671-0.66406 0.16601-2.041l2.2266 0.64453q-0.0391 0.37109-0.11718 1.3379-0.17578 2.0312-0.90821 2.5391-0.41015 0.27344-1.1816 0.3418-1.0644 0.0879-2.6074 0.0879-2.1387 0-2.793-0.38086-0.65429-0.39063-0.65429-1.5332z" dominant-baseline="central"/>
  <path d="m287.74 171.98q0.36133-0.86914 0.58594-1.6602l2.3828 0.32226q-0.3418 0.81055-0.625 1.3379h6.5039v6.3672h-11.797v0.98633h14.697v1.582h-14.697v0.99609h14.014q-0.12695 4.4727-0.5664 6.0352-0.28321 0.99609-1.0645 1.3184-0.55664 0.23437-1.6992 0.23437-1.1719 0-2.1875-0.14648l-0.39063-1.6406h-9.7852v1.084h-2.0996v-4.6973h2.0996v2.0117h3.3594v-2.6367h-3.8379v-11.494zm4.1504 14.131v-2.0117h2.0215v3.3984q0.81054 0.0781 1.3476 0.0781 0.66406 0 0.83008-0.38085 0.32227-0.7129 0.50781-3.7207h-8.0273v2.6367zm-7.0996-12.627v0.96679h9.6387v-0.96679zm0 2.3633v1.0644h9.6387v-1.0644z" dominant-baseline="central"/>
  <path d="m316.76 170.98v9.4629h-11.621v-9.4629zm-9.5215 1.543v1.2207h7.4023v-1.2207zm0 2.5977v1.2207h7.4023v-1.2207zm0 2.5976v1.2598h7.4023v-1.2598zm-3.9356 4.0234h16.191v1.6992h-8.0762v6.0644h-2.2168v-6.0644h-8.0371v-10.957h2.1387zm-2.5 5.8984q2.3242-1.0742 4.4434-3.6035l1.7969 1.0449q-2.0898 2.6465-4.6387 4.1602zm16.836 1.2598q-1.4941-1.8359-4.4922-3.8574l1.6797-1.1816q2.3535 1.3574 4.6191 3.5644z" dominant-baseline="central"/>
  <path d="m329.45 180.92v2.0996q0 0.61523-0.0195 0.97656 1.0742-1.2402 1.4551-2.6758l1.7285 0.38086q-0.12696 0.42969-0.27344 0.80078h1.1523v-1.084h1.8555v1.084h3.457v1.377h-3.457v1.1035h2.998v1.3379h-2.998v1.2988h4.1406v1.4844h-10.264v-1.4844h4.2676v-1.2988h-2.8027v-1.3281l-1.2695-0.92773q-0.0586 1.6113-0.44922 2.8516-0.45899 1.4453-1.543 2.666l-1.5332-1.2793q1.2402-1.3477 1.582-3.1152 0.19531-0.97657 0.19531-2.2461v-3.418h1.7773l-0.76171-0.83984q1.6504-0.25391 3.0371-0.5957-0.81055-0.21485-2.5-0.625l0.80078-0.625h-2.1973v-1.4356h4.8438v-1.0644h-0.98633v-1.0156h-3.8965v1.0938h-2.0996v-1.0938h-5.2148v-1.582h5.2148v-1.2402h2.0996v1.2402h3.8965v-1.2402h2.1484v1.2402h5.6738v1.582h-5.6738v0.89844h0.89844v1.1816h4.4336v1.4356h-2.5781l0.91797 0.45898q-0.70313 0.32227-1.5039 0.63477l-0.32227 0.12695 0.67383 0.17578 0.30274 0.0879 0.625 0.17578 1.0059 0.28321-0.89844 0.74218h1.9629v1.3965zm4.3848-2.2461q-1.3965 0.43946-3.3887 0.84961h6.2207l-1.0254-0.3125q-0.85937-0.26367-1.6406-0.48828zm-0.11719-1.1523q0.0684-0.0293 0.13672-0.0488 0.67383-0.20508 1.8164-0.63476h-4.7168q1.7188 0.39062 2.7637 0.68359zm-2.0605 6.3574q-0.3711 0.60547-0.77149 1.1035h2.6074v-1.1035zm-5.8984-3.8672q1.4062 1.875 1.4062 3.9648 0 1.2598-0.45899 1.7871-0.45898 0.51758-1.6016 0.51758-0.8789 0-1.5234-0.13672l-0.2832-1.6992q0.18555 0.0293 0.50781 0.0781 0.48828 0.0781 0.88868 0.0781 0.37109 0 0.48828-0.14649 0.11718-0.14648 0.11718-0.51757 0-1.9629-1.4648-3.7891 1.0938-2.207 1.3477-3.6426h-1.9434v12.998h-1.9043v-14.541h5.2441l0.68359 0.76172q-0.69335 2.4609-1.5039 4.2871z" dominant-baseline="central"/>
  <path d="m355.57 173.54v1.1035h3.2812v1.3965h-2.5195q1.1816 1.377 3.0176 2.3633l-0.9375 1.3965q-1.7285-1.1133-2.8809-2.666v2.168h-1.8164v-1.9726q-0.80078 1.2695-2.1387 2.1289l-1.0254-1.1426q1.4356-0.79102 2.4902-2.2754h-2.0312v-1.3965h2.666v-1.1035h-5.0391v1.1035h1.9531v1.3965h-2.002v0.36132q1.123 0.55664 2.0898 1.3379l-0.92774 1.2207q-0.48828-0.51758-1.1621-1.0645v1.8457h-1.7969v-2.2559q-0.84961 1.2793-2.2461 2.2559l-0.95704-1.2402v0.55664q0 3.9453-0.34179 6.3574-0.3125 2.1875-1.1426 4.0625l-1.8555-1.3184q0.71289-1.6309 1.0059-3.7793 0.29297-2.168 0.29297-5.3223v-7.1191h7.8613v-1.4355h2.168v1.4355h7.5976v1.6016zm-8.8379 0h-3.1445v4.9316q1.6016-0.9668 2.5977-2.4316h-2.1973v-1.3965h2.7442zm5.8984 7.6758v1.1133h5.9766v1.3965h-5.9766v0.95703h6.875v1.4844h-6.875v1.7188q0 0.88867-0.44922 1.2598-0.42968 0.36133-1.5918 0.36133-1.7969 0-2.8223-0.16601l-0.30273-1.6211q1.4648 0.20508 2.7148 0.20508 0.33203 0 0.38086-0.12695 0.0488-0.10742 0.0488-0.35156v-1.2793h-6.9043v-1.4844h6.9043v-0.95703h-6.0644v-1.3965h6.0644v-0.95703q-2.7344 0.16601-4.6387 0.19531l-0.60547-1.3965q6.0254-0.0977 10.723-0.80079l1.1426 1.2988q-2.5684 0.38086-4.5996 0.54688z" dominant-baseline="central"/>
  <path d="m370.23 178.41v7.7344q0 0.75195 0.64454 0.9082 0.66406 0.16602 3.0371 0.16602 2.3144 0 3.0566-0.23438 0.41992-0.13672 0.54687-0.76172 0.16602-0.8789 0.17578-2.0801l2.041 0.57618q-0.15625 2.8809-0.79102 3.6816-0.41992 0.52734-1.2695 0.625-1.3379 0.14648-4.541 0.14648-2.4805 0-3.252-0.13672-1.1621-0.19531-1.4746-1.0254-0.15625-0.43945-0.15625-1.1719v-7.7441l-1.8652 0.64453-0.45899-1.8945 2.3242-0.80078v-5.2637h1.9824v4.5801l2.0996-0.71289v-5.1465h1.9629v4.4629l3.2715-1.123 1.0254 0.625v7.3144q0 0.76172-0.36133 1.1328-0.41015 0.41015-1.377 0.41015-0.79102 0-1.6797-0.13672l-0.32226-1.8652q0.57617 0.14648 1.1719 0.14648 0.42969 0 0.52734-0.17578 0.0977-0.14648 0.0977-0.48828v-4.6191l-2.3535 0.82031v7.9004h-1.9629v-7.2266zm-7.1777-3.1934v-4.7168h2.0996v4.7168h1.8945v1.9824h-1.8945v6.2109q1.0254-0.35156 2.0312-0.73242l0.18555 1.8848q-3.1641 1.4453-6.4941 2.4219l-0.6836-2.0801q1.5039-0.39062 2.6367-0.74218 0.13672-0.0488 0.22461-0.0684v-6.8945h-2.4805v-1.9824z" dominant-baseline="central"/>
  <path d="m389.48 175.76q-0.0684 1.6309-0.19531 2.8711h7.8711q-0.14648 6.7774-0.76172 8.7988-0.3125 1.0156-1.1621 1.4062-0.66406 0.30273-1.9434 0.30273-1.3477 0-3.0566-0.20507l-0.38085-2.1973q2.2949 0.32227 3.2324 0.32227 0.79101 0 1.0059-0.44922 0.51757-1.0938 0.72265-6.0352h-5.8105q-0.32227 1.7578-0.90821 3.0469-1.6309 3.5644-5.4492 5.6543l-1.543-1.7188q3.8281-1.9922 5.0586-5.2246 0.82031-2.1582 1.0644-6.5723h-6.4648v-2.002h7.9785v-3.2617h2.2559v3.2617h8.2422v2.002z" dominant-baseline="central"/>
 </g>
</svg>
