<svg version="1.1" xmlns="http://www.w3.org/2000/svg" xmlns:xlink="http://www.w3.org/1999/xlink" width="38.67845" height="52.6479" viewBox="0,0,38.67845,52.6479"><g transform="translate(-286.27618,-37.82917)"><g data-paper-data="{&quot;isPaintingLayer&quot;:true}" fill="#ff0000" fill-rule="evenodd" stroke="none" stroke-width="0" stroke-linecap="round" stroke-linejoin="round" stroke-miterlimit="10" stroke-dasharray="" stroke-dashoffset="0" style="mix-blend-mode: normal"><path d="M324.95463,81.00744l-0.65997,0.51998l-2.13991,-0.10999l-0.98996,0.20999l-0.54998,-0.41998l-2.06992,0.57998l-0.75997,0.99996l-0.24999,1.59994l-0.86997,0.66997l-0.12,1.47995l-0.79996,0.24999l-0.02,0.87996l0.92996,0.90996l-1.22995,1.89992l-2.16991,-0.54998l-1.19995,-1.97992l0.44998,-1.49994l-1.27995,-1.83992l-1.39995,-0.20999l-0.82997,-1.17996l-1.07996,-0.55997l-1.03996,-0.06l-0.54998,0.48998l-0.13,1.26995l-1.46994,1.19995l-1.25995,-0.07l-0.62997,0.41998l-2.3099,0.08999l-0.36999,-0.45998l-3.14987,0.67997l-1.14996,0.66998l-0.80996,-0.66998l-1.59994,0.41998l-1.14995,-0.35998l-0.78997,-1.19995l0.19,-0.60998l-0.70997,-1.13995l-1.31995,-0.16999l0.25999,-0.96997l-0.73997,-1.33995l0.81997,-0.73997l-0.06,-1.10996l-0.67997,-0.79997l1.21995,-1.31995l-1.22995,-0.91996l-1.50994,0.28999l-0.85996,-0.53998l1.79993,-3.05988l-0.94996,-1.24995l0.90996,-1.24995l-0.81997,-2.07992l0.63997,-0.60998l-2.18991,-2.00992l1.06996,-1.42994l0.35998,-1.55994l-0.12999,-1.83992l1.45994,-2.3299l2.05992,-0.01l1.23995,-1.06996l0.84997,-1.22995l0.58998,-2.4499l-0.69997,-0.73997l0.37998,-1.16995l0.95997,-0.93996l-1.50994,-2.5099l-1.49994,-1.29995l-0.23999,-1.22995l-1.30995,-1.48994l0.57998,-1.20995l0.12,-1.91993l0.86996,-1.83992l1.14995,0.72997l1.08996,-0.02l2.21991,-1.93992l2.14991,-0.11999l0.71997,0.43998l2.78989,0.74997l1.01995,-0.13999l0.98996,0.72997l0.28999,1.18995l1.04996,0.39999l0.49998,0.81996l1.38995,0.59998l0.01999,0.62998l1.31995,1.06996l0.56997,1.43994l-0.32999,1.45994l0.95996,1.38994l-0.08999,1.80993l0.21999,0.78996l1.14995,1.09996l1.04996,0.36998l1.94992,2.34991l0.75997,4.04984l1.16995,1.02996l1.23995,1.57994l-0.05,1.52993l1.59993,0.62998l-0.71997,1.62993l-0.94996,0.17999l0.18999,1.66993l-0.23999,0.90996l0.69997,1.87992l0.02,3.14988l1.05996,2.21991l0.77996,0.29999l2.28991,2.36991l1.56994,0.49998l1.22995,1.02995l0.69997,1.31995"/></g></g></svg>