<?xml version="1.0" encoding="UTF-8"?>
<svg width="480" height="360" version="1.1" viewBox="0 0 480 360" xmlns="http://www.w3.org/2000/svg">
 <g fill="#fff" aria-label="相模湾・三浦半島">
  <path d="m243.53 180.82q-0.84961 2.5293-2.2363 4.7852l-1.1035-2.168q2.1875-2.998 3.1543-6.8555h-2.7539v-1.9238h2.9395v-4.1602h2.041v4.1602h2.4414v1.9238h-2.4414v1.6797q1.582 1.1426 2.959 2.6172l-1.123 1.8652q-0.77148-1.0547-1.8359-2.2168v8.9746h-2.041zm14.883-9.3652v18.047h-2.041v-1.6016h-5.1953v1.6016h-2.0215v-18.047zm-7.2363 1.8359v3.0273h5.1953v-3.0273zm0 4.8047v2.9785h5.1953v-2.9785zm0 4.7168v3.2324h5.1953v-3.2324z"/>
  <path d="m263.09 180.7q-0.91796 2.6758-2.0801 4.7168l-0.82032-2.2949q1.8262-3.0469 2.7148-6.6992h-2.4121v-1.9043h2.5976v-4.0234h2.002v4.0234h1.7969v1.9043h-1.7969v1.6699q1.2598 1.0352 2.4512 2.373l-1.0156 1.7383q-0.76171-1.123-1.4355-1.9336v9.2285h-2.002zm13.115-6.0058h2.1484v6.8848h-4.4238v1.1328h5.6055v1.7188h-5.1172q2.0117 2.5488 5.3125 3.3008l-1.0644 1.7969q-1.9434-0.50781-3.5742-1.8164-1.1426-0.9082-1.9629-2.2363-0.76172 1.5625-2.0801 2.5293-1.3965 1.0156-3.7598 1.6211l-1.2012-1.5918q2.4121-0.54688 3.7012-1.3574 1.2402-0.78125 1.9434-2.2461h-5.2832v-1.7188h5.4785v-1.1328h-4.2383v-6.8848h2.0801v-1.1035h-2.959v-1.6602h2.959v-1.4355h1.8945v1.4355h2.5879v-1.4355h1.9531v1.4355h3.0078v1.6602h-3.0078zm-1.9531 0v-1.1035h-2.5879v1.1035zm2.1191 1.4648h-6.7188v1.2598h6.7188zm-6.7188 2.6562v1.2988h6.7188v-1.2988z"/>
  <path d="m295.09 173.8v3.7793q0 0.64454-0.27344 0.94727-0.32226 0.35156-1.4258 0.35156-1.0547 0-1.7285-0.11718l-0.25391-1.6211q0.77149 0.15625 1.2988 0.15625 0.2832 0 0.36133-0.13672 0.0586-0.11718 0.0586-0.38086v-2.9785h-1.7383q-0.0781 2.0605-0.54687 3.1641-0.51758 1.2012-2.1387 2.1973l-1.3965-1.2402q1.4648-0.76172 1.8848-1.9629 0.25391-0.75195 0.3125-2.1582h-3.8574v-1.6602h5.5566v-1.6406h2.1484v1.6406h6.1328v1.6602zm3.0176 5.5371v3.9648h-9.6387q-0.0781 0.53711-0.18555 1.0742h10.664q-0.24414 2.6856-0.67382 3.6816-0.625 1.4453-2.9297 1.4453-1.9141 0-4.1113-0.16601l-0.36133-1.7774q2.0996 0.22461 3.7598 0.22461 0.89844 0 1.1816-0.20508 0.43945-0.32226 0.68359-1.6797h-8.5938q-0.10742 0.40039-0.37109 1.2012l-2.0996-0.41992q0.74219-2.2266 1.1133-4.8145h9.4238v-1.0449h-10v-1.4844zm-14.365-4.3164q-1.084-1.5039-2.7734-2.9785l1.4551-1.3867q1.5332 1.123 2.8809 2.8613zm-0.59571 5.0391q-1.5039-1.9043-2.9199-3.1055l1.4648-1.416q1.4648 1.123 3.0176 2.9004zm-2.5195 7.9004q1.7188-2.6758 3.2617-6.8652l1.6016 1.1816q-1.2793 3.877-3.0664 7.2461zm17.402-9.3652q-1.2793-2.0703-2.6856-3.5742l1.4844-0.95703q1.7188 1.5625 2.7832 3.418zm-13.662-1.1719q1.4258-1.1719 2.3438-3.1055l1.7773 0.66406q-0.95703 2.1777-2.6465 3.6328z"/>
  <path d="m305.02 177.79q0.76172 0 1.377 0.50781 0.81054 0.66406 0.81054 1.6992 0 0.63477-0.36133 1.1816-0.65429 1.0156-1.8555 1.0156-0.52735 0-1.0059-0.25391-0.38086-0.19531-0.64453-0.51758-0.53711-0.63476-0.53711-1.4453 0-1.1328 0.94726-1.7969 0.56641-0.39062 1.2695-0.39062z"/>
  <path d="m312.06 172.3h15.859v2.0801h-15.859zm1.1035 6.4453h13.672v2.0215h-13.672zm-2.3633 6.9727h18.398v2.0801h-18.398z"/>
  <path d="m343.14 174.87v1.5039h5.3613v11.504q0 0.87891-0.44922 1.2207-0.38086 0.28321-1.3476 0.28321-1.1133 0-2.002-0.12696l-0.32226-1.9043q0.99609 0.14648 1.6406 0.14648 0.36133 0 0.43946-0.18555 0.0586-0.13672 0.0586-0.38086v-2.2559h-3.418v4.3164h-1.9434v-4.3164h-3.0762v4.8242h-1.9824v-13.125h5.0195v-1.5039h-5.8594v-1.8164h5.8594v-2.5586h2.0215v2.5586h3.3496q-1.0449-1.0449-2.168-1.7969l1.5723-0.87891q1.2109 0.70312 2.5098 1.9336l-1.1914 0.74219h2.2852v1.8164zm-1.9824 3.1641h-3.0762v1.6406h3.0762zm1.9434 0v1.6406h3.418v-1.6406zm-1.9434 3.2227h-3.0762v1.8555h3.0762zm1.9434 0v1.8555h3.418v-1.8555zm-9.5215-6.1621q-1.1133-1.6406-2.8223-3.1445l1.5234-1.4355q1.6992 1.4551 2.8613 2.9785zm-0.49805 5.0195q-1.3574-1.8262-2.8027-3.2227l1.4356-1.4356q1.582 1.3184 2.9688 3.1152zm-2.5391 7.9199q1.5527-2.6172 2.8809-6.8359l1.8359 1.0742q-1.1523 4.0723-2.8418 7.2461z"/>
  <path d="m358.84 177.32v-6.8164h2.1973v6.8164h7.4414v1.9434h-7.4414v2.7734h8.4668v1.9824h-8.4668v5.4883h-2.1973v-5.4883h-8.3398v-1.9824h8.3398v-2.7734h-7.3047v-1.9434zm-4.2773-0.63476q-1.2109-2.6856-2.5391-4.4629l2.041-0.9961q1.5039 2.0703 2.6367 4.4727zm8.5742-0.76172q1.543-2.3438 2.4609-4.9219l2.2852 0.89844q-1.1035 2.4219-2.7832 4.8633z"/>
  <path d="m377.74 171.98q0.36133-0.86914 0.58594-1.6602l2.3828 0.32226q-0.34179 0.81055-0.625 1.3379h6.5039v6.3672h-11.797v0.98633h14.697v1.582h-14.697v0.99609h14.014q-0.12696 4.4727-0.56641 6.0352-0.2832 0.99609-1.0644 1.3184-0.55664 0.23437-1.6992 0.23437-1.1719 0-2.1875-0.14648l-0.39063-1.6406h-9.7852v1.084h-2.0996v-4.6973h2.0996v2.0117h3.3594v-2.6367h-3.8379v-11.494zm4.1504 14.131v-2.0117h2.0215v3.3984q0.81054 0.0781 1.3476 0.0781 0.66407 0 0.83008-0.38085 0.32227-0.7129 0.50781-3.7207h-8.0273v2.6367zm-7.0996-12.627v0.96679h9.6387v-0.96679zm0 2.3633v1.0644h9.6387v-1.0644z"/>
 </g>
</svg>
