<svg version="1.1" xmlns="http://www.w3.org/2000/svg" xmlns:xlink="http://www.w3.org/1999/xlink" width="208" height="32" viewBox="0,0,208,32"><g transform="translate(-240,-164)"><g data-paper-data="{&quot;isPaintingLayer&quot;:true}" fill-rule="nonzero" stroke="none" stroke-linecap="butt" stroke-linejoin="miter" stroke-miterlimit="10" stroke-dasharray="" stroke-dashoffset="0" style="mix-blend-mode: normal"><path d="M240,196v-32h208v32z" fill="none" stroke-width="0"/><path d="M251.58,174.14v-3.6426h2.0996v3.6426h5.293v8.8379h-5.293v6.5234h-2.0996v-6.5234h-5.1856v-8.8379zM248.4159,176.0834v4.9707h3.1641v-4.9707zM256.8925,181.0541v-4.9707h-3.2129v4.9707zM244.3925,175.2729c-0.79427,-1.1068 -1.8457,-2.16473 -3.1543,-3.1738l1.4551,-1.4844c1.30207,0.918 2.40233,1.94663 3.3008,3.0859zM243.75774,180.2924c-1.1328,-1.31513 -2.23307,-2.3926 -3.3008,-3.2324l1.5039,-1.5039c1.13933,0.8008 2.26563,1.83597 3.3789,3.1055zM240.72064,187.8608c1.25,-1.77733 2.40233,-3.99087 3.457,-6.6406l1.7383,1.3379c-0.89193,2.4414 -1.97917,4.73957 -3.2617,6.8945z" fill="#ffffff" stroke-width="1"/><path d="M262.95,177.73c-0.6836,-1.0872 -1.53973,-2.18093 -2.5684,-3.2812l1.1426,-1.416c0.15625,0.16927 0.29622,0.32227 0.41992,0.45898l0.0977,0.10743c0.61849,-0.95053 1.17839,-2.02477 1.6797,-3.2227l1.7188,0.87891c-0.65104,1.2044 -1.44204,2.40557 -2.373,3.6035c0.35156,0.46224 0.68033,0.93097 0.98632,1.4062c0.96353,-1.36067 1.76757,-2.5651 2.4121,-3.6133l1.4941,1.0547c-1.24347,1.88153 -2.6367,3.68167 -4.1797,5.4004c0.98307,-0.0586 1.77407,-0.1237 2.373,-0.19531c-0.14974,-0.51433 -0.3125,-0.99609 -0.48828,-1.4453l1.4746,-0.53711c0.49479,1.25 0.85613,2.48373 1.084,3.7012v-1.6992h4.3359v-1.1035h-3.8184v-6.4746h9.5606v6.4746h-3.9844v1.1035h4.5508v6.6211h-4.5508v1.2402c0,0.34505 0.09765,0.55013 0.29296,0.61524c0.18881,0.06513 0.67057,0.0977 1.4453,0.0977c0.91147,0 1.47137,-0.0944 1.6797,-0.28321c0.15625,-0.13672 0.23764,-0.66082 0.24415,-1.5723l1.8066,0.51757c-0.06513,1.28253 -0.2279,2.09633 -0.48829,2.4414c-0.22135,0.28646 -0.61849,0.47526 -1.1914,0.56641c-0.58594,0.09115 -1.34114,0.13672 -2.2656,0.13672c-1.4844,0 -2.40563,-0.11719 -2.7637,-0.35157c-0.34505,-0.22135 -0.51758,-0.68359 -0.51758,-1.3867v-2.0215h-4.3359v-4.6875l-1.5039,0.64453c-0.06513,-0.41667 -0.13349,-0.79427 -0.20508,-1.1328c-0.13021,0.01953 -0.38086,0.0586 -0.75195,0.11719c-0.19531,0.03253 -0.34831,0.05533 -0.45899,0.0684v8.9355h-1.9043v-8.6816c-0.07161,0.00667 -0.17578,0.01643 -0.3125,0.0293c-0.59896,0.07161 -1.37369,0.14648 -2.3242,0.22461l-0.38086,-1.7774c0.26041,-0.013 0.52408,-0.02603 0.79101,-0.0391l0.58594,-0.0293c0.45573,-0.54688 0.85287,-1.04495 1.1914,-1.4942zM272.5594,172.7495h-2.0801v1.1816h2.0801zM274.3172,172.7495v1.1816h2.168v-1.1816zM272.5594,175.23h-2.0801v1.2402h2.0801zM274.3172,175.23v1.2402h2.168v-1.2402zM272.5594,180.2691h-2.4609v1.2402h2.4609zM274.3172,180.2691v1.2402h2.6465v-1.2402zM272.5594,182.8277h-2.4609v1.3086h2.4609zM274.3172,182.8277v1.3086h2.6465v-1.3086zM260.3032,187.0757c0.38412,-1.27607 0.6185,-2.9753 0.70313,-5.0977l1.7773,0.25391c-0.0586,2.29167 -0.29297,4.1927 -0.70312,5.7031zM266.4067,186.67531c-0.20833,-1.63413 -0.46224,-3.11527 -0.76172,-4.4434l1.4551,-0.41992c0.37761,1.26953 0.68685,2.64323 0.92773,4.1211z" fill="#ffffff" stroke-width="1"/><path d="M291.78,176.02c2.1354,3.112 4.7591,5.60223 7.8711,7.4707l-1.3867,1.8848c-3.1836,-2.33073 -5.60547,-4.85027 -7.2656,-7.5586v5.957h4.0039v1.9238h-3.9648v3.8086h-2.1973v-3.8086h-3.7402v-1.9238h3.7793v-5.8594c-1.60153,2.96227 -3.94853,5.60873 -7.041,7.9394l-1.416,-1.7578c3.14453,-2.08333 5.6901,-4.7754 7.6367,-8.0762h-7.0801v-2.002h7.8418v-3.5156h2.2363v3.5156h7.9688v2.002z" fill="#ffffff" stroke-width="1"/><path d="M307.74,171.98c0.24089,-0.57943 0.4362,-1.13283 0.58594,-1.6602l2.3828,0.32226c-0.22787,0.54037 -0.4362,0.98633 -0.625,1.3379h6.5039v6.3672h-11.797v0.98633h14.697v1.582h-14.697v0.99609h14.014c-0.08463,2.9818 -0.27343,4.99353 -0.5664,6.0352c-0.18881,0.66406 -0.54364,1.10353 -1.0645,1.3184c-0.37109,0.15625 -0.93749,0.23437 -1.6992,0.23437c-0.78127,0 -1.51043,-0.04883 -2.1875,-0.14648l-0.39063,-1.6406h-9.7852v1.084h-2.0996v-4.6973h2.0996v2.0117h3.3594v-2.6367h-3.8379v-11.494zM311.8904,186.111v-2.0117h2.0215v3.3984c0.54036,0.05207 0.98956,0.0781 1.3476,0.0781c0.44271,0 0.7194,-0.12695 0.83008,-0.38085c0.21485,-0.47527 0.38412,-1.7155 0.50781,-3.7207h-8.0273v2.6367zM304.7908,173.484v0.96679h9.6387v-0.96679zM304.7908,175.8473v1.0644h9.6387v-1.0644z" fill="#ffffff" stroke-width="1"/><path d="M325.52,185.06c0.52083,0.60547 1.10677,1.05471 1.7578,1.3477c1.06773,0.48177 2.46747,0.72266 4.1992,0.72266h8.3203c-0.23437,0.44271 -0.45247,1.07747 -0.6543,1.9043h-7.7637c-2.2396,0 -3.9551,-0.35157 -5.1465,-1.0547c-0.48828,-0.29297 -1.02538,-0.77151 -1.6113,-1.4356c-0.0456,0.05207 -0.10094,0.11717 -0.16602,0.19531c-0.957,1.1328 -1.90753,2.05727 -2.8516,2.7734l-1.1816,-2.002c1.03513,-0.61849 2.03447,-1.31836 2.998,-2.0996v-4.8242h-2.8418v-1.9238h4.9414zM328.0591,172.101l0.51758,-0.0391c3.01433,-0.20833 5.72267,-0.6543 8.125,-1.3379l1.5234,1.7188c-2.52607,0.66406 -5.22137,1.11326 -8.0859,1.3476v2.5293h9.043v1.9043h-3.2812v7.959h-2.1582v-7.959h-3.6035c-0.03253,2.08987 -0.18878,3.75327 -0.46875,4.9902c-0.25391,1.13933 -0.67057,2.16147 -1.25,3.0664l-1.7969,-1.3574c0.64453,-1.0026 1.05793,-2.2461 1.2402,-3.7305c0.13021,-1.02213 0.19531,-2.4121 0.19531,-4.1699zM324.4458,175.9194c-0.99607,-1.40627 -2.0703,-2.66603 -3.2227,-3.7793l1.6016,-1.2793c1.1198,0.93747 2.2461,2.12887 3.3789,3.5742z" fill="#ffffff" stroke-width="1"/><path d="M357.76,175.8c0,0.30599 -0.0293,1.75783 -0.0879,4.3555h1.8652v1.7578h-1.9043c-0.01953,0.85287 -0.06185,1.81967 -0.12695,2.9004h1.6504v1.7188h-1.7774c-0.07813,0.944 -0.18555,1.569 -0.32226,1.875c-0.30599,0.7292 -1.04819,1.0938 -2.2266,1.0938c-0.7552,0 -1.4518,-0.05534 -2.0898,-0.16601l-0.36133,-1.7383c0.918,0.13021 1.62113,0.19531 2.1094,0.19531c0.39713,0 0.63476,-0.13997 0.71289,-0.41992c0.03907,-0.13672 0.07487,-0.41667 0.10742,-0.83985h-6.9531c-0.00667,0.05207 -0.01643,0.10741 -0.0293,0.16602c-0.0586,0.34505 -0.11394,0.67057 -0.16602,0.97656l-2.0215,-0.19531c0.39713,-2.35027 0.66406,-4.1276 0.80078,-5.332l0.0293,-0.23438h-1.9531v-1.7578h2.1582c0.18229,-1.57553 0.33854,-3.02737 0.46875,-4.3555zM351.5881,177.4992h-2.1387c-0.01953,0.33203 -0.07813,1.0319 -0.17578,2.0996l-0.0586,0.55664h2.168l0.0293,-0.27344c0.013,-0.1888 0.03253,-0.45247 0.0586,-0.79101c0.06513,-0.91147 0.1042,-1.44207 0.11719,-1.5918zM353.5119,177.4992c-0.03253,0.77473 -0.08136,1.63087 -0.14648,2.5684v0.0879h2.2949c0.02607,-0.89193 0.04887,-1.77733 0.0684,-2.6562zM351.2267,181.9133h-2.1973c-0.09765,0.79427 -0.20182,1.57877 -0.3125,2.3535l-0.0781,0.54687h2.2852c0.15625,-1.41273 0.25717,-2.37953 0.30274,-2.9004zM353.2287,181.9133c-0.01953,0.26042 -0.0586,0.69012 -0.11719,1.2891l-0.15625,1.6113h2.4902c0.03253,-0.63151 0.05857,-1.10677 0.0781,-1.4258c0.03907,-0.6966 0.0651,-1.18813 0.0781,-1.4746zM349.4006,172.2746h9.4336v1.8164h-10.244c-0.52735,1.0742 -1.19791,2.09633 -2.0117,3.0664l-1.3965,-1.5234c1.28253,-1.50393 2.194,-3.2357 2.7344,-5.1953l2.0801,0.21485c-0.23437,0.67707 -0.43294,1.21743 -0.5957,1.6211zM344.0197,175.1164c-0.8008,-1.10027 -1.7741,-2.13217 -2.9199,-3.0957l1.4746,-1.4258c1.0612,0.78127 2.07033,1.7676 3.0274,2.959zM343.31657,180.2726c-0.9896,-1.26953 -1.98893,-2.334 -2.998,-3.1934l1.5234,-1.4648c1.1328,0.89193 2.15167,1.90757 3.0566,3.0469zM340.66037,187.9386c1.1328,-1.569 2.20703,-3.63607 3.2227,-6.2012l1.7383,1.2402c-0.84633,2.3698 -1.93357,4.54427 -3.2617,6.5234z" fill="#ffffff" stroke-width="1"/></g></g></svg>