<svg version="1.1" xmlns="http://www.w3.org/2000/svg" xmlns:xlink="http://www.w3.org/1999/xlink" width="257.10437" height="250.67142" viewBox="0,0,257.10437,250.67142"><g transform="translate(8.47724,36.30584)"><g data-paper-data="{&quot;isPaintingLayer&quot;:true}" fill="none" fill-rule="evenodd" stroke="#d645ff" stroke-width="72" stroke-linecap="round" stroke-linejoin="round" stroke-miterlimit="4" stroke-dasharray="" stroke-dashoffset="0" style="mix-blend-mode: normal"><g><path d="M27.52276,178.36558v0"/><path d="M31.26716,172.91645l2.13766,0.47992l-1.01184,1.51976l-1.12582,-1.99968"/><path d="M212.62713,107.81687l-3.97936,1.56975l0.57991,-2.36962l-1.2198,-1.8797l-3.20949,-1.63974l0.29995,-4.82923l2.18965,-0.16997l1.78971,-2.34962l3.39946,-2.94953l-0.05999,-3.32947l-0.85986,0.22996l-1.80971,-4.86922l-3.48944,-0.17997l-1.92969,0.98984l-4.12934,-0.80987l-5.37914,3.91937l-3.87238,0.94985l-0.93885,-1.09982l-3.44045,0.46992l0.92885,1.8697l-4.08035,5.25916l-1.96868,4.29931l-2.42461,2.17965l-3.25348,0.31995l-0.12498,2.40961l-3.38946,3.64942l-4.00136,0.88986l-2.5186,1.63974l-0.27896,-1.32979l3.1065,-1.69973l2.15066,-2.03967l0.16997,-1.74972l1.93769,-3.45945l0.71089,0.17997l0.36494,-3.61942l-1.72372,0.80987l-1.18781,-1.66973l2.17665,-0.25996l0.45193,-1.42977l2.99752,0.80987l0.41293,-2.5296l1.82771,-2.05967l-0.47792,-1.31979l-2.00068,3.46944l-2.58559,-0.36994l1.2618,-1.2698l-3.49544,-3.1095l0.40394,-2.05967l-3.45945,-2.70957l1.05583,-2.24964l-3.1095,-0.07999l-0.83587,1.62974l-1.92669,-3.26948l-3.47744,-2.36962l-0.92885,-3.70941l-2.21165,-5.53911l-1.42277,0.10998l-1.29579,-2.65957l0.81387,-4.16933l1.8837,0.08999l-0.18397,-6.55895l0.91785,0.18997l1.37078,-3.81939l0.43093,-3.23948l3.30247,1.32979l2.58859,2.76956l-0.91785,2.17965l2.32463,-1.60974l0.83187,2.02968l-1.2678,0.69989l-1.34279,3.60942l1.01784,2.00968l2.14066,-3.78939l2.23564,1.97968l1.45177,-0.30995l2.41061,3.98936l-1.38878,0.57991l0.52492,5.18917l-1.72772,0.66989l-0.07699,-4.05935l-1.32879,0.88986l-0.16297,4.64926l2.30463,-0.01l0.38994,1.79971l-2.24564,2.33963l5.58211,3.65941l2.20065,-0.18997l0.43793,-1.99968l2.68957,-2.26964l3.68741,2.67957l1.59275,-0.44993l0.78887,1.73972l1.51476,-0.39994l0.82387,1.57975l2.37862,-0.43993l-1.54175,-2.24964l-2.67757,-1.97968l0.84187,-1.70973l-2.07767,-0.71988l0.34394,-1.03983l-2.27264,-2.39962l-0.28195,-5.17917l2.24564,-2.09966l-0.50092,-3.29947l-2.17465,-2.27964l-1.97368,-0.73988l-1.13882,-2.07967l-1.79871,-1.02984l-2.03267,0.35994l-3.21049,3.07951l1.50676,-2.71956l-3.55843,-1.04983l-1.40178,-4.13934l0.99884,-3.41945l-1.28479,-1.43977l-3.05351,-0.44993l-2.85254,2.4896l-0.22396,-4.50928l-2.4846,0.49992l1.2808,5.05919l-3.7634,0.73988l-0.76888,1.2198l-0.84586,-2.42961l4.06135,-1.81971l-2.02568,-1.98968l0.31895,-1.10982l-3.08751,-1.29979l0.48592,-1.40977l-1.53575,-2.53959l-1.43977,2.01968l-1.39278,-2.11966l-5.21617,-1.2498l0.6069,-1.09982l0.33295,-4.66925l2.00768,-0.6499l-0.59191,-2.21964l1.20681,-0.86986l-3.32247,-3.26948l1.2628,-0.5999l0.33495,-6.05903l2.64258,1.39978l1.40478,-0.90985l2.90753,1.36978l2.80255,-2.41961l0.22096,3.84938l1.92069,-0.98984l0.86986,1.77972l3.97536,-2.45961l2.81055,1.36978l1.51076,-1.91969l0.21397,3.7394"/><path d="M55.32431,98.8683l0.51092,1.94969l-1.72772,3.05951l-0.70189,-2.08967l1.91869,-2.91953"/><path d="M91.15157,85.65042l1.43977,2.4896l-0.30895,2.32963l-1.78871,1.02984l-2.36562,-1.03983l1.65074,-1.16981l1.37278,-3.63942"/><path d="M72.74052,84.81055l-0.47392,2.53959l2.21265,1.95969l-1.16881,1.13982l3.36846,-0.26996l-0.73688,5.19917l1.2588,2.30963l4.32931,4.23932l-0.36294,1.55975l-2.23664,-0.32995l-5.22616,0.81987l-0.69489,-1.97968l-4.13934,1.03983l-0.71589,3.1395l2.91353,1.78971l0.12398,1.37978l-2.04267,2.02968l-1.99868,-0.58991l-1.61174,-3.26948l-4.83723,0.52992l-2.31163,-0.67989l-0.84686,2.06967l-2.58259,-1.66973l-3.27248,-0.91985l1.67973,-3.90937l2.39862,4.29931l1.67773,-0.40993l0.6039,-2.16965l-2.46161,0.6499l0.28995,-1.71972l3.22348,-1.46976l-2.31763,-3.37946l-0.15198,-4.49928l0.54791,-2.42961l-1.28479,-2.60958l2.32863,-2.62958l3.37146,2.00968l0.78887,2.53959l2.08467,-1.2698l1.8557,0.13998l1.05083,-1.76972l1.01384,1.05983l4.3533,-4.46928"/><path d="M78.25564,79.26144l3.66641,2.74956l0.18397,3.94937l-1.81171,2.63958l-1.82871,0.32995l-2.66157,-1.69973l-0.16297,-7.20885l2.32263,0.38994l0.50692,3.19949l1.01684,1.2498l0.21397,-2.39962l-1.2378,-1.01984l-0.20797,-2.17965"/><path d="M86.0154,74.5022l1.67873,1.8597l-0.67789,6.45897l-0.98884,1.37978l-0.66089,-3.03951l-1.63674,-1.70973l-3.69641,-1.16981l0.6319,-2.84954l2.82355,0.80987l1.61674,3.7194l-0.13698,-2.68957l1.16681,1.40977l0.6399,-2.74956l-0.75988,-1.42977"/><path d="M90.85362,68.75312l2.09966,0.83987l2.23164,3.66941l-0.98884,4.72924l-2.17865,-1.47976l-3.56443,-0.51992l0.90086,-0.72988l-1.39278,-2.4896l3.16449,0.27996l-1.49876,-2.60958l1.2268,-1.68973"/><path d="M88.16505,68.81311l0.33395,1.65973l-1.93369,1.51976l-1.68973,-1.63974l2.61658,0.41993l0.67289,-1.95969"/><path d="M127.16381,58.2548l0.81687,2.15965l-1.67373,0.58991l-0.24096,-2.05967l1.09782,-0.68989"/><path d="M148.03447,57.13498l2.28064,0.42993l-0.10798,1.66973l-1.70273,0.18997l-0.46992,-2.28963"/><path d="M116.5845,58.00484l1.37378,0.39994l-1.02984,2.70957l-2.85854,-0.14998l2.5146,-2.95953"/><path d="M152.72472,52.97565l2.58659,1.72972l-2.61658,3.40945l-2.09766,-0.66989l0.42993,-2.23964l1.69773,-2.22964"/><path d="M168.66717,43.64714l2.58159,0.71988l-0.75488,3.97936l0.67689,2.57959l-2.12666,1.16981l-0.90586,2.22964l-2.09067,-0.91985l-1.32079,-4.57927l1.77372,0.18997l0.04699,-3.20949l1.37778,1.37978l-0.28995,-2.08967l1.03183,-1.44977"/><path d="M146.23676,42.6573l0.6059,1.83971l-1.35778,0.6299l-2.94653,-0.86986l3.69841,-1.59974"/><path d="M103.15465,41.16754l0.49992,0.76988l-1.41877,4.22932l1.67873,1.76972l-0.91185,4.29931l-1.98568,3.85938l0.49292,4.59926l-0.80387,2.14966l3.19149,-0.19997l1.50076,-2.15965l4.19533,-0.51992l0.47192,4.21932l-3.36846,1.81971l-0.6449,2.10966l-3.05351,-0.33995l-0.29895,1.8797l-2.38162,2.55959l1.55875,5.20917l-3.41345,-0.27996l-0.20097,5.38914l-2.08167,-0.6099l0.41693,-5.44913l0.81087,-1.31979l-0.46293,-5.0092l-1.49476,-0.42993l-0.19197,-2.43961l-1.30479,1.47976l-1.61374,-1.49976l-0.71689,-2.4996l5.46812,-1.46976l-1.04683,-1.61974l0.41593,-5.0192l2.05167,-1.09982l0.36594,2.91953l1.82671,-0.74988l-0.95085,-1.02984l0.66289,-4.94921l1.59774,-0.51992l0.6389,-2.70957l-1.32679,-2.04967l1.82771,-5.28915"/><path d="M150.92501,37.6281l-0.03999,3.01952l-1.10482,-1.64974l1.14482,-1.36978"/><path d="M104.1305,35.25848l2.07567,2.53959l-1.21581,0.84986l0.37794,2.26964l-1.08483,0.42993l0.018,-2.98952l-0.95485,-2.40961l0.78387,-0.68989"/><path d="M97.54755,34.5086l-0.12198,1.18981l2.4696,0.17997l0.85786,2.67957l-2.07067,-0.92985l-1.8507,1.31979l-2.13866,-2.16965l2.85454,-2.26964"/><path d="M104.7194,24.67018l2.81755,3.60942l-2.84954,1.51976l-0.54091,1.62974l-2.28064,-0.35994l-2.99952,-2.67957l2.21065,-1.81971l2.90753,-0.28995l0.73488,-1.60974"/><path d="M171.54071,11.21233l2.27564,0.46992l0.89586,2.40961l3.1035,1.55975l-1.74672,1.44977l-2.09067,0.21996l-0.93585,1.83971l-0.76788,-2.14966l0.92285,-3.92937l-1.65673,-1.8697"/><path d="M147.30259,11.83223l1.17481,6.52896l-2.03167,0.72988l-0.91985,1.8897l-2.29263,0.31995l1.00284,3.33947l-1.92569,0.07999l0.76688,1.43977l-1.67773,0.85986l0.58391,2.77956l-3.78239,5.44913l-1.15582,0.06999l-1.79671,2.65957l-5.88406,2.65957l-2.66257,-1.62974l1.40478,-2.5096l1.04383,2.23964l2.5056,0.35994l0.86186,-1.93969l-1.35878,0.09998l-1.36878,-2.81955l1.52576,-2.06967l1.37078,-0.26996l1.57475,1.65973l0.30895,-2.28963l-2.15665,-1.10982l0.12798,-2.89954l1.96469,-0.14998l-0.25396,-1.2598l2.28763,-0.74988l-1.43777,-2.07967l1.10882,-1.92969l-0.68389,-1.79971l6.51296,-1.39978l0.56791,-2.73956l1.02584,-0.03l-0.13198,3.15949l3.56943,-3.26948l-0.70389,-0.95985l-2.30963,0.29995l0.21996,-2.38962l3.02452,-0.32995"/><path d="M135.30851,8.09283l-0.6219,3.7594l0.83787,1.54975l-0.6009,2.59958l0.43293,2.37962l-1.99968,0.45993l-1.76672,-1.2198l0.97184,-1.17981l1.45177,-4.48928l-0.08299,-2.87954l1.37778,-0.97984"/><path d="M167.33938,4.5334l1.63074,1.20981l-0.23396,2.04967l2.05467,2.07967l-2.60258,-0.92985l-0.6219,2.21964l-2.59558,1.04983l-1.2568,-0.97984l2.41661,-1.65973l-0.36594,-1.11982l1.92569,-1.96968l-0.35094,-1.94969"/><path d="M147.49156,-0.30583l-0.25896,2.57959l2.96653,-0.76988l-0.76688,1.67973l-2.20565,1.46976l-2.4866,-1.77972l-1.07783,1.49976l-2.09866,0.04999l3.05451,-3.36946l2.87354,-1.35978"/></g></g></g></svg>