<?xml version="1.0" encoding="UTF-8"?>
<svg width="480" height="360" version="1.1" viewBox="0 0 480 360" xmlns="http://www.w3.org/2000/svg">
 <g dominant-baseline="central" fill="#fff" aria-label="能登半島沖">
  <path d="m241.95 174.96q1.2207-2.1387 2.041-4.541l2.1973 0.45899q-0.94727 2.207-2.0996 4.0234 0.5957-0.0293 1.8359-0.0879 0.10743 0 1.4844-0.0879l-0.0586-0.0977q-0.43946-0.75196-1.0156-1.5918l1.6602-0.82031q1.709 2.2168 2.6953 4.2383l-1.875 1.0254q-0.25391-0.54688-0.58594-1.2305-3.0859 0.38086-7.5391 0.58594l-0.49804-1.8359q0.38086 0 1.7578-0.0391zm7.3438 3.0957v9.5606q0 1.0059-0.47851 1.3867-0.42969 0.34179-1.4746 0.34179-1.0742 0-1.9629-0.12695l-0.32227-1.8457q1.2109 0.14648 1.7774 0.14648 0.36133 0 0.42968-0.14648 0.0488-0.11719 0.0488-0.36133v-1.7774h-3.8184v4.2676h-2.0215v-11.445zm-5.8008 1.6016v1.2793h3.8184v-1.2793zm0 2.7441v1.3672h3.8184v-1.3672zm9.5215-8.9453q2.2754-0.83008 4.3359-2.041l1.4648 1.4844q-2.959 1.5625-5.8008 2.3438v1.6504q0 0.48828 0.2832 0.57617 0.39063 0.12696 1.9238 0.12696 1.3184 0 1.6406-0.29297 0.25391-0.23438 0.33204-1.7676 0.01-0.29297 0.0195-0.45899l2.0605 0.49805q-0.0781 2.6367-0.5957 3.2129-0.33203 0.3711-1.1035 0.51758-0.98632 0.19531-2.8808 0.19531-2.373 0-3.0957-0.35156-0.68359-0.3418-0.68359-1.4746v-7.1777h2.0996zm0 9.5117q2.2852-0.76172 4.6777-2.1094l1.3672 1.6211q-3.1738 1.5918-6.0449 2.3047v1.748q0 0.63477 0.41015 0.75196 0.3125 0.0977 1.6113 0.0977 1.8164 0 2.0703-0.3125 0.27344-0.33203 0.35157-2.5098l2.0801 0.55664q-0.0195 2.9004-0.87891 3.6133-0.75195 0.625-3.7988 0.625-2.4121 0-3.1934-0.39063-0.75195-0.36132-0.75195-1.4648v-7.3633h2.0996z" dominant-baseline="central"/>
  <path d="m274.79 174.72q1.2402-0.89844 2.5-2.3438l1.6016 1.0644q-1.0938 1.1621-2.5195 2.1582 1.3379 0.66407 3.3203 1.3672l-1.0645 1.7188q-2.5488-0.98633-4.4531-2.1289v1.2109h-8.3984v-0.83984q-1.9531 1.25-4.668 2.2852l-1.0156-1.6699q2.5976-0.83984 4.2969-1.8555l-0.0977-0.0781q-1.2988-1.0547-2.6758-1.8457l1.4941-1.2988q1.7871 1.1426 2.8906 2.1094 1.1426-0.95703 1.8848-1.9336h-4.3555v-1.6992h7.2461q0.81055 1.0938 1.6797 1.9531l0.20508-0.17578q1.0644-0.91797 1.9726-1.9726l1.5625 1.1328q-0.99609 0.97656-2.4902 2.0898 0.49804 0.3711 1.084 0.75196zm-7.959 1.4648h6.748q-2.1973-1.4356-3.623-3.1836-1.1328 1.5234-2.2754 2.5-0.36133 0.3125-0.84961 0.68359zm8.2422 8.3984q-0.44921 1.1719-1.2793 2.6953h5.5762v1.7383h-18.74v-1.7383h5.2246q-0.67382-1.6602-1.2109-2.6953h-1.5332v-5.3223h13.74v5.3223zm-2.3242 0h-5.7812q0.5957 1.2891 1.0059 2.5684l0.0293 0.12695h3.6426l0.0684-0.14648q0.70312-1.5137 1.0352-2.5488zm-7.4414-3.7793v2.2559h9.3262v-2.2559z" dominant-baseline="central"/>
  <path d="m288.84 177.31v-6.8164h2.1973v6.8164h7.4414v1.9434h-7.4414v2.7734h8.4668v1.9824h-8.4668v5.4883h-2.1973v-5.4883h-8.3398v-1.9824h8.3398v-2.7734h-7.3047v-1.9434zm-4.2773-0.63476q-1.2109-2.6856-2.5391-4.4629l2.041-0.9961q1.5039 2.0703 2.6367 4.4727zm8.5742-0.76172q1.543-2.3438 2.4609-4.9219l2.2852 0.89844q-1.1035 2.4219-2.7832 4.8633z" dominant-baseline="central"/>
  <path d="m307.74 171.98q0.36133-0.86914 0.58594-1.6602l2.3828 0.32226q-0.3418 0.81055-0.625 1.3379h6.5039v6.3672h-11.797v0.98633h14.697v1.582h-14.697v0.99609h14.014q-0.12695 4.4727-0.5664 6.0352-0.28321 0.99609-1.0645 1.3184-0.55664 0.23437-1.6992 0.23437-1.1719 0-2.1875-0.14648l-0.39063-1.6406h-9.7852v1.084h-2.0996v-4.6973h2.0996v2.0117h3.3594v-2.6367h-3.8379v-11.494zm4.1504 14.131v-2.0117h2.0215v3.3984q0.81054 0.0781 1.3476 0.0781 0.66406 0 0.83008-0.38085 0.32227-0.7129 0.50781-3.7207h-8.0273v2.6367zm-7.0996-12.627v0.96679h9.6387v-0.96679zm0 2.3633v1.0644h9.6387v-1.0644z" dominant-baseline="central"/>
  <path d="m331.58 174.14v-3.6426h2.0996v3.6426h5.293v8.8379h-5.293v6.5234h-2.0996v-6.5234h-5.1856v-8.8379zm-3.1641 1.9434v4.9707h3.1641v-4.9707zm8.4766 4.9707v-4.9707h-3.2129v4.9707zm-12.5-5.7812q-1.1914-1.6602-3.1543-3.1738l1.4551-1.4844q1.9531 1.377 3.3008 3.0859zm-0.63476 5.0195q-1.6992-1.9727-3.3008-3.2324l1.5039-1.5039q1.709 1.2012 3.3789 3.1055zm-3.0371 7.5684q1.875-2.666 3.457-6.6406l1.7383 1.3379q-1.3379 3.6621-3.2617 6.8945z" dominant-baseline="central"/>
 </g>
</svg>
