<svg xmlns="http://www.w3.org/2000/svg" viewBox="0 0 180 40" version="1.1" height="40" width="180">
 <path style="paint-order:stroke markers fill" stroke-width=".2" stroke-linejoin="round" stroke-linecap="round" stop-color="#000000" fill-opacity="0" fill="none" d="m0 0h180v40h-180z"></path>
 <g aria-label="予想震度(気象庁のみ)" fill="#fff" transform="scale(.95797 1.0439)">
  <path d="m28.292 16.75q0.41432 0.21308 0.95293 0.50902l-0.75169 0.60964h3.5631l0.66882 0.66882q-1.3317 2.0065-2.6575 3.2968l-1.2015-0.70434q1.166-1.0654 1.8703-2.1189h-2.9476v4.6403q0 0.80496-0.39656 1.0299-0.26635 0.15389-0.99436 0.15389-0.95293 0-2.1012-0.11838l-0.29002-1.3199q1.1068 0.17756 1.965 0.17756 0.32553 0 0.40248-0.10654 0.05919-0.08878 0.05919-0.32553v-4.1313h-4.96v-1.1423h6.416q-2.0006-1.1482-4.0011-1.9414l0.95885-0.76352q1.3436 0.53861 2.3734 1.0476 0.9115-0.62147 1.5981-1.2193h-6.3272v-1.1246h8.0496l0.72801 0.71026q-1.5507 1.2489-2.9772 2.1722z"></path>
  <path d="m35.767 17.449q-0.76944 1.4028-1.7816 2.2965l-0.68066-1.1009q1.3258-1.0062 2.2373-2.7167h-1.9591v-1.0891h2.184v-1.4324h1.2725v1.4324h1.7105v1.0891h-1.7105v0.72209q1.0535 0.60372 1.8763 1.2785l-0.71618 1.0417q-0.56229-0.62739-1.1601-1.1187v2.6339h-1.2725zm3.6341 2.841q0.75761 0.72209 1.4915 1.7342l-1.0535 0.75169q-0.8168-1.2607-1.5803-1.965l0.84047-0.58596v-6.3923h5.0547v6.4574zm0.89374-5.4867v0.90558h2.6339v-0.90558zm0 1.8171v0.89374h2.6339v-0.89374zm0 1.7934v0.90558h2.6339v-0.90558zm-6.8362 5.5045q0.68066-1.1127 1.0595-2.7286l1.2311 0.34921q-0.33145 1.8999-1.1364 3.1784zm3.2376-2.7167h1.2962v1.8881q0 0.36697 0.17756 0.43799 0.22492 0.08286 1.2429 0.08286 0.97068 0 1.2962-0.06511 0.23675-0.05327 0.30186-0.27226 0.08878-0.29594 0.11838-1.0772l1.3081 0.30186q-0.02368 0.8819-0.13021 1.2607-0.14797 0.53861-0.43799 0.73393-0.24859 0.17164-0.71618 0.20124-0.97068 0.05919-1.9946 0.05919-1.7224 0-2.1012-0.20124-0.36105-0.19532-0.36105-0.82863zm7.215 3.1725q-0.71617-1.7283-1.5922-2.9298l1.0831-0.64515q0.9766 1.3021 1.6691 2.8114z"></path>
  <path d="m50.612 15.004v-0.50902h-3.6992v-0.84639h8.7361v0.84639h-3.7762v0.50902h4.9008v2.1248h-1.2844v-1.3613h-3.6164v2.3024h-1.2607v-2.3024h-3.5513v1.3613h-1.2725v-2.1248zm4.1905 8.3988q0.90558 0.34329 2.261 0.54453l-0.6925 1.0062q-1.8999-0.32553-3.1192-1.1187-1.2134-0.79312-1.8881-1.971h-1.3081v1.823q1.3081-0.18348 2.4267-0.39064l0.08286 0.8819q-2.0834 0.49718-4.7646 0.86414l-0.34921-1.0417q0.92925-0.10062 1.2725-0.14205l0.07102-0.01184v-1.9828h-1.2962q-0.08286 1.0417-0.27226 1.6632-0.22492 0.74577-0.72209 1.3909l-1.0535-0.87006q0.58004-0.75169 0.72209-1.7579 0.07695-0.54453 0.07695-1.3554v-2.5096h10.216v0.7872h-8.9433v1.8171h9.4523v0.83455h-1.3436l0.75169 0.49718q-0.66882 0.55637-1.5803 1.0417zm-0.92333-0.45575q0.85231-0.58004 1.3554-1.0831h-2.5865q0.50902 0.65107 1.2311 1.0831zm-6.2976-6.7415h2.5214v0.66882h-2.5214zm0 1.0891h2.5214v0.68066h-2.5214zm4.8001-1.0891h2.5984v0.66882h-2.5984zm0 1.0891h2.5984v0.68066h-2.5984zm-4.155 2.4149h7.3689v0.77536h-7.3689z"></path>
  <path d="m64.325 14.471h4.6403v0.99436h-2.6279v0.98252h2.4622v0.95884h-2.4622v1.7638h-4.7646v-1.7638h-1.9414v1.1009q0 2.6812-0.2841 4.2379-0.219 1.1838-0.71026 2.1604l-1.0772-0.85231q0.44983-0.9766 0.61556-2.3853 0.14797-1.237 0.14797-3.1606v-4.0366h4.6818v-1.0654h1.3199zm-4.6936 0.99436v0.98252h1.9414v-0.98252zm3.2021 0v0.98252h2.2432v-0.98252zm0 1.9414v0.91741h2.2432v-0.91741zm1.3732 6.2147q-1.7105 0.88782-4.3444 1.3495l-0.61556-1.0891q2.4741-0.29594 3.8768-0.90558-1.2015-0.87006-2.0538-2.0657h-0.81679v-1.0299h6.9309l0.62147 0.52086q-0.8819 1.3554-2.5155 2.551 1.4028 0.56229 3.8235 0.82863l-0.6925 1.1187q-2.3202-0.3137-4.2142-1.2785zm-1.7579-2.7108q0.71617 0.84047 1.7401 1.4797 1.1542-0.74577 1.7816-1.4797z"></path>
  <path d="m73.582 24.924q-1.0831-0.9766-1.7756-2.3853-0.85231-1.7342-0.85231-3.3796 0-1.8644 1.0713-3.794 0.65107-1.166 1.5566-1.9591h1.1542q-0.79312 0.9115-1.2785 1.6809-1.2311 1.965-1.2311 4.084 0 2.0006 1.1009 3.8591 0.52085 0.87598 1.4087 1.894z"></path>
  <path d="m78.986 14.389h7.4222v1.0654h-8.0318q-0.67474 1.0121-1.5448 1.7816l-0.98252-0.90558q1.4856-1.166 2.1308-2.9831l1.3732 0.23083q-0.15981 0.39064-0.36697 0.81088zm6.4041 3.427v0.15981q0 3.137 0.40248 4.5101 0.17164 0.59188 0.26043 0.59188 0.05327 0 0.14797-0.3137 0.16573-0.55637 0.23083-1.4442l1.1364 0.84639q-0.20124 1.3495-0.43207 1.9059-0.34329 0.82863-0.92333 0.82863-0.49718 0-1.0003-0.59188-0.59188-0.6925-0.85823-2.0479-0.24859-1.2489-0.29002-3.2435v-0.14797h-7.7773v-1.0535zm-5.8241 4.0781q-1.166-0.72801-2.5037-1.3376l0.84639-0.87006q1.3968 0.63331 2.4977 1.3021 0.65699-0.82863 1.1423-1.7875l1.2074 0.48534q-0.55637 1.1187-1.2548 1.9828 1.0417 0.67474 2.1189 1.533l-0.86414 1.0062q-1.0654-0.88782-2.113-1.6099-1.4856 1.4028-3.6282 2.1663l-0.84047-0.98252q2.1012-0.67474 3.3915-1.8881zm-1.533-5.7235h7.1381v0.94701h-7.1381z"></path>
  <path d="m94.647 20.473q0.08286 0.0947 0.11246 0.13021 1.5093-0.68658 2.8943-1.7283l0.94109 0.84047q-1.4915 0.94109-3.0837 1.6158 1.5389 1.2903 3.9597 1.8703l-0.75169 1.1601q-2.261-0.80496-3.5986-2.2314 0.02367 0.25451 0.02367 0.47942 0 2.3024-1.527 2.3024-0.5978 0-1.4205-0.10062l-0.25451-1.0891q0.82271 0.14205 1.2903 0.14205 0.39656 0 0.52677-0.34921 0.15389-0.40248 0.15389-1.1719 0-0.15389-0.01776-0.33737-2.2491 1.7756-5.0783 2.6516l-0.71616-0.98252q2.2314-0.55637 4.1787-1.6987 0.79904-0.46758 1.3968-0.94701-0.05919-0.15389-0.15389-0.34921-2.1367 1.3791-4.7291 2.0834l-0.60372-0.96476q2.9298-0.62739 4.8889-1.8467-0.08286-0.11246-0.20716-0.24859-1.9532 0.74577-3.7644 1.1246l-0.67474-0.94701q2.3438-0.35513 4.4391-1.1246h-3.6992v-2.261q-0.15981 0.07694-0.48534 0.23083l-0.6925-0.88782q2.0716-0.80496 3.575-2.4563l0.79904 0.54453h3.4388l0.50902 0.49718q-0.64515 0.76944-1.3909 1.3791h3.7703v2.9535h-3.6697q-0.5978 0.29002-1.1601 0.53861 0.4735 0.52677 0.78128 1.1778zm-1.1601-4.6699q0.73985-0.60964 1.0121-0.95293h-2.8884q-0.62739 0.51494-1.2785 0.95293zm-3.0068 0.9115v1.1305h2.7996v-1.1305zm6.9191 1.1305v-1.1305h-2.8884v1.1305z"></path>
  <path d="m106.66 14.969h4.6936v1.166h-9.038v2.1604q0 2.6694-0.29594 4.1964-0.25451 1.3021-0.85823 2.3734l-1.0654-0.99436q0.55637-1.0654 0.73985-2.5332 0.14797-1.2015 0.14797-3.1429v-3.2257h4.3266v-1.5626h1.3495zm1.1423 4.0899v4.6522q0 0.6925-0.36697 0.96476-0.30186 0.219-1.0062 0.219-1.0121 0-1.9946-0.11838l-0.20716-1.2489q1.0713 0.15981 1.9354 0.15981 0.21899 0 0.26635-0.10654 0.0296-0.07694 0.0296-0.26043v-4.2615h-3.6519v-1.166h8.819v1.166z"></path>
  <path d="m118.62 23.125q3.4743-0.87598 3.4743-3.9834 0-1.3554-0.69842-2.332-0.78128-1.1009-2.3794-1.4146-0.3492 2.7463-0.95292 4.4983-0.41432 1.2252-1.0299 2.3142-0.88782 1.5507-2.0183 1.5507-0.84047 0-1.4975-0.75761-0.42023-0.47942-0.68066-1.1778-0.34329-0.90558-0.34329-1.9473 0-1.6869 0.92925-3.1074 0.94109-1.4501 2.4445-2.1071 1.095-0.47942 2.403-0.47942 2.042 0 3.4684 1.095 1.752 1.3436 1.752 3.8058 0 4.1254-4.1728 5.2322zm-0.88782-7.7773q-1.0476 0.11838-1.752 0.56229-0.44983 0.29002-0.89374 0.76944-1.2311 1.3613-1.2311 3.1547 0 1.3081 0.52086 2.0479 0.31961 0.45575 0.63331 0.45575 0.42615 0 0.95884-0.94109 1.3021-2.2906 1.7638-6.049z"></path>
  <path d="m125.89 14.252h4.6285l0.82863 0.70434q-0.58596 2.0538-0.97069 3.0896 1.4738 0.24859 2.7167 0.80496 0.071-0.76352 0.071-1.4975 0-0.39064-0.0237-0.91741l1.2962 0.13613q-6e-3 1.6928-0.13613 2.8469 0.73393 0.3788 1.5389 0.89374l-0.50902 1.2607q-0.56821-0.41432-1.2311-0.82271-0.45575 1.7579-1.456 2.7345-0.71025 0.69842-1.9414 1.2311l-0.73985-0.99436q1.4501-0.62147 2.1426-1.5862 0.54453-0.76944 0.80496-2.0124-1.4501-0.72801-2.9357-0.98252-0.96477 2.6398-1.9354 4.0011-0.73985 1.0299-1.6632 1.0299-0.89374 0-1.385-0.85231-0.37289-0.65107-0.37289-1.5507 0-1.1127 0.57413-1.9887 0.68066-1.0417 2.0952-1.5211 0.8168-0.27226 1.8289-0.29594 0.54453-1.4205 0.83455-2.5451h-4.0603zm2.7996 4.8416q-0.76353 0.04143-1.3081 0.29002-0.8523 0.3788-1.2548 1.1601-0.28411 0.55045-0.28411 1.1719 0 0.49718 0.19533 0.86414 0.14797 0.29002 0.35512 0.29002 0.82863 0 2.2965-3.7762z"></path>
  <path d="m137.05 24.924q0.79311-0.9115 1.2785-1.6809 1.2311-1.965 1.2311-4.0721 0-2.0124-1.1009-3.8709-0.51494-0.86414-1.4087-1.894h1.1542q1.0831 0.98252 1.7756 2.3853 0.85231 1.7342 0.85231 3.3737 0 1.8703-1.0772 3.7999-0.64515 1.1601-1.5507 1.9591z"></path>
 </g>
</svg>
