<svg version="1.1" xmlns="http://www.w3.org/2000/svg" xmlns:xlink="http://www.w3.org/1999/xlink" width="140" height="140" viewBox="0,0,140,140"><defs><radialGradient cx="239.9984" cy="179.9992" r="69.9992" gradientUnits="userSpaceOnUse" id="color-1"><stop offset="0" stop-color="#ff0000"/><stop offset="0.4" stop-color="#ff0000"/><stop offset="0.55" stop-color="#ff0000" stop-opacity="0.56078"/><stop offset="0.7" stop-color="#ff0000" stop-opacity="0.25098"/><stop offset="0.85" stop-color="#ff0000" stop-opacity="0.05882"/><stop offset="1" stop-color="#ff0000" stop-opacity="0"/></radialGradient></defs><g transform="translate(-170,-110)"><g data-paper-data="{&quot;isPaintingLayer&quot;:true}" stroke="none" stroke-width="1" stroke-linecap="butt" stroke-linejoin="miter" stroke-miterlimit="10" stroke-dasharray="" stroke-dashoffset="0" style="mix-blend-mode: normal"><path d="M170,250v-140h140v140z" fill="none" fill-rule="nonzero"/><path d="M170,180c0,-38.65993 31.34007,-70 70,-70c38.65993,0 70,31.34007 70,70c0,38.65993 -31.34007,70 -70,70c-38.65993,0 -70,-31.34007 -70,-70z" fill="url(#color-1)" fill-rule="evenodd" opacity="0.5"/><path d="M210.3814,133.033c3.71929,-0.00504 7.28775,1.46998 9.918,4.0996l19.615,19.617l19.617,-19.617c2.63025,-2.62962 6.19871,-4.10464 9.918,-4.0996c3.70709,0.00429 7.26117,1.4786 9.8828,4.0996l3.5352,3.5352c2.62588,2.62572 4.1011,6.18706 4.1011,9.9005c0,3.71344 -1.47522,7.27478 -4.1011,9.9005l-19.617,19.617l19.617,19.615c2.62588,2.62572 4.1011,6.18706 4.1011,9.9005c0,3.71344 -1.47522,7.27478 -4.1011,9.9005l-3.5352,3.5352c-2.62572,2.62588 -6.18706,4.1011 -9.9005,4.1011c-3.71344,0 -7.27478,-1.47522 -9.9005,-4.1011l-19.617,-19.615l-19.615,19.615c-2.62572,2.62588 -6.18706,4.1011 -9.9005,4.1011c-3.71344,0 -7.27478,-1.47522 -9.9005,-4.1011l-3.5352,-3.5352c-2.62588,-2.62572 -4.1011,-6.18706 -4.1011,-9.9005c0,-3.71344 1.47522,-7.27478 4.1011,-9.9005l19.615,-19.615l-19.615,-19.617c-2.62588,-2.62572 -4.1011,-6.18706 -4.1011,-9.9005c0,-3.71344 1.47522,-7.27478 4.1011,-9.9005l3.5352,-3.5352c2.62163,-2.621 6.17571,-4.09531 9.8828,-4.0996z" fill="#ffffff" fill-rule="nonzero"/></g></g></svg>