<?xml version="1.0" encoding="UTF-8"?>
<svg width="480" height="360" version="1.1" viewBox="0 0 480 360" xmlns="http://www.w3.org/2000/svg">
 <g dominant-baseline="central" fill="#fff" aria-label="滋賀県北部">
  <path d="m247.43 183.89q-1.25-2.2266-2.7246-3.7891l1.1133-1.6016q0.3418 0.41016 0.45899 0.54688 0.86914-1.5332 1.416-2.8613 0.0488-0.11719 0.0781-0.18555h-2.6856v-1.8164h3.7012q-0.55664-1.4551-1.4648-2.8027l1.7969-0.82031q1.0547 1.5625 1.6211 2.9394l-1.5723 0.6836h4.2383q0.87891-1.8164 1.4746-3.6816l2.1191 0.625q-0.73242 1.709-1.5137 3.0566h4.0137v1.8164h-2.9883q-0.8789 2.041-2.4316 4.5801 0.52734 0.69336 1.0547 1.5039 1.0254-1.8848 1.8457-3.8281l1.6992 0.94727q-1.7676 3.6621-4.0625 7.0312l-0.0586 0.0879q1.1133-0.0879 2.7148-0.3125-0.0293-0.0977-0.0684-0.23438-0.22461-0.77148-0.58594-1.6309l1.6016-0.5664q1.0742 2.627 1.5625 5.0391l-1.7969 0.74219q-0.23437-1.2207-0.35156-1.709-1.8066 0.41993-5.4102 0.87891 0.0391 0.18555 0.0781 0.37109l-1.7969 0.59571q-0.12695-0.90821-0.27344-1.5918-2.2558 0.44922-5.0098 0.80078l-0.57617-2.0215q0.67383-0.0293 1.1621-0.0586 0.11718-0.19531 0.23437-0.38086 0.66406-1.0449 1.3867-2.3535zm0.9668-1.7774q1.0449-2.0117 1.8066-3.7695l1.4844 1.1328 0.69336-1.0156q0.30274 0.37109 0.45899 0.54688 0.0879 0.0977 0.13672 0.17578 0.72265-1.3281 1.4355-3.1836h-4.5215q-0.0781 0.14649-0.19531 0.39063-0.9375 1.9726-2.3242 4.1406 0.5957 0.86914 1.0254 1.582zm3.0078-1.8945q-1.4941 3.0566-3.4766 6.0645l-0.14649 0.20507q0.97657-0.0781 2.1582-0.19531-0.0293-0.0977-0.0684-0.27344-0.20508-0.86914-0.46875-1.6602l1.4551-0.49805q0.49805 1.1914 0.89844 2.6856l0.25391-0.0195q0.19531-0.01 0.33203-0.0195 0.0781-0.01 0.12695-0.01 0.56641-0.81055 1.7188-2.7148-1.0742-1.5918-2.7832-3.5645zm-7.3438-5.1953q-1.582-1.7871-3.1152-2.9199l1.3574-1.543q1.8164 1.2207 3.1836 2.8027zm-0.6543 5.2539q-1.6211-1.7871-3.1641-2.959l1.377-1.5137q1.7676 1.2012 3.1641 2.8125zm-3.0469 7.6074q1.4746-2.5195 2.7832-6.6602l1.7383 1.2988q-1.2305 4.2188-2.6562 6.8164z" dominant-baseline="central"/>
  <path d="m262.69 177.33h14.639v8.6816h-3.877q3.0469 0.7129 5.9375 1.9238l-1.4453 1.6309q-3.1152-1.3965-6.3965-2.3926l0.98633-1.1621h-5.5176l1.2891 1.1035q-2.8711 1.582-6.416 2.5977l-1.3184-1.7774q3.0664-0.61523 5.8594-1.9238h-3.7402zm12.48 1.3574h-10.342v1.0449h10.342zm-10.342 2.3828v1.084h10.342v-1.084zm0 2.4023v1.123h10.342v-1.123zm3.4082-10.234h-2.1582q-0.74219 2.7441-4.6094 4.1797l-1.1621-1.5234q2.9297-0.74219 3.6719-2.6562h-2.9883v-1.543h3.2812l0.11719-1.2012h2.0605l-0.11719 1.2012h3.8965q-0.15625 2.8809-0.41016 3.6914-0.27343 0.83008-0.85937 1.0742-0.43946 0.17578-1.25 0.17578-0.88867 0-1.9629-0.14648l-0.26367-1.5332q1.0058 0.17578 1.6113 0.17578 0.64453 0 0.81055-0.2832 0.0977-0.15625 0.21484-0.88868zm10.352-1.8262v5.127h-7.4023v-5.127zm-5.498 1.5625v2.0215h3.5156v-2.0215z" dominant-baseline="central"/>
  <path d="m296.76 170.98v9.4629h-11.621v-9.4629zm-9.5215 1.543v1.2207h7.4023v-1.2207zm0 2.5977v1.2207h7.4023v-1.2207zm0 2.5976v1.2598h7.4023v-1.2598zm-3.9356 4.0234h16.191v1.6992h-8.0762v6.0644h-2.2168v-6.0644h-8.0371v-10.957h2.1387zm-2.5 5.8984q2.3242-1.0742 4.4434-3.6035l1.7969 1.0449q-2.0898 2.6465-4.6387 4.1602zm16.836 1.2598q-1.4941-1.8359-4.4922-3.8574l1.6797-1.1816q2.3535 1.3574 4.6191 3.5644z" dominant-baseline="central"/>
  <path d="m305.84 184.3q-2.6953 1.416-4.6973 2.168l-0.82031-2.1484q3.1348-1.0547 5.5176-2.1875v-4.375h-4.834v-2.0606h4.834v-5.1953h2.1777v19.004h-2.1777zm6.9434-7.6074q2.2754-1.1914 4.4141-3.0273l1.6211 1.6992q-2.8906 2.0508-6.0352 3.4961v7.3242q0 0.47852 0.3125 0.58594 0.33203 0.10742 1.5332 0.10742 1.582 0 1.9824-0.18555 0.2832-0.12695 0.39062-0.79101 0.14649-0.92774 0.21485-2.998l2.1875 0.67383q-0.0977 2.5293-0.3125 3.6328-0.24414 1.2305-1.2793 1.5918-0.98633 0.33203-3.2324 0.33203-2.6367 0-3.3203-0.43945-0.6543-0.42969-0.6543-1.6504v-16.543h2.1777z" dominant-baseline="central"/>
  <path d="m326.98 172.75h4.1797v1.8848h-1.377q-0.3711 1.4941-0.9961 3.1348h2.6074v1.8848h-10.898v-1.8848h2.3926q-0.39062-1.875-0.82031-3.1348h-1.2695v-1.8848h4.1406v-2.2559h2.041zm-2.9394 1.8848q0.49805 1.4551 0.77148 3.1348h1.9922l0.09766-0.27344q0.41992-1.1133 0.78125-2.5293l0.0879-0.33203zm6.0547 6.6602v7.998h-2.002v-0.95703h-4.2578v1.1621h-2.0606v-8.2031zm-6.2598 1.7969v3.3887h4.2578v-3.3887zm13.047-4.9316q1.1621 1.1035 1.8457 2.627 0.67383 1.5234 0.67383 3.0859 0 1.4453-0.53711 2.1289-0.55664 0.71289-1.8359 0.71289-1.0938 0-2.1191-0.15625l-0.47852-2.0801q1.1816 0.21485 1.9531 0.21485 0.58594 0 0.73242-0.27344 0.0977-0.19531 0.0977-0.78125 0-2.4121-1.4453-4.1602-0.38086-0.45898-0.95703-0.98633l0.11719-0.27343q1.0156-2.2949 1.582-4.7852h-2.5v16.064h-2.0215v-18.086h5.8789l1.084 0.99609q-0.98633 3.3594-2.0703 5.752z" dominant-baseline="central"/>
 </g>
</svg>
