<svg xmlns="http://www.w3.org/2000/svg" viewBox="0 0 180 40" version="1.1" height="40" width="180">
 <path style="paint-order:stroke markers fill" stroke-width=".2" stroke-linejoin="round" stroke-linecap="round" stop-color="#000000" fill-opacity="0" fill="none" d="m0 0h180v40h-180z"></path>
 <g aria-label="震度7" fill="#fff">
  <path d="m26.228 15.194v-0.58789h-4.2725v-0.97754h10.09v0.97754h-4.3613v0.58789h5.6602v2.4541h-1.4834v-1.5723h-4.1768v2.6592h-1.4561v-2.6592h-4.1016v1.5723h-1.4697v-2.4541zm4.8398 9.7002q1.0459 0.39648 2.6113 0.62891l-0.7998 1.1621q-2.1943-0.37598-3.6025-1.292-1.4014-0.91602-2.1807-2.2764h-1.5107v2.1055q1.5107-0.21191 2.8027-0.45117l0.0957 1.0186q-2.4062 0.57422-5.5029 0.99805l-0.40332-1.2031q1.0732-0.11621 1.4697-0.16406l0.08203-0.01367v-2.29h-1.4971q-0.0957 1.2031-0.31445 1.9209-0.25977 0.86133-0.83398 1.6064l-1.2168-1.0049q0.66992-0.86816 0.83398-2.0303 0.08887-0.62891 0.08887-1.5654v-2.8984h11.799v0.90918h-10.329v2.0986h10.917v0.96387h-1.5518l0.86816 0.57422q-0.77246 0.64258-1.8252 1.2031zm-1.0664-0.52637q0.98438-0.66992 1.5654-1.251h-2.9873q0.58789 0.75195 1.4219 1.251zm-7.2734-7.7861h2.9121v0.77246h-2.9121zm0 1.2578h2.9121v0.78613h-2.9121zm5.5439-1.2578h3.001v0.77246h-3.001zm0 1.2578h3.001v0.78613h-3.001zm-4.7988 2.7891h8.5107v0.89551h-8.5107z"></path>
  <path d="m42.066 14.579h5.3594v1.1484h-3.0352v1.1348h2.8438v1.1074h-2.8438v2.0371h-5.5029v-2.0371h-2.2422v1.2715q0 3.0967-0.32812 4.8945-0.25293 1.3672-0.82031 2.4951l-1.2441-0.98438q0.51953-1.1279 0.71094-2.7549 0.1709-1.4287 0.1709-3.6504v-4.6621h5.4072v-1.2305h1.5244zm-5.4209 1.1484v1.1348h2.2422v-1.1348zm3.6982 0v1.1348h2.5908v-1.1348zm0 2.2422v1.0596h2.5908v-1.0596zm1.5859 7.1777q-1.9756 1.0254-5.0176 1.5586l-0.71094-1.2578q2.8574-0.3418 4.4775-1.0459-1.3877-1.0049-2.3721-2.3857h-0.94336v-1.1895h8.0049l0.71777 0.60156q-1.0186 1.5654-2.9053 2.9463 1.6201 0.64941 4.416 0.95703l-0.7998 1.292q-2.6797-0.3623-4.8672-1.4766zm-2.0303-3.1309q0.82715 0.9707 2.0098 1.709 1.333-0.86133 2.0576-1.709z"></path>
  <path d="m49.203 14.326h8.6133v1.4424q-1.1895 1.9141-2.3447 5.0176-1.0322 2.7754-1.5039 4.8809h-1.9072q0.57422-2.6387 1.9414-5.7764 1.3262-3.0352 1.9072-3.9512h-5.0107v2.3242h-1.6953z"></path>
 </g>
</svg>
