<svg xmlns="http://www.w3.org/2000/svg" viewBox="0 0 100 100" version="1.1" height="100" width="100">
 <rect stroke-width=".333" stroke-linejoin="round" stroke-linecap="round" stop-color="#000000" opacity=".988" fill="none" height="100" width="100"></rect>
 <path fill="#f00" d="m37.812 62.729v-20.2h3.64v20.2zm10.44 0v-13.76h3.64v13.76zm-8.44-13.68q0-2.04 0.76-3.64 0.8-1.64 2.16-2.56t3.04-0.92l-0.92 3.24q-1.44 0-2.44 1.08-0.96 1.08-0.96 2.8zm8.44-0.08q0-1.68-0.96-2.72-0.96-1.08-2.44-1.08l0.92-3.24q1.76 0 3.12 0.92 1.4 0.92 2.2 2.52 0.8 1.56 0.8 3.6zm10.4 13.76v-13.76h3.64v13.76zm-8.4-13.68q0-2.04 0.76-3.64 0.8-1.64 2.12-2.56 1.36-0.92 3.04-0.92l-0.92 3.24q-1.44 0-2.4 1.08t-0.96 2.8zm8.4-0.08q0-1.68-0.96-2.72-0.92-1.08-2.44-1.08l0.92-3.24q1.76 0 3.12 0.92 1.4 0.92 2.2 2.52 0.8 1.56 0.8 3.6z"></path>
</svg>
