<svg version="1.1" xmlns="http://www.w3.org/2000/svg" xmlns:xlink="http://www.w3.org/1999/xlink" width="100" height="100" viewBox="0,0,100,100"><g transform="translate(-190,-130)"><g data-paper-data="{&quot;isPaintingLayer&quot;:true}" fill-rule="nonzero" stroke-linecap="butt" stroke-linejoin="miter" stroke-miterlimit="10" stroke-dasharray="" stroke-dashoffset="0" style="mix-blend-mode: normal"><path d="M190,230v-100h100v100z" fill="none" stroke="#959196" stroke-width="0"/><path d="M261.871,164.602v28.096c0,1.13933 -0.21647,1.99383 -0.64941,2.5635c-0.56966,0.7178 -1.78303,1.0767 -3.6401,1.0767c-2.3014,0 -4.56867,-0.10254 -6.8018,-0.30762l-0.76904,-3.7427c2.83693,0.27344 5.11557,0.41016 6.8359,0.41016c0.53548,0 0.86019,-0.11393 0.97412,-0.3418c0.06836,-0.14811 0.10254,-0.35889 0.10254,-0.63232v-7.1265h-15.039c-0.11393,1.83433 -0.42155,3.5661 -0.92285,5.1953c-0.77473,2.49513 -2.1989,4.83073 -4.2725,7.0068l-3.042,-2.9395c1.90267,-2.14193 3.16163,-4.3921 3.7769,-6.7505c0.37597,-1.49253 0.56396,-3.16163 0.56396,-5.0073v-17.5zM242.97,167.8491v4.9048h14.954v-4.9048zM242.97,176.0522v5.2466h14.954v-5.2466z" fill="#ff0000" stroke="none" stroke-width="1"/><path d="M212.529,182.166v-16.28h3.44v16.28zM223.009,186.926v-4.64h3.64v4.64zM212.529,169.126v-3.24h13.4v3.24zM223.009,182.286c0,-1.2 -0.36,-2.18667 -1.08,-2.96c-0.72,-0.77333 -1.62667,-1.16 -2.72,-1.16l0.48,-3c1.33333,0 2.52,0.30667 3.56,0.92c1.06667,0.61333 1.89333,1.46667 2.48,2.56c0.61333,1.06667 0.92,2.28 0.92,3.64zM213.649,182.166c0,-1.33333 0.25333,-2.52 0.76,-3.56c0.53333,-1.06667 1.26667,-1.90667 2.2,-2.52c0.93333,-0.61333 1.97333,-0.92 3.12,-0.92l-0.48,3c-0.93333,0 -1.72,0.37333 -2.36,1.12c-0.61333,0.74667 -0.92,1.70667 -0.92,2.88zM226.649,186.926c0,1.49333 -0.33333,2.82667 -1,4c-0.64,1.17333 -1.52,2.10667 -2.64,2.8c-1.09333,0.66667 -2.34667,1 -3.76,1v-3.16c1.2,0 2.12,-0.41333 2.76,-1.24c0.66667,-0.82667 1,-1.96 1,-3.4zM215.489,188.086c0.13333,1.17333 0.56,2.05333 1.28,2.64c0.72,0.56 1.56,0.84 2.52,0.84v3.16c-1.22667,0 -2.36,-0.25333 -3.4,-0.76c-1.04,-0.50667 -1.89333,-1.21333 -2.56,-2.12c-0.64,-0.90667 -1.04,-1.93333 -1.2,-3.08z" fill="#ff0000" stroke="none" stroke-width="1"/></g></g></svg>