<?xml version="1.0" encoding="UTF-8"?>
<svg width="480" height="360" version="1.1" viewBox="0 0 480 360" xmlns="http://www.w3.org/2000/svg">
 <g dominant-baseline="central" fill="#fff" aria-label="千島列島">
  <path d="m251.07 173.51v5.0098h8.4277v1.9824h-8.4277v9.0039h-2.2754v-9.0039h-8.3008v-1.9824h8.3008v-4.6875q-3.3008 0.39063-6.1816 0.58594l-0.83985-1.8945q7.4609-0.3125 13.838-2.002l1.5039 1.6992q-2.6172 0.72265-6.0449 1.2891z" dominant-baseline="central"/>
  <path d="m267.74 171.98q0.36133-0.86914 0.58594-1.6602l2.3828 0.32226q-0.3418 0.81055-0.625 1.3379h6.5039v6.3672h-11.797v0.98633h14.697v1.582h-14.697v0.99609h14.014q-0.12695 4.4727-0.5664 6.0352-0.28321 0.99609-1.0645 1.3184-0.55664 0.23437-1.6992 0.23437-1.1719 0-2.1875-0.14648l-0.39063-1.6406h-9.7852v1.084h-2.0996v-4.6973h2.0996v2.0117h3.3594v-2.6367h-3.8379v-11.494zm4.1504 14.131v-2.0117h2.0215v3.3984q0.81054 0.0781 1.3476 0.0781 0.66406 0 0.83008-0.38085 0.32227-0.7129 0.50781-3.7207h-8.0273v2.6367zm-7.0996-12.627v0.96679h9.6387v-0.96679zm0 2.3633v1.0644h9.6387v-1.0644z" dominant-baseline="central"/>
  <path d="m286.25 183.19q-1.3184-1.2988-2.7148-2.2852-0.74219 1.2207-1.7774 2.4316l-1.3184-1.6602q2.9199-3.5254 3.8867-8.2617h-3.3106v-1.9629h10.068v1.9629h-4.6973q-0.26367 1.2988-0.58594 2.3242h3.6426l1.0156 0.82031q-0.66406 4.668-2.4121 7.7832-1.7383 3.0957-5.2148 5.0977l-1.4356-1.6602q3.1152-1.6699 4.8535-4.5898zm0.91797-1.9336q0.66406-1.6699 1.0352-3.7207h-3.0176q-0.36133 0.9375-0.77149 1.7676 1.4453 0.83984 2.7539 1.9531zm4.8535-8.0469h2.1191v11.562h-2.1191zm4.375-1.9727h2.1582v15.918q0 1.0449-0.42969 1.5234-0.50781 0.55664-1.9336 0.55664-0.88868 0-2.7344-0.0879l-0.57617-0.0293-0.41992-2.1387q1.9726 0.21485 3.2129 0.21485 0.54687 0 0.65429-0.27344 0.0684-0.16602 0.0684-0.46875z" dominant-baseline="central"/>
  <path d="m307.74 171.98q0.36133-0.86914 0.58594-1.6602l2.3828 0.32226q-0.3418 0.81055-0.625 1.3379h6.5039v6.3672h-11.797v0.98633h14.697v1.582h-14.697v0.99609h14.014q-0.12695 4.4727-0.5664 6.0352-0.28321 0.99609-1.0645 1.3184-0.55664 0.23437-1.6992 0.23437-1.1719 0-2.1875-0.14648l-0.39063-1.6406h-9.7852v1.084h-2.0996v-4.6973h2.0996v2.0117h3.3594v-2.6367h-3.8379v-11.494zm4.1504 14.131v-2.0117h2.0215v3.3984q0.81054 0.0781 1.3476 0.0781 0.66406 0 0.83008-0.38085 0.32227-0.7129 0.50781-3.7207h-8.0273v2.6367zm-7.0996-12.627v0.96679h9.6387v-0.96679zm0 2.3633v1.0644h9.6387v-1.0644z" dominant-baseline="central"/>
 </g>
</svg>
