<?xml version="1.0" encoding="UTF-8"?>
<svg width="480" height="360" version="1.1" viewBox="0 0 480 360" xmlns="http://www.w3.org/2000/svg">
 <g dominant-baseline="central" fill="#fff" aria-label="大隅半島東方沖">
  <path d="m251.36 177.52q0.67383 2.2852 2.5586 4.8633 2.2949 3.1445 5.6445 4.9805l-1.3965 2.0117q-3.5449-2.0898-5.918-5.5371-1.2793-1.875-2.0508-3.8184-0.77148 2.6172-2.3926 4.7559-2.3828 3.1641-5.8887 4.668l-1.377-1.7871q3.6719-1.5332 5.9277-4.7266 1.8945-2.6953 2.2461-5.4102h-7.793v-2.1191h7.8809v-4.707h2.2559v4.707h8.0469v2.1191z" dominant-baseline="central"/>
  <path d="m263 185.18v4.3262h-1.9629v-18.223h5.1465l0.97656 0.83984q-0.80078 3.1055-1.9043 5.5469 1.3672 2.041 1.3672 4.5801 0 1.6211-0.49804 2.373-0.46875 0.70313-1.7188 0.70313-0.90821 0-1.4062-0.14649zm0-1.8652q0.55664 0.0879 0.98632 0.0879 0.47852 0 0.625-0.44922 0.12696-0.39063 0.12696-1.1328 0-2.041-1.2793-4.043 1.0254-2.4609 1.582-4.6582h-2.041zm11.865 1.0059q-0.17578-0.63477-0.44922-1.3574l1.2109-0.45898q0.76172 1.709 1.2207 3.9551l-1.4551 0.625q-0.10742-0.72266-0.23437-1.2988-2.4707 0.49805-5.4883 0.73242l-0.38086-1.7773q1.7285-0.0684 2.5781-0.13672 0.14649-0.01 0.24414-0.0195v-2.4609h-3.2226v7.3828h-1.8555v-9.1016h5.0781v-1.3184h-4.3359v-7.7246h10.361v7.7246h-4.3457v1.3184h5.2832v7.2949q0 1.0254-0.66407 1.377-0.46875 0.2539-1.4258 0.2539-0.97656 0-2.0703-0.14648l-0.26367-1.8652q0.30273 0.0391 1.0547 0.14649 0.56641 0.0781 0.98633 0.0781 0.33203 0 0.41016-0.22461 0.0488-0.12695 0.0488-0.38086v-4.8144h-3.418v2.3242q0.60547-0.0684 1.1328-0.12695zm-5.2344-11.318v1.3965h2.4805v-1.3965zm0 2.9394v1.5625h2.4805v-1.5625zm6.6406 1.5625v-1.5625h-2.4805v1.5625zm0-3.1055v-1.3965h-2.4805v1.3965z" dominant-baseline="central"/>
  <path d="m288.84 177.31v-6.8164h2.1973v6.8164h7.4414v1.9434h-7.4414v2.7734h8.4668v1.9824h-8.4668v5.4883h-2.1973v-5.4883h-8.3398v-1.9824h8.3398v-2.7734h-7.3047v-1.9434zm-4.2773-0.63476q-1.2109-2.6856-2.5391-4.4629l2.041-0.9961q1.5039 2.0703 2.6367 4.4727zm8.5742-0.76172q1.543-2.3438 2.4609-4.9219l2.2852 0.89844q-1.1035 2.4219-2.7832 4.8633z" dominant-baseline="central"/>
  <path d="m307.74 171.98q0.36133-0.86914 0.58594-1.6602l2.3828 0.32226q-0.3418 0.81055-0.625 1.3379h6.5039v6.3672h-11.797v0.98633h14.697v1.582h-14.697v0.99609h14.014q-0.12695 4.4727-0.5664 6.0352-0.28321 0.99609-1.0645 1.3184-0.55664 0.23437-1.6992 0.23437-1.1719 0-2.1875-0.14648l-0.39063-1.6406h-9.7852v1.084h-2.0996v-4.6973h2.0996v2.0117h3.3594v-2.6367h-3.8379v-11.494zm4.1504 14.131v-2.0117h2.0215v3.3984q0.81054 0.0781 1.3476 0.0781 0.66406 0 0.83008-0.38085 0.32227-0.7129 0.50781-3.7207h-8.0273v2.6367zm-7.0996-12.627v0.96679h9.6387v-0.96679zm0 2.3633v1.0644h9.6387v-1.0644z" dominant-baseline="central"/>
  <path d="m333.2 183.15q2.4219 2.1582 6.5234 3.4863l-1.2598 1.8359q-2.3633-0.83984-4.1211-2.0312-1.8164-1.2402-3.3496-3.0469v6.1035h-2.1191v-5.9961q-1.3574 1.9043-3.5059 3.418-1.6504 1.1621-3.5352 1.875l-1.3379-1.7188q3.0957-1.0254 5.166-2.7637 0.58594-0.48829 1.1914-1.1621h-4.6973v-7.998h6.7188v-1.3184h-8.0957v-1.7578h8.0957v-1.582h2.1191v1.582h8.2227v1.7578h-8.2227v1.3184h6.8457v7.998zm-4.3262-6.3574h-4.5996v1.582h4.5996zm2.1191 0v1.582h4.7266v-1.582zm-2.1191 3.1055h-4.5996v1.6113h4.5996zm2.1191 0v1.6113h4.7266v-1.6113z" dominant-baseline="central"/>
  <path d="m349.48 175.76q-0.0684 1.6309-0.19531 2.8711h7.8711q-0.14648 6.7774-0.76172 8.7988-0.3125 1.0156-1.1621 1.4062-0.66406 0.30273-1.9434 0.30273-1.3477 0-3.0566-0.20507l-0.38085-2.1973q2.2949 0.32227 3.2324 0.32227 0.79101 0 1.0059-0.44922 0.51757-1.0938 0.72265-6.0352h-5.8105q-0.32227 1.7578-0.90821 3.0469-1.6309 3.5644-5.4492 5.6543l-1.543-1.7188q3.8281-1.9922 5.0586-5.2246 0.82031-2.1582 1.0644-6.5723h-6.4648v-2.002h7.9785v-3.2617h2.2559v3.2617h8.2422v2.002z" dominant-baseline="central"/>
  <path d="m371.58 174.14v-3.6426h2.0996v3.6426h5.293v8.8379h-5.293v6.5234h-2.0996v-6.5234h-5.1856v-8.8379zm-3.1641 1.9434v4.9707h3.1641v-4.9707zm8.4766 4.9707v-4.9707h-3.2129v4.9707zm-12.5-5.7812q-1.1914-1.6602-3.1543-3.1738l1.4551-1.4844q1.9531 1.377 3.3008 3.0859zm-0.63476 5.0195q-1.6992-1.9727-3.3008-3.2324l1.5039-1.5039q1.709 1.2012 3.3789 3.1055zm-3.0371 7.5684q1.875-2.666 3.457-6.6406l1.7383 1.3379q-1.3379 3.6621-3.2617 6.8945z" dominant-baseline="central"/>
 </g>
</svg>
