<svg version="1.1" xmlns="http://www.w3.org/2000/svg" xmlns:xlink="http://www.w3.org/1999/xlink" width="208" height="32" viewBox="0,0,208,32"><g transform="translate(-240,-164)"><g data-paper-data="{&quot;isPaintingLayer&quot;:true}" fill-rule="nonzero" stroke="none" stroke-linecap="butt" stroke-linejoin="miter" stroke-miterlimit="10" stroke-dasharray="" stroke-dashoffset="0" style="mix-blend-mode: normal"><path d="M240,196v-32h208v32z" fill="none" stroke-width="0"/><path d="M247.08,176.93h9.7461v10.586c0,0.61849 -0.1237,1.06773 -0.37109,1.3477c-0.29948,0.34505 -0.88541,0.51758 -1.7578,0.51758c-1.0026,0 -2.0866,-0.04232 -3.252,-0.12696l-0.43945,-1.9824c1.22393,0.1237 2.23303,0.18555 3.0273,0.18555c0.29297,0 0.47201,-0.05534 0.53711,-0.16602c0.0456,-0.08463 0.0684,-0.24414 0.0684,-0.47851v-1.7578h-7.6758v4.4434h-2.1973v-9.8242c-1.02213,0.9896 -2.0703,1.83597 -3.1445,2.5391l-1.3379,-1.6992c1.86847,-1.1068 3.49607,-2.5814 4.8828,-4.4238c0.29947,-0.40365 0.58593,-0.85611 0.85937,-1.3574h-5.4004v-1.7969h6.2207c0.32552,-0.84633 0.5957,-1.6992 0.81055,-2.5586l2.2852,0.25391c-0.2474,0.8594 -0.50131,1.62763 -0.76172,2.3047h10.166v1.7969h-10.967l-0.0977,0.18554c-0.39713,0.77473 -0.79753,1.4453 -1.2012,2.0117zM246.96281,178.6488v1.5234h7.6758v-1.5234zM246.96281,181.7738v1.6797h7.6758v-1.6797z" fill="#ffffff" stroke-width="1"/><path d="M272.1,182.49c-0.09766,1.37373 -0.36133,2.5684 -0.79102,3.584c-0.52734,1.25 -1.49087,2.43163 -2.8906,3.5449l-1.582,-1.582c0.931,-0.63802 1.63087,-1.35415 2.0996,-2.1484c0.76173,-1.28907 1.1426,-3.01433 1.1426,-5.1758v-9.4922h8.4766v16.221c0,0.7096 -0.18555,1.2109 -0.55664,1.5039c-0.29948,0.23437 -0.79101,0.35156 -1.4746,0.35156c-0.95707,0 -1.89783,-0.03906 -2.8223,-0.11718l-0.36133,-2.0996c0.87893,0.14323 1.69273,0.21484 2.4414,0.21484c0.30599,0 0.49804,-0.07487 0.57617,-0.22461c0.05207,-0.10417 0.0781,-0.26367 0.0781,-0.47851v-4.1016zM272.1781,180.6931h4.2578v-2.959h-4.2578v2.7637c0,0.10417 0,0.16927 0,0.19531zM272.1781,175.9568h4.2578v-2.832h-4.2578zM268.5648,171.2791v13.74h-5.166v1.9629h-2.1191v-15.703zM263.3988,173.115v4.0234h3.1445v-4.0234zM263.3988,178.8572v4.2774h3.1445v-4.2774z" fill="#ffffff" stroke-width="1"/><path d="M297.76,175.8c0,0.30599 -0.0293,1.75783 -0.0879,4.3555h1.8652v1.7578h-1.9043c-0.01953,0.85287 -0.06185,1.81967 -0.12695,2.9004h1.6504v1.7188h-1.7774c-0.07813,0.944 -0.18555,1.569 -0.32226,1.875c-0.30599,0.7292 -1.04819,1.0938 -2.2266,1.0938c-0.7552,0 -1.4518,-0.05534 -2.0898,-0.16601l-0.36133,-1.7383c0.918,0.13021 1.62113,0.19531 2.1094,0.19531c0.39713,0 0.63476,-0.13997 0.71289,-0.41992c0.03907,-0.13672 0.07487,-0.41667 0.10742,-0.83985h-6.9531c-0.00667,0.05207 -0.01643,0.10741 -0.0293,0.16602c-0.0586,0.34505 -0.11394,0.67057 -0.16602,0.97656l-2.0215,-0.19531c0.39713,-2.35027 0.66406,-4.1276 0.80078,-5.332l0.0293,-0.23438h-1.9531v-1.7578h2.1582c0.18229,-1.57553 0.33854,-3.02737 0.46875,-4.3555zM291.5881,177.4992h-2.1387c-0.01953,0.33203 -0.07813,1.0319 -0.17578,2.0996l-0.0586,0.55664h2.168l0.0293,-0.27344c0.013,-0.1888 0.03253,-0.45247 0.0586,-0.79101c0.06513,-0.91147 0.1042,-1.44207 0.11719,-1.5918zM293.5119,177.4992c-0.03253,0.77473 -0.08136,1.63087 -0.14648,2.5684v0.0879h2.2949c0.02607,-0.89193 0.04887,-1.77733 0.0684,-2.6562zM291.2267,181.9133h-2.1973c-0.09765,0.79427 -0.20182,1.57877 -0.3125,2.3535l-0.0781,0.54687h2.2852c0.15625,-1.41273 0.25717,-2.37953 0.30274,-2.9004zM293.2287,181.9133c-0.01953,0.26042 -0.0586,0.69012 -0.11719,1.2891l-0.15625,1.6113h2.4902c0.03253,-0.63151 0.05857,-1.10677 0.0781,-1.4258c0.03907,-0.6966 0.0651,-1.18813 0.0781,-1.4746zM289.4006,172.2746h9.4336v1.8164h-10.244c-0.52735,1.0742 -1.19791,2.09633 -2.0117,3.0664l-1.3965,-1.5234c1.28253,-1.50393 2.194,-3.2357 2.7344,-5.1953l2.0801,0.21485c-0.23437,0.67707 -0.43294,1.21743 -0.5957,1.6211zM284.0197,175.1164c-0.8008,-1.10027 -1.7741,-2.13217 -2.9199,-3.0957l1.4746,-1.4258c1.0612,0.78127 2.07033,1.7676 3.0274,2.959zM283.31657,180.2726c-0.9896,-1.26953 -1.98893,-2.334 -2.998,-3.1934l1.5234,-1.4648c1.1328,0.89193 2.15167,1.90757 3.0566,3.0469zM280.66037,187.9386c1.1328,-1.569 2.20703,-3.63607 3.2227,-6.2012l1.7383,1.2402c-0.84633,2.3698 -1.93357,4.54427 -3.2617,6.5234z" fill="#ffffff" stroke-width="1"/></g></g></svg>