<svg version="1.1" xmlns="http://www.w3.org/2000/svg" xmlns:xlink="http://www.w3.org/1999/xlink" width="168.1" height="43.655" viewBox="0,0,168.1,43.655"><g transform="translate(-240,-180)"><g data-paper-data="{&quot;isPaintingLayer&quot;:true}" stroke="none" stroke-linecap="butt" stroke-linejoin="miter" stroke-miterlimit="10" stroke-dasharray="" stroke-dashoffset="0" style="mix-blend-mode: normal"><path d="M248,180h152.1c4.432,0 8,3.568 8,8v27.655c0,4.432 -3.568,8 -8,8h-152.1c-4.432,0 -8,-3.568 -8,-8v-27.655c0,-4.432 3.568,-8 8,-8z" fill-opacity="0.7" fill="#000000" fill-rule="evenodd" stroke-width="0"/><path d="M254.02,187.62v7.0234h-0.92969v-0.60938h-4.1875v0.60938h-0.92188v-7.0234zM248.9028,188.41297v1.9414h4.1875v-1.9414zM248.9028,191.12387v2.0938h4.1875v-2.0938z" fill="#ffffff" fill-rule="nonzero" stroke-width="1"/><path d="M259.71,189.41c0.85413,1.2448 1.9036,2.2409 3.1484,2.9883l-0.55468,0.75391c-1.27347,-0.93227 -2.2422,-1.94007 -2.9062,-3.0234v2.3828h1.6016v0.76953h-1.5859v1.5234h-0.8789v-1.5234h-1.4961v-0.76953h1.5117v-2.3438c-0.64063,1.18493 -1.57943,2.24353 -2.8164,3.1758l-0.5664,-0.70312c1.2578,-0.83333 2.27603,-1.91017 3.0547,-3.2305h-2.832v-0.80078h3.1367v-1.4062h0.89453v1.4062h3.1875v0.80078z" fill="#ffffff" fill-rule="nonzero" stroke-width="1"/><path d="M270.11,189.32c0,0.1224 -0.01173,0.70313 -0.0352,1.7422h0.7461v0.70312h-0.76172c-0.0078,0.34115 -0.02473,0.72788 -0.0508,1.1602h0.66015v0.6875h-0.71094c-0.03127,0.37761 -0.07423,0.62761 -0.1289,0.75c-0.1224,0.29167 -0.41928,0.4375 -0.89063,0.4375c-0.30208,0 -0.58072,-0.02213 -0.83593,-0.0664l-0.14454,-0.69531c0.36719,0.05207 0.64844,0.0781 0.84375,0.0781c0.15886,0 0.25391,-0.05599 0.28516,-0.16797c0.0156,-0.05467 0.02993,-0.16665 0.043,-0.33594h-2.7812c-0.00267,0.0208 -0.00657,0.04293 -0.0117,0.0664c-0.02347,0.13802 -0.0456,0.26823 -0.0664,0.39062l-0.80859,-0.0781c0.15885,-0.94013 0.26562,-1.65107 0.32031,-2.1328l0.0117,-0.0937h-0.78125v-0.70312h0.86328c0.07292,-0.63021 0.13542,-1.21094 0.1875,-1.7422zM267.6412,189.99969h-0.85547c-0.0078,0.13281 -0.03123,0.41276 -0.0703,0.83984l-0.0234,0.22266h0.86719l0.0117,-0.10938c0.00533,-0.07552 0.01313,-0.18099 0.0234,-0.3164c0.02607,-0.36459 0.0417,-0.57683 0.0469,-0.63672zM268.41073,189.99969c-0.013,0.30989 -0.03253,0.65233 -0.0586,1.0273v0.0352h0.91796c0.0104,-0.35677 0.01953,-0.71094 0.0274,-1.0625zM267.49667,191.76529h-0.87891c-0.03907,0.31771 -0.08073,0.63152 -0.125,0.94141l-0.0312,0.21875h0.91406c0.06247,-0.56511 0.10283,-0.95184 0.1211,-1.1602zM268.29745,191.76529c-0.0078,0.10417 -0.02343,0.27604 -0.0469,0.51563l-0.0625,0.64453h0.9961c0.013,-0.25261 0.0234,-0.44271 0.0312,-0.57031c0.0156,-0.27865 0.026,-0.47526 0.0312,-0.58985zM266.76625,187.90979h3.7734v0.72656h-4.0977c-0.21094,0.42969 -0.47917,0.83855 -0.80469,1.2266l-0.55859,-0.60937c0.51302,-0.60157 0.87762,-1.29427 1.0938,-2.0781l0.83203,0.08594c-0.09375,0.27083 -0.17318,0.48698 -0.23828,0.64844zM264.61385,189.04649c-0.32031,-0.4401 -0.70964,-0.85287 -1.168,-1.2383l0.58984,-0.57031c0.42448,0.3125 0.82811,0.70703 1.2109,1.1836zM264.3326,191.10899c-0.39583,-0.50781 -0.79557,-0.93357 -1.1992,-1.2773l0.60937,-0.58594c0.45313,0.35677 0.86069,0.76304 1.2227,1.2188zM263.2701,194.17539c0.45313,-0.62761 0.88283,-1.45444 1.2891,-2.4805l0.69531,0.4961c-0.33854,0.94793 -0.77344,1.81773 -1.3047,2.6094z" fill="#ffffff" fill-rule="nonzero" stroke-width="1"/><path d="M276.31,190.43v0.33203h1.8477v1.9453h0.6875v0.65625h-0.6875v0.72656c0,0.23698 -0.05729,0.40625 -0.17188,0.50781c-0.11198,0.10157 -0.30729,0.15235 -0.58594,0.15235c-0.35156,0 -0.68229,-0.01953 -0.99218,-0.0586l-0.13672,-0.70312c0.38021,0.04167 0.68489,0.0625 0.91406,0.0625c0.10417,0 0.16536,-0.02473 0.18359,-0.0742c0.0104,-0.02867 0.0156,-0.07554 0.0156,-0.14063v-0.49609h-2.8867v1.457h-0.76172v-1.4336h-0.73437v-0.65625h0.73437v-1.9453h1.8008v-0.33203h-2.4883v-0.61718h1.3945v-0.44143h-0.90625v-0.55078h0.90625v-0.41406h-1.1719v-0.60938h1.1719v-0.60156h0.77344v0.60156h1.3672v-0.60156h0.80859v0.60156h1.2227v0.60938h-1.2227v0.41406h0.93359v0.55078h-0.93359v0.44141h1.4141v0.61718zM275.56,191.32063h-1.0625v0.43359h1.0625zM276.27875,191.32063v0.43359h1.1055v-0.43359zM275.56,192.27375h-1.0625v0.44922h1.0625zM276.27875,192.27375v0.44922h1.1055v-0.44922zM276.58344,188.40655h-1.3672v0.41406h1.3672zM276.58344,189.37139h-1.3672v0.44141h1.3672zM272.54824,189.01201c-0.27083,-0.38021 -0.64063,-0.77994 -1.1094,-1.1992l0.59765,-0.5625c0.38802,0.29167 0.76952,0.67577 1.1445,1.1523zM272.30996,191.02761c-0.39844,-0.50521 -0.78517,-0.91797 -1.1602,-1.2383l0.60938,-0.57813c0.39843,0.3099 0.79557,0.71223 1.1914,1.207zM271.24746,194.17991c0.43229,-0.69013 0.86849,-1.62113 1.3086,-2.793l0.6836,0.4336c-0.32552,1.02607 -0.74219,2.00913 -1.25,2.9492z" fill="#ffffff" fill-rule="nonzero" stroke-width="1"/><path d="M286.11,189.32c0,0.1224 -0.01173,0.70313 -0.0352,1.7422h0.7461v0.70312h-0.76172c-0.0078,0.34115 -0.02473,0.72788 -0.0508,1.1602h0.66015v0.6875h-0.71094c-0.03127,0.37761 -0.07423,0.62761 -0.1289,0.75c-0.1224,0.29167 -0.41928,0.4375 -0.89063,0.4375c-0.30208,0 -0.58072,-0.02213 -0.83593,-0.0664l-0.14454,-0.69531c0.36719,0.05207 0.64844,0.0781 0.84375,0.0781c0.15886,0 0.25391,-0.05599 0.28516,-0.16797c0.0156,-0.05467 0.02993,-0.16665 0.043,-0.33594h-2.7812c-0.00267,0.0208 -0.00657,0.04293 -0.0117,0.0664c-0.02347,0.13802 -0.0456,0.26823 -0.0664,0.39062l-0.80859,-0.0781c0.15885,-0.94013 0.26562,-1.65107 0.32031,-2.1328l0.0117,-0.0937h-0.78125v-0.70312h0.86328c0.07292,-0.63021 0.13542,-1.21094 0.1875,-1.7422zM283.6412,189.99969h-0.85547c-0.0078,0.13281 -0.03123,0.41276 -0.0703,0.83984l-0.0234,0.22266h0.86719l0.0117,-0.10938c0.00533,-0.07552 0.01313,-0.18099 0.0234,-0.3164c0.02607,-0.36459 0.0417,-0.57683 0.0469,-0.63672zM284.41073,189.99969c-0.013,0.30989 -0.03253,0.65233 -0.0586,1.0273v0.0352h0.91796c0.0104,-0.35677 0.01953,-0.71094 0.0274,-1.0625zM283.49667,191.76529h-0.87891c-0.03907,0.31771 -0.08073,0.63152 -0.125,0.94141l-0.0312,0.21875h0.91406c0.06247,-0.56511 0.10283,-0.95184 0.1211,-1.1602zM284.29745,191.76529c-0.0078,0.10417 -0.02343,0.27604 -0.0469,0.51563l-0.0625,0.64453h0.9961c0.013,-0.25261 0.0234,-0.44271 0.0312,-0.57031c0.0156,-0.27865 0.026,-0.47526 0.0312,-0.58985zM282.76625,187.90979h3.7734v0.72656h-4.0977c-0.21094,0.42969 -0.47917,0.83855 -0.80469,1.2266l-0.55859,-0.60937c0.51302,-0.60157 0.87762,-1.29427 1.0938,-2.0781l0.83203,0.08594c-0.09375,0.27083 -0.17318,0.48698 -0.23828,0.64844zM280.61385,189.04649c-0.32031,-0.4401 -0.70964,-0.85287 -1.168,-1.2383l0.58984,-0.57031c0.42448,0.3125 0.82811,0.70703 1.2109,1.1836zM280.3326,191.10899c-0.39583,-0.50781 -0.79557,-0.93357 -1.1992,-1.2773l0.60937,-0.58594c0.45313,0.35677 0.86069,0.76304 1.2227,1.2188zM279.2701,194.17539c0.45313,-0.62761 0.88283,-1.45444 1.2891,-2.4805l0.69531,0.4961c-0.33854,0.94793 -0.77344,1.81773 -1.3047,2.6094z" fill="#ffffff" fill-rule="nonzero" stroke-width="1"/><path d="M289.27,192.96v-3.625l0.25,-0.0156c1.6276,-0.08593 2.96743,-0.25911 4.0195,-0.51953l0.53125,0.64453c-0.4349,0.11198 -0.95573,0.21094 -1.5625,0.29688l-0.16016,0.0234c0.0156,0.26042 0.04945,0.57813 0.10156,0.95313l2.0274,-0.0859l0.0391,0.67188l-1.9414,0.0898c0.16407,0.71613 0.40365,1.29557 0.71875,1.7383c0.11719,0.16146 0.23698,0.29297 0.35938,0.39453c0.09895,0.07813 0.16536,0.11719 0.19922,0.11719c0.09895,0 0.18489,-0.39973 0.25781,-1.1992l0.74219,0.48047c-0.07553,0.55989 -0.16277,0.96616 -0.26172,1.2188c-0.13021,0.32292 -0.31902,0.48438 -0.56641,0.48438c-0.20833,0 -0.45703,-0.11328 -0.74609,-0.33985c-0.34635,-0.27343 -0.65495,-0.64193 -0.92578,-1.1055c-0.23959,-0.41406 -0.4362,-0.99609 -0.58985,-1.7461l-1.668,0.0586v1.3086c0.57813,-0.11719 1.14843,-0.2526 1.7109,-0.40625l0.0703,0.67187c-0.94793,0.28125 -1.95053,0.51563 -3.0078,0.70313l-0.25391,-0.71094c0.1875,-0.02867 0.40625,-0.06252 0.65625,-0.10156zM291.5356,189.8584l-0.0937,0.0117c-0.34115,0.03387 -0.79038,0.06772 -1.3477,0.10157v0.85156l1.5508,-0.0625c-0.05207,-0.35677 -0.08852,-0.65756 -0.10937,-0.90235zM291.64497,187.9326h2.918v0.72657h-5.9492v1.8867c0,1.09633 -0.05338,1.9544 -0.16015,2.5742c-0.10677,0.60938 -0.30469,1.16798 -0.59375,1.6758l-0.70313,-0.58593c0.26563,-0.48438 0.44011,-1.06641 0.52344,-1.7461c0.06247,-0.5 0.0937,-1.13933 0.0937,-1.918v-2.6133h2.9844v-0.73437h0.88671zM289.03557,193.9521h3.5664v0.70313h-3.5664z" fill="#ffffff" fill-rule="nonzero" stroke-width="1"/><path d="M299.09,190.36v3.0938c0,0.20052 0.08594,0.32161 0.25781,0.36328c0.17709,0.04427 0.58202,0.0664 1.2148,0.0664c0.61719,0 1.02472,-0.03123 1.2226,-0.0937c0.11198,-0.03647 0.1849,-0.13803 0.21875,-0.30469c0.04427,-0.23437 0.0677,-0.51172 0.0703,-0.83203l0.81641,0.23047c-0.04167,0.7682 -0.14714,1.25907 -0.31641,1.4726c-0.11197,0.14063 -0.28124,0.22396 -0.50781,0.25c-0.35677,0.03907 -0.96223,0.0586 -1.8164,0.0586c-0.66146,0 -1.09506,-0.01823 -1.3008,-0.0547c-0.30989,-0.05207 -0.50651,-0.18879 -0.58984,-0.41016c-0.04167,-0.11719 -0.0625,-0.27344 -0.0625,-0.46875v-3.0976l-0.74609,0.25781l-0.1836,-0.75781l0.92969,-0.32031v-2.1055h0.79297v1.832l0.83984,-0.28516v-2.0586h0.78516v1.7852l1.3086,-0.44921l0.41016,0.25v2.9258c0,0.20312 -0.04818,0.35416 -0.14453,0.45312c-0.10937,0.10937 -0.29297,0.16406 -0.55078,0.16406c-0.21094,0 -0.4349,-0.01823 -0.67188,-0.0547l-0.1289,-0.7461c0.15364,0.03907 0.30989,0.0586 0.46875,0.0586c0.11458,0 0.18489,-0.02343 0.21093,-0.0703c0.02607,-0.03907 0.0391,-0.10417 0.0391,-0.19531v-1.8476l-0.94141,0.32812v3.1602h-0.78516v-2.8906zM296.2189,189.0827v-1.8867h0.83984v1.8867h0.75781v0.79297h-0.75781v2.4844c0.27344,-0.09375 0.54427,-0.1914 0.8125,-0.29297l0.0742,0.75391c-0.84373,0.38541 -1.70963,0.70833 -2.5977,0.96875l-0.27344,-0.83203c0.40105,-0.10417 0.75261,-0.20313 1.0547,-0.29688c0.03647,-0.013 0.06643,-0.0221 0.0899,-0.0273v-2.7578h-0.99219v-0.79297z" fill="#ffffff" fill-rule="nonzero" stroke-width="1"/><path d="M306.56,188.25v-0.33594h-2.4414v-0.5586h5.7656v0.5586h-2.4922v0.33594h3.2344v1.4023h-0.84766v-0.89844h-2.3867v1.5195h-0.83203v-1.5195h-2.3438v0.89844h-0.83984v-1.4023zM309.3256,193.793c0.39843,0.15105 0.89583,0.27084 1.4922,0.35938l-0.45704,0.66406c-0.83593,-0.14323 -1.52213,-0.38932 -2.0586,-0.73828c-0.53385,-0.34896 -0.94922,-0.78256 -1.2461,-1.3008h-0.86328v1.2031c0.57552,-0.08073 1.10939,-0.16666 1.6016,-0.25781l0.0547,0.58203c-0.91667,0.21875 -1.96483,0.40886 -3.1445,0.57032l-0.23046,-0.6875c0.40885,-0.04427 0.6888,-0.0755 0.83984,-0.0937l0.0469,-0.008v-1.3086h-0.85546c-0.03647,0.45833 -0.09636,0.82423 -0.17969,1.0977c-0.09896,0.32812 -0.25781,0.63411 -0.47656,0.91796l-0.69532,-0.57421c0.25521,-0.33073 0.41407,-0.71747 0.47657,-1.1602c0.03387,-0.23959 0.0508,-0.53776 0.0508,-0.89453v-1.6562h6.7422v0.51953h-5.9023v1.1992h6.2383v0.55078h-0.88672l0.4961,0.32812c-0.29427,0.24479 -0.64194,0.47396 -1.043,0.6875zM308.71622,193.49222c0.375,-0.25521 0.67318,-0.49349 0.89453,-0.71484h-1.707c0.22396,0.28646 0.49479,0.52474 0.8125,0.71484zM304.56002,189.04302h1.6641v0.44141h-1.6641zM304.56002,189.76177h1.6641v0.44922h-1.6641zM307.72802,189.04302h1.7148v0.44141h-1.7148zM307.72802,189.76177h1.7148v0.44922h-1.7148zM304.98582,191.35557h4.8633v0.51172h-4.8633z" fill="#ffffff" fill-rule="nonzero" stroke-width="1"/><path d="M316.2,190.99v0.55859h2.1289v0.64063h-2.1289v0.57421h2.4492v0.6875h-2.4492v1.3477h-0.83985v-1.3477h-2.2461v-0.6875h2.2461v-0.57421h-1.9102v-0.64063h1.9102v-0.55859h-1.6875v-0.59375h1.6875v-0.61328h-2.3438v-0.63282h2.3438v-0.60156h-1.6484v-0.61719h1.6484v-0.73437h0.83985v0.73437h1.9531v1.2188h0.67969v0.63282h-0.67969v1.207zM316.2,190.39625h1.1367v-0.61328h-1.1367zM316.2,189.15015h1.1367v-0.60156h-1.1367zM312.6023,189.05245c-0.32552,-0.44792 -0.71485,-0.86069 -1.168,-1.2383l0.60547,-0.57032c0.48959,0.375 0.88802,0.76953 1.1953,1.1836zM312.32886,191.08365c-0.3776,-0.4974 -0.77213,-0.92057 -1.1836,-1.2695l0.60156,-0.58594c0.41927,0.31771 0.82944,0.72264 1.2305,1.2148zM311.28196,194.19695c0.5,-0.81773 0.92577,-1.7383 1.2773,-2.7617l0.6836,0.48047c-0.32552,1.03647 -0.73439,1.9909 -1.2266,2.8633z" fill="#ffffff" fill-rule="nonzero" stroke-width="1"/><path d="M324.96,193.1c0.50261,0.35677 1.14324,0.66146 1.9219,0.91406l-0.4375,0.78125c-0.82033,-0.32291 -1.4974,-0.69661 -2.0312,-1.1211c-0.55209,0.49219 -1.17839,0.88282 -1.8789,1.1719l-0.54687,-0.61719c0.72133,-0.25521 1.34373,-0.61327 1.8672,-1.0742c-0.59375,-0.65625 -1.01951,-1.34375 -1.2773,-2.0625h-0.15234c-0.0156,0.70313 -0.0781,1.3112 -0.1875,1.8242c-0.13542,0.63281 -0.38933,1.23828 -0.76172,1.8164l-0.63281,-0.57812c0.34375,-0.55989 0.56901,-1.18619 0.67578,-1.8789c0.06771,-0.43229 0.10156,-0.91795 0.10156,-1.457v-2.5352h2.0469v-1.0859h0.83204v1.0859h1.793l0.40625,0.35156c-0.16145,0.53646 -0.35025,1.02733 -0.5664,1.4726l-0.79297,-0.23437c0.17187,-0.28125 0.29948,-0.56381 0.38281,-0.84766h-1.2226v1.3789h1.2969l0.39063,0.33594c-0.3099,0.92967 -0.71877,1.71613 -1.2266,2.3594zM324.36235,192.60781c0.39323,-0.49739 0.66536,-1.00259 0.8164,-1.5156h-1.8711c0.24479,0.55208 0.59636,1.05728 1.0547,1.5156zM323.66703,189.02581h-1.2383v1.3789h1.2383zM320.76473,189.2055c-0.34375,-0.46615 -0.76561,-0.90365 -1.2656,-1.3125l0.60937,-0.58984c0.48698,0.35156 0.92448,0.76433 1.3125,1.2383zM320.40926,191.0922c-0.37239,-0.47917 -0.78776,-0.90757 -1.2461,-1.2852l0.60156,-0.58593c0.45052,0.32031 0.87892,0.72784 1.2852,1.2226zM319.25306,194.182c0.48959,-0.7344 0.92319,-1.62503 1.3008,-2.6719l0.70703,0.48828c-0.34895,1.03907 -0.77082,1.97787 -1.2656,2.8164z" fill="#ffffff" fill-rule="nonzero" stroke-width="1"/><path d="M330.02,191.02v0.47265h0.78907v0.53516h-0.78907v0.48047h0.78907v0.52734h-0.78907v0.53516h0.98829v0.36328c0.47395,-0.34115 0.74999,-0.96095 0.82812,-1.8594h-0.64844v-4.5742h3.1758v4.5742h-0.75v1.6875c0,0.08073 0.02083,0.13021 0.0625,0.14844c0.04427,0.0208 0.10677,0.0312 0.1875,0.0312c0.16667,0 0.26563,-0.05729 0.29688,-0.17187c0.04167,-0.15105 0.0638,-0.47266 0.0664,-0.96485l0.66406,0.23047c-0.0208,0.7396 -0.07939,1.19403 -0.17578,1.3633c-0.11459,0.19792 -0.41276,0.29688 -0.89453,0.29688c-0.32553,0 -0.54167,-0.01953 -0.64844,-0.0586c-0.19011,-0.07031 -0.28516,-0.23567 -0.28516,-0.49609v-2.0664h-0.29297l-0.004,0.0508c-0.05467,0.67967 -0.19139,1.22003 -0.41016,1.6211c-0.23177,0.42448 -0.61327,0.77995 -1.1445,1.0664l-0.46484,-0.625h-2.0156v0.48828h-0.75v-2.9609c-0.125,0.14583 -0.25651,0.28385 -0.39453,0.41406l-0.38281,-0.6875c0.55989,-0.51823 0.99739,-1.10936 1.3125,-1.7734h-1.1289v-0.64843h0.66797l-0.5625,-0.41407c0.36198,-0.40104 0.63021,-0.87631 0.80469,-1.4258l0.76172,0.11328c-0.05727,0.17188 -0.12107,0.33985 -0.19141,0.50391h2.168v0.63281h-1.2891c-0.04687,0.19531 -0.10546,0.39193 -0.17579,0.58985h1.6133v0.64843h-1.918c-0.11459,0.27865 -0.2474,0.54297 -0.39844,0.79297h0.70312c0.11719,-0.27604 0.20183,-0.52734 0.25391,-0.7539l0.70703,0.21093c-0.07552,0.18229 -0.16146,0.36328 -0.25781,0.54297h0.87891v0.5586zM329.29735,191.02h-0.74219v0.47265h0.74219zM329.29735,192.0278h-0.74219v0.48047h0.74219zM329.29735,193.0356h-0.74219v0.53516h0.74219zM328.80516,188.4301h-0.45312c-0.125,0.19792 -0.27604,0.39454 -0.45313,0.58985h0.71484c0.06771,-0.1875 0.13152,-0.38412 0.19141,-0.58985zM331.93016,188.18792v0.67187h1.6758v-0.67187zM331.93016,189.46132v0.66407h1.6758v-0.66407zM331.93016,190.73472v0.68359h1.6758v-0.68359z" fill="#ffffff" fill-rule="nonzero" stroke-width="1"/><path d="M339.82,187.51v5.3594h-2.4531v-5.3594zM338.07,188.20531v0.87891h1.0625v-0.87891zM338.07,189.71701v0.87891h1.0625v-0.87891zM338.07,191.19751v0.98437h1.0625v-0.98437zM336.4372,188.97481c-0.30469,-0.41146 -0.67059,-0.79819 -1.0977,-1.1602l0.58594,-0.5625c0.40104,0.29167 0.77734,0.66277 1.1289,1.1133zM336.22235,190.97481c-0.42448,-0.53385 -0.80078,-0.94532 -1.1289,-1.2344l0.60156,-0.57422c0.35677,0.28906 0.74087,0.68619 1.1523,1.1914zM335.15595,194.19751c0.45833,-0.7344 0.8802,-1.6732 1.2656,-2.8164l0.66406,0.45703c-0.30208,1.05467 -0.70701,2.05467 -1.2148,3zM339.55825,194.62329c-0.18489,-0.50261 -0.42838,-0.97004 -0.73047,-1.4023l0.59375,-0.33594c0.32031,0.3776 0.59505,0.8099 0.82422,1.2969zM340.35512,187.79909h0.77735v5.0312h-0.77735zM336.87072,194.27569c0.39063,-0.37239 0.67839,-0.82033 0.86328,-1.3438l0.67969,0.36328c-0.26042,0.66146 -0.56771,1.15626 -0.92188,1.4844zM341.73402,187.29519h0.80859v6.6875c0,0.33855 -0.10417,0.55469 -0.3125,0.64844c-0.11979,0.05207 -0.30338,0.0781 -0.55078,0.0781c-0.34635,0 -0.66146,-0.02083 -0.94531,-0.0625l-0.13672,-0.79297c0.40625,0.04167 0.71094,0.0625 0.91406,0.0625c0.10417,0 0.16927,-0.02083 0.19532,-0.0625c0.0182,-0.03387 0.0273,-0.10027 0.0273,-0.19922z" fill="#ffffff" fill-rule="nonzero" stroke-width="1"/><path d="M344.07,190.07c-0.26563,-0.44271 -0.58464,-0.88151 -0.95703,-1.3164l0.43359,-0.5664c0.09636,0.10937 0.16537,0.1888 0.20704,0.23828c0.22656,-0.38802 0.42708,-0.81642 0.60156,-1.2852l0.67578,0.33594c-0.23177,0.46093 -0.52865,0.9466 -0.89063,1.457c0.12761,0.17708 0.24349,0.35416 0.34766,0.53125l0.0273,-0.043c0.28907,-0.43489 0.56771,-0.88933 0.83594,-1.3633l0.58594,0.41016c-0.47656,0.7578 -0.99739,1.47653 -1.5625,2.1562c0.4375,-0.03647 0.72656,-0.0625 0.86719,-0.0781c0.03647,-0.00533 0.0651,-0.00923 0.0859,-0.0117c-0.04687,-0.16927 -0.10806,-0.34635 -0.18359,-0.53125l0.53516,-0.22656c0.20573,0.44271 0.35026,0.95051 0.43359,1.5234l-0.57812,0.26172c-0.01827,-0.17709 -0.0404,-0.32683 -0.0664,-0.44922c-0.09896,0.0182 -0.26302,0.04683 -0.49219,0.0859v3.5977h-0.73437v-3.4961c-0.03387,0.00533 -0.07423,0.01053 -0.1211,0.0156c-0.17448,0.02347 -0.45443,0.0521 -0.83984,0.0859l-0.15234,-0.70313c0.10156,-0.00533 0.19791,-0.01053 0.28906,-0.0156l0.1914,-0.0117c0.15365,-0.18489 0.30729,-0.38541 0.46094,-0.60156zM348.2341,191.6833v0.67969c0,0.14583 0.02863,0.23177 0.0859,0.25781c0.05207,0.02347 0.19009,0.0352 0.41406,0.0352c0.23177,0 0.50782,-0.01693 0.82813,-0.0508v0.67188c-0.3125,0.03387 -0.60807,0.0508 -0.88672,0.0508c-0.52604,0 -0.84765,-0.04557 -0.96484,-0.13672c-0.10938,-0.08593 -0.16407,-0.2552 -0.16407,-0.50781v-1h-0.44921v-0.64063h0.90625v-0.77343h-0.90625v-0.63282h1.4336c0.21094,-0.46354 0.3737,-0.90884 0.48828,-1.3359l0.67969,0.24609c-0.13802,0.375 -0.30339,0.73827 -0.4961,1.0898h0.50391v0.63282h-0.97656v0.77343h0.97656v0.64063zM350.656,187.4997v6.4961c0,0.26302 -0.0625,0.44792 -0.1875,0.55469c-0.10677,0.09375 -0.29037,0.14062 -0.55078,0.14062c-0.27865,0 -0.55469,-0.01823 -0.82813,-0.0547l-0.13672,-0.73828c0.29427,0.04427 0.55599,0.0664 0.78516,0.0664c0.09896,0 0.15625,-0.02343 0.17188,-0.0703c0.013,-0.03127 0.0195,-0.09377 0.0195,-0.1875v-5.4805h-3.0742v6.5703h-0.71875v-7.2969zM343.1052,193.8435c0.13802,-0.61719 0.22396,-1.30599 0.25781,-2.0664l0.64453,0.0742c-0.03127,0.95053 -0.10809,1.71617 -0.23047,2.2969zM345.3943,193.60131c-0.08333,-0.72133 -0.17969,-1.29947 -0.28906,-1.7344l0.5664,-0.16797c0.14323,0.45833 0.26433,0.9948 0.36329,1.6094zM347.5115,189.62081c-0.11459,-0.39063 -0.25782,-0.73829 -0.42969,-1.043l0.58984,-0.23047c0.1875,0.29427 0.33985,0.63541 0.45704,1.0234z" fill="#ffffff" fill-rule="nonzero" stroke-width="1"/><path d="M352.4,188.64h1.1992v1.1992h-1.1992zM352.4,192.1595h1.1992v1.1992h-1.1992z" fill="#ffffff" fill-rule="nonzero" stroke-width="1"/><path d="M355.91,192.6c0.53646,0.60417 1.20053,0.90625 1.9922,0.90625c0.35937,0 0.64713,-0.07162 0.86328,-0.21485c0.25521,-0.17448 0.38281,-0.41667 0.38281,-0.72656c0,-0.28125 -0.11068,-0.51042 -0.33203,-0.6875c-0.14583,-0.11719 -0.4974,-0.28516 -1.0547,-0.50391l-0.14843,-0.0586l-0.26563,-0.10547c-0.0182,-0.0078 -0.05073,-0.02083 -0.0976,-0.0391c-0.57292,-0.21615 -0.94402,-0.39453 -1.1133,-0.53516c-0.02607,-0.02347 -0.0586,-0.05603 -0.0976,-0.0977c-0.27865,-0.29948 -0.41797,-0.66015 -0.41797,-1.082c0,-0.54427 0.19531,-0.98307 0.58594,-1.3164c0.40885,-0.34896 0.96092,-0.52344 1.6562,-0.52344c0.48437,0 0.91667,0.07161 1.2969,0.21484c0.30209,0.11719 0.60287,0.29688 0.90235,0.53907l-0.53907,0.75c-0.46093,-0.4375 -1.0117,-0.65625 -1.6523,-0.65625c-0.41927,0 -0.72396,0.09766 -0.91406,0.29297c-0.16146,0.16667 -0.24219,0.36849 -0.24219,0.60546c0,0.27083 0.11719,0.48698 0.35156,0.64844c0.14844,0.10417 0.46354,0.24219 0.94531,0.41406l0.3125,0.11329c0.68747,0.24739 1.15883,0.48958 1.4141,0.72656c0.35417,0.33073 0.53125,0.74609 0.53125,1.2461c0,0.61979 -0.24349,1.10286 -0.73047,1.4492c-0.40104,0.28385 -0.94791,0.42578 -1.6406,0.42578c-1.07813,0 -1.9414,-0.36587 -2.5898,-1.0976z" fill="#ffffff" fill-rule="nonzero" stroke-width="1"/><path d="M361.43,190.84h2.6719v0.80078h-2.6719z" fill="#ffffff" fill-rule="nonzero" stroke-width="1"/><path d="M366.41,189.52v0.81641c0.4375,-0.60417 0.98437,-0.90625 1.6406,-0.90625c0.46094,0 0.84374,0.13281 1.1484,0.39843c0.34375,0.29948 0.51563,0.78908 0.51563,1.4688v2.9414h-1.0547v-2.8086c0,-0.36979 -0.06901,-0.65365 -0.20703,-0.85157c-0.13281,-0.1901 -0.35677,-0.28515 -0.67188,-0.28515c-0.32291,0 -0.61588,0.13542 -0.8789,0.40625c-0.19271,0.19791 -0.34115,0.45312 -0.44532,0.76562v2.7734h-1.0547v-4.7188z" fill="#ffffff" fill-rule="nonzero" stroke-width="1"/><path d="M375.43,192.08h-3.5195c0.01827,0.41406 0.14848,0.74999 0.39063,1.0078c0.29167,0.30469 0.66277,0.45703 1.1133,0.45703c0.53125,0 1.00131,-0.2487 1.4102,-0.74609l0.625,0.63281c-0.51302,0.64583 -1.22395,0.96875 -2.1328,0.96875c-0.7448,0 -1.34507,-0.23828 -1.8008,-0.71484c-0.43489,-0.45833 -0.65234,-1.04947 -0.65234,-1.7734c0,-0.58854 0.14193,-1.10027 0.42578,-1.5352c0.2526,-0.38542 0.58983,-0.66537 1.0117,-0.83985c0.28906,-0.11979 0.59765,-0.17969 0.92578,-0.17969c0.52343,0 0.97003,0.14583 1.3398,0.4375c0.38281,0.29688 0.64063,0.71225 0.77344,1.2461c0.05987,0.24219 0.0898,0.49739 0.0898,0.76562zM374.3831,191.31828c-0.0208,-0.26823 -0.09111,-0.49218 -0.21094,-0.67187c-0.22656,-0.33073 -0.55208,-0.4961 -0.97656,-0.4961c-0.38021,0 -0.69271,0.15365 -0.9375,0.46094c-0.15104,0.19011 -0.24479,0.42578 -0.28125,0.70703z" fill="#ffffff" fill-rule="nonzero" stroke-width="1"/><path d="M378.11,188.05v1.4727h1.4727v0.74219h-1.4727v2.5664c0,0.25261 0.02997,0.42709 0.0899,0.52344c0.08073,0.13281 0.21484,0.19922 0.40234,0.19922c0.23177,0 0.47006,-0.09115 0.71485,-0.27344l0.25,0.72657c-0.38021,0.24219 -0.78125,0.36328 -1.2031,0.36328c-0.4375,0 -0.76823,-0.13021 -0.99219,-0.39063c-0.18489,-0.21615 -0.27734,-0.52865 -0.27734,-0.9375v-2.7773h-1.0547v-0.74219h1.0547v-1.0078z" fill="#ffffff" fill-rule="nonzero" stroke-width="1"/><path d="M380.34,188.15c2.39587,-0.03647 4.6602,-0.09767 6.793,-0.1836l0.0469,0.77735c-0.94013,0.04687 -1.6719,0.19009 -2.1953,0.42968c-0.5,0.22917 -0.90103,0.54688 -1.2031,0.95313c-0.34375,0.46094 -0.51563,0.97397 -0.51563,1.5391c0,0.5625 0.19531,0.98437 0.58594,1.2656c0.44792,0.32031 1.13542,0.54036 2.0625,0.66015l-0.18359,0.87891c-1.20833,-0.16146 -2.0586,-0.47396 -2.5508,-0.9375c-0.52865,-0.49479 -0.79297,-1.10939 -0.79297,-1.8438c0,-0.66667 0.23958,-1.28907 0.71875,-1.8672c0.34896,-0.42448 0.82683,-0.76561 1.4336,-1.0234c-1.07553,0.03647 -2.46227,0.09767 -4.1602,0.1836zM386.0197,191.5211c-0.15365,-0.40885 -0.41276,-0.87239 -0.77734,-1.3906l0.60937,-0.22657c0.32552,0.44792 0.58724,0.90625 0.78516,1.375zM387.0744,191.11094c-0.1849,-0.47917 -0.44271,-0.9453 -0.77344,-1.3984l0.58203,-0.20703c0.30469,0.36979 0.5638,0.81772 0.77735,1.3438z" fill="#ffffff" fill-rule="nonzero" stroke-width="1"/><path d="M392.28,193.61c1.52867,-0.38541 2.293,-1.26171 2.293,-2.6289c0,-0.59635 -0.15365,-1.10939 -0.46094,-1.5391c-0.34375,-0.48437 -0.86718,-0.79557 -1.5703,-0.93359c-0.15365,1.20833 -0.36328,2.19793 -0.6289,2.9688c-0.18229,0.53906 -0.40886,1.04816 -0.67969,1.5273c-0.39063,0.68227 -0.83463,1.0234 -1.332,1.0234c-0.36979,0 -0.69922,-0.16667 -0.98828,-0.5c-0.1849,-0.21094 -0.33464,-0.47005 -0.44922,-0.77734c-0.15105,-0.39844 -0.22657,-0.82684 -0.22657,-1.2852c0,-0.7422 0.20443,-1.4258 0.61329,-2.0508c0.41406,-0.63802 0.95183,-1.10155 1.6133,-1.3906c0.48177,-0.21093 1.0104,-0.3164 1.5859,-0.3164c0.89847,0 1.6615,0.24088 2.2891,0.72265c0.7708,0.59115 1.1562,1.42838 1.1562,2.5117c0,1.81513 -0.91797,2.96617 -2.7539,3.4531zM391.69407,188.4772c-0.46094,0.05207 -0.84634,0.17576 -1.1562,0.37109c-0.19792,0.12761 -0.39454,0.29688 -0.58985,0.50781c-0.54167,0.59896 -0.8125,1.29296 -0.8125,2.082c0,0.57552 0.11458,1.02605 0.34375,1.3516c0.14063,0.20052 0.27995,0.30078 0.41797,0.30078c0.1875,0 0.39844,-0.20703 0.63281,-0.62109c0.57292,-1.0078 0.96095,-2.33853 1.1641,-3.9922z" fill="#ffffff" fill-rule="nonzero" stroke-width="1"/><path d="M249.96,201.84c-0.02607,1.64587 -0.1068,2.69013 -0.24219,3.1328c-0.07031,0.22656 -0.18229,0.38541 -0.33594,0.47656c-0.14323,0.08593 -0.34765,0.1289 -0.61328,0.1289c-0.25,0 -0.5599,-0.02213 -0.92969,-0.0664l-0.16015,-0.77735c0.43489,0.05467 0.73958,0.082 0.91406,0.082c0.18229,0 0.29818,-0.04688 0.34766,-0.14063c0.09114,-0.16927 0.16145,-0.87241 0.21093,-2.1094h-1.0898c-0.00533,0.0182 -0.00923,0.04033 -0.0117,0.0664c-0.0156,0.10157 -0.04423,0.25782 -0.0859,0.46875l-0.76562,-0.11719c0.16146,-1.1354 0.26042,-2.10937 0.29687,-2.9219h1.5898v-0.98047h-1.832v-0.75391h2.6094v2.4609h-1.6328l-0.0195,0.33203c-0.0156,0.22657 -0.03513,0.46615 -0.0586,0.71875zM252.0069,200.2931l-0.14453,0.0117c-0.44271,0.03647 -0.98177,0.07162 -1.6172,0.10547l-0.1914,-0.75391c0.14323,-0.00267 0.26302,-0.00533 0.35937,-0.008c0.05467,0 0.12498,-0.00133 0.21094,-0.004c0.40365,-0.56511 0.74218,-1.12371 1.0156,-1.6758l0.81641,0.19141c-0.26563,0.45833 -0.59115,0.944 -0.97656,1.457l0.30469,-0.008c0.50781,-0.0156 1.07421,-0.04553 1.6992,-0.0898l-0.0664,-0.0859c-0.15625,-0.21354 -0.34375,-0.44531 -0.5625,-0.69531l0.65625,-0.34766c0.58854,0.65625 1.02864,1.25132 1.3203,1.7852l-0.67969,0.42578c-0.10937,-0.21093 -0.20312,-0.3802 -0.28125,-0.50781c-0.39843,0.05467 -0.7552,0.09764 -1.0703,0.12891v0.76953h1.6719v2.2383h-1.6719v1.3047c0.24219,-0.02607 0.5,-0.0547 0.77344,-0.0859l0.0859,-0.0117c-0.11719,-0.25521 -0.2461,-0.5026 -0.38672,-0.74219l0.7266,-0.28872c0.33594,0.51302 0.64323,1.13412 0.92187,1.8633l-0.76171,0.375c-0.09375,-0.26041 -0.17318,-0.46744 -0.23829,-0.62109l-0.29296,0.0469c-1.09893,0.17969 -2.22913,0.31771 -3.3906,0.41406l-0.21484,-0.76562c0.625,-0.02347 1.27343,-0.05993 1.9453,-0.10938l0.0391,-0.004v-1.375h-1.625v-2.2383h1.625zM252.0069,201.6486h-0.89844v0.92578h0.89844zM252.79987,201.6486v0.92578h0.91797v-0.92578z" fill="#ffffff" fill-rule="nonzero" stroke-width="1"/><path d="M258.56,199.05v-0.33594h-2.4414v-0.55859h5.7656v0.55859h-2.4922v0.33594h3.2344v1.4023h-0.84766v-0.89844h-2.3867v1.5195h-0.83203v-1.5195h-2.3438v0.89844h-0.83984v-1.4023zM261.3256,204.593c0.39843,0.15104 0.89583,0.27083 1.4922,0.35937l-0.45704,0.66406c-0.83593,-0.14323 -1.52213,-0.38932 -2.0586,-0.73828c-0.53385,-0.34896 -0.94922,-0.78256 -1.2461,-1.3008h-0.86328v1.2031c0.57552,-0.08073 1.10939,-0.16667 1.6016,-0.25782l0.0547,0.58203c-0.91667,0.21875 -1.96483,0.40886 -3.1445,0.57032l-0.23046,-0.6875c0.40885,-0.04427 0.6888,-0.0755 0.83984,-0.0937l0.0469,-0.008v-1.3086h-0.85546c-0.03647,0.45833 -0.09636,0.82423 -0.17969,1.0977c-0.09896,0.32812 -0.25781,0.63411 -0.47656,0.91797l-0.69532,-0.57422c0.25521,-0.33073 0.41407,-0.71747 0.47657,-1.1602c0.03387,-0.23958 0.0508,-0.53776 0.0508,-0.89453v-1.6562h6.7422v0.51953h-5.9023v1.1992h6.2383v0.55078h-0.88672l0.4961,0.32813c-0.29427,0.24479 -0.64194,0.47395 -1.043,0.6875zM260.71622,204.29221c0.375,-0.25521 0.67318,-0.49349 0.89453,-0.71484h-1.707c0.22396,0.28646 0.49479,0.52474 0.8125,0.71484zM256.56002,199.84301h1.6641v0.4414h-1.6641zM256.56002,200.56176h1.6641v0.44921h-1.6641zM259.72802,199.84301h1.7148v0.4414h-1.7148zM259.72802,200.56176h1.7148v0.44921h-1.7148zM256.98582,202.15556h4.8633v0.51171h-4.8633z" fill="#ffffff" fill-rule="nonzero" stroke-width="1"/><path d="M268.41,199.66l0.0391,-1.6562h0.78515l-0.0351,1.6562h1.4805c-0.02607,2.91147 -0.13544,4.6745 -0.32813,5.2891c-0.08333,0.26563 -0.23437,0.4349 -0.45312,0.50781c-0.11198,0.03907 -0.27865,0.0586 -0.5,0.0586c-0.28907,0 -0.56251,-0.01823 -0.82032,-0.0547l-0.15234,-0.82422c0.29948,0.05727 0.5638,0.0859 0.79297,0.0859c0.18489,0 0.30338,-0.05078 0.35547,-0.15234c0.04947,-0.09896 0.09764,-0.33854 0.14453,-0.71875c0.09375,-0.7552 0.15364,-1.83073 0.17969,-3.2266l0.004,-0.19531h-0.7539c-0.04427,1.15627 -0.18229,2.1146 -0.41407,2.875c-0.28385,0.92707 -0.72785,1.6966 -1.332,2.3086l-0.64062,-0.49609c0.1276,-0.11979 0.23046,-0.22656 0.30859,-0.32031c-1.30207,0.23698 -2.54947,0.41276 -3.7422,0.52734l-0.17578,-0.73828c0.64831,-0.03903 1.26415,-0.08719 1.8475,-0.14448v-0.54297h-1.6797v-0.61719h1.6797v-0.44531h-1.4961v-2.5664h1.4961v-0.43359h-1.8008v-0.60937h1.8008v-0.34766c-0.39323,0.03907 -0.84116,0.07292 -1.3438,0.10156l-0.28125,-0.60156c1.25,-0.05207 2.3659,-0.18748 3.3477,-0.40625l0.44531,0.56641c-0.42448,0.10677 -0.89061,0.1914 -1.3984,0.2539v0.4336h1.75v0.43359zM268.3748,200.42953h-0.87109v-0.59375h-1.7344v0.43359h1.5195v2.5664h-1.5195v0.44531h1.6172v0.61719h-1.6172v0.46484l0.32813,-0.0312c0.4375,-0.04427 0.91017,-0.10937 1.418,-0.19531c0.48959,-0.8932 0.77344,-2.09373 0.85157,-3.6016zM265.0232,200.79672h-0.84766v0.49609h0.84766zM265.74585,200.79672v0.49609h0.8711v-0.49609zM265.0232,201.77328h-0.84766v0.53516h0.84766zM265.74585,201.77328v0.53516h0.8711v-0.53516z" fill="#ffffff" fill-rule="nonzero" stroke-width="1"/><path d="M272.96,199.49v6.1133h-0.81641v-7.6016h0.81641v1.1836l0.375,-0.3125c0.22656,0.39323 0.40625,0.77213 0.53906,1.1367l-0.53125,0.52735c-0.13802,-0.44011 -0.26562,-0.78907 -0.38281,-1.0469zM276.5576,198.52125h2.0234v0.58594h-2.0234v0.375h1.7461v0.55859h-1.7461v0.38672h2.2812v0.625h-5.2656v-0.625h2.1758v-0.38672h-1.6953v-0.55859h1.6953v-0.375h-1.9258v-0.58594h1.9258v-0.51953h0.80859zM278.1826,201.46655v3.4297c0,0.23959 -0.05729,0.41407 -0.17187,0.52344c-0.11198,0.10677 -0.30339,0.16015 -0.57422,0.16015c-0.32031,0 -0.64974,-0.02213 -0.98828,-0.0664l-0.11328,-0.70313c0.34635,0.04167 0.62109,0.0625 0.82422,0.0625c0.10417,0 0.16667,-0.02603 0.1875,-0.0781c0.013,-0.03127 0.0195,-0.07944 0.0195,-0.14453v-0.50391h-2.3984v1.457h-0.81641v-4.1367zM274.9678,202.04077v0.45703h2.3984v-0.45703zM274.9678,203.07197v0.48047h2.3984v-0.48047zM271.0381,202.07978c0.11719,-0.54167 0.20182,-1.2422 0.25391,-2.1016l0.0195,-0.32031l0.66406,0.0625c-0.03127,1.1146 -0.12241,2.01953 -0.27344,2.7148z" fill="#ffffff" fill-rule="nonzero" stroke-width="1"/><path d="M280.77,198.82v-0.81641h0.81641v0.81641h1.2148v0.6875h-1.2148v0.67187h1.3828v0.69531h-0.46484c-0.08333,0.3099 -0.19531,0.63803 -0.33594,0.98438h0.7539v0.67969h-1.3359v0.72265h1.2852v0.69531h-1.2852v1.6484h-0.81641v-1.6484h-1.3789v-0.69531h1.3789v-0.72265h-1.4414v-0.67969h0.71875c-0.08333,-0.34635 -0.18489,-0.67448 -0.30468,-0.98438h-0.57422v-0.69531h1.6016v-0.67187h-1.2734v-0.6875zM281.74266,200.8747h-1.2422c0.08854,0.2474 0.18359,0.57553 0.28516,0.98438h0.64843c0.13542,-0.33333 0.23829,-0.66146 0.3086,-0.98438zM286.48096,198.2849v1.8281c0,0.22657 -0.04167,0.38672 -0.125,0.48047c-0.09896,0.11198 -0.30599,0.16797 -0.6211,0.16797c-0.30729,0 -0.61458,-0.01303 -0.92187,-0.0391l-0.13281,-0.70313c0.43229,0.04687 0.70703,0.0703 0.82422,0.0703c0.12239,0 0.18359,-0.05339 0.18359,-0.16016v-0.94141h-1.7109v2.2695h2.2148l0.46484,0.39843c-0.14063,0.82813 -0.39714,1.56773 -0.76953,2.2188l-0.043,0.0781c0.28646,0.33073 0.64453,0.63281 1.0742,0.90625l-0.4375,0.73047c-0.41146,-0.26563 -0.77866,-0.58334 -1.1016,-0.95313c-0.27865,0.35417 -0.59245,0.6875 -0.94141,1l-0.46094,-0.64062v0.60937h-0.79297v-7.3203zM283.97706,201.9607v2.9531c0.32031,-0.21875 0.62891,-0.52605 0.92578,-0.92188c-0.39843,-0.61458 -0.67838,-1.29165 -0.83984,-2.0312zM285.33646,203.3005c0.23177,-0.44791 0.38281,-0.89451 0.45312,-1.3398h-1.0078c0.12761,0.5 0.3125,0.9466 0.55469,1.3398z" fill="#ffffff" fill-rule="nonzero" stroke-width="1"/><path d="M287.88,199.1h2.1055c0.23177,-0.36979 0.40756,-0.66797 0.52735,-0.89454l0.87109,0.125c-0.07813,0.14063 -0.21615,0.36979 -0.41406,0.6875l-0.0508,0.082h2.7539v0.76953h-3.2734c-0.34115,0.46875 -0.66667,0.87501 -0.97657,1.2188c0.49219,-0.29427 0.94143,-0.44141 1.3477,-0.44141c0.63021,0 1.04297,0.31641 1.2383,0.94922c0.66667,-0.22135 1.34637,-0.4401 2.0391,-0.65625l0.33594,0.75781l-0.13672,0.0391l-0.38672,0.10157c-0.7292,0.19791 -1.31253,0.36718 -1.75,0.50781c0.03127,0.33854 0.0534,0.77604 0.0664,1.3125l-0.85547,0.0469c-0.00267,-0.30989 -0.00787,-0.64583 -0.0156,-1.0078v-0.0781c-1.19793,0.40885 -1.7969,0.82032 -1.7969,1.2344c0,0.21354 0.15365,0.35937 0.46094,0.4375c0.29687,0.07552 0.82814,0.11328 1.5938,0.11328c0.70573,0 1.44663,-0.04036 2.2227,-0.12109l0.0937,0.83203c-0.7526,0.05727 -1.53253,0.0859 -2.3398,0.0859c-0.9948,0 -1.70183,-0.07552 -2.1211,-0.22656c-0.51823,-0.1875 -0.77735,-0.52473 -0.77735,-1.0117c0,-0.41146 0.1836,-0.77473 0.55079,-1.0898c0.38021,-0.32552 1.04947,-0.66145 2.0078,-1.0078c-0.05207,-0.20052 -0.12108,-0.34114 -0.20703,-0.42187c-0.09635,-0.09115 -0.22396,-0.13672 -0.38282,-0.13672c-0.25781,0 -0.58202,0.09766 -0.97265,0.29297c-0.48177,0.23958 -0.99871,0.60025 -1.5508,1.082l-0.51953,-0.59375c0.80987,-0.7526 1.44397,-1.4922 1.9023,-2.2188h-1.5898z" fill="#ffffff" fill-rule="nonzero" stroke-width="1"/><path d="M300.39556,203.96l0.0547,0.69922c-1.1302,0.39843 -2.3867,0.72656 -3.7695,0.98437l-0.28906,-0.78125c0.23959,-0.03647 0.57812,-0.09506 1.0156,-0.17578v-1.4297c-0.45053,0.22917 -0.98699,0.44662 -1.6094,0.65235l-0.44531,-0.69532c1.2526,-0.33854 2.20833,-0.77084 2.8672,-1.2969h-2.7891v-0.67969h3.3477v-0.58984h-2.5313v-0.65625h2.5312v-0.55078h-2.9297v-0.67188h2.9297v-0.76953h0.85547v0.76953h3.0156v0.67188h-3.0156v0.55078h2.6172v0.65625h-2.6172v0.58984h3.4336v0.67969h-0.93359l0.57812,0.39844c-0.35677,0.34635 -0.85677,0.72525 -1.5,1.1367l-0.0898,0.0586c0.48958,0.44791 1.15365,0.81771 1.9922,1.1094l-0.52735,0.79297c-0.90887,-0.38541 -1.63933,-0.86978 -2.1914,-1.4531zM299.21196,201.9288c-0.26041,0.30469 -0.57421,0.57812 -0.9414,0.82031v1.7539c0.64323,-0.14323 1.28906,-0.3099 1.9375,-0.5l0.17968,-0.0508c-0.53385,-0.59114 -0.92579,-1.26561 -1.1758,-2.0234zM300.63776,202.9952c0.46355,-0.33073 0.86981,-0.69009 1.2188,-1.0781h-1.8476c0.16667,0.39843 0.3763,0.7578 0.6289,1.0781z" fill="#ffffff" fill-rule="nonzero" stroke-width="1"/><path d="M307.72556,201.33v3.4648c0,0.3151 -0.0638,0.52994 -0.1914,0.64453c-0.11979,0.10417 -0.35157,0.15625 -0.69532,0.15625c-0.39062,0 -0.76172,-0.02473 -1.1133,-0.0742l-0.16797,-0.82422c0.36459,0.05993 0.71355,0.0899 1.0469,0.0899c0.11198,0 0.18229,-0.01953 0.21094,-0.0586c0.0208,-0.03387 0.0312,-0.08986 0.0312,-0.16797v-3.2305h-3.3594v-0.77741h7.5273v0.77734zM304.42476,198.4355h5.6484v0.76953h-5.6484zM303.44039,204.4277c0.5625,-0.58854 1.01563,-1.37111 1.3594,-2.3477l0.80859,0.30469c-0.39843,1.1172 -0.89973,1.9948 -1.5039,2.6328zM310.14349,204.90426c-0.53906,-1.1406 -1.00779,-1.97523 -1.4062,-2.5039l0.73438,-0.4375c0.57291,0.737 1.06118,1.53907 1.4648,2.4062z" fill="#ffffff" fill-rule="nonzero" stroke-width="1"/><path d="M312.21556,198.33h0.92187v4.6562c0,0.9818 0.51563,1.4727 1.5469,1.4727c0.67967,0 1.23697,-0.3138 1.6719,-0.94141c0.28125,-0.40364 0.53386,-1.02864 0.75782,-1.875l0.79297,0.48047c-0.26563,0.94013 -0.58464,1.64327 -0.95704,2.1094c-0.58593,0.72653 -1.34767,1.0898 -2.2852,1.0898c-0.9792,0 -1.6693,-0.30208 -2.0703,-0.90625c-0.25261,-0.3776 -0.37891,-0.86457 -0.37891,-1.4609z" fill="#ffffff" fill-rule="nonzero" stroke-width="1"/><path d="M321.84556,198.18h0.86328v0.98438h2.457v0.74219h-2.457v0.92968h2.3203v0.73438h-2.3203v1.207c0.92707,0.3125 1.84113,0.78257 2.7422,1.4102l-0.46094,0.74218c-0.68227,-0.51041 -1.44267,-0.96095 -2.2812,-1.3516c-0.0208,0.44531 -0.10674,0.79038 -0.25781,1.0352c-0.26302,0.42448 -0.78125,0.63672 -1.5547,0.63672c-0.59635,0 -1.07552,-0.11198 -1.4375,-0.33594c-0.40365,-0.25 -0.60547,-0.58853 -0.60547,-1.0156c0,-0.51041 0.27214,-0.88801 0.81641,-1.1328c0.36459,-0.16146 0.83855,-0.24219 1.4219,-0.24219c0.22917,0 0.48047,0.01823 0.7539,0.0547v-1.0078h-2.7695v-0.73438h2.7695v-0.92968h-2.9375v-0.74219h2.9375zM321.84556,203.305c-0.30989,-0.06507 -0.60677,-0.0976 -0.89062,-0.0976c-0.34635,0 -0.6276,0.05078 -0.84375,0.15234c-0.25781,0.12239 -0.38672,0.29687 -0.38672,0.52344c0,0.1901 0.10026,0.34375 0.30078,0.46094c0.20313,0.11979 0.47396,0.17968 0.8125,0.17968c0.40104,0 0.67708,-0.10677 0.82812,-0.32031c0.11979,-0.16667 0.17969,-0.41536 0.17969,-0.74609z" fill="#ffffff" fill-rule="nonzero" stroke-width="1"/><path d="M330.13556,198.16h0.87891v1.0781h2.3047v0.75391h-2.3047v1.6719c0.09115,0.32031 0.13672,0.60547 0.13672,0.85547c0,0.92707 -0.20443,1.60807 -0.61329,2.043c-0.44531,0.47656 -1.11587,0.80599 -2.0117,0.98828l-0.44532,-0.66406c0.69533,-0.13281 1.21097,-0.32031 1.5469,-0.5625c0.3151,-0.22917 0.52734,-0.54037 0.63672,-0.9336c-0.27865,0.30469 -0.61068,0.45704 -0.9961,0.45704c-0.43229,0 -0.78255,-0.1224 -1.0508,-0.36719c-0.3151,-0.28907 -0.47265,-0.70833 -0.47265,-1.2578c0,-0.28907 0.06901,-0.56771 0.20703,-0.83594c0.09115,-0.17187 0.20312,-0.3151 0.33593,-0.42969c0.30729,-0.26041 0.67579,-0.39062 1.1055,-0.39062c0.27344,0 0.52084,0.0651 0.74219,0.19531v-0.76953h-3.8555v-0.75391h3.8555zM330.16676,202.2147v-0.14453c0,-0.16667 -0.03906,-0.3138 -0.11719,-0.4414c-0.14583,-0.23959 -0.35677,-0.35938 -0.63281,-0.35938c-0.14063,0 -0.27214,0.03906 -0.39453,0.11719c-0.28646,0.17969 -0.42969,0.45573 -0.42969,0.82812c0,0.23438 0.05208,0.4323 0.15625,0.59375c0.14583,0.22396 0.36068,0.33594 0.64453,0.33594c0.25781,0 0.46224,-0.11589 0.61328,-0.34766c0.10677,-0.16406 0.16016,-0.35807 0.16016,-0.58203z" fill="#ffffff" fill-rule="nonzero" stroke-width="1"/><path d="M248.02,209.27l2.9844,2.9844l2.9844,-2.9844l0.34375,0.34375l-2.9844,2.9844l2.9844,2.9844l-0.34375,0.34375l-2.9844,-2.9844l-2.9844,2.9844l-0.34375,-0.34375l2.9844,-2.9844l-2.9844,-2.9844zM248.30125,211.9419c0.10938,0 0.21355,0.02733 0.3125,0.082c0.22917,0.125 0.34375,0.3151 0.34375,0.57031c0,0.11459 -0.02863,0.22266 -0.0859,0.32422c-0.125,0.22396 -0.31641,0.33594 -0.57422,0.33594c-0.14844,0 -0.28125,-0.04687 -0.39844,-0.14062c-0.16927,-0.13021 -0.25391,-0.30209 -0.25391,-0.51563c0,-0.19011 0.06901,-0.35026 0.20704,-0.48047c0.1276,-0.11719 0.27734,-0.17578 0.44921,-0.17578zM251.00825,209.2349c0.10677,0 0.20963,0.02733 0.30859,0.082c0.22917,0.125 0.34375,0.3151 0.34375,0.57031c0,0.11459 -0.02863,0.22266 -0.0859,0.32422c-0.125,0.22396 -0.31641,0.33594 -0.57422,0.33594c-0.14583,0 -0.27864,-0.04688 -0.39843,-0.14063c-0.16927,-0.13021 -0.25391,-0.30208 -0.25391,-0.51562c0,-0.19011 0.07031,-0.35026 0.21094,-0.48047c0.125,-0.11719 0.27474,-0.17578 0.44922,-0.17578zM253.71135,211.9419c0.10677,0 0.20964,0.02733 0.30859,0.082c0.22917,0.125 0.34375,0.3151 0.34375,0.57031c0,0.11459 -0.02863,0.22266 -0.0859,0.32422c-0.125,0.22396 -0.31641,0.33594 -0.57422,0.33594c-0.14844,0 -0.28125,-0.04687 -0.39844,-0.14062c-0.16927,-0.13021 -0.25391,-0.30209 -0.25391,-0.51563c0,-0.19011 0.07031,-0.35026 0.21094,-0.48047c0.125,-0.11719 0.27474,-0.17578 0.44922,-0.17578zM251.00825,214.645c0.10677,0 0.20963,0.02733 0.30859,0.082c0.22917,0.125 0.34375,0.3151 0.34375,0.57031c0,0.11458 -0.02863,0.22265 -0.0859,0.32422c-0.125,0.22396 -0.31641,0.33594 -0.57422,0.33594c-0.14583,0 -0.27864,-0.04688 -0.39843,-0.14063c-0.16927,-0.13021 -0.25391,-0.30208 -0.25391,-0.51562c0,-0.19011 0.07031,-0.35026 0.21094,-0.48047c0.125,-0.11719 0.27474,-0.17578 0.44922,-0.17578z" fill="#ffffff" fill-rule="nonzero" stroke-width="1"/><path d="M256.88,212.02h0.54296c0.45833,0 0.82683,-0.08203 1.1055,-0.2461c0.34115,-0.20052 0.51172,-0.47526 0.51172,-0.82422c0,-0.28906 -0.125,-0.51823 -0.375,-0.6875c-0.22135,-0.14843 -0.49739,-0.22265 -0.82812,-0.22265c-0.59896,0 -1.17449,0.22917 -1.7266,0.6875l-0.5664,-0.69922c0.66927,-0.53646 1.45703,-0.80469 2.3633,-0.80469c0.60677,0 1.10547,0.125 1.4961,0.375c0.47135,0.30469 0.70703,0.73569 0.70703,1.293c0,0.42708 -0.16276,0.79298 -0.48828,1.0977c-0.2526,0.23437 -0.58593,0.38151 -1,0.4414v0.0312c0.53646,0.08854 0.94663,0.26562 1.2305,0.53125c0.29427,0.27604 0.44141,0.64454 0.44141,1.1055c0,0.67187 -0.27214,1.17447 -0.81641,1.5078c-0.40885,0.25 -0.94532,0.375 -1.6094,0.375c-1.04687,0 -1.89583,-0.32031 -2.5469,-0.96093l0.58985,-0.70313c0.20833,0.22135 0.47656,0.40365 0.80468,0.54688c0.39844,0.17447 0.78517,0.26171 1.1602,0.26171c0.42187,0 0.7513,-0.08854 0.98828,-0.26562c0.22917,-0.16927 0.34375,-0.42839 0.34375,-0.77734c0,-0.47917 -0.23047,-0.819 -0.69141,-1.0195c-0.30989,-0.13541 -0.68229,-0.20312 -1.1172,-0.20312h-0.51953z" fill="#ffffff" fill-rule="nonzero" stroke-width="1"/><path d="M265,212.56c-0.08073,0.84893 -0.26433,1.53123 -0.55079,2.0469c-0.42969,0.77867 -1.16795,1.37633 -2.2148,1.793l-0.55078,-0.73047c0.72133,-0.21354 1.29163,-0.57681 1.7109,-1.0898c0.38802,-0.47396 0.625,-1.14713 0.71093,-2.0195h-1.3672v-0.5625c-0.28646,0.29427 -0.60677,0.57291 -0.96094,0.83594l-0.55859,-0.67579c1.1406,-0.78647 1.9518,-1.88543 2.4336,-3.2969l0.83203,0.29687c-0.35417,0.9844 -0.8685,1.8594 -1.543,2.625h4.4453c-0.77867,-0.737 -1.4271,-1.62503 -1.9453,-2.6641l0.79297,-0.32031c0.65104,1.32813 1.55207,2.34377 2.7031,3.0469l-0.51954,0.76954c-0.34895,-0.2474 -0.65364,-0.48829 -0.91406,-0.72266l-0.004,0.16016c-0.03127,1.35153 -0.09898,2.43097 -0.20313,3.2383c-0.05467,0.42708 -0.17706,0.70703 -0.36719,0.83984c-0.16927,0.11979 -0.46614,0.17969 -0.89062,0.17969c-0.32031,0 -0.71615,-0.01563 -1.1875,-0.0469l-0.16016,-0.82422c0.42709,0.05727 0.81382,0.0859 1.1602,0.0859c0.20313,0 0.33854,-0.02863 0.40625,-0.0859c0.06771,-0.05727 0.12109,-0.20831 0.16015,-0.45312c0.09636,-0.58073 0.15496,-1.38933 0.17579,-2.4258z" fill="#ffffff" fill-rule="nonzero" stroke-width="1"/><path d="M270.38,209.78h4.0312v0.84766h-4.0312zM275.6847,215.6277c-0.84113,0.12761 -1.73437,0.19141 -2.6797,0.19141c-0.97133,0 -1.75127,-0.09115 -2.3398,-0.27344c-0.22917,-0.07031 -0.44141,-0.18229 -0.63672,-0.33594c-0.29948,-0.23958 -0.44922,-0.57161 -0.44922,-0.99609c0,-0.53385 0.20573,-1.00132 0.61719,-1.4024l0.67968,0.44922c-0.25,0.29427 -0.375,0.57162 -0.375,0.83203c0,0.29167 0.17578,0.4987 0.52735,0.6211c0.1875,0.06771 0.48568,0.12239 0.89453,0.16406c0.33854,0.03647 0.68881,0.0547 1.0508,0.0547c0.91407,0 1.77733,-0.06641 2.5898,-0.19922zM275.14563,210.3894c-0.19531,-0.46875 -0.45572,-0.92579 -0.78125,-1.3711l0.59766,-0.21485c0.31511,0.42187 0.57683,0.86717 0.78516,1.3359zM276.22763,210.18627c-0.18229,-0.45833 -0.43881,-0.91407 -0.76954,-1.3672l0.57813,-0.19922c0.28125,0.33854 0.54166,0.77344 0.78125,1.3047z" fill="#ffffff" fill-rule="nonzero" stroke-width="1"/><path d="M283.74,215.83c-0.7708,0.08073 -1.56767,0.12109 -2.3906,0.12109c-1.21353,0 -2.0638,-0.07682 -2.5508,-0.23047c-0.35417,-0.11197 -0.63411,-0.27864 -0.83984,-0.5c-0.23698,-0.25781 -0.35547,-0.57161 -0.35547,-0.9414c0,-0.48698 0.16667,-0.92448 0.5,-1.3125c0.28385,-0.33073 0.74089,-0.65886 1.3711,-0.98438c-0.35938,-0.80727 -0.6849,-1.72653 -0.97657,-2.7578l0.8711,-0.22656c0.27083,0.9896 0.55729,1.8646 0.85937,2.625c1.0026,-0.46094 2.0664,-0.84507 3.1914,-1.1524l0.26172,0.79297c-1.2344,0.3125 -2.46097,0.7565 -3.6797,1.332c-0.37761,0.17969 -0.64584,0.32683 -0.80469,0.44141c-0.46615,0.34115 -0.69922,0.72005 -0.69922,1.1367c0,0.36198 0.21615,0.61458 0.64844,0.75781c0.35937,0.11719 1.00261,0.17578 1.9297,0.17578c0.8568,0 1.71487,-0.04948 2.5742,-0.14843z" fill="#ffffff" fill-rule="nonzero" stroke-width="1"/><path d="M285.41,216.06c-0.09896,-0.8854 -0.14844,-1.7656 -0.14844,-2.6406c0,-1.5 0.11068,-2.92447 0.33204,-4.2734l0.85937,0.0899c-0.21094,1.16667 -0.31641,2.48307 -0.31641,3.9492c0,0.9844 0.05469,1.90497 0.16407,2.7617zM287.7538,209.8725h3.7539v0.83204h-3.7539zM291.7733,215.5795c-0.52083,0.08073 -1.13933,0.12109 -1.8555,0.12109c-1.79947,0 -2.6992,-0.52863 -2.6992,-1.5859c0,-0.41927 0.11198,-0.78513 0.33593,-1.0976l0.73828,0.32812c-0.14062,0.19792 -0.21093,0.42058 -0.21093,0.66797c0,0.30469 0.15234,0.51432 0.45703,0.62891c0.33854,0.13021 0.80077,0.19531 1.3867,0.19531c0.63281,0 1.21875,-0.04167 1.7578,-0.125z" fill="#ffffff" fill-rule="nonzero" stroke-width="1"/><path d="M296.02,210.45v-0.59375h-3.1484v-0.71875h7.1445v0.71875h-3.1641v0.59375h2.7383v3.168h-2.7578c-0.00267,0.0182 -0.004,0.03643 -0.004,0.0547c-0.02867,0.45833 -0.14585,0.86327 -0.35156,1.2148c1.0104,0.35417 2.2643,0.59766 3.7617,0.73047l-0.48047,0.76171c-1.45573,-0.16927 -2.71353,-0.46874 -3.7734,-0.89843c-0.30208,0.26302 -0.69141,0.47526 -1.168,0.63672c-0.42708,0.14583 -0.98048,0.26172 -1.6602,0.34765l-0.42188,-0.74219c1.05207,-0.07812 1.86327,-0.27734 2.4336,-0.59765c-0.55989,-0.27604 -1.07813,-0.59766 -1.5547,-0.96485l0.57422,-0.48828c0.49739,0.38542 1.00649,0.69141 1.5273,0.91797c0.15104,-0.25781 0.24739,-0.58203 0.28906,-0.97265h-2.7188v-3.168zM296.02,211.075h-1.8945v0.6289h1.8945zM296.85203,211.075v0.6289h1.8984v-0.6289zM296.02,212.3055h-1.8945v0.67968h1.8945zM296.85203,212.3055v0.67968h1.8984v-0.67968z" fill="#ffffff" fill-rule="nonzero" stroke-width="1"/><path d="M303.07,213.71c0.3776,0.20573 0.79557,0.49479 1.2539,0.86718l-0.44531,0.72657c-0.29427,-0.33073 -0.5638,-0.60287 -0.80859,-0.81641v1.9141h-0.80079v-2.0859c-0.35156,0.64583 -0.76953,1.1862 -1.2539,1.6211l-0.45703,-0.73828c0.58073,-0.41146 1.06379,-0.92319 1.4492,-1.5352h-1.2344v-0.6875h1.4961v-0.76172h-1.6484v-0.71875h0.85547c-0.06771,-0.33073 -0.16277,-0.69139 -0.28516,-1.082h-0.41797v-0.72656h1.4805v-0.88672h0.83203v0.88672h1.418v0.72656h-0.41797c-0.09635,0.39063 -0.21614,0.75129 -0.35937,1.082h0.89453v0.71875h-1.5508v0.76172h1.4062v0.6875h-1.4062zM301.9684,210.4131c0.09896,0.32552 0.1849,0.68619 0.25782,1.082h0.77343c0.11979,-0.33593 0.22266,-0.6966 0.3086,-1.082zM305.6442,212.3115c0.00267,0.80727 -0.05983,1.55597 -0.1875,2.2461c-0.13281,0.71613 -0.36848,1.35677 -0.70703,1.9219l-0.64453,-0.58985c0.28907,-0.46875 0.48698,-1.04428 0.59375,-1.7266c0.09375,-0.58333 0.14063,-1.32813 0.14063,-2.2344v-2.4492c0.05207,-0.00533 0.13149,-0.01313 0.23828,-0.0234c0.82813,-0.07813 1.65757,-0.25651 2.4883,-0.53516l0.51172,0.67969c-0.69273,0.23437 -1.50263,0.41536 -2.4297,0.54297v1.3516h2.6211v0.81641h-0.89453v4.0898h-0.80859v-4.0898z" fill="#ffffff" fill-rule="nonzero" stroke-width="1"/><path d="M308.91,210.34h3.1367c-0.16927,-0.44531 -0.32422,-0.88801 -0.46484,-1.3281l0.85547,-0.0547c0.13541,0.46354 0.29817,0.92447 0.48828,1.3828h2.8867v0.80078h-2.5195c0.33594,0.69533 0.75651,1.4206 1.2617,2.1758l-0.82031,0.39063c-0.55729,-0.84373 -1.01433,-1.6992 -1.3711,-2.5664h-3.4531zM314.5897,216.1017c-0.51823,0.02867 -0.97656,0.043 -1.375,0.043c-1.08333,0 -1.8815,-0.08464 -2.3945,-0.25391c-0.92707,-0.30209 -1.3906,-0.87239 -1.3906,-1.7109c0,-0.51563 0.16016,-0.93099 0.48047,-1.2461l0.73438,0.39844c-0.21355,0.21093 -0.32032,0.48697 -0.32032,0.82812c0,0.43489 0.23438,0.73958 0.70313,0.91406c0.41406,0.15365 1.10676,0.23047 2.0781,0.23047c0.41146,0 0.87499,-0.01953 1.3906,-0.0586z" fill="#ffffff" fill-rule="nonzero" stroke-width="1"/><path d="M318.27,208.98h0.86328v2.207c0.61979,-0.64323 1.11589,-1.08463 1.4883,-1.3242c0.34635,-0.22395 0.70572,-0.33593 1.0781,-0.33593c0.375,0 0.67708,0.10547 0.90625,0.3164c0.30209,0.28125 0.45313,0.64975 0.45313,1.1055c0,0.11979 -0.01563,0.27865 -0.0469,0.47656c-0.22917,1.45573 -0.34375,2.46353 -0.34375,3.0234c0,0.23959 0.0612,0.35938 0.1836,0.35938c0.07813,0 0.18099,-0.04427 0.30859,-0.13282c0.26823,-0.18489 0.53907,-0.48828 0.8125,-0.91015l0.32031,0.89453c-0.16667,0.26563 -0.3737,0.5013 -0.62109,0.70703c-0.28646,0.23958 -0.59245,0.35937 -0.91797,0.35937c-0.30989,0 -0.55078,-0.10807 -0.72265,-0.32421c-0.14583,-0.1849 -0.21875,-0.4935 -0.21875,-0.92579c0,-0.32812 0.04297,-0.82162 0.1289,-1.4805c0.10937,-0.82813 0.18229,-1.44273 0.21875,-1.8438c0.00533,-0.06513 0.008,-0.11982 0.008,-0.16407c0,-0.22917 -0.04818,-0.40495 -0.14453,-0.52734c-0.09115,-0.11719 -0.21745,-0.17578 -0.3789,-0.17578c-0.54427,0 -1.38151,0.72527 -2.5117,2.1758v3.6875h-0.86328v-2.7031c-0.4349,0.60938 -0.83593,1.18491 -1.2031,1.7266l-0.40625,-0.92578c0.61719,-0.7474 1.15365,-1.45963 1.6094,-2.1367v-0.99219h-1.3711v-0.78516h1.3711z" fill="#ffffff" fill-rule="nonzero" stroke-width="1"/><path d="M328.08,208.98h0.86328v0.98438h2.457v0.74219h-2.457v0.92968h2.3203v0.73438h-2.3203v1.207c0.92707,0.3125 1.84113,0.78257 2.7422,1.4102l-0.46094,0.74218c-0.68227,-0.51041 -1.44267,-0.96095 -2.2812,-1.3516c-0.0208,0.44531 -0.10674,0.79038 -0.25781,1.0352c-0.26302,0.42448 -0.78125,0.63672 -1.5547,0.63672c-0.59635,0 -1.07552,-0.11198 -1.4375,-0.33594c-0.40365,-0.25 -0.60547,-0.58853 -0.60547,-1.0156c0,-0.51041 0.27214,-0.88801 0.81641,-1.1328c0.36458,-0.16146 0.83855,-0.24219 1.4219,-0.24219c0.22917,0 0.48047,0.01823 0.75391,0.0547v-1.0078h-2.7695v-0.73438h2.7695v-0.92968h-2.9375v-0.74219h2.9375zM328.08,214.105c-0.30989,-0.06507 -0.60677,-0.0976 -0.89062,-0.0976c-0.34636,0 -0.62761,0.05078 -0.84375,0.15234c-0.25781,0.12239 -0.38672,0.29687 -0.38672,0.52344c0,0.1901 0.10026,0.34375 0.30078,0.46094c0.20313,0.11979 0.47396,0.17968 0.8125,0.17968c0.40104,0 0.67708,-0.10677 0.82812,-0.32031c0.11979,-0.16667 0.17969,-0.41536 0.17969,-0.74609z" fill="#ffffff" fill-rule="nonzero" stroke-width="1"/><path d="M336.38,208.96h0.87891v1.0781h2.3047v0.75391h-2.3047v1.6719c0.09114,0.32031 0.13671,0.60547 0.13671,0.85547c0,0.92707 -0.20443,1.60807 -0.61328,2.043c-0.44531,0.47656 -1.11588,0.80599 -2.0117,0.98828l-0.44531,-0.66406c0.69533,-0.13281 1.21097,-0.32031 1.5469,-0.5625c0.3151,-0.22917 0.52734,-0.54037 0.63672,-0.9336c-0.27865,0.30469 -0.61068,0.45704 -0.9961,0.45704c-0.43229,0 -0.78256,-0.1224 -1.0508,-0.36719c-0.31511,-0.28907 -0.47266,-0.70833 -0.47266,-1.2578c0,-0.28907 0.06901,-0.56771 0.20704,-0.83594c0.09114,-0.17187 0.20312,-0.3151 0.33593,-0.42969c0.30729,-0.26041 0.67579,-0.39062 1.1055,-0.39062c0.27344,0 0.52084,0.0651 0.74219,0.19531v-0.76953h-3.8555v-0.75391h3.8555zM336.4112,213.0147v-0.14453c0,-0.16667 -0.03906,-0.3138 -0.11719,-0.4414c-0.14583,-0.23959 -0.35677,-0.35938 -0.63281,-0.35938c-0.14063,0 -0.27214,0.03906 -0.39453,0.11719c-0.28646,0.17969 -0.42969,0.45573 -0.42969,0.82812c0,0.23438 0.05208,0.4323 0.15625,0.59375c0.14583,0.22396 0.36068,0.33594 0.64453,0.33594c0.25781,0 0.46224,-0.11589 0.61328,-0.34766c0.10677,-0.16406 0.16016,-0.35807 0.16016,-0.58203z" fill="#ffffff" fill-rule="nonzero" stroke-width="1"/></g></g></svg>