<svg version="1.1" xmlns="http://www.w3.org/2000/svg" xmlns:xlink="http://www.w3.org/1999/xlink" width="73.40713" height="75.77696" viewBox="0,0,73.40713,75.77696"><g transform="translate(17.23827,-421.22769)"><g data-paper-data="{&quot;isPaintingLayer&quot;:true}" fill="#ff0000" fill-rule="evenodd" stroke="none" stroke-width="0" stroke-linecap="round" stroke-linejoin="round" stroke-miterlimit="10" stroke-dasharray="" stroke-dashoffset="0" style="mix-blend-mode: normal"><path d="M43.42938,421.22769l1.64993,1.33995l1.46994,1.91992l2.12991,1.31995l2.36991,-0.12999l0.21999,1.13995l0.70997,1.04996l-0.26999,2.35991l-0.51998,0.46998l0.04,1.28995l1.18995,1.97992l0.71997,0.52998l0.30999,2.30991l-0.22999,1.26995l0.14999,1.69993l-0.23999,0.96996l1.28995,1.04996l0.93996,2.32991l-0.45998,2.10992l0.80997,0.64997l0.45998,1.03996l-1.05996,1.87992l0.74997,1.30995l-0.82997,1.70993l0.16999,0.93996l-0.25999,1.79993l0.95996,2.36991l-0.12,1.21995l0.31999,1.13995l-0.81997,1.13995l0.27999,1.36995l-0.49998,2.5099l-0.45998,0.27999l-0.27999,1.45994l0.91996,2.36991l-0.51998,0.85997l-2.27991,0.02l-1.18995,1.18995l-2.5499,1.86993l0.17999,1.05996l-0.48998,1.95992l1.40994,0.04l0.97996,0.50998l-0.56998,1.08996l0.26999,0.83997l-3.67985,1.04996l-0.24999,2.01992l-1.41994,0.62997l-0.12,0.99996l0.57998,1.20995l-0.14999,1.44994l-0.97996,0.51998l-0.53998,1.07996l-0.20999,1.79993l-0.44998,0.78997l-1.06996,0.17999l-1.33995,0.70997l-0.53998,1.13995l0.15999,0.76997l-1.29995,1.58994l-0.50998,-0.01l-0.95996,-0.38998l-1.81993,0.67997l-1.85993,-0.49998l-1.08996,-1.46994l-0.96996,-0.33999l-0.75997,-1.28995l-0.1,-0.86997l-1.46994,-0.32999l-0.55998,0.30999l-1.73993,-0.21999l-1.31995,1.62993l-0.81997,-0.46998l-1.03996,0.21999l-0.61998,-0.75997l-2.5799,-0.52998l-1.49994,-1.45994l-0.03,-2.3899l-0.57998,-0.20999l-2.75989,0.89996l-0.34999,1.70993l-0.78997,0.40998l-1.14995,-0.11l-1.90992,1.16995l-0.65997,-0.11l-0.77997,-1.34995l0.87996,-0.67997l0.38998,-1.17995l-0.1,-1.21995l-1.01996,-0.35999l-0.82997,0.69997l-2.04992,-0.81997l-1.38994,0.79997l-0.74997,0.89996l-0.87996,-1.33995l-1.61994,2.19991l-0.91996,0.08l-0.89996,0.69997l-0.06,0.95996l-1.78993,-2.03992l-0.37998,-1.03996l-1.49994,0.49998l-1.61994,-0.66997l-0.47998,0.89996l-1.25995,0.74997l-1.80993,2.6199l-1.26995,0.82997l-0.95996,2.00992l-0.56998,-0.02l-0.12999,1.90992l-1.61994,-0.04l-2.02992,1.52994l-1.13995,-0.02l0.74997,-2.5799l0.38998,-0.58998l-0.22999,-1.76993l0.59998,-1.86993l-0.73997,-1.28995l0.95996,-1.83993l-0.42998,-2.29991l-0.49998,-0.95996l-0.47998,-3.06988l-2.18991,-0.37998l0.62997,-0.97996l-0.19999,-2.3799l0.38998,-0.79997l0.08,-3.19987l0.22999,-1.83993l1.41994,-2.5299l-0.01,-2.63989l0.27999,-1.06996l0.87996,-1.01996l-0.83997,-1.73993l1.61994,0.37998l0.70997,-1.79993l0.71997,0.56998l1.23995,-3.05988l0.78997,0.35999l1.38994,-0.65997l0.34999,-1.14995l-0.59998,-1.98992l1.29995,-1.73993l1.37994,0.08l0.52998,-2.00992l1.54994,-0.32999l1.22995,-0.61998l0.11,-1.21995l1.34995,-0.38998l1.09996,0.21999l2.36991,-0.27999l1.44994,-0.50998l5.22979,1.07996l0.62997,-0.26999l1.89992,0.01l1.30995,-0.43998l1.61994,-2.4699l1.90992,-1.46994l0.66997,-0.22999l1.72993,-1.37994v-1.50994l0.76997,-2.23991l1.08996,-1.38994l-0.23999,-1.40994l0.76997,-1.03996l0.22999,-1.59994l-0.91996,-2.26991l1.85993,-3.45986l0.75997,-0.56998l2.3999,-0.92996l3.05988,-1.96992l1.96992,-0.54998l6.42974,-0.68997l1.49994,-1.38994l2.19991,-0.14999l2.33991,-0.41998"/></g></g></svg>