<?xml version="1.0" encoding="UTF-8"?>
<svg width="480" height="360" version="1.1" viewBox="0 0 480 360" xmlns="http://www.w3.org/2000/svg">
 <g dominant-baseline="central" fill="#fff" aria-label="北見地方">
  <path d="m245.84 184.3q-2.6953 1.416-4.6973 2.168l-0.82031-2.1484q3.1348-1.0547 5.5176-2.1875v-4.375h-4.834v-2.0606h4.834v-5.1953h2.1777v19.004h-2.1777zm6.9434-7.6074q2.2754-1.1914 4.4141-3.0273l1.6211 1.6992q-2.8906 2.0508-6.0352 3.4961v7.3242q0 0.47852 0.3125 0.58594 0.33203 0.10742 1.5332 0.10742 1.582 0 1.9824-0.18555 0.2832-0.12695 0.39062-0.79101 0.14649-0.92774 0.21485-2.998l2.1875 0.67383q-0.0977 2.5293-0.3125 3.6328-0.24414 1.2305-1.2793 1.5918-0.98633 0.33203-3.2324 0.33203-2.6367 0-3.3203-0.43945-0.6543-0.42969-0.6543-1.6504v-16.543h2.1777z" dominant-baseline="central"/>
  <path d="m273.17 182.7v3.623q0 0.63476 0.40039 0.76172 0.27344 0.0879 1.2109 0.0879 1.582 0 1.9336-0.12695 0.41992-0.15625 0.52734-0.87891 0.0781-0.53711 0.16602-2.1875l2.0801 0.74219q-0.0977 2.7148-0.51758 3.4473-0.3418 0.59571-1.1621 0.79102-0.86914 0.20508-2.9688 0.20508-2.2559 0-2.8906-0.22461-0.97656-0.3418-0.97656-1.543v-4.6973h-2.6855q-0.19532 3.1738-1.6309 4.5996-0.53711 0.53711-1.3574 0.9961-1.6016 0.91796-3.6621 1.2207l-1.1621-1.875q2.9199-0.35156 4.3555-1.5625 1.1035-0.92774 1.3086-3.3789h-2.8809v-11.396h13.477v11.396zm-7.7539-9.7363v1.6406h9.1309v-1.6406zm0 3.1641v1.6504h9.1309v-1.6504zm0 3.1934v1.7188h9.1309v-1.7188z" dominant-baseline="central"/>
  <path d="m290.23 178.41v7.7344q0 0.75195 0.64454 0.9082 0.66406 0.16602 3.0371 0.16602 2.3144 0 3.0566-0.23438 0.41992-0.13672 0.54687-0.76172 0.16602-0.8789 0.17578-2.0801l2.041 0.57618q-0.15625 2.8809-0.79102 3.6816-0.41992 0.52734-1.2695 0.625-1.3379 0.14648-4.541 0.14648-2.4805 0-3.252-0.13672-1.1621-0.19531-1.4746-1.0254-0.15625-0.43945-0.15625-1.1719v-7.7441l-1.8652 0.64453-0.45899-1.8945 2.3242-0.80078v-5.2637h1.9824v4.5801l2.0996-0.71289v-5.1465h1.9629v4.4629l3.2715-1.123 1.0254 0.625v7.3144q0 0.76172-0.36133 1.1328-0.41015 0.41015-1.377 0.41015-0.79102 0-1.6797-0.13672l-0.32226-1.8652q0.57617 0.14648 1.1719 0.14648 0.42969 0 0.52734-0.17578 0.0977-0.14648 0.0977-0.48828v-4.6191l-2.3535 0.82031v7.9004h-1.9629v-7.2266zm-7.1777-3.1934v-4.7168h2.0996v4.7168h1.8945v1.9824h-1.8945v6.2109q1.0254-0.35156 2.0312-0.73242l0.18555 1.8848q-3.1641 1.4453-6.4941 2.4219l-0.6836-2.0801q1.5039-0.39062 2.6367-0.74218 0.13672-0.0488 0.22461-0.0684v-6.8945h-2.4805v-1.9824z" dominant-baseline="central"/>
  <path d="m309.48 175.76q-0.0684 1.6309-0.19531 2.8711h7.8711q-0.14648 6.7774-0.76172 8.7988-0.3125 1.0156-1.1621 1.4062-0.66406 0.30273-1.9434 0.30273-1.3477 0-3.0566-0.20507l-0.38085-2.1973q2.2949 0.32227 3.2324 0.32227 0.79101 0 1.0059-0.44922 0.51757-1.0938 0.72265-6.0352h-5.8105q-0.32227 1.7578-0.90821 3.0469-1.6309 3.5644-5.4492 5.6543l-1.543-1.7188q3.8281-1.9922 5.0586-5.2246 0.82031-2.1582 1.0644-6.5723h-6.4648v-2.002h7.9785v-3.2617h2.2559v3.2617h8.2422v2.002z" dominant-baseline="central"/>
 </g>
</svg>
