<svg version="1.1" xmlns="http://www.w3.org/2000/svg" xmlns:xlink="http://www.w3.org/1999/xlink" width="100" height="100" viewBox="0,0,100,100"><g transform="translate(-190,-130)"><g data-paper-data="{&quot;isPaintingLayer&quot;:true}" fill-rule="nonzero" stroke-linecap="butt" stroke-linejoin="miter" stroke-miterlimit="10" stroke-dasharray="" stroke-dashoffset="0" style="mix-blend-mode: normal"><path d="M190,230v-100h100v100z" fill="none" stroke="#959196" stroke-width="0"/><path d="M243.792,187.027v-13.8h3.64v13.8zM232.552,187.027v-13.8h3.64v13.8zM239.872,168.547v-3.12h0.24v3.12zM239.872,194.827v-3.16h0.24v3.16zM232.552,173.227c0,-1.52 0.32,-2.85333 0.96,-4c0.66667,-1.17333 1.54667,-2.09333 2.64,-2.76c1.12,-0.69333 2.38667,-1.04 3.8,-1.04v3.12c-1.17333,0 -2.09333,0.41333 -2.76,1.24c-0.66667,0.8 -1,1.94667 -1,3.44zM247.432,173.227h-3.64c0,-1.49333 -0.33333,-2.64 -1,-3.44c-0.64,-0.82667 -1.56,-1.24 -2.76,-1.24v-3.12c1.41333,0 2.66667,0.34667 3.76,1.04c1.12,0.66667 2,1.58667 2.64,2.76c0.66667,1.14667 1,2.48 1,4zM232.552,187.027h3.64c0,1.46667 0.33333,2.61333 1,3.44c0.66667,0.8 1.58667,1.2 2.76,1.2v3.16c-1.41333,0 -2.68,-0.33333 -3.8,-1c-1.09333,-0.69333 -1.97333,-1.62667 -2.64,-2.8c-0.64,-1.17333 -0.96,-2.50667 -0.96,-4zM247.432,187.027c0,1.49333 -0.33333,2.82667 -1,4c-0.64,1.17333 -1.52,2.10667 -2.64,2.8c-1.09333,0.66667 -2.34667,1 -3.76,1v-3.16c1.2,0 2.12,-0.4 2.76,-1.2c0.66667,-0.82667 1,-1.97333 1,-3.44z" fill="#ff0505" stroke="none" stroke-width="1"/></g></g></svg>