<?xml version="1.0" encoding="UTF-8"?>
<svg width="224" height="76" version="1.1" viewBox="0 0 224 76" xmlns="http://www.w3.org/2000/svg">
 <g transform="translate(-59.429 -16.286)">
  <rect x="59.429" y="16.286" width="224" height="76" fill-opacity="0" stop-color="#000000" stroke-linecap="round" stroke-linejoin="round"/>
  <g fill="#fff" aria-label="深さ">
   <path d="m131.52 78.374v3.4922h-1.248v-3.457q-0.7207 1.1367-1.6406 1.8867-0.6211 0.50977-1.5059 0.96094l-0.81446-1.0371q1.125-0.43945 1.9395-1.0898 0.82031-0.66211 1.4766-1.6816h-2.7891v-1.0781h3.334v-1.1191h1.248v1.1191h3.4688v1.0781h-2.9004q1.248 1.5527 3.2461 2.3906l-0.86133 1.1484q-1.9336-1.1426-2.9531-2.6133zm0.82617-6.3281v1.8984q0 0.25195 0.082 0.32812 0.0703 0.06445 0.38086 0.06445 0.44531 0 0.52149-0.05859 0.18164-0.14062 0.20507-0.92578l1.1367 0.31055q-0.041 1.0957-0.36328 1.4004-0.3164 0.30469-1.5469 0.30469-0.81446 0-1.166-0.16406-0.43945-0.19922-0.43945-0.70898v-2.4492h-2.9121v1.5352h-1.1894v-2.5781h7.7871v2.0859h-1.2012v-1.043zm-6.4922 1.1895q-0.76757-1.0371-1.7637-1.8809l0.86133-0.83203q0.99609 0.73242 1.8516 1.7871zm-0.45703 3.0117q-0.84375-1.0781-1.7988-1.8809l0.89063-0.87891q0.99609 0.73242 1.8574 1.8223zm-1.5469 4.7051q0.99023-1.5234 1.7871-3.9258l1.0547 0.68555q-0.60937 2.1738-1.7637 4.1426zm3.082-6.2051q0.81445-0.24024 1.3008-0.60352 0.87891-0.65039 1.1016-1.9629l1.1133 0.29883q-0.28711 1.0488-0.67968 1.6523-0.65625 0.99609-2.1152 1.5527z"/>
   <path d="m136.17 72.778h4.7051q-0.38086-1.002-0.69726-1.9922l1.2832-0.08203q0.30469 1.043 0.73242 2.0742h4.3301v1.2012h-3.7793q0.75586 1.5645 1.8926 3.2637l-1.2305 0.58594q-1.2539-1.8984-2.0566-3.8496h-5.1797zm8.5195 8.6426q-1.166 0.06445-2.0625 0.06445-2.4375 0-3.5918-0.38086-2.0859-0.67969-2.0859-2.5664 0-1.1602 0.7207-1.8691l1.1016 0.59766q-0.48047 0.47461-0.48047 1.2422 0 0.97852 1.0547 1.3711 0.93164 0.3457 3.1172 0.3457 0.92578 0 2.0859-0.08789z"/>
  </g>
  <g aria-label="M">
   <path d="m214.73 69.242h3.1172l2.5469 5.3906q0.58593 1.25 1.0078 2.8359h0.0625q0.41406-1.5703 1.0078-2.8359l2.5469-5.3906h3.1172v12.961h-2.0156v-6.7656q0-3.1719 0.0937-4.6094h-0.0781q-0.71875 1.9062-1.3906 3.4219l-2.5469 5.7812h-1.5312l-2.5469-5.7812q-0.78906-1.7969-1.3906-3.4219h-0.0781q0.0937 1.4922 0.0937 4.6094v6.7656h-2.0156z" fill="#fff"/>
  </g>
  <rect x="265.43" y="62.286" width="8" height="22" rx="0" ry="0" fill="#fff" fill-rule="evenodd" stop-color="#000000"/>
  <rect x="195.43" y="67.286" width="8" height="17" rx="0" ry="0" fill="#fff" fill-rule="evenodd" stop-color="#000000"/>
 </g>
</svg>
