<?xml version="1.0" encoding="UTF-8"?>
<svg width="480" height="360" version="1.1" viewBox="0 0 480 360" xmlns="http://www.w3.org/2000/svg">
 <g dominant-baseline="central" fill="#fff" aria-label="釧路沖">
  <path d="m248.96 187.11q1.084-2.4414 1.084-7.5879v-8.4863h1.9043v8.5059q0 3.7207-0.42969 5.9668-0.41992 2.1582-1.4941 3.9941l-1.6602-1.3672q0.39063-0.60547 0.52735-0.88868-3.1055 1.2012-7.6856 2.1484l-0.74219-1.8555q1.9141-0.36133 3.5645-0.72265v-5.9375h-3.3984v-1.6992h3.3984v-2.1582h-1.8457q-0.45898 0.46875-0.95703 0.91797l-0.9375-1.7773q2.3145-2.1875 3.7793-5.6641h2.0801l0.16601 0.16601q1.8848 1.8848 3.1934 3.6914l-1.3184 1.5625v1.1035h-2.2363v2.1582h3.1348v1.6992h-3.1348v5.4785q1.6016-0.40039 2.8906-0.82031zm-1.123-11.748q-0.83008-1.2305-2.4707-3.1152-0.76172 1.6016-1.8164 3.1152zm-6.1328 10.801q-0.3125-2.168-0.9961-3.8281l1.7774-0.57617q0.74219 1.7774 0.98633 3.8184zm4.5215-1.1816q0.6543-1.8848 0.9668-3.5059l1.7188 0.47851q-0.48828 1.9141-1.123 3.4277zm7.2852-13.662h1.8359v15.977h-1.8359zm3.457-0.625h1.9238v18.809h-1.9238z" dominant-baseline="central"/>
  <path d="m275.41 177.37q1.875 1.4648 4.3945 2.4609l-0.90821 1.6992q-2.8418-1.1621-4.7656-2.8906-0.51758 0.44922-0.89844 0.75195-1.6992 1.3086-4.0527 2.2559l-0.97657-1.6211q2.5586-0.84961 4.6289-2.6856-0.92773-1.1035-1.543-2.0996-0.73242 0.82031-1.5918 1.4844l-1.1524-1.5234q2.3438-1.6113 3.5742-4.7754l1.9824 0.32226q-0.20508 0.43946-0.35156 0.76172h3.5742l1.1523 1.0547q-1.2012 2.6856-3.0664 4.8047zm-1.3574-1.2402q1.1621-1.3086 1.9922-2.8027h-3.3203q-0.30274 0.46875-0.38086 0.57617 0.73242 1.2207 1.709 2.2266zm-5.5957-4.9316v6.7774h-2.4414v2.9785h2.4805v1.7578h-2.4805v3.4473q0.9961-0.22461 2.7832-0.75195l0.15625 1.7285q-3.8574 1.2891-7.9785 2.1191l-0.61523-1.9043q0.85937-0.14649 0.97656-0.17579v-7.5781h1.7578v7.2266q0.50782-0.0976 1.1035-0.23437v-8.6133h-2.998v-6.7774zm-5.3613 1.7969v3.2617h3.5254v-3.2617zm15.146 8.623v7.8809h-1.9629v-1.084h-4.5508v1.084h-1.9629v-7.8809zm-6.5137 1.7774v3.2422h4.5508v-3.2422z" dominant-baseline="central"/>
  <path d="m291.58 174.14v-3.6426h2.0996v3.6426h5.293v8.8379h-5.293v6.5234h-2.0996v-6.5234h-5.1856v-8.8379zm-3.1641 1.9434v4.9707h3.1641v-4.9707zm8.4766 4.9707v-4.9707h-3.2129v4.9707zm-12.5-5.7812q-1.1914-1.6602-3.1543-3.1738l1.4551-1.4844q1.9531 1.377 3.3008 3.0859zm-0.63476 5.0195q-1.6992-1.9727-3.3008-3.2324l1.5039-1.5039q1.709 1.2012 3.3789 3.1055zm-3.0371 7.5684q1.875-2.666 3.457-6.6406l1.7383 1.3379q-1.3379 3.6621-3.2617 6.8945z" dominant-baseline="central"/>
 </g>
</svg>
