<svg version="1.1" xmlns="http://www.w3.org/2000/svg" xmlns:xlink="http://www.w3.org/1999/xlink" width="208" height="32" viewBox="0,0,208,32"><g transform="translate(-240,-164)"><g data-paper-data="{&quot;isPaintingLayer&quot;:true}" fill-rule="nonzero" stroke="none" stroke-linecap="butt" stroke-linejoin="miter" stroke-miterlimit="10" stroke-dasharray="" stroke-dashoffset="0" style="mix-blend-mode: normal"><path d="M240,196v-32h208v32z" fill="none" stroke-width="0"/><path d="M251.02,172.42h7.7832v4.3164h-2.1777v-2.5391h-13.311v2.5391h-2.1387v-4.3164h7.666v-1.9238h2.1777zM251.23485,181.8536v5.8594c0,0.61849 -0.10417,1.06119 -0.3125,1.3281c-0.26042,0.33203 -0.85289,0.49805 -1.7774,0.49805c-1.1914,0 -2.21353,-0.05534 -3.0664,-0.16602l-0.32227,-2.0606c0.944,0.16276 1.87823,0.24414 2.8027,0.24414c0.26041,0 0.41015,-0.05208 0.44922,-0.15625c0.03253,-0.07812 0.0488,-0.20507 0.0488,-0.38086v-5.166h-8.4766v-1.8555h18.857v1.8555zM244.01805,176.2579h11.963v1.7188h-11.963zM240.60005,186.9509c1.4518,-1.0872 2.60413,-2.526 3.457,-4.3164l2.002,0.91797c-0.96353,2.04427 -2.21027,3.6849 -3.7402,4.9219zM257.46505,188.2107c-0.97653,-1.582 -2.1777,-3.1217 -3.6035,-4.6191l1.582,-1.2207c1.582,1.4844 2.84177,2.946 3.7793,4.3848z" fill="#ffffff" stroke-width="1"/><path d="M265.69,188.42v1.084h-2.2168v-7.7148c-0.48828,0.28646 -1.10025,0.61524 -1.8359,0.98633l-1.2598,-1.8359c1.97267,-0.77473 3.6556,-1.77733 5.0488,-3.0078c1.19793,-1.06773 2.25263,-2.36657 3.1641,-3.8965h2.4121c2.01173,2.69533 4.88283,4.84377 8.6133,6.4453l-1.1914,1.8945c-0.64453,-0.31901 -1.19793,-0.60547 -1.6602,-0.85938l-0.24414,-0.12695v8.1152h-2.2363v-1.084zM264.6451,181.0762h11.338c-2.41533,-1.46487 -4.45633,-3.19013 -6.123,-5.1758c-0.89847,1.3672 -1.90757,2.54233 -3.0273,3.5254c-0.63151,0.54687 -1.36068,1.09701 -2.1875,1.6504zM274.2838,182.9121h-8.5938v3.6035h8.5938zM260.8758,175.4805c1.0156,-0.55339 1.888,-1.14259 2.6172,-1.7676c0.90493,-0.76827 1.75453,-1.71227 2.5488,-2.832l1.8359,1.0547c-1.43227,2.14847 -3.2259,3.89 -5.3809,5.2246zM277.1358,176.7793c-1.7904,-1.90753 -3.5775,-3.54163 -5.3613,-4.9023l1.582,-1.1816c1.7448,1.17187 3.5254,2.67253 5.3418,4.502z" fill="#ffffff" stroke-width="1"/><path d="M293.2,183.15c1.6146,1.4388 3.78907,2.6009 6.5234,3.4863l-1.2598,1.8359c-1.57553,-0.55989 -2.94923,-1.23696 -4.1211,-2.0312c-1.21093,-0.8268 -2.32747,-1.84243 -3.3496,-3.0469v6.1035h-2.1191v-5.9961c-0.90493,1.26953 -2.07357,2.40887 -3.5059,3.418c-1.10027,0.77473 -2.27867,1.39973 -3.5352,1.875l-1.3379,-1.7188c2.0638,-0.6836 3.7858,-1.60483 5.166,-2.7637c0.39063,-0.32553 0.78776,-0.71289 1.1914,-1.1621h-4.6973v-7.998h6.7188v-1.3184h-8.0957v-1.7578h8.0957v-1.582h2.1191v1.582h8.2227v1.7578h-8.2227v1.3184h6.8457v7.998zM288.8738,176.7926h-4.5996v1.582h4.5996zM290.9929,176.7926v1.582h4.7266v-1.582zM288.8738,179.8981h-4.5996v1.6113h4.5996zM290.9929,179.8981v1.6113h4.7266v-1.6113z" fill="#ffffff" stroke-width="1"/><path d="M309.48,175.76c-0.0456,1.08727 -0.1107,2.0443 -0.19531,2.8711h7.8711c-0.09765,4.51827 -0.35156,7.4512 -0.76172,8.7988c-0.20833,0.67707 -0.5957,1.1458 -1.1621,1.4062c-0.44271,0.20182 -1.09051,0.30273 -1.9434,0.30273c-0.89847,0 -1.91733,-0.06836 -3.0566,-0.20507l-0.38085,-2.1973c1.52993,0.21485 2.6074,0.32227 3.2324,0.32227c0.52734,0 0.86264,-0.14974 1.0059,-0.44922c0.34505,-0.7292 0.58593,-2.74093 0.72265,-6.0352h-5.8105c-0.21485,1.17187 -0.51758,2.1875 -0.90821,3.0469c-1.08727,2.37627 -2.90367,4.26103 -5.4492,5.6543l-1.543,-1.7188c2.55207,-1.32813 4.23827,-3.06967 5.0586,-5.2246c0.54687,-1.4388 0.90167,-3.62957 1.0644,-6.5723h-6.4648v-2.002h7.9785v-3.2617h2.2559v3.2617h8.2422v2.002z" fill="#ffffff" stroke-width="1"/><path d="M331.58,174.14v-3.6426h2.0996v3.6426h5.293v8.8379h-5.293v6.5234h-2.0996v-6.5234h-5.1856v-8.8379zM328.4159,176.0834v4.9707h3.1641v-4.9707zM336.8925,181.0541v-4.9707h-3.2129v4.9707zM324.3925,175.2729c-0.79427,-1.1068 -1.8457,-2.16473 -3.1543,-3.1738l1.4551,-1.4844c1.30207,0.918 2.40233,1.94663 3.3008,3.0859zM323.75774,180.2924c-1.1328,-1.31513 -2.23307,-2.3926 -3.3008,-3.2324l1.5039,-1.5039c1.13933,0.8008 2.26563,1.83597 3.3789,3.1055zM320.72064,187.8608c1.25,-1.77733 2.40233,-3.99087 3.457,-6.6406l1.7383,1.3379c-0.89193,2.4414 -1.97917,4.73957 -3.2617,6.8945z" fill="#ffffff" stroke-width="1"/></g></g></svg>