<svg xmlns="http://www.w3.org/2000/svg" viewBox="0 0 80 80" version="1.1" height="80" width="80">
 <rect fill-opacity="0" height="80" width="80"></rect>
 <path fill="#fff" d="m40.232 16.775c-1.9375 0.0089-3.7315 0.41126-5.377 1.2129-1.664 0.81067-3.029 1.9419-4.0957 3.3926-1.024 1.408-1.6639 3.0504-1.9199 4.9277l5.377 1.0879c0.21333-1.92 0.89488-3.3286 2.0469-4.2246 1.146-0.8913 2.4838-1.3371 4.0098-1.3418 1.7306 0.0095 3.1678 0.60396 4.3105 1.7891 1.1442 1.1866 1.7189 2.7121 1.7266 4.5723-0.0038 1.9935-0.40799 3.7344-1.2148 5.2207-0.81067 1.4507-1.8349 2.8157-3.0723 4.0957-1.2373 1.2373-2.5588 2.4954-3.9668 3.7754-1.408 1.2373-2.7532 2.6242-4.0332 4.1602-1.2373 1.4933-2.2616 3.2863-3.0723 5.377-0.768 2.048-1.1722 4.5007-1.2148 7.3594v5.1836h22.336v-5.1836h-16.705c0.04267-2.3893 0.47058-4.4161 1.2812-6.0801 0.81067-1.7067 1.8349-3.2203 3.0723-4.543 1.28-1.3227 2.6232-2.5827 4.0312-3.7773 1.4507-1.2373 2.7939-2.5588 4.0312-3.9668 1.28-1.408 2.3261-3.0306 3.1367-4.8652 0.80384-1.8615 1.2081-4.1021 1.2148-6.7188v-0.06446c-0.01057-2.1496-0.54362-4.0702-1.5996-5.7598-1.024-1.7493-2.4307-3.1144-4.2227-4.0957-1.7745-1.014-3.7809-1.5233-6.0156-1.5332z"></path>
</svg>
