<svg version="1.1" xmlns="http://www.w3.org/2000/svg" xmlns:xlink="http://www.w3.org/1999/xlink" width="376.03561" height="262.03279" viewBox="0,0,376.03561,262.03279"><g transform="translate(0.6804,141.95842)"><g data-paper-data="{&quot;isPaintingLayer&quot;:true}" fill="none" fill-rule="evenodd" stroke="#fc3324" stroke-width="36" stroke-linecap="round" stroke-linejoin="round" stroke-miterlimit="4" stroke-dasharray="" stroke-dashoffset="0" style="mix-blend-mode: normal"><path d="M357.35521,42.93483l-1.68973,0.10898l-1.43977,3.93237l-1.57975,0.47592l-1.80971,3.58143l-4.69925,4.94621l0.07999,0.69489l-3.46944,6.68593l-6.47896,4.09834l-0.78987,1.36378l-7.70877,6.37898l-3.20949,2.06667l-1.2398,3.1415l-6.10902,4.09934l-2.13966,4.88022l-3.42945,3.1455l-3.16949,1.63874l-1.33979,2.93453l-2.95953,1.38978l-0.96984,1.47276l-5.05919,1.2608l-8.37866,0.84287l-5.77908,-0.12098l-12.32803,-1.74772l-11.45817,-3.40845l-6.56895,-3.70841l-1.80971,-4.11234l0.67989,-0.96984l-3.39946,-2.96053l0.22996,-6.37398l-0.70989,-3.37446l-4.53927,1.02484l-8.93857,-2.16165l-1.10982,-1.11782l-3.55943,0.16897l-8.53863,-1.71273l-7.05887,-1.93069l-12.33803,-4.13534l-9.78843,-3.90937l-17.53719,-8.31167l-10.43833,-5.82707l-4.64926,-3.92337l-1.60974,-4.59526l-3.96936,-2.09966l-7.80875,-5.37114l-1.69973,-2.35162l-6.20901,-4.24032l-8.88858,-6.82991l0.17997,-1.49876l-1.91969,0.11798l-5.14918,-3.97036l-10.10838,-13.24388l-2.19965,-1.41977l-0.82987,-1.82671l-2.99952,-2.20365l-5.51912,-5.39114l-3.97936,-4.47728l-1.83971,-3.53843l-4.44929,-6.97988l-1.50976,-0.67489l-2.71956,-6.68393l-2.45961,-1.67173l-2.15965,-3.0955l0.34994,-2.55159l-1.18981,-3.1055l-3.30947,-3.44645l-1.33979,-5.6201l-4.92921,-5.05619l-7.54879,-8.39266l-14.33771,-17.69217l-9.48848,-13.44185l-10.51832,-7.63478l-2.97952,-3.78539l-1.45977,-4.75224l-2.59958,-1.29579l-2.29963,-2.83855l-0.83987,-3.98436l-2.4696,-1.77672"/></g></g></svg>