<svg version="1.1" xmlns="http://www.w3.org/2000/svg" xmlns:xlink="http://www.w3.org/1999/xlink" width="38.82847" height="28.41887" viewBox="0,0,38.82847,28.41887"><g transform="translate(-510.18412,-33.7023)"><g data-paper-data="{&quot;isPaintingLayer&quot;:true}" fill="#ff0000" fill-rule="evenodd" stroke="none" stroke-width="0" stroke-linecap="round" stroke-linejoin="round" stroke-miterlimit="10" stroke-dasharray="" stroke-dashoffset="0" style="mix-blend-mode: normal"><path d="M525.92351,37.42215l1.13995,0.30999l2.36991,-0.09l2.3999,1.02996l0.37998,0.74997l1.11996,0.32999l1.79993,0.98996l1.06996,-0.11l0.94996,-0.66997l1.98992,1.22995l1.97992,-0.19999l0.81997,0.27999l2.12991,-0.42998l1.93992,0.55998l0.13999,1.33995l1.35995,0.05l-0.12,1.15995l0.71997,1.80993l0.81997,0.73997l-0.62997,1.53994l-1.17995,0.68997l-1.38994,-0.70997l-0.62997,0.72997l0.44998,1.11996l-0.01,1.43994l1.45994,0.47998l0.89996,2.13991l0.83997,0.66997l0.26999,1.76993l-2.76989,0.12l-2.65989,-0.17999l-0.78997,0.48998l-4.9998,-0.83997l-1.20995,0.49998l-0.20999,1.59994l-0.53998,1.41994l-2.78989,-0.04l-0.14999,1.03996l-0.83997,1.49994l-1.43994,0.13999l-1.58994,-0.63997l-2.5699,-2.33991l-1.33995,0.05l-1.04996,-0.60998l-0.95996,0.02l-3.33987,-1.95992l-1.61994,-1.31995l-1.72993,-3.49986l-1.27995,-0.62997l-0.79997,-1.50994l0.19999,-1.77993l-0.94996,-0.83997l-0.65997,-1.91992l-0.1,-3.29987l-0.70997,0.21999l-1.48994,-1.68993l-0.33999,-1.41994l-0.1,-0.65997l1.14995,-1.72993l1.35995,-0.98996l1.08996,-0.34999l0.63997,0.46998l1.54994,-0.33999l0.96996,-1.61994l1.30995,-0.03l1.39994,1.01996l1.21995,1.25995l2.27991,0.87996l0.98996,-0.38998l1.77993,0.94996"/></g></g></svg>