<svg version="1.1" xmlns="http://www.w3.org/2000/svg" xmlns:xlink="http://www.w3.org/1999/xlink" width="168.1" height="43.557" viewBox="0,0,168.1,43.557"><g transform="translate(-240,-180)"><g data-paper-data="{&quot;isPaintingLayer&quot;:true}" stroke="none" stroke-linecap="butt" stroke-linejoin="miter" stroke-miterlimit="10" stroke-dasharray="" stroke-dashoffset="0" style="mix-blend-mode: normal"><path d="M248,180h152.1c4.432,0 8,3.568 8,8v27.557c0,4.432 -3.568,8 -8,8h-152.1c-4.432,0 -8,-3.568 -8,-8v-27.557c0,-4.432 3.568,-8 8,-8z" fill-opacity="0.7" fill="#000000" fill-rule="evenodd" stroke-width="0"/><g fill="#ffffff" fill-rule="nonzero" stroke-width="1"><path d="M252.2,190.99v0.55859h2.1289v0.64063h-2.1289v0.57421h2.4492v0.6875h-2.4492v1.3477h-0.83985v-1.3477h-2.2461v-0.6875h2.2461v-0.57421h-1.9102v-0.64063h1.9102v-0.55859h-1.6875v-0.59375h1.6875v-0.61328h-2.3438v-0.63282h2.3438v-0.60156h-1.6484v-0.61719h1.6484v-0.73437h0.83985v0.73437h1.9531v1.2188h0.67969v0.63282h-0.67969v1.207zM252.2,190.39625h1.1367v-0.61328h-1.1367zM252.2,189.15015h1.1367v-0.60156h-1.1367zM248.6023,189.05245c-0.32552,-0.44792 -0.71485,-0.86069 -1.168,-1.2383l0.60547,-0.57032c0.48959,0.375 0.88802,0.76953 1.1953,1.1836zM248.32886,191.08365c-0.3776,-0.4974 -0.77213,-0.92057 -1.1836,-1.2695l0.60156,-0.58594c0.41927,0.31771 0.82944,0.72264 1.2305,1.2148zM247.28196,194.19695c0.5,-0.81773 0.92577,-1.7383 1.2773,-2.7617l0.6836,0.48047c-0.32552,1.03647 -0.73439,1.9909 -1.2266,2.8633z"/><path d="M260.96,193.1c0.50261,0.35677 1.14324,0.66146 1.9219,0.91406l-0.4375,0.78125c-0.82033,-0.32291 -1.4974,-0.69661 -2.0312,-1.1211c-0.55209,0.49219 -1.17839,0.88282 -1.8789,1.1719l-0.54687,-0.61719c0.72133,-0.25521 1.34373,-0.61327 1.8672,-1.0742c-0.59375,-0.65625 -1.01951,-1.34375 -1.2773,-2.0625h-0.15234c-0.0156,0.70313 -0.0781,1.3112 -0.1875,1.8242c-0.13542,0.63281 -0.38933,1.23828 -0.76172,1.8164l-0.63281,-0.57812c0.34375,-0.55989 0.56901,-1.18619 0.67578,-1.8789c0.06771,-0.43229 0.10156,-0.91795 0.10156,-1.457v-2.5352h2.0469v-1.0859h0.83204v1.0859h1.793l0.40625,0.35156c-0.16145,0.53646 -0.35025,1.02733 -0.5664,1.4726l-0.79297,-0.23437c0.17187,-0.28125 0.29948,-0.56381 0.38281,-0.84766h-1.2226v1.3789h1.2969l0.39063,0.33594c-0.3099,0.92967 -0.71877,1.71613 -1.2266,2.3594zM260.36235,192.60781c0.39323,-0.49739 0.66536,-1.00259 0.8164,-1.5156h-1.8711c0.24479,0.55208 0.59636,1.05728 1.0547,1.5156zM259.66703,189.02581h-1.2383v1.3789h1.2383zM256.76473,189.2055c-0.34375,-0.46615 -0.76561,-0.90365 -1.2656,-1.3125l0.60937,-0.58984c0.48698,0.35156 0.92448,0.76433 1.3125,1.2383zM256.40926,191.0922c-0.37239,-0.47917 -0.78776,-0.90757 -1.2461,-1.2852l0.60156,-0.58593c0.45052,0.32031 0.87892,0.72784 1.2852,1.2226zM255.25306,194.182c0.48959,-0.7344 0.92319,-1.62503 1.3008,-2.6719l0.70703,0.48828c-0.34895,1.03907 -0.77082,1.97787 -1.2656,2.8164z"/><path d="M264.96,188.69v6.1133h-0.81641v-7.6016h0.81641v1.1836l0.375,-0.3125c0.22656,0.39323 0.40625,0.77213 0.53906,1.1367l-0.53125,0.52734c-0.13802,-0.4401 -0.26562,-0.78907 -0.38281,-1.0469zM268.5576,187.72125h2.0234v0.58594h-2.0234v0.375h1.7461v0.55859h-1.7461v0.38672h2.2812v0.625h-5.2656v-0.625h2.1758v-0.38672h-1.6953v-0.55859h1.6953v-0.375h-1.9258v-0.58594h1.9258v-0.51953h0.80859zM270.1826,190.66655v3.4297c0,0.23958 -0.05729,0.41406 -0.17187,0.52344c-0.11198,0.10677 -0.30339,0.16015 -0.57422,0.16015c-0.32031,0 -0.64974,-0.02213 -0.98828,-0.0664l-0.11328,-0.70313c0.34635,0.04167 0.62109,0.0625 0.82422,0.0625c0.10417,0 0.16667,-0.02603 0.1875,-0.0781c0.013,-0.03127 0.0195,-0.07944 0.0195,-0.14453v-0.50391h-2.3984v1.457h-0.81641v-4.1367zM266.9678,191.24077v0.45703h2.3984v-0.45703zM266.9678,192.27197v0.48047h2.3984v-0.48047zM263.0381,191.27978c0.11719,-0.54167 0.20182,-1.2422 0.25391,-2.1016l0.0195,-0.32031l0.66406,0.0625c-0.03127,1.1146 -0.12241,2.01953 -0.27344,2.7148z"/><path d="M272.77,188.02v-0.8164h0.81641v0.8164h1.2148v0.6875h-1.2148v0.67188h1.3828v0.69531h-0.46484c-0.08333,0.3099 -0.19531,0.63803 -0.33594,0.98438h0.7539v0.67968h-1.3359v0.72266h1.2852v0.69531h-1.2852v1.6484h-0.81641v-1.6484h-1.3789v-0.69531h1.3789v-0.72266h-1.4414v-0.67968h0.71875c-0.08333,-0.34635 -0.18489,-0.67448 -0.30468,-0.98438h-0.57422v-0.69531h1.6016v-0.67188h-1.2734v-0.6875zM273.74266,190.0747h-1.2422c0.08854,0.2474 0.18359,0.57553 0.28516,0.98438h0.64843c0.13542,-0.33333 0.23829,-0.66146 0.3086,-0.98438zM278.48096,187.4849v1.8281c0,0.22657 -0.04167,0.38672 -0.125,0.48047c-0.09896,0.11198 -0.30599,0.16797 -0.6211,0.16797c-0.30729,0 -0.61458,-0.01303 -0.92187,-0.0391l-0.13281,-0.70313c0.43229,0.04687 0.70703,0.0703 0.82422,0.0703c0.12239,0 0.18359,-0.05339 0.18359,-0.16016v-0.94141h-1.7109v2.2695h2.2148l0.46484,0.39844c-0.14063,0.82813 -0.39714,1.56773 -0.76953,2.2188l-0.043,0.0781c0.28646,0.33073 0.64453,0.63281 1.0742,0.90625l-0.4375,0.73047c-0.41146,-0.26563 -0.77866,-0.58334 -1.1016,-0.95313c-0.27865,0.35417 -0.59245,0.6875 -0.94141,1l-0.46094,-0.64062v0.60937h-0.79297v-7.3203zM275.97706,191.1607v2.9531c0.32031,-0.21875 0.62891,-0.52604 0.92578,-0.92187c-0.39843,-0.61459 -0.67838,-1.29165 -0.83984,-2.0312zM277.33646,192.5005c0.23177,-0.44791 0.38281,-0.89451 0.45312,-1.3398h-1.0078c0.12761,0.5 0.3125,0.9466 0.55469,1.3398z"/><path d="M279.37,188.93h1.7266c0.07813,-0.40104 0.16537,-0.89974 0.26172,-1.4961l0.0195,-0.11328l0.85547,0.1289c-0.08854,0.55209 -0.17969,1.04559 -0.27344,1.4805h0.47266c0.625,0 1.07293,0.14063 1.3438,0.42188c0.24219,0.2526 0.36328,0.64583 0.36328,1.1797c0,0.89847 -0.09505,1.7383 -0.28516,2.5195c-0.10937,0.44271 -0.24219,0.76954 -0.39844,0.98047c-0.19791,0.26302 -0.47265,0.39453 -0.82421,0.39453c-0.42188,0 -0.88281,-0.13542 -1.3828,-0.40625l0.0977,-0.82421c0.49479,0.23697 0.87889,0.35546 1.1523,0.35546c0.14323,0 0.25391,-0.07682 0.33203,-0.23046c0.08333,-0.16667 0.16276,-0.40755 0.23829,-0.72266c0.14843,-0.63802 0.22265,-1.30859 0.22265,-2.0117c0,-0.36979 -0.07422,-0.60938 -0.22265,-0.71875c-0.12761,-0.09115 -0.35547,-0.13672 -0.6836,-0.13672h-0.60156c-0.41406,1.84373 -1.00779,3.41667 -1.7812,4.7188l-0.78516,-0.42969c0.79947,-1.34113 1.36977,-2.77083 1.7109,-4.2891h-1.5586zM285.8583,192.7855c-0.29427,-1.08333 -0.75911,-2.14713 -1.3945,-3.1914l0.76172,-0.34375c0.65625,1.04687 1.14711,2.10027 1.4726,3.1602zM285.28017,189.0433c-0.16145,-0.42187 -0.42187,-0.89061 -0.78125,-1.4062l0.60547,-0.22656c0.31511,0.44531 0.57943,0.90755 0.79297,1.3867zM286.33097,188.70736c-0.20312,-0.5026 -0.46223,-0.97527 -0.77734,-1.418l0.57422,-0.19141c0.29948,0.35677 0.5612,0.80207 0.78516,1.3359z"/><path d="M292.89,189.06c0.35156,-0.29427 0.69269,-0.64194 1.0234,-1.043l0.64062,0.49609c-0.28125,0.3125 -0.62368,0.6211 -1.0273,0.92579c0.34375,0.17969 0.77215,0.36458 1.2852,0.55468l-0.42579,0.6875c-0.46875,-0.18229 -0.89581,-0.38671 -1.2812,-0.61328v0.40625h-0.72656v1.0508h2.2578v0.75391h-2.2578v1.3086c0,0.13802 0.02997,0.22005 0.0899,0.2461c0.08073,0.03387 0.24739,0.0508 0.5,0.0508c0.27604,0 0.46484,-0.01693 0.5664,-0.0508c0.10157,-0.03127 0.16667,-0.11851 0.19531,-0.26172c0.03647,-0.17709 0.056,-0.4323 0.0586,-0.76563l0.85547,0.25391c-0.02867,0.69273 -0.10419,1.12763 -0.22657,1.3047c-0.10677,0.15365 -0.27343,0.24609 -0.5,0.27734c-0.22917,0.03127 -0.60027,0.0469 -1.1133,0.0469c-0.48437,0 -0.79687,-0.02993 -0.9375,-0.0898c-0.22917,-0.09635 -0.34375,-0.3138 -0.34375,-0.65234v-1.668h-1.2305c-0.05987,0.67447 -0.28122,1.2018 -0.66406,1.582c-0.42187,0.42187 -1.04427,0.73958 -1.8672,0.95313l-0.5039,-0.7461c0.737,-0.15365 1.27997,-0.38021 1.6289,-0.67969c0.19011,-0.16667 0.32813,-0.36979 0.41407,-0.60937c0.04687,-0.125 0.08593,-0.29167 0.11718,-0.5h-2.0547v-0.75391h2.0938v-1.0508h-0.60938v-0.32422c-0.45833,0.28646 -0.92707,0.51693 -1.4062,0.69141l-0.39062,-0.65625c0.5651,-0.19271 1.09373,-0.4414 1.5859,-0.74609c-0.28385,-0.27083 -0.60416,-0.52604 -0.96093,-0.76563l0.5664,-0.55859c0.40365,0.28125 0.74738,0.5651 1.0312,0.85156c0.30729,-0.26302 0.56901,-0.53906 0.78516,-0.82813h-1.4102v-0.73437h2.6836c0.21354,0.35417 0.43229,0.65234 0.65625,0.89453c0.30469,-0.27083 0.6237,-0.60156 0.95703,-0.99219l0.63281,0.4961c-0.31511,0.34115 -0.67187,0.66667 -1.0703,0.97656c0.14323,0.11198 0.27083,0.20573 0.38281,0.28125zM291.5228,190.4741h-1.2031v1.0508h1.2031zM289.4252,189.75535h3.1836c-0.64844,-0.43489 -1.20834,-0.93619 -1.6797,-1.5039c-0.375,0.53385 -0.8763,1.03515 -1.5039,1.5039z"/><path d="M300.15,193.16l0.0547,0.69921c-1.1302,0.39844 -2.3867,0.72657 -3.7695,0.98438l-0.28906,-0.78125c0.23959,-0.03647 0.57812,-0.09506 1.0156,-0.17578v-1.4297c-0.45053,0.22917 -0.98699,0.44661 -1.6094,0.65234l-0.44531,-0.69531c1.2526,-0.33854 2.20833,-0.77084 2.8672,-1.2969h-2.7891v-0.67969h3.3477v-0.58984h-2.5313v-0.65625h2.5312v-0.55079h-2.9297v-0.67187h2.9297v-0.76953h0.85547v0.76953h3.0156v0.67187h-3.0156v0.55079h2.6172v0.65625h-2.6172v0.58984h3.4336v0.67969h-0.93359l0.57812,0.39843c-0.35677,0.34636 -0.85677,0.72526 -1.5,1.1367l-0.0898,0.0586c0.48958,0.44791 1.15365,0.81771 1.9922,1.1094l-0.52735,0.79297c-0.90887,-0.38541 -1.63933,-0.86978 -2.1914,-1.4531zM298.9664,191.1288c-0.26041,0.30469 -0.57421,0.57812 -0.9414,0.82031v1.7539c0.64323,-0.14323 1.28906,-0.30989 1.9375,-0.5l0.17968,-0.0508c-0.53385,-0.59115 -0.92579,-1.26561 -1.1758,-2.0234zM300.3922,192.1952c0.46355,-0.33073 0.86981,-0.69009 1.2188,-1.0781h-1.8476c0.16667,0.39843 0.3763,0.7578 0.6289,1.0781z"/><path d="M303.47,188.74h3.1367c-0.16927,-0.44531 -0.32421,-0.88801 -0.46484,-1.3281l0.85547,-0.05469c0.13541,0.46355 0.29817,0.92448 0.48828,1.3828h2.8867v0.80078h-2.5195c0.33593,0.69533 0.7565,1.4206 1.2617,2.1758l-0.82032,0.39062c-0.55729,-0.84373 -1.01432,-1.6992 -1.3711,-2.5664h-3.4531zM309.1497,194.5017c-0.51823,0.02867 -0.97656,0.043 -1.375,0.043c-1.08333,0 -1.8815,-0.08463 -2.3945,-0.2539c-0.92707,-0.30209 -1.3906,-0.87239 -1.3906,-1.7109c0,-0.51563 0.16016,-0.93099 0.48047,-1.2461l0.73437,0.39843c-0.21354,0.21094 -0.32031,0.48698 -0.32031,0.82813c0,0.43489 0.23437,0.73958 0.70312,0.91406c0.41407,0.15365 1.10677,0.23047 2.0781,0.23047c0.41146,0 0.87499,-0.01953 1.3906,-0.0586z"/><path d="M312.83,187.38h0.86328v2.207c0.61979,-0.64323 1.11589,-1.08463 1.4883,-1.3242c0.34635,-0.22396 0.70572,-0.33594 1.0781,-0.33594c0.375,0 0.67708,0.10547 0.90625,0.31641c0.30208,0.28125 0.45312,0.64975 0.45312,1.1055c0,0.11979 -0.01563,0.27865 -0.0469,0.47656c-0.22917,1.45573 -0.34375,2.46353 -0.34375,3.0234c0,0.23958 0.0612,0.35937 0.18359,0.35937c0.07813,0 0.18099,-0.04427 0.3086,-0.13281c0.26823,-0.18489 0.53906,-0.48828 0.8125,-0.91015l0.32031,0.89453c-0.16667,0.26562 -0.3737,0.5013 -0.6211,0.70703c-0.28645,0.23958 -0.59244,0.35937 -0.91796,0.35937c-0.3099,0 -0.55079,-0.10807 -0.72266,-0.32422c-0.14583,-0.18489 -0.21875,-0.49349 -0.21875,-0.92578c0,-0.32812 0.04297,-0.82162 0.12891,-1.4805c0.10937,-0.82813 0.18229,-1.44273 0.21875,-1.8438c0.00533,-0.06513 0.008,-0.11982 0.008,-0.16406c0,-0.22917 -0.04818,-0.40495 -0.14453,-0.52734c-0.09115,-0.11719 -0.21745,-0.17578 -0.37891,-0.17578c-0.54427,0 -1.38151,0.72527 -2.5117,2.1758v3.6875h-0.86328v-2.7031c-0.43489,0.60938 -0.83593,1.18491 -1.2031,1.7266l-0.40625,-0.92579c0.61719,-0.7474 1.15365,-1.45963 1.6094,-2.1367v-0.99219h-1.3711v-0.78516h1.3711z"/><path d="M319.46,188.15c2.39587,-0.03647 4.6602,-0.09767 6.793,-0.1836l0.0469,0.77735c-0.94013,0.04687 -1.6719,0.19009 -2.1953,0.42968c-0.5,0.22917 -0.90103,0.54688 -1.2031,0.95313c-0.34375,0.46094 -0.51563,0.97397 -0.51563,1.5391c0,0.5625 0.19531,0.98437 0.58594,1.2656c0.44791,0.32031 1.13541,0.54036 2.0625,0.66015l-0.18359,0.87891c-1.20833,-0.16146 -2.0586,-0.47396 -2.5508,-0.9375c-0.52864,-0.49479 -0.79296,-1.10939 -0.79296,-1.8438c0,-0.66667 0.23958,-1.28907 0.71875,-1.8672c0.34895,-0.42448 0.82682,-0.76561 1.4336,-1.0234c-1.07553,0.03647 -2.46227,0.09767 -4.1602,0.1836z"/><path d="M330.95,192.3c-0.48177,1.41667 -1.02213,2.125 -1.6211,2.125c-0.42708,0 -0.79298,-0.29948 -1.0977,-0.89844c-0.23437,-0.46354 -0.39583,-0.97394 -0.48437,-1.5312c-0.10677,-0.67707 -0.16016,-1.54687 -0.16016,-2.6094c0,-0.46094 0.01693,-0.95574 0.0508,-1.4844l0.91797,0.0703c-0.03387,0.52864 -0.0508,1.03124 -0.0508,1.5078c0,1.67187 0.15625,2.83723 0.46875,3.4961c0.12761,0.27083 0.2474,0.40625 0.35938,0.40625c0.07291,0 0.16406,-0.08333 0.27343,-0.25c0.22396,-0.33854 0.44011,-0.80467 0.64844,-1.3984zM333.4227,193.22969c-0.13281,-1.09893 -0.29557,-1.98697 -0.48828,-2.6641c-0.23437,-0.82033 -0.50651,-1.57163 -0.81641,-2.2539l0.83203,-0.20313c0.42969,0.8516 0.74871,1.6719 0.95704,2.4609c0.17187,0.64063 0.3138,1.45573 0.42578,2.4453z"/><path d="M336.24,187.63h4.3828l0.41797,0.64844c-1.35413,0.82813 -2.5273,1.58073 -3.5195,2.2578c0.64062,-0.26823 1.28385,-0.40234 1.9297,-0.40234c0.58073,0 1.0651,0.09245 1.4531,0.27734c0.35937,0.17187 0.63932,0.40625 0.83984,0.70313c0.20833,0.3151 0.3125,0.67707 0.3125,1.0859c0,0.57292 -0.19531,1.05209 -0.58593,1.4375c-0.26823,0.26823 -0.61197,0.47136 -1.0312,0.60938c-0.54948,0.17969 -1.15105,0.26953 -1.8047,0.26953c-0.7526,0 -1.3073,-0.13932 -1.6641,-0.41797c-0.27865,-0.21875 -0.41797,-0.51432 -0.41797,-0.88672c0,-0.28125 0.10156,-0.53125 0.30468,-0.75c0.30729,-0.33073 0.72266,-0.49609 1.2461,-0.49609c0.55469,0 0.99869,0.1862 1.332,0.55859c0.24219,0.27083 0.41667,0.6341 0.52344,1.0898c0.80207,-0.25521 1.2031,-0.72658 1.2031,-1.4141c0,-0.52083 -0.21745,-0.90493 -0.65234,-1.1523c-0.29167,-0.16667 -0.66147,-0.25 -1.1094,-0.25c-0.66927,0 -1.27343,0.09245 -1.8125,0.27734c-0.39843,0.13542 -0.9336,0.46224 -1.6055,0.98047l-0.55078,-0.66406c0.72393,-0.625 1.54817,-1.2591 2.4727,-1.9023c0.63802,-0.44271 1.20052,-0.80598 1.6875,-1.0898h-3.3516zM339.2009,193.7667c-0.18489,-0.737 -0.54816,-1.1055 -1.0898,-1.1055c-0.29948,0 -0.51563,0.09505 -0.64844,0.28516c-0.06247,0.08593 -0.0937,0.17838 -0.0937,0.27734c0,0.20573 0.14583,0.36068 0.4375,0.46485c0.21094,0.07291 0.49349,0.10937 0.84766,0.10937c0.15104,0 0.33333,-0.0104 0.54687,-0.0312z"/><path d="M346.16,189.95c-0.14323,-0.14063 -0.28646,-0.26172 -0.42969,-0.36328c-0.08854,0.09896 -0.20442,0.21745 -0.34765,0.35547l-0.42578,-0.48047c0.59635,-0.625 1.02605,-1.375 1.2891,-2.25l0.70312,0.11719c-0.02607,0.08333 -0.06252,0.19531 -0.10937,0.33594h0.74219l0.35937,0.47656c-0.22917,0.7448 -0.57943,1.41407 -1.0508,2.0078h2.2344c-0.38803,-0.39844 -0.70313,-0.86981 -0.94532,-1.4141c-0.15885,-0.36459 -0.30208,-0.81382 -0.42968,-1.3477l0.6875,-0.13672c0.14843,0.64844 0.35286,1.18881 0.61328,1.6211c0.24479,-0.25781 0.42447,-0.47787 0.53906,-0.66016h-0.80078v-0.625h1.2891l0.45703,0.41797c-0.30989,0.50521 -0.67449,0.97394 -1.0938,1.4062c0.34375,0.38802 0.75262,0.71094 1.2266,0.96875l-0.45312,0.64844c-0.38281,-0.25261 -0.71615,-0.51563 -1,-0.78907v0.60547h-2.6016v-0.38281c-0.26302,0.26823 -0.57161,0.51823 -0.92578,0.75l-0.48047,-0.51172c0.36979,-0.21615 0.68749,-0.46615 0.95312,-0.75zM346.51547,189.52031c0.05987,-0.08333 0.11716,-0.17057 0.17188,-0.26171l0.0273,-0.0391c-0.17709,-0.1276 -0.33724,-0.22786 -0.48047,-0.30078c-0.06513,0.09896 -0.12763,0.19011 -0.1875,0.27344c0.16146,0.09115 0.31771,0.20052 0.46875,0.32812zM346.59747,188.25081c-0.03907,0.08594 -0.07683,0.16407 -0.11328,0.23438c0.16406,0.07031 0.32422,0.15625 0.48047,0.25781c0.06247,-0.13541 0.12887,-0.29948 0.19922,-0.49219zM343.86307,193.13751v1.668h-0.76172v-7.3125h1.9531l0.33594,0.30469c-0.17708,0.7526 -0.40885,1.5039 -0.69531,2.2539c0.40885,0.57553 0.61328,1.23309 0.61328,1.9727c0,0.42969 -0.05859,0.72786 -0.17578,0.89453c-0.11979,0.17448 -0.35156,0.26172 -0.69531,0.26172c-0.17709,0 -0.36849,-0.01433 -0.57422,-0.043zM343.83567,192.3797c0.17448,0.02347 0.31641,0.0352 0.42578,0.0352c0.12761,0 0.20704,-0.02603 0.23829,-0.0781c0.03387,-0.05467 0.0508,-0.18487 0.0508,-0.39062c0,-0.66146 -0.1888,-1.26823 -0.56641,-1.8203l0.0391,-0.11328c0.23177,-0.625 0.41276,-1.22527 0.54297,-1.8008h-0.73047zM348.30837,192.18048v1.9102c0,0.27865 -0.0651,0.46745 -0.19531,0.5664c-0.10677,0.07813 -0.29948,0.11719 -0.57813,0.11719c-0.29948,0 -0.56771,-0.01953 -0.80469,-0.0586l-0.16796,-0.75c0.35156,0.05727 0.60807,0.0859 0.76953,0.0859c0.09635,0 0.15234,-0.02343 0.16797,-0.0703c0.0104,-0.02607 0.0156,-0.06643 0.0156,-0.12109v-1.6797h-2.0703v-0.71094h5.0625v0.71094zM344.97247,193.94608c0.47917,-0.4375 0.85547,-0.95963 1.1289,-1.5664l0.76172,0.27344c-0.29948,0.67967 -0.70311,1.28123 -1.2109,1.8047zM349.99597,194.35623c-0.38542,-0.58854 -0.80859,-1.11457 -1.2695,-1.5781l0.65625,-0.38282c0.49479,0.44531 0.92969,0.93358 1.3047,1.4648z"/><path d="M351.66,194.46c-0.09896,-0.8854 -0.14844,-1.7656 -0.14844,-2.6406c0,-1.5 0.11068,-2.92447 0.33203,-4.2734l0.85938,0.0898c-0.21094,1.16667 -0.31641,2.48307 -0.31641,3.9492c0,0.9844 0.05469,1.90497 0.16406,2.7617zM354.0038,188.2725h3.7539v0.83203h-3.7539zM358.0233,193.9795c-0.52083,0.08073 -1.13933,0.1211 -1.8555,0.1211c-1.79947,0 -2.6992,-0.52863 -2.6992,-1.5859c0,-0.41927 0.11198,-0.78517 0.33594,-1.0977l0.73828,0.32813c-0.14063,0.19791 -0.21094,0.42057 -0.21094,0.66797c0,0.30469 0.15235,0.51432 0.45704,0.6289c0.33854,0.13021 0.80077,0.19532 1.3867,0.19532c0.63281,0 1.21875,-0.04167 1.7578,-0.125z"/><path d="M360.86,194.67c-0.48177,-0.70313 -1.02603,-1.35417 -1.6328,-1.9531l0.63281,-0.55859c0.63021,0.59895 1.18491,1.23569 1.6641,1.9102z"/><path d="M367.9,188.32v3.0547h3.3867v0.80078h-3.3867v2.625h-0.87891v-2.625h-3.3359v-0.80078h3.3359v-3.0547h-2.9766v-0.77734h6.8867v0.77734zM365.2945,191.0778c-0.25781,-0.7656 -0.54297,-1.4479 -0.85547,-2.0469l0.84766,-0.34375c0.29167,0.50521 0.58984,1.19011 0.89453,2.0547zM368.7554,190.80827c0.33593,-0.63021 0.61979,-1.35287 0.85156,-2.168l0.88672,0.28516c-0.24479,0.7526 -0.55209,1.48307 -0.92188,2.1914z"/><path d="M375.88,188.27h0.8125c0.25,-0.37761 0.44271,-0.71874 0.57812,-1.0234l0.84766,0.26563c-0.13802,0.23437 -0.30729,0.48698 -0.50781,0.75781h1.4531v1.6797h-0.85547v-1.0234h-5.4492v1.0234h-0.85547v-1.6797h1.4258c-0.14583,-0.24739 -0.32031,-0.48958 -0.52344,-0.72656l0.80078,-0.28125c0.21094,0.27604 0.41407,0.61197 0.60938,1.0078h0.83203v-1.0703h0.83203zM377.9269,189.4223v1.8164h-2.0391v0.57813h2.8398v1.7734c0,0.22135 -0.06511,0.37891 -0.19532,0.47266c-0.125,0.09115 -0.33854,0.13672 -0.64062,0.13672c-0.25781,0 -0.58985,-0.01563 -0.9961,-0.0469l-0.13671,-0.74609c0.35156,0.05467 0.64843,0.082 0.89062,0.082c0.10417,0 0.16927,-0.01693 0.19531,-0.0508c0.02347,-0.02867 0.0352,-0.07815 0.0352,-0.14844v-0.8164h-1.9922v2.3281h-0.84765v-2.3281h-1.8516v1.7734h-0.87109v-2.4297h2.7227v-0.57813h-2.0156v-1.8164zM373.8293,189.99652v0.66797h3.2734v-0.66797z"/><path d="M382.32,187.8v5.582h-1.6641v0.66406h-0.77735v-6.2461zM380.6559,188.52656v1.6484h0.89453v-1.6484zM380.6559,190.88596v1.7422h0.89453v-1.7422zM384.32,188.06176v-0.86328h0.83203v0.86328h1.7031v0.71094h-1.7031v0.89843h2.1445v0.71875h-1.1211v0.83985h0.9375v0.73437h-0.9375v2.1133c0,0.28646 -0.07813,0.48308 -0.23438,0.58985c-0.125,0.08333 -0.33724,0.125 -0.63672,0.125c-0.36198,0 -0.66927,-0.01693 -0.92187,-0.0508l-0.16016,-0.78125c0.30729,0.05207 0.59505,0.0781 0.86328,0.0781c0.1224,0 0.19922,-0.02603 0.23047,-0.0781c0.02347,-0.03647 0.0352,-0.09636 0.0352,-0.17969v-1.8164h-2.7656v-0.73437h2.7656v-0.83985h-2.8633v-0.71875h1.832v-0.89843h-1.5938v-0.71094zM383.80047,193.80786c-0.26302,-0.54167 -0.53516,-1.0039 -0.81641,-1.3867l0.71094,-0.39843c0.30989,0.375 0.59505,0.82293 0.85547,1.3438z"/><path d="M388.38,194.46c-0.09896,-0.8854 -0.14844,-1.7656 -0.14844,-2.6406c0,-1.5 0.11068,-2.92447 0.33203,-4.2734l0.85937,0.0898c-0.21093,1.16667 -0.3164,2.48307 -0.3164,3.9492c0,0.9844 0.05469,1.90497 0.16406,2.7617zM390.7238,188.2725h3.7539v0.83203h-3.7539zM394.7433,193.9795c-0.52083,0.08073 -1.13933,0.1211 -1.8555,0.1211c-1.79947,0 -2.6992,-0.52863 -2.6992,-1.5859c0,-0.41927 0.11198,-0.78517 0.33594,-1.0977l0.73828,0.32813c-0.14063,0.19791 -0.21094,0.42057 -0.21094,0.66797c0,0.30469 0.15234,0.51432 0.45703,0.6289c0.33854,0.13021 0.80077,0.19532 1.3867,0.19532c0.63281,0 1.21875,-0.04167 1.7578,-0.125z"/><path d="M252.15,203.96l0.0547,0.69922c-1.1302,0.39843 -2.3867,0.72656 -3.7695,0.98437l-0.28906,-0.78125c0.23959,-0.03647 0.57812,-0.09506 1.0156,-0.17578v-1.4297c-0.45053,0.22917 -0.98699,0.44662 -1.6094,0.65235l-0.44531,-0.69532c1.2526,-0.33854 2.20833,-0.77084 2.8672,-1.2969h-2.7891v-0.67969h3.3477v-0.58984h-2.5313v-0.65625h2.5312v-0.55078h-2.9297v-0.67188h2.9297v-0.76953h0.85547v0.76953h3.0156v0.67188h-3.0156v0.55078h2.6172v0.65625h-2.6172v0.58984h3.4336v0.67969h-0.93359l0.57812,0.39844c-0.35677,0.34635 -0.85677,0.72525 -1.5,1.1367l-0.0898,0.0586c0.48958,0.44791 1.15365,0.81771 1.9922,1.1094l-0.52735,0.79297c-0.90887,-0.38541 -1.63933,-0.86978 -2.1914,-1.4531zM250.9664,201.9288c-0.26041,0.30469 -0.57421,0.57812 -0.9414,0.82031v1.7539c0.64323,-0.14323 1.28906,-0.3099 1.9375,-0.5l0.17968,-0.0508c-0.53385,-0.59114 -0.92579,-1.26561 -1.1758,-2.0234zM252.3922,202.9952c0.46355,-0.33073 0.86981,-0.69009 1.2188,-1.0781h-1.8476c0.16667,0.39843 0.3763,0.7578 0.6289,1.0781z"/><path d="M259.48,201.33v3.4648c0,0.3151 -0.0638,0.52994 -0.1914,0.64453c-0.11979,0.10417 -0.35157,0.15625 -0.69532,0.15625c-0.39062,0 -0.76172,-0.02473 -1.1133,-0.0742l-0.16797,-0.82422c0.36459,0.05993 0.71355,0.0899 1.0469,0.0899c0.11198,0 0.18229,-0.01953 0.21094,-0.0586c0.0208,-0.03387 0.0312,-0.08986 0.0312,-0.16797v-3.2305h-3.3594v-0.77741h7.5273v0.77734zM256.1792,198.4355h5.6484v0.76953h-5.6484zM255.19483,204.4277c0.5625,-0.58854 1.01563,-1.37111 1.3594,-2.3477l0.80859,0.30469c-0.39843,1.1172 -0.89973,1.9948 -1.5039,2.6328zM261.89793,204.90426c-0.53906,-1.1406 -1.00779,-1.97523 -1.4062,-2.5039l0.73438,-0.4375c0.57291,0.737 1.06118,1.53907 1.4648,2.4062z"/><path d="M263.47,199.54h3.1367c-0.16927,-0.44531 -0.32421,-0.88801 -0.46484,-1.3281l0.85547,-0.05468c0.13541,0.46354 0.29817,0.92447 0.48828,1.3828h2.8867v0.80078h-2.5195c0.33593,0.69533 0.7565,1.4206 1.2617,2.1758l-0.82032,0.39063c-0.55729,-0.84373 -1.01432,-1.6992 -1.3711,-2.5664h-3.4531zM269.1497,205.3017c-0.51823,0.02867 -0.97656,0.043 -1.375,0.043c-1.08333,0 -1.8815,-0.08464 -2.3945,-0.25391c-0.92707,-0.30209 -1.3906,-0.87239 -1.3906,-1.7109c0,-0.51563 0.16016,-0.93099 0.48047,-1.2461l0.73437,0.39844c-0.21354,0.21093 -0.32031,0.48697 -0.32031,0.82812c0,0.43489 0.23437,0.73958 0.70312,0.91406c0.41407,0.15365 1.10677,0.23047 2.0781,0.23047c0.41146,0 0.87499,-0.01953 1.3906,-0.0586z"/><path d="M272.83,198.18h0.86328v2.207c0.61979,-0.64323 1.11589,-1.08463 1.4883,-1.3242c0.34635,-0.22395 0.70572,-0.33593 1.0781,-0.33593c0.375,0 0.67708,0.10547 0.90625,0.3164c0.30208,0.28125 0.45312,0.64975 0.45312,1.1055c0,0.11979 -0.01563,0.27865 -0.0469,0.47656c-0.22917,1.45573 -0.34375,2.46353 -0.34375,3.0234c0,0.23959 0.0612,0.35938 0.18359,0.35938c0.07813,0 0.18099,-0.04427 0.3086,-0.13282c0.26823,-0.18489 0.53906,-0.48828 0.8125,-0.91015l0.32031,0.89453c-0.16667,0.26563 -0.3737,0.5013 -0.6211,0.70703c-0.28645,0.23958 -0.59244,0.35937 -0.91796,0.35937c-0.3099,0 -0.55079,-0.10807 -0.72266,-0.32421c-0.14583,-0.1849 -0.21875,-0.4935 -0.21875,-0.92579c0,-0.32812 0.04297,-0.82162 0.12891,-1.4805c0.10937,-0.82813 0.18229,-1.44273 0.21875,-1.8438c0.00533,-0.06513 0.008,-0.11982 0.008,-0.16407c0,-0.22917 -0.04818,-0.40495 -0.14453,-0.52734c-0.09115,-0.11719 -0.21745,-0.17578 -0.37891,-0.17578c-0.54427,0 -1.38151,0.72527 -2.5117,2.1758v3.6875h-0.86328v-2.7031c-0.43489,0.60938 -0.83593,1.18491 -1.2031,1.7266l-0.40625,-0.92578c0.61719,-0.7474 1.15365,-1.45963 1.6094,-2.1367v-0.99219h-1.3711v-0.78516h1.3711z"/><path d="M280.32,198.43h4.3828l0.41797,0.64844c-1.35413,0.82813 -2.5273,1.58073 -3.5195,2.2578c0.64063,-0.26823 1.28386,-0.40234 1.9297,-0.40234c0.58073,0 1.06509,0.09245 1.4531,0.27734c0.35938,0.17188 0.63933,0.40626 0.83985,0.70313c0.20833,0.3151 0.3125,0.67707 0.3125,1.0859c0,0.57291 -0.19531,1.05208 -0.58594,1.4375c-0.26823,0.26823 -0.61196,0.47135 -1.0312,0.60937c-0.54948,0.17969 -1.15105,0.26953 -1.8047,0.26953c-0.7526,0 -1.3073,-0.13932 -1.6641,-0.41797c-0.27865,-0.21875 -0.41797,-0.51432 -0.41797,-0.88672c0,-0.28125 0.10156,-0.53125 0.30469,-0.75c0.30729,-0.33073 0.72266,-0.49609 1.2461,-0.49609c0.55469,0 0.99869,0.1862 1.332,0.55859c0.24219,0.27083 0.41667,0.6341 0.52344,1.0898c0.80207,-0.25521 1.2031,-0.72657 1.2031,-1.4141c0,-0.52083 -0.21745,-0.90497 -0.65235,-1.1524c-0.29167,-0.16667 -0.66147,-0.25 -1.1094,-0.25c-0.66927,0 -1.27343,0.09245 -1.8125,0.27735c-0.39844,0.13541 -0.93361,0.46223 -1.6055,0.98046l-0.55078,-0.66406c0.72393,-0.625 1.54813,-1.2591 2.4726,-1.9023c0.63803,-0.44271 1.20053,-0.80597 1.6875,-1.0898h-3.3516zM283.2809,204.5667c-0.18489,-0.737 -0.54816,-1.1055 -1.0898,-1.1055c-0.29948,0 -0.51563,0.09505 -0.64844,0.28516c-0.06247,0.08594 -0.0937,0.17839 -0.0937,0.27734c0,0.20573 0.14583,0.36068 0.4375,0.46485c0.21093,0.07291 0.49348,0.10937 0.84765,0.10937c0.15105,0 0.33334,-0.0104 0.54688,-0.0312z"/><path d="M293.02,199.05l0.5586,0.45704c-0.36459,1.66667 -0.95572,2.95703 -1.7734,3.8711c-0.45313,0.50521 -1.03906,0.94791 -1.7578,1.3281c-0.51042,0.26823 -1.05859,0.48178 -1.6445,0.64063l-0.45313,-0.76953c1.33853,-0.34896 2.3776,-0.90626 3.1172,-1.6719c-0.60937,-0.54687 -1.28124,-1.03124 -2.0156,-1.4531l0.51172,-0.63281c0.71613,0.37239 1.39713,0.83073 2.043,1.375c0.50781,-0.81253 0.82682,-1.599 0.95703,-2.3594h-2.75c-0.63021,0.9818 -1.37241,1.7331 -2.2266,2.2539l-0.57422,-0.6211c0.82553,-0.49739 1.50393,-1.15493 2.0352,-1.9726c0.27343,-0.41667 0.48567,-0.8659 0.63672,-1.3477l0.84765,0.20703c-0.08593,0.23437 -0.18229,0.46614 -0.28906,0.69531z"/><path d="M294.5,199.22h5.168l0.83985,0.73437c-0.10157,1.05727 -0.27865,1.8854 -0.53125,2.4844c-0.36979,0.8802 -0.98306,1.5612 -1.8398,2.043c-0.56771,0.32292 -1.34764,0.60157 -2.3398,0.83594l-0.44922,-0.79297c0.8698,-0.15885 1.5586,-0.36458 2.0664,-0.61718c0.82813,-0.40886 1.41407,-1.03126 1.7578,-1.8672c0.21354,-0.52083 0.33594,-1.1888 0.36719,-2.0039h-5.0391zM300.1094,199.42312c-0.16146,-0.49479 -0.36719,-0.94923 -0.61719,-1.3633l0.625,-0.14453c0.21875,0.30469 0.42579,0.73959 0.6211,1.3047zM301.2266,199.26296c-0.14583,-0.45052 -0.35807,-0.88542 -0.63672,-1.3047l0.58984,-0.14453c0.26823,0.34895 0.48959,0.76172 0.66407,1.2383z"/><path d="M302.76,199.1h2.1055c0.23177,-0.36979 0.40755,-0.66797 0.52734,-0.89454l0.8711,0.125c-0.07813,0.14063 -0.21615,0.36979 -0.41406,0.6875l-0.0508,0.082h2.7539v0.76953h-3.2734c-0.34115,0.46875 -0.66667,0.87501 -0.97656,1.2188c0.49219,-0.29427 0.94142,-0.44141 1.3477,-0.44141c0.63021,0 1.04297,0.31641 1.2383,0.94922c0.66667,-0.22135 1.34637,-0.4401 2.0391,-0.65625l0.33594,0.75781l-0.13672,0.0391l-0.38672,0.10157c-0.7292,0.19791 -1.31253,0.36718 -1.75,0.50781c0.03127,0.33854 0.0534,0.77604 0.0664,1.3125l-0.85547,0.0469c-0.00267,-0.30989 -0.00787,-0.64583 -0.0156,-1.0078v-0.0781c-1.19793,0.40885 -1.7969,0.82032 -1.7969,1.2344c0,0.21354 0.15365,0.35937 0.46094,0.4375c0.29687,0.07552 0.82814,0.11328 1.5938,0.11328c0.70573,0 1.4466,-0.04036 2.2226,-0.12109l0.0937,0.83203c-0.7526,0.05727 -1.53253,0.0859 -2.3398,0.0859c-0.9948,0 -1.70183,-0.07552 -2.1211,-0.22656c-0.51823,-0.1875 -0.77734,-0.52473 -0.77734,-1.0117c0,-0.41146 0.18359,-0.77473 0.55078,-1.0898c0.38021,-0.32552 1.04947,-0.66145 2.0078,-1.0078c-0.05207,-0.20052 -0.12108,-0.34114 -0.20703,-0.42187c-0.09635,-0.09115 -0.22396,-0.13672 -0.38281,-0.13672c-0.25781,0 -0.58203,0.09766 -0.97266,0.29297c-0.48177,0.23958 -0.9987,0.60025 -1.5508,1.082l-0.51953,-0.59375c0.80987,-0.7526 1.444,-1.4922 1.9024,-2.2188h-1.5898z"/><path d="M312.05,205.47c-0.48177,-0.70313 -1.02604,-1.35417 -1.6328,-1.9531l0.63282,-0.55859c0.63021,0.59895 1.18491,1.23569 1.6641,1.9102z"/><path d="M318.77,201.16v3.0938c0,0.20052 0.08594,0.32161 0.25781,0.36328c0.17708,0.04427 0.58201,0.0664 1.2148,0.0664c0.61719,0 1.02475,-0.03123 1.2227,-0.0937c0.11198,-0.03647 0.1849,-0.13803 0.21875,-0.30469c0.04427,-0.23437 0.0677,-0.51172 0.0703,-0.83203l0.81641,0.23047c-0.04167,0.7682 -0.14714,1.2591 -0.31641,1.4727c-0.11198,0.14062 -0.28125,0.22395 -0.50781,0.25c-0.35677,0.03907 -0.96224,0.0586 -1.8164,0.0586c-0.66145,0 -1.09505,-0.01823 -1.3008,-0.0547c-0.30989,-0.05207 -0.50651,-0.18878 -0.58984,-0.41015c-0.04167,-0.11719 -0.0625,-0.27344 -0.0625,-0.46875v-3.0977l-0.7461,0.25781l-0.18359,-0.75781l0.92969,-0.32031v-2.1055h0.79297v1.832l0.83984,-0.28516v-2.0586h0.78516v1.7852l1.3086,-0.44922l0.41016,0.25v2.9258c0,0.20313 -0.04818,0.35417 -0.14453,0.45312c-0.10938,0.10938 -0.29298,0.16407 -0.55079,0.16407c-0.21093,0 -0.43489,-0.01823 -0.67187,-0.0547l-0.12891,-0.7461c0.15365,0.03907 0.3099,0.0586 0.46875,0.0586c0.11459,0 0.1849,-0.02343 0.21094,-0.0703c0.02607,-0.03907 0.0391,-0.10417 0.0391,-0.19532v-1.8476l-0.9414,0.32812v3.1602h-0.78516v-2.8906zM315.8989,199.8827v-1.8867h0.83985v1.8867h0.75781v0.79297h-0.75781v2.4844c0.27343,-0.09375 0.54427,-0.1914 0.8125,-0.29297l0.0742,0.75391c-0.84373,0.38541 -1.70963,0.70833 -2.5977,0.96875l-0.27344,-0.83203c0.40104,-0.10417 0.75261,-0.20313 1.0547,-0.29688c0.03647,-0.013 0.0664,-0.0221 0.0898,-0.0273v-2.7578h-0.99218v-0.79297z"/><path d="M326.24,199.05v-0.33594h-2.4414v-0.55859h5.7656v0.55859h-2.4922v0.33594h3.2344v1.4023h-0.84766v-0.89844h-2.3867v1.5195h-0.83203v-1.5195h-2.3438v0.89844h-0.83984v-1.4023zM329.0056,204.593c0.39843,0.15104 0.89583,0.27083 1.4922,0.35937l-0.45703,0.66406c-0.83593,-0.14323 -1.52213,-0.38932 -2.0586,-0.73828c-0.53385,-0.34896 -0.94922,-0.78256 -1.2461,-1.3008h-0.86328v1.2031c0.57552,-0.08073 1.10939,-0.16667 1.6016,-0.25782l0.0547,0.58203c-0.91667,0.21875 -1.96483,0.40886 -3.1445,0.57032l-0.23047,-0.6875c0.40885,-0.04427 0.6888,-0.0755 0.83985,-0.0937l0.0469,-0.008v-1.3086h-0.85547c-0.03647,0.45833 -0.09636,0.82423 -0.17968,1.0977c-0.09896,0.32812 -0.25782,0.63411 -0.47657,0.91797l-0.69531,-0.57422c0.25521,-0.33073 0.41406,-0.71747 0.47656,-1.1602c0.03387,-0.23958 0.0508,-0.53776 0.0508,-0.89453v-1.6562h6.7422v0.51953h-5.9023v1.1992h6.2383v0.55078h-0.88672l0.49609,0.32813c-0.29427,0.24479 -0.64193,0.47395 -1.043,0.6875zM328.39622,204.29221c0.375,-0.25521 0.67318,-0.49349 0.89453,-0.71484h-1.707c0.22396,0.28646 0.49479,0.52474 0.8125,0.71484zM324.24002,199.84301h1.6641v0.4414h-1.6641zM324.24002,200.56176h1.6641v0.44921h-1.6641zM327.40802,199.84301h1.7148v0.4414h-1.7148zM327.40802,200.56176h1.7148v0.44921h-1.7148zM324.66582,202.15556h4.8633v0.51171h-4.8633z"/><path d="M332.64,199.49v6.1133h-0.8164v-7.6016h0.8164v1.1836l0.375,-0.3125c0.22657,0.39323 0.40626,0.77213 0.53907,1.1367l-0.53125,0.52735c-0.13802,-0.44011 -0.26563,-0.78907 -0.38282,-1.0469zM336.2377,198.52125h2.0234v0.58594h-2.0234v0.375h1.7461v0.55859h-1.7461v0.38672h2.2812v0.625h-5.2656v-0.625h2.1758v-0.38672h-1.6953v-0.55859h1.6953v-0.375h-1.9258v-0.58594h1.9258v-0.51953h0.80859zM337.8627,201.46655v3.4297c0,0.23959 -0.05729,0.41407 -0.17187,0.52344c-0.11198,0.10677 -0.30339,0.16015 -0.57422,0.16015c-0.32031,0 -0.64974,-0.02213 -0.98828,-0.0664l-0.11329,-0.70313c0.34636,0.04167 0.6211,0.0625 0.82422,0.0625c0.10417,0 0.16667,-0.02603 0.1875,-0.0781c0.013,-0.03127 0.0195,-0.07944 0.0195,-0.14453v-0.50391h-2.3984v1.457h-0.81641v-4.1367zM334.6479,202.04077v0.45703h2.3984v-0.45703zM334.6479,203.07197v0.48047h2.3984v-0.48047zM330.7182,202.07978c0.11719,-0.54167 0.20182,-1.2422 0.25391,-2.1016l0.0195,-0.32031l0.66406,0.0625c-0.03127,1.1146 -0.12241,2.01953 -0.27344,2.7148z"/><path d="M340.45,198.82v-0.81641h0.8164v0.81641h1.2148v0.6875h-1.2148v0.67187h1.3828v0.69531h-0.46485c-0.08333,0.3099 -0.19531,0.63803 -0.33593,0.98438h0.7539v0.67969h-1.3359v0.72265h1.2852v0.69531h-1.2852v1.6484h-0.8164v-1.6484h-1.3789v-0.69531h1.3789v-0.72265h-1.4414v-0.67969h0.71875c-0.08333,-0.34635 -0.1849,-0.67448 -0.30469,-0.98438h-0.57421v-0.69531h1.6016v-0.67187h-1.2734v-0.6875zM341.42265,200.8747h-1.2422c0.08854,0.2474 0.18359,0.57553 0.28515,0.98438h0.64844c0.13542,-0.33333 0.23828,-0.66146 0.30859,-0.98438zM346.16095,198.2849v1.8281c0,0.22657 -0.04167,0.38672 -0.125,0.48047c-0.09896,0.11198 -0.30599,0.16797 -0.6211,0.16797c-0.30729,0 -0.61458,-0.01303 -0.92187,-0.0391l-0.13282,-0.70313c0.43229,0.04687 0.70703,0.0703 0.82422,0.0703c0.1224,0 0.1836,-0.05339 0.1836,-0.16016v-0.94141h-1.7109v2.2695h2.2148l0.46485,0.39843c-0.14063,0.82813 -0.39714,1.56773 -0.76953,2.2188l-0.043,0.0781c0.28645,0.33073 0.64452,0.63281 1.0742,0.90625l-0.4375,0.73047c-0.41146,-0.26563 -0.77866,-0.58334 -1.1016,-0.95313c-0.27865,0.35417 -0.59245,0.6875 -0.9414,1l-0.46094,-0.64062v0.60937h-0.79297v-7.3203zM343.65705,201.9607v2.9531c0.32031,-0.21875 0.62891,-0.52605 0.92578,-0.92188c-0.39844,-0.61458 -0.67839,-1.29165 -0.83984,-2.0312zM345.01645,203.3005c0.23177,-0.44791 0.38282,-0.89451 0.45313,-1.3398h-1.0078c0.1276,0.5 0.31249,0.9466 0.55468,1.3398z"/><path d="M352.86,199.05l0.55859,0.45704c-0.36458,1.66667 -0.95571,2.95703 -1.7734,3.8711c-0.45312,0.50521 -1.03905,0.94791 -1.7578,1.3281c-0.51041,0.26823 -1.05858,0.48178 -1.6445,0.64063l-0.45312,-0.76953c1.33853,-0.34896 2.3776,-0.90626 3.1172,-1.6719c-0.60937,-0.54687 -1.28124,-1.03124 -2.0156,-1.4531l0.51172,-0.63281c0.71613,0.37239 1.39713,0.83073 2.043,1.375c0.50781,-0.81253 0.82682,-1.599 0.95703,-2.3594h-2.75c-0.63021,0.9818 -1.37241,1.7331 -2.2266,2.2539l-0.57421,-0.6211c0.82553,-0.49739 1.50393,-1.15493 2.0352,-1.9726c0.27344,-0.41667 0.48568,-0.8659 0.63672,-1.3477l0.84766,0.20703c-0.08594,0.23437 -0.1823,0.46614 -0.28907,0.69531z"/><path d="M354.34,199.22h5.168l0.83984,0.73437c-0.10156,1.05727 -0.27864,1.8854 -0.53125,2.4844c-0.36979,0.8802 -0.98306,1.5612 -1.8398,2.043c-0.56771,0.32292 -1.34764,0.60157 -2.3398,0.83594l-0.44921,-0.79297c0.8698,-0.15885 1.5586,-0.36458 2.0664,-0.61718c0.82813,-0.40886 1.41407,-1.03126 1.7578,-1.8672c0.21355,-0.52083 0.33594,-1.1888 0.36719,-2.0039h-5.0391zM359.9494,199.42312c-0.16145,-0.49479 -0.36718,-0.94923 -0.61718,-1.3633l0.625,-0.14453c0.21875,0.30469 0.42578,0.73959 0.62109,1.3047zM361.0666,199.26296c-0.14583,-0.45052 -0.35807,-0.88542 -0.63672,-1.3047l0.58985,-0.14453c0.26823,0.34895 0.48958,0.76172 0.66406,1.2383z"/><path d="M362.25,199.73h1.7266c0.07812,-0.40104 0.16536,-0.89974 0.26171,-1.4961l0.0195,-0.11328l0.85546,0.1289c-0.08854,0.55209 -0.17968,1.04559 -0.27343,1.4805h0.61718c0.6224,0 1.069,0.14063 1.3398,0.42188c0.24219,0.2526 0.36328,0.64583 0.36328,1.1797c0,0.89587 -0.09505,1.7357 -0.28516,2.5195c-0.10937,0.44271 -0.24218,0.76953 -0.39843,0.98046c-0.19792,0.26303 -0.47266,0.39454 -0.82422,0.39454c-0.41927,0 -0.87891,-0.13542 -1.3789,-0.40625l0.0977,-0.82422c0.49479,0.23698 0.87759,0.35547 1.1484,0.35547c0.14583,0 0.25651,-0.07682 0.33204,-0.23047c0.08333,-0.16927 0.16276,-0.41016 0.23828,-0.72266c0.14843,-0.63541 0.22265,-1.30598 0.22265,-2.0117c0,-0.36979 -0.07422,-0.60938 -0.22265,-0.71875c-0.12761,-0.09115 -0.35417,-0.13672 -0.67969,-0.13672h-0.74609c-0.41407,1.84373 -1.0078,3.41667 -1.7812,4.7188l-0.78516,-0.42968c0.79947,-1.34113 1.36977,-2.77083 1.7109,-4.2891h-1.5586zM368.6562,202.8667c-0.39323,-1.3672 -0.92056,-2.57033 -1.582,-3.6094l0.75,-0.38282c0.7448,1.19273 1.2995,2.40367 1.6641,3.6328z"/><path d="M375.04,199.82c-0.987,-0.4375 -2.09897,-0.77343 -3.3359,-1.0078l0.32813,-0.69531c1.2708,0.23698 2.3932,0.54557 3.3672,0.92578zM370.583,202.6833c0.10677,-1.2448 0.26693,-2.32943 0.48047,-3.2539l0.83984,0.15625c-0.19791,0.82293 -0.32552,1.59377 -0.38281,2.3125c0.37761,-0.28906 0.81251,-0.51953 1.3047,-0.69141c0.47135,-0.16667 0.91145,-0.25 1.3203,-0.25c0.61198,0 1.11198,0.11849 1.5,0.35547c0.51823,0.32031 0.77734,0.83335 0.77734,1.5391c0,0.69273 -0.23568,1.2292 -0.70703,1.6094c-0.65885,0.52604 -1.80469,0.8164 -3.4375,0.87109l-0.3125,-0.80859c1.09113,-0.00267 1.92187,-0.10423 2.4922,-0.30469c0.69013,-0.23958 1.0352,-0.69661 1.0352,-1.3711c0,-0.42709 -0.15234,-0.7448 -0.45703,-0.95313c-0.24219,-0.16667 -0.5599,-0.25 -0.95313,-0.25c-0.55989,0 -1.16146,0.1836 -1.8047,0.55079c-0.39323,0.22395 -0.74479,0.49609 -1.0547,0.8164z"/><path d="M252.2,212.59v0.55859h2.1289v0.64063h-2.1289v0.57422h2.4492v0.6875h-2.4492v1.3476h-0.83985v-1.3476h-2.2461v-0.6875h2.2461v-0.57422h-1.9102v-0.64063h1.9102v-0.55859h-1.6875v-0.59375h1.6875v-0.61328h-2.3438v-0.63282h2.3438v-0.60156h-1.6484v-0.61719h1.6484v-0.73437h0.83985v0.73437h1.9531v1.2188h0.67969v0.63282h-0.67969v1.207zM252.2,211.99625h1.1367v-0.61328h-1.1367zM252.2,210.75015h1.1367v-0.60156h-1.1367zM248.6023,210.65245c-0.32552,-0.44792 -0.71485,-0.86069 -1.168,-1.2383l0.60547,-0.57032c0.48959,0.375 0.88802,0.76953 1.1953,1.1836zM248.32886,212.68365c-0.3776,-0.4974 -0.77213,-0.92057 -1.1836,-1.2695l0.60156,-0.58594c0.41927,0.31771 0.82944,0.72264 1.2305,1.2148zM247.28196,215.79695c0.5,-0.81773 0.92577,-1.7383 1.2773,-2.7617l0.6836,0.48047c-0.32552,1.03647 -0.73439,1.9909 -1.2266,2.8633z"/><path d="M260.96,214.7c0.50261,0.35677 1.14324,0.66146 1.9219,0.91407l-0.4375,0.78125c-0.82033,-0.32292 -1.4974,-0.69662 -2.0312,-1.1211c-0.55209,0.49219 -1.17839,0.88282 -1.8789,1.1719l-0.54687,-0.61719c0.72133,-0.25521 1.34373,-0.61327 1.8672,-1.0742c-0.59375,-0.65625 -1.01951,-1.34375 -1.2773,-2.0625h-0.15234c-0.0156,0.70313 -0.0781,1.3112 -0.1875,1.8242c-0.13542,0.63281 -0.38933,1.23828 -0.76172,1.8164l-0.63281,-0.57813c0.34375,-0.55989 0.56901,-1.18619 0.67578,-1.8789c0.06771,-0.43229 0.10156,-0.91795 0.10156,-1.457v-2.5352h2.0469v-1.0859h0.83204v1.0859h1.793l0.40625,0.35156c-0.16145,0.53646 -0.35025,1.02736 -0.5664,1.4727l-0.79297,-0.23438c0.17187,-0.28125 0.29948,-0.5638 0.38281,-0.84766h-1.2226v1.3789h1.2969l0.39063,0.33594c-0.3099,0.92967 -0.71877,1.71613 -1.2266,2.3594zM260.36235,214.20782c0.39323,-0.4974 0.66536,-1.0026 0.8164,-1.5156h-1.8711c0.24479,0.55209 0.59636,1.05729 1.0547,1.5156zM259.66703,210.62582h-1.2383v1.3789h1.2383zM256.76473,210.80551c-0.34375,-0.46615 -0.76561,-0.90365 -1.2656,-1.3125l0.60937,-0.58984c0.48698,0.35156 0.92448,0.76433 1.3125,1.2383zM256.40926,212.69221c-0.37239,-0.47917 -0.78776,-0.90757 -1.2461,-1.2852l0.60156,-0.58593c0.45052,0.32031 0.87892,0.72785 1.2852,1.2226zM255.25306,215.78201c0.48959,-0.7344 0.92319,-1.62503 1.3008,-2.6719l0.70703,0.48828c-0.34895,1.03907 -0.77082,1.97787 -1.2656,2.8164z"/><path d="M264.96,210.29v6.1133h-0.81641v-7.6016h0.81641v1.1836l0.375,-0.3125c0.22656,0.39323 0.40625,0.77213 0.53906,1.1367l-0.53125,0.52735c-0.13802,-0.44011 -0.26562,-0.78907 -0.38281,-1.0469zM268.5576,209.32125h2.0234v0.58594h-2.0234v0.375h1.7461v0.55859h-1.7461v0.38672h2.2812v0.625h-5.2656v-0.625h2.1758v-0.38672h-1.6953v-0.55859h1.6953v-0.375h-1.9258v-0.58594h1.9258v-0.51953h0.80859zM270.1826,212.26655v3.4297c0,0.23959 -0.05729,0.41407 -0.17187,0.52344c-0.11198,0.10677 -0.30339,0.16015 -0.57422,0.16015c-0.32031,0 -0.64974,-0.02213 -0.98828,-0.0664l-0.11328,-0.70313c0.34635,0.04167 0.62109,0.0625 0.82422,0.0625c0.10417,0 0.16667,-0.02603 0.1875,-0.0781c0.013,-0.03127 0.0195,-0.07944 0.0195,-0.14453v-0.50391h-2.3984v1.457h-0.81641v-4.1367zM266.9678,212.84077v0.45703h2.3984v-0.45703zM266.9678,213.87197v0.48047h2.3984v-0.48047zM263.0381,212.87978c0.11719,-0.54167 0.20182,-1.2422 0.25391,-2.1016l0.0195,-0.32031l0.66406,0.0625c-0.03127,1.1146 -0.12241,2.01953 -0.27344,2.7148z"/><path d="M272.77,209.62v-0.81641h0.81641v0.81641h1.2148v0.6875h-1.2148v0.67187h1.3828v0.69531h-0.46484c-0.08333,0.3099 -0.19531,0.63803 -0.33594,0.98438h0.7539v0.67969h-1.3359v0.72265h1.2852v0.69531h-1.2852v1.6484h-0.81641v-1.6484h-1.3789v-0.69531h1.3789v-0.72265h-1.4414v-0.67969h0.71875c-0.08333,-0.34635 -0.18489,-0.67448 -0.30468,-0.98438h-0.57422v-0.69531h1.6016v-0.67187h-1.2734v-0.6875zM273.74266,211.6747h-1.2422c0.08854,0.2474 0.18359,0.57553 0.28516,0.98438h0.64843c0.13542,-0.33333 0.23829,-0.66146 0.3086,-0.98438zM278.48096,209.0849v1.8281c0,0.22657 -0.04167,0.38672 -0.125,0.48047c-0.09896,0.11198 -0.30599,0.16797 -0.6211,0.16797c-0.30729,0 -0.61458,-0.01303 -0.92187,-0.0391l-0.13281,-0.70313c0.43229,0.04687 0.70703,0.0703 0.82422,0.0703c0.12239,0 0.18359,-0.05339 0.18359,-0.16016v-0.94141h-1.7109v2.2695h2.2148l0.46484,0.39843c-0.14063,0.82813 -0.39714,1.56773 -0.76953,2.2188l-0.043,0.0781c0.28646,0.33073 0.64453,0.63281 1.0742,0.90625l-0.4375,0.73047c-0.41146,-0.26563 -0.77866,-0.58334 -1.1016,-0.95313c-0.27865,0.35417 -0.59245,0.6875 -0.94141,1l-0.46094,-0.64062v0.60937h-0.79297v-7.3203zM275.97706,212.7607v2.9531c0.32031,-0.21875 0.62891,-0.52605 0.92578,-0.92188c-0.39843,-0.61458 -0.67838,-1.29165 -0.83984,-2.0312zM277.33646,214.1005c0.23177,-0.44791 0.38281,-0.89451 0.45312,-1.3398h-1.0078c0.12761,0.5 0.3125,0.9466 0.55469,1.3398z"/><path d="M285.18,209.85l0.55859,0.45704c-0.36458,1.66667 -0.95571,2.95703 -1.7734,3.8711c-0.45313,0.50521 -1.03906,0.94791 -1.7578,1.3281c-0.51041,0.26823 -1.05858,0.48178 -1.6445,0.64063l-0.45312,-0.76953c1.33853,-0.34896 2.3776,-0.90626 3.1172,-1.6719c-0.60938,-0.54687 -1.28125,-1.03124 -2.0156,-1.4531l0.51172,-0.63281c0.71613,0.37239 1.39713,0.83073 2.043,1.375c0.50781,-0.81253 0.82682,-1.599 0.95703,-2.3594h-2.75c-0.63021,0.9818 -1.37241,1.7331 -2.2266,2.2539l-0.57422,-0.6211c0.82553,-0.49739 1.50393,-1.15493 2.0352,-1.9726c0.27344,-0.41667 0.48568,-0.8659 0.63672,-1.3477l0.84766,0.20703c-0.08594,0.23437 -0.18229,0.46614 -0.28906,0.69531z"/><path d="M286.66,210.02h5.168l0.83984,0.73437c-0.10156,1.05727 -0.27864,1.8854 -0.53125,2.4844c-0.36979,0.8802 -0.98305,1.5612 -1.8398,2.043c-0.56771,0.32292 -1.34764,0.60157 -2.3398,0.83594l-0.44922,-0.79297c0.8698,-0.15885 1.5586,-0.36458 2.0664,-0.61718c0.82813,-0.40886 1.41407,-1.03126 1.7578,-1.8672c0.21354,-0.52083 0.33593,-1.1888 0.36718,-2.0039h-5.0391zM292.2694,210.22312c-0.16146,-0.49479 -0.36719,-0.94923 -0.61719,-1.3633l0.625,-0.14453c0.21875,0.30469 0.42578,0.73959 0.62109,1.3047zM293.3866,210.06296c-0.14583,-0.45052 -0.35807,-0.88542 -0.63671,-1.3047l0.58984,-0.14453c0.26823,0.34895 0.48958,0.76172 0.66406,1.2383z"/><path d="M294.93,216.06c-0.09895,-0.8854 -0.14843,-1.7656 -0.14843,-2.6406c0,-1.5 0.11068,-2.92447 0.33203,-4.2734l0.85937,0.0899c-0.21093,1.16667 -0.3164,2.48307 -0.3164,3.9492c0,0.9844 0.05469,1.90497 0.16406,2.7617zM297.2738,209.8725h3.7539v0.83204h-3.7539zM301.2933,215.5795c-0.52083,0.08073 -1.13933,0.12109 -1.8555,0.12109c-1.79947,0 -2.6992,-0.52863 -2.6992,-1.5859c0,-0.41927 0.11198,-0.78513 0.33593,-1.0976l0.73829,0.32812c-0.14063,0.19792 -0.21094,0.42058 -0.21094,0.66797c0,0.30469 0.15234,0.51432 0.45703,0.62891c0.33854,0.13021 0.80077,0.19531 1.3867,0.19531c0.63281,0 1.21875,-0.04167 1.7578,-0.125z"/><path d="M304.23,214.08c-0.48437,0.32813 -0.95574,0.57682 -1.4141,0.74609l-0.53516,-0.60156c1.2474,-0.42187 2.15103,-1.00391 2.7109,-1.7461l0.79297,0.19531c-0.11198,0.14583 -0.22396,0.27604 -0.33594,0.39062h2.6953l0.49609,0.41797c-0.39583,0.47657 -0.95703,0.96483 -1.6836,1.4648c0.81773,0.27604 1.75263,0.48567 2.8047,0.6289l-0.44141,0.81641c-1.2396,-0.23698 -2.3008,-0.5612 -3.1836,-0.97266c-0.9896,0.48438 -2.13413,0.81901 -3.4336,1.0039l-0.39062,-0.74219c1.02867,-0.08073 2.0443,-0.3125 3.0469,-0.69531l-0.043,-0.0273c-0.41146,-0.27344 -0.77343,-0.56641 -1.0859,-0.87891zM304.87062,213.71281c0.34635,0.32031 0.78645,0.61719 1.3203,0.89063c0.55729,-0.32031 0.94922,-0.61719 1.1758,-0.89063zM306.35892,209.51751h3.2422v0.67969h-2.2656v1.75c0,0.25521 -0.06901,0.42968 -0.20703,0.52343c-0.11459,0.07813 -0.30599,0.11719 -0.57422,0.11719c-0.25261,0 -0.52605,-0.02083 -0.82032,-0.0625l-0.10156,-0.67969c0.28385,0.04687 0.52214,0.0703 0.71485,0.0703c0.07552,0 0.11979,-0.01693 0.13281,-0.0508c0.0104,-0.02347 0.0156,-0.06253 0.0156,-0.11719v-1.5508h-1.0078c0,0.56771 -0.0638,1.01301 -0.19141,1.3359c-0.22395,0.57031 -0.65102,0.97788 -1.2812,1.2227l-0.58984,-0.54297c0.48698,-0.1901 0.81641,-0.43489 0.98828,-0.73437c0.09896,-0.17188 0.16797,-0.37761 0.20703,-0.61719c0.02347,-0.14063 0.0404,-0.36198 0.0508,-0.66406h-2.3672v-0.67969h3.1992v-0.71875h0.85546zM308.99952,212.42371c-0.38542,-0.58073 -0.83072,-1.12239 -1.3359,-1.625l0.64063,-0.43359c0.49479,0.42708 0.94532,0.93748 1.3516,1.5312zM302.12842,211.86121c0.53385,-0.40885 0.92839,-0.88282 1.1836,-1.4219l0.72656,0.26954c-0.36198,0.7474 -0.82551,1.32683 -1.3906,1.7383z"/><path d="M313.54,210.45v-0.59375h-3.1484v-0.71875h7.1445v0.71875h-3.1641v0.59375h2.7383v3.168h-2.7578c-0.00267,0.0182 -0.004,0.03643 -0.004,0.0547c-0.02867,0.45833 -0.14585,0.86327 -0.35156,1.2148c1.0104,0.35417 2.2643,0.59766 3.7617,0.73047l-0.48047,0.76171c-1.45573,-0.16927 -2.71353,-0.46874 -3.7734,-0.89843c-0.30208,0.26302 -0.69141,0.47526 -1.168,0.63672c-0.42708,0.14583 -0.98048,0.26172 -1.6602,0.34765l-0.42188,-0.74219c1.05207,-0.07812 1.86327,-0.27734 2.4336,-0.59765c-0.5599,-0.27604 -1.07813,-0.59766 -1.5547,-0.96485l0.57422,-0.48828c0.49739,0.38542 1.00649,0.69141 1.5273,0.91797c0.15104,-0.25781 0.24739,-0.58203 0.28906,-0.97265h-2.7188v-3.168zM313.54,211.075h-1.8945v0.6289h1.8945zM314.37203,211.075v0.6289h1.8984v-0.6289zM313.54,212.3055h-1.8945v0.67968h1.8945zM314.37203,212.3055v0.67968h1.8984v-0.67968z"/><path d="M318.93,209.13h0.92187v4.6562c0,0.9818 0.51563,1.4727 1.5469,1.4727c0.67967,0 1.23697,-0.3138 1.6719,-0.94141c0.28125,-0.40364 0.53386,-1.02864 0.75781,-1.875l0.79297,0.48047c-0.26562,0.94013 -0.58463,1.64327 -0.95703,2.1094c-0.58593,0.72653 -1.34767,1.0898 -2.2852,1.0898c-0.9792,0 -1.6693,-0.30208 -2.0703,-0.90625c-0.2526,-0.3776 -0.3789,-0.86457 -0.3789,-1.4609z"/><path d="M328.56,208.98h0.86328v0.98438h2.457v0.74219h-2.457v0.92968h2.3203v0.73438h-2.3203v1.207c0.92707,0.3125 1.84113,0.78257 2.7422,1.4102l-0.46094,0.74218c-0.68227,-0.51041 -1.44267,-0.96095 -2.2812,-1.3516c-0.0208,0.44531 -0.10674,0.79038 -0.25781,1.0352c-0.26302,0.42448 -0.78125,0.63672 -1.5547,0.63672c-0.59635,0 -1.07552,-0.11198 -1.4375,-0.33594c-0.40365,-0.25 -0.60547,-0.58853 -0.60547,-1.0156c0,-0.51041 0.27214,-0.88801 0.81641,-1.1328c0.36458,-0.16146 0.83855,-0.24219 1.4219,-0.24219c0.22917,0 0.48047,0.01823 0.75391,0.0547v-1.0078h-2.7695v-0.73438h2.7695v-0.92968h-2.9375v-0.74219h2.9375zM328.56,214.105c-0.30989,-0.06507 -0.60677,-0.0976 -0.89063,-0.0976c-0.34635,0 -0.6276,0.05078 -0.84375,0.15234c-0.25781,0.12239 -0.38671,0.29687 -0.38671,0.52344c0,0.1901 0.10026,0.34375 0.30078,0.46094c0.20312,0.11979 0.47395,0.17968 0.8125,0.17968c0.40104,0 0.67708,-0.10677 0.82812,-0.32031c0.11979,-0.16667 0.17969,-0.41536 0.17969,-0.74609z"/><path d="M336.86,208.96h0.8789v1.0781h2.3047v0.75391h-2.3047v1.6719c0.09115,0.32031 0.13672,0.60547 0.13672,0.85547c0,0.92707 -0.20443,1.60807 -0.61328,2.043c-0.44531,0.47656 -1.11588,0.80599 -2.0117,0.98828l-0.44531,-0.66406c0.69533,-0.13281 1.21097,-0.32031 1.5469,-0.5625c0.3151,-0.22917 0.52734,-0.54037 0.63671,-0.9336c-0.27864,0.30469 -0.61067,0.45704 -0.99609,0.45704c-0.43229,0 -0.78256,-0.1224 -1.0508,-0.36719c-0.31511,-0.28907 -0.47266,-0.70833 -0.47266,-1.2578c0,-0.28907 0.06901,-0.56771 0.20703,-0.83594c0.09115,-0.17187 0.20313,-0.3151 0.33594,-0.42969c0.30729,-0.26041 0.67579,-0.39062 1.1055,-0.39062c0.27344,0 0.52084,0.0651 0.74219,0.19531v-0.76953h-3.8555v-0.75391h3.8555zM336.8912,213.0147v-0.14453c0,-0.16667 -0.03906,-0.3138 -0.11719,-0.4414c-0.14583,-0.23959 -0.35677,-0.35938 -0.63281,-0.35938c-0.14063,0 -0.27214,0.03906 -0.39453,0.11719c-0.28646,0.17969 -0.42969,0.45573 -0.42969,0.82812c0,0.23438 0.05208,0.4323 0.15625,0.59375c0.14583,0.22396 0.36068,0.33594 0.64453,0.33594c0.25781,0 0.46224,-0.11589 0.61328,-0.34766c0.10677,-0.16406 0.16016,-0.35807 0.16016,-0.58203z"/></g></g></g></svg>