<svg xmlns="http://www.w3.org/2000/svg" viewBox="0 0 270 260" version="1.1" height="260" width="270">
 <rect style="paint-order:stroke markers fill" stop-color="#000000" fill-opacity="0" height="260" width="270"></rect>
 <path stop-color="#000000" fill-rule="evenodd" fill="#12151a" d="m34 199h136l10 2v49c0 5.54-4.46 10-10 10h-136c-5.54 0-10-4.46-10-10v-49z"></path>
 <path stop-color="#000000" fill-rule="evenodd" fill="#31476d" d="m34 174h136c5.54 0 10 4.46 10 10v17h-156v-17c0-5.54 4.46-10 10-10z"></path>
 <g aria-label="津波注意報" fill="#fff" transform="translate(-3)">
  <path d="m109.32 242.35v0.97754h3.7256v1.1211h-3.7256v1.0049h4.2861v1.2031h-4.2861v2.3584h-1.4697v-2.3584h-3.9307v-1.2031h3.9307v-1.0049h-3.3428v-1.1211h3.3428v-0.97754h-2.9531v-1.0391h2.9531v-1.0732h-4.1016v-1.1074h4.1016v-1.0527h-2.8848v-1.0801h2.8848v-1.2852h1.4697v1.2852h3.418v2.1328h1.1895v1.1074h-1.1895v2.1123zm0-1.0391h1.9893v-1.0732h-1.9893zm0-2.1807h1.9893v-1.0527h-1.9893zm-6.2959-0.1709q-0.85449-1.1758-2.0439-2.167l1.0596-0.99805q1.2852 0.98438 2.0918 2.0713zm-0.47851 3.5547q-0.99121-1.3057-2.0713-2.2217l1.0527-1.0254q1.1006 0.83398 2.1533 2.126zm-1.832 5.4482q1.3125-2.1465 2.2354-4.833l1.1963 0.84082q-0.85449 2.7207-2.1465 5.0108z"></path>
  <path d="m124.66 246.04q1.3193 0.93653 3.3633 1.5996l-0.76563 1.3672q-2.1533-0.84766-3.5547-1.9619-1.4492 1.292-3.2881 2.0508l-0.95703-1.0801q1.8936-0.66992 3.2676-1.8799-1.5586-1.7227-2.2354-3.6094h-0.26661q-0.041 1.8457-0.32812 3.1924-0.35547 1.6611-1.333 3.1787l-1.1074-1.0117q0.90234-1.4697 1.1826-3.2881 0.17773-1.1348 0.17773-2.5498v-4.4365h3.582v-1.9004h1.4561v1.9004h3.1377l0.71094 0.61524q-0.42383 1.4082-0.99121 2.5772l-1.3877-0.41016q0.45117-0.73828 0.66992-1.4834h-2.1396v2.4131h2.2695l0.68359 0.58789q-0.81348 2.4404-2.1465 4.1289zm-1.0459-0.86132q1.0322-1.3057 1.4287-2.6524h-3.2744q0.64257 1.4492 1.8457 2.6524zm-1.2168-6.2686h-2.167v2.4131h2.167zm-5.0791 0.31445q-0.90234-1.2236-2.2148-2.2969l1.0664-1.0322q1.2783 0.92285 2.2969 2.167zm-0.62207 3.3018q-0.97754-1.2578-2.1807-2.249l1.0527-1.0254q1.1826 0.84082 2.249 2.1396zm-2.0234 5.4072q1.2852-1.9277 2.2764-4.6758l1.2373 0.85449q-0.91601 2.7275-2.2148 4.9287z"></path>
  <path d="m137.4 238.32q-1.2988-1.0049-2.7959-1.7773l1.0391-0.90918q1.6748 0.76563 3.0215 1.832l-0.99121 0.85449h3.876v1.2988h-3.7393v2.8711h3.3428v1.2988h-3.3428v3.3906h4.1152v1.333h-9.8438v-1.333h4.2041v-3.3906h-3.2402v-1.2988h3.2402v-2.8711h-3.6299v-1.2988zm-6.1592 0.79981q-0.95703-1.2783-2.2354-2.2148l1.0049-1.0527q1.3604 0.90234 2.3105 2.1328zm-0.44433 3.4727q-1.0938-1.333-2.2832-2.2695l1.0391-1.0664q1.2783 0.90234 2.3516 2.1875zm-2.126 5.2295q1.4629-1.8457 2.7549-4.6416l1.1758 0.93652q-1.0869 2.7412-2.6318 4.8877z"></path>
  <path d="m149.52 244.97q0.76563 0.58106 1.5312 1.5654l-1.2031 0.85449q-0.62207-0.9707-1.5108-1.7637l0.98438-0.65625h-5.0176v-4.1494h9.8438v4.1494zm-3.7188-3.1582v0.59472h6.8359v-0.59472zm0 1.4902v0.67676h6.8359v-0.67676zm4.1152-6.5488h4.915v1.1211h-1.9277q-0.24609 0.6289-0.57422 1.1963h3.541v1.1348h-13.303v-1.1348h3.4658q-0.31445-0.74512-0.61523-1.1963h-1.8115v-1.1211h4.8125v-1.0391h1.4971zm-2.8301 1.1211q0.29394 0.49219 0.5332 1.1963h3.1787q0.27344-0.48535 0.51953-1.1963zm-4.4912 10.076q0.93652-1.1143 1.415-2.5908l1.4014 0.49219q-0.51953 1.8115-1.4971 3.0078zm3.7803-2.4473h1.4834v1.5244q0 0.32812 0.15723 0.41015 0.2871 0.1504 1.5791 0.1504 1.1826 0 1.5996-0.0957 0.30761-0.0684 0.35547-0.38965 0.0615-0.38964 0.0889-0.94336l1.4287 0.38965q-7e-3 0.86817-0.15722 1.415-0.1709 0.66309-1.0527 0.78613-0.90918 0.12305-2.4609 0.12305-1.9756 0-2.4541-0.19824-0.56738-0.23926-0.56738-1.0049zm8.4287 2.9805q-0.88867-1.5654-1.9072-2.7617l1.2373-0.69726q1.1211 1.1894 1.9688 2.5635z"></path>
  <path d="m159.32 237.14v-1.4287h1.4287v1.4287h2.126v1.2031h-2.126v1.1758h2.4199v1.2168h-0.81347q-0.21875 0.81347-0.58789 1.7226h1.3193v1.1895h-2.3379v1.2646h2.249v1.2168h-2.249v2.8848h-1.4287v-2.8848h-2.4131v-1.2168h2.4131v-1.2646h-2.5225v-1.1895h1.2578q-0.21875-0.90918-0.5332-1.7226h-1.0049v-1.2168h2.8027v-1.1758h-2.2285v-1.2031zm1.7022 3.5957h-2.1738q0.23242 0.64941 0.49902 1.7226h1.1348q0.35547-0.875 0.54004-1.7226zm8.292-4.5322v3.1992q0 0.59472-0.21875 0.84082-0.25976 0.29394-1.0869 0.29394-0.80664 0-1.6133-0.0684l-0.23243-1.2305q1.1348 0.12304 1.4424 0.12304 0.32129 0 0.32129-0.28027v-1.6475h-2.9942v3.9717h3.876l0.81348 0.69726q-0.36914 2.1738-1.3467 3.8828l-0.0752 0.13671q0.75196 0.86817 1.8799 1.5859l-0.76563 1.2783q-1.0801-0.69726-1.9277-1.668-0.73145 0.92969-1.6475 1.75l-0.80665-1.1211v1.0664h-1.3877v-12.811zm-4.3818 6.4326v5.168q0.84083-0.57422 1.6201-1.6133-1.0459-1.6133-1.4697-3.5547zm2.3789 2.3447q0.6084-1.1758 0.79297-2.3447h-1.7637q0.33496 1.3125 0.9707 2.3447z"></path>
 </g>
 <path stroke-width=".2" stroke-linejoin="round" stroke-linecap="round" stop-color="#000000" opacity=".988" fill-rule="evenodd" fill="#f1de2e" d="m44 236.5h38c3.324 0 6 2.676 6 6s-2.676 6-6 6h-38c-3.324 0-6-2.676-6-6s2.676-6 6-6z"></path>
 <g aria-label="津波警報" fill="#fff" transform="translate(-3,-2)">
  <path d="m109.32 220.35v0.97754h3.7256v1.1211h-3.7256v1.0049h4.2861v1.2031h-4.2861v2.3584h-1.4697v-2.3584h-3.9307v-1.2031h3.9307v-1.0049h-3.3428v-1.1211h3.3428v-0.97754h-2.9531v-1.0391h2.9531v-1.0732h-4.1016v-1.1074h4.1016v-1.0527h-2.8848v-1.0801h2.8848v-1.2852h1.4697v1.2852h3.418v2.1328h1.1895v1.1074h-1.1895v2.1123zm0-1.0391h1.9893v-1.0732h-1.9893zm0-2.1807h1.9893v-1.0527h-1.9893zm-6.2959-0.1709q-0.85449-1.1758-2.0439-2.167l1.0596-0.99805q1.2852 0.98438 2.0918 2.0713zm-0.47851 3.5547q-0.99121-1.3057-2.0713-2.2217l1.0527-1.0254q1.1006 0.83398 2.1533 2.126zm-1.832 5.4482q1.3125-2.1465 2.2354-4.833l1.1963 0.84082q-0.85449 2.7207-2.1465 5.0108z"></path>
  <path d="m124.66 224.04q1.3193 0.93653 3.3633 1.5996l-0.76563 1.3672q-2.1533-0.84766-3.5547-1.9619-1.4492 1.292-3.2881 2.0508l-0.95703-1.0801q1.8936-0.66992 3.2676-1.8799-1.5586-1.7227-2.2354-3.6094h-0.26661q-0.041 1.8457-0.32812 3.1924-0.35547 1.6611-1.333 3.1787l-1.1074-1.0117q0.90234-1.4697 1.1826-3.2881 0.17773-1.1348 0.17773-2.5498v-4.4365h3.582v-1.9004h1.4561v1.9004h3.1377l0.71094 0.61524q-0.42383 1.4082-0.99121 2.5772l-1.3877-0.41016q0.45117-0.73828 0.66992-1.4834h-2.1396v2.4131h2.2695l0.68359 0.58789q-0.81348 2.4404-2.1465 4.1289zm-1.0459-0.86132q1.0322-1.3057 1.4287-2.6524h-3.2744q0.64257 1.4492 1.8457 2.6524zm-1.2168-6.2686h-2.167v2.4131h2.167zm-5.0791 0.31445q-0.90234-1.2236-2.2148-2.2969l1.0664-1.0322q1.2783 0.92285 2.2969 2.167zm-0.62207 3.3018q-0.97754-1.2578-2.1807-2.249l1.0527-1.0254q1.1826 0.84082 2.249 2.1396zm-2.0234 5.4072q1.2852-1.9277 2.2764-4.6758l1.2373 0.85449q-0.91601 2.7275-2.2148 4.9287z"></path>
  <path d="m139.69 217.63q0.95703 0.51954 2.2764 0.82715l-0.71094 1.1074q-1.4971-0.50585-2.4404-1.1416-0.96386 0.69727-2.3789 0.98438h3.2334v0.78613h-8.8184v-0.78613h2.2764l-0.12304-0.5127h-3.1856v-1.4424q-0.33496 0.28027-0.63574 0.47852l-0.72461-1.0117q1.0322-0.59473 1.5518-1.4834l0.4375 0.0479v-0.25977h-1.8799v-0.92285h1.8799v-0.58789h1.2852v0.58789h1.3125v-0.58789h1.3057v0.58789h1.6816v0.92285h-1.6816v0.49219h1.4287q-0.0137 0.18457-0.0274 0.27344-0.0137 0.14355-0.0205 0.22559 0.9707-0.97071 1.5723-2.625l1.3193 0.27343q-0.16407 0.44434-0.3418 0.82715h3.377v1.0938h-0.93652q-0.30078 0.96387-1.0322 1.8457zm-1.7637 0.0615q-0.40332-0.38965-0.86816-1.0664-0.32129 0.37598-0.63574 0.65625l-0.71094-0.82715q-0.18457 1.7774-0.36914 2.2422-0.23926 0.59473-0.93653 0.71094h1.7158l-0.60839-0.92285q1.5312-0.22559 2.4131-0.79297zm0.80664-0.72461q0.41699-0.49219 0.66992-1.1826h-1.7021q0.4375 0.67676 1.0322 1.1826zm-5.6875-1.251v-0.49219h-1.3125v0.49219zm-2.3652 0.84082q-0.14356 0.18457-0.36914 0.41699h3.3564v1.5654q0.082 7e-3 0.0957 7e-3 0.23242 0 0.31445-0.21191 0.21875-0.51954 0.32812-1.7774zm0.34179 1.1621v0.43067h1.4697v-0.43067zm9.5635 6.6035v2.6934h-1.5312v-0.47852h-7.6699v0.47852h-1.5244v-2.6934zm-9.2012 0.7998v0.58789h7.6699v-0.58789zm-2.8164-4.4912h13.303v0.88184h-13.303zm1.832 1.3262h9.6455v0.74512h-9.6455zm0 1.1963h9.6455v0.72461h-9.6455z"></path>
  <path d="m145.32 215.14v-1.4287h1.4287v1.4287h2.126v1.2031h-2.126v1.1758h2.4199v1.2168h-0.81347q-0.21875 0.81347-0.58789 1.7226h1.3193v1.1895h-2.3379v1.2646h2.249v1.2168h-2.249v2.8848h-1.4287v-2.8848h-2.4131v-1.2168h2.4131v-1.2646h-2.5225v-1.1895h1.2578q-0.21875-0.90918-0.5332-1.7226h-1.0049v-1.2168h2.8027v-1.1758h-2.2285v-1.2031zm1.7022 3.5957h-2.1738q0.23242 0.64941 0.49902 1.7226h1.1348q0.35547-0.875 0.54004-1.7226zm8.292-4.5322v3.1992q0 0.59472-0.21875 0.84082-0.25976 0.29394-1.0869 0.29394-0.80664 0-1.6133-0.0684l-0.23243-1.2305q1.1348 0.12304 1.4424 0.12304 0.32129 0 0.32129-0.28027v-1.6475h-2.9942v3.9717h3.876l0.81348 0.69726q-0.36914 2.1738-1.3467 3.8828l-0.0752 0.13671q0.75196 0.86817 1.8799 1.5859l-0.76563 1.2783q-1.0801-0.69726-1.9277-1.668-0.73145 0.92969-1.6475 1.75l-0.80665-1.1211v1.0664h-1.3877v-12.811zm-4.3818 6.4326v5.168q0.84083-0.57422 1.6201-1.6133-1.0459-1.6133-1.4697-3.5547zm2.3789 2.3447q0.6084-1.1758 0.79297-2.3447h-1.7637q0.33496 1.3125 0.9707 2.3447z"></path>
 </g>
 <path stroke-width=".2" stroke-linejoin="round" stroke-linecap="round" stop-color="#000000" opacity=".988" fill-rule="evenodd" fill="#fc3122" d="m44 212.5h38c3.324 0 6 2.676 6 6s-2.676 6-6 6h-38c-3.324 0-6-2.676-6-6s2.676-6 6-6z"></path>
 <g aria-label="海岸線の色" fill="#fff" transform="translate(-2.3417 24)">
  <path d="m81.833 161.21q0 0.32129-0.06152 3.0488h1.3057v1.2305h-1.333q-0.02051 0.89551-0.08887 2.0303h1.1553v1.2031h-1.2441q-0.08203 0.99121-0.22559 1.3125-0.32129 0.76563-1.5586 0.76563-0.79297 0-1.4629-0.11621l-0.25293-1.2168q0.96387 0.13672 1.4766 0.13672 0.41699 0 0.49902-0.29395 0.04102-0.14355 0.0752-0.58789h-4.8672q-0.0068 0.0547-0.02051 0.11621-0.06152 0.36231-0.11621 0.6836l-1.415-0.13672q0.41699-2.4678 0.56055-3.7324l0.02051-0.16407h-1.3672v-1.2305h1.5107q0.19141-1.6543 0.32812-3.0488zm-4.3203 1.1894h-1.4971q-0.02051 0.34863-0.12305 1.4697l-0.04102 0.38964h1.5176l0.02051-0.1914q0.01367-0.19824 0.04102-0.55371 0.06836-0.95703 0.08203-1.1143zm1.3467 0q-0.03418 0.81348-0.10254 1.7978v0.0615h1.6064q0.02734-0.93652 0.04785-1.8594zm-1.5996 3.0898h-1.5381q-0.10254 0.83399-0.21875 1.6475l-0.05469 0.38282h1.5996q0.16406-1.4834 0.21191-2.0303zm1.4014 0q-0.02051 0.27344-0.08203 0.90235l-0.10938 1.1279h1.7432q0.03418-0.66309 0.05469-0.99805 0.04102-0.73145 0.05469-1.0322zm-2.6797-6.7471h6.6035v1.2715h-7.1709q-0.55371 1.1279-1.4082 2.1465l-0.97754-1.0664q1.3467-1.5791 1.9141-3.6367l1.4561 0.15039q-0.24609 0.71093-0.41699 1.1348zm-3.7666 1.9893q-0.84082-1.1553-2.0439-2.167l1.0322-0.99805q1.1143 0.82031 2.1191 2.0713zm-0.49219 3.6094q-1.0391-1.333-2.0986-2.2354l1.0664-1.0254q1.1895 0.93653 2.1396 2.1328zm-1.8594 5.3662q1.1895-1.6475 2.2559-4.3408l1.2168 0.86816q-0.88867 2.4883-2.2832 4.5664z"></path>
  <path d="m91.226 159.67h3.0967v-1.6475h1.4561v2.8232h-10.473v-2.8232h1.4561v1.6475h3.0078v-2.167h1.4561zm-4.9014 3.2949v1.4287q0 2.3652-0.30078 3.6846-0.32129 1.3877-1.2373 2.6113l-1.2031-0.99122q0.62891-0.875 0.88184-1.7295 0.34863-1.1758 0.34863-3.6572v-2.5635h11.901v1.2168zm5.8105 2.1396v1.2646h4.6895v1.2168h-4.6895v3.2197h-1.5381v-3.2197h-4.1152v-1.2168h4.1152v-1.2646h-3.418v-1.1484h8.6406v1.1484z"></path>
  <path d="m107.76 166.7v2.8574q0 0.56738-0.21191 0.83398-0.25293 0.31446-1.0254 0.31446-0.67676 0-1.2852-0.0957l-0.2666-1.292q0.64942 0.11621 1.1279 0.11621 0.2461 0 0.29395-0.11621 0.0342-0.082 0.0342-0.24609v-5.0586h-2.7412v-5.4688h2.4062q0.15722-0.46484 0.32129-1.1758l1.4834 0.22559q-0.15722 0.4375-0.39648 0.95019h3.0283v5.4688h-2.7686v0.13672q0.25293 0.92285 0.73145 1.7842 0.99121-0.88867 1.6885-1.7363l1.0049 0.93653q-1.0459 1.0322-2.0918 1.7158 0.86817 1.1211 2.208 2.0918l-0.81348 1.2783q-1.75-1.3535-2.7275-3.5205zm-2.7139-6.9795v1.0322h4.0947v-1.0322zm0 2.0986v1.0596h4.0947v-1.0596zm-5.5029 0.77246q-0.75879-1.169-1.8525-2.2969l0.81348-0.99121q0.21192 0.21192 0.37598 0.38965 0.66992-1.0186 1.2236-2.2695l1.2031 0.62891q-0.60156 1.0938-1.7021 2.5156 0.34863 0.45117 0.71777 1.0049 1.2783-1.8047 1.7568-2.5498l1.0664 0.73828q-1.3809 2.0234-3.0078 3.7871 1.2852-0.0752 1.9004-0.15723-0.1504-0.47168-0.33497-0.95703l0.97754-0.47168q0.54688 1.1553 0.90918 2.6182l-1.0801 0.57422q-0.11621-0.5127-0.17773-0.75196-0.31445 0.0547-0.91602 0.14356l-0.17773 0.0273v6.2344h-1.333v-6.0635q-0.9707 0.11621-1.9619 0.18457l-0.2666-1.2646q0.29394-7e-3 0.58106-0.0205l0.43066-0.0205q0.36914-0.42383 0.85449-1.0322zm-1.8662 6.5898q0.45117-1.709 0.56055-3.6094l1.2168 0.15039q-0.08887 2.5635-0.54688 4.0195zm4.3135-0.71093q-0.18457-1.6475-0.50586-2.6797l1.0527-0.34863q0.3418 1.0254 0.60156 2.5635zm1.2578-3.4727h2.3652l0.64258 0.65625q-0.49219 2.0098-1.374 3.1719-0.56055 0.73145-1.5039 1.4492l-0.95703-0.95019q0.86133-0.59473 1.4014-1.2373 0.64258-0.75879 1.0391-1.8594h-1.6133z"></path>
  <path d="m119.09 168.73q4.0127-1.0117 4.0127-4.6006 0-1.5654-0.80664-2.6934-0.90235-1.2715-2.748-1.6338-0.40332 3.1719-1.1006 5.1953-0.47852 1.415-1.1895 2.6728-1.0254 1.791-2.331 1.791-0.97071 0-1.7295-0.875-0.48536-0.55371-0.78614-1.3604-0.39648-1.0459-0.39648-2.249 0-1.9482 1.0732-3.5889 1.0869-1.6748 2.8232-2.4336 1.2646-0.55371 2.7754-0.55371 2.3584 0 4.0059 1.2646 2.0234 1.5518 2.0234 4.3955 0 4.7646-4.8193 6.043zm-1.0254-8.9824q-1.21 0.13672-2.0234 0.64941-0.51954 0.33496-1.0322 0.88868-1.4219 1.5723-1.4219 3.6436 0 1.5107 0.60157 2.3652 0.36914 0.52637 0.73144 0.52637 0.49219 0 1.1074-1.0869 1.5039-2.6455 2.0371-6.9863z"></path>
  <path d="m128.99 165.76v2.4814q0 0.54004 0.39648 0.64941 0.58789 0.16407 3.8896 0.16407 2.9326 0 3.6504-0.1709 0.3418-0.082 0.4375-0.38281 0.11621-0.3418 0.18457-1.5928l1.5107 0.46485q-0.0752 1.3467-0.21875 1.8457-0.18457 0.64941-0.68359 0.88183-0.35547 0.16407-0.98438 0.20508-1.6201 0.11621-4.2314 0.11621-3.6572 0-4.3477-0.12988-0.77929-0.14355-1.0049-0.68359-0.10938-0.27344-0.10938-0.6836v-7.0205l-0.0684 0.0547q-0.31446 0.22559-0.74512 0.49903l-0.93653-1.1348q2.4404-1.3398 4.1289-3.8213l0.95703 0.65625h3.8896l0.72461 0.75196q-0.90234 1.2783-1.8867 2.3037h4.3818v4.5459zm0-1.2168h2.9394v-2.0713h-2.9394zm4.4092-2.0713v2.0713h3.001v-2.0713zm-1.5859-1.2578q0.88183-0.92286 1.5039-1.8115h-3.1582q-0.75879 0.92969-1.8047 1.8115z"></path>
 </g>
</svg>
