<svg version="1.1" xmlns="http://www.w3.org/2000/svg" xmlns:xlink="http://www.w3.org/1999/xlink" width="79.57687" height="122.08218" viewBox="0,0,79.57687,122.08218"><g transform="translate(-281.00158,-43.16355)"><g data-paper-data="{&quot;isPaintingLayer&quot;:true}" fill="#ff0000" fill-rule="evenodd" stroke="none" stroke-width="0" stroke-linecap="round" stroke-linejoin="round" stroke-miterlimit="10" stroke-dasharray="" stroke-dashoffset="0" style="mix-blend-mode: normal"><path d="M348.49889,144.08259v0.18399l-1.51994,-0.077l-0.88997,-0.91696l-2.4699,-0.25399l0.42998,0.93796l-0.22,1.12796l-0.48998,-0.72897l-1.83992,1.33594l0.02,1.35694l-0.63998,1.24195l-1.16995,0.45998l-2.34991,2.39591l-1.56993,-0.26099l-2.67989,1.70193l-2.3899,0.57797l-0.36999,0.48998l-2.68989,0.049l-1.39995,1.18096l-1.36994,0.29798l2.56989,2.84188l-0.62997,1.36195l-5.32979,4.8928l-2.24991,-0.10499l-0.93996,0.90497l-0.97996,0.16599l-3.33987,-3.61785l-1.22995,0.91096l-2.4399,0.25399l-1.80993,-0.48898l-0.39999,0.34498l-3.73985,0.25499l-2.07992,-0.61998l-0.90997,0.33499l-1.87992,-1.61593l-1.04995,0.89796l-7.6397,-8.43066l-5.42978,-3.24587l-2.3899,-0.91597l-1.14996,0.043l-0.83996,-3.27987l2.23991,-1.20395l-0.12999,-1.32495l0.91996,-0.127l1.30995,-2.01691l1.28995,0.10499l0.69997,1.21695l0.76997,-0.024l0.68997,-1.38995l1.18995,-0.42498l0.62998,-0.93597l2.08992,-1.56493l1.86992,-0.49798l-0.15999,-1.08896l1.31995,-1.52094l1.47994,-0.71797l-0.24999,-2.4129l-0.65998,-1.10496l0.19,-1.35895l-0.52998,-3.11388l0.22999,-2.76889l2.4299,0.17899l1.74993,0.42798l3.21988,-0.77997l1.36995,-1.63593l-0.25999,-1.71993l0.81997,-1.17695l1.16995,0.20499l1.04996,-0.40099l0.57998,1.44394l1.50994,0.11099l0.85996,-1.66093l-0.43999,-1.92193l0.86997,-1.27195l0.77997,-0.19899l-0.25999,-1.31095l1.88993,-1.06295l0.91996,-1.49394l-0.06,-2.23991l-1.67993,-0.52798l-1.08996,-0.90296l1.65994,-0.97496l2.96988,-4.51282l1.78993,-0.54998l2.3999,-0.26499l1.70993,-1.48394l0.32998,-0.85697l1.77993,-1.10996l-0.64998,-1.26295l-0.14999,-1.64094l0.86997,-1.04196l0.13999,-1.16395l1.01996,-1.91592l1.04996,-1.19995l2.33991,-0.25299l0.01,-1.22895l0.54998,-0.86397l0.26999,-1.90793l0.74997,-0.86897l2.20992,-0.16599l1.37995,-0.63497l1.21995,-1.25995l0.76997,-2.3759l1.83992,-2.22091l0.13999,-1.10196l0.91997,-1.86693l1.06995,0.046l0.82997,-1.74893l0.94997,-0.38599l0.38999,-1.41295l3.53985,-1.29494l0.68998,-1.34095l0.96996,-0.154l1.02996,-0.94097l1.45994,-0.48998l1.26995,0.018l0.13,-1.63493l1.35995,-1.01496l-0.63998,-0.55197l0.48998,-1.26095l-0.84996,-0.90196l0.32998,-2.69189l0.74997,-0.46098l1.37995,-3.23187l1.25995,-0.81196l0.71997,-2.92389l-0.39998,-1.22995l0.50998,-2.28291l0.60998,-0.79297l-0.26999,-2.24791l1.17995,-2.21992l0.66998,0.26099l-0.23999,2.02892l0.83997,0.55398l-0.40999,1.40194l0.25999,2.28691l1.75993,4.20883l-0.46998,1.86093l-1.42994,1.36794l0.08,2.55489l-1.06996,1.30695l-0.86996,3.10788l-1.16995,1.35295l-1.37994,2.20091l-2.04992,2.40891l-1.88993,1.44794l-0.82996,1.71194l-0.53998,2.3339l-1.01996,2.77489l0.49998,2.91388l-2.23991,4.33183l-1.76992,1.08496l-0.54998,1.12195l-1.77993,1.81592l-0.35999,1.18096l-2.28991,2.3929l-0.55998,1.52694l-0.72997,0.42598l-1.22995,2.5499l-1.10996,3.69385l-0.66997,0.76097l-0.54998,1.81893l-1.26995,2.07492l0.28999,1.34394l-0.34999,1.06696l0.51998,1.55894l-0.61998,3.02888l-1.09995,2.85888l-2.01992,1.79593l0.24999,1.93292l-0.44998,0.84197l0.46998,1.96693l0.09,1.82693l0.42998,1.42894l1.59994,2.3019l0.91996,0.82497l0.22999,1.04496l3.54986,6.69173l0.41998,2.24891l0.79996,0.96997l1.32995,0.73297l5.17979,2.19491l3.62985,1.39195"/></g></g></svg>