<svg version="1.1" xmlns="http://www.w3.org/2000/svg" xmlns:xlink="http://www.w3.org/1999/xlink" width="208" height="32" viewBox="0,0,208,32"><g transform="translate(-240,-164)"><g data-paper-data="{&quot;isPaintingLayer&quot;:true}" fill-rule="nonzero" stroke="none" stroke-linecap="butt" stroke-linejoin="miter" stroke-miterlimit="10" stroke-dasharray="" stroke-dashoffset="0" style="mix-blend-mode: normal"><path d="M240,196v-32h208v32z" fill="none" stroke-width="0"/><path d="M242.68,177.69c-0.66406,-1.1068 -1.46159,-2.2038 -2.3926,-3.291l1.084,-1.416c0.24089,0.27343 0.41341,0.472 0.51758,0.5957c0.5664,-0.97007 1.0677,-2.04103 1.5039,-3.2129l1.6894,0.83984c-0.57943,1.15233 -1.32163,2.36653 -2.2266,3.6426c0.31901,0.44271 0.60873,0.88541 0.86914,1.3281l0.0684,-0.10742c0.72267,-1.08727 1.41927,-2.22333 2.0898,-3.4082l1.4648,1.0254c-1.1914,1.89453 -2.49347,3.6914 -3.9062,5.3906c1.09373,-0.09115 1.8164,-0.15625 2.168,-0.19532c0.09115,-0.013 0.16276,-0.02277 0.21484,-0.0293c-0.11719,-0.42318 -0.27018,-0.86588 -0.45898,-1.3281l1.3379,-0.56641c0.51432,1.1068 0.87565,2.37633 1.084,3.8086l-1.4453,0.6543c-0.0456,-0.44271 -0.10094,-0.81705 -0.16602,-1.123c-0.24739,0.0456 -0.65756,0.11721 -1.2305,0.21484v8.9941h-1.8359v-8.7402c-0.08463,0.013 -0.18555,0.02603 -0.30274,0.0391c-0.43619,0.0586 -1.13606,0.13021 -2.0996,0.21484l-0.38085,-1.7578c0.2539,-0.013 0.49478,-0.02603 0.72265,-0.0391l0.47852,-0.0293c0.38411,-0.46224 0.76821,-0.96354 1.1523,-1.5039zM253.09,181.7232v1.6992c0,0.36458 0.07161,0.57942 0.21484,0.64453c0.13021,0.0586 0.47527,0.0879 1.0352,0.0879c0.57943,0 1.26953,-0.04232 2.0703,-0.12695v1.6797c-0.78127,0.08464 -1.5202,0.12696 -2.2168,0.12696c-1.31507,0 -2.1191,-0.11393 -2.4121,-0.3418c-0.27343,-0.21484 -0.41015,-0.63801 -0.41015,-1.2695v-2.5h-1.123v-1.6016h2.2656v-1.9336h-2.2656v-1.582h3.584c0.52735,-1.15887 0.93425,-2.27213 1.2207,-3.3398l1.6992,0.61523c-0.34505,0.93747 -0.75845,1.84567 -1.2402,2.7246h1.2598v1.582h-2.4414v1.9336h2.4414v1.6016zM259.1447,171.2642v16.24c0,0.65755 -0.15625,1.11979 -0.46875,1.3867c-0.26693,0.23437 -0.72593,0.35156 -1.377,0.35156c-0.6966,0 -1.3867,-0.04557 -2.0703,-0.13672l-0.3418,-1.8457c0.73567,0.11067 1.38997,0.16601 1.9629,0.16601c0.2474,0 0.39063,-0.05859 0.42969,-0.17578c0.03253,-0.07812 0.0488,-0.23437 0.0488,-0.46875v-13.701h-7.6856v16.426h-1.7969v-18.242zM240.2677,187.1232c0.34505,-1.54293 0.5599,-3.26493 0.64453,-5.166l1.6113,0.18555c-0.07813,2.37627 -0.27018,4.29033 -0.57617,5.7422zM245.9904,186.51773c-0.20833,-1.8034 -0.44922,-3.2487 -0.72266,-4.3359l1.416,-0.41992c0.35807,1.14587 0.66081,2.487 0.9082,4.0234zM251.2834,176.56653c-0.28646,-0.97653 -0.64453,-1.84567 -1.0742,-2.6074l1.4746,-0.57617c0.46875,0.73567 0.84961,1.58853 1.1426,2.5586z" fill="#ffffff" stroke-width="1"/><path d="M271.04,179.07v2.4121h6.9238v1.8359h-6.9238v3.3398c1.02213,0.18229 2.2298,0.27343 3.623,0.27343h5.0586c-0.32552,0.65105 -0.56641,1.33791 -0.72266,2.0606h-4.3555c-2.6432,0 -4.7298,-0.31576 -6.2598,-0.94727c-1.41273,-0.57943 -2.63993,-1.59179 -3.6816,-3.0371c-0.70967,1.73173 -1.65693,3.2389 -2.8418,4.5215l-1.4941,-1.7773c1.83593,-1.98567 2.98177,-4.55727 3.4375,-7.7148l2.2168,0.3418c-0.21484,1.04167 -0.41666,1.8978 -0.60546,2.5684c0.86587,1.47133 2.01497,2.49997 3.4473,3.0859v-6.9629h-8.2031v-1.8555h8.1836v-2.4805h-6.582v-1.7969h6.582v-2.4414h2.1777v2.4414h6.7383v1.7969h-6.7383v2.4805h8.3398v1.8555z" fill="#ffffff" stroke-width="1"/><path d="M290.23,178.41v7.7344c0,0.5013 0.21485,0.80403 0.64454,0.9082c0.44271,0.11068 1.45507,0.16602 3.0371,0.16602c1.54293,0 2.5618,-0.07813 3.0566,-0.23438c0.27995,-0.09115 0.46224,-0.34505 0.54687,-0.76172c0.11068,-0.58593 0.16927,-1.2793 0.17578,-2.0801l2.041,0.57618c-0.10417,1.9206 -0.36784,3.1478 -0.79102,3.6816c-0.27995,0.35156 -0.70311,0.55989 -1.2695,0.625c-0.89193,0.09765 -2.4056,0.14648 -4.541,0.14648c-1.65367,0 -2.73767,-0.04557 -3.252,-0.13672c-0.77473,-0.13021 -1.26627,-0.47201 -1.4746,-1.0254c-0.10417,-0.29297 -0.15625,-0.6836 -0.15625,-1.1719v-7.7441l-1.8652,0.64453l-0.45899,-1.8945l2.3242,-0.80078v-5.2637h1.9824v4.5801l2.0996,-0.71289v-5.1465h1.9629v4.4629l3.2715,-1.123l1.0254,0.625v7.3144c0,0.50781 -0.12044,0.88541 -0.36133,1.1328c-0.27343,0.27343 -0.73243,0.41015 -1.377,0.41015c-0.52735,0 -1.08725,-0.04557 -1.6797,-0.13672l-0.32226,-1.8652c0.38411,0.09765 0.77475,0.14648 1.1719,0.14648c0.28646,0 0.46224,-0.05859 0.52734,-0.17578c0.06513,-0.09765 0.0977,-0.26041 0.0977,-0.48828v-4.6191l-2.3535,0.82031v7.9004h-1.9629v-7.2266zM283.0523,175.2166v-4.7168h2.0996v4.7168h1.8945v1.9824h-1.8945v6.2109c0.6836,-0.23437 1.36067,-0.47851 2.0312,-0.73242l0.18555,1.8848c-2.1094,0.96353 -4.2741,1.77083 -6.4941,2.4219l-0.6836,-2.0801c1.0026,-0.26041 1.8815,-0.50781 2.6367,-0.74218c0.09115,-0.03253 0.16602,-0.05533 0.22461,-0.0684v-6.8945h-2.4805v-1.9824z" fill="#ffffff" stroke-width="1"/><path d="M309.48,175.76c-0.0456,1.08727 -0.1107,2.0443 -0.19531,2.8711h7.8711c-0.09765,4.51827 -0.35156,7.4512 -0.76172,8.7988c-0.20833,0.67707 -0.5957,1.1458 -1.1621,1.4062c-0.44271,0.20182 -1.09051,0.30273 -1.9434,0.30273c-0.89847,0 -1.91733,-0.06836 -3.0566,-0.20507l-0.38085,-2.1973c1.52993,0.21485 2.6074,0.32227 3.2324,0.32227c0.52734,0 0.86264,-0.14974 1.0059,-0.44922c0.34505,-0.7292 0.58593,-2.74093 0.72265,-6.0352h-5.8105c-0.21485,1.17187 -0.51758,2.1875 -0.90821,3.0469c-1.08727,2.37627 -2.90367,4.26103 -5.4492,5.6543l-1.543,-1.7188c2.55207,-1.32813 4.23827,-3.06967 5.0586,-5.2246c0.54687,-1.4388 0.90167,-3.62957 1.0644,-6.5723h-6.4648v-2.002h7.9785v-3.2617h2.2559v3.2617h8.2422v2.002z" fill="#ffffff" stroke-width="1"/></g></g></svg>