<svg version="1.1" xmlns="http://www.w3.org/2000/svg" xmlns:xlink="http://www.w3.org/1999/xlink" width="208" height="32" viewBox="0,0,208,32"><g transform="translate(-240,-164)"><g data-paper-data="{&quot;isPaintingLayer&quot;:true}" fill-rule="nonzero" stroke="none" stroke-linecap="butt" stroke-linejoin="miter" stroke-miterlimit="10" stroke-dasharray="" stroke-dashoffset="0" style="mix-blend-mode: normal"><path d="M240,196v-32h208v32z" fill="none" stroke-width="0"/><path d="M251.04,185.42h4.9219v-10.742h2.2168v14.658h-2.2168v-1.7969h-11.943v1.7969h-2.1973v-14.658h2.1973v10.742h4.8047v-14.727h2.2168z" fill="#ffffff" stroke-width="1"/><path d="M269.43,173.28v4.9609h2.3633v1.9238h-2.3633v9.3359h-2.0801v-9.3359h-2.3926c-0.03253,1.96613 -0.17576,3.57093 -0.42969,4.8144c-0.35156,1.76433 -1.06769,3.31707 -2.1484,4.6582l-1.7676,-1.3379c0.99607,-1.21093 1.65037,-2.6823 1.9629,-4.4141c0.16927,-0.96353 0.26693,-2.15167 0.29297,-3.5644l0.01,-0.15625h-2.3828v-1.9238h2.3828v-4.9609h-1.9629v-1.9043h10.381v1.9043zM267.3499,173.28h-2.3926v4.9609h2.3926zM270.4163,187.372c2.9232,-1.0026 5.4232,-2.98827 7.5,-5.957l1.6211,1.2988c-1.9466,2.95573 -4.56703,5.07813 -7.8613,6.3672zM271.012,176.22c2.6172,-1.31507 4.62567,-3.10217 6.0254,-5.3613l1.7188,1.0938c-1.63413,2.51953 -3.8021,4.47593 -6.5039,5.8692zM271.39286,181.3762c2.49347,-1.1784 4.554,-2.92643 6.1816,-5.2441l1.6211,1.2891c-1.72527,2.42187 -3.89323,4.2806 -6.5039,5.5762z" fill="#ffffff" stroke-width="1"/><path d="M296.76,170.98v9.4629h-11.621v-9.4629zM287.2385,172.523v1.2207h7.4023v-1.2207zM287.2385,175.1207v1.2207h7.4023v-1.2207zM287.2385,177.7183v1.2598h7.4023v-1.2598zM283.3029,181.7417h16.191v1.6992h-8.0762v6.0644h-2.2168v-6.0644h-8.0371v-10.957h2.1387zM280.8029,187.6401c1.54947,-0.71613 3.0306,-1.9173 4.4434,-3.6035l1.7969,1.0449c-1.3932,1.76433 -2.93943,3.15107 -4.6387,4.1602zM297.6389,188.8999c-0.99607,-1.22393 -2.49347,-2.50973 -4.4922,-3.8574l1.6797,-1.1816c1.569,0.90493 3.1087,2.09307 4.6191,3.5644z" fill="#ffffff" stroke-width="1"/><path d="M303.87,180.53c-0.63802,1.84247 -1.45182,3.5612 -2.4414,5.1562l-1.1426,-2.1387c1.4844,-2.03127 2.60743,-4.3327 3.3691,-6.9043h-3.0273v-1.9629h3.2422v-4.1797h2.0801v4.1797h2.373v1.9629h-2.373v2.0703c1.24347,1.08727 2.25257,2.09637 3.0273,3.0273l-1.1133,1.8457c-0.72267,-1.04167 -1.3607,-1.8815 -1.9141,-2.5195v8.4375h-2.0801zM314.808,174.6804v-4.1797h2.1191v4.1797h2.6367v1.9434h-2.6367v10.693c0,0.8594 -0.1888,1.4258 -0.56641,1.6992c-0.26693,0.1888 -0.77149,0.2832 -1.5137,0.2832c-1.16533,0 -2.207,-0.04557 -3.125,-0.13671l-0.47852,-2.1387c0.944,0.15625 1.9108,0.23438 2.9004,0.23438c0.33203,0 0.5306,-0.05859 0.59571,-0.17578c0.0456,-0.08464 0.0684,-0.25066 0.0684,-0.49805v-9.9609h-5.7617v-1.9434zM311.7221,184.2995c-0.65104,-1.94013 -1.44857,-3.73373 -2.3926,-5.3808l1.8359,-0.9961c1.0742,1.84893 1.90753,3.61327 2.5,5.293z" fill="#ffffff" stroke-width="1"/><path d="M331.04,185.42h4.9219v-10.742h2.2168v14.658h-2.2168v-1.7969h-11.943v1.7969h-2.1973v-14.658h2.1973v10.742h4.8047v-14.727h2.2168z" fill="#ffffff" stroke-width="1"/><path d="M350.23,178.41v7.7344c0,0.5013 0.21485,0.80403 0.64454,0.9082c0.44271,0.11068 1.45507,0.16602 3.0371,0.16602c1.54293,0 2.5618,-0.07813 3.0566,-0.23438c0.27995,-0.09115 0.46224,-0.34505 0.54687,-0.76172c0.11068,-0.58593 0.16927,-1.2793 0.17578,-2.0801l2.041,0.57618c-0.10417,1.9206 -0.36784,3.1478 -0.79102,3.6816c-0.27995,0.35156 -0.70311,0.55989 -1.2695,0.625c-0.89193,0.09765 -2.4056,0.14648 -4.541,0.14648c-1.65367,0 -2.73767,-0.04557 -3.252,-0.13672c-0.77473,-0.13021 -1.26627,-0.47201 -1.4746,-1.0254c-0.10417,-0.29297 -0.15625,-0.6836 -0.15625,-1.1719v-7.7441l-1.8652,0.64453l-0.45899,-1.8945l2.3242,-0.80078v-5.2637h1.9824v4.5801l2.0996,-0.71289v-5.1465h1.9629v4.4629l3.2715,-1.123l1.0254,0.625v7.3144c0,0.50781 -0.12044,0.88541 -0.36133,1.1328c-0.27343,0.27343 -0.73243,0.41015 -1.377,0.41015c-0.52735,0 -1.08725,-0.04557 -1.6797,-0.13672l-0.32226,-1.8652c0.38411,0.09765 0.77475,0.14648 1.1719,0.14648c0.28646,0 0.46224,-0.05859 0.52734,-0.17578c0.06513,-0.09765 0.0977,-0.26041 0.0977,-0.48828v-4.6191l-2.3535,0.82031v7.9004h-1.9629v-7.2266zM343.0523,175.2166v-4.7168h2.0996v4.7168h1.8945v1.9824h-1.8945v6.2109c0.6836,-0.23437 1.36067,-0.47851 2.0312,-0.73242l0.18555,1.8848c-2.1094,0.96353 -4.2741,1.77083 -6.4941,2.4219l-0.6836,-2.0801c1.0026,-0.26041 1.8815,-0.50781 2.6367,-0.74218c0.09115,-0.03253 0.16602,-0.05533 0.22461,-0.0684v-6.8945h-2.4805v-1.9824z" fill="#ffffff" stroke-width="1"/><path d="M369.48,175.76c-0.0456,1.08727 -0.1107,2.0443 -0.19531,2.8711h7.8711c-0.09765,4.51827 -0.35156,7.4512 -0.76172,8.7988c-0.20833,0.67707 -0.5957,1.1458 -1.1621,1.4062c-0.44271,0.20182 -1.09051,0.30273 -1.9434,0.30273c-0.89847,0 -1.91733,-0.06836 -3.0566,-0.20507l-0.38085,-2.1973c1.52993,0.21485 2.6074,0.32227 3.2324,0.32227c0.52734,0 0.86264,-0.14974 1.0059,-0.44922c0.34505,-0.7292 0.58593,-2.74093 0.72265,-6.0352h-5.8105c-0.21485,1.17187 -0.51758,2.1875 -0.90821,3.0469c-1.08727,2.37627 -2.90367,4.26103 -5.4492,5.6543l-1.543,-1.7188c2.55207,-1.32813 4.23827,-3.06967 5.0586,-5.2246c0.54687,-1.4388 0.90167,-3.62957 1.0644,-6.5723h-6.4648v-2.002h7.9785v-3.2617h2.2559v3.2617h8.2422v2.002z" fill="#ffffff" stroke-width="1"/></g></g></svg>