<svg version="1.1" xmlns="http://www.w3.org/2000/svg" xmlns:xlink="http://www.w3.org/1999/xlink" width="25.12901" height="34.52859" viewBox="0,0,25.12901,34.52859"><g transform="translate(-204.68942,-75.25768)"><g data-paper-data="{&quot;isPaintingLayer&quot;:true}" fill="#ff0000" fill-rule="evenodd" stroke="none" stroke-width="0" stroke-linecap="round" stroke-linejoin="round" stroke-miterlimit="10" stroke-dasharray="" stroke-dashoffset="0" style="mix-blend-mode: normal"><path d="M206.35938,85.40728l-0.83997,-1.40994l0.97996,-0.19l1.08995,-1.90992l0.2,-1.80993l-1.01996,-0.53998l2.5999,-2.93989l0.98996,1.46994l1.10996,1.13995l1.46994,-0.90996l1.47994,-0.54997l1.05996,-1.27995l0.84996,-0.52998l1.72993,0.47998l2.78989,-0.64997l0.81997,-0.51998l0.71997,0.21999l0.68997,1.06996l2.14991,1.12995l0.81997,0.68997l0.49998,1.82993l1.54994,2.89989l0.44998,1.41994l1.12995,1.74993l0.13999,1.19995l-0.80997,1.72993l0.66997,2.02992l-0.07999,0.84996l-3.06988,3.78985l1.17995,1.53994l-0.32999,1.47994l-0.58998,0.99996l-1.22995,0.44998l-0.83997,0.80996l-2.71989,1.45995l-2.69989,-0.31999l-1.40994,1.40994l0.01,0.93996l-1.17996,1.01995l-0.95996,-0.09999l-1.18995,1.90992l-0.80997,0.59998l-2.25991,0.14999l-1.43994,1.34994l-1.13995,0.21999l-0.39999,-0.84996l0.93996,-1.08995l-0.53997,-1.43995l-1.23996,-0.50998l-0.83997,-1.12995l-1.92992,-0.90996l-0.21999,-1.11996l0.51998,-3.70986l2.17991,-0.16999l0.56997,-1.31995l1.22995,-1.02996l1.39995,-0.59998l0.51998,-0.98996l0.73997,-0.19999l0.91996,-1.84992l0.18999,-1.18995l-0.22999,-1.11996l-1.27995,-0.32999l-0.88996,-2.3399l0.69997,-0.91996l-1.39995,-1.37995l-2.3999,0.11l-1.09996,-0.28999"/></g></g></svg>