<svg version="1.1" xmlns="http://www.w3.org/2000/svg" xmlns:xlink="http://www.w3.org/1999/xlink" width="480" height="40" viewBox="0,0,480,40"><g transform="translate(0,-160)"><g data-paper-data="{&quot;isPaintingLayer&quot;:true}" fill-rule="nonzero" stroke-linecap="butt" stroke-linejoin="miter" stroke-miterlimit="10" stroke-dasharray="" stroke-dashoffset="0" style="mix-blend-mode: normal"><path d="M240,196v-32h208v32z" fill="none" stroke="none" stroke-width="0"/><path d="M0,200v-40h480v40z" fill="none" stroke="#000000" stroke-width="0"/><path d="M246.56,182.77c0.944,0.51432 1.98893,1.23699 3.1348,2.168l-1.1133,1.8164c-0.73567,-0.8268 -1.4095,-1.50713 -2.0215,-2.041v4.7852h-2.002v-5.2148c-0.87893,1.6146 -1.92387,2.9655 -3.1348,4.0527l-1.1426,-1.8457c1.4518,-1.02867 2.65947,-2.30797 3.623,-3.8379h-3.0859v-1.7188h3.7402v-1.9043h-4.1211v-1.7969h2.1387c-0.16927,-0.8268 -0.4069,-1.7285 -0.71289,-2.7051h-1.0449v-1.8164h3.7012v-2.2168h2.0801v2.2168h3.5449v1.8164h-1.0449c-0.24089,0.97653 -0.54037,1.87823 -0.89844,2.7051h2.2363v1.7969h-3.877v1.9043h3.5156v1.7188h-3.5156zM243.8061,174.5278c0.2474,0.8138 0.46224,1.7155 0.64453,2.7051h1.9336c0.29948,-0.83987 0.55664,-1.74157 0.77148,-2.7051zM252.9956,179.2739c0.00667,2.01827 -0.14958,3.89 -0.46875,5.6152c-0.33203,1.79033 -0.92123,3.3919 -1.7676,4.8047l-1.6113,-1.4746c0.72267,-1.17187 1.21747,-2.61067 1.4844,-4.3164c0.23437,-1.45833 0.35156,-3.3203 0.35156,-5.5859v-6.123c0.13021,-0.013 0.32877,-0.03253 0.5957,-0.0586c2.07033,-0.19531 4.1439,-0.64128 6.2207,-1.3379l1.2793,1.6992c-1.7318,0.58594 -3.75653,1.03841 -6.0742,1.3574v3.3789h6.5527v2.041h-2.2363v10.225h-2.0215v-10.225z" fill="#ffffff" stroke="none" stroke-width="1"/><path d="M268.67,179.28h-2.0312v-7.5391l0.10743,-0.01c1.66667,-0.22136 3.08267,-0.60873 4.248,-1.1621l1.3477,1.416c-0.98307,0.39713 -2.2233,0.7552 -3.7207,1.0742v1.6211h3.1543v1.4648h-3.1543v1.6113h7.2949v-1.6113h-3.2129v-1.4648h3.2129v-1.4941h-3.2617v-1.5625h5.2637v7.6562h-7.1973c-0.20833,0.37761 -0.47852,0.80404 -0.81055,1.2793h9.2871c-0.0586,3.5482 -0.23438,5.84637 -0.52735,6.8945c-0.1888,0.6706 -0.45247,1.15563 -0.79101,1.4551c-0.37761,0.33854 -0.95054,0.50781 -1.7188,0.50781c-0.96353,0 -1.9043,-0.05208 -2.8223,-0.15625l-0.40039,-1.9434c1.02213,0.17578 1.87173,0.26367 2.5488,0.26367c0.55989,0 0.91146,-0.14648 1.0547,-0.43945c0.28646,-0.60547 0.48503,-2.2591 0.5957,-4.9609h-8.6035c-0.54037,0.52083 -1.07097,0.96353 -1.5918,1.3281l1.4551,0.41016c-0.26693,1.92053 -0.65429,3.50907 -1.1621,4.7656l-1.8945,-0.9668c0.56641,-1.15233 1.00261,-2.48697 1.3086,-4.0039c-0.14974,0.09765 -0.38737,0.24739 -0.71289,0.44922l-1.0938,-1.2988l-0.19531,0.69336c-0.70967,2.5 -1.43883,4.46613 -2.1875,5.8984l-1.8359,-1.4746c1.02867,-1.90753 1.90757,-4.17967 2.6367,-6.8164l1.7383,1.1523l-0.11719,0.41016c1.52347,-0.80727 2.7865,-1.95637 3.7891,-3.4473zM263.963,175.0612c-0.83333,-1.1068 -1.80013,-2.10613 -2.9004,-2.998l1.4746,-1.3867c1.05467,0.7292 2.06053,1.6895 3.0176,2.8809zM263.29894,180.1003c-0.84633,-1.1068 -1.81963,-2.15497 -2.9199,-3.1445l1.4844,-1.4355c1.16533,0.90493 2.1777,1.9108 3.0371,3.0176zM269.69544,188.0593c-0.11068,-1.53647 -0.3418,-2.97527 -0.69336,-4.3164l1.4941,-0.40039c0.50781,1.34113 0.83659,2.67903 0.98632,4.0137zM272.65444,187.0046c-0.3125,-1.39973 -0.6836,-2.56837 -1.1133,-3.5059l1.3574,-0.57617c0.48828,0.95707 0.90168,2.0508 1.2402,3.2812zM275.18374,186.07687c-0.3125,-1.15887 -0.7487,-2.19077 -1.3086,-3.0957l1.3281,-0.625c0.58593,0.86587 1.04493,1.83267 1.377,2.9004z" fill="#ffffff" stroke="none" stroke-width="1"/><path d="M296.76,170.98v9.4629h-11.621v-9.4629zM287.2385,172.523v1.2207h7.4023v-1.2207zM287.2385,175.1207v1.2207h7.4023v-1.2207zM287.2385,177.7183v1.2598h7.4023v-1.2598zM283.3029,181.7417h16.191v1.6992h-8.0762v6.0644h-2.2168v-6.0644h-8.0371v-10.957h2.1387zM280.8029,187.6401c1.54947,-0.71613 3.0306,-1.9173 4.4434,-3.6035l1.7969,1.0449c-1.3932,1.76433 -2.93943,3.15107 -4.6387,4.1602zM297.6389,188.8999c-0.99607,-1.22393 -2.49347,-2.50973 -4.4922,-3.8574l1.6797,-1.1816c1.569,0.90493 3.1087,2.09307 4.6191,3.5644z" fill="#ffffff" stroke="none" stroke-width="1"/><path d="M308.84,174.08v-3.584h2.1973v3.584h7.2461v10.332h-2.1582v-1.3574h-5.0879v6.4453h-2.1973v-6.4453h-4.9609v1.4648h-2.1582v-10.439zM303.8791,176.082v4.9707h4.9609v-4.9707zM316.1251,181.0527v-4.9707h-5.0879v4.9707z" fill="#ffffff" stroke="none" stroke-width="1"/><path d="M329.39,182.87v-8.8574h3.5938c-0.05207,-0.8854 -0.08787,-2.05727 -0.10742,-3.5156h1.8945c0.01953,1.09373 0.04557,2.0996 0.0781,3.0176l0.0195,0.49805h4.248v1.7774h-4.1406c0.14323,1.70573 0.36133,3.2129 0.6543,4.5215c0.5664,-1.02213 1.08073,-2.2754 1.543,-3.7598l1.6406,0.78125c-0.8854,2.2656 -1.71873,4.01363 -2.5,5.2441c0.39063,0.97007 0.6836,1.4551 0.87891,1.4551c0.07161,0 0.13997,-0.11393 0.20507,-0.34179c0.16276,-0.57292 0.28971,-1.25325 0.38086,-2.041l1.5527,0.99609c-0.42318,2.66273 -1.03841,3.9941 -1.8457,3.9941c-0.33854,0 -0.72264,-0.20833 -1.1523,-0.625c-0.42969,-0.42317 -0.83985,-1.00584 -1.2305,-1.748c-0.85287,1.00913 -1.76107,1.8913 -2.7246,2.6465l-1.3867,-1.3184c1.31513,-0.91147 2.4284,-1.98567 3.3398,-3.2226c-0.60547,-1.9792 -1.01564,-4.1732 -1.2305,-6.582h-1.8262v6.1719c0.59245,-0.3125 1.21095,-0.65757 1.8555,-1.0352l0.32226,1.6211c-1.47133,1.02867 -2.95247,1.88803 -4.4434,2.5781l-0.97656,-1.7188c0.46224,-0.16927 0.91471,-0.3483 1.3574,-0.53711zM325.9134,186.0731c0.69013,0.32552 1.49743,0.60221 2.4219,0.83008c1.08073,0.26041 2.07357,0.39062 2.9785,0.39062h8.3594c-0.29947,0.56641 -0.53385,1.20117 -0.70312,1.9043h-7.7734c-1.89453,0 -3.66863,-0.36133 -5.3223,-1.084c-1.21093,-0.52083 -2.28517,-1.39323 -3.2227,-2.6172c-0.21485,1.51693 -0.56315,2.85157 -1.0449,4.0039l-1.416,-1.582c0.63151,-2.0638 0.99285,-4.71353 1.084,-7.9492l1.7383,0.30274c-0.01953,0.625 -0.08464,1.5853 -0.19531,2.8809c0.28645,0.46224 0.69009,0.95377 1.2109,1.4746v-5.918h-3.6133v-1.8164h3.5352v-2.2168h-3.0176v-1.7773h3.0176v-2.4023h1.9434v2.4023h2.6758v1.7773h-2.6758v2.2168h2.8223v1.8164h-2.8027v2.2266h2.4414v1.7969h-2.4414zM337.1344,173.9541c-0.44922,-1.04167 -0.97005,-1.95313 -1.5625,-2.7344l1.4551,-0.78125c0.57291,0.7422 1.13931,1.6146 1.6992,2.6172z" fill="#ffffff" stroke="none" stroke-width="1"/></g></g></svg>