<svg version="1.1" xmlns="http://www.w3.org/2000/svg" xmlns:xlink="http://www.w3.org/1999/xlink" width="208" height="32" viewBox="0,0,208,32"><g transform="translate(-240,-164)"><g data-paper-data="{&quot;isPaintingLayer&quot;:true}" fill-rule="nonzero" stroke="none" stroke-linecap="butt" stroke-linejoin="miter" stroke-miterlimit="10" stroke-dasharray="" stroke-dashoffset="0" style="mix-blend-mode: normal"><path d="M240,196v-32h208v32z" fill="none" stroke-width="0"/><path d="M256.92,185.33l2.1387,0.58594c-0.013,1.6276 -0.3678,2.6302 -1.0644,3.0078c-0.56641,0.30599 -2.12891,0.45899 -4.6875,0.45899c-2.03127,0 -3.3073,-0.13021 -3.8281,-0.39063c-0.46875,-0.23437 -0.70312,-0.69987 -0.70312,-1.3965v-2.0801h-3.877v1.5039h-2.0996v-7.998c-0.51433,0.25391 -0.94726,0.45898 -1.2988,0.61523l-1.2598,-1.7188c2.78647,-1.09373 4.7982,-2.28187 6.0352,-3.5644h-5.1953v-1.7774h6.5723c0.35157,-0.58593 0.68034,-1.29883 0.98633,-2.1387l2.2363,0.30274c-0.29948,0.71613 -0.58594,1.3281 -0.85938,1.8359h8.9258v1.7774h-5.2344c1.3216,1.08727 3.33333,2.05407 6.0352,2.9004l-1.0645,1.8652c-0.54687,-0.20833 -1.13281,-0.44596 -1.7578,-0.71289zM250.8556,177.5175h4.2773c-1.57553,-0.85287 -2.94597,-1.90757 -4.1113,-3.1641h-2.1777c-0.944,1.18487 -2.09633,2.23957 -3.457,3.1641h3.3887v-2.041h2.0801zM250.8556,179.0995v1.6113h3.9844v-1.6113zM248.7755,179.0995h-3.877v1.6113h3.877zM256.8517,185.5155h-5.9961v1.0644c0,0.47526 0.16601,0.75846 0.49804,0.84961c0.35157,0.09115 1.01563,0.13672 1.9922,0.13672c1.41273,0 2.35673,-0.04883 2.832,-0.14649c0.30599,-0.06507 0.48829,-0.28642 0.54688,-0.66406c0.07161,-0.40365 0.11393,-0.81705 0.12695,-1.2402zM248.7755,182.2147h-3.877v1.7188h3.877zM250.8556,182.2147v1.7188h3.9844v-1.7188z" fill="#ffffff" stroke-width="1"/><path d="M268.84,180.4h-8.3203v-1.6406h8.3203v-1.543h-6.416v-1.5625h6.416v-1.4746h-7.4609v-1.6016h4.1016c-0.34505,-0.55989 -0.70639,-1.06119 -1.084,-1.5039l2.2656,-0.63477c0.52083,0.6706 0.95053,1.3835 1.2891,2.1387h4.0137c0.51433,-0.7292 0.91146,-1.43557 1.1914,-2.1191l2.4219,0.47852c-0.35807,0.57943 -0.73241,1.12629 -1.123,1.6406h4.1602v1.6016h-7.5781v1.4746h6.543v1.5625h-6.543v1.543h8.4473v1.6406h-8.4473v1.6406h8.1055v1.6797h-7.3828c0.69013,0.85287 1.58533,1.569 2.6856,2.1484c1.4518,0.76173 3.1022,1.28583 4.9512,1.5723l-1.3184,2.002c-3.7956,-0.92447 -6.43233,-2.53907 -7.9102,-4.8438c-0.58594,1.25653 -1.57227,2.2982 -2.959,3.125c-1.25653,0.7552 -3.00783,1.35417 -5.2539,1.7969l-1.3184,-1.9043c4.1992,-0.46224 6.7936,-1.76107 7.7832,-3.8965h-7.5391v-1.6797h7.959z" fill="#ffffff" stroke-width="1"/><path d="M295.73,175.56v2.5h3.1934v1.7578h-3.1934v2.8125h3.8184v1.8555h-3.8184v5.0195h-2.0605v-5.0195h-3.7891v-1.8555h3.7891v-2.8125h-3.0957v-1.7578h3.0957v-2.5h-3.291v0.85938h-1.123v3.457h-4.7266c-0.21484,0.7292 -0.44596,1.39653 -0.69336,2.002h5.5664v7.3633h-1.9043v-0.85937h-3.1738v1.123h-1.8848v-4.9707c-0.37109,0.54037 -0.80729,1.07097 -1.3086,1.5918l-1.0156,-1.8848c1.1068,-1.1198 1.9499,-2.57487 2.5293,-4.3652h-1.4258v-1.6602h1.8262c0.07161,-0.41015 0.13672,-0.91145 0.19531,-1.5039l0.0293,-0.29296h-2.832v-1.7188h2.9395c0.02607,-0.6966 0.0391,-1.27603 0.0391,-1.7383h-2.0606v-1.6992h7.9004v3.4375h0.91797v-0.97657h1.7676c-0.39713,-1.08727 -0.83983,-1.99547 -1.3281,-2.7246l1.8555,-0.5957c0.45573,0.78127 0.92447,1.88803 1.4062,3.3203h1.5625l0.0586,-0.15625c0.33854,-0.8138 0.70964,-1.89453 1.1133,-3.2422l2.0801,0.57617c-0.3125,0.87893 -0.70637,1.8197 -1.1816,2.8223h1.7969v1.8359zM284.324,183.5776v3.0664h3.1738v-3.0664zM287.3514,172.9626h-2.0703c-0.013,0.74867 -0.02603,1.3281 -0.0391,1.7383h2.1094zM287.3514,176.4196h-2.2168c-0.0456,0.59895 -0.11721,1.19792 -0.21484,1.7969h2.4316z" fill="#ffffff" stroke-width="1"/><path d="M307.74,171.98c0.24089,-0.57943 0.4362,-1.13283 0.58594,-1.6602l2.3828,0.32226c-0.22786,0.54037 -0.43619,0.98633 -0.625,1.3379h6.5039v6.3672h-11.797v0.98633h14.697v1.582h-14.697v0.99609h14.014c-0.08464,2.9818 -0.27344,4.99353 -0.56641,6.0352c-0.1888,0.66406 -0.5436,1.10353 -1.0644,1.3184c-0.37109,0.15625 -0.93749,0.23437 -1.6992,0.23437c-0.78127,0 -1.51043,-0.04883 -2.1875,-0.14648l-0.39063,-1.6406h-9.7852v1.084h-2.0996v-4.6973h2.0996v2.0117h3.3594v-2.6367h-3.8379v-11.494zM311.8904,186.111v-2.0117h2.0215v3.3984c0.54036,0.05207 0.98956,0.0781 1.3476,0.0781c0.44271,0 0.71941,-0.12695 0.83008,-0.38085c0.21485,-0.47527 0.38412,-1.7155 0.50781,-3.7207h-8.0273v2.6367zM304.7908,173.484v0.96679h9.6387v-0.96679zM304.7908,175.8473v1.0644h9.6387v-1.0644z" fill="#ffffff" stroke-width="1"/><path d="M325.02,177.79c0.50781,0 0.96681,0.16927 1.377,0.50781c0.54036,0.44271 0.81054,1.00911 0.81054,1.6992c0,0.42318 -0.12044,0.81705 -0.36133,1.1816c-0.43619,0.67707 -1.05469,1.0156 -1.8555,1.0156c-0.35157,0 -0.68687,-0.08464 -1.0059,-0.25391c-0.25391,-0.13021 -0.46875,-0.30273 -0.64453,-0.51758c-0.35807,-0.42317 -0.53711,-0.90494 -0.53711,-1.4453c0,-0.7552 0.31575,-1.35417 0.94726,-1.7969c0.37761,-0.26041 0.80077,-0.39062 1.2695,-0.39062z" fill="#ffffff" stroke-width="1"/><path d="M332.84,171.06h2.2754v5.6055c3.88673,1.19793 7.10613,2.4219 9.6582,3.6719l-1.0938,2.1094c-2.44793,-1.24347 -5.30273,-2.4251 -8.5644,-3.5449v9.9219h-2.2754z" fill="#ffffff" stroke-width="1"/><path d="M347.15,174.87h5.957c0.05207,-1.44533 0.0781,-2.73767 0.0781,-3.877h2.2656c-0.013,1.4844 -0.04881,2.77673 -0.10742,3.877h7.1875c-0.03907,4.61587 -0.22787,8.1542 -0.56641,10.615c-0.14974,1.1198 -0.45247,1.88803 -0.9082,2.3047c-0.47526,0.42969 -1.29233,0.64453 -2.4512,0.64453c-0.83987,0 -1.7318,-0.06836 -2.6758,-0.20508l-0.36133,-2.1973c1.12627,0.20182 2.0475,0.30273 2.7637,0.30273c0.49479,0 0.81706,-0.07487 0.9668,-0.22461c0.16927,-0.16276 0.30924,-0.67056 0.41992,-1.5234c0.31901,-2.52607 0.48828,-5.09767 0.50781,-7.7148h-4.9805c-0.24739,2.68227 -0.81706,4.8307 -1.709,6.4453c-1.15887,2.08987 -2.9004,3.7956 -5.2246,5.1172l-1.4844,-1.7383c1.45833,-0.8008 2.70183,-1.80667 3.7305,-3.0176c0.77473,-0.91147 1.34767,-1.94337 1.7188,-3.0957c0.35807,-1.08727 0.60221,-2.32423 0.73242,-3.7109h-5.8594z" fill="#ffffff" stroke-width="1"/><path d="M367.48,171.92h12.881v2.002h-12.881zM366.0835,176.7052h16.26c-0.28646,2.83853 -0.87889,5.0586 -1.7773,6.6602c-0.67707,1.2044 -1.52343,2.1647 -2.5391,2.8809c-1.71873,1.22393 -4.21873,2.06377 -7.5,2.5195l-0.98633,-1.9824c2.89713,-0.27995 5.11393,-0.94401 6.6504,-1.9922c1.9922,-1.34767 3.13477,-3.37567 3.4277,-6.084h-13.535z" fill="#ffffff" stroke-width="1"/><path d="M390.08,183.19c-0.87893,-0.86587 -1.78387,-1.6276 -2.7148,-2.2852c-0.49479,0.8138 -1.08722,1.62433 -1.7773,2.4316l-1.3184,-1.6602c1.9466,-2.35027 3.24217,-5.10417 3.8867,-8.2617h-3.3106v-1.9629h10.068v1.9629h-4.6973c-0.17579,0.86587 -0.3711,1.6406 -0.58594,2.3242h3.6426l1.0156,0.82031c-0.44271,3.112 -1.24674,5.7064 -2.4121,7.7832c-1.15887,2.0638 -2.89713,3.76303 -5.2148,5.0977l-1.4356,-1.6602c2.0768,-1.11327 3.69463,-2.6432 4.8535,-4.5898zM390.99797,181.2564c0.44271,-1.11327 0.78777,-2.3535 1.0352,-3.7207h-3.0176c-0.24088,0.625 -0.49804,1.2142 -0.77148,1.7676c0.96353,0.55989 1.8815,1.21093 2.7539,1.9531zM395.85147,173.2095h2.1191v11.562h-2.1191zM400.22647,171.2368h2.1582v15.918c0,0.6966 -0.14323,1.2044 -0.42968,1.5234c-0.33855,0.37109 -0.98308,0.55664 -1.9336,0.55664c-0.59245,0 -1.50391,-0.0293 -2.7344,-0.0879l-0.57617,-0.0293l-0.41993,-2.1387c1.31513,0.14323 2.3861,0.21485 3.2129,0.21485c0.36459,0 0.58269,-0.09115 0.6543,-0.27344c0.0456,-0.11068 0.0684,-0.26693 0.0684,-0.46875z" fill="#ffffff" stroke-width="1"/><path d="M411.57,171.98c0.24089,-0.57943 0.4362,-1.13283 0.58593,-1.6602l2.3828,0.32226c-0.22787,0.54037 -0.4362,0.98633 -0.625,1.3379h6.5039v6.3672h-11.797v0.98633h14.697v1.582h-14.697v0.99609h14.014c-0.08463,2.9818 -0.27344,4.99353 -0.56641,6.0352c-0.1888,0.66406 -0.5436,1.10353 -1.0644,1.3184c-0.37109,0.15625 -0.93749,0.23437 -1.6992,0.23437c-0.78127,0 -1.51043,-0.04883 -2.1875,-0.14648l-0.39062,-1.6406h-9.7852v1.084h-2.0996v-4.6973h2.0996v2.0117h3.3594v-2.6367h-3.8379v-11.494zM415.7204,186.111v-2.0117h2.0215v3.3984c0.54037,0.05207 0.9896,0.0781 1.3477,0.0781c0.44271,0 0.7194,-0.12695 0.83008,-0.38085c0.21484,-0.47527 0.38411,-1.7155 0.50781,-3.7207h-8.0273v2.6367zM408.6208,173.484v0.96679h9.6387v-0.96679zM408.6208,175.8473v1.0644h9.6387v-1.0644z" fill="#ffffff" stroke-width="1"/></g></g></svg>