<svg version="1.1" xmlns="http://www.w3.org/2000/svg" xmlns:xlink="http://www.w3.org/1999/xlink" width="145.1" height="43.534" viewBox="0,0,145.1,43.534"><g transform="translate(-240,-180)"><g data-paper-data="{&quot;isPaintingLayer&quot;:true}" stroke="none" stroke-linecap="butt" stroke-linejoin="miter" stroke-miterlimit="10" stroke-dasharray="" stroke-dashoffset="0" style="mix-blend-mode: normal"><path d="M248,180h129.1c4.432,0 8,3.568 8,8v27.534c0,4.432 -3.568,8 -8,8h-129.1c-4.432,0 -8,-3.568 -8,-8v-27.534c0,-4.432 3.568,-8 8,-8z" fill-opacity="0.7" fill="#000000" fill-rule="evenodd" stroke-width="0"/><g fill="#ffffff" fill-rule="nonzero" stroke-width="1"><path d="M249.9619,191.0377c-0.02607,1.64583 -0.1068,2.69011 -0.24219,3.13282c-0.07031,0.22656 -0.18229,0.38541 -0.33594,0.47656c-0.14323,0.08594 -0.34765,0.12891 -0.61328,0.12891c-0.25,0 -0.55989,-0.02213 -0.92968,-0.0664l-0.16016,-0.77734c0.43489,0.05467 0.73958,0.082 0.91406,0.082c0.18229,0 0.29818,-0.04688 0.34766,-0.14063c0.09115,-0.16927 0.16146,-0.87239 0.21094,-2.10937h-1.08985c-0.00533,0.0182 -0.00923,0.04033 -0.0117,0.0664c-0.0156,0.10157 -0.04423,0.25782 -0.0859,0.46875l-0.76563,-0.11718c0.16146,-1.13542 0.26042,-2.10938 0.29688,-2.92188h1.58984v-0.98047h-1.83203v-0.7539h2.60937v2.46093h-1.63281l-0.0195,0.33203c-0.0156,0.22657 -0.03513,0.46615 -0.0586,0.71875zM252.00877,189.49083l-0.14453,0.0117c-0.44271,0.03647 -0.98177,0.07162 -1.61718,0.10547l-0.19141,-0.75391c0.14323,-0.00267 0.26302,-0.00533 0.35937,-0.008c0.05467,0 0.12498,-0.00133 0.21094,-0.004c0.40365,-0.5651 0.74219,-1.12369 1.01563,-1.67578l0.8164,0.19141c-0.26562,0.45833 -0.59114,0.94401 -0.97656,1.45703l0.30469,-0.008c0.50781,-0.0156 1.07422,-0.04553 1.69922,-0.0898l-0.0664,-0.0859c-0.15625,-0.21354 -0.34375,-0.44531 -0.5625,-0.69531l0.65625,-0.34765c0.58854,0.65625 1.02864,1.2513 1.32031,1.78515l-0.67968,0.42578c-0.10938,-0.21093 -0.20313,-0.3802 -0.28125,-0.50781c-0.39844,0.05467 -0.75521,0.09764 -1.07032,0.12891v0.76953h1.67188v2.23828h-1.67188v1.30469c0.24219,-0.02607 0.5,-0.0547 0.77344,-0.0859l0.0859,-0.0117c-0.11719,-0.25521 -0.24609,-0.5026 -0.38672,-0.74219l0.72656,-0.28906c0.33594,0.51302 0.64323,1.13411 0.92188,1.86328l-0.76172,0.375c-0.09375,-0.26041 -0.17318,-0.46744 -0.23828,-0.62109l-0.29297,0.0469c-1.09896,0.17969 -2.22917,0.31771 -3.39063,0.41407l-0.21484,-0.76563c0.625,-0.02347 1.27344,-0.05992 1.94531,-0.10937l0.0391,-0.004v-1.375h-1.625v-2.23828h1.625zM252.00877,190.8463h-0.89843v0.92578h0.89843zM252.80174,190.8463v0.92578h0.91797v-0.92578zM258.55956,188.25255v-0.33594h-2.44141v-0.55859h5.76562v0.55859h-2.49218v0.33594h3.23437v1.40234h-0.84765v-0.89844h-2.38672v1.51954h-0.83203v-1.51954h-2.34375v0.89844h-0.83985v-1.40234zM261.32518,193.79552c0.39844,0.15104 0.89584,0.27083 1.49219,0.35937l-0.45703,0.66406c-0.83594,-0.14323 -1.52214,-0.38932 -2.0586,-0.73828c-0.53385,-0.34895 -0.94922,-0.78255 -1.24609,-1.30078h-0.86328v1.20313c0.57552,-0.08073 1.10937,-0.16667 1.60156,-0.25782l0.0547,0.58204c-0.91667,0.21875 -1.96484,0.40885 -3.14453,0.57031l-0.23047,-0.6875c0.40885,-0.04427 0.6888,-0.0755 0.83984,-0.0937l0.0469,-0.008v-1.3086h-0.85547c-0.03647,0.45833 -0.09636,0.82422 -0.17969,1.09766c-0.09896,0.32813 -0.25781,0.63412 -0.47656,0.91797l-0.69531,-0.57422c0.25521,-0.33073 0.41406,-0.71745 0.47656,-1.16016c0.03387,-0.23958 0.0508,-0.53776 0.0508,-0.89453v-1.65625h6.74219v0.51953h-5.90235v1.19922h6.23828v0.55078h-0.88671l0.49609,0.32813c-0.29427,0.24479 -0.64193,0.47395 -1.04297,0.6875zM260.71581,193.49474c0.375,-0.25521 0.67318,-0.4935 0.89453,-0.71485h-1.70703c0.22395,0.28646 0.49479,0.52474 0.8125,0.71485zM256.55956,189.04552h1.66406v0.4414h-1.66406zM256.55956,189.76427h1.66406v0.44922h-1.66406zM259.72752,189.04552h1.71485v0.4414h-1.71485zM259.72752,189.76427h1.71485v0.44922h-1.71485zM256.98534,191.35802h4.86328v0.51172h-4.86328zM263.71971,187.80724h5.92969v0.80078h-3.30469v1.66015h3.92969v0.80078h-3.92969v1.9375c0,0.14583 0.02603,0.24349 0.0781,0.29297c0.10156,0.10157 0.58073,0.15235 1.4375,0.15235c0.60677,0 1.22395,-0.02083 1.85156,-0.0625v0.8789c-0.65104,0.03387 -1.26693,0.0508 -1.84766,0.0508c-0.85937,0 -1.40885,-0.02603 -1.64843,-0.0781c-0.33594,-0.07031 -0.5586,-0.22396 -0.66797,-0.46094c-0.06513,-0.13802 -0.0977,-0.3164 -0.0977,-0.53515v-2.17579h-2.12891v-0.80078h2.12891v-1.66015h-1.73047zM271.8369,188.4713h5.375v0.83984h-5.375zM271.04393,192.94395h6.96094v0.84766h-6.96094zM284.45799,188.24474l0.5586,0.45703c-0.36459,1.66667 -0.95573,2.95703 -1.77344,3.87109c-0.45313,0.50521 -1.03906,0.94792 -1.75781,1.32813c-0.51042,0.26823 -1.0586,0.48177 -1.64453,0.64062l-0.45313,-0.76953c1.33854,-0.34896 2.3776,-0.90625 3.11719,-1.67188c-0.60937,-0.54687 -1.28125,-1.03125 -2.01563,-1.45312l0.51172,-0.63281c0.71615,0.37239 1.39714,0.83073 2.04297,1.375c0.50781,-0.8125 0.82682,-1.59896 0.95703,-2.35938h-2.75c-0.63021,0.98177 -1.37239,1.73308 -2.22656,2.25391l-0.57422,-0.6211c0.82552,-0.49739 1.50391,-1.15494 2.03516,-1.97265c0.27343,-0.41667 0.48567,-0.86589 0.63672,-1.34766l0.84765,0.20703c-0.08593,0.23438 -0.18229,0.46615 -0.28906,0.69532zM289.87596,193.61192c1.52865,-0.38541 2.29297,-1.26171 2.29297,-2.6289c0,-0.59635 -0.15365,-1.10938 -0.46094,-1.53907c-0.34375,-0.48437 -0.86718,-0.79557 -1.57031,-0.93359c-0.15365,1.20833 -0.36328,2.19792 -0.62891,2.96875c-0.18229,0.53906 -0.40885,1.04817 -0.67968,1.52734c-0.39063,0.68229 -0.83464,1.02344 -1.33203,1.02344c-0.36979,0 -0.69922,-0.16667 -0.98829,-0.5c-0.18489,-0.21093 -0.33463,-0.47005 -0.44921,-0.77734c-0.15105,-0.39844 -0.22657,-0.82683 -0.22657,-1.28516c0,-0.74219 0.20443,-1.42578 0.61328,-2.05078c0.41407,-0.63802 0.95183,-1.10156 1.61329,-1.39062c0.48177,-0.21094 1.01041,-0.31641 1.58593,-0.31641c0.89844,0 1.66146,0.24089 2.28907,0.72266c0.77083,0.59114 1.15625,1.42838 1.15625,2.51171c0,1.81511 -0.91797,2.96615 -2.75391,3.45313zM289.29002,188.47911c-0.46093,0.05207 -0.84635,0.17576 -1.15625,0.37109c-0.19791,0.12761 -0.39453,0.29688 -0.58984,0.50782c-0.54167,0.59895 -0.8125,1.29296 -0.8125,2.08203c0,0.57552 0.11458,1.02604 0.34375,1.35156c0.14063,0.20052 0.27995,0.30078 0.41797,0.30078c0.1875,0 0.39844,-0.20703 0.63281,-0.62109c0.57292,-1.00781 0.96094,-2.33854 1.16406,-3.99219zM295.53612,191.91661v1.41797c0,0.20573 0.07552,0.32942 0.22656,0.37109c0.22396,0.06247 0.96485,0.0937 2.22266,0.0937c1.11719,0 1.8125,-0.03253 2.08593,-0.0976c0.13021,-0.03127 0.21355,-0.10418 0.25,-0.21875c0.04427,-0.13021 0.07942,-0.4336 0.10547,-0.91016l0.86328,0.26563c-0.02867,0.51302 -0.07033,0.86458 -0.125,1.05468c-0.07031,0.2474 -0.20051,0.41537 -0.39062,0.50391c-0.13542,0.06247 -0.32292,0.10153 -0.5625,0.11719c-0.61719,0.04427 -1.42318,0.0664 -2.41797,0.0664c-1.39323,0 -2.22135,-0.02473 -2.48437,-0.0742c-0.29688,-0.05467 -0.48829,-0.18487 -0.57422,-0.39062c-0.04167,-0.10417 -0.0625,-0.23438 -0.0625,-0.39063v-4.01171l-0.0391,0.0312c-0.11979,0.08593 -0.26171,0.18098 -0.42578,0.28515l-0.53515,-0.64844c0.92969,-0.51041 1.71614,-1.23828 2.35937,-2.18359l0.54688,0.375h2.22265l0.41407,0.42969c-0.34375,0.48698 -0.70313,0.92578 -1.07813,1.3164h2.50391v2.59766zM295.53612,191.2213h1.67969v-1.1836h-1.67969zM298.05565,190.0377v1.1836h1.71484v-1.1836zM297.1494,189.31895c0.33594,-0.35156 0.6224,-0.69661 0.85937,-1.03515h-1.80468c-0.28907,0.35417 -0.63282,0.69922 -1.03125,1.03515zM302.36034,188.29552h2.10547c0.23177,-0.36979 0.40755,-0.66797 0.52734,-0.89453l0.87109,0.125c-0.07812,0.14062 -0.21614,0.36979 -0.41406,0.6875l-0.0508,0.082h2.75391v0.76953h-3.27344c-0.34115,0.46875 -0.66667,0.875 -0.97656,1.21875c0.49219,-0.29427 0.9414,-0.44141 1.34765,-0.44141c0.63021,0 1.04297,0.31641 1.23828,0.94922c0.66667,-0.22135 1.34636,-0.4401 2.03907,-0.65625l0.33593,0.75781l-0.13672,0.0391l-0.38671,0.10156c-0.72917,0.19791 -1.3125,0.36718 -1.75,0.50781c0.03127,0.33854 0.0534,0.77604 0.0664,1.3125l-0.85547,0.0469c-0.00267,-0.3099 -0.00787,-0.64584 -0.0156,-1.00782v-0.0781c-1.19792,0.40885 -1.79688,0.82031 -1.79688,1.23437c0,0.21355 0.15365,0.35938 0.46094,0.4375c0.29687,0.07552 0.82812,0.11328 1.59375,0.11328c0.70573,0 1.44661,-0.04036 2.22266,-0.12109l0.0937,0.83203c-0.75261,0.05727 -1.53256,0.0859 -2.33985,0.0859c-0.99479,0 -1.70182,-0.07552 -2.12109,-0.22656c-0.51823,-0.1875 -0.77734,-0.52474 -0.77734,-1.01172c0,-0.41146 0.18359,-0.77474 0.55078,-1.08985c0.38021,-0.32552 1.04948,-0.66146 2.00781,-1.00781c-0.05207,-0.20052 -0.12108,-0.34114 -0.20703,-0.42187c-0.09635,-0.09115 -0.22396,-0.13672 -0.38281,-0.13672c-0.25781,0 -0.58203,0.09766 -0.97266,0.29297c-0.48177,0.23958 -0.9987,0.60026 -1.55078,1.08203l-0.51953,-0.59375c0.80989,-0.75261 1.44401,-1.49219 1.90234,-2.21875h-1.58984zM313.57518,190.36192v3.09375c0,0.20052 0.08594,0.32161 0.25781,0.36328c0.17709,0.04427 0.58204,0.0664 1.21485,0.0664c0.61719,0 1.02474,-0.03123 1.22265,-0.0937c0.11198,-0.03647 0.1849,-0.13803 0.21875,-0.30469c0.04427,-0.23437 0.0677,-0.51172 0.0703,-0.83203l0.8164,0.23047c-0.04167,0.76823 -0.14713,1.25911 -0.3164,1.47266c-0.11198,0.14062 -0.28125,0.22395 -0.50782,0.25c-0.35677,0.03907 -0.96223,0.0586 -1.8164,0.0586c-0.66146,0 -1.09505,-0.01823 -1.30078,-0.0547c-0.3099,-0.05207 -0.50652,-0.18878 -0.58985,-0.41015c-0.04167,-0.11719 -0.0625,-0.27344 -0.0625,-0.46875v-3.09766l-0.74609,0.25781l-0.1836,-0.75781l0.92969,-0.32031v-2.10547h0.79297v1.83203l0.83984,-0.28516v-2.05859h0.78516v1.78516l1.30859,-0.44922l0.41016,0.25v2.92578c0,0.20313 -0.04818,0.35417 -0.14453,0.45312c-0.10937,0.10938 -0.29297,0.16407 -0.55078,0.16407c-0.21094,0 -0.4349,-0.01823 -0.67188,-0.0547l-0.1289,-0.74609c0.15365,0.03907 0.3099,0.0586 0.46875,0.0586c0.11458,0 0.18489,-0.02343 0.21093,-0.0703c0.02607,-0.03907 0.0391,-0.10417 0.0391,-0.19532v-1.84765l-0.94141,0.32812v3.16016h-0.78516v-2.89063zM310.70409,189.08458v-1.88672h0.83984v1.88672h0.75781v0.79297h-0.75781v2.48437c0.27344,-0.09375 0.54427,-0.1914 0.8125,-0.29297l0.0742,0.75391c-0.84375,0.38542 -1.70964,0.70834 -2.59766,0.96875l-0.27343,-0.83203c0.40104,-0.10417 0.7526,-0.20313 1.05468,-0.29688c0.03647,-0.013 0.06643,-0.0221 0.0899,-0.0273v-2.75781h-0.99219v-0.79297zM321.70018,192.37364c-0.55729,0.47135 -1.2487,0.85807 -2.07422,1.16016l-0.49609,-0.60156c0.67187,-0.21875 1.27213,-0.53256 1.80078,-0.94141l-0.13672,-0.0664c-0.50521,-0.24219 -1.05729,-0.48698 -1.65625,-0.73437l0.35938,-0.59375c0.67187,0.24479 1.30078,0.5013 1.88671,0.76953l0.15235,0.0703c0.65885,-0.69271 1.15495,-1.59635 1.48828,-2.71094l0.77734,0.24219c-0.38021,1.13542 -0.88672,2.07943 -1.51953,2.83203c0.02607,0.013 0.0508,0.02603 0.0742,0.0391c0.36719,0.18229 0.84896,0.44921 1.44531,0.80078l-0.47265,0.65625c-0.5,-0.30469 -1.04297,-0.61198 -1.62891,-0.92188zM319.9619,190.67833c-0.1875,-0.61979 -0.40104,-1.14323 -0.64063,-1.57031l0.73438,-0.29297c0.25261,0.44791 0.47396,0.96744 0.66406,1.55859zM321.3369,190.36583c-0.19271,-0.60156 -0.40885,-1.1263 -0.64844,-1.57422l0.70313,-0.28125c0.29948,0.52083 0.52083,1.03516 0.66406,1.54297zM324.94627,187.56505v7.23437h-0.87109v-0.41015h-5.1875v0.41015h-0.86328v-7.23437zM318.88768,188.29161v5.34375h5.1875v-5.34375zM329.71581,189.42833h2.82031v0.80078h-2.82031v3.26563h3.5664v0.8164h-7.60156v-0.8164h3.08984v-6.29688h0.94532zM334.37596,194.46349c-0.09896,-0.88542 -0.14844,-1.76563 -0.14844,-2.64063c0,-1.5 0.11068,-2.92448 0.33204,-4.27344l0.85937,0.0899c-0.21094,1.16667 -0.31641,2.48307 -0.31641,3.94922c0,0.98437 0.05469,1.90494 0.16407,2.76171zM336.71971,188.27599h3.75391v0.83203h-3.75391zM340.73924,193.98302c-0.52083,0.08073 -1.13932,0.12109 -1.85547,0.12109c-1.79947,0 -2.69921,-0.52865 -2.69921,-1.58594c0,-0.41927 0.11198,-0.78515 0.33593,-1.09765l0.73828,0.32812c-0.14062,0.19792 -0.21093,0.42058 -0.21093,0.66797c0,0.30469 0.15234,0.51432 0.45703,0.62891c0.33854,0.13021 0.80078,0.19531 1.38672,0.19531c0.63281,0 1.21875,-0.04167 1.75781,-0.125zM346.55174,193.1588l0.0547,0.69922c-1.13021,0.39843 -2.38672,0.72656 -3.76953,0.98437l-0.28906,-0.78125c0.23958,-0.03647 0.57812,-0.09506 1.01562,-0.17578v-1.42969c-0.45052,0.22917 -0.98698,0.44662 -1.60937,0.65235l-0.44532,-0.69532c1.25261,-0.33854 2.20834,-0.77083 2.86719,-1.29687h-2.78906v-0.67969h3.34766v-0.58984h-2.53125v-0.65625h2.53125v-0.55078h-2.92969v-0.67188h2.92969v-0.76953h0.85546v0.76953h3.01563v0.67188h-3.01563v0.55078h2.61719v0.65625h-2.61719v0.58984h3.4336v0.67969h-0.9336l0.57813,0.39844c-0.35677,0.34635 -0.85677,0.72526 -1.5,1.13672l-0.0898,0.0586c0.48958,0.44791 1.15364,0.8177 1.99218,1.10937l-0.52734,0.79297c-0.90885,-0.38541 -1.63932,-0.86979 -2.19141,-1.45312zM345.36815,191.12755c-0.26042,0.30469 -0.57422,0.57812 -0.94141,0.82031v1.75391c0.64323,-0.14323 1.28907,-0.3099 1.9375,-0.5l0.17969,-0.0508c-0.53385,-0.59115 -0.92578,-1.26563 -1.17578,-2.02344zM346.79393,192.19395c0.46354,-0.33073 0.86979,-0.6901 1.21875,-1.07812h-1.84766c0.16667,0.39844 0.3763,0.75781 0.62891,1.07812zM353.87987,190.52599v3.46484c0,0.31511 -0.0638,0.52995 -0.19141,0.64453c-0.11979,0.10417 -0.35156,0.15625 -0.69531,0.15625c-0.39063,0 -0.76172,-0.02473 -1.11328,-0.0742l-0.16797,-0.82422c0.36458,0.05993 0.71354,0.0899 1.04687,0.0899c0.11198,0 0.18229,-0.01953 0.21094,-0.0586c0.0208,-0.03387 0.0312,-0.08986 0.0312,-0.16797v-3.23046h-3.35937v-0.77735h7.52734v0.77735zM350.57909,187.63145h5.64843v0.76954h-5.64843zM349.59471,193.62364c0.5625,-0.58854 1.01563,-1.37109 1.35938,-2.34765l0.80859,0.30468c-0.39844,1.11719 -0.89974,1.99479 -1.50391,2.63282zM356.29784,194.1002c-0.53907,-1.14062 -1.00782,-1.97525 -1.40625,-2.5039l0.73437,-0.4375c0.57292,0.73698 1.0612,1.53906 1.46485,2.40625zM358.37206,187.52599h0.92187v4.65625c0,0.98177 0.51563,1.47265 1.54688,1.47265c0.67969,0 1.23698,-0.3138 1.67187,-0.9414c0.28125,-0.40365 0.53386,-1.02865 0.75781,-1.875l0.79297,0.48046c-0.26563,0.94011 -0.58464,1.64323 -0.95703,2.10938c-0.58594,0.72656 -1.34766,1.08984 -2.28516,1.08984c-0.97917,0 -1.66927,-0.30208 -2.07031,-0.90625c-0.2526,-0.3776 -0.3789,-0.86458 -0.3789,-1.46093zM368.00487,187.38145h0.86328v0.98438h2.45703v0.74219h-2.45703v0.92968h2.32031v0.73438h-2.32031v1.20703c0.92708,0.3125 1.84114,0.78255 2.74219,1.41016l-0.46094,0.74218c-0.68229,-0.51041 -1.44271,-0.96093 -2.28125,-1.35156c-0.0208,0.44531 -0.10674,0.79037 -0.25781,1.03516c-0.26302,0.42448 -0.78125,0.63672 -1.55469,0.63672c-0.59635,0 -1.07552,-0.11198 -1.4375,-0.33594c-0.40365,-0.25 -0.60547,-0.58854 -0.60547,-1.01563c0,-0.51041 0.27214,-0.88802 0.81641,-1.13281c0.36458,-0.16146 0.83854,-0.24219 1.42187,-0.24219c0.22917,0 0.48047,0.01823 0.75391,0.0547v-1.00781h-2.76953v-0.73438h2.76953v-0.92968h-2.9375v-0.74219h2.9375zM368.00487,192.50645c-0.3099,-0.06507 -0.60678,-0.0976 -0.89063,-0.0976c-0.34635,0 -0.6276,0.05078 -0.84375,0.15234c-0.25781,0.1224 -0.38672,0.29688 -0.38672,0.52344c0,0.19011 0.10026,0.34375 0.30079,0.46094c0.20312,0.11979 0.47395,0.17968 0.8125,0.17968c0.40104,0 0.67708,-0.10677 0.82812,-0.32031c0.11979,-0.16667 0.17969,-0.41536 0.17969,-0.74609zM376.29784,187.35802h0.8789v1.07812h2.30469v0.75391h-2.30469v1.67187c0.09115,0.32031 0.13672,0.60547 0.13672,0.85547c0,0.92709 -0.20443,1.60808 -0.61328,2.04297c-0.44531,0.47656 -1.11589,0.80599 -2.01172,0.98828l-0.44531,-0.66406c0.69531,-0.13281 1.21094,-0.32031 1.54687,-0.5625c0.31511,-0.22917 0.52735,-0.54036 0.63672,-0.93359c-0.27865,0.30469 -0.61068,0.45703 -0.99609,0.45703c-0.43229,0 -0.78255,-0.1224 -1.05078,-0.36719c-0.31511,-0.28906 -0.47266,-0.70833 -0.47266,-1.25781c0,-0.28907 0.06901,-0.56771 0.20703,-0.83594c0.09115,-0.17187 0.20313,-0.3151 0.33594,-0.42969c0.30729,-0.26041 0.67578,-0.39062 1.10547,-0.39062c0.27344,0 0.52084,0.0651 0.74219,0.19531v-0.76953h-3.85547v-0.75391h3.85547zM376.32904,191.4127v-0.14453c0,-0.16667 -0.03906,-0.3138 -0.11719,-0.4414c-0.14583,-0.23959 -0.35677,-0.35938 -0.63281,-0.35938c-0.14063,0 -0.27214,0.03906 -0.39453,0.11719c-0.28646,0.17969 -0.42969,0.45573 -0.42969,0.82812c0,0.23438 0.05208,0.4323 0.15625,0.59375c0.14583,0.22396 0.36068,0.33594 0.64453,0.33594c0.25781,0 0.46224,-0.11588 0.61328,-0.34765c0.10677,-0.16407 0.16016,-0.35808 0.16016,-0.58204z"/><path d="M249.7197,205.5994c-0.47656,-0.42969 -0.86718,-0.95443 -1.17187,-1.57422c-0.375,-0.76302 -0.5625,-1.50651 -0.5625,-2.23046c0,-0.82031 0.23568,-1.65495 0.70703,-2.50391c0.28646,-0.51302 0.62891,-0.94401 1.02734,-1.29297h0.76172c-0.34896,0.40104 -0.63021,0.77083 -0.84375,1.10938c-0.54167,0.86458 -0.8125,1.76302 -0.8125,2.69531c0,0.88021 0.24219,1.72916 0.72656,2.54687c0.22917,0.38542 0.53906,0.80209 0.92969,1.25zM253.00095,199.48612v6.11328h-0.8164v-7.60156h0.8164v1.18359l0.375,-0.3125c0.22657,0.39323 0.40625,0.77214 0.53906,1.13672l-0.53125,0.52735c-0.13802,-0.44011 -0.26562,-0.78907 -0.38281,-1.04688zM256.59861,198.51737h2.02344v0.58594h-2.02344v0.375h1.74609v0.55859h-1.74609v0.38672h2.28125v0.625h-5.26563v-0.625h2.17578v-0.38672h-1.69531v-0.55859h1.69531v-0.375h-1.92578v-0.58594h1.92578v-0.51953h0.8086zM258.22361,201.46268v3.42969c0,0.23959 -0.05729,0.41407 -0.17188,0.52344c-0.11198,0.10677 -0.30339,0.16016 -0.57422,0.16016c-0.32031,0 -0.64973,-0.02213 -0.98828,-0.0664l-0.11328,-0.70313c0.34635,0.04167 0.62109,0.0625 0.82422,0.0625c0.10417,0 0.16667,-0.02603 0.1875,-0.0781c0.013,-0.03127 0.0195,-0.07944 0.0195,-0.14453v-0.50391h-2.39844v1.45703h-0.8164v-4.13672zM255.00876,202.0369v0.45703h2.39844v-0.45703zM255.00876,203.06815v0.48047h2.39844v-0.48047zM251.07908,202.07597c0.11719,-0.54167 0.20182,-1.24219 0.2539,-2.10157l0.0195,-0.32031l0.66407,0.0625c-0.03127,1.11459 -0.12241,2.01953 -0.27344,2.71484zM260.80955,198.81425v-0.81641h0.8164v0.81641h1.21485v0.6875h-1.21485v0.67187h1.38281v0.69531h-0.46484c-0.08333,0.3099 -0.19531,0.63803 -0.33594,0.98438h0.75391v0.67969h-1.33594v0.72265h1.28516v0.69532h-1.28516v1.64843h-0.8164v-1.64843h-1.37891v-0.69532h1.37891v-0.72265h-1.44141v-0.67969h0.71875c-0.08333,-0.34635 -0.1849,-0.67448 -0.30469,-0.98438h-0.57422v-0.69531h1.60157v-0.67187h-1.27344v-0.6875zM261.7822,200.86893h-1.24219c0.08855,0.2474 0.1836,0.57553 0.28516,0.98438h0.64844c0.13541,-0.33333 0.23828,-0.66146 0.30859,-0.98438zM266.52048,198.27909v1.82813c0,0.22656 -0.04167,0.38671 -0.125,0.48046c-0.09895,0.11198 -0.30598,0.16797 -0.62109,0.16797c-0.30729,0 -0.61459,-0.01303 -0.92188,-0.0391l-0.13281,-0.70312c0.43229,0.04687 0.70703,0.0703 0.82422,0.0703c0.12239,0 0.18359,-0.05339 0.18359,-0.16016v-0.9414h-1.71093v2.26953h2.21484l0.46484,0.39843c-0.14062,0.82813 -0.39713,1.56771 -0.76953,2.21875l-0.043,0.0781c0.28646,0.33073 0.64453,0.63281 1.07422,0.90625l-0.4375,0.73047c-0.41145,-0.26563 -0.77864,-0.58334 -1.10156,-0.95313c-0.27865,0.35417 -0.59245,0.6875 -0.94141,1l-0.46093,-0.64062v0.60937h-0.79297v-7.32031zM264.01658,201.95487v2.95313c0.32031,-0.21875 0.62891,-0.52605 0.92578,-0.92188c-0.39844,-0.61458 -0.67839,-1.29166 -0.83985,-2.03125zM265.37595,203.29472c0.23177,-0.44792 0.38282,-0.89454 0.45313,-1.33985h-1.00782c0.12761,0.5 0.3125,0.94662 0.55469,1.33985zM272.43845,201.50956v2.78516c0,0.15364 0.04557,0.24348 0.13672,0.26953c0.07813,0.0234 0.25391,0.0351 0.52734,0.0351c0.29948,0 0.48438,-0.01303 0.55469,-0.0391c0.09896,-0.03647 0.16016,-0.14063 0.1836,-0.3125c0.03387,-0.22396 0.0625,-0.59245 0.0859,-1.10547l0.88282,0.29688c-0.01827,0.58593 -0.05733,1.02343 -0.11719,1.3125c-0.06513,0.32812 -0.24222,0.52994 -0.53125,0.60547c-0.21094,0.05467 -0.61328,0.082 -1.20703,0.082c-0.59635,0 -0.98047,-0.05208 -1.15235,-0.15625c-0.16667,-0.10157 -0.25,-0.30599 -0.25,-0.61328v-3.16016h-1.22656c-0.02347,1.19271 -0.21878,2.09375 -0.58594,2.70312c-0.24739,0.40365 -0.60156,0.73177 -1.0625,0.98438c-0.23177,0.12761 -0.54296,0.26433 -0.93359,0.41016l-0.55078,-0.72266c0.6276,-0.20573 1.08463,-0.43489 1.37109,-0.6875c0.37761,-0.33073 0.62631,-0.81901 0.7461,-1.46484c0.05987,-0.3099 0.09632,-0.71745 0.10937,-1.22266h-2.12891v-0.79297h7.51172v0.79297zM267.96189,198.45487h6.16797v0.78516h-6.16797zM279.43455,204.4119c1.52864,-0.38541 2.29296,-1.26171 2.29296,-2.6289c0,-0.59635 -0.15364,-1.10938 -0.46093,-1.53907c-0.34375,-0.48437 -0.86719,-0.79557 -1.57032,-0.93359c-0.15364,1.20833 -0.36327,2.19792 -0.6289,2.96875c-0.18229,0.53906 -0.40886,1.04817 -0.67969,1.52734c-0.39063,0.68229 -0.83464,1.02344 -1.33203,1.02344c-0.36979,0 -0.69922,-0.16667 -0.98828,-0.5c-0.1849,-0.21093 -0.33464,-0.47005 -0.44922,-0.77734c-0.15104,-0.39844 -0.22656,-0.82683 -0.22656,-1.28516c0,-0.74219 0.20443,-1.42578 0.61328,-2.05078c0.41406,-0.63802 0.95182,-1.10156 1.61328,-1.39062c0.48177,-0.21094 1.01042,-0.31641 1.58594,-0.31641c0.89843,0 1.66145,0.24089 2.28906,0.72266c0.77083,0.59114 1.15625,1.42838 1.15625,2.51171c0,1.81511 -0.91797,2.96615 -2.75391,3.45313zM278.84861,199.27909c-0.46094,0.05207 -0.84636,0.17576 -1.15625,0.37109c-0.19792,0.12761 -0.39454,0.29688 -0.58985,0.50782c-0.54167,0.59895 -0.8125,1.29296 -0.8125,2.08203c0,0.57552 0.11458,1.02604 0.34375,1.35156c0.14063,0.20052 0.27995,0.30078 0.41797,0.30078c0.1875,0 0.39844,-0.20703 0.63282,-0.62109c0.57291,-1.00781 0.96093,-2.33854 1.16406,-3.99219zM284.91892,202.34159c-0.00533,0.013 -0.01313,0.02993 -0.0234,0.0508c-0.29167,0.6875 -0.67838,1.31901 -1.16015,1.89453l-0.51953,-0.80078c0.72395,-0.72917 1.24999,-1.55078 1.57812,-2.46484h-1.45312v-0.74219h1.57812v-1.03125c-0.33333,0.06771 -0.70964,0.1263 -1.12891,0.17578l-0.35937,-0.6875c1.15365,-0.14323 2.19922,-0.3776 3.13672,-0.70312l0.46484,0.66406c-0.36198,0.125 -0.78646,0.2487 -1.27344,0.37109v1.21094h1.48047v0.74219h-1.48047v0.58594c0.50261,0.28645 0.9987,0.66536 1.48829,1.13671l-0.48829,0.73438c-0.26823,-0.30989 -0.60156,-0.64713 -1,-1.01172v3.13281h-0.83984zM287.69626,198.89237h0.81641v4.625h-0.81641zM289.5283,198.158h0.83203v6.49609c0,0.28125 -0.05599,0.48568 -0.16797,0.61328c-0.13021,0.15104 -0.38542,0.22656 -0.76563,0.22656c-0.46093,0 -0.90234,-0.02343 -1.32422,-0.0703l-0.15625,-0.88281c0.42969,0.07552 0.87891,0.11328 1.34766,0.11328c0.11459,0 0.1849,-0.04036 0.21094,-0.12109c0.0156,-0.04427 0.0234,-0.10547 0.0234,-0.1836zM298.20798,198.40409v6.24609c0,0.26563 -0.04818,0.45834 -0.14453,0.57813c-0.11979,0.14844 -0.36198,0.22266 -0.72656,0.22266c-0.40625,0 -0.76693,-0.01563 -1.08203,-0.0469l-0.15235,-0.83984c0.41407,0.05207 0.75652,0.0781 1.02735,0.0781c0.10937,0 0.17448,-0.02473 0.19531,-0.0742c0.013,-0.03387 0.0195,-0.08334 0.0195,-0.14843v-1.54297h-1.91406v2.35937h-0.83984v-2.35937h-1.83204c-0.0234,0.54167 -0.07548,0.99088 -0.15625,1.34765c-0.11458,0.48698 -0.32942,0.94662 -0.64453,1.37891l-0.73437,-0.60547c0.30208,-0.40104 0.5013,-0.88672 0.59765,-1.45703c0.05467,-0.33073 0.082,-0.70312 0.082,-1.11719v-4.01953zM292.76658,199.158v1.1289h1.82422v-1.1289zM292.76658,200.99784v1.16016h1.82422v-1.16016zM297.3447,202.158v-1.16016h-1.91406v1.16016zM297.3447,200.2869v-1.1289h-1.91406v1.1289zM303.43845,203.13065v2.46875h-0.84765v-2.36718c-0.74219,0.89843 -1.69923,1.59895 -2.8711,2.10156l-0.51172,-0.70313c1.13021,-0.41667 2.05209,-0.97786 2.76563,-1.68359h-2.73438v-0.71875h3.35157v-0.82422h0.84765v0.82422h3.39063v0.71875h-2.69141c0.72396,0.58594 1.64844,1.08594 2.77344,1.5l-0.52735,0.75c-1.23958,-0.54687 -2.22135,-1.23568 -2.94531,-2.06641zM303.84861,200.36503c0.625,0.28385 1.60677,0.5625 2.94531,0.83594l-0.40234,0.71093c-0.93229,-0.18489 -1.83594,-0.45703 -2.71094,-0.8164c-0.27083,-0.11198 -0.46484,-0.20182 -0.58203,-0.26953c-1.04687,0.5625 -2.17057,0.93489 -3.3711,1.11718l-0.375,-0.64843c1.24479,-0.1875 2.25912,-0.47396 3.04297,-0.85938l0.043,-0.0195c-0.34896,-0.24739 -0.69792,-0.52734 -1.04687,-0.83984c-0.02347,0.0156 -0.0508,0.03513 -0.082,0.0586c-0.30469,0.20573 -0.6823,0.39974 -1.13282,0.58203l-0.51953,-0.5625c0.66146,-0.25 1.2474,-0.59115 1.75781,-1.02344c0.25261,-0.21093 0.46615,-0.43749 0.64063,-0.67968l0.83984,0.12109c-0.125,0.17448 -0.21484,0.29688 -0.26953,0.36719h2.56641l0.41406,0.35156c-0.50781,0.60156 -1.09375,1.1263 -1.75781,1.57422zM303.14939,200.00175c0.47917,-0.3099 0.86719,-0.61459 1.16406,-0.91407h-2.30469l-0.0586,0.0547c0.31511,0.29167 0.71485,0.57813 1.19922,0.85938zM311.66501,200.29862h-1.16796c-0.16927,0.47657 -0.3724,0.90365 -0.60938,1.28125l-0.67187,-0.51172c0.45833,-0.80729 0.77083,-1.70833 0.9375,-2.70312l0.77734,0.16797c-0.05727,0.38802 -0.12498,0.72916 -0.20313,1.02343h0.9375v-1.55859h0.8711v1.55859h1.83203v0.74219h-1.83203v1.71485h2.32031v0.77734h-2.32031v2.80859h-0.8711v-2.80859h-2.33593v-0.77734h2.33593zM309.04001,199.86893v5.73047h-0.84765v-4.04687c-0.21094,0.34375 -0.43229,0.67187 -0.66406,0.98437l-0.39063,-0.875c0.46615,-0.625 0.85807,-1.35807 1.17578,-2.19922c0.16407,-0.42708 0.33985,-0.95442 0.52735,-1.58203l0.82421,0.21485c-0.18229,0.60937 -0.39062,1.20052 -0.625,1.77343zM318.62205,199.64628v-0.59375h-3.14844v-0.71875h7.14453v0.71875h-3.16406v0.59375h2.73828v3.16797h-2.75781c-0.00267,0.0182 -0.004,0.03643 -0.004,0.0547c-0.02867,0.45833 -0.14585,0.86328 -0.35156,1.21485c1.01041,0.35417 2.26432,0.59766 3.76172,0.73047l-0.48047,0.76172c-1.45573,-0.16927 -2.71355,-0.46875 -3.77344,-0.89844c-0.30209,0.26302 -0.69141,0.47526 -1.16797,0.63672c-0.42708,0.14583 -0.98047,0.26172 -1.66016,0.34765l-0.42187,-0.74218c1.05208,-0.07813 1.86328,-0.27735 2.43359,-0.59766c-0.55989,-0.27604 -1.07812,-0.59765 -1.55468,-0.96484l0.57421,-0.48829c0.4974,0.38542 1.00652,0.69141 1.52735,0.91797c0.15104,-0.25781 0.24739,-0.58203 0.28906,-0.97265h-2.71875v-3.16797zM318.62205,200.27128h-1.89454v0.6289h1.89454zM319.45408,200.27128v0.6289h1.89843v-0.6289zM318.62205,201.50175h-1.89454v0.67968h1.89454zM319.45408,201.50175v0.67968h1.89843v-0.67968zM325.66501,202.908c0.37761,0.20573 0.79558,0.49479 1.25391,0.86718l-0.44531,0.72657c-0.29427,-0.33073 -0.56381,-0.60287 -0.8086,-0.81641v1.91406h-0.80078v-2.08593c-0.35156,0.64583 -0.76953,1.1862 -1.2539,1.62109l-0.45703,-0.73828c0.58073,-0.41146 1.0638,-0.92318 1.44921,-1.53516h-1.23437v-0.6875h1.49609v-0.76172h-1.64843v-0.71875h0.85546c-0.06771,-0.33073 -0.16276,-0.6914 -0.28515,-1.08203h-0.41797v-0.72656h1.48047v-0.88672h0.83203v0.88672h1.41797v0.72656h-0.41797c-0.09635,0.39063 -0.21615,0.7513 -0.35938,1.08203h0.89454v0.71875h-1.55079v0.76172h1.40625v0.6875h-1.40625zM324.56345,199.61112c0.09896,0.32552 0.1849,0.6862 0.25781,1.08203h0.77344c0.11979,-0.33593 0.22266,-0.69661 0.3086,-1.08203zM328.23923,201.50956c0.00267,0.80729 -0.05983,1.55599 -0.1875,2.24609c-0.13281,0.71615 -0.36849,1.35677 -0.70703,1.92188l-0.64453,-0.58985c0.28906,-0.46875 0.48698,-1.04427 0.59375,-1.72656c0.09375,-0.58333 0.14063,-1.32812 0.14063,-2.23437v-2.44922c0.05207,-0.00533 0.13149,-0.01313 0.23828,-0.0234c0.82812,-0.07813 1.65755,-0.25651 2.48828,-0.53516l0.51172,0.67969c-0.69271,0.23437 -1.50261,0.41536 -2.42969,0.54297v1.35156h2.62109v0.81641h-0.89453v4.08984h-0.80859v-4.08984zM331.93455,205.26347c-0.09896,-0.88542 -0.14844,-1.76563 -0.14844,-2.64063c0,-1.5 0.11068,-2.92448 0.33203,-4.27344l0.85937,0.0899c-0.21093,1.16667 -0.3164,2.48307 -0.3164,3.94922c0,0.98437 0.05469,1.90494 0.16406,2.76171zM334.2783,199.07597h3.7539v0.83203h-3.7539zM338.29783,204.783c-0.52083,0.08073 -1.13932,0.12109 -1.85547,0.12109c-1.79948,0 -2.69922,-0.52865 -2.69922,-1.58594c0,-0.41927 0.11198,-0.78515 0.33594,-1.09765l0.73828,0.32812c-0.14063,0.19792 -0.21094,0.42058 -0.21094,0.66797c0,0.30469 0.15234,0.51432 0.45703,0.62891c0.33854,0.13021 0.80078,0.19531 1.38672,0.19531c0.63281,0 1.21875,-0.04167 1.75781,-0.125zM342.47361,198.17362h0.85547v1.51953h2.57422v0.77735h-2.57422v2.09765c0.92708,0.34115 1.85677,0.82552 2.78906,1.45313l-0.47266,0.8164c-0.78906,-0.59114 -1.56119,-1.06249 -2.3164,-1.41406c-0.01827,0.69011 -0.19926,1.17839 -0.54297,1.46485c-0.29427,0.24219 -0.72006,0.36328 -1.27735,0.36328c-0.47656,0 -0.8776,-0.08594 -1.20312,-0.25782c-0.52344,-0.27604 -0.78516,-0.67708 -0.78516,-1.20312c0,-0.54167 0.28125,-0.94531 0.84375,-1.21094c0.375,-0.17708 0.86458,-0.26562 1.46875,-0.26562c0.19011,0 0.40365,0.01433 0.64063,0.043zM342.47361,203.13456c-0.27604,-0.05987 -0.54167,-0.0898 -0.79688,-0.0898c-0.34375,0 -0.6289,0.05338 -0.85547,0.16015c-0.28125,0.12761 -0.42187,0.30599 -0.42187,0.53516c0,0.23437 0.10937,0.42187 0.32812,0.5625c0.19792,0.1276 0.44922,0.1914 0.75391,0.1914c0.46354,0 0.75911,-0.15495 0.88672,-0.46484c0.07031,-0.17187 0.10547,-0.42708 0.10547,-0.76562zM347.31345,200.63065l0.27735,-0.043c1.71093,-0.26041 2.82552,-0.39062 3.34375,-0.39062c0.73697,0 1.30077,0.1888 1.6914,0.56641c0.38802,0.38021 0.58203,0.91406 0.58203,1.60156c0,0.48698 -0.14193,0.92839 -0.42578,1.32422c-0.34896,0.48698 -0.94662,0.84505 -1.79297,1.07422c-0.51041,0.13802 -1.1276,0.23698 -1.85156,0.29687l-0.26562,-0.78125c1.22135,-0.09896 2.07161,-0.27214 2.55078,-0.51953c0.27865,-0.14323 0.5026,-0.33333 0.67187,-0.57031c0.1875,-0.26302 0.28125,-0.5612 0.28125,-0.89453c0,-0.45573 -0.11849,-0.79428 -0.35547,-1.01563c-0.11979,-0.11458 -0.24609,-0.19531 -0.3789,-0.24219c-0.16407,-0.05727 -0.39063,-0.0859 -0.67969,-0.0859c-0.57031,0 -1.72787,0.15364 -3.47266,0.46093zM354.45798,198.94706c2.39583,-0.03647 4.66016,-0.09766 6.79297,-0.18359l0.0469,0.77734c-0.94011,0.04687 -1.67188,0.1901 -2.19532,0.42969c-0.5,0.22917 -0.90104,0.54687 -1.20312,0.95312c-0.34375,0.46094 -0.51563,0.97396 -0.51563,1.53906c0,0.5625 0.19531,0.98438 0.58594,1.26563c0.44792,0.32031 1.13542,0.54037 2.0625,0.66016l-0.18359,0.8789c-1.20833,-0.16146 -2.05859,-0.47396 -2.55078,-0.9375c-0.52865,-0.49479 -0.79297,-1.10938 -0.79297,-1.84375c0,-0.66667 0.23958,-1.28906 0.71875,-1.86719c0.34896,-0.42447 0.82682,-0.76562 1.43359,-1.02343c-1.07552,0.03647 -2.46224,0.09766 -4.16015,0.18359zM367.05173,198.2869h0.85547v1.41407h1.59375v0.77734h-1.59375v2.39844c0.61719,0.28385 1.22786,0.68229 1.83203,1.19531l-0.4375,0.77344c-0.51041,-0.44531 -0.97786,-0.79948 -1.40234,-1.0625c-0.04687,0.63802 -0.27343,1.0651 -0.67969,1.28125c-0.22656,0.11979 -0.53646,0.17968 -0.92969,0.17968c-0.42708,0 -0.79817,-0.07682 -1.11328,-0.23046c-0.47656,-0.23177 -0.71484,-0.61719 -0.71484,-1.15625c0,-0.42448 0.18099,-0.76172 0.54297,-1.01172c0.33073,-0.22917 0.75521,-0.34375 1.27344,-0.34375c0.23697,0 0.49478,0.02993 0.77343,0.0898v-2.11328h-2.51172v-0.77734h2.51172zM367.05173,203.3494c-0.30469,-0.09635 -0.57552,-0.14453 -0.8125,-0.14453c-0.22656,0 -0.41927,0.03516 -0.57812,0.10547c-0.25,0.10677 -0.375,0.28125 -0.375,0.52344c0,0.19791 0.09115,0.35286 0.27344,0.46484c0.17708,0.10937 0.41406,0.16406 0.71093,0.16406c0.52083,0 0.78125,-0.29297 0.78125,-0.8789zM362.80955,205.22831c-0.09115,-0.85937 -0.13672,-1.76302 -0.13672,-2.71094c0,-1.47917 0.09896,-2.88932 0.29687,-4.23047l0.85938,0.125c-0.19531,1.15625 -0.29297,2.40625 -0.29297,3.75c0,0.98698 0.04948,1.96485 0.14844,2.9336z"/><path d="M253.7666,210.3096v1.22266h1.03125v0.71093h-1.03125v1.25h0.77734v0.71094h-7.08984v-0.71094h0.96093v-1.25h-1.21484v-0.71093h1.21484v-1.23438c-0.16406,0.19011 -0.375,0.38802 -0.63281,0.59375l-0.57422,-0.48437c0.57292,-0.45053 1.03125,-0.9974 1.375,-1.64063l0.85938,0.17578c-0.14583,0.25 -0.28385,0.46875 -0.41406,0.65625h5.3125v0.71094zM253.00488,210.3096h-0.82031v1.22266h0.82031zM251.458,210.3096h-0.77734v1.22266h0.77734zM249.9541,210.3096h-0.78516v1.22266h0.78516zM253.00488,212.24319h-0.82031v1.25h0.82031zM251.458,212.24319h-0.77734v1.25h0.77734zM249.9541,212.24319h-0.78516v1.25h0.78516zM247.29785,215.95022c0.41406,-0.47656 0.72526,-0.98828 0.93359,-1.53515l0.76953,0.30078c-0.23698,0.66927 -0.54948,1.2487 -0.9375,1.73828zM249.87988,216.41507c-0.06771,-0.56771 -0.17448,-1.13672 -0.32031,-1.70703l0.8164,-0.16016c0.19531,0.53646 0.33985,1.10287 0.4336,1.69922zM251.74316,216.29397c-0.14583,-0.58073 -0.33984,-1.1276 -0.58203,-1.64062l0.78125,-0.22266c0.28385,0.50261 0.50521,1.04037 0.66406,1.61328zM253.94238,216.32517c-0.20833,-0.53385 -0.51953,-1.09375 -0.9336,-1.67968l0.77735,-0.28907c0.38281,0.46615 0.71224,0.98177 0.98828,1.54688zM260.333,210.43846l0.0352,-1.64063h0.78516l-0.0274,1.64063h1.54688c-0.03907,2.72656 -0.13282,4.42708 -0.28125,5.10156c-0.06247,0.28385 -0.16533,0.48307 -0.3086,0.59765c-0.14062,0.10938 -0.36588,0.16407 -0.67578,0.16407c-0.29948,0 -0.58464,-0.01563 -0.85547,-0.0469l-0.16015,-0.80859c0.30729,0.04167 0.58463,0.0625 0.83203,0.0625c0.16667,0 0.27734,-0.04688 0.33203,-0.14063c0.15365,-0.26562 0.26042,-1.64973 0.32031,-4.15234h-0.80469c-0.07031,1.17708 -0.24739,2.14583 -0.53125,2.90625c-0.33593,0.90104 -0.79817,1.65755 -1.38671,2.26953l-0.5586,-0.60937c0.57813,-0.56771 0.9987,-1.28256 1.26172,-2.14454c0.21875,-0.70833 0.36459,-1.51562 0.4375,-2.42187h-1.03516v-0.58984h-4.04296v-0.74219h1.77734v-1.08594h0.83203v1.08594h1.58203v0.55469zM257.10644,214.11814c-0.32552,-0.36979 -0.67187,-0.71874 -1.03906,-1.04687l0.51953,-0.54688c0.25781,0.22135 0.57422,0.51823 0.94922,0.89063c0.20052,-0.35937 0.375,-0.72786 0.52344,-1.10547l0.71875,0.35156c-0.14844,0.38542 -0.3711,0.84245 -0.66797,1.3711c0.29167,0.32812 0.54948,0.63932 0.77343,0.93359l-0.60937,0.64844c-0.22656,-0.32813 -0.4375,-0.61328 -0.63281,-0.85547c-0.46615,0.65885 -1.01302,1.19661 -1.64063,1.61328l-0.63281,-0.66406c0.69791,-0.38542 1.27734,-0.91537 1.73828,-1.58985zM255.12207,212.45408c0.5026,-0.37761 0.93229,-0.92448 1.28906,-1.64062l0.67969,0.35937c-0.35677,0.75521 -0.82422,1.36849 -1.40235,1.83984zM258.97753,212.70799c-0.35156,-0.51302 -0.77864,-1.02995 -1.28125,-1.55078l0.60157,-0.42188c0.49219,0.45833 0.89974,0.92448 1.22265,1.39844zM265.48925,210.57127v5.7539h-0.89453v-4.27343c-0.32813,0.46615 -0.66927,0.88021 -1.02344,1.24218l-0.44921,-0.85546c0.96875,-1.00521 1.70442,-2.24089 2.20703,-3.70704l0.87109,0.22657c-0.20833,0.5625 -0.44531,1.10026 -0.71094,1.61328zM267.68847,211.41892c0.8125,-0.38281 1.52474,-0.80077 2.13672,-1.2539l0.67188,0.64062c-0.91407,0.60157 -1.85027,1.08464 -2.8086,1.44922v2.69531c0,0.16146 0.08203,0.25782 0.2461,0.28907c0.11979,0.02347 0.33723,0.0352 0.65234,0.0352c0.32291,0 0.60026,-0.01303 0.83203,-0.0391c0.1875,-0.0182 0.29688,-0.10544 0.32813,-0.26172c0.06507,-0.32031 0.10413,-0.75521 0.11718,-1.30469l0.89453,0.27344c-0.0234,0.70052 -0.07027,1.1901 -0.14062,1.46875c-0.08073,0.32031 -0.25521,0.52344 -0.52344,0.60938c-0.27604,0.09115 -0.71224,0.13672 -1.30859,0.13672c-0.9349,0 -1.50391,-0.06641 -1.70703,-0.19922c-0.17969,-0.11719 -0.26953,-0.34635 -0.26953,-0.6875v-6.30469h0.8789zM275.25488,208.95799h0.8789v1.07812h2.30469v0.75391h-2.30469v1.67187c0.09115,0.32031 0.13672,0.60547 0.13672,0.85547c0,0.92709 -0.20443,1.60808 -0.61328,2.04297c-0.44531,0.47656 -1.11589,0.80599 -2.01172,0.98828l-0.44531,-0.66406c0.69531,-0.13281 1.21094,-0.32031 1.54688,-0.5625c0.3151,-0.22917 0.52734,-0.54036 0.63671,-0.93359c-0.27864,0.30469 -0.61067,0.45703 -0.99609,0.45703c-0.43229,0 -0.78255,-0.1224 -1.05078,-0.36719c-0.31511,-0.28906 -0.47266,-0.70833 -0.47266,-1.25781c0,-0.28907 0.06901,-0.56771 0.20703,-0.83594c0.09115,-0.17187 0.20313,-0.3151 0.33594,-0.42969c0.30729,-0.26041 0.67578,-0.39062 1.10547,-0.39062c0.27344,0 0.52084,0.0651 0.74219,0.19531v-0.76953h-3.85547v-0.75391h3.85547zM275.28608,213.01267v-0.14453c0,-0.16667 -0.03906,-0.3138 -0.11719,-0.4414c-0.14583,-0.23959 -0.35677,-0.35938 -0.63281,-0.35938c-0.14063,0 -0.27214,0.03906 -0.39453,0.11719c-0.28646,0.17969 -0.42969,0.45573 -0.42969,0.82812c0,0.23438 0.05208,0.4323 0.15625,0.59375c0.14583,0.22396 0.36068,0.33594 0.64453,0.33594c0.25781,0 0.46224,-0.11588 0.61328,-0.34765c0.10677,-0.16407 0.16016,-0.35808 0.16016,-0.58204zM280.08295,209.23142h4.38282l0.41796,0.64844c-1.35417,0.82813 -2.52734,1.58073 -3.51953,2.25781c0.64063,-0.26823 1.28386,-0.40234 1.92969,-0.40234c0.58073,0 1.0651,0.09245 1.45313,0.27734c0.35937,0.17188 0.63932,0.40626 0.83984,0.70313c0.20833,0.31511 0.3125,0.67709 0.3125,1.08594c0,0.57291 -0.19531,1.05208 -0.58594,1.4375c-0.26823,0.26823 -0.61198,0.47135 -1.03125,0.60937c-0.54948,0.17969 -1.15104,0.26953 -1.80469,0.26953c-0.7526,0 -1.30729,-0.13932 -1.66406,-0.41797c-0.27865,-0.21875 -0.41797,-0.51432 -0.41797,-0.88671c0,-0.28125 0.10156,-0.53125 0.30469,-0.75c0.30729,-0.33073 0.72266,-0.4961 1.24609,-0.4961c0.55469,0 0.99871,0.1862 1.33204,0.5586c0.24219,0.27083 0.41666,0.63411 0.52343,1.08984c0.80209,-0.25521 1.20313,-0.72656 1.20313,-1.41406c0,-0.52083 -0.21745,-0.90495 -0.65235,-1.15235c-0.29167,-0.16667 -0.66146,-0.25 -1.10937,-0.25c-0.66927,0 -1.27344,0.09245 -1.8125,0.27735c-0.39844,0.13541 -0.9336,0.46224 -1.60547,0.98047l-0.55078,-0.66407c0.72396,-0.625 1.54818,-1.25911 2.47266,-1.90234c0.63802,-0.44271 1.20052,-0.80599 1.6875,-1.08984h-3.35157zM283.04389,215.36814c-0.18489,-0.73698 -0.54817,-1.10547 -1.08984,-1.10547c-0.29948,0 -0.51563,0.09505 -0.64844,0.28516c-0.06247,0.08594 -0.0937,0.17839 -0.0937,0.27734c0,0.20573 0.14583,0.36068 0.4375,0.46485c0.21094,0.07291 0.49349,0.10937 0.84766,0.10937c0.15104,0 0.33333,-0.0104 0.54687,-0.0312zM293.38764,210.06346v5.42187c0,0.34115 -0.11068,0.56641 -0.33203,0.67578c-0.14583,0.07292 -0.39714,0.10938 -0.75391,0.10938c-0.39323,0 -0.86588,-0.01823 -1.41797,-0.0547l-0.1914,-0.86328c0.54948,0.04167 1.03516,0.0625 1.45703,0.0625c0.16406,0 0.26172,-0.01303 0.29297,-0.0391c0.03387,-0.03127 0.0508,-0.112 0.0508,-0.24219v-5.07031h-5.69141v-0.78516h7.60157v0.78516zM291.4267,211.14939v2.98438h-2.82422v0.64062h-0.86328v-3.625zM288.60248,211.87596v1.51562h1.98438v-1.51562zM295.38373,210.58299c0.32553,-0.57031 0.59766,-1.17578 0.81641,-1.81641l0.87891,0.18359c-0.25261,0.58855 -0.53256,1.12501 -0.83985,1.60938c0.15885,-0.0078 0.40365,-0.01953 0.73438,-0.0352c0.02867,0 0.22658,-0.01173 0.59375,-0.0352l-0.0234,-0.0391c-0.11719,-0.20052 -0.2526,-0.41276 -0.40625,-0.63671l0.66406,-0.32813c0.45573,0.59115 0.81511,1.15625 1.07813,1.69531l-0.75,0.41016c-0.06771,-0.14583 -0.14583,-0.3099 -0.23438,-0.49219c-0.82291,0.10157 -1.82812,0.17969 -3.01562,0.23438l-0.19922,-0.73438c0.10156,0 0.33593,-0.0052 0.70312,-0.0156zM298.32123,211.82127v3.82422c0,0.26823 -0.0638,0.45312 -0.1914,0.55468c-0.11459,0.09115 -0.3112,0.13672 -0.58985,0.13672c-0.28645,0 -0.54817,-0.01693 -0.78515,-0.0508l-0.12891,-0.73828c0.32292,0.03907 0.5599,0.0586 0.71094,0.0586c0.09635,0 0.15364,-0.01953 0.17187,-0.0586c0.013,-0.03127 0.0195,-0.07944 0.0195,-0.14453v-0.71094h-1.52735v1.70703h-0.80859v-4.57812zM296.00092,212.46189v0.51172h1.52735v-0.51172zM296.00092,213.55955v0.54687h1.52735v-0.54687zM299.80952,209.98142c0.60677,-0.22135 1.18489,-0.49349 1.73437,-0.8164l0.58594,0.59375c-0.78907,0.41667 -1.5625,0.72917 -2.32031,0.9375v0.66015c0,0.13021 0.03776,0.20704 0.11328,0.23047c0.10417,0.03387 0.36068,0.0508 0.76953,0.0508c0.35156,0 0.57031,-0.03906 0.65625,-0.11718c0.06771,-0.06247 0.11198,-0.29814 0.13281,-0.70703c0.00267,-0.07813 0.00533,-0.13933 0.008,-0.1836l0.82422,0.19922c-0.0208,0.70313 -0.10023,1.13151 -0.23828,1.28516c-0.08854,0.09895 -0.23568,0.16796 -0.44141,0.20703c-0.26302,0.05207 -0.64713,0.0781 -1.15234,0.0781c-0.63281,0 -1.04557,-0.04687 -1.23828,-0.14062c-0.18229,-0.09115 -0.27344,-0.28776 -0.27344,-0.58985v-2.87109h0.83985zM299.80952,213.78611c0.60937,-0.20313 1.23307,-0.48438 1.87109,-0.84375l0.54687,0.64844c-0.84635,0.42448 -1.65234,0.73177 -2.41796,0.92187v0.69922c0,0.16927 0.05469,0.26953 0.16406,0.30078c0.08333,0.02607 0.29818,0.0391 0.64453,0.0391c0.48437,0 0.76041,-0.04167 0.82812,-0.125c0.07292,-0.08855 0.1198,-0.42318 0.14063,-1.00391l0.83203,0.22266c-0.00533,0.77343 -0.12252,1.2552 -0.35156,1.44531c-0.20052,0.16667 -0.70703,0.25 -1.51953,0.25c-0.64323,0 -1.06902,-0.05208 -1.27735,-0.15625c-0.20052,-0.09635 -0.30078,-0.29167 -0.30078,-0.58594v-2.94531h0.83985zM304.57905,210.11424v6.28515h-0.82422v-7.60156h0.82422v1.23047l0.46484,-0.38281c0.21094,0.38802 0.3763,0.76953 0.49609,1.14453l-0.51953,0.47265c-0.17448,-0.53906 -0.32161,-0.92187 -0.4414,-1.14843zM306.53608,210.25486h0.91406v-1.45703h0.82422v1.45703h1.84766v0.76953h-1.84766v1.66016h1.67187v0.76172h-1.67187v1.92578h2.08594v0.76172h-5.125v-0.76172h2.21484v-1.92578h-1.71875v-0.76172h1.71875v-1.66016h-1.14844c-0.16667,0.48698 -0.38542,0.94662 -0.65625,1.37891l-0.59375,-0.53125c0.46355,-0.79948 0.77735,-1.73828 0.94141,-2.81641l0.77734,0.10938c-0.07812,0.43489 -0.15624,0.79817 -0.23437,1.08984zM302.62592,212.84471c0.11459,-0.51823 0.19922,-1.21615 0.25391,-2.09375l0.0195,-0.32032l0.67969,0.0703c-0.02867,1.08593 -0.11981,1.98177 -0.27344,2.6875zM310.96967,210.52439h1.72656c0.07813,-0.40104 0.16537,-0.89974 0.26172,-1.49609l0.0195,-0.11328l0.85547,0.1289c-0.08854,0.55209 -0.17968,1.04558 -0.27343,1.48047h0.47265c0.625,0 1.07292,0.14063 1.34375,0.42188c0.24219,0.2526 0.36328,0.64583 0.36328,1.17969c0,0.89843 -0.09505,1.73828 -0.28515,2.51953c-0.10938,0.44271 -0.24219,0.76953 -0.39844,0.98047c-0.19792,0.26302 -0.47266,0.39453 -0.82422,0.39453c-0.42187,0 -0.88281,-0.13542 -1.38281,-0.40625l0.0976,-0.82422c0.49479,0.23698 0.87891,0.35547 1.15235,0.35547c0.14323,0 0.2539,-0.07682 0.33203,-0.23047c0.08333,-0.16667 0.16276,-0.40755 0.23828,-0.72266c0.14844,-0.63802 0.22266,-1.30859 0.22266,-2.01172c0,-0.36979 -0.07422,-0.60937 -0.22266,-0.71875c-0.12761,-0.09115 -0.35547,-0.13672 -0.68359,-0.13672h-0.60157c-0.41406,1.84375 -1.00781,3.41667 -1.78125,4.71875l-0.78515,-0.42968c0.79948,-1.34115 1.36979,-2.77084 1.71094,-4.28907h-1.5586zM317.45795,214.37986c-0.29427,-1.08333 -0.75911,-2.14713 -1.39453,-3.1914l0.76172,-0.34375c0.65625,1.04687 1.14714,2.10026 1.47266,3.16015zM316.87983,210.63767c-0.16146,-0.42187 -0.42188,-0.89062 -0.78125,-1.40625l0.60547,-0.22656c0.3151,0.44531 0.57942,0.90755 0.79297,1.38672zM317.93061,210.30174c-0.20313,-0.50261 -0.46224,-0.97526 -0.77734,-1.41797l0.57421,-0.19141c0.29948,0.35677 0.5612,0.80209 0.78516,1.33594zM319.53217,209.91111h1.95313c0.05467,-0.45052 0.09633,-0.77344 0.125,-0.96875l0.86718,0.0898l-0.0117,0.0625l-0.0274,0.20312l-0.0351,0.26172l-0.0352,0.26172l-0.0117,0.0898h3.23047v0.76953h-3.32031c-0.0078,0.08855 -0.02473,0.27735 -0.0508,0.56641l-0.0195,0.25l-0.008,0.0781c0.3125,-0.05207 0.63151,-0.0781 0.95703,-0.0781c0.90105,0 1.61589,0.21094 2.14453,0.63281c0.13803,0.11198 0.26433,0.25261 0.37891,0.42188c0.22917,0.33854 0.34375,0.72786 0.34375,1.16797c0,0.78385 -0.32292,1.38151 -0.96875,1.79296c-0.42187,0.26823 -1.00651,0.47006 -1.75391,0.60547l-0.375,-0.6875c0.6849,-0.11198 1.20834,-0.29036 1.57032,-0.53515c0.43229,-0.29427 0.64843,-0.70052 0.64843,-1.21875c0,-0.33594 -0.09375,-0.63151 -0.28125,-0.88672c-0.10937,-0.15104 -0.25651,-0.27344 -0.4414,-0.36719c-0.64844,1.13021 -1.4987,2.04948 -2.55078,2.75781c-0.33855,0.22917 -0.6224,0.38151 -0.85157,0.45703c-0.22656,0.07292 -0.44791,0.10938 -0.66406,0.10938c-0.39843,0 -0.69791,-0.13281 -0.89844,-0.39844c-0.16667,-0.21875 -0.25,-0.51823 -0.25,-0.89844c0,-0.67447 0.25521,-1.26952 0.76563,-1.78515c0.37761,-0.38281 0.83203,-0.67708 1.36328,-0.88281l0.008,-0.10547c0.03127,-0.44792 0.0573,-0.77995 0.0781,-0.9961h-1.87891zM321.28998,212.57517c-0.36458,0.19531 -0.65625,0.4388 -0.875,0.73047c-0.27864,0.3724 -0.41796,0.74349 -0.41796,1.11328c0,0.41146 0.14844,0.61719 0.44531,0.61719c0.26041,0 0.58073,-0.14062 0.96094,-0.42187c-0.07813,-0.52344 -0.11719,-1.07813 -0.11719,-1.66407c0,-0.08073 0.00133,-0.20573 0.004,-0.375zM322.12983,212.2783c-0.00533,0.16927 -0.008,0.32292 -0.008,0.46094c0,0.44271 0.01953,0.85937 0.0586,1.25c0.63021,-0.58594 1.11198,-1.1849 1.44531,-1.79688c-0.16667,-0.0208 -0.33333,-0.0312 -0.5,-0.0312c-0.34635,0 -0.67838,0.03906 -0.99609,0.11719zM329.82123,212.37986c-0.26041,0.48698 -0.52734,0.85287 -0.80078,1.09766c-0.23437,0.21093 -0.44922,0.3164 -0.64453,0.3164c-0.25,0 -0.45182,-0.16927 -0.60547,-0.50781c-0.15885,-0.35417 -0.23828,-0.90885 -0.23828,-1.66406c0,-0.76042 0.08854,-1.58464 0.26563,-2.47266l0.85547,0.12891c-0.17188,0.88021 -0.25782,1.625 -0.25782,2.23437c0,0.82031 0.05859,1.23047 0.17578,1.23047c0.04427,0 0.11979,-0.0625 0.22657,-0.1875c0.16667,-0.1875 0.34245,-0.46354 0.52734,-0.82812zM329.22748,215.43846c0.79948,-0.22396 1.40235,-0.5586 1.8086,-1.00391c0.49739,-0.54427 0.74609,-1.36719 0.74609,-2.46875c0,-0.83594 -0.08073,-1.77474 -0.24219,-2.81641l0.89454,-0.0859c0.17187,1.05208 0.25781,2.03255 0.25781,2.9414c0,1.47396 -0.37891,2.53516 -1.13672,3.1836c-0.46094,0.39583 -1.08203,0.72396 -1.86328,0.98437zM337.44233,208.98142h0.86328v0.98438h2.45703v0.74219h-2.45703v0.92968h2.32031v0.73438h-2.32031v1.20703c0.92708,0.3125 1.84114,0.78255 2.74219,1.41016l-0.46094,0.74218c-0.68229,-0.51041 -1.44271,-0.96093 -2.28125,-1.35156c-0.0208,0.44531 -0.10674,0.79037 -0.25781,1.03516c-0.26302,0.42448 -0.78125,0.63672 -1.55469,0.63672c-0.59635,0 -1.07552,-0.11198 -1.4375,-0.33594c-0.40365,-0.25 -0.60547,-0.58854 -0.60547,-1.01563c0,-0.51041 0.27214,-0.88802 0.81641,-1.13281c0.36458,-0.16146 0.83854,-0.24219 1.42187,-0.24219c0.22917,0 0.48047,0.01823 0.75391,0.0547v-1.00781h-2.76953v-0.73438h2.76953v-0.92968h-2.9375v-0.74219h2.9375zM337.44233,214.10642c-0.3099,-0.06513 -0.60678,-0.0977 -0.89063,-0.0977c-0.34635,0 -0.6276,0.05078 -0.84375,0.15234c-0.25781,0.1224 -0.38672,0.29688 -0.38672,0.52344c0,0.19011 0.10026,0.34375 0.30079,0.46094c0.20312,0.11979 0.47395,0.17968 0.8125,0.17968c0.40104,0 0.67708,-0.10677 0.82812,-0.32031c0.11979,-0.16667 0.17969,-0.41536 0.17969,-0.74609zM345.7353,208.95799h0.8789v1.07812h2.30469v0.75391h-2.30469v1.67187c0.09115,0.32031 0.13672,0.60547 0.13672,0.85547c0,0.92709 -0.20443,1.60808 -0.61328,2.04297c-0.44531,0.47656 -1.11589,0.80599 -2.01172,0.98828l-0.44531,-0.66406c0.69531,-0.13281 1.21094,-0.32031 1.54687,-0.5625c0.31511,-0.22917 0.52735,-0.54036 0.63672,-0.93359c-0.27865,0.30469 -0.61068,0.45703 -0.99609,0.45703c-0.43229,0 -0.78255,-0.1224 -1.05078,-0.36719c-0.31511,-0.28906 -0.47266,-0.70833 -0.47266,-1.25781c0,-0.28907 0.06901,-0.56771 0.20703,-0.83594c0.09115,-0.17187 0.20313,-0.3151 0.33594,-0.42969c0.30729,-0.26041 0.67578,-0.39062 1.10547,-0.39062c0.27344,0 0.52084,0.0651 0.74219,0.19531v-0.76953h-3.85547v-0.75391h3.85547zM345.7665,213.01267v-0.14453c0,-0.16667 -0.03906,-0.3138 -0.11719,-0.4414c-0.14583,-0.23959 -0.35677,-0.35938 -0.63281,-0.35938c-0.14063,0 -0.27214,0.03906 -0.39453,0.11719c-0.28646,0.17969 -0.42969,0.45573 -0.42969,0.82812c0,0.23438 0.05208,0.4323 0.15625,0.59375c0.14583,0.22396 0.36068,0.33594 0.64453,0.33594c0.25781,0 0.46224,-0.11588 0.61328,-0.34765c0.10677,-0.16407 0.16016,-0.35808 0.16016,-0.58204zM349.80165,216.39939c0.34896,-0.40104 0.63021,-0.77083 0.84375,-1.10937c0.54167,-0.86459 0.8125,-1.76042 0.8125,-2.6875c0,-0.88542 -0.24219,-1.73698 -0.72656,-2.55469c-0.22656,-0.38021 -0.53646,-0.79687 -0.92969,-1.25h0.76172c0.47657,0.43229 0.86719,0.95703 1.17188,1.57422c0.375,0.76302 0.5625,1.50521 0.5625,2.22656c0,0.82292 -0.23698,1.65886 -0.71094,2.50781c-0.28385,0.51042 -0.625,0.94141 -1.02344,1.29297z"/></g></g></g></svg>