<svg version="1.1" xmlns="http://www.w3.org/2000/svg" xmlns:xlink="http://www.w3.org/1999/xlink" width="114.62547" height="60.74762" viewBox="0,0,114.62547,60.74762"><g transform="translate(57.34318,-100.70952)"><g data-paper-data="{&quot;isPaintingLayer&quot;:true}" fill="#ff0000" fill-rule="evenodd" stroke="none" stroke-width="0" stroke-linecap="round" stroke-linejoin="round" stroke-miterlimit="10" stroke-dasharray="" stroke-dashoffset="0" style="mix-blend-mode: normal"><path d="M17.44387,101.0196l-0.39998,1.21995l0.45998,0.79997l-1.11996,1.05996l-0.46998,1.29995l0.82997,0.76997l1.38994,0.33999l0.79997,-0.21999l2.4999,1.12995l0.74997,-0.59998l0.84997,0.46998l1.55994,-0.98996l1.15995,0.48998l0.48998,0.84997l1.94992,1.86993l1.33995,-0.14999l0.55998,0.89996l-0.36999,0.65997l1.29995,1.41994l-0.77997,1.04996l0.25999,0.80997l-0.78997,0.43998l0.69997,0.96996l1.36995,-0.39998l0.59998,0.80997l-0.19999,1.40994l-0.78997,1.32995l-0.03,1.33995l1.09996,0.80997l0.38998,0.95996l-0.15999,0.95996l1.02996,0.37998l1.22995,-0.81997l0.29999,-1.54994l2.86989,-0.22999l0.59998,-0.81997l2.21991,-0.42998l1.10996,-1.19995l1.75993,1.65993l2.04992,-0.60998l1.47994,0.15999l0.88996,-0.26999l1.19995,-1.23995l0.18999,-0.79997l1.37994,-0.40998l1.84993,-1.08996l0.57998,-0.67997l-0.14999,-1.05996l1.64993,-0.75997l1.19995,0.76997l0.11,0.58998l-0.57998,1.63993l-1.44994,0.71997l-0.12,1.87992l0.23999,1.51994l1.59994,0.76997l1.13995,0.08l0.14999,1.13995l-0.63997,1.45994l0.69997,0.86997l-0.61998,1.37994l-0.94996,-0.58998l-1.43994,-0.04l-1.56994,0.67997l-1.09996,2.70989l0.42998,0.53998l-0.83997,1.12995l0.26999,1.42994l-0.53998,1.11996l-1.30995,0.17999l-1.73993,0.64997l0.20999,1.94992l-0.66997,0.80997l0.17999,2.15991l-0.85997,-0.27999l-0.98996,0.28999l-1.61994,1.15995l-0.63997,1.25995l-1.07996,0.80997l0.13999,1.42994l1.31995,0.47998l0.33999,0.53998l-0.45998,1.15995l-0.66997,0.38998l0.59998,0.98996l-0.01,1.51994l-1.69993,1.34995l-0.57998,0.75997l-1.85993,1.04996l0.04,0.95996l-0.95996,0.73997l-0.24999,1.98992l-2.89988,-0.45998v1.17995l0.47998,0.84997l-0.75997,0.48998l-0.56998,-0.85997l-1.44994,-0.16999l-0.60998,2.16991l-1.18995,-0.82997l-1.51994,0.06l-1.42994,-0.39998l0.29999,-2.80989l-0.71997,-0.29999l-0.92996,0.62997l-0.61998,-0.95996l-1.66993,-1.29995l0.32999,-0.86997l-0.50998,-0.73997l-1.34995,0.15999l-0.53998,0.54998l-1.55994,-0.04l-1.80993,-0.85997l-0.84997,-0.80997l-1.03996,1.66993l-0.30999,1.90992l-1.03996,2.33991l0.31999,0.75997l-0.52998,0.65997l-1.95992,0.51998l-0.31999,0.71997l-1.25995,0.74997l-1.67993,0.41998l-1.90992,-0.46998l1.06996,-1.12995l-0.78997,-0.46998l-0.83997,-1.58994l-1.29995,-0.70997l-0.65997,0.62997l-0.83997,-0.97996l1.20995,-1.05996l0.22999,-1.01996l-0.22999,-1.40994l-0.48998,-0.58998l-1.32995,-0.12999l-0.51998,-0.51998l-0.79997,1.03996l-1.09996,0.32999l-0.31999,-0.80997l-1.32995,0.83997l-0.31999,-0.98996h-0.85997l-0.41998,-0.79997l-0.90996,-0.17999l-1.53994,1.57994l-0.83997,0.08l-0.58998,1.27995l-2.6099,-1.00996l-0.36999,-1.77993l-0.73997,-0.03l-0.52998,0.78997l-2.90988,-0.93996l-1.55994,-0.79997l-0.25999,0.72997l-1.48994,0.77997l-0.71997,-0.55998l-0.87996,1.09996l-1.37994,0.57998l-1.00996,-0.29999l0.16999,3.11988l-1.61994,0.69997l-0.11,0.65997l-1.30995,0.45998l0.15999,-1.88992l-0.38998,-2.00992l-1.32995,-1.71993l0.04,-0.75997l-1.32995,0.15999l-0.66997,0.52998l0.59998,1.26995l-0.39998,0.82997l-1.37994,0.11l-1.04996,1.85993l0.79997,1.89992l-0.79997,1.33995l-0.86997,0.57998l-0.95996,0.03l-0.78997,0.60998h-0.94996l-1.17995,1.33995l-1.86993,-1.00996l-1.17995,0.25999l-0.77997,-0.75997l-2.4799,0.49998l-0.65997,-0.61998l-1.68993,-0.47998l-1.28995,0.77997l-1.56994,0.19999l-0.61998,0.63997l-1.90992,-0.53998l-2.5299,-0.1l-1.77993,2.34991l-0.66997,-1.02996l-1.45994,-1.17995l-1.13995,-1.85993l-0.21999,-1.78993l0.71997,-1.10996l-0.11,-1.92992l0.74997,-0.98996l-1.20995,-2.31991l0.75997,-1.08996l-0.17999,-0.85997l0.76997,-0.31999l1.08996,-1.61994l-0.05,-1.91992l-0.54998,-1.06996l-1.06996,-0.33999l-0.19999,-0.66997l-1.77993,-2.4399l-1.06996,-0.52998l-0.75997,-0.90996l0.21999,-0.63997l0.77997,-1.02996l1.38994,-0.58998l-0.24999,-3.04988l1.06996,-0.96996l2.03992,1.21995l0.86997,-0.13999l1.00996,-1.40994l1.66993,0.70997l1.17995,-1.14995l1.20995,-0.54998l2.4599,0.04l0.83997,-0.82997l-0.06,-2.15991l-0.60998,-0.50998l-0.65997,-2.5199l-0.50998,-0.67997l0.26999,-1.40994l1.12995,-0.63997l0.81997,0.13999l2.24991,1.41994l0.94996,0.21999l1.93992,-0.46998l0.77997,-0.83997l2.36991,-0.75997l0.95996,-0.58998l0.81997,0.30999l0.28999,0.92996l0.98996,-0.48998l-1.36995,-4.10984l-0.98996,-0.93996l1.16995,-1.53994l1.75993,0.49998l1.10996,-0.85997l0.89996,0.22999l1.32995,-1.85993l-0.13999,-1.07996l0.50998,-0.82997l-0.13999,-1.76993l0.70997,-1.24995l-0.08,-2.09992l1.55994,-2.00992l-0.30999,-0.86997l0.70997,-0.85997l2.5799,1.00996l0.93996,-0.34999l1.75993,0.38998l1.64993,1.50994l1.16995,0.57998l1.43994,-0.18999l0.42998,-0.73997l1.28995,0.21999l1.80993,0.98996l2.15991,-0.01l0.82997,1.08996l0.99996,-0.05l0.86997,1.10996l1.77993,0.81997l1.57994,1.94992l-0.16999,0.80997l0.75997,0.66997l0.28999,1.49994l1.39994,0.45998l1.15995,-0.56998l1.18995,-1.78993l1.02996,-0.50998l-0.38998,-2.4599l1.93992,-0.18999l2.5399,-1.55994l1.83993,-0.03l0.67997,-1.34995l-0.41998,-0.50998l0.36999,-1.36995l1.37994,0.08l0.87996,-0.98996l1.54994,-0.87996l1.01996,0.53998l1.78993,-1.15995l1.70993,0.30999"/></g></g></svg>