<svg version="1.1" xmlns="http://www.w3.org/2000/svg" xmlns:xlink="http://www.w3.org/1999/xlink" width="65.91726" height="71.45434" viewBox="0,0,65.91726,71.45434"><g transform="translate(-147.82263,26.92445)"><g data-paper-data="{&quot;isPaintingLayer&quot;:true}" fill="none" fill-rule="evenodd" stroke="#fc3324" stroke-width="36" stroke-linecap="round" stroke-linejoin="round" stroke-miterlimit="4" stroke-dasharray="" stroke-dashoffset="0" style="mix-blend-mode: normal"><g><path d="M170.92481,20.11091l1.33379,0.23996l0.85286,2.87954l2.41362,3.29948l1.63474,-0.88986l-2.20864,-1.2098l1.60274,-2.61958l-1.66273,-1.15981l1.74572,-0.86986l0.08499,-2.30963l1.80971,-1.61974l0.08999,-3.86938l-3.46344,-0.68989l-1.8837,-2.28964l-3.13149,-2.18964l2.53859,-0.91986l-1.45977,-1.57975l1.26479,-1.60975l2.01768,0.75988l0.83287,3.41945l1.77072,0.26996l0.45693,-1.94969l-2.25464,-2.96953l-0.50292,-1.8697l2.68057,-3.35946l-0.50691,-2.4696l1.43777,1.73972l2.90053,-0.06999l0.28796,-1.11982l3.1235,1.31979l3.98836,3.02952l-3.1355,3.7594l1.02884,1.09982l1.19481,-1.27979l0.86986,3.30947l5.40314,1.05983l1.58975,-0.77988l0.06999,-2.01967"/><path d="M167.91029,-8.92445l1.2858,0.86986l-1.05883,1.39978l-2.31463,-1.13982l2.08766,-1.12982"/></g></g></g></svg>