<svg version="1.1" xmlns="http://www.w3.org/2000/svg" xmlns:xlink="http://www.w3.org/1999/xlink" width="208" height="32" viewBox="0,0,208,32"><g transform="translate(-240,-164)"><g data-paper-data="{&quot;isPaintingLayer&quot;:true}" fill-rule="nonzero" stroke="none" stroke-linecap="butt" stroke-linejoin="miter" stroke-miterlimit="10" stroke-dasharray="" stroke-dashoffset="0" style="mix-blend-mode: normal"><path d="M240,196v-32h208v32z" fill="none" stroke-width="0"/><path d="M253.2,183.15c1.6146,1.4388 3.78907,2.6009 6.5234,3.4863l-1.2598,1.8359c-1.57553,-0.55989 -2.94923,-1.23696 -4.1211,-2.0312c-1.21093,-0.8268 -2.32747,-1.84243 -3.3496,-3.0469v6.1035h-2.1191v-5.9961c-0.90493,1.26953 -2.07357,2.40887 -3.5059,3.418c-1.10027,0.77473 -2.27867,1.39973 -3.5352,1.875l-1.3379,-1.7188c2.0638,-0.6836 3.7858,-1.60483 5.166,-2.7637c0.39063,-0.32553 0.78776,-0.71289 1.1914,-1.1621h-4.6973v-7.998h6.7188v-1.3184h-8.0957v-1.7578h8.0957v-1.582h2.1191v1.582h8.2227v1.7578h-8.2227v1.3184h6.8457v7.998zM248.8738,176.7926h-4.5996v1.582h4.5996zM250.9929,176.7926v1.582h4.7266v-1.582zM248.8738,179.8981h-4.5996v1.6113h4.5996zM250.9929,179.8981v1.6113h4.7266v-1.6113z" fill="#ffffff" stroke-width="1"/><path d="M271.02,172.46h8.0566v1.8555h-18.154v-1.8555h7.9394v-1.9629h2.1582zM277.0454,175.9561v6.377h-5.7617v5.4883c0,0.55989 -0.1237,0.96679 -0.3711,1.2207c-0.29297,0.30599 -0.87563,0.45898 -1.748,0.45898c-0.93747,0 -1.8717,-0.04883 -2.8027,-0.14648l-0.43945,-2.002c0.8984,0.13671 1.8001,0.20507 2.7051,0.20507c0.25391,0 0.4069,-0.06185 0.45898,-0.18554c0.02607,-0.0586 0.0391,-0.14324 0.0391,-0.25391v-4.7852h-6.1621v-6.377zM265.1994,177.7139v2.8613h9.6094v-2.8613zM277.5434,188.6809c-1.17187,-1.71873 -2.4707,-3.27473 -3.8965,-4.668l1.5723,-1.2402c1.3932,1.25 2.74087,2.7181 4.043,4.4043zM260.4634,187.2942c1.62107,-1.12627 2.89387,-2.54553 3.8184,-4.2578l1.9043,0.99609c-0.944,1.862 -2.33723,3.4896 -4.1797,4.8828z" fill="#ffffff" stroke-width="1"/><path d="M287.19,176.3c1.0742,-1.36067 1.99867,-2.92643 2.7734,-4.6973l1.7188,0.87891c-0.83987,1.52993 -1.61787,2.80273 -2.334,3.8184h2.0508v1.7578h-3.8281c-0.03253,0.03253 -0.0651,0.0716 -0.0977,0.11719c-0.32552,0.41667 -0.86915,0.99283 -1.6309,1.7285h4.4629v9.3359h-1.9043v-0.74219h-3.8965v1.0059h-1.9629v-6.8652c-0.44922,0.3125 -0.91145,0.61523 -1.3867,0.9082l-0.97656,-1.6797c0.69013,-0.35807 1.42907,-0.82681 2.2168,-1.4062c1.14587,-0.84633 2.0736,-1.6471 2.7832,-2.4023h-4.6777v-1.7578h3.8965v-1.9434h-2.8027v-1.7188h2.8027v-2.1387h1.9434v2.1387h2.1387v1.7188h-2.1387v1.9434zM284.5044,181.4855v1.8555h3.8965v-1.8555zM284.5044,184.923v1.9531h3.8965v-1.9531zM296.8774,178.1945c1.62107,1.9336 2.4316,3.84767 2.4316,5.7422c0,0.97653 -0.19206,1.6992 -0.57617,2.168c-0.36459,0.44921 -0.96679,0.67382 -1.8066,0.67382c-0.69013,0 -1.39327,-0.04557 -2.1094,-0.13672l-0.43945,-2.041c0.74867,0.14974 1.38993,0.22461 1.9238,0.22461c0.39713,0 0.64778,-0.08464 0.75195,-0.25391c0.09766,-0.14974 0.14649,-0.41992 0.14649,-0.81054c0,-1.30207 -0.4655,-2.65297 -1.3965,-4.0527c-0.26041,-0.39713 -0.60221,-0.82683 -1.0254,-1.2891c0.69013,-1.49087 1.25653,-3.17057 1.6992,-5.0391h-2.4805v16.123h-2.002v-18.066h5.7422l1.1328,0.98632c-0.59896,2.2526 -1.26303,4.17643 -1.9922,5.7715z" fill="#ffffff" stroke-width="1"/><path d="M311.47,185.13c-0.64453,-0.65104 -1.4909,-1.37371 -2.5391,-2.168c-1.34113,0.80727 -2.79947,1.46807 -4.375,1.9824l-1.2402,-1.6211c3.82813,-1.13933 6.8164,-3.0534 8.9648,-5.7422l1.9922,0.49805c-0.28645,0.37761 -0.5664,0.73241 -0.83984,1.0644h4.6875l1.0352,0.89844c-2.1354,3.2422 -4.6582,5.62827 -7.5684,7.1582c-2.1224,1.1198 -4.94467,1.9271 -8.4668,2.4219l-1.2012,-1.8555c4.34247,-0.51432 7.52607,-1.39322 9.5508,-2.6367zM313.1204,183.9679c1.30207,-1.0742 2.2884,-2.1289 2.959,-3.1641h-4.2578c-0.44271,0.41016 -0.88541,0.77799 -1.3281,1.1035c0.9896,0.67707 1.86527,1.3639 2.627,2.0605zM308.2474,177.3956c-0.76173,-0.7552 -1.50717,-1.41277 -2.2363,-1.9727l-0.11718,0.0879c-0.91147,0.58594 -1.9564,1.14257 -3.1348,1.6699l-1.2988,-1.416c3.0534,-1.25 5.47203,-3.07293 7.2559,-5.4688l2.0801,0.44922c-0.35807,0.48828 -0.60872,0.82031 -0.75195,0.99609h5.4688l0.94726,0.83984c-1.28253,1.60807 -2.90363,3.1673 -4.8633,4.6777c-1.33467,1.02867 -2.6335,1.8327 -3.8965,2.4121c-1.66013,0.7552 -3.5807,1.39323 -5.7617,1.9141l-1.123,-1.709c2.9232,-0.55339 5.4004,-1.38022 7.4316,-2.4805zM309.9076,176.3311c1.35413,-1.02213 2.46417,-1.97917 3.3301,-2.8711h-4.7656c-0.29948,0.28646 -0.63478,0.58594 -1.0059,0.89844c0.97653,0.6706 1.79033,1.32813 2.4414,1.9726z" fill="#ffffff" stroke-width="1"/><path d="M335.57,173.54v1.1035h3.2812v1.3965h-2.5195c0.78773,0.918 1.7936,1.70577 3.0176,2.3633l-0.9375,1.3965c-1.15233,-0.7422 -2.11263,-1.63087 -2.8809,-2.666v2.168h-1.8164v-1.9726c-0.53385,0.84633 -1.24675,1.55597 -2.1387,2.1289l-1.0254,-1.1426c0.95707,-0.52735 1.78713,-1.28581 2.4902,-2.2754h-2.0312v-1.3965h2.666v-1.1035h-5.0391v1.1035h1.9531v1.3965h-2.002v0.36132c0.74867,0.37109 1.44527,0.81706 2.0898,1.3379l-0.92774,1.2207c-0.32552,-0.34505 -0.71289,-0.69989 -1.1621,-1.0645v1.8457h-1.7969v-2.2559c-0.56641,0.85287 -1.31511,1.60483 -2.2461,2.2559l-0.95704,-1.2402v0.55664c0,2.6302 -0.11393,4.74933 -0.34179,6.3574c-0.20833,1.45833 -0.5892,2.8125 -1.1426,4.0625l-1.8555,-1.3184c0.47526,-1.08727 0.81056,-2.34703 1.0059,-3.7793c0.19531,-1.44533 0.29297,-3.21943 0.29297,-5.3223v-7.1191h7.8613v-1.4355h2.168v1.4355h7.5976v1.6016zM326.7321,173.54h-3.1445v4.9316c1.06773,-0.64453 1.93363,-1.45507 2.5977,-2.4316h-2.1973v-1.3965h2.7442zM332.6305,181.2158v1.1133h5.9766v1.3965h-5.9766v0.95703h6.875v1.4844h-6.875v1.7188c0,0.59245 -0.14974,1.01238 -0.44922,1.2598c-0.28645,0.24089 -0.81705,0.36133 -1.5918,0.36133c-1.19793,0 -2.1387,-0.05534 -2.8223,-0.16601l-0.30273,-1.6211c0.97653,0.13672 1.88147,0.20508 2.7148,0.20508c0.22135,0 0.34831,-0.04232 0.38086,-0.12695c0.03253,-0.07161 0.0488,-0.1888 0.0488,-0.35156v-1.2793h-6.9043v-1.4844h6.9043v-0.95703h-6.0644v-1.3965h6.0644v-0.95703c-1.82293,0.11067 -3.36917,0.17578 -4.6387,0.19531l-0.60547,-1.3965c4.01693,-0.06513 7.59127,-0.33206 10.723,-0.80079l1.1426,1.2988c-1.71227,0.25391 -3.24547,0.4362 -4.5996,0.54688z" fill="#ffffff" stroke-width="1"/><path d="M346.44,176.07v-2.7344h-5.8203v-1.8848h18.779v1.8848h-6.4551v2.7344h5.4785v13.164h-2.1191v-1.377h-12.607v1.377h-2.0996v-13.164zM348.4615,176.07h2.4609v-2.7344h-2.4609zM346.4303,177.8473h-2.7344v8.1543h12.607v-2.9297h-3.7012c-1.1198,0 -1.6797,-0.5599 -1.6797,-1.6797v-3.5449h-2.4805c-0.02607,1.6016 -0.26695,2.88417 -0.72266,3.8477c-0.42969,0.918 -1.27605,1.8262 -2.5391,2.7246l-1.3477,-1.5039c1.21093,-0.7422 1.9759,-1.66017 2.2949,-2.7539c0.16927,-0.58594 0.27018,-1.35744 0.30273,-2.3145zM352.944,177.8473v2.9883c0,0.25391 0.11393,0.38086 0.3418,0.38086h3.0176v-3.3691z" fill="#ffffff" stroke-width="1"/><path d="M366.98,172.75h4.1797v1.8848h-1.377c-0.2474,0.99607 -0.57943,2.041 -0.9961,3.1348h2.6074v1.8848h-10.898v-1.8848h2.3926c-0.26041,-1.25 -0.53385,-2.29493 -0.82031,-3.1348h-1.2695v-1.8848h4.1406v-2.2559h2.041zM364.0406,174.6348c0.33203,0.97007 0.58919,2.015 0.77148,3.1348h1.9922l0.09766,-0.27344c0.27995,-0.7422 0.54036,-1.5853 0.78125,-2.5293l0.0879,-0.33203zM370.0953,181.295v7.998h-2.002v-0.95703h-4.2578v1.1621h-2.0606v-8.2031zM363.8355,183.0919v3.3887h4.2578v-3.3887zM376.8825,178.1603c0.77473,0.73567 1.38997,1.61133 1.8457,2.627c0.44922,1.0156 0.67383,2.04423 0.67383,3.0859c0,0.96353 -0.17904,1.67317 -0.53711,2.1289c-0.37109,0.47526 -0.98306,0.71289 -1.8359,0.71289c-0.7292,0 -1.43557,-0.05208 -2.1191,-0.15625l-0.47852,-2.0801c0.78773,0.14323 1.43877,0.21485 1.9531,0.21485c0.39063,0 0.63477,-0.09115 0.73242,-0.27344c0.06513,-0.13021 0.0977,-0.39062 0.0977,-0.78125c0,-1.60807 -0.48177,-2.9948 -1.4453,-4.1602c-0.25391,-0.30599 -0.57292,-0.63476 -0.95703,-0.98633l0.11719,-0.27343c0.67707,-1.52993 1.2044,-3.125 1.582,-4.7852h-2.5v16.064h-2.0215v-18.086h5.8789l1.084,0.99609c-0.65755,2.2396 -1.34765,4.15693 -2.0703,5.752z" fill="#ffffff" stroke-width="1"/></g></g></svg>