<?xml version="1.0" encoding="UTF-8"?>
<svg width="480" height="360" version="1.1" viewBox="0 0 480 360" xmlns="http://www.w3.org/2000/svg">
 <g dominant-baseline="central" fill="#fff" aria-label="胆振地方中東部">
  <path d="m247.45 171.34v16.436q0 0.88867-0.42969 1.25-0.36132 0.3125-1.2305 0.3125-0.92774 0-1.8945-0.13672l-0.32226-1.9434q0.73242 0.16601 1.543 0.16601 0.36133 0 0.42968-0.17578 0.0488-0.12695 0.0488-0.39062v-4.3555h-2.2363q-0.0293 1.9141-0.29296 3.3398-0.33204 1.875-1.3672 3.7598l-1.543-1.543q0.79102-1.4453 1.0742-3.2129 0.26367-1.6016 0.26367-4.0234v-9.4824zm-4.0723 1.8555v2.8027h2.2168v-2.8027zm0 4.5801v2.9688h2.2168v-2.9688zm14.736-6.2402v13.125h-8.8379v-13.125zm-6.8164 1.7969v3.8086h4.7559v-3.8086zm0 5.5469v3.9648h4.7559v-3.9648zm-3.3594 8.0664h11.621v1.8555h-11.621z" dominant-baseline="central"/>
  <path d="m262.88 174.03v-3.5352h2.0215v3.5352h1.9629v1.9824h-1.9629v3.0469q0.71289-0.26367 1.7578-0.70313l0.22461 1.8945q-0.81055 0.37109-1.9824 0.85937v6.582q0 0.88867-0.32226 1.2891-0.38086 0.46875-1.4551 0.46875-1.0254 0-2.002-0.17578l-0.40039-2.0605q0.98632 0.18554 1.6894 0.18554 0.33203 0 0.40039-0.13672 0.0684-0.10742 0.0684-0.37109v-5.0195q-1.0156 0.3418-2.0215 0.64453l-0.5957-2.0215q1.4356-0.3711 2.6172-0.74219v-3.7402h-2.3144v-1.9824zm6.5039-0.99609v5.5176h9.9121v1.7969h-4.0918q0.22461 1.3574 0.77148 2.6856 0.97656-1.0156 1.8262-2.3242l1.543 1.3965q-0.99609 1.0254-2.6465 2.3145 1.084 1.709 3.0176 3.0664l-1.1524 1.8164q-4.3555-3.2422-5.1562-8.9551h-1.084v6.5137q1.377-0.37109 2.7539-0.84961l0.10743 1.7188q-1.9922 0.86915-5.2441 1.7578l-0.63477-1.9434q0.15625-0.0293 1.1133-0.22461v-6.9727h-1.0547q-0.0391 2.334-0.3125 4.1699-0.39062 2.6465-1.5137 4.9707l-1.6406-1.5625q0.98633-2.0215 1.2988-4.5996 0.2246-1.8262 0.2246-4.6582v-7.4707h11.377v1.8359zm0.82031 1.7969h7.6367v1.8164h-7.6367z" dominant-baseline="central"/>
  <path d="m290.23 178.41v7.7344q0 0.75195 0.64454 0.9082 0.66406 0.16602 3.0371 0.16602 2.3144 0 3.0566-0.23438 0.41992-0.13672 0.54687-0.76172 0.16602-0.8789 0.17578-2.0801l2.041 0.57618q-0.15625 2.8809-0.79102 3.6816-0.41992 0.52734-1.2695 0.625-1.3379 0.14648-4.541 0.14648-2.4805 0-3.252-0.13672-1.1621-0.19531-1.4746-1.0254-0.15625-0.43945-0.15625-1.1719v-7.7441l-1.8652 0.64453-0.45899-1.8945 2.3242-0.80078v-5.2637h1.9824v4.5801l2.0996-0.71289v-5.1465h1.9629v4.4629l3.2715-1.123 1.0254 0.625v7.3144q0 0.76172-0.36133 1.1328-0.41015 0.41015-1.377 0.41015-0.79102 0-1.6797-0.13672l-0.32226-1.8652q0.57617 0.14648 1.1719 0.14648 0.42969 0 0.52734-0.17578 0.0977-0.14648 0.0977-0.48828v-4.6191l-2.3535 0.82031v7.9004h-1.9629v-7.2266zm-7.1777-3.1934v-4.7168h2.0996v4.7168h1.8945v1.9824h-1.8945v6.2109q1.0254-0.35156 2.0312-0.73242l0.18555 1.8848q-3.1641 1.4453-6.4941 2.4219l-0.6836-2.0801q1.5039-0.39062 2.6367-0.74218 0.13672-0.0488 0.22461-0.0684v-6.8945h-2.4805v-1.9824z" dominant-baseline="central"/>
  <path d="m309.48 175.76q-0.0684 1.6309-0.19531 2.8711h7.8711q-0.14648 6.7774-0.76172 8.7988-0.3125 1.0156-1.1621 1.4062-0.66406 0.30273-1.9434 0.30273-1.3477 0-3.0566-0.20507l-0.38085-2.1973q2.2949 0.32227 3.2324 0.32227 0.79101 0 1.0059-0.44922 0.51757-1.0938 0.72265-6.0352h-5.8105q-0.32227 1.7578-0.90821 3.0469-1.6309 3.5644-5.4492 5.6543l-1.543-1.7188q3.8281-1.9922 5.0586-5.2246 0.82031-2.1582 1.0644-6.5723h-6.4648v-2.002h7.9785v-3.2617h2.2559v3.2617h8.2422v2.002z" dominant-baseline="central"/>
  <path d="m328.84 174.08v-3.584h2.1973v3.584h7.2461v10.332h-2.1582v-1.3574h-5.0879v6.4453h-2.1973v-6.4453h-4.9609v1.4648h-2.1582v-10.439zm-4.9609 2.002v4.9707h4.9609v-4.9707zm12.246 4.9707v-4.9707h-5.0879v4.9707z" dominant-baseline="central"/>
  <path d="m353.2 183.15q2.4219 2.1582 6.5234 3.4863l-1.2598 1.8359q-2.3633-0.83984-4.1211-2.0312-1.8164-1.2402-3.3496-3.0469v6.1035h-2.1191v-5.9961q-1.3574 1.9043-3.5059 3.418-1.6504 1.1621-3.5352 1.875l-1.3379-1.7188q3.0957-1.0254 5.166-2.7637 0.58594-0.48829 1.1914-1.1621h-4.6973v-7.998h6.7188v-1.3184h-8.0957v-1.7578h8.0957v-1.582h2.1191v1.582h8.2227v1.7578h-8.2227v1.3184h6.8457v7.998zm-4.3262-6.3574h-4.5996v1.582h4.5996zm2.1191 0v1.582h4.7266v-1.582zm-2.1191 3.1055h-4.5996v1.6113h4.5996zm2.1191 0v1.6113h4.7266v-1.6113z" dominant-baseline="central"/>
  <path d="m366.98 172.75h4.1797v1.8848h-1.377q-0.3711 1.4941-0.9961 3.1348h2.6074v1.8848h-10.898v-1.8848h2.3926q-0.39062-1.875-0.82031-3.1348h-1.2695v-1.8848h4.1406v-2.2559h2.041zm-2.9394 1.8848q0.49805 1.4551 0.77148 3.1348h1.9922l0.09766-0.27344q0.41992-1.1133 0.78125-2.5293l0.0879-0.33203zm6.0547 6.6602v7.998h-2.002v-0.95703h-4.2578v1.1621h-2.0606v-8.2031zm-6.2598 1.7969v3.3887h4.2578v-3.3887zm13.047-4.9316q1.1621 1.1035 1.8457 2.627 0.67383 1.5234 0.67383 3.0859 0 1.4453-0.53711 2.1289-0.55664 0.71289-1.8359 0.71289-1.0938 0-2.1191-0.15625l-0.47852-2.0801q1.1816 0.21485 1.9531 0.21485 0.58594 0 0.73242-0.27344 0.0977-0.19531 0.0977-0.78125 0-2.4121-1.4453-4.1602-0.38086-0.45898-0.95703-0.98633l0.11719-0.27343q1.0156-2.2949 1.582-4.7852h-2.5v16.064h-2.0215v-18.086h5.8789l1.084 0.99609q-0.98633 3.3594-2.0703 5.752z" dominant-baseline="central"/>
 </g>
</svg>
