<svg version="1.1" xmlns="http://www.w3.org/2000/svg" xmlns:xlink="http://www.w3.org/1999/xlink" width="208" height="32" viewBox="0,0,208,32"><g transform="translate(-240,-164)"><g data-paper-data="{&quot;isPaintingLayer&quot;:true}" fill-rule="nonzero" stroke="none" stroke-linecap="butt" stroke-linejoin="miter" stroke-miterlimit="10" stroke-dasharray="" stroke-dashoffset="0" style="mix-blend-mode: normal"><path d="M240,196v-32h208v32z" fill="none" stroke-width="0"/><path d="M254.23,185.08c1.3086,0.92447 3.0892,1.67967 5.3418,2.2656l-1.3574,1.8555c-2.95573,-0.83333 -5.29623,-2.20703 -7.0215,-4.1211c-1.02867,-1.1328 -1.7904,-2.42513 -2.2852,-3.877h-2.7539v5.6738c1.6732,-0.30599 3.4473,-0.70962 5.3223,-1.2109l0.13672,1.8555c-3.07293,0.87893 -6.1198,1.5658 -9.1406,2.0606l-0.69336,-2.0215c1.02867,-0.13021 1.74807,-0.22786 2.1582,-0.29297v-6.0644h-3.4375v-1.6602h3.4375v-8.4082h13.496v1.6406h-11.279v1.1621h10.381v1.582h-10.381v1.1816h10.381v1.543h-10.381v1.2988h13.34v1.6602h-2.666l1.543,1.3379c-1.237,0.89193 -2.6172,1.7383 -4.1406,2.5391zM252.8238,183.9277c1.50387,-0.93747 2.76363,-1.84567 3.7793,-2.7246h-5.6934c0.4362,1.00913 1.07423,1.91733 1.9141,2.7246z" fill="#ffffff" stroke-width="1"/><path d="M270.08,171.22v8.9551h-3.4766v1.9238h3.5547v1.7578h-3.5547v2.1582c0.13021,-0.01953 0.30599,-0.04557 0.52735,-0.0781c0.931,-0.13672 2.0931,-0.33529 3.4863,-0.5957l0.12696,1.7383c-3.08593,0.69013 -6.3737,1.25003 -9.8633,1.6797l-0.59571,-1.9824c1.49087,-0.13671 2.90037,-0.29296 4.2285,-0.46875l0.10742,-0.0195v-2.4316h-3.7793v-1.7578h3.7793v-1.9238h-3.4375v-8.9551zM262.8827,172.8802v1.9727h1.8262v-1.9727zM262.8827,176.4544v2.0605h1.8262v-2.0605zM268.4003,178.5149v-2.0605h-1.875v2.0605zM268.4003,174.8528v-1.9727h-1.875v1.9727zM276.0565,176.1419c0.20833,0.1888 0.51758,0.48177 0.92773,0.8789l-0.91797,0.82032h2.8418l0.83984,0.8789c-0.65104,2.10287 -1.25651,3.7565 -1.8164,4.9609l-1.8848,-0.60547c0.53385,-1.0156 0.99935,-2.1484 1.3965,-3.3984h-1.875v8.1152c0,0.57943 -0.10742,0.99936 -0.32227,1.2598c-0.25391,0.29948 -0.76497,0.44922 -1.5332,0.44922c-0.83333,0 -1.63413,-0.05534 -2.4024,-0.16601l-0.32226,-1.9629c1.0156,0.12369 1.7122,0.18554 2.0898,0.18554c0.18229,0 0.29948,-0.04232 0.35156,-0.12695c0.03907,-0.07813 0.0586,-0.20182 0.0586,-0.37109v-7.3828h-2.7637v-1.8359h4.3555c-1.0482,-1.0742 -2.20707,-2.06053 -3.4766,-2.959l1.3477,-1.2012c0.53385,0.37109 1.14582,0.83009 1.8359,1.377c0.57291,-0.59895 1.11978,-1.29232 1.6406,-2.0801h-5.3418v-1.7578h7.2461l0.95703,1.0547c-1.05467,1.51693 -2.13213,2.806 -3.2324,3.8672z" fill="#ffffff" stroke-width="1"/><path d="M296.76,170.98v9.4629h-11.621v-9.4629zM287.2385,172.523v1.2207h7.4023v-1.2207zM287.2385,175.1207v1.2207h7.4023v-1.2207zM287.2385,177.7183v1.2598h7.4023v-1.2598zM283.3029,181.7417h16.191v1.6992h-8.0762v6.0644h-2.2168v-6.0644h-8.0371v-10.957h2.1387zM280.8029,187.6401c1.54947,-0.71613 3.0306,-1.9173 4.4434,-3.6035l1.7969,1.0449c-1.3932,1.76433 -2.93943,3.15107 -4.6387,4.1602zM297.6389,188.8999c-0.99607,-1.22393 -2.49347,-2.50973 -4.4922,-3.8574l1.6797,-1.1816c1.569,0.90493 3.1087,2.09307 4.6191,3.5644z" fill="#ffffff" stroke-width="1"/><path d="M308.92,182.24h-4.043v-1.6016h1.9531c-0.29297,-0.66407 -0.625,-1.28257 -0.99609,-1.8555l1.7578,-0.64453c0.50781,0.85287 0.91798,1.6862 1.2305,2.5h2.2949c0.38411,-0.78773 0.72265,-1.6341 1.0156,-2.5391l1.9629,0.61524c-0.33203,0.71613 -0.6836,1.3574 -1.0547,1.9238h2.0996v1.6016h-4.1797v1.4258h4.4531v1.6602h-4.4531v3.6914h-2.041v-3.6914h-4.2871v-1.6602h4.2871zM311.0196,176.2244h7.4024v11.416c0,0.6706 -0.17904,1.1426 -0.53711,1.416c-0.29948,0.23438 -0.80405,0.35157 -1.5137,0.35157c-0.918,0 -1.8034,-0.04883 -2.6562,-0.14649l-0.47852,-1.9629c1.13933,0.13672 1.9922,0.20508 2.5586,0.20508c0.23437,0 0.37109,-0.05859 0.41015,-0.17578c0.02607,-0.07161 0.0391,-0.17253 0.0391,-0.30274v-9.1016h-12.48v11.582h-2.1777v-13.281h7.2754v-1.7676h-8.3594v-1.8164h8.3594v-2.1387h2.1582v2.1387h8.4766v1.8164h-8.4766z" fill="#ffffff" stroke-width="1"/><path d="M326.98,172.75h4.1797v1.8848h-1.377c-0.2474,0.99607 -0.57943,2.041 -0.9961,3.1348h2.6074v1.8848h-10.898v-1.8848h2.3926c-0.26041,-1.25 -0.53385,-2.29493 -0.82031,-3.1348h-1.2695v-1.8848h4.1406v-2.2559h2.041zM324.0406,174.6348c0.33203,0.97007 0.58919,2.015 0.77148,3.1348h1.9922l0.09766,-0.27344c0.27995,-0.7422 0.54036,-1.5853 0.78125,-2.5293l0.0879,-0.33203zM330.0953,181.295v7.998h-2.002v-0.95703h-4.2578v1.1621h-2.0606v-8.2031zM323.8355,183.0919v3.3887h4.2578v-3.3887zM336.8825,178.1603c0.77473,0.73567 1.38997,1.61133 1.8457,2.627c0.44922,1.0156 0.67383,2.04423 0.67383,3.0859c0,0.96353 -0.17904,1.67317 -0.53711,2.1289c-0.37109,0.47526 -0.98306,0.71289 -1.8359,0.71289c-0.7292,0 -1.43557,-0.05208 -2.1191,-0.15625l-0.47852,-2.0801c0.78773,0.14323 1.43877,0.21485 1.9531,0.21485c0.39063,0 0.63477,-0.09115 0.73242,-0.27344c0.06513,-0.13021 0.0977,-0.39062 0.0977,-0.78125c0,-1.60807 -0.48177,-2.9948 -1.4453,-4.1602c-0.25391,-0.30599 -0.57292,-0.63476 -0.95703,-0.98633l0.11719,-0.27343c0.67707,-1.52993 1.2044,-3.125 1.582,-4.7852h-2.5v16.064h-2.0215v-18.086h5.8789l1.084,0.99609c-0.65755,2.2396 -1.34765,4.15693 -2.0703,5.752z" fill="#ffffff" stroke-width="1"/></g></g></svg>