<svg version="1.1" xmlns="http://www.w3.org/2000/svg" xmlns:xlink="http://www.w3.org/1999/xlink" width="208" height="32" viewBox="0,0,208,32"><g transform="translate(-240,-164)"><g data-paper-data="{&quot;isPaintingLayer&quot;:true}" fill-rule="nonzero" stroke="none" stroke-linecap="butt" stroke-linejoin="miter" stroke-miterlimit="10" stroke-dasharray="" stroke-dashoffset="0" style="mix-blend-mode: normal"><path d="M240,196v-32h208v32z" fill="none" stroke-width="0"/><path d="M242.18,173.45c0.58594,-0.97007 1.13281,-1.9987 1.6406,-3.0859l2.1094,0.45898c-0.46875,0.8854 -1.02215,1.7285 -1.6602,2.5293c1.26953,-0.07813 2.32423,-0.15951 3.1641,-0.24414c-0.22787,-0.26693 -0.56317,-0.63476 -1.0059,-1.1035l1.4356,-0.88867c1.1068,0.9896 2.0671,2.07683 2.8809,3.2617l-1.5234,1.084c-0.28646,-0.42317 -0.54037,-0.78451 -0.76172,-1.084c-2.31773,0.33203 -4.87633,0.57943 -7.6758,0.74219l-0.49805,-1.6211c0.6966,-0.013 1.21093,-0.02603 1.543,-0.0391c0.15625,-0.00667 0.27344,-0.01 0.35156,-0.01zM249.2503,175.7644v6.9141c0,0.52083 -0.12044,0.89193 -0.36133,1.1133c-0.23437,0.20833 -0.64454,0.3125 -1.2305,0.3125c-0.66406,0 -1.36066,-0.05534 -2.0898,-0.16601l-0.3418,-1.5918c0.67707,0.11719 1.23047,0.17578 1.6602,0.17578c0.20833,0 0.33203,-0.07812 0.37109,-0.23437c0.01953,-0.07162 0.0293,-0.16602 0.0293,-0.28321v-0.83984h-3.6035v3.0566h-2.0215v-8.457zM243.6839,177.0828v0.85937h3.6035v-0.85937zM243.6839,179.1433v0.85938h3.6035v-0.85938zM252.8245,172.5613c1.556,-0.41667 2.9948,-0.931 4.3164,-1.543l1.2402,1.4453c-1.9922,0.77473 -3.8444,1.34113 -5.5566,1.6992v0.61523c0,0.34505 0.08789,0.55664 0.26367,0.63477c0.1888,0.07812 0.79427,0.11718 1.8164,0.11718c1.12633,0 1.7904,-0.05859 1.9922,-0.17578c0.15625,-0.08463 0.25391,-0.26041 0.29297,-0.52734c0.01953,-0.11719 0.0521,-0.52735 0.0977,-1.2305l1.8555,0.60547c-0.013,1.34767 -0.24737,2.181 -0.70312,2.5c-0.48828,0.33854 -1.76108,0.50781 -3.8184,0.50781c-1.59507,0 -2.63023,-0.09766 -3.1055,-0.29297c-0.47526,-0.20182 -0.71289,-0.63475 -0.71289,-1.2988v-5.0976h2.0215zM252.8245,179.2801c1.7448,-0.42969 3.2845,-0.96355 4.6191,-1.6016l1.377,1.4258c-2.07033,0.8268 -4.06903,1.416 -5.9961,1.7676v0.79102c0,0.27343 0.11393,0.44921 0.34179,0.52734c0.23437,0.07161 0.78451,0.10742 1.6504,0.10742c0.9896,0 1.66667,-0.03906 2.0312,-0.11719c0.32552,-0.06507 0.52083,-0.27014 0.58594,-0.61523c0.0456,-0.24089 0.08141,-0.65429 0.10742,-1.2402l1.8652,0.63476c-0.013,1.34767 -0.20506,2.1875 -0.57618,2.5195c-0.23437,0.20833 -0.63151,0.35156 -1.1914,0.42969c-0.67707,0.08463 -1.60807,0.12695 -2.793,0.12695c-1.70573,0 -2.80927,-0.0944 -3.3106,-0.2832c-0.48828,-0.18229 -0.73242,-0.59896 -0.73242,-1.25v-4.9023h2.0215zM240.4025,188.4207c0.91147,-1.02213 1.66017,-2.26237 2.2461,-3.7207l2.0996,0.76171c-0.55989,1.6992 -1.29556,3.09243 -2.207,4.1797zM247.2677,189.5047c-0.3125,-1.63413 -0.63476,-2.94923 -0.96679,-3.9453l2.2266,-0.49805c0.5013,1.3802 0.85937,2.67903 1.0742,3.8965zM252.3263,189.2215c-0.41667,-1.30207 -0.96353,-2.5488 -1.6406,-3.7402l1.9824,-0.6836c0.70313,1.04167 1.32163,2.26237 1.8555,3.6621zM257.5411,189.2606c-0.70313,-1.46487 -1.50067,-2.7572 -2.3926,-3.877l1.9141,-0.94727c1.0156,1.11327 1.9238,2.3893 2.7246,3.8281z" fill="#ffffff" stroke-width="1"/><path d="M271.78,176.02c2.1354,3.112 4.7591,5.60223 7.8711,7.4707l-1.3867,1.8848c-3.1836,-2.33073 -5.60547,-4.85027 -7.2656,-7.5586v5.957h4.0039v1.9238h-3.9648v3.8086h-2.1973v-3.8086h-3.7402v-1.9238h3.7793v-5.8594c-1.60153,2.96227 -3.94853,5.60873 -7.041,7.9394l-1.416,-1.7578c3.14453,-2.08333 5.6901,-4.7754 7.6367,-8.0762h-7.0801v-2.002h7.8418v-3.5156h2.2363v3.5156h7.9688v2.002z" fill="#ffffff" stroke-width="1"/><path d="M296.76,170.98v9.4629h-11.621v-9.4629zM287.2385,172.523v1.2207h7.4023v-1.2207zM287.2385,175.1207v1.2207h7.4023v-1.2207zM287.2385,177.7183v1.2598h7.4023v-1.2598zM283.3029,181.7417h16.191v1.6992h-8.0762v6.0644h-2.2168v-6.0644h-8.0371v-10.957h2.1387zM280.8029,187.6401c1.54947,-0.71613 3.0306,-1.9173 4.4434,-3.6035l1.7969,1.0449c-1.3932,1.76433 -2.93943,3.15107 -4.6387,4.1602zM297.6389,188.8999c-0.99607,-1.22393 -2.49347,-2.50973 -4.4922,-3.8574l1.6797,-1.1816c1.569,0.90493 3.1087,2.09307 4.6191,3.5644z" fill="#ffffff" stroke-width="1"/><path d="M317.84,173.68v13.555c0,0.8138 -0.21484,1.3672 -0.64453,1.6602c-0.32553,0.21485 -0.82683,0.32227 -1.5039,0.32227c-0.8138,0 -1.8034,-0.04557 -2.9688,-0.13672l-0.40039,-2.0801c1.0026,0.14323 1.95963,0.21485 2.8711,0.21485c0.29948,0 0.47852,-0.06836 0.53711,-0.20508c0.0456,-0.09766 0.0684,-0.2474 0.0684,-0.44922v-12.881h-8.3789v-1.9238h12.08v1.9238zM305.535,177.6058c1.11327,1.3932 1.6699,2.9785 1.6699,4.7559c0,0.83333 -0.10417,1.4974 -0.3125,1.9922c-0.29948,0.72267 -0.97655,1.084 -2.0312,1.084c-0.37761,0 -0.77147,-0.03253 -1.1816,-0.0976l-0.43945,-1.9824c0.46224,0.09115 0.86914,0.13672 1.2207,0.13672c0.33854,0 0.54687,-0.13021 0.625,-0.39062c0.07813,-0.27344 0.11719,-0.67057 0.11719,-1.1914c0,-1.45833 -0.47853,-2.82227 -1.4356,-4.0918c0.53385,-1.569 0.96029,-3.138 1.2793,-4.707h-1.9238v16.387h-1.9629v-18.203h5.1074l1.0156,0.85937c-0.48829,2.07033 -1.07095,3.88673 -1.748,5.4492zM314.1776,176.1117v7.8418h-4.2383v1.4355h-1.7578v-9.2773zM309.9393,177.8109v4.3652h2.5v-4.3652z" fill="#ffffff" stroke-width="1"/><path d="M327.01,178.21h2.6856v6.5625h-7.9785v-5.5957c-0.14974,0.13021 -0.36458,0.30273 -0.64453,0.51758l-0.95703,-1.4062c1.46487,-1.0156 2.62373,-2.36 3.4766,-4.0332l1.377,0.89844h2.6856l0.87891,0.78125c-0.57292,0.93747 -1.08072,1.69593 -1.5234,2.2754zM324.8909,179.5284h-1.5723v1.2598h1.5723zM326.4534,179.5284v1.2598h1.6211v-1.2598zM324.8909,182.0479h-1.5723v1.3867h1.5723zM326.4534,182.0479v1.3867h1.6211v-1.3867zM325.0667,178.21c0.37109,-0.48177 0.72589,-1.00587 1.0644,-1.5723h-1.9629l-0.10742,0.14649c-0.44922,0.57291 -0.87565,1.04818 -1.2793,1.4258zM335.8477,181.2178c1.15887,1.9206 2.40887,3.42127 3.75,4.502l-1.1035,1.875c-1.2044,-1.27607 -2.22327,-2.7116 -3.0566,-4.3066v6.2305h-1.8848v-6.0644c-0.64453,1.54293 -1.4909,2.8971 -2.5391,4.0625l-1.0449,-1.8164c1.237,-1.13933 2.2624,-2.63347 3.0762,-4.4824h-2.9102v-1.6602h3.418v-2.0703c-0.78127,0.1237 -1.66017,0.24089 -2.6367,0.35157l-0.76172,-1.6016c2.7474,-0.29297 5.1823,-0.778 7.3047,-1.4551l1.0938,1.5918c-1.03513,0.3125 -2.07353,0.56966 -3.1152,0.77149v2.4121h3.7988v1.6602zM325.6917,172.0186v-1.5234h2.0996v1.5234h4.2188v-1.5234h2.1484v1.5234h5.2344v1.6211h-5.2344v1.0938h-2.1484v-1.0938h-4.2188v1.0742h-2.0996v-1.0742h-5.1367v-1.6211zM320.3499,188.6596c0.57292,-0.91147 0.99285,-2.06057 1.2598,-3.4473l1.6602,0.45899c-0.26693,1.69273 -0.67056,3.01433 -1.2109,3.9648zM323.7972,189.43108c0.013,-0.26693 0.0195,-0.51432 0.0195,-0.74218c0,-1.10027 -0.08138,-2.0931 -0.24414,-2.9785l1.5039,-0.27344c0.26042,1.16533 0.41993,2.36327 0.47852,3.5938zM326.3558,189.07952c-0.13021,-1.0742 -0.37109,-2.21677 -0.72265,-3.4277l1.377,-0.43946c0.09115,0.25391 0.15951,0.44271 0.20508,0.56641c0.42317,1.14587 0.6901,2.0964 0.80078,2.8516zM328.8363,188.77679c-0.30599,-1.25 -0.68032,-2.35677 -1.123,-3.3203l1.4258,-0.51757c0.46224,0.7552 0.90171,1.7871 1.3184,3.0957z" fill="#ffffff" stroke-width="1"/></g></g></svg>