<?xml version="1.0" encoding="UTF-8"?>
<svg width="480" height="360" version="1.1" viewBox="0 0 480 360" xmlns="http://www.w3.org/2000/svg">
 <g dominant-baseline="central" fill="#fff" aria-label="新潟県上越地方">
  <path d="m246.56 182.77q1.416 0.77148 3.1348 2.168l-1.1133 1.8164q-1.1035-1.2402-2.0215-2.041v4.7852h-2.002v-5.2148q-1.3184 2.4219-3.1348 4.0527l-1.1426-1.8457q2.1777-1.543 3.623-3.8379h-3.0859v-1.7188h3.7402v-1.9043h-4.1211v-1.7969h2.1387q-0.2539-1.2402-0.71289-2.7051h-1.0449v-1.8164h3.7012v-2.2168h2.0801v2.2168h3.5449v1.8164h-1.0449q-0.36133 1.4648-0.89844 2.7051h2.2363v1.7969h-3.877v1.9043h3.5156v1.7188h-3.5156zm-2.7539-8.2422q0.3711 1.2207 0.64453 2.7051h1.9336q0.44922-1.2598 0.77148-2.7051zm9.1895 4.7461q0.01 3.0274-0.46875 5.6152-0.49805 2.6855-1.7676 4.8047l-1.6113-1.4746q1.084-1.7578 1.4844-4.3164 0.35156-2.1875 0.35156-5.5859v-6.123q0.19531-0.0195 0.5957-0.0586 3.1055-0.29297 6.2207-1.3379l1.2793 1.6992q-2.5977 0.87891-6.0742 1.3574v3.3789h6.5527v2.041h-2.2363v10.225h-2.0215v-10.225z" dominant-baseline="central"/>
  <path d="m268.67 179.28h-2.0312v-7.5391l0.10743-0.01q2.5-0.33204 4.248-1.1621l1.3477 1.416q-1.4746 0.5957-3.7207 1.0742v1.6211h3.1543v1.4648h-3.1543v1.6113h7.2949v-1.6113h-3.2129v-1.4648h3.2129v-1.4941h-3.2617v-1.5625h5.2637v7.6562h-7.1973q-0.3125 0.56641-0.81055 1.2793h9.2871q-0.0879 5.3223-0.52735 6.8945-0.2832 1.0059-0.79101 1.4551-0.56641 0.50781-1.7188 0.50781-1.4453 0-2.8223-0.15625l-0.40039-1.9434q1.5332 0.26367 2.5488 0.26367 0.83984 0 1.0547-0.43945 0.42969-0.9082 0.5957-4.9609h-8.6035q-0.81055 0.78125-1.5918 1.3281l1.4551 0.41016q-0.40039 2.8808-1.1621 4.7656l-1.8945-0.9668q0.84961-1.7285 1.3086-4.0039-0.22461 0.14648-0.71289 0.44922l-1.0938-1.2988-0.19531 0.69336q-1.0645 3.75-2.1875 5.8984l-1.8359-1.4746q1.543-2.8613 2.6367-6.8164l1.7383 1.1523-0.11719 0.41016q2.2852-1.2109 3.7891-3.4473zm-4.707-4.2188q-1.25-1.6602-2.9004-2.998l1.4746-1.3867q1.582 1.0938 3.0176 2.8809zm-0.66406 5.0391q-1.2695-1.6602-2.9199-3.1445l1.4844-1.4355q1.748 1.3574 3.0371 3.0176zm6.3965 7.959q-0.16602-2.3047-0.69336-4.3164l1.4941-0.40039q0.76172 2.0117 0.98632 4.0137zm2.959-1.0547q-0.46875-2.0996-1.1133-3.5059l1.3574-0.57617q0.73242 1.4356 1.2402 3.2812zm2.5293-0.92773q-0.46875-1.7383-1.3086-3.0957l1.3281-0.625q0.8789 1.2988 1.377 2.9004z" dominant-baseline="central"/>
  <path d="m296.76 170.98v9.4629h-11.621v-9.4629zm-9.5215 1.543v1.2207h7.4023v-1.2207zm0 2.5977v1.2207h7.4023v-1.2207zm0 2.5976v1.2598h7.4023v-1.2598zm-3.9356 4.0234h16.191v1.6992h-8.0762v6.0644h-2.2168v-6.0644h-8.0371v-10.957h2.1387zm-2.5 5.8984q2.3242-1.0742 4.4434-3.6035l1.7969 1.0449q-2.0898 2.6465-4.6387 4.1602zm16.836 1.2598q-1.4941-1.8359-4.4922-3.8574l1.6797-1.1816q2.3535 1.3574 4.6191 3.5644z" dominant-baseline="central"/>
  <path d="m310.59 176.07h7.0508v2.002h-7.0508v8.1641h8.916v2.041h-19.004v-2.041h7.7246v-15.742h2.3633z" dominant-baseline="central"/>
  <path d="m329.39 182.87v-8.8574h3.5938q-0.0781-1.3281-0.10742-3.5156h1.8945q0.0293 1.6406 0.0781 3.0176l0.0195 0.49805h4.248v1.7774h-4.1406q0.21484 2.5586 0.6543 4.5215 0.8496-1.5332 1.543-3.7598l1.6406 0.78125q-1.3281 3.3984-2.5 5.2441 0.58594 1.4551 0.87891 1.4551 0.10742 0 0.20507-0.34179 0.24414-0.85938 0.38086-2.041l1.5527 0.99609q-0.63477 3.9941-1.8457 3.9941-0.50781 0-1.1523-0.625-0.64453-0.63476-1.2305-1.748-1.2793 1.5137-2.7246 2.6465l-1.3867-1.3184q1.9727-1.3672 3.3398-3.2226-0.90821-2.9688-1.2305-6.582h-1.8262v6.1719q0.88867-0.46875 1.8555-1.0352l0.32226 1.6211q-2.207 1.543-4.4434 2.5781l-0.97656-1.7188q0.69336-0.2539 1.3574-0.53711zm-3.4766 3.2031q1.0352 0.48828 2.4219 0.83008 1.6211 0.39062 2.9785 0.39062h8.3594q-0.44921 0.84961-0.70312 1.9043h-7.7734q-2.8418 0-5.3223-1.084-1.8164-0.78125-3.2227-2.6172-0.32227 2.2754-1.0449 4.0039l-1.416-1.582q0.94727-3.0957 1.084-7.9492l1.7383 0.30274q-0.0293 0.9375-0.19531 2.8809 0.42968 0.69336 1.2109 1.4746v-5.918h-3.6133v-1.8164h3.5352v-2.2168h-3.0176v-1.7773h3.0176v-2.4023h1.9434v2.4023h2.6758v1.7773h-2.6758v2.2168h2.8223v1.8164h-2.8027v2.2266h2.4414v1.7969h-2.4414zm11.221-12.119q-0.67383-1.5625-1.5625-2.7344l1.4551-0.78125q0.85937 1.1133 1.6992 2.6172z" dominant-baseline="central"/>
  <path d="m350.23 178.41v7.7344q0 0.75195 0.64454 0.9082 0.66406 0.16602 3.0371 0.16602 2.3144 0 3.0566-0.23438 0.41992-0.13672 0.54687-0.76172 0.16602-0.8789 0.17578-2.0801l2.041 0.57618q-0.15625 2.8809-0.79102 3.6816-0.41992 0.52734-1.2695 0.625-1.3379 0.14648-4.541 0.14648-2.4805 0-3.252-0.13672-1.1621-0.19531-1.4746-1.0254-0.15625-0.43945-0.15625-1.1719v-7.7441l-1.8652 0.64453-0.45899-1.8945 2.3242-0.80078v-5.2637h1.9824v4.5801l2.0996-0.71289v-5.1465h1.9629v4.4629l3.2715-1.123 1.0254 0.625v7.3144q0 0.76172-0.36133 1.1328-0.41015 0.41015-1.377 0.41015-0.79102 0-1.6797-0.13672l-0.32226-1.8652q0.57617 0.14648 1.1719 0.14648 0.42969 0 0.52734-0.17578 0.0977-0.14648 0.0977-0.48828v-4.6191l-2.3535 0.82031v7.9004h-1.9629v-7.2266zm-7.1777-3.1934v-4.7168h2.0996v4.7168h1.8945v1.9824h-1.8945v6.2109q1.0254-0.35156 2.0312-0.73242l0.18555 1.8848q-3.1641 1.4453-6.4941 2.4219l-0.6836-2.0801q1.5039-0.39062 2.6367-0.74218 0.13672-0.0488 0.22461-0.0684v-6.8945h-2.4805v-1.9824z" dominant-baseline="central"/>
  <path d="m369.48 175.76q-0.0684 1.6309-0.19531 2.8711h7.8711q-0.14648 6.7774-0.76172 8.7988-0.3125 1.0156-1.1621 1.4062-0.66406 0.30273-1.9434 0.30273-1.3477 0-3.0566-0.20507l-0.38085-2.1973q2.2949 0.32227 3.2324 0.32227 0.79101 0 1.0059-0.44922 0.51757-1.0938 0.72265-6.0352h-5.8105q-0.32227 1.7578-0.90821 3.0469-1.6309 3.5644-5.4492 5.6543l-1.543-1.7188q3.8281-1.9922 5.0586-5.2246 0.82031-2.1582 1.0644-6.5723h-6.4648v-2.002h7.9785v-3.2617h2.2559v3.2617h8.2422v2.002z" dominant-baseline="central"/>
 </g>
</svg>
