<svg xmlns="http://www.w3.org/2000/svg" viewBox="0 0 400 400" version="1.1" height="400" width="400"><defs><radialGradient gradientUnits="userSpaceOnUse" gradientTransform="translate(-40,20)" r="200" cy="180" cx="240" id="a"><stop offset="0" stop-color="#f6cb51"></stop><stop offset=".4" stop-color="#f6cb51"></stop><stop offset=".55" stop-opacity=".5607843" stop-color="#f6cb51"></stop><stop offset=".7" stop-opacity=".2509804" stop-color="#f6cb51"></stop><stop offset=".85" stop-opacity=".05882353" stop-color="#f6cb51"></stop><stop offset="1" stop-opacity="0" stop-color="#f6cb51"></stop></radialGradient></defs><path style="mix-blend-mode:normal" stroke-width="0" stroke-miterlimit="10" fill="none" d="m0 400v-400h400v400z"></path><path style="mix-blend-mode:normal" stroke-miterlimit="10" opacity=".25" fill-rule="evenodd" fill="url(#a)" d="m0 200c0-110.46 89.543-200 200-200s200 89.543 200 200c0 110.46-89.543 200-200 200s-200-89.543-200-200z"></path><path style="mix-blend-mode:normal" stroke-width="12" stroke="#cea735" fill-rule="evenodd" fill="#f6cb51" d="m120 100h160c11.08 0 20 8.92 20 20v160c0 11.08-8.92 20-20 20h-160c-11.08 0-20-8.92-20-20v-160c0-11.08 8.92-20 20-20z"></path><path style="font-feature-settings:normal;font-variant-alternates:normal;font-variant-caps:normal;font-variant-east-asian:normal;font-variant-ligatures:normal;font-variant-numeric:normal;font-variant-position:normal;font-variation-settings:normal;inline-size:0;isolation:auto;mix-blend-mode:normal;shape-margin:0;shape-padding:0;text-decoration-color:#000000;text-decoration-line:none;text-decoration-style:solid;text-indent:0;text-orientation:mixed;text-transform:none;white-space:normal" stop-color="#000000" shape-rendering="auto" image-rendering="auto" fill="#1c1c1c" color-rendering="auto" color="#000000" d="m201.09 143.44-0.21094 0.10352c-8.6275 4.2927-19.735 8.1-33.307 11.396l-0.9707 0.23633 3.6152 14.973 0.92773-0.16797c7.7314-1.3982 15.955-3.5724 24.604-6.4102v90.73h1l17.951-0.00195v-110.86h-13.609z"></path></svg>
