<?xml version="1.0" encoding="UTF-8"?>
<svg width="480" height="360" version="1.1" viewBox="0 0 480 360" xmlns="http://www.w3.org/2000/svg">
 <g fill="#fff" aria-label="北海道日本海沿岸南部">
  <path d="m245.84 184.3q-2.6953 1.416-4.6973 2.168l-0.82031-2.1484q3.1348-1.0547 5.5176-2.1875v-4.375h-4.834v-2.0606h4.834v-5.1953h2.1777v19.004h-2.1777zm6.9434-7.6074q2.2754-1.1914 4.4141-3.0273l1.6211 1.6992q-2.8906 2.0508-6.0352 3.4961v7.3242q0 0.47852 0.3125 0.58594 0.33204 0.10742 1.5332 0.10742 1.582 0 1.9824-0.18555 0.2832-0.12695 0.39062-0.79101 0.14649-0.92774 0.21485-2.998l2.1875 0.67383q-0.0977 2.5293-0.3125 3.6328-0.24414 1.2305-1.2793 1.5918-0.98633 0.33203-3.2324 0.33203-2.6367 0-3.3203-0.43945-0.6543-0.42969-0.6543-1.6504v-16.543h2.1777z"/>
  <path d="m277.76 175.8q0 0.45899-0.0879 4.3555h1.8652v1.7578h-1.9043q-0.0293 1.2793-0.12695 2.9004h1.6504v1.7188h-1.7774q-0.11718 1.416-0.32226 1.875-0.45899 1.0938-2.2266 1.0938-1.1328 0-2.0898-0.16601l-0.36133-1.7383q1.377 0.19531 2.1094 0.19531 0.5957 0 0.71289-0.41992 0.0586-0.20508 0.10742-0.83985h-6.9531q-0.01 0.0781-0.0293 0.16602-0.0879 0.51758-0.16602 0.97656l-2.0215-0.19531q0.5957-3.5254 0.80078-5.332l0.0293-0.23438h-1.9531v-1.7578h2.1582q0.27343-2.3633 0.46875-4.3555zm-6.1719 1.6992h-2.1387q-0.0293 0.49805-0.17578 2.0996l-0.0586 0.55664h2.168l0.0293-0.27344q0.0195-0.2832 0.0586-0.79101 0.0977-1.3672 0.11719-1.5918zm1.9238 0q-0.0488 1.1621-0.14649 2.5684v0.0879h2.2949q0.0391-1.3379 0.0684-2.6562zm-2.2852 4.4141h-2.1973q-0.14648 1.1914-0.3125 2.3535l-0.0781 0.54687h2.2852q0.23437-2.1191 0.30273-2.9004zm2.002 0q-0.0293 0.39063-0.11718 1.2891l-0.15625 1.6113h2.4902q0.0488-0.94726 0.0781-1.4258 0.0586-1.0449 0.0781-1.4746zm-3.8281-9.6387h9.4336v1.8164h-10.244q-0.79101 1.6113-2.0117 3.0664l-1.3965-1.5234q1.9238-2.2559 2.7344-5.1953l2.0801 0.21485q-0.35156 1.0156-0.5957 1.6211zm-5.3809 2.8418q-1.2012-1.6504-2.9199-3.0957l1.4746-1.4258q1.5918 1.1719 3.0273 2.959zm-0.70313 5.1562q-1.4844-1.9043-2.998-3.1934l1.5234-1.4648q1.6992 1.3379 3.0566 3.0469zm-2.6562 7.666q1.6992-2.3535 3.2227-6.2012l1.7383 1.2402q-1.2695 3.5547-3.2617 6.5234z"/>
  <path d="m285.22 184.92q1.0059 1.1914 2.4316 1.6992 1.4746 0.51758 3.9453 0.51758h8.2031q-0.37109 0.91797-0.60547 1.9434h-8.0957q-3.291 0-4.9707-1.0254-0.77148-0.46875-1.6406-1.4062-1.3184 1.6504-2.9883 2.9102l-1.2012-1.9629q1.4941-0.85938 2.8418-2.0312v-4.9805h-2.6465v-1.9238h4.7266zm6.1621-10.469h-5.3027v-1.6797h3.1152q-0.52734-0.85938-1.1133-1.6406l1.9336-0.70312q0.83008 1.2402 1.3086 2.3438h2.5q0.39062-0.79102 0.94726-2.3633l2.1875 0.45898q-0.44922 0.98633-1.0059 1.9043h3.2617v1.6797h-5.752q-0.24414 0.75196-0.51758 1.4453h5.0293v10.078h-10.674v-10.078h3.623q0.26367-0.75196 0.45898-1.4453zm-2.0606 2.8613v1.4648h6.6113v-1.4648zm0 2.7832v1.4844h6.6113v-1.4844zm0 2.8613v1.5332h6.6113v-1.5332zm-5.4883-7.1582q-1.4062-2.2266-2.998-3.7598l1.6211-1.2793q1.875 1.7383 3.1055 3.5938z"/>
  <path d="m317.56 171.56v17.559h-2.3242v-1.5234h-10.469v1.5234h-2.3047v-17.559zm-12.793 1.9824v4.8535h10.469v-4.8535zm0 6.7774v5.2344h10.469v-5.2344z"/>
  <path d="m331.77 176.02q3.2031 4.668 7.8711 7.4707l-1.3867 1.8848q-4.7754-3.4961-7.2656-7.5586v5.957h4.0039v1.9238h-3.9648v3.8086h-2.1973v-3.8086h-3.7402v-1.9238h3.7793v-5.8594q-2.4023 4.4434-7.041 7.9394l-1.416-1.7578q4.7168-3.125 7.6367-8.0762h-7.0801v-2.002h7.8418v-3.5156h2.2363v3.5156h7.9688v2.002z"/>
  <path d="m357.76 175.8q0 0.45899-0.0879 4.3555h1.8652v1.7578h-1.9043q-0.0293 1.2793-0.12695 2.9004h1.6504v1.7188h-1.7774q-0.11718 1.416-0.32226 1.875-0.45899 1.0938-2.2266 1.0938-1.1328 0-2.0898-0.16601l-0.36133-1.7383q1.377 0.19531 2.1094 0.19531 0.5957 0 0.71289-0.41992 0.0586-0.20508 0.10742-0.83985h-6.9531q-0.01 0.0781-0.0293 0.16602-0.0879 0.51758-0.16602 0.97656l-2.0215-0.19531q0.5957-3.5254 0.80078-5.332l0.0293-0.23438h-1.9531v-1.7578h2.1582q0.27343-2.3633 0.46875-4.3555zm-6.1719 1.6992h-2.1387q-0.0293 0.49805-0.17578 2.0996l-0.0586 0.55664h2.168l0.0293-0.27344q0.0195-0.2832 0.0586-0.79101 0.0977-1.3672 0.11719-1.5918zm1.9238 0q-0.0488 1.1621-0.14649 2.5684v0.0879h2.2949q0.0391-1.3379 0.0684-2.6562zm-2.2852 4.4141h-2.1973q-0.14648 1.1914-0.3125 2.3535l-0.0781 0.54687h2.2852q0.23437-2.1191 0.30273-2.9004zm2.002 0q-0.0293 0.39063-0.11718 1.2891l-0.15625 1.6113h2.4902q0.0488-0.94726 0.0781-1.4258 0.0586-1.0449 0.0781-1.4746zm-3.8281-9.6387h9.4336v1.8164h-10.244q-0.79101 1.6113-2.0117 3.0664l-1.3965-1.5234q1.9238-2.2559 2.7344-5.1953l2.0801 0.21485q-0.35156 1.0156-0.5957 1.6211zm-5.3809 2.8418q-1.2012-1.6504-2.9199-3.0957l1.4746-1.4258q1.5918 1.1719 3.0273 2.959zm-0.70313 5.1562q-1.4844-1.9043-2.998-3.1934l1.5234-1.4648q1.6992 1.3379 3.0566 3.0469zm-2.6562 7.666q1.6992-2.3535 3.2227-6.2012l1.7383 1.2402q-1.2695 3.5547-3.2617 6.5234z"/>
  <path d="m377.86 180.14v9.3652h-2.1973v-1.123h-6.2012v1.123h-2.1777v-9.3652zm-8.3984 1.8848v4.4531h6.2012v-4.4531zm-4.6777-6.8457q-1.5039-1.6894-3.2617-2.959l1.3965-1.5625q1.9727 1.2402 3.3203 2.8223zm-1.1035 5.2637q-1.6504-1.8164-3.3398-2.9785l1.4356-1.6211q1.9824 1.2891 3.4473 2.9199zm-3.2226 7.2559q1.9531-2.4121 3.7207-6.2402l1.6602 1.4844q-1.5039 3.7012-3.4961 6.4746zm17.402-8.0371q-3.4082-3.623-5.0195-8.3594l2.0215-0.80078q1.4844 4.1016 4.6191 7.4023zm-12.197-1.5234q2.7344-2.7539 3.916-7.4219l2.0606 0.625q-1.1035 5.0586-4.3945 8.4766z"/>
  <path d="m391.18 173.6h4.4238v-2.3535h2.0801v4.0332h-14.961v-4.0332h2.0801v2.3535h4.2969v-3.0957h2.0801zm-7.002 4.707v2.041q0 3.3789-0.42969 5.2637-0.45898 1.9824-1.7676 3.7305l-1.7188-1.416q0.89844-1.25 1.2598-2.4707 0.49805-1.6797 0.49805-5.2246v-3.6621h17.002v1.7383zm8.3008 3.0566v1.8066h6.6992v1.7383h-6.6992v4.5996h-2.1973v-4.5996h-5.8789v-1.7383h5.8789v-1.8066h-4.8828v-1.6406h12.344v1.6406z"/>
  <path d="m408.91 182.24h-4.043v-1.6016h1.9531q-0.43945-0.9961-0.99609-1.8555l1.7578-0.64453q0.76172 1.2793 1.2305 2.5h2.2949q0.57617-1.1816 1.0156-2.5391l1.9629 0.61524q-0.49805 1.0742-1.0547 1.9238h2.0996v1.6016h-4.1797v1.4258h4.4531v1.6602h-4.4531v3.6914h-2.041v-3.6914h-4.2871v-1.6602h4.2871zm2.0996-6.0156h7.4023v11.416q0 1.0059-0.53711 1.416-0.44922 0.35157-1.5137 0.35157-1.377 0-2.6562-0.14649l-0.47852-1.9629q1.709 0.20508 2.5586 0.20508 0.35156 0 0.41015-0.17578 0.0391-0.10742 0.0391-0.30274v-9.1016h-12.48v11.582h-2.1777v-13.281h7.2754v-1.7676h-8.3594v-1.8164h8.3594v-2.1387h2.1582v2.1387h8.4766v1.8164h-8.4766z"/>
  <path d="m426.98 172.76h4.1797v1.8848h-1.377q-0.3711 1.4941-0.9961 3.1348h2.6074v1.8848h-10.898v-1.8848h2.3926q-0.39063-1.875-0.82032-3.1348h-1.2695v-1.8848h4.1406v-2.2559h2.041zm-2.9394 1.8848q0.49805 1.4551 0.77148 3.1348h1.9922l0.0977-0.27344q0.41992-1.1133 0.78125-2.5293l0.0879-0.33203zm6.0547 6.6602v7.998h-2.002v-0.95703h-4.2578v1.1621h-2.0605v-8.2031zm-6.2598 1.7969v3.3887h4.2578v-3.3887zm13.047-4.9316q1.1621 1.1035 1.8457 2.627 0.67383 1.5234 0.67383 3.0859 0 1.4453-0.53711 2.1289-0.55664 0.71289-1.8359 0.71289-1.0938 0-2.1191-0.15625l-0.47851-2.0801q1.1816 0.21485 1.9531 0.21485 0.58594 0 0.73242-0.27344 0.0977-0.19531 0.0977-0.78125 0-2.4121-1.4453-4.1602-0.38086-0.45898-0.95704-0.98633l0.11719-0.27343q1.0156-2.2949 1.582-4.7852h-2.5v16.064h-2.0215v-18.086h5.8789l1.084 0.99609q-0.98633 3.3594-2.0703 5.752z"/>
 </g>
</svg>
