<?xml version="1.0" encoding="UTF-8"?>
<svg width="480" height="360" version="1.1" viewBox="0 0 480 360" xmlns="http://www.w3.org/2000/svg">
 <g dominant-baseline="central" fill="#fff" aria-label="日向灘">
  <path d="m257.56 171.56v17.559h-2.3242v-1.5234h-10.469v1.5234h-2.3047v-17.559zm-12.793 1.9824v4.8535h10.469v-4.8535zm0 6.7774v5.2344h10.469v-5.2344z" dominant-baseline="central"/>
  <path d="m274.27 177.58v7.2363h-6.5234v1.4453h-2.0801v-8.6816zm-2.0801 1.7578h-4.4434v3.6621h4.4434zm-4.4922-6.0352q0.53711-1.5039 0.83008-2.8418l2.4414 0.32227q-0.54688 1.5039-1.0352 2.5195h8.5547v14.014q0 1.1524-0.47852 1.6113-0.48828 0.45899-1.8945 0.45899-2.207 0-3.3106-0.16602l-0.41992-2.041q1.8164 0.19532 3.2812 0.19532 0.48828 0 0.60547-0.23438 0.0781-0.15625 0.0781-0.45898v-11.475h-12.666v14.297h-2.1387v-16.201z" dominant-baseline="central"/>
  <path d="m289.3 175.71v0.88867h2.6562v1.2012q1.3965-3.4473 1.8848-7.3926l1.7773 0.26367q-0.36132 2.0605-0.69336 3.3594h1.0156q0.45898-1.7285 0.71289-3.5156l1.709 0.3125q-0.36132 1.7188-0.86914 3.2031h2.0312v1.7578h-1.9043v2.4902h1.5625v1.6992h-1.5625v2.4316h1.5625v1.7285h-1.5625v2.6172h2.0996v1.7969h-4.8145v0.9375h-1.6602v-10.82q-0.21485 0.51758-0.60547 1.3086l-0.6836-1.9629v2.3438h-2.6562v0.9375h2.793v1.416h-2.793q-0.0195 0.67383-0.0391 0.98633h3.3984v1.416h-3.584q-0.0195 0.10742-0.0684 0.3125 1.8066 1.0644 3.5156 2.4902l-1.1621 1.4551q-1.3281-1.2891-2.8516-2.4219l-0.10742-0.0879q-1.1328 1.8848-3.252 2.9102l-1.2402-1.5625q1.8262-0.64453 2.6856-1.8555 0.34179-0.46875 0.57617-1.2402h-2.9297v-1.416h3.2324q0.0684-0.67383 0.0781-0.98633h-2.7832v-1.416h2.793v-0.9375h-2.6562v-3.7598h2.6367v-0.88867h-1.6602v-2.1777h-0.97657l-1.5039 1.416q-0.9375-1.4746-2.6172-3.1348l1.4844-1.2598q1.2109 1.0059 2.373 2.5586v-1.0644h1.2402v-1.6797h1.6992v1.6797h1.7188v-1.6797h1.6797v1.6797h1.6211v1.4844h-1.6211v2.1777zm-1.6602 2.1289h-1.2598v1.2988h1.2598zm1.5625 0v1.2988h1.3184v-1.2988zm-1.6211-4.3066v0.97656h1.7188v-0.97656zm7.3242 2.2559v2.4902h1.1719v-2.4902zm0 4.1894v2.4316h1.1719v-2.4316zm0 4.1602v2.6172h1.1719v-2.6172zm-12.246-4.3652q-1.4356-1.9922-2.5586-3.1152l1.5234-1.2793q1.4648 1.3086 2.6367 3.0176zm-2.3633 8.418q1.377-2.9394 2.3438-7.1777l1.7578 0.87891q-0.75195 3.8965-2.2168 7.6856z" dominant-baseline="central"/>
 </g>
</svg>
