<svg version="1.1" xmlns="http://www.w3.org/2000/svg" xmlns:xlink="http://www.w3.org/1999/xlink" width="125.52146" height="193.83049" viewBox="0,0,125.52146,193.83049"><g transform="translate(-168.44845,-1.58811)"><g data-paper-data="{&quot;isPaintingLayer&quot;:true}" fill="none" fill-rule="evenodd" stroke="#d645ff" stroke-width="72" stroke-linecap="round" stroke-linejoin="round" stroke-miterlimit="4" stroke-dasharray="" stroke-dashoffset="0" style="mix-blend-mode: normal"><g><path d="M212.62713,107.81687l2.4796,-0.91985l0.53991,-1.69973l2.09966,-0.75988l0.03,-2.08967l4.10934,-0.09998l4.78923,-2.71956l0.91985,-1.92969l-1.19981,-2.13966l3.08951,-3.7394l-0.58991,-2.87954l0.75988,-2.34962l-3.21948,-6.64894l-0.49992,-1.82971l-4.3793,-3.1095l-3.60942,1.16981l-1.72972,-0.47992l-1.90969,1.80971l-2.94953,1.45977l-3.98936,-5.40913l1.01984,-2.42961l1.78971,0.05999l1.8497,-1.8697l0.19997,-3.36946l2.04967,-0.56991l-0.10998,-1.35978l-3.22948,-2.05967l-0.29995,-2.39962l-1.68973,-2.99952l-0.17997,-1.8897l-2.4696,-2.5296l0.11998,-1.56975l-1.96968,-3.67941l2.36962,0.54991l1.8997,-2.04967l5.33915,-4.20933l1.11982,-3.48944l1.32979,0.28995l3.89938,3.58943l0.27996,1.79971l7.81875,0.90985l0.65989,2.31963l2.43961,1.39978l-0.80987,1.68973l2.38962,1.04983l1.18981,3.82939l-0.22996,2.77956l-1.52976,1.45977l1.8997,2.5296l0.50992,4.3593l1.96968,6.00904l2.44961,0.47992l4.70925,2.86954l-0.03999,3.27948l5.6091,1.41977l0.28995,1.76972l3.07951,3.40945l-1.31979,3.68941l0.65989,1.57975l0.09998,4.82923l-3.90937,1.62974l-2.99952,4.06935l-3.82939,1.28979l-4.68925,3.25948l1.42977,2.61958l1.8997,-0.94985l3.31947,-0.07999l4.08935,-1.34978l1.8797,0.36994l7.27884,-2.4896l0.96984,1.2598l-0.76988,2.25964l-1.30979,-1.2798l-2.11966,1.01984l1.45977,1.38978l-2.5296,1.2198l-1.8897,1.99968l-2.73956,4.54927l-1.8597,-0.03999l-0.75988,1.46976l3.1395,2.25964l-2.07967,0.77988l-0.42993,1.8597l2.24964,1.00984l0.87986,4.31931l-5.41913,5.42913l-3.34946,3.98936l2.13966,0.6199l-2.4796,1.2498l-0.23996,2.03967l-1.41977,0.03999l0.6099,2.98952l1.77972,0.15997l-1.2398,1.53975l-1.19981,-1.11982l-1.67973,1.03983l0.18997,1.81971l-2.23964,0.91985l-0.57991,3.1095l-1.97968,0.32995l-2.94953,3.62942l0.69989,1.48976l-1.97968,1.15981l0.03999,1.60974"/><path d="M227.36478,137.72208l1.8797,1.07983l-2.91953,3.62942l-1.60974,0.94985l-2.34962,-0.25996l2.83955,-1.19981l0.35994,-2.4696l1.79971,-1.72972"/><path d="M223.29543,135.84238l2.41961,2.25964l-2.85954,1.14982l-0.6399,-2.84954l1.07983,-0.55991"/><path d="M211.55731,119.79495l-0.47992,0.78987l1.61974,2.90953l-1.15981,1.62974l1.2698,3.53943l-1.02984,5.15917l1.99968,-0.87986l0.6099,2.79955l-1.82971,2.63958l-0.74988,2.75956l-2.69957,1.50976l0.21996,-3.41945l-2.08967,2.07967"/><path d="M237.90309,116.61546l-2.30963,5.20917l-0.88986,3.67941l-2.08967,2.40961l0.80987,1.48976l-3.58943,4.73924l-1.59974,-0.67989l-0.77988,1.31979l-0.79987,-5.09918l-1.8797,2.45961l-2.36962,0.29995l-4.3793,-1.62974l-0.94985,2.71956l-1.8697,0.26996l1.01984,-3.21948l-2.28963,-0.37994l-1.63974,-4.23932l7.71876,-3.86938l3.38946,-3.96936l4.46928,-1.2598l1.17981,0.30995l2.24964,3.02952l1.65973,-2.25964l4.93921,-1.32979"/><path d="M239.18288,109.79655l1.38978,2.05967l-2.34962,3.67941l-0.33995,-4.14934l1.29979,-1.58975"/><path d="M241.18256,107.18697l1.55975,0.30995l-0.02,1.8497l-1.66973,1.81971l-1.8697,-3.27948l1.99968,-0.69989"/><path d="M236.14337,105.27728l1.47976,1.34978l-1.31979,2.69957l1.43977,0.37994l-1.58975,1.94969l0.36994,2.76956l-4.18933,-0.24996l1.18981,-3.56943l-2.32963,-0.92985l2.59958,-3.40945l2.34962,-0.98984"/></g></g></g></svg>