<svg version="1.1" xmlns="http://www.w3.org/2000/svg" xmlns:xlink="http://www.w3.org/1999/xlink" width="224" height="320" viewBox="0,0,224,320"><g transform="translate(-128,-180)"><g data-paper-data="{&quot;isPaintingLayer&quot;:true}" stroke-miterlimit="10" stroke-dasharray="" stroke-dashoffset="0" style="mix-blend-mode: normal"><path d="M352,180v320h-224v-320z" fill="#1d2a41" fill-rule="evenodd" stroke="none" stroke-width="1" stroke-linecap="butt" stroke-linejoin="miter"/><g fill="#ffffff" fill-rule="nonzero" stroke="none" stroke-width="1" stroke-linecap="butt" stroke-linejoin="miter"><path d="M148.98242,357.9795l0.06152,-2.87109h1.37403l-0.04785,2.87109h2.70703c-0.06836,4.77148 -0.23242,7.7474 -0.49219,8.92774c-0.10937,0.49674 -0.28939,0.84537 -0.54004,1.04589c-0.24609,0.1914 -0.6403,0.28711 -1.18262,0.28711c-0.52409,0 -1.02311,-0.02733 -1.49707,-0.082l-0.28027,-1.41504c0.53776,0.07292 1.02311,0.10938 1.45605,0.10938c0.29166,0 0.48534,-0.08203 0.58105,-0.24609c0.26888,-0.46485 0.45574,-2.88705 0.56055,-7.26661h-1.40821c-0.12304,2.0599 -0.43294,3.75522 -0.92968,5.08594c-0.58789,1.57682 -1.39681,2.90072 -2.42676,3.97168l-0.97754,-1.06641c1.01172,-0.99349 1.74773,-2.24446 2.20801,-3.75293c0.38281,-1.23958 0.63802,-2.65234 0.76563,-4.23828h-1.81153v-1.03222h-7.07519v-1.29883h3.11035v-1.90039h1.45606v1.90039h2.76855v0.9707zM143.33594,364.41896c-0.56966,-0.64714 -1.17578,-1.25782 -1.81836,-1.83204l0.90918,-0.95703c0.45117,0.38738 1.00488,0.9069 1.66113,1.5586c0.35091,-0.6289 0.65625,-1.27377 0.91602,-1.93457l1.25781,0.61523c-0.25976,0.67448 -0.64942,1.47429 -1.16895,2.39941c0.51041,0.57422 0.96159,1.11882 1.35351,1.63379l-1.0664,1.13477c-0.39649,-0.57422 -0.76563,-1.07324 -1.10742,-1.49707c-0.81575,1.15299 -1.77279,2.09407 -2.87109,2.82324l-1.10742,-1.16211c1.22135,-0.67448 2.23535,-1.60188 3.04199,-2.78222zM139.86328,361.50685c0.87956,-0.66082 1.63151,-1.61784 2.25586,-2.8711l1.18945,0.62891c-0.62435,1.32162 -1.44238,2.39486 -2.4541,3.21972zM146.61035,361.95118c-0.61524,-0.89778 -1.36264,-1.80241 -2.24219,-2.71387l1.05274,-0.73828c0.86133,0.80208 1.57455,1.61784 2.13965,2.44727zM162.46289,363.4756c1.35808,1.17578 3.01009,2.12825 4.95606,2.85742l-0.92285,1.31933c-2.08724,-0.9388 -3.80306,-2.16471 -5.14746,-3.67773v4.43652h-1.4834v-4.38183c-1.29883,1.67253 -2.96908,2.96452 -5.01075,3.87597l-0.90918,-1.23047c1.93685,-0.74284 3.58887,-1.80924 4.95605,-3.19921h-4.90136v-1.2168h5.86524v-1.01856h-4.6211v-5.6123h10.81445v5.6123h-4.70996v1.01856h5.9541v1.2168zM156.7002,356.72169v1.11426h3.16504v-1.11426zM156.7002,358.91603v1.23046h3.16504v-1.23046zM164.60254,360.14649v-1.23046h-3.25391v1.23046zM164.60254,357.83595v-1.11426h-3.25391v1.11426zM175.34863,356.37989h4.95605v1.2168h-1.93457c-0.22787,0.71549 -0.47852,1.37402 -0.75195,1.97559h3.68457v1.24414h-13.30273v-1.24414h3.58886c-0.18685,-0.63347 -0.43978,-1.29199 -0.75879,-1.97559h-1.83886v-1.2168h4.86035v-1.27148h1.49707zM172.44336,357.59669c0.26888,0.61523 0.50585,1.27376 0.71094,1.97559h2.93262c0.26888,-0.62435 0.49903,-1.28288 0.69043,-1.97559zM179.16992,361.75978v6.65136h-1.52441v-0.71777h-6.00879v0.71777h-1.51075v-6.65136zM171.63672,362.92188v1.18946h6.00879v-1.18946zM171.63672,365.20509v1.3125h6.00879v-1.3125zM183.18945,357.02931h3.68457c0.4056,-0.64714 0.71321,-1.16895 0.92285,-1.56543l1.52442,0.21875c-0.13672,0.2461 -0.37826,0.64713 -0.72461,1.20312l-0.08887,0.14356h4.81933v1.34668h-5.72851c-0.597,0.82031 -1.16667,1.53125 -1.70899,2.13281c0.86133,-0.51497 1.64746,-0.77246 2.3584,-0.77246c1.10287,0 1.8252,0.55371 2.167,1.66113c1.16666,-0.38736 2.35611,-0.77018 3.56835,-1.14844l0.5879,1.32618l-0.23926,0.0684l-0.67676,0.17774c-1.27604,0.34636 -2.29687,0.64257 -3.0625,0.88867c0.05469,0.59244 0.09343,1.35807 0.11622,2.29688l-1.49707,0.082c-0.00454,-0.54232 -0.01364,-1.13021 -0.02734,-1.76367v-0.13672c-2.09635,0.71549 -3.14453,1.43554 -3.14453,2.16015c0,0.3737 0.26889,0.62891 0.80665,0.76563c0.51953,0.13216 1.44922,0.19824 2.78906,0.19824c1.23503,0 2.53157,-0.07063 3.88965,-0.21191l0.16406,1.45605c-1.31706,0.10026 -2.68197,0.15039 -4.09473,0.15039c-1.74088,0 -2.97819,-0.13216 -3.71192,-0.39648c-0.9069,-0.32812 -1.36035,-0.9183 -1.36035,-1.77051c0,-0.72006 0.32128,-1.3558 0.96386,-1.90723c0.66537,-0.56966 1.83659,-1.15755 3.51368,-1.76367c-0.09115,-0.35091 -0.21192,-0.597 -0.36231,-0.73828c-0.16862,-0.15951 -0.39193,-0.23926 -0.66992,-0.23926c-0.45117,0 -1.01855,0.1709 -1.70215,0.5127c-0.8431,0.41926 -1.74773,1.05045 -2.71387,1.89355l-0.90918,-1.03906c1.41732,-1.31706 2.52702,-2.61133 3.3291,-3.88281h-2.78223zM200.27929,356.20216v9.44726h-2.71387v1.13477h-1.25781v-10.58203zM197.56542,357.54884v6.7539h1.46973v-6.7539zM203.51268,356.28419c0.11849,-0.32356 0.23698,-0.75651 0.35547,-1.29883l1.52441,0.21875c-0.12304,0.35546 -0.27343,0.7155 -0.45117,1.08008h3.16503v4.26562h-5.63965v0.64942h6.89746v1.08008h-6.89746v0.64257h6.5625c-0.05013,2.26042 -0.15038,3.71192 -0.30078,4.3545c-0.09571,0.4056 -0.25749,0.69498 -0.48535,0.86816c-0.23698,0.17773 -0.63346,0.2666 -1.18945,0.2666c-0.55599,0 -1.04134,-0.02506 -1.45605,-0.0752l-0.27344,-1.3125c0.53776,0.07292 1.04362,0.10937 1.51758,0.10937c0.26433,0 0.43295,-0.07063 0.50586,-0.21191c0.11849,-0.23242 0.22102,-1.17578 0.30761,-2.83008l0.0068,-0.10254h-6.56933v-7.7041zM202.46679,357.26173v0.7041h4.26563v-0.7041zM202.46679,358.87501v0.72461h4.26563v-0.72461zM202.6787,367.62501c-0.03646,-1.10742 -0.12533,-2.09179 -0.2666,-2.95313l0.96387,-0.19824c0.24153,0.93881 0.39192,1.87761 0.45117,2.81641zM200.04686,367.35841c0.41927,-0.89324 0.69954,-1.85483 0.84082,-2.88477l1.1211,0.22559c-0.15039,1.36719 -0.38965,2.46321 -0.71777,3.28808zM204.56542,367.17384c-0.18685,-1.01628 -0.39649,-1.88444 -0.62891,-2.60449l0.88183,-0.30762c0.3099,0.6836 0.58106,1.5153 0.81348,2.49512zM206.30175,366.54493c-0.18685,-0.67448 -0.45801,-1.37858 -0.81348,-2.1123l0.82715,-0.37598c0.38281,0.60612 0.68132,1.26237 0.89551,1.96875zM218.96191,358.28712c-1.72722,-0.76562 -3.67317,-1.35352 -5.83789,-1.76367l0.57422,-1.2168c2.22396,0.41472 4.18815,0.95475 5.89257,1.62012zM211.1621,363.29786c0.18685,-2.17838 0.46712,-4.0765 0.84082,-5.69433l1.46973,0.27343c-0.34635,1.44011 -0.56966,2.78906 -0.66992,4.04688c0.66081,-0.50586 1.42187,-0.90918 2.2832,-1.20996c0.82487,-0.29167 1.59505,-0.4375 2.31055,-0.4375c1.07097,0 1.94597,0.20736 2.625,0.62207c0.9069,0.56054 1.36035,1.45833 1.36035,2.69336c0,1.21224 -0.41243,2.15104 -1.2373,2.8164c-1.153,0.92057 -3.15821,1.42872 -6.01562,1.52442l-0.54687,-1.41504c1.9095,-0.00466 3.36329,-0.18241 4.36133,-0.53321c1.20768,-0.41926 1.81152,-1.21907 1.81152,-2.39941c0,-0.74739 -0.2666,-1.30339 -0.7998,-1.66797c-0.42383,-0.29167 -0.97982,-0.4375 -1.66797,-0.4375c-0.97982,0 -2.03256,0.32129 -3.15821,0.96387c-0.68815,0.39193 -1.30338,0.86816 -1.8457,1.42871zM230.25487,355.38868h1.53809v1.88672h4.0332v1.31934h-4.0332v2.92578c0.1595,0.56054 0.23926,1.05957 0.23926,1.49707c0,1.62239 -0.35775,2.81413 -1.07325,3.57519c-0.77929,0.83398 -1.95279,1.41048 -3.5205,1.7295l-0.7793,-1.16211c1.2168,-0.23242 2.11915,-0.56055 2.70703,-0.98438c0.55143,-0.40104 0.92285,-0.94564 1.11426,-1.63379c-0.48764,0.53321 -1.06869,0.79981 -1.74317,0.79981c-0.75651,0 -1.36946,-0.2142 -1.83886,-0.64258c-0.55143,-0.50586 -0.82715,-1.23958 -0.82715,-2.20117c0,-0.50586 0.12077,-0.99349 0.3623,-1.46289c0.1595,-0.30079 0.35547,-0.55144 0.58789,-0.75196c0.53776,-0.45572 1.18261,-0.68359 1.93456,-0.68359c0.47852,0 0.91147,0.11393 1.29883,0.3418v-1.34668h-6.74707v-1.31934h6.74707zM230.30957,362.48438v-0.25292c0,-0.29167 -0.06836,-0.54916 -0.20508,-0.77247c-0.2552,-0.41926 -0.62434,-0.6289 -1.10742,-0.6289c-0.24609,0 -0.47624,0.06836 -0.69043,0.20508c-0.5013,0.31446 -0.75195,0.79753 -0.75195,1.44921c0,0.41016 0.09115,0.75652 0.27344,1.03907c0.25521,0.39193 0.63119,0.58789 1.12793,0.58789c0.45118,0 0.80892,-0.2028 1.07325,-0.6084c0.18685,-0.2871 0.28027,-0.62663 0.28027,-1.01856zM242.62109,356.95411v-0.58789h-4.27246v-0.97754h10.08985v0.97754h-4.36133v0.58789h5.66015v2.4541h-1.48339v-1.57226h-4.17676v2.65918h-1.45606v-2.65918h-4.10156v1.57226h-1.46973v-2.4541zM247.46094,366.65431c0.69726,0.26432 1.56771,0.47395 2.61133,0.6289l-0.79981,1.16211c-1.46288,-0.25065 -2.66374,-0.68131 -3.60254,-1.29199c-0.93425,-0.61068 -1.66114,-1.36947 -2.18066,-2.27637h-1.51074v2.10547c1.00716,-0.14128 1.94141,-0.29167 2.80273,-0.45117l0.0957,1.01855c-1.60416,0.38281 -3.43847,0.7155 -5.50293,0.99805l-0.40332,-1.20312c0.7155,-0.07747 1.20541,-0.13216 1.46973,-0.16407l0.082,-0.0137v-2.29004h-1.49707c-0.0638,0.80208 -0.16861,1.44238 -0.31445,1.9209c-0.17318,0.57422 -0.45118,1.10971 -0.83399,1.60645l-1.21679,-1.00489c0.44662,-0.57878 0.7246,-1.25553 0.83398,-2.03027c0.05927,-0.41928 0.0889,-0.94108 0.0889,-1.56543v-2.89844h11.79883v0.90918h-10.32911v2.09864h10.917v0.96386h-1.55176l0.86816,0.57422c-0.51497,0.42838 -1.12337,0.82943 -1.82519,1.20313zM246.39453,366.12794c0.65625,-0.44662 1.17807,-0.86361 1.56543,-1.25098h-2.9873c0.39192,0.50131 0.86589,0.9183 1.42187,1.25098zM239.12109,358.34181h2.91211v0.77246h-2.91211zM239.12109,359.59962h2.91211v0.78613h-2.91211zM244.66504,358.34181h3.00098v0.77246h-3.00098zM244.66504,359.59962h3.00098v0.78613h-3.00098zM239.86621,362.38868h8.51074v0.89551h-8.51074zM258.45996,356.33888h5.35938v1.14843h-3.03516v1.13477h2.84375v1.10742h-2.84375v2.03711h-5.50293v-2.03711h-2.24219v1.27149c0,2.06446 -0.10937,3.69597 -0.32812,4.89453c-0.16862,0.91146 -0.44206,1.74317 -0.82031,2.49511l-1.24415,-0.98437c0.34636,-0.75196 0.58334,-1.67024 0.71094,-2.75488c0.11393,-0.95247 0.1709,-2.16927 0.1709,-3.65039v-4.66211h5.40723v-1.23047h1.52441zM253.03906,357.48731v1.13477h2.24219v-1.13477zM256.7373,357.48731v1.13477h2.59082v-1.13477zM256.7373,359.7295v1.05957h2.59082v-1.05957zM258.32324,366.90724c-1.31705,0.6836 -2.98958,1.20313 -5.01758,1.55859l-0.71093,-1.25781c1.90494,-0.22787 3.39746,-0.5765 4.47754,-1.0459c-0.92514,-0.66992 -1.71582,-1.46517 -2.37207,-2.38574h-0.94336v-1.18946h8.00488l0.71777,0.60157c-0.67903,1.04362 -1.64745,2.02571 -2.90527,2.94629c1.08008,0.43294 2.55208,0.75195 4.41601,0.95703l-0.7998,1.29199c-1.78646,-0.24154 -3.40886,-0.73372 -4.86719,-1.47656zM256.29297,363.77638c0.55144,0.64713 1.22135,1.21679 2.00976,1.70898c0.88867,-0.57422 1.57455,-1.14388 2.05762,-1.70898z"/><path d="M147.34863,426.3799h4.95605v1.2168h-1.93457c-0.22787,0.71549 -0.47852,1.37403 -0.75196,1.97559h3.68457v1.24414h-13.30273v-1.24414h3.58887c-0.18685,-0.63347 -0.43978,-1.29199 -0.75879,-1.97559h-1.83887v-1.2168h4.86035v-1.27148h1.49707zM144.44336,427.5967c0.26888,0.61523 0.50586,1.27377 0.71094,1.97559h2.93261c0.26888,-0.62435 0.49903,-1.28289 0.69043,-1.97559zM151.16992,431.75979v6.65136h-1.52441v-0.71777h-6.00879v0.71777h-1.51074v-6.65136zM143.63672,432.92189v1.18946h6.00879v-1.18946zM143.63672,435.2051v1.3125h6.00879v-1.3125zM159.83789,426.3799v-1.27148h1.52442v1.27148h5.74219v1.18946h-5.74219v1.12109h4.84668v1.18945h-10.97852v-1.18945h4.60742v-1.12109h-5.64649v-1.18946zM166.07226,430.90529v4.49121h-1.53808v-0.73828h-7.69727c-0.06836,0.84766 -0.20736,1.53809 -0.41699,2.07129c-0.25065,0.64714 -0.66537,1.25326 -1.24414,1.81836l-1.21679,-1.0664c0.58789,-0.55144 0.97299,-1.20997 1.15528,-1.97559c0.1276,-0.53776 0.1914,-1.21679 0.1914,-2.03711v-2.56348zM164.53418,432.02639h-3.19922v1.44238h3.19922zM159.85155,432.02639h-2.98046v1.44238h2.98046zM168.45117,426.76955c4.19271,-0.0638 8.15527,-0.17089 11.8877,-0.32129l0.08203,1.36035c-1.64518,0.08204 -2.92578,0.33268 -3.84179,0.75196c-0.875,0.40104 -1.57682,0.95703 -2.10547,1.66797c-0.60156,0.80664 -0.90234,1.70443 -0.90234,2.69335c0,0.98438 0.34179,1.72266 1.02539,2.21485c0.78385,0.56054 1.98698,0.94564 3.60938,1.15527l-0.32129,1.53809c-2.11459,-0.28256 -3.60254,-0.82943 -4.46387,-1.64063c-0.92513,-0.86588 -1.3877,-1.9414 -1.3877,-3.22656c0,-1.16667 0.41927,-2.25586 1.25781,-3.26758c0.61067,-0.74284 1.44694,-1.33985 2.50879,-1.79101c-1.88216,0.0638 -4.30892,0.1709 -7.28027,0.32129zM178.39062,432.66897c-0.26888,-0.7155 -0.72233,-1.5267 -1.36035,-2.4336l1.06641,-0.39648c0.56966,0.78386 1.02767,1.58594 1.37402,2.40625zM180.23633,431.95119c-0.32357,-0.83854 -0.77474,-1.65429 -1.35352,-2.44726l1.01856,-0.36231c0.53321,0.64713 0.98665,1.43099 1.36035,2.35156zM187.03125,433.70119v3.58887c0.91146,-0.32356 1.53125,-0.84082 1.85938,-1.55176c0.25521,-0.54687 0.39192,-1.59277 0.41015,-3.13769h1.37403c-0.01368,1.80012 -0.20052,3.05338 -0.56054,3.75976c-0.48763,0.94792 -1.31934,1.66342 -2.49512,2.14649l-0.58789,-0.80664v0.007h-3.26758v0.7041h-1.34668v-4.70996zM183.76367,434.87697v1.66797h1.9209v-1.66797zM190.4834,426.36623v-1.24414h1.3877v1.24414h3.3291v1.20313h-3.3291v0.9707h2.93945v1.17578h-7.0957v-1.17578h2.76855v-0.9707h-3.24707v-1.20313zM195.14551,430.65236v2.8711h-1.37403v-1.70899h-4.94922v1.81836h-1.333v-2.98047zM182.64258,425.61428h4.12891v1.14844h-4.12891zM182,427.61721h5.33203v1.23047h-5.33203zM182.64258,429.71584h4.12891v1.13477h-4.12891zM182.64258,431.71877h4.12891v1.10742h-4.12891zM191.50195,432.57326h1.31933v4.05371c0,0.12761 0.0319,0.20508 0.0957,0.23242c0.10482,0.0456 0.22331,0.0684 0.35547,0.0684c0.30078,0 0.49674,-0.0433 0.58789,-0.12988c0.12304,-0.10937 0.20964,-0.72005 0.25977,-1.83203l1.2373,0.43066c-0.04101,1.22136 -0.1709,1.9961 -0.38965,2.32422c-0.13672,0.20508 -0.35547,0.34408 -0.65625,0.417c-0.25976,0.05926 -0.60612,0.0889 -1.03906,0.0889c-0.75196,0 -1.23731,-0.07747 -1.45606,-0.23242c-0.20963,-0.1504 -0.31445,-0.42838 -0.31445,-0.83398zM197.74316,426.08596h5.3457l0.95703,0.81347c-0.45117,1.58138 -0.82487,2.77083 -1.12109,3.56836c1.13476,0.1914 2.18067,0.50131 3.1377,0.92969c0.05469,-0.5879 0.08203,-1.16439 0.08203,-1.72949c0,-0.30078 -0.00911,-0.65397 -0.02734,-1.05957l1.49707,0.15722c-0.00454,1.30338 -0.05694,2.39941 -0.15723,3.28809c0.5651,0.29167 1.15756,0.63575 1.77734,1.03223l-0.5879,1.45605c-0.4375,-0.31901 -0.91146,-0.63574 -1.42187,-0.95019c-0.35091,1.35352 -0.91146,2.40625 -1.68164,3.1582c-0.54687,0.53776 -1.29427,1.01172 -2.24219,1.42187l-0.8545,-1.14843c1.11653,-0.47852 1.94141,-1.08919 2.47461,-1.83203c0.41927,-0.59245 0.72917,-1.3672 0.92969,-2.32422c-1.11653,-0.56054 -2.24675,-0.93881 -3.39062,-1.13477c-0.74284,2.03256 -1.48796,3.57292 -2.23535,4.6211c-0.56966,0.79296 -1.20996,1.18945 -1.9209,1.18945c-0.68815,0 -1.22135,-0.32812 -1.59961,-0.98438c-0.28711,-0.5013 -0.43067,-1.0983 -0.43067,-1.79101c0,-0.85678 0.22103,-1.6224 0.66308,-2.29688c0.52409,-0.80208 1.33073,-1.38769 2.41993,-1.75683c0.62891,-0.20964 1.33301,-0.32358 2.1123,-0.3418c0.41927,-1.09375 0.74056,-2.07357 0.96386,-2.93945h-4.68946zM200.97656,431.67775c-0.58789,0.03193 -1.09147,0.14359 -1.51074,0.33497c-0.65625,0.29167 -1.13932,0.73828 -1.44922,1.33984c-0.21875,0.42383 -0.32812,0.875 -0.32812,1.35351c0,0.38281 0.0752,0.71549 0.22558,0.99805c0.11393,0.2233 0.25066,0.33496 0.41016,0.33496c0.63802,0 1.52213,-1.45378 2.65234,-4.36133zM217.06152,429.01174h4.93555v1.40137h-4.93555v5.71484h6.24121v1.42871h-13.30273v-1.42871h5.40723v-11.01953h1.65429zM232.45605,425.65529h1.23047l0.29395,2.98047h2.78906v1.3877h-2.67285l0.0273,1.24414c0.00466,0.2233 0.007,0.37825 0.007,0.46484c0,1.88216 -0.278,3.27897 -0.83398,4.19043c-0.4375,0.72461 -1.07324,1.3125 -1.90723,1.76367c-0.22787,0.12304 -0.50586,0.25749 -0.83399,0.40332l-0.92968,-1.17578c1.1302,-0.51042 1.91178,-1.13249 2.34472,-1.86621c0.42383,-0.71549 0.63575,-1.8343 0.63575,-3.35644c0,-0.041 -0.00233,-0.20507 -0.007,-0.49219l-0.0342,-1.17578h-4.49121v-1.3877h4.43652zM225.33984,437.65236c-0.22331,-1.7181 -0.33496,-3.59797 -0.33496,-5.63964c0,-2.16472 0.1276,-4.28387 0.38281,-6.35743l1.4834,0.13672c-0.23698,2.16472 -0.35547,4.22689 -0.35547,6.18653c0,1.99153 0.10938,3.81217 0.32813,5.46191zM235.0332,428.02053c-0.20507,-0.72917 -0.5332,-1.4948 -0.98437,-2.29688l0.9707,-0.2666c0.43294,0.74284 0.77703,1.49935 1.03223,2.26953zM236.6123,427.47365c-0.2552,-0.86133 -0.60611,-1.63607 -1.05273,-2.32422l1.01172,-0.25293c0.44206,0.67904 0.79753,1.44011 1.06641,2.28321zM239.96191,425.86721h7.66993l0.73144,1.13476c-2.3698,1.44922 -4.42285,2.76628 -6.15918,3.95117c1.12109,-0.4694 2.24675,-0.7041 3.37695,-0.7041c1.01628,0 1.86394,0.16179 2.54297,0.48535c0.62891,0.30079 1.11882,0.71094 1.46973,1.23047c0.36459,0.55144 0.54688,1.1849 0.54688,1.90039c0,1.00261 -0.3418,1.84115 -1.0254,2.51563c-0.4694,0.4694 -1.07096,0.82487 -1.80468,1.06641c-0.96159,0.31446 -2.01433,0.47168 -3.15821,0.47168c-1.31706,0 -2.28775,-0.24381 -2.91211,-0.73145c-0.48763,-0.38281 -0.73144,-0.90006 -0.73144,-1.55176c0,-0.49219 0.17774,-0.92969 0.5332,-1.3125c0.53776,-0.57878 1.26465,-0.86816 2.18067,-0.86816c0.9707,0 1.74771,0.32584 2.33105,0.97754c0.42382,0.47395 0.72916,1.10969 0.91602,1.90722c1.40365,-0.44662 2.10547,-1.27148 2.10547,-2.47461c0,-0.91145 -0.38054,-1.58365 -1.14161,-2.0166c-0.51041,-0.29167 -1.15754,-0.4375 -1.9414,-0.4375c-1.17122,0 -2.22852,0.16179 -3.17188,0.48535c-0.69726,0.23698 -1.63379,0.80892 -2.80957,1.71582l-0.96386,-1.1621c1.26692,-1.09375 2.70931,-2.20346 4.32714,-3.32911c1.11654,-0.77474 2.10091,-1.41048 2.95313,-1.90722h-5.86524zM245.14355,436.60647c-0.32357,-1.28972 -0.95931,-1.93458 -1.90722,-1.93458c-0.52409,0 -0.90234,0.16634 -1.13477,0.49903c-0.10937,0.15039 -0.16406,0.31217 -0.16406,0.48535c0,0.36003 0.25521,0.63118 0.76563,0.81348c0.36914,0.1276 0.86361,0.1914 1.48339,0.1914c0.26433,0 0.58333,-0.01824 0.95703,-0.0547zM257.59863,426.95412v-0.58789h-4.27246v-0.97754h10.08985v0.97754h-4.36133v0.58789h5.66015v2.4541h-1.48339v-1.57226h-4.17676v2.65918h-1.45606v-2.65918h-4.10156v1.57226h-1.46973v-2.4541zM262.43848,436.65432c0.69726,0.26432 1.5677,0.47395 2.61132,0.6289l-0.7998,1.16211c-1.4629,-0.25065 -2.66374,-0.68131 -3.60254,-1.29199c-0.93424,-0.61068 -1.66114,-1.36947 -2.18066,-2.27637h-1.51075v2.10547c1.00716,-0.14128 1.94141,-0.29166 2.80274,-0.45117l0.0957,1.01855c-1.60417,0.38281 -3.43848,0.71549 -5.50293,0.99805l-0.40332,-1.20312c0.7155,-0.07747 1.2054,-0.13216 1.46973,-0.16407l0.082,-0.0137v-2.29004h-1.49707c-0.0638,0.80208 -0.16861,1.44239 -0.31445,1.9209c-0.17318,0.57422 -0.45118,1.10971 -0.83399,1.60645l-1.21679,-1.00489c0.44662,-0.57878 0.7246,-1.25553 0.83398,-2.03027c0.05927,-0.41928 0.0889,-0.94108 0.0889,-1.56543v-2.89844h11.79882v0.90918h-10.3291v2.09864h10.917v0.96386h-1.55176l0.86816,0.57422c-0.51497,0.42838 -1.12337,0.82943 -1.82519,1.20313zM261.37207,436.12795c0.65625,-0.44662 1.17807,-0.86361 1.56543,-1.25098h-2.9873c0.39193,0.50131 0.86588,0.9183 1.42187,1.25098zM254.09863,428.34182h2.91211v0.77246h-2.91211zM254.09863,429.59963h2.91211v0.78613h-2.91211zM259.64258,428.34182h3.00097v0.77246h-3.00097zM259.64258,429.59963h3.00097v0.78613h-3.00097zM254.84375,432.38869h8.51074v0.89551h-8.51074zM273.4375,426.33889h5.35937v1.14843h-3.03515v1.13477h2.84375v1.10742h-2.84375v2.03711h-5.50293v-2.03711h-2.24219v1.27149c0,2.06446 -0.10937,3.69597 -0.32812,4.89453c-0.16862,0.91146 -0.44206,1.74317 -0.82032,2.49511l-1.24414,-0.98437c0.34636,-0.75196 0.58333,-1.67025 0.71094,-2.75488c0.11394,-0.95247 0.1709,-2.16927 0.1709,-3.65039v-4.66211h5.40723v-1.23047h1.52441zM268.0166,427.48732v1.13477h2.24219v-1.13477zM271.71484,427.48732v1.13477h2.59082v-1.13477zM271.71484,429.72951v1.05957h2.59082v-1.05957zM273.30078,436.90725c-1.31705,0.6836 -2.98958,1.20313 -5.01758,1.55859l-0.71093,-1.25781c1.90494,-0.22787 3.39745,-0.5765 4.47753,-1.0459c-0.92512,-0.66992 -1.71582,-1.46517 -2.37207,-2.38574h-0.94336v-1.18946h8.00489l0.71777,0.60157c-0.67903,1.04362 -1.64745,2.02572 -2.90527,2.94629c1.08008,0.43294 2.55207,0.75195 4.41601,0.95703l-0.7998,1.29199c-1.78646,-0.24154 -3.40886,-0.73372 -4.86719,-1.47656zM271.27051,433.77639c0.55144,0.64713 1.22135,1.21679 2.00976,1.70898c0.88867,-0.57422 1.57455,-1.14388 2.05762,-1.70898z"/><path d="M223.97461,305.36333v3.30078h1.32617v1.38867h-1.32617v4.34766c0.47852,-0.16407 0.95246,-0.33594 1.42188,-0.51367l0.13086,1.32031c-1.47653,0.67447 -2.99281,1.23958 -4.54687,1.69531l-0.47851,-1.45703c0.7018,-0.18226 1.31704,-0.35546 1.8457,-0.51953c0.06381,-0.0227 0.11719,-0.0379 0.15821,-0.0469v-4.82618h-1.73633v-1.38867h1.73633v-3.30078zM230.37301,305.3633v3.12305l2.29101,-0.78516l0.7168,0.4375v5.11914c0,0.35547 -0.08333,0.61977 -0.25195,0.79297c-0.19141,0.19141 -0.51368,0.28711 -0.96485,0.28711c-0.36914,0 -0.76106,-0.0317 -1.17578,-0.0957l-0.22461,-1.30664c0.26888,0.06841 0.54232,0.10351 0.82031,0.10351c0.20052,0 0.32354,-0.04094 0.36914,-0.12304c0.0456,-0.06834 0.0684,-0.18227 0.0684,-0.3418v-3.23438l-1.64843,0.57618v5.52929h-1.37305v-5.05859l-1.4707,0.51367v5.41406c0,0.35094 0.15039,0.56187 0.45117,0.63477c0.3099,0.07749 1.01952,0.11719 2.12695,0.11719c1.08007,0 1.79234,-0.05467 2.13867,-0.16407c0.19596,-0.064 0.32352,-0.24173 0.38282,-0.5332c0.07744,-0.41013 0.11804,-0.89643 0.12304,-1.45703l1.42969,0.4043c-0.07292,1.34439 -0.25847,2.2025 -0.55469,2.57617c-0.19596,0.24606 -0.49218,0.3919 -0.88867,0.4375c-0.62434,0.06831 -1.68295,0.10351 -3.17773,0.10351c-1.15754,0 -1.91728,-0.0317 -2.27734,-0.0957c-0.54232,-0.09113 -0.88544,-0.33142 -1.03125,-0.71875c-0.07291,-0.20513 -0.10937,-0.47858 -0.10937,-0.82031v-5.41992l-1.30664,0.45117l-0.32031,-1.32617l1.62696,-0.56055v-3.68555h1.38672v3.20703l1.4707,-0.5v-3.60156zM161.80078,305.3693v1.23047h5.35938v1.14844h-3.03516v1.13476h2.84375v1.10742h-2.84375v2.03711h-5.50391v-2.03711h-2.24219v1.27149c0,2.06446 -0.10937,3.696 -0.32812,4.89453c-0.16862,0.91147 -0.44206,1.74409 -0.82031,2.49609l-1.24414,-0.98437c0.34635,-0.75193 0.58333,-1.6712 0.71093,-2.75586c0.11392,-0.95247 0.17188,-2.16926 0.17188,-3.65039v-4.66211h5.40625v-1.23047zM237.78707,305.381v3.28711h0.97851v-0.86719h4.5586l-0.0273,-0.47851c-0.0228,-0.43294 -0.0456,-1.07093 -0.0684,-1.91407h1.40234c0.0273,1.18494 0.0514,1.98245 0.0742,2.39258h1.67578c-0.0228,-0.04532 -0.0443,-0.09092 -0.0625,-0.13672c-0.26433,-0.597 -0.63474,-1.18033 -1.11328,-1.75l1.13476,-0.5332c0.50586,0.56507 0.916,1.1803 1.23047,1.8457l-1.09375,0.57422h1.44141v1.25781h-3.1582l0.0137,0.27344c0.06836,1.44007 0.20833,2.68422 0.41797,3.73242c0.37825,-0.82946 0.72004,-1.75326 1.02539,-2.76953l1.27148,0.54688c-0.54232,1.54033 -1.14715,2.88801 -1.8125,4.04101c0.19141,0.56967 0.4056,1.0677 0.64258,1.4961c0.09114,0.16409 0.15948,0.24609 0.20508,0.24609c0.05013,0 0.1263,-0.13669 0.22656,-0.41016c0.11393,-0.32353 0.20504,-0.87957 0.27344,-1.66796l1.13476,0.80078c-0.15038,1.1758 -0.34179,2.0293 -0.57422,2.5625c-0.20507,0.4648 -0.46353,0.69726 -0.77343,0.69726c-0.30534,0 -0.66081,-0.22786 -1.06641,-0.68359c-0.39193,-0.44207 -0.73504,-0.98114 -1.03125,-1.61914c-0.77927,0.9798 -1.67123,1.81836 -2.67383,2.51562l-1.0039,-1.0332c0.87046,-0.52407 1.63286,-1.1393 2.28906,-1.8457c-1.11653,0.43753 -2.58855,0.85094 -4.41602,1.23828l-0.45117,-1.27149c1.9004,-0.3144 3.54429,-0.68355 4.92969,-1.10742l0.0469,1.01172c0.2461,-0.2734 0.49219,-0.59111 0.73829,-0.95117c-0.38282,-1.32613 -0.64389,-3.25974 -0.78516,-5.80274h-4.49219v0.97071h-1.10742v4.49804c0.41927,-0.1732 0.8021,-0.33725 1.14844,-0.49218l0.15039,1.33984c-1.35353,0.72007 -2.7038,1.3034 -4.05274,1.75l-0.49218,-1.44336c0.51497,-0.1458 1.12106,-0.34308 1.81836,-0.59375v-5.05859h-1.60743v-1.36133h1.60743v-3.28711zM199.7793,305.3966v3.9043h4.93555v1.40039h-4.93555v5.71485h6.24219v1.42968h-13.30273v-1.42968h5.40625v-11.01954zM151.77735,305.63489v0.97656h-4.36133v0.58789h5.66016v2.45508h-1.48243v-1.57227h-4.17774v2.6582h-1.45507v-2.6582h-4.10156v1.57227h-1.4707v-2.45508h5.57226v-0.58789h-4.27344v-0.97656zM256.04101,305.95323c-0.13672,0.24614 -0.37826,0.64713 -0.72461,1.20313l-0.0879,0.14453h4.81836v1.3457h-5.72852c-0.59701,0.82034 -1.16666,1.53128 -1.70898,2.13282c0.86133,-0.51494 1.64844,-0.77149 2.35937,-0.77149c1.10287,0 1.82422,0.55276 2.16602,1.66016c1.16666,-0.3874 2.35609,-0.77024 3.56835,-1.14844l0.5879,1.32617l-0.23829,0.0684l-0.67773,0.17774c-1.27607,0.3464 -2.2969,0.6426 -3.0625,0.88867c0.05469,0.59246 0.09439,1.35807 0.11719,2.29687l-1.49805,0.082c-0.0046,-0.54234 -0.0138,-1.13021 -0.0273,-1.76368v-0.13672c-2.09633,0.71554 -3.14453,1.43556 -3.14453,2.16016c0,0.37367 0.26888,0.62889 0.80664,0.76563c0.51953,0.13216 1.44919,0.19726 2.78906,0.19726c1.235,0 2.53256,-0.06967 3.89062,-0.21094l0.16407,1.45508c-1.31707,0.10029 -2.68297,0.15039 -4.09571,0.15039c-1.74086,0 -2.9772,-0.13215 -3.71093,-0.39648c-0.90694,-0.32813 -1.36133,-0.91733 -1.36133,-1.76953c0,-0.72007 0.32226,-1.35674 0.96484,-1.90821c0.66536,-0.5696 1.83657,-1.15754 3.51367,-1.76367c-0.09114,-0.35093 -0.21289,-0.59701 -0.36328,-0.73828c-0.16862,-0.15948 -0.39192,-0.23828 -0.66992,-0.23828c-0.45117,0 -1.01754,0.16992 -1.70117,0.51172c-0.84307,0.41926 -1.74865,1.0514 -2.71485,1.89453l-0.9082,-1.03906c1.41733,-1.31707 2.52606,-2.61135 3.32813,-3.88282h-2.78125v-1.3457h3.68359c0.4056,-0.64713 0.7142,-1.16994 0.92383,-1.5664zM190.20705,305.84972v0.18555c0,2.31059 -0.13672,4.16085 -0.41016,5.55078c-0.1823,0.95706 -0.46028,1.81838 -0.83399,2.58398c1.46747,1.0436 2.55532,1.97459 3.26172,2.79492l-1.09375,1.34766c-0.7702,-0.9616 -1.71809,-1.90041 -2.84375,-2.81641c-0.041,-0.032 -0.08072,-0.0637 -0.11719,-0.0957c-1.0664,1.3216 -2.69794,2.3802 -4.89453,3.17773l-0.86719,-1.26367c2.62046,-0.79293 4.33075,-2.04623 5.13281,-3.75976c0.75653,-1.6224 1.13477,-4.11979 1.13477,-7.49219v-0.21289zM172.81838,306.10548c1.06187,0 1.93359,0.21872 2.61719,0.65625c0.82486,0.5332 1.23828,1.28645 1.23828,2.26172c0,0.7474 -0.28581,1.38867 -0.85547,1.92187c-0.44206,0.41014 -1.02538,0.66857 -1.75,0.77344v0.0547c0.9388,0.155 1.65757,0.46489 2.1543,0.92968c0.51497,0.48307 0.77149,1.12693 0.77149,1.9336c0,1.1758 -0.47527,2.05534 -1.42774,2.63867c-0.71546,0.43747 -1.65428,0.65625 -2.81641,0.65625c-1.832,0 -3.3177,-0.56057 -4.45703,-1.68164l1.03125,-1.23047c0.36459,0.3874 0.83399,0.70643 1.40821,0.95703c0.69726,0.30534 1.37499,0.45899 2.03125,0.45899c0.73827,0 1.31378,-0.15498 1.72851,-0.46485c0.40104,-0.2962 0.60156,-0.75066 0.60156,-1.36132c0,-0.8386 -0.40231,-1.43234 -1.20898,-1.78321c-0.54232,-0.237 -1.194,-0.35547 -1.95508,-0.35547h-0.91016v-1.4707h0.95117c0.80206,0 1.44593,-0.14451 1.9336,-0.43155c0.597,-0.35093 0.89648,-0.83074 0.89648,-1.44141c0,-0.50586 -0.21875,-0.90692 -0.65625,-1.20312c-0.38737,-0.25973 -0.87046,-0.38867 -1.44922,-0.38867c-1.0482,0 -2.05536,0.3991 -3.02149,1.20117l-0.99218,-1.22266c1.1712,-0.93886 2.55071,-1.4082 4.13671,-1.4082zM217.66213,307.53527c1.34893,1.03446 2.02344,2.50062 2.02344,4.39648c0,3.1764 -1.6055,5.1907 -4.81836,6.04297l-0.80664,-1.375c2.67513,-0.67447 4.01171,-2.20708 4.01171,-4.59961c0,-1.04367 -0.26888,-1.94143 -0.80664,-2.69336c-0.60156,-0.84767 -1.51761,-1.39323 -2.74805,-1.63476c-0.26888,2.11459 -0.63475,3.84638 -1.09961,5.19531c-0.31902,0.9434 -0.71554,1.83529 -1.18946,2.67383c-0.6836,1.19399 -1.46157,1.79101 -2.33203,1.79101c-0.64713,0 -1.22265,-0.29167 -1.72851,-0.875c-0.32357,-0.36913 -0.58659,-0.82353 -0.78711,-1.36133c-0.26433,-0.69726 -0.39648,-1.44598 -0.39648,-2.24804c0,-1.2988 0.35876,-2.49605 1.07422,-3.58985c0.7246,-1.11653 1.66473,-1.92773 2.82226,-2.43359c0.84306,-0.36913 1.76819,-0.55274 2.77539,-0.55274c1.57226,0 2.90753,0.42054 4.00586,1.26368zM181.60744,306.28159l0.12305,8.4082c1.2578,-0.5742 2.44597,-1.23956 3.5625,-1.99609l0.40234,1.24414c-1.84113,1.31707 -3.96029,2.44729 -6.35742,3.39062l-0.69726,-1.36132c0.57878,-0.20967 1.11331,-0.4147 1.60547,-0.61524l-0.16406,-9.07031zM186.89846,309.973l-1.24415,1.01172c-0.84306,-1.25787 -1.7122,-2.30928 -2.60547,-3.15235l1.14844,-0.96289c1.12106,1.05273 2.02211,2.08725 2.70118,3.10352zM211.01174,308.26792c-0.34635,0.22333 -0.69143,0.51954 -1.03321,0.88867c-0.94794,1.0482 -1.42187,2.26171 -1.42187,3.64258c0,1.00713 0.20052,1.79557 0.60156,2.36523c0.24609,0.35094 0.49088,0.52735 0.73242,0.52735c0.32812,0 0.69727,-0.36323 1.10742,-1.08789c1.0026,-1.76367 1.68165,-4.09247 2.03711,-6.98633c-0.80667,0.09113 -1.48117,0.30859 -2.02344,0.65039zM156.37893,308.88315h2.24219v-1.13476h-2.24219zM160.07815,308.88315h2.58984v-1.13476h-2.58984zM145.37307,308.58823v0.77149h-2.91211v-0.77149zM151.00588,308.58823v0.77149h-3.00195v-0.77149zM145.37307,309.84604v0.78516h-2.91211v-0.78516zM151.00588,309.84604v0.78516h-3.00195v-0.78516zM160.07815,311.05112h2.58984v-1.06055h-2.58984zM243.06448,310.24057v4.12891h-3.65039v-4.12891zM152.72073,311.15041v0.91016h-10.32812v2.09765h10.91602v0.9652h-1.55078l0.86719,0.57422c-0.51497,0.4284 -1.12239,0.82945 -1.82422,1.20312c0.69699,0.26403 1.56661,0.4741 2.60938,0.62891l-0.79882,1.16211c-1.46286,-0.2506 -2.66277,-0.68231 -3.60156,-1.29297c-0.93427,-0.61074 -1.66211,-1.36853 -2.18164,-2.27539h-1.50976v2.10547c1.00714,-0.14134 1.93945,-0.29171 2.80078,-0.45118l0.0957,1.01758c-1.60413,0.38287 -3.43748,0.71552 -5.50195,0.99805l-0.4043,-1.20313c0.71546,-0.07756 1.20637,-0.13216 1.4707,-0.16406l0.08203,-0.0137v-2.28906h-1.49804c-0.0638,0.80206 -0.16862,1.44139 -0.31446,1.91992c-0.17317,0.5742 -0.45117,1.11069 -0.83398,1.60742l-1.2168,-1.00586c0.44662,-0.57873 0.72461,-1.25456 0.83399,-2.0293c0.05926,-0.41926 0.08984,-0.942 0.08984,-1.5664v-2.89844zM240.57621,313.27573h1.35352v-1.92773h-1.35352zM151.71683,312.63511v0.89453h-8.51171v-0.89453zM165.10164,312.848l0.71875,0.60156c-0.67907,1.0436 -1.64845,2.02667 -2.90625,2.94726c1.08006,0.43294 2.55209,0.75197 4.41602,0.95704l-0.80078,1.29101c-1.78582,-0.24145 -3.40731,-0.73421 -4.86524,-1.47656h-0.002c-1.31683,0.68314 -2.98841,1.2032 -5.01562,1.55859l-0.71094,-1.25781c1.90493,-0.22787 3.3965,-0.57552 4.47656,-1.04492c-0.92513,-0.66987 -1.71483,-1.46612 -2.37109,-2.38672h-0.94336v-1.18945zM161.64262,315.74643c0.88867,-0.5742 1.57553,-1.14385 2.05859,-1.70898h-4.06836c0.55143,0.64713 1.22134,1.21678 2.00977,1.70898zM149.73442,316.37339c0.65625,-0.44667 1.1771,-0.86267 1.56445,-1.25h-2.98828c0.39192,0.50126 0.86782,0.91726 1.42383,1.25zM195.7227,324.92417l-1.02539,0.29492c-0.25521,-0.86133 -0.60615,-1.63602 -1.05274,-2.32422l1.01172,-0.25391c0.44206,0.67907 0.79753,1.44014 1.0664,2.28321zM175.14066,322.89682v3.9043h4.93555v1.40039h-4.93555v5.71485h6.24024v1.42968h-13.30273v-1.42968h5.4082v-11.01954zM149.94926,322.92222v1.24218h3.33007v1.20508h-3.33007v0.9707h2.93945v1.17578h-7.0957v-1.17578h2.76953v-0.9707h-3.24805v-1.20508h3.24805v-1.24218zM194.13481,325.47104l-1.01758,0.29492c-0.20507,-0.72913 -0.5332,-1.4948 -0.98437,-2.29687l0.9707,-0.26758c0.43294,0.7428 0.77606,1.49933 1.03125,2.26953zM184.95512,323.53745c-0.23698,2.16473 -0.35547,4.22595 -0.35547,6.18555c0,1.99159 0.10938,3.81316 0.32813,5.46289l-1.50391,0.21093c-0.22332,-1.71813 -0.33594,-3.597 -0.33594,-5.63867c0,-2.16466 0.1276,-4.28382 0.38281,-6.35742zM191.76952,323.40073l0.29493,2.98047h2.78906v1.38672h-2.67187l0.02734,1.24414c0.0047,0.22333 0.0059,0.37824 0.0059,0.46484c0,1.88213 -0.278,3.27994 -0.83398,4.19141c-0.4375,0.7246 -1.07228,1.31247 -1.90625,1.76367c-0.22787,0.123 -0.50586,0.25648 -0.83399,0.40234l-0.92969,-1.17578c1.1302,-0.5104 1.91082,-1.1315 2.34375,-1.86523c0.42383,-0.71553 0.63672,-1.83529 0.63672,-3.35742c0,-0.04134 -0.0031,-0.20546 -0.0078,-0.49219l-0.0332,-1.17578h-4.49219v-1.38672h4.4375l-0.05664,-2.98047zM144.84965,323.41443v1.14649h-4.12891v-1.14649zM205.70903,323.59998l0.73243,1.13477c-2.3698,1.44919 -4.42382,2.76623 -6.16016,3.95117c1.12106,-0.4694 2.24668,-0.70313 3.37695,-0.70313c1.01627,0 1.8639,0.16084 2.54297,0.48438c0.62891,0.3008 1.11981,0.71093 1.47071,1.23047c0.36459,0.5514 0.54688,1.18485 0.54688,1.90039c0,1.0026 -0.34179,1.84116 -1.0254,2.51562c-0.4694,0.4694 -1.07096,0.82487 -1.80469,1.06641c-0.9616,0.31446 -2.01434,0.47265 -3.1582,0.47265c-1.31707,0 -2.28778,-0.24475 -2.91211,-0.73242c-0.48763,-0.3828 -0.73242,-0.89911 -0.73242,-1.55078c0,-0.4922 0.17774,-0.9297 0.5332,-1.3125c0.53776,-0.5788 1.2656,-0.86914 2.18164,-0.86914c0.97066,0 1.74675,0.32685 2.33007,0.97852c0.42382,0.474 0.72916,1.10871 0.91602,1.90625c1.40366,-0.4466 2.10547,-1.27148 2.10547,-2.47461c0,-0.91147 -0.37956,-1.5827 -1.14062,-2.01563c-0.51042,-0.29167 -1.15756,-0.4375 -1.94141,-0.4375c-1.1712,0 -2.22848,0.16084 -3.17187,0.48438c-0.69726,0.237 -1.63475,0.80993 -2.81055,1.71679l-0.96289,-1.16211c1.26693,-1.09373 2.70837,-2.20441 4.32617,-3.33007c1.11653,-0.77474 2.10092,-1.40952 2.95313,-1.90625h-5.86523v-1.34766zM161.17583,323.90076l0.95703,0.8125c-0.45117,1.5814 -0.82487,2.77083 -1.12109,3.56836c1.13473,0.1914 2.17965,0.50129 3.13672,0.92969c0.05467,-0.58787 0.08203,-1.16339 0.08203,-1.72852c0,-0.3008 -0.00914,-0.65495 -0.02734,-1.06054l1.49805,0.1582c-0.00466,1.30333 -0.05805,2.39844 -0.15821,3.28711c0.5651,0.29166 1.15948,0.63667 1.7793,1.0332l-0.5879,1.45508c-0.4375,-0.319 -0.91339,-0.63475 -1.42382,-0.94922c-0.35091,1.35353 -0.90954,2.40627 -1.67969,3.1582c-0.54687,0.5378 -1.29426,1.01175 -2.24219,1.42188l-0.85547,-1.14844c1.11653,-0.47853 1.94141,-1.08916 2.47461,-1.83203c0.41927,-0.5924 0.72916,-1.36715 0.92969,-2.32422c-1.11653,-0.56053 -2.24676,-0.93883 -3.39062,-1.13476c-0.74286,2.03253 -1.48892,3.57296 -2.23632,4.62109c-0.56966,0.793 -1.20899,1.18945 -1.91993,1.18945c-0.68813,0 -1.22134,-0.32811 -1.5996,-0.98437c-0.2871,-0.50127 -0.43165,-1.09829 -0.43165,-1.79102c0,-0.85673 0.22201,-1.62234 0.66406,-2.29687c0.52409,-0.80207 1.33075,-1.38868 2.41992,-1.75782c0.62891,-0.20966 1.33203,-0.32359 2.11133,-0.34179c0.41927,-1.09374 0.74154,-2.07352 0.96484,-2.93946h-4.68945v-1.3457zM145.4102,325.41639v1.23046h-5.33203v-1.23046zM144.84966,327.51599v1.13282h-4.12891v-1.13282zM153.22466,328.45154v2.8711h-1.375v-1.70899h-4.94922v1.81836h-1.33203v-2.98047zM157.55279,329.82654c-0.65625,0.29167 -1.13933,0.73825 -1.44922,1.33985c-0.21875,0.4238 -0.32812,0.87498 -0.32812,1.35351c0,0.3828 0.07422,0.71552 0.22461,0.99805c0.11393,0.22333 0.25065,0.33594 0.41016,0.33594c0.63802,0 1.52217,-1.4538 2.65234,-4.36133c-0.58788,0.032 -1.09052,0.14272 -1.50976,0.33398zM144.84966,329.51796v1.10742h-4.12891v-1.10742zM150.90044,330.37343v4.05273c0,0.1276 0.0319,0.20512 0.0957,0.23242c0.10482,0.0454 0.22331,0.0684 0.35547,0.0684c0.30078,0 0.49674,-0.04426 0.58789,-0.13086c0.12304,-0.1094 0.20963,-0.7201 0.25976,-1.83203l1.23633,0.43164c-0.041,1.22133 -0.16991,1.99609 -0.38868,2.32422c-0.13672,0.20513 -0.35547,0.34312 -0.65625,0.41602c-0.25976,0.0593 -0.60609,0.0898 -1.03906,0.0898c-0.75193,0 -1.2383,-0.07749 -1.45703,-0.23242c-0.20964,-0.1504 -0.31445,-0.42839 -0.31445,-0.83399v-4.58593zM148.75395,330.39857c-0.01367,1.80013 -0.20051,3.05532 -0.56054,3.76172c-0.48763,0.94793 -1.32033,1.66341 -2.4961,2.14648l-0.58789,-0.80859v0.0117h-3.26757v0.70312h-1.34571v-4.70898l4.61328,-0.004v3.59021c0.91146,-0.3236 1.53124,-0.8418 1.85938,-1.55273c0.2552,-0.54687 0.39193,-1.59374 0.41016,-3.13867zM201.3145,332.40465c-0.52409,0 -0.90232,0.16733 -1.13477,0.5c-0.10937,0.1504 -0.16406,0.31117 -0.16406,0.48437c0,0.36 0.2552,0.63212 0.76563,0.81445c0.36914,0.12761 0.86263,0.19141 1.48242,0.19141c0.26433,0 0.58333,-0.0199 0.95703,-0.0566c-0.32372,-1.28848 -0.95882,-1.93359 -1.90625,-1.93359zM141.84184,334.34414h1.92188v-1.66797h-1.92187z"/><path d="M237.64261,271.42381l-1.02539,0.29492c-0.25521,-0.86133 -0.60614,-1.63602 -1.05274,-2.32422l1.01172,-0.25391c0.44206,0.67907 0.79754,1.44014 1.06641,2.28321zM217.06058,269.39646v3.9043h4.93554v1.40039h-4.93554v5.71485h6.24023v1.42968h-13.30273v-1.42968h5.40821v-11.01954zM191.86917,269.42186v1.24218h3.33007v1.20508h-3.33007v0.9707h2.93945v1.17578h-7.0957v-1.17578h2.76953v-0.9707h-3.24804v-1.20508h3.24804v-1.24218zM147.34964,269.42786v1.27149h4.95703v1.2168h-1.93554c-0.22787,0.71553 -0.47852,1.37503 -0.75196,1.97656h3.68554v1.24414h-13.30274v-1.24414h3.5879c-0.18686,-0.63347 -0.43881,-1.29297 -0.75781,-1.97656h-1.83984v-1.2168h4.86133v-1.27149zM161.36527,269.42786v1.27149h5.74219v1.18945h-5.74219v1.1211h4.84571v1.18945h-10.97852v-1.18945h4.60742v-1.1211h-5.64648v-1.18945h5.64648v-1.27149zM236.05667,271.97083l-1.01953,0.29492c-0.20507,-0.72913 -0.5332,-1.4948 -0.98438,-2.29687l0.97071,-0.26758c0.43294,0.7428 0.77801,1.49933 1.0332,2.26953zM226.87503,270.03724c-0.23698,2.16473 -0.35547,4.22595 -0.35547,6.18555c0,1.99159 0.10938,3.81316 0.32813,5.46289l-1.50391,0.21093c-0.22331,-1.71813 -0.33399,-3.597 -0.33399,-5.63867c0,-2.16466 0.1276,-4.28382 0.38281,-6.35742zM233.69155,269.90052l0.29297,2.98047h2.78906v1.38672h-2.67188l0.0273,1.24414c0.005,0.22333 0.006,0.37824 0.006,0.46484c0,1.88213 -0.278,3.27994 -0.83399,4.19141c-0.4375,0.7246 -1.07228,1.31247 -1.90625,1.76367c-0.22787,0.123 -0.50586,0.25648 -0.83398,0.40234l-0.92969,-1.17578c1.1302,-0.5104 1.91082,-1.1315 2.34375,-1.86523c0.42383,-0.71553 0.63672,-1.83529 0.63672,-3.35742c0,-0.04134 -0.003,-0.20546 -0.008,-0.49219l-0.0332,-1.17578h-4.49219v-1.38672h4.4375l-0.0547,-2.98047zM186.76956,269.91422v1.14649h-4.12891v-1.14649zM247.63085,270.09977l0.73047,1.13477c-2.3698,1.44919 -4.42383,2.76623 -6.16016,3.95117c1.12107,-0.4694 2.24864,-0.70313 3.37891,-0.70313c1.01626,0 1.8639,0.16084 2.54297,0.48438c0.6289,0.3008 1.11785,0.71093 1.46875,1.23047c0.36458,0.5514 0.54687,1.18485 0.54687,1.90039c0,1.0026 -0.34179,1.84116 -1.02539,2.51562c-0.4694,0.4694 -1.07095,0.82487 -1.80469,1.06641c-0.9616,0.31446 -2.01433,0.47265 -3.1582,0.47265c-1.31706,0 -2.28778,-0.24475 -2.91211,-0.73242c-0.48762,-0.3828 -0.73047,-0.89911 -0.73047,-1.55078c0,-0.4922 0.17774,-0.9297 0.53321,-1.3125c0.53776,-0.5788 1.26364,-0.86914 2.17968,-0.86914c0.97067,0 1.7487,0.32685 2.33203,0.97852c0.42383,0.474 0.72917,1.10871 0.91602,1.90625c1.40367,-0.4466 2.10547,-1.27148 2.10547,-2.47461c0,-0.91147 -0.38151,-1.5827 -1.14258,-2.01563c-0.51041,-0.29167 -1.15755,-0.4375 -1.94141,-0.4375c-1.17119,0 -2.22847,0.16084 -3.17187,0.48438c-0.69727,0.237 -1.6328,0.80993 -2.80859,1.71679l-0.96485,-1.16211c1.26693,-1.09373 2.70838,-2.20441 4.32617,-3.33007c1.11654,-0.77474 2.10093,-1.40952 2.95313,-1.90625h-5.86524l0.002,-1.34766zM203.08596,270.40055l0.95703,0.8125c-0.45118,1.5814 -0.82487,2.77083 -1.12109,3.56836c1.1348,0.1914 2.17972,0.50129 3.13672,0.92969c0.05466,-0.58787 0.08203,-1.16339 0.08203,-1.72852c0,-0.3008 -0.00914,-0.65495 -0.02734,-1.06054l1.49805,0.1582c-0.00466,1.30333 -0.05805,2.39844 -0.15821,3.28711c0.5651,0.29166 1.15752,0.63667 1.77734,1.0332l-0.58789,1.45508c-0.4375,-0.319 -0.91144,-0.63475 -1.42187,-0.94922c-0.35091,1.35353 -0.91149,2.40627 -1.68164,3.1582c-0.54687,0.5378 -1.29426,1.01175 -2.24219,1.42188l-0.85351,-1.14844c1.11653,-0.47853 1.94141,-1.08916 2.47461,-1.83203c0.41926,-0.5924 0.72916,-1.36715 0.92969,-2.32422c-1.11653,-0.56053 -2.24676,-0.93883 -3.39062,-1.13476c-0.74286,2.03253 -1.48892,3.57296 -2.23632,4.62109c-0.56966,0.793 -1.20899,1.18945 -1.91993,1.18945c-0.68813,0 -1.22134,-0.32811 -1.5996,-0.98437c-0.2871,-0.50127 -0.43165,-1.09829 -0.43165,-1.79102c0,-0.85673 0.22201,-1.62234 0.66406,-2.29687c0.52409,-0.80207 1.33075,-1.38868 2.41992,-1.75782c0.6289,-0.20966 1.33203,-0.32359 2.11133,-0.34179c0.41927,-1.09374 0.74154,-2.07352 0.96484,-2.93946h-4.68945v-1.3457zM180.41995,272.03904c-1.6452,0.08207 -2.92579,0.33269 -3.84179,0.75196c-0.875,0.401 -1.57681,0.95703 -2.10547,1.66796c-0.60156,0.80667 -0.90235,1.70443 -0.90235,2.69336c0,0.9844 0.34179,1.72265 1.02539,2.21485c0.78386,0.56053 1.98698,0.94469 3.60938,1.15429l-0.32031,1.53907c-2.1146,-0.28254 -3.60351,-0.82943 -4.46484,-1.64063c-0.92514,-0.86586 -1.38672,-1.94136 -1.38672,-3.22656c0,-1.16667 0.41928,-2.25585 1.25781,-3.26758c0.61067,-0.7428 1.44595,-1.33981 2.50781,-1.79101c-1.88213,0.064 -4.3079,0.17011 -7.27929,0.32031l-0.07031,-1.45508c4.19272,-0.064 8.15607,-0.17207 11.88867,-0.32209zM145.15628,273.89274h2.93164c0.26888,-0.62433 0.5,-1.28383 0.69141,-1.97656h-4.33399c0.26888,0.61526 0.50586,1.27476 0.71094,1.97656zM187.33011,271.91618v1.23046h-5.33203v-1.23046zM181.2598,275.72282l-1.02539,0.45898c-0.32357,-0.83853 -0.77475,-1.65427 -1.35352,-2.44726l1.01954,-0.36329c0.5332,0.64714 0.98564,1.43097 1.35938,2.35157zM186.76957,274.01578v1.13282h-4.12891v-1.13282zM179.46879,276.47473l-1.08008,0.42383c-0.26889,-0.71554 -0.72133,-1.52673 -1.35937,-2.4336l1.06641,-0.39648c0.56966,0.78387 1.02671,1.58598 1.37305,2.40625zM195.14457,274.95129v2.8711h-1.375v-1.70899h-4.94922v1.81836h-1.33203v-2.98047zM166.07425,275.22473v4.49219h-1.53711v-0.73828h-7.69726c-0.06835,0.84766 -0.20833,1.53711 -0.41797,2.07031c-0.25064,0.64713 -0.66539,1.25322 -1.24414,1.81836l-1.21679,-1.06641c0.58789,-0.55146 0.97394,-1.20901 1.15625,-1.97461c0.1276,-0.53773 0.19141,-1.21677 0.19141,-2.03711v-2.56445zM199.46292,276.32629c-0.65625,0.29167 -1.13933,0.73825 -1.44922,1.33985c-0.21875,0.4238 -0.32812,0.87498 -0.32812,1.35351c0,0.3828 0.07423,0.71552 0.22461,0.99805c0.11393,0.22333 0.25065,0.33594 0.41015,0.33594c0.63802,0 1.52217,-1.4538 2.65235,-4.36133c-0.58788,0.032 -1.09052,0.14272 -1.50977,0.33398zM186.76956,276.01771v1.10742h-4.12891v-1.10742zM151.17191,276.08021v6.65039h-1.52539v-0.7168h-6.00781v0.7168h-1.51172v-6.65039zM156.87308,277.78919h2.98047v-1.44336h-2.98047zM161.33792,277.78919h3.19922v-1.44336h-3.19922zM192.82035,276.87303v4.05273c0,0.1276 0.0319,0.20512 0.0957,0.23242c0.10482,0.0454 0.22331,0.0684 0.35547,0.0684c0.30078,0 0.49675,-0.04426 0.5879,-0.13086c0.12304,-0.1094 0.20963,-0.7201 0.25976,-1.83203l1.23632,0.43164c-0.041,1.22133 -0.1699,1.99609 -0.38867,2.32422c-0.13672,0.20513 -0.35547,0.34312 -0.65625,0.41602c-0.25976,0.0593 -0.60609,0.0898 -1.03906,0.0898c-0.75193,0 -1.23829,-0.07749 -1.45703,-0.23242c-0.20964,-0.1504 -0.31445,-0.42839 -0.31445,-0.83399v-4.58593zM190.67386,276.89853c-0.01367,1.80013 -0.20052,3.05532 -0.56054,3.76172c-0.48764,0.94793 -1.32033,1.66341 -2.4961,2.14648l-0.58789,-0.80859v0.0117h-3.26758v0.70312h-1.3457v-4.70898l4.61328,-0.004v3.58985c0.91146,-0.3236 1.53124,-0.8418 1.85938,-1.55273c0.2552,-0.54687 0.39193,-1.59374 0.41016,-3.13867zM143.6387,278.43163h6.00781v-1.18945h-6.00781zM243.23441,278.90425c-0.52409,0 -0.90232,0.16733 -1.13477,0.5c-0.10936,0.1504 -0.16406,0.31117 -0.16406,0.48437c0,0.36 0.2552,0.63212 0.76562,0.81445c0.36914,0.12761 0.86263,0.19141 1.48242,0.19141c0.26433,0 0.58334,-0.0199 0.95703,-0.0566c-0.32371,-1.28848 -0.95881,-1.93359 -1.90624,-1.93359zM183.76175,280.84374h1.92188v-1.66797h-1.92187zM143.6387,280.83788h6.00781v-1.3125h-6.00781z"/><path d="M205.53317,233.50194c-0.12304,0.35547 -0.27343,0.71555 -0.45117,1.08008h3.16601v4.26563h-5.64062v0.65039h6.89844v1.08007h-6.89844v0.64063h6.5625c-0.05014,2.26046 -0.15038,3.71294 -0.30078,4.35547c-0.0957,0.4056 -0.25651,0.69594 -0.48437,0.86914c-0.23698,0.17772 -0.6335,0.26562 -1.18945,0.26562c-0.55595,0 -1.04232,-0.0242 -1.45703,-0.0742l-0.27344,-1.3125c0.53776,0.07297 1.0436,0.10937 1.51758,0.10937c0.26432,0 0.43294,-0.07162 0.50586,-0.21289c0.11848,-0.23247 0.222,-1.17581 0.30859,-2.83008l0.0059,-0.10156h-6.56836v-7.70508h2.41992c0.11849,-0.32353 0.23699,-0.75649 0.35547,-1.29883zM175.49023,233.42773v1.27149h4.95508v1.2168h-1.93359c-0.22787,0.71553 -0.47851,1.37503 -0.75195,1.97656h3.68359v1.24414h-13.30273v-1.24414h3.58984c-0.18686,-0.63347 -0.44076,-1.29297 -0.75976,-1.97656h-1.83789v-1.2168h4.85938v-1.27149zM144.73047,233.4297v1.90039h2.76953v0.9707h1.61915l0.0625,-2.87109h1.37304l-0.04688,2.87109h2.70703c-0.06836,4.77146 -0.23243,7.7474 -0.49219,8.92774c-0.10937,0.49673 -0.29036,0.84438 -0.54102,1.04492c-0.24609,0.19141 -0.63933,0.28711 -1.18164,0.28711c-0.52409,0 -1.02407,-0.0273 -1.49805,-0.082l-0.27929,-1.41407c0.53776,0.07298 1.02218,0.10938 1.45508,0.10938c0.29166,0 0.48632,-0.08203 0.58203,-0.2461c0.26888,-0.46486 0.45573,-2.88804 0.56055,-7.26757h-1.4082c-0.12304,2.05986 -0.43295,3.7552 -0.92969,5.08593c-0.5879,1.57687 -1.39776,2.90173 -2.42773,3.97266l-0.97656,-1.06641c1.01173,-0.99346 1.74677,-2.24544 2.20703,-3.7539c0.38281,-1.2396 0.63802,-2.65235 0.76563,-4.23828h-1.81054v-1.03125h-7.07618v-1.29883h3.11133v-1.90039zM219.72852,235.24027l-0.62891,1.35938c-1.7272,-0.76567 -3.67316,-1.35354 -5.83789,-1.76367l0.57422,-1.2168c2.22393,0.41473 4.18812,0.95576 5.89258,1.62109zM231.91797,233.69928v1.88672h4.0332v1.32031h-4.0332v2.92578c0.15953,0.56053 0.24023,1.05863 0.24023,1.49609c0,1.6224 -0.35875,2.81511 -1.07422,3.57618c-0.77933,0.834 -1.95186,1.40951 -3.51952,1.72851l-0.7793,-1.16211c1.2168,-0.2324 2.11916,-0.56051 2.70703,-0.98437c0.55143,-0.401 0.92185,-0.94468 1.11328,-1.63281c-0.48763,0.5332 -1.06768,0.79882 -1.74219,0.79882c-0.75653,0 -1.37044,-0.21417 -1.83984,-0.64257c-0.55143,-0.50587 -0.82618,-1.23958 -0.82618,-2.20118c0,-0.50586 0.11979,-0.99349 0.36133,-1.46289c0.1595,-0.3008 0.35547,-0.55148 0.58789,-0.75195c0.53776,-0.45573 1.18357,-0.68359 1.93554,-0.68359c0.47851,0 0.91148,0.11393 1.29883,0.34179v-1.3457h-6.74805v-1.32031h6.74805v-1.88672zM189.46094,233.95322c-0.13672,0.24607 -0.37826,0.64713 -0.72461,1.20313l-0.08789,0.14453h4.81836v1.3457h-5.72851c-0.597,0.82034 -1.16666,1.53128 -1.70899,2.13282c0.86133,-0.51494 1.64844,-0.77149 2.35938,-0.77149c1.10287,0 1.82422,0.55276 2.16602,1.66016c1.16666,-0.38733 2.35609,-0.77017 3.56836,-1.14844l0.58789,1.32617l-0.23828,0.0684l-0.67774,0.17774c-1.27606,0.3464 -2.2969,0.6426 -3.0625,0.88867c0.05466,0.59246 0.09438,1.35807 0.11719,2.29687l-1.49804,0.082c-0.00466,-0.54234 -0.01381,-1.13028 -0.02734,-1.76368v-0.13672c-2.09633,0.71554 -3.14453,1.43556 -3.14453,2.16016c0,0.37367 0.26888,0.62889 0.80664,0.76563c0.51953,0.13216 1.44919,0.19726 2.78906,0.19726c1.235,0 2.53256,-0.0696 3.89063,-0.21094l0.16407,1.45508c-1.31707,0.10029 -2.68297,0.15039 -4.09571,0.15039c-1.74087,0 -2.9772,-0.13215 -3.71094,-0.39648c-0.90694,-0.32813 -1.36133,-0.91733 -1.36133,-1.76953c0,-0.72007 0.32226,-1.35681 0.96484,-1.90821c0.66536,-0.56966 1.83656,-1.15754 3.51367,-1.76367c-0.09115,-0.35093 -0.21288,-0.59701 -0.36328,-0.73828c-0.16862,-0.15948 -0.39193,-0.23828 -0.66993,-0.23828c-0.45118,0 -1.01754,0.16992 -1.70117,0.51172c-0.84306,0.41926 -1.74865,1.05146 -2.71484,1.89453l-0.9082,-1.03906c1.41733,-1.317 2.52606,-2.61128 3.32813,-3.88282h-2.78125v-1.3457h3.68359c0.4056,-0.64713 0.7142,-1.16987 0.92383,-1.5664zM166.19532,233.95322v5.61133h-4.71094v1.01953h5.95508v1.2168h-4.83984c1.35807,1.1758 3.0111,2.12822 4.95703,2.85742l-0.92382,1.31836c-2.08727,-0.9388 -3.80208,-2.16473 -5.14648,-3.67773v4.4375h-1.48437v-4.38281c-1.2988,1.67246 -2.9681,2.96548 -5.00977,3.87695l-0.91016,-1.23047c1.93687,-0.74287 3.58983,-1.80922 4.95703,-3.19922h-4.90234v-1.2168h5.86524v-1.01953h-4.62109v-5.61133zM200.41993,234.5v9.44727h-2.7129v1.13476h-1.25781v-10.58203zM156.83789,236.16016h3.16406v-1.11328h-3.16406zM161.48633,236.16016h3.25391v-1.11328h-3.25391zM202.60742,236.26367h4.26563v-0.70312h-4.26562zM197.70703,242.60156h1.46875v-6.7539h-1.46875zM173.29492,237.89262h2.93359c0.26888,-0.62433 0.49804,-1.28383 0.68945,-1.97656h-4.33398c0.26888,0.61526 0.50586,1.27476 0.71094,1.97656zM213.61132,236.18949c-0.34636,1.44014 -0.56967,2.78908 -0.66993,4.04688c0.66081,-0.50587 1.42188,-0.90819 2.28321,-1.20899c0.82486,-0.29166 1.59508,-0.4375 2.31054,-0.4375c1.07093,0 1.94593,0.20636 2.625,0.6211c0.90694,0.56053 1.35938,1.45829 1.35938,2.69336c0,1.2122 -0.41146,2.151 -1.23632,2.8164c-1.153,0.92054 -3.15823,1.42969 -6.01562,1.52539l-0.54687,-1.41601c1.90953,-0.00667 3.36333,-0.18441 4.36132,-0.5332c1.20766,-0.41927 1.81055,-1.21811 1.81055,-2.39844c0,-0.7474 -0.26563,-1.30344 -0.79883,-1.66797c-0.42383,-0.29167 -0.9798,-0.4375 -1.66797,-0.4375c-0.9798,0 -2.03253,0.32036 -3.1582,0.96289c-0.68813,0.39193 -1.30337,0.86915 -1.84571,1.42969l-1.12109,-0.57422c0.18685,-2.1784 0.46614,-4.07752 0.83984,-5.69531zM147.69726,239.26762l-0.94922,1.0039c-0.61524,-0.89773 -1.36262,-1.80142 -2.24219,-2.71289l1.05273,-0.73828c0.86133,0.80207 1.57361,1.61787 2.13868,2.44727zM143.4453,237.58594c-0.62435,1.3216 -1.44141,2.39388 -2.45312,3.21875l-0.99219,-0.97657c0.87953,-0.66079 1.63146,-1.61782 2.25586,-2.87105zM202.60741,237.89848h4.26563v-0.72461h-4.26562zM156.83788,238.47074h3.16406v-1.23047h-3.16406zM161.48632,238.47074h3.25391v-1.23047h-3.25391zM228.43163,239.34574c-0.5013,0.31447 -0.75196,0.79756 -0.75196,1.44922c0,0.4102 0.09114,0.75653 0.27344,1.03906c0.2552,0.39194 0.63218,0.5879 1.12891,0.5879c0.45117,0 0.80797,-0.20183 1.07227,-0.60743c0.18685,-0.28713 0.28125,-0.6276 0.28125,-1.01953v-0.25195c0,-0.29167 -0.06837,-0.55011 -0.20508,-0.77344c-0.25521,-0.41926 -0.62437,-0.62891 -1.10742,-0.62891c-0.2461,0 -0.47722,0.06835 -0.69141,0.20508zM146.39843,240.18949c-0.25976,0.67447 -0.6484,1.47526 -1.16797,2.40039c0.51042,0.5742 0.9616,1.11782 1.35352,1.63282l-1.06641,1.13476c-0.39648,-0.57426 -0.76564,-1.07229 -1.10742,-1.49609c-0.81573,1.153 -1.77276,2.09313 -2.87109,2.82226l-1.10742,-1.16211c1.22133,-0.67446 2.23435,-1.60091 3.04101,-2.78125c-0.56966,-0.64713 -1.17576,-1.25783 -1.81836,-1.83203l0.91016,-0.95703c0.45117,0.3874 1.00393,0.90693 1.66016,1.5586c0.35091,-0.62887 0.65626,-1.27475 0.91602,-1.93555zM179.31054,240.08012v6.65039h-1.52343v-0.7168h-6.00977v0.7168h-1.50976v-6.65039zM171.77734,242.43168h6.00977v-1.18945h-6.00977zM207.35156,244.32231l-0.9082,0.52148c-0.18686,-0.67447 -0.45899,-1.37955 -0.81445,-2.11328l0.82813,-0.375c0.38281,0.60613 0.68034,1.26046 0.89453,1.9668zM205.77343,245.05473l-1.06641,0.41797c-0.18685,-1.01627 -0.39648,-1.88541 -0.6289,-2.60547l0.88085,-0.30664c0.3099,0.6836 0.58203,1.51434 0.81445,2.49414zM202.15039,242.99809c-0.1504,1.3672 -0.39062,2.46224 -0.71875,3.28711l-1.24414,-0.62891c0.41927,-0.89327 0.70052,-1.85483 0.84179,-2.88477zM203.96875,245.58793l-1.14844,0.33594c-0.03646,-1.10747 -0.12631,-2.09375 -0.26758,-2.95508l0.96484,-0.19727c0.24153,0.9388 0.39193,1.87761 0.45118,2.81641zM171.77734,244.83793h6.00976v-1.3125h-6.00976z"/></g><path d="M138,213h204" fill="none" fill-rule="nonzero" stroke="#7d97b4" stroke-width="2" stroke-linecap="round" stroke-linejoin="round"/><path d="M193.01368,190.3672v1.63281h2.42969v1.375h-2.42969v1.34375h2.76563v1.39063h-0.92969c-0.16666,0.61979 -0.39063,1.27601 -0.67187,1.96874h1.50781v1.35938h-2.67187v1.44531h2.57031v1.39063h-2.57031v3.29687h-1.63281v-3.29687h-2.75781v-1.39063h2.75781v-1.44531h-2.88281v-1.35938h1.4375c-0.16666,-0.69273 -0.3698,-1.34895 -0.60937,-1.96874h-1.14844v-1.39063h3.20313v-1.34375h-2.54687v-1.375h2.54688v-1.63281zM143.9668,190.37121v3.77344h1.51563v1.58594h-1.51562v4.96875c0.54688,-0.18753 1.08854,-0.38281 1.625,-0.58594l0.14844,1.50781c-1.68747,0.77087 -3.41925,1.4167 -5.19531,1.9375l-0.54687,-1.66406c0.80206,-0.20833 1.50518,-0.40622 2.10938,-0.59375c0.07291,-0.026 0.13281,-0.044 0.17969,-0.0547v-5.51562h-1.98437v-1.58594h1.98438v-3.77344zM151.27929,190.3712v3.57032l2.61719,-0.89844l0.82031,0.5v5.85156c0,0.40627 -0.09636,0.70838 -0.28906,0.90625c-0.21875,0.2188 -0.58591,0.32813 -1.10156,0.32813c-0.42188,0 -0.86977,-0.03648 -1.34375,-0.10938l-0.25781,-1.49219c0.3073,0.07819 0.6198,0.11719 0.9375,0.11719c0.22916,0 0.36979,-0.04692 0.42188,-0.14062c0.05207,-0.07814 0.07813,-0.2083 0.07813,-0.39063v-3.69531l-1.88281,0.65625v6.32031h-1.57031v-5.78125l-1.67969,0.58594v6.1875c0,0.401 0.17187,0.64326 0.51563,0.72656c0.35416,0.08851 1.16406,0.13281 2.42969,0.13281c1.2344,0 2.04951,-0.0625 2.44531,-0.1875c0.22395,-0.07286 0.36979,-0.27604 0.4375,-0.60937c0.08855,-0.4688 0.13542,-1.02346 0.14063,-1.66406l1.63281,0.46093c-0.08334,1.53647 -0.29427,2.51818 -0.63281,2.94532c-0.22396,0.2812 -0.56252,0.4479 -1.01562,0.5c-0.71354,0.07808 -1.92449,0.11718 -3.63281,0.11718c-1.32293,0 -2.1901,-0.03647 -2.60156,-0.10937c-0.6198,-0.1042 -1.01301,-0.37765 -1.17969,-0.82031c-0.08333,-0.2344 -0.125,-0.5469 -0.125,-0.9375v-6.19532l-1.49219,0.51563l-0.36719,-1.51563l1.85938,-0.64062v-4.21094h1.58594v3.66406l1.67969,-0.57031v-4.11719zM175.76954,190.4239v2.36719l0.75,-0.625c0.45312,0.78646 0.81251,1.54423 1.07813,2.27343l-1.0625,1.05469c-0.27604,-0.88027 -0.53125,-1.57815 -0.76562,-2.09375v12.22656h-1.63281v-15.20312zM182.96485,190.4239v1.03906h4.04688v1.17188h-4.04687v0.75h3.49218v1.11718h-3.49218v0.77344h4.5625v1.25h-10.53125v-1.25h4.35156v-0.77344h-3.39062v-1.11718h3.39063v-0.75h-3.85156v-1.17188h3.85156v-1.03906zM169.60743,190.71095v1.11718h-4.98437v0.67188h6.46875v2.80469h-1.69531v-1.79688h-4.77344v3.03907h-1.66406v-3.03907h-4.6875v1.79688h-1.67969v-2.80469h6.36914v-0.67182h-4.88282v-1.11718zM202.80274,190.92968v3.65625c0,0.45313 -0.08334,0.77347 -0.25,0.96094c-0.19792,0.22399 -0.61197,0.33593 -1.24219,0.33593c-0.61458,0 -1.22913,-0.0261 -1.84375,-0.0781l-0.26562,-1.40625c0.8646,0.09372 1.4141,0.14062 1.64844,0.14062c0.2448,0 0.36719,-0.10678 0.36719,-0.32031v-1.88281h-3.42187v4.53906h4.42969l0.9297,0.79694c-0.28125,1.65626 -0.79425,3.13543 -1.53907,4.4375l-0.08594,0.15624c0.57292,0.66147 1.28909,1.26564 2.14844,1.8125l-0.875,1.46094c-0.82293,-0.53126 -1.55732,-1.16671 -2.20312,-1.90625c-0.55729,0.70834 -1.1849,1.375 -1.88281,2l-0.92187,-1.28125v1.21875h-1.58594v-14.64062zM173.80079,193.8614c-0.06247,2.2292 -0.24475,4.03909 -0.54687,5.42969l-1.32812,-0.71094c0.23438,-1.08333 0.40365,-2.4844 0.50781,-4.20313l0.03906,-0.64062zM162.28712,194.08601v0.88281h-3.32812v-0.88281zM168.72462,194.08601v0.88281h-3.42969v-0.88281zM162.28712,195.52351v0.89844h-3.32812v-0.89844zM168.72462,195.52351v0.89844h-3.42969v-0.89844zM191.41212,198.07819h1.29688c0.27084,-0.66666 0.47657,-1.32288 0.61719,-1.96874h-2.48437c0.17709,0.49479 0.36719,1.15101 0.57031,1.96874zM170.68557,197.01567v1.03907h-11.80469v2.39843h12.47656v1.10157h-1.77344l0.99219,0.65625c-0.58855,0.48953 -1.28388,0.94786 -2.08594,1.375c0.79686,0.30206 1.7936,0.54168 2.98633,0.71875l-0.91406,1.32812c-1.67186,-0.28646 -3.04425,-0.77869 -4.11719,-1.47656c-1.06773,-0.69793 -1.90041,-1.5651 -2.49414,-2.60156h-1.72656v2.40625c1.15106,-0.16147 2.2188,-0.33329 3.20313,-0.51563l0.10938,1.16407c-1.83333,0.43746 -3.92966,0.81769 -6.28906,1.14062l-0.46094,-1.375c0.81773,-0.0885 1.37762,-0.151 1.67969,-0.1875l0.09375,-0.0156v-2.61719h-1.71094c-0.07291,0.91666 -0.19271,1.64844 -0.35937,2.19531c-0.19792,0.65627 -0.51562,1.2682 -0.95312,1.83594l-1.39062,-1.14844c0.51041,-0.66147 0.82813,-1.43491 0.95313,-2.32031c0.06771,-0.47914 0.10156,-1.07547 0.10156,-1.78907v-3.3125zM186.21486,197.35359v6.85937c0,0.4792 -0.11459,0.82814 -0.34375,1.04688c-0.22396,0.21353 -0.60679,0.32031 -1.14843,0.32031c-0.64062,0 -1.29946,-0.04431 -1.97657,-0.13281l-0.22656,-1.40625c0.69273,0.0833 1.24223,0.125 1.64843,0.125c0.20834,0 0.33333,-0.05212 0.375,-0.15625c0.02606,-0.06267 0.03906,-0.159 0.03906,-0.28907v-1.00781h-4.79687v2.91406h-1.63281v-8.27343zM197.79494,204.18757c0.64062,-0.43753 1.25778,-1.05208 1.85156,-1.84375c-0.79686,-1.22913 -1.35675,-2.5833 -1.67969,-4.0625h-0.17187zM200.51369,200.96101c0.46354,-0.89587 0.76563,-1.78909 0.90625,-2.67969h-2.01562c0.2552,1 0.62498,1.89322 1.10938,2.67969zM179.78518,199.41609h4.79688v-0.91407h-4.79687zM169.53713,198.71101v1.02344h-9.72656v-1.02344zM179.78518,201.52546h4.79688v-0.96094h-4.79687zM167.2715,202.98445c0.75,-0.5104 1.34633,-0.98696 1.78907,-1.42969h-3.41407c0.44791,0.57293 0.98958,1.04949 1.625,1.42969z" fill="#ffffff" fill-rule="nonzero" stroke="none" stroke-width="1" stroke-linecap="butt" stroke-linejoin="miter"/></g></g></svg>