<svg xmlns="http://www.w3.org/2000/svg" viewBox="0 0 180 40" version="1.1" height="40" width="180">
 <path style="paint-order:stroke markers fill" stroke-width=".2" stroke-linejoin="round" stroke-linecap="round" stop-color="#000000" fill-opacity="0" fill="none" d="m0 0h180v40h-180z"></path>
 <g aria-label="4.5以上" fill="#fff">
  <path d="m25.729 14.258h2.126v7.335h2.0303v1.4561h-2.0303v2.6182h-1.709v-2.6182h-5.6807v-1.4424zm0.41699 7.335v-3.2471q0-1.1143 0.0957-2.5361h-0.05469q-0.66309 1.4082-1.1348 2.0713l-2.5977 3.7119z"></path>
  <path d="m31.614 23.37h2.2969v2.2969h-2.2969z"></path>
  <path d="m37.397 14.326h6.624v1.5107h-5.1406l-0.40332 3.2334h0.05469q1.0527-0.75879 2.4404-0.75879 0.9502 0 1.7842 0.43066 1.1689 0.59473 1.6338 1.8115 0.25977 0.68359 0.25977 1.5176 0 1.873-1.3809 2.9531-1.1484 0.89551-2.8574 0.89551-2.4746 0-3.9785-1.4902l0.93652-1.1758q0.54688 0.54004 1.333 0.83398 0.85449 0.32129 1.6816 0.32129 0.93652 0 1.5996-0.51953 0.84766-0.66309 0.84766-1.832 0-1.0186-0.58789-1.6611-0.63574-0.69726-1.7568-0.69726-1.5244 0-2.2354 1.0664l-1.5381-0.25293z"></path>
  <path d="m55.69 23.363q-1.5996 1.9824-4.8945 3.1787l-0.86816-1.2646q3.9307-1.1895 5.1338-3.7598 1.1348-2.4336 1.1348-7.4922v-0.21191h1.5312v0.18457q0 3.4658-0.41016 5.5508-0.27344 1.4355-0.83398 2.584 2.2012 1.5654 3.2607 2.7959l-1.0938 1.3467q-1.1553-1.4424-2.8438-2.8164-0.06152-0.04785-0.11621-0.0957zm-6.4395-0.71094q1.8867-0.86133 3.5615-1.9961l0.40332 1.2441q-2.7617 1.9756-6.3574 3.3906l-0.69726-1.3604q0.86816-0.31445 1.6064-0.61523l-0.16406-9.0713h1.5244zm3.9238-3.7051q-1.2646-1.8867-2.6045-3.1514l1.1484-0.96387q1.6816 1.5791 2.7002 3.1035z"></path>
  <path d="m67.305 17.252h4.9355v1.4014h-4.9355v5.7148h6.2412v1.4287h-13.303v-1.4287h5.4072v-11.02h1.6543z"></path>
 </g>
</svg>
