<svg version="1.1" xmlns="http://www.w3.org/2000/svg" xmlns:xlink="http://www.w3.org/1999/xlink" width="43.87825" height="43.75824" viewBox="0,0,43.87825,43.75824"><g transform="translate(89.44185,22.20545)"><g data-paper-data="{&quot;isPaintingLayer&quot;:true}" fill="#ff0000" fill-rule="evenodd" stroke="none" stroke-width="0" stroke-linecap="round" stroke-linejoin="round" stroke-miterlimit="10" stroke-dasharray="" stroke-dashoffset="0" style="mix-blend-mode: normal"><path d="M-52.45333,-19.07559l1.27995,1.81993l1.05996,0.57998l1.63993,1.67993l2.29991,1.76993l0.60998,1.10996l-1.24995,2.04992l0.49998,2.5299l-0.56998,0.99996l-0.18999,1.96992l-1.53994,0.48998l-0.96996,-1.55994l-0.99996,1.54994l-2.14991,-0.18999l0.14999,0.61998l2.06992,0.25999l0.35999,3.41986l-1.38994,0.27999l-2.4899,-1.14995l-1.18995,0.27999l-1.18995,-0.86997l0.12999,1.45994l-4.29983,0.09l0.35999,-1.77993l0.62997,-0.84997l-2.07992,0.20999l-1.54994,-1.19995l-0.1,-1.45994l-2.21991,-0.58998l-0.17999,-1.12995l0.70997,-0.85997l0.18999,-1.82993l-1.48994,-0.52998l-0.11,-0.76997l0.97996,-1.43994l0.14999,-1.77993l0.83997,-1.96992l1.42994,-0.38998l-0.05,-1.22995l1.45994,-0.31999l0.70997,-0.72997l0.17999,-1.16995l1.38994,-0.69997l0.88996,0.86997l0.69997,-0.06l1.65993,-1.56994l-0.1,-1.03996l1.79993,2.5699l1.92992,0.55998"/><path d="M-74.95243,4.42347l-0.99996,1.65993l-1.56994,0.75997l-2.28991,0.46998l-0.27999,0.58998l0.53998,1.36995l0.51998,-0.12l0.68997,1.59994l-0.65997,0.52998l0.07,1.58994l-1.33995,0.44998l-1.55994,-0.18999l-1.05996,-1.40994l-0.60998,-1.86993l-1.39994,-0.21999l-0.20999,0.86997l-1.25995,0.21999l1.68993,3.29987l-0.74997,0.94996l-1.13995,-0.43998l-0.14999,-0.58998l-1.92992,-0.40998l-0.78997,-0.51998l0.44998,-0.97996l-0.31999,-0.85997l1.28995,-1.51994l1.20995,-1.97992l1.37994,-1.01996l2.02992,0.52998l0.63997,-0.43998l-0.03,-2.5099l1.81993,-0.21999l2.4599,0.96996l1.38994,-1.60994l0.89996,0.01l1.26995,1.03996"/><path d="M-70.6526,8.6233l-0.79997,0.32999l0.12,0.90996l0.95996,0.76997l-0.57998,1.34995l-1.57994,-0.70997l0.02,1.58994l-0.77997,0.19999l-1.10996,1.89992l-0.90996,0.37998l-0.98996,1.13995l-0.96996,-0.60998l0.41998,-1.19995l-0.20999,-0.92996l0.85997,-1.66993l-1.45994,-3.14987l1.73993,-0.65997l1.22995,-1.68993l1.84993,-0.36999l1.67993,1.40994l0.50998,1.00996"/><path d="M-79.55224,18.7229l1.74993,1.04996l0.36999,1.77993l-2.36991,-1.52994l-2.19991,0.27999l-1.07996,0.50998l-0.16999,-2.09992l-0.65997,-1.00996l0.27999,-0.71997l3.14987,0.52998l0.92996,1.20995"/></g></g></svg>