<svg version="1.1" xmlns="http://www.w3.org/2000/svg" xmlns:xlink="http://www.w3.org/1999/xlink" width="208" height="32" viewBox="0,0,208,32"><g transform="translate(-240,-164)"><g data-paper-data="{&quot;isPaintingLayer&quot;:true}" fill-rule="nonzero" stroke="none" stroke-linecap="butt" stroke-linejoin="miter" stroke-miterlimit="10" stroke-dasharray="" stroke-dashoffset="0" style="mix-blend-mode: normal"><path d="M240,196v-32h208v32z" fill="none" stroke-width="0"/><path d="M245.19,187.08v-5.8398h2.041v1.6406h3.7012v1.6797h-3.7012v2.2168c1.6016,-0.26041 2.8744,-0.49804 3.8184,-0.71289l0.0586,1.6406c-2.14847,0.61198 -4.5801,1.11001 -7.2949,1.4941l-0.5664,-1.875c0.6966,-0.07813 1.3444,-0.15951 1.9434,-0.24414zM251.1177,172.119h7.8516v1.6797h-5.5664v1.7188h4.8633v5.127h-14.58c-0.03907,2.05727 -0.14323,3.66207 -0.3125,4.8144c-0.21485,1.47133 -0.64455,2.81247 -1.2891,4.0234l-1.7969,-1.4551c0.61198,-1.2044 1.00261,-2.6367 1.1719,-4.2969c0.12369,-1.21747 0.18554,-2.85483 0.18554,-4.9121v-6.6992h7.3047v-1.6211h2.168zM243.7056,173.7987v1.7188h2.9004v-1.7188zM243.7056,177.0799v2.002h2.9004v-2.002zM256.2056,179.0819v-2.002h-2.8027v2.002zM248.608,173.7987v1.7188h2.793v-1.7188zM248.608,177.0799v2.002h2.793v-2.002zM253.7056,183.2811c1.41273,-0.48177 2.63343,-1.04167 3.6621,-1.6797l1.2988,1.582c-1.46487,0.71613 -3.1185,1.32487 -4.9609,1.8262v1.4844c0,0.39063 0.12044,0.61849 0.36133,0.68359c0.20182,0.0586 0.68035,0.0879 1.4356,0.0879c0.90493,0 1.43553,-0.0944 1.5918,-0.2832c0.14323,-0.16927 0.2474,-0.7487 0.3125,-1.7383l0.0195,-0.30273l2.002,0.53711c-0.013,0.08463 -0.03253,0.32552 -0.0586,0.72265c-0.09765,1.26953 -0.38086,2.08983 -0.84961,2.4609c-0.46223,0.37109 -1.62433,0.55664 -3.4863,0.55664c-1.31513,0 -2.1908,-0.09766 -2.627,-0.29297c-0.48177,-0.22135 -0.72265,-0.69662 -0.72265,-1.4258v-6.2598h2.0215z" fill="#ffffff" stroke-width="1"/><path d="M277.58,171.07v9.7266h-10.117v-9.7266zM269.582,172.8278v2.2266h5.8594v-2.2266zM269.582,176.734v2.3438h5.8594v-2.3438zM262.6191,170.6891h2.2559v10.84h-2.2559zM260.5585,187.7301c1.6862,-0.16927 3.05663,-0.64777 4.1113,-1.4355c0.72267,-0.54037 1.20443,-1.2728 1.4453,-2.1973c0.13672,-0.53385 0.23112,-1.31512 0.2832,-2.3438h2.1582c-0.01953,2.4414 -0.55013,4.24803 -1.5918,5.4199c-1.0156,1.13933 -2.71807,1.95313 -5.1074,2.4414zM271.1055,181.6949h2.1973v4.834c0,0.33855 0.10742,0.54037 0.32227,0.60547c0.22786,0.07161 0.68359,0.10742 1.3672,0.10742c0.73567,0 1.2272,-0.03906 1.4746,-0.11718c0.26042,-0.08464 0.42969,-0.3418 0.50782,-0.77149c0.09114,-0.44271 0.14648,-1.12304 0.16601,-2.041l2.2266,0.64453c-0.02607,0.24739 -0.06513,0.69336 -0.11718,1.3379c-0.11719,1.35413 -0.41992,2.2005 -0.90821,2.5391c-0.27343,0.18229 -0.6673,0.29623 -1.1816,0.3418c-0.7096,0.0586 -1.57873,0.0879 -2.6074,0.0879c-1.4258,0 -2.3568,-0.12695 -2.793,-0.38086c-0.43619,-0.26042 -0.65429,-0.77149 -0.65429,-1.5332z" fill="#ffffff" stroke-width="1"/><path d="M287.74,171.98c0.24089,-0.57943 0.4362,-1.13283 0.58594,-1.6602l2.3828,0.32226c-0.22787,0.54037 -0.4362,0.98633 -0.625,1.3379h6.5039v6.3672h-11.797v0.98633h14.697v1.582h-14.697v0.99609h14.014c-0.08463,2.9818 -0.27343,4.99353 -0.5664,6.0352c-0.18881,0.66406 -0.54364,1.10353 -1.0645,1.3184c-0.37109,0.15625 -0.93749,0.23437 -1.6992,0.23437c-0.78127,0 -1.51043,-0.04883 -2.1875,-0.14648l-0.39063,-1.6406h-9.7852v1.084h-2.0996v-4.6973h2.0996v2.0117h3.3594v-2.6367h-3.8379v-11.494zM291.8904,186.111v-2.0117h2.0215v3.3984c0.54036,0.05207 0.98956,0.0781 1.3476,0.0781c0.44271,0 0.7194,-0.12695 0.83008,-0.38085c0.21485,-0.47527 0.38412,-1.7155 0.50781,-3.7207h-8.0273v2.6367zM284.7908,173.484v0.96679h9.6387v-0.96679zM284.7908,175.8473v1.0644h9.6387v-1.0644z" fill="#ffffff" stroke-width="1"/><path d="M316.76,170.98v9.4629h-11.621v-9.4629zM307.2385,172.523v1.2207h7.4023v-1.2207zM307.2385,175.1207v1.2207h7.4023v-1.2207zM307.2385,177.7183v1.2598h7.4023v-1.2598zM303.3029,181.7417h16.191v1.6992h-8.0762v6.0644h-2.2168v-6.0644h-8.0371v-10.957h2.1387zM300.8029,187.6401c1.54947,-0.71613 3.0306,-1.9173 4.4434,-3.6035l1.7969,1.0449c-1.3932,1.76433 -2.93943,3.15107 -4.6387,4.1602zM317.6389,188.8999c-0.99607,-1.22393 -2.49347,-2.50973 -4.4922,-3.8574l1.6797,-1.1816c1.569,0.90493 3.1087,2.09307 4.6191,3.5644z" fill="#ffffff" stroke-width="1"/><path d="M329.45,180.92v2.0996c0,0.41015 -0.0065,0.73567 -0.0195,0.97656c0.71613,-0.8268 1.20117,-1.71873 1.4551,-2.6758l1.7285,0.38086c-0.08464,0.28646 -0.17579,0.55339 -0.27344,0.80078h1.1523v-1.084h1.8555v1.084h3.457v1.377h-3.457v1.1035h2.998v1.3379h-2.998v1.2988h4.1406v1.4844h-10.264v-1.4844h4.2676v-1.2988h-2.8027v-1.3281l-1.2695,-0.92773c-0.03907,1.0742 -0.18881,2.02473 -0.44922,2.8516c-0.30599,0.96353 -0.82033,1.8522 -1.543,2.666l-1.5332,-1.2793c0.8268,-0.89847 1.35413,-1.93687 1.582,-3.1152c0.13021,-0.65105 0.19531,-1.39975 0.19531,-2.2461v-3.418h1.7773l-0.76171,-0.83984c1.10027,-0.16927 2.11263,-0.36784 3.0371,-0.5957c-0.54037,-0.14323 -1.3737,-0.35157 -2.5,-0.625l0.80078,-0.625h-2.1973v-1.4356h4.8438v-1.0644h-0.98633v-1.0156h-3.8965v1.0938h-2.0996v-1.0938h-5.2148v-1.582h5.2148v-1.2402h2.0996v1.2402h3.8965v-1.2402h2.1484v1.2402h5.6738v1.582h-5.6738v0.89844h0.89844v1.1816h4.4336v1.4356h-2.5781l0.91797,0.45898c-0.46875,0.21485 -0.97005,0.42644 -1.5039,0.63477l-0.32227,0.12695l0.67383,0.17578l0.30274,0.0879l0.625,0.17578l1.0059,0.28321l-0.89844,0.74218h1.9629v1.3965zM333.8348,178.6739c-0.931,0.29297 -2.06057,0.57618 -3.3887,0.84961h6.2207l-1.0254,-0.3125c-0.57291,-0.17578 -1.11978,-0.33854 -1.6406,-0.48828zM333.71761,177.5216c0.0456,-0.01953 0.09117,-0.0358 0.13672,-0.0488c0.44922,-0.13672 1.05469,-0.34831 1.8164,-0.63476h-4.7168c1.14587,0.26041 2.0671,0.48828 2.7637,0.68359zM331.65711,183.879c-0.2474,0.40365 -0.50456,0.77148 -0.77149,1.1035h2.6074v-1.1035zM325.75871,180.0118c0.93747,1.25 1.4062,2.5716 1.4062,3.9648c0,0.83987 -0.153,1.43557 -0.45899,1.7871c-0.30599,0.34505 -0.83985,0.51758 -1.6016,0.51758c-0.58593,0 -1.09373,-0.04557 -1.5234,-0.13672l-0.2832,-1.6992c0.1237,0.01953 0.29297,0.04557 0.50781,0.0781c0.32552,0.05207 0.62175,0.0781 0.88868,0.0781c0.24739,0 0.41015,-0.04883 0.48828,-0.14649c0.07812,-0.09765 0.11718,-0.27018 0.11718,-0.51757c0,-1.3086 -0.48827,-2.57163 -1.4648,-3.7891c0.7292,-1.47133 1.17843,-2.68553 1.3477,-3.6426h-1.9434v12.998h-1.9043v-14.541h5.2441l0.68359,0.76172c-0.46223,1.6406 -0.96353,3.06963 -1.5039,4.2871z" fill="#ffffff" stroke-width="1"/><path d="M355.57,173.54v1.1035h3.2812v1.3965h-2.5195c0.78773,0.918 1.7936,1.70577 3.0176,2.3633l-0.9375,1.3965c-1.15233,-0.7422 -2.11263,-1.63087 -2.8809,-2.666v2.168h-1.8164v-1.9726c-0.53385,0.84633 -1.24675,1.55597 -2.1387,2.1289l-1.0254,-1.1426c0.95707,-0.52735 1.78713,-1.28581 2.4902,-2.2754h-2.0312v-1.3965h2.666v-1.1035h-5.0391v1.1035h1.9531v1.3965h-2.002v0.36132c0.74867,0.37109 1.44527,0.81706 2.0898,1.3379l-0.92774,1.2207c-0.32552,-0.34505 -0.71289,-0.69989 -1.1621,-1.0645v1.8457h-1.7969v-2.2559c-0.56641,0.85287 -1.31511,1.60483 -2.2461,2.2559l-0.95704,-1.2402v0.55664c0,2.6302 -0.11393,4.74933 -0.34179,6.3574c-0.20833,1.45833 -0.5892,2.8125 -1.1426,4.0625l-1.8555,-1.3184c0.47526,-1.08727 0.81056,-2.34703 1.0059,-3.7793c0.19531,-1.44533 0.29297,-3.21943 0.29297,-5.3223v-7.1191h7.8613v-1.4355h2.168v1.4355h7.5976v1.6016zM346.7321,173.54h-3.1445v4.9316c1.06773,-0.64453 1.93363,-1.45507 2.5977,-2.4316h-2.1973v-1.3965h2.7442zM352.6305,181.2158v1.1133h5.9766v1.3965h-5.9766v0.95703h6.875v1.4844h-6.875v1.7188c0,0.59245 -0.14974,1.01238 -0.44922,1.2598c-0.28645,0.24089 -0.81705,0.36133 -1.5918,0.36133c-1.19793,0 -2.1387,-0.05534 -2.8223,-0.16601l-0.30273,-1.6211c0.97653,0.13672 1.88147,0.20508 2.7148,0.20508c0.22135,0 0.34831,-0.04232 0.38086,-0.12695c0.03253,-0.07161 0.0488,-0.1888 0.0488,-0.35156v-1.2793h-6.9043v-1.4844h6.9043v-0.95703h-6.0644v-1.3965h6.0644v-0.95703c-1.82293,0.11067 -3.36917,0.17578 -4.6387,0.19531l-0.60547,-1.3965c4.01693,-0.06513 7.59127,-0.33206 10.723,-0.80079l1.1426,1.2988c-1.71227,0.25391 -3.24547,0.4362 -4.5996,0.54688z" fill="#ffffff" stroke-width="1"/></g></g></svg>