<svg version="1.1" xmlns="http://www.w3.org/2000/svg" xmlns:xlink="http://www.w3.org/1999/xlink" width="83.06672" height="116.58535" viewBox="0,0,83.06672,116.58535"><g transform="translate(-357.95672,14.12487)"><g data-paper-data="{&quot;isPaintingLayer&quot;:true}" fill="#ff0000" fill-rule="evenodd" stroke="none" stroke-width="0" stroke-linecap="round" stroke-linejoin="round" stroke-miterlimit="10" stroke-dasharray="" stroke-dashoffset="0" style="mix-blend-mode: normal"><path d="M438.01357,-13.6549l0.24999,0.71997l2.13991,1.54994l-0.56998,1.59994l-1.07996,0.06l-0.70997,1.01996l0.08,1.52994l-0.73997,0.04l-0.33999,1.03996l0.54998,0.47998l0.04,1.63993l1.06996,0.58998l-0.27999,2.32991l1.42994,0.91996l1.16995,0.16999l-0.05,3.25987l-1.84993,0.12l-1.70993,1.97992l-1.86993,-0.63997l-2.30991,0.77997l-1.25995,-0.79997l-0.45998,1.66993l-0.94996,0.17999l-0.46998,1.09996l-1.04996,0.62997l0.34999,1.24995l-1.28995,0.97996l0.52998,1.32995l-0.85997,1.42994l-0.31999,2.30991l-1.93992,2.11992l0.89996,3.33987l1.82993,0.79997l0.27999,2.00992l1.56994,1.25995l1.32995,-0.48998l0.96996,0.91996l-0.01,2.34991l0.74997,1.26995l-0.46998,0.79997l0.45998,1.15995l1.31995,0.78997l0.32999,1.44994l1.84993,2.28991l0.42998,1.31995l1.16995,1.98992l0.11,2.28991l-0.34999,1.75993l-2.16991,1.54994l0.46998,1.66993l-1.40994,1.67993l-2.06992,-0.69997l-1.53994,-0.22999l-1.07996,0.88996l-1.30995,-0.11l-0.79997,1.55994l0.97996,1.35995l1.42994,0.31999l0.06,1.96992l-0.27999,1.08996l1.26995,2.6099l0.36999,2.14991l0.70997,0.83997l-1.08996,0.47998l-1.81993,0.15999l0.09,1.77993l-0.93996,0.38998l-0.48998,1.83993l-0.64997,0.15999l-0.40998,1.40994l-1.46994,-0.26999l-1.36995,0.28999l-0.69997,0.65997l-1.66993,0.45998l-1.16995,-0.47998l-1.30995,1.61994l0.35999,1.40994l-0.61998,0.93996l0.47998,1.23995l-0.31999,1.60994l1.22995,0.80997v1.22995l-1.08996,0.90996l-1.34995,1.65993l-1.90992,0.48998l-1.27995,1.12995l-0.65997,1.48994l-0.88996,0.74997l0.64997,1.57994l1.37994,1.06996l3.61986,1.55994l1.26995,0.92996l1.02996,1.48994l1.51994,1.04996l0.39998,1.70993l-1.56994,0.78997l-0.61998,-1.12995l-1.02996,-0.57998l-2.06992,0.39998l-1.15995,-0.24999l-1.86993,1.07996l-1.54994,0.09l-1.82993,-1.06996l-2.36991,1.00996l-0.92996,2.4799l0.45998,1.99992l-0.52998,1.77993l1.07996,1.25995l-0.81997,0.72997l-0.03,1.29995l-0.94996,1.31995h-1.29995l-0.47998,-0.90996l-1.12995,0.47998l-1.72993,0.13999l-1.88992,-0.58998l-1.59994,-1.13995l-1.64993,-0.74997l-3.32987,-0.76997l-1.05996,-0.05l-2.5799,0.61998l-1.55994,-1.10996l-1.13995,0.12l-0.13999,-1.25995l-1.34995,0.15999l-1.30995,-0.70997l-2.86989,0.43998l-1.51994,-0.62997l-0.51998,-1.01996l-1.81993,-0.80997l-1.91992,-0.18999l-1.29995,1.70993l-2.83989,-0.88996l-0.70997,-0.60998l-1.63993,0.86997l-1.75993,1.76993l-0.71997,0.08l-0.78997,-1.32995l0.57998,-0.44998l-1.09996,-2.85989l-1.11996,-1.69993l0.48998,-0.66997l-2.22991,-2.30991l-1.95992,0.59998l-1.09996,-0.14999l-1.13995,-1.58994l0.96996,-1.27995l0.19999,-2.3999l1.31995,-2.77989l0.27999,-1.64993l-0.45998,-1.89992l0.41998,-1.01996l-1.26995,-1.36995v-1.23995l-1.53994,-0.20999l-1.09996,-2.05992l-0.26999,-1.62993l1.66993,-0.40998l0.85997,-0.83997l-0.08,-1.17995l1.04996,-0.75997l0.36999,-1.20995l1.50994,-1.17995l1.36995,-1.60994l-0.66997,-1.51994l-1.69993,-0.66997l-1.14995,-1.00996l-0.96996,0.33999l-1.65993,-1.05996l0.17999,-3.76985l-0.46998,-0.53998l-0.16999,-1.47994l1.72993,-1.79993l1.44994,0.32999l1.44994,-0.73997l1.45994,1.72993l1.41994,0.24999l2.06992,-0.61998l0.15999,-1.16995l-0.47998,-1.40994l-0.70997,-0.71997l0.04,-1.55994l-1.33995,-1.51994l0.23999,-1.00996l-0.47998,-0.69997l0.48998,-2.16991l-0.92996,-0.81997l-0.1,-2.19991l0.38998,-2.28991l-0.17999,-1.86993l0.64997,-0.75997l0.01,-1.07996l-0.51998,-1.24995l0.49998,-1.95992l-1.08996,-3.63985l1.29995,-1.51994l0.57998,0.16999l1.39994,-1.71993l0.13999,-2.21991l-1.14995,-2.03992l1.59994,-2.99988l-0.08,-0.70997l-1.32995,-0.06l-0.97996,-1.57994l1.31995,-0.87996l1.98992,-1.82993l-0.28999,-1.07996l0.87996,-1.10996l-0.24999,-0.60998l0.96996,-1.10996l3.66985,-0.85997l-0.20999,-1.50994l0.66997,-0.87996l0.82997,-0.09l1.02996,1.02996l0.39998,1.50994l1.06996,1.12995l1.12995,-0.40998l1.45994,0.62997l1.63993,-0.30999l0.43998,-0.81997l1.96992,-1.38994l1.33995,-0.14999l1.64993,-1.87992l1.37994,0.06l1.38994,-0.45998l0.59998,-0.69997l-1.02996,-2.5099l2.00992,-1.27995l1.44994,-0.62997l0.39998,-0.74997l1.57994,-0.12l1.77993,-1.09996l2.5699,0.26999l2.08992,-1.34995l0.76997,-1.29995l0.54998,-0.02l1.65993,-1.68993l1.16995,-0.12l0.22999,-0.99996l1.26995,0.63997l1.71993,-0.91996l-0.04,-0.81997l0.69997,-1.03996l1.14995,-0.12999l0.54998,-0.74997l0.84997,0.34999l1.28995,1.95992l-0.32999,1.21995l1.43994,0.90996l0.46998,1.00996l2.90988,-1.85993l0.75997,-1.02996l0.76997,-1.87992l0.94996,1.33995l2.03992,-1.02996l1.41994,-1.44994l1.26995,0.39998l1.17995,-0.57998l1.43994,0.16999l2.66989,1.72993l0.79997,1.23995l2.3799,0.71997l1.69993,-1.73993l0.78997,-0.04l1.74993,-1.60994"/></g></g></svg>