<svg version="1.1" xmlns="http://www.w3.org/2000/svg" xmlns:xlink="http://www.w3.org/1999/xlink" width="208" height="32" viewBox="0,0,208,32"><g transform="translate(-240,-164)"><g data-paper-data="{&quot;isPaintingLayer&quot;:true}" fill-rule="nonzero" stroke="none" stroke-linecap="butt" stroke-linejoin="miter" stroke-miterlimit="10" stroke-dasharray="" stroke-dashoffset="0" style="mix-blend-mode: normal"><path d="M240,196v-32h208v32z" fill="none" stroke-width="0"/><path d="M245.45,179.12c0.86587,0.59896 1.6764,1.24676 2.4316,1.9434v-0.79101h11.123v9.2285h-1.9629v-0.82031h-7.1777v0.82031h-1.9824v-8.1836l-1.0156,1.6113c-0.48177,-0.57292 -0.95377,-1.08399 -1.416,-1.5332v8.1055h-2.0606v-7.998c-0.77473,0.8724 -1.49087,1.6146 -2.1484,2.2266l-1.0156,-1.8555c2.18747,-1.91407 3.8411,-4.01367 4.9609,-6.2988h-4.5215v-1.9434h2.6367v-3.1348h2.0801v3.1348h1.5039l0.89843,0.9375c-0.61198,1.40627 -1.38998,2.81577 -2.334,4.2285zM249.8641,181.8544v1.8164h2.6465v-1.8164zM249.8641,185.1747v1.8848h2.6465v-1.8848zM257.0418,187.0595v-1.8848h-2.7344v1.8848zM257.0418,183.6708v-1.8164h-2.7344v1.8164zM258.0672,174.1786v4.9609h-9.3262v-4.9609zM250.7039,175.6825v1.9727h5.3418v-1.9727zM247.5887,171.2977h11.699v1.6992h-11.699z" fill="#ffffff" stroke-width="1"/><path d="M265.36,174.24v-3.5644h2.2363v3.5644h4.8242v-3.7402h2.2363v3.7402h4.1406v1.9434h-4.1406v4.834h4.8438v1.9629h-4.8438v6.5234h-2.2363v-6.5234h-4.8828c-0.11719,1.52993 -0.48829,2.7669 -1.1133,3.7109c-0.80727,1.21093 -1.8945,2.1875 -3.2617,2.9297l-1.6797,-1.6992c1.54947,-0.77473 2.6074,-1.66013 3.1738,-2.6562c0.33855,-0.59245 0.55665,-1.35418 0.6543,-2.2852h-4.8144v-1.9629h4.8633v-4.834h-4.2188v-1.9434zM272.4205,176.1834h-4.8242v4.834h4.8242z" fill="#ffffff" stroke-width="1"/><path d="M296.76,170.98v9.4629h-11.621v-9.4629zM287.2385,172.523v1.2207h7.4023v-1.2207zM287.2385,175.1207v1.2207h7.4023v-1.2207zM287.2385,177.7183v1.2598h7.4023v-1.2598zM283.3029,181.7417h16.191v1.6992h-8.0762v6.0644h-2.2168v-6.0644h-8.0371v-10.957h2.1387zM280.8029,187.6401c1.54947,-0.71613 3.0306,-1.9173 4.4434,-3.6035l1.7969,1.0449c-1.3932,1.76433 -2.93943,3.15107 -4.6387,4.1602zM297.6389,188.8999c-0.99607,-1.22393 -2.49347,-2.50973 -4.4922,-3.8574l1.6797,-1.1816c1.569,0.90493 3.1087,2.09307 4.6191,3.5644z" fill="#ffffff" stroke-width="1"/><path d="M302.82,178.99h4.7168v1.377h-5.1465v-1.0254c-0.25391,0.20183 -0.59897,0.45899 -1.0352,0.77149l-1.2207,-1.2988c1.6276,-0.99607 2.9069,-2.3242 3.8379,-3.9844h1.9629c1.1068,0.89847 2.2396,1.9792 3.3984,3.2422l-1.2207,1.4746c-0.8268,-1.13933 -1.78057,-2.22007 -2.8613,-3.2422l-0.0781,-0.0781c-0.61198,1.0156 -1.39648,1.93683 -2.3535,2.7637zM314.509,178.15016h4.0039v8.1055h-8.623v-8.1055h2.7539c0.08464,-0.23438 0.19532,-0.60548 0.33204,-1.1133h-3.9648v-1.5039h10.322v1.5039h-4.3945c-0.16927,0.5013 -0.3125,0.8724 -0.42969,1.1133zM316.716,179.42946h-5.0684v1.0059h5.0684zM311.6476,181.63646v1.0156h5.0684v-1.0156zM311.6476,183.87276v1.0645h5.0684v-1.0645zM311.0519,172.89576h4.7461v-1.8848h2.0996v3.4082h-15.664v-3.4082h2.0801v1.8848h4.6387v-2.4023h2.0996zM308.8937,181.61646v4.082c0,0.50781 -0.10417,0.87891 -0.3125,1.1133c-0.22786,0.24739 -0.65103,0.37109 -1.2695,0.37109c-0.67707,0 -1.21743,-0.03257 -1.6211,-0.0977l-0.27344,-1.6211c0.56641,0.07813 0.99934,0.11719 1.2988,0.11719c0.20833,0 0.32878,-0.05208 0.36133,-0.15625c0.02607,-0.06513 0.0391,-0.16605 0.0391,-0.30274v-2.0215h-1.9238v6.3965h-1.8359v-6.3965h-2.4805v-1.4844zM307.8585,188.31566c1.41927,-0.44271 2.7116,-1.11004 3.877,-2.002l1.3965,1.084c-1.13933,0.92447 -2.4935,1.69597 -4.0625,2.3145zM318.3565,189.61446c-1.27607,-0.85287 -2.55537,-1.56577 -3.8379,-2.1387l1.2598,-1.1426c1.38673,0.48177 2.7116,1.09374 3.9746,1.8359z" fill="#ffffff" stroke-width="1"/><path d="M328.92,182.24h-4.043v-1.6016h1.9531c-0.29297,-0.66407 -0.625,-1.28257 -0.99609,-1.8555l1.7578,-0.64453c0.50781,0.85287 0.91798,1.6862 1.2305,2.5h2.2949c0.38411,-0.78773 0.72265,-1.6341 1.0156,-2.5391l1.9629,0.61524c-0.33203,0.71613 -0.6836,1.3574 -1.0547,1.9238h2.0996v1.6016h-4.1797v1.4258h4.4531v1.6602h-4.4531v3.6914h-2.041v-3.6914h-4.2871v-1.6602h4.2871zM331.0196,176.2244h7.4024v11.416c0,0.6706 -0.17904,1.1426 -0.53711,1.416c-0.29948,0.23438 -0.80405,0.35157 -1.5137,0.35157c-0.918,0 -1.8034,-0.04883 -2.6562,-0.14649l-0.47852,-1.9629c1.13933,0.13672 1.9922,0.20508 2.5586,0.20508c0.23437,0 0.37109,-0.05859 0.41015,-0.17578c0.02607,-0.07161 0.0391,-0.17253 0.0391,-0.30274v-9.1016h-12.48v11.582h-2.1777v-13.281h7.2754v-1.7676h-8.3594v-1.8164h8.3594v-2.1387h2.1582v2.1387h8.4766v1.8164h-8.4766z" fill="#ffffff" stroke-width="1"/></g></g></svg>