<?xml version="1.0" encoding="UTF-8"?>
<svg width="480" height="360" version="1.1" viewBox="0 0 480 360" xmlns="http://www.w3.org/2000/svg">
 <g dominant-baseline="central" fill="#fff" aria-label="中米">
  <path d="m248.84 174.08v-3.584h2.1973v3.584h7.2461v10.332h-2.1582v-1.3574h-5.0879v6.4453h-2.1973v-6.4453h-4.9609v1.4648h-2.1582v-10.439zm-4.9609 2.002v4.9707h4.9609v-4.9707zm12.246 4.9707v-4.9707h-5.0879v4.9707z" dominant-baseline="central"/>
  <path d="m271.91 179.4q2.8906 3.6426 7.7832 6.2012l-1.3574 2.0215q-4.375-2.5488-7.3047-6.5918v8.4668h-2.1973v-8.2812q-2.5879 4.1895-7.0215 6.7774l-1.3965-1.8359q2.7734-1.4258 4.668-3.2422 1.5137-1.4453 2.9297-3.5156h-7.1973v-1.9238h8.0176v-6.9824h2.1973v6.9824h8.1445v1.9238zm-7.4902-2.4707q-1.2305-2.6074-2.4609-4.3945l1.8359-1.0059q1.5039 1.9238 2.5586 4.3066zm8.7402-0.77148q1.4941-2.1875 2.6562-4.8438l2.0801 0.95703q-1.2012 2.4512-2.9004 4.7461z" dominant-baseline="central"/>
 </g>
</svg>
