<?xml version="1.0" encoding="UTF-8"?>
<svg width="480" height="360" version="1.1" viewBox="0 0 480 360" xmlns="http://www.w3.org/2000/svg">
 <g dominant-baseline="central" fill="#fff" aria-label="青森県三八上北地方">
  <path d="m248.86 171.76v-1.2598h2.1582v1.2598h7.3633v1.4844h-7.3633v0.9375h6.2793v1.4844h-6.2793v0.95703h8.4863v1.5234h-19.004v-1.5234h8.3594v-0.95703h-6.1816v-1.4844h6.1816v-0.9375h-7.2559v-1.4844zm7.9785 7.4024v8.4961q0 1.0449-0.51758 1.4356-0.43945 0.33203-1.4941 0.33203-1.3477 0-3.252-0.16602l-0.33204-1.8359q1.6406 0.21485 2.7832 0.21485 0.45898 0 0.55664-0.14649 0.0781-0.11718 0.0781-0.46875v-1.123h-9.1602v3.6035h-2.1973v-10.342zm-11.338 1.5234v1.0938h9.1602v-1.0938zm0 2.5781v1.1523h9.1602v-1.1523z" dominant-baseline="central"/>
  <path d="m272.71 174.11q2.7051 1.9043 6.543 3.2031l-1.2207 1.7871q-4.5996-1.8164-7.041-4.3555v4.9316h-2.1191v-4.7559q-2.4609 2.9199-6.9238 4.4336l-1.1719-1.582q2.6758-0.85938 4.3262-1.8359 1.3379-0.79102 2.3828-1.8262h-5.9961v-1.7969h7.3828v-1.8164h2.1191v1.8164h7.5586v1.7969zm-8.2226 10.156q-1.2988 2.3242-3.2422 4.0137l-1.1133-1.7773q2.4316-1.7285 3.9648-4.2871h-3.6133v-1.7383h4.0039v-1.9238h2.002v1.9238h2.959v1.7383h-2.959v0.46875q1.6504 1.0059 3.1445 2.2559l-1.3086 1.4746q-0.61524-0.70313-1.8359-1.8262v4.9121h-2.002zm11.279-2.0508q1.4648 2.2656 4.0625 3.9844l-1.1035 1.9434q-2.2656-1.9141-3.3984-3.9746v5.332h-2.002v-5.1465q-1.2305 2.2266-3.2617 3.8281l-1.2012-1.543q2.5976-1.9043 3.9844-4.4238h-2.6367v-1.7383h3.1152v-1.9238h2.002v1.9238h4.1602v1.7383z" dominant-baseline="central"/>
  <path d="m296.76 170.98v9.4629h-11.621v-9.4629zm-9.5215 1.543v1.2207h7.4023v-1.2207zm0 2.5977v1.2207h7.4023v-1.2207zm0 2.5976v1.2598h7.4023v-1.2598zm-3.9356 4.0234h16.191v1.6992h-8.0762v6.0644h-2.2168v-6.0644h-8.0371v-10.957h2.1387zm-2.5 5.8984q2.3242-1.0742 4.4434-3.6035l1.7969 1.0449q-2.0898 2.6465-4.6387 4.1602zm16.836 1.2598q-1.4941-1.8359-4.4922-3.8574l1.6797-1.1816q2.3535 1.3574 4.6191 3.5644z" dominant-baseline="central"/>
  <path d="m302.06 172.29h15.859v2.0801h-15.859zm1.1035 6.4453h13.672v2.0215h-13.672zm-2.3633 6.9727h18.398v2.0801h-18.398z" dominant-baseline="central"/>
  <path d="m332.34 173.7h-6.3477v-2.0801h8.418l0.0488 0.44922q0.39063 4.1992 1.4551 7.4707 1.2109 3.7109 3.5547 7.1387l-1.7969 2.041q-2.3633-3.5059-3.7402-7.7344-0.72266-2.2363-1.3281-5.5957-0.21484-1.2012-0.26367-1.6894zm-11.826 13.379q1.8555-2.0215 2.959-5.0977 1.0742-3.0078 1.377-6.2891l2.207 0.58594q-0.51758 7.4414-4.6582 12.598z" dominant-baseline="central"/>
  <path d="m350.59 176.07h7.0508v2.002h-7.0508v8.1641h8.916v2.041h-19.004v-2.041h7.7246v-15.742h2.3633z" dominant-baseline="central"/>
  <path d="m365.84 184.3q-2.6953 1.416-4.6973 2.168l-0.82031-2.1484q3.1348-1.0547 5.5176-2.1875v-4.375h-4.834v-2.0606h4.834v-5.1953h2.1777v19.004h-2.1777zm6.9434-7.6074q2.2754-1.1914 4.4141-3.0273l1.6211 1.6992q-2.8906 2.0508-6.0352 3.4961v7.3242q0 0.47852 0.3125 0.58594 0.33203 0.10742 1.5332 0.10742 1.582 0 1.9824-0.18555 0.2832-0.12695 0.39062-0.79101 0.14649-0.92774 0.21485-2.998l2.1875 0.67383q-0.0977 2.5293-0.3125 3.6328-0.24414 1.2305-1.2793 1.5918-0.98633 0.33203-3.2324 0.33203-2.6367 0-3.3203-0.43945-0.6543-0.42969-0.6543-1.6504v-16.543h2.1777z" dominant-baseline="central"/>
  <path d="m390.23 178.41v7.7344q0 0.75195 0.64454 0.9082 0.66406 0.16602 3.0371 0.16602 2.3144 0 3.0566-0.23438 0.41992-0.13672 0.54687-0.76172 0.16602-0.8789 0.17578-2.0801l2.041 0.57618q-0.15625 2.8809-0.79102 3.6816-0.41992 0.52734-1.2695 0.625-1.3379 0.14648-4.541 0.14648-2.4805 0-3.252-0.13672-1.1621-0.19531-1.4746-1.0254-0.15625-0.43945-0.15625-1.1719v-7.7441l-1.8652 0.64453-0.45899-1.8945 2.3242-0.80078v-5.2637h1.9824v4.5801l2.0996-0.71289v-5.1465h1.9629v4.4629l3.2715-1.123 1.0254 0.625v7.3144q0 0.76172-0.36133 1.1328-0.41015 0.41015-1.377 0.41015-0.79102 0-1.6797-0.13672l-0.32226-1.8652q0.57617 0.14648 1.1719 0.14648 0.42969 0 0.52734-0.17578 0.0977-0.14648 0.0977-0.48828v-4.6191l-2.3535 0.82031v7.9004h-1.9629v-7.2266zm-7.1777-3.1934v-4.7168h2.0996v4.7168h1.8945v1.9824h-1.8945v6.2109q1.0254-0.35156 2.0312-0.73242l0.18555 1.8848q-3.1641 1.4453-6.4941 2.4219l-0.6836-2.0801q1.5039-0.39062 2.6367-0.74218 0.13672-0.0488 0.22461-0.0684v-6.8945h-2.4805v-1.9824z" dominant-baseline="central"/>
  <path d="m409.48 175.76q-0.0684 1.6309-0.19531 2.8711h7.8711q-0.14648 6.7774-0.76172 8.7988-0.3125 1.0156-1.1621 1.4062-0.66406 0.30273-1.9434 0.30273-1.3477 0-3.0566-0.20507l-0.38085-2.1973q2.2949 0.32227 3.2324 0.32227 0.79101 0 1.0059-0.44922 0.51757-1.0938 0.72265-6.0352h-5.8105q-0.32227 1.7578-0.90821 3.0469-1.6309 3.5644-5.4492 5.6543l-1.543-1.7188q3.8281-1.9922 5.0586-5.2246 0.82031-2.1582 1.0644-6.5723h-6.4648v-2.002h7.9785v-3.2617h2.2559v3.2617h8.2422v2.002z" dominant-baseline="central"/>
 </g>
</svg>
