<?xml version="1.0" encoding="UTF-8"?>
<svg width="480" height="360" version="1.1" viewBox="0 0 480 360" xmlns="http://www.w3.org/2000/svg">
 <g fill="#fff" aria-label="高知県">
  <path d="m253.77 187.48h-6.3281v0.80078h-2.002v-5.4297h8.8965v4.5508q0.66406 0.0781 1.3965 0.0781 0.48828 0 0.59571-0.16602 0.0879-0.12695 0.0879-0.41992v-5.0391h-12.842v7.6465h-2.1582v-9.2285h17.158v7.2852q0 0.9375-0.51758 1.3672-0.47851 0.40039-1.543 0.40039-0.80078 0-2.334-0.12695zm-1.4355-3.0664h-4.8926v1.5039h4.8926zm-1.3379-12.334h8.0859v1.6406h-18.164v-1.6406h7.9394v-1.582h2.1387zm5.2441 2.6758v4.4629h-12.48v-4.4629zm-10.342 1.5234v1.416h8.1836v-1.416z"/>
  <path d="m267.04 174.72v3.6621h3.1934v1.8848h-3.2227q-0.0488 0.9668-0.17578 1.9434 1.9922 1.6504 3.6816 3.6816l-1.4062 1.9336q-1.1328-1.748-2.7734-3.457-0.38086 1.1328-1.1328 2.3047-1.1426 1.7774-2.8516 2.8711l-1.5039-1.7188q3.75-2.2461 4.082-7.5586h-4.2383v-1.8848h4.2871v-3.6621h-1.1621q-0.68359 1.6211-1.6797 2.9785l-1.6016-1.2988q1.6894-2.1875 2.4023-5.8984l2.0996 0.3125q-0.2832 1.2012-0.52734 1.9629h5.3223v1.9434zm11.66-2.1973v16.143h-2.0996v-1.2891h-3.6816v1.4844h-2.0801v-16.338zm-5.7812 1.9629v10.928h3.6816v-10.928z"/>
  <path d="m296.76 170.98v9.4629h-11.621v-9.4629zm-9.5215 1.543v1.2207h7.4023v-1.2207zm0 2.5977v1.2207h7.4023v-1.2207zm0 2.5976v1.2598h7.4023v-1.2598zm-3.9356 4.0234h16.191v1.6992h-8.0762v6.0644h-2.2168v-6.0644h-8.0371v-10.957h2.1387zm-2.5 5.8984q2.3242-1.0742 4.4434-3.6035l1.7969 1.0449q-2.0898 2.6465-4.6387 4.1602zm16.836 1.2598q-1.4941-1.8359-4.4922-3.8574l1.6797-1.1816q2.3535 1.3574 4.6191 3.5644z"/>
 </g>
</svg>
