<svg version="1.1" xmlns="http://www.w3.org/2000/svg" xmlns:xlink="http://www.w3.org/1999/xlink" width="208" height="32" viewBox="0,0,208,32"><g transform="translate(-240,-164)"><g data-paper-data="{&quot;isPaintingLayer&quot;:true}" fill-rule="nonzero" stroke="none" stroke-linecap="butt" stroke-linejoin="miter" stroke-miterlimit="10" stroke-dasharray="" stroke-dashoffset="0" style="mix-blend-mode: normal"><path d="M240,196v-32h208v32z" fill="none" stroke-width="0"/><path d="M250.17,185.54c-0.33855,0.7422 -0.85288,1.39977 -1.543,1.9727c-0.6966,0.57943 -1.67643,1.09049 -2.9395,1.5332l-1.084,-1.582c2.33073,-0.63802 3.73373,-1.77082 4.209,-3.3984h-4.4238v-1.582h4.5996v-1.2012h-4.082v-1.4844h2.0508c-0.2539,-0.50781 -0.53059,-0.97981 -0.83007,-1.416l1.7969,-0.6836c0.45573,0.78127 0.8008,1.48113 1.0352,2.0996h1.9726c0.40365,-0.7552 0.72266,-1.4681 0.95704,-2.1387l1.8945,0.53711c-0.27995,0.61849 -0.57292,1.15235 -0.87891,1.6016h2.1777v1.4844h-4.1992v1.2012h4.7266v1.582h-4.7754c1.44533,0.79427 2.80927,1.70897 4.0918,2.7441l-1.3574,1.5723c-0.97653,-0.97007 -2.10933,-1.91733 -3.3984,-2.8418zM248.9688,171.204v6.2891h-5.6836v12.012h-2.0996v-18.301zM243.2852,172.6688v1.0352h3.7598v-1.0352zM243.2852,175.0028v1.0742h3.7598v-1.0742zM258.8222,171.204v16.377c0,0.7292 -0.1888,1.22727 -0.56641,1.4942c-0.28645,0.20182 -0.73892,0.30273 -1.3574,0.30273c-0.57943,0 -1.15886,-0.03906 -1.7383,-0.11719l-0.38086,-2.002c0.51432,0.08463 1.00912,0.12695 1.4844,0.12695c0.30599,0 0.45898,-0.14974 0.45898,-0.44922v-9.4434h-5.8008v-6.2891zM252.8652,172.6688v1.0352h3.8574v-1.0352zM252.8652,175.0028v1.0742h3.8574v-1.0742z" fill="#ffffff" stroke-width="1"/><path d="M273.2,183.15c1.6146,1.4388 3.78907,2.6009 6.5234,3.4863l-1.2598,1.8359c-1.57553,-0.55989 -2.94923,-1.23696 -4.1211,-2.0312c-1.21093,-0.8268 -2.32747,-1.84243 -3.3496,-3.0469v6.1035h-2.1191v-5.9961c-0.90493,1.26953 -2.07357,2.40887 -3.5059,3.418c-1.10027,0.77473 -2.27867,1.39973 -3.5352,1.875l-1.3379,-1.7188c2.0638,-0.6836 3.7858,-1.60483 5.166,-2.7637c0.39063,-0.32553 0.78776,-0.71289 1.1914,-1.1621h-4.6973v-7.998h6.7188v-1.3184h-8.0957v-1.7578h8.0957v-1.582h2.1191v1.582h8.2227v1.7578h-8.2227v1.3184h6.8457v7.998zM268.8738,176.7926h-4.5996v1.582h4.5996zM270.9929,176.7926v1.582h4.7266v-1.582zM268.8738,179.8981h-4.5996v1.6113h4.5996zM270.9929,179.8981v1.6113h4.7266v-1.6113z" fill="#ffffff" stroke-width="1"/><path d="M298.19,171.34v13.662h-2.1387v-1.3184h-5.0195v5.8203h-2.1973v-5.8203h-4.8828v1.5527h-2.1582v-13.896zM283.952,173.2248v3.1934h4.9219v-3.1934zM283.952,178.3029v3.4766h4.9219v-3.4766zM296.052,181.7795v-3.4766h-5.0586v3.4766zM296.052,176.4182v-3.1934h-5.0586v3.1934z" fill="#ffffff" stroke-width="1"/><path d="M305.17,175.21v14.287h-2.0801v-10.195c-0.54037,0.8854 -1.1621,1.79033 -1.8652,2.7148l-0.97656,-2.4023c1.21093,-1.50393 2.23307,-3.28453 3.0664,-5.3418c0.43619,-1.0742 0.89519,-2.40557 1.377,-3.9941l2.0606,0.61524c-0.54037,1.6732 -1.0677,3.112 -1.582,4.3164zM318.305,183.0127v6.4844h-2.1582v-0.96679h-7.0215v0.96679h-2.1387v-6.4844zM309.1253,184.6924v2.1582h7.0215v-2.1582zM307.7288,171.1764h9.7949v1.6016h-9.7949zM307.7288,177.0553h9.7949v1.6797h-9.7949zM307.7288,179.9752h9.7949v1.6797h-9.7949zM305.7464,174.0084h13.838v1.7969h-13.838z" fill="#ffffff" stroke-width="1"/><path d="M330.23,178.41v7.7344c0,0.5013 0.21485,0.80403 0.64454,0.9082c0.44271,0.11068 1.45507,0.16602 3.0371,0.16602c1.54293,0 2.5618,-0.07813 3.0566,-0.23438c0.27995,-0.09115 0.46224,-0.34505 0.54687,-0.76172c0.11068,-0.58593 0.16927,-1.2793 0.17578,-2.0801l2.041,0.57618c-0.10417,1.9206 -0.36784,3.1478 -0.79102,3.6816c-0.27995,0.35156 -0.70311,0.55989 -1.2695,0.625c-0.89193,0.09765 -2.4056,0.14648 -4.541,0.14648c-1.65367,0 -2.73767,-0.04557 -3.252,-0.13672c-0.77473,-0.13021 -1.26627,-0.47201 -1.4746,-1.0254c-0.10417,-0.29297 -0.15625,-0.6836 -0.15625,-1.1719v-7.7441l-1.8652,0.64453l-0.45899,-1.8945l2.3242,-0.80078v-5.2637h1.9824v4.5801l2.0996,-0.71289v-5.1465h1.9629v4.4629l3.2715,-1.123l1.0254,0.625v7.3144c0,0.50781 -0.12044,0.88541 -0.36133,1.1328c-0.27343,0.27343 -0.73243,0.41015 -1.377,0.41015c-0.52735,0 -1.08725,-0.04557 -1.6797,-0.13672l-0.32226,-1.8652c0.38411,0.09765 0.77475,0.14648 1.1719,0.14648c0.28646,0 0.46224,-0.05859 0.52734,-0.17578c0.06513,-0.09765 0.0977,-0.26041 0.0977,-0.48828v-4.6191l-2.3535,0.82031v7.9004h-1.9629v-7.2266zM323.0523,175.2166v-4.7168h2.0996v4.7168h1.8945v1.9824h-1.8945v6.2109c0.6836,-0.23437 1.36067,-0.47851 2.0312,-0.73242l0.18555,1.8848c-2.1094,0.96353 -4.2741,1.77083 -6.4941,2.4219l-0.6836,-2.0801c1.0026,-0.26041 1.8815,-0.50781 2.6367,-0.74218c0.09115,-0.03253 0.16602,-0.05533 0.22461,-0.0684v-6.8945h-2.4805v-1.9824z" fill="#ffffff" stroke-width="1"/><path d="M349.48,175.76c-0.0456,1.08727 -0.1107,2.0443 -0.19531,2.8711h7.8711c-0.09765,4.51827 -0.35156,7.4512 -0.76172,8.7988c-0.20833,0.67707 -0.5957,1.1458 -1.1621,1.4062c-0.44271,0.20182 -1.09051,0.30273 -1.9434,0.30273c-0.89847,0 -1.91733,-0.06836 -3.0566,-0.20507l-0.38085,-2.1973c1.52993,0.21485 2.6074,0.32227 3.2324,0.32227c0.52734,0 0.86264,-0.14974 1.0059,-0.44922c0.34505,-0.7292 0.58593,-2.74093 0.72265,-6.0352h-5.8105c-0.21485,1.17187 -0.51758,2.1875 -0.90821,3.0469c-1.08727,2.37627 -2.90367,4.26103 -5.4492,5.6543l-1.543,-1.7188c2.55207,-1.32813 4.23827,-3.06967 5.0586,-5.2246c0.54687,-1.4388 0.90167,-3.62957 1.0644,-6.5723h-6.4648v-2.002h7.9785v-3.2617h2.2559v3.2617h8.2422v2.002z" fill="#ffffff" stroke-width="1"/></g></g></svg>