<svg version="1.1" xmlns="http://www.w3.org/2000/svg" xmlns:xlink="http://www.w3.org/1999/xlink" width="168.1" height="21.8906" viewBox="0,0,168.1,21.8906"><g transform="translate(-240,-180)"><g data-paper-data="{&quot;isPaintingLayer&quot;:true}" stroke="none" stroke-linecap="butt" stroke-linejoin="miter" stroke-miterlimit="10" stroke-dasharray="" stroke-dashoffset="0" style="mix-blend-mode: normal"><path d="M248,180h152.1c4.432,0 8,3.568 8,8v5.8906c0,4.432 -3.568,8 -8,8h-152.1c-4.432,0 -8,-3.568 -8,-8v-5.8906c0,-4.432 3.568,-8 8,-8z" fill-opacity="0.7" fill="#000000" fill-rule="evenodd" stroke-width="0"/><g fill="#ffffff" fill-rule="nonzero" stroke-width="1"><path d="M249.24,187.85h4.8984v0.70312h-5.3008c-0.29688,0.44531 -0.63671,0.83725 -1.0195,1.1758l-0.64844,-0.59765c0.65365,-0.51303 1.12238,-1.16929 1.4062,-1.9688l0.90625,0.15234c-0.07031,0.17187 -0.15104,0.35026 -0.24219,0.53516zM253.4666,190.1117v0.10547c0,1.3802 0.08854,2.3724 0.26563,2.9766c0.07552,0.26041 0.13281,0.39062 0.17187,0.39062c0.02347,0 0.05603,-0.06901 0.0977,-0.20703c0.07291,-0.24479 0.12369,-0.5625 0.15234,-0.95313l0.75,0.5586c-0.08854,0.59375 -0.18359,1.01301 -0.28515,1.2578c-0.15105,0.36459 -0.35417,0.54688 -0.60938,0.54688c-0.21875,0 -0.4388,-0.13021 -0.66015,-0.39063c-0.26042,-0.30469 -0.44922,-0.75522 -0.56641,-1.3516c-0.10937,-0.54948 -0.17318,-1.26301 -0.19141,-2.1406v-0.0977h-5.1328v-0.69532zM249.6228,192.8031c-0.51302,-0.32031 -1.06379,-0.61458 -1.6523,-0.88281l0.55859,-0.57422c0.61459,0.27865 1.16405,0.5651 1.6484,0.85937c0.28906,-0.36458 0.54036,-0.75781 0.75391,-1.1797l0.79687,0.32031c-0.24479,0.49219 -0.52083,0.92839 -0.82812,1.3086c0.45833,0.29688 0.92447,0.63411 1.3984,1.0117l-0.57031,0.66406c-0.46875,-0.39062 -0.93358,-0.74479 -1.3945,-1.0625c-0.65365,0.61719 -1.45181,1.09376 -2.3945,1.4297l-0.55469,-0.64844c0.92447,-0.29687 1.67057,-0.71224 2.2383,-1.2461zM248.6111,189.0258h4.7109v0.625h-4.7109z"/><path d="M259.57,191.86c0.03647,0.04167 0.0612,0.0703 0.0742,0.0859c0.66406,-0.30209 1.30079,-0.68229 1.9102,-1.1406l0.6211,0.55469c-0.65625,0.41406 -1.33465,0.76953 -2.0352,1.0664c0.67707,0.56771 1.54817,0.97917 2.6133,1.2344l-0.49609,0.76563c-0.9948,-0.35417 -1.78647,-0.84507 -2.375,-1.4727c0.0104,0.11198 0.0156,0.21745 0.0156,0.31641c0,1.013 -0.33593,1.5195 -1.0078,1.5195c-0.26302,0 -0.57552,-0.02213 -0.9375,-0.0664l-0.16797,-0.71875c0.36198,0.06247 0.64583,0.0937 0.85156,0.0937c0.17448,0 0.29037,-0.07682 0.34766,-0.23047c0.06771,-0.17708 0.10156,-0.43489 0.10156,-0.77343c0,-0.06771 -0.0039,-0.14193 -0.0117,-0.22266c-0.9896,0.78127 -2.1068,1.3646 -3.3516,1.75l-0.47265,-0.64844c0.98173,-0.24479 1.901,-0.61849 2.7578,-1.1211c0.35156,-0.20573 0.65885,-0.41407 0.92187,-0.625c-0.02607,-0.06771 -0.05992,-0.14453 -0.10156,-0.23047c-0.94013,0.60677 -1.9805,1.06511 -3.1211,1.375l-0.39844,-0.63672c1.28907,-0.27604 2.3646,-0.68231 3.2266,-1.2188c-0.03647,-0.04947 -0.08204,-0.10415 -0.13672,-0.16406c-0.8594,0.32813 -1.68753,0.57552 -2.4844,0.74219l-0.44531,-0.625c1.03127,-0.15625 2.00783,-0.40365 2.9297,-0.74219h-2.4414v-1.4922c-0.07031,0.03387 -0.17709,0.08465 -0.32032,0.15234l-0.45703,-0.58593c0.91147,-0.35417 1.69793,-0.89453 2.3594,-1.6211l0.52734,0.35938h2.2695l0.33594,0.32812c-0.28385,0.33855 -0.58984,0.64193 -0.91797,0.91016h2.4883v1.9492h-2.4219c-0.26302,0.1276 -0.51823,0.24609 -0.76563,0.35547c0.20833,0.23177 0.38021,0.49088 0.51563,0.77734zM258.80437,188.778c0.32552,-0.26823 0.54818,-0.47786 0.66797,-0.62891h-1.9062c-0.27604,0.22657 -0.55729,0.4362 -0.84375,0.62891zM256.81997,189.37956v0.7461h1.8476v-0.7461zM261.38637,190.12566v-0.7461h-1.9062v0.7461z"/><path d="M267.5,188.23h3.0977v0.76953h-5.9648v1.4258c0,1.17447 -0.0651,2.09763 -0.19531,2.7695c-0.11198,0.57292 -0.30078,1.09505 -0.56641,1.5664l-0.70312,-0.65625c0.24479,-0.46875 0.40755,-1.02605 0.48828,-1.6719c0.06513,-0.52865 0.0977,-1.22005 0.0977,-2.0742v-2.1289h2.8555v-1.0312h0.89059zM268.25391,190.9292v3.0703c0,0.30469 -0.08073,0.51693 -0.24219,0.63672c-0.13281,0.09635 -0.35417,0.14453 -0.66406,0.14453c-0.44531,0 -0.88411,-0.02603 -1.3164,-0.0781l-0.13672,-0.82421c0.47135,0.07031 0.89712,0.10546 1.2773,0.10546c0.09636,0 0.15496,-0.02343 0.17579,-0.0703c0.013,-0.03387 0.0195,-0.09116 0.0195,-0.17187v-2.8125h-2.4102v-0.76953h5.8203v0.76953z"/><path d="M271.37,188.93h1.7266c0.07813,-0.40104 0.16537,-0.89974 0.26172,-1.4961l0.0195,-0.11328l0.85547,0.1289c-0.08854,0.55209 -0.17969,1.04559 -0.27344,1.4805h0.47266c0.625,0 1.07293,0.14063 1.3438,0.42188c0.24219,0.2526 0.36328,0.64583 0.36328,1.1797c0,0.89847 -0.09505,1.7383 -0.28516,2.5195c-0.10937,0.44271 -0.24219,0.76954 -0.39844,0.98047c-0.19791,0.26302 -0.47265,0.39453 -0.82421,0.39453c-0.42188,0 -0.88281,-0.13542 -1.3828,-0.40625l0.0977,-0.82421c0.49479,0.23697 0.87889,0.35546 1.1523,0.35546c0.14323,0 0.25391,-0.07682 0.33203,-0.23046c0.08333,-0.16667 0.16276,-0.40755 0.23829,-0.72266c0.14843,-0.63802 0.22265,-1.30859 0.22265,-2.0117c0,-0.36979 -0.07422,-0.60938 -0.22265,-0.71875c-0.12761,-0.09115 -0.35547,-0.13672 -0.6836,-0.13672h-0.60156c-0.41406,1.84373 -1.00779,3.41667 -1.7812,4.7188l-0.78516,-0.42969c0.79947,-1.34113 1.36977,-2.77083 1.7109,-4.2891h-1.5586zM277.8583,192.7855c-0.29427,-1.08333 -0.75911,-2.14713 -1.3945,-3.1914l0.76172,-0.34375c0.65625,1.04687 1.14711,2.10027 1.4726,3.1602zM277.28017,189.0433c-0.16145,-0.42187 -0.42187,-0.89061 -0.78125,-1.4062l0.60547,-0.22656c0.31511,0.44531 0.57943,0.90755 0.79297,1.3867zM278.33097,188.70736c-0.20312,-0.5026 -0.46223,-0.97527 -0.77734,-1.418l0.57422,-0.19141c0.29948,0.35677 0.5612,0.80207 0.78516,1.3359z"/><path d="M284.89,189.06c0.35156,-0.29427 0.69269,-0.64194 1.0234,-1.043l0.64062,0.49609c-0.28125,0.3125 -0.62368,0.6211 -1.0273,0.92579c0.34375,0.17969 0.77215,0.36458 1.2852,0.55468l-0.42579,0.6875c-0.46875,-0.18229 -0.89581,-0.38671 -1.2812,-0.61328v0.40625h-0.72656v1.0508h2.2578v0.75391h-2.2578v1.3086c0,0.13802 0.02997,0.22005 0.0899,0.2461c0.08073,0.03387 0.24739,0.0508 0.5,0.0508c0.27604,0 0.46484,-0.01693 0.5664,-0.0508c0.10157,-0.03127 0.16667,-0.11851 0.19531,-0.26172c0.03647,-0.17709 0.056,-0.4323 0.0586,-0.76563l0.85547,0.25391c-0.02867,0.69273 -0.10419,1.12763 -0.22657,1.3047c-0.10677,0.15365 -0.27343,0.24609 -0.5,0.27734c-0.22917,0.03127 -0.60027,0.0469 -1.1133,0.0469c-0.48437,0 -0.79687,-0.02993 -0.9375,-0.0898c-0.22917,-0.09635 -0.34375,-0.3138 -0.34375,-0.65234v-1.668h-1.2305c-0.05987,0.67447 -0.28122,1.2018 -0.66406,1.582c-0.42187,0.42187 -1.04427,0.73958 -1.8672,0.95313l-0.5039,-0.7461c0.737,-0.15365 1.27997,-0.38021 1.6289,-0.67969c0.19011,-0.16667 0.32813,-0.36979 0.41407,-0.60937c0.04687,-0.125 0.08593,-0.29167 0.11718,-0.5h-2.0547v-0.75391h2.0938v-1.0508h-0.60938v-0.32422c-0.45833,0.28646 -0.92707,0.51693 -1.4062,0.69141l-0.39062,-0.65625c0.5651,-0.19271 1.09373,-0.4414 1.5859,-0.74609c-0.28385,-0.27083 -0.60416,-0.52604 -0.96093,-0.76563l0.5664,-0.55859c0.40365,0.28125 0.74738,0.5651 1.0312,0.85156c0.30729,-0.26302 0.56901,-0.53906 0.78516,-0.82813h-1.4102v-0.73437h2.6836c0.21354,0.35417 0.43229,0.65234 0.65625,0.89453c0.30469,-0.27083 0.6237,-0.60156 0.95703,-0.99219l0.63281,0.4961c-0.31511,0.34115 -0.67187,0.66667 -1.0703,0.97656c0.14323,0.11198 0.27083,0.20573 0.38281,0.28125zM283.5228,190.4741h-1.2031v1.0508h1.2031zM281.4252,189.75535h3.1836c-0.64844,-0.43489 -1.20834,-0.93619 -1.6797,-1.5039c-0.375,0.53385 -0.8763,1.03515 -1.5039,1.5039z"/><path d="M292.15,193.16l0.0547,0.69921c-1.1302,0.39844 -2.3867,0.72657 -3.7695,0.98438l-0.28906,-0.78125c0.23959,-0.03647 0.57812,-0.09506 1.0156,-0.17578v-1.4297c-0.45053,0.22917 -0.98699,0.44661 -1.6094,0.65234l-0.44531,-0.69531c1.2526,-0.33854 2.20833,-0.77084 2.8672,-1.2969h-2.7891v-0.67969h3.3477v-0.58984h-2.5313v-0.65625h2.5312v-0.55079h-2.9297v-0.67187h2.9297v-0.76953h0.85547v0.76953h3.0156v0.67187h-3.0156v0.55079h2.6172v0.65625h-2.6172v0.58984h3.4336v0.67969h-0.93359l0.57812,0.39843c-0.35677,0.34636 -0.85677,0.72526 -1.5,1.1367l-0.0898,0.0586c0.48958,0.44791 1.15365,0.81771 1.9922,1.1094l-0.52735,0.79297c-0.90887,-0.38541 -1.63933,-0.86978 -2.1914,-1.4531zM290.9664,191.1288c-0.26041,0.30469 -0.57421,0.57812 -0.9414,0.82031v1.7539c0.64323,-0.14323 1.28906,-0.30989 1.9375,-0.5l0.17968,-0.0508c-0.53385,-0.59115 -0.92579,-1.26561 -1.1758,-2.0234zM292.3922,192.1952c0.46355,-0.33073 0.86981,-0.69009 1.2188,-1.0781h-1.8476c0.16667,0.39843 0.3763,0.7578 0.6289,1.0781z"/><path d="M299.25,187.36h0.8789v1.0781h2.3047v0.75391h-2.3047v1.6719c0.09115,0.32031 0.13672,0.60547 0.13672,0.85547c0,0.92707 -0.20443,1.60807 -0.61328,2.043c-0.44531,0.47656 -1.11588,0.80599 -2.0117,0.98828l-0.44531,-0.66406c0.69533,-0.13281 1.21097,-0.32031 1.5469,-0.5625c0.31511,-0.22917 0.52735,-0.54037 0.63672,-0.9336c-0.27865,0.30469 -0.61068,0.45703 -0.99609,0.45703c-0.43229,0 -0.78256,-0.12239 -1.0508,-0.36718c-0.31511,-0.28907 -0.47266,-0.70833 -0.47266,-1.2578c0,-0.28906 0.06901,-0.5677 0.20703,-0.83593c0.09115,-0.17188 0.20313,-0.31511 0.33594,-0.42969c0.30729,-0.26042 0.67579,-0.39063 1.1055,-0.39063c0.27343,0 0.52083,0.06511 0.74219,0.19532v-0.76953h-3.8555v-0.75391h3.8555zM299.2812,191.4147v-0.14453c0,-0.16667 -0.03906,-0.3138 -0.11719,-0.44141c-0.14583,-0.23958 -0.35677,-0.35937 -0.63281,-0.35937c-0.14063,0 -0.27214,0.03906 -0.39454,0.11719c-0.28645,0.17969 -0.42968,0.45573 -0.42968,0.82812c0,0.23437 0.05208,0.43229 0.15625,0.59375c0.14583,0.22396 0.36068,0.33594 0.64453,0.33594c0.25781,0 0.46224,-0.11589 0.61328,-0.34766c0.10677,-0.16406 0.16016,-0.35807 0.16016,-0.58203z"/><path d="M304.08,187.63h4.3828l0.41797,0.64844c-1.35413,0.82813 -2.5273,1.58073 -3.5195,2.2578c0.64063,-0.26823 1.28386,-0.40234 1.9297,-0.40234c0.58073,0 1.06509,0.09245 1.4531,0.27734c0.35938,0.17187 0.63933,0.40625 0.83985,0.70313c0.20833,0.3151 0.3125,0.67707 0.3125,1.0859c0,0.57292 -0.19531,1.05209 -0.58594,1.4375c-0.26823,0.26823 -0.61196,0.47136 -1.0312,0.60938c-0.54948,0.17969 -1.15105,0.26953 -1.8047,0.26953c-0.7526,0 -1.3073,-0.13932 -1.6641,-0.41797c-0.27865,-0.21875 -0.41797,-0.51432 -0.41797,-0.88672c0,-0.28125 0.10156,-0.53125 0.30469,-0.75c0.30729,-0.33073 0.72266,-0.49609 1.2461,-0.49609c0.55469,0 0.99869,0.1862 1.332,0.55859c0.24219,0.27083 0.41667,0.6341 0.52344,1.0898c0.80207,-0.25521 1.2031,-0.72658 1.2031,-1.4141c0,-0.52083 -0.21745,-0.90493 -0.65235,-1.1523c-0.29167,-0.16667 -0.66147,-0.25 -1.1094,-0.25c-0.66927,0 -1.27343,0.09245 -1.8125,0.27734c-0.39844,0.13542 -0.93361,0.46224 -1.6055,0.98047l-0.55078,-0.66406c0.72393,-0.625 1.54813,-1.2591 2.4726,-1.9023c0.63802,-0.44271 1.20052,-0.80598 1.6875,-1.0898h-3.3516zM307.0409,193.7667c-0.1849,-0.737 -0.54817,-1.1055 -1.0898,-1.1055c-0.29947,0 -0.51562,0.09505 -0.64843,0.28516c-0.06247,0.08593 -0.0937,0.17838 -0.0937,0.27734c0,0.20573 0.14583,0.36068 0.4375,0.46485c0.21093,0.07291 0.49348,0.10937 0.84765,0.10937c0.15105,0 0.33334,-0.0104 0.54688,-0.0312z"/><path d="M315.43,189.41c0.18229,0.09375 0.39192,0.20573 0.6289,0.33594l-0.49609,0.40234h2.3516l0.44141,0.44141c-0.58594,0.8828 -1.17057,1.60807 -1.7539,2.1758l-0.79297,-0.46485c0.51302,-0.46875 0.92449,-0.93488 1.2344,-1.3984h-1.9453v3.0625c0,0.35417 -0.08724,0.58073 -0.26172,0.67968c-0.11719,0.06771 -0.33594,0.10157 -0.65625,0.10157c-0.41927,0 -0.88151,-0.02603 -1.3867,-0.0781l-0.19141,-0.87109c0.48698,0.07813 0.91928,0.11719 1.2969,0.11719c0.14323,0 0.23177,-0.02343 0.26562,-0.0703c0.02607,-0.03907 0.0391,-0.11068 0.0391,-0.21484v-2.7266h-3.2734v-0.75391h4.2344c-0.8802,-0.50521 -1.7604,-0.93227 -2.6406,-1.2812l0.63281,-0.50391c0.59115,0.23698 1.11328,0.46745 1.5664,0.69141c0.40104,-0.27344 0.75261,-0.54167 1.0547,-0.80469h-4.1758v-0.74218h5.3125l0.48047,0.46875c-0.68227,0.54947 -1.3372,1.02734 -1.9648,1.4336z"/><path d="M320.36,189.87c-0.33854,0.61719 -0.73047,1.12239 -1.1758,1.5156l-0.44922,-0.72656c0.58333,-0.44271 1.07553,-1.04037 1.4766,-1.793h-1.293v-0.71875h1.4414v-0.94531h0.83984v0.94531h1.1289v0.71875h-1.1289v0.47656c0.46355,0.26563 0.87631,0.54688 1.2383,0.84375l-0.47266,0.6875c-0.24739,-0.27604 -0.5026,-0.52213 -0.76563,-0.73828v1.7383h-0.83984zM322.7584,191.745c0.33333,0.31771 0.66146,0.69921 0.98437,1.1445l-0.69531,0.49609c-0.35937,-0.55469 -0.70704,-0.98699 -1.043,-1.2969l0.55469,-0.38672v-4.2188h3.3359v4.2617zM323.34824,188.1239v0.59766h1.7383v-0.59766zM323.34824,189.3231v0.58985h1.7383v-0.58985zM323.34824,190.5067v0.59765h1.7383v-0.59765zM318.83654,194.1395c0.29948,-0.48959 0.53255,-1.08985 0.69922,-1.8008l0.8125,0.23047c-0.14583,0.83593 -0.39583,1.53513 -0.75,2.0976zM320.97324,192.3465h0.85547v1.2461c0,0.16146 0.03906,0.25782 0.11719,0.28907c0.09896,0.03647 0.3724,0.0547 0.82031,0.0547c0.42709,0 0.71224,-0.01433 0.85547,-0.043c0.10417,-0.02347 0.17057,-0.08336 0.19922,-0.17968c0.03907,-0.13021 0.0651,-0.36719 0.0781,-0.71094l0.86328,0.19922c-0.0104,0.38802 -0.03903,0.66536 -0.0859,0.83203c-0.06513,0.23698 -0.16149,0.39844 -0.28907,0.48437c-0.10937,0.07553 -0.26692,0.1198 -0.47265,0.13282c-0.42709,0.02607 -0.86589,0.0391 -1.3164,0.0391c-0.7578,0 -1.22003,-0.04427 -1.3867,-0.13281c-0.15885,-0.08594 -0.23828,-0.26823 -0.23828,-0.54688zM325.73494,194.4403c-0.31511,-0.7604 -0.66537,-1.40493 -1.0508,-1.9336l0.71484,-0.42579c0.42969,0.57292 0.79689,1.19142 1.1016,1.8555z"/><path d="M330.16,188.25v-0.33594h-2.4414v-0.5586h5.7656v0.5586h-2.4922v0.33594h3.2344v1.4023h-0.84765v-0.89844h-2.3867v1.5195h-0.83203v-1.5195h-2.3438v0.89844h-0.83985v-1.4023zM332.9256,193.793c0.39844,0.15105 0.89584,0.27084 1.4922,0.35938l-0.45703,0.66406c-0.83593,-0.14323 -1.52213,-0.38932 -2.0586,-0.73828c-0.53385,-0.34896 -0.94922,-0.78256 -1.2461,-1.3008h-0.86328v1.2031c0.57552,-0.08073 1.10939,-0.16666 1.6016,-0.25781l0.0547,0.58203c-0.91667,0.21875 -1.96483,0.40886 -3.1445,0.57032l-0.23047,-0.6875c0.40885,-0.04427 0.6888,-0.0755 0.83984,-0.0937l0.0469,-0.008v-1.3086h-0.85547c-0.03647,0.45833 -0.09636,0.82423 -0.17969,1.0977c-0.09896,0.32812 -0.25781,0.63411 -0.47656,0.91796l-0.69531,-0.57421c0.25521,-0.33073 0.41406,-0.71747 0.47656,-1.1602c0.03387,-0.23959 0.0508,-0.53776 0.0508,-0.89453v-1.6562h6.7422v0.51953h-5.9024v1.1992h6.2383v0.55078h-0.88671l0.49609,0.32812c-0.29427,0.24479 -0.64194,0.47396 -1.043,0.6875zM332.31623,193.49222c0.375,-0.25521 0.67318,-0.49349 0.89453,-0.71484h-1.707c0.22395,0.28646 0.49479,0.52474 0.8125,0.71484zM328.16003,189.04302h1.6641v0.44141h-1.6641zM328.16003,189.76177h1.6641v0.44922h-1.6641zM331.32803,189.04302h1.7148v0.44141h-1.7148zM331.32803,189.76177h1.7148v0.44922h-1.7148zM328.58583,191.35557h4.8633v0.51172h-4.8633z"/><path d="M339.21,187.9h3.0625v0.65625h-1.7344v0.64844h1.625v0.63281h-1.625v1.1641h-3.1445v-1.1641h-1.2812v0.72657c0,1.17967 -0.0625,2.11197 -0.1875,2.7969c-0.09635,0.52083 -0.2526,0.9961 -0.46875,1.4258l-0.71094,-0.5625c0.19792,-0.42969 0.33334,-0.95442 0.40625,-1.5742c0.06513,-0.54427 0.0977,-1.23957 0.0977,-2.0859v-2.6641h3.0898v-0.70312h0.8711zM336.1123,188.55625v0.64844h1.2812v-0.64844zM338.2256,188.55625v0.64844h1.4805v-0.64844zM338.2256,189.83745v0.60547h1.4805v-0.60547zM339.13185,193.93905c-0.7526,0.39062 -1.70833,0.68749 -2.8672,0.89062l-0.40625,-0.71875c1.08853,-0.13021 1.9414,-0.32943 2.5586,-0.59766c-0.52865,-0.38281 -0.98048,-0.83724 -1.3555,-1.3633h-0.53906v-0.67968h4.5742l0.41015,0.34375c-0.38802,0.59635 -0.94142,1.15755 -1.6602,1.6836c0.61719,0.24739 1.45832,0.42968 2.5234,0.54687l-0.45703,0.73829c-1.0208,-0.13803 -1.94787,-0.41928 -2.7812,-0.84375zM337.97165,192.14995c0.3151,0.36979 0.6979,0.69532 1.1484,0.97657c0.50781,-0.32813 0.89975,-0.65365 1.1758,-0.97657z"/><path d="M343.48,188.3h2.1055c0.23177,-0.36979 0.40755,-0.66796 0.52734,-0.89453l0.87109,0.125c-0.07812,0.14063 -0.21614,0.36979 -0.41406,0.6875l-0.0508,0.082h2.7539v0.76954h-3.2734c-0.34115,0.46875 -0.66667,0.87501 -0.97656,1.2188c0.49219,-0.29427 0.94139,-0.44141 1.3476,-0.44141c0.63021,0 1.04298,0.31641 1.2383,0.94922c0.66667,-0.22135 1.34637,-0.4401 2.0391,-0.65625l0.33593,0.75781l-0.13671,0.0391l-0.38672,0.10157c-0.7292,0.19791 -1.31253,0.36718 -1.75,0.50781c0.03127,0.33854 0.0534,0.77604 0.0664,1.3125l-0.85547,0.0469c-0.00267,-0.30989 -0.00787,-0.64583 -0.0156,-1.0078v-0.0781c-1.19793,0.40885 -1.7969,0.82032 -1.7969,1.2344c0,0.21354 0.15365,0.35937 0.46094,0.4375c0.29687,0.07552 0.82814,0.11328 1.5938,0.11328c0.70573,0 1.44663,-0.04036 2.2227,-0.12109l0.0937,0.83203c-0.7526,0.05727 -1.53253,0.0859 -2.3398,0.0859c-0.9948,0 -1.70183,-0.07552 -2.1211,-0.22657c-0.51823,-0.1875 -0.77734,-0.52473 -0.77734,-1.0117c0,-0.41146 0.18359,-0.77473 0.55078,-1.0898c0.38021,-0.32552 1.04947,-0.66145 2.0078,-1.0078c-0.05207,-0.20052 -0.12108,-0.34115 -0.20703,-0.42188c-0.09635,-0.09114 -0.22396,-0.13671 -0.38281,-0.13671c-0.25781,0 -0.58203,0.09765 -0.97266,0.29296c-0.48177,0.23959 -0.99871,0.60025 -1.5508,1.082l-0.51953,-0.59375c0.80987,-0.7526 1.44397,-1.4922 1.9023,-2.2188h-1.5898z"/><path d="M355.75,193.16l0.0547,0.69921c-1.1302,0.39844 -2.3867,0.72657 -3.7695,0.98438l-0.28907,-0.78125c0.23959,-0.03647 0.57812,-0.09506 1.0156,-0.17578v-1.4297c-0.45052,0.22917 -0.98699,0.44661 -1.6094,0.65234l-0.44531,-0.69531c1.2526,-0.33854 2.20833,-0.77084 2.8672,-1.2969h-2.7891v-0.67969h3.3476v-0.58984h-2.5312v-0.65625h2.5312v-0.55079h-2.9297v-0.67187h2.9297v-0.76953h0.85547v0.76953h3.0156v0.67187h-3.0156v0.55079h2.6172v0.65625h-2.6172v0.58984h3.4336v0.67969h-0.93359l0.57813,0.39843c-0.35677,0.34636 -0.85677,0.72526 -1.5,1.1367l-0.0899,0.0586c0.48959,0.44791 1.15365,0.81771 1.9922,1.1094l-0.52734,0.79297c-0.90887,-0.38541 -1.63933,-0.86978 -2.1914,-1.4531zM354.5664,191.1288c-0.26042,0.30469 -0.57422,0.57812 -0.94141,0.82031v1.7539c0.64323,-0.14323 1.28906,-0.30989 1.9375,-0.5l0.17969,-0.0508c-0.53385,-0.59115 -0.92579,-1.26561 -1.1758,-2.0234zM355.9922,192.1952c0.46354,-0.33073 0.86981,-0.69009 1.2188,-1.0781h-1.8477c0.16667,0.39843 0.3763,0.7578 0.62891,1.0781z"/><path d="M363.08,190.53v3.4648c0,0.3151 -0.0638,0.52994 -0.1914,0.64453c-0.11979,0.10417 -0.35156,0.15625 -0.69531,0.15625c-0.39063,0 -0.76173,-0.02473 -1.1133,-0.0742l-0.16796,-0.82422c0.36458,0.05987 0.71355,0.0898 1.0469,0.0898c0.11198,0 0.18229,-0.01953 0.21094,-0.0586c0.0208,-0.03387 0.0312,-0.08986 0.0312,-0.16797v-3.2305h-3.3594v-0.77731h7.5274v0.77734zM359.7792,187.6355h5.6484v0.76953h-5.6484zM358.79483,193.6277c0.5625,-0.58854 1.01563,-1.37111 1.3594,-2.3477l0.8086,0.30469c-0.39844,1.1172 -0.89974,1.9948 -1.5039,2.6328zM365.49793,194.10426c-0.53906,-1.1406 -1.00779,-1.97523 -1.4062,-2.5039l0.73438,-0.4375c0.57291,0.737 1.06118,1.53907 1.4648,2.4062z"/><path d="M367.57,187.53h0.92188v4.6562c0,0.9818 0.51563,1.4727 1.5469,1.4727c0.67967,0 1.23697,-0.3138 1.6719,-0.94141c0.28125,-0.40365 0.53385,-1.02865 0.75781,-1.875l0.79297,0.48047c-0.26563,0.94013 -0.58464,1.64327 -0.95703,2.1094c-0.58594,0.72653 -1.34767,1.0898 -2.2852,1.0898c-0.9792,0 -1.6693,-0.30208 -2.0703,-0.90625c-0.25261,-0.37761 -0.37891,-0.86457 -0.37891,-1.4609z"/><path d="M377.2,187.38h0.86329v0.98438h2.457v0.74218h-2.457v0.92969h2.3203v0.73438h-2.3203v1.207c0.92707,0.3125 1.84113,0.78257 2.7422,1.4102l-0.46093,0.74219c-0.68227,-0.51041 -1.44267,-0.96095 -2.2812,-1.3516c-0.0208,0.44531 -0.10674,0.79038 -0.25782,1.0352c-0.26302,0.42447 -0.78125,0.63671 -1.5547,0.63671c-0.59636,0 -1.07553,-0.11198 -1.4375,-0.33593c-0.40365,-0.25 -0.60547,-0.58853 -0.60547,-1.0156c0,-0.51041 0.27213,-0.88801 0.8164,-1.1328c0.36459,-0.16146 0.83855,-0.24219 1.4219,-0.24219c0.22917,0 0.48047,0.01823 0.7539,0.0547v-1.0078h-2.7695v-0.73438h2.7695v-0.92969h-2.9375v-0.74218h2.9375zM377.2,192.505c-0.30989,-0.06513 -0.60677,-0.0977 -0.89062,-0.0977c-0.34635,0 -0.6276,0.05078 -0.84375,0.15234c-0.25781,0.12239 -0.38672,0.29687 -0.38672,0.52344c0,0.1901 0.10026,0.34374 0.30078,0.46093c0.20313,0.11979 0.47396,0.17969 0.8125,0.17969c0.40104,0 0.67708,-0.10677 0.82813,-0.32031c0.11979,-0.16667 0.17968,-0.41536 0.17968,-0.74609z"/><path d="M385.5,187.36h0.87891v1.0781h2.3047v0.75391h-2.3047v1.6719c0.09115,0.32031 0.13672,0.60547 0.13672,0.85547c0,0.92707 -0.20443,1.60807 -0.61328,2.043c-0.44531,0.47656 -1.11588,0.80599 -2.0117,0.98828l-0.44531,-0.66406c0.69533,-0.13281 1.21097,-0.32031 1.5469,-0.5625c0.31511,-0.22917 0.52735,-0.54037 0.63672,-0.9336c-0.27865,0.30469 -0.61068,0.45703 -0.99609,0.45703c-0.43229,0 -0.78256,-0.12239 -1.0508,-0.36718c-0.3151,-0.28907 -0.47265,-0.70833 -0.47265,-1.2578c0,-0.28906 0.06901,-0.5677 0.20703,-0.83593c0.09115,-0.17188 0.20313,-0.31511 0.33594,-0.42969c0.30729,-0.26042 0.67579,-0.39063 1.1055,-0.39063c0.27343,0 0.52083,0.06511 0.74218,0.19532v-0.76953h-3.8555v-0.75391h3.8555zM385.5312,191.4147v-0.14453c0,-0.16667 -0.03906,-0.3138 -0.11718,-0.44141c-0.14583,-0.23958 -0.35677,-0.35937 -0.63282,-0.35937c-0.14062,0 -0.27213,0.03906 -0.39453,0.11719c-0.28646,0.17969 -0.42969,0.45573 -0.42969,0.82812c0,0.23437 0.05208,0.43229 0.15625,0.59375c0.14583,0.22396 0.36068,0.33594 0.64454,0.33594c0.25781,0 0.46223,-0.11589 0.61328,-0.34766c0.10677,-0.16406 0.16015,-0.35807 0.16015,-0.58203z"/></g></g></g></svg>