<svg version="1.1" xmlns="http://www.w3.org/2000/svg" xmlns:xlink="http://www.w3.org/1999/xlink" width="235.94076" height="412.09557" viewBox="0,0,235.94076,412.09557"><g transform="translate(-331.41879,233.11087)"><g data-paper-data="{&quot;isPaintingLayer&quot;:true}" fill="none" fill-rule="evenodd" stroke="#d645ff" stroke-width="72" stroke-linecap="round" stroke-linejoin="round" stroke-miterlimit="4" stroke-dasharray="" stroke-dashoffset="0" style="mix-blend-mode: normal"><g><path d="M371.06521,137.46559l2.31063,2.29963l0.31395,2.59958l-1.48176,0.6199l-2.57959,-1.15981l-2.20965,-2.09966l1.8857,-0.11998l1.76072,-2.13966"/><path d="M397.26402,95.5423l1.98168,0.81987l-3.65941,2.19965l-4.20833,5.53911l-3.59742,2.78955l-4.09035,1.2398l-2.67857,-2.18965l-1.14282,-2.76956l1.70473,-3.59942l2.17565,1.05983l3.54443,-0.15997l2.69157,-0.86986l5.81307,-2.86954l1.46577,-1.18981"/><path d="M418.52661,44.42048l1.94669,0.57991l4.47328,-0.46992l0.47492,2.36962l-1.8647,1.43977l1.53575,0.88986l-0.37794,3.7394l2.87054,1.40977l1.70973,2.70957l1.92769,0.79987l0.39894,1.49976l-1.45477,2.80955l-0.13998,2.03967l-2.27364,2.38962l-1.17781,3.04951l-2.17565,-0.06999l-2.92153,1.11982l-1.16781,-0.66989l-0.79687,-3.31947l-3.55343,-2.92953l1.8717,-1.55975l0.75188,-3.07951l-1.80171,-2.68957l0.23296,-3.64942l-1.2708,-0.97984l1.30779,-2.76956l-0.23196,-3.38946l1.70673,-1.2698"/><path d="M449.2457,26.1634l2.54059,2.73956l2.56459,-0.82987l0.44093,2.35962l-0.84886,1.18981l-5.53411,-3.1095l0.83687,-2.34962"/><path d="M445.10536,24.59365l-0.70089,5.36914l-1.78171,0.84986l0.28295,-3.78939l2.19965,-2.42961"/><path d="M448.79277,9.58605l2.07367,1.03983l-2.4966,0.97984l0.50992,1.94969l3.51044,1.63974l1.72372,-2.13966l1.2258,2.20965l-1.49276,0.58991l-1.47076,2.69957l1.94069,-0.69989l1.02884,1.72972l1.2698,-1.46976l0.71089,2.08967l0.77088,-1.64974l1.96769,2.35962l0.6559,-1.09982l2.5056,0.24996l-1.37778,3.68941l-2.46361,0.67989l0.52392,-2.99952l-3.56443,1.71972l0.36094,1.90969l-1.97468,-0.5999l-0.99684,-4.16933l-0.85986,-0.50992l-2.82155,3.78939l-1.18881,-0.86986l1.42877,-1.49976l-1.20681,-3.29947l0.75588,-1.2498l-3.56943,-2.4896l-0.85586,-3.08951l1.43477,0.04999l1.94169,-1.53975"/><path d="M529.74981,-10.55073l1.60974,1.91969l-6.237,8.84858l-1.8807,0.90985l-3.37446,-1.62974l-0.70789,-2.4696l0.88886,-1.2698l3.05051,-0.73988l2.20565,-1.47976l3.47544,-3.82939l0.96984,-0.25996"/><path d="M496.84908,-27.76797l0.022,3.08951l1.50976,3.00952l1.39078,0.33995l-0.03,3.89938l-1.00084,2.02968l-3.99636,1.41977l-0.48492,1.2798l-3.39346,-1.11982l-4.58727,4.80923l-2.18965,3.65941l-2.56459,0.25996l0.80187,2.13966l-6.44697,2.54959l-2.24764,-0.72988l0.21397,3.1295l-1.71872,2.53959l-3.50144,-0.53991l3.62642,2.36962l1.14382,-0.34994l2.16265,2.40961l-1.32479,-0.16997l-1.44177,2.00968l-1.61774,-0.40993l-1.40378,1.34978l-1.2408,-0.77988l-0.51092,4.50928l-5.09119,-2.26964l-1.37578,0.78987l1.76872,1.20981l2.42661,3.58943l-0.09498,1.78971l-1.60474,-1.2598l0.54891,-1.04983l-2.20065,-1.03983l-0.85186,0.86986l-4.54627,-2.55959l-0.12698,-3.98936l-2.70457,0.6299l0.13198,-1.15981l3.07851,-2.96952l-2.82355,0.55991l0.93585,-2.03967l-2.45361,0.51992l-0.99384,1.2698l-2.79155,-1.18981l-3.65941,0.33995l-0.40494,-1.70973l-2.10466,0.27996l-1.73772,-2.08967l3.1065,-0.09998l1.46577,-1.65973l3.1355,2.04967l0.18597,-2.03967l1.34279,-0.32995l2.23364,1.74972l4.3863,-3.00952l-2.87954,1.20981l-2.97552,-0.89986l-2.11866,-2.17965l4.33631,-1.8897l0.79787,-1.11982l2.82255,0.04999l2.02268,-0.97984l2.23564,-3.47944l0.88686,-0.34994l2.5246,1.57975l1.76972,-2.05967l1.17681,2.03967l1.13182,-0.76988l-1.53175,-2.71956l3.33947,-0.19997l2.10966,0.67989l0.6149,-3.26948l2.31163,1.2398l1.07983,-1.46976l0.52092,3.54943l1.57075,-3.31947l0.54391,-2.74956l2.78955,-3.0995l1.39678,1.64974l3.68841,-3.06951l2.70357,-0.06999l-1.58475,2.39962l2.37662,2.09966l-0.98684,2.01968l1.94269,0.16997l0.37594,-1.78971l1.2268,0.89986l-0.74388,-2.73956l0.51592,-2.22964l0.72088,2.4896l1.2788,-1.29979l-2.72756,-4.48928l3.07451,-3.32947l1.31179,-0.38994"/><path d="M427.28921,-59.35292l0.92085,0.88986l-2.53359,0.66989l1.61274,-1.55975"/><path d="M428.12708,-62.71238v0"/><path d="M447.9829,-99.57648l1.72872,0.04999l0.15298,3.64942l-3.34147,-3.04951l1.45977,-0.6499"/><path d="M460.55389,-107.5752v0"/><path d="M462.3506,-107.79516v0"/><path d="M487.3796,-136.04064l1.42977,0.55991l1.05383,2.5296l-2.64458,0.43993l-0.89486,-1.66973l1.05583,-1.8597"/><path d="M501.85528,-158.43706l-0.57891,5.0292l-3.66541,2.87954l-1.35778,-5.50912l0.87186,-1.02984l4.73024,-1.36978"/><path d="M481.29957,-161.3166v0"/><path d="M513.01849,-182.84316l4.12934,1.65973l0.22396,2.91953l2.29863,2.55959l-5.76908,-0.02l-2.64958,-4.3893l1.76672,-2.72956"/><path d="M490.01517,-182.90315v0"/><path d="M481.53253,-186.61255l1.54775,2.59958l-2.01668,-0.22996l0.46892,-2.36962"/><path d="M519.51445,-197.11087l0.58591,2.11966l2.46161,3.41945l-1.2748,1.19981l-2.72856,-1.44977l-0.76788,-1.74972l1.72372,-3.53943"/></g></g></g></svg>