<svg version="1.1" xmlns="http://www.w3.org/2000/svg" xmlns:xlink="http://www.w3.org/1999/xlink" width="224" height="269" viewBox="0,0,224,269"><defs><linearGradient x1="68.00001" y1="392" x2="68.00001" y2="408" gradientUnits="userSpaceOnUse" id="color-1"><stop offset="0" stop-color="#000000" stop-opacity="0.1"/><stop offset="1" stop-color="#000000" stop-opacity="0"/></linearGradient></defs><g transform="translate(-68,-360)"><g data-paper-data="{&quot;isPaintingLayer&quot;:true}" stroke="none" stroke-miterlimit="10" stroke-dasharray="" stroke-dashoffset="0" style="mix-blend-mode: normal"><g fill-rule="evenodd"><path d="M78,390h204l10,2v227c0,5.54 -4.46,10 -10,10h-204c-5.54,0 -10,-4.46 -10,-10v-227z" fill="#1d2a41" stroke-width="1" stroke-linecap="butt" stroke-linejoin="miter"/><path d="M68,408v-16h224v16z" fill="url(#color-1)" stroke-width="12" stroke-linecap="round" stroke-linejoin="round" opacity="0.80769"/><path d="M78,360h204c5.54,0 10,4.46 10,10v22h-224v-22c0,-5.54 4.46,-10 10,-10z" fill="#31476d" stroke-width="1" stroke-linecap="butt" stroke-linejoin="miter"/></g><g fill="#ffffff" fill-rule="nonzero" stroke-width="1" stroke-linecap="butt" stroke-linejoin="miter"><path d="M82.13965,556.9393h7.58789l0.90234,1.0665l-0.51953,0.2871c-2.1875,1.2122 -3.89193,2.1715 -5.11328,2.8779c2.86198,-0.11393 5.30241,-0.23013 7.32129,-0.3486l0.11621,1.4423l-2.26953,0.096c-1.12109,0.05 -2.15332,0.3075 -3.09668,0.7725c-1.31706,0.65167 -1.97559,1.47197 -1.97559,2.4609c0,0.7748 0.45117,1.30573 1.35352,1.5928c0.71094,0.22333 1.8571,0.33727 3.43848,0.3418v1.4834c-2.00977,-0.007 -3.46354,-0.20263 -4.36133,-0.5879c-1.29427,-0.5514 -1.94141,-1.44233 -1.94141,-2.6728c0,-1.52213 1.02767,-2.64323 3.08301,-3.3633c-1.08463,0.0367 -2.99642,0.1301 -5.73535,0.2803l-0.49903,0.027l-0.0957,-1.4287c0.77474,0 1.55859,-0.0137 2.35156,-0.041c1.86849,-1.15753 3.60938,-2.14647 5.22266,-2.9668h-5.76953zM100.78125,567.3368c2.67513,-0.67447 4.0127,-2.208 4.0127,-4.6006c0,-1.0436 -0.26888,-1.94137 -0.80665,-2.6933c-0.60156,-0.84767 -1.51757,-1.39227 -2.74804,-1.6338c-0.26888,2.11453 -0.63574,3.8463 -1.10059,5.1953c-0.31901,0.94333 -0.71549,1.83427 -1.18945,2.6728c-0.68359,1.19407 -1.46061,1.7911 -2.33106,1.7911c-0.64713,0 -1.22363,-0.29167 -1.72949,-0.875c-0.32357,-0.3692 -0.58561,-0.82267 -0.78613,-1.3604c-0.26433,-0.69727 -0.39649,-1.44693 -0.39649,-2.249c0,-1.29887 0.35775,-2.49517 1.07325,-3.5889c0.72461,-1.11653 1.66569,-1.92773 2.82324,-2.4336c0.8431,-0.36913 1.76823,-0.5537 2.77539,-0.5537c1.57227,0 2.90755,0.42157 4.00586,1.2647c1.34896,1.03447 2.02344,2.49963 2.02344,4.3955c0,3.1764 -1.60645,5.1907 -4.81934,6.0429zM99.75586,558.3544c-0.80664,0.0911 -1.48112,0.3076 -2.02344,0.6494c-0.34635,0.22333 -0.69043,0.51957 -1.03222,0.8887c-0.94792,1.04813 -1.42188,2.26263 -1.42188,3.6435c0,1.0072 0.20052,1.79563 0.60156,2.3653c0.24609,0.35087 0.48991,0.5263 0.73145,0.5263c0.32813,0 0.69727,-0.3623 1.10742,-1.0869c1.00261,-1.76367 1.68164,-4.09243 2.03711,-6.9863zM113.96777,561.622v5.4209c0,0.24607 0.0638,0.41467 0.19141,0.5058c0.21875,0.14587 0.95931,0.2188 2.22168,0.2188c1.49935,0 2.39713,-0.0684 2.69336,-0.2051c0.15951,-0.0775 0.25749,-0.28253 0.29394,-0.6152c0.0319,-0.29167 0.0593,-0.736 0.082,-1.333l1.40136,0.3896c-0.0501,1.3854 -0.20736,2.2399 -0.47168,2.5635c-0.19596,0.23693 -0.53092,0.38503 -1.00488,0.4443c-0.68359,0.0911 -1.66797,0.1367 -2.95312,0.1367c-1.13021,0 -1.95964,-0.0227 -2.48829,-0.068c-0.64713,-0.0547 -1.06185,-0.27113 -1.24414,-0.6494c-0.10026,-0.2188 -0.15039,-0.531 -0.15039,-0.9366v-5.3867l-1.22363,0.417l-0.3623,-1.3057l1.58593,-0.5332v-3.6777h1.42871v3.1924l1.55176,-0.5264v-3.5615h1.3877v3.0898l2.33105,-0.7929l0.74512,0.4443v5.127c0,0.3782 -0.0934,0.6539 -0.28027,0.8271c-0.19141,0.18227 -0.52637,0.2734 -1.00489,0.2734c-0.41471,0 -0.79525,-0.0227 -1.1416,-0.068l-0.23242,-1.3125c0.31445,0.0547 0.59245,0.082 0.83398,0.082c0.20508,0 0.33269,-0.041 0.38282,-0.123c0.0456,-0.0729 0.0684,-0.18687 0.0684,-0.3418v-3.2744l-1.70215,0.581v5.5371h-1.3877v-5.0654zM110.74805,559.4481v9.9668h-1.49707v-7.0205c-0.33269,0.54233 -0.73601,1.12797 -1.20996,1.7569l-0.69727,-1.5108c0.79753,-1.05273 1.47201,-2.28547 2.02344,-3.6982c0.32357,-0.82947 0.64713,-1.82297 0.9707,-2.9805l1.49707,0.376c-0.36003,1.2168 -0.70182,2.20117 -1.02539,2.9531c-0.0228,0.0547 -0.0433,0.10707 -0.0615,0.1572z"/><path d="M101.36328,480.0859v1.52539h5.35156v3.16406h-1.48242v0.91016h-3.8418v2.09179h4.68164v1.27149h-4.68164v2.35156c0.7702,0.1276 1.61002,0.19141 2.52148,0.19141h3.54883c-0.22786,0.45573 -0.39649,0.93554 -0.50586,1.4414h-3.05664c-1.85026,0 -3.30993,-0.22004 -4.38086,-0.66211c-1.03906,-0.4284 -1.89584,-1.13474 -2.57031,-2.11914c-0.53776,1.2806 -1.19858,2.34242 -1.98242,3.18555l-1.06055,-1.27148c1.28513,-1.39 2.08725,-3.19013 2.40625,-5.4004l1.55273,0.23829c-0.14584,0.72 -0.28712,1.32029 -0.42383,1.79882c0.55143,0.9798 1.36396,1.70443 2.43946,2.17383v-5.29101h-3.79297v-0.91016h-1.48437v-3.16406h5.23633v-1.52539zM138.69532,480.49996v3.21875l6.57031,-0.88086l0.85351,0.85352c-0.50586,1.41279 -1.11781,2.55531 -1.83789,3.42578c-0.49219,0.597 -1.07552,1.10291 -1.75,1.51758l-1.19141,-0.99219c0.793,-0.44207 1.4675,-1.02219 2.02344,-1.74219c0.38737,-0.50133 0.66992,-1.01953 0.84766,-1.55273l-5.51562,0.80078v4.71679c0,0.54234 0.18685,0.86591 0.56055,0.97071c0.32357,0.09573 1.03905,0.14453 2.14648,0.14453c1.2578,0 2.56249,-0.0703 3.91602,-0.20703v1.55859c-1.235,0.09113 -2.50778,0.13672 -3.82031,0.13672c-1.81833,0 -2.94856,-0.08922 -3.39062,-0.27148c-0.65168,-0.26434 -0.97852,-0.89647 -0.97852,-1.89454v-4.92968l-2.87109,0.41797l-0.15039,-1.45704l3.02148,-0.40234l0.00196,-3.43164zM162.47266,480.49996v3.92383c2.72066,0.83853 4.97525,1.69531 6.76172,2.57031l-0.76563,1.47656c-1.71353,-0.87046 -3.7129,-1.6966 -5.99609,-2.48047v6.94532h-1.59179v-12.43555zM131.80274,480.5566v4.88672c0,1.71806 -0.13802,2.9974 -0.41602,3.83594c-0.23242,0.71553 -0.55013,1.28518 -0.95117,1.70898c-0.834,0.8978 -2.17387,1.55988 -4.01953,1.98828l-0.78516,-1.40039c2.01887,-0.41013 3.31315,-1.09239 3.88282,-2.04492c0.36002,-0.60607 0.57551,-1.37174 0.64844,-2.29687c0.03187,-0.4284 0.04883,-1.02082 0.04883,-1.77735v-4.90039zM91.08594,480.59957v3.32812c0,0.1504 0.02276,0.24479 0.06836,0.28125c0.05926,0.04534 0.16278,0.06836 0.30859,0.06836c0.20052,0 0.32942,-0.02736 0.38867,-0.08203c0.0456,-0.03666 0.07751,-0.15841 0.09571,-0.36328c0.0456,-0.52406 0.07163,-0.92966 0.07617,-1.2168l1.27735,0.4043c-0.00467,0.52407 -0.03788,1.0221 -0.10157,1.49609c-0.06836,0.556 -0.36784,0.88739 -0.89648,0.99219c-0.2233,0.04534 -0.55728,0.06836 -1.00391,0.06836c-0.63346,0 -1.06055,-0.08077 -1.27929,-0.24023c-0.18685,-0.13674 -0.2793,-0.38736 -0.2793,-0.75196v-2.74023h-1.70898v0.14258c0,0.92513 -0.10026,1.69074 -0.30078,2.29687c-0.22786,0.66534 -0.6276,1.22919 -1.19727,1.68946l-0.99023,-0.99219c0.57421,-0.401 0.92969,-0.9798 1.06641,-1.73633c0.0638,-0.36 0.0957,-0.79883 0.0957,-1.31836v-1.32617zM85.15235,480.61324v1.14844h-4.33984v-1.14844zM124.7832,480.69918v7.47851h-1.59375v-7.47851zM118.94336,482.23629c1.34893,1.03446 2.02344,2.49866 2.02344,4.39453c0,3.1764 -1.60745,5.19077 -4.82031,6.04297l-0.80664,-1.37305c2.67513,-0.67446 4.01367,-2.20896 4.01367,-4.60156c0,-1.0436 -0.26888,-1.94143 -0.80664,-2.69336c-0.60156,-0.84767 -1.51761,-1.39128 -2.74805,-1.63281c-0.26888,2.11453 -0.63671,3.84631 -1.10156,5.19531c-0.31901,0.94333 -0.71553,1.83334 -1.18945,2.67187c-0.6836,1.19407 -1.45961,1.79102 -2.33008,1.79102c-0.64713,0 -1.2246,-0.29167 -1.73047,-0.875c-0.32357,-0.3692 -0.58464,-0.82164 -0.78516,-1.35937c-0.26432,-0.69727 -0.39648,-1.44794 -0.39648,-2.25c0,-1.29887 0.3568,-2.49416 1.07227,-3.5879c0.7246,-1.11653 1.66669,-1.92772 2.82422,-2.43359c0.84306,-0.36913 1.76819,-0.55469 2.77539,-0.55469c1.57227,0 2.90753,0.4225 4.00586,1.26563zM112.29102,482.96676c-0.34636,0.22333 -0.68947,0.51954 -1.03125,0.88867c-0.94794,1.04813 -1.42187,2.26366 -1.42187,3.64453c0,1.0072 0.20052,1.79557 0.60156,2.36523c0.24609,0.35087 0.48893,0.52539 0.73047,0.52539c0.32812,0 0.69728,-0.36133 1.10742,-1.08593c1.0026,-1.76367 1.68164,-4.09247 2.0371,-6.98633c-0.80666,0.09113 -1.48117,0.30664 -2.02343,0.64844zM85.76758,482.61519v1.23047h-5.74219v-1.23047zM96.09961,484.38668h9.10547v-1.49024h-9.10547zM153.73242,486.86519l-1.40039,0.51954c-0.2552,-1.11654 -0.67449,-2.40761 -1.25781,-3.875l1.3457,-0.5625c0.52409,1.15299 0.96159,2.45963 1.3125,3.91796zM157.69726,483.47457c-0.27344,2.13733 -0.653,3.77473 -1.14062,4.91406c-0.59244,1.39453 -1.48113,2.47003 -2.66601,3.22656c-0.75194,0.48307 -1.7135,0.91149 -2.88476,1.28516l-0.80078,-1.26367c1.52213,-0.4056 2.68426,-0.95249 3.48632,-1.64063c0.80206,-0.6882 1.41277,-1.68167 1.83203,-2.98047c0.32813,-1.02993 0.56837,-2.35479 0.71875,-3.97265zM150.54101,487.46676l-1.38086,0.5332c-0.32812,-1.40367 -0.77345,-2.70116 -1.33399,-3.89062l1.29883,-0.63477c0.57878,1.18486 1.05145,2.51559 1.41601,3.99219zM85.15235,484.7148v1.13477h-4.33984v-1.13477zM91.91406,486.33394l0.73828,0.66993c-0.61979,1.33526 -1.36264,2.46423 -2.22852,3.38476c0.87046,0.62893 1.88349,1.16668 3.04102,1.61328l-0.8125,1.35938c-1.39,-0.65173 -2.48832,-1.30795 -3.29492,-1.96875c-1.0208,0.8568 -2.04617,1.5267 -3.07617,2.00976l-0.79297,-1.21679c0.99806,-0.3418 1.97011,-0.90238 2.91797,-1.68164c-0.8522,-0.91147 -1.49934,-1.88218 -1.94141,-2.91211h-0.68359v-1.25782zM85.15235,486.71676v1.10742h-4.33984v-1.10742zM89.33594,489.47848l0.07617,0.07617c0.63802,-0.7246 1.07552,-1.37956 1.3125,-1.96289h-2.85742c0.3737,0.679 0.86265,1.30792 1.46875,1.88672zM85.46094,488.69918v4.00586h-3.58203v0.70508h-1.36133v-4.71094zM81.87891,491.54293h2.20703v-1.66797h-2.20703z"/><path d="M157.35938,404.0644v4.63477h3.33594v-3.4043h1.52539v4.76563h-4.86133v5.05078h3.76758v-3.15039h1.55078v5.40625h-1.55078v-0.86719h-8.97656v0.86719h-1.53711v-5.40625h1.53711v3.15039h3.68554v-5.05078h-4.77148v-4.76563h1.52344v3.4043h3.24804v-4.63477zM101.36328,404.08589v1.52539h5.35156v3.16406h-1.48242v0.91016h-3.8418v2.09179h4.68164v1.27149h-4.68164v2.35156c0.7702,0.1276 1.61002,0.19141 2.52148,0.19141h3.54883c-0.22786,0.45573 -0.39649,0.93554 -0.50586,1.4414h-3.05664c-1.85026,0 -3.30993,-0.22004 -4.38086,-0.66211c-1.03906,-0.4284 -1.89584,-1.13474 -2.57031,-2.11914c-0.53776,1.2806 -1.19858,2.34242 -1.98242,3.18555l-1.06055,-1.27148c1.28513,-1.39 2.08725,-3.19013 2.40625,-5.4004l1.55273,0.23829c-0.14584,0.72 -0.28712,1.32029 -0.42383,1.79882c0.55143,0.9798 1.36396,1.70443 2.43946,2.17383v-5.29101h-3.79297v-0.91016h-1.48437v-3.16406h5.23633v-1.52539zM127.86915,404.11323h1.48438v0.78711h4.40821v1.55078h1.53906v0.97852h-1.53906v1.59961h-4.40821v0.57422h5.09179v0.94921h-5.09179v0.58789h5.94726v1.00586h-13.29688v-1.00586h5.86523v-0.58789h-4.91407v-0.94921h4.91407v-0.57422h-4.35352v-0.92383h4.35352v-0.67578h-5.86523v-0.97852h5.86523v-0.6289h-4.35352v-0.92188h4.35352v-0.78711zM193.07031,404.12104v1.24414h3.32813v1.20313h-3.32813v0.9707h2.93946v1.17578h-7.09571v-1.17578h2.76758v-0.9707h-3.24609v-1.20313h3.24609v-1.24414zM142.72656,405.99995h4.75781v1.32031h-4.28516c0.25976,0.64714 0.55273,1.30475 0.88085,1.97461h4.32813v1.32031h-3.63671c0.47851,0.834 0.96027,1.58139 1.44336,2.24219l-1.53125,0.44336c-0.52865,-0.75193 -1.06053,-1.64648 -1.59375,-2.68555h-6.28906v-1.32031h5.66016c-0.26432,-0.56053 -0.5345,-1.21814 -0.8125,-1.97461h-4.60742l-0.00195,-1.32031h4.14258c-0.1504,-0.4238 -0.3112,-0.92643 -0.48437,-1.50977l1.50977,-0.08203c0.17774,0.60614 0.35091,1.13607 0.51953,1.5918zM215.32422,406.92964l-1.23047,1.07422c-0.61979,-0.8568 -1.39908,-1.73962 -2.33789,-2.64649l1.13476,-0.92187c0.82487,0.6654 1.63607,1.49614 2.4336,2.49414zM91.08598,404.59956v3.32812c0,0.1504 0.02276,0.24479 0.06836,0.28125c0.05926,0.04534 0.16278,0.06836 0.30859,0.06836c0.20052,0 0.32943,-0.02736 0.38867,-0.08203c0.0456,-0.03666 0.07751,-0.15841 0.0957,-0.36328c0.0456,-0.52406 0.07164,-0.92966 0.07617,-1.2168l1.27734,0.4043c-0.00467,0.52407 -0.03788,1.0221 -0.10157,1.49609c-0.06836,0.556 -0.36784,0.88739 -0.89648,0.99219c-0.2233,0.04534 -0.55728,0.06836 -1.00391,0.06836c-0.63346,0 -1.06055,-0.08077 -1.27929,-0.24023c-0.18685,-0.13674 -0.2793,-0.38736 -0.2793,-0.75196v-2.74023h-1.70898v0.14258c0,0.92513 -0.10026,1.69074 -0.30078,2.29687c-0.22786,0.66534 -0.6276,1.22919 -1.19727,1.68946l-0.99023,-0.99219c0.57421,-0.401 0.92969,-0.9798 1.06641,-1.73633c0.0638,-0.36 0.0957,-0.79883 0.0957,-1.31836v-1.32617zM85.15239,404.61323v1.14844h-4.33984v-1.14844zM187.97074,404.61323v1.14844h-4.1289v-1.14844zM166.96293,404.69917v8.14844c0,1.71806 0.90237,2.57812 2.70703,2.57812c1.18947,0 2.16472,-0.5501 2.92578,-1.64844c0.49219,-0.70633 0.93423,-1.80011 1.32618,-3.28125l1.38867,0.8418c-0.46484,1.6452 -1.02409,2.87567 -1.67578,3.69141c-1.0254,1.27146 -2.35745,1.90625 -3.99805,1.90625c-1.71354,0 -2.92125,-0.52868 -3.62305,-1.58594c-0.44206,-0.6608 -0.66406,-1.51304 -0.66406,-2.55664v-8.09375zM220.7852,404.90034v0.88086c0,1.5768 0.36915,3.11262 1.10742,4.60742c0.61068,1.23047 1.43556,2.3001 2.47461,3.20703l-0.96289,1.35938c-0.84307,-0.7474 -1.60742,-1.72726 -2.29102,-2.93946c-0.51953,-0.91606 -0.89455,-1.76824 -1.12695,-2.55664c-0.20964,0.93427 -0.48178,1.70902 -0.81445,2.32422c-0.68814,1.2806 -1.54492,2.3242 -2.57032,3.13086l-1.02539,-1.26367c2.1328,-1.4948 3.34959,-3.9681 3.65039,-7.41797h-2.82226v-1.33203zM118.9434,406.23628c1.34893,1.03446 2.02344,2.49866 2.02344,4.39453c0,3.1764 -1.60745,5.19077 -4.82032,6.04297l-0.80664,-1.37305c2.67513,-0.67446 4.01368,-2.20896 4.01368,-4.60156c0,-1.0436 -0.26888,-1.94143 -0.80665,-2.69336c-0.60156,-0.84767 -1.51761,-1.39128 -2.74805,-1.63281c-0.26888,2.11453 -0.63671,3.84631 -1.10156,5.19531c-0.31901,0.94333 -0.71553,1.83334 -1.18945,2.67187c-0.6836,1.19407 -1.45962,1.79102 -2.33008,1.79102c-0.64713,0 -1.2246,-0.29167 -1.73046,-0.875c-0.32357,-0.3692 -0.58464,-0.82164 -0.78516,-1.35937c-0.26432,-0.69727 -0.39648,-1.44794 -0.39648,-2.25c0,-1.29887 0.35681,-2.49416 1.07227,-3.5879c0.7246,-1.11653 1.66669,-1.92772 2.82421,-2.43359c0.84306,-0.36913 1.76819,-0.55469 2.77539,-0.55469c1.57227,0 2.90753,0.4225 4.00586,1.26563zM204.2852,405.09956l0.95703,0.81445c-0.45118,1.5814 -0.82487,2.77083 -1.1211,3.56836c1.1348,0.1914 2.18168,0.50129 3.13868,0.92969c0.05466,-0.58793 0.08203,-1.1654 0.08203,-1.73047c0,-0.3008 -0.00915,-0.65299 -0.02735,-1.05859l1.4961,0.15625c-0.00467,1.3034 -0.0561,2.40039 -0.15625,3.28906c0.5651,0.29167 1.15751,0.63478 1.77734,1.03125l-0.58789,1.45703c-0.4375,-0.319 -0.91144,-0.6367 -1.42187,-0.95117c-0.35092,1.35353 -0.91149,2.40627 -1.68165,3.1582c-0.54687,0.53773 -1.29426,1.01168 -2.24218,1.42188l-0.85547,-1.14844c1.11653,-0.47847 1.94141,-1.08917 2.47461,-1.83203c0.41927,-0.59247 0.72917,-1.36722 0.92969,-2.32422c-1.11654,-0.56053 -2.24676,-0.93877 -3.39063,-1.13477c-0.7428,2.0326 -1.48691,3.57297 -2.23437,4.6211c-0.56966,0.793 -1.21094,1.18945 -1.92188,1.18945c-0.68813,0 -1.22134,-0.32811 -1.59961,-0.98437c-0.28711,-0.50134 -0.42969,-1.09835 -0.42969,-1.79102c0,-0.8568 0.22005,-1.62241 0.66211,-2.29687c0.52409,-0.80207 1.33075,-1.38673 2.41992,-1.75586c0.62891,-0.20967 1.33399,-0.3236 2.11329,-0.3418c0.41927,-1.0938 0.73958,-2.07359 0.96289,-2.93945h-4.68946v-1.34766zM232.28324,405.09956l0.95703,0.81445c-0.45117,1.5814 -0.82486,2.77083 -1.12109,3.56836c1.13473,0.1914 2.18161,0.50129 3.13867,0.92969c0.05467,-0.58793 0.08203,-1.1654 0.08203,-1.73047c0,-0.3008 -0.00914,-0.65299 -0.02734,-1.05859l1.49609,0.15625c-0.00466,1.3034 -0.05609,2.40039 -0.15625,3.28906c0.56511,0.29167 1.15759,0.63478 1.77735,1.03125l-0.58789,1.45703c-0.4375,-0.319 -0.91145,-0.6367 -1.42188,-0.95117c-0.35091,1.35353 -0.91149,2.40627 -1.68164,3.1582c-0.54687,0.53773 -1.29426,1.01168 -2.24219,1.42188l-0.85547,-1.14844c1.11654,-0.47847 1.94141,-1.08917 2.47461,-1.83203c0.41928,-0.59247 0.72917,-1.36722 0.92969,-2.32422c-1.11653,-0.56053 -2.24676,-0.93877 -3.39062,-1.13477c-0.74287,2.0326 -1.48698,3.57297 -2.23438,4.6211c-0.56966,0.793 -1.21093,1.18945 -1.92187,1.18945c-0.68814,0 -1.22135,-0.32811 -1.59961,-0.98437c-0.28711,-0.50134 -0.42969,-1.09835 -0.42969,-1.79102c0,-0.8568 0.22005,-1.62241 0.66211,-2.29687c0.52409,-0.80207 1.33074,-1.38673 2.41992,-1.75586c0.62891,-0.20967 1.33399,-0.3236 2.11328,-0.3418c0.41928,-1.0938 0.73959,-2.07359 0.96289,-2.93945h-4.68945v-1.34766zM129.35356,406.45112h2.93946v-0.6289h-2.93946zM112.29107,406.96675c-0.34636,0.22333 -0.68947,0.51954 -1.03125,0.88867c-0.94794,1.04813 -1.42187,2.26366 -1.42187,3.64453c0,1.0072 0.20052,1.79557 0.60156,2.36523c0.24609,0.35087 0.48893,0.52539 0.73047,0.52539c0.32812,0.00001 0.69728,-0.36133 1.10742,-1.08593c1.0026,-1.76367 1.68164,-4.09247 2.0371,-6.98633c-0.80666,0.09113 -1.48117,0.30664 -2.02343,0.64844zM85.76763,406.61518v1.23047h-5.74219v-1.23047zM188.53127,406.61518v1.23047h-5.33203v-1.23047zM96.09963,408.38667h9.10547v-1.49024h-9.10547zM129.35354,408.10542h2.93945v-0.67578h-2.93945zM85.15237,408.71479v1.13477h-4.33984v-1.13477zM187.97072,408.71479v1.13477h-4.1289v-1.13477zM180.32424,409.55464c0.37825,0.30993 0.5664,0.70638 0.5664,1.18945c0.00001,0.2962 -0.08333,0.57293 -0.25195,0.82813c-0.30534,0.474 -0.7383,0.71093 -1.29883,0.71093c-0.24609,0 -0.48177,-0.0592 -0.70507,-0.17773c-0.17774,-0.09113 -0.32813,-0.21288 -0.45118,-0.36328c-0.25065,-0.2962 -0.375,-0.63345 -0.375,-1.01172c0,-0.52867 0.22005,-0.94795 0.66211,-1.25781c0.26432,-0.18234 0.56055,-0.27344 0.88868,-0.27344c0.35546,0 0.67773,0.11847 0.96484,0.35547zM196.34377,409.65034v2.87109h-1.37305v-1.70898h-4.94922v1.81836h-1.33398v-2.98047zM214.84572,409.84175v4.31445c0.39649,0.46027 0.79427,0.77923 1.19532,0.95703c0.73826,0.3372 1.73047,0.50586 2.9746,0.50586h5.61133c-0.19596,0.41473 -0.34765,0.89908 -0.45703,1.45508h-5.14062c-1.5768,0 -2.80274,-0.24734 -3.67774,-0.74414c-0.37369,-0.2096 -0.76561,-0.56382 -1.17578,-1.06055c-0.76106,0.90687 -1.47529,1.62563 -2.14062,2.1543l-0.86719,-1.47071c0.7702,-0.46939 1.49609,-1.01168 2.17969,-1.62695v-3.13672h-2.07032v-1.34765zM91.91408,410.33393l0.73828,0.66993c-0.61979,1.33526 -1.36264,2.46423 -2.22852,3.38476c0.87046,0.62893 1.88349,1.16668 3.04102,1.61328l-0.8125,1.35938c-1.39,-0.65173 -2.48832,-1.30795 -3.29492,-1.96875c-1.0208,0.8568 -2.04617,1.5267 -3.07617,2.00976l-0.79297,-1.21679c0.99806,-0.3418 1.9701,-0.90238 2.91797,-1.68164c-0.8522,-0.91147 -1.49934,-1.88218 -1.94141,-2.91211h-0.68359v-1.25782zM200.66214,411.02729c-0.65625,0.29167 -1.13933,0.73831 -1.44922,1.33985c-0.21875,0.42386 -0.32812,0.87498 -0.32812,1.35351c0,0.3828 0.07617,0.71552 0.22656,0.99805c0.11393,0.22333 0.25065,0.33398 0.41015,0.33398c0.63802,0 1.52217,-1.45373 2.65235,-4.36132c-0.58789,0.032 -1.09247,0.1446 -1.51172,0.33593zM228.66019,411.02729c-0.65626,0.29167 -1.13934,0.73831 -1.44922,1.33985c-0.21875,0.42386 -0.32813,0.87498 -0.32813,1.35351c0,0.3828 0.07617,0.71552 0.22657,0.99805c0.11393,0.22333 0.25064,0.33398 0.41015,0.33398c0.63802,0 1.52217,-1.45373 2.65235,-4.36132c-0.5879,0.032 -1.09248,0.1446 -1.51172,0.33593zM85.15236,410.71675v1.10742h-4.33984v-1.10742zM187.97071,410.71675v1.10742h-4.1289v-1.10742zM194.01954,411.57222v4.05273c0,0.1276 0.0319,0.20509 0.0957,0.23242c0.10482,0.04534 0.22331,0.06836 0.35547,0.06836c0.30079,0 0.49675,-0.04237 0.58789,-0.1289c0.12305,-0.1094 0.20964,-0.72004 0.25977,-1.83204l1.23828,0.42969c-0.041,1.22133 -0.17186,1.99609 -0.39062,2.32422c-0.13672,0.20507 -0.35547,0.34504 -0.65625,0.41797c-0.25977,0.05933 -0.6061,0.08789 -1.03907,0.08789c-0.75193,0 -1.23634,-0.07742 -1.45508,-0.23242c-0.20963,-0.15034 -0.31445,-0.42839 -0.31445,-0.83399v-4.58593zM89.33593,413.47847l0.07617,0.07617c0.63802,-0.7246 1.07552,-1.37956 1.3125,-1.96289h-2.85742c0.3737,0.679 0.86265,1.30792 1.46875,1.88672zM191.87303,411.59956c-0.01367,1.80013 -0.20052,3.05337 -0.56055,3.75977c-0.48763,0.94786 -1.31837,1.66341 -2.49414,2.14648l-0.58789,-0.80664v0.00976h-3.26758v0.70508h-1.34766v-4.71094l4.61524,-0.0039v3.58984c0.91146,-0.32353 1.53124,-0.8418 1.85937,-1.55273c0.25521,-0.54687 0.39193,-1.59179 0.41016,-3.13672zM139.32225,412.97261c-0.14128,0.28706 -0.21094,0.57287 -0.21094,0.85546c0,0.5742 0.39192,0.98895 1.17578,1.24415c0.69726,0.22786 1.76369,0.34179 3.19922,0.34179c0.72007,0 1.5677,-0.03972 2.54297,-0.11718l0.12304,1.41601c-0.875,0.064 -1.68948,0.0957 -2.44141,0.0957c-1.97333,0 -3.40109,-0.18555 -4.28515,-0.55468c-1.22593,-0.51494 -1.83985,-1.32746 -1.83985,-2.43946c0,-0.62433 0.17188,-1.12892 0.51367,-1.51172zM85.46092,412.69917v4.00586h-3.58203v0.70508h-1.36133v-4.71094zM133.65233,412.71284v4.70313h-1.50977v-0.56055h-6.97265v0.56055h-1.50977v-4.70313zM125.16991,414.27925h6.97265v-0.62891h-6.97265zM81.87889,415.54292h2.20703v-1.66797h-2.20703zM184.96289,415.54292h1.91992v-1.66797h-1.91992zM125.16992,415.85151h6.97265v-0.67773h-6.97265z"/><path d="M113.94342,368.3001v1.7422h6.1172v3.8164h-1.6953v1.0391h-4.3906v2.1914h5.3516v1.6523h-5.3516v2.4942c0.853,0.1369 1.7766,0.2129 2.7832,0.2129h4.2168l-0.0723,0.1445c-0.25665,0.5133 -0.44703,1.0548 -0.57031,1.625l-0.0176,0.078h-3.5723c-2.1226,0 -3.8042,-0.2527 -5.0469,-0.7656c-1.1617,-0.479 -2.11752,-1.274 -2.8848,-2.3496c-0.6066,1.4057 -1.33261,2.6044 -2.207,3.5449l-0.0762,0.082l-1.3398,-1.6074l0.0586,-0.064c1.4536,-1.5722 2.36231,-3.6071 2.7246,-6.1172l0.0156,-0.1l1.9766,0.3047l-0.0215,0.1015c-0.16291,0.8044 -0.32095,1.4682 -0.47461,2.0117c0.5923,1.0392 1.4587,1.8037 2.582,2.3282v-5.7676h-4.3359v-1.0391h-1.6953v-3.8164h5.9844v-1.7422zM145.928,368.3v0.8985h5.0391v1.7734h1.7578v1.3164h-1.7578v1.8281h-5.0391v0.4571h5.8203v1.2851h-5.8203v0.4727h6.7969v1.3476h-15.395v-1.3476h6.7031v-0.4727h-5.6172v-1.2851h5.6172v-0.4571h-4.9766v-1.2539h4.9766v-0.5742h-6.7031v-1.3164h6.7031v-0.5195h-4.9766v-1.2539h4.9766v-0.8985zM177.9438,368.3v5.2969h3.6133v-3.8906h1.9414v5.6445h-5.5547v5.5742h4.1055v-3.6015h1.9726v6.3789h-1.9726v-0.9922h-10.059v0.9922h-1.957v-6.3789h1.957v3.6015h4.0117v-5.5742h-5.4531v-5.6445h1.9414v3.8906h3.5117v-5.2969zM218.7481,368.3164v1.4218h3.8047v1.5742h-3.8047v0.9102h3.3594v1.543h-8.3086v-1.543h3.1641v-0.9102h-3.4023v1.461h-6.293v-1.6059h5.9844v-1.4297h3.7109v-1.4218zM241.3674,368.6738c0.9495,0.7658 1.88171,1.7218 2.7969,2.8672l0.0606,0.074l-1.4785,1.291l-0.084,0.07l-0.0625,-0.088c-0.7041,-0.9733 -1.5926,-1.9766 -2.6621,-3.0097l-0.0801,-0.078l1.4473,-1.1777zM160.61959,368.7076c0.19542,0.6663 0.38508,1.2444 0.57031,1.75h5.4648v1.707h-4.8438c0.27513,0.6761 0.57938,1.3604 0.91992,2.0586h4.9785v1.707h-4.0723c0.5133,0.8833 1.02781,1.697 1.5449,2.4043l0.084,0.1153l-1.9551,0.5664l-0.041,-0.059c-0.5967,-0.8487 -1.19485,-1.8636 -1.7949,-3.0274h-7.2305v-1.707h6.4199c-0.27675,-0.5978 -0.55869,-1.2769 -0.84765,-2.0586h-5.2988v-1.7074h4.6973c-0.1612,-0.4621 -0.33061,-0.9811 -0.51367,-1.5977l-0.0371,-0.123l1.9336,-0.1035zM102.20195,372.7627c0,0.0809 0.0075,0.1445 0.0176,0.1855c0.0097,0.04 0.02055,0.055 0.0215,0.055h0.002c0.03683,0.028 0.1338,0.059 0.28906,0.059c0.22005,0 0.35055,-0.044 0.37695,-0.068h0.006c-0.0076,0.006 0.0153,-0.022 0.0312,-0.082c0.0158,-0.0601 0.0309,-0.1498 0.041,-0.2637c0.0519,-0.5977 0.0809,-1.059 0.0859,-1.3828l0.002,-0.1347l1.6582,0.5234v0.074c-0.00536,0.602 -0.04399,1.1771 -0.11719,1.7227c-0.04112,0.3319 -0.15349,0.6062 -0.33984,0.8125c-0.18673,0.2067 -0.44545,0.3413 -0.76367,0.4043c-0.26802,0.055 -0.65418,0.08 -1.168,0.08c-0.73232,0 -1.23237,-0.0836 -1.5195,-0.2929c-0.24772,-0.1813 -0.36133,-0.5057 -0.36133,-0.9395v-3.0332h-1.7539v0.064c0,1.0645 -0.11372,1.9491 -0.34765,2.6562h-0.002c-0.2664,0.7779 -0.73411,1.4398 -1.3984,1.9766l-0.0703,0.057l-1.2793,-1.2812l0.0976,-0.068c0.63507,-0.4435 1.02525,-1.0764 1.1777,-1.9199c0.07152,-0.4033 0.10742,-0.9006 0.10742,-1.4902v-1.6157h5.207zM95.4212,368.8795v1.5117h-5.1602v-1.5121zM212.919,368.8795v1.5117h-4.918v-1.5121zM188.91085,368.9577v9.4121c0,0.9642 0.25059,1.6688 0.74219,2.1367c0.4916,0.4679 1.2366,0.709 2.252,0.709c1.3286,0 2.4058,-0.6047 3.2617,-1.8399c0.55092,-0.7905 1.05573,-2.0322 1.502,-3.7187l0.0332,-0.1289l1.7656,1.0684l-0.0215,0.074c-0.5334,1.8878 -1.17357,3.305 -1.9316,4.2539c-1.1882,1.4734 -2.7476,2.2168 -4.6484,2.2168c-1.9789,0 -3.40178,-0.6179 -4.2246,-1.8575c-0.51874,-0.7754 -0.77344,-1.7697 -0.77344,-2.9765v-9.35zM250.42652,369.1792v1.1074c0,1.7864 0.41834,3.5248 1.2559,5.2207c0.6922,1.3948 1.6268,2.6047 2.8047,3.6328l0.0684,0.061l-1.2188,1.7187l-0.084,-0.072c-0.9736,-0.8631 -1.85313,-1.9937 -2.6387,-3.3868c-0.54747,-0.9654 -0.91826,-1.8551 -1.1894,-2.7011c-0.23072,0.9447 -0.50309,1.7856 -0.85352,2.4336c-0.7921,1.4741 -1.7794,2.6782 -2.9629,3.6093l-0.0781,0.062l-1.3008,-1.6035l0.0879,-0.062c2.3841,-1.6708 3.74133,-4.437 4.1016,-8.2949h-3.1992v-1.7227h5.1074zM129.35703,369.3237c1.8148,0 3.3652,0.4872 4.6387,1.4648c1.56511,1.2002 2.3516,2.9131 2.3516,5.1035c0,1.832 -0.46445,3.3407 -1.3984,4.5117c-0.934,1.1711 -2.3328,2.0013 -4.1836,2.4922l-0.0723,0.018l-0.96093,-1.6348l-0.0684,-0.1152l0.1289,-0.033c1.5151,-0.382 2.64136,-1.0044 3.3887,-1.8613c0.74734,-0.8569 1.123,-1.9503 1.123,-3.2988c0,-1.1757 -0.30245,-2.178 -0.9043,-3.0196c-0.654,-0.9215 -1.6515,-1.5105 -2.9844,-1.793c-0.3061,2.3548 -0.7146,4.3182 -1.2383,5.8379c-0.36634,1.083 -0.82077,2.1071 -1.3652,3.0704h-0.002c-0.7903,1.3804 -1.7095,2.0976 -2.75,2.0976c-0.7696,0 -1.46075,-0.3506 -2.0527,-1.0332c-0.37892,-0.4323 -0.68332,-0.9619 -0.91602,-1.5859c-0.30659,-0.8088 -0.45898,-1.6778 -0.45898,-2.6055c0,-1.5028 0.41457,-2.891 1.2422,-4.1563c0.8376,-1.2906 1.9289,-2.2324 3.2695,-2.8183c0.9769,-0.4277 2.0496,-0.6406 3.2129,-0.6406zM232.67693,370.4086l-0.0176,0.061c-0.5029,1.7626 -0.91404,3.0675 -1.25,3.9824c1.2107,0.2129 2.3304,0.5495 3.3652,1c0.0548,-0.6262 0.0879,-1.2427 0.0879,-1.8457c0,-0.3417 -0.0104,-0.7446 -0.0312,-1.2071l-0.006,-0.1152l1.916,0.2012v0.09c-0.00512,1.465 -0.06466,2.6905 -0.17578,3.7012c0.6322,0.3287 1.29209,0.7107 1.9824,1.1523l0.0684,0.045l-0.75,1.8593l-0.10352,-0.076c-0.4664,-0.3401 -0.97775,-0.6759 -1.5176,-1.0118c-0.4063,1.4906 -1.03243,2.6776 -1.9004,3.5254c-0.6366,0.626 -1.5023,1.1742 -2.5938,1.6465l-0.0723,0.031l-1.0996,-1.4785l0.11719,-0.049c1.2642,-0.5417 2.18917,-1.2302 2.7852,-2.0605c0.45416,-0.6417 0.7862,-1.4999 1.0137,-2.5371c-1.217,-0.6018 -2.4476,-1.016 -3.6914,-1.2364c-0.8371,2.2724 -1.67653,4.0283 -2.5254,5.2188c-0.6625,0.9223 -1.42762,1.4004 -2.2773,1.4004c-0.8183,0 -1.46871,-0.4012 -1.9141,-1.1739c-0.338,-0.5901 -0.50586,-1.2902 -0.50586,-2.0957c0,-0.9963 0.25759,-1.8925 0.77344,-2.6796c0.6125,-0.9373 1.5574,-1.6195 2.8184,-2.0469c0.7076,-0.2359 1.50249,-0.3558 2.3692,-0.3828c0.44944,-1.1772 0.79069,-2.2301 1.0391,-3.1719h-5.3203v-1.7387h6.2461zM264.67693,370.4086l-0.0176,0.061c-0.5029,1.7626 -0.91404,3.0675 -1.25,3.9824c1.2107,0.2129 2.3304,0.5495 3.3652,1c0.0548,-0.6262 0.0879,-1.2427 0.0879,-1.8457c0,-0.3417 -0.0104,-0.7446 -0.0312,-1.2071l-0.006,-0.1152l1.916,0.2012v0.09c-0.00512,1.465 -0.06466,2.6905 -0.17578,3.7012c0.6322,0.3287 1.29209,0.7107 1.9824,1.1523l0.0684,0.045l-0.75,1.8593l-0.10352,-0.076c-0.4664,-0.3401 -0.97775,-0.6759 -1.5176,-1.0118c-0.4063,1.4906 -1.03243,2.6776 -1.9004,3.5254c-0.6366,0.626 -1.5023,1.1742 -2.5938,1.6465l-0.0723,0.031l-1.0996,-1.4785l0.11719,-0.049c1.2642,-0.5417 2.18917,-1.2302 2.7852,-2.0605c0.45416,-0.6417 0.7862,-1.4999 1.0137,-2.5371c-1.217,-0.6018 -2.4476,-1.016 -3.6914,-1.2364c-0.8371,2.2724 -1.67653,4.0283 -2.5254,5.2188c-0.6625,0.9223 -1.42762,1.4004 -2.2773,1.4004c-0.8183,0 -1.46871,-0.4012 -1.9141,-1.1739c-0.338,-0.5901 -0.50586,-1.2902 -0.50586,-2.0957c0,-0.9963 0.25759,-1.8925 0.77344,-2.6796c0.6125,-0.9373 1.5574,-1.6195 2.8184,-2.0469c0.7076,-0.2359 1.50249,-0.3558 2.3692,-0.3828c0.44944,-1.1772 0.79069,-2.2301 1.0391,-3.1719h-5.3203v-1.7387h6.2461zM145.927,370.9729h3.1602v-0.5195h-3.1602zM128.51694,371.1077c-0.8352,0.113 -1.56251,0.3247 -2.1289,0.6816c-0.38695,0.2496 -0.77256,0.5835 -1.1582,1c-1.06788,1.1814 -1.5996,2.541 -1.5996,4.0957c0,1.1378 0.22756,2.0182 0.66992,2.6465c0.27242,0.3885 0.5263,0.5586 0.75391,0.5586c0.15069,0 0.32698,-0.0866 0.52734,-0.2832c0.20037,-0.1967 0.41883,-0.4991 0.65039,-0.9082c1.1169,-1.9646 1.87444,-4.5727 2.2852,-7.791zM96.1227,371.1711v1.6054h-6.7617v-1.6078zM107.927,373.2156h10.207v-1.5039h-10.207zM145.927,372.864h3.1602v-0.5742h-3.1602zM95.4192,373.5691v1.4941h-5.1602v-1.496zM212.917,373.5676v1.496h-4.918v-1.4964zM202.98137,374.1375c0.42788,0 0.82071,0.1448 1.1641,0.4277c0.45199,0.3703 0.68554,0.8593 0.68554,1.4375c0,0.3575 -0.10217,0.6935 -0.30468,1c-0.3641,0.5651 -0.8996,0.8574 -1.5684,0.8574c-0.2973,0 -0.58292,-0.0723 -0.85156,-0.2148c-0.21359,-0.11 -0.39816,-0.2577 -0.54688,-0.4395c-0.29887,-0.3541 -0.45117,-0.7652 -0.45117,-1.2187c0,-0.6321 0.27368,-1.1501 0.80078,-1.5196c0.31803,-0.2193 0.67878,-0.33 1.0723,-0.33zM222.3879,374.6375h0.0996v3.4804h-1.7695v-1.9531h-5.457v2.0781h-1.7226v-3.6054zM243.63573,374.8333v4.9844c0.43838,0.5031 0.87621,0.8552 1.3086,1.0468c0.8244,0.3767 1.9446,0.5703 3.3574,0.5703h6.5723l-0.0684,0.1426c-0.21965,0.4648 -0.3919,1.0117 -0.51563,1.6406l-0.0156,0.08h-5.957c-1.8126,0 -3.2296,-0.2829 -4.252,-0.8633c-0.41695,-0.2339 -0.84688,-0.6395 -1.291,-1.1621c-0.8442,0.9974 -1.6415,1.8103 -2.3867,2.4024l-0.0898,0.072l-1.1016,-1.8632l0.084,-0.053c0.863,-0.526 1.67772,-1.1348 2.4453,-1.8222v-3.4375h-2.3672v-1.7383zM103.08486,375.419l0.92578,0.8399l-0.0312,0.068c-0.6927,1.4925 -1.53086,2.7425 -2.4941,3.7871c0.9706,0.6908 2.0851,1.2918 3.3691,1.7871l0.11133,0.043l-1.0371,1.7344l-0.082,-0.039c-1.5663,-0.7344 -2.79432,-1.4732 -3.7207,-2.2226c-1.1517,0.959 -2.3094,1.7229 -3.4746,2.2695l-0.0801,0.037l-0.80079,-1.2285v0.4043h-4.0938v0.8047h-1.7539v-5.5821h5.8476v3.9317c1.0658,-0.3799 2.108,-0.9788 3.127,-1.8047c-0.9193,-1.0019 -1.6355,-2.0651 -2.1289,-3.1934h-0.83008v-1.6367zM95.4189,375.8586v1.4648h-5.1602v-1.4672zM212.9167,375.8566v1.4649h-4.918v-1.4653zM228.87573,376.0515c-0.57218,0.0494 -1.09475,0.1447 -1.5098,0.334c-0.732,0.3253 -1.26338,0.8167 -1.6074,1.4844h-0.002c-0.24297,0.4708 -0.36328,0.9703 -0.36328,1.5019c0,0.4244 0.08302,0.7874 0.24609,1.0938h0.002c0.12162,0.2381 0.24328,0.3281 0.37891,0.3281c0.14431,0 0.32389,-0.0871 0.53125,-0.2851c0.20735,-0.1981 0.43767,-0.5033 0.6875,-0.9141c0.4756,-0.7821 1.02948,-2.0025 1.6367,-3.543zM260.87573,376.0515c-0.57218,0.0494 -1.09475,0.1447 -1.5098,0.334c-0.732,0.3253 -1.26338,0.8167 -1.6074,1.4844h-0.002c-0.24297,0.4708 -0.36328,0.9703 -0.36328,1.5019c0,0.4244 0.08302,0.7874 0.24609,1.0938h0.002c0.12162,0.2381 0.24328,0.3281 0.37891,0.3281c0.14431,0 0.32389,-0.0871 0.53125,-0.2851c0.20735,-0.1981 0.43767,-0.5033 0.6875,-0.9141c0.4756,-0.7821 1.02948,-2.0025 1.6367,-3.543zM219.83079,376.834v4.7324c0,0.0647 0.0086,0.1127 0.0195,0.1387c0.0109,0.025 0.0187,0.035 0.0293,0.035c0.10571,0.046 0.22762,0.068 0.36719,0.068c0.33415,0 0.53922,-0.0601 0.60352,-0.1211h0.002c0.0049,-0.0044 0.0405,-0.0593 0.0683,-0.1543c0.0277,-0.0954 0.0538,-0.2307 0.0781,-0.4023c0.04868,-0.3433 0.08858,-0.8332 0.11718,-1.4668l0.006,-0.1348l1.6094,0.5605l-0.002,0.074c-0.04707,1.4014 -0.18077,2.2867 -0.46094,2.707c-0.17199,0.258 -0.4493,0.4315 -0.81055,0.5195h-0.002c-0.30863,0.0705 -0.70965,0.1035 -1.209,0.1035c-0.86628,0 -1.42859,-0.0749 -1.7227,-0.2832c-0.27418,-0.1967 -0.40039,-0.5544 -0.40039,-1.0351v-5.3422zM217.37775,376.9561c-0.01565,2.0639 -0.22353,3.5044 -0.65039,4.3418c-0.5691,1.1063 -1.5438,1.9411 -2.9043,2.5l-0.0723,0.031l-0.67969,-0.9356h-3.5918v0.8047h-1.7383v-5.582h5.4726v4.0351c0.937,-0.365 1.59161,-0.9034 1.9355,-1.6484c0.2768,-0.5931 0.43819,-1.7846 0.45899,-3.5449v-0.098h1.7715zM98.61946,377.0571c0.4095,0.7061 0.90659,1.3749 1.5449,1.9844h0.004c0.63333,-0.7324 1.0673,-1.3922 1.3301,-1.9864h-2.8789zM157.35418,378.4848l-0.043,0.086c-0.15573,0.3164 -0.23243,0.6253 -0.23243,0.9316c0,0.3054 0.10047,0.5591 0.3086,0.7793c0.20813,0.2202 0.52937,0.4045 0.9668,0.5469c0.7776,0.2541 1.9896,0.3867 3.625,0.3867c0.8193,0 1.7858,-0.0448 2.8984,-0.1328l0.0996,-0.01l0.14844,1.7168l0.01,0.1l-0.10156,0.01c-1.0021,0.0734 -1.9347,0.1094 -2.7969,0.1094c-2.2615,0 -3.9027,-0.2085 -4.9375,-0.6407c-1.42473,-0.5985 -2.1621,-1.5733 -2.1621,-2.8808c0,-0.7318 0.20271,-1.3353 0.61133,-1.793l0.0527,-0.059zM150.73706,378.1294h0.0996v5.5742h-1.9258v-0.6407h-7.7695v0.6407h-1.9258v-5.5742zM141.14136,379.9184h7.7695v-0.5195h-7.7695zM91.67236,381.3715h2.3242v-1.707h-2.3242zM209.47236,381.3715h1.9961v-1.707h-1.9961zM141.13636,381.7153h7.7695v-0.5742h-7.7695z"/></g></g></g></svg>