<svg xmlns="http://www.w3.org/2000/svg" viewBox="0 0 208 80" version="1.1" height="80" width="208">
 <rect stop-color="#000000" fill-opacity="0" height="80" width="208"></rect>
 <g aria-label="震度推定なし" fill="#fff">
  <path d="m34.194 42.262v-1.1758h-8.5449v-1.9551h20.18v1.9551h-8.7227v1.1758h11.32v4.9082h-2.9668v-3.1445h-8.3535v5.3184h-2.9121v-5.3184h-8.2031v3.1445h-2.9395v-4.9082zm9.6797 19.4q2.0918 0.79297 5.2227 1.2578l-1.5996 2.3242q-4.3887-0.75195-7.2051-2.584-2.8027-1.832-4.3613-4.5527h-3.0215v4.2109q3.0215-0.42383 5.6055-0.90234l0.19141 2.0371q-4.8125 1.1484-11.006 1.9961l-0.80664-2.4062q2.1465-0.23242 2.9395-0.32812l0.16406-0.02734v-4.5801h-2.9941q-0.19141 2.4062-0.62891 3.8418-0.51953 1.7227-1.668 3.2129l-2.4336-2.0098q1.3398-1.7363 1.668-4.0605 0.17773-1.2578 0.17773-3.1309v-5.7969h23.598v1.8184h-20.658v4.1973h21.834v1.9277h-3.1035l1.7363 1.1484q-1.5449 1.2852-3.6504 2.4062zm-2.1328-1.0527q1.9688-1.3398 3.1309-2.502h-5.9746q1.1758 1.5039 2.8438 2.502zm-14.547-15.572h5.8242v1.5449h-5.8242zm0 2.5156h5.8242v1.5723h-5.8242zm11.088-2.5156h6.002v1.5449h-6.002zm0 2.5156h6.002v1.5723h-6.002zm-9.5977 5.5781h17.021v1.791h-17.021z"></path>
  <path d="m65.871 41.031h10.719v2.2969h-6.0703v2.2695h5.6875v2.2148h-5.6875v4.0742h-11.006v-4.0742h-4.4844v2.543q0 6.1934-0.65625 9.7891-0.50586 2.7344-1.6406 4.9902l-2.4883-1.9688q1.0391-2.2559 1.4219-5.5098 0.3418-2.8574 0.3418-7.3008v-9.3242h10.814v-2.4609h3.0488zm-10.842 2.2969v2.2695h4.4844v-2.2695zm7.3965 0v2.2695h5.1816v-2.2695zm0 4.4844v2.1191h5.1816v-2.1191zm3.1719 14.355q-3.9512 2.0508-10.035 3.1172l-1.4219-2.5156q5.7148-0.68359 8.9551-2.0918-2.7754-2.0098-4.7441-4.7715h-1.8867v-2.3789h16.01l1.4355 1.2031q-2.0371 3.1309-5.8105 5.8926 3.2402 1.2988 8.832 1.9141l-1.5996 2.584q-5.3594-0.72461-9.7344-2.9531zm-4.0605-6.2617q1.6543 1.9414 4.0195 3.418 2.666-1.7227 4.1152-3.418z"></path>
  <path d="m92.627 43.52h3.8965q0.84766-2.2285 1.5996-4.8945l2.8301 0.58789q-0.875 2.625-1.668 4.3066h5.3047v2.4883h-5.6465v3.2812h4.7852v2.3516h-4.7852v3.2539h4.7852v2.3516h-4.7852v3.4727h6.0977v2.543h-12.646v1.9141h-2.7207v-16.297q-0.62891 0.99805-1.3535 1.9824l-1.5859-2.4199q3.1309-3.9512 4.8125-9.9668l2.8301 0.61523q-0.82031 2.5293-1.75 4.4297zm-0.23242 17.199h3.9512v-3.4727h-3.9512zm0-5.8242h3.9512v-3.2539h-3.9512zm0-5.6055h3.9512v-3.2812h-3.9512zm-10.145-5.5645v-5.1543h2.9668v5.1543h2.8848v2.666h-2.8848v4.5117q1.1895-0.36914 2.5156-0.84766l0.19141 2.6387q-0.95703 0.36914-2.707 1.0117v8.9141q0 1.4355-0.66992 1.9961-0.58789 0.49219-1.9824 0.49219-1.5723 0-2.9805-0.27344l-0.56055-2.9395q1.832 0.25976 2.502 0.25976 0.47852 0 0.60156-0.16406 0.12305-0.16406 0.12305-0.60156v-6.6855q-1.1484 0.36914-3.2812 0.95703l-0.80664-2.8574q2.748-0.61524 4.0879-1.0117v-5.4004h-3.6641v-2.666z"></path>
  <path d="m121.21 61.197q2.3106 0.38281 5.0449 0.38281h7.0957q-0.68359 1.3672-1.0117 2.8848h-6.1113q-5.5508 0-8.7637-1.3262-3.1172-1.2852-5.1406-4.2383-1.6133 3.8418-3.9648 6.3711l-2.1191-2.543q3.8555-4.1699 4.8125-10.801l3.1035 0.47852q-0.4375 2.1602-0.84766 3.5957 1.6543 2.9395 4.8809 4.3477v-10.582h-7.5879v-1.8184h-2.9668v-6.3301h10.473v-3.0488h3.0488v3.0488h10.705v6.3301h-2.9668v1.8184h-7.6836v4.1836h9.3652v2.543h-9.3652zm-10.582-17.008v2.9805h18.211v-2.9805z"></path>
  <path d="m150.73 48.455h3.1035v7.5059q3.1992 1.4082 6.5488 3.7188l-1.5723 2.5566q-2.3516-1.7227-4.9766-3.1992-0.15039 2.4199-1.5723 3.7188-1.5859 1.4355-4.4434 1.4355-2.7617 0-4.5527-1.2578-1.75-1.2441-1.75-3.4727 0-2.3379 2.2012-3.7461 1.709-1.0938 4.375-1.0938 1.2442 0 2.6387 0.30078zm0 9.2695q-1.627-0.56055-3.0762-0.56055-1.4219 0-2.2832 0.50586-1.1074 0.65625-1.1074 1.75 0 1.3398 1.5859 1.9551 0.79297 0.30078 1.9004 0.30078 1.7773 0 2.5566-1.5039 0.42383-0.80664 0.42383-1.8867zm-14.67-14.506h5.2227q0.69727-2.3652 1.1211-4.1699l2.9942 0.36914q-0.54688 2.0098-1.1211 3.8008h4.9902v2.748h-5.8789q-2.4473 7.0137-5.7422 11.867l-2.543-1.4492q3.1172-4.6211 5.2637-10.418h-4.3066zm22.832 6.6582q-3.0352-3.377-6.9727-6.1523l1.8047-1.9688q3.9102 2.5293 7.1367 5.8926z"></path>
  <path d="m165.13 39.719h3.2266v16.297q0 5.1543 5.4141 5.1543 3.5684 0 5.8516-3.2949 1.4766-2.1191 2.6523-6.5625l2.7754 1.6816q-1.3945 4.9355-3.3496 7.3828-3.0762 3.8145-7.998 3.8145-5.1406 0-7.2461-3.1719-1.3262-1.9824-1.3262-5.1133z"></path>
 </g>
 <g aria-label="単独点処理のため" fill="#fff" transform="translate(23.759 .51729)">
  <path d="m22.19 17.191h2.4346v7.4004h-6.0645v1.3271h7.6465v1.6348h-7.6465v3.4805h-1.96v-3.4805h-7.5059v-1.6348h7.5059v-1.3271h-5.9414v-7.4004h1.6611q-0.02637-0.07031-0.0791-0.18457-0.54492-1.2744-1.4414-2.4434l1.7666-0.70312q0.98438 1.3008 1.6348 2.6982l-1.6611 0.63281h4.2803l-0.04394-0.12305q-0.50098-1.5557-1.3272-2.6982l1.7842-0.66797q0.86133 1.3447 1.4502 2.8037l-1.7139 0.68555h3.208q1.1514-1.626 1.96-3.3486l1.9512 0.70312q-0.85254 1.3535-1.8984 2.6455zm0.52734 1.4941h-4.1924v1.4941h4.1924zm-6.0645 0h-4.0869v1.4941h4.0869zm6.0645 2.8652h-4.1924v1.5996h4.1924zm-6.0645 0h-4.0869v1.5996h4.0869z"></path>
  <path d="m30.662 23.062q-1.1953 2.5928-2.751 4.2275l-1.0283-1.626q1.7227-1.7314 3.4189-5.1943-0.09668-0.46582-0.24609-1.0811-1.0986 1.1338-2.2324 2.083l-0.95801-1.5645q1.5381-1.125 2.5576-2.2939-0.67676-1.415-1.8545-2.4434l1.3096-0.94922q1.1514 0.93164 1.7227 1.8721 0.5625-0.79102 1.2656-2.127l1.5732 1.0107q-1.0371 1.6084-2.0039 2.8301 1.1162 3.041 1.1162 7.2422 0 3.2256-0.65918 4.7637-0.29883 0.70312-0.81738 0.9668-0.39551 0.19336-1.0723 0.19336-1.002 0-1.7842-0.19336l-0.36035-1.8545q1.1074 0.2373 1.6963 0.2373 0.53613 0 0.71191-0.27246 0.10547-0.1582 0.18457-0.50098 0.28125-1.2305 0.28125-3.4717 0-0.9668-0.07031-1.8545zm6.9082-5.9062v-3.2256h1.7842v3.2256h4.0342v7.1191h-4.0342v3.8584q1.2217-0.1582 2.25-0.31641-0.45703-1.1953-1.0986-2.4082l1.5996-0.59766q1.3887 2.3203 2.2764 5.4053l-1.7666 0.82617q-0.20215-0.91406-0.49219-1.7842-0.21094 0.04395-0.43066 0.09668-3.3662 0.79102-8.543 1.2568l-0.54492-1.8369q2.3818-0.1582 4.6846-0.4043l0.28125-0.02637v-4.0693h-3.9023v-7.1191zm-2.2324 1.6523v3.8145h2.2324v-3.8145zm6.3545 3.8145v-3.8145h-2.3379v3.8145z"></path>
  <path d="m54.199 15.82h7.0312v1.5645h-7.0312v1.8721h6.0205v5.8535h-13.087v-5.8535h5.0889v-5.3262h1.9775zm-5.124 4.9307v2.8477h9.2021v-2.8477zm-4.0518 9.167q1.2568-1.5293 1.9248-3.5508l1.8721 0.65039q-0.71191 2.4609-1.9072 4.0342zm6.0996 1.002q-0.30762-2.3906-0.70312-3.8496l1.8896-0.39551q0.66797 1.9336 0.90527 3.6738zm4.6143-0.28125q-0.54492-1.7842-1.5117-3.6387l1.7578-0.63281q1.0283 1.5117 1.7314 3.5332zm4.6758 0.03516q-0.69434-1.8633-2.0654-3.8232l1.7227-0.80859q1.2129 1.4766 2.2676 3.7441z"></path>
  <path d="m68.649 25.778q2.1006 2.8916 6.6357 2.8916h5.0361q-0.36035 0.79102-0.51856 1.9072h-4.667q-4.6406 0-7.3916-3.208-1.3008 2.1709-3.3135 3.6211l-1.2129-1.5293q2.0918-1.5205 3.4805-3.7793-0.97559-2.1445-1.3711-4.1133-0.58008 1.3887-1.1689 2.2236l-1.1162-1.6172q1.96-3.208 2.5928-8.2969l1.8193 0.36035q-0.07031 0.53613-0.1582 1.0459h2.7686l0.86133 0.77344q-0.49219 6.2139-2.2764 9.7207zm-1.0107-2.0215q1.1074-3.085 1.4678-6.6885h-2.1885q-0.35156 1.2832-0.51855 1.7314 0.39551 2.7334 1.2393 4.957zm9.7295-8.8154v10.283q0 0.22852 0.05273 0.34277 0.07031 0.14062 0.33398 0.14062 0.44824 0 0.54492-0.39551 0.10547-0.4043 0.16699-2.2676l1.5645 0.63281q-0.08789 2.0654-0.29883 2.7598-0.24609 0.80859-0.97559 0.95801-0.4043 0.08789-1.2041 0.08789-1.2568 0-1.626-0.4043-0.30762-0.3252-0.30762-1.0107v-9.3604h-1.8105v3.1904q0 2.751-0.57129 4.5967-0.50098 1.6348-1.6611 3.0674l-1.3711-1.3887q1.0723-1.2568 1.4766-2.7598 0.39551-1.4941 0.39551-3.9551v-4.5176z"></path>
  <path d="m85.234 16.629v3.5684h1.7402v1.8018h-1.7402v3.5332q0.71191-0.29883 1.5381-0.71191l0.21973 1.749q-2.4521 1.3447-5.6338 2.4785l-0.53613-1.9775q1.4502-0.42188 2.5752-0.83496v-4.2363h-2.0566v-1.8018h2.0566v-3.5684h-2.2676v-1.8193h6.0469v1.8193zm12.217-2.0479v9.0176h-3.9902v1.6699h4.1484v1.5996h-4.1484v1.8545h4.7812v1.7139h-11.821v-1.7139h5.2383v-1.8545h-4.2188v-1.5996h4.2188v-1.6699h-3.9287v-9.0176zm-8.0244 1.582v2.1094h2.2324v-2.1094zm0 3.6738v2.1797h2.2324v-2.1797zm6.293 2.1797v-2.1797h-2.2588v2.1797zm0-3.7441v-2.1094h-2.2588v2.1094z"></path>
  <path d="m108.53 28.362q5.1592-1.3008 5.1592-5.915 0-2.0127-1.0371-3.4629-1.1602-1.6348-3.5332-2.1006-0.51856 4.0781-1.415 6.6797-0.61523 1.8193-1.5293 3.4365-1.3184 2.3027-2.9971 2.3027-1.248 0-2.2236-1.125-0.62402-0.71191-1.0107-1.749-0.50976-1.3447-0.50976-2.8916 0-2.5049 1.3799-4.6143 1.3975-2.1533 3.6299-3.1289 1.626-0.71191 3.5684-0.71191 3.0322 0 5.1504 1.626 2.6016 1.9951 2.6016 5.6514 0 6.126-6.1963 7.7695zm-1.3184-11.549q-1.5557 0.17578-2.6016 0.83496-0.66797 0.43066-1.3272 1.1426-1.8281 2.0215-1.8281 4.6846 0 1.9424 0.77343 3.041 0.47461 0.67676 0.94043 0.67676 0.63282 0 1.4238-1.3975 1.9336-3.4014 2.6191-8.9824z"></path>
  <path d="m117.78 17.059h4.1045q0.24609-1.0898 0.55371-2.8213l1.9863 0.24609q-0.26368 1.3623-0.5625 2.5752h5.8535v1.749h-6.2666q-1.7578 7.0225-3.8848 11.646l-1.9424-0.68555q2.3115-5.124 3.8496-10.96h-3.6914zm15.557 12.929q-1.4238 0.18457-3.1992 0.18457-2.874 0-4.3418-0.49219-0.5625-0.19336-0.95801-0.54492-0.77344-0.70312-0.77344-1.793 0-1.1162 0.72071-1.9688l1.5644 0.92285q-0.27246 0.34277-0.27246 0.75586 0 0.71191 0.65039 0.92285 0.99316 0.31641 2.8301 0.31641 1.7842 0 3.5596-0.26367zm-8.2441-8.71q3.4453-0.39551 7.541-0.42188l0.0879 1.7842q-4.0166 0.01758-7.374 0.37793z"></path>
  <path d="m139.06 15.222q0.27246 1.2393 0.80859 3.0674 2.1094-1.1514 4.667-1.2129 0.22852-1.2832 0.37793-2.6279l1.9424 0.37793q-0.19336 1.3887-0.3955 2.4521 1.9336 0.45703 3.0938 1.5645 1.8369 1.7666 1.8369 4.5615 0 3.3838-2.1797 5.0625-1.6172 1.248-3.9726 1.626l-0.92286-1.6348q2.3203-0.43945 3.6211-1.4854 1.4238-1.1426 1.4238-3.6826 0-1.8545-1.0811-3.0938-0.77344-0.8877-2.1445-1.3008-0.65918 2.7422-1.3447 4.3154-0.93164 2.1533-2.5137 3.8672-2.1357 2.3115-3.9726 2.3115-1.4414 0-2.1621-1.4062-0.50977-1.0107-0.50977-2.4521 0-3.5156 2.707-6.1084-0.49219-1.5381-0.98437-3.5684zm-0.10547 5.9766q-1.5469 1.9512-1.5469 4.1396 0 0.99316 0.28125 1.6084 0.27246 0.60644 0.79981 0.60644 0.91406 0 2.4785-1.7402-1.0898-1.9775-2.0127-4.6143zm5.2559-2.5137q-2.0918 0.11426-3.8145 1.2217 0.83496 2.4785 1.7842 4.2803 1.3799-2.2236 2.0303-5.502z"></path>
 </g>
</svg>
