<svg xmlns="http://www.w3.org/2000/svg" viewBox="0 0 224 260" version="1.1" height="260" width="224"><path style="paint-order:stroke markers fill" stroke-width="12" stroke-linejoin="round" stroke-linecap="round" stop-color="#000000" fill-rule="evenodd" fill-opacity=".8" fill="#1d2a41" d="m10 0h204c5.54 0 10 4.46 10 10v240c0 5.54-4.46 10-10 10h-204c-5.54 0-10-4.46-10-10v-240c0-5.54 4.46-10 10-10z"></path><g fill="#fff" transform="translate(0 -43.99912)"><g aria-label="キャンセル" transform="translate(-.00118 49.00066)"><path d="m51.656 84.465 0.92188 5.6719 10.812-0.75 0.23438 3.2031-10.5 0.73438 1.0312 6.2812 11.422-0.82812 0.25 3.1875-11.172 0.875 1.6406 9.8438-3.6875 0.45312-1.625-10.016-12.938 1-0.25-3.2969 12.641-0.9375-1.0312-6.2969-10.141 0.70312-0.21875-3.2344 9.8281-0.67188-0.90625-5.5z"></path><path d="m77.906 89.558 0.96875 5.3125 11.516-1.8594 1.9844 1.4688q-1.7812 7.3594-6.25 11.516l-2.5469-2.0469q2-1.625 3.375-3.9062 1.0938-1.7969 1.5156-3.5781l-9.0625 1.5 2.5938 14.594-3.2031 0.57812-2.6562-14.656-6.5156 1.0938-0.45312-3.1719 6.4062-1.0312-0.96875-5.2656z"></path><path d="m107.75 93.105q-4.9375-2.2031-10.266-3.5312l1.0938-3.3594q6.1719 1.4062 10.359 3.5zm-9.875 15.547q7.7344-0.65625 11.844-2.7656 4.8438-2.5 7.4375-7.6719 1.6875-3.3438 2.7344-8.75l3 2.2031q-1.2656 5.7812-3.0625 9.1875-3.25 6.2031-9.9375 8.9844-4.2188 1.75-11.281 2.5z"></path><path d="m132.38 84.715h3.5781v7.3594l15.016-2.0156 1.9531 1.9531q-1.7344 4.8438-4.2031 7.8281-1.6875 2.0469-4 3.4688l-2.7188-2.2656q2.7188-1.5156 4.625-3.9844 1.3281-1.7188 1.9375-3.5469l-12.609 1.8281v10.781q0 1.8594 1.2812 2.2188 1.1094 0.32812 4.9062 0.32812 4.3125 0 8.9531-0.46875v3.5625q-4.2344 0.3125-8.7344 0.3125-6.2344 0-7.75-0.625-2.2344-0.90625-2.2344-4.3281v-11.266l-6.5625 0.95312-0.34375-3.3281 6.9062-0.92188z"></path><path d="m162.66 86.168h3.5156v5.6875q0 8.1719-1.2188 11.937-1.6094 4.9844-6.75 8.3125l-2.3906-2.7812q3.5625-2.5 5.0156-5.1875 1.2188-2.2656 1.6094-6.0781 0.21875-2.1562 0.21875-6.1406zm8-0.90625h3.5156v22.203q3.1094-1.6094 5.4531-4.5781 2.5625-3.25 3.8281-7.7031l2.75 2.6562q-1.5625 4.6406-4.2812 7.9219-3.4219 4.1406-8.9688 6.5156l-2.2969-1.9844z"></path></g><g aria-label="この地震情報は
取り消されました"><path d="m55.5962 178.8807h10.15186v1.80127h-10.15186zm11.39697 12.7666q-2.681153 0.40674-5.694336 0.40674-3.096192 0-4.972168-0.58105-0.730469-0.22412-1.353028-0.71387-0.954589-0.76367-0.954589-2.1167 0-1.70166 1.311523-2.97998l1.444336 0.95459q-0.796875 0.93799-0.796875 1.76807 0 0.92968 1.120605 1.31982 0.597657 0.21582 1.900879 0.34863 1.079102 0.11621 2.232911 0.11621 2.913574 0 5.503417-0.42334zm10.71631-0.88818q4.872559-1.22852 4.872559-5.58643 0-1.90087-0.979492-3.2705-1.095703-1.54395-3.336914-1.98389-0.489746 3.85156-1.336426 6.30859-0.581055 1.71827-1.444336 3.24561-1.245117 2.1748-2.830566 2.1748-1.178711 0-2.100098-1.0625-0.589356-0.67236-0.95459-1.65185-0.481445-1.27002-0.481445-2.73096 0-2.36572 1.303222-4.35791 1.319825-2.03369 3.428223-2.95508 1.535645-0.67236 3.370117-0.67236 2.86377 0 4.864258 1.53564 2.457031 1.88428 2.457031 5.33741 0 5.78564-5.852051 7.33789zm-1.245117-10.90723q-1.469238 0.16602-2.457031 0.78858-0.63086 0.40674-1.253418 1.0791-1.726563 1.90918-1.726563 4.42432 0 1.83447 0.730469 2.87207 0.448242 0.63916 0.888184 0.63916 0.597656 0 1.344726-1.31983 1.826172-3.2124 2.473633-8.4834zm17.60596 4.00098v6.57422q0 0.63916 0.547852 0.77197 0.564453 0.14111 2.581543 0.14111 1.967285 0 2.598144-0.19921 0.356931-0.11621 0.464841-0.64746 0.14112-0.74708 0.14942-1.76807l1.73486 0.48974q-0.13281 2.44874-0.67236 3.1294-0.35694 0.44824-1.0791 0.53125-1.137212 0.12451-3.859868 0.12451-2.108398 0-2.76416-0.11621-0.987793-0.16602-1.253418-0.87158-0.132812-0.37354-0.132812-0.9961v-6.58252l-1.58545 0.54786-0.390136-1.61036 1.975586-0.68066v-4.47412h1.685058v3.89307l1.784668-0.60596v-4.37451h1.668457v3.79345l2.780765-0.95459 0.87158 0.53125v6.21729q0 0.64746-0.30713 0.96289-0.34863 0.34863-1.17041 0.34863-0.672363 0-1.427735-0.11621l-0.273925-1.58545q0.489746 0.12451 0.996093 0.12451 0.365235 0 0.448243-0.14941 0.08301-0.12451 0.08301-0.41504v-3.92627l-2.000488 0.69727v6.71533h-1.668457v-6.14258zm-6.101074-2.71436v-4.00927h1.784668v4.00927h1.610351v1.68506h-1.610351v5.2793q0.871582-0.29883 1.726562-0.62256l0.157715 1.60205q-2.689453 1.22852-5.520019 2.0586l-0.581055-1.76807q1.27832-0.33203 2.241211-0.63086 0.116211-0.0415 0.190918-0.0581v-5.86035h-2.108399v-1.68506zm21.96386-1.76806v-0.71387h-5.18799v-1.18701h12.25196v1.18701h-5.2959v0.71387h6.87305v2.97998h-1.80127v-1.90918h-5.07178v3.229h-1.76807v-3.229h-4.98047v1.90918h-1.78466v-2.97998zm5.87696 11.77881q1.27002 0.48144 3.17089 0.76367l-0.97119 1.41113q-2.66455-0.45654-4.37451-1.56885-1.70166-1.1123-2.64795-2.76416h-1.83447v2.55664q1.83447-0.25732 3.40332-0.54785l0.11621 1.23682q-2.92187 0.69726-6.68213 1.21191l-0.48974-1.46093q1.30322-0.14112 1.78466-0.19922l0.0996-0.0166v-2.78077h-1.81787q-0.11621 1.46094-0.38183 2.33252-0.31543 1.0459-1.0127 1.95069l-1.47754-1.22022q0.81348-1.0542 1.0127-2.46533 0.10791-0.76367 0.10791-1.90088v-3.51953h14.32715v1.104h-12.54248v2.54834h13.25634v1.17041h-1.88427l1.05419 0.69727q-0.93798 0.78027-2.2163 1.46094zm-1.29493-0.63916q1.19532-0.81348 1.90088-1.51905h-3.62744q0.71387 0.91309 1.72656 1.51905zm-8.83203-9.45459h3.53614v0.93799h-3.53614zm0 1.52734h3.53614v0.95459h-3.53614zm6.73194-1.52734h3.64404v0.93799h-3.64404zm0 1.52734h3.64404v0.95459h-3.64404zm-5.82715 3.38672h10.33447v1.0874h-10.33447zm16.95019-5.67774v12.99073h-1.73486v-16.15332h1.73486v2.51513l0.79688-0.66406q0.72217 1.25342 1.14551 2.41553l-1.12891 1.1206q-0.43994-1.40283-0.81348-2.22461zm7.64502-2.05859h4.29981v1.24512h-4.29981v0.79687h3.71045v1.18702h-3.71045v0.82177h4.84766v1.32813h-11.18945v-1.32813h4.62353v-0.82177h-3.60254v-1.18702h3.60254v-0.79687h-4.09228v-1.24512h4.09228v-1.104h1.71826zm3.45313 6.25879v7.28809q0 0.76367-0.36524 1.1123-0.35693 0.34033-1.22021 0.34033-1.021 0-2.1001-0.14111l-0.24072-1.49414q1.104 0.13281 1.75146 0.13281 0.33203 0 0.39844-0.16601 0.0415-0.0996 0.0415-0.30713v-1.0708h-5.09667v3.09619h-1.73487v-8.79053zm-6.83154 1.22022v0.97119h5.09667v-0.97119zm0 2.1914v1.021h5.09667v-1.021zm-8.35059-2.1084q0.37353-1.72656 0.53955-4.46582l0.0415-0.68066 1.41114 0.13281q-0.0996 3.55274-0.58106 5.76904zm20.67725-6.93115v-1.73486h1.73486v1.73486h2.58154v1.46094h-2.58154v1.42773h2.93848v1.47754h-0.9878q-0.26562 0.98779-0.71387 2.0918h1.60206v1.44433h-2.83887v1.53565h2.73096v1.47754h-2.73096v3.50293h-1.73486v-3.50293h-2.93018v-1.47754h2.93018v-1.53565h-3.06299v-1.44433h1.52734q-0.26562-1.10401-0.64746-2.0918h-1.22022v-1.47754h3.40333v-1.42773h-2.70606v-1.46094zm2.06689 4.36621h-2.63965q0.28223 0.78858 0.60596 2.0918h1.37793q0.43164-1.0625 0.65576-2.0918zm10.06885-5.50342v3.88477q0 0.72217-0.26563 1.021-0.31543 0.35693-1.31982 0.35693-0.97949 0-1.95899-0.083l-0.28222-1.49414q1.37793 0.14941 1.75146 0.14941 0.39014 0 0.39014-0.34033v-2.00049h-3.63574v4.82276h4.70654l0.98779 0.84668q-0.44824 2.63965-1.63525 4.71484l-0.0913 0.16602q0.91309 1.0542 2.28271 1.92578l-0.92968 1.55224q-1.31153-0.84668-2.34082-2.02539-0.88819 1.12891-2.00049 2.125l-0.97949-1.36132v1.29492h-1.68506v-15.55567zm-5.3208 7.81104v6.27539q1.02099-0.69727 1.96728-1.95899-1.27002-1.95898-1.78467-4.3164zm2.88867 2.84717q0.73877-1.42774 0.96289-2.84717h-2.1416q0.40674 1.59375 1.17871 2.84717zm14.43506-10.6416h1.81787v3.00488h3.38672v1.65185h-3.38672v5.09668q1.96728 0.90479 3.89306 2.54004l-0.92968 1.64356q-1.62696-1.41944-2.97998-2.25782-0.14942 2.0337-1.44434 2.72266-0.72217 0.38184-1.97559 0.38184-1.36132 0-2.36572-0.48975-1.51904-0.73877-1.51904-2.45703 0-1.35303 1.15381-2.1499 1.0542-0.73047 2.70605-0.73047 0.75537 0 1.64356 0.19092v-4.49073h-5.33741v-1.65185h5.33741zm0 10.75781q-0.97119-0.30713-1.72657-0.30713-0.72216 0-1.22851 0.22412-0.79688 0.34033-0.79688 1.1123 0 0.63086 0.58106 0.9878 0.56445 0.34863 1.51074 0.34863 1.66016 0 1.66016-1.86768zm-9.01465 3.99267q-0.29053-2.73925-0.29053-5.76074 0-4.71484 0.63086-8.98974l1.82617 0.26562q-0.62256 3.68555-0.62256 7.96875 0 3.146 0.31543 6.23389z"></path><path d="m54.97779 200.0311h6.424805l0.838378 0.85498q-0.340332 2.52344-0.871582 4.31641-0.581054 2.00049-1.643554 3.89307 1.336425 2.05029 3.021484 3.34521l-1.087402 1.88428q-1.718262-1.56055-2.963379-3.58594-1.004395 1.41113-1.80957 2.23291-0.830079 0.85498-1.809571 1.47754l-1.17041-1.60205q2.158203-1.22852 3.801758-3.84326-0.0332-0.0664-0.06641-0.12451-0.962891-1.92579-1.552246-4.59864-0.332032-1.50244-0.448243-2.56494h-0.971191v-1.0376h-0.796875v13.85401h-1.70166v-3.37842l-0.539551 0.13281q-2.498535 0.64746-4.78125 1.0542l-0.547852-1.76807q1.128907-0.14941 1.560547-0.21582v-9.67871h-1.220215v-1.61865h8.333985zm-2.805664 0.64746h-2.65625v1.98389h2.65625zm0 3.39502h-2.65625v2.00879h2.65625zm0 3.38672h-2.65625v2.63965q0.43164-0.0747 0.647461-0.10791 0.664062-0.10791 2.008789-0.35693zm5.080078-5.74414q0.340332 3.1377 1.427734 5.51172 1.16211-2.46533 1.651856-5.51172zm12.51758 4.2749q-0.830078 1.55225-1.70166 2.33252-0.74707 0.67237-1.369629 0.67237-0.796875 0-1.286621-1.07911-0.506348-1.1289-0.506348-3.53613 0-2.42383 0.564453-5.25439l1.817871 0.27392q-0.547851 2.80567-0.547851 4.74805 0 2.61475 0.373535 2.61475 0.141113 0 0.481445-0.39844 0.53125-0.59766 1.120606-1.75977zm-1.261719 6.49952q2.54834-0.71387 3.843262-2.13331 1.585449-1.73486 1.585449-5.24609 0-2.66455-0.514648-5.98486l1.900879-0.18262q0.547851 3.35352 0.547851 6.25049 0 4.69824-2.415527 6.76514-1.469238 1.26171-3.959473 2.09179zm25.42529-9.32178v9.71191q0 0.74707-0.265625 1.09571-0.340332 0.45654-1.394531 0.45654-1.187012 0-2.282715-0.12451l-0.340332-1.71827q1.203613 0.17432 1.942383 0.17432 0.381836 0 0.481445-0.16601 0.07471-0.11622 0.07471-0.36524v-2.1084h-6.300293v4.40772h-1.784668v-11.36377h3.992676v-4.78955h1.80127v4.78955zm-1.784668 1.44433h-6.300293v1.36133h6.300293zm0 2.72266h-6.300293v1.42773h6.300293zm-10.20996-4.94727q-1.145507-1.41943-2.822265-2.68115l1.253418-1.24511q1.734863 1.18701 2.805664 2.54833zm-0.614257 4.2002q-1.48584-1.72656-2.75586-2.69775l1.245117-1.27832q1.494141 1.02099 2.813965 2.58154zm-2.415528 6.47461q1.560547-2.1001 2.921875-5.38721l1.444336 1.12061q-1.187012 3.10449-2.822266 5.69433zm6.242188-10.25147q-0.556153-1.60205-1.58545-3.32861l1.651856-0.71387q0.771973 1.23682 1.527344 3.27881zm6.051269-0.55615q0.996094-1.71826 1.543946-3.61914l1.768066 0.69727q-0.672363 1.77636-1.784668 3.60254zm5.030274-0.59765h6.665526q-0.53955-1.41944-0.98779-2.82227l1.81787-0.11621q0.43164 1.47754 1.0376 2.93848h6.13427v1.70166h-5.354q1.0708 2.2163 2.68115 4.62353l-1.74316 0.83008q-1.77637-2.68945-2.91358-5.45361h-7.337886zm12.06934 12.24365q-1.65186 0.0913-2.92188 0.0913-3.45312 0-5.08837-0.53955-2.955082-0.96289-2.955082-3.63575 0-1.64355 1.020996-2.64795l1.560547 0.84668q-0.680665 0.67237-0.680665 1.75977 0 1.38623 1.494144 1.94238 1.31982 0.48975 4.41601 0.48975 1.31153 0 2.95508-0.12451zm7.81934-15.14893h1.83447v4.68994q1.97558-2.05029 3.1626-2.81396 1.104-0.71387 2.29101-0.71387 1.19531 0 1.92578 0.67237 0.96289 0.89648 0.96289 2.34912 0 0.38183-0.0996 1.01269-0.73046 4.64014-0.73046 6.42481 0 0.76367 0.39013 0.76367 0.24903 0 0.65576-0.28223 0.85498-0.58935 1.72657-1.93408l0.68066 1.90088q-0.53125 0.84668-1.31982 1.50244-0.91309 0.76367-1.95069 0.76367-0.98779 0-1.53564-0.68896-0.46485-0.58936-0.46485-1.96729 0-1.0459 0.27393-3.14599 0.34863-2.63965 0.46484-3.91797 0.0166-0.20752 0.0166-0.34864 0-0.73046-0.30713-1.1206-0.29053-0.37354-0.80518-0.37354-1.73486 0-5.3374 4.62354v7.83594h-1.83447v-5.74414q-1.38623 1.94238-2.55665 3.66894l-0.86328-1.96728q1.96729-2.38233 3.41993-4.54053v-2.1084h-2.91358v-1.66846h2.91358zm20.84326 0.0166h1.83447v2.0918h5.22119v1.57715h-5.22119v1.97559h4.93066v1.56054h-4.93066v2.56494q2.95508 0.9961 5.82715 2.99659l-0.97949 1.57714q-2.17481-1.62695-4.84766-2.87207-0.0664 1.41944-0.54785 2.19971-0.83838 1.35303-3.30371 1.35303-1.90088 0-3.05469-0.71387-1.28662-0.79687-1.28662-2.1582 0-1.62696 1.73486-2.40723 1.16211-0.51465 3.02149-0.51465 0.73047 0 1.60205 0.11621v-2.1416h-5.88526v-1.56054h5.88526v-1.97559h-6.24219v-1.57715h6.24219zm0 10.89063q-0.9878-0.20752-1.89258-0.20752-1.104 0-1.79297 0.32373-0.82178 0.39014-0.82178 1.1123 0 0.60596 0.63916 0.9795 0.64746 0.38183 1.72657 0.38183 1.27832 0 1.75976-0.68066 0.38184-0.53125 0.38184-1.58545zm10.6416-10.5835h1.95898v9.89453q0 3.1294 3.28711 3.1294 2.16651 0 3.55274-2.00049 0.89648-1.28662 1.61035-3.98437l1.68506 1.02099q-0.84668 2.99658-2.03369 4.48242-1.86768 2.31592-4.85596 2.31592-3.1211 0-4.39942-1.92578-0.80517-1.20361-0.80517-3.10449zm13.8042 2.25782h3.87646q0.23242-1.0293 0.52295-2.66456l1.87598 0.23243q-0.24902 1.28662-0.53125 2.43213h5.52832v1.65185h-5.91846q-1.66015 6.63233-3.66894 10.99854l-1.83448-0.64746q2.18311-4.83936 3.63575-10.35108h-3.48633zm14.69238 12.21044q-1.34473 0.17432-3.02148 0.17432-2.71436 0-4.10059-0.46484-0.53125-0.18262-0.90478-0.51465-0.73047-0.66406-0.73047-1.69336 0-1.0542 0.68066-1.85938l1.47754 0.87159q-0.25732 0.32373-0.25732 0.71386 0 0.67237 0.61425 0.87159 0.93799 0.29882 2.67285 0.29882 1.68506 0 3.36182-0.24902zm-7.78613-8.22607q3.2539-0.37353 7.12207-0.39844l0.083 1.68506q-3.79346 0.0166-6.96436 0.35694z"></path></g></g></svg>
