<?xml version="1.0" encoding="UTF-8"?>
<svg width="480" height="360" version="1.1" viewBox="0 0 480 360" xmlns="http://www.w3.org/2000/svg">
 <g fill="#fff" aria-label="鹿児島県東部">
  <path d="m245.18 187.08v-5.8398h2.041v1.6406h3.7012v1.6797h-3.7012v2.2168q2.4024-0.39062 3.8184-0.71289l0.0586 1.6406q-3.2227 0.91797-7.2949 1.4941l-0.56641-1.875q1.0449-0.11719 1.9434-0.24414zm5.9277-14.961h7.8516v1.6797h-5.5664v1.7188h4.8633v5.127h-14.58q-0.0586 3.0859-0.3125 4.8144-0.32226 2.207-1.2891 4.0234l-1.7969-1.4551q0.91797-1.8066 1.1719-4.2969 0.18555-1.8262 0.18555-4.9121v-6.6992h7.3047v-1.6211h2.168zm-7.4121 1.6797v1.7188h2.9004v-1.7188zm0 3.2812v2.002h2.9004v-2.002zm12.5 2.002v-2.002h-2.8027v2.002zm-7.5976-5.2832v1.7188h2.793v-1.7188zm0 3.2812v2.002h2.793v-2.002zm5.0976 6.2012q2.1191-0.72266 3.6621-1.6797l1.2988 1.582q-2.1973 1.0742-4.9609 1.8262v1.4844q0 0.58594 0.36133 0.68359 0.30274 0.0879 1.4356 0.0879 1.3574 0 1.5918-0.2832 0.21484-0.2539 0.3125-1.7383l0.0195-0.30273 2.002 0.53711q-0.0195 0.12695-0.0586 0.72265-0.14649 1.9043-0.84961 2.4609-0.69336 0.55664-3.4863 0.55664-1.9727 0-2.627-0.29297-0.72266-0.33203-0.72266-1.4258v-6.2598h2.0215z"/>
  <path d="m277.58 171.08v9.7266h-10.117v-9.7266zm-7.998 1.7578v2.2266h5.8594v-2.2266zm0 3.9062v2.3438h5.8594v-2.3438zm-6.9629-6.0449h2.2559v10.84h-2.2559zm-2.0606 17.041q2.5293-0.2539 4.1113-1.4355 1.084-0.81055 1.4453-2.1973 0.20508-0.80078 0.28321-2.3438h2.1582q-0.0293 3.6621-1.5918 5.4199-1.5234 1.709-5.1074 2.4414zm10.547-6.0352h2.1973v4.834q0 0.50782 0.32227 0.60547 0.3418 0.10742 1.3672 0.10742 1.1035 0 1.4746-0.11718 0.39062-0.12696 0.50781-0.77149 0.13672-0.66406 0.16601-2.041l2.2266 0.64453q-0.0391 0.37109-0.11719 1.3379-0.17578 2.0312-0.9082 2.5391-0.41016 0.27344-1.1816 0.3418-1.0644 0.0879-2.6074 0.0879-2.1387 0-2.793-0.38086-0.65429-0.39063-0.65429-1.5332z"/>
  <path d="m287.74 171.98q0.36133-0.86914 0.58594-1.6602l2.3828 0.32226q-0.34179 0.81055-0.625 1.3379h6.5039v6.3672h-11.797v0.98633h14.697v1.582h-14.697v0.99609h14.014q-0.12696 4.4727-0.56641 6.0352-0.2832 0.99609-1.0644 1.3184-0.55664 0.23437-1.6992 0.23437-1.1719 0-2.1875-0.14648l-0.39063-1.6406h-9.7852v1.084h-2.0996v-4.6973h2.0996v2.0117h3.3594v-2.6367h-3.8379v-11.494zm4.1504 14.131v-2.0117h2.0215v3.3984q0.81054 0.0781 1.3476 0.0781 0.66407 0 0.83008-0.38085 0.32227-0.7129 0.50781-3.7207h-8.0273v2.6367zm-7.0996-12.627v0.96679h9.6387v-0.96679zm0 2.3633v1.0644h9.6387v-1.0644z"/>
  <path d="m316.76 170.98v9.4629h-11.621v-9.4629zm-9.5215 1.543v1.2207h7.4023v-1.2207zm0 2.5977v1.2207h7.4023v-1.2207zm0 2.5976v1.2598h7.4023v-1.2598zm-3.9356 4.0234h16.191v1.6992h-8.0762v6.0644h-2.2168v-6.0644h-8.0371v-10.957h2.1387zm-2.5 5.8984q2.3242-1.0742 4.4434-3.6035l1.7969 1.0449q-2.0898 2.6465-4.6387 4.1602zm16.836 1.2598q-1.4941-1.8359-4.4922-3.8574l1.6797-1.1816q2.3535 1.3574 4.6191 3.5644z"/>
  <path d="m333.2 183.16q2.4219 2.1582 6.5234 3.4863l-1.2598 1.8359q-2.3633-0.83984-4.1211-2.0312-1.8164-1.2402-3.3496-3.0469v6.1035h-2.1192v-5.9961q-1.3574 1.9043-3.5058 3.418-1.6504 1.1621-3.5352 1.875l-1.3379-1.7188q3.0957-1.0254 5.166-2.7637 0.58594-0.48829 1.1914-1.1621h-4.6973v-7.998h6.7188v-1.3184h-8.0957v-1.7578h8.0957v-1.582h2.1192v1.582h8.2226v1.7578h-8.2226v1.3184h6.8457v7.998zm-4.3262-6.3574h-4.5996v1.582h4.5996zm2.1192 0v1.582h4.7266v-1.582zm-2.1192 3.1055h-4.5996v1.6113h4.5996zm2.1192 0v1.6113h4.7266v-1.6113z"/>
  <path d="m346.98 172.76h4.1797v1.8848h-1.377q-0.3711 1.4941-0.9961 3.1348h2.6074v1.8848h-10.898v-1.8848h2.3926q-0.39063-1.875-0.82032-3.1348h-1.2695v-1.8848h4.1406v-2.2559h2.041zm-2.9394 1.8848q0.49805 1.4551 0.77148 3.1348h1.9922l0.0977-0.27344q0.41992-1.1133 0.78125-2.5293l0.0879-0.33203zm6.0547 6.6602v7.998h-2.002v-0.95703h-4.2578v1.1621h-2.0605v-8.2031zm-6.2598 1.7969v3.3887h4.2578v-3.3887zm13.047-4.9316q1.1621 1.1035 1.8457 2.627 0.67383 1.5234 0.67383 3.0859 0 1.4453-0.53711 2.1289-0.55664 0.71289-1.8359 0.71289-1.0938 0-2.1191-0.15625l-0.47851-2.0801q1.1816 0.21485 1.9531 0.21485 0.58594 0 0.73242-0.27344 0.0977-0.19531 0.0977-0.78125 0-2.4121-1.4453-4.1602-0.38086-0.45898-0.95704-0.98633l0.11719-0.27343q1.0156-2.2949 1.582-4.7852h-2.5v16.064h-2.0215v-18.086h5.8789l1.084 0.99609q-0.98633 3.3594-2.0703 5.752z"/>
 </g>
</svg>
