<?xml version="1.0" encoding="UTF-8"?>
<svg width="480" height="360" version="1.1" viewBox="0 0 480 360" xmlns="http://www.w3.org/2000/svg">
 <g dominant-baseline="central" fill="#fff" aria-label="北海道利尻礼文">
  <path d="m245.84 184.3q-2.6953 1.416-4.6973 2.168l-0.82031-2.1484q3.1348-1.0547 5.5176-2.1875v-4.375h-4.834v-2.0606h4.834v-5.1953h2.1777v19.004h-2.1777zm6.9434-7.6074q2.2754-1.1914 4.4141-3.0273l1.6211 1.6992q-2.8906 2.0508-6.0352 3.4961v7.3242q0 0.47852 0.3125 0.58594 0.33203 0.10742 1.5332 0.10742 1.582 0 1.9824-0.18555 0.2832-0.12695 0.39062-0.79101 0.14649-0.92774 0.21485-2.998l2.1875 0.67383q-0.0977 2.5293-0.3125 3.6328-0.24414 1.2305-1.2793 1.5918-0.98633 0.33203-3.2324 0.33203-2.6367 0-3.3203-0.43945-0.6543-0.42969-0.6543-1.6504v-16.543h2.1777z" dominant-baseline="central"/>
  <path d="m277.76 175.8q0 0.45899-0.0879 4.3555h1.8652v1.7578h-1.9043q-0.0293 1.2793-0.12695 2.9004h1.6504v1.7188h-1.7774q-0.11719 1.416-0.32226 1.875-0.45899 1.0938-2.2266 1.0938-1.1328 0-2.0898-0.16601l-0.36133-1.7383q1.377 0.19531 2.1094 0.19531 0.5957 0 0.71289-0.41992 0.0586-0.20508 0.10742-0.83985h-6.9531q-0.01 0.0781-0.0293 0.16602-0.0879 0.51758-0.16602 0.97656l-2.0215-0.19531q0.5957-3.5254 0.80078-5.332l0.0293-0.23438h-1.9531v-1.7578h2.1582q0.27344-2.3633 0.46875-4.3555zm-6.1719 1.6992h-2.1387q-0.0293 0.49805-0.17578 2.0996l-0.0586 0.55664h2.168l0.0293-0.27344q0.0195-0.2832 0.0586-0.79101 0.0977-1.3672 0.11719-1.5918zm1.9238 0q-0.0488 1.1621-0.14648 2.5684v0.0879h2.2949q0.0391-1.3379 0.0684-2.6562zm-2.2852 4.4141h-2.1973q-0.14648 1.1914-0.3125 2.3535l-0.0781 0.54687h2.2852q0.23438-2.1191 0.30274-2.9004zm2.002 0q-0.0293 0.39063-0.11719 1.2891l-0.15625 1.6113h2.4902q0.0488-0.94726 0.0781-1.4258 0.0586-1.0449 0.0781-1.4746zm-3.8281-9.6387h9.4336v1.8164h-10.244q-0.79102 1.6113-2.0117 3.0664l-1.3965-1.5234q1.9238-2.2559 2.7344-5.1953l2.0801 0.21485q-0.35156 1.0156-0.5957 1.6211zm-5.3809 2.8418q-1.2012-1.6504-2.9199-3.0957l1.4746-1.4258q1.5918 1.1719 3.0274 2.959zm-0.70313 5.1562q-1.4844-1.9043-2.998-3.1934l1.5234-1.4648q1.6992 1.3379 3.0566 3.0469zm-2.6562 7.666q1.6992-2.3535 3.2227-6.2012l1.7383 1.2402q-1.2695 3.5547-3.2617 6.5234z" dominant-baseline="central"/>
  <path d="m285.22 184.92q1.0059 1.1914 2.4316 1.6992 1.4746 0.51758 3.9453 0.51758h8.2031q-0.3711 0.91797-0.60547 1.9434h-8.0957q-3.291 0-4.9707-1.0254-0.77148-0.46875-1.6406-1.4062-1.3184 1.6504-2.9883 2.9102l-1.2012-1.9629q1.4941-0.85938 2.8418-2.0312v-4.9805h-2.6465v-1.9238h4.7266zm6.1621-10.469h-5.3027v-1.6797h3.1152q-0.52735-0.85938-1.1133-1.6406l1.9336-0.70312q0.83008 1.2402 1.3086 2.3438h2.5q0.39063-0.79102 0.94727-2.3633l2.1875 0.45898q-0.44922 0.98633-1.0059 1.9043h3.2617v1.6797h-5.752q-0.24414 0.75196-0.51758 1.4453h5.0293v10.078h-10.674v-10.078h3.623q0.26368-0.75196 0.45899-1.4453zm-2.0606 2.8613v1.4648h6.6113v-1.4648zm0 2.7832v1.4844h6.6113v-1.4844zm0 2.8613v1.5332h6.6113v-1.5332zm-5.4883-7.1582q-1.4062-2.2266-2.998-3.7598l1.6211-1.2793q1.875 1.7383 3.1055 3.5938z" dominant-baseline="central"/>
  <path d="m304.7 181.36q-0.0195 0.0488-0.0586 0.12695-1.0938 2.5781-2.9004 4.7363l-1.2988-2.002q2.7148-2.7344 3.9453-6.1621h-3.6328v-1.8555h3.9453v-2.5781q-1.25 0.2539-2.8223 0.43945l-0.89844-1.7188q4.3262-0.53711 7.8418-1.7578l1.1621 1.6602q-1.3574 0.46875-3.1836 0.92774v3.0273h3.7012v1.8555h-3.7012v1.4648q1.8848 1.0742 3.7207 2.8418l-1.2207 1.8359q-1.0058-1.1621-2.5-2.5293v7.832h-2.0996zm6.9434-8.623h2.041v11.562h-2.041zm4.5801-1.8359h2.0801v16.24q0 1.0547-0.41992 1.5332-0.48828 0.56641-1.9141 0.56641-1.7285 0-3.3106-0.17578l-0.39063-2.207q1.6113 0.2832 3.3692 0.2832 0.42968 0 0.52734-0.30273 0.0586-0.16602 0.0586-0.45899z" dominant-baseline="central"/>
  <path d="m337.71 171.36v5.6836h-13.34v1.7578q0 4.082-0.42969 6.3184-0.42969 2.2168-1.6504 4.2676l-1.7383-1.6016q1.2109-2.2949 1.5039-5.0879 0.15625-1.4941 0.15625-3.5547v-7.7832zm-2.1777 1.7578h-11.162v2.2266h11.162zm-4.1016 6.7871h4.3848l-0.40039 6.6797-0.01 0.0977q-0.0195 0.3125 0.21484 0.42968 0.21484 0.10743 0.9082 0.10743 0.6836 0 0.82032-0.14649 0.26367-0.26367 0.36132-2.4316l0.0195-0.36133 1.8652 0.60547q-0.01 1.9238-0.17578 2.5977-0.29297 1.2402-1.1719 1.5234-0.51758 0.16601-2.0117 0.16601-1.6602 0-2.2168-0.2539-0.71289-0.32227-0.71289-1.2695 0-0.0684 0.01-0.18554l0.32227-5.8594h-2.4414q-0.70312 5.8203-6.1035 7.7539l-1.2207-1.6211q2.4805-0.83007 3.7793-2.4609 1.123-1.416 1.4746-3.5547l0.0195-0.11719h-3.9551v-1.6992h4.1797l0.14648-2.4219h2.0703z" dominant-baseline="central"/>
  <path d="m346.55 179.2q2.0117 1.2695 3.5449 2.6465l-1.2207 1.9141q-1.2402-1.2793-2.6562-2.5293v8.2715h-2.0996v-7.7539q-1.2891 1.1719-2.6172 2.0508l-1.2402-1.7188q4.043-2.7441 6.416-6.3379h-5.7129v-1.9629h3.1543v-3.2812h2.1191v3.2812h2.4414l0.9375 1.0254q-1.2891 2.2754-3.0664 4.3945zm4.3359-8.5254h2.1582v15.42q0 0.50781 0.3125 0.625 0.28321 0.10742 1.2793 0.10742 1.543 0 1.8945-0.17578 0.26367-0.12695 0.40039-0.88867 0.10743-0.625 0.20508-2.5684l0.0293-0.5957 2.1191 0.71289q-0.10742 2.7832-0.36133 3.8476-0.30273 1.3184-1.3477 1.6309-0.78125 0.23438-2.9004 0.23438-2.5195 0-3.1543-0.36133-0.63477-0.37109-0.63477-1.5332z" dominant-baseline="central"/>
  <path d="m371.77 183.55q2.7637 2.0703 7.6855 3.6035l-1.1621 2.1582q-4.7168-1.6113-7.8711-4.0723-0.10742-0.0879-0.17578-0.13672-3.2129 2.8906-8.4082 4.3262l-1.2402-1.9629q2.9785-0.65429 5.6348-2.207 1.3672-0.80078 2.3438-1.6211-3.2031-3.2031-4.7852-7.8223l-0.0684-0.18554h-2.8418v-2.0215h7.9199v-3.1152h2.2559v3.1152h8.0566v2.0215h-3.0859q-1.2109 4.3555-4.2578 7.9199zm-1.6504-1.3965q2.5684-2.9785 3.5938-6.5234h-7.6953q1.3184 3.7891 4.1016 6.5234z" dominant-baseline="central"/>
 </g>
</svg>
