<svg version="1.1" xmlns="http://www.w3.org/2000/svg" xmlns:xlink="http://www.w3.org/1999/xlink" width="208" height="32" viewBox="0,0,208,32"><g transform="translate(-240,-164)"><g data-paper-data="{&quot;isPaintingLayer&quot;:true}" fill-rule="nonzero" stroke="none" stroke-linecap="butt" stroke-linejoin="miter" stroke-miterlimit="10" stroke-dasharray="" stroke-dashoffset="0" style="mix-blend-mode: normal"><path d="M240,196v-32h208v32z" fill="none" stroke-width="0"/><path d="M248.84,174.08v-3.584h2.1973v3.584h7.2461v10.332h-2.1582v-1.3574h-5.0879v6.4453h-2.1973v-6.4453h-4.9609v1.4648h-2.1582v-10.439zM243.8791,176.082v4.9707h4.9609v-4.9707zM256.1251,181.0527v-4.9707h-5.0879v4.9707z" fill="#ffffff" stroke-width="1"/><path d="M271.84,182.12c0.74867,1.23047 1.74477,2.2884 2.9883,3.1738c1.15887,0.82033 2.67253,1.49417 4.541,2.0215l-1.2305,2.0215c-3.737,-1.21093 -6.39977,-3.29753 -7.9883,-6.2598c-0.49479,1.30207 -1.28905,2.4902 -2.3828,3.5644c-0.86587,0.85287 -1.90427,1.52993 -3.1152,2.0312c-0.6966,0.27995 -1.57877,0.56316 -2.6465,0.84961l-1.1816,-1.8262c2.2656,-0.46875 4.1048,-1.36718 5.5176,-2.6953c0.89847,-0.85287 1.59183,-1.81317 2.0801,-2.8809h-7.9199v-1.9434h2.3047v-6.416h6.0742v-3.2617h2.1191v3.2617h6.2012v6.416h2.3047v1.9434zM268.881,175.6454h-3.9551v4.5312h3.9551zM271.0001,175.6454v4.5312h4.082v-4.5312z" fill="#ffffff" stroke-width="1"/><path d="M280.76,172.5h15.303l1.2598,1.0644c-0.36459,1.36067 -0.83985,2.49673 -1.4258,3.4082c-1.10027,1.72527 -2.7474,3.01433 -4.9414,3.8672l-1.2305,-1.6797c1.51693,-0.45573 2.7767,-1.2728 3.7793,-2.4512c0.59245,-0.6966 1.00585,-1.43227 1.2402,-2.207h-13.984zM287.0198,176.7188h2.2363v1.6797c0,2.51953 -0.27995,4.46613 -0.83984,5.8398c-0.7096,1.7448 -2.0898,3.16407 -4.1406,4.2578l-1.6113,-1.6992c1.41273,-0.67053 2.44463,-1.4713 3.0957,-2.4023c0.5013,-0.72267 0.83008,-1.48763 0.98633,-2.2949c0.18229,-0.92447 0.27343,-2.1647 0.27343,-3.7207z" fill="#ffffff" stroke-width="1"/><path d="M306.79,175.67c-1.9206,-0.8594 -3.88023,-1.5788 -5.8789,-2.1582l0.63477,-1.9336c2.2526,0.55989 4.2285,1.24349 5.9277,2.0508zM304.788,180.67c-1.6016,-0.70313 -3.56123,-1.42253 -5.8789,-2.1582l0.83984,-1.9531c1.9922,0.52735 3.9258,1.22721 5.8008,2.0996zM300.1689,186.0509c2.51953,-0.20183 4.51823,-0.56316 5.9961,-1.084c3.80207,-1.34767 6.23047,-4.4043 7.2852,-9.1699l2.002,1.2012c-0.86587,3.65233 -2.48047,6.37043 -4.8438,8.1543c-1.54947,1.17187 -3.47003,2.0052 -5.7617,2.5c-1.10027,0.24089 -2.45117,0.4362 -4.0527,0.58594zM312.5319,174.7519c-0.41667,-1.02867 -1.084,-2.1745 -2.002,-3.4375l1.543,-0.55664c0.8268,1.1198 1.49087,2.2526 1.9922,3.3984zM315.4909,174.21479c-0.54037,-1.28253 -1.19467,-2.4414 -1.9629,-3.4766l1.4453,-0.46875c0.77473,0.8984 1.4323,1.99867 1.9727,3.3008z" fill="#ffffff" stroke-width="1"/><path d="M317.99,172.5h15.303l1.2598,1.0644c-0.36458,1.36067 -0.83985,2.49673 -1.4258,3.4082c-1.10027,1.72527 -2.7474,3.01433 -4.9414,3.8672l-1.2305,-1.6797c1.51693,-0.45573 2.7767,-1.2728 3.7793,-2.4512c0.59245,-0.6966 1.00585,-1.43227 1.2402,-2.207h-13.984zM324.2498,176.7188h2.2363v1.6797c0,2.51953 -0.27995,4.46613 -0.83984,5.8398c-0.7096,1.7448 -2.0898,3.16407 -4.1406,4.2578l-1.6113,-1.6992c1.41273,-0.67053 2.44463,-1.4713 3.0957,-2.4023c0.5013,-0.72267 0.83008,-1.48763 0.98633,-2.2949c0.18229,-0.92447 0.27344,-2.1647 0.27344,-3.7207z" fill="#ffffff" stroke-width="1"/></g></g></svg>