<svg version="1.1" xmlns="http://www.w3.org/2000/svg" xmlns:xlink="http://www.w3.org/1999/xlink" width="224" height="250" viewBox="0,0,224,250"><g transform="translate(-128,-180)"><g data-paper-data="{&quot;isPaintingLayer&quot;:true}" stroke-miterlimit="10" stroke-dasharray="" stroke-dashoffset="0" style="mix-blend-mode: normal"><path d="M352,180v250h-224v-250z" fill="#1d2a41" fill-rule="evenodd" stroke="none" stroke-width="1" stroke-linecap="butt" stroke-linejoin="miter"/><g fill="#ffffff" fill-rule="nonzero" stroke="none" stroke-width="1" stroke-linecap="butt" stroke-linejoin="miter"><g><path d="M147.35,356.4h4.9561v1.2168h-1.9346c-0.22787,0.71547 -0.47852,1.374 -0.75196,1.9756h3.6846v1.2441h-13.303v-1.2441h3.5889c-0.18685,-0.63347 -0.43978,-1.292 -0.75879,-1.9756h-1.8389v-1.2168h4.8604v-1.2715h1.4971zM144.4447,357.6168c0.26888,0.6152 0.50586,1.27373 0.71094,1.9756h2.9326c0.26888,-0.6244 0.49902,-1.28293 0.69043,-1.9756zM151.1713,361.7799v6.6513h-1.5244v-0.7177h-6.0088v0.7177h-1.5107v-6.6513zM143.6381,362.942v1.1894h6.0088v-1.1894zM143.6381,365.2252v1.3125h6.0088v-1.3125z"/><path d="M155.19,357h3.6846c0.4056,-0.64713 0.71322,-1.16893 0.92286,-1.5654l1.5244,0.2187c-0.13672,0.24613 -0.37826,0.64717 -0.72461,1.2031l-0.0889,0.1436h4.8193v1.3467h-5.7285c-0.597,0.82027 -1.16667,1.5312 -1.709,2.1328c0.86133,-0.515 1.64747,-0.7725 2.3584,-0.7725c1.10287,0 1.8252,0.55373 2.167,1.6612c1.16667,-0.3874 2.35613,-0.77023 3.5684,-1.1485l0.58789,1.3262l-0.23926,0.068l-0.67676,0.1777c-1.27607,0.34633 -2.2969,0.64257 -3.0625,0.8887c0.05467,0.5924 0.0934,1.358 0.11621,2.2968l-1.4971,0.082c-0.00467,-0.54233 -0.01377,-1.13023 -0.0273,-1.7637v-0.1367c-2.09633,0.71547 -3.1445,1.4355 -3.1445,2.1601c0,0.37373 0.26888,0.62897 0.80664,0.7657c0.51953,0.13213 1.44923,0.1982 2.7891,0.1982c1.235,0 2.53153,-0.07063 3.8896,-0.2119l0.16406,1.456c-1.31707,0.10027 -2.68197,0.1504 -4.0947,0.1504c-1.74087,0 -2.97817,-0.13217 -3.7119,-0.3965c-0.90693,-0.32807 -1.3604,-0.91823 -1.3604,-1.7705c0,-0.72 0.32129,-1.35573 0.96387,-1.9072c0.66537,-0.56967 1.8366,-1.15757 3.5137,-1.7637c-0.09115,-0.35087 -0.21191,-0.59693 -0.3623,-0.7382c-0.16862,-0.15953 -0.39193,-0.2393 -0.66993,-0.2393c-0.45117,0 -1.01853,0.1709 -1.7021,0.5127c-0.84307,0.41927 -1.7477,1.05047 -2.7139,1.8936l-0.90918,-1.0391c1.41733,-1.31707 2.52703,-2.61133 3.3291,-3.8828h-2.7822z"/><path d="M172.28,356.2v9.4473h-2.7139v1.1348h-1.2578v-10.582zM169.5661,357.5467v6.7539h1.4697v-6.7539zM175.5134,356.2821c0.11849,-0.3236 0.23697,-0.75653 0.35546,-1.2988l1.5244,0.2187c-0.12305,0.35547 -0.27344,0.7155 -0.45117,1.0801h3.165v4.2656h-5.6396v0.6494h6.8975v1.0801h-6.8975v0.6426h6.5625c-0.05013,2.2604 -0.15039,3.7119 -0.30078,4.3545c-0.09571,0.4056 -0.25749,0.69497 -0.48536,0.8681c-0.23697,0.17773 -0.63344,0.2666 -1.1894,0.2666c-0.55599,0 -1.04132,-0.025 -1.456,-0.075l-0.27344,-1.3125c0.53776,0.07293 1.04363,0.1094 1.5176,0.1094c0.26432,0 0.43294,-0.07063 0.50586,-0.2119c0.11849,-0.2324 0.22102,-1.17577 0.30761,-2.8301l0.007,-0.1025h-6.5693v-7.7041zM174.4675,357.2596v0.7041h4.2656v-0.7041zM174.4675,358.8729v0.7246h4.2656v-0.7246zM174.67941,367.6229c-0.03647,-1.1074 -0.12533,-2.09177 -0.2666,-2.9531l0.96387,-0.1983c0.24153,0.9388 0.39192,1.8776 0.45117,2.8164zM172.04761,367.3563c0.41927,-0.8932 0.69954,-1.8548 0.84082,-2.8848l1.1211,0.2256c-0.15039,1.3672 -0.38965,2.46323 -0.71777,3.2881zM176.56621,367.1717c-0.18685,-1.01627 -0.39648,-1.88443 -0.62891,-2.6045l0.88184,-0.3076c0.30989,0.6836 0.58105,1.5153 0.81348,2.4951zM178.30251,366.5428c-0.18685,-0.67447 -0.45801,-1.37857 -0.81348,-2.1123l0.82715,-0.376c0.38281,0.60613 0.68132,1.2624 0.89551,1.9688z"/><path d="M190.96,358.3c-1.7272,-0.7656 -3.67317,-1.3535 -5.8379,-1.7637l0.57422,-1.2168c2.22393,0.41473 4.18813,0.9548 5.8926,1.6202zM183.1602,363.3108c0.18685,-2.1784 0.46712,-4.07653 0.84082,-5.6944l1.4697,0.2735c-0.34635,1.44007 -0.56966,2.789 -0.66993,4.0468c0.66081,-0.50587 1.42188,-0.90917 2.2832,-1.2099c0.82487,-0.29167 1.59503,-0.4375 2.3105,-0.4375c1.07093,0 1.94593,0.20733 2.625,0.622c0.90693,0.5606 1.3604,1.4584 1.3604,2.6934c0,1.21227 -0.41243,2.15107 -1.2373,2.8164c-1.153,0.9206 -3.1582,1.42873 -6.0156,1.5244l-0.54688,-1.415c1.90953,-0.00667 3.3633,-0.1844 4.3613,-0.5332c1.20767,-0.41927 1.8115,-1.21907 1.8115,-2.3994c0,-0.7474 -0.2666,-1.3034 -0.7998,-1.668c-0.42383,-0.29167 -0.97983,-0.4375 -1.668,-0.4375c-0.9798,0 -2.03253,0.3213 -3.1582,0.9639c-0.68813,0.39193 -1.30337,0.86817 -1.8457,1.4287z"/><path d="M202.25,355.4h1.5381v1.8867h4.0332v1.3193h-4.0332v2.9258c0.15951,0.56053 0.23926,1.05957 0.23926,1.4971c0,1.6224 -0.35773,2.81413 -1.0732,3.5752c-0.77933,0.834 -1.95283,1.4105 -3.5205,1.7295l-0.7793,-1.1621c1.2168,-0.23247 2.11913,-0.5606 2.707,-0.9844c0.55143,-0.40107 0.92283,-0.94567 1.1142,-1.6338c-0.48763,0.5332 -1.06869,0.7998 -1.7432,0.7998c-0.75653,0 -1.3695,-0.2142 -1.8389,-0.6426c-0.55143,-0.50587 -0.82715,-1.2396 -0.82715,-2.2012c0,-0.5058 0.12077,-0.9934 0.36231,-1.4628c0.15951,-0.3008 0.35547,-0.55147 0.58789,-0.752c0.53776,-0.45573 1.18263,-0.6836 1.9346,-0.6836c0.47851,0 0.91145,0.11393 1.2988,0.3418v-1.3467h-6.7471v-1.3193h6.7471zM202.3047,362.4957v-0.253c0,-0.29167 -0.06836,-0.54913 -0.20507,-0.7724c-0.25521,-0.41927 -0.62435,-0.6289 -1.1074,-0.6289c-0.24609,0 -0.47624,0.06837 -0.69043,0.2051c-0.5013,0.3144 -0.75195,0.79747 -0.75195,1.4492c0,0.41013 0.09115,0.75647 0.27344,1.039c0.25521,0.39193 0.63117,0.5879 1.1279,0.5879c0.45117,0 0.80891,-0.2028 1.0732,-0.6084c0.18685,-0.28707 0.28027,-0.62657 0.28027,-1.0185z"/><path d="M214.62,357v-0.5879h-4.2725v-0.9775h10.09v0.9775h-4.3613v0.5879h5.6602v2.4541h-1.4834v-1.5723h-4.1768v2.6592h-1.4561v-2.6592h-4.1016v1.5723h-1.4697v-2.4541zM219.4598,366.7002c0.69727,0.26433 1.5677,0.47397 2.6113,0.6289l-0.79981,1.1621c-1.46287,-0.25067 -2.6637,-0.68133 -3.6025,-1.292c-0.93427,-0.61067 -1.66117,-1.36943 -2.1807,-2.2763h-1.5107v2.1054c1.00713,-0.14127 1.94137,-0.29163 2.8027,-0.4511l0.0957,1.0185c-1.60413,0.3828 -3.43843,0.7155 -5.5029,0.9981l-0.40332,-1.2032c0.71547,-0.07747 1.20537,-0.13213 1.4697,-0.164l0.082,-0.014v-2.29h-1.4971c-0.0638,0.80207 -0.16862,1.44237 -0.31445,1.9209c-0.17318,0.5742 -0.45118,1.10967 -0.83399,1.6064l-1.2168,-1.0049c0.44661,-0.57873 0.72461,-1.2555 0.83398,-2.0303c0.05927,-0.41927 0.0889,-0.94107 0.0889,-1.5654v-2.8984h11.799v0.9092h-10.329v2.0986h10.917v0.9639h-1.5518l0.86816,0.5742c-0.51497,0.4284 -1.12337,0.82943 -1.8252,1.2031zM218.3934,366.1738c0.65625,-0.4466 1.17805,-0.86357 1.5654,-1.2509h-2.9873c0.39193,0.50127 0.86589,0.91823 1.4219,1.2509zM211.12,358.3877h2.9121v0.7725h-2.9121zM211.12,359.6455h2.9121v0.7861h-2.9121zM216.664,358.3877h3.001v0.7725h-3.001zM216.664,359.6455h3.001v0.7861h-3.001zM211.8652,362.4346h8.5107v0.8955h-8.5107z"/><path d="M230.46,356.3h5.3594v1.1484h-3.0352v1.1348h2.8438v1.1074h-2.8438v2.0371h-5.5029v-2.0371h-2.2422v1.2715c0,2.06447 -0.10937,3.69597 -0.32812,4.8945c-0.16862,0.91147 -0.44206,1.74317 -0.82031,2.4951l-1.2442,-0.9843c0.34636,-0.752 0.58334,-1.6703 0.71094,-2.7549c0.11393,-0.95247 0.1709,-2.16927 0.1709,-3.6504v-4.6621h5.4072v-1.2305h1.5244zM225.0391,357.4484v1.1348h2.2422v-1.1348zM228.7373,357.4484v1.1348h2.5908v-1.1348zM228.7373,359.6906v1.0596h2.5908v-1.0596zM230.3232,366.8683c-1.31707,0.6836 -2.9896,1.20313 -5.0176,1.5586l-0.71093,-1.2578c1.90493,-0.22787 3.39743,-0.5765 4.4775,-1.0459c-0.92513,-0.66993 -1.71583,-1.46517 -2.3721,-2.3857h-0.94336v-1.1895h8.0049l0.71777,0.6016c-0.67907,1.0436 -1.6475,2.0257 -2.9053,2.9463c1.08007,0.43293 2.55207,0.75193 4.416,0.957l-0.7998,1.292c-1.78647,-0.24153 -3.40887,-0.73373 -4.8672,-1.4766zM228.2929,363.7375c0.55143,0.64713 1.22137,1.2168 2.0098,1.709c0.88867,-0.57427 1.57453,-1.14393 2.0576,-1.709z"/></g><g><path d="M149.12,236.3l0.0615,-2.8711h1.374l-0.0478,2.8711h2.707c-0.06836,4.77147 -0.23242,7.74737 -0.49219,8.9277c-0.10937,0.49673 -0.28939,0.84537 -0.54004,1.0459c-0.24609,0.1914 -0.64029,0.2871 -1.1826,0.2871c-0.52409,0 -1.02312,-0.02733 -1.4971,-0.082l-0.28027,-1.4151c0.53776,0.07293 1.02309,0.1094 1.456,0.1094c0.29167,0 0.48535,-0.08203 0.58106,-0.2461c0.26888,-0.46487 0.45573,-2.88707 0.56055,-7.2666h-1.4082c-0.12305,2.05987 -0.43294,3.75517 -0.92968,5.0859c-0.58789,1.57687 -1.39683,2.90077 -2.4268,3.9717l-0.97754,-1.0664c1.01173,-0.99347 1.74773,-2.24443 2.208,-3.7529c0.38281,-1.2396 0.63802,-2.65237 0.76562,-4.2383h-1.8115v-1.0322h-7.0752v-1.2989h3.1104v-1.9003h1.4561v1.9003h2.7686v0.9708zM143.4735,242.7394c-0.56967,-0.64713 -1.1758,-1.2578 -1.8184,-1.832l0.90918,-0.9571c0.45117,0.3874 1.00487,0.90693 1.6611,1.5586c0.35091,-0.62887 0.65625,-1.2737 0.91602,-1.9345l1.2578,0.6152c-0.25977,0.67447 -0.64943,1.47427 -1.169,2.3994c0.51042,0.5742 0.96159,1.1188 1.3535,1.6338l-1.0664,1.1348c-0.39648,-0.57427 -0.76561,-1.0733 -1.1074,-1.4971c-0.81573,1.153 -1.77277,2.09407 -2.8711,2.8232l-1.1074,-1.1621c1.22133,-0.67447 2.23533,-1.60187 3.042,-2.7822zM140.0008,239.8273c0.87953,-0.6608 1.6315,-1.61783 2.2559,-2.8711l1.1894,0.6289c-0.62435,1.3216 -1.44238,2.39483 -2.4541,3.2197zM146.7479,240.2716c-0.61523,-0.89773 -1.36263,-1.80233 -2.2422,-2.7138l1.0527,-0.7383c0.86133,0.80207 1.57453,1.6178 2.1396,2.4472z"/><path d="M162.6,241.8c1.35807,1.1758 3.01007,2.1283 4.956,2.8575l-0.92285,1.3193c-2.08727,-0.9388 -3.8031,-2.1647 -5.1475,-3.6777v4.4365h-1.4834v-4.3818c-1.2988,1.67247 -2.96903,2.96443 -5.0107,3.8759l-0.90918,-1.2304c1.93687,-0.74287 3.5889,-1.8093 4.9561,-3.1993h-4.9014v-1.2168h5.8652v-1.0185h-4.6211v-5.6123h10.814v5.6123h-4.71v1.0185h5.9541v1.2168zM156.8373,235.0461v1.1143h3.165v-1.1143zM156.8373,237.2405v1.2304h3.165v-1.2304zM164.7397,238.4709v-1.2304h-3.2539v1.2304zM164.7397,236.1604v-1.1143h-3.2539v1.1143z"/><path d="M175.49,234.7h4.9561v1.2168h-1.9346c-0.22787,0.71553 -0.47852,1.37407 -0.75196,1.9756h3.6846v1.2442h-13.303v-1.2442h3.5889c-0.18685,-0.63347 -0.43978,-1.292 -0.75879,-1.9756h-1.8389v-1.2168h4.8604v-1.2714h1.4971zM172.5847,235.9168c0.26888,0.61527 0.50586,1.2738 0.71094,1.9756h2.9326c0.26888,-0.62433 0.49902,-1.28287 0.69043,-1.9756zM179.3113,240.0799v6.6514h-1.5244v-0.7178h-6.0088v0.7178h-1.5107v-6.6514zM171.7781,241.242v1.1895h6.0088v-1.1895zM171.7781,243.5252v1.3125h6.0088v-1.3125z"/><path d="M183.33,235.3h3.6846c0.4056,-0.64713 0.71322,-1.16897 0.92285,-1.5655l1.5244,0.2188c-0.13672,0.24607 -0.37826,0.6471 -0.72461,1.2031l-0.0889,0.1436h4.8193v1.3466h-5.7285c-0.59701,0.82033 -1.16667,1.53127 -1.709,2.1328c0.86133,-0.51493 1.64747,-0.7724 2.3584,-0.7724c1.10287,0 1.8252,0.5537 2.167,1.6611c1.16667,-0.38733 2.35613,-0.77013 3.5684,-1.1484l0.58789,1.3262l-0.23926,0.068l-0.67676,0.1777c-1.27607,0.3464 -2.2969,0.64263 -3.0625,0.8887c0.05467,0.59247 0.0934,1.3581 0.11621,2.2969l-1.4971,0.082c-0.00467,-0.54233 -0.01377,-1.1302 -0.0273,-1.7636v-0.1368c-2.09633,0.71553 -3.1445,1.4356 -3.1445,2.1602c0,0.37367 0.26888,0.62887 0.80664,0.7656c0.51953,0.1322 1.44923,0.1983 2.7891,0.1983c1.235,0 2.53153,-0.07067 3.8896,-0.212l0.16406,1.4561c-1.31707,0.10027 -2.68197,0.1504 -4.0947,0.1504c-1.74087,0 -2.97817,-0.13217 -3.7119,-0.3965c-0.90693,-0.32813 -1.3604,-0.9183 -1.3604,-1.7705c0,-0.72007 0.32129,-1.3558 0.96387,-1.9072c0.66536,-0.56967 1.83659,-1.15757 3.5137,-1.7637c-0.09115,-0.35093 -0.21192,-0.59703 -0.36231,-0.7383c-0.16862,-0.15947 -0.39193,-0.2392 -0.66992,-0.2392c-0.45117,0 -1.01857,0.1709 -1.7022,0.5127c-0.84307,0.41927 -1.7477,1.05043 -2.7139,1.8935l-0.90918,-1.0391c1.41733,-1.317 2.52703,-2.61127 3.3291,-3.8828h-2.7822z"/><path d="M200.42,234.5v9.4473h-2.7139v1.1347h-1.2578v-10.582zM197.7061,235.8467v6.7539h1.4697v-6.7539zM203.6534,234.582c0.11849,-0.32353 0.23698,-0.75647 0.35547,-1.2988l1.5244,0.2188c-0.12305,0.35547 -0.27344,0.71547 -0.45117,1.08h3.165v4.2657h-5.6396v0.6494h6.8975v1.0801h-6.8975v0.6425h6.5625c-0.05013,2.26047 -0.1504,3.71197 -0.30079,4.3545c-0.0957,0.4056 -0.25748,0.695 -0.48535,0.8682c-0.23698,0.17773 -0.63345,0.2666 -1.1894,0.2666c-0.55595,0 -1.04129,-0.025 -1.456,-0.075l-0.27344,-1.3125c0.53776,0.07293 1.04363,0.1094 1.5176,0.1094c0.26432,0 0.43294,-0.07063 0.50586,-0.2119c0.11849,-0.23247 0.22102,-1.17583 0.30761,-2.8301l0.007,-0.1026h-6.5693v-7.7041zM202.6075,235.5596v0.7041h4.2656v-0.7041zM202.6075,237.1729v0.7246h4.2656v-0.7246zM202.81941,245.9229c-0.03647,-1.10747 -0.12533,-2.09187 -0.2666,-2.9532l0.96387,-0.1982c0.24153,0.9388 0.39192,1.8776 0.45117,2.8164zM200.18761,245.6563c0.41927,-0.89327 0.69955,-1.85487 0.84082,-2.8848l1.1211,0.2256c-0.15039,1.3672 -0.38965,2.46323 -0.71778,3.2881zM204.70621,245.4717c-0.18685,-1.01627 -0.39648,-1.88443 -0.62891,-2.6045l0.88184,-0.3076c0.30989,0.6836 0.58105,1.5153 0.81347,2.4951zM206.44251,244.8428c-0.18685,-0.67447 -0.45801,-1.37857 -0.81348,-2.1123l0.82715,-0.376c0.38281,0.60613 0.68132,1.26237 0.89551,1.9687z"/><path d="M219.1,236.6c-1.7272,-0.76567 -3.67317,-1.35357 -5.8379,-1.7637l0.57422,-1.2168c2.22393,0.41473 4.18813,0.95477 5.8926,1.6201zM211.3002,241.6107c0.18685,-2.1784 0.46712,-4.0765 0.84082,-5.6943l1.4697,0.2734c-0.34636,1.44013 -0.56967,2.7891 -0.66993,4.0469c0.66081,-0.50587 1.42187,-0.9092 2.2832,-1.21c0.82487,-0.29167 1.59503,-0.4375 2.3105,-0.4375c1.07093,0 1.94593,0.20737 2.625,0.6221c0.90693,0.56053 1.3604,1.45833 1.3604,2.6934c0,1.2122 -0.41243,2.151 -1.2373,2.8164c-1.153,0.92053 -3.1582,1.42867 -6.0156,1.5244l-0.54688,-1.4151c1.90953,-0.00667 3.3633,-0.1844 4.3613,-0.5332c1.20767,-0.41927 1.8115,-1.21907 1.8115,-2.3994c0,-0.7474 -0.2666,-1.30337 -0.7998,-1.6679c-0.42383,-0.29167 -0.97983,-0.4375 -1.668,-0.4375c-0.9798,0 -2.03253,0.32127 -3.1582,0.9638c-0.68813,0.39193 -1.30337,0.86817 -1.8457,1.4287z"/><path d="M230.38,233.7h1.5381v1.8867h4.0332v1.3194h-4.0332v2.9258c0.15951,0.56053 0.23926,1.05953 0.23926,1.497c0,1.6224 -0.35773,2.81413 -1.0732,3.5752c-0.77933,0.834 -1.95283,1.4105 -3.5205,1.7295l-0.7793,-1.1621c1.2168,-0.2324 2.11913,-0.56053 2.707,-0.9844c0.55143,-0.401 0.92287,-0.94557 1.1143,-1.6337c-0.48763,0.5332 -1.06869,0.7998 -1.7432,0.7998c-0.75653,0 -1.3695,-0.2142 -1.8389,-0.6426c-0.55143,-0.50587 -0.82715,-1.2396 -0.82715,-2.2012c0,-0.50587 0.12077,-0.9935 0.36231,-1.4629c0.1595,-0.3008 0.35546,-0.55143 0.58789,-0.7519c0.53776,-0.45573 1.18263,-0.6836 1.9346,-0.6836c0.47851,0 0.91145,0.11393 1.2988,0.3418v-1.3467h-6.7471v-1.3194h6.7471zM230.4347,240.7957v-0.2529c0,-0.29167 -0.06836,-0.54917 -0.20507,-0.7725c-0.25521,-0.41927 -0.62435,-0.6289 -1.1074,-0.6289c-0.24609,0 -0.47624,0.06837 -0.69043,0.2051c-0.5013,0.31447 -0.75195,0.79753 -0.75195,1.4492c0,0.4102 0.09115,0.75657 0.27344,1.0391c0.25521,0.39193 0.63117,0.5879 1.1279,0.5879c0.45117,0 0.80891,-0.2028 1.0732,-0.6084c0.18685,-0.28713 0.28027,-0.62667 0.28027,-1.0186z"/></g><g><path d="M148.03,196.7v6.1875c0,0.401 0.17188,0.64317 0.51563,0.7265c0.35417,0.08853 1.16407,0.1328 2.4297,0.1328c1.2344,0 2.0495,-0.0625 2.4453,-0.1875c0.22395,-0.07287 0.36979,-0.27597 0.4375,-0.6093c0.08854,-0.4688 0.13541,-1.0235 0.14062,-1.6641l1.6328,0.4609c-0.08333,1.53647 -0.29427,2.51827 -0.63281,2.9454c-0.22396,0.2812 -0.56249,0.44787 -1.0156,0.5c-0.71353,0.07807 -1.92447,0.1171 -3.6328,0.1171c-1.32293,0 -2.19013,-0.03643 -2.6016,-0.1093c-0.61979,-0.1042 -1.01303,-0.37763 -1.1797,-0.8203c-0.08333,-0.2344 -0.125,-0.5469 -0.125,-0.9375v-6.1954l-1.4922,0.5157l-0.36719,-1.5157l1.8594,-0.6406v-4.2109h1.5859v3.664l1.6797,-0.5703v-4.1172h1.5703v3.5704l2.6172,-0.8985l0.82031,0.5v5.8516c0,0.40627 -0.09635,0.70833 -0.28906,0.9062c-0.21875,0.2188 -0.58595,0.3282 -1.1016,0.3282c-0.42188,0 -0.86981,-0.03647 -1.3438,-0.1094l-0.25782,-1.4922c0.30729,0.07813 0.61979,0.1172 0.9375,0.1172c0.22917,0 0.36979,-0.04687 0.42188,-0.1406c0.05207,-0.07813 0.0781,-0.20837 0.0781,-0.3907v-3.6953l-1.8828,0.6563v6.3203h-1.5703v-5.7813zM142.2878,194.1453v-3.7735h1.6797v3.7735h1.5156v1.5859h-1.5156v4.9688c0.54687,-0.18753 1.08854,-0.38287 1.625,-0.586l0.14844,1.5078c-1.68747,0.77087 -3.41923,1.4167 -5.1953,1.9375l-0.54688,-1.664c0.80207,-0.20833 1.5052,-0.40627 2.1094,-0.5938c0.07291,-0.026 0.13281,-0.04433 0.17968,-0.055v-5.5156h-1.9844v-1.5859z"/><path d="M162.96,192.5v-0.6719h-4.8828v-1.1171h11.531v1.1171h-4.9844v0.6719h6.4688v2.8047h-1.6953v-1.7969h-4.7734v3.0391h-1.6641v-3.0391h-4.6875v1.7969h-1.6797v-2.8047zM168.4912,203.586c0.79687,0.30207 1.79167,0.54163 2.9844,0.7187l-0.91406,1.3281c-1.67187,-0.28647 -3.04427,-0.77863 -4.1172,-1.4765c-1.06773,-0.69793 -1.89847,-1.56513 -2.4922,-2.6016h-1.7266v2.4063c1.15107,-0.16147 2.21877,-0.33337 3.2031,-0.5157l0.10937,1.1641c-1.83333,0.43747 -3.9297,0.81767 -6.2891,1.1406l-0.46094,-1.375c0.81773,-0.08853 1.37763,-0.15103 1.6797,-0.1875l0.0937,-0.016v-2.6172h-1.7109c-0.07291,0.91667 -0.1927,1.64843 -0.35937,2.1953c-0.19792,0.65627 -0.51563,1.26827 -0.95313,1.836l-1.3906,-1.1485c0.51041,-0.66147 0.82812,-1.4349 0.95312,-2.3203c0.06771,-0.47913 0.10157,-1.0755 0.10157,-1.7891v-3.3125h13.484v1.0391h-11.805v2.3984h12.477v1.1016h-1.7734l0.99219,0.6563c-0.58855,0.48953 -1.28385,0.94787 -2.0859,1.375zM167.2724,202.9844c0.75,-0.5104 1.34637,-0.98697 1.7891,-1.4297h-3.4141c0.44791,0.57293 0.98958,1.0495 1.625,1.4297zM158.9599,194.086h3.3281v0.8828h-3.3281zM158.9599,195.5235h3.3281v0.8984h-3.3281zM165.2958,194.086h3.4297v0.8828h-3.4297zM165.2958,195.5235h3.4297v0.8984h-3.4297zM159.8114,198.711h9.7266v1.0234h-9.7266z"/><path d="M175.77,193.4v12.227h-1.6328v-15.203h1.6328v2.3672l0.75,-0.625c0.45312,0.78647 0.81249,1.5443 1.0781,2.2735l-1.0625,1.0547c-0.27604,-0.88027 -0.53125,-1.5782 -0.76562,-2.0938zM182.9653,191.4625h4.0469v1.1719h-4.0469v0.75h3.4922v1.1172h-3.4922v0.7734h4.5625v1.25h-10.531v-1.25h4.3516v-0.7734h-3.3906v-1.1172h3.3906v-0.75h-3.8516v-1.1719h3.8516v-1.0391h1.6172zM186.2153,197.3531v6.8594c0,0.4792 -0.11458,0.82817 -0.34375,1.0469c-0.22396,0.21353 -0.60676,0.3203 -1.1484,0.3203c-0.64063,0 -1.29949,-0.04427 -1.9766,-0.1328l-0.22656,-1.4063c0.69273,0.08333 1.2422,0.125 1.6484,0.125c0.20833,0 0.33333,-0.05207 0.375,-0.1562c0.02607,-0.06267 0.0391,-0.15903 0.0391,-0.2891v-1.0078h-4.7969v2.9141h-1.6328v-8.2735zM179.7856,198.5016v0.914h4.7969v-0.914zM179.7856,200.5641v0.9609h4.7969v-0.9609zM171.9262,198.5797c0.23437,-1.08333 0.40364,-2.48437 0.50781,-4.2031l0.0391,-0.6407l1.3281,0.125c-0.06247,2.2292 -0.24476,4.0391 -0.54688,5.4297z"/><path d="M191.38,192v-1.6329h1.6328v1.6329h2.4297v1.375h-2.4297v1.3437h2.7656v1.3906h-0.92969c-0.16667,0.6198 -0.39062,1.27607 -0.67187,1.9688h1.5078v1.3594h-2.6719v1.4453h2.5703v1.3906h-2.5703v3.2969h-1.6328v-3.2969h-2.7578v-1.3906h2.7578v-1.4453h-2.8828v-1.3594h1.4375c-0.16667,-0.69273 -0.36979,-1.349 -0.60937,-1.9688h-1.1484v-1.3906h3.2031v-1.3437h-2.5469v-1.375zM193.3253,196.1093h-2.4844c0.17709,0.4948 0.36719,1.15107 0.57031,1.9688h1.2969c0.27083,-0.66667 0.47656,-1.32293 0.61719,-1.9688zM202.8019,190.9296v3.6563c0,0.45313 -0.08333,0.77343 -0.25,0.9609c-0.19792,0.224 -0.61199,0.336 -1.2422,0.336c-0.61458,0 -1.22918,-0.026 -1.8438,-0.078l-0.26562,-1.4062c0.8646,0.09373 1.41407,0.1406 1.6484,0.1406c0.24479,0 0.36719,-0.10677 0.36719,-0.3203v-1.8828h-3.4219v4.5391h4.4297l0.92969,0.7968c-0.28125,1.65627 -0.79428,3.13543 -1.5391,4.4375l-0.0859,0.1563c0.57292,0.66147 1.28905,1.26563 2.1484,1.8125l-0.875,1.4609c-0.82293,-0.53127 -1.5573,-1.16667 -2.2031,-1.9062c-0.55729,0.70833 -1.18489,1.375 -1.8828,2l-0.92187,-1.2813v1.2188h-1.5859v-14.641zM197.7941,198.2812v5.9063c0.64062,-0.43753 1.25782,-1.05213 1.8516,-1.8438c-0.79687,-1.22913 -1.35677,-2.5833 -1.6797,-4.0625zM200.5129,200.9609c0.46354,-0.89587 0.76562,-1.7891 0.90625,-2.6797h-2.0156c0.25521,1 0.62501,1.89323 1.1094,2.6797z"/></g><g><path d="M147.35,270.7h4.9561v1.2168h-1.9346c-0.22787,0.71553 -0.47852,1.37407 -0.75196,1.9756h3.6846v1.2441h-13.303v-1.2441h3.5889c-0.18685,-0.63347 -0.43978,-1.292 -0.75879,-1.9756h-1.8389v-1.2168h4.8604v-1.2715h1.4971zM144.4447,271.9168c0.26888,0.61527 0.50586,1.2738 0.71094,1.9756h2.9326c0.26888,-0.62433 0.49902,-1.28287 0.69043,-1.9756zM151.1713,276.0799v6.6514h-1.5244v-0.7178h-6.0088v0.7178h-1.5107v-6.6514zM143.6381,277.242v1.1895h6.0088v-1.1895zM143.6381,279.5252v1.3125h6.0088v-1.3125z"/><path d="M159.84,270.7v-1.2715h1.5244v1.2715h5.7422v1.1895h-5.7422v1.1211h4.8467v1.1894h-10.979v-1.1894h4.6074v-1.1211h-5.6465v-1.1895zM166.0744,275.2254v4.4912h-1.5381v-0.7383h-7.6973c-0.06835,0.84767 -0.20735,1.5381 -0.41699,2.0713c-0.25065,0.64713 -0.66535,1.25327 -1.2441,1.8184l-1.2168,-1.0664c0.58789,-0.55147 0.97299,-1.21 1.1553,-1.9756c0.1276,-0.53773 0.1914,-1.21677 0.1914,-2.0371v-2.5635zM164.5363,276.3465h-3.1992v1.4424h3.1992zM159.8537,276.3465h-2.9805v1.4424h2.9805z"/><path d="M168.45,271c4.19273,-0.064 8.1554,-0.1711 11.888,-0.3213l0.082,1.3603c-1.6452,0.08207 -2.9258,0.33273 -3.8418,0.752c-0.875,0.401 -1.57683,0.95697 -2.1055,1.6679c-0.60156,0.80667 -0.90234,1.70447 -0.90234,2.6934c0,0.9844 0.3418,1.7227 1.0254,2.2149c0.78387,0.56053 1.987,0.9456 3.6094,1.1552l-0.32128,1.5381c-2.1146,-0.28253 -3.60257,-0.8294 -4.4639,-1.6406c-0.92513,-0.86587 -1.3877,-1.9414 -1.3877,-3.2266c0,-1.16667 0.41927,-2.25587 1.2578,-3.2676c0.61067,-0.7428 1.44694,-1.3398 2.5088,-1.791c-1.88213,0.064 -4.3089,0.1711 -7.2803,0.3213zM178.3895,276.8994c-0.26889,-0.71553 -0.72235,-1.52673 -1.3604,-2.4336l1.0664,-0.3965c0.56966,0.78387 1.02766,1.58593 1.374,2.4062zM180.2352,276.1816c-0.32357,-0.83853 -0.77473,-1.6543 -1.3535,-2.4473l1.0186,-0.3623c0.5332,0.64713 0.98667,1.431 1.3604,2.3516z"/><path d="M187.03,278v3.5889c0.91147,-0.3236 1.53127,-0.84087 1.8594,-1.5518c0.25521,-0.54687 0.39192,-1.59277 0.41015,-3.1377h1.374c-0.01367,1.80013 -0.20051,3.0534 -0.56054,3.7598c-0.48763,0.94793 -1.31933,1.66343 -2.4951,2.1465l-0.58789,-0.8067v0.01h-3.2676v0.7041h-1.3467v-4.71zM183.7624,279.1758v1.668h1.9209v-1.668zM190.4821,270.665v-1.2441h1.3877v1.2441h3.3291v1.2032h-3.3291v0.9707h2.9395v1.1758h-7.0957v-1.1758h2.7686v-0.9707h-3.2471v-1.2032zM195.1442,274.9512v2.8711h-1.374v-1.709h-4.9492v1.8183h-1.333v-2.9804zM182.6412,269.9131h4.1289v1.1484h-4.1289zM181.99862,271.916h5.332v1.2305h-5.332zM182.6412,274.0147h4.1289v1.1347h-4.1289zM182.6412,276.0176h4.1289v1.1074h-4.1289zM191.5006,276.8721h1.3193v4.0537c0,0.1276 0.0319,0.20507 0.0957,0.2324c0.10482,0.04533 0.22331,0.068 0.35547,0.068c0.30078,0 0.49674,-0.0433 0.58789,-0.1299c0.12305,-0.1094 0.20964,-0.72007 0.25977,-1.832l1.2373,0.4306c-0.041,1.22133 -0.17088,1.99607 -0.38965,2.3242c-0.13671,0.20513 -0.35546,0.34413 -0.65625,0.417c-0.25976,0.05933 -0.60613,0.089 -1.0391,0.089c-0.75193,0 -1.23727,-0.07747 -1.456,-0.2324c-0.20964,-0.1504 -0.31446,-0.4284 -0.31446,-0.834z"/><path d="M197.74,270.4h5.3457l0.95703,0.8134c-0.45117,1.5814 -0.82487,2.77087 -1.1211,3.5684c1.1348,0.1914 2.1807,0.5013 3.1377,0.9297c0.05467,-0.58787 0.082,-1.16437 0.082,-1.7295c0,-0.3008 -0.0091,-0.654 -0.0273,-1.0596l1.4971,0.1573c-0.00467,1.30333 -0.05708,2.39933 -0.15723,3.288c0.56511,0.29167 1.15757,0.63577 1.7774,1.0323l-0.5879,1.456c-0.4375,-0.319 -0.91147,-0.63573 -1.4219,-0.9502c-0.35091,1.35353 -0.91145,2.40627 -1.6816,3.1582c-0.54687,0.5378 -1.29427,1.01177 -2.2422,1.4219l-0.85449,-1.1484c1.11653,-0.47853 1.9414,-1.08923 2.4746,-1.8321c0.41927,-0.5924 0.72916,-1.36713 0.92969,-2.3242c-1.11653,-0.56053 -2.24673,-0.93877 -3.3906,-1.1347c-0.74287,2.03253 -1.488,3.57287 -2.2354,4.621c-0.56966,0.793 -1.20996,1.1895 -1.9209,1.1895c-0.68813,0 -1.22133,-0.32813 -1.5996,-0.9844c-0.28711,-0.50127 -0.43066,-1.09827 -0.43066,-1.791c0,-0.85673 0.22103,-1.62237 0.66308,-2.2969c0.52409,-0.80207 1.33073,-1.38767 2.4199,-1.7568c0.6289,-0.20967 1.333,-0.3236 2.1123,-0.3418c0.41927,-1.09373 0.74056,-2.07357 0.96387,-2.9395h-4.6895zM200.9734,275.9918c-0.58789,0.032 -1.09145,0.14363 -1.5107,0.3349c-0.65625,0.29167 -1.13931,0.7383 -1.4492,1.3399c-0.21875,0.4238 -0.32812,0.87497 -0.32812,1.3535c0,0.3828 0.07519,0.71547 0.22558,0.998c0.11393,0.22333 0.25065,0.335 0.41016,0.335c0.63802,0 1.52212,-1.45377 2.6523,-4.3613z"/><path d="M217.06,273.3h4.9356v1.4013h-4.9356v5.7149h6.2412v1.4287h-13.303v-1.4287h5.4072v-11.02h1.6543z"/><path d="M232.46,269.9h1.2305l0.29395,2.9805h2.7891v1.3877h-2.6728l0.0273,1.2441c0.00467,0.22333 0.007,0.3783 0.007,0.4649c0,1.88213 -0.27799,3.27893 -0.83398,4.1904c-0.4375,0.7246 -1.07323,1.3125 -1.9072,1.7637c-0.22787,0.123 -0.50586,0.25743 -0.83399,0.4033l-0.92968,-1.1758c1.1302,-0.5104 1.91177,-1.13247 2.3447,-1.8662c0.42383,-0.71553 0.63575,-1.83437 0.63575,-3.3565c0,-0.04133 -0.00233,-0.20537 -0.007,-0.4921l-0.0342,-1.1758h-4.4912v-1.3877h4.4365zM225.3438,281.897c-0.22331,-1.71813 -0.33496,-3.59803 -0.33496,-5.6397c0,-2.16467 0.12761,-4.2838 0.38282,-6.3574l1.4834,0.1367c-0.23697,2.16473 -0.35546,4.2269 -0.35546,6.1865c0,1.9916 0.10937,3.81227 0.32812,5.462zM235.0372,272.2651c-0.20507,-0.72913 -0.5332,-1.49473 -0.98437,-2.2968l0.9707,-0.2666c0.43295,0.7428 0.77701,1.4993 1.0322,2.2695zM236.6163,271.7183c-0.25521,-0.86133 -0.60611,-1.6361 -1.0527,-2.3243l1.0117,-0.2529c0.44206,0.67907 0.79753,1.44013 1.0664,2.2832z"/><path d="M239.96,270.1h7.6699l0.73144,1.1348c-2.3698,1.4492 -4.42287,2.76627 -6.1592,3.9512c1.12107,-0.4694 2.24673,-0.7041 3.377,-0.7041c1.01627,0 1.86393,0.16177 2.543,0.4853c0.62891,0.3008 1.11881,0.71097 1.4697,1.2305c0.36459,0.5514 0.54688,1.18487 0.54688,1.9004c0,1.0026 -0.3418,1.84113 -1.0254,2.5156c-0.4694,0.4694 -1.07097,0.82487 -1.8047,1.0664c-0.9616,0.31447 -2.01433,0.4717 -3.1582,0.4717c-1.31707,0 -2.28777,-0.24383 -2.9121,-0.7315c-0.48763,-0.3828 -0.73144,-0.90003 -0.73144,-1.5517c0,-0.4922 0.17773,-0.9297 0.5332,-1.3125c0.53776,-0.5788 1.26466,-0.8682 2.1807,-0.8682c0.97067,0 1.74767,0.32583 2.331,0.9775c0.42383,0.474 0.72917,1.10977 0.91602,1.9073c1.40367,-0.4466 2.1055,-1.27147 2.1055,-2.4746c0,-0.91147 -0.38053,-1.58367 -1.1416,-2.0166c-0.51041,-0.29167 -1.15755,-0.4375 -1.9414,-0.4375c-1.1712,0 -2.2285,0.16177 -3.1719,0.4853c-0.69727,0.237 -1.6338,0.80893 -2.8096,1.7158l-0.96386,-1.1621c1.26693,-1.09373 2.7093,-2.20343 4.3271,-3.3291c1.11653,-0.77473 2.1009,-1.41047 2.9531,-1.9072h-5.8652zM245.1416,280.839c-0.32357,-1.28973 -0.9593,-1.9346 -1.9072,-1.9346c-0.52409,0 -0.90235,0.16633 -1.1348,0.499c-0.10937,0.1504 -0.16406,0.3122 -0.16406,0.4854c0,0.36 0.25521,0.63117 0.76563,0.8135c0.36914,0.1276 0.86361,0.1914 1.4834,0.1914c0.26433,0 0.58334,-0.01833 0.95703,-0.055z"/></g></g><path d="M138,213h204" fill="none" fill-rule="nonzero" stroke="#7d97b4" stroke-width="2" stroke-linecap="round" stroke-linejoin="round"/><g fill="#ffffff" fill-rule="nonzero" stroke="none" stroke-width="1" stroke-linecap="butt" stroke-linejoin="miter"><path d="M145.96,307.2v-0.5879h-4.2725v-0.9775h10.09v0.9775h-4.3613v0.5879h5.6602v2.4541h-1.4834v-1.5722h-4.1768v2.6591h-1.456v-2.6591h-4.1016v1.5722h-1.4697v-2.4541zM150.7998,316.9002c0.69727,0.26433 1.5677,0.47397 2.6113,0.6289l-0.79981,1.1621c-1.46287,-0.2506 -2.6637,-0.68123 -3.6025,-1.2919c-0.93427,-0.61073 -1.66117,-1.36953 -2.1807,-2.2764h-1.5107v2.1055c1.00713,-0.14133 1.94137,-0.29173 2.8027,-0.4512l0.0957,1.0185c-1.60413,0.38287 -3.43843,0.71557 -5.5029,0.9981l-0.40332,-1.2031c0.71547,-0.07753 1.20537,-0.13223 1.4697,-0.1641l0.082,-0.014v-2.29h-1.4971c-0.0638,0.80207 -0.16862,1.44237 -0.31445,1.9209c-0.17317,0.5742 -0.45117,1.10967 -0.83398,1.6064l-1.2168,-1.0046c0.44661,-0.57873 0.72461,-1.25547 0.83398,-2.0302c0.05927,-0.41927 0.0889,-0.9411 0.0889,-1.5655v-2.8984h11.799v0.9092h-10.329v2.0986h10.917v0.9639h-1.5518l0.86817,0.5742c-0.51497,0.4284 -1.12337,0.82943 -1.8252,1.2031zM149.7334,316.3739c0.65625,-0.44667 1.17805,-0.86367 1.5654,-1.251h-2.9873c0.39193,0.50127 0.86589,0.91827 1.4219,1.251zM142.46,308.5877h2.9121v0.7725h-2.9121zM142.46,309.8455h2.9121v0.7862h-2.9121zM148.0039,308.5877h3.001v0.7725h-3.001zM148.0039,309.8455h3.001v0.7862h-3.001zM143.2051,312.6346h8.5108v0.8955h-8.5108z"/><path d="M161.8,306.6h5.3594v1.1484h-3.0352v1.1348h2.8438v1.1074h-2.8438v2.0371h-5.5029v-2.0371h-2.2422v1.2715c0,2.06447 -0.10938,3.69597 -0.32813,4.8945c-0.16862,0.91147 -0.44206,1.7432 -0.82031,2.4952l-1.2441,-0.9844c0.34635,-0.75193 0.58333,-1.67023 0.71094,-2.7549c0.11393,-0.95247 0.17089,-2.16927 0.17089,-3.6504v-4.6621h5.4072v-1.2305h1.5244zM156.3791,307.7484v1.1348h2.2422v-1.1348zM160.0773,307.7484v1.1348h2.5908v-1.1348zM160.0773,309.9906v1.0596h2.5908v-1.0596zM161.6632,317.1684c-1.31707,0.68353 -2.9896,1.20307 -5.0176,1.5586l-0.71094,-1.2579c1.90493,-0.22787 3.39743,-0.5765 4.4775,-1.0459c-0.92513,-0.66987 -1.71583,-1.4651 -2.3721,-2.3857h-0.94336v-1.1895h8.0049l0.71778,0.6016c-0.67907,1.0436 -1.6475,2.0257 -2.9053,2.9463c1.08007,0.43293 2.55207,0.75193 4.416,0.957l-0.79981,1.292c-1.78647,-0.24153 -3.40887,-0.7337 -4.8672,-1.4765zM159.6329,314.0375c0.55143,0.64713 1.22137,1.2168 2.0098,1.709c0.88867,-0.5742 1.57453,-1.14387 2.0576,-1.709z"/><path d="M171.02,311h0.9502c0.80207,0 1.44693,-0.14357 1.9346,-0.4307c0.59701,-0.35093 0.89551,-0.83173 0.89551,-1.4424c0,-0.50587 -0.21875,-0.9069 -0.65625,-1.2031c-0.38737,-0.25973 -0.87044,-0.3896 -1.4492,-0.3896c-1.0482,0 -2.05537,0.40103 -3.0215,1.2031l-0.99121,-1.2236c1.1712,-0.93887 2.5498,-1.4083 4.1358,-1.4083c1.06187,0 1.9346,0.21877 2.6182,0.6563c0.82487,0.5332 1.2373,1.28743 1.2373,2.2627c0,0.7474 -0.28483,1.3877 -0.85449,1.9209c-0.44205,0.41013 -1.02539,0.66763 -1.75,0.7725v0.055c0.9388,0.155 1.65657,0.4649 2.1533,0.9297c0.51497,0.48307 0.77246,1.12793 0.77246,1.9346c0,1.1758 -0.47623,2.05537 -1.4287,2.6387c-0.71547,0.43747 -1.65427,0.6562 -2.8164,0.6562c-1.832,0 -3.31767,-0.56053 -4.457,-1.6816l1.0322,-1.2305c0.36459,0.3874 0.83399,0.7064 1.4082,0.957c0.69727,0.30533 1.37403,0.458 2.0303,0.458c0.73827,0 1.31477,-0.15493 1.7295,-0.4648c0.40104,-0.2962 0.60156,-0.74963 0.60156,-1.3603c0,-0.8386 -0.40333,-1.43333 -1.21,-1.7842c-0.54231,-0.237 -1.19401,-0.3555 -1.9551,-0.3555h-0.90918z"/><path d="M188.17,315.4c-1.0664,1.3216 -2.6979,2.38117 -4.8945,3.1787l-0.86816,-1.2647c2.62047,-0.79293 4.33173,-2.04617 5.1338,-3.7597c0.75653,-1.6224 1.1348,-4.1198 1.1348,-7.4922v-0.2119h1.5312v0.1845c0,2.3106 -0.13672,4.16087 -0.41016,5.5508c-0.18229,0.95707 -0.46029,1.8184 -0.83399,2.584c1.46747,1.0436 2.5544,1.97557 3.2608,2.7959l-1.0938,1.3467c-0.7702,-0.9616 -1.71813,-1.9004 -2.8438,-2.8164c-0.041,-0.032 -0.07974,-0.064 -0.11621,-0.096zM181.7305,314.689c1.2578,-0.5742 2.44497,-1.23957 3.5615,-1.9961l0.40332,1.2442c-1.84113,1.31707 -3.96027,2.44727 -6.3574,3.3906l-0.69726,-1.3603c0.57877,-0.20967 1.11424,-0.41477 1.6064,-0.6153l-0.16406,-9.0713h1.5244zM185.6543,310.984c-0.84307,-1.25787 -1.71123,-2.30833 -2.6045,-3.1514l1.1484,-0.9639c1.12107,1.05273 2.02113,2.08723 2.7002,3.1035z"/><path d="M199.78,309.3h4.9356v1.4013h-4.9356v5.7149h6.2412v1.4287h-13.303v-1.4287h5.4072v-11.02h1.6543z"/><path d="M214.06,316.6c2.67513,-0.67447 4.0127,-2.20797 4.0127,-4.6005c0,-1.04367 -0.26888,-1.94147 -0.80664,-2.6934c-0.60156,-0.84767 -1.51756,-1.39227 -2.748,-1.6338c-0.26888,2.1146 -0.63575,3.84637 -1.1006,5.1953c-0.31901,0.9434 -0.71548,1.83437 -1.1894,2.6729c-0.6836,1.194 -1.46063,1.791 -2.3311,1.791c-0.64713,0 -1.22363,-0.29167 -1.7295,-0.875c-0.32357,-0.36913 -0.58561,-0.8226 -0.78613,-1.3604c-0.26433,-0.69727 -0.39649,-1.44693 -0.39649,-2.249c0,-1.2988 0.35773,-2.4951 1.0732,-3.5889c0.7246,-1.11653 1.66567,-1.92773 2.8232,-2.4336c0.84307,-0.36913 1.7682,-0.5537 2.7754,-0.5537c1.57227,0 2.90757,0.42157 4.0059,1.2647c1.34893,1.03447 2.0234,2.49963 2.0234,4.3955c0,3.1764 -1.60643,5.19073 -4.8193,6.043zM213.0346,307.6176c-0.80667,0.09113 -1.48113,0.3076 -2.0234,0.6494c-0.34635,0.22333 -0.69042,0.51957 -1.0322,0.8887c-0.94793,1.0482 -1.4219,2.26273 -1.4219,3.6436c0,1.00713 0.20052,1.79553 0.60156,2.3652c0.24609,0.35093 0.48991,0.5264 0.73145,0.5264c0.32812,0 0.69725,-0.36233 1.1074,-1.087c1.0026,-1.76367 1.68163,-4.09243 2.0371,-6.9863z"/><path d="M227.53,310.9v5.4141c0,0.35093 0.15039,0.56283 0.45117,0.6357c0.3099,0.07753 1.01857,0.1163 2.126,0.1163c1.08007,0 1.79327,-0.0547 2.1396,-0.1641c0.19596,-0.064 0.32356,-0.24173 0.38281,-0.5332c0.07747,-0.41013 0.11849,-0.8955 0.12305,-1.4561l1.4287,0.4034c-0.07292,1.3444 -0.25749,2.20343 -0.55371,2.5771c-0.19597,0.24607 -0.49219,0.3919 -0.88868,0.4375c-0.62435,0.06833 -1.68391,0.1025 -3.1787,0.1025c-1.15753,0 -1.91633,-0.032 -2.2764,-0.096c-0.54232,-0.09113 -0.88639,-0.33037 -1.0322,-0.7177c-0.07292,-0.20513 -0.10938,-0.47857 -0.10938,-0.8203v-5.4209l-1.3057,0.4511l-0.32129,-1.3261l1.627,-0.5606v-3.6846h1.3877v3.2061l1.4697,-0.499v-3.6026h1.374v3.1241l2.29,-0.7862l0.71777,0.4375v5.1201c0,0.35547 -0.08431,0.6198 -0.25293,0.793c-0.19141,0.1914 -0.51269,0.2871 -0.96386,0.2871c-0.36915,0 -0.76108,-0.032 -1.1758,-0.096l-0.22558,-1.3057c0.26888,0.0684 0.54232,0.1026 0.82031,0.1026c0.20052,0 0.32357,-0.04103 0.36914,-0.1231c0.0456,-0.06833 0.0684,-0.18227 0.0684,-0.3418v-3.2334l-1.6475,0.5743v5.5302h-1.374v-5.0586zM222.5056,308.6647v-3.3018h1.4697v3.3018h1.3262v1.3877h-1.3262v4.3476c0.47852,-0.16407 0.95249,-0.33497 1.4219,-0.5127l0.12988,1.3194c-1.47653,0.67447 -2.99183,1.23957 -4.5459,1.6953l-0.47851,-1.4561c0.7018,-0.18227 1.31703,-0.35543 1.8457,-0.5195c0.0638,-0.02267 0.11621,-0.03867 0.15723,-0.048v-4.8262h-1.7363v-1.3877z"/><path d="M246.38,307.8c-0.0228,-0.04533 -0.0433,-0.0909 -0.0615,-0.1367c-0.26433,-0.597 -0.63576,-1.18033 -1.1143,-1.75l1.1348,-0.5332c0.50586,0.56507 0.91603,1.1803 1.2305,1.8457l-1.0938,0.5742h1.4424v1.2578h-3.1582l0.0137,0.2735c0.06836,1.44007 0.20736,2.6842 0.417,3.7324c0.37825,-0.82947 0.72005,-1.75233 1.0254,-2.7686l1.2715,0.5469c-0.54232,1.54033 -1.14615,2.887 -1.8115,4.04c0.19141,0.56967 0.4056,1.0687 0.64258,1.4971c0.09114,0.16407 0.1595,0.2461 0.20507,0.2461c0.05013,0 0.12533,-0.13673 0.22559,-0.4102c0.11393,-0.32353 0.20508,-0.8795 0.27344,-1.6679l1.1348,0.7998c-0.15039,1.1758 -0.34179,2.0303 -0.57422,2.5635c-0.20507,0.4648 -0.46256,0.6972 -0.77246,0.6972c-0.30533,0 -0.6608,-0.22787 -1.0664,-0.6836c-0.39193,-0.44207 -0.73599,-0.9821 -1.0322,-1.6201c-0.77927,0.9798 -1.6702,1.81833 -2.6728,2.5156l-1.0049,-1.0322c0.87047,-0.52407 1.6338,-1.1393 2.29,-1.8457c-1.11653,0.43753 -2.58853,0.84997 -4.416,1.2373l-0.45117,-1.2715c1.9004,-0.3144 3.5433,-0.68353 4.9287,-1.1074l0.0479,1.0117c0.24609,-0.2734 0.49219,-0.59013 0.73828,-0.9502c-0.38281,-1.32613 -0.64486,-3.2607 -0.78613,-5.8037h-4.4912v0.9707h-1.1074v4.4981c0.41927,-0.1732 0.80207,-0.33727 1.1484,-0.4922l0.15039,1.3398c-1.35353,0.72007 -2.70477,1.3034 -4.0537,1.75l-0.49218,-1.4424c0.51497,-0.1458 1.12111,-0.34403 1.8184,-0.5947v-5.0586h-1.6064v-1.3603h1.6064v-3.2881h1.4287v3.2881h0.97754v-0.8682h4.5596l-0.0273,-0.4785c-0.0228,-0.43293 -0.0456,-1.07097 -0.0684,-1.9141h1.4014c0.02733,1.18493 0.0524,1.98247 0.0752,2.3926zM243.0646,310.2404v4.1289h-3.6504v-4.1289zM240.5763,311.3479v1.9277h1.3535v-1.9277z"/><path d="M249.91,307.3h3.6846c0.4056,-0.64713 0.71322,-1.16893 0.92285,-1.5654l1.5244,0.2187c-0.13672,0.24613 -0.37826,0.6472 -0.72461,1.2032l-0.0889,0.1435h4.8193v1.3467h-5.7285c-0.59701,0.82033 -1.16667,1.53127 -1.709,2.1328c0.86133,-0.51493 1.64747,-0.7724 2.3584,-0.7724c1.10287,0 1.8252,0.5537 2.167,1.6611c1.16667,-0.3874 2.35613,-0.7702 3.5684,-1.1484l0.58789,1.3261l-0.23926,0.068l-0.67676,0.1777c-1.27607,0.3464 -2.2969,0.64263 -3.0625,0.8887c0.05467,0.59247 0.0934,1.3581 0.11621,2.2969l-1.4971,0.082c-0.00467,-0.54233 -0.01377,-1.13023 -0.0273,-1.7637v-0.1367c-2.09633,0.71553 -3.1445,1.4356 -3.1445,2.1602c0,0.37367 0.26888,0.62887 0.80664,0.7656c0.51953,0.13213 1.44923,0.1982 2.7891,0.1982c1.235,0 2.53153,-0.07063 3.8896,-0.2119l0.16406,1.4561c-1.31707,0.10027 -2.68197,0.1504 -4.0947,0.1504c-1.74087,0 -2.97817,-0.13217 -3.7119,-0.3965c-0.90693,-0.32813 -1.3604,-0.9183 -1.3604,-1.7705c0,-0.72007 0.32129,-1.35583 0.96387,-1.9073c0.66536,-0.5696 1.83659,-1.15747 3.5137,-1.7636c-0.09115,-0.35093 -0.21191,-0.59703 -0.3623,-0.7383c-0.16862,-0.15953 -0.39193,-0.2393 -0.66993,-0.2393c-0.45117,0 -1.01857,0.1709 -1.7022,0.5127c-0.84307,0.41927 -1.7477,1.05047 -2.7139,1.8936l-0.90918,-1.0391c1.41733,-1.31707 2.52703,-2.61133 3.3291,-3.8828h-2.7822z"/><path d="M145.11,331.5v3.5889c0.91147,-0.3236 1.53127,-0.84087 1.8594,-1.5518c0.25521,-0.54687 0.39192,-1.59277 0.41015,-3.1377h1.374c-0.01367,1.80013 -0.20052,3.0534 -0.56055,3.7598c-0.48763,0.94793 -1.31933,1.66343 -2.4951,2.1465l-0.58789,-0.8067v0.01h-3.2676v0.7041h-1.3467v-4.71zM141.8424,332.6758v1.668h1.9209v-1.668zM148.5621,324.165v-1.2441h1.3877v1.2441h3.3291v1.2032h-3.3291v0.9707h2.9394v1.1758h-7.0957v-1.1758h2.7686v-0.9707h-3.2471v-1.2032zM153.2242,328.4512v2.8711h-1.374v-1.709h-4.9492v1.8183h-1.333v-2.9804zM140.7212,323.4131h4.1289v1.1484h-4.1289zM140.07862,325.416h5.332v1.2305h-5.332zM140.7212,327.5147h4.1289v1.1347h-4.1289zM140.7212,329.5176h4.1289v1.1074h-4.1289zM149.5806,330.3721h1.3193v4.0537c0,0.1276 0.0319,0.20507 0.0957,0.2324c0.10482,0.04533 0.22331,0.068 0.35547,0.068c0.30078,0 0.49674,-0.0433 0.58789,-0.1299c0.12305,-0.1094 0.20964,-0.72007 0.25977,-1.832l1.2373,0.4306c-0.041,1.22133 -0.17088,1.99607 -0.38965,2.3242c-0.13671,0.20513 -0.35546,0.34413 -0.65625,0.417c-0.25976,0.05933 -0.60613,0.089 -1.0391,0.089c-0.75193,0 -1.23727,-0.07747 -1.456,-0.2324c-0.20964,-0.1504 -0.31446,-0.4284 -0.31446,-0.834z"/><path d="M155.83,323.9h5.3457l0.95703,0.8134c-0.45117,1.5814 -0.82487,2.77087 -1.1211,3.5684c1.13473,0.1914 2.18063,0.5013 3.1377,0.9297c0.05467,-0.58787 0.082,-1.16437 0.082,-1.7295c0,-0.3008 -0.0091,-0.654 -0.0273,-1.0596l1.4971,0.1573c-0.00467,1.30333 -0.05708,2.39933 -0.15723,3.288c0.56511,0.29167 1.15757,0.63577 1.7774,1.0323l-0.58789,1.456c-0.4375,-0.319 -0.91147,-0.63573 -1.4219,-0.9502c-0.35091,1.35353 -0.91145,2.40627 -1.6816,3.1582c-0.54687,0.5378 -1.29427,1.01177 -2.2422,1.4219l-0.85449,-1.1484c1.11653,-0.47853 1.9414,-1.08923 2.4746,-1.8321c0.41927,-0.5924 0.72917,-1.36713 0.92969,-2.3242c-1.11653,-0.56053 -2.24673,-0.93877 -3.3906,-1.1347c-0.74287,2.03253 -1.488,3.57287 -2.2354,4.621c-0.56966,0.793 -1.20996,1.1895 -1.9209,1.1895c-0.68813,0 -1.22133,-0.32813 -1.5996,-0.9844c-0.28711,-0.50127 -0.43066,-1.09827 -0.43066,-1.791c0,-0.85673 0.22103,-1.62237 0.66308,-2.2969c0.52409,-0.80207 1.33073,-1.38767 2.4199,-1.7568c0.62891,-0.20967 1.33301,-0.3236 2.1123,-0.3418c0.41927,-1.09373 0.74056,-2.07357 0.96387,-2.9395h-4.6894zM159.0634,329.4918c-0.58789,0.032 -1.09145,0.14363 -1.5107,0.3349c-0.65625,0.29167 -1.13931,0.7383 -1.4492,1.3399c-0.21875,0.4238 -0.32812,0.87497 -0.32812,1.3535c0,0.3828 0.07519,0.71547 0.22558,0.998c0.11393,0.22333 0.25065,0.335 0.41016,0.335c0.63802,0 1.52212,-1.45377 2.6523,-4.3613z"/><path d="M175.14,326.8h4.9356v1.4013h-4.9356v5.7149h6.2412v1.4287h-13.303v-1.4287h5.4072v-11.02h1.6543z"/><path d="M190.54,323.4h1.2305l0.29395,2.9805h2.7891v1.3877h-2.6728l0.0273,1.2441c0.00467,0.22333 0.007,0.3783 0.007,0.4649c0,1.88213 -0.27799,3.27893 -0.83398,4.1904c-0.4375,0.7246 -1.07323,1.3125 -1.9072,1.7637c-0.22787,0.123 -0.50586,0.25743 -0.83398,0.4033l-0.92969,-1.1758c1.1302,-0.5104 1.91177,-1.13247 2.3447,-1.8662c0.42383,-0.71553 0.63575,-1.83437 0.63575,-3.3565c0,-0.04133 -0.00233,-0.20537 -0.007,-0.4921l-0.0342,-1.1758h-4.4912v-1.3877h4.4365zM183.4238,335.397c-0.22331,-1.71813 -0.33497,-3.59803 -0.33497,-5.6397c0,-2.16467 0.12761,-4.2838 0.38282,-6.3574l1.4834,0.1367c-0.23698,2.16473 -0.35547,4.2269 -0.35547,6.1865c0,1.9916 0.10937,3.81227 0.32812,5.462zM193.1172,325.7651c-0.20507,-0.72913 -0.5332,-1.49473 -0.98437,-2.2968l0.9707,-0.2666c0.43295,0.7428 0.77701,1.4993 1.0322,2.2695zM194.6963,325.2183c-0.25521,-0.86133 -0.60611,-1.6361 -1.0527,-2.3243l1.0117,-0.2529c0.44206,0.67907 0.79753,1.44013 1.0664,2.2832z"/><path d="M198.04,323.6h7.6699l0.73144,1.1348c-2.3698,1.4492 -4.42287,2.76627 -6.1592,3.9512c1.12107,-0.4694 2.24673,-0.7041 3.377,-0.7041c1.01627,0 1.86393,0.16177 2.543,0.4853c0.62891,0.3008 1.11881,0.71097 1.4697,1.2305c0.36459,0.5514 0.54688,1.18487 0.54688,1.9004c0,1.0026 -0.3418,1.84113 -1.0254,2.5156c-0.46941,0.4694 -1.07097,0.82487 -1.8047,1.0664c-0.9616,0.31447 -2.01433,0.4717 -3.1582,0.4717c-1.31707,0 -2.28777,-0.24383 -2.9121,-0.7315c-0.48763,-0.3828 -0.73145,-0.90003 -0.73145,-1.5517c0,-0.4922 0.17773,-0.9297 0.5332,-1.3125c0.53776,-0.5788 1.26466,-0.8682 2.1807,-0.8682c0.97067,0 1.74767,0.32583 2.331,0.9775c0.42383,0.474 0.72917,1.10977 0.91602,1.9073c1.40367,-0.4466 2.1055,-1.27147 2.1055,-2.4746c0,-0.91147 -0.38053,-1.58367 -1.1416,-2.0166c-0.51042,-0.29167 -1.15755,-0.4375 -1.9414,-0.4375c-1.1712,0 -2.2285,0.16177 -3.1719,0.4853c-0.69727,0.237 -1.6338,0.80893 -2.8096,1.7158l-0.96386,-1.1621c1.26693,-1.09373 2.7093,-2.20343 4.3271,-3.3291c1.11653,-0.77473 2.1009,-1.41047 2.9531,-1.9072h-5.8652zM203.2216,334.339c-0.32357,-1.28973 -0.95931,-1.9346 -1.9072,-1.9346c-0.52409,0 -0.90235,0.16633 -1.1348,0.499c-0.10937,0.1504 -0.16406,0.3122 -0.16406,0.4854c0,0.36 0.25521,0.63117 0.76563,0.8135c0.36914,0.1276 0.86361,0.1914 1.4834,0.1914c0.26433,0 0.58334,-0.01833 0.95704,-0.055z"/></g></g></g></svg>