<svg version="1.1" xmlns="http://www.w3.org/2000/svg" xmlns:xlink="http://www.w3.org/1999/xlink" width="208" height="32" viewBox="0,0,208,32"><g transform="translate(-240,-164)"><g data-paper-data="{&quot;isPaintingLayer&quot;:true}" fill-rule="nonzero" stroke="none" stroke-linecap="butt" stroke-linejoin="miter" stroke-miterlimit="10" stroke-dasharray="" stroke-dashoffset="0" style="mix-blend-mode: normal"><path d="M240,196v-32h208v32z" fill="none" stroke-width="0"/><path d="M254.23,185.08c1.3086,0.92447 3.0892,1.67967 5.3418,2.2656l-1.3574,1.8555c-2.95573,-0.83333 -5.29623,-2.20703 -7.0215,-4.1211c-1.02867,-1.1328 -1.7904,-2.42513 -2.2852,-3.877h-2.7539v5.6738c1.6732,-0.30599 3.4473,-0.70962 5.3223,-1.2109l0.13672,1.8555c-3.07293,0.87893 -6.1198,1.5658 -9.1406,2.0606l-0.69336,-2.0215c1.02867,-0.13021 1.74807,-0.22786 2.1582,-0.29297v-6.0644h-3.4375v-1.6602h3.4375v-8.4082h13.496v1.6406h-11.279v1.1621h10.381v1.582h-10.381v1.1816h10.381v1.543h-10.381v1.2988h13.34v1.6602h-2.666l1.543,1.3379c-1.237,0.89193 -2.6172,1.7383 -4.1406,2.5391zM252.8238,183.9277c1.50387,-0.93747 2.76363,-1.84567 3.7793,-2.7246h-5.6934c0.4362,1.00913 1.07423,1.91733 1.9141,2.7246z" fill="#ffffff" stroke-width="1"/><path d="M277.82,179.78v7.8809c0,0.58594 -0.10742,1.01564 -0.32227,1.2891c-0.26042,0.32552 -0.81055,0.48828 -1.6504,0.48828c-0.80727,0 -1.65687,-0.04557 -2.5488,-0.13672l-0.40039,-1.9434c0.931,0.16276 1.70247,0.24414 2.3144,0.24414c0.27344,0 0.44271,-0.05208 0.50782,-0.15625c0.05207,-0.08464 0.0781,-0.2474 0.0781,-0.48829v-7.1777h-8.1738v6.1621h-5.1465v1.6602h-1.7188v-13.682h1.6406v10.156h0.95703v-13.359h1.6992v13.359h1.0059v-10.156h1.5625v4.1016h11.934v1.7578zM273.8747,174.1062c1.582,0.65104 3.19007,1.44204 4.8242,2.373l-1.2793,1.4551c-1.2044,-0.79427 -2.61717,-1.61457 -4.2383,-2.4609c-0.8724,1.21093 -2.22007,2.04753 -4.043,2.5098l-1.0352,-1.5234c1.95313,-0.42969 3.20963,-1.24999 3.7695,-2.4609h-3.8574v-1.6992h4.1016v-1.7969h1.9434v1.7969h4.6777v1.6992h-4.8242c-0.00667,0.03253 -0.0197,0.06834 -0.0391,0.10742zM274.59736,181.1668v5.2344h-4.1797v0.9375h-1.7773v-6.1719zM270.37856,182.7684v2.0312h2.5586v-2.0312z" fill="#ffffff" stroke-width="1"/><path d="M296.76,170.98v9.4629h-11.621v-9.4629zM287.2385,172.523v1.2207h7.4023v-1.2207zM287.2385,175.1207v1.2207h7.4023v-1.2207zM287.2385,177.7183v1.2598h7.4023v-1.2598zM283.3029,181.7417h16.191v1.6992h-8.0762v6.0644h-2.2168v-6.0644h-8.0371v-10.957h2.1387zM280.8029,187.6401c1.54947,-0.71613 3.0306,-1.9173 4.4434,-3.6035l1.7969,1.0449c-1.3932,1.76433 -2.93943,3.15107 -4.6387,4.1602zM297.6389,188.8999c-0.99607,-1.22393 -2.49347,-2.50973 -4.4922,-3.8574l1.6797,-1.1816c1.569,0.90493 3.1087,2.09307 4.6191,3.5644z" fill="#ffffff" stroke-width="1"/><path d="M309.96,173.76c-0.00667,0.07161 -0.01643,0.1595 -0.0293,0.26367c-0.13021,0.97653 -0.29948,2.03773 -0.50781,3.1836l-0.13672,0.75195h6.9141v8.3398h3.3008v1.9629h-19.004v-1.9629h4.6875c0.48828,-1.69273 0.99935,-3.8314 1.5332,-6.416h-3.916v-1.9238h4.2871c0.32552,-1.79687 0.54036,-3.1966 0.64453,-4.1992h-5.7129v-1.9238h15.732v1.9238zM313.9639,179.883h-5.0293c-0.14323,0.7552 -0.2474,1.31837 -0.3125,1.6895c-0.23438,1.2956 -0.57945,2.87113 -1.0352,4.7266h6.377z" fill="#ffffff" stroke-width="1"/><path d="M327.74,171.98c0.24089,-0.57943 0.4362,-1.13283 0.58594,-1.6602l2.3828,0.32226c-0.22787,0.54037 -0.4362,0.98633 -0.625,1.3379h6.5039v6.3672h-11.797v0.98633h14.697v1.582h-14.697v0.99609h14.014c-0.08463,2.9818 -0.27343,4.99353 -0.5664,6.0352c-0.18881,0.66406 -0.54364,1.10353 -1.0645,1.3184c-0.37109,0.15625 -0.93749,0.23437 -1.6992,0.23437c-0.78127,0 -1.51043,-0.04883 -2.1875,-0.14648l-0.39063,-1.6406h-9.7852v1.084h-2.0996v-4.6973h2.0996v2.0117h3.3594v-2.6367h-3.8379v-11.494zM331.8904,186.111v-2.0117h2.0215v3.3984c0.54036,0.05207 0.98956,0.0781 1.3476,0.0781c0.44271,0 0.7194,-0.12695 0.83008,-0.38085c0.21485,-0.47527 0.38412,-1.7155 0.50781,-3.7207h-8.0273v2.6367zM324.7908,173.484v0.96679h9.6387v-0.96679zM324.7908,175.8473v1.0644h9.6387v-1.0644z" fill="#ffffff" stroke-width="1"/></g></g></svg>