<svg version="1.1" xmlns="http://www.w3.org/2000/svg" xmlns:xlink="http://www.w3.org/1999/xlink" width="180" height="24" viewBox="0,0,180,24"><g transform="translate(-240,-168)"><g data-paper-data="{&quot;isPaintingLayer&quot;:true}" fill-rule="nonzero" stroke="none" stroke-linecap="butt" stroke-linejoin="miter" stroke-miterlimit="10" stroke-dasharray="" stroke-dashoffset="0" style="mix-blend-mode: normal"><path d="M240,192v-24h180v24z" fill="none" stroke-width="1"/><path d="M240.77715,174.9057c4.08453,-0.06542 7.94486,-0.17524 11.58097,-0.32945l0.07993,1.3949c-1.60273,0.08411 -2.85029,0.34113 -3.74268,0.77105c-0.85242,0.41123 -1.53613,0.98134 -2.05114,1.71033c-0.58604,0.82713 -0.87907,1.74772 -0.87907,2.76177c0,1.00938 0.33298,1.76641 0.99894,2.2711c0.76363,0.57478 1.93571,0.96966 3.51625,1.18462l-0.313,1.57715c-2.06003,-0.28973 -3.50959,-0.85049 -4.3487,-1.6823c-0.90126,-0.88788 -1.35189,-1.99072 -1.35189,-3.30852c0,-1.1963 0.40845,-2.31316 1.22535,-3.35057c0.59493,-0.76171 1.40961,-1.37388 2.44407,-1.83651c-1.8336,0.06542 -4.19774,0.17524 -7.09244,0.32945zM250.46015,180.95496c-0.26194,-0.73367 -0.70369,-1.56547 -1.32525,-2.49541l1.03889,-0.40655c0.55496,0.80376 1.00115,1.62622 1.33857,2.46737zM252.25823,180.21896c-0.31522,-0.85984 -0.75475,-1.69632 -1.31859,-2.50943l0.99227,-0.37151c0.51944,0.66357 0.96119,1.46734 1.32525,2.41129zM261.38183,178.24226c0.30634,1.09349 0.88794,2.25708 1.74481,3.49077c1.04333,1.50472 2.32641,2.69635 3.84922,3.57488l-0.95231,1.44397c-1.61161,-1.00003 -2.95684,-2.32484 -4.0357,-3.97443c-0.5816,-0.89722 -1.04777,-1.81081 -1.39851,-2.74074c-0.35073,1.25238 -0.8946,2.39026 -1.63159,3.41366c-1.08328,1.51407 -2.42186,2.63093 -4.01571,3.35057l-0.93899,-1.28275c1.66933,-0.73367 3.01678,-1.86455 4.04235,-3.39263c0.8613,-1.28976 1.37187,-2.58419 1.53169,-3.8833h-5.31432v-1.52108h5.37426v-3.37861h1.53836v3.37861h5.48747v1.52108zM278.1173,181.95733v2.98608c0,0.16356 0.03552,0.26403 0.10656,0.30141c0.04438,0.02804 0.19089,0.04205 0.43953,0.04205c0.30634,0 0.48615,-0.01869 0.53943,-0.05608c0.14207,-0.08879 0.23753,-0.73834 0.28636,-1.94866l1.19872,0.37151c-0.04887,1.03274 -0.1199,1.73604 -0.21311,2.10988c-0.11099,0.42057 -0.34851,0.68694 -0.71256,0.79909c-0.27527,0.08879 -0.72146,0.13318 -1.33857,0.13318c-0.43953,0 -0.74809,-0.01869 -0.92568,-0.05608c-0.45285,-0.10281 -0.67928,-0.42758 -0.67928,-0.97433v-3.70806h-0.79249c-0.0488,0.86451 -0.13537,1.51874 -0.25972,1.96268c-0.18647,0.66357 -0.51945,1.21966 -0.99894,1.66828c-0.63044,0.59348 -1.39629,1.02106 -2.29755,1.28275l-0.77917,-1.21967c1.18096,-0.25234 1.98677,-0.73133 2.41742,-1.43696c0.29746,-0.49534 0.48615,-1.2477 0.56607,-2.25708h-1.12546v-8.19418h6.03356v8.19419zM274.91405,174.98281v1.21966h3.30981v-1.21966zM274.91405,177.26793v1.20565h3.30981v-1.20565zM274.91405,179.55305v1.22667h3.30981v-1.22667zM269.83947,175.52956v-2.18699h1.36521v2.18699h1.77144v1.27574h-1.77144v1.98371h1.96456v1.28976h-1.97122c-0.01774,0.52805 -0.04883,0.96031 -0.09328,1.29677c0.73699,0.5888 1.46067,1.30378 2.17102,2.14493l-0.84576,1.21266c-0.48837,-0.73367 -1.02114,-1.40191 -1.5983,-2.00474c-0.38625,1.41593 -1.1854,2.68233 -2.39745,3.79919l-0.95231,-1.09349c0.91458,-0.81311 1.55612,-1.75706 1.92461,-2.83187c0.24862,-0.72432 0.39069,-1.56547 0.42621,-2.52344h-2.24427v-1.28976h2.25093v-1.98371h-1.95125v-1.27574zM283.0254,180.52738c-0.41733,1.28041 -0.89016,2.40896 -1.41849,3.38562l-0.5594,-1.64725c0.83022,-1.45799 1.44734,-3.06085 1.85135,-4.80856h-1.64491v-1.36687h1.77144v-2.88794h1.3652v2.88794h1.22536v1.36687h-1.22536v1.19864c0.57272,0.49534 1.12991,1.06312 1.67156,1.70332l-0.6926,1.2477c-0.3463,-0.5374 -0.67261,-1.00003 -0.97895,-1.38789v6.62404h-1.3652zM291.96919,176.21649h1.4651v4.94175h-3.01678v0.81311h3.82258v1.23368h-3.48961c0.91458,1.21967 2.12218,2.00941 3.62281,2.36923l-0.7259,1.28976c-0.8835,-0.243 -1.69597,-0.67759 -2.4374,-1.30378c-0.51944,-0.43459 -0.96563,-0.96966 -1.33856,-1.60519c-0.3463,0.74769 -0.81913,1.35285 -1.41849,1.81548c-0.63488,0.486 -1.48952,0.87386 -2.56393,1.16359l-0.81913,-1.14256c1.09661,-0.26169 1.93793,-0.58647 2.52397,-0.97433c0.56385,-0.37384 1.0056,-0.91124 1.32525,-1.6122h-3.60282v-1.23368h3.73601v-0.81311h-2.89025v-4.94175h1.41849v-0.79208h-2.01785v-1.19163h2.01785v-1.03041h1.29195v1.03041h1.76478v-1.03041h1.33192v1.03041h2.05114v1.19163h-2.05114zM290.63728,176.21649v-0.79208h-1.76478v0.79208zM292.08241,177.26793h-4.58178v0.90423h4.58178zM287.50063,179.17453v0.93227h4.58178v-0.93227zM302.83094,178.2703h1.51172v3.84825c1.03889,0.48132 2.1022,1.11686 3.18993,1.9066l-0.76585,1.31079c-0.76363,-0.5888 -1.57165,-1.13555 -2.42407,-1.64024c-0.04887,0.82713 -0.30415,1.46266 -0.76585,1.9066c-0.51501,0.49067 -1.23646,0.736 -2.16436,0.736c-0.89682,0 -1.63603,-0.21496 -2.21763,-0.64488c-0.56828,-0.42525 -0.85243,-1.01872 -0.85243,-1.78043c0,-0.79909 0.3574,-1.4393 1.07219,-1.92062c0.55496,-0.37384 1.26531,-0.56077 2.13106,-0.56077c0.40401,0 0.83244,0.0514 1.2853,0.15421zM302.83094,183.02279c-0.52833,-0.1916 -1.0278,-0.28739 -1.49841,-0.28739c-0.46173,0 -0.83244,0.08645 -1.11214,0.25935c-0.35962,0.22431 -0.53943,0.52338 -0.53943,0.89723c0,0.45796 0.2575,0.79208 0.77251,1.00237c0.2575,0.10281 0.56606,0.15421 0.92568,0.15421c0.57716,0 0.99227,-0.25702 1.24534,-0.77105c0.13763,-0.27571 0.20644,-0.59815 0.20644,-0.96732zM295.68522,175.58563h2.54395c0.22643,-0.80844 0.40845,-1.52108 0.54608,-2.13792l1.45844,0.18926c-0.17759,0.68694 -0.35961,1.33649 -0.54608,1.94866h2.43074v1.40892h-2.86361c-0.79471,2.39727 -1.72705,4.42537 -2.79702,6.0843l-1.23868,-0.74301c1.01225,-1.57949 1.8669,-3.35992 2.56394,-5.34129h-2.09777zM306.8067,178.99929c-0.98562,-1.15424 -2.11774,-2.20568 -3.39638,-3.15431l0.87907,-1.00938c1.26975,0.86451 2.42852,1.87155 3.47629,3.02112zM318.92044,184.5719c0.9723,0.35982 1.89132,0.79909 2.75706,1.3178l-0.95231,1.05144l-0.27305,-0.17524c-0.93678,-0.5888 -1.83582,-1.07714 -2.69712,-1.465l0.77917,-0.729h-3.28316l0.77917,0.68694c-1.07441,0.729 -2.21541,1.28509 -3.42302,1.66828l-0.85908,-1.17761c1.21204,-0.25702 2.24872,-0.64955 3.11002,-1.17761h-1.73149v-6.01421h7.54529v6.01421zM314.49183,179.50398v0.70096h4.80155v-0.70096zM314.49183,181.12319v0.76404h4.80155v-0.76404zM314.49183,182.80549v0.79208h4.80155v-0.79208zM312.38741,174.32391v9.6732h-2.37081v1.13555h-1.22536v-10.80875zM310.0166,175.68377v6.91844h1.15876v-6.91844zM316.19668,174.0926v-0.89022h1.37853v0.89022h3.32978v1.13555h-3.32978v0.83414h-1.37853v-0.83414h-3.18994v-1.13555zM314.20547,176.3637v-0.84816h1.22536v0.84816h2.93686v-0.84816h1.23869v0.84816h1.88465v1.16359h-1.88465v0.77806h-1.23869v-0.77806h-2.93686v0.77806h-1.22536v-0.77806h-1.48508v-1.16359zM329.35597,173.20238v3.4417c0,2.03745 0.66373,3.94405 1.9912,5.71981c0.9057,1.21499 2.15548,2.20568 3.74933,2.97206l-1.00559,1.44397c-2.75262,-1.52809 -4.5396,-3.63096 -5.36095,-6.30861c-0.35962,1.53276 -0.90792,2.76878 -1.64491,3.70806c-0.86131,1.09349 -2.11775,1.96502 -3.76932,2.61457l-0.97895,-1.33182c1.86912,-0.65423 3.22323,-1.64959 4.06233,-2.98608c0.52388,-0.83648 0.91235,-1.85286 1.16542,-3.04916c0.18647,-0.87386 0.2797,-1.76174 0.2797,-2.66364v-3.56086zM322.85624,180.19092c0.72367,-1.15424 1.24978,-2.62625 1.57832,-4.41603l1.51838,0.30141c-0.35518,1.99072 -0.92346,3.66834 -1.70484,5.03287zM330.83439,179.70726c0.84799,-1.26172 1.59386,-2.73607 2.23761,-4.42304l1.51172,0.70096c-0.72811,1.65893 -1.5317,3.13795 -2.41076,4.43706zM336.09544,176.30061h2.94353c0.13319,-0.71965 0.28192,-1.61454 0.44618,-2.68466l0.03334,-0.20328l1.45844,0.23132c-0.15095,0.99069 -0.30634,1.87623 -0.46617,2.65663h0.80581c1.06553,0 1.82916,0.25234 2.29089,0.75703c0.4129,0.45329 0.61934,1.15892 0.61934,2.11689c0,1.6122 -0.16205,3.11926 -0.48615,4.52117c-0.18647,0.79442 -0.4129,1.38088 -0.67928,1.7594c-0.33742,0.47198 -0.80581,0.70797 -1.40517,0.70797c-0.71923,0 -1.50506,-0.243 -2.35748,-0.729l0.16649,-1.47902c0.84354,0.42525 1.4984,0.63787 1.96456,0.63787c0.24419,0 0.43287,-0.13785 0.56607,-0.41356c0.14207,-0.29908 0.27748,-0.73133 0.40623,-1.29677c0.25306,-1.1449 0.37959,-2.34821 0.37959,-3.60993c0,-0.66357 -0.12653,-1.09349 -0.37959,-1.28976c-0.21754,-0.16356 -0.60602,-0.24533 -1.16543,-0.24533h-1.02556c-0.70591,3.30852 -1.71817,6.13104 -3.03676,8.46756l-1.33857,-0.77105c1.36299,-2.40662 2.33528,-4.97212 2.91689,-7.69651h-2.65717zM347.15697,183.21905c-0.50169,-1.94399 -1.29417,-3.85293 -2.37746,-5.72682l1.29861,-0.61684c1.11881,1.87856 1.9557,3.76881 2.51066,5.67074zM346.17136,176.50389c-0.27527,-0.75703 -0.71924,-1.59818 -1.33192,-2.52344l1.03223,-0.40655c0.5372,0.79909 0.98783,1.62856 1.35189,2.4884zM347.96278,175.90106c-0.3463,-0.9019 -0.78805,-1.75006 -1.32525,-2.54447l0.97895,-0.34347c0.51057,0.64021 0.95676,1.4393 1.33857,2.39727zM350.6932,175.20011h3.32979c0.09323,-0.80844 0.16426,-1.38789 0.2131,-1.73837l1.47843,0.16122l-0.01998,0.11215l-0.04659,0.3645l-0.05994,0.46964l-0.05994,0.46964l-0.01998,0.16122h5.50746v1.38089h-5.66063c-0.01332,0.15888 -0.04217,0.49768 -0.08655,1.01639l-0.03334,0.44861l-0.01335,0.14019c0.53277,-0.09346 1.07663,-0.14019 1.63159,-0.14019c1.53614,0 2.75484,0.37852 3.6561,1.13555c0.2353,0.20094 0.45063,0.45329 0.64598,0.75703c0.39069,0.6075 0.58604,1.30612 0.58604,2.09586c0,1.40659 -0.55052,2.47905 -1.65157,3.21739c-0.71923,0.48132 -1.71594,0.84348 -2.99014,1.08648l-0.63931,-1.23368c1.16764,-0.20094 2.06002,-0.52104 2.67714,-0.96031c0.73699,-0.52805 1.10549,-1.25705 1.10549,-2.18699c0,-0.60282 -0.15983,-1.13321 -0.47949,-1.59117c-0.18647,-0.27104 -0.43731,-0.49067 -0.75253,-0.6589c-1.10549,2.0281 -2.55505,3.67769 -4.3487,4.94876c-0.57716,0.41123 -1.06109,0.6846 -1.45179,0.82012c-0.38625,0.13085 -0.76363,0.19627 -1.13212,0.19627c-0.67928,0 -1.18985,-0.23833 -1.5317,-0.71498c-0.28414,-0.39254 -0.42621,-0.92994 -0.42621,-1.6122c0,-1.21032 0.43509,-2.27811 1.30528,-3.20337c0.64376,-0.68694 1.41849,-1.21499 2.32419,-1.58416l0.01335,-0.18926c0.05328,-0.80376 0.09768,-1.39958 0.13318,-1.78744h-3.20325zM353.69,179.98063c-0.62156,0.35048 -1.11881,0.78741 -1.49174,1.31079c-0.47505,0.66825 -0.71257,1.33416 -0.71257,1.99773c0,0.73834 0.25306,1.10751 0.75919,1.10751c0.44397,0 0.99005,-0.25234 1.63825,-0.75703c-0.13319,-0.93928 -0.19979,-1.93464 -0.19979,-2.98608c0,-0.14486 0.00227,-0.36917 0.00682,-0.67292zM355.12181,179.4479c-0.0089,0.30375 -0.01335,0.57946 -0.01335,0.82713c0,0.79442 0.0333,1.54211 0.0999,2.24306c1.07441,-1.05144 1.89575,-2.12624 2.46404,-3.2244c-0.28414,-0.03739 -0.56828,-0.05608 -0.85243,-0.05608c-0.59048,0 -1.15654,0.0701 -1.69819,0.21029zM368.23449,179.63015c-0.44398,0.87386 -0.89905,1.53042 -1.36521,1.96969c-0.39957,0.37852 -0.76585,0.56777 -1.09882,0.56777c-0.42622,0 -0.7703,-0.30375 -1.03224,-0.91124c-0.27082,-0.63553 -0.40623,-1.63089 -0.40623,-2.98608c0,-1.36453 0.15095,-2.84355 0.45285,-4.43706l1.45844,0.23132c-0.29302,1.57949 -0.43953,2.91598 -0.43953,4.00947c0,1.47201 0.09989,2.20801 0.29968,2.20801c0.07548,0 0.20423,-0.11215 0.38626,-0.33646c0.28414,-0.33646 0.58381,-0.8318 0.89904,-1.48603zM367.22223,185.11865c1.36299,-0.40188 2.39079,-1.00237 3.08338,-1.80146c0.84798,-0.97667 1.27197,-2.45335 1.27197,-4.43005c0,-1.50005 -0.13763,-3.18468 -0.41289,-5.0539l1.52504,-0.15421c0.29302,1.88791 0.43953,3.64731 0.43953,5.2782c0,2.64494 -0.64598,4.54921 -1.93793,5.7128c-0.78583,0.7103 -1.8447,1.29911 -3.17661,1.76641zM381.22728,173.53183h1.47176v1.76641h4.18886v1.33182h-4.18886v1.66828h3.95578v1.3178h-3.95578v2.16596c1.58054,0.56077 3.13887,1.40425 4.67501,2.53045l-0.78582,1.33182c-1.1632,-0.91592 -2.4596,-1.72435 -3.88919,-2.42531c-0.03554,0.79909 -0.18205,1.41827 -0.43953,1.85754c-0.44841,0.76171 -1.33192,1.14256 -2.65051,1.14256c-1.01669,0 -1.8336,-0.20094 -2.45071,-0.60282c-0.68815,-0.44861 -1.03223,-1.05611 -1.03223,-1.82249c0,-0.91592 0.46395,-1.59351 1.39184,-2.03277c0.62156,-0.28973 1.42959,-0.43459 2.42408,-0.43459c0.39069,0 0.81912,0.03271 1.2853,0.09813v-1.80847h-4.72163v-1.3178h4.72163v-1.66827h-5.00799v-1.33182h5.00799zM381.22728,182.72839c-0.52833,-0.11683 -1.03445,-0.17524 -1.51838,-0.17524c-0.59048,0 -1.06997,0.09112 -1.43846,0.27337c-0.43953,0.21963 -0.6593,0.53273 -0.6593,0.93928c0,0.34113 0.17093,0.61684 0.51279,0.82713c0.3463,0.21496 0.80802,0.32244 1.38519,0.32244c0.68372,0 1.15432,-0.19159 1.41182,-0.57478c0.20423,-0.29908 0.30634,-0.74535 0.30634,-1.33883zM389.76485,173.79119h1.57165v8.35541c0,1.76174 0.87907,2.64261 2.6372,2.64261c1.15876,0 2.10886,-0.5631 2.85029,-1.68931c0.47949,-0.72432 0.91014,-1.84585 1.29195,-3.36459l1.35189,0.86218c-0.45285,1.68697 -0.99671,2.94869 -1.63159,3.78517c-0.99893,1.30378 -2.29755,1.95567 -3.89584,1.95567c-1.66933,0 -2.84585,-0.54207 -3.52957,-1.62622c-0.43065,-0.67759 -0.64597,-1.55145 -0.64597,-2.62158zM400.8397,175.69779h3.11002c0.12431,-0.57946 0.26416,-1.32948 0.41955,-2.25007l1.50507,0.19627c-0.13319,0.72432 -0.27526,1.40892 -0.42621,2.0538h4.43527v1.3949h-4.74827c-0.88794,3.73376 -1.86911,6.82966 -2.94353,9.28768l-1.47176,-0.54675c1.16764,-2.72439 2.13994,-5.63803 2.91689,-8.74093h-2.79702zM412.62712,186.00886c-0.71923,0.09813 -1.52726,0.1472 -2.42408,0.1472c-1.45178,0 -2.54839,-0.13085 -3.28982,-0.39254c-0.28414,-0.10281 -0.52611,-0.24767 -0.72589,-0.43459c-0.3907,-0.37384 -0.58605,-0.85049 -0.58605,-1.42995c0,-0.59348 0.18203,-1.11686 0.54608,-1.57014l1.18541,0.736c-0.13763,0.18225 -0.20644,0.38319 -0.20644,0.60282c0,0.37852 0.16427,0.62385 0.49281,0.73601c0.50169,0.16823 1.21648,0.25234 2.14438,0.25234c0.90126,0 1.8003,-0.0701 2.69712,-0.21029zM406.38046,179.06238c1.74036,-0.21029 3.645,-0.32244 5.7139,-0.33646l0.06657,1.42294c-2.02894,0.00934 -3.8914,0.10981 -5.58737,0.30141z" fill="#ffffff" stroke-width="1"/></g></g></svg>