<?xml version="1.0" encoding="UTF-8"?>
<svg width="480" height="360" version="1.1" viewBox="0 0 480 360" xmlns="http://www.w3.org/2000/svg">
 <g fill="#fff" aria-label="隠岐">
  <path d="m258.02 176.16v6.7773h-4.9414q0.92774 0.95703 1.7578 2.3438l-1.5918 1.0352q-0.74219-1.416-1.9043-2.8027l1.1035-0.57617h-5.1856v-1.4844h8.6816v-1.2598h-8.1152v-1.3574h8.1152v-1.2109h-8.6426v-1.4648h1.6016q-0.3125-0.74219-0.9668-1.7578-0.12695-0.19532-0.23438-0.3711l1.7383-0.63476q0.79101 1.0156 1.3086 2.207l-1.2988 0.55664h4.9902q0.95703-1.8555 1.5234-3.5644l1.8848 0.78125q-1.0352 2.0117-1.5332 2.7832zm-12.969 1.3867q1.6699 2.4609 1.6699 5.0976 0 1.4648-0.40039 2.0898-0.47851 0.72265-1.8457 0.72265-0.56641 0-1.1914-0.11718l-0.38086-1.9238q0.16602 0.0293 0.36133 0.0684 0.48828 0.0977 0.79102 0.0977 0.44921 0 0.57617-0.15625 0.13672-0.15625 0.13672-0.76171 0-2.793-1.4844-4.8828l0.10742-0.33203q0.57618-1.6699 1.0742-3.9258l0.0977-0.46875h-1.7188v16.445h-1.9043v-18.262h4.8633l0.85938 0.78125q-0.59571 2.6758-1.6113 5.5274zm1.9043-5.7324q5.6445-0.33204 9.8047-1.2988l1.3184 1.4844q-4.9609 0.9961-10.322 1.416zm-1.0938 16.104q0.83984-1.4551 1.4746-4.0039l1.6797 0.43945q-0.44922 2.7051-1.416 4.5996zm3.7988-3.8867h1.9434v2.7832q0 0.46875 0.30274 0.5664 0.42969 0.13672 1.416 0.13672 1.2305 0 1.4258-0.35156 0.13671-0.24414 0.19531-1.6504l1.9043 0.65429q-0.01 0.0977-0.0195 0.48829-0.0488 1.7578-0.83007 2.2559-0.64454 0.41015-3.1836 0.41015-1.8652 0-2.5098-0.3418-0.64454-0.34179-0.64454-1.3086zm2.5586-7.9394q-0.45899-1.3672-1.2207-2.5391l1.7578-0.53711q0.74219 0.96679 1.3281 2.4609zm5.8789 12.266q-1.2695-3.0078-2.1582-4.2578l1.6406-0.78125q1.3574 1.8457 2.2363 4.0137z"/>
  <path d="m275.39 184.74q1.9824 1.6797 4.4336 2.6758l-1.1621 1.9629q-2.5098-1.2109-4.6094-3.2324-2.2168 2.1484-5.332 3.4668l-1.2793-1.7383q2.8711-0.8789 5.3125-3.1152-2.041-2.4414-3.0176-5.0098h-0.91797v-1.8848h3.8379v-2.6367h-4.4531v10.889h-5.5469v1.6992h-1.7773v-13.33h1.6797v9.7559h1.084v-13.457h1.7773v13.457h1.123v-9.7559h1.3965v-1.1816h4.7168v-2.8027h2.0606v2.8027h4.8047v1.9238h-4.8047v2.6367h3.1055l0.9375 0.96679q-1.5918 3.7891-3.3691 5.9082zm-1.377-1.3379q1.5723-2.0703 2.168-3.6524h-4.4336q0.8789 2.0996 2.2656 3.6524z"/>
 </g>
</svg>
