<?xml version="1.0" encoding="UTF-8"?>
<svg width="480" height="360" version="1.1" viewBox="0 0 480 360" xmlns="http://www.w3.org/2000/svg">
 <g fill="#fff" aria-label="奄美群島・トカラ列島">
  <path d="m256.92 185.33 2.1387 0.58594q-0.0195 2.4414-1.0644 3.0078-0.84961 0.45899-4.6875 0.45899-3.0469 0-3.8281-0.39063-0.70312-0.35156-0.70312-1.3965v-2.0801h-3.877v1.5039h-2.0996v-7.998q-0.77149 0.38086-1.2988 0.61523l-1.2598-1.7188q4.1797-1.6406 6.0352-3.5644h-5.1953v-1.7774h6.5723q0.52735-0.8789 0.98633-2.1387l2.2363 0.30274q-0.44922 1.0742-0.85938 1.8359h8.9258v1.7774h-5.2344q1.9824 1.6309 6.0352 2.9004l-1.0645 1.8652q-0.82031-0.3125-1.7578-0.71289zm-6.0644-7.8125h4.2773q-2.3633-1.2793-4.1113-3.1641h-2.1777q-1.416 1.7773-3.457 3.1641h3.3887v-2.041h2.0801zm0 1.582v1.6113h3.9844v-1.6113zm-2.0801 0h-3.877v1.6113h3.877zm8.0762 6.416h-5.9961v1.0644q0 0.71289 0.49804 0.84961 0.52735 0.13672 1.9922 0.13672 2.1191 0 2.832-0.14649 0.45899-0.0976 0.54688-0.66406 0.10742-0.60547 0.12695-1.2402zm-8.0762-3.3008h-3.877v1.7188h3.877zm2.0801 0v1.7188h3.9844v-1.7188z"/>
  <path d="m268.84 180.4h-8.3203v-1.6406h8.3203v-1.543h-6.416v-1.5625h6.416v-1.4746h-7.4609v-1.6016h4.1016q-0.51758-0.83984-1.084-1.5039l2.2656-0.63477q0.78125 1.0059 1.2891 2.1387h4.0137q0.77149-1.0938 1.1914-2.1191l2.4219 0.47852q-0.53711 0.86914-1.123 1.6406h4.1602v1.6016h-7.5781v1.4746h6.543v1.5625h-6.543v1.543h8.4473v1.6406h-8.4473v1.6406h8.1055v1.6797h-7.3828q1.0352 1.2793 2.6856 2.1484 2.1777 1.1426 4.9512 1.5723l-1.3184 2.002q-5.6934-1.3867-7.9102-4.8438-0.87891 1.8848-2.959 3.125-1.8848 1.1328-5.2539 1.7969l-1.3184-1.9043q6.2988-0.69336 7.7832-3.8965h-7.5391v-1.6797h7.959z"/>
  <path d="m295.73 175.56v2.5h3.1934v1.7578h-3.1934v2.8125h3.8184v1.8555h-3.8184v5.0195h-2.0605v-5.0195h-3.7891v-1.8555h3.7891v-2.8125h-3.0957v-1.7578h3.0957v-2.5h-3.291v0.85938h-1.123v3.457h-4.7266q-0.32226 1.0938-0.69336 2.002h5.5664v7.3633h-1.9043v-0.85937h-3.1738v1.123h-1.8848v-4.9707q-0.55664 0.81055-1.3086 1.5918l-1.0156-1.8848q1.6602-1.6797 2.5293-4.3652h-1.4258v-1.6602h1.8262q0.10742-0.61523 0.19531-1.5039l0.0293-0.29296h-2.832v-1.7188h2.9395q0.0391-1.0449 0.0391-1.7383h-2.0606v-1.6992h7.9004v3.4375h0.91797v-0.97657h1.7676q-0.5957-1.6309-1.3281-2.7246l1.8555-0.5957q0.6836 1.1719 1.4062 3.3203h1.5625l0.0586-0.15625q0.50781-1.2207 1.1133-3.2422l2.0801 0.57617q-0.46875 1.3184-1.1816 2.8223h1.7969v1.8359zm-11.406 8.0176v3.0664h3.1738v-3.0664zm3.0274-10.615h-2.0703q-0.0195 1.123-0.0391 1.7383h2.1094zm0 3.457h-2.2168q-0.0684 0.89843-0.21484 1.7969h2.4316z"/>
  <path d="m307.74 171.98q0.36133-0.86914 0.58594-1.6602l2.3828 0.32226q-0.34179 0.81055-0.625 1.3379h6.5039v6.3672h-11.797v0.98633h14.697v1.582h-14.697v0.99609h14.014q-0.12696 4.4727-0.56641 6.0352-0.2832 0.99609-1.0644 1.3184-0.55664 0.23437-1.6992 0.23437-1.1719 0-2.1875-0.14648l-0.39063-1.6406h-9.7852v1.084h-2.0996v-4.6973h2.0996v2.0117h3.3594v-2.6367h-3.8379v-11.494zm4.1504 14.131v-2.0117h2.0215v3.3984q0.81054 0.0781 1.3476 0.0781 0.66407 0 0.83008-0.38085 0.32227-0.7129 0.50781-3.7207h-8.0273v2.6367zm-7.0996-12.627v0.96679h9.6387v-0.96679zm0 2.3633v1.0644h9.6387v-1.0644z"/>
  <path d="m325.02 177.79q0.76172 0 1.377 0.50781 0.81054 0.66406 0.81054 1.6992 0 0.63477-0.36133 1.1816-0.65429 1.0156-1.8555 1.0156-0.52735 0-1.0059-0.25391-0.38086-0.19531-0.64453-0.51758-0.53711-0.63476-0.53711-1.4453 0-1.1328 0.94726-1.7969 0.56641-0.39062 1.2695-0.39062z"/>
  <path d="m332.84 171.06h2.2754v5.6055q5.8301 1.7969 9.6582 3.6719l-1.0938 2.1094q-3.6719-1.8652-8.5644-3.5449v9.9219h-2.2754z"/>
  <path d="m347.15 174.87h5.957q0.0781-2.168 0.0781-3.877h2.2656q-0.0195 2.2266-0.10742 3.877h7.1875q-0.0586 6.9238-0.56641 10.615-0.22461 1.6797-0.9082 2.3047-0.71289 0.64453-2.4512 0.64453-1.2598 0-2.6758-0.20508l-0.36133-2.1973q1.6894 0.30273 2.7637 0.30273 0.74219 0 0.9668-0.22461 0.2539-0.24414 0.41992-1.5234 0.47851-3.7891 0.50781-7.7148h-4.9805q-0.37109 4.0234-1.709 6.4453-1.7383 3.1348-5.2246 5.1172l-1.4844-1.7383q2.1875-1.2012 3.7305-3.0176 1.1621-1.3672 1.7188-3.0957 0.53711-1.6309 0.73242-3.7109h-5.8594z"/>
  <path d="m367.48 171.92h12.881v2.002h-12.881zm-1.3965 4.7852h16.26q-0.42969 4.2578-1.7773 6.6602-1.0156 1.8066-2.5391 2.8809-2.5781 1.8359-7.5 2.5195l-0.98633-1.9824q4.3457-0.41992 6.6504-1.9922 2.9883-2.0215 3.4277-6.084h-13.535z"/>
  <path d="m390.08 183.19q-1.3184-1.2988-2.7148-2.2852-0.74218 1.2207-1.7773 2.4316l-1.3184-1.6602q2.9199-3.5254 3.8867-8.2617h-3.3106v-1.9629h10.068v1.9629h-4.6973q-0.26368 1.2988-0.58594 2.3242h3.6426l1.0156 0.82031q-0.66406 4.668-2.4121 7.7832-1.7383 3.0957-5.2148 5.0977l-1.4356-1.6602q3.1152-1.6699 4.8535-4.5898zm0.91797-1.9336q0.66406-1.6699 1.0352-3.7207h-3.0176q-0.36132 0.9375-0.77148 1.7676 1.4453 0.83984 2.7539 1.9531zm4.8535-8.0469h2.1191v11.562h-2.1191zm4.375-1.9727h2.1582v15.918q0 1.0449-0.42968 1.5234-0.50782 0.55664-1.9336 0.55664-0.88867 0-2.7344-0.0879l-0.57617-0.0293-0.41993-2.1387q1.9727 0.21485 3.2129 0.21485 0.54688 0 0.6543-0.27344 0.0684-0.16602 0.0684-0.46875z"/>
  <path d="m411.57 171.98q0.36133-0.86914 0.58593-1.6602l2.3828 0.32226q-0.3418 0.81055-0.625 1.3379h6.5039v6.3672h-11.797v0.98633h14.697v1.582h-14.697v0.99609h14.014q-0.12695 4.4727-0.56641 6.0352-0.2832 0.99609-1.0644 1.3184-0.55664 0.23437-1.6992 0.23437-1.1719 0-2.1875-0.14648l-0.39062-1.6406h-9.7852v1.084h-2.0996v-4.6973h2.0996v2.0117h3.3594v-2.6367h-3.8379v-11.494zm4.1504 14.131v-2.0117h2.0215v3.3984q0.81055 0.0781 1.3477 0.0781 0.66406 0 0.83008-0.38085 0.32226-0.7129 0.50781-3.7207h-8.0273v2.6367zm-7.0996-12.627v0.96679h9.6387v-0.96679zm0 2.3633v1.0644h9.6387v-1.0644z"/>
 </g>
</svg>
