<svg xmlns="http://www.w3.org/2000/svg" viewBox="0 0 208 48" version="1.1" height="48" width="208">
 <rect stop-color="#000000" opacity=".988" fill="none" ry="0" rx="0" height="48" width="208"></rect>
 <g fill="#1c1c1c">
  <path d="m30.613 18.033h2.7832q0.6055-1.5918 1.1426-3.4961l2.0215 0.41992q-0.625 1.875-1.1914 3.0762h3.789v1.7774h-4.0332v2.3438h3.418v1.6797h-3.418v2.3242h3.418v1.6797h-3.418v2.4805h4.3555v1.8164h-9.0332v1.3672h-1.9434v-11.641q-0.4492 0.71289-0.9668 1.416l-1.1328-1.7285q2.2363-2.8223 3.4375-7.1191l2.0215 0.43945q-0.5859 1.8066-1.25 3.1641zm-0.166 12.285h2.8222v-2.4805h-2.8222zm0-4.1602h2.8222v-2.3242h-2.8222zm0-4.0039h2.8222v-2.3438h-2.8222zm-7.2461-3.9746v-3.6816h2.1191v3.6816h2.0606v1.9043h-2.0606v3.2227q0.8496-0.26367 1.7969-0.60547l0.1367 1.8848q-0.6836 0.26367-1.9336 0.72265v6.3672q0 1.0254-0.4785 1.4258-0.4199 0.35156-1.416 0.35156-1.1231 0-2.1289-0.19531l-0.4004-2.0996q1.3086 0.18555 1.7871 0.18555 0.3418 0 0.4297-0.11719 0.088-0.11719 0.088-0.42969v-4.7754q-0.8203 0.26368-2.3438 0.6836l-0.5761-2.041q1.9629-0.43945 2.9199-0.72265v-3.8574h-2.6172v-1.9043z"></path>
  <path d="m51.033 30.66q1.6504 0.27343 3.6035 0.27343h5.0684q-0.4883 0.97657-0.7227 2.0606h-4.3652q-3.9648 0-6.2598-0.94727-2.2265-0.91796-3.6718-3.0273-1.1524 2.7441-2.8321 4.5508l-1.5136-1.8164q2.7539-2.9785 3.4375-7.7148l2.2168 0.3418q-0.3125 1.543-0.6055 2.5684 1.1816 2.0996 3.4863 3.1055v-7.5586h-5.4199v-1.2988h-2.1192v-4.5215h7.4805v-2.1777h2.1778v2.1777h7.6464v4.5215h-2.1191v1.2988h-5.4883v2.9883h6.6895v1.8164h-6.6895zm-7.5586-12.148v2.1289h13.008v-2.1289z"></path>
  <path style="font-feature-settings:normal;font-variant-alternates:normal;font-variant-caps:normal;font-variant-east-asian:normal;font-variant-ligatures:normal;font-variant-numeric:normal;font-variant-position:normal;font-variation-settings:normal;inline-size:0;isolation:auto;mix-blend-mode:normal;shape-margin:0;shape-padding:0;text-decoration-color:#000000;text-decoration-line:none;text-decoration-style:solid;text-indent:0;text-orientation:mixed;text-transform:none;white-space:normal" stop-color="#000000" shape-rendering="auto" image-rendering="auto" color-rendering="auto" color="#000000" d="m123.38 9.832v1.666h-0.9336v1.2461h0.9336v4.8164h-1.1543v1.2949h4.7637l-0.9883 0.66406 0.057 0.0644c0.5118 0.55987 0.9074 1.1413 1.1875 1.7441l0.045 0.0957 0.076-0.0723 0.7871-0.74609c-0.097 0.15087-0.1139 0.36316-0.2265 0.50195l-0.043 0.0547 1.1406 0.99609 0.051-0.0605c0.6113-0.74678 1.0292-1.5609 1.252-2.4395 0.1322-0.52388 0.2211-1.1984 0.2773-1.998h2.1836v2.5664c0 0.14099-0.027 0.23163-0.057 0.27149-0.029 0.0371-0.1272 0.0762-0.3125 0.0762-0.2468 0-0.6789-0.0331-1.2871-0.10352l-0.1036-0.0137 0.2911 1.4551 0.055 8e-3c0.4025 0.0504 0.9064 0.0762 1.5137 0.0762 0.4447 0 0.7739-0.0754 0.9863-0.24218 0.2559-0.20088 0.377-0.53917 0.377-0.99219v-10.483h-5.076v6.123c0 0.94341-0.066 1.7392-0.1953 2.3887-0.1097 0.55112-0.4059 0.95888-0.6426 1.4121-0.3227-0.49149-0.688-0.9418-1.1054-1.3476h1.6816v-1.2949h-0.8965v-4.8145h0.7949v-1.2461h-0.7949v-1.668h-1.3867v1.668h-1.8613v-1.668zm-34.754 0.12305v3.002h-5.1231v1.5h5.0332c-0.1626 1.1128-0.6166 2.2235-1.4121 3.334-0.9696 1.347-2.2433 2.3413-3.8222 2.9883l-0.09 0.0371 0.9903 1.2637 0.055-0.0234c1.5311-0.64453 2.8176-1.6451 3.8574-3 0.6758-0.87479 1.1584-1.8567 1.4961-2.918 0.3296 0.78493 0.7407 1.5586 1.2675 2.3164 1.0343 1.4743 2.3277 2.6587 3.8731 3.5527l0.061 0.0352 0.9961-1.4062-0.074-0.041c-1.442-0.77553-2.6543-1.8255-3.6426-3.1543-0.7878-1.0576-1.3061-2.0491-1.6015-2.9844h4.9844v-1.5h-5.2286v-3.002zm-16.961 0.14258v4.0547h9.6543v-4.0547h-0.076zm26.799 0.13867v5.3633h-2.2324v1.207h2.2324v3.7285c-0.2704 0.0412-0.6987 0.0986-1.336 0.17773l-0.092 0.0117 0.502 1.4356 0.062-0.01c1.9666-0.31607 3.9511-0.75702 5.9512-1.3184l0.059-0.0156-0.098-1.3184c1.102 1.0867 2.5052 1.9133 4.2871 2.4062l0.053 0.0137 0.9785-1.3125-0.1074-0.0293c-1.4075-0.3592-2.4966-0.82775-3.3282-1.3828 0.9375-0.49052 1.8034-1.0028 2.5723-1.5469l0.078-0.0566-0.9219-0.7832h1.6055v-1.209h-8.6719v-0.67969h6.7481v-1.1328h-6.7481v-0.60547h6.7481v-1.1562h-6.7481v-0.5918h7.3321v-1.1953zm11.783 0.041v4.9219c0 1.3356-0.039 2.371-0.1192 3.1055-0.1093 1.0758-0.3838 2.001-0.8222 2.7754l-0.031 0.0547 1.2852 1.0547 0.045-0.0762c0.4914-0.81751 0.8149-1.7176 0.9688-2.6973v-2e-3c0.145-0.9056 0.2168-2.378 0.2168-4.4219v-3.4316h7.5586v8.5898c0 0.16789-0.031 0.27016-0.039 0.28125v2e-3c0 3e-3 -0.034 0.0204-0.096 0.0312-0.063 0.0112-0.152 0.0176-0.2656 0.0176-0.6356 0-1.3276-0.0422-2.0743-0.125l-0.1015-0.0117 0.3164 1.4805 0.059 6e-3c0.7003 0.0584 1.4029 0.0879 2.1074 0.0879 0.5644 0 0.9543-0.0572 1.1875-0.19726 0.3182-0.19282 0.4668-0.58935 0.4668-1.1543v-10.291h-0.076zm-37.014 0.85938h6.5176v0.49414h-6.5176zm57.406 0.50586h2.1484v1.6836h-2.1484zm-15.836 0.13672v0.91015h-2.4433v1.1445h2.4433v0.81641h-2.7285v1.1602h6.9883v-1.1602h-2.7695v-0.81641h2.4941v-1.1445h-2.4941v-0.91015zm-41.57 0.8164h6.5176v0.57813h-6.5176zm51.535 0.14844h1.8613v0.88477h-1.8613zm5.8711 1.8613h2.1484v1.7715h-2.1484v-0.0117zm-60.41 0.084v1.1816h1.3281v4.0977c-0.3811 0.0275-0.8269 0.0564-1.3574 0.084l-0.096 4e-3 0.3945 1.2969 0.062-6e-3c1.7387-0.18323 3.1869-0.39154 4.3789-0.62305v1.375h1.4649v-0.68359l0.5176 0.76367 0.055-0.0215c0.9626-0.34087 1.8014-0.80666 2.5234-1.3828 0.6605 0.5076 1.4562 0.94252 2.4082 1.2949l0.059 0.0215 0.8691-1.2734-0.098-0.0293c-0.9038-0.26888-1.6444-0.59717-2.25-0.97656 0.6735-0.7777 1.2446-1.6905 1.6953-2.7617l0.021-0.0469-0.6836-0.58789h-5.0039v1.1426h0.5761c0.3219 0.80936 0.7931 1.5652 1.3985 2.2715-0.6352 0.48634-1.3314 0.82805-2.086 1.043v-5.002h6.3301v-1.1816zm54.539 4e-3h1.8613v0.89258h-1.8613zm-51.758 1.1777h1.9296v0.60547h-1.9296zm39.699 0.67969v4.0918h1.4277v-0.66016h4.2695v-3.4316h-0.074zm12.059 0.0879h1.8613v0.92188h-1.8613zm-24.711 0.16797h1.6719c0.3252 0.91258 0.8089 1.732 1.4707 2.4473 0.084 0.091 0.2088 0.14711 0.2969 0.23437l-0.076 0.0195c-1.1858 0.3111-2.3025 0.55713-3.3633 0.75zm3.1602 0h3.3203c-0.6129 0.50471-1.3315 1.0222-2.2031 1.5586-0.4837-0.46606-0.8488-0.98853-1.1172-1.5586zm-30.207 0.64844h1.9296v0.61719h-1.9296zm5.4414 0.10351h1.873c-0.2735 0.52826-0.574 0.98839-0.9043 1.375-0.407-0.43371-0.7282-0.89186-0.9687-1.375zm35.686 0.125h2.8242v1.1289h-2.8242zm9.8301 1.1777-0.033 0.0645c-0.4399 0.8305-1.0228 1.5516-1.752 2.1602l-0.066 0.0547 0.064 0.0547 1.0625 0.9668 0.051-0.041c0.7255-0.59396 1.3696-1.4423 1.9316-2.541l0.033-0.0645zm-50.957 0.17383h1.9296v0.58203c-0.3464 0.0434-0.7407 0.0876-1.2011 0.13476-0.1625 0.0185-0.4212 0.0462-0.7266 0.0781zm55.814 0.58789c-0.1493 0.42667-0.3452 0.818-0.5859 1.1758 0.06-0.15705 0.1155-0.31874 0.1933-0.46289 0.1293-0.2394 0.2686-0.46994 0.3926-0.71289zm-4.1191 6.0508-0.035 0.0684c-0.3736 0.73323-0.7829 1.4002-1.2226 2.0137l-0.016-0.0137c-0.089-0.0876-0.1782-0.17435-0.2675-0.25781l-0.059-0.0547-0.8789 1.0039 0.051 0.0488c0.6558 0.6233 1.2483 1.3085 1.7871 2.0469-0.2791 0.3182-0.5404 0.60505-0.7793 0.85547-0.2031 8e-3 -0.3978 0.0156-0.582 0.0234l-0.5176 0.0156 0.295 1.3066 0.064-4e-3c0.6188-0.0374 1.2402-0.0881 1.8633-0.15039l0.068-8e-3v5.4766h1.4277v-5.6406l0.1-0.0156c0.4005-0.0539 0.6749-0.0961 0.873-0.1289 0.078 0.2652 0.1502 0.53201 0.2168 0.80078v4e-3l-1.0976 0.3418 0.019 0.0684c0.2145 0.72659 0.3667 1.4826 0.4551 2.2676l0.01 0.10351 0.098-0.043 0.9356-0.41211c-0.26 0.54751-0.5366 1.0646-0.8848 1.4609l-0.041 0.0469 0.9414 1.1641 0.059-0.0684c0.6885-0.79318 1.2324-1.7752 1.6328-2.9453 0.2492-0.72602 0.4411-1.7136 0.5977-2.8633 0.3081 0.96025 0.7062 1.8618 1.2363 2.6777-0.2788 0.35777-0.5438 0.65789-0.7891 0.88672-0.4041 0.38028-0.9574 0.76775-1.6562 1.1602l-0.078 0.043 1.0293 1.1914 0.059-0.0371c0.9617-0.63464 1.7313-1.3238 2.336-2.0605 0.6177 0.71835 1.3046 1.3426 2.0722 1.8555l0.064 0.043 0.9141-1.3887-0.066-0.0371c-0.8203-0.47967-1.5242-1.0593-2.123-1.7266 0.7051-1.2272 1.1903-2.7448 1.4375-4.5742l0.01-0.082h-1.5235c0.2715-0.86253 0.5417-1.8753 0.8086-3.0684l0.01-0.0449-0.7051-0.56836h-5.1875v1.3203l-0.9336-0.66016-0.043 0.0645c-0.544 0.7987-1.1306 1.5702-1.7539 2.3184-0.1597-0.2125-0.3735-0.4825-0.6543-0.82617 0.6403-0.75392 1.2001-1.4994 1.6661-2.2344l0.041-0.0664zm-22.641 0.043-0.045 0.01c-1.59 0.34764-3.402 0.56359-5.4297 0.64649l-0.1113 6e-3 0.5254 1.1055 0.053-2e-3c0.7866-0.044 1.4811-0.0968 2.1035-0.15625v0.40039h-2.9257v1.1191h2.9257v0.54492h-2.4316v4.2402h2.4316v0.56055h-2.7285v1.1328h2.7285v0.72266c-0.9274 0.0885-1.903 0.1638-2.9316 0.2246l-0.09 6e-3 0.3222 1.3262 0.064-6e-3c1.8701-0.17629 3.8343-0.45289 5.8691-0.81055-0.1042 0.11166-0.2035 0.21875-0.3476 0.35156l-0.064 0.0605 1.1641 0.88281 0.049-0.0449c0.991-0.98505 1.7173-2.2229 2.1816-3.7109 0.3735-1.2024 0.5905-2.7234 0.6661-4.5332h1.082l-0.01 0.23633c-0.042 2.2243-0.1412 3.9372-0.2929 5.1367-0.076 0.6039-0.1592 0.98894-0.2266 1.1211-0.068 0.13017-0.2232 0.20312-0.5098 0.20312-0.366 0-0.7903-0.0441-1.2734-0.13476l-0.1094-0.0215 0.2774 1.4746 0.053 8e-3c0.4227 0.0586 0.8728 0.0859 1.3457 0.0859 0.3641 0 0.6392-0.0283 0.8359-0.0957 0.3789-0.12394 0.6447-0.41994 0.7852-0.85937 0.1615-0.50552 0.2802-1.4516 0.3691-2.8594 0.089-1.4078 0.1449-3.2736 0.166-5.5957v-0.0742h-2.4023l0.057-2.6426h-1.4257l-0.064 2.6426h-1.2949v-0.69141h-2.8438v-0.55468c0.7997-0.0991 1.5438-0.23039 2.2168-0.39649l0.1133-0.0254zm-30.172 0.0586v3.0078h-1.6114v1.416h1.6114v4.2676c-0.03 9e-3 -0.058 0.0161-0.096 0.0293-0.4886 0.14871-1.0579 0.30328-1.7071 0.46875l-0.078 0.0195 0.4902 1.4707 0.072-0.0195c1.4465-0.41625 2.8562-0.93084 4.2305-1.5469l0.051-0.0234-0.1368-1.3516-0.094 0.0332c-0.4019 0.14936-0.8055 0.29289-1.2149 0.43164v-3.7793h1.1836l-0.8496 0.28711 0.336 1.3535 1.1894-0.40234v4.834c0 0.31673 0.033 0.57235 0.1055 0.77149v2e-3c0.1457 0.37958 0.4979 0.61544 1.0176 0.70117 0.348 0.0605 1.0506 0.0879 2.1269 0.0879 1.3891 0 2.3747-0.0308 2.961-0.0937 0.3821-0.0431 0.6789-0.1842 0.875-0.42578 0.3007-0.37217 0.4614-1.1606 0.5293-2.3906v-0.0586l-1.4805-0.41015v0.0957c0 0.50748-0.042 0.94652-0.1133 1.3144-0.053 0.24788-0.1545 0.37916-0.3047 0.42774-0.3002 0.093-0.9625 0.14648-1.9629 0.14648-1.0266 0-1.6898-0.0379-1.957-0.10351-0.1262-0.03-0.2111-0.0833-0.2695-0.16406-0.059-0.0807-0.092-0.1945-0.092-0.34376v-4.8789l1.2129-0.41602v4.5801h1.4277v-5.0625l1.3789-0.46875v2.8398c0 0.13824-0.023 0.23141-0.051 0.27148v6e-3c-0.01 0.0171-0.028 0.0321-0.074 0.0469-0.045 0.0149-0.1132 0.0254-0.2012 0.0254-0.2519 0-0.5004-0.0291-0.7441-0.0898l-0.1133-0.0293 0.2383 1.3555 0.055 8e-3c0.3884 0.0586 0.7563 0.0879 1.1035 0.0879 0.4296 0 0.7486-0.0882 0.9473-0.28321v-2e-3c0.1747-0.176 0.2558-0.43779 0.2558-0.77344v-4.707l-0.7324-0.4375-2.0605 0.69531v-2.8203h-1.4278v3.3047l-1.2129 0.4043v-2.8926h-1.4414v3.3789l-0.6289 0.21289v-1.3984h-1.2305v-3.0098zm45.418 0.0879v4.1602c0 0.39576 0.1155 0.69245 0.3555 0.86328 0.2744 0.19764 0.8097 0.27734 1.6309 0.27734 0.5564 0 1.0107-0.024 1.3672-0.0703 0.3248-0.0431 0.5785-0.15134 0.746-0.33398v-2e-3c0.2713-0.3014 0.3878-0.91118 0.3946-1.8476v-0.0566l-1.3047-0.38672v0.0976c-0.017 0.41814-0.039 0.71975-0.068 0.90039-0.04 0.22249-0.118 0.33407-0.2187 0.3711-0.076 0.031-0.2855 0.0566-0.5996 0.0566-0.3911 0-0.6491-0.022-0.75-0.0527-0.044-0.0135-0.074-0.0333-0.096-0.0742s-0.037-0.10399-0.037-0.18945v-1.0566c1.0528-0.28383 1.9889-0.61306 2.7949-0.99414l0.084-0.041-0.9043-1.1465-0.059 0.0352c-0.5418 0.32449-1.1896 0.61472-1.916 0.88086v-1.3906zm-3.6894 0.0801v4.0547l-0.1777 0.0254c-0.2737 0.0371-0.4993 0.0673-0.6758 0.0879l-0.09 0.0117 0.4219 1.2871 0.064-0.0117c1.5341-0.23288 2.8544-0.50243 3.9628-0.80664l0.061-0.0137-0.074-1.1816-0.084 0.0176c-0.7812 0.1549-1.4326 0.27314-1.9805 0.36328v-1.2383h2.0821v-1.2676h-2.0821v-1.3281zm-28.9 0.0879v1.0391h3.9668v0.38867h-5.1719v2.3828h1.5176v-1.4316h3.6543v2.4219h1.5059v-2.4219h3.7246v1.4316h1.5312v-2.3828h-5.2558v-0.38867h4.0488v-1.0391zm24.797 0.0742v11.939h1.4004v-3.7773l0.2089 0.85937 0.047 0.01c0.2131 0.0427 0.4454 0.0625 0.6953 0.0625 0.3299 0 0.6067-0.053 0.8262-0.16406 0.2196-0.11106 0.3795-0.28153 0.4746-0.50391 0.1206-0.2894 0.1758-0.69608 0.1758-1.2246 0-1.146-0.3341-2.1878-0.9863-3.125 0.3744-0.96336 0.7047-2.114 0.9863-3.4629l0.01-0.0449-0.7383-0.56641zm1.4004 1.2949h0.9179c-0.2389 1.15-0.4977 2.126-0.7793 2.8906l-0.014 0.0352 0.021 0.0332c0.5919 0.85086 0.8887 1.8476 0.8887 3.002 0 0.19039-0.023 0.31955-0.049 0.37109-0.016 0.0314-0.044 0.0581-0.098 0.0781-0.053 0.0201-0.1307 0.0312-0.2304 0.0312-0.1799 0-0.4012-0.0267-0.6582-0.0781zm16.82 0.42969h1.0078c0 0.45737-0.021 1.0988-0.066 1.9668-0.064 1.1149-0.1674 2.0816-0.3106 2.9043-0.1618 0.90704-0.3883 1.7061-0.6777 2.3965-0.1214-0.64522-0.2781-1.3054-0.4883-1.9863l1.1211-0.47852-0.016-0.0605c-0.2718-1.0544-0.6007-1.972-0.9844-2.75l-0.029-0.0606-1.168 0.45117 0.033 0.0723c0.1418 0.30825 0.2604 0.60625 0.3672 0.90039-0.4543 0.0421-0.9883 0.0819-1.5839 0.12109 1.0577-1.0774 2.024-2.1852 2.871-3.332l0.043-0.0606zm2.3711 0h1.7695c-0.2988 1.2949-0.6387 2.4799-1.0254 3.5332l-0.012 0.0352c-0.3277-0.92274-0.5812-1.938-0.7422-3.0723v-0.01c0.01-0.16643 0.01-0.32848 0.01-0.48633zm-44.67 0.89258v0.85355h2.8536v-0.85351zm5.1465 0v0.85355h2.9395v-0.85351zm9.9707 0.12304h2.668v0.94727h1.4102l-0.01 0.0879v2e-3c-0.1258 2.3813-0.5851 4.2722-1.3633 5.6797-0.807 0.13316-1.5597 0.23556-2.2558 0.30469l-0.4512 0.043v-0.58594h2.6289v-1.1328h-2.6289v-0.56055h2.4687v-4.2402h-2.4687zm-15.117 1.0215v0.86526h2.8536v-0.86523zm5.1465 0v0.86526h2.9395v-0.86523zm7.3828 0.51172h1.2247v0.64257h-1.2247zm2.5508 0h1.2637v0.64257h-1.2637zm15.832 0.46484-0.012 0.0684c-0.068 0.35706-0.1812 0.71631-0.33 1.0742h-2.3243v6.0586h1.5157v-0.66406h4.2226v0.66406h1.5293v-6.0586h-3.498c0.1609-0.33577 0.294-0.64283 0.3711-0.88867l0.025-0.084zm-32.34 0.21289v2.7168c0 0.56654-0.029 1.039-0.084 1.416-0.1 0.6946-0.3513 1.2974-0.7578 1.8145l-0.045 0.0566 1.2461 1.0098 0.049-0.0586c0.3607-0.45928 0.6216-0.95624 0.7852-1.4883 0.1325-0.42668 0.2232-1.0032 0.2832-1.6973h1.2519v1.9492l-0.014 2e-3c-0.2451 0.029-0.6991 0.0781-1.3614 0.14844l-0.094 0.01 0.4258 1.2422 0.062-8e-3c1.9189-0.25772 3.6226-0.56259 5.1152-0.91211l0.066-0.0137-0.086-0.87891c0.2183 0.1845 0.4482 0.36048 0.6992 0.52149v2e-3c0.8829 0.56352 2.0073 0.95786 3.373 1.1875l0.049 8e-3 0.8378-1.1953-0.1191-0.0176c-0.9014-0.13132-1.6299-0.3167-2.248-0.5332 0.583-0.31616 1.1147-0.64679 1.5546-1.0059l0.08-0.0645-0.6816-0.44141h1.2637v-1.0273h-10.135v-1.7637h9.5898v-0.97657zm46.859 0.4043h1.707c-0.1739 0.74034-0.4189 1.4212-0.7187 2.0527-0.3855-0.61225-0.715-1.2975-0.9883-2.0527zm-32.902 0.47461h1.2247v0.70507h-1.2247zm2.5508 0h1.2637v0.70507h-1.2637zm-14.389 0.47461v0.96488h8.0546v-0.96484zm29.07 0.74609h4.2226v0.91016h-4.2226zm7.6308 0.01v0.0801c-0.076 1.1203-0.2671 2.2026-0.5703 3.248l-0.018 0.0625 0.059 0.0254 1.2793 0.57031 0.023-0.0801c0.3202-1.0172 0.5127-2.241 0.5761-3.6699v-0.0684zm-34.588 1.6602h1.2969c0.3036 0.50935 0.686 0.96436 1.1328 1.373-0.751 0.13513-1.5603 0.26402-2.4297 0.38476zm2.9043 0h2.3555c-0.3279 0.3034-0.7225 0.62189-1.2344 0.9668-0.4354-0.26164-0.798-0.59265-1.1211-0.9668zm24.053 0.35938h4.2226v0.99804h-4.2226z"></path>
 </g>
</svg>
