<svg version="1.1" xmlns="http://www.w3.org/2000/svg" xmlns:xlink="http://www.w3.org/1999/xlink" width="208" height="32" viewBox="0,0,208,32"><g transform="translate(-240,-164)"><g data-paper-data="{&quot;isPaintingLayer&quot;:true}" fill-rule="nonzero" stroke="none" stroke-linecap="butt" stroke-linejoin="miter" stroke-miterlimit="10" stroke-dasharray="" stroke-dashoffset="0" style="mix-blend-mode: normal"><path d="M240,196v-32h208v32z" fill="none" stroke-width="0"/><path d="M249.45,180.92v2.0996c0,0.41015 -0.0065,0.73567 -0.0195,0.97656c0.71613,-0.8268 1.20117,-1.71873 1.4551,-2.6758l1.7285,0.38086c-0.08464,0.28646 -0.17579,0.55339 -0.27344,0.80078h1.1523v-1.084h1.8555v1.084h3.457v1.377h-3.457v1.1035h2.998v1.3379h-2.998v1.2988h4.1406v1.4844h-10.264v-1.4844h4.2676v-1.2988h-2.8027v-1.3281l-1.2695,-0.92773c-0.03907,1.0742 -0.18881,2.02473 -0.44922,2.8516c-0.30599,0.96353 -0.82033,1.8522 -1.543,2.666l-1.5332,-1.2793c0.8268,-0.89847 1.35413,-1.93687 1.582,-3.1152c0.13021,-0.65105 0.19531,-1.39975 0.19531,-2.2461v-3.418h1.7773l-0.76171,-0.83984c1.10027,-0.16927 2.11263,-0.36784 3.0371,-0.5957c-0.54037,-0.14323 -1.3737,-0.35157 -2.5,-0.625l0.80078,-0.625h-2.1973v-1.4356h4.8438v-1.0644h-0.98633v-1.0156h-3.8965v1.0938h-2.0996v-1.0938h-5.2148v-1.582h5.2148v-1.2402h2.0996v1.2402h3.8965v-1.2402h2.1484v1.2402h5.6738v1.582h-5.6738v0.89844h0.89844v1.1816h4.4336v1.4356h-2.5781l0.91797,0.45898c-0.46875,0.21485 -0.97005,0.42644 -1.5039,0.63477l-0.32227,0.12695l0.67383,0.17578l0.30274,0.0879l0.625,0.17578l1.0059,0.28321l-0.89844,0.74218h1.9629v1.3965zM253.8348,178.6739c-0.931,0.29297 -2.06057,0.57618 -3.3887,0.84961h6.2207l-1.0254,-0.3125c-0.57291,-0.17578 -1.11978,-0.33854 -1.6406,-0.48828zM253.71761,177.5216c0.0456,-0.01953 0.09117,-0.0358 0.13672,-0.0488c0.44922,-0.13672 1.05469,-0.34831 1.8164,-0.63476h-4.7168c1.14587,0.26041 2.0671,0.48828 2.7637,0.68359zM251.65711,183.879c-0.2474,0.40365 -0.50456,0.77148 -0.77149,1.1035h2.6074v-1.1035zM245.75871,180.0118c0.93747,1.25 1.4062,2.5716 1.4062,3.9648c0,0.83987 -0.153,1.43557 -0.45899,1.7871c-0.30599,0.34505 -0.83985,0.51758 -1.6016,0.51758c-0.58593,0 -1.09373,-0.04557 -1.5234,-0.13672l-0.2832,-1.6992c0.1237,0.01953 0.29297,0.04557 0.50781,0.0781c0.32552,0.05207 0.62175,0.0781 0.88868,0.0781c0.24739,0 0.41015,-0.04883 0.48828,-0.14649c0.07812,-0.09765 0.11718,-0.27018 0.11718,-0.51757c0,-1.3086 -0.48827,-2.57163 -1.4648,-3.7891c0.7292,-1.47133 1.17843,-2.68553 1.3477,-3.6426h-1.9434v12.998h-1.9043v-14.541h5.2441l0.68359,0.76172c-0.46223,1.6406 -0.96353,3.06963 -1.5039,4.2871z" fill="#ffffff" stroke-width="1"/><path d="M275.57,173.54v1.1035h3.2812v1.3965h-2.5195c0.78773,0.918 1.7936,1.70577 3.0176,2.3633l-0.9375,1.3965c-1.15233,-0.7422 -2.11263,-1.63087 -2.8809,-2.666v2.168h-1.8164v-1.9726c-0.53385,0.84633 -1.24675,1.55597 -2.1387,2.1289l-1.0254,-1.1426c0.95707,-0.52735 1.78713,-1.28581 2.4902,-2.2754h-2.0312v-1.3965h2.666v-1.1035h-5.0391v1.1035h1.9531v1.3965h-2.002v0.36132c0.74867,0.37109 1.44527,0.81706 2.0898,1.3379l-0.92774,1.2207c-0.32552,-0.34505 -0.71289,-0.69989 -1.1621,-1.0645v1.8457h-1.7969v-2.2559c-0.56641,0.85287 -1.31511,1.60483 -2.2461,2.2559l-0.95704,-1.2402v0.55664c0,2.6302 -0.11393,4.74933 -0.34179,6.3574c-0.20833,1.45833 -0.5892,2.8125 -1.1426,4.0625l-1.8555,-1.3184c0.47526,-1.08727 0.81056,-2.34703 1.0059,-3.7793c0.19531,-1.44533 0.29297,-3.21943 0.29297,-5.3223v-7.1191h7.8613v-1.4355h2.168v1.4355h7.5976v1.6016zM266.7321,173.54h-3.1445v4.9316c1.06773,-0.64453 1.93363,-1.45507 2.5977,-2.4316h-2.1973v-1.3965h2.7442zM272.6305,181.2158v1.1133h5.9766v1.3965h-5.9766v0.95703h6.875v1.4844h-6.875v1.7188c0,0.59245 -0.14974,1.01238 -0.44922,1.2598c-0.28645,0.24089 -0.81705,0.36133 -1.5918,0.36133c-1.19793,0 -2.1387,-0.05534 -2.8223,-0.16601l-0.30273,-1.6211c0.97653,0.13672 1.88147,0.20508 2.7148,0.20508c0.22135,0 0.34831,-0.04232 0.38086,-0.12695c0.03253,-0.07161 0.0488,-0.1888 0.0488,-0.35156v-1.2793h-6.9043v-1.4844h6.9043v-0.95703h-6.0644v-1.3965h6.0644v-0.95703c-1.82293,0.11067 -3.36917,0.17578 -4.6387,0.19531l-0.60547,-1.3965c4.01693,-0.06513 7.59127,-0.33206 10.723,-0.80079l1.1426,1.2988c-1.71227,0.25391 -3.24547,0.4362 -4.5996,0.54688z" fill="#ffffff" stroke-width="1"/><path d="M288.84,177.31v-6.8164h2.1973v6.8164h7.4414v1.9434h-7.4414v2.7734h8.4668v1.9824h-8.4668v5.4883h-2.1973v-5.4883h-8.3398v-1.9824h8.3398v-2.7734h-7.3047v-1.9434zM284.5627,176.67524c-0.80727,-1.7904 -1.65363,-3.27803 -2.5391,-4.4629l2.041,-0.9961c1.0026,1.3802 1.8815,2.8711 2.6367,4.4727zM293.1369,175.91352c1.02867,-1.56253 1.84897,-3.20317 2.4609,-4.9219l2.2852,0.89844c-0.73567,1.6146 -1.6634,3.2357 -2.7832,4.8633z" fill="#ffffff" stroke-width="1"/><path d="M307.74,171.98c0.24089,-0.57943 0.4362,-1.13283 0.58594,-1.6602l2.3828,0.32226c-0.22787,0.54037 -0.4362,0.98633 -0.625,1.3379h6.5039v6.3672h-11.797v0.98633h14.697v1.582h-14.697v0.99609h14.014c-0.08463,2.9818 -0.27343,4.99353 -0.5664,6.0352c-0.18881,0.66406 -0.54364,1.10353 -1.0645,1.3184c-0.37109,0.15625 -0.93749,0.23437 -1.6992,0.23437c-0.78127,0 -1.51043,-0.04883 -2.1875,-0.14648l-0.39063,-1.6406h-9.7852v1.084h-2.0996v-4.6973h2.0996v2.0117h3.3594v-2.6367h-3.8379v-11.494zM311.8904,186.111v-2.0117h2.0215v3.3984c0.54036,0.05207 0.98956,0.0781 1.3476,0.0781c0.44271,0 0.7194,-0.12695 0.83008,-0.38085c0.21485,-0.47527 0.38412,-1.7155 0.50781,-3.7207h-8.0273v2.6367zM304.7908,173.484v0.96679h9.6387v-0.96679zM304.7908,175.8473v1.0644h9.6387v-1.0644z" fill="#ffffff" stroke-width="1"/><path d="M326.44,176.07v-2.7344h-5.8203v-1.8848h18.779v1.8848h-6.4551v2.7344h5.4785v13.164h-2.1191v-1.377h-12.607v1.377h-2.0996v-13.164zM328.4615,176.07h2.4609v-2.7344h-2.4609zM326.4303,177.8473h-2.7344v8.1543h12.607v-2.9297h-3.7012c-1.1198,0 -1.6797,-0.5599 -1.6797,-1.6797v-3.5449h-2.4805c-0.02607,1.6016 -0.26695,2.88417 -0.72266,3.8477c-0.42969,0.918 -1.27605,1.8262 -2.5391,2.7246l-1.3477,-1.5039c1.21093,-0.7422 1.9759,-1.66017 2.2949,-2.7539c0.16927,-0.58594 0.27018,-1.35744 0.30273,-2.3145zM332.944,177.8473v2.9883c0,0.25391 0.11393,0.38086 0.3418,0.38086h3.0176v-3.3691z" fill="#ffffff" stroke-width="1"/><path d="M349.48,175.76c-0.0456,1.08727 -0.1107,2.0443 -0.19531,2.8711h7.8711c-0.09765,4.51827 -0.35156,7.4512 -0.76172,8.7988c-0.20833,0.67707 -0.5957,1.1458 -1.1621,1.4062c-0.44271,0.20182 -1.09051,0.30273 -1.9434,0.30273c-0.89847,0 -1.91733,-0.06836 -3.0566,-0.20507l-0.38085,-2.1973c1.52993,0.21485 2.6074,0.32227 3.2324,0.32227c0.52734,0 0.86264,-0.14974 1.0059,-0.44922c0.34505,-0.7292 0.58593,-2.74093 0.72265,-6.0352h-5.8105c-0.21485,1.17187 -0.51758,2.1875 -0.90821,3.0469c-1.08727,2.37627 -2.90367,4.26103 -5.4492,5.6543l-1.543,-1.7188c2.55207,-1.32813 4.23827,-3.06967 5.0586,-5.2246c0.54687,-1.4388 0.90167,-3.62957 1.0644,-6.5723h-6.4648v-2.002h7.9785v-3.2617h2.2559v3.2617h8.2422v2.002z" fill="#ffffff" stroke-width="1"/><path d="M371.58,174.14v-3.6426h2.0996v3.6426h5.293v8.8379h-5.293v6.5234h-2.0996v-6.5234h-5.1856v-8.8379zM368.4159,176.0834v4.9707h3.1641v-4.9707zM376.8925,181.0541v-4.9707h-3.2129v4.9707zM364.3925,175.2729c-0.79427,-1.1068 -1.8457,-2.16473 -3.1543,-3.1738l1.4551,-1.4844c1.30207,0.918 2.40233,1.94663 3.3008,3.0859zM363.75774,180.2924c-1.1328,-1.31513 -2.23307,-2.3926 -3.3008,-3.2324l1.5039,-1.5039c1.13933,0.8008 2.26563,1.83597 3.3789,3.1055zM360.72064,187.8608c1.25,-1.77733 2.40233,-3.99087 3.457,-6.6406l1.7383,1.3379c-0.89193,2.4414 -1.97917,4.73957 -3.2617,6.8945z" fill="#ffffff" stroke-width="1"/></g></g></svg>