<svg version="1.1" xmlns="http://www.w3.org/2000/svg" xmlns:xlink="http://www.w3.org/1999/xlink" width="97.09616" height="386.38458" viewBox="0,0,97.09616,386.38458"><g transform="translate(-190.62491,-28.3837)"><g data-paper-data="{&quot;isPaintingLayer&quot;:true}" fill="#3b4238" fill-rule="evenodd" stroke-opacity="0.75" stroke="#dce3ff" stroke-width="1" stroke-linecap="round" stroke-linejoin="round" stroke-miterlimit="10" stroke-dasharray="" stroke-dashoffset="0" style="mix-blend-mode: normal"><g><path d="M279.91136,139.87926l-1.44994,0.92996l0.38998,1.07996l1.51994,-0.34999l0.20999,0.65997l-0.53998,0.89996l0.18999,1.15995l1.07996,0.90996l-0.30999,1.22995l0.14999,0.80997l-1.08996,0.64997l-0.77997,-0.76997l-0.87996,-2.34991l0.39998,-0.42998l-0.40998,-1.43994l-1.42994,-1.57994l-0.20999,-1.10996l-0.53998,-0.75997l0.26999,-0.94996l1.02996,1.54994l1.85993,-0.91996l0.53998,0.77997"/><path d="M198.51462,353.07074l-0.99996,1.23995l-1.11996,0.04l-3.03988,1.95992l-0.40998,-0.88996l0.26999,-2.28991l-0.58998,-0.93996l1.78993,-0.94996l1.81993,-1.53994l0.63997,0.20999l1.10996,1.21995l0.52998,1.93992"/><path d="M286.4111,96.381l-0.16999,0.43998l0.97996,0.94996l-0.1,2.31991l-1.13995,1.83993l-1.23995,0.01l-1.91992,-0.91996l0.59998,-1.60994l-0.81997,-1.09996l0.54998,-0.30999l1.35995,0.07l0.06,-1.27995l-0.81997,-1.09996l-0.77997,0.75997l-0.77997,-0.43998l-0.09,-0.80997l1.15995,-0.60998l1.10996,0.04l1.32995,0.59998l0.70997,1.14995"/><path d="M285.51114,91.5812l1.00996,0.94996l-0.05,0.79997l-0.60998,0.90996l-1.32995,-0.03l-0.1,-0.77997l-1.77993,-1.53994l0.37998,-1.61994l0.28999,0.70997l1.03996,1.00996l1.14995,-0.40998"/><path d="M283.51122,89.0813l-1.56994,0.90996l0.37998,-1.16995l-0.11,-1.02996l0.42998,-1.19995l-0.24999,-1.17995l0.40998,-0.31999l0.65997,0.60998l-0.07,1.27995l0.70997,0.45998l-0.58998,1.63993"/><path d="M191.5149,282.67355l-0.38998,-1.09996l0.14999,-1.35995l1.03996,-0.78997l0.90996,1.35995l0.01,1.18995l-1.14995,0.75997l-0.56998,-0.06"/><path d="M209.81416,414.26829l-0.58998,-0.48998l0.16999,-1.38994l0.70997,-0.34999l0.88996,0.35999l-0.21999,1.59994l-0.95996,0.26999"/><path d="M277.01148,28.8837l1.68993,0.57998l0.07,1.13995l-2.15991,-0.92996l0.39998,-0.78997"/><path d="M279.11139,155.37864l0.27999,-0.12l0.62997,0.57998l-0.02,1.14995l-0.50998,0.63997l-0.37998,-2.24991"/></g></g></g></svg>