<svg version="1.1" xmlns="http://www.w3.org/2000/svg" xmlns:xlink="http://www.w3.org/1999/xlink" width="208" height="32" viewBox="0,0,208,32"><g transform="translate(-240,-164)"><g data-paper-data="{&quot;isPaintingLayer&quot;:true}" fill-rule="nonzero" stroke="none" stroke-linecap="butt" stroke-linejoin="miter" stroke-miterlimit="10" stroke-dasharray="" stroke-dashoffset="0" style="mix-blend-mode: normal"><path d="M240,196v-32h208v32z" fill="none" stroke-width="0"/><path d="M256.04,174.76h2.8516v10.645h-6.2988v-10.645h1.7578c0.09115,-0.41016 0.19531,-0.96356 0.3125,-1.6602h-2.5781v1.2598h-2.7539v1.8262h2.6172v5.4004h-2.6172v0.76172c0.90493,0.76173 1.83267,1.6862 2.7832,2.7734l-1.0644,1.543c-0.61198,-0.918 -1.18491,-1.69273 -1.7188,-2.3242v5.166h-1.7578v-5.8984c-0.6966,1.63413 -1.6276,3.18037 -2.793,4.6387l-1.084,-1.7774c1.44533,-1.39973 2.5814,-3.02733 3.4082,-4.8828h-2.1484v-5.4004h2.6172v-1.8262h-2.9199v-0.87891l-1.3965,1.416c-0.89847,-1.2044 -1.78387,-2.18423 -2.6562,-2.9395l1.4551,-1.3965c1.0612,0.92447 1.92707,1.81967 2.5976,2.6856v-0.625h2.9199v-2.1191h1.7578v2.1191h2.5391v-1.2793h7.5781v1.7578h-2.9688c-0.10417,0.47526 -0.25065,1.02866 -0.43945,1.6602zM254.292,176.3225v1.5234h2.9199v-1.5234zM246.499,177.7483v2.2754h1.1719v-2.2754zM250.4443,180.0237v-2.2754h-1.1914v2.2754zM254.2919,179.28151v1.5039h2.9199v-1.5039zM254.2919,182.22101v1.6016h2.9199v-1.6016zM242.7879,179.77961c-0.83987,-1.1328 -1.71877,-2.14517 -2.6367,-3.0371l1.4844,-1.3184c0.8724,0.71613 1.76433,1.68293 2.6758,2.9004zM240.3758,188.13901c0.98307,-2.02473 1.8229,-4.37173 2.5195,-7.041l1.7188,1.0254c-0.59245,2.55207 -1.40625,5.02603 -2.4414,7.4219zM250.7668,188.34408c1.1198,-0.6966 2.0801,-1.63083 2.8809,-2.8027l1.543,0.95703c-0.91147,1.35413 -1.9043,2.42183 -2.9785,3.2031zM258.3742,189.60388c-0.71613,-1.25 -1.49087,-2.3177 -2.3242,-3.2031l1.4844,-0.91796c0.8594,0.82033 1.6374,1.7676 2.334,2.8418z" fill="#ffffff" stroke-width="1"/><path d="M277.82,175.78v8.2129h-2.2363v-1.2109h-10.723c-0.07813,1.3802 -0.24089,2.513 -0.48828,3.3984c-0.31901,1.15887 -0.91798,2.29493 -1.7969,3.4082l-1.6602,-1.5723c0.74867,-0.95707 1.2402,-2.11267 1.4746,-3.4668c0.17578,-0.98307 0.26367,-2.22657 0.26367,-3.7305v-5.0391zM275.5837,177.6648h-10.674v3.2324h10.674zM261.1107,171.4343h17.969v1.9434h-17.969z" fill="#ffffff" stroke-width="1"/><path d="M288.85,173.76v-3.2617h2.1777v3.2617h7.5v13.594c0,0.7682 -0.20833,1.3053 -0.625,1.6113c-0.33854,0.25391 -0.92774,0.38086 -1.7676,0.38086c-1.4388,0 -2.62693,-0.03581 -3.5644,-0.10742l-0.40039,-2.0801c1.45833,0.09115 2.67577,0.13672 3.6523,0.13672c0.26042,0 0.41342,-0.06185 0.45899,-0.18555c0.03253,-0.07812 0.0488,-0.20182 0.0488,-0.37109v-10.977h-5.3125l-0.01,0.14648c-0.03253,0.52735 -0.09764,1.06771 -0.19531,1.6211c1.9336,1.582 3.65887,3.36587 5.1758,5.3516l-1.6602,1.543c-1.08073,-1.569 -2.43817,-3.19987 -4.0723,-4.8926c-0.83987,2.20707 -2.52933,4.0495 -5.0684,5.5273l-1.2891,-1.7188c1.51693,-0.8724 2.63673,-1.8034 3.3594,-2.793c0.95053,-1.30207 1.47463,-2.89713 1.5723,-4.7852h-5.127v13.74h-2.1973v-15.742z" fill="#ffffff" stroke-width="1"/><path d="M317.76,175.8c0,0.30599 -0.0293,1.75783 -0.0879,4.3555h1.8652v1.7578h-1.9043c-0.01953,0.85287 -0.06185,1.81967 -0.12695,2.9004h1.6504v1.7188h-1.7774c-0.07813,0.944 -0.18555,1.569 -0.32226,1.875c-0.30599,0.7292 -1.04819,1.0938 -2.2266,1.0938c-0.7552,0 -1.4518,-0.05534 -2.0898,-0.16601l-0.36133,-1.7383c0.918,0.13021 1.62113,0.19531 2.1094,0.19531c0.39713,0 0.63476,-0.13997 0.71289,-0.41992c0.03907,-0.13672 0.07487,-0.41667 0.10742,-0.83985h-6.9531c-0.00667,0.05207 -0.01643,0.10741 -0.0293,0.16602c-0.0586,0.34505 -0.11394,0.67057 -0.16602,0.97656l-2.0215,-0.19531c0.39713,-2.35027 0.66406,-4.1276 0.80078,-5.332l0.0293,-0.23438h-1.9531v-1.7578h2.1582c0.18229,-1.57553 0.33854,-3.02737 0.46875,-4.3555zM311.5881,177.4992h-2.1387c-0.01953,0.33203 -0.07813,1.0319 -0.17578,2.0996l-0.0586,0.55664h2.168l0.0293,-0.27344c0.013,-0.1888 0.03253,-0.45247 0.0586,-0.79101c0.06513,-0.91147 0.1042,-1.44207 0.11719,-1.5918zM313.5119,177.4992c-0.03253,0.77473 -0.08136,1.63087 -0.14648,2.5684v0.0879h2.2949c0.02607,-0.89193 0.04887,-1.77733 0.0684,-2.6562zM311.2267,181.9133h-2.1973c-0.09765,0.79427 -0.20182,1.57877 -0.3125,2.3535l-0.0781,0.54687h2.2852c0.15625,-1.41273 0.25717,-2.37953 0.30274,-2.9004zM313.2287,181.9133c-0.01953,0.26042 -0.0586,0.69012 -0.11719,1.2891l-0.15625,1.6113h2.4902c0.03253,-0.63151 0.05857,-1.10677 0.0781,-1.4258c0.03907,-0.6966 0.0651,-1.18813 0.0781,-1.4746zM309.4006,172.2746h9.4336v1.8164h-10.244c-0.52735,1.0742 -1.19791,2.09633 -2.0117,3.0664l-1.3965,-1.5234c1.28253,-1.50393 2.194,-3.2357 2.7344,-5.1953l2.0801,0.21485c-0.23437,0.67707 -0.43294,1.21743 -0.5957,1.6211zM304.0197,175.1164c-0.8008,-1.10027 -1.7741,-2.13217 -2.9199,-3.0957l1.4746,-1.4258c1.0612,0.78127 2.07033,1.7676 3.0274,2.959zM303.31657,180.2726c-0.9896,-1.26953 -1.98893,-2.334 -2.998,-3.1934l1.5234,-1.4648c1.1328,0.89193 2.15167,1.90757 3.0566,3.0469zM300.66037,187.9386c1.1328,-1.569 2.20703,-3.63607 3.2227,-6.2012l1.7383,1.2402c-0.84633,2.3698 -1.93357,4.54427 -3.2617,6.5234z" fill="#ffffff" stroke-width="1"/><path d="M328.84,174.08v-3.584h2.1973v3.584h7.2461v10.332h-2.1582v-1.3574h-5.0879v6.4453h-2.1973v-6.4453h-4.9609v1.4648h-2.1582v-10.439zM323.8791,176.082v4.9707h4.9609v-4.9707zM336.1251,181.0527v-4.9707h-5.0879v4.9707z" fill="#ffffff" stroke-width="1"/><path d="M346.98,172.75h4.1797v1.8848h-1.377c-0.2474,0.99607 -0.57943,2.041 -0.9961,3.1348h2.6074v1.8848h-10.898v-1.8848h2.3926c-0.26041,-1.25 -0.53385,-2.29493 -0.82031,-3.1348h-1.2695v-1.8848h4.1406v-2.2559h2.041zM344.0406,174.6348c0.33203,0.97007 0.58919,2.015 0.77148,3.1348h1.9922l0.09766,-0.27344c0.27995,-0.7422 0.54036,-1.5853 0.78125,-2.5293l0.0879,-0.33203zM350.0953,181.295v7.998h-2.002v-0.95703h-4.2578v1.1621h-2.0606v-8.2031zM343.8355,183.0919v3.3887h4.2578v-3.3887zM356.8825,178.1603c0.77473,0.73567 1.38997,1.61133 1.8457,2.627c0.44922,1.0156 0.67383,2.04423 0.67383,3.0859c0,0.96353 -0.17904,1.67317 -0.53711,2.1289c-0.37109,0.47526 -0.98306,0.71289 -1.8359,0.71289c-0.7292,0 -1.43557,-0.05208 -2.1191,-0.15625l-0.47852,-2.0801c0.78773,0.14323 1.43877,0.21485 1.9531,0.21485c0.39063,0 0.63477,-0.09115 0.73242,-0.27344c0.06513,-0.13021 0.0977,-0.39062 0.0977,-0.78125c0,-1.60807 -0.48177,-2.9948 -1.4453,-4.1602c-0.25391,-0.30599 -0.57292,-0.63476 -0.95703,-0.98633l0.11719,-0.27343c0.67707,-1.52993 1.2044,-3.125 1.582,-4.7852h-2.5v16.064h-2.0215v-18.086h5.8789l1.084,0.99609c-0.65755,2.2396 -1.34765,4.15693 -2.0703,5.752z" fill="#ffffff" stroke-width="1"/></g></g></svg>