<svg version="1.1" xmlns="http://www.w3.org/2000/svg" xmlns:xlink="http://www.w3.org/1999/xlink" width="60" height="36" viewBox="0,0,60,36"><g transform="translate(-210,-162.00001)"><g data-paper-data="{&quot;isPaintingLayer&quot;:true}" stroke-miterlimit="10" stroke-dasharray="" stroke-dashoffset="0" style="mix-blend-mode: normal"><path d="M210,198.00001v-36h60v36z" fill-opacity="0" fill="#000000" fill-rule="nonzero" stroke="none" stroke-width="1" stroke-linecap="butt" stroke-linejoin="miter"/><g fill-rule="evenodd" stroke="none" stroke-width="1" stroke-linecap="butt" stroke-linejoin="miter"><path d="M249,166c7.7214,0 14,6.2786 14,14c0,7.7214 -6.2786,14 -14,14h-18c-7.7214,0 -14,-6.2786 -14,-14c0,-7.7214 6.2786,-14 14,-14z" fill="#5792ad"/><path d="M231,168h18c6.648,0 12,5.352 12,12c0,6.648 -5.352,12 -12,12h-18c-6.648,0 -12,-5.352 -12,-12c0,-6.648 5.352,-12 12,-12z" fill="#3e7796"/></g><path d="M234,180c0,-4.97056 4.02944,-9 9,-9c4.97056,0 9,4.02944 9,9c0,4.97056 -4.02944,9 -9,9c-4.97056,0 -9,-4.02944 -9,-9z" fill="#d4dde6" fill-rule="evenodd" stroke="none" stroke-width="1" stroke-linecap="butt" stroke-linejoin="miter"/><path d="M247.0918,177.2728l-5.4545,5.4545l-2.7273,-2.7273" fill="none" fill-rule="nonzero" stroke-opacity="0.66" stroke="#458faa" stroke-width="2" stroke-linecap="round" stroke-linejoin="round"/></g></g></svg>