<svg version="1.1" xmlns="http://www.w3.org/2000/svg" xmlns:xlink="http://www.w3.org/1999/xlink" width="208" height="32" viewBox="0,0,208,32"><g transform="translate(-240,-164)"><g data-paper-data="{&quot;isPaintingLayer&quot;:true}" fill-rule="nonzero" stroke="none" stroke-linecap="butt" stroke-linejoin="miter" stroke-miterlimit="10" stroke-dasharray="" stroke-dashoffset="0" style="mix-blend-mode: normal"><path d="M240,196v-32h208v32z" fill="none" stroke-width="0"/><path d="M245.45,179.12c0.86587,0.59896 1.6764,1.24676 2.4316,1.9434v-0.79101h11.123v9.2285h-1.9629v-0.82031h-7.1777v0.82031h-1.9824v-8.1836l-1.0156,1.6113c-0.48177,-0.57292 -0.95377,-1.08399 -1.416,-1.5332v8.1055h-2.0606v-7.998c-0.77473,0.8724 -1.49087,1.6146 -2.1484,2.2266l-1.0156,-1.8555c2.18747,-1.91407 3.8411,-4.01367 4.9609,-6.2988h-4.5215v-1.9434h2.6367v-3.1348h2.0801v3.1348h1.5039l0.89843,0.9375c-0.61198,1.40627 -1.38998,2.81577 -2.334,4.2285zM249.8641,181.8544v1.8164h2.6465v-1.8164zM249.8641,185.1747v1.8848h2.6465v-1.8848zM257.0418,187.0595v-1.8848h-2.7344v1.8848zM257.0418,183.6708v-1.8164h-2.7344v1.8164zM258.0672,174.1786v4.9609h-9.3262v-4.9609zM250.7039,175.6825v1.9727h5.3418v-1.9727zM247.5887,171.2977h11.699v1.6992h-11.699z" fill="#ffffff" stroke-width="1"/><path d="M267.74,171.98c0.24089,-0.57943 0.4362,-1.13283 0.58594,-1.6602l2.3828,0.32226c-0.22787,0.54037 -0.4362,0.98633 -0.625,1.3379h6.5039v6.3672h-11.797v0.98633h14.697v1.582h-14.697v0.99609h14.014c-0.08463,2.9818 -0.27343,4.99353 -0.5664,6.0352c-0.18881,0.66406 -0.54364,1.10353 -1.0645,1.3184c-0.37109,0.15625 -0.93749,0.23437 -1.6992,0.23437c-0.78127,0 -1.51043,-0.04883 -2.1875,-0.14648l-0.39063,-1.6406h-9.7852v1.084h-2.0996v-4.6973h2.0996v2.0117h3.3594v-2.6367h-3.8379v-11.494zM271.8904,186.111v-2.0117h2.0215v3.3984c0.54036,0.05207 0.98956,0.0781 1.3476,0.0781c0.44271,0 0.7194,-0.12695 0.83008,-0.38085c0.21485,-0.47527 0.38412,-1.7155 0.50781,-3.7207h-8.0273v2.6367zM264.7908,173.484v0.96679h9.6387v-0.96679zM264.7908,175.8473v1.0644h9.6387v-1.0644z" fill="#ffffff" stroke-width="1"/><path d="M296.76,170.98v9.4629h-11.621v-9.4629zM287.2385,172.523v1.2207h7.4023v-1.2207zM287.2385,175.1207v1.2207h7.4023v-1.2207zM287.2385,177.7183v1.2598h7.4023v-1.2598zM283.3029,181.7417h16.191v1.6992h-8.0762v6.0644h-2.2168v-6.0644h-8.0371v-10.957h2.1387zM280.8029,187.6401c1.54947,-0.71613 3.0306,-1.9173 4.4434,-3.6035l1.7969,1.0449c-1.3932,1.76433 -2.93943,3.15107 -4.6387,4.1602zM297.6389,188.8999c-0.99607,-1.22393 -2.49347,-2.50973 -4.4922,-3.8574l1.6797,-1.1816c1.569,0.90493 3.1087,2.09307 4.6191,3.5644z" fill="#ffffff" stroke-width="1"/><path d="M315.07,176.47v1.6016h-9.8438v-1.1719c-1.1328,0.76173 -2.36653,1.41927 -3.7012,1.9726l-1.2598,-1.7773c3.75653,-1.40627 6.5495,-3.6068 8.3789,-6.6016h2.4023c1.45833,1.77733 3.19337,3.19987 5.2051,4.2676c0.91147,0.48829 2.0508,0.99285 3.418,1.5137l-1.0449,1.9336c-1.40627,-0.60547 -2.59117,-1.1849 -3.5547,-1.7383zM314.65984,176.23562c-1.69273,-1.00913 -3.27803,-2.32423 -4.7559,-3.9453c-1.09373,1.57553 -2.347,2.89063 -3.7598,3.9453zM309.14224,182.37822c-0.8268,1.582 -1.74477,3.02407 -2.7539,4.3262l0.3125,-0.01c2.70833,-0.13021 5.17253,-0.32877 7.3926,-0.5957c-0.6836,-0.76827 -1.42903,-1.52023 -2.2363,-2.2559l1.8457,-1.0645c1.84893,1.62107 3.53513,3.39517 5.0586,5.3223l-1.9629,1.377c-0.55989,-0.76173 -1.03516,-1.38347 -1.4258,-1.8652l-0.32226,0.0488c-3.4896,0.55989 -7.75393,1.01236 -12.793,1.3574l-0.69336,-2.0996c0.51432,-0.013 0.99935,-0.03253 1.4551,-0.0586l0.91797,-0.0391c0.95053,-1.40627 1.79037,-2.8874 2.5195,-4.4434h-5.6152v-1.9238h18.34v1.9238z" fill="#ffffff" stroke-width="1"/><path d="M333,179.98v1.3965h5.3223v1.6016h-5.3223v1.4355h6.123v1.7188h-6.123v3.3691h-2.0996v-3.3691h-5.6152v-1.7188h5.6152v-1.4355h-4.7754v-1.6016h4.7754v-1.3965h-4.2188v-1.4844h4.2188v-1.5332h-5.8594v-1.582h5.8594v-1.5039h-4.1211v-1.543h4.1211v-1.8359h2.0996v1.8359h4.8828v3.0469h1.6992v1.582h-1.6992v3.0176zM333,178.4956h2.8418v-1.5332h-2.8418zM333,175.3804h2.8418v-1.5039h-2.8418zM324.0059,175.13626c-0.8138,-1.1198 -1.7871,-2.1517 -2.9199,-3.0957l1.5137,-1.4258c1.22393,0.93747 2.22003,1.9238 2.9883,2.959zM323.3223,180.21436c-0.944,-1.24347 -1.93033,-2.3014 -2.959,-3.1738l1.5039,-1.4648c1.0482,0.79427 2.0736,1.80663 3.0762,3.0371zM320.7051,187.99756c1.25,-2.04427 2.31447,-4.3457 3.1934,-6.9043l1.709,1.2012c-0.8138,2.59113 -1.83593,4.9772 -3.0664,7.1582z" fill="#ffffff" stroke-width="1"/></g></g></svg>