<svg version="1.1" xmlns="http://www.w3.org/2000/svg" xmlns:xlink="http://www.w3.org/1999/xlink" width="208" height="32" viewBox="0,0,208,32"><g transform="translate(-240,-164)"><g data-paper-data="{&quot;isPaintingLayer&quot;:true}" fill-rule="nonzero" stroke="none" stroke-linecap="butt" stroke-linejoin="miter" stroke-miterlimit="10" stroke-dasharray="" stroke-dashoffset="0" style="mix-blend-mode: normal"><path d="M240,196v-32h208v32z" fill="none" stroke-width="0"/><path d="M253.1,179.32c0.013,0.09765 0.02927,0.25716 0.0488,0.47851c0.32552,3.47007 2.44465,6.00913 6.3574,7.6172l-1.3184,1.9434c-1.569,-0.7292 -2.79297,-1.53973 -3.6719,-2.4316c-0.93747,-0.95053 -1.6829,-2.12567 -2.2363,-3.5254c-0.44271,1.41273 -1.16211,2.63343 -2.1582,3.6621c-0.85287,0.8724 -2.13217,1.709 -3.8379,2.5098l-1.3965,-1.7578c1.86847,-0.70313 3.28447,-1.6146 4.248,-2.7344c1.21747,-1.41273 1.8262,-3.29423 1.8262,-5.6445v-0.30273h-1.2402c-0.55339,1.1784 -1.20442,2.2396 -1.9531,3.1836l-1.6406,-1.4648c1.33467,-1.60153 2.25263,-3.4342 2.7539,-5.498l2.0215,0.41992c-0.18881,0.67707 -0.34506,1.1914 -0.46875,1.543h7.334l1.1328,0.87891c-0.7422,1.9922 -1.5202,3.6263 -2.334,4.9023l-1.9043,-0.80078c0.7292,-1.11327 1.2826,-2.16797 1.6602,-3.1641h-3.2227zM245.6879,172.5231v-2.0215h2.1387v2.0215h4.1797v-2.0215h2.1582v2.0215h5.1172v1.7969h-5.1172v1.582h-2.1582v-1.582h-4.1797v1.6406h-2.1387v-1.6406h-4.9414v-1.7969zM240.8246,177.6208h5.6348v2.0801h-5.6348zM240.46327,186.4978c2.20707,-1.1784 4.11463,-2.47073 5.7227,-3.877l1.0156,1.7383c-1.4844,1.3932 -3.2422,2.74087 -5.2734,4.043z" fill="#ffffff" stroke-width="1"/><path d="M274.22,183.85c-0.53385,-1.8164 -0.91145,-4.5117 -1.1328,-8.0859h-4.4824v2.4316h3.9355c-0.03907,3.1706 -0.17253,5.3288 -0.40039,6.4746c-0.11719,0.56641 -0.34831,0.96027 -0.69336,1.1816c-0.27343,0.17578 -0.66407,0.26367 -1.1719,0.26367c-0.54688,0 -1.01238,-0.04883 -1.3965,-0.14648l-0.19531,-1.7969c0.47526,0.07813 0.85936,0.11719 1.1523,0.11719c0.29297,0 0.48178,-0.09115 0.56641,-0.27344c0.15625,-0.3776 0.28321,-1.71873 0.38086,-4.0234h-2.1777c-0.00667,0.11068 -0.01,0.26368 -0.01,0.45899c-0.02607,2.34373 -0.24742,4.28383 -0.66406,5.8203c-0.29948,1.09373 -0.77801,2.1354 -1.4356,3.125l-1.6602,-1.2891c0.71613,-1.08727 1.2044,-2.38283 1.4648,-3.8867c0.21484,-1.24347 0.32226,-2.7604 0.32226,-4.5508v-5.791h6.377c-0.03253,-0.82033 -0.05207,-1.94663 -0.0586,-3.3789h2.002c0.00667,1.47133 0.0262,2.59763 0.0586,3.3789h4.3848v1.8848h-4.2969l0.01,0.20508c0.12369,2.02473 0.32877,3.81183 0.61523,5.3613c0.60547,-1.21747 1.10027,-2.5 1.4844,-3.8476l1.8457,0.79101c-0.80727,2.18747 -1.69593,4.08527 -2.666,5.6934c0.37761,1.04167 0.76174,1.8457 1.1524,2.4121c0.16927,0.25391 0.27994,0.38086 0.33203,0.38086c0.11719,0 0.24414,-0.7259 0.38086,-2.1777l0.0391,-0.41016l1.5234,0.97656c-0.13672,1.543 -0.28321,2.55863 -0.43946,3.0469c-0.24088,0.76173 -0.63475,1.1426 -1.1816,1.1426c-0.92447,0 -1.9694,-1.13933 -3.1348,-3.418c-1.0482,1.3672 -2.1973,2.53907 -3.4473,3.5156l-1.377,-1.5234c1.25653,-0.91147 2.33077,-1.92383 3.2227,-3.0371c0.23437,-0.29297 0.49153,-0.63477 0.77148,-1.0254zM262.726,175.2367v-4.8144h1.9824v4.8144h1.4356v1.9629h-1.4356v6.1133c0.42318,-0.18229 0.83985,-0.37435 1.25,-0.57618l0.18555,1.8652c-1.47133,0.87893 -3.22263,1.6797 -5.2539,2.4023l-0.64453,-2.0605c0.918,-0.27344 1.74483,-0.55013 2.4805,-0.83008v-6.9141h-2.1973v-1.9629zM277.199,173.8207c-0.45573,-0.93747 -1.04167,-1.79683 -1.7578,-2.5781l1.543,-0.82031c0.76173,0.78127 1.38023,1.6146 1.8555,2.5z" fill="#ffffff" stroke-width="1"/><path d="M296.76,170.98v9.4629h-11.621v-9.4629zM287.2385,172.523v1.2207h7.4023v-1.2207zM287.2385,175.1207v1.2207h7.4023v-1.2207zM287.2385,177.7183v1.2598h7.4023v-1.2598zM283.3029,181.7417h16.191v1.6992h-8.0762v6.0644h-2.2168v-6.0644h-8.0371v-10.957h2.1387zM280.8029,187.6401c1.54947,-0.71613 3.0306,-1.9173 4.4434,-3.6035l1.7969,1.0449c-1.3932,1.76433 -2.93943,3.15107 -4.6387,4.1602zM297.6389,188.8999c-0.99607,-1.22393 -2.49347,-2.50973 -4.4922,-3.8574l1.6797,-1.1816c1.569,0.90493 3.1087,2.09307 4.6191,3.5644z" fill="#ffffff" stroke-width="1"/><path d="M311.58,174.14v-3.6426h2.0996v3.6426h5.293v8.8379h-5.293v6.5234h-2.0996v-6.5234h-5.1856v-8.8379zM308.4159,176.0834v4.9707h3.1641v-4.9707zM316.8925,181.0541v-4.9707h-3.2129v4.9707zM304.3925,175.2729c-0.79427,-1.1068 -1.8457,-2.16473 -3.1543,-3.1738l1.4551,-1.4844c1.30207,0.918 2.40233,1.94663 3.3008,3.0859zM303.75774,180.2924c-1.1328,-1.31513 -2.23307,-2.3926 -3.3008,-3.2324l1.5039,-1.5039c1.13933,0.8008 2.26563,1.83597 3.3789,3.1055zM300.72064,187.8608c1.25,-1.77733 2.40233,-3.99087 3.457,-6.6406l1.7383,1.3379c-0.89193,2.4414 -1.97917,4.73957 -3.2617,6.8945z" fill="#ffffff" stroke-width="1"/></g></g></svg>