<svg version="1.1" xmlns="http://www.w3.org/2000/svg" xmlns:xlink="http://www.w3.org/1999/xlink" width="108.92564" height="80.41678" viewBox="0,0,108.92564,80.41678"><g transform="translate(-473.94562,57.57404)"><g data-paper-data="{&quot;isPaintingLayer&quot;:true}" fill="#ff0000" fill-rule="evenodd" stroke="none" stroke-width="0" stroke-linecap="round" stroke-linejoin="round" stroke-miterlimit="10" stroke-dasharray="" stroke-dashoffset="0" style="mix-blend-mode: normal"><path d="M548.7226,-57.57404l0.15999,0.71997l1.59994,0.52998l0.65997,1.02996l1.94992,0.38998h1.48994l1.19995,1.21995l1.36995,-0.73997l1.44994,0.86997l0.93996,-0.08l0.86997,-0.68997l2.03992,0.1l0.59998,0.44998l0.23999,1.54994l0.91996,0.88996l-0.90996,1.26995l0.01,0.78997l-0.83997,0.38998l-0.47998,1.28995l-0.85997,0.45998l-1.28995,-0.16999l-0.29999,1.59994l0.35999,1.57994l-1.21995,1.83993l-0.59998,0.22999l-0.37998,1.75993l1.17995,1.56994l0.67997,1.98992l-0.86997,0.84997l-1.66993,0.09l0.12,0.95996l-0.72997,0.70997l-0.24999,1.01996l-0.80997,0.31999l-0.26999,1.22995l-1.47994,1.64993l-0.13999,1.32995l-0.55998,0.31999l-0.88996,1.74993l0.52998,0.52998l0.22999,1.49994l1.97992,1.56994l0.84997,1.09996l2.5899,1.67993l0.37998,0.97996l-1.16995,0.01l0.08,1.04996l1.09996,1.47994l1.67993,1.26995l0.01,0.65997l1.34995,-0.1l1.03996,1.07996l-0.35999,1.10996l1.85993,-0.06l3.79985,-1.09996l0.50998,-0.47998l1.83993,1.10996l0.51998,-0.57998l1.20995,1.64993l2.32991,-0.24999l2.3999,0.12999l0.72997,-0.67997l1.79993,0.41998l0.25999,1.03996l-0.57998,0.86997l1.16995,1.66993l0.81997,0.27999l0.82997,0.94996l1.06996,2.01992l-0.51998,0.99996l-0.43998,-0.96996l-1.05996,0.45998l0.20999,1.58994l-1.42994,0.13999l-1.07996,0.48998l-1.33995,-0.06l-0.91996,-1.19995l-1.59994,-0.85997l-1.42994,0.75997l-1.87992,0.41998l-1.94992,0.97996l-1.39994,0.20999l-1.60994,-0.28999l-3.06988,0.50998l-2.00992,-0.23999l-3.51986,-3.09988l-2.5699,-1.38994l-1.66993,-2.08992l-1.84993,-1.08996l-3.01988,1.57994l-1.28995,0.48998l-2.00992,-0.86997l-2.81989,-0.83997l0.02,0.95996l-1.30995,-0.39998l-1.63993,-0.04l-1.34995,-1.49994l-1.18995,0.23999l-0.37998,-0.75997l-1.02996,0.03l-1.73993,-0.84997l-1.66993,-1.21995l-3.68985,0.05l-1.91992,2.08992l0.33999,0.38998l-2.21991,3.72985l-0.72997,1.67993l-1.83993,2.3799l-0.03,1.21995l-0.65997,0.65997l0.22999,2.00992l0.50998,0.66997l-0.31999,0.81997l-1.15995,-0.02l-0.62997,0.53998l-0.03,2.4299l-1.11996,0.09l-0.45998,-0.62997l-1.09996,-0.15999l-1.35995,1.08996l-0.89996,0.1l-0.72997,1.09996l-0.91996,-0.19999l-0.64997,-0.86997l-1.14995,0.02l-0.18999,2.27991l-1.17995,1.37994l-1.32995,0.78997l-1.51994,-0.69997l-1.83993,0.38998l-1.11996,0.79997l-2.23991,0.87996l-0.27999,0.69997l-1.54994,0.58998l-0.31999,1.33995l-1.05996,0.99996l-0.36999,1.26995l-1.43994,0.46998l-1.18995,0.03l-1.11996,0.48998l-1.03996,-0.91996l-1.14995,-0.23999l-1.46994,0.52998l-0.08,0.76997l-0.97996,2.24991l-1.15995,1.45994l-1.53994,0.66997l-0.41998,0.92996l-2.17991,-0.66997l-1.10996,-2.5799l-1.79993,-0.05l-0.03,-0.52998l-1.53994,-0.45998l-0.11,-0.49998l-1.33995,-0.51998l1.26995,-2.62989l-0.13999,-2.36991l-0.95996,-1.49994l-0.25999,-1.29995l1.45994,-0.91996l0.12,-1.32995l-1.22995,-3.01988l-1.18995,0.24999l-2.14991,-0.45998l-0.49998,-0.69997l-0.23999,-1.45994l-0.61998,-0.97996l-0.67997,-0.16999l0.03,-1.65993l1.39994,1.25995l1.01996,0.16999l0.79997,-0.53998l2.4299,-0.77997l-0.76997,-1.05996l-0.65997,-1.66993l1.31995,-1.20995l-0.27999,-1.16995l-1.09996,0.18999l-1.02996,-1.83993l0.06,-1.42994l-1.02996,-1.05996l0.37998,-2.13991l-0.23999,-1.01996l0.88996,-1.31995l1.80993,-0.34999l1.42994,-0.75997l0.85997,-1.05996l-0.55998,-1.40994l0.53998,-1.22995l-0.27999,-0.95996l-0.04,-2.5299l0.70997,-2.03992l-0.75997,-1.23995l0.25999,-2.00992l-0.77997,-2.02992l0.26999,-1.64993l-0.37998,-1.55994l0.82997,-1.44994l0.99996,-0.56998l0.86997,-1.12995l0.78997,-0.14999l0.89996,-1.19995l1.04996,0.05l0.89996,-0.67997l1.64993,-0.45998l0.74997,0.56998l2.3799,0.18999l0.80997,-0.36999l1.33995,0.15999l0.39998,0.53998l1.17995,-0.40998l3.44986,0.45998l2.13991,-0.24999l1.23995,0.19999l0.56998,-0.97996l1.33995,-0.23999l1.26995,-2.29991l1.22995,-0.86997l1.81993,-0.57998l0.73997,-1.17995l1.12995,-0.94996l0.31999,-2.4599l-0.79997,0.44998l-0.65997,-0.49998l-1.83993,-0.03l-1.07996,-0.57998l0.37998,-2.17991l-0.75997,-0.59998l0.81997,-1.09996l1.24995,0.35999l0.99996,-0.45998l1.99992,0.22999l2.28991,0.60998l1.74993,-0.94996l1.38994,0.14999l0.25999,0.53998l3.16987,-0.74997l1.48994,0.50998l1.29995,-0.26999l3.14987,0.99996l1.27995,-0.18999l1.42994,0.58998l1.00996,-0.32999l2.5199,0.36999l1.12995,1.70993l1.90992,0.41998l0.26999,-1.28995l2.6199,-0.85997l0.68997,0.08l1.34995,-0.82997l0.42998,-0.79997l1.58994,-0.45998l3.08988,0.25999l0.94996,-0.73997l0.74997,-2.5399l0.66997,-0.93996l1.57994,-1.22995"/></g></g></svg>