<?xml version="1.0" encoding="UTF-8"?>
<svg width="480" height="360" version="1.1" viewBox="0 0 480 360" xmlns="http://www.w3.org/2000/svg">
 <g dominant-baseline="central" fill="#fff" aria-label="熊本県天草・芦北地方">
  <path d="m242.18 173.45q0.87891-1.4551 1.6406-3.0859l2.1094 0.45898q-0.70312 1.3281-1.6602 2.5293 1.9043-0.11719 3.1641-0.24414-0.3418-0.40039-1.0059-1.1035l1.4356-0.88867q1.6602 1.4844 2.8809 3.2617l-1.5234 1.084q-0.42969-0.63476-0.76172-1.084-3.4766 0.49805-7.6758 0.74219l-0.49805-1.6211q1.0449-0.0195 1.543-0.0391 0.23438-0.01 0.35156-0.01zm7.0703 2.3144v6.9141q0 0.78125-0.36133 1.1133-0.35156 0.3125-1.2305 0.3125-0.99609 0-2.0898-0.16601l-0.3418-1.5918q1.0156 0.17578 1.6602 0.17578 0.3125 0 0.37109-0.23437 0.0293-0.10743 0.0293-0.28321v-0.83984h-3.6035v3.0566h-2.0215v-8.457zm-5.5664 1.3184v0.85937h3.6035v-0.85937zm0 2.0605v0.85938h3.6035v-0.85938zm9.1406-6.582q2.334-0.625 4.3164-1.543l1.2402 1.4453q-2.9883 1.1621-5.5566 1.6992v0.61523q0 0.51758 0.26367 0.63477 0.2832 0.11718 1.8164 0.11718 1.6895 0 1.9922-0.17578 0.23438-0.12695 0.29297-0.52734 0.0293-0.17578 0.0977-1.2305l1.8555 0.60547q-0.0195 2.0215-0.70312 2.5-0.73242 0.50781-3.8184 0.50781-2.3926 0-3.1055-0.29297-0.71289-0.30273-0.71289-1.2988v-5.0976h2.0215zm0 6.7188q2.6172-0.64453 4.6191-1.6016l1.377 1.4258q-3.1055 1.2402-5.9961 1.7676v0.79102q0 0.41015 0.34179 0.52734 0.35156 0.10742 1.6504 0.10742 1.4844 0 2.0312-0.11719 0.48828-0.0976 0.58594-0.61523 0.0684-0.36133 0.10742-1.2402l1.8652 0.63476q-0.0195 2.0215-0.57618 2.5195-0.35156 0.3125-1.1914 0.42969-1.0156 0.12695-2.793 0.12695-2.5586 0-3.3106-0.2832-0.73242-0.27344-0.73242-1.25v-4.9023h2.0215zm-12.422 9.1406q1.3672-1.5332 2.2461-3.7207l2.0996 0.76171q-0.83984 2.5488-2.207 4.1797zm6.8652 1.084q-0.46875-2.4512-0.96679-3.9453l2.2266-0.49805q0.75195 2.0703 1.0742 3.8965zm5.0586-0.2832q-0.625-1.9531-1.6406-3.7402l1.9824-0.6836q1.0547 1.5625 1.8555 3.6621zm5.2148 0.0391q-1.0547-2.1973-2.3926-3.877l1.9141-0.94727q1.5234 1.6699 2.7246 3.8281z" dominant-baseline="central"/>
  <path d="m271.78 176.02q3.2031 4.668 7.8711 7.4707l-1.3867 1.8848q-4.7754-3.4961-7.2656-7.5586v5.957h4.0039v1.9238h-3.9648v3.8086h-2.1973v-3.8086h-3.7402v-1.9238h3.7793v-5.8594q-2.4023 4.4434-7.041 7.9394l-1.416-1.7578q4.7168-3.125 7.6367-8.0762h-7.0801v-2.002h7.8418v-3.5156h2.2363v3.5156h7.9688v2.002z" dominant-baseline="central"/>
  <path d="m296.76 170.98v9.4629h-11.621v-9.4629zm-9.5215 1.543v1.2207h7.4023v-1.2207zm0 2.5977v1.2207h7.4023v-1.2207zm0 2.5976v1.2598h7.4023v-1.2598zm-3.9356 4.0234h16.191v1.6992h-8.0762v6.0644h-2.2168v-6.0644h-8.0371v-10.957h2.1387zm-2.5 5.8984q2.3242-1.0742 4.4434-3.6035l1.7969 1.0449q-2.0898 2.6465-4.6387 4.1602zm16.836 1.2598q-1.4941-1.8359-4.4922-3.8574l1.6797-1.1816q2.3535 1.3574 4.6191 3.5644z" dominant-baseline="central"/>
  <path d="m311.65 179.66q1.0156 2.3535 2.6074 3.9746 2.1777 2.2363 5.1172 3.5645l-1.416 2.041q-5.6934-3.0859-7.7051-7.998-1.7188 5.5371-7.9297 8.2422l-1.4258-1.9238q3.3691-1.0547 5.498-3.584 1.5332-1.8066 2.0898-4.3164h-6.7871v-1.9629h7.1191v-4.1113h-7.8223v-1.9629h18.018v1.9629h-7.9394v4.1113h7.2461v1.9629z" dominant-baseline="central"/>
  <path d="m331.05 182.86v1.543h8.4473v1.7773h-8.4473v3.3203h-2.2363v-3.3203h-8.3203v-1.7773h8.3203v-1.543h-6.2598v-7.4609h14.883v7.4609zm-6.377-5.957v1.4551h10.664v-1.4551zm0 2.9199v1.5332h10.664v-1.5332zm0.9961-7.8223v-1.5039h2.1289v1.5039h4.2383v-1.5039h2.1582v1.5039h4.8633v1.6797h-4.8633v1.1719h-2.1582v-1.1719h-4.2383v1.1719h-2.1289v-1.1719h-4.7559v-1.6797z" dominant-baseline="central"/>
  <path d="m345.02 177.79q0.76172 0 1.377 0.50781 0.81055 0.66406 0.81055 1.6992 0 0.63477-0.36133 1.1816-0.65429 1.0156-1.8555 1.0156-0.52734 0-1.0059-0.25391-0.38085-0.19531-0.64453-0.51758-0.53711-0.63476-0.53711-1.4453 0-1.1328 0.94727-1.7969 0.56641-0.39062 1.2695-0.39062z" dominant-baseline="central"/>
  <path d="m355.81 172.04v-1.543h2.1387v1.543h3.9648v-1.543h2.1582v1.543h4.9414v1.7188h-4.9414v1.0742h-2.1582v-1.0742h-3.9648v1.3379h-2.1387v-1.3379h-4.8535v-1.7188zm11.006 3.1348 1.1719 1.748q-6.0742 0.49804-12.217 0.65429l-1.0156 0.0293v1.5723h12.939v6.6602h-2.1777v-1.2207h-10.957q-0.18555 1.1035-0.51758 1.9629-0.625 1.6211-2.1289 2.9785l-1.7188-1.582q1.4551-1.3379 1.9629-3.0957 0.40039-1.3476 0.40039-3.2617v-5.5762l0.74219-0.0195q7.9492-0.19531 13.516-0.84961zm-1.2988 5.6445h-10.762v0.95703q0 0.69336-0.0293 1.1426h10.791z" dominant-baseline="central"/>
  <path d="m375.84 184.3q-2.6953 1.416-4.6973 2.168l-0.82031-2.1484q3.1348-1.0547 5.5176-2.1875v-4.375h-4.834v-2.0606h4.834v-5.1953h2.1777v19.004h-2.1777zm6.9434-7.6074q2.2754-1.1914 4.4141-3.0273l1.6211 1.6992q-2.8906 2.0508-6.0352 3.4961v7.3242q0 0.47852 0.3125 0.58594 0.33203 0.10742 1.5332 0.10742 1.582 0 1.9824-0.18555 0.2832-0.12695 0.39062-0.79101 0.14649-0.92774 0.21485-2.998l2.1875 0.67383q-0.0977 2.5293-0.3125 3.6328-0.24414 1.2305-1.2793 1.5918-0.98633 0.33203-3.2324 0.33203-2.6367 0-3.3203-0.43945-0.6543-0.42969-0.6543-1.6504v-16.543h2.1777z" dominant-baseline="central"/>
  <path d="m400.23 178.41v7.7344q0 0.75195 0.64454 0.9082 0.66406 0.16602 3.0371 0.16602 2.3144 0 3.0566-0.23438 0.41992-0.13672 0.54687-0.76172 0.16602-0.8789 0.17578-2.0801l2.041 0.57618q-0.15625 2.8809-0.79102 3.6816-0.41992 0.52734-1.2695 0.625-1.3379 0.14648-4.541 0.14648-2.4805 0-3.252-0.13672-1.1621-0.19531-1.4746-1.0254-0.15625-0.43945-0.15625-1.1719v-7.7441l-1.8652 0.64453-0.45899-1.8945 2.3242-0.80078v-5.2637h1.9824v4.5801l2.0996-0.71289v-5.1465h1.9629v4.4629l3.2715-1.123 1.0254 0.625v7.3144q0 0.76172-0.36133 1.1328-0.41015 0.41015-1.377 0.41015-0.79102 0-1.6797-0.13672l-0.32226-1.8652q0.57617 0.14648 1.1719 0.14648 0.42969 0 0.52734-0.17578 0.0977-0.14648 0.0977-0.48828v-4.6191l-2.3535 0.82031v7.9004h-1.9629v-7.2266zm-7.1777-3.1934v-4.7168h2.0996v4.7168h1.8945v1.9824h-1.8945v6.2109q1.0254-0.35156 2.0312-0.73242l0.18555 1.8848q-3.1641 1.4453-6.4941 2.4219l-0.6836-2.0801q1.5039-0.39062 2.6367-0.74218 0.13672-0.0488 0.22461-0.0684v-6.8945h-2.4805v-1.9824z" dominant-baseline="central"/>
  <path d="m419.48 175.76q-0.0684 1.6309-0.19531 2.8711h7.8711q-0.14648 6.7774-0.76172 8.7988-0.3125 1.0156-1.1621 1.4062-0.66406 0.30273-1.9434 0.30273-1.3477 0-3.0566-0.20507l-0.38085-2.1973q2.2949 0.32227 3.2324 0.32227 0.79101 0 1.0059-0.44922 0.51757-1.0938 0.72265-6.0352h-5.8105q-0.32227 1.7578-0.90821 3.0469-1.6309 3.5644-5.4492 5.6543l-1.543-1.7188q3.8281-1.9922 5.0586-5.2246 0.82031-2.1582 1.0644-6.5723h-6.4648v-2.002h7.9785v-3.2617h2.2559v3.2617h8.2422v2.002z" dominant-baseline="central"/>
 </g>
</svg>
