<svg version="1.1" xmlns="http://www.w3.org/2000/svg" xmlns:xlink="http://www.w3.org/1999/xlink" width="121.35517" height="74.19708" viewBox="0,0,121.35517,74.19708"><g transform="translate(172.37856,-130.97835)"><g data-paper-data="{&quot;isPaintingLayer&quot;:true}" fill="#ff0000" fill-rule="evenodd" stroke="none" stroke-width="0" stroke-linecap="round" stroke-linejoin="round" stroke-miterlimit="10" stroke-dasharray="" stroke-dashoffset="0" style="mix-blend-mode: normal"><path d="M-70.45261,134.81825l0.55998,1.15995l1.92992,-1.14995l0.71997,0.81997l1.09996,0.02l1.98992,-0.63997l1.54994,-0.16999l1.22995,0.69997l1.26995,-1.32995l1.38994,0.46998l0.69997,1.43994l0.82997,0.69997l-0.21999,0.63997l0.75997,0.90996l1.06996,0.52998l1.77993,2.4399l0.19999,0.66997l1.06996,0.33999l0.54998,1.06996l0.05,1.91992l-1.08996,1.61994l-0.76997,0.31999l0.17999,0.85997l-0.75997,1.08996l1.20995,2.31991l-0.74997,0.98996l0.11,1.92992l-0.71997,1.10996l0.21999,1.78993l1.13995,1.85993l1.45994,1.17995l0.66997,1.02996l-0.17999,0.34999l-1.46994,0.64997l-1.45994,-0.01l-1.04996,-0.72997l-1.12995,-0.02l-0.05,0.81997l-0.71997,1.99992l-1.62993,0.69997l-1.02996,1.35995l-1.29995,-1.27995l0.48998,-0.39998l-1.04996,-2.3899l-1.45994,-1.68993l-1.14995,1.06996l-2.26991,0.42998l-1.33995,-0.58998l-0.56998,1.01996l-1.46994,0.75997v1.18995l-0.72997,0.64997l0.99996,1.71993l-0.36999,0.70997l-0.32999,2.13991l1.02996,0.44998l1.96992,2.02992l-0.22999,0.92996l-1.62993,0.52998l-1.36995,-0.18999l-1.58994,1.84993l-0.18999,0.66997l-1.26995,0.05l-0.70997,1.83993l0.38998,1.01996l-0.51998,0.90996l0.47998,1.24995l-1.55994,2.07992l-0.12,1.88992l-2.25991,1.02996l-0.19999,-0.82997l-1.16995,0.17999l-1.68993,-1.48994l-1.08996,-0.42998l-0.22999,-0.64997l-3.31987,0.17999l-0.26999,0.97996l-1.29995,0.50998l-0.25999,0.92996l-1.33995,0.27999l-1.29995,-1.11996l-0.20999,-2.21991l-1.47994,0.56998l-2.72989,-0.78997l-1.80993,2.4499l0.09,1.72993l-0.65997,0.39998l-0.04,1.14995l0.51998,0.38998l-0.62997,1.64993l0.52998,0.75997l-1.25995,0.41998l-0.48998,-0.36999l-1.33995,0.88996h-1.03996l-2.5799,-1.97992l-0.93996,0.02l-0.65997,0.85997l-0.08,1.03996l-0.80997,1.16995l0.08,1.67993l-1.30995,0.90996l-1.74993,0.14999l-1.85993,2.07992l-1.16995,0.35999l-1.31995,-0.02l-0.62997,0.85997l-0.14999,1.04996l-0.67997,0.38998l-0.94996,-0.67997l0.51998,-0.59998l-0.87996,-2.32991l1.07996,-2.23991l-0.12,-0.71997l-1.37994,-1.71993l-1.42994,-0.34999l-1.07996,0.88996l-0.82997,-0.29999l-1.31995,0.58998l-1.88992,-0.48998l-0.49998,0.59998l-0.04,1.23995l-1.19995,0.09l-0.53998,1.22995l-1.26995,1.35995l-0.88996,-1.03996l-3.06988,-1.28995l-1.36995,-2.81989l-0.53998,-0.07l-0.75997,1.27995l-1.35995,-0.30999l-1.78993,-1.54994l-1.58994,-0.24999l-0.76997,1.27995l-1.77993,1.36995l-1.30995,-1.35995l-1.04996,0.48998l-1.51994,-0.57998l-0.99996,1.48994l-0.27999,1.03996l0.33999,1.45994l-0.09,1.07996l-1.49994,1.71993l-0.70997,0.36999l-1.50994,-1.15995l-0.97996,0.31999l-1.17995,-0.40998l-2.5999,0.54998l-2.6099,1.02996l-2.96988,1.52994l-0.95996,1.53994l-0.06,1.14995l-2.3999,-0.81997l-0.92996,0.53998l-0.17999,1.25995l-0.77997,0.36999l-0.83997,-0.60998l-1.72993,-1.96992l-0.35999,-0.84997l1.76993,-1.67993l-1.71993,-0.32999l-1.10996,-0.96996l-0.69997,-1.90992l-0.66997,0.16999l-0.49998,-1.10996l-1.19995,-1.27995l0.41998,-1.48994l-0.90996,-0.62997l-0.34999,-1.31995l1.37994,-2.68989l-0.40998,-0.67997l0.75997,-0.71997l2.09992,-3.86985l0.56998,-1.34995l-0.35999,-0.55998l-1.52994,0.12999l-1.25995,-1.01996l0.09,-0.74997l1.09996,-0.46998l0.15999,-0.72997l2.81989,-1.65993l0.64997,-0.83997l0.68997,0.33999l1.17995,-0.57998l0.68997,-1.24995l0.64997,0.47998l1.25995,-0.58998l0.42998,-1.80993l1.60994,-2.32991l-0.01,-2.78989l1.67993,-0.02l1.89992,1.12995l0.1,1.59994l1.90992,0.89996l0.71997,-1.98992l0.98996,-0.97996l0.90996,1.07996l0.88996,0.29999l1.29995,-0.40998l0.54998,-0.55998l2.07992,-0.38998l0.98996,0.77997l-0.15999,1.09996l1.71993,0.29999l1.58994,-1.67993l1.01996,-0.23999l-0.34999,-1.53994l0.86997,-0.29999l0.66997,-0.81997l0.85997,0.92996l2.05992,1.41994l1.76993,0.54998l1.14995,-0.51998l1.00996,0.65997l1.53994,-0.92996l1.73993,1.04996l1.61994,-1.61994l1.43994,-0.29999l1.16995,-0.61998l0.55998,-0.86997l3.37986,-2.4999l1.15995,0.05l1.17995,0.65997l0.44998,-0.28999l1.22995,0.93996l0.75997,0.01l0.77997,-1.86993l1.43994,-0.31999l0.43998,0.81997l1.65993,-0.76997l-0.84997,-3.65985l-2.05992,-0.54998l-0.68997,-1.22995l-1.05996,0.57998l-1.27995,-1.33995l-1.37994,0.25999l1.37994,-2.5999l0.95996,-0.40998l0.61998,-0.91996l0.88996,-0.23999l0.91996,-2.16991l2.13991,-0.52998l1.38994,0.83997l0.72997,-1.02996l1.27995,-0.55998l0.91996,0.1l0.61998,-2.07992l1.27995,-0.81997l-0.52998,-1.07996l2.4499,-1.46994l-0.09,-1.02996l0.60998,-0.78997l1.56994,-1.06996l0.48998,-1.46994l2.4199,-1.25995l-1.00996,-1.25995l1.14995,-1.13995l0.65997,-1.24995l1.24995,-0.99996l0.28999,-0.82997l2.72989,-1.20995l0.87996,0.18999l1.20995,2.17991l1.70993,0.62997l0.69997,-0.33999l1.39994,0.98996l2.73989,-0.89996l0.73997,-1.75993l1.76993,0.04l1.44994,1.16995l0.17999,1.12995l0.74997,0.08l0.91996,1.15995l1.92992,-0.23999l0.75997,-1.32995l1.14995,-0.13999l1.38994,0.49998l1.07996,-0.87996l1.05996,0.36999l1.53994,-0.19999l0.43998,0.86997l0.97996,0.31999"/></g></g></svg>