<svg version="1.1" xmlns="http://www.w3.org/2000/svg" xmlns:xlink="http://www.w3.org/1999/xlink" width="208" height="32" viewBox="0,0,208,32"><g transform="translate(-240,-164)"><g data-paper-data="{&quot;isPaintingLayer&quot;:true}" fill-rule="nonzero" stroke="none" stroke-linecap="butt" stroke-linejoin="miter" stroke-miterlimit="10" stroke-dasharray="" stroke-dashoffset="0" style="mix-blend-mode: normal"><path d="M240,196v-32h208v32z" fill="none" stroke-width="0"/><path d="M245.84,184.3c-1.79687,0.944 -3.36263,1.66667 -4.6973,2.168l-0.82031,-2.1484c2.08987,-0.70313 3.92907,-1.4323 5.5176,-2.1875v-4.375h-4.834v-2.0606h4.834v-5.1953h2.1777v19.004h-2.1777zM252.7834,176.6926c1.51693,-0.79427 2.9883,-1.80337 4.4141,-3.0273l1.6211,1.6992c-1.92707,1.3672 -3.9388,2.53257 -6.0352,3.4961v7.3242c0,0.31901 0.10417,0.51433 0.3125,0.58594c0.22136,0.07161 0.73243,0.10742 1.5332,0.10742c1.05467,0 1.71547,-0.06185 1.9824,-0.18555c0.1888,-0.08463 0.31901,-0.3483 0.39062,-0.79101c0.09766,-0.61849 0.16928,-1.61783 0.21485,-2.998l2.1875,0.67383c-0.06513,1.6862 -0.1693,2.89713 -0.3125,3.6328c-0.16276,0.82033 -0.58919,1.35093 -1.2793,1.5918c-0.65755,0.22135 -1.73502,0.33203 -3.2324,0.33203c-1.7578,0 -2.86457,-0.14648 -3.3203,-0.43945c-0.4362,-0.28646 -0.6543,-0.83659 -0.6543,-1.6504v-16.543h2.1777z" fill="#ffffff" stroke-width="1"/><path d="M277.76,175.8c0,0.30599 -0.0293,1.75783 -0.0879,4.3555h1.8652v1.7578h-1.9043c-0.01953,0.85287 -0.06185,1.81967 -0.12695,2.9004h1.6504v1.7188h-1.7774c-0.07812,0.944 -0.18554,1.569 -0.32226,1.875c-0.30599,0.7292 -1.04819,1.0938 -2.2266,1.0938c-0.7552,0 -1.4518,-0.05534 -2.0898,-0.16601l-0.36133,-1.7383c0.918,0.13021 1.62113,0.19531 2.1094,0.19531c0.39713,0 0.63476,-0.13997 0.71289,-0.41992c0.03907,-0.13672 0.07487,-0.41667 0.10742,-0.83985h-6.9531c-0.00667,0.05207 -0.01643,0.10741 -0.0293,0.16602c-0.0586,0.34505 -0.11394,0.67057 -0.16602,0.97656l-2.0215,-0.19531c0.39713,-2.35027 0.66406,-4.1276 0.80078,-5.332l0.0293,-0.23438h-1.9531v-1.7578h2.1582c0.18229,-1.57553 0.33854,-3.02737 0.46875,-4.3555zM271.5881,177.4992h-2.1387c-0.01953,0.33203 -0.07813,1.0319 -0.17578,2.0996l-0.0586,0.55664h2.168l0.0293,-0.27344c0.013,-0.1888 0.03253,-0.45247 0.0586,-0.79101c0.06513,-0.91147 0.1042,-1.44207 0.11719,-1.5918zM273.5119,177.4992c-0.03253,0.77473 -0.08136,1.63087 -0.14649,2.5684v0.0879h2.2949c0.02607,-0.89193 0.04887,-1.77733 0.0684,-2.6562zM271.2267,181.9133h-2.1973c-0.09765,0.79427 -0.20182,1.57877 -0.3125,2.3535l-0.0781,0.54687h2.2852c0.15625,-1.41273 0.25716,-2.37953 0.30273,-2.9004zM273.2287,181.9133c-0.01953,0.26042 -0.05859,0.69012 -0.11718,1.2891l-0.15625,1.6113h2.4902c0.03253,-0.63151 0.05857,-1.10677 0.0781,-1.4258c0.03907,-0.6966 0.0651,-1.18813 0.0781,-1.4746zM269.4006,172.2746h9.4336v1.8164h-10.244c-0.52734,1.0742 -1.19791,2.09633 -2.0117,3.0664l-1.3965,-1.5234c1.28253,-1.50393 2.194,-3.2357 2.7344,-5.1953l2.0801,0.21485c-0.23437,0.67707 -0.43294,1.21743 -0.5957,1.6211zM264.0197,175.1164c-0.8008,-1.10027 -1.7741,-2.13217 -2.9199,-3.0957l1.4746,-1.4258c1.0612,0.78127 2.0703,1.7676 3.0273,2.959zM263.31657,180.2726c-0.9896,-1.26953 -1.98893,-2.334 -2.998,-3.1934l1.5234,-1.4648c1.1328,0.89193 2.15167,1.90757 3.0566,3.0469zM260.66037,187.9386c1.1328,-1.569 2.20703,-3.63607 3.2227,-6.2012l1.7383,1.2402c-0.84633,2.3698 -1.93357,4.54427 -3.2617,6.5234z" fill="#ffffff" stroke-width="1"/><path d="M285.22,184.92c0.6706,0.79427 1.48113,1.36067 2.4316,1.6992c0.98307,0.34505 2.29817,0.51758 3.9453,0.51758h8.2031c-0.24739,0.61198 -0.44922,1.25978 -0.60547,1.9434h-8.0957c-2.194,0 -3.8509,-0.3418 -4.9707,-1.0254c-0.51432,-0.3125 -1.06119,-0.78123 -1.6406,-1.4062c-0.87893,1.10027 -1.87503,2.07033 -2.9883,2.9102l-1.2012,-1.9629c0.99607,-0.57292 1.94333,-1.24999 2.8418,-2.0312v-4.9805h-2.6465v-1.9238h4.7266zM291.3821,174.451h-5.3027v-1.6797h3.1152c-0.35156,-0.57292 -0.72266,-1.11979 -1.1133,-1.6406l1.9336,-0.70312c0.55339,0.8268 0.98959,1.60807 1.3086,2.3438h2.5c0.26041,-0.52735 0.57617,-1.31511 0.94726,-2.3633l2.1875,0.45898c-0.29948,0.65755 -0.63478,1.29232 -1.0059,1.9043h3.2617v1.6797h-5.752c-0.16276,0.50131 -0.33529,0.98307 -0.51758,1.4453h5.0293v10.078h-10.674v-10.078h3.623c0.17578,-0.50131 0.32877,-0.98307 0.45898,-1.4453zM289.3215,177.3123v1.4648h6.6113v-1.4648zM289.3215,180.0955v1.4844h6.6113v-1.4844zM289.3215,182.9568v1.5332h6.6113v-1.5332zM283.8332,175.7986c-0.93747,-1.4844 -1.9368,-2.73767 -2.998,-3.7598l1.6211,-1.2793c1.25,1.15887 2.28517,2.3568 3.1055,3.5938z" fill="#ffffff" stroke-width="1"/><path d="M311.5,176.92c0.48828,1.58853 1.26628,3.17383 2.334,4.7559c1.50393,2.23307 3.43753,4.069 5.8008,5.5078l-1.3574,2.0312c-2.168,-1.34767 -4.08207,-3.2194 -5.7422,-5.6152c-0.97653,-1.41273 -1.75453,-2.96873 -2.334,-4.668c-0.41015,1.4974 -0.96679,2.85157 -1.6699,4.0625c1.57553,1.0742 2.8646,2.10283 3.8672,3.0859l-1.3574,1.6016c-0.99607,-0.99607 -2.1842,-2.0117 -3.5644,-3.0469c-0.97007,1.28907 -1.9629,2.33723 -2.9785,3.1445c-0.6966,0.55989 -1.5104,1.10676 -2.4414,1.6406l-1.582,-1.8359c2.4414,-1.05467 4.39453,-2.71157 5.8594,-4.9707c1.1068,-1.71227 1.86527,-3.61007 2.2754,-5.6934h-7.6953v-2.0801h7.9004v-4.3359h2.3047v4.3359h7.9785v2.0801z" fill="#ffffff" stroke-width="1"/><path d="M331.03,173.3v7.6367h8.4668v2.002h-8.4668v6.5625h-2.1973v-6.5625h-8.3398v-2.002h8.3398v-7.6367h-7.4414v-1.9434h17.217v1.9434zM324.5163,180.1945c-0.64453,-1.91407 -1.35743,-3.6198 -2.1387,-5.1172l2.1191,-0.85937c0.7292,1.263 1.47463,2.97523 2.2363,5.1367zM333.1686,179.52067c0.83987,-1.57553 1.5495,-3.38217 2.1289,-5.4199l2.2168,0.71289c-0.61198,1.88153 -1.38021,3.7077 -2.3047,5.4785z" fill="#ffffff" stroke-width="1"/><path d="M351.56,175.5h-5.2246v-1.8164h2.666c-0.42318,-0.97007 -0.87241,-1.81643 -1.3477,-2.5391l1.9434,-0.72266c0.54687,0.918 1.04817,2.00523 1.5039,3.2617h3.1055c0.41667,-0.96353 0.8138,-2.05077 1.1914,-3.2617l2.1973,0.60547c-0.40365,1.02867 -0.80728,1.91407 -1.2109,2.6562h2.5586v1.8164h-5.2246v2.5195h4.6387v1.7578h-4.6387v2.6953h5.7812v1.8848h-5.7812v5.1465h-2.1582v-5.1465h-5.6445v-1.8848h5.6445v-2.6953h-4.668v-1.7578h4.668zM344.1577,175.23632c-0.77473,-1.0742 -1.80013,-2.11913 -3.0762,-3.1348l1.4746,-1.5039c1.3086,0.95053 2.3763,1.9629 3.2031,3.0371zM343.52293,180.25582c-1.0156,-1.237 -2.0703,-2.29493 -3.1641,-3.1738l1.4844,-1.5039c1.16533,0.84633 2.2428,1.8652 3.2324,3.0566zM340.70063,187.77532c1.15887,-1.6016 2.27213,-3.7533 3.3398,-6.4551l1.6602,1.2988c-0.91147,2.7344 -2.0052,5.0228 -3.2812,6.8652z" fill="#ffffff" stroke-width="1"/><path d="M377.86,180.14v9.3652h-2.1973v-1.123h-6.2012v1.123h-2.1777v-9.3652zM369.4616,182.0248v4.4531h6.2012v-4.4531zM364.7839,175.1791c-1.0026,-1.12627 -2.08983,-2.1126 -3.2617,-2.959l1.3965,-1.5625c1.31513,0.8268 2.4219,1.76757 3.3203,2.8223zM363.6804,180.4428c-1.10027,-1.21093 -2.21353,-2.20377 -3.3398,-2.9785l1.4356,-1.6211c1.3216,0.8594 2.4707,1.8327 3.4473,2.9199zM360.4578,187.6987c1.30207,-1.60807 2.5423,-3.68813 3.7207,-6.2402l1.6602,1.4844c-1.0026,2.46747 -2.16797,4.62567 -3.4961,6.4746zM377.8598,179.6616c-2.27213,-2.41533 -3.9453,-5.2018 -5.0195,-8.3594l2.0215,-0.80078c0.9896,2.7344 2.5293,5.20183 4.6191,7.4023zM365.6628,178.1382c1.82293,-1.83593 3.12827,-4.3099 3.916,-7.4219l2.0606,0.625c-0.73567,3.3724 -2.2005,6.19793 -4.3945,8.4766z" fill="#ffffff" stroke-width="1"/><path d="M391.18,173.6h4.4238v-2.3535h2.0801v4.0332h-14.961v-4.0332h2.0801v2.3535h4.2969v-3.0957h2.0801zM384.178,178.307v2.041c0,2.2526 -0.14323,4.00717 -0.42969,5.2637c-0.30599,1.3216 -0.89519,2.5651 -1.7676,3.7305l-1.7188,-1.416c0.59896,-0.83333 1.01889,-1.6569 1.2598,-2.4707c0.33203,-1.1198 0.49805,-2.86133 0.49805,-5.2246v-3.6621h17.002v1.7383zM392.4788,181.3636v1.8066h6.6992v1.7383h-6.6992v4.5996h-2.1973v-4.5996h-5.8789v-1.7383h5.8789v-1.8066h-4.8828v-1.6406h12.344v1.6406z" fill="#ffffff" stroke-width="1"/><path d="M408.84,174.08v-3.584h2.1973v3.584h7.2461v10.332h-2.1582v-1.3574h-5.0879v6.4453h-2.1973v-6.4453h-4.9609v1.4648h-2.1582v-10.439zM403.8791,176.082v4.9707h4.9609v-4.9707zM416.1251,181.0527v-4.9707h-5.0879v4.9707z" fill="#ffffff" stroke-width="1"/><path d="M426.98,172.76h4.1797v1.8848h-1.377c-0.2474,0.99607 -0.57943,2.041 -0.9961,3.1348h2.6074v1.8848h-10.898v-1.8848h2.3926c-0.26042,-1.25 -0.53386,-2.29493 -0.82032,-3.1348h-1.2695v-1.8848h4.1406v-2.2559h2.041zM424.0406,174.6448c0.33203,0.97007 0.58919,2.015 0.77148,3.1348h1.9922l0.0977,-0.27344c0.27995,-0.7422 0.54036,-1.5853 0.78125,-2.5293l0.0879,-0.33203zM430.0953,181.305v7.998h-2.002v-0.95703h-4.2578v1.1621h-2.0605v-8.2031zM423.8355,183.1019v3.3887h4.2578v-3.3887zM436.8825,178.1703c0.77473,0.73567 1.38997,1.61133 1.8457,2.627c0.44922,1.0156 0.67383,2.04423 0.67383,3.0859c0,0.96353 -0.17904,1.67317 -0.53711,2.1289c-0.37109,0.47526 -0.98306,0.71289 -1.8359,0.71289c-0.7292,0 -1.43557,-0.05208 -2.1191,-0.15625l-0.47851,-2.0801c0.78773,0.14323 1.43877,0.21485 1.9531,0.21485c0.39063,0 0.63477,-0.09115 0.73242,-0.27344c0.06513,-0.13021 0.0977,-0.39062 0.0977,-0.78125c0,-1.60807 -0.48177,-2.9948 -1.4453,-4.1602c-0.25391,-0.30599 -0.57292,-0.63476 -0.95704,-0.98633l0.11719,-0.27343c0.67707,-1.52993 1.2044,-3.125 1.582,-4.7852h-2.5v16.064h-2.0215v-18.086h5.8789l1.084,0.99609c-0.65755,2.2396 -1.34765,4.15693 -2.0703,5.752z" fill="#ffffff" stroke-width="1"/></g></g></svg>