<svg version="1.1" xmlns="http://www.w3.org/2000/svg" xmlns:xlink="http://www.w3.org/1999/xlink" width="208" height="32" viewBox="0,0,208,32"><g transform="translate(-240,-164)"><g data-paper-data="{&quot;isPaintingLayer&quot;:true}" fill-rule="nonzero" stroke="none" stroke-linecap="butt" stroke-linejoin="miter" stroke-miterlimit="10" stroke-dasharray="" stroke-dashoffset="0" style="mix-blend-mode: normal"><path d="M240,196v-32h208v32z" fill="none" stroke-width="0"/><path d="M253.14,174.87v1.5039h5.3613v11.504c0,0.58594 -0.14974,0.99284 -0.44922,1.2207c-0.25391,0.18881 -0.70314,0.28321 -1.3477,0.28321c-0.7422,0 -1.40953,-0.04232 -2.002,-0.12696l-0.32226,-1.9043c0.66406,0.09765 1.21093,0.14648 1.6406,0.14648c0.24089,0 0.38737,-0.06185 0.43945,-0.18555c0.03907,-0.09115 0.0586,-0.2181 0.0586,-0.38086v-2.2559h-3.418v4.3164h-1.9434v-4.3164h-3.0762v4.8242h-1.9824v-13.125h5.0195v-1.5039h-5.8594v-1.8164h5.8594v-2.5586h2.0215v2.5586h3.3496c-0.6966,-0.6966 -1.41927,-1.29557 -2.168,-1.7969l1.5723,-0.87891c0.80727,0.46875 1.64387,1.11328 2.5098,1.9336l-1.1914,0.74219h2.2852v1.8164zM251.1576,178.0341h-3.0762v1.6406h3.0762zM253.101,178.0341v1.6406h3.418v-1.6406zM251.1576,181.2568h-3.0762v1.8555h3.0762zM253.101,181.2568v1.8555h3.418v-1.8555zM243.5795,175.0947c-0.7422,-1.09373 -1.68297,-2.1419 -2.8223,-3.1445l1.5234,-1.4355c1.1328,0.97007 2.08657,1.9629 2.8613,2.9785zM243.08146,180.1142c-0.90493,-1.21747 -1.83917,-2.2917 -2.8027,-3.2227l1.4356,-1.4356c1.05467,0.87893 2.04427,1.91733 2.9688,3.1152zM240.54236,188.0341c1.03513,-1.7448 1.99543,-4.02343 2.8809,-6.8359l1.8359,1.0742c-0.7682,2.71487 -1.71547,5.13023 -2.8418,7.2461z" fill="#ffffff" stroke-width="1"/><path d="M277.72,173.66v13.711c0,0.8008 -0.20833,1.34767 -0.625,1.6406c-0.33203,0.22787 -0.89843,0.3418 -1.6992,0.3418c-0.99607,0 -1.9824,-0.04557 -2.959,-0.13672l-0.49805,-2.0801c1.1784,0.14974 2.2038,0.22461 3.0762,0.22461c0.3125,0 0.5013,-0.05859 0.56641,-0.17578c0.05207,-0.09115 0.0781,-0.26042 0.0781,-0.50781v-13.018h-10.107v-1.9238h14.082v1.9238zM273.8528,176.16v7.7539h-5.0293v1.5039h-1.9434v-9.2578zM268.8235,177.8592v4.3359h3.1445v-4.3359zM263.9602,175.4178c-1.0482,-1.237 -2.1094,-2.2917 -3.1836,-3.1641l1.4844,-1.4356c1.1914,0.8854 2.24283,1.89777 3.1543,3.0371zM263.45239,180.4569c-1.11327,-1.28907 -2.14517,-2.33723 -3.0957,-3.1445l1.4355,-1.4746c1.11327,0.79427 2.18097,1.80663 3.2031,3.0371zM260.65939,187.8788c1.3216,-1.8164 2.57487,-4.0983 3.7598,-6.8457l1.7188,1.2012c-0.93747,2.59113 -2.16467,4.99023 -3.6816,7.1973z" fill="#ffffff" stroke-width="1"/><path d="M291.58,174.14v-3.6426h2.0996v3.6426h5.293v8.8379h-5.293v6.5234h-2.0996v-6.5234h-5.1856v-8.8379zM288.4159,176.0834v4.9707h3.1641v-4.9707zM296.8925,181.0541v-4.9707h-3.2129v4.9707zM284.3925,175.2729c-0.79427,-1.1068 -1.8457,-2.16473 -3.1543,-3.1738l1.4551,-1.4844c1.30207,0.918 2.40233,1.94663 3.3008,3.0859zM283.75774,180.2924c-1.1328,-1.31513 -2.23307,-2.3926 -3.3008,-3.2324l1.5039,-1.5039c1.13933,0.8008 2.26563,1.83597 3.3789,3.1055zM280.72064,187.8608c1.25,-1.77733 2.40233,-3.99087 3.457,-6.6406l1.7383,1.3379c-0.89193,2.4414 -1.97917,4.73957 -3.2617,6.8945z" fill="#ffffff" stroke-width="1"/></g></g></svg>