<svg xmlns="http://www.w3.org/2000/svg" viewBox="0 0 180 40" version="1.1" height="40" width="180">
 <path style="paint-order:stroke markers fill" stroke-width=".2" stroke-linejoin="round" stroke-linecap="round" stop-color="#000000" fill-opacity="0" fill="none" d="m0 0h180v40h-180z"></path>
 <g aria-label="震度+塗りつぶし" fill="#fff">
  <path d="m26.228 15.194v-0.58789h-4.2725v-0.97754h10.09v0.97754h-4.3613v0.58789h5.6602v2.4541h-1.4834v-1.5723h-4.1768v2.6592h-1.4561v-2.6592h-4.1016v1.5723h-1.4697v-2.4541zm4.8398 9.7002q1.0459 0.39648 2.6113 0.62891l-0.7998 1.1621q-2.1943-0.37598-3.6025-1.292-1.4014-0.91602-2.1807-2.2764h-1.5107v2.1055q1.5107-0.21191 2.8027-0.45117l0.0957 1.0186q-2.4062 0.57422-5.5029 0.99805l-0.40332-1.2031q1.0732-0.11621 1.4697-0.16406l0.08203-0.01367v-2.29h-1.4971q-0.0957 1.2031-0.31445 1.9209-0.25977 0.86133-0.83398 1.6064l-1.2168-1.0049q0.66992-0.86816 0.83398-2.0303 0.08887-0.62891 0.08887-1.5654v-2.8984h11.799v0.90918h-10.329v2.0986h10.917v0.96387h-1.5518l0.86816 0.57422q-0.77246 0.64258-1.8252 1.2031zm-1.0664-0.52637q0.98438-0.66992 1.5654-1.251h-2.9873q0.58789 0.75195 1.4219 1.251zm-7.2734-7.7861h2.9121v0.77246h-2.9121zm0 1.2578h2.9121v0.78613h-2.9121zm5.5439-1.2578h3.001v0.77246h-3.001zm0 1.2578h3.001v0.78613h-3.001zm-4.7988 2.7891h8.5107v0.89551h-8.5107z"></path>
  <path d="m42.066 14.579h5.3594v1.1484h-3.0352v1.1348h2.8438v1.1074h-2.8438v2.0371h-5.5029v-2.0371h-2.2422v1.2715q0 3.0967-0.32812 4.8945-0.25293 1.3672-0.82031 2.4951l-1.2441-0.98438q0.51953-1.1279 0.71094-2.7549 0.1709-1.4287 0.1709-3.6504v-4.6621h5.4072v-1.2305h1.5244zm-5.4209 1.1484v1.1348h2.2422v-1.1348zm3.6982 0v1.1348h2.5908v-1.1348zm0 2.2422v1.0596h2.5908v-1.0596zm1.5859 7.1777q-1.9756 1.0254-5.0176 1.5586l-0.71094-1.2578q2.8574-0.3418 4.4775-1.0459-1.3877-1.0049-2.3721-2.3857h-0.94336v-1.1895h8.0049l0.71777 0.60156q-1.0186 1.5654-2.9053 2.9463 1.6201 0.64941 4.416 0.95703l-0.7998 1.292q-2.6797-0.3623-4.8672-1.4766zm-2.0303-3.1309q0.82715 0.9707 2.0098 1.709 1.333-0.86133 2.0576-1.709z"></path>
  <path d="m53.277 15.379h1.2031v4.0195h4.0195v1.2031h-4.0195v4.0195h-1.2031v-4.0195h-4.0195v-1.2031h4.0195z"></path>
  <path d="m66.683 21.928-0.20508-0.89551q0.46484 0.06836 0.86133 0.06836 0.19824 0 0.23242-0.10254 0.02734-0.06836 0.02734-0.23242v-1.6064h-3.582v-1.1074h3.582v-0.96387h-1.791v-0.47852q-0.72461 0.42383-1.5518 0.78613l-0.90234-0.98438q1.5654-0.60156 2.6318-1.4629 0.82031-0.66309 1.5176-1.5996h1.4834q0.7793 0.96387 1.9893 1.6543 0.89551 0.5127 2.4336 1.0869l-0.81348 1.1074q-1.0186-0.39648-1.7637-0.78613v0.67676h-1.791v0.96387h3.7803v1.1074h-3.7803v2.0986q0 0.47852-0.23242 0.7041-0.23926 0.23242-0.86816 0.23242-0.19824 0-0.46484-0.0068v0.62207h4.7168v1.1484h-4.7168v1.0938h5.7217v1.2168h-12.879v-1.2168h5.6396v-1.0938h-4.6621v-1.1485h4.6621v-0.88184zm-0.061523-5.8652h3.5957q-1.1074-0.66992-1.9756-1.6338-0.66309 0.91602-1.6201 1.6338zm-3.4453-0.13672q-0.97754-0.89551-2.1191-1.5244l0.88184-0.98438q1.3604 0.7041 2.2012 1.4424zm-2.9258 5.1064q1.374-0.96387 2.9395-2.6729l0.75195 1.0801q-1.0322 1.2988-2.7412 2.7549zm11.56 1.0391q-1.0664-1.3945-2.0713-2.1602l1.0391-0.72461q1.1895 0.91602 2.126 1.9893zm-9.6045-3.7666q-0.95703-0.85449-2.1123-1.4834l0.88184-1.0254q1.1006 0.54688 2.126 1.4014zm1.292 2.9805q1.0459-0.69043 1.9004-1.9756l1.0938 0.62207q-0.92969 1.4834-2.0439 2.29z"></path>
  <path d="m79.391 19.617q-0.68359 1.2783-1.4014 1.9209-0.61524 0.55371-1.1279 0.55371-0.65625 0-1.0596-0.88867-0.41699-0.92969-0.41699-2.9121 0-1.9961 0.46484-4.3271l1.4971 0.22559q-0.45117 2.3105-0.45117 3.9102 0 2.1533 0.30762 2.1533 0.11621 0 0.39648-0.32812 0.4375-0.49219 0.92285-1.4492zm-1.0391 5.3525q2.0986-0.58789 3.165-1.7568 1.3057-1.4287 1.3057-4.3203 0-2.1943-0.42383-4.9287l1.5654-0.15039q0.45117 2.7617 0.45117 5.1475 0 3.8691-1.9893 5.5713-1.21 1.0391-3.2607 1.7227z"></path>
  <path d="m87.061 16.035q5.6807-0.89551 7.6221-0.89551 2.1533 0 3.3428 0.99121 1.4082 1.1758 1.4082 3.5068 0 1.8184-1.1758 3.1719-1.791 2.0645-7.3486 2.5225l-0.51953-1.5107q3.7529-0.30078 5.3252-1.0732 0.84082-0.41699 1.3809-1.0938 0.73144-0.91602 0.73144-2.1191 0-1.4766-0.68359-2.1807-0.34863-0.35547-0.75879-0.5332-0.57422-0.25293-1.6406-0.25293-1.7432 0-7.3623 0.96387z"></path>
  <path d="m109.39 16.876q-2.2217-1.1553-5.3115-1.832l0.61524-1.2646q3.0898 0.58106 5.3799 1.7842zm-4.6074 6.4805q0.82032 1.2646 1.8115 1.2646 1.1553 0 1.1553-1.3057 0-0.9707-0.59473-2.4199-0.61523-1.4902-1.5791-2.6318l1.2373-0.64258q1.3057 1.5381 2.0029 3.3564 0.51269 1.3398 0.51269 2.4199 0 1.1963-0.59473 1.9072-0.71093 0.84082-2.0713 0.84082-1.5996 0-2.584-1.6133zm-4.0059 0.71777q1.3604-2.2422 1.9072-5.4209l1.4219 0.46484q-0.66309 3.6572-2.0303 5.7354zm11.505 0.54688q-0.76563-3.1582-2.167-5.7422l1.2715-0.56055q1.5586 2.584 2.3106 5.7012zm-0.6836-8.1484q-0.4375-1.1211-1.3604-2.4404l1.0391-0.37598q0.80664 1.1143 1.374 2.3926zm1.7227-0.60156q-0.47852-1.2373-1.3467-2.4541l0.99805-0.33496q0.78613 0.95703 1.3398 2.3242z"></path>
  <path d="m116.06 13.923h1.6133v8.1484q0 2.5771 2.707 2.5771 1.7842 0 2.9258-1.6475 0.73828-1.0596 1.3262-3.2812l1.3877 0.84082q-0.69726 2.4678-1.6748 3.6914-1.5381 1.9072-3.999 1.9072-2.5703 0-3.623-1.5859-0.66309-0.99121-0.66309-2.5566z"></path>
 </g>
</svg>
