<svg xmlns="http://www.w3.org/2000/svg" viewBox="0 0 224 76" version="1.1" height="76" width="224">
 <g transform="translate(-440.94 12.43)">
  <rect stroke-linejoin="round" stroke-linecap="round" stop-color="#000000" fill="none" height="76" width="224" y="-12.43" x="440.94"></rect>
  <g shape-rendering="auto" fill-rule="evenodd" transform="translate(-3.2808 -.000744)">
   <path style="font-feature-settings:normal;font-variant-alternates:normal;font-variant-caps:normal;font-variant-east-asian:normal;font-variant-ligatures:normal;font-variant-numeric:normal;font-variant-position:normal;font-variation-settings:normal;inline-size:0;isolation:auto;mix-blend-mode:normal;paint-order:stroke markers fill;shape-margin:0;shape-padding:0;text-decoration-color:#000000;text-decoration-line:none;text-decoration-style:solid;text-indent:0;text-orientation:mixed;text-transform:none;white-space:normal" stop-color="#000000" image-rendering="auto" fill="#7d97b4" color-rendering="auto" color="#000000" d="m558.22 10.57c-8.8294 1e-6 -16 7.1706-16 16 0 8.8294 7.1706 16 16 16h86c8.8294 0 16-7.1706 16-16 0-8.8294-7.1706-16-16-16z"></path>
   <path style="font-feature-settings:normal;font-variant-alternates:normal;font-variant-caps:normal;font-variant-east-asian:normal;font-variant-ligatures:normal;font-variant-numeric:normal;font-variant-position:normal;font-variation-settings:normal;inline-size:0;isolation:auto;mix-blend-mode:normal;paint-order:stroke markers fill;shape-margin:0;shape-padding:0;text-decoration-color:#000000;text-decoration-line:none;text-decoration-style:solid;text-indent:0;text-orientation:mixed;text-transform:none;white-space:normal" stop-color="#000000" image-rendering="auto" fill="#31476d" color-rendering="auto" color="#000000" d="m558.22 12.57h86c7.756 0 14 6.244 14 14s-6.244 14-14 14h-86c-7.756 0-14-6.244-14-14s6.244-14 14-14z"></path>
  </g>
  <g aria-label="地図に表示" fill="#fff" transform="translate(-3.2808 -.000744)">
   <path d="m566.74 25.418v5.4141q0 0.52637 0.45117 0.63574 0.46485 0.11621 2.126 0.11621 1.6201 0 2.1396-0.16406 0.29394-0.0957 0.38281-0.5332 0.11621-0.61523 0.12305-1.4561l1.4287 0.40332q-0.10938 2.0166-0.55371 2.5771-0.29395 0.36914-0.88867 0.4375-0.93653 0.10254-3.1787 0.10254-1.7363 0-2.2764-0.0957-0.81348-0.13672-1.0322-0.71777-0.10937-0.30762-0.10937-0.82031v-5.4209l-1.3057 0.45117-0.32129-1.3262 1.627-0.56055v-3.6846h1.3877v3.2061l1.4697-0.49902v-3.6025h1.374v3.124l2.29-0.78613 0.71777 0.4375v5.1201q0 0.5332-0.25293 0.79297-0.28711 0.28711-0.96386 0.28711-0.55371 0-1.1758-0.0957l-0.22559-1.3057q0.40332 0.10254 0.82031 0.10254 0.30078 0 0.36914-0.12305 0.0684-0.10254 0.0684-0.3418v-3.2334l-1.6475 0.57422v5.5303h-1.374v-5.0586zm-5.0244-2.2354v-3.3018h1.4697v3.3018h1.3262v1.3877h-1.3262v4.3477q0.71778-0.24609 1.4219-0.5127l0.12988 1.3193q-2.2148 1.0117-4.5459 1.6953l-0.47851-1.4561q1.0527-0.27344 1.8457-0.51953 0.0957-0.03418 0.15723-0.04785v-4.8262h-1.7363v-1.3877z"></path>
   <path d="m580.95 28.938q-1.4629 1.2373-3.6299 2.0303l-0.86817-1.0527q1.7637-0.57422 3.1514-1.6475l-0.23926-0.11621q-1.3262-0.63574-2.8984-1.2852l0.6289-1.0391q1.7637 0.64258 3.3018 1.3467l0.2666 0.12305q1.7295-1.8184 2.6045-4.7441l1.3604 0.42383q-0.99805 2.9805-2.6592 4.9561 0.0684 0.03418 0.12988 0.06836 0.96387 0.47852 2.5293 1.4014l-0.82715 1.1484q-1.3125-0.7998-2.8506-1.6133zm-3.042-2.9668q-0.49219-1.627-1.1211-2.748l1.2852-0.5127q0.66309 1.1758 1.1621 2.7275zm2.4062-0.54688q-0.50586-1.5791-1.1348-2.7549l1.2305-0.49219q0.78613 1.3672 1.1621 2.7002zm6.3164-4.9014v12.66h-1.5244v-0.71777h-9.0781v0.71777h-1.5108v-12.66zm-10.603 1.2715v9.3516h9.0781v-9.3516z"></path>
   <path d="m589.14 32.595q-0.25977-2.3242-0.25977-4.6211 0-3.9375 0.58106-7.4785l1.5039 0.15723q-0.55371 3.0625-0.55371 6.9111 0 2.584 0.28711 4.833zm4.1016-10.828h6.5693v1.4561h-6.5693zm7.0342 9.9873q-1.3672 0.21191-3.2471 0.21191-4.7236 0-4.7236-2.7754 0-1.1006 0.58789-1.9209l1.292 0.57422q-0.36914 0.51953-0.36914 1.1689 0 0.7998 0.7998 1.1006 0.88868 0.3418 2.4268 0.3418 1.6611 0 3.0762-0.21875z"></path>
   <path d="m610.44 30.312 0.0957 1.2236q-2.9668 1.0459-6.5967 1.7227l-0.50586-1.3672q0.62891-0.0957 1.7773-0.30762v-2.502q-1.1826 0.60156-2.8164 1.1416l-0.7793-1.2168q3.2881-0.88867 5.0176-2.2695h-4.8809v-1.1895h5.8584v-1.0322h-4.4297v-1.1484h4.4297v-0.96387h-5.127v-1.1758h5.127v-1.3467h1.4971v1.3467h5.2773v1.1758h-5.2773v0.96387h4.5801v1.1484h-4.5801v1.0322h6.0088v1.1895h-1.6338l1.0117 0.69727q-0.93653 0.90918-2.625 1.9893l-0.15723 0.10254q1.2852 1.1758 3.4863 1.9414l-0.92285 1.3877q-2.3858-1.0117-3.835-2.543zm-2.0713-3.5547q-0.6836 0.7998-1.6475 1.4355v3.0693q1.6885-0.37598 3.3906-0.875l0.31445-0.08887q-1.4014-1.5518-2.0576-3.541zm2.4951 1.8662q1.2168-0.86816 2.1328-1.8867h-3.2334q0.4375 1.0459 1.1006 1.8867z"></path>
   <path d="m623.27 25.705v6.0635q0 0.82715-0.33496 1.1279-0.31445 0.27344-1.2168 0.27344-1.0254 0-1.9482-0.12988l-0.29394-1.4424q0.95703 0.15723 1.832 0.15723 0.29395 0 0.36914-0.10254 0.0547-0.08887 0.0547-0.29394v-5.6533h-5.8789v-1.3604h13.173v1.3604zm-5.7764-5.0654h9.8848v1.3467h-9.8848zm-1.7227 10.486q1.4766-1.5449 2.3789-4.1084l1.415 0.5332q-1.0459 2.9326-2.6318 4.6074zm11.73 0.83398q-1.415-2.9941-2.4609-4.3818l1.2852-0.76562q1.5039 1.9346 2.5635 4.2109z"></path>
  </g>
  <path style="font-feature-settings:normal;font-variant-alternates:normal;font-variant-caps:normal;font-variant-east-asian:normal;font-variant-ligatures:normal;font-variant-numeric:normal;font-variant-position:normal;font-variation-settings:normal;inline-size:0;isolation:auto;mix-blend-mode:normal;paint-order:normal;shape-margin:0;shape-padding:0;text-decoration-color:#000000;text-decoration-line:none;text-decoration-style:solid;text-indent:0;text-orientation:mixed;text-transform:none;white-space:normal" stop-color="#000000" shape-rendering="auto" opacity=".988" image-rendering="auto" fill-rule="evenodd" fill="#fff" color-rendering="auto" color="#000000" d="m633.96 20.569a1.0001 1.0001 0 0 0-1.0234 1v10a1.0001 1.0001 0 0 0 1.6406 0.76758l6-5a1.0001 1.0001 0 0 0 0-1.5371l-6-5a1.0001 1.0001 0 0 0-0.61719-0.23047z"></path>
 </g>
</svg>
