<svg version="1.1" xmlns="http://www.w3.org/2000/svg" xmlns:xlink="http://www.w3.org/1999/xlink" width="224" height="68" viewBox="0,0,224,68"><g transform="translate(-128,-146)"><g data-paper-data="{&quot;isPaintingLayer&quot;:true}" stroke="none" stroke-width="1" stroke-linecap="butt" stroke-linejoin="miter" stroke-miterlimit="10" stroke-dasharray="" stroke-dashoffset="0" style="mix-blend-mode: normal"><path d="M128,214v-68h224v68z" fill="none" fill-rule="nonzero"/><path d="M128,214v-66h224v66z" fill="#1d2a41" fill-rule="nonzero"/><g fill-rule="evenodd"><path d="M148,166h16c5.54,0 10,4.46 10,10v16c0,5.54 -4.46,10 -10,10h-26v-26c0,-5.54 4.46,-10 10,-10z" fill="#7cc3ff"/><path d="M155.6783,172.415c0.48371,-0.00266 0.93163,0.25463 1.1732,0.6739l10.879,18.85c0.24033,0.41661 0.24021,0.92985 -0.00031,1.34634c-0.24052,0.4165 -0.68489,0.67296 -1.16569,0.67276h-21.756c-0.4808,0.0002 -0.92517,-0.25626 -1.16569,-0.67276c-0.24052,-0.4165 -0.24064,-0.92973 -0.00031,-1.34634l10.879,-18.85c0.23858,-0.4141 0.67875,-0.6706 1.1565,-0.6739zM151.14347,184.3217c1.8119,-1.0471 3.4584,-1.5132 4.8505,-1.3834c1.4265,0.1328 2.57736,0.907 3.2831,2.2317c0.05279,0.0998 0.03045,0.22276 -0.05407,0.29761c-0.08452,0.07485 -0.20928,0.08216 -0.30196,0.01769c-1.1899,-0.83 -2.13049,-0.6246 -2.6881,0.012c-0.35344,0.4034 -0.43467,0.91 -0.28674,1.4122c0.14792,0.5022 0.53654,0.9928 1.1445,1.3094c1.3885,0.723 3.7137,0.864 5.5697,0.3847c0.01271,-0.001 0.02549,-0.001 0.0382,0l-7.0106,-12.148z" fill="#093255"/></g><g fill="#ffffff" fill-rule="nonzero"><path d="M190.787,185.797h10.469v7.7051h-2.1777v-1.1816h-8.4668v1.1816h-2.1582v-5.7324c-0.80727,0.60547 -1.7936,1.23697 -2.959,1.8945l-1.2988,-1.6895c2.56513,-1.19793 4.62567,-2.73763 6.1816,-4.6191h-5.8887v-1.7969h7.1387c0.47526,-0.82033 0.89193,-1.6732 1.25,-2.5586l2.0801,0.47852c-0.34505,0.79427 -0.68035,1.48763 -1.0059,2.0801h9.541v1.7969h-10.645c-0.55989,0.80727 -1.20443,1.57877 -1.9336,2.3145zM190.61122,187.4962v3.0859h8.4668v-3.0859zM189.25382,176.4022v-1.9043h2.1191v1.9043h5.127v-1.9043h2.1191v1.9043h4.1992v1.8164h-4.1992v1.5234h-2.1191v-1.5234h-5.127v1.543h-2.1191v-1.543h-4.0625v-1.8164z"/><path d="M215.035,177.359v5.0977h8.4668v1.9629h-8.4668v9.082h-2.1973v-9.082h-8.3398v-1.9629h8.3398v-5.0977h-6.8359v-1.9629h16.016v1.9629z"/><path d="M234.99,190.533c3.8216,-0.96353 5.7324,-3.1543 5.7324,-6.5723c0,-1.49087 -0.3841,-2.77343 -1.1523,-3.8477c-0.8594,-1.21093 -2.168,-1.98893 -3.9258,-2.334c-0.38412,3.0208 -0.90822,5.49477 -1.5723,7.4219c-0.45573,1.34767 -1.02213,2.62047 -1.6992,3.8184c-0.97653,1.70573 -2.08657,2.5586 -3.3301,2.5586c-0.92447,0 -1.74803,-0.41667 -2.4707,-1.25c-0.46224,-0.52735 -0.83657,-1.17515 -1.123,-1.9434c-0.37761,-0.99607 -0.56641,-2.06703 -0.56641,-3.2129c0,-1.85547 0.51107,-3.56447 1.5332,-5.127c1.03513,-1.59507 2.37953,-2.75393 4.0332,-3.4766c1.2044,-0.52735 2.526,-0.79102 3.9648,-0.79102c2.24607,0 4.1536,0.6022 5.7226,1.8066c1.92707,1.47787 2.8906,3.57097 2.8906,6.2793c0,4.53773 -2.29493,7.41533 -6.8848,8.6328zM233.5252,177.701c-1.15233,0.13021 -2.11587,0.43945 -2.8906,0.92773c-0.49479,0.31901 -0.98633,0.74218 -1.4746,1.2695c-1.35413,1.4974 -2.0312,3.23243 -2.0312,5.2051c0,1.4388 0.28646,2.5651 0.85938,3.3789c0.35156,0.5013 0.69986,0.75195 1.0449,0.75195c0.46875,0 0.99608,-0.51757 1.582,-1.5527c1.43227,-2.51953 2.40233,-5.84637 2.9102,-9.9805z"/><path d="M261.76,179.801c0,0.30599 -0.0293,1.75782 -0.0879,4.3555h1.8652v1.7578h-1.9043c-0.01953,0.85287 -0.06185,1.81967 -0.12695,2.9004h1.6504v1.7188h-1.7774c-0.07813,0.944 -0.18555,1.569 -0.32226,1.875c-0.30599,0.7292 -1.04819,1.0938 -2.2266,1.0938c-0.7552,0 -1.4518,-0.05534 -2.0898,-0.16602l-0.36133,-1.7383c0.918,0.13021 1.62113,0.19531 2.1094,0.19531c0.39713,0 0.63476,-0.13997 0.71289,-0.41992c0.03907,-0.13672 0.07487,-0.41667 0.10742,-0.83984h-6.9531c-0.00667,0.05209 -0.01643,0.10743 -0.0293,0.16602c-0.0586,0.34505 -0.11394,0.67057 -0.16602,0.97656l-2.0215,-0.19531c0.39713,-2.35027 0.66406,-4.1276 0.80078,-5.332l0.0293,-0.23438h-1.9531v-1.7578h2.1582c0.18229,-1.57553 0.33854,-3.02737 0.46875,-4.3555zM255.5881,181.5002h-2.1387c-0.01953,0.33203 -0.07813,1.0319 -0.17579,2.0996l-0.0586,0.55664h2.168l0.0293,-0.27344c0.013,-0.1888 0.03253,-0.45247 0.0586,-0.79102c0.06513,-0.91147 0.1042,-1.44207 0.11719,-1.5918zM257.5119,181.5002c-0.03253,0.77473 -0.08136,1.63087 -0.14648,2.5684v0.08789h2.2949c0.02607,-0.89193 0.04887,-1.77733 0.0684,-2.6562zM255.2267,185.9143h-2.1973c-0.09765,0.79427 -0.20182,1.57877 -0.3125,2.3535l-0.0781,0.54688h2.2852c0.15625,-1.41273 0.25717,-2.37953 0.30274,-2.9004zM257.2287,185.9143c-0.01953,0.26041 -0.0586,0.69011 -0.11719,1.2891l-0.15625,1.6113h2.4902c0.03253,-0.63151 0.05857,-1.10678 0.0781,-1.4258c0.03907,-0.6966 0.0651,-1.18813 0.0781,-1.4746zM253.4006,176.2756h9.4336v1.8164h-10.244c-0.52735,1.0742 -1.19791,2.09633 -2.0117,3.0664l-1.3965,-1.5234c1.28253,-1.50393 2.194,-3.2357 2.7344,-5.1953l2.0801,0.21484c-0.23437,0.67707 -0.43294,1.21743 -0.5957,1.6211zM248.0197,179.1174c-0.8008,-1.10027 -1.7741,-2.13217 -2.9199,-3.0957l1.4746,-1.4258c1.0612,0.78127 2.0703,1.7676 3.0273,2.959zM247.31657,184.2736c-0.9896,-1.26953 -1.98893,-2.334 -2.998,-3.1934l1.5234,-1.4648c1.1328,0.89193 2.15167,1.90757 3.0566,3.0469zM244.66037,191.9396c1.1328,-1.569 2.20703,-3.63607 3.2227,-6.2012l1.7383,1.2402c-0.84633,2.3698 -1.93357,4.54427 -3.2617,6.5234z"/><path d="M273.97,179.879h8.2227v13.623h-2.1777v-1.1035h-12.061v1.1035h-2.1582v-13.623h5.9766c0.28645,-0.8008 0.5371,-1.63413 0.75195,-2.5h-8.0273v-1.7969h18.994v1.7969h-8.6719l-0.0391,0.13672c-0.1888,0.64453 -0.45898,1.4323 -0.81055,2.3633zM270.4544,181.5782h-2.5v9.0039h2.5zM272.3587,181.5782v1.875h3.1738v-1.875zM277.4564,181.5782v9.0039h2.5586v-9.0039zM272.3587,185.0548v1.8848h3.1738v-1.8848zM272.3587,188.5411v2.041h3.1738v-2.041z"/><path d="M289.67,187.701c-1.21093,0.82033 -2.38933,1.44207 -3.5352,1.8652l-1.3379,-1.5039c3.11847,-1.05467 5.37757,-2.50973 6.7773,-4.3652l1.9824,0.48828c-0.27995,0.36459 -0.5599,0.69011 -0.83985,0.97656h6.7383l1.2402,1.0449c-0.9896,1.1914 -2.3926,2.4121 -4.209,3.6621c2.04427,0.69013 4.3815,1.21423 7.0117,1.5723l-1.1035,2.041c-3.09893,-0.59245 -5.75193,-1.40298 -7.959,-2.4316c-2.47393,1.21093 -5.33527,2.04753 -8.584,2.5098l-0.97656,-1.8555c2.5716,-0.20182 5.11067,-0.78125 7.6172,-1.7383l-0.10742,-0.06836c-1.02867,-0.6836 -1.9336,-1.41603 -2.7148,-2.1973zM291.2716,186.78303c0.86587,0.8008 1.96613,1.543 3.3008,2.2266c1.3932,-0.8008 2.373,-1.543 2.9394,-2.2266zM294.9923,176.29503h8.1055v1.6992h-5.6641v4.375c0,0.63802 -0.17253,1.07422 -0.51758,1.3086c-0.28646,0.19531 -0.76499,0.29297 -1.4356,0.29297c-0.63151,0 -1.31511,-0.05208 -2.0508,-0.15625l-0.2539,-1.6992c0.7096,0.11719 1.3053,0.17578 1.7871,0.17578c0.1888,0 0.29948,-0.04232 0.33203,-0.12695c0.02607,-0.05859 0.0391,-0.15625 0.0391,-0.29297v-3.877h-2.5195c0,1.41927 -0.15951,2.53253 -0.47852,3.3398c-0.55989,1.4258 -1.62759,2.44467 -3.2031,3.0566l-1.4746,-1.3574c1.21747,-0.47526 2.04103,-1.08723 2.4707,-1.8359c0.2474,-0.42969 0.41993,-0.94402 0.51758,-1.543c0.0586,-0.35156 0.10092,-0.90496 0.12695,-1.6602h-5.918v-1.6992h7.998v-1.7969h2.1387zM301.5939,183.56063c-0.96353,-1.4518 -2.0768,-2.80597 -3.3398,-4.0625l1.6016,-1.084c1.237,1.06773 2.3633,2.34377 3.3789,3.8281zM284.4159,182.15443c1.33467,-1.02213 2.321,-2.20703 2.959,-3.5547l1.8164,0.67383c-0.90493,1.86847 -2.0638,3.31703 -3.4766,4.3457z"/><path d="M317.53,178.639l0.0977,-4.1406h1.9629l-0.0879,4.1406h3.7012c-0.06513,7.27867 -0.33857,11.68633 -0.82031,13.223c-0.20833,0.66406 -0.58593,1.08723 -1.1328,1.2695c-0.27995,0.09765 -0.69661,0.14648 -1.25,0.14648c-0.72267,0 -1.40627,-0.04557 -2.0508,-0.13672l-0.38086,-2.0605c0.74867,0.14323 1.40947,0.21484 1.9824,0.21484c0.46224,0 0.75847,-0.12695 0.88868,-0.38086c0.12369,-0.24739 0.24413,-0.84636 0.36132,-1.7969c0.23438,-1.888 0.38412,-4.5768 0.44922,-8.0664l0.01,-0.48828h-1.8848c-0.11067,2.8906 -0.45574,5.28643 -1.0352,7.1875c-0.70967,2.31773 -1.8197,4.24157 -3.3301,5.7715l-1.6018,-1.2402c0.31901,-0.29948 0.57617,-0.56641 0.77148,-0.80078c-3.2552,0.59245 -6.3737,1.03191 -9.3555,1.3184l-0.43945,-1.8457c1.62107,-0.09765 3.16077,-0.2181 4.6191,-0.36133v-1.3574h-4.1992v-1.543h4.1992v-1.1133h-3.7402v-6.416h3.7402v-1.084h-4.502v-1.5234h4.502v-0.86914c-0.98307,0.09765 -2.10287,0.18229 -3.3594,0.25391l-0.70312,-1.5039c3.125,-0.13021 5.9147,-0.46874 8.3691,-1.0156l1.1133,1.416c-1.0612,0.26693 -2.22657,0.47852 -3.4961,0.63477v1.084h4.375v1.084zM317.4421,180.5628h-2.1777v-1.4844h-4.3359v1.084h3.7988v6.416h-3.7988v1.1133h4.043v1.543h-4.043v1.1621l0.82031,-0.07813c1.09373,-0.11068 2.27537,-0.27344 3.5449,-0.48828c1.22393,-2.23307 1.93357,-5.23437 2.1289,-9.0039zM309.0632,181.48077h-2.1191v1.2402h2.1191zM310.8698,181.48077v1.2402h2.1777v-1.2402zM309.0632,183.92217h-2.1191v1.3379h2.1191zM310.8698,183.92217v1.3379h2.1777v-1.3379z"/></g></g></g></svg>