<svg version="1.1" xmlns="http://www.w3.org/2000/svg" xmlns:xlink="http://www.w3.org/1999/xlink" width="155.44088" height="549.86777" viewBox="0,0,155.44088,549.86777"><g transform="translate(-509.67452,-150.0286)"><g data-paper-data="{&quot;isPaintingLayer&quot;:true}" fill="none" fill-rule="evenodd" stroke="#fc3324" stroke-width="36" stroke-linecap="round" stroke-linejoin="round" stroke-miterlimit="4" stroke-dasharray="" stroke-dashoffset="0" style="mix-blend-mode: normal"><g><path d="M646.07557,679.2468l1.03983,1.01983l-1.62974,1.62974l-1.16981,-1.2398l1.75972,-1.40977"/><path d="M591.52429,447.35391l2.19965,1.8897l-1.02984,1.69973l-1.54976,-0.96985l0.37994,-2.61958"/><path d="M584.27546,368.46653l1.41977,2.40962l-1.62974,-0.25996l0.20997,-2.14966"/><path d="M591.68427,365.79696l1.37978,0.17997l4.31931,4.44929l2.84954,0.42993l1.19981,2.08966l0.10999,2.34963l-1.96969,0.52992l-0.6399,3.54943l-1.31979,-1.57975l-2.33962,-0.50992l-1.55975,-1.48976l-0.46992,-2.94953l-2.18965,-0.5999l-1.53975,-4.02936l0.68989,-1.93968l1.47977,-0.47992"/><path d="M576.04675,276.7812l1.46977,1.02983l1.33979,2.88954l-1.19981,2.02967l-3.93937,-0.88986l-0.35994,-2.35962l2.68957,-2.69957"/><path d="M568.92791,249.81552l2.94953,1.94968l0.07998,4.57927l-3.34946,2.90954l-4.77923,-0.6599l-0.73988,-3.18949l1.99968,-3.27947l-0.11998,-1.69973l3.95937,-0.6099"/><path d="M530.02414,235.42782l2.69957,1.51976l0.49992,3.22948l-1.8797,-0.01999l-1.00983,1.8897l-2.65958,-0.22996l1.17981,-1.2498l0.54991,-4.83922l0.61991,-0.29995"/><path d="M536.98303,224.14962l1.40977,1.29979l-1.35978,1.20981l-1.94969,-0.49992l1.8997,-2.00968"/><path d="M543.62195,212.70146l1.20981,2.81954l-1.34979,2.14966l-0.5999,7.20884l-1.92969,-1.01984l-1.04984,-3.01952l1.03984,-1.47976l0.30995,-2.96953l2.07967,-1.79971l0.28995,-1.88969"/><path d="M544.34183,207.01237v0"/><path d="M543.75194,200.33344l1.2298,0.96984l-1.19981,1.64973l-1.2798,-0.68989l1.2498,-1.92969"/><path d="M551.80066,168.0286l5.22916,1.50976l2.31963,2.29963l0.67989,2.4496l0.6599,6.21901l-1.12982,2.17965l-4.29931,-0.63989l-3.66942,-2.26964l-0.6299,-1.92969l0.41994,-2.85954l-0.72989,-4.93921l1.14982,-2.01968"/></g></g></g></svg>