<?xml version="1.0" encoding="UTF-8"?>
<svg width="480" height="360" version="1.1" viewBox="0 0 480 360" xmlns="http://www.w3.org/2000/svg">
 <g dominant-baseline="central" fill="#fff" aria-label="鹿児島県屋久島">
  <path d="m245.19 187.08v-5.8398h2.041v1.6406h3.7012v1.6797h-3.7012v2.2168q2.4024-0.39062 3.8184-0.71289l0.0586 1.6406q-3.2227 0.91797-7.2949 1.4941l-0.5664-1.875q1.0449-0.11719 1.9434-0.24414zm5.9277-14.961h7.8516v1.6797h-5.5664v1.7188h4.8633v5.127h-14.58q-0.0586 3.0859-0.3125 4.8144-0.32227 2.207-1.2891 4.0234l-1.7969-1.4551q0.91797-1.8066 1.1719-4.2969 0.18554-1.8262 0.18554-4.9121v-6.6992h7.3047v-1.6211h2.168zm-7.4121 1.6797v1.7188h2.9004v-1.7188zm0 3.2812v2.002h2.9004v-2.002zm12.5 2.002v-2.002h-2.8027v2.002zm-7.5976-5.2832v1.7188h2.793v-1.7188zm0 3.2812v2.002h2.793v-2.002zm5.0976 6.2012q2.1191-0.72266 3.6621-1.6797l1.2988 1.582q-2.1973 1.0742-4.9609 1.8262v1.4844q0 0.58594 0.36133 0.68359 0.30273 0.0879 1.4356 0.0879 1.3574 0 1.5918-0.2832 0.21485-0.2539 0.3125-1.7383l0.0195-0.30273 2.002 0.53711q-0.0195 0.12695-0.0586 0.72265-0.14648 1.9043-0.84961 2.4609-0.69335 0.55664-3.4863 0.55664-1.9727 0-2.627-0.29297-0.72265-0.33203-0.72265-1.4258v-6.2598h2.0215z" dominant-baseline="central"/>
  <path d="m277.58 171.07v9.7266h-10.117v-9.7266zm-7.998 1.7578v2.2266h5.8594v-2.2266zm0 3.9062v2.3438h5.8594v-2.3438zm-6.9629-6.0449h2.2559v10.84h-2.2559zm-2.0606 17.041q2.5293-0.2539 4.1113-1.4355 1.084-0.81055 1.4453-2.1973 0.20508-0.80078 0.2832-2.3438h2.1582q-0.0293 3.6621-1.5918 5.4199-1.5234 1.709-5.1074 2.4414zm10.547-6.0352h2.1973v4.834q0 0.50782 0.32227 0.60547 0.34179 0.10742 1.3672 0.10742 1.1035 0 1.4746-0.11718 0.39063-0.12696 0.50782-0.77149 0.13671-0.66406 0.16601-2.041l2.2266 0.64453q-0.0391 0.37109-0.11718 1.3379-0.17578 2.0312-0.90821 2.5391-0.41015 0.27344-1.1816 0.3418-1.0644 0.0879-2.6074 0.0879-2.1387 0-2.793-0.38086-0.65429-0.39063-0.65429-1.5332z" dominant-baseline="central"/>
  <path d="m287.74 171.98q0.36133-0.86914 0.58594-1.6602l2.3828 0.32226q-0.3418 0.81055-0.625 1.3379h6.5039v6.3672h-11.797v0.98633h14.697v1.582h-14.697v0.99609h14.014q-0.12695 4.4727-0.5664 6.0352-0.28321 0.99609-1.0645 1.3184-0.55664 0.23437-1.6992 0.23437-1.1719 0-2.1875-0.14648l-0.39063-1.6406h-9.7852v1.084h-2.0996v-4.6973h2.0996v2.0117h3.3594v-2.6367h-3.8379v-11.494zm4.1504 14.131v-2.0117h2.0215v3.3984q0.81054 0.0781 1.3476 0.0781 0.66406 0 0.83008-0.38085 0.32227-0.7129 0.50781-3.7207h-8.0273v2.6367zm-7.0996-12.627v0.96679h9.6387v-0.96679zm0 2.3633v1.0644h9.6387v-1.0644z" dominant-baseline="central"/>
  <path d="m316.76 170.98v9.4629h-11.621v-9.4629zm-9.5215 1.543v1.2207h7.4023v-1.2207zm0 2.5977v1.2207h7.4023v-1.2207zm0 2.5976v1.2598h7.4023v-1.2598zm-3.9356 4.0234h16.191v1.6992h-8.0762v6.0644h-2.2168v-6.0644h-8.0371v-10.957h2.1387zm-2.5 5.8984q2.3242-1.0742 4.4434-3.6035l1.7969 1.0449q-2.0898 2.6465-4.6387 4.1602zm16.836 1.2598q-1.4941-1.8359-4.4922-3.8574l1.6797-1.1816q2.3535 1.3574 4.6191 3.5644z" dominant-baseline="central"/>
  <path d="m332.36 182.21v1.8066h5.8301v1.543h-5.8301v1.9043h7.1289v1.6797h-15.869v-1.6797h6.6211v-1.9043h-5.5078v-1.543h5.5078v-1.6992l-1.9629 0.0879q-1.416 0.0684-3.2031 0.11719l-0.5371-1.748h0.96679q0.36133 0 0.79102-0.01 0.74219-0.92774 1.416-1.9629h-3.6328q0 0.23437-0.01 0.5957-0.0391 3.9844-0.32227 5.7617-0.36133 2.2461-1.5918 4.4238l-1.7773-1.6211q0.83984-1.4648 1.1621-3.1152 0.40039-2.041 0.40039-6.6504v-7.1582h16.396v4.7266h-14.258v1.5137h14.775v1.5234h-3.0664q1.6992 1.3184 3.2226 3.0957l-1.8945 1.1426q-0.51758-0.70313-0.88867-1.1523-0.11719 0.01-0.29297 0.0293-1.1133 0.12696-2.8906 0.24414zm3.8379-9.6289h-12.119v1.6992h12.119zm-1.25 6.2207h-4.9414q-0.66407 0.99609-1.4648 1.9434h0.21489q2.8906 0 6.2793-0.20508-0.55664-0.57617-1.2207-1.1621z" dominant-baseline="central"/>
  <path d="m348.75 172.28h5.791l1.0058 0.89844q-1.2109 3.8086-3.3301 7.334 3.0469 4.4629 7.2852 6.6699l-1.4355 1.9824q-3.9551-2.4024-6.9336-6.7188l-0.0976-0.13672q-1.3672 1.9336-3.2422 3.5644-2.6074 2.2656-5.6055 3.5449l-1.4648-1.8164q3.0078-1.0352 5.6445-3.3887 1.8555-1.6504 3.1348-3.4766 1.6602-2.3438 2.7539-4.8633 0.3418-0.78125 0.58594-1.5918h-4.9805q-1.9434 3.75-4.8828 6.1426l-1.5527-1.543q3.916-2.998 5.6738-8.3789l2.1387 0.38086q-0.27344 0.82031-0.48828 1.3965z" dominant-baseline="central"/>
  <path d="m367.74 171.98q0.36133-0.86914 0.58594-1.6602l2.3828 0.32226q-0.3418 0.81055-0.625 1.3379h6.5039v6.3672h-11.797v0.98633h14.697v1.582h-14.697v0.99609h14.014q-0.12695 4.4727-0.5664 6.0352-0.28321 0.99609-1.0645 1.3184-0.55664 0.23437-1.6992 0.23437-1.1719 0-2.1875-0.14648l-0.39063-1.6406h-9.7852v1.084h-2.0996v-4.6973h2.0996v2.0117h3.3594v-2.6367h-3.8379v-11.494zm4.1504 14.131v-2.0117h2.0215v3.3984q0.81054 0.0781 1.3476 0.0781 0.66406 0 0.83008-0.38085 0.32227-0.7129 0.50781-3.7207h-8.0273v2.6367zm-7.0996-12.627v0.96679h9.6387v-0.96679zm0 2.3633v1.0644h9.6387v-1.0644z" dominant-baseline="central"/>
 </g>
</svg>
