<svg xmlns="http://www.w3.org/2000/svg" viewBox="0 0 340 100" version="1.1" height="100" width="340">
 <rect stroke-linejoin="round" stroke-linecap="round" stop-color="#000000" opacity=".988" fill="none" height="100" width="340"></rect>
 <g fill="#f00" transform="translate(120)">
  <path d="m-81.333 53.64q0-2.0943-1-3.2367-1-1.1424-2.84-1.1424v-2.6275q3.52 0 5.48 1.8659 2 1.8659 2 5.2168zm-3.84 9.0628q-3.52 0-5.52-1.904-1.96-1.942-1.96-5.4072l3.64-0.07616q0 1.3708 0.44 2.3609 0.48 0.99006 1.32 1.5232 0.88 0.49503 2.08 0.49503zm-7.48-7.3112v-1.6755l3.64-0.07615v1.6755zm7.48 7.3112v-3.0082q1.2 0 2.04-0.49503 0.88-0.53311 1.32-1.5232 0.48-0.99006 0.48-2.3609l3.64 0.07616q0 3.4652-2 5.4072-1.96 1.904-5.48 1.9039zm-7.48-8.9866q0-3.351 1.96-5.2168 2-1.8659 5.52-1.8659v2.6275q-1.8 0-2.84 1.1424-1 1.1424-1 3.2367zm11.32 1.5993v-1.6755l3.64 0.07615v1.6755zm-3.84-6.0546q-3.24 0-5.2-1.8278-1.92-1.8278-1.92-4.836l3.64 0.11424q0 1.904 0.88 2.9321 0.92 0.99005 2.6 0.99005zm-7.12-6.6638v-1.0662l3.64 0.07616v1.1043zm7.12 6.6638v-2.6275q1.72 0 2.6-0.99005 0.88-1.0281 0.88-2.9321l3.64-0.11424q0 3.0082-1.92 4.836-1.92 1.8278-5.2 1.8278zm-7.12-7.73q0-3.1225 1.92-4.9503 1.96-1.8659 5.2-1.8659v3.0082q-1.12 0-1.92 0.45695-0.76 0.41887-1.16 1.2947t-0.4 2.1324zm10.6 1.1804v-1.1043l3.64-0.07616v1.0662zm0-1.1043q0-1.2566-0.4-2.1324t-1.16-1.2947q-0.76-0.45695-1.92-0.45695v-3.0082q3.28 0 5.2 1.8659 1.92 1.8278 1.92 4.9503z"></path>
  <path d="m-115.54 41.692h4.2582l3.4791 8.4438q0.80042 1.958 1.3767 4.4422h0.0854q0.56562-2.4597 1.3767-4.4422l3.4791-8.4438h4.2582v20.302h-2.7535v-10.598q0-4.9684 0.12807-7.2201h-0.10672q-0.98184 2.9859-1.8996 5.36l-3.4791 9.0557h-2.0917l-3.4791-9.0557q-1.0779-2.8146-1.8996-5.36h-0.10672q0.12807 2.3373 0.12807 7.2201v10.598h-2.7534z"></path>
  <g>
   <path d="m-72.043 46.964h4.4102q0.72822-1.2326 1.1046-1.9879l1.8246 0.27778q-0.24547 0.46875-0.86732 1.5278l-0.10637 0.18229h5.7685v1.7101h-6.8567q-1.0719 1.5625-2.0456 2.7083 1.5464-0.9809 2.8229-0.9809 1.9801 0 2.5938 2.1094 2.0947-0.73785 4.2711-1.4583l0.70368 1.684-0.28638 0.08681-0.81004 0.2257q-2.291 0.65972-3.6656 1.1285 0.09819 1.1285 0.1391 2.9167l-1.7919 0.10417q-0.0082-1.033-0.03273-2.2396v-0.17361q-3.7638 1.3629-3.7638 2.7431 0 0.71181 0.96551 0.97222 0.93278 0.25174 3.3384 0.25174 2.2174 0 4.6557-0.2691l0.19637 1.849q-2.3647 0.19097-4.9012 0.19097-3.1256 0-4.443-0.50348-1.6283-0.625-1.6283-2.2483 0-1.3715 1.1537-2.4219 1.1946-1.0851 4.2057-2.2396-0.16364-0.6684-0.43366-0.9375-0.30274-0.30382-0.80186-0.30382-0.81004 0-2.0374 0.65104-1.5137 0.79861-3.2484 2.4045l-1.0882-1.3194q2.5447-2.5087 3.9848-4.9306h-3.3302z"></path>
   <path d="m-51.825 58.388q2.1192 0.98091 5.6621 0.98091h5.6785q-0.36002 0.6684-0.56458 1.6754h-5.0648q-4.2384 0-6.4149-1.1979-1.1946-0.65972-2.1519-2.0226-0.36002 2.0573-0.95732 3.559l-1.2682-1.4236q0.91641-2.5608 1.0882-7.0139l1.4892 0.25174q-0.0491 1.3802-0.14728 2.5174 0.49912 0.85938 1.0555 1.4323v-5.3212h-3.3547v-1.6146h3.1665v-1.9705h-2.651v-1.5799h2.651v-2.1354h1.6283v2.1354h2.1519v1.5799h-2.1519v1.9705h2.7656v1.6146h-2.6101v2.0833h2.1274v1.6146h-2.1274zm6.6522-11.45q-0.49912 3.4201-2.8556 5.0174l-1.1046-1.276q1.0228-0.65972 1.571-1.5712 0.5073-0.8507 0.7364-2.1701h-2.2174v-1.5451h7.6668q-0.04091 3.8629-0.35184 5.0955-0.16364 0.64236-0.55639 0.88542-0.36002 0.2257-1.2028 0.2257-0.94914 0-1.6855-0.08681l-0.22092-1.5799q0.97369 0.15625 1.4974 0.15625 0.32729 0 0.43366-0.15625 0.29456-0.43403 0.38457-2.7431l0.0082-0.25174zm3.5184 5.3559v5.9722h-6.9958v-5.9722zm-5.3348 1.4583v3.0035h3.6575v-3.0035z"></path>
   <path d="m-38.128 49.238h9.2378l0.7364 1.2847-0.33547 0.26042q-3.1911 2.5521-4.5248 3.7587 0.93278-0.47743 1.571-0.47743 0.82641 0 1.1782 0.60764 0.20456 0.33854 0.20456 0.81598 0 0.14757-0.02454 0.42535-0.13092 1.3368-0.13092 1.9792 0 0.64236 0.46639 0.76389 0.3682 0.09549 1.3664 0.09549 1.301 0 2.8229-0.19097l0.14728 1.849q-1.5383 0.13889-3.1829 0.13889-1.7674 0-2.381-0.25174-1.031-0.41667-1.031-1.8403 0-1.3715 0.11455-2.2656 0.0082-0.06944 0.0082-0.14757 0-0.60764-0.58094-0.60764-1.571 0-6.2349 5.3038l-1.2846-1.4931q4.7212-4.783 8.8777-8.2639h-7.0204zm8.6486-0.96354q-3.1583-1.0243-7.1022-1.7795l0.53185-1.6146q3.9029 0.63368 7.1431 1.7101z"></path>
   <path d="m-21.862 45.488h9.1805l0.8755 1.441q-4.2548 2.7604-7.3722 5.0174 2.0128-0.8941 4.042-0.8941 1.8246 0 3.0438 0.61632 1.1292 0.57292 1.7592 1.5625 0.65458 1.0504 0.65458 2.4132 0 1.9097-1.2273 3.1945-0.84277 0.8941-2.1601 1.3542-1.7265 0.59896-3.7802 0.59896-2.3647 0-3.4856-0.92882-0.8755-0.72917-0.8755-1.9705 0-0.9375 0.63822-1.6667 0.96551-1.1024 2.6101-1.1024 1.7428 0 2.7901 1.2413 0.76095 0.90278 1.0964 2.4219 2.5201-0.8507 2.5201-3.1424 0-1.7361-1.3664-2.5608-0.91641-0.55556-2.3238-0.55556-2.1028 0-3.7966 0.61632-1.2519 0.45139-3.3629 2.1788l-1.1537-1.4757q2.2747-2.0833 5.1794-4.2274 2.0047-1.4757 3.5347-2.4219h-7.0204zm6.2021 13.637q-0.58094-2.4566-2.2828-2.4566-0.94096 0-1.3583 0.63368-0.19637 0.28646-0.19637 0.61632 0 0.68576 0.91641 1.033 0.66276 0.24306 1.7755 0.24306 0.47457 0 1.1455-0.06944z"></path>
   <path d="m-4.5562 46.999v2.5608h10.506v6.1111h-10.506v2.9514h11.995v1.6927h-11.995v1.1024h-1.9474v-16.111h13.419v1.6927zm8.575 4.158h-8.575v2.882h8.575z"></path>
   <path d="m18.076 50.766q0.56458 2.0313 2.1437 4.3229 1.9228 2.7951 4.7293 4.4271l-1.1701 1.7882q-2.9702-1.8576-4.9584-4.9219-1.0719-1.6667-1.7183-3.3941-0.6464 2.3264-2.0047 4.2274-1.9965 2.8125-4.9339 4.1493l-1.1537-1.5885q3.0765-1.3629 4.9666-4.2014 1.5874-2.3958 1.8819-4.809h-6.5294v-1.8837h6.6031v-4.184h1.8901v4.184h6.7422v1.8837z"></path>
   <path d="m33.892 51.556v6.875q0 0.6684 0.54003 0.80729 0.55639 0.14757 2.5447 0.14757 1.9392 0 2.561-0.20834 0.35184-0.12153 0.45821-0.67708 0.1391-0.78125 0.14728-1.849l1.7101 0.51216q-0.13092 2.5608-0.66276 3.2726-0.35184 0.46875-1.0637 0.55556-1.121 0.13021-3.8047 0.13021-2.0783 0-2.7247-0.12153-0.97369-0.17361-1.2355-0.91146-0.13092-0.39063-0.13092-1.0417v-6.8837l-1.5628 0.57292-0.38457-1.684 1.9474-0.71181v-4.6788h1.661v4.0712l1.7592-0.63368v-4.5747h1.6446v3.967l2.7411-0.99827 0.85914 0.55556v6.5018q0 0.67708-0.30274 1.0069-0.34366 0.36458-1.1537 0.36458-0.66276 0-1.4073-0.12153l-0.27002-1.658q0.48275 0.13021 0.98187 0.13021 0.36002 0 0.44184-0.15625 0.08183-0.13021 0.08183-0.43403v-4.1059l-1.9719 0.72917v7.0226h-1.6446v-6.4236zm-6.014-2.8386v-4.1927h1.7592v4.1927h1.5874v1.7622h-1.5874v5.5208q0.85914-0.3125 1.7019-0.65104l0.15546 1.6754q-2.651 1.2847-5.4412 2.1528l-0.57276-1.849q1.2601-0.34722 2.2092-0.65972 0.11455-0.0434 0.18819-0.06076v-6.1285h-2.0783v-1.7622z"></path>
   <path d="m49.528 46.869v-0.74653h-5.1139v-1.2413h12.077v1.2413h-5.2203v0.74653h6.7749v3.1163h-1.7755v-1.9965h-4.9994v3.3767h-1.7428v-3.3767h-4.9094v1.9965h-1.7592v-3.1163zm5.793 12.318q1.2519 0.50347 3.1256 0.79861l-0.95732 1.4757q-2.6265-0.47743-4.312-1.6406-1.6774-1.1632-2.6101-2.8906h-1.8083v2.6736q1.8083-0.2691 3.3547-0.57292l0.11455 1.2934q-2.8802 0.72917-6.5867 1.2674l-0.48275-1.5278q1.2846-0.14757 1.7592-0.20834l0.09819-0.01736v-2.908h-1.7919q-0.11455 1.5278-0.37638 2.4392-0.31093 1.0938-0.99823 2.0399l-1.4564-1.2761q0.80186-1.1024 0.99824-2.5781 0.10637-0.79861 0.10637-1.9879v-3.6806h14.123v1.1545h-12.363v2.6649h13.067v1.224h-1.8574l1.0391 0.72917q-0.92459 0.81598-2.1847 1.5278zm-1.2764-0.6684q1.1782-0.8507 1.8737-1.5885h-3.5756q0.70367 0.95486 1.7019 1.5885zm-8.7059-9.8872h3.4856v0.98091h-3.4856zm0 1.5972h3.4856v0.99827h-3.4856zm6.6358-1.5972h3.592v0.98091h-3.592zm0 1.5972h3.592v0.99827h-3.592zm-5.7439 3.5417h10.187v1.1372h-10.187z"></path>
  </g>
 </g>
</svg>
