<?xml version="1.0" encoding="UTF-8"?>
<svg width="480" height="360" version="1.1" viewBox="0 0 480 360" xmlns="http://www.w3.org/2000/svg">
 <g dominant-baseline="central" fill="#fff" aria-label="駿河湾南方沖">
  <path d="m251.13 175.97-0.41015 0.0293-0.44922 0.0195-1.0352 0.0586-0.49805-1.7383 1.1133-0.01h0.18554l0.20508-0.01q1.0547-1.875 1.875-3.877l2.002 0.40039q-0.8789 1.7774-1.9238 3.418 1.4258-0.0586 2.9297-0.15625l1.0742-0.0684q-0.5957-0.92773-1.4356-1.9922l1.5723-0.70313q1.5723 1.7676 3.0273 4.2578l-1.7285 0.87891q-0.17578-0.33203-0.42969-0.77149l-0.14648-0.27343q-0.66407 0.0781-1.2598 0.13672v2.0117q0 0.33204 0.14649 0.4004 0.12695 0.0586 0.64453 0.0586 0.91797 0 1.0156-0.33203 0.0781-0.27344 0.0977-1.0254l1.7383 0.49804q-0.0293 1.6016-0.625 2.0996-0.48828 0.40039-2.4023 0.40039-1.5625 0-2.002-0.34179-0.33203-0.25391-0.33203-1.0742v-2.5293l-0.95703 0.0781-0.0488 0.01-0.16601 0.01q-0.14649 1.1914-0.50782 1.9726-0.73242 1.582-2.7441 2.4512l-1.2109-1.3574q1.6113-0.60546 2.1777-1.4941 0.37109-0.57617 0.50781-1.4355zm-1.9726 4.0527q-0.01 1.9824-0.0684 3.6719 1.875-1.6016 3.0078-4.4336l1.7773 0.38086q-0.3125 0.71289-0.54687 1.2012h3.9453l1.0449 0.87891q-1.2012 2.6172-2.7637 4.2676 1.4746 0.8789 4.2383 1.6894l-1.0547 1.8262q-2.9688-1.0352-4.5801-2.2559-2.0703 1.5625-4.5215 2.2949l-0.97656-1.4648q-0.18555 0.78125-0.68359 1.1133-0.47852 0.3125-1.5723 0.3125-1.0644 0-1.875-0.12695l-0.27344-1.8359q1.1426 0.19531 1.8359 0.19531 0.625 0 0.79102-0.35156 0.21484-0.41992 0.32226-1.748l-0.94726 0.36132q-0.3125-2.1582-0.76172-3.6328l1.0156-0.40039q0.57617 1.5723 0.74219 2.9004 0.0977-1.6992 0.10742-3.2422h-6.3477v-10.527h8.125v1.6602h-2.8027v1.4258h2.2559v1.5039h-2.2559v1.3965h2.2559v1.4844h-2.2559v1.4551zm-0.43946 7.8125q2.0312-0.51758 3.9648-1.8848-0.85938-0.92774-1.4453-1.9141-0.64453 0.69336-1.3086 1.25l-0.86914-1.0644q-0.0879 2.2461-0.3418 3.6133zm5.3125-2.9883q1.1524-1.1816 1.6992-2.3242h-3.3496q-0.0586 0.0781-0.10742 0.15625 0.79102 1.2598 1.7578 2.168zm-11.182-12.09v1.4258h1.748v-1.4258zm0 2.9297v1.3965h1.748v-1.3965zm0 2.8809v1.4551h1.748v-1.4551zm-2.7344 8.6719q0.49804-2.0898 0.70312-4.7363l1.416 0.19531q-0.10742 3.2422-0.61524 5.498zm2.5586 0q-0.01-2.168-0.19531-4.4434l1.1328-0.21485q0.3125 1.9531 0.38086 4.3555zm1.9238-0.55664q-0.14649-2.2656-0.54688-4.043l1.0059-0.32227q0.57618 1.9238 0.72266 4.0039z" dominant-baseline="central"/>
  <path d="m277.72 173.66v13.711q0 1.2012-0.625 1.6406-0.49805 0.3418-1.6992 0.3418-1.4941 0-2.959-0.13672l-0.49805-2.0801q1.7676 0.22461 3.0762 0.22461 0.46875 0 0.56641-0.17578 0.0781-0.13672 0.0781-0.50781v-13.018h-10.107v-1.9238h14.082v1.9238zm-3.8672 2.5v7.7539h-5.0293v1.5039h-1.9434v-9.2578zm-5.0293 1.6992v4.3359h3.1445v-4.3359zm-4.8633-2.4414q-1.5723-1.8555-3.1836-3.1641l1.4844-1.4356q1.7871 1.3281 3.1543 3.0371zm-0.50781 5.0391q-1.6699-1.9336-3.0957-3.1445l1.4355-1.4746q1.6699 1.1914 3.2031 3.0371zm-2.793 7.4219q1.9824-2.7246 3.7598-6.8457l1.7188 1.2012q-1.4062 3.8867-3.6816 7.1973z" dominant-baseline="central"/>
  <path d="m295.09 173.8v3.7793q0 0.64454-0.27344 0.94727-0.32226 0.35156-1.4258 0.35156-1.0547 0-1.7285-0.11718l-0.25391-1.6211q0.77148 0.15625 1.2988 0.15625 0.2832 0 0.36133-0.13672 0.0586-0.11718 0.0586-0.38086v-2.9785h-1.7383q-0.0781 2.0605-0.54688 3.1641-0.51757 1.2012-2.1387 2.1973l-1.3965-1.2402q1.4648-0.76172 1.8848-1.9629 0.25391-0.75195 0.3125-2.1582h-3.8574v-1.6602h5.5566v-1.6406h2.1484v1.6406h6.1328v1.6602zm3.0176 5.5371v3.9648h-9.6387q-0.0781 0.53711-0.18555 1.0742h10.664q-0.24414 2.6856-0.67383 3.6816-0.625 1.4453-2.9297 1.4453-1.9141 0-4.1113-0.16601l-0.36133-1.7774q2.0996 0.22461 3.7598 0.22461 0.89843 0 1.1816-0.20508 0.43945-0.32226 0.68359-1.6797h-8.5938q-0.10742 0.40039-0.37109 1.2012l-2.0996-0.41992q0.74218-2.2266 1.1133-4.8145h9.4238v-1.0449h-10v-1.4844zm-14.365-4.3164q-1.084-1.5039-2.7734-2.9785l1.4551-1.3867q1.5332 1.123 2.8809 2.8613zm-0.5957 5.0391q-1.5039-1.9043-2.9199-3.1055l1.4648-1.416q1.4648 1.123 3.0176 2.9004zm-2.5195 7.9004q1.7188-2.6758 3.2617-6.8652l1.6016 1.1816q-1.2793 3.877-3.0664 7.2461zm17.402-9.3652q-1.2793-2.0703-2.6855-3.5742l1.4844-0.95703q1.7188 1.5625 2.7832 3.418zm-13.662-1.1719q1.4258-1.1719 2.3438-3.1055l1.7774 0.66406q-0.95703 2.1777-2.6465 3.6328z" dominant-baseline="central"/>
  <path d="m308.92 182.24h-4.043v-1.6016h1.9531q-0.43945-0.9961-0.99609-1.8555l1.7578-0.64453q0.76172 1.2793 1.2305 2.5h2.2949q0.57617-1.1816 1.0156-2.5391l1.9629 0.61524q-0.49805 1.0742-1.0547 1.9238h2.0996v1.6016h-4.1797v1.4258h4.4531v1.6602h-4.4531v3.6914h-2.041v-3.6914h-4.2871v-1.6602h4.2871zm2.0996-6.0156h7.4024v11.416q0 1.0059-0.53711 1.416-0.44922 0.35157-1.5137 0.35157-1.377 0-2.6562-0.14649l-0.47852-1.9629q1.709 0.20508 2.5586 0.20508 0.35156 0 0.41015-0.17578 0.0391-0.10742 0.0391-0.30274v-9.1016h-12.48v11.582h-2.1777v-13.281h7.2754v-1.7676h-8.3594v-1.8164h8.3594v-2.1387h2.1582v2.1387h8.4766v1.8164h-8.4766z" dominant-baseline="central"/>
  <path d="m329.48 175.76q-0.0684 1.6309-0.19531 2.8711h7.8711q-0.14648 6.7774-0.76172 8.7988-0.3125 1.0156-1.1621 1.4062-0.66406 0.30273-1.9434 0.30273-1.3477 0-3.0566-0.20507l-0.38085-2.1973q2.2949 0.32227 3.2324 0.32227 0.79101 0 1.0059-0.44922 0.51757-1.0938 0.72265-6.0352h-5.8105q-0.32227 1.7578-0.90821 3.0469-1.6309 3.5644-5.4492 5.6543l-1.543-1.7188q3.8281-1.9922 5.0586-5.2246 0.82031-2.1582 1.0644-6.5723h-6.4648v-2.002h7.9785v-3.2617h2.2559v3.2617h8.2422v2.002z" dominant-baseline="central"/>
  <path d="m351.58 174.14v-3.6426h2.0996v3.6426h5.293v8.8379h-5.293v6.5234h-2.0996v-6.5234h-5.1856v-8.8379zm-3.1641 1.9434v4.9707h3.1641v-4.9707zm8.4766 4.9707v-4.9707h-3.2129v4.9707zm-12.5-5.7812q-1.1914-1.6602-3.1543-3.1738l1.4551-1.4844q1.9531 1.377 3.3008 3.0859zm-0.63476 5.0195q-1.6992-1.9727-3.3008-3.2324l1.5039-1.5039q1.709 1.2012 3.3789 3.1055zm-3.0371 7.5684q1.875-2.666 3.457-6.6406l1.7383 1.3379q-1.3379 3.6621-3.2617 6.8945z" dominant-baseline="central"/>
 </g>
</svg>
