<svg version="1.1" xmlns="http://www.w3.org/2000/svg" xmlns:xlink="http://www.w3.org/1999/xlink" width="160.1" height="32.534" viewBox="0,0,160.1,32.534"><g transform="translate(-240,-180)"><g data-paper-data="{&quot;isPaintingLayer&quot;:true}" stroke="none" stroke-linecap="butt" stroke-linejoin="miter" stroke-miterlimit="10" stroke-dasharray="" stroke-dashoffset="0" style="mix-blend-mode: normal"><path d="M248,180h144.1c4.432,0 8,3.568 8,8v16.534c0,4.432 -3.568,8 -8,8h-144.1c-4.432,0 -8,-3.568 -8,-8v-16.534c0,-4.432 3.568,-8 8,-8z" fill-opacity="0.7" fill="#000000" fill-rule="evenodd" stroke-width="0"/><g fill="#ffffff" fill-rule="nonzero" stroke-width="1"><path d="M247.4658,188.4205h5.01562l0.96875,0.8789c-0.10417,1.14323 -0.32943,2.04297 -0.67578,2.69922c-0.40625,0.77083 -1.03516,1.37109 -1.88672,1.80078c-0.53125,0.26823 -1.23958,0.50782 -2.125,0.71875l-0.44922,-0.79297c0.86979,-0.15885 1.5586,-0.36458 2.06641,-0.61718c0.82813,-0.40885 1.41406,-1.03125 1.75781,-1.86719c0.21354,-0.52083 0.33594,-1.1888 0.36719,-2.00391h-5.03906zM253.83689,187.03768c0.17448,0 0.34115,0.04818 0.5,0.14454c0.15625,0.09114 0.27734,0.21874 0.36328,0.38281c0.07813,0.14583 0.11719,0.29818 0.11719,0.45703c0,0.25521 -0.09115,0.48047 -0.27344,0.67578c-0.19271,0.20573 -0.43099,0.30859 -0.71484,0.30859c-0.14063,0 -0.27604,-0.03123 -0.40625,-0.0937c-0.16146,-0.07552 -0.29297,-0.18489 -0.39453,-0.32812c-0.11979,-0.17187 -0.17969,-0.36068 -0.17969,-0.56641c0,-0.15885 0.04036,-0.3125 0.12109,-0.46093c0.08073,-0.14844 0.18881,-0.26823 0.32422,-0.35938c0.16406,-0.10677 0.34505,-0.16016 0.54297,-0.16016zM253.83289,187.51815c-0.09635,0 -0.1875,0.02733 -0.27343,0.082c-0.15365,0.09636 -0.23047,0.23829 -0.23047,0.42579c0,0.13281 0.04557,0.24739 0.13672,0.34375c0.09895,0.10417 0.22135,0.15625 0.36718,0.15625c0.08333,0 0.16016,-0.01823 0.23047,-0.0547c0.18229,-0.09375 0.27344,-0.24219 0.27344,-0.44531c0,-0.14323 -0.05078,-0.26433 -0.15234,-0.36329c-0.09375,-0.09635 -0.21094,-0.14453 -0.35157,-0.14453zM255.61805,188.07675h6.12891v6.03125h-6.12891zM256.52821,188.90878v4.36719h4.30859v-4.36719zM268.16102,188.51034l0.70312,0.69531c-0.29427,1.48177 -0.82161,2.64323 -1.58203,3.48438c-0.71615,0.79167 -1.79427,1.40365 -3.23437,1.83594l-0.48828,-0.78907c1.25781,-0.31771 2.23307,-0.82552 2.92578,-1.52343c0.75781,-0.76303 1.25521,-1.73048 1.49218,-2.90235h-2.59375c-0.51041,0.76042 -1.13411,1.38933 -1.87109,1.88672l-0.63281,-0.64844c0.59375,-0.38021 1.07942,-0.79557 1.45703,-1.24609c0.42708,-0.51563 0.76823,-1.14063 1.02344,-1.875l0.83984,0.23437c-0.10937,0.30729 -0.22916,0.58985 -0.35937,0.84766zM268.41492,188.58844c-0.15625,-0.43229 -0.38802,-0.86719 -0.69531,-1.30469l0.65625,-0.14844c0.26563,0.33854 0.50261,0.76693 0.71094,1.28516zM269.59071,188.54154c-0.16667,-0.48958 -0.39583,-0.95312 -0.6875,-1.39062l0.64062,-0.13672c0.26563,0.36198 0.49479,0.80208 0.6875,1.32031zM271.35242,187.7642h5.15235v0.80078h-5.15235zM270.79383,189.67826h6.50391c-0.11459,1.13541 -0.35157,2.02343 -0.71094,2.66406c-0.27083,0.48177 -0.60938,0.86589 -1.01563,1.15235c-0.6875,0.48958 -1.6875,0.82552 -3,1.00781l-0.39453,-0.79297c1.15885,-0.11198 2.04557,-0.37761 2.66016,-0.79688c0.79687,-0.53906 1.2539,-1.35026 1.37109,-2.43359h-5.41406zM278.08289,193.10795c0.17969,-0.00267 0.42708,-0.0157 0.74219,-0.0391c0.74219,-1.66667 1.42578,-3.5013 2.05078,-5.5039l0.89453,0.23437c-0.61458,1.92188 -1.27083,3.65756 -1.96875,5.20703c1.32292,-0.09635 2.4961,-0.21354 3.51953,-0.35156c-0.38541,-0.67969 -0.77734,-1.30729 -1.17578,-1.88281l0.76953,-0.48828c0.82031,1.13021 1.54037,2.32812 2.16016,3.59375l-0.87891,0.45703c-0.14323,-0.30209 -0.30078,-0.61719 -0.47265,-0.94531c-1.52083,0.25521 -3.33724,0.48177 -5.44922,0.67968zM289.6493,190.50248v1.15234h2.52734v0.73438h-2.52734v1.35156h3.26562v0.76172h-7.35156v-0.76172h3.21485v-1.35156h-2.46485v-0.73438h2.46485v-1.15234h-1.67969v-0.32422c-0.36979,0.25261 -0.76953,0.49089 -1.19922,0.71484l-0.53516,-0.71875c0.84896,-0.3776 1.54297,-0.81901 2.08203,-1.32422c0.46615,-0.4375 0.88933,-0.98828 1.26954,-1.65234h0.91796c0.57553,0.76823 1.2448,1.40755 2.00782,1.91797c0.41927,0.28125 0.91536,0.54817 1.48828,0.80078l-0.50391,0.74609c-0.40885,-0.20573 -0.79818,-0.42708 -1.16797,-0.66406v0.50391zM291.0868,189.74857c-0.73177,-0.52083 -1.35677,-1.11719 -1.875,-1.78906c-0.39583,0.65885 -0.91146,1.25521 -1.54688,1.78906zM298.92274,189.54935c0.25521,0.58333 0.52474,1.07682 0.80859,1.48047c0.40365,0.57813 0.88412,1.09245 1.44141,1.54297l-0.46485,0.85547c-0.91667,-0.82813 -1.61458,-1.84505 -2.09375,-3.05078v2.12109h1.09375v0.76172h-1.0625v1.53906h-0.84765v-1.53906h-0.96094v-0.76172h0.99219v-2.07812c-0.44011,1.23958 -1.09896,2.29036 -1.97657,3.15234l-0.53515,-0.76172c0.88021,-0.71093 1.61198,-1.79817 2.19531,-3.26172h-1.95703v-0.77734h2.24219v-1.57422h0.84765v1.57422h2.35938v0.77734zM295.26649,189.09232v5.70703h-0.84766v-4.04297c-0.19791,0.32553 -0.42448,0.66016 -0.67969,1.00391l-0.39062,-0.875c0.48437,-0.65885 0.88541,-1.40495 1.20312,-2.23828c0.15105,-0.39844 0.32292,-0.91276 0.51563,-1.54297l0.83203,0.22266c-0.20313,0.66927 -0.41406,1.25781 -0.63281,1.76562zM305.63758,193.61185c1.52865,-0.38541 2.29297,-1.26171 2.29297,-2.6289c0,-0.59635 -0.15365,-1.10938 -0.46094,-1.53907c-0.34375,-0.48437 -0.86718,-0.79557 -1.57031,-0.93359c-0.15365,1.20833 -0.36328,2.19792 -0.62891,2.96875c-0.18229,0.53906 -0.40885,1.04817 -0.67968,1.52734c-0.39063,0.68229 -0.83464,1.02344 -1.33204,1.02344c-0.36979,0 -0.69921,-0.16667 -0.98828,-0.5c-0.18489,-0.21093 -0.33463,-0.47005 -0.44922,-0.77734c-0.15104,-0.39844 -0.22656,-0.82683 -0.22656,-1.28516c0,-0.74219 0.20443,-1.42578 0.61328,-2.05078c0.41407,-0.63802 0.95183,-1.10156 1.61328,-1.39062c0.48177,-0.21094 1.01042,-0.31641 1.58594,-0.31641c0.89844,0 1.66146,0.24089 2.28906,0.72266c0.77083,0.59114 1.15625,1.42838 1.15625,2.51171c0,1.81511 -0.91797,2.96615 -2.7539,3.45313zM305.05164,188.47904c-0.46093,0.05207 -0.84635,0.17576 -1.15625,0.37109c-0.19791,0.12761 -0.39453,0.29688 -0.58984,0.50782c-0.54167,0.59895 -0.8125,1.29296 -0.8125,2.08203c0,0.57552 0.11458,1.02604 0.34375,1.35156c0.14063,0.20052 0.27995,0.30078 0.41797,0.30078c0.1875,0 0.39844,-0.20703 0.63281,-0.62109c0.57292,-1.00781 0.96094,-2.33854 1.16406,-3.99219zM312.82508,188.84623v-0.59375h-3.14844v-0.71875h7.14453v0.71875h-3.16406v0.59375h2.73828v3.16797h-2.75781c-0.00267,0.0182 -0.004,0.03643 -0.004,0.0547c-0.02867,0.45833 -0.14585,0.86328 -0.35156,1.21485c1.01042,0.35417 2.26433,0.59766 3.76172,0.73047l-0.48047,0.76172c-1.45573,-0.16927 -2.71354,-0.46875 -3.77344,-0.89844c-0.30208,0.26302 -0.6914,0.47526 -1.16796,0.63672c-0.42709,0.14583 -0.98047,0.26172 -1.66016,0.34765l-0.42188,-0.74218c1.05209,-0.07813 1.86329,-0.27735 2.4336,-0.59766c-0.5599,-0.27604 -1.07813,-0.59765 -1.55469,-0.96484l0.57422,-0.48829c0.49739,0.38542 1.00651,0.69141 1.52734,0.91797c0.15105,-0.25781 0.2474,-0.58203 0.28907,-0.97265h-2.71875v-3.16797zM312.82508,189.47123h-1.89453v0.6289h1.89453zM313.65711,189.47123v0.6289h1.89844v-0.6289zM312.82508,190.7017h-1.89453v0.67968h1.89453zM313.65711,190.7017v0.67968h1.89844v-0.67968zM319.86805,192.10795c0.37761,0.20573 0.79558,0.49479 1.25391,0.86718l-0.44532,0.72657c-0.29427,-0.33073 -0.5638,-0.60287 -0.80859,-0.81641v1.91406h-0.80078v-2.08593c-0.35157,0.64583 -0.76954,1.1862 -1.25391,1.62109l-0.45703,-0.73828c0.58073,-0.41146 1.0638,-0.92318 1.44922,-1.53516h-1.23438v-0.6875h1.4961v-0.76172h-1.64844v-0.71875h0.85547c-0.06771,-0.33073 -0.16276,-0.6914 -0.28516,-1.08203h-0.41797v-0.72656h1.48047v-0.88672h0.83203v0.88672h1.41797v0.72656h-0.41797c-0.09635,0.39063 -0.21614,0.7513 -0.35937,1.08203h0.89453v0.71875h-1.55078v0.76172h1.40625v0.6875h-1.40625zM318.76649,188.81107c0.09895,0.32552 0.18489,0.6862 0.25781,1.08203h0.77344c0.11979,-0.33593 0.22265,-0.69661 0.30859,-1.08203zM322.44227,190.70951c0.00267,0.80729 -0.05983,1.55599 -0.1875,2.24609c-0.13281,0.71615 -0.36849,1.35677 -0.70703,1.92188l-0.64453,-0.58985c0.28906,-0.46875 0.48698,-1.04427 0.59375,-1.72656c0.09375,-0.58333 0.14062,-1.32812 0.14062,-2.23437v-2.44922c0.05207,-0.00533 0.13149,-0.01313 0.23828,-0.0234c0.82813,-0.07813 1.65755,-0.25651 2.48828,-0.53516l0.51172,0.67969c-0.69271,0.23437 -1.5026,0.41536 -2.42969,0.54297v1.35156h2.6211v0.81641h-0.89453v4.08984h-0.8086v-4.08984zM326.06727,187.56498h0.91015v5.85547c0.48698,-0.15625 0.92058,-0.33724 1.30079,-0.54297c1.06771,-0.57552 1.95442,-1.30859 2.66015,-2.19922c0.20833,-0.26302 0.40755,-0.5651 0.59766,-0.90625l0.57812,0.81641c-0.54167,0.84114 -1.22526,1.57551 -2.05078,2.20312c-1.00521,0.76302 -2.15104,1.32812 -3.4375,1.69531l-0.55859,-0.54687zM332.76258,190.42045h6.87891v0.8789h-6.87891zM341.18055,187.42045h0.91016v2.24218c1.55469,0.47917 2.84245,0.96875 3.86328,1.46875l-0.4375,0.84375c-0.97917,-0.49739 -2.12109,-0.97005 -3.42578,-1.41796v3.96875h-0.91016zM347.16102,188.29545h2.10547c0.23177,-0.36979 0.40755,-0.66797 0.52734,-0.89453l0.87109,0.125c-0.07812,0.14062 -0.21614,0.36979 -0.41406,0.6875l-0.0508,0.082h2.75391v0.76953h-3.27344c-0.34115,0.46875 -0.66667,0.875 -0.97656,1.21875c0.49219,-0.29427 0.9414,-0.44141 1.34765,-0.44141c0.63021,0 1.04297,0.31641 1.23828,0.94922c0.66667,-0.22135 1.34636,-0.4401 2.03907,-0.65625l0.33593,0.75781l-0.13671,0.0391l-0.38672,0.10156c-0.72917,0.19791 -1.3125,0.36718 -1.75,0.50781c0.03127,0.33854 0.0534,0.77604 0.0664,1.3125l-0.85547,0.0469c-0.00267,-0.3099 -0.00787,-0.64584 -0.0156,-1.00782v-0.0781c-1.19792,0.40885 -1.79688,0.82031 -1.79688,1.23437c0,0.21355 0.15365,0.35938 0.46094,0.4375c0.29687,0.07552 0.82812,0.11328 1.59375,0.11328c0.70573,0 1.44662,-0.04036 2.22266,-0.12109l0.0937,0.83203c-0.75261,0.05727 -1.53256,0.0859 -2.33985,0.0859c-0.99479,0 -1.70182,-0.07552 -2.12109,-0.22656c-0.51823,-0.1875 -0.77734,-0.52474 -0.77734,-1.01172c0,-0.41146 0.18359,-0.77474 0.55078,-1.08985c0.38021,-0.32552 1.04948,-0.66146 2.00781,-1.00781c-0.05207,-0.20052 -0.12108,-0.34114 -0.20703,-0.42187c-0.09635,-0.09115 -0.22396,-0.13672 -0.38281,-0.13672c-0.25781,0 -0.58203,0.09766 -0.97266,0.29297c-0.48177,0.23958 -0.9987,0.60026 -1.55078,1.08203l-0.51953,-0.59375c0.80989,-0.75261 1.44401,-1.49219 1.90234,-2.21875h-1.58984zM356.55164,192.47904c-0.48437,0.32813 -0.95573,0.57682 -1.41406,0.74609l-0.53516,-0.60156c1.2474,-0.42187 2.15105,-1.0039 2.71094,-1.74609l0.79297,0.19531c-0.11198,0.14583 -0.22396,0.27604 -0.33594,0.39063h2.69532l0.49609,0.41796c-0.39583,0.47657 -0.95703,0.96485 -1.68359,1.46485c0.81771,0.27604 1.7526,0.48567 2.80468,0.6289l-0.4414,0.81641c-1.23959,-0.23698 -2.30079,-0.5612 -3.1836,-0.97266c-0.98958,0.48438 -2.13411,0.81902 -3.43359,1.00391l-0.39063,-0.74219c1.02865,-0.08073 2.04427,-0.3125 3.04688,-0.69531l-0.043,-0.0273c-0.41146,-0.27344 -0.77344,-0.56641 -1.08594,-0.87891zM357.19227,192.11185c0.34635,0.32031 0.78646,0.61719 1.32031,0.89063c0.55729,-0.32031 0.94922,-0.61719 1.17578,-0.89063zM358.68055,187.91654h3.24219v0.67969h-2.26563v1.75c0,0.25521 -0.06901,0.42969 -0.20703,0.52344c-0.11458,0.07812 -0.30599,0.11718 -0.57422,0.11718c-0.2526,0 -0.52604,-0.02083 -0.82031,-0.0625l-0.10156,-0.67968c0.28385,0.04687 0.52213,0.0703 0.71484,0.0703c0.07552,0 0.11979,-0.01693 0.13281,-0.0508c0.0104,-0.02347 0.0156,-0.06253 0.0156,-0.11719v-1.55078h-1.00781c0,0.56771 -0.0638,1.01302 -0.19141,1.33594c-0.22396,0.57031 -0.65104,0.97786 -1.28125,1.22265l-0.58984,-0.54297c0.48697,-0.1901 0.8164,-0.43489 0.98828,-0.73437c0.09895,-0.17187 0.16796,-0.3776 0.20703,-0.61719c0.0234,-0.14063 0.04033,-0.36198 0.0508,-0.66406h-2.36719v-0.67969h3.19922v-0.71875h0.85547zM361.32117,190.82279c-0.38541,-0.58073 -0.83072,-1.12239 -1.33593,-1.625l0.64062,-0.43359c0.49479,0.42708 0.94531,0.9375 1.35156,1.53125zM354.45008,190.26029c0.53385,-0.40885 0.92838,-0.88281 1.18359,-1.42187l0.72657,0.26953c-0.36198,0.74739 -0.82552,1.32682 -1.39063,1.73828zM365.86414,188.84623v-0.59375h-3.14843v-0.71875h7.14453v0.71875h-3.16407v0.59375h2.73829v3.16797h-2.75782c-0.00267,0.0182 -0.004,0.03643 -0.004,0.0547c-0.02867,0.45833 -0.14586,0.86328 -0.35157,1.21485c1.01042,0.35417 2.26433,0.59766 3.76172,0.73047l-0.48047,0.76172c-1.45573,-0.16927 -2.71354,-0.46875 -3.77343,-0.89844c-0.30209,0.26302 -0.69141,0.47526 -1.16797,0.63672c-0.42709,0.14583 -0.98047,0.26172 -1.66016,0.34765l-0.42187,-0.74218c1.05208,-0.07813 1.86328,-0.27735 2.43359,-0.59766c-0.55989,-0.27604 -1.07812,-0.59765 -1.55469,-0.96484l0.57422,-0.48829c0.4974,0.38542 1.00652,0.69141 1.52735,0.91797c0.15104,-0.25781 0.24739,-0.58203 0.28906,-0.97265h-2.71875v-3.16797zM365.86414,189.47123h-1.89453v0.6289h1.89453zM366.69617,189.47123v0.6289h1.89844v-0.6289zM365.86414,190.7017h-1.89453v0.67968h1.89453zM366.69617,190.7017v0.67968h1.89844v-0.67968zM371.25086,187.52592h0.92188v4.65625c0,0.98177 0.51562,1.47265 1.54687,1.47265c0.67969,0 1.23698,-0.3138 1.67188,-0.9414c0.28125,-0.40365 0.53385,-1.02865 0.75781,-1.875l0.79297,0.48046c-0.26563,0.94011 -0.58464,1.64323 -0.95703,2.10938c-0.58594,0.72656 -1.34766,1.08984 -2.28516,1.08984c-0.97917,0 -1.66927,-0.30208 -2.07031,-0.90625c-0.25261,-0.3776 -0.37891,-0.86458 -0.37891,-1.46093zM380.88367,187.38138h0.86329v0.98438h2.45703v0.74219h-2.45703v0.92968h2.32031v0.73438h-2.32031v1.20703c0.92708,0.3125 1.84114,0.78255 2.74218,1.41016l-0.46093,0.74218c-0.68229,-0.51041 -1.44271,-0.96093 -2.28125,-1.35156c-0.0208,0.44531 -0.10674,0.79037 -0.25782,1.03516c-0.26302,0.42448 -0.78125,0.63672 -1.55468,0.63672c-0.59636,0 -1.07553,-0.11198 -1.4375,-0.33594c-0.40365,-0.25 -0.60547,-0.58854 -0.60547,-1.01563c0,-0.51041 0.27213,-0.88802 0.8164,-1.13281c0.36459,-0.16146 0.83855,-0.24219 1.42188,-0.24219c0.22917,0 0.48047,0.01823 0.7539,0.0547v-1.00781h-2.76953v-0.73438h2.76953v-0.92968h-2.9375v-0.74219h2.9375zM380.88367,192.50638c-0.30989,-0.06507 -0.60677,-0.0976 -0.89062,-0.0976c-0.34635,0 -0.6276,0.05078 -0.84375,0.15234c-0.25781,0.1224 -0.38672,0.29688 -0.38672,0.52344c0,0.19011 0.10026,0.34375 0.30078,0.46094c0.20313,0.11979 0.47396,0.17968 0.8125,0.17968c0.40104,0 0.67708,-0.10677 0.82813,-0.32031c0.11979,-0.16667 0.17968,-0.41536 0.17968,-0.74609zM389.17664,187.35795h0.87891v1.07812h2.30469v0.75391h-2.30469v1.67187c0.09115,0.32031 0.13672,0.60547 0.13672,0.85547c0,0.92709 -0.20443,1.60808 -0.61328,2.04297c-0.44531,0.47656 -1.11589,0.80599 -2.01172,0.98828l-0.44531,-0.66406c0.69531,-0.13281 1.21093,-0.32031 1.54687,-0.5625c0.31511,-0.22917 0.52735,-0.54036 0.63672,-0.93359c-0.27865,0.30469 -0.61068,0.45703 -0.99609,0.45703c-0.43229,0 -0.78256,-0.1224 -1.05079,-0.36719c-0.3151,-0.28906 -0.47265,-0.70833 -0.47265,-1.25781c0,-0.28907 0.06901,-0.56771 0.20703,-0.83594c0.09115,-0.17187 0.20313,-0.3151 0.33594,-0.42969c0.30729,-0.26041 0.67578,-0.39062 1.10547,-0.39062c0.27343,0 0.52083,0.0651 0.74218,0.19531v-0.76953h-3.85547v-0.75391h3.85547zM389.20784,191.41263v-0.14453c0,-0.16667 -0.03906,-0.3138 -0.11718,-0.4414c-0.14583,-0.23959 -0.35677,-0.35938 -0.63282,-0.35938c-0.14062,0 -0.27213,0.03906 -0.39453,0.11719c-0.28646,0.17969 -0.42969,0.45573 -0.42969,0.82812c0,0.23438 0.05208,0.4323 0.15625,0.59375c0.14583,0.22396 0.36068,0.33594 0.64454,0.33594c0.25781,0 0.46223,-0.11588 0.61328,-0.34765c0.10677,-0.16407 0.16015,-0.35808 0.16015,-0.58204z"/><path d="M247.8252,198.365h0.91016v5.85547c0.48698,-0.15625 0.92057,-0.33724 1.30078,-0.54297c1.06771,-0.57552 1.95442,-1.30859 2.66015,-2.19922c0.20833,-0.26302 0.40755,-0.5651 0.59766,-0.90625l0.57813,0.81641c-0.54167,0.84114 -1.22526,1.57551 -2.05079,2.20312c-1.00521,0.76302 -2.15104,1.32812 -3.4375,1.69531l-0.55859,-0.54687zM254.52051,201.22047h6.87891v0.8789h-6.87891zM262.93848,198.22047h0.91016v2.24218c1.55469,0.47917 2.84245,0.96875 3.86328,1.46875l-0.4375,0.84375c-0.97917,-0.49739 -2.12109,-0.97005 -3.42578,-1.41796v3.96875h-0.91016zM268.40723,199.72437h1.72656c0.07813,-0.40104 0.16537,-0.89974 0.26172,-1.49609l0.0195,-0.11328l0.85547,0.1289c-0.08854,0.55209 -0.17968,1.04558 -0.27343,1.48047h0.47265c0.625,0 1.07292,0.14063 1.34375,0.42188c0.24219,0.2526 0.36328,0.64583 0.36328,1.17969c0,0.89843 -0.09505,1.73828 -0.28515,2.51953c-0.10938,0.44271 -0.24219,0.76953 -0.39844,0.98047c-0.19792,0.26302 -0.47266,0.39453 -0.82422,0.39453c-0.42187,0 -0.88281,-0.13542 -1.38281,-0.40625l0.0976,-0.82422c0.49479,0.23698 0.87891,0.35547 1.15235,0.35547c0.14323,0 0.2539,-0.07682 0.33203,-0.23047c0.08333,-0.16667 0.16276,-0.40755 0.23828,-0.72266c0.14844,-0.63802 0.22266,-1.30859 0.22266,-2.01172c0,-0.36979 -0.07422,-0.60937 -0.22266,-0.71875c-0.12761,-0.09115 -0.35547,-0.13672 -0.68359,-0.13672h-0.60157c-0.41406,1.84375 -1.00781,3.41667 -1.78125,4.71875l-0.78515,-0.42968c0.79948,-1.34115 1.36979,-2.77084 1.71094,-4.28907h-1.5586zM274.89551,203.57984c-0.29427,-1.08333 -0.75911,-2.14713 -1.39453,-3.1914l0.76172,-0.34375c0.65625,1.04687 1.14714,2.10026 1.47266,3.16015zM274.31739,199.83765c-0.16146,-0.42187 -0.42188,-0.89062 -0.78125,-1.40625l0.60547,-0.22656c0.3151,0.44531 0.57942,0.90755 0.79297,1.38672zM275.36817,199.50172c-0.20313,-0.50261 -0.46224,-0.97526 -0.77734,-1.41797l0.57421,-0.19141c0.29948,0.35677 0.5612,0.80209 0.78516,1.33594zM278.06348,199.88062v5.71875h-0.84765v-3.98047c-0.17188,0.29427 -0.37501,0.60808 -0.60938,0.94141l-0.40625,-0.875c0.44531,-0.62239 0.81901,-1.35286 1.12109,-2.19141c0.15105,-0.41667 0.31641,-0.94922 0.4961,-1.59765l0.84765,0.22265c-0.17969,0.61719 -0.38021,1.20443 -0.60156,1.76172zM278.96973,198.78297c0.09635,-0.0078 0.19531,-0.0156 0.29688,-0.0234c0.98698,-0.07031 1.95964,-0.21484 2.91797,-0.43359c0.23437,-0.05467 0.48307,-0.12107 0.74609,-0.19922l0.54297,0.65625c-0.51042,0.14583 -1.04427,0.26823 -1.60156,0.36718c0.0104,0.50521 0.03903,0.9961 0.0859,1.47266l1.83594,-0.10547l0.0312,0.76172l-1.78906,0.0977c0.13541,1.09115 0.33333,1.91667 0.59375,2.47656c0.07031,0.15104 0.15234,0.29166 0.24609,0.42187c0.06247,0.08594 0.10674,0.12891 0.13281,0.12891c0.02867,0 0.06643,-0.08724 0.11329,-0.26172c0.05987,-0.22917 0.11065,-0.57031 0.15234,-1.02344l0.67187,0.52735c-0.08073,0.63281 -0.17448,1.07943 -0.28125,1.33984c-0.14583,0.34896 -0.32031,0.52344 -0.52343,0.52344c-0.17448,0 -0.38151,-0.11719 -0.6211,-0.35156c-0.28385,-0.27865 -0.53906,-0.69141 -0.76562,-1.23828c-0.15365,-0.3724 -0.26823,-0.76042 -0.34375,-1.16407c-0.06513,-0.35156 -0.12373,-0.75781 -0.17578,-1.21875l-0.0117,-0.10547l-1.44531,0.0859v1.8711c0.51302,-0.13803 1.0013,-0.28386 1.46484,-0.4375l0.0625,0.71875c-0.78646,0.32031 -1.67448,0.60546 -2.66406,0.85546l-0.29688,-0.80078c0.15104,-0.02867 0.35937,-0.07294 0.625,-0.13281zM281.06739,199.27906c-0.40104,0.06247 -0.83073,0.11325 -1.28906,0.15234v1.31641l1.37109,-0.0781c-0.03387,-0.40886 -0.0612,-0.8724 -0.082,-1.39063zM278.80958,204.63062h2.96484v0.79297h-2.96484zM288.07129,203.09937c-0.48177,1.41667 -1.02213,2.125 -1.62109,2.125c-0.42708,0 -0.79297,-0.29948 -1.09766,-0.89843c-0.23437,-0.46355 -0.39583,-0.97396 -0.48437,-1.53125c-0.10677,-0.67709 -0.16016,-1.54688 -0.16016,-2.60938c0,-0.46094 0.01693,-0.95573 0.0508,-1.48437l0.91797,0.0703c-0.03387,0.52865 -0.0508,1.03125 -0.0508,1.50781c0,1.67187 0.15625,2.83724 0.46875,3.49609c0.12761,0.27083 0.2474,0.40625 0.35938,0.40625c0.07291,0 0.16406,-0.08333 0.27343,-0.25c0.22396,-0.33854 0.44011,-0.80468 0.64844,-1.39843zM290.54395,204.02906c-0.13281,-1.09896 -0.29557,-1.98698 -0.48828,-2.66406c-0.23437,-0.82031 -0.50651,-1.57162 -0.81641,-2.25391l0.83203,-0.20312c0.42969,0.85156 0.74871,1.67187 0.95704,2.46093c0.17187,0.64063 0.3138,1.45573 0.42578,2.44532zM294.87208,198.57984h4.5039v0.76172h-1.34375v1.30469h1.57031v0.76172h-1.57031v1.61718c0.64063,0.27605 1.25521,0.64844 1.84375,1.11719l-0.45312,0.75391c-0.42969,-0.36979 -0.89583,-0.70313 -1.39844,-1c-0.08073,0.91667 -0.61328,1.375 -1.59766,1.375c-0.47917,0 -0.88932,-0.11979 -1.23047,-0.35938c-0.36979,-0.25781 -0.55468,-0.58594 -0.55468,-0.98437c0,-0.4349 0.19401,-0.76954 0.58203,-1.00391c0.3125,-0.1901 0.70182,-0.28515 1.16797,-0.28515c0.23437,0 0.49349,0.03253 0.77734,0.0976v-1.32812h-2.48047v-0.76172h2.48047v-1.30469h-2.29687zM297.16895,203.4939c-0.27344,-0.09635 -0.53516,-0.14453 -0.78516,-0.14453c-0.25521,0 -0.46224,0.04167 -0.62109,0.125c-0.19791,0.10417 -0.29687,0.25651 -0.29687,0.45703c0,0.14583 0.0651,0.27083 0.19531,0.375c0.1875,0.15365 0.42969,0.23047 0.72656,0.23047c0.52083,0 0.78125,-0.25391 0.78125,-0.76172zM292.93067,205.32594c-0.10937,-0.88803 -0.16406,-1.85417 -0.16406,-2.89844c0,-1.48177 0.09766,-2.84375 0.29297,-4.08594l0.84765,0.12109c-0.1901,1.13281 -0.28515,2.39844 -0.28515,3.79688c0,1.01823 0.05208,1.98958 0.15625,2.91406zM306.93848,205.02906c-0.77083,0.08073 -1.56771,0.12109 -2.39062,0.12109c-1.21355,0 -2.06381,-0.07682 -2.55078,-0.23046c-0.35417,-0.11198 -0.63412,-0.27865 -0.83985,-0.5c-0.23698,-0.25781 -0.35547,-0.57162 -0.35547,-0.94141c0,-0.61198 0.27474,-1.15365 0.82422,-1.625c0.21875,-0.1875 0.56771,-0.41146 1.04688,-0.67188c-0.35938,-0.80729 -0.6849,-1.72656 -0.97657,-2.75781l0.8711,-0.22656c0.26563,0.96094 0.54948,1.83334 0.85156,2.61719c1.01823,-0.46094 1.88932,-0.78907 2.61328,-0.98438l0.39453,0.76172c-0.9375,0.22917 -2.00521,0.6263 -3.20312,1.19141c-0.39323,0.1875 -0.66928,0.33854 -0.82813,0.45312c-0.46615,0.34115 -0.69922,0.72005 -0.69922,1.13672c0,0.36198 0.21615,0.61458 0.64844,0.75781c0.35937,0.11719 1.0026,0.17578 1.92969,0.17578c0.85677,0 1.71485,-0.04948 2.57422,-0.14843zM306.43458,199.78297c-0.16927,-0.42709 -0.42839,-0.89193 -0.77735,-1.39453l0.59375,-0.21485c0.30729,0.42448 0.56771,0.88021 0.78125,1.36719zM307.41895,199.43922c-0.18489,-0.47135 -0.4414,-0.9388 -0.76953,-1.40235l0.56641,-0.1914c0.29947,0.36458 0.55598,0.80729 0.76953,1.32812zM310.06348,199.88062v5.71875h-0.84765v-3.98047c-0.17188,0.29427 -0.37501,0.60808 -0.60938,0.94141l-0.40625,-0.875c0.44531,-0.62239 0.81901,-1.35286 1.12109,-2.19141c0.15105,-0.41667 0.31641,-0.94922 0.4961,-1.59765l0.84765,0.22265c-0.17969,0.61719 -0.38021,1.20443 -0.60156,1.76172zM310.96973,198.78297c0.09635,-0.0078 0.19531,-0.0156 0.29688,-0.0234c0.98698,-0.07031 1.95964,-0.21484 2.91797,-0.43359c0.23437,-0.05467 0.48307,-0.12107 0.74609,-0.19922l0.54297,0.65625c-0.51042,0.14583 -1.04427,0.26823 -1.60156,0.36718c0.0104,0.50521 0.03903,0.9961 0.0859,1.47266l1.83594,-0.10547l0.0312,0.76172l-1.78906,0.0977c0.13541,1.09115 0.33333,1.91667 0.59375,2.47656c0.07031,0.15104 0.15234,0.29166 0.24609,0.42187c0.06247,0.08594 0.10674,0.12891 0.13281,0.12891c0.02867,0 0.06643,-0.08724 0.11329,-0.26172c0.05987,-0.22917 0.11065,-0.57031 0.15234,-1.02344l0.67187,0.52735c-0.08073,0.63281 -0.17448,1.07943 -0.28125,1.33984c-0.14583,0.34896 -0.32031,0.52344 -0.52343,0.52344c-0.17448,0 -0.38151,-0.11719 -0.6211,-0.35156c-0.28385,-0.27865 -0.53906,-0.69141 -0.76562,-1.23828c-0.15365,-0.3724 -0.26823,-0.76042 -0.34375,-1.16407c-0.06513,-0.35156 -0.12373,-0.75781 -0.17578,-1.21875l-0.0117,-0.10547l-1.44531,0.0859v1.8711c0.51302,-0.13803 1.0013,-0.28386 1.46484,-0.4375l0.0625,0.71875c-0.78646,0.32031 -1.67448,0.60546 -2.66406,0.85546l-0.29688,-0.80078c0.15104,-0.02867 0.35937,-0.07294 0.625,-0.13281zM313.06739,199.27906c-0.40104,0.06247 -0.83073,0.11325 -1.28906,0.15234v1.31641l1.37109,-0.0781c-0.03387,-0.40886 -0.0612,-0.8724 -0.082,-1.39063zM310.80958,204.63062h2.96484v0.79297h-2.96484zM320.87989,199.73219h2.07422v4.28125h-1.65625c0.97656,0.27083 1.83203,0.57812 2.5664,0.92187l-0.65625,0.70313c-0.7526,-0.41146 -1.61328,-0.77735 -2.58203,-1.09766l0.52735,-0.52734h-2.49219l0.63672,0.53515c-0.75,0.46354 -1.59766,0.83203 -2.54297,1.10547l-0.625,-0.72656c0.90365,-0.19792 1.73177,-0.50261 2.48437,-0.91406h-1.55468v-3.70704c-0.08333,0.04947 -0.23307,0.1302 -0.44922,0.24219l-0.46485,-0.64062c1.09896,-0.52865 1.89844,-1.17057 2.39844,-1.92578l0.57813,0.36718h2.2539l0.41016,0.375c-0.27865,0.36459 -0.58073,0.70053 -0.90625,1.00782zM319.86036,199.73219c0.28906,-0.26303 0.52864,-0.51042 0.71875,-0.74219h-1.78907c-0.22917,0.24739 -0.50911,0.49479 -0.83984,0.74219zM317.92286,200.34156v0.61719h4.15625v-0.61719zM317.92286,201.52515v0.60938h4.15625v-0.60938zM317.92286,202.72047v0.67578h4.15625v-0.67578zM330.96583,201.02906v3.73828c0,0.29167 -0.07422,0.49479 -0.22266,0.60938c-0.13021,0.10417 -0.37109,0.15625 -0.72266,0.15625c-0.46875,0 -0.86328,-0.01823 -1.18359,-0.0547l-0.16016,-0.76953c0.4974,0.04947 0.89714,0.0742 1.19922,0.0742c0.11979,0 0.19141,-0.02213 0.21485,-0.0664c0.0182,-0.03127 0.0273,-0.08726 0.0273,-0.16797v-3.51953h-3.625v-0.71094h5.35156v0.71094zM326.31739,198.6775v-0.67969h0.83984v0.67969h1.6875v-0.67969h0.85547v0.67969h1.96875v0.71875h-1.96875v0.61719h-0.85547v-0.61719h-1.6875v0.61719h-0.55859c-0.17709,0.45312 -0.3698,0.85807 -0.57813,1.21484v4.37109h-0.83984v-3.1289c-0.20573,0.25781 -0.43489,0.50911 -0.6875,0.7539l-0.38281,-0.78515c0.74219,-0.73177 1.30469,-1.63412 1.6875,-2.70703l0.51953,0.18359v-0.51953h-1.90625v-0.71875zM329.39161,201.74v2.20312h-1.98438v0.54297h-0.7539v-2.74609zM327.40723,202.34156v0.96875h1.24219v-0.96875zM332.93458,205.26344c-0.09896,-0.88542 -0.14844,-1.76563 -0.14844,-2.64063c0,-1.5 0.11068,-2.92448 0.33203,-4.27344l0.85937,0.0899c-0.21093,1.16667 -0.3164,2.48307 -0.3164,3.94922c0,0.98437 0.05469,1.90494 0.16406,2.76171zM335.27833,199.07594h3.7539v0.83203h-3.7539zM339.29786,204.78297c-0.52083,0.08073 -1.13932,0.12109 -1.85547,0.12109c-1.79948,0 -2.69922,-0.52865 -2.69922,-1.58594c0,-0.41927 0.11198,-0.78515 0.33594,-1.09765l0.73828,0.32812c-0.14063,0.19792 -0.21094,0.42058 -0.21094,0.66797c0,0.30469 0.15234,0.51432 0.45703,0.62891c0.33854,0.13021 0.80078,0.19531 1.38672,0.19531c0.63281,0 1.21875,-0.04167 1.75781,-0.125zM344.81739,200.82203h0.88672v2.14453c0.60937,0.26823 1.23307,0.62239 1.87109,1.0625l-0.44922,0.73047c-0.44791,-0.32813 -0.92187,-0.63281 -1.42187,-0.91406c-0.02867,0.46093 -0.17841,0.8151 -0.44922,1.0625c-0.30209,0.27343 -0.72526,0.41015 -1.26953,0.41015c-0.52605,0 -0.95964,-0.11979 -1.30078,-0.35937c-0.33333,-0.23698 -0.5,-0.56771 -0.5,-0.99219c0,-0.44531 0.20963,-0.80208 0.6289,-1.07031c0.32552,-0.20833 0.74219,-0.3125 1.25,-0.3125c0.23698,0 0.48828,0.02863 0.75391,0.0859zM344.81739,203.47047c-0.3099,-0.10677 -0.60287,-0.16016 -0.87891,-0.16016c-0.27083,0 -0.48828,0.04818 -0.65234,0.14453c-0.21094,0.125 -0.31641,0.29167 -0.31641,0.5c0,0.25521 0.15104,0.44141 0.45313,0.5586c0.15104,0.05727 0.33203,0.0859 0.54297,0.0859c0.33854,0 0.58203,-0.14323 0.73046,-0.42968c0.08073,-0.15365 0.1211,-0.33334 0.1211,-0.53907zM340.62598,199.32594h1.49219c0.13281,-0.45053 0.23958,-0.84766 0.32031,-1.19141l0.85547,0.10547c-0.10417,0.38281 -0.21094,0.74479 -0.32031,1.08594h1.42578v0.78515h-1.67969c-0.46615,1.33594 -1.01302,2.46615 -1.64062,3.39063l-0.72657,-0.41407c0.59375,-0.88021 1.09506,-1.87239 1.50391,-2.97656h-1.23047zM347.14942,201.22828c-0.57813,-0.64323 -1.24219,-1.22916 -1.99219,-1.75781l0.51563,-0.5625c0.74479,0.48177 1.42447,1.04296 2.03906,1.68359zM351.18067,201.57984c-0.26042,0.48698 -0.52735,0.85287 -0.80078,1.09766c-0.23437,0.21093 -0.44922,0.3164 -0.64453,0.3164c-0.25,0 -0.45182,-0.16927 -0.60547,-0.50781c-0.15885,-0.35417 -0.23828,-0.90885 -0.23828,-1.66406c0,-0.76042 0.08854,-1.58464 0.26562,-2.47266l0.85547,0.12891c-0.17187,0.88021 -0.25781,1.625 -0.25781,2.23437c0,0.82031 0.05859,1.23047 0.17578,1.23047c0.04427,0 0.11979,-0.0625 0.22656,-0.1875c0.16667,-0.1875 0.34245,-0.46354 0.52735,-0.82812zM350.58692,204.63844c0.79948,-0.22396 1.40234,-0.5586 1.80859,-1.00391c0.4974,-0.54427 0.7461,-1.36719 0.7461,-2.46875c0,-0.83594 -0.08073,-1.77474 -0.24219,-2.81641l0.89453,-0.0859c0.17187,1.05208 0.25781,2.03255 0.25781,2.9414c0,1.47396 -0.37891,2.53516 -1.13672,3.1836c-0.46093,0.39583 -1.08203,0.72396 -1.86328,0.98437zM358.80176,198.1814h0.86328v0.98438h2.45704v0.74219h-2.45704v0.92968h2.32032v0.73438h-2.32032v1.20703c0.92709,0.3125 1.84115,0.78255 2.74219,1.41016l-0.46094,0.74218c-0.68229,-0.51041 -1.4427,-0.96093 -2.28125,-1.35156c-0.0208,0.44531 -0.10674,0.79037 -0.25781,1.03516c-0.26302,0.42448 -0.78125,0.63672 -1.55469,0.63672c-0.59635,0 -1.07552,-0.11198 -1.4375,-0.33594c-0.40364,-0.25 -0.60546,-0.58854 -0.60546,-1.01563c0,-0.51041 0.27213,-0.88802 0.8164,-1.13281c0.36459,-0.16146 0.83855,-0.24219 1.42188,-0.24219c0.22917,0 0.48047,0.01823 0.7539,0.0547v-1.00781h-2.76953v-0.73438h2.76953v-0.92968h-2.9375v-0.74219h2.9375zM358.80176,203.3064c-0.30989,-0.06513 -0.60677,-0.0977 -0.89062,-0.0977c-0.34635,0 -0.6276,0.05078 -0.84375,0.15234c-0.25781,0.1224 -0.38672,0.29688 -0.38672,0.52344c0,0.19011 0.10026,0.34375 0.30078,0.46094c0.20313,0.11979 0.47396,0.17968 0.8125,0.17968c0.40104,0 0.67708,-0.10677 0.82813,-0.32031c0.11979,-0.16667 0.17968,-0.41536 0.17968,-0.74609zM367.09473,198.15797h0.87891v1.07812h2.30469v0.75391h-2.30469v1.67187c0.09115,0.32031 0.13672,0.60547 0.13672,0.85547c0,0.92709 -0.20443,1.60808 -0.61328,2.04297c-0.44531,0.47656 -1.11589,0.80599 -2.01172,0.98828l-0.44532,-0.66406c0.69531,-0.13281 1.21094,-0.32031 1.54688,-0.5625c0.31511,-0.22917 0.52735,-0.54036 0.63672,-0.93359c-0.27865,0.30469 -0.61068,0.45703 -0.9961,0.45703c-0.43229,0 -0.78255,-0.1224 -1.05078,-0.36719c-0.3151,-0.28906 -0.47265,-0.70833 -0.47265,-1.25781c0,-0.28907 0.06901,-0.56771 0.20703,-0.83594c0.09115,-0.17187 0.20313,-0.3151 0.33594,-0.42969c0.30729,-0.26041 0.67577,-0.39062 1.10546,-0.39062c0.27344,0 0.52084,0.0651 0.74219,0.19531v-0.76953h-3.85547v-0.75391h3.85547zM367.12593,202.21265v-0.14453c0,-0.16667 -0.03906,-0.3138 -0.11719,-0.4414c-0.14583,-0.23959 -0.35677,-0.35938 -0.63281,-0.35938c-0.14063,0 -0.27214,0.03906 -0.39453,0.11719c-0.28646,0.17969 -0.42969,0.45573 -0.42969,0.82812c0,0.23438 0.05208,0.4323 0.15625,0.59375c0.14583,0.22396 0.36068,0.33594 0.64453,0.33594c0.25781,0 0.46224,-0.11588 0.61329,-0.34765c0.10677,-0.16407 0.16015,-0.35808 0.16015,-0.58204z"/></g></g></g></svg>