<svg version="1.1" xmlns="http://www.w3.org/2000/svg" xmlns:xlink="http://www.w3.org/1999/xlink" width="208" height="32" viewBox="0,0,208,32"><g transform="translate(-240,-164)"><g data-paper-data="{&quot;isPaintingLayer&quot;:true}" fill-rule="nonzero" stroke="none" stroke-linecap="butt" stroke-linejoin="miter" stroke-miterlimit="10" stroke-dasharray="" stroke-dashoffset="0" style="mix-blend-mode: normal"><path d="M240,196v-32h208v32z" fill="none" stroke-width="0"/><path d="M251.04,185.42h4.9219v-10.742h2.2168v14.658h-2.2168v-1.7969h-11.943v1.7969h-2.1973v-14.658h2.1973v10.742h4.8047v-14.727h2.2168z" fill="#ffffff" stroke-width="1"/><path d="M265.18,176.66c-0.8724,1.30207 -1.9987,2.42187 -3.3789,3.3594l-1.2402,-1.3965c1.4974,-0.84633 2.77997,-1.9596 3.8477,-3.3398h-3.5059v-1.582h4.2773v-1.1426c-0.83333,0.07813 -1.87173,0.14649 -3.1152,0.20508l-0.64453,-1.4258c3.0534,-0.19531 5.63477,-0.49479 7.7441,-0.89844l0.9375,1.4062c-1.05467,0.22135 -2.0345,0.38737 -2.9395,0.49805v1.3574h3.6816v1.582h-3.6816v0.48828c1.23047,0.47526 2.45117,1.06446 3.6621,1.7676l-1.1426,1.4844c-0.77473,-0.58594 -1.56573,-1.11327 -2.373,-1.582l-0.14649,-0.0781v3.0371h-1.9824zM272.8167,183.1151c1.862,1.47787 4.1504,2.69207 6.8652,3.6426l-1.2988,1.8652c-3.09247,-1.31513 -5.5534,-2.9753 -7.3828,-4.9805v5.8594h-2.1191v-5.8008l-0.0586,0.0781c-1.83593,2.2656 -4.2155,3.9941 -7.1387,5.1855l-1.2598,-1.7676c2.70833,-0.93747 5.0065,-2.29813 6.8945,-4.082h-6.8164v-1.6992h8.3789v-1.8945h2.1191v1.8945h8.4961v1.6992zM271.6448,171.3961h2.0801v6.1816h-2.0801zM276.1663,170.65392h2.1387v7.998c0,0.7422 -0.28646,1.2077 -0.85937,1.3965c-0.26042,0.09115 -0.72915,0.13672 -1.4062,0.13672c-0.6966,0 -1.39973,-0.03581 -2.1094,-0.10743l-0.36133,-1.709c0.78773,0.09765 1.46807,0.14648 2.041,0.14648c0.27343,0 0.43945,-0.07487 0.49805,-0.2246c0.03907,-0.09766 0.0586,-0.25066 0.0586,-0.45899z" fill="#ffffff" stroke-width="1"/><path d="M296.76,170.98v9.4629h-11.621v-9.4629zM287.2385,172.523v1.2207h7.4023v-1.2207zM287.2385,175.1207v1.2207h7.4023v-1.2207zM287.2385,177.7183v1.2598h7.4023v-1.2598zM283.3029,181.7417h16.191v1.6992h-8.0762v6.0644h-2.2168v-6.0644h-8.0371v-10.957h2.1387zM280.8029,187.6401c1.54947,-0.71613 3.0306,-1.9173 4.4434,-3.6035l1.7969,1.0449c-1.3932,1.76433 -2.93943,3.15107 -4.6387,4.1602zM297.6389,188.8999c-0.99607,-1.22393 -2.49347,-2.50973 -4.4922,-3.8574l1.6797,-1.1816c1.569,0.90493 3.1087,2.09307 4.6191,3.5644z" fill="#ffffff" stroke-width="1"/><path d="M308.84,174.08v-3.584h2.1973v3.584h7.2461v10.332h-2.1582v-1.3574h-5.0879v6.4453h-2.1973v-6.4453h-4.9609v1.4648h-2.1582v-10.439zM303.8791,176.082v4.9707h4.9609v-4.9707zM316.1251,181.0527v-4.9707h-5.0879v4.9707z" fill="#ffffff" stroke-width="1"/><path d="M325.02,177.79c0.50781,0 0.96681,0.16927 1.377,0.50781c0.54037,0.44271 0.81055,1.00911 0.81055,1.6992c0,0.42318 -0.12044,0.81705 -0.36133,1.1816c-0.43619,0.67707 -1.05469,1.0156 -1.8555,1.0156c-0.35156,0 -0.68686,-0.08464 -1.0059,-0.25391c-0.2539,-0.13021 -0.46874,-0.30273 -0.64453,-0.51758c-0.35807,-0.42317 -0.53711,-0.90494 -0.53711,-1.4453c0,-0.7552 0.31576,-1.35417 0.94727,-1.7969c0.37761,-0.26041 0.80077,-0.39062 1.2695,-0.39062z" fill="#ffffff" stroke-width="1"/><path d="M336.44,176.07v-2.7344h-5.8203v-1.8848h18.779v1.8848h-6.4551v2.7344h5.4785v13.164h-2.1191v-1.377h-12.607v1.377h-2.0996v-13.164zM338.4615,176.07h2.4609v-2.7344h-2.4609zM336.4303,177.8473h-2.7344v8.1543h12.607v-2.9297h-3.7012c-1.1198,0 -1.6797,-0.5599 -1.6797,-1.6797v-3.5449h-2.4805c-0.02607,1.6016 -0.26695,2.88417 -0.72266,3.8477c-0.42969,0.918 -1.27605,1.8262 -2.5391,2.7246l-1.3477,-1.5039c1.21093,-0.7422 1.9759,-1.66017 2.2949,-2.7539c0.16927,-0.58594 0.27018,-1.35744 0.30273,-2.3145zM342.944,177.8473v2.9883c0,0.25391 0.11393,0.38086 0.3418,0.38086h3.0176v-3.3691z" fill="#ffffff" stroke-width="1"/><path d="M356.98,172.75h4.1797v1.8848h-1.377c-0.2474,0.99607 -0.57943,2.041 -0.9961,3.1348h2.6074v1.8848h-10.898v-1.8848h2.3926c-0.26041,-1.25 -0.53385,-2.29493 -0.82031,-3.1348h-1.2695v-1.8848h4.1406v-2.2559h2.041zM354.0406,174.6348c0.33203,0.97007 0.58919,2.015 0.77148,3.1348h1.9922l0.09766,-0.27344c0.27995,-0.7422 0.54036,-1.5853 0.78125,-2.5293l0.0879,-0.33203zM360.0953,181.295v7.998h-2.002v-0.95703h-4.2578v1.1621h-2.0606v-8.2031zM353.8355,183.0919v3.3887h4.2578v-3.3887zM366.8825,178.1603c0.77473,0.73567 1.38997,1.61133 1.8457,2.627c0.44922,1.0156 0.67383,2.04423 0.67383,3.0859c0,0.96353 -0.17904,1.67317 -0.53711,2.1289c-0.37109,0.47526 -0.98306,0.71289 -1.8359,0.71289c-0.7292,0 -1.43557,-0.05208 -2.1191,-0.15625l-0.47852,-2.0801c0.78773,0.14323 1.43877,0.21485 1.9531,0.21485c0.39063,0 0.63477,-0.09115 0.73242,-0.27344c0.06513,-0.13021 0.0977,-0.39062 0.0977,-0.78125c0,-1.60807 -0.48177,-2.9948 -1.4453,-4.1602c-0.25391,-0.30599 -0.57292,-0.63476 -0.95703,-0.98633l0.11719,-0.27343c0.67707,-1.52993 1.2044,-3.125 1.582,-4.7852h-2.5v16.064h-2.0215v-18.086h5.8789l1.084,0.99609c-0.65755,2.2396 -1.34765,4.15693 -2.0703,5.752z" fill="#ffffff" stroke-width="1"/></g></g></svg>