<svg version="1.1" xmlns="http://www.w3.org/2000/svg" xmlns:xlink="http://www.w3.org/1999/xlink" width="208" height="32" viewBox="0,0,208,32"><g transform="translate(-240,-164)"><g data-paper-data="{&quot;isPaintingLayer&quot;:true}" fill-rule="nonzero" stroke="none" stroke-linecap="butt" stroke-linejoin="miter" stroke-miterlimit="10" stroke-dasharray="" stroke-dashoffset="0" style="mix-blend-mode: normal"><path d="M240,196v-32h208v32z" fill="none" stroke-width="0"/><path d="M251.58,174.14v-3.6426h2.0996v3.6426h5.293v8.8379h-5.293v6.5234h-2.0996v-6.5234h-5.1856v-8.8379zM248.4159,176.0834v4.9707h3.1641v-4.9707zM256.8925,181.0541v-4.9707h-3.2129v4.9707zM244.3925,175.2729c-0.79427,-1.1068 -1.8457,-2.16473 -3.1543,-3.1738l1.4551,-1.4844c1.30207,0.918 2.40233,1.94663 3.3008,3.0859zM243.75774,180.2924c-1.1328,-1.31513 -2.23307,-2.3926 -3.3008,-3.2324l1.5039,-1.5039c1.13933,0.8008 2.26563,1.83597 3.3789,3.1055zM240.72064,187.8608c1.25,-1.77733 2.40233,-3.99087 3.457,-6.6406l1.7383,1.3379c-0.89193,2.4414 -1.97917,4.73957 -3.2617,6.8945z" fill="#ffffff" stroke-width="1"/><path d="M262.95,177.73c-0.6836,-1.0872 -1.53973,-2.18093 -2.5684,-3.2812l1.1426,-1.416c0.15625,0.16927 0.29622,0.32227 0.41992,0.45898l0.0977,0.10743c0.61849,-0.95053 1.17839,-2.02477 1.6797,-3.2227l1.7188,0.87891c-0.65104,1.2044 -1.44204,2.40557 -2.373,3.6035c0.35156,0.46224 0.68033,0.93097 0.98632,1.4062c0.96353,-1.36067 1.76757,-2.5651 2.4121,-3.6133l1.4941,1.0547c-1.24347,1.88153 -2.6367,3.68167 -4.1797,5.4004c0.98307,-0.0586 1.77407,-0.1237 2.373,-0.19531c-0.14974,-0.51433 -0.3125,-0.99609 -0.48828,-1.4453l1.4746,-0.53711c0.49479,1.25 0.85613,2.48373 1.084,3.7012v-1.6992h4.3359v-1.1035h-3.8184v-6.4746h9.5606v6.4746h-3.9844v1.1035h4.5508v6.6211h-4.5508v1.2402c0,0.34505 0.09765,0.55013 0.29296,0.61524c0.18881,0.06513 0.67057,0.0977 1.4453,0.0977c0.91147,0 1.47137,-0.0944 1.6797,-0.28321c0.15625,-0.13672 0.23764,-0.66082 0.24415,-1.5723l1.8066,0.51757c-0.06513,1.28253 -0.2279,2.09633 -0.48829,2.4414c-0.22135,0.28646 -0.61849,0.47526 -1.1914,0.56641c-0.58594,0.09115 -1.34114,0.13672 -2.2656,0.13672c-1.4844,0 -2.40563,-0.11719 -2.7637,-0.35157c-0.34505,-0.22135 -0.51758,-0.68359 -0.51758,-1.3867v-2.0215h-4.3359v-4.6875l-1.5039,0.64453c-0.06513,-0.41667 -0.13349,-0.79427 -0.20508,-1.1328c-0.13021,0.01953 -0.38086,0.0586 -0.75195,0.11719c-0.19531,0.03253 -0.34831,0.05533 -0.45899,0.0684v8.9355h-1.9043v-8.6816c-0.07161,0.00667 -0.17578,0.01643 -0.3125,0.0293c-0.59896,0.07161 -1.37369,0.14648 -2.3242,0.22461l-0.38086,-1.7774c0.26041,-0.013 0.52408,-0.02603 0.79101,-0.0391l0.58594,-0.0293c0.45573,-0.54688 0.85287,-1.04495 1.1914,-1.4942zM272.5594,172.7495h-2.0801v1.1816h2.0801zM274.3172,172.7495v1.1816h2.168v-1.1816zM272.5594,175.23h-2.0801v1.2402h2.0801zM274.3172,175.23v1.2402h2.168v-1.2402zM272.5594,180.2691h-2.4609v1.2402h2.4609zM274.3172,180.2691v1.2402h2.6465v-1.2402zM272.5594,182.8277h-2.4609v1.3086h2.4609zM274.3172,182.8277v1.3086h2.6465v-1.3086zM260.3032,187.0757c0.38412,-1.27607 0.6185,-2.9753 0.70313,-5.0977l1.7773,0.25391c-0.0586,2.29167 -0.29297,4.1927 -0.70312,5.7031zM266.4067,186.67531c-0.20833,-1.63413 -0.46224,-3.11527 -0.76172,-4.4434l1.4551,-0.41992c0.37761,1.26953 0.68685,2.64323 0.92773,4.1211z" fill="#ffffff" stroke-width="1"/><path d="M290.23,178.41v7.7344c0,0.5013 0.21485,0.80403 0.64454,0.9082c0.44271,0.11068 1.45507,0.16602 3.0371,0.16602c1.54293,0 2.5618,-0.07813 3.0566,-0.23438c0.27995,-0.09115 0.46224,-0.34505 0.54687,-0.76172c0.11068,-0.58593 0.16927,-1.2793 0.17578,-2.0801l2.041,0.57618c-0.10417,1.9206 -0.36784,3.1478 -0.79102,3.6816c-0.27995,0.35156 -0.70311,0.55989 -1.2695,0.625c-0.89193,0.09765 -2.4056,0.14648 -4.541,0.14648c-1.65367,0 -2.73767,-0.04557 -3.252,-0.13672c-0.77473,-0.13021 -1.26627,-0.47201 -1.4746,-1.0254c-0.10417,-0.29297 -0.15625,-0.6836 -0.15625,-1.1719v-7.7441l-1.8652,0.64453l-0.45899,-1.8945l2.3242,-0.80078v-5.2637h1.9824v4.5801l2.0996,-0.71289v-5.1465h1.9629v4.4629l3.2715,-1.123l1.0254,0.625v7.3144c0,0.50781 -0.12044,0.88541 -0.36133,1.1328c-0.27343,0.27343 -0.73243,0.41015 -1.377,0.41015c-0.52735,0 -1.08725,-0.04557 -1.6797,-0.13672l-0.32226,-1.8652c0.38411,0.09765 0.77475,0.14648 1.1719,0.14648c0.28646,0 0.46224,-0.05859 0.52734,-0.17578c0.06513,-0.09765 0.0977,-0.26041 0.0977,-0.48828v-4.6191l-2.3535,0.82031v7.9004h-1.9629v-7.2266zM283.0523,175.2166v-4.7168h2.0996v4.7168h1.8945v1.9824h-1.8945v6.2109c0.6836,-0.23437 1.36067,-0.47851 2.0312,-0.73242l0.18555,1.8848c-2.1094,0.96353 -4.2741,1.77083 -6.4941,2.4219l-0.6836,-2.0801c1.0026,-0.26041 1.8815,-0.50781 2.6367,-0.74218c0.09115,-0.03253 0.16602,-0.05533 0.22461,-0.0684v-6.8945h-2.4805v-1.9824z" fill="#ffffff" stroke-width="1"/><path d="M309.48,175.76c-0.0456,1.08727 -0.1107,2.0443 -0.19531,2.8711h7.8711c-0.09765,4.51827 -0.35156,7.4512 -0.76172,8.7988c-0.20833,0.67707 -0.5957,1.1458 -1.1621,1.4062c-0.44271,0.20182 -1.09051,0.30273 -1.9434,0.30273c-0.89847,0 -1.91733,-0.06836 -3.0566,-0.20507l-0.38085,-2.1973c1.52993,0.21485 2.6074,0.32227 3.2324,0.32227c0.52734,0 0.86264,-0.14974 1.0059,-0.44922c0.34505,-0.7292 0.58593,-2.74093 0.72265,-6.0352h-5.8105c-0.21485,1.17187 -0.51758,2.1875 -0.90821,3.0469c-1.08727,2.37627 -2.90367,4.26103 -5.4492,5.6543l-1.543,-1.7188c2.55207,-1.32813 4.23827,-3.06967 5.0586,-5.2246c0.54687,-1.4388 0.90167,-3.62957 1.0644,-6.5723h-6.4648v-2.002h7.9785v-3.2617h2.2559v3.2617h8.2422v2.002z" fill="#ffffff" stroke-width="1"/></g></g></svg>