<svg version="1.1" xmlns="http://www.w3.org/2000/svg" xmlns:xlink="http://www.w3.org/1999/xlink" width="208" height="32" viewBox="0,0,208,32"><g transform="translate(-240,-164)"><g data-paper-data="{&quot;isPaintingLayer&quot;:true}" fill-rule="nonzero" stroke="none" stroke-linecap="butt" stroke-linejoin="miter" stroke-miterlimit="10" stroke-dasharray="" stroke-dashoffset="0" style="mix-blend-mode: normal"><path d="M240,196v-32h208v32z" fill="none" stroke-width="0"/><path d="M256.43,183.6l0.13672,0.0684c0.67707,0.3125 1.4095,0.68033 2.1973,1.1035l-1.2793,1.5234c-1.38673,-0.83333 -2.81903,-1.6146 -4.2969,-2.3438v2.9394h-2.041v-3.9453c-1.237,0.97653 -2.6335,1.79033 -4.1895,2.4414l-1.2598,-1.4551c2.0182,-0.7422 3.8216,-1.68947 5.4102,-2.8418h-3.9062v-4.0723h10.127v4.0723h-0.0781l1.2207,0.78125c-0.69013,0.64453 -1.37047,1.2207 -2.041,1.7285zM254.7698,182.87734c0.07813,-0.06513 0.18881,-0.16279 0.33204,-0.29297c0.5013,-0.45573 0.9798,-0.95376 1.4355,-1.4941h-2.8809c-0.08463,0.07161 -0.20182,0.16927 -0.35156,0.29297l-0.11719,0.0977v0.80079c0.39714,0.13671 0.92447,0.33528 1.582,0.5957zM249.2034,178.35584v1.416h6.1035v-1.416zM245.0432,185.20154c0.50781,0.53385 1.08725,0.96029 1.7383,1.2793c0.44271,0.21485 1.08075,0.39714 1.9141,0.54688c0.84633,0.14323 1.70247,0.21484 2.5684,0.21484h8.5547c-0.24739,0.47526 -0.45898,1.09376 -0.63476,1.8555h-7.9785c-2.20053,0 -3.8737,-0.28971 -5.0195,-0.86914c-0.67707,-0.34505 -1.32487,-0.85285 -1.9434,-1.5234c-0.918,1.15233 -1.84573,2.10287 -2.7832,2.8516l-1.0938,-1.9727c0.83987,-0.52735 1.71877,-1.17515 2.6367,-1.9434v-5.0586h-2.5v-1.9238h4.541zM251.1467,171.83254v-1.3379h2.041v1.3379h4.7754v1.4844h-4.7754v1.1133h5.8398v1.5625h-13.32v-1.5625h5.4395v-1.1133h-4.3457v-1.4844zM243.7639,175.68994c-0.86587,-1.49087 -1.83267,-2.7897 -2.9004,-3.8965l1.6211,-1.1816c1.00913,0.98307 2.00197,2.2233 2.9785,3.7207z" fill="#ffffff" stroke-width="1"/><path d="M260.46,182.12c0.48177,-0.9896 0.83334,-2.11263 1.0547,-3.3691c0.13672,-0.76173 0.25065,-1.7448 0.3418,-2.9492l1.7676,0.29297c-0.16276,2.98827 -0.64453,5.3483 -1.4453,7.0801zM267.96,182.65711c-0.33854,-2.40233 -0.77801,-4.44987 -1.3184,-6.1426l1.543,-0.8789c0.65105,1.66667 1.15561,3.6621 1.5137,5.9863zM269.8643,171.68011h2.1582v16.455h-2.1582zM273.9952,182.42211c-0.47526,-2.57813 -1.01889,-4.5931 -1.6309,-6.0449l1.6309,-0.8789c0.8008,1.9206 1.38347,3.8542 1.748,5.8008zM275.919,170.99611h2.1777v18.506h-2.1777zM264.22,171.13283h2.1777v8.8379c0,2.49347 -0.29297,4.50843 -0.8789,6.0449c-0.4362,1.14587 -1.1556,2.27867 -2.1582,3.3984l-1.8848,-1.4258c1.8294,-1.90753 2.7441,-4.58657 2.7441,-8.0371z" fill="#ffffff" stroke-width="1"/><path d="M289.3,175.71v0.88867h2.6562v1.2012c0.931,-2.2982 1.55927,-4.7624 1.8848,-7.3926l1.7773,0.26367c-0.24088,1.37367 -0.472,2.49347 -0.69336,3.3594h1.0156c0.30599,-1.15233 0.54362,-2.3242 0.71289,-3.5156l1.709,0.3125c-0.24088,1.14587 -0.53059,2.21357 -0.86914,3.2031h2.0312v1.7578h-1.9043v2.4902h1.5625v1.6992h-1.5625v2.4316h1.5625v1.7285h-1.5625v2.6172h2.0996v1.7969h-4.8145v0.9375h-1.6602v-10.82c-0.14323,0.34505 -0.34506,0.78125 -0.60547,1.3086l-0.6836,-1.9629v2.3438h-2.6562v0.9375h2.793v1.416h-2.793c-0.013,0.44922 -0.02603,0.778 -0.0391,0.98633h3.3984v1.416h-3.584c-0.013,0.07161 -0.0358,0.17578 -0.0684,0.3125c1.2044,0.7096 2.37627,1.53967 3.5156,2.4902l-1.1621,1.4551c-0.8854,-0.8594 -1.83593,-1.6667 -2.8516,-2.4219l-0.10742,-0.0879c-0.7552,1.25653 -1.8392,2.2266 -3.252,2.9102l-1.2402,-1.5625c1.21747,-0.42969 2.11267,-1.04819 2.6856,-1.8555c0.22786,-0.3125 0.41992,-0.7259 0.57617,-1.2402h-2.9297v-1.416h3.2324c0.0456,-0.44922 0.07163,-0.778 0.0781,-0.98633h-2.7832v-1.416h2.793v-0.9375h-2.6562v-3.7598h2.6367v-0.88867h-1.6602v-2.1777h-0.97657l-1.5039,1.416c-0.625,-0.98307 -1.4974,-2.028 -2.6172,-3.1348l1.4844,-1.2598c0.80727,0.6706 1.59827,1.52347 2.373,2.5586v-1.0644h1.2402v-1.6797h1.6992v1.6797h1.7188v-1.6797h1.6797v1.6797h1.6211v1.4844h-1.6211v2.1777zM287.6398,177.8389h-1.2598v1.2988h1.2598zM289.2023,177.8389v1.2988h1.3184v-1.2988zM287.5812,173.5323v0.97656h1.7188v-0.97656zM294.9054,175.7882v2.4902h1.1719v-2.4902zM294.9054,179.9776v2.4316h1.1719v-2.4316zM294.9054,184.1378v2.6172h1.1719v-2.6172zM282.6594,179.7726c-0.95707,-1.32813 -1.80993,-2.36653 -2.5586,-3.1152l1.5234,-1.2793c0.97653,0.8724 1.85543,1.87827 2.6367,3.0176zM280.2961,188.1906c0.918,-1.9596 1.69927,-4.35217 2.3438,-7.1777l1.7578,0.87891c-0.5013,2.59767 -1.24023,5.15953 -2.2168,7.6856z" fill="#ffffff" stroke-width="1"/></g></g></svg>