<svg version="1.1" xmlns="http://www.w3.org/2000/svg" xmlns:xlink="http://www.w3.org/1999/xlink" width="208" height="32" viewBox="0,0,208,32"><g transform="translate(-240,-164)"><g data-paper-data="{&quot;isPaintingLayer&quot;:true}" fill-rule="nonzero" stroke="none" stroke-linecap="butt" stroke-linejoin="miter" stroke-miterlimit="10" stroke-dasharray="" stroke-dashoffset="0" style="mix-blend-mode: normal"><path d="M240,196v-32h208v32z" fill="none" stroke-width="0"/><path d="M258.09,175.78h1.5039v1.7969h-1.5039v4.5996h-4.9805c-0.11719,1.8034 -0.49152,3.2487 -1.123,4.3359c-0.8008,1.38673 -1.81967,2.46097 -3.0566,3.2227l-1.5625,-1.5625c1.1914,-0.69013 2.1354,-1.6309 2.832,-2.8223c0.46224,-0.8008 0.73568,-1.85873 0.82031,-3.1738h-4.0527v-1.8164h4.082v-2.7832h-5.5762v-1.7969h5.5762v-2.6074h-3.7793v-1.8164h10.82zM256.0294,175.78v-2.6074h-2.9004v2.6074zM256.0294,177.5769h-2.9004v2.7832h2.9004zM244.9654,175.3406v14.16h-2.0996v-10.02c-0.48177,0.79427 -1.02864,1.61457 -1.6406,2.4609l-0.99609,-2.1777c1.10027,-1.49087 2.03127,-3.2031 2.793,-5.1367c0.47526,-1.19793 0.94399,-2.62047 1.4062,-4.2676l2.1191,0.53711c-0.50781,1.6992 -1.03515,3.18033 -1.582,4.4434z" fill="#ffffff" stroke-width="1"/><path d="M272.07,176.02c0.45573,0.23438 0.97983,0.51433 1.5723,0.83985l-1.2402,1.0059h5.8789l1.1035,1.1035c-1.46487,2.20707 -2.92647,4.02023 -4.3848,5.4395l-1.9824,-1.1621c1.28253,-1.17187 2.31117,-2.33723 3.0859,-3.4961h-4.8633v7.6562c0,0.8854 -0.2181,1.4518 -0.65429,1.6992c-0.29297,0.16927 -0.83984,0.25391 -1.6406,0.25391c-1.0482,0 -2.2038,-0.0651 -3.4668,-0.19531l-0.47852,-2.1777c1.21747,0.19531 2.2982,0.29297 3.2422,0.29297c0.35807,0 0.57943,-0.05859 0.66406,-0.17578c0.06513,-0.09766 0.0977,-0.2767 0.0977,-0.53711v-6.8164h-8.1836v-1.8848h10.586c-2.20053,-1.263 -4.40107,-2.3307 -6.6016,-3.2031l1.582,-1.2598c1.47787,0.59245 2.7832,1.16861 3.916,1.7285c1.0026,-0.6836 1.8815,-1.35417 2.6367,-2.0117h-10.439v-1.8555h13.281l1.2012,1.1719c-1.70573,1.37373 -3.3431,2.5684 -4.9121,3.584z" fill="#ffffff" stroke-width="1"/><path d="M289.3,175.71v0.88867h2.6562v1.2012c0.931,-2.2982 1.55927,-4.7624 1.8848,-7.3926l1.7773,0.26367c-0.24088,1.37367 -0.472,2.49347 -0.69336,3.3594h1.0156c0.30599,-1.15233 0.54362,-2.3242 0.71289,-3.5156l1.709,0.3125c-0.24088,1.14587 -0.53059,2.21357 -0.86914,3.2031h2.0312v1.7578h-1.9043v2.4902h1.5625v1.6992h-1.5625v2.4316h1.5625v1.7285h-1.5625v2.6172h2.0996v1.7969h-4.8145v0.9375h-1.6602v-10.82c-0.14323,0.34505 -0.34506,0.78125 -0.60547,1.3086l-0.6836,-1.9629v2.3438h-2.6562v0.9375h2.793v1.416h-2.793c-0.013,0.44922 -0.02603,0.778 -0.0391,0.98633h3.3984v1.416h-3.584c-0.013,0.07161 -0.0358,0.17578 -0.0684,0.3125c1.2044,0.7096 2.37627,1.53967 3.5156,2.4902l-1.1621,1.4551c-0.8854,-0.8594 -1.83593,-1.6667 -2.8516,-2.4219l-0.10742,-0.0879c-0.7552,1.25653 -1.8392,2.2266 -3.252,2.9102l-1.2402,-1.5625c1.21747,-0.42969 2.11267,-1.04819 2.6856,-1.8555c0.22786,-0.3125 0.41992,-0.7259 0.57617,-1.2402h-2.9297v-1.416h3.2324c0.0456,-0.44922 0.07163,-0.778 0.0781,-0.98633h-2.7832v-1.416h2.793v-0.9375h-2.6562v-3.7598h2.6367v-0.88867h-1.6602v-2.1777h-0.97657l-1.5039,1.416c-0.625,-0.98307 -1.4974,-2.028 -2.6172,-3.1348l1.4844,-1.2598c0.80727,0.6706 1.59827,1.52347 2.373,2.5586v-1.0644h1.2402v-1.6797h1.6992v1.6797h1.7188v-1.6797h1.6797v1.6797h1.6211v1.4844h-1.6211v2.1777zM287.6398,177.8389h-1.2598v1.2988h1.2598zM289.2023,177.8389v1.2988h1.3184v-1.2988zM287.5812,173.5323v0.97656h1.7188v-0.97656zM294.9054,175.7882v2.4902h1.1719v-2.4902zM294.9054,179.9776v2.4316h1.1719v-2.4316zM294.9054,184.1378v2.6172h1.1719v-2.6172zM282.6594,179.7726c-0.95707,-1.32813 -1.80993,-2.36653 -2.5586,-3.1152l1.5234,-1.2793c0.97653,0.8724 1.85543,1.87827 2.6367,3.0176zM280.2961,188.1906c0.918,-1.9596 1.69927,-4.35217 2.3438,-7.1777l1.7578,0.87891c-0.5013,2.59767 -1.24023,5.15953 -2.2168,7.6856z" fill="#ffffff" stroke-width="1"/></g></g></svg>