<?xml version="1.0" encoding="UTF-8"?>
<svg width="480" height="360" version="1.1" viewBox="0 0 480 360" xmlns="http://www.w3.org/2000/svg">
 <g fill="#fff" aria-label="福井県">
  <path d="m245.45 179.12q1.2988 0.89844 2.4316 1.9434v-0.79101h11.123v9.2285h-1.9629v-0.82031h-7.1777v0.82031h-1.9824v-8.1836l-1.0156 1.6113q-0.72266-0.85938-1.416-1.5332v8.1055h-2.0606v-7.998q-1.1621 1.3086-2.1484 2.2266l-1.0156-1.8555q3.2812-2.8711 4.9609-6.2988h-4.5215v-1.9434h2.6367v-3.1348h2.0801v3.1348h1.5039l0.89843 0.9375q-0.91796 2.1094-2.334 4.2285zm4.4141 2.7344v1.8164h2.6465v-1.8164zm0 3.3203v1.8848h2.6465v-1.8848zm7.1777 1.8848v-1.8848h-2.7344v1.8848zm0-3.3887v-1.8164h-2.7344v1.8164zm1.0254-9.4922v4.9609h-9.3262v-4.9609zm-7.3633 1.5039v1.9727h5.3418v-1.9727zm-3.1152-4.3848h11.699v1.6992h-11.699z"/>
  <path d="m265.36 174.24v-3.5644h2.2363v3.5644h4.8242v-3.7402h2.2363v3.7402h4.1406v1.9434h-4.1406v4.834h4.8438v1.9629h-4.8438v6.5234h-2.2363v-6.5234h-4.8828q-0.17578 2.2949-1.1133 3.7109-1.2109 1.8164-3.2617 2.9297l-1.6797-1.6992q2.3242-1.1621 3.1738-2.6562 0.50782-0.88867 0.6543-2.2852h-4.8144v-1.9629h4.8633v-4.834h-4.2188v-1.9434zm7.0606 1.9434h-4.8242v4.834h4.8242z"/>
  <path d="m296.76 170.98v9.4629h-11.621v-9.4629zm-9.5215 1.543v1.2207h7.4023v-1.2207zm0 2.5977v1.2207h7.4023v-1.2207zm0 2.5976v1.2598h7.4023v-1.2598zm-3.9356 4.0234h16.191v1.6992h-8.0762v6.0644h-2.2168v-6.0644h-8.0371v-10.957h2.1387zm-2.5 5.8984q2.3242-1.0742 4.4434-3.6035l1.7969 1.0449q-2.0898 2.6465-4.6387 4.1602zm16.836 1.2598q-1.4941-1.8359-4.4922-3.8574l1.6797-1.1816q2.3535 1.3574 4.6191 3.5644z"/>
 </g>
</svg>
