<svg version="1.1" xmlns="http://www.w3.org/2000/svg" xmlns:xlink="http://www.w3.org/1999/xlink" width="90.04638" height="90.01641" viewBox="0,0,90.04638,90.01641"><g transform="translate(181.51814,-306.82132)"><g data-paper-data="{&quot;isPaintingLayer&quot;:true}" fill="#ff0000" fill-rule="evenodd" stroke="none" stroke-width="0" stroke-linecap="round" stroke-linejoin="round" stroke-miterlimit="10" stroke-dasharray="" stroke-dashoffset="0" style="mix-blend-mode: normal"><path d="M-97.65152,328.71048l-1.69993,-0.81997l-0.70997,0.52998l-1.73993,0.21999l-0.40998,0.75997l-0.77997,0.06l-0.29999,1.46994l1.84993,0.97996l0.12,0.87996l-0.43998,1.00996l0.14999,0.82997l0.90996,0.32999l-0.23999,1.35995l0.94996,1.30995l1.33995,-0.05l0.20999,2.4199l0.33999,1.15995l2.3799,0.72997l1.65993,2.22991l0.28999,1.61994l-0.47998,1.84993l-1.35995,0.90996l-1.23995,0.25999l-1.47994,1.40994l-3.32987,1.30995l-0.67997,-0.19999l-1.70993,0.99996l-0.73997,0.08l-0.57998,1.46994l-1.53994,2.5699l0.29999,0.83997l-0.37998,0.91996l0.47998,2.13991l-1.64993,0.79997l-1.87992,0.05l0.12999,1.37994l-1.60994,2.5699l-0.61998,0.17999l-0.89996,1.61994l-1.19995,0.80997l-0.27999,1.04996l-0.88996,0.32999l-1.32995,-1.80993l-1.11996,-0.52998l-0.26999,-0.65997l-1.29995,-1.41994l-1.22995,-0.82997l0.12999,-0.90996l-1.62993,0.65997l-0.44998,1.38994l1.73993,2.3899l-0.40998,1.72993l0.92996,0.27999l0.90996,2.00992l1.68993,0.78997l0.57998,1.97992l-0.25999,1.41994l0.27999,1.10996l-1.17995,1.68993l2.02992,2.26991l-0.24999,1.85993l0.14999,1.34995l0.96996,1.63993l-0.52998,0.41998l1.00996,2.4099l-0.79997,1.24995l0.1,1.60994l-0.61998,0.78997l-1.75993,0.06l-0.81997,0.38998l0.29999,1.66993l-0.81997,-0.34999l-1.63993,0.48998l-3.18987,1.35995l-1.28995,-2.6199l0.11,-0.49998l-1.53994,-0.87996l-2.04992,-0.11l-0.15999,1.70993l-0.96996,-0.34999l-0.21999,-1.36995l-2.5099,-0.34999l0.33999,2.13991l-1.88992,1.50994l0.77997,0.56998l1.52994,-0.59998l0.55998,0.71997l-1.05996,1.24995l-1.59994,-0.27999l-1.00996,0.39998l-1.27995,-0.28999l-0.28999,-2.23991l-0.47998,-1.95992l2.19991,-0.01l0.90996,-1.01996l0.29999,-0.89996l-1.29995,-0.39998l-1.09996,-1.46994l0.78997,-0.19999l0.15999,-0.85997l0.73997,-0.59998l0.51998,0.73997l-0.12999,1.70993l1.55994,-0.15999l0.12999,0.65997l2.08992,-0.38998l1.28995,0.86997l0.35999,-0.39998l-1.65993,-0.99996l-0.47998,-0.58998l-2.12991,-0.37998l-1.05996,-2.02992l0.53998,-1.32995l-0.99996,-0.84997l-1.10996,0.16999l-0.33999,-2.05992l0.43998,-1.69993l-1.98992,-0.89996l-0.58998,0.41998l-2.79989,-0.56998l-1.39994,-0.83997l-1.05996,0.36999l0.22999,1.07996l-0.56998,1.33995l-0.56998,-0.18999l0.64997,-1.32995l-0.76997,-1.17995l2.76989,-1.18995l0.32999,1.24995l0.92996,0.22999l1.89992,-0.23999l0.55998,-0.68997l1.74993,0.72997l0.71997,-1.29995l-0.54998,-1.07996l-1.08996,-0.84997l-0.19999,-0.72997l0.66997,-2.06992l-0.88996,-0.58998l-0.70997,-1.53994l2.16991,0.61998l1.06996,-0.06l0.82997,-0.83997l0.05,-1.17995l-1.34995,0.04l-1.94992,-0.51998l-1.53994,1.11996l-0.97996,-0.72997l0.09,-1.28995l-0.89996,-1.15995l0.24999,-1.34995l1.37994,-0.25999l0.72997,-0.85997l-1.04996,-0.66997l0.08,-0.85997l-0.91996,-0.16999l-0.75997,-1.16995l-1.09996,-0.63997l-1.52994,1.02996l1.02996,1.11996l-1.40994,0.68997l-0.57998,-2.5799l1.64993,-0.03l1.09996,-0.52998l2.83989,1.01996l0.61998,0.65997l0.09,1.49994l2.84989,2.3799l0.99996,-0.81997l1.30995,-0.55998l0.08,-1.13995l-0.69997,-2.05992l0.82997,-1.25995l1.52994,-0.08l1.14995,-1.03996l1.25995,-0.36999l-0.12999,-0.97996l-1.11996,-0.13999l-1.54994,-2.12991l1.75993,-0.68997l-0.60998,-0.75997l-2.80989,0.64997l-0.28999,-1.00996l-2.08992,-0.80997l0.02,-1.76993l0.62997,-0.58998l2.28991,-1.16995l1.18995,0.02l0.22999,-1.02996l-1.43994,-0.72997l-1.50994,0.73997l-0.12,-1.11996l-1.96992,0.46998l-0.89996,-0.06l-0.62997,1.00996l-2.02992,-0.12999l-1.07996,-0.94996l-0.65997,1.78993l-2.24991,-0.59998l-0.15999,-0.86997l-1.64993,-0.54998l-1.18995,0.29999l0.57998,-2.20991l1.56994,-0.30999l1.70993,-1.61994l1.00996,-0.12999l-0.90996,-1.16995l0.47998,-2.13991l-2.4899,2.00992l-0.1,-0.80997l-0.89996,-2.00992l1.62993,-0.99996l-0.44998,-0.54998l0.19999,-1.38994l-0.79997,-0.52998l0.95996,-1.39994l0.46998,0.43998l0.81997,-1.30995l0.04,-1.66993l-0.64997,-1.06996l-1.45994,0.01l0.25999,-2.10992l-0.74997,0.30999l-0.51998,1.50994l-1.34995,-2.16991l-1.14995,-0.47998l-0.28999,1.35995l-1.27995,-0.29999l-1.25995,0.24999l-0.68997,1.91992l-1.08996,-1.95992l-0.66997,-0.15999l-0.46998,1.16995l-1.44994,2.12991l-1.16995,0.12l-1.35995,0.57998l-1.81993,1.89992l-1.67993,0.07l-1.73993,1.19995l-1.91992,0.26999l-1.73993,1.85993l-1.30995,0.97996l-0.1,1.55994l-0.73997,0.02l-1.94992,1.22995l-2.19991,0.41998l0.06,-1.37994l1.64993,-0.92996l-0.16999,-1.15995l-2.4799,0.41998l-0.97996,0.85997l-1.56994,0.43998l-1.68993,1.90992l-2.5699,1.92992l0.42998,-1.46994l2.27991,-2.28991l2.65989,-1.52994l0.48998,-1.13995l2.34991,-1.23995l0.41998,-0.78997l1.19995,-0.60998l1.20995,1.63993l0.20999,-1.74993l0.92996,0.60998l0.56998,1.06996l1.18995,-0.46998l0.44998,-0.91996l-1.83993,-1.41994l0.49998,-0.85997l1.32995,1.27995l0.69997,-0.11l-0.47998,-2.03992l2.25991,-0.71997l0.51998,-0.60998l1.12995,1.27995l1.36995,0.11l0.12,-1.75993l0.71997,-0.34999l1.77993,0.55998l0.88996,0.89996l0.50998,-0.77997l0.02,-1.45994l0.76997,-1.06996l0.68997,0.29999l1.56994,-1.47994h1.17995l2.71989,-1.99992l1.83993,-0.74997l2.5399,-1.88992l1.28995,-0.42998l0.42998,-0.77997l1.76993,-1.02996l0.55998,-0.03l1.50994,-1.75993l-0.02,-1.06996l0.86997,-0.59998l1.37994,-1.78993l0.1,-0.78997l1.75993,-1.43994l0.38998,-1.16995l1.15995,-0.09l1.79993,-1.53994l0.75997,0.15999l1.55994,-1.03996l0.64997,1.06996l1.57994,1.68993l0.04,1.07996l0.64997,0.44998l1.50994,-1.89992l0.54998,-1.01996l1.82993,0.48998l0.97996,-1.89992l1.33995,-1.49994l0.90996,0.07l0.72997,-0.57998l1.28995,0.31999l0.26999,1.58994l-0.36999,1.88992l1.01996,0.82997l1.51994,-0.57998l3.33987,1.50994l1.23995,-0.56998l0.61998,-1.39994l2.16991,-0.32999l0.93996,0.82997l0.68997,1.60994l1.20995,-0.61998l1.07996,-0.94996l0.71997,0.19999l1.63993,-1.15995l1.17995,-0.14999l1.50994,-1.23995l1.41994,1.24995l0.30999,0.94996l-0.75997,1.56994l-0.50998,0.12999l0.22999,1.53994l0.97996,0.03l1.08996,0.67997l1.37994,-0.31999l1.63993,0.55998l0.77997,1.30995l2.09992,1.83993l-0.46998,0.62997l-0.44998,1.64993l0.42998,0.92996l-1.15995,1.90992l-0.92996,0.39998l-0.02,1.29995l-0.42998,0.80997l0.49998,1.25995l-0.49998,1.23995l0.46998,0.67997l-1.65993,-0.31999l-1.95992,0.08"/><path d="M-155.04922,364.10907l0.32999,0.75997l-2.69989,0.14999l-0.26999,-1.94992l1.35995,1.59994l1.27995,-0.55998"/><path d="M-130.6502,357.90932l-1.18995,0.74997l-1.12995,-0.72997l0.65997,-1.62993l0.83997,0.31999l0.81997,1.28995"/><path d="M-147.9495,361.00919l1.41994,-2.32991l0.75997,1.19995l-2.17991,1.12995"/></g></g></svg>