<?xml version="1.0" encoding="UTF-8"?>
<svg width="480" height="360" version="1.1" viewBox="0 0 480 360" xmlns="http://www.w3.org/2000/svg">
 <g fill="#fff" aria-label="山形県">
  <path d="m251.03 185.42h4.9219v-10.742h2.2168v14.658h-2.2168v-1.7969h-11.943v1.7969h-2.1973v-14.658h2.1973v10.742h4.8047v-14.727h2.2168z"/>
  <path d="m269.43 173.28v4.9609h2.3633v1.9238h-2.3633v9.3359h-2.0801v-9.3359h-2.3926q-0.0488 2.9492-0.42969 4.8144-0.52734 2.6465-2.1484 4.6582l-1.7676-1.3379q1.4941-1.8164 1.9629-4.4141 0.2539-1.4453 0.29297-3.5644l0.01-0.15625h-2.3828v-1.9238h2.3828v-4.9609h-1.9629v-1.9043h10.381v1.9043zm-2.0801 0h-2.3926v4.9609h2.3926zm3.0664 14.092q4.3848-1.5039 7.5-5.957l1.6211 1.2988q-2.9199 4.4336-7.8613 6.3672zm0.59571-11.152q3.9258-1.9726 6.0254-5.3613l1.7188 1.0938q-2.4512 3.7793-6.5039 5.8692zm0.38086 5.1562q3.7402-1.7676 6.1816-5.2441l1.6211 1.2891q-2.5879 3.6328-6.5039 5.5762z"/>
  <path d="m296.76 170.98v9.4629h-11.621v-9.4629zm-9.5215 1.543v1.2207h7.4023v-1.2207zm0 2.5977v1.2207h7.4023v-1.2207zm0 2.5976v1.2598h7.4023v-1.2598zm-3.9356 4.0234h16.191v1.6992h-8.0762v6.0644h-2.2168v-6.0644h-8.0371v-10.957h2.1387zm-2.5 5.8984q2.3242-1.0742 4.4434-3.6035l1.7969 1.0449q-2.0898 2.6465-4.6387 4.1602zm16.836 1.2598q-1.4941-1.8359-4.4922-3.8574l1.6797-1.1816q2.3535 1.3574 4.6191 3.5644z"/>
 </g>
</svg>
