<svg version="1.1" xmlns="http://www.w3.org/2000/svg" xmlns:xlink="http://www.w3.org/1999/xlink" width="199.85" height="119.85" viewBox="0,0,199.85,119.85"><g transform="translate(-140.075,-120.075)"><g data-paper-data="{&quot;isPaintingLayer&quot;:true}" fill-rule="nonzero" stroke="none" stroke-linejoin="round" stroke-miterlimit="10" stroke-dasharray="" stroke-dashoffset="0" style="mix-blend-mode: normal"><path d="M140.075,239.925v-119.85h199.85v119.85z" fill="none" stroke-width="0" stroke-linecap="round" opacity="0.05011"/><path d="M165,206.578h84c5.54,0 10,4.46 10,10v2c0,5.54 -4.46,10 -10,10h-84c-5.54,0 -10,-4.46 -10,-10v-2c0,-5.54 4.46,-10 10,-10z" fill="#7adc7c" stroke-width="22.6772" stroke-linecap="round"/><path d="M233.33411,210.39461c0.01996,-0.00032 0.03922,0.00733 0.05353,0.02126c0.0143,0.01393 0.02246,0.03298 0.02267,0.05294v3.97656h1.125c0.01996,-0.00032 0.03922,0.00733 0.05353,0.02126c0.0143,0.01393 0.02246,0.03298 0.02267,0.05294v1.39258c-0.00021,0.01996 -0.00837,0.03901 -0.02267,0.05294c-0.0143,0.01393 -0.03357,0.02158 -0.05353,0.02126h-3.75586v1.8789h2.86914c0.01996,-0.00032 0.03922,0.00733 0.05353,0.02126c0.0143,0.01393 0.02246,0.03298 0.02267,0.05294v5.4043c0.49382,-0.92522 0.84409,-2.025 1.0293,-3.32617c0.15066,-1.04984 0.22656,-2.3102 0.22656,-3.77735v-4.91406c0.00044,-0.0408 0.0334,-0.07376 0.0742,-0.0742h7.25976c0.0408,0.00044 0.07376,0.0334 0.0742,0.0742v1.44336c-0.00044,0.0408 -0.0334,0.07376 -0.0742,0.0742h-5.66797v2.24609h4.56055c0.01971,-0.00004 0.03864,0.00769 0.0527,0.0215l0.86523,0.83398c0.01758,0.01807 0.02491,0.04377 0.0195,0.0684c-0.27891,1.36523 -0.59034,2.48608 -0.93945,3.36133c-0.27568,0.69395 -0.59786,1.32111 -0.95703,1.89648c0.67694,0.68283 1.53634,1.2966 2.59765,1.83204c0.01837,0.00961 0.03195,0.0264 0.0375,0.04638c0.00555,0.01998 0.00258,0.04137 -0.0082,0.05908l-0.95898,1.53125c-0.01062,0.01684 -0.02749,0.02877 -0.04691,0.03316c-0.01942,0.00439 -0.03978,0.00088 -0.05661,-0.00976c-0.9425,-0.59628 -1.79552,-1.31262 -2.56836,-2.13476c-0.66629,0.78071 -1.55227,1.54533 -2.68945,2.28906c-0.03227,0.02121 -0.07536,0.01446 -0.0996,-0.0156l-0.98438,-1.19726c-0.14276,0.30947 -0.29749,0.61057 -0.46875,0.90234c-0.01177,0.01923 -0.03157,0.03214 -0.05391,0.03517c-0.02234,0.00302 -0.04486,-0.00416 -0.06132,-0.01957l-1.16211,-1.10352v1.20313c-0.00021,0.01996 -0.00837,0.03901 -0.02267,0.05294c-0.0143,0.01393 -0.03357,0.02158 -0.05353,0.02126h-1.44141c-0.01996,0.00032 -0.03922,-0.00733 -0.05353,-0.02126c-0.0143,-0.01393 -0.02246,-0.03298 -0.02267,-0.05294v-5.34571h-1.38281c-0.05612,1.16167 -0.18015,2.19109 -0.38672,3.07032c-0.00067,0.00001 -0.00133,0.00001 -0.002,0c-0.19675,0.8165 -0.49445,1.6111 -0.89258,2.38281c-0.01099,0.0205 -0.03086,0.03474 -0.0538,0.03856c-0.02294,0.00382 -0.04636,-0.00322 -0.06339,-0.01906l-1.25977,-1.18555c-0.02397,-0.02268 -0.0303,-0.05836 -0.0156,-0.0879c0.71055,-1.41626 1.06836,-3.2705 1.06836,-5.5625v-7.01758c0.00021,-0.01996 0.00837,-0.03901 0.02267,-0.05294c0.0143,-0.01393 0.03357,-0.02158 0.05353,-0.02126h1.48633c0.0408,0.00044 0.07376,0.0334 0.0742,0.0742v3.44922h1.02148v-3.97656c0.00021,-0.01996 0.00837,-0.03901 0.02267,-0.05294c0.0143,-0.01393 0.03357,-0.02158 0.05353,-0.02126zM205.92778,210.76761c0.01996,0.00021 0.03901,0.00837 0.05294,0.02267c0.01393,0.0143 0.02158,0.03357 0.02126,0.05353c-0.0095,1.0842 -0.0361,2.02003 -0.0781,2.83203h5.3125c0.02031,-0.00033 0.03988,0.0076 0.05424,0.02196c0.01436,0.01436 0.02229,0.03393 0.02196,0.05424c-0.02928,3.46364 -0.17104,6.11912 -0.42578,7.97071c-0.11347,0.84854 -0.3416,1.44112 -0.70508,1.77343c-0.37893,0.3426 -1.01026,0.50391 -1.88867,0.50391c-0.63395,0 -1.30645,-0.05326 -2.01758,-0.15625c-0.03236,-0.00405 -0.05839,-0.02855 -0.0644,-0.0606l-0.26953,-1.64843c-0.00379,-0.02374 0.00403,-0.04787 0.02103,-0.06487c0.017,-0.017 0.04113,-0.02482 0.06487,-0.02103c0.84201,0.15086 1.53048,0.22656 2.06055,0.22656c0.36353,0 0.58878,-0.06338 0.67188,-0.14648c-0.00001,-0.00067 -0.00001,-0.00133 0,-0.002c0.04283,-0.04118 0.10329,-0.1588 0.15429,-0.34375c0.05097,-0.18494 0.09747,-0.4362 0.13867,-0.7539c0.23573,-1.86657 0.3577,-3.76791 0.375,-5.70118h-3.59179c-0.18985,1.98343 -0.61175,3.58651 -1.2793,4.79493c-0.87621,1.58012 -2.194,2.87024 -3.94726,3.86718c-0.03145,0.01735 -0.07078,0.00997 -0.0938,-0.0176l-1.11328,-1.30274c-0.01491,-0.01726 -0.02115,-0.04037 -0.01697,-0.06279c0.00418,-0.02242 0.01834,-0.04172 0.03847,-0.05244c1.08628,-0.59649 2.0119,-1.34501 2.77734,-2.2461c0.57478,-0.67621 0.99802,-1.44162 1.27344,-2.29687c0.25854,-0.78503 0.43205,-1.68529 0.53125,-2.6836h-4.30469c-0.01996,-0.00021 -0.03901,-0.00837 -0.05294,-0.02267c-0.01393,-0.0143 -0.02158,-0.03357 -0.02126,-0.05353v-1.50195c0.00044,-0.0408 0.0334,-0.07376 0.0742,-0.0742h4.39453c0.0371,-1.05074 0.0566,-1.99992 0.0566,-2.83203c-0.00033,-0.02031 0.0076,-0.03988 0.02196,-0.05424c0.01436,-0.01436 0.03393,-0.02229 0.05424,-0.02196zM221.95312,211.11321c0.0408,0.00044 0.07376,0.0334 0.0742,0.0742v10.25c0.91048,-0.49367 1.72675,-1.15466 2.42188,-2.03516c0.79419,-1.00726 1.38807,-2.20057 1.78125,-3.58398c0.00714,-0.02562 0.0273,-0.04554 0.053,-0.05236c0.0257,-0.00683 0.05309,0.00047 0.072,0.01916l1.28906,1.24414c0.0211,0.02005 0.0287,0.05049 0.0195,0.0781c-0.49077,1.4576 -1.1653,2.703 -2.02148,3.73633c-1.07753,1.30386 -2.48967,2.32997 -4.23242,3.07617c-0.02615,0.01123 -0.05639,0.0067 -0.0781,-0.0117l-1.07617,-0.93164c-0.01695,-0.01396 -0.02692,-0.03465 -0.0273,-0.0566v-11.73242c0.00021,-0.01996 0.00837,-0.03901 0.02267,-0.05294c0.0143,-0.01393 0.03357,-0.02158 0.05353,-0.02126zM218.20318,211.53706c0.0408,0.00044 0.07376,0.0334 0.0742,0.0742v2.66601c0,2.55744 -0.18846,4.42727 -0.57422,5.61914c-0.50859,1.5752 -1.57752,2.89013 -3.19531,3.9375c-0.03187,0.02006 -0.07367,0.01339 -0.0977,-0.0156l-1.1211,-1.30274c-0.01417,-0.01609 -0.02078,-0.03746 -0.01816,-0.05874c0.00262,-0.02127 0.01421,-0.04041 0.03186,-0.05258c1.10686,-0.77674 1.8816,-1.57845 2.32813,-2.4043c0.37413,-0.69549 0.62468,-1.63723 0.74609,-2.82227c0.06787,-0.6692 0.10157,-1.62734 0.10157,-2.87109v-2.69531c0.00021,-0.01996 0.00837,-0.03901 0.02267,-0.05294c0.0143,-0.01393 0.03357,-0.02158 0.05353,-0.02126zM182.67974,212.04294c0.01996,-0.00032 0.03922,0.00733 0.05353,0.02126c0.0143,0.01393 0.02246,0.03298 0.02267,0.05294v11.30859c0.00033,0.02031 -0.0076,0.03988 -0.02196,0.05424c-0.01436,0.01436 -0.03393,0.02229 -0.05424,0.02196h-11.49219c-0.01996,-0.00021 -0.03901,-0.00837 -0.05294,-0.02267c-0.01393,-0.0143 -0.02158,-0.03357 -0.02126,-0.05353v-11.30859c0.00044,-0.0408 0.0334,-0.07376 0.0742,-0.0742zM172.97075,221.79099h7.92774v-8.03907h-7.92774zM197.77544,216.43747c0.0408,0.00044 0.07376,0.0334 0.0742,0.0742v1.64844c-0.00044,0.0408 -0.0334,0.07376 -0.0742,0.0742h-12.89844c-0.0408,-0.00044 -0.07376,-0.0334 -0.0742,-0.0742v-1.64844c0.00044,-0.0408 0.0334,-0.07376 0.0742,-0.0742zM239.16411,219.83591c0.50484,-0.90734 0.89412,-1.96705 1.15235,-3.20508h-2.31446c0.18544,1.19519 0.58375,2.25657 1.16211,3.20508zM236.35161,220.81638c-0.16,0.94668 -0.42787,1.82846 -0.78515,2.65429c0.65742,-0.3795 1.20996,-0.75926 1.63671,-1.14062c0.30808,-0.26607 0.64202,-0.61994 0.99805,-1.04297c-0.85141,-1.29148 -1.35574,-2.72512 -1.58594,-4.26953c-0.02213,1.45653 -0.09278,2.77468 -0.26367,3.79883z" fill="#0b2b0b" stroke-width="1" stroke-linecap="butt"/></g></g></svg>