<?xml version="1.0" encoding="UTF-8"?>
<svg width="480" height="360" version="1.1" viewBox="0 0 480 360" xmlns="http://www.w3.org/2000/svg">
 <g dominant-baseline="central" fill="#fff" aria-label="静岡県伊豆地方">
  <path d="m255.39 175.5h3.1641v3.418h1.084v1.6406h-1.084v3.5644h-3.5156v3.7402q0 0.82031-0.34179 1.2012-0.39063 0.41992-1.3281 0.41992-0.68359 0-2.1973-0.16601l-0.36132-1.875q1.2402 0.19531 1.8555 0.19531 0.3125 0 0.40039-0.11719 0.0684-0.10742 0.0684-0.41992v-2.9785h-3.0762v-1.6797h3.0762v-1.8848h-3.7012v-1.6406h3.7012v-1.7774h-2.5977v-1.4258q-0.25391 0.22461-0.625 0.51758l-0.95703-1.3379v0.72265h-2.8027v0.91797h3.5449v1.6211h-9.1992v-1.6211h3.7207v-0.91797h-3.0273v-1.416h3.0273v-0.91797h-3.4668v-1.4844h3.4668v-1.2988h1.9336v1.2988h3.3008v1.4844h-3.3008v0.91797h2.8027v0.51758q2.041-1.582 3.3008-4.1797l1.3086 0.83984h2.8711l1.0156 0.89844q-0.91797 1.6894-2.0606 3.2227zm-1.9434 0q1.1621-1.6211 1.5137-2.4219h-2.1387q-0.81055 1.2207-2.0606 2.4219zm1.5332 1.6406v1.7774h1.8359v-1.7774zm1.8359 3.418h-1.8359v1.8848h1.8359zm-7.9004-1.3965v8.6816q0 0.95703-0.52735 1.3086-0.35156 0.22461-1.1914 0.22461-1.1719 0-2.0606-0.11719l-0.3418-1.7773q1.1719 0.13672 1.8848 0.13672 0.3125 0 0.36133-0.16602 0.0391-0.11719 0.0391-0.39062v-1.4844h-3.9648v3.9258h-1.8359v-10.342zm-5.8008 1.4355v1.1035h3.9648v-1.1035zm0 2.4805v1.123h3.9648v-1.123z" dominant-baseline="central"/>
  <path d="m273.12 184.26v-4.2188h1.8555v5.9766h-8.1445v1.3184h-1.8555v-7.2949h1.8555v4.2188h2.1582v-5.498h-5.0098v-1.7578h6.9531q0.97656-1.709 1.6797-3.7988l2.0215 0.70313q-0.83984 1.7676-1.748 3.0957h3.1543v1.7578h-5.1953v5.498zm5.5566-13.076v16.357q0 0.98633-0.52734 1.416-0.50782 0.41015-1.7676 0.41015-0.98633 0-3.3691-0.16601l-0.49805-2.0606q1.6992 0.20508 3.3301 0.20508 0.54687 0 0.64453-0.18555 0.0684-0.12695 0.0684-0.49804v-13.643h-13.105v16.484h-2.1191v-18.32zm-11.982 5.7715q-0.6543-1.5625-1.4844-2.8516l1.8262-0.78125q0.91796 1.3379 1.5332 2.8125z" dominant-baseline="central"/>
  <path d="m296.76 170.98v9.4629h-11.621v-9.4629zm-9.5215 1.543v1.2207h7.4023v-1.2207zm0 2.5977v1.2207h7.4023v-1.2207zm0 2.5976v1.2598h7.4023v-1.2598zm-3.9356 4.0234h16.191v1.6992h-8.0762v6.0644h-2.2168v-6.0644h-8.0371v-10.957h2.1387zm-2.5 5.8984q2.3242-1.0742 4.4434-3.6035l1.7969 1.0449q-2.0898 2.6465-4.6387 4.1602zm16.836 1.2598q-1.4941-1.8359-4.4922-3.8574l1.6797-1.1816q2.3535 1.3574 4.6191 3.5644z" dominant-baseline="central"/>
  <path d="m318.09 175.78h1.5039v1.7969h-1.5039v4.5996h-4.9805q-0.17578 2.7051-1.123 4.3359-1.2012 2.0801-3.0566 3.2227l-1.5625-1.5625q1.7871-1.0352 2.832-2.8223 0.69336-1.2012 0.82031-3.1738h-4.0527v-1.8164h4.082v-2.7832h-5.5762v-1.7969h5.5762v-2.6074h-3.7793v-1.8164h10.82zm-2.0606 0v-2.6074h-2.9004v2.6074zm0 1.7969h-2.9004v2.7832h2.9004zm-11.064-2.2363v14.16h-2.0996v-10.02q-0.72266 1.1914-1.6406 2.4609l-0.99609-2.1777q1.6504-2.2363 2.793-5.1367 0.71289-1.7969 1.4062-4.2676l2.1191 0.53711q-0.76172 2.5488-1.582 4.4434z" dominant-baseline="central"/>
  <path d="m337.12 175.74v6.4941h-14.219v-6.4941zm-12.021 1.6992v3.0762h9.8047v-3.0762zm0.70312 9.3555q-0.46875-1.7676-1.6211-3.623l2.0996-0.78125q1.0156 1.5723 1.7383 3.584l-1.9043 0.82031h5.7617q0.99609-2.0312 1.748-4.502l2.3144 0.70313q-0.83984 2.0605-1.8164 3.7988h5.3809v1.9043h-19.004v-1.9043zm-4.6875-15.234h17.783v1.8555h-17.783z" dominant-baseline="central"/>
  <path d="m350.23 178.41v7.7344q0 0.75195 0.64454 0.9082 0.66406 0.16602 3.0371 0.16602 2.3144 0 3.0566-0.23438 0.41992-0.13672 0.54687-0.76172 0.16602-0.8789 0.17578-2.0801l2.041 0.57618q-0.15625 2.8809-0.79102 3.6816-0.41992 0.52734-1.2695 0.625-1.3379 0.14648-4.541 0.14648-2.4805 0-3.252-0.13672-1.1621-0.19531-1.4746-1.0254-0.15625-0.43945-0.15625-1.1719v-7.7441l-1.8652 0.64453-0.45899-1.8945 2.3242-0.80078v-5.2637h1.9824v4.5801l2.0996-0.71289v-5.1465h1.9629v4.4629l3.2715-1.123 1.0254 0.625v7.3144q0 0.76172-0.36133 1.1328-0.41015 0.41015-1.377 0.41015-0.79102 0-1.6797-0.13672l-0.32226-1.8652q0.57617 0.14648 1.1719 0.14648 0.42969 0 0.52734-0.17578 0.0977-0.14648 0.0977-0.48828v-4.6191l-2.3535 0.82031v7.9004h-1.9629v-7.2266zm-7.1777-3.1934v-4.7168h2.0996v4.7168h1.8945v1.9824h-1.8945v6.2109q1.0254-0.35156 2.0312-0.73242l0.18555 1.8848q-3.1641 1.4453-6.4941 2.4219l-0.6836-2.0801q1.5039-0.39062 2.6367-0.74218 0.13672-0.0488 0.22461-0.0684v-6.8945h-2.4805v-1.9824z" dominant-baseline="central"/>
  <path d="m369.48 175.76q-0.0684 1.6309-0.19531 2.8711h7.8711q-0.14648 6.7774-0.76172 8.7988-0.3125 1.0156-1.1621 1.4062-0.66406 0.30273-1.9434 0.30273-1.3477 0-3.0566-0.20507l-0.38085-2.1973q2.2949 0.32227 3.2324 0.32227 0.79101 0 1.0059-0.44922 0.51757-1.0938 0.72265-6.0352h-5.8105q-0.32227 1.7578-0.90821 3.0469-1.6309 3.5644-5.4492 5.6543l-1.543-1.7188q3.8281-1.9922 5.0586-5.2246 0.82031-2.1582 1.0644-6.5723h-6.4648v-2.002h7.9785v-3.2617h2.2559v3.2617h8.2422v2.002z" dominant-baseline="central"/>
 </g>
</svg>
