<svg version="1.1" xmlns="http://www.w3.org/2000/svg" xmlns:xlink="http://www.w3.org/1999/xlink" width="199.85" height="119.85" viewBox="0,0,199.85,119.85"><g transform="translate(-140.075,-120.075)"><g data-paper-data="{&quot;isPaintingLayer&quot;:true}" fill-rule="nonzero" stroke="none" stroke-linejoin="round" stroke-miterlimit="10" stroke-dasharray="" stroke-dashoffset="0" style="mix-blend-mode: normal"><path d="M140.075,239.925v-119.85h199.85v119.85z" fill="none" stroke-width="0" stroke-linecap="round" opacity="0.05011"/><path d="M165,206.578h110c5.54,0 10,4.46 10,10v2c0,5.54 -4.46,10 -10,10h-110c-5.54,0 -10,-4.46 -10,-10v-2c0,-5.54 4.46,-10 10,-10z" fill="#88b0ed" stroke-width="22.6772" stroke-linecap="round"/><path d="M238.41601,210.23057c0.02859,-0.00959 0.06015,-0.00112 0.0801,0.0215c0.58713,0.68087 1.0844,1.51346 1.49219,2.4961c0.01576,0.03775 -0.00163,0.08117 -0.0391,0.0976l-1.0918,0.48242c-0.01837,0.00821 -0.03927,0.00869 -0.058,0.00133c-0.01873,-0.00735 -0.03372,-0.02192 -0.0416,-0.04043c-0.40314,-0.95684 -0.89054,-1.82058 -1.46289,-2.59179c-0.01405,-0.01936 -0.01802,-0.04426 -0.01069,-0.06703c0.00733,-0.02277 0.02508,-0.04068 0.04779,-0.04821l1.08399,-0.35156zM183.17967,210.52371c0.30345,0.18236 0.54205,0.43246 0.70898,0.74609c0.15182,0.28343 0.22852,0.58243 0.22852,0.89258c0,0.49637 -0.18029,0.94023 -0.53321,1.31836c-0.37388,0.39915 -0.84418,0.60156 -1.39453,0.60156c-0.27432,0 -0.53951,-0.05919 -0.79297,-0.17578c-0.00067,0.00001 -0.00133,0.00001 -0.002,0c-0.31405,-0.14689 -0.57192,-0.36274 -0.76953,-0.64648c-0.23264,-0.33379 -0.34961,-0.70517 -0.34961,-1.10547c0,-0.31055 0.0796,-0.61221 0.23633,-0.90039c0.15686,-0.28842 0.36987,-0.52366 0.63867,-0.70118c0.00067,-0.00001 0.00133,-0.00001 0.002,0c0.31902,-0.20761 0.67092,-0.3125 1.05078,-0.3125c0.34096,0 0.6683,0.09623 0.97657,0.28321zM246.13295,210.69756c0.02098,0.00501 0.03879,0.01881 0.04888,0.03788c0.01009,0.01907 0.01148,0.04156 0.00382,0.06172c-0.38887,1.04992 -0.83294,2.05318 -1.32813,3.01171v10.77539c-0.00021,0.01996 -0.00837,0.03901 -0.02267,0.05294c-0.0143,0.01393 -0.03357,0.02158 -0.05353,0.02126h-1.67578c-0.01996,0.00032 -0.03922,-0.00733 -0.05353,-0.02126c-0.0143,-0.01393 -0.02246,-0.03298 -0.02267,-0.05294v-7.80468c-0.57678,0.80188 -1.17113,1.54027 -1.79102,2.17382c-0.01678,0.01678 -0.04052,0.02463 -0.064,0.02116c-0.02348,-0.00347 -0.04393,-0.01784 -0.05514,-0.03876l-0.8418,-1.60547c-0.01472,-0.02822 -0.01003,-0.06265 0.0117,-0.0859c1.80826,-1.87631 3.18181,-4.18381 4.1211,-6.92383c0.01326,-0.03654 0.05224,-0.0569 0.0898,-0.0469zM260.52148,210.3949c0.0408,0.00044 0.07376,0.0334 0.0742,0.0742v3.97656h1.12696c0.0408,0.00044 0.07376,0.0334 0.0742,0.0742v1.39258c-0.00044,0.0408 -0.0334,0.07376 -0.0742,0.0742h-3.75586v1.8789h2.86914c0.01996,-0.00032 0.03922,0.00733 0.05353,0.02126c0.0143,0.01393 0.02246,0.03298 0.02267,0.05294v5.4043c0.49382,-0.92522 0.8441,-2.025 1.0293,-3.32617c0.15066,-1.04984 0.22656,-2.3102 0.22656,-3.77735v-4.91406c0.00044,-0.0408 0.0334,-0.07376 0.0742,-0.0742h7.25976c0.0408,0.00044 0.07376,0.0334 0.0742,0.0742v1.44336c-0.00044,0.0408 -0.0334,0.07376 -0.0742,0.0742h-5.66797v2.24609h4.56055c0.01971,-0.00004 0.03864,0.00769 0.0527,0.0215l0.86328,0.83398c0.01831,0.01768 0.0264,0.04343 0.0215,0.0684c-0.27891,1.36523 -0.59229,2.48608 -0.94141,3.36133c-0.27566,0.69394 -0.5959,1.32111 -0.95507,1.89648c0.67694,0.68283 1.53634,1.2966 2.59765,1.83204c0.01837,0.00961 0.03195,0.0264 0.0375,0.04638c0.00555,0.01998 0.00258,0.04137 -0.0082,0.05908l-0.95898,1.53125c-0.01062,0.01684 -0.02749,0.02877 -0.04691,0.03316c-0.01942,0.00439 -0.03978,0.00088 -0.05661,-0.00976c-0.94251,-0.59628 -1.79552,-1.31262 -2.56836,-2.13476c-0.66629,0.78071 -1.55227,1.54533 -2.68945,2.28906c-0.03227,0.02121 -0.07536,0.01446 -0.0996,-0.0156l-0.98438,-1.19726c-0.14276,0.30947 -0.29749,0.61057 -0.46875,0.90234c-0.01177,0.01923 -0.03157,0.03214 -0.05391,0.03517c-0.02234,0.00302 -0.04486,-0.00416 -0.06132,-0.01957l-1.16211,-1.10352v1.20313c-0.00021,0.01996 -0.00837,0.03901 -0.02267,0.05294c-0.0143,0.01393 -0.03357,0.02158 -0.05353,0.02126h-1.44141c-0.01996,0.00032 -0.03922,-0.00733 -0.05353,-0.02126c-0.0143,-0.01393 -0.02246,-0.03298 -0.02267,-0.05294v-5.34571h-1.38281c-0.05612,1.16167 -0.18211,2.19109 -0.38867,3.07032c-0.19675,0.81651 -0.49444,1.6111 -0.89258,2.38281c-0.01099,0.0205 -0.03086,0.03474 -0.0538,0.03856c-0.02294,0.00382 -0.04636,-0.00322 -0.06339,-0.01906l-1.25977,-1.18555c-0.02397,-0.02268 -0.0303,-0.05836 -0.0156,-0.0879c0.71055,-1.41626 1.06836,-3.2705 1.06836,-5.5625v-7.01758c0.00021,-0.01996 0.00837,-0.03901 0.02267,-0.05294c0.0143,-0.01393 0.03357,-0.02158 0.05353,-0.02126h1.48633c0.0408,0.00044 0.07376,0.0334 0.0742,0.0742v3.44922h1.02148v-3.97656c0.00021,-0.01996 0.00837,-0.03901 0.02267,-0.05294c0.0143,-0.01393 0.03357,-0.02158 0.05353,-0.02126zM236.23829,210.59791c0.0311,-0.01144 0.06602,-0.00111 0.0859,0.0254c0.62307,0.84384 1.1235,1.69747 1.50195,2.5625c0.0081,0.01861 0.00831,0.03971 0.00058,0.05848c-0.00773,0.01877 -0.02273,0.0336 -0.04158,0.04112l-1.15039,0.44726c-0.03774,0.0143 -0.08002,-0.00381 -0.0957,-0.041c-0.30931,-0.76362 -0.80818,-1.61871 -1.49414,-2.5625c-0.01405,-0.01936 -0.01802,-0.04426 -0.01069,-0.06703c0.00733,-0.02277 0.02508,-0.04068 0.04779,-0.04821l1.15625,-0.41601zM248.90639,210.70904c0.01996,0.00021 0.03901,0.00837 0.05294,0.02267c0.01393,0.0143 0.02158,0.03357 0.02126,0.05353v4.46875c1.46905,-0.7002 2.77457,-1.45779 3.88672,-2.28125c0.02918,-0.02131 0.06941,-0.01879 0.0957,0.006l1.25977,1.20117c0.01669,0.0157 0.02529,0.03818 0.02335,0.06101c-0.00195,0.02284 -0.01423,0.04353 -0.03335,0.05618c-1.7022,1.12025 -3.4476,2.01583 -5.23242,2.69921v5.00977c0,0.13866 0.0342,0.2379 0.0977,0.3125c0.06351,0.0746 0.16059,0.1272 0.30274,0.1543c0.21245,0.0415 0.62002,0.0664 1.20898,0.0664c0.60345,0 1.122,-0.0258 1.55274,-0.0742c0.16571,-0.01612 0.2907,-0.06251 0.3789,-0.13281c0.08823,-0.07035 0.14343,-0.16427 0.16993,-0.29687c0.12055,-0.59334 0.19435,-1.40594 0.21875,-2.4336c0.00038,-0.02371 0.01194,-0.04585 0.03119,-0.05969c0.01925,-0.01385 0.04391,-0.01778 0.06651,-0.01061l1.67578,0.51172c0.03228,0.01003 0.05386,0.04042 0.0527,0.0742c-0.04401,1.31564 -0.13061,2.23647 -0.26563,2.77148c-0.15579,0.61813 -0.50462,1.02659 -1.03125,1.19531c-0.53288,0.17567 -1.35545,0.25977 -2.47656,0.25977c-0.87824,0 -1.5849,-0.0309 -2.12305,-0.0937c-0.53814,-0.0628 -0.9047,-0.15404 -1.11718,-0.29297c-0.36481,-0.23792 -0.54102,-0.69874 -0.54102,-1.35156v-11.82031c-0.00033,-0.02031 0.0076,-0.03988 0.02196,-0.05424c0.01436,-0.01436 0.03393,-0.02229 0.05424,-0.02196zM202.96478,211.24067c0.03877,0.01 0.06285,0.0487 0.0547,0.0879c-0.20148,0.87154 -0.42717,1.60981 -0.66992,2.2461h8.54297c0.0408,0.00044 0.07376,0.0334 0.0742,0.0742v1.48633c0.00032,0.01996 -0.00733,0.03922 -0.02126,0.05353c-0.01393,0.0143 -0.03298,0.02246 -0.05294,0.02267h-3.17188c-0.05757,1.81897 -0.24233,3.26233 -0.57226,4.29101c-0.37974,1.19345 -1.02205,2.18641 -1.92578,2.97657c-0.76548,0.6815 -1.763,1.25144 -2.99024,1.71289c-0.02973,0.01138 -0.0634,0.00276 -0.084,-0.0215l-1.03321,-1.24609c-0.0151,-0.01863 -0.02039,-0.04336 -0.01422,-0.06653c0.00617,-0.02318 0.02305,-0.042 0.04542,-0.05066c1.1516,-0.46161 2.04724,-0.98286 2.6875,-1.56055c0.88113,-0.78964 1.46564,-1.84259 1.75586,-3.16797c0.15998,-0.71987 0.25121,-1.68945 0.28321,-2.86718h-4.29493c-0.64793,1.23002 -1.54146,2.30845 -2.70117,3.2207c-0.02991,0.02357 -0.07274,0.02099 -0.0996,-0.006l-1.12109,-1.10547c-0.01569,-0.0151 -0.02404,-0.03627 -0.02289,-0.05801c0.00115,-0.02174 0.01169,-0.04191 0.02889,-0.05527c1.9137,-1.49704 3.108,-3.60239 3.58398,-6.33203c0.00335,-0.02102 0.01547,-0.03963 0.03334,-0.05119c0.01787,-0.01156 0.03982,-0.01498 0.06036,-0.00941zM228.38673,211.20926c1.69336,0.4209 3.17904,0.93488 4.45898,1.54297c0.03445,0.01624 0.05126,0.05571 0.0391,0.0918l-0.51172,1.53125c-0.00667,0.02007 -0.02151,0.03638 -0.04085,0.04493c-0.01934,0.00855 -0.04139,0.00854 -0.06072,-0.00003c-1.4373,-0.64314 -2.90472,-1.18164 -4.40039,-1.61523c-0.01968,-0.00557 -0.03624,-0.01894 -0.04583,-0.03701c-0.00959,-0.01807 -0.01139,-0.03927 -0.00497,-0.05869l0.47657,-1.44921c0.01169,-0.0381 0.05112,-0.06041 0.0898,-0.0508zM182.1973,211.29123c-0.16647,0 -0.32224,0.04687 -0.47266,0.14257c-0.00067,0.00001 -0.00133,0.00001 -0.002,0c-0.26954,0.16904 -0.39649,0.40331 -0.39649,0.73438c0,0.23187 0.07725,0.42559 0.23633,0.59375c0.17288,0.18193 0.37919,0.26953 0.63477,0.26953c0.14531,0 0.2754,-0.0309 0.39648,-0.0937c0.32221,-0.1657 0.47266,-0.41111 0.47266,-0.76953c0,-0.25083 -0.0862,-0.45403 -0.26368,-0.62695c-0.00001,-0.00067 -0.00001,-0.00133 0,-0.002c-0.1627,-0.16724 -0.35892,-0.24804 -0.60546,-0.24804zM179.14256,211.61352c0.02023,-0.00627 0.04217,-0.0037 0.0604,0.00708c0.01823,0.01078 0.03105,0.02877 0.0353,0.04952c0.83851,4.20722 2.15635,7.84445 3.95313,10.91211c0.01919,0.0328 0.01081,0.07478 -0.0195,0.0977l-1.45704,1.10742c-0.01711,0.01344 -0.03921,0.0188 -0.06057,0.01467c-0.02136,-0.00413 -0.03988,-0.01732 -0.05075,-0.03617c-0.8724,-1.46542 -1.66865,-3.23073 -2.39258,-5.29492c-0.6897,-1.97123 -1.2611,-4.06432 -1.71094,-6.27929c-0.00831,-0.0386 0.01473,-0.07704 0.0527,-0.0879l1.58985,-0.49024zM175.14258,212.11741c0.03935,0.00737 0.06598,0.04434 0.0605,0.084c-0.43506,3.00157 -1.01913,5.52666 -1.7539,7.57422c-0.52922,1.48965 -1.18323,2.79556 -1.95899,3.91992c-0.01188,0.01672 -0.03008,0.02785 -0.05037,0.03079c-0.02029,0.00295 -0.04091,-0.00254 -0.05705,-0.01519l-1.42969,-1.17188c-0.02943,-0.02477 -0.03535,-0.0678 -0.0137,-0.0996c0.84483,-1.24297 1.57103,-2.76773 2.17969,-4.57422c0.66223,-1.97693 1.08255,-3.98546 1.25781,-6.02539c0.002,-0.02124 0.01295,-0.04062 0.03011,-0.05329c0.01716,-0.01267 0.0389,-0.01744 0.05979,-0.01311zM190.09185,213.41805c0.03775,-0.01576 0.08117,0.00163 0.0976,0.0391c0.56384,1.24046 1.03324,2.6426 1.41016,4.20899c0.00889,0.03695 -0.01126,0.07471 -0.0469,0.0879l-1.5,0.55664c-0.02017,0.00766 -0.04265,0.00627 -0.06172,-0.00382c-0.01907,-0.01009 -0.03287,-0.0279 -0.03788,-0.04888c-0.27224,-1.19114 -0.71977,-2.57289 -1.34374,-4.14258c-0.01554,-0.03827 0.00279,-0.08191 0.041,-0.0976l1.44141,-0.59961zM195.79684,213.97862c0.03535,0.01064 0.05771,0.04542 0.0527,0.082c-0.29337,2.29312 -0.70164,4.05358 -1.22852,5.28515v0.002c-0.63989,1.50541 -1.60286,2.67178 -2.88476,3.49023c-0.81317,0.5224 -1.85001,0.98295 -3.10938,1.38477c-0.0324,0.01026 -0.06764,-0.00254 -0.0859,-0.0312l-0.85547,-1.35547c-0.01227,-0.01995 -0.01451,-0.04447 -0.00608,-0.06632c0.00844,-0.02184 0.02659,-0.03849 0.04908,-0.04501c1.62381,-0.43269 2.85992,-1.01541 3.70703,-1.74219c0.84658,-0.72633 1.49334,-1.77819 1.93945,-3.16015c0.34912,-1.09585 0.60483,-2.51039 0.76562,-4.24024c0.00225,-0.02218 0.01425,-0.0422 0.03275,-0.05464c0.01849,-0.01244 0.04156,-0.01602 0.06295,-0.00976zM186.61515,213.98073c0.01864,0.00625 0.03408,0.01958 0.043,0.0371c0.62278,1.27498 1.12977,2.7065 1.52149,4.29297c0.00914,0.03641 -0.01005,0.07396 -0.0449,0.0879l-1.48047,0.57031c-0.02017,0.00766 -0.04265,0.00627 -0.06172,-0.00382c-0.01907,-0.01009 -0.03287,-0.0279 -0.03788,-0.04888c-0.35048,-1.49926 -0.82569,-2.88312 -1.42383,-4.15235c-0.0176,-0.03723 -0.00189,-0.08169 0.0352,-0.0996l1.39257,-0.67968c0.01762,-0.00869 0.03794,-0.01013 0.0566,-0.004zM237.26747,214.37698c0.02243,-0.00917 0.04791,-0.00693 0.0684,0.006l1.5,0.90039c0.02848,0.01662 0.04277,0.0499 0.0352,0.082c-0.65231,2.7515 -1.87156,4.80814 -3.66015,6.15821c-1.17225,0.88657 -2.62429,1.51573 -4.35156,1.88867c-0.82945,0.18159 -1.84554,0.32695 -3.04883,0.43945c-0.03519,0.00301 -0.06772,-0.01893 -0.0781,-0.0527l-0.46875,-1.64063c-0.0063,-0.02171 -0.00247,-0.04509 0.01041,-0.06366c0.01288,-0.01857 0.03345,-0.03034 0.05599,-0.03204c1.88489,-0.15099 3.37803,-0.42167 4.47656,-0.80859c2.82738,-1.00218 4.62879,-3.26712 5.41602,-6.82422c0.00548,-0.02384 0.02224,-0.0435 0.0449,-0.0527zM227.03897,214.94561c1.4984,0.39664 2.95307,0.92394 4.36328,1.58008c0.0354,0.01633 0.0524,0.05705 0.0391,0.0937l-0.57227,1.50977c-0.00752,0.01885 -0.02235,0.03386 -0.04112,0.04158c-0.01877,0.00773 -0.03987,0.00752 -0.05848,-0.00058c-1.19779,-0.52586 -2.66588,-1.06406 -4.40234,-1.61523c-0.02007,-0.00667 -0.03638,-0.02151 -0.04493,-0.04085c-0.00855,-0.01934 -0.00854,-0.04139 0.00003,-0.06072l0.6289,-1.46484c0.01463,-0.0341 0.052,-0.05238 0.0879,-0.043zM225.10936,216.43771c0.0408,0.00044 0.07376,0.0334 0.0742,0.0742v1.64844c-0.00044,0.0408 -0.0334,0.07376 -0.0742,0.0742h-12.89844c-0.0408,-0.00044 -0.07376,-0.0334 -0.0742,-0.0742v-1.64844c0.00044,-0.0408 0.0334,-0.07376 0.0742,-0.0742zM266.35154,219.83615c0.50484,-0.90734 0.89412,-1.96705 1.15235,-3.20508h-2.31446c0.18544,1.19519 0.58375,2.25657 1.16211,3.20508zM263.53904,220.81662c-0.16,0.94668 -0.42788,1.82846 -0.78515,2.65429c0.65742,-0.3795 1.20996,-0.75926 1.63671,-1.14062c0.30809,-0.26607 0.64202,-0.61994 0.99805,-1.04297c-0.85141,-1.29148 -1.35574,-2.72512 -1.58594,-4.26953c-0.02212,1.45653 -0.09279,2.77468 -0.26367,3.79883z" fill="#091729" stroke-width="1" stroke-linecap="butt"/></g></g></svg>