<svg version="1.1" xmlns="http://www.w3.org/2000/svg" xmlns:xlink="http://www.w3.org/1999/xlink" width="121.01638" height="143.48279" viewBox="0,0,121.01638,143.48279"><g transform="translate(-257.85702,173.92092)"><g data-paper-data="{&quot;isPaintingLayer&quot;:true}" fill="none" fill-rule="evenodd" stroke="#fc3324" stroke-width="36" stroke-linecap="round" stroke-linejoin="round" stroke-miterlimit="4" stroke-dasharray="" stroke-dashoffset="0" style="mix-blend-mode: normal"><g><path d="M282.98588,-48.43813l-1.46976,-2.68957l-1.96969,-1.2898l3.99936,-0.77988l0.04999,1.57975"/><path d="M283.62577,-51.7176l-1.1998,-1.8597l1.08983,-2.96953l-0.69989,-1.13981l0.6399,-3.82939l-1.2498,-0.89986l1.10982,-2.25963l-0.39994,-1.9097l-2.27963,-1.2498l-2.61958,-3.85939l0.47992,-3.94936l2.4996,0.26996l1.17981,-2.18965l2.20965,-2.05967l0.78987,-2.33962l-0.46992,-2.86954l-1.2498,-0.25996l0.52992,-2.96953l-2.55959,-3.23948l-2.89953,-2.56959l2.57958,-2.69957l-0.30995,-4.17933l1.61974,-2.15966l2.4896,2.39961l0.93984,-1.06983l7.75876,-2.85954l1.80971,0.42993l-0.16997,-1.68972l-1.67974,-2.24964l-3.87937,0.45992l-2.00968,-0.96984l-0.32995,2.28963l-2.05967,-0.39994l2.45961,-2.42961l1.48976,-3.61942l2.91953,1.74972l0.16997,1.55975l3.82939,0.56991l3.1095,-1.72973l3.94937,1.84971l1.67973,-0.23996l1.26979,3.71941l2.56959,0.92985l1.88969,-0.92985l1.17981,-2.05967l1.54975,3.23948l1.01984,-2.71957l2.26964,1.41977l2.31963,-1.02984l2.10966,1.19981l3.26947,-1.50976l0.6299,-2.66957l2.10966,0.41993l3.43945,-0.66989l3.30947,-3.19949l-2.39961,-0.6299l0.07998,-1.43977l1.80971,1.37978l4.75924,-4.61926l-1.17981,-3.36946l1.95969,-2.25964l3.35946,-0.07999l1.14981,-2.26964l2.34962,-1.25979l1.57975,-2.04968l0.21997,-4.3293l3.19948,-2.16966l1.04984,-2.96952l1.33979,-1.11982l4.83923,1.49976l0.6499,-2.53959l2.27963,-0.65989"/><path d="M278.55659,-104.30918l1.02983,2.4596l-2.00968,0.10999l-1.10982,1.38978l-0.6099,-1.71973l1.64973,0.07999l1.04984,-2.31963"/><path d="M316.45052,-112.13793l1.50976,1.43977l-3.03952,0.47992l-2.36962,1.41978l-0.30995,1.55975l-3.1395,-1.2698l-0.43993,-2.4596l4.89922,0.36994l2.88954,-1.53975"/><path d="M304.89237,-155.92092l1.71972,2.46961l1.58974,0.04999l-0.28995,1.74972l-2.32962,0.6699l-0.68989,-4.93921"/></g></g></g></svg>