<?xml version="1.0" encoding="UTF-8"?>
<svg width="480" height="360" version="1.1" viewBox="0 0 480 360" xmlns="http://www.w3.org/2000/svg">
 <g dominant-baseline="central" fill="#fff" aria-label="大阪湾">
  <path d="m251.36 177.52q0.67383 2.2852 2.5586 4.8633 2.2949 3.1445 5.6445 4.9805l-1.3965 2.0117q-3.5449-2.0898-5.918-5.5371-1.2793-1.875-2.0508-3.8184-0.77148 2.6172-2.3926 4.7559-2.3828 3.1641-5.8887 4.668l-1.377-1.7871q3.6719-1.5332 5.9277-4.7266 1.8945-2.6953 2.2461-5.4102h-7.793v-2.1191h7.8809v-4.707h2.2559v4.707h8.0469v2.1191z" dominant-baseline="central"/>
  <path d="m270.66 178.52v0.22461q-0.0488 3.7695-0.46875 6.1426-0.41992 2.3828-1.4355 4.4531l-1.7383-1.3574q0.9375-1.9531 1.2988-4.5117 0.32227-2.2461 0.32227-5.3906v-6.4941h10.635v1.9238h-8.6133v3.1738h7.2559l0.97656 0.76172q-1.0644 4.707-2.8125 7.3535 1.4844 1.5625 3.7305 2.7832l-1.1523 1.8164q-2.3047-1.3477-3.8184-2.9883-1.4062 1.6211-3.8184 3.1934l-1.2402-1.6211q2.3828-1.2793 3.8281-3.125-1.8359-2.7148-2.5195-6.3379zm4.1504 4.6387q1.25-2.1875 1.7285-4.6387h-3.6133q0.58593 2.627 1.8848 4.6387zm-8.9355-5.3906q0.77148 0.89844 1.2891 2.1387 0.58594 1.4062 0.58594 2.8223 0 1.2891-0.41016 1.9434-0.51758 0.81055-1.9922 0.81055-0.78125 0-1.5918-0.11719l-0.38086-1.9824 0.37109 0.0391q0.89844 0.0977 1.25 0.0977 0.48828 0 0.61523-0.18554 0.14649-0.23438 0.14649-0.9961 0-2.2754-1.7774-4.3945l0.10743-0.29297q0.72265-1.8457 1.3476-4.4141h-2.2168v16.27h-2.002v-18.125h5.4395l1.0059 0.82032q-0.83008 3.3789-1.7871 5.5664z" dominant-baseline="central"/>
  <path d="m295.09 173.8v3.7793q0 0.64454-0.27344 0.94727-0.32226 0.35156-1.4258 0.35156-1.0547 0-1.7285-0.11718l-0.25391-1.6211q0.77148 0.15625 1.2988 0.15625 0.2832 0 0.36133-0.13672 0.0586-0.11718 0.0586-0.38086v-2.9785h-1.7383q-0.0781 2.0605-0.54688 3.1641-0.51757 1.2012-2.1387 2.1973l-1.3965-1.2402q1.4648-0.76172 1.8848-1.9629 0.25391-0.75195 0.3125-2.1582h-3.8574v-1.6602h5.5566v-1.6406h2.1484v1.6406h6.1328v1.6602zm3.0176 5.5371v3.9648h-9.6387q-0.0781 0.53711-0.18555 1.0742h10.664q-0.24414 2.6856-0.67383 3.6816-0.625 1.4453-2.9297 1.4453-1.9141 0-4.1113-0.16601l-0.36133-1.7774q2.0996 0.22461 3.7598 0.22461 0.89843 0 1.1816-0.20508 0.43945-0.32226 0.68359-1.6797h-8.5938q-0.10742 0.40039-0.37109 1.2012l-2.0996-0.41992q0.74218-2.2266 1.1133-4.8145h9.4238v-1.0449h-10v-1.4844zm-14.365-4.3164q-1.084-1.5039-2.7734-2.9785l1.4551-1.3867q1.5332 1.123 2.8809 2.8613zm-0.5957 5.0391q-1.5039-1.9043-2.9199-3.1055l1.4648-1.416q1.4648 1.123 3.0176 2.9004zm-2.5195 7.9004q1.7188-2.6758 3.2617-6.8652l1.6016 1.1816q-1.2793 3.877-3.0664 7.2461zm17.402-9.3652q-1.2793-2.0703-2.6855-3.5742l1.4844-0.95703q1.7188 1.5625 2.7832 3.418zm-13.662-1.1719q1.4258-1.1719 2.3438-3.1055l1.7774 0.66406q-0.95703 2.1777-2.6465 3.6328z" dominant-baseline="central"/>
 </g>
</svg>
