<svg version="1.1" xmlns="http://www.w3.org/2000/svg" xmlns:xlink="http://www.w3.org/1999/xlink" width="208" height="32" viewBox="0,0,208,32"><g transform="translate(-240,-164)"><g data-paper-data="{&quot;isPaintingLayer&quot;:true}" fill-rule="nonzero" stroke="none" stroke-linecap="butt" stroke-linejoin="miter" stroke-miterlimit="10" stroke-dasharray="" stroke-dashoffset="0" style="mix-blend-mode: normal"><path d="M240,196v-32h208v32z" fill="none" stroke-width="0"/><path d="M248.96,187.11c0.72267,-1.6276 1.084,-4.1569 1.084,-7.5879v-8.4863h1.9043v8.5059c0,2.48047 -0.14323,4.4694 -0.42969,5.9668c-0.27995,1.4388 -0.77798,2.77017 -1.4941,3.9941l-1.6602,-1.3672c0.26042,-0.40365 0.4362,-0.69987 0.52735,-0.88868c-2.07033,0.8008 -4.6322,1.51693 -7.6856,2.1484l-0.74219,-1.8555c1.27607,-0.24089 2.46423,-0.48177 3.5645,-0.72265v-5.9375h-3.3984v-1.6992h3.3984v-2.1582h-1.8457c-0.30599,0.3125 -0.625,0.61849 -0.95703,0.91797l-0.9375,-1.7773c1.543,-1.45833 2.80277,-3.34637 3.7793,-5.6641h2.0801l0.16601,0.16601c1.25653,1.25653 2.321,2.487 3.1934,3.6914l-1.3184,1.5625v1.1035h-2.2363v2.1582h3.1348v1.6992h-3.1348v5.4785c1.06773,-0.26693 2.03127,-0.54036 2.8906,-0.82031zM247.837,175.362c-0.55339,-0.82033 -1.37695,-1.85873 -2.4707,-3.1152c-0.50781,1.06773 -1.11328,2.10613 -1.8164,3.1152zM241.7042,186.163c-0.20833,-1.44533 -0.54037,-2.72137 -0.9961,-3.8281l1.7774,-0.57617c0.49479,1.18493 0.82357,2.45773 0.98633,3.8184zM246.2257,184.9814c0.4362,-1.25653 0.75847,-2.42517 0.9668,-3.5059l1.7188,0.47851c-0.32552,1.27607 -0.69985,2.41863 -1.123,3.4277zM253.5109,171.3194h1.8359v15.977h-1.8359zM256.9679,170.6944h1.9238v18.809h-1.9238z" fill="#ffffff" stroke-width="1"/><path d="M275.41,177.37c1.25,0.97653 2.71483,1.79683 4.3945,2.4609l-0.90821,1.6992c-1.89453,-0.77473 -3.48307,-1.73827 -4.7656,-2.8906c-0.34505,0.29948 -0.64453,0.55013 -0.89844,0.75195c-1.1328,0.8724 -2.4837,1.62437 -4.0527,2.2559l-0.97657,-1.6211c1.70573,-0.56641 3.2487,-1.46161 4.6289,-2.6856c-0.61849,-0.73567 -1.13282,-1.43553 -1.543,-2.0996c-0.48828,0.54687 -1.01888,1.04167 -1.5918,1.4844l-1.1524,-1.5234c1.56253,-1.0742 2.75393,-2.666 3.5742,-4.7754l1.9824,0.32226c-0.13672,0.29297 -0.25391,0.54688 -0.35156,0.76172h3.5742l1.1523,1.0547c-0.8008,1.7904 -1.82293,3.39197 -3.0664,4.8047zM274.0526,176.1298c0.77473,-0.8724 1.4388,-1.80663 1.9922,-2.8027h-3.3203c-0.20183,0.3125 -0.32878,0.50456 -0.38086,0.57617c0.48828,0.8138 1.05795,1.556 1.709,2.2266zM268.4569,171.1982v6.7774h-2.4414v2.9785h2.4805v1.7578h-2.4805v3.4473c0.66407,-0.14974 1.5918,-0.40039 2.7832,-0.75195l0.15625,1.7285c-2.5716,0.8594 -5.2311,1.56577 -7.9785,2.1191l-0.61523,-1.9043c0.57291,-0.09766 0.89843,-0.15626 0.97656,-0.17579v-7.5781h1.7578v7.2266c0.33855,-0.06507 0.70638,-0.14319 1.1035,-0.23437v-8.6133h-2.998v-6.7774zM263.0956,172.9951v3.2617h3.5254v-3.2617zM278.2416,181.6181v7.8809h-1.9629v-1.084h-4.5508v1.084h-1.9629v-7.8809zM271.7279,183.3955v3.2422h4.5508v-3.2422z" fill="#ffffff" stroke-width="1"/><path d="M290.23,178.41v7.7344c0,0.5013 0.21485,0.80403 0.64454,0.9082c0.44271,0.11068 1.45507,0.16602 3.0371,0.16602c1.54293,0 2.5618,-0.07813 3.0566,-0.23438c0.27995,-0.09115 0.46224,-0.34505 0.54687,-0.76172c0.11068,-0.58593 0.16927,-1.2793 0.17578,-2.0801l2.041,0.57618c-0.10417,1.9206 -0.36784,3.1478 -0.79102,3.6816c-0.27995,0.35156 -0.70311,0.55989 -1.2695,0.625c-0.89193,0.09765 -2.4056,0.14648 -4.541,0.14648c-1.65367,0 -2.73767,-0.04557 -3.252,-0.13672c-0.77473,-0.13021 -1.26627,-0.47201 -1.4746,-1.0254c-0.10417,-0.29297 -0.15625,-0.6836 -0.15625,-1.1719v-7.7441l-1.8652,0.64453l-0.45899,-1.8945l2.3242,-0.80078v-5.2637h1.9824v4.5801l2.0996,-0.71289v-5.1465h1.9629v4.4629l3.2715,-1.123l1.0254,0.625v7.3144c0,0.50781 -0.12044,0.88541 -0.36133,1.1328c-0.27343,0.27343 -0.73243,0.41015 -1.377,0.41015c-0.52735,0 -1.08725,-0.04557 -1.6797,-0.13672l-0.32226,-1.8652c0.38411,0.09765 0.77475,0.14648 1.1719,0.14648c0.28646,0 0.46224,-0.05859 0.52734,-0.17578c0.06513,-0.09765 0.0977,-0.26041 0.0977,-0.48828v-4.6191l-2.3535,0.82031v7.9004h-1.9629v-7.2266zM283.0523,175.2166v-4.7168h2.0996v4.7168h1.8945v1.9824h-1.8945v6.2109c0.6836,-0.23437 1.36067,-0.47851 2.0312,-0.73242l0.18555,1.8848c-2.1094,0.96353 -4.2741,1.77083 -6.4941,2.4219l-0.6836,-2.0801c1.0026,-0.26041 1.8815,-0.50781 2.6367,-0.74218c0.09115,-0.03253 0.16602,-0.05533 0.22461,-0.0684v-6.8945h-2.4805v-1.9824z" fill="#ffffff" stroke-width="1"/><path d="M309.48,175.76c-0.0456,1.08727 -0.1107,2.0443 -0.19531,2.8711h7.8711c-0.09765,4.51827 -0.35156,7.4512 -0.76172,8.7988c-0.20833,0.67707 -0.5957,1.1458 -1.1621,1.4062c-0.44271,0.20182 -1.09051,0.30273 -1.9434,0.30273c-0.89847,0 -1.91733,-0.06836 -3.0566,-0.20507l-0.38085,-2.1973c1.52993,0.21485 2.6074,0.32227 3.2324,0.32227c0.52734,0 0.86264,-0.14974 1.0059,-0.44922c0.34505,-0.7292 0.58593,-2.74093 0.72265,-6.0352h-5.8105c-0.21485,1.17187 -0.51758,2.1875 -0.90821,3.0469c-1.08727,2.37627 -2.90367,4.26103 -5.4492,5.6543l-1.543,-1.7188c2.55207,-1.32813 4.23827,-3.06967 5.0586,-5.2246c0.54687,-1.4388 0.90167,-3.62957 1.0644,-6.5723h-6.4648v-2.002h7.9785v-3.2617h2.2559v3.2617h8.2422v2.002z" fill="#ffffff" stroke-width="1"/><path d="M325.84,184.3c-1.79687,0.944 -3.36263,1.66667 -4.6973,2.168l-0.82031,-2.1484c2.08987,-0.70313 3.92907,-1.4323 5.5176,-2.1875v-4.375h-4.834v-2.0606h4.834v-5.1953h2.1777v19.004h-2.1777zM332.7834,176.6926c1.51693,-0.79427 2.9883,-1.80337 4.4141,-3.0273l1.6211,1.6992c-1.92707,1.3672 -3.9388,2.53257 -6.0352,3.4961v7.3242c0,0.31901 0.10417,0.51433 0.3125,0.58594c0.22135,0.07161 0.73242,0.10742 1.5332,0.10742c1.05467,0 1.71547,-0.06185 1.9824,-0.18555c0.1888,-0.08463 0.31901,-0.3483 0.39062,-0.79101c0.09766,-0.61849 0.16928,-1.61783 0.21485,-2.998l2.1875,0.67383c-0.06513,1.6862 -0.1693,2.89713 -0.3125,3.6328c-0.16276,0.82033 -0.58919,1.35093 -1.2793,1.5918c-0.65755,0.22135 -1.73502,0.33203 -3.2324,0.33203c-1.7578,0 -2.86457,-0.14648 -3.3203,-0.43945c-0.4362,-0.28646 -0.6543,-0.83659 -0.6543,-1.6504v-16.543h2.1777z" fill="#ffffff" stroke-width="1"/><path d="M346.98,172.75h4.1797v1.8848h-1.377c-0.2474,0.99607 -0.57943,2.041 -0.9961,3.1348h2.6074v1.8848h-10.898v-1.8848h2.3926c-0.26041,-1.25 -0.53385,-2.29493 -0.82031,-3.1348h-1.2695v-1.8848h4.1406v-2.2559h2.041zM344.0406,174.6348c0.33203,0.97007 0.58919,2.015 0.77148,3.1348h1.9922l0.09766,-0.27344c0.27995,-0.7422 0.54036,-1.5853 0.78125,-2.5293l0.0879,-0.33203zM350.0953,181.295v7.998h-2.002v-0.95703h-4.2578v1.1621h-2.0606v-8.2031zM343.8355,183.0919v3.3887h4.2578v-3.3887zM356.8825,178.1603c0.77473,0.73567 1.38997,1.61133 1.8457,2.627c0.44922,1.0156 0.67383,2.04423 0.67383,3.0859c0,0.96353 -0.17904,1.67317 -0.53711,2.1289c-0.37109,0.47526 -0.98306,0.71289 -1.8359,0.71289c-0.7292,0 -1.43557,-0.05208 -2.1191,-0.15625l-0.47852,-2.0801c0.78773,0.14323 1.43877,0.21485 1.9531,0.21485c0.39063,0 0.63477,-0.09115 0.73242,-0.27344c0.06513,-0.13021 0.0977,-0.39062 0.0977,-0.78125c0,-1.60807 -0.48177,-2.9948 -1.4453,-4.1602c-0.25391,-0.30599 -0.57292,-0.63476 -0.95703,-0.98633l0.11719,-0.27343c0.67707,-1.52993 1.2044,-3.125 1.582,-4.7852h-2.5v16.064h-2.0215v-18.086h5.8789l1.084,0.99609c-0.65755,2.2396 -1.34765,4.15693 -2.0703,5.752z" fill="#ffffff" stroke-width="1"/></g></g></svg>