<svg version="1.1" xmlns="http://www.w3.org/2000/svg" xmlns:xlink="http://www.w3.org/1999/xlink" width="224" height="356" viewBox="0,0,224,356"><defs><linearGradient x1="128" y1="34" x2="128" y2="50" gradientUnits="userSpaceOnUse" id="color-1"><stop offset="0" stop-color="#000000" stop-opacity="0.1"/><stop offset="1" stop-color="#000000" stop-opacity="0"/></linearGradient></defs><g transform="translate(-128,-2)"><g data-paper-data="{&quot;isPaintingLayer&quot;:true}" stroke="none" stroke-miterlimit="10" stroke-dasharray="" stroke-dashoffset="0" style="mix-blend-mode: normal"><g fill-rule="evenodd" stroke-width="1" stroke-linecap="butt" stroke-linejoin="miter"><path d="M138,24h204c5.54,0 10,4.46 10,10v324h-224v-324c0,-5.54 4.46,-10 10,-10z" fill="#1d2a41"/><path d="M138,2h204c5.54,0 10,4.46 10,10v22h-224v-22c0,-5.54 4.46,-10 10,-10z" fill="#31476d"/></g><path d="M215.08391,12.7322l-0.16797,0.0293c-1.4463,0.25706 -2.9241,0.47465 -4.4336,0.65039l0.03516,0.0625c0.43702,0.7687 0.77603,1.61989 1.0176,2.5547l0.02344,0.09375l-1.625,0.47266l-0.10156,0.0293l-0.02344,-0.10352c-0.19598,-0.8819 -0.50267,-1.70242 -0.91992,-2.4648l-0.05664,-0.10547l1.5996,-0.5332c-0.9362,0.10838 -1.88914,0.19443 -2.8496,0.27148l0.01563,0.03125c0.43981,0.8535 0.77194,1.65691 0.99805,2.4141l0.02734,0.0918l-1.293,0.44726h4.5176c0.48832,-0.9227 0.95753,-2.0203 1.4023,-3.3086l0.0332,-0.09961l1.748,0.70312l-0.04102,0.09375c-0.36631,0.8414 -0.81612,1.71475 -1.3223,2.6113h1.3926v1.5586h-3.8672v1.3398h4.5391v1.6055h-4.5391v3.1289h1.8945v-2.5781h1.832v4.9727h-1.832v-0.83594h-5.5273v0.83594h-1.832v-4.9727h1.832v2.5781h1.7851v-3.1289h-4.3203v-1.5312c-0.33048,0.13603 -0.67845,0.28156 -0.94141,0.38281v5.127c0,0.47045 -0.08247,0.82623 -0.27148,1.0625c-0.2436,0.29709 -0.6943,0.42773 -1.3281,0.42773c-0.5687,0 -1.09965,-0.05236 -1.5918,-0.1582l-0.06445,-0.01367l-0.35938,-1.8359l0.14062,0.01953c0.62287,0.09342 1.07366,0.14062 1.3438,0.14062c0.07374,0 0.12839,-0.00799 0.16211,-0.01953c0.03372,-0.01154 0.04327,-0.0226 0.04687,-0.0293l0.002,-0.0039l0.002,-0.002c0.01656,-0.02603 0.03906,-0.11216 0.03906,-0.24414v-3.7929c-0.49051,0.16197 -0.98647,0.31808 -1.4902,0.4668l-0.0957,0.0293l-0.5332,-1.8047l0.09961,-0.02734c0.8795,-0.22376 1.54077,-0.40261 1.9805,-0.53711l0.03906,-0.01172v-2.8867h-1.8672v-1.7539h1.8672v-2.8828h1.8789v2.8828h1.5547v1.7539h-1.5547v2.2793c0.35707,-0.12289 0.74753,-0.26325 1.207,-0.44141l0.11914,-0.04492l0.22266,1.6699l-0.07031,0.0293c-0.13937,0.05887 -0.22575,0.09063 -0.35547,0.14453h4.1387v-1.3398h-3.7031v-1.5586h1.2559c-0.25678,-0.8759 -0.56435,-1.6713 -0.92578,-2.3789l-0.05273,-0.10352l1.4512,-0.48633c-0.5159,0.04009 -1.0298,0.08222 -1.5527,0.11328l-0.07031,0.0039l-0.63672,-1.4863l-0.05664,-0.13281l0.14453,-0.0059c3.2359,-0.14567 6.112,-0.45487 8.627,-0.92774l0.05664,-0.01172zM252.17785,11.29881v3.2188h1.3906v0.80664c1.5619,-0.9575 2.77809,-2.2666 3.6152,-3.9707l0.0273,-0.05469h1.8906l0.0293,0.04492c0.7794,1.2131 1.7646,2.22739 2.957,3.043c0.5166,0.3513 1.11888,0.70206 1.8086,1.0547l0.10352,0.05273l-1.0625,1.5117l-0.0781,-0.04297c-0.6702,-0.36166 -1.28361,-0.75984 -1.8613,-1.1797v0.69141h-1.75v1.1133h3.375v4.4023h-2.8477c0.36696,0.57492 0.77559,1.08651 1.2637,1.4863c0.6982,0.56475 1.5869,1.0576 2.668,1.4766l0.11328,0.04297l-1.0527,1.7305l-0.0801,-0.0332c-1.9107,-0.794 -3.30287,-2.1372 -4.207,-3.9785c-0.3455,0.9383 -0.83876,1.77474 -1.543,2.459c-0.6728,0.6516 -1.5723,1.21388 -2.6953,1.6914l-0.0703,0.0293l-1.2227,-1.5469l0.13672,-0.04492c1.2713,-0.4134 2.22894,-0.94575 2.875,-1.5918c0.50846,-0.5084 0.86558,-1.09046 1.1309,-1.7207h-2.9414v-2.5723l-0.91601,1.6387l-0.0898,-0.13281c-0.31545,-0.46001 -0.64035,-0.89775 -0.9668,-1.3281v7.1055h-1.8008v-6.6426c-0.46389,1.2633 -0.94409,2.41828 -1.4629,3.3262l-0.10547,0.18555l-0.77929,-2.0723l0.0254,-0.04102c0.9308,-1.5631 1.62839,-3.3106 2.125,-5.2168h-1.8809v-1.7227h2.0781v-3.2188zM272.9128,11.29882v5.2969h3.6133v-3.8906h1.9414v5.6445h-5.5547v5.5742h4.1055v-3.6016h1.9726v6.3789h-1.9726v-0.99219h-10.059v0.99219h-1.957v-6.3789h1.957v3.6016h4.0117v-5.5742h-5.4531v-5.6445h1.9414v3.8906h3.5117v-5.2969zM221.49068,11.6504v4.291c1.1443,-1.1718 2.10793,-2.05021 2.8223,-2.5098c0.7064,-0.45679 1.44606,-0.6875 2.2109,-0.6875c0.7688,0 1.40256,0.21792 1.8809,0.6582v0.002c0.62388,0.5809 0.9375,1.34965 0.9375,2.2832c0,0.24827 -0.0307,0.56985 -0.0937,0.96875c-0.45803,2.9095 -0.6875,4.9251 -0.6875,6.0312c0,0.23107 0.0331,0.3984 0.082,0.49414c0.04891,0.09574 0.09574,0.125 0.18554,0.125c0.11848,0 0.3132,-0.07642 0.56055,-0.24805c0.5203,-0.3587 1.05532,-0.95618 1.5977,-1.793l0.10937,-0.16992l0.72657,2.0254l-0.0273,0.04101c-0.33897,0.54027 -0.75912,1.01957 -1.2617,1.4375c-0.5872,0.49113 -1.22482,0.74219 -1.9004,0.74219c-0.643,0 -1.16143,-0.23034 -1.5234,-0.68555c-0.31517,-0.3996 -0.45898,-1.03827 -0.45898,-1.9141c0,-0.665 0.08566,-1.6548 0.25781,-2.9746c0.21855,-1.6547 0.3648,-2.88228 0.4375,-3.6816c0.01033,-0.12841 0.01563,-0.23569 0.01563,-0.32031c0,-0.44432 -0.09364,-0.77123 -0.26758,-0.99219v-0.0019c-0.16473,-0.21179 -0.38097,-0.3125 -0.67969,-0.3125c-0.4999,0 -1.17677,0.34626 -2.0059,1.0645c-0.8231,0.713 -1.8005,1.7929 -2.918,3.2246v7.4375h-1.9258v-5.1875c-0.7944,1.117 -1.54603,2.1904 -2.2246,3.1914l-0.10156,0.14844l-0.91016,-2.0723l0.04102,-0.04883c1.2259,-1.4845 2.28923,-2.8979 3.1953,-4.2422v-1.8516h-2.7422v-1.7695h2.7422v-2.7031zM240.92443,11.97676l-0.0703,0.12695c-0.15814,0.2846 -0.43582,0.74288 -0.83204,1.3789h0.002l-0.008,0.01172h5.4277v1.7383h-6.5996c-0.5984,0.8198 -1.16544,1.51403 -1.7168,2.1426c0.8567,-0.45976 1.67724,-0.78711 2.4121,-0.78711c0.64695,0 1.19274,0.16278 1.625,0.49414c0.40607,0.3113 0.68985,0.7941 0.89063,1.3848c1.3118,-0.43511 2.6478,-0.86411 4.0098,-1.2891l0.084,-0.02539l0.75586,1.7012l-0.38477,0.10938l-0.77539,0.20508v-0.002c-1.4273,0.38739 -2.55549,0.71713 -3.4219,0.99414c0.0596,0.671 0.1036,1.5087 0.1289,2.5488l0.002,0.0957l-1.9121,0.10547v-0.10547c-0.0053,-0.6193 -0.0157,-1.2901 -0.0312,-2.0137v-0.0039c-1.1053,0.38705 -1.98217,0.77562 -2.5391,1.1582c-0.58605,0.40254 -0.85547,0.79036 -0.85547,1.1562c0,0.18956 0.06325,0.33774 0.19922,0.4668c0.13597,0.12906 0.35169,0.23511 0.64844,0.31055c0.5738,0.14598 1.6341,0.22461 3.1621,0.22461c1.4077,0 2.8866,-0.08105 4.4356,-0.24219l0.0976,-0.0098l0.21094,1.8652l-0.10352,0.0078c-1.5079,0.11479 -3.0705,0.17188 -4.6875,0.17188c-1.9946,0 -3.41313,-0.14835 -4.2754,-0.45898c-1.06251,-0.3844 -1.6211,-1.1078 -1.6211,-2.1172c0,-0.8527 0.386,-1.61168 1.1367,-2.2559c0.7598,-0.6506 2.1005,-1.30751 3.9492,-1.9844c-0.09791,-0.33659 -0.21556,-0.5988 -0.35156,-0.72656c-0.17279,-0.16344 -0.39869,-0.24609 -0.69727,-0.24609c-0.4904,0 -1.12702,0.18948 -1.9004,0.57617c-0.9533,0.4741 -1.9806,1.19093 -3.0801,2.1504l-0.0762,0.06445l-1.168,-1.3359l0.0703,-0.06641c1.5592,-1.4489 2.7554,-2.8678 3.6582,-4.2637h-3.0645v-1.7383h4.2539c0.44487,-0.7117 0.79199,-1.29864 1.0234,-1.7363l0.0332,-0.0625zM256.7403,14.9316h3.25c-0.647,-0.5891 -1.24303,-1.26038 -1.7793,-2.0312c-0.3942,0.7216 -0.89009,1.39577 -1.4707,2.0312zM255.76757,15.86923c-0.5286,0.44169 -1.09547,0.84701 -1.7285,1.1875l-0.0762,0.04102l-0.63867,-0.85742h-1.1465v1.1934c0.6731,0.568 1.32413,1.19406 1.9512,1.8828l0.0215,0.02344v-1.752h3.3125v-1.1133h-1.6953v-0.60547zM255.8574,20.541h1.6367v-1.5195h-1.6367zM259.2168,20.541h1.6836v-1.5195h-1.6836z" fill="#ffffff" fill-rule="nonzero" stroke-width="1" stroke-linecap="butt" stroke-linejoin="miter"/><path d="M128,50v-16h224v16z" fill="url(#color-1)" fill-rule="evenodd" stroke-width="12" stroke-linecap="round" stroke-linejoin="round" opacity="0.80769"/></g></g></svg>