<svg version="1.1" xmlns="http://www.w3.org/2000/svg" xmlns:xlink="http://www.w3.org/1999/xlink" width="55.17776" height="61.62753" viewBox="0,0,55.17776,61.62753"><g transform="translate(-474.08563,-38.51211)"><g data-paper-data="{&quot;isPaintingLayer&quot;:true}" fill="#ff0000" fill-rule="evenodd" stroke="none" stroke-width="0" stroke-linecap="round" stroke-linejoin="round" stroke-miterlimit="10" stroke-dasharray="" stroke-dashoffset="0" style="mix-blend-mode: normal"><path d="M510.62412,40.42203l1.48994,1.68993l0.70997,-0.21999l0.1,3.29987l0.65997,1.91992l0.94996,0.83997l-0.19999,1.77993l0.79997,1.50994l1.27995,0.62997l1.72993,3.49986l1.61994,1.31995l3.33987,1.95992l0.95996,-0.02l1.04996,0.60998l1.33995,-0.05l2.5699,2.33991l-1.39994,2.09992l0.96996,1.59994l-0.34999,2.19991l1.01996,1.00996l-0.43998,2.6099l-0.78997,0.94996l0.63997,0.71997l0.06,2.25991l-1.63993,1.57994l0.18999,1.38994l-0.97996,1.41994l-0.97996,0.61998l-0.84997,1.19995l-1.71993,0.14999l-0.84997,0.41998l-1.40994,-0.26999l-0.20999,1.25995l-1.32995,1.31995l-0.30999,0.94996l-1.25995,0.12999l-0.67997,0.64997l-1.92992,0.12l-0.99996,1.20995l-2.4299,0.47998l-2.70989,2.71989l0.31999,1.38994l-0.48998,1.35995l-0.75997,0.47998l-0.16999,1.31995l-1.34995,0.51998l-1.49994,1.22995l-1.43994,0.56998l-1.06996,-1.03996l-1.19995,-0.04l-1.67993,0.80997l-1.20995,1.18995l-2.23991,-0.29999l-6.86972,1.69993l-0.59998,-0.29999l-2.4399,0.30999l-0.16999,0.36999l-1.81993,0.23999l-0.92996,-4.30983l-0.77997,-0.66997h-2.4399l-2.98988,0.62997l-1.13995,-4.73981l-0.91996,-0.60998l-0.65997,-1.09996l0.20999,-0.21999l-0.04,-0.96996l1.12995,0.06l0.66997,-0.77997l-0.57998,-1.39994l-1.30995,-0.1v-0.11l1.30995,-1.09996l-0.12999,-1.49994l0.78997,-1.13995l1.85993,0.31999l1.55994,-1.35995l3.98984,-0.77997l1.75993,-1.71993l3.25987,-1.14995l0.55998,-0.45998l2.18991,-0.85997l1.10996,-0.65997l1.73993,0.07l0.88996,-0.26999l0.16999,-1.11996l-0.65997,-0.60998l-0.17999,-1.30995l-1.20995,-0.12999l0.12,-0.82997l-0.49998,-0.94996l1.02996,-1.06996l0.21999,-0.72997l1.19995,-0.20999l0.99996,-0.72997l1.12995,0.14999l0.51998,-0.91996l0.98996,0.05l2.05992,-2.4599v-1.43994l-0.34999,-1.45994l1.28995,-1.96992l-0.46998,-1.63993l-0.01,-1.54994l0.43998,-1.54994l-1.39994,-2.66989l-1.73993,-0.75997l-0.85997,-1.23995l-0.22999,-1.41994l4.56982,-0.33999l0.50998,-0.42998l-0.50998,-2.62989l-0.59998,-0.28999l0.30999,-1.17995l-0.87996,-0.93996l0.98996,-1.02996l0.42998,-1.11996l-0.26999,-2.16991l0.66997,0.18999l1.02996,1.26995l1.22995,0.87996l1.88992,-1.58994l1.54994,0.46998l1.74993,-0.72997l0.33999,1.41994"/></g></g></svg>