<svg xmlns="http://www.w3.org/2000/svg" xml:space="preserve" viewBox="0 0 400 400" version="1.1" height="400" width="400"><path style="mix-blend-mode:normal" stroke-width="0" stroke-miterlimit="10" fill="none" d="m0 400v-400h400v400z"></path><path style="paint-order:stroke fill markers" stroke-width="0" fill-rule="evenodd" fill="#f6cb51" d="m150.0001 120h100c16.62 0 30 13.38 30 30v100c0 16.62-13.38 30-30 30h-100c-16.62 0-30-13.38-30-30v-100c0-16.62 13.38-30 30-30z"></path><path style="font-feature-settings:normal;font-variant-alternates:normal;font-variant-caps:normal;font-variant-east-asian:normal;font-variant-ligatures:normal;font-variant-numeric:normal;font-variant-position:normal;font-variation-settings:normal;inline-size:0;isolation:auto;mix-blend-mode:normal;shape-margin:0;shape-padding:0;text-decoration-color:#000000;text-decoration-line:none;text-decoration-style:solid;text-indent:0;text-orientation:mixed;text-transform:none;white-space:normal" stop-color="#000000" shape-rendering="auto" opacity=".75" image-rendering="auto" fill="#1c1c1c" color-rendering="auto" color="#000000" d="m201.64 143.18c-15.151 0-28.405 4.507-39.619 13.496l-0.7832 0.62891 10.615 13.105 0.77734-0.64649c8.9726-7.4491 18.222-11.113 27.85-11.113 5.3074 0 9.6464 1.183 13.107 3.5039 3.9036 2.6446 5.7441 6.0339 5.7441 10.514 0 5.4322-2.5388 9.5581-7.9492 12.738h-2e-3c-4.3907 2.5854-10.289 3.9219-17.732 3.9219h-9.959v1l2e-3 14.857h9.5723c7.0723 0 13.077 1.1019 18.033 3.2676h2e-3c7.3382 3.1924 10.807 8.3209 10.807 15.906 0 5.5388-1.7485 9.4237-5.2656 12.021l-4e-3 2e-3 -2e-3 2e-3c-3.6828 2.7516-8.8863 4.1836-15.707 4.1836-6.0327 0-12.274-1.4017-18.742-4.2344l-2e-3 -2e-3c-5.3119-2.3188-9.6175-5.2511-12.949-8.791l-0.76953-0.82031-11.051 13.172 0.6582 0.64844c10.933 10.758 25.247 16.143 42.725 16.143 11.083 0 20.127-2.0833 27.078-6.334v-2e-3c9.2359-5.6563 13.949-14.374 13.949-25.73 0-7.8181-2.5416-14.226-7.5996-18.971h-2e-3c-4.2191-3.9478-10.103-6.6407-17.41-8.2734 5.4234-1.2628 10.013-3.4949 13.605-6.8281l2e-3 -2e-3c5.5412-5.1866 8.375-11.541 8.375-18.842 0-9.4773-4.1142-16.996-12.125-22.174l-2e-3 -2e-3c-6.6433-4.2517-15.077-6.3457-25.227-6.3457z"></path></svg>
