<?xml version="1.0" encoding="UTF-8"?>
<svg width="480" height="360" version="1.1" viewBox="0 0 480 360" xmlns="http://www.w3.org/2000/svg">
 <g dominant-baseline="central" fill="#fff" aria-label="四国沖">
  <path d="m258.63 172.24v16.582h-2.1777v-1.4648h-12.939v1.4648h-2.1387v-16.582zm-7.4805 1.9434h-2.5976v1.377q0 3.2031-0.88867 4.9707-0.73243 1.4844-2.6465 2.7539l-1.4062-1.543q1.2012-0.625 1.8262-1.4746 1.0742-1.4844 1.0742-4.6094v-1.4746h-2.998v11.211h12.939v-3.4277h-3.4863q-1.8164 0-1.8164-1.8262zm2.041 0v5.4785q0 0.36133 0.36133 0.36133h2.9004v-5.8398z" dominant-baseline="central"/>
  <path d="m270.76 176.34v2.3242h4.2383v1.6406h-1.9043q0.88867 0.72266 1.9434 2.0606l-1.4941 0.99609q-0.71289-1.0742-2.002-2.2558l1.4258-0.80079h-2.207v3.0957h5v1.7188h-11.543v-1.7188h4.5215v-3.0957h-3.7793v-1.6406h3.7793v-2.3242h-4.3164v-1.6992h11.113v1.6992zm7.998-4.9219v18.086h-2.1582v-1.0254h-13.223v1.0254h-2.1387v-18.086zm-15.381 1.7969v13.408h13.223v-13.408z" dominant-baseline="central"/>
  <path d="m291.58 174.14v-3.6426h2.0996v3.6426h5.293v8.8379h-5.293v6.5234h-2.0996v-6.5234h-5.1856v-8.8379zm-3.1641 1.9434v4.9707h3.1641v-4.9707zm8.4766 4.9707v-4.9707h-3.2129v4.9707zm-12.5-5.7812q-1.1914-1.6602-3.1543-3.1738l1.4551-1.4844q1.9531 1.377 3.3008 3.0859zm-0.63476 5.0195q-1.6992-1.9727-3.3008-3.2324l1.5039-1.5039q1.709 1.2012 3.3789 3.1055zm-3.0371 7.5684q1.875-2.666 3.457-6.6406l1.7383 1.3379q-1.3379 3.6621-3.2617 6.8945z" dominant-baseline="central"/>
 </g>
</svg>
