<svg version="1.1" xmlns="http://www.w3.org/2000/svg" xmlns:xlink="http://www.w3.org/1999/xlink" width="208" height="32" viewBox="0,0,208,32"><g transform="translate(-240,-164)"><g data-paper-data="{&quot;isPaintingLayer&quot;:true}" fill-rule="nonzero" stroke="none" stroke-linecap="butt" stroke-linejoin="miter" stroke-miterlimit="10" stroke-dasharray="" stroke-dashoffset="0" style="mix-blend-mode: normal"><path d="M240,196v-32h208v32z" fill="none" stroke-width="0"/><path d="M248.92,182.24h-4.043v-1.6016h1.9531c-0.29297,-0.66407 -0.625,-1.28257 -0.99609,-1.8555l1.7578,-0.64453c0.50781,0.85287 0.91798,1.6862 1.2305,2.5h2.2949c0.38411,-0.78773 0.72265,-1.6341 1.0156,-2.5391l1.9629,0.61524c-0.33203,0.71613 -0.6836,1.3574 -1.0547,1.9238h2.0996v1.6016h-4.1797v1.4258h4.4531v1.6602h-4.4531v3.6914h-2.041v-3.6914h-4.2871v-1.6602h4.2871zM251.0196,176.2244h7.4024v11.416c0,0.6706 -0.17904,1.1426 -0.53711,1.416c-0.29948,0.23438 -0.80405,0.35157 -1.5137,0.35157c-0.918,0 -1.8034,-0.04883 -2.6562,-0.14649l-0.47852,-1.9629c1.13933,0.13672 1.9922,0.20508 2.5586,0.20508c0.23437,0 0.37109,-0.05859 0.41015,-0.17578c0.02607,-0.07161 0.0391,-0.17253 0.0391,-0.30274v-9.1016h-12.48v11.582h-2.1777v-13.281h7.2754v-1.7676h-8.3594v-1.8164h8.3594v-2.1387h2.1582v2.1387h8.4766v1.8164h-8.4766z" fill="#ffffff" stroke-width="1"/><path d="M271.5,176.91c0.48828,1.58853 1.26628,3.17383 2.334,4.7559c1.50393,2.23307 3.43753,4.069 5.8008,5.5078l-1.3574,2.0312c-2.168,-1.34767 -4.08207,-3.2194 -5.7422,-5.6152c-0.97653,-1.41273 -1.75453,-2.96873 -2.334,-4.668c-0.41016,1.4974 -0.96679,2.85157 -1.6699,4.0625c1.57553,1.0742 2.8646,2.10283 3.8672,3.0859l-1.3574,1.6016c-0.99607,-0.99607 -2.1842,-2.0117 -3.5644,-3.0469c-0.97007,1.28907 -1.9629,2.33723 -2.9785,3.1445c-0.6966,0.55989 -1.5104,1.10676 -2.4414,1.6406l-1.582,-1.8359c2.4414,-1.05467 4.39453,-2.71157 5.8594,-4.9707c1.1068,-1.71227 1.86527,-3.61007 2.2754,-5.6934h-7.6953v-2.0801h7.9004v-4.3359h2.3047v4.3359h7.9785v2.0801z" fill="#ffffff" stroke-width="1"/><path d="M291.04,173.3v7.6367h8.4668v2.002h-8.4668v6.5625h-2.1973v-6.5625h-8.3398v-2.002h8.3398v-7.6367h-7.4414v-1.9434h17.217v1.9434zM284.5263,180.1945c-0.64453,-1.91407 -1.35743,-3.6198 -2.1387,-5.1172l2.1191,-0.85937c0.7292,1.263 1.47463,2.97523 2.2363,5.1367zM293.1787,179.52067c0.83987,-1.57553 1.5495,-3.38217 2.1289,-5.4199l2.2168,0.71289c-0.61198,1.88153 -1.38021,3.7077 -2.3047,5.4785z" fill="#ffffff" stroke-width="1"/><path d="M311.56,175.5h-5.2246v-1.8164h2.666c-0.42318,-0.97007 -0.87241,-1.81643 -1.3477,-2.5391l1.9434,-0.72266c0.54687,0.918 1.04817,2.00523 1.5039,3.2617h3.1055c0.41667,-0.96353 0.8138,-2.05077 1.1914,-3.2617l2.1973,0.60547c-0.40365,1.02867 -0.80728,1.91407 -1.2109,2.6562h2.5586v1.8164h-5.2246v2.5195h4.6387v1.7578h-4.6387v2.6953h5.7812v1.8848h-5.7812v5.1465h-2.1582v-5.1465h-5.6445v-1.8848h5.6445v-2.6953h-4.668v-1.7578h4.668zM304.1577,175.23632c-0.77473,-1.0742 -1.80013,-2.11913 -3.0762,-3.1348l1.4746,-1.5039c1.3086,0.95053 2.3763,1.9629 3.2031,3.0371zM303.52293,180.25582c-1.0156,-1.237 -2.0703,-2.29493 -3.1641,-3.1738l1.4844,-1.5039c1.16533,0.84633 2.2428,1.8652 3.2324,3.0566zM300.70063,187.77532c1.15887,-1.6016 2.27213,-3.7533 3.3398,-6.4551l1.6602,1.2988c-0.91147,2.7344 -2.0052,5.0228 -3.2812,6.8652z" fill="#ffffff" stroke-width="1"/></g></g></svg>