<svg version="1.1" xmlns="http://www.w3.org/2000/svg" xmlns:xlink="http://www.w3.org/1999/xlink" width="177.22316" height="220.11629" viewBox="0,0,177.22316,220.11629"><g transform="translate(-229.69273,199.60704)"><g data-paper-data="{&quot;isPaintingLayer&quot;:true}" fill="none" fill-rule="evenodd" stroke="#d645ff" stroke-width="72" stroke-linecap="round" stroke-linejoin="round" stroke-miterlimit="4" stroke-dasharray="" stroke-dashoffset="0" style="mix-blend-mode: normal"><g><path d="M273.31151,-15.49074l1.35978,-8.61862l-0.48992,-5.79907l-2.65957,-6.30899l-4.26932,0.55991l-1.08983,-1.29979l-0.46992,-2.98952l7.60878,-5.31915l0.31995,-1.70973l2.37962,-1.8797l2.41961,-4.29931l0.96984,-3.70941l2.99952,-1.11982l2.58959,-2.40961l3.61942,1.69973l2.24964,1.91969l3.05951,-1.11982l4.77924,-4.17933l2.94953,0.35994l1.91969,-1.2698l1.90969,-2.90953l2.67957,-7.00888l1.40977,-5.54911l1.43977,-7.82875l1.08983,-12.02808l-0.51992,-5.0092l-2.11966,-2.72956l-4.9692,-1.32979l0.90985,-2.20965l4.62926,1.2498l2.45961,-3.80939l0.75988,-4.3993l-0.65989,-3.44945l1.15981,-2.69957l-0.16997,-2.72956l5.26916,2.83955l4.11934,5.72908l3.51944,1.81971l2.29963,-0.56991l2.83955,-2.55959l0.41993,-1.71972l2.39962,-1.2698l4.63926,1.51976"/><path d="M357.49804,-118.80421l0.6499,-2.62958l-0.50992,-2.65957l1.59974,-3.84938l1.05983,-4.69925l-0.52992,-1.8497l1.54975,-1.36978l2.17965,-10.87826l2.81955,-2.17965l1.8497,-4.09934l1.33979,-1.2698l1.07983,-3.85938l-1.04983,-2.18965l1.37978,-3.26948"/></g></g></g></svg>