<?xml version="1.0" encoding="UTF-8"?>
<svg width="300" height="300" version="1.1" viewBox="0 0 300 300" xml:space="preserve" xmlns="http://www.w3.org/2000/svg"><defs><filter id="d" x="-.1236024" y="-.4298836" width="1.247205" height="1.859767" color-interpolation-filters="sRGB"><feGaussianBlur stdDeviation="15.450304"/></filter><mask id="a" maskUnits="userSpaceOnUse"><path class="blocklyPath blocklyBlockBackground" d="m0 122.49h30.359c9.6878 0 15.113 4.3252 19.376 9.6878l19.376 24.376c4.2626 5.3626 9.6878 9.6878 19.376 9.6878h58.127c9.6878 0 15.113-4.3252 19.376-9.6878l19.376-24.376c4.2626-5.3625 9.6878-9.6878 19.376-9.6878h95.258v47.506h-95.258c-9.6878 0-14.532 4.8439-19.376 9.6878l-19.376 19.376c-4.8439 4.8439-9.6878 9.6878-19.376 9.6878h-58.127c-9.6878 0-14.532-4.8439-19.376-9.6878l-19.376-19.376c-4.8439-4.8439-9.6878-9.6878-19.376-9.6878h-30.359z" fill="#fff"/></mask><linearGradient id="c" x2="300" y1="150" y2="150" gradientTransform="translate(0,-40)" gradientUnits="userSpaceOnUse"><stop stop-color="#62626b" offset="0"/><stop stop-color="#62626b" offset=".1"/><stop stop-color="#2b8eb2" offset=".1"/><stop stop-color="#2b8eb2" offset=".2"/><stop stop-color="#4cd0a7" offset=".2"/><stop stop-color="#4cd0a7" offset=".3"/><stop stop-color="#f6cb51" offset=".3"/><stop stop-color="#f6cb51" offset=".4"/><stop stop-color="#ff9939" offset=".4"/><stop stop-color="#ff9939" offset=".5"/><stop stop-color="#e52a18" offset=".5"/><stop stop-color="#e52a18" offset=".6"/><stop stop-color="#c31b1b" offset=".6"/><stop stop-color="#c31b1b" offset=".7"/><stop stop-color="#a50c6b" offset=".7"/><stop stop-color="#a50d6c" offset=".8"/><stop stop-color="#930a7a" offset=".8"/><stop stop-color="#930a7a" offset=".9"/><stop stop-color="#5f0ca2" offset=".9"/><stop stop-color="#5f0ca2" offset="1"/></linearGradient><linearGradient id="b" x1="150" x2="150" y1="300" gradientUnits="userSpaceOnUse"><stop stop-color="#d4d6d9" offset="0"/><stop stop-color="#dbdde0" offset="1"/></linearGradient></defs><rect width="300" height="300" fill="url(#c)" fill-rule="evenodd" stop-color="#000000"/><path class="blocklyPath blocklyBlockBackground" d="m0 92.494h30.359c9.6878 0 15.113 4.3252 19.376 9.6878l19.376 24.376c4.2626 5.3626 9.6878 9.6878 19.376 9.6878h58.127c9.6878 0 15.113-4.3252 19.376-9.6878l19.376-24.376c4.2626-5.3625 9.6878-9.6878 19.376-9.6878h95.258v47.506h-95.258c-9.6878 0-14.532 4.8439-19.376 9.6878l-19.376 19.376c-4.8439 4.8439-9.6878 9.6878-19.376 9.6878h-58.127c-9.6878 0-14.532-4.8439-19.376-9.6878l-19.376-19.376c-4.8439-4.8439-9.6878-9.6878-19.376-9.6878h-30.359z" filter="url(#d)" mask="url(#a)" opacity=".2"/><path d="m0 0v122.49h30.359c9.6878 0 15.112 4.3249 19.375 9.6875l19.377 24.377c4.2626 5.3626 9.6868 9.6875 19.375 9.6875h58.127c9.6878 0 15.114-4.3249 19.377-9.6875l19.375-24.377c4.2626-5.3625 9.6888-9.6875 19.377-9.6875h95.258v-122.49zm0 170v130h300v-130h-95.258c-9.6878 0-14.533 4.8436-19.377 9.6875l-19.375 19.377c-4.8439 4.8439-9.6888 9.6875-19.377 9.6875h-58.127c-9.6878 0-14.531-4.8436-19.375-9.6875l-19.377-19.377c-4.8439-4.8439-9.6868-9.6875-19.375-9.6875z" fill="url(#b)" fill-rule="evenodd" stop-color="#000000"/></svg>
