<svg version="1.1" xmlns="http://www.w3.org/2000/svg" xmlns:xlink="http://www.w3.org/1999/xlink" width="208" height="32" viewBox="0,0,208,32"><g transform="translate(-240,-164)"><g data-paper-data="{&quot;isPaintingLayer&quot;:true}" fill-rule="nonzero" stroke="none" stroke-linecap="butt" stroke-linejoin="miter" stroke-miterlimit="10" stroke-dasharray="" stroke-dashoffset="0" style="mix-blend-mode: normal"><path d="M240,196v-32h208v32z" fill="none" stroke-width="0"/><path d="M242.18,173.45c0.58594,-0.97007 1.13281,-1.9987 1.6406,-3.0859l2.1094,0.45898c-0.46875,0.8854 -1.02215,1.7285 -1.6602,2.5293c1.26953,-0.07813 2.32423,-0.15951 3.1641,-0.24414c-0.22787,-0.26693 -0.56317,-0.63476 -1.0059,-1.1035l1.4356,-0.88867c1.1068,0.9896 2.0671,2.07683 2.8809,3.2617l-1.5234,1.084c-0.28646,-0.42317 -0.54037,-0.78451 -0.76172,-1.084c-2.31773,0.33203 -4.87633,0.57943 -7.6758,0.74219l-0.49805,-1.6211c0.6966,-0.013 1.21093,-0.02603 1.543,-0.0391c0.15625,-0.00667 0.27344,-0.01 0.35156,-0.01zM249.2503,175.7644v6.9141c0,0.52083 -0.12044,0.89193 -0.36133,1.1133c-0.23437,0.20833 -0.64454,0.3125 -1.2305,0.3125c-0.66406,0 -1.36066,-0.05534 -2.0898,-0.16601l-0.3418,-1.5918c0.67707,0.11719 1.23047,0.17578 1.6602,0.17578c0.20833,0 0.33203,-0.07812 0.37109,-0.23437c0.01953,-0.07162 0.0293,-0.16602 0.0293,-0.28321v-0.83984h-3.6035v3.0566h-2.0215v-8.457zM243.6839,177.0828v0.85937h3.6035v-0.85937zM243.6839,179.1433v0.85938h3.6035v-0.85938zM252.8245,172.5613c1.556,-0.41667 2.9948,-0.931 4.3164,-1.543l1.2402,1.4453c-1.9922,0.77473 -3.8444,1.34113 -5.5566,1.6992v0.61523c0,0.34505 0.08789,0.55664 0.26367,0.63477c0.1888,0.07812 0.79427,0.11718 1.8164,0.11718c1.12633,0 1.7904,-0.05859 1.9922,-0.17578c0.15625,-0.08463 0.25391,-0.26041 0.29297,-0.52734c0.01953,-0.11719 0.0521,-0.52735 0.0977,-1.2305l1.8555,0.60547c-0.013,1.34767 -0.24737,2.181 -0.70312,2.5c-0.48828,0.33854 -1.76108,0.50781 -3.8184,0.50781c-1.59507,0 -2.63023,-0.09766 -3.1055,-0.29297c-0.47526,-0.20182 -0.71289,-0.63475 -0.71289,-1.2988v-5.0976h2.0215zM252.8245,179.2801c1.7448,-0.42969 3.2845,-0.96355 4.6191,-1.6016l1.377,1.4258c-2.07033,0.8268 -4.06903,1.416 -5.9961,1.7676v0.79102c0,0.27343 0.11393,0.44921 0.34179,0.52734c0.23437,0.07161 0.78451,0.10742 1.6504,0.10742c0.9896,0 1.66667,-0.03906 2.0312,-0.11719c0.32552,-0.06507 0.52083,-0.27014 0.58594,-0.61523c0.0456,-0.24089 0.08141,-0.65429 0.10742,-1.2402l1.8652,0.63476c-0.013,1.34767 -0.20506,2.1875 -0.57618,2.5195c-0.23437,0.20833 -0.63151,0.35156 -1.1914,0.42969c-0.67707,0.08463 -1.60807,0.12695 -2.793,0.12695c-1.70573,0 -2.80927,-0.0944 -3.3106,-0.2832c-0.48828,-0.18229 -0.73242,-0.59896 -0.73242,-1.25v-4.9023h2.0215zM240.4025,188.4207c0.91147,-1.02213 1.66017,-2.26237 2.2461,-3.7207l2.0996,0.76171c-0.55989,1.6992 -1.29556,3.09243 -2.207,4.1797zM247.2677,189.5047c-0.3125,-1.63413 -0.63476,-2.94923 -0.96679,-3.9453l2.2266,-0.49805c0.5013,1.3802 0.85937,2.67903 1.0742,3.8965zM252.3263,189.2215c-0.41667,-1.30207 -0.96353,-2.5488 -1.6406,-3.7402l1.9824,-0.6836c0.70313,1.04167 1.32163,2.26237 1.8555,3.6621zM257.5411,189.2606c-0.70313,-1.46487 -1.50067,-2.7572 -2.3926,-3.877l1.9141,-0.94727c1.0156,1.11327 1.9238,2.3893 2.7246,3.8281z" fill="#ffffff" stroke-width="1"/><path d="M271.78,176.02c2.1354,3.112 4.7591,5.60223 7.8711,7.4707l-1.3867,1.8848c-3.1836,-2.33073 -5.60547,-4.85027 -7.2656,-7.5586v5.957h4.0039v1.9238h-3.9648v3.8086h-2.1973v-3.8086h-3.7402v-1.9238h3.7793v-5.8594c-1.60153,2.96227 -3.94853,5.60873 -7.041,7.9394l-1.416,-1.7578c3.14453,-2.08333 5.6901,-4.7754 7.6367,-8.0762h-7.0801v-2.002h7.8418v-3.5156h2.2363v3.5156h7.9688v2.002z" fill="#ffffff" stroke-width="1"/><path d="M296.76,170.98v9.4629h-11.621v-9.4629zM287.2385,172.523v1.2207h7.4023v-1.2207zM287.2385,175.1207v1.2207h7.4023v-1.2207zM287.2385,177.7183v1.2598h7.4023v-1.2598zM283.3029,181.7417h16.191v1.6992h-8.0762v6.0644h-2.2168v-6.0644h-8.0371v-10.957h2.1387zM280.8029,187.6401c1.54947,-0.71613 3.0306,-1.9173 4.4434,-3.6035l1.7969,1.0449c-1.3932,1.76433 -2.93943,3.15107 -4.6387,4.1602zM297.6389,188.8999c-0.99607,-1.22393 -2.49347,-2.50973 -4.4922,-3.8574l1.6797,-1.1816c1.569,0.90493 3.1087,2.09307 4.6191,3.5644z" fill="#ffffff" stroke-width="1"/><path d="M307.52,184.24c1.15887,-0.70313 2.24937,-1.56903 3.2715,-2.5977l0.66406,1.7188c-1.26953,1.38673 -2.65627,2.5586 -4.1602,3.5156l-0.98633,-1.709c-2.0768,0.97007 -3.916,1.73503 -5.5176,2.2949l-0.6543,-2.0996c0.89193,-0.25391 1.82617,-0.55013 2.8027,-0.88867v-4.7266h-2.207v-1.9043h2.207v-4.082h-2.4219v-1.9629h6.8359v1.9629h-2.3535v4.082h1.9531v1.9043h-1.9531v3.9551c0.61198,-0.23437 1.39648,-0.55989 2.3535,-0.97656zM313.9458,175.9588c0.20833,1.22393 0.60873,2.50323 1.2012,3.8379c0.87893,-0.96353 1.7025,-2.05727 2.4707,-3.2812l1.7773,1.3086c-1.10027,1.37367 -2.23307,2.5553 -3.3984,3.5449c0.92447,1.4844 2.17773,2.87437 3.7598,4.1699l-1.3379,1.9434c-1.9922,-1.7904 -3.50587,-4.03 -4.541,-6.7188v6.9141c0,0.7096 -0.16927,1.19787 -0.50781,1.4648c-0.28646,0.22787 -0.76499,0.3418 -1.4356,0.3418c-0.7682,0 -1.52667,-0.06185 -2.2754,-0.18555l-0.40039,-2.0801c0.79427,0.14974 1.4453,0.22461 1.9531,0.22461c0.29297,0 0.46875,-0.05208 0.52734,-0.15625c0.03907,-0.0586 0.0586,-0.20183 0.0586,-0.42969v-10.898h-4.7754v-1.9434h4.7754v-3.5156h2.0801v3.5156h5.4395v1.9434zM316.5532,173.9764c-0.55989,-0.9896 -1.17839,-1.88153 -1.8555,-2.6758l1.6602,-0.91797c0.78127,0.76173 1.4486,1.6211 2.002,2.5781zM309.6196,180.9198c-0.83987,-1.2956 -1.66017,-2.3503 -2.4609,-3.1641l1.6406,-1.1328c0.8008,0.74867 1.6211,1.76753 2.4609,3.0566z" fill="#ffffff" stroke-width="1"/><path d="M335.74,173.68v1.1914h3.2031v1.377h-2.7246c0.90493,0.98307 1.99867,1.82943 3.2812,2.5391l-1.0547,1.2988c-1.08073,-0.64453 -1.99547,-1.4323 -2.7442,-2.3633v2.7441h-1.7969v-2.7539c-0.65755,1.08073 -1.47785,1.97267 -2.4609,2.6758l-1.0449,-1.1621c1.09373,-0.6706 2.0638,-1.6146 2.9102,-2.832l0.10742,-0.14648h-2.1777v-1.377h2.627v-1.1914h-5.1465v1.1914h2.002v1.377h-2.041v0.43945c0.80727,0.35157 1.61457,0.81057 2.4219,1.377l-0.97657,1.2598c-0.58593,-0.48828 -1.0677,-0.86915 -1.4453,-1.1426v2.2852h-1.7969v-2.4707c-0.63803,0.931 -1.36393,1.70247 -2.1777,2.3144l-1.0449,-1.1328c-0.00667,2.56507 -0.1206,4.64513 -0.3418,6.2402c-0.21484,1.5104 -0.59571,2.84177 -1.1426,3.9941l-1.8945,-1.3281c0.53385,-1.10027 0.89519,-2.50327 1.084,-4.209c0.15625,-1.41927 0.23437,-3.1966 0.23437,-5.332v-6.4844h7.8027v-1.5625h2.1582v1.5625h7.6856v1.6211zM326.8435,173.68h-3.1836v5.3613c1.0156,-0.57943 1.9596,-1.51043 2.832,-2.793h-2.4316v-1.377h2.7832zM328.8552,184.051h9.2676v5.4492h-2.0801v-0.88867h-8.2031v0.88867h-2.0606v-3.3105c-0.35156,0.19531 -0.83009,0.4427 -1.4356,0.74218l-0.96679,-1.4941c1.71227,-0.61198 3.20313,-1.55275 4.4726,-2.8223h-3.9453v-1.543h15.557v1.543h-9.2285c-0.43619,0.54687 -0.89519,1.02537 -1.377,1.4355zM327.8396,185.5549v1.5332h8.2031v-1.5332z" fill="#ffffff" stroke-width="1"/><path d="M350.23,178.41v7.7344c0,0.5013 0.21485,0.80403 0.64454,0.9082c0.44271,0.11068 1.45507,0.16602 3.0371,0.16602c1.54293,0 2.5618,-0.07813 3.0566,-0.23438c0.27995,-0.09115 0.46224,-0.34505 0.54687,-0.76172c0.11068,-0.58593 0.16927,-1.2793 0.17578,-2.0801l2.041,0.57618c-0.10417,1.9206 -0.36784,3.1478 -0.79102,3.6816c-0.27995,0.35156 -0.70311,0.55989 -1.2695,0.625c-0.89193,0.09765 -2.4056,0.14648 -4.541,0.14648c-1.65367,0 -2.73767,-0.04557 -3.252,-0.13672c-0.77473,-0.13021 -1.26627,-0.47201 -1.4746,-1.0254c-0.10417,-0.29297 -0.15625,-0.6836 -0.15625,-1.1719v-7.7441l-1.8652,0.64453l-0.45899,-1.8945l2.3242,-0.80078v-5.2637h1.9824v4.5801l2.0996,-0.71289v-5.1465h1.9629v4.4629l3.2715,-1.123l1.0254,0.625v7.3144c0,0.50781 -0.12044,0.88541 -0.36133,1.1328c-0.27343,0.27343 -0.73243,0.41015 -1.377,0.41015c-0.52735,0 -1.08725,-0.04557 -1.6797,-0.13672l-0.32226,-1.8652c0.38411,0.09765 0.77475,0.14648 1.1719,0.14648c0.28646,0 0.46224,-0.05859 0.52734,-0.17578c0.06513,-0.09765 0.0977,-0.26041 0.0977,-0.48828v-4.6191l-2.3535,0.82031v7.9004h-1.9629v-7.2266zM343.0523,175.2166v-4.7168h2.0996v4.7168h1.8945v1.9824h-1.8945v6.2109c0.6836,-0.23437 1.36067,-0.47851 2.0312,-0.73242l0.18555,1.8848c-2.1094,0.96353 -4.2741,1.77083 -6.4941,2.4219l-0.6836,-2.0801c1.0026,-0.26041 1.8815,-0.50781 2.6367,-0.74218c0.09115,-0.03253 0.16602,-0.05533 0.22461,-0.0684v-6.8945h-2.4805v-1.9824z" fill="#ffffff" stroke-width="1"/><path d="M369.48,175.76c-0.0456,1.08727 -0.1107,2.0443 -0.19531,2.8711h7.8711c-0.09765,4.51827 -0.35156,7.4512 -0.76172,8.7988c-0.20833,0.67707 -0.5957,1.1458 -1.1621,1.4062c-0.44271,0.20182 -1.09051,0.30273 -1.9434,0.30273c-0.89847,0 -1.91733,-0.06836 -3.0566,-0.20507l-0.38085,-2.1973c1.52993,0.21485 2.6074,0.32227 3.2324,0.32227c0.52734,0 0.86264,-0.14974 1.0059,-0.44922c0.34505,-0.7292 0.58593,-2.74093 0.72265,-6.0352h-5.8105c-0.21485,1.17187 -0.51758,2.1875 -0.90821,3.0469c-1.08727,2.37627 -2.90367,4.26103 -5.4492,5.6543l-1.543,-1.7188c2.55207,-1.32813 4.23827,-3.06967 5.0586,-5.2246c0.54687,-1.4388 0.90167,-3.62957 1.0644,-6.5723h-6.4648v-2.002h7.9785v-3.2617h2.2559v3.2617h8.2422v2.002z" fill="#ffffff" stroke-width="1"/></g></g></svg>