<svg version="1.1" xmlns="http://www.w3.org/2000/svg" xmlns:xlink="http://www.w3.org/1999/xlink" width="71.53715" height="52.5879" viewBox="0,0,71.53715,52.5879"><g transform="translate(-19.2038,-266.96294)"><g data-paper-data="{&quot;isPaintingLayer&quot;:true}" fill="#ff0000" fill-rule="evenodd" stroke="none" stroke-width="0" stroke-linecap="round" stroke-linejoin="round" stroke-miterlimit="10" stroke-dasharray="" stroke-dashoffset="0" style="mix-blend-mode: normal"><path d="M44.64278,318.21091l-1.34995,-0.1l-0.36999,0.68997l-3.14987,0.23999l-1.97992,-1.75993l-1.63993,0.60998l-1.44994,-1.59994l0.07,-0.62997l-0.96996,-1.56994l-0.81997,-0.33999l0.18999,-1.51994l-1.64993,-0.25999l-0.11,-1.34995l-0.46998,-0.89996l1.37994,-0.58998l0.64997,-0.77997l1.36995,-0.84997l-1.28995,-1.03996l0.39998,-0.46998l-0.62997,-1.10996l0.64997,-0.61998l-0.07,-0.95996l-1.09996,-0.49998l-1.51994,0.28999l-2.22991,-1.21995l-2.63989,0.14999l-3.35987,0.71997l-0.96996,-0.63997l0.68997,-0.74997l0.28999,-1.11996l-0.13999,-1.19995l0.33999,-1.06996l-1.22995,-2.82989l0.28999,-1.08996l-0.02,-1.88992l-0.34999,-0.95996l-0.93996,-0.63997l0.07,-1.08996l-1.32995,-1.22995l0.35999,-1.32995l-0.40998,-0.96996l0.69997,-0.79997l0.96996,0.09l2.89988,-1.40994l0.68997,0.23999l0.99996,-1.32995l1.50994,0.27999l1.46994,-0.56998l0.99996,-0.97996l1.28995,-0.45998l1.65993,0.44998l0.80997,-0.51998l0.43998,-0.91996l1.32995,-0.93996l1.56994,0.54998l1.55994,-0.98996l1.71993,-0.30999l-0.75997,-1.95992l1.75993,-0.89996l1.30995,-0.26999l2.4199,0.29999l0.40998,1.00996l0.80997,-0.74997l0.50998,-1.55994l1.04996,-0.02l1.23995,-1.00996l1.41994,1.13995l1.19995,-0.88996l1.27995,-0.12999l1.79993,-1.06996l0.56998,0.18999l1.18995,-0.55998l-0.02,-0.70997l2.35991,-0.53998l4.35983,0.43998l0.88996,-1.65993l0.50998,0.13999l1.80993,-0.57998l1.00996,0.89996l0.83997,-0.12999l1.38994,0.41998l0.52998,0.52998l1.49994,-0.72997l1.35995,-0.14999l0.85997,2.20991l2.30991,-0.62997l1.36995,-0.13999l0.34999,-1.54994l0.98996,-0.61998l0.98996,0.59998l0.92996,-2.23991l0.75997,-0.42998l1.27995,2.4999l2.11992,0.93996l0.98996,0.66997l0.95996,3.10988l-0.59998,0.94996l-0.36999,1.74993l-0.73997,0.29999l-0.43998,1.06996l-2.78989,2.3799l-2.04992,0.43998l0.27999,1.14995l0.76997,1.08996l-0.33999,0.85997l4.74981,-1.03996l0.21999,0.40998l1.52994,-0.27999l0.05,0.98996l-1.05996,0.04l-1.82993,0.91996l0.04,0.45998l1.83993,-0.33999l0.25999,-0.33999l2.03992,0.46998l0.90996,-0.75997l1.16995,-0.42998l0.61998,1.18995l-1.92992,1.04996l-3.34987,1.32995l-0.63997,0.83997l-1.92992,0.41998l-2.15991,1.55994l-1.23995,0.29999l-1.54994,-0.01l-1.08996,0.80997l-0.39998,0.84997l-2.4899,0.32999l0.11,0.81997l-1.15995,0.18999l0.49998,1.00996l-0.62997,1.19995l-0.28999,1.31995l-0.94996,-1.07996l-1.46994,0.98996l0.19999,1.49994l-1.54994,1.35995l-2.32991,1.20995l-1.80993,1.38994l-2.10992,0.92996l-0.50998,0.51998l-3.08988,1.41994l-1.06996,-0.17999l-0.13999,1.07996l-1.29995,-0.41998l-1.53994,1.14995l-0.41998,1.05996l-1.42994,0.80997l-0.58998,1.24995l2.34991,-0.02l-0.51998,1.21995l-1.13995,0.55998l-0.98996,1.61994l0.28999,0.73997l-1.02996,0.77997l0.1,0.59998l-1.63993,0.04l-0.93996,-0.47998l-1.15995,0.04l-0.89996,1.18995l-0.01,0.97996l0.71997,1.17995l-1.01996,0.62997l-0.19999,-0.62997l-1.64993,-0.70997"/><path d="M66.04193,309.01127l-1.10996,0.52998l-0.62997,-0.95996l0.19999,-0.62997l1.53994,1.05996"/><path d="M81.34131,282.81232l-0.86997,-0.60998l1.08996,-1.04996l0.47998,0.51998l-0.69997,1.13995"/></g></g></svg>