<svg version="1.1" xmlns="http://www.w3.org/2000/svg" xmlns:xlink="http://www.w3.org/1999/xlink" width="70" height="40" viewBox="0,0,70,40"><g transform="translate(-145,-340)"><g data-paper-data="{&quot;isPaintingLayer&quot;:true}" stroke="none" stroke-miterlimit="10" stroke-dasharray="" stroke-dashoffset="0" style="mix-blend-mode: normal"><path d="M145,380v-40h70v40z" fill-opacity="0.00392" fill="#282c33" fill-rule="evenodd" stroke-width="0.25" stroke-linecap="square" stroke-linejoin="round"/><path d="M164,376v-32h32v32z" fill-opacity="0" fill="#000000" fill-rule="nonzero" stroke-width="1" stroke-linecap="butt" stroke-linejoin="miter"/><path d="M187.32,356.016c0.152,0.112 0.192,0.312 0.096,0.488l-1.536,2.656c-0.096,0.176 -0.296,0.24 -0.472,0.176l-1.912,-0.768c-0.392,0.304 -0.824,0.56 -1.296,0.752l-0.288,2.032c-0.024,0.192 -0.184,0.328 -0.376,0.328h-3.072c-0.192,0 -0.344,-0.136 -0.384,-0.328l-0.288,-2.032c-0.472,-0.192 -0.896,-0.448 -1.296,-0.752l-1.912,0.768c-0.176,0.056 -0.376,0 -0.472,-0.176l-1.536,-2.656c-0.088,-0.16 -0.048,-0.376 0.096,-0.488l1.624,-1.264c-0.04,-0.24 -0.056,-0.504 -0.056,-0.752c0,-0.248 0.032,-0.512 0.072,-0.752l-1.624,-1.264c-0.16,-0.112 -0.192,-0.32 -0.096,-0.488l1.528,-2.656c0.096,-0.176 0.296,-0.24 0.472,-0.176l1.912,0.768c0.392,-0.296 0.824,-0.56 1.296,-0.752l0.288,-2.032c0.032,-0.192 0.184,-0.328 0.376,-0.328h3.072c0.192,0 0.352,0.136 0.384,0.328l0.288,2.032c0.472,0.192 0.896,0.448 1.296,0.752l1.912,-0.768c0.176,-0.056 0.376,0 0.472,0.176l1.536,2.656c0.088,0.16 0.048,0.376 -0.096,0.488l-1.624,1.264c0.04,0.24 0.056,0.496 0.056,0.752c0,0.264 -0.016,0.512 -0.048,0.752zM182.88,354c0,-1.584 -1.296,-2.88 -2.88,-2.88c-1.584,0 -2.88,1.296 -2.88,2.88c0,1.584 1.296,2.88 2.88,2.88c1.584,0 2.88,-1.296 2.88,-2.88z" fill="#ffffff" fill-rule="nonzero" stroke-width="1" stroke-linecap="butt" stroke-linejoin="miter"/><g fill="#ffffff" fill-rule="nonzero" stroke-width="1" stroke-linecap="butt" stroke-linejoin="miter"><path d="M174.663,371.829v2.5752h-2.3027v0.45264h-0.87451v-3.0278zM172.3603,372.58486v1.0723h1.4194v-1.0723zM175.4628,366.62146h2.8169v2.1401c0,0.09668 0.01465,0.15674 0.04395,0.18018c0.03809,0.0293 0.104,0.04395 0.19775,0.04395c0.12891,0 0.2124,-0.01758 0.25049,-0.05273c0.0293,-0.02344 0.04981,-0.10108 0.06152,-0.23291c0.0293,-0.33691 0.04541,-0.59766 0.04834,-0.78223l0.82178,0.25928c-0.00293,0.33691 -0.02491,0.65771 -0.06592,0.9624c-0.04395,0.35742 -0.23584,0.56982 -0.57568,0.63721c-0.14355,0.0293 -0.35889,0.04395 -0.646,0.04395c-0.40723,0 -0.68115,-0.05127 -0.82178,-0.15381c-0.12012,-0.08789 -0.18018,-0.24903 -0.18018,-0.4834v-1.7622h-1.0986v0.09229c0,0.59473 -0.06445,1.08693 -0.19336,1.4766c-0.14649,0.42773 -0.40283,0.78953 -0.76904,1.0854l-0.63721,-0.63721c0.36914,-0.25781 0.59766,-0.62988 0.68555,-1.1162c0.04101,-0.23145 0.06152,-0.51416 0.06152,-0.84814zM177.8534,372.91446c0.55957,0.40429 1.21144,0.74999 1.9556,1.0371l-0.52295,0.87451c-0.89353,-0.41895 -1.5996,-0.84081 -2.1182,-1.2656c-0.65625,0.55078 -1.31542,0.98145 -1.9775,1.292l-0.50977,-0.78223c0.6416,-0.21973 1.2671,-0.58009 1.8765,-1.0811c-0.54785,-0.58594 -0.96385,-1.20997 -1.248,-1.8721h-0.43945v-0.80859h3.9419l0.47461,0.43066c-0.39844,0.8584 -0.87597,1.5835 -1.4326,2.1753zM177.20301,372.37833c0.41015,-0.46582 0.6914,-0.88622 0.84375,-1.2612h-1.8369c0.24023,0.43653 0.55517,0.84083 0.94482,1.2129zM171.67471,366.63033h2.7905v0.73828h-2.7905zM171.16934,367.91793h3.6914v0.79102h-3.6914zM171.67471,369.26703h2.7905v0.72949h-2.7905zM171.67471,370.55463h2.7905v0.71192h-2.7905z"/><path d="M184.902,373.578c0.49512,0.08203 1.03565,0.12305 1.6216,0.12305h2.2808c-0.14649,0.29297 -0.25489,0.60205 -0.3252,0.92725h-1.9644c-1.18947,0 -2.12843,-0.14209 -2.8169,-0.42627c-0.668,-0.27539 -1.21877,-0.72949 -1.6523,-1.3623c-0.3457,0.82327 -0.7705,1.5059 -1.2744,2.0479l-0.68115,-0.81738c0.8262,-0.89353 1.34183,-2.05077 1.5469,-3.4717l0.99756,0.15381c-0.09375,0.46289 -0.18457,0.84816 -0.27246,1.1558c0.35449,0.62988 0.87743,1.09571 1.5688,1.3975v-3.4014h-2.439v-0.58447h-0.95361v-2.0347h3.3662v-0.97998h0.97998v0.97998h3.4409v2.0347h-0.95361v0.58447h-2.4697v1.3447h3.0103v0.81738h-3.0103zM181.5006,368.1112v0.95801h5.8535v-0.95801z"/></g></g></g></svg>