<svg version="1.1" xmlns="http://www.w3.org/2000/svg" xmlns:xlink="http://www.w3.org/1999/xlink" width="70" height="70" viewBox="0,0,70,70"><g transform="translate(-205,-145)"><g data-paper-data="{&quot;isPaintingLayer&quot;:true}" stroke="none" stroke-width="1" stroke-miterlimit="10" stroke-dasharray="" stroke-dashoffset="0" style="mix-blend-mode: normal"><path d="M210,180c0,-16.56854 13.43146,-30 30,-30c16.56854,0 30,13.43146 30,30c0,16.56854 -13.43146,30 -30,30c-16.56854,0 -30,-13.43146 -30,-30z" fill-opacity="0.5" fill="#3ab4e8" fill-rule="evenodd" stroke-linecap="round" stroke-linejoin="round"/><path d="M275,180c0,19.33 -15.67,35 -35,35c-19.33,0 -35,-15.67 -35,-35c0,-19.33 15.67,-35 35,-35c19.33,0 35,15.67 35,35zM217,180c0,12.703 10.297,23 23,23c12.703,0 23,-10.297 23,-23c0,-12.703 -10.297,-23 -23,-23c-12.703,0 -23,10.297 -23,23z" fill="#ffffff" fill-rule="nonzero" stroke-linecap="butt" stroke-linejoin="miter"/></g></g></svg>