<svg version="1.1" xmlns="http://www.w3.org/2000/svg" xmlns:xlink="http://www.w3.org/1999/xlink" width="208" height="32" viewBox="0,0,208,32"><g transform="translate(-240,-164)"><g data-paper-data="{&quot;isPaintingLayer&quot;:true}" fill-rule="nonzero" stroke="none" stroke-linecap="butt" stroke-linejoin="miter" stroke-miterlimit="10" stroke-dasharray="" stroke-dashoffset="0" style="mix-blend-mode: normal"><path d="M240,196v-32h208v32z" fill="none" stroke-width="0"/><path d="M248.84,174.08v-3.584h2.1973v3.584h7.2461v10.332h-2.1582v-1.3574h-5.0879v6.4453h-2.1973v-6.4453h-4.9609v1.4648h-2.1582v-10.439zM243.8791,176.082v4.9707h4.9609v-4.9707zM256.1251,181.0527v-4.9707h-5.0879v4.9707z" fill="#ffffff" stroke-width="1"/><path d="M273.2,183.15c1.6146,1.4388 3.78907,2.6009 6.5234,3.4863l-1.2598,1.8359c-1.57553,-0.55989 -2.94923,-1.23696 -4.1211,-2.0312c-1.21093,-0.8268 -2.32747,-1.84243 -3.3496,-3.0469v6.1035h-2.1191v-5.9961c-0.90493,1.26953 -2.07357,2.40887 -3.5059,3.418c-1.10027,0.77473 -2.27867,1.39973 -3.5352,1.875l-1.3379,-1.7188c2.0638,-0.6836 3.7858,-1.60483 5.166,-2.7637c0.39063,-0.32553 0.78776,-0.71289 1.1914,-1.1621h-4.6973v-7.998h6.7188v-1.3184h-8.0957v-1.7578h8.0957v-1.582h2.1191v1.582h8.2227v1.7578h-8.2227v1.3184h6.8457v7.998zM268.8738,176.7926h-4.5996v1.582h4.5996zM270.9929,176.7926v1.582h4.7266v-1.582zM268.8738,179.8981h-4.5996v1.6113h4.5996zM270.9929,179.8981v1.6113h4.7266v-1.6113z" fill="#ffffff" stroke-width="1"/></g></g></svg>