<svg version="1.1" xmlns="http://www.w3.org/2000/svg" xmlns:xlink="http://www.w3.org/1999/xlink" width="66.31736" height="86.68655" viewBox="0,0,66.31736,86.68655"><g transform="translate(-249.22113,25.93442)"><g data-paper-data="{&quot;isPaintingLayer&quot;:true}" fill="#ff0000" fill-rule="evenodd" stroke="none" stroke-width="0" stroke-linecap="round" stroke-linejoin="round" stroke-miterlimit="10" stroke-dasharray="" stroke-dashoffset="0" style="mix-blend-mode: normal"><path d="M264.62052,51.2425l0.24999,1.83993l-1.16995,0.05l-0.71997,-0.76997l-0.95996,1.31995l-1.25995,0.02l-1.36995,-1.15995l-3.33987,0.68997l-1.45994,-0.42998l-0.98996,-1.95992l-0.20999,-3.22987l-0.95996,-0.29999l-1.96992,-2.68989l-0.06,-2.11992l1.40994,-0.20999l0.20999,-1.05996l-1.22995,-0.28999l-0.80997,-1.56994l0.01,-1.06996l-0.76997,-2.4699l0.85997,-1.44994l2.16991,3.27987l1.07996,-0.28999l0.63997,0.62997l2.4999,0.53998l1.72993,1.00996l0.29999,0.81997l1.16995,0.52998l1.17995,-0.12999l2.18991,-0.89996l1.36995,-0.80997l2.75989,-2.32991l2.90988,-3.53986l2.19991,-3.28987l2.5199,-4.9198l1.11996,-2.69989l1.57994,-4.35983l1.61994,-5.62977l-0.81997,-1.01996l0.43998,-2.17991l0.65997,0.12l0.57998,-2.73989l0.40998,-0.55998l1.06996,-5.23979l0.84997,-6.53974l0.19999,-3.18987l-0.30999,-2.4799l-0.82997,-0.78997l-0.12999,-1.05996l-3.31987,-2.11992l-0.17999,-1.36995l-3.03988,-1.97992l-0.37998,-1.21995l-0.78997,-0.72997l2.34991,-0.86997l1.36995,1.07996l2.74989,-0.82997l1.02996,0.90996l1.02996,-0.45998l0.36999,-1.32995l-0.50998,-0.90996l0.46998,-0.85997l1.34995,-1.00996l0.89996,0.01l1.17995,-0.85997l1.92992,0.04l2.09992,1.83993l-0.03,1.17995l0.83997,1.05996l3.95984,-0.29999l3.31987,-0.38998l1.65993,0.85997l1.30995,-0.49998l1.00996,0.94996l2.22991,-0.79997l0.89996,-0.60998l1.53994,0.14999l1.23995,-0.69997l1.95992,-0.02l1.05996,1.26995l2.5699,-0.36999l-0.24999,2.5899l0.37998,1.03996l-0.32999,1.11996l0.12,2.28991l0.38998,0.95996l1.19995,0.66997l0.60998,0.88996l-0.54998,2.21991l-1.53994,2.34991l-0.20999,2.03992l-0.79997,0.59998l-0.25999,1.26995l0.45998,1.62993l-0.35999,1.92992l-1.26995,1.34995l-0.12,1.21995l-2.22991,0.20999l-1.40994,2.29991l0.93996,1.49994l-0.42998,1.27995l1.33995,1.10996l0.28999,1.08996l-2.13991,0.21999l-0.76997,1.67993l-1.08996,0.08l-0.18999,1.83993l0.34999,2.17991l-0.84997,2.27991l-0.03,2.25991l-0.47998,0.72997l0.71997,1.64993l-0.32999,1.37994l0.77997,0.32999l-0.43998,2.96988l-0.97996,0.38998l0.19999,1.13995l-0.56998,0.54998l0.82997,2.36991l-0.11,1.59994l-0.82997,1.09996l-0.12999,2.19991l1.60994,1.06996l0.22999,1.75993l-0.50998,1.29995l1.36995,1.35995l0.44998,1.55994l0.83997,0.75997l1.81993,0.58998l0.31999,0.98996l-0.27999,1.02996l0.50998,1.68993l-0.11,1.38994l0.53998,1.33995l-0.38998,1.57994l0.66997,0.67997l0.14999,1.72993l-0.99996,1.87992l-1.46994,-0.25999l-0.79997,0.98996l-1.48994,-0.33999l-0.81997,0.30999l-1.68993,-1.81993l-1.10996,-2.5299l-1.45994,-0.52998l-0.76997,0.14999l-0.13999,1.08996l-1.26995,0.93996l-1.96992,0.46998l-1.12995,-0.62997l-0.80997,0.62997l-1.42994,-0.02l-1.53994,-0.75997l-0.94996,1.09996l-0.92996,0.14999l-1.77993,-0.44998l-0.83997,-1.68993l-0.62997,0.92996l-0.98996,-0.14999l-0.75997,0.90996l0.61998,2.05992l0.08,2.82989l-2.16991,0.32999l-1.46994,-3.39986l-1.50994,-2.4399l-2.4699,-2.88988l-2.90988,-2.3799l-2.5499,-1.26995l-2.73989,-0.35999l-3.87984,0.86997l0.49998,0.66997l-1.64993,1.68993M274.79011,42.89284l1.02996,4.66981l1.25995,-1.94992l4.54982,1.39994l-0.03,0.67997l2.14991,3.40986l0.57998,0.06l1.14995,-5.44978l-1.22995,-2.02992l-0.69997,-0.24999l-2.15991,1.18995l-6.19975,-1.68993l-0.39998,-0.04"/></g></g></svg>