<svg version="1.1" xmlns="http://www.w3.org/2000/svg" xmlns:xlink="http://www.w3.org/1999/xlink" width="208" height="32" viewBox="0,0,208,32"><g transform="translate(-240,-164)"><g data-paper-data="{&quot;isPaintingLayer&quot;:true}" fill-rule="nonzero" stroke="none" stroke-linecap="butt" stroke-linejoin="miter" stroke-miterlimit="10" stroke-dasharray="" stroke-dashoffset="0" style="mix-blend-mode: normal"><path d="M240,196v-32h208v32z" fill="none" stroke-width="0"/><path d="M240.76,172.5h15.303l1.2598,1.0644c-0.36459,1.36067 -0.83985,2.49673 -1.4258,3.4082c-1.10027,1.72527 -2.7474,3.01433 -4.9414,3.8672l-1.2305,-1.6797c1.51693,-0.45573 2.7767,-1.2728 3.7793,-2.4512c0.59245,-0.6966 1.00585,-1.43227 1.2402,-2.207h-13.984zM247.0198,176.7188h2.2363v1.6797c0,2.51953 -0.27995,4.46613 -0.83984,5.8398c-0.7096,1.7448 -2.0898,3.16407 -4.1406,4.2578l-1.6113,-1.6992c1.41273,-0.67053 2.44463,-1.4713 3.0957,-2.4023c0.5013,-0.72267 0.83008,-1.48763 0.98633,-2.2949c0.18229,-0.92447 0.27343,-2.1647 0.27343,-3.7207z" fill="#ffffff" stroke-width="1"/><path d="M260.4,171.32h2.2754v10.684h-2.2754zM270.429,171.11492h2.2754v6.9824c0,2.4544 -0.19857,4.28057 -0.59571,5.4785c-0.33203,1.02213 -0.78449,1.83593 -1.3574,2.4414c-1.1914,1.28253 -3.10547,2.2298 -5.7422,2.8418l-1.123,-2.002c2.88413,-0.58594 4.7331,-1.55924 5.5469,-2.9199c0.51433,-0.86587 0.82357,-1.9596 0.92774,-3.2812c0.0456,-0.61198 0.0684,-1.45835 0.0684,-2.5391z" fill="#ffffff" stroke-width="1"/><path d="M278.26,175.69h9.8242c-0.15625,2.88413 -0.4655,6.14587 -0.92774,9.7852l-0.0879,0.68359h3.6914v1.8555h-14.355v-1.8555h8.5644c0.50131,-3.50913 0.80079,-6.38023 0.89844,-8.6133h-7.6074z" fill="#ffffff" stroke-width="1"/><path d="M293.18,178.55h17.197v2.1973h-17.197z" fill="#ffffff" stroke-width="1"/><path d="M319.99,175.67c-1.9206,-0.8594 -3.88023,-1.5788 -5.8789,-2.1582l0.63476,-1.9336c2.2526,0.55989 4.2285,1.24349 5.9277,2.0508zM317.988,180.67c-1.60153,-0.70313 -3.56117,-1.42253 -5.8789,-2.1582l0.83985,-1.9531c1.9922,0.52735 3.9258,1.22721 5.8008,2.0996zM313.3689,186.0509c2.66273,-0.22135 4.74933,-0.62499 6.2598,-1.2109c2.23307,-0.85287 3.98763,-2.3763 5.2637,-4.5703c0.85287,-1.46487 1.5267,-3.31707 2.0215,-5.5566l1.9727,1.1426c-0.63151,2.806 -1.51368,5.04233 -2.6465,6.709c-1.32813,1.9466 -3.18033,3.3854 -5.5566,4.3164c-1.6732,0.64453 -3.903,1.09699 -6.6894,1.3574z" fill="#ffffff" stroke-width="1"/><path d="M336.08,174.14l0.60547,3.3203l7.1973,-1.1621l1.2402,0.91797c-0.7422,3.0664 -2.04427,5.4655 -3.9062,7.1973l-1.5918,-1.2793c0.83333,-0.67707 1.53647,-1.49087 2.1094,-2.4414c0.45573,-0.74867 0.77148,-1.4941 0.94727,-2.2363l-5.6641,0.9375l1.6211,9.1211l-2.002,0.36133l-1.6602,-9.1602l-4.0723,0.68359l-0.2832,-1.9824l4.0039,-0.64453l-0.60547,-3.291z" fill="#ffffff" stroke-width="1"/><path d="M354.74,176.36c-2.05727,-0.918 -4.19593,-1.65367 -6.416,-2.207l0.6836,-2.0996c2.5716,0.58594 4.7298,1.31511 6.4746,2.1875zM348.5681,186.0768c3.22267,-0.27344 5.69013,-0.84961 7.4024,-1.7285c2.0182,-1.04167 3.56767,-2.63997 4.6484,-4.7949c0.70313,-1.3932 1.2728,-3.21613 1.709,-5.4688l1.875,1.377c-0.52735,2.40887 -1.16538,4.32293 -1.9141,5.7422c-1.35413,2.58467 -3.42443,4.4564 -6.2109,5.6152c-1.7578,0.7292 -4.10807,1.25003 -7.0508,1.5625z" fill="#ffffff" stroke-width="1"/><path d="M371.45,183.19c-0.87893,-0.86587 -1.78387,-1.6276 -2.7148,-2.2852c-0.49479,0.8138 -1.08726,1.62433 -1.7774,2.4316l-1.3184,-1.6602c1.9466,-2.35027 3.24217,-5.10417 3.8867,-8.2617h-3.3105v-1.9629h10.068v1.9629h-4.6973c-0.17578,0.86587 -0.37109,1.6406 -0.58594,2.3242h3.6426l1.0156,0.82031c-0.44271,3.112 -1.24675,5.7064 -2.4121,7.7832c-1.15887,2.0638 -2.89713,3.76303 -5.2148,5.0977l-1.4355,-1.6602c2.0768,-1.11327 3.69463,-2.6432 4.8535,-4.5898zM372.36797,181.2564c0.44271,-1.11327 0.78777,-2.3535 1.0352,-3.7207h-3.0176c-0.24089,0.625 -0.49805,1.2142 -0.77149,1.7676c0.96353,0.55989 1.8815,1.21093 2.7539,1.9531zM377.22147,173.2095h2.1191v11.562h-2.1191zM381.59647,171.2368h2.1582v15.918c0,0.6966 -0.14323,1.2044 -0.42969,1.5234c-0.33854,0.37109 -0.98307,0.55664 -1.9336,0.55664c-0.59245,0 -1.50391,-0.0293 -2.7344,-0.0879l-0.57617,-0.0293l-0.41992,-2.1387c1.31513,0.14323 2.3861,0.21485 3.2129,0.21485c0.36459,0 0.58269,-0.09115 0.6543,-0.27344c0.0456,-0.11068 0.0684,-0.26693 0.0684,-0.46875z" fill="#ffffff" stroke-width="1"/><path d="M392.94,171.98c0.24089,-0.57943 0.4362,-1.13283 0.58594,-1.6602l2.3828,0.32226c-0.22786,0.54037 -0.43619,0.98633 -0.625,1.3379h6.5039v6.3672h-11.797v0.98633h14.697v1.582h-14.697v0.99609h14.014c-0.08464,2.9818 -0.27344,4.99353 -0.56641,6.0352c-0.1888,0.66406 -0.5436,1.10353 -1.0644,1.3184c-0.37109,0.15625 -0.93749,0.23437 -1.6992,0.23437c-0.78127,0 -1.51043,-0.04883 -2.1875,-0.14648l-0.39063,-1.6406h-9.7852v1.084h-2.0996v-4.6973h2.0996v2.0117h3.3594v-2.6367h-3.8379v-11.494zM397.0904,186.111v-2.0117h2.0215v3.3984c0.54036,0.05207 0.98956,0.0781 1.3476,0.0781c0.44271,0 0.71941,-0.12695 0.83008,-0.38085c0.21485,-0.47527 0.38412,-1.7155 0.50781,-3.7207h-8.0273v2.6367zM389.9908,173.484v0.96679h9.6387v-0.96679zM389.9908,175.8473v1.0644h9.6387v-1.0644z" fill="#ffffff" stroke-width="1"/></g></g></svg>