<svg version="1.1" xmlns="http://www.w3.org/2000/svg" xmlns:xlink="http://www.w3.org/1999/xlink" width="208" height="32" viewBox="0,0,208,32"><g transform="translate(-240,-164)"><g data-paper-data="{&quot;isPaintingLayer&quot;:true}" fill-rule="nonzero" stroke="none" stroke-linecap="butt" stroke-linejoin="miter" stroke-miterlimit="10" stroke-dasharray="" stroke-dashoffset="0" style="mix-blend-mode: normal"><path d="M240,196v-32h208v32z" fill="none" stroke-width="0"/><path d="M253.45,174.61c1.46487,1.34767 3.56123,2.50327 6.2891,3.4668l-1.0547,1.8164c-1.37373,-0.56641 -2.54237,-1.13934 -3.5059,-1.7188v1.1621h-10.117v-1.0156c-0.8984,0.59245 -2.13213,1.26301 -3.7012,2.0117l-1.2402,-1.6602c2.1484,-0.86587 3.83787,-1.80337 5.0684,-2.8125c0.42317,-0.34505 0.85937,-0.76171 1.3086,-1.25h-5.4199v-1.8359h6.7578c0.37109,-0.63802 0.71289,-1.41275 1.0254,-2.3242l2.1582,0.30273c-0.28645,0.73567 -0.57942,1.4095 -0.8789,2.0215h8.7598v1.8359zM250.9109,174.61h-1.875c-0.78127,1.11327 -1.77737,2.1224 -2.9883,3.0274h8.2812c-1.33467,-0.918 -2.474,-1.92713 -3.418,-3.0274zM251.282,183.0377v4.8242c0,0.53385 -0.10091,0.92772 -0.30274,1.1816c-0.26041,0.33203 -0.84308,0.49805 -1.748,0.49805c-1.1198,0 -2.07683,-0.04232 -2.8711,-0.12696l-0.38086,-2.0117c0.80727,0.13021 1.64387,0.19532 2.5098,0.19532c0.28646,0 0.46224,-0.04557 0.52734,-0.13672c0.0586,-0.07813 0.0879,-0.23112 0.0879,-0.45899v-3.9648h-7.6758v-1.8359h17.178v1.8359zM240.462,187.276c1.49087,-0.93747 2.71157,-2.22327 3.6621,-3.8574l1.8555,0.9375c-1.00913,1.89453 -2.32097,3.3952 -3.9355,4.502zM257.737,188.4967c-1.25653,-1.58853 -2.55537,-2.95573 -3.8965,-4.1016l1.6992,-1.2012c1.4518,1.1068 2.74413,2.37633 3.877,3.8086z" fill="#ffffff" stroke-width="1"/><path d="M274.48,185.34c1.28253,0.84633 3.03057,1.56247 5.2441,2.1484l-1.3379,1.8848c-1.64713,-0.52735 -2.96223,-1.06445 -3.9453,-1.6113c-2.6758,-1.4844 -4.4792,-3.58727 -5.4102,-6.3086h-3.7109v5.2051c1.98567,-0.41016 3.8444,-0.85286 5.5762,-1.3281l0.14648,1.7871c-3.05987,1.0156 -6.26623,1.78707 -9.6191,2.3144l-0.78125,-1.9824c0.55339,-0.07161 1.36719,-0.19531 2.4414,-0.37109v-14.502h5.7031v-2.0801h2.2559v2.0801h5.7617v8.5742l1.6992,1.5234c-1.3216,1.03513 -2.66273,1.9238 -4.0234,2.666zM272.9761,184.1095c1.3216,-0.8594 2.48047,-1.7448 3.4766,-2.6562h-5.2246c0.41667,0.9896 0.99933,1.875 1.748,2.6562zM274.5679,179.7931v-1.9336h-9.248v1.9336zM274.5679,176.2189v-1.9043h-9.248v1.9043z" fill="#ffffff" stroke-width="1"/><path d="M296.76,170.98v9.4629h-11.621v-9.4629zM287.2385,172.523v1.2207h7.4023v-1.2207zM287.2385,175.1207v1.2207h7.4023v-1.2207zM287.2385,177.7183v1.2598h7.4023v-1.2598zM283.3029,181.7417h16.191v1.6992h-8.0762v6.0644h-2.2168v-6.0644h-8.0371v-10.957h2.1387zM280.8029,187.6401c1.54947,-0.71613 3.0306,-1.9173 4.4434,-3.6035l1.7969,1.0449c-1.3932,1.76433 -2.93943,3.15107 -4.6387,4.1602zM297.6389,188.8999c-0.99607,-1.22393 -2.49347,-2.50973 -4.4922,-3.8574l1.6797,-1.1816c1.569,0.90493 3.1087,2.09307 4.6191,3.5644z" fill="#ffffff" stroke-width="1"/></g></g></svg>