<svg version="1.1" xmlns="http://www.w3.org/2000/svg" xmlns:xlink="http://www.w3.org/1999/xlink" width="82.08674" height="79.88677" viewBox="0,0,82.08674,79.88677"><g transform="translate(-20.61202,-227.25928)"><g data-paper-data="{&quot;isPaintingLayer&quot;:true}" fill="#ff0000" fill-rule="evenodd" stroke="none" stroke-width="0" stroke-linecap="round" stroke-linejoin="round" stroke-miterlimit="10" stroke-dasharray="" stroke-dashoffset="0" style="mix-blend-mode: normal"><path d="M98.00893,227.88923l0.39999,0.97996l1.84992,1.14996l-0.13999,1.60994l-0.70997,0.33999l-0.52998,1.41994l0.98996,3.04987l1.28995,0.81997l0.55998,1.47994l-0.70997,0.91996l-1.47994,2.87988l0.67998,0.67998l0.83997,2.79989l1.40994,0.45998l0.23999,0.76997l-1.55994,1.65993l-1.54994,-0.08999l-1.29995,0.61998l-1.15995,1.55994l-0.27999,2.21991l-0.90996,2.06991l0.13999,1.68993l-0.51998,1.12995l0.33998,1.05996l-2.19991,1.11996l-1.08995,2.3899l0.81996,1.54994l-0.29999,1.71993l-1.43994,1.03996l-0.36999,-0.82997l-1.51994,-0.45998l-1.26995,0.30999l-3.04988,-0.32999l-0.71997,-1.24995l-2.07992,0.14999l-0.54997,1.12995l-1.03996,-0.01l-0.55998,0.90996l-0.40998,1.97992l-1.12995,0.25999l0.13999,1.41994l-0.69997,0.43999l0.46998,2.25991l-0.77997,1.03995l0.80996,1.08996l-0.76997,0.91996l0.29999,1.67994l-1.45994,0.98996l-3.12988,-0.33999l-1.51994,1.89992l0.91996,1.07996l0.17999,1.14995l-1.70993,1.30995l-0.71997,-0.14l-0.51998,1.62994l-1.01996,1.22995l-2.05992,1.33995h-2.56989l-0.73997,1.22995l-1.35994,0.99996l-0.22999,0.83997l-1.46994,-0.01l-1.51994,-0.53998l-2.44991,0.48998l0.58998,1.71994l-0.50997,1.29994l-1.11996,0.13999l-1.58994,2.5499l0.37998,2.4299l-1.35994,3.73985l-2.06991,1.93993l-0.06,0.69997l-2.89989,1.24995l-2.2999,0.51998l-1.47994,-1.19995l-0.03,-0.89997l-1.55994,-1.49994l-1.90992,-1.11996l-3.08988,-1.12995l-3.19987,-0.48998l-3.53986,-0.13999l-0.34999,-1.02996l-4.34983,-0.95996l-1.17995,-1.93992l-1.43995,-1.23995l-1.92992,-0.94996l-1.46994,-1.74993l1.21995,-0.95996l0.33999,-1.31995l1.31995,0.04l1.56994,0.68997l0.11,-0.84997l2.20991,-0.80996l1.61993,-1.37995l0.97996,-1.47994l0.59997,0.24999l1.75993,-0.45999l0.64997,-0.97996l1.86992,-1.22995l0.97996,-0.29999l0.37999,-3.50986l0.72997,-2.21991l0.78997,-1.14995l0.1,-1.65993l0.93996,-0.67998l-0.02,-1.47994l0.96996,-0.33998l0.20999,-1.27995l0.68997,-1.16995l1.84993,-1.12995l0.39998,-2.64989l2.24991,-0.49998l0.77997,-1.40994l-0.02,-1.39995l3.28987,-0.35998l1.24995,-1.59994l3.35987,-1.91992l0.02999,-1.90992l0.61998,-0.49998l0.27999,-1.69994l-0.07999,-2.13991l0.45998,-0.82997l-0.72997,-2.37991l0.31998,-1.37994l1.02996,-1.75993l-0.48998,-2.17991l1.14996,-1.27995l1.47994,0.94996l2.11991,-1.04996l2.07991,0.55998l2.28991,-3.66985l-0.53998,-2.34991l1.00996,-0.28999l1.54994,0.65997l0.32998,0.89996l1.57994,1.45995l2.21991,-0.77997l0.90996,0.32999l1.15996,-1.17995l1.65993,1.28994l1.82993,-1.26995l1.12995,0.81997l0.34999,0.89997l0.97996,-0.03l1.39995,-0.84996l1.29995,-1.96992l-0.19,-1.41994l0.64997,-0.78997l0.94997,-2.4899l1.94992,-1.01996l0.71997,0.04l1.80993,-1.79993l2.03991,0.06l1.38995,0.52998l1.18995,-1.19995l1.13996,0.39999l2.08991,-0.79997l1.72993,-2.16991l1.31994,0.62998"/></g></g></svg>