<svg version="1.1" xmlns="http://www.w3.org/2000/svg" xmlns:xlink="http://www.w3.org/1999/xlink" width="122.87126" height="64.03764" viewBox="0,0,122.87126,64.03764"><g transform="translate(-177.45436,-309.2981)"><g data-paper-data="{&quot;isPaintingLayer&quot;:true}" fill="#ff0000" fill-rule="evenodd" stroke-linecap="round" stroke-linejoin="round" stroke-miterlimit="10" stroke-dasharray="" stroke-dashoffset="0" style="mix-blend-mode: normal"><path d="M298.3557,318.49795l0.90997,0.77997l-0.13,1.36994l0.80996,0.28999l0.37999,1.41994l-1.11996,1.65993l0.07,5.94977l0.48998,2.52989l-0.91996,0.26999l-0.66997,1.16996l0.15999,0.89996l-0.72997,0.52998l-0.63998,2.79989l0.88997,0.74997l-0.57997,1.29995l0.21999,2.81988l-0.73997,1.14995l-1.37995,0.69997l0.13,1.60994l-1.15995,2.17991l-0.82997,0.63998l-1.59994,0.30998l-0.40999,1.99992l-1.01996,0.74997l-0.59997,1.08995l-0.01,1.53994l-1.62994,2.6899l0.64998,0.97996l-1.05996,1.20995l1.20996,1.42994l0.70997,1.66993l-0.86996,0.94997l0.05,1.42994l0.89996,1.10996l-1.33995,1.25995l-0.1,2.15991l-2.75989,-0.21999l-3.21987,1.32994l-1.14995,0.80997l-0.97996,1.51994l-1.29995,-0.38999l-0.87996,-1.49994l-0.35998,-1.17995l0.81997,-2.68989l-0.02,-2.73989l-1.42994,-3.62986l-0.02999,-2.2999l1.84992,0.50998l0.48998,-0.48998l0.79996,-2.15991l1.33995,-0.82997l1.96992,-3.02988l1.90992,-3.64986l1.04996,-2.2999l0.82997,-2.5799l-0.39999,-1.46994l0.05999,-3.33986l-0.81996,-1.53994l0.58997,-2.02992l-0.60998,-0.81997l1.37995,-1.36994l1.91993,-3.01988l0.38998,-1.75993l0.92996,0.25999l0.58997,-0.46998l-0.44998,-1.12995l1.38995,-1.64993l0.56997,-1.74993l-0.12,-1.19995l-0.46998,-0.68998l2.88989,-3.77985l0.07999,-1.09996l0.79997,0.26999l1.58993,-2.06991l0.54998,0.56997l0.16999,2.20992" stroke="none" stroke-width="0"/><path d="M188.42012,316.79801l-1.15096,1.35995l-1.56993,0.71997l-0.77197,0.02l-1.23895,-0.62998l-1.23395,-1.60994l0.034,-0.90996l1.02996,-0.03l0.93896,-1.15996l1.42595,-0.25999l0.34098,0.76997l0.92496,0.30999l1.27095,1.41994" stroke="#ff0000" stroke-width="10"/><path d="M224.15867,321.19784l-0.80996,1.27995l-0.80997,-0.13999l-2.4199,0.44998l-1.58994,-0.08999l-0.03,-1.45994l1.09995,-0.02l0.59998,-0.64997l2.13991,-1.28995l1.43995,1.07996l0.37998,0.83997" stroke="#ff0000" stroke-width="10"/><path d="M278.75649,327.19759l-0.35999,1.18995l-0.76997,0.62998l-1.83992,-0.17999l0.39999,-2.5599l1.52993,-1.95992l0.35999,1.71993l0.67997,1.15995" stroke="none" stroke-width="0"/><path d="M236.15819,320.29787l-3.00988,-1.16996l1.59994,-1.09995l1.02995,1.00996l0.79997,0.13999l-0.41998,1.11996" stroke="#ff0000" stroke-width="10"/></g></g></svg>