<svg version="1.1" xmlns="http://www.w3.org/2000/svg" xmlns:xlink="http://www.w3.org/1999/xlink" width="208" height="32" viewBox="0,0,208,32"><g transform="translate(-240,-164)"><g data-paper-data="{&quot;isPaintingLayer&quot;:true}" fill-rule="nonzero" stroke="none" stroke-linecap="butt" stroke-linejoin="miter" stroke-miterlimit="10" stroke-dasharray="" stroke-dashoffset="0" style="mix-blend-mode: normal"><path d="M240,196v-32h208v32z" fill="none" stroke-width="0"/><path d="M255.39,175.5h3.1641v3.418h1.084v1.6406h-1.084v3.5644h-3.5156v3.7402c0,0.54687 -0.11393,0.94727 -0.34179,1.2012c-0.26042,0.27995 -0.70312,0.41992 -1.3281,0.41992c-0.45573,0 -1.18816,-0.05534 -2.1973,-0.16601l-0.36132,-1.875c0.8268,0.13021 1.4453,0.19531 1.8555,0.19531c0.20833,0 0.3418,-0.03906 0.40039,-0.11719c0.0456,-0.07161 0.0684,-0.21159 0.0684,-0.41992v-2.9785h-3.0762v-1.6797h3.0762v-1.8848h-3.7012v-1.6406h3.7012v-1.7774h-2.5977v-1.4258c-0.16927,0.14974 -0.37761,0.32227 -0.625,0.51758l-0.95703,-1.3379v0.72265h-2.8027v0.91797h3.5449v1.6211h-9.1992v-1.6211h3.7207v-0.91797h-3.0273v-1.416h3.0273v-0.91797h-3.4668v-1.4844h3.4668v-1.2988h1.9336v1.2988h3.3008v1.4844h-3.3008v0.91797h2.8027v0.51758c1.36067,-1.05467 2.46093,-2.4479 3.3008,-4.1797l1.3086,0.83984h2.8711l1.0156,0.89844c-0.61198,1.12627 -1.29885,2.2005 -2.0606,3.2227zM253.4466,175.5c0.77473,-1.08073 1.2793,-1.88803 1.5137,-2.4219h-2.1387c-0.54037,0.8138 -1.22723,1.6211 -2.0606,2.4219zM254.9798,177.1406v1.7774h1.8359v-1.7774zM256.8157,180.5586h-1.8359v1.8848h1.8359zM248.9153,179.1621v8.6816c0,0.63802 -0.17578,1.07422 -0.52735,1.3086c-0.23437,0.14974 -0.63151,0.22461 -1.1914,0.22461c-0.78127,0 -1.46813,-0.03906 -2.0606,-0.11719l-0.3418,-1.7773c0.78127,0.09115 1.40953,0.13672 1.8848,0.13672c0.20833,0 0.32878,-0.05534 0.36133,-0.16602c0.02607,-0.07813 0.0391,-0.20833 0.0391,-0.39062v-1.4844h-3.9648v3.9258h-1.8359v-10.342zM243.1145,180.5976v1.1035h3.9648v-1.1035zM243.1145,183.0781v1.123h3.9648v-1.123z" fill="#ffffff" stroke-width="1"/><path d="M273.12,184.26v-4.2188h1.8555v5.9766h-8.1445v1.3184h-1.8555v-7.2949h1.8555v4.2188h2.1582v-5.498h-5.0098v-1.7578h6.9531c0.65104,-1.13933 1.21094,-2.4056 1.6797,-3.7988l2.0215,0.70313c-0.55989,1.1784 -1.14256,2.2103 -1.748,3.0957h3.1543v1.7578h-5.1953v5.498zM278.6766,171.184v16.357c0,0.65755 -0.17578,1.12955 -0.52734,1.416c-0.33855,0.27343 -0.92775,0.41015 -1.7676,0.41015c-0.65755,0 -1.78059,-0.05534 -3.3691,-0.16601l-0.49805,-2.0606c1.1328,0.13672 2.24283,0.20508 3.3301,0.20508c0.36458,0 0.57942,-0.06185 0.64453,-0.18555c0.0456,-0.08463 0.0684,-0.25065 0.0684,-0.49804v-13.643h-13.105v16.484h-2.1191v-18.32zM266.6946,176.9555c-0.4362,-1.04167 -0.931,-1.9922 -1.4844,-2.8516l1.8262,-0.78125c0.61197,0.89193 1.12304,1.82943 1.5332,2.8125z" fill="#ffffff" stroke-width="1"/><path d="M296.76,170.98v9.4629h-11.621v-9.4629zM287.2385,172.523v1.2207h7.4023v-1.2207zM287.2385,175.1207v1.2207h7.4023v-1.2207zM287.2385,177.7183v1.2598h7.4023v-1.2598zM283.3029,181.7417h16.191v1.6992h-8.0762v6.0644h-2.2168v-6.0644h-8.0371v-10.957h2.1387zM280.8029,187.6401c1.54947,-0.71613 3.0306,-1.9173 4.4434,-3.6035l1.7969,1.0449c-1.3932,1.76433 -2.93943,3.15107 -4.6387,4.1602zM297.6389,188.8999c-0.99607,-1.22393 -2.49347,-2.50973 -4.4922,-3.8574l1.6797,-1.1816c1.569,0.90493 3.1087,2.09307 4.6191,3.5644z" fill="#ffffff" stroke-width="1"/><path d="M318.09,175.78h1.5039v1.7969h-1.5039v4.5996h-4.9805c-0.11719,1.8034 -0.49152,3.2487 -1.123,4.3359c-0.8008,1.38673 -1.81967,2.46097 -3.0566,3.2227l-1.5625,-1.5625c1.1914,-0.69013 2.1354,-1.6309 2.832,-2.8223c0.46224,-0.8008 0.73568,-1.85873 0.82031,-3.1738h-4.0527v-1.8164h4.082v-2.7832h-5.5762v-1.7969h5.5762v-2.6074h-3.7793v-1.8164h10.82zM316.0294,175.78v-2.6074h-2.9004v2.6074zM316.0294,177.5769h-2.9004v2.7832h2.9004zM304.9654,175.3406v14.16h-2.0996v-10.02c-0.48177,0.79427 -1.02864,1.61457 -1.6406,2.4609l-0.99609,-2.1777c1.10027,-1.49087 2.03127,-3.2031 2.793,-5.1367c0.47526,-1.19793 0.94399,-2.62047 1.4062,-4.2676l2.1191,0.53711c-0.50781,1.6992 -1.03515,3.18033 -1.582,4.4434z" fill="#ffffff" stroke-width="1"/><path d="M337.12,175.74v6.4941h-14.219v-6.4941zM325.099,177.4392v3.0762h9.8047v-3.0762zM325.80212,186.7947c-0.3125,-1.1784 -0.85287,-2.38607 -1.6211,-3.623l2.0996,-0.78125c0.67707,1.0482 1.2565,2.24287 1.7383,3.584l-1.9043,0.82031h5.7617c0.66406,-1.35413 1.24673,-2.8548 1.748,-4.502l2.3144,0.70313c-0.55989,1.37367 -1.16536,2.63993 -1.8164,3.7988h5.3809v1.9043h-19.004v-1.9043zM321.11462,171.5607h17.783v1.8555h-17.783z" fill="#ffffff" stroke-width="1"/><path d="M350.23,178.41v7.7344c0,0.5013 0.21485,0.80403 0.64454,0.9082c0.44271,0.11068 1.45507,0.16602 3.0371,0.16602c1.54293,0 2.5618,-0.07813 3.0566,-0.23438c0.27995,-0.09115 0.46224,-0.34505 0.54687,-0.76172c0.11068,-0.58593 0.16927,-1.2793 0.17578,-2.0801l2.041,0.57618c-0.10417,1.9206 -0.36784,3.1478 -0.79102,3.6816c-0.27995,0.35156 -0.70311,0.55989 -1.2695,0.625c-0.89193,0.09765 -2.4056,0.14648 -4.541,0.14648c-1.65367,0 -2.73767,-0.04557 -3.252,-0.13672c-0.77473,-0.13021 -1.26627,-0.47201 -1.4746,-1.0254c-0.10417,-0.29297 -0.15625,-0.6836 -0.15625,-1.1719v-7.7441l-1.8652,0.64453l-0.45899,-1.8945l2.3242,-0.80078v-5.2637h1.9824v4.5801l2.0996,-0.71289v-5.1465h1.9629v4.4629l3.2715,-1.123l1.0254,0.625v7.3144c0,0.50781 -0.12044,0.88541 -0.36133,1.1328c-0.27343,0.27343 -0.73243,0.41015 -1.377,0.41015c-0.52735,0 -1.08725,-0.04557 -1.6797,-0.13672l-0.32226,-1.8652c0.38411,0.09765 0.77475,0.14648 1.1719,0.14648c0.28646,0 0.46224,-0.05859 0.52734,-0.17578c0.06513,-0.09765 0.0977,-0.26041 0.0977,-0.48828v-4.6191l-2.3535,0.82031v7.9004h-1.9629v-7.2266zM343.0523,175.2166v-4.7168h2.0996v4.7168h1.8945v1.9824h-1.8945v6.2109c0.6836,-0.23437 1.36067,-0.47851 2.0312,-0.73242l0.18555,1.8848c-2.1094,0.96353 -4.2741,1.77083 -6.4941,2.4219l-0.6836,-2.0801c1.0026,-0.26041 1.8815,-0.50781 2.6367,-0.74218c0.09115,-0.03253 0.16602,-0.05533 0.22461,-0.0684v-6.8945h-2.4805v-1.9824z" fill="#ffffff" stroke-width="1"/><path d="M369.48,175.76c-0.0456,1.08727 -0.1107,2.0443 -0.19531,2.8711h7.8711c-0.09765,4.51827 -0.35156,7.4512 -0.76172,8.7988c-0.20833,0.67707 -0.5957,1.1458 -1.1621,1.4062c-0.44271,0.20182 -1.09051,0.30273 -1.9434,0.30273c-0.89847,0 -1.91733,-0.06836 -3.0566,-0.20507l-0.38085,-2.1973c1.52993,0.21485 2.6074,0.32227 3.2324,0.32227c0.52734,0 0.86264,-0.14974 1.0059,-0.44922c0.34505,-0.7292 0.58593,-2.74093 0.72265,-6.0352h-5.8105c-0.21485,1.17187 -0.51758,2.1875 -0.90821,3.0469c-1.08727,2.37627 -2.90367,4.26103 -5.4492,5.6543l-1.543,-1.7188c2.55207,-1.32813 4.23827,-3.06967 5.0586,-5.2246c0.54687,-1.4388 0.90167,-3.62957 1.0644,-6.5723h-6.4648v-2.002h7.9785v-3.2617h2.2559v3.2617h8.2422v2.002z" fill="#ffffff" stroke-width="1"/></g></g></svg>