<svg version="1.1" xmlns="http://www.w3.org/2000/svg" xmlns:xlink="http://www.w3.org/1999/xlink" width="208" height="32" viewBox="0,0,208,32"><g transform="translate(-240,-164)"><g data-paper-data="{&quot;isPaintingLayer&quot;:true}" fill-rule="nonzero" stroke="none" stroke-linecap="butt" stroke-linejoin="miter" stroke-miterlimit="10" stroke-dasharray="" stroke-dashoffset="0" style="mix-blend-mode: normal"><path d="M240,196v-32h208v32z" fill="none" stroke-width="0"/><path d="M254.23,185.08c1.3086,0.92447 3.0892,1.67967 5.3418,2.2656l-1.3574,1.8555c-2.95573,-0.83333 -5.29623,-2.20703 -7.0215,-4.1211c-1.02867,-1.1328 -1.7904,-2.42513 -2.2852,-3.877h-2.7539v5.6738c1.6732,-0.30599 3.4473,-0.70962 5.3223,-1.2109l0.13672,1.8555c-3.07293,0.87893 -6.1198,1.5658 -9.1406,2.0606l-0.69336,-2.0215c1.02867,-0.13021 1.74807,-0.22786 2.1582,-0.29297v-6.0644h-3.4375v-1.6602h3.4375v-8.4082h13.496v1.6406h-11.279v1.1621h10.381v1.582h-10.381v1.1816h10.381v1.543h-10.381v1.2988h13.34v1.6602h-2.666l1.543,1.3379c-1.237,0.89193 -2.6172,1.7383 -4.1406,2.5391zM252.8238,183.9277c1.50387,-0.93747 2.76363,-1.84567 3.7793,-2.7246h-5.6934c0.4362,1.00913 1.07423,1.91733 1.9141,2.7246z" fill="#ffffff" stroke-width="1"/><path d="M277.82,179.78v7.8809c0,0.58594 -0.10742,1.01564 -0.32227,1.2891c-0.26042,0.32552 -0.81055,0.48828 -1.6504,0.48828c-0.80727,0 -1.65687,-0.04557 -2.5488,-0.13672l-0.40039,-1.9434c0.931,0.16276 1.70247,0.24414 2.3144,0.24414c0.27344,0 0.44271,-0.05208 0.50782,-0.15625c0.05207,-0.08464 0.0781,-0.2474 0.0781,-0.48829v-7.1777h-8.1738v6.1621h-5.1465v1.6602h-1.7188v-13.682h1.6406v10.156h0.95703v-13.359h1.6992v13.359h1.0059v-10.156h1.5625v4.1016h11.934v1.7578zM273.8747,174.1062c1.582,0.65104 3.19007,1.44204 4.8242,2.373l-1.2793,1.4551c-1.2044,-0.79427 -2.61717,-1.61457 -4.2383,-2.4609c-0.8724,1.21093 -2.22007,2.04753 -4.043,2.5098l-1.0352,-1.5234c1.95313,-0.42969 3.20963,-1.24999 3.7695,-2.4609h-3.8574v-1.6992h4.1016v-1.7969h1.9434v1.7969h4.6777v1.6992h-4.8242c-0.00667,0.03253 -0.0197,0.06834 -0.0391,0.10742zM274.59736,181.1668v5.2344h-4.1797v0.9375h-1.7773v-6.1719zM270.37856,182.7684v2.0312h2.5586v-2.0312z" fill="#ffffff" stroke-width="1"/><path d="M296.76,170.98v9.4629h-11.621v-9.4629zM287.2385,172.523v1.2207h7.4023v-1.2207zM287.2385,175.1207v1.2207h7.4023v-1.2207zM287.2385,177.7183v1.2598h7.4023v-1.2598zM283.3029,181.7417h16.191v1.6992h-8.0762v6.0644h-2.2168v-6.0644h-8.0371v-10.957h2.1387zM280.8029,187.6401c1.54947,-0.71613 3.0306,-1.9173 4.4434,-3.6035l1.7969,1.0449c-1.3932,1.76433 -2.93943,3.15107 -4.6387,4.1602zM297.6389,188.8999c-0.99607,-1.22393 -2.49347,-2.50973 -4.4922,-3.8574l1.6797,-1.1816c1.569,0.90493 3.1087,2.09307 4.6191,3.5644z" fill="#ffffff" stroke-width="1"/><path d="M308.92,182.24h-4.043v-1.6016h1.9531c-0.29297,-0.66407 -0.625,-1.28257 -0.99609,-1.8555l1.7578,-0.64453c0.50781,0.85287 0.91798,1.6862 1.2305,2.5h2.2949c0.38411,-0.78773 0.72265,-1.6341 1.0156,-2.5391l1.9629,0.61524c-0.33203,0.71613 -0.6836,1.3574 -1.0547,1.9238h2.0996v1.6016h-4.1797v1.4258h4.4531v1.6602h-4.4531v3.6914h-2.041v-3.6914h-4.2871v-1.6602h4.2871zM311.0196,176.2244h7.4024v11.416c0,0.6706 -0.17904,1.1426 -0.53711,1.416c-0.29948,0.23438 -0.80405,0.35157 -1.5137,0.35157c-0.918,0 -1.8034,-0.04883 -2.6562,-0.14649l-0.47852,-1.9629c1.13933,0.13672 1.9922,0.20508 2.5586,0.20508c0.23437,0 0.37109,-0.05859 0.41015,-0.17578c0.02607,-0.07161 0.0391,-0.17253 0.0391,-0.30274v-9.1016h-12.48v11.582h-2.1777v-13.281h7.2754v-1.7676h-8.3594v-1.8164h8.3594v-2.1387h2.1582v2.1387h8.4766v1.8164h-8.4766z" fill="#ffffff" stroke-width="1"/><path d="M326.44,176.07v-2.7344h-5.8203v-1.8848h18.779v1.8848h-6.4551v2.7344h5.4785v13.164h-2.1191v-1.377h-12.607v1.377h-2.0996v-13.164zM328.4615,176.07h2.4609v-2.7344h-2.4609zM326.4303,177.8473h-2.7344v8.1543h12.607v-2.9297h-3.7012c-1.1198,0 -1.6797,-0.5599 -1.6797,-1.6797v-3.5449h-2.4805c-0.02607,1.6016 -0.26695,2.88417 -0.72266,3.8477c-0.42969,0.918 -1.27605,1.8262 -2.5391,2.7246l-1.3477,-1.5039c1.21093,-0.7422 1.9759,-1.66017 2.2949,-2.7539c0.16927,-0.58594 0.27018,-1.35744 0.30273,-2.3145zM332.944,177.8473v2.9883c0,0.25391 0.11393,0.38086 0.3418,0.38086h3.0176v-3.3691z" fill="#ffffff" stroke-width="1"/><path d="M346.98,172.75h4.1797v1.8848h-1.377c-0.2474,0.99607 -0.57943,2.041 -0.9961,3.1348h2.6074v1.8848h-10.898v-1.8848h2.3926c-0.26041,-1.25 -0.53385,-2.29493 -0.82031,-3.1348h-1.2695v-1.8848h4.1406v-2.2559h2.041zM344.0406,174.6348c0.33203,0.97007 0.58919,2.015 0.77148,3.1348h1.9922l0.09766,-0.27344c0.27995,-0.7422 0.54036,-1.5853 0.78125,-2.5293l0.0879,-0.33203zM350.0953,181.295v7.998h-2.002v-0.95703h-4.2578v1.1621h-2.0606v-8.2031zM343.8355,183.0919v3.3887h4.2578v-3.3887zM356.8825,178.1603c0.77473,0.73567 1.38997,1.61133 1.8457,2.627c0.44922,1.0156 0.67383,2.04423 0.67383,3.0859c0,0.96353 -0.17904,1.67317 -0.53711,2.1289c-0.37109,0.47526 -0.98306,0.71289 -1.8359,0.71289c-0.7292,0 -1.43557,-0.05208 -2.1191,-0.15625l-0.47852,-2.0801c0.78773,0.14323 1.43877,0.21485 1.9531,0.21485c0.39063,0 0.63477,-0.09115 0.73242,-0.27344c0.06513,-0.13021 0.0977,-0.39062 0.0977,-0.78125c0,-1.60807 -0.48177,-2.9948 -1.4453,-4.1602c-0.25391,-0.30599 -0.57292,-0.63476 -0.95703,-0.98633l0.11719,-0.27343c0.67707,-1.52993 1.2044,-3.125 1.582,-4.7852h-2.5v16.064h-2.0215v-18.086h5.8789l1.084,0.99609c-0.65755,2.2396 -1.34765,4.15693 -2.0703,5.752z" fill="#ffffff" stroke-width="1"/></g></g></svg>