<svg version="1.1" xmlns="http://www.w3.org/2000/svg" xmlns:xlink="http://www.w3.org/1999/xlink" width="208" height="32" viewBox="0,0,208,32"><g transform="translate(-240,-164)"><g data-paper-data="{&quot;isPaintingLayer&quot;:true}" fill-rule="nonzero" stroke="none" stroke-linecap="butt" stroke-linejoin="miter" stroke-miterlimit="10" stroke-dasharray="" stroke-dashoffset="0" style="mix-blend-mode: normal"><path d="M240,196v-32h208v32z" fill="none" stroke-width="0"/><path d="M251.07,173.51v5.0098h8.4277v1.9824h-8.4277v9.0039h-2.2754v-9.0039h-8.3008v-1.9824h8.3008v-4.6875c-2.20053,0.26042 -4.26107,0.45573 -6.1816,0.58594l-0.83985,-1.8945c4.97393,-0.20833 9.5866,-0.87567 13.838,-2.002l1.5039,1.6992c-1.7448,0.48177 -3.75977,0.91147 -6.0449,1.2891z" fill="#ffffff" stroke-width="1"/><path d="M273.42,184.81c1.52993,0.89847 3.63607,1.69273 6.3184,2.3828l-1.2793,1.8066c-3.1706,-1.09373 -5.63803,-2.43163 -7.4023,-4.0137v4.5117h-2.1777v-4.4141c-1.7578,1.88153 -4.1569,3.278 -7.1973,4.1894l-1.2793,-1.6406c2.59767,-0.63151 4.7461,-1.57228 6.4453,-2.8223h-6.1328v-1.6016h8.1641v-1.1914h-5.4004v-4.7559h-2.9785v-1.5234h2.9785v-1.2402h2.1582v1.2402h3.0664v-1.4453h2.0508v1.4453h3.5449v-1.4453h2.1387v1.4453h3.0566v1.5234h-3.0566v2.3145h-7.7344v-2.3145h-3.0664v3.2129h12.178v1.543h-6.7578v1.1914h8.2617v1.6016zM274.2989,177.2612h-3.5449v0.97657h3.5449zM265.8419,171.7924v-1.2988h2.1191v1.2988h3.9453v-1.2988h2.1582v1.2988h5.0391v1.543h-5.0391v1.0742h-2.1582v-1.0742h-3.9453v1.0742h-2.1191v-1.0742h-4.9609v-1.543z" fill="#ffffff" stroke-width="1"/><path d="M296.76,170.98v9.4629h-11.621v-9.4629zM287.2385,172.523v1.2207h7.4023v-1.2207zM287.2385,175.1207v1.2207h7.4023v-1.2207zM287.2385,177.7183v1.2598h7.4023v-1.2598zM283.3029,181.7417h16.191v1.6992h-8.0762v6.0644h-2.2168v-6.0644h-8.0371v-10.957h2.1387zM280.8029,187.6401c1.54947,-0.71613 3.0306,-1.9173 4.4434,-3.6035l1.7969,1.0449c-1.3932,1.76433 -2.93943,3.15107 -4.6387,4.1602zM297.6389,188.8999c-0.99607,-1.22393 -2.49347,-2.50973 -4.4922,-3.8574l1.6797,-1.1816c1.569,0.90493 3.1087,2.09307 4.6191,3.5644z" fill="#ffffff" stroke-width="1"/><path d="M308.92,182.24h-4.043v-1.6016h1.9531c-0.29297,-0.66407 -0.625,-1.28257 -0.99609,-1.8555l1.7578,-0.64453c0.50781,0.85287 0.91798,1.6862 1.2305,2.5h2.2949c0.38411,-0.78773 0.72265,-1.6341 1.0156,-2.5391l1.9629,0.61524c-0.33203,0.71613 -0.6836,1.3574 -1.0547,1.9238h2.0996v1.6016h-4.1797v1.4258h4.4531v1.6602h-4.4531v3.6914h-2.041v-3.6914h-4.2871v-1.6602h4.2871zM311.0196,176.2244h7.4024v11.416c0,0.6706 -0.17904,1.1426 -0.53711,1.416c-0.29948,0.23438 -0.80405,0.35157 -1.5137,0.35157c-0.918,0 -1.8034,-0.04883 -2.6562,-0.14649l-0.47852,-1.9629c1.13933,0.13672 1.9922,0.20508 2.5586,0.20508c0.23437,0 0.37109,-0.05859 0.41015,-0.17578c0.02607,-0.07161 0.0391,-0.17253 0.0391,-0.30274v-9.1016h-12.48v11.582h-2.1777v-13.281h7.2754v-1.7676h-8.3594v-1.8164h8.3594v-2.1387h2.1582v2.1387h8.4766v1.8164h-8.4766z" fill="#ffffff" stroke-width="1"/><path d="M333.2,183.15c1.6146,1.4388 3.78907,2.6009 6.5234,3.4863l-1.2598,1.8359c-1.57553,-0.55989 -2.94923,-1.23696 -4.1211,-2.0312c-1.21093,-0.8268 -2.32747,-1.84243 -3.3496,-3.0469v6.1035h-2.1191v-5.9961c-0.90493,1.26953 -2.07357,2.40887 -3.5059,3.418c-1.10027,0.77473 -2.27867,1.39973 -3.5352,1.875l-1.3379,-1.7188c2.0638,-0.6836 3.7858,-1.60483 5.166,-2.7637c0.39063,-0.32553 0.78776,-0.71289 1.1914,-1.1621h-4.6973v-7.998h6.7188v-1.3184h-8.0957v-1.7578h8.0957v-1.582h2.1191v1.582h8.2227v1.7578h-8.2227v1.3184h6.8457v7.998zM328.8738,176.7926h-4.5996v1.582h4.5996zM330.9929,176.7926v1.582h4.7266v-1.582zM328.8738,179.8981h-4.5996v1.6113h4.5996zM330.9929,179.8981v1.6113h4.7266v-1.6113z" fill="#ffffff" stroke-width="1"/><path d="M351.58,174.14v-3.6426h2.0996v3.6426h5.293v8.8379h-5.293v6.5234h-2.0996v-6.5234h-5.1856v-8.8379zM348.4159,176.0834v4.9707h3.1641v-4.9707zM356.8925,181.0541v-4.9707h-3.2129v4.9707zM344.3925,175.2729c-0.79427,-1.1068 -1.8457,-2.16473 -3.1543,-3.1738l1.4551,-1.4844c1.30207,0.918 2.40233,1.94663 3.3008,3.0859zM343.75774,180.2924c-1.1328,-1.31513 -2.23307,-2.3926 -3.3008,-3.2324l1.5039,-1.5039c1.13933,0.8008 2.26563,1.83597 3.3789,3.1055zM340.72064,187.8608c1.25,-1.77733 2.40233,-3.99087 3.457,-6.6406l1.7383,1.3379c-0.89193,2.4414 -1.97917,4.73957 -3.2617,6.8945z" fill="#ffffff" stroke-width="1"/></g></g></svg>