<svg version="1.1" xmlns="http://www.w3.org/2000/svg" xmlns:xlink="http://www.w3.org/1999/xlink" width="208" height="32" viewBox="0,0,208,32"><g transform="translate(-240,-164)"><g data-paper-data="{&quot;isPaintingLayer&quot;:true}" fill-rule="nonzero" stroke="none" stroke-linecap="butt" stroke-linejoin="miter" stroke-miterlimit="10" stroke-dasharray="" stroke-dashoffset="0" style="mix-blend-mode: normal"><path d="M240,196v-32h208v32z" fill="none" stroke-width="0"/><path d="M255.53,174.82h3.4961v4.0039h-1.748c0.38411,0.56641 0.75195,1.17187 1.1035,1.8164l-1.875,1.0058c-0.8008,-1.60153 -1.6146,-2.9036 -2.4414,-3.9062l1.7188,-0.82031c0.41667,0.48177 0.791,0.94077 1.123,1.377v-1.875h-6.4844c0.55339,0.57291 1.12632,1.31185 1.7188,2.2168l-1.7578,1.084c-0.41016,-0.82033 -0.98309,-1.6732 -1.7188,-2.5586l1.3184,-0.74218h-6.9141v2.4023h-2.1191v-4.0039h3.3398c-0.20183,-0.49479 -0.45899,-1.00912 -0.77149,-1.543c-0.28646,0.013 -0.77149,0.0358 -1.4551,0.0684l-0.82031,-1.6406c6.0612,-0.14974 11.10687,-0.58594 15.137,-1.3086l1.543,1.4453c-0.944,0.15625 -1.81313,0.28971 -2.6074,0.40039l1.4258,0.41992c-0.23437,0.54687 -0.63801,1.26627 -1.2109,2.1582zM253.4109,174.82c0.48828,-0.8854 0.87891,-1.71223 1.1719,-2.4805c-1.263,0.16927 -2.679,0.31901 -4.248,0.44922c0.41015,0.63802 0.73893,1.31509 0.98633,2.0312zM249.2117,174.82c-0.24739,-0.59245 -0.57617,-1.21745 -0.98633,-1.875l-2.6074,0.20508c0.38411,0.625 0.66406,1.18163 0.83985,1.6699zM245.9305,184.5466c-1.15233,0.7292 -2.4056,1.33467 -3.7598,1.8164l-1.2207,-1.582c2.52607,-0.77473 4.54757,-1.91407 6.0645,-3.418c-0.50781,-0.20833 -0.76172,-0.56313 -0.76172,-1.0644v-3.1348h2.0801v2.1387c0,0.34505 0.08463,0.55339 0.2539,0.625c0.16276,0.06513 0.76496,0.0977 1.8066,0.0977c1.1784,0 1.83597,-0.07161 1.9727,-0.21484c0.16276,-0.16927 0.25065,-0.63801 0.26367,-1.4062l1.8945,0.47851c0.00667,0.06513 0.01,0.12698 0.01,0.18555c0,0.84633 -0.13346,1.46483 -0.40039,1.8555c-0.18881,0.27995 -0.55664,0.45247 -1.1035,0.51758c-0.71613,0.09115 -1.71873,0.13672 -3.0078,0.13672c-0.27344,0 -0.52409,-0.00333 -0.75195,-0.01c-0.2474,0.30599 -0.4948,0.58268 -0.74219,0.83008h6.8652l0.89844,0.89844c-1.06773,1.1328 -2.334,2.11587 -3.7988,2.9492c1.9206,0.60547 4.26433,1.03841 7.0312,1.2988l-1.2402,1.9141c-2.82553,-0.41015 -5.45573,-1.11329 -7.8906,-2.1094c-2.5716,1.2044 -5.46547,2.00843 -8.6816,2.4121l-1.123,-1.7578c2.6888,-0.21485 5.2767,-0.76825 7.7637,-1.6602c-0.8854,-0.52083 -1.6927,-1.1198 -2.4219,-1.7969zM250.4032,185.47433c0.03907,-0.013 0.1237,-0.05532 0.2539,-0.12695c0.86587,-0.46224 1.62433,-0.95051 2.2754,-1.4648h-5.2148c0.84633,0.625 1.74153,1.1556 2.6856,1.5918zM241.9266,180.94313c0.64453,-0.8268 1.24349,-2.06703 1.7969,-3.7207l1.9043,0.55664c-0.42318,1.6862 -1.04491,3.0892 -1.8652,4.209z" fill="#ffffff" stroke-width="1"/><path d="M267.04,174.72v3.6621h3.1934v1.8848h-3.2227c-0.03253,0.64453 -0.09113,1.29233 -0.17578,1.9434c1.32813,1.10027 2.55533,2.32747 3.6816,3.6816l-1.4062,1.9336c-0.7552,-1.16533 -1.67967,-2.31767 -2.7734,-3.457c-0.25391,0.7552 -0.63151,1.52343 -1.1328,2.3047c-0.76173,1.18493 -1.71227,2.14197 -2.8516,2.8711l-1.5039,-1.7188c2.5,-1.4974 3.86067,-4.01693 4.082,-7.5586h-4.2383v-1.8848h4.2871v-3.6621h-1.1621c-0.45573,1.08073 -1.01563,2.07357 -1.6797,2.9785l-1.6016,-1.2988c1.12627,-1.45833 1.92703,-3.42447 2.4023,-5.8984l2.0996,0.3125c-0.1888,0.8008 -0.36458,1.4551 -0.52734,1.9629h5.3223v1.9434zM278.7,172.5227v16.143h-2.0996v-1.2891h-3.6816v1.4844h-2.0801v-16.338zM272.9188,174.4856v10.928h3.6816v-10.928z" fill="#ffffff" stroke-width="1"/><path d="M296.76,170.98v9.4629h-11.621v-9.4629zM287.2385,172.523v1.2207h7.4023v-1.2207zM287.2385,175.1207v1.2207h7.4023v-1.2207zM287.2385,177.7183v1.2598h7.4023v-1.2598zM283.3029,181.7417h16.191v1.6992h-8.0762v6.0644h-2.2168v-6.0644h-8.0371v-10.957h2.1387zM280.8029,187.6401c1.54947,-0.71613 3.0306,-1.9173 4.4434,-3.6035l1.7969,1.0449c-1.3932,1.76433 -2.93943,3.15107 -4.6387,4.1602zM297.6389,188.8999c-0.99607,-1.22393 -2.49347,-2.50973 -4.4922,-3.8574l1.6797,-1.1816c1.569,0.90493 3.1087,2.09307 4.6191,3.5644z" fill="#ffffff" stroke-width="1"/><path d="M310.46,175.44c0.71613,0.8008 1.47133,1.54623 2.2656,2.2363v-7.1777h2.1973v8.8574c1.49087,0.98307 3.12497,1.7936 4.9023,2.4316l-1.123,2.0312c-1.3086,-0.55339 -2.56837,-1.21745 -3.7793,-1.9922v7.6758h-2.1973v-9.2676c-1.0482,-0.83987 -1.94663,-1.69273 -2.6953,-2.5586c-0.55339,2.3698 -1.33789,4.35873 -2.3535,5.9668c-1.45833,2.30467 -3.32357,4.15037 -5.5957,5.5371l-1.5332,-1.6016c2.36327,-1.30207 4.30663,-3.28123 5.8301,-5.9375c-0.90493,-0.931 -1.90103,-1.78387 -2.9883,-2.5586c-0.54036,0.80727 -1.14256,1.5755 -1.8066,2.3047l-1.2793,-1.7383c1.16533,-1.263 2.11587,-2.77667 2.8516,-4.541c0.55339,-1.34767 1.00912,-2.89713 1.3672,-4.6484l2.041,0.30274c-0.16276,0.8268 -0.31901,1.52667 -0.46875,2.0996h3.5938l0.9961,0.8789c-0.09766,0.8138 -0.17253,1.3802 -0.22461,1.6992zM307.3057,179.649c0.61198,-1.6992 1.01888,-3.33333 1.2207,-4.9024h-3.0176c-0.35156,0.97007 -0.74543,1.87827 -1.1816,2.7246c1.16533,0.71613 2.15817,1.44203 2.9785,2.1777z" fill="#ffffff" stroke-width="1"/><path d="M337.76,175.8c0,0.30599 -0.0293,1.75783 -0.0879,4.3555h1.8652v1.7578h-1.9043c-0.01953,0.85287 -0.06185,1.81967 -0.12695,2.9004h1.6504v1.7188h-1.7774c-0.07812,0.944 -0.18554,1.569 -0.32226,1.875c-0.30599,0.7292 -1.04819,1.0938 -2.2266,1.0938c-0.7552,0 -1.4518,-0.05534 -2.0898,-0.16601l-0.36133,-1.7383c0.918,0.13021 1.62113,0.19531 2.1094,0.19531c0.39713,0 0.63476,-0.13997 0.71289,-0.41992c0.03907,-0.13672 0.07487,-0.41667 0.10742,-0.83985h-6.9531c-0.00667,0.05207 -0.01643,0.10741 -0.0293,0.16602c-0.0586,0.34505 -0.11394,0.67057 -0.16602,0.97656l-2.0215,-0.19531c0.39713,-2.35027 0.66406,-4.1276 0.80078,-5.332l0.0293,-0.23438h-1.9531v-1.7578h2.1582c0.18229,-1.57553 0.33854,-3.02737 0.46875,-4.3555zM331.5881,177.4992h-2.1387c-0.01953,0.33203 -0.07813,1.0319 -0.17578,2.0996l-0.0586,0.55664h2.168l0.0293,-0.27344c0.013,-0.1888 0.03253,-0.45247 0.0586,-0.79101c0.06513,-0.91147 0.1042,-1.44207 0.11719,-1.5918zM333.5119,177.4992c-0.03253,0.77473 -0.08136,1.63087 -0.14649,2.5684v0.0879h2.2949c0.02607,-0.89193 0.04887,-1.77733 0.0684,-2.6562zM331.2267,181.9133h-2.1973c-0.09765,0.79427 -0.20182,1.57877 -0.3125,2.3535l-0.0781,0.54687h2.2852c0.15625,-1.41273 0.25716,-2.37953 0.30273,-2.9004zM333.2287,181.9133c-0.01953,0.26042 -0.05859,0.69012 -0.11718,1.2891l-0.15625,1.6113h2.4902c0.03253,-0.63151 0.05857,-1.10677 0.0781,-1.4258c0.03907,-0.6966 0.0651,-1.18813 0.0781,-1.4746zM329.4006,172.2746h9.4336v1.8164h-10.244c-0.52734,1.0742 -1.19791,2.09633 -2.0117,3.0664l-1.3965,-1.5234c1.28253,-1.50393 2.194,-3.2357 2.7344,-5.1953l2.0801,0.21485c-0.23437,0.67707 -0.43294,1.21743 -0.5957,1.6211zM324.0197,175.1164c-0.8008,-1.10027 -1.7741,-2.13217 -2.9199,-3.0957l1.4746,-1.4258c1.0612,0.78127 2.0703,1.7676 3.0273,2.959zM323.31657,180.2726c-0.9896,-1.26953 -1.98893,-2.334 -2.998,-3.1934l1.5234,-1.4648c1.1328,0.89193 2.15167,1.90757 3.0566,3.0469zM320.66037,187.9386c1.1328,-1.569 2.20703,-3.63607 3.2227,-6.2012l1.7383,1.2402c-0.84633,2.3698 -1.93357,4.54427 -3.2617,6.5234z" fill="#ffffff" stroke-width="1"/></g></g></svg>