<svg version="1.1" xmlns="http://www.w3.org/2000/svg" xmlns:xlink="http://www.w3.org/1999/xlink" width="54.86783" height="94.74623" viewBox="0,0,54.86783,94.74623"><g transform="translate(-257.60731,-202.52256)"><g data-paper-data="{&quot;isPaintingLayer&quot;:true}" fill="#ff0000" fill-rule="evenodd" stroke="none" stroke-width="0" stroke-linecap="round" stroke-linejoin="round" stroke-miterlimit="10" stroke-dasharray="" stroke-dashoffset="0" style="mix-blend-mode: normal"><path d="M310.45522,225.60166l0.2,0.76997l1.01995,0.97996l0.79997,1.78993l-0.35999,1.49994l-1.24995,1.16996l0.60997,0.57997l0.19,1.56994l0.41998,0.90996l-0.07,1.56994l-0.39999,0.71997l-2.4699,1.11996l-0.11,0.93996l-0.77997,1.16995l0.10999,1.22995l-0.39999,1.37995l-0.68997,-0.65997l-1.64994,0.02999l-1.26995,-0.71997l-1.35995,-0.33999l-1.56993,2.24991l-0.74997,-0.50998l-0.91997,0.36998l-2.14991,1.78993l-1.56993,1.92992l-1.15996,1.88993l-1.01996,2.29991l-0.33998,1.75993l-0.08,1.89992l0.82997,0.59998l2.4599,0.66997l1.42994,0.84996l1.31994,0.1l2.37991,0.96997l0.68998,-0.11l-0.31999,1.76993l-0.59998,1.28995l-1.04996,1.14995l-1.28994,0.66997l0.26999,1.36995l0.73997,0.58998l0.83997,-0.50998l1.51994,0.39999l2.2999,-1.05996l0.14999,0.54998l-0.96996,1.05996l-1.09996,0.60997l-0.28999,0.73997l-0.84996,0.23999l-1.95992,1.48994l-1.34995,1.95992l-3.06988,0.21999l-1.82993,-0.24999l-1.09996,1.55994l0.33999,1.14995l-0.55998,0.75997l-0.1,1.00996l-1.81993,1.30995l0.23999,0.63997l-1.48994,0.77997l0.60997,1.08996l-0.40999,1.22995l-1.18995,0.95996l-3.39986,1.74993l-0.69997,-0.19999l-0.57997,1.36995l-1.56993,0.07999l-2.28991,1.61993l-3.24987,1.05996l-1.42994,-0.46999l-0.86996,0.74997l-0.88997,-0.20999l-0.60997,0.96996l-0.87996,-0.33999l-0.56997,1.11996l-1.43995,0.94996l-1.05996,0.02l-0.87996,1.02996l-0.66998,-0.50998l-0.85996,1.03996l-2.73989,1.18995l0.29999,1.02996l-1.15995,0.24999l-0.99996,0.94996l-1.33995,-0.21999l0.46998,1.22995l-0.55998,1.24995l-1.44995,-0.53997l-0.64997,1.24995l-0.51997,-1.06996l2.01991,-3.15987l-0.21999,-1.22995l0.33999,-1.98992l-0.87996,-0.79997l-1.12995,-0.33999l0.98996,-1.61993l1.48994,-0.42998l1.90992,-1.53994l1.21996,-1.48994l1.68993,-0.22999l1.30995,-1.70993l0.95996,-2.28991l0.49998,-1.92993l0.80996,-1.51993l-0.45998,-1.47994l-0.89997,-1.15995l0.05,-1.02996l1.47994,-1.63994l0.43998,-1.47994l1.51994,-1.16995l-0.07,-1.25995l0.74997,-2.99988l-0.44998,-2.3799l0.95997,-1.95992l0.28998,-1.72993l-0.91996,-1.43994l-0.37999,-1.33995l-1.07995,-1.46994l-0.24999,-1.36994l-1.91992,-4.38983l-2.79989,-3.46986l-2.30991,-0.72997l-0.69997,-0.40999l-0.80996,-3.21987l0.67997,-1.35994l-0.27998,-1.06996l0.37998,-1.82993l0.75997,-0.76997l0.03999,-1.06996l-0.86996,-1.69993l0.85996,-0.18999l4.52982,-0.12l1.47994,-0.60998l1.02996,-1.07996l1.01996,-1.54994l-0.02,-2.14992l0.86996,-1.03996l0.50998,-2.20991l1.34995,0.73997l-0.12,1.96992l1.63994,0.32999l1.74993,-0.33999l1.41994,-1.79993l1.93992,0.37998l0.19999,-2.03992l-1.51993,-1.25995l0.10999,-1.92992l3.10987,0.49998l1.05996,-0.21999l-0.69997,-1.78993l0.05999,-1.73993l-0.55998,-0.65998l0.03,-3.71985l-1.13996,-0.59997l0.51998,-1.32995l0.69997,-0.69997l-1.19995,-0.89997l-0.01,-0.51998l-1.27995,-0.46998l0.48998,-0.84996l-0.29999,-1.69993l0.78997,-1.74993l0.59998,-0.12l1.04996,0.63997l1.68993,-0.28999l1.15995,2.01992l3.71985,0.55998l0.46998,-0.35998l0.88996,0.71997l0.66998,-0.18999l0.46998,1.04996l-1.35995,1.44995l0.04,0.85996l1.21995,0.05l0.71997,0.60997l1.72993,-0.33998l0.24,2.86988l-0.44998,1.32995l1.54994,1.83992l-0.48998,0.66997l0.28999,1.09996l-0.23999,0.97996l0.66998,1.30994l0.58997,0.13l0.92996,1.09996l0.13999,1.21995l0.67997,1.00996l1.81993,-2.89988l0.67997,-0.23999l2.16991,1.81993l1.39994,1.63993l1.27995,0.49998l2.02992,-0.48998l1.07995,-0.75997l1.09996,0.42998l1.94992,1.31995l-0.41998,1.41994"/><path d="M295.55582,254.40051h-1.51994l0.19999,-1.45994l1.01996,-0.07l0.29999,1.52994"/></g></g></svg>