<svg version="1.1" xmlns="http://www.w3.org/2000/svg" xmlns:xlink="http://www.w3.org/1999/xlink" width="574.03966" height="450.70336" viewBox="0,0,574.03966,450.70336"><g transform="translate(-175.25365,164.80969)"><g data-paper-data="{&quot;isPaintingLayer&quot;:true}" fill="none" fill-rule="evenodd" stroke="#d645ff" stroke-width="72" stroke-linecap="round" stroke-linejoin="round" stroke-miterlimit="4" stroke-dasharray="" stroke-dashoffset="0" style="mix-blend-mode: normal"><g><path d="M434.14798,166.867l0.85986,2.42461l-1.36978,-0.04399l-0.70989,2.19165l-1.80971,-0.48192l-2.62958,2.28363l-1.72972,-0.90186l0.30995,-1.55075l2.53959,-1.29679l2.99952,0.67689l-0.11998,-1.77072l1.65973,-1.53076"/><path d="M413.06135,164.92431l1.01984,1.8697l5.20917,-0.78187l-1.53975,2.10266l2.09966,1.92269l-2.27964,0.33595l-3.81939,-0.87586l0.09998,-2.54659l-2.35962,-0.24896l1.56975,-1.77772"/><path d="M437.7874,152.97522l2.64958,1.94469l3.88938,0.07699l-2.20965,4.47428l1.83971,0.99384l-1.66973,2.06667l-3.17949,1.00384l-3.24948,1.92669l0.27996,-1.54775l-1.51976,-3.46545l-3.01952,-3.64842l1.04983,-1.73772l5.13918,-2.08767"/><path d="M455.50457,138.81449l1.59974,1.73072l2.23964,-0.14498l0.6199,3.0945l-4.85922,-0.43993l-3.87938,-1.00284l2.43961,-0.13298l1.83971,-3.1045"/><path d="M507.47625,106.2137l3.16949,1.68773l2.92953,3.81439l2.66957,1.54775l-1.68973,0.82387l-0.44993,3.37046l-1.92969,-1.2208l-1.72972,1.14482l-1.45977,-0.79387l-2.09966,1.51776l0.87986,2.65957l-2.34962,-1.41077l-2.92953,4.88622l-5.36914,1.43577l-0.75988,1.76572l-1.90969,-1.81171l-2.10966,2.37962l0.91985,0.95785l-1.49976,2.23564l-3.25948,0.68489l0.42993,-1.72872l-1.63974,-0.95485l-1.58975,-2.91353l-2.85954,-0.30895l2.03967,-4.75924l-2.09966,-3.33347l2.4896,-2.43461l1.62974,0.40893l3.54943,-1.51676l2.02968,0.34694l4.3993,-0.82987l-0.52992,-1.82171l2.90953,-1.84271l2.36962,-2.4756l1.93969,-0.53291l2.94953,1.83371l-0.39994,-2.69957l1.35978,-0.11198"/><path d="M358.06016,42.93483l0.66989,0.26096l0.44993,6.20201l1.77972,3.35346l-0.48992,2.78455l-1.42977,1.36778l0.07999,2.55459l-1.93969,4.41429l-2.54959,3.55343l-3.93937,3.85638l-2.38962,6.81991l0.49992,2.91353l-2.23964,4.33131l-1.71972,1.02684l-2.73956,4.17633l-2.28963,2.39262l-2.5196,4.50228l-1.10982,3.69341l-2.4996,4.53727l0.46992,4.08635l-1.71972,5.88706l-2.01968,1.79571l-0.19997,2.77456l0.98984,5.22216l2.27964,2.82155l2.90953,5.78807l1.53975,4.50828l1.2398,1.2298l9.84842,4.10834l8.05871,2.60558l1.77972,2.18665l-0.07999,3.03851l-2.17965,1.08383l-1.75972,-2.07367l3.04951,0.04499l-0.08999,-3.45945l-2.77956,-1.48176l-3.65941,1.02284l-0.36994,-2.37462l-7.00888,-1.71273l0.24996,3.63242l1.94969,1.51176l0.32995,3.81039l1.8497,3.25448l2.17965,13.22588l1.54975,5.0142l1.8997,4.02836l2.59958,3.91637l7.39882,7.30283l1.18981,-0.17697l8.39866,3.53343l2.94953,-5.55111l4.30931,-2.60958l1.59974,-2.85954l5.69909,-3.67741l1.2198,-2.46561l7.06887,1.14582l1.20981,-1.46876l5.22916,1.03783l2.45961,-0.18897l0.06999,2.74456l-5.23916,3.52444l-0.24996,0.79387l-5.05919,0.32995l-2.91953,2.09466l-3.78939,-0.32295l-2.87954,1.45577l0.14998,1.36878l-2.13966,3.1205l-2.38962,-0.43793l-1.58975,7.99372l-2.12966,2.29963l0.6099,2.04167l-2.30963,0.19497l-0.33995,1.60374l1.51976,1.46277l-2.76956,1.14982l0.68989,-2.11566l-1.32979,-1.55775l-3.80939,-0.42493l-10.99824,1.39278l-2.42961,1.61374l-1.97968,-0.80187l-4.82923,1.8927l-3.07951,2.65957l-3.44945,-0.023l-1.42977,-1.46477l-4.69925,2.44761l-1.10982,2.42961l0.43993,4.16933l4.93921,0.77988l-3.99936,1.51976l-1.99968,-1.61974l-1.72972,1.69973l0.03999,2.62958l-5.80907,2.66957l-0.42993,3.48944l-5.38914,2.95953l-4.52928,-1.20981l-4.51928,0.71988l-2.68957,-2.37962l-0.56991,-1.72972l-1.55975,0.11998l0.30995,-2.74956l1.81971,-2.03967l-3.54943,-1.41977l-4.16933,1.09982l-3.1095,3.7194l-2.39962,6.19901l2.63958,3.17949l3.68941,2.36962l-4.83923,0.6199l-6.18901,-0.74988l-4.53927,-1.68973l-7.80875,0.6099l-2.65957,-0.50992l-3.97936,1.51976l-3.46944,-0.58991l-1.2498,-1.19981l-6.32899,-2.04967l-0.28995,-2.4796l-1.41977,-1.61974l-1.68973,0.48992l-2.64958,-1.33979l-3.87938,0.03999l-9.44849,2.15965l-10.04839,4.68925l-5.05919,2.72956l-6.79891,4.76924l-9.23852,7.65877"/><path d="M440.95689,18.26678l3.18949,3.66941l2.77956,1.33179l1.30979,3.69941l4.14934,1.8597l0.22996,1.07283l5.43913,2.38762l5.97904,-0.6349l4.01936,0.43093l7.09886,-1.05083l3.68941,-1.49276l2.82955,-2.5086l-2.24964,3.89638l-1.76972,6.55195l-4.92921,3.7704l-3.08951,-3.32447l-2.67957,0.33795l-3.81939,2.13866l-2.23964,2.96353l-0.10998,2.88754l-1.53975,-0.38994l-2.07967,3.21549l-1.00984,0.08099l-2.25964,2.94653l-7.12886,0.40094l-12.01808,1.8657l-3.59942,3.54943l-2.05967,4.80223l0.68989,0.75388l-3.04951,2.38662l-4.43929,1.16281l-1.39978,2.22264l-2.06967,-0.015l-3.91937,4.46029l-0.28995,3.67141l-1.31979,0.08499l-1.8997,3.32747l-0.75988,3.15649l1.17981,3.20449l-2.39962,0.56091l0.37994,-1.28179l-2.25964,-0.16097l-1.54975,1.37478l-2.87954,7.08687l0.11998,2.89054l-1.06983,2.39662l-1.31979,-0.05899l-5.10918,2.93153l-4.08935,0.75888l-0.88986,-0.68989l-2.61958,1.11782l-3.41945,4.76924l-1.91969,0.82487l-0.94985,2.89854l-0.6099,6.53095l0.25996,2.21065l-1.14982,7.46081l-0.6099,7.44481l-1.59974,2.28863l-0.05999,-5.07519l1.28979,-5.57811l-5.92905,-0.30095l-5.78907,1.67073l-1.51976,-4.27432l0.78987,-3.93237l-1.77972,-5.5991l-0.95985,-1.01884l0.81987,-2.01168l3.39946,-1.11182l2.24964,-5.37814l2.21964,-2.15566l4.82923,-2.32363l0.10998,-1.36778l5.48912,-2.80355l0.42993,-2.25164l4.66925,-2.95553l1.38978,-2.04467l2.15965,-1.10282l-0.10998,-1.78471l6.06903,-3.1105l1.2298,-3.40645l-0.42993,-4.56827l1.01984,-0.78287l3.34946,-5.42813l3.03951,-2.39462l3.68941,-4.91621l0.5999,-2.5306l2.82955,-4.49728l6.47896,-5.6041l3.37946,-3.7764l1.2298,-2.44161l0.96984,-5.19017l-0.40993,-0.90885l4.50928,-5.27416l3.1195,-7.94373l4.71924,-4.71125l3.7394,-1.34378"/><path d="M699.50552,-128.80969l5.99904,0.6499l4.3993,1.70273l3.07951,2.82855l0.30995,4.81023l-1.59974,1.75972l-4.26932,2.15266l-0.31995,4.43629l2.36962,1.2658l2.42961,3.57543l-0.65989,2.15366l-2.80955,4.13734l0.05999,1.90669l-3.85938,0.06599l-2.71956,1.93969l-3.84938,-2.09666l-9.10854,0.77688l-0.78987,-0.48792l-3.45945,2.02868l-3.08951,0.6499l-4.22932,3.37646l-3.70941,5.20217l-1.64974,-0.70489l-2.19965,1.64774l-1.38978,-0.56691l-3.85938,2.88754l-7.91873,1.55675l-4.57927,2.93653l-1.70973,2.4766l-2.09966,0.026l-4.74924,4.93721l-2.5196,0.30995l-6.78891,4.85122l-3.26948,3.7264l-1.18981,2.73656l-1.38978,0.24696l-4.17933,5.5941l-1.8497,3.32547l-2.88954,0.85086l-2.57959,2.02168l-2.18965,2.95953l-5.34914,-0.6259l-3.83939,1.90869l-2.74956,0.5969l-4.12934,-2.60958l-1.59974,-2.10266l0.06999,-2.81755l-4.24932,-0.6049l-3.1295,1.55575l-3.7494,4.72324l-0.58991,2.97452l3.98936,2.16765l-5.26916,8.38466l-0.12998,1.64774l-4.65925,5.25016l-3.42945,0.46793l-1.97968,1.82671l-0.99984,2.62158l-2.36962,0.18497l-4.12934,2.14866l-3.62942,2.65657l-1.90969,2.98852l-2.96952,1.34978l-3.63942,6.59594l-1.67973,1.28179l-1.75972,3.1205l-1.32979,5.15717l-0.96984,-0.006l-3.65941,4.02036l-5.12918,1.58175l-4.52928,-1.2308l-3.49944,1.8947l-4.62926,5.17817l-2.25964,4.00536l-1.45977,5.25716l-2.98952,3.20749l-5.0192,0.19797l-4.57927,-2.11566l-0.6099,-1.2518l1.77972,-6.67693l2.08967,-2.87654l2.38962,-0.53191l3.27948,-4.47928l-2.19965,-3.38646l0.34994,-3.7614l1.74972,-2.69457l0.6499,4.44029l3.20949,2.71557l3.47944,-3.29547l0.67989,-5.6181l-2.92953,-2.36962l2.44961,-0.95285l3.16949,0.95685l1.37978,2.57259l1.91969,-0.12498l3.66941,-2.00468l3.45945,-4.28831l1.44977,-0.75288l1.53975,-3.71441l0.58991,-3.87638l-1.00984,-3.25348l-6.43897,-0.75188l-2.4796,-4.3453l-0.08999,-2.03167l3.03951,-1.95069l3.91937,1.53275l2.32963,3.03951l5.21916,-1.79671l1.83971,-5.46513l-0.02,-2.18665l6.219,-3.65641l0.83987,0.13698l6.19901,-4.25432l5.74908,-7.40282l3.52944,-2.59358l2.84954,-1.03183l-0.56991,-4.19133l1.13982,-1.2308l0.72988,-5.45813l-0.33995,-3.49244l-3.08951,-1.46377l1.2698,-1.19381l2.80955,1.68073l1.8897,-0.59091l3.50944,3.78639l4.74924,1.12082l5.12918,-2.74556l0.81987,-1.33379l-0.57991,-4.10034l1.50976,-4.63926l2.08967,-1.40877l0.69989,-2.55559l3.26948,-0.26696l0.53991,-1.54675l5.38914,-1.54475l1.54975,1.47576l2.98952,-3.1465l0.92985,-3.07051l-1.51976,-1.95069l0.58991,-4.42929l-1.54975,-3.55343l-0.76988,-6.08303l2.81955,-6.17401l2.69957,-3.32147l2.07967,-1.12082l3.95937,2.53459l0.04999,3.53044l1.28979,4.91221l2.66957,3.65542l-0.79987,1.64474l1.18981,4.74024l2.99952,3.40845l6.48896,1.37578l6.279,-0.27396l7.10886,-1.12382l7.39882,-2.01968l2.83955,-1.18081l0.20997,-1.2328l5.10918,-3.23448l3.20949,-3.44945l3.51944,-2.35762l-0.68989,-0.96085l2.64958,-2.58959l-0.96984,-1.96269l1.64974,-2.99152l2.53959,-1.58475l0.84986,-2.16365l3.86938,-1.95569l1.90969,-4.07635l2.82955,-0.24596l3.22948,-2.4886l1.2598,-4.07435l7.03887,-0.92285l3.04951,-1.8737"/></g></g></g></svg>