<svg version="1.1" xmlns="http://www.w3.org/2000/svg" xmlns:xlink="http://www.w3.org/1999/xlink" width="107.01573" height="101.85594" viewBox="0,0,107.01573,101.85594"><g transform="translate(-201.26648,-196.70579)"><g data-paper-data="{&quot;isPaintingLayer&quot;:true}" fill="#ff0000" fill-rule="evenodd" stroke="none" stroke-width="0" stroke-linecap="round" stroke-linejoin="round" stroke-miterlimit="10" stroke-dasharray="" stroke-dashoffset="0" style="mix-blend-mode: normal"><path d="M216.73589,298.11171l-2.4799,-1.11996l-1.02996,0.11l0.40998,1.27995l-1.35995,0.06l-1.75993,-0.92996l-0.59998,-0.78997l-0.1,-2.11992l-1.04996,0.26999l-0.78997,-0.56998l-0.45998,-0.99996l-1.01996,-0.16999l-0.74997,-2.5999l-0.72997,-1.39994l-1.04996,-0.14999l-1.59994,-0.89996l-0.84997,-1.18995l0.29999,-1.18995l-0.31999,-0.77997l0.48998,-1.47994l-0.71997,-1.06996l0.44998,-1.83993l0.42998,1.24995l1.25995,0.13999l0.29999,-1.16995l1.97992,0.18999l0.36999,-1.88992l-2.03992,-2.03992l-0.01,-0.84997l1.31995,0.38998l0.40998,-1.85993l1.09996,0.37998l0.81997,-0.79997l0.16999,-0.79997l0.89996,-0.36999l0.14999,-0.79997l1.46994,0.22999l2.5599,1.14995l0.81997,-2.5899l-0.27999,-1.09996l1.01996,-0.95996l1.17995,1.40994l1.60994,-1.48994l0.01,-0.59998l-1.61994,-2.83989l0.63997,-1.45994l0.36999,-1.18995l0.76997,-0.58998l0.19999,-1.07996l0.59998,-0.35999l0.86997,0.55998l0.72997,-0.55998l2.33991,0.50998l1.02996,-0.18999l2.36991,1.37994l0.80997,-0.53998l-0.66997,-2.15991l-0.55998,-0.39998l0.48998,-1.11996l-0.31999,-1.10996l0.21999,-2.3799l1.98992,0.54998l-1.35995,-1.71993l0.16999,-2.29991l-0.43998,-0.64997l0.86997,-0.76997l-0.64997,-1.74993l0.37998,-1.34995l0.89996,-1.00996l-0.90996,-1.29995l0.32999,-1.63993l-1.61994,-0.62997l0.48998,-1.45994l1.78993,-1.00996l0.17999,-1.48994l-0.65997,-0.74997l1.39994,-1.44994l0.70997,-1.27995l-1.36995,-1.04996l0.12999,-0.61998l-0.59998,-1.57994l-1.55994,-1.21995l-0.28999,-1.52994l0.54998,-0.48998l1.11996,0.06l1.78993,-1.34995l2.88988,0.30999l0.22999,-0.92996l0.76997,-0.42998l1.48994,0.22999l0.55998,-1.39994l-0.26999,-0.66997l2.14991,-1.21995l0.72997,0.22999l3.56986,-0.85997l0.86997,-1.14995l1.17995,-0.45998l-1.43994,-1.68993l1.61994,-2.92988l1.70993,0.18999l0.82997,-0.33999l2.5099,0.50998l0.45998,-0.44998l1.43994,0.37998l1.51994,-0.38998l1.94992,0.57998l0.11,-0.46998l1.97992,-1.11996l1.26995,0.01l0.81997,-0.41998l1.35995,0.46998l1.98992,-0.60998l1.40994,-0.88996l-0.19999,-0.62997l2.11992,-0.43998l0.94996,-1.03996l2.3999,-1.22995l0.67997,0.12l2.16991,-0.64997l0.28999,1.21995l2.73989,-0.87996l0.58998,-1.18995l-0.34999,-0.39998l0.16999,-1.87992l2.06992,-2.34991l1.07996,-0.64997l0.06,-0.90996l2.33991,0.08l1.03996,-0.66997l0.58998,0.34999l0.64997,-1.06996l-1.50994,-0.94996l0.17999,-1.12995l1.10996,-0.68997l-0.23999,-0.62997l0.44998,-1.18995l0.64997,0.96996l2.13991,0.85997l0.58998,0.50998l2.17991,0.30999l3.71985,2.3899l1.20995,1.35995l1.15995,0.56998l1.87992,0.28999l1.31995,-0.20999l1.14995,2.87988l0.83997,-0.99996l-0.42998,-1.48994l0.96996,0.15999l0.05,1.46994l1.04996,0.46998l0.20999,0.86997l1.06996,0.31999l0.85997,-0.38998l0.50998,0.86997l0.06,1.17995l-0.41998,1.01996l2.4799,1.04996l0.41998,-0.78997l1.78993,0.16999l0.76997,1.48994l-0.37998,1.63993l0.46998,0.64997l-0.75997,2.29991l-0.69997,0.69997l-0.18999,2.5199l-0.90996,-0.37998l-0.50998,-1.27995l-1.94992,0.61998l0.28999,1.22995l-1.46994,0.79997l-1.44994,-0.56998l-0.94996,1.00996l-1.45994,-0.14999l-0.28999,0.85997l0.64997,0.62997l1.45994,-0.75997l-0.09,-0.74997l1.17995,-0.41998l-0.12,1.39994l1.03996,-0.55998l1.08996,1.15995l1.98992,-1.63993l1.09996,0.33999l-0.18999,0.88996l-1.92992,1.20995l-0.40998,1.21995l0.11,1.22995l1.33995,1.49994l-0.69997,1.88992l1.25995,1.29995l-0.02,1.20995l-1.94992,0.44998l-0.82997,-0.08l0.03,1.30995l-1.71993,0.11l-1.24995,1.13995l-2.11992,0.19999l-1.31995,-0.45998l-4.06984,-0.74997l-0.36999,-1.55994l0.38998,-0.55998l1.93992,-0.02l1.87992,0.60998l2.5799,0.26999l0.28999,-1.58994l0.66997,-0.86997l-1.01996,-1.39994l0.86997,-0.59998l-1.88992,-0.55998l-0.52998,0.25999l-1.09996,-0.58998l0.64997,2.10992l-1.06996,0.85997l-1.11996,0.17999l-1.39994,-0.86997l0.26999,-2.11992l-1.31995,0.09l0.29999,0.78997l-0.59998,1.13995l-0.86997,0.49998l-1.51994,-1.10996l-1.11996,-0.23999l-1.04996,0.34999l-0.12999,0.85997l-1.38994,0.17999l-0.87996,0.62997l-0.06,-2.18991l0.85997,-2.13991l1.22995,-0.87996l1.00996,0.04l0.12999,-0.95996l-1.38994,-0.18999l-0.87996,-0.74997l-0.42998,1.23995l-0.76997,0.28999l-0.54998,-1.14995l-2.00992,-0.31999l-0.44998,0.74997l1.37994,0.24999l0.21999,1.30995l-1.18995,0.40998l-1.13995,0.82997l1.26995,0.60998l0.15999,1.09996l-1.02996,0.62997l0.13999,1.17995l-1.93992,0.29999l-0.05,1.07996l-1.38994,0.20999l-0.82997,0.54998l-0.75997,1.30995l-1.93992,0.13999l-0.91996,-2.5299l2.03992,-1.51994l-2.66989,0.24999l-1.68993,0.96996l-0.04,2.3999l-0.72997,0.93996l-0.79997,-0.91996l0.49998,-0.64997l-0.19999,-1.37994l-1.15995,0.51998l-0.45998,0.74997l-1.19995,-0.33999l0.13999,-1.01996l-0.83997,-0.07l0.01,1.75993l-0.82997,2.4399l0.45998,1.49994l-1.99992,1.42994l0.08,-0.96996l-1.46994,-0.53998l-0.77997,-0.81997l0.83997,-1.24995l-0.26999,-0.89996l-1.24995,1.43994l0.19999,2.83989l-2.04992,0.08l-0.87996,0.77997l-2.6099,1.14995l-1.09996,-1.60994l-0.28999,1.20995l-1.16995,1.30995l-1.19995,0.60998l-0.64997,-0.78997l-0.20999,-1.10996l-1.48994,0.41998l-0.04,1.41994l-0.63997,0.62997l-1.11996,0.19999l-0.36999,0.79997l-1.40994,-0.05l-1.32995,1.78993l-1.22995,0.55998l0.69997,1.49994l-0.80997,1.02996l0.66997,2.04992l0.93996,1.20995l0.61998,-0.69997l1.43994,0.09l-1.09996,2.01992l-1.58994,0.84997l-1.25995,1.31995l-0.87996,-1.71993l-0.72997,1.12995l-0.68997,-0.66997l-0.25999,-1.16995l1.85993,-1.16995l0.76997,-1.20995l-0.87996,-0.19999l-1.30995,1.51994l-2.4999,1.56994l0.93996,1.13995l-3.50986,2.07992l0.90996,0.79997l3.06988,0.22999l0.29999,0.92996l-0.02,2.09992l1.05996,0.24999l2.5899,1.64993l-1.75993,1.44994l0.78997,0.57998l-0.75997,1.95992l0.86997,0.14999l-0.14999,2.05992l-0.79997,0.49998l-1.01996,-0.02l-0.35999,-0.64997l-0.96996,0.47998l-0.37998,-1.36995l1.25995,-0.63997l-2.11992,-0.39998l-1.46994,-0.79997l0.31999,1.45994l-1.34995,1.45994l0.18999,0.76997l1.51994,-1.18995l0.58998,0.93996l0.25999,1.80993l-1.08996,0.61998l-0.53998,1.10996l-0.77997,-0.78997l-1.26995,0.51998l-0.13999,0.69997l0.86997,1.41994l-1.31995,0.87996l-1.49994,0.16999l-0.11,-1.39994l-0.46998,-0.56998l-1.35995,-0.19999l0.42998,1.28995l-0.29999,1.01996l-0.71997,0.02l-0.28999,0.93996l0.91996,0.48998l-1.46994,1.46994l-0.76997,0.12999l-0.35999,-1.26995l-0.66997,-0.15999l-0.39998,1.18995l-0.73997,-0.13999l-2.06992,2.4699l-0.91996,1.42994l-1.96992,3.80985l-1.10996,2.4499l-2.16991,6.04976l-0.59998,2.98988l-0.63997,0.86997l-0.37998,-0.44998"/><path d="M304.53237,202.81553l-0.82997,0.16999l-1.94992,1.06996l-1.01996,-0.66997l1.05996,-0.74997l1.32995,-0.18999l0.37998,-1.23995l0.58998,-0.05l1.69993,-1.08996l0.50998,1.14995l-1.76993,1.59994"/><path d="M306.3323,205.9154l-0.88996,0.79997l-1.22995,0.24999l-1.01996,-0.23999l0.53998,-1.27995l2.03992,-0.53998l0.51998,-0.51998l0.54998,0.41998l-0.50998,1.10996"/></g></g></svg>