<svg version="1.1" xmlns="http://www.w3.org/2000/svg" xmlns:xlink="http://www.w3.org/1999/xlink" width="208" height="32" viewBox="0,0,208,32"><g transform="translate(-240,-164)"><g data-paper-data="{&quot;isPaintingLayer&quot;:true}" fill-rule="nonzero" stroke="none" stroke-linecap="butt" stroke-linejoin="miter" stroke-miterlimit="10" stroke-dasharray="" stroke-dashoffset="0" style="mix-blend-mode: normal"><path d="M240,196v-32h208v32z" fill="none" stroke-width="0"/><path d="M253.32,174.25c1.77733,0.60547 3.52537,1.34767 5.2441,2.2266l-1.2988,1.5039c-1.60807,-0.93747 -3.1673,-1.735 -4.6777,-2.3926c-0.98307,1.16533 -2.52603,1.96287 -4.6289,2.3926l-0.99609,-1.5625c2.41533,-0.42969 3.8997,-1.23699 4.4531,-2.4219h-4.2188v-1.6992h4.4238v-1.7969h2.0215v1.7969h4.9414v1.6992h-5.1855c0,0.013 -0.02603,0.09764 -0.0781,0.25391zM257.529,179.8555v7.8418c0,0.70967 -0.16927,1.19793 -0.50782,1.4648c-0.27995,0.22786 -0.77475,0.34179 -1.4844,0.34179c-0.918,0 -1.82293,-0.04883 -2.7148,-0.14648l-0.4004,-1.7774c0.944,0.10417 1.7513,0.15625 2.4219,0.15625c0.29297,0 0.472,-0.05859 0.53711,-0.17578c0.0586,-0.09115 0.0879,-0.25716 0.0879,-0.49804v-7.207h-9.5215v-1.8164h13.604v1.8164zM242.568,174.8164v-4.3164h2.002v4.3164h1.8359v1.9434h-1.8359v6.7774c0.72267,-0.26693 1.34117,-0.50456 1.8555,-0.71289l0.25391,1.8555c-1.6146,0.79427 -3.53843,1.54623 -5.7715,2.2559l-0.68359,-2.0801c0.74867,-0.18881 1.52993,-0.40691 2.3438,-0.6543v-7.4414h-2.0606v-1.9434zM253.945,181.1348v5.3613h-4.6191v1.0254h-1.7969v-6.3867zM249.3259,182.7364v2.1387h2.8809v-2.1387z" fill="#ffffff" stroke-width="1"/><path d="M271.04,173.52v4.9609h6.5039v1.9434h-6.5039v6.2109h8.125v1.9824h-18.301v-1.9824h7.959v-6.2109h-6.3379v-1.9434h6.3379v-4.9609h-7.2168v-1.9824h16.816v1.9824zM276.0205,185.942c-0.7096,-1.21747 -1.6536,-2.4512 -2.832,-3.7012l1.7774,-1.123c1.16533,1.21093 2.13213,2.4056 2.9004,3.584z" fill="#ffffff" stroke-width="1"/><path d="M296.76,170.98v9.4629h-11.621v-9.4629zM287.2385,172.523v1.2207h7.4023v-1.2207zM287.2385,175.1207v1.2207h7.4023v-1.2207zM287.2385,177.7183v1.2598h7.4023v-1.2598zM283.3029,181.7417h16.191v1.6992h-8.0762v6.0644h-2.2168v-6.0644h-8.0371v-10.957h2.1387zM280.8029,187.6401c1.54947,-0.71613 3.0306,-1.9173 4.4434,-3.6035l1.7969,1.0449c-1.3932,1.76433 -2.93943,3.15107 -4.6387,4.1602zM297.6389,188.8999c-0.99607,-1.22393 -2.49347,-2.50973 -4.4922,-3.8574l1.6797,-1.1816c1.569,0.90493 3.1087,2.09307 4.6191,3.5644z" fill="#ffffff" stroke-width="1"/><path d="M312.66,174.22v-3.7207h1.9824v3.7207h4.1016v1.9043h-4.1016v3.3301h4.8535v1.9043h-4.4629c0.83333,2.47393 2.39583,4.53447 4.6875,6.1816l-1.2598,1.9629c-1.05467,-0.8138 -2.08007,-1.93683 -3.0762,-3.3691c-0.63151,-0.90493 -1.14258,-1.90427 -1.5332,-2.998c-0.96353,3.04033 -2.72133,5.22133 -5.2734,6.543l-1.377,-1.6602c1.53647,-0.67707 2.80273,-1.7513 3.7988,-3.2227c0.66407,-0.98307 1.14583,-2.1289 1.4453,-3.4375h-4.4043v-1.9043h4.6191v-3.3301h-2.0606c-0.33203,0.93747 -0.75196,1.82613 -1.2598,2.666l-1.4356,-1.1328h-2.4414v1.4941c1.0026,0.74867 1.84897,1.50387 2.5391,2.2656l-1.1035,1.8262c-0.39713,-0.67707 -0.87567,-1.3509 -1.4356,-2.0215v8.2812h-1.9238v-8.4863c-0.6706,1.88153 -1.46487,3.46357 -2.3828,4.7461l-1.0156,-1.9824c1.40627,-1.7578 2.4512,-3.7988 3.1348,-6.123h-2.793v-1.8555h3.0566v-2.5098c-0.7552,0.14973 -1.52017,0.26692 -2.2949,0.35156l-0.70312,-1.543c2.21353,-0.29297 4.24153,-0.79427 6.084,-1.5039l1.1719,1.543c-0.59896,0.20833 -1.37696,0.44596 -2.334,0.71289v2.9492h2.4609v1.5137c0.76173,-1.37367 1.3607,-3.2324 1.7969,-5.5762l1.8359,0.36133c-0.11067,0.7682 -0.24414,1.47457 -0.40039,2.1191z" fill="#ffffff" stroke-width="1"/><path d="M328.65,183.86c-0.78773,-0.7682 -1.6536,-1.74477 -2.5976,-2.9297c-0.59245,-0.7422 -1.13608,-1.4909 -1.6309,-2.2461l1.6016,-1.3672c0.98307,1.60807 2.35677,3.2845 4.1211,5.0293c1.4388,-1.67967 2.54883,-3.46027 3.3301,-5.3418l2.0215,0.9961c-0.7552,1.6406 -1.61457,3.0794 -2.5781,4.3164c-0.28646,0.37109 -0.68359,0.84309 -1.1914,1.416c2.03773,1.52993 4.61587,2.74413 7.7344,3.6426l-1.3574,2.0801c-3.2096,-1.13933 -5.84957,-2.53257 -7.9199,-4.1797c-2.0768,1.85547 -4.80467,3.27147 -8.1836,4.248l-1.2012,-1.748c2.27867,-0.6706 4.11787,-1.40627 5.5176,-2.207c0.83987,-0.48829 1.61787,-1.05795 2.334,-1.709zM320.8375,177.3366c2.35027,-1.54947 4.23177,-3.68163 5.6445,-6.3965l1.9922,0.99609c-1.77733,3.19013 -3.84763,5.55017 -6.2109,7.0801zM337.4585,178.9577c-1.91407,-2.69533 -3.89973,-5.04233 -5.957,-7.041l1.7773,-1.1133c1.99867,1.89453 3.97783,4.10157 5.9375,6.6211z" fill="#ffffff" stroke-width="1"/></g></g></svg>