<svg version="1.1" xmlns="http://www.w3.org/2000/svg" xmlns:xlink="http://www.w3.org/1999/xlink" width="28.25927" height="95.16661" viewBox="0,0,28.25927,95.16661"><g transform="translate(-578.4612,-361.19896)"><g data-paper-data="{&quot;isPaintingLayer&quot;:true}" fill="#ff0000" fill-rule="evenodd" stroke="#ff0000" stroke-width="10" stroke-linecap="round" stroke-linejoin="round" stroke-miterlimit="10" stroke-dasharray="" stroke-dashoffset="0" style="mix-blend-mode: normal"><path d="M594.32077,367.40893l1.25995,0.75997l0.18999,1.06996l1.64993,0.61998l0.24999,0.96996l2.78989,0.46998l1.24995,2.12991l-0.27999,0.90996l0.28999,1.41994l-1.74993,0.34999l-0.67997,1.21995l-0.1,2.4299l-1.21995,-1.48994l-2.3799,-0.55998l-1.18995,-0.84997l-0.39998,-0.70997l-0.14999,-2.4099l-1.17995,-0.70997l-0.93996,-0.1l-0.65997,-1.57994l-1.11996,-1.85993l-0.08,-1.67993l1.00996,-1.36995l1.08996,-0.23999l1.59994,0.31999l0.74997,0.88996"/><path d="M594.02078,449.70564l-0.16999,1.17995l-0.89996,0.47998l-1.54994,-0.96996l0.06,-2.4199l0.31999,-0.19999l1.14995,0.52998l1.08996,1.39994"/><path d="M585.92111,371.00879l-1.61994,-0.03l-0.83997,-1.44994l1.04996,-0.69997l1.30995,1.43994l0.1,0.73997"/></g></g></svg>