<svg xmlns="http://www.w3.org/2000/svg" viewBox="0 0 400 400" version="1.1" height="400" width="400"><defs><radialGradient gradientUnits="userSpaceOnUse" gradientTransform="translate(-40,20)" r="200" cy="180" cx="240" id="a"><stop offset="0" stop-color="#e52a18"></stop><stop offset=".4" stop-color="#e52a18"></stop><stop offset=".55" stop-opacity=".56078" stop-color="#e52a18"></stop><stop offset=".7" stop-opacity=".25098" stop-color="#e52a18"></stop><stop offset=".85" stop-opacity=".058824" stop-color="#e52a18"></stop><stop offset="1" stop-opacity="0" stop-color="#e52a18"></stop></radialGradient></defs><g stroke-miterlimit="10"><path style="mix-blend-mode:normal" stroke-width="0" fill="none" d="m0 400v-400h400v400z"></path><path style="mix-blend-mode:normal" opacity=".04" fill-rule="evenodd" fill="url(#a)" d="m0 200c0-110.46 89.543-200 200-200s200 89.543 200 200-89.543 200-200 200-200-89.543-200-200z"></path><path stroke-width="15" stroke-linejoin="round" stroke-linecap="round" stroke="#f5947c" stop-color="#000000" fill-rule="evenodd" fill="#e52a18" d="m284.5 200c0 58.335-26.165 84.5-84.5 84.5s-84.5-26.165-84.5-84.5 26.165-84.5 84.5-84.5 84.5 26.165 84.5 84.5z"></path></g><path style="font-feature-settings:normal;font-variant-alternates:normal;font-variant-caps:normal;font-variant-east-asian:normal;font-variant-ligatures:normal;font-variant-numeric:normal;font-variant-position:normal;font-variation-settings:normal;inline-size:0;isolation:auto;mix-blend-mode:normal;shape-margin:0;shape-padding:0;text-decoration-color:#000000;text-decoration-line:none;text-decoration-style:solid;text-indent:0;text-orientation:mixed;text-transform:none;white-space:normal" stop-color="#000000" shape-rendering="auto" image-rendering="auto" fill="#f5947c" color-rendering="auto" color="#000000" d="m200.28 146.25c-10.659 0-20.152 2.367-28.416 7.1133h-2e-3c-5.0933 2.9287-9.4735 6.7162-13.123 11.342l-0.58789 0.74609 0.71289 0.625 11.865 10.398 0.65625-0.78711c7.992-9.5823 17.581-14.287 29.02-14.287 5.7517 0 10.395 0.9211 13.947 2.6973 4.3472 2.2148 6.3047 5.0766 6.3047 8.9531 0 2.9865-0.74929 5.4291-2.2344 7.4473h-4e-3v4e-3c-1.4609 1.9991-3.9853 4.1639-7.5762 6.4082-2.879 1.7942-4.8779 3.124-6.0644 4.0469l-4e-3 4e-3h-2e-3c-4.5617 3.5812-7.8436 7.8015-9.7832 12.629v4e-3c-2.0181 5.0667-3 11.417-3 19.064v1h15.771v-1c0-6.4357 0.86143-11.248 2.4473-14.381l4e-3 -4e-3c1.6841-3.3682 6.573-7.5992 14.688-12.295l4e-3 -2e-3h2e-3c5.3003-3.1129 9.2956-6.2638 11.98-9.5117l2e-3 -4e-3v-2e-3c3.2876-4.0229 4.9648-8.6413 4.9648-13.719 0-3.6101-1.1121-7.137-3.2754-10.512l-2e-3 -2e-3c-2.4619-3.8007-5.9542-7.0273-10.426-9.668h-4e-3c-7.1428-4.2337-16.444-6.3086-27.865-6.3086zm-11.096 86.127v21.381h21.258v-21.381z"></path></svg>
