<svg xmlns="http://www.w3.org/2000/svg" viewBox="0 0 180 40" version="1.1" height="40" width="180">
 <g shape-rendering="auto" fill-rule="evenodd">
  <path style="font-feature-settings:normal;font-variant-alternates:normal;font-variant-caps:normal;font-variant-east-asian:normal;font-variant-ligatures:normal;font-variant-numeric:normal;font-variant-position:normal;font-variation-settings:normal;inline-size:0;isolation:auto;mix-blend-mode:normal;paint-order:stroke markers fill;shape-margin:0;shape-padding:0;text-decoration-color:#000000;text-decoration-line:none;text-decoration-style:solid;text-indent:0;text-orientation:mixed;text-transform:none;white-space:normal" stop-color="#000000" image-rendering="auto" fill="#7d97b4" color-rendering="auto" color="#000000" d="m17 3c-3.8434 0-7 3.1566-7 7v20c0 3.8434 3.1566 7 7 7h146c3.8434 0 7-3.1566 7-7v-20c0-3.8434-3.1566-7-7-7z"></path>
  <path style="font-feature-settings:normal;font-variant-alternates:normal;font-variant-caps:normal;font-variant-east-asian:normal;font-variant-ligatures:normal;font-variant-numeric:normal;font-variant-position:normal;font-variation-settings:normal;inline-size:0;isolation:auto;mix-blend-mode:normal;paint-order:stroke markers fill;shape-margin:0;shape-padding:0;text-decoration-color:#000000;text-decoration-line:none;text-decoration-style:solid;text-indent:0;text-orientation:mixed;text-transform:none;white-space:normal" stop-color="#000000" image-rendering="auto" fill="#31476d" color-rendering="auto" color="#000000" d="m17 5h146c2.77 0 5 2.23 5 5v20c0 2.77-2.23 5-5 5h-146c-2.77 0-5-2.23-5-5v-20c0-2.77 2.23-5 5-5z"></path>
  <path style="font-feature-settings:normal;font-variant-alternates:normal;font-variant-caps:normal;font-variant-east-asian:normal;font-variant-ligatures:normal;font-variant-numeric:normal;font-variant-position:normal;font-variation-settings:normal;inline-size:0;isolation:auto;mix-blend-mode:normal;paint-order:stroke markers fill;shape-margin:0;shape-padding:0;text-decoration-color:#000000;text-decoration-line:none;text-decoration-style:solid;text-indent:0;text-orientation:mixed;text-transform:none;white-space:normal" stop-color="#000000" image-rendering="auto" fill="#7d97b4" color-rendering="auto" color="#000000" d="m146.97 16.5a1.0002 1.0001 0 0 0-0.7071 1.707l5.0003 5a1.0002 1.0001 0 0 0 1.4141 0l5.0003-5a1.0002 1.0001 0 0 0-0.707-1.707z"></path>
 </g>
 <path style="paint-order:stroke markers fill" stroke-width=".2" stroke-linejoin="round" stroke-linecap="round" stop-color="#000000" fill-opacity="0" d="m0 0h180v40h-180z"></path>
</svg>
