<svg version="1.1" xmlns="http://www.w3.org/2000/svg" xmlns:xlink="http://www.w3.org/1999/xlink" width="208" height="32" viewBox="0,0,208,32"><g transform="translate(-240,-164)"><g data-paper-data="{&quot;isPaintingLayer&quot;:true}" fill-rule="nonzero" stroke="none" stroke-linecap="butt" stroke-linejoin="miter" stroke-miterlimit="10" stroke-dasharray="" stroke-dashoffset="0" style="mix-blend-mode: normal"><path d="M240,196v-32h208v32z" fill="none" stroke-width="0"/><path d="M242.69,173.68h13.438v2.0996h-13.438zM240.7076,184.862h17.402v2.1191h-17.402z" fill="#ffffff" stroke-width="1"/><path d="M261.66,175.69h9.8242c-0.15625,2.88413 -0.46549,6.14587 -0.92773,9.7852l-0.0879,0.68359h3.6914v1.8555h-14.355v-1.8555h8.5644c0.5013,-3.50913 0.80078,-6.38023 0.89844,-8.6133h-7.6074z" fill="#ffffff" stroke-width="1"/><path d="M276.58,178.55h17.197v2.1973h-17.197z" fill="#ffffff" stroke-width="1"/><path d="M304.38,170.96l0.61523,3.7988l5.2246,-0.38086l0.13672,2.002l-5.0391,0.38086l0.5957,3.6621l7.0606,-0.51758l0.14648,1.9922l-6.8652,0.54688l1.0058,6.1523l-2.2852,0.2832l-1.0352,-6.2598l-8.0859,0.625l-0.13671,-2.0606l7.9004,-0.58594l-0.625,-3.6621l-6.2598,0.46875l-0.13672,-2.0215l6.084,-0.43945l-0.625,-3.7207zM310.3956,174.378c-0.33854,-0.931 -0.99934,-2.08333 -1.9824,-3.457l1.543,-0.55664c0.78773,1.0742 1.45507,2.21353 2.002,3.418zM313.2569,174.0362c-0.5013,-1.237 -1.1556,-2.40237 -1.9629,-3.4961l1.4648,-0.45899c0.77473,0.89847 1.43553,1.99873 1.9824,3.3008z" fill="#ffffff" stroke-width="1"/><path d="M317.49,173.68h13.438v2.0996h-13.438zM315.5076,184.862h17.402v2.1191h-17.402z" fill="#ffffff" stroke-width="1"/><path d="M334.36,172.5h15.303l1.2598,1.0644c-0.36459,1.36067 -0.83985,2.49673 -1.4258,3.4082c-1.10027,1.72527 -2.7474,3.01433 -4.9414,3.8672l-1.2305,-1.6797c1.51693,-0.45573 2.7767,-1.2728 3.7793,-2.4512c0.59245,-0.6966 1.00585,-1.43227 1.2402,-2.207h-13.984zM340.6198,176.7188h2.2363v1.6797c0,2.51953 -0.27995,4.46613 -0.83984,5.8398c-0.7096,1.7448 -2.0898,3.16407 -4.1406,4.2578l-1.6113,-1.6992c1.41273,-0.67053 2.44463,-1.4713 3.0957,-2.4023c0.5013,-0.72267 0.83008,-1.48763 0.98633,-2.2949c0.18229,-0.92447 0.27343,-2.1647 0.27343,-3.7207z" fill="#ffffff" stroke-width="1"/><path d="M357.24,175.96v13.545h-2.1191v-10.029c-0.52735,0.7422 -1.13931,1.51043 -1.8359,2.3047l-1.1035,-2.0996c1.3216,-1.46487 2.4544,-3.1706 3.3984,-5.1172c0.57292,-1.1784 1.14585,-2.58467 1.7188,-4.2188l2.041,0.55664c-0.59245,1.78387 -1.29231,3.47007 -2.0996,5.0586zM368.363,175.10063h2.9395v1.9629h-2.9395v10.254c0,0.8594 -0.20833,1.43233 -0.625,1.7188c-0.30599,0.21485 -0.88215,0.32227 -1.7285,0.32227c-1.03513,0 -2.09633,-0.05859 -3.1836,-0.17578l-0.41993,-2.1387c1.15887,0.16927 2.2396,0.2539 3.2422,0.2539c0.27344,0 0.43946,-0.05859 0.49805,-0.17578c0.03907,-0.08463 0.0586,-0.22461 0.0586,-0.41992v-9.6387h-7.9883v-1.9629h7.9883v-4.2578h2.1582zM362.1814,184.56353c-0.73567,-1.95967 -1.64387,-3.74677 -2.7246,-5.3613l1.8652,-1.084c1.17187,1.72527 2.11263,3.49283 2.8223,5.3027z" fill="#ffffff" stroke-width="1"/><path d="M377.31,185.06c0.52083,0.60547 1.10677,1.05471 1.7578,1.3477c1.06773,0.48177 2.46747,0.72266 4.1992,0.72266h8.3203c-0.23438,0.44271 -0.45248,1.07747 -0.6543,1.9043h-7.7637c-2.2396,0 -3.9551,-0.35157 -5.1465,-1.0547c-0.48828,-0.29297 -1.02538,-0.77151 -1.6113,-1.4356c-0.0456,0.05207 -0.10094,0.11717 -0.16602,0.19531c-0.95707,1.1328 -1.9076,2.05727 -2.8516,2.7734l-1.1816,-2.002c1.03513,-0.61849 2.03447,-1.31836 2.998,-2.0996v-4.8242h-2.8418v-1.9238h4.9414zM379.8491,172.101l0.51757,-0.0391c3.01433,-0.20833 5.72267,-0.6543 8.125,-1.3379l1.5234,1.7188c-2.52607,0.66406 -5.22137,1.11326 -8.0859,1.3476v2.5293h9.043v1.9043h-3.2812v7.959h-2.1582v-7.959h-3.6035c-0.03253,2.08987 -0.18878,3.75327 -0.46875,4.9902c-0.25391,1.13933 -0.67057,2.16147 -1.25,3.0664l-1.7969,-1.3574c0.64453,-1.0026 1.05793,-2.2461 1.2402,-3.7305c0.13021,-1.02213 0.19532,-2.4121 0.19532,-4.1699zM376.2358,175.9194c-0.99607,-1.40627 -2.07027,-2.66603 -3.2226,-3.7793l1.6016,-1.2793c1.1198,0.93747 2.2461,2.12887 3.3789,3.5742z" fill="#ffffff" stroke-width="1"/></g></g></svg>