<svg xmlns="http://www.w3.org/2000/svg" xml:space="preserve" viewBox="0 0 40 40" version="1.1" height="40" width="40"><path style="paint-order:normal" stop-color="#000000" fill-rule="evenodd" fill="#12151a" d="m10 0h20c5.54 0 10 4.46 10 10v20c0 5.54-4.46 10-10 10h-20c-5.54 0-10-4.46-10-10v-20c0-5.54 4.46-10 10-10z"></path><path style="-inkscape-stroke:none" stroke-linejoin="round" stroke-linecap="round" fill="#dae1fc" color="#000000" d="m6.350095 21.64867-0.914062 0.701172c-0.782551 0.60111-0.781583 1.781034 2e-3 2.380859l13.64453 10.46875c0.53861 0.413184 1.287562 0.413184 1.826172 0l13.65425-10.46875c0.783043-0.600468 0.783043-1.780391 0-2.380859l-0.912109-0.699219-13.6543 10.46875z"></path><path style="-inkscape-stroke:none" stroke-linejoin="round" stroke-linecap="round" fill="#dae1fc" color="#000000" d="m19.08252 4.800551-13.64648 10.47851a1.50015 1.50015 0 0 0 2e-3 2.378907l13.64453 10.46875a1.50015 1.50015 0 0 0 1.826172 0l13.65425-10.46875a1.50015 1.50015 0 0 0 0-2.378907l-13.6543-10.47851a1.50015 1.50015 0 0 0-1.826172 0zm0.914063 3.080078 11.18945 8.58789-11.18945 8.578124-11.18164-8.580078z"></path></svg>
