<svg version="1.1" xmlns="http://www.w3.org/2000/svg" xmlns:xlink="http://www.w3.org/1999/xlink" width="70" height="40" viewBox="0,0,70,40"><g transform="translate(-145,-340)"><g data-paper-data="{&quot;isPaintingLayer&quot;:true}" stroke="none" stroke-miterlimit="10" stroke-dasharray="" stroke-dashoffset="0" style="mix-blend-mode: normal"><path d="M145,380v-40h70v40z" fill-opacity="0.00392" fill="#272b32" fill-rule="evenodd" stroke-width="0.25" stroke-linecap="square" stroke-linejoin="round"/><path d="M164,376v-32h32v32z" fill-opacity="0" fill="#000000" fill-rule="nonzero" stroke-width="1" stroke-linecap="butt" stroke-linejoin="miter"/><g fill="#ffffff" fill-rule="nonzero" stroke-width="1" stroke-linecap="butt" stroke-linejoin="miter"><path d="M167.777,370.572v0.62842h2.395v0.7207h-2.395v0.646h2.7554v0.77344h-2.7554v1.5161h-0.94482v-1.5161h-2.5269v-0.77344h2.5269v-0.646h-2.1489v-0.7207h2.1489v-0.62842h-1.8984v-0.66797h1.8984v-0.68994h-2.6367v-0.71191h2.6367v-0.67676h-1.8545v-0.69434h1.8545v-0.82617h0.94482v0.82617h2.1973v1.3711h0.76465v0.71191h-0.76465v1.3579zM167.777,369.90403h1.2788v-0.68994h-1.2788zM167.777,368.50213h1.2788v-0.67676h-1.2788zM163.7296,368.39227c-0.36621,-0.50391 -0.80421,-0.96827 -1.314,-1.3931l0.68115,-0.6416c0.55078,0.42187 0.99901,0.86571 1.3447,1.3315zM163.42198,370.67747c-0.42481,-0.55957 -0.86864,-1.03564 -1.3315,-1.4282l0.67676,-0.65918c0.47168,0.35742 0.93311,0.81299 1.3843,1.3667zM162.24428,374.17987c0.5625,-0.91993 1.0415,-1.95557 1.437,-3.1069l0.76904,0.54053c-0.36621,1.166 -0.82618,2.23973 -1.3799,3.2212z"/><path d="M177.638,372.945c0.56543,0.40137 1.28613,0.74413 2.1621,1.0283l-0.49219,0.87891c-0.92287,-0.36328 -1.6846,-0.78368 -2.2852,-1.2612c-0.62109,0.55371 -1.32569,0.99318 -2.1138,1.3184l-0.61524,-0.69434c0.81153,-0.28711 1.51173,-0.68994 2.1006,-1.2085c-0.668,-0.73827 -1.147,-1.5117 -1.437,-2.3203h-0.17139c-0.01758,0.791 -0.08789,1.47507 -0.21094,2.0522c-0.15235,0.71193 -0.43799,1.3931 -0.85693,2.0435l-0.71191,-0.65039c0.38672,-0.62988 0.64014,-1.33448 0.76025,-2.1138c0.07617,-0.48633 0.11426,-1.03273 0.11426,-1.6392v-2.8521h2.3027v-1.2217h0.93604v1.2217h2.0171l0.45703,0.39551c-0.18164,0.60351 -0.39404,1.15575 -0.63721,1.6567l-0.89209,-0.26367c0.19336,-0.31641 0.33691,-0.63428 0.43066,-0.95361h-1.3755v1.5513h1.459l0.43945,0.37793c-0.34863,1.04587 -0.8086,1.93063 -1.3799,2.6543zM176.96564,372.39129c0.44238,-0.55957 0.74853,-1.12794 0.91846,-1.7051h-2.105c0.27539,0.62109 0.67089,1.18946 1.1865,1.7051zM176.18341,368.36149h-1.3931v1.5513h1.3931zM172.91831,368.56364c-0.38672,-0.52441 -0.86132,-1.01661 -1.4238,-1.4766l0.68555,-0.66357c0.54785,0.39551 1.04005,0.85987 1.4766,1.3931zM172.51841,370.68624c-0.41895,-0.53906 -0.88625,-1.02099 -1.4019,-1.4458l0.67676,-0.65918c0.50683,0.36035 0.98877,0.81885 1.4458,1.3755zM171.21761,374.16234c0.55078,-0.8262 1.03858,-1.82817 1.4634,-3.0059l0.79541,0.54932c-0.39258,1.16893 -0.86718,2.2251 -1.4238,3.1685z"/><path d="M182.134,367.979v6.8774h-0.91846v-8.5518h0.91846v1.3315l0.42188,-0.35156c0.25488,0.44238 0.45703,0.86865 0.60644,1.2788l-0.59766,0.59326c-0.15527,-0.49512 -0.29883,-0.88769 -0.43066,-1.1777zM186.1814,366.8892h2.2764v0.65918h-2.2764v0.42188h1.9644v0.62842h-1.9644v0.43506h2.5664v0.70312h-5.9238v-0.70312h2.4478v-0.43506h-1.9072v-0.62842h1.9072v-0.42188h-2.1665v-0.65918h2.1665v-0.58447h0.90967zM188.0095,370.2027v3.8584c0,0.26953 -0.06445,0.46582 -0.19336,0.58887c-0.12597,0.12012 -0.34131,0.18018 -0.646,0.18018c-0.36035,0 -0.73095,-0.0249 -1.1118,-0.07471l-0.12744,-0.79101c0.38965,0.04687 0.69873,0.07031 0.92725,0.07031c0.11719,0 0.1875,-0.0293 0.21094,-0.08789c0.01465,-0.03515 0.02197,-0.08935 0.02197,-0.1626v-0.5669h-2.6982v1.6392h-0.91846v-4.6538zM184.3928,370.8487v0.51416h2.6982v-0.51416zM184.3928,372.0089v0.54053h2.6982v-0.54053zM179.9719,370.8927c0.13183,-0.60937 0.22705,-1.39747 0.28564,-2.3643l0.02197,-0.36035l0.74707,0.07031c-0.03515,1.25393 -0.13769,2.272 -0.30762,3.0542z"/><path d="M190.918,367.224v-0.91846h0.91846v0.91846h1.3667v0.77344h-1.3667v0.75586h1.5557v0.78223h-0.52295c-0.09375,0.34863 -0.21972,0.71777 -0.37793,1.1074h0.84814v0.76465h-1.5029v0.81299h1.4458v0.78223h-1.4458v1.8545h-0.91846v-1.8545h-1.5513v-0.78223h1.5513v-0.81299h-1.6216v-0.76465h0.80859c-0.09375,-0.38965 -0.208,-0.75878 -0.34277,-1.1074h-0.646v-0.78223h1.8018v-0.75586h-1.4326v-0.77344zM192.0122,369.5355h-1.3975c0.09961,0.27832 0.20654,0.64745 0.3208,1.1074h0.72949c0.15235,-0.375 0.26807,-0.74413 0.34717,-1.1074zM197.3428,366.6219v2.0566c0,0.25488 -0.04687,0.43506 -0.14062,0.54053c-0.11133,0.12597 -0.34424,0.18896 -0.69873,0.18896c-0.34571,0 -0.69141,-0.01465 -1.0371,-0.04395l-0.14941,-0.79102c0.48633,0.05273 0.79541,0.0791 0.92725,0.0791c0.13769,0 0.20654,-0.06006 0.20654,-0.18018v-1.0591h-1.9248v2.5532h2.4917l0.52295,0.44824c-0.1582,0.93167 -0.44677,1.7637 -0.86572,2.4961l-0.04834,0.08789c0.32227,0.37207 0.7251,0.7119 1.2085,1.0195l-0.49219,0.82178c-0.46289,-0.29883 -0.87599,-0.65626 -1.2393,-1.0723c-0.31348,0.39844 -0.66651,0.77344 -1.0591,1.125l-0.51856,-0.7207v0.68555h-0.89209v-8.2354zM194.5259,370.7572v3.3223c0.36035,-0.24609 0.70752,-0.59179 1.0415,-1.0371c-0.44824,-0.6914 -0.76318,-1.45313 -0.94482,-2.2852zM196.0552,372.2645c0.26074,-0.50391 0.43066,-1.00634 0.50977,-1.5073h-1.1338c0.14355,0.5625 0.35156,1.06493 0.62402,1.5073z"/></g><path d="M179.985,346.6032c0.3163,-0.0016 0.6092,0.16647 0.76718,0.44062l7.1141,12.326c0.15714,0.27243 0.15706,0.60805 -0.00023,0.8804c-0.15729,0.27235 -0.44786,0.44005 -0.76226,0.43992h-14.226c-0.3144,0.00014 -0.60498,-0.16757 -0.76226,-0.43992c-0.15728,-0.27235 -0.15738,-0.60797 -0.00023,-0.8804l7.1141,-12.326c0.15602,-0.27077 0.44386,-0.43847 0.75625,-0.44062zM177.0197,354.3939c1.1848,-0.68481 2.2615,-0.98954 3.1718,-0.90472c0.9328,0.08688 1.6854,0.59312 2.1469,1.4594c0.03456,0.06528 0.02,0.14572 -0.03528,0.1947c-0.05528,0.04896 -0.13691,0.05376 -0.19753,0.01152c-0.77808,-0.54439 -1.3932,-0.41011 -1.7578,0.0064c-0.23112,0.26388 -0.28424,0.59501 -0.1875,0.92344c0.09675,0.32842 0.35088,0.64922 0.74844,0.85624c0.90792,0.47278 2.4285,0.56493 3.6422,0.25156c0.0082,-0.0016 0.01656,-0.0024 0.02496,-0.0032l-4.5844,-7.9438z" fill="#ffffff" fill-rule="evenodd" stroke-width="1" stroke-linecap="butt" stroke-linejoin="miter"/></g></g></svg>