<svg version="1.1" xmlns="http://www.w3.org/2000/svg" xmlns:xlink="http://www.w3.org/1999/xlink" width="208" height="32" viewBox="0,0,208,32"><g transform="translate(-240,-164)"><g data-paper-data="{&quot;isPaintingLayer&quot;:true}" fill-rule="nonzero" stroke="none" stroke-linecap="butt" stroke-linejoin="miter" stroke-miterlimit="10" stroke-dasharray="" stroke-dashoffset="0" style="mix-blend-mode: normal"><path d="M240,196v-32h208v32z" fill="none" stroke-width="0"/><path d="M245.27,172.52v-2.0215h2.1387v2.0215h4.9414v-2.0215h2.1387v2.0215h4.8828v1.8555h-4.8828v1.7578h-2.1387v-1.7578h-4.9414v2.0996h-2.1387v-2.0996h-4.6582v-1.8555zM250.7876,177.52h7.7637v1.7578h-7.7637v2.2852h6.6602v7.9394h-2.2168v-1.2891h-10.283v1.2891h-2.1777v-7.9394h5.8594v-6.4844h2.1582zM244.9478,183.3012v3.1738h10.283v-3.1738z" fill="#ffffff" stroke-width="1"/><path d="M268.89,170.69h2.2754v16.279c0,0.84633 -0.14648,1.429 -0.43945,1.748c-0.32553,0.35807 -1.00913,0.53711 -2.0508,0.53711c-0.93747,0 -1.93357,-0.04883 -2.9883,-0.14648l-0.49804,-2.2754c1.62107,0.20182 2.72133,0.27669 3.3008,0.22461c0.26693,-0.02607 0.40039,-0.22138 0.40039,-0.58594zM277.3275,185.378c-1.1784,-4.6094 -2.31773,-8.15773 -3.418,-10.645l2.0606,-0.87891c1.38673,2.83853 2.57163,6.28587 3.5547,10.342zM260.2865,184.1182c1.2956,-2.17447 2.23637,-5.41013 2.8223,-9.707l2.2363,0.50781c-0.41667,2.8776 -0.92447,5.23437 -1.5234,7.0703c-0.44922,1.3672 -0.99935,2.5814 -1.6504,3.6426z" fill="#ffffff" stroke-width="1"/><path d="M295.28,183.58c1.34113,1.582 2.8418,2.83527 4.502,3.7598l-1.2207,2.0606c-1.50393,-0.91147 -2.9753,-2.27213 -4.4141,-4.082c-1.34113,1.79033 -2.92967,3.22913 -4.7656,4.3164l-1.4258,-1.7578c1.92707,-1.04167 3.55793,-2.50327 4.8926,-4.3848c-0.87893,-1.39973 -1.56577,-2.8841 -2.0605,-4.4531c-0.24089,0.49479 -0.5306,1.00586 -0.86915,1.5332l-1.3379,-1.875c1.11327,-1.78387 1.99217,-4.50523 2.6367,-8.1641l2.0606,0.3418c-0.22787,1.21747 -0.44597,2.2168 -0.6543,2.998h6.8164v1.9238h-1.709c-0.37109,2.81253 -1.18816,5.40693 -2.4512,7.7832zM293.9324,181.6757c0.78127,-1.58853 1.33467,-3.4798 1.6602,-5.6738l0.0293,-0.20508h-3.5547c-0.08463,0.27344 -0.17578,0.54362 -0.27344,0.81055c0.44271,1.79687 1.15561,3.48633 2.1387,5.0684zM283.3954,174.6737h1.0254v-4.1797h2.1191v4.1797h2.5391v1.9238h-2.5391v3.584c0.8724,-0.27344 1.6634,-0.53386 2.373,-0.78125l0.2246,1.7383c-0.7552,0.29948 -1.51367,0.58268 -2.2754,0.84961l-0.32226,0.12695v7.3828h-2.1191v-6.6699c-0.09766,0.02607 -0.22461,0.06513 -0.38086,0.11719c-0.7552,0.24739 -1.75453,0.54362 -2.998,0.88867l-0.625,-2.041c1.6732,-0.37109 3.00783,-0.70312 4.0039,-0.99609v-4.1992h-1.3672c-0.27344,1.19793 -0.59896,2.27867 -0.97656,3.2422l-1.7188,-1.2012c0.67707,-1.79687 1.13607,-3.9518 1.377,-6.4648l1.9043,0.28321c-0.07161,0.8594 -0.15299,1.59833 -0.24414,2.2168z" fill="#ffffff" stroke-width="1"/><path d="M311.58,174.14v-3.6426h2.0996v3.6426h5.293v8.8379h-5.293v6.5234h-2.0996v-6.5234h-5.1856v-8.8379zM308.4159,176.0834v4.9707h3.1641v-4.9707zM316.8925,181.0541v-4.9707h-3.2129v4.9707zM304.3925,175.2729c-0.79427,-1.1068 -1.8457,-2.16473 -3.1543,-3.1738l1.4551,-1.4844c1.30207,0.918 2.40233,1.94663 3.3008,3.0859zM303.75774,180.2924c-1.1328,-1.31513 -2.23307,-2.3926 -3.3008,-3.2324l1.5039,-1.5039c1.13933,0.8008 2.26563,1.83597 3.3789,3.1055zM300.72064,187.8608c1.25,-1.77733 2.40233,-3.99087 3.457,-6.6406l1.7383,1.3379c-0.89193,2.4414 -1.97917,4.73957 -3.2617,6.8945z" fill="#ffffff" stroke-width="1"/></g></g></svg>