<svg version="1.1" xmlns="http://www.w3.org/2000/svg" xmlns:xlink="http://www.w3.org/1999/xlink" width="102.09511" height="64.86746" viewBox="0,0,102.09511,64.86746"><g transform="translate(-110.22903,-49.33864)"><g data-paper-data="{&quot;isPaintingLayer&quot;:true}" fill="#ff0000" fill-rule="evenodd" stroke-linecap="round" stroke-linejoin="round" stroke-miterlimit="10" stroke-dasharray="" stroke-dashoffset="0" style="mix-blend-mode: normal"><path d="M191.28,61.80822l1.66493,-0.33999l1.30995,0.37999l0.48998,-0.62998l1.47994,-0.49998l1.85992,2.14991l1.47994,-0.20999l1.28995,1.61993l1.40994,-0.08999l2.78989,0.76996l1.31994,-0.39998l0.55998,1.05996l2.33991,0.07l3.04987,0.59998l-0.38999,2.23991l0.22,1.09995l-1.48994,0.53998l-0.35999,1.31994l-0.99996,-0.32998l-0.88996,1.10995l-0.81997,0.16999l-0.1,1.42995l1.88993,2.79989l-2.5999,2.93988l1.01995,0.53998l-0.19999,1.80992l-1.08996,1.90993l-0.97996,0.18999l0.83997,1.40994l-0.88996,0.74997l-1.08996,0.22999l-1.98992,-0.64997l-2.08992,-0.13999l-2.87988,1.71993l-1.38995,1.50994l-0.89996,0.20999l-0.77997,0.84996l-1.88993,0.06l-0.62297,-0.47998l-1.07995,0.35998l-2.21591,-0.73997h-0.75697l-1.10696,0.73997l0.92796,2.06992l-0.30198,0.52998l-1.28995,0.61998l0.24299,0.68997l-1.66793,1.06996l-0.07999,1.04996l-1.25295,-0.49998l-0.15699,1.13995l0.42699,0.45999l-0.54198,1.42994l-0.84497,0.83997l-0.58197,2.02992l-1.23695,1.21995l-1.16696,0.21999l-0.61998,0.82997l-1.94892,0.67998l-0.87396,-0.25999l-0.26198,0.94996l0.28498,1.31994l-0.75097,0.94997l-1.92592,1.77993l-0.65398,0.85996l-1.99692,0.95996l-0.48798,0.58997l-1.13895,-0.62998l-1.26895,0.25999l-0.29798,0.72997l-1.52794,0.01l1.21695,-2.05992l1.76993,-0.34998l2.3379,-2.35991l0.129,-1.88992l0.96496,-1.13995l0.82697,-1.85993l0.71097,0.17999l-0.028,-2.14992l0.30499,-1.54994l-1.35195,0.52998l-1.08296,-0.41998l-0.109,-1.02996l1.67394,0.04l0.67497,-1.58994l1.13496,-0.09l-0.31599,1.35994l1.44594,-0.24999l0.74397,-0.97996l0.40198,-1.75993l1.66794,-2.02992l-0.96296,-0.46999l-0.22599,1.23995l-0.91496,0.59998l-0.188,0.73997l-1.22295,-0.56998l-0.58797,0.85996l-0.80197,-0.64997l1.20095,-1.70994l-0.80496,-0.98996l-1.45095,0.41998l-0.15099,-1.42994l-1.08396,-1.26995l0.45999,-1.45995l-0.99796,-0.21999l-1.65893,-2.28991l-0.83096,-0.22999l0.92296,-1.97992l-1.30494,-0.76997l-0.50198,0.53998l-1.14796,-0.37999l-0.65497,1.80993l-0.76097,-1.04996l-1.21495,-0.79997l-0.12599,-1.30995l-1.82693,-0.01l0.09699,-0.71997l-0.81397,-0.43999l-0.76097,-1.06995l-0.80496,-1.73993l0.26799,-1.50994l-0.56198,-0.58998l-0.74297,-1.64993l-0.56797,-2.05992l-0.61898,-0.62998l-0.28499,-1.19995l-1.77893,-0.62998l0.35199,-1.19996l-1.12095,-0.51997l0.29199,-1.21995l-0.19099,-2.14991l0.54197,-0.99996l1.24995,-0.45999l0.63398,0.54998l0.32598,-1.84992l-0.78296,-2.23991l0.27299,-2.46991l0.91796,0.19l0.29399,-2.4999l0.74997,-0.75997l0.106,-1.18995l0.52898,-0.96997l-0.30099,-0.91996l0.89197,-0.71998l2.19291,1.53994l0.69997,-0.04l0.97596,1.17995l0.90496,0.17l0.61398,1.27994l-0.57898,0.78997l-0.31299,1.28995l0.80497,-0.07l0.71997,-1.10996l1.77693,0.61998l0.15899,0.69997l-1.23495,0.97996l-0.86897,1.21995l-0.49998,1.87993l0.50498,0.94996l-0.49398,0.67997l0.51298,0.75997l0.85697,-0.35998l0.38398,-1.62994l0.86696,-0.90996l1.74393,0.32999l0.24099,0.68997l1.49194,-0.18999l1.46294,1.12995l-0.021,0.81997l1.16895,1.31995l-0.43298,1.55994l-1.00296,0.42998l1.01396,2.10992l-0.55498,3.17988l-0.59897,0.48998l-0.85096,-0.65998l-0.28399,-2.03992l0.02,-1.50994l-1.06996,0.57998l-0.07299,2.02992l0.87497,1.85992l1.19895,0.78997l0.15199,2.4799l-0.66497,0.63998l-0.97597,-0.31999l-0.22599,1.29995h0.76697l0.41498,1.13995l1.18795,-0.13999l3.21287,2.65989l0.81097,-0.55998l1.52394,0.09999l0.58497,-1.43994l0.64697,-0.58998l-0.08299,-1.29994l1.07995,0.01l1.43694,-0.43999l0.85297,1.38994l0.56597,-0.27999l1.59693,1.32995l1.36295,-0.54998l1.04296,0.81996l-0.024,1.01996l1.26695,-0.35998l1.03896,1.09995l1.32495,-0.16999l-0.45498,-2.07992l-0.97197,-0.94996l-1.70593,-1.02996l0.199,-1.03995l-1.13896,-1.67994l0.048,-0.74997l-2.27291,-2.39991l-0.22099,-2.3299l0.31899,-2.5299l0.36599,-1.13995l0.64497,0.1l0.69797,-1.88993l0.89997,-0.19l0.52298,1.02996l2.13592,-0.42999l0.83397,-0.89996" stroke="none" stroke-width="0"/><path d="M154.44147,57.20841l-1.17896,-0.13l-0.46498,1.24995l-2.08892,-0.49998l-0.036,-0.92996l0.46598,-1.30995l1.28395,-1.20995l0.41399,-1.01996l1.43694,0.65998l1.36595,-0.28999l-0.21599,1.35995l-0.98196,2.11991" stroke="none" stroke-width="0"/><path d="M154.35146,68.60795l0.18999,1.18995l-0.92596,1.19995l-1.13096,-0.11999l-0.60898,-0.53998l-0.60198,-1.33995l0.042,-1.12995l0.50098,-0.49998l0.65398,1.05996l0.77597,-0.48998l1.10496,0.66997" stroke="none" stroke-width="0"/><path d="M149.11168,60.00829l-0.89796,1.01996l-0.53898,-0.94997l1.03896,-0.69997l-0.74897,-1.39995l0.18699,-0.47998l2.16291,0.33999l0.68297,0.68998l-0.67298,1.06995l-1.21295,0.40999" stroke="none" stroke-width="0"/><path d="M116.56298,61.90822l-1.33395,-0.85997l0.033,-1.21995l1.43494,-1.44994l-0.08499,0.73997l0.80997,2.03992l-0.85897,0.74997" stroke="#ff0000" stroke-width="10"/><path d="M182.15036,69.60791l2.3989,1.89992l-0.75197,1.12995l-1.19295,-1.47994l-0.45398,-1.54994" stroke="none" stroke-width="0"/><path d="M169.26088,114.2061l0.23699,-1.40994l1.12295,-0.61998l0.40999,0.78997l-0.115,0.96996l-1.65494,0.26999" stroke="none" stroke-width="0"/><path d="M126.2426,59.20832l1.03795,-0.61998l0.41099,2.00992l-1.62094,-0.36998l0.172,-1.01996" stroke="#ff0000" stroke-width="10"/><path d="M169.13088,96.80683l0.91397,-0.22999l0.48698,1.15996l-0.59197,0.29998l-0.80897,-1.22995" stroke="none" stroke-width="0"/><path d="M188.6901,90.40707l-0.188,-0.97996l1.52394,0.24999l-0.27699,0.87997l-1.05895,-0.14999" stroke="none" stroke-width="0"/></g></g></svg>