<svg version="1.1" xmlns="http://www.w3.org/2000/svg" xmlns:xlink="http://www.w3.org/1999/xlink" width="125.96559" height="80.67286" viewBox="0,0,125.96559,80.67286"><g transform="translate(57.52476,-157.88733)"><g data-paper-data="{&quot;isPaintingLayer&quot;:true}" fill="none" fill-rule="evenodd" stroke="#fc3324" stroke-width="36" stroke-linecap="round" stroke-linejoin="round" stroke-miterlimit="4" stroke-dasharray="" stroke-dashoffset="0" style="mix-blend-mode: normal"><g><path d="M-29.9563,216.26088l0.30995,4.29931l-2.85954,-1.90969l2.5496,-2.38962"/><path d="M47.94124,177.41709l-0.6599,-1.2498l-3.96936,-0.27996l-0.67989,1.8697l-2.71956,0.08999l-1.20981,-1.53975l-3.53943,1.32979l4.19932,0.6499l0.67989,2.33962l-5.41913,5.43913l-1.64974,0.14997l-0.13998,4.32931l-2.29963,-0.36994l-2.75956,3.44945l-3.41945,1.00984l-3.16949,-0.75988l-1.18981,-2.63957l-5.04919,-0.51992l-0.70989,1.17982l-3.84938,0.46992l1.30979,1.8597l0.87985,-1.07982l6.46896,-0.6299l1.44977,2.55959l-1.37978,0.39994l-0.40994,2.77955l-2.80955,0.59991l-0.51991,2.4796l-1.81971,-0.95985l-1.82971,1.2498l0.52992,3.33947l-2.67957,1.69973l0.51992,3.1495l-1.54976,0.51992l-4.57926,-0.6399l-1.47976,-1.33979l-3.05951,-0.88986l-2.77955,1.58975l1.36978,3.85938l-3.39945,-0.73988l-3.02952,-3.96936l0.14997,-2.09967l-1.12981,-0.43993l-1.03984,-4.28931l-0.06999,4.14934l0.6199,2.42962l-3.93937,-0.87986l0.12998,-5.48912l-2.11966,1.93968l-2.54959,-1.60974l-1.13982,2.00968l-5.29915,1.53975l0.75988,2.11966l-6.13901,1.47976l-1.33979,-1.18981l0.04999,2.09966l-2.65958,0.25996l-2.70956,1.2498l1.05983,-2.96952l-2.80955,1.37978l-0.93985,-3.11951"/><path d="M45.60161,176.41725l2.4696,1.95968l0.87986,-1.08982l1.48976,1.54976l-2.17965,0.72988l-3.98936,-0.21997l-0.83986,-1.8897l2.16965,-1.03983"/></g></g></g></svg>