<svg version="1.1" xmlns="http://www.w3.org/2000/svg" xmlns:xlink="http://www.w3.org/1999/xlink" width="15.55936" height="25.42898" viewBox="0,0,15.55936,25.42898"><g transform="translate(235.5177,-330.58512)"><g data-paper-data="{&quot;isPaintingLayer&quot;:true}" fill="#ff0000" fill-rule="evenodd" stroke="none" stroke-width="0" stroke-linecap="round" stroke-linejoin="round" stroke-miterlimit="10" stroke-dasharray="" stroke-dashoffset="0" style="mix-blend-mode: normal"><path d="M-220.07833,330.58512l0.11999,2.74989l-0.95996,1.37994l-0.56998,2.04992l-1.18995,0.83997l-1.21995,1.57993l-0.43999,1.25995l-0.04999,2.29991l0.59998,0.71997l-0.30999,2.14991l-1.35994,4.07984l-0.1,1.33994l-0.87996,1.98993l-1.07995,1.19995l-2.76989,0.77997l-0.71997,1.00996l-2.39991,-1.41994l-0.10999,-4.14984l-0.74997,-1.66993l0.52998,-2.90988l-1.02996,-2.6999l-0.74997,-1.08995l0.59997,-0.76997l-0.46998,-1.10996l1.88993,-2.59989l-0.01,-0.97996l1.02996,-1.51994l2.71989,0.03l0.97996,-0.83997l6.38975,-1.43994l1.32994,-0.81997l0.97996,-1.43994"/></g></g></svg>