<svg version="1.1" xmlns="http://www.w3.org/2000/svg" xmlns:xlink="http://www.w3.org/1999/xlink" width="68.04726" height="75.14698" viewBox="0,0,68.04726,75.14698"><g transform="translate(-101.29053,-49.13169)"><g data-paper-data="{&quot;isPaintingLayer&quot;:true}" fill="#ff0000" fill-rule="evenodd" stroke="none" stroke-width="0" stroke-linecap="round" stroke-linejoin="round" stroke-miterlimit="10" stroke-dasharray="" stroke-dashoffset="0" style="mix-blend-mode: normal"><path d="M161.93809,76.72058l-1.05996,2.6099v0.78997l1.67993,1.38994l0.95996,2.4399l-1.37994,1.32995l-0.40998,1.21995l1.18995,1.76993l1.57994,0.71997l0.48998,1.22995l0.94996,0.73997l-0.50998,0.74997l1.02996,0.67997l0.43998,-0.42998l1.68993,0.72997l0.29999,1.22995l-0.47998,0.65997l0.63997,1.25995l-0.40998,1.53994l0.69997,0.33999l-0.01,0.75997l-1.25995,0.18999l-0.53998,0.60998l-1.62993,0.59998l0.52998,1.31995l-0.58998,0.51998l-2.4099,0.12l-1.87992,-0.24999l-2.80989,0.43998l-1.16995,0.92996l-0.50998,0.92996l-1.06996,0.26999l-1.63993,1.21995l-0.52998,1.47994l-1.19995,1.33995l-1.59994,0.32999l-1.26995,1.14995l-0.61998,1.06996l-1.37994,-0.32999l0.47998,2.31991l-2.02992,1.43994l-0.44998,0.95996l-0.98996,0.08l1.06996,1.73993l-0.55998,2.69989l-0.71997,-0.24999l0.26999,3.41986l-1.51994,-0.57998l-0.66997,0.17999l-1.72993,-0.27999l-1.80993,0.07l-0.33999,1.42994l-2.19991,0.62997l-1.31995,-1.40994l-0.66997,-2.20991l1.33995,-0.64997l-0.29999,-0.91996l-0.82997,-0.46998l-0.66997,-1.11996l-1.89992,-0.49998l-0.83997,-0.80997l0.70997,-0.54998l0.51998,-1.40994l-0.96996,-2.26991l-2.24991,-0.45998l-0.58998,0.52998l-1.95992,-0.68997l-1.46994,0.76997l-0.91996,0.83997l-0.24999,0.82997l-1.49994,1.10996l-0.98996,-2.15991l-0.84997,-0.85997l-1.36995,-0.07l-2.5299,-0.87996l0.13999,-1.31995l-0.45998,-0.61998l-2.08992,-0.85997l-2.62989,-0.64997l-2.24991,-1.18995l-1.28995,-0.48998l-0.33999,-0.70997l0.67997,-1.56994l-0.24999,-0.78997l-0.83997,-0.42998l0.62997,-1.71993l-0.45998,-1.24995l0.78997,-1.59994l-0.37998,-1.66993l0.92996,-1.82993l1.37994,-0.89996l1.27995,0.51998l1.19995,1.23995l0.98996,0.07l0.77997,0.67997l0.19999,0.87996l2.85989,-1.02996l1.04996,-1.40994l0.03,-0.55998l1.86993,0.33999l-0.16999,-2.02992l0.27999,-3.32987l-0.43998,-0.48998l-0.52998,-3.26987l0.28999,-4.70981l-0.67997,-1.29995l0.07,-0.97996l-0.96996,-0.17999l-1.91992,0.78997l-1.45994,-0.09l-2.80989,1.77993l-0.18999,0.64997l-2.12991,0.04l-1.19995,0.30999l-1.49994,-1.96992l0.41998,-1.27995l-0.44998,-0.82997l-1.16995,-0.54998l-0.21999,-0.81997l-1.97992,-0.97996l-0.52998,-1.21995l-1.30995,-1.58994l-0.86997,-0.28999l1.14995,-1.24995l0.83997,-2.66989l-0.66997,-1.86993l-0.29999,-1.90992l0.32999,-0.78997l1.12995,-0.31999l0.68997,0.51998l-0.19999,1.22995l1.61994,-0.22999l0.93996,0.39998l1.39994,-0.13999l1.98992,-0.75997l1.98992,-1.18995l0.20999,-1.27995l0.83997,-1.22995l0.80997,-0.24999l0.38998,-0.89996l2.93988,0.21999l1.47994,-0.18999v-0.68997l2.34991,-0.84997l3.19987,-2.64989l0.05,-1.73993l0.88996,-0.37998l2.96988,-0.33999l1.07996,-0.83997l1.15995,0.32999l2.4999,-0.91996l0.27999,-0.48998l2.14991,-0.76997l1.08996,0.44998l2.35991,-1.07996l1.28995,1.52994l0.68997,0.16999l0.67997,1.77993l0.92996,-0.03l0.71997,0.59998l-0.07,0.90996l1.09996,0.47998l0.54998,1.21995l-0.19999,1.32995l2.11992,1.72993l-0.97996,1.80993l0.44998,1.95992l-1.01996,0.32999l0.12999,-1.24995h-1.11996l-1.56994,0.46998l-1.46994,2.18991l-0.70997,2.27991l-0.1,1.19995l-0.92996,0.51998l-1.00996,1.61994l-1.07996,0.61998l-0.89996,1.80993l-1.39994,1.73993l-0.48998,1.49994l0.07,1.19995l0.50998,0.88996l0.92996,0.31999l0.90996,-1.30995l-0.68997,-0.85997l0.35999,-0.91996l1.92992,-0.85997l2.92988,-3.53986l-0.12999,1.27995l-0.78997,0.78997l0.39998,1.37994l1.14995,0.29999l1.22995,0.96996l-1.36995,0.78997l-1.85993,-0.79997l-0.59998,1.24995l0.90996,1.80993l2.36991,0.23999l0.24999,1.01996l1.44994,0.98996l2.4299,0.57998l1.27995,-1.63993l0.77997,1.07996l0.34999,1.36995l-0.25999,1.28995l-0.91996,1.04996l-0.49998,2.84989l-0.69997,0.65997l0.24999,0.68997l1.40994,-0.91996l0.89996,-1.54994l0.73997,-0.27999l0.56998,-1.41994l2.5299,-0.64997l1.04996,1.59994l0.94996,-0.70997l0.55998,-1.25995l-0.63997,-0.61998l-2.15991,-0.79997l-1.74993,0.47998l-1.58994,-2.6199l-0.25999,-1.71993l0.74997,-0.83997l0.78997,0.03l1.45994,-0.86997l1.28995,-1.30995l1.06996,0.66997l1.37994,-0.63997l0.93996,-1.01996l1.33995,0.43998l0.03,-1.05996l0.75997,-0.71997l0.06,-0.90996l1.48994,-0.79997l0.59998,1.23995l-0.64997,0.52998l0.21999,1.56994l1.32995,-0.42998l0.91996,1.75993l1.22995,-0.12999l-2.6099,1.15995M132.69926,74.03068l1.46994,1.40994l1.49994,-2.25991l-0.45998,-0.50998l-2.5099,1.35995M105.19036,65.75102l1.32995,0.66997l-1.21995,2.22991l2.00992,-0.67997l0.33999,-1.05996l1.08996,-0.46998l-1.11996,-1.26995l-2.4299,0.57998"/></g></g></svg>