<svg xmlns="http://www.w3.org/2000/svg" viewBox="0 0 400 400" version="1.1" height="400" width="400"><defs><radialGradient gradientUnits="userSpaceOnUse" gradientTransform="translate(-40,20)" r="200" cy="180" cx="240" id="a"><stop offset="0" stop-color="#f6cb51"></stop><stop offset=".4" stop-color="#f6cb51"></stop><stop offset=".55" stop-opacity=".5607843" stop-color="#f6cb51"></stop><stop offset=".7" stop-opacity=".2509804" stop-color="#f6cb51"></stop><stop offset=".85" stop-opacity=".05882353" stop-color="#f6cb51"></stop><stop offset="1" stop-opacity="0" stop-color="#f6cb51"></stop></radialGradient></defs><g stroke-miterlimit="10"><path style="mix-blend-mode:normal" stroke-width="0" fill="none" d="m0 400v-400h400v400z"></path><path style="mix-blend-mode:normal" opacity=".08" fill-rule="evenodd" fill="url(#a)" d="m0 200c0-110.46 89.543-200 200-200s200 89.543 200 200-89.543 200-200 200-200-89.543-200-200z"></path><path stroke-width="13" stroke-linejoin="round" stroke-linecap="round" stroke="#cea735" stop-color="#000000" fill-rule="evenodd" fill="#f6cb51" d="m284.5 200c0 58.335-26.165 84.5-84.5 84.5s-84.5-26.165-84.5-84.5 26.165-84.5 84.5-84.5 84.5 26.165 84.5 84.5z"></path></g><path style="font-feature-settings:normal;font-variant-alternates:normal;font-variant-caps:normal;font-variant-east-asian:normal;font-variant-ligatures:normal;font-variant-numeric:normal;font-variant-position:normal;font-variation-settings:normal;inline-size:0;isolation:auto;mix-blend-mode:normal;shape-margin:0;shape-padding:0;text-decoration-color:#000000;text-decoration-line:none;text-decoration-style:solid;text-indent:0;text-orientation:mixed;text-transform:none;white-space:normal" stop-color="#000000" shape-rendering="auto" image-rendering="auto" fill="#1c1c1c" color-rendering="auto" color="#000000" d="m201.05 145.11-0.21093 0.10547c-8.3659 4.1625-19.138 7.8536-32.301 11.051l-0.97071 0.23633 3.5195 14.58 0.92774-0.16796c7.489-1.3544 15.455-3.4606 23.83-6.207v87.998h1l17.443-0.00195v-107.59h-13.238z"></path></svg>
