<svg version="1.1" xmlns="http://www.w3.org/2000/svg" xmlns:xlink="http://www.w3.org/1999/xlink" width="208" height="32" viewBox="0,0,208,32"><g transform="translate(-240,-164)"><g data-paper-data="{&quot;isPaintingLayer&quot;:true}" fill-rule="nonzero" stroke="none" stroke-linecap="butt" stroke-linejoin="miter" stroke-miterlimit="10" stroke-dasharray="" stroke-dashoffset="0" style="mix-blend-mode: normal"><path d="M240,196v-32h208v32z" fill="none" stroke-width="0"/><path d="M251,172.48h7.9785v4.3164h-2.1582v-2.6367h-13.701v2.6367h-2.1191v-4.3164h7.8613v-1.9824h2.1387zM256,175.7612v5.2734h-5.1855c-0.17579,0.60547 -0.39714,1.1914 -0.66407,1.7578h7.793v6.709h-2.2559v-1.0059h-11.367v1.0059h-2.2363v-6.709h5.8105c0.30599,-0.83987 0.49805,-1.4258 0.57618,-1.7578h-4.5898v-5.2734zM246.0781,177.3432v2.0898h7.7441v-2.0898zM244.3203,184.4526v2.3633h11.367v-2.3633z" fill="#ffffff" stroke-width="1"/><path d="M274.22,183.85c-0.53385,-1.8164 -0.91145,-4.5117 -1.1328,-8.0859h-4.4824v2.4316h3.9355c-0.03907,3.1706 -0.17253,5.3288 -0.40039,6.4746c-0.11719,0.56641 -0.34831,0.96027 -0.69336,1.1816c-0.27343,0.17578 -0.66407,0.26367 -1.1719,0.26367c-0.54688,0 -1.01238,-0.04883 -1.3965,-0.14648l-0.19531,-1.7969c0.47526,0.07813 0.85936,0.11719 1.1523,0.11719c0.29297,0 0.48178,-0.09115 0.56641,-0.27344c0.15625,-0.3776 0.28321,-1.71873 0.38086,-4.0234h-2.1777c-0.00667,0.11068 -0.01,0.26368 -0.01,0.45899c-0.02607,2.34373 -0.24742,4.28383 -0.66406,5.8203c-0.29948,1.09373 -0.77801,2.1354 -1.4356,3.125l-1.6602,-1.2891c0.71613,-1.08727 1.2044,-2.38283 1.4648,-3.8867c0.21484,-1.24347 0.32226,-2.7604 0.32226,-4.5508v-5.791h6.377c-0.03253,-0.82033 -0.05207,-1.94663 -0.0586,-3.3789h2.002c0.00667,1.47133 0.0262,2.59763 0.0586,3.3789h4.3848v1.8848h-4.2969l0.01,0.20508c0.12369,2.02473 0.32877,3.81183 0.61523,5.3613c0.60547,-1.21747 1.10027,-2.5 1.4844,-3.8476l1.8457,0.79101c-0.80727,2.18747 -1.69593,4.08527 -2.666,5.6934c0.37761,1.04167 0.76174,1.8457 1.1524,2.4121c0.16927,0.25391 0.27994,0.38086 0.33203,0.38086c0.11719,0 0.24414,-0.7259 0.38086,-2.1777l0.0391,-0.41016l1.5234,0.97656c-0.13672,1.543 -0.28321,2.55863 -0.43946,3.0469c-0.24088,0.76173 -0.63475,1.1426 -1.1816,1.1426c-0.92447,0 -1.9694,-1.13933 -3.1348,-3.418c-1.0482,1.3672 -2.1973,2.53907 -3.4473,3.5156l-1.377,-1.5234c1.25653,-0.91147 2.33077,-1.92383 3.2227,-3.0371c0.23437,-0.29297 0.49153,-0.63477 0.77148,-1.0254zM262.726,175.2367v-4.8144h1.9824v4.8144h1.4356v1.9629h-1.4356v6.1133c0.42318,-0.18229 0.83985,-0.37435 1.25,-0.57618l0.18555,1.8652c-1.47133,0.87893 -3.22263,1.6797 -5.2539,2.4023l-0.64453,-2.0605c0.918,-0.27344 1.74483,-0.55013 2.4805,-0.83008v-6.9141h-2.1973v-1.9629zM277.199,173.8207c-0.45573,-0.93747 -1.04167,-1.79683 -1.7578,-2.5781l1.543,-0.82031c0.76173,0.78127 1.38023,1.6146 1.8555,2.5z" fill="#ffffff" stroke-width="1"/><path d="M296.76,170.98v9.4629h-11.621v-9.4629zM287.2385,172.523v1.2207h7.4023v-1.2207zM287.2385,175.1207v1.2207h7.4023v-1.2207zM287.2385,177.7183v1.2598h7.4023v-1.2598zM283.3029,181.7417h16.191v1.6992h-8.0762v6.0644h-2.2168v-6.0644h-8.0371v-10.957h2.1387zM280.8029,187.6401c1.54947,-0.71613 3.0306,-1.9173 4.4434,-3.6035l1.7969,1.0449c-1.3932,1.76433 -2.93943,3.15107 -4.6387,4.1602zM297.6389,188.8999c-0.99607,-1.22393 -2.49347,-2.50973 -4.4922,-3.8574l1.6797,-1.1816c1.569,0.90493 3.1087,2.09307 4.6191,3.5644z" fill="#ffffff" stroke-width="1"/><path d="M308.84,174.08v-3.584h2.1973v3.584h7.2461v10.332h-2.1582v-1.3574h-5.0879v6.4453h-2.1973v-6.4453h-4.9609v1.4648h-2.1582v-10.439zM303.8791,176.082v4.9707h4.9609v-4.9707zM316.1251,181.0527v-4.9707h-5.0879v4.9707z" fill="#ffffff" stroke-width="1"/><path d="M326.98,172.75h4.1797v1.8848h-1.377c-0.2474,0.99607 -0.57943,2.041 -0.9961,3.1348h2.6074v1.8848h-10.898v-1.8848h2.3926c-0.26041,-1.25 -0.53385,-2.29493 -0.82031,-3.1348h-1.2695v-1.8848h4.1406v-2.2559h2.041zM324.0406,174.6348c0.33203,0.97007 0.58919,2.015 0.77148,3.1348h1.9922l0.09766,-0.27344c0.27995,-0.7422 0.54036,-1.5853 0.78125,-2.5293l0.0879,-0.33203zM330.0953,181.295v7.998h-2.002v-0.95703h-4.2578v1.1621h-2.0606v-8.2031zM323.8355,183.0919v3.3887h4.2578v-3.3887zM336.8825,178.1603c0.77473,0.73567 1.38997,1.61133 1.8457,2.627c0.44922,1.0156 0.67383,2.04423 0.67383,3.0859c0,0.96353 -0.17904,1.67317 -0.53711,2.1289c-0.37109,0.47526 -0.98306,0.71289 -1.8359,0.71289c-0.7292,0 -1.43557,-0.05208 -2.1191,-0.15625l-0.47852,-2.0801c0.78773,0.14323 1.43877,0.21485 1.9531,0.21485c0.39063,0 0.63477,-0.09115 0.73242,-0.27344c0.06513,-0.13021 0.0977,-0.39062 0.0977,-0.78125c0,-1.60807 -0.48177,-2.9948 -1.4453,-4.1602c-0.25391,-0.30599 -0.57292,-0.63476 -0.95703,-0.98633l0.11719,-0.27343c0.67707,-1.52993 1.2044,-3.125 1.582,-4.7852h-2.5v16.064h-2.0215v-18.086h5.8789l1.084,0.99609c-0.65755,2.2396 -1.34765,4.15693 -2.0703,5.752z" fill="#ffffff" stroke-width="1"/></g></g></svg>