<svg xmlns="http://www.w3.org/2000/svg" viewBox="0 0 224 68" version="1.1" height="68" width="224">
 <rect stop-color="#000000" fill="none" ry="0" rx="0" height="68" width="224"></rect>
 <rect stop-color="#000000" fill="#1d2a41" ry="0" rx="0" height="66" width="224" y="2"></rect>
 <g transform="translate(0,2)">
  <path stop-color="#000000" fill-rule="evenodd" fill="#f1de2f" d="m20 18h20c5.54 0 10 4.46 10 10v16c0 5.54-4.46 10-10 10h-30v-26c0-5.54 4.46-10 10-10z"></path>
  <g aria-label="1m" fill="#191705">
   <path d="m19.71 31.603-1.65-1.71 4.14-4.5v3.48zm2.49 14.94v-21.15h2.73v21.15z"></path>
   <path d="m27.704 46.543v-10.1h1.82v10.1zm5.22 0v-6.88h1.82v6.88zm-4.22-6.84q0-1.02 0.38-1.82 0.4-0.82 1.08-1.28t1.52-0.46l-0.46 1.62q-0.72 0-1.22 0.54-0.48 0.54-0.48 1.4zm4.22-0.04q0-0.84-0.48-1.36-0.48-0.54-1.22-0.54l0.46-1.62q0.88 0 1.56 0.46 0.7 0.46 1.1 1.26 0.4 0.78 0.4 1.8zm5.2 6.88v-6.88h1.82v6.88zm-4.2-6.84q0-1.02 0.38-1.82 0.4-0.82 1.06-1.28 0.68-0.46 1.52-0.46l-0.46 1.62q-0.72 0-1.2 0.54t-0.48 1.4zm4.2-0.04q0-0.84-0.48-1.36-0.46-0.54-1.22-0.54l0.46-1.62q0.88 0 1.56 0.46 0.7 0.46 1.1 1.26 0.4 0.78 0.4 1.8z"></path>
  </g>
 </g>
 <g aria-label="津波注意報" fill="#fff" transform="translate(0,2)">
  <path d="m74.298 35.979v1.5361h5.8545v1.7617h-5.8545v1.5791h6.7354v1.8906h-6.7354v3.7061h-2.3096v-3.7061h-6.1768v-1.8906h6.1768v-1.5791h-5.2529v-1.7617h5.2529v-1.5361h-4.6406v-1.6328h4.6406v-1.6865h-6.4453v-1.7402h6.4453v-1.6543h-4.5332v-1.6973h4.5332v-2.0195h2.3096v2.0195h5.3711v3.3516h1.8691v1.7402h-1.8691v3.3193zm0-1.6328h3.126v-1.6865h-3.126zm0-3.4268h3.126v-1.6543h-3.126zm-9.8936-0.26855q-1.3428-1.8477-3.2119-3.4053l1.665-1.5684q2.0195 1.5469 3.2871 3.2549zm-0.75195 5.5859q-1.5576-2.0518-3.2549-3.4912l1.6543-1.6113q1.7295 1.3105 3.3838 3.3408zm-2.8789 8.5615q2.0625-3.373 3.5127-7.5947l1.8799 1.3213q-1.3428 4.2754-3.373 7.874z"></path>
  <path d="m98.403 41.779q2.0732 1.4717 5.2852 2.5137l-1.2031 2.1484q-3.3838-1.332-5.5859-3.083-2.2773 2.0303-5.167 3.2227l-1.5039-1.6973q2.9756-1.0527 5.1348-2.9541-2.4492-2.707-3.5127-5.6719h-0.41894q-0.06445 2.9004-0.51562 5.0166-0.55859 2.6104-2.0947 4.9951l-1.7402-1.5898q1.418-2.3096 1.8584-5.167 0.2793-1.7832 0.2793-4.0068v-6.9717h5.6289v-2.9863h2.2881v2.9863h4.9307l1.1172 0.9668q-0.66601 2.2129-1.5576 4.0498l-2.1807-0.64453q0.70899-1.1602 1.0527-2.3311h-3.3623v3.792h3.5664l1.0742 0.92383q-1.2783 3.835-3.373 6.4883zm-1.6436-1.3535q1.6221-2.0518 2.2451-4.168h-5.1455q1.0098 2.2773 2.9004 4.168zm-1.9121-9.8506h-3.4053v3.792h3.4053zm-7.9814 0.49414q-1.418-1.9229-3.4805-3.6094l1.6758-1.6221q2.0088 1.4502 3.6094 3.4053zm-0.97754 5.1885q-1.5361-1.9766-3.4268-3.5342l1.6543-1.6113q1.8584 1.3213 3.5342 3.3623zm-3.1797 8.4971q2.0195-3.0293 3.5771-7.3477l1.9443 1.3428q-1.4395 4.2861-3.4805 7.7451z"></path>
  <path d="m118.43 29.641q-2.041-1.5791-4.3936-2.793l1.6328-1.4287q2.6318 1.2031 4.748 2.8789l-1.5576 1.3428h6.0908v2.041h-5.876v4.5117h5.2529v2.041h-5.2529v5.3281h6.4668v2.0947h-15.469v-2.0947h6.6064v-5.3281h-5.0918v-2.041h5.0918v-4.5117h-5.7041v-2.041zm-9.6787 1.2568q-1.5039-2.0088-3.5127-3.4805l1.5791-1.6543q2.1377 1.418 3.6309 3.3516zm-0.69825 5.457q-1.7188-2.0947-3.5879-3.5664l1.6328-1.6758q2.0088 1.418 3.6953 3.4375zm-3.3408 8.2178q2.2988-2.9004 4.3291-7.2939l1.8476 1.4717q-1.708 4.3076-4.1357 7.6807z"></path>
  <path d="m137.47 40.093q1.2031 0.91309 2.4062 2.46l-1.8906 1.3428q-0.97754-1.5254-2.374-2.7715l1.5469-1.0312h-7.8848v-6.5205h15.469v6.5205zm-5.8438-4.9629v0.93457h10.742v-0.93457zm0 2.3418v1.0635h10.742v-1.0635zm6.4668-10.291h7.7236v1.7617h-3.0293q-0.38672 0.98828-0.90234 1.8799h5.5644v1.7832h-20.904v-1.7832h5.4463q-0.49414-1.1709-0.9668-1.8799h-2.8467v-1.7617h7.5625v-1.6328h2.3525zm-4.4473 1.7617q0.46191 0.77344 0.83789 1.8799h4.9951q0.42968-0.7627 0.8164-1.8799zm-7.0576 15.834q1.4717-1.751 2.2236-4.0713l2.2022 0.77344q-0.8164 2.8467-2.3525 4.7266zm5.9404-3.8457h2.331v2.3955q0 0.51562 0.24707 0.64453 0.45118 0.23633 2.4814 0.23633 1.8584 0 2.5137-0.15039 0.4834-0.10742 0.5586-0.6123 0.0967-0.6123 0.13964-1.4824l2.2451 0.6123q-0.0107 1.3643-0.24707 2.2236-0.26855 1.042-1.6543 1.2354-1.4287 0.19336-3.8672 0.19336-3.1045 0-3.8564-0.31152-0.8916-0.37598-0.8916-1.5791zm13.245 4.6836q-1.3965-2.46-2.9971-4.3398l1.9443-1.0957q1.7617 1.8691 3.0938 4.0283z"></path>
  <path d="m152.87 27.793v-2.2451h2.2451v2.2451h3.3408v1.8906h-3.3408v1.8477h3.8027v1.9121h-1.2783q-0.34375 1.2783-0.92383 2.707h2.0732v1.8691h-3.6738v1.9873h3.5342v1.9121h-3.5342v4.5332h-2.2451v-4.5332h-3.792v-1.9121h3.792v-1.9873h-3.9639v-1.8691h1.9766q-0.34375-1.4287-0.83789-2.707h-1.5791v-1.9121h4.4043v-1.8477h-3.502v-1.8906zm2.6748 5.6504h-3.416q0.36523 1.0205 0.78418 2.707h1.7832q0.5586-1.375 0.84864-2.707zm13.03-7.1221v5.0273q0 0.93457-0.34375 1.3213-0.4082 0.46191-1.708 0.46191-1.2676 0-2.5352-0.10742l-0.36523-1.9336q1.7832 0.19336 2.2666 0.19336 0.50488 0 0.50488-0.44043v-2.5889h-4.7051v6.2412h6.0908l1.2783 1.0957q-0.58008 3.416-2.1162 6.1016l-0.11817 0.21484q1.1816 1.3643 2.9541 2.4922l-1.2031 2.0088q-1.6973-1.0957-3.0293-2.6211-1.1494 1.4609-2.5889 2.75l-1.2676-1.7617v1.6758h-2.1807v-20.131zm-6.8857 10.108v8.1211q1.3213-0.90234 2.5459-2.5352-1.6436-2.5352-2.3096-5.5859zm3.7383 3.6846q0.95605-1.8477 1.2461-3.6846h-2.7715q0.52636 2.0625 1.5254 3.6846z"></path>
 </g>
</svg>
