<svg version="1.1" xmlns="http://www.w3.org/2000/svg" xmlns:xlink="http://www.w3.org/1999/xlink" width="97.90008" height="76.16358" viewBox="0,0,97.90008,76.16358"><g transform="translate(-84.5125,-29.99781)"><g data-paper-data="{&quot;isPaintingLayer&quot;:true}" fill="none" fill-rule="evenodd" stroke="#fc3324" stroke-width="36" stroke-linecap="round" stroke-linejoin="round" stroke-miterlimit="4" stroke-dasharray="" stroke-dashoffset="0" style="mix-blend-mode: normal"><path d="M102.5125,62.86542l1.69973,1.48977l3.87938,-0.03l3.97936,-1.94969l0.22996,-1.52975l2.01968,-2.12966l4.41929,0.03l5.54911,-4.18933l-0.06999,-1.67973l3.97936,-0.77988l1.45977,-1.45976l0.72989,0.95985l6.06903,-1.73972l1.72972,-1.85971l3.28947,4.25932l2.81955,1.8797l0.08999,2.97952l2.01968,0.70989l-1.20981,3.0895l-2.59958,0.83987l-1.54975,2.24964l-0.83986,3.52944l-3.07951,2.80955l-2.10966,3.26948l-0.51992,2.87954l1.92969,0.85987l0.09998,-2.75956l1.76972,-0.6199l0.23996,-2.12966l1.91969,0.43993l0.70988,1.68973l2.06967,0.95985l-1.36978,0.78987l-1.85971,-0.79988l0.24996,3.03951l2.23964,0.19997l1.8897,2.06966l2.42961,0.57991l1.27979,-1.63974l1.12982,2.44961l-1.17981,2.33963l-0.94985,4.19933l3.39945,-2.79955l0.35995,-2.00968l4.3893,0.87986l-0.07999,-4.01936l-1.02983,1.58974l-4.02936,0.01l-0.46992,-5.33915l0.93985,0.56991l3.64942,-2.23964l0.53991,0.56991l3.53943,-2.24964l3.7194,-3.54943l-1.47976,3.12949l2.52959,2.59958l1.33979,-0.09999"/></g></g></svg>