<svg version="1.1" xmlns="http://www.w3.org/2000/svg" xmlns:xlink="http://www.w3.org/1999/xlink" width="74.48702" height="85.21658" viewBox="0,0,74.48702,85.21658"><g transform="translate(-267.35041,-200.65654)"><g data-paper-data="{&quot;isPaintingLayer&quot;:true}" fill="#ff0000" fill-rule="evenodd" stroke="none" stroke-width="0" stroke-linecap="round" stroke-linejoin="round" stroke-miterlimit="10" stroke-dasharray="" stroke-dashoffset="0" style="mix-blend-mode: normal"><path d="M334.51772,209.83615l-0.88996,2.02992l1.45994,2.6199l1.00996,1.07996l-0.38998,0.92996l1.10996,0.43998l0.14999,1.78993l0.75997,1.54994l-1.19995,1.08996l0.32999,0.55998l-0.51998,1.18995l-1.05996,0.65997l0.83997,1.78993l0.94996,0.13999l-0.84997,1.91992l1.01996,2.00992l2.3999,0.95996l1.04996,2.36991v1.32995l1.14995,0.46998l-2.18991,2.31991l-0.53998,-0.65997l-1.17995,0.54998l-0.22999,2.17991l-0.62997,0.65997l0.24999,2.35991l0.36999,0.46998l-1.05996,0.97996l-0.38998,0.99996l-1.10996,0.12l-0.71997,1.58994l-1.16995,0.24999l-1.19995,1.58994l0.33999,2.15991l0.55998,0.94996l-1.03996,1.99992l-1.59994,-0.58998l-0.35999,1.31995l-0.80997,0.13999l-0.01,1.26995l0.43998,1.21995l-0.89996,1.09996l-1.48994,0.34999l-0.05,2.4899l-0.32999,1.18995l0.01,1.84993l0.49998,0.48998l-0.33999,1.26995l0.63997,1.74993l0.28999,2.36991l-1.05996,1.46994l-0.18999,1.72993l-1.56994,0.75997l-0.92996,1.52994l0.29999,1.15995l-1.46994,0.37998l-1.35995,3.04988l0.32999,2.23991l-0.29999,0.61998l-2.10992,1.39994l-1.41994,0.62997l-0.73997,0.87996l-1.93992,-0.12999l-1.09996,0.64997l-2.95988,-0.63997l-1.04996,0.55998l-1.53994,-0.67997l-1.19995,0.40998l-0.78997,-0.39998l-0.77997,-1.65993l-1.34995,-1.16995l-1.43994,-0.12l0.45998,-1.43994l-1.43994,-0.57998l-1.05996,-0.04l-0.25999,-1.50994l-1.09996,-0.38998l-1.41994,-1.38994l-0.23999,-1.10996l2.33991,-0.48998l0.36999,-0.70997l-0.77997,-1.09996l0.40998,-1.64993l-0.77997,-0.49998l0.33999,-1.82993l-0.91996,-1.65993l0.02,-1.85993l-0.39998,-0.90996l-1.53994,-1.27995l-0.37998,-1.53994l-1.71993,-0.39998l-0.77997,-1.34995l-1.93992,-0.44998l-1.20995,1.18995l-0.72997,-0.46998l-1.09996,0.69997l-0.84997,-0.53998l-1.49994,-2.14991l-0.85997,0.14999l-1.35995,1.27995l-0.66997,1.41994l-1.11996,-0.39998l-1.87992,0.59998l-0.54998,1.86993l-0.65997,0.42998l-1.16995,3.38986l0.40998,1.32995l-1.47994,0.87996l-0.80997,-0.52998l-1.19995,-1.71993l0.25999,-0.65997l-1.97992,-0.63997l0.44998,-1.52994l-0.1,-1.22995l-1.21995,-0.45998l-1.53994,-1.56994l-0.02,-0.92996l0.58998,-0.88996l-1.09996,-1.50994l-1.13995,-0.40998l-0.1,-2.20991l-1.03996,-0.99996l-0.91996,-0.30999l-0.44998,-1.69993l0.80997,-1.20995l1.21995,-0.58998l0.78997,-1.14995l-0.07,-1.06996l1.50994,-2.35991l-0.73997,-1.55994l1.12995,-1.83993l-0.67997,-2.20991l0.38998,-1.01996l0.85997,-0.18999l0.74997,-1.68993l-0.1,-1.85993l-0.82997,-0.22999l0.59998,-2.4299l-0.49998,-1.35995l1.57994,-1.30995l-0.71997,-0.57998l-0.04,-1.27995l1.29995,-0.25999l0.68997,-1.14995l2.5799,-1.44994l0.86997,-1.00996l1.42994,-0.85997l2.30991,-0.69997l0.95996,1.79993l-0.08,3.45986l1.51994,1.18995l2.4499,-1.10996l0.55998,-0.78997l1.62993,0.32999l1.83993,1.91992l0.75997,-0.02l0.23999,-1.32995l1.80993,-0.66997l1.73993,-2.16991l1.86993,-1.13995l2.88988,0.28999l0.91996,-1.57994l1.78993,-0.69997l0.58998,-2.24991l1.37994,-0.77997l1.04996,-1.28995l1.04996,-2.36991l1.25995,-0.39998l1.39994,-1.10996l-0.27999,-3.34987l1.27995,-0.43998l0.59998,-0.91996l0.15999,-1.53994l-0.73997,-1.78993l1.25995,-0.11l3.13987,-1.27995l1.75993,0.44998l0.86997,-1.15995l1.79993,-1.15995l2.4099,-0.12999l3.45986,-2.18991l0.13999,1.03996l1.06996,1.25995l-0.04,0.78997l1.97992,0.69997l0.41998,-0.74997l0.96996,0.06l0.63997,0.84997l1.37994,-0.41998l1.40994,1.06996l0.76997,1.84993l0.19999,1.24995l-0.25999,1.47994"/></g></g></svg>