<svg version="1.1" xmlns="http://www.w3.org/2000/svg" xmlns:xlink="http://www.w3.org/1999/xlink" width="88.00647" height="125.03502" viewBox="0,0,88.00647,125.03502"><g transform="translate(-121.78629,-326.28146)"><g data-paper-data="{&quot;isPaintingLayer&quot;:true}" fill="#ff0000" fill-rule="evenodd" stroke="none" stroke-width="0" stroke-linecap="round" stroke-linejoin="round" stroke-miterlimit="10" stroke-dasharray="" stroke-dashoffset="0" style="mix-blend-mode: normal"><path d="M203.72296,362.73003l-1.44994,-0.42998l-0.99996,1.24995l-0.54998,1.22995l0.09,1.48994l-0.96996,0.50998l1.65993,2.73989l0.65997,-0.25999l0.97996,0.74997l-0.02,0.89996l0.64997,0.90996l-0.43998,2.00992v1.67993l-0.54998,0.05l-1.01996,1.15995l0.41998,2.3899l-0.63997,0.79997l-0.33999,2.81989l-0.68997,0.32999l-1.35995,1.78993l-1.70993,1.62993l-0.98996,2.12991l0.11,0.90996l1.71993,1.85993l1.16995,1.67993l0.18999,1.24995l0.85997,-0.02l0.77997,-0.67997l0.46998,-1.23995l2.67989,3.55986l-0.13999,1.34995l0.97996,1.13995l-0.54998,1.53994l-0.03,-0.32999l-1.55994,0.89996l0.34999,1.28995l-1.88992,1.07996l2.02992,1.20995l-0.11,0.24999l0.31999,2.93988l1.00996,1.13995l-0.16999,1.32995l1.02996,1.85993l0.22999,1.57994l-1.10996,1.55994l-0.50998,1.96992l0.75997,1.31995l0.27999,1.78993l-0.16999,1.71993l-0.39998,0.63997l0.30999,1.17995l-0.93996,1.61994l-0.13999,0.97996l-0.84997,0.09l0.58998,-0.72997l-0.90996,-1.85993l-0.99996,0.06l-1.32995,0.59998l-1.18995,-0.63997l-1.03996,-0.05l-0.78997,-1.51994l0.41998,-2.14991l-0.83997,-1.39994l-2.13991,-1.02996l-0.42998,-1.09996l-1.33995,-0.84997l-0.89996,-2.67989l-0.74997,-0.05l-0.40998,-0.95996l-1.42994,-0.42998l-0.65997,1.71993l-0.15999,1.99992l0.23999,1.12995l-1.06996,1.40994l-0.69997,0.02l-2.33991,1.70993l-0.23999,0.89996l-1.73993,0.49998l-1.47994,-0.57998l-1.48994,1.13995l-3.07988,-0.27999l-0.32999,0.31999l-0.04,2.65989l-0.22999,0.60998l0.29999,2.74989l0.98996,1.24995l-0.22999,0.94996l0.52998,1.08996l-0.05,1.65993l-0.75997,0.48998l-1.78993,-0.98996l-1.32995,0.01l-0.91996,0.42998l-0.81997,1.03996l-0.57998,1.61994l0.48998,1.16995l-0.49998,1.50994l0.68997,0.21999l0.50998,1.81993l-2.64989,0.68997l-2.30991,0.26999l-0.38998,0.78997l-2.4699,0.81997l-1.12995,-0.63997l-1.78993,-0.06l0.73997,2.77989l-0.21999,2.88988l-0.90996,1.32995l-1.14995,-0.36999l-1.09996,0.79997l-0.58998,1.65993l-1.90992,-0.15999l-1.69993,-1.09996l-2.62989,-1.14995l-0.55998,0.61998l0.05,1.18995l-0.87996,1.29995l-1.71993,0.09l-0.39998,-0.94996l-0.38998,-2.4599l-0.79997,-0.07l-1.04996,-0.90996l0.21999,-1.23995l1.24995,-0.53998l1.15995,-2.63989l-1.50994,-1.87992l0.92996,-1.02996l0.01,-1.71993l0.30999,-1.07996l-1.66993,-1.55994l-1.90992,-0.1l-0.63997,-0.78997l-2.75989,-1.27995l-0.55998,-0.90996l0.31999,-1.51994l-0.80997,-0.55998l-1.66993,0.17999l-0.68997,-1.03996l0.26999,-1.24995l-0.74997,-0.80997l0.36999,-5.63977l-0.18999,-1.23995l-1.05996,-1.21995l-0.97996,-3.08988l-1.33995,-0.28999l-1.59994,0.33999l-1.17995,-1.18995l0.04,-0.48998l1.51994,-1.30995l-0.35999,-1.40994l-0.08,-1.95992l0.85997,-1.75993l-0.95996,-0.73997l-0.07,-0.90996l-1.09996,-1.57994l0.60998,-1.54994l-0.39998,-0.62997l0.38998,-1.12995l1.28995,-0.14999l0.69997,-0.98996l1.28995,-1.05996l0.68997,-2.95988l-1.49994,-1.41994l0.21999,-1.03996l-0.74997,-0.40998l-1.20995,0.42998l-0.85997,-0.86997l-0.12999,-1.47994l-2.15991,-1.47994l1.04996,-1.17995l0.44998,-1.78993l1.48994,-1.19995l-0.51998,-1.35995l-0.67997,-0.43998l-1.07996,0.39998l-2.19991,-1.85993l-1.67993,-0.21999l-2.93988,-0.86997l-1.02996,-0.60998l-1.06996,0.89996l-0.47998,-1.52994l1.88992,-1.96992l0.92996,-0.23999l1.48994,-1.54994l0.33999,0.11l2.11992,-1.32995l0.28999,-0.65997l1.15995,-0.06l1.48994,-0.61998l1.15995,-1.10996l1.70993,-0.37998l1.50994,-1.84993l2.87988,-4.71981l1.85993,-3.83985l1.16995,-2.98988l-0.07,-1.13995l1.41994,-0.57998l1.59994,-2.20991l0.71997,-1.71993l2.16991,-2.29991l3.25987,-2.17991l1.32995,-1.91992l1.03996,-2.5999l1.55994,-1.85993l1.84993,-4.81981l1.56994,-6.07976l0.28999,-1.88992l1.16995,-0.36999l1.11996,0.42998l0.29999,0.74997l-0.65997,1.88992l0.15999,0.83997l-1.27995,0.04l-0.53998,0.90996l-0.09,2.06992l2.07992,2.35991l0.53998,-0.82997l0.93996,-0.25999l0.06,1.20995l1.39994,2.20991l-1.18995,1.19995l0.54998,0.60998l0.96996,-0.16999l1.07996,-0.77997l3.06988,-1.15995l1.62993,-0.25999l2.08992,-1.04996l1.31995,-0.01l-0.54998,-1.21995l-0.08,-1.84993l0.99996,0.89996l1.73993,-1.25995l0.21999,-1.84993l0.52998,-0.69997l3.13987,-0.17999l0.01,-1.99992l0.80997,-1.01996l1.59994,-0.86997l0.79997,0.59998l0.01,1.41994l1.70993,-1.97992l0.50998,-1.15995l2.14991,-1.41994l1.39994,0.50998l1.63993,-0.92996l0.87996,1.03996l-0.77997,0.64997l-0.67997,1.40994l1.16995,1.14995l-0.50998,3.87984l0.94996,1.12995l1.10996,0.49998h1.35995l-0.02,1.84993l0.62997,1.59994l1.01996,0.44998l0.39998,2.17991l2.5899,1.13995l1.39994,-1.83993l2.4299,1.50994l0.62997,2.5199l0.60998,0.56998l0.29999,2.86989l0.82997,0.69997l0.52998,1.39994l1.10996,0.32999l-0.30999,1.16995l0.41998,1.80993l1.41994,-0.46998l0.23999,0.93996l1.09996,0.1l0.26999,1.24995l0.80997,1.59994l-1.50994,0.14999l-0.67997,1.03996l-1.89992,1.38994l-0.60998,1.50994l-1.36995,0.91996"/></g></g></svg>