<svg version="1.1" xmlns="http://www.w3.org/2000/svg" xmlns:xlink="http://www.w3.org/1999/xlink" width="64.2474" height="100.53601" viewBox="0,0,64.2474,100.53601"><g transform="translate(-632.21928,96.50252)"><g data-paper-data="{&quot;isPaintingLayer&quot;:true}" fill="#ff0000" fill-rule="evenodd" stroke="none" stroke-width="0" stroke-linecap="round" stroke-linejoin="round" stroke-miterlimit="10" stroke-dasharray="" stroke-dashoffset="0" style="mix-blend-mode: normal"><path d="M695.61671,-83.673l0.84997,1.43994l-0.86997,0.57998l-0.56998,-0.39998l-1.79993,0.84997l-0.47998,0.57998l-2.19991,4.72981l-1.66993,5.17979l-0.06,2.75989l-0.34999,0.24999l-0.88996,2.5999l-0.24999,2.4699l0.17999,1.43994l-1.19995,0.84997l-1.02996,1.37994l-0.43998,2.96988l-0.91996,0.72997l-0.88996,2.12991l-0.68997,0.82997l-0.38998,1.57994l-0.60998,0.38998l-0.99996,2.95988l0.17999,0.91996l-0.74997,0.71997l-0.52998,2.14991l-0.01,1.47994l-1.55994,2.30991l0.46998,0.88996l-1.13995,1.06996l-0.25999,2.85989l0.18999,1.04996l1.69993,0.25999l-0.01,1.26995l-0.89996,0.50998l-0.92996,1.09996l0.08,1.62993l0.52998,2.01992l1.18995,0.97996l-0.57998,2.64989l-1.12995,0.75997l-0.86997,1.72993l-0.44998,-0.25999l-0.26999,2.4599l-0.70997,1.27995l-0.93996,0.11l-1.48994,1.81993l-0.39998,1.21995l0.11,3.76985l-0.25999,-0.55998l-1.89992,-0.21999l-1.13995,-0.59998l-0.12,-0.40998l0.05,-0.01l0.53998,-0.69997l0.15999,-3.26987l-0.90996,2.05992l-1.59994,-0.05l-0.71997,0.48998l-2.83989,0.39998l-0.93996,1.18995l3.26987,0.08l-0.17999,2.30991l-1.67993,1.41994l-2.08992,0.41998l-0.86997,0.78997l-0.61998,-1.23995l-0.87996,1.32995l-1.11996,-0.02l-0.57998,1.13995l0.38998,0.81997l2.29991,1.18995l0.72997,1.98992l-0.91996,1.07996l-0.58998,2.86989l-1.40994,1.49994l-1.34995,0.64997l-1.20995,-2.27991l-2.15991,0.20999l-0.97996,-0.34999l-0.01,0.96996l-0.64997,0.03l-0.52998,1.17995l-1.03996,-0.05l-0.64997,-1.23995l-1.70993,-1.31995l-0.67997,0.62997l-0.08,-0.05l-0.26999,-1.15995l0.86997,-2.28991l1.83993,-0.52998l-1.99992,-1.61994l-0.23999,-1.04996l-1.14995,-0.09l-1.53994,-1.24995l-0.99996,-0.37998l-0.29999,-0.96996l0.86997,-2.92988l1.24995,-0.08l0.39998,-0.89996l-0.31999,-0.74997l-3.50986,-0.38998l-1.13995,-1.50994l-1.05996,-0.01l-1.27995,-1.44994l-0.14999,-1.05996l-1.01996,-1.57994l-1.01996,-0.59998l-0.92996,0.54998l-0.97996,-0.95996l-0.97996,-1.47994l-0.88996,0.04l-0.11,-1.06996l0.57998,-1.90992l0.99996,-0.08l0.09,-1.79993l0.96996,-1.17995l-0.43998,-1.57994l0.72997,-0.77997l1.07996,-2.00992l-0.19999,-2.15991l0.48998,-1.03996l-0.32999,-0.98996l1.36995,-3.04988l0.67997,-0.32999l0.61998,-1.14995l0.1,-1.49994l1.08996,-0.02l0.73997,-0.55998l-0.12999,-0.92996l1.25995,-0.30999l-1.24995,-2.09992l-0.07,-1.68993l0.44998,-0.80997l-0.76997,-1.02996l0.31999,-0.58998l-0.35999,-2.11992l0.56998,-1.84993l-0.07,-1.42994l-1.40994,-2.94988l0.83997,-0.23999l-0.17999,-1.78993l-1.15995,-1.41994l0.20999,-0.97996l-1.09996,-2.11992l1.29995,-1.62993l1.32995,-0.25999h2.10992l1.44994,-0.72997l0.53998,-2.14991l-0.43998,-1.08996l-2.10992,-1.76993l-0.72997,-1.48994l0.61998,-0.91996l-0.73997,-0.85997l0.01,-1.13995l1.25995,-0.92996l-0.07,-4.72981l-1.06996,-1.61994l-0.34999,-1.31995l0.51998,-2.5799l-0.23999,-2.24991l-0.55998,-2.21991l-0.03,-1.55994l0.50998,-1.03996l1.07996,-0.45998l0.86997,0.39998l1.29995,-0.65997l1.66993,1.04996l0.49998,0.97996l1.41994,1.42994l0.20999,1.79993l2.25991,1.03996l1.85993,0.09l0.66997,1.76993l-0.12999,1.86993l0.42998,0.54998l0.22999,1.60994l2.5799,0.81997l1.04996,-0.1l1.73993,1.84993l0.85997,-0.38998l1.37994,2.17991l1.31995,1.38994l1.35995,-0.98996l0.90996,-1.18995l-0.03,-1.16995l1.39994,-0.04l1.37994,-0.93996l0.23999,-1.19995l0.93996,-0.47998l-0.04,-1.06996l0.98996,-1.27995l0.74997,0.08l2.99988,-1.36995l0.49998,0.27999l1.27995,-1.61994l-1.38994,-2.03992l0.13999,-1.02996l-1.50994,-1.50994l0.47998,-1.82993l-0.30999,-0.69997l1.86993,-1.07996l1.18995,2.5399l1.66993,2.5699l2.25991,0.85997l1.00996,-0.42998l3.62985,1.29995l1.84993,0.88996l1.18995,1.33995l2.63989,-0.34999l1.50994,0.75997l1.11996,0.99996l1.03996,-0.72997l1.62993,0.98996l0.36999,2.08992"/></g></g></svg>