<svg version="1.1" xmlns="http://www.w3.org/2000/svg" xmlns:xlink="http://www.w3.org/1999/xlink" width="208" height="32" viewBox="0,0,208,32"><g transform="translate(-240,-164)"><g data-paper-data="{&quot;isPaintingLayer&quot;:true}" fill-rule="nonzero" stroke="none" stroke-linecap="butt" stroke-linejoin="miter" stroke-miterlimit="10" stroke-dasharray="" stroke-dashoffset="0" style="mix-blend-mode: normal"><path d="M240,196v-32h208v32z" fill="none" stroke-width="0"/><path d="M248.85,172.12v-1.6211h2.1777v1.6211h8.3203v1.7383h-8.3203v1.543h7.0215v1.582h-15.879v-1.582h6.6797v-1.543h-8.1836v-1.7383zM259.084,178.4774v4.1992h-2.2168v-2.5977h-13.76v2.5977h-2.1777v-4.1992zM246.223,183.3407c3.41147,-0.53385 6.22397,-1.16862 8.4375,-1.9043l1.4062,1.6016c-2.82553,0.86587 -6.1068,1.52343 -9.8438,1.9727v1.582c0,0.30599 0.10417,0.48828 0.3125,0.54687c0.37761,0.10417 1.74804,0.15625 4.1113,0.15625c2.46093,0 3.92903,-0.0651 4.4043,-0.19531c0.33854,-0.09766 0.54362,-0.3418 0.61523,-0.73242c0.09766,-0.48177 0.16276,-1.12631 0.19531,-1.9336l2.1387,0.64453c-0.00667,1.21747 -0.1206,2.1224 -0.3418,2.7148c-0.26042,0.69013 -0.91799,1.1003 -1.9727,1.2305c-1.1328,0.13672 -2.95573,0.20508 -5.4688,0.20508c-2.9362,0 -4.694,-0.1237 -5.2734,-0.3711c-0.63803,-0.26693 -0.95704,-0.81379 -0.95704,-1.6406v-6.084h2.2363z" fill="#ffffff" stroke-width="1"/><path d="M275.39,184.74c1.3216,1.1198 2.79947,2.01173 4.4336,2.6758l-1.1621,1.9629c-1.6732,-0.80727 -3.20967,-1.88473 -4.6094,-3.2324c-1.47787,1.43227 -3.2552,2.58787 -5.332,3.4668l-1.2793,-1.7383c1.91407,-0.58593 3.6849,-1.62433 5.3125,-3.1152c-1.36067,-1.6276 -2.36653,-3.29753 -3.0176,-5.0098h-0.91797v-1.8848h3.8379v-2.6367h-4.4531v10.889h-5.5469v1.6992h-1.7773v-13.33h1.6797v9.7559h1.084v-13.457h1.7773v13.457h1.123v-9.7559h1.3965v-1.1816h4.7168v-2.8027h2.0606v2.8027h4.8047v1.9238h-4.8047v2.6367h3.1055l0.9375,0.96679c-1.0612,2.52607 -2.18427,4.49547 -3.3692,5.9082zM274.013,183.4021c1.0482,-1.3802 1.77087,-2.59767 2.168,-3.6524h-4.4336c0.58593,1.39973 1.34113,2.6172 2.2656,3.6524z" fill="#ffffff" stroke-width="1"/><path d="M285.02,177.79c0.50781,0 0.96681,0.16927 1.377,0.50781c0.54037,0.44271 0.81055,1.00911 0.81055,1.6992c0,0.42318 -0.12044,0.81705 -0.36133,1.1816c-0.43619,0.67707 -1.05469,1.0156 -1.8555,1.0156c-0.35156,0 -0.68686,-0.08464 -1.0059,-0.25391c-0.2539,-0.13021 -0.46874,-0.30273 -0.64453,-0.51758c-0.35807,-0.42317 -0.53711,-0.90494 -0.53711,-1.4453c0,-0.7552 0.31576,-1.35417 0.94727,-1.7969c0.37761,-0.26041 0.80077,-0.39062 1.2695,-0.39062z" fill="#ffffff" stroke-width="1"/><path d="M296.35,174.01h3.916v1.1035h4.9219v-4.6191h2.0801v4.6191h2.3438v1.9824h-2.3438v10.234c0,0.65755 -0.09765,1.13932 -0.29296,1.4453c-0.24089,0.37109 -0.74545,0.55664 -1.5137,0.55664c-1.06773,0 -2.11917,-0.05859 -3.1543,-0.17578l-0.45899,-2.1191c1.08727,0.14323 2.01827,0.21484 2.793,0.21484c0.26042,0 0.41993,-0.04883 0.47852,-0.14649c0.0456,-0.08463 0.0684,-0.24739 0.0684,-0.48828v-9.5215h-5.1758v-1.1426h-1.1914c-0.20833,2.28513 -0.6901,4.4238 -1.4453,6.416c0.38411,0.5013 0.67057,0.87563 0.85937,1.123c0.625,0.80727 1.17513,1.5397 1.6504,2.1973l-1.5332,1.582c-0.57943,-0.83987 -1.14256,-1.63087 -1.6894,-2.373l-0.28321,-0.38086c-1.18487,2.08333 -2.62367,3.70117 -4.3164,4.8535l-1.416,-1.582c1.78387,-1.22393 3.22917,-2.9264 4.3359,-5.1074c-0.39063,-0.50781 -0.6836,-0.88868 -0.87891,-1.1426c-0.97653,-1.28253 -1.86847,-2.36977 -2.6758,-3.2617l1.4844,-1.2988c0.83987,0.91147 1.8262,2.07033 2.959,3.4766c0.45573,-1.4518 0.76497,-2.95247 0.92773,-4.502h-6.0938v-1.9434h3.5449v-3.5156h2.0996zM302.1508,184.43c-0.64453,-1.96613 -1.39323,-3.71093 -2.2461,-5.2344l1.7383,-0.98633c0.98307,1.6276 1.7578,3.36263 2.3242,5.2051z" fill="#ffffff" stroke-width="1"/><path d="M327.96,171.36v1.7188h-6.4746v1.4648h5.5566v1.5625h-5.5566v1.4355h5.5566v1.5625h-5.5566v1.5332h7.6172c-0.11719,3.82813 -0.32552,6.26303 -0.625,7.3047c-0.16927,0.58594 -0.46875,0.99934 -0.89844,1.2402c-0.36458,0.20182 -0.96355,0.30273 -1.7969,0.30273c-1.26953,0 -2.29493,-0.04883 -3.0762,-0.14648l-0.40039,-1.9141c1.3216,0.14323 2.30467,0.21485 2.9492,0.21485c0.52734,0 0.85937,-0.0944 0.99609,-0.2832c0.25391,-0.3711 0.4655,-2.0508 0.63477,-5.0391h-14.424v-10.957zM314.581,173.0788v1.4648h4.8633v-1.4648zM314.581,176.1062v1.4355h4.8633v-1.4355zM314.581,179.1042v1.5332h4.8633v-1.5332zM310.3622,187.737c0.85287,-1.32813 1.48113,-2.86133 1.8848,-4.5996l1.9727,0.60546c-0.46875,2.168 -1.14909,3.9258 -2.041,5.2734zM315.9188,188.47919c-0.0456,-1.6146 -0.20511,-3.1478 -0.47852,-4.5996l1.9824,-0.36133c0.38412,1.3932 0.63803,2.89387 0.76172,4.502zM320.0399,187.67841c-0.30599,-1.62107 -0.69985,-2.98827 -1.1816,-4.1016l1.7871,-0.53711c0.57292,1.1784 1.03842,2.47723 1.3965,3.8965zM323.8583,186.58461c-0.44271,-1.30207 -0.97981,-2.41533 -1.6113,-3.3398l1.5918,-0.66407c0.71613,0.90493 1.32487,1.94987 1.8262,3.1348z" fill="#ffffff" stroke-width="1"/><path d="M335.52,185.06c0.52083,0.60547 1.10677,1.05471 1.7578,1.3477c1.06773,0.48177 2.46747,0.72266 4.1992,0.72266h8.3203c-0.23437,0.44271 -0.45247,1.07747 -0.6543,1.9043h-7.7637c-2.2396,0 -3.9551,-0.35157 -5.1465,-1.0547c-0.48828,-0.29297 -1.02538,-0.77151 -1.6113,-1.4356c-0.0456,0.05207 -0.10094,0.11717 -0.16602,0.19531c-0.957,1.1328 -1.90753,2.05727 -2.8516,2.7734l-1.1816,-2.002c1.03513,-0.61849 2.03447,-1.31836 2.998,-2.0996v-4.8242h-2.8418v-1.9238h4.9414zM338.0591,172.101l0.51758,-0.0391c3.01433,-0.20833 5.72267,-0.6543 8.125,-1.3379l1.5234,1.7188c-2.52607,0.66406 -5.22137,1.11326 -8.0859,1.3476v2.5293h9.043v1.9043h-3.2812v7.959h-2.1582v-7.959h-3.6035c-0.03253,2.08987 -0.18878,3.75327 -0.46875,4.9902c-0.25391,1.13933 -0.67057,2.16147 -1.25,3.0664l-1.7969,-1.3574c0.64453,-1.0026 1.05793,-2.2461 1.2402,-3.7305c0.13021,-1.02213 0.19531,-2.4121 0.19531,-4.1699zM334.4458,175.9194c-0.99607,-1.40627 -2.0703,-2.66603 -3.2227,-3.7793l1.6016,-1.2793c1.1198,0.93747 2.2461,2.12887 3.3789,3.5742z" fill="#ffffff" stroke-width="1"/><path d="M367.76,175.8c0,0.30599 -0.0293,1.75783 -0.0879,4.3555h1.8652v1.7578h-1.9043c-0.01953,0.85287 -0.06185,1.81967 -0.12695,2.9004h1.6504v1.7188h-1.7774c-0.07813,0.944 -0.18555,1.569 -0.32226,1.875c-0.30599,0.7292 -1.04819,1.0938 -2.2266,1.0938c-0.7552,0 -1.4518,-0.05534 -2.0898,-0.16601l-0.36133,-1.7383c0.918,0.13021 1.62113,0.19531 2.1094,0.19531c0.39713,0 0.63476,-0.13997 0.71289,-0.41992c0.03907,-0.13672 0.07487,-0.41667 0.10742,-0.83985h-6.9531c-0.00667,0.05207 -0.01643,0.10741 -0.0293,0.16602c-0.0586,0.34505 -0.11394,0.67057 -0.16602,0.97656l-2.0215,-0.19531c0.39713,-2.35027 0.66406,-4.1276 0.80078,-5.332l0.0293,-0.23438h-1.9531v-1.7578h2.1582c0.18229,-1.57553 0.33854,-3.02737 0.46875,-4.3555zM361.5881,177.4992h-2.1387c-0.01953,0.33203 -0.07813,1.0319 -0.17578,2.0996l-0.0586,0.55664h2.168l0.0293,-0.27344c0.013,-0.1888 0.03253,-0.45247 0.0586,-0.79101c0.06513,-0.91147 0.1042,-1.44207 0.11719,-1.5918zM363.5119,177.4992c-0.03253,0.77473 -0.08136,1.63087 -0.14648,2.5684v0.0879h2.2949c0.02607,-0.89193 0.04887,-1.77733 0.0684,-2.6562zM361.2267,181.9133h-2.1973c-0.09765,0.79427 -0.20182,1.57877 -0.3125,2.3535l-0.0781,0.54687h2.2852c0.15625,-1.41273 0.25717,-2.37953 0.30274,-2.9004zM363.2287,181.9133c-0.01953,0.26042 -0.0586,0.69012 -0.11719,1.2891l-0.15625,1.6113h2.4902c0.03253,-0.63151 0.05857,-1.10677 0.0781,-1.4258c0.03907,-0.6966 0.0651,-1.18813 0.0781,-1.4746zM359.4006,172.2746h9.4336v1.8164h-10.244c-0.52735,1.0742 -1.19791,2.09633 -2.0117,3.0664l-1.3965,-1.5234c1.28253,-1.50393 2.194,-3.2357 2.7344,-5.1953l2.0801,0.21485c-0.23437,0.67707 -0.43294,1.21743 -0.5957,1.6211zM354.0197,175.1164c-0.8008,-1.10027 -1.7741,-2.13217 -2.9199,-3.0957l1.4746,-1.4258c1.0612,0.78127 2.07033,1.7676 3.0274,2.959zM353.31657,180.2726c-0.9896,-1.26953 -1.98893,-2.334 -2.998,-3.1934l1.5234,-1.4648c1.1328,0.89193 2.15167,1.90757 3.0566,3.0469zM350.66037,187.9386c1.1328,-1.569 2.20703,-3.63607 3.2227,-6.2012l1.7383,1.2402c-0.84633,2.3698 -1.93357,4.54427 -3.2617,6.5234z" fill="#ffffff" stroke-width="1"/></g></g></svg>