<svg version="1.1" xmlns="http://www.w3.org/2000/svg" xmlns:xlink="http://www.w3.org/1999/xlink" width="252" height="38" viewBox="0,0,252,38"><g transform="translate(-114,-161)"><g data-paper-data="{&quot;isPaintingLayer&quot;:true}" stroke="none" stroke-width="1" stroke-linecap="butt" stroke-linejoin="miter" stroke-miterlimit="10" stroke-dasharray="" stroke-dashoffset="0" style="mix-blend-mode: normal"><path d="M124,161h232c5.54,0 10,4.46 10,10v18c0,5.54 -4.46,10 -10,10h-232c-5.54,0 -10,-4.46 -10,-10v-18c0,-5.54 4.46,-10 10,-10z" fill="#12151a" fill-rule="evenodd"/><g fill="#ffffff" fill-rule="nonzero"><path d="M333.2031,178.08v-1.0391h-5.5098v-1.2578h12.503v1.2578h-5.5371v1.0391h4.792v5.544h-4.8262c-0.00667,0.03193 -0.01,0.06383 -0.01,0.0957c-0.05,0.80207 -0.2551,1.51073 -0.6153,2.126c1.76827,0.61979 3.9626,1.04589 6.583,1.2783l-0.8408,1.333c-2.54753,-0.29623 -4.7487,-0.82033 -6.6035,-1.5723c-0.52867,0.46029 -1.21,0.83172 -2.044,1.1143c-0.7474,0.25521 -1.7158,0.45801 -2.9052,0.6084l-0.7383,-1.2988c1.84113,-0.13672 3.26073,-0.48535 4.2588,-1.0459c-0.9798,-0.48307 -1.8867,-1.04591 -2.7207,-1.6885l1.0049,-0.85449c0.8704,0.67447 1.76133,1.20993 2.6728,1.6064c0.26433,-0.45117 0.43297,-1.01857 0.5059,-1.7022h-4.7578v-5.544zM333.2031,179.1738h-3.3154v1.1006h3.3154zM334.6592,179.1738v1.1006h3.3222v-1.1006zM333.2031,181.3271h-3.3154v1.1895h3.3154zM334.6592,181.3271v1.1895h3.3222v-1.1895z"/><path d="M345.5031,183.79c0.6608,0.36003 1.39223,0.86589 2.1943,1.5176l-0.7793,1.2715c-0.51493,-0.57877 -0.9866,-1.05501 -1.415,-1.4287v3.3496h-1.4014v-3.6504c-0.6152,1.1302 -1.34663,2.07583 -2.1943,2.8369l-0.7998,-1.292c1.01627,-0.72007 1.86163,-1.61557 2.5361,-2.6865h-2.1601v-1.2031h2.6181v-1.333h-2.8847v-1.2578h1.497c-0.11847,-0.57877 -0.2848,-1.20997 -0.499,-1.8936h-0.7314v-1.2715h2.5908v-1.5518h1.4561v1.5518h2.4814v1.2715h-0.7314c-0.16867,0.6836 -0.37833,1.3148 -0.629,1.8936h1.5655v1.2578h-2.7139v1.333h2.4609v1.2031h-2.4609zM343.5754,178.0205c0.17313,0.56966 0.3235,1.20086 0.4511,1.8936h1.3536c0.2096,-0.58789 0.3896,-1.21909 0.54,-1.8936zM350.008,181.3428c0.00667,1.4128 -0.1027,2.72303 -0.3281,3.9307c-0.23247,1.25327 -0.6449,2.37437 -1.2373,3.3633l-1.128,-1.0322c0.50587,-0.82033 0.85223,-1.8275 1.0391,-3.0215c0.16407,-1.0208 0.2461,-2.3242 0.2461,-3.9102v-4.2861c0.09113,-0.00913 0.23013,-0.0228 0.417,-0.041c1.4492,-0.13671 2.9007,-0.44889 4.3545,-0.93652l0.8955,1.1894c-1.21227,0.41016 -2.6296,0.72689 -4.252,0.9502v2.3652h4.5869v1.4287h-1.5654v7.1572h-1.415v-7.1572z"/></g></g></g></svg>