<svg version="1.1" xmlns="http://www.w3.org/2000/svg" xmlns:xlink="http://www.w3.org/1999/xlink" width="54.47781" height="48.35807" viewBox="0,0,54.47781,48.35807"><g transform="translate(119.87233,-226.7193)"><g data-paper-data="{&quot;isPaintingLayer&quot;:true}" fill="#ff0000" fill-rule="evenodd" stroke="none" stroke-width="0" stroke-linecap="round" stroke-linejoin="round" stroke-miterlimit="10" stroke-dasharray="" stroke-dashoffset="0" style="mix-blend-mode: normal"><path d="M-76.28409,230.48913l0.81997,1.02996l0.71997,1.79993l2.6899,1.00996l1.21995,0.74997l-0.45999,1.68993l-0.52998,0.51998l-0.91996,2.5599l-0.66997,0.67997l0.69997,0.86997l0.55998,2.85988l0.84997,0.22999l3.13987,-0.22999l0.74997,0.83997l1.23995,-0.60997l0.77997,1.49994l-0.53997,0.43998l-0.41998,1.91993l0.60997,1.07995l-0.91996,0.63997l0.62998,2.01992l-0.74997,0.66997l-2.21991,-0.57998l-0.57997,0.56998l-0.09,1.55993l1.34995,0.78997l0.80997,1.15995l0.36998,1.70993l-0.91996,1.91993l0.13,1.91992l-0.96997,2.03992l-2.92988,1.17995l-0.27999,2.34991l-0.57997,-0.21999l-2.44991,0.28999l0.10999,0.67998l-1.07996,0.68997l-0.91996,1.67994l-0.13,1.24995l-2.00992,1.68993l-1.30995,-0.56997l-1.23995,-1.18995l-1.58993,-0.10999l-0.83997,-0.48998l-1.10995,0.31998l-1.77992,-0.20999l-0.75997,-0.63997l-2.5499,-0.95996l-0.85996,0.38998l-0.66997,1.45994l-3.04988,1.05996l-1.30995,1.11996l-2.06992,0.20999l-0.04,1.01996l-1.59994,0.22999l-0.62998,-2.78989l0.71997,-1.89992l-0.17999,-1.14995l-1.48994,-1.56994l-4.12983,-0.56997l-1.31995,0.07l-2.17991,1.19995l-1.39995,-0.25999l-2.04992,0.42998l-2.22991,-0.57998l-1.02996,0.56997l-1.11995,-0.03999l-1.68994,-1.10996l-1.18995,-0.20999l0.55997,-1.38995l1.39995,-2.04991l-0.04,-1.44994l1.02996,-2.34991l0.93996,-1.43994l0.29999,-1.20996l-0.33998,-0.87996l1.21995,-1.21995l0.89996,0.50998l1.01996,-0.30998l-0.47998,-2.92989l-0.40998,-0.42998l-0.32999,-2.35991l0.06,-1.59994l0.46998,-0.98996l1.11995,-0.61998l0.66998,-1.26995l-0.66998,-0.55997l-1.85992,-0.35999l0.69997,-1.97992l0.85997,-1.12995l1.27994,-0.56998l2.5499,-0.08999l1.47994,-1.10996l2.15992,0.08999l1.30994,-0.64997l1.49994,-1.82993l-0.01,-3.08988l1.16996,-1.95992l0.90996,-0.27999l0.98996,-4.26983l0.44998,-0.52998l1.30995,-0.13999l1.21995,0.38998l0.39999,0.97996l1.00996,0.27999l1.11996,-0.83996l1.34994,0.66997l0.18999,1.09996l1.15995,0.11999l0.48998,1.66993l1.09995,1.25995l0.77997,-0.35998l1.47994,0.18999l1.66993,-0.22999l0.61998,1.73993l0.71997,1.03996l1.95992,-1.65994l0.93997,-1.49994l3.64986,-0.35998l1.50993,-0.71997"/></g></g></svg>