<svg version="1.1" xmlns="http://www.w3.org/2000/svg" xmlns:xlink="http://www.w3.org/1999/xlink" width="100" height="100" viewBox="0,0,100,100"><g transform="translate(-190,-130)"><g data-paper-data="{&quot;isPaintingLayer&quot;:true}" fill-rule="nonzero" stroke-linecap="butt" stroke-linejoin="miter" stroke-miterlimit="10" stroke-dasharray="" stroke-dashoffset="0" style="mix-blend-mode: normal"><path d="M190,230v-100h100v100z" fill="none" stroke="#959196" stroke-width="0"/><path d="M239.901,180.987v-3.16c1.01333,0 1.84,-0.44 2.48,-1.32c0.66667,-0.88 1,-2.01333 1,-3.4h3.64c0,1.52 -0.30667,2.88 -0.92,4.08c-0.58667,1.17333 -1.41333,2.10667 -2.48,2.8c-1.06667,0.66667 -2.30667,1 -3.72,1zM243.781,187.747v-2.8h3.64v2.8zM237.461,180.987v-3.16h2.48v3.16zM243.381,173.147c0,-1.33333 -0.33333,-2.42667 -1,-3.28c-0.64,-0.85333 -1.46667,-1.28 -2.48,-1.28v-3.16c1.41333,0 2.65333,0.33333 3.72,1c1.06667,0.64 1.89333,1.54667 2.48,2.72c0.61333,1.14667 0.92,2.48 0.92,4zM247.421,187.707c0,1.36 -0.32,2.58667 -0.96,3.68c-0.64,1.06667 -1.52,1.92 -2.64,2.56c-1.12,0.61333 -2.38667,0.92 -3.8,0.92v-3.16c1.09333,0 1.98667,-0.37333 2.68,-1.12c0.72,-0.77333 1.08,-1.73333 1.08,-2.88zM247.421,184.987h-3.64c0,-1.17333 -0.36,-2.13333 -1.08,-2.88c-0.69333,-0.74667 -1.58667,-1.12 -2.68,-1.12v-3.16c1.41333,0 2.68,0.30667 3.8,0.92c1.12,0.61333 2,1.46667 2.64,2.56c0.64,1.09333 0.96,2.32 0.96,3.68zM236.141,172.067l-3.36,-0.68c0.16,-1.17333 0.56,-2.2 1.2,-3.08c0.66667,-0.90667 1.52,-1.61333 2.56,-2.12c1.04,-0.50667 2.17333,-0.76 3.4,-0.76v3.16c-0.96,0 -1.8,0.28 -2.52,0.84c-0.72,0.56 -1.14667,1.44 -1.28,2.64zM236.261,188.227c0.13333,1.17333 0.54667,2.05333 1.24,2.64c0.72,0.56 1.57333,0.84 2.56,0.84v3.16c-1.25333,0 -2.4,-0.25333 -3.44,-0.76c-1.01333,-0.50667 -1.85333,-1.21333 -2.52,-2.12c-0.64,-0.90667 -1.04,-1.93333 -1.2,-3.08z" fill="#ff0505" stroke="none" stroke-width="1"/></g></g></svg>