<svg version="1.1" xmlns="http://www.w3.org/2000/svg" xmlns:xlink="http://www.w3.org/1999/xlink" width="168.1" height="32.738" viewBox="0,0,168.1,32.738"><g transform="translate(-240,-180)"><g data-paper-data="{&quot;isPaintingLayer&quot;:true}" stroke="none" stroke-linecap="butt" stroke-linejoin="miter" stroke-miterlimit="10" stroke-dasharray="" stroke-dashoffset="0" style="mix-blend-mode: normal"><path d="M248,180h152.1c4.432,0 8,3.568 8,8v16.738c0,4.432 -3.568,8 -8,8h-152.1c-4.432,0 -8,-3.568 -8,-8v-16.738c0,-4.432 3.568,-8 8,-8z" fill-opacity="0.7" fill="#000000" fill-rule="evenodd" stroke-width="0"/><g fill="#ffffff" fill-rule="nonzero" stroke-width="1"><path d="M249.24,187.85h4.8984v0.70312h-5.3008c-0.29688,0.44531 -0.63671,0.83725 -1.0195,1.1758l-0.64844,-0.59765c0.65365,-0.51303 1.12238,-1.16929 1.4062,-1.9688l0.90625,0.15234c-0.07031,0.17187 -0.15104,0.35026 -0.24219,0.53516zM253.4666,190.1117v0.10547c0,1.3802 0.08854,2.3724 0.26563,2.9766c0.07552,0.26041 0.13281,0.39062 0.17187,0.39062c0.02347,0 0.05603,-0.06901 0.0977,-0.20703c0.07291,-0.24479 0.12369,-0.5625 0.15234,-0.95313l0.75,0.5586c-0.08854,0.59375 -0.18359,1.01301 -0.28515,1.2578c-0.15105,0.36459 -0.35417,0.54688 -0.60938,0.54688c-0.21875,0 -0.4388,-0.13021 -0.66015,-0.39063c-0.26042,-0.30469 -0.44922,-0.75522 -0.56641,-1.3516c-0.10937,-0.54948 -0.17318,-1.26301 -0.19141,-2.1406v-0.0977h-5.1328v-0.69532zM249.6228,192.8031c-0.51302,-0.32031 -1.06379,-0.61458 -1.6523,-0.88281l0.55859,-0.57422c0.61459,0.27865 1.16405,0.5651 1.6484,0.85937c0.28906,-0.36458 0.54036,-0.75781 0.75391,-1.1797l0.79687,0.32031c-0.24479,0.49219 -0.52083,0.92839 -0.82812,1.3086c0.45833,0.29688 0.92447,0.63411 1.3984,1.0117l-0.57031,0.66406c-0.46875,-0.39062 -0.93358,-0.74479 -1.3945,-1.0625c-0.65365,0.61719 -1.45181,1.09376 -2.3945,1.4297l-0.55469,-0.64844c0.92447,-0.29687 1.67057,-0.71224 2.2383,-1.2461zM248.6111,189.0258h4.7109v0.625h-4.7109z"/><path d="M259.57,191.86c0.03647,0.04167 0.0612,0.0703 0.0742,0.0859c0.66406,-0.30209 1.30079,-0.68229 1.9102,-1.1406l0.6211,0.55469c-0.65625,0.41406 -1.33465,0.76953 -2.0352,1.0664c0.67707,0.56771 1.54817,0.97917 2.6133,1.2344l-0.49609,0.76563c-0.9948,-0.35417 -1.78647,-0.84507 -2.375,-1.4727c0.0104,0.11198 0.0156,0.21745 0.0156,0.31641c0,1.013 -0.33593,1.5195 -1.0078,1.5195c-0.26302,0 -0.57552,-0.02213 -0.9375,-0.0664l-0.16797,-0.71875c0.36198,0.06247 0.64583,0.0937 0.85156,0.0937c0.17448,0 0.29037,-0.07682 0.34766,-0.23047c0.06771,-0.17708 0.10156,-0.43489 0.10156,-0.77343c0,-0.06771 -0.0039,-0.14193 -0.0117,-0.22266c-0.9896,0.78127 -2.1068,1.3646 -3.3516,1.75l-0.47265,-0.64844c0.98173,-0.24479 1.901,-0.61849 2.7578,-1.1211c0.35156,-0.20573 0.65885,-0.41407 0.92187,-0.625c-0.02607,-0.06771 -0.05992,-0.14453 -0.10156,-0.23047c-0.94013,0.60677 -1.9805,1.06511 -3.1211,1.375l-0.39844,-0.63672c1.28907,-0.27604 2.3646,-0.68231 3.2266,-1.2188c-0.03647,-0.04947 -0.08204,-0.10415 -0.13672,-0.16406c-0.8594,0.32813 -1.68753,0.57552 -2.4844,0.74219l-0.44531,-0.625c1.03127,-0.15625 2.00783,-0.40365 2.9297,-0.74219h-2.4414v-1.4922c-0.07031,0.03387 -0.17709,0.08465 -0.32032,0.15234l-0.45703,-0.58593c0.91147,-0.35417 1.69793,-0.89453 2.3594,-1.6211l0.52734,0.35938h2.2695l0.33594,0.32812c-0.28385,0.33855 -0.58984,0.64193 -0.91797,0.91016h2.4883v1.9492h-2.4219c-0.26302,0.1276 -0.51823,0.24609 -0.76563,0.35547c0.20833,0.23177 0.38021,0.49088 0.51563,0.77734zM258.80437,188.778c0.32552,-0.26823 0.54818,-0.47786 0.66797,-0.62891h-1.9062c-0.27604,0.22657 -0.55729,0.4362 -0.84375,0.62891zM256.81997,189.37956v0.7461h1.8476v-0.7461zM261.38637,190.12566v-0.7461h-1.9062v0.7461z"/><path d="M267.5,188.23h3.0977v0.76953h-5.9648v1.4258c0,1.17447 -0.0651,2.09763 -0.19531,2.7695c-0.11198,0.57292 -0.30078,1.09505 -0.56641,1.5664l-0.70312,-0.65625c0.24479,-0.46875 0.40755,-1.02605 0.48828,-1.6719c0.06513,-0.52865 0.0977,-1.22005 0.0977,-2.0742v-2.1289h2.8555v-1.0312h0.89059zM268.25391,190.9292v3.0703c0,0.30469 -0.08073,0.51693 -0.24219,0.63672c-0.13281,0.09635 -0.35417,0.14453 -0.66406,0.14453c-0.44531,0 -0.88411,-0.02603 -1.3164,-0.0781l-0.13672,-0.82421c0.47135,0.07031 0.89712,0.10546 1.2773,0.10546c0.09636,0 0.15496,-0.02343 0.17579,-0.0703c0.013,-0.03387 0.0195,-0.09116 0.0195,-0.17187v-2.8125h-2.4102v-0.76953h5.8203v0.76953z"/><path d="M271.37,188.93h1.7266c0.07813,-0.40104 0.16537,-0.89974 0.26172,-1.4961l0.0195,-0.11328l0.85547,0.1289c-0.08854,0.55209 -0.17969,1.04559 -0.27344,1.4805h0.47266c0.625,0 1.07293,0.14063 1.3438,0.42188c0.24219,0.2526 0.36328,0.64583 0.36328,1.1797c0,0.89847 -0.09505,1.7383 -0.28516,2.5195c-0.10937,0.44271 -0.24219,0.76954 -0.39844,0.98047c-0.19791,0.26302 -0.47265,0.39453 -0.82421,0.39453c-0.42188,0 -0.88281,-0.13542 -1.3828,-0.40625l0.0977,-0.82421c0.49479,0.23697 0.87889,0.35546 1.1523,0.35546c0.14323,0 0.25391,-0.07682 0.33203,-0.23046c0.08333,-0.16667 0.16276,-0.40755 0.23829,-0.72266c0.14843,-0.63802 0.22265,-1.30859 0.22265,-2.0117c0,-0.36979 -0.07422,-0.60938 -0.22265,-0.71875c-0.12761,-0.09115 -0.35547,-0.13672 -0.6836,-0.13672h-0.60156c-0.41406,1.84373 -1.00779,3.41667 -1.7812,4.7188l-0.78516,-0.42969c0.79947,-1.34113 1.36977,-2.77083 1.7109,-4.2891h-1.5586zM277.8583,192.7855c-0.29427,-1.08333 -0.75911,-2.14713 -1.3945,-3.1914l0.76172,-0.34375c0.65625,1.04687 1.14711,2.10027 1.4726,3.1602zM277.28017,189.0433c-0.16145,-0.42187 -0.42187,-0.89061 -0.78125,-1.4062l0.60547,-0.22656c0.31511,0.44531 0.57943,0.90755 0.79297,1.3867zM278.33097,188.70736c-0.20312,-0.5026 -0.46223,-0.97527 -0.77734,-1.418l0.57422,-0.19141c0.29948,0.35677 0.5612,0.80207 0.78516,1.3359z"/><path d="M284.89,189.06c0.35156,-0.29427 0.69269,-0.64194 1.0234,-1.043l0.64062,0.49609c-0.28125,0.3125 -0.62368,0.6211 -1.0273,0.92579c0.34375,0.17969 0.77215,0.36458 1.2852,0.55468l-0.42579,0.6875c-0.46875,-0.18229 -0.89581,-0.38671 -1.2812,-0.61328v0.40625h-0.72656v1.0508h2.2578v0.75391h-2.2578v1.3086c0,0.13802 0.02997,0.22005 0.0899,0.2461c0.08073,0.03387 0.24739,0.0508 0.5,0.0508c0.27604,0 0.46484,-0.01693 0.5664,-0.0508c0.10157,-0.03127 0.16667,-0.11851 0.19531,-0.26172c0.03647,-0.17709 0.056,-0.4323 0.0586,-0.76563l0.85547,0.25391c-0.02867,0.69273 -0.10419,1.12763 -0.22657,1.3047c-0.10677,0.15365 -0.27343,0.24609 -0.5,0.27734c-0.22917,0.03127 -0.60027,0.0469 -1.1133,0.0469c-0.48437,0 -0.79687,-0.02993 -0.9375,-0.0898c-0.22917,-0.09635 -0.34375,-0.3138 -0.34375,-0.65234v-1.668h-1.2305c-0.05987,0.67447 -0.28122,1.2018 -0.66406,1.582c-0.42187,0.42187 -1.04427,0.73958 -1.8672,0.95313l-0.5039,-0.7461c0.737,-0.15365 1.27997,-0.38021 1.6289,-0.67969c0.19011,-0.16667 0.32813,-0.36979 0.41407,-0.60937c0.04687,-0.125 0.08593,-0.29167 0.11718,-0.5h-2.0547v-0.75391h2.0938v-1.0508h-0.60938v-0.32422c-0.45833,0.28646 -0.92707,0.51693 -1.4062,0.69141l-0.39062,-0.65625c0.5651,-0.19271 1.09373,-0.4414 1.5859,-0.74609c-0.28385,-0.27083 -0.60416,-0.52604 -0.96093,-0.76563l0.5664,-0.55859c0.40365,0.28125 0.74738,0.5651 1.0312,0.85156c0.30729,-0.26302 0.56901,-0.53906 0.78516,-0.82813h-1.4102v-0.73437h2.6836c0.21354,0.35417 0.43229,0.65234 0.65625,0.89453c0.30469,-0.27083 0.6237,-0.60156 0.95703,-0.99219l0.63281,0.4961c-0.31511,0.34115 -0.67187,0.66667 -1.0703,0.97656c0.14323,0.11198 0.27083,0.20573 0.38281,0.28125zM283.5228,190.4741h-1.2031v1.0508h1.2031zM281.4252,189.75535h3.1836c-0.64844,-0.43489 -1.20834,-0.93619 -1.6797,-1.5039c-0.375,0.53385 -0.8763,1.03515 -1.5039,1.5039z"/><path d="M292.15,193.16l0.0547,0.69921c-1.1302,0.39844 -2.3867,0.72657 -3.7695,0.98438l-0.28906,-0.78125c0.23959,-0.03647 0.57812,-0.09506 1.0156,-0.17578v-1.4297c-0.45053,0.22917 -0.98699,0.44661 -1.6094,0.65234l-0.44531,-0.69531c1.2526,-0.33854 2.20833,-0.77084 2.8672,-1.2969h-2.7891v-0.67969h3.3477v-0.58984h-2.5313v-0.65625h2.5312v-0.55079h-2.9297v-0.67187h2.9297v-0.76953h0.85547v0.76953h3.0156v0.67187h-3.0156v0.55079h2.6172v0.65625h-2.6172v0.58984h3.4336v0.67969h-0.93359l0.57812,0.39843c-0.35677,0.34636 -0.85677,0.72526 -1.5,1.1367l-0.0898,0.0586c0.48958,0.44791 1.15365,0.81771 1.9922,1.1094l-0.52735,0.79297c-0.90887,-0.38541 -1.63933,-0.86978 -2.1914,-1.4531zM290.9664,191.1288c-0.26041,0.30469 -0.57421,0.57812 -0.9414,0.82031v1.7539c0.64323,-0.14323 1.28906,-0.30989 1.9375,-0.5l0.17968,-0.0508c-0.53385,-0.59115 -0.92579,-1.26561 -1.1758,-2.0234zM292.3922,192.1952c0.46355,-0.33073 0.86981,-0.69009 1.2188,-1.0781h-1.8476c0.16667,0.39843 0.3763,0.7578 0.6289,1.0781z"/><path d="M299.25,187.36h0.8789v1.0781h2.3047v0.75391h-2.3047v1.6719c0.09115,0.32031 0.13672,0.60547 0.13672,0.85547c0,0.92707 -0.20443,1.60807 -0.61328,2.043c-0.44531,0.47656 -1.11588,0.80599 -2.0117,0.98828l-0.44531,-0.66406c0.69533,-0.13281 1.21097,-0.32031 1.5469,-0.5625c0.31511,-0.22917 0.52735,-0.54037 0.63672,-0.9336c-0.27865,0.30469 -0.61068,0.45703 -0.99609,0.45703c-0.43229,0 -0.78256,-0.12239 -1.0508,-0.36718c-0.31511,-0.28907 -0.47266,-0.70833 -0.47266,-1.2578c0,-0.28906 0.06901,-0.5677 0.20703,-0.83593c0.09115,-0.17188 0.20313,-0.31511 0.33594,-0.42969c0.30729,-0.26042 0.67579,-0.39063 1.1055,-0.39063c0.27343,0 0.52083,0.06511 0.74219,0.19532v-0.76953h-3.8555v-0.75391h3.8555zM299.2812,191.4147v-0.14453c0,-0.16667 -0.03906,-0.3138 -0.11719,-0.44141c-0.14583,-0.23958 -0.35677,-0.35937 -0.63281,-0.35937c-0.14063,0 -0.27214,0.03906 -0.39454,0.11719c-0.28645,0.17969 -0.42968,0.45573 -0.42968,0.82812c0,0.23437 0.05208,0.43229 0.15625,0.59375c0.14583,0.22396 0.36068,0.33594 0.64453,0.33594c0.25781,0 0.46224,-0.11589 0.61328,-0.34766c0.10677,-0.16406 0.16016,-0.35807 0.16016,-0.58203z"/><path d="M304.08,187.63h4.3828l0.41797,0.64844c-1.35413,0.82813 -2.5273,1.58073 -3.5195,2.2578c0.64063,-0.26823 1.28386,-0.40234 1.9297,-0.40234c0.58073,0 1.06509,0.09245 1.4531,0.27734c0.35938,0.17187 0.63933,0.40625 0.83985,0.70313c0.20833,0.3151 0.3125,0.67707 0.3125,1.0859c0,0.57292 -0.19531,1.05209 -0.58594,1.4375c-0.26823,0.26823 -0.61196,0.47136 -1.0312,0.60938c-0.54948,0.17969 -1.15105,0.26953 -1.8047,0.26953c-0.7526,0 -1.3073,-0.13932 -1.6641,-0.41797c-0.27865,-0.21875 -0.41797,-0.51432 -0.41797,-0.88672c0,-0.28125 0.10156,-0.53125 0.30469,-0.75c0.30729,-0.33073 0.72266,-0.49609 1.2461,-0.49609c0.55469,0 0.99869,0.1862 1.332,0.55859c0.24219,0.27083 0.41667,0.6341 0.52344,1.0898c0.80207,-0.25521 1.2031,-0.72658 1.2031,-1.4141c0,-0.52083 -0.21745,-0.90493 -0.65235,-1.1523c-0.29167,-0.16667 -0.66147,-0.25 -1.1094,-0.25c-0.66927,0 -1.27343,0.09245 -1.8125,0.27734c-0.39844,0.13542 -0.93361,0.46224 -1.6055,0.98047l-0.55078,-0.66406c0.72393,-0.625 1.54813,-1.2591 2.4726,-1.9023c0.63802,-0.44271 1.20052,-0.80598 1.6875,-1.0898h-3.3516zM307.0409,193.7667c-0.1849,-0.737 -0.54817,-1.1055 -1.0898,-1.1055c-0.29947,0 -0.51562,0.09505 -0.64843,0.28516c-0.06247,0.08593 -0.0937,0.17838 -0.0937,0.27734c0,0.20573 0.14583,0.36068 0.4375,0.46485c0.21093,0.07291 0.49348,0.10937 0.84765,0.10937c0.15105,0 0.33334,-0.0104 0.54688,-0.0312z"/><path d="M315.43,189.41c0.18229,0.09375 0.39192,0.20573 0.6289,0.33594l-0.49609,0.40234h2.3516l0.44141,0.44141c-0.58594,0.8828 -1.17057,1.60807 -1.7539,2.1758l-0.79297,-0.46485c0.51302,-0.46875 0.92449,-0.93488 1.2344,-1.3984h-1.9453v3.0625c0,0.35417 -0.08724,0.58073 -0.26172,0.67968c-0.11719,0.06771 -0.33594,0.10157 -0.65625,0.10157c-0.41927,0 -0.88151,-0.02603 -1.3867,-0.0781l-0.19141,-0.87109c0.48698,0.07813 0.91928,0.11719 1.2969,0.11719c0.14323,0 0.23177,-0.02343 0.26562,-0.0703c0.02607,-0.03907 0.0391,-0.11068 0.0391,-0.21484v-2.7266h-3.2734v-0.75391h4.2344c-0.8802,-0.50521 -1.7604,-0.93227 -2.6406,-1.2812l0.63281,-0.50391c0.59115,0.23698 1.11328,0.46745 1.5664,0.69141c0.40104,-0.27344 0.75261,-0.54167 1.0547,-0.80469h-4.1758v-0.74218h5.3125l0.48047,0.46875c-0.68227,0.54947 -1.3372,1.02734 -1.9648,1.4336z"/><path d="M320.36,189.87c-0.33854,0.61719 -0.73047,1.12239 -1.1758,1.5156l-0.44922,-0.72656c0.58333,-0.44271 1.07553,-1.04037 1.4766,-1.793h-1.293v-0.71875h1.4414v-0.94531h0.83984v0.94531h1.1289v0.71875h-1.1289v0.47656c0.46355,0.26563 0.87631,0.54688 1.2383,0.84375l-0.47266,0.6875c-0.24739,-0.27604 -0.5026,-0.52213 -0.76563,-0.73828v1.7383h-0.83984zM322.7584,191.745c0.33333,0.31771 0.66146,0.69921 0.98437,1.1445l-0.69531,0.49609c-0.35937,-0.55469 -0.70704,-0.98699 -1.043,-1.2969l0.55469,-0.38672v-4.2188h3.3359v4.2617zM323.34824,188.1239v0.59766h1.7383v-0.59766zM323.34824,189.3231v0.58985h1.7383v-0.58985zM323.34824,190.5067v0.59765h1.7383v-0.59765zM318.83654,194.1395c0.29948,-0.48959 0.53255,-1.08985 0.69922,-1.8008l0.8125,0.23047c-0.14583,0.83593 -0.39583,1.53513 -0.75,2.0976zM320.97324,192.3465h0.85547v1.2461c0,0.16146 0.03906,0.25782 0.11719,0.28907c0.09896,0.03647 0.3724,0.0547 0.82031,0.0547c0.42709,0 0.71224,-0.01433 0.85547,-0.043c0.10417,-0.02347 0.17057,-0.08336 0.19922,-0.17968c0.03907,-0.13021 0.0651,-0.36719 0.0781,-0.71094l0.86328,0.19922c-0.0104,0.38802 -0.03903,0.66536 -0.0859,0.83203c-0.06513,0.23698 -0.16149,0.39844 -0.28907,0.48437c-0.10937,0.07553 -0.26692,0.1198 -0.47265,0.13282c-0.42709,0.02607 -0.86589,0.0391 -1.3164,0.0391c-0.7578,0 -1.22003,-0.04427 -1.3867,-0.13281c-0.15885,-0.08594 -0.23828,-0.26823 -0.23828,-0.54688zM325.73494,194.4403c-0.31511,-0.7604 -0.66537,-1.40493 -1.0508,-1.9336l0.71484,-0.42579c0.42969,0.57292 0.79689,1.19142 1.1016,1.8555z"/><path d="M332.29,193.03c0.52343,0.36979 1.23567,0.67188 2.1367,0.90625l-0.54297,0.74219c-1.18227,-0.33333 -2.11847,-0.8828 -2.8086,-1.6484c-0.41145,-0.45313 -0.71614,-0.97006 -0.91406,-1.5508h-1.1016v2.2695c0.66927,-0.12239 1.3789,-0.28385 2.1289,-0.48438l0.0547,0.74219c-1.2292,0.35157 -2.44793,0.62631 -3.6562,0.82422l-0.27734,-0.80859c0.41146,-0.05207 0.69922,-0.09113 0.86328,-0.11719v-2.4258h-1.375v-0.66406h1.375v-3.3633h5.3984v0.65625h-4.5117v0.46485h4.1523v0.63281h-4.1523v0.47266h4.1523v0.61718h-4.1523v0.51954h5.3359v0.66406h-1.0664l0.61719,0.53515c-0.49479,0.35677 -1.04686,0.69531 -1.6562,1.0156zM331.7275,192.56906c0.60156,-0.375 1.10546,-0.73827 1.5117,-1.0898h-2.2774c0.17448,0.40365 0.42969,0.76691 0.76563,1.0898z"/><path d="M340.36,191.41v2.0586h-2.6289v0.41406h-0.78515v-2.4727zM339.56312,192.02719h-1.832v0.80078h1.832zM341.89902,187.47639v6.4062c0,0.34635 -0.08854,0.57422 -0.26562,0.68359c-0.12761,0.07813 -0.36329,0.11719 -0.70704,0.11719c-0.43229,0 -0.86329,-0.01823 -1.293,-0.0547l-0.17579,-0.83203c0.46094,0.05207 0.88801,0.0781 1.2812,0.0781c0.14323,0 0.22917,-0.01563 0.25782,-0.0469c0.0234,-0.02867 0.0351,-0.09768 0.0351,-0.20703v-5.4336h-4.7461v2.1992c0,1.28127 -0.04427,2.20313 -0.13281,2.7656c-0.09375,0.60937 -0.29037,1.16797 -0.58985,1.6758l-0.71875,-0.60156c0.27344,-0.49219 0.44401,-1.07812 0.51172,-1.7578c0.04947,-0.46355 0.0742,-1.11458 0.0742,-1.9531v-3.0391zM339.05922,188.98809h1.5352v0.625h-1.5352v0.60547h1.7031v0.63281h-4.207v-0.63281h1.6797v-0.60547h-1.5039v-0.625h1.5039v-0.57032h0.82422z"/><path d="M343.51,188.25v-1.0469h0.76172v1.0469h1.2383v-1.0469h0.76172v1.0469h0.48828v0.6875h-0.48828v3.1133h0.55078v0.71875h-4.0234v-0.71875h0.71094v-3.1133h-0.57422v-0.6875zM345.51,188.9375h-1.2383v0.64844h1.2383zM345.51,190.1602h-1.2383v0.65234h1.2383zM345.51,191.379h-1.2383v0.67187h1.2383zM350.1077,187.4845v6.5273c0,0.27604 -0.07162,0.47135 -0.21485,0.58594c-0.11719,0.09375 -0.30989,0.14062 -0.57812,0.14062c-0.37239,0 -0.68099,-0.01563 -0.92578,-0.0469l-0.16016,-0.81641c0.375,0.04427 0.64063,0.0664 0.79688,0.0664c0.11979,0 0.19661,-0.02213 0.23047,-0.0664c0.02867,-0.03907 0.043,-0.10547 0.043,-0.19922v-1.6562h-1.4297c-0.03387,0.52344 -0.09246,0.95314 -0.17578,1.2891c-0.13542,0.54427 -0.38933,1.04817 -0.76172,1.5117l-0.63282,-0.5625c0.32553,-0.40886 0.54428,-0.89976 0.65625,-1.4727c0.08073,-0.41146 0.1211,-0.91406 0.1211,-1.5078v-3.793zM349.2991,188.24622h-1.4141v1.1484h1.4141zM349.2991,190.10562h-1.4141v1.203h1.4141zM342.7561,194.25012c0.45312,-0.38541 0.81639,-0.84115 1.0898,-1.3672l0.71094,0.36718c-0.34375,0.68493 -0.73569,1.21097 -1.1758,1.5781zM345.885,194.34782c-0.17448,-0.38281 -0.42057,-0.75131 -0.73828,-1.1055l0.625,-0.42969c0.28385,0.27605 0.53255,0.58464 0.74609,0.92578z"/><path d="M354.7,190.36v3.0938c0,0.20052 0.08594,0.32161 0.25781,0.36328c0.17709,0.04427 0.58202,0.0664 1.2148,0.0664c0.61719,0 1.02472,-0.03123 1.2226,-0.0937c0.11198,-0.03647 0.1849,-0.13803 0.21875,-0.30469c0.04427,-0.23437 0.0677,-0.51172 0.0703,-0.83203l0.8164,0.23047c-0.04167,0.7682 -0.14713,1.25907 -0.3164,1.4726c-0.11198,0.14063 -0.28125,0.22396 -0.50782,0.25c-0.35677,0.03907 -0.96223,0.0586 -1.8164,0.0586c-0.66146,0 -1.09506,-0.01823 -1.3008,-0.0547c-0.3099,-0.05207 -0.50652,-0.18879 -0.58985,-0.41016c-0.04167,-0.11719 -0.0625,-0.27344 -0.0625,-0.46875v-3.0976l-0.74609,0.25781l-0.18359,-0.75781l0.92968,-0.32031v-2.1055h0.79297v1.832l0.83985,-0.28516v-2.0586h0.78515v1.7852l1.3086,-0.44921l0.41015,0.25v2.9258c0,0.20312 -0.04818,0.35416 -0.14453,0.45312c-0.10937,0.10937 -0.29297,0.16406 -0.55078,0.16406c-0.21094,0 -0.4349,-0.01823 -0.67188,-0.0547l-0.1289,-0.7461c0.15365,0.03907 0.3099,0.0586 0.46875,0.0586c0.11458,0 0.18489,-0.02343 0.21094,-0.0703c0.02607,-0.03907 0.0391,-0.10417 0.0391,-0.19531v-1.8476l-0.94141,0.32812v3.1602h-0.78515v-2.8906zM351.8289,189.0827v-1.8867h0.83984v1.8867h0.75781v0.79297h-0.75781v2.4844c0.27344,-0.09375 0.54427,-0.1914 0.8125,-0.29297l0.0742,0.75391c-0.84373,0.38541 -1.70963,0.70833 -2.5977,0.96875l-0.27343,-0.83203c0.40104,-0.10417 0.75261,-0.20313 1.0547,-0.29688c0.03647,-0.013 0.06643,-0.0221 0.0899,-0.0273v-2.7578h-0.99219v-0.79297z"/><path d="M362.16,188.25v-0.33594h-2.4414v-0.5586h5.7656v0.5586h-2.4922v0.33594h3.2344v1.4023h-0.84765v-0.89844h-2.3867v1.5195h-0.83203v-1.5195h-2.3438v0.89844h-0.83985v-1.4023zM364.9256,193.793c0.39844,0.15105 0.89584,0.27084 1.4922,0.35938l-0.45703,0.66406c-0.83593,-0.14323 -1.52213,-0.38932 -2.0586,-0.73828c-0.53385,-0.34896 -0.94922,-0.78256 -1.2461,-1.3008h-0.86328v1.2031c0.57552,-0.08073 1.10939,-0.16666 1.6016,-0.25781l0.0547,0.58203c-0.91667,0.21875 -1.96483,0.40886 -3.1445,0.57032l-0.23047,-0.6875c0.40885,-0.04427 0.6888,-0.0755 0.83984,-0.0937l0.0469,-0.008v-1.3086h-0.85547c-0.03647,0.45833 -0.09636,0.82423 -0.17969,1.0977c-0.09896,0.32812 -0.25781,0.63411 -0.47656,0.91796l-0.69531,-0.57421c0.25521,-0.33073 0.41406,-0.71747 0.47656,-1.1602c0.03387,-0.23959 0.0508,-0.53776 0.0508,-0.89453v-1.6562h6.7422v0.51953h-5.9024v1.1992h6.2383v0.55078h-0.88671l0.49609,0.32812c-0.29427,0.24479 -0.64194,0.47396 -1.043,0.6875zM364.31623,193.49222c0.375,-0.25521 0.67318,-0.49349 0.89453,-0.71484h-1.707c0.22395,0.28646 0.49479,0.52474 0.8125,0.71484zM360.16003,189.04302h1.6641v0.44141h-1.6641zM360.16003,189.76177h1.6641v0.44922h-1.6641zM363.32803,189.04302h1.7148v0.44141h-1.7148zM363.32803,189.76177h1.7148v0.44922h-1.7148zM360.58583,191.35557h4.8633v0.51172h-4.8633z"/><path d="M372.01,188.86l0.0391,-1.6562h0.78516l-0.0352,1.6562h1.4805c-0.02607,2.91147 -0.13544,4.6745 -0.32813,5.2891c-0.08333,0.26563 -0.23437,0.4349 -0.45312,0.50781c-0.11198,0.03907 -0.27865,0.0586 -0.5,0.0586c-0.28906,0 -0.5625,-0.01823 -0.82031,-0.0547l-0.15235,-0.82422c0.29948,0.05727 0.5638,0.0859 0.79297,0.0859c0.1849,0 0.30339,-0.05078 0.35547,-0.15235c0.04947,-0.09895 0.09764,-0.33854 0.14453,-0.71875c0.09375,-0.7552 0.15365,-1.83073 0.17969,-3.2266l0.004,-0.19531h-0.754c-0.04427,1.15627 -0.18229,2.1146 -0.41406,2.875c-0.28385,0.92707 -0.72785,1.6966 -1.332,2.3086l-0.64063,-0.49609c0.12761,-0.11979 0.23047,-0.22656 0.30859,-0.32031c-1.30207,0.23698 -2.54947,0.41276 -3.7422,0.52734l-0.17578,-0.73828c0.64843,-0.03907 1.2643,-0.08724 1.8476,-0.14453v-0.54297h-1.6797v-0.61719h1.6797v-0.44531h-1.4961v-2.5664h1.4961v-0.43359h-1.8008v-0.60938h1.8008v-0.34765c-0.39323,0.03907 -0.84116,0.07292 -1.3438,0.10156l-0.28125,-0.60156c1.25,-0.05207 2.3659,-0.18748 3.3477,-0.40625l0.44531,0.5664c-0.42448,0.10677 -0.89061,0.19141 -1.3984,0.25391v0.43359h1.75v0.4336zM371.9748,189.62953h-0.87109v-0.59375h-1.7344v0.43359h1.5195v2.5664h-1.5195v0.44531h1.6172v0.61719h-1.6172v0.46484l0.32813,-0.0312c0.4375,-0.04427 0.91017,-0.10937 1.418,-0.19531c0.48958,-0.8932 0.77343,-2.09373 0.85156,-3.6016zM368.6232,189.99672h-0.84766v0.49609h0.84766zM369.34586,189.99672v0.49609h0.87109v-0.49609zM368.6232,190.97328h-0.84766v0.53516h0.84766zM369.34586,190.97328v0.53516h0.87109v-0.53516z"/><path d="M377.5,189.84v-2.5352h0.78515v0.83203h1.2812v0.70312h-1.2812v0.87891c0.34635,-0.05727 0.77082,-0.13669 1.2734,-0.23828l0.0391,0.64844c-0.67967,0.1901 -1.49087,0.35807 -2.4336,0.5039l-0.23047,-0.71484c0.10937,-0.013 0.2487,-0.03123 0.41797,-0.0547zM376.6289,189.9181c0.40625,0.58593 0.60938,1.23827 0.60938,1.957c0,0.32813 -0.03516,0.57813 -0.10547,0.75c-0.10937,0.26041 -0.36198,0.39062 -0.75781,0.39062c-0.15105,0 -0.29037,-0.01303 -0.41797,-0.0391l-0.1836,-0.76953c0.16407,0.03387 0.30469,0.0508 0.42188,0.0508c0.13021,0 0.21094,-0.03123 0.24219,-0.0937c0.0234,-0.04687 0.0351,-0.1315 0.0351,-0.2539c0,-0.7318 -0.1849,-1.36853 -0.55469,-1.9102c0.17969,-0.49739 0.34506,-1.12239 0.4961,-1.875h-0.67188v6.6758h-0.76953v-7.3945h1.8477l0.41797,0.32812c-0.17448,0.8516 -0.37761,1.57947 -0.60938,2.1836zM380.5469,188.1525c0.47917,-0.17448 0.89583,-0.36979 1.25,-0.58593l0.49609,0.64062c-0.5026,0.24219 -1.08463,0.45312 -1.7461,0.63281v0.69532c0,0.11719 0.03776,0.1875 0.11328,0.21093c0.07552,0.02347 0.23437,0.0352 0.47656,0.0352c0.19531,0 0.32422,-0.01303 0.38672,-0.0391c0.08333,-0.03127 0.13802,-0.12111 0.16407,-0.26953c0.0182,-0.11719 0.03253,-0.3073 0.043,-0.57032l0.71094,0.21485c-0.00267,0.58333 -0.07949,0.95963 -0.23047,1.1289c-0.09375,0.10417 -0.23697,0.16927 -0.42968,0.19532c-0.21615,0.02867 -0.49479,0.043 -0.83594,0.043c-0.50261,0 -0.82813,-0.05469 -0.97656,-0.16406c-0.13281,-0.09635 -0.19922,-0.26432 -0.19922,-0.5039v-2.5625h0.77734zM378.9571,191.0939c0.09895,-0.23698 0.17057,-0.47396 0.21484,-0.71094l0.82422,0.09378c-0.05207,0.16927 -0.1367,0.375 -0.25391,0.61719h2.1758v3.707h-0.84765v-0.41797h-2.6914v0.41797h-0.83984v-3.707zM378.37897,191.73452v0.66407h2.6914v-0.66407zM378.37897,193.00792v0.71875h2.6914v-0.71875z"/><path d="M387.41,191.02c-0.09896,0.79947 -0.23047,1.4427 -0.39453,1.9297c-0.24479,0.7292 -0.57683,1.33987 -0.9961,1.832l-0.51953,-0.65625c0.52083,-0.60417 0.8815,-1.47917 1.082,-2.625c0.08855,-0.51823 0.15235,-1.1276 0.19141,-1.8281c0.02867,-0.56511 0.043,-0.99217 0.043,-1.2812h-0.66797v-0.76953h3.1289l0.39843,0.32812c-0.16927,0.7708 -0.33984,1.43097 -0.51171,1.9805h0.94531c-0.15365,1.15887 -0.45052,2.1224 -0.89063,2.8906c0.375,0.42969 0.8203,0.79819 1.3359,1.1055l-0.51172,0.78906c-0.48177,-0.32813 -0.91537,-0.72396 -1.3008,-1.1875c-0.37239,0.47135 -0.86066,0.91015 -1.4648,1.3164l-0.57032,-0.67188c0.43229,-0.24739 0.77476,-0.49218 1.0274,-0.73437c0.15885,-0.15105 0.32812,-0.34506 0.50781,-0.58204c-0.35937,-0.55729 -0.63672,-1.16925 -0.83203,-1.8359zM387.55453,188.7544c0.19011,1.3646 0.56901,2.4883 1.1367,3.3711c0.21615,-0.44271 0.38281,-0.92838 0.5,-1.457h-1.082c0.24479,-0.67967 0.46094,-1.43877 0.64844,-2.2773h-1.1992c0,0.11719 -0.00133,0.23828 -0.004,0.36328zM383.94903,190.1294c-0.33854,-0.47656 -0.71484,-0.91536 -1.1289,-1.3164l0.48046,-0.5586c0.05467,0.05207 0.10936,0.10545 0.16407,0.16016l0.0508,0.0508c0.28385,-0.39844 0.54557,-0.83724 0.78515,-1.3164l0.70311,0.39061c-0.29167,0.46875 -0.63933,0.94401 -1.043,1.4258c0.20313,0.25261 0.35677,0.45052 0.46094,0.59375c0.39843,-0.48437 0.77083,-0.98567 1.1172,-1.5039l0.61718,0.44532c-0.54167,0.7474 -1.15363,1.47137 -1.8359,2.1719c0.44271,-0.02867 0.82551,-0.0586 1.1484,-0.0898c-0.07031,-0.20313 -0.15365,-0.41146 -0.25,-0.625l0.63282,-0.25c0.23437,0.48437 0.43489,1.05597 0.60156,1.7148l-0.65625,0.28516c-0.04427,-0.18229 -0.09244,-0.36328 -0.14453,-0.54297c-0.11979,0.0208 -0.3125,0.04943 -0.57813,0.0859l-0.10156,0.0156v3.5312h-0.78516v-3.4414l-0.0937,0.0117c-0.38281,0.03907 -0.76431,0.0703 -1.1445,0.0937l-0.16015,-0.72656l0.26171,-0.008c0.11979,-0.00533 0.2461,-0.01053 0.37891,-0.0156c0.15885,-0.16927 0.33203,-0.36328 0.51953,-0.58203zM382.82013,193.8833c0.1875,-0.65885 0.30469,-1.34115 0.35156,-2.0469l0.73828,0.0937c-0.03907,0.8932 -0.15625,1.65623 -0.35156,2.2891zM385.41393,193.39502c-0.05467,-0.49479 -0.14842,-0.97136 -0.28125,-1.4297l0.64062,-0.20313c0.13802,0.45573 0.24479,0.89843 0.32031,1.3281z"/><path d="M247.88,199.1h2.1055c0.23177,-0.36979 0.40756,-0.66797 0.52735,-0.89454l0.87109,0.125c-0.07813,0.14063 -0.21615,0.36979 -0.41406,0.6875l-0.0508,0.082h2.7539v0.76953h-3.2734c-0.34115,0.46875 -0.66667,0.87501 -0.97657,1.2188c0.49219,-0.29427 0.94143,-0.44141 1.3477,-0.44141c0.63021,0 1.04297,0.31641 1.2383,0.94922c0.66667,-0.22135 1.34637,-0.4401 2.0391,-0.65625l0.33594,0.75781l-0.13672,0.0391l-0.38672,0.10157c-0.7292,0.19791 -1.31253,0.36718 -1.75,0.50781c0.03127,0.33854 0.0534,0.77604 0.0664,1.3125l-0.85547,0.0469c-0.00267,-0.30989 -0.00787,-0.64583 -0.0156,-1.0078v-0.0781c-1.19793,0.40885 -1.7969,0.82032 -1.7969,1.2344c0,0.21354 0.15365,0.35937 0.46094,0.4375c0.29687,0.07552 0.82814,0.11328 1.5938,0.11328c0.70573,0 1.44663,-0.04036 2.2227,-0.12109l0.0937,0.83203c-0.7526,0.05727 -1.53253,0.0859 -2.3398,0.0859c-0.9948,0 -1.70183,-0.07552 -2.1211,-0.22656c-0.51823,-0.1875 -0.77735,-0.52473 -0.77735,-1.0117c0,-0.41146 0.1836,-0.77473 0.55079,-1.0898c0.38021,-0.32552 1.04947,-0.66145 2.0078,-1.0078c-0.05207,-0.20052 -0.12108,-0.34114 -0.20703,-0.42187c-0.09635,-0.09115 -0.22396,-0.13672 -0.38282,-0.13672c-0.25781,0 -0.58202,0.09766 -0.97265,0.29297c-0.48177,0.23958 -0.99871,0.60025 -1.5508,1.082l-0.51953,-0.59375c0.80987,-0.7526 1.44397,-1.4922 1.9023,-2.2188h-1.5898z"/><path d="M260.15,203.96l0.0547,0.69922c-1.1302,0.39843 -2.3867,0.72656 -3.7695,0.98437l-0.28906,-0.78125c0.23959,-0.03647 0.57812,-0.09506 1.0156,-0.17578v-1.4297c-0.45053,0.22917 -0.98699,0.44662 -1.6094,0.65235l-0.44531,-0.69532c1.2526,-0.33854 2.20833,-0.77084 2.8672,-1.2969h-2.7891v-0.67969h3.3477v-0.58984h-2.5313v-0.65625h2.5312v-0.55078h-2.9297v-0.67188h2.9297v-0.76953h0.85547v0.76953h3.0156v0.67188h-3.0156v0.55078h2.6172v0.65625h-2.6172v0.58984h3.4336v0.67969h-0.93359l0.57812,0.39844c-0.35677,0.34635 -0.85677,0.72525 -1.5,1.1367l-0.0898,0.0586c0.48958,0.44791 1.15365,0.81771 1.9922,1.1094l-0.52735,0.79297c-0.90887,-0.38541 -1.63933,-0.86978 -2.1914,-1.4531zM258.9664,201.9288c-0.26041,0.30469 -0.57421,0.57812 -0.9414,0.82031v1.7539c0.64323,-0.14323 1.28906,-0.3099 1.9375,-0.5l0.17968,-0.0508c-0.53385,-0.59114 -0.92579,-1.26561 -1.1758,-2.0234zM260.3922,202.9952c0.46355,-0.33073 0.86981,-0.69009 1.2188,-1.0781h-1.8476c0.16667,0.39843 0.3763,0.7578 0.6289,1.0781z"/><path d="M267.48,201.33v3.4648c0,0.3151 -0.0638,0.52994 -0.1914,0.64453c-0.11979,0.10417 -0.35157,0.15625 -0.69532,0.15625c-0.39062,0 -0.76172,-0.02473 -1.1133,-0.0742l-0.16797,-0.82422c0.36459,0.05993 0.71355,0.0899 1.0469,0.0899c0.11198,0 0.18229,-0.01953 0.21094,-0.0586c0.0208,-0.03387 0.0312,-0.08986 0.0312,-0.16797v-3.2305h-3.3594v-0.77741h7.5273v0.77734zM264.1792,198.4355h5.6484v0.76953h-5.6484zM263.19483,204.4277c0.5625,-0.58854 1.01563,-1.37111 1.3594,-2.3477l0.80859,0.30469c-0.39843,1.1172 -0.89973,1.9948 -1.5039,2.6328zM269.89793,204.90426c-0.53906,-1.1406 -1.00779,-1.97523 -1.4062,-2.5039l0.73438,-0.4375c0.57291,0.737 1.06118,1.53907 1.4648,2.4062z"/><path d="M271.97,198.33h0.92187v4.6562c0,0.9818 0.51563,1.4727 1.5469,1.4727c0.67967,0 1.23697,-0.3138 1.6719,-0.94141c0.28125,-0.40364 0.53386,-1.02864 0.75782,-1.875l0.79297,0.48047c-0.26563,0.94013 -0.58464,1.64327 -0.95704,2.1094c-0.58593,0.72653 -1.34767,1.0898 -2.2852,1.0898c-0.9792,0 -1.6693,-0.30208 -2.0703,-0.90625c-0.25261,-0.3776 -0.37891,-0.86457 -0.37891,-1.4609z"/><path d="M281.6,198.18h0.86328v0.98438h2.457v0.74219h-2.457v0.92968h2.3203v0.73438h-2.3203v1.207c0.92707,0.3125 1.84113,0.78257 2.7422,1.4102l-0.46094,0.74218c-0.68227,-0.51041 -1.44267,-0.96095 -2.2812,-1.3516c-0.0208,0.44531 -0.10674,0.79038 -0.25781,1.0352c-0.26302,0.42448 -0.78125,0.63672 -1.5547,0.63672c-0.59635,0 -1.07552,-0.11198 -1.4375,-0.33594c-0.40365,-0.25 -0.60547,-0.58853 -0.60547,-1.0156c0,-0.51041 0.27214,-0.88801 0.81641,-1.1328c0.36459,-0.16146 0.83855,-0.24219 1.4219,-0.24219c0.22917,0 0.48047,0.01823 0.7539,0.0547v-1.0078h-2.7695v-0.73438h2.7695v-0.92968h-2.9375v-0.74219h2.9375zM281.6,203.305c-0.30989,-0.06507 -0.60677,-0.0976 -0.89062,-0.0976c-0.34635,0 -0.6276,0.05078 -0.84375,0.15234c-0.25781,0.12239 -0.38672,0.29687 -0.38672,0.52344c0,0.1901 0.10026,0.34375 0.30078,0.46094c0.20313,0.11979 0.47396,0.17968 0.8125,0.17968c0.40104,0 0.67708,-0.10677 0.82812,-0.32031c0.11979,-0.16667 0.17969,-0.41536 0.17969,-0.74609z"/><path d="M289.89,198.16h0.87891v1.0781h2.3047v0.75391h-2.3047v1.6719c0.09115,0.32031 0.13672,0.60547 0.13672,0.85547c0,0.92707 -0.20443,1.60807 -0.61329,2.043c-0.44531,0.47656 -1.11587,0.80599 -2.0117,0.98828l-0.44532,-0.66406c0.69533,-0.13281 1.21097,-0.32031 1.5469,-0.5625c0.3151,-0.22917 0.52734,-0.54037 0.63672,-0.9336c-0.27865,0.30469 -0.61068,0.45704 -0.9961,0.45704c-0.43229,0 -0.78255,-0.1224 -1.0508,-0.36719c-0.3151,-0.28907 -0.47265,-0.70833 -0.47265,-1.2578c0,-0.28907 0.06901,-0.56771 0.20703,-0.83594c0.09115,-0.17187 0.20312,-0.3151 0.33593,-0.42969c0.30729,-0.26041 0.67579,-0.39062 1.1055,-0.39062c0.27344,0 0.52084,0.0651 0.74219,0.19531v-0.76953h-3.8555v-0.75391h3.8555zM289.9212,202.2147v-0.14453c0,-0.16667 -0.03906,-0.3138 -0.11719,-0.4414c-0.14583,-0.23959 -0.35677,-0.35938 -0.63281,-0.35938c-0.14063,0 -0.27214,0.03906 -0.39453,0.11719c-0.28646,0.17969 -0.42969,0.45573 -0.42969,0.82812c0,0.23438 0.05208,0.4323 0.15625,0.59375c0.14583,0.22396 0.36068,0.33594 0.64453,0.33594c0.25781,0 0.46224,-0.11589 0.61328,-0.34766c0.10677,-0.16406 0.16016,-0.35807 0.16016,-0.58203z"/></g></g></g></svg>