<svg version="1.1" xmlns="http://www.w3.org/2000/svg" xmlns:xlink="http://www.w3.org/1999/xlink" width="99.44984" height="58.28645" viewBox="0,0,99.44984,58.28645"><g transform="translate(-508.8546,-86.48877)"><g data-paper-data="{&quot;isPaintingLayer&quot;:true}" fill="none" fill-rule="evenodd" stroke="#fc3324" stroke-width="36" stroke-linecap="round" stroke-linejoin="round" stroke-miterlimit="4" stroke-dasharray="" stroke-dashoffset="0" style="mix-blend-mode: normal"><path d="M526.8546,126.26528l1.10982,-1.08983l3.90938,1.05983l-1.64974,-1.37978l-0.51991,-4.27931l0.17997,-4.61926l0.6299,-1.56975l5.83907,-4.65925l4.31931,-1.98968l8.84858,-2.54959l9.43849,-0.69989l3.59942,0.52992l5.70909,1.62974l0.85986,-0.84986l3.32946,1.74972l1.11982,4.96921l2.08967,1.81971l0.49992,1.94968l2.18965,0.75988l-1.74972,0.87986l-0.94985,1.94969l1.64973,0.47992l0.33994,3.7994l-1.17981,1.92969l1.96969,0.68989l4.94921,-0.25996l-0.01,-2.26963l-1.34978,-0.17997l-0.83987,-2.61958l1.2098,-1.80971l2.55959,-1.68973l3.22948,-0.30995l-0.47992,-3.46945l2.59959,-1.96968"/></g></g></svg>