<svg version="1.1" xmlns="http://www.w3.org/2000/svg" xmlns:xlink="http://www.w3.org/1999/xlink" width="208" height="32" viewBox="0,0,208,32"><g transform="translate(-240,-164)"><g data-paper-data="{&quot;isPaintingLayer&quot;:true}" fill-rule="nonzero" stroke="none" stroke-linecap="butt" stroke-linejoin="miter" stroke-miterlimit="10" stroke-dasharray="" stroke-dashoffset="0" style="mix-blend-mode: normal"><path d="M240,196v-32h208v32z" fill="none" stroke-width="0"/><path d="M244.81,184.03c1.2044,-1.30207 2.31117,-3.03383 3.3203,-5.1953c0.41015,-0.87893 0.79425,-1.97267 1.1523,-3.2812h-3.3301v-1.9434h3.7891c0.25391,-1.23047 0.44271,-2.3047 0.56641,-3.2227l2.1289,0.32227c-0.13021,0.89847 -0.30274,1.86527 -0.51758,2.9004h7.2559v1.9434h-7.7148l-0.0684,0.24414c-0.38411,1.4388 -0.82681,2.73763 -1.3281,3.8965h8.3106v1.8359h-4.1211v5.2441h5.2344v1.9434h-12.939v-1.9434h5.5469v-5.2441h-2.9297c-0.931,1.69273 -1.94987,3.1055 -3.0566,4.2383l-1.2988,-1.5625v5.332h-2.0801v-10.059c-0.43619,0.7552 -0.96353,1.56573 -1.582,2.4316l-0.97656,-2.1777c1.05467,-1.47787 1.9596,-3.21613 2.7148,-5.2148c0.42969,-1.1328 0.87893,-2.52277 1.3477,-4.1699l2.0801,0.51758c-0.47526,1.6406 -0.97656,3.09893 -1.5039,4.375z" fill="#ffffff" stroke-width="1"/><path d="M262.69,177.33h14.639v8.6816h-3.877c2.03127,0.47527 4.01043,1.11653 5.9375,1.9238l-1.4453,1.6309c-2.0768,-0.931 -4.20897,-1.72853 -6.3965,-2.3926l0.98633,-1.1621h-5.5176l1.2891,1.1035c-1.91407,1.05467 -4.05273,1.92057 -6.416,2.5977l-1.3184,-1.7774c2.04427,-0.41015 3.9974,-1.05142 5.8594,-1.9238h-3.7402zM275.17,178.6874h-10.342v1.0449h10.342zM264.828,181.0702v1.084h10.342v-1.084zM264.828,183.4725v1.123h10.342v-1.123zM268.2362,173.2385h-2.1582c-0.49479,1.8294 -2.03126,3.22263 -4.6094,4.1797l-1.1621,-1.5234c1.95313,-0.49479 3.1771,-1.38019 3.6719,-2.6562h-2.9883v-1.543h3.2812l0.11719,-1.2012h2.0605l-0.11719,1.2012h3.8965c-0.10417,1.9206 -0.24089,3.15107 -0.41016,3.6914c-0.18229,0.55339 -0.46874,0.91145 -0.85937,1.0742c-0.29297,0.11719 -0.70964,0.17578 -1.25,0.17578c-0.59245,0 -1.24675,-0.04883 -1.9629,-0.14648l-0.26367,-1.5332c0.67053,0.11719 1.20763,0.17578 1.6113,0.17578c0.42969,0 0.69987,-0.0944 0.81055,-0.2832c0.06513,-0.10417 0.13675,-0.40039 0.21484,-0.88868zM278.5882,171.4123v5.127h-7.4023v-5.127zM273.0902,172.9748v2.0215h3.5156v-2.0215z" fill="#ffffff" stroke-width="1"/><path d="M296.76,170.98v9.4629h-11.621v-9.4629zM287.2385,172.523v1.2207h7.4023v-1.2207zM287.2385,175.1207v1.2207h7.4023v-1.2207zM287.2385,177.7183v1.2598h7.4023v-1.2598zM283.3029,181.7417h16.191v1.6992h-8.0762v6.0644h-2.2168v-6.0644h-8.0371v-10.957h2.1387zM280.8029,187.6401c1.54947,-0.71613 3.0306,-1.9173 4.4434,-3.6035l1.7969,1.0449c-1.3932,1.76433 -2.93943,3.15107 -4.6387,4.1602zM297.6389,188.8999c-0.99607,-1.22393 -2.49347,-2.50973 -4.4922,-3.8574l1.6797,-1.1816c1.569,0.90493 3.1087,2.09307 4.6191,3.5644z" fill="#ffffff" stroke-width="1"/><path d="M308.92,182.24h-4.043v-1.6016h1.9531c-0.29297,-0.66407 -0.625,-1.28257 -0.99609,-1.8555l1.7578,-0.64453c0.50781,0.85287 0.91798,1.6862 1.2305,2.5h2.2949c0.38411,-0.78773 0.72265,-1.6341 1.0156,-2.5391l1.9629,0.61524c-0.33203,0.71613 -0.6836,1.3574 -1.0547,1.9238h2.0996v1.6016h-4.1797v1.4258h4.4531v1.6602h-4.4531v3.6914h-2.041v-3.6914h-4.2871v-1.6602h4.2871zM311.0196,176.2244h7.4024v11.416c0,0.6706 -0.17904,1.1426 -0.53711,1.416c-0.29948,0.23438 -0.80405,0.35157 -1.5137,0.35157c-0.918,0 -1.8034,-0.04883 -2.6562,-0.14649l-0.47852,-1.9629c1.13933,0.13672 1.9922,0.20508 2.5586,0.20508c0.23437,0 0.37109,-0.05859 0.41015,-0.17578c0.02607,-0.07161 0.0391,-0.17253 0.0391,-0.30274v-9.1016h-12.48v11.582h-2.1777v-13.281h7.2754v-1.7676h-8.3594v-1.8164h8.3594v-2.1387h2.1582v2.1387h8.4766v1.8164h-8.4766z" fill="#ffffff" stroke-width="1"/><path d="M326.98,172.75h4.1797v1.8848h-1.377c-0.2474,0.99607 -0.57943,2.041 -0.9961,3.1348h2.6074v1.8848h-10.898v-1.8848h2.3926c-0.26041,-1.25 -0.53385,-2.29493 -0.82031,-3.1348h-1.2695v-1.8848h4.1406v-2.2559h2.041zM324.0406,174.6348c0.33203,0.97007 0.58919,2.015 0.77148,3.1348h1.9922l0.09766,-0.27344c0.27995,-0.7422 0.54036,-1.5853 0.78125,-2.5293l0.0879,-0.33203zM330.0953,181.295v7.998h-2.002v-0.95703h-4.2578v1.1621h-2.0606v-8.2031zM323.8355,183.0919v3.3887h4.2578v-3.3887zM336.8825,178.1603c0.77473,0.73567 1.38997,1.61133 1.8457,2.627c0.44922,1.0156 0.67383,2.04423 0.67383,3.0859c0,0.96353 -0.17904,1.67317 -0.53711,2.1289c-0.37109,0.47526 -0.98306,0.71289 -1.8359,0.71289c-0.7292,0 -1.43557,-0.05208 -2.1191,-0.15625l-0.47852,-2.0801c0.78773,0.14323 1.43877,0.21485 1.9531,0.21485c0.39063,0 0.63477,-0.09115 0.73242,-0.27344c0.06513,-0.13021 0.0977,-0.39062 0.0977,-0.78125c0,-1.60807 -0.48177,-2.9948 -1.4453,-4.1602c-0.25391,-0.30599 -0.57292,-0.63476 -0.95703,-0.98633l0.11719,-0.27343c0.67707,-1.52993 1.2044,-3.125 1.582,-4.7852h-2.5v16.064h-2.0215v-18.086h5.8789l1.084,0.99609c-0.65755,2.2396 -1.34765,4.15693 -2.0703,5.752z" fill="#ffffff" stroke-width="1"/></g></g></svg>