<svg version="1.1" xmlns="http://www.w3.org/2000/svg" xmlns:xlink="http://www.w3.org/1999/xlink" width="47.53807" height="48.19807" viewBox="0,0,47.53807,48.19807"><g transform="translate(26.63433,-215.58501)"><g data-paper-data="{&quot;isPaintingLayer&quot;:true}" fill="#ff0000" fill-rule="evenodd" stroke="none" stroke-width="0" stroke-linecap="round" stroke-linejoin="round" stroke-miterlimit="10" stroke-dasharray="" stroke-dashoffset="0" style="mix-blend-mode: normal"><path d="M19.04381,253.5135l-0.94996,1.55994l-1.13995,-0.26999l-1.64993,1.70993l-1.69993,-0.37998l-0.78997,-0.66997l-0.98996,-0.14999l-0.25999,-0.66997l-1.25995,-0.77997l0.05,-0.86997l-0.67997,-0.77997l0.21999,-0.80997l-1.74993,0.06l-1.06996,1.20995l-1.02996,0.51998l-0.83997,-0.97996l-2.5799,0.96996l-1.22995,-0.47998l-1.25995,1.10996l-0.80997,-0.33999l-1.22995,0.72997l-0.26999,1.98992l-1.89992,0.68997l-1.47994,-1.23995l-2.18991,1.19995l-1.38994,1.87992l-2.04992,1.21995l-0.58998,0.92996l-0.17999,1.70993l-1.24995,0.83997l-0.84997,-0.29999l-1.17995,0.65997l-0.89996,-0.02l-0.12999,-0.68997l-1.27995,-1.06996l-0.93996,-0.23999l-1.64993,0.37998l-1.25995,-1.42994l-1.35995,0.65997l-0.90996,-0.42998l-0.56998,-0.93996l1.27995,-0.12l1.63993,-1.02996l0.60998,-2.04992l-0.21999,-1.20995l0.41998,-1.78993l0.11,-2.27991l1.23995,-8.72965l-1.18995,-1.76993l-0.24999,-1.09996l-2.05992,-1.21995l-1.02996,-1.70993l-0.37998,0.05l-1.88992,-1.25995l-0.67997,-1.67993l1.17995,-0.40998l0.68997,0.79997l1.62993,0.42998l1.33995,1.88992l1.09996,-0.39998l1.51994,0.73997l1.23995,-0.81997l0.87996,-0.12l1.14995,0.78997l0.62997,-0.37998l1.02996,0.33999l0.95996,-0.68997l1.20995,-1.57994l1.54994,-1.00996l-0.42998,-2.07992l1.54994,-0.80997l0.48998,0.79997l1.63993,-1.08996l-0.61998,-1.46994l2.07992,-1.29995l0.69997,1.44994l1.74993,-1.49994l1.54994,-1.75993l-0.19999,-3.10988l1.99992,-0.57998l1.71993,-0.16999l-0.03,1.40994l-1.84993,1.35995l-0.86997,0.14999l0.38998,1.01996l1.20995,-0.36999l1.13995,0.15999l2.05992,-2.18991l1.64993,-1.18995l-0.68997,-2.4899l0.59998,-0.87996l0.64997,0.56998l0.91996,-0.52998l1.11996,0.52998l0.66997,-1.44994l0.12,1.48994l0.66997,0.82997l-0.06,1.83993l1.86993,2.81989l-0.42998,0.87996l-1.87992,0.48998l-0.50998,0.59998l1.31995,1.82993l0.41998,1.52994l0.11,1.93992l2.65989,1.05996l1.33995,-0.34999l0.94996,0.70997l-0.81997,2.19991l1.91992,2.83989l0.84997,0.84997l0.41998,2.6199l0.82997,0.24999l-0.20999,0.90996l0.43998,1.00996l-0.20999,1.30995l-0.46998,0.35999l0.36999,2.22991l0.49998,-0.02l0.64997,1.30995l1.37994,1.39994l-0.76997,0.84997l-0.21999,1.14995l-0.86997,0.40998"/><path d="M-11.75496,221.41478l-1.06996,-0.1l-0.29999,1.21995l-1.00996,0.14999l-1.42994,-1.11996l0.42998,-0.53998l0.15999,-1.45994l0.68997,-0.11l0.21999,-0.97996l0.95996,-0.06l0.13999,-1.42994l1.43994,1.76993l0.55998,1.71993l-0.78997,0.93996"/><path d="M-6.85515,219.61485l-0.19999,0.59998l-1.23995,0.29999l0.25999,-1.11996l-0.72997,-1.08996l1.47994,-0.51998l0.99996,-1.05996l1.28995,0.69997l-0.21999,1.02996l-1.63993,1.15995"/><path d="M-22.25454,233.11431l0.92996,-0.66997l-0.05,-1.87992l0.62997,2.15991l-1.02996,1.56994l-0.47998,-1.17995"/><path d="M-17.25474,218.5149l-0.66997,-0.53998l-0.24999,-1.85993l1.28995,-0.52998l0.36999,0.44998l0.14999,1.73993l-0.88996,0.73997"/><path d="M-22.05455,224.91464l-0.25999,-2.12991l0.38998,-0.39998l1.03996,1.86993l-0.42998,0.91996l-0.73997,-0.25999"/><path d="M-17.05475,228.01452l-0.60998,-1.03996l-0.01,-1.05996l1.57994,1.01996v1.35995l-0.95996,-0.27999"/><path d="M-2.85531,217.81493l0.81997,-0.40998l0.40998,0.61998l-0.95996,0.68997l-0.26999,-0.89996"/></g></g></svg>