<svg version="1.1" xmlns="http://www.w3.org/2000/svg" xmlns:xlink="http://www.w3.org/1999/xlink" width="208" height="32" viewBox="0,0,208,32"><g transform="translate(-240,-164)"><g data-paper-data="{&quot;isPaintingLayer&quot;:true}" fill-rule="nonzero" stroke="none" stroke-linecap="butt" stroke-linejoin="miter" stroke-miterlimit="10" stroke-dasharray="" stroke-dashoffset="0" style="mix-blend-mode: normal"><path d="M240,196v-32h208v32z" fill="none" stroke-width="0"/><path d="M248.89,170.69h2.2754v16.279c0,0.84633 -0.14648,1.429 -0.43945,1.748c-0.32553,0.35807 -1.00913,0.53711 -2.0508,0.53711c-0.93747,0 -1.93357,-0.04883 -2.9883,-0.14648l-0.49804,-2.2754c1.62107,0.20182 2.72133,0.27669 3.3008,0.22461c0.26693,-0.02607 0.40039,-0.22138 0.40039,-0.58594zM257.3275,185.378c-1.1784,-4.6094 -2.31773,-8.15773 -3.418,-10.645l2.0606,-0.87891c1.38673,2.83853 2.57163,6.28587 3.5547,10.342zM240.2865,184.1182c1.2956,-2.17447 2.23637,-5.41013 2.8223,-9.707l2.2363,0.50781c-0.41667,2.8776 -0.92447,5.23437 -1.5234,7.0703c-0.44922,1.3672 -0.99935,2.5814 -1.6504,3.6426z" fill="#ffffff" stroke-width="1"/><path d="M267.43,174.58c0.41667,0.6836 0.75847,1.36393 1.0254,2.041l-2.041,0.70313c-0.51433,-1.26953 -0.92123,-2.18423 -1.2207,-2.7441h-0.9082c-0.55339,1.03513 -1.21095,1.96937 -1.9727,2.8027l-1.6797,-1.4844c1.34767,-1.3216 2.3633,-3.15427 3.0469,-5.498l2.1191,0.40039c-0.25391,0.83333 -0.48503,1.50717 -0.69336,2.0215h4.5312v1.7578zM275.5745,174.58c0.35807,0.50781 0.75847,1.16211 1.2012,1.9629l-2.002,0.78125c-0.38411,-0.918 -0.85285,-1.8327 -1.4062,-2.7441h-1.084c-0.42318,0.8724 -0.91145,1.6797 -1.4648,2.4219l-1.6016,-1.2598c1.15887,-1.4388 1.92383,-3.18683 2.2949,-5.2441l2.041,0.30273c-0.16276,0.73567 -0.34505,1.4095 -0.54688,2.0215h5.8691v1.7578zM271.0335,178.8573h7.6074v1.7578h-17.285v-1.7578h7.4609v-1.7578h2.2168zM271.63896,186.8651c0.7552,-1.7448 1.44207,-3.76627 2.0606,-6.0644l2.2168,0.74219c-0.54037,1.80987 -1.20117,3.58397 -1.9824,5.3223h5.5664v1.8164h-19.004v-1.8164zM265.39876,186.71862c-0.44271,-2.20707 -0.94401,-3.97463 -1.5039,-5.3027l2.1191,-0.59571c0.65755,1.52993 1.21745,3.29427 1.6797,5.293z" fill="#ffffff" stroke-width="1"/><path d="M291.5,174.92h6.0547v7.7344h-4.7363v5.3223c0,0.55989 -0.13347,0.95376 -0.4004,1.1816c-0.26693,0.22786 -0.75846,0.34179 -1.4746,0.34179c-0.944,0 -1.7806,-0.06185 -2.5098,-0.18554l-0.3125,-1.8164c0.84633,0.13672 1.4583,0.20508 1.8359,0.20508c0.35156,0 0.5664,-0.0293 0.64453,-0.0879c0.07813,-0.0586 0.11719,-0.18555 0.11719,-0.38086v-4.5801h-5.0195v-7.7344h3.7012c0.20182,-0.47526 0.43945,-1.09049 0.71289,-1.8457h-5.9766v4.5996c0,3.112 -0.16601,5.57293 -0.49804,7.3828c-0.28646,1.57553 -0.78776,3.02083 -1.5039,4.3359l-1.7383,-1.4746c0.66406,-1.33467 1.11003,-2.84507 1.3379,-4.5312c0.17578,-1.3086 0.26367,-2.95247 0.26367,-4.9316v-7.1777h16.836v1.7969h-6.4453c-0.25391,0.58594 -0.55013,1.20117 -0.88867,1.8457zM295.4355,176.502h-7.6758v1.4746h7.6758zM287.7597,179.5586v1.5137h7.6758v-1.5137zM297.8577,188.7383c-0.95053,-1.45833 -2.10613,-2.8776 -3.4668,-4.2578l1.5234,-1.1816c1.37373,1.25 2.55537,2.5944 3.5449,4.0332zM283.7557,187.5371c1.34767,-1.1784 2.38607,-2.57163 3.1152,-4.1797l1.7285,0.87891c-0.83333,1.8164 -1.9401,3.36913 -3.3203,4.6582z" fill="#ffffff" stroke-width="1"/><path d="M310.23,178.41v7.7344c0,0.5013 0.21485,0.80403 0.64454,0.9082c0.44271,0.11068 1.45507,0.16602 3.0371,0.16602c1.54293,0 2.5618,-0.07813 3.0566,-0.23438c0.27995,-0.09115 0.46224,-0.34505 0.54687,-0.76172c0.11068,-0.58593 0.16927,-1.2793 0.17578,-2.0801l2.041,0.57618c-0.10417,1.9206 -0.36784,3.1478 -0.79102,3.6816c-0.27995,0.35156 -0.70311,0.55989 -1.2695,0.625c-0.89193,0.09765 -2.4056,0.14648 -4.541,0.14648c-1.65367,0 -2.73767,-0.04557 -3.252,-0.13672c-0.77473,-0.13021 -1.26627,-0.47201 -1.4746,-1.0254c-0.10417,-0.29297 -0.15625,-0.6836 -0.15625,-1.1719v-7.7441l-1.8652,0.64453l-0.45899,-1.8945l2.3242,-0.80078v-5.2637h1.9824v4.5801l2.0996,-0.71289v-5.1465h1.9629v4.4629l3.2715,-1.123l1.0254,0.625v7.3144c0,0.50781 -0.12044,0.88541 -0.36133,1.1328c-0.27343,0.27343 -0.73243,0.41015 -1.377,0.41015c-0.52735,0 -1.08725,-0.04557 -1.6797,-0.13672l-0.32226,-1.8652c0.38411,0.09765 0.77475,0.14648 1.1719,0.14648c0.28646,0 0.46224,-0.05859 0.52734,-0.17578c0.06513,-0.09765 0.0977,-0.26041 0.0977,-0.48828v-4.6191l-2.3535,0.82031v7.9004h-1.9629v-7.2266zM303.0523,175.2166v-4.7168h2.0996v4.7168h1.8945v1.9824h-1.8945v6.2109c0.6836,-0.23437 1.36067,-0.47851 2.0312,-0.73242l0.18555,1.8848c-2.1094,0.96353 -4.2741,1.77083 -6.4941,2.4219l-0.6836,-2.0801c1.0026,-0.26041 1.8815,-0.50781 2.6367,-0.74218c0.09115,-0.03253 0.16602,-0.05533 0.22461,-0.0684v-6.8945h-2.4805v-1.9824z" fill="#ffffff" stroke-width="1"/><path d="M329.48,175.76c-0.0456,1.08727 -0.1107,2.0443 -0.19531,2.8711h7.8711c-0.09765,4.51827 -0.35156,7.4512 -0.76172,8.7988c-0.20833,0.67707 -0.5957,1.1458 -1.1621,1.4062c-0.44271,0.20182 -1.09051,0.30273 -1.9434,0.30273c-0.89847,0 -1.91733,-0.06836 -3.0566,-0.20507l-0.38085,-2.1973c1.52993,0.21485 2.6074,0.32227 3.2324,0.32227c0.52734,0 0.86264,-0.14974 1.0059,-0.44922c0.34505,-0.7292 0.58593,-2.74093 0.72265,-6.0352h-5.8105c-0.21485,1.17187 -0.51758,2.1875 -0.90821,3.0469c-1.08727,2.37627 -2.90367,4.26103 -5.4492,5.6543l-1.543,-1.7188c2.55207,-1.32813 4.23827,-3.06967 5.0586,-5.2246c0.54687,-1.4388 0.90167,-3.62957 1.0644,-6.5723h-6.4648v-2.002h7.9785v-3.2617h2.2559v3.2617h8.2422v2.002z" fill="#ffffff" stroke-width="1"/></g></g></svg>