<svg version="1.1" xmlns="http://www.w3.org/2000/svg" xmlns:xlink="http://www.w3.org/1999/xlink" width="208" height="32" viewBox="0,0,208,32"><g transform="translate(-240,-164)"><g data-paper-data="{&quot;isPaintingLayer&quot;:true}" fill-rule="nonzero" stroke="none" stroke-linecap="butt" stroke-linejoin="miter" stroke-miterlimit="10" stroke-dasharray="" stroke-dashoffset="0" style="mix-blend-mode: normal"><path d="M240,196v-32h208v32z" fill="none" stroke-width="0"/><path d="M247,181.93h10.762v7.5684h-2.1582v-1.0644h-9.2774v1.0644h-2.0996v-4.834c-0.76173,0.61849 -1.62437,1.20769 -2.5879,1.7676l-1.3965,-1.6797c1.02867,-0.48828 1.96617,-1.06121 2.8125,-1.7188c1.38673,-1.08727 2.5,-2.30147 3.3398,-3.6426h-5.8887v-1.7383h18.994v1.7383h-10.713c-0.46875,0.83333 -1.06445,1.6797 -1.7871,2.5391zM246.32617,183.6097v3.1445h9.2774v-3.1445zM251.10157,174.2152h4.5801v-2.9004h2.1191v4.5606h-15.4v-4.5606h2.0996v2.9004h4.4629v-3.7207h2.1387z" fill="#ffffff" stroke-width="1"/><path d="M271.23,173.24v3.1543h7.0898v1.9238h-7.0898v2.6953h8.2715v1.9629h-8.2715v4.3945c0,0.78127 -0.2181,1.32163 -0.6543,1.6211c-0.33203,0.22787 -0.88543,0.3418 -1.6602,0.3418c-1.26953,0 -2.50977,-0.06511 -3.7207,-0.19532l-0.38086,-2.0996c1.50393,0.19531 2.64,0.29296 3.4082,0.29296c0.36458,0 0.59244,-0.06836 0.68359,-0.20507c0.0586,-0.09766 0.0879,-0.26042 0.0879,-0.48829v-3.6621h-8.4961v-1.9629h8.4961v-2.6953h-7.5v-1.9238h7.5v-2.8711l-0.53711,0.0586c-1.862,0.20183 -3.8086,0.35808 -5.8398,0.46875l-0.83985,-1.8164c5.15627,-0.21485 9.8436,-0.78778 14.062,-1.7188l1.2207,1.6797c-1.82293,0.41015 -3.7663,0.75845 -5.8301,1.0449z" fill="#ffffff" stroke-width="1"/><path d="M296.76,170.98v9.4629h-11.621v-9.4629zM287.2385,172.523v1.2207h7.4023v-1.2207zM287.2385,175.1207v1.2207h7.4023v-1.2207zM287.2385,177.7183v1.2598h7.4023v-1.2598zM283.3029,181.7417h16.191v1.6992h-8.0762v6.0644h-2.2168v-6.0644h-8.0371v-10.957h2.1387zM280.8029,187.6401c1.54947,-0.71613 3.0306,-1.9173 4.4434,-3.6035l1.7969,1.0449c-1.3932,1.76433 -2.93943,3.15107 -4.6387,4.1602zM297.6389,188.8999c-0.99607,-1.22393 -2.49347,-2.50973 -4.4922,-3.8574l1.6797,-1.1816c1.569,0.90493 3.1087,2.09307 4.6191,3.5644z" fill="#ffffff" stroke-width="1"/><path d="M308.85,173.76v-3.2617h2.1777v3.2617h7.5v13.594c0,0.7682 -0.20833,1.3053 -0.625,1.6113c-0.33854,0.25391 -0.92774,0.38086 -1.7676,0.38086c-1.4388,0 -2.62693,-0.03581 -3.5644,-0.10742l-0.40039,-2.0801c1.45833,0.09115 2.67577,0.13672 3.6523,0.13672c0.26042,0 0.41342,-0.06185 0.45899,-0.18555c0.03253,-0.07812 0.0488,-0.20182 0.0488,-0.37109v-10.977h-5.3125l-0.01,0.14648c-0.03253,0.52735 -0.09764,1.06771 -0.19531,1.6211c1.9336,1.582 3.65887,3.36587 5.1758,5.3516l-1.6602,1.543c-1.08073,-1.569 -2.43817,-3.19987 -4.0723,-4.8926c-0.83987,2.20707 -2.52933,4.0495 -5.0684,5.5273l-1.2891,-1.7188c1.51693,-0.8724 2.63673,-1.8034 3.3594,-2.793c0.95053,-1.30207 1.47463,-2.89713 1.5723,-4.7852h-5.127v13.74h-2.1973v-15.742z" fill="#ffffff" stroke-width="1"/><path d="M331.7,177.58c-0.18229,0.9896 -0.44597,1.7676 -0.79102,2.334c-0.55339,0.918 -1.51369,1.6081 -2.8809,2.0703l-1.1426,-1.4844c0.72267,-0.18229 1.2858,-0.42318 1.6894,-0.72266c0.6706,-0.49479 1.09377,-1.22723 1.2695,-2.1973h-2.8418v-1.6992h4.8828v-1.6992h-4.1992v-1.6797h4.1992v-1.9824h2.041v1.9824h4.4629v1.6797h-4.4629v1.6992h5.3418v1.6992h-3.6035v1.6992c0,0.24089 0.04557,0.38412 0.13672,0.42969c0.10417,0.05207 0.33529,0.0781 0.69336,0.0781c0.54687,0 0.86263,-0.10742 0.94727,-0.32227c0.09765,-0.24739 0.15299,-0.65429 0.16601,-1.2207l1.8359,0.45898c-0.013,1.14587 -0.20506,1.91733 -0.57617,2.3144c-0.21485,0.22136 -0.52084,0.36459 -0.91797,0.42969c-0.39063,0.0586 -0.91473,0.0879 -1.5723,0.0879c-0.8008,0 -1.37047,-0.03581 -1.709,-0.10742c-0.31901,-0.06513 -0.5599,-0.20185 -0.72266,-0.41016v2.0215h4.502v1.6602h-4.502v2.2852h5.6641v1.8359h-13.203v-1.8359h5.4785v-2.2852h-4.2188v-1.6602h4.2188v-2.1973h1.9629c-0.07162,-0.17578 -0.10743,-0.3776 -0.10743,-0.60547v-2.6562zM325.616,177.6581c0.931,1.31513 1.3965,2.80927 1.3965,4.4824c0,0.87893 -0.10742,1.5788 -0.32227,2.0996c-0.29297,0.6966 -0.92773,1.0449 -1.9043,1.0449c-0.42318,0 -0.81055,-0.04232 -1.1621,-0.12695l-0.47852,-1.9141c0.39713,0.07812 0.74543,0.11718 1.0449,0.11718c0.35157,0 0.56967,-0.13997 0.6543,-0.41992c0.08463,-0.29297 0.12695,-0.75847 0.12695,-1.3965c0,-1.3932 -0.4297,-2.6497 -1.2891,-3.7695l0.0977,-0.24414c0.47526,-1.30207 0.89843,-2.77993 1.2695,-4.4336h-1.9824v16.406h-1.9629v-18.223h5.127l1.0352,0.80078c-0.3776,1.86847 -0.92773,3.7272 -1.6504,5.5762z" fill="#ffffff" stroke-width="1"/><path d="M348.92,182.24h-4.043v-1.6016h1.9531c-0.29297,-0.66407 -0.625,-1.28257 -0.99609,-1.8555l1.7578,-0.64453c0.50781,0.85287 0.91798,1.6862 1.2305,2.5h2.2949c0.38411,-0.78773 0.72265,-1.6341 1.0156,-2.5391l1.9629,0.61524c-0.33203,0.71613 -0.6836,1.3574 -1.0547,1.9238h2.0996v1.6016h-4.1797v1.4258h4.4531v1.6602h-4.4531v3.6914h-2.041v-3.6914h-4.2871v-1.6602h4.2871zM351.0196,176.2244h7.4024v11.416c0,0.6706 -0.17904,1.1426 -0.53711,1.416c-0.29948,0.23438 -0.80405,0.35157 -1.5137,0.35157c-0.918,0 -1.8034,-0.04883 -2.6562,-0.14649l-0.47852,-1.9629c1.13933,0.13672 1.9922,0.20508 2.5586,0.20508c0.23437,0 0.37109,-0.05859 0.41015,-0.17578c0.02607,-0.07161 0.0391,-0.17253 0.0391,-0.30274v-9.1016h-12.48v11.582h-2.1777v-13.281h7.2754v-1.7676h-8.3594v-1.8164h8.3594v-2.1387h2.1582v2.1387h8.4766v1.8164h-8.4766z" fill="#ffffff" stroke-width="1"/><path d="M366.98,172.75h4.1797v1.8848h-1.377c-0.2474,0.99607 -0.57943,2.041 -0.9961,3.1348h2.6074v1.8848h-10.898v-1.8848h2.3926c-0.26041,-1.25 -0.53385,-2.29493 -0.82031,-3.1348h-1.2695v-1.8848h4.1406v-2.2559h2.041zM364.0406,174.6348c0.33203,0.97007 0.58919,2.015 0.77148,3.1348h1.9922l0.09766,-0.27344c0.27995,-0.7422 0.54036,-1.5853 0.78125,-2.5293l0.0879,-0.33203zM370.0953,181.295v7.998h-2.002v-0.95703h-4.2578v1.1621h-2.0606v-8.2031zM363.8355,183.0919v3.3887h4.2578v-3.3887zM376.8825,178.1603c0.77473,0.73567 1.38997,1.61133 1.8457,2.627c0.44922,1.0156 0.67383,2.04423 0.67383,3.0859c0,0.96353 -0.17904,1.67317 -0.53711,2.1289c-0.37109,0.47526 -0.98306,0.71289 -1.8359,0.71289c-0.7292,0 -1.43557,-0.05208 -2.1191,-0.15625l-0.47852,-2.0801c0.78773,0.14323 1.43877,0.21485 1.9531,0.21485c0.39063,0 0.63477,-0.09115 0.73242,-0.27344c0.06513,-0.13021 0.0977,-0.39062 0.0977,-0.78125c0,-1.60807 -0.48177,-2.9948 -1.4453,-4.1602c-0.25391,-0.30599 -0.57292,-0.63476 -0.95703,-0.98633l0.11719,-0.27343c0.67707,-1.52993 1.2044,-3.125 1.582,-4.7852h-2.5v16.064h-2.0215v-18.086h5.8789l1.084,0.99609c-0.65755,2.2396 -1.34765,4.15693 -2.0703,5.752z" fill="#ffffff" stroke-width="1"/></g></g></svg>