<svg version="1.1" xmlns="http://www.w3.org/2000/svg" xmlns:xlink="http://www.w3.org/1999/xlink" width="208" height="32" viewBox="0,0,208,32"><g transform="translate(-240,-164)"><g data-paper-data="{&quot;isPaintingLayer&quot;:true}" fill-rule="nonzero" stroke="none" stroke-linecap="butt" stroke-linejoin="miter" stroke-miterlimit="10" stroke-dasharray="" stroke-dashoffset="0" style="mix-blend-mode: normal"><path d="M240,196v-32h208v32z" fill="none" stroke-width="0"/><path d="M254.23,185.08c1.3086,0.92447 3.0892,1.67967 5.3418,2.2656l-1.3574,1.8555c-2.95573,-0.83333 -5.29623,-2.20703 -7.0215,-4.1211c-1.02867,-1.1328 -1.7904,-2.42513 -2.2852,-3.877h-2.7539v5.6738c1.6732,-0.30599 3.4473,-0.70962 5.3223,-1.2109l0.13672,1.8555c-3.07293,0.87893 -6.1198,1.5658 -9.1406,2.0606l-0.69336,-2.0215c1.02867,-0.13021 1.74807,-0.22786 2.1582,-0.29297v-6.0644h-3.4375v-1.6602h3.4375v-8.4082h13.496v1.6406h-11.279v1.1621h10.381v1.582h-10.381v1.1816h10.381v1.543h-10.381v1.2988h13.34v1.6602h-2.666l1.543,1.3379c-1.237,0.89193 -2.6172,1.7383 -4.1406,2.5391zM252.8238,183.9277c1.50387,-0.93747 2.76363,-1.84567 3.7793,-2.7246h-5.6934c0.4362,1.00913 1.07423,1.91733 1.9141,2.7246z" fill="#ffffff" stroke-width="1"/><path d="M277.82,179.78v7.8809c0,0.58594 -0.10742,1.01564 -0.32227,1.2891c-0.26042,0.32552 -0.81055,0.48828 -1.6504,0.48828c-0.80727,0 -1.65687,-0.04557 -2.5488,-0.13672l-0.40039,-1.9434c0.931,0.16276 1.70247,0.24414 2.3144,0.24414c0.27344,0 0.44271,-0.05208 0.50782,-0.15625c0.05207,-0.08464 0.0781,-0.2474 0.0781,-0.48829v-7.1777h-8.1738v6.1621h-5.1465v1.6602h-1.7188v-13.682h1.6406v10.156h0.95703v-13.359h1.6992v13.359h1.0059v-10.156h1.5625v4.1016h11.934v1.7578zM273.8747,174.1062c1.582,0.65104 3.19007,1.44204 4.8242,2.373l-1.2793,1.4551c-1.2044,-0.79427 -2.61717,-1.61457 -4.2383,-2.4609c-0.8724,1.21093 -2.22007,2.04753 -4.043,2.5098l-1.0352,-1.5234c1.95313,-0.42969 3.20963,-1.24999 3.7695,-2.4609h-3.8574v-1.6992h4.1016v-1.7969h1.9434v1.7969h4.6777v1.6992h-4.8242c-0.00667,0.03253 -0.0197,0.06834 -0.0391,0.10742zM274.59736,181.1668v5.2344h-4.1797v0.9375h-1.7773v-6.1719zM270.37856,182.7684v2.0312h2.5586v-2.0312z" fill="#ffffff" stroke-width="1"/><path d="M296.76,170.98v9.4629h-11.621v-9.4629zM287.2385,172.523v1.2207h7.4023v-1.2207zM287.2385,175.1207v1.2207h7.4023v-1.2207zM287.2385,177.7183v1.2598h7.4023v-1.2598zM283.3029,181.7417h16.191v1.6992h-8.0762v6.0644h-2.2168v-6.0644h-8.0371v-10.957h2.1387zM280.8029,187.6401c1.54947,-0.71613 3.0306,-1.9173 4.4434,-3.6035l1.7969,1.0449c-1.3932,1.76433 -2.93943,3.15107 -4.6387,4.1602zM297.6389,188.8999c-0.99607,-1.22393 -2.49347,-2.50973 -4.4922,-3.8574l1.6797,-1.1816c1.569,0.90493 3.1087,2.09307 4.6191,3.5644z" fill="#ffffff" stroke-width="1"/><path d="M308.85,172.12v-1.6211h2.1777v1.6211h8.3203v1.7383h-8.3203v1.543h7.0215v1.582h-15.879v-1.582h6.6797v-1.543h-8.1836v-1.7383zM319.084,178.4774v4.1992h-2.2168v-2.5977h-13.76v2.5977h-2.1777v-4.1992zM306.223,183.3407c3.41147,-0.53385 6.22397,-1.16862 8.4375,-1.9043l1.4062,1.6016c-2.82553,0.86587 -6.1068,1.52343 -9.8438,1.9727v1.582c0,0.30599 0.10417,0.48828 0.3125,0.54687c0.37761,0.10417 1.74804,0.15625 4.1113,0.15625c2.46093,0 3.92903,-0.0651 4.4043,-0.19531c0.33854,-0.09766 0.54362,-0.3418 0.61523,-0.73242c0.09766,-0.48177 0.16276,-1.12631 0.19531,-1.9336l2.1387,0.64453c-0.00667,1.21747 -0.1206,2.1224 -0.3418,2.7148c-0.26042,0.69013 -0.91799,1.1003 -1.9727,1.2305c-1.1328,0.13672 -2.95573,0.20508 -5.4688,0.20508c-2.9362,0 -4.694,-0.1237 -5.2734,-0.3711c-0.63803,-0.26693 -0.95704,-0.81379 -0.95704,-1.6406v-6.084h2.2363z" fill="#ffffff" stroke-width="1"/><path d="M335.39,184.74c1.3216,1.1198 2.79947,2.01173 4.4336,2.6758l-1.1621,1.9629c-1.6732,-0.80727 -3.20967,-1.88473 -4.6094,-3.2324c-1.47787,1.43227 -3.2552,2.58787 -5.332,3.4668l-1.2793,-1.7383c1.91407,-0.58593 3.6849,-1.62433 5.3125,-3.1152c-1.36067,-1.6276 -2.36653,-3.29753 -3.0176,-5.0098h-0.91797v-1.8848h3.8379v-2.6367h-4.4531v10.889h-5.5469v1.6992h-1.7773v-13.33h1.6797v9.7559h1.084v-13.457h1.7773v13.457h1.123v-9.7559h1.3965v-1.1816h4.7168v-2.8027h2.0606v2.8027h4.8047v1.9238h-4.8047v2.6367h3.1055l0.9375,0.96679c-1.0612,2.52607 -2.18427,4.49547 -3.3692,5.9082zM334.013,183.4021c1.0482,-1.3802 1.77087,-2.59767 2.168,-3.6524h-4.4336c0.58593,1.39973 1.34113,2.6172 2.2656,3.6524z" fill="#ffffff" stroke-width="1"/></g></g></svg>