<svg version="1.1" xmlns="http://www.w3.org/2000/svg" xmlns:xlink="http://www.w3.org/1999/xlink" width="91.24634" height="149.10412" viewBox="0,0,91.24634,149.10412"><g transform="translate(-274.67016,-295.54261)"><g data-paper-data="{&quot;isPaintingLayer&quot;:true}" fill="#ff0000" fill-rule="evenodd" stroke="none" stroke-width="0" stroke-linecap="round" stroke-linejoin="round" stroke-miterlimit="10" stroke-dasharray="" stroke-dashoffset="0" style="mix-blend-mode: normal"><path d="M347.71719,319.53176l0.59998,2.15991l1.50994,0.78997l0.29999,0.55998l2.10992,-0.28999l1.20995,-0.80997l0.02,1.40994l-0.74997,0.65997l-2.33991,0.21999l-0.41998,0.65997l-1.78993,0.37998l-0.62997,0.68997l-0.01,1.05996l-0.69997,0.69997l-0.13999,1.40994l-0.63997,0.32999l-1.67993,2.15991l1.10996,0.50998l1.10996,1.44994l-0.22999,2.5699l0.38998,0.37998l-0.20999,1.41994l0.19999,1.49994l0.84997,1.14995l2.18991,1.90992l0.74997,-0.11l1.16995,0.61998l0.80997,1.00996l-1.28995,2.5599l-1.20995,-0.28999l-0.64997,1.89992l-1.28995,2.80989l1.40994,1.53994l0.94996,0.31999l-1.32995,2.5099l1.03996,0.16999l2.85989,1.49994l0.91996,-0.05l1.34995,0.63997l1.76993,1.67993l0.83997,-0.43998l1.18995,0.86997l0.75997,-0.48998l1.40994,0.24999l0.60998,0.84997l1.38994,-0.54998l0.22999,0.96996l0.79997,0.32999l0.12,2.08992l0.50998,0.35999l0.16999,1.52994l0.52998,1.41994l0.31999,2.00992l-0.06,1.51994l-0.80997,0.43998l-0.11,1.35995l-1.56994,-0.30999l-1.94992,-0.89996l-2.00992,0.17999l-2.5099,-0.79997l-0.59998,0.46998l-0.87996,-1.17995l-1.24995,-0.09l-0.22999,-0.92996l-1.20995,-0.44998l-1.34995,0.91996l0.09,1.00996l-1.59994,1.85993l0.48998,0.89996l-0.36999,1.26995l0.60998,1.37994l1.14995,1.50994l0.09,1.25995l-1.26995,1.16995l-1.12995,-0.01l-0.53998,1.85993l0.45998,0.18999l-0.27999,1.76993l0.18999,0.85997l-0.82997,1.17995l-0.26999,1.88992l0.24999,1.09996l-0.25999,1.26995l-1.49994,1.11996l-0.52998,-0.33999l-1.27995,0.74997l-0.23999,0.57998l-1.97992,0.73997l-0.98996,1.01996l-1.05996,-0.04l0.09,1.98992l-0.67997,1.14995l0.85997,1.15995l0.21999,1.95992l1.55994,0.76997l1.52994,1.82993l-0.14999,0.78997l0.94996,0.89996l1.10996,2.34991l0.23999,1.24995l-1.12995,0.74997l0.50998,1.08996l-1.75993,0.94996l0.23999,1.52994l-0.90996,0.13999l-0.95996,1.01996l-0.35999,1.62993l0.02,1.78993l-0.65997,0.86997l-0.73997,-0.18999l-0.73997,1.18995l-2.69989,1.73993l-0.64997,0.69997l0.41998,1.32995l1.20995,1.18995l0.38998,2.5399l-1.86993,1.07996l0.30999,0.69997l-0.47998,1.82993l1.50994,1.50994l-0.13999,1.02996l1.38994,2.03992l-1.27995,1.61994l-0.49998,-0.27999l-2.99988,1.36995l-0.74997,-0.08l-0.98996,1.27995l0.04,1.06996l-0.93996,0.47998l-0.23999,1.19995l-1.37994,0.93996l-1.39994,0.04l0.03,1.16995l-0.90996,1.18995l-1.35995,0.98996l-1.31995,-1.38994l-1.37994,-2.17991l-0.85997,0.38998l-1.73993,-1.84993l-1.04996,0.1l-2.5799,-0.81997l-0.22999,-1.60994l-0.42998,-0.54998l0.12999,-1.86993l-0.66997,-1.76993l-1.85993,-0.09l-2.25991,-1.03996l-0.20999,-1.79993l-1.41994,-1.42994l-0.49998,-0.97996l-1.66993,-1.04996l-1.29995,0.65997l-0.86997,-0.39998l-0.25999,-0.51998l-1.80993,-0.71997l-0.29999,-0.82997l1.24995,-1.63993l-0.91996,-1.27995l0.70997,-1.26995l-1.07996,-2.11992l1.10996,-1.09996l-0.23999,-2.09992l-2.4199,0.24999l-0.49998,0.66997l-1.63993,-0.66997l-0.39998,-0.56998l0.05,-2.4199l-0.90996,-1.11996l0.23999,-1.10996l-2.02992,-0.59998l-1.92992,-2.10992l0.26999,-0.52998l-1.91992,-1.88992l-0.89996,0.27999l-2.5299,-2.10992l-1.32995,-0.07l-2.33991,-0.71997l-0.84997,0.15999l-1.03996,-1.17995l-2.26991,-0.94996l-0.97996,0.35999l-3.53986,-0.83997l-1.60994,-0.19999l-0.17999,-0.60998l0.26999,-0.95996l-0.40998,-2.3799l2.20991,-2.70989l-1.61994,-0.69997l-0.77997,-1.19995l-1.00996,-0.58998l0.41998,-1.84993l1.42994,-1.33995l0.27999,-1.57994l-0.61998,-1.73993h1.45994l-0.18999,-1.22995l1.61994,-1.78993l0.13999,-1.30995l0.80997,-1.36995l1.26995,-0.60998l0.15999,-0.82997l0.96996,-1.52994l1.11996,0.59998l1.41994,-2.29991l0.26999,-1.31995l-0.68997,-2.86989l0.43998,-3.19987l0.64997,-0.46998l0.55998,-1.31995l0.77997,-0.27999l0.04,0.37998l0.64997,0.89996l2.99988,0.29999l0.74997,0.65997l0.97996,-0.58998l1.94992,-2.09992l0.90996,-1.90992l0.12,-1.50994l1.17995,0.46998l0.90996,-0.03l0.64997,0.84997l1.61994,0.28999l0.32999,-1.51994l-0.23999,-1.11996l-0.63997,-0.47998l0.57998,-1.38994l-1.15995,-1.41994l0.24999,-1.80993l-1.12995,-0.33999l-1.28995,-1.78993l2.5499,-2.19991l0.12,-1.13995l1.77993,-1.09996l0.84997,1.00996l0.97996,-0.07l0.32999,-1.25995l0.70997,-0.93996l-0.04,-2.18991l1.03996,-1.14995l1.24995,-0.36999l1.37994,-2.10992l1.02996,-1.10996l-0.47998,-1.75993l0.20999,-1.63993l-0.45998,-0.94996l-1.78993,-0.63997l-1.48994,-1.16995l-1.44994,-0.38998l0.57998,-3.10988l-0.71997,-1.59994l0.25999,-1.72993l1.14995,-0.47998l-0.60998,-1.57994l0.70997,-1.50994l1.05996,-0.77997l1.11996,-1.83993l1.00996,-0.32999l0.58998,-2.07992l1.65993,-1.21995l-0.81997,-0.91996l-2.17991,-1.13995l-0.66997,-1.30995l0.51998,-1.67993l-0.16999,-1.87992l0.42998,-1.48994l-0.49998,-1.50994l0.57998,-0.56998l-0.60998,-1.95992l0.19999,-1.37994l0.55998,-0.36999l0.70997,-1.73993l-0.79997,-4.16983l0.86997,-1.26995l1.15995,0.79997l1.06996,0.15999l1.42994,1.38994l1.21995,-0.02l1.97992,1.02996l0.64997,-0.97996l3.04988,0.52998v-1.41994l1.29995,-1.20995l0.88996,0.1l0.16999,1.25995l2.4899,1.25995l1.05996,-0.39998l0.30999,0.73997l1.36995,-0.18999l1.33995,0.73997l-0.73997,1.12995l0.19999,2.5299l0.71997,1.38994l1.15995,0.92996l1.38994,-0.62997l1.35995,0.12999l0.59998,-0.66997l1.50994,0.14999l2.6099,-0.47998l0.33999,-1.43994l1.78993,1.75993l1.14995,0.33999l1.98992,-1.08996l1.15995,1.98992l1.73993,0.45998l1.52994,-0.68997l0.69997,0.73997l2.14991,0.74997l0.23999,0.69997l-0.80997,1.20995l1.00996,2.15991l-0.59998,1.86993l-0.73997,0.68997l1.48994,4.24983l-1.59994,2.01992"/></g></g></svg>