<svg version="1.1" xmlns="http://www.w3.org/2000/svg" xmlns:xlink="http://www.w3.org/1999/xlink" width="54.17784" height="65.2474" viewBox="0,0,54.17784,65.2474"><g transform="translate(-507.54422,-61.47118)"><g data-paper-data="{&quot;isPaintingLayer&quot;:true}" fill="#ff0000" fill-rule="evenodd" stroke="none" stroke-width="0" stroke-linecap="round" stroke-linejoin="round" stroke-miterlimit="10" stroke-dasharray="" stroke-dashoffset="0" style="mix-blend-mode: normal"><path d="M532.62324,62.72114l0.20999,1.26995l0.98996,0.72997l1.22995,-0.21999l0.64997,-0.68997l1.76993,0.90996l-0.02,1.05996l0.46998,1.39994l0.96996,1.35995l2.22991,1.57994l3.06988,-1.41994l0.96996,0.17999l0.65997,0.67997l1.47994,0.22999l0.65997,-0.25999l4.17983,0.88996l2.86989,1.71993l0.79997,0.08l0.20999,0.86997l0.77997,0.26999l0.43998,1.11996l1.52994,1.94992l1.63993,1.12995l1.30995,1.60994l-0.23999,0.92996l-1.29995,0.99996l-1.35995,0.60998l-0.86997,-0.98996l-1.36995,1.97992l-1.15995,0.22999l-0.74997,0.79997l-1.36995,-0.11l0.59998,2.87988l-0.14999,1.23995l-0.72997,1.04996l0.39998,1.53994l-0.59998,3.71985l0.42998,1.51994l-1.44994,-0.04l-0.34999,1.32995l-0.85997,0.60998l-1.20995,-0.68997l-0.30999,0.47998l-1.82993,0.33999l-0.92996,-0.62997l-1.32995,0.19999l0.08,0.98996l-1.64993,0.07l-0.79997,2.02992l-1.82993,0.39998l-1.00996,0.79997l0.17999,1.39994l0.49998,0.74997l-1.22995,1.10996l0.48998,0.62997l0.02,1.25995l-0.42998,2.19991l-2.73989,1.21995l-2.26991,2.09992l-1.25995,0.65997l-2.27991,1.83993l-0.65997,1.62993l-0.06,2.72989l-0.50998,2.77989l0.86997,1.63993l-0.12999,1.87992l-2.34991,0.32999l-0.84997,0.94996l-2.14991,0.14999l-1.72993,-0.60998l-0.66997,0.12999l-2.64989,-0.79997l-0.91996,0.11l-0.39998,-1.31995l0.26999,-1.19995l-0.74997,-1.41994l-0.77997,-0.05l-1.07996,-0.65997l-1.52994,-1.59994l0.01,-1.44994l-1.32995,-4.30983l0.1,-1.94992l1.04996,-1.76993l1.11996,-1.27995l0.57998,-0.09l0.76997,-2.5899l-0.11,-0.37998l0.93996,-1.91992l-0.81997,-1.07996l-0.26999,-1.48994l-0.21999,-3.07988l-0.72997,-1.05996l0.31999,-1.82993l-0.81997,-0.54998l-0.94996,0.20999l-1.45994,-0.38998l-0.30999,0.36999l-4.9998,0.15999l0.16999,-1.31995l0.75997,-0.47998l0.48998,-1.35995l-0.31999,-1.38994l2.70989,-2.71989l2.4299,-0.47998l0.99996,-1.20995l1.92992,-0.12l0.67997,-0.64997l1.25995,-0.12999l0.30999,-0.94996l1.32995,-1.31995l0.20999,-1.25995l1.40994,0.26999l0.84997,-0.41998l1.71993,-0.14999l0.84997,-1.19995l0.97996,-0.61998l0.97996,-1.41994l-0.18999,-1.38994l1.63993,-1.57994l-0.06,-2.25991l-0.63997,-0.71997l0.78997,-0.94996l0.43998,-2.6099l-1.01996,-1.00996l0.34999,-2.19991l-0.96996,-1.59994l1.39994,-2.09992l1.58994,0.63997l1.43994,-0.13999l0.55998,0.74997M514.27397,115.04904l1.12995,1.79993l0.12,1.83993l1.11996,1.05996l0.12,0.78997l2.04992,-0.89996l-1.76993,-1.30995l-0.99996,-1.22995l-0.46998,-2.18991l-0.94996,-0.35999l-0.34999,0.49998"/></g></g></svg>