<svg xmlns="http://www.w3.org/2000/svg" viewBox="0 0 196 34" version="1.1" height="34" width="196">
 <rect fill-opacity="0" height="34" width="196"></rect>opacity="0" stop-color="#000000"/&gt;
 <g aria-label="大きな加速度が検出されたため" stroke-width="1.0241" fill="#ffd253" transform="matrix(.95355 0 0 1 .014201 -.38269)">
  <path d="m7.1294 7.8188q0.43799 1.4854 1.6631 3.1611 1.4917 2.0439 3.6689 3.2373l-0.90772 1.3076q-2.3042-1.3584-3.8467-3.5991-0.83154-1.2188-1.333-2.4819-0.50146 1.7012-1.5552 3.0913-1.5488 2.0566-3.8276 3.0342l-0.89502-1.1616q2.3867-0.99658 3.853-3.0723 1.2314-1.752 1.46-3.5166h-5.0654v-1.3774h5.1226v-3.0596h1.4663v3.0596h5.2305v1.3774z"></path>
  <path d="m14.036 5.0068h3.8467q-0.20947-0.59033-0.45068-1.4028l1.4028-0.076172q0.24756 0.84424 0.48242 1.479h4.418v1.2251h-3.98q0.36182 0.90137 0.81885 1.8345h4.0181v1.2251h-3.377q0.6665 1.1616 1.3394 2.082l-1.4219 0.4126q-0.73633-1.0474-1.479-2.4946h-5.8398v-1.2251h5.2559q-0.36816-0.78076-0.75537-1.8345h-4.2783zm8.4614 9.9468q-1.2188 0.08887-2.2661 0.08887-2.7485 0-3.98-0.51416-1.7075-0.71728-1.7075-2.2661 0-0.86963 0.47607-1.4028l1.1362 0.62207q-0.19678 0.3999-0.19678 0.79346 0 0.7998 1.0918 1.1553 0.97119 0.31738 2.9707 0.31738 1.0029 0 2.3613-0.10791z"></path>
  <path d="m33.637 7.8442h1.4409v3.4849q1.4854 0.65381 3.0405 1.7266l-0.72998 1.187q-1.0918-0.7998-2.3105-1.4854-0.06982 1.1235-0.72998 1.7266-0.73633 0.6665-2.063 0.6665-1.2822 0-2.1138-0.58398-0.8125-0.57764-0.8125-1.6123 0-1.0854 1.022-1.7393 0.79346-0.50781 2.0312-0.50781 0.57764 0 1.2251 0.13965zm0 4.3037q-0.75537-0.26025-1.4282-0.26025-0.66016 0-1.0601 0.23486-0.51416 0.30469-0.51416 0.8125 0 0.62207 0.73633 0.90771 0.36816 0.13965 0.88232 0.13965 0.8252 0 1.187-0.69824 0.19678-0.37451 0.19678-0.87598zm-6.811-6.7349h2.4248q0.32373-1.0981 0.52051-1.936l1.3901 0.17139q-0.25391 0.93311-0.52051 1.7646h2.3169v1.2759h-2.7295q-1.1362 3.2563-2.666 5.5098l-1.1807-0.67285q1.4473-2.1455 2.4438-4.8369h-1.9995zm10.601 3.0913q-1.4092-1.5679-3.2373-2.8564l0.83789-0.91406q1.8154 1.1743 3.3135 2.7358z"></path>
  <path d="m43.952 7.0381h-1.3076q-0.17773 2.8691-0.69189 4.6973-0.60303 2.1709-1.9868 3.561l-0.99658-1.0537q1.2886-1.3521 1.8472-3.5801 0.33008-1.314 0.47607-3.6245h-1.9487v-1.2505h2.0503l0.08252-2.5327h1.3267l-0.06983 2.5327h2.5264q0 6.7222-0.36816 8.3472-0.15234 0.65381-0.58398 0.88232-0.31104 0.15869-0.91406 0.15869-0.74268 0-1.5171-0.11426l-0.24756-1.3647q0.83789 0.15234 1.3203 0.15234 0.43164 0 0.5459-0.22852 0.34277-0.65381 0.45068-6.2842zm7.0015-1.9614v10.01h-1.3394v-0.87598h-2.1011v1.0029h-1.314v-10.137zm-3.4404 1.2632v6.6079h2.1011v-6.6079z"></path>
  <path d="m55.048 12.84q0.03174 0.03174 0.08252 0.08252 0.5459 0.55859 1.2314 0.8125 1.1045 0.40625 2.7041 0.40625h5.5605q-0.24121 0.46338-0.4126 1.2061h-5.186q-2.1455 0-3.2627-0.56494-0.66016-0.33643-1.2632-0.99024-0.89502 1.1235-1.8091 1.8535l-0.71094-1.2822q0.95215-0.60303 1.7266-1.2759v-3.2754h-1.625v-1.2505h2.9644zm4.1323-1.9932q-1.1616 1.5298-2.812 2.5073l-0.86328-0.97119q1.9106-0.93945 3.3389-2.6406h-2.6089v-3.2246h2.9453v-0.86963h-3.4404v-1.1426h3.4404v-1.2505h1.3013v1.2505h3.5547v1.1426h-3.5547v0.86963h3.0596v3.2246h-3.0596v0.24756q1.771 0.76807 3.5928 1.9487l-0.81885 1.0918q-1.2632-1.0029-2.7739-1.9106v2.6533h-1.3013zm0-3.3389h-1.6948v1.2695h1.6948zm1.3013 0v1.2695h1.7964v-1.2695zm-6.2651-0.92676q-0.90772-1.4219-1.9106-2.4312l1.041-0.80615q1.1108 1.0347 1.9741 2.3423z"></path>
  <path d="m72.237 4.3975h4.9766v1.0664h-2.8184v1.0537h2.6406v1.0283h-2.6406v1.8916h-5.1099v-1.8916h-2.082v1.1807q0 2.8755-0.30469 4.5449-0.23486 1.2695-0.76172 2.3169l-1.1553-0.91406q0.48242-1.0474 0.66016-2.5581 0.15869-1.3267 0.15869-3.3896v-4.3291h5.021v-1.1426h1.4155zm-5.0337 1.0664v1.0537h2.082v-1.0537zm3.4341 0v1.0537h2.4058v-1.0537zm0 2.082v0.98389h2.4058v-0.98389zm1.4727 6.665q-1.8345 0.95215-4.6592 1.4473l-0.66016-1.168q2.6533-0.31738 4.1577-0.97119-1.2886-0.9331-2.2026-2.2153h-0.87598v-1.1045h7.4331l0.6665 0.55859q-0.9458 1.4536-2.6978 2.7358 1.5044 0.60303 4.1006 0.88867l-0.74268 1.1997q-2.4883-0.33643-4.5195-1.3711zm-1.8853-2.9072q0.76807 0.90137 1.8662 1.5869 1.2378-0.7998 1.9106-1.5869z"></path>
  <path d="m78.344 6.0605h2.8057q0.19043-0.97754 0.42529-2.4312l0.03174-0.18408 1.3901 0.20947q-0.21582 1.3457-0.44434 2.4058h0.76807q1.5234 0 2.1836 0.68555 0.59033 0.61572 0.59033 1.917 0 2.1899-0.46338 4.0942-0.2666 1.0791-0.64746 1.5933-0.48242 0.64111-1.3394 0.64111-1.0283 0-2.2471-0.66016l0.15869-1.3394q1.2061 0.57764 1.8726 0.57764 0.34912 0 0.53955-0.37451 0.20312-0.40625 0.38721-1.1743 0.36182-1.5552 0.36182-3.269 0-0.90137-0.36182-1.168-0.31104-0.22217-1.1108-0.22217h-0.97754q-1.0093 4.4941-2.8945 7.668l-1.2759-0.69824q1.9487-3.269 2.7803-6.9697h-2.5327zm10.543 6.2651q-0.71728-2.6406-2.2661-5.186l1.2378-0.55859q1.5996 2.5518 2.3931 5.1353zm-0.93945-6.0811q-0.39356-1.0283-1.2695-2.2852l0.98389-0.36816q0.76807 1.0854 1.2886 2.2534zm1.7075-0.5459q-0.49512-1.2251-1.2632-2.3042l0.9331-0.31104q0.72998 0.86963 1.2759 2.1709z"></path>
  <path d="m100.14 11.78q0.48242 0.80615 1.1489 1.3521 0.86328 0.69824 2.1899 1.2124l-0.76807 1.2632q-2.3677-0.98389-3.4531-3.3008-0.4126 1.2124-1.3076 2.082-0.80615 0.78076-2.1646 1.3584l-0.88232-1.1172q1.5615-0.50781 2.3677-1.314 0.6792-0.6792 1.0093-1.5361h-2.4565v-3.415h2.6914v-1.0664h-1.3774v-0.56494q-0.68555 0.59668-1.5234 1.0474l-0.50146-0.67285h-1.0537v1.0854q0.83154 0.69824 1.606 1.5488l-0.67285 1.2061q-0.45703-0.6665-0.9331-1.2822v5.9414h-1.3013v-5.7002q-0.62842 1.8027-1.3394 3.0469l-0.55859-1.4854q1.168-1.9614 1.7773-4.3608h-1.5679v-1.2378h1.6885v-2.6152h1.3013v2.6152h1.1299v0.74268q2.0249-1.187 3.0913-3.3579h1.4409q0.95849 1.4917 2.4248 2.4946 0.63477 0.43164 1.479 0.86328l-0.76806 1.0918q-0.88233-0.47607-1.6314-1.0347v0.62842h-1.4219v1.0664h2.7422v3.415zm-1.5996-2.4121h-1.4917v1.3965h1.4917zm1.2378 0v1.3965h1.5298v-1.3965zm-2.0884-3.1611h2.9771q-0.90137-0.78711-1.6314-1.8599-0.52686 0.99658-1.3457 1.8599z"></path>
  <path d="m110.91 7.5586h3.0976v-3.1611h1.4155v4.4243h-4.5132v4.6909h3.4976v-2.9263h1.4409v5.021h-1.4409v-0.80615h-8.3345v0.80615h-1.4282v-5.021h1.4282v2.9263h3.4214v-4.6909h-4.4307v-4.4243h1.4155v3.1611h3.0151v-4.3037h1.4155z"></path>
  <path d="m117.52 5.7622h5.0972q-0.41259-1.0854-0.75537-2.1582l1.3901-0.088867q0.33008 1.1299 0.79346 2.2471h4.6909v1.3013h-4.0942q0.81884 1.6948 2.0503 3.5356l-1.333 0.63477q-1.3584-2.0566-2.228-4.1704h-5.6113zm9.2295 9.3628q-1.2632 0.06982-2.2344 0.06982-2.6406 0-3.8911-0.4126-2.2598-0.73633-2.2598-2.7803 0-1.2568 0.78076-2.0249l1.1934 0.64746q-0.52051 0.51416-0.52051 1.3457 0 1.0601 1.1426 1.4854 1.0093 0.37451 3.377 0.37451 1.0029 0 2.2598-0.09521z"></path>
  <path d="m132.72 3.5405h1.4028v3.5864q1.5108-1.5679 2.4185-2.1519 0.84424-0.5459 1.752-0.5459 0.91407 0 1.4727 0.51416 0.73633 0.68555 0.73633 1.7964 0 0.29199-0.0762 0.77441-0.5586 3.5483-0.5586 4.9131 0 0.58398 0.29834 0.58398 0.19043 0 0.50147-0.21582 0.65381-0.45068 1.3203-1.479l0.52051 1.4536q-0.40625 0.64746-1.0093 1.1489-0.69824 0.58398-1.4917 0.58398-0.75537 0-1.1743-0.52686-0.35546-0.45068-0.35546-1.5044 0-0.7998 0.20947-2.4058 0.2666-2.0186 0.35547-2.9961 0.0127-0.15869 0.0127-0.2666 0-0.55859-0.23486-0.85693-0.22217-0.28564-0.61572-0.28564-1.3267 0-4.0816 3.5356v5.9922h-1.4028v-4.3926q-1.0601 1.4854-1.9551 2.8057l-0.66015-1.5044q1.5044-1.8218 2.6152-3.4722v-1.6123h-2.228v-1.2759h2.228z"></path>
  <path d="m143.57 5.5146h2.9644q0.17774-0.78711 0.39991-2.0376l1.4346 0.17773q-0.19043 0.98389-0.40625 1.8599h4.2275v1.2632h-4.5259q-1.2695 5.0718-2.8057 8.4106l-1.4028-0.49512q1.6694-3.7007 2.7803-7.9155h-2.666zm11.235 9.3374q-1.0283 0.1333-2.3106 0.1333-2.0757 0-3.1357-0.35547-0.40625-0.13965-0.69189-0.39356-0.5586-0.50781-0.5586-1.2949 0-0.80615 0.52051-1.4219l1.1299 0.6665q-0.19677 0.24756-0.19677 0.5459 0 0.51416 0.46972 0.6665 0.71729 0.22852 2.044 0.22852 1.2886 0 2.5708-0.19043zm-5.9541-6.2905q2.4883-0.28564 5.4463-0.30469l0.0635 1.2886q-2.9009 0.012695-5.3257 0.27295z"></path>
  <path d="m156.57 5.5146h2.9644q0.17774-0.78711 0.39991-2.0376l1.4346 0.17773q-0.19043 0.98389-0.40625 1.8599h4.2275v1.2632h-4.5259q-1.2695 5.0718-2.8057 8.4106l-1.4028-0.49512q1.6694-3.7007 2.7803-7.9155h-2.666zm11.235 9.3374q-1.0283 0.1333-2.3106 0.1333-2.0757 0-3.1357-0.35547-0.40625-0.13965-0.69189-0.39356-0.5586-0.50781-0.5586-1.2949 0-0.80615 0.52051-1.4219l1.1299 0.6665q-0.19677 0.24756-0.19677 0.5459 0 0.51416 0.46972 0.6665 0.71729 0.22852 2.044 0.22852 1.2886 0 2.5708-0.19043zm-5.9541-6.2905q2.4883-0.28564 5.4463-0.30469l0.0635 1.2886q-2.9009 0.012695-5.3257 0.27295z"></path>
  <path d="m171.93 4.188q0.19678 0.89502 0.58399 2.2153 1.5234-0.83154 3.3706-0.87598 0.16504-0.92676 0.27295-1.8979l1.4028 0.27295q-0.13964 1.0029-0.28564 1.771 1.3965 0.33008 2.2344 1.1299 1.3267 1.2759 1.3267 3.2944 0 2.4438-1.5742 3.6562-1.168 0.90137-2.8691 1.1743l-0.66651-1.1807q1.6758-0.31738 2.6152-1.0728 1.0283-0.8252 1.0283-2.6597 0-1.3394-0.78076-2.2344-0.5586-0.64111-1.5488-0.93945-0.47608 1.9805-0.97119 3.1167-0.67286 1.5552-1.8154 2.793-1.5425 1.6694-2.8691 1.6694-1.041 0-1.5615-1.0156-0.36816-0.72998-0.36816-1.771 0-2.5391 1.9551-4.4116-0.35547-1.1108-0.71094-2.5771zm-0.0762 4.3164q-1.1172 1.4092-1.1172 2.9897 0 0.71728 0.20313 1.1616 0.19678 0.43799 0.57764 0.43799 0.66015 0 1.79-1.2568-0.78711-1.4282-1.4536-3.3325zm3.7959-1.8154q-1.5107 0.08252-2.7549 0.88232 0.60302 1.79 1.2886 3.0913 0.99658-1.606 1.4663-3.9736z"></path>
 </g>
 <g aria-label="震度5弱と仮定して発表されています" stroke-width="1.0241" fill="#ffd253" transform="matrix(.95355 0 0 1 .014201 -.38269)">
  <path d="m5.3074 21.33v-0.5249h-3.8147v-0.8728h9.0088v0.8728h-3.894v0.5249h5.0537v2.1912h-1.3245v-1.4038h-3.7292v2.3743h-1.3v-2.3743h-3.6621v1.4038h-1.3123v-2.1912zm4.3213 8.6609q0.93384 0.354 2.3315 0.56152l-0.71411 1.0376q-1.9592-0.33569-3.2166-1.1536-1.2512-0.81787-1.947-2.0325h-1.3489v1.8799q1.3489-0.18921 2.5024-0.40283l0.085449 0.90942q-2.1484 0.5127-4.9133 0.89111l-0.36011-1.0742q0.95825-0.10376 1.3123-0.14648l0.073242-0.01221v-2.0447h-1.3367q-0.085449 1.0742-0.28076 1.7151-0.23193 0.76904-0.74463 1.4343l-1.0864-0.89722q0.59814-0.77515 0.74463-1.8127 0.079346-0.56152 0.079346-1.3977v-2.5879h10.535v0.81177h-9.2224v1.8738h9.7473v0.8606h-1.3855l0.77515 0.5127q-0.6897 0.57373-1.6296 1.0742zm-0.95215-0.46997q0.87891-0.59814 1.3977-1.1169h-2.6672q0.5249 0.67139 1.2695 1.1169zm-6.4941-6.9519h2.6001v0.6897h-2.6001zm0 1.123h2.6001v0.7019h-2.6001zm4.95-1.123h2.6794v0.6897h-2.6794zm0 1.123h2.6794v0.7019h-2.6794zm-4.2847 2.4902h7.5989v0.79956h-7.5989z"></path>
  <path d="m19.449 20.781h4.7852v1.0254h-2.71v1.0132h2.5391v0.98877h-2.5391v1.8188h-4.9133v-1.8188h-2.002v1.1353q0 2.7649-0.29297 4.3701-0.22583 1.2207-0.73242 2.2278l-1.1108-0.87891q0.46387-1.0071 0.63477-2.4597 0.15259-1.2756 0.15259-3.2593v-4.1626h4.8279v-1.0986h1.3611zm-4.8401 1.0254v1.0132h2.002v-1.0132zm3.302 0v1.0132h2.3132v-1.0132zm0 2.002v0.94604h2.3132v-0.94604zm1.416 6.4087q-1.7639 0.91553-4.48 1.3916l-0.63477-1.123q2.5513-0.30518 3.9978-0.93384-1.239-0.89722-2.1179-2.1301h-0.84228v-1.062h7.1472l0.64087 0.53711q-0.90942 1.3977-2.594 2.6306 1.4465 0.57983 3.9429 0.85449l-0.71411 1.1536q-2.3926-0.32349-4.3457-1.3184zm-1.8127-2.7954q0.73853 0.8667 1.7944 1.5259 1.1902-0.76904 1.8372-1.5259z"></path>
  <path d="m26.657 20.555h5.9143v1.3489h-4.5898l-0.36011 2.887h0.04883q0.93994-0.67749 2.179-0.67749 0.84839 0 1.593 0.38452 1.0437 0.53101 1.4587 1.6174 0.23193 0.61035 0.23193 1.355 0 1.6724-1.2329 2.6367-1.0254 0.79956-2.5513 0.79956-2.2095 0-3.5522-1.3306l0.83618-1.0498q0.48828 0.48218 1.1902 0.74463 0.76294 0.28686 1.5015 0.28686 0.83618 0 1.4282-0.46387 0.75684-0.59204 0.75684-1.6357 0-0.90942-0.5249-1.4832-0.56763-0.62256-1.5686-0.62256-1.3611 0-1.9958 0.95215l-1.3733-0.22583z"></path>
  <path d="m39.981 20.219v3.1616h-3.4363q-0.0061 0.08545-0.01831 0.21973-0.03052 0.40894-0.10376 0.98267h3.8208v0.66528q-0.01221 3.7781-0.27466 5.1697-0.10986 0.56763-0.44556 0.83008-0.3418 0.26856-1.0803 0.26856-0.8606 0-1.5625-0.10986l-0.21362-1.2512q1.1169 0.20142 1.3977 0.20142 0.48828 0 0.60425-0.29907 0.21362-0.53711 0.27466-4.4373h-3.9856q0.29297-1.4648 0.37231-3.2654h3.3508v-1.0376h-3.8147v-1.0986zm5.8167 0v3.1616h-3.5461q-0.05493 0.71411-0.12817 1.2024h4.0894q-0.01221 4.1687-0.31128 5.7129-0.10376 0.56152-0.37231 0.83008-0.31738 0.32959-1.0925 0.32959-0.93384 0-1.7029-0.07324l-0.28686-1.2268q0.97656 0.11597 1.5564 0.11597 0.49438 0 0.60425-0.27466 0.21973-0.54321 0.29297-4.1931l0.0061-0.1831h-4.248q0.30518-1.416 0.37842-3.2654h3.4607v-1.0376h-3.9124v-1.0986zm-8.8623 7.8491q-0.84839-0.84839-1.6785-1.3977l0.93994-0.79956q1.0498 0.65918 1.7273 1.3123zm5.7007-0.07324q-0.64087-0.73242-1.6663-1.416l0.90332-0.73242q1.1841 0.73852 1.7456 1.3123zm-7.9895 1.3977q1.8005-0.65308 3.7354-1.7212l0.26245 1.0498q-1.4893 0.93994-3.4241 1.8372zm5.9021-0.21362q1.947-0.6897 3.833-1.8372l0.28686 1.0803q-1.7883 1.1475-3.5583 1.9104z"></path>
  <path d="m57.523 30.669q-1.8066 0.18921-3.7354 0.18921-2.8442 0-3.9856-0.36011-0.83008-0.26245-1.3123-0.78125-0.55542-0.60425-0.55542-1.4709 0-1.1414 0.78125-2.0508 0.66528-0.77515 2.1423-1.5381-0.84228-1.8921-1.5259-4.3091l1.3611-0.354q0.63477 2.3193 1.3428 4.1016 2.3499-1.0803 4.9866-1.8005l0.40894 1.239q-2.8931 0.73242-5.7495 2.0813-0.88501 0.42114-1.2573 0.6897-1.0925 0.79956-1.0925 1.7761 0 0.84839 1.0132 1.1841 0.84228 0.27466 3.0151 0.27466 2.0081 0 4.0222-0.23193z"></path>
  <path d="m61.881 22.6v8.96h-1.3245v-6.3232q-0.49438 0.80566-1.0376 1.5381l-0.61035-1.3672q1.0925-1.4648 1.8372-3.4363 0.38452-1.001 0.82398-2.4719l1.2756 0.32349q-0.43335 1.4832-0.96436 2.7771zm2.7893-1.001v2.0081h5.072l0.62866 0.46387q-0.56152 2.124-1.2573 3.418-0.32349 0.59814-0.6958 1.1169 1.0925 1.001 2.6245 1.6724l-0.75073 1.2268q-1.6602-0.85449-2.6916-1.9165-1.0315 1.0864-2.655 2.0386l-0.82397-1.0864q1.532-0.6897 2.6672-1.8921-1.239-1.7151-1.7395-3.894h-0.37842q-0.01221 4.3457-1.5991 6.7383l-0.98877-0.91553q0.76904-1.2878 1.0559-2.9419 0.23193-1.3489 0.23193-3.1921v-4.0466h7.373v1.2024zm2.9114 6.0608q0.88501-1.2756 1.3-2.9053h-2.6367q0.42725 1.6174 1.3367 2.9053z"></path>
  <path d="m78.165 29.784q1.0315 0.1709 2.2522 0.1709h3.1677q-0.30518 0.61035-0.45166 1.2878h-2.7283q-2.478 0-3.9124-0.59204-1.3916-0.57373-2.2949-1.8921-0.72022 1.7151-1.77 2.8442l-0.94604-1.1353q1.7212-1.8616 2.1484-4.8218l1.3855 0.21362q-0.19531 0.96436-0.37842 1.6052 0.73852 1.3123 2.179 1.9409v-4.7241h-3.3875v-0.81177h-1.3245v-2.8259h4.6753v-1.3611h1.3611v1.3611h4.7791v2.8259h-1.3245v0.81177h-3.4302v1.8677h4.1809v1.1353h-4.1809zm-4.7241-7.5928v1.3306h8.1299v-1.3306z"></path>
  <path d="m85.27 20.195h1.4404v7.2754q0 2.301 2.417 2.301 1.593 0 2.6123-1.4709 0.65918-0.94604 1.1841-2.9297l1.239 0.75073q-0.62256 2.2034-1.4954 3.2959-1.3733 1.7029-3.5706 1.7029-2.2949 0-3.2349-1.416-0.59204-0.88501-0.59204-2.2827z"></path>
  <path d="m95.359 21.166q5.6152-0.08545 10.614-0.28686l0.0732 1.2146q-2.2034 0.10986-3.4302 0.67139-1.1719 0.53711-1.8799 1.4893-0.80566 1.0803-0.80566 2.4048 0 1.3184 0.91552 1.9775 1.0498 0.75073 3.2227 1.0315l-0.28687 1.3733q-2.832-0.37842-3.9856-1.4648-1.239-1.1597-1.239-2.8809 0-1.5625 1.123-2.9175 0.81787-0.99487 2.24-1.5991-2.5208 0.08545-6.5002 0.28686z"></path>
  <path d="m116.23 22.594q0.82397-0.6897 1.5991-1.6296l1.001 0.77515q-0.65918 0.73242-1.6052 1.4465 0.80566 0.42114 2.0081 0.8667l-0.66529 1.0742q-1.0986-0.42725-2.002-0.95825v0.63477h-1.1352v1.6418h3.5278v1.178h-3.5278v2.0447q0 0.32349 0.14038 0.38452 0.18921 0.07935 0.78125 0.07935 0.64697 0 0.88501-0.07935 0.23803-0.07324 0.30517-0.40894 0.0854-0.41504 0.0915-1.1963l1.3367 0.39673q-0.0671 1.6235-0.354 2.0386-0.25024 0.36011-0.78125 0.43335-0.53711 0.07324-1.7395 0.07324-1.1353 0-1.4648-0.14038-0.5371-0.22583-0.5371-1.0193v-2.6062h-1.9226q-0.14038 1.5808-1.0376 2.4719-0.98877 0.98877-2.9175 1.4893l-0.78735-1.1658q1.7273-0.36011 2.5452-1.062 0.44556-0.39062 0.64698-0.95215 0.10986-0.29297 0.1831-0.78125h-3.2104v-1.178h3.2715v-1.6418h-0.95215v-0.50659q-1.0742 0.67139-2.1973 1.0803l-0.61035-1.0254q1.3245-0.45166 2.478-1.1658-0.66529-0.63477-1.5015-1.1963l0.88501-0.8728q0.94605 0.65918 1.6113 1.3306 0.72022-0.61646 1.2268-1.2939h-2.2034v-1.1475h4.1931q0.50049 0.83008 1.0254 1.3977 0.71412-0.63476 1.4954-1.5503l0.98876 0.77515q-0.73852 0.79956-1.6724 1.5259 0.33569 0.26245 0.59815 0.43945zm-2.1362 2.2095h-1.8799v1.6418h1.8799zm-3.2776-1.123h4.9744q-1.5198-1.0193-2.6245-2.3499-0.87891 1.2512-2.3498 2.3499z"></path>
  <path d="m127.57 28.996 0.0854 1.0925q-2.6489 0.93384-5.8899 1.5381l-0.45166-1.2207q0.56152-0.08545 1.5869-0.27466v-2.2339q-1.0559 0.53711-2.5146 1.0193l-0.6958-1.0864q2.9358-0.79346 4.48-2.0264h-4.3579v-1.062h5.2307v-0.92163h-3.9551v-1.0254h3.9551v-0.8606h-4.5776v-1.0498h4.5776v-1.2024h1.3367v1.2024h4.7119v1.0498h-4.7119v0.8606h4.0894v1.0254h-4.0894v0.92163h5.365v1.062h-1.4587l0.90332 0.62256q-0.83618 0.81177-2.3438 1.7761l-0.14038 0.09155q1.1475 1.0498 3.1128 1.7334l-0.82397 1.239q-2.1301-0.90332-3.4241-2.2705zm-1.8494-3.1738q-0.61035 0.71411-1.471 1.2817v2.7405q1.5076-0.33569 3.0274-0.78125l0.28076-0.07935q-1.2512-1.3855-1.8372-3.1616zm2.2278 1.6663q1.0864-0.77515 1.9043-1.6846h-2.887q0.39062 0.93384 0.98266 1.6846z"></path>
  <path d="m132.76 22.093h4.9011q-0.39673-1.0437-0.72632-2.0752l1.3367-0.08545q0.31738 1.0864 0.76294 2.1606h4.5105v1.2512h-3.9368q0.78735 1.6296 1.9714 3.3997l-1.2817 0.61035q-1.3062-1.9775-2.1423-4.01h-5.3955zm8.8745 9.0027q-1.2146 0.06714-2.1484 0.06714-2.5391 0-3.7414-0.39673-2.1729-0.70801-2.1729-2.6733 0-1.2085 0.75074-1.947l1.1475 0.62256q-0.50049 0.49438-0.50049 1.2939 0 1.0193 1.0986 1.4282 0.97046 0.36011 3.2471 0.36011 0.96436 0 2.1728-0.09155z"></path>
  <path d="m147.39 19.957h1.3489v3.4485q1.4526-1.5076 2.3254-2.0691 0.81176-0.5249 1.6846-0.5249 0.8789 0 1.416 0.49438 0.70801 0.65918 0.70801 1.7273 0 0.28076-0.0732 0.74463-0.53711 3.4119-0.53711 4.7241 0 0.56152 0.28686 0.56152 0.18311 0 0.48218-0.20752 0.62866-0.43335 1.2695-1.4221l0.50049 1.3977q-0.39062 0.62256-0.97046 1.1047-0.67138 0.56152-1.4343 0.56152-0.72632 0-1.1292-0.50659-0.3418-0.43335-0.3418-1.4465 0-0.76904 0.20141-2.3132 0.25635-1.9409 0.3418-2.8809 0.0122-0.15259 0.0122-0.25635 0-0.53711-0.22583-0.82397-0.21362-0.27466-0.59204-0.27466-1.2756 0-3.9246 3.3997v5.7617h-1.3489v-4.2236q-1.0193 1.4282-1.8799 2.6978l-0.63477-1.4465q1.4465-1.7517 2.5146-3.3386v-1.5503h-2.1423v-1.2268h2.1423z"></path>
  <path d="m157.74 21.166q5.6152-0.08545 10.614-0.28686l0.0732 1.2146q-2.2034 0.10986-3.4302 0.67139-1.1719 0.53711-1.8799 1.4893-0.80566 1.0803-0.80566 2.4048 0 1.3184 0.91552 1.9775 1.0498 0.75073 3.2227 1.0315l-0.28687 1.3733q-2.832-0.37842-3.9856-1.4648-1.239-1.1597-1.239-2.8809 0-1.5625 1.123-2.9175 0.81787-0.99487 2.24-1.5991-2.5208 0.08545-6.5002 0.28686z"></path>
  <path d="m175.7 27.654q-1.1292 3.3203-2.533 3.3203-1.001 0-1.7151-1.4038-0.54931-1.0864-0.75683-2.3926-0.25025-1.5869-0.25025-4.0771 0-1.0803 0.0794-2.3193l1.4343 0.10986q-0.0793 1.239-0.0793 2.356 0 3.9185 0.73242 5.4626 0.29907 0.63476 0.56152 0.63476 0.1709 0 0.42725-0.39062 0.5249-0.79346 1.0132-2.1851zm3.8635 1.4526q-0.31128-2.5757-0.76294-4.1626-0.54931-1.9226-1.2756-3.5217l1.3-0.31738q1.0071 1.9958 1.4954 3.8452 0.40283 1.5015 0.66528 3.8208z"></path>
  <path d="m187.59 19.969h1.3489v1.5381h3.8391v1.1597h-3.8391v1.4526h3.6255v1.1475h-3.6255v1.886q2.1729 0.73242 4.2847 2.2034l-0.72021 1.1597q-1.5991-1.1963-3.5645-2.1118-0.0488 1.0437-0.40283 1.6174-0.61645 0.99487-2.4292 0.99487-1.3977 0-2.2461-0.5249-0.94605-0.58594-0.94605-1.5869 0-1.1963 1.2756-1.77 0.85449-0.37842 2.2217-0.37842 0.53711 0 1.178 0.08545v-1.5747h-4.3274v-1.1475h4.3274v-1.4526h-4.5898v-1.1597h4.5898zm0 8.0078q-0.72632-0.15259-1.3916-0.15259-0.81177 0-1.3184 0.23804-0.60425 0.28686-0.60425 0.81787 0 0.44556 0.46997 0.72022 0.47607 0.28076 1.2695 0.28076 0.93994 0 1.294-0.50049 0.28076-0.39062 0.28076-1.1658z"></path>
  <path d="m200.56 19.933h1.3733v1.6846h3.6011v1.178h-3.6011v2.6123q0.21362 0.75073 0.21362 1.3367 0 2.1729-0.95825 3.1921-1.0437 1.1169-3.1433 1.5442l-0.6958-1.0376q1.6296-0.31128 2.417-0.87891 0.73853-0.53711 0.99487-1.4587-0.65307 0.71411-1.5564 0.71411-1.0132 0-1.6418-0.57373-0.73852-0.67749-0.73852-1.9653 0-0.67749 0.32348-1.3062 0.21363-0.40283 0.5249-0.67139 0.72022-0.61035 1.7273-0.61035 0.64087 0 1.1597 0.30518v-1.2024h-6.0242v-1.178h6.0242zm0.0488 6.3354v-0.22583q0-0.39062-0.18311-0.6897-0.3418-0.56152-0.98877-0.56152-0.32959 0-0.61645 0.1831-0.67139 0.42114-0.67139 1.2939 0 0.54932 0.24414 0.92774 0.3418 0.5249 1.0071 0.5249 0.60425 0 0.95825-0.54321 0.25025-0.38452 0.25025-0.90942z"></path>
 </g>
</svg>
