<svg version="1.1" xmlns="http://www.w3.org/2000/svg" xmlns:xlink="http://www.w3.org/1999/xlink" width="64" height="64" viewBox="0,0,64,64"><g transform="translate(-208,-148)"><g data-paper-data="{&quot;isPaintingLayer&quot;:true}" fill-rule="nonzero" stroke="none" stroke-width="1" stroke-linecap="butt" stroke-linejoin="miter" stroke-miterlimit="10" stroke-dasharray="" stroke-dashoffset="0" style="mix-blend-mode: normal"><path d="M208,212v-64h64v64z" fill="none" opacity="0.988"/><path d="M230.64555,165.60716c0.0067,0 0.01283,0.00199 0.01953,0.002c0.00731,-0.0001 0.01419,-0.002 0.02149,-0.002v0.002c1.3965,0.00628 2.6509,0.32338 3.7598,0.95703c1.12,0.6133 2.0006,1.4672 2.6406,2.5605c0.65979,1.0556 0.99125,2.2566 0.99805,3.5996h0.002c0,0.00879 -0.00198,0.01659 -0.002,0.02539c0.0001,0.00538 0.002,0.01023 0.002,0.01563h-0.002c-0.0043,1.635 -0.25744,3.0359 -0.75976,4.1992c-0.5067,1.1467 -1.159,2.161 -1.959,3.041c-0.7733,0.88 -1.61283,1.70517 -2.5195,2.4785c-0.88,0.7466 -1.7215,1.53463 -2.5215,2.3613c-0.7733,0.8266 -1.41323,1.7731 -1.9199,2.8398c-0.50667,1.04 -0.77216,2.3055 -0.79883,3.7988h10.439v3.2402h-13.959v-3.2402c0.02666,-1.7867 0.27976,-3.3196 0.75976,-4.5996c0.5066,-1.3067 1.14657,-2.42607 1.9199,-3.3594c0.8,-0.96 1.6395,-1.82627 2.5195,-2.5996c0.88,-0.8 1.70717,-1.58797 2.4805,-2.3613c0.7733,-0.8 1.41323,-1.65193 1.9199,-2.5586c0.50313,-0.9269 0.75431,-2.0135 0.75781,-3.2559c-0.0033,-1.1658 -0.36146,-2.12202 -1.0781,-2.8652c-0.7155,-0.74203 -1.617,-1.1126 -2.7012,-1.1172c-0.9508,0.00429 -1.78555,0.28221 -2.5,0.83789c-0.72,0.56 -1.14597,1.4387 -1.2793,2.6387l-3.3594,-0.67969c0.16,-1.1734 0.5592,-2.2001 1.1992,-3.0801c0.6666,-0.9066 1.5205,-1.61243 2.5605,-2.1191c1.0282,-0.50091 2.1488,-0.75211 3.3594,-0.75781v-0.002z" fill="#ff0000"/><path d="M249.16799,165.92785c0.00672,0 0.01283,0.00198 0.01953,0.002c0.0067,-0.0001 0.01283,-0.002 0.01953,-0.002v0.002c1.3969,0.0065 2.6377,0.35034 3.7207,1.0371c1.12,0.6667 2.0006,1.5865 2.6406,2.7598c0.66667,1.1733 1,2.5067 1,4v2.7207c0,0.05468 -0.00887,0.10585 -0.0098,0.16016h0.0098c0,2.16 -0.22636,4.1724 -0.67969,6.0391c-0.4267,1.8667 -1.01313,3.6012 -1.7598,5.2012c-0.7467,1.5733 -1.58817,2.9993 -2.5215,4.2793c-0.9066,1.2533 -1.85313,2.34597 -2.8398,3.2793l-2.7188,-1.959c0.88,-0.96 1.7319,-1.9476 2.5586,-2.9609c0.8267,-1.0133 1.5612,-2.1451 2.2012,-3.3984c0.50379,-1.0075 0.92126,-2.1451 1.2598,-3.4004c-0.8663,0.36755 -1.8208,0.55194 -2.8613,0.55664v0.002c-0.00671,0 -0.01283,-0.00198 -0.01953,-0.002c-0.00671,0.0001 -0.01283,0.002 -0.01953,0.002v-0.002c-1.3972,-0.00625 -2.6504,-0.33769 -3.7598,-0.99805c-1.0933,-0.6933 -1.97393,-1.6255 -2.6406,-2.7988c-0.64,-1.2 -0.95898,-2.5333 -0.95898,-4v-2.7207c0,-1.4933 0.31898,-2.8267 0.95898,-4c0.6666,-1.1734 1.5473,-2.09313 2.6406,-2.7598c1.1094,-0.68676 2.3626,-1.0306 3.7598,-1.0371v-0.002zM246.44733,170.2874c-0.66667,0.8 -1,1.9462 -1,3.4395v2.7207c0,1.4667 0.33333,2.61283 1,3.4395c0.6627,0.79528 1.5767,1.1945 2.7402,1.1992c1.1898,-0.0046 2.10389,-0.40381 2.7402,-1.1992c0.66667,-0.8267 1,-1.9728 1,-3.4395v-2.7207c0,-1.4934 -0.33333,-2.6395 -1,-3.4395c-0.6363,-0.79542 -1.5503,-1.1927 -2.7402,-1.1973c-1.1634,0.0047 -2.07745,0.402 -2.7402,1.1973z" fill="#ff0000"/></g></g></svg>