<svg xmlns="http://www.w3.org/2000/svg" viewBox="0 0 900 900" version="1.2" height="900" width="900"><desc>Generated with Qt</desc><g stroke-width=".75" stroke-opacity=".74902" stroke-linejoin="round" stroke="#dce3ff" fill-rule="evenodd" fill="#2c3329"><path d="m505.9 892.2644 1.293 1.19133 2.25 1.37324 1.961 0.38878 1.299 0.96247 0.218 1.21132 2.638 0.81455 2.444-0.046 0.482-1.01944 1.29099 0.47474 1.318 1.39522 0.716-5e-3 1.816 0.96146-0.859 0.27085 0.105 1.20833-25.31099-0.1079 2.15-2.1668 0.247-2.53259-0.294-1.28528 3.096-1.28129 2.494-0.45375 0.646-1.35424"></path><path d="m443.283 900.9676-0.357-1.39222 1.071-0.09 0.123 1.00144z"></path></g><g stroke-opacity=".749" stroke-linejoin="round" stroke="#dce3ff" fill-rule="evenodd" fill="#2c3329"><g stroke-width=".75"><path d="m903 663.2-3.236 0.02-1.342-0.9984-1.269 0.3968-0.992-1.179-2.576-0.6856-0.644-1.345-1.952-0.9804 1.586-1.336 1.147-6.427 0.537-6.964-0.271-1.572 0.728-2.359-0.655-1.375-3.126-1.985-1.57-2.304 0.631-1.701-2.061-1.72-0.484-1.774-1.283-0.8325-1.578 0.4637-1.357-1.074-5.447-1.894-0.115-2.046-1.629-0.9575 1.099-1.91 2.948-0.7806 1.8 0.3788 0.494-1.207 2.191 0.104 2.203 2.192 1.62-1.12 3.663 0.3308-0.153-4.356-1.371-2.418 0.364-1.232 2.103-0.1699 1.595 2.434 4.264 0.8945 2.381-1.412"></path><path d="m626.9 887.9 1.279-0.9085 0.734-1.343 0.111-2.01 1.008-2.167-1.832-2.282-0.478-2.093-0.157-2.149 1.556-2.186 1.133-1.989 2.135 0.8225 2.614 0.6186 5.317 4.35 0.648-0.1109 0.754 2.118-0.162 0.7546-1.526 1.677-1.824 3.235-1.773 3.499-1.259 0.9185-1.923-0.8715-0.938 0.5127-1.675-0.2898-1.341 0.9715-2.401-1.078"></path><path d="m595.9 826.5-0.978-0.074-0.768-0.9844 0.787-0.7466 0.959 1.805"></path></g><g stroke-width=".7502" font-weight="400" font-size="37.5px" font-family="'MS UI Gothic'" transform="scale(1 .9994)"><path d="m626.9 888.4-2.013-1.322-1.909 0.802-1.623 0.167-1.325-0.62-0.638 0.939 0.955 1.358-0.469 1.142-2.311-0.541-1.117-0.44-2.347-3.95-0.545-2.629-1.408-0.03-1.323-1.566-1.189-2.449 1.151-2.506-0.406-0.897 0.991-0.804 2.026-0.182 0.338-2.304 0.42-0.362 0.189-1.312 0.846-0.972 1.485 0.16 3.302 0.85 0.774-0.831 5.354-0.047 3.684 0.718 0.252 0.486-0.923 1.996-1.556 2.187 0.157 2.15 0.478 2.094 1.832 2.283-1.008 2.168-0.111 2.011-0.734 1.344-1.279 0.909"></path><path d="m617.6 890.3-1.623 0.34-1.49-0.739-1.625 0.606-0.659 0.957-2.149 0.293-0.181 0.668-1.524-0.383-0.908 0.773-0.027 0.858-1.894 0.248-1.722-0.801-2.612-2.714 0.115-1.718-0.808-0.479-0.484-1.674 0.203-1.865 0.655-1.587-0.046-1.131 1.542-1.617-1.046-1.358 0.258-0.894-2.004-1.135 0.522-2.401-1.151-0.91-1.215 0.464-1.417-0.138-3.199-3.532 1.29-1.415-0.416-2.058 3.919-1.744 0.643-0.822-1.753-0.582-0.438-1.536 1.137-1.49 0.642-0.014 1.777-1.195 1.019-1.149-1.027-1.366 4.279 2.523 3.505 3.766-0.104 1.519 0.433 0.642 1.653 0.311 4.502 3.706 0.029 2.243-0.43 0.773-0.338 2.304-2.026 0.182-0.991 0.804 0.406 0.897-1.151 2.506 1.189 2.449 1.323 1.566 1.408 0.03 0.545 2.629 2.347 3.95 1.117 0.44"></path><path d="m834.1 756 22.48 6e-3v2.119l8e-3 7.118-5.089 0.101h-11.58v13.76l-1.692 0.941-1.328 0.281-1.979 1.375-0.751 1.44 0.36 1.393 0.391 6.263-9.935 2e-3 -9.783 1e-3 -0.49 3.032-0.217-0.378 0.666-5.064 1.301-2.666 0.925-0.213 0.823-1.451 0.338-1.717 3.347-6.14 2.242-2.566 1.32-1.052 0.629-4.203 1.312-2.646 0.547-1.872 3.951-2.396 2.209-5.472"></path><path d="m481.5 845 0.048-7e-3 0.107 0.013 0.996 2.243 1.312 1.856 2.157 2.377 0.994 0.431-1.277-0.135-0.576 0.839 0.024 1.913 0.951 0.433-0.875 1.178 0.372 0.564-0.469 1.927 0.23 1.08-1.266-1.69-2.124-0.383-0.821-0.904 0.761-1.07-0.211-1.012-1.441-1.314-1.773-0.947-1.245-0.191-0.565-1.339-2.276-1.975-0.274 0.879 1.4 0.895-1.406 1.067-0.933-1.086-1.531-0.4-1.115-2.242 1.149-1.395-0.546-1.62 0.196-0.72 0.353-0.588 3.499 1.296 1.275-0.655 3.715 1.794 1.185-1.112"></path><path d="m471.5 844.2-1.131-1.172-2.842-2.289-1.506-2.347-1.369-0.871-2.876-2.478 1.663-0.56 1.828-0.453 0.188-0.872 1.045-0.383-0.322-2.217 1.781-0.02 1.566-1.519 1.363 1.012 1.962-1.47 2.011-2.354 0.138-0.784 1.159-0.334 1.438 0.96 3.066-0.815 2.395-1.313 1.3 0.176-0.844 1.168 0.537 1.985-1.197 2.219-0.695 3.445 0.313 1.973-0.408 1.387-0.89 0.438 0.517 1.488-0.247 1.057 0.301 2.237-1.075 1.207 0.154 1.185 0.704 1.049-1.185 1.112-3.715-1.794-1.275 0.655-3.499-1.296-0.353 0.588"></path><path d="m550.3 901.5-0.647-0.902 0.098-3.566 2.175-0.312 2.409 2e-3 -0.335-1.468-0.832-0.596-2.407 0.018 0.017-3.049 1.343-0.507 1.139 0.251 5.945-6e-3 1.865-0.456 0.987-1.212 1.262-0.177 1.117 1.903 0.095 2.283 1.116 0.154 2.644 2.316 0.949 0.132 2.055-1.206 0.812-0.018 0.659 1.438 1.572-2.184 2.03-0.603 1.609-1.3 0.537 0.304 1.104-1.004 0.429-1.554 1.162-0.138 1.754-0.819 0.135-1.357-3.316-0.254 0.251-1.175-1.126-2.093 0.1-2.357-2.299-2.016 1.489-0.777 1.2 0.318 0.306 0.887 3.192-0.285 0.697 0.239 1.445 1.611 1.237-0.306-0.083-1.806 1.91-0.766 0.958 0.395 3.252-0.844 1.225-1.307 1.426 0.027 0.543-0.909 1.454-1.009-0.636-1.514 1.417 0.138 1.215-0.464 1.151 0.91-0.522 2.401 2.004 1.135-0.258 0.894 1.046 1.358-1.542 1.617 0.046 1.131-0.655 1.587-0.203 1.865 0.484 1.674 0.808 0.479-0.115 1.718 2.612 2.714 1.722 0.801 1.894-0.248 0.027-0.858 0.908-0.773 1.524 0.383 0.181-0.668 2.149-0.293 0.659-0.957 1.625-0.606 1.49 0.739 1.623-0.34 2.311 0.541 0.469-1.142-0.955-1.358 0.638-0.939 1.325 0.62 1.623-0.167 1.909-0.802 2.013 1.322 2.401 1.079 1.341-0.972 1.675 0.29 0.938-0.513 1.923 0.872 1.259-0.919 1.773-3.501 1.824-3.237 1.526-1.678 0.834-2.014 1.46 1.384 0.722 1.418-0.064 2.535 0.741 2.774 1.16 2.93 1.23 2.108 1.417-0.017 1.365 0.774 0.186 1.522-0.529 1.439-1.668 1.275-2.391 3.238-2.055 1.093-1.218 2.112"></path><path d="m647.1 901 1.076-0.433 3.574 0.678 2.19-0.5 3.941 0.594"></path><path d="m649.8 898.5 1.933-0.433-0.898 1.876-2.339-4e-3 -0.346-1.013 1.65-0.426"></path><path d="m645.1 901.5 0.133-1.396 0.906-0.292 0.693 0.661-1.732 1.027"></path></g><path stroke-width=".75" d="m0 417.1 5.776 3.188 0.7244 2.87 3.291 1.574 2.167 3.123 4.452 2.285 2.088 4.008 2.382-1.171 2.688 1.924 0.6346 4.305 3.62 10.28 3.013 0.3168-0.9654-5.755 2.396-1.659 4.406 2.629 3.853-1.092 2.659 3.757 3.99 4.029 4.322 2.789-4.157 3.389-0.6747 3.077-7.476 2.157 0.3469 4.418-3.039 2.04-0.575 3.114 2.141 2.374-3.593 1.919-4.415-1.977-0.4156-1.586-2.899-2.056-4.023-0.8425-1.59-1.673-0.6702-5.517-5.339-2.473-2.197 2.019-4.34-0.044-0.6355-2.867-2.307-2.586-0.5497-3.259-3.929 0.6916 0.225 3.941 2.231 1.837-1.93 5.867-1.685 0.8905"></path><path stroke-width=".75" d="m0 379.3 4.627-1.001 3.399 0.9375 4.757 4.755-2.435 3.023-7.058 2.045-3.289-1.285"></path><g stroke-width=".7502" font-weight="400" font-size="37.5px" font-family="'MS UI Gothic'" transform="scale(1 .9994)"><path d="m891 658.8 1.952 0.981 0.644 1.346 2.576 0.686 0.992 1.18 1.269-0.397 1.342 0.999 3.236-0.02 1.911 11.07-5.924 8.692-0.645 1.293 0.567 2.827 2.22 2.062-1.621 1.424-1.196 0.418-1.4 1.86-0.226 1.199-1.353 2.742-1.993-0.038-1.735 1.251-1.139 2.593-0.863 1.092-2.528-0.225-4.192 0.723-0.93-0.294-4.16 0.199-1.448 1.356-2.319 0.508-0.761 1.675h-0.098l-1.267 0.833-2.125-1.132-2.314-4.795-2.649-1.541-1.925 0.079-0.576-2.355 1.305-2.416 1.223-0.466-1.676-2.697 0.444-1.863 1.486-1.775-0.971-0.641-0.731-2.222-1.218-1.442 2.607-0.062 0.78-2.083-0.817-1.126 0.93-1.71 0.196-4.039 3.06-3.436-1.746-0.7-0.508-1.731-2.443-0.366-0.53 0.832-2.353-0.239-1.633 0.556-0.869-2.268-2.642 1.243-0.361-4.058-1.239-0.18-0.734-3.816 1.882-1.26 1.676 0.051 2.233-2.606 3.462 0.203 0.685 0.77 5.036-0.188 3.993 0.24 3.446 0.992 2.732 0.081 3.171-0.768 2.21 1.121 1.783-0.662 1.942 0.926 2.867-0.484"></path><path d="m817.9 753.2-1.244 0.864-1.198-2.03 2.044-0.393 0.398 1.559"></path><path d="m823 753.9 0.069 1.007-1.001 0.666-1.04-0.621 0.399-1.83 1.573 0.778"></path><path d="m830.1 749.9 0.685 0.117-0.061 1.81-1.493-0.147 0.869-1.78"></path><path d="m873 707.3 0.29 0.476 0.457 1.618 2.395 2.108 1.972 0.545 3.512-0.832 1.303 0.55 2.326-0.807 0.174 0.324 0.039 0.633 3.413 0.515 2.174 2.028-0.417 0.973 0.982 2.972-0.22 1.254 0.53 2.263-0.307 1.698 0.873 1.061 0.381 1.893 1.879 1.338-0.852 0.737-0.158 1.838-6.333-0.298-2.113 0.493 0.555 1.497-4.159 0.862-0.069 1.517-0.708 0.987 1.302 1.545-0.455 1.425-3.634 1.177-1.258 1.297-1.258 0.606-1.992 1.696-1.328 2.092-1.083-0.523-4.717 0.563-2.237 0.04-1.013 0.722-1.349-0.034-3.82 2.769-1.495 1.368v5.697l-16.51-4e-3 -5.973-2e-3 1.051-1.425 4.533-0.987 2.879-1.343 2.19-2.482 2.369-1.306 2.16-2.51 2.433-4.023 0.218-1.606-1.376-1.639 0.333-0.614-0.137-3.563 0.901-1.929 1.506-1.738 0.481-1.188 0.05-2.069 3.154-3.278 1.93-1.656 3.731-1.472 3.375-2.346 2.649-5.101 1.825-5.516 2.642-0.886"></path><path d="m863.8 568.7-1.523 2.737-1.774 0.808-1.247 1.916 1.595 2.012 2.633 0.766 1.306-2.541 2.044 2.086 1.853 0.598 0.235 3.832 0.652 0.581 0.479 5.119-1.062 3.462-1.195 1.558 0.391 1.437-5.328 0.443-0.773 1.094-4.746 2.773-2.843 0.797-3.313-0.345-2.321-2.089-0.206-3.392 2.193 0.113-0.056-1.425 1.357-1.166 1.524-4.772-3.768-1.996 0.936-4.88-0.748-2.128 1.013-1.07 2.881 0.605 3.617-0.181 1.826-3.079-2.381 0.235 1.67-4.71 2.244-0.357 2.408-1.501 1.965 1.175-1.538 1.485"></path><path d="m886.7 597.7-4.369 1.758-2.177-1.321-1.489 0.066-1.865-1.429-1.478 1.093-1.74-2.588 3.876-1.777 1.583-1.172 0.72-2.157-0.383-2.863-1.142-1.155 1.033-1.664 2.946-0.554 2.521-1.176 0.532-2.301-0.329-1.897-3.083-4.968 1.231-3.206-2.881 0.968-4.475-0.819-1.558-1.24 2.765-4.271-1.827-3.33-2.99 1.009-0.576-1.409 0.869-2.236-0.724-3.001-1.68-1.091 1.339-2.512 0.681-3.544-1.042-0.701 2e-3 -4.563 2.574-1.286-0.091-2.488 1.613-3.676 3.029 0.994 5.892-1.31-0.083 3.401-4.048 3.337 0.964 3.378 1.728-1.123 5.295 0.421 1.623-0.345 1.744 2.159-1.104 1.432-1.198 4.111-3.723 6.048 4.088 2.583 2.58 2.951 0.304 2.634 1.473 4.69 3.562 2.341 3.482 7.111 0.982 4.66-1.538 1.445 1.785 1.008-0.541 16.51-2.221-0.645-3.198 0.745-2.522-0.518-3.16 0.687-0.173 0.921-4.405-1.082-3.012 1.168-0.892 2.821-2.853-1.485-2.68 0.669-2.291 2.837-1.138-1.773 3.228-3.144 3.2-4.888 1.916-0.288 3.558 0.316 1.961-3.28"></path><path d="m863.8 568.7 3.856-1.569 2.07 1.527 2.627 3.621 0.516 1.648-0.896 1.808-3.286 1.347-1.853-0.598-2.044-2.086-1.306 2.541-2.633-0.766-1.595-2.012 1.247-1.916 1.774-0.808 1.523-2.737"></path><path d="m865.2 544.6-0.856-3.58 3.904-3.227-0.034 4.034-3.014 2.773"></path><path d="m867.2 548.3-0.711-1.527 2.763-0.732 0.651 3.654-1.474 0.32-1.229-1.715"></path><path d="m894.5 518.5-0.828 3.039-2.036-1.252 2.864-1.787"></path><path d="m848.6 857.4-0.414 1.7-1.263 0.694 0.012 1.22-3.79 3.178-0.515 1.105-1.817-1.156-3.335-1.214-0.124-1.499-1.722-0.715-0.515-2.087-0.828-0.956-0.783-3.087 1.361-0.276 0.354-0.894 1.282-0.749 0.966-2.232 1.835-0.074 1.157-0.597 3.187-0.018 1.313 1.286 0.776 1.458 0.898 0.754 0.375 2.468 0.592 0.741-0.785 0.772 0.598 0.935 1.185-0.757"></path><path d="m833.5 854.6-0.106-1.54-1.196-0.829-0.315-1.071-2.644-1.702-1.549-1.394-1.431-2.473-1.359-0.77 1.671-2.77 2.04-0.788 1.318 0.143 1.426-0.371 9e-3 -4.929 3.259 0.192 1.516 1.029 2.061 0.662 1.409-0.524 3.454 0.021-0.597 1.087 1.583 0.906 1.407-0.95 0.992 1.584 2.222-1.674 2.72 0.984 0.474-0.741 1.599-0.894 1.573-0.218 0.338 1.654 0.646 0.772-0.251 1.304 1.598 1.197 0.109 1.889 0.973 0.265 0.078 2.358 1.399 1.007 0.131 0.902-0.921 1.117 0.061 1.858 0.372 0.813 1.109 0.027-0.468 3.18 1.337 0.89-0.397 1.11-0.998-0.558-1.148 0.026-0.329 1.242 1.221 0.648-1.036 2.894-1.282-0.069-1.221 0.249-0.979 1.311-0.971 0.054-1.593-0.926 0.423-1.013-0.344-1.985-1.306-2.381-2.993 0.012-1.185 0.757-0.598-0.935 0.785-0.772-0.592-0.741-0.375-2.468-0.898-0.754-0.776-1.458-1.313-1.286-3.187 0.018-1.157 0.597-1.835 0.074-0.966 2.232-1.282 0.749-0.354 0.894-1.361 0.276"></path><path d="m842.6 865.3 0.515-1.105 3.79-3.178-0.012-1.22 1.263-0.694 0.414-1.7 2.993-0.012 1.306 2.381 0.344 1.985-0.423 1.013 1.593 0.926 0.971-0.054 0.979-1.311 1.221-0.249 1.006 2.723-0.338 1.322-1.072 1.029 0.887 0.985 2.27 0.421 0.676 1.493 1.765 0.646 0.265 1.618-1.06 3.146 0.325 2.732-3.584-1.139-5.107-2.839-1.093-1.224-4.491-3.958-1.964-0.583-0.18-0.729-2.644-1.325-0.615-1.1"></path><path d="m860.1 848.9 1.405-1.222 1.212-0.138 0.596 0.923 1.938 0.317 1.295-0.793 0.895-1.132 1.568-0.373 0.135 2.144 0.824 0.132 1.049-1.136 1.418-0.061 0.6 0.635 1.454 0.111 0.729 1.918 3.217 1.482 0.261-0.685 3.044-1.041 2.623 0.606 1.867 2.22 0.372-0.491 0.147 1.094-0.575 1.103 0.777 0.665 0.565 3.612-1.668 1.965-0.508 1.226-0.522 2.551-0.895 1.117-0.188 1.169 1.465 5.008 0.939 0.213 0.246 1.121-0.555 1.038-2.343 0.146-2.643-0.408-1.423-0.533-3.296 0.821-3.701 0.221-1.633 0.351-5.314 1.878-2.713 1.563-0.419-0.044-0.325-2.732 1.06-3.146-0.265-1.618-1.765-0.646-0.676-1.493-2.27-0.421-0.887-0.985 1.072-1.029 0.338-1.322-1.006-2.723 1.282 0.069 1.036-2.894-1.221-0.648 0.329-1.242 1.148-0.026 0.998 0.558 0.397-1.11-1.337-0.89 0.468-3.18-1.109-0.027-0.372-0.813-0.061-1.858 0.921-1.117"></path><path d="m838.7 825.3 1.451-0.026 0.685-0.585-0.043-1.481 0.593-1.878 1.587-0.316 2.472 2.588 0.894-1.657 2.138-0.065 2.366 0.333 2.432-0.646 13.38 5e-3 5.815-7e-3 0.789-4.243-1.351-1.125-0.665-6.348-1.036-9.921-1.279-11.77-0.777-7.184-1.092-10.1 8.858-5e-3 6.865 4.887 4.627 3.306 7.798 5.539 4.766 3.364 5.785 4.065-4.641 32.57-2.275-0.8-2.581-0.022-1.453 1.303-1.534 0.533-1.734 1.131-1.35 0.063-0.282 1.472-0.642 0.219-1.549-0.644-1.896 1.227-1.134 2.246-0.961-0.265 0.056 1.88-1.741 0.479-1.936-1.012-1.835 1.429 0.608 0.869-0.787 2.147-0.097 1.14-2.003 1.592-1.805 0.268-0.7 1.608 0.447 1.055-0.52 1.461-0.837 0.273 0.292 1.209-0.456 2.133-1.418 0.061-1.049 1.136-0.824-0.132-0.135-2.144-1.568 0.373-0.895 1.132-1.295 0.793-1.938-0.317-0.596-0.923-1.212 0.138-1.405 1.222-0.131-0.902-1.399-1.007-0.078-2.358-0.973-0.265-0.109-1.889-1.598-1.197 0.251-1.304-0.646-0.772-0.338-1.654-1.573 0.218-1.599 0.894-0.474 0.741-2.72-0.984-2.222 1.674-0.992-1.584-1.407 0.95-1.583-0.906 0.597-1.087-0.309-3.44-0.815-1.468-1.918-0.942-0.504-0.825 0.673-1.054-0.173-1.325-1.121-1.161 0.279-1.208-0.491-0.774"></path><path d="m838.7 825.3 0.491 0.774-0.279 1.208 1.121 1.161 0.173 1.325-0.673 1.054 0.504 0.825 1.918 0.942 0.815 1.468 0.309 3.44-3.454-0.021-1.409 0.524-2.061-0.662-1.516-1.029-3.259-0.192-7.335-0.031-2.409 1.23-2.779-0.07-2.478 0.617-0.352-0.504 0.226-3.251 0.4-0.509 4.201 0.038 0.054-0.835 4.038-0.906 4.067 1.367 1.753-0.545-0.582-1.233-1.813 0.613-1.278-1.05-0.715 0.212-0.936-0.891-2.391 0.108-0.621 0.969-5.216-0.019-0.744-0.961-0.462-1.722-1.878-2.815-0.964-0.76 1.162-0.66 1.302-1.581 1.679-2.988 0.382-1.899 0.693-1.566 3.276-0.035 0.906-0.434 2.8-0.412 2.939 0.036 2.659 2.681 1.632-0.171 0.856 1.211 0.38 1.552 1.367 0.594 0.538 1.489 1.926 1.16 1.037 1.154"></path><path d="m541.2 799.4 0.591 2.641-0.723 1.142 0.325 1.121-0.967 1.865 1.014 0.619-0.334 1.442-1.478-1.044-4.07 0.506-2.457-0.614-1.385 0.029-1.568 0.585-2.607-1.516 1.166-1.271 3.256 0.908 0.391-0.133 3.858 0.496 1.027-1.88-1.32-1.413 0.426-1.973-1.452-0.929-1.953-0.187 1.328-1.511 1.839-0.126 2.228 1.02 2.865 0.223"></path><path d="m541.2 799.4 0.544-0.992 2.183 0.317 1.056-0.534 3.497 1.488 2.017 0.115 0.15 1.118 1.325 1.04-0.027 0.717 4.343 0.683 1.918 1.626-0.441 1.25-1.493 1.132-0.533-0.897-1.934-0.399-1.444 0.222-1.792-0.33-1.372 1.204-1.974 0.202-0.755-1.19-1.787 1.517-1.78 2.822-1.795-2.281 0.334-1.442-1.014-0.619 0.967-1.865-0.325-1.121 0.723-1.142-0.591-2.641"></path><path d="m449.5 830.7-3e-3 -0.654 2.84-1.892 0.847-0.98 1.675 0.538 2.693 2.299 2.002-0.594 1.875 0.928-0.523 2.026-0.555 1.274-4.287-0.445-2.329-1.167-2.783-0.28-1.452-1.053"></path><path d="m453.2 827.2-0.847 0.98-2.84 1.892 3e-3 0.654-3.044-1.017-3.046-0.138-2.231-1.157-2.418-1.89 0.422-0.806-0.214-3.039 2.404-4.047 6.19-0.01 0.435-1.442-1.247-0.949-0.436-1.132-1.657-0.897-1.118-1.416 1.492-0.329 5e-3 -2.884 9.153-0.065 0.056 4.077-0.437 5.956h1.613l1.44 0.728 0.89-0.545 1.135 0.692-3.762 3.035-0.997 0.509 0.141 1.727-1.085 1.513"></path><path d="m875.9 770.9-6.592-4.401-5.785-3.79-6.927-4.567v-7.816l1.495-1.368 3.82-2.769 1.349 0.034 1.013-0.722 2.237-0.04 4.717-0.563 1.083 0.523 1.328-2.092 1.992-1.696 1.258-0.606 1.258-1.297 3.634-1.177 0.455-1.425-1.302-1.545 0.708-0.987 0.069-1.517 4.159-0.862-0.555-1.497 2.113-0.493 6.333 0.298 0.158-1.838 0.852-0.737-1.879-1.338-0.381-1.893-0.873-1.061 0.307-1.698-0.53-2.263 0.22-1.254-0.982-2.972 0.417-0.973-2.174-2.028 2.307-0.247 2.467-1.596 0.387-1.08 1.827-1.245 0.712 0.315 1.67-1.17 1.124 0.741 1.255-1.629 5.097 85.5-5.785-4.065-4.766-3.364-7.798-5.539-4.627-3.306-6.865-4.887"></path><path d="m524.5 798.5-0.21-0.396-0.116 5e-3 -0.363 0.376-5.077-0.482-1.381 0.248-6.064 0.47 1.679-1.822 1.098-0.516 0.342-1.161-1.007-1.05-3.754-0.014-2.146-1.8-0.343-1.799-1.016-1.378-2.414 0.472-5.103-1.803-0.836-0.831-2.774-0.071-1.028-0.854-3.134 0.128-1.472-1.313 2.176-0.172-0.97-1.171-3.777-2e-3 -2.265 1.177-1.647 1.496-2.55 0.078-0.338 1.188-1.561 0.36-0.62-1.711 0.191-0.816 1.849-1.764 3.259-1.168 0.809-0.59 3.16-0.279 2.712-0.796 3.805 0.318 0.437 0.489 2.813-0.204 1.713 0.965 1.275-0.189 1.622 1.084 1.792 1.808 2.8 0.122 3.584 1.64 0.85 1.132 1.152 0.516 0.785-0.438 4.27 3.056 1.33 0.053 1.354 1.034 1.475-0.243 1.217 0.661-1.028 1.429 3.928 0.244 1.966 1.148 1.689 2.226-2.728 0.165-1.41 0.745"></path><path d="m487.2 789.2-1.338 1.032-1.189-1.699 0.42-1.012 1.496 0.359 0.611 1.32"></path><path d="m453.2 827.2 1.085-1.513-0.141-1.727 0.997-0.509 3.762-3.035 2.494-1.026 1.063 0.646 0.823-0.268 2.331 0.448 2.041-0.208 3.837-0.896 1.073 0.556 2.443-0.616 3.527 0.92 2.6 2.726 1.833 0.1 1.388 1.396-1.3-0.176-2.395 1.313-3.066 0.815-1.438-0.96-1.159 0.334-0.138 0.784-2.011 2.354-1.962 1.47-1.363-1.012-1.566 1.519-1.781 0.02 0.322 2.217-1.045 0.383-0.188 0.872-1.828 0.453-1.542-2.267-0.974 0.084 0.523-2.026-1.875-0.928-2.002 0.594-2.693-2.299-1.675-0.538"></path><path d="m505.9 892.8-0.847-0.869 0.76-1.068 1.374 0.197-0.66-2.04 1.355-1.988 1.728 0.383 1.675-0.584 0.519-2.236 2.214-2.741 0.268-0.898-1.368-1.023 0.527-2.718-0.198-3.767-0.658-1.495 1.222-0.967-0.844-2.271 0.361-1.533-0.944-0.847-0.605-1.333-1.215-1.302 0.378-1.217 1.201-0.262 1.201-0.902 0.693-1.387-1.396-2.749 0.534-0.701 1.604 1.964 1.103 0.706 0.311-1.321-0.619-1.124 1.103-0.304 2.085-1.655 0.44-1.213 1.291-0.918 1.447-0.125-0.186-1.28 0.711-3.116 0.029-1.357 2.369-1.684 0.958-0.983 1.708 0.69 0.703 1.011 0.72-1.545 0.154-1.212 1.807 0.205 2.668-0.088 2.664-2.057 2.483-0.965 0.622-1.117 1.167-0.527 1.245-1.319 2.07 0.704 0.642 1.194-1.069 1.249-3.217 0.961-1.428 2.52-1.124 0.18-2.131 3.461-0.35 3.121-2.001 3.414 1.84-0.662 1.134 1.192 0.538 2.067 1.443 1.582 0.255 1.186-0.76 0.781 0.182 2.568 1.226 0.294 0.626 1.589 1.242 0.404 0.891-0.337 2.352 0.457 2.403-0.692 1.922 0.814 1.112-0.031 3.265 4.138 0.987 0.209 0.925-0.689 2.129 0.412 5.307-0.656 0.727 1.146-0.863 1.095-0.229 1.694-0.983 0.935 0.253 1.174-0.304 2.447 0.244 1.541 0.866 2.539 0.802 0.41 0.834 1.274-2.67 2.702 1.06 0.364 1.506 1.696 1.293 2.905 0.959 3.359-1.116-0.154-0.095-2.283-1.117-1.903-1.262 0.177-0.987 1.212-1.865 0.456-5.945 6e-3 -1.139-0.251-1.343 0.507-0.017 3.049 2.407-0.018 0.832 0.596 0.335 1.468-2.409-2e-3 -2.175 0.312-0.098 3.566 0.647 0.902-22.34 1.339-2.06-2.014-1.585-0.635-0.709 0.318-1.816-0.962-0.716 5e-3 -1.318-1.396-1.291-0.475-0.482 1.02-2.444 0.046-2.638-0.815-0.218-1.212-1.299-0.963-1.961-0.389-2.25-1.374-1.293-1.192"></path><path d="m862.9 699.4-1.861 1.067-4.201-0.617-1.261 0.463 0.406-2.779 0.117-4.415-0.657-2.075-1.473 0.638-0.261-1.617-1.195-0.27 0.693-4.251 1.313-1.369 1.111-3.553 1.065-5.719-1.126-4.951 0.648-1.558 2.642-1.243 0.869 2.268 1.633-0.556 2.353 0.239 0.53-0.832 2.443 0.366 0.508 1.731 1.746 0.7-3.06 3.436-0.196 4.039-0.93 1.71 0.817 1.126-0.78 2.083-2.607 0.062 1.218 1.442 0.731 2.222 0.971 0.641-1.486 1.775-0.444 1.863 1.676 2.697-1.223 0.466-1.305 2.416 0.576 2.355"></path><path d="m902.4 844.6-3.264-0.672-1.751 0.746-5.411-0.043-5.761 0.057-0.909 1.789 0.979 4.074 0.238 1.744-0.372 0.491-1.867-2.22-2.623-0.606-3.044 1.041-0.261 0.685-3.217-1.482-0.729-1.918-1.454-0.111-0.6-0.635 0.456-2.133-0.292-1.209 0.837-0.273 0.52-1.461-0.447-1.055 0.7-1.608 1.805-0.268 2.003-1.592 0.097-1.14 0.787-2.147-0.608-0.869 1.835-1.429 1.936 1.012 1.741-0.479-0.056-1.88 0.961 0.265 1.134-2.246 1.896-1.227 1.549 0.644 0.642-0.219 0.282-1.472 1.35-0.063 1.734-1.131 1.534-0.533 1.453-1.303 2.581 0.022 2.275 0.8"></path><path d="m899.2 844 0.912 0.369-0.522 2.185 2.274 1.673-0.223 22.86-3.468 1.439-2.14 1.396-1.251 0.081-2.598 0.903-2.606 1.413-1.33-0.915-3.815-0.862 0.021-0.083 1.359-0.207 0.555-1.038-0.246-1.121-0.939-0.213-1.465-5.008 0.188-1.169 0.895-1.117 0.522-2.551 0.508-1.226 1.668-1.965-0.565-3.612-0.777-0.665 0.575-1.103-0.147-1.094-0.238-1.744-0.979-4.074 0.909-1.789 5.761-0.057 5.411 0.043 1.751-0.746"></path><path d="m831.4 836.1-9e-3 4.929-1.426 0.371-1.318-0.143-2.04 0.788-1.671 2.77-1.943-1.132 0.068-1.747-0.945-1.629-1.923 0.424-1.811-1.208-0.701-0.929-1.282-0.748 2.478-0.617 2.779 0.07 2.409-1.23 7.335 0.031"></path></g><g stroke-width=".75"><path d="m286.2 617.9h45.56l6.594-1e-3h85.72l0.083-2.881 1.667 0.5877 1.172 4.316 3.59 0.6826 0.59 0.9045 2.495-0.8595 3.046 0.7106 1.728 1.697 1.298-0.1779 1.754 1.775 1.323 0.4588 2.524-1.427 0.684 0.9495 3.039-0.1199 0.991 0.7956 3.2 0.1929 3.488-2.039 1.478-0.3158 8.551 5.033 8.792 5.348 1.446 3.08 2.153 0.3028 1.057 2.694 1.668-0.3968 0.649 2.47 4.476 2.856 0.283 0.5567 1.893 12.2-1.287 3.422-0.501 2.757-3.087 2.754 0.301 2.64 1.786 1.122 1.432 0.023 5.741-3.574 5.15-1.058 6.136-2.967-0.172-3.129-0.603-1.403 2.432-1.153 9.232 0.043 1.935-3.178 5.922-5.46 2.786-0.9565 6.569-0.036 9.476-0.066 0.546-1.613 2.805-1.077 2.132-2.416 0.48-2.444 1.185-2.513 0.333-2.068 3.701-5.399 0.99 0.059 0.817 1.781 3.546-1.113 1.959 2.249 0.162 8.756 1.614 1.555-0.125 2.34 1.495 0.7356 0.993 2.566-1.235 1.205-3.376 1.557-1.851-0.4478-2.432 1.06-1.152-0.6057-0.661 2.652-0.723 0.7706-3.612 0.4657-1.267 1.126-2.881 5.697-0.23 2.199-0.885 1.618 1.273 0.3258 1.253 2.983-3.264 2.324-1.559 0.6826-3.951 0.5547-2.457 0.0849-4.276 1.746-3.24 3.363 1.551 1.113-0.976 4.099-0.956 0.9685-1.935 3.201-3.068-1.828-0.172 1.821 1.68 3.224-0.482 1.988-3.666 5.591-0.172-1.597 1.068-1.406-0.531-1.915-2.033-1.328-0.49-0.8285 0.868-1.221-0.148-4.188-1.247-0.048 0.129 1.994-0.765 1.533 0.198 1.586 1.32 3.971-0.653 3.98 0.548 1.949 1.4 0.3088 0.647 4.667 0.689 2.053-2.143 2.962-1.46-0.3488-1.079 4.165-2.717 0.4328-1.671 1.104-1.484 1.583-0.393 1.502-3.239 0.5357-1.895 1.364-1.325 2.69-4.011 3.46-2.021 0.7736-0.158 0.6806-2.233 1.753-1.543 2.07-0.838 1.77 0.47 0.8255-1.147 1.79v1.535l1.217 5.293 1.668 4.138 1.564 2.614-0.644 1.345 1.786 4.005 1.714 4.805-0.455 5.148-0.888 1.496-0.601 2.194-3.298 0.5547-1.175-3.66-2.396-1.756-0.276-1.952-2.289-2.239-1.735-3.77 0.115-1.019-1.023-0.7196 0.275-2.067 0.616-1.443 0.099-2.577-1.024-1.611-0.874 0.042-1.904-2.046-1.379-2.242-1.717-1.069-1.228 0.08-3.085 2.091-2.106 0.2109-0.244-1.125-1.571-1.351-3.47-1.491-3.96-0.5437-0.86 0.8965-2.288 0.4807-1.331-2.421-0.338 1.833-1.752 0.083-2.285-0.6846-3.904 1.545-2.57-1.229-0.913 0.9695 0.329 0.8905 2.501 0.4078 1.911 0.9575-1.058 1.769 3.226 2.146-0.825 0.6686-3.598-2.558-0.862 1.733-2.409-0.7216-0.72 1.037-2.613-0.6816 0.044-0.9505-1.573-0.7436-0.751-1.26-1.499-0.4537-1.46 1.715-2.033-0.4048-2.583-0.9695-4.303 0.5227-4.143 1.757-1.351 1.891-2.215 1.609-3.015 1.009-4.1 3.094-0.795 1.158-1.831 4.658 1.198 4.95 0.857 0.8755-1.431 0.6167-1.271-0.9994-2.715-0.2269-2.866-1.631-1.448-0.2199-0.814-2.345-1.068-1.288-0.227-2.906-0.966-0.4817-1.872-2.8-1.048-0.8066-0.563-1.683-1.137-1.893-0.223-1.093-2.473-2.208-1.229-1.52-4.464-0.7116-1.906 0.8385-0.998 2.298-1.325 2.052-0.768-0.0979-2.463-1.575-1.316-0.3518-2.367-1.888-0.748-1.581-6e-3 -1.447-1.634-2.805-1.777-1.008-3.205-3.19-0.798-0.2978-0.97-1.582-0.794-0.3308-8.49-0.023 2e-3 2.641-8.757 9.9e-4 -5.505-0.037-6.288-2.313-8.184-2.981-4.303-1.574 0.49-1.261-12 1.074-0.661-1.008-0.324-2.422-0.933-1.354-2.909-2.373-1.504-0.6306-0.763-1.222-1.964-0.026-3.402-2.281-4.277-0.1809-0.876-0.8206 0.015-3.372-1.264-0.6756 0.133-0.9525-1.991-1.59-1.104-1.96-2.028-2.053-0.254-1.104 0.783-1.958-0.737-1.075-1.082 8e-3 -1.254-1.362-0.58-2.119 1.87-0.2998-3.874-2.883-0.267-1.47-3.369-3.727-0.883-3.205 0.276-1.277-0.421-1.876-2.548-2.793-0.228-1.196 0.977-1.694 0.758-4.868-1.853-5.998 0.091-2.258-0.666-1.245 0.856-3.386 0.498-0.5587 0.63-3.178 1.151-12.54-0.302-0.6986 0.416-4.91-0.574-3.952-0.795-0.4258-1.255-5.167-1.077-1.235-0.482-1.962 0.799-1.502 2.623 1.45 6.291 0.7066 1.618 2.434-0.588 3.11 1.312-0.2668-0.449-1.991 0.465-2.235-0.599-4.793-1.564-3.123"></path><path d="m195 407.7 3e-3 16.32 4e-3 21.11 3e-3 16.27 2e-3 12.1 5e-3 21.31 3e-3 13.97 2e-3 10.46 4.927 1.346 1.937-1.478 2.634-0.1259-0.403 2.748 7.854 8.25 0.941 3.224 4.783-3.698 1.041-3.282 3.878-1.693 2.333 2.465-0.398 1.225 3.489 3.585 0.879 2.027 1.755 1.03 2.041 2.625 4.553 9.079 2.603 4.349-0.378 1.555 5.034 4.098 5.145 2.91 0.26 1.574-0.77 1.41 0.922 4.109-1.881 3.289-2.844 0.7196-0.617-3.261 0.922-1.257-0.083-3.296-1.377-2.004-1.246-0.6216-1.608 1.102-1.127 3.419-1.501-2.112 1.59-2.381-0.139-3.138-2.527-2.245-0.013-1.258-3.068-3.146-2.295-0.8745 0.803-1.419-0.907-3.546-4.626-6.021-2.774 0.4248-3.942-2.091-0.928 1.34-2.858 1.57-4.601-3.259-3.331-4.445-5.105-2.868-3.256-2.226 1.918-1.694-0.738-1.715-3.509 1.878-7.049-2.605-5.329-1.493-5.601 1.154-4.98-3.862-5.121-0.7576 1.235-2.04-4.098-1.655-1.521-2.193-2.745 1.447-4.709-0.045 1.823 4.617-2.301 4.544-4.696-0.3108-1.987 1.313-2.938 4.108-7.077 3.024-0.762-2.404 3.103-1.448-3.047-2.243 2.087-4.008 1.97-6.063 3.094-2.559 2.044 1.209 2.129-0.8006-5.078-3.148-2.606 2.428-2.961 1.521-0.468 1.699-2.497 2.8-1.99 5.708-1.586 1.97-2.59 0.6736-2.516 2.571-0.61 2.971 2.434 0.06 1.9 1.329-0.536 1.933-2.303 1.123-1.332 3.816-2.087 1.815-2.2-6e-3 -1.856 2.818-4.722 2.891-0.036 2.198-4.217 3.682-3.62 1.114-2.208 1.657 0.183 2.672-6.534 3.235-1.026-0.3568-3.236 3.174-4.008 1.23-1.708-2.277-1.679 4.286-2.299 0.2429-2.306 1.385-0.8174-1.398 4.071-5.267 2.004-1.618 3.51-0.7256 1.519 1.977 1.498-1.744 0.7601-3.061 3.115-2.733 4.004-2.401 3.163-4.34 3.014-2.357 1.035-8.444 2.204-2.518-0.113-1.548-5.346 2.627-3.201-1.947 0.119 2.862-1.406 0.8965-1.669-3.175-2.632-0.1929-2.204-2.854-5.026 3.332-1.8-0.2758-1.284-3.648 0.1376-2.506 1.163-1.116-3.305-6.714-0.7544 1.792-5.446 1.96-2.417-0.3268-0.5111-2.001-3.942-3.086-1.627-2.428 3.226-2.501-1.948-2.441-2.815-0.8335-0.0101-1.421-2.881-3.282 2.954-2.708-0.4824-2.822 2.863-4.294 1.599-1.133-0.3497-2.414 1.52-3.291 2.169-1.347 5.257 2.267 5.035-4.387 4.504-0.5957 1.973-2.71-1.217-8.718 1.159-1.578-3.095-1.532-3.293 0.6237-2.631 2.499-8.673-0.9685-3.468 1.646-5.771-1.589-1.003-3.67-1.797-1.932 2.197-2.979-5.442-1.065-3.412-2.294 3.675-3.736 7.28-4.219 5.859-3.936 3.658-0.7026 0.4795 5.547 1.05 1.099 8.824 0.4458 1.722-2.665-0.1796-2.441 4.112 0.9914 2.828-1.971-3.309-1.766-2.164 1.725-2.773-2.153 0.1656-4.439-3.002 0.8195-6.264-1.438-2.316-6.704-6.429-5.838-5.555-4.02 1.541-2.796 0.0161-4.276 9.452-0.7576 3.619-2.651 2.334-3.385 1.03-6.174 4.674-7.125 5.771-1.038 7.519-6.198 6.569-1.165 4.059-3.591 2.07-3.641 6.117 3.666 2.422-1.244 2.853 4.973 6.182-1.563 3.783 0.6286 0.448 5.02 2.383 1.604 13.18-0.9175 4.815 2.944 6.289 2.143 6.217-0.1089 4.693 2.888 8.53-2.054 4.823 3.829 6.327 2.961"></path><path d="m139.2 545.3-2.657 3.194-2.805 0.4298-3.547 4.482-2.83-2.226-0.032-1.683-1.375-1.588 0.976-1.671 3.451-2.654 3.664 0.049-0.053-1.324 3.58 0.3338 0.093 2.377 1.535 0.2808"></path><path d="m56.3 487.9-4.877 2.834-3.641-3.705-2.059-1.129-2.916 1.568-2.068-2.25 1.743-1.483 2.837 0.9175 3.198-1.394 3.739 3.729 4.044 0.9125"></path><path d="m240.1 570.5-3.013-1.068-0.146-1.437-3.022-1.4 0.75-3.034-1.611-0.7596 1.612-3.056 1.632 0.4987 1.949 3.143-0.273 1.117 2.035 2.188 0.087 3.809"></path><path d="m125.5 799.8-0.414 1.207-2.602 1.066-0.901 1.082-0.976-0.5077-0.037-1.614-0.873-2.106 1.181-1.535-0.216-1.293 2.674 1.151 1.226 0.9914 0.938 1.557"></path><path d="m220.8 547.5-2.734-4.587-0.052-2.342 2.958-1.332 4.444 2.338 0.555 4.966-1.215 0.2858-2.856-2.232 0.409 2.238-1.509 0.6656"></path><path d="m226.9 553.5-0.025 4.368-3.706-5.144 0.287-2.001-1.815-2.788 1.46-1.894 1.932 1.448 1.867 6.012"></path><path d="m84.63 571.7-2.743 0.6546-2.551-0.099-1.364 1.613-2.198 0.1069 1.49-3.967 4.879-1.517 0.993 2.299 1.496 0.9095"></path><path d="m540.4 674.1-3.431 1.743-3.141 0.5727-2.37 0.8675-1.006-1.356 2.115-1.037 4.397-0.2928 0.745 0.5267 2.691-1.023"></path><path d="m228.2 550.3-1.498-4.681-0.721-4.833 2.428 1.259 1.872 3.384 0.364 2.449-2.445 2.423"></path><path d="m72.09 522.9-3.309 1.425-4.729-2.193 3.653-3.614 3.874 0.8825 0.5117 3.499"></path><path d="m245.2 563.9-1.15 3.513-3.091-2.556 0.698-3.214 1.952-1.12 1.591 3.377"></path><path d="m230.4 550.4 4.661 1.355 0.232 2.678-1.07 1.627-2.557-0.019-0.186-3.343-1.08-2.298"></path><path d="m68.53 579.9-1.81 1.901-2.511 0.2119 1.061-2.009-1.084-1.198 2.047-1.346 2.298 2.441"></path><path d="m60.71 582.8-2.15 1.253-1.012 1.674-1.348-1.204 2.798-2.96 1.712 1.237"></path><path d="m140.2 538.7-4.195 3.233-2.123-1.676 0.94-1.298 5.378-0.2589"></path><path d="m230.6 555.8-2.365-1.692 0.909-2.241 1.873 1.325-0.417 2.608"></path><path d="m111.5 790.2-0.441 0.5217-1.497-0.2089-0.666-1.016 1.326-1.193 1.278 1.897"></path><path d="m237.3 557.5 2.281 1.779-1.056 1.708-1.89-2.809 0.665-0.6776"></path><path d="m120 793.2-8e-3 0.6117-2.022 0.5277-0.37-1.695 0.916-0.2589 1.484 0.8146"></path><path d="m103.5 785.9-0.681 1.521-1.612-0.5907 0.216-0.9655 1.584-0.4208 0.493 0.4557"></path><path d="m116.3 791.2-0.603 0.6296-2.017-0.1819 0.066-0.7206 2.554 0.2728"></path></g><g stroke-width=".7502" font-weight="400" font-size="37.5px" font-family="'MS UI Gothic'" transform="scale(1 .9994)"><path d="m286.2 618.2h-1.688l-0.607-1.049-0.183-3.592-1.53 1.6-2.046-1.009-1.036-2.007-1.164 0.106-1.642-1.45 0.635-2.171-2.282-0.741-1.647-1.332-1.561 0.466-2.695-0.495 0.317-2.779-1.549 0.289-1.85-1.002-0.816 0.961-2.036-0.961-1.74-1.782 0.564-1.846-1.047-2.213 0.12-1.995 2.83-2.583-2.585-0.152-2.212-2.48 0.587-1.599-1.761-0.955-0.345-2.224-1.643-1.422 0.499-2.093-0.43-2.319-1.834 1.67-0.533 1.982-3.849-4.643-0.037-1.808-1.73-1.62 0.429-2.718 0.854-0.556 1.218-4.751-0.863-4.086 0.555-1.528-0.26-1.575-5.145-2.912-5.034-4.1 0.378-1.556-2.603-4.351-4.553-9.084-2.041-2.626-1.755-1.031-0.879-2.028-3.489-3.587 0.398-1.226-2.333-2.466-3.878 1.694-1.041 3.284-4.783 3.7-0.941-3.226-7.854-8.255 0.403-2.75-2.634 0.126-1.937 1.479-4.927-1.347-2e-3 -10.47-3e-3 -13.98-5e-3 -21.32-2e-3 -12.1-3e-3 -16.28-4e-3 -21.12-3e-3 -16.33 5.438 0.425 3.871 1.542 2.535 3.269 7.228 4.709 5.618 0.87 1.149-5.939 7.139-4.962 3.89 3.685 2.181-0.211 1.543-3.534 3.741-0.386 5.981-5.683 3.092-0.902 3.623 2.185-7.43 5.188 9.561-2.876 4.316-2.286 1.911-8.56 3.959 4.686 2.173 7.101 3.816 5.067 4.532-4.776 0.223-4.34 3.019-1.389-0.615 5.889 2.175 1.014-1.833 4.232 4.468-0.105 1.836-1.692 1.133-4.931 7.616 1.039 5.746 5.147 8.061 2.581 3.128 2.819 9.163 2.689 0.239-2.124 5.863 1.622 3.934 4.071 0.721 3.643-3.901 0.562-3.484 4.4 8.375 3.153 7.189 0.182 10-3.522 9.108 4.273 3.033 4.471-1.112 3.285 2.782 4.069 2.061-4.798-1.403-1.649-0.294-3.751-2.019-2.522 0.24-2.127 2.564-2.509 4.672-2.729 3.984-3.295-0.908-2.06-3.47 2.994-5.782 2.882-3.04 0.701-2.387-1.605 2.671-4.728 4.941-1.097 5.476-3.363 3.639 3.08-0.332 3.726 2.204 2.446 2.466 0.461 0.591 2.704 5.589 0.206 3.017 2.705 6.166 1.779 4.062-2.201 6.467 0.7 2.541 1.09 2.772-1.318 3.853 2.746 2.646-1.017-2.898-4.362-2.654 1.78-1.387-2.602 1.283-3.187 4.66-2.186 4.311 4.024 0.909 5.214-1.244 3.037 1.95 4.21 1.701-1.952 2.397 1.48-1.632-8.355 3.605-1.75 2.6-2.866 3.053-4.998-1.897-2.026-2.631 0.042 2.504-5.243 3.504-3.161-4.439-1.367-6.64-4.751-1.629-0.033-2.552-4.531-0.376-3.223 1.856-4.629-2.13-3.044 0.274-4.622 1.749-4.042 2.767 1.489 2.166-10.44 3.383-0.85 7.79 10.26 0.414 7.036 3.289 4.199 1.296 4.491 2.228 2.665-4.631 6.515 3.343 2.645h3.464l0.382 4.168 2.935 4.661-0.785 6.122 3.017 0.836 1.64-9.162 1.703-2.88 6.545 6.159 1.152 6.534-2.907 4.776 1.103 3.914 3.346 4.149 0.78 2.456 4.129-2.667-0.136-4.028 3.137-4.874 1.168-9.132 2.217 0.078 2.288-5.093-2.264-0.629-1.57-4.675 1.004-4.712 4.967-0.99 2.929 2.14 5.892 0.543 1.692 6.253 4.5 0.671-1.827 3.916 2.18 3.712-5.515 3.853 1.407 6.13 4.251 5.78-1.447 6.001-2.138 0.246-3.392 5.242-5.287 4.543-3.455 0.114-4.43-1.202-0.741-3.502-6.022 0.754-1e-3 2.406 3.82 1.881-2.779 3.18-0.311 2.081-4.531 4.881-4.123-0.905-1.896-2.898-1.928-0.622-3.589-3.056-0.747 1.419 3.988 6.08 9.964 1.078 0.544 1.145-5.531 11.19-3.451 2.424-2.214-0.754-3.177 0.893-1.778 3.427-4.031 0.889 1.655 5.677-3.992 3.098-2.687-0.661-2.373 0.585 0.966 2.52-2.288 1.061 0.625 2.427-4.543 4.092 0.996 1.099-3.411 3.091-0.109 2.296-1.724 3.922-1.801 6.027-0.55 6.146 0.517 2.795-0.445 3.403 2.04 2.955 3.41-0.768 2.639 0.313 0.306 2.223 3.358 10.18v2.093l1.166 1.856 5.962-2.241 2.228 0.321 3.793 2.337 4.531 1.126 3.047 2.869 1.659 0.862 1.786 3.127 9.699 4.533 2.78 2.504 2.567 0.503 3.421-0.714 5.57 1.576 1.783 0.049 1.285 2.678-1.147 5.219 1.524 3.541-0.466 1.755 0.503 2.746-0.913 2.58 3.687 4.221 0.866 2.685 2.057 1.024 1.922 2.352 0.825 2.847 3.426 1.866 0.219-2.093 1.774-2.221 2.319 2.079 0.208-3.536 1.247-2.142 0.349-3.064-1.321-1.466 0.013-1.755-1.367-6.257-0.365-4.131-1.673-1.732-1.062-3.304 6.421-2.899 3.053-2.152 3.343-3.545 2.272-3.544 0.567-1.995 0.207-4.432-0.428-4.48-2.45-6.443-2.606-2.933-2.154-1.112-2.212-3.183 2.963-7.447 2.092-1.893 0.898-3.484-2.295-4.02-0.435-2.21-1.682-2.304 1.766-2.264 0.52-5.509-1.882-2.871-0.35-4.372 3.32-3.145 3.665 0.84 4.64 2.132 7.065 0.654 3.73-2.475 3.043 3.172 2.204 0.917 4.847 4.795-1.016 2.372 2.301 2.854 3.957 1.207 2.467-0.282 1.952 3.863-0.25 7.202 0.9 0.947-0.408 4.15 1.099 5.481-2.914 0.799 1.002 2.007 2.888-2.844 2.347-0.226 2.127 1.344 0.057 1.559 3.506 3.532 2.924-1.344 2.177-1.913 1.188-2.489 1.413 0.697 2.331-2.85-0.501-1.898 1.679-1.467-0.697-3.098 2.042-1.68 1.445-4.674 2.161 1.07 0.98 2.141 0.364 3.623 2.098 1.716 1.43 3.807 2.576 2.885 1.742 3.066-0.414 3.129 1.782 1.368 2.076 3.815 0.123 4.216 2.416 0.457-2.136 3.049-0.105 3.737 2.424 3.661 2.819 0.978 2.134 2.526 0.339 3.01 2.125 0.81 4.27-0.112-0.09 1.169 1.723 1.751 4.172 0.692 2.28 2.045-1.437 1.071-2.539 0.161-3.942 3.306-2.785 1.272-2.883 0.541 0.332 2.34 4.825-1.742 1.118-2.16 3.164-1.036 1.044-1.502 3.273 0.857 1.021 3.393 5.583 1.346 1.447 3.642-1.563 3.155 0.295 2.064 1.578 3.3-1.247 1.515-2.018 1.159-3.144 2.872-1.417-0.666-4.92 1.854-1.098-0.317-2.471 2.193-0.227 1.989-2.084 0.981-3.269 3.241-3.859-0.019-4.411 1.221-0.64-0.935-5.033-0.582-2.949 0.558-1.4-0.637-5.831 0.233-1.849-0.374-4.518 0.99-1.907-0.159-2.941 2.995-1.225 3.795-3.73 0.52-4.736 3.927-1.885 3.473-1.447 1.303-0.98 2.609-1.524 2.059-1.301 0.49-1.09 2.297-1.209 0.712-1.986 2.06-2.633 0.353-1.737 0.999-1.873 1.828-1.959 0.655-2.505 3.474-1.3 0.369-1.612 1.569 0.581 0.729-3.757 2.518-2.786 0.957-5.922 5.463-1.935 3.18-9.232-0.043-2.432 1.154 0.603 1.404 0.172 3.131-6.136 2.969-5.15 1.059-5.741 3.576-1.432-0.023-1.786-1.123-0.301-2.641 3.087-2.756 0.501-2.759 1.287-3.424-1.893-12.21-0.283-0.557-4.476-2.858-0.649-2.471-1.668 0.397-1.057-2.695-2.153-0.303-1.446-3.082-8.792-5.351-8.551-5.036-1.478 0.316-3.488 2.04-3.2-0.193-0.991-0.796-3.039 0.12-0.684-0.95-2.524 1.428-1.323-0.459-1.754-1.776-1.298 0.178-1.728-1.698-3.046-0.711-2.495 0.86-0.59-0.905-3.59-0.683-1.172-4.318-1.667-0.588-0.083 2.883h-85.72l-6.594 1e-3h-45.56"></path><path d="m535.3 447.2 0.728-3.928 2.262-0.982-0.426-5.345-2.106-4.335-0.655-4.177-3.698-1.894-0.786-3.281-2.437 0.152-2.531-3.876-3.089-1.509-4.145 3.263-1.738-0.929 1.254-4.086 2.163 0.684 1.512-3.879-6.755-4.539 0.826-3.07-3.089-0.64-0.958-4.697-5.422-0.114-0.605 4.36-4.736-0.869-6.182-2.135-5.271 4.103-4.629-2.801-3.106 0.936-6.396-1.757-4.155 1.045-2.434-1.734-3.808-5.264-4.106 3.428-4.207-3.376-3.775-6.698 1.613-1.894 8.839 1.258-3.542-4.059-8.732-1.809-1.456-9.315 1.757-11.4 2.162-4.576 1.348-6.342 6.434-8.18 5.251-2.339 8.042 0.636 0.769 2.577-5.392 6.424-3.341 8.346 2.226 7.05-1.035 3.145 1.664 6.619 3.133-6.8 2.326-0.66-3.333-6.299 1.194-8.103 3.135-4.809 10.03-6.143 6.514 0.366 1.974 8.251 2.454 1.336 0.422 9.221 2.547 3.822 3.828 0.057 8.412-6.034 12.01 4.323 0.676 6.08 4.132 0.848-0.129 4.136 5.044 7.748 3.906-4.997 4.454 2.093 2.324 3.833-1.64 3.052-3.001-0.175 0.46 4.493 7.184-2.223 10.77 5.353-0.482 3.162-5.058 1.853 5.666 2.641 2.642-2.872 2.795 4.414 0.671 3.407-4.488-0.685-2.872 2.665 2.911 1.845 3.888-0.034 2.794 3.962-5.046 0.104-2.276 4.745-2.07 1.163 3.08 3.087 4.336 0.727 4.249 6.337 7.473 0.266 2.149 3.392 2.007 6.371 4.917 3.452 4.505-0.817 3.668 5.488-1.109 2.975-5.232 1.742 2.922 2.565-3.2 4.346-2.83 0.179-1.687 3.359 0.462 4.03-1.25 1.352-2.616-3.062-3.618-1.257-3.006-5.85-4.843-7.112-2.447-2.462-1.71 3.25 0.665 4.298-3.199 0.663-0.585 3.145 4.334 2.013-0.543 2.216 2.597 3.549 4.127 1.029 1.206 1.48-0.716 2.82 3.225 0.418-1.132 3.299 3.156 5.163 0.959 5.073-1.403 2.578-0.987 4.301-1.036 1.025-2.481-3.754-4.267-1.818-4.907-4.061-1.841-0.234-3.137-3.11-1.321 2.09 3.067 4.394 4.745 3.127 6.34 7.363-1.722 3.622-5.631-3.108-5.765-1.071-4.457-3.279-0.91-2.586-3.067 0.403-5.661-3.232-1.969-2.609 1.004-4.556-3.76 0.135-5.674-10.46-2.196 0.435-3.296-0.896-0.811 2.893-4.969-2.289-0.777 2.34-4.328 0.941-5.15-0.541-2.135-2.827 1.106-5.468 3.254-1.761-0.614-3.109 3.794 0.584 4.597 2.362 6.272-1.551 1.619-2.225 3.416 0.417-1.109-3.401-3.513-3.787 0.375-1.76 6.982-6.375"></path><path d="m594.6 125.7-5.861 11.3-10.58 10.56-1.598 11.38-17.94 20.34-9.657 17.28-4.658 11.47-19.43 11.51 2.796 3.936-6.377 8.696 4.852 1.614-1.669 11.63-2.372 6.441-6.493 5.006-5.501 2.099 1.22 5.072-2.762 5.153-5.716 3.162 2.824 7.027 5.757 2.256-2.126 6.395-12.63 7.692-0.526-5.401-5.814-1.601-4.328 2.24-7.171-1.209-5.07 2.774-4.842-1.247-7.063 0.836-7.701-1.882-2.433-3.024 0.598-6.337 6.218-6.213 4.095 0.559-3.569-12.1 0.037-3.787 9.767-6.234-6.301-1.577 0.027-8.002 4.363-9.063 4.262-0.577 7.139-9.463-0.785-5.936-4.175-7.357-5.641-2.088 0.06-16.36 13.25 2.048 17.18-6.622-4.324-4.721-15.9 3.59-8.604-0.814-9.916-4.411-8.626-10.45-9.412-24.06 15.14-11.5 8.58 0.25 6.015-15.45 15.25 3.263 5.677-15.88 11.18-7.438 4.599 4.19 11.43-7.403 9.677 2.124 8.042-4.143 15.54 2.352 18.16 8.275 12.02 0.626 1.908 11.36 9.9 7.828"></path><path d="m395.6 405.6-0.461 2.069-8.089-1.139 2.637 3.719 1.432 5.114-0.981 2.144-7.093 2.599-12.51-5.495-3.49-4.636-3.755 6.751-6.023 1.096-2.061 2.834-3.365 1.386-4.903 0.34-3.229 1.331-6.662 0.136-3.835-1.119-1.526-2.876 0.358-5.591-4.066-1.227-3.959 0.643-3.929-0.813-3.289-2.295-3.097-4.339-0.95-3.274 2.385-2.047 13.9-2.759 7.993 1.713 3.887-2.253-1.676-2.116-9.222-3.347-7.963 2.053-3.262-0.897-6.76 0.502-4.005-6.327 12.41-5.763-1.404-1.679-6.833 1.982-3.787-0.91 1.162-3.678-4.872 0.607-0.018-4.934 4.633-4.745-2.328-3.318 6.121-8.212 13.92-8.053 3.111 4.542-0.306 5.547 2.096 0.342 2.945-4.054 4.688 2.013 6.741 5.504 3.264-7.171 7.215 7.266-0.148 3.395 2.373 6.714 2.6 3.87 2.084-3.099-2.638-3.881 0.307-2.643-2.903-13.99 3.182-3.373 4.193 0.327 4.97 4.463 2.484 5.106 1.469 10.56 3.293 8.253 0.489 3.716-1.544 4.516 5.267 7.215 5.643 2.608 4.135 4.342 2.932-0.625 0.618 5.365"></path><path d="m564.1 646.2-1.495-0.736 0.125-2.341-1.614-1.556-0.162-8.761-1.959-2.25-3.546 1.114-0.817-1.782-0.99-0.059-3.701 5.402-0.333 2.069-1.185 2.514-0.48 2.445-2.132 2.417-2.805 1.078-0.546 1.614-9.476 0.066-6.569 0.036 5.779-2.945 0.722-2.409 1.365-2.205 2.044-0.853 1.175-1.33 3.252-2.236 0.657 0.263 2.059-0.824 0.722-0.698 3.115-1.243 7.403-9.064 4.244-3.087 7.918-3.655 5.281-1.1 3.012 0.361 1.75 0.736 1.961 1.743 0.295 2.008-0.834 1.586-4.783 3.053-3.337-1.368-1.545 1.419 2.221 0.735 0.945 1.762 2.097-1.108 1.916 0.031-0.667 3.862 0.671 1.509-0.402 1.483 1.959 4.708 3.505 0.716 0.036 1.812 3.08 1.092 2.256-0.187 1.341 1.059 2.73-1.968 0.151 1.33 2.118 0.148 1.997 3.272-1.303-0.048-1.539 1.017-4.56 1.553-3.649 1.578-2.172 1.315-1.136-1.153-2.055 1.153-1.035 2.626-2.367 2.551-2.141 1.276-3.295-1.492-0.444-2.514 0.484-1.658 1.639-2.476 4.613-3.129 1.763-0.631 0.613-0.986-2.226-0.832-2.409 0.177-2.972 1.77-2.908 0.388-1.274 0.646-2.151-0.809"></path><path d="m502.2 319.3-4.908 8.151-6.234 1.968-8.525-2.237-3.823 1.338-16.93 0.901-7.519-2.805-4.006 1.412-4.728-4.308-3.633 0.936-4.416-9.761 2.498-7.615-0.901-5.957-4.719-9.916-8.599 2.134-4.876-2.748-5.139-11.5 5.402-3.27 10.35 3.461 5.04 7.094 6.26-2.114 4.966 6.071 5.751 2.348-4.453 4.874 8.041 8.379 1.673 3.613 5.67-2.33 4.575 3.585 11.39-8.034 4.145 1.51 3.79-2.104 6.089 1.315 8.061 7.778-0.296 7.833"></path><path d="m416.9 200.8 6.957-29.53 14.97-7.82 7.989 21.78 14.69 4.72 3.647 15.52-1.088 7.133 8.125 1.332 3.226 7.742-14.7 15.8-4.556 12.66-10.57 0.998-6.161-2.011-4.182-5.186-6.594-13.57 8.221-7.336 0.235-3.757-15.33-0.258 0.173-4.511-4.657-8.095-0.402-5.613"></path><path d="m323.4 346.6-2.151 2.652-17.05 12.44-0.882 4.704-4.282 2.132-0.934 8.324-1.259 3.326-12.32 6.341-4.823-9.65-5.838-3.861-2.599-3.347 6.308-12.96-1.848-2.827 5.431-11.84-1.858-1.532-3.051-9.08 10.66-2.13 5.212-1.737 7.121 5.153 7.156 1.073 3.297-1.104 5.995 3.543 7.717 10.37"></path><path d="m636.9 629.2-0.784 1.59-0.778 3.817-1.351 1.138-2.057-0.15 0.251-3.705-2.389 2.595-0.5-1.444 1.199-2.703-0.513-3.221-0.639-0.213-1.587 2.498-2.038 0.885-1.924 3.388-3.003 0.35-0.092-1.496 1.913-0.479 0.247-2.441-1.682 0.101-0.971-2.241-1.333 0.95-2.712 0.731-2.761-0.737-3.841-0.463-5.069 0.997-0.948-0.396-0.488-1.979 4.313-4.297-0.835-0.762 1.299-3.813 1.536-0.291-0.249-2.665 2.879-5.601 0.767-2.486 2.398-3.144 1.285-3.486 3.07-1.682 2.961-0.602 0.111 1.731-1.907 3.755-4.328 6.996 0.067 2.61 2.883-3.615 2.131 1.748-1.08 2.489 1.781 1.059 2.134-0.593-0.336 2.188 2.399-0.423 3.51-1.238 2.937 1.833-0.777 1.517-1.575 0.96 0.748 2.781 1.801-0.552 2.157 0.148-0.378 1.271-2.905 2.004 0.089 1.23-1.126 2.222 1.208 1.242 1.644-3.55 1.114 0.627-0.95 2.528 0.649 1.2 2.048-2.413 0.377 1.702"></path><path d="m373 305.8-3.069 12.22-4.981 2.565-7.057 0.129-2.038-2.982-3.789 4.112-14.28 8.391-6.278-0.576-3.734-4.493 8.21-5.761 6.212-0.533 2.637-3.198-23.44 4.014-8.973-4.483-0.824-1.807 4.833-12.19 0.91-5.397 3.425-0.519 1.644-5.735 6.532-0.316 1.215 5.933 4.844-1.737 2.809 2.151 5.355 9.38 4.239 2.862 8.086 1.619-3.229-14.25-4.275-4.373 6.064-9.181 3.668 1.952-0.825 6.659 3.791 7.521 4.057 3.65 2.197-3.562 4.234 1.479 1.824 6.454"></path><path d="m499.1 482.7-4.177 3.57-5.279-2.714-2.297-3.189-5.756-0.467 0.257 2.762-3.858 2.437-0.924 2.679-3.419 2.128-1.806-1.327 0.091-4.832-8.034 0.166 1.639-3.058 3.516-1.977-1.065-3.859 1.232-5.859 0.655-8.683 2.093-2.993 2.044 1.238 0.621 4.277 2.497-0.398 2.395 3.355 3.504 0.868 0.946 2.239 4.212 2.114 2.973 2.989 0.721 4.481 3.692 0.011 3.527 4.042"></path><path d="m418.4 364.4-1.986 2.765 0.794 7.466-4.508 3.548-2.543-0.701-2.858 5.813-3.468-0.896-3.147-8.079-3.861-5.298-6.018-2.297-0.632-2.822-3.238-2.744 0.647-6.442 3.61 0.381 2.333 5.099 4.325-0.368 1.6-4.965-1.781-2.939-5.471-4.625 3.379-6.457 4.422-2.125 3.915 3.784 8.24-2.767 3.07 2.806-3.559 4.447 0.037 7.807 6.698 9.609"></path><path d="m283.4 622-1.167 1.265-1.681-0.293-3.873-1.556-2.599-1.725-0.905-1.418-1.848-0.501-1.703-2.531-2.481-0.235-0.386-3.736-2.461 0.243-1.73-2.051-1.436-0.8-0.702-1.829-2.021-1.129-0.435-1.348 1.649-0.71 2.859 0.767 1.533 1.2 3.694 1.153 5.118 1.264 1.289 3.031 1.482 1.55 0.436 1.947 3.178 1.245 1.729 1.469 1.362 3.665 1.099 1.063"></path><path d="m303.4 295-2.728 7.058-4.272-3.452-3.597 1.704-7.125-4.942 2.406-4.773 4.135-0.607 1.747-5.188 4.181-2.973 1.384-4.219 6.353-8.011 7.947 1.716 4.122-6.354 5.013 5.61-4.215 2.776 2.079 4.992-0.307 6.024-17.12 10.64"></path><path d="m448.5 339.2-7.833 18.81-2.636 2.332-5.092-1.424-1.95 1.707 1.645 3.835-3.118 6.564-5.287 1.581 0.047-8.145-2.284-3.942-0.102-15.47 1.822-7.413 4.373-2.229 5.507-0.837 5.794 3.53 5.6-0.392 3.514 1.496"></path><path d="m372 226.8 0.789-4.422 8.637-2.532 5.572 7.669 4.794-0.119 10.45 12.46-1.224 7.25 3.791 5.539 0.137 4.519-4.607 2.631-3.357-1.921-2.13-8.084-8.541-4.468-6.012 3.4-4.365-2.93 0.893-5.55 5.719 1.936 0.566-6.805-11.11-8.574"></path><path d="m412.9 308.9-3.459 4.401 0.408 5.305-8.052 0.971-3.424-0.734-1.728-6.301 2.263-6.595-12.76 2.447 2.57-6.579 3.364-1.122-2.567-6.155 0.338-4.058 5.361-1.44 3.467-3.643 8.808 0.273 4.214 3.244 1.202 19.99"></path><path d="m423.9 419-2.962 1.836-2.442 3.416-6.331-1.149-0.993-1.204-8.283-3.291 0.539-3.748 2.983-0.61 1.508-2.125 0.959-6.377 1.471-1.427 5.159 5.738 3.368 2.612 1.871 5.935 3.153 0.394"></path><path d="m495.5 344.9 1.716-2.94 5.549 2.445 6.559-0.596 4.626 2.797 4.709 7.114-0.237 4.87-9.259-1.39-5.023 2.44-3.866-1.571-1.076-6.615-3.156-0.902-0.542-5.652"></path><path d="m415.4 259.5-4.16-5.905-3.087-10.05 0.02-8.159 4.524-0.597 13.12 10.95-2.711 2.885 1.547 6.653-9.249 4.228"></path><path d="m432.8 320.2-0.853 5.533-5.583 0.423-5.867-3.685-3.535-4.6 4.066-8.586 6.987-2.068 4.473 6.686 0.312 6.297"></path><path d="m352 252.8-3.159 13.47-9.369 4.096-5.452-4.638-0.208-8.868 12.65-4.784 5.541 0.724"></path><path d="m524.8 428.4-0.639 2.946 0.482 5.292-4.121 3.832-5.462 0.19-1.705-6.066 3.169-7.398 3.888-1.108 4.388 2.312"></path><path d="m599.6 641.9-3.23 1.624-3.04-5e-3 -1.032-3.401 2.232-2.99 1.128-2.52 1.33-1.709 1.462 1.312-0.581 4.149-2.775 3.337 1.26 0.766 0.543-2.782 1.352-1.524 2.344 0.979 0.101 1.736-1.094 1.028"></path><path d="m590 637-2.862 1.63 0.156 1.927-1.161 0.054-1.1-1.549-3.152-0.322-3.945-3.331 0.927-1.611 1.989 2.124 3.194 1.317 5.954-0.239"></path><path d="m578.4 612.1 0.932-1.233 3.791 0.937 4.202 1.738 1.649 1.467 1.609 0.459 0.355 2.184-2.183 9e-3 -4.226-1.261-2.467-1.205-1.692-2.195-1.97-0.9"></path><path d="m376.6 344.5 0.541 5.234-3.149 6.683-4.592-5.995-4.592-3.354 2.198-4.005 7.162-0.821 2.432 2.258"></path><path d="m353.7 243.4-2.818 4.068-9.776 0.62-7.179-3.373 13.94-9.091 5.837 7.776"></path><path d="m489 491.4 1.645 0.675-0.473 2.485-5.888 5.631-2.692 0.337-1.17-3.727 1.936-3.647 6.642-1.754"></path><path d="m244.4 593.2-1.336-0.253-5.622-6.898 3.002-1.669 1.455 1.537-1.197 1.57 0.958 2.68 1.232 0.729 1.508 2.304"></path><path d="m237.1 584.6 0.307-1.72-1.866-1.741-1.266-2.344 0.519-2.278 3.719 0.445 3.018 1.026-0.887 1.773-0.686 4.451-2.858 0.388"></path><path d="m433.7 263-1.132 3.628-12.55 0.209-1.239-5.27 3.645-2.481 9.492 0.692 1.78 3.222"></path><path d="m503.6 499.2 0.064 1.338-2.403 5.93-2.151-1.985-0.173-3.865 1.921-2.935 2.742 1.517"></path><path d="m311.1 301.3-4.146 7.951-3.975-1.962 3.939-6.515 4.182 0.526"></path><path d="m451.7 269.7-2.164 3.457-5.528-4.636 0.155-4.848 4.322-0.277 3.215 6.304"></path><path d="m248.7 578.9 2.109 1.33 2.472 3.155-1.155 1.215-3.426-5.7"></path><path d="m496.2 587-1.337 1.379-5.179-2.239 0.899-1.308 3.8-0.187 1.817 2.355"></path><path d="m381.8 315.3-2.955 3.515-3.385-2.043 2.516-6.07 3.824 4.598"></path><path d="m380.9 298.5-2.503-3.727 7.927-2.173-0.555 4.925-4.869 0.975"></path><path d="m512.3 488.1-2.014 2.224-2.955-3.365 1.727-1.152 2.416 0.616 0.826 1.677"></path><path d="m533.2 432.9-5.221 0.784-1.768-3.786 6.715 1.269 0.274 1.733"></path><path d="m256 588.8-1.266-0.334-0.664-2.339 0.558-2.33 2.218 1.166 0.479 1.194-1.325 2.643"></path><path d="m467.1 426.9 0.823 5.966-2.12 0.703-0.746-3.667 2.043-3.002"></path><path d="m575.8 508.9-3.226-2.595 3.844-0.675-0.618 3.27"></path><path d="m560.6 517.7-0.397 1.663-2.394 0.739 0.988-3.305 1.803 0.903"></path><path d="m251.3 584.4-0.982 0.554-1.876-1.872 1.703-0.547 1.155 1.865"></path><path d="m414.3 765.5-0.13 1.347-1.469 3.012-0.962 3.656-0.586 6.868 0.131 1.566-0.735 1.88 0.644 2.863 0.751 1.402-0.236 1.072 0.804 1.268 1.731 4.037 2.373 2.61 1.099 1.538 0.889 2.941 1.506 1.357 0.626 1.805 0.618-0.214 2.6 0.257 2.003 0.976 1.135 1.758 1.868 1e-3 3.813-1.328 2.524-0.02 1.294-0.935 3.665-0.36-0.214 0.802 2.232 0.475 1.394-1.512-0.828-0.763 2.478-1.496 1.028-1.128 0.103-1.653 1.158-1.247-0.06-3.261 0.649-2.493 2.87-1.524 3.314-0.423 3.377-1.137 2.429-0.134 3.619 0.844 1.201-0.661 0.85 0.713 0.432 1.444-0.669 1.656-1.798 1.937-1.045 1.607-0.138 1.631-0.974 1.765 1.216-0.029-1.501 4.64-0.239 1.449-2.663-0.395-0.927-0.017-1.956 3.137-1.4 0.39-9.153 0.065-5e-3 2.884-1.492 0.329 1.118 1.416 1.657 0.897 0.436 1.132 1.247 0.949-0.435 1.442-6.19 0.01-2.404 4.047 0.214 3.039-0.422 0.806-2.889-3.241-4.16-3.458-1.437-0.89-0.922-1.095-3.621-1.084-2.912 2.362-2.627 0.766-1.384 0.751-1.597 0.127-1.446-0.382-2.104-1.057-2.534-0.227-1.755-1.195-2.222-0.598-1.442-1.065-4.423-1.056-1.252-0.936-5.083-1.795-0.87-0.836-2.311-1.341-0.833-1.165-1.129-0.528-0.769 0.393-2.758-0.794-3.781-1.403-1.009-1.692-1.399-1.164-4.135-1.874-1.051-0.738-2.542-3.524-0.865-1.998 1.849-0.57-0.164-1.33 0.636-1.597 0.247-2.049-1.145-0.85-1.091-1.909-0.114-1.622-0.726-2.068-3.148-3.214-1.817-2.19-1.213-1.904-1.71-1.238-1.232-1.381-1.855-1.044-0.956-1.863-1.322-1.562-4.949-2.904 0.037-1.269 0.826-0.88 0.061-1.775-1.47-1.286-1.533-0.409-0.303-1.453-1.853-0.496-1.336-1.33-0.159-2.552-2.363-0.566-0.957-0.651-1.115-1.867-1.174-0.449-0.93-1.826-1.282-1.041-0.563-2.101-2.115-3.323-0.921-3.012-1.291-2.231 0.4-2.007-2.501-0.813-0.553-1.183-1.081-0.582-1.416 0.6-2.129-1.563-1.341 1.375-0.178 2.129 0.842 1.295 0.453 3.001-0.154 1.399 1.341 2.311 0.605 0.063 2.502 2.095 1.461 2.642 1.091 0.607 0.787 1.912 1.003 0.166 0.543 1.619 0.103 1.849 0.876 1.184 1.124 0.509 1.78 3.295 2.286 1.584-0.045 0.668 1.253 2.804 0.056 1.637 1.405 1.778 0.609 1.745 1.237 1.854-0.408 1.389 0.881 1.878 1.948-0.222 3.482 3.789 0.254 1.433-0.53 1.028-1.819 1.271-1.015-0.779-0.344-1.65-0.701-1.199-1.35-0.767-2.312-2.311-2.023-1.207-1.173-1.439-2.045-1.029-0.273-1.724 0.324-0.954 9e-3 -2.519-1.337-2.584-3.587-2.349-0.411-0.888-1.804-0.2-4.919-2.496-0.094-0.946-1.139-0.648-0.946-1.779 2.122 0.352 1.629-0.298 0.667-1.137-0.425-1.293 0.411-1.152-4.647-5.251-1.076-0.292-2.552-1.882-0.699-3.411-1.059-0.772-0.094-1.939-3.038-4.322 0.28-1.792-1.113-0.759-1.415-3.224 12-1.075-0.49 1.262 4.303 1.575 8.184 2.983 6.288 2.314 5.505 0.037 8.757-1e-3 -2e-3 -2.642 8.49 0.023 0.794 0.331 0.97 1.583 0.798 0.298 3.205 3.192 1.777 1.009 1.634 2.807 6e-3 1.448 0.748 1.582 2.367 1.889 1.316 0.352 2.463 1.576 0.768 0.098 1.325-2.053 0.998-2.299 1.906-0.839 4.464 0.712 1.229 1.521 2.473 2.209 0.223 1.094 1.137 1.894 0.563 1.684 1.048 0.807 1.872 2.802 0.966 0.482 0.227 2.908 1.068 1.289 0.814 2.346 1.448 0.22 2.866 1.632 2.715 0.227 1.271 1 1.431-0.617"></path><path d="m334.3 748-0.456 0.031-1.799-2.006 0.562-0.704 1.47 1.392 0.223 1.287"></path><path d="m338.6 749.7-1.542-0.611 0.721-1.868 1.216 1.034-0.395 1.445"></path><path d="m454.2 809.5 1.4-0.39 1.956-3.137 0.927 0.017 1.061 1.911-0.959 2.827-0.086 2.108 0.428 1.103-0.456 1.641-1.149 1.975-1.958 1.51 0.068 0.468h-1.613l0.437-5.956-0.056-4.077"></path><path d="m487.1 851.9 1.12 0.882 0.518 1.965 0.703 0.4 1.717-0.651 1.115 1.27 1.173 0.157 2.41-0.551 0.926-0.815 3.641-1.3 1.79-1.627 2.465 0.869 3.101 0.272 2.066 0.901 2.253 2.196 1.002 0.647-0.534 0.701 1.396 2.749-0.693 1.387-1.201 0.902-1.201 0.262-0.378 1.217-1.242-1.325-1.433-2.923 0.722-0.018-0.085-1.888-2.271-1.896-2.092-0.919-1.53 0.063-1.371 1.023-0.091 1.096-2.253 1.408-1.226 0.406 0.071 0.932 1.561 1.43 0.746 1.258-1.815 0.612-0.584 0.649-1.993 0.206-0.367-1.73-2.897-0.786-0.928-2.115-1.99-0.52-0.853-0.555-1.895 0.103-1.091 0.524-0.102 0.931-0.23-1.08 0.469-1.927-0.372-0.564 0.875-1.178-0.951-0.433-0.024-1.913 0.576-0.839 1.277 0.135"></path><path d="m599.9 857 1.027 1.366-1.019 1.149-1.777 1.195-0.642 0.014-1.137 1.49 0.438 1.536 1.753 0.582-0.643 0.822-3.919 1.744 0.416 2.058-1.29 1.415 3.199 3.532 0.636 1.514-1.454 1.009-0.543 0.909-1.426-0.027-1.225 1.307-3.252 0.844-0.958-0.395-1.91 0.766 0.083 1.806-1.237 0.306-1.445-1.611-0.697-0.239-3.192 0.285-0.306-0.887-1.2-0.318-1.489 0.777 2.299 2.016-0.1 2.357 1.126 2.093-0.251 1.175 3.316 0.254-0.135 1.357-1.754 0.819-1.162 0.138-0.429 1.554-1.104 1.004-0.537-0.304-1.609 1.3-2.03 0.603-1.572 2.184-0.659-1.438-0.812 0.018-2.055 1.206-0.949-0.132-2.644-2.316-0.959-3.359-1.293-2.905-1.506-1.696-1.06-0.364 2.67-2.702-0.834-1.274-0.802-0.41-0.866-2.539-0.244-1.541 0.304-2.447-0.253-1.174 0.983-0.935 0.229-1.694 0.863-1.095-0.727-1.146-5.307 0.656-2.129-0.412-0.925 0.689-0.987-0.209-3.265-4.138-1.112 0.031-1.922-0.814-2.403 0.692-2.352-0.457-0.891 0.337-1.242-0.404-0.626-1.589-1.226-0.294-0.182-2.568 0.76-0.781-0.255-1.186-1.443-1.582-0.538-2.067-1.134-1.192-1.84 0.662 2.001-3.414 0.35-3.121 2.131-3.461 1.124-0.18 1.428-2.52 3.217-0.961-0.253 0.468-2.912 0.853 0.106 1.074 1.816 3.361-0.267 1.359-1.764 1.858-0.71 1.331 0.784 1.663 1.186 0.724-0.142 1.192 1.22 0.36 1.206-0.436 1.087-1.158 0.072-2.014-1.61-2.331-0.813-1.651 0.34-2.189 0.822-0.06 2.122-1.068 1.778-0.29 1.67-0.628-0.584-2.53 0.455-1.227 0.94-0.445 0.912 0.94 0.134 1.081 0.925 1.714 1.766-0.348 2.036 0.424 2.228 1.396 0.775 1.406 0.101 1.653 1.506 0.569 6.998-0.845 2.085 0.156 1.281 1.487 1.44 0.63 2.054 0.448 2.107-0.049 3.024-1.896 1.615 0.165 0.317-1.109 1.127 0.176 1.802-0.511 2.258-0.145 2.827 0.375-0.904 0.794-1.637-0.187-0.844 0.814 1.568 1.132 0.543 1.321 1.063-0.486 1.598 0.995 2.188 0.027 3.277 2.433-1.001 0.867-1.5 3.897 1.496-0.876 3.065-0.328 1.754 0.391"></path><path d="m856.6 758.1 6.927 4.567 5.785 3.79 6.592 4.401-8.858 5e-3 1.092 10.1 0.777 7.184 1.279 11.77 1.036 9.921 0.665 6.348 1.351 1.125-0.789 4.243-5.815 7e-3 -13.38-5e-3 -2.432 0.646-2.366-0.333-2.138 0.065-0.894 1.657-2.472-2.588-1.587 0.316-0.593 1.878 0.043 1.481-0.685 0.585-1.451 0.026-1.037-1.154-1.926-1.16-0.538-1.489-1.367-0.594-0.38-1.552-0.856-1.211-1.632 0.171-2.659-2.681-2.939-0.036-2.8 0.412-0.906 0.434-3.276 0.035-0.693 1.566-0.382 1.899 0.016-2.384 0.4-1.964 1.433-3.233 0.618-2.122 0.124-1.539-0.226-2.757-0.676-2.633-1.35-1.525 1.204-2.774-0.321-0.685 0.492-1.558-0.958-1.89-1.369-0.54-1.331-2.574-0.628 2.059 0.49-3.032 19.72-3e-3 -0.391-6.263-0.36-1.393 0.751-1.44 1.979-1.375 1.328-0.281 1.692-0.941v-13.76h11.58l5.089-0.101-8e-3 -7.118"></path><path d="m816.2 834.1-0.381-1.404 1.342-1.277 5.216 0.019 0.621-0.969 2.391-0.108 0.936 0.891 0.715-0.212 1.278 1.05 1.813-0.613 0.582 1.233-1.753 0.545-4.067-1.367-4.038 0.906-0.054 0.835-4.201-0.038-0.4 0.509"></path><path d="m695.6 467.3-0.894 2.591 2.128 2.175 0.339 2.065-4.13 3.885 4.131 0.822-0.266 3.409-4.293 6.523-1.387 4.21-3.364 0.308 1.529 8.736-2.952 7.528 0.175 2.764-1.062 1.85 0.294 2.394-2.446 1.766 0.886 3.596-4.262-1.106-4.921 1.517 0.242-2.89-2.336-1.917-4.911-5.825-2.432 2.93-0.972-0.623-4.378 0.196-0.706-2.542-2.729-1.282-3.109-4.131-0.97-2.532 0.623-1.58-1.927-2.895-3.06-2.421 0.647-2.992-1.923-2.352-0.15-2.757-2.317 0.505-0.355-3.463-2.059-2.131 0.496-4.511 2.702-3.734-0.051-3.238-1.714-0.88-2.912 6.214-1.538 0.033-0.068-5.294 1.385-1.855-1.997-2.856 0.029-4.394-5.913-6.249 0.509-1.864-1.709-3.061 1.342-3.592 3.798-0.602-2.142-3.035-2.756 0.26-1.59-2.468 1.941-5.373-0.554-3.855 2.759-3.961 2.765-1.101 3.256 1.936 3.572-0.322-0.03-2.743-6.11 1.259-3.216-1.841 2.36-2.829 5.238 0.028 3.199-2.059-0.864-2.652 1.071-4.305 0.202-6.421 2.572-3.81-9.983-2.39-4.512-4.421-3.935-0.896-2.847-4.043 3.043-2.232 7.646 1.929 4.505 4.073 1.798-6.875-3.625-2.061-0.673-3.492-3.258-4.366 0.19-2.437-5.08-0.999-1.364 4.824-3.367 1.355-4.446-1.534-1.666-4.318 2.387-1.663-0.908-3.42 3.342-3.474-0.425-4.392 1.591-5.508-4.077-3.89 0.982-5.436-6.671-15.4-1.213-10.62-6.427-5.723-2.641-5.282 2.464-2.448-4.374-4.04-1.153-3.642-8.002-5.754-7.625-1.812-5.397-2.795-9.387 7.339-5.664 1.64-9.727-2.731-5.723-7.541 3.334-4.885-8.749-2.987-3.427-4.186 2.211-4.467 9.208-1.491 3.462-2.723 7.983 0.469 3.597-3.15-2.8-4.195-4.891 3.481-8.155 1.65-5.164-2.414-12.64-13.06 0.97-10.21 15.76-7.315 2.023-4.446 11.78-4.332 2.809 1.104 6.286-10.91-0.331-15.94-10.62 0.333-2.026-8.267 3.485-6.325 8.168-7.007 1.856-6.836 8.884-7.512 7.376 3.924 3.574-13.27-2.471-10.56 13.35-10.37 20.85-9.906 7.085 13.42 10.67 4.635 7.13-2.455-5.583-7.477-2.63-13.34 11.86 5.764 13.64 11.86 8.047-2.501 3.358-11.2-14.15-19 7.019-11.1 17.06-1.36 5.253 8.651 6.263 1.009 9.046-7.931-5.309-11.64 31-9.257 9.218 1.455 24.99 13.34 9.937 19.03 11.72 9.187-5.594 10.14-7.247 2.284-29.83 5.146 26.16 5.499 16.16-3.462 1.814 11.1-1.686 19.3 10.58-11.82 10.5 4.773 3.308-11.48 12.82-2.194 9.464 6.077 1.945 8.432-18.91 23.71-5.135 12.91-7.127 1.707-8.008-2.913-4.743 12.17 6.076 3.692-1.791 8.89 3.054 6.362-4.777 3.452-0.076 4.934-5.266 1.592 0.446 5.15-3.701 13.94 4.347 0.661 3.701 6.596-3.772 1.766 2.723 5.646 9.529 3.728-0.889 10.2-10.06-4.329-7.11 7.065 1.841 5.099 9.474 5.418-0.385 4.928 1.84 7.045-0.229 6.257-6.203-1.329-0.452 8.96 8.917 6.556-1.998 4.039-4.131-0.239-0.784-3.07-4.488-0.54-2.583 0.662-2.289 6.223 7.704 3.896 0.727 7.778-3.689-0.143-5.165 3.609-10.31-5.412-4.584 1.516-2.064 3.518-0.078 2.32 3.682 1.93-2.693 3.162 3.372 1.961 2.532 6.535 9.193 7.017 0.992 3.259-1.132 3.681 4.317 0.991-0.585 4.904 1.063 2.003-0.788 5.719-4.654 2.107-3.423-0.032-2.922-2.589-1.675-7.135-2.023-2.954-3.703-1.275-0.96 2.866-4.118 3.006-5.403 0.497-4.02 5.737 0.387 2.87 7.447-1.674 2.086 4.248 5.105-3.189 8.727 4.448 5.941-0.033-6.657 5.781-4.561 6.253-5.263 5.736-3.745 2.919-12.95 4.248-5.008 2.988-4.523 1.084-2.492-0.98-3.571 0.906-5.306 6.525-2.821 7.369-4.462 7.68-7.153 5.504-1.575-0.983-4.107 2.941-2.939-3.35-2.113 4.917-8.27 1.699 0.085 3.241-1.634 2.306-3.457-0.648"></path><path d="m635.5 412.3-3.422 1.499-1.468-4.576-4.282-0.401-1.277-1.623 0.818-7.276 1.881-1.665 5.935 1.643 2.69 4.013 3.649 1.795-0.717 4.712-3.807 1.879"></path><path d="m790.3 365.1-1.507 5.054-10.51-7.759-0.667-3.958 6.692-0.231 5.989 6.894"></path><path d="m773.4 391.7 0.08 1.357-6.37 2.008-7.462 1.393 5.001-6.988 2.024-0.045 4.794-2.907 1.933 5.182"></path><path d="m677.4 122.6-2.706 7.152-9.028-5.124-4.11-10.87 6.869-1.36 8.975 10.21"></path><path d="m777.4 354.6-5.915-2.355 2.318-3.939 3.918-0.244 6.149 3.033 1.247 2.488-7.717 1.017"></path><path d="m813.4 316.5-0.903 2.678-7.15-0.942 2.071-6.393 3.5 5.577 2.482-0.92"></path><path d="m798.2 333.3-3.364 2.848-4.538-2.038 3.43-4.619 3.497 0.88 0.975 2.929"></path><path d="m790.4 359.9-3.627 0.668-2.547-3.039-0.374-3.37 6.687 2.723-0.139 3.018"></path><path d="m684.1 522-3.64 0.819-0.868-1.847 4.508 1.028"></path><path d="m508.2 772.7 0.979-1.878 0.856-0.07 1.247 1.723 0.092 1.102-1.723 1.008-1.451-1.885"></path><path d="m512.4 776.7-1.439 0.308-0.646-1.205 1.334-1.13 0.751 2.027"></path><path d="m531.8 792.2 1.244-0.875 1.342 1.239-1.814 0.37-0.772-0.734"></path><path d="m827.2 451.6-1.978 1.097-0.584 3.055 1.265 2.866 6.067 3.66 0.413 5.486-2.607 3.956-2.225 0.719-0.085 2.513-2.425 2.076-4.983 1.357-4.519 3.837-4.822 0.801-0.524 2.414-3.835 1.408-7.268-1.653-4.914-3.739-5.84 0.141 1.865-2.496 4e-3 -2.47-2.142-3.95 0.357-1.357-4.633-0.9-2.937 1.227-1.132-1.94 6.928-1.376 2.376-5.067-3.633-1.699-4.859 2.032-1.495-1.162 2.02-6.939 4.711-4.928 7.659 5.944-0.256 6.092 5.533-3.117-0.928-3.487 2.091-0.666 1.901 3.904 1.438-3.964 3.353-1.009 3.897 0.219 2.467 1.951 4.662-2.412-0.282-3.956 2.602-0.372 3.017 4.542 2.899-2.729 1.381 0.091"></path><path d="m595 846.2 0.031 2.852-0.978 0.327-2.227 0.082 0.893-1.242-0.069-1.488-0.65-0.778 3.267-0.496-0.267 0.743"></path><path d="m593.2 823.1-0.631-1.731 0.907-0.226 0.255 1.524-0.531 0.433"></path><path d="m571.9 807-1.007 1.327-1.665 0.514-3.014-0.29-2.244 0.095 0.315-1.247-0.595-0.834 0.845-0.849 5.565 0.315 1.8 0.969"></path><path d="m518.7 808.4-1.299 0.799-1.632-0.693-0.527 0.834-1.303 0.613-1.125-0.777-1.414 0.058-1.757-1.813-1.328-0.123 0.729-1.231 1.463-0.334 5.037 0.578 0.652 0.717 2.067 0.616 0.437 0.756"></path></g></g></svg>
