<svg version="1.1" xmlns="http://www.w3.org/2000/svg" xmlns:xlink="http://www.w3.org/1999/xlink" width="63.91746" height="125.58499" viewBox="0,0,63.91746,125.58499"><g transform="translate(-415.8179,-64.70105)"><g data-paper-data="{&quot;isPaintingLayer&quot;:true}" fill="#ff0000" fill-rule="evenodd" stroke="none" stroke-width="0" stroke-linecap="round" stroke-linejoin="round" stroke-miterlimit="10" stroke-dasharray="" stroke-dashoffset="0" style="mix-blend-mode: normal"><path d="M468.12582,119.51886l-0.27999,2.03992l0.39998,0.22999l0.20999,1.77993l1.03996,0.63997l0.30999,0.90996l1.94992,-0.38998l2.26991,1.60994l1.83993,-0.01l0.51998,1.11996l0.77997,0.57998l1.70993,-0.49998l0.85997,2.09992l-3.71985,0.16999l-2.30991,0.42998l-1.93992,1.21995l-0.72997,1.10996l-0.45998,1.89992l-1.23995,2.5599l-1.53994,1.02996l0.45998,0.59998l-2.33991,1.58994l-0.54998,0.95996l0.28999,3.12987l0.78997,1.27995l0.52998,-1.30995l-0.97996,-0.70997l0.13999,-1.12995l1.60994,-0.21999l0.34999,-0.88996l1.13995,0.92996l-0.67997,2.19991l-1.91992,2.11992l-3.77985,2.17991l-5.85977,2.30991l-0.89996,1.09996l-3.10988,1.20995l-1.35995,0.82997l-0.93996,2.30991l-0.84997,0.88996l-0.11,0.93996l-1.08996,1.68993l-0.20999,1.79993l0.97996,0.95996l0.19999,1.96992l-3.41986,5.34979l0.12,0.87996l-1.50994,1.79993l-2.19991,1.16995l-2.66989,1.90992l-1.67993,1.79993l-0.89996,1.51994l-0.06,1.30995l-1.85993,4.18983l-0.22999,2.4399l0.43998,1.44994l0.93996,1.49994l-1.13995,0.17999l-1.51994,-0.81997l-0.90996,0.15999l-0.25999,-2.3799l1.44994,-1.90992l-0.06,-1.17995l-0.85997,-0.26999l-0.06,-1.25995l-0.99996,-1.09996l-1.76993,-0.81997l0.02,-1.84993l-0.57998,-1.58994l0.18999,-1.85993l-0.99996,-1.16995l0.28999,-1.59994l0.52998,-0.24999l0.11,-2.26991l-0.75997,-2.69989l-1.01996,1.65993l-0.71997,-0.73997l-0.66997,-1.47994l-0.76997,-0.22999l-0.41998,-0.89996l0.12,-1.36995l-0.55998,-0.92996l-1.78993,-0.37998l-0.50998,-1.75993l-2.22991,-0.24999l-0.21999,-2.78989l1.07996,-1.54994l0.02,-1.53994l-0.97996,-0.56998l-0.38998,-1.60994l-0.65997,-0.78997l-1.54994,-0.42998l-0.56998,-0.94996l0.05,-1.49994l-0.56998,-2.24991l0.14999,-0.88996l1.72993,-1.21995l0.69997,-0.94996l-0.28999,-1.20995l-1.21995,-1.21995l0.01,-0.67997l2.62989,-1.74993l-0.01,-1.31995l-0.85997,-2.18991l0.67997,-0.63997l-0.04,-1.88992l1.15995,-2.22991l-2.83989,-2.80989l-1.66993,0.18999l-0.48998,-1.84993l-0.70997,-0.41998l0.13999,-2.4699l0.72997,-1.40994l2.83989,-4.01984l-0.34999,-1.17995l0.34999,-0.82997l-2.4099,-1.76993l0.34999,-1.30995l-0.26999,-0.77997l-0.99996,0.03l-0.17999,-0.70997l1.29995,-1.14995l-0.19999,-1.84993l0.64997,-1.48994l0.88996,-1.28995l-0.15999,-1.04996l1.28995,-0.70997l-0.15999,-0.79997l1.31995,-0.35999l1.06996,-1.43994l0.98996,0.02l1.54994,1.13995l0.95996,-0.26999l0.37998,-1.72993l1.49994,-1.32995l1.41994,-0.05l1.17995,-0.50998l1.13995,-3.49986l-0.80997,-0.98996l-0.94996,-0.20999l0.48998,-1.81993l-1.82993,-0.72997l0.24999,-0.86997l-0.46998,-1.26995l0.25999,-1.27995l0.96996,0.37998l0.93996,-0.69997l1.58994,-0.12l0.11,-4.20983l-0.93996,-0.69997l-0.83997,0.03l0.60998,-2.31991l-0.79997,-0.43998l0.86997,-0.90996l1.23995,-1.87992l-0.33999,-0.83997l-0.98996,-0.64997l0.56998,-1.70993l1.02996,-1.26995l1.06996,-0.04l1.15995,1.04996l1.01996,-1.90992l0.13999,-0.84997l1.00996,-1.58994l-0.36999,-1.19995l0.1,-1.71993l0.77997,-0.36999l0.74997,-1.14995l0.93996,-0.16999l0.41998,0.70997l-0.39998,1.58994l0.77997,0.60998l-0.04,1.97992l0.48998,0.12999l0.29999,1.66993l-0.41998,0.59998l0.49998,2.84989l1.50994,1.28995l-0.21999,2.71989l0.52998,0.44998l0.63997,1.59994l-0.87996,1.00996l-0.22999,3.66985l-0.43998,1.23995l-0.71997,0.29999l-0.19999,1.14995l1.09996,1.16995l0.40998,1.65993l-0.12999,2.90988l-1.16995,0.92996l-0.05,1.06996l-0.57998,0.35999l-0.80997,2.06992l1.92992,0.94996l0.56998,3.04988l-0.82997,0.85997l0.91996,1.85993l1.18995,0.24999l1.54994,1.23995l1.11996,-1.49994l0.63997,-0.01l2.15991,-1.29995l1.07996,0.08l0.80997,1.04996l1.41994,0.03l1.29995,1.58994l0.18999,0.65997l-0.56998,1.10996l0.02,2.4699l1.11996,1.98992l0.79997,0.93996l0.55998,2.6199l0.24999,2.07992l0.52998,0.92996l0.79997,-0.32999l1.13995,0.64997l1.18995,2.10992l2.5899,0.26999l0.42998,-0.15999l2.31991,0.64997l0.71997,0.70997l0.95996,-0.99996l0.50998,-1.16995l1.61994,-1.59994"/></g></g></svg>