<svg version="1.1" xmlns="http://www.w3.org/2000/svg" xmlns:xlink="http://www.w3.org/1999/xlink" width="90" height="260" viewBox="0,0,90,260"><g transform="translate(-195,-50)"><g data-paper-data="{&quot;isPaintingLayer&quot;:true}" stroke="none" stroke-width="1" stroke-linecap="butt" stroke-linejoin="miter" stroke-miterlimit="10" stroke-dasharray="" stroke-dashoffset="0" style="mix-blend-mode: normal"><path d="M195,310v-260h90v260z" fill-opacity="0" fill="#000000" fill-rule="nonzero"/><g fill-rule="evenodd"><path d="M205,219h70c5.54,0 10,4.46 10,10v71c0,5.54 -4.46,10 -10,10h-70c-5.54,0 -10,-4.46 -10,-10v-71c0,-5.54 4.46,-10 10,-10z" fill="#12151a"/><path d="M205,219h70c5.54,0 10,4.46 10,10v17h-90v-17c0,-5.54 4.46,-10 10,-10z" fill="#31476d"/><path d="M203,254h14v24.25h-14z" fill="#4cd0a7"/><path d="M203,278h14v24h-14z" fill="#3098bd"/></g><g fill="#ffffff" fill-rule="nonzero"><g><path d="M228.45,260.56v-0.5879h-4.2725v-0.97753h10.09v0.97753h-4.3613v0.5879h5.6602v2.4541h-1.4834v-1.5723h-4.1768v2.6592h-1.456v-2.6592h-4.1016v1.5723h-1.4697v-2.4541zM233.2898,270.2602c0.69727,0.26432 1.5677,0.47396 2.6113,0.62891l-0.7998,1.1621c-1.46287,-0.25065 -2.6637,-0.68132 -3.6025,-1.292c-0.93427,-0.61067 -1.66117,-1.36947 -2.1807,-2.2764h-1.5107v2.1055c1.00713,-0.14128 1.94137,-0.29167 2.8027,-0.45118l0.0957,1.0186c-1.60413,0.38281 -3.43843,0.7155 -5.5029,0.99805l-0.40332,-1.2031c0.71547,-0.07747 1.20537,-0.13216 1.4697,-0.16406l0.082,-0.0137v-2.29h-1.4971c-0.0638,0.80207 -0.16862,1.44237 -0.31446,1.9209c-0.17317,0.57421 -0.45117,1.10968 -0.83398,1.6064l-1.2168,-1.0049c0.44661,-0.57878 0.72461,-1.25555 0.83399,-2.0303c0.05927,-0.41927 0.0889,-0.94107 0.0889,-1.5654v-2.8984h11.799v0.90918h-10.329v2.0986h10.917v0.96387h-1.5518l0.86817,0.57422c-0.51497,0.42838 -1.12337,0.82941 -1.8252,1.2031zM232.2234,269.73383c0.65625,-0.44661 1.17805,-0.86361 1.5654,-1.251h-2.9873c0.39193,0.5013 0.86589,0.9183 1.4219,1.251zM224.95,261.94773h2.9121v0.77246h-2.9121zM224.95,263.20553h2.9121v0.78614h-2.9121zM230.4939,261.94773h3.001v0.77246h-3.001zM230.4939,263.20553h3.001v0.78614h-3.001zM225.6951,265.99463h8.5107v0.8955h-8.5107z"/><path d="M244.29,259.94h5.3594v1.1484h-3.0352v1.1348h2.8438v1.1074h-2.8438v2.0371h-5.5029v-2.0371h-2.2422v1.2715c0,2.06447 -0.10938,3.69597 -0.32813,4.8945c-0.16862,0.91147 -0.44206,1.74317 -0.82031,2.4951l-1.2441,-0.98438c0.34635,-0.75193 0.58333,-1.67023 0.71094,-2.7549c0.11393,-0.95247 0.1709,-2.16927 0.1709,-3.6504v-4.6621h5.4072v-1.2305h1.5244zM238.8691,261.0884v1.1348h2.2422v-1.1348zM242.5673,261.0884v1.1348h2.5908v-1.1348zM242.5673,263.3306v1.0596h2.5908v-1.0596zM244.1532,270.5083c-1.31707,0.6836 -2.9896,1.20313 -5.0176,1.5586l-0.71094,-1.2578c1.90493,-0.22787 3.39743,-0.5765 4.4775,-1.0459c-0.92513,-0.66993 -1.71583,-1.46517 -2.3721,-2.3857h-0.94336v-1.1894h8.0049l0.71778,0.60156c-0.67907,1.0436 -1.6475,2.0257 -2.9053,2.9463c1.08007,0.43294 2.55207,0.75195 4.416,0.95703l-0.7998,1.292c-1.78647,-0.24153 -3.40887,-0.73373 -4.8672,-1.4766zM242.1229,267.3774c0.55143,0.64713 1.22137,1.2168 2.0098,1.709c0.88867,-0.57422 1.57453,-1.14389 2.0576,-1.709z"/><path d="M251.44,271.03v-1.5449c0.43294,-1.3444 1.61327,-2.65917 3.541,-3.9443l0.37598,-0.25293c0.8294,-0.55143 1.39907,-1.00259 1.709,-1.3535c0.34636,-0.39193 0.51954,-0.81576 0.51954,-1.2715c0,-0.41015 -0.12533,-0.76562 -0.37598,-1.0664c-0.3737,-0.45117 -0.93197,-0.67676 -1.6748,-0.67676c-1.1074,0 -2.10317,0.46257 -2.9873,1.3877l-1.1758,-1.0801c0.30989,-0.37826 0.67903,-0.69727 1.1074,-0.95703c0.916,-0.55599 1.93683,-0.83399 3.0625,-0.83399c0.875,0 1.6338,0.16634 2.2764,0.49902c0.55599,0.29167 0.98439,0.68817 1.2852,1.1895c0.278,0.47396 0.417,0.98666 0.417,1.5381c0,0.7246 -0.27572,1.39453 -0.82715,2.0098c-0.36914,0.41471 -1.05957,0.96615 -2.0713,1.6543l-0.4375,0.29394c-1.07093,0.7246 -1.7773,1.26237 -2.1191,1.6133c-0.41927,0.42839 -0.69727,0.81349 -0.83399,1.1553h6.3984v1.6406z"/></g><g><path d="M228.45,284.56v-0.5879h-4.2725v-0.97753h10.09v0.97753h-4.3613v0.5879h5.6602v2.4541h-1.4834v-1.5723h-4.1768v2.6592h-1.456v-2.6592h-4.1016v1.5723h-1.4697v-2.4541zM233.2898,294.2602c0.69727,0.26432 1.5677,0.47396 2.6113,0.62891l-0.7998,1.1621c-1.46287,-0.25065 -2.6637,-0.68132 -3.6025,-1.292c-0.93427,-0.61067 -1.66117,-1.36947 -2.1807,-2.2764h-1.5107v2.1055c1.00713,-0.14128 1.94137,-0.29167 2.8027,-0.45118l0.0957,1.0186c-1.60413,0.38281 -3.43843,0.7155 -5.5029,0.99805l-0.40332,-1.2031c0.71547,-0.07747 1.20537,-0.13216 1.4697,-0.16406l0.082,-0.0137v-2.29h-1.4971c-0.0638,0.80207 -0.16862,1.44237 -0.31446,1.9209c-0.17317,0.57421 -0.45117,1.10968 -0.83398,1.6064l-1.2168,-1.0049c0.44661,-0.57878 0.72461,-1.25555 0.83399,-2.0303c0.05927,-0.41927 0.0889,-0.94107 0.0889,-1.5654v-2.8984h11.799v0.90918h-10.329v2.0986h10.917v0.96387h-1.5518l0.86817,0.57422c-0.51497,0.42838 -1.12337,0.82941 -1.8252,1.2031zM232.2234,293.73383c0.65625,-0.44661 1.17805,-0.86361 1.5654,-1.251h-2.9873c0.39193,0.5013 0.86589,0.9183 1.4219,1.251zM224.95,285.94773h2.9121v0.77246h-2.9121zM224.95,287.20553h2.9121v0.78614h-2.9121zM230.4939,285.94773h3.001v0.77246h-3.001zM230.4939,287.20553h3.001v0.78614h-3.001zM225.6951,289.99463h8.5107v0.8955h-8.5107z"/><path d="M244.29,283.94h5.3594v1.1484h-3.0352v1.1348h2.8438v1.1074h-2.8438v2.0371h-5.5029v-2.0371h-2.2422v1.2715c0,2.06447 -0.10938,3.69597 -0.32813,4.8945c-0.16862,0.91147 -0.44206,1.74317 -0.82031,2.4951l-1.2441,-0.98438c0.34635,-0.75193 0.58333,-1.67023 0.71094,-2.7549c0.11393,-0.95247 0.1709,-2.16927 0.1709,-3.6504v-4.6621h5.4072v-1.2305h1.5244zM238.8691,285.0884v1.1348h2.2422v-1.1348zM242.5673,285.0884v1.1348h2.5908v-1.1348zM242.5673,287.3306v1.0596h2.5908v-1.0596zM244.1532,294.5083c-1.31707,0.6836 -2.9896,1.20313 -5.0176,1.5586l-0.71094,-1.2578c1.90493,-0.22787 3.39743,-0.5765 4.4775,-1.0459c-0.92513,-0.66993 -1.71583,-1.46517 -2.3721,-2.3857h-0.94336v-1.1894h8.0049l0.71778,0.60156c-0.67907,1.0436 -1.6475,2.0257 -2.9053,2.9463c1.08007,0.43294 2.55207,0.75195 4.416,0.95703l-0.7998,1.292c-1.78647,-0.24153 -3.40887,-0.73373 -4.8672,-1.4766zM242.1229,291.3774c0.55143,0.64713 1.22137,1.2168 2.0098,1.709c0.88867,-0.57422 1.57453,-1.14389 2.0576,-1.709z"/><path d="M254.29,295.03v-9.6592c-0.96613,0.32357 -1.8776,0.56283 -2.7344,0.71778l-0.33496,-1.3877c1.44467,-0.35091 2.62957,-0.75651 3.5547,-1.2168h1.3125v11.546z"/></g><g><path d="M219.164,232.04v5.4141c0,0.35091 0.15039,0.56283 0.45117,0.63575c0.30989,0.07747 1.01856,0.11621 2.126,0.11621c1.08007,0 1.79327,-0.05469 2.1396,-0.16406c0.19597,-0.0638 0.32357,-0.24154 0.38281,-0.53321c0.07747,-0.41015 0.11849,-0.89549 0.12305,-1.456l1.4287,0.40332c-0.07292,1.3444 -0.25749,2.20347 -0.55371,2.5772c-0.19597,0.24609 -0.49219,0.39193 -0.88867,0.4375c-0.62435,0.06836 -1.68391,0.10254 -3.1787,0.10254c-1.15753,0 -1.91633,-0.0319 -2.2764,-0.0957c-0.54232,-0.09115 -0.88639,-0.3304 -1.0322,-0.71777c-0.07292,-0.20508 -0.10938,-0.47852 -0.10938,-0.82031v-5.4209l-1.3057,0.45117l-0.32129,-1.3262l1.627,-0.56055v-3.6846h1.3877v3.2061l1.4697,-0.49903v-3.6025h1.374v3.124l2.29,-0.78614l0.71777,0.4375v5.1201c0,0.35547 -0.08431,0.61979 -0.25293,0.79297c-0.19141,0.19141 -0.5127,0.28711 -0.96387,0.28711c-0.36914,0 -0.76107,-0.0319 -1.1758,-0.0957l-0.22559,-1.3057c0.26888,0.06836 0.54232,0.10254 0.82031,0.10254c0.20052,0 0.32357,-0.04102 0.36914,-0.12305c0.04557,-0.06836 0.06836,-0.18229 0.06836,-0.34179v-3.2334l-1.6475,0.57422v5.5303h-1.374v-5.0586zM214.1396,229.8046v-3.3018h1.4697v3.3018h1.3262v1.3877h-1.3262v4.3476c0.47851,-0.16406 0.95248,-0.33496 1.4219,-0.51269l0.12988,1.3193c-1.47653,0.67447 -2.99183,1.23957 -4.5459,1.6953l-0.47852,-1.4561c0.7018,-0.18229 1.31703,-0.35547 1.8457,-0.51953c0.0638,-0.0228 0.11621,-0.03877 0.15723,-0.0479v-4.8262h-1.7363v-1.3877z"/><path d="M233.383,235.56c-0.97527,0.82487 -2.18523,1.50163 -3.6299,2.0303l-0.86816,-1.0527c1.1758,-0.38281 2.22627,-0.93198 3.1514,-1.6475l-0.23926,-0.11621c-0.88413,-0.42383 -1.85027,-0.85223 -2.8984,-1.2852l0.62891,-1.0391c1.1758,0.42839 2.2764,0.87729 3.3018,1.3467l0.2666,0.12305c1.153,-1.21227 2.02117,-2.79367 2.6045,-4.7442l1.3604,0.42383c-0.66537,1.987 -1.55177,3.63903 -2.6592,4.9561c0.04557,0.0228 0.08887,0.0456 0.12988,0.0684c0.64258,0.31901 1.48568,0.78614 2.5293,1.4014l-0.82715,1.1484c-0.875,-0.5332 -1.8252,-1.07097 -2.8506,-1.6133zM230.341,232.5932c-0.32813,-1.08467 -0.70183,-2.00067 -1.1211,-2.748l1.2852,-0.5127c0.44206,0.78387 0.82943,1.69303 1.1621,2.7275zM232.7472,232.04633c-0.33724,-1.05273 -0.71551,-1.97103 -1.1348,-2.7549l1.2305,-0.49219c0.52409,0.91147 0.91145,1.81153 1.1621,2.7002zM239.0636,227.14493v12.66h-1.5244v-0.71778h-9.0781v0.71778h-1.5107v-12.66zM228.4606,228.41643v9.3516h9.0781v-9.3516z"/><path d="M247.69,237.72c2.67513,-0.67447 4.0127,-2.208 4.0127,-4.6006c0,-1.0436 -0.26888,-1.9414 -0.80664,-2.6934c-0.60156,-0.84767 -1.51756,-1.39227 -2.748,-1.6338c-0.26888,2.1146 -0.63575,3.84637 -1.1006,5.1953c-0.31901,0.94333 -0.71551,1.83427 -1.1895,2.6728c-0.6836,1.194 -1.46063,1.791 -2.3311,1.791c-0.64713,0 -1.22363,-0.29167 -1.7295,-0.875c-0.32357,-0.36914 -0.58561,-0.82261 -0.78613,-1.3604c-0.26432,-0.69727 -0.39648,-1.44693 -0.39648,-2.249c0,-1.2988 0.35773,-2.4951 1.0732,-3.5889c0.7246,-1.11653 1.66567,-1.92773 2.8232,-2.4336c0.84307,-0.36914 1.7682,-0.55371 2.7754,-0.55371c1.57227,0 2.90757,0.42153 4.0059,1.2646c1.34893,1.03453 2.0234,2.4997 2.0234,4.3955c0,3.1764 -1.60643,5.19073 -4.8193,6.043zM246.6646,228.7376c-0.80667,0.09115 -1.48113,0.30762 -2.0234,0.64941c-0.34635,0.22331 -0.69042,0.51954 -1.0322,0.88868c-0.94793,1.0482 -1.4219,2.26273 -1.4219,3.6436c0,1.00713 0.20052,1.79553 0.60156,2.3652c0.24609,0.35091 0.48991,0.52636 0.73145,0.52636c0.32813,0 0.69726,-0.3623 1.1074,-1.0869c1.0026,-1.76367 1.68163,-4.09243 2.0371,-6.9863z"/><path d="M257.596,234.76v2.4814c0,0.36003 0.13216,0.5765 0.39648,0.64941c0.39193,0.10938 1.68846,0.16407 3.8896,0.16407c1.95507,0 3.17187,-0.05697 3.6504,-0.1709c0.22787,-0.05467 0.3737,-0.18227 0.4375,-0.38281c0.07747,-0.22787 0.139,-0.7588 0.18457,-1.5928l1.5107,0.46485c-0.05013,0.8978 -0.12304,1.51303 -0.21875,1.8457c-0.12305,0.43294 -0.35091,0.72689 -0.68359,0.88184c-0.23698,0.10937 -0.56511,0.17773 -0.98438,0.20507c-1.08007,0.07747 -2.49053,0.11621 -4.2314,0.11621c-2.43813,0 -3.88737,-0.04329 -4.3477,-0.12988c-0.51953,-0.0957 -0.8545,-0.32356 -1.0049,-0.68359c-0.07292,-0.18229 -0.10938,-0.41016 -0.10938,-0.6836v-7.0205l-0.06836,0.0547c-0.20963,0.15039 -0.45801,0.31674 -0.74512,0.49903l-0.93652,-1.1348c1.62693,-0.8932 3.00323,-2.16697 4.1289,-3.8213l0.95703,0.65625h3.8896l0.72461,0.75196c-0.60156,0.8522 -1.23046,1.6201 -1.8867,2.3037h4.3818v4.5459zM257.596,233.5432h2.9395v-2.0713h-2.9395zM262.0052,231.4719v2.0713h3.001v-2.0713zM260.4193,230.2141c0.58789,-0.61523 1.08919,-1.21907 1.5039,-1.8115h-3.1582c-0.50586,0.61979 -1.10743,1.22363 -1.8047,1.8115z"/></g></g></g></g></svg>