<svg xmlns="http://www.w3.org/2000/svg" viewBox="0 0 480 360" version="1.1" height="360" width="480">
 <path stop-color="#000000" opacity=".988" fill-rule="evenodd" fill="#12151a" d="m425 30h15c5.54 0 10 4.46 10 10v15h-25z"></path>
 <path style="font-feature-settings:normal;font-variant-alternates:normal;font-variant-caps:normal;font-variant-east-asian:normal;font-variant-ligatures:normal;font-variant-numeric:normal;font-variant-position:normal;font-variation-settings:normal;inline-size:0;isolation:auto;mix-blend-mode:normal;shape-margin:0;shape-padding:0;text-decoration-color:#000000;text-decoration-line:none;text-decoration-style:solid;text-indent:0;text-orientation:mixed;text-transform:none;white-space:normal" stop-color="#000000" shape-rendering="auto" image-rendering="auto" fill="#fff" color-rendering="auto" color="#000000" d="m433.01 37.25a0.75 0.75 0 0 0-0.53711 0.21875 0.75 0.75 0 0 0 0 1.0625l3.9688 3.9688-3.9688 3.9688a0.75 0.75 0 0 0 0 1.0625 0.75 0.75 0 0 0 1.0625 0l3.9688-3.9688 3.9688 3.9688a0.75 0.75 0 0 0 1.0625 0 0.75 0.75 0 0 0 0-1.0625l-3.9688-3.9688 3.9688-3.9688a0.75 0.75 0 0 0 0-1.0625 0.75 0.75 0 0 0-0.52539-0.21875 0.75 0.75 0 0 0-0.53711 0.21875l-3.9688 3.9688-3.9688-3.9688a0.75 0.75 0 0 0-0.52539-0.21875z"></path>
</svg>
