<svg version="1.1" xmlns="http://www.w3.org/2000/svg" xmlns:xlink="http://www.w3.org/1999/xlink" width="224" height="404" viewBox="0,0,224,404"><g transform="translate(-128,-6)"><g data-paper-data="{&quot;isPaintingLayer&quot;:true}" stroke="none" stroke-miterlimit="10" stroke-dasharray="" stroke-dashoffset="0" style="mix-blend-mode: normal"><path d="M138,6h204c5.54,0 10,4.46 10,10v384c0,5.54 -4.46,10 -10,10h-204c-5.54,0 -10,-4.46 -10,-10v-384c0,-5.54 4.46,-10 10,-10z" fill-opacity="0.8" fill="#1d2a41" fill-rule="evenodd" stroke-width="12" stroke-linecap="round" stroke-linejoin="round"/><g fill="#ffffff" fill-rule="nonzero" stroke-width="1" stroke-linecap="butt" stroke-linejoin="miter"><path d="M179.65599,169.465l0.92188,5.6719l10.812,-0.75l0.23438,3.2031l-10.5,0.73438l1.0312,6.2812l11.422,-0.82812l0.25,3.1875l-11.172,0.875l1.6406,9.8438l-3.6875,0.45312l-1.625,-10.016l-12.938,1l-0.25,-3.2969l12.641,-0.9375l-1.0312,-6.2969l-10.141,0.70312l-0.21875,-3.2344l9.8281,-0.67188l-0.90625,-5.5z"/><path d="M205.90599,174.558l0.96875,5.3125l11.516,-1.8594l1.9844,1.4688c-1.18747,4.90627 -3.2708,8.74493 -6.25,11.516l-2.5469,-2.0469c1.33333,-1.08333 2.45833,-2.3854 3.375,-3.9062c0.7292,-1.19793 1.2344,-2.39063 1.5156,-3.5781l-9.0625,1.5l2.5938,14.594l-3.2031,0.57812l-2.6562,-14.656l-6.5156,1.0938l-0.45312,-3.1719l6.4062,-1.0312l-0.96875,-5.2656z"/><path d="M235.74999,178.105c-3.29167,-1.46873 -6.71367,-2.6458 -10.266,-3.5312l1.0938,-3.3594c4.1146,0.93747 7.5676,2.10413 10.359,3.5zM225.87499,193.652c5.15627,-0.4375 9.10427,-1.35937 11.844,-2.7656c3.2292,-1.66667 5.70837,-4.22397 7.4375,-7.6719c1.125,-2.2292 2.03647,-5.14587 2.7344,-8.75l3,2.2031c-0.84373,3.85413 -1.86457,6.91663 -3.0625,9.1875c-2.16667,4.1354 -5.47917,7.1302 -9.9375,8.9844c-2.81253,1.16667 -6.57287,2 -11.281,2.5z"/><path d="M260.37999,169.715h3.5781v7.3594l15.016,-2.0156l1.9531,1.9531c-1.15627,3.2292 -2.5573,5.83857 -4.2031,7.8281c-1.125,1.3646 -2.45833,2.52087 -4,3.4688l-2.7188,-2.2656c1.81253,-1.0104 3.3542,-2.33853 4.625,-3.9844c0.8854,-1.14587 1.53123,-2.32817 1.9375,-3.5469l-12.609,1.8281v10.781c0,1.2396 0.42707,1.9792 1.2812,2.2188c0.7396,0.21875 2.375,0.32812 4.9062,0.32812c2.875,0 5.85937,-0.15625 8.9531,-0.46875v3.5625c-2.82293,0.20833 -5.7344,0.3125 -8.7344,0.3125c-4.15627,0 -6.7396,-0.20833 -7.75,-0.625c-1.4896,-0.60417 -2.2344,-2.04687 -2.2344,-4.3281v-11.266l-6.5625,0.95312l-0.34375,-3.3281l6.9062,-0.92188z"/><path d="M290.65999,171.168h3.5156v5.6875c0,5.44793 -0.40627,9.42693 -1.2188,11.937c-1.07293,3.32293 -3.32293,6.09377 -6.75,8.3125l-2.3906,-2.7812c2.375,-1.66667 4.04687,-3.39583 5.0156,-5.1875c0.81253,-1.5104 1.349,-3.53643 1.6094,-6.0781c0.14583,-1.43747 0.21875,-3.48433 0.21875,-6.1406zM298.65999,170.26175h3.5156v22.203c2.07293,-1.07293 3.89063,-2.59897 5.4531,-4.5781c1.70833,-2.16667 2.98437,-4.73437 3.8281,-7.7031l2.75,2.6562c-1.04167,3.09373 -2.46873,5.73437 -4.2812,7.9219c-2.28127,2.7604 -5.27087,4.93227 -8.9688,6.5156l-2.2969,-1.9844z"/></g><g fill="#ffffff" fill-rule="nonzero" stroke-width="1" stroke-linecap="butt" stroke-linejoin="miter"><path d="M166.59599,214.88h10.152v1.8013h-10.152zM177.99299,227.647c-1.78747,0.27115 -3.68557,0.40673 -5.6943,0.40673c-2.06413,0 -3.72153,-0.19368 -4.9722,-0.58105c-0.48698,-0.14941 -0.93798,-0.38737 -1.353,-0.71387c-0.63639,-0.50911 -0.95459,-1.21468 -0.95459,-2.1167c0,-1.13447 0.43717,-2.1278 1.3115,-2.98l1.4443,0.95459c-0.53125,0.62533 -0.79688,1.21469 -0.79688,1.7681c0,0.61979 0.37353,1.05973 1.1206,1.3198c0.39844,0.14388 1.03207,0.26009 1.9009,0.34864c0.7194,0.07747 1.4637,0.11621 2.2329,0.11621c1.9424,0 3.77687,-0.14111 5.5034,-0.42334z"/><path d="M188.70899,226.76c3.2484,-0.819 4.8726,-2.68113 4.8726,-5.5864c0,-1.26727 -0.3265,-2.35743 -0.97949,-3.2705c-0.73047,-1.02933 -1.84277,-1.69063 -3.3369,-1.9839c-0.3265,2.56773 -0.77197,4.6706 -1.3364,6.3086c-0.38737,1.14553 -0.86881,2.2274 -1.4443,3.2456c-0.83007,1.44987 -1.7736,2.1748 -2.8306,2.1748c-0.7858,0 -1.48583,-0.35417 -2.1001,-1.0625c-0.39291,-0.44825 -0.7111,-0.99888 -0.95459,-1.6519c-0.32096,-0.84667 -0.48144,-1.757 -0.48144,-2.731c0,-1.57713 0.4344,-3.02977 1.3032,-4.3579c0.87987,-1.3558 2.0226,-2.34083 3.4282,-2.9551c1.02373,-0.44825 2.1471,-0.67237 3.3701,-0.67237c1.9092,0 3.53063,0.51187 4.8643,1.5356c1.638,1.2562 2.457,3.03533 2.457,5.3374c0,3.85707 -1.9507,6.30303 -5.8521,7.3379zM187.46389,215.853c-0.97947,0.11067 -1.79847,0.37353 -2.457,0.78857c-0.42057,0.27116 -0.83837,0.63086 -1.2534,1.0791c-1.15107,1.2728 -1.7266,2.74757 -1.7266,4.4243c0,1.223 0.24349,2.18037 0.73047,2.8721c0.29883,0.42611 0.59489,0.63916 0.88818,0.63916c0.39844,0 0.84667,-0.43993 1.3447,-1.3198c1.21747,-2.1416 2.042,-4.9694 2.4736,-8.4834z"/><path d="M205.73399,225.31v3.9761h-1.8345v-3.8931l-2.7061,0.0996c-1.0016,0.03873 -2.1969,0.07193 -3.5859,0.0996l-0.53955,-1.5273l1.6934,-0.008l0.73877,-0.008l2.54,-0.0166c-0.06087,-0.04427 -0.14388,-0.10237 -0.24902,-0.17432c-0.86327,-0.63086 -1.70717,-1.17873 -2.5317,-1.6436l1.2036,-1.0376c0.39291,0.24349 0.67237,0.42334 0.83838,0.53955c0.40397,-0.3099 0.82731,-0.68897 1.27,-1.1372h-5.1133v-7.0557h7.2798v1.187h-2.3823v0.90478h2.3823v2.8887h-2.3823v0.97119h2.6562v1.104h-1.6021l0.83008,0.54785c-0.60873,0.49805 -1.23683,0.94628 -1.8843,1.3447c0.58659,0.43717 1.07079,0.81624 1.4526,1.1372c1.23407,-0.8688 2.43213,-1.79297 3.5942,-2.7725l1.3198,1.0044c-0.79133,0.62533 -1.86767,1.33643 -3.229,2.1333h0.25732c1.0182,-0.02213 2.09453,-0.06087 3.229,-0.11621l0.39014,-0.0249c-0.29883,-0.28776 -0.63363,-0.57275 -1.0044,-0.85498l1.2949,-0.79688c1.07913,0.74153 2.10567,1.6657 3.0796,2.7725l-1.4111,0.96289c-0.35417,-0.42057 -0.63639,-0.73877 -0.84668,-0.95459c-0.06641,0.00533 -0.15218,0.01363 -0.25732,0.0249c-1.11233,0.11621 -2.46813,0.21858 -4.0674,0.30712zM200.85309,214.71h-1.7598v0.90478h1.7598zM203.13579,216.6358h-4.0425v0.84668h4.0425zM200.85309,218.5035h-1.7598v0.97119h1.7598zM209.95079,218.03035c0.03874,0.02767 0.08024,0.05533 0.12451,0.083c0.7526,0.52018 1.72103,0.99055 2.9053,1.4111l-0.98779,1.4277c-1.1068,-0.44825 -2.1527,-1.05975 -3.1377,-1.8345c-0.8024,0.653 -1.6878,1.2147 -2.6562,1.6851l-1.104,-1.2949c0.97947,-0.34863 1.86213,-0.83283 2.648,-1.4526c-0.91307,-1.02373 -1.5633,-2.0807 -1.9507,-3.1709h-0.51465v-1.3945h6.1011l0.85498,0.69727c-0.61426,1.51073 -1.37516,2.79183 -2.2827,3.8433zM208.79699,217.05916c0.57552,-0.64193 1.03482,-1.36686 1.3779,-2.1748h-2.8223c0.37077,0.84667 0.8522,1.5716 1.4443,2.1748zM197.06799,227.81716c1.4886,-0.53125 2.7171,-1.25065 3.6855,-2.1582l1.519,0.93799c-1.2894,1.18427 -2.59817,2.0752 -3.9263,2.6728zM211.53599,229.06226c-1.18427,-0.90753 -2.5207,-1.76803 -4.0093,-2.5815l1.2368,-1.0874c1.54947,0.69173 2.91633,1.44987 4.1006,2.2744z"/><path d="M223.79699,216.62h4.3496v6.6489h-5.9351c0.72493,0.65853 1.389,1.41667 1.9922,2.2744l-1.4277,1.1455c-0.7526,-1.14 -1.4388,-1.99773 -2.0586,-2.5732l1.1621,-0.84668h-6.209v-1.4111h10.542v-1.3115h-9.9692v-1.3115h9.9692v-1.2368h-10.002v-0.61426c-0.46485,0.3265 -0.95735,0.63916 -1.4775,0.93799l-1.1206,-1.3281c1.83173,-0.9352 3.37843,-2.24397 4.6401,-3.9263l1.1621,0.69727h5.437l0.94629,0.76367c-0.56445,0.7028 -1.18425,1.35857 -1.8594,1.9673zM221.68029,216.62c0.59765,-0.49805 1.07079,-0.97395 1.4194,-1.4277h-4.4326c-0.47038,0.53125 -0.96288,1.00715 -1.4775,1.4277zM213.85269,227.892c0.6696,-1.09573 1.1621,-2.34913 1.4775,-3.7602l1.7847,0.53125c-0.33757,1.74313 -0.86603,3.18193 -1.5854,4.3164zM218.42639,224.2812h1.8179v2.3491c0,0.34863 0.09408,0.55615 0.28223,0.62256c0.22135,0.07194 0.75262,0.10791 1.5938,0.10791c1.01267,0 1.6795,-0.03043 2.0005,-0.0913c0.21582,-0.03873 0.35417,-0.16048 0.41504,-0.36523c0.08854,-0.27669 0.14941,-0.76643 0.18262,-1.4692l1.7847,0.59765c-0.05534,1.29493 -0.26563,2.1167 -0.63086,2.4653c-0.23795,0.22135 -0.58382,0.35416 -1.0376,0.39843c-0.70833,0.0664 -1.67123,0.0996 -2.8887,0.0996c-1.48307,0 -2.4266,-0.06917 -2.8306,-0.20752c-0.32096,-0.11067 -0.52571,-0.30712 -0.61426,-0.58935c-0.04981,-0.16048 -0.07471,-0.37077 -0.07471,-0.63086zM228.55339,228.5146c-0.69727,-1.62693 -1.4222,-2.94677 -2.1748,-3.9595l1.5273,-0.92969c0.94073,1.26173 1.6961,2.54007 2.2661,3.835z"/><path d="M239.06999,219.86v6.5742c0,0.42611 0.18262,0.68343 0.54785,0.77197c0.3763,0.09408 1.2368,0.14112 2.5815,0.14112c1.31153,0 2.1776,-0.06641 2.5982,-0.19922c0.23795,-0.07747 0.3929,-0.29329 0.46484,-0.64746c0.09408,-0.49805 0.14389,-1.08741 0.14942,-1.7681l1.7349,0.48975c-0.08854,1.63247 -0.31266,2.6756 -0.67236,3.1294c-0.23796,0.29883 -0.59766,0.47591 -1.0791,0.53125c-0.75813,0.08301 -2.04477,0.12451 -3.8599,0.12451c-1.4056,0 -2.327,-0.03874 -2.7642,-0.11621c-0.65853,-0.11067 -1.07633,-0.4012 -1.2534,-0.87158c-0.08854,-0.24902 -0.13281,-0.58105 -0.13281,-0.99609v-6.5825l-1.5854,0.54785l-0.39013,-1.6104l1.9756,-0.68067v-4.4741h1.6851v3.8931l1.7847,-0.60596v-4.3745h1.6685v3.7935l2.7808,-0.95459l0.87158,0.53125v6.2173c0,0.43164 -0.10238,0.7526 -0.30713,0.96289c-0.23242,0.23243 -0.62255,0.34864 -1.1704,0.34864c-0.44824,0 -0.92414,-0.03874 -1.4277,-0.11622l-0.27393,-1.5854c0.3265,0.08301 0.65853,0.12451 0.99609,0.12451c0.24349,0 0.39291,-0.04981 0.44825,-0.14942c0.05533,-0.08301 0.083,-0.22135 0.083,-0.41504v-3.9263l-2.0005,0.69727v6.7153h-1.6685v-6.1426zM232.96889,217.1456v-4.0093h1.7847v4.0093h1.6104v1.6851h-1.6104v5.2793c0.58106,-0.19922 1.15659,-0.40674 1.7266,-0.62256l0.15771,1.6021c-1.79293,0.819 -3.63293,1.5052 -5.52,2.0586l-0.58105,-1.7681c0.8522,-0.22135 1.59927,-0.43164 2.2412,-0.63086c0.07747,-0.02767 0.14111,-0.04703 0.19092,-0.0581v-5.8604h-2.1084v-1.6851z"/><path d="M254.92999,215.37v-0.71387h-5.188v-1.187h12.252v1.187h-5.2959v0.71387h6.873v2.98h-1.8013v-1.9092h-5.0718v3.229h-1.7681v-3.229h-4.9805v1.9092h-1.7847v-2.98zM260.80699,227.149c0.84667,0.32096 1.90363,0.57552 3.1709,0.76367l-0.97119,1.4111c-1.7764,-0.30436 -3.23457,-0.82729 -4.3745,-1.5688c-1.13447,-0.74153 -2.01713,-1.66293 -2.648,-2.7642h-1.8345v2.5566c1.223,-0.17155 2.35743,-0.35417 3.4033,-0.54785l0.11621,1.2368c-1.94793,0.46485 -4.1753,0.86881 -6.6821,1.2119l-0.48974,-1.4609c0.8688,-0.09407 1.4637,-0.16048 1.7847,-0.19922l0.0996,-0.0166v-2.7808h-1.8179c-0.07747,0.97393 -0.20475,1.75143 -0.38183,2.3325c-0.21029,0.69727 -0.54785,1.3475 -1.0127,1.9507l-1.4775,-1.2202c0.54232,-0.7028 0.87989,-1.52457 1.0127,-2.4653c0.07194,-0.50911 0.10791,-1.14275 0.10791,-1.9009v-3.5195h14.327v1.104h-12.542v2.5483h13.256v1.1704h-1.8843l1.0542,0.69726c-0.62532,0.52019 -1.36409,1.00715 -2.2163,1.4609zM259.51209,226.50984c0.79687,-0.54232 1.4305,-1.04865 1.9009,-1.519h-3.6274c0.47591,0.60872 1.05145,1.11505 1.7266,1.519zM250.68009,217.05524h3.5361v0.93799h-3.5361zM250.68009,218.58254h3.5361v0.95459h-3.5361zM257.41199,217.05524h3.644v0.93799h-3.644zM257.41199,218.58254h3.644v0.95459h-3.644zM251.58479,221.96924h10.334v1.0874h-10.334z"/><path d="M268.68999,225.67c0.02767,0.02767 0.06364,0.06364 0.10791,0.10791c0.47591,0.48698 1.01271,0.84115 1.6104,1.0625c0.96287,0.35417 2.14157,0.53125 3.5361,0.53125h7.2715c-0.21029,0.40397 -0.39014,0.92971 -0.53955,1.5772h-6.7817c-1.87047,0 -3.29267,-0.24626 -4.2666,-0.73877c-0.57553,-0.29329 -1.12616,-0.72493 -1.6519,-1.2949c-0.78027,0.97947 -1.56883,1.7874 -2.3657,2.4238l-0.92969,-1.6768c0.83007,-0.52572 1.58267,-1.08189 2.2578,-1.6685v-4.2832h-2.125v-1.6353h3.8765zM274.09379,223.0636c-1.01267,1.33367 -2.2384,2.4266 -3.6772,3.2788l-1.1289,-1.27c1.66567,-0.819 3.12107,-1.97003 4.3662,-3.4531h-3.4116v-4.2168h3.8516v-1.1372h-4.499v-1.4941h4.499v-1.6352h1.7017v1.6352h4.6484v1.4941h-4.6484v1.1372h4.001v4.2168h-4.001v0.32373c1.54393,0.6696 3.11,1.51903 4.6982,2.5483l-1.0708,1.4277c-1.10127,-0.87433 -2.3104,-1.70717 -3.6274,-2.4985v3.4697h-1.7017zM274.09379,218.6974h-2.2163v1.6602h2.2163zM275.79549,218.6974v1.6602h2.3491v-1.6602zM267.60259,217.4855c-0.79133,-1.2396 -1.62417,-2.29933 -2.4985,-3.1792l1.3613,-1.0542c0.9684,0.902 1.8289,1.923 2.5815,3.063z"/><path d="M285.12999,214.87v-1.7349h1.7349v1.7349h2.5815v1.4609h-2.5815v1.4277h2.9385v1.4775h-0.9878c-0.17708,0.65853 -0.41504,1.3558 -0.71387,2.0918h1.6021v1.4443h-2.8389v1.5356h2.731v1.4775h-2.731v3.5029h-1.7349v-3.5029h-2.9302v-1.4775h2.9302v-1.5356h-3.063v-1.4443h1.5273c-0.17708,-0.736 -0.3929,-1.43327 -0.64746,-2.0918h-1.2202v-1.4775h3.4033v-1.4277h-2.7061v-1.4609zM287.19689,219.2362h-2.6396c0.18815,0.52572 0.39014,1.22299 0.60596,2.0918h1.3779c0.28776,-0.70833 0.50635,-1.4056 0.65576,-2.0918zM297.26589,213.7328v3.8848c0,0.48145 -0.08854,0.82178 -0.26563,1.021c-0.21029,0.23795 -0.65022,0.35693 -1.3198,0.35693c-0.65299,0 -1.30599,-0.02767 -1.959,-0.083l-0.28222,-1.4941c0.9186,0.09961 1.50243,0.14942 1.7515,0.14942c0.26009,0 0.39014,-0.11344 0.39014,-0.34033v-2.0005h-3.6357v4.8228h4.7065l0.98779,0.84668c-0.29883,1.75973 -0.84389,3.33133 -1.6352,4.7148l-0.0913,0.16602c0.60873,0.7028 1.36963,1.34473 2.2827,1.9258l-0.92968,1.5522c-0.87433,-0.56445 -1.6546,-1.23959 -2.3408,-2.0254c-0.59213,0.7526 -1.25896,1.46093 -2.0005,2.125l-0.97949,-1.3613v1.2949h-1.6851v-15.556zM291.94509,221.5438v6.2754c0.68067,-0.46484 1.33643,-1.11784 1.9673,-1.959c-0.84667,-1.306 -1.44157,-2.7448 -1.7847,-4.3164zM294.83379,224.391c0.49251,-0.9518 0.81348,-1.90087 0.96289,-2.8472h-2.1416c0.27116,1.06253 0.66406,2.0116 1.1787,2.8472z"/><path d="M309.26999,213.75h1.8179v3.0049h3.3867v1.6519h-3.3867v5.0967c1.31153,0.60319 2.60923,1.44985 3.8931,2.54l-0.92968,1.6436c-1.08467,-0.94627 -2.078,-1.69887 -2.98,-2.2578c-0.09961,1.3558 -0.58105,2.26333 -1.4443,2.7226c-0.48145,0.25456 -1.13998,0.38184 -1.9756,0.38184c-0.90753,0 -1.6961,-0.16325 -2.3657,-0.48975c-1.01267,-0.49251 -1.519,-1.31151 -1.519,-2.457c0,-0.902 0.3846,-1.61863 1.1538,-2.1499c0.7028,-0.48698 1.6048,-0.73047 2.706,-0.73047c0.50358,0 1.05145,0.06364 1.6436,0.19092v-4.4907h-5.3374v-1.6519h5.3374zM309.26999,224.508c-0.64746,-0.20475 -1.22299,-0.30713 -1.7266,-0.30713c-0.48144,0 -0.89094,0.07471 -1.2285,0.22412c-0.53125,0.22689 -0.79688,0.59765 -0.79688,1.1123c0,0.42057 0.19369,0.74984 0.58106,0.98779c0.3763,0.23242 0.87987,0.34863 1.5107,0.34863c1.1068,0 1.6602,-0.62257 1.6602,-1.8677zM300.25539,228.5007c-0.19369,-1.8262 -0.29053,-3.74647 -0.29053,-5.7608c0,-3.1432 0.21029,-6.13977 0.63086,-8.9897l1.8262,0.26562c-0.41504,2.45707 -0.62256,5.11333 -0.62256,7.9688c0,2.09733 0.10514,4.1753 0.31543,6.2339z"/><path d="M182.95699,236.03h6.4248l0.83838,0.85498c-0.22689,1.68227 -0.51741,3.12107 -0.87158,4.3164c-0.38737,1.33367 -0.93523,2.63137 -1.6436,3.8931c0.89093,1.36687 1.8981,2.48193 3.0215,3.3452l-1.0874,1.8843c-1.14553,-1.0404 -2.13333,-2.2357 -2.9634,-3.5859c-0.6696,0.94073 -1.2728,1.68503 -1.8096,2.2329c-0.55339,0.56999 -1.15659,1.06249 -1.8096,1.4775l-1.1704,-1.602c1.4388,-0.819 2.70607,-2.1001 3.8018,-3.8433c-0.02213,-0.04427 -0.04427,-0.08577 -0.06641,-0.12451c-0.64193,-1.28387 -1.15933,-2.81673 -1.5522,-4.5986c-0.22135,-1.0016 -0.37077,-1.8566 -0.44824,-2.565h-0.97119v-1.0376h-0.79688v13.854h-1.7017v-3.3784l-0.53955,0.13281c-1.66567,0.43165 -3.2594,0.78305 -4.7812,1.0542l-0.54785,-1.7681c0.7526,-0.09961 1.27277,-0.17155 1.5605,-0.21582v-9.6787h-1.2202v-1.6187h8.334zM180.15129,236.67746h-2.6562v1.9839h2.6562zM180.15129,240.07246h-2.6562v2.0088h2.6562zM180.15129,243.45916h-2.6562v2.6396c0.28776,-0.0498 0.50358,-0.08577 0.64746,-0.10791c0.44271,-0.07194 1.11231,-0.19092 2.0088,-0.35693zM185.23139,237.71506c0.22689,2.0918 0.70279,3.92903 1.4277,5.5117c0.77473,-1.64353 1.32537,-3.48077 1.6519,-5.5117z"/><path d="M197.74899,241.99c-0.55339,1.0348 -1.12062,1.8123 -1.7017,2.3325c-0.49805,0.44824 -0.95458,0.67236 -1.3696,0.67236c-0.53125,0 -0.96012,-0.3597 -1.2866,-1.0791c-0.33757,-0.7526 -0.50635,-1.9313 -0.50635,-3.5361c0,-1.61587 0.18815,-3.36733 0.56445,-5.2544l1.8179,0.27393c-0.36523,1.87047 -0.54785,3.45313 -0.54785,4.748c0,1.7432 0.12451,2.6148 0.37354,2.6148c0.09407,0 0.25455,-0.13281 0.48144,-0.39844c0.35417,-0.39843 0.7277,-0.98503 1.1206,-1.7598zM196.48729,248.4895c1.69887,-0.47591 2.97997,-1.18701 3.8433,-2.1333c1.05693,-1.1566 1.5854,-2.9053 1.5854,-5.2461c0,-1.7764 -0.17155,-3.77137 -0.51465,-5.9849l1.9009,-0.18262c0.36523,2.23567 0.54785,4.31917 0.54785,6.2505c0,3.13213 -0.80517,5.38717 -2.4155,6.7651c-0.97947,0.84113 -2.2993,1.5384 -3.9595,2.0918z"/><path d="M221.92099,239.17v9.7119c0,0.49805 -0.08854,0.86329 -0.26562,1.0957c-0.22689,0.30436 -0.69172,0.45654 -1.3945,0.45654c-0.79133,0 -1.55223,-0.0415 -2.2827,-0.12451l-0.34033,-1.7183c0.8024,0.11621 1.44987,0.17431 1.9424,0.17431c0.25456,0 0.41504,-0.05534 0.48144,-0.16601c0.04981,-0.07747 0.07471,-0.19922 0.07471,-0.36524v-2.1084h-6.3003v4.4077h-1.7847v-11.364h3.9927v-4.7896h1.8013v4.7896zM220.13629,240.6143h-6.3003v1.3613h6.3003zM220.13629,243.3369h-6.3003v1.4277h6.3003zM209.92629,238.3896c-0.76367,-0.94627 -1.70443,-1.84 -2.8223,-2.6812l1.2534,-1.2451c1.1566,0.79133 2.09183,1.64077 2.8057,2.5483zM209.31203,242.5898c-0.99053,-1.15107 -1.90917,-2.05033 -2.7559,-2.6978l1.2451,-1.2783c0.99607,0.68067 1.93407,1.54117 2.814,2.5815zM206.89653,249.0644c1.04033,-1.40007 2.0143,-3.1958 2.9219,-5.3872l1.4443,1.1206c-0.79133,2.06967 -1.7321,3.96777 -2.8223,5.6943zM213.13873,238.8134c-0.37077,-1.068 -0.89923,-2.17753 -1.5854,-3.3286l1.6519,-0.71386c0.51465,0.82453 1.02375,1.91747 1.5273,3.2788zM219.19003,238.25724c0.66406,-1.14553 1.17869,-2.3519 1.5439,-3.6191l1.7681,0.69727c-0.44824,1.18427 -1.04314,2.3851 -1.7847,3.6025z"/><path d="M224.21999,237.66h6.6655c-0.3597,-0.94627 -0.68896,-1.88703 -0.98779,-2.8223l1.8179,-0.11621c0.28776,0.985 0.63363,1.9645 1.0376,2.9385h6.1343v1.7017h-5.354c0.71387,1.47753 1.6076,3.0187 2.6812,4.6235l-1.7432,0.83008c-1.18427,-1.79293 -2.15547,-3.6108 -2.9136,-5.4536h-7.3379zM236.28899,249.904c-1.10127,0.06087 -2.07523,0.0913 -2.9219,0.0913c-2.30207,0 -3.9982,-0.17985 -5.0884,-0.53955c-1.97007,-0.64193 -2.9551,-1.85383 -2.9551,-3.6357c0,-1.09573 0.34033,-1.9784 1.021,-2.648l1.5605,0.84668c-0.45377,0.44824 -0.68066,1.03484 -0.68066,1.7598c0,0.92413 0.49803,1.5716 1.4941,1.9424c0.87987,0.32649 2.35187,0.48974 4.416,0.48974c0.87433,0 1.85937,-0.0415 2.9551,-0.12451z"/><path d="M244.10999,234.76h1.8345v4.6899c1.31707,-1.36687 2.37127,-2.30487 3.1626,-2.814c0.736,-0.47591 1.49967,-0.71387 2.291,-0.71387c0.79687,0 1.4388,0.22412 1.9258,0.67237c0.64193,0.59765 0.96289,1.38069 0.96289,2.3491c0,0.25455 -0.0332,0.59212 -0.0996,1.0127c-0.48698,3.0934 -0.73047,5.235 -0.73047,6.4248c0,0.50911 0.13005,0.76367 0.39014,0.76367c0.16601,0 0.3846,-0.09408 0.65576,-0.28223c0.56999,-0.3929 1.14552,-1.0376 1.7266,-1.9341l0.68067,1.9009c-0.35417,0.56445 -0.7941,1.06525 -1.3198,1.5024c-0.60872,0.50911 -1.25895,0.76367 -1.9507,0.76367c-0.65853,0 -1.17039,-0.22965 -1.5356,-0.68896c-0.3099,-0.39291 -0.46485,-1.04867 -0.46485,-1.9673c0,-0.69727 0.09131,-1.74593 0.27393,-3.146c0.23242,-1.75973 0.38737,-3.06573 0.46484,-3.918c0.01107,-0.13835 0.0166,-0.25456 0.0166,-0.34863c0,-0.48698 -0.10237,-0.86051 -0.30712,-1.1206c-0.19369,-0.24902 -0.46208,-0.37353 -0.80518,-0.37353c-1.1566,0 -2.93573,1.54117 -5.3374,4.6235v7.8359h-1.8345v-5.7441c-0.92413,1.29493 -1.77633,2.5179 -2.5566,3.6689l-0.86328,-1.9673c1.31153,-1.5882 2.4515,-3.1017 3.4199,-4.5405v-2.1084h-2.9136v-1.6684h2.9136z"/><path d="M264.94999,234.77h1.8345v2.0918h5.2212v1.5772h-5.2212v1.9756h4.9307v1.5605h-4.9307v2.565c1.97007,0.66406 3.91247,1.66293 5.8272,2.9966l-0.9795,1.5772c-1.44987,-1.08467 -3.06573,-2.04203 -4.8476,-2.8721c-0.04427,0.94627 -0.22688,1.6795 -0.54785,2.1997c-0.55892,0.902 -1.66015,1.353 -3.3037,1.353c-1.26727,0 -2.2855,-0.23796 -3.0547,-0.71387c-0.85773,-0.53125 -1.2866,-1.25065 -1.2866,-2.1582c0,-1.08467 0.5783,-1.88707 1.7349,-2.4072c0.77473,-0.34309 1.7819,-0.51464 3.0215,-0.51464c0.48697,0 1.02097,0.03874 1.602,0.11621v-2.1416h-5.8853v-1.5605h5.8853v-1.9756h-6.2422v-1.5772h6.2422zM264.94999,245.661c-0.65853,-0.13835 -1.2894,-0.20752 -1.8926,-0.20752c-0.736,0 -1.33367,0.10791 -1.793,0.32373c-0.54785,0.26009 -0.82178,0.63086 -0.82178,1.1123c0,0.40397 0.21305,0.73046 0.63916,0.97949c0.43164,0.25456 1.00717,0.38184 1.7266,0.38184c0.8522,0 1.4388,-0.22689 1.7598,-0.68067c0.25456,-0.35417 0.38184,-0.88263 0.38184,-1.5854z"/><path d="M275.60999,235.08h1.959v9.8945c0,2.08627 1.0957,3.1294 3.2871,3.1294c1.44433,0 2.62857,-0.66683 3.5527,-2.0005c0.59765,-0.85773 1.13445,-2.18587 1.6104,-3.9844l1.6851,1.021c-0.56445,1.99773 -1.24235,3.49187 -2.0337,4.4824c-1.24513,1.54393 -2.8638,2.3159 -4.856,2.3159c-2.08073,0 -3.5472,-0.64193 -4.3994,-1.9258c-0.53678,-0.8024 -0.80517,-1.83723 -0.80517,-3.1045z"/><path d="M289.42999,237.34h3.8765c0.15495,-0.6862 0.32927,-1.5744 0.52295,-2.6646l1.876,0.23242c-0.16601,0.85773 -0.3431,1.66843 -0.53125,2.4321h5.5283v1.6518h-5.9185c-1.1068,4.42153 -2.32977,8.08787 -3.6689,10.999l-1.8345,-0.64746c1.4554,-3.22627 2.6673,-6.6766 3.6357,-10.351h-3.4863zM304.12199,249.55c-0.89647,0.11621 -1.90363,0.17431 -3.0215,0.17431c-1.8096,0 -3.17647,-0.15495 -4.1006,-0.46484c-0.35417,-0.12175 -0.65576,-0.2933 -0.90478,-0.51465c-0.48698,-0.44271 -0.73047,-1.00717 -0.73047,-1.6934c0,-0.7028 0.22689,-1.3226 0.68066,-1.8594l1.4775,0.87158c-0.17155,0.21582 -0.25732,0.45378 -0.25732,0.71387c0,0.44824 0.20475,0.73877 0.61426,0.87158c0.62532,0.19922 1.51625,0.29883 2.6728,0.29883c1.1234,0 2.244,-0.08301 3.3618,-0.24903zM296.33589,241.3239c2.16927,-0.24902 4.5433,-0.38183 7.1221,-0.39843l0.083,1.685c-2.529,0.01107 -4.85047,0.13005 -6.9644,0.35694z"/></g></g></g></svg>