<svg version="1.1" xmlns="http://www.w3.org/2000/svg" xmlns:xlink="http://www.w3.org/1999/xlink" width="208" height="32" viewBox="0,0,208,32"><g transform="translate(-240,-164)"><g data-paper-data="{&quot;isPaintingLayer&quot;:true}" fill-rule="nonzero" stroke="none" stroke-linecap="butt" stroke-linejoin="miter" stroke-miterlimit="10" stroke-dasharray="" stroke-dashoffset="0" style="mix-blend-mode: normal"><path d="M240,196v-32h208v32z" fill="none" stroke-width="0"/><path d="M254.23,185.08c1.3086,0.92447 3.0892,1.67967 5.3418,2.2656l-1.3574,1.8555c-2.95573,-0.83333 -5.29623,-2.20703 -7.0215,-4.1211c-1.02867,-1.1328 -1.7904,-2.42513 -2.2852,-3.877h-2.7539v5.6738c1.6732,-0.30599 3.4473,-0.70962 5.3223,-1.2109l0.13672,1.8555c-3.07293,0.87893 -6.1198,1.5658 -9.1406,2.0606l-0.69336,-2.0215c1.02867,-0.13021 1.74807,-0.22786 2.1582,-0.29297v-6.0644h-3.4375v-1.6602h3.4375v-8.4082h13.496v1.6406h-11.279v1.1621h10.381v1.582h-10.381v1.1816h10.381v1.543h-10.381v1.2988h13.34v1.6602h-2.666l1.543,1.3379c-1.237,0.89193 -2.6172,1.7383 -4.1406,2.5391zM252.8238,183.9277c1.50387,-0.93747 2.76363,-1.84567 3.7793,-2.7246h-5.6934c0.4362,1.00913 1.07423,1.91733 1.9141,2.7246z" fill="#ffffff" stroke-width="1"/><path d="M277.82,179.78v7.8809c0,0.58594 -0.10742,1.01564 -0.32227,1.2891c-0.26042,0.32552 -0.81055,0.48828 -1.6504,0.48828c-0.80727,0 -1.65687,-0.04557 -2.5488,-0.13672l-0.40039,-1.9434c0.931,0.16276 1.70247,0.24414 2.3144,0.24414c0.27344,0 0.44271,-0.05208 0.50782,-0.15625c0.05207,-0.08464 0.0781,-0.2474 0.0781,-0.48829v-7.1777h-8.1738v6.1621h-5.1465v1.6602h-1.7188v-13.682h1.6406v10.156h0.95703v-13.359h1.6992v13.359h1.0059v-10.156h1.5625v4.1016h11.934v1.7578zM273.8747,174.1062c1.582,0.65104 3.19007,1.44204 4.8242,2.373l-1.2793,1.4551c-1.2044,-0.79427 -2.61717,-1.61457 -4.2383,-2.4609c-0.8724,1.21093 -2.22007,2.04753 -4.043,2.5098l-1.0352,-1.5234c1.95313,-0.42969 3.20963,-1.24999 3.7695,-2.4609h-3.8574v-1.6992h4.1016v-1.7969h1.9434v1.7969h4.6777v1.6992h-4.8242c-0.00667,0.03253 -0.0197,0.06834 -0.0391,0.10742zM274.59736,181.1668v5.2344h-4.1797v0.9375h-1.7773v-6.1719zM270.37856,182.7684v2.0312h2.5586v-2.0312z" fill="#ffffff" stroke-width="1"/><path d="M296.76,170.98v9.4629h-11.621v-9.4629zM287.2385,172.523v1.2207h7.4023v-1.2207zM287.2385,175.1207v1.2207h7.4023v-1.2207zM287.2385,177.7183v1.2598h7.4023v-1.2598zM283.3029,181.7417h16.191v1.6992h-8.0762v6.0644h-2.2168v-6.0644h-8.0371v-10.957h2.1387zM280.8029,187.6401c1.54947,-0.71613 3.0306,-1.9173 4.4434,-3.6035l1.7969,1.0449c-1.3932,1.76433 -2.93943,3.15107 -4.6387,4.1602zM297.6389,188.8999c-0.99607,-1.22393 -2.49347,-2.50973 -4.4922,-3.8574l1.6797,-1.1816c1.569,0.90493 3.1087,2.09307 4.6191,3.5644z" fill="#ffffff" stroke-width="1"/><path d="M306.35,174.01h3.916v1.1035h4.9219v-4.6191h2.0801v4.6191h2.3438v1.9824h-2.3438v10.234c0,0.65755 -0.09765,1.13932 -0.29296,1.4453c-0.24089,0.37109 -0.74545,0.55664 -1.5137,0.55664c-1.06773,0 -2.11917,-0.05859 -3.1543,-0.17578l-0.45899,-2.1191c1.08727,0.14323 2.01827,0.21484 2.793,0.21484c0.26042,0 0.41993,-0.04883 0.47852,-0.14649c0.0456,-0.08463 0.0684,-0.24739 0.0684,-0.48828v-9.5215h-5.1758v-1.1426h-1.1914c-0.20833,2.28513 -0.6901,4.4238 -1.4453,6.416c0.38411,0.5013 0.67057,0.87563 0.85937,1.123c0.625,0.80727 1.17513,1.5397 1.6504,2.1973l-1.5332,1.582c-0.57943,-0.83987 -1.14256,-1.63087 -1.6894,-2.373l-0.28321,-0.38086c-1.18487,2.08333 -2.62367,3.70117 -4.3164,4.8535l-1.416,-1.582c1.78387,-1.22393 3.22917,-2.9264 4.3359,-5.1074c-0.39063,-0.50781 -0.6836,-0.88868 -0.87891,-1.1426c-0.97653,-1.28253 -1.86847,-2.36977 -2.6758,-3.2617l1.4844,-1.2988c0.83987,0.91147 1.8262,2.07033 2.959,3.4766c0.45573,-1.4518 0.76497,-2.95247 0.92773,-4.502h-6.0938v-1.9434h3.5449v-3.5156h2.0996zM312.1508,184.43c-0.64453,-1.96613 -1.39323,-3.71093 -2.2461,-5.2344l1.7383,-0.98633c0.98307,1.6276 1.7578,3.36263 2.3242,5.2051z" fill="#ffffff" stroke-width="1"/><path d="M337.96,171.36v1.7188h-6.4746v1.4648h5.5566v1.5625h-5.5566v1.4355h5.5566v1.5625h-5.5566v1.5332h7.6172c-0.11719,3.82813 -0.32552,6.26303 -0.625,7.3047c-0.16927,0.58594 -0.46875,0.99934 -0.89844,1.2402c-0.36458,0.20182 -0.96355,0.30273 -1.7969,0.30273c-1.26953,0 -2.29493,-0.04883 -3.0762,-0.14648l-0.40039,-1.9141c1.3216,0.14323 2.30467,0.21485 2.9492,0.21485c0.52734,0 0.85937,-0.0944 0.99609,-0.2832c0.25391,-0.3711 0.4655,-2.0508 0.63477,-5.0391h-14.424v-10.957zM324.581,173.0788v1.4648h4.8633v-1.4648zM324.581,176.1062v1.4355h4.8633v-1.4355zM324.581,179.1042v1.5332h4.8633v-1.5332zM320.3622,187.737c0.85287,-1.32813 1.48113,-2.86133 1.8848,-4.5996l1.9727,0.60546c-0.46875,2.168 -1.14909,3.9258 -2.041,5.2734zM325.9188,188.47919c-0.0456,-1.6146 -0.20511,-3.1478 -0.47852,-4.5996l1.9824,-0.36133c0.38412,1.3932 0.63803,2.89387 0.76172,4.502zM330.0399,187.67841c-0.30599,-1.62107 -0.69985,-2.98827 -1.1816,-4.1016l1.7871,-0.53711c0.57292,1.1784 1.03842,2.47723 1.3965,3.8965zM333.8583,186.58461c-0.44271,-1.30207 -0.97981,-2.41533 -1.6113,-3.3398l1.5918,-0.66407c0.71613,0.90493 1.32487,1.94987 1.8262,3.1348z" fill="#ffffff" stroke-width="1"/></g></g></svg>