<svg version="1.1" xmlns="http://www.w3.org/2000/svg" xmlns:xlink="http://www.w3.org/1999/xlink" width="168.1" height="38.441" viewBox="0,0,168.1,38.441"><g transform="translate(-240,-180)"><g data-paper-data="{&quot;isPaintingLayer&quot;:true}" stroke="none" stroke-linecap="butt" stroke-linejoin="miter" stroke-miterlimit="10" stroke-dasharray="" stroke-dashoffset="0" style="mix-blend-mode: normal"><path d="M248,180h152.1c4.432,0 8,3.568 8,8v22.441c0,4.432 -3.568,8 -8,8h-152.1c-4.432,0 -8,-3.568 -8,-8v-22.441c0,-4.432 3.568,-8 8,-8z" fill-opacity="0.7" fill="#000000" fill-rule="evenodd" stroke-width="0"/><g fill="#ffffff" fill-rule="nonzero" stroke-width="1"><path d="M250.32236,189.79038v2.55934c0,0.16588 0.06914,0.26605 0.20743,0.30052c0.14248,0.03664 0.46829,0.05496 0.97744,0.05496c0.49658,0 0.82449,-0.02586 0.98373,-0.07757c0.09009,-0.03015 0.14876,-0.11417 0.176,-0.25205c0.03564,-0.19388 0.05451,-0.42331 0.05661,-0.68829l0.65687,0.19065c-0.03353,0.63551 -0.11839,1.04159 -0.25457,1.21822c-0.0901,0.11633 -0.22629,0.18527 -0.40858,0.20682c-0.28706,0.03231 -0.77422,0.04847 -1.46148,0.04847c-0.5322,0 -0.88106,-0.01507 -1.04658,-0.04522c-0.24934,-0.04306 -0.40753,-0.15616 -0.47458,-0.3393c-0.03353,-0.09695 -0.0503,-0.2262 -0.0503,-0.38777v-2.56258l-0.60029,0.21327l-0.14772,-0.6269l0.74801,-0.26498v-1.74175h0.63802v1.51552l0.67573,-0.2359v-1.70301h0.63172v1.47679l1.05289,-0.37161l0.33001,0.20681v2.42032c0,0.16803 -0.03876,0.29298 -0.11629,0.37485c-0.088,0.09048 -0.23572,0.13571 -0.44315,0.13571c-0.16972,0 -0.34992,-0.01507 -0.54059,-0.04522l-0.10371,-0.6172c0.12362,0.03231 0.24934,0.04847 0.37715,0.04847c0.09219,0 0.14876,-0.0194 0.16971,-0.0582c0.02097,-0.03231 0.03146,-0.08617 0.03146,-0.16157v-1.5285l-0.75744,0.27145v2.61419h-0.63172v-2.39121zM248.01234,188.73369v-1.56075h0.67573v1.56075h0.60972v0.65598h-0.60972v2.05518c0.22,-0.07756 0.43791,-0.15835 0.65373,-0.24237l0.05976,0.62367c-0.67885,0.31884 -1.37551,0.58597 -2.09,0.80139l-0.22001,-0.68829c0.32267,-0.08617 0.60553,-0.16803 0.84858,-0.24559c0.02932,-0.01075 0.05342,-0.01829 0.07229,-0.02261v-2.2814h-0.7983v-0.65598z"/><path d="M256.32844,188.0463v-0.27791h-1.96435v-0.4621h4.63898v0.4621h-2.00518v0.27791h2.60234v1.16012h-0.68201v-0.74323h-1.92037v1.25706h-0.66945v-1.25706h-1.88575v0.74323h-0.67573v-1.16012zM258.55365,192.63171c0.32057,0.12495 0.72078,0.22405 1.20062,0.29729l-0.36772,0.54934c-0.6726,-0.11849 -1.22469,-0.32207 -1.65626,-0.61074c-0.42953,-0.28868 -0.76373,-0.64736 -1.00259,-1.07606h-0.69458v0.99528c0.46306,-0.06679 0.89259,-0.13788 1.2886,-0.21327l0.04399,0.48149c-0.73756,0.18096 -1.58091,0.33822 -2.53005,0.47178l-0.18543,-0.56873c0.32896,-0.03664 0.5542,-0.0625 0.67572,-0.07757l0.03777,-0.00608v-1.08255h-0.6883c-0.02932,0.37915 -0.07751,0.68183 -0.14457,0.90803c-0.07962,0.27144 -0.20743,0.52457 -0.38343,0.75939l-0.55944,-0.47502c0.20534,-0.2736 0.33315,-0.59351 0.38343,-0.95974c0.02722,-0.1982 0.04083,-0.44487 0.04083,-0.74001v-1.37012h5.4247v0.42978h-4.74895v0.99205h5.01927v0.45564h-0.71344l0.39915,0.27144c-0.23677,0.2025 -0.51648,0.39208 -0.83915,0.56873zM258.06335,192.38289c0.30172,-0.21112 0.54163,-0.40824 0.71972,-0.59135h-1.37341c0.1802,0.23697 0.3981,0.43409 0.65373,0.59135zM254.71927,188.70228h1.33889v0.36515h-1.33889zM254.71927,189.29687h1.33889v0.37161h-1.33889zM257.26816,188.70228h1.37972v0.36515h-1.37972zM257.26816,189.29687h1.37972v0.37161h-1.37972zM255.06179,190.61527h3.91293v0.42332h-3.91293z"/><path d="M261.48637,188.41134v5.05722h-0.65687v-6.28842h0.65687v0.97913l0.30172,-0.25852c0.18229,0.3253 0.32686,0.63875 0.43372,0.94035l-0.42744,0.43624c-0.11105,-0.36407 -0.21372,-0.65275 -0.30801,-0.86603zM264.38103,187.60995h1.62805v0.48471h-1.62805v0.31022h1.40487v0.4621h-1.40487v0.31991h1.83545v0.51703h-4.2366v-0.51703h1.75064v-0.31991h-1.36404v-0.4621h1.36404v-0.31022h-1.54945v-0.48471h1.54945v-0.42978h0.65059zM265.68846,190.04649v2.83717c0,0.1982 -0.0461,0.34253 -0.13829,0.43301c-0.0901,0.08833 -0.24411,0.13249 -0.46201,0.13249c-0.25772,0 -0.52277,-0.01832 -0.79515,-0.05496l-0.09113,-0.58166c0.27867,0.03448 0.49972,0.05171 0.66315,0.05171c0.08381,0 0.1341,-0.02153 0.15086,-0.06459c0.01045,-0.02582 0.01568,-0.06568 0.01568,-0.11956v-0.41686h-1.92974v1.20534h-0.65687v-3.42205zM263.1018,190.5215v0.37808h1.92974v-0.37808zM263.1018,191.3746v0.39747h1.92974v-0.39747zM259.93998,190.55382c0.09429,-0.44809 0.16239,-1.02759 0.2043,-1.7385l0.01568,-0.26498l0.53429,0.05171c-0.02512,0.92206 -0.09845,1.67067 -0.22001,2.24581z"/><path d="M267.76859,187.85364v-0.67537h0.65686v0.67537h0.97745v0.56873h-0.97745v0.5558h1.11255v0.5752h-0.374c-0.06705,0.25636 -0.15715,0.5278 -0.27029,0.81432h0.60658v0.56227h-1.07488v0.59781h1.03405v0.57519h-1.03405v1.36363h-0.65686v-1.36363h-1.1095v-0.57519h1.1095v-0.59781h-1.1597v-0.56227h0.57829c-0.06704,-0.28652 -0.14876,-0.55796 -0.24514,-0.81432h-0.462v-0.5752h1.2886v-0.5558h-1.02458v-0.56873zM268.55118,189.55341h-0.99944c0.07124,0.20466 0.14771,0.4761 0.22942,0.81432h0.52173c0.10895,-0.27575 0.19171,-0.54719 0.24829,-0.81432zM272.36351,187.41093v1.51228c0,0.18742 -0.03352,0.31991 -0.10057,0.39747c-0.07962,0.09263 -0.2462,0.13895 -0.49973,0.13895c-0.24724,0 -0.49448,-0.01078 -0.74173,-0.03235l-0.10686,-0.58166c0.34781,0.0388 0.56886,0.0582 0.66315,0.0582c0.09848,0 0.14772,-0.04416 0.14772,-0.13249v-0.77878h-1.37657v1.87752h1.782l0.374,0.3296c-0.11314,0.68506 -0.31952,1.29687 -0.61915,1.83544l-0.03462,0.06459c0.23048,0.2736 0.51858,0.52349 0.8643,0.74969l-0.352,0.60428c-0.33105,-0.21974 -0.62649,-0.48257 -0.88631,-0.78848c-0.22419,0.29299 -0.47667,0.56874 -0.75744,0.82725l-0.37087,-0.52996v0.50411h-0.63801v-6.05571zM270.34886,190.45171v2.44293c0.25772,-0.18097 0.50601,-0.43517 0.74487,-0.76262c-0.32058,-0.50841 -0.54582,-1.06855 -0.67573,-1.6804zM271.44258,191.56011c0.18647,-0.37054 0.308,-0.74001 0.36458,-1.1084h-0.81087c0.10267,0.41362 0.25143,0.78309 0.44629,1.1084z"/><path d="M273.90288,188.37078h0.96487v0.99206h-0.96487zM273.90288,191.28228h0.96487v0.99206h-0.96487z"/><path d="M276.24022,187.8435h4.92499l0.40544,0.35223c-0.11733,0.45024 -0.27029,0.82617 -0.45886,1.12777c-0.35411,0.57089 -0.8842,0.99744 -1.59028,1.27967l-0.39601,-0.5558c0.4882,-0.1508 0.89363,-0.42117 1.21631,-0.8111c0.19067,-0.23051 0.32372,-0.47394 0.39915,-0.7303h-4.50061zM278.25487,189.23947h0.71972v0.5558c0,0.83371 -0.09009,1.47784 -0.27028,1.93238c-0.22839,0.57735 -0.67258,1.04697 -1.33258,1.40885l-0.51857,-0.56227c0.45467,-0.22189 0.78677,-0.48687 0.99628,-0.79493c0.16134,-0.23913 0.26715,-0.49226 0.31743,-0.75939c0.05865,-0.30591 0.08797,-0.71631 0.08797,-1.2312z"/><path d="M284.49488,193.17714v-3.31548c-0.63697,0.43948 -1.36404,0.81003 -2.18122,1.11165l-0.3803,-0.65598c0.92823,-0.32099 1.74226,-0.7346 2.44208,-1.24083c0.68726,-0.49764 1.29908,-1.06744 1.83545,-1.7094l0.60658,0.39101c-0.47563,0.56227 -1.00572,1.07823 -1.59028,1.54787v3.87125z"/><path d="M287.5423,187.92462h4.60121v4.89235h-4.71117v-0.67536h3.96322v-3.5417h-3.85316z"/><path d="M295.54055,189.12114c-0.66208,-0.30375 -1.35037,-0.54719 -2.06485,-0.73031l0.22,-0.69475c0.82764,0.19388 1.52223,0.43516 2.08378,0.72384zM293.5542,192.33643c1.03717,-0.09048 1.83128,-0.28114 2.38231,-0.57197c0.64954,-0.34469 1.1482,-0.87355 1.496,-1.58661c0.22629,-0.46102 0.40963,-1.06421 0.55001,-1.80958l0.60344,0.45563c-0.16972,0.79707 -0.37505,1.43042 -0.616,1.90003c-0.43582,0.85528 -1.10211,1.47463 -1.99887,1.85805c-0.56573,0.24128 -1.32213,0.41362 -2.26919,0.51703z"/><path d="M299.27832,187.96518c1.92767,-0.03015 3.74951,-0.08078 5.46553,-0.15188l0.03767,0.64306c-0.75636,0.0388 -1.34514,0.15729 -1.76632,0.35546c-0.40229,0.18958 -0.72496,0.4524 -0.96801,0.78847c-0.27658,0.38131 -0.41486,0.8057 -0.41486,1.27318c0,0.46533 0.15714,0.81432 0.47143,1.04695c0.36039,0.26498 0.91353,0.44702 1.65941,0.54611l-0.14772,0.72708c-0.97222,-0.13357 -1.65632,-0.39209 -2.05232,-0.77555c-0.42534,-0.40932 -0.63802,-0.91774 -0.63802,-1.52526c0,-0.5515 0.19277,-1.06638 0.5783,-1.54463c0.28076,-0.35115 0.66526,-0.63336 1.15348,-0.84664c-0.86538,0.03015 -1.98112,0.08078 -3.34723,0.15188zM303.84807,190.75388c-0.12362,-0.33822 -0.3321,-0.72168 -0.62544,-1.15038l0.4903,-0.18742c0.26191,0.37054 0.47248,0.7497 0.63172,1.13751zM304.69665,190.41458c-0.14876,-0.39639 -0.35619,-0.78201 -0.62229,-1.15687l0.4683,-0.17126c0.24515,0.30591 0.45363,0.67646 0.62544,1.11165z"/><path d="M309.49556,192.11244l0.04399,0.57843c-0.90936,0.3296 -1.92033,0.60105 -3.03292,0.81432l-0.23258,-0.64628c0.19277,-0.03015 0.46515,-0.07862 0.81716,-0.14542v-1.18273c-0.36249,0.18958 -0.79412,0.36946 -1.29491,0.53965l-0.35829,-0.5752c1.00785,-0.28005 1.77681,-0.63766 2.30687,-1.07281h-2.24404v-0.56227h2.69347v-0.48795h-2.03664v-0.54289h2.03664v-0.45563h-2.35716v-0.5558h2.35716v-0.6366h0.6883v0.6366h2.4263v0.5558h-2.4263v0.45563h2.10578v0.54289h-2.10578v0.48795h2.7626v0.56227h-0.75116l0.46516,0.3296c-0.28706,0.28652 -0.68937,0.59997 -1.20694,0.94035l-0.07229,0.04847c0.39391,0.37054 0.92821,0.67645 1.6029,0.91773l-0.42429,0.65599c-0.73125,-0.31884 -1.31897,-0.71953 -1.76316,-1.2021zM308.54326,190.43204c-0.20953,0.25205 -0.46201,0.47825 -0.75745,0.6786v1.45093c0.51754,-0.11849 1.03717,-0.25637 1.55892,-0.41363l0.14457,-0.04198c-0.42953,-0.48902 -0.74487,-1.04699 -0.94601,-1.67391zM309.69043,191.31422c0.37296,-0.27359 0.69982,-0.57088 0.98059,-0.89187h-1.48663c0.1341,0.3296 0.30277,0.6269 0.50601,0.89187z"/><path d="M315.39316,189.93234v2.86627c0,0.26067 -0.05134,0.4384 -0.15401,0.53319c-0.09638,0.08617 -0.28286,0.12925 -0.55943,0.12925c-0.3143,0 -0.61287,-0.02048 -0.89573,-0.06145l-0.13514,-0.68183c0.29334,0.04955 0.57411,0.07433 0.8423,0.07433c0.09009,0 0.14667,-0.01616 0.16972,-0.04847c0.01677,-0.02799 0.02515,-0.07431 0.02515,-0.13896v-2.6724h-2.70293v-0.64306h6.05638v0.64306zM312.73736,187.53788h4.5447v0.63659h-4.5447zM311.94535,192.49492c0.45258,-0.48687 0.81715,-1.13424 1.09372,-1.94211l0.65058,0.25205c-0.32058,0.92423 -0.72391,1.65022 -1.20999,2.17797zM317.33859,192.88915c-0.43372,-0.94356 -0.81085,-1.63403 -1.13139,-2.0714l0.59086,-0.36193c0.46096,0.60967 0.85384,1.2732 1.17863,1.99058z"/><path d="M247.73846,196.38138h0.7323v3.53521h-0.7323zM250.96626,196.31354h0.7323v2.3105c0,0.81215 -0.06391,1.41642 -0.19172,1.81283c-0.10685,0.33822 -0.25247,0.60751 -0.43686,0.80786c-0.38344,0.42439 -0.99946,0.73784 -1.84808,0.94034l-0.36143,-0.66245c0.92823,-0.19388 1.52328,-0.51595 1.78516,-0.9662c0.16553,-0.28652 0.26505,-0.64845 0.29858,-1.08579c0.01466,-0.2025 0.02199,-0.48256 0.02199,-0.84018z"/><path d="M252.80763,196.77684h4.92499l0.40544,0.35222c-0.11733,0.45025 -0.27029,0.82617 -0.45886,1.12777c-0.35411,0.57089 -0.8842,0.99744 -1.59028,1.27967l-0.39601,-0.55581c0.4882,-0.1508 0.89363,-0.42116 1.21631,-0.81109c0.19067,-0.23051 0.32372,-0.47394 0.39914,-0.7303h-4.50061zM254.82229,198.17281h0.71973v0.5558c0,0.83371 -0.0901,1.47784 -0.27029,1.93238c-0.22839,0.57735 -0.67258,1.047 -1.33258,1.40895l-0.51857,-0.56227c0.45467,-0.22189 0.78677,-0.48687 0.99628,-0.79494c0.16134,-0.23913 0.26715,-0.49226 0.31743,-0.75938c0.05865,-0.30591 0.08797,-0.71631 0.08797,-1.2312z"/><path d="M259.97745,196.6146h0.70715v1.17624c0,1.12669 -0.08171,1.94962 -0.24514,2.46879c-0.21581,0.68722 -0.66839,1.26027 -1.35773,1.71914l-0.48086,-0.5752c0.47772,-0.34469 0.81402,-0.70229 1.0089,-1.07281c0.16343,-0.31237 0.27134,-0.73139 0.32372,-1.25706c0.02932,-0.29729 0.04399,-0.7206 0.04399,-1.26993zM261.58657,196.42718h0.70716v4.5919c0.41696,-0.2219 0.78259,-0.5375 1.09687,-0.94681c0.34363,-0.44809 0.6003,-0.97913 0.77001,-1.5931l0.55315,0.54934c-0.20953,0.63983 -0.49658,1.18593 -0.86116,1.63832c-0.45886,0.57089 -1.06019,1.02006 -1.80399,1.3475l-0.46201,-0.4104z"/><path d="M269.82979,196.97964l0.44944,0.37808c-0.29334,1.37877 -0.76896,2.44621 -1.42686,3.20231c-0.36458,0.41794 -0.83603,0.78416 -1.41434,1.09867c-0.41068,0.2219 -0.85175,0.39855 -1.32321,0.52996l-0.36458,-0.63659c1.07695,-0.28868 1.91297,-0.74971 2.50806,-1.3831c-0.4903,-0.45241 -1.03088,-0.85311 -1.62174,-1.2021l0.41172,-0.5235c0.5762,0.30807 1.12411,0.68724 1.64373,1.13751c0.40858,-0.67214 0.66525,-1.32272 0.77001,-1.95175h-2.21258c-0.50706,0.81215 -1.10422,1.43366 -1.79147,1.86454l-0.46201,-0.5138c0.66419,-0.41147 1.20999,-0.95541 1.63742,-1.63183c0.22001,-0.34469 0.39077,-0.71632 0.51229,-1.11489l0.68201,0.17126c-0.06914,0.19389 -0.14666,0.38562 -0.23257,0.5752z"/><path d="M273.29142,202.11048v-3.31548c-0.63697,0.43947 -1.36404,0.81002 -2.18122,1.11165l-0.38029,-0.65599c0.92823,-0.32099 1.74226,-0.7346 2.44208,-1.24083c0.68726,-0.49764 1.29908,-1.06744 1.83545,-1.7094l0.60657,0.39101c-0.47563,0.56227 -1.00572,1.07823 -1.59028,1.54787v3.87125z"/><path d="M276.02325,201.00522c0.14457,-0.00203 0.34363,-0.01281 0.59716,-0.03235c0.59715,-1.37877 1.14716,-2.89646 1.65004,-4.55306l0.71973,0.19389c-0.49449,1.58988 -1.02251,3.02571 -1.58407,4.30747c1.06439,-0.07971 2.00831,-0.17665 2.83173,-0.29083c-0.3101,-0.56228 -0.62544,-1.08148 -0.94602,-1.55761l0.61916,-0.40393c0.65998,0.93498 1.23932,1.92596 1.73802,2.97295l-0.70716,0.37808c-0.11524,-0.2499 -0.242,-0.51057 -0.38029,-0.78201c-1.22364,0.21112 -2.68508,0.39855 -4.38434,0.56227z"/><path d="M284.65268,196.97964v-0.27791h-1.96435v-0.46209h4.63898v0.46209h-2.00518v0.27791h2.60234v1.16012h-0.68201v-0.74323h-1.92037v1.25706h-0.66945v-1.25706h-1.88575v0.74323h-0.67573v-1.16012zM286.87789,201.56505c0.32057,0.12495 0.72078,0.22404 1.20062,0.29729l-0.36771,0.54934c-0.6726,-0.11849 -1.22472,-0.32207 -1.65636,-0.61074c-0.42953,-0.28868 -0.76373,-0.64736 -1.00259,-1.07606h-0.69458v0.99529c0.46306,-0.06679 0.89259,-0.13788 1.2886,-0.21327l0.04399,0.48148c-0.73756,0.18097 -1.58091,0.33823 -2.53005,0.47179l-0.18543,-0.56873c0.32896,-0.03664 0.5542,-0.0625 0.67573,-0.07757l0.03767,-0.00608v-1.08255h-0.6883c-0.02932,0.37915 -0.07751,0.68183 -0.14457,0.90804c-0.07962,0.27144 -0.20743,0.52457 -0.38343,0.75939l-0.55944,-0.47503c0.20534,-0.27359 0.33315,-0.5935 0.38343,-0.95973c0.02722,-0.1982 0.04083,-0.44487 0.04083,-0.74001v-1.37012h5.4247v0.42978h-4.74895v0.99205h5.01927v0.45563h-0.71344l0.39915,0.27145c-0.23677,0.2025 -0.51648,0.39208 -0.83915,0.56873zM286.38759,201.31622c0.30172,-0.21112 0.54163,-0.40824 0.71972,-0.59135h-1.37341c0.1802,0.23697 0.3981,0.43409 0.65373,0.59135zM283.04351,197.63561h1.33889v0.36515h-1.33889zM283.04351,198.23019h1.33889v0.37162h-1.33889zM285.5924,197.63561h1.37972v0.36515h-1.37972zM285.5924,198.23019h1.37972v0.37162h-1.37972zM283.38603,199.54859h3.91293v0.42331h-3.91293z"/><path d="M291.93098,196.69572h2.46407v0.54288h-1.3955v0.53643h1.30743v0.52349h-1.30743v0.96298h-2.53005v-0.96298h-1.0309v0.60105c0,0.97587 -0.05029,1.74712 -0.15086,2.31375c-0.07752,0.43086 -0.20324,0.82402 -0.37715,1.17948l-0.57201,-0.46532c0.15924,-0.35546 0.26819,-0.78955 0.32686,-1.30228c0.0524,-0.45025 0.0786,-1.02546 0.0786,-1.72563v-2.20383h2.48606v-0.58166h0.70087zM289.43861,197.2386v0.53643h1.0309v-0.53643zM291.13895,197.2386v0.53643h1.19116v-0.53643zM291.13895,198.29853v0.50088h1.19116v-0.50088zM291.8681,201.69158c-0.60553,0.32314 -1.37449,0.56873 -2.30687,0.73677l-0.32686,-0.59459c0.87583,-0.10771 1.56204,-0.27252 2.05864,-0.49441c-0.42534,-0.31669 -0.78886,-0.69261 -1.09056,-1.12777h-0.43372v-0.56226h3.68038l0.33,0.28437c-0.31219,0.49333 -0.75744,0.95757 -1.33574,1.39273c0.49658,0.20466 1.17336,0.35546 2.03033,0.45241l-0.36772,0.61074c-0.82132,-0.11418 -1.56724,-0.34685 -2.23773,-0.698zM290.93465,200.21154c0.25353,0.30591 0.56154,0.5752 0.92402,0.80786c0.40858,-0.27144 0.72392,-0.54073 0.94602,-0.80786z"/><path d="M295.7871,197.30412h0.96487v0.99205h-0.96487zM295.7871,200.21562h0.96487v0.99205h-0.96487z"/><path d="M300.26454,199.29156c-0.02097,1.36153 -0.08593,2.22539 -0.19486,2.59158c-0.05661,0.18743 -0.14671,0.31884 -0.27029,0.39424c-0.11524,0.07109 -0.27972,0.10663 -0.49344,0.10663c-0.20115,0 -0.45049,-0.01832 -0.74802,-0.05496l-0.12886,-0.64306c0.34991,0.04522 0.59506,0.06784 0.73544,0.06784c0.14667,0 0.23991,-0.03878 0.27972,-0.11634c0.07334,-0.14003 0.12991,-0.72169 0.16972,-1.74499h-0.87688c-0.00394,0.01507 -0.00723,0.03339 -0.00986,0.05496c-0.01256,0.08402 -0.0356,0.21328 -0.06913,0.38777l-0.61601,-0.09694c0.12991,-0.9393 0.20953,-1.74503 0.23886,-2.41717h1.27913v-0.81109h-1.474v-0.62367h2.09947v2.03581h-1.31374l-0.01568,0.27467c-0.01256,0.18743 -0.02827,0.38562 -0.04714,0.59459zM301.91143,198.01189l-0.1163,0.01014c-0.3562,0.03015 -0.7899,0.05922 -1.30112,0.0872l-0.15401,-0.62367c0.11524,-0.00203 0.21163,-0.00406 0.28915,-0.00608c0.04399,0 0.10056,-0.00101 0.16972,-0.00304c0.32477,-0.46748 0.59716,-0.92959 0.81716,-1.38634l0.65686,0.15835c-0.21371,0.37915 -0.47562,0.78094 -0.78572,1.20534l0.24514,-0.00608c0.40858,-0.01291 0.86431,-0.03769 1.3672,-0.07433l-0.05345,-0.07108c-0.12572,-0.17665 -0.27658,-0.36838 -0.45258,-0.57519l0.528,-0.2876c0.47354,0.54288 0.82766,1.03515 1.06236,1.47679l-0.54687,0.35223c-0.088,-0.1745 -0.16343,-0.31453 -0.22629,-0.42009c-0.32057,0.04522 -0.60763,0.08077 -0.86116,0.10663v0.6366h1.3452v1.85156h-1.3452v1.0793c0.19486,-0.02156 0.4023,-0.04526 0.62229,-0.07108l0.06913,-0.01014c-0.09428,-0.21112 -0.198,-0.41578 -0.31114,-0.61398l0.58458,-0.23912c0.27029,0.42439 0.51753,0.93819 0.74173,1.54138l-0.61287,0.31022c-0.07543,-0.21543 -0.13934,-0.3867 -0.19172,-0.5138l-0.23572,0.03873c-0.88418,0.14865 -1.79354,0.26283 -2.72808,0.34254l-0.17285,-0.63336c0.50287,-0.0194 1.02458,-0.04955 1.56513,-0.09045l0.03146,-0.00304v-1.13751h-1.30743v-1.85156h1.30743zM301.91143,199.13317h-0.72287v0.76585h0.72287zM302.54944,199.13317v0.76585h0.73859v-0.76585z"/><path d="M307.17794,196.97964v-0.27791h-1.96435v-0.46209h4.63898v0.46209h-2.00518v0.27791h2.60234v1.16012h-0.68201v-0.74323h-1.92037v1.25706h-0.66945v-1.25706h-1.88575v0.74323h-0.67573v-1.16012zM309.40315,201.56505c0.32057,0.12495 0.72078,0.22404 1.20062,0.29729l-0.36771,0.54934c-0.6726,-0.11849 -1.22472,-0.32207 -1.65636,-0.61074c-0.42953,-0.28868 -0.76373,-0.64736 -1.00259,-1.07606h-0.69458v0.99529c0.46306,-0.06679 0.89259,-0.13788 1.2886,-0.21327l0.04399,0.48148c-0.73756,0.18097 -1.58091,0.33823 -2.53005,0.47179l-0.18543,-0.56873c0.32896,-0.03664 0.5542,-0.0625 0.67573,-0.07757l0.03767,-0.00608v-1.08255h-0.6883c-0.02932,0.37915 -0.07751,0.68183 -0.14457,0.90804c-0.07962,0.27144 -0.20743,0.52457 -0.38343,0.75939l-0.55944,-0.47503c0.20534,-0.27359 0.33315,-0.5935 0.38343,-0.95973c0.02722,-0.1982 0.04083,-0.44487 0.04083,-0.74001v-1.37012h5.4247v0.42978h-4.74895v0.99205h5.01927v0.45563h-0.71344l0.39915,0.27145c-0.23677,0.2025 -0.51648,0.39208 -0.83915,0.56873zM308.91285,201.31622c0.30172,-0.21112 0.54163,-0.40824 0.71972,-0.59135h-1.37341c0.1802,0.23697 0.3981,0.43409 0.65373,0.59135zM305.56878,197.63561h1.33889v0.36515h-1.33889zM305.56878,198.23019h1.33889v0.37162h-1.33889zM308.11766,197.63561h1.37972v0.36515h-1.37972zM308.11766,198.23019h1.37972v0.37162h-1.37972zM305.91129,199.54859h3.91293v0.42331h-3.91293z"/><path d="M311.32993,196.6146h4.77094v0.66245h-2.65885v1.37336h3.16172v0.66245h-3.16172v1.60283c0,0.12064 0.02094,0.20142 0.06282,0.24236c0.08172,0.08402 0.46726,0.12603 1.15664,0.12603c0.4882,0 0.98479,-0.01724 1.48978,-0.05171v0.72707c-0.52382,0.02799 -1.01936,0.04198 -1.48663,0.04198c-0.69141,0 -1.1335,-0.02153 -1.32627,-0.06459c-0.27029,-0.0582 -0.44944,-0.18531 -0.53744,-0.38131c-0.0524,-0.11418 -0.0786,-0.26174 -0.0786,-0.4427v-1.79995h-1.71287v-0.66245h1.71287v-1.37336h-1.39235z"/><path d="M317.85871,197.16216h4.32467v0.69476h-4.32467zM317.2207,200.86214h5.60064v0.70122h-5.60064z"/><path d="M328.01677,196.97964l0.44944,0.37808c-0.29334,1.37877 -0.76896,2.44621 -1.42686,3.20231c-0.36458,0.41794 -0.83603,0.78416 -1.41434,1.09867c-0.41068,0.2219 -0.85175,0.39855 -1.32321,0.52996l-0.36458,-0.63659c1.07695,-0.28868 1.91297,-0.74971 2.50806,-1.3831c-0.4903,-0.45241 -1.03088,-0.85311 -1.62174,-1.2021l0.41172,-0.5235c0.5762,0.30807 1.12411,0.68724 1.64373,1.13751c0.40858,-0.67214 0.66525,-1.32272 0.77001,-1.95175h-2.21258c-0.50706,0.81215 -1.10421,1.43366 -1.79147,1.86454l-0.46201,-0.5138c0.66419,-0.41147 1.20999,-0.95541 1.63742,-1.63183c0.22001,-0.34469 0.39077,-0.71632 0.51229,-1.11489l0.68201,0.17126c-0.06914,0.19389 -0.14666,0.38562 -0.23257,0.5752z"/><path d="M332.37586,201.42096c1.22995,-0.31884 1.84492,-1.04374 1.84492,-2.17473c0,-0.49333 -0.12362,-0.91772 -0.37087,-1.27318c-0.27658,-0.4007 -0.69772,-0.65814 -1.26345,-0.77231c-0.12363,0.9996 -0.2923,1.81824 -0.50601,2.45591c-0.14667,0.44594 -0.32896,0.86708 -0.54687,1.26344c-0.31429,0.56443 -0.67153,0.84664 -1.07173,0.84664c-0.29753,0 -0.56258,-0.13788 -0.79515,-0.41363c-0.14877,-0.1745 -0.26925,-0.38885 -0.36144,-0.64305c-0.12152,-0.32961 -0.18228,-0.684 -0.18228,-1.06318c0,-0.61398 0.16448,-1.17948 0.49344,-1.69652c0.33315,-0.52781 0.76583,-0.91127 1.29806,-1.15038c0.38762,-0.1745 0.81295,-0.26175 1.27597,-0.26175c0.72283,0 1.33676,0.19927 1.84177,0.59782c0.6202,0.48903 0.9303,1.18162 0.9303,2.07779c0,1.50153 -0.73858,2.45374 -2.21574,2.85664zM331.90443,197.17484c-0.37086,0.04306 -0.68097,0.14539 -0.9303,0.30699c-0.15924,0.10556 -0.31744,0.24558 -0.47459,0.42008c-0.43581,0.49549 -0.65372,1.06961 -0.65372,1.72238c0,0.4761 0.09219,0.84878 0.27658,1.11804c0.11314,0.16588 0.22524,0.24883 0.33629,0.24883c0.15086,0 0.32057,-0.17127 0.50915,-0.5138c0.46096,-0.83371 0.77316,-1.93454 0.93659,-3.3025z"/><path d="M336.49826,197.66916v-0.70122h-1.02458v-0.60105h3.23086v0.60105h-0.98059v0.70122h0.8643v4.66623h-0.5783v-0.31022h-1.76001v0.37808h-0.59715v-4.73406zM336.95399,197.66916h0.30801v-0.70122h-0.30801zM336.54541,198.22497h-0.29543v1.4412c0.17601,-0.33176 0.27448,-0.81216 0.29543,-1.4412zM336.9477,198.22497c-0.00197,0.78416 -0.13293,1.41538 -0.39287,1.89364l-0.30486,-0.28437v0.54934h1.76001v-0.63013h-0.36771c-0.14667,0 -0.24725,-0.0291 -0.30172,-0.08731c-0.0524,-0.05604 -0.0786,-0.15191 -0.0786,-0.2876v-1.15363zM337.66743,198.22497v0.90803c0,0.0603 0.00838,0.09692 0.02515,0.10988c0.01466,0.01075 0.04923,0.01612 0.10371,0.01612h0.21371v-1.03408zM336.24993,200.90062v0.54934h1.76001v-0.54934zM339.6946,199.23968v2.14887c0,0.11633 0.03352,0.18527 0.10057,0.20682c0.09848,0.03231 0.25877,0.04847 0.48087,0.04847c0.19905,0 0.34152,-0.02048 0.42743,-0.06145c0.06915,-0.03231 0.1142,-0.11202 0.13515,-0.23913c0.02097,-0.13572 0.03879,-0.39423 0.05345,-0.77554l0.00592,-0.13249l0.67573,0.18096c-0.01677,0.55581 -0.04714,0.94251 -0.09113,1.16012c-0.06075,0.29513 -0.23571,0.46317 -0.52487,0.5041c-0.19277,0.02589 -0.4903,0.03884 -0.89259,0.03884c-0.42325,0 -0.70296,-0.04416 -0.83915,-0.13249c-0.12991,-0.08402 -0.19487,-0.2639 -0.19487,-0.53965v-3.03754h1.61543v-1.58022h-1.69087v-0.63659h2.3478v2.84691z"/><path d="M343.37222,200.0115v1.173c0,0.17019 0.06076,0.27252 0.18229,0.30699c0.18019,0.05171 0.77629,0.07757 1.78831,0.07757c0.89891,0 1.45836,-0.02694 1.67835,-0.08082c0.10477,-0.02582 0.17182,-0.08614 0.20115,-0.18096c0.03564,-0.10771 0.06394,-0.35869 0.08491,-0.75293l0.69458,0.21974c-0.02308,0.42439 -0.0566,0.71522 -0.10056,0.87249c-0.05661,0.20466 -0.16138,0.34361 -0.3143,0.41686c-0.10895,0.05171 -0.25981,0.08403 -0.45258,0.09694c-0.49658,0.03664 -1.14505,0.05496 -1.94542,0.05496c-1.121,0 -1.78729,-0.02045 -1.99887,-0.06135c-0.23886,-0.04522 -0.39286,-0.15294 -0.462,-0.32314c-0.03353,-0.08617 -0.0503,-0.19388 -0.0503,-0.32314v-3.31872l-0.03146,0.02586c-0.09638,0.07109 -0.21057,0.14972 -0.34257,0.2359l-0.43058,-0.53643c0.74801,-0.42224 1.38077,-1.02435 1.89828,-1.80634l0.44,0.31021h1.78831l0.33315,0.35547c-0.27658,0.40285 -0.56572,0.76586 -0.86744,1.08904h2.01465v2.14887zM343.37222,199.43631h1.35142v-0.97913h-1.35142zM345.39939,198.45718v0.97913h1.37972v-0.97913zM344.67024,197.8626c0.27029,-0.29084 0.50077,-0.57628 0.69144,-0.85633h-1.45201c-0.23258,0.29299 -0.50916,0.57843 -0.82974,0.85633z"/><path d="M348.52029,196.89852c1.92767,-0.03015 3.74951,-0.08078 5.46553,-0.15188l0.03767,0.64306c-0.75636,0.0388 -1.34514,0.15729 -1.76632,0.35546c-0.40229,0.18958 -0.72496,0.4524 -0.96801,0.78847c-0.27658,0.38131 -0.41486,0.8057 -0.41486,1.27318c0,0.46533 0.15714,0.81432 0.47143,1.04695c0.36039,0.26498 0.91353,0.44702 1.65941,0.54612l-0.14772,0.72707c-0.97222,-0.13356 -1.65632,-0.39208 -2.05232,-0.77555c-0.42534,-0.40931 -0.63802,-0.91773 -0.63802,-1.52526c0,-0.5515 0.19277,-1.06638 0.5783,-1.54463c0.28076,-0.35115 0.66526,-0.63336 1.15348,-0.84664c-0.86538,0.03015 -1.98112,0.08078 -3.34723,0.15188zM353.09003,199.68722c-0.12362,-0.33822 -0.3321,-0.72168 -0.62544,-1.15038l0.4903,-0.18743c0.26191,0.37054 0.47248,0.74971 0.63172,1.13751zM353.93862,199.34792c-0.14876,-0.39639 -0.35619,-0.78201 -0.62229,-1.15687l0.4683,-0.17126c0.24515,0.30591 0.45363,0.67646 0.62544,1.11165z"/><path d="M358.72766,201.04578l0.04399,0.57843c-0.90936,0.3296 -1.92033,0.60105 -3.03292,0.81432l-0.23257,-0.64629c0.19276,-0.03015 0.46514,-0.07862 0.81715,-0.14541v-1.18273c-0.36248,0.18958 -0.79412,0.36946 -1.29491,0.53965l-0.35829,-0.5752c1.00785,-0.28006 1.77681,-0.63766 2.30687,-1.07281h-2.24404v-0.56227h2.69347v-0.48795h-2.03664v-0.54289h2.03664v-0.45563h-2.35716v-0.55581h2.35716v-0.63659h0.68829v0.63659h2.4263v0.55581h-2.4263v0.45563h2.10578v0.54289h-2.10578v0.48795h2.7626v0.56227h-0.75115l0.46515,0.3296c-0.28705,0.28652 -0.68933,0.59997 -1.20684,0.94035l-0.07229,0.04847c0.39392,0.37054 0.92822,0.67645 1.6029,0.91773l-0.42429,0.65598c-0.73125,-0.31884 -1.31897,-0.71953 -1.76316,-1.2021zM357.77537,199.36538c-0.20953,0.25205 -0.46201,0.47825 -0.75745,0.6786v1.45093c0.51754,-0.11848 1.03717,-0.25636 1.55892,-0.41362l0.14457,-0.04198c-0.42953,-0.48903 -0.74487,-1.047 -0.94601,-1.67391zM358.92254,200.24756c0.37296,-0.2736 0.69982,-0.57089 0.98059,-0.89187h-1.48663c0.13409,0.3296 0.30276,0.6269 0.50601,0.89187z"/><path d="M364.62526,198.86568v2.86627c0,0.26067 -0.05134,0.4384 -0.15401,0.53319c-0.09638,0.08617 -0.28286,0.12925 -0.55943,0.12925c-0.3143,0 -0.61287,-0.02048 -0.89573,-0.06145l-0.13514,-0.68183c0.29334,0.04955 0.57411,0.07433 0.8423,0.07433c0.09009,0 0.14667,-0.01616 0.16972,-0.04847c0.01677,-0.02799 0.02515,-0.0743 0.02515,-0.13895v-2.6724h-2.70293v-0.64305h6.05638v0.64305zM361.96947,196.47122h4.5447v0.63659h-4.5447zM361.17745,201.42826c0.45258,-0.48687 0.81715,-1.13424 1.09372,-1.94211l0.65058,0.25205c-0.32058,0.92423 -0.72391,1.65022 -1.20999,2.17797zM366.5707,201.82249c-0.43372,-0.94356 -0.81085,-1.63403 -1.13139,-2.0714l0.59086,-0.36193c0.46096,0.60966 0.85384,1.27319 1.17863,1.99058z"/><path d="M250.91409,206.87628c0.14667,0.07756 0.31534,0.17019 0.50601,0.27791l-0.39915,0.33284h1.89206l0.35515,0.36515c-0.47143,0.73028 -0.94183,1.33027 -1.41118,1.79995l-0.63802,-0.38455c0.41277,-0.38777 0.74381,-0.77339 0.99312,-1.15687h-1.56513v2.53348c0,0.29299 -0.07019,0.48041 -0.21058,0.56227c-0.09428,0.05604 -0.27028,0.08406 -0.528,0.08406c-0.33734,0 -0.70924,-0.02153 -1.11571,-0.06459l-0.154,-0.72061c0.39182,0.06463 0.73963,0.09694 1.04342,0.09694c0.11524,0 0.18647,-0.0194 0.21371,-0.0582c0.02097,-0.03231 0.03146,-0.09155 0.03146,-0.17772v-2.25554h-2.6338v-0.62367h3.4069c-0.70824,-0.41793 -1.41644,-0.77124 -2.12461,-1.05993l0.50916,-0.41686c0.47563,0.19604 0.89572,0.3867 1.26029,0.57197c0.32267,-0.2262 0.60553,-0.44809 0.84858,-0.66567h-3.35976v-0.61398h4.27438l0.38658,0.38777c-0.54896,0.45456 -1.07593,0.84988 -1.58091,1.18597z"/><path d="M254.88856,207.25146c-0.27238,0.51057 -0.58772,0.92851 -0.94601,1.25381l-0.36144,-0.60105c0.46934,-0.36623 0.86534,-0.86066 1.188,-1.48328h-1.04026v-0.59458h1.1597v-0.78201h0.67573v0.78201h0.9083v0.59458h-0.9083v0.39424c0.37296,0.21973 0.70506,0.4524 0.99628,0.69799l-0.38029,0.56873c-0.19905,-0.22835 -0.40439,-0.43193 -0.61601,-0.61074v1.43795h-0.67573zM256.8183,208.80258c0.2682,0.26283 0.5322,0.57843 0.79201,0.94681l-0.55943,0.4104c-0.28915,-0.45886 -0.56886,-0.81647 -0.83915,-1.07281l0.44629,-0.31992v-3.48999h2.6841v3.52548zM257.29287,205.80702v0.49441h1.39856v-0.49441zM257.29287,206.79906v0.48795h1.39856v-0.48795zM257.29287,207.77819v0.49442h1.39856v-0.49442zM253.6628,210.78349c0.24096,-0.40501 0.42849,-0.90156 0.56258,-1.48967l0.65373,0.19066c-0.11733,0.69155 -0.31848,1.26997 -0.60344,1.73526zM255.38197,209.30021h0.6883v1.03083c0,0.13357 0.03143,0.21328 0.09428,0.23913c0.07962,0.03015 0.29963,0.04522 0.66002,0.04522c0.34363,0 0.57306,-0.01186 0.68829,-0.03559c0.08382,-0.0194 0.13725,-0.06895 0.16029,-0.14864c0.03143,-0.10772 0.05237,-0.30376 0.06282,-0.58813l0.69458,0.16481c-0.00835,0.32099 -0.03139,0.55042 -0.06913,0.68829c-0.0524,0.19605 -0.12993,0.32961 -0.23258,0.4007c-0.088,0.06246 -0.21477,0.09908 -0.3803,0.10987c-0.34363,0.02156 -0.69669,0.03235 -1.0592,0.03235c-0.60972,0 -0.98162,-0.03662 -1.11571,-0.10987c-0.12781,-0.07109 -0.19172,-0.2219 -0.19172,-0.45241zM259.21324,211.03222c-0.25353,-0.62905 -0.53535,-1.16225 -0.84545,-1.59958l0.57515,-0.35223c0.34572,0.47394 0.64115,0.98557 0.8863,1.53489z"/><path d="M262.76846,205.92312v-0.27791h-1.96435v-0.46209h4.63898v0.46209h-2.00518v0.27791h2.60234v1.16012h-0.68201v-0.74323h-1.92037v1.25706h-0.66945v-1.25706h-1.88575v0.74323h-0.67573v-1.16012zM264.99366,210.50853c0.32057,0.12495 0.72078,0.22404 1.20062,0.29728l-0.36772,0.54934c-0.6726,-0.11848 -1.22469,-0.32206 -1.65626,-0.61074c-0.42953,-0.28867 -0.76373,-0.64736 -1.00259,-1.07606h-0.69458v0.99528c0.46306,-0.06679 0.89259,-0.13788 1.2886,-0.21327l0.04399,0.48149c-0.73756,0.18096 -1.58091,0.33822 -2.53005,0.47179l-0.18543,-0.56874c0.32896,-0.03664 0.5542,-0.0625 0.67572,-0.07757l0.03777,-0.00608v-1.08255h-0.6883c-0.02932,0.37915 -0.07751,0.68183 -0.14457,0.90804c-0.07962,0.27144 -0.20743,0.52457 -0.38343,0.75938l-0.55944,-0.47502c0.20534,-0.2736 0.33315,-0.59351 0.38343,-0.95974c0.02722,-0.1982 0.04083,-0.44486 0.04083,-0.74v-1.37012h5.4247v0.42978h-4.74895v0.99206h5.01927v0.45563h-0.71344l0.39915,0.27144c-0.23677,0.20251 -0.51648,0.39209 -0.83915,0.56874zM264.50337,210.2597c0.30172,-0.21112 0.54163,-0.40824 0.71972,-0.59135h-1.37341c0.1802,0.23697 0.3981,0.43409 0.65373,0.59135zM261.15929,206.57909h1.33889v0.36516h-1.33889zM261.15929,207.17368h1.33889v0.37162h-1.33889zM263.70818,206.57909h1.37972v0.36516h-1.37972zM263.70818,207.17368h1.37972v0.37162h-1.37972zM261.50181,208.49208h3.91293v0.42331h-3.91293z"/><path d="M270.04676,205.62906h2.46407v0.54289h-1.3955v0.53642h1.30743v0.5235h-1.30743v0.96297h-2.53005v-0.96297h-1.0309v0.60105c0,0.97587 -0.05029,1.74712 -0.15086,2.31375c-0.07752,0.43086 -0.20324,0.82402 -0.37715,1.17948l-0.57201,-0.46532c0.15924,-0.35546 0.2682,-0.78955 0.32686,-1.30228c0.0524,-0.45025 0.0786,-1.02546 0.0786,-1.72563v-2.20383h2.48606v-0.58165h0.70087zM267.55439,206.17195v0.53642h1.0309v-0.53642zM269.25473,206.17195v0.53642h1.19116v-0.53642zM269.25473,207.23188v0.50088h1.19116v-0.50088zM269.98388,210.62493c-0.60553,0.32314 -1.37449,0.56873 -2.30687,0.73676l-0.32686,-0.59458c0.87583,-0.10771 1.56204,-0.27252 2.05864,-0.49442c-0.42534,-0.31668 -0.78886,-0.6926 -1.09056,-1.12777h-0.43373v-0.56227h3.68038l0.33,0.28437c-0.31219,0.49334 -0.75744,0.95758 -1.33574,1.39273c0.49658,0.20466 1.17336,0.35546 2.03033,0.4524l-0.36772,0.61074c-0.82132,-0.11418 -1.56724,-0.34684 -2.23773,-0.69799zM269.05044,209.14489c0.25352,0.30591 0.56153,0.5752 0.92401,0.80786c0.40858,-0.27144 0.72392,-0.54073 0.94602,-0.80786z"/><path d="M275.11593,206.08536c0.09428,0.14865 0.1739,0.29191 0.23885,0.42978l-0.66944,0.16481c-0.09219,-0.23697 -0.18858,-0.43517 -0.28915,-0.59459h-0.33c-0.17181,0.25637 -0.36877,0.48795 -0.59087,0.69476l-0.49658,-0.42978c0.39182,-0.33607 0.6904,-0.78632 0.89573,-1.35075l0.70087,0.10018c-0.06914,0.17235 -0.13409,0.31776 -0.19486,0.43624h1.3672v0.54934zM277.73079,206.08536c0.09429,0.13141 0.17496,0.2596 0.24201,0.38455l-0.64115,0.19711c-0.10686,-0.22189 -0.21162,-0.41578 -0.31429,-0.58166h-0.35201c-0.11315,0.20035 -0.22524,0.36624 -0.33629,0.49765h0.00296v0.34899h2.08684v0.52996h-2.08684v0.48149h2.72177v0.53642h-1.37657v0.52996h1.14717v0.56227h-1.14717v1.17624c0,0.22405 -0.066,0.38023 -0.198,0.46856c-0.10896,0.07325 -0.30068,0.10988 -0.57515,0.10988c-0.33524,0 -0.64744,-0.01616 -0.93658,-0.04847l-0.12258,-0.65598c0.36248,0.05388 0.68306,0.08082 0.96173,0.08082c0.07124,0 0.11524,-0.01616 0.132,-0.04847c0.01256,-0.02589 0.01884,-0.07113 0.01884,-0.13572v-0.94681h-3.75267v-0.56227h3.75267v-0.52996h-4.01668v-0.53642h2.6841v-0.48149h-2.0397v-0.52996h2.0397v-0.34899h0.47144l-0.36144,-0.27145c0.29753,-0.32745 0.53115,-0.76047 0.70087,-1.29904l0.66945,0.08082c-0.03774,0.10556 -0.09536,0.25312 -0.17286,0.4427h1.95489v0.54934zM274.87076,210.99393c-0.29962,-0.44163 -0.60134,-0.78953 -0.90515,-1.04371l0.54058,-0.36515c0.37925,0.27575 0.69668,0.58704 0.9523,0.93388z"/><path d="M280.3429,206.23746h0.96487v0.99206h-0.96487zM280.3429,209.14896h0.96487v0.99205h-0.96487z"/><path d="M286.33911,207.38328h0.71344v1.77409c0.49029,0.22189 0.99211,0.51488 1.50546,0.87896l-0.36144,0.60427c-0.36038,-0.27144 -0.74172,-0.52349 -1.14402,-0.75616c-0.02308,0.38131 -0.14356,0.6743 -0.36144,0.87896c-0.24305,0.2262 -0.58353,0.3393 -1.02143,0.3393c-0.42325,0 -0.77211,-0.0991 -1.04658,-0.29729c-0.26819,-0.19604 -0.40229,-0.46963 -0.40229,-0.82078c0,-0.36839 0.16867,-0.66352 0.50601,-0.88541c0.26191,-0.17235 0.59716,-0.25852 1.00575,-0.25852c0.19067,0 0.39286,0.02369 0.60658,0.07108zM286.33911,209.57423c-0.24934,-0.08833 -0.48506,-0.13249 -0.70716,-0.13249c-0.21791,0 -0.39286,0.03985 -0.52487,0.11956c-0.16972,0.10341 -0.25457,0.24128 -0.25457,0.41363c0,0.21111 0.12153,0.36514 0.36458,0.46209c0.12153,0.04739 0.26715,0.07108 0.43687,0.07108c0.27239,0 0.4683,-0.11849 0.58773,-0.35546c0.06496,-0.1271 0.09744,-0.27575 0.09744,-0.44594zM282.96674,206.14569h1.20062c0.10686,-0.37269 0.19277,-0.70122 0.25772,-0.9856l0.68829,0.08731c-0.08381,0.31668 -0.16972,0.61613 -0.25772,0.89834h1.14717v0.64952h-1.35142c-0.37505,1.10512 -0.81507,2.0401 -1.32006,2.80493l-0.58458,-0.34253c0.47772,-0.72819 0.88106,-1.54899 1.20999,-2.4624h-0.98997zM288.2154,207.71942c-0.46515,-0.53211 -0.99945,-1.01683 -1.6029,-1.45418l0.41486,-0.46532c0.59925,0.39854 1.14611,0.86279 1.64058,1.39273z"/><path d="M289.65281,205.31472h0.74173v3.85188c0,0.81215 0.41487,1.21822 1.24461,1.21822c0.54687,0 0.99527,-0.25959 1.3452,-0.77878c0.22629,-0.33391 0.42953,-0.85095 0.60973,-1.55112l0.63801,0.39747c-0.21371,0.77767 -0.47038,1.35933 -0.77001,1.74499c-0.47143,0.60105 -1.0843,0.90158 -1.83861,0.90158c-0.78779,0 -1.34303,-0.2499 -1.66573,-0.7497c-0.20324,-0.31237 -0.30486,-0.71524 -0.30486,-1.20859z"/></g></g></g></svg>