<svg version="1.1" xmlns="http://www.w3.org/2000/svg" xmlns:xlink="http://www.w3.org/1999/xlink" width="57.6077" height="91.23631" viewBox="0,0,57.6077,91.23631"><g transform="translate(-380.1224,115.47464)"><g data-paper-data="{&quot;isPaintingLayer&quot;:true}" fill="#ff0000" fill-rule="evenodd" stroke="none" stroke-width="0" stroke-linecap="round" stroke-linejoin="round" stroke-miterlimit="10" stroke-dasharray="" stroke-dashoffset="0" style="mix-blend-mode: normal"><path d="M399.35164,-109.48492l-0.45998,0.39998l0.56997,1.72993l-0.45998,1.19995l0.73997,0.33998l-0.69997,2.20991l0.09,1.88992l1.46994,0.15999l1.52994,1.05996l0.41998,1.89992l1.37995,-0.10999l1.01995,0.42999l-0.67997,1.85993l0.56997,1.92992l0.97996,0.93997l0.14999,0.71997l-0.60997,1.15995l1.37995,2.6599l0.25999,1.58993l0.64997,0.95996l1.35995,-0.53997l3.20987,1.29995l-0.88996,1.93992l0.79997,-0.09l1.29994,0.50998l0.79997,-0.58998l2.32991,-0.26999l0.12,0.69997l-0.62998,0.98996l-0.77996,0.11l-0.07,1.01995l1.59993,1.84993l0.43999,1.67993l-0.47998,2.97988l-1.12995,0.2l-0.47998,0.57998l-2.82989,0.20999l-0.28999,1.14995l0.32998,1.98992l0.75997,1.95992l-0.15999,2.85989l0.94997,2.4499l-0.05,2.17992l-0.56997,2.2899l-1.23996,1.64993v0.55998l-1.29995,2.4599l-0.84996,0.01l-2.62989,0.83996l-2.45991,-0.11999l-0.34998,1.22995l0.05,2.5299l0.64998,2.5799l-0.30999,1.97992l0.81997,1.09996l1.15995,0.52998l-0.19999,0.89997l1.19995,0.89997l-0.09,1.79992l-1.74993,1.55994l-1.52994,-0.39998l-0.90996,0.17l0.44998,-5.0298l-1.80993,-0.76997l-1.41994,-1.03995l-1.01996,-0.31999l-0.34998,-1.47994l-2.04992,-0.51998l-0.79997,-0.51998l-1.48994,0.83997l-1.11996,0.06l-1.16995,-0.46998l-2.74989,-2.3299l-1.06996,0.96996l-0.64997,-0.76997l0.59997,-0.55998l-0.63998,-1.47994l-0.55997,-0.53997l-2.05992,0.27999l-1.77993,-2.35991l-2.05991,-1.24995l-0.63998,-0.14999l1.66994,-2.15991l1.43994,-0.28999l1.19995,-1.00996l2.61989,-1.01996l0.41998,-0.80997l-0.09999,-1.13996l0.75997,-0.03l1.09996,0.89997l2.56989,-0.44998l1.31995,0.26999l0.47998,-0.70997l0.41998,-1.85993l-0.68998,-2.69989l-2.6299,0.62998l-0.16999,-1.67994l-1.35995,-1.16996l-1.50993,-0.14999l-0.24,-2.11991l-0.48998,-1.07996l-0.23999,-3.11988l-0.46998,-0.73997l0.72997,-1.36995l-0.27999,-1.21995l0.86996,-0.85997l-0.74997,-0.60997l-0.21999,-2.04992l-1.12995,-0.27999l-0.58997,-1.91992l0.31998,-1.01996l-0.79997,-0.74997l-1.51994,0.98996l-0.46998,-0.72997l-2.25991,-0.72997l-0.35999,-0.76997l0.61998,-1.20995l-1.29995,-2.20991l0.11999,-1.16995l-0.10999,-3.54986l0.50998,-0.58997l-0.23999,-0.93997l0.64997,-0.36998l0.92996,0.63997l1.34995,-1.35994l0.16999,-0.62998l1.25995,0.1l1.45994,1.12995l1.64994,2.29991l0.47998,-0.87996l-0.26999,-0.86996l0.95997,-0.34999l0.50998,-1.65994l0.80996,-1.63993l0.59998,-0.17l1.13995,-1.67993l1.10996,-0.13999l0.13999,-1.77993l-1.31995,-1.83992l-0.27999,-1.18995l-0.75997,-0.83997l0.75997,-1.66993l1.86993,-1.17996l-0.08,-1.75993l0.78997,-1.10995l1.14995,-0.26999l0.42998,-0.66997l1.06995,0.30998l1.87993,-0.15999l0.28999,1.13996l0.94996,1.78993l-0.39999,0.70997l-0.34999,2.19992"/><path d="M418.75087,-52.4872l1.78993,-0.87996l0.14999,1.61993l1.43994,1.43994l-0.04,1.18995l0.59997,0.56998l1.61994,-0.21999l-0.67997,1.34994l1.83992,0.53998l1.09996,-0.32998l1.16995,-0.79997l0.23999,-0.82996l0.95996,-1.27995l0.87996,0.43999l1.64994,-0.13l1.06995,-0.85996l-0.39998,-0.94996l1.46994,-1.44994l0.73997,-0.13999l2.05992,1.43994l1.31995,-0.18999l-0.37998,1.04996l-2.11991,0.98996l-0.98996,0.12l-0.44998,0.91996l-1.31994,0.29999l-1.12995,-0.25999l-1.79993,0.44998l-0.39998,1.20996l-0.90996,0.71997l0.39999,0.72997l-0.35999,0.86997l0.61997,0.96996l-0.09,1.12996l-0.72997,0.79997l-0.58998,-0.75997l-1.08995,0.18999l-1.68993,0.94996l-0.24999,-0.81997l0.45998,-1.00996l0.81997,-0.63997l-0.45998,-0.97996l-1.33995,-0.85997l-2.36991,-0.39998l-0.73997,-0.65997l-1.95992,1.42994l-0.09,2.40991l-0.94996,-0.88997l-1.63994,0.39999l-0.44998,-0.37999l-1.49994,0.41998l-1.32994,1.74993l-0.97996,-1.40994l0.45998,-0.90996l-2.4299,-2.11992l-0.46998,-0.76997l0.16,-2.04991l-0.35999,-0.50998l1.47994,-1.29995l-0.45998,-1.90993l0.80997,-0.56997l1.12995,0.74997l0.90997,-0.37999l-0.08,-0.97996l1.81993,0.08999l0.46998,-0.96996l1.05996,0.58998l0.42998,1.03996l1.89992,0.72997"/><path d="M403.05151,-38.48776l-0.71997,0.83997l-1.56994,-0.13l-0.27999,1.01996l-1.01996,0.41998l-0.27999,1.28995l-1.21996,0.08l-0.46998,0.81996l0.19,0.79997l-0.83997,0.53997l-0.98996,-1.40994l1.47994,-0.24999l0.53998,-1.00996l-0.11,-0.92997l1.98992,-1.55993l0.26999,-1.05996l-1.10996,-0.82997l-0.23999,-0.64997l0.37998,-1.19995l1.21995,1.63993l1.87992,0.13l0.89997,1.44994"/><path d="M416.75096,-34.28795l0.78997,0.90996l0.40998,1.11996l-0.28999,1.03996l-1.49994,-1.27995l-0.84997,-0.23999l-1.73993,0.20999l-0.26999,-0.64997l-1.10995,-0.70997l-0.01999,-0.80997l-1.14996,-0.49998l-1.35994,0.90996l-0.43998,-0.87996l1.56994,-0.45998l2.14991,-1.15995l1.39995,0.48998l1.22995,1.82993l1.17995,0.17999"/><path d="M391.35196,-32.28801l-1.90992,0.67998l-1.02996,0.66997l-1.36995,-0.48998l-0.32999,-0.97996h1.17996l0.36998,-1.69993l0.79997,-0.36999l0.63998,0.19999l1.43994,1.22995l0.20999,0.75997"/><path d="M407.25132,-25.98826l-0.36999,0.78997l-1.57993,0.95996l-0.68998,-0.77997l0.62997,-0.85996l1.20995,-0.50998l-0.45998,-0.94996l0.22999,-1.28995l0.81997,-1.73993l-0.45998,1.13996l-0.02,1.70993l0.68998,1.52994"/><path d="M432.25033,-62.08682l1.20995,-0.35999l1.27995,1.76993l-0.73997,0.54998l-1.58994,-0.63998l-0.15999,-1.31994"/><path d="M393.65189,-42.38762l0.02,-0.92996l0.52998,2.02991l-1.58994,0.21l1.03996,-1.30995"/><path d="M425.65059,-52.38721l0.01,-0.98996l1.01996,-0.53997l0.77997,0.82997l-0.69997,0.75997l-1.10996,-0.06"/></g></g></svg>