<svg version="1.1" xmlns="http://www.w3.org/2000/svg" xmlns:xlink="http://www.w3.org/1999/xlink" width="208" height="32" viewBox="0,0,208,32"><g transform="translate(-240,-164)"><g data-paper-data="{&quot;isPaintingLayer&quot;:true}" fill-rule="nonzero" stroke="none" stroke-linecap="butt" stroke-linejoin="miter" stroke-miterlimit="10" stroke-dasharray="" stroke-dashoffset="0" style="mix-blend-mode: normal"><path d="M240,196v-32h208v32z" fill="none" stroke-width="0"/><path d="M253.2,183.15c1.6146,1.4388 3.78907,2.6009 6.5234,3.4863l-1.2598,1.8359c-1.57553,-0.55989 -2.94923,-1.23696 -4.1211,-2.0312c-1.21093,-0.8268 -2.32747,-1.84243 -3.3496,-3.0469v6.1035h-2.1191v-5.9961c-0.90493,1.26953 -2.07357,2.40887 -3.5059,3.418c-1.10027,0.77473 -2.27867,1.39973 -3.5352,1.875l-1.3379,-1.7188c2.0638,-0.6836 3.7858,-1.60483 5.166,-2.7637c0.39063,-0.32553 0.78776,-0.71289 1.1914,-1.1621h-4.6973v-7.998h6.7188v-1.3184h-8.0957v-1.7578h8.0957v-1.582h2.1191v1.582h8.2227v1.7578h-8.2227v1.3184h6.8457v7.998zM248.8738,176.7926h-4.5996v1.582h4.5996zM250.9929,176.7926v1.582h4.7266v-1.582zM248.8738,179.8981h-4.5996v1.6113h4.5996zM250.9929,179.8981v1.6113h4.7266v-1.6113z" fill="#ffffff" stroke-width="1"/><path d="M265.84,184.3c-1.79687,0.944 -3.36263,1.66667 -4.6973,2.168l-0.82031,-2.1484c2.08987,-0.70313 3.92907,-1.4323 5.5176,-2.1875v-4.375h-4.834v-2.0606h4.834v-5.1953h2.1777v19.004h-2.1777zM272.7834,176.6926c1.51693,-0.79427 2.9883,-1.80337 4.4141,-3.0273l1.6211,1.6992c-1.92707,1.3672 -3.9388,2.53257 -6.0352,3.4961v7.3242c0,0.31901 0.10417,0.51433 0.3125,0.58594c0.22135,0.07161 0.73242,0.10742 1.5332,0.10742c1.05467,0 1.71547,-0.06185 1.9824,-0.18555c0.1888,-0.08463 0.31901,-0.3483 0.39062,-0.79101c0.09766,-0.61849 0.16928,-1.61783 0.21485,-2.998l2.1875,0.67383c-0.06513,1.6862 -0.1693,2.89713 -0.3125,3.6328c-0.16276,0.82033 -0.58919,1.35093 -1.2793,1.5918c-0.65755,0.22135 -1.73502,0.33203 -3.2324,0.33203c-1.7578,0 -2.86457,-0.14648 -3.3203,-0.43945c-0.4362,-0.28646 -0.6543,-0.83659 -0.6543,-1.6504v-16.543h2.1777z" fill="#ffffff" stroke-width="1"/><path d="M290.23,178.41v7.7344c0,0.5013 0.21485,0.80403 0.64454,0.9082c0.44271,0.11068 1.45507,0.16602 3.0371,0.16602c1.54293,0 2.5618,-0.07813 3.0566,-0.23438c0.27995,-0.09115 0.46224,-0.34505 0.54687,-0.76172c0.11068,-0.58593 0.16927,-1.2793 0.17578,-2.0801l2.041,0.57618c-0.10417,1.9206 -0.36784,3.1478 -0.79102,3.6816c-0.27995,0.35156 -0.70311,0.55989 -1.2695,0.625c-0.89193,0.09765 -2.4056,0.14648 -4.541,0.14648c-1.65367,0 -2.73767,-0.04557 -3.252,-0.13672c-0.77473,-0.13021 -1.26627,-0.47201 -1.4746,-1.0254c-0.10417,-0.29297 -0.15625,-0.6836 -0.15625,-1.1719v-7.7441l-1.8652,0.64453l-0.45899,-1.8945l2.3242,-0.80078v-5.2637h1.9824v4.5801l2.0996,-0.71289v-5.1465h1.9629v4.4629l3.2715,-1.123l1.0254,0.625v7.3144c0,0.50781 -0.12044,0.88541 -0.36133,1.1328c-0.27343,0.27343 -0.73243,0.41015 -1.377,0.41015c-0.52735,0 -1.08725,-0.04557 -1.6797,-0.13672l-0.32226,-1.8652c0.38411,0.09765 0.77475,0.14648 1.1719,0.14648c0.28646,0 0.46224,-0.05859 0.52734,-0.17578c0.06513,-0.09765 0.0977,-0.26041 0.0977,-0.48828v-4.6191l-2.3535,0.82031v7.9004h-1.9629v-7.2266zM283.0523,175.2166v-4.7168h2.0996v4.7168h1.8945v1.9824h-1.8945v6.2109c0.6836,-0.23437 1.36067,-0.47851 2.0312,-0.73242l0.18555,1.8848c-2.1094,0.96353 -4.2741,1.77083 -6.4941,2.4219l-0.6836,-2.0801c1.0026,-0.26041 1.8815,-0.50781 2.6367,-0.74218c0.09115,-0.03253 0.16602,-0.05533 0.22461,-0.0684v-6.8945h-2.4805v-1.9824z" fill="#ffffff" stroke-width="1"/><path d="M309.48,175.76c-0.0456,1.08727 -0.1107,2.0443 -0.19531,2.8711h7.8711c-0.09765,4.51827 -0.35156,7.4512 -0.76172,8.7988c-0.20833,0.67707 -0.5957,1.1458 -1.1621,1.4062c-0.44271,0.20182 -1.09051,0.30273 -1.9434,0.30273c-0.89847,0 -1.91733,-0.06836 -3.0566,-0.20507l-0.38085,-2.1973c1.52993,0.21485 2.6074,0.32227 3.2324,0.32227c0.52734,0 0.86264,-0.14974 1.0059,-0.44922c0.34505,-0.7292 0.58593,-2.74093 0.72265,-6.0352h-5.8105c-0.21485,1.17187 -0.51758,2.1875 -0.90821,3.0469c-1.08727,2.37627 -2.90367,4.26103 -5.4492,5.6543l-1.543,-1.7188c2.55207,-1.32813 4.23827,-3.06967 5.0586,-5.2246c0.54687,-1.4388 0.90167,-3.62957 1.0644,-6.5723h-6.4648v-2.002h7.9785v-3.2617h2.2559v3.2617h8.2422v2.002z" fill="#ffffff" stroke-width="1"/></g></g></svg>