<svg version="1.1" xmlns="http://www.w3.org/2000/svg" xmlns:xlink="http://www.w3.org/1999/xlink" width="208" height="32" viewBox="0,0,208,32"><g transform="translate(-240,-164)"><g data-paper-data="{&quot;isPaintingLayer&quot;:true}" fill-rule="nonzero" stroke="none" stroke-linecap="butt" stroke-linejoin="miter" stroke-miterlimit="10" stroke-dasharray="" stroke-dashoffset="0" style="mix-blend-mode: normal"><path d="M240,196v-32h208v32z" fill="none" stroke-width="0"/><path d="M253.12,184.26v-4.2188h1.8555v5.9766h-8.1445v1.3184h-1.8555v-7.2949h1.8555v4.2188h2.1582v-5.498h-5.0098v-1.7578h6.9531c0.65104,-1.13933 1.21094,-2.4056 1.6797,-3.7988l2.0215,0.70313c-0.55989,1.1784 -1.14256,2.2103 -1.748,3.0957h3.1543v1.7578h-5.1953v5.498zM258.6766,171.184v16.357c0,0.65755 -0.17578,1.12955 -0.52734,1.416c-0.33854,0.27343 -0.92774,0.41015 -1.7676,0.41015c-0.65755,0 -1.78059,-0.05534 -3.3691,-0.16601l-0.49805,-2.0606c1.1328,0.13672 2.24283,0.20508 3.3301,0.20508c0.36459,0 0.57943,-0.06185 0.64453,-0.18555c0.0456,-0.08463 0.0684,-0.25065 0.0684,-0.49804v-13.643h-13.105v16.484h-2.1191v-18.32zM246.6946,176.9555c-0.4362,-1.04167 -0.931,-1.9922 -1.4844,-2.8516l1.8262,-0.78125c0.61198,0.89193 1.12305,1.82943 1.5332,2.8125z" fill="#ffffff" stroke-width="1"/><path d="M271.03,185.42h4.9219v-10.742h2.2168v14.658h-2.2168v-1.7969h-11.943v1.7969h-2.1973v-14.658h2.1973v10.742h4.8047v-14.727h2.2168z" fill="#ffffff" stroke-width="1"/><path d="M296.76,170.98v9.4629h-11.621v-9.4629zM287.2385,172.523v1.2207h7.4023v-1.2207zM287.2385,175.1207v1.2207h7.4023v-1.2207zM287.2385,177.7183v1.2598h7.4023v-1.2598zM283.3029,181.7417h16.191v1.6992h-8.0762v6.0644h-2.2168v-6.0644h-8.0371v-10.957h2.1387zM280.8029,187.6401c1.54947,-0.71613 3.0306,-1.9173 4.4434,-3.6035l1.7969,1.0449c-1.3932,1.76433 -2.93943,3.15107 -4.6387,4.1602zM297.6389,188.8999c-0.99607,-1.22393 -2.49347,-2.50973 -4.4922,-3.8574l1.6797,-1.1816c1.569,0.90493 3.1087,2.09307 4.6191,3.5644z" fill="#ffffff" stroke-width="1"/></g></g></svg>