<svg version="1.1" xmlns="http://www.w3.org/2000/svg" xmlns:xlink="http://www.w3.org/1999/xlink" width="208" height="32" viewBox="0,0,208,32"><g transform="translate(-240,-164)"><g data-paper-data="{&quot;isPaintingLayer&quot;:true}" fill-rule="nonzero" stroke="none" stroke-linecap="butt" stroke-linejoin="miter" stroke-miterlimit="10" stroke-dasharray="" stroke-dashoffset="0" style="mix-blend-mode: normal"><path d="M240,196v-32h208v32z" fill="none" stroke-width="0"/><path d="M247.74,171.98c0.24089,-0.57943 0.4362,-1.13283 0.58594,-1.6602l2.3828,0.32226c-0.22787,0.54037 -0.4362,0.98633 -0.625,1.3379h6.5039v6.3672h-11.797v0.98633h14.697v1.582h-14.697v0.99609h14.014c-0.08463,2.9818 -0.27343,4.99353 -0.5664,6.0352c-0.18881,0.66406 -0.54364,1.10353 -1.0645,1.3184c-0.37109,0.15625 -0.93749,0.23437 -1.6992,0.23437c-0.78127,0 -1.51043,-0.04883 -2.1875,-0.14648l-0.39063,-1.6406h-9.7852v1.084h-2.0996v-4.6973h2.0996v2.0117h3.3594v-2.6367h-3.8379v-11.494zM251.8904,186.111v-2.0117h2.0215v3.3984c0.54036,0.05207 0.98956,0.0781 1.3476,0.0781c0.44271,0 0.7194,-0.12695 0.83008,-0.38085c0.21485,-0.47527 0.38412,-1.7155 0.50781,-3.7207h-8.0273v2.6367zM244.7908,173.484v0.96679h9.6387v-0.96679zM244.7908,175.8473v1.0644h9.6387v-1.0644z" fill="#ffffff" stroke-width="1"/><path d="M276.35,184.4c0.8724,1.1914 2.0215,2.16147 3.4473,2.9102l-1.2207,1.9238c-1.59507,-0.92447 -2.86133,-2.1061 -3.7988,-3.5449c-1.0026,-1.52993 -1.71223,-3.33657 -2.1289,-5.4199h-2.0117v6.4258c1.50387,-0.44271 2.76363,-0.84961 3.7793,-1.2207l0.18555,1.8555c-1.91407,0.83333 -4.11133,1.54623 -6.5918,2.1387l-0.67383,-2.002c0.46224,-0.08463 0.89517,-0.17252 1.2988,-0.26367v-16.006h9.4629v9.0625l1.3965,1.1914c-1.0612,1.18487 -2.10937,2.16793 -3.1445,2.9492zM275.48086,182.8961c0.931,-0.90493 1.70573,-1.7806 2.3242,-2.627h-3.1934c0.22136,0.98307 0.51108,1.85873 0.86915,2.627zM276.07656,172.8961h-5.4394v2.002h5.4394zM276.07656,176.4996h-5.4394v2.1094h5.4394zM263.51756,180.7476c-0.55989,1.65367 -1.31183,3.2715 -2.2558,4.8535l-1.1035,-2.168c1.46487,-2.04427 2.51303,-4.32943 3.1445,-6.8555h-2.7246v-1.9238h2.9394v-4.1602h2.041v4.1602h2.2949v1.9238h-2.2949v1.709c1.11327,0.80727 2.0768,1.68293 2.8906,2.627l-1.0742,1.8457c-0.58594,-0.80727 -1.19141,-1.54293 -1.8164,-2.207v8.9453h-2.041z" fill="#ffffff" stroke-width="1"/><path d="M296.76,170.98v9.4629h-11.621v-9.4629zM287.2385,172.523v1.2207h7.4023v-1.2207zM287.2385,175.1207v1.2207h7.4023v-1.2207zM287.2385,177.7183v1.2598h7.4023v-1.2598zM283.3029,181.7417h16.191v1.6992h-8.0762v6.0644h-2.2168v-6.0644h-8.0371v-10.957h2.1387zM280.8029,187.6401c1.54947,-0.71613 3.0306,-1.9173 4.4434,-3.6035l1.7969,1.0449c-1.3932,1.76433 -2.93943,3.15107 -4.6387,4.1602zM297.6389,188.8999c-0.99607,-1.22393 -2.49347,-2.50973 -4.4922,-3.8574l1.6797,-1.1816c1.569,0.90493 3.1087,2.09307 4.6191,3.5644z" fill="#ffffff" stroke-width="1"/><path d="M318.02,176.16v6.7773h-4.9414c0.61849,0.63802 1.20443,1.41929 1.7578,2.3438l-1.5918,1.0352c-0.49479,-0.944 -1.12956,-1.87823 -1.9043,-2.8027l1.1035,-0.57617h-5.1856v-1.4844h8.6816v-1.2598h-8.1152v-1.3574h8.1152v-1.2109h-8.6426v-1.4648h1.6016c-0.20833,-0.49479 -0.5306,-1.08073 -0.96679,-1.7578c-0.08464,-0.13021 -0.16277,-0.25391 -0.23438,-0.3711l1.7383,-0.63476c0.52735,0.67707 0.96355,1.41273 1.3086,2.207l-1.2988,0.55664h4.9902c0.63802,-1.237 1.14582,-2.42513 1.5234,-3.5644l1.8848,0.78125c-0.69013,1.34113 -1.2012,2.26887 -1.5332,2.7832zM305.051,177.5467c1.11327,1.6406 1.6699,3.3398 1.6699,5.0976c0,0.97653 -0.13346,1.67313 -0.40039,2.0898c-0.31901,0.48177 -0.93425,0.72265 -1.8457,0.72265c-0.37761,0 -0.77474,-0.03906 -1.1914,-0.11718l-0.38086,-1.9238c0.11068,0.01953 0.23112,0.04233 0.36133,0.0684c0.32552,0.06507 0.58919,0.0976 0.79101,0.0976c0.29948,0 0.49154,-0.05208 0.57618,-0.15625c0.09114,-0.10417 0.13671,-0.35807 0.13671,-0.76171c0,-1.862 -0.4948,-3.4896 -1.4844,-4.8828l0.10742,-0.33203c0.38411,-1.11327 0.74218,-2.42187 1.0742,-3.9258l0.0977,-0.46875h-1.7188v16.445h-1.9043v-18.262h4.8633l0.85938,0.78125c-0.39714,1.78387 -0.93424,3.62633 -1.6113,5.5274zM306.9553,171.8143c3.763,-0.22136 7.03123,-0.65429 9.8047,-1.2988l1.3184,1.4844c-3.30727,0.66407 -6.74793,1.13607 -10.322,1.416zM305.8615,187.9183c0.5599,-0.97007 1.05143,-2.3047 1.4746,-4.0039l1.6797,0.43945c-0.29948,1.8034 -0.77148,3.3366 -1.416,4.5996zM309.6603,184.0316h1.9434v2.7832c0,0.3125 0.10091,0.5013 0.30274,0.5664c0.28645,0.09115 0.75845,0.13672 1.416,0.13672c0.82033,0 1.2956,-0.11719 1.4258,-0.35156c0.09115,-0.16276 0.15625,-0.71289 0.19532,-1.6504l1.9043,0.65429c-0.00667,0.06513 -0.01317,0.2279 -0.0195,0.48829c-0.03253,1.17187 -0.30923,1.92383 -0.83008,2.2559c-0.42969,0.27343 -1.49089,0.41015 -3.1836,0.41015c-1.24347,0 -2.08007,-0.11393 -2.5098,-0.3418c-0.42969,-0.22786 -0.64453,-0.66406 -0.64453,-1.3086zM312.2189,176.0922c-0.30599,-0.91147 -0.71289,-1.75783 -1.2207,-2.5391l1.7578,-0.53711c0.49479,0.64453 0.93749,1.46483 1.3281,2.4609zM318.0978,188.3582c-0.84633,-2.0052 -1.56573,-3.42447 -2.1582,-4.2578l1.6406,-0.78125c0.90493,1.23047 1.65037,2.56837 2.2363,4.0137z" fill="#ffffff" stroke-width="1"/><path d="M335.39,184.74c1.3216,1.1198 2.79947,2.01173 4.4336,2.6758l-1.1621,1.9629c-1.6732,-0.80727 -3.20967,-1.88473 -4.6094,-3.2324c-1.47787,1.43227 -3.2552,2.58787 -5.332,3.4668l-1.2793,-1.7383c1.91407,-0.58593 3.6849,-1.62433 5.3125,-3.1152c-1.36067,-1.6276 -2.36653,-3.29753 -3.0176,-5.0098h-0.91797v-1.8848h3.8379v-2.6367h-4.4531v10.889h-5.5469v1.6992h-1.7773v-13.33h1.6797v9.7559h1.084v-13.457h1.7773v13.457h1.123v-9.7559h1.3965v-1.1816h4.7168v-2.8027h2.0606v2.8027h4.8047v1.9238h-4.8047v2.6367h3.1055l0.9375,0.96679c-1.0612,2.52607 -2.18427,4.49547 -3.3692,5.9082zM334.013,183.4021c1.0482,-1.3802 1.77087,-2.59767 2.168,-3.6524h-4.4336c0.58593,1.39973 1.34113,2.6172 2.2656,3.6524z" fill="#ffffff" stroke-width="1"/></g></g></svg>