<svg version="1.1" xmlns="http://www.w3.org/2000/svg" xmlns:xlink="http://www.w3.org/1999/xlink" width="208" height="32" viewBox="0,0,208,32"><g transform="translate(-240,-164)"><g data-paper-data="{&quot;isPaintingLayer&quot;:true}" fill-rule="nonzero" stroke="none" stroke-linecap="butt" stroke-linejoin="miter" stroke-miterlimit="10" stroke-dasharray="" stroke-dashoffset="0" style="mix-blend-mode: normal"><path d="M240,196v-32h208v32z" fill="none" stroke-width="0"/><path d="M245.84,184.3c-1.79687,0.944 -3.36263,1.66667 -4.6973,2.168l-0.82031,-2.1484c2.08987,-0.70313 3.92907,-1.4323 5.5176,-2.1875v-4.375h-4.834v-2.0606h4.834v-5.1953h2.1777v19.004h-2.1777zM252.7834,176.6926c1.51693,-0.79427 2.9883,-1.80337 4.4141,-3.0273l1.6211,1.6992c-1.92707,1.3672 -3.9388,2.53257 -6.0352,3.4961v7.3242c0,0.31901 0.10417,0.51433 0.3125,0.58594c0.22135,0.07161 0.73242,0.10742 1.5332,0.10742c1.05467,0 1.71547,-0.06185 1.9824,-0.18555c0.1888,-0.08463 0.31901,-0.3483 0.39062,-0.79101c0.09766,-0.61849 0.16928,-1.61783 0.21485,-2.998l2.1875,0.67383c-0.06513,1.6862 -0.1693,2.89713 -0.3125,3.6328c-0.16276,0.82033 -0.58919,1.35093 -1.2793,1.5918c-0.65755,0.22135 -1.73502,0.33203 -3.2324,0.33203c-1.7578,0 -2.86457,-0.14648 -3.3203,-0.43945c-0.4362,-0.28646 -0.6543,-0.83659 -0.6543,-1.6504v-16.543h2.1777z" fill="#ffffff" stroke-width="1"/><path d="M266.44,176.07v-2.7344h-5.8203v-1.8848h18.779v1.8848h-6.4551v2.7344h5.4785v13.164h-2.1191v-1.377h-12.607v1.377h-2.0996v-13.164zM268.4615,176.07h2.4609v-2.7344h-2.4609zM266.4303,177.8473h-2.7344v8.1543h12.607v-2.9297h-3.7012c-1.1198,0 -1.6797,-0.5599 -1.6797,-1.6797v-3.5449h-2.4805c-0.02607,1.6016 -0.26695,2.88417 -0.72266,3.8477c-0.42969,0.918 -1.27605,1.8262 -2.5391,2.7246l-1.3477,-1.5039c1.21093,-0.7422 1.9759,-1.66017 2.2949,-2.7539c0.16927,-0.58594 0.27018,-1.35744 0.30273,-2.3145zM272.944,177.8473v2.9883c0,0.25391 0.11393,0.38086 0.3418,0.38086h3.0176v-3.3691z" fill="#ffffff" stroke-width="1"/><path d="M291.5,176.91c0.48828,1.58853 1.26628,3.17383 2.334,4.7559c1.50393,2.23307 3.43753,4.069 5.8008,5.5078l-1.3574,2.0312c-2.168,-1.34767 -4.08207,-3.2194 -5.7422,-5.6152c-0.97653,-1.41273 -1.75453,-2.96873 -2.334,-4.668c-0.41016,1.4974 -0.96679,2.85157 -1.6699,4.0625c1.57553,1.0742 2.8646,2.10283 3.8672,3.0859l-1.3574,1.6016c-0.99607,-0.99607 -2.1842,-2.0117 -3.5644,-3.0469c-0.97007,1.28907 -1.9629,2.33723 -2.9785,3.1445c-0.6966,0.55989 -1.5104,1.10676 -2.4414,1.6406l-1.582,-1.8359c2.4414,-1.05467 4.39453,-2.71157 5.8594,-4.9707c1.1068,-1.71227 1.86527,-3.61007 2.2754,-5.6934h-7.6953v-2.0801h7.9004v-4.3359h2.3047v4.3359h7.9785v2.0801z" fill="#ffffff" stroke-width="1"/><path d="M311.04,173.3v7.6367h8.4668v2.002h-8.4668v6.5625h-2.1973v-6.5625h-8.3398v-2.002h8.3398v-7.6367h-7.4414v-1.9434h17.217v1.9434zM304.5263,180.1945c-0.64453,-1.91407 -1.35743,-3.6198 -2.1387,-5.1172l2.1191,-0.85937c0.7292,1.263 1.47463,2.97523 2.2363,5.1367zM313.1787,179.52067c0.83987,-1.57553 1.5495,-3.38217 2.1289,-5.4199l2.2168,0.71289c-0.61198,1.88153 -1.38021,3.7077 -2.3047,5.4785z" fill="#ffffff" stroke-width="1"/><path d="M331.56,175.5h-5.2246v-1.8164h2.666c-0.42318,-0.97007 -0.87241,-1.81643 -1.3477,-2.5391l1.9434,-0.72266c0.54687,0.918 1.04817,2.00523 1.5039,3.2617h3.1055c0.41667,-0.96353 0.8138,-2.05077 1.1914,-3.2617l2.1973,0.60547c-0.40365,1.02867 -0.80728,1.91407 -1.2109,2.6562h2.5586v1.8164h-5.2246v2.5195h4.6387v1.7578h-4.6387v2.6953h5.7812v1.8848h-5.7812v5.1465h-2.1582v-5.1465h-5.6445v-1.8848h5.6445v-2.6953h-4.668v-1.7578h4.668zM324.1577,175.23632c-0.77473,-1.0742 -1.80013,-2.11913 -3.0762,-3.1348l1.4746,-1.5039c1.3086,0.95053 2.3763,1.9629 3.2031,3.0371zM323.52293,180.25582c-1.0156,-1.237 -2.0703,-2.29493 -3.1641,-3.1738l1.4844,-1.5039c1.16533,0.84633 2.2428,1.8652 3.2324,3.0566zM320.70063,187.77532c1.15887,-1.6016 2.27213,-3.7533 3.3398,-6.4551l1.6602,1.2988c-0.91147,2.7344 -2.0052,5.0228 -3.2812,6.8652z" fill="#ffffff" stroke-width="1"/></g></g></svg>