<svg xmlns="http://www.w3.org/2000/svg" viewBox="0 0 224 68" version="1.1" height="68" width="224">
 <rect stop-color="#000000" fill="none" ry="0" rx="0" height="68" width="224"></rect>
 <rect stop-color="#000000" fill="#1d2a41" ry="0" rx="0" height="66" width="224" y="2"></rect>
 <g transform="translate(0,2)">
  <path stop-color="#000000" fill-rule="evenodd" fill="#c125ed" d="m20 18h34c5.54 0 10 4.46 10 10v16c0 5.54-4.46 10-10 10h-44v-26c0-5.54 4.46-10 10-10z"></path>
  <g aria-label="10m" fill="#fff">
   <path d="m19.71 31.603-1.65-1.71 4.14-4.5v3.48zm2.49 14.94v-21.15h2.73v21.15z"></path>
   <path d="m36.584 41.143v-10.35h2.73v10.35zm-8.43 0v-10.35h2.73v10.35zm5.49-13.86v-2.34h0.18v2.34zm0 19.71v-2.37h0.18v2.37zm-5.49-16.2q0-1.71 0.72-3 0.75-1.32 1.98-2.07 1.26-0.78 2.85-0.78v2.34q-1.32 0-2.07 0.93-0.75 0.9-0.75 2.58zm11.16 0h-2.73q0-1.68-0.75-2.58-0.72-0.93-2.07-0.93v-2.34q1.59 0 2.82 0.78 1.26 0.75 1.98 2.07 0.75 1.29 0.75 3zm-11.16 10.35h2.73q0 1.65 0.75 2.58 0.75 0.9 2.07 0.9v2.37q-1.59 0-2.85-0.75-1.23-0.78-1.98-2.1-0.72-1.32-0.72-3zm11.16 0q0 1.68-0.75 3-0.72 1.32-1.98 2.1-1.23 0.75-2.82 0.75v-2.37q1.35 0 2.07-0.9 0.75-0.93 0.75-2.58z"></path>
   <path d="m41.677 46.543v-10.1h1.82v10.1zm5.22 0v-6.88h1.82v6.88zm-4.22-6.84q0-1.02 0.38-1.82 0.4-0.82 1.08-1.28t1.52-0.46l-0.46 1.62q-0.72 0-1.22 0.54-0.48 0.54-0.48 1.4zm4.22-0.04q0-0.84-0.48-1.36-0.48-0.54-1.22-0.54l0.46-1.62q0.88 0 1.56 0.46 0.7 0.46 1.1 1.26 0.4 0.78 0.4 1.8zm5.2 6.88v-6.88h1.82v6.88zm-4.2-6.84q0-1.02 0.38-1.82 0.4-0.82 1.06-1.28 0.68-0.46 1.52-0.46l-0.46 1.62q-0.72 0-1.2 0.54t-0.48 1.4zm4.2-0.04q0-0.84-0.48-1.36-0.46-0.54-1.22-0.54l0.46-1.62q0.88 0 1.56 0.46 0.7 0.46 1.1 1.26 0.4 0.78 0.4 1.8z"></path>
  </g>
 </g>
 <g aria-label="大津波警報" fill="#fff" transform="translate(18,2)">
  <path d="m68.493 33.271q0.74121 2.5137 2.8145 5.3496 2.5244 3.459 6.209 5.4785l-1.5361 2.2129q-3.8994-2.2988-6.5098-6.0908-1.4072-2.0625-2.2559-4.2002-0.84863 2.8789-2.6318 5.2314-2.6211 3.4805-6.4775 5.1348l-1.5146-1.9658q4.0391-1.6865 6.5205-5.1992 2.084-2.9648 2.4707-5.9512h-8.5723v-2.3311h8.6689v-5.1777h2.4814v5.1777h8.8516v2.3311z"></path>
  <path d="m92.298 35.979v1.5361h5.8545v1.7617h-5.8545v1.5791h6.7354v1.8906h-6.7354v3.7061h-2.3096v-3.7061h-6.1768v-1.8906h6.1768v-1.5791h-5.2529v-1.7617h5.2529v-1.5361h-4.6406v-1.6328h4.6406v-1.6865h-6.4453v-1.7402h6.4453v-1.6543h-4.5332v-1.6973h4.5332v-2.0195h2.3096v2.0195h5.3711v3.3516h1.8691v1.7402h-1.8691v3.3193zm0-1.6328h3.126v-1.6865h-3.126zm0-3.4268h3.126v-1.6543h-3.126zm-9.8936-0.26855q-1.3428-1.8477-3.2119-3.4053l1.665-1.5684q2.0195 1.5469 3.2871 3.2549zm-0.75195 5.5859q-1.5576-2.0518-3.2549-3.4912l1.6543-1.6113q1.7295 1.3105 3.3838 3.3408zm-2.8789 8.5615q2.0625-3.373 3.5127-7.5947l1.8799 1.3213q-1.3428 4.2754-3.373 7.874z"></path>
  <path d="m116.4 41.779q2.0732 1.4717 5.2852 2.5137l-1.2031 2.1484q-3.3838-1.332-5.5859-3.083-2.2773 2.0303-5.167 3.2227l-1.5039-1.6973q2.9756-1.0527 5.1348-2.9541-2.4492-2.707-3.5127-5.6719h-0.41895q-0.0645 2.9004-0.51562 5.0166-0.5586 2.6104-2.0947 4.9951l-1.7402-1.5898q1.418-2.3096 1.8584-5.167 0.2793-1.7832 0.2793-4.0068v-6.9717h5.6289v-2.9863h2.2881v2.9863h4.9307l1.1172 0.9668q-0.66601 2.2129-1.5576 4.0498l-2.1807-0.64453q0.70899-1.1602 1.0527-2.3311h-3.3623v3.792h3.5664l1.0742 0.92383q-1.2783 3.835-3.373 6.4883zm-1.6436-1.3535q1.6221-2.0518 2.2451-4.168h-5.1455q1.0098 2.2773 2.9004 4.168zm-1.9121-9.8506h-3.4053v3.792h3.4053zm-7.9814 0.49414q-1.418-1.9229-3.4805-3.6094l1.6758-1.6221q2.0088 1.4502 3.6094 3.4053zm-0.97754 5.1885q-1.5361-1.9766-3.4268-3.5342l1.6543-1.6113q1.8584 1.3213 3.5342 3.3623zm-3.1797 8.4971q2.0195-3.0293 3.5772-7.3477l1.9443 1.3428q-1.4394 4.2861-3.4805 7.7451z"></path>
  <path d="m140.03 31.703q1.5039 0.81641 3.5772 1.2998l-1.1172 1.7402q-2.3525-0.79492-3.835-1.7939-1.5146 1.0957-3.7383 1.5469h5.081v1.2354h-13.857v-1.2354h3.5772l-0.19336-0.80566h-5.0059v-2.2666q-0.52637 0.44043-0.99902 0.75195l-1.1387-1.5898q1.6221-0.93457 2.4385-2.3311l0.6875 0.0752v-0.4082h-2.9541v-1.4502h2.9541v-0.92383h2.0195v0.92383h2.0625v-0.92383h2.0518v0.92383h2.6426v1.4502h-2.6426v0.77344h2.2451q-0.0215 0.29004-0.043 0.42969-0.0215 0.22559-0.0322 0.35449 1.5254-1.5254 2.4707-4.125l2.0732 0.42969q-0.25781 0.69824-0.53711 1.2998h5.3066v1.7188h-1.4717q-0.47266 1.5146-1.6221 2.9004zm-2.7715 0.09668q-0.63379-0.6123-1.3643-1.6758-0.50488 0.59082-0.99903 1.0312l-1.1172-1.2998q-0.29004 2.793-0.58008 3.5234-0.37598 0.93457-1.4717 1.1172h2.6963l-0.95606-1.4502q2.4062-0.35449 3.792-1.2461zm1.2676-1.1387q0.65528-0.77344 1.0527-1.8584h-2.6748q0.6875 1.0635 1.6221 1.8584zm-8.9375-1.9658v-0.77344h-2.0625v0.77344zm-3.7168 1.3213q-0.22559 0.29004-0.58008 0.65527h5.2744v2.46q0.12891 0.01074 0.15039 0.01074 0.36524 0 0.49414-0.33301 0.34375-0.81641 0.51563-2.793zm0.53711 1.8262v0.67676h2.3096v-0.67676zm15.028 10.377v4.2324h-2.4062v-0.75195h-12.053v0.75195h-2.3955v-4.2324zm-14.459 1.2568v0.92383h12.053v-0.92383zm-4.4258-7.0576h20.904v1.3857h-20.904zm2.8789 2.084h15.157v1.1709h-15.157zm0 1.8799h15.157v1.1387h-15.157z"></path>
  <path d="m148.87 27.793v-2.2451h2.2451v2.2451h3.3408v1.8906h-3.3408v1.8477h3.8027v1.9121h-1.2783q-0.34375 1.2783-0.92383 2.707h2.0732v1.8691h-3.6738v1.9873h3.5342v1.9121h-3.5342v4.5332h-2.2451v-4.5332h-3.792v-1.9121h3.792v-1.9873h-3.9639v-1.8691h1.9766q-0.34375-1.4287-0.83789-2.707h-1.5791v-1.9121h4.4043v-1.8477h-3.502v-1.8906zm2.6748 5.6504h-3.416q0.36523 1.0205 0.78418 2.707h1.7832q0.5586-1.375 0.84864-2.707zm13.03-7.1221v5.0273q0 0.93457-0.34375 1.3213-0.4082 0.46191-1.708 0.46191-1.2676 0-2.5352-0.10742l-0.36523-1.9336q1.7832 0.19336 2.2666 0.19336 0.50488 0 0.50488-0.44043v-2.5889h-4.7051v6.2412h6.0908l1.2783 1.0957q-0.58008 3.416-2.1162 6.1016l-0.11817 0.21484q1.1816 1.3643 2.9541 2.4922l-1.2031 2.0088q-1.6973-1.0957-3.0293-2.6211-1.1494 1.4609-2.5889 2.75l-1.2676-1.7617v1.6758h-2.1807v-20.131zm-6.8857 10.108v8.1211q1.3213-0.90234 2.5459-2.5352-1.6436-2.5352-2.3096-5.5859zm3.7383 3.6846q0.95605-1.8477 1.2461-3.6846h-2.7715q0.52636 2.0625 1.5254 3.6846z"></path>
 </g>
</svg>
