<svg version="1.1" xmlns="http://www.w3.org/2000/svg" xmlns:xlink="http://www.w3.org/1999/xlink" width="157.6879" height="183.71286" viewBox="0,0,157.6879,183.71286"><g transform="translate(-193.91913,-6.75445)"><g data-paper-data="{&quot;isPaintingLayer&quot;:true}" fill="#ff0000" fill-rule="evenodd" stroke-linecap="round" stroke-linejoin="round" stroke-miterlimit="10" stroke-dasharray="" stroke-dashoffset="0" style="mix-blend-mode: normal"><path d="M206.61282,175.17771l1.16195,1.91992l0.67398,-0.20999l0.76996,1.33995l1.14996,1.34995l-0.97396,0.78997l-0.87596,1.71993l-0.144,1.84993l0.61897,0.52998l0.33899,0.99996h-1.36894l-0.63098,-0.68998l-1.29195,-0.56997l-0.44798,-1.05996l-0.79297,-0.84996l-0.47898,-1.38995l-1.72593,-1.26995l-2.07792,-0.32998l-0.80696,-0.49998l-0.79097,-1.57994l0.77997,-0.79997l1.01296,0.01l1.28695,-0.42998l1.86892,-1.20995l1.72294,-0.23999l1.02195,0.61998" stroke="#ff0000" stroke-width="10"/><path d="M351.60702,8.88437l-0.23899,0.68998l-1.11295,-0.76997l-0.53898,-1.20996l0.52098,-0.83997l1.36995,2.12992" stroke="none" stroke-width="0"/></g></g></svg>