<svg version="1.1" xmlns="http://www.w3.org/2000/svg" xmlns:xlink="http://www.w3.org/1999/xlink" width="89.52147" height="157.83056" viewBox="0,0,89.52147,157.83056"><g transform="translate(-186.44845,-19.58808)"><g data-paper-data="{&quot;isPaintingLayer&quot;:true}" fill="none" fill-rule="evenodd" stroke="#fc3324" stroke-width="36" stroke-linecap="round" stroke-linejoin="round" stroke-miterlimit="4" stroke-dasharray="" stroke-dashoffset="0" style="mix-blend-mode: normal"><g><path d="M212.62714,107.81687l2.4796,-0.91985l0.53992,-1.69973l2.09966,-0.75988l0.03,-2.08967l4.10934,-0.09998l4.78924,-2.71957l0.91985,-1.92969l-1.19981,-2.13966l3.08951,-3.7394l-0.58991,-2.87954l0.75988,-2.34963l-3.21948,-6.64893l-0.49992,-1.8297l-4.3793,-3.10951l-3.60942,1.16982l-1.72972,-0.47993l-1.90969,1.80971l-2.94953,1.45977l-3.98936,-5.40914l1.01984,-2.42961l1.78972,0.05999l1.8497,-1.86971l0.19997,-3.36946l2.04967,-0.5699l-0.10998,-1.35979l-3.22949,-2.05967l-0.29996,-2.39962l-1.68973,-2.99952l-0.17998,-1.8897l-2.46961,-2.5296l0.11999,-1.56975l-1.96969,-3.67941l2.36962,0.54991l1.8997,-2.04967l5.33914,-4.20933l1.11982,-3.48944l1.32979,0.28995l3.89938,3.58943l0.27995,1.79971l7.81875,0.90985l0.6599,2.31963l2.4396,1.39978l-0.80987,1.68973l2.38962,1.04983l1.18981,3.82939l-0.22996,2.77955l-1.52975,1.45977l1.89969,2.5296l0.50992,4.3593l1.96969,6.00904l2.44961,0.47993l4.70925,2.86954l-0.03999,3.27947l5.60911,1.41977l0.28995,1.76972l3.07951,3.40946l-1.31979,3.68941l0.6599,1.57974l0.09999,4.82923l-3.90938,1.62974l-2.99952,4.06935l-3.82939,1.2898l-4.68925,3.25948l1.42978,2.61958l1.8997,-0.94985l3.31947,-0.07998l4.08934,-1.34978l1.8797,0.36994l7.27884,-2.4896l0.96984,1.25979l-0.76988,2.25964l-1.30979,-1.27979l-2.11966,1.01984l1.45977,1.38978l-2.5296,1.21981l-1.8897,1.99968l-2.73956,4.54927l-1.8597,-0.03999l-0.75988,1.46976l3.1395,2.25964l-2.07967,0.77988l-0.42993,1.85971l2.24964,1.00984l0.87986,4.31931l-5.41913,5.42913l-3.34946,3.98937l2.13966,0.6199l-2.4796,1.2498l-0.23996,2.03967l-1.41977,0.04l0.6099,2.98952l1.77972,0.15998l-1.2398,1.53976l-1.19981,-1.11982l-1.67973,1.03983l0.18997,1.8197l-2.23964,0.91985l-0.57991,3.1095l-1.97969,0.32995l-2.94952,3.62942l0.69988,1.48976l-1.97968,1.15982l0.04,1.60974"/><path d="M227.36478,137.72209l1.8797,1.07983l-2.91953,3.62942l-1.60974,0.94985l-2.34963,-0.25996l2.83955,-1.19981l0.35994,-2.46961l1.79971,-1.72972"/><path d="M223.29543,135.84238l2.41961,2.25964l-2.85954,1.14981l-0.6399,-2.84955l1.07983,-0.55991"/><path d="M211.55731,119.79496l-0.47992,0.78987l1.61975,2.90953l-1.15982,1.62974l1.26979,3.53944l-1.02983,5.15917l1.99968,-0.87986l0.6099,2.79955l-1.8297,2.63958l-0.74988,2.75955l-2.69957,1.50976l0.21997,-3.41946l-2.08966,2.07967"/><path d="M237.90309,116.61546l-2.30963,5.20917l-0.88986,3.67941l-2.08966,2.40962l0.80987,1.48976l-3.58943,4.73924l-1.59974,-0.67989l-0.77988,1.31979l-0.79987,-5.09918l-1.8797,2.4596l-2.36962,0.29996l-4.3793,-1.62974l-0.94985,2.71956l-1.8697,0.26995l1.01984,-3.21948l-2.28964,-0.37994l-1.63974,-4.23932l7.71876,-3.86938l3.38946,-3.96936l4.46928,-1.2598l1.17981,0.30995l2.24964,3.02952l1.65974,-2.25964l4.93921,-1.32979"/><path d="M239.18289,109.79656l1.38977,2.05967l-2.34962,3.67941l-0.33995,-4.14934l1.2998,-1.58974"/><path d="M241.18257,107.18697l1.55975,0.30995l-0.01999,1.84971l-1.66974,1.81971l-1.8697,-3.27947l1.99968,-0.69989"/><path d="M236.14337,105.27727l1.47976,1.34978l-1.31979,2.69957l1.43977,0.37993l-1.58974,1.94969l0.36994,2.76956l-4.18933,-0.24996l1.18981,-3.56943l-2.32963,-0.92985l2.59958,-3.40945l2.34963,-0.98985"/></g></g></g></svg>