<svg version="1.1" xmlns="http://www.w3.org/2000/svg" xmlns:xlink="http://www.w3.org/1999/xlink" width="126" height="100" viewBox="0,0,126,100"><g transform="translate(-177,-130)"><g data-paper-data="{&quot;isPaintingLayer&quot;:true}" fill-rule="nonzero" stroke-linecap="butt" stroke-linejoin="miter" stroke-miterlimit="10" stroke-dasharray="" stroke-dashoffset="0" style="mix-blend-mode: normal"><path d="M193.67243,170.84708h13.31572v3.1792h-13.31572zM211.1942,192.7788c-2.77836,0.47858 -5.72884,0.71787 -8.85148,0.71787c-3.20845,0 -5.78472,-0.34185 -7.72881,-1.02556c-0.75695,-0.26371 -1.45799,-0.68369 -2.1031,-1.25994c-0.98918,-0.8986 -1.48378,-2.14391 -1.48378,-3.73592c0,-2.00226 0.67955,-3.75547 2.03862,-5.25964l2.24503,1.68481c-0.82576,1.10372 -1.23864,2.1439 -1.23864,3.12057c0,1.09395 0.58061,1.87044 1.74183,2.3295c0.61934,0.25396 1.60425,0.45906 2.95472,0.61533c1.11824,0.13675 2.27517,0.20511 3.47083,0.20511c3.01921,0 5.87079,-0.24905 8.55476,-0.74718zM209.41364,173.13258c-0.64511,-1.7581 -1.5053,-3.47224 -2.58055,-5.14237l1.97407,-0.8058c1.04083,1.5823 1.90531,3.25247 2.59347,5.01051zM212.98768,172.37074c-0.60213,-1.71901 -1.44941,-3.42825 -2.54182,-5.1277l1.90958,-0.74718c0.929,1.26975 1.78917,2.90084 2.58055,4.89332z" fill="#ff0000" stroke="none" stroke-width="1"/><path d="M234.04543,194.93312c-3.88798,-3.43802 -8.98013,-7.27661 -15.27642,-11.51579c-1.16123,-0.77162 -1.74182,-1.58227 -1.74182,-2.43201c0,-0.60556 0.25376,-1.17696 0.76125,-1.71412c0.21505,-0.2344 0.75695,-0.6251 1.62571,-1.17208c3.17406,-2.00226 6.59769,-4.39031 10.27085,-7.16418c1.38489,-1.0353 2.64505,-2.03643 3.78045,-3.00338l1.69027,2.51996c-4.42992,3.56499 -8.97595,6.81753 -13.63809,9.75753c-0.45589,0.293 -0.68384,0.53722 -0.68384,0.73254c0,0.15627 0.12474,0.33207 0.37418,0.52741c0.06882,0.0586 0.4688,0.33209 1.19998,0.82046c5.90098,3.95571 10.34384,7.19363 13.32856,9.71379z" fill="#ff0000" stroke="none" stroke-width="1"/><path d="M253.88877,171.98983l4.77394,-0.41023c-1.04943,-1.10372 -2.2967,-2.14879 -3.7418,-3.13523l1.97414,-1.52365c1.41928,0.84974 2.71383,1.83621 3.88366,2.95941l-1.96124,1.68479l3.65143,-0.293l0.19354,2.5492l-8.6703,0.74718c0.0086,0.40046 0.05162,1.15252 0.12903,2.25618l7.58687,-0.70323l0.18063,2.46133l-7.53515,0.71788c0.01721,0.18557 0.04732,0.46394 0.09031,0.83509c0.01721,0.16606 0.07742,0.61048 0.18063,1.33323l8.51551,-0.83509l0.20644,2.57852l-8.16746,0.8937c0.33547,1.18184 0.71393,2.20739 1.13543,3.07669c1.45371,-1.0744 2.77837,-2.1781 3.97403,-3.31107l1.87087,1.86062c-1.49669,1.36742 -3.00199,2.58832 -4.51589,3.66273c0.63652,0.88882 1.22573,1.55297 1.76766,1.99247c0.5677,0.46882 0.94186,0.70323 1.12252,0.70323c0.24084,0 0.42149,-0.29791 0.54192,-0.89371c0.15483,-0.76183 0.27953,-1.90458 0.37417,-3.42825l2.42571,1.46508c-0.18923,2.10969 -0.46879,3.64313 -0.83864,4.6003c-0.43009,1.11345 -1.03652,1.67015 -1.81928,1.67015c-0.60213,0 -1.43219,-0.30767 -2.49018,-0.92303c-1.3161,-0.77162 -2.50313,-1.95342 -3.56113,-3.54544c-2.58909,1.5823 -5.32443,2.96435 -8.20597,4.14614l-1.6128,-2.51998c2.99343,-0.99628 5.84928,-2.2953 8.5676,-3.89711c-0.59351,-1.24041 -1.09672,-2.69083 -1.5096,-4.35126l-6.45129,0.71788l-0.25805,-2.76899l6.19325,-0.61534l-0.03872,-0.21975c-0.08602,-0.57626 -0.16774,-1.23065 -0.24515,-1.96315l-4.79975,0.46882l-0.18064,-2.51997l4.74819,-0.43953c-0.04303,-0.55673 -0.09034,-1.30879 -0.14192,-2.25618l-5.32877,0.46883l-0.25805,-2.60784l5.47071,-0.45416c-0.05161,-1.55297 -0.07741,-3.2427 -0.07741,-5.06916h2.77405c0.0086,2.07061 0.0344,3.68217 0.07741,4.83469zM243.68284,173.93842c-1.17843,-1.50413 -2.559,-2.95455 -4.14171,-4.35127l1.92249,-2.25618c1.63435,1.37717 3.03644,2.77878 4.20627,4.20478zM242.74091,181.3224c-1.40207,-1.78735 -2.80415,-3.24756 -4.20625,-4.3806l1.84503,-2.40268c1.59991,1.18184 3.04502,2.57854 4.33529,4.19011zM238.71532,192.98479c1.66012,-2.58829 3.20415,-5.7382 4.63208,-9.44976l2.19346,2.06578c-1.30744,3.70178 -2.79555,6.98344 -4.46432,9.84498z" fill="#ff0000" stroke="none" stroke-width="1"/><path d="M277.79922,186.2892c-1.59131,5.31333 -3.37618,7.97001 -5.3546,7.97001c-1.41067,0 -2.6192,-1.12323 -3.62559,-3.36971c-0.77416,-1.73856 -1.30746,-3.65289 -1.5999,-5.74306c-0.35267,-2.53949 -0.52901,-5.80171 -0.52901,-9.78668c0,-1.72879 0.05591,-3.58453 0.16773,-5.56723l3.0321,0.26371c-0.11182,1.98271 -0.16773,3.86778 -0.16773,5.6552c0,6.2707 0.5161,10.64138 1.54833,13.11205c0.42148,1.01576 0.81718,1.52365 1.18707,1.52365c0.24084,0 0.54191,-0.31256 0.90319,-0.9377c0.73974,-1.26975 1.45367,-3.01807 2.14182,-5.24498zM285.96668,189.77609c-0.43869,-4.12173 -0.97629,-7.45224 -1.6128,-9.99157c-0.77416,-3.07664 -1.67306,-5.89447 -2.69668,-8.45344l2.74824,-0.76183c1.41928,3.19387 2.47298,6.27063 3.16113,9.23031c0.5677,2.40271 1.03651,5.45975 1.40639,9.17112z" fill="#ff0000" stroke="none" stroke-width="1"/><path d="M177,230v-100h126v100z" fill="none" stroke="#959196" stroke-width="0"/><path d="M177,230v-100h126v100z" fill="none" stroke="#959196" stroke-width="0"/></g></g></svg>