<svg version="1.1" xmlns="http://www.w3.org/2000/svg" xmlns:xlink="http://www.w3.org/1999/xlink" width="85.14212" height="88.20166" viewBox="0,0,85.14212,88.20166"><g transform="translate(-560.14638,-41.99587)"><g data-paper-data="{&quot;isPaintingLayer&quot;:true}" fill="none" fill-rule="evenodd" stroke="#fc3324" stroke-width="36" stroke-linecap="round" stroke-linejoin="round" stroke-miterlimit="4" stroke-dasharray="" stroke-dashoffset="0" style="mix-blend-mode: normal"><g><path d="M591.1843,67.85463l3.00952,4.9792l-3.09951,-0.13997l-0.56991,-1.66974l0.6599,-3.16949"/><path d="M590.30444,112.19753l-1.51976,-0.88986l-3.44945,-0.04l-3.44945,-4.50928l-0.11998,2.18965l-2.17966,-2.17965l2.16966,-3.36946l-2.68957,-0.94985l2.29963,-0.70988l-0.35994,-5.59911l-2.85954,-0.51992l0.91985,-2.04967l1.8797,-0.56991l1.64973,1.27979l2.14966,-4.49928l-2.01968,-1.47976l-0.6299,1.03984l-2.59958,-1.78972l0.6599,-2.27964l3.7094,-0.28995l6.69893,-3.49944l-0.26995,-1.48976l1.48976,-1.38977l0.99984,2.08967l1.96969,0.6599l0.53991,-1.3098l-2.15966,-1.67973l3.44945,-0.76988l-2.35962,-3.93937l-2.16966,1.2398l-1.66973,-3.89937l0.55991,-5.19917l1.45976,-2.90953l2.00968,3.78939l1.12982,0.66989l0.94984,-2.28964l3.28948,-0.30995l3.39945,0.70989l-0.23996,1.43977l2.4996,1.08982l4.18933,-2.92953l-2.12966,-1.8297l2.84955,-3.1595l3.60942,-0.06999l8.68861,8.70861l3.91937,1.33978l0.71988,3.7694l-2.4896,0.98984l-0.53991,1.50976l-2.44961,0.63989l-5.47913,7.90874l-4.07934,1.31979l-1.69973,3.19949l-4.55927,1.38977l-0.5899,2.4996l2.07966,3.56943l-3.01951,1.31979l0.92985,1.53975l-5.11918,-2.09966l0.11998,3.50943l-0.95985,-1.49976l-1.46976,1.82971l1.65973,1.2798l-2.28963,1.17981l0.32995,0.92985l-3.58942,0.44993"/></g></g></g></svg>