<svg version="1.1" xmlns="http://www.w3.org/2000/svg" xmlns:xlink="http://www.w3.org/1999/xlink" width="81.37678" height="51.18794" viewBox="0,0,81.37678,51.18794"><g transform="translate(-284.56624,27.52821)"><g data-paper-data="{&quot;isPaintingLayer&quot;:true}" fill="#ff0000" fill-rule="evenodd" stroke="none" stroke-width="0" stroke-linecap="round" stroke-linejoin="round" stroke-miterlimit="10" stroke-dasharray="" stroke-dashoffset="0" style="mix-blend-mode: normal"><path d="M362.65311,7.11041l-1.23995,0.15999l-1.17995,1.50994l-2.00992,0.42999l-1.25995,-0.43999l0.22999,-1.05996l0.65997,-0.88996l-2.34991,-0.18999l-0.70997,-1.21995l-1.98992,-0.55998l-0.47998,-1.31995l-0.21999,-2.74989l-1.14995,-2.03992l-0.47998,-1.60994l0.36998,-2.12991l-0.27999,-0.81997l-0.93996,0.37999l-1.23996,1.02996l-1.03995,1.75993l-1.68994,3.31987l-0.54997,0.41998l0.37998,2.96988l-1.24995,0.20999l-3.27987,-2.12991l-0.66998,-0.04l-0.99996,-1.32995l-1.59993,-0.51997l-0.95996,-1.91993l-1.93993,0.76997l1.03996,1.04996l-0.03,1.09996l-1.63993,-0.49998l-1.04996,0.91996l-0.48998,1.43994l1.84992,1.92992l-0.14999,0.70998l0.78997,2.23991l0.13999,1.09995l-0.83997,2.32991l-0.72997,0.33998l0.24999,1.37994l-0.62997,0.37999l-0.74997,2.01992l0.14999,0.64997l1.75993,0.36999l0.76997,1.84992l-1.70993,0.99996l-1.45994,-0.13l0.14999,0.78997l-0.57997,1.16995l0.20999,0.98996l-1.69993,-0.2l-1.39995,1.27995l-1.75993,0.34999l-1.76993,-0.47998l-1.99992,-0.63997l-0.95996,-1.70993l-2.4199,0.28999l-1.09996,-1.80993l-0.86996,-0.77997l-1.74993,-0.70997l-1.22995,0.62998l-0.32999,-0.54998l-2.06992,0.39998l-0.71997,1.17996l-0.83996,-0.95997l-1.10996,0.29999l-1.07996,-1.91993l-1.00996,0.78997l-1.21995,-1.83992l-1.11996,0.10999l-0.58997,0.68997l-2.05992,-0.95996l-0.89996,-1.00996l-1.86992,0.55998l-1.19995,0.02l-0.77997,1.33995l-0.37998,1.40994l-2.37991,0.02l-0.76997,0.22999l-0.37998,-1.59993l-1.14995,-1.03996l-0.07,-1.40994l-1.48994,-0.70997l-1.01996,-1.44995l-0.66997,-0.17999l-1.15995,-1.32995v-0.70997l-1.93992,-0.55998l-0.01,-0.89996l-0.99996,-1.24995l-0.98996,-0.72997l0.34999,-1.07995l1.25995,-2.26991l0.74997,-0.24999l1.16995,-0.70997l1.51994,-1.61993l0.97996,-0.03l1.47994,-0.57997l1.37995,0.37998l2.04992,-1.19995l1.75993,1.33995l0.97996,-0.27999l1.65994,0.57998l2.5799,-0.28999l1.34994,0.67997l1.11996,-0.04l3.29987,-0.71997l0.48998,-0.91996l-0.13999,-1.50994l1.00996,-0.67997l1.00996,-1.15995l0.36999,-1.67993l-0.43998,-1.17996l-1.01995,-0.81996l-0.35999,-0.89996l0.59997,-1.74993l-0.05,-0.95996l0.76997,-1.44995l1.93992,-0.01l1.71994,1.45994l1.64993,0.40998l0.65998,-1.15995l1.32994,0.91996l-0.27999,0.51998l1.22995,0.76997l0.52998,1.08996l1.74993,0.53998l0.44998,-0.24999l2.5199,-0.22999l1.41994,0.25999l0.43998,0.90996l0.99996,0.04l0.88996,-0.50998l3.55985,0.10999l1.18996,0.48998l1.44994,-0.12l1.43995,0.33999l-1.00996,-1.46994l-0.04,-1.10996l3.82984,-3.27987l1.14995,-0.18999l0.13,-1.17995l0.91997,-0.76997l0.15999,-0.85997l1.18996,-0.17l-0.25999,-1.07995l0.46998,-2.00992l1.10996,-0.24999l0.40999,0.48998l1.46994,-0.57997l0.74997,-0.68998l1.19995,0.08999l1.22995,-0.87996l0.46998,1.40995l0.91997,-0.04l-0.19,-1.40994l1.27995,-0.64998l0.74997,0.62998l1.35995,0.01l-0.03,0.98996l1.73993,0.50998l1.10996,-0.94996l1.12995,2.32991l1.37994,-0.82997l0.64998,0.73997l0.66998,1.65994l0.99996,1.22995l0.90996,-0.05l0.78997,3.13988l0.62997,1.07995l0.71997,0.04l1.08996,1.88992l0.82997,0.95997l-0.11,0.72997l0.74997,1.42994l-0.1,3.33987l-0.67998,2.19991l-0.31998,1.87993l0.13999,1.12995l0.83997,-0.28999l-0.03,3.47986l-1.13995,-0.13999l-0.83997,2.16991l-1.15996,-0.43998"/><path d="M360.95318,-26.58824l-1.42994,0.82996l-1.03995,1.03996l-0.75997,-0.52998l-1.19995,-0.05l-0.09,-1.05996l0.96996,0.04l1.25995,-1.20995l0.39999,0.17l1.88992,0.76997"/></g></g></svg>