<svg version="1.1" xmlns="http://www.w3.org/2000/svg" xmlns:xlink="http://www.w3.org/1999/xlink" width="208" height="48" viewBox="0,0,208,48"><g transform="translate(-136,-156)"><g data-paper-data="{&quot;isPaintingLayer&quot;:true}" fill-rule="nonzero" stroke="none" stroke-width="1" stroke-linecap="butt" stroke-linejoin="miter" stroke-miterlimit="10" stroke-dasharray="" stroke-dashoffset="0" style="mix-blend-mode: normal"><path d="M136,204v-48h208v48z" fill="none" opacity="0.988"/><g fill="#ffffff"><path d="M166.613,174.033h2.7832c0.40367,-1.0612 0.78453,-2.22657 1.1426,-3.4961l2.0215,0.41992c-0.41667,1.25 -0.8138,2.2754 -1.1914,3.0762h3.789v1.7774h-4.0332v2.3438h3.418v1.6797h-3.418v2.3242h3.418v1.6797h-3.418v2.4805h4.3555v1.8164h-9.0332v1.3672h-1.9434v-11.641c-0.29947,0.47526 -0.62173,0.94726 -0.9668,1.416l-1.1328,-1.7285c1.49087,-1.88153 2.6367,-4.25457 3.4375,-7.1191l2.0215,0.43945c-0.3906,1.2044 -0.80727,2.2591 -1.25,3.1641zM166.447,186.318h2.8222v-2.4805h-2.8222zM166.447,182.1578h2.8222v-2.3242h-2.8222zM166.447,178.1539h2.8222v-2.3438h-2.8222zM159.2009,174.1793v-3.6816h2.1191v3.6816h2.0606v1.9043h-2.0606v3.2227c0.5664,-0.17578 1.16537,-0.3776 1.7969,-0.60547l0.1367,1.8848c-0.45573,0.17578 -1.10027,0.41666 -1.9336,0.72265v6.3672c0,0.6836 -0.1595,1.15887 -0.4785,1.4258c-0.27993,0.23437 -0.75193,0.35156 -1.416,0.35156c-0.74873,0 -1.45837,-0.0651 -2.1289,-0.19531l-0.4004,-2.0996c0.8724,0.1237 1.4681,0.18555 1.7871,0.18555c0.22787,0 0.3711,-0.03906 0.4297,-0.11719c0.05867,-0.07813 0.088,-0.22136 0.088,-0.42969v-4.7754c-0.54687,0.17579 -1.32813,0.40365 -2.3438,0.6836l-0.5761,-2.041c1.3086,-0.29297 2.2819,-0.53385 2.9199,-0.72265v-3.8574h-2.6172v-1.9043z"/><path d="M187.033,186.66c1.10027,0.18229 2.30143,0.27343 3.6035,0.27343h5.0684c-0.32553,0.65105 -0.56643,1.33791 -0.7227,2.0606h-4.3652c-2.6432,0 -4.7298,-0.31576 -6.2598,-0.94727c-1.48433,-0.61197 -2.70827,-1.62107 -3.6718,-3.0273c-0.76827,1.8294 -1.7123,3.34633 -2.8321,4.5508l-1.5136,-1.8164c1.83593,-1.98567 2.98177,-4.55727 3.4375,-7.7148l2.2168,0.3418c-0.20833,1.02867 -0.41017,1.8848 -0.6055,2.5684c0.78773,1.39973 1.94983,2.4349 3.4863,3.1055v-7.5586h-5.4199v-1.2988h-2.1192v-4.5215h7.4805v-2.1777h2.1778v2.1777h7.6464v4.5215h-2.1191v1.2988h-5.4883v2.9883h6.6895v1.8164h-6.6895zM179.4744,174.512v2.1289h13.008v-2.1289z"/><path d="M260.7694,165.83151v1.668h1.8613v-1.668h1.3867v1.668h0.7949v1.2461h-0.7949v4.8145h0.8965v1.2949h-1.6816c0.4174,0.4058 0.7827,0.85611 1.1054,1.3476c0.2367,-0.45322 0.5329,-0.86098 0.6426,-1.4121c0.1293,-0.6495 0.1953,-1.44529 0.1953,-2.3887v-6.123h5.076v10.483c0,0.45302 -0.1211,0.79131 -0.377,0.99219c-0.2124,0.16678 -0.5416,0.24218 -0.9863,0.24218c-0.6073,0 -1.1112,-0.0258 -1.5137,-0.0762l-0.055,-0.008l-0.2911,-1.4551l0.1036,0.0137c0.6082,0.07042 1.0403,0.10352 1.2871,0.10352c0.1853,0 0.2835,-0.0391 0.3125,-0.0762c0.03,-0.03986 0.057,-0.1305 0.057,-0.27149v-2.5664h-2.1836c-0.0562,0.7996 -0.1451,1.47412 -0.2773,1.998c-0.2228,0.8786 -0.6407,1.69272 -1.252,2.4395l-0.051,0.0605l-1.1406,-0.99609l0.043,-0.0547c0.1126,-0.13879 0.1295,-0.35108 0.2265,-0.50195l-0.7871,0.74609l-0.076,0.0723l-0.045,-0.0957c-0.2801,-0.6028 -0.6757,-1.18423 -1.1875,-1.7441l-0.057,-0.0644l0.9883,-0.66406h-4.7637v-1.2949h1.1543v-4.8164h-0.9336v-1.2461h0.9336v-1.666zM226.246,165.95515v3.002h5.2286v1.5h-4.9844c0.2954,0.9353 0.8137,1.9268 1.6015,2.9844c0.9883,1.3288 2.2006,2.37877 3.6426,3.1543l0.074,0.041l-0.9961,1.4062l-0.061,-0.0352c-1.5454,-0.894 -2.8388,-2.0784 -3.8731,-3.5527c-0.5268,-0.7578 -0.9379,-1.53147 -1.2675,-2.3164c-0.3377,1.0613 -0.8203,2.04321 -1.4961,2.918c-1.0398,1.3549 -2.3263,2.35547 -3.8574,3l-0.055,0.0234l-0.9903,-1.2637l0.09,-0.0371c1.5789,-0.647 2.8526,-1.6413 3.8222,-2.9883c0.7955,-1.1105 1.2495,-2.2212 1.4121,-3.334h-5.0332v-1.5h5.1231v-3.002zM217.2433,166.09763h0.076v4.0547h-9.6543v-4.0547zM243.3893,166.23607v1.1953h-7.3321v0.5918h6.7481v1.1562h-6.7481v0.60547h6.7481v1.1328h-6.7481v0.67969h8.6719v1.209h-1.6055l0.9219,0.7832l-0.078,0.0566c-0.7689,0.5441 -1.6348,1.05638 -2.5723,1.5469c0.8316,0.55505 1.9207,1.0236 3.3282,1.3828l0.1074,0.0293l-0.9785,1.3125l-0.053,-0.0137c-1.7819,-0.4929 -3.1851,-1.3195 -4.2871,-2.4062l0.098,1.3184l-0.059,0.0156c-2.0001,0.56138 -3.9846,1.00233 -5.9512,1.3184l-0.062,0.01l-0.502,-1.4356l0.092,-0.0117c0.6373,-0.07913 1.0656,-0.13653 1.336,-0.17773v-3.7285h-2.2324v-1.207h2.2324v-5.3633zM256.8337,166.27749h0.076v10.291c0,0.56495 -0.1486,0.96148 -0.4668,1.1543c-0.2332,0.14006 -0.6231,0.19726 -1.1875,0.19726c-0.7045,0 -1.4071,-0.0295 -2.1074,-0.0879l-0.059,-0.006l-0.3164,-1.4805l0.1015,0.0117c0.7467,0.0828 1.4387,0.125 2.0743,0.125c0.1136,0 0.2026,-0.0064 0.2656,-0.0176c0.062,-0.0108 0.096,-0.0282 0.096,-0.0312v-0.002c0.008,-0.01109 0.039,-0.11336 0.039,-0.28125v-8.5898h-7.5586v3.4316c0,2.0439 -0.0718,3.5163 -0.2168,4.4219v0.002c-0.1539,0.9797 -0.4774,1.87979 -0.9688,2.6973l-0.045,0.0762l-1.2852,-1.0547l0.031,-0.0547c0.4384,-0.7744 0.7129,-1.6996 0.8222,-2.7754c0.0802,-0.7345 0.1192,-1.7699 0.1192,-3.1055v-4.9219zM209.233,167.63082h6.5176v-0.49414h-6.5176zM266.639,169.32614h2.1484v-1.6836h-2.1484zM252.2933,167.77926v0.91015h2.4941v1.1445h-2.4941v0.81641h2.7695v1.1602h-6.9883v-1.1602h2.7285v-0.81641h-2.4433v-1.1445h2.4433v-0.91015zM209.233,169.17379h6.5176v-0.57813h-6.5176zM260.768,169.62887h1.8613v-0.88477h-1.8613zM266.6391,172.3652v0.0117h2.1484v-1.7715h-2.1484zM218.7359,170.68948v1.1816h-6.3301v5.002c0.7546,-0.21495 1.4508,-0.55666 2.086,-1.043c-0.6054,-0.7063 -1.0766,-1.46214 -1.3985,-2.2715h-0.5761v-1.1426h5.0039l0.6836,0.58789l-0.021,0.0469c-0.4507,1.0712 -1.0218,1.984 -1.6953,2.7617c0.6056,0.37939 1.3462,0.70768 2.25,0.97656l0.098,0.0293l-0.8691,1.2734l-0.059,-0.0215c-0.952,-0.35238 -1.7477,-0.7873 -2.4082,-1.2949c-0.722,0.57614 -1.5608,1.04193 -2.5234,1.3828l-0.055,0.0215l-0.5176,-0.76367v0.68359h-1.4649v-1.375c-1.192,0.23151 -2.6402,0.43982 -4.3789,0.62305l-0.062,0.006l-0.3945,-1.2969l0.096,-0.004c0.5305,-0.0276 0.9763,-0.0565 1.3574,-0.084v-4.0977h-1.3281v-1.1816zM260.7681,171.58598h1.8613v-0.89258h-1.8613zM209.0101,172.47657h1.9296v-0.60547h-1.9296zM254.3323,172.55083h0.074v3.4316h-4.2695v0.66016h-1.4277v-4.0918zM260.7681,173.56057h1.8613v-0.92188h-1.8613zM236.0573,176.25783c1.0608,-0.19287 2.1775,-0.4389 3.3633,-0.75l0.076,-0.0195c-0.0881,-0.08726 -0.2129,-0.14337 -0.2969,-0.23437c-0.6618,-0.7153 -1.1455,-1.53472 -1.4707,-2.4473h-1.6719zM240.3345,174.36526c0.8716,-0.5364 1.5902,-1.05389 2.2031,-1.5586h-3.3203c0.2684,0.57007 0.6335,1.09254 1.1172,1.5586zM209.0103,174.07229h1.9296v-0.61719h-1.9296zM215.4204,174.93361c0.3303,-0.38661 0.6308,-0.84674 0.9043,-1.375h-1.873c0.2405,0.48314 0.5617,0.94129 0.9687,1.375zM250.1377,174.81251h2.8242v-1.1289h-2.8242zM261.2589,175.51571l-0.033,0.0645c-0.562,1.0987 -1.2061,1.94704 -1.9316,2.541l-0.051,0.041l-1.0625,-0.9668l-0.064,-0.0547l0.066,-0.0547c0.7292,-0.6086 1.3121,-1.3297 1.752,-2.1602l0.033,-0.0645zM209.0127,175.83003c0.3054,-0.0319 0.5641,-0.0596 0.7266,-0.0781c0.4604,-0.04716 0.8547,-0.09136 1.2011,-0.13476v-0.58203h-1.9296zM264.8248,175.62305c-0.124,0.24295 -0.2633,0.47349 -0.3926,0.71289c-0.0778,0.14415 -0.1333,0.30584 -0.1933,0.46289c0.2407,-0.3578 0.4366,-0.74913 0.5859,-1.1758zM261.9898,182.37111l-0.041,0.0664c-0.466,0.735 -1.0258,1.48048 -1.6661,2.2344c0.2808,0.34367 0.4946,0.61367 0.6543,0.82617c0.6233,-0.7482 1.2099,-1.5197 1.7539,-2.3184l0.043,-0.0645l0.9336,0.66016v-1.3203h5.1875l0.7051,0.56836l-0.01,0.0449c-0.2669,1.1931 -0.5371,2.20587 -0.8086,3.0684h1.5235l-0.01,0.082c-0.2472,1.8294 -0.7324,3.347 -1.4375,4.5742c0.5988,0.6673 1.3027,1.24693 2.123,1.7266l0.066,0.0371l-0.9141,1.3887l-0.064,-0.043c-0.7676,-0.5129 -1.4545,-1.13715 -2.0722,-1.8555c-0.6047,0.7367 -1.3743,1.42586 -2.336,2.0605l-0.059,0.0371l-1.0293,-1.1914l0.078,-0.043c0.6988,-0.39245 1.2521,-0.77992 1.6562,-1.1602c0.2453,-0.22883 0.5103,-0.52895 0.7891,-0.88672c-0.5301,-0.8159 -0.9282,-1.71745 -1.2363,-2.6777c-0.1566,1.1497 -0.3485,2.13728 -0.5977,2.8633c-0.4004,1.1701 -0.9443,2.15212 -1.6328,2.9453l-0.059,0.0684l-0.9414,-1.1641l0.041,-0.0469c0.3482,-0.3963 0.6248,-0.91339 0.8848,-1.4609l-0.9356,0.41211l-0.098,0.043l-0.01,-0.10351c-0.0884,-0.785 -0.2406,-1.54101 -0.4551,-2.2676l-0.019,-0.0684l1.0976,-0.3418v-0.004c-0.0666,-0.26877 -0.1388,-0.53558 -0.2168,-0.80078c-0.1981,0.0328 -0.4725,0.075 -0.873,0.1289l-0.1,0.0156v5.6406h-1.4277v-5.4766l-0.068,0.008c-0.6231,0.06229 -1.2445,0.11299 -1.8633,0.15039l-0.064,0.004l-0.295,-1.3066l0.5176,-0.0156c0.1842,-0.0078 0.3789,-0.0154 0.582,-0.0234c0.2389,-0.25042 0.5002,-0.53727 0.7793,-0.85547c-0.5388,-0.7384 -1.1313,-1.4236 -1.7871,-2.0469l-0.051,-0.0488l0.8789,-1.0039l0.059,0.0547c0.0893,0.08346 0.1785,0.17021 0.2675,0.25781l0.016,0.0137c0.4397,-0.6135 0.849,-1.28047 1.2226,-2.0137l0.035,-0.0684zM238.8921,182.75045l-0.1133,0.0254c-0.673,0.1661 -1.4171,0.29739 -2.2168,0.39649v0.55468h2.8438v0.69141h1.2949l0.064,-2.6426h1.4257l-0.057,2.6426h2.4023v0.0742c-0.0211,2.3221 -0.077,4.1879 -0.166,5.5957c-0.0889,1.4078 -0.2076,2.35388 -0.3691,2.8594c-0.1405,0.43943 -0.4063,0.73543 -0.7852,0.85937c-0.1967,0.0674 -0.4718,0.0957 -0.8359,0.0957c-0.4729,0 -0.923,-0.0273 -1.3457,-0.0859l-0.053,-0.008l-0.2774,-1.4746l0.1094,0.0215c0.4831,0.09066 0.9074,0.13476 1.2734,0.13476c0.2866,0 0.4418,-0.07295 0.5098,-0.20312c0.0674,-0.13216 0.1506,-0.5172 0.2266,-1.1211c0.1517,-1.1995 0.2509,-2.9124 0.2929,-5.1367l0.01,-0.23633h-1.082c-0.0756,1.8098 -0.2926,3.3308 -0.6661,4.5332c-0.4643,1.488 -1.1906,2.72585 -2.1816,3.7109l-0.049,0.0449l-1.1641,-0.88281l0.064,-0.0605c0.1441,-0.13281 0.2434,-0.2399 0.3476,-0.35156c-2.0348,0.35766 -3.999,0.63426 -5.8691,0.81055l-0.064,0.006l-0.3222,-1.3262l0.09,-0.006c1.0286,-0.0608 2.0042,-0.1361 2.9316,-0.2246v-0.72266h-2.7285v-1.1328h2.7285v-0.56055h-2.4316v-4.2402h2.4316v-0.54492h-2.9257v-1.1191h2.9257v-0.40039c-0.6224,0.05945 -1.3169,0.11225 -2.1035,0.15625l-0.053,0.002l-0.5254,-1.1055l0.1113,-0.006c2.0277,-0.0829 3.8397,-0.29885 5.4297,-0.64649l0.045,-0.01zM209.4058,181.77587v3.0098h1.2305v1.3984l0.6289,-0.21289v-3.3789h1.4414v2.8926l1.2129,-0.4043v-3.3047h1.4278v2.8203l2.0605,-0.69531l0.7324,0.4375v4.707c0,0.33565 -0.0811,0.59744 -0.2558,0.77344v0.002c-0.1987,0.19501 -0.5177,0.28321 -0.9473,0.28321c-0.3472,0 -0.7151,-0.0293 -1.1035,-0.0879l-0.055,-0.008l-0.2383,-1.3555l0.1133,0.0293c0.2437,0.0607 0.4922,0.0898 0.7441,0.0898c0.088,0 0.1562,-0.0105 0.2012,-0.0254c0.046,-0.0148 0.064,-0.0298 0.074,-0.0469v-0.006c0.028,-0.04007 0.051,-0.13324 0.051,-0.27148v-2.8398l-1.3789,0.46875v5.0625h-1.4277v-4.5801l-1.2129,0.41602v4.8789c0,0.14926 0.033,0.26306 0.092,0.34376c0.0584,0.08076 0.1433,0.13406 0.2695,0.16406c0.2672,0.06561 0.9304,0.10351 1.957,0.10351c1.0004,0 1.6627,-0.05348 1.9629,-0.14648c0.1502,-0.04858 0.2517,-0.17986 0.3047,-0.42774c0.0713,-0.36788 0.1133,-0.80692 0.1133,-1.3144v-0.0957l1.4805,0.41015v0.0586c-0.0679,1.23 -0.2286,2.01843 -0.5293,2.3906c-0.1961,0.24158 -0.4929,0.38268 -0.875,0.42578c-0.5863,0.0629 -1.5719,0.0937 -2.961,0.0937c-1.0763,0 -1.7789,-0.0274 -2.1269,-0.0879c-0.5197,-0.08573 -0.8719,-0.32159 -1.0176,-0.70117v-0.002c-0.0725,-0.19914 -0.1055,-0.45476 -0.1055,-0.77149v-4.834l-1.1894,0.40234l-0.336,-1.3535l0.8496,-0.28711h-1.1836v3.7793c0.4094,-0.13875 0.813,-0.28228 1.2149,-0.43164l0.094,-0.0332l0.1368,1.3516l-0.051,0.0234c-1.3743,0.61606 -2.784,1.13065 -4.2305,1.5469l-0.072,0.0195l-0.4902,-1.4707l0.078,-0.0195c0.6492,-0.16547 1.2185,-0.32004 1.7071,-0.46875c0.038,-0.0132 0.066,-0.0203 0.096,-0.0293v-4.2676h-1.6114v-1.416h1.6114v-3.0078zM254.7305,181.86351v1.3906c0.7264,-0.26614 1.3742,-0.55637 1.916,-0.88086l0.059,-0.0352l0.9043,1.1465l-0.084,0.041c-0.806,0.38108 -1.7421,0.71031 -2.7949,0.99414v1.0566c0,0.08546 0.015,0.14855 0.037,0.18945c0.022,0.0409 0.052,0.0607 0.096,0.0742c0.1009,0.0307 0.3589,0.0527 0.75,0.0527c0.3141,0 0.5236,-0.0256 0.5996,-0.0566c0.1007,-0.03703 0.1787,-0.14861 0.2187,-0.3711c0.029,-0.18064 0.051,-0.48225 0.068,-0.90039v-0.0976l1.3047,0.38672v0.0566c-0.0068,0.93642 -0.1233,1.5462 -0.3946,1.8476v0.002c-0.1675,0.18264 -0.4212,0.29088 -0.746,0.33398c-0.3565,0.0463 -0.8108,0.0703 -1.3672,0.0703c-0.8212,0 -1.3565,-0.0797 -1.6309,-0.27734c-0.24,-0.17083 -0.3555,-0.46752 -0.3555,-0.86328v-4.1602zM251.049,181.94347v1.3281h2.0821v1.2676h-2.0821v1.2383c0.5479,-0.09014 1.1993,-0.20838 1.9805,-0.36328l0.084,-0.0176l0.074,1.1816l-0.061,0.0137c-1.1084,0.30421 -2.4287,0.57376 -3.9628,0.80664l-0.064,0.0117l-0.4219,-1.2871l0.09,-0.0117c0.1765,-0.0206 0.4021,-0.0508 0.6758,-0.0879l0.1777,-0.0254v-4.0547zM230.2428,182.03133v1.0391h-4.0488v0.38867h5.2558v2.3828h-1.5312v-1.4316h-3.7246v2.4219h-1.5059v-2.4219h-3.6543v1.4316h-1.5176v-2.3828h5.1719v-0.38867h-3.9668v-1.0391zM248.6182,182.10732l0.7383,0.56641l-0.01,0.0449c-0.2816,1.3489 -0.6119,2.49954 -0.9863,3.4629c0.6522,0.9372 0.9863,1.979 0.9863,3.125c0,0.52852 -0.0552,0.9352 -0.1758,1.2246c-0.0951,0.22238 -0.255,0.39285 -0.4746,0.50391c-0.2195,0.11106 -0.4963,0.16406 -0.8262,0.16406c-0.2499,0 -0.4822,-0.0198 -0.6953,-0.0625l-0.047,-0.01l-0.2089,-0.85937v3.7773h-1.4004v-11.939zM246.9174,189.76372c0.257,0.0514 0.4783,0.0781 0.6582,0.0781c0.0997,0 0.1774,-0.0111 0.2304,-0.0312c0.054,-0.02 0.082,-0.0467 0.098,-0.0781c0.026,-0.05154 0.049,-0.1807 0.049,-0.37109c0,-1.1544 -0.2968,-2.15114 -0.8887,-3.002l-0.021,-0.0332l0.014,-0.0352c0.2816,-0.7646 0.5404,-1.7406 0.7793,-2.8906h-0.9179zM263.8579,183.91415l-0.043,0.0606c-0.847,1.1468 -1.8133,2.2546 -2.871,3.332c0.5956,-0.03919 1.1296,-0.07899 1.5839,-0.12109c-0.1068,-0.29414 -0.2254,-0.59214 -0.3672,-0.90039l-0.033,-0.0723l1.168,-0.45117l0.029,0.0606c0.3837,0.778 0.7126,1.6956 0.9844,2.75l0.016,0.0605l-1.1211,0.47852c0.2102,0.6809 0.3669,1.34108 0.4883,1.9863c0.2894,-0.6904 0.5159,-1.48946 0.6777,-2.3965c0.1432,-0.8227 0.2466,-1.7894 0.3106,-2.9043c0.045,-0.868 0.066,-1.50943 0.066,-1.9668h-1.0078zM266.1097,183.82989c0,0.15785 0,0.3199 -0.01,0.48633v0.01c0.161,1.1343 0.4145,2.14956 0.7422,3.0723l0.012,-0.0352c0.3867,-1.0533 0.7266,-2.2383 1.0254,-3.5332h-1.7695zM224.2934,184.72274v0.85351h-2.8536v-0.85355zM229.5258,184.72274v0.85351h-2.9395v-0.85355zM236.5549,185.39081h2.4687v4.2402h-2.4687v0.56055h2.6289v1.1328h-2.6289v0.58594l0.4512,-0.043c0.6961,-0.06913 1.4488,-0.17153 2.2558,-0.30469c0.7782,-1.4075 1.2375,-3.2984 1.3633,-5.6797v-0.002l0.01,-0.0879h-1.4102v-0.94727h-2.668zM224.2936,185.86727v0.86523h-2.8536v-0.86526zM229.526,185.86727v0.86523h-2.9395v-0.86526zM233.9693,187.02153h1.2247v-0.64257h-1.2247zM236.5201,187.02153h1.2637v-0.64257h-1.2637zM253.8515,187.01373l-0.025,0.084c-0.0771,0.24584 -0.2102,0.5529 -0.3711,0.88867h3.498v6.0586h-1.5293v-0.66406h-4.2226v0.66406h-1.5157v-6.0586h2.3243c0.1488,-0.35789 0.262,-0.71714 0.33,-1.0742l0.012,-0.0684zM231.1177,187.05882v0.97657h-9.5898v1.7637h10.135v1.0273h-1.2637l0.6816,0.44141l-0.08,0.0645c-0.4399,0.35911 -0.9716,0.68974 -1.5546,1.0059c0.6181,0.2165 1.3466,0.40188 2.248,0.5332l0.1191,0.0176l-0.8378,1.1953l-0.049,-0.008c-1.3657,-0.22964 -2.4901,-0.62398 -3.373,-1.1875v-0.002c-0.251,-0.16101 -0.4809,-0.33699 -0.6992,-0.52149l0.086,0.87891l-0.066,0.0137c-1.4926,0.34952 -3.1963,0.65439 -5.1152,0.91211l-0.062,0.008l-0.4258,-1.2422l0.094,-0.01c0.6623,-0.07034 1.1163,-0.11944 1.3614,-0.14844l0.014,-0.002v-1.9492h-1.2519c-0.06,0.6941 -0.1507,1.27062 -0.2832,1.6973c-0.1636,0.53206 -0.4245,1.02902 -0.7852,1.4883l-0.049,0.0586l-1.2461,-1.0098l0.045,-0.0566c0.4065,-0.5171 0.6578,-1.1199 0.7578,-1.8145c0.055,-0.377 0.084,-0.84946 0.084,-1.416v-2.7168zM267.8594,189.51369c0.2998,-0.6315 0.5448,-1.31236 0.7187,-2.0527h-1.707c0.2733,0.7552 0.6028,1.44045 0.9883,2.0527zM233.9691,188.64067h1.2247v-0.70507h-1.2247zM236.5199,188.64067h1.2637v-0.70507h-1.2637zM230.1855,188.41025v0.96484h-8.0546v-0.96488zM251.2009,190.06646h4.2226v-0.91016h-4.2226zM260.1808,189.33421v0.0684c-0.0634,1.4289 -0.2559,2.6527 -0.5761,3.6699l-0.023,0.0801l-1.2793,-0.57031l-0.059,-0.0254l0.018,-0.0625c0.3032,-1.0454 0.4943,-2.1277 0.5703,-3.248v-0.0801zM224.2437,192.58426c0.8694,-0.12074 1.6787,-0.24963 2.4297,-0.38476c-0.4468,-0.40864 -0.8292,-0.86365 -1.1328,-1.373h-1.2969zM228.2691,191.7933c0.5119,-0.34491 0.9065,-0.6634 1.2344,-0.9668h-2.3555c0.3231,0.37415 0.6857,0.70516 1.1211,0.9668zM251.201,192.18392h4.2226v-0.99804h-4.2226z"/></g></g></g></svg>