<svg xmlns="http://www.w3.org/2000/svg" viewBox="0 0 224 32" version="1.1" height="32" width="224"><rect style="paint-order:markers stroke fill" stroke-width="0" stop-color="#000000" fill-opacity="0" height="32" width="224"></rect><path style="-inkscape-stroke:none" fill="#fff" color="#000000" d="m84.07812 8.332031v1.070313h-3.476563v1.386718h3.476563v0.691407h-4.341797l-0.021484-0.033203c-0.784392-1.202732-1.582565-2.199274-2.396485-2.992188l-0.060547-0.0605469-1.457031 1.0625 0.078125 0.0839844c0.847966 0.8789884 1.617502 1.911092 2.306641 3.097656l0.058594 0.099609 0.089843-0.072265 1.392578-1.113282v1.376954h10.85547v-1.449219h-4.671875v-0.691407h3.820313v-1.386718h-3.820313v-1.070313h-1.832031zm9.53125 0v3.773438h-1.984375v1.785156h1.984375v5.341797c-0.03652 0.01066-0.06865 0.019216-0.113281 0.035156-0.601424 0.18657-1.302204 0.384171-2.101563 0.591797l-0.101562 0.025391 0.609375 1.857422 0.09375-0.027344c1.780614-0.522175 3.515217-1.168602 5.207031-1.941406l0.066406-0.029297-0.167969-1.708985-0.123046 0.044922c-0.492284 0.186399-0.989143 0.365839-1.490235 0.539063v-4.728516h1.419922l-1.021484 0.351563 0.416015 1.710937 1.462891-0.505859v6.054687c0 0.397736 0.04165 0.719807 0.130859 0.970703v0.001953c0.17997 0.478044 0.615771 0.776723 1.25586 0.884766 0.429588 0.07613 1.294396 0.109375 2.619136 0.109375 1.70986 0 2.92241-0.03812 3.64454-0.117188 0.47155-0.054199 0.83947-0.232503 1.08203-0.537109 0.37232-0.469699 0.57059-1.458687 0.65429-3.001953l0.00586-0.080078-1.83593-0.517578-0.00196 0.130859c-5e-3 0.636215-0.0516 1.185549-0.13867 1.646485-0.0636 0.310817-0.18675 0.470865-0.36914 0.53125-0.36737 0.116011-1.18502 0.183593-2.41602 0.183593-1.26328 0-2.07732-0.04716-2.404292-0.128906l-0.001954-0.001953c-0.154025-0.03734-0.257264-0.103277-0.328125-0.203125-0.07086-0.09985-0.111328-0.239548-0.111328-0.425781v-6.115235l1.480469-0.515625v5.738282h1.76953v-6.347657l1.6836-0.585937v3.552734c0 0.172771-0.02835 0.287681-0.06055 0.335938l-0.00391 0.003906-0.00195 0.001953c-0.0109 0.01966-0.03299 0.042257-0.08789 0.060547-0.0549 0.01828-0.13833 0.029297-0.2461 0.029297-0.30951 0-0.6128-0.03719-0.9121-0.113281l-0.1504-0.039063 0.29688 1.714844 0.07031 0.011719c0.47837 0.073589 0.93174 0.109375 1.35938 0.109374 0.52976 0 0.92534-0.110894 1.17187-0.357421h0.00196c0.21655-0.222419 0.3164-0.554501 0.3164-0.976563v-5.908203l-0.9082-0.552734-2.5293 0.86914v-3.53125h-1.76953v4.146485l-1.480469 0.501953v-3.625h-1.785156v4.240234l-0.761719 0.261719v-1.751953h-1.515625v-3.773438h-1.878906zm22.94532 0v0.9921876h-3.74219v1.464843h3.74219v0.929688h1.8164v-0.929688h3.90625v-1.464843h-3.90625v-0.9921876h-1.8164zm13.66406 0v4.06836c0 0.997952-0.10903 1.980486-0.32617 2.947265-0.29477 1.323868-0.74692 2.445058-1.35352 3.365235-0.96968 1.467348-2.53528 2.564917-4.71289 3.289062l-0.13281 0.042969 1.2793 1.654297 0.06836-0.025391c1.94938-0.728401 3.44059-1.707924 4.46484-2.943359 0.83616-1.012451 1.45031-2.347711 1.875-3.958985 1.0043 2.900602 3.0553 5.212398 6.21875 6.88086l0.07617 0.041015 1.30469-1.777343-0.11328-0.050782c-1.85814-0.84884-3.31011-1.943418-4.36133-3.283203-1.5458-1.964556-2.31445-4.066483-2.31445-6.314453v-3.935547h-0.09961-1.87305zm11.23437 0v15.40234h1.83204v-11.76562c0.18229 0.451791 0.36365 0.905481 0.57031 1.564453l0.05078 0.15625 0.40625-0.404297v1.347656h10.73047v-1.449218h-4.5625v-0.574219h3.49219v-1.316406h-3.49219v-0.550781h4.04687v-1.371094h-4.04687v-1.039063h-1.81641v1.039063h-3.85156v1.371094h3.85156v0.550781h-3.39062v1.316406h3.39062v0.574219h-4.24804l0.71484-0.710938-0.02344-0.058594c-0.26793-0.735484-0.6284-1.498346-1.08398-2.289062l-0.06055-0.103516-0.67773 0.564454v-2.253907h-1.83204zm17.25 0v1.632813h-2.54687v1.574218h2.54687v1.144532h-3.20312v1.589844h1.17383c0.21318 0.558995 0.3928 1.150489 0.54687 1.769531h-1.40039v1.558593h2.88281v1.246094h-2.75781v1.589844h2.75781v3.296875h1.83204v-3.296875h2.57031v-1.589844h-2.57031v-1.246094h2.67187v-1.558593h-1.4668c0.2454-0.617372 0.44966-1.209284 0.60352-1.769531h0.95703v-1.589844h-2.76562v-1.144532h2.42968v-1.574218h-2.42968v-1.632813h-1.83204zm4.82813 0.5625v14.83984h1.78516v-1.009766l0.80664 1.121094 0.08203-0.074219c0.67607-0.605438 1.27894-1.253839 1.82422-1.9375 0.63427 0.711643 1.34048 1.336973 2.14062 1.853516l0.08789 0.056641 0.97852-1.632813-0.08203-0.052734c-0.83208-0.529502-1.51739-1.115122-2.07618-1.75l0.04688-0.083985v-0.001953c0.75069-1.312859 1.26792-2.803053 1.55078-4.46875l0.00977-0.05664-1.00196-0.857422h-4.36718v-4.339844h3.22265v1.783203c0 0.08766-0.02034 0.13434-0.05664 0.166016-0.0363 0.03168-0.10308 0.054687-0.21094 0.054687-0.22104 0-0.7731-0.04698-1.63671-0.140625l-0.13477-0.013672 0.30469 1.613282 0.07617 0.005859c0.61737 0.05232 1.23415 0.078125 1.85156 0.078125 0.64117 0 1.08336-0.106511 1.31641-0.369141 0.19324-0.217395 0.27539-0.56196 0.27539-1.027343v-3.75586h-0.09961-6.69336zm-55.66406 0.6875v12.24609h1.63672v-1.265625h2.78125v-10.98047h-0.09961-4.31836zm28.52929 1.03711-0.0371 0.095703c-0.75275 1.874114-1.62569 3.511323-2.61524 4.910156l-0.06641 0.09375 0.10352 0.052734 1.64648 0.835938 0.05079-0.070313c1.03534-1.453669 1.98146-3.107095 2.83789-4.960937l0.04297-0.09375-1.9629-0.863281zm-22.17773 0.291015v0.945313h-1.74219v1.496093h1.74219v0.867188h1.63672v-0.867188h3.24609v0.867188h1.65235v-0.867188h2.21093v-1.496093h-2.21093v-0.945313h-1.65235v0.945313h-3.24609v-0.945313h-1.63672zm12.02148 0.271485-0.01953 0.097656c-0.38358 1.985292-0.99818 3.614289-1.83789 4.886719l-0.05469 0.085937 0.08594 0.054688 1.71875 1.076171 0.05274-0.085937c0.9243-1.533507 1.59531-3.414832 2.01367-5.642578l0.01758-0.099609-1.97657-0.373047zm-16.73632 0.115234h1.16015v7.511719h-1.16015v-7.511719zm30.29101 0.337891-0.04492 0.74414c-0.10397 1.715493-0.27314 3.111859-0.50586 4.1875l-0.01562 0.074219 0.0664 0.035156 1.44531 0.773438 0.02735-0.128907c0.30416-1.400056 0.48625-3.214172 0.54883-5.447265l0.0039-0.09375-1.52539-0.144531zm-58.87304 1.916015v3.457031h2.824219c-1.187556 0.819497-2.481784 1.536131-3.960938 2.080079l-0.136718 0.050781 1.15039 1.328125 0.066406-0.029297c1.192464-0.498939 2.251887-1.135606 3.212891-1.873047v3.083985h1.832031v-2.283204c1.127857 0.561225 2.226207 1.155432 3.28711 1.792969l0.072265 0.044922 1.158203-1.378906-0.109375-0.058594c-0.621891-0.334081-1.197608-0.622625-1.734375-0.871094 0.501222-0.386188 1.007542-0.807107 1.521485-1.287109l0.09375-0.087891-0.976563-0.626953v-3.341797h-8.300781zm77.4746 0.722657h2.2168c-0.13347 0.580951-0.31482 1.170478-0.55469 1.769531h-1.14843c-0.18124-0.722096-0.35226-1.30338-0.51368-1.769531zm-45.44336 0.027343v6.902344h1.56446c-0.90704 0.462781-1.88969 0.871083-3.10156 1.115234l-0.15625 0.03125 1.14648 1.494141 0.06641-0.019531c1.42558-0.429776 2.77297-1.053675 4.04101-1.871094l0.11328-0.072266-0.80859-0.677734h3.31641l-0.83594 0.744141 0.14453 0.060546c1.00564 0.43025 2.05667 0.972665 3.15234 1.626954l0.38868 0.236328 1.25976-1.322266-0.10937-0.0625c-0.8873-0.505073-1.84439-0.912734-2.82618-1.283203h1.69532v-6.902344h-9.05079zm-30.23046 0.519531h4.683594v0.933594h-4.683594v-0.933594zm-7.160156 0.042969v1.738281h2v3.896485c-0.718285 0.598828-1.406353 1.109485-2.0625 1.521484l-0.080078 0.050781 0.978516 1.763672 0.091796-0.074218c0.733981-0.586166 1.457712-1.3378 2.173828-2.226563 0.477878 0.502596 0.974714 0.908087 1.5 1.175781 0.939671 0.475174 2.291357 0.705079 4.060547 0.705078h6.462891l0.017578-0.076171c0.139338-0.603799 0.307708-1.091534 0.5-1.460938l0.076172-0.146484h-7.009766c-0.687192 0-1.365559-0.05627-2.037109-0.169922-0.661505-0.118864-1.163704-0.264589-1.503906-0.429688-0.500132-0.245063-0.943307-0.575225-1.335938-0.982421v-5.285157h-3.832031zm69.90625 0.398438v8.472656h1.83203v-2.914063h4.59766v0.908204c0 0.123534-0.01475 0.21027-0.03125 0.25v0.001953c-0.0102 0.0254-0.02602 0.04404-0.07031 0.0625-0.0443 0.01845-0.11706 0.03125-0.2129 0.03125-0.3994 0-0.94631-0.04194-1.63671-0.125l-0.13086-0.015625 0.25976 1.611328 0.07422 0.009766c0.6811 0.089069 1.34305 0.132812 1.98828 0.132812 0.55481 0 0.96565-0.106329 1.21875-0.347656 0.25555-0.243931 0.37305-0.624033 0.37305-1.119141v-6.958984h-0.09961-8.16211zm-30.71484 0.292969h5.43359v0.582031h-5.43359v-0.582031zm50.5625 0.890624h0.00781c0.32169 1.428606 0.86304 2.742911 1.62695 3.939454-0.5271 0.695286-1.0751 1.217604-1.63476 1.628906v-5.56836zm1.6582 0h1.73047c-0.13251 0.763259-0.40347 1.531164-0.77735 2.300782-0.39875-0.69037-0.72437-1.44881-0.95312-2.300782zm-19.67383 0.164063h4.59766v0.714844h-4.59766v-0.714844zm-61.07812 0.398437h2.033203c-0.315963 0.361497-0.637958 0.710111-0.980468 1.021485-0.09561 0.08691-0.162627 0.145757-0.220703 0.195312-0.466412-0.184035-0.846195-0.327641-1.144532-0.43164v-0.525391l0.058594-0.046875c0.108205-0.08939 0.187809-0.157174 0.253906-0.212891zm28.53125 0.351563h5.43359v0.652344h-5.43359v-0.652344zm32.54687 1.3125h4.59766v0.761719h-4.59766v-0.761719zm-32.54687 0.5625h5.43359v0.683594h-5.43359v-0.683594z"></path><g stroke-width="1.06667" transform="matrix(.9375118 0 0 .9374872 27.14902 -.07342646)"><g stroke-linejoin="round" stroke-linecap="round" fill="#fff"><path style="-inkscape-stroke:none" color="#000000" d="m33.38672 17.05859a1.066772 1.066772 0 0 0-0.867188 0.447265l-5 7a1.066772 1.066772 0 0 0 0.867188 1.685547h16a1.066772 1.066772 0 0 0 0.867187-1.685547l-5-7a1.066772 1.066772 0 0 0-0.867187-0.447265h-1.5a1.066772 1.066772 0 0 0-0.591797 0.179687l-0.908203 0.605469-0.908203-0.605469a1.066772 1.066772 0 0 0-0.591797-0.179687zm0.546875 2.132812h0.630859l1.230469 0.820313a1.066772 1.066772 0 0 0 1.183594 0l1.230468-0.820313h0.628907l3.476562 4.867188h-11.85742z"></path><path style="-inkscape-stroke:none" color="#000000" d="m36.38672 8.101562c-1.02779 0-2.537567-0.047575-3.925782 0.2109375-0.694107 0.1292561-1.373169 0.3282641-1.974609 0.7460938-0.60144 0.4178296-1.101583 1.146634-1.164062 1.986328-0.05398 0.725525 0.424035 1.468122 0.925781 1.78125 0.501745 0.313127 0.993637 0.41678 1.466797 0.517578 0.946319 0.201597 1.822392 0.447541 1.943359 0.560547 0.183056 0.171008 0.584097 0.933894 0.892578 1.669922 0.154241 0.368014 0.298153 0.72607 0.488281 1.066406 0.09506 0.170168 0.196694 0.339841 0.376954 0.523437 0.180259 0.183597 0.50633 0.427735 0.970703 0.427735s0.790443-0.244138 0.970703-0.427735c0.18026-0.183596 0.281889-0.353269 0.376953-0.523437 0.190129-0.340336 0.334041-0.698392 0.488281-1.066406 0.308481-0.736028 0.709523-1.498914 0.892578-1.669922 0.120967-0.113006 0.99704-0.35895 1.94336-0.560547 0.473159-0.100798 0.965051-0.204451 1.466797-0.517578 0.501745-0.313128 0.979765-1.055725 0.925781-1.78125-0.06248-0.839694-0.562623-1.568499-1.164063-1.986328-0.601439-0.4178297-1.280502-0.6168377-1.974609-0.7460938-1.388214-0.2585122-2.897992-0.2109375-3.925781-0.2109375zm0 2.134766c1.075781 0 2.488289-0.02307 3.535156 0.171875 0.523434 0.09747 0.938928 0.256794 1.148437 0.402344 0.136768 0.09501 0.135162 0.176628 0.164063 0.257812-0.1284 0.0533-0.29871 0.121191-0.619141 0.189454-0.809 0.172343-1.988671 0.18326-2.957031 1.08789-0.704494 0.65813-0.985969 1.477255-1.271484 2.177735-0.285516-0.70048-0.56699-1.519605-1.271485-2.177735-0.96836-0.90463-2.14803-0.915547-2.957031-1.08789-0.320431-0.06826-0.49074-0.136152-0.619141-0.189454 0.0289-0.08118 0.02729-0.162798 0.164063-0.257812 0.20951-0.14555 0.625004-0.30487 1.148437-0.402344 1.046868-0.194947 2.459375-0.171875 3.535157-0.171875z"></path></g></g></svg>
