<svg version="1.1" xmlns="http://www.w3.org/2000/svg" xmlns:xlink="http://www.w3.org/1999/xlink" width="97.6" height="386.81" viewBox="0,0,97.6,386.81"><g transform="translate(-190.46,-28.34)"><g data-paper-data="{&quot;isPaintingLayer&quot;:true}" fill="none" fill-rule="nonzero" stroke-opacity="0.9" stroke="#dce3ff" stroke-width="1.5" stroke-linecap="round" stroke-linejoin="round" stroke-miterlimit="10" stroke-dasharray="" stroke-dashoffset="0" style="mix-blend-mode: normal"><g><path d="M209.9,414.4l-0.59,-0.49l0.17,-1.39l0.71,-0.35l0.89,0.36l-0.22,1.6l-0.96,0.27"/><path d="M198.6,353.2l-1,1.24l-1.12,0.04l-3.04,1.96l-0.41,-0.89l0.27,-2.29l-0.59,-0.94l1.79,-0.95l1.82,-1.54l0.64,0.21l1.11,1.22l0.53,1.94"/><path d="M191.6,282.8l-0.39,-1.1l0.15,-1.36l1.04,-0.79l0.91,1.36l0.01,1.19l-1.15,0.76l-0.57,-0.06"/><path d="M279.2,155.5l0.28,-0.12l0.63,0.58l-0.02,1.15l-0.51,0.64l-0.38,-2.25"/><path d="M280,140l-1.45,0.93l0.39,1.08l1.52,-0.35l0.21,0.66l-0.54,0.9l0.19,1.16l1.08,0.91l-0.31,1.23l0.15,0.81l-1.09,0.65l-0.78,-0.77l-0.88,-2.35l0.4,-0.43l-0.41,-1.44l-1.43,-1.58l-0.21,-1.11l-0.54,-0.76l0.27,-0.95l1.03,1.55l1.86,-0.92l0.54,0.78"/><path d="M286.5,96.5l-0.17,0.44l0.98,0.95l-0.1,2.32l-1.14,1.84l-1.24,0.01l-1.92,-0.92l0.6,-1.61l-0.82,-1.1l0.55,-0.31l1.36,0.07l0.06,-1.28l-0.82,-1.1l-0.78,0.76l-0.78,-0.44l-0.09,-0.81l1.16,-0.61l1.11,0.04l1.33,0.6l0.71,1.15"/><path d="M285.6,91.7l1.01,0.95l-0.05,0.8l-0.61,0.91l-1.33,-0.03l-0.1,-0.78l-1.78,-1.54l0.38,-1.62l0.29,0.71l1.04,1.01l1.15,-0.41"/><path d="M283.6,89.2l-1.57,0.91l0.38,-1.17l-0.11,-1.03l0.43,-1.2l-0.25,-1.18l0.41,-0.32l0.66,0.61l-0.07,1.28l0.71,0.46l-0.59,1.64"/><path d="M277.9,30.2l-1.17,-0.32l0.4,-0.79l1.69,0.58l0.07,1.14l-0.91,0.16l-0.08,-0.77"/></g></g></g></svg>