<svg version="1.1" xmlns="http://www.w3.org/2000/svg" xmlns:xlink="http://www.w3.org/1999/xlink" width="94.99034" height="117.20274" viewBox="0,0,94.99034,117.20274"><g transform="translate(-152.56701,-78.31585)"><g data-paper-data="{&quot;isPaintingLayer&quot;:true}" fill="none" fill-rule="evenodd" stroke="#d645ff" stroke-width="72" stroke-linecap="round" stroke-linejoin="round" stroke-miterlimit="4" stroke-dasharray="" stroke-dashoffset="0" style="mix-blend-mode: normal"><g><path d="M194.75999,156.79903l1.93969,2.71956l-3.32947,-0.45993l1.38978,-2.25964"/><path d="M207.238,141.31151l-1.09982,0.52992l-0.28995,2.30963l2.33963,-0.43993l-1.8497,2.36962l-0.71988,-1.03983l-1.50976,1.40977l-1.97968,3.47944l-0.06999,1.58975l-2.97952,1.2598l0.51992,1.49976l-1.93969,0.10998l-1.2198,1.35978l-1.63974,-1.60974l-0.66989,2.90953l-1.02984,-1.2398l-2.19565,0.22996l0.5969,-2.37962l1.80871,-0.5999l-0.36994,-1.97968l-4.3733,-0.50992l2.03867,-3.90937l2.32463,-2.57959l1.52976,-0.22996l0.34994,1.56975l1.2398,-1.90969l0.95985,2.88954l1.99968,-2.54959l-3.34946,-1.48976l-0.82987,1.06983l-2.4796,-1.34978l-1.08783,1.03983l-1.28779,-2.10966l-0.6469,-3.7394l2.14666,-4.17933l0.71589,-3.45945l3.43945,-5.44913l0.94985,-2.90953l-1.19981,-3.1295l-2.28963,-1.41977l1.79971,-1.03983l1.37978,3.03951l2.16965,-0.39994l5.18917,-3.26948l3.01952,-0.73988l4.08935,0.10998l0.81987,5.36914"/></g></g></g></svg>