<svg version="1.1" xmlns="http://www.w3.org/2000/svg" xmlns:xlink="http://www.w3.org/1999/xlink" width="208" height="32" viewBox="0,0,208,32"><g transform="translate(-240,-164)"><g data-paper-data="{&quot;isPaintingLayer&quot;:true}" fill-rule="nonzero" stroke="none" stroke-linecap="butt" stroke-linejoin="miter" stroke-miterlimit="10" stroke-dasharray="" stroke-dashoffset="0" style="mix-blend-mode: normal"><path d="M240,196v-32h208v32z" fill="none" stroke-width="0"/><path d="M251.27,171.11h2.2363v3.7598h4.6387v2.002h-4.6387v9.6582c0,0.71613 -0.12695,1.2337 -0.38086,1.5527c-0.29297,0.3776 -0.89193,0.5664 -1.7969,0.5664c-1.02213,0 -2.028,-0.03257 -3.0176,-0.0977l-0.52735,-2.1191c1.02213,0.09115 1.98893,0.13672 2.9004,0.13672c0.30599,0 0.48503,-0.06836 0.53711,-0.20508c0.03253,-0.07813 0.0488,-0.19532 0.0488,-0.35157v-8.1445c-1.26953,1.85547 -2.6595,3.5026 -4.1699,4.9414c-1.3672,1.30207 -3.01433,2.4902 -4.9414,3.5644l-1.3965,-1.9043c3.60027,-1.8294 6.59507,-4.36197 8.9844,-7.5977h-8.5644v-2.002h10.088z" fill="#ffffff" stroke-width="1"/><path d="M259.79,178.55h17.197v2.1973h-17.197z" fill="#ffffff" stroke-width="1"/><path d="M280.36,172.5h11.777l1.2988,1.1426c-1.10027,2.60413 -2.41213,4.97067 -3.9356,7.0996c2.16147,1.69273 4.222,3.60027 6.1816,5.7226l-1.6211,1.8359c-1.9206,-2.181 -3.87373,-4.15367 -5.8594,-5.918c-2.1354,2.51953 -4.83723,4.51173 -8.1055,5.9766l-1.1719,-2.0215c2.4284,-0.9896 4.44987,-2.22333 6.0644,-3.7012c1.5104,-1.3802 2.89387,-3.08267 4.1504,-5.1074c0.6706,-1.08727 1.19143,-2.0964 1.5625,-3.0274h-10.342z" fill="#ffffff" stroke-width="1"/><path d="M299.87,171.05h2.2754v5.6055c3.88673,1.19793 7.10613,2.4219 9.6582,3.6719l-1.0938,2.1094c-2.44793,-1.24347 -5.30273,-2.4251 -8.5644,-3.5449v9.9219h-2.2754z" fill="#ffffff" stroke-width="1"/><path d="M315.29,171.91h12.881v2.002h-12.881zM313.8935,176.6952h16.26c-0.28646,2.83853 -0.87889,5.0586 -1.7773,6.6602c-0.67707,1.2044 -1.52343,2.1647 -2.5391,2.8809c-1.71873,1.22393 -4.21873,2.06377 -7.5,2.5195l-0.98632,-1.9824c2.89713,-0.27995 5.11393,-0.94401 6.6504,-1.9922c1.9922,-1.34767 3.13477,-3.37567 3.4277,-6.084h-13.535z" fill="#ffffff" stroke-width="1"/><path d="M333.84,171.32h2.2754v10.684h-2.2754zM343.869,171.11492h2.2754v6.9824c0,2.4544 -0.19857,4.28057 -0.59571,5.4785c-0.33203,1.02213 -0.78449,1.83593 -1.3574,2.4414c-1.1914,1.28253 -3.10547,2.2298 -5.7422,2.8418l-1.123,-2.002c2.88413,-0.58594 4.7331,-1.55924 5.5469,-2.9199c0.51433,-0.86587 0.82357,-1.9596 0.92774,-3.2812c0.0456,-0.61198 0.0684,-1.45835 0.0684,-2.5391z" fill="#ffffff" stroke-width="1"/><path d="M349.59,172.5h15.303l1.2598,1.0644c-0.36458,1.36067 -0.83985,2.49673 -1.4258,3.4082c-1.10027,1.72527 -2.7474,3.01433 -4.9414,3.8672l-1.2305,-1.6797c1.51693,-0.45573 2.7767,-1.2728 3.7793,-2.4512c0.59245,-0.6966 1.00585,-1.43227 1.2402,-2.207h-13.984zM355.8498,176.7188h2.2363v1.6797c0,2.51953 -0.27995,4.46613 -0.83985,5.8398c-0.7096,1.7448 -2.0898,3.16407 -4.1406,4.2578l-1.6113,-1.6992c1.41273,-0.67053 2.44463,-1.4713 3.0957,-2.4023c0.50131,-0.72267 0.83008,-1.48763 0.98633,-2.2949c0.18229,-0.92447 0.27344,-2.1647 0.27344,-3.7207z" fill="#ffffff" stroke-width="1"/><path d="M372.47,175.96v13.545h-2.1191v-10.029c-0.52734,0.7422 -1.13931,1.51043 -1.8359,2.3047l-1.1035,-2.0996c1.3216,-1.46487 2.4544,-3.1706 3.3984,-5.1172c0.57291,-1.1784 1.14585,-2.58467 1.7188,-4.2188l2.041,0.55664c-0.59245,1.78387 -1.29231,3.47007 -2.0996,5.0586zM383.593,175.10063h2.9394v1.9629h-2.9394v10.254c0,0.8594 -0.20833,1.43233 -0.625,1.7188c-0.30599,0.21485 -0.88215,0.32227 -1.7285,0.32227c-1.03513,0 -2.09633,-0.05859 -3.1836,-0.17578l-0.41992,-2.1387c1.15887,0.16927 2.2396,0.2539 3.2422,0.2539c0.27343,0 0.43945,-0.05859 0.49804,-0.17578c0.03907,-0.08463 0.0586,-0.22461 0.0586,-0.41992v-9.6387h-7.9883v-1.9629h7.9883v-4.2578h2.1582zM377.4114,184.56353c-0.73567,-1.95967 -1.64387,-3.74677 -2.7246,-5.3613l1.8652,-1.084c1.17187,1.72527 2.11263,3.49283 2.8223,5.3027z" fill="#ffffff" stroke-width="1"/><path d="M392.55,185.06c0.52083,0.60547 1.10677,1.05471 1.7578,1.3477c1.06773,0.48177 2.46747,0.72266 4.1992,0.72266h8.3203c-0.23437,0.44271 -0.45247,1.07747 -0.6543,1.9043h-7.7637c-2.2396,0 -3.9551,-0.35157 -5.1465,-1.0547c-0.48828,-0.29297 -1.02538,-0.77151 -1.6113,-1.4356c-0.0456,0.05207 -0.10094,0.11717 -0.16602,0.19531c-0.957,1.1328 -1.90753,2.05727 -2.8516,2.7734l-1.1816,-2.002c1.03513,-0.61849 2.03447,-1.31836 2.998,-2.0996v-4.8242h-2.8418v-1.9238h4.9414zM395.0891,172.101l0.51758,-0.0391c3.01433,-0.20833 5.72267,-0.6543 8.125,-1.3379l1.5234,1.7188c-2.52607,0.66406 -5.22137,1.11326 -8.0859,1.3476v2.5293h9.043v1.9043h-3.2812v7.959h-2.1582v-7.959h-3.6035c-0.03253,2.08987 -0.18878,3.75327 -0.46875,4.9902c-0.25391,1.13933 -0.67057,2.16147 -1.25,3.0664l-1.7969,-1.3574c0.64453,-1.0026 1.05793,-2.2461 1.2402,-3.7305c0.13021,-1.02213 0.19531,-2.4121 0.19531,-4.1699zM391.4758,175.9194c-0.99607,-1.40627 -2.0703,-2.66603 -3.2227,-3.7793l1.6016,-1.2793c1.1198,0.93747 2.2461,2.12887 3.3789,3.5742z" fill="#ffffff" stroke-width="1"/></g></g></svg>