<svg version="1.1" xmlns="http://www.w3.org/2000/svg" xmlns:xlink="http://www.w3.org/1999/xlink" width="346" height="38" viewBox="0,0,346,38"><g transform="translate(-114,-161)"><g data-paper-data="{&quot;isPaintingLayer&quot;:true}" stroke="none" stroke-width="1" stroke-linecap="butt" stroke-linejoin="miter" stroke-miterlimit="10" stroke-dasharray="" stroke-dashoffset="0" style="mix-blend-mode: normal"><g><path d="M124,161h232c5.54,0 10,4.46 10,10v18c0,5.54 -4.46,10 -10,10h-232c-5.54,0 -10,-4.46 -10,-10v-18c0,-5.54 4.46,-10 10,-10z" fill="#12151a" fill-rule="evenodd"/><g fill="#ffffff" fill-rule="nonzero"><path d="M333.2031,178.08v-1.0391h-5.5098v-1.2578h12.503v1.2578h-5.5371v1.0391h4.792v5.544h-4.8262c-0.00667,0.03193 -0.01,0.06383 -0.01,0.0957c-0.05,0.80207 -0.2551,1.51073 -0.6153,2.126c1.76827,0.61979 3.9626,1.04589 6.583,1.2783l-0.8408,1.333c-2.54753,-0.29623 -4.7487,-0.82033 -6.6035,-1.5723c-0.52867,0.46029 -1.21,0.83172 -2.044,1.1143c-0.7474,0.25521 -1.7158,0.45801 -2.9052,0.6084l-0.7383,-1.2988c1.84113,-0.13672 3.26073,-0.48535 4.2588,-1.0459c-0.9798,-0.48307 -1.8867,-1.04591 -2.7207,-1.6885l1.0049,-0.85449c0.8704,0.67447 1.76133,1.20993 2.6728,1.6064c0.26433,-0.45117 0.43297,-1.01857 0.5059,-1.7022h-4.7578v-5.544zM333.2031,179.1738h-3.3154v1.1006h3.3154zM334.6592,179.1738v1.1006h3.3222v-1.1006zM333.2031,181.3271h-3.3154v1.1895h3.3154zM334.6592,181.3271v1.1895h3.3222v-1.1895z"/><path d="M345.5031,183.79c0.6608,0.36003 1.39223,0.86589 2.1943,1.5176l-0.7793,1.2715c-0.51493,-0.57877 -0.9866,-1.05501 -1.415,-1.4287v3.3496h-1.4014v-3.6504c-0.6152,1.1302 -1.34663,2.07583 -2.1943,2.8369l-0.7998,-1.292c1.01627,-0.72007 1.86163,-1.61557 2.5361,-2.6865h-2.1601v-1.2031h2.6181v-1.333h-2.8847v-1.2578h1.497c-0.11847,-0.57877 -0.2848,-1.20997 -0.499,-1.8936h-0.7314v-1.2715h2.5908v-1.5518h1.4561v1.5518h2.4814v1.2715h-0.7314c-0.16867,0.6836 -0.37833,1.3148 -0.629,1.8936h1.5655v1.2578h-2.7139v1.333h2.4609v1.2031h-2.4609zM343.5754,178.0205c0.17313,0.56966 0.3235,1.20086 0.4511,1.8936h1.3536c0.2096,-0.58789 0.3896,-1.21909 0.54,-1.8936zM350.008,181.3428c0.00667,1.4128 -0.1027,2.72303 -0.3281,3.9307c-0.23247,1.25327 -0.6449,2.37437 -1.2373,3.3633l-1.128,-1.0322c0.50587,-0.82033 0.85223,-1.8275 1.0391,-3.0215c0.16407,-1.0208 0.2461,-2.3242 0.2461,-3.9102v-4.2861c0.09113,-0.00913 0.23013,-0.0228 0.417,-0.041c1.4492,-0.13671 2.9007,-0.44889 4.3545,-0.93652l0.8955,1.1894c-1.21227,0.41016 -2.6296,0.72689 -4.252,0.9502v2.3652h4.5869v1.4287h-1.5654v7.1572h-1.415v-7.1572z"/></g></g><path d="M386,161h64c5.54,0 10,4.46 10,10v18c0,5.54 -4.46,10 -10,10h-64c-5.54,0 -10,-4.46 -10,-10v-18c0,-5.54 4.46,-10 10,-10z" fill="#12151a" fill-rule="evenodd"/><g fill="#ffffff" fill-rule="nonzero"><path d="M390.67,169.4565v-0.46191h-3.3569v-0.76807h7.9277v0.76807h-3.4268v0.46191h4.4473v1.9282h-1.1655v-1.2354h-3.2817v2.0894h-1.144v-2.0894h-3.2226v1.2354h-1.1548v-1.9282zM394.4727,177.0781c0.54785,0.20768 1.23179,0.37239 2.0518,0.49414l-0.62842,0.91309c-1.1494,-0.19694 -2.09293,-0.53531 -2.8306,-1.0151c-0.73407,-0.47982 -1.3052,-1.07602 -1.7134,-1.7886h-1.187v1.6543c0.79133,-0.111 1.5254,-0.22916 2.2022,-0.35449l0.0752,0.80029c-1.2604,0.30078 -2.70163,0.56217 -4.3237,0.78418l-0.31689,-0.94531c0.56217,-0.06087 0.94711,-0.10384 1.1548,-0.12891l0.0645,-0.01074v-1.7993h-1.1763c-0.05013,0.63021 -0.13249,1.13331 -0.24707,1.5093c-0.13607,0.45117 -0.35449,0.87191 -0.65528,1.2622l-0.95605,-0.78955c0.35091,-0.45475 0.56934,-0.98649 0.65527,-1.5952c0.04653,-0.32943 0.0698,-0.73943 0.0698,-1.23v-2.2773h9.2705v0.71436h-8.1157v1.6489h8.5776v0.75732h-1.2192l0.68213,0.45117c-0.40462,0.33659 -0.88265,0.65169 -1.4341,0.94531zM393.63481,176.66453c0.51563,-0.35091 0.92563,-0.67855 1.23,-0.98291h-2.3472c0.30794,0.39388 0.68034,0.72152 1.1172,0.98291zM387.92001,170.54683h2.2881v0.60693h-2.2881zM387.92001,171.53511h2.2881v0.61768h-2.2881zM392.27601,170.54683h2.3579v0.60693h-2.3579zM392.27601,171.53511h2.3579v0.61768h-2.3579zM388.50551,173.72651h6.687v0.70361h-6.687z"/><path d="M403.11,168.9731h4.2109v0.90234h-2.3848v0.8916h2.2344v0.87012h-2.2344v1.6006h-4.3237v-1.6006h-1.7617v0.99902c0,1.62207 -0.08594,2.90397 -0.25781,3.8457c-0.13249,0.71613 -0.34733,1.3696 -0.64453,1.9604l-0.97754,-0.77344c0.27213,-0.59082 0.45833,-1.31235 0.55859,-2.1646c0.08952,-0.7484 0.13428,-1.70447 0.13428,-2.8682v-3.6631h4.2485v-0.9668h1.1978zM398.8507,169.87544v0.8916h1.7617v-0.8916zM401.7565,169.87544v0.8916h2.0356v-0.8916zM401.7565,171.63714v0.83252h2.0356v-0.83252zM403.0026,177.27674c-1.0348,0.53711 -2.34893,0.94531 -3.9424,1.2246l-0.55859,-0.98828c1.49673,-0.17904 2.66943,-0.45297 3.5181,-0.82178c-0.72687,-0.52637 -1.34813,-1.1512 -1.8638,-1.8745h-0.74121v-0.93457h6.2896l0.56396,0.47266c-0.53353,0.82 -1.29443,1.59163 -2.2827,2.3149c0.84867,0.34017 2.00523,0.59082 3.4697,0.75195l-0.62842,1.0151c-1.40367,-0.18978 -2.6784,-0.57651 -3.8242,-1.1602zM401.4074,174.81674c0.43327,0.50847 0.95963,0.95607 1.5791,1.3428c0.69827,-0.45117 1.23717,-0.89877 1.6167,-1.3428z"/><path d="M408.2,171.933h9.625v1.1011h-3.98c-0.05013,0.90953 -0.16472,1.64 -0.34375,2.1914c-0.27213,0.84147 -0.72687,1.51287 -1.3642,2.0142c-0.39388,0.31152 -0.93278,0.60693 -1.6167,0.88623l-0.76807,-0.95605c1.13507,-0.45833 1.90493,-1.042 2.3096,-1.751c0.30078,-0.52995 0.47624,-1.32488 0.52637,-2.3848h-4.3882zM409.3763,168.8768h6.0371v1.1011h-6.0371zM416.3963,170.1497c-0.22558,-0.7484 -0.48697,-1.38937 -0.78418,-1.9229l0.84864,-0.18799c0.3151,0.52279 0.5747,1.15299 0.77881,1.8906zM417.7821,169.85429c-0.13607,-0.60156 -0.39747,-1.24609 -0.78418,-1.9336l0.8164,-0.1665c0.33659,0.52995 0.61231,1.14941 0.82715,1.8584z"/><path d="M419.21,172.438h9.4585v1.2085h-9.4585z"/><path d="M437.73,169.4458l0.76806,0.62842c-0.5013,2.29167 -1.31413,4.06593 -2.4385,5.3228c-0.62305,0.69467 -1.42871,1.3034 -2.417,1.8262c-0.7018,0.36881 -1.45553,0.66243 -2.2612,0.88086l-0.62304,-1.0581c1.84047,-0.47982 3.26917,-1.24609 4.2861,-2.2988c-0.83787,-0.75193 -1.7617,-1.41793 -2.7715,-1.998l0.70361,-0.87012c0.98467,0.51205 1.92103,1.14225 2.8091,1.8906c0.69827,-1.1172 1.1369,-2.19857 1.3159,-3.2441h-3.7812c-0.86653,1.34993 -1.88703,2.38297 -3.0615,3.0991l-0.78955,-0.854c1.13507,-0.68393 2.06783,-1.58807 2.7983,-2.7124c0.37598,-0.57292 0.66781,-1.19059 0.87549,-1.853l1.1655,0.28467c-0.11817,0.32227 -0.25065,0.64095 -0.39746,0.95605z"/><path d="M439.65,170.3804h2.374c0.10742,-0.55143 0.22737,-1.23713 0.35986,-2.0571l0.0269,-0.15576l1.1763,0.17725c-0.12175,0.75913 -0.24707,1.43767 -0.37598,2.0356h0.64991c0.8594,0 1.47527,0.19336 1.8476,0.58008c0.33301,0.34733 0.49951,0.88803 0.49951,1.6221c0,1.23533 -0.1307,2.39013 -0.39209,3.4644c-0.15039,0.60873 -0.333,1.05809 -0.54785,1.3481c-0.27213,0.36165 -0.6499,0.54248 -1.1333,0.54248c-0.58008,0 -1.21388,-0.1862 -1.9014,-0.55859l0.13428,-1.1333c0.68033,0.32585 1.2085,0.48877 1.5845,0.48877c0.19694,0 0.34912,-0.10563 0.45655,-0.3169c0.11458,-0.22917 0.22379,-0.56038 0.32763,-0.99365c0.20411,-0.87727 0.30616,-1.7993 0.30616,-2.7661c0,-0.50847 -0.10205,-0.83789 -0.30616,-0.98828c-0.17545,-0.12533 -0.48877,-0.18799 -0.93994,-0.18799h-0.82715c-0.56933,2.53513 -1.38573,4.6979 -2.4492,6.4883l-1.0796,-0.59082c1.09927,-1.84407 1.88343,-3.8099 2.3525,-5.8975h-2.1431zM448.5714,175.6817c-0.40462,-1.4896 -1.04379,-2.95233 -1.9175,-4.3882l1.0474,-0.47266c0.90233,1.43947 1.5773,2.88787 2.0249,4.3452zM447.77648,170.5362c-0.22201,-0.58008 -0.58007,-1.22461 -1.0742,-1.9336l0.83252,-0.31152c0.43327,0.61231 0.79671,1.24787 1.0903,1.9067zM449.22128,170.07429c-0.2793,-0.69107 -0.63557,-1.34097 -1.0688,-1.9497l0.78955,-0.26318c0.41179,0.49056 0.77165,1.10286 1.0796,1.8369z"/><path d="M392.63,183.604c-0.20052,0.32943 -0.45833,0.70719 -0.77343,1.1333v7.4712h-1.23v-6.0156c-1.08493,1.16373 -2.3722,2.1717 -3.8618,3.0239l-0.73584,-1.0044c2.28453,-1.24967 4.01043,-2.7858 5.1777,-4.6084h-4.8394v-1.144h9.8237v1.144zM395.6647,188.9375c-1.01693,-1.06707 -2.21647,-2.12337 -3.5986,-3.1689l0.83789,-0.81104c1.42513,0.99547 2.63543,1.9927 3.6309,2.9917z"/><path d="M405.36,186.977c-0.35449,1.042 -0.93456,1.95687 -1.7402,2.7446c1.06347,0.43327 2.2254,0.95247 3.4858,1.5576l-0.79492,0.9668c-1.3392,-0.75193 -2.52263,-1.36243 -3.5503,-1.8315c-1.3714,0.95607 -3.04003,1.563 -5.0059,1.8208l-0.54786,-0.98828c1.69013,-0.16829 3.1475,-0.61946 4.3721,-1.3535c-0.79853,-0.34017 -1.65253,-0.66243 -2.562,-0.9668l-0.41357,-0.13428c0.37956,-0.51563 0.78059,-1.12076 1.2031,-1.8154h-2.7554v-1.0098h3.3354c0.24349,-0.43685 0.53532,-1.02051 0.87549,-1.751l1.1655,0.2793c-0.23991,0.53353 -0.47803,1.02409 -0.71436,1.4717h5.79v1.0098zM404.1139,186.977h-2.9487c-0.36165,0.61947 -0.66781,1.11183 -0.91846,1.4771c0.61231,0.20768 1.34814,0.47444 2.2075,0.80029c0.7412,-0.65169 1.29443,-1.41079 1.6597,-2.2773zM402.8356,182.9326h4.2593v2.5513h-1.2085v-1.563h-7.2402v1.563h-1.1978v-2.5513h4.1895v-1.1763h1.1978z"/><path d="M413.85,190.646c0.60514,0.10026 1.26577,0.15039 1.9819,0.15039h2.7876c-0.17904,0.35807 -0.31153,0.73584 -0.39746,1.1333h-2.4009c-1.4538,0 -2.60143,-0.17367 -3.4429,-0.521c-0.8164,-0.33659 -1.48957,-0.89159 -2.0195,-1.665c-0.42252,1.0062 -0.94172,1.8405 -1.5576,2.5029l-0.83252,-0.99902c1.00973,-1.09213 1.63993,-2.50653 1.8906,-4.2432l1.2192,0.18799c-0.11458,0.56575 -0.22558,1.03662 -0.33301,1.4126c0.43327,0.76987 1.07244,1.3392 1.9175,1.708v-4.1572h-2.981v-0.71436h-1.1655v-2.4868h4.1143v-1.1978h1.1978v1.1978h4.2056v2.4868h-1.1655v0.71436h-3.0186v1.6436h3.6792v0.99902h-3.6792zM409.6928,183.9644v1.1709h7.1543v-1.1709z"/><path d="M419.4,183.062c3.29427,-0.05013 6.4077,-0.13428 9.3403,-0.25244l0.0645,1.0688c-1.29267,0.06445 -2.29887,0.26139 -3.0186,0.59082c-0.68747,0.31511 -1.2389,0.75194 -1.6543,1.3105c-0.47266,0.63379 -0.70899,1.33919 -0.70899,2.1162c0,0.77347 0.26856,1.35353 0.80567,1.7402c0.61589,0.44043 1.56119,0.743 2.8359,0.90772l-0.25245,1.2085c-1.66147,-0.22201 -2.83057,-0.65171 -3.5073,-1.2891c-0.72687,-0.68033 -1.0903,-1.5254 -1.0903,-2.5352c0,-0.91667 0.32943,-1.77247 0.98828,-2.5674c0.47982,-0.58366 1.13689,-1.05273 1.9712,-1.4072c-1.47887,0.05013 -3.3856,0.13428 -5.7202,0.25244zM427.2096,187.6973c-0.21127,-0.56217 -0.56753,-1.19954 -1.0688,-1.9121l0.83789,-0.31152c0.44759,0.61589 0.80746,1.24609 1.0796,1.8906zM428.6598,187.13334c-0.25423,-0.65885 -0.60873,-1.29982 -1.0635,-1.9229l0.8003,-0.28467c0.41895,0.50847 0.77521,1.12437 1.0688,1.8477z"/><path d="M435.62,181.977h1.2085v1.4824h3.169v1.0366h-3.169v2.2988c0.12533,0.44043 0.18799,0.83253 0.18799,1.1763c0,1.27473 -0.28109,2.2111 -0.84326,2.8091c-0.61231,0.65527 -1.53434,1.10824 -2.7661,1.3589l-0.61231,-0.91309c0.95607,-0.18262 1.66507,-0.44043 2.127,-0.77344c0.43327,-0.31511 0.72509,-0.74301 0.87548,-1.2837c-0.38313,0.41895 -0.83967,0.62842 -1.3696,0.62842c-0.59441,0 -1.07601,-0.16829 -1.4448,-0.50488c-0.43327,-0.39746 -0.6499,-0.97396 -0.6499,-1.7295c0,-0.39746 0.09489,-0.78059 0.28467,-1.1494c0.12533,-0.23633 0.2793,-0.43327 0.46191,-0.59082c0.42253,-0.35807 0.92919,-0.53711 1.52,-0.53711c0.37598,0 0.71615,0.08952 1.0205,0.26856v-1.0581h-5.3013v-1.0366h5.3013zM435.663,187.5522v-0.19873c0,-0.22917 -0.05371,-0.43148 -0.16114,-0.60693c-0.20052,-0.32943 -0.49056,-0.49414 -0.87011,-0.49414c-0.19336,0 -0.37419,0.05371 -0.54248,0.16113c-0.39388,0.24707 -0.59082,0.62663 -0.59082,1.1387c0,0.32227 0.07161,0.5944 0.21484,0.81641c0.20052,0.30794 0.49593,0.46191 0.88623,0.46191c0.35449,0 0.63558,-0.15934 0.84326,-0.47803c0.14681,-0.22559 0.22022,-0.49235 0.22022,-0.80029z"/></g></g></g></svg>