<svg version="1.1" xmlns="http://www.w3.org/2000/svg" xmlns:xlink="http://www.w3.org/1999/xlink" width="224" height="68" viewBox="0,0,224,68"><g transform="translate(-128,-146)"><g data-paper-data="{&quot;isPaintingLayer&quot;:true}" stroke="none" stroke-width="1" stroke-linecap="butt" stroke-linejoin="miter" stroke-miterlimit="10" stroke-dasharray="" stroke-dashoffset="0" style="mix-blend-mode: normal"><path d="M128,214v-68h224v68z" fill="none" fill-rule="nonzero"/><path d="M128,214v-66h224v66z" fill="#1d2a41" fill-rule="nonzero"/><g fill-rule="evenodd"><path d="M148,166h16c5.54,0 10,4.46 10,10v16c0,5.54 -4.46,10 -10,10h-26v-26c0,-5.54 4.46,-10 10,-10z" fill="#ed291b"/><path d="M155.6783,172.415c0.48371,-0.00266 0.93163,0.25463 1.1732,0.6739l10.879,18.85c0.24033,0.41661 0.24021,0.92985 -0.00031,1.34634c-0.24052,0.4165 -0.68489,0.67296 -1.16569,0.67276h-21.756c-0.4808,0.0002 -0.92517,-0.25626 -1.16569,-0.67276c-0.24052,-0.4165 -0.24064,-0.92973 -0.00031,-1.34634l10.879,-18.85c0.23858,-0.4141 0.67875,-0.6706 1.1565,-0.6739zM151.14347,184.3217c1.8119,-1.0471 3.4584,-1.5132 4.8505,-1.3834c1.4265,0.1328 2.57736,0.907 3.2831,2.2317c0.05279,0.0998 0.03045,0.22276 -0.05407,0.29761c-0.08452,0.07485 -0.20928,0.08216 -0.30196,0.01769c-1.1899,-0.83 -2.13049,-0.6246 -2.6881,0.012c-0.35344,0.4034 -0.43467,0.91 -0.28674,1.4122c0.14792,0.5022 0.53654,0.9928 1.1445,1.3094c1.3885,0.723 3.7137,0.864 5.5697,0.3847c0.01271,-0.001 0.02549,-0.001 0.0382,0l-7.0106,-12.148z" fill="#ffffff"/></g><g fill="#ffffff" fill-rule="nonzero"><path d="M198.298,183.979v1.5361h5.8545v1.7617h-5.8545v1.5791h6.7354v1.8906h-6.7354v3.7061h-2.3096v-3.7061h-6.1768v-1.8906h6.1768v-1.5791h-5.2529v-1.7617h5.2529v-1.5361h-4.6406v-1.6328h4.6406v-1.6865h-6.4453v-1.7402h6.4453v-1.6543h-4.5332v-1.6973h4.5332v-2.0195h2.3096v2.0195h5.3711v3.3516h1.8691v1.7402h-1.8691v3.3193zM198.298,182.3462h3.126v-1.6865h-3.126zM198.298,178.9194h3.126v-1.6543h-3.126zM188.4044,178.65085c-0.8952,-1.2318 -1.96583,-2.3669 -3.2119,-3.4053l1.665,-1.5684c1.34633,1.03127 2.44203,2.11623 3.2871,3.2549zM187.65245,184.23675c-1.0384,-1.36787 -2.12337,-2.5316 -3.2549,-3.4912l1.6543,-1.6113c1.153,0.87367 2.28093,1.98727 3.3838,3.3408zM184.77355,192.79825c1.375,-2.24867 2.5459,-4.78023 3.5127,-7.5947l1.8799,1.3213c-0.8952,2.85027 -2.01953,5.47493 -3.373,7.874z"/><path d="M222.4,189.779c1.38213,0.98113 3.14387,1.81903 5.2852,2.5137l-1.2031,2.1484c-2.25587,-0.888 -4.11783,-1.91567 -5.5859,-3.083c-1.5182,1.35353 -3.24053,2.42777 -5.167,3.2227l-1.5039,-1.6973c1.98373,-0.7018 3.69533,-1.6865 5.1348,-2.9541c-1.6328,-1.80467 -2.8037,-3.6953 -3.5127,-5.6719h-0.41894c-0.04297,1.9336 -0.21484,3.6058 -0.51562,5.0166c-0.37239,1.74027 -1.07063,3.4053 -2.0947,4.9951l-1.7402,-1.5898c0.94533,-1.53973 1.5648,-3.26207 1.8584,-5.167c0.1862,-1.1888 0.2793,-2.5244 0.2793,-4.0068v-6.9717h5.6289v-2.9863h2.2881v2.9863h4.9307l1.1172,0.9668c-0.44401,1.47527 -0.96321,2.8252 -1.5576,4.0498l-2.1807,-0.64453c0.47266,-0.77347 0.82356,-1.5505 1.0527,-2.3311h-3.3623v3.792h3.5664l1.0742,0.92383c-0.8522,2.55667 -1.97653,4.71943 -3.373,6.4883zM220.7564,188.4255c1.0814,-1.36787 1.82977,-2.7572 2.2451,-4.168h-5.1455c0.6732,1.5182 1.64,2.90753 2.9004,4.168zM218.8443,178.5749h-3.4053v3.792h3.4053zM210.8629,179.06904c-0.94533,-1.28193 -2.1055,-2.48507 -3.4805,-3.6094l1.6758,-1.6221c1.3392,0.9668 2.54233,2.1019 3.6094,3.4053zM209.88536,184.25754c-1.02407,-1.31773 -2.16633,-2.4958 -3.4268,-3.5342l1.6543,-1.6113c1.23893,0.88087 2.417,2.00163 3.5342,3.3623zM206.70566,192.75464c1.34633,-2.01953 2.5387,-4.46877 3.5771,-7.3477l1.9443,1.3428c-0.95967,2.8574 -2.11983,5.4391 -3.4805,7.7451z"/><path d="M246.03,179.703c1.0026,0.54427 2.195,0.97754 3.5772,1.2998l-1.1172,1.7402c-1.56833,-0.52995 -2.84667,-1.12791 -3.835,-1.7939c-1.00973,0.73047 -2.25583,1.2461 -3.7383,1.5469h5.081v1.2354h-13.857v-1.2354h3.5772l-0.19336,-0.80566h-5.0059v-2.2666c-0.35091,0.29362 -0.68392,0.54427 -0.99902,0.75195l-1.1387,-1.5898c1.0814,-0.62305 1.89423,-1.40008 2.4385,-2.3311l0.6875,0.0752v-0.4082h-2.9541v-1.4502h2.9541v-0.92383h2.0195v0.92383h2.0625v-0.92383h2.0518v0.92383h2.6426v1.4502h-2.6426v0.77344h2.2451c-0.01433,0.19336 -0.02867,0.33659 -0.043,0.42969c-0.01433,0.15039 -0.02507,0.26856 -0.0322,0.35449c1.01693,-1.01693 1.8405,-2.39193 2.4707,-4.125l2.0732,0.42969c-0.17187,0.46549 -0.35091,0.89876 -0.53711,1.2998h5.3066v1.7188h-1.4717c-0.31511,1.00973 -0.85581,1.97653 -1.6221,2.9004zM243.2585,179.79968c-0.42253,-0.4082 -0.87729,-0.9668 -1.3643,-1.6758c-0.33659,0.39388 -0.66959,0.73761 -0.99902,1.0312l-1.1172,-1.2998c-0.19336,1.862 -0.38672,3.03647 -0.58008,3.5234c-0.25065,0.62305 -0.74122,0.99545 -1.4717,1.1172h2.6963l-0.95606,-1.4502c1.60413,-0.23633 2.86813,-0.65169 3.792,-1.2461zM244.5261,178.66098c0.43685,-0.51563 0.78775,-1.13509 1.0527,-1.8584h-2.6748c0.45833,0.709 0.99903,1.32847 1.6221,1.8584zM235.5886,176.69518v-0.77344h-2.0625v0.77344zM231.8718,178.01648c-0.15039,0.19336 -0.34375,0.41178 -0.58008,0.65527h5.2744v2.46c0.08594,0.00716 0.13607,0.01074 0.15039,0.01074c0.24349,0 0.40821,-0.111 0.49414,-0.33301c0.22917,-0.54427 0.40104,-1.47527 0.51563,-2.793zM232.40891,179.84268v0.67676h2.3096v-0.67676zM247.43691,190.21968v4.2324h-2.4062v-0.75195h-12.053v0.75195h-2.3955v-4.2324zM232.97791,191.47648v0.92383h12.053v-0.92383zM228.55211,184.41888h20.904v1.3857h-20.904zM231.43101,186.50288h15.157v1.1709h-15.157zM231.43101,188.38278h15.157v1.1387h-15.157z"/><path d="M254.87,175.793v-2.2451h2.2451v2.2451h3.3408v1.8906h-3.3408v1.8477h3.8027v1.9121h-1.2783c-0.22917,0.8522 -0.53711,1.75453 -0.92383,2.707h2.0732v1.8691h-3.6738v1.9873h3.5342v1.9121h-3.5342v4.5332h-2.2451v-4.5332h-3.792v-1.9121h3.792v-1.9873h-3.9639v-1.8691h1.9766c-0.22917,-0.95247 -0.50846,-1.8548 -0.83789,-2.707h-1.5791v-1.9121h4.4043v-1.8477h-3.502v-1.8906zM257.5448,181.4434h-3.416c0.24349,0.68033 0.50488,1.58267 0.78418,2.707h1.7832c0.3724,-0.91667 0.65528,-1.819 0.84864,-2.707zM270.5748,174.3213v5.0273c0,0.62305 -0.11458,1.06348 -0.34375,1.3213c-0.27213,0.30794 -0.84147,0.46191 -1.708,0.46191c-0.84507,0 -1.69013,-0.03581 -2.5352,-0.10742l-0.36523,-1.9336c1.1888,0.12891 1.94433,0.19336 2.2666,0.19336c0.33659,0 0.50488,-0.14681 0.50488,-0.44043v-2.5889h-4.7051v6.2412h6.0908l1.2783,1.0957c-0.38672,2.27733 -1.09212,4.3112 -2.1162,6.1016l-0.11817,0.21484c0.78773,0.90953 1.77243,1.74027 2.9541,2.4922l-1.2031,2.0088c-1.13153,-0.73047 -2.1413,-1.60417 -3.0293,-2.6211c-0.76627,0.97393 -1.62923,1.8906 -2.5889,2.75l-1.2676,-1.7617v1.6758h-2.1807v-20.131zM263.6891,184.4293v8.1211c0.88087,-0.60156 1.7295,-1.44663 2.5459,-2.5352c-1.09573,-1.69013 -1.8656,-3.5521 -2.3096,-5.5859zM267.4274,188.1139c0.63737,-1.2318 1.05273,-2.46 1.2461,-3.6846h-2.7715c0.35091,1.375 0.85937,2.6032 1.5254,3.6846z"/></g></g></g></svg>