<svg version="1.1" xmlns="http://www.w3.org/2000/svg" xmlns:xlink="http://www.w3.org/1999/xlink" width="208" height="32" viewBox="0,0,208,32"><g transform="translate(-240,-164)"><g data-paper-data="{&quot;isPaintingLayer&quot;:true}" fill-rule="nonzero" stroke="none" stroke-linecap="butt" stroke-linejoin="miter" stroke-miterlimit="10" stroke-dasharray="" stroke-dashoffset="0" style="mix-blend-mode: normal"><path d="M240,196v-32h208v32z" fill="none" stroke-width="0"/><path d="M248.82,177.46v-6.9629h2.2363v6.9629h8.4473v2.041h-8.4473v10h-2.2363v-10h-8.3203v-2.041z" fill="#ffffff" stroke-width="1"/><path d="M275.45,183.5h-2.0801c-0.52083,2.81253 -2.10613,4.8275 -4.7559,6.0449l-1.3867,-1.5234c1.32813,-0.50781 2.33727,-1.23371 3.0274,-2.1777c0.54036,-0.74867 0.90819,-1.52993 1.1035,-2.3438h-2.2852v-1.0449c-0.33203,0.29297 -0.7129,0.58919 -1.1426,0.88867l-0.87891,-1.2988v5.6934c0,0.57292 -0.11719,0.98632 -0.35156,1.2402c-0.24089,0.25391 -0.63802,0.38086 -1.1914,0.38086c-0.44922,0 -1.06772,-0.05859 -1.8555,-0.17578l-0.34179,-1.9238c0.59245,0.11067 1.07748,0.16601 1.4551,0.16601c0.20833,0 0.34831,-0.03581 0.41993,-0.10742c0.08463,-0.08463 0.12695,-0.23112 0.12695,-0.43945v-4.4238h-2.1484c-0.02607,1.45833 -0.1107,2.6172 -0.2539,3.4766c-0.19531,1.1784 -0.62501,2.39587 -1.2891,3.6524l-1.4844,-1.543c0.56641,-1.12627 0.93101,-2.44787 1.0938,-3.9648c0.09765,-0.90493 0.14648,-1.96287 0.14648,-3.1738v-9.5801h5.6738v10.176c1.04167,-0.57291 1.87173,-1.28581 2.4902,-2.1387h-2.1484v-1.6797h2.9688c0.19531,-0.46224 0.39388,-0.99611 0.5957,-1.6016h-3.1055v-1.6797h1.4453c-0.46223,-1.1328 -0.9375,-2.05727 -1.4258,-2.7734l1.7578,-0.76172c0.57943,0.8724 1.06769,1.79037 1.4648,2.7539l-1.6992,0.78125h2.0117c0.24739,-1.09373 0.45573,-2.4121 0.625,-3.9551l2.0215,0.13672c-0.17578,1.33467 -0.39713,2.60747 -0.66406,3.8184h3.2031l-1.543,-0.55664c0.48177,-0.8854 0.92123,-1.9108 1.3184,-3.0762l1.9629,0.57617c-0.31901,0.85287 -0.83335,1.87173 -1.543,3.0566h2.002v1.6797h-3.4766c0.24089,0.55339 0.51758,1.08725 0.83008,1.6016h3.3301v1.6797h-2.0703c0.76173,0.78773 1.53647,1.40623 2.3242,1.8555l-1.0547,1.7871c-0.51432,-0.37109 -0.93425,-0.70313 -1.2598,-0.9961c-0.00667,0.09766 -0.01,0.22461 -0.01,0.38086c-0.0456,3.1706 -0.2051,5.11397 -0.47851,5.8301c-0.17578,0.45573 -0.46875,0.76823 -0.87891,0.9375c-0.29948,0.1237 -0.71288,0.18555 -1.2402,0.18555c-0.57292,0 -1.24999,-0.04557 -2.0312,-0.13672l-0.41992,-1.9238c0.8594,0.16276 1.543,0.24414 2.0508,0.24414c0.35807,0 0.58268,-0.11393 0.67382,-0.3418c0.15625,-0.35807 0.27995,-1.58527 0.3711,-3.6816zM273.5555,181.8203h3.6523c-0.8008,-0.74867 -1.4844,-1.56897 -2.0508,-2.4609h-3.584c-0.41667,0.8138 -1.02213,1.6341 -1.8164,2.4609h1.8848l0.10743,-1.4746h1.9238zM272.286,177.6797h1.9824c-0.18881,-0.44271 -0.39714,-0.97657 -0.625,-1.6016h-0.82031c-0.14974,0.5013 -0.32878,1.03517 -0.53711,1.6016zM263.1747,173.1582v2.8223h2.1387v-2.8223zM263.1747,177.7383v2.959h2.1387v-2.959z" fill="#ffffff" stroke-width="1"/><path d="M291.58,174.14v-3.6426h2.0996v3.6426h5.293v8.8379h-5.293v6.5234h-2.0996v-6.5234h-5.1856v-8.8379zM288.4159,176.0834v4.9707h3.1641v-4.9707zM296.8925,181.0541v-4.9707h-3.2129v4.9707zM284.3925,175.2729c-0.79427,-1.1068 -1.8457,-2.16473 -3.1543,-3.1738l1.4551,-1.4844c1.30207,0.918 2.40233,1.94663 3.3008,3.0859zM283.75774,180.2924c-1.1328,-1.31513 -2.23307,-2.3926 -3.3008,-3.2324l1.5039,-1.5039c1.13933,0.8008 2.26563,1.83597 3.3789,3.1055zM280.72064,187.8608c1.25,-1.77733 2.40233,-3.99087 3.457,-6.6406l1.7383,1.3379c-0.89193,2.4414 -1.97917,4.73957 -3.2617,6.8945z" fill="#ffffff" stroke-width="1"/></g></g></svg>