<svg version="1.1" xmlns="http://www.w3.org/2000/svg" xmlns:xlink="http://www.w3.org/1999/xlink" width="60" height="36" viewBox="0,0,60,36"><g transform="translate(-210,-162.00001)"><g data-paper-data="{&quot;isPaintingLayer&quot;:true}" stroke-miterlimit="10" stroke-dasharray="" stroke-dashoffset="0" style="mix-blend-mode: normal"><path d="M210,198.00001v-36h60v36z" fill-opacity="0" fill="#000000" fill-rule="nonzero" stroke="none" stroke-width="1" stroke-linecap="butt" stroke-linejoin="miter"/><path d="M231,166h18c7.756,0 14,6.244 14,14c0,7.756 -6.244,14 -14,14h-18c-7.756,0 -14,-6.244 -14,-14c0,-7.756 6.244,-14 14,-14z" fill="#458eb2" fill-rule="evenodd" stroke="none" stroke-width="0.2" stroke-linecap="round" stroke-linejoin="round"/><path d="M239,180c0,-5.52285 4.47715,-10 10,-10c5.52285,0 10,4.47715 10,10c0,5.52285 -4.47715,10 -10,10c-5.52285,0 -10,-4.47715 -10,-10z" fill="#ffffff" fill-rule="evenodd" stroke="none" stroke-width="1" stroke-linecap="butt" stroke-linejoin="miter"/><path d="M253.0918,177.2728l-5.4545,5.4545l-2.7273,-2.7273" fill="none" fill-rule="nonzero" stroke="#458eb2" stroke-width="2" stroke-linecap="round" stroke-linejoin="round"/></g></g></svg>