<svg version="1.1" xmlns="http://www.w3.org/2000/svg" xmlns:xlink="http://www.w3.org/1999/xlink" width="32" height="30" viewBox="0,0,32,30"><g transform="translate(-224,-165)"><g data-paper-data="{&quot;isPaintingLayer&quot;:true}" stroke="none" stroke-linecap="butt" stroke-linejoin="miter" stroke-miterlimit="10" stroke-dasharray="" stroke-dashoffset="0" style="mix-blend-mode: normal"><path d="M224,195v-30h32v30z" fill-opacity="0" fill="#000000" fill-rule="nonzero" stroke-width="4.0825"/><path d="M232,166h16c3.324,0 6,2.676 6,6v16c0,3.324 -2.676,6 -6,6h-16c-3.324,0 -6,-2.676 -6,-6v-16c0,-3.324 2.676,-6 6,-6z" fill="#4cd0a7" fill-rule="evenodd" stroke-width="1"/><path d="M240.11947,171.04898c0.9318,0.00387 1.78331,0.20408 2.5332,0.60548v0.00195c0.7522,0.387 1.35003,0.92987 1.7812,1.61912c0.44706,0.67181 0.6733,1.44093 0.67778,2.28513v0.02539c-0.00275,1.00581 -0.16692,1.87937 -0.50586,2.61523l-0.002,0.002c-0.33466,0.71021 -0.76748,1.3408 -1.2988,1.88872c-0.5024,0.53572 -1.04836,1.03938 -1.6367,1.50982c-0.5556,0.44186 -1.08651,0.90909 -1.5918,1.39842c-0.4762,0.47731 -0.87023,1.02213 -1.1837,1.64072v0.002h-0.002c-0.27242,0.52421 -0.41461,1.17863 -0.45703,1.93162h6.6523v2.42973h-9.4492v-2.18953c0.01737,-1.09281 0.18141,-2.04048 0.50195,-2.84184v-0.002h0.002c0.33276,-0.80461 0.75446,-1.50127 1.2695,-2.08403c0.52,-0.58501 1.06879,-1.11518 1.6426,-1.58792c0.5581,-0.47572 1.08024,-0.94297 1.5703,-1.40232h0.002c0.4796,-0.46531 0.87314,-0.95886 1.1855,-1.48242c0.2992,-0.51701 0.45338,-1.12764 0.45508,-1.84182v-0.002c-0.00319,-0.64748 -0.20661,-1.14573 -0.61719,-1.54492c-0.4119,-0.40055 -0.9071,-0.59441 -1.541,-0.59767c-0.55953,0.00204 -1.02954,0.15136 -1.4434,0.45313c-0.39624,0.2889 -0.6405,0.74323 -0.7207,1.41992l-0.03125,0.26172l-2.666,-0.50587l0.0332,-0.22461c0.10746,-0.73871 0.37877,-1.3954 0.81445,-1.95702h0.002c0.451,-0.57508 1.03176,-1.0277 1.7324,-1.34772c0.6941,-0.31699 1.45369,-0.47504 2.2637,-0.47853z" fill="#1c1c1c" fill-rule="nonzero" stroke-width="2.582"/></g></g></svg>