<svg xmlns="http://www.w3.org/2000/svg" viewBox="0 0 220 48" version="1.1" height="48" width="220">
 <g>
  <path stop-color="#000000" fill-rule="evenodd" fill="#e4e600" d="m10 0h200c5.54 0 10 4.46 10 10v28c0 5.54-4.46 10-10 10h-200c-5.54 0-10-4.46-10-10v-28c0-5.54 4.46-10 10-10z"></path>
  <g aria-label="バージョンが最新ではありません" fill="#191500">
   <path d="m9.187 19.8q1.1895-1.75 2.0439-4.2861 0.92969-2.7754 1.1758-5.6396l1.5654 0.32129q-0.6084 4.1973-1.6338 7.0547-0.73828 2.0781-1.8184 3.6436zm11.033 1.1621q-2.4746-4.1084-3.8213-10.78l1.4834-0.45801q1.1895 5.9609 3.6914 10.206zm-0.71777-9.4746q-0.39648-1.0869-1.3809-2.5225l1.0732-0.38965q0.78613 1.0801 1.415 2.4746zm1.9619-0.30762q-0.52637-1.3604-1.374-2.5498l1.0254-0.33496q0.81348 0.99805 1.3877 2.4063z"></path>
   <path d="m23.242 14.228h12.038v1.5381h-12.038z"></path>
   <path d="m42.006 12.212q-2.0166-0.90234-4.1152-1.5107l0.44434-1.3535q2.3652 0.58789 4.1494 1.4355zm-1.4014 3.5q-1.6816-0.73828-4.1152-1.5107l0.58789-1.3672q2.0918 0.55371 4.0605 1.4697zm-3.2334 3.7666q2.6455-0.21191 4.1973-0.75879 3.9922-1.415 5.0996-6.4189l1.4014 0.84082q-0.90918 3.835-3.3906 5.708-1.627 1.2305-4.0332 1.75-1.1553 0.25293-2.8369 0.41016zm8.6543-7.9092q-0.4375-1.0801-1.4014-2.4063l1.0801-0.38965q0.86816 1.1758 1.3945 2.3789zm2.0713-0.37598q-0.56738-1.3467-1.374-2.4336l1.0117-0.32812q0.81348 0.94336 1.3809 2.3105z"></path>
   <path d="m50.572 11.85h8.415v8.9893h-8.7363v-1.2988h7.2939v-2.707h-6.6924v-1.2852h6.6924v-2.3994h-6.9727z"></path>
   <path d="m66.493 12.69q-2.1602-0.96387-4.4912-1.5449l0.47852-1.4697q2.7002 0.61523 4.5322 1.5312zm-4.3203 6.8018q3.3838-0.28711 5.1816-1.21 2.1191-1.0938 3.2539-3.3564 0.73828-1.4629 1.1963-3.8281l1.3125 0.96387q-0.55371 2.5293-1.3398 4.0195-1.4219 2.7139-4.3477 3.9307-1.8457 0.76562-4.9355 1.0938z"></path>
   <path d="m74.457 11.61h3.0215q0.20508-1.0527 0.45801-2.6182l0.03418-0.19824 1.4971 0.22559q-0.23242 1.4492-0.47852 2.5908h0.82715q1.6406 0 2.3516 0.73828 0.63574 0.66309 0.63574 2.0645 0 2.3584-0.49902 4.4092-0.28711 1.1621-0.69726 1.7158-0.51953 0.69043-1.4424 0.69043-1.1074 0-2.4199-0.71094l0.1709-1.4424q1.2988 0.62207 2.0166 0.62207 0.37598 0 0.58106-0.40332 0.21875-0.4375 0.41699-1.2646 0.38965-1.6748 0.38965-3.5205 0-0.9707-0.38965-1.2578-0.33496-0.23926-1.1963-0.23926h-1.0527q-1.0869 4.8398-3.1172 8.2578l-1.374-0.75195q2.0986-3.5205 2.9941-7.5059h-2.7275zm11.354 6.7471q-0.77246-2.8438-2.4404-5.585l1.333-0.60156q1.7227 2.748 2.5771 5.5303zm-1.0117-6.5488q-0.42383-1.1074-1.3672-2.4609l1.0596-0.39648q0.82715 1.1689 1.3877 2.4268zm1.8389-0.58789q-0.5332-1.3193-1.3604-2.4814l1.0049-0.33496q0.78613 0.93652 1.374 2.3379z"></path>
   <path d="m99.941 8.8828v4.2861h-10.233v-4.2861zm-8.709 0.97754v0.7041h7.1846v-0.7041zm0 1.5996v0.7998h7.1846v-0.7998zm3.418 3.5957v5.7012q1.333-0.3623 2.4404-1.2441-1.0391-1.21-1.5723-2.6045h-0.58789v-1.0938h5.2773l0.66992 0.58789q-0.74512 1.8047-1.8662 3.0967 1.0049 0.65625 2.5156 1.1143l-0.84082 1.251q-1.5586-0.58789-2.625-1.4355-1.1689 0.96387-2.7412 1.5312l-0.66992-1.0049v0.93652h-1.415v-1.5244q-1.9414 0.38965-4.8057 0.69727l-0.37598-1.2578q0.90234-0.04785 1.5381-0.0957v-4.6553h-1.4287v-1.1348h13.303v1.1348zm-1.415 0h-2.2422v0.82715h2.2422zm0 1.7363h-2.2422v0.84082h2.2422zm0 1.7363h-2.2422v1.0459q0.58105-0.06152 0.875-0.0957 0.78613-0.08203 1.3672-0.15723zm4.7441 0.11621q0.62207-0.71777 1.1211-1.7363h-2.3174q0.42383 0.92285 1.1963 1.7363z"></path>
   <path d="m106.41 17.182q0.99122 0.54004 2.1943 1.5176l-0.7793 1.2715q-0.77246-0.86816-1.415-1.4287v3.3496h-1.4014v-3.6504q-0.92285 1.6953-2.1943 2.8369l-0.7998-1.292q1.5244-1.0801 2.5361-2.6865h-2.1602v-1.2031h2.6182v-1.333h-2.8848v-1.2578h1.4971q-0.17773-0.86816-0.49902-1.8936h-0.73145v-1.2715h2.5908v-1.5518h1.4561v1.5518h2.4814v1.2715h-0.73144q-0.25293 1.0254-0.62891 1.8936h1.5654v1.2578h-2.7139v1.333h2.4609v1.2031h-2.4609zm-1.9277-5.7695q0.25977 0.85449 0.45117 1.8936h1.3535q0.31445-0.88184 0.54004-1.8936zm6.4326 3.3223q7e-3 2.1191-0.32813 3.9307-0.34863 1.8799-1.2373 3.3633l-1.1279-1.0322q0.75879-1.2305 1.0391-3.0215 0.24609-1.5312 0.24609-3.9102v-4.2861q0.13672-0.013672 0.417-0.041016 2.1738-0.20508 4.3545-0.93652l0.89551 1.1895q-1.8184 0.61524-4.252 0.9502v2.3652h4.5869v1.4287h-1.5654v7.1572h-1.415v-7.1572z"></path>
   <path d="m116.61 10.25q6.2891-0.0957 11.888-0.32129l0.082 1.3604q-2.4678 0.12305-3.8418 0.75195-1.3125 0.60156-2.1055 1.668-0.90234 1.21-0.90234 2.6934 0 1.4766 1.0254 2.2148 1.1758 0.84082 3.6094 1.1553l-0.32129 1.5381q-3.1719-0.42383-4.4639-1.6406-1.3877-1.2988-1.3877-3.2266 0-1.75 1.2578-3.2676 0.91602-1.1143 2.5088-1.791-2.8232 0.0957-7.2803 0.32129zm9.9394 5.8994q-0.40332-1.0732-1.3604-2.4336l1.0664-0.39648q0.85449 1.1758 1.374 2.4062zm1.8457-0.71777q-0.48536-1.2578-1.3535-2.4473l1.0186-0.3623q0.79981 0.9707 1.3604 2.3516z"></path>
   <path d="m138.79 9.0947h1.4971v2.4746h2.7891v1.3604h-2.7891v4.1973q1.6201 0.74512 3.2061 2.0918l-0.76563 1.3535q-1.3398-1.1689-2.4541-1.8594-0.12305 1.6748-1.1894 2.2422-0.59473 0.31445-1.627 0.31445-1.1211 0-1.9482-0.40332-1.251-0.6084-1.251-2.0234 0-1.1143 0.9502-1.7705 0.86816-0.60156 2.2285-0.60156 0.62207 0 1.3535 0.15723v-3.6982h-4.3955v-1.3604h4.3955zm0 8.8594q-0.7998-0.25293-1.4219-0.25293-0.59473 0-1.0117 0.18457-0.65625 0.28027-0.65625 0.91602 0 0.51953 0.47851 0.81348 0.46485 0.28711 1.2441 0.28711 1.3672 0 1.3672-1.5381zm-7.4238 3.2881q-0.23926-2.2559-0.23926-4.7441 0-3.8828 0.51954-7.4033l1.5039 0.21875q-0.51269 3.0352-0.51269 6.5625 0 2.5908 0.25976 5.1338z"></path>
   <path d="m145.44 10.537h3.418q0.14355-1.1826 0.21875-1.6953l1.5176 0.15723-0.0205 0.10938-0.0479 0.35547-0.123 0.91602-0.0205 0.15723h5.6533v1.3467h-5.8106q-0.0205 0.23242-0.0889 0.99121l-0.0342 0.4375-0.0137 0.13672q0.82031-0.13672 1.6748-0.13672 2.3652 0 3.7529 1.1074 0.3623 0.29394 0.66309 0.73828 0.60156 0.88867 0.60156 2.0439 0 2.0576-1.6953 3.1377-1.1074 0.7041-3.0693 1.0596l-0.65625-1.2031q1.7978-0.29394 2.748-0.93652 1.1348-0.77246 1.1348-2.1328 0-0.88184-0.49219-1.5518-0.2871-0.39648-0.77246-0.64258-1.7021 2.9668-4.4639 4.8262-0.88868 0.60156-1.4902 0.7998-0.59472 0.19141-1.1621 0.19141-1.0459 0-1.5723-0.69727-0.4375-0.57422-0.4375-1.5723 0-1.7705 1.3398-3.124 0.99121-1.0049 2.3857-1.5449l0.0137-0.18457q0.082-1.1758 0.13671-1.7432h-3.2881zm3.0762 4.6621q-0.95703 0.5127-1.5312 1.2783-0.73145 0.97754-0.73145 1.9482 0 1.0801 0.7793 1.0801 0.6836 0 1.6816-0.73828-0.20508-1.374-0.20508-2.9121 0-0.21191 7e-3 -0.65625zm1.4697-0.51953q-0.0137 0.44434-0.0137 0.80664 0 1.1621 0.10254 2.1875 1.6543-1.5381 2.5293-3.1445-0.4375-0.05469-0.875-0.05469-0.90918 0-1.7432 0.20508z"></path>
   <path d="m163.45 14.857q-0.6836 1.2783-1.4014 1.9209-0.61523 0.55371-1.1279 0.55371-0.65625 0-1.0596-0.88867-0.41699-0.92969-0.41699-2.9121 0-1.9961 0.46484-4.3271l1.4971 0.22559q-0.45117 2.3105-0.45117 3.9102 0 2.1533 0.30762 2.1533 0.11621 0 0.39648-0.32812 0.4375-0.49219 0.92285-1.4492zm-1.0391 5.3525q2.0986-0.58789 3.165-1.7568 1.3057-1.4287 1.3057-4.3203 0-2.1943-0.42383-4.9287l1.5654-0.15039q0.45117 2.7617 0.45117 5.1475 0 3.8691-1.9893 5.5713-1.21 1.0391-3.2607 1.7227z"></path>
   <path d="m176.79 8.9101h1.5107v1.7227h4.2998v1.2988h-4.2998v1.627h4.0606v1.2852h-4.0606v2.1123q2.4336 0.82031 4.7988 2.4678l-0.80664 1.2988q-1.791-1.3398-3.9922-2.3652-0.0547 1.1689-0.45117 1.8115-0.69043 1.1143-2.7207 1.1143-1.5654 0-2.5156-0.58789-1.0596-0.65625-1.0596-1.7773 0-1.3398 1.4287-1.9824 0.95703-0.42383 2.4883-0.42383 0.60156 0 1.3193 0.0957v-1.7637h-4.8467v-1.2852h4.8467v-1.627h-5.1406v-1.2988h5.1406zm0 8.9687q-0.81348-0.1709-1.5586-0.1709-0.90918 0-1.4766 0.2666-0.67676 0.32129-0.67676 0.91602 0 0.49902 0.52637 0.80664 0.5332 0.31445 1.4219 0.31445 1.0527 0 1.4492-0.56055 0.31446-0.4375 0.31446-1.3057z"></path>
   <path d="m193.05 9.0332h1.5244v3.001h2.5156v1.374h-2.5156v2.5635q0 0.7998-0.2666 1.1279-0.32813 0.41016-1.1826 0.41016-1.1348 0-2.1943-0.37598v-1.3193q1.1142 0.30762 1.7158 0.30762 0.40332 0 0.40332-0.48535v-2.2285h-4.6416v5.3047q0 0.44434 0.15722 0.61524 0.1709 0.19824 0.74512 0.25976 0.88867 0.10254 2.4951 0.10254 1.8867 0 3.7871-0.16406v1.4424q-2.044 0.12305-4.0332 0.12305-2.96 0-3.7461-0.3418-0.94336-0.40332-0.94336-1.7432v-5.5986h-2.4609v-1.374h2.4609v-2.8711h1.5381v2.8711h4.6416z"></path>
   <path d="m197.89 20.613q2.6387-6.1113 5.6807-11.812l1.333 0.5332q-1.374 2.5225-3.2471 6.1455 1.292-1.4014 2.3857-1.4014 1.7227 0 1.7227 2.5977 0 0.19141-0.0137 0.47168-0.0273 0.59473-0.0273 0.93652 0 0.7998 0.0957 1.1348 0.21192 0.72461 1.0596 0.72461 0.82032 0 1.333-0.7998 0.76563-1.1895 1.2578-4.3682l1.3398 0.78613q-0.38965 2.5088-0.99121 3.8281-0.92969 2.0508-3.0078 2.0508-1.4355 0-2.0576-0.88867-0.49219-0.7041-0.49219-2.3516 0-0.14356 0.0137-0.4375 0.0274-0.57422 0.0274-0.81348 0-0.75195-0.13672-1.0869-0.15723-0.36914-0.54004-0.36914-0.64942 0-1.4629 0.79297-0.69727 0.68359-1.374 2.0029-0.49218 0.95703-1.4971 3.2471z"></path>
  </g>
  <g aria-label="再読み込みしてください" fill="#191500">
   <path d="m15.066 29.328v-1.2305h-5.5439v-1.2305h12.626v1.2305h-5.626v1.2305h4.3682v5.2432h1.5928v1.2578h-1.5928v2.3789q0 0.73144-0.41016 1.0186-0.32812 0.22559-1.0869 0.22559-0.86816 0-2.2422-0.08203l-0.2666-1.415q1.333 0.15039 2.1875 0.15039 0.2666 0 0.30762-0.10938 0.02734-0.07519 0.02734-0.23926v-1.9277h-7.1436v3.7803h-1.4834v-3.7803h-1.5928v-1.2578h1.5928v-5.2432zm0 1.1895h-2.8027v1.4014h2.8027zm1.4561 0v1.4014h2.8848v-1.4014zm-1.4561 2.5225h-2.8027v1.5312h2.8027zm1.4561 0v1.5312h2.8848v-1.5312z"></path>
   <path d="m28.218 34.899v3.5889q1.3672-0.48535 1.8594-1.5518 0.38281-0.82031 0.41016-3.1377h1.374q-0.02051 2.7002-0.56055 3.7598-0.73145 1.4219-2.4951 2.1465l-0.58789-0.80664v0.0068h-3.2676v0.7041h-1.3467v-4.71zm-3.2676 1.1758v1.668h1.9209v-1.668zm6.7197-8.5107v-1.2441h1.3877v1.2441h3.3291v1.2031h-3.3291v0.9707h2.9395v1.1758h-7.0957v-1.1758h2.7686v-0.9707h-3.2471v-1.2031zm4.6621 4.2861v2.8711h-1.374v-1.709h-4.9492v1.8184h-1.333v-2.9805zm-12.503-5.0381h4.1289v1.1484h-4.1289zm-0.64258 2.0029h5.332v1.2305h-5.332zm0.64258 2.0986h4.1289v1.1348h-4.1289zm0 2.0029h4.1289v1.1074h-4.1289zm8.8594 0.85449h1.3193v4.0537q0 0.19141 0.0957 0.23242 0.15723 0.06836 0.35547 0.06836 0.45117 0 0.58789-0.12988 0.18457-0.16406 0.25977-1.832l1.2373 0.43066q-0.06152 1.832-0.38965 2.3242-0.20508 0.30762-0.65625 0.41699-0.38965 0.08887-1.0391 0.08887-1.1279 0-1.4561-0.23242-0.31445-0.22559-0.31445-0.83398z"></path>
   <path d="m38.93 27.284h5.3457l0.95703 0.81348q-0.67676 2.3721-1.1211 3.5684 1.7021 0.28711 3.1377 0.92969 0.08203-0.88184 0.08203-1.7295 0-0.45117-0.02734-1.0596l1.4971 0.15723q-0.0068 1.9551-0.15723 3.2881 0.84766 0.4375 1.7773 1.0322l-0.58789 1.4561q-0.65625-0.47852-1.4219-0.9502-0.52637 2.0303-1.6816 3.1582-0.82031 0.80664-2.2422 1.4219l-0.85449-1.1484q1.6748-0.71777 2.4746-1.832 0.62891-0.88867 0.92969-2.3242-1.6748-0.84082-3.3906-1.1348-1.1143 3.0488-2.2354 4.6211-0.85449 1.1895-1.9209 1.1895-1.0322 0-1.5996-0.98438-0.43066-0.75195-0.43066-1.791 0-1.2852 0.66309-2.2969 0.78613-1.2031 2.4199-1.7568 0.94336-0.31445 2.1123-0.3418 0.62891-1.6406 0.96387-2.9395h-4.6895zm3.2334 5.5918q-0.88184 0.04785-1.5107 0.33496-0.98438 0.4375-1.4492 1.3398-0.32812 0.63574-0.32812 1.3535 0 0.57422 0.22559 0.99805 0.1709 0.33496 0.41016 0.33496 0.95703 0 2.6523-4.3613z"></path>
   <path d="m60.778 27.079v0.88184q0 2.3652 1.1074 4.6074 0.91602 1.8457 2.4746 3.2061l-0.96387 1.3604q-1.2646-1.1211-2.29-2.9395-0.7793-1.374-1.1279-2.5566-0.31445 1.4014-0.81348 2.3242-1.0322 1.9209-2.5703 3.1309l-1.0254-1.2646q3.1992-2.2422 3.6504-7.417h-2.8232v-1.333zm-5.9404 9.2559q0.59473 0.69043 1.1963 0.95703 1.1074 0.50586 2.9736 0.50586h5.6123q-0.29394 0.62207-0.45801 1.4561h-5.1406q-2.3652 0-3.6777-0.74512-0.56055-0.31445-1.1758-1.0596-1.1416 1.3604-2.1396 2.1533l-0.86816-1.4697q1.1553-0.7041 2.1807-1.627v-3.1377h-2.0713v-1.3467h3.5684zm-0.75195-6.1523q-0.92969-1.2852-2.3379-2.6455l1.1348-0.92285q1.2373 0.99805 2.4336 2.4951z"></path>
   <path d="m66.93 27.284h5.3457l0.95703 0.81348q-0.67676 2.3721-1.1211 3.5684 1.7021 0.28711 3.1377 0.92969 0.08203-0.88184 0.08203-1.7295 0-0.45117-0.02734-1.0596l1.4971 0.15723q-0.0068 1.9551-0.15723 3.2881 0.84766 0.4375 1.7773 1.0322l-0.58789 1.4561q-0.65625-0.47852-1.4219-0.9502-0.52637 2.0303-1.6816 3.1582-0.82031 0.80664-2.2422 1.4219l-0.85449-1.1484q1.6748-0.71777 2.4746-1.832 0.62891-0.88867 0.92969-2.3242-1.6748-0.84082-3.3906-1.1348-1.1143 3.0488-2.2354 4.6211-0.85449 1.1895-1.9209 1.1895-1.0322 0-1.5996-0.98438-0.43066-0.75195-0.43066-1.791 0-1.2852 0.66309-2.2969 0.78613-1.2031 2.4199-1.7568 0.94336-0.31445 2.1123-0.3418 0.62891-1.6406 0.96387-2.9395h-4.6895zm3.2334 5.5918q-0.88184 0.04785-1.5107 0.33496-0.98438 0.4375-1.4492 1.3398-0.32812 0.63574-0.32812 1.3535 0 0.57422 0.22559 0.99805 0.1709 0.33496 0.41016 0.33496 0.95703 0 2.6523-4.3613z"></path>
   <path d="m80.534 26.881h1.6133v8.1484q0 2.5771 2.707 2.5771 1.7842 0 2.9258-1.6475 0.73828-1.0596 1.3262-3.2812l1.3877 0.84082q-0.69726 2.4678-1.6748 3.6914-1.5381 1.9072-3.999 1.9072-2.5703 0-3.623-1.5859-0.66309-0.99121-0.66309-2.5566z"></path>
   <path d="m91.833 27.968q6.2891-0.0957 11.888-0.32129l0.082 1.3604q-2.4678 0.12305-3.8418 0.75195-1.3125 0.60156-2.1055 1.668-0.90234 1.21-0.90234 2.6934 0 1.4766 1.0254 2.2148 1.1758 0.84082 3.6094 1.1553l-0.32129 1.5381q-3.1719-0.42383-4.4639-1.6406-1.3877-1.2988-1.3877-3.2266 0-1.75 1.2578-3.2676 0.91602-1.1143 2.5088-1.791-2.8232 0.0957-7.2803 0.32129z"></path>
   <path d="m114.97 39.268q-3.0898-2.4062-8.0938-5.373-0.92285-0.54004-0.92285-1.1348 0-0.42383 0.40332-0.7998 0.1709-0.16406 0.86133-0.54688 2.5225-1.4014 5.4414-3.3428 1.1006-0.72461 2.0029-1.4014l0.89551 1.1758q-3.5205 2.4951-7.2256 4.5527-0.3623 0.20508-0.3623 0.3418 0 0.10938 0.19824 0.24609 0.0547 0.04102 0.63574 0.38281 4.6895 2.7686 7.0615 4.5322z"></path>
   <path d="m117.97 28.74h3.1924q0.19141-0.84766 0.43067-2.1943l1.5449 0.19141q-0.20508 1.0596-0.4375 2.0029h3.6846v1.3604h-4.0059q-1.3672 5.4619-3.0215 9.0576l-1.5108-0.5332q1.7979-3.9854 2.9941-8.5244h-2.8711zm12.1 10.056q-1.1074 0.14355-2.4883 0.14355-2.2354 0-3.377-0.38281-0.4375-0.15039-0.74512-0.42383-0.60156-0.54688-0.60156-1.3945 0-0.86816 0.56054-1.5312l1.2168 0.71777q-0.21191 0.2666-0.21191 0.58789 0 0.55371 0.50586 0.71777 0.77246 0.24609 2.2012 0.24609 1.3877 0 2.7686-0.20508zm-6.4121-6.7744q2.6797-0.30762 5.8652-0.32812l0.0684 1.3877q-3.124 0.01367-5.7354 0.29394zm4.3818-2.5908q-0.37598-1.0459-1.3604-2.4814l1.0664-0.38965q0.86817 1.2373 1.374 2.4336zm1.9346-0.45117q-0.49219-1.2852-1.3467-2.4746l1.0049-0.36914q0.7793 0.96387 1.374 2.3516z"></path>
   <path d="m131.92 29.007h5.4893q-0.44433-1.1689-0.81348-2.3242l1.4971-0.0957q0.35546 1.2168 0.85449 2.4199h5.0518v1.4014h-4.4092q0.88183 1.8252 2.208 3.8076l-1.4355 0.68359q-1.4629-2.2148-2.3994-4.4912h-6.043zm9.9395 10.083q-1.3604 0.0752-2.4062 0.0752-2.8438 0-4.1904-0.44434-2.4336-0.79297-2.4336-2.9941 0-1.3535 0.84082-2.1807l1.2852 0.69726q-0.56055 0.55371-0.56055 1.4492 0 1.1416 1.2305 1.5996 1.0869 0.40332 3.6367 0.40332 1.0801 0 2.4336-0.10254z"></path>
   <path d="m152.15 35.234q-1.2646 3.7188-2.8369 3.7188-1.1211 0-1.9209-1.5723-0.61523-1.2168-0.84766-2.6797-0.28027-1.7773-0.28027-4.5664 0-1.21 0.0889-2.5977l1.6064 0.12305q-0.0889 1.3877-0.0889 2.6387 0 4.3887 0.82031 6.1182 0.33496 0.71094 0.6289 0.71094 0.19141 0 0.47852-0.4375 0.58789-0.88867 1.1348-2.4473zm4.3272 1.627q-0.34863-2.8848-0.85449-4.6621-0.61524-2.1533-1.4287-3.9443l1.456-0.35547q1.1279 2.2354 1.6748 4.3066 0.45117 1.6816 0.74511 4.2793z"></path>
  </g>
 </g>
</svg>
