<svg version="1.1" xmlns="http://www.w3.org/2000/svg" xmlns:xlink="http://www.w3.org/1999/xlink" width="68.77728" height="62.54748" viewBox="0,0,68.77728,62.54748"><g transform="translate(-307.43883,-258.62418)"><g data-paper-data="{&quot;isPaintingLayer&quot;:true}" fill="#ff0000" fill-rule="evenodd" stroke="none" stroke-width="0" stroke-linecap="round" stroke-linejoin="round" stroke-miterlimit="10" stroke-dasharray="" stroke-dashoffset="0" style="mix-blend-mode: normal"><path d="M376.21605,270.53372l-1.02996,2.3899l-1.42994,4.11984l-0.75997,2.84989l-0.61998,3.90984l-0.27999,4.64981l-0.65997,4.15983l0.02,4.22983l0.77997,6.37974l0.81997,2.5799l-3.00988,-0.17999l-0.29999,-0.67997l-2.78989,0.82997l-1.38994,0.69997l-0.16999,2.07992l0.60998,0.92996l-0.20999,1.37994l-0.80997,0.88996l0.53998,2.6099l-0.22999,0.91996l0.44998,0.87996l-0.02,1.45994l-0.61998,0.94996l-2.12991,0.07l-0.67997,-0.49998l-1.27995,0.38998l-3.57986,-1.34995l-0.24999,1.12995l2.19991,1.92992l-0.70997,0.92996l-1.21995,-0.88996l-3.71985,-0.67997l-1.09996,0.71997l-0.39998,-1.38994l-1.14995,-1.02996l-1.70993,-0.32999l-1.48994,-4.24983l0.73997,-0.68997l0.59998,-1.86993l-1.00996,-2.15991l0.80997,-1.20995l-0.23999,-0.69997l-2.14991,-0.74997l-0.69997,-0.73997l-1.52994,0.68997l-1.73993,-0.45998l-1.15995,-1.98992l-1.98992,1.08996l-1.14995,-0.33999l-1.78993,-1.75993l-0.33999,1.43994l-2.6099,0.47998l-1.50994,-0.14999l-0.59998,0.66997l-1.35995,-0.12999l-1.38994,0.62997l-1.15995,-0.92996l-0.71997,-1.38994l-0.19999,-2.5299l0.73997,-1.12995l-1.33995,-0.73997l-1.36995,0.18999l-0.30999,-0.73997l-1.05996,0.39998l-2.4899,-1.25995l-0.16999,-1.25995l-0.88996,-0.1l-1.29995,1.20995v1.41994l-3.04988,-0.52998l-0.64997,0.97996l-1.97992,-1.02996l-1.21995,0.02l-1.42994,-1.38994l-1.06996,-0.15999l-1.15995,-0.79997l-0.49998,-0.91996l0.18999,-1.30995l1.25995,-1.63993l-1.28995,-2.71989l-0.07,-0.93996l0.59998,-1.03996l-0.47998,-1.51994l1.19995,-0.40998l1.53994,0.67997l1.04996,-0.55998l2.95988,0.63997l1.09996,-0.64997l1.93992,0.12999l0.73997,-0.87996l1.41994,-0.62997l2.10992,-1.39994l0.29999,-0.61998l-0.32999,-2.23991l1.35995,-3.04988l1.46994,-0.37998l-0.29999,-1.15995l0.92996,-1.52994l1.56994,-0.75997l0.18999,-1.72993l1.05996,-1.46994l-0.28999,-2.36991l-0.63997,-1.74993l0.33999,-1.26995l-0.49998,-0.48998l-0.01,-1.84993l0.32999,-1.18995l0.86997,-0.37998l2.03992,-0.03l0.59998,-0.48998l4.06984,-0.25999l1.42994,-0.78997l2.25991,0.55998l2.26991,-0.25999l1.36995,0.83997l0.84997,0.05l1.98992,1.18995l0.07,1.07996l1.60994,0.09l1.62993,1.73993l1.91992,0.76997l1.99992,0.42998l1.33995,0.74997l0.61998,1.38994l0.17999,2.14991l1.29995,0.77997l1.97992,-0.34999l1.13995,0.54998l2.5399,-1.53994l-1.52994,-0.93996l-0.99996,-0.97996l-0.40998,-1.52994l1.37994,-0.48998l0.85997,0.95996l1.06996,-1.01996l0.96996,0.22999l1.80993,1.21995l1.84993,0.67997l-0.36999,0.88996l0.73997,0.91996l3.29987,-0.23999l1.66993,0.74997l1.82993,0.11l0.64997,-0.30999l2.12991,1.43994"/></g></g></svg>