<svg version="1.1" xmlns="http://www.w3.org/2000/svg" xmlns:xlink="http://www.w3.org/1999/xlink" width="53.5479" height="91.20333" viewBox="0,0,53.5479,91.20333"><g transform="translate(-48.24088,-153.27123)"><g data-paper-data="{&quot;isPaintingLayer&quot;:true}" fill="#ff0000" fill-rule="evenodd" stroke="none" stroke-width="0" stroke-linecap="round" stroke-linejoin="round" stroke-miterlimit="10" stroke-dasharray="" stroke-dashoffset="0" style="mix-blend-mode: normal"><path d="M92.50915,171.2815l-1.08995,1.30895l0.81997,1.78193l1.08995,1.44295l1.15996,0.88196l1.43994,2.54589l2.93988,0.89597l1.13995,-0.52898l0.76997,1.47194l-1.36995,0.16599l-0.66997,0.71997l-0.37998,2.18191l-0.84997,0.78297l0.29999,0.75397l-0.42999,2.12291l0.18,1.76393l1.02996,2.65189l-0.01,0.75797l-1.30995,1.50994l0.81997,1.14195l-0.83997,0.87696l0.65997,2.95888l0.83997,0.22899l1.45995,1.44594l0.59997,1.59693l-0.16999,1.16496l1.14995,0.93096l-1.43994,1.59394l0.24999,4.32282l-0.67997,1.25995l-0.73997,-0.25999l-0.76997,1.10996l0.57998,0.70997l-1.41995,1.95992l0.69997,1.05996l-1.61993,1.37995l0.04,0.66998l1.15995,0.87996l0.93996,2.00992l-0.1,1.33995l0.52998,0.75997l0.09999,3.17987l-1.34994,1.10996l-1.31995,-0.62998l-1.72993,2.16991l-2.08992,0.79997l-1.13995,-0.39999l-1.18995,1.19995l-1.38995,-0.52997l-2.03992,-0.06l-1.80993,1.79993l-0.71997,-0.04l-1.94992,1.01996l-0.94996,2.4899l-0.64997,0.78997l0.18999,1.41994l-1.29994,1.96992l-1.39995,0.84997l-0.97996,0.03l-0.34999,-0.89996l-1.12995,-0.81997l-1.82993,1.26995l-1.65994,-1.28995l-1.15995,1.17996l-0.90996,-0.32999l-2.21991,0.77997l-1.57994,-1.45994l-0.32999,-0.89997l-1.54994,-0.65997l-1.00996,0.28999l0.53997,2.34991l-2.2899,3.66985l-2.07992,-0.55998l-2.11991,1.04996l-1.47994,-0.94996l0.84996,-1.22995l-0.04,-1.22995l-2.03992,-1.29994l-0.17999,-1.17996l-0.91996,-0.87996l0.04999,-1.01996l-2.3099,-0.41998l-0.50998,-1.66994l0.94996,-1.32995l-0.32999,-2.07992l1.13995,-2.91988l0.45998,-1.73993l2.73989,-1.42995l0.69997,-0.81996l-0.96997,-2.05992l-2.61989,-0.58997l-2.6299,-2.21991l-0.49998,-2.31991l-1.33995,-1.16995l0.13999,-0.94997l-0.73997,-0.81996l0.14999,-1.61994l0.82997,-0.58997l0.13999,-1.41994l0.78997,-0.49998l-0.92996,-2.11592l0.21999,-1.21995l0.73997,-0.91096l0.64997,-1.74393l0.1,-1.23495l1.34995,-1.26895l-0.02,-2.12691l-0.50998,-1.64693l0.13999,-1.84593l-0.18,-1.97592l1.04996,-3.62086l-0.27999,-1.30095l-1.33995,-1.19995l0.84996,-3.36687l1.57993,-1.10095l-0.69997,-1.80593l0.27999,-1.06295l1.24995,-1.20996l0.76997,-0.07899l1.80993,-1.44494l1.96992,-0.98197l-0.86996,-0.95696l-0.07,-1.01496l1.00996,-1.27595l0.60998,-2.4749l0.92996,-0.62098l0.13,-1.60793l-0.63997,-0.68197l-0.11,-2.36291l-0.35998,-1.14095l1.94993,-0.71198l0.48998,0.41799l1.72993,-0.75397l-0.07,-3.52086l0.41998,-0.58497l-0.13999,-1.94492l0.17,-2.79489l0.73997,-0.32099l0.68997,0.92197l0.79997,-0.144l1.22995,-1.90592l0.47998,1.34994l1.77993,1.93492l1.04996,1.72493l1.14995,0.74097l2.7199,0.57698l1.52994,-1.28595l1.41994,0.32099l0.73997,0.76396l1.49994,-0.52798l0.96996,-0.81397l0.81997,0.38398l1.82993,1.80893l-0.65997,0.52098l0.39999,1.43095l1.79993,2.36991l2.4999,1.10296l2.3599,3.16087l1.56994,1.25095l0.95996,1.19595"/></g></g></svg>