<svg version="1.1" xmlns="http://www.w3.org/2000/svg" xmlns:xlink="http://www.w3.org/1999/xlink" width="118.23525" height="101.01495" viewBox="0,0,118.23525,101.01495"><g transform="translate(-92.60916,-194.41754)"><g data-paper-data="{&quot;isPaintingLayer&quot;:true}" fill="#ff0000" fill-rule="evenodd" stroke="none" stroke-width="0" stroke-linecap="round" stroke-linejoin="round" stroke-miterlimit="10" stroke-dasharray="" stroke-dashoffset="0" style="mix-blend-mode: normal"><path d="M202.90473,202.16026l-1.28995,0.88896l0.01,1.24795l-0.97996,2.5219l0.72997,0.65797l-0.64997,3.06888l-0.76997,0.51998l-0.73997,1.34994l0.27999,4.8198l-1.30995,1.34995l-0.23999,1.89992l-1.46994,0.31999l-1.50994,1.92992v1.42994l-0.73997,3.96984l1.30994,1.81993l0.77997,-0.78996l0.96996,0.58998l1.71993,1.90992l-0.03,0.92996l1.59994,1.45994l-0.02,1.49994l-0.43998,0.86996l0.24999,1.84993l0.65997,0.93996l0.02,1.25995l1.11996,1.41994l-0.52998,0.88997l1.12995,0.62997l1.89992,1.72993l1.20995,0.47998l1.87993,1.63994l1.06996,1.53993l2.01992,1.33995l-2.02992,1.86992l-2.91988,3.34987l-2.37991,2.08991l-3.55986,3.54986l-6.07976,5.81977l-2.74989,2.90988l-4.03984,3.87984l-5.40978,6.20975l-5.33979,6.89972l-0.20999,-1.22996l-0.52998,-0.97996l0.93996,1.30995l2.31991,-2.91989l-0.70997,-2.11991l-1.43994,0.53998l-0.09,0.91996l0.97996,1.21995l-0.61997,0.96996l-1.52994,-0.20999l-0.43998,-0.81997l-1.65994,-1.78992l0.35998,-0.52998l-1.84992,-0.92997l0.46998,-1.73993l-0.94996,-0.65997l-0.67998,0.93997l-2.31991,-2.03992l-1.12995,-2.3299l-1.96992,-1.66993l-1.66994,2.13991l-0.83996,0.39999l0.22999,1.24995l-1.77993,-0.14l-0.88996,1.70993l0.70997,1.68993l-0.78997,2.03992l0.76997,1.16995l-0.07,1.00996l1.65993,0.70997l0.79997,-0.60998l0.83997,0.46998l0.88996,1.81993l-0.02,1.99992l4.05984,4.62982l-4.65981,1.40994l-2.79989,1.07996l-0.85997,-2.84989l-3.06987,-1.44995l-3.95985,1.70994l-3.55985,-1.88993l-3.96984,-1.33995l0.63997,-1.19995l-1.15995,-0.62998l3.75985,-1.89992l1.73993,-1.21995l2.16991,-0.53998l0.88997,-4.51981l-0.18999,-0.68998l-3.29987,-0.43998l-0.78997,-1.05996l1.57994,-6.27975l0.23999,-2.73989l0.50998,-1.40994l-3.62986,-0.93996l-0.82996,3.23987l-3.24987,-0.82997v0.74997l-1.65993,0.38998l-0.16,-0.71997l0.74997,-2.68989l-3.81984,-1.09996l-0.90996,0.18999l-0.98996,1.38994l-2.03992,-1.22995l-0.34999,0.60998l-1.33995,-0.78997l-0.42999,1.31995l-1.58993,1.42995l-0.95996,1.25994l0.93996,1.13996l-2.66989,4.53982l-1.00996,0.64997l-0.54998,1.22995l-0.82996,-0.03l-0.02,1.24995l-1.04996,0.47998l-0.91996,-0.23999l-2.02992,1.37994l-1.63993,0.13l-1.26995,0.72997l-0.83997,-0.48998l-2.09992,0.06l-1.32995,-0.62998l-1.85992,1.62994l-2.19991,-2.29991l-0.83997,-0.07l-1.08996,-1.18995l0.50998,-1.79993l-0.08999,-2.74989l0.67998,-1.21995l-1.28995,-1.58994l-2.96988,1.10996l-0.82997,-0.64997l-2.68989,-0.29998l-2.85988,1.36994l-0.80997,-0.93996l0.22999,-1.55993l-0.25998,-2.6799l-0.64998,-0.37998l-1.49994,0.46999l-0.93996,-1.55994l-0.95996,-0.72997l-2.00992,-0.06l-0.81996,-1.54994l1.08995,-2.3899l2.19991,-1.11996l-0.33998,-1.05996l0.51998,-1.12995l-0.13999,-1.68993l0.90996,-2.06991l0.27999,-2.21992l1.15995,-1.55993l1.29995,-0.61998l1.54994,0.08999l1.55994,-1.65993l-0.23999,-0.76997l-1.40994,-0.45999l-0.83997,-2.79988l-0.67998,-0.67998l1.47994,-2.87989l0.70997,-0.91996l-0.55998,-1.47994l-1.28995,-0.81997l-0.98996,-3.04988l0.52998,-1.41994l0.70997,-0.33999l0.13999,-1.60994l-1.84992,-1.14995l-0.39999,-0.97996l1.34995,-1.10996l2.13991,-0.27999l1.25995,-0.66998l0.74997,-0.93996l1.79993,-1.13995l0.94996,0.13999l1.59993,-0.44999l1.27995,0.19l0.01,-1.01996l0.88997,-1.36994l-0.52998,-1.08995l3.97984,-1.18996l-0.91996,-2.3999l3.32986,-0.72997l-0.26999,-3.45986l1.11996,-0.18l0.38999,2.01992l1.44994,1.72993l0.01,0.65998l2.13992,2.6599l1.95992,1.39994l3.40986,3.26987l4.01984,2.41991l0.80997,0.71997l-0.66998,-7.01972l-2.27991,-1.13995l3.40986,-13.13947l7.5697,1.93092l-2.00992,-1.89992l-1.27994,-2.10291l0.41998,-2.27291l-0.59997,-0.87496l0.14999,-1.08996l-0.92997,-1.59494l-0.83996,-2.3169l0.32998,-1.16696l4.62982,1.12796l11.09956,2.90588l-0.43998,0.84497l10.81957,1.78393l1.16995,0.33299l-0.25999,1.23195l1.87992,0.26999l0.67997,-1.57394l-0.38998,-1.15195l1.10995,-0.72098l-0.54998,-0.95396l0.26999,-1.84692l0.78997,-1.56894l6.59973,0.60998l1.25995,0.63697l1.27994,-0.06799l1.41995,0.88996l1.75993,-0.44698l1.22995,1.03696l1.66994,2.4409l0.79996,2.28591l0.94997,-0.40498l0.01,-1.22796l7.87968,-5.0768l0.68997,1.17596l1.96992,1.44394l1.02996,0.20299l0.68997,1.45094l2.16992,1.17395l1.52994,-1.25695l3.30987,-0.30398l0.85996,0.96596l1.05996,0.086l-0.27999,1.44694"/></g></g></svg>