<svg version="1.1" xmlns="http://www.w3.org/2000/svg" xmlns:xlink="http://www.w3.org/1999/xlink" width="208" height="32" viewBox="0,0,208,32"><g transform="translate(-240,-164)"><g data-paper-data="{&quot;isPaintingLayer&quot;:true}" fill-rule="nonzero" stroke="none" stroke-linecap="butt" stroke-linejoin="miter" stroke-miterlimit="10" stroke-dasharray="" stroke-dashoffset="0" style="mix-blend-mode: normal"><path d="M240,196v-32h208v32z" fill="none" stroke-width="0"/><path d="M248.8,175.92v-5.2441h2.2559v5.2441h7.207v2.0215h-7.207v8.2129h8.4473v2.041h-19.004v-2.041h8.3008v-8.2129h-7.0606v-2.0215z" fill="#ffffff" stroke-width="1"/><path d="M264.81,184.03c1.2044,-1.30207 2.31117,-3.03383 3.3203,-5.1953c0.41015,-0.87893 0.79425,-1.97267 1.1523,-3.2812h-3.3301v-1.9434h3.7891c0.25391,-1.23047 0.44271,-2.3047 0.56641,-3.2227l2.1289,0.32227c-0.13021,0.89847 -0.30274,1.86527 -0.51758,2.9004h7.2559v1.9434h-7.7148l-0.0684,0.24414c-0.38411,1.4388 -0.82681,2.73763 -1.3281,3.8965h8.3106v1.8359h-4.1211v5.2441h5.2344v1.9434h-12.939v-1.9434h5.5469v-5.2441h-2.9297c-0.931,1.69273 -1.94987,3.1055 -3.0566,4.2383l-1.2988,-1.5625v5.332h-2.0801v-10.059c-0.43619,0.7552 -0.96353,1.56573 -1.582,2.4316l-0.97656,-2.1777c1.05467,-1.47787 1.9596,-3.21613 2.7148,-5.2148c0.42969,-1.1328 0.87893,-2.52277 1.3477,-4.1699l2.0801,0.51758c-0.47526,1.6406 -0.97656,3.09893 -1.5039,4.375z" fill="#ffffff" stroke-width="1"/><path d="M295.09,173.8v3.7793c0,0.42969 -0.09115,0.74545 -0.27344,0.94727c-0.21484,0.23437 -0.69011,0.35156 -1.4258,0.35156c-0.70313,0 -1.2793,-0.03906 -1.7285,-0.11718l-0.25391,-1.6211c0.51432,0.10417 0.94725,0.15625 1.2988,0.15625c0.1888,0 0.30924,-0.04557 0.36133,-0.13672c0.03907,-0.07812 0.0586,-0.20507 0.0586,-0.38086v-2.9785h-1.7383c-0.05207,1.37367 -0.23436,2.42837 -0.54688,3.1641c-0.34505,0.8008 -1.05795,1.53323 -2.1387,2.1973l-1.3965,-1.2402c0.97653,-0.50781 1.6048,-1.16211 1.8848,-1.9629c0.16927,-0.5013 0.27344,-1.2207 0.3125,-2.1582h-3.8574v-1.6602h5.5566v-1.6406h2.1484v1.6406h6.1328v1.6602zM298.1076,179.3371v3.9648h-9.6387c-0.05207,0.35807 -0.11392,0.71614 -0.18555,1.0742h10.664c-0.16276,1.7904 -0.38737,3.0176 -0.67383,3.6816c-0.41667,0.96353 -1.39323,1.4453 -2.9297,1.4453c-1.27607,0 -2.6465,-0.05534 -4.1113,-0.16601l-0.36133,-1.7774c1.39973,0.14974 2.653,0.22461 3.7598,0.22461c0.59895,0 0.99282,-0.06836 1.1816,-0.20508c0.29297,-0.21484 0.52083,-0.77474 0.68359,-1.6797h-8.5938c-0.07161,0.26693 -0.19531,0.66733 -0.37109,1.2012l-2.0996,-0.41992c0.49479,-1.4844 0.86589,-3.08923 1.1133,-4.8145h9.4238v-1.0449h-10v-1.4844zM283.7426,175.0207c-0.72267,-1.0026 -1.64713,-1.99543 -2.7734,-2.9785l1.4551,-1.3867c1.02213,0.74867 1.98243,1.70243 2.8809,2.8613zM283.1469,180.0598c-1.0026,-1.26953 -1.9759,-2.3047 -2.9199,-3.1055l1.4648,-1.416c0.97653,0.74867 1.9824,1.71547 3.0176,2.9004zM280.6274,187.9602c1.14587,-1.78387 2.2331,-4.07227 3.2617,-6.8652l1.6016,1.1816c-0.85287,2.58467 -1.875,5.00003 -3.0664,7.2461zM298.0294,178.595c-0.85287,-1.3802 -1.74803,-2.5716 -2.6855,-3.5742l1.4844,-0.95703c1.14587,1.04167 2.0736,2.181 2.7832,3.418zM284.3674,177.4231c0.95053,-0.78127 1.7318,-1.81643 2.3438,-3.1055l1.7774,0.66406c-0.63802,1.4518 -1.52019,2.66273 -2.6465,3.6328z" fill="#ffffff" stroke-width="1"/></g></g></svg>