<svg version="1.1" xmlns="http://www.w3.org/2000/svg" xmlns:xlink="http://www.w3.org/1999/xlink" width="47.60808" height="131.3247" viewBox="0,0,47.60808,131.3247"><g transform="translate(-336.46766,-304.87234)"><g data-paper-data="{&quot;isPaintingLayer&quot;:true}" fill="#ff0000" fill-rule="evenodd" stroke="none" stroke-width="0" stroke-linecap="round" stroke-linejoin="round" stroke-miterlimit="10" stroke-dasharray="" stroke-dashoffset="0" style="mix-blend-mode: normal"><path d="M373.21617,307.83223l0.68997,2.02992l0.90996,1.05996l0.36999,1.54994l0.65997,1.27995l2.62989,1.12995l0.22999,5.82977l0.34999,1.37994l1.63993,2.15991l0.32999,1.37994l0.08,3.53986l-0.11,2.70989l0.36999,1.91992l0.58998,0.64997l-0.13999,1.65993l0.53998,2.13991l-0.23999,2.24991l0.51998,2.34991l-0.23999,2.21991l0.12999,2.98988l0.40998,4.11984l0.79997,3.19987l0.33999,2.5399l-0.51998,1.52994l0.12999,2.91988l-0.35999,2.15991l-0.11,3.14987l0.18999,1.23995l0.02,3.50986l-0.36999,2.85989l-0.42998,0.77997l-0.20999,1.78993l0.27999,0.72997l-0.39998,1.47994l0.03,1.34995l-0.79997,3.14987l-0.38998,2.5299l0.03,1.29995l0.79997,0.79997l-0.85997,0.67997l-0.62997,2.15991l-0.47998,2.67989l-0.06,4.41982l0.20999,0.54998l-0.39998,2.09992l0.06,2.93988l-0.94996,1.13995l-0.61998,1.38994l-0.57998,2.4599l-0.41998,2.88988l-0.08,3.23987l0.72997,1.56994l0.16999,1.71993l-1.33995,1.49994l0.12,1.33995l-0.95996,0.69997l-1.05996,1.37994l-1.23995,0.52998l-1.11996,1.39994l-1.80993,-0.53998l-1.54994,0.99996l-1.16995,1.20995l-0.90996,-0.01l-1.73993,0.94996l-1.19995,1.25995l-1.29995,-0.29999l-1.54994,0.81997l-1.43994,1.77993l-0.92996,2.3999l0.36999,1.63993l-1.62993,-0.98996l-1.03996,0.72997l-1.11996,-0.99996l-1.50994,-0.75997l-2.63989,0.34999l-1.18995,-1.33995l-1.84993,-0.88996l-3.62985,-1.29995l-1.00996,0.42998l-2.25991,-0.85997l-1.66993,-2.5699l-1.18995,-2.5399l-0.38998,-2.5399l-1.20995,-1.18995l-0.41998,-1.32995l0.64997,-0.69997l2.69989,-1.73993l0.73997,-1.18995l0.73997,0.18999l0.65997,-0.86997l-0.02,-1.78993l0.35999,-1.62993l0.95996,-1.01996l0.90996,-0.13999l-0.23999,-1.52994l1.75993,-0.94996l-0.50998,-1.08996l1.12995,-0.74997l-0.23999,-1.24995l-1.10996,-2.34991l-0.94996,-0.89996l0.14999,-0.78997l-1.52994,-1.82993l-1.55994,-0.76997l-0.21999,-1.95992l-0.85997,-1.15995l0.67997,-1.14995l-0.09,-1.98992l1.05996,0.04l0.98996,-1.01996l1.97992,-0.73997l0.23999,-0.57998l1.27995,-0.74997l0.52998,0.33999l1.49994,-1.11996l0.25999,-1.26995l-0.24999,-1.09996l0.26999,-1.88992l0.82997,-1.17995l-0.18999,-0.85997l0.27999,-1.76993l-0.45998,-0.18999l0.53998,-1.85993l1.12995,0.01l1.26995,-1.16995l-0.09,-1.25995l-1.14995,-1.50994l-0.60998,-1.37994l0.36999,-1.26995l-0.48998,-0.89996l1.59994,-1.85993l-0.09,-1.00996l1.34995,-0.91996l1.20995,0.44998l0.22999,0.92996l1.24995,0.09l0.87996,1.17995l0.59998,-0.46998l2.5099,0.79997l2.00992,-0.17999l1.94992,0.89996l1.56994,0.30999l0.11,-1.35995l0.80997,-0.43998l0.06,-1.51994l-0.31999,-2.00992l-0.52998,-1.41994l-0.16999,-1.52994l-0.50998,-0.35999l-0.12,-2.08992l-0.79997,-0.32999l-0.22999,-0.96996l-1.38994,0.54998l-0.60998,-0.84997l-1.40994,-0.24999l-0.75997,0.48998l-1.18995,-0.86997l-0.83997,0.43998l-1.76993,-1.67993l-1.34995,-0.63997l-0.91996,0.05l-2.85989,-1.49994l-1.03996,-0.16999l1.32995,-2.5099l-0.94996,-0.31999l-1.40994,-1.53994l1.28995,-2.80989l0.64997,-1.89992l1.20995,0.28999l1.28995,-2.5599l-0.80997,-1.00996l-1.16995,-0.61998l-0.74997,0.11l-2.18991,-1.90992l-0.84997,-1.14995l-0.19999,-1.49994l0.20999,-1.41994l-0.38998,-0.37998l0.22999,-2.5699l-1.10996,-1.44994l-1.10996,-0.50998l1.67993,-2.15991l0.63997,-0.32999l0.13999,-1.40994l0.69997,-0.69997l0.01,-1.05996l0.62997,-0.68997l1.78993,-0.37998l0.41998,-0.65997l2.33991,-0.21999l0.74997,-0.65997l-0.02,-1.40994l-1.20995,0.80997l-2.10992,0.28999l-0.29999,-0.55998l-1.50994,-0.78997l-0.59998,-2.15991l1.59994,-2.01992l1.70993,0.32999l1.14995,1.02996l0.39998,1.38994l1.09996,-0.71997l3.71985,0.67997l1.21995,0.88996l0.70997,-0.92996l-2.19991,-1.92992l0.24999,-1.12995l3.57986,1.34995l1.27995,-0.38998l0.67997,0.49998l2.12991,-0.07l0.61998,-0.94996l0.02,-1.45994l-0.44998,-0.87996l0.22999,-0.91996l-0.53998,-2.6099l0.80997,-0.88996l0.20999,-1.37994l-0.60998,-0.92996l0.16999,-2.07992l1.38994,-0.69997l2.78989,-0.82997l0.29999,0.67997l3.00988,0.17999l0.21999,2.09992M377.06601,315.9719l-0.74997,3.43986l1.65993,1.20995l0.38998,-5.13979l-1.36995,-0.39998l0.07,0.88996"/></g></g></svg>