<svg xmlns="http://www.w3.org/2000/svg" viewBox="0 0 340 100" version="1.1" height="100" width="340">
 <rect stop-color="#000000" opacity=".988" fill="none" ry="0" rx="0" height="100" width="340"></rect>
 <g fill="#f00" transform="matrix(.90909 0 0 .90909 15.455 4.5455)">
  <path stroke-width="1.1" d="m41.785 33.932c-2.16 0-3.8926 0.65232-5.1992 1.959-1.28 1.28-1.9199 3.0145-1.9199 5.2012v1.1191c0 2.1067 0.63992 3.8001 1.9199 5.0801 0.16267 0.15935 0.33192 0.3097 0.50781 0.44922-0.29256 0.20234-0.57274 0.4216-0.82812 0.67188-1.3067 1.3067-1.959 3.1318-1.959 5.4785v1.7617c0 2.4267 0.65232 4.3197 1.959 5.6797 1.3333 1.3333 3.1729 2 5.5195 2 2.3467 0 4.1738-0.66667 5.4805-2 1.3333-1.36 2-3.253 2-5.6797v-1.7617c0-2.3467-0.66667-4.1718-2-5.4785-0.24532-0.24532-0.51489-0.46089-0.79688-0.66016 0.17936-0.14329 0.35317-0.29653 0.51758-0.46094 1.28-1.28 1.9199-2.9734 1.9199-5.0801v-1.1191c0-2.1867-0.63992-3.9212-1.9199-5.2012-1.28-1.3067-3.0145-1.959-5.2012-1.959zm0 3.1602c0.77333 0 1.4133 0.16047 1.9199 0.48047 0.50667 0.29333 0.89349 0.74604 1.1602 1.3594 0.26667 0.61333 0.40039 1.3602 0.40039 2.2402v1.1602c0 1.3333-0.29224 2.3601-0.87891 3.0801-0.58667 0.69333-1.4549 1.0391-2.6016 1.0391-1.12 0-1.9863-0.34573-2.5996-1.0391-0.58667-0.72-0.87891-1.7467-0.87891-3.0801v-1.1602c0-0.88 0.13177-1.6269 0.39844-2.2402 0.26667-0.61333 0.65349-1.066 1.1602-1.3594 0.53333-0.32 1.1733-0.48047 1.9199-0.48047zm0 12.119c1.2267-1e-6 2.1732 0.40117 2.8398 1.2012s1 1.9318 1 3.3984v1.7617c0 0.96-0.15852 1.7852-0.47852 2.4785-0.29333 0.69333-0.73364 1.2282-1.3203 1.6016-0.56 0.34667-1.241 0.51953-2.041 0.51953s-1.4934-0.17286-2.0801-0.51953c-0.56-0.37333-0.99836-0.90823-1.3184-1.6016-0.29333-0.69333-0.44141-1.5185-0.44141-2.4785v-1.7617c0-1.4667 0.33333-2.5984 1-3.3984 0.69333-0.8 1.6398-1.2012 2.8398-1.2012z"></path>
  <path style="font-feature-settings:normal;font-variant-alternates:normal;font-variant-caps:normal;font-variant-east-asian:normal;font-variant-ligatures:normal;font-variant-numeric:normal;font-variant-position:normal;font-variation-settings:normal;inline-size:0;isolation:auto;mix-blend-mode:normal;shape-margin:0;shape-padding:0;text-decoration-color:#000000;text-decoration-line:none;text-decoration-style:solid;text-indent:0;text-orientation:mixed;text-transform:none;white-space:normal" stroke-width="1.21" stop-color="#000000" shape-rendering="auto" image-rendering="auto" color-rendering="auto" color="#000000" d="m10.836 42.148v20.434h3.1777v-10.656c0-2.6387-0.0467-4.3508-0.10351-5.8594 0.44609 1.3357 0.89976 2.6803 1.4473 4.123l3.4473 9.0527h2.3789l3.6796-9.6619c0.23237-0.60912 0.72337-2.0502 1.2149-3.512-0.05679 1.4788-0.10352 3.1734-0.10352 5.8574v10.656h3.1777v-20.434h-4.5605l-3.4492 8.4473c-0.45242 1.1159-0.8157 2.401-1.1504 3.7402-0.33871-1.3483-0.70194-2.638-1.1484-3.7402l-3.4473-8.4473z"></path>
  <path style="font-feature-settings:normal;font-variant-alternates:normal;font-variant-caps:normal;font-variant-east-asian:normal;font-variant-ligatures:normal;font-variant-numeric:normal;font-variant-position:normal;font-variation-settings:normal;inline-size:0;isolation:auto;mix-blend-mode:normal;shape-margin:0;shape-padding:0;text-decoration-color:#000000;text-decoration-line:none;text-decoration-style:solid;text-indent:0;text-orientation:mixed;text-transform:none;white-space:normal" stroke-width="1.21" stop-color="#000000" shape-rendering="auto" image-rendering="auto" color-rendering="auto" color="#000000" d="m72.648 46.533v1.9707h-2.5059v1.5586h2.5059v1.7188h-2.9941v1.5898h3.1719v4.7109c-0.31194-0.3299-0.61269-0.71431-0.89648-1.1895 0.06122-0.69592 0.10795-1.4621 0.13867-2.3047l2e-3 -0.04492-1.5078-0.24805-2e-3 0.05664c-0.10821 2.7363-0.45244 4.8896-1.0273 6.457l-0.0098 0.02734 1.2734 1.3945 0.0293-0.07227c0.36884-0.90479 0.65933-1.9846 0.88477-3.2129 0.59231 0.8026 1.25 1.4235 1.9863 1.8203 1.3842 0.74332 3.413 1.1113 6.0898 1.1113h4.8301l0.0098-0.03906c0.12823-0.61587 0.30356-1.1278 0.52734-1.5332l0.04102-0.07422h-5.4551c-2.2153 0-3.9808-0.30091-5.3047-0.89258v-2.5547h2.0117v-1.5898h-2.0117v-1.8223h2.4688v-1.0645l1.0645 1.1992 0.03516-0.02344c1.4864-0.98302 2.3861-2.5319 2.709-4.6211h1.9004l-0.0059 0.17969c-0.02833 0.70919-0.0726 1.2743-0.13281 1.6934-0.06021 0.41904-0.13903 0.69313-0.2207 0.81055-0.05329 0.07638-0.17055 0.12305-0.36914 0.12305-0.32531 0-0.79566-0.04667-1.4082-0.14258l-0.06836-0.01172 0.22461 1.5625 0.03906 0.0059c0.46671 0.05368 0.9997 0.08008 1.5996 0.08008 0.53571 0 0.92226-0.06889 1.1641-0.2168 0.26055-0.15826 0.4419-0.44365 0.54688-0.8457 0.19907-0.77002 0.31013-2.3372 0.33594-4.7148v-0.05078h-7.3516v1.5273h2.0781c-0.14439 0.77519-0.36361 1.4246-0.66992 1.9258-0.34118 0.55346-0.83123 1.0311-1.4707 1.4336v-0.43949h-2.6152v-1.7188h2.0352v-1.5586h-2.0352v-1.9707zm77.064 0v3.8691h-1.9648v1.7266h1.9648v5.5684c-0.043 0.01165-0.0867 0.02354-0.14453 0.04492-0.59708 0.19177-1.2928 0.39416-2.0859 0.60742l-0.0488 0.01367 0.57227 1.8027 0.0469-0.01367c1.7615-0.53471 3.4787-1.1969 5.1523-1.9883l0.0312-0.01562-0.15625-1.6465-0.0606 0.02344c-0.50887 0.19945-1.0246 0.38947-1.543 0.57422v-4.9707h1.502v-1.7266h-1.502v-3.8691zm7.3516 0v4.2363l-1.5625 0.54883v-3.7344h-1.6719v4.332l-1.8496 0.6582 0.38672 1.6523 1.4629-0.52344v6.2812c0 0.40393 0.0416 0.72819 0.12695 0.97656v2e-3c0.17146 0.47142 0.5821 0.76433 1.207 0.87305 0.4169 0.07648 1.2747 0.11328 2.5859 0.11328 1.6929 0 2.8923-0.04049 3.6035-0.12109 0.45833-0.05453 0.8082-0.23116 1.0391-0.53125 0.35171-0.45928 0.55596-1.4702 0.63867-3.0488l2e-3 -0.03906-1.7188-0.50195-2e-3 0.06641c-5e-3 0.65469-0.0517 1.2205-0.13867 1.6973h2e-3c-0.0652 0.33221-0.19897 0.51806-0.40039 0.58594-0.37748 0.12339-1.1854 0.18945-2.4062 0.18945-1.2524 0-2.0577-0.0476-2.3945-0.13477-0.16106-0.04042-0.27763-0.11498-0.35547-0.22852-0.0778-0.11354-0.11719-0.26811-0.11719-0.4668v-6.3086l1.5625-0.56445v5.9062h1.6562v-6.4961l1.7637-0.63477v3.7168c0 0.1823-0.0264 0.30783-0.0684 0.37305l-2e-3 2e-3v2e-3c-0.0186 0.0346-0.0535 0.06269-0.11523 0.08398-0.0617 0.0213-0.1498 0.0332-0.25977 0.0332-0.31044 0-0.61379-0.04012-0.91406-0.11914l-0.0762-0.01953 0.27539 1.6426 0.0352 0.0059c0.47173 0.07512 0.91705 0.11133 1.3379 0.11133 0.51804 0 0.89665-0.11316 1.127-0.35156 0.20257-0.21536 0.30078-0.53874 0.30078-0.96289v-6.0273l-0.85547-0.54102-2.5488 0.90625v-3.6406zm-18.648 0.16016v3.8613h-6.2442v1.8379h6.1582c-0.19251 1.4565-0.77145 2.9097-1.7559 4.3594-1.1867 1.7388-2.7423 3.0245-4.6738 3.8594l-0.0586 0.02539 1.1523 1.5488 0.0371-0.01758c1.8601-0.82593 3.4222-2.1072 4.6856-3.8438 0.83849-1.145 1.4476-2.4258 1.8574-3.8203 0.40459 1.0338 0.92431 2.051 1.582 3.0488 1.2574 1.8907 2.8262 3.4101 4.7051 4.5566l0.041 0.02539 1.1621-1.7344-0.0469-0.02734c-1.7631-1.0003-3.2467-2.3565-4.4551-4.0703h-2e-3c-0.97768-1.3843-1.63-2.6846-1.9883-3.9102h6.1074v-1.8379h-6.377v-3.8613zm-49.145 0.16211-0.53516 1.5859 0.05664 0.0098c2.4849 0.46427 4.722 1.0112 6.7109 1.6406l0.04687 0.01367 0.01563-0.04492 0.55859-1.6016-0.04883-0.01563c-2.0457-0.66308-4.3007-1.1899-6.7637-1.5801zm76.08 0.0059v1.2461h4.8379v0.58984h-6.3066v2.9746h1.7637v-1.8418h4.543v3.1152h1.748v-3.1152h4.627v1.8418h1.7793v-2.9746h-6.4062v-0.58984h4.9375v-1.2461zm-104.9 0.08398-0.01758 0.0332c-0.23333 0.4568-0.57926 1.0625-1.0293 1.8066h-4.1914v1.6777h3.0938c-0.90145 1.4613-2.1221 2.9477-3.6973 4.4629l-0.0332 0.0332 1.0918 1.293 0.03906-0.03516c1.0914-0.98581 2.1114-1.7223 3.0605-2.2109 0.76983-0.39843 1.4066-0.5957 1.9043-0.5957 0.30479 0 0.5416 0.08834 0.72266 0.26562 0.15276 0.14854 0.28038 0.42776 0.38086 0.80859-1.8653 0.70232-3.1921 1.3833-3.9453 2.0508-0.73547 0.65331-1.1074 1.4134-1.1074 2.2715 0 1.0157 0.53235 1.7316 1.5723 2.1211 0.8427 0.31424 2.2455 0.46875 4.2188 0.46875 1.6004 0 3.1464-0.05819 4.6387-0.17578l0.05078-0.0059-0.19531-1.8066-0.05078 0.0059c-1.5357 0.16537-3.0004 0.24805-4.3965 0.24805-1.515 0-2.5667-0.07831-3.1445-0.23047-0.29895-0.07867-0.51863-0.19106-0.66211-0.33203s-0.21484-0.31022-0.21484-0.51758c0-0.40124 0.28234-0.81125 0.86914-1.2285 0.57215-0.40685 1.4518-0.81474 2.5918-1.2227v0.08203c0.01543 0.74208 0.0241 1.4312 0.0293 2.0664l2e-3 0.05273 1.7949-0.10352-2e-3 -0.04687c-0.02542-1.084-0.06834-1.9629-0.12891-2.6543 0.8623-0.28611 1.9993-0.62795 3.4277-1.0293l0.76758-0.20898 0.32422-0.0957-0.70508-1.6484-0.04297 0.01563c-1.36 0.43926-2.6946 0.88423-4.0039 1.334-0.19613-0.62684-0.48663-1.1193-0.89258-1.4414-0.41854-0.3321-0.94916-0.49609-1.582-0.49609-0.76636 0-1.6177 0.32176-2.5273 0.85547 0.58025-0.6755 1.1822-1.449 1.8164-2.3496h6.5117v-1.6777h-5.418l0.05469-0.09375c0.39225-0.65178 0.6666-1.1221 0.82227-1.4121l0.0332-0.0625zm56.744 0.30859v14.967h1.9414v-1.0176h11.346v-1.6621h-11.346v-2.623h9.9375v-5.7383h-9.9375v-2.2637h10.85v-1.6621zm-14.523 0.16992v1.6777h6.5215c-0.93768 0.57161-1.9935 1.2724-3.2051 2.1426-1.8326 1.3198-3.4667 2.6213-4.9023 3.9043l-0.0352 0.0332 1.1523 1.4375 0.0391-0.03125c1.3289-1.061 2.3872-1.7299 3.166-2.0039 1.0617-0.37696 2.2512-0.56445 3.5723-0.56445 0.88089 0 1.6057 0.16981 2.1738 0.50586 0.8483 0.49951 1.2676 1.2638 1.2676 2.3184 0 0.69548-0.19628 1.2779-0.58594 1.752-0.38143 0.46405-0.96339 0.81955-1.7266 1.0781-0.21418-0.90641-0.54572-1.6488-1.0195-2.1973-0.6693-0.77399-1.5673-1.1621-2.6777-1.1621-1.0478 0-1.8877 0.34452-2.5059 1.0332-0.4095 0.45649-0.61524 0.98392-0.61524 1.5723 0 0.77566 0.28294 1.3982 0.84571 1.8555 0.72012 0.58218 1.8308 0.86914 3.3281 0.86914 1.2996 0 2.4976-0.1843 3.5918-0.55469 0.83684-0.28516 1.5251-0.70737 2.0625-1.2637 0.78169-0.79896 1.1738-1.7973 1.1738-2.9824 0-0.84658-0.20897-1.5975-0.62696-2.252v-2e-3c-0.40228-0.61651-0.96473-1.1031-1.6836-1.459-0.77754-0.38352-1.7445-0.57422-2.9004-0.57422-0.9537 0-1.9027 0.19206-2.8496 0.50976-0.045 0.01448-0.0898 0.03366-0.13477 0.04883-0.19784 0.06898-0.39612 0.13512-0.59375 0.21484 1.9255-1.3542 4.1546-2.8389 6.7539-4.4844l0.043-0.02734-0.86914-1.3945zm63.553 2.8984v1.0059h3.3965v-1.0059zm6.2754 0v1.0059h3.498v-1.0059zm-85.213 0.56055v1.7109h6.5586c-2.5953 2.1266-5.3565 4.6306-8.2988 7.5391l-0.03516 0.0332 1.2832 1.4551 0.03906-0.04102c1.4693-1.6303 2.6943-2.853 3.6738-3.666 0.97957-0.81304 1.7178-1.2109 2.1855-1.2109 0.17463 0 0.2951 0.04345 0.375 0.125 0.07991 0.08155 0.12305 0.20603 0.12305 0.38477 0 0.04626-0.0029 0.09037-0.0078 0.13086l2e-3 -2e-3c-0.07265 0.55329-0.10938 1.2525-0.10938 2.0977 0 0.88812 0.33777 1.4807 1.0059 1.7441 0.40228 0.16101 1.1549 0.23633 2.2715 0.23633 1.0383 0 2.0423-0.04333 3.0137-0.12891l0.04883-0.0039-0.14648-1.8066-0.05273 0.0059c-0.95783 0.11727-1.8442 0.17578-2.6621 0.17578-0.62782 0-1.0595-0.02983-1.2812-0.08594-0.13683-0.03479-0.23396-0.10414-0.30078-0.21094-0.06683-0.10679-0.10156-0.25393-0.10156-0.44531 0-0.39168 0.04059-1.0007 0.12305-1.8223 0.01555-0.17167 0.02344-0.30286 0.02344-0.39648 0-0.30102-0.06666-0.56209-0.20117-0.7793-0.2306-0.38857-0.62326-0.58594-1.1562-0.58594-0.34694 0-0.79082 0.16735-1.2617 0.375 0.85177-0.74308 2.1642-1.8129 4.0859-3.3125l0.35156-0.26758-0.73242-1.248zm78.937 0.91406v1.0215h3.3965v-1.0215zm6.2754 0v1.0215h3.498v-1.0215zm-53.363 0.95699h8.0098v2.5586h-8.0098zm45.348 0.57227v3.4453c0 0.73005-0.035 1.3401-0.10156 1.8281-0.12281 0.90042-0.43326 1.6843-0.9336 2.3555l-0.0273 0.03906 1.4531 1.2422 0.0312-0.04297c0.43669-0.58656 0.7554-1.2198 0.95312-1.8984 0.16321-0.55432 0.27684-1.3001 0.34961-2.2148h1.6016v2.5918l-0.0508 0.0078c-0.29889 0.03733-0.85124 0.10074-1.6602 0.19141l-0.0606 0.0078 0.48828 1.5078 0.041-0.0059c2.3383-0.33126 4.4164-0.72085 6.2344-1.1699l0.041-0.01172-0.10938-1.2012c0.28753 0.26212 0.5907 0.51351 0.92579 0.74023 1.0701 0.72051 2.4366 1.2269 4.0976 1.5215l0.0312 0.0059 0.9668-1.4531-0.0762-0.01172c-1.1381-0.17492-2.0732-0.41595-2.8438-0.70898 0.75114-0.42195 1.4194-0.87015 1.9785-1.3516l0.0488-0.04102-0.90234-0.61914h1.6445v-1.2285h-12.357v-2.3594h11.691v-1.166zm-87.148 0.37695v5.6113h6.7168v-5.6113h-0.05078zm89.732 1.3613v1.1484h9.7344v-1.1484zm-88.061 0.08398h3.3594v2.6719h-3.3594zm27.42 2.6914c0.52478 0 0.95732 0.18196 1.3086 0.55078 0.33906 0.356 0.59405 0.90791 0.77539 1.6191-0.38676 0.03722-0.73033 0.06055-1.0078 0.06055-0.69804 1e-6 -1.2526-0.07417-1.6621-0.2207-0.28387-0.10494-0.49382-0.23405-0.63086-0.38476-0.13704-0.15072-0.20312-0.32197-0.20312-0.52148 0-0.19275 0.0572-0.37218 0.17578-0.54102h2e-3c0.25335-0.37537 0.65988-0.5625 1.2422-0.5625zm63.131 0.24023h1.6406c0.38522 0.68871 0.87671 1.2977 1.457 1.8418-0.95279 0.18236-1.987 0.35358-3.0976 0.51562zm3.4688 0h3.1152c-0.41924 0.42094-0.95173 0.86754-1.6328 1.3496-0.57715-0.36208-1.0643-0.81853-1.4824-1.3496z"></path>
 </g>
</svg>
