<svg version="1.1" xmlns="http://www.w3.org/2000/svg" xmlns:xlink="http://www.w3.org/1999/xlink" width="64" height="64" viewBox="0,0,64,64"><g transform="translate(-208,-148)"><g data-paper-data="{&quot;isPaintingLayer&quot;:true}" fill-rule="nonzero" stroke="none" stroke-width="1" stroke-linecap="butt" stroke-linejoin="miter" stroke-miterlimit="10" stroke-dasharray="" stroke-dashoffset="0" style="mix-blend-mode: normal"><path d="M208,212v-64h64v64z" fill="none" opacity="0.988"/><path d="M230.61123,165.928v0.0059c1.3797,0.0132 2.6095,0.35334 3.6816,1.0332c1.12,0.6667 1.9987,1.5865 2.6387,2.7598c0.66667,1.1467 1,2.48 1,4v13.801c0,1.4933 -0.33333,2.8267 -1,4c-0.64,1.1733 -1.5187,2.10547 -2.6387,2.7988c-1.0721,0.65373 -2.3018,0.98341 -3.6816,0.99609v0.0039h-0.24023v-0.0039c-1.3804,-0.01268 -2.6205,-0.34236 -3.7188,-0.99609c-1.0933,-0.6933 -1.97393,-1.6255 -2.6406,-2.7988c-0.64,-1.1733 -0.95898,-2.5067 -0.95898,-4v-13.801c0,-1.52 0.31898,-2.8533 0.95898,-4c0.6666,-1.1734 1.5473,-2.09313 2.6406,-2.7598c1.0983,-0.67986 2.3385,-1.01999 3.7188,-1.0332v-0.0059zM227.69128,170.2873c-0.66667,0.8 -1,1.9462 -1,3.4395v13.801c0,1.4667 0.33333,2.61283 1,3.4395c0.6667,0.80003 1.5865,1.2012 2.7598,1.2012h0.08008c1.2,0 2.1217,-0.4012 2.7617,-1.2012c0.66667,-0.8267 1,-1.9728 1,-3.4395v-13.801c0,-1.4934 -0.33333,-2.6395 -1,-3.4395c-0.64,-0.82663 -1.5617,-1.2402 -2.7617,-1.2402h-0.08008c-1.1734,0 -2.09313,0.41353 -2.7598,1.2402z" fill="#ff0000"/><path d="M252.0936,166.527l-7.2812,19.039h6.3613v-6.7988h3.3984v6.7988h3.0801v3.2402h-3.0801v5.9199h-3.3984v-5.9199h-10v-3.2402l7.2793,-19.039z" fill="#ff0000"/></g></g></svg>