<svg version="1.1" xmlns="http://www.w3.org/2000/svg" xmlns:xlink="http://www.w3.org/1999/xlink" width="40.79832" height="70.69716" viewBox="0,0,40.79832,70.69716"><g transform="translate(-489.95497,-121.60882)"><g data-paper-data="{&quot;isPaintingLayer&quot;:true}" fill="#ff0000" fill-rule="evenodd" stroke="none" stroke-width="0" stroke-linecap="round" stroke-linejoin="round" stroke-miterlimit="10" stroke-dasharray="" stroke-dashoffset="0" style="mix-blend-mode: normal"><path d="M527.12346,126.61858l-0.29999,1.42994l-1.13995,1.53994l-0.79997,0.38998l-0.70997,1.60994l-0.51998,0.33999l0.50998,1.47994l-0.72997,0.59998l0.48998,1.42994l-0.97996,1.57994l0.42998,1.15995l1.19995,0.24999l0.66997,-0.63997l0.74997,0.64997l-0.41998,4.58982l-0.96996,-0.11l-0.34999,0.85997l1.11996,1.43994l-0.03,1.07996l1.18995,1.28995l1.37994,-0.39998l0.87996,0.47998l0.41998,2.05992l1.43994,-0.24999l-0.28999,1.83993l0.38998,0.39998l-0.76997,1.80993l0.01,1.33995l-0.76997,1.76993l0.67997,0.57998l-0.72997,1.34995l-1.43994,0.96996l-1.38994,0.18999l-0.54998,1.48994l-1.12995,-0.04l-1.00996,2.03992l-0.11,1.53994l0.34999,0.59998l-1.71993,2.80989l-0.39998,1.87992l-1.63993,1.41994l-0.45998,0.98996l-0.66997,-0.27999l-0.72997,0.70997l-0.29999,0.98996l-1.54994,0.31999l-0.69997,1.13995l0.25999,0.64997l-0.85997,1.27995l0.04,1.01996l-1.21995,1.00996l-0.56998,1.72993l0.50998,3.31987l0.56998,0.67997l-0.77997,1.07996l-1.74993,-0.18999l-0.28999,-2.6099l-1.67993,0.99996l-2.33991,2.22991l-0.40998,1.83993l-0.87996,0.54998l-1.10996,-0.58998l-0.38998,1.23995l-0.98996,0.04l-0.64997,0.79997l-0.71997,-0.16999l-2.15991,2.05992l-1.73993,-0.65997l-1.76993,-2.4799l-1.52994,0.57998l0.09,-1.31995l-0.62997,-0.69997l-1.15995,-0.12999l-0.44998,-0.92996l1.22995,-1.47994l-0.63997,-1.76993l-2.13991,-1.95992l-1.36995,0.47998l0.12,-1.50994l-0.35999,-0.58998l0.19999,-2.32991l0.49998,-1.05996l1.46994,-0.77997l-0.09,-1.22995l1.50994,-0.61998l0.11,-0.65997l-1.41994,-3.09988l-0.80997,-2.14991l0.14999,-1.04996l-0.48998,-1.09996l1.21995,-1.35995l-0.31999,-1.26995l1.21995,-0.58998l0.16999,-1.22995l-1.54994,-0.51998l-0.19999,-2.91988l0.94996,-1.22995l0.71997,0.06l1.59994,-1.37994l-0.37998,-1.64993l-0.76997,-0.92996l-0.17999,-1.41994l1.39994,-0.11l1.51994,-0.92996l0.66997,0.30999l1.04996,-0.48998l1.59994,0.59998l-0.13999,-3.55986l1.12995,-0.27999l0.90996,-0.94996l1.86993,-0.67997l0.81997,-1.04996l1.15995,-0.56998l1.59994,-2.82989l-0.90996,-0.78997l0.88996,-0.64997l-0.37998,-1.44994l0.24999,-1.37994l1.16995,-1.29995l1.29995,-2.10992l1.02996,-0.17999l0.83997,-2.4199l1.90992,-2.30991l0.12999,-0.51998l1.60994,-1.25995l0.33999,-1.16995l0.75997,-0.59998l0.19999,-1.36995l1.04996,-1.65993l0.77997,0.05l0.74997,1.41994l-0.26999,1.19995l0.39998,1.31995l0.91996,-0.11l2.64989,0.79997l0.66997,-0.12999l1.72993,0.60998l2.14991,-0.14999"/></g></g></svg>