<svg version="1.1" xmlns="http://www.w3.org/2000/svg" xmlns:xlink="http://www.w3.org/1999/xlink" width="64" height="64" viewBox="0,0,64,64"><g transform="translate(-208,-148)"><g data-paper-data="{&quot;isPaintingLayer&quot;:true}" fill-rule="nonzero" stroke="none" stroke-width="1" stroke-linecap="butt" stroke-linejoin="miter" stroke-miterlimit="10" stroke-dasharray="" stroke-dashoffset="0" style="mix-blend-mode: normal"><path d="M208,212v-64h64v64z" fill="none" opacity="0.988"/><path d="M223.65233,166.52684h13.4v3.2402h-9.9609v7.4473c0.20245,-0.17499 0.41474,-0.33984 0.64062,-0.48828c0.9225,-0.60621 1.9492,-0.91097 3.0801,-0.91797v-0.002c0.00737,0 0.01408,0.00198 0.02148,0.002c0.00601,-0.0001 0.01158,-0.002 0.01758,-0.002v0.002c1.317,0.00609 2.4899,0.31079 3.5195,0.91797c1.0667,0.6133 1.89383,1.4672 2.4805,2.5605c0.61333,1.0666 0.91992,2.2806 0.91992,3.6406v4.6387c0,1.4933 -0.33333,2.8267 -1,4c-0.64,1.1734 -1.5187,2.10747 -2.6387,2.8008c-1.0825,0.66005 -2.3246,0.99145 -3.7207,0.99805v0.002c-0.00731,0 -0.01418,-0.00198 -0.02148,-0.002c-0.0067,0.0001 -0.01283,0.002 -0.01953,0.002v-0.002c-1.2107,-0.00569 -2.3312,-0.2569 -3.3594,-0.75781c-1.04,-0.5067 -1.89383,-1.21443 -2.5605,-2.1211c-0.63998,-0.9067 -1.0392,-1.9334 -1.1992,-3.0801l3.3594,-0.67969c0.1333,1.1733 0.5612,2.05393 1.2812,2.6406c0.714,0.55529 1.54617,0.83319 2.4961,0.83789c1.1908,-0.0043 2.10742,-0.41593 2.7441,-1.2383c0.66667,-0.8267 1,-1.9604 1,-3.4004v-4.6387c0,-1.2 -0.3601,-2.18757 -1.0801,-2.9609c-0.7151,-0.76804 -1.6159,-1.1529 -2.6992,-1.1582c-0.9253,0.0048 -1.70599,0.37732 -2.3418,1.1191c-0.61333,0.7467 -0.91992,1.7056 -0.91992,2.8789h-3.4394v-16.279z" fill="#ff0000"/><path d="M250.20696,165.80695l2.7207,1.9609c-0.88,0.96 -1.73383,1.96 -2.5605,3c-0.8266,1.0134 -1.5592,2.1595 -2.1992,3.4395c-0.50693,0.9927 -0.93666,2.1245 -1.293,3.3848c0.8832,-0.38484 1.8488,-0.57693 2.8926,-0.58203v-0.002c0.00671,0 0.01283,0.00198 0.01953,0.002c0.00736,-0.0001 0.01409,-0.002 0.02149,-0.002v0.002c1.3962,0.0068 2.6363,0.35065 3.7188,1.0371c1.12,0.6667 2.0006,1.5865 2.6406,2.7598c0.66667,1.1733 1,2.5067 1,4v2.7207c0,1.4933 -0.33333,2.8267 -1,4c-0.64,1.1733 -1.5206,2.10547 -2.6406,2.7988c-1.0825,0.66005 -2.3227,0.99145 -3.7188,0.99805v0.002c-0.00737,0 -0.01409,-0.00198 -0.02149,-0.002c-0.0067,0.0001 -0.01283,0.002 -0.01953,0.002v-0.002c-1.3965,-0.00655 -2.6509,-0.33799 -3.7598,-0.99805c-1.0933,-0.6933 -1.97393,-1.6255 -2.6406,-2.7988c-0.64,-1.1733 -0.95898,-2.5067 -0.95898,-4v-2.7207c0,-0.06826 0.01042,-0.13163 0.01172,-0.19922h-0.01172c0,-2.1333 0.21395,-4.1333 0.64062,-6c0.4533,-1.8667 1.05213,-3.5869 1.7988,-5.1602c0.7467,-1.6 1.57383,-3.026 2.4805,-4.2793c0.9333,-1.28 1.89223,-2.4013 2.8789,-3.3613zM247.04883,181.3673c-0.66667,0.8 -1,1.9462 -1,3.4395v2.7207c0,1.4667 0.33333,2.61283 1,3.4395c0.6627,0.79529 1.5767,1.1945 2.7402,1.1992c1.1889,-0.005 2.10236,-0.40427 2.7383,-1.1992c0.66667,-0.8267 1,-1.9728 1,-3.4395v-2.7207c0,-1.4934 -0.33333,-2.6395 -1,-3.4395c-0.636,-0.79496 -1.5494,-1.1923 -2.7383,-1.1973c-1.1635,0.0047 -2.07744,0.40199 -2.7402,1.1973z" fill="#ff0000"/></g></g></svg>