<svg version="1.1" xmlns="http://www.w3.org/2000/svg" xmlns:xlink="http://www.w3.org/1999/xlink" width="77.55692" height="82.01675" viewBox="0,0,77.55692,82.01675"><g transform="translate(-143.94881,-97.6897)"><g data-paper-data="{&quot;isPaintingLayer&quot;:true}" fill="#ff0000" fill-rule="evenodd" stroke="none" stroke-width="0" stroke-linecap="round" stroke-linejoin="round" stroke-miterlimit="10" stroke-dasharray="" stroke-dashoffset="0" style="mix-blend-mode: normal"><path d="M192.83685,100.31963l-0.46998,1.39994l1.66993,0.48998l1.00996,2.05992l2.02992,1.25995l0.88996,2.74989l0.94996,1.74993l0.49998,0.32999l2.6199,-1.08996l-0.82997,1.71993l-0.77997,0.92996l-0.71997,2.90988l-0.01,1.41994l-0.64997,0.38998l0.02,1.50994l1.07996,2.5199l-0.12999,1.19995l0.61998,2.15991l0.93996,0.35999l-0.74997,2.14991l0.35999,0.92996l-0.24999,1.67993l-0.64997,1.29995l-0.04,0.89996l-0.78997,1.36995l0.47998,0.62997l-0.78997,1.79993l0.29999,1.93992l-1.89992,0.99996l-0.05,0.63997l0.91996,0.78997l0.98996,1.65993l-0.17999,1.53994l0.38998,1.00996l-0.90996,1.22995l1.47994,0.13999l1.44994,1.21995l-0.44998,1.04996l1.15995,1.67993l1.14995,0.47998l0.44998,2.33991l-0.91996,1.02996l0.05,1.95992l-0.80997,0.75997l0.43998,1.26995l0.83997,0.85997l1.27995,0.60998v0.69997l1.09996,0.49998l0.97996,-0.66997l0.31999,-0.79997l1.12995,-0.16999l1.19995,-0.82997l0.51998,0.84997l0.23999,1.44994l-0.25999,1.10996l0.85997,1.47994l0.74997,-0.38998l1.49994,1.05996l-0.06,0.91996l3.37986,-0.55998l-0.29999,1.25995l0.30999,0.75997l1.00996,-0.01l1.21995,0.58998l0.12999,0.52998l-1.38994,1.00996l-0.37998,1.61994l1.09996,0.51998l0.03,1.11996l1.09996,0.34999l-0.42998,1.77993l0.09,1.08996l2.5299,2.10992l-1.35995,0.51998l-0.24999,1.71993l-1.00996,0.77997l-0.24999,0.92996l-1.28995,-0.20999l-0.86997,-1.15995l-0.54998,0.52998l-1.34995,-0.27999l-0.01,-1.33995l-0.50998,-1.31995l-0.81997,-0.59998l-1.44994,0.14999l-0.33999,-0.89996l-1.37994,1.11996l-0.85997,0.16999l-0.92996,-0.83997l0.56998,-0.98996l-1.26995,-0.12l-1.31995,2.5299l-0.55998,0.24999l-0.71997,2.5999l-1.40994,-0.53998l-1.27995,0.92996l-1.42994,0.04l-0.99996,-0.70997l-1.91992,0.01l-1.60994,-1.23995l-1.16995,-0.34999l-1.02996,0.19999l-2.68989,-0.62997l0.22999,-0.92996l-1.06996,-1.32995l-1.29995,-0.95996l-0.47998,-2.82989l1.20995,-1.25995l0.58998,-1.56994l-1.46994,-2.6099l-0.75997,-0.07l-1.40994,-2.84989l-0.78997,-0.61998l-1.06996,-0.18999l-0.05,-1.84993l-0.84997,-0.44998l-0.26999,-1.11996l0.27999,-0.78997l-0.80997,-1.50994l-2.6099,-1.13995v-1.99992l-1.54994,-1.05996l-0.91996,-0.03l-0.85997,0.88996l-1.40994,-0.25999l0.96996,-1.21995l0.79997,-2.32991l-0.54998,-1.50994l-2.4099,0.48998l-0.44998,-0.96996l-1.37994,0.64997l0.76997,1.69993l-1.54994,0.26999l-0.12999,1.93992l1.92992,0.09l0.02,1.77993l-1.38994,0.74997l-1.40994,0.09l-1.72993,-0.65997l0.1,-0.55998l-1.43994,-0.57998l-0.75997,-0.80997l-0.03,-0.82997l-1.06996,-0.30999l-1.35995,0.54998l-0.94996,-1.03996l0.38998,-0.51998l-0.28999,-1.29995l0.65997,-0.15999l-0.52998,-1.86993l0.98996,-0.70997l-1.11996,-0.90996l-1.06996,0.04l-1.12995,-0.82997l-0.78997,-0.02l-1.57994,-0.80997l-1.33995,0.76997l-1.29995,-1.14995l-2.81989,0.13999l-0.38998,-1.24995l0.39998,-0.67997l-0.16999,-1.57994l-0.87996,-0.75997l-0.24999,-1.16995l0.78997,-1.35995l1.04996,-0.78997l1.23995,-0.43998l0.12,-2.15991l-1.29995,-0.65997l0.55998,-1.37994l-1.10996,-2.35991l-0.94996,0.1l-1.79993,-0.93996l-1.14995,0.12l-0.57998,-1.02996l-1.05996,-0.62997l-3.30987,0.93996l-1.37994,-0.65997l1.22995,-1.75993l-0.28999,-1.35995l-0.26999,-3.41986l0.71997,0.24999l0.55998,-2.69989l-1.06996,-1.73993l0.98996,-0.08l0.44998,-0.95996l2.02992,-1.43994l-0.47998,-2.31991l1.37994,0.32999l0.61998,-1.06996l1.26995,-1.14995l1.59994,-0.32999l1.19995,-1.33995l0.52998,-1.47994l1.63993,-1.21995l1.06996,-0.26999l0.50998,-0.92996l1.16995,-0.92996l2.80989,-0.43998l1.87992,0.24999l2.4099,-0.12l0.58998,-0.51998l-0.52998,-1.31995l1.62993,-0.59998l0.53998,-0.60998l1.25995,-0.18999l0.01,-0.75997l4.50982,0.31999l0.84997,0.80997l1.89992,-0.39998l1.63993,0.19999l1.30995,0.75997l0.57998,-0.36999l1.88992,1.26995l0.68997,-0.09l0.88996,0.88996l2.3899,0.74997l1.78993,-1.41994l1.74993,0.50998l0.76997,-0.95996l1.10996,0.54998l1.35995,-0.18999"/></g></g></svg>