<svg version="1.1" xmlns="http://www.w3.org/2000/svg" xmlns:xlink="http://www.w3.org/1999/xlink" width="65.7774" height="145.84415" viewBox="0,0,65.7774,145.84415"><g transform="translate(-302.07898,-35.27312)"><g data-paper-data="{&quot;isPaintingLayer&quot;:true}" fill="#ff0000" fill-rule="evenodd" stroke="none" stroke-width="0" stroke-linecap="round" stroke-linejoin="round" stroke-miterlimit="10" stroke-dasharray="" stroke-dashoffset="0" style="mix-blend-mode: normal"><path d="M365.61647,41.3429l-0.48998,2.16991l0.47998,0.69997l-0.23999,1.00996l1.33995,1.51994l-0.04,1.55994l0.70997,0.71997l0.47998,1.40994l-0.15999,1.16995l-2.06992,0.61998l-1.41994,-0.24999l-1.45994,-1.72993l-1.44994,0.73997l-1.44994,-0.32999l-1.72993,1.79993l0.16999,1.47994l0.46998,0.53998l-0.17999,3.76985l1.65993,1.05996l0.96996,-0.33999l1.14995,1.00996l1.69993,0.66997l0.66997,1.51994l-1.36995,1.60994l-1.50994,1.17995l-0.36999,1.20995l-1.04996,0.75997l0.08,1.17995l-0.85997,0.83997l-1.66993,0.40998l0.26999,1.62993l1.09996,2.05992l1.53994,0.20999v1.23995l1.26995,1.36995l-0.41998,1.01996l0.45998,1.89992l-0.27999,1.64993l-1.31995,2.77989l-0.19999,2.3999l-0.96996,1.27995l-1.27995,-0.13999l-0.71997,1.69993l-1.09996,0.39998l-0.99996,2.22991l-1.39994,0.68997l-0.98996,-0.06l-0.12,1.66993l1.02996,0.78997l0.18999,1.38994l-0.47998,1.90992l-1.18995,0.37998l-0.18999,1.86993l-0.90996,0.62997l0.51998,1.83993l-0.23999,0.83997l-2.03992,1.58994l-0.65997,0.18999l-1.24995,2.11992l0.85997,1.43994l-0.05,1.62993l-0.39998,0.81997l-2.28991,0.54998l0.54998,1.33995l-1.04996,1.67993l1.22995,0.83997l1.34995,0.13999l-0.33999,1.91992l1.27995,1.16995l0.01,1.52994l1.46994,0.49998l0.59998,1.77993l-1.05996,0.17999l-0.56998,1.93992l0.42998,0.40998l-0.35999,1.37994l2.36991,0.39998l0.05,3.08988l2.80989,1.42994l1.09996,0.83997l1.19995,0.32999l0.82997,1.40994l1.14995,0.39998l-0.11,1.49994l-1.70993,0.42998l-0.73997,1.31995l0.44998,1.12995l-0.27999,0.86997l1.38994,0.38998l0.97996,0.78997l0.88996,-0.16999l1.04996,1.48994l-1.95992,0.75997l-0.20999,0.73997l-1.22995,-0.11l-0.83997,1.96992l-1.57994,1.53994l2.02992,2.08992l-1.40994,0.78997l0.72997,1.18995l-0.72997,1.54994l-0.29999,1.38994l1.90992,0.93996l0.68997,-0.42998l2.10992,0.70997l0.43998,0.76997l-0.49998,0.98996l0.57998,1.39994l-1.16995,1.31995l0.25999,0.73997l-0.52998,1.52994l-1.07996,1.24995l-0.12,0.76997l-1.43994,1.03996l-0.05,1.40994l1.07996,2.6199l-0.11,1.40994l-2.82989,0.21999l-1.31995,0.90996l-0.87996,1.90992l-1.61994,1.81993l-0.66997,-0.45998l-1.47994,0.79997l-1.25995,1.79993l-0.18999,0.82997l-2.6099,1.08996l-0.46998,0.60998l-1.02996,-0.68997l-2.03992,-0.40998l-0.24999,0.74997l-1.38994,-0.05l-3.09988,1.77993l-0.78997,-0.38998l-0.71997,-1.66993l-1.15995,-1.47994l-0.94996,0.41998l-1.01996,-0.36999l-1.05996,0.68997l-1.06996,-0.49998l-0.21999,-0.97996l-1.23995,-1.04996l-1.81993,-0.72997l-0.33999,-1.73993l-0.86997,-1.50994l0.40998,-1.66993l-0.24999,-1.68993l-0.56998,-1.11996l-0.77997,-0.20999l-0.57998,-1.25995l-1.79993,0.22999l-1.97992,-0.14999l-1.94992,-0.56998l-1.05996,-1.77993l-0.25999,-1.90992l-1.70993,-0.18999l-1.51994,-1.15995l1.35995,-1.38994l-0.74997,-1.23995l-0.14999,-1.18995l0.95996,-1.20995l-0.22999,-1.98992l-1.06996,-1.43994l-1.32995,-0.12l-0.42998,-1.90992l-0.81997,-0.92996l-0.14999,-1.29995l-1.09996,-1.53994l-1.03996,-0.70997l-0.18999,-1.59994l-0.59998,-1.03996l-0.73997,-0.22999l-0.94996,-1.25995l0.1,-0.64997l-0.88996,-1.12995l-0.97996,0.40998l-0.90996,-1.28995l-0.03,-0.94996l-0.78997,-0.91996l0.09,-1.12995l0.69997,-0.27999l1.86993,0.57998l1.21995,-1.31995l2.12991,-0.70997l0.21999,-0.38998l5.28979,-0.71997l0.31999,-1.32995l-1.02996,-0.29999l0.31999,-1.57994l0.65997,-0.93996l0.25999,-1.82993l1.17995,-0.05l-0.19999,-1.28995l-1.14995,-0.88996l-0.01,-1.93992l-0.66997,0.31999l-0.71997,-0.94996l0.14999,-1.16995l-1.21995,-1.07996l-1.55994,0.13999l-0.17999,-0.76997l-2.95988,-0.17999l-0.13999,-1.84993l0.89996,-0.59998l4.36982,-0.98996l-0.43998,-1.00996l-2.67989,-0.46998l1.56994,-1.66993l0.16999,-1.25995l-2.78989,-0.97996l-0.88996,-1.31995l0.04,-2.07992l1.17995,-0.63997l-0.04,-1.57994l-1.52994,-2.31991l0.92996,-0.81997l-0.48998,-1.52994l-0.73997,-1.08996l-1.08996,-0.14999l-0.32999,-0.79997l-0.21999,-2.4699l-0.51998,-0.69997l-1.32995,0.05l0.47998,-2.13991l0.63997,-0.33999l0.40998,-1.36995l1.08996,-0.28999v-1.49994l1.36995,-1.88992l-0.05,-1.07996l0.92996,-0.75997l0.72997,-1.22995l0.02,-1.99992l-1.28995,0.11l-0.41998,-0.60998l0.34999,-1.17995l2.13991,-0.24999l0.30999,0.85997l1.36995,0.15999l0.12999,-1.03996l-0.36999,-1.53994l1.88992,-1.70993l1.27995,0.53998l0.93996,-1.92992l1.62993,-0.49998l0.82997,0.28999l2.00992,-0.90996l2.68989,-1.96992l1.29995,0.98996l1.47994,0.29999l2.76989,-1.52994l0.84997,-0.08l1.98992,-1.12995l0.54998,-1.84993l0.68997,-0.94996l-0.53998,-0.89996l-0.38998,-1.71993l-1.61994,-1.66993l-0.96996,-2.05992l1.10996,-1.01996l2.11992,-0.73997l0.43998,-0.83997l-0.74997,-3.04988l0.44998,-0.85997l1.36995,-0.49998l0.90996,-1.38994l0.09,-2.6099l1.92992,-0.37998l1.28995,-1.30995l1.25995,-0.07l1.15995,1.29995l1.91992,0.05l1.19995,-0.73997l1.05996,-2.02992l-0.61998,-2.86989l0.45998,-0.61998l1.25995,-0.12l1.23995,-0.98996l0.52998,-1.50994l2.67989,-1.95992l0.83997,-2.22991l1.40994,-0.62997l0.06,-1.04996l1.60994,-0.28999l0.77997,0.30999l1.65993,2.06992l-0.38998,1.25995l0.54998,0.99996l2.4599,-0.01l1.11996,-0.85997l0.88996,0.13999l1.03996,-0.80997l2.62989,1.35995l0.97996,0.78997l0.92996,0.81997M343.09737,72.26166l1.69993,2.19991l1.95992,-0.65997l1.43994,0.29999l0.60998,-1.90992l1.03996,-1.30995l-0.33999,-1.14995l-1.35995,-1.29995l-2.64989,-0.74997l-1.62993,0.22999l-1.10996,3.26987l0.33999,1.07996"/></g></g></svg>