<svg version="1.1" xmlns="http://www.w3.org/2000/svg" xmlns:xlink="http://www.w3.org/1999/xlink" width="208" height="32" viewBox="0,0,208,32"><g transform="translate(-240,-164)"><g data-paper-data="{&quot;isPaintingLayer&quot;:true}" fill-rule="nonzero" stroke="none" stroke-linecap="butt" stroke-linejoin="miter" stroke-miterlimit="10" stroke-dasharray="" stroke-dashoffset="0" style="mix-blend-mode: normal"><path d="M240,196v-32h208v32z" fill="none" stroke-width="0"/><path d="M255.39,184.74c1.3216,1.1198 2.79947,2.01173 4.4336,2.6758l-1.1621,1.9629c-1.6732,-0.80727 -3.20967,-1.88473 -4.6094,-3.2324c-1.47787,1.43227 -3.2552,2.58787 -5.332,3.4668l-1.2793,-1.7383c1.91407,-0.58593 3.6849,-1.62433 5.3125,-3.1152c-1.36067,-1.6276 -2.36653,-3.29753 -3.0176,-5.0098h-0.91797v-1.8848h3.8379v-2.6367h-4.4531v10.889h-5.5469v1.6992h-1.7773v-13.33h1.6797v9.7559h1.084v-13.457h1.7773v13.457h1.123v-9.7559h1.3965v-1.1816h4.7168v-2.8027h2.0606v2.8027h4.8047v1.9238h-4.8047v2.6367h3.1055l0.9375,0.96679c-1.0612,2.52607 -2.18427,4.49547 -3.3692,5.9082zM254.013,183.4021c1.0482,-1.3802 1.77087,-2.59767 2.168,-3.6524h-4.4336c0.58593,1.39973 1.34113,2.6172 2.2656,3.6524z" fill="#ffffff" stroke-width="1"/><path d="M268.84,182.46h-6.3965v-10.322h5.498c0.22787,-0.59245 0.4069,-1.17838 0.53711,-1.7578l2.3926,0.32226c-0.21485,0.47527 -0.45899,0.9538 -0.73242,1.4356h6.9043v4.502h-12.461v1.2793h13.281v4.541h-6.8457v1.543h8.5254v1.7773h-8.5254v3.7207h-2.1777v-3.7207h-8.3594v-1.7773h8.3594zM264.5822,173.7002v1.3965h10.293v-1.3965zM264.5822,179.4814v1.3965h11.133v-1.3965z" fill="#ffffff" stroke-width="1"/><path d="M296.76,170.98v9.4629h-11.621v-9.4629zM287.2385,172.523v1.2207h7.4023v-1.2207zM287.2385,175.1207v1.2207h7.4023v-1.2207zM287.2385,177.7183v1.2598h7.4023v-1.2598zM283.3029,181.7417h16.191v1.6992h-8.0762v6.0644h-2.2168v-6.0644h-8.0371v-10.957h2.1387zM280.8029,187.6401c1.54947,-0.71613 3.0306,-1.9173 4.4434,-3.6035l1.7969,1.0449c-1.3932,1.76433 -2.93943,3.15107 -4.6387,4.1602zM297.6389,188.8999c-0.99607,-1.22393 -2.49347,-2.50973 -4.4922,-3.8574l1.6797,-1.1816c1.569,0.90493 3.1087,2.09307 4.6191,3.5644z" fill="#ffffff" stroke-width="1"/><path d="M308.84,180.4h-8.3203v-1.6406h8.3203v-1.543h-6.416v-1.5625h6.416v-1.4746h-7.4609v-1.6016h4.1016c-0.34505,-0.55989 -0.70639,-1.06119 -1.084,-1.5039l2.2656,-0.63477c0.52083,0.6706 0.95053,1.3835 1.2891,2.1387h4.0137c0.51432,-0.7292 0.91145,-1.43557 1.1914,-2.1191l2.4219,0.47852c-0.35807,0.57943 -0.73241,1.12629 -1.123,1.6406h4.1602v1.6016h-7.5781v1.4746h6.543v1.5625h-6.543v1.543h8.4473v1.6406h-8.4473v1.6406h8.1055v1.6797h-7.3828c0.69013,0.85287 1.58533,1.569 2.6856,2.1484c1.4518,0.76173 3.1022,1.28583 4.9512,1.5723l-1.3184,2.002c-3.7956,-0.92447 -6.43233,-2.53907 -7.9102,-4.8438c-0.58594,1.25653 -1.57227,2.2982 -2.959,3.125c-1.25653,0.7552 -3.00783,1.35417 -5.2539,1.7969l-1.3184,-1.9043c4.1992,-0.46224 6.7936,-1.76107 7.7832,-3.8965h-7.5391v-1.6797h7.959z" fill="#ffffff" stroke-width="1"/><path d="M336.49,186.57c0.82033,0.52083 1.8685,0.95703 3.1445,1.3086l-1.1426,1.6406c-1.6406,-0.55989 -2.9492,-1.27279 -3.9258,-2.1387c-1.02213,-0.91147 -1.77083,-2.01823 -2.2461,-3.3203h-1.5234v3.2617l0.27344,-0.0488c0.7552,-0.13672 1.6048,-0.30599 2.5488,-0.50781l0.0781,1.5527c-1.78387,0.46875 -3.78257,0.87565 -5.9961,1.2207l-0.57617,-1.6992c0.59245,-0.06513 1.18815,-0.13675 1.7871,-0.21485v-3.5644h-1.6699c-0.06507,1.0482 -0.18551,1.94013 -0.36132,2.6758c-0.23438,0.99607 -0.64128,1.93683 -1.2207,2.8223l-1.5234,-1.4551c0.54688,-0.99607 0.89518,-2.09633 1.0449,-3.3008c0.09115,-0.7422 0.13672,-1.6276 0.13672,-2.6562v-3.8477h13.818v1.416h-11.836v2.1484c0,0.22136 -0.00333,0.48178 -0.01,0.78125h12.207v1.416h-1.6406l1.0547,0.97656c-0.77473,0.58594 -1.58203,1.09701 -2.4219,1.5332zM335.3377,185.64226c0.7292,-0.49479 1.40627,-1.02213 2.0312,-1.582h-3.1641c0.27995,0.57943 0.65755,1.10676 1.1328,1.582zM329.4197,171.45326v-0.95703h1.7383v0.95703h1.7969v-0.95703h1.7383v0.95703h3.584v6.0254h-12.422v-6.0254zM327.6521,172.79116v1.0449h1.8066v-1.0449zM327.6521,175.05676v1.123h1.8066v-1.123zM336.4998,176.17976v-1.123h-1.8457v1.123zM336.4998,173.83596v-1.0449h-1.8457v1.0449zM331.158,172.79106v1.0449h1.7969v-1.0449zM331.158,175.05666v1.123h1.7969v-1.123zM323.4724,174.95896c-0.56641,-0.90493 -1.41277,-1.92707 -2.5391,-3.0664l1.4453,-1.2988c0.8854,0.7422 1.7643,1.69597 2.6367,2.8613zM322.97436,179.97846c-0.8268,-1.15233 -1.68617,-2.194 -2.5781,-3.125l1.3965,-1.377c1.02213,0.92447 1.9108,1.9173 2.666,2.9785zM320.53296,188.09366c0.918,-1.7578 1.80667,-4.08527 2.666,-6.9824l1.6406,1.084c-0.57943,2.44793 -1.42579,4.88283 -2.5391,7.3047zM328.23806,180.51556h9.6777v1.3184h-9.6777z" fill="#ffffff" stroke-width="1"/><path d="M348.84,174.08v-3.584h2.1973v3.584h7.2461v10.332h-2.1582v-1.3574h-5.0879v6.4453h-2.1973v-6.4453h-4.9609v1.4648h-2.1582v-10.439zM343.8791,176.082v4.9707h4.9609v-4.9707zM356.1251,181.0527v-4.9707h-5.0879v4.9707z" fill="#ffffff" stroke-width="1"/><path d="M366.44,176.07v-2.7344h-5.8203v-1.8848h18.779v1.8848h-6.4551v2.7344h5.4785v13.164h-2.1191v-1.377h-12.607v1.377h-2.0996v-13.164zM368.4615,176.07h2.4609v-2.7344h-2.4609zM366.4303,177.8473h-2.7344v8.1543h12.607v-2.9297h-3.7012c-1.1198,0 -1.6797,-0.5599 -1.6797,-1.6797v-3.5449h-2.4805c-0.02607,1.6016 -0.26695,2.88417 -0.72266,3.8477c-0.42969,0.918 -1.27605,1.8262 -2.5391,2.7246l-1.3477,-1.5039c1.21093,-0.7422 1.9759,-1.66017 2.2949,-2.7539c0.16927,-0.58594 0.27018,-1.35744 0.30273,-2.3145zM372.944,177.8473v2.9883c0,0.25391 0.11393,0.38086 0.3418,0.38086h3.0176v-3.3691z" fill="#ffffff" stroke-width="1"/><path d="M386.98,172.75h4.1797v1.8848h-1.377c-0.2474,0.99607 -0.57943,2.041 -0.9961,3.1348h2.6074v1.8848h-10.898v-1.8848h2.3926c-0.26041,-1.25 -0.53385,-2.29493 -0.82031,-3.1348h-1.2695v-1.8848h4.1406v-2.2559h2.041zM384.0406,174.6348c0.33203,0.97007 0.58919,2.015 0.77148,3.1348h1.9922l0.09766,-0.27344c0.27995,-0.7422 0.54036,-1.5853 0.78125,-2.5293l0.0879,-0.33203zM390.0953,181.295v7.998h-2.002v-0.95703h-4.2578v1.1621h-2.0606v-8.2031zM383.8355,183.0919v3.3887h4.2578v-3.3887zM396.8825,178.1603c0.77473,0.73567 1.38997,1.61133 1.8457,2.627c0.44922,1.0156 0.67383,2.04423 0.67383,3.0859c0,0.96353 -0.17904,1.67317 -0.53711,2.1289c-0.37109,0.47526 -0.98306,0.71289 -1.8359,0.71289c-0.7292,0 -1.43557,-0.05208 -2.1191,-0.15625l-0.47852,-2.0801c0.78773,0.14323 1.43877,0.21485 1.9531,0.21485c0.39063,0 0.63477,-0.09115 0.73242,-0.27344c0.06513,-0.13021 0.0977,-0.39062 0.0977,-0.78125c0,-1.60807 -0.48177,-2.9948 -1.4453,-4.1602c-0.25391,-0.30599 -0.57292,-0.63476 -0.95703,-0.98633l0.11719,-0.27343c0.67707,-1.52993 1.2044,-3.125 1.582,-4.7852h-2.5v16.064h-2.0215v-18.086h5.8789l1.084,0.99609c-0.65755,2.2396 -1.34765,4.15693 -2.0703,5.752z" fill="#ffffff" stroke-width="1"/></g></g></svg>