<svg version="1.1" xmlns="http://www.w3.org/2000/svg" xmlns:xlink="http://www.w3.org/1999/xlink" width="25.74936" height="42.82871" viewBox="0,0,25.74936,42.82871"><g transform="translate(-558.29201,-245.21361)"><g data-paper-data="{&quot;isPaintingLayer&quot;:true}" fill="#ff0000" fill-rule="evenodd" stroke="#ff0000" stroke-width="10" stroke-linecap="round" stroke-linejoin="round" stroke-miterlimit="10" stroke-dasharray="" stroke-dashoffset="0" style="mix-blend-mode: normal"><path d="M569.82175,250.31362l1.96992,1.55994l0.43998,0.65997l0.17999,1.40994l-0.34999,0.81997l0.1,2.20991l-1.16995,1.19995l-1.63993,0.67997l-0.59998,0.76997l-1.62993,-0.24999l-1.11996,0.36999l-1.12995,-0.68997h-0.73997l-0.47998,-1.04996l0.25999,-1.26995l-0.61998,-0.92996l0.76997,-0.57998l0.15999,-1.05996l1.06996,-1.63993l-0.47998,-0.83997l0.35999,-0.85997l1.36995,-0.36999l2.5899,-0.23999l0.68997,0.1"/><path d="M577.72143,278.21251l0.67997,1.03996l0.63997,1.82993l-1.08996,1.95992l-2.83989,-0.24999l-1.29995,-0.62997l-0.26999,-0.77997l0.15999,-2.01992l1.25995,-1.81993l1.26995,-0.37998l1.48994,1.04996"/></g></g></svg>