<svg version="1.1" xmlns="http://www.w3.org/2000/svg" xmlns:xlink="http://www.w3.org/1999/xlink" width="64.9274" height="90.51634" viewBox="0,0,64.9274,90.51634"><g transform="translate(122.60051,-327.62058)"><g data-paper-data="{&quot;isPaintingLayer&quot;:true}" fill="#ff0000" fill-rule="evenodd" stroke="none" stroke-width="0" stroke-linecap="round" stroke-linejoin="round" stroke-miterlimit="10" stroke-dasharray="" stroke-dashoffset="0" style="mix-blend-mode: normal"><path d="M-59.85303,345.30982l-1.01996,0.59998l0.49998,0.69997l1.75993,1.11996l-0.15999,0.60998l-1.46994,1.30995l0.43998,0.87996l0.07,1.84993l1.18995,0.45998l0.28999,1.10996l0.57998,0.45998l-1.64993,0.90996l0.17999,1.99992l0.65997,0.92996l-1.68993,1.01996l-0.33999,2.20991l-2.04992,0.69997l-0.47998,1.02996l1.10996,1.15995l-0.12999,2.07992l-0.56998,0.61998l-0.91996,-0.94996l0.15999,-0.67997l-1.50994,-0.28999l-2.12991,2.02992l-0.46998,1.42994l-1.12995,1.57994l-0.07,0.79997l-1.54994,2.91988l-0.98996,0.32999l-1.32995,0.93996l-0.1,0.69997l-0.87996,0.50998l0.18999,1.43994l-0.78997,0.34999l-0.55998,3.19987l-1.03996,0.63997l-1.04996,-1.27995l-1.86993,-0.23999l-1.97992,0.29999l-1.63993,1.64993l-0.81997,1.30995l-1.03996,3.55986l0.44998,0.61998l-0.85997,1.66993l-0.22999,1.19995l0.69997,0.74997l-0.52998,1.70993l0.31999,1.08996l1.07996,1.31995l-0.23999,1.85993l0.30999,1.74993l-0.73997,0.16999l-0.85997,2.06992l-1.00996,-0.26999l-2.22991,-0.01l-1.15995,0.85997l0.65997,0.88996l0.29999,2.79989l-0.85997,0.69997l0.68997,1.75993l0.81997,0.80997l3.71985,1.40994l-0.07,0.62997l0.82997,1.70993l0.75997,0.70997l-0.36999,0.79997l0.78997,3.06988l-0.24999,0.63997l-1.91992,0.1l-0.68997,-1.01996l-2.00992,-0.14999l-0.76997,-0.68997l0.55998,-0.76997l-0.20999,-0.78997l-2.36991,-1.70993l-0.60998,-1.19995l-0.84997,-0.64997l-1.87992,-0.76997l-1.41994,0.1l-1.04996,-0.43998l-1.77993,2.74989l0.18999,-2.14991l-0.69997,-0.43998l-2.4799,0.94996l-0.42998,1.47994l-1.98992,1.85993l-1.17995,0.09l-0.17999,0.55998l-1.25995,-0.20999l-2.22991,-1.36995l-0.89996,0.96996l-0.82997,-0.91996l-0.62997,-1.43994l-1.40994,-0.70997l-1.05996,-2.16991l-2.67989,0.37998l-0.98996,1.49994l-1.40994,-0.35999l-1.86993,0.81997l-0.87996,0.93996l-0.63997,-1.68993l-0.19999,-2.11992l1.74993,0.07l0.29999,-0.64997l-0.80997,-0.89996l0.59998,-1.42994l1.41994,-0.78997l-0.57998,-0.63997l0.91996,-0.88996l-0.70997,-0.93996l0.38998,-0.79997l1.66993,-1.32995l0.89996,-0.42998l0.18999,-1.08996l2.72989,-1.18995l-0.56998,-1.04996l0.30999,-0.68997l-0.87996,-2.05992l-1.25995,0.09l-0.95996,0.64997l-1.93992,0.07l-1.11996,-0.71997l-0.29999,-1.66993l0.81997,-0.38998l1.75993,-0.06l0.61998,-0.78997l-0.1,-1.60994l0.79997,-1.24995l-1.00996,-2.4099l0.52998,-0.41998l-0.96996,-1.63993l-0.14999,-1.34995l0.24999,-1.85993l-2.02992,-2.26991l1.17995,-1.68993l-0.27999,-1.10996l0.25999,-1.41994l-0.57998,-1.97992l-1.68993,-0.78997l-0.90996,-2.00992l-0.92996,-0.27999l0.40998,-1.72993l-1.73993,-2.3899l0.44998,-1.38994l1.62993,-0.65997l-0.12999,0.90996l1.22995,0.82997l1.29995,1.41994l0.26999,0.65997l1.11996,0.52998l1.32995,1.80993l0.88996,-0.32999l0.27999,-1.04996l1.19995,-0.80997l0.89996,-1.61994l0.61998,-0.17999l1.60994,-2.5699l-0.12999,-1.37994l1.87992,-0.05l1.64993,-0.79997l-0.47998,-2.13991l0.37998,-0.91996l-0.29999,-0.83997l1.53994,-2.5699l0.57998,-1.46994l0.73997,-0.08l1.70993,-0.99996l0.67997,0.19999l3.32987,-1.30995l1.47994,-1.40994l1.23995,-0.25999l1.35995,-0.90996l0.47998,-1.84993l-0.28999,-1.61994l-1.65993,-2.22991l-2.3799,-0.72997l-0.33999,-1.15995l-0.20999,-2.4199l-1.33995,0.05l-0.94996,-1.30995l0.23999,-1.35995l-0.90996,-0.32999l-0.14999,-0.82997l0.43998,-1.00996l-0.12,-0.87996l-1.84993,-0.97996l0.29999,-1.46994l0.77997,-0.06l0.40998,-0.75997l1.73993,-0.21999l0.70997,-0.52998l1.69993,0.81997l1.95992,-0.08l1.65993,0.31999l1.44994,0.31999l2.89988,-0.50998l1.53994,0.66997l1.91992,-0.78997h0.80997l2.84989,-0.96996l1.89992,0.19999l1.02996,0.56998l1.40994,-0.61998l0.22999,1.28995l0.71997,0.38998l0.50998,1.57994l1.71993,0.1l1.16995,1.03996l0.93996,-0.87996l1.40994,-0.70997l1.16995,-0.05l1.78993,-1.00996l2.29991,-0.01l0.48998,-0.87996l1.34995,-0.12999l0.82997,0.77997l0.94996,0.04l0.62997,0.57998l1.23995,0.07l1.79993,1.11996l0.68997,1.27995l-0.69997,0.96996l-1.91992,0.53998l-1.48994,-0.21999l-0.89996,0.22999l-0.15999,2.18991l0.30999,0.67997l-1.40994,0.82997l-1.99992,-0.1l0.35999,1.85993l0.45998,0.57998l1.14995,0.06l1.38994,-0.52998l0.50998,0.44998l1.37994,-0.08l0.31999,1.15995l0.97996,0.55998l0.27999,0.80997l1.99992,2.08992l-0.70997,0.81997l-1.42994,0.04"/></g></g></svg>