<svg version="1.1" xmlns="http://www.w3.org/2000/svg" xmlns:xlink="http://www.w3.org/1999/xlink" width="208" height="32" viewBox="0,0,208,32"><g transform="translate(-240,-164)"><g data-paper-data="{&quot;isPaintingLayer&quot;:true}" fill-rule="nonzero" stroke="none" stroke-linecap="butt" stroke-linejoin="miter" stroke-miterlimit="10" stroke-dasharray="" stroke-dashoffset="0" style="mix-blend-mode: normal"><path d="M240,196v-32h208v32z" fill="none" stroke-width="0"/><path d="M251.02,172.42h7.7832v4.3164h-2.1777v-2.5391h-13.311v2.5391h-2.1387v-4.3164h7.666v-1.9238h2.1777zM251.23485,181.8536v5.8594c0,0.61849 -0.10417,1.06119 -0.3125,1.3281c-0.26042,0.33203 -0.85289,0.49805 -1.7774,0.49805c-1.1914,0 -2.21353,-0.05534 -3.0664,-0.16602l-0.32227,-2.0606c0.944,0.16276 1.87823,0.24414 2.8027,0.24414c0.26041,0 0.41015,-0.05208 0.44922,-0.15625c0.03253,-0.07812 0.0488,-0.20507 0.0488,-0.38086v-5.166h-8.4766v-1.8555h18.857v1.8555zM244.01805,176.2579h11.963v1.7188h-11.963zM240.60005,186.9509c1.4518,-1.0872 2.60413,-2.526 3.457,-4.3164l2.002,0.91797c-0.96353,2.04427 -2.21027,3.6849 -3.7402,4.9219zM257.46505,188.2107c-0.97653,-1.582 -2.1777,-3.1217 -3.6035,-4.6191l1.582,-1.2207c1.582,1.4844 2.84177,2.946 3.7793,4.3848z" fill="#ffffff" stroke-width="1"/><path d="M265.69,188.42v1.084h-2.2168v-7.7148c-0.48828,0.28646 -1.10025,0.61524 -1.8359,0.98633l-1.2598,-1.8359c1.97267,-0.77473 3.6556,-1.77733 5.0488,-3.0078c1.19793,-1.06773 2.25263,-2.36657 3.1641,-3.8965h2.4121c2.01173,2.69533 4.88283,4.84377 8.6133,6.4453l-1.1914,1.8945c-0.64453,-0.31901 -1.19793,-0.60547 -1.6602,-0.85938l-0.24414,-0.12695v8.1152h-2.2363v-1.084zM264.6451,181.0762h11.338c-2.41533,-1.46487 -4.45633,-3.19013 -6.123,-5.1758c-0.89847,1.3672 -1.90757,2.54233 -3.0273,3.5254c-0.63151,0.54687 -1.36068,1.09701 -2.1875,1.6504zM274.2838,182.9121h-8.5938v3.6035h8.5938zM260.8758,175.4805c1.0156,-0.55339 1.888,-1.14259 2.6172,-1.7676c0.90493,-0.76827 1.75453,-1.71227 2.5488,-2.832l1.8359,1.0547c-1.43227,2.14847 -3.2259,3.89 -5.3809,5.2246zM277.1358,176.7793c-1.7904,-1.90753 -3.5775,-3.54163 -5.3613,-4.9023l1.582,-1.1816c1.7448,1.17187 3.5254,2.67253 5.3418,4.502z" fill="#ffffff" stroke-width="1"/><path d="M297.76,175.8c0,0.30599 -0.0293,1.75783 -0.0879,4.3555h1.8652v1.7578h-1.9043c-0.01953,0.85287 -0.06185,1.81967 -0.12695,2.9004h1.6504v1.7188h-1.7774c-0.07813,0.944 -0.18555,1.569 -0.32226,1.875c-0.30599,0.7292 -1.04819,1.0938 -2.2266,1.0938c-0.7552,0 -1.4518,-0.05534 -2.0898,-0.16601l-0.36133,-1.7383c0.918,0.13021 1.62113,0.19531 2.1094,0.19531c0.39713,0 0.63476,-0.13997 0.71289,-0.41992c0.03907,-0.13672 0.07487,-0.41667 0.10742,-0.83985h-6.9531c-0.00667,0.05207 -0.01643,0.10741 -0.0293,0.16602c-0.0586,0.34505 -0.11394,0.67057 -0.16602,0.97656l-2.0215,-0.19531c0.39713,-2.35027 0.66406,-4.1276 0.80078,-5.332l0.0293,-0.23438h-1.9531v-1.7578h2.1582c0.18229,-1.57553 0.33854,-3.02737 0.46875,-4.3555zM291.5881,177.4992h-2.1387c-0.01953,0.33203 -0.07813,1.0319 -0.17578,2.0996l-0.0586,0.55664h2.168l0.0293,-0.27344c0.013,-0.1888 0.03253,-0.45247 0.0586,-0.79101c0.06513,-0.91147 0.1042,-1.44207 0.11719,-1.5918zM293.5119,177.4992c-0.03253,0.77473 -0.08136,1.63087 -0.14648,2.5684v0.0879h2.2949c0.02607,-0.89193 0.04887,-1.77733 0.0684,-2.6562zM291.2267,181.9133h-2.1973c-0.09765,0.79427 -0.20182,1.57877 -0.3125,2.3535l-0.0781,0.54687h2.2852c0.15625,-1.41273 0.25717,-2.37953 0.30274,-2.9004zM293.2287,181.9133c-0.01953,0.26042 -0.0586,0.69012 -0.11719,1.2891l-0.15625,1.6113h2.4902c0.03253,-0.63151 0.05857,-1.10677 0.0781,-1.4258c0.03907,-0.6966 0.0651,-1.18813 0.0781,-1.4746zM289.4006,172.2746h9.4336v1.8164h-10.244c-0.52735,1.0742 -1.19791,2.09633 -2.0117,3.0664l-1.3965,-1.5234c1.28253,-1.50393 2.194,-3.2357 2.7344,-5.1953l2.0801,0.21485c-0.23437,0.67707 -0.43294,1.21743 -0.5957,1.6211zM284.0197,175.1164c-0.8008,-1.10027 -1.7741,-2.13217 -2.9199,-3.0957l1.4746,-1.4258c1.0612,0.78127 2.07033,1.7676 3.0274,2.959zM283.31657,180.2726c-0.9896,-1.26953 -1.98893,-2.334 -2.998,-3.1934l1.5234,-1.4648c1.1328,0.89193 2.15167,1.90757 3.0566,3.0469zM280.66037,187.9386c1.1328,-1.569 2.20703,-3.63607 3.2227,-6.2012l1.7383,1.2402c-0.84633,2.3698 -1.93357,4.54427 -3.2617,6.5234z" fill="#ffffff" stroke-width="1"/><path d="M311.98,180.1v-5h-4.0137v-1.8555h4.0137v-2.7441h2.0606v2.7441h4.8633v1.8555h-4.8633v5h5.4394v1.8555h-5.0293c1.11327,2.56513 2.8841,4.4141 5.3125,5.5469l-1.3184,1.9336c-1.47133,-0.91147 -2.6074,-1.86523 -3.4082,-2.8613c-0.6966,-0.87893 -1.28253,-1.89457 -1.7578,-3.0469c-0.79427,2.7344 -2.69207,4.76567 -5.6934,6.0938l-1.3379,-1.7188c1.6992,-0.61198 2.9785,-1.44531 3.8379,-2.5c0.78127,-0.96353 1.3379,-2.11263 1.6699,-3.4473h-4.2676v3.9844h-5.1074v1.6406h-1.6602v-13.662h1.582v10.117h0.95703v-13.398h1.6797v13.398h1.0059v-10.117h1.543v6.1816zM309.3433,179.83632c-0.37109,-1.4258 -0.79103,-2.64323 -1.2598,-3.6523l1.7578,-0.625c0.52735,1.06773 0.96681,2.2689 1.3184,3.6035zM314.8413,179.27968c0.59896,-1.23047 1.07749,-2.50327 1.4356,-3.8184l1.9629,0.67383c-0.48177,1.36067 -1.04167,2.5944 -1.6797,3.7012z" fill="#ffffff" stroke-width="1"/></g></g></svg>