<svg version="1.1" xmlns="http://www.w3.org/2000/svg" xmlns:xlink="http://www.w3.org/1999/xlink" width="32" height="30" viewBox="0,0,32,30"><g transform="translate(-224,-165)"><g data-paper-data="{&quot;isPaintingLayer&quot;:true}" stroke="none" stroke-linecap="butt" stroke-linejoin="miter" stroke-miterlimit="10" stroke-dasharray="" stroke-dashoffset="0" style="mix-blend-mode: normal"><path d="M224,195v-30h32v30z" fill-opacity="0" fill="#000000" fill-rule="nonzero" stroke-width="4.0825"/><path d="M232,166h16c3.324,0 6,2.676 6,6v16c0,3.324 -2.676,6 -6,6h-16c-3.324,0 -6,-2.676 -6,-6v-16c0,-3.324 2.676,-6 6,-6z" fill="#e52a18" fill-rule="evenodd" stroke-width="1"/><path d="M243.25194,171.59973v2.42773h-6.375v3.73835c0.0033,-0.0021 0.0065,-0.0039 0.0098,-0.0059c0.6305,-0.38847 1.34246,-0.58525 2.1113,-0.58985h0.02934c0.8808,0.00396 1.67929,0.19574 2.3789,0.58204c0.72201,0.3893 1.28873,0.93808 1.6855,1.63092c0.41361,0.67701 0.62109,1.449 0.62109,2.29883v2.78323c0,0.93151 -0.22458,1.7776 -0.67383,2.51953h-0.002c-0.4295,0.73671 -1.02513,1.3291 -1.7773,1.76562v0.00214h-0.002c-0.7351,0.4202 -1.57914,0.63088 -2.5137,0.63478h-0.02738c-0.8104,-0.00341 -1.56951,-0.16341 -2.2637,-0.48048c-0.7006,-0.32 -1.28139,-0.77068 -1.7324,-1.34572l-0.002,-0.002v-0.002c-0.43332,-0.57551 -0.70488,-1.23001 -0.8125,-1.95312l-0.03516,-0.22656l2.6641,-0.50392l0.03125,0.26172c0.07982,0.6587 0.32633,1.11521 0.72656,1.42192c0.4138,0.30087 0.88215,0.44763 1.4414,0.44923c0.69965,-0.0037 1.18824,-0.21411 1.5469,-0.64845v-0.002l0.002,-0.002c0.38068,-0.44261 0.58398,-1.06204 0.58398,-1.88872v-2.78323c0,-0.67153 -0.20763,-1.19301 -0.62305,-1.61132c-0.4133,-0.41607 -0.90677,-0.61605 -1.5391,-0.61915c-0.52192,0.00319 -0.93521,0.18684 -1.3008,0.58595c-0.34913,0.3995 -0.52734,0.9115 -0.52734,1.57232v0.24219h-2.7168v-10.25213z" fill="#ffffff" fill-rule="nonzero" stroke-width="2.582"/><path d="M249.2033,175.09613v2.06253h-6.4023v-2.06253z" fill="#ffffff" fill-rule="nonzero" stroke-width="2.582"/></g></g></svg>