<svg xmlns="http://www.w3.org/2000/svg" xml:space="preserve" viewBox="0 0 400 400" version="1.1" height="400" width="400"><path style="mix-blend-mode:normal" stroke-width="0" stroke-miterlimit="10" fill="none" d="m0 400v-400h400v400z"></path><path style="paint-order:stroke fill markers" stroke-width="0" fill-rule="evenodd" fill="#4cd0a7" d="m150.0001 120h100c16.62 0 30 13.38 30 30v100c0 16.62-13.38 30-30 30h-100c-16.62 0-30-13.38-30-30v-100c0-16.62 13.38-30 30-30z"></path><path style="font-feature-settings:normal;font-variant-alternates:normal;font-variant-caps:normal;font-variant-east-asian:normal;font-variant-ligatures:normal;font-variant-numeric:normal;font-variant-position:normal;font-variation-settings:normal;inline-size:0;isolation:auto;mix-blend-mode:normal;shape-margin:0;shape-padding:0;text-decoration-color:#000000;text-decoration-line:none;text-decoration-style:solid;text-indent:0;text-orientation:mixed;text-transform:none;white-space:normal" stop-color="#000000" shape-rendering="auto" opacity=".75" image-rendering="auto" fill="#1c1c1c" color-rendering="auto" color="#000000" d="m199.97 142.99c-10.778 0-20.601 2.6713-29.393 8.0078-4.1314 2.5054-7.7014 5.5898-10.695 9.2441l-0.59961 0.73047 12.504 11.488 0.67773-0.70898c8.1919-8.5719 17.28-12.775 27.443-12.775 6.8014 0 11.704 2.0143 15.02 6.0176l2e-3 2e-3v2e-3c2.2202 2.6644 3.3144 5.7506 3.3144 9.4141 0 4.0433-1.5102 7.775-4.6484 11.326-2.801 3.1718-8.1316 7.415-15.918 12.592h-2e-3l-3.5469 2.3867c-18.279 12.186-29.595 24.714-33.781 37.713l-0.0469 0.14844v15.725h79.215v-17.469h-59.615c1.3618-2.7314 3.5099-5.7651 6.8652-9.1934v-2e-3c3.0982-3.1809 9.7476-8.2614 19.822-15.078l2e-3 -2e-3 4.125-2.7715 2e-3 -2e-3c9.5681-6.5084 16.113-11.714 19.713-15.758 5.3294-5.946 8.0527-12.53 8.0527-19.615 0-5.3673-1.3617-10.393-4.0684-15.008l-2e-3 -4e-3 -4e-3 -6e-3c-2.9316-4.8864-7.1245-8.7609-12.51-11.586h-2e-3l-2e-3 -2e-3c-6.2232-3.2219-13.547-4.8164-21.924-4.8164z"></path></svg>
