<svg xmlns="http://www.w3.org/2000/svg" viewBox="0 0 100 40" version="1.1" height="40" width="100"><rect style="paint-order:stroke markers fill" stroke-width="2" stroke-linejoin="round" stroke-linecap="round" stop-color="#000000" fill="none" height="40" width="100" y="-2.929687e-5" x="-1.464844e-5"></rect><g transform="translate(-17,-2281.97)"><g shape-rendering="auto" fill-rule="evenodd"><path style="font-feature-settings:normal;font-variant-alternates:normal;font-variant-caps:normal;font-variant-east-asian:normal;font-variant-ligatures:normal;font-variant-numeric:normal;font-variant-position:normal;font-variation-settings:normal;inline-size:0;isolation:auto;mix-blend-mode:normal;paint-order:stroke markers fill;shape-margin:0;shape-padding:0;text-decoration-color:#000000;text-decoration-line:none;text-decoration-style:solid;text-indent:0;text-orientation:mixed;text-transform:none;white-space:normal" stop-color="#000000" image-rendering="auto" fill="#7d97b4" color-rendering="auto" color="#000000" d="m39 2286c-9.3118 0-17 7.0939-17 16s7.6882 16 17 16h56c9.3118 0 17-7.0939 17-16s-7.6882-16-17-16z"></path><path style="font-feature-settings:normal;font-variant-alternates:normal;font-variant-caps:normal;font-variant-east-asian:normal;font-variant-ligatures:normal;font-variant-numeric:normal;font-variant-position:normal;font-variation-settings:normal;inline-size:0;isolation:auto;mix-blend-mode:normal;paint-order:stroke markers fill;shape-margin:0;shape-padding:0;text-decoration-color:#000000;text-decoration-line:none;text-decoration-style:solid;text-indent:0;text-orientation:mixed;text-transform:none;white-space:normal" stop-color="#000000" image-rendering="auto" fill="#31476d" color-rendering="auto" color="#000000" d="m39 2288h56c8.31 0 15 6.244 15 14s-6.69 14-15 14h-56c-8.31 0-15-6.244-15-14s6.69-14 15-14z"></path></g></g><path aria-label="効果音" fill="#fff" d="m38.39941 16.21973 0.06152-2.871094h1.374024l-0.04785 2.871094h2.707032q-0.102539 7.157226-0.492188 8.927734-0.164062 0.745117-0.540039 1.045898-0.369141 0.28711-1.182617 0.28711-0.786133 0-1.49707-0.08203l-0.280274-1.415039q0.806641 0.109375 1.456055 0.109375 0.4375 0 0.581054-0.246093 0.403321-0.697266 0.560547-7.266602h-1.408203q-0.18457 3.089844-0.929687 5.085938-0.881836 2.365234-2.426758 3.971679l-0.977539-1.066406q1.517578-1.490234 2.208008-3.75293 0.574218-1.859375 0.765625-4.238281h-1.811524v-1.032226h-7.075195v-1.298829h3.110351v-1.90039h1.456055v1.90039h2.768555v0.970704zm-5.646484 6.439453q-0.854493-0.970703-1.81836-1.832032l0.90918-0.957031q0.676758 0.581055 1.661133 1.558594 0.526367-0.943359 0.916015-1.93457l1.257813 0.615234q-0.389649 1.011719-1.168945 2.399414 0.765625 0.861328 1.353515 1.633789l-1.066406 1.134766q-0.594727-0.861328-1.107422-1.497071-1.223633 1.729493-2.871094 2.823243l-1.107422-1.16211q1.832032-1.011719 3.041993-2.782226zm-3.472657-2.91211q1.319336-0.991211 2.25586-2.871093l1.189453 0.628906q-0.936524 1.982422-2.454102 3.219726zm6.747071 0.444336q-0.922852-1.346679-2.242188-2.713867l1.052735-0.738281q1.291992 1.203125 2.139648 2.447265zm15.85254 1.524414q2.037109 1.763672 4.956054 2.857422l-0.922851 1.319336q-3.130859-1.408203-5.147461-3.677734v4.436523h-1.483398v-4.381836q-1.948243 2.508789-5.010743 3.875977l-0.909179-1.230469q2.905273-1.114258 4.956054-3.199219h-4.901367v-1.216797h5.865235v-1.018554h-4.621094v-5.612305h10.81445v5.612305h-4.709961v1.018554h5.954102v1.216797zm-5.762696-6.753906v1.114258h3.16504v-1.114258zm0 2.194336v1.230469h3.16504v-1.230469zm7.902344 1.230469v-1.230469h-3.253906v1.230469zm0-2.310547v-1.114258h-3.253906v1.114258zm10.74609-1.456055h4.956055v1.216797h-1.934571q-0.341797 1.073242-0.751953 1.975586h3.684571v1.244141h-13.30274v-1.244141h3.588867q-0.280273-0.950195-0.758789-1.975586h-1.838867v-1.216797h4.860352v-1.271484h1.49707zm-2.905273 1.216797q0.40332 0.922852 0.710937 1.975586h2.932617q0.403321-0.936523 0.69043-1.975586zm6.726562 4.163086v6.651367h-1.524414v-0.717773h-6.008789v0.717773h-1.510742v-6.651367zm-7.533203 1.162109v1.189453h6.008789v-1.189453zm0 2.283203v1.3125h6.008789v-1.3125z"></path></svg>
