<svg version="1.1" xmlns="http://www.w3.org/2000/svg" xmlns:xlink="http://www.w3.org/1999/xlink" width="208" height="32" viewBox="0,0,208,32"><g transform="translate(-240,-164)"><g data-paper-data="{&quot;isPaintingLayer&quot;:true}" fill-rule="nonzero" stroke="none" stroke-linecap="butt" stroke-linejoin="miter" stroke-miterlimit="10" stroke-dasharray="" stroke-dashoffset="0" style="mix-blend-mode: normal"><path d="M240,196v-32h208v32z" fill="none" stroke-width="0"/><path d="M248.84,174.08v-3.584h2.1973v3.584h7.2461v10.332h-2.1582v-1.3574h-5.0879v6.4453h-2.1973v-6.4453h-4.9609v1.4648h-2.1582v-10.439zM243.8791,176.082v4.9707h4.9609v-4.9707zM256.1251,181.0527v-4.9707h-5.0879v4.9707z" fill="#ffffff" stroke-width="1"/><path d="M271.91,179.4c1.92707,2.4284 4.52147,4.49547 7.7832,6.2012l-1.3574,2.0215c-2.91667,-1.6992 -5.35157,-3.89647 -7.3047,-6.5918v8.4668h-2.1973v-8.2812c-1.72527,2.793 -4.06577,5.05213 -7.0215,6.7774l-1.3965,-1.8359c1.84893,-0.95053 3.40493,-2.03127 4.668,-3.2422c1.00913,-0.96353 1.9857,-2.1354 2.9297,-3.5156h-7.1973v-1.9238h8.0176v-6.9824h2.1973v6.9824h8.1445v1.9238zM264.4198,176.9293c-0.82033,-1.73827 -1.64063,-3.2031 -2.4609,-4.3945l1.8359,-1.0059c1.0026,1.28253 1.85547,2.71807 2.5586,4.3066zM273.16,176.15782c0.99607,-1.45833 1.88147,-3.07293 2.6562,-4.8438l2.0801,0.95703c-0.8008,1.63413 -1.7676,3.21617 -2.9004,4.7461z" fill="#ffffff" stroke-width="1"/></g></g></svg>