<svg version="1.1" xmlns="http://www.w3.org/2000/svg" xmlns:xlink="http://www.w3.org/1999/xlink" width="208" height="32" viewBox="0,0,208,32"><g transform="translate(-240,-164)"><g data-paper-data="{&quot;isPaintingLayer&quot;:true}" fill-rule="nonzero" stroke="none" stroke-linecap="butt" stroke-linejoin="miter" stroke-miterlimit="10" stroke-dasharray="" stroke-dashoffset="0" style="mix-blend-mode: normal"><path d="M240,196v-32h208v32z" fill="none" stroke-width="0"/><path d="M245.19,187.08v-5.8398h2.041v1.6406h3.7012v1.6797h-3.7012v2.2168c1.6016,-0.26041 2.8744,-0.49804 3.8184,-0.71289l0.0586,1.6406c-2.14847,0.61198 -4.5801,1.11001 -7.2949,1.4941l-0.5664,-1.875c0.6966,-0.07813 1.3444,-0.15951 1.9434,-0.24414zM251.1177,172.119h7.8516v1.6797h-5.5664v1.7188h4.8633v5.127h-14.58c-0.03907,2.05727 -0.14323,3.66207 -0.3125,4.8144c-0.21485,1.47133 -0.64455,2.81247 -1.2891,4.0234l-1.7969,-1.4551c0.61198,-1.2044 1.00261,-2.6367 1.1719,-4.2969c0.12369,-1.21747 0.18554,-2.85483 0.18554,-4.9121v-6.6992h7.3047v-1.6211h2.168zM243.7056,173.7987v1.7188h2.9004v-1.7188zM243.7056,177.0799v2.002h2.9004v-2.002zM256.2056,179.0819v-2.002h-2.8027v2.002zM248.608,173.7987v1.7188h2.793v-1.7188zM248.608,177.0799v2.002h2.793v-2.002zM253.7056,183.2811c1.41273,-0.48177 2.63343,-1.04167 3.6621,-1.6797l1.2988,1.582c-1.46487,0.71613 -3.1185,1.32487 -4.9609,1.8262v1.4844c0,0.39063 0.12044,0.61849 0.36133,0.68359c0.20182,0.0586 0.68035,0.0879 1.4356,0.0879c0.90493,0 1.43553,-0.0944 1.5918,-0.2832c0.14323,-0.16927 0.2474,-0.7487 0.3125,-1.7383l0.0195,-0.30273l2.002,0.53711c-0.013,0.08463 -0.03253,0.32552 -0.0586,0.72265c-0.09765,1.26953 -0.38086,2.08983 -0.84961,2.4609c-0.46223,0.37109 -1.62433,0.55664 -3.4863,0.55664c-1.31513,0 -2.1908,-0.09766 -2.627,-0.29297c-0.48177,-0.22135 -0.72265,-0.69662 -0.72265,-1.4258v-6.2598h2.0215z" fill="#ffffff" stroke-width="1"/><path d="M277.58,171.07v9.7266h-10.117v-9.7266zM269.582,172.8278v2.2266h5.8594v-2.2266zM269.582,176.734v2.3438h5.8594v-2.3438zM262.6191,170.6891h2.2559v10.84h-2.2559zM260.5585,187.7301c1.6862,-0.16927 3.05663,-0.64777 4.1113,-1.4355c0.72267,-0.54037 1.20443,-1.2728 1.4453,-2.1973c0.13672,-0.53385 0.23112,-1.31512 0.2832,-2.3438h2.1582c-0.01953,2.4414 -0.55013,4.24803 -1.5918,5.4199c-1.0156,1.13933 -2.71807,1.95313 -5.1074,2.4414zM271.1055,181.6949h2.1973v4.834c0,0.33855 0.10742,0.54037 0.32227,0.60547c0.22786,0.07161 0.68359,0.10742 1.3672,0.10742c0.73567,0 1.2272,-0.03906 1.4746,-0.11718c0.26042,-0.08464 0.42969,-0.3418 0.50782,-0.77149c0.09114,-0.44271 0.14648,-1.12304 0.16601,-2.041l2.2266,0.64453c-0.02607,0.24739 -0.06513,0.69336 -0.11718,1.3379c-0.11719,1.35413 -0.41992,2.2005 -0.90821,2.5391c-0.27343,0.18229 -0.6673,0.29623 -1.1816,0.3418c-0.7096,0.0586 -1.57873,0.0879 -2.6074,0.0879c-1.4258,0 -2.3568,-0.12695 -2.793,-0.38086c-0.43619,-0.26042 -0.65429,-0.77149 -0.65429,-1.5332z" fill="#ffffff" stroke-width="1"/><path d="M287.74,171.98c0.24089,-0.57943 0.4362,-1.13283 0.58594,-1.6602l2.3828,0.32226c-0.22787,0.54037 -0.4362,0.98633 -0.625,1.3379h6.5039v6.3672h-11.797v0.98633h14.697v1.582h-14.697v0.99609h14.014c-0.08463,2.9818 -0.27343,4.99353 -0.5664,6.0352c-0.18881,0.66406 -0.54364,1.10353 -1.0645,1.3184c-0.37109,0.15625 -0.93749,0.23437 -1.6992,0.23437c-0.78127,0 -1.51043,-0.04883 -2.1875,-0.14648l-0.39063,-1.6406h-9.7852v1.084h-2.0996v-4.6973h2.0996v2.0117h3.3594v-2.6367h-3.8379v-11.494zM291.8904,186.111v-2.0117h2.0215v3.3984c0.54036,0.05207 0.98956,0.0781 1.3476,0.0781c0.44271,0 0.7194,-0.12695 0.83008,-0.38085c0.21485,-0.47527 0.38412,-1.7155 0.50781,-3.7207h-8.0273v2.6367zM284.7908,173.484v0.96679h9.6387v-0.96679zM284.7908,175.8473v1.0644h9.6387v-1.0644z" fill="#ffffff" stroke-width="1"/><path d="M316.76,170.98v9.4629h-11.621v-9.4629zM307.2385,172.523v1.2207h7.4023v-1.2207zM307.2385,175.1207v1.2207h7.4023v-1.2207zM307.2385,177.7183v1.2598h7.4023v-1.2598zM303.3029,181.7417h16.191v1.6992h-8.0762v6.0644h-2.2168v-6.0644h-8.0371v-10.957h2.1387zM300.8029,187.6401c1.54947,-0.71613 3.0306,-1.9173 4.4434,-3.6035l1.7969,1.0449c-1.3932,1.76433 -2.93943,3.15107 -4.6387,4.1602zM317.6389,188.8999c-0.99607,-1.22393 -2.49347,-2.50973 -4.4922,-3.8574l1.6797,-1.1816c1.569,0.90493 3.1087,2.09307 4.6191,3.5644z" fill="#ffffff" stroke-width="1"/><path d="M331.36,177.52c0.44922,1.52347 1.30209,3.14457 2.5586,4.8633c1.52993,2.09633 3.41143,3.7565 5.6445,4.9805l-1.3965,2.0117c-2.36327,-1.3932 -4.33593,-3.2389 -5.918,-5.5371c-0.85287,-1.25 -1.53647,-2.5228 -2.0508,-3.8184c-0.51432,1.7448 -1.31185,3.3301 -2.3926,4.7559c-1.58853,2.1094 -3.55143,3.6654 -5.8887,4.668l-1.377,-1.7871c2.44793,-1.02213 4.42383,-2.59767 5.9277,-4.7266c1.263,-1.79687 2.0117,-3.60027 2.2461,-5.4102h-7.793v-2.1191h7.8809v-4.707h2.2559v4.707h8.0469v2.1191z" fill="#ffffff" stroke-width="1"/><path d="M343,185.18v4.3262h-1.9629v-18.223h5.1465l0.97656,0.83984c-0.53385,2.07033 -1.16862,3.9193 -1.9043,5.5469c0.91147,1.36067 1.3672,2.88737 1.3672,4.5801c0,1.08073 -0.16601,1.87173 -0.49804,2.373c-0.3125,0.46875 -0.88543,0.70313 -1.7188,0.70313c-0.60547,0 -1.07421,-0.04883 -1.4062,-0.14649zM343,183.3148c0.37109,0.0586 0.69987,0.0879 0.98632,0.0879c0.31901,0 0.52735,-0.14974 0.625,-0.44922c0.08464,-0.26042 0.12696,-0.63802 0.12696,-1.1328c0,-1.36067 -0.42643,-2.70833 -1.2793,-4.043c0.6836,-1.6406 1.21093,-3.19333 1.582,-4.6582h-2.041zM354.865,184.3207c-0.11719,-0.42318 -0.26693,-0.87565 -0.44922,-1.3574l1.2109,-0.45898c0.50781,1.13933 0.91471,2.4577 1.2207,3.9551l-1.4551,0.625c-0.07161,-0.48177 -0.14974,-0.91471 -0.23437,-1.2988c-1.64713,0.33203 -3.47657,0.57617 -5.4883,0.73242l-0.38086,-1.7773c1.15233,-0.0456 2.0117,-0.09117 2.5781,-0.13672c0.09766,-0.00667 0.17904,-0.01317 0.24414,-0.0195v-2.4609h-3.2226v7.3828h-1.8555v-9.1016h5.0781v-1.3184h-4.3359v-7.7246h10.361v7.7246h-4.3457v1.3184h5.2832v7.2949c0,0.6836 -0.22136,1.1426 -0.66407,1.377c-0.3125,0.16927 -0.78777,0.2539 -1.4258,0.2539c-0.65104,0 -1.34114,-0.04883 -2.0703,-0.14648l-0.26367,-1.8652c0.20182,0.02607 0.55339,0.0749 1.0547,0.14649c0.37761,0.05207 0.70638,0.0781 0.98633,0.0781c0.22135,0 0.35807,-0.07487 0.41016,-0.22461c0.03253,-0.08463 0.0488,-0.21159 0.0488,-0.38086v-4.8144h-3.418v2.3242c0.40365,-0.0456 0.78125,-0.08792 1.1328,-0.12695zM349.6306,173.0027v1.3965h2.4805v-1.3965zM349.6306,175.9421v1.5625h2.4805v-1.5625zM356.2712,177.5046v-1.5625h-2.4805v1.5625zM356.2712,174.3991v-1.3965h-2.4805v1.3965z" fill="#ffffff" stroke-width="1"/><path d="M370.23,178.41v7.7344c0,0.5013 0.21485,0.80403 0.64454,0.9082c0.44271,0.11068 1.45507,0.16602 3.0371,0.16602c1.54293,0 2.5618,-0.07813 3.0566,-0.23438c0.27995,-0.09115 0.46224,-0.34505 0.54687,-0.76172c0.11068,-0.58593 0.16927,-1.2793 0.17578,-2.0801l2.041,0.57618c-0.10417,1.9206 -0.36784,3.1478 -0.79102,3.6816c-0.27995,0.35156 -0.70311,0.55989 -1.2695,0.625c-0.89193,0.09765 -2.4056,0.14648 -4.541,0.14648c-1.65367,0 -2.73767,-0.04557 -3.252,-0.13672c-0.77473,-0.13021 -1.26627,-0.47201 -1.4746,-1.0254c-0.10417,-0.29297 -0.15625,-0.6836 -0.15625,-1.1719v-7.7441l-1.8652,0.64453l-0.45899,-1.8945l2.3242,-0.80078v-5.2637h1.9824v4.5801l2.0996,-0.71289v-5.1465h1.9629v4.4629l3.2715,-1.123l1.0254,0.625v7.3144c0,0.50781 -0.12044,0.88541 -0.36133,1.1328c-0.27343,0.27343 -0.73243,0.41015 -1.377,0.41015c-0.52735,0 -1.08725,-0.04557 -1.6797,-0.13672l-0.32226,-1.8652c0.38411,0.09765 0.77475,0.14648 1.1719,0.14648c0.28646,0 0.46224,-0.05859 0.52734,-0.17578c0.06513,-0.09765 0.0977,-0.26041 0.0977,-0.48828v-4.6191l-2.3535,0.82031v7.9004h-1.9629v-7.2266zM363.0523,175.2166v-4.7168h2.0996v4.7168h1.8945v1.9824h-1.8945v6.2109c0.6836,-0.23437 1.36067,-0.47851 2.0312,-0.73242l0.18555,1.8848c-2.1094,0.96353 -4.2741,1.77083 -6.4941,2.4219l-0.6836,-2.0801c1.0026,-0.26041 1.8815,-0.50781 2.6367,-0.74218c0.09115,-0.03253 0.16602,-0.05533 0.22461,-0.0684v-6.8945h-2.4805v-1.9824z" fill="#ffffff" stroke-width="1"/><path d="M389.48,175.76c-0.0456,1.08727 -0.1107,2.0443 -0.19531,2.8711h7.8711c-0.09765,4.51827 -0.35156,7.4512 -0.76172,8.7988c-0.20833,0.67707 -0.5957,1.1458 -1.1621,1.4062c-0.44271,0.20182 -1.09051,0.30273 -1.9434,0.30273c-0.89847,0 -1.91733,-0.06836 -3.0566,-0.20507l-0.38085,-2.1973c1.52993,0.21485 2.6074,0.32227 3.2324,0.32227c0.52734,0 0.86264,-0.14974 1.0059,-0.44922c0.34505,-0.7292 0.58593,-2.74093 0.72265,-6.0352h-5.8105c-0.21485,1.17187 -0.51758,2.1875 -0.90821,3.0469c-1.08727,2.37627 -2.90367,4.26103 -5.4492,5.6543l-1.543,-1.7188c2.55207,-1.32813 4.23827,-3.06967 5.0586,-5.2246c0.54687,-1.4388 0.90167,-3.62957 1.0644,-6.5723h-6.4648v-2.002h7.9785v-3.2617h2.2559v3.2617h8.2422v2.002z" fill="#ffffff" stroke-width="1"/></g></g></svg>