<svg version="1.1" xmlns="http://www.w3.org/2000/svg" xmlns:xlink="http://www.w3.org/1999/xlink" width="90.99633" height="88.57647" viewBox="0,0,90.99633,88.57647"><g transform="translate(-283.09326,-91.90992)"><g data-paper-data="{&quot;isPaintingLayer&quot;:true}" fill="#ff0000" fill-rule="evenodd" stroke="none" stroke-width="0" stroke-linecap="round" stroke-linejoin="round" stroke-miterlimit="10" stroke-dasharray="" stroke-dashoffset="0" style="mix-blend-mode: normal"><path d="M371.72968,111.51918l-0.90996,0.58998l-0.23999,0.96996l0.43998,1.08996l1.21995,0.91996l1.60994,1.94992v2.5699l0.23999,1.00996l-0.58998,0.56998l-0.85997,-0.30999l-2.88988,-0.27999l-1.87992,1.49994l-0.63997,-0.87996l-1.24995,0.07l0.24999,-1.31995l-1.54994,0.21999l-0.37998,1.72993l-2.09992,2.3799l1.25995,1.21995l-0.65997,1.10996l-1.08996,0.92996l-1.26995,0.36999l0.30999,1.31995l-0.51998,1.16995l-1.30995,0.69997l0.41998,2.11992l1.16995,1.28995v1.56994l-0.53998,0.16999l-0.81997,1.23995l-0.14999,1.77993l0.52998,0.87996l-0.96996,0.80997l-0.04,1.48994l-0.89996,0.22999l-0.88996,-0.34999l-1.02996,0.82997l-0.36999,1.30995l-0.89996,0.73997l1.56994,1.58994l-0.83997,1.19995l1.06996,0.81997l-0.04,0.94996l1.04996,1.12995l-0.13999,1.76993l0.58998,0.50998l0.36999,1.64993l-1.70993,0.95996l0.08,0.97996l-1.04996,1.30995l-1.16995,-0.55998l-0.50998,-0.67997l-1.62993,0.93996l-0.87996,-0.70997l-0.20999,-0.80997l-1.43994,0.86997l-2.27991,0.88996l-0.92996,0.73997l-1.19995,-0.55998l-1.29995,0.12l-1.01996,-0.47998l-1.20995,1.94992l0.07,0.97996l-3.12987,-1.07996l-1.81993,0.59998l-0.18999,1.06996l-1.24995,0.99996l0.49998,0.81997l-0.62997,1.05996l0.78997,0.92996l-2.91988,0.43998l-0.05,3.47986l-0.14999,0.64997l-1.57994,0.76997l-0.66997,-0.82997l-1.15995,-0.06l-0.91996,0.68997l-0.73997,-0.85997l-1.90992,0.77997l-1.03996,0.89996l-1.18995,-1.31995l-3.54986,1.38994l-1.56994,-0.27999l-0.73997,-1.50994l-1.74993,-1.74993l-0.31999,-1.43994l-0.64997,0.07l-2.6099,-0.82997l-0.76997,-1.27995l-0.13999,-2.62989l1.32995,-2.05992l0.87996,-2.78989l0.04,-2.4899l0.42998,-1.74993l-0.05,-1.80993l0.47998,-0.93996l-0.53998,-0.59998l-0.49998,2.26991l-0.33999,3.21987l-0.32999,1.29995l-1.20995,2.4499l-1.29995,0.03l0.15999,1.39994l-1.53994,2.5399l-0.1,1.14995l0.59998,1.09996l-0.84997,0.29999l-0.14999,1.65993l-0.53998,0.35999l0.11,2.16991l-0.50998,1.24995l-0.12,1.56994l1.21995,0.71997l0.04,0.84997l0.73997,0.40998l1.71993,1.90992l1.23995,0.45998l0.83997,2.15991l-0.28999,0.75997l0.38998,1.31995l-1.32995,-0.23999l-1.78993,0.07l-3.23987,-1.64993l-2.17991,-0.79997l-1.66993,-1.12995l-1.28995,-1.27995l-1.67993,-2.62989l1.40994,-3.79985l0.57998,-2.4999l0.46998,-2.90988l-0.93996,-2.92988l-1.60994,-1.91992l-1.35995,0.30999l-0.57998,-1.08996l0.42998,-1.01996l-0.37998,-1.14995v-1.59994l0.40998,-4.60982l0.25999,-1.02996l-0.82997,-0.60998l2.5699,-3.97984l-0.24999,-0.69997l2.64989,-4.57982l0.88996,-0.62997l1.03996,-2.80989l0.07,-2.3899l-1.49994,-0.06l-1.97992,4.12983l-1.28995,-0.31999l0.63997,-2.3799l-0.16999,-0.52998l-1.92992,0.05l-0.49998,0.57998l0.06,1.17995l0.99996,0.52998l-0.34999,1.66993l-3.31987,-0.14999l0.37998,0.82997l-0.05,1.93992l-1.40994,-0.83997l-0.52998,0.25999l1.57994,1.37994l-0.26999,0.94996l-1.64993,-0.93996l-0.67997,0.09l0.20999,-0.35999l-1.17995,-1.62993l-0.74997,-1.86993l-0.37998,-3.37986l-1.82993,-2.02992l-1.71993,-0.95996l-1.88992,-2.3799l-1.87992,-0.51998l-0.35999,-0.71997l0.14999,-2.16991l-0.31999,-2.5599l0.12,-1.87992l1.07996,-1.34995l-0.51998,-5.0998l1.80993,-2.09992l1.01996,-2.36991l1.31995,-1.31995l0.88996,-1.33995l0.81997,-1.98992l1.35995,-2.5199l0.89996,-2.5399l0.89996,-1.18995l0.75997,-0.32999l1.87992,0.15999l0.96996,0.99996l3.00988,0.50998l2.69989,-1.51994l0.35999,-0.51998l2.12991,-0.59998l3.58986,-0.19999l1.29995,-1.10996l2.65989,-1.41994l-0.06,-1.81993l0.32999,-0.77997l2.12991,-0.42998l-0.11,1.54994l0.68997,2.29991l0.76997,0.36999l0.28999,1.05996l2.6199,0.74997l0.56998,0.88996l1.10996,0.08l0.46998,0.95996l-0.34999,2.4499l0.35999,0.63997l1.18995,-0.56998l0.63997,0.40998l0.47998,1.12995l-0.88996,0.70997l0.80997,1.71993l0.75997,-0.02l0.14999,1.78993l1.75993,-0.04l0.20999,-1.10996l3.05988,0.97996l1.41994,1.68993l1.96992,-0.29999l1.10996,1.48994l-0.02,1.18995l0.80997,0.76997l1.54994,0.31999l1.12995,-1.00996l1.32995,0.38998l1.89992,-1.46994h0.62997l1.27995,-2.03992l1.15995,-0.44998l0.85997,0.13999l2.08992,-0.34999l2.18991,1.23995l1.88992,0.81997l-0.45998,1.12995l0.40998,0.81997l1.78993,-0.37998l2.30991,0.26999l-0.18999,1.46994l0.49998,0.80997l1.27995,-0.17999l0.78997,0.81997l0.78997,-0.67997l0.80997,1.65993l0.97996,0.33999l0.73997,-1.17995l1.12995,-0.82997l0.86997,-0.07l1.44994,-1.50994l1.99992,-0.68997l1.74993,-1.33995l0.72997,-1.74993l2.19991,0.45998l1.45994,-0.42998l0.39998,-0.64997l0.86997,0.76997l-1.47994,1.29995l0.15999,0.96996"/><path d="M298.33262,162.31715l-1.79993,0.34999l-0.79997,-3.61986l0.72997,-0.24999l0.95996,0.67997l0.79997,1.56994l0.11,1.26995"/><path d="M297.03268,140.61802l-0.09,-2.76989h2.08992l0.80997,2.33991l-2.10992,0.50998l-0.69997,-0.08"/><path d="M296.83268,142.31795l1.26995,-0.58998v1.16995l-0.96996,1.46994l-1.17995,-0.92996l0.87996,-1.11996"/><path d="M302.43246,137.81813l0.49998,-1.58994l0.78997,-1.08996l0.40998,0.17999l-0.71997,2.25991l-0.97996,0.23999"/><path d="M300.33254,138.81809l-0.60998,-1.23995l1.06996,-0.51998l0.62997,0.09l-0.29999,1.39994l-0.78997,0.26999"/><path d="M320.03175,176.51658l1.36995,0.68997l-0.44998,0.92996l-0.91996,-1.61994"/><path d="M298.13263,148.6177l-0.17999,1.36995l-0.92996,-0.61998l1.10996,-0.74997"/></g></g></svg>