<svg version="1.1" xmlns="http://www.w3.org/2000/svg" xmlns:xlink="http://www.w3.org/1999/xlink" width="208" height="32" viewBox="0,0,208,32"><g transform="translate(-240,-164)"><g data-paper-data="{&quot;isPaintingLayer&quot;:true}" fill-rule="nonzero" stroke="none" stroke-linecap="butt" stroke-linejoin="miter" stroke-miterlimit="10" stroke-dasharray="" stroke-dashoffset="0" style="mix-blend-mode: normal"><path d="M240,196v-32h208v32z" fill="none" stroke-width="0"/><path d="M258.08,175.78h1.5039v1.7969h-1.5039v4.5996h-4.9805c-0.11719,1.8034 -0.49152,3.2487 -1.123,4.3359c-0.8008,1.38673 -1.81967,2.46097 -3.0566,3.2227l-1.5625,-1.5625c1.1914,-0.69013 2.1354,-1.6309 2.832,-2.8223c0.46224,-0.8008 0.73568,-1.85873 0.82032,-3.1738h-4.0527v-1.8164h4.082v-2.7832h-5.5762v-1.7969h5.5762v-2.6074h-3.7793v-1.8164h10.82zM256.0194,175.78v-2.6074h-2.9004v2.6074zM256.0194,177.5769h-2.9004v2.7832h2.9004zM244.9554,175.3406v14.16h-2.0996v-10.02c-0.48177,0.79427 -1.02864,1.61457 -1.6406,2.4609l-0.99609,-2.1777c1.10027,-1.49087 2.03127,-3.2031 2.793,-5.1367c0.47526,-1.19793 0.94399,-2.62047 1.4062,-4.2676l2.1191,0.53711c-0.50781,1.6992 -1.03515,3.18033 -1.582,4.4434z" fill="#ffffff" stroke-width="1"/><path d="M274.12,177.03c0.60547,0.59245 1.14583,1.17511 1.6211,1.748l-1.0644,1.5137c-0.46224,-0.56641 -0.86264,-1.03191 -1.2012,-1.3965c-0.51432,1.09373 -1.21419,2.02147 -2.0996,2.7832l-1.3184,-1.3867c0.89193,-0.76827 1.569,-1.71227 2.0312,-2.832c-0.51433,-0.48828 -0.95053,-0.86588 -1.3086,-1.1328c-0.09765,0.49479 -0.25716,0.80078 -0.47851,0.91797c-0.31901,0.16927 -0.91148,0.25391 -1.7774,0.25391c-0.89193,0 -1.50717,-0.06836 -1.8457,-0.20508v0.74219h2.8223v1.2598h-2.8223v0.87891c0.07161,-0.013 0.14974,-0.02277 0.23437,-0.0293c0.6836,-0.05207 1.70573,-0.16274 3.0664,-0.33203v1.2598c-2.2396,0.45573 -5.17907,0.81053 -8.8184,1.0644l-0.41992,-1.543c1.4388,-0.07161 2.77343,-0.15625 4.0039,-0.2539v-1.0449h-2.9883v-1.2598h2.9883v-1.3379h1.4844c-0.01953,-0.13021 -0.0293,-0.27018 -0.0293,-0.41992v-1.0645h-1.3184c-0.57943,1.4258 -1.81966,2.36657 -3.7207,2.8223l-0.82031,-1.3184c1.25653,-0.30599 2.11267,-0.80729 2.5684,-1.5039h-2.4121v-1.3184h4.1992v-0.89843h-3.3984v-1.3574h3.3984v-1.1426h1.9434v1.1426h3.1055v1.3574h-3.1055v0.89843h3.7988v-1.5234h2.373l0.0879,-1.875h1.8652l-0.0879,1.875h2.9883c-0.06513,1.10027 -0.0977,2.08987 -0.0977,2.9688c0,1.888 0.10417,3.24543 0.3125,4.0723c0.03253,0.11719 0.06183,0.17578 0.0879,0.17578c0.05207,0 0.13019,-0.1888 0.23438,-0.5664c0.12369,-0.45573 0.23111,-1.00587 0.32226,-1.6504l1.3184,1.084c-0.36458,2.27213 -1.02211,3.4082 -1.9726,3.4082c-0.50131,0 -0.94077,-0.32226 -1.3184,-0.96679c-0.56641,-0.97007 -0.84961,-2.80927 -0.84961,-5.5176c0,-0.37109 0.00333,-0.83333 0.01,-1.3867h-1.2012c-0.08463,1.21747 -0.21484,2.22983 -0.39062,3.0371zM272.5673,175.653l0.0391,-0.24414c0.06513,-0.48829 0.11071,-0.96029 0.13672,-1.416h-2.2461v1.2207h-2.5v0.57618c0,0.1888 0.04232,0.30599 0.12695,0.35156c0.09115,0.0456 0.25065,0.0684 0.47852,0.0684c0.3125,0 0.50456,-0.04557 0.57617,-0.13672c0.05207,-0.0586 0.0781,-0.25066 0.0781,-0.57617l1.5527,0.54687l0.73242,-1.2109c0.3125,0.24089 0.6543,0.51433 1.0254,0.82032zM270.5556,184.6178c-1.04167,2.74087 -3.92577,4.40103 -8.6523,4.9805l-0.94727,-1.6602c3.8216,-0.45573 6.24347,-1.56249 7.2656,-3.3203h-6.7188v-1.6211h7.2363l0.13671,-1.3379h2.168l-0.14648,1.3379h7.6074c-0.18229,2.60413 -0.46224,4.3066 -0.83984,5.1074c-0.28646,0.59896 -0.73243,0.98959 -1.3379,1.1719c-0.3125,0.09766 -0.77473,0.14649 -1.3867,0.14649c-1.02213,0 -2.194,-0.06836 -3.5156,-0.20508l-0.38086,-1.7773c1.28907,0.1888 2.347,0.2832 3.1738,0.2832c0.57292,0 0.96029,-0.10417 1.1621,-0.3125c0.34505,-0.35156 0.59245,-1.28256 0.74219,-2.793z" fill="#ffffff" stroke-width="1"/><path d="M285.02,177.79c0.50781,0 0.96681,0.16927 1.377,0.50781c0.54036,0.44271 0.81054,1.00911 0.81054,1.6992c0,0.42318 -0.12044,0.81705 -0.36133,1.1816c-0.43619,0.67707 -1.05469,1.0156 -1.8555,1.0156c-0.35157,0 -0.68687,-0.08464 -1.0059,-0.25391c-0.25391,-0.13021 -0.46875,-0.30273 -0.64453,-0.51758c-0.35807,-0.42317 -0.53711,-0.90494 -0.53711,-1.4453c0,-0.7552 0.31575,-1.35417 0.94726,-1.7969c0.37761,-0.26041 0.80077,-0.39062 1.2695,-0.39062z" fill="#ffffff" stroke-width="1"/><path d="M292.06,172.3h15.859v2.0801h-15.859zM293.1635,178.7453h13.672v2.0215h-13.672zM290.8002,185.718h18.398v2.0801h-18.398z" fill="#ffffff" stroke-width="1"/><path d="M327.72,173.66v13.711c0,0.8008 -0.20833,1.34767 -0.625,1.6406c-0.33203,0.22787 -0.89843,0.3418 -1.6992,0.3418c-0.99607,0 -1.9824,-0.04557 -2.959,-0.13672l-0.49805,-2.0801c1.1784,0.14974 2.2038,0.22461 3.0762,0.22461c0.3125,0 0.5013,-0.05859 0.56641,-0.17578c0.05207,-0.09115 0.0781,-0.26042 0.0781,-0.50781v-13.018h-10.107v-1.9238h14.082v1.9238zM323.8528,176.16v7.7539h-5.0293v1.5039h-1.9434v-9.2578zM318.8235,177.8592v4.3359h3.1445v-4.3359zM313.9602,175.4178c-1.0482,-1.237 -2.1094,-2.2917 -3.1836,-3.1641l1.4844,-1.4356c1.1914,0.8854 2.24283,1.89777 3.1543,3.0371zM313.45238,180.4569c-1.11327,-1.28907 -2.14517,-2.33723 -3.0957,-3.1445l1.4356,-1.4746c1.11327,0.79427 2.18097,1.80663 3.2031,3.0371zM310.65938,187.8788c1.3216,-1.8164 2.57487,-4.0983 3.7598,-6.8457l1.7188,1.2012c-0.93747,2.59113 -2.16467,4.99023 -3.6816,7.1973z" fill="#ffffff" stroke-width="1"/><path d="M345.09,173.8v3.7793c0,0.42969 -0.09115,0.74545 -0.27344,0.94727c-0.21484,0.23437 -0.69011,0.35156 -1.4258,0.35156c-0.70313,0 -1.2793,-0.03906 -1.7285,-0.11718l-0.25391,-1.6211c0.51433,0.10417 0.94726,0.15625 1.2988,0.15625c0.1888,0 0.30924,-0.04557 0.36133,-0.13672c0.03907,-0.07812 0.0586,-0.20507 0.0586,-0.38086v-2.9785h-1.7383c-0.05207,1.37367 -0.23436,2.42837 -0.54687,3.1641c-0.34505,0.8008 -1.05795,1.53323 -2.1387,2.1973l-1.3965,-1.2402c0.97653,-0.50781 1.6048,-1.16211 1.8848,-1.9629c0.16927,-0.5013 0.27344,-1.2207 0.3125,-2.1582h-3.8574v-1.6602h5.5566v-1.6406h2.1484v1.6406h6.1328v1.6602zM348.1076,179.3371v3.9648h-9.6387c-0.05207,0.35807 -0.11392,0.71614 -0.18555,1.0742h10.664c-0.16276,1.7904 -0.38737,3.0176 -0.67382,3.6816c-0.41667,0.96353 -1.39323,1.4453 -2.9297,1.4453c-1.27607,0 -2.6465,-0.05534 -4.1113,-0.16601l-0.36133,-1.7774c1.39973,0.14974 2.653,0.22461 3.7598,0.22461c0.59896,0 0.99283,-0.06836 1.1816,-0.20508c0.29297,-0.21484 0.52083,-0.77474 0.68359,-1.6797h-8.5938c-0.07161,0.26693 -0.19531,0.66733 -0.37109,1.2012l-2.0996,-0.41992c0.49479,-1.4844 0.86589,-3.08923 1.1133,-4.8145h9.4238v-1.0449h-10v-1.4844zM333.7426,175.0207c-0.72267,-1.0026 -1.64713,-1.99543 -2.7734,-2.9785l1.4551,-1.3867c1.02213,0.74867 1.98243,1.70243 2.8809,2.8613zM333.14689,180.0598c-1.0026,-1.26953 -1.9759,-2.3047 -2.9199,-3.1055l1.4648,-1.416c0.97653,0.74867 1.9824,1.71547 3.0176,2.9004zM330.62739,187.9602c1.14587,-1.78387 2.2331,-4.07227 3.2617,-6.8652l1.6016,1.1816c-0.85287,2.58467 -1.875,5.00003 -3.0664,7.2461zM348.02939,178.595c-0.85287,-1.3802 -1.74807,-2.5716 -2.6856,-3.5742l1.4844,-0.95703c1.14587,1.04167 2.0736,2.181 2.7832,3.418zM334.36739,177.4231c0.95053,-0.78127 1.7318,-1.81643 2.3438,-3.1055l1.7773,0.66406c-0.63802,1.4518 -1.52019,2.66273 -2.6465,3.6328z" fill="#ffffff" stroke-width="1"/></g></g></svg>