<svg version="1.1" xmlns="http://www.w3.org/2000/svg" xmlns:xlink="http://www.w3.org/1999/xlink" width="208" height="32" viewBox="0,0,208,32"><g transform="translate(-240,-164)"><g data-paper-data="{&quot;isPaintingLayer&quot;:true}" fill-rule="nonzero" stroke="none" stroke-linecap="butt" stroke-linejoin="miter" stroke-miterlimit="10" stroke-dasharray="" stroke-dashoffset="0" style="mix-blend-mode: normal"><path d="M240,196v-32h208v32z" fill="none" stroke-width="0"/><path d="M245.84,184.3c-1.79687,0.944 -3.36263,1.66667 -4.6973,2.168l-0.82031,-2.1484c2.08987,-0.70313 3.92907,-1.4323 5.5176,-2.1875v-4.375h-4.834v-2.0606h4.834v-5.1953h2.1777v19.004h-2.1777zM252.7834,176.6926c1.51693,-0.79427 2.9883,-1.80337 4.4141,-3.0273l1.6211,1.6992c-1.92707,1.3672 -3.9388,2.53257 -6.0352,3.4961v7.3242c0,0.31901 0.10417,0.51433 0.3125,0.58594c0.22135,0.07161 0.73242,0.10742 1.5332,0.10742c1.05467,0 1.71547,-0.06185 1.9824,-0.18555c0.1888,-0.08463 0.31901,-0.3483 0.39062,-0.79101c0.09766,-0.61849 0.16928,-1.61783 0.21485,-2.998l2.1875,0.67383c-0.06513,1.6862 -0.1693,2.89713 -0.3125,3.6328c-0.16276,0.82033 -0.58919,1.35093 -1.2793,1.5918c-0.65755,0.22135 -1.73502,0.33203 -3.2324,0.33203c-1.7578,0 -2.86457,-0.14648 -3.3203,-0.43945c-0.4362,-0.28646 -0.6543,-0.83659 -0.6543,-1.6504v-16.543h2.1777z" fill="#ffffff" stroke-width="1"/><path d="M271.36,177.52c0.44922,1.52347 1.30209,3.14457 2.5586,4.8633c1.52993,2.09633 3.41143,3.7565 5.6445,4.9805l-1.3965,2.0117c-2.36327,-1.3932 -4.33593,-3.2389 -5.918,-5.5371c-0.85287,-1.25 -1.53647,-2.5228 -2.0508,-3.8184c-0.51432,1.7448 -1.31185,3.3301 -2.3926,4.7559c-1.58853,2.1094 -3.55143,3.6654 -5.8887,4.668l-1.377,-1.7871c2.44793,-1.02213 4.42383,-2.59767 5.9277,-4.7266c1.263,-1.79687 2.0117,-3.60027 2.2461,-5.4102h-7.793v-2.1191h7.8809v-4.707h2.2559v4.707h8.0469v2.1191z" fill="#ffffff" stroke-width="1"/><path d="M286.44,176.07v-2.7344h-5.8203v-1.8848h18.779v1.8848h-6.4551v2.7344h5.4785v13.164h-2.1191v-1.377h-12.607v1.377h-2.0996v-13.164zM288.4615,176.07h2.4609v-2.7344h-2.4609zM286.4303,177.8473h-2.7344v8.1543h12.607v-2.9297h-3.7012c-1.1198,0 -1.6797,-0.5599 -1.6797,-1.6797v-3.5449h-2.4805c-0.02607,1.6016 -0.26695,2.88417 -0.72266,3.8477c-0.42969,0.918 -1.27605,1.8262 -2.5391,2.7246l-1.3477,-1.5039c1.21093,-0.7422 1.9759,-1.66017 2.2949,-2.7539c0.16927,-0.58594 0.27018,-1.35744 0.30273,-2.3145zM292.944,177.8473v2.9883c0,0.25391 0.11393,0.38086 0.3418,0.38086h3.0176v-3.3691z" fill="#ffffff" stroke-width="1"/><path d="M311.56,175.5h-5.2246v-1.8164h2.666c-0.42318,-0.97007 -0.87241,-1.81643 -1.3477,-2.5391l1.9434,-0.72266c0.54687,0.918 1.04817,2.00523 1.5039,3.2617h3.1055c0.41667,-0.96353 0.8138,-2.05077 1.1914,-3.2617l2.1973,0.60547c-0.40365,1.02867 -0.80728,1.91407 -1.2109,2.6562h2.5586v1.8164h-5.2246v2.5195h4.6387v1.7578h-4.6387v2.6953h5.7812v1.8848h-5.7812v5.1465h-2.1582v-5.1465h-5.6445v-1.8848h5.6445v-2.6953h-4.668v-1.7578h4.668zM304.1577,175.23632c-0.77473,-1.0742 -1.80013,-2.11913 -3.0762,-3.1348l1.4746,-1.5039c1.3086,0.95053 2.3763,1.9629 3.2031,3.0371zM303.52293,180.25582c-1.0156,-1.237 -2.0703,-2.29493 -3.1641,-3.1738l1.4844,-1.5039c1.16533,0.84633 2.2428,1.8652 3.2324,3.0566zM300.70063,187.77532c1.15887,-1.6016 2.27213,-3.7533 3.3398,-6.4551l1.6602,1.2988c-0.91147,2.7344 -2.0052,5.0228 -3.2812,6.8652z" fill="#ffffff" stroke-width="1"/></g></g></svg>