<svg version="1.1" xmlns="http://www.w3.org/2000/svg" xmlns:xlink="http://www.w3.org/1999/xlink" width="208" height="32" viewBox="0,0,208,32"><g transform="translate(-240,-164)"><g data-paper-data="{&quot;isPaintingLayer&quot;:true}" fill-rule="nonzero" stroke="none" stroke-linecap="butt" stroke-linejoin="miter" stroke-miterlimit="10" stroke-dasharray="" stroke-dashoffset="0" style="mix-blend-mode: normal"><path d="M240,196v-32h208v32z" fill="none" stroke-width="0"/><path d="M251.02,172.46h8.0566v1.8555h-18.154v-1.8555h7.9394v-1.9629h2.1582zM257.0454,175.9561v6.377h-5.7617v5.4883c0,0.55989 -0.1237,0.96679 -0.3711,1.2207c-0.29297,0.30599 -0.87563,0.45898 -1.748,0.45898c-0.93747,0 -1.8717,-0.04883 -2.8027,-0.14648l-0.43945,-2.002c0.8984,0.13671 1.8001,0.20507 2.7051,0.20507c0.25391,0 0.4069,-0.06185 0.45898,-0.18554c0.02607,-0.0586 0.0391,-0.14324 0.0391,-0.25391v-4.7852h-6.1621v-6.377zM245.1994,177.7139v2.8613h9.6094v-2.8613zM257.5434,188.6809c-1.17187,-1.71873 -2.4707,-3.27473 -3.8965,-4.668l1.5723,-1.2402c1.3932,1.25 2.74087,2.7181 4.043,4.4043zM240.4634,187.2942c1.62107,-1.12627 2.89387,-2.54553 3.8184,-4.2578l1.9043,0.99609c-0.944,1.862 -2.33723,3.4896 -4.1797,4.8828z" fill="#ffffff" stroke-width="1"/><path d="M267.19,176.3c1.0742,-1.36067 1.99867,-2.92643 2.7734,-4.6973l1.7188,0.87891c-0.83987,1.52993 -1.61787,2.80273 -2.334,3.8184h2.0508v1.7578h-3.8281c-0.03253,0.03253 -0.0651,0.0716 -0.0977,0.11719c-0.32552,0.41667 -0.86915,0.99283 -1.6309,1.7285h4.4629v9.3359h-1.9043v-0.74219h-3.8965v1.0059h-1.9629v-6.8652c-0.44922,0.3125 -0.91145,0.61523 -1.3867,0.9082l-0.97656,-1.6797c0.69013,-0.35807 1.42907,-0.82681 2.2168,-1.4062c1.14587,-0.84633 2.0736,-1.6471 2.7832,-2.4023h-4.6777v-1.7578h3.8965v-1.9434h-2.8027v-1.7188h2.8027v-2.1387h1.9434v2.1387h2.1387v1.7188h-2.1387v1.9434zM264.5044,181.4855v1.8555h3.8965v-1.8555zM264.5044,184.923v1.9531h3.8965v-1.9531zM276.8774,178.1945c1.62107,1.9336 2.4316,3.84767 2.4316,5.7422c0,0.97653 -0.19206,1.6992 -0.57617,2.168c-0.36459,0.44921 -0.96679,0.67382 -1.8066,0.67382c-0.69013,0 -1.39327,-0.04557 -2.1094,-0.13672l-0.43945,-2.041c0.74867,0.14974 1.38993,0.22461 1.9238,0.22461c0.39713,0 0.64778,-0.08464 0.75195,-0.25391c0.09766,-0.14974 0.14649,-0.41992 0.14649,-0.81054c0,-1.30207 -0.4655,-2.65297 -1.3965,-4.0527c-0.26041,-0.39713 -0.60221,-0.82683 -1.0254,-1.2891c0.69013,-1.49087 1.25653,-3.17057 1.6992,-5.0391h-2.4805v16.123h-2.002v-18.066h5.7422l1.1328,0.98632c-0.59896,2.2526 -1.26303,4.17643 -1.9922,5.7715z" fill="#ffffff" stroke-width="1"/><path d="M291.6,172.66h7.4024v1.8359h-15.146v4.2188c0,0.96353 -0.01303,1.80337 -0.0391,2.5195c1.38673,-1.65367 2.53907,-3.8249 3.457,-6.5137l2.0312,0.45898c-0.35156,0.98307 -0.78776,1.97917 -1.3086,2.9883v11.338h-2.0801v-7.9297c-0.4362,0.60547 -0.87567,1.17513 -1.3184,1.709l-0.79102,-1.8066c-0.07161,1.67967 -0.2181,3.11197 -0.43945,4.2969c-0.25391,1.35413 -0.67057,2.59763 -1.25,3.7305l-1.7383,-1.5625c0.53385,-1.21747 0.90169,-2.59767 1.1035,-4.1406c0.18229,-1.41273 0.27344,-3.14777 0.27344,-5.2051v-5.9375h7.627v-2.1582h2.2168zM294.598,177.9823v-2.8809h2.0996v2.8809h2.8027v1.8555h-2.8027v7.7051c0,0.8268 -0.23763,1.36067 -0.71289,1.6016c-0.27344,0.14323 -0.72591,0.21485 -1.3574,0.21485c-1.0156,0 -1.9466,-0.05208 -2.793,-0.15625l-0.41992,-1.9824c1.05467,0.14974 1.91403,0.22461 2.5781,0.22461c0.29297,0 0.472,-0.04883 0.53711,-0.14649c0.0456,-0.07813 0.0684,-0.2181 0.0684,-0.41992v-7.041h-5.957v-1.8555zM291.8148,185.4823c-0.82033,-1.6016 -1.65367,-2.95577 -2.5,-4.0625l1.6797,-1.0156c1.0612,1.34767 1.89453,2.65953 2.5,3.9356z" fill="#ffffff" stroke-width="1"/><path d="M305.84,184.3c-1.79687,0.944 -3.36263,1.66667 -4.6973,2.168l-0.82031,-2.1484c2.08987,-0.70313 3.92907,-1.4323 5.5176,-2.1875v-4.375h-4.834v-2.0606h4.834v-5.1953h2.1777v19.004h-2.1777zM312.7834,176.6926c1.51693,-0.79427 2.9883,-1.80337 4.4141,-3.0273l1.6211,1.6992c-1.92707,1.3672 -3.9388,2.53257 -6.0352,3.4961v7.3242c0,0.31901 0.10417,0.51433 0.3125,0.58594c0.22135,0.07161 0.73242,0.10742 1.5332,0.10742c1.05467,0 1.71547,-0.06185 1.9824,-0.18555c0.1888,-0.08463 0.31901,-0.3483 0.39062,-0.79101c0.09766,-0.61849 0.16928,-1.61783 0.21485,-2.998l2.1875,0.67383c-0.06513,1.6862 -0.1693,2.89713 -0.3125,3.6328c-0.16276,0.82033 -0.58919,1.35093 -1.2793,1.5918c-0.65755,0.22135 -1.73502,0.33203 -3.2324,0.33203c-1.7578,0 -2.86457,-0.14648 -3.3203,-0.43945c-0.4362,-0.28646 -0.6543,-0.83659 -0.6543,-1.6504v-16.543h2.1777z" fill="#ffffff" stroke-width="1"/><path d="M326.98,172.75h4.1797v1.8848h-1.377c-0.2474,0.99607 -0.57943,2.041 -0.9961,3.1348h2.6074v1.8848h-10.898v-1.8848h2.3926c-0.26041,-1.25 -0.53385,-2.29493 -0.82031,-3.1348h-1.2695v-1.8848h4.1406v-2.2559h2.041zM324.0406,174.6348c0.33203,0.97007 0.58919,2.015 0.77148,3.1348h1.9922l0.09766,-0.27344c0.27995,-0.7422 0.54036,-1.5853 0.78125,-2.5293l0.0879,-0.33203zM330.0953,181.295v7.998h-2.002v-0.95703h-4.2578v1.1621h-2.0606v-8.2031zM323.8355,183.0919v3.3887h4.2578v-3.3887zM336.8825,178.1603c0.77473,0.73567 1.38997,1.61133 1.8457,2.627c0.44922,1.0156 0.67383,2.04423 0.67383,3.0859c0,0.96353 -0.17904,1.67317 -0.53711,2.1289c-0.37109,0.47526 -0.98306,0.71289 -1.8359,0.71289c-0.7292,0 -1.43557,-0.05208 -2.1191,-0.15625l-0.47852,-2.0801c0.78773,0.14323 1.43877,0.21485 1.9531,0.21485c0.39063,0 0.63477,-0.09115 0.73242,-0.27344c0.06513,-0.13021 0.0977,-0.39062 0.0977,-0.78125c0,-1.60807 -0.48177,-2.9948 -1.4453,-4.1602c-0.25391,-0.30599 -0.57292,-0.63476 -0.95703,-0.98633l0.11719,-0.27343c0.67707,-1.52993 1.2044,-3.125 1.582,-4.7852h-2.5v16.064h-2.0215v-18.086h5.8789l1.084,0.99609c-0.65755,2.2396 -1.34765,4.15693 -2.0703,5.752z" fill="#ffffff" stroke-width="1"/></g></g></svg>