<svg version="1.1" xmlns="http://www.w3.org/2000/svg" xmlns:xlink="http://www.w3.org/1999/xlink" width="87.19667" height="126.61292" viewBox="0,0,87.19667,126.61292"><g transform="translate(51.74526,48.4987)"><g data-paper-data="{&quot;isPaintingLayer&quot;:true}" fill="#ff0000" fill-rule="evenodd" stroke-linecap="round" stroke-linejoin="round" stroke-miterlimit="10" stroke-dasharray="" stroke-dashoffset="0" style="mix-blend-mode: normal"><path d="M24.21188,-34.49026l-0.37998,1.95892l-0.99996,1.34095l1.37994,1.35195l0.42998,1.16395l-0.95996,2.73389l0.70997,2.07792l-0.78997,1.91592l0.39999,0.60298l-1.39995,4.59581l0.25999,1.02296l-1.32995,2.16991l0.80996,2.40591l1.06996,1.24195l-0.13999,1.96692l0.74997,0.67897l-0.53998,1.51294l-0.71997,0.60297l0.85997,1.51694l0.10999,2.24991l1.13995,0.70998l-0.66997,1.13595l0.01999,3.02088l1.07996,0.67697l0.02,1.32995l-0.66998,0.58198l0.78997,1.85292l2.4799,0.95696l0.68997,3.62886l0.80997,1.12795l-0.48998,1.58094l-0.96997,1.43494l1.36995,2.3779l1.28995,1.27495l0.55998,1.17095l1.31995,0.99996l2.23991,0.048l0.68998,1.97492l0.01999,1.30994l-1.00995,3.70486l-1.71994,0.017l-3.39986,4.17783l-1.89992,0.45698l0.03999,0.67397l-1.43994,1.47394l1.02996,1.77293l-0.27999,0.94197l0.78997,3.48886l1.15995,0.18599l1.26995,1.18496l-0.71997,1.34095l0.50998,1.65993l-0.55998,0.84197l0.71998,1.45994l-2.95989,1.88192l0.81997,2.08491l1.85993,1.93693l0.86996,2.84789l-2.29991,1.07595l0.64997,1.44994l-0.63997,0.67997l0.60998,1.17596l1.02996,0.91396l2.19991,0.25499l0.61998,1.87292l-1.24995,2.4129l-2.03992,-0.60798l-0.75997,1.77793l-1.40994,1.37895l-1.17995,-0.64697l-1.92992,0.94496l-1.51994,-0.57197l-1.87993,0.95796l-1.25995,-0.70097l-0.83996,0.10199l0.40998,2.98988l-0.52998,1.23195l-3.06987,-0.75597l-0.41998,1.13396l-2.18991,1.08996l-1.80993,-0.23299l-0.50998,-0.55298l-2.65989,-0.90097l-1.53994,1.30095l0.05999,1.19895l-1.21995,1.19095l-2.73989,-1.04296l-1.47994,-1.92493l0.73997,-1.27694l-0.60997,-2.86789l-2.35991,-3.02388l-1.82993,-0.61198l-0.76996,-0.66097l0.59998,-2.02392l-2.02992,-2.6329l-0.96996,0.039l-1.19995,-1.26895l-1.87992,0.20699l-1.10996,0.61597l-0.17999,-1.54093l0.35998,-3.08687l-0.36998,-3.09088l-0.66998,-3.88285l-0.05999,-2.79588l1.46994,-0.48898l1.70993,-2.39091l1.32995,-4.68882l1.48994,-1.63993l0.24999,-1.88193l2.65989,-3.35087l1.25995,-2.86588l0.62998,-2.15891l0.55998,-2.96388l0.36999,-5.36679l-0.11,-2.82888l0.42998,-3.48886l1.48994,-2.23991l0.49998,-2.11092l0.50998,-7.41271l-0.06,-3.11087l-0.90996,-9.37062l-0.75997,-5.27778l-0.96996,-5.0158l-1.82993,-7.86668l-1.05996,-2.97588l0.37998,-0.52698l-1.08995,-4.57182l-0.28999,-1.82292l-1.13995,-3.58786l1.77993,-1.89392l1.14996,-0.36098l1.70993,-1.97392l1.62993,-0.34699l1.82993,-0.95296l2.41991,-0.156l1.26995,0.44199l2.23991,-0.49398l0.74997,0.77396l0.07,1.09196l0.77997,1.28795l0.55998,3.31487l-0.04999,2.54289l2.20991,0.94597l1.07996,0.167l0.90996,0.84996l-0.88996,0.89496l1.92992,1.24195l0.12,-1.09196l1.87993,-0.37798l0.39999,1.79693l1.34994,-0.62998l0.82997,-1.22295l1.47994,-0.69997l0.35998,1.78893l1.11996,0.78997l1.66993,-1.83893l0.70997,0.81197l-0.87996,1.25295l-1.61994,0.31798" stroke="none" stroke-width="0"/><path d="M-42.48544,30.43714l-1.59993,2.33691l-2.5199,0.40998l-0.13999,-0.96896l1.43994,-1.08795l1.92993,-2.10592l0.88996,1.41594" stroke="#ff0000" stroke-width="10"/><path d="M-34.48576,31.07711l-2.18992,-0.45798l-0.74997,-0.98296l2.24991,-0.84896l1.67994,-0.34999l0.33998,1.83193l-1.32994,0.80796" stroke="#ff0000" stroke-width="10"/></g></g></svg>