<svg version="1.1" xmlns="http://www.w3.org/2000/svg" xmlns:xlink="http://www.w3.org/1999/xlink" width="208" height="32" viewBox="0,0,208,32"><g transform="translate(-240,-164)"><g data-paper-data="{&quot;isPaintingLayer&quot;:true}" fill-rule="nonzero" stroke="none" stroke-linecap="butt" stroke-linejoin="miter" stroke-miterlimit="10" stroke-dasharray="" stroke-dashoffset="0" style="mix-blend-mode: normal"><path d="M240,196v-32h208v32z" fill="none" stroke-width="0"/><path d="M248.85,171.76v-1.2598h2.1582v1.2598h7.3633v1.4844h-7.3633v0.9375h6.2793v1.4844h-6.2793v0.95703h8.4863v1.5234h-19.004v-1.5234h8.3594v-0.95703h-6.1816v-1.4844h6.1816v-0.9375h-7.2559v-1.4844zM256.8285,179.1624v8.4961c0,0.6966 -0.17253,1.17513 -0.51758,1.4356c-0.29297,0.22135 -0.791,0.33203 -1.4941,0.33203c-0.89847,0 -1.98247,-0.05534 -3.252,-0.16602l-0.33203,-1.8359c1.09373,0.14323 2.02147,0.21485 2.7832,0.21485c0.30599,0 0.49153,-0.04883 0.55664,-0.14649c0.05207,-0.07812 0.0781,-0.23437 0.0781,-0.46875v-1.123h-9.1602v3.6035h-2.1973v-10.342zM245.4905,180.6858v1.0938h9.1602v-1.0938zM245.4905,183.2639v1.1523h9.1602v-1.1523z" fill="#ffffff" stroke-width="1"/><path d="M272.71,174.11c1.8034,1.26953 3.9844,2.33723 6.543,3.2031l-1.2207,1.7871c-3.0664,-1.21093 -5.4134,-2.66277 -7.041,-4.3555v4.9316h-2.1192v-4.7559c-1.6406,1.9466 -3.94853,3.42447 -6.9238,4.4336l-1.1719,-1.582c1.78387,-0.57292 3.22593,-1.18489 4.3262,-1.8359c0.89193,-0.52735 1.6862,-1.13608 2.3828,-1.8262h-5.9961v-1.7969h7.3828v-1.8164h2.1192v1.8164h7.5586v1.7969zM264.4873,184.266c-0.86587,1.54947 -1.9466,2.88737 -3.2422,4.0137l-1.1133,-1.7773c1.62107,-1.15233 2.94267,-2.58137 3.9648,-4.2871h-3.6133v-1.7383h4.0039v-1.9238h2.002v1.9238h2.959v1.7383h-2.959v0.46875c1.10027,0.6706 2.14843,1.42257 3.1445,2.2559l-1.3086,1.4746c-0.41015,-0.46875 -1.02212,-1.07749 -1.8359,-1.8262v4.9121h-2.002zM275.7663,182.2152c0.97653,1.5104 2.3307,2.83853 4.0625,3.9844l-1.1035,1.9434c-1.5104,-1.27607 -2.6432,-2.60093 -3.3984,-3.9746v5.332h-2.002v-5.1465c-0.82033,1.4844 -1.90757,2.76043 -3.2617,3.8281l-1.2012,-1.543c1.7318,-1.26953 3.05993,-2.74413 3.9844,-4.4238h-2.6367v-1.7383h3.1152v-1.9238h2.002v1.9238h4.1602v1.7383z" fill="#ffffff" stroke-width="1"/><path d="M296.76,170.98v9.4629h-11.621v-9.4629zM287.2385,172.523v1.2207h7.4023v-1.2207zM287.2385,175.1207v1.2207h7.4023v-1.2207zM287.2385,177.7183v1.2598h7.4023v-1.2598zM283.3029,181.7417h16.191v1.6992h-8.0762v6.0644h-2.2168v-6.0644h-8.0371v-10.957h2.1387zM280.8029,187.6401c1.54947,-0.71613 3.0306,-1.9173 4.4434,-3.6035l1.7969,1.0449c-1.3932,1.76433 -2.93943,3.15107 -4.6387,4.1602zM297.6389,188.8999c-0.99607,-1.22393 -2.49347,-2.50973 -4.4922,-3.8574l1.6797,-1.1816c1.569,0.90493 3.1087,2.09307 4.6191,3.5644z" fill="#ffffff" stroke-width="1"/><path d="M317.56,171.56v17.559h-2.3242v-1.5234h-10.469v1.5234h-2.3047v-17.559zM304.767,173.5424v4.8535h10.469v-4.8535zM304.767,180.3198v5.2344h10.469v-5.2344z" fill="#ffffff" stroke-width="1"/><path d="M331.77,176.02c2.1354,3.112 4.7591,5.60223 7.8711,7.4707l-1.3867,1.8848c-3.1836,-2.33073 -5.60547,-4.85027 -7.2656,-7.5586v5.957h4.0039v1.9238h-3.9648v3.8086h-2.1973v-3.8086h-3.7402v-1.9238h3.7793v-5.8594c-1.60153,2.96227 -3.94853,5.60873 -7.041,7.9394l-1.416,-1.7578c3.14453,-2.08333 5.6901,-4.7754 7.6367,-8.0762h-7.0801v-2.002h7.8418v-3.5156h2.2363v3.5156h7.9688v2.002z" fill="#ffffff" stroke-width="1"/><path d="M357.76,175.8c0,0.30599 -0.0293,1.75783 -0.0879,4.3555h1.8652v1.7578h-1.9043c-0.01953,0.85287 -0.06185,1.81967 -0.12695,2.9004h1.6504v1.7188h-1.7774c-0.07812,0.944 -0.18554,1.569 -0.32226,1.875c-0.30599,0.7292 -1.04819,1.0938 -2.2266,1.0938c-0.7552,0 -1.4518,-0.05534 -2.0898,-0.16601l-0.36133,-1.7383c0.918,0.13021 1.62113,0.19531 2.1094,0.19531c0.39713,0 0.63476,-0.13997 0.71289,-0.41992c0.03907,-0.13672 0.07487,-0.41667 0.10742,-0.83985h-6.9531c-0.00667,0.05207 -0.01643,0.10741 -0.0293,0.16602c-0.0586,0.34505 -0.11394,0.67057 -0.16602,0.97656l-2.0215,-0.19531c0.39713,-2.35027 0.66406,-4.1276 0.80078,-5.332l0.0293,-0.23438h-1.9531v-1.7578h2.1582c0.18229,-1.57553 0.33854,-3.02737 0.46875,-4.3555zM351.5881,177.4992h-2.1387c-0.01953,0.33203 -0.07813,1.0319 -0.17578,2.0996l-0.0586,0.55664h2.168l0.0293,-0.27344c0.013,-0.1888 0.03253,-0.45247 0.0586,-0.79101c0.06513,-0.91147 0.1042,-1.44207 0.11719,-1.5918zM353.5119,177.4992c-0.03253,0.77473 -0.08136,1.63087 -0.14649,2.5684v0.0879h2.2949c0.02607,-0.89193 0.04887,-1.77733 0.0684,-2.6562zM351.2267,181.9133h-2.1973c-0.09765,0.79427 -0.20182,1.57877 -0.3125,2.3535l-0.0781,0.54687h2.2852c0.15625,-1.41273 0.25716,-2.37953 0.30273,-2.9004zM353.2287,181.9133c-0.01953,0.26042 -0.05859,0.69012 -0.11718,1.2891l-0.15625,1.6113h2.4902c0.03253,-0.63151 0.05857,-1.10677 0.0781,-1.4258c0.03907,-0.6966 0.0651,-1.18813 0.0781,-1.4746zM349.4006,172.2746h9.4336v1.8164h-10.244c-0.52734,1.0742 -1.19791,2.09633 -2.0117,3.0664l-1.3965,-1.5234c1.28253,-1.50393 2.194,-3.2357 2.7344,-5.1953l2.0801,0.21485c-0.23437,0.67707 -0.43294,1.21743 -0.5957,1.6211zM344.0197,175.1164c-0.8008,-1.10027 -1.7741,-2.13217 -2.9199,-3.0957l1.4746,-1.4258c1.0612,0.78127 2.0703,1.7676 3.0273,2.959zM343.31657,180.2726c-0.9896,-1.26953 -1.98893,-2.334 -2.998,-3.1934l1.5234,-1.4648c1.1328,0.89193 2.15167,1.90757 3.0566,3.0469zM340.66037,187.9386c1.1328,-1.569 2.20703,-3.63607 3.2227,-6.2012l1.7383,1.2402c-0.84633,2.3698 -1.93357,4.54427 -3.2617,6.5234z" fill="#ffffff" stroke-width="1"/><path d="M377.86,180.14v9.3652h-2.1973v-1.123h-6.2012v1.123h-2.1777v-9.3652zM369.4616,182.0248v4.4531h6.2012v-4.4531zM364.7839,175.1791c-1.0026,-1.12627 -2.08983,-2.1126 -3.2617,-2.959l1.3965,-1.5625c1.31513,0.8268 2.4219,1.76757 3.3203,2.8223zM363.6804,180.4428c-1.10027,-1.21093 -2.21353,-2.20377 -3.3398,-2.9785l1.4356,-1.6211c1.3216,0.8594 2.4707,1.8327 3.4473,2.9199zM360.4578,187.6987c1.30207,-1.60807 2.5423,-3.68813 3.7207,-6.2402l1.6602,1.4844c-1.0026,2.46747 -2.16797,4.62567 -3.4961,6.4746zM377.8598,179.6616c-2.27213,-2.41533 -3.9453,-5.2018 -5.0195,-8.3594l2.0215,-0.80078c0.9896,2.7344 2.5293,5.20183 4.6191,7.4023zM365.6628,178.1382c1.82293,-1.83593 3.12827,-4.3099 3.916,-7.4219l2.0606,0.625c-0.73567,3.3724 -2.2005,6.19793 -4.3945,8.4766z" fill="#ffffff" stroke-width="1"/><path d="M391.18,173.6h4.4238v-2.3535h2.0801v4.0332h-14.961v-4.0332h2.0801v2.3535h4.2969v-3.0957h2.0801zM384.178,178.307v2.041c0,2.2526 -0.14323,4.00717 -0.42969,5.2637c-0.30599,1.3216 -0.89519,2.5651 -1.7676,3.7305l-1.7188,-1.416c0.59896,-0.83333 1.01889,-1.6569 1.2598,-2.4707c0.33203,-1.1198 0.49805,-2.86133 0.49805,-5.2246v-3.6621h17.002v1.7383zM392.4788,181.3636v1.8066h6.6992v1.7383h-6.6992v4.5996h-2.1973v-4.5996h-5.8789v-1.7383h5.8789v-1.8066h-4.8828v-1.6406h12.344v1.6406z" fill="#ffffff" stroke-width="1"/></g></g></svg>