<svg version="1.1" xmlns="http://www.w3.org/2000/svg" xmlns:xlink="http://www.w3.org/1999/xlink" width="70" height="40" viewBox="0,0,70,40"><g transform="translate(-145,-340)"><g data-paper-data="{&quot;isPaintingLayer&quot;:true}" stroke="none" stroke-miterlimit="10" stroke-dasharray="" stroke-dashoffset="0" style="mix-blend-mode: normal"><path d="M145,380v-40h70v40z" fill-opacity="0.00392" fill="#272b32" fill-rule="evenodd" stroke-width="0.25" stroke-linecap="square" stroke-linejoin="round"/><path d="M164,376v-32h32v32z" fill-opacity="0" fill="#000000" fill-rule="nonzero" stroke-width="1" stroke-linecap="butt" stroke-linejoin="miter"/><g fill="#ffffff" fill-rule="nonzero" stroke-width="1" stroke-linecap="butt" stroke-linejoin="miter"><path d="M166.533,369.865v3.4805c0,0.22559 0.09668,0.36182 0.29004,0.40869c0.19922,0.04981 0.65479,0.07471 1.3667,0.07471c0.69433,0 1.15283,-0.03516 1.3755,-0.10547c0.12597,-0.04101 0.208,-0.15527 0.24609,-0.34277c0.04981,-0.26367 0.07617,-0.57569 0.0791,-0.93604l0.91846,0.25928c-0.04687,0.86427 -0.16553,1.4165 -0.35596,1.6567c-0.12597,0.1582 -0.3164,0.25195 -0.57129,0.28125c-0.40137,0.04395 -1.08253,0.06592 -2.0435,0.06592c-0.74413,0 -1.23193,-0.02051 -1.4634,-0.06152c-0.34863,-0.05859 -0.56982,-0.2124 -0.66357,-0.46143c-0.04687,-0.13183 -0.07031,-0.30761 -0.07031,-0.52734v-3.4849l-0.83936,0.29004l-0.20654,-0.85254l1.0459,-0.36035v-2.3687h0.89209v2.061l0.94482,-0.3208v-2.3159h0.8833v2.0083l1.4722,-0.50537l0.46143,0.28125v3.2915c0,0.22851 -0.0542,0.39844 -0.1626,0.50977c-0.12305,0.12305 -0.32959,0.18457 -0.61963,0.18457c-0.23731,0 -0.48926,-0.02051 -0.75586,-0.06152l-0.14502,-0.83936c0.17285,0.04395 0.34863,0.06592 0.52734,0.06592c0.12891,0 0.20801,-0.02637 0.2373,-0.0791c0.02929,-0.04395 0.04394,-0.11719 0.04394,-0.21973v-2.0786l-1.0591,0.36914v3.5552h-0.8833v-3.252zM163.303,368.428v-2.1226h0.94482v2.1226h0.85254v0.89209h-0.85254v2.7949c0.30762,-0.10547 0.61231,-0.21533 0.91406,-0.32959l0.0835,0.84814c-0.9492,0.43359 -1.92333,0.79686 -2.9224,1.0898l-0.30762,-0.93604c0.45117,-0.11719 0.84667,-0.22851 1.1865,-0.33398c0.04101,-0.01465 0.07471,-0.0249 0.10108,-0.03076v-3.1025h-1.1162v-0.89209z"/><path d="M174.931,367.492v-0.37793h-2.7466v-0.62842h6.4863v0.62842h-2.8037v0.37793h3.6387v1.5776h-0.95361v-1.0107h-2.6851v1.7095h-0.93604v-1.7095h-2.6367v1.0107h-0.94482v-1.5776zM178.0423,373.7278c0.44824,0.16992 1.00781,0.30469 1.6787,0.4043l-0.51416,0.74707c-0.9404,-0.16113 -1.71237,-0.43799 -2.3159,-0.83057c-0.60059,-0.39258 -1.06789,-0.88038 -1.4019,-1.4634h-0.97119v1.3535c0.64746,-0.09082 1.24806,-0.1875 1.8018,-0.29004l0.06152,0.65479c-1.03127,0.24609 -2.21047,0.45996 -3.5376,0.6416l-0.25928,-0.77344c0.45996,-0.04981 0.7749,-0.08496 0.94482,-0.10547l0.05273,-0.0088v-1.4722h-0.9624c-0.04101,0.51563 -0.1084,0.92726 -0.20215,1.2349c-0.11133,0.36914 -0.29004,0.71337 -0.53613,1.0327l-0.78223,-0.646c0.28711,-0.37207 0.46582,-0.80714 0.53613,-1.3052c0.03809,-0.26953 0.05713,-0.60497 0.05713,-1.0063v-1.8633h7.585v0.58447h-6.6401v1.3491h7.0181v0.61963h-0.99756l0.5581,0.36914c-0.33105,0.27539 -0.72215,0.5332 -1.1733,0.77344zM177.35675,373.38942c0.42187,-0.28711 0.75731,-0.55517 1.0063,-0.8042h-1.9204c0.25195,0.32227 0.55664,0.59033 0.91406,0.8042zM172.68095,368.38402h1.8721v0.49658h-1.8721zM172.68095,369.19261h1.8721v0.50537h-1.8721zM176.24495,368.38402h1.9292v0.49658h-1.9292zM176.24495,369.19261h1.9292v0.50537h-1.9292zM173.15995,370.98561h5.4712v0.57568h-5.4712z"/><path d="M182.134,367.979v6.8774h-0.91846v-8.5518h0.91846v1.3315l0.42188,-0.35156c0.25488,0.44238 0.45703,0.86865 0.60644,1.2788l-0.59766,0.59326c-0.15527,-0.49512 -0.29883,-0.88769 -0.43066,-1.1777zM186.1814,366.8892h2.2764v0.65918h-2.2764v0.42188h1.9644v0.62842h-1.9644v0.43506h2.5664v0.70312h-5.9238v-0.70312h2.4478v-0.43506h-1.9072v-0.62842h1.9072v-0.42188h-2.1665v-0.65918h2.1665v-0.58447h0.90967zM188.0095,370.2027v3.8584c0,0.26953 -0.06445,0.46582 -0.19336,0.58887c-0.12597,0.12012 -0.34131,0.18018 -0.646,0.18018c-0.36035,0 -0.73095,-0.0249 -1.1118,-0.07471l-0.12744,-0.79101c0.38965,0.04687 0.69873,0.07031 0.92725,0.07031c0.11719,0 0.1875,-0.0293 0.21094,-0.08789c0.01465,-0.03515 0.02197,-0.08935 0.02197,-0.1626v-0.5669h-2.6982v1.6392h-0.91846v-4.6538zM184.3928,370.8487v0.51416h2.6982v-0.51416zM184.3928,372.0089v0.54053h2.6982v-0.54053zM179.9719,370.8927c0.13183,-0.60937 0.22705,-1.39747 0.28564,-2.3643l0.02197,-0.36035l0.74707,0.07031c-0.03515,1.25393 -0.13769,2.272 -0.30762,3.0542z"/><path d="M190.918,367.224v-0.91846h0.91846v0.91846h1.3667v0.77344h-1.3667v0.75586h1.5557v0.78223h-0.52295c-0.09375,0.34863 -0.21972,0.71777 -0.37793,1.1074h0.84814v0.76465h-1.5029v0.81299h1.4458v0.78223h-1.4458v1.8545h-0.91846v-1.8545h-1.5513v-0.78223h1.5513v-0.81299h-1.6216v-0.76465h0.80859c-0.09375,-0.38965 -0.208,-0.75878 -0.34277,-1.1074h-0.646v-0.78223h1.8018v-0.75586h-1.4326v-0.77344zM192.0122,369.5355h-1.3975c0.09961,0.27832 0.20654,0.64745 0.3208,1.1074h0.72949c0.15235,-0.375 0.26807,-0.74413 0.34717,-1.1074zM197.3428,366.6219v2.0566c0,0.25488 -0.04687,0.43506 -0.14062,0.54053c-0.11133,0.12597 -0.34424,0.18896 -0.69873,0.18896c-0.34571,0 -0.69141,-0.01465 -1.0371,-0.04395l-0.14941,-0.79102c0.48633,0.05273 0.79541,0.0791 0.92725,0.0791c0.13769,0 0.20654,-0.06006 0.20654,-0.18018v-1.0591h-1.9248v2.5532h2.4917l0.52295,0.44824c-0.1582,0.93167 -0.44677,1.7637 -0.86572,2.4961l-0.04834,0.08789c0.32227,0.37207 0.7251,0.7119 1.2085,1.0195l-0.49219,0.82178c-0.46289,-0.29883 -0.87599,-0.65626 -1.2393,-1.0723c-0.31348,0.39844 -0.66651,0.77344 -1.0591,1.125l-0.51856,-0.7207v0.68555h-0.89209v-8.2354zM194.5259,370.7572v3.3223c0.36035,-0.24609 0.70752,-0.59179 1.0415,-1.0371c-0.44824,-0.6914 -0.76318,-1.45313 -0.94482,-2.2852zM196.0552,372.2645c0.26074,-0.50391 0.43066,-1.00634 0.50977,-1.5073h-1.1338c0.14355,0.5625 0.35156,1.06493 0.62402,1.5073z"/></g><g fill="#ffffff" stroke-width="1.5625" stroke-linecap="butt" stroke-linejoin="miter"><path d="M182.32,346.72c2.73376,0 4.96096,2.22728 4.96096,4.96096v4.63752c0,2.73376 -2.22728,4.96096 -4.96096,4.96096h-4.63752c-2.73376,0 -4.96096,-2.22728 -4.96096,-4.96096v-4.63752c0,-2.73376 2.22728,-4.96096 4.96096,-4.96096zM174.48088,351.68096v4.63752c0,1.78912 1.41248,3.2016 3.2016,3.2016h4.63752c1.78912,0 3.2016,-1.41248 3.2016,-3.2016v-4.63752c0,-1.78912 -1.41248,-3.2016 -3.2016,-3.2016h-4.63752c-1.78912,0 -3.2016,1.41248 -3.2016,3.2016z" fill-rule="evenodd"/><path d="M179.136,357.896v-5.41992h1.73016v5.41992zM179.99064,351.74648c-0.271,0 -0.49335,-0.08686 -0.66706,-0.26058c-0.17371,-0.17372 -0.26057,-0.39607 -0.26058,-0.66706c0,-0.26405 0.08686,-0.4864 0.26058,-0.66706c0.17372,-0.18761 0.39607,-0.28142 0.66706,-0.28142c0.26405,0 0.4864,0.09381 0.66706,0.28142c0.18761,0.18066 0.28142,0.40302 0.28142,0.66706c0,0.271 -0.09381,0.49335 -0.28142,0.66706c-0.18066,0.17372 -0.40302,0.26058 -0.66706,0.26058z" fill-rule="nonzero"/></g></g></g></svg>