<svg version="1.1" xmlns="http://www.w3.org/2000/svg" xmlns:xlink="http://www.w3.org/1999/xlink" width="73.49707" height="137.03452" viewBox="0,0,73.49707,137.03452"><g transform="translate(-413.59457,23.6945)"><g data-paper-data="{&quot;isPaintingLayer&quot;:true}" fill="#ff0000" fill-rule="evenodd" stroke="none" stroke-width="0" stroke-linecap="round" stroke-linejoin="round" stroke-miterlimit="10" stroke-dasharray="" stroke-dashoffset="0" style="mix-blend-mode: normal"><path d="M475.21208,113.34002l-0.94996,-0.43998l-2.09992,0.19999l-1.68993,-0.1l-0.84997,0.33999l-1.31995,-0.89996l-0.52998,-1.26995l-1.28995,-0.52998l-0.45998,-1.94992l-1.79993,-2.03992l-0.28999,-1.09996l-0.95996,-0.55998l-1.04996,0.03l-0.57998,-1.91992l-1.60994,-2.65989l-1.20995,-0.71997l-0.41998,-1.26995l-1.65993,-0.44998l-0.67997,-1.03996l-1.47994,-0.38998l-0.52998,0.78997l-0.19999,1.53994l-1.66993,0.37998l-1.31995,1.17995l-0.43998,2.6099l1.26995,2.08992l0.58998,2.10992l-2.95988,0.37998l-0.57998,0.55998l-1.63993,-0.92996l-1.37994,-1.32995l-0.39998,0.63997l-1.45994,-0.45998l-0.77997,-1.53994l-1.14995,-0.80997l-1.58994,-1.88992l-0.80997,-1.34995l-1.32995,-1.01996l-0.45998,-0.83997l-0.97996,-0.28999l-1.68993,-1.27995l-2.00992,0.14999l-2.80989,-1.64993l-0.39998,-0.66997l-0.34999,-2.05992l-1.97992,-0.25999l-4.43982,0.59998l-0.88996,-1.17995l1.56994,-0.78997l-0.39998,-1.70993l-1.51994,-1.04996l-1.02996,-1.48994l-1.26995,-0.92996l-3.61986,-1.55994l-1.37994,-1.06996l-0.64997,-1.57994l0.88996,-0.74997l0.65997,-1.48994l1.27995,-1.12995l1.90992,-0.48998l1.34995,-1.65993l1.08996,-0.90996v-1.22995l-1.22995,-0.80997l0.31999,-1.60994l-0.47998,-1.23995l0.61998,-0.93996l-0.35999,-1.40994l1.30995,-1.61994l1.16995,0.47998l1.66993,-0.45998l0.69997,-0.65997l1.36995,-0.28999l1.46994,0.26999l0.40998,-1.40994l0.64997,-0.15999l0.48998,-1.83993l0.93996,-0.38998l-0.09,-1.77993l1.81993,-0.15999l1.08996,-0.47998l-0.70997,-0.83997l-0.36999,-2.14991l-1.26995,-2.6099l0.27999,-1.08996l-0.06,-1.96992l-1.42994,-0.31999l-0.97996,-1.35995l0.79997,-1.55994l1.30995,0.11l1.07996,-0.88996l1.53994,0.22999l2.06992,0.69997l1.40994,-1.67993l-0.46998,-1.66993l2.16991,-1.54994l0.34999,-1.75993l-0.11,-2.28991l-1.16995,-1.98992l-0.42998,-1.31995l-1.84993,-2.28991l-0.32999,-1.44994l-1.31995,-0.78997l-0.45998,-1.15995l0.46998,-0.79997l-0.74997,-1.26995l0.01,-2.34991l-0.96996,-0.91996l-1.32995,0.48998l-1.56994,-1.25995l-0.27999,-2.00992l-1.82993,-0.79997l-0.89996,-3.33987l1.93992,-2.11992l0.31999,-2.30991l0.85997,-1.42994l-0.52998,-1.32995l1.28995,-0.97996l-0.34999,-1.24995l1.04996,-0.62997l0.46998,-1.09996l0.94996,-0.17999l0.45998,-1.66993l1.25995,0.79997l2.30991,-0.77997l1.86993,0.63997l1.70993,-1.97992l1.84993,-0.12l0.05,-3.25987l-1.16995,-0.16999l-1.42994,-0.91996l0.27999,-2.32991l-1.06996,-0.58998l-0.04,-1.63993l-0.54998,-0.47998l0.33999,-1.03996l0.73997,-0.04l-0.08,-1.52994l0.70997,-1.01996l1.07996,-0.06l0.56998,-1.59994l-2.13991,-1.54994l-0.24999,-0.71997l-0.02,-3.22987l1.38994,-1.79993l1.74993,-0.43998l0.67997,-0.69997l1.18995,0.07l1.57994,-1.04996l0.52998,0.08l1.74993,-1.25995l0.42998,-1.19995l0.84997,-0.50998l1.09996,1.96992l0.77997,0.47998l1.90992,3.03988v1.16995l1.27995,1.90992l0.52998,0.16999l1.63993,2.07992l0.12,1.83993l1.50994,1.11996l-0.07,1.65993l0.36999,1.48994l1.11996,0.89996l0.55998,1.74993l1.79993,2.98988l2.25991,5.62977l-0.13999,1.88992l-1.11996,-0.06l-1.18995,0.76997l-0.83997,1.83993l0.42998,0.99996l-0.20999,1.16995l1.75993,0.70997l1.24995,0.03l1.51994,1.37994l1.35995,0.59998l0.45998,1.17995l1.13995,1.56994l-0.41998,0.96996l-1.22995,0.48998l-1.08996,-0.37998l-0.78997,0.73997l-0.47998,1.40994l-0.80997,0.92996l-0.11,1.83993l0.64997,2.92988l1.68993,2.35991l2.83989,1.25995l0.79997,1.75993l0.71997,0.79997l0.54998,1.55994l1.68993,0.96996l1.91992,-0.20999l2.13991,3.91984l-0.25999,1.07996l0.35999,3.29987l-1.22995,0.02l-0.67997,1.86993l0.12,1.57994l0.54998,0.61998l0.98996,3.06988l1.56994,0.81997l0.78997,2.69989l-0.45998,1.73993l0.57998,1.80993l1.05996,2.19991l-0.68997,0.77997l-0.05,1.38994l0.39998,2.01992l1.12995,1.86993l-0.84997,0.78997l0.21999,1.90992l-0.58998,1.87992l-1.40994,1.25995l1.22995,0.53998l0.06,1.79993l-0.93996,0.56998l-0.31999,1.57994l0.26999,0.95996l0.96996,-0.08l-0.43998,1.87992l-0.92996,1.50994l0.96996,2.09992l-1.70993,0.99996l0.76997,1.46994l-0.54998,0.35999l-0.21999,1.50994l-1.83993,1.63993l0.41998,1.21995l0.82997,0.45998l1.40994,-2.5999l1.53994,-1.54994l1.96992,-3.50986l1.40994,-1.41994l0.65997,1.14995l-0.44998,1.52994l0.05,2.84989l0.82997,3.18987l-0.31999,1.69993l1.48994,0.34999l1.37994,-0.17999l-0.12999,1.08996l1.11996,0.40998l0.43998,2.26991l-0.69997,1.14995l-1.03996,0.54998l-2.10992,0.35999l-0.42998,0.93996l-0.03,1.72993l-1.96992,1.84993l0.26999,1.93992l-1.10996,0.02l-0.93996,-0.57998l-0.80997,0.43998l-1.02996,-0.20999l-1.71993,0.90996l0.12999,2.35991l1.46994,1.14995l0.82997,1.12995l0.93996,-1.28995l1.34995,-0.88996l0.59998,-1.13995l1.73993,-1.08996l0.87996,-1.18995l1.33995,0.04l1.09996,1.58994l-1.13995,1.74993l-0.04,0.81997l-0.90996,0.42998l-0.06,1.28995l0.59998,1.21995l-1.27995,1.44994l-1.30995,-1.07996l-0.83997,-0.22999l0.08,1.42994l-1.70993,0.79997l-1.29995,-0.12l0.49998,-0.95996l-0.44998,-1.23995l-1.75993,1.90992l-1.01996,1.65993"/></g></g></svg>