<svg version="1.1" xmlns="http://www.w3.org/2000/svg" xmlns:xlink="http://www.w3.org/1999/xlink" width="208" height="32" viewBox="0,0,208,32"><g transform="translate(-240,-164)"><g data-paper-data="{&quot;isPaintingLayer&quot;:true}" fill-rule="nonzero" stroke="none" stroke-linecap="butt" stroke-linejoin="miter" stroke-miterlimit="10" stroke-dasharray="" stroke-dashoffset="0" style="mix-blend-mode: normal"><path d="M240,196v-32h208v32z" fill="none" stroke-width="0"/><path d="M244.14,180.84c-0.77473,1.9792 -1.69597,3.65237 -2.7637,5.0195l-1.0742,-1.8262c1.47133,-1.72527 2.64647,-3.80533 3.5254,-6.2402h-3.3301v-1.8555h3.6426v-2.6465c-0.86587,0.15625 -1.76757,0.28645 -2.7051,0.39062l-0.73243,-1.6797c2.60413,-0.29948 4.95113,-0.82031 7.041,-1.5625l1.2207,1.6602c-0.74867,0.24089 -1.6764,0.49805 -2.7832,0.77148v3.0664h2.5781v1.8555h-2.5781v1.582c1.12627,0.7096 2.16467,1.51037 3.1152,2.4023l-1.1719,1.8359c-0.54037,-0.69013 -1.18817,-1.42257 -1.9434,-2.1973v8.0859h-2.041zM254.785,170.498v6.084c0,1.62107 0.22461,3.04033 0.67382,4.2578c0.45573,1.21747 1.12307,2.47397 2.002,3.7695c0.73567,1.08073 1.52993,2.01173 2.3828,2.793l-1.4551,2.0117c-1.5104,-1.556 -2.73437,-3.37893 -3.6719,-5.4688c-0.29948,-0.65755 -0.54688,-1.35092 -0.74219,-2.0801c-0.18229,1.0026 -0.55013,2.03777 -1.1035,3.1055c-1.03513,1.98567 -2.36977,3.52863 -4.0039,4.6289l-1.416,-1.7188c1.6406,-1.0742 2.92317,-2.46093 3.8477,-4.1602c0.8984,-1.66013 1.3476,-3.9225 1.3476,-6.7871v-6.4355zM255.43929,179.3945c0.95707,-2.03127 1.65693,-3.91603 2.0996,-5.6543l2.0215,0.87891c-0.76173,2.27867 -1.56253,4.13087 -2.4024,5.5566zM248.64239,179.65817c0.45573,-1.21747 0.80403,-2.99807 1.0449,-5.3418l1.8945,0.2832c-0.18229,2.53907 -0.55013,4.51173 -1.1035,5.918z" fill="#ffffff" stroke-width="1"/><path d="M278.3,171.93v17.041h-2.1777v-1.3965h-12.246v1.377h-2.1777v-17.021zM263.876,173.8929v4.6777h5v-4.6777zM263.876,180.4945v5.0586h5v-5.0586zM276.122,185.5531v-5.0586h-5.127v5.0586zM276.122,178.5707v-4.6777h-5.127v4.6777z" fill="#ffffff" stroke-width="1"/><path d="M296.76,170.98v9.4629h-11.621v-9.4629zM287.2385,172.523v1.2207h7.4023v-1.2207zM287.2385,175.1207v1.2207h7.4023v-1.2207zM287.2385,177.7183v1.2598h7.4023v-1.2598zM283.3029,181.7417h16.191v1.6992h-8.0762v6.0644h-2.2168v-6.0644h-8.0371v-10.957h2.1387zM280.8029,187.6401c1.54947,-0.71613 3.0306,-1.9173 4.4434,-3.6035l1.7969,1.0449c-1.3932,1.76433 -2.93943,3.15107 -4.6387,4.1602zM297.6389,188.8999c-0.99607,-1.22393 -2.49347,-2.50973 -4.4922,-3.8574l1.6797,-1.1816c1.569,0.90493 3.1087,2.09307 4.6191,3.5644z" fill="#ffffff" stroke-width="1"/><path d="M311.58,174.14v-3.6426h2.0996v3.6426h5.293v8.8379h-5.293v6.5234h-2.0996v-6.5234h-5.1856v-8.8379zM308.4159,176.0834v4.9707h3.1641v-4.9707zM316.8925,181.0541v-4.9707h-3.2129v4.9707zM304.3925,175.2729c-0.79427,-1.1068 -1.8457,-2.16473 -3.1543,-3.1738l1.4551,-1.4844c1.30207,0.918 2.40233,1.94663 3.3008,3.0859zM303.75774,180.2924c-1.1328,-1.31513 -2.23307,-2.3926 -3.3008,-3.2324l1.5039,-1.5039c1.13933,0.8008 2.26563,1.83597 3.3789,3.1055zM300.72064,187.8608c1.25,-1.77733 2.40233,-3.99087 3.457,-6.6406l1.7383,1.3379c-0.89193,2.4414 -1.97917,4.73957 -3.2617,6.8945z" fill="#ffffff" stroke-width="1"/></g></g></svg>