<svg version="1.1" xmlns="http://www.w3.org/2000/svg" xmlns:xlink="http://www.w3.org/1999/xlink" width="72.87411" height="103.28924" viewBox="0,0,72.87411,103.28924"><g transform="translate(-82.08921,-232.05881)"><g data-paper-data="{&quot;isPaintingLayer&quot;:true}" fill="none" fill-rule="evenodd" stroke="#fc3324" stroke-width="36" stroke-linecap="round" stroke-linejoin="round" stroke-miterlimit="4" stroke-dasharray="" stroke-dashoffset="0" style="mix-blend-mode: normal"><path d="M130.00444,250.05881l1.8997,1.05983l-0.97985,1.17981l-0.88985,9.4085l-1.09983,4.75924l-3.20949,5.24916l-2.4996,6.03903l0.12998,4.12934l4.3693,2.5096l1.15981,-0.93985l4.10935,-0.6299l2.99952,-1.69973l0.96984,3.27948l-2.62958,6.77891l-1.52976,2.19964l-2.80955,6.03904l-0.37994,3.05951l-0.91986,0.01999l-2.56958,3.36947l-3.67942,1.65973l-4.64925,4.67926l-2.12966,1.57975l-4.3893,0.32995l-7.12886,3.22948l-4.05935,-2.59959l1.42977,-1.8697l3.99936,-0.49992l2.20965,-2.68957l0.96985,-2.85954l-1.13981,-2.78956l2.68957,-4.08934l2.38961,-1.2798l1.42978,-1.8897l-0.22997,-1.65973l-3.7594,-3.60942l-2.82954,0.37994l-2.22965,4.94921l-2.19965,-1.51975l0.19997,-4.14934l-1.14981,-1.71973l1.45977,-0.36994l-0.02999,-4.76924l1.37978,-4.20933l1.14981,-0.24996l0.98985,-2.98952l1.8897,-1.55975l0.86986,-2.96953l2.80955,-4.91922l1.96969,-0.70988l3.58943,-3.52943l2.19965,-3.1695l2.37962,-0.00999l1.56975,-2.97953l-0.38994,-1.15981l1.8897,-4.49928l4.40929,-1.29979"/></g></g></svg>