<svg version="1.1" xmlns="http://www.w3.org/2000/svg" xmlns:xlink="http://www.w3.org/1999/xlink" width="208" height="32" viewBox="0,0,208,32"><g transform="translate(-240,-164)"><g data-paper-data="{&quot;isPaintingLayer&quot;:true}" fill-rule="nonzero" stroke="none" stroke-linecap="butt" stroke-linejoin="miter" stroke-miterlimit="10" stroke-dasharray="" stroke-dashoffset="0" style="mix-blend-mode: normal"><path d="M240,196v-32h208v32z" fill="none" stroke-width="0"/><path d="M252.91,175.85c-1.25653,1.37373 -2.87437,2.45773 -4.8535,3.252l-1.1035,-1.4258c1.82293,-0.57291 3.32033,-1.31835 4.4922,-2.2363h-4.3555v-1.4844h4.6777c-0.6836,-0.33203 -1.32163,-0.61849 -1.9141,-0.85938l1.2109,-0.63476h-2.7539v-1.4648h8.8184l0.98632,0.92774c-0.7552,0.71613 -1.6634,1.3932 -2.7246,2.0312h3.3984l0.9668,0.89844c-0.8138,1.31507 -1.67317,2.4381 -2.5781,3.3691l-1.4844,-0.92774c0.63151,-0.55339 1.16537,-1.17189 1.6016,-1.8555h-2.5195v2.5781c0,0.49479 -0.10417,0.84959 -0.3125,1.0644c-0.21485,0.21485 -0.59895,0.32227 -1.1523,0.32227c-0.63802,0 -1.34439,-0.06185 -2.1191,-0.18555l-0.23438,-1.2988c0.59245,0.09115 1.11655,0.13672 1.5723,0.13672c0.1888,0 0.30273,-0.03906 0.34179,-0.11719c0.02607,-0.0586 0.0391,-0.16602 0.0391,-0.32226zM253.69125,173.5453c0.61197,-0.33203 1.15884,-0.69337 1.6406,-1.084h-3.7012c0.03907,0.01953 0.08464,0.03907 0.13672,0.0586c0.47526,0.22787 1.11653,0.56967 1.9238,1.0254zM255.95685,183.516v3.6621h-4.2188v0.95704h-1.5039v-3.916c-0.16276,0.09765 -0.38086,0.20833 -0.65429,0.33203l-0.57617,-1.0742v6.0254h-1.8848v-9.9414h12.021v8.1348c0,0.57292 -0.10417,0.98632 -0.3125,1.2402c-0.2539,0.3125 -0.7487,0.46875 -1.4844,0.46875c-0.51432,0 -1.21745,-0.04883 -2.1094,-0.14649l-0.34179,-1.6602c0.78773,0.06513 1.40297,0.0977 1.8457,0.0977c0.24739,0 0.39713,-0.05208 0.44922,-0.15625c0.03253,-0.06513 0.0488,-0.16604 0.0488,-0.30273v-3.7207zM254.43345,184.8148h-2.6953v1.0449h2.6953zM257.23615,182.2172v-1.1914h-1.9043v0.97656c0,0.14323 0.08138,0.21485 0.24414,0.21485zM253.77915,181.0258h-1.3281c-0.20833,0.99607 -0.63803,1.81963 -1.2891,2.4707h3.6426c-0.31901,-0.03907 -0.5599,-0.1237 -0.72266,-0.2539c-0.20182,-0.18229 -0.30273,-0.48828 -0.30273,-0.91797zM250.81035,181.0258h-1.8066v2.041c0.918,-0.37109 1.5202,-1.05143 1.8066,-2.041zM242.97835,180.45939c-0.56641,1.91407 -1.22721,3.5612 -1.9824,4.9414l-0.83984,-2.2949c1.1784,-2.01173 2.06057,-4.2383 2.6465,-6.6797h-2.3047v-1.9043h2.4805v-4.0234h2.002v4.0234h1.7188v1.9043h-1.7188v1.4844c0.86587,0.76173 1.55923,1.45833 2.0801,2.0898l-0.91797,1.8457c-0.40365,-0.63151 -0.79101,-1.18491 -1.1621,-1.6602v9.3164h-2.002z" fill="#ffffff" stroke-width="1"/><path d="M275.09,173.8v3.7793c0,0.42969 -0.09115,0.74545 -0.27344,0.94727c-0.21484,0.23437 -0.69011,0.35156 -1.4258,0.35156c-0.70313,0 -1.2793,-0.03906 -1.7285,-0.11718l-0.25391,-1.6211c0.51432,0.10417 0.94725,0.15625 1.2988,0.15625c0.1888,0 0.30924,-0.04557 0.36133,-0.13672c0.03907,-0.07812 0.0586,-0.20507 0.0586,-0.38086v-2.9785h-1.7383c-0.05207,1.37367 -0.23436,2.42837 -0.54688,3.1641c-0.34505,0.8008 -1.05795,1.53323 -2.1387,2.1973l-1.3965,-1.2402c0.97653,-0.50781 1.6048,-1.16211 1.8848,-1.9629c0.16927,-0.5013 0.27344,-1.2207 0.3125,-2.1582h-3.8574v-1.6602h5.5566v-1.6406h2.1484v1.6406h6.1328v1.6602zM278.1076,179.3371v3.9648h-9.6387c-0.05207,0.35807 -0.11392,0.71614 -0.18555,1.0742h10.664c-0.16276,1.7904 -0.38737,3.0176 -0.67383,3.6816c-0.41667,0.96353 -1.39323,1.4453 -2.9297,1.4453c-1.27607,0 -2.6465,-0.05534 -4.1113,-0.16601l-0.36133,-1.7774c1.39973,0.14974 2.653,0.22461 3.7598,0.22461c0.59895,0 0.99282,-0.06836 1.1816,-0.20508c0.29297,-0.21484 0.52083,-0.77474 0.68359,-1.6797h-8.5938c-0.07161,0.26693 -0.19531,0.66733 -0.37109,1.2012l-2.0996,-0.41992c0.49479,-1.4844 0.86589,-3.08923 1.1133,-4.8145h9.4238v-1.0449h-10v-1.4844zM263.7426,175.0207c-0.72267,-1.0026 -1.64713,-1.99543 -2.7734,-2.9785l1.4551,-1.3867c1.02213,0.74867 1.98243,1.70243 2.8809,2.8613zM263.1469,180.0598c-1.0026,-1.26953 -1.9759,-2.3047 -2.9199,-3.1055l1.4648,-1.416c0.97653,0.74867 1.9824,1.71547 3.0176,2.9004zM260.6274,187.9602c1.14587,-1.78387 2.2331,-4.07227 3.2617,-6.8652l1.6016,1.1816c-0.85287,2.58467 -1.875,5.00003 -3.0664,7.2461zM278.0294,178.595c-0.85287,-1.3802 -1.74803,-2.5716 -2.6855,-3.5742l1.4844,-0.95703c1.14587,1.04167 2.0736,2.181 2.7832,3.418zM264.3674,177.4231c0.95053,-0.78127 1.7318,-1.81643 2.3438,-3.1055l1.7774,0.66406c-0.63802,1.4518 -1.52019,2.66273 -2.6465,3.6328z" fill="#ffffff" stroke-width="1"/></g></g></svg>