<svg version="1.1" xmlns="http://www.w3.org/2000/svg" xmlns:xlink="http://www.w3.org/1999/xlink" width="208" height="32" viewBox="0,0,208,32"><g transform="translate(-240,-164)"><g data-paper-data="{&quot;isPaintingLayer&quot;:true}" fill-rule="nonzero" stroke="none" stroke-linecap="butt" stroke-linejoin="miter" stroke-miterlimit="10" stroke-dasharray="" stroke-dashoffset="0" style="mix-blend-mode: normal"><path d="M240,196v-32h208v32z" fill="none" stroke-width="0"/><path d="M244.81,184.03c1.2044,-1.30207 2.31117,-3.03383 3.3203,-5.1953c0.41015,-0.87893 0.79425,-1.97267 1.1523,-3.2812h-3.3301v-1.9434h3.7891c0.2539,-1.23047 0.4427,-2.3047 0.5664,-3.2227l2.1289,0.32227c-0.13021,0.89847 -0.30273,1.86527 -0.51758,2.9004h7.2559v1.9434h-7.7148l-0.0684,0.24414c-0.38412,1.4388 -0.82682,2.73763 -1.3281,3.8965h8.3106v1.8359h-4.1211v5.2441h5.2344v1.9434h-12.939v-1.9434h5.5469v-5.2441h-2.9297c-0.931,1.69273 -1.94987,3.1055 -3.0566,4.2383l-1.2988,-1.5625v5.332h-2.0801v-10.059c-0.4362,0.7552 -0.96353,1.56573 -1.582,2.4316l-0.97657,-2.1777c1.05467,-1.47787 1.9596,-3.21613 2.7148,-5.2148c0.42969,-1.1328 0.87889,-2.52277 1.3476,-4.1699l2.0801,0.51758c-0.47526,1.6406 -0.97656,3.09893 -1.5039,4.375z" fill="#ffffff" stroke-width="1"/><path d="M276.39,173.9v1.582h2.8027v1.582h-2.8027v2.9297h-6.3184v-2.9297h-1.9434v0.83984c0,2.9362 -0.14323,5.2116 -0.42969,6.8262c-0.31901,1.7578 -0.96028,3.3724 -1.9238,4.8438l-1.6211,-1.4648c0.64453,-1.09373 1.10026,-2.14843 1.3672,-3.1641c0.42317,-1.63413 0.63476,-3.98113 0.63476,-7.041v-5.6445h5.2539v-1.7578h2.0801v1.7578h5.498v1.6406zM274.4662,173.9h-2.4902v1.582h2.4902zM270.0717,173.9h-1.9434v1.582h1.9434zM274.4662,177.0641h-2.4902v1.5527h2.4902zM275.14979,186.068c1.15233,0.58594 2.666,1.10351 4.541,1.5527l-1.0156,1.8652c-1.888,-0.53385 -3.5872,-1.27929 -5.0976,-2.2363c-1.4258,0.93747 -3.1999,1.735 -5.3223,2.3926l-1.0644,-1.7578c1.86847,-0.37761 3.50257,-0.97004 4.9023,-1.7773c-0.97653,-0.91147 -1.81313,-1.9922 -2.5098,-3.2422h-1.1524v-1.6797h8.9844l0.99609,0.9375c-1.0026,1.60807 -2.08983,2.92317 -3.2617,3.9453zM273.59709,185.0524c0.92447,-0.76173 1.61783,-1.4909 2.0801,-2.1875h-4.1406c0.54687,0.7552 1.23374,1.48437 2.0606,2.1875zM263.81189,175.0424c-0.73567,-1.05467 -1.66013,-2.06703 -2.7734,-3.0371l1.4746,-1.3672c0.93747,0.70313 1.89777,1.6634 2.8809,2.8808zM263.23572,180.0619c-0.93747,-1.24347 -1.89123,-2.29817 -2.8613,-3.1641l1.5039,-1.3965c1.04167,0.83987 2.02147,1.84573 2.9394,3.0176zM260.55012,188.0014c1.10027,-1.82293 2.1224,-4.08857 3.0664,-6.7969l1.7383,1.1133c-0.7422,2.40887 -1.74153,4.8047 -2.998,7.1875z" fill="#ffffff" stroke-width="1"/></g></g></svg>