<svg version="1.1" xmlns="http://www.w3.org/2000/svg" xmlns:xlink="http://www.w3.org/1999/xlink" width="100" height="100" viewBox="0,0,100,100"><g transform="translate(-190,-130)"><g data-paper-data="{&quot;isPaintingLayer&quot;:true}" fill-rule="nonzero" stroke-linecap="butt" stroke-linejoin="miter" stroke-miterlimit="10" stroke-dasharray="" stroke-dashoffset="0" style="mix-blend-mode: normal"><path d="M190,230v-100h100v100z" fill="none" stroke="#959196" stroke-width="0"/><path d="M268.76,164.602v28.096c0,1.13933 -0.21647,1.99383 -0.64941,2.5635c-0.56966,0.7178 -1.78303,1.0767 -3.6401,1.0767c-2.3014,0 -4.56867,-0.10254 -6.8018,-0.30762l-0.76904,-3.7427c2.83693,0.27344 5.11557,0.41016 6.8359,0.41016c0.53548,0 0.86019,-0.11393 0.97412,-0.3418c0.06836,-0.14811 0.10254,-0.35889 0.10254,-0.63232v-7.1265h-15.039c-0.11393,1.83433 -0.42155,3.5661 -0.92285,5.1953c-0.77473,2.49513 -2.1989,4.83073 -4.2725,7.0068l-3.042,-2.9395c1.90267,-2.14193 3.16163,-4.3921 3.7769,-6.7505c0.37597,-1.49253 0.56396,-3.16163 0.56396,-5.0073v-17.5zM249.859,167.8491v4.9048h14.954v-4.9048zM249.859,176.0522v5.2466h14.954v-5.2466z" fill="#ff0000" stroke="none" stroke-width="1"/><g fill="#ff0000" stroke="none" stroke-width="1"><path d="M207.44,174.166l-2.2,-2.28l5.52,-6v4.64zM210.76,194.086v-28.2h3.64v28.2z"/><path d="M220.125,190.846c0.02667,-1.78667 0.28,-3.32 0.76,-4.6c0.50667,-1.30667 1.14667,-2.42667 1.92,-3.36c0.8,-0.96 1.64,-1.82667 2.52,-2.6c0.88,-0.8 1.70667,-1.58667 2.48,-2.36c0.77333,-0.8 1.41333,-1.65333 1.92,-2.56c0.50667,-0.93333 0.76,-2.02667 0.76,-3.28c0,0 0.12,0 0.36,0c0.24,0 0.53333,0 0.88,0c0.37333,0 0.74667,0 1.12,0c0.37333,0 0.68,0 0.92,0c0.24,0 0.36,0 0.36,0c0,1.65333 -0.25333,3.06667 -0.76,4.24c-0.50667,1.14667 -1.16,2.16 -1.96,3.04c-0.77333,0.88 -1.61333,1.70667 -2.52,2.48c-0.88,0.74667 -1.72,1.53333 -2.52,2.36c-0.77333,0.82667 -1.41333,1.77333 -1.92,2.84c-0.50667,1.04 -0.77333,2.30667 -0.8,3.8zM220.125,194.086v-3.24h13.96v3.24zM222.925,171.606l-3.36,-0.68c0.16,-1.17333 0.56,-2.2 1.2,-3.08c0.66667,-0.90667 1.52,-1.61333 2.56,-2.12c1.04,-0.50667 2.17333,-0.76 3.4,-0.76v3.16c-0.96,0 -1.8,0.28 -2.52,0.84c-0.72,0.56 -1.14667,1.44 -1.28,2.64zM234.125,172.126h-3.64c0,-1.17333 -0.36,-2.13333 -1.08,-2.88c-0.72,-0.74667 -1.62667,-1.12 -2.72,-1.12v-3.16c1.41333,0 2.68,0.32 3.8,0.96c1.12,0.61333 2,1.46667 2.64,2.56c0.66667,1.06667 1,2.28 1,3.64z"/></g></g></g></svg>