<svg version="1.1" xmlns="http://www.w3.org/2000/svg" xmlns:xlink="http://www.w3.org/1999/xlink" width="208" height="32" viewBox="0,0,208,32"><g transform="translate(-240,-164)"><g data-paper-data="{&quot;isPaintingLayer&quot;:true}" fill-rule="nonzero" stroke="none" stroke-linecap="butt" stroke-linejoin="miter" stroke-miterlimit="10" stroke-dasharray="" stroke-dashoffset="0" style="mix-blend-mode: normal"><path d="M240,196v-32h208v32z" fill="none" stroke-width="0"/><path d="M245.45,179.12c0.86587,0.59896 1.6764,1.24676 2.4316,1.9434v-0.79101h11.123v9.2285h-1.9629v-0.82031h-7.1777v0.82031h-1.9824v-8.1836l-1.0156,1.6113c-0.48177,-0.57292 -0.95377,-1.08399 -1.416,-1.5332v8.1055h-2.0606v-7.998c-0.77473,0.8724 -1.49087,1.6146 -2.1484,2.2266l-1.0156,-1.8555c2.18747,-1.91407 3.8411,-4.01367 4.9609,-6.2988h-4.5215v-1.9434h2.6367v-3.1348h2.0801v3.1348h1.5039l0.89843,0.9375c-0.61198,1.40627 -1.38998,2.81577 -2.334,4.2285zM249.8641,181.8544v1.8164h2.6465v-1.8164zM249.8641,185.1747v1.8848h2.6465v-1.8848zM257.0418,187.0595v-1.8848h-2.7344v1.8848zM257.0418,183.6708v-1.8164h-2.7344v1.8164zM258.0672,174.1786v4.9609h-9.3262v-4.9609zM250.7039,175.6825v1.9727h5.3418v-1.9727zM247.5887,171.2977h11.699v1.6992h-11.699z" fill="#ffffff" stroke-width="1"/><path d="M273.12,184.26v-4.2188h1.8555v5.9766h-8.1445v1.3184h-1.8555v-7.2949h1.8555v4.2188h2.1582v-5.498h-5.0098v-1.7578h6.9531c0.65104,-1.13933 1.21094,-2.4056 1.6797,-3.7988l2.0215,0.70313c-0.55989,1.1784 -1.14256,2.2103 -1.748,3.0957h3.1543v1.7578h-5.1953v5.498zM278.6766,171.184v16.357c0,0.65755 -0.17578,1.12955 -0.52734,1.416c-0.33855,0.27343 -0.92775,0.41015 -1.7676,0.41015c-0.65755,0 -1.78059,-0.05534 -3.3691,-0.16601l-0.49805,-2.0606c1.1328,0.13672 2.24283,0.20508 3.3301,0.20508c0.36458,0 0.57942,-0.06185 0.64453,-0.18555c0.0456,-0.08463 0.0684,-0.25065 0.0684,-0.49804v-13.643h-13.105v16.484h-2.1191v-18.32zM266.6946,176.9555c-0.4362,-1.04167 -0.931,-1.9922 -1.4844,-2.8516l1.8262,-0.78125c0.61197,0.89193 1.12304,1.82943 1.5332,2.8125z" fill="#ffffff" stroke-width="1"/><path d="M296.76,170.98v9.4629h-11.621v-9.4629zM287.2385,172.523v1.2207h7.4023v-1.2207zM287.2385,175.1207v1.2207h7.4023v-1.2207zM287.2385,177.7183v1.2598h7.4023v-1.2598zM283.3029,181.7417h16.191v1.6992h-8.0762v6.0644h-2.2168v-6.0644h-8.0371v-10.957h2.1387zM280.8029,187.6401c1.54947,-0.71613 3.0306,-1.9173 4.4434,-3.6035l1.7969,1.0449c-1.3932,1.76433 -2.93943,3.15107 -4.6387,4.1602zM297.6389,188.8999c-0.99607,-1.22393 -2.49347,-2.50973 -4.4922,-3.8574l1.6797,-1.1816c1.569,0.90493 3.1087,2.09307 4.6191,3.5644z" fill="#ffffff" stroke-width="1"/><path d="M307.35,174.34c0.38411,0.65755 0.72591,1.35742 1.0254,2.0996l-2.041,0.57617c-0.33203,-0.95053 -0.72267,-1.84247 -1.1719,-2.6758h-1.0352c-0.57292,1.0482 -1.27605,2.00197 -2.1094,2.8613l-1.5625,-1.4258c1.30207,-1.21747 2.32093,-3.01433 3.0566,-5.3906l2.0801,0.40039c-0.22135,0.7096 -0.43294,1.30857 -0.63476,1.7969h4.6582v1.7578zM315.5336,174.34c0.41015,0.60547 0.79102,1.23373 1.1426,1.8848l-2.041,0.63477c-0.48177,-1.0482 -0.91147,-1.88803 -1.2891,-2.5195h-0.9668c-0.5013,1.0612 -1.07097,1.98243 -1.709,2.7637l-1.6797,-1.1426c1.1784,-1.3672 2.03127,-3.2064 2.5586,-5.5176l2.0606,0.3418c-0.20182,0.77473 -0.38086,1.3737 -0.53711,1.7969h6.0644v1.7578zM305.5824,179.4767v5.2637c0.77473,-0.26693 1.64713,-0.5957 2.6172,-0.98633l0.21485,1.6602c-2.4284,1.15233 -4.87307,2.1061 -7.334,2.8613l-0.70312,-1.9238c0.87893,-0.23438 1.93363,-0.54363 3.1641,-0.92774v-5.9473h-2.7637v-1.7774h7.4023v1.7774zM316.8424,177.2794v9.502c0,0.17579 0.0293,0.28972 0.0879,0.3418c0.07162,0.06513 0.22136,0.0977 0.44922,0.0977c0.25391,0 0.41341,-0.08138 0.47852,-0.24414c0.02607,-0.08464 0.05537,-0.26693 0.0879,-0.54688c0.07813,-0.72267 0.11719,-1.41927 0.11719,-2.0898l1.6797,0.68359c-0.06507,1.90107 -0.22132,3.0697 -0.46875,3.5059c-0.19531,0.35156 -0.50781,0.55989 -0.9375,0.625c-0.26693,0.0456 -0.64779,0.0684 -1.1426,0.0684c-1.0026,0 -1.64713,-0.11068 -1.9336,-0.33203c-0.26693,-0.20183 -0.40039,-0.57293 -0.40039,-1.1133v-3.0859l-1.2402,1.5137c-0.83333,-2.15493 -1.65363,-3.81183 -2.4609,-4.9707v0.625c0,1.56253 -0.15951,2.8516 -0.47852,3.8672c-0.37109,1.1784 -1.02213,2.22657 -1.9531,3.1445c-0.24089,0.23437 -0.56641,0.51758 -0.97656,0.84961l-1.6016,-1.5234c0.69013,-0.49479 1.21097,-0.93749 1.5625,-1.3281c0.77473,-0.8724 1.24023,-1.98567 1.3965,-3.3398c0.0586,-0.48177 0.0879,-1.01237 0.0879,-1.5918v-4.6582zM314.86,179.0177h-3.7012v2.0117l0.99609,-1.1328c1.03513,1.3932 1.93683,2.92313 2.7051,4.5898z" fill="#ffffff" stroke-width="1"/><path d="M335.12,185.94c-0.22135,0.48828 -0.50456,1.01561 -0.84961,1.582h5.2246v1.5625h-18.994v-1.5625h5.0195c-0.24089,-0.51432 -0.5306,-1.04165 -0.86914,-1.582h-1.8945v-3.9356h14.482v3.9356zM332.7567,185.94h-5.6836c0.34505,0.58594 0.59571,1.11327 0.75196,1.582h4.2188c0.2539,-0.50781 0.49153,-1.03515 0.71289,-1.582zM324.954,183.3814v1.2012h10.088v-1.2012zM326.7802,171.8974v-1.3965h1.9824v1.3965h2.3828v-1.3965h1.9726v1.3965h4.502v6.8848h-15.234v-6.8848zM324.3681,173.2353v1.4453h2.4121v-1.4453zM324.3681,175.9404v1.4844h2.4121v-1.4844zM335.6181,177.4248v-1.4844h-2.5v1.4844zM335.6181,174.6807v-1.4453h-2.5v1.4453zM328.7626,173.2354v1.4453h2.3828v-1.4453zM328.7626,175.9405v1.4844h2.3828v-1.4844zM320.7646,179.6612h18.477v1.4648h-18.477z" fill="#ffffff" stroke-width="1"/><path d="M350.23,178.41v7.7344c0,0.5013 0.21485,0.80403 0.64454,0.9082c0.44271,0.11068 1.45507,0.16602 3.0371,0.16602c1.54293,0 2.5618,-0.07813 3.0566,-0.23438c0.27995,-0.09115 0.46224,-0.34505 0.54687,-0.76172c0.11068,-0.58593 0.16927,-1.2793 0.17578,-2.0801l2.041,0.57618c-0.10417,1.9206 -0.36784,3.1478 -0.79102,3.6816c-0.27995,0.35156 -0.70311,0.55989 -1.2695,0.625c-0.89193,0.09765 -2.4056,0.14648 -4.541,0.14648c-1.65367,0 -2.73767,-0.04557 -3.252,-0.13672c-0.77473,-0.13021 -1.26627,-0.47201 -1.4746,-1.0254c-0.10417,-0.29297 -0.15625,-0.6836 -0.15625,-1.1719v-7.7441l-1.8652,0.64453l-0.45899,-1.8945l2.3242,-0.80078v-5.2637h1.9824v4.5801l2.0996,-0.71289v-5.1465h1.9629v4.4629l3.2715,-1.123l1.0254,0.625v7.3144c0,0.50781 -0.12044,0.88541 -0.36133,1.1328c-0.27343,0.27343 -0.73243,0.41015 -1.377,0.41015c-0.52735,0 -1.08725,-0.04557 -1.6797,-0.13672l-0.32226,-1.8652c0.38411,0.09765 0.77475,0.14648 1.1719,0.14648c0.28646,0 0.46224,-0.05859 0.52734,-0.17578c0.06513,-0.09765 0.0977,-0.26041 0.0977,-0.48828v-4.6191l-2.3535,0.82031v7.9004h-1.9629v-7.2266zM343.0523,175.2166v-4.7168h2.0996v4.7168h1.8945v1.9824h-1.8945v6.2109c0.6836,-0.23437 1.36067,-0.47851 2.0312,-0.73242l0.18555,1.8848c-2.1094,0.96353 -4.2741,1.77083 -6.4941,2.4219l-0.6836,-2.0801c1.0026,-0.26041 1.8815,-0.50781 2.6367,-0.74218c0.09115,-0.03253 0.16602,-0.05533 0.22461,-0.0684v-6.8945h-2.4805v-1.9824z" fill="#ffffff" stroke-width="1"/><path d="M369.48,175.76c-0.0456,1.08727 -0.1107,2.0443 -0.19531,2.8711h7.8711c-0.09765,4.51827 -0.35156,7.4512 -0.76172,8.7988c-0.20833,0.67707 -0.5957,1.1458 -1.1621,1.4062c-0.44271,0.20182 -1.09051,0.30273 -1.9434,0.30273c-0.89847,0 -1.91733,-0.06836 -3.0566,-0.20507l-0.38085,-2.1973c1.52993,0.21485 2.6074,0.32227 3.2324,0.32227c0.52734,0 0.86264,-0.14974 1.0059,-0.44922c0.34505,-0.7292 0.58593,-2.74093 0.72265,-6.0352h-5.8105c-0.21485,1.17187 -0.51758,2.1875 -0.90821,3.0469c-1.08727,2.37627 -2.90367,4.26103 -5.4492,5.6543l-1.543,-1.7188c2.55207,-1.32813 4.23827,-3.06967 5.0586,-5.2246c0.54687,-1.4388 0.90167,-3.62957 1.0644,-6.5723h-6.4648v-2.002h7.9785v-3.2617h2.2559v3.2617h8.2422v2.002z" fill="#ffffff" stroke-width="1"/></g></g></svg>