<svg version="1.1" xmlns="http://www.w3.org/2000/svg" xmlns:xlink="http://www.w3.org/1999/xlink" width="208" height="32" viewBox="0,0,208,32"><g transform="translate(-240,-164)"><g data-paper-data="{&quot;isPaintingLayer&quot;:true}" fill-rule="nonzero" stroke="none" stroke-linecap="butt" stroke-linejoin="miter" stroke-miterlimit="10" stroke-dasharray="" stroke-dashoffset="0" style="mix-blend-mode: normal"><path d="M240,196v-32h208v32z" fill="none" stroke-width="0"/><path d="M252.63,171.11h2.1973v3.9453h3.916v2.002h-3.916v0.61523c0,3.32033 -0.47527,5.81383 -1.4258,7.4805c-0.918,1.60153 -2.53583,2.82873 -4.8535,3.6816l-1.3672,-1.7383c2.2656,-0.78127 3.78253,-1.9857 4.5508,-3.6133c0.59895,-1.25653 0.89843,-3.1836 0.89843,-5.7812v-0.64453h-5.9277v5.5957h-2.1973v-5.5957h-3.6426v-2.002h3.6426v-3.7988h2.1973v3.7988h5.9277z" fill="#ffffff" stroke-width="1"/><path d="M260.33,186.51c1.1328,-1.66667 2.1061,-3.70767 2.9199,-6.123c0.8854,-2.6432 1.4453,-5.32873 1.6797,-8.0566l2.2363,0.45899c-0.57943,3.9974 -1.35743,7.35673 -2.334,10.078c-0.70313,1.9792 -1.569,3.71423 -2.5976,5.2051zM276.287,188.1702c-1.1784,-1.95967 -2.24937,-4.3197 -3.2129,-7.0801c-0.918,-2.6172 -1.6667,-5.39063 -2.2461,-8.3203l2.0996,-0.6543c1.1198,5.63153 2.88737,10.49153 5.3027,14.58z" fill="#ffffff" stroke-width="1"/><path d="M281.42,171.32h2.2754v10.684h-2.2754zM291.449,171.11492h2.2754v6.9824c0,2.4544 -0.19857,4.28057 -0.5957,5.4785c-0.33203,1.02213 -0.7845,1.83593 -1.3574,2.4414c-1.1914,1.28253 -3.10547,2.2298 -5.7422,2.8418l-1.123,-2.002c2.88413,-0.58594 4.7331,-1.55924 5.5469,-2.9199c0.51432,-0.86587 0.82356,-1.9596 0.92773,-3.2812c0.0456,-0.61198 0.0684,-1.45835 0.0684,-2.5391z" fill="#ffffff" stroke-width="1"/><path d="M304.54,176.36c-2.05727,-0.918 -4.19593,-1.65367 -6.416,-2.207l0.68359,-2.0996c2.5716,0.58594 4.7298,1.31511 6.4746,2.1875zM298.3681,186.0768c3.22267,-0.27344 5.6901,-0.84961 7.4023,-1.7285c2.01827,-1.04167 3.56773,-2.63997 4.6484,-4.7949c0.70313,-1.3932 1.2728,-3.21613 1.709,-5.4688l1.875,1.377c-0.52735,2.40887 -1.16538,4.32293 -1.9141,5.7422c-1.35413,2.58467 -3.42443,4.4564 -6.2109,5.6152c-1.7578,0.7292 -4.10807,1.25003 -7.0508,1.5625z" fill="#ffffff" stroke-width="1"/><path d="M323.92,182.24h-4.043v-1.6016h1.9531c-0.29297,-0.66407 -0.625,-1.28257 -0.99609,-1.8555l1.7578,-0.64453c0.50781,0.85287 0.91798,1.6862 1.2305,2.5h2.2949c0.38411,-0.78773 0.72265,-1.6341 1.0156,-2.5391l1.9629,0.61524c-0.33203,0.71613 -0.6836,1.3574 -1.0547,1.9238h2.0996v1.6016h-4.1797v1.4258h4.4531v1.6602h-4.4531v3.6914h-2.041v-3.6914h-4.2871v-1.6602h4.2871zM326.0196,176.2244h7.4024v11.416c0,0.6706 -0.17904,1.1426 -0.53711,1.416c-0.29948,0.23438 -0.80405,0.35157 -1.5137,0.35157c-0.918,0 -1.8034,-0.04883 -2.6562,-0.14649l-0.47852,-1.9629c1.13933,0.13672 1.9922,0.20508 2.5586,0.20508c0.23437,0 0.37109,-0.05859 0.41015,-0.17578c0.02607,-0.07161 0.0391,-0.17253 0.0391,-0.30274v-9.1016h-12.48v11.582h-2.1777v-13.281h7.2754v-1.7676h-8.3594v-1.8164h8.3594v-2.1387h2.1582v2.1387h8.4766v1.8164h-8.4766z" fill="#ffffff" stroke-width="1"/><path d="M341.98,172.75h4.1797v1.8848h-1.377c-0.2474,0.99607 -0.57943,2.041 -0.9961,3.1348h2.6074v1.8848h-10.898v-1.8848h2.3926c-0.26041,-1.25 -0.53385,-2.29493 -0.82031,-3.1348h-1.2695v-1.8848h4.1406v-2.2559h2.041zM339.0406,174.6348c0.33203,0.97007 0.58919,2.015 0.77148,3.1348h1.9922l0.09766,-0.27344c0.27995,-0.7422 0.54036,-1.5853 0.78125,-2.5293l0.0879,-0.33203zM345.0953,181.295v7.998h-2.002v-0.95703h-4.2578v1.1621h-2.0606v-8.2031zM338.8355,183.0919v3.3887h4.2578v-3.3887zM351.8825,178.1603c0.77473,0.73567 1.38997,1.61133 1.8457,2.627c0.44922,1.0156 0.67383,2.04423 0.67383,3.0859c0,0.96353 -0.17904,1.67317 -0.53711,2.1289c-0.37109,0.47526 -0.98306,0.71289 -1.8359,0.71289c-0.7292,0 -1.43557,-0.05208 -2.1191,-0.15625l-0.47852,-2.0801c0.78773,0.14323 1.43877,0.21485 1.9531,0.21485c0.39063,0 0.63477,-0.09115 0.73242,-0.27344c0.06513,-0.13021 0.0977,-0.39062 0.0977,-0.78125c0,-1.60807 -0.48177,-2.9948 -1.4453,-4.1602c-0.25391,-0.30599 -0.57292,-0.63476 -0.95703,-0.98633l0.11719,-0.27343c0.67707,-1.52993 1.2044,-3.125 1.582,-4.7852h-2.5v16.064h-2.0215v-18.086h5.8789l1.084,0.99609c-0.65755,2.2396 -1.34765,4.15693 -2.0703,5.752z" fill="#ffffff" stroke-width="1"/><path d="M360.44,175.96v13.545h-2.1191v-10.029c-0.52734,0.7422 -1.13931,1.51043 -1.8359,2.3047l-1.1035,-2.0996c1.3216,-1.46487 2.4544,-3.1706 3.3984,-5.1172c0.57291,-1.1784 1.14585,-2.58467 1.7188,-4.2188l2.041,0.55664c-0.59245,1.78387 -1.29231,3.47007 -2.0996,5.0586zM371.563,175.10063h2.9394v1.9629h-2.9394v10.254c0,0.8594 -0.20833,1.43233 -0.625,1.7188c-0.30599,0.21485 -0.88215,0.32227 -1.7285,0.32227c-1.03513,0 -2.09633,-0.05859 -3.1836,-0.17578l-0.41992,-2.1387c1.15887,0.16927 2.2396,0.2539 3.2422,0.2539c0.27343,0 0.43945,-0.05859 0.49804,-0.17578c0.03907,-0.08463 0.0586,-0.22461 0.0586,-0.41992v-9.6387h-7.9883v-1.9629h7.9883v-4.2578h2.1582zM365.3814,184.56353c-0.73567,-1.95967 -1.64387,-3.74677 -2.7246,-5.3613l1.8652,-1.084c1.17187,1.72527 2.11263,3.49283 2.8223,5.3027z" fill="#ffffff" stroke-width="1"/><path d="M380.52,185.06c0.52083,0.60547 1.10677,1.05471 1.7578,1.3477c1.06773,0.48177 2.46747,0.72266 4.1992,0.72266h8.3203c-0.23437,0.44271 -0.45247,1.07747 -0.6543,1.9043h-7.7637c-2.2396,0 -3.9551,-0.35157 -5.1465,-1.0547c-0.48828,-0.29297 -1.02538,-0.77151 -1.6113,-1.4356c-0.0456,0.05207 -0.10094,0.11717 -0.16602,0.19531c-0.957,1.1328 -1.90753,2.05727 -2.8516,2.7734l-1.1816,-2.002c1.03513,-0.61849 2.03447,-1.31836 2.998,-2.0996v-4.8242h-2.8418v-1.9238h4.9414zM383.0591,172.101l0.51758,-0.0391c3.01433,-0.20833 5.72267,-0.6543 8.125,-1.3379l1.5234,1.7188c-2.52607,0.66406 -5.22137,1.11326 -8.0859,1.3476v2.5293h9.043v1.9043h-3.2812v7.959h-2.1582v-7.959h-3.6035c-0.03253,2.08987 -0.18878,3.75327 -0.46875,4.9902c-0.25391,1.13933 -0.67057,2.16147 -1.25,3.0664l-1.7969,-1.3574c0.64453,-1.0026 1.05793,-2.2461 1.2402,-3.7305c0.13021,-1.02213 0.19531,-2.4121 0.19531,-4.1699zM379.4458,175.9194c-0.99607,-1.40627 -2.0703,-2.66603 -3.2227,-3.7793l1.6016,-1.2793c1.1198,0.93747 2.2461,2.12887 3.3789,3.5742z" fill="#ffffff" stroke-width="1"/></g></g></svg>