<svg xmlns="http://www.w3.org/2000/svg" viewBox="0 0 120 60" version="1.1" height="60" width="120"><rect style="paint-order:stroke markers fill" stop-color="#000000" opacity=".80769" fill="none" height="60" width="120"></rect><path aria-label="30fps" fill="#f2f2f2" d="m63.28744 17.7505h0.950195q1.203125 0 1.934571-0.430664 0.895508-0.526367 0.895508-1.442383 0-0.758789-0.65625-1.203125-0.581055-0.389648-1.449219-0.389648-1.572266 0-3.021485 1.203125l-0.991211-1.223633q1.756836-1.408203 4.135743-1.408203 1.592773 0 2.618164 0.65625 1.237304 0.799804 1.237304 2.262695 0 1.121094-0.854492 1.920898-0.663086 0.615235-1.75 0.772461v0.05469q1.408203 0.232422 2.153321 0.929687 0.77246 0.72461 0.77246 1.934571 0 1.763672-1.42871 2.638672-1.073243 0.65625-2.816407 0.65625-2.748047 0-4.457031-1.681641l1.032227-1.230469q0.546875 0.581055 1.408203 0.957031 1.045898 0.458008 2.030273 0.458008 1.107422 0 1.729492-0.464844 0.601563-0.444335 0.601563-1.360351 0-1.257813-1.209961-1.78418-0.813477-0.355469-1.955078-0.355469h-0.90918zm12.68066-4.942383q2.15332 0 3.335938 1.866211 0.991211 1.558594 0.991211 4.108398 0 2.331055-0.840821 3.841797-1.168945 2.112305-3.506836 2.112305-2.098632 0-3.274414-1.75-1.05957-1.572266-1.05957-4.204102 0-2.734375 1.134766-4.327148 1.175781-1.647461 3.219726-1.647461zm-0.02051 1.469727q-1.107422 0-1.75 1.216797-0.62207 1.189453-0.62207 3.288085 0 1.961915 0.567383 3.13086 0.649414 1.326172 1.818359 1.326172 1.025391 0 1.661133-1.066407 0.710938-1.196289 0.710938-3.390625 0-2.08496-0.615235-3.274414-0.642578-1.230468-1.770508-1.230468zm7.464844 1.893554v-0.574218q0-1.298829 0.574219-2.064454 0.813476-1.073242 2.351562-1.073242 1.100586 0 2.071289 0.546875l-0.574218 1.216797q-0.710938-0.348633-1.271485-0.348633-1.319336 0-1.319336 1.736328v0.560547h2.631836v1.298828h-2.631836v6.958985h-1.832031v-6.958985h-2.00293v-1.298828zm7.936524 0v1.121094q1.134765-1.34668 2.850585-1.34668 1.722657 0 2.775391 1.148438 1.004883 1.086914 1.004883 2.925781 0 1.551758-0.717774 2.597656-1.032226 1.503907-3.035156 1.503907-1.818359 0-2.741211-1.244141v2.871094h-1.832031v-9.577149zm0.136718 5.120118q0.984375 1.415039 2.296875 1.415039 1.045899 0 1.654297-0.69043 0.628906-0.710938 0.628906-2.016602 0-1.182617-0.526367-1.859375-0.601562-0.765625-1.756836-0.765625-0.827148 0-1.483398 0.519532-0.512695 0.40332-0.813477 1.107421zm8.428711 0.84082q1.319332 0.984375 2.959962 0.984375 1.49023 0 1.49023-0.888672 0-0.676758-1.69531-1.244141l-0.71094-0.232422q-1.25781-0.423828-1.72949-0.77246-0.765624-0.574219-0.765624-1.63379 0-1.175781 1.032224-1.879882 0.82032-0.560547 2.06446-0.560547 1.88671 0 3.39062 0.936523l-0.86816 1.401367q-1.10742-0.84082-2.39942-0.84082-0.5332 0-0.875 0.191406-0.42383 0.232422-0.42383 0.676758 0 0.341797 0.36915 0.587891 0.29394 0.205078 1.07324 0.4375l0.75879 0.21875q2.74121 0.813476 2.74121 2.638672 0 0.916015-0.66992 1.633789-0.84766 0.909179-2.93946 0.909179-2.03711 0-3.670896-1.189453z"></path></svg>
