<svg version="1.1" xmlns="http://www.w3.org/2000/svg" xmlns:xlink="http://www.w3.org/1999/xlink" width="168.1" height="21.8906" viewBox="0,0,168.1,21.8906"><g transform="translate(-240,-180)"><g data-paper-data="{&quot;isPaintingLayer&quot;:true}" stroke="none" stroke-linecap="butt" stroke-linejoin="miter" stroke-miterlimit="10" stroke-dasharray="" stroke-dashoffset="0" style="mix-blend-mode: normal"><path d="M248,180h152.1c4.432,0 8,3.568 8,8v5.8906c0,4.432 -3.568,8 -8,8h-152.1c-4.432,0 -8,-3.568 -8,-8v-5.8906c0,-4.432 3.568,-8 8,-8z" fill-opacity="0.7" fill="#000000" fill-rule="evenodd" stroke-width="0"/><g fill="#ffffff" fill-rule="nonzero" stroke-width="1"><path d="M250.96,192.1l-0.11719,-0.51172c0.17709,0.02607 0.34115,0.0391 0.49219,0.0391c0.07552,0 0.11979,-0.01953 0.13281,-0.0586c0.0104,-0.02607 0.0156,-0.07034 0.0156,-0.13281v-0.91797h-2.0469v-0.63281h2.0469v-0.55078h-1.0234v-0.27344c-0.27604,0.16146 -0.57161,0.3112 -0.88672,0.44922l-0.51562,-0.5625c0.59635,-0.22917 1.09765,-0.50781 1.5039,-0.83594c0.3125,-0.25261 0.60156,-0.55729 0.86719,-0.91406h0.84766c0.29687,0.36719 0.67577,0.68229 1.1367,0.94531c0.34114,0.19531 0.80467,0.40234 1.3906,0.62109l-0.46484,0.63282c-0.38802,-0.15105 -0.72395,-0.30079 -1.0078,-0.44922v0.38672h-1.0234v0.55078h2.1602v0.63281h-2.1602v1.1992c0,0.18229 -0.04427,0.31641 -0.13282,0.40234c-0.09114,0.08855 -0.2565,0.13282 -0.49609,0.13282c-0.07552,0 -0.16406,-0.00133 -0.26562,-0.004v0.35547h2.6953v0.65625h-2.6953v0.625h3.2695v0.69531h-7.3594v-0.69531h3.2227v-0.625h-2.6641v-0.65625h2.6641v-0.50391zM250.9248,188.7484h2.0547c-0.42187,-0.25521 -0.79817,-0.5664 -1.1289,-0.93359c-0.25261,0.34895 -0.5612,0.66015 -0.92579,0.93359zM248.956,188.6703c-0.37239,-0.34114 -0.77603,-0.6315 -1.2109,-0.87109l0.5039,-0.5625c0.51823,0.26823 0.9375,0.54297 1.2578,0.82422zM247.2841,191.5883c0.52344,-0.36719 1.08334,-0.87629 1.6797,-1.5273l0.42968,0.61719c-0.39323,0.49479 -0.91536,1.01952 -1.5664,1.5742zM253.8896,192.18205c-0.40625,-0.53125 -0.80079,-0.94271 -1.1836,-1.2344l0.59375,-0.41406c0.45313,0.34895 0.85806,0.72785 1.2148,1.1367zM248.4013,190.02975c-0.36459,-0.32552 -0.76692,-0.60807 -1.207,-0.84766l0.5039,-0.58593c0.41927,0.20833 0.82421,0.47526 1.2148,0.80078zM249.13958,191.73285c0.39843,-0.26302 0.7604,-0.63932 1.0859,-1.1289l0.625,0.35547c-0.35417,0.5651 -0.7435,1.0013 -1.168,1.3086z"/><path d="M258.22,190.78c-0.26042,0.48698 -0.52735,0.85288 -0.80078,1.0977c-0.23437,0.21093 -0.44922,0.3164 -0.64453,0.3164c-0.25,0 -0.45182,-0.16927 -0.60547,-0.50781c-0.15885,-0.35417 -0.23828,-0.90887 -0.23828,-1.6641c0,-0.7604 0.08854,-1.58463 0.26562,-2.4727l0.85547,0.12891c-0.17187,0.8802 -0.25781,1.625 -0.25781,2.2344c0,0.82033 0.05859,1.2305 0.17578,1.2305c0.04427,0 0.11979,-0.0625 0.22656,-0.1875c0.16667,-0.1875 0.34245,-0.46354 0.52735,-0.82812zM257.62625,193.8386c0.79947,-0.22395 1.40233,-0.55859 1.8086,-1.0039c0.4974,-0.54427 0.7461,-1.36721 0.7461,-2.4688c0,-0.83593 -0.08073,-1.77473 -0.24219,-2.8164l0.89453,-0.0859c0.17187,1.05207 0.25781,2.03253 0.25781,2.9414c0,1.47393 -0.3789,2.53513 -1.1367,3.1836c-0.46093,0.39583 -1.08203,0.72396 -1.8633,0.98438z"/><path d="M262.6,188.73c2.16407,-0.34114 3.6159,-0.51171 4.3555,-0.51171c0.82033,0 1.45707,0.1888 1.9102,0.5664c0.53646,0.44792 0.80469,1.11589 0.80469,2.0039c0,0.69273 -0.22396,1.2969 -0.67188,1.8125c-0.68227,0.78647 -2.082,1.26693 -4.1992,1.4414l-0.29687,-0.86328c1.42967,-0.11458 2.444,-0.31901 3.043,-0.61328c0.32031,-0.15885 0.58333,-0.36719 0.78906,-0.625c0.27865,-0.34896 0.41797,-0.75259 0.41797,-1.2109c0,-0.5625 -0.13021,-0.97787 -0.39063,-1.2461c-0.13281,-0.13541 -0.27734,-0.23698 -0.43359,-0.30469c-0.21875,-0.09635 -0.53125,-0.14453 -0.9375,-0.14453c-0.66406,0 -2.06639,0.18359 -4.207,0.55078z"/><path d="M275.36,189.21c-0.84633,-0.4401 -1.85807,-0.78907 -3.0352,-1.0469l0.35156,-0.72266c1.17707,0.22135 2.2018,0.56119 3.0742,1.0195zM272.7272,192.9131c0.3125,0.48177 0.65757,0.72265 1.0352,0.72265c0.4401,0 0.66015,-0.2487 0.66015,-0.74609c0,-0.36979 -0.11328,-0.83073 -0.33984,-1.3828c-0.23437,-0.56771 -0.53515,-1.06901 -0.90234,-1.5039l0.70703,-0.36719c0.49739,0.58594 0.87889,1.22527 1.1445,1.918c0.19531,0.51042 0.29297,0.97135 0.29297,1.3828c0,0.45573 -0.11328,0.81899 -0.33985,1.0898c-0.27083,0.32031 -0.66537,0.48047 -1.1836,0.48047c-0.60937,0 -1.10157,-0.30729 -1.4766,-0.92188zM270.4381,193.32325c0.51823,-0.85413 0.88149,-1.88667 1.0898,-3.0976l0.8125,0.26562c-0.2526,1.3932 -0.63933,2.48567 -1.1602,3.2774zM277.0123,193.63575c-0.29167,-1.20313 -0.70443,-2.29687 -1.2383,-3.2812l0.72656,-0.32031c0.59375,0.9844 1.03385,2.07033 1.3203,3.2578zM276.62167,188.97955c-0.16667,-0.42708 -0.42578,-0.89191 -0.77734,-1.3945l0.59375,-0.21484c0.30729,0.42448 0.56901,0.88021 0.78516,1.3672zM277.60605,188.6358c-0.18229,-0.47135 -0.4388,-0.93879 -0.76953,-1.4023l0.57031,-0.19141c0.29948,0.36459 0.55469,0.80729 0.76562,1.3281z"/><path d="M279.17,187.53h0.92187v4.6562c0,0.9818 0.51563,1.4727 1.5469,1.4727c0.67967,0 1.23697,-0.3138 1.6719,-0.94141c0.28125,-0.40365 0.53386,-1.02865 0.75782,-1.875l0.79296,0.48047c-0.26562,0.94013 -0.58463,1.64327 -0.95703,2.1094c-0.58593,0.72653 -1.34767,1.0898 -2.2852,1.0898c-0.9792,0 -1.6693,-0.30208 -2.0703,-0.90625c-0.2526,-0.37761 -0.3789,-0.86457 -0.3789,-1.4609z"/><path d="M286.04,188.3h2.1055c0.23177,-0.36979 0.40755,-0.66796 0.52734,-0.89453l0.8711,0.125c-0.07813,0.14063 -0.21615,0.36979 -0.41406,0.6875l-0.0508,0.082h2.7539v0.76954h-3.2734c-0.34115,0.46875 -0.66667,0.87501 -0.97656,1.2188c0.49219,-0.29427 0.94142,-0.44141 1.3477,-0.44141c0.63021,0 1.04297,0.31641 1.2383,0.94922c0.66667,-0.22135 1.34637,-0.4401 2.0391,-0.65625l0.33594,0.75781l-0.13672,0.0391l-0.38672,0.10157c-0.7292,0.19791 -1.31253,0.36718 -1.75,0.50781c0.03127,0.33854 0.0534,0.77604 0.0664,1.3125l-0.85547,0.0469c-0.00267,-0.30989 -0.00787,-0.64583 -0.0156,-1.0078v-0.0781c-1.19793,0.40885 -1.7969,0.82032 -1.7969,1.2344c0,0.21354 0.15365,0.35937 0.46094,0.4375c0.29687,0.07552 0.82814,0.11328 1.5938,0.11328c0.70573,0 1.4466,-0.04036 2.2226,-0.12109l0.0937,0.83203c-0.7526,0.05727 -1.53253,0.0859 -2.3398,0.0859c-0.9948,0 -1.70183,-0.07552 -2.1211,-0.22657c-0.51823,-0.1875 -0.77734,-0.52473 -0.77734,-1.0117c0,-0.41146 0.18359,-0.77473 0.55078,-1.0898c0.38021,-0.32552 1.04947,-0.66145 2.0078,-1.0078c-0.05207,-0.20052 -0.12108,-0.34115 -0.20703,-0.42188c-0.09635,-0.09114 -0.22396,-0.13671 -0.38281,-0.13671c-0.25781,0 -0.58203,0.09765 -0.97266,0.29296c-0.48177,0.23959 -0.9987,0.60025 -1.5508,1.082l-0.51953,-0.59375c0.80987,-0.7526 1.444,-1.4922 1.9024,-2.2188h-1.5898z"/><path d="M298.31,193.16l0.0547,0.69921c-1.1302,0.39844 -2.3867,0.72657 -3.7695,0.98438l-0.28906,-0.78125c0.23958,-0.03647 0.57811,-0.09506 1.0156,-0.17578v-1.4297c-0.45052,0.22917 -0.98699,0.44661 -1.6094,0.65234l-0.44532,-0.69531c1.2526,-0.33854 2.20833,-0.77084 2.8672,-1.2969h-2.7891v-0.67969h3.3477v-0.58984h-2.5312v-0.65625h2.5312v-0.55079h-2.9297v-0.67187h2.9297v-0.76953h0.85546v0.76953h3.0156v0.67187h-3.0156v0.55079h2.6172v0.65625h-2.6172v0.58984h3.4336v0.67969h-0.9336l0.57813,0.39843c-0.35677,0.34636 -0.85677,0.72526 -1.5,1.1367l-0.0898,0.0586c0.48958,0.44791 1.15365,0.81771 1.9922,1.1094l-0.52739,0.79297c-0.90887,-0.38541 -1.63933,-0.86978 -2.1914,-1.4531zM297.1264,191.1288c-0.26042,0.30469 -0.57422,0.57812 -0.94141,0.82031v1.7539c0.64323,-0.14323 1.28907,-0.30989 1.9375,-0.5l0.17969,-0.0508c-0.53385,-0.59113 -0.92579,-1.2656 -1.1758,-2.0234zM298.5522,192.1952c0.46354,-0.33073 0.86981,-0.69009 1.2188,-1.0781h-1.8477c0.16667,0.39843 0.3763,0.7578 0.62891,1.0781z"/><path d="M305.64,190.53v3.4648c0,0.3151 -0.0638,0.52994 -0.19141,0.64453c-0.11979,0.10417 -0.35156,0.15625 -0.69531,0.15625c-0.39063,0 -0.76173,-0.02473 -1.1133,-0.0742l-0.16797,-0.82422c0.36458,0.05987 0.71355,0.0898 1.0469,0.0898c0.11198,0 0.18229,-0.01953 0.21094,-0.0586c0.0208,-0.03387 0.0312,-0.08986 0.0312,-0.16797v-3.2305h-3.3594v-0.77731h7.5273v0.77734zM302.3392,187.6355h5.6484v0.76953h-5.6484zM301.35482,193.6277c0.5625,-0.58854 1.01563,-1.37111 1.3594,-2.3477l0.80859,0.30469c-0.39844,1.1172 -0.89974,1.9948 -1.5039,2.6328zM308.05792,194.10426c-0.53907,-1.1406 -1.0078,-1.97523 -1.4062,-2.5039l0.73437,-0.4375c0.57292,0.737 1.06119,1.53907 1.4648,2.4062z"/><path d="M310.13,187.53h0.92187v4.6562c0,0.9818 0.51563,1.4727 1.5469,1.4727c0.67967,0 1.23697,-0.3138 1.6719,-0.94141c0.28125,-0.40365 0.53386,-1.02865 0.75781,-1.875l0.79297,0.48047c-0.26563,0.94013 -0.58464,1.64327 -0.95703,2.1094c-0.58594,0.72653 -1.34767,1.0898 -2.2852,1.0898c-0.9792,0 -1.6693,-0.30208 -2.0703,-0.90625c-0.2526,-0.37761 -0.3789,-0.86457 -0.3789,-1.4609z"/><path d="M319.76,187.38h0.86328v0.98438h2.457v0.74218h-2.457v0.92969h2.3203v0.73438h-2.3203v1.207c0.92707,0.3125 1.84113,0.78257 2.7422,1.4102l-0.46094,0.74219c-0.68227,-0.51041 -1.44267,-0.96095 -2.2812,-1.3516c-0.0208,0.44531 -0.10674,0.79038 -0.25781,1.0352c-0.26302,0.42447 -0.78125,0.63671 -1.5547,0.63671c-0.59635,0 -1.07552,-0.11198 -1.4375,-0.33593c-0.40365,-0.25 -0.60547,-0.58853 -0.60547,-1.0156c0,-0.51041 0.27214,-0.88801 0.81641,-1.1328c0.36458,-0.16146 0.83855,-0.24219 1.4219,-0.24219c0.22917,0 0.48047,0.01823 0.75391,0.0547v-1.0078h-2.7695v-0.73438h2.7695v-0.92969h-2.9375v-0.74218h2.9375zM319.76,192.505c-0.3099,-0.06513 -0.60678,-0.0977 -0.89063,-0.0977c-0.34635,0 -0.6276,0.05078 -0.84375,0.15234c-0.25781,0.12239 -0.38672,0.29687 -0.38672,0.52344c0,0.1901 0.10026,0.34374 0.30079,0.46093c0.20312,0.11979 0.47395,0.17969 0.8125,0.17969c0.40104,0 0.67708,-0.10677 0.82812,-0.32031c0.11979,-0.16667 0.17969,-0.41536 0.17969,-0.74609z"/><path d="M329.04,187.45h0.87109v1.7148h1.4375v0.78515h-1.4375v1.4648c0,0.30469 -0.05078,0.51953 -0.15234,0.64453c-0.125,0.15625 -0.35026,0.23437 -0.67578,0.23437c-0.43229,0 -0.85026,-0.07161 -1.2539,-0.21484v-0.75391c0.42448,0.11719 0.7513,0.17579 0.98047,0.17579c0.15365,0 0.23047,-0.09245 0.23047,-0.27735v-1.2734h-2.6524v3.0312c0,0.16927 0.02997,0.28646 0.0899,0.35157c0.06507,0.07552 0.20699,0.125 0.42578,0.14843c0.33854,0.03907 0.81381,0.0586 1.4258,0.0586c0.71873,0 1.4401,-0.03123 2.1641,-0.0937v0.82422c-0.77867,0.04687 -1.5469,0.0703 -2.3047,0.0703c-1.1276,0 -1.84113,-0.0651 -2.1406,-0.19531c-0.35937,-0.15365 -0.53906,-0.48568 -0.53906,-0.9961v-3.1992h-1.4062v-0.78515h1.4062v-1.6406h0.8789v1.6406h2.6524z"/><path d="M331.81,194.07c1.0052,-2.32813 2.08723,-4.57813 3.2461,-6.75l0.76172,0.30469c-0.52343,0.96093 -1.14193,2.1315 -1.8555,3.5117c0.49219,-0.53385 0.94662,-0.80078 1.3633,-0.80078c0.65625,0 0.98438,0.4948 0.98438,1.4844c0,0.07292 -0.00267,0.16276 -0.008,0.26953c-0.0104,0.22657 -0.0156,0.40495 -0.0156,0.53516c0,0.30469 0.01823,0.52083 0.0547,0.64844c0.08073,0.27604 0.28255,0.41406 0.60547,0.41406c0.3125,0 0.56641,-0.15234 0.76172,-0.45703c0.29167,-0.45313 0.53125,-1.28516 0.71875,-2.4961l0.76562,0.44922c-0.14843,0.95573 -0.33723,1.6849 -0.5664,2.1875c-0.35417,0.78127 -0.9271,1.1719 -1.7188,1.1719c-0.54688,0 -0.93881,-0.16927 -1.1758,-0.50781c-0.1875,-0.26823 -0.28125,-0.71617 -0.28125,-1.3438c0,-0.05467 0.00267,-0.138 0.008,-0.25c0.0104,-0.21875 0.0156,-0.3737 0.0156,-0.46485c0,-0.28646 -0.02603,-0.49349 -0.0781,-0.62109c-0.05993,-0.14063 -0.1628,-0.21094 -0.3086,-0.21094c-0.24739,0 -0.52604,0.15104 -0.83593,0.45313c-0.26563,0.26041 -0.52735,0.64191 -0.78516,1.1445c-0.1875,0.36458 -0.47266,0.98308 -0.85547,1.8555z"/></g></g></g></svg>