<svg xmlns="http://www.w3.org/2000/svg" viewBox="0 0 120 60" version="1.1" height="60" width="120">
 <rect style="paint-order:stroke markers fill" stop-color="#000000" opacity=".80769" fill="none" height="60" width="120"></rect>
 <g aria-label="+2" fill="#fff">
  <path d="m65.277 14.139h1.2031v4.0195h4.0195v1.2031h-4.0195v4.0195h-1.2031v-4.0195h-4.0195v-1.2031h4.0195z"></path>
  <path d="m72.975 24.427v-1.5449q0.64941-2.0166 3.541-3.9443l0.37598-0.25293q1.2441-0.82715 1.709-1.3535 0.51953-0.58789 0.51953-1.2715 0-0.61523-0.37598-1.0664-0.56055-0.67676-1.6748-0.67676-1.6611 0-2.9873 1.3877l-1.1758-1.0801q0.46484-0.56738 1.1074-0.95703 1.374-0.83398 3.0625-0.83398 1.3125 0 2.2764 0.49902 0.83398 0.4375 1.2852 1.1895 0.41699 0.71094 0.41699 1.5381 0 1.0869-0.82715 2.0098-0.55371 0.62207-2.0713 1.6543l-0.4375 0.29394q-1.6064 1.0869-2.1191 1.6133-0.62891 0.64258-0.83398 1.1553h6.3984v1.6406z"></path>
 </g>
</svg>
