<svg version="1.1" xmlns="http://www.w3.org/2000/svg" xmlns:xlink="http://www.w3.org/1999/xlink" width="208" height="32" viewBox="0,0,208,32"><g transform="translate(-240,-164)"><g data-paper-data="{&quot;isPaintingLayer&quot;:true}" fill-rule="nonzero" stroke="none" stroke-linecap="butt" stroke-linejoin="miter" stroke-miterlimit="10" stroke-dasharray="" stroke-dashoffset="0" style="mix-blend-mode: normal"><path d="M240,196v-32h208v32z" fill="none" stroke-width="0"/><path d="M250.49,177.33c-1.0482,-1.25 -2.27867,-2.43813 -3.6914,-3.5644l1.4062,-1.3379c0.48177,0.41015 0.90171,0.78775 1.2598,1.1328c0.7422,-0.92447 1.44857,-1.99543 2.1191,-3.2129l1.875,0.82031c-0.8854,1.27607 -1.83267,2.45447 -2.8418,3.5352l0.14649,0.14649c0.41015,0.44271 0.76172,0.83657 1.0547,1.1816c1.25653,-1.30207 2.43167,-2.62367 3.5254,-3.9648l1.6602,1.0254c-1.4844,1.7578 -3.1706,3.47653 -5.0586,5.1562c1.19793,-0.0586 2.61393,-0.14323 4.248,-0.2539c-0.36459,-0.64453 -0.77475,-1.2728 -1.2305,-1.8848l1.6406,-0.76172c1.02867,1.25653 1.94013,2.74417 2.7344,4.4629l-1.7774,0.85938l-0.27343,-0.57617c-0.17579,-0.36459 -0.28647,-0.5892 -0.33204,-0.67383c-1.7578,0.23437 -3.33983,0.38737 -4.7461,0.45898c-0.0456,0.00667 -0.09443,0.01317 -0.14648,0.0195c-0.19531,0.32552 -0.45248,0.72265 -0.77149,1.1914h5.293l1.1816,1.084c-0.99607,1.41927 -2.10283,2.61393 -3.3203,3.584c1.4974,0.7682 3.22917,1.37367 5.1953,1.8164l-1.0742,1.8945c-2.03127,-0.52083 -3.97787,-1.36067 -5.8398,-2.5195c-2.12893,1.28907 -4.17647,2.17773 -6.1426,2.666l-1.0644,-1.8262c1.75133,-0.29948 3.60353,-0.95705 5.5566,-1.9727c-0.82033,-0.67707 -1.55927,-1.3574 -2.2168,-2.041c-0.50781,0.42969 -1.10025,0.83659 -1.7773,1.2207l-1.2598,-1.3477c1.54947,-0.8594 2.88083,-2.06707 3.9941,-3.623l-1.4648,0.0781c-0.56641,0.03253 -1.07097,0.05533 -1.5137,0.0684l-0.43946,-1.7578c0.42969,-0.00667 1.41603,-0.02947 2.959,-0.0684l0.33203,-0.2832c0.26693,-0.24089 0.53385,-0.48503 0.80078,-0.73243zM252.7947,184.7812c0.90493,-0.65755 1.66667,-1.36069 2.2852,-2.1094h-4.8926c0.7552,0.77473 1.62433,1.47787 2.6074,2.1094zM245.1091,178.8242v10.674h-2.0996v-8.2226c-0.60547,0.61198 -1.20117,1.17188 -1.7871,1.6797l-0.97656,-1.9141c1.7904,-1.3932 3.4766,-3.4277 5.0586,-6.1035l1.7578,0.99609c-0.58594,0.97007 -1.23697,1.9336 -1.9531,2.8906zM240.4021,174.9961c1.66013,-1.16533 3.0794,-2.64647 4.2578,-4.4434l1.8066,0.95703c-1.53647,2.20053 -3.19663,3.92907 -4.9805,5.1856z" fill="#ffffff" stroke-width="1"/><path d="M268.84,173.08v-2.5781h2.1973v2.5781h8.2422v1.7969h-8.2422v2.9199h7.002v1.7773h-15.898v-1.7773h6.6992v-2.9199h-8.1836v-1.7969zM260.5002,187.24c0.83333,-1.3802 1.4746,-3.19987 1.9238,-5.459l2.0801,0.53711c-0.39713,2.5 -1.07097,4.5866 -2.0215,6.2598zM265.9006,181.9177h2.1582v4.3555c0,0.38411 0.0944,0.61198 0.2832,0.68359c0.29297,0.11719 1.01237,0.17579 2.1582,0.17579c1.08727,0 1.8197,-0.0586 2.1973,-0.17579c0.24089,-0.07161 0.40039,-0.30273 0.47852,-0.69335c0.07813,-0.3711 0.13021,-0.92123 0.15625,-1.6504l0.01,-0.2539l2.1191,0.57617l-0.01,0.25391c-0.0586,1.27607 -0.17253,2.1387 -0.3418,2.5879c-0.24739,0.65104 -0.74869,1.04491 -1.5039,1.1816c-0.625,0.11067 -1.83593,0.16601 -3.6328,0.16601c-1.63413,0 -2.72137,-0.11393 -3.2617,-0.34179c-0.54036,-0.22787 -0.81054,-0.73567 -0.81054,-1.5234zM271.2815,184.2419c-1.05467,-1.57553 -2.06053,-2.7832 -3.0176,-3.623l1.6797,-0.95703c1.16533,0.93747 2.2298,2.0833 3.1934,3.4375zM277.678,187.8845c-0.931,-2.2982 -1.9564,-4.2318 -3.0762,-5.8008l1.8359,-1.0254c1.21747,1.67967 2.3047,3.52863 3.2617,5.5469z" fill="#ffffff" stroke-width="1"/><path d="M290.23,178.41v7.7344c0,0.5013 0.21485,0.80403 0.64454,0.9082c0.44271,0.11068 1.45507,0.16602 3.0371,0.16602c1.54293,0 2.5618,-0.07813 3.0566,-0.23438c0.27995,-0.09115 0.46224,-0.34505 0.54687,-0.76172c0.11068,-0.58593 0.16927,-1.2793 0.17578,-2.0801l2.041,0.57618c-0.10417,1.9206 -0.36784,3.1478 -0.79102,3.6816c-0.27995,0.35156 -0.70311,0.55989 -1.2695,0.625c-0.89193,0.09765 -2.4056,0.14648 -4.541,0.14648c-1.65367,0 -2.73767,-0.04557 -3.252,-0.13672c-0.77473,-0.13021 -1.26627,-0.47201 -1.4746,-1.0254c-0.10417,-0.29297 -0.15625,-0.6836 -0.15625,-1.1719v-7.7441l-1.8652,0.64453l-0.45899,-1.8945l2.3242,-0.80078v-5.2637h1.9824v4.5801l2.0996,-0.71289v-5.1465h1.9629v4.4629l3.2715,-1.123l1.0254,0.625v7.3144c0,0.50781 -0.12044,0.88541 -0.36133,1.1328c-0.27343,0.27343 -0.73243,0.41015 -1.377,0.41015c-0.52735,0 -1.08725,-0.04557 -1.6797,-0.13672l-0.32226,-1.8652c0.38411,0.09765 0.77475,0.14648 1.1719,0.14648c0.28646,0 0.46224,-0.05859 0.52734,-0.17578c0.06513,-0.09765 0.0977,-0.26041 0.0977,-0.48828v-4.6191l-2.3535,0.82031v7.9004h-1.9629v-7.2266zM283.0523,175.2166v-4.7168h2.0996v4.7168h1.8945v1.9824h-1.8945v6.2109c0.6836,-0.23437 1.36067,-0.47851 2.0312,-0.73242l0.18555,1.8848c-2.1094,0.96353 -4.2741,1.77083 -6.4941,2.4219l-0.6836,-2.0801c1.0026,-0.26041 1.8815,-0.50781 2.6367,-0.74218c0.09115,-0.03253 0.16602,-0.05533 0.22461,-0.0684v-6.8945h-2.4805v-1.9824z" fill="#ffffff" stroke-width="1"/><path d="M309.48,175.76c-0.0456,1.08727 -0.1107,2.0443 -0.19531,2.8711h7.8711c-0.09765,4.51827 -0.35156,7.4512 -0.76172,8.7988c-0.20833,0.67707 -0.5957,1.1458 -1.1621,1.4062c-0.44271,0.20182 -1.09051,0.30273 -1.9434,0.30273c-0.89847,0 -1.91733,-0.06836 -3.0566,-0.20507l-0.38085,-2.1973c1.52993,0.21485 2.6074,0.32227 3.2324,0.32227c0.52734,0 0.86264,-0.14974 1.0059,-0.44922c0.34505,-0.7292 0.58593,-2.74093 0.72265,-6.0352h-5.8105c-0.21485,1.17187 -0.51758,2.1875 -0.90821,3.0469c-1.08727,2.37627 -2.90367,4.26103 -5.4492,5.6543l-1.543,-1.7188c2.55207,-1.32813 4.23827,-3.06967 5.0586,-5.2246c0.54687,-1.4388 0.90167,-3.62957 1.0644,-6.5723h-6.4648v-2.002h7.9785v-3.2617h2.2559v3.2617h8.2422v2.002z" fill="#ffffff" stroke-width="1"/><path d="M333.2,183.15c1.6146,1.4388 3.78907,2.6009 6.5234,3.4863l-1.2598,1.8359c-1.57553,-0.55989 -2.94923,-1.23696 -4.1211,-2.0312c-1.21093,-0.8268 -2.32747,-1.84243 -3.3496,-3.0469v6.1035h-2.1191v-5.9961c-0.90493,1.26953 -2.07357,2.40887 -3.5059,3.418c-1.10027,0.77473 -2.27867,1.39973 -3.5352,1.875l-1.3379,-1.7188c2.0638,-0.6836 3.7858,-1.60483 5.166,-2.7637c0.39063,-0.32553 0.78776,-0.71289 1.1914,-1.1621h-4.6973v-7.998h6.7188v-1.3184h-8.0957v-1.7578h8.0957v-1.582h2.1191v1.582h8.2227v1.7578h-8.2227v1.3184h6.8457v7.998zM328.8738,176.7926h-4.5996v1.582h4.5996zM330.9929,176.7926v1.582h4.7266v-1.582zM328.8738,179.8981h-4.5996v1.6113h4.5996zM330.9929,179.8981v1.6113h4.7266v-1.6113z" fill="#ffffff" stroke-width="1"/><path d="M346.98,172.75h4.1797v1.8848h-1.377c-0.2474,0.99607 -0.57943,2.041 -0.9961,3.1348h2.6074v1.8848h-10.898v-1.8848h2.3926c-0.26041,-1.25 -0.53385,-2.29493 -0.82031,-3.1348h-1.2695v-1.8848h4.1406v-2.2559h2.041zM344.0406,174.6348c0.33203,0.97007 0.58919,2.015 0.77148,3.1348h1.9922l0.09766,-0.27344c0.27995,-0.7422 0.54036,-1.5853 0.78125,-2.5293l0.0879,-0.33203zM350.0953,181.295v7.998h-2.002v-0.95703h-4.2578v1.1621h-2.0606v-8.2031zM343.8355,183.0919v3.3887h4.2578v-3.3887zM356.8825,178.1603c0.77473,0.73567 1.38997,1.61133 1.8457,2.627c0.44922,1.0156 0.67383,2.04423 0.67383,3.0859c0,0.96353 -0.17904,1.67317 -0.53711,2.1289c-0.37109,0.47526 -0.98306,0.71289 -1.8359,0.71289c-0.7292,0 -1.43557,-0.05208 -2.1191,-0.15625l-0.47852,-2.0801c0.78773,0.14323 1.43877,0.21485 1.9531,0.21485c0.39063,0 0.63477,-0.09115 0.73242,-0.27344c0.06513,-0.13021 0.0977,-0.39062 0.0977,-0.78125c0,-1.60807 -0.48177,-2.9948 -1.4453,-4.1602c-0.25391,-0.30599 -0.57292,-0.63476 -0.95703,-0.98633l0.11719,-0.27343c0.67707,-1.52993 1.2044,-3.125 1.582,-4.7852h-2.5v16.064h-2.0215v-18.086h5.8789l1.084,0.99609c-0.65755,2.2396 -1.34765,4.15693 -2.0703,5.752z" fill="#ffffff" stroke-width="1"/></g></g></svg>