<svg version="1.1" xmlns="http://www.w3.org/2000/svg" xmlns:xlink="http://www.w3.org/1999/xlink" width="208" height="32" viewBox="0,0,208,32"><g transform="translate(-240,-164)"><g data-paper-data="{&quot;isPaintingLayer&quot;:true}" fill-rule="nonzero" stroke="none" stroke-linecap="butt" stroke-linejoin="miter" stroke-miterlimit="10" stroke-dasharray="" stroke-dashoffset="0" style="mix-blend-mode: normal"><path d="M240,196v-32h208v32z" fill="none" stroke-width="0"/><path d="M245.18,187.08v-5.8398h2.041v1.6406h3.7012v1.6797h-3.7012v2.2168c1.6016,-0.26041 2.8744,-0.49804 3.8184,-0.71289l0.0586,1.6406c-2.14847,0.61198 -4.5801,1.11001 -7.2949,1.4941l-0.56641,-1.875c0.6966,-0.07813 1.3444,-0.15951 1.9434,-0.24414zM251.1077,172.119h7.8516v1.6797h-5.5664v1.7188h4.8633v5.127h-14.58c-0.03907,2.05727 -0.14323,3.66207 -0.3125,4.8144c-0.21484,1.47133 -0.64454,2.81247 -1.2891,4.0234l-1.7969,-1.4551c0.61198,-1.2044 1.00261,-2.6367 1.1719,-4.2969c0.1237,-1.21747 0.18555,-2.85483 0.18555,-4.9121v-6.6992h7.3047v-1.6211h2.168zM243.6956,173.7987v1.7188h2.9004v-1.7188zM243.6956,177.0799v2.002h2.9004v-2.002zM256.1956,179.0819v-2.002h-2.8027v2.002zM248.598,173.7987v1.7188h2.793v-1.7188zM248.598,177.0799v2.002h2.793v-2.002zM253.6956,183.2811c1.41273,-0.48177 2.63343,-1.04167 3.6621,-1.6797l1.2988,1.582c-1.46487,0.71613 -3.1185,1.32487 -4.9609,1.8262v1.4844c0,0.39063 0.12044,0.61849 0.36133,0.68359c0.20183,0.0586 0.68036,0.0879 1.4356,0.0879c0.90493,0 1.43553,-0.0944 1.5918,-0.2832c0.14323,-0.16927 0.24739,-0.7487 0.3125,-1.7383l0.0195,-0.30273l2.002,0.53711c-0.013,0.08463 -0.03253,0.32552 -0.0586,0.72265c-0.09766,1.26953 -0.38086,2.08983 -0.84961,2.4609c-0.46224,0.37109 -1.62434,0.55664 -3.4863,0.55664c-1.31513,0 -2.1908,-0.09766 -2.627,-0.29297c-0.48177,-0.22135 -0.72266,-0.69662 -0.72266,-1.4258v-6.2598h2.0215z" fill="#ffffff" stroke-width="1"/><path d="M277.58,171.08v9.7266h-10.117v-9.7266zM269.582,172.8378v2.2266h5.8594v-2.2266zM269.582,176.744v2.3438h5.8594v-2.3438zM262.6191,170.6991h2.2559v10.84h-2.2559zM260.5585,187.7401c1.6862,-0.16927 3.05663,-0.64777 4.1113,-1.4355c0.72267,-0.54037 1.20443,-1.2728 1.4453,-2.1973c0.13672,-0.53385 0.23112,-1.31512 0.28321,-2.3438h2.1582c-0.01953,2.4414 -0.55013,4.24803 -1.5918,5.4199c-1.0156,1.13933 -2.71807,1.95313 -5.1074,2.4414zM271.1055,181.7049h2.1973v4.834c0,0.33855 0.10742,0.54037 0.32227,0.60547c0.22787,0.07161 0.6836,0.10742 1.3672,0.10742c0.73567,0 1.2272,-0.03906 1.4746,-0.11718c0.26041,-0.08464 0.42968,-0.3418 0.50781,-0.77149c0.09115,-0.44271 0.14648,-1.12304 0.16601,-2.041l2.2266,0.64453c-0.02607,0.24739 -0.06513,0.69336 -0.11719,1.3379c-0.11719,1.35413 -0.41992,2.2005 -0.9082,2.5391c-0.27344,0.18229 -0.66731,0.29623 -1.1816,0.3418c-0.7096,0.0586 -1.57873,0.0879 -2.6074,0.0879c-1.4258,0 -2.3568,-0.12695 -2.793,-0.38086c-0.43619,-0.26042 -0.65429,-0.77149 -0.65429,-1.5332z" fill="#ffffff" stroke-width="1"/><path d="M287.74,171.98c0.24089,-0.57943 0.4362,-1.13283 0.58594,-1.6602l2.3828,0.32226c-0.22786,0.54037 -0.43619,0.98633 -0.625,1.3379h6.5039v6.3672h-11.797v0.98633h14.697v1.582h-14.697v0.99609h14.014c-0.08464,2.9818 -0.27344,4.99353 -0.56641,6.0352c-0.1888,0.66406 -0.5436,1.10353 -1.0644,1.3184c-0.37109,0.15625 -0.93749,0.23437 -1.6992,0.23437c-0.78127,0 -1.51043,-0.04883 -2.1875,-0.14648l-0.39063,-1.6406h-9.7852v1.084h-2.0996v-4.6973h2.0996v2.0117h3.3594v-2.6367h-3.8379v-11.494zM291.8904,186.111v-2.0117h2.0215v3.3984c0.54036,0.05207 0.98956,0.0781 1.3476,0.0781c0.44271,0 0.71941,-0.12695 0.83008,-0.38085c0.21485,-0.47527 0.38412,-1.7155 0.50781,-3.7207h-8.0273v2.6367zM284.7908,173.484v0.96679h9.6387v-0.96679zM284.7908,175.8473v1.0644h9.6387v-1.0644z" fill="#ffffff" stroke-width="1"/><path d="M316.76,170.98v9.4629h-11.621v-9.4629zM307.2385,172.523v1.2207h7.4023v-1.2207zM307.2385,175.1207v1.2207h7.4023v-1.2207zM307.2385,177.7183v1.2598h7.4023v-1.2598zM303.3029,181.7417h16.191v1.6992h-8.0762v6.0644h-2.2168v-6.0644h-8.0371v-10.957h2.1387zM300.8029,187.6401c1.54947,-0.71613 3.0306,-1.9173 4.4434,-3.6035l1.7969,1.0449c-1.3932,1.76433 -2.93943,3.15107 -4.6387,4.1602zM317.6389,188.8999c-0.99607,-1.22393 -2.49347,-2.50973 -4.4922,-3.8574l1.6797,-1.1816c1.569,0.90493 3.1087,2.09307 4.6191,3.5644z" fill="#ffffff" stroke-width="1"/><path d="M333.2,183.16c1.6146,1.4388 3.78907,2.6009 6.5234,3.4863l-1.2598,1.8359c-1.57553,-0.55989 -2.94923,-1.23696 -4.1211,-2.0312c-1.21093,-0.8268 -2.32747,-1.84243 -3.3496,-3.0469v6.1035h-2.1192v-5.9961c-0.90493,1.26953 -2.07353,2.40887 -3.5058,3.418c-1.10027,0.77473 -2.27867,1.39973 -3.5352,1.875l-1.3379,-1.7188c2.0638,-0.6836 3.7858,-1.60483 5.166,-2.7637c0.39063,-0.32553 0.78776,-0.71289 1.1914,-1.1621h-4.6973v-7.998h6.7188v-1.3184h-8.0957v-1.7578h8.0957v-1.582h2.1192v1.582h8.2226v1.7578h-8.2226v1.3184h6.8457v7.998zM328.8738,176.8026h-4.5996v1.582h4.5996zM330.993,176.8026v1.582h4.7266v-1.582zM328.8738,179.9081h-4.5996v1.6113h4.5996zM330.993,179.9081v1.6113h4.7266v-1.6113z" fill="#ffffff" stroke-width="1"/><path d="M346.98,172.76h4.1797v1.8848h-1.377c-0.2474,0.99607 -0.57943,2.041 -0.9961,3.1348h2.6074v1.8848h-10.898v-1.8848h2.3926c-0.26042,-1.25 -0.53386,-2.29493 -0.82032,-3.1348h-1.2695v-1.8848h4.1406v-2.2559h2.041zM344.0406,174.6448c0.33203,0.97007 0.58919,2.015 0.77148,3.1348h1.9922l0.0977,-0.27344c0.27995,-0.7422 0.54036,-1.5853 0.78125,-2.5293l0.0879,-0.33203zM350.0953,181.305v7.998h-2.002v-0.95703h-4.2578v1.1621h-2.0605v-8.2031zM343.8355,183.1019v3.3887h4.2578v-3.3887zM356.8825,178.1703c0.77473,0.73567 1.38997,1.61133 1.8457,2.627c0.44922,1.0156 0.67383,2.04423 0.67383,3.0859c0,0.96353 -0.17904,1.67317 -0.53711,2.1289c-0.37109,0.47526 -0.98306,0.71289 -1.8359,0.71289c-0.7292,0 -1.43557,-0.05208 -2.1191,-0.15625l-0.47851,-2.0801c0.78773,0.14323 1.43877,0.21485 1.9531,0.21485c0.39063,0 0.63477,-0.09115 0.73242,-0.27344c0.06513,-0.13021 0.0977,-0.39062 0.0977,-0.78125c0,-1.60807 -0.48177,-2.9948 -1.4453,-4.1602c-0.25391,-0.30599 -0.57292,-0.63476 -0.95704,-0.98633l0.11719,-0.27343c0.67707,-1.52993 1.2044,-3.125 1.582,-4.7852h-2.5v16.064h-2.0215v-18.086h5.8789l1.084,0.99609c-0.65755,2.2396 -1.34765,4.15693 -2.0703,5.752z" fill="#ffffff" stroke-width="1"/></g></g></svg>