<svg xmlns="http://www.w3.org/2000/svg" viewBox="0 0 196 34" version="1.1" height="34" width="196">
 <rect fill-opacity="0" height="34" width="196"></rect>opacity="0" stop-color="#000000"/&gt;
 <g aria-label="緊急地震速報の特別警報です" fill="#ff4b41" transform="translate(0 -.49985)">
  <path d="m7.458 12.428v3.2744h-1.5107v-3.2061l-2.2285 0.08203q-1.2373 0.04785-2.9531 0.08203l-0.44434-1.2578 1.3945-0.0068 0.6084-0.0068 2.0918-0.01367q-0.075195-0.05476-0.20508-0.14363-1.0664-0.7793-2.085-1.3535l0.99121-0.85449q0.48535 0.30078 0.69043 0.44434 0.49902-0.38281 1.0459-0.93652h-4.2109v-5.8105h5.9951v0.97754h-1.9619v0.74512h1.9619v2.3789h-1.9619v0.7998h2.1875v0.90918h-1.3193l0.68359 0.45117q-0.75195 0.61523-1.5518 1.1074 0.72461 0.54004 1.1963 0.93652 1.5244-1.0732 2.96-2.2832l1.0869 0.82715q-0.97754 0.77246-2.6592 1.7568h0.21191q1.2578-0.02734 2.6592-0.0957l0.32129-0.02051q-0.36914-0.35547-0.82715-0.7041l1.0664-0.65625q1.333 0.91602 2.5361 2.2832l-1.1621 0.79297q-0.4375-0.51953-0.69727-0.78613-0.08203 0.0068-0.21191 0.02051-1.374 0.14356-3.3496 0.25293zm-4.0195-8.7295h-1.4492v0.74512h1.4492zm1.8799 1.5859h-3.3291v0.69727h3.3291zm-1.8799 1.5381h-1.4492v0.7998h1.4492zm7.4922-0.38965q0.04785 0.03418 0.10254 0.068359 0.92969 0.64258 2.3926 1.1621l-0.81348 1.1758q-1.3672-0.55371-2.584-1.5107-0.99121 0.80664-2.1875 1.3877l-0.90918-1.0664q1.21-0.43066 2.1807-1.1963-1.1279-1.2646-1.6064-2.6113h-0.42383v-1.1484h5.0244l0.7041 0.57422q-0.75879 1.8662-1.8799 3.165zm-0.9502-0.7998q0.71094-0.79297 1.1348-1.791h-2.3242q0.45801 1.0459 1.1895 1.791zm-9.6592 8.8594q1.8389-0.65625 3.0352-1.7773l1.251 0.77246q-1.5928 1.4629-3.2334 2.2012zm11.915 1.0254q-1.4629-1.1211-3.3018-2.126l1.0186-0.89551q1.9141 0.85449 3.377 1.873z"></path>
  <path d="m22.333 5.271h3.582v5.4756h-4.8877q0.89551 0.81348 1.6406 1.873l-1.1758 0.94336q-0.92969-1.4082-1.6953-2.1191l0.95703-0.69727h-5.1133v-1.1621h8.6816v-1.0801h-8.21v-1.0801h8.21v-1.0186h-8.2373v-0.50586q-0.57422 0.40332-1.2168 0.77246l-0.92285-1.0938q2.2627-1.1553 3.8213-3.2334l0.95703 0.57422h4.4775l0.7793 0.62891q-0.69727 0.86816-1.5312 1.6201zm-1.7432 0q0.73828-0.61523 1.1689-1.1758h-3.6504q-0.58105 0.65625-1.2168 1.1758zm-6.4463 9.2832q0.82715-1.3535 1.2168-3.0967l1.4697 0.4375q-0.41699 2.1533-1.3057 3.5547zm3.7666-2.9736h1.4971v1.9346q0 0.43066 0.23242 0.5127 0.27344 0.08887 1.3125 0.08887 1.251 0 1.6475-0.0752 0.2666-0.04785 0.3418-0.30078 0.10938-0.3418 0.15039-1.21l1.4697 0.49219q-0.06836 1.5996-0.51953 2.0303-0.29394 0.27344-0.85449 0.32812-0.875 0.08203-2.3789 0.08203-1.832 0-2.3311-0.1709-0.39648-0.13672-0.50586-0.48535-0.06152-0.19824-0.06152-0.51953zm8.3398 3.4863q-0.86133-2.0098-1.791-3.2607l1.2578-0.76562q1.1621 1.5586 1.8662 3.1582z"></path>
  <path d="m34.911 7.937v5.4141q0 0.52637 0.45117 0.63574 0.46484 0.11621 2.126 0.11621 1.6201 0 2.1396-0.16406 0.29394-0.0957 0.38281-0.5332 0.11621-0.61524 0.12305-1.4561l1.4287 0.40332q-0.10938 2.0166-0.55371 2.5771-0.29394 0.36914-0.88867 0.4375-0.93652 0.10254-3.1787 0.10254-1.7363 0-2.2764-0.0957-0.81348-0.13672-1.0322-0.71777-0.10938-0.30762-0.10938-0.82031v-5.4209l-1.3057 0.45117-0.32129-1.3262 1.627-0.56055v-3.6846h1.3877v3.2061l1.4697-0.49902v-3.6025h1.374v3.124l2.29-0.78613 0.71777 0.4375v5.1201q0 0.5332-0.25293 0.79297-0.28711 0.28711-0.96387 0.28711-0.55371 0-1.1758-0.0957l-0.22559-1.3057q0.40332 0.10254 0.82031 0.10254 0.30078 0 0.36914-0.12305 0.06836-0.10254 0.06836-0.3418v-3.2334l-1.6475 0.57422v5.5303h-1.374v-5.0586zm-5.0244-2.2354v-3.3018h1.4697v3.3018h1.3262v1.3877h-1.3262v4.3477q0.71777-0.24609 1.4219-0.5127l0.12988 1.3193q-2.2148 1.0117-4.5459 1.6953l-0.47852-1.4561q1.0527-0.27344 1.8457-0.51953 0.0957-0.03418 0.15723-0.04785v-4.8262h-1.7363v-1.3877z"></path>
  <path d="m47.975 4.2456v-0.58789h-4.2725v-0.97754h10.09v0.97754h-4.3613v0.58789h5.6602v2.4541h-1.4834v-1.5723h-4.1768v2.6592h-1.4561v-2.6592h-4.1016v1.5723h-1.4697v-2.4541zm4.8398 9.7002q1.0459 0.39648 2.6113 0.62891l-0.7998 1.1621q-2.1943-0.37598-3.6025-1.292-1.4014-0.91602-2.1807-2.2764h-1.5107v2.1055q1.5107-0.21191 2.8027-0.45117l0.0957 1.0186q-2.4062 0.57422-5.5029 0.99805l-0.40332-1.2031q1.0732-0.11621 1.4697-0.16406l0.08203-0.01367v-2.29h-1.4971q-0.0957 1.2031-0.31445 1.9209-0.25977 0.86133-0.83398 1.6064l-1.2168-1.0049q0.66992-0.86816 0.83398-2.0303 0.08887-0.62891 0.08887-1.5654v-2.8984h11.799v0.90918h-10.329v2.0986h10.917v0.96387h-1.5518l0.86816 0.57422q-0.77246 0.64258-1.8252 1.2031zm-1.0664-0.52637q0.98438-0.66992 1.5654-1.251h-2.9873q0.58789 0.75195 1.4219 1.251zm-7.2734-7.7861h2.9121v0.77246h-2.9121zm0 1.2578h2.9121v0.78613h-2.9121zm5.5439-1.2578h3.001v0.77246h-3.001zm0 1.2578h3.001v0.78613h-3.001zm-4.7988 2.7891h8.5107v0.89551h-8.5107z"></path>
  <path d="m59.302 12.722q0.03418 0.03418 0.08887 0.08887 0.58789 0.60156 1.3262 0.875 1.1895 0.4375 2.9121 0.4375h5.9883q-0.25976 0.49902-0.44434 1.2988h-5.585q-2.3105 0-3.5137-0.6084-0.71094-0.36231-1.3604-1.0664-0.96387 1.21-1.9482 1.9961l-0.76562-1.3809q1.0254-0.64941 1.8594-1.374v-3.5273h-1.75v-1.3467h3.1924zm4.4502-2.1465q-1.251 1.6475-3.0283 2.7002l-0.92969-1.0459q2.0576-1.0117 3.5957-2.8437h-2.8096v-3.4727h3.1719v-0.93652h-3.7051v-1.2305h3.7051v-1.3467h1.4014v1.3467h3.8281v1.2305h-3.8281v0.93652h3.2949v3.4727h-3.2949v0.2666q1.9072 0.82715 3.8691 2.0986l-0.88184 1.1758q-1.3604-1.0801-2.9873-2.0576v2.8574h-1.4014zm0-3.5957h-1.8252v1.3672h1.8252zm1.4014 0v1.3672h1.9346v-1.3672zm-6.7471-0.99805q-0.97754-1.5312-2.0576-2.6182l1.1211-0.86816q1.1963 1.1143 2.126 2.5225z"></path>
  <path d="m72.844 3.8286v-1.4287h1.4287v1.4287h2.126v1.2031h-2.126v1.1758h2.4199v1.2168h-0.81348q-0.21875 0.81348-0.58789 1.7227h1.3193v1.1895h-2.3379v1.2646h2.249v1.2168h-2.249v2.8848h-1.4287v-2.8848h-2.4131v-1.2168h2.4131v-1.2646h-2.5225v-1.1895h1.2578q-0.21875-0.90918-0.5332-1.7227h-1.0049v-1.2168h2.8027v-1.1758h-2.2285v-1.2031zm1.7021 3.5957h-2.1738q0.23242 0.64941 0.49902 1.7227h1.1348q0.35547-0.875 0.54004-1.7227zm8.292-4.5322v3.1992q0 0.59473-0.21875 0.84082-0.25977 0.29395-1.0869 0.29395-0.80664 0-1.6133-0.068359l-0.23242-1.2305q1.1348 0.12305 1.4424 0.12305 0.32129 0 0.32129-0.28027v-1.6475h-2.9941v3.9717h3.876l0.81348 0.69727q-0.36914 2.1738-1.3467 3.8828l-0.07519 0.13672q0.75195 0.86816 1.8799 1.5859l-0.76562 1.2783q-1.0801-0.69727-1.9277-1.668-0.73144 0.92969-1.6475 1.75l-0.80664-1.1211v1.0664h-1.3877v-12.811zm-4.3818 6.4326v5.168q0.84082-0.57422 1.6201-1.6133-1.0459-1.6133-1.4697-3.5547zm2.3789 2.3447q0.6084-1.1758 0.79297-2.3447h-1.7637q0.33496 1.3125 0.9707 2.3447z"></path>
  <path d="m91.438 13.625q4.0127-1.0117 4.0127-4.6006 0-1.5654-0.80664-2.6934-0.90234-1.2715-2.748-1.6338-0.40332 3.1719-1.1006 5.1953-0.47852 1.415-1.1895 2.6729-1.0254 1.791-2.3311 1.791-0.9707 0-1.7295-0.875-0.48535-0.55371-0.78613-1.3604-0.39648-1.0459-0.39648-2.249 0-1.9482 1.0732-3.5889 1.0869-1.6748 2.8232-2.4336 1.2646-0.55371 2.7754-0.55371 2.3584 0 4.0059 1.2646 2.0234 1.5518 2.0234 4.3955 0 4.7646-4.8193 6.043zm-1.0254-8.9824q-1.21 0.13672-2.0234 0.64941-0.51953 0.33496-1.0322 0.88867-1.4219 1.5723-1.4219 3.6436 0 1.5107 0.60156 2.3652 0.36914 0.52637 0.73144 0.52637 0.49219 0 1.1074-1.0869 1.5039-2.6455 2.0371-6.9863z"></path>
  <path d="m99.9 5.1958h0.59473v-2.7959h1.374v2.7959h1.1758v1.3604h-1.1758v2.3516q0.77246-0.25977 1.3672-0.49219l0.0752 1.0391h4.7988v-1.4697h-5.3184v-1.2578h3.4863v-1.5723h-2.8301v-1.2441h2.8301v-1.5107h1.4561v1.5107h2.9258v1.2441h-2.9258v1.5723h3.6914v1.2578h-1.873v1.4697h1.5518v1.2852h-1.5518v3.6982q0 0.75879-0.41015 1.0322-0.32129 0.21875-1.1143 0.21875-0.92969 0-1.627-0.08203l-0.28028-1.333q0.96387 0.0957 1.5244 0.0957 0.31445 0 0.40332-0.13672 0.0615-0.0957 0.0615-0.31445v-3.1787h-5.0518v-0.99804q-0.64941 0.28711-1.1894 0.49219v5.4688h-1.4014v-4.9629q-1.0869 0.36914-2.1465 0.65625l-0.3623-1.4082q1.4355-0.33496 2.5088-0.64941v-2.7822h-0.77246q-0.21191 1.1553-0.57422 2.2559l-1.2031-0.74512q0.66309-1.9072 0.88184-4.5869l1.2441 0.13672q-0.0752 0.9707-0.14356 1.5791zm5.4893 8.7705q-0.67676-1.4082-1.4287-2.4268l1.2646-0.69727q0.86816 1.1006 1.4697 2.3652z"></path>
  <path d="m115.86 7.479q-7e-3 0.73828-0.0752 1.5723h3.3291q-0.11622 4.2109-0.38965 5.332-0.1709 0.69726-0.62891 0.94336-0.38281 0.20508-1.0869 0.20508-0.66309 0-1.5039-0.10938l-0.25293-1.415q0.82031 0.19141 1.4561 0.19141 0.458 0 0.57421-0.28027 0.28028-0.69043 0.40332-3.7051h-2.0234l-0.0205 0.11621q-0.47168 3.4316-2.5293 5.2705l-1.0938-1.0732q1.5176-1.2715 1.9961-3.3428 0.32812-1.4424 0.41699-3.7051h-1.5176v-4.6006h6.0498v4.6006zm-1.5312-3.3838v2.2354h3.2334v-2.2354zm5.8926-0.60156h1.456v8.6338h-1.456zm3.0283-0.84082h1.4971v11.382q0 0.89551-0.47852 1.2168-0.3623 0.23926-1.2783 0.23926-0.86816 0-2.0918-0.0957l-0.29394-1.4902q1.292 0.19824 2.1465 0.19824 0.38965 0 0.45801-0.15723 0.041-0.10254 0.041-0.34863z"></path>
  <path d="m137.22 6.3169q0.95703 0.51953 2.2764 0.82715l-0.71094 1.1074q-1.4971-0.50586-2.4404-1.1416-0.96386 0.69727-2.3789 0.98438h3.2334v0.78613h-8.8184v-0.78613h2.2764l-0.12304-0.5127h-3.1856v-1.4424q-0.33496 0.28027-0.63574 0.47852l-0.72461-1.0117q1.0322-0.59473 1.5518-1.4834l0.4375 0.047852v-0.25977h-1.8799v-0.92285h1.8799v-0.58789h1.2852v0.58789h1.3125v-0.58789h1.3057v0.58789h1.6816v0.92285h-1.6816v0.49219h1.4287q-0.0137 0.18457-0.0273 0.27344-0.0137 0.14355-0.0205 0.22559 0.9707-0.9707 1.5723-2.625l1.3193 0.27344q-0.16407 0.44434-0.3418 0.82715h3.377v1.0938h-0.93657q-0.30078 0.96387-1.0322 1.8457zm-1.7637 0.061523q-0.40332-0.38965-0.86816-1.0664-0.32129 0.37598-0.63574 0.65625l-0.71094-0.82715q-0.18457 1.7773-0.36914 2.2422-0.23926 0.59473-0.93653 0.71094h1.7158l-0.60839-0.92285q1.5312-0.22559 2.4131-0.79297zm0.80664-0.72461q0.41699-0.49219 0.66992-1.1826h-1.7021q0.4375 0.67676 1.0322 1.1826zm-5.6875-1.251v-0.49219h-1.3125v0.49219zm-2.3652 0.84082q-0.14356 0.18457-0.36914 0.41699h3.3564v1.5654q0.082 0.00684 0.0957 0.00684 0.23242 0 0.31445-0.21191 0.21875-0.51953 0.32812-1.7773zm0.34179 1.1621v0.43066h1.4697v-0.43066zm9.5635 6.6035v2.6934h-1.5312v-0.47852h-7.6699v0.47852h-1.5244v-2.6934zm-9.2012 0.7998v0.58789h7.6699v-0.58789zm-2.8164-4.4912h13.303v0.88184h-13.303zm1.832 1.3262h9.6455v0.74512h-9.6455zm0 1.1963h9.6455v0.72461h-9.6455z"></path>
  <path d="m142.84 3.8286v-1.4287h1.4287v1.4287h2.126v1.2031h-2.126v1.1758h2.4199v1.2168h-0.81347q-0.21875 0.81348-0.58789 1.7227h1.3193v1.1895h-2.3379v1.2646h2.249v1.2168h-2.249v2.8848h-1.4287v-2.8848h-2.4131v-1.2168h2.4131v-1.2646h-2.5225v-1.1895h1.2578q-0.21875-0.90918-0.5332-1.7227h-1.0049v-1.2168h2.8027v-1.1758h-2.2285v-1.2031zm1.7022 3.5957h-2.1738q0.23242 0.64941 0.49902 1.7227h1.1348q0.35547-0.875 0.54004-1.7227zm8.292-4.5322v3.1992q0 0.59473-0.21875 0.84082-0.25977 0.29395-1.0869 0.29395-0.80664 0-1.6133-0.068359l-0.23243-1.2305q1.1348 0.12305 1.4424 0.12305 0.32129 0 0.32129-0.28027v-1.6475h-2.9942v3.9717h3.876l0.81348 0.69727q-0.36914 2.1738-1.3467 3.8828l-0.0752 0.13672q0.75196 0.86816 1.8799 1.5859l-0.76563 1.2783q-1.0801-0.69727-1.9277-1.668-0.73145 0.92969-1.6475 1.75l-0.80665-1.1211v1.0664h-1.3877v-12.811zm-4.3818 6.4326v5.168q0.84082-0.57422 1.6201-1.6133-1.0459-1.6133-1.4697-3.5547zm2.3789 2.3447q0.6084-1.1758 0.79297-2.3447h-1.7637q0.33496 1.3125 0.9707 2.3447z"></path>
  <path d="m154.55 4.061q6.2891-0.095703 11.888-0.32129l0.082 1.3604q-2.4678 0.12305-3.8418 0.75195-1.3125 0.60156-2.1055 1.668-0.90235 1.21-0.90235 2.6934 0 1.4766 1.0254 2.2148 1.1758 0.84082 3.6094 1.1553l-0.32129 1.5381q-3.1719-0.42383-4.4639-1.6406-1.3877-1.2988-1.3877-3.2266 0-1.75 1.2578-3.2676 0.91601-1.1143 2.5088-1.791-2.8232 0.095703-7.2803 0.32129zm9.9395 5.8994q-0.40332-1.0732-1.3604-2.4336l1.0664-0.39648q0.85449 1.1758 1.374 2.4062zm1.8457-0.71777q-0.48535-1.2578-1.3535-2.4473l1.0186-0.3623q0.7998 0.9707 1.3604 2.3516z"></path>
  <path d="m175.19 2.6802h1.5381v1.8867h4.0332v1.3193h-4.0332v2.9258q0.23926 0.84082 0.23926 1.4971 0 2.4336-1.0732 3.5752-1.169 1.251-3.5205 1.7295l-0.7793-1.1621q1.8252-0.34863 2.707-0.98438 0.82715-0.60156 1.1143-1.6338-0.73144 0.7998-1.7432 0.7998-1.1348 0-1.8389-0.64258-0.82715-0.75879-0.82715-2.2012 0-0.75879 0.36231-1.4629 0.23925-0.45117 0.58789-0.75195 0.80664-0.68359 1.9346-0.68359 0.71777 0 1.2988 0.3418v-1.3467h-6.7471v-1.3193h6.7471zm0.0547 7.0957v-0.25293q0-0.4375-0.20507-0.77246-0.38282-0.62891-1.1074-0.62891-0.36914 0-0.69043 0.20508-0.75195 0.47168-0.75195 1.4492 0 0.61523 0.27344 1.0391 0.38281 0.58789 1.1279 0.58789 0.67676 0 1.0732-0.6084 0.28027-0.43066 0.28027-1.0186z"></path>
 </g>
 <g aria-label="身の安全を確保してください" fill="#ff4b41" transform="translate(0 .50015)">
  <path d="m9.5771 27.273q-1.5381 1.1416-3.7324 2.167-2.249 1.0596-4.7646 1.7432l-0.78613-1.3057q2.4746-0.47168 5.1064-1.6406 1.4561-0.64258 2.6797-1.4014-0.1709 0.02734-0.47168 0.06836-3.3564 0.44434-6.7812 0.72461l-0.4375-1.3467q0.58789-0.02051 1.1621-0.04785l0.84082-0.04102v-6.5352h3.1104q0.19141-0.59473 0.34863-1.4014l1.6953 0.19824q-0.23242 0.67676-0.49219 1.2031h4.0195v4.5322q0.69726-0.82715 1.4561-1.9551l1.0049 1.0186q-1.2578 1.668-2.4609 2.7822v4.2656q0 0.92969-0.56738 1.2031-0.32129 0.15723-1.0664 0.15723-1.2578 0-2.2559-0.10254l-0.32129-1.4561q1.4219 0.14356 2.2969 0.14356 0.28711 0 0.35547-0.10938 0.061523-0.08887 0.061523-0.31445zm0-1.5859v-0.83398h-5.7148v1.2715l0.62207-0.04102q2.2422-0.12988 4.4023-0.32812zm0-1.9141v-0.93652h-5.7148v0.93652zm0-2.0166v-0.9502h-5.7148v0.9502z"></path>
  <path d="m21.438 29.625q4.0127-1.0117 4.0127-4.6006 0-1.5654-0.80664-2.6934-0.90234-1.2715-2.748-1.6338-0.40332 3.1719-1.1006 5.1953-0.47852 1.415-1.1895 2.6729-1.0254 1.791-2.3311 1.791-0.9707 0-1.7295-0.875-0.48535-0.55371-0.78613-1.3604-0.39648-1.0459-0.39648-2.249 0-1.9482 1.0732-3.5889 1.0869-1.6748 2.8232-2.4336 1.2646-0.55371 2.7754-0.55371 2.3584 0 4.0059 1.2646 2.0234 1.5518 2.0234 4.3955 0 4.7646-4.8193 6.043zm-1.0254-8.9824q-1.21 0.13672-2.0234 0.64941-0.51953 0.33496-1.0322 0.88867-1.4219 1.5723-1.4219 3.6436 0 1.5107 0.60156 2.3652 0.36914 0.52637 0.73144 0.52637 0.49219 0 1.1074-1.0869 1.5039-2.6455 2.0371-6.9863z"></path>
  <path d="m38.671 25.044q-0.67676 1.9893-2.2148 3.4932 2.0303 0.82715 4.4365 1.9824l-1.0117 1.2305q-2.5566-1.4355-4.5186-2.3311-2.6182 1.8252-6.3711 2.3174l-0.69727-1.2578q3.2266-0.32129 5.5645-1.7227-1.5244-0.64941-3.2607-1.2305l-0.52637-0.1709q0.72461-0.98438 1.5312-2.3105h-3.5068v-1.2852h4.2451q0.46484-0.83398 1.1143-2.2285l1.4834 0.35547q-0.45801 1.0186-0.90918 1.873h7.3691v1.2852zm-1.5859 0h-3.7529q-0.69043 1.1826-1.1689 1.8799 1.1689 0.39648 2.8096 1.0186 1.415-1.2441 2.1123-2.8984zm-1.627-5.1475h5.4209v3.2471h-1.5381v-1.9893h-9.2148v1.9893h-1.5244v-3.2471h5.332v-1.4971h1.5244z"></path>
  <path d="m49.458 24.183v2.0166h4.4229v1.2852h-4.4229v2.3652h5.7148v1.333h-12.865v-1.333h5.626v-2.3652h-4.3135v-1.2852h4.3135v-2.0166h-2.9395v-0.56738q-0.9707 0.66309-2.0986 1.251l-0.93652-1.2578q2.2285-0.99121 3.6436-2.3174 1.2236-1.1484 2.2217-2.8916h1.6064q1.5107 2.0166 3.5137 3.3564 1.1006 0.73828 2.6045 1.4014l-0.88184 1.3057q-1.0732-0.54004-2.0439-1.1621v0.88184zm2.5156-1.3193q-1.9209-1.3672-3.2812-3.1309-1.0391 1.7295-2.707 3.1309z"></path>
  <path d="m57.285 20.321h3.6846q0.6084-0.9707 0.92285-1.5654l1.5244 0.21875q-0.20508 0.36914-0.72461 1.2031l-0.08887 0.14356h4.8193v1.3467h-5.7285q-0.89551 1.2305-1.709 2.1328 1.292-0.77246 2.3584-0.77246 1.6543 0 2.167 1.6611 1.75-0.58106 3.5684-1.1484l0.58789 1.3262-0.23926 0.06836-0.67676 0.17773q-1.9141 0.51953-3.0625 0.88867 0.08203 0.88867 0.11621 2.2969l-1.4971 0.08203q-0.0068-0.81348-0.02734-1.7637v-0.13672q-3.1445 1.0732-3.1445 2.1602 0 0.56055 0.80664 0.76562 0.7793 0.19824 2.7891 0.19824 1.8525 0 3.8896-0.21191l0.16406 1.4561q-1.9756 0.15039-4.0947 0.15039-2.6113 0-3.7119-0.39648-1.3604-0.49219-1.3604-1.7705 0-1.0801 0.96387-1.9072 0.99805-0.85449 3.5137-1.7637-0.13672-0.52637-0.3623-0.73828-0.25293-0.23926-0.66992-0.23926-0.67676 0-1.7021 0.5127-1.2646 0.62891-2.7139 1.8936l-0.90918-1.0391q2.126-1.9756 3.3291-3.8828h-2.7822z"></path>
  <path d="m77.731 19.856q0.20508-0.72461 0.36914-1.4971l1.415 0.10938q-0.19141 0.7793-0.38281 1.3877h4.0264v2.3652h-1.333v-1.1895h-3.124q-0.46484 1.1279-1.0049 2.0303h1.5518q0.3623-0.71777 0.67676-1.6133l1.3877 0.25293q-0.32129 0.74512-0.67676 1.3604h2.3857v1.1484h-2.625v1.1074h2.1191v1.0664h-2.1191v1.1279h2.1191v1.0527h-2.1191v1.2168h2.9736v1.1621h-6.0225v0.75879h-1.3193v-6.3438q-0.25293 0.29394-0.7793 0.81348l-0.60156-1.1006v5.0996h-2.2627v1.21h-1.2715v-5.0586q-0.32812 0.5332-0.66992 0.99805l-0.62891-1.4971q0.82715-1.1416 1.3398-2.5088 0.43066-1.1348 0.77246-2.6934l0.04785-0.21875h-1.7842v-1.333h4.8877v0.78613zm-0.41699 1.1758h-1.0596v1.2031h-1.2852v-1.832h-1.7021q-0.21191 1.4971-0.94336 3.4316h2.3242v1.1621q1.7295-1.75 2.666-3.9648zm-4.9287 4.0469v3.835h1.1143v-3.835zm6.7266-0.86816h-1.7637v1.1074h1.7637zm0 2.1738h-1.7637v1.1279h1.7637zm0 2.1807h-1.7637v1.2168h1.7637z"></path>
  <path d="m93.796 26.282q1.3877 1.9482 3.7393 3.2744l-0.85449 1.2646q-2.1738-1.4492-3.4932-3.5205v4.4023h-1.4287v-4.3477q-1.1689 2.167-3.2881 3.6914l-0.96387-1.1484q2.2354-1.2988 3.623-3.6162h-3.3564v-1.2441h3.9854v-1.5039h-3.0215v-4.6416h7.54v4.6416h-3.0898v1.5039h4.1357v1.2441zm-3.6162-6.1865v2.2354h4.6689v-2.2354zm-3.083 1.9688v9.6387h-1.4834v-6.7881q-0.41699 0.68359-1.0117 1.4971l-0.69726-1.5244q1.1484-1.5449 1.9619-3.5957 0.49219-1.251 0.97754-2.9873l1.4424 0.38965q-0.56055 1.9482-1.1895 3.3701z"></path>
  <path d="m99.442 18.974h1.6133v8.1484q0 2.5771 2.707 2.5771 1.7842 0 2.9258-1.6475 0.73828-1.0596 1.3262-3.2812l1.3877 0.84082q-0.69726 2.4678-1.6748 3.6914-1.5381 1.9072-3.999 1.9072-2.5703 0-3.623-1.5859-0.66309-0.99121-0.66309-2.5566z"></path>
  <path d="m110.74 20.061q6.2891-0.0957 11.888-0.32129l0.082 1.3604q-2.4678 0.12305-3.8418 0.75195-1.3125 0.60156-2.1055 1.668-0.90235 1.21-0.90235 2.6934 0 1.4766 1.0254 2.2148 1.1758 0.84082 3.6094 1.1553l-0.32129 1.5381q-3.1719-0.42383-4.4639-1.6406-1.3877-1.2988-1.3877-3.2266 0-1.75 1.2578-3.2676 0.91602-1.1143 2.5088-1.791-2.8232 0.0957-7.2803 0.32129z"></path>
  <path d="m133.88 31.361q-3.0898-2.4062-8.0938-5.373-0.92285-0.54004-0.92285-1.1348 0-0.42383 0.40332-0.7998 0.1709-0.16406 0.86133-0.54688 2.5225-1.4014 5.4414-3.3428 1.1006-0.72461 2.0029-1.4014l0.89551 1.1758q-3.5205 2.4951-7.2256 4.5527-0.3623 0.20508-0.3623 0.3418 0 0.10938 0.19824 0.24609 0.0547 0.04102 0.63574 0.38281 4.6895 2.7686 7.0615 4.5322z"></path>
  <path d="m136.88 20.833h3.1924q0.1914-0.84766 0.43066-2.1943l1.5449 0.19141q-0.20508 1.0596-0.4375 2.0029h3.6846v1.3604h-4.0059q-1.3672 5.4619-3.0215 9.0576l-1.5107-0.5332q1.7978-3.9854 2.9941-8.5244h-2.8711zm12.1 10.056q-1.1074 0.14356-2.4883 0.14356-2.2354 0-3.377-0.38281-0.4375-0.15039-0.74512-0.42383-0.60156-0.54688-0.60156-1.3945 0-0.86816 0.56054-1.5312l1.2168 0.71777q-0.21191 0.2666-0.21191 0.58789 0 0.55371 0.50586 0.71777 0.77246 0.24609 2.2012 0.24609 1.3877 0 2.7686-0.20508zm-6.4121-6.7744q2.6797-0.30762 5.8652-0.32812l0.0684 1.3877q-3.124 0.01367-5.7354 0.29395zm4.3818-2.5908q-0.37598-1.0459-1.3604-2.4814l1.0664-0.38965q0.86817 1.2373 1.374 2.4336zm1.9346-0.45117q-0.49219-1.2852-1.3467-2.4746l1.0049-0.36914q0.7793 0.96387 1.374 2.3516z"></path>
  <path d="m150.83 21.1h5.4893q-0.44433-1.1689-0.81347-2.3242l1.4971-0.0957q0.35547 1.2168 0.85449 2.4199h5.0518v1.4014h-4.4092q0.88183 1.8252 2.208 3.8076l-1.4355 0.68359q-1.4629-2.2148-2.3994-4.4912h-6.043zm9.9395 10.083q-1.3604 0.0752-2.4062 0.0752-2.8438 0-4.1904-0.44434-2.4336-0.79297-2.4336-2.9941 0-1.3535 0.84082-2.1807l1.2852 0.69727q-0.56055 0.55371-0.56055 1.4492 0 1.1416 1.2305 1.5996 1.0869 0.40332 3.6367 0.40332 1.0801 0 2.4336-0.10254z"></path>
  <path d="m171.06 27.328q-1.2646 3.7188-2.8369 3.7188-1.1211 0-1.9209-1.5723-0.61523-1.2168-0.84765-2.6797-0.28028-1.7773-0.28028-4.5664 0-1.21 0.0889-2.5977l1.6064 0.12305q-0.0889 1.3877-0.0889 2.6387 0 4.3887 0.82031 6.1182 0.33496 0.71094 0.62891 0.71094 0.1914 0 0.47851-0.4375 0.58789-0.88867 1.1348-2.4473zm4.3272 1.627q-0.34863-2.8848-0.85449-4.6621-0.61523-2.1533-1.4287-3.9443l1.456-0.35547q1.1279 2.2354 1.6748 4.3066 0.45117 1.6816 0.74512 4.2793z"></path>
 </g>
</svg>
