<svg version="1.1" xmlns="http://www.w3.org/2000/svg" xmlns:xlink="http://www.w3.org/1999/xlink" width="208" height="32" viewBox="0,0,208,32"><g transform="translate(-240,-164)"><g data-paper-data="{&quot;isPaintingLayer&quot;:true}" fill-rule="nonzero" stroke="none" stroke-linecap="butt" stroke-linejoin="miter" stroke-miterlimit="10" stroke-dasharray="" stroke-dashoffset="0" style="mix-blend-mode: normal"><path d="M240,196v-32h208v32z" fill="none" stroke-width="0"/><path d="M241.04,172.79h15.479c-0.09115,3.43747 -0.49155,6.12953 -1.2012,8.0762c-0.83333,2.2656 -2.27213,4.04947 -4.3164,5.3516c-1.52993,0.97653 -3.62953,1.78057 -6.2988,2.4121l-1.123,-1.9824c2.7018,-0.50781 4.77537,-1.24675 6.2207,-2.2168c1.58853,-1.0612 2.72787,-2.5293 3.418,-4.4043c0.50781,-1.38673 0.78776,-3.1185 0.83984,-5.1953h-13.018z" fill="#ffffff" stroke-width="1"/><path d="M266.38,188.76v-8.1348c-1.4974,0.97653 -3.3366,1.88147 -5.5176,2.7148l-1.084,-1.8164c2.46747,-0.83333 4.57683,-1.87173 6.3281,-3.1152c1.79687,-1.26953 3.36913,-2.69207 4.7168,-4.2676l1.6992,1.0645c-1.34767,1.54293 -2.70833,2.84177 -4.082,3.8965v9.6582z" fill="#ffffff" stroke-width="1"/><path d="M277.2,171.32h2.2754v10.684h-2.2754zM287.229,171.11492h2.2754v6.9824c0,2.4544 -0.19857,4.28057 -0.5957,5.4785c-0.33203,1.02213 -0.7845,1.83593 -1.3574,2.4414c-1.1914,1.28253 -3.10547,2.2298 -5.7422,2.8418l-1.123,-2.002c2.88413,-0.58594 4.7331,-1.55924 5.5469,-2.9199c0.51432,-0.86587 0.82356,-1.9596 0.92773,-3.2812c0.0456,-0.61198 0.0684,-1.45835 0.0684,-2.5391z" fill="#ffffff" stroke-width="1"/><path d="M294.46,171.51h2.2754v6.2402c3.35287,-0.918 6.2272,-2.07033 8.623,-3.457l1.2793,1.8555c-3.07293,1.53647 -6.3737,2.76367 -9.9023,3.6816v4.5215c0,0.56641 0.2474,0.90494 0.74219,1.0156c0.59896,0.13672 1.94986,0.20508 4.0527,0.20508c2.181,0 4.51823,-0.11393 7.0117,-0.3418v2.207c-2.2656,0.16276 -4.62887,0.24414 -7.0898,0.24414c-2.5716,0 -4.23177,-0.06836 -4.9805,-0.20508c-0.89193,-0.16276 -1.47787,-0.56316 -1.7578,-1.2012c-0.16927,-0.39063 -0.25391,-0.88543 -0.25391,-1.4844zM308.728,170.55297c0.4362,0 0.85287,0.12044 1.25,0.36133c0.39063,0.22787 0.69336,0.54688 0.9082,0.95703c0.19531,0.36458 0.29297,0.74545 0.29297,1.1426c0,0.63802 -0.22786,1.20115 -0.68359,1.6894c-0.48177,0.51433 -1.07747,0.77149 -1.7871,0.77149c-0.35157,0 -0.6901,-0.07487 -1.0156,-0.22461c-0.40365,-0.18881 -0.73242,-0.4655 -0.98633,-0.83008c-0.29947,-0.42969 -0.44921,-0.90169 -0.44921,-1.416c0,-0.39713 0.10091,-0.78123 0.30273,-1.1523c0.20182,-0.37107 0.472,-0.67055 0.81055,-0.89844c0.41015,-0.26693 0.86262,-0.40039 1.3574,-0.40039zM308.718,171.75417c-0.24089,0 -0.46875,0.06836 -0.68359,0.20508c-0.38411,0.24089 -0.57617,0.59569 -0.57617,1.0644c0,0.33203 0.11393,0.61849 0.34179,0.85938c0.2474,0.26041 0.55339,0.39062 0.91797,0.39062c0.20833,0 0.40039,-0.04557 0.57617,-0.13672c0.45573,-0.23437 0.6836,-0.60547 0.6836,-1.1133c0,-0.35807 -0.12695,-0.66081 -0.38086,-0.9082c-0.23437,-0.24089 -0.52734,-0.36133 -0.87891,-0.36133z" fill="#ffffff" stroke-width="1"/><path d="M319.74,176.36c-2.05727,-0.918 -4.19593,-1.65367 -6.416,-2.207l0.6836,-2.0996c2.5716,0.58594 4.7298,1.31511 6.4746,2.1875zM313.5681,186.0768c3.22267,-0.27344 5.69013,-0.84961 7.4024,-1.7285c2.0182,-1.04167 3.56767,-2.63997 4.6484,-4.7949c0.70313,-1.3932 1.2728,-3.21613 1.709,-5.4688l1.875,1.377c-0.52735,2.40887 -1.16538,4.32293 -1.9141,5.7422c-1.35413,2.58467 -3.42443,4.4564 -6.2109,5.6152c-1.7578,0.7292 -4.10807,1.25003 -7.0508,1.5625z" fill="#ffffff" stroke-width="1"/><path d="M335.63,175.96v13.545h-2.1192v-10.029c-0.52734,0.7422 -1.13931,1.51043 -1.8359,2.3047l-1.1035,-2.0996c1.3216,-1.46487 2.4544,-3.1706 3.3984,-5.1172c0.57291,-1.1784 1.14585,-2.58467 1.7188,-4.2188l2.041,0.55664c-0.59245,1.78387 -1.29231,3.47007 -2.0996,5.0586zM346.753,175.10063h2.9395v1.9629h-2.9395v10.254c0,0.8594 -0.20833,1.43233 -0.625,1.7188c-0.30599,0.21485 -0.88215,0.32227 -1.7285,0.32227c-1.03513,0 -2.09633,-0.05859 -3.1836,-0.17578l-0.41992,-2.1387c1.15887,0.16927 2.2396,0.2539 3.2422,0.2539c0.27343,0 0.43945,-0.05859 0.49805,-0.17578c0.03907,-0.08463 0.0586,-0.22461 0.0586,-0.41992v-9.6387h-7.9883v-1.9629h7.9883v-4.2578h2.1582zM340.5714,184.56353c-0.73567,-1.95967 -1.64387,-3.74677 -2.7246,-5.3613l1.8652,-1.084c1.17187,1.72527 2.11263,3.49283 2.8223,5.3027z" fill="#ffffff" stroke-width="1"/><path d="M355.71,185.06c0.52083,0.60547 1.10677,1.05471 1.7578,1.3477c1.06773,0.48177 2.46747,0.72266 4.1992,0.72266h8.3203c-0.23437,0.44271 -0.45247,1.07747 -0.65429,1.9043h-7.7637c-2.2396,0 -3.9551,-0.35157 -5.1465,-1.0547c-0.48828,-0.29297 -1.02538,-0.77151 -1.6113,-1.4356c-0.0456,0.05207 -0.10094,0.11717 -0.16601,0.19531c-0.95707,1.1328 -1.9076,2.05727 -2.8516,2.7734l-1.1816,-2.002c1.03513,-0.61849 2.03447,-1.31836 2.998,-2.0996v-4.8242h-2.8418v-1.9238h4.9414zM358.2491,172.101l0.51758,-0.0391c3.01433,-0.20833 5.72267,-0.6543 8.125,-1.3379l1.5234,1.7188c-2.52607,0.66406 -5.22137,1.11326 -8.0859,1.3476v2.5293h9.043v1.9043h-3.2812v7.959h-2.1582v-7.959h-3.6035c-0.03253,2.08987 -0.18878,3.75327 -0.46875,4.9902c-0.25391,1.13933 -0.67057,2.16147 -1.25,3.0664l-1.7969,-1.3574c0.64453,-1.0026 1.05793,-2.2461 1.2402,-3.7305c0.13021,-1.02213 0.19531,-2.4121 0.19531,-4.1699zM354.6358,175.9194c-0.99607,-1.40627 -2.07027,-2.66603 -3.2226,-3.7793l1.6016,-1.2793c1.1198,0.93747 2.2461,2.12887 3.3789,3.5742z" fill="#ffffff" stroke-width="1"/></g></g></svg>