<svg version="1.1" xmlns="http://www.w3.org/2000/svg" xmlns:xlink="http://www.w3.org/1999/xlink" width="208" height="32" viewBox="0,0,208,32"><g transform="translate(-240,-164)"><g data-paper-data="{&quot;isPaintingLayer&quot;:true}" fill-rule="nonzero" stroke="none" stroke-linecap="butt" stroke-linejoin="miter" stroke-miterlimit="10" stroke-dasharray="" stroke-dashoffset="0" style="mix-blend-mode: normal"><path d="M240,196v-32h208v32z" fill="none" stroke-width="0"/><path d="M251.02,172.08h7.8613v3.7988h-2.0996v-2.2559h-13.584v2.2559h-2.0996v-3.7988h7.7637v-1.582h2.1582zM256.1762,176.9335v3.8672h-12.383v-3.8672zM245.7952,178.2519v1.2305h8.3789v-1.2305zM258.0022,181.6406v7.8613h-2.0801v-0.78125h-11.865v0.78125h-2.0801v-7.8613zM244.0572,183.0762v1.3672h4.8633v-1.3672zM244.0572,185.8008v1.4551h4.8633v-1.4551zM255.9222,187.2559v-1.4551h-5v1.4551zM255.9222,184.4434v-1.3672h-5v1.3672zM244.0182,174.5606h11.943v1.5039h-11.943z" fill="#ffffff" stroke-width="1"/><path d="M271.03,185.42h4.9219v-10.742h2.2168v14.658h-2.2168v-1.7969h-11.943v1.7969h-2.1973v-14.658h2.1973v10.742h4.8047v-14.727h2.2168z" fill="#ffffff" stroke-width="1"/><path d="M296.76,170.98v9.4629h-11.621v-9.4629zM287.2385,172.523v1.2207h7.4023v-1.2207zM287.2385,175.1207v1.2207h7.4023v-1.2207zM287.2385,177.7183v1.2598h7.4023v-1.2598zM283.3029,181.7417h16.191v1.6992h-8.0762v6.0644h-2.2168v-6.0644h-8.0371v-10.957h2.1387zM280.8029,187.6401c1.54947,-0.71613 3.0306,-1.9173 4.4434,-3.6035l1.7969,1.0449c-1.3932,1.76433 -2.93943,3.15107 -4.6387,4.1602zM297.6389,188.8999c-0.99607,-1.22393 -2.49347,-2.50973 -4.4922,-3.8574l1.6797,-1.1816c1.569,0.90493 3.1087,2.09307 4.6191,3.5644z" fill="#ffffff" stroke-width="1"/></g></g></svg>