<svg version="1.1" xmlns="http://www.w3.org/2000/svg" xmlns:xlink="http://www.w3.org/1999/xlink" width="117.70693" height="100.2397" viewBox="0,0,117.70693,100.2397"><g transform="translate(-249.89603,-114.09437)"><g data-paper-data="{&quot;isPaintingLayer&quot;:true}" fill="none" fill-rule="evenodd" stroke="#fc3324" stroke-width="36" stroke-linecap="round" stroke-linejoin="round" stroke-miterlimit="4" stroke-dasharray="" stroke-dashoffset="0" style="mix-blend-mode: normal"><path d="M281.77382,196.33407l-1.2798,-2.71956l-2.10967,-1.06983l-3.83938,-0.59991l-3.30947,-1.18981l-2.55959,0.47992l1.97968,-2.74956l-0.06999,-4.29931l-2.68957,-2.82954l1.27979,-7.85874l2.04967,-4.11934l6.05903,-7.95872l3.15949,-6.17901l-0.13998,-3.69941l2.11966,-0.31995l-2.66958,-2.73956l1.54976,-4.68925l2.03968,-1.2798l2.38961,0.13998l-0.22996,-1.59975l2.95953,-0.6199l2.21965,-1.34978l1.58974,1.91969l2.84955,0.76988l0.29995,-4.51928l3.31947,0.14998l0.34995,-1.66974l-1.37978,-0.99984l0.81987,-1.28979l1.9297,-0.04999l-0.46992,2.90954l1.28979,0.31995l1.2998,-3.85938l1.96969,-0.66989l0.13997,2.84954l-4.3293,8.71861l-2.56959,3.97936l0.82987,0.6099l-0.72988,9.3885l3.55943,2.71956l0.93985,2.96953l-1.04983,5.36914l-1.38978,3.60943l0.86986,1.79971l3.50944,3.27948l5.73908,2.64957l2.72957,0.11998l-0.6299,-4.23932l-1.2398,-0.45992l-3.7194,-3.88938l0.51991,-4.9892l2.59959,-7.68877l2.32962,-3.29947l1.16981,-6.78892l-0.35995,7.58879l-2.20964,4.84922l0.90985,3.90938l3.25948,0.75987l0.31995,1.43977l2.4896,3.25948l1.56975,0.27996l3.54943,-1.38978l1.13981,1.42978l2.68957,-1.90969l1.81971,1.06983l4.16933,-0.31995l0.35994,2.31963l1.12982,-1.21981l-0.20997,-2.17966l1.12982,-2.11966l1.10982,1.01984l1.31979,-1.71973l2.86954,1.40977l4.11934,0.08999l1.56975,3.12949l1.70972,-0.81986l-0.52991,6.41897l1.8497,0.51992l-3.01951,0.47992l0.28995,5.17917l-2.52959,0.21997l1.46976,-1.64974v-4.16933l-1.60974,-0.34994l-2.30963,1.8297l-0.09999,2.43961l-1.51976,-1.25979l-2.18965,3.7194l-1.72973,-0.27996l-3.64941,2.59959l-2.64958,0.29995l-0.66989,1.55975l-3.39945,1.01984l-0.06999,-1.55975l-2.01968,-1.97968l-2.20965,1.05983l-4.29931,8.99856"/></g></g></svg>