<svg version="1.1" xmlns="http://www.w3.org/2000/svg" xmlns:xlink="http://www.w3.org/1999/xlink" width="32" height="30" viewBox="0,0,32,30"><g transform="translate(-224,-165)"><g data-paper-data="{&quot;isPaintingLayer&quot;:true}" stroke="none" stroke-linecap="butt" stroke-linejoin="miter" stroke-miterlimit="10" stroke-dasharray="" stroke-dashoffset="0" style="mix-blend-mode: normal"><path d="M224,195v-30h32v30z" fill-opacity="0" fill="#000000" fill-rule="nonzero" stroke-width="4.0825"/><path d="M232,166h16c3.324,0 6,2.676 6,6v16c0,3.324 -2.676,6 -6,6h-16c-3.324,0 -6,-2.676 -6,-6v-16c0,-3.324 2.676,-6 6,-6z" fill="#f6cb51" fill-rule="evenodd" stroke-width="1"/><path d="M239.95928,171.24028h0.0059c0.9341,0.004 1.77098,0.21529 2.4902,0.63673c0.72059,0.40641 1.2836,0.98612 1.6777,1.72272c0.411,0.72071 0.61351,1.55675 0.61719,2.49023v0.02544c-0.00368,0.93411 -0.20622,1.78098 -0.61523,2.53123c-0.22692,0.425 -0.53722,0.77665 -0.87305,1.10351c0.42408,0.32408 0.81234,0.68289 1.0957,1.13671c0.42899,0.68701 0.64414,1.46114 0.64844,2.30463v1.68362c-0.00427,0.84361 -0.21943,1.61766 -0.64807,2.30493v0.002h-0.002c-0.432,0.67513 -1.02919,1.22016 -1.7812,1.62302h-0.0039v0.002c-0.7498,0.38497 -1.59853,0.57639 -2.5293,0.58009h-0.02934c-0.8261,-0.00344 -1.5922,-0.16309 -2.2871,-0.48048h-0.002c-0.6835,-0.3204 -1.25509,-0.77195 -1.7051,-1.34572l-0.004,-0.004c-0.43332,-0.57551 -0.70488,-1.23001 -0.8125,-1.95312l-0.0332,-0.22656l2.6641,-0.50587l0.03125,0.26367c0.07997,0.65959 0.31822,1.11638 0.70117,1.42192c0.4122,0.29892 0.89031,0.44763 1.4668,0.44923c0.63229,-0.00373 1.11394,-0.19612 1.5078,-0.59376c0.41748,-0.42041 0.62305,-0.92521 0.62305,-1.56252v-1.63282c0,-0.65445 -0.20519,-1.15615 -0.61914,-1.55862l-0.004,-0.004c-0.3977,-0.40152 -0.88455,-0.59571 -1.5254,-0.59571h-1.8965v-2.37893h1.8203c0.57389,0 1.00748,-0.21263 1.3789,-0.69142v-0.0039l0.002,-0.002c0.38491,-0.47631 0.58559,-1.09205 0.58789,-1.87892v-0.002c-0.00229,-0.75371 -0.20179,-1.34563 -0.58594,-1.80662v-0.00195l-0.002,-0.00195c-0.3672,-0.45898 -0.79823,-0.66818 -1.3672,-0.67189h-0.002c-0.55881,0.00228 -1.0279,0.15163 -1.4414,0.45313c-0.39624,0.2889 -0.6405,0.74323 -0.7207,1.41992l-0.03125,0.26367l-2.6641,-0.50587l0.0332,-0.22461c0.10746,-0.73871 0.37877,-1.3954 0.81445,-1.95702v-0.00195c0.4511,-0.57515 1.03383,-1.02574 1.7344,-1.34572c0.6919,-0.31601 1.44867,-0.47604 2.2559,-0.48048z" fill="#1c1c1c" fill-rule="nonzero" stroke-width="2.582"/></g></g></svg>