<svg version="1.1" xmlns="http://www.w3.org/2000/svg" xmlns:xlink="http://www.w3.org/1999/xlink" width="168.1" height="32.878" viewBox="0,0,168.1,32.878"><g transform="translate(-240,-180)"><g data-paper-data="{&quot;isPaintingLayer&quot;:true}" stroke="none" stroke-linecap="butt" stroke-linejoin="miter" stroke-miterlimit="10" stroke-dasharray="" stroke-dashoffset="0" style="mix-blend-mode: normal"><path d="M248,180h152.1c4.432,0 8,3.568 8,8v16.878c0,4.432 -3.568,8 -8,8h-152.1c-4.432,0 -8,-3.568 -8,-8v-16.878c0,-4.432 3.568,-8 8,-8z" fill-opacity="0.7" fill="#000000" fill-rule="evenodd" stroke-width="0"/><g fill="#ffffff" fill-rule="nonzero" stroke-width="1"><path d="M251.41,192.93v1.8711h-0.86328v-1.832l-1.2734,0.0469c-0.47135,0.0182 -1.03385,0.03383 -1.6875,0.0469l-0.25391,-0.71875l0.79688,-0.004l0.34766,-0.004l1.1953,-0.008c-0.02867,-0.0208 -0.06773,-0.04813 -0.11719,-0.082c-0.40625,-0.29687 -0.80338,-0.55468 -1.1914,-0.77343l0.56641,-0.48829c0.18489,0.11459 0.3164,0.19922 0.39453,0.25391c0.19011,-0.14583 0.38933,-0.32422 0.59766,-0.53516h-2.4062v-3.3203h3.4258v0.5586h-1.1211v0.42578h1.1211v1.3594h-1.1211v0.45703h1.25v0.51953h-0.75391l0.39062,0.25782c-0.28645,0.23437 -0.58202,0.44531 -0.88671,0.63281c0.27604,0.20573 0.5039,0.38411 0.68359,0.53516c0.58073,-0.40886 1.14453,-0.84376 1.6914,-1.3047l0.62109,0.47265c-0.37239,0.29427 -0.87889,0.62891 -1.5195,1.0039h0.12109c0.47917,-0.0104 0.98567,-0.02863 1.5195,-0.0547l0.1836,-0.0117c-0.14063,-0.13541 -0.29818,-0.26953 -0.47266,-0.40234l0.60938,-0.375c0.50781,0.34896 0.99087,0.78386 1.4492,1.3047l-0.66406,0.45312c-0.16667,-0.19791 -0.29948,-0.34765 -0.39844,-0.44922c-0.03127,0.00267 -0.07163,0.00657 -0.12109,0.0117c-0.52344,0.05467 -1.16147,0.10284 -1.9141,0.14453zM249.1131,187.9417h-0.82812v0.42578h0.82812zM250.1873,188.84795h-1.9023v0.39843h1.9023zM249.1131,189.72685h-0.82812v0.45703h0.82812zM253.3943,189.5042c0.0182,0.013 0.03773,0.02603 0.0586,0.0391c0.35417,0.24479 0.8099,0.46615 1.3672,0.66406l-0.46485,0.67188c-0.52083,-0.21094 -1.01303,-0.4987 -1.4766,-0.86329c-0.37761,0.30729 -0.79427,0.57162 -1.25,0.79297l-0.51953,-0.60937c0.46093,-0.16407 0.8763,-0.39193 1.2461,-0.6836c-0.42969,-0.48177 -0.73568,-0.97917 -0.91797,-1.4922h-0.24218v-0.65625h2.8711l0.40234,0.32812c-0.28906,0.71093 -0.64713,1.3138 -1.0742,1.8086zM252.85134,189.04716c0.27083,-0.30208 0.48698,-0.64321 0.64843,-1.0234h-1.3281c0.17448,0.39843 0.40104,0.73957 0.67969,1.0234zM247.33184,194.10966c0.70053,-0.25 1.27867,-0.58853 1.7344,-1.0156l0.71484,0.44141c-0.60677,0.55729 -1.22263,0.97655 -1.8476,1.2578zM254.14044,194.6956c-0.55729,-0.42708 -1.18619,-0.83201 -1.8867,-1.2148l0.58203,-0.51172c0.7292,0.32552 1.37243,0.68229 1.9297,1.0703z"/><path d="M259.91,188.84h2.0469v3.1289h-2.793c0.34114,0.30989 0.65364,0.66666 0.9375,1.0703l-0.67188,0.53906c-0.35417,-0.53645 -0.67708,-0.94009 -0.96875,-1.2109l0.54688,-0.39844h-2.9219v-0.66406h4.9609v-0.61719h-4.6914v-0.61719h4.6914v-0.58203h-4.707v-0.28906c-0.21875,0.15365 -0.45053,0.30078 -0.69532,0.4414l-0.52734,-0.625c0.862,-0.4401 1.58987,-1.05597 2.1836,-1.8476l0.54688,0.32812h2.5586l0.44532,0.35938c-0.26563,0.33073 -0.55729,0.63932 -0.875,0.92578zM258.91391,188.84c0.28125,-0.23437 0.5039,-0.45833 0.66796,-0.67187h-2.0859c-0.22135,0.25 -0.45313,0.47396 -0.69532,0.67187zM255.23031,194.1447c0.31511,-0.51563 0.54688,-1.10546 0.69531,-1.7695l0.83985,0.25c-0.15885,0.82033 -0.40755,1.4974 -0.7461,2.0312zM257.38271,192.4455h0.85546v1.1055c0,0.16406 0.04427,0.26172 0.13282,0.29297c0.10417,0.03387 0.35417,0.0508 0.75,0.0508c0.47656,0 0.79036,-0.01433 0.9414,-0.043c0.10157,-0.0182 0.16667,-0.07549 0.19532,-0.17187c0.04167,-0.13021 0.0703,-0.36068 0.0859,-0.69141l0.83985,0.28125c-0.02607,0.60937 -0.12503,0.99611 -0.29688,1.1602c-0.11198,0.10417 -0.27474,0.16667 -0.48828,0.1875c-0.33333,0.03127 -0.78647,0.0469 -1.3594,0.0469c-0.69793,0 -1.14193,-0.03257 -1.332,-0.0977c-0.15104,-0.05207 -0.24739,-0.14452 -0.28906,-0.27735c-0.0234,-0.07552 -0.0351,-0.17448 -0.0351,-0.29687zM262.14831,194.4377c-0.32813,-0.7656 -0.66926,-1.3867 -1.0234,-1.8633l0.71875,-0.4375c0.44271,0.59375 0.79818,1.19531 1.0664,1.8047z"/><path d="M267.09,190.36v3.0938c0,0.20052 0.08594,0.32161 0.25781,0.36328c0.17709,0.04427 0.58202,0.0664 1.2148,0.0664c0.61719,0 1.02472,-0.03123 1.2226,-0.0937c0.11198,-0.03647 0.1849,-0.13803 0.21875,-0.30469c0.04427,-0.23437 0.0677,-0.51172 0.0703,-0.83203l0.81641,0.23047c-0.04167,0.7682 -0.14714,1.25907 -0.31641,1.4726c-0.11197,0.14063 -0.28124,0.22396 -0.50781,0.25c-0.35677,0.03907 -0.96223,0.0586 -1.8164,0.0586c-0.66146,0 -1.09506,-0.01823 -1.3008,-0.0547c-0.30989,-0.05207 -0.50651,-0.18879 -0.58984,-0.41016c-0.04167,-0.11719 -0.0625,-0.27344 -0.0625,-0.46875v-3.0976l-0.74609,0.25781l-0.1836,-0.75781l0.92969,-0.32031v-2.1055h0.79297v1.832l0.83984,-0.28516v-2.0586h0.78516v1.7852l1.3086,-0.44921l0.41016,0.25v2.9258c0,0.20312 -0.04818,0.35416 -0.14453,0.45312c-0.10937,0.10937 -0.29297,0.16406 -0.55078,0.16406c-0.21094,0 -0.4349,-0.01823 -0.67188,-0.0547l-0.1289,-0.7461c0.15364,0.03907 0.30989,0.0586 0.46875,0.0586c0.11458,0 0.18489,-0.02343 0.21093,-0.0703c0.02607,-0.03907 0.0391,-0.10417 0.0391,-0.19531v-1.8476l-0.94141,0.32812v3.1602h-0.78516v-2.8906zM264.2189,189.0827v-1.8867h0.83984v1.8867h0.75781v0.79297h-0.75781v2.4844c0.27344,-0.09375 0.54427,-0.1914 0.8125,-0.29297l0.0742,0.75391c-0.84373,0.38541 -1.70963,0.70833 -2.5977,0.96875l-0.27344,-0.83203c0.40105,-0.10417 0.75261,-0.20313 1.0547,-0.29688c0.03647,-0.013 0.06643,-0.0221 0.0899,-0.0273v-2.7578h-0.99219v-0.79297z"/><path d="M274.56,188.25v-0.33594h-2.4414v-0.5586h5.7656v0.5586h-2.4922v0.33594h3.2344v1.4023h-0.84766v-0.89844h-2.3867v1.5195h-0.83203v-1.5195h-2.3438v0.89844h-0.83984v-1.4023zM277.3256,193.793c0.39843,0.15105 0.89583,0.27084 1.4922,0.35938l-0.45704,0.66406c-0.83593,-0.14323 -1.52213,-0.38932 -2.0586,-0.73828c-0.53385,-0.34896 -0.94922,-0.78256 -1.2461,-1.3008h-0.86328v1.2031c0.57552,-0.08073 1.10939,-0.16666 1.6016,-0.25781l0.0547,0.58203c-0.91667,0.21875 -1.96483,0.40886 -3.1445,0.57032l-0.23046,-0.6875c0.40885,-0.04427 0.6888,-0.0755 0.83984,-0.0937l0.0469,-0.008v-1.3086h-0.85546c-0.03647,0.45833 -0.09636,0.82423 -0.17969,1.0977c-0.09896,0.32812 -0.25781,0.63411 -0.47656,0.91796l-0.69532,-0.57421c0.25521,-0.33073 0.41407,-0.71747 0.47657,-1.1602c0.03387,-0.23959 0.0508,-0.53776 0.0508,-0.89453v-1.6562h6.7422v0.51953h-5.9023v1.1992h6.2383v0.55078h-0.88672l0.4961,0.32812c-0.29427,0.24479 -0.64194,0.47396 -1.043,0.6875zM276.71622,193.49222c0.375,-0.25521 0.67318,-0.49349 0.89453,-0.71484h-1.707c0.22396,0.28646 0.49479,0.52474 0.8125,0.71484zM272.56002,189.04302h1.6641v0.44141h-1.6641zM272.56002,189.76177h1.6641v0.44922h-1.6641zM275.72802,189.04302h1.7148v0.44141h-1.7148zM275.72802,189.76177h1.7148v0.44922h-1.7148zM272.98582,191.35557h4.8633v0.51172h-4.8633z"/><path d="M281.03,193.1c0.013,0.013 0.02993,0.02993 0.0508,0.0508c0.22396,0.22917 0.47656,0.39583 0.75781,0.5c0.45313,0.16667 1.00783,0.25 1.6641,0.25h3.4219c-0.09896,0.1901 -0.1836,0.43749 -0.25391,0.74218h-3.1914c-0.8802,0 -1.54947,-0.11588 -2.0078,-0.34765c-0.27083,-0.13802 -0.52995,-0.34115 -0.77735,-0.60938c-0.36719,0.46094 -0.73829,0.84114 -1.1133,1.1406l-0.4375,-0.78906c0.39063,-0.2474 0.74479,-0.50912 1.0625,-0.78516v-2.0156h-1v-0.76953h1.8242zM283.573,191.8734c-0.47657,0.62761 -1.0534,1.14194 -1.7305,1.543l-0.53125,-0.59765c0.78387,-0.38542 1.46877,-0.92709 2.0547,-1.625h-1.6055v-1.9844h1.8125v-0.53516h-2.1172v-0.70312h2.1172v-0.76953h0.80078v0.76953h2.1875v0.70312h-2.1875v0.53516h1.8828v1.9844h-1.8828v0.15234c0.72653,0.31511 1.4635,0.71484 2.2109,1.1992l-0.50391,0.67187c-0.51823,-0.41145 -1.08723,-0.80339 -1.707,-1.1758v1.6328h-0.80078zM283.573,189.8187h-1.043v0.78125h1.043zM284.37378,189.8187v0.78125h1.1055v-0.78125zM280.51828,189.24838c-0.37239,-0.58333 -0.76433,-1.08203 -1.1758,-1.4961l0.64062,-0.49609c0.45573,0.42447 0.86067,0.90494 1.2148,1.4414z"/><path d="M288.77,188.02v-0.8164h0.81641v0.8164h1.2148v0.6875h-1.2148v0.67188h1.3828v0.69531h-0.46484c-0.08333,0.3099 -0.19531,0.63803 -0.33594,0.98438h0.7539v0.67968h-1.3359v0.72266h1.2852v0.69531h-1.2852v1.6484h-0.81641v-1.6484h-1.3789v-0.69531h1.3789v-0.72266h-1.4414v-0.67968h0.71875c-0.08333,-0.34635 -0.18489,-0.67448 -0.30468,-0.98438h-0.57422v-0.69531h1.6016v-0.67188h-1.2734v-0.6875zM289.74266,190.0747h-1.2422c0.08854,0.2474 0.18359,0.57553 0.28516,0.98438h0.64843c0.13542,-0.33333 0.23829,-0.66146 0.3086,-0.98438zM294.48096,187.4849v1.8281c0,0.22657 -0.04167,0.38672 -0.125,0.48047c-0.09896,0.11198 -0.30599,0.16797 -0.6211,0.16797c-0.30729,0 -0.61458,-0.01303 -0.92187,-0.0391l-0.13281,-0.70313c0.43229,0.04687 0.70703,0.0703 0.82422,0.0703c0.12239,0 0.18359,-0.05339 0.18359,-0.16016v-0.94141h-1.7109v2.2695h2.2148l0.46484,0.39844c-0.14063,0.82813 -0.39714,1.56773 -0.76953,2.2188l-0.043,0.0781c0.28646,0.33073 0.64453,0.63281 1.0742,0.90625l-0.4375,0.73047c-0.41146,-0.26563 -0.77866,-0.58334 -1.1016,-0.95313c-0.27865,0.35417 -0.59245,0.6875 -0.94141,1l-0.46094,-0.64062v0.60937h-0.79297v-7.3203zM291.97706,191.1607v2.9531c0.32031,-0.21875 0.62891,-0.52604 0.92578,-0.92187c-0.39843,-0.61459 -0.67838,-1.29165 -0.83984,-2.0312zM293.33646,192.5005c0.23177,-0.44791 0.38281,-0.89451 0.45312,-1.3398h-1.0078c0.12761,0.5 0.3125,0.9466 0.55469,1.3398z"/><path d="M295.46,188.15c2.39587,-0.03647 4.6602,-0.09767 6.793,-0.1836l0.0469,0.77735c-0.94013,0.04687 -1.6719,0.19009 -2.1953,0.42968c-0.5,0.22917 -0.90103,0.54688 -1.2031,0.95313c-0.34375,0.46094 -0.51563,0.97397 -0.51563,1.5391c0,0.5625 0.19531,0.98437 0.58594,1.2656c0.44791,0.32031 1.13541,0.54036 2.0625,0.66015l-0.18359,0.87891c-1.20833,-0.16146 -2.0586,-0.47396 -2.5508,-0.9375c-0.52864,-0.49479 -0.79296,-1.10939 -0.79296,-1.8438c0,-0.66667 0.23958,-1.28907 0.71875,-1.8672c0.34895,-0.42448 0.82682,-0.76561 1.4336,-1.0234c-1.07553,0.03647 -2.46227,0.09767 -4.1602,0.1836zM301.1397,191.5211c-0.15365,-0.40885 -0.41276,-0.87239 -0.77735,-1.3906l0.60938,-0.22657c0.32552,0.44792 0.58724,0.90625 0.78516,1.375zM302.1944,191.11094c-0.1849,-0.47917 -0.44271,-0.9453 -0.77344,-1.3984l0.58203,-0.20703c0.30469,0.36979 0.5638,0.81772 0.77734,1.3438z"/><path d="M307.39,193.61c1.52867,-0.38541 2.293,-1.26171 2.293,-2.6289c0,-0.59635 -0.15365,-1.10939 -0.46094,-1.5391c-0.34375,-0.48437 -0.86718,-0.79557 -1.5703,-0.93359c-0.15365,1.20833 -0.36328,2.19793 -0.62891,2.9688c-0.18229,0.53906 -0.40885,1.04816 -0.67968,1.5273c-0.39063,0.68227 -0.83463,1.0234 -1.332,1.0234c-0.36979,0 -0.69921,-0.16667 -0.98828,-0.5c-0.18489,-0.21094 -0.33463,-0.47005 -0.44922,-0.77734c-0.15104,-0.39844 -0.22656,-0.82684 -0.22656,-1.2852c0,-0.7422 0.20443,-1.4258 0.61328,-2.0508c0.41407,-0.63802 0.95183,-1.10155 1.6133,-1.3906c0.48177,-0.21093 1.01041,-0.3164 1.5859,-0.3164c0.89847,0 1.6615,0.24088 2.2891,0.72265c0.7708,0.59115 1.1562,1.42838 1.1562,2.5117c0,1.81513 -0.91797,2.96617 -2.7539,3.4531zM306.80406,188.4772c-0.46093,0.05207 -0.84633,0.17576 -1.1562,0.37109c-0.19791,0.12761 -0.39453,0.29688 -0.58984,0.50781c-0.54167,0.59896 -0.8125,1.29296 -0.8125,2.082c0,0.57552 0.11458,1.02605 0.34375,1.3516c0.14063,0.20052 0.27995,0.30078 0.41797,0.30078c0.1875,0 0.39844,-0.20703 0.63281,-0.62109c0.57292,-1.0078 0.96095,-2.33853 1.1641,-3.9922z"/><path d="M314.56,188.25v-0.33594h-2.4414v-0.5586h5.7656v0.5586h-2.4922v0.33594h3.2344v1.4023h-0.84766v-0.89844h-2.3867v1.5195h-0.83203v-1.5195h-2.3438v0.89844h-0.83984v-1.4023zM317.3256,193.793c0.39843,0.15105 0.89583,0.27084 1.4922,0.35938l-0.45704,0.66406c-0.83593,-0.14323 -1.52213,-0.38932 -2.0586,-0.73828c-0.53385,-0.34896 -0.94922,-0.78256 -1.2461,-1.3008h-0.86328v1.2031c0.57552,-0.08073 1.10939,-0.16666 1.6016,-0.25781l0.0547,0.58203c-0.91667,0.21875 -1.96483,0.40886 -3.1445,0.57032l-0.23046,-0.6875c0.40885,-0.04427 0.6888,-0.0755 0.83984,-0.0937l0.0469,-0.008v-1.3086h-0.85546c-0.03647,0.45833 -0.09636,0.82423 -0.17969,1.0977c-0.09896,0.32812 -0.25781,0.63411 -0.47656,0.91796l-0.69532,-0.57421c0.25521,-0.33073 0.41407,-0.71747 0.47657,-1.1602c0.03387,-0.23959 0.0508,-0.53776 0.0508,-0.89453v-1.6562h6.7422v0.51953h-5.9023v1.1992h6.2383v0.55078h-0.88672l0.4961,0.32812c-0.29427,0.24479 -0.64194,0.47396 -1.043,0.6875zM316.71622,193.49222c0.375,-0.25521 0.67318,-0.49349 0.89453,-0.71484h-1.707c0.22396,0.28646 0.49479,0.52474 0.8125,0.71484zM312.56002,189.04302h1.6641v0.44141h-1.6641zM312.56002,189.76177h1.6641v0.44922h-1.6641zM315.72802,189.04302h1.7148v0.44141h-1.7148zM315.72802,189.76177h1.7148v0.44922h-1.7148zM312.98582,191.35557h4.8633v0.51172h-4.8633z"/><path d="M324.46,188.99h1.8164v3.0312h-1.4961v2.1445c0,0.24739 -0.05859,0.41927 -0.17578,0.51562c-0.09635,0.07813 -0.26693,0.11719 -0.51172,0.11719c-0.29427,0 -0.58854,-0.02733 -0.88281,-0.082l-0.10937,-0.73438c0.30208,0.04687 0.53645,0.0703 0.70312,0.0703c0.09896,0 0.15755,-0.02343 0.17578,-0.0703c0.0104,-0.03387 0.0156,-0.08725 0.0156,-0.16015v-1.8008h-1.4961v-3.0312h1.1797c0.09635,-0.28646 0.16536,-0.52214 0.20703,-0.70703h-1.832v2.1211c0,0.94013 -0.05859,1.71617 -0.17578,2.3281c-0.13802,0.7318 -0.41016,1.418 -0.81641,2.0586l-0.625,-0.61719c0.53385,-0.85153 0.80078,-1.98433 0.80078,-3.3984v-3.2109h5.4805v0.71875h-1.9883c-0.07813,0.25 -0.16797,0.48568 -0.26953,0.70703zM325.4834,189.615h-2.2148v0.58984h2.2148zM323.2686,190.8064v0.60547h2.2148v-0.60547zM320.5069,188.99c-0.25781,-0.38542 -0.63411,-0.78905 -1.1289,-1.2109l0.60156,-0.52734c0.44792,0.32291 0.82682,0.69921 1.1367,1.1289zM320.29205,190.9978c-0.43229,-0.54427 -0.81379,-0.95834 -1.1445,-1.2422l0.61719,-0.55859c0.42448,0.35417 0.80858,0.7513 1.1523,1.1914zM319.23735,194.2126c0.39844,-0.7604 0.72006,-1.68617 0.96485,-2.7773l0.71484,0.43359c-0.17708,0.763 -0.33854,1.36197 -0.48437,1.7969c-0.12761,0.38021 -0.28386,0.76301 -0.46875,1.1484zM321.69825,193.94698c0.42969,-0.45313 0.75781,-1.01043 0.98438,-1.6719l0.74609,0.22657c-0.24739,0.78907 -0.61066,1.45313 -1.0898,1.9922zM326.18655,194.42745c-0.27865,-0.64583 -0.62761,-1.2591 -1.0469,-1.8398l0.64844,-0.375c0.42708,0.53125 0.80078,1.10419 1.1211,1.7188z"/><path d="M331.09,190.36v3.0938c0,0.20052 0.08594,0.32161 0.25781,0.36328c0.17709,0.04427 0.58202,0.0664 1.2148,0.0664c0.61719,0 1.02472,-0.03123 1.2226,-0.0937c0.11198,-0.03647 0.1849,-0.13803 0.21875,-0.30469c0.04427,-0.23437 0.0677,-0.51172 0.0703,-0.83203l0.81641,0.23047c-0.04167,0.7682 -0.14714,1.25907 -0.31641,1.4726c-0.11197,0.14063 -0.28124,0.22396 -0.50781,0.25c-0.35677,0.03907 -0.96223,0.0586 -1.8164,0.0586c-0.66146,0 -1.09506,-0.01823 -1.3008,-0.0547c-0.30989,-0.05207 -0.50651,-0.18879 -0.58984,-0.41016c-0.04167,-0.11719 -0.0625,-0.27344 -0.0625,-0.46875v-3.0976l-0.74609,0.25781l-0.1836,-0.75781l0.92969,-0.32031v-2.1055h0.79297v1.832l0.83984,-0.28516v-2.0586h0.78516v1.7852l1.3086,-0.44921l0.41016,0.25v2.9258c0,0.20312 -0.04818,0.35416 -0.14453,0.45312c-0.10937,0.10937 -0.29297,0.16406 -0.55078,0.16406c-0.21094,0 -0.4349,-0.01823 -0.67188,-0.0547l-0.1289,-0.7461c0.15364,0.03907 0.30989,0.0586 0.46875,0.0586c0.11458,0 0.18489,-0.02343 0.21093,-0.0703c0.02607,-0.03907 0.0391,-0.10417 0.0391,-0.19531v-1.8476l-0.94141,0.32812v3.1602h-0.78516v-2.8906zM328.2189,189.0827v-1.8867h0.83984v1.8867h0.75781v0.79297h-0.75781v2.4844c0.27344,-0.09375 0.54427,-0.1914 0.8125,-0.29297l0.0742,0.75391c-0.84373,0.38541 -1.70963,0.70833 -2.5977,0.96875l-0.27344,-0.83203c0.40105,-0.10417 0.75261,-0.20313 1.0547,-0.29688c0.03647,-0.013 0.06643,-0.0221 0.0899,-0.0273v-2.7578h-0.99219v-0.79297z"/><path d="M341.9,194.23c-0.7708,0.08073 -1.56767,0.12109 -2.3906,0.12109c-1.21353,0 -2.0638,-0.07682 -2.5508,-0.23047c-0.35417,-0.11198 -0.63411,-0.27865 -0.83984,-0.5c-0.23698,-0.25781 -0.35547,-0.57161 -0.35547,-0.9414c0,-0.48698 0.16667,-0.92448 0.5,-1.3125c0.28385,-0.33073 0.74089,-0.65886 1.3711,-0.98438c-0.35937,-0.80727 -0.68489,-1.72653 -0.97656,-2.7578l0.87109,-0.22656c0.27083,0.9896 0.55729,1.8646 0.85938,2.625c1.0026,-0.46094 2.0664,-0.84507 3.1914,-1.1524l0.26172,0.79297c-1.2344,0.3125 -2.46097,0.7565 -3.6797,1.332c-0.37761,0.17969 -0.64584,0.32682 -0.80469,0.44141c-0.46615,0.34115 -0.69922,0.72005 -0.69922,1.1367c0,0.36198 0.21615,0.61458 0.64844,0.75781c0.35937,0.11719 1.00261,0.17578 1.9297,0.17578c0.8568,0 1.71487,-0.04948 2.5742,-0.14844z"/><path d="M346.93,188.61h1.1133c0.16146,-0.42448 0.31381,-0.89061 0.45704,-1.3984l0.80859,0.16797c-0.16667,0.5 -0.32552,0.91017 -0.47656,1.2305h1.5156v0.71094h-1.6133v0.9375h1.3672v0.67187h-1.3672v0.92969h1.3672v0.67188h-1.3672v0.99218h1.7422v0.72657h-3.6133v0.54687h-0.77735v-4.6562c-0.11979,0.19011 -0.24869,0.37891 -0.38672,0.56641l-0.45312,-0.69141c0.59635,-0.7526 1.05469,-1.70183 1.375,-2.8477l0.80859,0.17579c-0.15625,0.48177 -0.32291,0.90363 -0.5,1.2656zM346.8636,193.5241h1.1289v-0.99218h-1.1289zM346.8636,191.86h1.1289v-0.92969h-1.1289zM346.8636,190.2584h1.1289v-0.9375h-1.1289zM343.9652,188.6686v-1.4726h0.84766v1.4726h0.82421v0.76172h-0.82421v1.2891c0.22656,-0.07031 0.46614,-0.15104 0.71875,-0.24219l0.0547,0.7539c-0.18229,0.07031 -0.4401,0.16667 -0.77343,0.28907v2.5469c0,0.27344 -0.0638,0.46354 -0.19141,0.57031c-0.11198,0.09375 -0.30078,0.14063 -0.56641,0.14063c-0.29948,0 -0.58333,-0.02603 -0.85156,-0.0781l-0.16016,-0.83984c0.34896,0.04947 0.58724,0.0742 0.71485,0.0742c0.09115,0 0.14844,-0.01563 0.17187,-0.0469c0.02347,-0.03127 0.0352,-0.08856 0.0352,-0.17187v-1.9102c-0.21875,0.07031 -0.53125,0.16146 -0.9375,0.27344l-0.23047,-0.81641c0.52344,-0.11719 0.91277,-0.21354 1.168,-0.28906v-1.543h-1.0469v-0.76172z"/><path d="M355.1,193.66c0.44011,0.07292 0.92057,0.10938 1.4414,0.10938h2.0273c-0.13021,0.26041 -0.22656,0.53515 -0.28906,0.82422h-1.7461c-1.05727,0 -1.8919,-0.1263 -2.5039,-0.37891c-0.59375,-0.24479 -1.08335,-0.64843 -1.4688,-1.2109c-0.30729,0.7318 -0.68489,1.33857 -1.1328,1.8203l-0.60547,-0.72656c0.7344,-0.79427 1.19273,-1.8229 1.375,-3.0859l0.88672,0.13672c-0.08333,0.41146 -0.16406,0.75393 -0.24219,1.0274c0.31511,0.55989 0.77994,0.97396 1.3945,1.2422v-3.0234h-2.168v-0.51953h-0.84765v-1.8086h2.9922v-0.87109h0.8711v0.87109h3.0586v1.8086h-0.84766v0.51953h-2.1953v1.1953h2.6758v0.72656h-2.6758zM352.0766,188.8006v0.85156h5.2031v-0.85156z"/><path d="M365.61,187.37v2.4492h-5.8476v-2.4492zM360.6334,187.92859v0.40234h4.1055v-0.40234zM360.6334,188.84265v0.45703h4.1055v-0.45703zM362.5865,190.89735v3.2578c0.50781,-0.13802 0.97265,-0.375 1.3945,-0.71093c-0.39583,-0.46094 -0.69531,-0.95704 -0.89844,-1.4883h-0.33594v-0.625h3.0156l0.38281,0.33594c-0.28385,0.68747 -0.63932,1.2773 -1.0664,1.7695c0.38281,0.25 0.86198,0.46224 1.4375,0.63672l-0.48046,0.71485c-0.59375,-0.22396 -1.09375,-0.4974 -1.5,-0.82032c-0.44531,0.36719 -0.96745,0.65885 -1.5664,0.875l-0.38281,-0.57422v0.53516h-0.8086v-0.87109c-0.7396,0.14843 -1.65497,0.28124 -2.7461,0.39843l-0.21484,-0.71875c0.34375,-0.0182 0.63671,-0.03643 0.8789,-0.0547v-2.6602h-0.8164v-0.64844h7.6016v0.64844zM361.7779,190.89735h-1.2812v0.47266h1.2812zM361.7779,191.88954h-1.2812v0.48047h1.2812zM361.7779,192.88173h-1.2812v0.59765c0.22135,-0.02347 0.38802,-0.0417 0.5,-0.0547c0.29948,-0.03127 0.5599,-0.0612 0.78125,-0.0898zM364.4888,192.94813c0.23698,-0.27343 0.45052,-0.60416 0.64063,-0.99219h-1.3242c0.16145,0.35157 0.38932,0.6823 0.68359,0.99219z"/><path d="M371.22,190.01c0.17969,0.60937 0.52082,1.25781 1.0234,1.9453c0.61198,0.83853 1.36458,1.5026 2.2578,1.9922l-0.5586,0.80469c-0.94533,-0.55729 -1.7344,-1.29556 -2.3672,-2.2148c-0.34114,-0.5 -0.61458,-1.00913 -0.82031,-1.5274c-0.20573,0.69793 -0.52474,1.33207 -0.95703,1.9024c-0.63541,0.84373 -1.42058,1.46613 -2.3555,1.8672l-0.55078,-0.71484c0.9792,-0.40885 1.76957,-1.03905 2.3711,-1.8906c0.50521,-0.71873 0.80469,-1.4401 0.89844,-2.1641h-3.1172v-0.84765h3.1524v-1.8828h0.90234v1.8828h3.2188v0.84765z"/><path d="M378.24,188.25v-0.33594h-2.4414v-0.5586h5.7656v0.5586h-2.4922v0.33594h3.2344v1.4023h-0.84766v-0.89844h-2.3867v1.5195h-0.83203v-1.5195h-2.3438v0.89844h-0.83984v-1.4023zM381.0056,193.793c0.39843,0.15105 0.89583,0.27084 1.4922,0.35938l-0.45703,0.66406c-0.83593,-0.14323 -1.52213,-0.38932 -2.0586,-0.73828c-0.53385,-0.34896 -0.94922,-0.78256 -1.2461,-1.3008h-0.86328v1.2031c0.57552,-0.08073 1.10939,-0.16666 1.6016,-0.25781l0.0547,0.58203c-0.91667,0.21875 -1.96483,0.40886 -3.1445,0.57032l-0.23047,-0.6875c0.40885,-0.04427 0.6888,-0.0755 0.83985,-0.0937l0.0469,-0.008v-1.3086h-0.85547c-0.03647,0.45833 -0.09636,0.82423 -0.17968,1.0977c-0.09896,0.32812 -0.25782,0.63411 -0.47657,0.91796l-0.69531,-0.57421c0.25521,-0.33073 0.41406,-0.71747 0.47656,-1.1602c0.03387,-0.23959 0.0508,-0.53776 0.0508,-0.89453v-1.6562h6.7422v0.51953h-5.9023v1.1992h6.2383v0.55078h-0.88672l0.49609,0.32812c-0.29427,0.24479 -0.64193,0.47396 -1.043,0.6875zM380.39622,193.49222c0.375,-0.25521 0.67318,-0.49349 0.89453,-0.71484h-1.707c0.22396,0.28646 0.49479,0.52474 0.8125,0.71484zM376.24002,189.04302h1.6641v0.44141h-1.6641zM376.24002,189.76177h1.6641v0.44922h-1.6641zM379.40802,189.04302h1.7148v0.44141h-1.7148zM379.40802,189.76177h1.7148v0.44922h-1.7148zM376.66582,191.35557h4.8633v0.51172h-4.8633z"/><path d="M387.29,187.9h3.0625v0.65625h-1.7344v0.64844h1.625v0.63281h-1.625v1.1641h-3.1445v-1.1641h-1.2812v0.72657c0,1.17967 -0.0625,2.11197 -0.1875,2.7969c-0.09636,0.52083 -0.25261,0.9961 -0.46875,1.4258l-0.71094,-0.5625c0.19791,-0.42969 0.33333,-0.95442 0.40625,-1.5742c0.06507,-0.54427 0.0976,-1.23957 0.0976,-2.0859v-2.6641h3.0898v-0.70312h0.87109zM384.1924,188.55625v0.64844h1.2812v-0.64844zM386.3057,188.55625v0.64844h1.4805v-0.64844zM386.3057,189.83745v0.60547h1.4805v-0.60547zM387.21195,193.93905c-0.7526,0.39062 -1.70833,0.68749 -2.8672,0.89062l-0.40625,-0.71875c1.08853,-0.13021 1.9414,-0.32943 2.5586,-0.59766c-0.52865,-0.38281 -0.98048,-0.83724 -1.3555,-1.3633h-0.53906v-0.67968h4.5742l0.41016,0.34375c-0.38802,0.59635 -0.94142,1.15755 -1.6602,1.6836c0.61719,0.24739 1.45832,0.42968 2.5234,0.54687l-0.45703,0.73829c-1.0208,-0.13803 -1.94787,-0.41928 -2.7812,-0.84375zM386.05175,192.14995c0.31511,0.36979 0.69791,0.69532 1.1484,0.97657c0.50781,-0.32813 0.89975,-0.65365 1.1758,-0.97657z"/><path d="M247.88,199.1h2.1055c0.23177,-0.36979 0.40756,-0.66797 0.52735,-0.89454l0.87109,0.125c-0.07813,0.14063 -0.21615,0.36979 -0.41406,0.6875l-0.0508,0.082h2.7539v0.76953h-3.2734c-0.34115,0.46875 -0.66667,0.87501 -0.97657,1.2188c0.49219,-0.29427 0.94143,-0.44141 1.3477,-0.44141c0.63021,0 1.04297,0.31641 1.2383,0.94922c0.66667,-0.22135 1.34637,-0.4401 2.0391,-0.65625l0.33594,0.75781l-0.13672,0.0391l-0.38672,0.10157c-0.7292,0.19791 -1.31253,0.36718 -1.75,0.50781c0.03127,0.33854 0.0534,0.77604 0.0664,1.3125l-0.85547,0.0469c-0.00267,-0.30989 -0.00787,-0.64583 -0.0156,-1.0078v-0.0781c-1.19793,0.40885 -1.7969,0.82032 -1.7969,1.2344c0,0.21354 0.15365,0.35937 0.46094,0.4375c0.29687,0.07552 0.82814,0.11328 1.5938,0.11328c0.70573,0 1.44663,-0.04036 2.2227,-0.12109l0.0937,0.83203c-0.7526,0.05727 -1.53253,0.0859 -2.3398,0.0859c-0.9948,0 -1.70183,-0.07552 -2.1211,-0.22656c-0.51823,-0.1875 -0.77735,-0.52473 -0.77735,-1.0117c0,-0.41146 0.1836,-0.77473 0.55079,-1.0898c0.38021,-0.32552 1.04947,-0.66145 2.0078,-1.0078c-0.05207,-0.20052 -0.12108,-0.34114 -0.20703,-0.42187c-0.09635,-0.09115 -0.22396,-0.13672 -0.38282,-0.13672c-0.25781,0 -0.58202,0.09766 -0.97265,0.29297c-0.48177,0.23958 -0.99871,0.60025 -1.5508,1.082l-0.51953,-0.59375c0.80987,-0.7526 1.44397,-1.4922 1.9023,-2.2188h-1.5898z"/><path d="M258.07,202.91v2.0508c0.52083,-0.1849 0.875,-0.48047 1.0625,-0.88672c0.14583,-0.3125 0.22396,-0.91017 0.23437,-1.793h0.78516c-0.0078,1.02867 -0.11457,1.7448 -0.32031,2.1484c-0.27865,0.54167 -0.75391,0.95053 -1.4258,1.2266l-0.33594,-0.46094v0.004h-1.8672v0.40234h-0.76953v-2.6914zM256.2028,203.58187v0.95313h1.0977v-0.95313zM260.0426,198.71857v-0.71094h0.79297v0.71094h1.9024v0.6875h-1.9024v0.55469h1.6797v0.67187h-4.0547v-0.67187h1.582v-0.55469h-1.8555v-0.6875zM262.7067,201.16777v1.6406h-0.78516v-0.97656h-2.8281v1.0391h-0.76172v-1.7031zM255.5622,198.28887h2.3594v0.65625h-2.3594zM255.19501,199.43337h3.0469v0.70313h-3.0469zM255.5622,200.63257h2.3594v0.64844h-2.3594zM255.5622,201.77707h2.3594v0.63282h-2.3594zM260.6247,202.26535h0.7539v2.3164c0,0.07292 0.01823,0.11719 0.0547,0.13281c0.05987,0.02607 0.12757,0.0391 0.20312,0.0391c0.17188,0 0.28386,-0.02473 0.33594,-0.0742c0.07031,-0.06247 0.11979,-0.41143 0.14844,-1.0469l0.70703,0.2461c-0.02347,0.69793 -0.09769,1.14063 -0.22266,1.3281c-0.07812,0.11719 -0.20312,0.19661 -0.375,0.23828c-0.14843,0.03387 -0.34635,0.0508 -0.59375,0.0508c-0.42969,0 -0.70703,-0.04427 -0.83203,-0.13281c-0.11979,-0.08594 -0.17968,-0.24479 -0.17968,-0.47656z"/><path d="M264.2,198.56h3.0547l0.54687,0.46485c-0.25781,0.90367 -0.47135,1.58337 -0.64062,2.0391c0.64844,0.10937 1.24611,0.28646 1.793,0.53125c0.03127,-0.33594 0.0469,-0.66537 0.0469,-0.98828c0,-0.17187 -0.0052,-0.3737 -0.0156,-0.60547l0.85547,0.0898c-0.00267,0.7448 -0.03263,1.3711 -0.0899,1.8789c0.32292,0.16667 0.66145,0.36328 1.0156,0.58984l-0.33594,0.83203c-0.25,-0.18229 -0.52083,-0.36327 -0.8125,-0.54296c-0.20052,0.77347 -0.52083,1.37503 -0.96094,1.8047c-0.3125,0.30729 -0.73957,0.57813 -1.2812,0.8125l-0.48828,-0.65625c0.63802,-0.27343 1.10939,-0.6224 1.4141,-1.0469c0.23959,-0.33854 0.41667,-0.78124 0.53125,-1.3281c-0.63802,-0.32031 -1.28385,-0.53646 -1.9375,-0.64843c-0.42447,1.16147 -0.85024,2.04167 -1.2773,2.6406c-0.32552,0.45313 -0.69142,0.67969 -1.0977,0.67969c-0.39323,0 -0.69791,-0.1875 -0.91406,-0.5625c-0.16406,-0.28646 -0.24609,-0.62759 -0.24609,-1.0234c0,-0.48958 0.1263,-0.92708 0.3789,-1.3125c0.29948,-0.45833 0.76041,-0.79297 1.3828,-1.0039c0.35937,-0.11979 0.76171,-0.18489 1.207,-0.19531c0.23958,-0.625 0.42317,-1.1849 0.55078,-1.6797h-2.6797zM266.0477,201.7553c-0.33594,0.0182 -0.6237,0.082 -0.86328,0.1914c-0.375,0.16667 -0.65104,0.42188 -0.82813,0.76563c-0.125,0.24219 -0.1875,0.5 -0.1875,0.77343c0,0.21875 0.04297,0.40886 0.12891,0.57032c0.06507,0.1276 0.14319,0.1914 0.23437,0.1914c0.36459,0 0.86979,-0.83073 1.5156,-2.4922z"/><path d="M275.23,200.23h2.8203v0.80078h-2.8203v3.2656h3.5664v0.81641h-7.6016v-0.81641h3.0898v-6.2969h0.94531z"/><path d="M284.03,198.31h0.70312l0.16797,1.7031h1.5938v0.79297h-1.5273l0.0156,0.71094c0.00267,0.12761 0.004,0.21615 0.004,0.26563c0,1.07553 -0.15885,1.8737 -0.47656,2.3945c-0.25,0.41406 -0.61327,0.74999 -1.0898,1.0078c-0.13021,0.07031 -0.28906,0.14714 -0.47656,0.23047l-0.53125,-0.67188c0.64583,-0.29167 1.09243,-0.64713 1.3398,-1.0664c0.24219,-0.40885 0.36328,-1.04819 0.36328,-1.918c0,-0.02347 -0.00133,-0.11722 -0.004,-0.28125l-0.0195,-0.67188h-2.5664v-0.79297h2.5352zM279.9636,205.1655c-0.1276,-0.9818 -0.1914,-2.05603 -0.1914,-3.2227c0,-1.237 0.07292,-2.44793 0.21875,-3.6328l0.84765,0.0781c-0.13541,1.237 -0.20312,2.4154 -0.20312,3.5352c0,1.138 0.0625,2.17837 0.1875,3.1211zM285.5027,199.6616c-0.11719,-0.41667 -0.30469,-0.85417 -0.5625,-1.3125l0.55468,-0.15234c0.2474,0.42448 0.44402,0.85678 0.58985,1.2969zM286.40504,199.3491c-0.14583,-0.49219 -0.34635,-0.93489 -0.60156,-1.3281l0.57812,-0.14453c0.25261,0.38802 0.45573,0.82292 0.60938,1.3047z"/><path d="M290.64,198.18h0.86329v0.98438h2.457v0.74219h-2.457v0.92968h2.3203v0.73438h-2.3203v1.207c0.92707,0.3125 1.84113,0.78257 2.7422,1.4102l-0.46093,0.74218c-0.68227,-0.51041 -1.44267,-0.96095 -2.2812,-1.3516c-0.0208,0.44531 -0.10674,0.79038 -0.25782,1.0352c-0.26302,0.42448 -0.78125,0.63672 -1.5547,0.63672c-0.59636,0 -1.07553,-0.11198 -1.4375,-0.33594c-0.40365,-0.25 -0.60547,-0.58853 -0.60547,-1.0156c0,-0.51041 0.27213,-0.88801 0.8164,-1.1328c0.36459,-0.16146 0.83855,-0.24219 1.4219,-0.24219c0.22917,0 0.48047,0.01823 0.7539,0.0547v-1.0078h-2.7695v-0.73438h2.7695v-0.92968h-2.9375v-0.74219h2.9375zM290.64,203.305c-0.30989,-0.06507 -0.60677,-0.0976 -0.89062,-0.0976c-0.34635,0 -0.6276,0.05078 -0.84375,0.15234c-0.25781,0.12239 -0.38672,0.29687 -0.38672,0.52344c0,0.1901 0.10026,0.34375 0.30078,0.46094c0.20313,0.11979 0.47396,0.17968 0.8125,0.17968c0.40104,0 0.67708,-0.10677 0.82813,-0.32031c0.11979,-0.16667 0.17968,-0.41536 0.17968,-0.74609z"/><path d="M298.93,198.16h0.87891v1.0781h2.3047v0.75391h-2.3047v1.6719c0.09115,0.32031 0.13672,0.60547 0.13672,0.85547c0,0.92707 -0.20443,1.60807 -0.61328,2.043c-0.44531,0.47656 -1.11588,0.80599 -2.0117,0.98828l-0.44531,-0.66406c0.69533,-0.13281 1.21097,-0.32031 1.5469,-0.5625c0.31511,-0.22917 0.52735,-0.54037 0.63672,-0.9336c-0.27865,0.30469 -0.61068,0.45704 -0.99609,0.45704c-0.43229,0 -0.78256,-0.1224 -1.0508,-0.36719c-0.3151,-0.28907 -0.47265,-0.70833 -0.47265,-1.2578c0,-0.28907 0.06901,-0.56771 0.20703,-0.83594c0.09115,-0.17187 0.20313,-0.3151 0.33594,-0.42969c0.30729,-0.26041 0.67579,-0.39062 1.1055,-0.39062c0.27343,0 0.52083,0.0651 0.74218,0.19531v-0.76953h-3.8555v-0.75391h3.8555zM298.9612,202.2147v-0.14453c0,-0.16667 -0.03906,-0.3138 -0.11718,-0.4414c-0.14583,-0.23959 -0.35677,-0.35938 -0.63282,-0.35938c-0.14062,0 -0.27213,0.03906 -0.39453,0.11719c-0.28646,0.17969 -0.42969,0.45573 -0.42969,0.82812c0,0.23438 0.05208,0.4323 0.15625,0.59375c0.14583,0.22396 0.36068,0.33594 0.64454,0.33594c0.25781,0 0.46223,-0.11589 0.61328,-0.34766c0.10677,-0.16406 0.16015,-0.35807 0.16015,-0.58203z"/></g></g></g></svg>