<svg version="1.1" xmlns="http://www.w3.org/2000/svg" xmlns:xlink="http://www.w3.org/1999/xlink" width="32" height="30" viewBox="0,0,32,30"><g transform="translate(-224,-165)"><g data-paper-data="{&quot;isPaintingLayer&quot;:true}" stroke="none" stroke-linecap="butt" stroke-linejoin="miter" stroke-miterlimit="10" stroke-dasharray="" stroke-dashoffset="0" style="mix-blend-mode: normal"><path d="M224,195v-30h32v30z" fill-opacity="0" fill="#000000" fill-rule="nonzero" stroke-width="0.40825"/><path d="M232,166h16c3.324,0 6,2.676 6,6v16c0,3.324 -2.676,6 -6,6h-16c-3.324,0 -6,-2.676 -6,-6v-16c0,-3.324 2.676,-6 6,-6z" fill="#a50c6b" fill-rule="evenodd" stroke-width="1"/><path d="M241.38143,172.54898l-0.19726,0.20117c-0.559,0.57171 -1.09961,1.16745 -1.6248,1.78722h-0.002l-0.002,0.00195c-0.51616,0.59311 -0.97514,1.26604 -1.377,2.01953h-0.002c-0.24459,0.44901 -0.43549,0.99306 -0.625,1.54302c0.3711,-0.10356 0.75661,-0.16975 1.1621,-0.18945v-0.02344h0.25781c0.03638,0 0.04125,0.00006 0.01367,0c-0.00953,-0.00015 -0.01522,0 0.01172,0h0.25976v0.03125c0.8287,0.04125 1.59226,0.23312 2.2559,0.62696c0.7529,0.42091 1.35185,1.00713 1.7812,1.74412c0.44936,0.74201 0.67188,1.58813 0.67188,2.51953v1.63092c0,0.93141 -0.22251,1.77558 -0.67188,2.51763l-0.002,0.002c-0.4295,0.73681 -1.02508,1.33108 -1.7773,1.76762h-0.002c-0.6641,0.3796 -1.42773,0.5639 -2.2559,0.60353v0.03125h-0.25976c-0.03479,0 -0.03914,-0.00006 -0.01367,0c0.00988,0.00015 0.01604,0 -0.01172,0h-0.25781v-0.03125c-0.8301,-0.03946 -1.60072,-0.2229 -2.2793,-0.60157l-0.0078,-0.004c-0.7353,-0.43721 -1.32955,-1.02999 -1.7754,-1.76562l-0.002,-0.002v-0.002c-0.43171,-0.74191 -0.64453,-1.58511 -0.64453,-2.51563v-1.75202c0,-1.29612 0.13622,-2.51273 0.41406,-3.65235v-0.0039h0.002c0.29375,-1.13401 0.68409,-2.18271 1.1699,-3.14264c0.4837,-0.97141 1.01855,-1.84173 1.6094,-2.60743h0.002c0.6047,-0.77761 1.22958,-1.46003 1.873,-2.04693l0.1543,-0.14258zM238.98491,180.26987c-0.6855,0.00286 -1.17832,0.20744 -1.5547,0.63087c-0.37607,0.42311 -0.58008,1.05022 -0.58008,1.91022v1.63092c0,0.84231 0.20118,1.46877 0.58008,1.91022c0.3766,0.42291 0.86905,0.62837 1.5547,0.63087c0.70322,-0.00297 1.19296,-0.20759 1.5508,-0.62696v-0.002h0.002c0.37981,-0.44151 0.58203,-1.06875 0.58203,-1.91212v-1.63092c0,-0.86001 -0.204,-1.48715 -0.58008,-1.91022l-0.004,-0.004c-0.3579,-0.41937 -0.84759,-0.62396 -1.5508,-0.62696z" fill="#ffffff" fill-rule="nonzero" stroke-width="2.582"/><path d="M249.2033,175.09613v2.06253h-6.4023v-2.06253z" fill="#ffffff" fill-rule="nonzero" stroke-width="2.582"/></g></g></svg>