<svg version="1.1" xmlns="http://www.w3.org/2000/svg" xmlns:xlink="http://www.w3.org/1999/xlink" width="44.03519" height="42.98826" viewBox="0,0,44.03519,42.98826"><g transform="translate(105.84562,-390.9091)"><g data-paper-data="{&quot;isPaintingLayer&quot;:true}" fill="#ff0000" fill-rule="evenodd" stroke="none" stroke-width="0" stroke-linecap="round" stroke-linejoin="round" stroke-miterlimit="10" stroke-dasharray="" stroke-dashoffset="0" style="mix-blend-mode: normal"><path d="M-90.82525,393.76896l-0.23299,1.24995l0.74297,0.96996l1.25395,-0.88996l0.29799,-0.91996l1.18596,0.56997l0.41298,-0.22999l1.31895,1.05996l0.83496,-1.06996l1.10896,0.55998l0.123,1.18995l2.04992,0.32999l1.41094,0.78997l0.54098,1.30995l1.61494,0.1l-0.23499,1.75993l-0.81997,0.54998l-0.12299,1.16995l0.29898,0.63998l-1.93692,0.93996l-1.12796,2.02992l0.43898,1.36995l-0.27198,1.60993l-0.97997,-0.72997l-0.99296,0.01l0.32299,1.15995l-0.36598,1.48994l-1.80293,-0.01l-1.77693,-1.23995l-1.14995,-0.47998l-2.75989,0.25999l-1.59393,-0.60997l-1.62493,-0.12l-1.86093,-0.36998l-1.42794,-0.99996l-0.74197,-0.81996l-1.01296,-0.36999l-0.40198,2.32991l-1.58294,-0.1l-0.67997,-0.46998l-1.61594,0.03l-1.85792,-2.75989l0.89496,-0.60997l1.12496,0.68997l0.51798,-0.30998l-0.70398,-1.27995l0.31399,-0.94996l2.5459,0.78997l-0.57998,-1.07995l1.11695,0.09999l1.06796,-0.90996l0.36799,0.76997l0.93796,0.48998l0.182,0.86996l0.85297,-0.09l0.20899,-1.76993l-0.54998,-0.46998l0.88497,-1.14995l-0.69598,-0.66998l-0.34999,-0.99996l0.99496,-0.93996l-0.69697,-1.29995l0.65397,-0.28999l-0.135,-1.07996l0.99396,-1.43994l1.15795,-0.34998l-0.029,-0.98996l-0.83596,-0.40999l0.61798,-0.71997l1.17296,-0.05l1.77693,1.63993l0.13799,0.73997l1.07296,0.47998"/><path d="M-91.71522,433.56737l-0.76897,0.32999l-3.49086,-0.28999l-0.73597,-0.49998l0.11499,-1.06996l2.24491,-0.93997l1.04396,-0.03l1.99292,0.57998l0.28298,0.85996l-0.68397,1.05996"/><path d="M-68.99613,412.8682l-0.33899,0.82997l-1.30595,0.95996l-1.24695,-0.28999l-1.01596,-1.87992l-0.016,-0.65997l1.32295,-0.71997l1.19995,0.74997l0.80397,-0.32998l0.59698,1.33995"/><path d="M-71.77602,402.46862l0.022,0.63997l-0.90097,0.36999l-1.03095,-0.82997l-2.03292,-0.17999l0.61898,-1.14995l-0.44499,-0.89997l0.96497,-0.37999l1.79192,0.87997l-0.26399,0.64997l1.27595,0.89997"/><path d="M-62.75638,404.46853l-1.23295,0.02l-0.42299,-1.29994l0.45899,-1.17996l0.62797,-0.48998l0.60497,0.39999l0.90996,1.75993l-0.94596,0.78997"/><path d="M-98.89493,399.06873l1.26095,0.98996l-0.19199,0.89996l-1.78293,-1.46995l0.71397,-0.41998"/><path d="M-78.11578,413.16819l1.16596,-0.88997l0.37598,0.59998l-1.26895,1.26995l-0.27299,-0.97996"/><path d="M-99.50492,397.16883l-0.65397,1.64994l-0.70497,-0.59997l0.29599,-0.79997l1.06295,-0.24999"/><path d="M-79.9357,415.0681l1.37095,-0.42998l0.13899,1.03996l-1.02496,0.07999l-0.48498,-0.68997"/></g></g></svg>