<svg version="1.1" xmlns="http://www.w3.org/2000/svg" xmlns:xlink="http://www.w3.org/1999/xlink" width="208" height="32" viewBox="0,0,208,32"><g transform="translate(-240,-164)"><g data-paper-data="{&quot;isPaintingLayer&quot;:true}" fill-rule="nonzero" stroke="none" stroke-linecap="butt" stroke-linejoin="miter" stroke-miterlimit="10" stroke-dasharray="" stroke-dashoffset="0" style="mix-blend-mode: normal"><path d="M240,196v-32h208v32z" fill="none" stroke-width="0"/><path d="M255.73,175.56v2.5h3.1934v1.7578h-3.1934v2.8125h3.8184v1.8555h-3.8184v5.0195h-2.0606v-5.0195h-3.7891v-1.8555h3.7891v-2.8125h-3.0957v-1.7578h3.0957v-2.5h-3.291v0.85938h-1.123v3.457h-4.7266c-0.21485,0.7292 -0.44597,1.39653 -0.69336,2.002h5.5664v7.3633h-1.9043v-0.85937h-3.1738v1.123h-1.8848v-4.9707c-0.37109,0.54037 -0.80729,1.07097 -1.3086,1.5918l-1.0156,-1.8848c1.1068,-1.1198 1.9499,-2.57487 2.5293,-4.3652h-1.4258v-1.6602h1.8262c0.07162,-0.41015 0.13673,-0.91145 0.19532,-1.5039l0.0293,-0.29296h-2.832v-1.7188h2.9395c0.02607,-0.6966 0.0391,-1.27603 0.0391,-1.7383h-2.0606v-1.6992h7.9004v3.4375h0.91797v-0.97657h1.7676c-0.39713,-1.08727 -0.83983,-1.99547 -1.3281,-2.7246l1.8555,-0.5957c0.45573,0.78127 0.92447,1.88803 1.4062,3.3203h1.5625l0.0586,-0.15625c0.33854,-0.8138 0.70964,-1.89453 1.1133,-3.2422l2.0801,0.57617c-0.3125,0.87893 -0.70637,1.8197 -1.1816,2.8223h1.7969v1.8359zM244.324,183.5776v3.0664h3.1738v-3.0664zM247.3514,172.9626h-2.0703c-0.013,0.74867 -0.02603,1.3281 -0.0391,1.7383h2.1094zM247.3514,176.4196h-2.2168c-0.0456,0.59895 -0.11722,1.19792 -0.21485,1.7969h2.4316z" fill="#ffffff" stroke-width="1"/><path d="M277.96,171.36v1.7188h-6.4746v1.4648h5.5566v1.5625h-5.5566v1.4355h5.5566v1.5625h-5.5566v1.5332h7.6172c-0.11719,3.82813 -0.32552,6.26303 -0.625,7.3047c-0.16927,0.58594 -0.46875,0.99934 -0.89844,1.2402c-0.36458,0.20182 -0.96355,0.30273 -1.7969,0.30273c-1.26953,0 -2.29493,-0.04883 -3.0762,-0.14648l-0.40039,-1.9141c1.3216,0.14323 2.30467,0.21485 2.9492,0.21485c0.52734,0 0.85937,-0.0944 0.99609,-0.2832c0.25391,-0.3711 0.4655,-2.0508 0.63477,-5.0391h-14.424v-10.957zM264.581,173.0788v1.4648h4.8633v-1.4648zM264.581,176.1062v1.4355h4.8633v-1.4355zM264.581,179.1042v1.5332h4.8633v-1.5332zM260.3622,187.737c0.85287,-1.32813 1.48113,-2.86133 1.8848,-4.5996l1.9727,0.60546c-0.46875,2.168 -1.14909,3.9258 -2.041,5.2734zM265.9188,188.47919c-0.0456,-1.6146 -0.20511,-3.1478 -0.47852,-4.5996l1.9824,-0.36133c0.38412,1.3932 0.63803,2.89387 0.76172,4.502zM270.0399,187.67841c-0.30599,-1.62107 -0.69985,-2.98827 -1.1816,-4.1016l1.7871,-0.53711c0.57292,1.1784 1.03842,2.47723 1.3965,3.8965zM273.8583,186.58461c-0.44271,-1.30207 -0.97981,-2.41533 -1.6113,-3.3398l1.5918,-0.66407c0.71613,0.90493 1.32487,1.94987 1.8262,3.1348z" fill="#ffffff" stroke-width="1"/><path d="M296.76,170.98v9.4629h-11.621v-9.4629zM287.2385,172.523v1.2207h7.4023v-1.2207zM287.2385,175.1207v1.2207h7.4023v-1.2207zM287.2385,177.7183v1.2598h7.4023v-1.2598zM283.3029,181.7417h16.191v1.6992h-8.0762v6.0644h-2.2168v-6.0644h-8.0371v-10.957h2.1387zM280.8029,187.6401c1.54947,-0.71613 3.0306,-1.9173 4.4434,-3.6035l1.7969,1.0449c-1.3932,1.76433 -2.93943,3.15107 -4.6387,4.1602zM297.6389,188.8999c-0.99607,-1.22393 -2.49347,-2.50973 -4.4922,-3.8574l1.6797,-1.1816c1.569,0.90493 3.1087,2.09307 4.6191,3.5644z" fill="#ffffff" stroke-width="1"/><path d="M305.84,184.3c-1.79687,0.944 -3.36263,1.66667 -4.6973,2.168l-0.82031,-2.1484c2.08987,-0.70313 3.92907,-1.4323 5.5176,-2.1875v-4.375h-4.834v-2.0606h4.834v-5.1953h2.1777v19.004h-2.1777zM312.7834,176.6926c1.51693,-0.79427 2.9883,-1.80337 4.4141,-3.0273l1.6211,1.6992c-1.92707,1.3672 -3.9388,2.53257 -6.0352,3.4961v7.3242c0,0.31901 0.10417,0.51433 0.3125,0.58594c0.22135,0.07161 0.73242,0.10742 1.5332,0.10742c1.05467,0 1.71547,-0.06185 1.9824,-0.18555c0.1888,-0.08463 0.31901,-0.3483 0.39062,-0.79101c0.09766,-0.61849 0.16928,-1.61783 0.21485,-2.998l2.1875,0.67383c-0.06513,1.6862 -0.1693,2.89713 -0.3125,3.6328c-0.16276,0.82033 -0.58919,1.35093 -1.2793,1.5918c-0.65755,0.22135 -1.73502,0.33203 -3.2324,0.33203c-1.7578,0 -2.86457,-0.14648 -3.3203,-0.43945c-0.4362,-0.28646 -0.6543,-0.83659 -0.6543,-1.6504v-16.543h2.1777z" fill="#ffffff" stroke-width="1"/><path d="M326.98,172.75h4.1797v1.8848h-1.377c-0.2474,0.99607 -0.57943,2.041 -0.9961,3.1348h2.6074v1.8848h-10.898v-1.8848h2.3926c-0.26041,-1.25 -0.53385,-2.29493 -0.82031,-3.1348h-1.2695v-1.8848h4.1406v-2.2559h2.041zM324.0406,174.6348c0.33203,0.97007 0.58919,2.015 0.77148,3.1348h1.9922l0.09766,-0.27344c0.27995,-0.7422 0.54036,-1.5853 0.78125,-2.5293l0.0879,-0.33203zM330.0953,181.295v7.998h-2.002v-0.95703h-4.2578v1.1621h-2.0606v-8.2031zM323.8355,183.0919v3.3887h4.2578v-3.3887zM336.8825,178.1603c0.77473,0.73567 1.38997,1.61133 1.8457,2.627c0.44922,1.0156 0.67383,2.04423 0.67383,3.0859c0,0.96353 -0.17904,1.67317 -0.53711,2.1289c-0.37109,0.47526 -0.98306,0.71289 -1.8359,0.71289c-0.7292,0 -1.43557,-0.05208 -2.1191,-0.15625l-0.47852,-2.0801c0.78773,0.14323 1.43877,0.21485 1.9531,0.21485c0.39063,0 0.63477,-0.09115 0.73242,-0.27344c0.06513,-0.13021 0.0977,-0.39062 0.0977,-0.78125c0,-1.60807 -0.48177,-2.9948 -1.4453,-4.1602c-0.25391,-0.30599 -0.57292,-0.63476 -0.95703,-0.98633l0.11719,-0.27343c0.67707,-1.52993 1.2044,-3.125 1.582,-4.7852h-2.5v16.064h-2.0215v-18.086h5.8789l1.084,0.99609c-0.65755,2.2396 -1.34765,4.15693 -2.0703,5.752z" fill="#ffffff" stroke-width="1"/></g></g></svg>