<svg version="1.1" xmlns="http://www.w3.org/2000/svg" xmlns:xlink="http://www.w3.org/1999/xlink" width="208" height="32" viewBox="0,0,208,32"><g transform="translate(-240,-164)"><g data-paper-data="{&quot;isPaintingLayer&quot;:true}" fill-rule="nonzero" stroke="none" stroke-linecap="butt" stroke-linejoin="miter" stroke-miterlimit="10" stroke-dasharray="" stroke-dashoffset="0" style="mix-blend-mode: normal"><path d="M240,196v-32h208v32z" fill="none" stroke-width="0"/><path d="M255.61,179.99c-0.64453,1.89453 -1.69923,3.55793 -3.1641,4.9902c1.9336,0.78773 4.04623,1.73173 6.3379,2.832l-1.4453,1.7578c-2.43487,-1.3672 -4.58657,-2.47723 -6.4551,-3.3301c-2.49347,1.73827 -5.52733,2.8418 -9.1016,3.3106l-0.99609,-1.7969c3.07293,-0.30599 5.72267,-1.12629 7.9492,-2.4609c-1.4518,-0.61849 -3.00453,-1.20443 -4.6582,-1.7578l-0.75196,-0.24414c0.69013,-0.93747 1.4193,-2.03773 2.1875,-3.3008h-5.0098v-1.8359h6.0644c0.44271,-0.79427 0.97331,-1.85547 1.5918,-3.1836l2.1191,0.50782c-0.4362,0.97007 -0.86913,1.862 -1.2988,2.6758h10.527v1.8359zM253.3444,179.99h-5.3613c-0.65755,1.12633 -1.21419,2.02153 -1.6699,2.6856c1.11327,0.37761 2.45117,0.86264 4.0137,1.4551c1.34767,-1.18487 2.35353,-2.56507 3.0176,-4.1406zM251.0202,172.6365h7.7442v4.6387h-2.1973v-2.8418h-13.164v2.8418h-2.1777v-4.6387h7.6172v-2.1387h2.1777z" fill="#ffffff" stroke-width="1"/><path d="M265.48,172.58v-2.0801h2.1777v2.0801h4.541v-2.0801h2.1777v2.0801h4.6973v1.8164h-4.6973v1.9043h-2.1777v-1.9043h-4.541v1.9043h-2.1777v-1.9043h-4.541v-1.8164zM268.273,183.264l-0.13671,0.2832c-0.64453,1.28907 -1.31187,2.4772 -2.002,3.5644l1.2988,-0.0586c2.12893,-0.09115 4.27413,-0.22787 6.4356,-0.41016l0.77148,-0.0684c-0.56641,-0.61849 -1.17187,-1.22069 -1.8164,-1.8066l1.8945,-0.85937c1.556,1.31513 3.05013,2.85483 4.4824,4.6191l-2.0606,1.0742c-0.32552,-0.42969 -0.72915,-0.94725 -1.2109,-1.5527c-3.3138,0.52083 -7.92313,0.91147 -13.828,1.1719l-0.70313,-1.9336c0.52083,-0.013 0.9961,-0.02603 1.4258,-0.0391l0.8496,-0.0293c0.82033,-1.237 1.53647,-2.55537 2.1484,-3.9551h-5.3223v-1.8359h19.004v1.8359zM262.7164,177.4437h14.541v1.7969h-14.541z" fill="#ffffff" stroke-width="1"/><path d="M289.3,175.71v0.88867h2.6562v1.2012c0.931,-2.2982 1.55927,-4.7624 1.8848,-7.3926l1.7773,0.26367c-0.24088,1.37367 -0.472,2.49347 -0.69336,3.3594h1.0156c0.30599,-1.15233 0.54362,-2.3242 0.71289,-3.5156l1.709,0.3125c-0.24088,1.14587 -0.53059,2.21357 -0.86914,3.2031h2.0312v1.7578h-1.9043v2.4902h1.5625v1.6992h-1.5625v2.4316h1.5625v1.7285h-1.5625v2.6172h2.0996v1.7969h-4.8145v0.9375h-1.6602v-10.82c-0.14323,0.34505 -0.34506,0.78125 -0.60547,1.3086l-0.6836,-1.9629v2.3438h-2.6562v0.9375h2.793v1.416h-2.793c-0.013,0.44922 -0.02603,0.778 -0.0391,0.98633h3.3984v1.416h-3.584c-0.013,0.07161 -0.0358,0.17578 -0.0684,0.3125c1.2044,0.7096 2.37627,1.53967 3.5156,2.4902l-1.1621,1.4551c-0.8854,-0.8594 -1.83593,-1.6667 -2.8516,-2.4219l-0.10742,-0.0879c-0.7552,1.25653 -1.8392,2.2266 -3.252,2.9102l-1.2402,-1.5625c1.21747,-0.42969 2.11267,-1.04819 2.6856,-1.8555c0.22786,-0.3125 0.41992,-0.7259 0.57617,-1.2402h-2.9297v-1.416h3.2324c0.0456,-0.44922 0.07163,-0.778 0.0781,-0.98633h-2.7832v-1.416h2.793v-0.9375h-2.6562v-3.7598h2.6367v-0.88867h-1.6602v-2.1777h-0.97657l-1.5039,1.416c-0.625,-0.98307 -1.4974,-2.028 -2.6172,-3.1348l1.4844,-1.2598c0.80727,0.6706 1.59827,1.52347 2.373,2.5586v-1.0644h1.2402v-1.6797h1.6992v1.6797h1.7188v-1.6797h1.6797v1.6797h1.6211v1.4844h-1.6211v2.1777zM287.6398,177.8389h-1.2598v1.2988h1.2598zM289.2023,177.8389v1.2988h1.3184v-1.2988zM287.5812,173.5323v0.97656h1.7188v-0.97656zM294.9054,175.7882v2.4902h1.1719v-2.4902zM294.9054,179.9776v2.4316h1.1719v-2.4316zM294.9054,184.1378v2.6172h1.1719v-2.6172zM282.6594,179.7726c-0.95707,-1.32813 -1.80993,-2.36653 -2.5586,-3.1152l1.5234,-1.2793c0.97653,0.8724 1.85543,1.87827 2.6367,3.0176zM280.2961,188.1906c0.918,-1.9596 1.69927,-4.35217 2.3438,-7.1777l1.7578,0.87891c-0.5013,2.59767 -1.24023,5.15953 -2.2168,7.6856z" fill="#ffffff" stroke-width="1"/></g></g></svg>