<svg version="1.1" xmlns="http://www.w3.org/2000/svg" xmlns:xlink="http://www.w3.org/1999/xlink" width="140" height="140" viewBox="0,0,140,140"><defs><radialGradient cx="239.9984" cy="179.9992" r="69.9992" gradientUnits="userSpaceOnUse" id="color-1"><stop offset="0" stop-color="#fff1aa"/><stop offset="0.4" stop-color="#fff1aa"/><stop offset="0.55" stop-color="#fff1aa" stop-opacity="0.56078"/><stop offset="0.7" stop-color="#fff1aa" stop-opacity="0.25098"/><stop offset="0.85" stop-color="#fff1aa" stop-opacity="0.05882"/><stop offset="1" stop-color="#fff1aa" stop-opacity="0"/></radialGradient></defs><g transform="translate(-170,-110)"><g data-paper-data="{&quot;isPaintingLayer&quot;:true}" stroke="none" stroke-width="1" stroke-linecap="butt" stroke-linejoin="miter" stroke-miterlimit="10" stroke-dasharray="" stroke-dashoffset="0" style="mix-blend-mode: normal"><path d="M170,250v-140h140v140z" fill="none" fill-rule="nonzero"/><path d="M170,180c0,-38.65993 31.34007,-70 70,-70c38.65993,0 70,31.34007 70,70c0,38.65993 -31.34007,70 -70,70c-38.65993,0 -70,-31.34007 -70,-70z" fill="url(#color-1)" fill-rule="evenodd" opacity="0.12"/><g fill-rule="nonzero"><path d="M209.6885,133.301c2.23453,0.01536 4.37316,0.90996 5.9531,2.4902l24.359,24.359l24.359,-24.359c3.31955,-3.31847 8.70045,-3.31847 12.02,0l7.8301,7.8301c3.31847,3.31955 3.31847,8.70045 0,12.02l-24.359,24.359l24.359,24.359c3.31847,3.31955 3.31847,8.70045 0,12.02l-7.8301,7.8301c-3.31955,3.31847 -8.70045,3.31847 -12.02,0l-24.359,-24.359l-24.359,24.359c-3.31955,3.31847 -8.70045,3.31847 -12.02,0l-7.8301,-7.8301c-3.31847,-3.31955 -3.31847,-8.70045 0,-12.02l24.359,-24.359l-24.359,-24.359c-3.31847,-3.31955 -3.31847,-8.70045 0,-12.02l7.8301,-7.8301c1.6077,-1.608 3.7926,-2.50488 6.0664,-2.4902z" fill="#fff1aa"/><path d="M240,172.17l30.369,-30.369l7.8301,7.8301l-30.369,30.369l30.369,30.369l-7.8301,7.8301l-30.369,-30.369l-30.369,30.369l-7.8301,-7.8301l30.369,-30.369l-30.369,-30.369l7.8301,-7.8301z" fill="#e21d1d"/></g></g></g></svg>