<svg version="1.1" xmlns="http://www.w3.org/2000/svg" xmlns:xlink="http://www.w3.org/1999/xlink" width="208" height="32" viewBox="0,0,208,32"><g transform="translate(-240,-164)"><g data-paper-data="{&quot;isPaintingLayer&quot;:true}" fill-rule="nonzero" stroke="none" stroke-linecap="butt" stroke-linejoin="miter" stroke-miterlimit="10" stroke-dasharray="" stroke-dashoffset="0" style="mix-blend-mode: normal"><path d="M240,196v-32h208v32z" fill="none" stroke-width="0"/><path d="M252.94,180.55v0.14649c0.02607,1.52993 0.45577,2.85807 1.2891,3.9844c0.44271,0.59245 1.12954,1.12632 2.0605,1.6016c1.02213,0.52083 2.19727,0.92123 3.5254,1.2012l-1.2207,2.0215c-3.40493,-1.0026 -5.57617,-2.67253 -6.5137,-5.0098c-0.46875,1.3672 -1.19792,2.44793 -2.1875,3.2422c-1.0156,0.8008 -2.48697,1.44207 -4.4141,1.9238l-1.1621,-1.7383c2.52607,-0.54687 4.24157,-1.34114 5.1465,-2.3828c0.918,-1.05467 1.377,-2.74737 1.377,-5.0781v-1.6602h2.0996zM252.63727,174.8176c2.2396,1.15233 4.4922,2.47393 6.7578,3.9648l-1.416,1.6016c-2.0508,-1.52347 -4.06577,-2.86137 -6.0449,-4.0137c-0.54037,0.91147 -1.11653,1.6211 -1.7285,2.1289c-0.99607,0.83333 -2.37953,1.55273 -4.1504,2.1582l-1.1035,-1.6992c2.04427,-0.51433 3.55793,-1.32163 4.541,-2.4219c0.89847,-1.0156 1.3477,-2.5553 1.3477,-4.6191v-1.416h2.0996v1.1816c0,1.11327 -0.10091,2.1582 -0.30273,3.1348zM243.91657,175.08127c-0.86587,-1.15233 -1.83917,-2.17773 -2.9199,-3.0762l1.4551,-1.3672c1.0742,0.76173 2.08983,1.73503 3.0469,2.9199zM243.19391,180.13987c-0.931,-1.21747 -1.93033,-2.2624 -2.998,-3.1348l1.5039,-1.4648c1.1328,0.84633 2.1647,1.8587 3.0957,3.0371zM240.59621,187.98167c1.1198,-1.7578 2.181,-4.0104 3.1836,-6.7578l1.7383,1.1816c-0.86587,2.5716 -1.8945,4.93163 -3.0859,7.0801zM245.75241,175.46167c0.83333,-1.1068 1.39323,-2.36657 1.6797,-3.7793l1.9238,0.43945c-0.47526,1.78387 -1.10353,3.22267 -1.8848,4.3164zM254.19971,174.54371c0.8138,-0.85287 1.6048,-1.95963 2.373,-3.3203l2.0215,0.91797c-0.918,1.3932 -1.84573,2.5195 -2.7832,3.3789zM245.63531,184.24101c0.8008,-0.9896 1.4486,-2.19727 1.9434,-3.623l1.7969,0.45899c-0.41015,1.69273 -1.09049,3.099 -2.041,4.2188zM253.93611,183.57695c0.8854,-1.00913 1.66667,-2.13543 2.3438,-3.3789l1.9531,0.98633c-1.0482,1.49087 -1.97267,2.6367 -2.7734,3.4375z" fill="#ffffff" stroke-width="1"/><path d="M275.41,177.37c1.25,0.97653 2.71483,1.79683 4.3945,2.4609l-0.9082,1.6992c-1.89453,-0.77473 -3.48307,-1.73827 -4.7656,-2.8906c-0.34505,0.29948 -0.64453,0.55013 -0.89844,0.75195c-1.1328,0.8724 -2.4837,1.62437 -4.0527,2.2559l-0.97656,-1.6211c1.70573,-0.56641 3.2487,-1.46161 4.6289,-2.6856c-0.61849,-0.73567 -1.13282,-1.43553 -1.543,-2.0996c-0.48828,0.54687 -1.01888,1.04167 -1.5918,1.4844l-1.1524,-1.5234c1.56253,-1.0742 2.75393,-2.666 3.5742,-4.7754l1.9824,0.32226c-0.13671,0.29297 -0.2539,0.54688 -0.35156,0.76172h3.5742l1.1523,1.0547c-0.8008,1.7904 -1.82293,3.39197 -3.0664,4.8047zM274.0526,176.1298c0.77473,-0.8724 1.4388,-1.80663 1.9922,-2.8027h-3.3203c-0.20182,0.3125 -0.32877,0.50456 -0.38086,0.57617c0.48828,0.8138 1.05795,1.556 1.709,2.2266zM268.4569,171.1982v6.7774h-2.4414v2.9785h2.4805v1.7578h-2.4805v3.4473c0.66406,-0.14974 1.59179,-0.40039 2.7832,-0.75195l0.15625,1.7285c-2.5716,0.8594 -5.2311,1.56577 -7.9785,2.1191l-0.61523,-1.9043c0.57291,-0.09766 0.89843,-0.15626 0.97656,-0.17579v-7.5781h1.7578v7.2266c0.33855,-0.06507 0.70638,-0.14319 1.1035,-0.23437v-8.6133h-2.998v-6.7774zM263.0956,172.9951v3.2617h3.5254v-3.2617zM278.2416,181.6181v7.8809h-1.9629v-1.084h-4.5508v1.084h-1.9629v-7.8809zM271.7279,183.3955v3.2422h4.5508v-3.2422z" fill="#ffffff" stroke-width="1"/><path d="M287.74,171.98c0.24089,-0.57943 0.4362,-1.13283 0.58594,-1.6602l2.3828,0.32226c-0.22786,0.54037 -0.43619,0.98633 -0.625,1.3379h6.5039v6.3672h-11.797v0.98633h14.697v1.582h-14.697v0.99609h14.014c-0.08464,2.9818 -0.27344,4.99353 -0.56641,6.0352c-0.1888,0.66406 -0.5436,1.10353 -1.0644,1.3184c-0.37109,0.15625 -0.93749,0.23437 -1.6992,0.23437c-0.78127,0 -1.51043,-0.04883 -2.1875,-0.14648l-0.39063,-1.6406h-9.7852v1.084h-2.0996v-4.6973h2.0996v2.0117h3.3594v-2.6367h-3.8379v-11.494zM291.8904,186.111v-2.0117h2.0215v3.3984c0.54036,0.05207 0.98956,0.0781 1.3476,0.0781c0.44271,0 0.71941,-0.12695 0.83008,-0.38085c0.21485,-0.47527 0.38412,-1.7155 0.50781,-3.7207h-8.0273v2.6367zM284.7908,173.484v0.96679h9.6387v-0.96679zM284.7908,175.8473v1.0644h9.6387v-1.0644z" fill="#ffffff" stroke-width="1"/><path d="M308.91,182.24h-4.043v-1.6016h1.9531c-0.29297,-0.66407 -0.625,-1.28257 -0.99609,-1.8555l1.7578,-0.64453c0.50781,0.85287 0.91798,1.6862 1.2305,2.5h2.2949c0.38411,-0.78773 0.72265,-1.6341 1.0156,-2.5391l1.9629,0.61524c-0.33203,0.71613 -0.6836,1.3574 -1.0547,1.9238h2.0996v1.6016h-4.1797v1.4258h4.4531v1.6602h-4.4531v3.6914h-2.041v-3.6914h-4.2871v-1.6602h4.2871zM311.0096,176.2244h7.4023v11.416c0,0.6706 -0.17904,1.1426 -0.53711,1.416c-0.29948,0.23438 -0.80405,0.35157 -1.5137,0.35157c-0.918,0 -1.8034,-0.04883 -2.6562,-0.14649l-0.47852,-1.9629c1.13933,0.13672 1.9922,0.20508 2.5586,0.20508c0.23437,0 0.37109,-0.05859 0.41015,-0.17578c0.02607,-0.07161 0.0391,-0.17253 0.0391,-0.30274v-9.1016h-12.48v11.582h-2.1777v-13.281h7.2754v-1.7676h-8.3594v-1.8164h8.3594v-2.1387h2.1582v2.1387h8.4766v1.8164h-8.4766z" fill="#ffffff" stroke-width="1"/><path d="M326.98,172.76h4.1797v1.8848h-1.377c-0.2474,0.99607 -0.57943,2.041 -0.9961,3.1348h2.6074v1.8848h-10.898v-1.8848h2.3926c-0.26042,-1.25 -0.53386,-2.29493 -0.82032,-3.1348h-1.2695v-1.8848h4.1406v-2.2559h2.041zM324.0406,174.6448c0.33203,0.97007 0.58919,2.015 0.77148,3.1348h1.9922l0.0977,-0.27344c0.27995,-0.7422 0.54036,-1.5853 0.78125,-2.5293l0.0879,-0.33203zM330.0953,181.305v7.998h-2.002v-0.95703h-4.2578v1.1621h-2.0605v-8.2031zM323.8355,183.1019v3.3887h4.2578v-3.3887zM336.8825,178.1703c0.77473,0.73567 1.38997,1.61133 1.8457,2.627c0.44922,1.0156 0.67383,2.04423 0.67383,3.0859c0,0.96353 -0.17904,1.67317 -0.53711,2.1289c-0.37109,0.47526 -0.98306,0.71289 -1.8359,0.71289c-0.7292,0 -1.43557,-0.05208 -2.1191,-0.15625l-0.47851,-2.0801c0.78773,0.14323 1.43877,0.21485 1.9531,0.21485c0.39063,0 0.63477,-0.09115 0.73242,-0.27344c0.06513,-0.13021 0.0977,-0.39062 0.0977,-0.78125c0,-1.60807 -0.48177,-2.9948 -1.4453,-4.1602c-0.25391,-0.30599 -0.57292,-0.63476 -0.95704,-0.98633l0.11719,-0.27343c0.67707,-1.52993 1.2044,-3.125 1.582,-4.7852h-2.5v16.064h-2.0215v-18.086h5.8789l1.084,0.99609c-0.65755,2.2396 -1.34765,4.15693 -2.0703,5.752z" fill="#ffffff" stroke-width="1"/></g></g></svg>