<svg version="1.1" xmlns="http://www.w3.org/2000/svg" xmlns:xlink="http://www.w3.org/1999/xlink" width="208" height="32" viewBox="0,0,208,32"><g transform="translate(-240,-164)"><g data-paper-data="{&quot;isPaintingLayer&quot;:true}" fill-rule="nonzero" stroke="none" stroke-linecap="butt" stroke-linejoin="miter" stroke-miterlimit="10" stroke-dasharray="" stroke-dashoffset="0" style="mix-blend-mode: normal"><path d="M240,196v-32h208v32z" fill="none" stroke-width="0"/><path d="M255.39,175.5h3.1641v3.418h1.084v1.6406h-1.084v3.5644h-3.5156v3.7402c0,0.54687 -0.11393,0.94727 -0.34179,1.2012c-0.26042,0.27995 -0.70312,0.41992 -1.3281,0.41992c-0.45573,0 -1.18816,-0.05534 -2.1973,-0.16601l-0.36132,-1.875c0.8268,0.13021 1.4453,0.19531 1.8555,0.19531c0.20833,0 0.3418,-0.03906 0.40039,-0.11719c0.0456,-0.07161 0.0684,-0.21159 0.0684,-0.41992v-2.9785h-3.0762v-1.6797h3.0762v-1.8848h-3.7012v-1.6406h3.7012v-1.7774h-2.5977v-1.4258c-0.16927,0.14974 -0.37761,0.32227 -0.625,0.51758l-0.95703,-1.3379v0.72265h-2.8027v0.91797h3.5449v1.6211h-9.1992v-1.6211h3.7207v-0.91797h-3.0273v-1.416h3.0273v-0.91797h-3.4668v-1.4844h3.4668v-1.2988h1.9336v1.2988h3.3008v1.4844h-3.3008v0.91797h2.8027v0.51758c1.36067,-1.05467 2.46093,-2.4479 3.3008,-4.1797l1.3086,0.83984h2.8711l1.0156,0.89844c-0.61198,1.12627 -1.29885,2.2005 -2.0606,3.2227zM253.4466,175.5c0.77473,-1.08073 1.2793,-1.88803 1.5137,-2.4219h-2.1387c-0.54037,0.8138 -1.22723,1.6211 -2.0606,2.4219zM254.9798,177.1406v1.7774h1.8359v-1.7774zM256.8157,180.5586h-1.8359v1.8848h1.8359zM248.9153,179.1621v8.6816c0,0.63802 -0.17578,1.07422 -0.52735,1.3086c-0.23437,0.14974 -0.63151,0.22461 -1.1914,0.22461c-0.78127,0 -1.46813,-0.03906 -2.0606,-0.11719l-0.3418,-1.7773c0.78127,0.09115 1.40953,0.13672 1.8848,0.13672c0.20833,0 0.32878,-0.05534 0.36133,-0.16602c0.02607,-0.07813 0.0391,-0.20833 0.0391,-0.39062v-1.4844h-3.9648v3.9258h-1.8359v-10.342zM243.1145,180.5976v1.1035h3.9648v-1.1035zM243.1145,183.0781v1.123h3.9648v-1.123z" fill="#ffffff" stroke-width="1"/><path d="M273.12,184.26v-4.2188h1.8555v5.9766h-8.1445v1.3184h-1.8555v-7.2949h1.8555v4.2188h2.1582v-5.498h-5.0098v-1.7578h6.9531c0.65104,-1.13933 1.21094,-2.4056 1.6797,-3.7988l2.0215,0.70313c-0.55989,1.1784 -1.14256,2.2103 -1.748,3.0957h3.1543v1.7578h-5.1953v5.498zM278.6766,171.184v16.357c0,0.65755 -0.17578,1.12955 -0.52734,1.416c-0.33855,0.27343 -0.92775,0.41015 -1.7676,0.41015c-0.65755,0 -1.78059,-0.05534 -3.3691,-0.16601l-0.49805,-2.0606c1.1328,0.13672 2.24283,0.20508 3.3301,0.20508c0.36458,0 0.57942,-0.06185 0.64453,-0.18555c0.0456,-0.08463 0.0684,-0.25065 0.0684,-0.49804v-13.643h-13.105v16.484h-2.1191v-18.32zM266.6946,176.9555c-0.4362,-1.04167 -0.931,-1.9922 -1.4844,-2.8516l1.8262,-0.78125c0.61197,0.89193 1.12304,1.82943 1.5332,2.8125z" fill="#ffffff" stroke-width="1"/><path d="M296.76,170.98v9.4629h-11.621v-9.4629zM287.2385,172.523v1.2207h7.4023v-1.2207zM287.2385,175.1207v1.2207h7.4023v-1.2207zM287.2385,177.7183v1.2598h7.4023v-1.2598zM283.3029,181.7417h16.191v1.6992h-8.0762v6.0644h-2.2168v-6.0644h-8.0371v-10.957h2.1387zM280.8029,187.6401c1.54947,-0.71613 3.0306,-1.9173 4.4434,-3.6035l1.7969,1.0449c-1.3932,1.76433 -2.93943,3.15107 -4.6387,4.1602zM297.6389,188.8999c-0.99607,-1.22393 -2.49347,-2.50973 -4.4922,-3.8574l1.6797,-1.1816c1.569,0.90493 3.1087,2.09307 4.6191,3.5644z" fill="#ffffff" stroke-width="1"/><path d="M308.84,174.08v-3.584h2.1973v3.584h7.2461v10.332h-2.1582v-1.3574h-5.0879v6.4453h-2.1973v-6.4453h-4.9609v1.4648h-2.1582v-10.439zM303.8791,176.082v4.9707h4.9609v-4.9707zM316.1251,181.0527v-4.9707h-5.0879v4.9707z" fill="#ffffff" stroke-width="1"/><path d="M326.98,172.75h4.1797v1.8848h-1.377c-0.2474,0.99607 -0.57943,2.041 -0.9961,3.1348h2.6074v1.8848h-10.898v-1.8848h2.3926c-0.26041,-1.25 -0.53385,-2.29493 -0.82031,-3.1348h-1.2695v-1.8848h4.1406v-2.2559h2.041zM324.0406,174.6348c0.33203,0.97007 0.58919,2.015 0.77148,3.1348h1.9922l0.09766,-0.27344c0.27995,-0.7422 0.54036,-1.5853 0.78125,-2.5293l0.0879,-0.33203zM330.0953,181.295v7.998h-2.002v-0.95703h-4.2578v1.1621h-2.0606v-8.2031zM323.8355,183.0919v3.3887h4.2578v-3.3887zM336.8825,178.1603c0.77473,0.73567 1.38997,1.61133 1.8457,2.627c0.44922,1.0156 0.67383,2.04423 0.67383,3.0859c0,0.96353 -0.17904,1.67317 -0.53711,2.1289c-0.37109,0.47526 -0.98306,0.71289 -1.8359,0.71289c-0.7292,0 -1.43557,-0.05208 -2.1191,-0.15625l-0.47852,-2.0801c0.78773,0.14323 1.43877,0.21485 1.9531,0.21485c0.39063,0 0.63477,-0.09115 0.73242,-0.27344c0.06513,-0.13021 0.0977,-0.39062 0.0977,-0.78125c0,-1.60807 -0.48177,-2.9948 -1.4453,-4.1602c-0.25391,-0.30599 -0.57292,-0.63476 -0.95703,-0.98633l0.11719,-0.27343c0.67707,-1.52993 1.2044,-3.125 1.582,-4.7852h-2.5v16.064h-2.0215v-18.086h5.8789l1.084,0.99609c-0.65755,2.2396 -1.34765,4.15693 -2.0703,5.752z" fill="#ffffff" stroke-width="1"/></g></g></svg>