<svg version="1.1" xmlns="http://www.w3.org/2000/svg" xmlns:xlink="http://www.w3.org/1999/xlink" width="168.1" height="21.9024" viewBox="0,0,168.1,21.9024"><g transform="translate(-240,-180)"><g data-paper-data="{&quot;isPaintingLayer&quot;:true}" stroke="none" stroke-linecap="butt" stroke-linejoin="miter" stroke-miterlimit="10" stroke-dasharray="" stroke-dashoffset="0" style="mix-blend-mode: normal"><path d="M248,180h152.1c4.432,0 8,3.568 8,8v5.9024c0,4.432 -3.568,8 -8,8h-152.1c-4.432,0 -8,-3.568 -8,-8v-5.9024c0,-4.432 3.568,-8 8,-8z" fill-opacity="0.7" fill="#000000" fill-rule="evenodd" stroke-width="0"/><g fill="#ffffff" fill-rule="nonzero" stroke-width="1"><path d="M251.09,190.36v3.0938c0,0.20052 0.08594,0.32161 0.25781,0.36328c0.17709,0.04427 0.58202,0.0664 1.2148,0.0664c0.61719,0 1.02472,-0.03123 1.2226,-0.0937c0.11198,-0.03647 0.1849,-0.13803 0.21875,-0.30469c0.04427,-0.23437 0.0677,-0.51172 0.0703,-0.83203l0.81641,0.23047c-0.04167,0.7682 -0.14714,1.25907 -0.31641,1.4726c-0.11197,0.14063 -0.28124,0.22396 -0.50781,0.25c-0.35677,0.03907 -0.96223,0.0586 -1.8164,0.0586c-0.66146,0 -1.09506,-0.01823 -1.3008,-0.0547c-0.30989,-0.05207 -0.50651,-0.18879 -0.58984,-0.41016c-0.04167,-0.11719 -0.0625,-0.27344 -0.0625,-0.46875v-3.0976l-0.74609,0.25781l-0.1836,-0.75781l0.92969,-0.32031v-2.1055h0.79297v1.832l0.83984,-0.28516v-2.0586h0.78516v1.7852l1.3086,-0.44921l0.41016,0.25v2.9258c0,0.20312 -0.04818,0.35416 -0.14453,0.45312c-0.10937,0.10937 -0.29297,0.16406 -0.55078,0.16406c-0.21094,0 -0.4349,-0.01823 -0.67188,-0.0547l-0.1289,-0.7461c0.15364,0.03907 0.30989,0.0586 0.46875,0.0586c0.11458,0 0.18489,-0.02343 0.21093,-0.0703c0.02607,-0.03907 0.0391,-0.10417 0.0391,-0.19531v-1.8476l-0.94141,0.32812v3.1602h-0.78516v-2.8906zM248.2189,189.0827v-1.8867h0.83984v1.8867h0.75781v0.79297h-0.75781v2.4844c0.27344,-0.09375 0.54427,-0.1914 0.8125,-0.29297l0.0742,0.75391c-0.84373,0.38541 -1.70963,0.70833 -2.5977,0.96875l-0.27344,-0.83203c0.40105,-0.10417 0.75261,-0.20313 1.0547,-0.29688c0.03647,-0.013 0.0664,-0.0221 0.0898,-0.0273v-2.7578h-0.99219v-0.79297z"/><path d="M261.86,188.57c-0.013,-0.02607 -0.02473,-0.0521 -0.0352,-0.0781c-0.15104,-0.34115 -0.36328,-0.67448 -0.63671,-1l0.64843,-0.30469c0.28907,0.32292 0.52344,0.67449 0.70313,1.0547l-0.625,0.32813h0.82422v0.71875h-1.8047l0.008,0.15625c0.03907,0.82293 0.11849,1.53387 0.23828,2.1328c0.21615,-0.47396 0.41146,-1.00129 0.58594,-1.582l0.72656,0.3125c-0.30989,0.8802 -0.65496,1.64973 -1.0352,2.3086c0.10937,0.32552 0.23177,0.61068 0.36718,0.85547c0.05207,0.09375 0.09113,0.14062 0.11719,0.14062c0.02867,0 0.07164,-0.07812 0.12891,-0.23437c0.06507,-0.18489 0.11715,-0.5026 0.15625,-0.95313l0.64844,0.45704c-0.08594,0.67187 -0.19532,1.16013 -0.32813,1.4648c-0.11719,0.26563 -0.26432,0.39844 -0.44141,0.39844c-0.17447,0 -0.3776,-0.13021 -0.60937,-0.39063c-0.22396,-0.2526 -0.42057,-0.56119 -0.58984,-0.92578c-0.44531,0.55989 -0.95445,1.03906 -1.5274,1.4375l-0.57422,-0.58984c0.4974,-0.29948 0.9336,-0.65105 1.3086,-1.0547c-0.63802,0.25 -1.47915,0.48568 -2.5234,0.70703l-0.25781,-0.72656c1.08593,-0.17969 2.02473,-0.39062 2.8164,-0.63281l0.0274,0.57812c0.14062,-0.15625 0.28124,-0.33724 0.42187,-0.54297c-0.21875,-0.7578 -0.36849,-1.86327 -0.44922,-3.3164h-2.5664v0.55468h-0.63282v2.5703c0.23959,-0.09896 0.45834,-0.19271 0.65625,-0.28125l0.0859,0.76562c-0.77347,0.41146 -1.5456,0.74479 -2.3164,1l-0.28125,-0.82422c0.29427,-0.08333 0.64063,-0.19661 1.0391,-0.33984v-2.8906h-0.91797v-0.77734h0.91797v-1.8789h0.8164v1.8789h0.5586v-0.49609h2.6055l-0.0156,-0.27344c-0.013,-0.2474 -0.02603,-0.612 -0.0391,-1.0938h0.80078c0.0156,0.67707 0.02993,1.1328 0.043,1.3672zM259.9655,189.9645v2.3594h-2.0859v-2.3594zM258.5436,190.59731v1.1016h0.77344v-1.1016z"/><path d="M264.3,188.18h4.0312v0.84766h-4.0312zM269.6047,194.0277c-0.84113,0.12761 -1.73437,0.19141 -2.6797,0.19141c-0.97133,0 -1.75127,-0.09115 -2.3398,-0.27344c-0.22917,-0.07031 -0.44141,-0.18229 -0.63672,-0.33594c-0.29948,-0.23958 -0.44922,-0.57161 -0.44922,-0.99609c0,-0.53385 0.20573,-1.00132 0.61719,-1.4024l0.67969,0.44922c-0.25,0.29427 -0.375,0.57162 -0.375,0.83203c0,0.29167 0.17578,0.4987 0.52734,0.6211c0.1875,0.06771 0.48568,0.12239 0.89453,0.16406c0.33855,0.03647 0.68881,0.0547 1.0508,0.0547c0.91407,0 1.77733,-0.06641 2.5898,-0.19922zM269.06564,188.7894c-0.19531,-0.46875 -0.45573,-0.92579 -0.78125,-1.3711l0.59766,-0.21484c0.3151,0.42187 0.57682,0.86717 0.78515,1.3359zM270.14764,188.58627c-0.18229,-0.45833 -0.4388,-0.91407 -0.76953,-1.3672l0.57812,-0.19922c0.28125,0.33854 0.54167,0.77344 0.78125,1.3047z"/><path d="M277.66,194.23c-0.7708,0.08073 -1.56767,0.12109 -2.3906,0.12109c-1.21353,0 -2.0638,-0.07682 -2.5508,-0.23047c-0.35417,-0.11198 -0.63411,-0.27865 -0.83984,-0.5c-0.23698,-0.25781 -0.35547,-0.57161 -0.35547,-0.9414c0,-0.48698 0.16667,-0.92448 0.5,-1.3125c0.28385,-0.33073 0.74089,-0.65886 1.3711,-0.98438c-0.35937,-0.80727 -0.68489,-1.72653 -0.97656,-2.7578l0.87109,-0.22656c0.27083,0.9896 0.55729,1.8646 0.85938,2.625c1.0026,-0.46094 2.0664,-0.84507 3.1914,-1.1524l0.26172,0.79297c-1.2344,0.3125 -2.46097,0.7565 -3.6797,1.332c-0.3776,0.17969 -0.64583,0.32682 -0.80468,0.44141c-0.46615,0.34115 -0.69922,0.72005 -0.69922,1.1367c0,0.36198 0.21615,0.61458 0.64844,0.75781c0.35937,0.11719 1.00261,0.17578 1.9297,0.17578c0.8568,0 1.71487,-0.04948 2.5742,-0.14844z"/><path d="M282.84,193.61c1.52867,-0.38541 2.293,-1.26171 2.293,-2.6289c0,-0.59635 -0.15365,-1.10939 -0.46094,-1.5391c-0.34375,-0.48437 -0.86719,-0.79557 -1.5703,-0.93359c-0.15365,1.20833 -0.36328,2.19793 -0.62891,2.9688c-0.18229,0.53906 -0.40886,1.04816 -0.67969,1.5273c-0.39063,0.68227 -0.83463,1.0234 -1.332,1.0234c-0.36979,0 -0.69922,-0.16667 -0.98828,-0.5c-0.18489,-0.21094 -0.33463,-0.47005 -0.44922,-0.77734c-0.15104,-0.39844 -0.22656,-0.82684 -0.22656,-1.2852c0,-0.7422 0.20443,-1.4258 0.61328,-2.0508c0.41406,-0.63802 0.95183,-1.10155 1.6133,-1.3906c0.48177,-0.21093 1.01041,-0.3164 1.5859,-0.3164c0.8984,0 1.66143,0.24088 2.2891,0.72265c0.7708,0.59115 1.1562,1.42838 1.1562,2.5117c0,1.81513 -0.91797,2.96617 -2.7539,3.4531zM282.25406,188.4772c-0.46094,0.05207 -0.84634,0.17576 -1.1562,0.37109c-0.19792,0.12761 -0.39453,0.29688 -0.58984,0.50781c-0.54167,0.59896 -0.8125,1.29296 -0.8125,2.082c0,0.57552 0.11458,1.02605 0.34375,1.3516c0.14062,0.20052 0.27994,0.30078 0.41796,0.30078c0.1875,0 0.39844,-0.20703 0.63282,-0.62109c0.57291,-1.0078 0.96095,-2.33853 1.1641,-3.9922z"/><path d="M290,188.25v-0.33594h-2.4414v-0.5586h5.7656v0.5586h-2.4922v0.33594h3.2344v1.4023h-0.84766v-0.89844h-2.3867v1.5195h-0.83203v-1.5195h-2.3438v0.89844h-0.83984v-1.4023zM292.7656,193.793c0.39844,0.15105 0.89584,0.27084 1.4922,0.35938l-0.45703,0.66406c-0.83593,-0.14323 -1.52213,-0.38932 -2.0586,-0.73828c-0.53385,-0.34896 -0.94922,-0.78256 -1.2461,-1.3008h-0.86328v1.2031c0.57552,-0.08073 1.10939,-0.16666 1.6016,-0.25781l0.0547,0.58203c-0.91667,0.21875 -1.96483,0.40886 -3.1445,0.57032l-0.23047,-0.6875c0.40885,-0.04427 0.6888,-0.0755 0.83985,-0.0937l0.0469,-0.008v-1.3086h-0.85547c-0.03647,0.45833 -0.09636,0.82423 -0.17969,1.0977c-0.09895,0.32812 -0.25781,0.63411 -0.47656,0.91796l-0.69531,-0.57421c0.25521,-0.33073 0.41406,-0.71747 0.47656,-1.1602c0.03387,-0.23959 0.0508,-0.53776 0.0508,-0.89453v-1.6562h6.7422v0.51953h-5.9023v1.1992h6.2383v0.55078h-0.88672l0.49609,0.32812c-0.29427,0.24479 -0.64193,0.47396 -1.043,0.6875zM292.15623,193.49222c0.375,-0.25521 0.67318,-0.49349 0.89453,-0.71484h-1.707c0.22396,0.28646 0.49479,0.52474 0.8125,0.71484zM288.00003,189.04302h1.6641v0.44141h-1.6641zM288.00003,189.76177h1.6641v0.44922h-1.6641zM291.16803,189.04302h1.7148v0.44141h-1.7148zM291.16803,189.76177h1.7148v0.44922h-1.7148zM288.42583,191.35557h4.8633v0.51172h-4.8633z"/><path d="M299.05,187.9h3.0625v0.65625h-1.7344v0.64844h1.625v0.63281h-1.625v1.1641h-3.1445v-1.1641h-1.2812v0.72657c0,1.17967 -0.0625,2.11197 -0.1875,2.7969c-0.09635,0.52083 -0.2526,0.9961 -0.46875,1.4258l-0.71093,-0.5625c0.19791,-0.42969 0.33333,-0.95442 0.40625,-1.5742c0.06507,-0.54427 0.0976,-1.23957 0.0976,-2.0859v-2.6641h3.0898v-0.70312h0.87109zM295.9523,188.55625v0.64844h1.2812v-0.64844zM298.0656,188.55625v0.64844h1.4805v-0.64844zM298.0656,189.83745v0.60547h1.4805v-0.60547zM298.97185,193.93905c-0.7526,0.39062 -1.70833,0.68749 -2.8672,0.89062l-0.40625,-0.71875c1.08853,-0.13021 1.9414,-0.32943 2.5586,-0.59766c-0.52865,-0.38281 -0.98048,-0.83724 -1.3555,-1.3633h-0.53906v-0.67968h4.5742l0.41016,0.34375c-0.38803,0.59635 -0.94143,1.15755 -1.6602,1.6836c0.61719,0.24739 1.45832,0.42968 2.5234,0.54687l-0.45703,0.73829c-1.0208,-0.13803 -1.94787,-0.41928 -2.7812,-0.84375zM297.81165,192.14995c0.31511,0.36979 0.69791,0.69532 1.1484,0.97657c0.50781,-0.32813 0.89975,-0.65365 1.1758,-0.97657z"/><path d="M303.32,188.3h2.1055c0.23177,-0.36979 0.40755,-0.66796 0.52734,-0.89453l0.8711,0.125c-0.07813,0.14063 -0.21615,0.36979 -0.41406,0.6875l-0.0508,0.082h2.7539v0.76954h-3.2734c-0.34115,0.46875 -0.66667,0.87501 -0.97656,1.2188c0.49219,-0.29427 0.94142,-0.44141 1.3477,-0.44141c0.63021,0 1.04297,0.31641 1.2383,0.94922c0.66667,-0.22135 1.34637,-0.4401 2.0391,-0.65625l0.33594,0.75781l-0.13672,0.0391l-0.38672,0.10157c-0.7292,0.19791 -1.31253,0.36718 -1.75,0.50781c0.03127,0.33854 0.0534,0.77604 0.0664,1.3125l-0.85547,0.0469c-0.00267,-0.30989 -0.00787,-0.64583 -0.0156,-1.0078v-0.0781c-1.19793,0.40885 -1.7969,0.82032 -1.7969,1.2344c0,0.21354 0.15365,0.35937 0.46094,0.4375c0.29687,0.07552 0.82814,0.11328 1.5938,0.11328c0.70573,0 1.4466,-0.04036 2.2226,-0.12109l0.0937,0.83203c-0.7526,0.05727 -1.53253,0.0859 -2.3398,0.0859c-0.9948,0 -1.70183,-0.07552 -2.1211,-0.22657c-0.51823,-0.1875 -0.77734,-0.52473 -0.77734,-1.0117c0,-0.41146 0.18359,-0.77473 0.55078,-1.0898c0.38021,-0.32552 1.04947,-0.66145 2.0078,-1.0078c-0.05207,-0.20052 -0.12108,-0.34115 -0.20703,-0.42188c-0.09635,-0.09114 -0.22396,-0.13671 -0.38281,-0.13671c-0.25781,0 -0.58203,0.09765 -0.97266,0.29296c-0.48177,0.23959 -0.9987,0.60025 -1.5508,1.082l-0.51953,-0.59375c0.80987,-0.7526 1.444,-1.4922 1.9024,-2.2188h-1.5898z"/><path d="M314.4,192.1l-0.11719,-0.51172c0.17708,0.02607 0.34114,0.0391 0.49219,0.0391c0.07552,0 0.11979,-0.01953 0.13281,-0.0586c0.0104,-0.02607 0.0156,-0.07034 0.0156,-0.13281v-0.91797h-2.0468v-0.63281h2.0469v-0.55078h-1.0234v-0.27344c-0.27605,0.16146 -0.57162,0.3112 -0.88672,0.44922l-0.51563,-0.5625c0.59635,-0.22917 1.09765,-0.50781 1.5039,-0.83594c0.3125,-0.25261 0.60156,-0.55729 0.86719,-0.91406h0.84765c0.29688,0.36719 0.67578,0.68229 1.1367,0.94531c0.34115,0.19531 0.80468,0.40234 1.3906,0.62109l-0.46485,0.63282c-0.38802,-0.15105 -0.72395,-0.30079 -1.0078,-0.44922v0.38672h-1.0234v0.55078h2.1602v0.63281h-2.1602v1.1992c0,0.18229 -0.04427,0.31641 -0.13281,0.40234c-0.09115,0.08855 -0.25651,0.13282 -0.49609,0.13282c-0.07552,0 -0.16406,-0.00133 -0.26563,-0.004v0.35547h2.6953v0.65625h-2.6953v0.625h3.2695v0.69531h-7.3594v-0.69531h3.2226v-0.625h-2.6641v-0.65625h2.6641v-0.50391zM314.3648,188.7484h2.0547c-0.42187,-0.25521 -0.79817,-0.5664 -1.1289,-0.93359c-0.2526,0.34895 -0.56119,0.66015 -0.92578,0.93359zM312.396,188.6703c-0.37239,-0.34114 -0.77603,-0.6315 -1.2109,-0.87109l0.50391,-0.5625c0.51823,0.26823 0.93749,0.54297 1.2578,0.82422zM310.7241,191.5883c0.52343,-0.36719 1.08333,-0.87629 1.6797,-1.5273l0.42969,0.61719c-0.39323,0.49479 -0.91536,1.01952 -1.5664,1.5742zM317.3296,192.18205c-0.40625,-0.53125 -0.80078,-0.94271 -1.1836,-1.2344l0.59375,-0.41406c0.45313,0.34895 0.85806,0.72785 1.2148,1.1367zM311.8413,190.02975c-0.36458,-0.32552 -0.76691,-0.60807 -1.207,-0.84766l0.50391,-0.58593c0.41927,0.20833 0.8242,0.47526 1.2148,0.80078zM312.57958,191.73285c0.39844,-0.26302 0.76041,-0.63932 1.0859,-1.1289l0.625,0.35547c-0.35417,0.5651 -0.7435,1.0013 -1.168,1.3086z"/><path d="M321.66,190.78c-0.26042,0.48698 -0.52735,0.85288 -0.80079,1.0977c-0.23437,0.21093 -0.44922,0.3164 -0.64453,0.3164c-0.25,0 -0.45182,-0.16927 -0.60547,-0.50781c-0.15885,-0.35417 -0.23828,-0.90887 -0.23828,-1.6641c0,-0.7604 0.08854,-1.58463 0.26563,-2.4727l0.85547,0.12891c-0.17188,0.8802 -0.25782,1.625 -0.25782,2.2344c0,0.82033 0.0586,1.2305 0.17579,1.2305c0.04427,0 0.11979,-0.0625 0.22656,-0.1875c0.16667,-0.1875 0.34245,-0.46354 0.52734,-0.82812zM321.06625,193.8386c0.79947,-0.22395 1.40233,-0.55859 1.8086,-1.0039c0.49739,-0.54427 0.74609,-1.36721 0.74609,-2.4688c0,-0.83593 -0.08073,-1.77473 -0.24218,-2.8164l0.89453,-0.0859c0.17187,1.05207 0.25781,2.03253 0.25781,2.9414c0,1.47393 -0.3789,2.53513 -1.1367,3.1836c-0.46094,0.39583 -1.08204,0.72396 -1.8633,0.98438z"/><path d="M326.04,188.73c2.16407,-0.34114 3.6159,-0.51171 4.3555,-0.51171c0.82033,0 1.45707,0.1888 1.9102,0.5664c0.53645,0.44792 0.80468,1.11589 0.80468,2.0039c0,0.69273 -0.22396,1.2969 -0.67187,1.8125c-0.68227,0.78647 -2.082,1.26693 -4.1992,1.4414l-0.29687,-0.86328c1.42967,-0.11458 2.444,-0.31901 3.043,-0.61328c0.32031,-0.15885 0.58334,-0.36719 0.78907,-0.625c0.27865,-0.34896 0.41797,-0.75259 0.41797,-1.2109c0,-0.5625 -0.13021,-0.97787 -0.39063,-1.2461c-0.13281,-0.13541 -0.27734,-0.23698 -0.43359,-0.30469c-0.21875,-0.09635 -0.53125,-0.14453 -0.9375,-0.14453c-0.66407,0 -2.0664,0.18359 -4.207,0.55078z"/><path d="M338.8,189.21c-0.84633,-0.4401 -1.85807,-0.78907 -3.0352,-1.0469l0.35157,-0.72266c1.17707,0.22135 2.2018,0.56119 3.0742,1.0195zM336.1672,192.9131c0.3125,0.48177 0.65757,0.72265 1.0352,0.72265c0.44011,0 0.66016,-0.2487 0.66016,-0.74609c0,-0.36979 -0.11328,-0.83073 -0.33984,-1.3828c-0.23438,-0.56771 -0.53516,-1.06901 -0.90235,-1.5039l0.70703,-0.36719c0.4974,0.58594 0.8789,1.22527 1.1445,1.918c0.19531,0.51042 0.29296,0.97135 0.29296,1.3828c0,0.45573 -0.11328,0.81899 -0.33984,1.0898c-0.27083,0.32031 -0.66537,0.48047 -1.1836,0.48047c-0.60938,0 -1.10158,-0.30729 -1.4766,-0.92188zM333.8781,193.32325c0.51823,-0.85413 0.88149,-1.88667 1.0898,-3.0976l0.8125,0.26562c-0.25261,1.3932 -0.63934,2.48567 -1.1602,3.2774zM340.4523,193.63575c-0.29167,-1.20313 -0.70443,-2.29687 -1.2383,-3.2812l0.72657,-0.32031c0.59375,0.9844 1.03385,2.07033 1.3203,3.2578zM340.06168,188.97955c-0.16667,-0.42708 -0.42578,-0.89191 -0.77734,-1.3945l0.59375,-0.21484c0.30729,0.42448 0.569,0.88021 0.78515,1.3672zM341.04605,188.6358c-0.18229,-0.47135 -0.4388,-0.93879 -0.76953,-1.4023l0.57032,-0.19141c0.29947,0.36459 0.55468,0.80729 0.76562,1.3281z"/><path d="M342.61,187.53h0.92188v4.6562c0,0.9818 0.51563,1.4727 1.5469,1.4727c0.67967,0 1.23697,-0.3138 1.6719,-0.94141c0.28125,-0.40365 0.53385,-1.02865 0.75781,-1.875l0.79297,0.48047c-0.26563,0.94013 -0.58464,1.64327 -0.95703,2.1094c-0.58594,0.72653 -1.34767,1.0898 -2.2852,1.0898c-0.9792,0 -1.6693,-0.30208 -2.0703,-0.90625c-0.25261,-0.37761 -0.37891,-0.86457 -0.37891,-1.4609z"/><path d="M349.06,188.15c2.39587,-0.03647 4.6602,-0.09767 6.793,-0.1836l0.0469,0.77735c-0.94013,0.04687 -1.6719,0.19009 -2.1953,0.42968c-0.5,0.22917 -0.90103,0.54688 -1.2031,0.95313c-0.34375,0.46094 -0.51563,0.97397 -0.51563,1.5391c0,0.5625 0.19531,0.98437 0.58594,1.2656c0.44792,0.32031 1.13542,0.54036 2.0625,0.66015l-0.18359,0.87891c-1.20833,-0.16146 -2.0586,-0.47396 -2.5508,-0.9375c-0.52865,-0.49479 -0.79297,-1.10939 -0.79297,-1.8438c0,-0.66667 0.23958,-1.28907 0.71875,-1.8672c0.34896,-0.42448 0.82683,-0.76561 1.4336,-1.0234c-1.07553,0.03647 -2.46227,0.09767 -4.1602,0.1836zM354.7397,191.5211c-0.15365,-0.40885 -0.41276,-0.87239 -0.77734,-1.3906l0.60937,-0.22657c0.32552,0.44792 0.58724,0.90625 0.78516,1.375zM355.7944,191.11094c-0.1849,-0.47917 -0.44271,-0.9453 -0.77344,-1.3984l0.58203,-0.20703c0.30469,0.36979 0.5638,0.81772 0.77735,1.3438z"/><path d="M361.75,193.16l0.0547,0.69921c-1.1302,0.39844 -2.3867,0.72657 -3.7695,0.98438l-0.28907,-0.78125c0.23959,-0.03647 0.57812,-0.09506 1.0156,-0.17578v-1.4297c-0.45052,0.22917 -0.98699,0.44661 -1.6094,0.65234l-0.44531,-0.69531c1.2526,-0.33854 2.20833,-0.77084 2.8672,-1.2969h-2.7891v-0.67969h3.3476v-0.58984h-2.5312v-0.65625h2.5312v-0.55079h-2.9297v-0.67187h2.9297v-0.76953h0.85547v0.76953h3.0156v0.67187h-3.0156v0.55079h2.6172v0.65625h-2.6172v0.58984h3.4336v0.67969h-0.93359l0.57813,0.39843c-0.35677,0.34636 -0.85677,0.72526 -1.5,1.1367l-0.0899,0.0586c0.48959,0.44791 1.15365,0.81771 1.9922,1.1094l-0.52734,0.79297c-0.90887,-0.38541 -1.63933,-0.86978 -2.1914,-1.4531zM360.5664,191.1288c-0.26042,0.30469 -0.57422,0.57812 -0.94141,0.82031v1.7539c0.64323,-0.14323 1.28906,-0.30989 1.9375,-0.5l0.17969,-0.0508c-0.53385,-0.59115 -0.92579,-1.26561 -1.1758,-2.0234zM361.9922,192.1952c0.46354,-0.33073 0.86981,-0.69009 1.2188,-1.0781h-1.8477c0.16667,0.39843 0.3763,0.7578 0.62891,1.0781z"/><path d="M369.08,190.53v3.4648c0,0.3151 -0.0638,0.52994 -0.1914,0.64453c-0.11979,0.10417 -0.35156,0.15625 -0.69531,0.15625c-0.39063,0 -0.76173,-0.02473 -1.1133,-0.0742l-0.16796,-0.82422c0.36458,0.05987 0.71355,0.0898 1.0469,0.0898c0.11198,0 0.18229,-0.01953 0.21094,-0.0586c0.0208,-0.03387 0.0312,-0.08986 0.0312,-0.16797v-3.2305h-3.3594v-0.77731h7.5274v0.77734zM365.7792,187.6355h5.6484v0.76953h-5.6484zM364.79483,193.6277c0.5625,-0.58854 1.01563,-1.37111 1.3594,-2.3477l0.8086,0.30469c-0.39844,1.1172 -0.89974,1.9948 -1.5039,2.6328zM371.49793,194.10426c-0.53906,-1.1406 -1.00779,-1.97523 -1.4062,-2.5039l0.73438,-0.4375c0.57291,0.737 1.06118,1.53907 1.4648,2.4062z"/><path d="M373.57,187.53h0.92188v4.6562c0,0.9818 0.51563,1.4727 1.5469,1.4727c0.67967,0 1.23697,-0.3138 1.6719,-0.94141c0.28125,-0.40365 0.53385,-1.02865 0.75781,-1.875l0.79297,0.48047c-0.26563,0.94013 -0.58464,1.64327 -0.95703,2.1094c-0.58594,0.72653 -1.34767,1.0898 -2.2852,1.0898c-0.9792,0 -1.6693,-0.30208 -2.0703,-0.90625c-0.25261,-0.37761 -0.37891,-0.86457 -0.37891,-1.4609z"/><path d="M383.2,187.38h0.86329v0.98438h2.457v0.74218h-2.457v0.92969h2.3203v0.73438h-2.3203v1.207c0.92707,0.3125 1.84113,0.78257 2.7422,1.4102l-0.46093,0.74219c-0.68227,-0.51041 -1.44267,-0.96095 -2.2812,-1.3516c-0.0208,0.44531 -0.10674,0.79038 -0.25782,1.0352c-0.26302,0.42447 -0.78125,0.63671 -1.5547,0.63671c-0.59636,0 -1.07553,-0.11198 -1.4375,-0.33593c-0.40365,-0.25 -0.60547,-0.58853 -0.60547,-1.0156c0,-0.51041 0.27213,-0.88801 0.8164,-1.1328c0.36459,-0.16146 0.83855,-0.24219 1.4219,-0.24219c0.22917,0 0.48047,0.01823 0.7539,0.0547v-1.0078h-2.7695v-0.73438h2.7695v-0.92969h-2.9375v-0.74218h2.9375zM383.2,192.505c-0.30989,-0.06513 -0.60677,-0.0977 -0.89062,-0.0977c-0.34635,0 -0.6276,0.05078 -0.84375,0.15234c-0.25781,0.12239 -0.38672,0.29687 -0.38672,0.52344c0,0.1901 0.10026,0.34374 0.30078,0.46093c0.20313,0.11979 0.47396,0.17969 0.8125,0.17969c0.40104,0 0.67708,-0.10677 0.82813,-0.32031c0.11979,-0.16667 0.17968,-0.41536 0.17968,-0.74609z"/><path d="M391.5,187.36h0.87891v1.0781h2.3047v0.75391h-2.3047v1.6719c0.09115,0.32031 0.13672,0.60547 0.13672,0.85547c0,0.92707 -0.20443,1.60807 -0.61328,2.043c-0.44531,0.47656 -1.11588,0.80599 -2.0117,0.98828l-0.44531,-0.66406c0.69533,-0.13281 1.21097,-0.32031 1.5469,-0.5625c0.31511,-0.22917 0.52735,-0.54037 0.63672,-0.9336c-0.27865,0.30469 -0.61068,0.45703 -0.99609,0.45703c-0.43229,0 -0.78256,-0.12239 -1.0508,-0.36718c-0.3151,-0.28907 -0.47265,-0.70833 -0.47265,-1.2578c0,-0.28906 0.06901,-0.5677 0.20703,-0.83593c0.09115,-0.17188 0.20313,-0.31511 0.33594,-0.42969c0.30729,-0.26042 0.67579,-0.39063 1.1055,-0.39063c0.27343,0 0.52083,0.06511 0.74218,0.19532v-0.76953h-3.8555v-0.75391h3.8555zM391.5312,191.4147v-0.14453c0,-0.16667 -0.03906,-0.3138 -0.11718,-0.44141c-0.14583,-0.23958 -0.35677,-0.35937 -0.63282,-0.35937c-0.14062,0 -0.27213,0.03906 -0.39453,0.11719c-0.28646,0.17969 -0.42969,0.45573 -0.42969,0.82812c0,0.23437 0.05208,0.43229 0.15625,0.59375c0.14583,0.22396 0.36068,0.33594 0.64454,0.33594c0.25781,0 0.46223,-0.11589 0.61328,-0.34766c0.10677,-0.16406 0.16015,-0.35807 0.16015,-0.58203z"/></g></g></g></svg>