<svg xmlns="http://www.w3.org/2000/svg" viewBox="0 0 180 40" version="1.1" height="40" width="180">
 <path style="paint-order:stroke markers fill" stroke-width=".2" stroke-linejoin="round" stroke-linecap="round" stop-color="#000000" fill-opacity="0" fill="none" d="m0 0h180v40h-180z"></path>
 <g aria-label="強震モニタ風+震度" stroke-width="1.0238" fill="#fff" transform="matrix(.95405 0 0 1 .93499 0)">
  <path d="m25.182 20.068q-0.06836 4.3203-0.42383 5.4824-0.18457 0.59473-0.58789 0.83398-0.37598 0.22559-1.0732 0.22559-0.65625 0-1.627-0.11621l-0.28027-1.3604q1.1416 0.14356 1.5996 0.14356 0.47852 0 0.6084-0.24609 0.23926-0.44434 0.36914-3.6914h-1.9072q-0.01367 0.04785-0.02051 0.11621-0.04102 0.2666-0.15039 0.82031l-1.3398-0.20508q0.42383-2.9805 0.51953-5.1133h2.7822v-1.7158h-3.2061v-1.3193h4.5664v4.3066h-2.8574l-0.03418 0.58106q-0.04102 0.59473-0.10254 1.2578zm3.582-2.707-0.25293 0.02051q-1.1621 0.0957-2.8301 0.18457l-0.33496-1.3193q0.37598-0.0068 0.62891-0.01367 0.14356 0 0.36914-0.0068 1.0596-1.4834 1.7773-2.9326l1.4287 0.33496q-0.69727 1.2031-1.709 2.5498l0.5332-0.01367q1.333-0.04102 2.9736-0.15723l-0.11621-0.15039q-0.41016-0.56059-0.98438-1.2168l1.1484-0.6084q1.5449 1.7227 2.3105 3.124l-1.1895 0.74512q-0.28711-0.55371-0.49219-0.88867-1.0459 0.14356-1.873 0.22559v1.3467h2.9258v3.917h-2.9258v2.2832q0.63574-0.06836 1.3535-0.15039l0.15039-0.02051q-0.30762-0.66992-0.67676-1.2988l1.2715-0.50586q0.88184 1.3467 1.6133 3.2607l-1.333 0.65625q-0.24609-0.68359-0.41699-1.0869l-0.5127 0.08203q-2.8848 0.47168-5.9336 0.72461l-0.37598-1.3398q1.6406-0.06152 3.4043-0.19141l0.06836-0.0068v-2.4062h-2.8438v-3.917h2.8438zm0 2.3721h-1.5723v1.6201h1.5723zm1.3877 0v1.6201h1.6064v-1.6201z"></path>
  <path d="m40.228 15.194v-0.58789h-4.2725v-0.97754h10.09v0.97754h-4.3613v0.58789h5.6602v2.4541h-1.4834v-1.5723h-4.1768v2.6592h-1.4561v-2.6592h-4.1016v1.5723h-1.4697v-2.4541zm4.8398 9.7002q1.0459 0.39648 2.6113 0.62891l-0.7998 1.1621q-2.1943-0.37598-3.6025-1.292-1.4014-0.91602-2.1807-2.2764h-1.5107v2.1055q1.5107-0.21191 2.8027-0.45117l0.0957 1.0186q-2.4062 0.57422-5.5029 0.99805l-0.40332-1.2031q1.0732-0.11621 1.4697-0.16406l0.08203-0.01367v-2.29h-1.4971q-0.0957 1.2031-0.31445 1.9209-0.25977 0.86133-0.83398 1.6064l-1.2168-1.0049q0.66992-0.86816 0.83398-2.0303 0.08887-0.62891 0.08887-1.5654v-2.8984h11.799v0.90918h-10.329v2.0986h10.917v0.96387h-1.5518l0.86816 0.57422q-0.77246 0.64258-1.8252 1.2031zm-1.0664-0.52637q0.98438-0.66992 1.5654-1.251h-2.9873q0.58789 0.75195 1.4219 1.251zm-7.2734-7.7861h2.9121v0.77246h-2.9121zm0 1.2578h2.9121v0.78613h-2.9121zm5.5439-1.2578h3.001v0.77246h-3.001zm0 1.2578h3.001v0.78613h-3.001zm-4.7988 2.7891h8.5107v0.89551h-8.5107z"></path>
  <path d="m49.258 14.415h10.377v1.4014h-5.7832v2.9053h6.877v1.4014h-6.877v3.3906q0 0.38281 0.13672 0.5127 0.2666 0.2666 2.5156 0.2666 1.5928 0 3.2402-0.10938v1.5381q-1.709 0.08887-3.2334 0.08887-2.2559 0-2.8848-0.13672-0.88184-0.18457-1.1689-0.80664-0.1709-0.3623-0.1709-0.93652v-3.8076h-3.7256v-1.4014h3.7256v-2.9053h-3.0283z"></path>
  <path d="m63.47 15.577h9.4062v1.4697h-9.4062zm-1.3877 7.8271h12.182v1.4834h-12.182z"></path>
  <path d="m85.55 15.181 0.97754 0.7998q-0.95703 4.375-3.1035 6.7744-1.1895 1.3262-3.0762 2.3242-1.3398 0.7041-2.8779 1.1211l-0.79297-1.3467q3.5137-0.91602 5.4551-2.9258-1.5996-1.4355-3.5273-2.543l0.89551-1.1074q1.8799 0.97754 3.5752 2.4062 1.333-2.1328 1.6748-4.1289h-4.8125q-1.6543 2.5771-3.8965 3.9443l-1.0049-1.0869q2.167-1.3057 3.5615-3.4521 0.71777-1.0938 1.1143-2.3584l1.4834 0.3623q-0.22558 0.61524-0.50586 1.2168z"></path>
  <path d="m93.384 18.318v-1.0938q-0.74512 0.08887-2.2217 0.18457l-0.50586-1.1348q3.3496-0.21191 5.8105-0.7998l0.7793 1.1348q-1.1348 0.2666-2.4746 0.45117l-0.12988 0.01367v1.2441h2.4678v3.8623h-2.4678v1.9277q0.31445-0.03418 0.92969-0.10254 0.13672-0.02051 0.38965-0.05469-0.28711-0.55371-0.5332-0.95703l1.1211-0.45117q0.82715 1.2646 1.6406 3.0283l-1.2441 0.62891q-0.2666-0.66992-0.46484-1.1348l-0.04785-0.10938q-2.6045 0.60156-5.7217 0.9502l-0.41699-1.374q2.126-0.15723 3.0898-0.27344v-2.0781h-2.4062v-3.8623zm0 1.0801h-1.1895v1.7021h1.1895zm1.2578 0v1.7021h1.2373v-1.7021zm4.7031-5.5576v4.5049q0 4.1631 0.31445 5.79 0.10938 0.56055 0.1709 0.56055 0.12305 0 0.4375-2.2148l1.0391 1.0049q-0.25976 1.6885-0.58105 2.3652-0.35547 0.73145-0.86817 0.73145-0.58789 0-1.0664-0.89551-0.875-1.6406-0.875-6.542v-4.1016h-7.7383v3.6982q0 3.0557-0.19824 4.457-0.27344 1.9482-1.2715 3.4795l-1.1348-1.1211q0.80664-1.2715 1.0186-3.0693 0.14356-1.21 0.14356-3.5957v-5.0518z"></path>
  <path d="m106.62 15.379h1.2031v4.0195h4.0195v1.2031h-4.0195v4.0195h-1.2031v-4.0195h-4.0195v-1.2031h4.0195z"></path>
  <path d="m119.33 15.194v-0.58789h-4.2725v-0.97754h10.09v0.97754h-4.3613v0.58789h5.6602v2.4541h-1.4834v-1.5723h-4.1768v2.6592h-1.456v-2.6592h-4.1016v1.5723h-1.4697v-2.4541zm4.8398 9.7002q1.0459 0.39648 2.6113 0.62891l-0.7998 1.1621q-2.1943-0.37598-3.6025-1.292-1.4014-0.91602-2.1807-2.2764h-1.5107v2.1055q1.5107-0.21191 2.8027-0.45117l0.0957 1.0186q-2.4062 0.57422-5.5029 0.99805l-0.40332-1.2031q1.0732-0.11621 1.4697-0.16406l0.082-0.01367v-2.29h-1.4971q-0.0957 1.2031-0.31445 1.9209-0.25976 0.86133-0.83398 1.6064l-1.2168-1.0049q0.66992-0.86816 0.83398-2.0303 0.0889-0.62891 0.0889-1.5654v-2.8984h11.799v0.90918h-10.329v2.0986h10.917v0.96387h-1.5518l0.86817 0.57422q-0.77246 0.64258-1.8252 1.2031zm-1.0664-0.52637q0.98437-0.66992 1.5654-1.251h-2.9873q0.58789 0.75195 1.4219 1.251zm-7.2734-7.7861h2.9121v0.77246h-2.9121zm0 1.2578h2.9121v0.78613h-2.9121zm5.5439-1.2578h3.001v0.77246h-3.001zm0 1.2578h3.001v0.78613h-3.001zm-4.7988 2.7891h8.5107v0.89551h-8.5107z"></path>
  <path d="m135.17 14.579h5.3594v1.1484h-3.0352v1.1348h2.8438v1.1074h-2.8438v2.0371h-5.5029v-2.0371h-2.2422v1.2715q0 3.0967-0.32813 4.8945-0.25293 1.3672-0.82031 2.4951l-1.2441-0.98438q0.51953-1.1279 0.71094-2.7549 0.17089-1.4287 0.17089-3.6504v-4.6621h5.4072v-1.2305h1.5244zm-5.4209 1.1484v1.1348h2.2422v-1.1348zm3.6982 0v1.1348h2.5908v-1.1348zm0 2.2422v1.0596h2.5908v-1.0596zm1.5859 7.1777q-1.9756 1.0254-5.0176 1.5586l-0.71094-1.2578q2.8574-0.3418 4.4775-1.0459-1.3877-1.0049-2.3721-2.3857h-0.94336v-1.1895h8.0049l0.71778 0.60156q-1.0186 1.5654-2.9053 2.9463 1.6201 0.64941 4.416 0.95703l-0.79981 1.292q-2.6797-0.3623-4.8672-1.4766zm-2.0303-3.1309q0.82715 0.9707 2.0098 1.709 1.333-0.86133 2.0576-1.709z"></path>
 </g>
</svg>
