<svg version="1.1" xmlns="http://www.w3.org/2000/svg" xmlns:xlink="http://www.w3.org/1999/xlink" width="63.81747" height="71.46717" viewBox="0,0,63.81747,71.46717"><g transform="translate(-218.19581,-155.86732)"><g data-paper-data="{&quot;isPaintingLayer&quot;:true}" fill="#ff0000" fill-rule="evenodd" stroke="none" stroke-width="0" stroke-linecap="round" stroke-linejoin="round" stroke-miterlimit="10" stroke-dasharray="" stroke-dashoffset="0" style="mix-blend-mode: normal"><path d="M244.33479,159.71725l-0.59998,1.31995l0.51998,0.33999l0.69997,1.91992l-1.13995,0.72997l-0.09,1.59994l-0.54998,0.77997l0.63997,0.59998l1.52994,-0.29999l1.78993,0.70997l1.05996,-0.62997l0.04,-0.83997l2.05992,0.09l2.15991,-0.54998l1.05996,0.28999l1.29995,-1.72993l1.56994,-0.41998l0.33999,-0.62997l0.97996,0.44998l0.49998,-0.58998l1.22995,0.56998l-0.03,1.44994l1.57994,2.06992l1.59994,-0.15999l2.90988,1.53994l0.66997,-0.78997l0.93996,-0.08l1.53994,-0.65997l0.23999,0.50998l2.96988,-0.47998l1.14995,0.89996l-1.54994,2.00992l-1.61994,2.90988l-0.73997,2.10992l-0.31999,2.5599l-0.69997,3.31987l0.22999,1.62993l1.26995,0.57998l1.31995,1.14995l-0.12999,3.09988l0.19999,0.87996l-0.57998,1.96992l-1.22995,0.65997l-0.24999,0.98996l2.30991,-0.53998l1.23995,0.60998l0.83997,-0.25999l1.47994,0.89996l3.98984,0.61998l1.90992,1.02996l1.32995,2.73989l-0.44998,1.18995l0.23999,0.62997l-1.10996,0.68997l-0.17999,1.12995l1.50994,0.94996l-0.64997,1.06996l-0.58998,-0.34999l-1.03996,0.66997l-2.33991,-0.08l-0.06,0.90996l-1.07996,0.64997l-2.06992,2.34991l-0.16999,1.87992l0.34999,0.39998l-0.58998,1.18995l-2.73989,0.87996l-0.28999,-1.21995l-2.16991,0.64997l-0.67997,-0.12l-2.3999,1.22995l-0.94996,1.03996l-2.11992,0.43998l0.19999,0.62997l-1.40994,0.88996l-1.98992,0.60998l-1.35995,-0.46998l-0.81997,0.41998l-1.26995,-0.01l-1.97992,1.11996l-0.11,0.46998l-1.94992,-0.57998l-1.51994,0.38998l-1.43994,-0.37998l-0.45998,0.44998l-2.5099,-0.50998l-0.82997,0.33999l-1.70993,-0.18999l-1.61994,2.92988l1.43994,1.68993l-1.17995,0.45998l-0.86997,1.14995l-3.56986,0.85997l-0.72997,-0.22999l-2.14991,1.21995l0.26999,0.66997l-0.55998,1.39994l-1.48994,-0.22999l-0.76997,0.42998l-0.22999,0.92996l-2.88988,-0.30999l-0.72997,-1.11996l-1.29995,-0.44998l-0.67997,-0.83997l-0.56998,-1.62993l-0.12,-1.23995l-0.93996,-2.4099l-1.67993,-1.16995l0.71997,-1.99992l1.37994,-1.23995l-0.15999,-1.53994l0.71997,-0.77997l1.53994,-0.06l0.66997,-0.84997l1.32995,-0.28999l2.00992,0.38998l0.67997,-0.86997l2.02992,0.42998l0.99996,-0.61998l1.68993,0.26999l0.38998,-2.25991l0.62997,-1.70993l1.28995,-0.95996l0.05,-0.68997l-1.42994,-0.79997l0.50998,-1.76993l-0.98996,-1.58994l-1.62993,0.66997l-1.14995,0.81997l-1.43994,-0.50998l0.40998,-1.68993l-1.19995,-1.43994l-0.42998,-1.57994l-0.88996,0.47998l-0.69997,-0.41998l-2.09992,1.54994l-0.79997,-1.20995l-1.95992,-0.1l-1.95992,-1.26995l-1.10996,-0.20999l0.05,-0.66997l-1.09996,-0.64997l0.22999,-1.54994l-0.54998,-0.90996l1.58994,-2.35991l0.63997,-0.27999l0.46998,-1.43994l-0.90996,-2.16991l1.32995,-0.81997l0.86997,-2.01992l-0.43998,-0.44998l-0.69997,-2.26991l-1.51994,-0.24999l-0.56998,-0.77997l1.20995,-0.43998l0.47998,-0.58998l-0.30999,-1.11996l-1.24995,-1.78993l-2.5299,-2.10992l-0.09,-1.08996l0.42998,-1.77993l-1.09996,-0.34999l-0.03,-1.11996l0.60998,0.11l1.27995,-0.94996l1.03996,-0.08l2.13991,-0.61998l1.75993,-0.97996l0.45998,-0.83997l-0.75997,-1.37994l0.74997,-1.17995l0.92996,-0.05l0.38998,-1.48994l1.80993,-1.12995l-0.42998,-1.29995l-0.88996,0.41998l-1.42994,-0.15999l-1.18995,-0.69997l1.47994,-2.4099l1.04996,-0.69997l0.39998,1.17995l1.51994,1.09996l0.48998,-0.61998l1.20995,0.75997l1.83993,-0.71997l1.38994,0.25999l1.72993,1.93992l2.96988,1.07996l2.28991,0.39998l3.29987,-1.52994"/></g></g></svg>