<svg version="1.1" xmlns="http://www.w3.org/2000/svg" xmlns:xlink="http://www.w3.org/1999/xlink" width="168.1" height="32.878" viewBox="0,0,168.1,32.878"><g transform="translate(-240,-180)"><g data-paper-data="{&quot;isPaintingLayer&quot;:true}" stroke="none" stroke-linecap="butt" stroke-linejoin="miter" stroke-miterlimit="10" stroke-dasharray="" stroke-dashoffset="0" style="mix-blend-mode: normal"><path d="M248,180h152.1c4.432,0 8,3.568 8,8v16.878c0,4.432 -3.568,8 -8,8h-152.1c-4.432,0 -8,-3.568 -8,-8v-16.878c0,-4.432 3.568,-8 8,-8z" fill-opacity="0.7" fill="#000000" fill-rule="evenodd" stroke-width="0"/><g fill="#ffffff" fill-rule="nonzero" stroke-width="1"><path d="M252.55,190.57v0.76953h2.2695v0.70312h-2.2695v1.6641h1.0469v-1.2891h0.81641v2.3867h-0.81641v-0.41797h-2.8633v0.41797h-0.81641v-2.3867h0.81641v1.2891h0.99219v-1.6641h-2.1602v-0.70312h2.1602v-0.76953h-1.8516v-0.67969h3.0859c0.25,-0.46875 0.48828,-1.03125 0.71484,-1.6875l0.77735,0.3125c-0.19271,0.44271 -0.42448,0.90104 -0.69531,1.375h0.72656v0.67969zM248.1555,188.6442v-1.4414h0.83985v1.4414h0.77734v0.77735h-0.77734v1.2617c0.19271,-0.06513 0.41666,-0.14717 0.67187,-0.2461l0.0977,0.73438c-0.30209,0.1276 -0.5586,0.23177 -0.76953,0.3125v2.5976c0,0.22917 -0.04167,0.39583 -0.125,0.5c-0.10677,0.13021 -0.31511,0.19532 -0.625,0.19532c-0.28125,0 -0.54297,-0.02603 -0.78516,-0.0781l-0.16016,-0.8164c0.3125,0.04687 0.53906,0.0703 0.67969,0.0703c0.08073,0 0.13021,-0.01693 0.14844,-0.0508c0.0182,-0.02867 0.0273,-0.07815 0.0273,-0.14844v-1.9648c-0.26562,0.08854 -0.53515,0.17317 -0.80859,0.2539l-0.23828,-0.80469c0.4401,-0.11197 0.77083,-0.20182 0.99219,-0.26953c0.0182,-0.00533 0.03643,-0.01053 0.0547,-0.0156v-1.5312h-0.93359v-0.77735zM249.6047,187.65202c1.6198,-0.07292 3.0599,-0.22787 4.3203,-0.46485l0.52735,0.64844c-1.45053,0.25781 -2.96487,0.43359 -4.543,0.52734zM250.50705,189.84342c-0.13021,-0.44791 -0.28777,-0.85285 -0.47266,-1.2148l0.72266,-0.24219c0.21875,0.42448 0.38411,0.82421 0.49609,1.1992zM251.95625,189.75362c-0.09895,-0.44531 -0.2539,-0.86068 -0.46484,-1.2461l0.72656,-0.24219c0.21615,0.38021 0.38412,0.80207 0.50391,1.2656z"/><path d="M256.83,187.38h0.86328v2.207c0.61979,-0.64323 1.11589,-1.08463 1.4883,-1.3242c0.34635,-0.22396 0.70572,-0.33594 1.0781,-0.33594c0.375,0 0.67708,0.10547 0.90625,0.31641c0.30208,0.28125 0.45312,0.64975 0.45312,1.1055c0,0.11979 -0.01563,0.27865 -0.0469,0.47656c-0.22917,1.45573 -0.34375,2.46353 -0.34375,3.0234c0,0.23958 0.0612,0.35937 0.18359,0.35937c0.07813,0 0.18099,-0.04427 0.3086,-0.13281c0.26823,-0.18489 0.53906,-0.48828 0.8125,-0.91015l0.32031,0.89453c-0.16667,0.26562 -0.3737,0.5013 -0.6211,0.70703c-0.28645,0.23958 -0.59244,0.35937 -0.91796,0.35937c-0.3099,0 -0.55079,-0.10807 -0.72266,-0.32422c-0.14583,-0.18489 -0.21875,-0.49349 -0.21875,-0.92578c0,-0.32812 0.04297,-0.82162 0.12891,-1.4805c0.10937,-0.82813 0.18229,-1.44273 0.21875,-1.8438c0.00533,-0.06513 0.008,-0.11982 0.008,-0.16406c0,-0.22917 -0.04818,-0.40495 -0.14453,-0.52734c-0.09115,-0.11719 -0.21745,-0.17578 -0.37891,-0.17578c-0.54427,0 -1.38151,0.72527 -2.5117,2.1758v3.6875h-0.86328v-2.7031c-0.43489,0.60938 -0.83593,1.18491 -1.2031,1.7266l-0.40625,-0.92579c0.61719,-0.7474 1.15365,-1.45963 1.6094,-2.1367v-0.99219h-1.3711v-0.78516h1.3711z"/><path d="M263.88,188.3h2.1055c0.23177,-0.36979 0.40756,-0.66796 0.52735,-0.89453l0.87109,0.125c-0.07813,0.14063 -0.21615,0.36979 -0.41406,0.6875l-0.0508,0.082h2.7539v0.76954h-3.2734c-0.34115,0.46875 -0.66667,0.87501 -0.97657,1.2188c0.49219,-0.29427 0.94143,-0.44141 1.3477,-0.44141c0.63021,0 1.04297,0.31641 1.2383,0.94922c0.66667,-0.22135 1.34637,-0.4401 2.0391,-0.65625l0.33594,0.75781l-0.13672,0.0391l-0.38672,0.10157c-0.7292,0.19791 -1.31253,0.36718 -1.75,0.50781c0.03127,0.33854 0.0534,0.77604 0.0664,1.3125l-0.85547,0.0469c-0.00267,-0.30989 -0.00787,-0.64583 -0.0156,-1.0078v-0.0781c-1.19793,0.40885 -1.7969,0.82032 -1.7969,1.2344c0,0.21354 0.15365,0.35937 0.46094,0.4375c0.29687,0.07552 0.82814,0.11328 1.5938,0.11328c0.70573,0 1.44663,-0.04036 2.2227,-0.12109l0.0937,0.83203c-0.7526,0.05727 -1.53253,0.0859 -2.3398,0.0859c-0.9948,0 -1.70183,-0.07552 -2.1211,-0.22657c-0.51823,-0.1875 -0.77735,-0.52473 -0.77735,-1.0117c0,-0.41146 0.1836,-0.77473 0.55079,-1.0898c0.38021,-0.32552 1.04947,-0.66145 2.0078,-1.0078c-0.05207,-0.20052 -0.12108,-0.34115 -0.20703,-0.42188c-0.09635,-0.09114 -0.22396,-0.13671 -0.38282,-0.13671c-0.25781,0 -0.58202,0.09765 -0.97265,0.29296c-0.48177,0.23959 -0.99871,0.60025 -1.5508,1.082l-0.51953,-0.59375c0.80987,-0.7526 1.44397,-1.4922 1.9023,-2.2188h-1.5898z"/><path d="M276.78,192.45c0.19791,0.33073 0.43359,0.60808 0.70703,0.83203c0.35417,0.28646 0.8034,0.53516 1.3477,0.7461l-0.47266,0.77734c-0.97133,-0.40365 -1.67967,-1.08071 -2.125,-2.0312c-0.16927,0.49739 -0.4375,0.92446 -0.80469,1.2812c-0.33073,0.32031 -0.77473,0.59896 -1.332,0.83594l-0.54297,-0.6875c0.64063,-0.20833 1.12629,-0.47787 1.457,-0.8086c0.27865,-0.27864 0.48568,-0.59374 0.6211,-0.94531h-1.5117v-2.1016h1.6562v-0.65625h-0.84766v-0.34766c-0.28125,0.24479 -0.59375,0.45964 -0.9375,0.64453l-0.30859,-0.41406h-0.64844v0.66797c0.34115,0.28646 0.67057,0.60417 0.98828,0.95313l-0.41406,0.74218c-0.1875,-0.27343 -0.37891,-0.53645 -0.57422,-0.78906v3.6562h-0.80078v-3.5078c-0.25781,0.7396 -0.53255,1.3646 -0.82422,1.875l-0.34375,-0.91406c0.47917,-0.80467 0.84377,-1.6992 1.0938,-2.6836h-0.96484v-0.76172h1.0391v-1.6094h0.80078v1.6094h0.69531v0.45703c0.83073,-0.48697 1.46487,-1.17577 1.9024,-2.0664h0.88672c0.39323,0.61198 0.89063,1.12371 1.4922,1.5352c0.26042,0.17709 0.56381,0.35417 0.91016,0.53125l-0.47266,0.67188c-0.36197,-0.19531 -0.69661,-0.40755 -1.0039,-0.63672v0.38672h-0.875v0.65625h1.6875v2.1016zM275.79562,190.9656h-0.91796v0.85937h0.91796zM276.55734,190.9656v0.85937h0.94141v-0.85937zM275.27214,189.0203h1.832c-0.36979,-0.32291 -0.70443,-0.70441 -1.0039,-1.1445c-0.21615,0.40885 -0.49219,0.79035 -0.82812,1.1445z"/><path d="M283.41,189.85h1.9062v-1.9453h0.87109v2.7227h-2.7773v2.8867h2.1523v-1.8008h0.88672v3.0898h-0.88672v-0.49609h-5.1289v0.49609h-0.87891v-3.0898h0.87891v1.8008h2.1055v-2.8867h-2.7266v-2.7227h0.8711v1.9453h1.8555v-2.6484h0.87109z"/><path d="M287.97,187.53h0.92187v4.6562c0,0.9818 0.51563,1.4727 1.5469,1.4727c0.67967,0 1.23697,-0.3138 1.6719,-0.94141c0.28125,-0.40365 0.53386,-1.02865 0.75782,-1.875l0.79297,0.48047c-0.26563,0.94013 -0.58464,1.64327 -0.95704,2.1094c-0.58593,0.72653 -1.34767,1.0898 -2.2852,1.0898c-0.9792,0 -1.6693,-0.30208 -2.0703,-0.90625c-0.25261,-0.37761 -0.37891,-0.86457 -0.37891,-1.4609z"/><path d="M294.46,188.59h1.8242c0.07292,-0.32291 0.15495,-0.74088 0.2461,-1.2539l0.88281,0.10937c-0.07813,0.40365 -0.16146,0.78515 -0.25,1.1445h2.6016v0.77735h-2.7852c-0.52083,2.08073 -1.09637,3.806 -1.7266,5.1758l-0.86328,-0.30469c0.68487,-1.5182 1.25517,-3.1419 1.7109,-4.8711h-1.6406zM301.3741,194.3361c-0.42188,0.05467 -0.89585,0.082 -1.4219,0.082c-0.85153,0 -1.49477,-0.07292 -1.9297,-0.21875c-0.16667,-0.05727 -0.30859,-0.138 -0.42578,-0.24219c-0.22917,-0.20833 -0.34375,-0.47396 -0.34375,-0.79687c0,-0.33073 0.10677,-0.6224 0.32031,-0.875l0.69532,0.41015c-0.08073,0.10157 -0.1211,0.21355 -0.1211,0.33594c0,0.21094 0.09636,0.34766 0.28907,0.41016c0.29427,0.09375 0.71353,0.14062 1.2578,0.14062c0.52865,0 1.05598,-0.03906 1.582,-0.11719zM297.71,190.465c1.0208,-0.11719 2.138,-0.17969 3.3516,-0.1875l0.0391,0.79297c-1.19013,0.00533 -2.2826,0.06132 -3.2774,0.16797z"/><path d="M306.21,188.04h3.125v0.69531h-3.125v0.83204h2.6758v2.6016h-5.8164v-2.6016h2.2617v-2.3672h0.87891zM303.9327,190.2314v1.2656h4.0898v-1.2656zM302.1319,194.3056c0.37239,-0.45313 0.65755,-0.97916 0.85546,-1.5781l0.83204,0.28906c-0.21094,0.7292 -0.49349,1.32687 -0.84766,1.793zM304.8428,194.75091c-0.09115,-0.70833 -0.19531,-1.27863 -0.3125,-1.7109l0.83985,-0.17578c0.19791,0.57292 0.33203,1.11719 0.40234,1.6328zM306.8936,194.62591c-0.16145,-0.52865 -0.38541,-1.06771 -0.67187,-1.6172l0.78125,-0.28125c0.30469,0.44792 0.5612,0.97135 0.76953,1.5703zM308.9717,194.64151c-0.20573,-0.55208 -0.51172,-1.11848 -0.91797,-1.6992l0.76563,-0.35938c0.35937,0.4375 0.69531,0.9922 1.0078,1.6641z"/><path d="M310.42,188.15c2.39587,-0.03647 4.6602,-0.09767 6.793,-0.1836l0.0469,0.77735c-0.94013,0.04687 -1.6719,0.19009 -2.1953,0.42968c-0.5,0.22917 -0.90103,0.54688 -1.2031,0.95313c-0.34375,0.46094 -0.51562,0.97397 -0.51562,1.5391c0,0.5625 0.19531,0.98437 0.58594,1.2656c0.44791,0.32031 1.13541,0.54036 2.0625,0.66015l-0.1836,0.87891c-1.20833,-0.16146 -2.0586,-0.47396 -2.5508,-0.9375c-0.52865,-0.49479 -0.79297,-1.10939 -0.79297,-1.8438c0,-0.66667 0.23958,-1.28907 0.71875,-1.8672c0.34896,-0.42448 0.82683,-0.76561 1.4336,-1.0234c-1.07553,0.03647 -2.46227,0.09767 -4.1602,0.1836zM316.0997,191.5211c-0.15365,-0.40885 -0.41276,-0.87239 -0.77735,-1.3906l0.60938,-0.22657c0.32552,0.44792 0.58724,0.90625 0.78515,1.375zM317.1544,191.11094c-0.18489,-0.47917 -0.4427,-0.9453 -0.77343,-1.3984l0.58203,-0.20703c0.30469,0.36979 0.5638,0.81772 0.77734,1.3438z"/><path d="M318.84,187.53h0.91016v4.2734h-0.91016zM322.8517,187.448h0.91016v2.793c0,0.9818 -0.07943,1.71227 -0.23828,2.1914c-0.13281,0.40885 -0.3138,0.73437 -0.54297,0.97656c-0.47657,0.51302 -1.2422,0.89192 -2.2969,1.1367l-0.44922,-0.80078c1.15367,-0.23438 1.89327,-0.62371 2.2188,-1.168c0.20573,-0.34635 0.32943,-0.78385 0.3711,-1.3125c0.0182,-0.24479 0.0273,-0.58333 0.0273,-1.0156z"/><path d="M325.14,188h6.1211l0.50391,0.42578c-0.14583,0.54427 -0.33594,0.99871 -0.57031,1.3633c-0.44011,0.69013 -1.09897,1.20577 -1.9766,1.5469l-0.49219,-0.67188c0.60677,-0.18229 1.11067,-0.50912 1.5117,-0.98047c0.23698,-0.27865 0.40234,-0.57292 0.49609,-0.88281h-5.5938zM327.6439,189.6875h0.89453v0.67187c0,1.0078 -0.11198,1.78643 -0.33594,2.3359c-0.28385,0.69793 -0.83592,1.26563 -1.6562,1.7031l-0.64453,-0.67969c0.56511,-0.26823 0.97787,-0.58854 1.2383,-0.96094c0.20052,-0.28906 0.33203,-0.59505 0.39453,-0.91797c0.07292,-0.36979 0.10938,-0.86589 0.10938,-1.4883z"/><path d="M334.05,187.81h0.8789v1.4219c0,1.362 -0.10156,2.3568 -0.30468,2.9844c-0.26823,0.83073 -0.83073,1.52343 -1.6875,2.0781l-0.59766,-0.69531c0.59375,-0.41667 1.01171,-0.84897 1.2539,-1.2969c0.20312,-0.37761 0.33723,-0.88411 0.40234,-1.5195c0.03647,-0.35937 0.0547,-0.87111 0.0547,-1.5352zM336.05,187.58344h0.8789v5.5508c0.51823,-0.26823 0.97267,-0.64973 1.3633,-1.1445c0.42709,-0.54167 0.7461,-1.1836 0.95704,-1.9258l0.6875,0.66406c-0.26042,0.77347 -0.61719,1.43363 -1.0703,1.9805c-0.57031,0.69013 -1.31771,1.2331 -2.2422,1.6289l-0.57422,-0.4961z"/><path d="M346.3,188.25l0.5586,0.45703c-0.36459,1.66667 -0.95572,2.95703 -1.7734,3.8711c-0.45313,0.50521 -1.03906,0.94791 -1.7578,1.3281c-0.51042,0.26823 -1.05859,0.48178 -1.6445,0.64063l-0.45313,-0.76953c1.33853,-0.34896 2.3776,-0.90626 3.1172,-1.6719c-0.60937,-0.54687 -1.28124,-1.03124 -2.0156,-1.4531l0.51172,-0.63282c0.71613,0.3724 1.39713,0.83073 2.043,1.375c0.50781,-0.81253 0.82682,-1.599 0.95703,-2.3594h-2.75c-0.63021,0.9818 -1.37241,1.7331 -2.2266,2.2539l-0.57422,-0.6211c0.82553,-0.49739 1.50393,-1.15493 2.0352,-1.9726c0.27343,-0.41667 0.48567,-0.8659 0.63672,-1.3477l0.84765,0.20703c-0.08593,0.23437 -0.18229,0.46614 -0.28906,0.69531z"/><path d="M350.61,194.45v-4.0078c-0.79167,0.53125 -1.6953,0.97919 -2.7109,1.3438l-0.47266,-0.79297c1.15367,-0.38802 2.1654,-0.88802 3.0352,-1.5c0.85413,-0.60156 1.61453,-1.29036 2.2812,-2.0664l0.75391,0.47265c-0.59115,0.67967 -1.25001,1.30337 -1.9766,1.8711v4.6797z"/><path d="M354,193.11c0.17969,-0.00267 0.42708,-0.0157 0.74219,-0.0391c0.7422,-1.66667 1.4258,-3.5013 2.0508,-5.5039l0.89453,0.23437c-0.61459,1.92187 -1.27085,3.65753 -1.9688,5.207c1.32293,-0.09635 2.4961,-0.21354 3.5195,-0.35156c-0.38541,-0.67967 -0.77735,-1.30727 -1.1758,-1.8828l0.76953,-0.48828c0.82033,1.1302 1.5404,2.32813 2.1602,3.5938l-0.87891,0.45703c-0.14323,-0.30209 -0.30078,-0.61719 -0.47266,-0.94532c-1.5208,0.25521 -3.3372,0.48178 -5.4492,0.67969z"/><path d="M364.72,188.25v-0.33594h-2.4414v-0.5586h5.7656v0.5586h-2.4922v0.33594h3.2344v1.4023h-0.84766v-0.89844h-2.3867v1.5195h-0.83203v-1.5195h-2.3438v0.89844h-0.83984v-1.4023zM367.4856,193.793c0.39844,0.15105 0.89584,0.27084 1.4922,0.35938l-0.45703,0.66406c-0.83593,-0.14323 -1.52213,-0.38932 -2.0586,-0.73828c-0.53385,-0.34896 -0.94922,-0.78256 -1.2461,-1.3008h-0.86328v1.2031c0.57552,-0.08073 1.10939,-0.16666 1.6016,-0.25781l0.0547,0.58203c-0.91667,0.21875 -1.96483,0.40886 -3.1445,0.57032l-0.23047,-0.6875c0.40885,-0.04427 0.6888,-0.0755 0.83985,-0.0937l0.0469,-0.008v-1.3086h-0.85547c-0.03647,0.45833 -0.09636,0.82423 -0.17969,1.0977c-0.09895,0.32812 -0.25781,0.63411 -0.47656,0.91796l-0.69531,-0.57421c0.25521,-0.33073 0.41406,-0.71747 0.47656,-1.1602c0.03387,-0.23959 0.0508,-0.53776 0.0508,-0.89453v-1.6562h6.7422v0.51953h-5.9023v1.1992h6.2383v0.55078h-0.88672l0.49609,0.32812c-0.29427,0.24479 -0.64193,0.47396 -1.043,0.6875zM366.87623,193.49222c0.375,-0.25521 0.67318,-0.49349 0.89453,-0.71484h-1.707c0.22396,0.28646 0.49479,0.52474 0.8125,0.71484zM362.72003,189.04302h1.6641v0.44141h-1.6641zM362.72003,189.76177h1.6641v0.44922h-1.6641zM365.88803,189.04302h1.7148v0.44141h-1.7148zM365.88803,189.76177h1.7148v0.44922h-1.7148zM363.14583,191.35557h4.8633v0.51172h-4.8633z"/><path d="M373.77,187.9h3.0625v0.65625h-1.7344v0.64844h1.625v0.63281h-1.625v1.1641h-3.1445v-1.1641h-1.2812v0.72657c0,1.17967 -0.0625,2.11197 -0.1875,2.7969c-0.09635,0.52083 -0.2526,0.9961 -0.46875,1.4258l-0.71093,-0.5625c0.19791,-0.42969 0.33333,-0.95442 0.40625,-1.5742c0.06507,-0.54427 0.0976,-1.23957 0.0976,-2.0859v-2.6641h3.0898v-0.70312h0.87109zM370.6723,188.55625v0.64844h1.2812v-0.64844zM372.7856,188.55625v0.64844h1.4805v-0.64844zM372.7856,189.83745v0.60547h1.4805v-0.60547zM373.69185,193.93905c-0.7526,0.39062 -1.70833,0.68749 -2.8672,0.89062l-0.40625,-0.71875c1.08853,-0.13021 1.9414,-0.32943 2.5586,-0.59766c-0.52865,-0.38281 -0.98048,-0.83724 -1.3555,-1.3633h-0.53906v-0.67968h4.5742l0.41016,0.34375c-0.38803,0.59635 -0.94143,1.15755 -1.6602,1.6836c0.61719,0.24739 1.45832,0.42968 2.5234,0.54687l-0.45703,0.73829c-1.0208,-0.13803 -1.94787,-0.41928 -2.7812,-0.84375zM372.53165,192.14995c0.31511,0.36979 0.69791,0.69532 1.1484,0.97657c0.50781,-0.32813 0.89975,-0.65365 1.1758,-0.97657z"/><path d="M377.53,188.93h1.7266c0.07812,-0.40104 0.16536,-0.89974 0.26171,-1.4961l0.0195,-0.11328l0.85546,0.1289c-0.08854,0.55209 -0.17968,1.04559 -0.27343,1.4805h0.47265c0.625,0 1.07293,0.14063 1.3438,0.42188c0.24219,0.2526 0.36328,0.64583 0.36328,1.1797c0,0.89847 -0.09505,1.7383 -0.28515,2.5195c-0.10937,0.44271 -0.24219,0.76954 -0.39844,0.98047c-0.19791,0.26302 -0.47265,0.39453 -0.82422,0.39453c-0.42187,0 -0.88281,-0.13542 -1.3828,-0.40625l0.0977,-0.82421c0.49479,0.23697 0.87889,0.35546 1.1523,0.35546c0.14323,0 0.2539,-0.07682 0.33203,-0.23046c0.08333,-0.16667 0.16276,-0.40755 0.23828,-0.72266c0.14844,-0.63802 0.22266,-1.30859 0.22266,-2.0117c0,-0.36979 -0.07422,-0.60938 -0.22266,-0.71875c-0.1276,-0.09115 -0.35546,-0.13672 -0.68359,-0.13672h-0.60156c-0.41407,1.84373 -1.0078,3.41667 -1.7812,4.7188l-0.78516,-0.42969c0.79947,-1.34113 1.36977,-2.77083 1.7109,-4.2891h-1.5586zM384.0183,192.7855c-0.29427,-1.08333 -0.7591,-2.14713 -1.3945,-3.1914l0.76172,-0.34375c0.65625,1.04687 1.14715,2.10027 1.4727,3.1602zM383.44018,189.0433c-0.16146,-0.42187 -0.42188,-0.89061 -0.78125,-1.4062l0.60547,-0.22656c0.3151,0.44531 0.57942,0.90755 0.79297,1.3867zM384.49098,188.70736c-0.20313,-0.5026 -0.46224,-0.97527 -0.77734,-1.418l0.57422,-0.19141c0.29947,0.35677 0.56119,0.80207 0.78515,1.3359z"/><path d="M389.39,189.43h2.8203v0.80078h-2.8203v3.2656h3.5664v0.81641h-7.6016v-0.81641h3.0898v-6.2969h0.94531z"/><path d="M400.15,187.43v2.8359h-5.9844v-2.8359zM395.0367,188.04718v0.48829h4.2422v-0.48829zM395.0367,189.10188v0.54688h4.2422v-0.54688zM396.2476,191.13708v0.80859h2v-1.4922h0.88672v1.4922h1.8398v0.71094h-1.8398v2.1445h-0.88672v-2.1445h-2.0391c-0.09115,0.50261 -0.31771,0.93881 -0.67969,1.3086c-0.29948,0.30729 -0.75391,0.58594 -1.3633,0.83594l-0.5586,-0.66406c0.52344,-0.13802 0.92837,-0.34896 1.2148,-0.63281c0.26823,-0.26303 0.44271,-0.54558 0.52344,-0.84766h-1.9219v-0.71094h1.9609v-0.66406c-0.42448,0.05987 -0.82681,0.10674 -1.207,0.14062l-0.32813,-0.60937c1.18227,-0.08594 2.17317,-0.25651 2.9727,-0.51172l0.53906,0.57031c-0.34896,0.09635 -0.68489,0.17708 -1.0078,0.24219z"/><path d="M247.97,198.33h0.92187v4.6562c0,0.9818 0.51563,1.4727 1.5469,1.4727c0.67967,0 1.23697,-0.3138 1.6719,-0.94141c0.28125,-0.40364 0.53386,-1.02864 0.75782,-1.875l0.79297,0.48047c-0.26563,0.94013 -0.58464,1.64327 -0.95704,2.1094c-0.58593,0.72653 -1.34767,1.0898 -2.2852,1.0898c-0.9792,0 -1.6693,-0.30208 -2.0703,-0.90625c-0.25261,-0.3776 -0.37891,-0.86457 -0.37891,-1.4609z"/><path d="M254.46,199.39h1.8242c0.07292,-0.32291 0.15495,-0.74088 0.2461,-1.2539l0.88281,0.10937c-0.07813,0.40365 -0.16146,0.78515 -0.25,1.1445h2.6016v0.77735h-2.7852c-0.52083,2.08073 -1.09637,3.806 -1.7266,5.1758l-0.86328,-0.30469c0.68487,-1.5182 1.25517,-3.1419 1.7109,-4.8711h-1.6406zM261.3741,205.1361c-0.42188,0.05467 -0.89585,0.082 -1.4219,0.082c-0.85153,0 -1.49477,-0.07292 -1.9297,-0.21875c-0.16667,-0.05727 -0.30859,-0.138 -0.42578,-0.24219c-0.22917,-0.20833 -0.34375,-0.47396 -0.34375,-0.79687c0,-0.33073 0.10677,-0.6224 0.32031,-0.875l0.69532,0.41015c-0.08073,0.10157 -0.1211,0.21355 -0.1211,0.33594c0,0.21094 0.09636,0.34766 0.28907,0.41016c0.29427,0.09375 0.71353,0.14062 1.2578,0.14062c0.52865,0 1.05598,-0.03906 1.582,-0.11719zM257.71,201.265c1.0208,-0.11719 2.138,-0.17969 3.3516,-0.1875l0.0391,0.79297c-1.19013,0.00533 -2.2826,0.06132 -3.2774,0.16797z"/><path d="M265.36,200.75c-0.14323,-0.14062 -0.28646,-0.26171 -0.42969,-0.36328c-0.08854,0.09896 -0.20442,0.21745 -0.34765,0.35547l-0.42578,-0.48047c0.59635,-0.625 1.02605,-1.375 1.2891,-2.25l0.70312,0.11719c-0.02607,0.08333 -0.06252,0.19531 -0.10937,0.33594h0.74219l0.35937,0.47656c-0.22917,0.7448 -0.57943,1.41407 -1.0508,2.0078h2.2344c-0.38802,-0.39843 -0.70312,-0.8698 -0.94531,-1.4141c-0.15885,-0.36459 -0.30208,-0.81382 -0.42969,-1.3477l0.6875,-0.13672c0.14844,0.64844 0.35287,1.18881 0.61329,1.6211c0.24479,-0.25781 0.42447,-0.47787 0.53906,-0.66016h-0.80078v-0.625h1.2891l0.45703,0.41797c-0.30989,0.50521 -0.67449,0.97394 -1.0938,1.4062c0.34375,0.38802 0.75262,0.71094 1.2266,0.96875l-0.45312,0.64844c-0.38281,-0.25261 -0.71615,-0.51563 -1,-0.78906v0.60546h-2.6016v-0.38281c-0.26303,0.26823 -0.57162,0.51823 -0.92579,0.75l-0.48046,-0.51172c0.36979,-0.21615 0.68749,-0.46615 0.95312,-0.75zM265.71547,200.32032c0.05987,-0.08333 0.11716,-0.17057 0.17187,-0.26172l0.0274,-0.0391c-0.17709,-0.1276 -0.33724,-0.22786 -0.48047,-0.30078c-0.06513,0.09896 -0.12763,0.19011 -0.1875,0.27344c0.16146,0.09115 0.31771,0.20052 0.46875,0.32813zM265.79747,199.05082c-0.03907,0.08594 -0.07683,0.16407 -0.11328,0.23438c0.16406,0.07031 0.32422,0.15625 0.48047,0.25781c0.06247,-0.13541 0.12887,-0.29948 0.19922,-0.49219zM263.06307,203.93752v1.668h-0.76172v-7.3125h1.9531l0.33594,0.30469c-0.17709,0.7526 -0.40886,1.5039 -0.69531,2.2539c0.40885,0.57552 0.61328,1.23305 0.61328,1.9726c0,0.42969 -0.05859,0.72786 -0.17578,0.89453c-0.11979,0.17448 -0.35157,0.26172 -0.69532,0.26172c-0.17708,0 -0.36848,-0.01433 -0.57421,-0.043zM263.03567,203.17971c0.17448,0.02347 0.31641,0.0352 0.42578,0.0352c0.12761,0 0.20703,-0.02603 0.23828,-0.0781c0.03387,-0.05467 0.0508,-0.18487 0.0508,-0.39062c0,-0.66146 -0.1888,-1.26823 -0.56641,-1.8203l0.0391,-0.11328c0.23177,-0.625 0.41276,-1.22527 0.54297,-1.8008h-0.73047zM267.50837,202.98049v1.9102c0,0.27865 -0.0651,0.46745 -0.19531,0.5664c-0.10677,0.07813 -0.29948,0.11719 -0.57813,0.11719c-0.29948,0 -0.56771,-0.01953 -0.80469,-0.0586l-0.16797,-0.75c0.35157,0.05727 0.60808,0.0859 0.76954,0.0859c0.09635,0 0.15234,-0.02343 0.16796,-0.0703c0.0104,-0.02607 0.0156,-0.06643 0.0156,-0.12109v-1.6797h-2.0703v-0.71094h5.0625v0.71094zM264.17247,204.74609c0.47917,-0.4375 0.85547,-0.95963 1.1289,-1.5664l0.76172,0.27344c-0.29948,0.67967 -0.70311,1.28123 -1.2109,1.8047zM269.19587,205.15624c-0.38542,-0.58854 -0.80859,-1.11457 -1.2695,-1.5781l0.65625,-0.38281c0.49479,0.44531 0.92969,0.93357 1.3047,1.4648z"/><path d="M270.86,205.26c-0.09896,-0.8854 -0.14844,-1.7656 -0.14844,-2.6406c0,-1.5 0.11068,-2.92447 0.33203,-4.2734l0.85938,0.0899c-0.21094,1.16667 -0.31641,2.48307 -0.31641,3.9492c0,0.9844 0.05469,1.90497 0.16406,2.7617zM273.2038,199.0725h3.7539v0.83204h-3.7539zM277.2233,204.7795c-0.52083,0.08073 -1.13933,0.12109 -1.8555,0.12109c-1.79947,0 -2.6992,-0.52863 -2.6992,-1.5859c0,-0.41927 0.11198,-0.78513 0.33594,-1.0976l0.73828,0.32812c-0.14063,0.19792 -0.21094,0.42058 -0.21094,0.66797c0,0.30469 0.15234,0.51432 0.45703,0.62891c0.33855,0.13021 0.80078,0.19531 1.3867,0.19531c0.63281,0 1.21875,-0.04167 1.7578,-0.125z"/><path d="M283.21,199.64l0.0352,-1.6406h0.78516l-0.0274,1.6406h1.5469c-0.03907,2.72653 -0.13282,4.42707 -0.28125,5.1016c-0.06247,0.28385 -0.16533,0.48307 -0.3086,0.59765c-0.14062,0.10938 -0.36588,0.16407 -0.67578,0.16407c-0.29948,0 -0.58464,-0.01563 -0.85547,-0.0469l-0.16015,-0.80859c0.30729,0.04167 0.58463,0.0625 0.83203,0.0625c0.16667,0 0.27734,-0.04688 0.33203,-0.14063c0.15365,-0.26563 0.26042,-1.64973 0.32031,-4.1523h-0.80469c-0.07031,1.17707 -0.24739,2.1458 -0.53125,2.9062c-0.33593,0.90107 -0.79817,1.65757 -1.3867,2.2695l-0.5586,-0.60938c0.57813,-0.56771 0.99869,-1.28254 1.2617,-2.1445c0.21875,-0.70833 0.36459,-1.51563 0.4375,-2.4219h-1.0352v-0.58985h-4.043v-0.74218h1.7773v-1.0859h0.83203v1.0859h1.582v0.55468zM279.9834,203.3197c-0.32552,-0.36979 -0.67189,-0.71876 -1.0391,-1.0469l0.51953,-0.54688c0.25781,0.22135 0.57422,0.51823 0.94922,0.89063c0.20052,-0.35938 0.375,-0.72788 0.52344,-1.1055l0.71875,0.35156c-0.14844,0.38542 -0.3711,0.84245 -0.66797,1.3711c0.29167,0.32813 0.54948,0.63933 0.77343,0.9336l-0.60937,0.64844c-0.22656,-0.32813 -0.4375,-0.61328 -0.63281,-0.85547c-0.46615,0.65885 -1.01301,1.19662 -1.6406,1.6133l-0.63281,-0.66406c0.69793,-0.38542 1.27737,-0.91535 1.7383,-1.5898zM277.999,201.6556c0.5026,-0.37761 0.9323,-0.92447 1.2891,-1.6406l0.67969,0.35938c-0.35677,0.7552 -0.82424,1.36847 -1.4024,1.8398zM281.8545,201.90951c-0.35156,-0.51303 -0.77863,-1.02996 -1.2812,-1.5508l0.60157,-0.42187c0.49219,0.45833 0.89972,0.92447 1.2226,1.3984z"/><path d="M290.92,202.78c0.77607,0.67187 1.72007,1.21613 2.832,1.6328l-0.52734,0.75391c-1.19273,-0.53646 -2.1732,-1.23699 -2.9414,-2.1016v2.5352h-0.84766v-2.5039c-0.7422,0.95573 -1.69663,1.694 -2.8633,2.2148l-0.51953,-0.70313c1.1068,-0.42447 2.0508,-1.03384 2.832,-1.8281h-2.8008v-0.69531h3.3516v-0.58203h-2.6406v-3.207h6.1797v3.207h-2.6914v0.58203h3.4023v0.69531zM287.627,198.9206v0.63672h1.8086v-0.63672zM287.627,200.1745v0.70313h1.8086v-0.70313zM292.1426,200.87763v-0.70313h-1.8594v0.70313zM292.1426,199.55733v-0.63672h-1.8594v0.63672z"/><path d="M298.28,198.73h2.832v0.69531h-1.1055c-0.13021,0.40886 -0.27344,0.78516 -0.42969,1.1289h2.1055v0.71094h-7.6016v-0.71094h2.0508c-0.10677,-0.36198 -0.2513,-0.73828 -0.43359,-1.1289h-1.0508v-0.69531h2.7773v-0.72656h0.85547zM296.6198,199.42531c0.15365,0.35157 0.28906,0.72787 0.40625,1.1289h1.6758c0.15365,-0.35677 0.28516,-0.73307 0.39454,-1.1289zM300.4636,201.80421v3.8008h-0.87109v-0.41015h-3.4336v0.41015h-0.86329v-3.8008zM296.1589,202.46827v0.67969h3.4336v-0.67969zM296.1589,203.77297v0.75h3.4336v-0.75z"/><path d="M302.76,199.1h2.1055c0.23177,-0.36979 0.40755,-0.66797 0.52734,-0.89454l0.87109,0.125c-0.07812,0.14063 -0.21614,0.36979 -0.41406,0.6875l-0.0508,0.082h2.7539v0.76953h-3.2734c-0.34115,0.46875 -0.66667,0.87501 -0.97656,1.2188c0.49219,-0.29427 0.94139,-0.44141 1.3476,-0.44141c0.63021,0 1.04298,0.31641 1.2383,0.94922c0.66667,-0.22135 1.34637,-0.4401 2.0391,-0.65625l0.33593,0.75781l-0.13671,0.0391l-0.38672,0.10157c-0.7292,0.19791 -1.31253,0.36718 -1.75,0.50781c0.03127,0.33854 0.0534,0.77604 0.0664,1.3125l-0.85547,0.0469c-0.00267,-0.30989 -0.00787,-0.64583 -0.0156,-1.0078v-0.0781c-1.19793,0.40885 -1.7969,0.82032 -1.7969,1.2344c0,0.21354 0.15365,0.35937 0.46094,0.4375c0.29687,0.07552 0.82814,0.11328 1.5938,0.11328c0.70573,0 1.44663,-0.04036 2.2227,-0.12109l0.0937,0.83203c-0.7526,0.05727 -1.53253,0.0859 -2.3398,0.0859c-0.9948,0 -1.70183,-0.07552 -2.1211,-0.22656c-0.51823,-0.1875 -0.77734,-0.52473 -0.77734,-1.0117c0,-0.41146 0.18359,-0.77473 0.55078,-1.0898c0.38021,-0.32552 1.04947,-0.66145 2.0078,-1.0078c-0.05207,-0.20052 -0.12108,-0.34114 -0.20703,-0.42187c-0.09635,-0.09115 -0.22396,-0.13672 -0.38281,-0.13672c-0.25781,0 -0.58203,0.09766 -0.97266,0.29297c-0.48177,0.23958 -0.99871,0.60025 -1.5508,1.082l-0.51953,-0.59375c0.80987,-0.7526 1.44397,-1.4922 1.9023,-2.2188h-1.5898z"/><path d="M313.44,199.73v-0.70312h-3.168v-0.70313h7.2148v0.70313h-3.2148v0.70312h2.4961v2.9961h0.91016v0.71875h-0.91016v1.3594c0,0.27865 -0.07812,0.47266 -0.23437,0.58203c-0.125,0.08594 -0.33203,0.12891 -0.6211,0.12891c-0.33073,0 -0.75779,-0.01563 -1.2812,-0.0469l-0.15234,-0.80859c0.50781,0.05727 0.92448,0.0859 1.25,0.0859c0.10156,0 0.16015,-0.02083 0.17578,-0.0625c0.0104,-0.02867 0.0156,-0.07424 0.0156,-0.13672v-1.1016h-4.082v2.1602h-0.84765v-2.1602h-0.91016v-0.71875h0.91016v-2.9961zM313.44,200.40969h-1.6016v0.80078h1.6016zM314.27203,200.40969v0.80078h1.6484v-0.80078zM313.44,201.85109h-1.6016v0.875h1.6016zM314.27203,201.85109v0.875h1.6484v-0.875z"/><path d="M320.01,199.43h1.5195v-1.4336h0.89453v1.4336h2.8047v0.81641h-2.8047v1.6445h2.5625v0.80078h-2.5625v1.8086h3.1133v0.8164h-7.2227v-0.8164h3.2148v-1.8086h-2.7109v-0.80078h2.7109v-1.6445h-1.875c-0.23177,0.45313 -0.5052,0.87369 -0.82031,1.2617l-0.70312,-0.58203c0.625,-0.71613 1.07553,-1.6315 1.3516,-2.7461l0.87109,0.16016c-0.11198,0.42187 -0.22656,0.78514 -0.34375,1.0898z"/><path d="M326.85,198.33h0.92188v4.6562c0,0.9818 0.51563,1.4727 1.5469,1.4727c0.67967,0 1.23697,-0.3138 1.6719,-0.94141c0.28125,-0.40364 0.53385,-1.02864 0.75781,-1.875l0.79297,0.48047c-0.26563,0.94013 -0.58464,1.64327 -0.95703,2.1094c-0.58594,0.72653 -1.34767,1.0898 -2.2852,1.0898c-0.9792,0 -1.6693,-0.30208 -2.0703,-0.90625c-0.25261,-0.3776 -0.37891,-0.86457 -0.37891,-1.4609z"/><path d="M336.48,198.18h0.86329v0.98438h2.457v0.74219h-2.457v0.92968h2.3203v0.73438h-2.3203v1.207c0.92707,0.3125 1.84113,0.78257 2.7422,1.4102l-0.46093,0.74218c-0.68227,-0.51041 -1.44267,-0.96095 -2.2812,-1.3516c-0.0208,0.44531 -0.10674,0.79038 -0.25782,1.0352c-0.26302,0.42448 -0.78125,0.63672 -1.5547,0.63672c-0.59636,0 -1.07553,-0.11198 -1.4375,-0.33594c-0.40365,-0.25 -0.60547,-0.58853 -0.60547,-1.0156c0,-0.51041 0.27213,-0.88801 0.8164,-1.1328c0.36459,-0.16146 0.83855,-0.24219 1.4219,-0.24219c0.22917,0 0.48047,0.01823 0.7539,0.0547v-1.0078h-2.7695v-0.73438h2.7695v-0.92968h-2.9375v-0.74219h2.9375zM336.48,203.305c-0.30989,-0.06507 -0.60677,-0.0976 -0.89062,-0.0976c-0.34635,0 -0.6276,0.05078 -0.84375,0.15234c-0.25781,0.12239 -0.38672,0.29687 -0.38672,0.52344c0,0.1901 0.10026,0.34375 0.30078,0.46094c0.20313,0.11979 0.47396,0.17968 0.8125,0.17968c0.40104,0 0.67708,-0.10677 0.82813,-0.32031c0.11979,-0.16667 0.17968,-0.41536 0.17968,-0.74609z"/><path d="M344.78,198.16h0.87891v1.0781h2.3047v0.75391h-2.3047v1.6719c0.09115,0.32031 0.13672,0.60547 0.13672,0.85547c0,0.92707 -0.20443,1.60807 -0.61328,2.043c-0.44531,0.47656 -1.11588,0.80599 -2.0117,0.98828l-0.44531,-0.66406c0.69533,-0.13281 1.21097,-0.32031 1.5469,-0.5625c0.31511,-0.22917 0.52735,-0.54037 0.63672,-0.9336c-0.27865,0.30469 -0.61068,0.45704 -0.99609,0.45704c-0.43229,0 -0.78256,-0.1224 -1.0508,-0.36719c-0.3151,-0.28907 -0.47265,-0.70833 -0.47265,-1.2578c0,-0.28907 0.06901,-0.56771 0.20703,-0.83594c0.09115,-0.17187 0.20313,-0.3151 0.33594,-0.42969c0.30729,-0.26041 0.67579,-0.39062 1.1055,-0.39062c0.27343,0 0.52083,0.0651 0.74218,0.19531v-0.76953h-3.8555v-0.75391h3.8555zM344.8112,202.2147v-0.14453c0,-0.16667 -0.03906,-0.3138 -0.11718,-0.4414c-0.14583,-0.23959 -0.35677,-0.35938 -0.63282,-0.35938c-0.14062,0 -0.27213,0.03906 -0.39453,0.11719c-0.28646,0.17969 -0.42969,0.45573 -0.42969,0.82812c0,0.23438 0.05208,0.4323 0.15625,0.59375c0.14583,0.22396 0.36068,0.33594 0.64454,0.33594c0.25781,0 0.46223,-0.11589 0.61328,-0.34766c0.10677,-0.16406 0.16015,-0.35807 0.16015,-0.58203z"/></g></g></g></svg>