<svg xmlns="http://www.w3.org/2000/svg" viewBox="0 0 224 64" version="1.1" height="64" width="224">
 <rect stop-color="#000000" fill-rule="evenodd" fill="none" ry="0" rx="0" height="64" width="224"></rect>
 <path stop-color="#000000" fill-rule="evenodd" fill="#31476d" d="m46 31h158c5.54 0 10 4.46 10 10v7c0 5.54-4.46 10-10 10h-158c-5.54 0-10-4.46-10-10v-7c0-5.54 4.46-10 10-10z"></path>
 <g aria-label="到達予想" fill="#fff">
  <path d="m45.724 45.369v-1.2891h1.1333v1.2891h2.0679v1.0098h-2.0679v1.4126q0.4834-0.07519 0.73047-0.11279 0.87012-0.13428 1.7456-0.31152l0.03223 1.0259q-3.2227 0.71436-5.9189 1.0098l-0.29541-1.1226q0.66602-0.06982 2.5728-0.31689v-1.5845h-2.2021v-1.0098zm0.54248-4.646q-0.01611 0.0376-0.03223 0.08057-0.43506 1.1602-0.95605 2.1108 0.06982 0 0.17725-0.0054 1.2783-0.05371 2.186-0.14502-0.4458-0.71436-0.88086-1.2837l0.99902-0.45117q0.99902 1.1924 1.7402 2.6426l-1.0366 0.60156q-0.25244-0.50488-0.33301-0.65527-2.2129 0.31152-4.5171 0.43506l-0.27393-1.0527 0.66064-0.02685q0.06445 0 0.12354-0.0054 0.56396-1.1978 0.8916-2.2451h-1.7671v-0.99902h6.064v0.99902zm3.5933-0.26318h1.0903v6.5581h-1.0903zm2.1216-0.92383h1.1226v8.9429q0 0.58545-0.23096 0.82715-0.2417 0.26318-0.96143 0.26318-0.70898 0-1.5791-0.09668l-0.22022-1.1333q0.71436 0.10742 1.5254 0.10742 0.26318 0 0.31152-0.11279 0.03223-0.0752 0.03223-0.2793z"></path>
  <path d="m56.128 47.297q0.43506 0.47803 0.95605 0.71436 0.87012 0.39746 2.4224 0.39746h4.6621q-0.20947 0.37598-0.36523 1.0205h-4.3398q-1.8262 0-2.7769-0.48877-0.49951-0.25244-1.0205-0.82178-0.87012 1.0205-1.5737 1.563l-0.61768-1.085q0.7251-0.42432 1.52-1.0796v-2.7715h-1.4341v-1.0581h2.5674zm3.3408-7.2295v-0.87012h1.144v0.87012h2.4546v0.83789h-2.4546v0.69824h3.0776v0.85938h-1.2139q-0.17725 0.44043-0.47266 0.95606h1.3804v0.81641h-2.7715v0.60693h2.4868v0.77881h-2.4868v0.6499h3.1045v0.84863h-3.1045v1.0742h-1.144v-1.0742h-3.0024v-0.84863h3.0024v-0.6499h-2.3955v-0.77881h2.3955v-0.60693h-2.6748v-0.81641h1.3535q-0.19336-0.521-0.45117-0.95606h-1.2085v-0.85938h2.981v-0.69824h-2.3525v-0.83789zm1.8154 2.3955h-2.4385q0.01611 0.02686 0.06982 0.13965 0.18799 0.37061 0.34375 0.81641h1.5898q0.2793-0.521 0.43506-0.95606zm-5.876-0.4082q-0.77344-1.2891-1.6382-2.1431l0.90234-0.6499q0.78418 0.73047 1.6973 2.0464z"></path>
  <path d="m70.404 42.232q0.37598 0.19336 0.86475 0.46191l-0.68213 0.55322h3.2334l0.60693 0.60693q-1.2085 1.8208-2.4116 2.9917l-1.0903-0.63916q1.0581-0.9668 1.6973-1.9229h-2.6748v4.2109q0 0.73047-0.35986 0.93457-0.2417 0.13965-0.90234 0.13965-0.86475 0-1.9067-0.10742l-0.26318-1.1978q1.0044 0.16113 1.7832 0.16113 0.29541 0 0.36523-0.09668 0.05371-0.08057 0.05371-0.29541v-3.749h-4.501v-1.0366h5.8223q-1.8154-1.042-3.6309-1.7617l0.87012-0.69287q1.2192 0.48877 2.1538 0.95068 0.82715-0.56396 1.4502-1.1064h-5.7417v-1.0205h7.3047l0.66064 0.64453q-1.4072 1.1333-2.7017 1.9712z"></path>
  <path d="m76.687 42.866q-0.69824 1.2729-1.6167 2.084l-0.61768-0.99902q1.2031-0.91309 2.0303-2.4653h-1.7778v-0.98828h1.9819v-1.2998h1.1548v1.2998h1.5522v0.98828h-1.5522v0.65527q0.95606 0.54785 1.7026 1.1602l-0.6499 0.94531q-0.51025-0.56934-1.0527-1.0151v2.3901h-1.1548zm3.2979 2.5781q0.6875 0.65527 1.3535 1.5737l-0.95605 0.68213q-0.74121-1.144-1.4341-1.7832l0.7627-0.53174v-5.8008h4.5869v5.8599zm0.81104-4.979v0.82178h2.3901v-0.82178zm0 1.6489v0.81104h2.3901v-0.81104zm0 1.6274v0.82178h2.3901v-0.82178zm-6.2036 4.9951q0.61768-1.0098 0.96142-2.4761l1.1172 0.3169q-0.30078 1.7241-1.0312 2.8843zm2.938-2.4653h1.1763v1.7134q0 0.33301 0.16113 0.39746 0.2041 0.0752 1.1279 0.0752 0.88086 0 1.1763-0.05908 0.21484-0.04834 0.27393-0.24707 0.08057-0.26856 0.10742-0.97754l1.187 0.27393q-0.02148 0.80029-0.11816 1.144-0.13428 0.48877-0.39746 0.66602-0.22559 0.15576-0.6499 0.18262-0.88086 0.05371-1.8101 0.05371-1.563 0-1.9067-0.18262-0.32764-0.17725-0.32764-0.75195zm6.5474 2.8789q-0.6499-1.5684-1.4448-2.6587l0.98291-0.58545q0.88623 1.1816 1.5146 2.5513z"></path>
 </g>
 <g aria-label="日" fill="#fff">
  <path fill="#fff" d="m124.76 39.22v12.072h-1.5979v-1.0474h-7.1973v1.0474h-1.5845v-12.072zm-8.7952 1.3629v3.3368h7.1973v-3.3368zm0 4.6594v3.5986h7.1973v-3.5986z"></path>
 </g>
 <g aria-label=":" fill="#fff">
  <path fill="#fff" d="m150.93 50.62q-0.5 0-0.84-0.34t-0.34-0.84 0.34-0.84q0.34-0.36 0.84-0.36t0.84 0.36q0.36 0.34 0.36 0.84t-0.36 0.84q-0.34 0.34-0.84 0.34zm0.02-6.42q-0.5 0-0.84-0.34t-0.34-0.84 0.34-0.84q0.34-0.36 0.84-0.36t0.84 0.36q0.36 0.34 0.36 0.84t-0.36 0.84q-0.34 0.34-0.84 0.34z"></path>
 </g>
 <g aria-label="ごろ" fill="#fff">
  <path d="m177.59 42.94h5.543v1.1655h-5.543zm7.2939 8.0405q-1.7349 0.26318-3.6846 0.26318-2.0034 0-3.2173-0.37598-0.47266-0.14502-0.87549-0.46192-0.61768-0.49414-0.61768-1.3696 0-1.1011 0.84864-1.9282l0.93457 0.61768q-0.51563 0.60693-0.51563 1.144 0 0.60156 0.7251 0.854 0.38672 0.13965 1.23 0.22559 0.69824 0.0752 1.4448 0.0752 1.8853 0 3.561-0.27393zm-0.74121-7.2026q-0.40283-0.9668-1.0742-1.8853l0.82178-0.29541q0.6499 0.87012 1.0796 1.8369zm1.4878-0.2793q-0.37597-0.94531-1.0581-1.8799l0.79492-0.27393q0.58008 0.69824 1.0742 1.7939z"></path>
  <path d="m188.02 42.204h5.3657l0.62841 0.85938q-2.7124 1.8584-4.5762 3.314 1.3482-0.66602 2.6963-0.66602t2.2827 0.56934q1.2139 0.73047 1.2139 2.084 0 2.0732-2.0303 2.8145-1.3374 0.48877-3.7866 0.51025l-0.37598-1.1333q1.8477-0.02148 2.6856-0.17188 1.0098-0.18799 1.5361-0.54785 0.68213-0.47266 0.68213-1.4448 0-0.89697-0.75732-1.3589-0.58545-0.35449-1.5039-0.35449-1.7241 0-2.8091 0.57471-0.82715 0.43506-1.7456 1.2891l-0.83789-0.85938q1.3535-1.3481 3.1367-2.7554 1.2407-0.98291 2.2398-1.6436h-4.0444z"></path>
 </g>
</svg>
