<svg version="1.1" xmlns="http://www.w3.org/2000/svg" xmlns:xlink="http://www.w3.org/1999/xlink" width="208" height="32" viewBox="0,0,208,32"><g transform="translate(-240,-164)"><g data-paper-data="{&quot;isPaintingLayer&quot;:true}" fill-rule="nonzero" stroke="none" stroke-linecap="butt" stroke-linejoin="miter" stroke-miterlimit="10" stroke-dasharray="" stroke-dashoffset="0" style="mix-blend-mode: normal"><path d="M240,196v-32h208v32z" fill="none" stroke-width="0"/><path d="M246.66,178.9h11.152v10.605h-2.2559v-1.3476h-9.4043v1.3476h-2.2168v-7.2266c-0.80727,0.8008 -1.67317,1.56577 -2.5977,2.2949l-1.2012,-1.875c1.78387,-1.24347 3.3008,-2.7897 4.5508,-4.6387c0.97007,-1.4388 1.72853,-2.9297 2.2754,-4.4727h-5.9863v-1.9434h18.125v1.9434h-9.7461c-0.6966,1.88153 -1.59503,3.65237 -2.6953,5.3125zM246.15219,180.8043v5.4102h9.4043v-5.4102z" fill="#ffffff" stroke-width="1"/><path d="M262.94,171.3h2.3438v6.6016c0,2.72787 -0.15299,4.81447 -0.45898,6.2598c-0.28646,1.33467 -0.77149,2.52933 -1.4551,3.584c-0.24089,0.37761 -0.57292,0.81707 -0.99609,1.3184l-1.8555,-1.582c1.17187,-1.24347 1.90103,-2.89387 2.1875,-4.9512c0.15625,-1.10027 0.23437,-2.5358 0.23437,-4.3066zM269.1412,171.60273h2.2754v15.898h-2.2754zM275.5572,170.82148h2.3047v18.457h-2.3047z" fill="#ffffff" stroke-width="1"/><path d="M296.76,170.98v9.4629h-11.621v-9.4629zM287.2385,172.523v1.2207h7.4023v-1.2207zM287.2385,175.1207v1.2207h7.4023v-1.2207zM287.2385,177.7183v1.2598h7.4023v-1.2598zM283.3029,181.7417h16.191v1.6992h-8.0762v6.0644h-2.2168v-6.0644h-8.0371v-10.957h2.1387zM280.8029,187.6401c1.54947,-0.71613 3.0306,-1.9173 4.4434,-3.6035l1.7969,1.0449c-1.3932,1.76433 -2.93943,3.15107 -4.6387,4.1602zM297.6389,188.8999c-0.99607,-1.22393 -2.49347,-2.50973 -4.4922,-3.8574l1.6797,-1.1816c1.569,0.90493 3.1087,2.09307 4.6191,3.5644z" fill="#ffffff" stroke-width="1"/><path d="M301.95,174.96c0.8138,-1.4258 1.49413,-2.93947 2.041,-4.541l2.1973,0.45899c-0.63151,1.47133 -1.33138,2.81247 -2.0996,4.0234c0.39713,-0.01953 1.0091,-0.04883 1.8359,-0.0879c0.07161,0 0.56641,-0.0293 1.4844,-0.0879l-0.0586,-0.0977c-0.29297,-0.50131 -0.63151,-1.03191 -1.0156,-1.5918l1.6602,-0.82031c1.13933,1.47787 2.03777,2.89063 2.6953,4.2383l-1.875,1.0254c-0.16927,-0.36459 -0.36459,-0.77475 -0.58594,-1.2305c-2.05727,0.25391 -4.5703,0.44922 -7.5391,0.58594l-0.49805,-1.8359c0.25391,0 0.83984,-0.01303 1.7578,-0.0391zM309.2938,178.0557v9.5606c0,0.6706 -0.15951,1.13283 -0.47852,1.3867c-0.28646,0.22786 -0.77799,0.34179 -1.4746,0.34179c-0.71613,0 -1.37043,-0.04232 -1.9629,-0.12695l-0.32226,-1.8457c0.80727,0.09765 1.3997,0.14648 1.7773,0.14648c0.24089,0 0.38412,-0.04883 0.42969,-0.14648c0.03253,-0.07813 0.0488,-0.19857 0.0488,-0.36133v-1.7774h-3.8184v4.2676h-2.0215v-11.445zM303.493,179.6573v1.2793h3.8184v-1.2793zM303.493,182.4014v1.3672h3.8184v-1.3672zM313.0145,173.4561c1.51693,-0.55339 2.96223,-1.23372 4.3359,-2.041l1.4648,1.4844c-1.97267,1.04167 -3.90627,1.82293 -5.8008,2.3438v1.6504c0,0.32552 0.0944,0.51758 0.2832,0.57617c0.26042,0.08464 0.90169,0.12696 1.9238,0.12696c0.87893,0 1.4258,-0.09766 1.6406,-0.29297c0.16927,-0.15625 0.27994,-0.74545 0.33203,-1.7676c0.00667,-0.19531 0.01317,-0.34831 0.0195,-0.45899l2.0606,0.49805c-0.05207,1.7578 -0.25064,2.82877 -0.59571,3.2129c-0.22135,0.2474 -0.58919,0.41993 -1.1035,0.51758c-0.65755,0.13021 -1.61785,0.19531 -2.8809,0.19531c-1.582,0 -2.6139,-0.11719 -3.0957,-0.35156c-0.45573,-0.22787 -0.68359,-0.7194 -0.68359,-1.4746v-7.1777h2.0996zM313.0145,182.9678c1.52347,-0.50781 3.0827,-1.21095 4.6777,-2.1094l1.3672,1.6211c-2.11587,1.0612 -4.13083,1.82943 -6.0449,2.3047v1.748c0,0.42318 0.13672,0.67383 0.41016,0.75196c0.20833,0.06513 0.74543,0.0977 1.6113,0.0977c1.21093,0 1.90103,-0.10417 2.0703,-0.3125c0.18229,-0.22135 0.29947,-1.05795 0.35156,-2.5098l2.0801,0.55664c-0.013,1.9336 -0.30597,3.13803 -0.87891,3.6133c-0.5013,0.41667 -1.76757,0.625 -3.7988,0.625c-1.60807,0 -2.67253,-0.13021 -3.1934,-0.39063c-0.5013,-0.24088 -0.75195,-0.72915 -0.75195,-1.4648v-7.3633h2.0996z" fill="#ffffff" stroke-width="1"/><path d="M334.79,174.72c0.8268,-0.59896 1.66013,-1.38023 2.5,-2.3438l1.6016,1.0644c-0.7292,0.77473 -1.56903,1.49413 -2.5195,2.1582c0.89193,0.44271 1.9987,0.89845 3.3203,1.3672l-1.0645,1.7188c-1.6992,-0.65755 -3.18357,-1.36719 -4.4531,-2.1289v1.2109h-8.3984v-0.83984c-1.30207,0.83333 -2.85807,1.59507 -4.668,2.2852l-1.0156,-1.6699c1.73173,-0.55989 3.16403,-1.17839 4.2969,-1.8555l-0.0976,-0.0781c-0.86587,-0.70313 -1.7578,-1.31837 -2.6758,-1.8457l1.4941,-1.2988c1.1914,0.76173 2.15493,1.46487 2.8906,2.1094c0.76173,-0.63802 1.39,-1.28255 1.8848,-1.9336h-4.3555v-1.6992h7.2461c0.54037,0.7292 1.10027,1.38023 1.6797,1.9531l0.20508,-0.17578c0.7096,-0.61198 1.36713,-1.26951 1.9726,-1.9726l1.5625,1.1328c-0.66406,0.65104 -1.49413,1.34764 -2.4902,2.0898c0.33203,0.2474 0.69337,0.49805 1.084,0.75196zM326.831,176.1848h6.748c-1.46487,-0.95707 -2.67253,-2.01827 -3.623,-3.1836c-0.7552,1.0156 -1.51367,1.84893 -2.2754,2.5c-0.24089,0.20833 -0.52409,0.4362 -0.84961,0.68359zM335.0732,184.5832c-0.29948,0.78127 -0.72591,1.6797 -1.2793,2.6953h5.5762v1.7383h-18.74v-1.7383h5.2246c-0.44922,-1.1068 -0.85285,-2.00523 -1.2109,-2.6953h-1.5332v-5.3223h13.74v5.3223zM332.749,184.5832h-5.7812c0.39713,0.8594 0.73243,1.71553 1.0059,2.5684l0.0293,0.12695h3.6426l0.0684,-0.14648c0.46875,-1.00913 0.81382,-1.85873 1.0352,-2.5488zM325.3076,180.8039v2.2559h9.3262v-2.2559z" fill="#ffffff" stroke-width="1"/></g></g></svg>