<svg xmlns="http://www.w3.org/2000/svg" viewBox="0 0 120 60" version="1.1" height="60" width="120">
 <rect style="paint-order:stroke markers fill" stop-color="#000000" opacity=".80769" fill="none" height="60" width="120"></rect>
 <g aria-label="5回/秒" fill="#fff">
  <path d="m62.14 13.086h6.624v1.5107h-5.1406l-0.40332 3.2334h0.05469q1.0527-0.75879 2.4404-0.75879 0.9502 0 1.7842 0.43066 1.1689 0.59473 1.6338 1.8115 0.25977 0.68359 0.25977 1.5176 0 1.873-1.3809 2.9531-1.1484 0.89551-2.8574 0.89551-2.4746 0-3.9785-1.4902l0.93652-1.1758q0.54688 0.54004 1.333 0.83398 0.85449 0.32129 1.6816 0.32129 0.93652 0 1.5996-0.51953 0.84766-0.66309 0.84766-1.832 0-1.0186-0.58789-1.6611-0.63574-0.69727-1.7568-0.69727-1.5244 0-2.2354 1.0664l-1.5381-0.25293z"></path>
  <path d="m80.48 15.902v5.373h-5.7148v-5.373zm-4.2998 1.2441v2.8848h2.8711v-2.8848zm7.3623-4.293v12.482h-1.5381v-0.89551h-8.7363v0.89551h-1.5244v-12.482zm-10.274 1.333v8.8662h8.7363v-8.8662z"></path>
  <path d="m90.297 12.149 0.84082 0.37598-5.1543 12.838-0.84082-0.37598z"></path>
  <path d="m94.125 19.676q-0.73144 1.9004-1.6133 3.2129l-0.79297-1.4834q1.4834-1.791 2.2559-4.2861h-2.0029v-1.2988h2.1533v-1.9072q-1.1348 0.18457-1.6406 0.23926l-0.48535-1.1211q2.502-0.30762 4.4092-1.0049l0.84082 1.1074q-0.69726 0.23926-1.5244 0.4375l-0.21191 0.05469v2.1943h1.6953v1.2988h-1.6953v1.0801q1.0186 0.64941 1.9619 1.668l-0.85449 1.2715q-0.46484-0.77246-1.1074-1.4629v5.7354h-1.3877zm6.1455-7.5674h1.4287v7.8408q0 1.1484-1.2441 1.1484-0.59473 0-1.1758-0.08887l-0.23926-1.3535q0.39648 0.08203 0.88867 0.08203 0.2666 0 0.31445-0.11621 0.0273-0.0752 0.0273-0.24609zm3.9238 6.8428q-0.71778-2.2559-1.8389-4.7031l1.1348-0.57422q1.2168 2.1602 1.9482 4.5801zm-7.3828-0.30762q0.84766-1.6201 1.1963-4.5322l1.2988 0.19141q-0.36914 3.4316-1.3467 5.2227zm0.18457 5.6465q2.8711-0.93652 4.6143-3.0967 0.875-1.0869 1.4082-2.5361l1.3398 0.64941q-1.2305 2.7002-3.0352 4.2109-1.3467 1.1211-3.4316 1.9209z"></path>
 </g>
</svg>
