<svg version="1.1" xmlns="http://www.w3.org/2000/svg" xmlns:xlink="http://www.w3.org/1999/xlink" width="159.23605" height="135.07991" viewBox="0,0,159.23605,135.07991"><g transform="translate(63.4467,-160.51403)"><g data-paper-data="{&quot;isPaintingLayer&quot;:true}" fill="none" fill-rule="evenodd" stroke="#d645ff" stroke-width="72" stroke-linecap="round" stroke-linejoin="round" stroke-miterlimit="4" stroke-dasharray="" stroke-dashoffset="0" style="mix-blend-mode: normal"><g><path d="M-24.36719,259.59394l2.91953,-1.14982l1.02984,-4.70925l0.05999,-4.23932l0.90985,-5.34914l-1.55975,-4.85922l-5.84906,-4.86922l-0.58991,-1.55975l4.48928,1.74972l1.02984,1.79971l2.61958,0.33995l2.43961,-1.66973l-0.10998,2.37962l2.59958,-0.89986l4.27932,-4.50928l2.96952,-2.00968l-0.89986,-1.40977l2.07967,-1.29979l1.42977,0.55991l2.36962,-1.53975l0.35994,-4.09934l1.61974,-0.97984l-1.15981,2.23964l2.89954,-1.8497l-0.03,1.40977l-1.91969,0.86986l-0.40993,1.65973l2.34962,-0.20997l3.70941,-3.37946l-0.08999,-3.36946l2.68957,0.56991l0.92985,-1.40977l1.35978,1.67973l3.18949,0.28995l2.61958,2.60958l6.229,-0.73988l2.10966,0.54991l0.88986,-3.82939l2.63958,3.05951l-0.41993,-1.55975l1.98968,-3.39946l2.31963,1.36978l0.45993,1.65973l-0.93985,4.40929l2.5096,1.66973l0.70989,-2.5296l2.65957,-0.46992l2.01968,1.53975l1.63974,-1.73972l1.54975,3.89938l-1.91969,1.48976l0.92985,2.41961l1.55975,-0.35994l2.4796,1.93969l0.97984,-0.53991l4.26932,3.18949l4.58927,0.28995l1.18981,2.81955l3.37946,2.24964"/><path d="M-21.54764,230.18865l2.43961,2.33963l-1.8897,-0.11998l-0.54991,-2.21964"/><path d="M-13.16898,216.62082l1.99968,3.48944l-3.16949,2.20965l-1.42977,-1.11982l0.67989,-2.21964l1.77972,-0.92985l0.13998,-1.42977"/><path d="M-6.45005,216.38085l1.76972,1.48976l-3.21948,2.42961l-0.16997,-2.57959l1.61974,-1.33979"/><path d="M12.75687,207.05235l2.95953,2.05967l0.18997,2.14966l-2.4996,-0.69989l-0.6499,-3.50944"/><path d="M24.32502,204.45276l1.71972,2.4696l-2.13966,2.40961l-4.48928,-2.85954l4.90921,-2.01968"/><path d="M50.45084,196.51403l0.83987,0.85986l-1.03983,2.04967l1.52976,0.87986l-1.13982,8.94857l-1.32979,1.51976l0.23996,1.74972l-1.81971,-3.04951l-1.56975,0.01l-2.00968,1.95969l-0.07999,-2.09966l3.38946,-0.11998l-0.66989,-2.10966l-1.38978,-0.26996l-2.86954,1.43977l-0.52992,2.29963l-3.1195,4.03935l1.11982,-5.20917l-1.38978,-2.67957l-2.13966,-0.29995l-3.58943,1.13982l-1.93969,1.49976l-0.94985,-1.02984l1.50976,-2.80955l2.27964,0.78987l-2.12966,-2.42961l1.2498,-2.36962l1.62974,1.16981l4.22932,-1.28979l3.96936,-3.1495l3.50944,0.45993l1.00984,-1.19981l3.19949,-0.69989"/></g></g></g></svg>