<svg version="1.1" xmlns="http://www.w3.org/2000/svg" xmlns:xlink="http://www.w3.org/1999/xlink" width="167.42478" height="177.62311" viewBox="0,0,167.42478,177.62311"><g transform="translate(-85.50942,-191.15911)"><g data-paper-data="{&quot;isPaintingLayer&quot;:true}" fill="none" fill-rule="evenodd" stroke="#d645ff" stroke-width="72" stroke-linecap="round" stroke-linejoin="round" stroke-miterlimit="4" stroke-dasharray="" stroke-dashoffset="0" style="mix-blend-mode: normal"><g><path d="M196.9174,327.22312l0.23996,0.6099l4.86922,0.45993l-3.0995,2.81955l-0.68989,-1.30979l-2.4796,-0.21996l1.15981,-2.35962"/><path d="M216.9342,298.17777l-3.28947,5.20917l-0.01,2.93953l-3.98936,1.2198l1.01984,1.91969l-2.40961,2.4796l0.56991,1.59974l1.71972,-1.05983l0.6099,3.1395l-2.64958,0.09998l-3.57943,2.55959l3.0995,-0.75988l-1.08983,1.52976l-3.7494,1.8997l-3.64942,2.63958l-1.2698,-0.35994l-2.54959,1.73972l-1.73972,3.59942l1.41977,2.36962l-1.00984,1.46976l-1.67973,-1.05983l-0.83987,1.42977l-1.07983,-1.57975l2.4996,-1.49976l-0.42993,-2.19965l-1.2498,-0.6399l-3.38946,0.84986l-2.5196,-1.91969l-3.62942,0.27996l-3.43945,-2.15965l-5.04919,0.17997l-6.80891,-2.22964l0.40993,-0.65989l-3.97936,-2.32963l-2.82955,0.22996l-0.22996,-1.69973l-3.38946,-1.48976l-2.39962,-2.91953l1.15981,-3.27948l-1.56975,-2.86954l-2.88954,-0.43993l-2.23964,-1.48976l2.18965,-3.1195l1.99968,0.41993l2.09966,-3.05951l-4.23932,-3.78939l-2.22964,-0.03999l-1.68973,-2.70957l-1.08983,0.33995l-3.02952,-1.90969l-3.59942,0.11998l-0.15997,-2.24964l-4.69925,-2.30963l-2.29963,-3.1195l-1.33979,-4.08935l-3.58943,-1.69973l-5.6291,1.52976l0.52992,-3.06951l2.10966,-0.6199l-1.8697,-1.82971l4.55927,-4.3693l-3.05951,0.85986l1.28979,-4.51928l5.82907,-1.95969l-1.17981,-1.19981l3.03951,-0.83987l-1.2298,-2.5296l-1.14982,0.23996l-1.06983,-2.34962l-3.1095,-0.77988l-1.60974,0.51992l2.59958,-6.29899l2.90953,1.13982l-1.2398,-1.50976l0.41993,-1.98968l3.68941,0.15997l1.20981,-1.32979l-0.41993,-4.65925l-2.84954,0.56991l-1.2198,-5.24916l-2.29963,-2.5196l-2.68957,-1.74972l-2.82955,-0.46992l1.31979,-1.95969v-2.94953l1.8497,-0.80987"/></g></g></g></svg>