<svg version="1.1" xmlns="http://www.w3.org/2000/svg" xmlns:xlink="http://www.w3.org/1999/xlink" width="67.99726" height="70.26717" viewBox="0,0,67.99726,70.26717"><g transform="translate(-192.38694,-57.59137)"><g data-paper-data="{&quot;isPaintingLayer&quot;:true}" fill="#ff0000" fill-rule="evenodd" stroke="none" stroke-width="0" stroke-linecap="round" stroke-linejoin="round" stroke-miterlimit="10" stroke-dasharray="" stroke-dashoffset="0" style="mix-blend-mode: normal"><path d="M243.63481,64.02109l0.64997,0.95996l-0.38998,0.85997l0.81997,1.07996l0.12,0.90996l0.95996,0.37998l1.73993,-0.72997l0.80997,0.84997l-0.45998,1.55994l0.25999,0.67997l0.11,3.47986l-0.64997,1.71993l0.57998,1.42994l0.76997,-0.80997l0.74997,0.08l0.35999,1.59994l1.57994,-0.32999l0.57998,-2.27991l1.10996,-0.11l1.06996,3.22987l1.60994,0.36999l0.18999,2.06992l-1.44994,2.01992l-0.09,1.02996l1.10996,0.91996l0.37998,1.34995l1.85993,0.45998l0.11,1.29995l0.46998,0.90996l-0.30999,1.03996l-0.73997,0.76997l0.31999,0.69997l-0.70997,1.11996l0.84997,0.69997l0.76997,1.48994l1.28995,0.84997l0.31999,0.63997l-0.71997,1.15995l-1.07996,0.71997l-1.41994,0.41998l0.15999,1.20995l0.87996,1.41994l-1.10996,2.5099l0.11,1.51994l-1.61994,2.6099l-0.49998,0.49998l0.45998,1.12995l-0.21999,2.32991l0.33999,0.48998l-0.76997,0.99996l-1.00996,0.28999l0.06,0.78997l1.16995,0.79997l0.76997,1.01996l1.59994,1.01996l0.1,1.49994l-0.73997,2.23991l-1.95992,-1.17995l-0.95996,0.89996l-0.49998,1.52994l0.58998,1.80993l0.96996,0.82997l-0.33999,1.30995l-3.19987,1.65993l-1.39994,-0.60998l-0.49998,-0.83997l-1.02996,0.71997l-0.37998,-1.07996l-1.81993,-1.44994l-2.16991,0.64997l-1.80993,-0.50998l-1.67993,0.67997l-1.00996,-0.93996l-0.96996,1.85993l-1.00996,-0.52998l-1.25995,-0.02l-0.1,-1.33995l-0.67997,-1.44994l-0.05,-1.67993l-0.39998,-0.65997l-1.10996,-0.42998l-1.38994,-1.33995l-2.72989,-0.33999l-0.36999,-0.51998l-1.46994,-0.16999l-0.84997,-0.40998l2.5499,-0.54998l1.89992,-1.38994l5.12979,-3.09988l0.96996,-1.27995l0.80997,-0.24999l1.83993,-1.46994l0.94996,-1.18995l-0.1,-1.06996l1.43994,-2.28991l0.07,-1.28995l0.80997,-1.60994l0.01,-2.64989l-0.82997,-1.07996l-2.4399,-1.68993l-2.75989,-0.13999l0.07,-1.30995l-0.71997,-1.38994l-1.42994,-1.78993l0.14999,-0.91996l-0.98996,-2.06992l1.13995,-0.58998l-0.62997,-2.00992l-0.09,-3.23987l-0.81997,-0.90996l-0.78997,0.62997l-1.10996,-0.35999l-0.78997,2.11992l-0.80997,1.25995l0.68997,2.66989l-1.26995,-0.74997l-1.76993,-0.24999l0.11,-1.92992l-1.21995,-0.79997l-1.13995,3.69985l-0.91996,0.51998l-0.93996,-0.60998l-0.30999,-1.14995h-0.88996l-1.91992,1.92992l-1.14995,1.79993l0.42998,0.94996l0.04,1.78993l-1.01996,1.55994l0.1,2.4099l2.94988,2.35991l0.54998,2.65989l0.80997,1.22995l-0.19999,1.06996l-2.10992,0.69997l-0.05,0.04l-1.22995,1.24995l-1.36995,-0.23999l-1.42994,1.25995l0.28999,1.79993l-1.96992,1.05996l-0.50998,0.67997l-1.00996,-0.95996l-2.69989,-0.64997l-0.77997,0.42998l-1.16995,1.66993l-0.90996,0.27999l-1.75993,-0.71997l-0.41998,-1.34995l-2.30991,-1.15995l-1.69993,0.53998l-0.51998,-0.33999l-2.6199,1.08996l-0.49998,-0.32999l-0.94996,-1.74993l-0.88996,-2.74989l-2.02992,-1.25995l-1.00996,-2.05992l-1.66993,-0.48998l0.46998,-1.39994l0.88996,-1.21995l0.13999,-0.92996l1.28995,-0.92996l-0.11,-0.67997l1.65993,0.15999l0.32999,-2.95988l0.23999,-0.42998l2.5199,-0.14999l1.69993,0.57998l-0.11,1.06996l1.01996,0.77997l2.6099,-1.07996l0.23999,-2.03992l0.96996,-1.17995l1.14995,-0.32999l-0.16999,-2.02992l0.30999,-0.90996l0.04,-1.77993l0.56998,-0.67997l0.06,-1.18995l0.74997,-0.74997l0.81997,-2.35991l0.15999,-1.15995l0.73997,0.01l0.47998,1.13995l1.07996,1.20995l0.99996,0.15999l0.83997,1.63993l0.84997,-0.72997l1.71993,0.1l0.49998,-0.70997l0.42998,-1.79993l1.27995,-1.36995l-0.05,-0.68997l1.99992,-0.66997l1.23995,0.31999l0.84997,0.68997l0.77997,-0.51998l0.61998,-1.22995l2.05992,1.23995l0.55998,-1.80993l-0.39998,-1.25995l0.46998,-0.47998l0.24999,-1.72993l0.89996,-0.33999l1.70993,0.06l3.15987,0.55998l-0.37998,-1.41994l1.09996,-1.51994l-1.05996,-2.89988l-0.69997,-0.81997l-0.01,-1.18995l-0.82997,-1.63993l-0.36999,-1.74993l-1.32995,-0.89996l1.57994,-2.62989v-0.80997l1.64993,-0.54998l1.84993,-0.18999l0.77997,0.36999l0.53998,1.37994l3.58986,0.86997l1.01996,1.06996l2.4799,0.61998l1.12995,1.23995l-0.40998,0.87996M235.54514,78.82049l-0.73997,0.38998l0.12999,1.71993l0.94996,-0.43998l-0.33999,-1.66993"/></g></g></svg>