<svg version="1.1" xmlns="http://www.w3.org/2000/svg" xmlns:xlink="http://www.w3.org/1999/xlink" width="116.10535" height="67.80731" viewBox="0,0,116.10535,67.80731"><g transform="translate(-343.4891,-139.05177)"><g data-paper-data="{&quot;isPaintingLayer&quot;:true}" fill="#ff0000" fill-rule="evenodd" stroke="none" stroke-width="0" stroke-linecap="round" stroke-linejoin="round" stroke-miterlimit="10" stroke-dasharray="" stroke-dashoffset="0" style="mix-blend-mode: normal"><path d="M350.69881,197.47045l-2.12991,0.80997l-2.07992,2.11492l-2.99988,-7.09372l1.42994,0.94196l0.92996,-0.80597l-0.23999,-1.78193l0.89996,-1.14495l1.37995,0.13399l1.17995,-0.95796l0.75997,-1.23895l-0.26999,-2.42591l-0.42998,-0.96896l0.05,-0.63097l1.83992,0.08499l1.81993,-0.36298l1.32995,0.30499l3.07988,1.91992l-0.33999,0.92996l-2.33991,-0.99796l-0.43998,1.50494l0.10999,2.05791l0.94996,0.93696l1.34995,-1.21695l3.15987,0.86996l2.74989,2.05292l1.10996,-0.34399l2.68989,0.043l1.48994,-0.63198l-1.44994,-0.95996l-1.54994,-0.28799l-0.24999,-1.72693l-0.86996,0.12099l-0.43998,-0.44998l1.62993,0.27299l2.66989,0.98596l0.43998,0.42099l3.24987,1.23495l0.81997,-0.08l1.21995,0.97197l1.15995,-1.65393l0.08,-0.91497l0.86996,-1.49194l1.08996,-0.87396l-0.24999,-0.61697l1.50994,-0.55597l1.58994,-1.02296l-0.21999,-0.84697l1.42994,-0.18399l1.38995,-1.94192l1.95992,-2.06992l1.14995,-0.25099l1.28995,-0.83697l2.73989,-3.90584l1.16995,-0.17599l3.53986,1.24595l2.34991,0.07799l3.47986,-2.16091l0.48998,0.90396l2.4699,0.82596l2.24991,-0.23599l-0.11999,2.47491l-0.63997,1.08596l-1.19996,0.24699l-0.38998,0.76797l-2.97988,2.19291l-1.81993,0.094l-0.21,0.98097l-1.86992,-0.79797l-1.49994,1.19495l-1.20995,0.056l-1.22995,1.10696l-3.80985,-0.19099l-2.06992,0.82396l-0.80997,0.63198l-0.40998,1.80993l-0.90996,1.83593l-1.13995,0.68997l-0.44998,-0.90497l-1.26995,1.01796l-0.92996,2.3549l-0.85996,5.24279l-0.48998,1.39894l-1.28994,0.33199l-0.31999,1.45194l0.57997,1.15896l-0.59997,0.67397l-1.70993,-0.47898l-0.40999,0.87697l1.58994,2.18991l-2.76989,1.14995l-0.20999,-1.06795l0.89996,-1.04796l-1.32994,-1.55794l-1.25995,-0.37498l-5.1298,0.132l-4.76981,0.70097l-2.59989,0.61298l-1.04996,-0.103l-1.49994,0.70197l-0.93996,-1.90592l-0.30999,-2.11192l-3.05988,-1.25995l-1.53994,-2.10692M374.53785,194.33858l1.54994,2.4989l0.96996,-1.39594l-0.73997,-1.86693l-1.45994,-1.88792l-0.81997,1.42094l0.49998,1.23095"/><path d="M443.59509,156.12211l-1.65993,2.3549l-0.23,1.23195l1.20996,1.40894l-0.27999,1.11295l-2.4299,1.26595l-1.61994,0.32898l-2.2699,1.36795l-0.70997,-1.45094l-0.94996,-0.92097l-0.1,-1.25995l-0.90996,-1.46094l-0.82997,-0.21799l-0.39999,-1.11196l-1.23995,-1.72893l-1.18995,-0.46998l2.23991,-1.26795l1.11996,-0.08099l1.43994,-0.85497l1.02996,-0.016l1.54994,-1.13596l2.6499,1.94492l1.73993,0.35199l2.14991,-0.27499l-0.30999,0.88396"/><path d="M429.89564,171.49149l-1.43994,1.84092l-2.18992,-1.17195l1.53994,-1.14796l-0.02,-0.63497l1.28995,-0.71297l0.35999,0.92296l1.30994,-0.48298l1.75993,-0.173l-0.42998,-1.28695l1.62993,-1.52893l0.79997,2.26691l-1.30994,0.114l-0.82997,1.52994l-2.4699,0.46499"/><path d="M416.69616,167.00167l0.70997,-1.15895l0.77997,0.03899l-0.88996,2.12391l0.97996,0.95096l0.56997,1.56394l-1.65993,0.055l-1.33995,-0.52798l-1.88992,0.45598l-0.05,-1.82292l-0.39999,-1.42594l-1.72993,-1.23396l0.88997,-0.85397l1.01996,1.86993l1.89993,0.27899l1.10995,-0.31399"/><path d="M459.59445,143.7326l-2.4599,-0.13l-1.30995,-0.65298l-1.07996,0.34798l-1.44994,-1.14095l1.64993,-1.45695l0.19,-1.64793l1.56993,1.70693l2.4199,0.11399l-0.21999,1.41794l0.68997,1.44195"/><path d="M382.69753,200.20034l-0.01,-1.02796l1.01996,-0.92897l1.13995,1.42694l-1.27995,0.89697l-0.86996,-0.36698"/></g></g></svg>