<svg xmlns="http://www.w3.org/2000/svg" viewBox="0 0 196 34" version="1.1" height="34" width="196">
 <rect fill-opacity="0" height="34" width="196"></rect>opacity="0" stop-color="#000000"/&gt;
 <g aria-label="使用されている観測点が少ないため" fill="#dbe9ff">
  <path d="m7.7687 6.5715v-1.0007h-3.282v-1.0602h3.282v-1.2091h1.233v1.2091h3.6691v1.0602h-3.6691v1.0007h3.0973v3.7823h-3.1152q-0.071477 1.2091-0.45269 1.9537 1.9299 0.97089 4.2886 1.3402l-0.62542 1.2449q-2.4481-0.60755-4.3303-1.6559-1.0602 1.1258-3.0973 1.7512l-0.6969-1.0483q1.7214-0.35738 2.734-1.3461-0.85176-0.56586-1.8524-1.3759l0.85772-0.71477q0.84581 0.69094 1.6618 1.2032 0.26208-0.56586 0.3276-1.3521h-3.0795v-3.7823zm0 1.0007h-1.8405v1.781h1.8405zm1.233 0v1.781h1.8763v-1.781zm-5.188-1.3998v8.7202h-1.2687v-6.1113q-0.38717 0.66116-1.0007 1.501l-0.60755-1.3402q0.98876-1.3759 1.6618-3.1569 0.40504-1.0602 0.82794-2.5672l1.2806 0.3276q-0.45864 1.5368-0.89346 2.6268z"></path>
  <path d="m23.928 3.9209v9.5243q0 0.60755-0.22039 0.88155-0.274 0.33951-1.1079 0.33951-0.9292 0-1.6499-0.07148l-0.2323-1.2806q0.94707 0.11913 1.5665 0.11913 0.25017 0 0.29782-0.11317 0.02978-0.07743 0.02978-0.22634v-2.3528h-2.9186v3.5977h-1.2806v-3.5977h-2.7936q-0.05361 1.2389-0.23826 2.055-0.26208 1.1138-0.9828 2.1026l-1.1198-0.92324q0.69094-0.91728 0.91133-2.2217 0.12508-0.75646 0.12508-1.7035v-6.1291zm-8.2973 1.1496v1.7214h2.7816v-1.7214zm0 2.8055v1.769h2.7816v-1.769zm6.9809 1.769v-1.769h-2.9186v1.769zm0-2.8531v-1.7214h-2.9186v1.7214z"></path>
  <path d="m25.918 5.6542h4.783q-0.38717-1.0185-0.70881-2.0252l1.3045-0.08339q0.30973 1.0602 0.74455 2.1086h4.4018v1.2211h-3.8419q0.76838 1.5904 1.9239 3.3177l-1.2508 0.59564q-1.2747-1.9299-2.0907-3.9134h-5.2655zm8.6606 8.7857q-1.1853 0.06552-2.0967 0.06552-2.4779 0-3.6513-0.38717-2.1205-0.69094-2.1205-2.6089 0-1.1794 0.73264-1.9001l1.1198 0.60755q-0.48842 0.48247-0.48842 1.2628 0 0.99472 1.0722 1.3938 0.94707 0.35143 3.1688 0.35143 0.94111 0 2.1205-0.08935z"></path>
  <path d="m40.189 3.5695h1.3164v3.3654q1.4176-1.4712 2.2694-2.0192 0.7922-0.51225 1.644-0.51225 0.85772 0 1.3819 0.48247 0.69094 0.64329 0.69094 1.6857 0 0.27399-0.07148 0.72668-0.52416 3.3296-0.52416 4.6103 0 0.54799 0.27995 0.54799 0.17869 0 0.47056-0.20252 0.61351-0.4229 1.2389-1.3878l0.48842 1.364q-0.38121 0.60755-0.94707 1.0781-0.6552 0.54799-1.3998 0.54799-0.70881 0-1.1019-0.49438-0.33356-0.4229-0.33356-1.4117 0-0.75051 0.19656-2.2575 0.25017-1.8941 0.33356-2.8114 0.01191-0.14891 0.01191-0.25017 0-0.52416-0.22039-0.80411-0.20847-0.26804-0.57777-0.26804-1.2449 0-3.83 3.3177v5.6228h-1.3164v-4.1218q-0.99472 1.3938-1.8346 2.6327l-0.61946-1.4117q1.4117-1.7095 2.454-3.2581v-1.5129h-2.0907v-1.1972h2.0907z"></path>
  <path d="m50.291 4.7489q5.4799-0.08339 10.358-0.27995l0.07148 1.1853q-2.1503 0.10722-3.3475 0.6552-1.1436 0.52416-1.8346 1.4534-0.78624 1.0543-0.78624 2.3468 0 1.2866 0.89346 1.9299 1.0245 0.73264 3.145 1.0066l-0.27995 1.3402q-2.7638-0.3693-3.8895-1.4295-1.2091-1.1317-1.2091-2.8114 0-1.5248 1.096-2.8472 0.79816-0.97089 2.186-1.5606-2.46 0.08339-6.3436 0.27995z"></path>
  <path d="m67.821 11.081q-1.1019 3.2403-2.4719 3.2403-0.97685 0-1.6737-1.37-0.53608-1.0602-0.73859-2.3349-0.24421-1.5487-0.24421-3.9789 0-1.0543 0.07743-2.2634l1.3998 0.10722q-0.07743 1.2091-0.07743 2.2992 0 3.824 0.71477 5.331 0.29186 0.61947 0.54799 0.61947 0.16678 0 0.41695-0.38121 0.51225-0.77433 0.98876-2.1324zm3.7704 1.4176q-0.30378-2.5136-0.74455-4.0623-0.53608-1.8763-1.2449-3.4368l1.2687-0.30973q0.98281 1.9477 1.4593 3.7525 0.39312 1.4653 0.64925 3.7287z"></path>
  <path d="m75.886 3.9626h6.6831l0.63733 0.98876q-3.0973 1.8941-5.3667 3.4428 1.4653-0.61351 2.9425-0.61351 1.3283 0 2.2158 0.4229 0.82198 0.39312 1.2806 1.0722 0.47651 0.72072 0.47651 1.6559 0 1.3104-0.89346 2.192-0.61351 0.61351-1.5725 0.9292-1.2568 0.41099-2.7519 0.41099-1.7214 0-2.5374-0.63733-0.63733-0.50034-0.63733-1.3521 0-0.64329 0.4646-1.1436 0.70286-0.75646 1.9001-0.75646 1.2687 0 2.0311 0.85176 0.55394 0.61946 0.79816 1.6618 1.8346-0.58373 1.8346-2.1562 0-1.1913-0.99472-1.7571-0.66712-0.38121-1.6916-0.38121-1.5308 0-2.7638 0.4229-0.91133 0.30973-2.4481 1.4951l-0.83985-1.0126q1.6559-1.4295 3.7704-2.9008 1.4593-1.0126 2.5732-1.6618h-5.1106zm4.5149 9.3575q-0.4229-1.6857-1.6618-1.6857-0.68499 0-0.98876 0.43482-0.14295 0.19656-0.14295 0.4229 0 0.47056 0.66712 0.70881 0.48247 0.16678 1.2925 0.16678 0.34547 0 0.8339-0.04765z"></path>
  <path d="m90.432 9.1328v0.72072h1.2032v0.81603h-1.2032v0.73264h1.2032v0.80411h-1.2032v0.81603h1.507v0.55394q1.0841-0.78029 1.2628-2.8352h-0.98876v-6.9749h4.8426v6.9749h-1.1436v2.5732q0 0.18465 0.0953 0.22634 0.10126 0.04765 0.28591 0.04765 0.38121 0 0.45269-0.26208 0.0953-0.34547 0.10126-1.4712l1.0126 0.35143q-0.04765 1.6916-0.26804 2.0788-0.26208 0.45269-1.364 0.45269-0.74455 0-0.98876-0.08935-0.43482-0.16082-0.43482-0.75646v-3.1509h-0.44673l-6e-3 0.07743q-0.12508 1.5546-0.62542 2.4719-0.53012 0.97089-1.7452 1.6261l-0.70881-0.95302h-3.0735v0.74455h-1.1436v-4.5149q-0.28591 0.33356-0.6016 0.63138l-0.58368-1.0483q1.2806-1.1853 2.0013-2.7042h-1.7214v-0.98876h1.0185l-0.85772-0.63138q0.82794-0.91728 1.227-2.1741l1.1615 0.17274q-0.13104 0.39312-0.29186 0.76838h3.3058v0.96494h-1.9656q-0.10722 0.44673-0.26804 0.89942h2.46v0.98876h-2.9246q-0.26208 0.63733-0.60755 1.2091h1.0722q0.26804-0.63138 0.38717-1.1496l1.0781 0.32165q-0.17274 0.41695-0.39312 0.82794h1.3402v0.85176zm-1.1019 0h-1.1317v0.72072h1.1317zm0 1.5367h-1.1317v0.73264h1.1317zm0 1.5368h-1.1317v0.81603h1.1317zm-0.75051-7.0226h-0.69094q-0.28591 0.45269-0.69094 0.89942h1.09q0.15487-0.42886 0.29186-0.89942zm4.7651-0.3693v1.0245h2.5553v-1.0245zm0 1.9418v1.0126h2.5553v-1.0126zm0 1.9418v1.0424h2.5553v-1.0424z"></path>
  <path d="m105.39 3.778v8.1722h-3.7406v-8.1722zm-2.6685 1.0602v1.3402h1.6201v-1.3402zm0 2.3051v1.3402h1.6201v-1.3402zm0 2.2575v1.501h1.6201v-1.501zm-2.4898-3.3892q-0.6969-0.94111-1.6737-1.769l0.89346-0.85772q0.91729 0.66712 1.7214 1.6976zm-0.3276 3.0497q-0.97089-1.2211-1.7214-1.8822l0.91728-0.87559q0.81603 0.66116 1.7571 1.8167zm-1.6261 4.914q1.0483-1.6797 1.9299-4.2946l1.0126 0.6969q-0.69094 2.4123-1.8524 4.5745zm6.7129 0.64925q-0.42291-1.1496-1.1138-2.1383l0.90537-0.51225q0.73264 0.86368 1.2568 1.9775zm1.2151-10.406h1.1853v7.6718h-1.1853zm-5.3131 9.8757q0.89346-0.85176 1.3164-2.049l1.0364 0.55394q-0.59564 1.5129-1.4057 2.2634zm7.4157-10.644h1.233v10.197q0 0.77433-0.47652 0.98876-0.27399 0.11913-0.83985 0.11913-0.7922 0-1.4414-0.0953l-0.20847-1.2091q0.9292 0.0953 1.3938 0.0953 0.23825 0 0.29782-0.0953 0.0417-0.07743 0.0417-0.30378z"></path>
  <path d="m116.71 4.5821h4.7651v1.0602h-4.7651v1.2687h4.0801v3.967h-8.8691v-3.967h3.4488v-3.6096h1.3402zm-3.4726 3.3415v1.9299h6.2364v-1.9299zm-2.7459 6.2125q0.85177-1.0364 1.3044-2.4064l1.2687 0.44077q-0.48247 1.6678-1.2925 2.734zm4.1337 0.67903q-0.20847-1.6201-0.47651-2.6089l1.2806-0.26804q0.45268 1.3104 0.6135 2.4898zm3.1271-0.1906q-0.3693-1.2091-1.0245-2.4659l1.1913-0.42886q0.6969 1.0245 1.1734 2.3945zm3.1688 0.02383q-0.47055-1.2628-1.3998-2.591l1.1674-0.54799q0.82199 1.0007 1.5368 2.5374z"></path>
  <path d="m122.99 5.9342h2.6327q0.17869-0.91728 0.39907-2.2813l0.0298-0.17274 1.3044 0.19656q-0.20252 1.2628-0.41695 2.2575h0.72072q1.4295 0 2.049 0.64329 0.55395 0.57777 0.55395 1.7988 0 2.055-0.43482 3.8419-0.25017 1.0126-0.60755 1.4951-0.45269 0.6016-1.2568 0.6016-0.96494 0-2.1086-0.61946l0.14891-1.2568q1.1317 0.54203 1.7571 0.54203 0.3276 0 0.5063-0.35143 0.1906-0.38121 0.36334-1.1019 0.33951-1.4593 0.33951-3.0675 0-0.84581-0.33951-1.096-0.29187-0.20847-1.0424-0.20847h-0.91729q-0.94707 4.2171-2.7161 7.1953l-1.1972-0.6552q1.8286-3.0675 2.6089-6.5401h-2.3766zm9.8936 5.879q-0.67307-2.4779-2.1264-4.8664l1.1615-0.52416q1.501 2.3945 2.2456 4.8187zm-0.88154-5.7062q-0.3693-0.96494-1.1913-2.1443l0.92324-0.34547q0.72072 1.0185 1.2092 2.1145zm1.6023-0.51225q-0.4646-1.1496-1.1853-2.1622l0.87559-0.29186q0.68499 0.81603 1.1972 2.0371z"></path>
  <path d="m140.05 3.3015h1.3521v6.5401q0 0.6552-0.37525 0.89942-0.29782 0.19656-0.9709 0.19656-0.88154 0-1.5189-0.08339l-0.29186-1.233q0.88155 0.137 1.4414 0.137 0.24421 0 0.30973-0.10722 0.0536-0.083389 0.0536-0.27399zm5.4024 6.0636q-1.5904-2.6208-3.008-4.235l1.0841-0.70881q1.7452 1.9001 3.0258 4.0265zm-10.513-0.20847q1.495-1.7393 2.2336-4.3899l1.2925 0.39908q-0.78029 2.9425-2.4421 4.9319zm1.1079 4.5626q2.8829-0.54203 4.5626-1.6857 1.8644-1.2568 2.9544-3.5381l1.1317 0.74455q-1.5129 2.7995-3.8538 4.2112-1.4653 0.88155-4.0265 1.4414z"></path>
  <path d="m154.23 7.6079h1.3521v3.2701q1.3938 0.61351 2.8531 1.6201l-0.68499 1.1138q-1.0245-0.75051-2.1681-1.3938-0.0655 1.0543-0.68498 1.6201-0.69094 0.62542-1.9358 0.62542-1.2032 0-1.9835-0.54799-0.76242-0.54203-0.76242-1.5129 0-1.0185 0.95898-1.6321 0.74455-0.47651 1.906-0.47651 0.54203 0 1.1496 0.13104zm0 4.0384q-0.70881-0.24421-1.3402-0.24421-0.61946 0-0.99472 0.22039-0.48246 0.28591-0.48246 0.76242 0 0.58373 0.69094 0.85176 0.34547 0.13104 0.82794 0.13104 0.77433 0 1.1138-0.6552 0.18465-0.35143 0.18465-0.82198zm-6.3912-6.3197h2.2753q0.30378-1.0305 0.48843-1.8167l1.3044 0.16082q-0.23826 0.87559-0.48843 1.6559h2.1741v1.1972h-2.5612q-1.0662 3.0556-2.5017 5.1702l-1.1079-0.63138q1.3581-2.0133 2.2932-4.5388h-1.8763zm9.9472 2.9008q-1.3223-1.4712-3.0378-2.6804l0.78624-0.85772q1.7035 1.1019 3.1092 2.5672z"></path>
  <path d="m165.17 11.081q-1.1019 3.2403-2.4719 3.2403-0.97685 0-1.6738-1.37-0.53608-1.0602-0.73859-2.3349-0.24422-1.5487-0.24422-3.9789 0-1.0543 0.0774-2.2634l1.3998 0.10722q-0.0774 1.2091-0.0774 2.2992 0 3.824 0.71476 5.331 0.29187 0.61947 0.54799 0.61947 0.16678 0 0.41695-0.38121 0.51225-0.77433 0.98876-2.1324zm3.7704 1.4176q-0.30378-2.5136-0.74455-4.0623-0.53608-1.8763-1.2449-3.4368l1.2687-0.30973q0.9828 1.9477 1.4593 3.7525 0.39313 1.4653 0.64925 3.7287z"></path>
  <path d="m171.99 5.4219h2.7816q0.16678-0.73859 0.37526-1.912l1.3461 0.16678q-0.17869 0.92324-0.38121 1.7452h3.967v1.1853h-4.2469q-1.1913 4.7592-2.6327 7.8922l-1.3164-0.4646q1.5665-3.4726 2.6089-7.4276h-2.5017zm10.543 8.7619q-0.96494 0.12508-2.1681 0.12508-1.9477 0-2.9425-0.33356-0.38121-0.13104-0.64925-0.3693-0.52416-0.47651-0.52416-1.2151 0-0.75646 0.48842-1.3342l1.0602 0.62542q-0.18465 0.2323-0.18465 0.51225 0 0.48247 0.44078 0.62542 0.67307 0.21443 1.918 0.21443 1.2091 0 2.4123-0.17869zm-5.5871-5.9028q2.3349-0.26804 5.1106-0.28591l0.0596 1.2091q-2.7221 0.011913-4.9974 0.25612z"></path>
  <path d="m186.41 4.1771q0.18465 0.83985 0.54799 2.0788 1.4295-0.78029 3.1628-0.82198 0.15486-0.86963 0.25612-1.781l1.3164 0.25612q-0.13104 0.94111-0.26803 1.6618 1.3104 0.30973 2.0966 1.0602 1.2449 1.1972 1.2449 3.0914 0 2.2932-1.4772 3.4309-1.096 0.84581-2.6923 1.1019l-0.62542-1.1079q1.5725-0.29782 2.454-1.0066 0.96494-0.77433 0.96494-2.4957 0-1.2568-0.73264-2.0967-0.52416-0.6016-1.4534-0.88155-0.44673 1.8584-0.91133 2.9246-0.63138 1.4593-1.7035 2.6208-1.4474 1.5665-2.6923 1.5665-0.97685 0-1.4653-0.95302-0.34547-0.68499-0.34547-1.6618 0-2.3826 1.8346-4.1397-0.33356-1.0424-0.66712-2.4183zm-0.0715 4.0503q-1.0483 1.3223-1.0483 2.8055 0 0.67307 0.1906 1.09 0.18465 0.41099 0.54203 0.41099 0.61947 0 1.6797-1.1794-0.73859-1.3402-1.364-3.1271zm3.5619-1.7035q-1.4176 0.077433-2.5851 0.82794 0.56586 1.6797 1.2092 2.9008 0.93516-1.507 1.3759-3.7287z"></path>
 </g>
 <g fill="#dbe9ff">
  <path d="m31.898 28.766q3.4964-0.88155 3.4964-4.0087 0-1.364-0.70285-2.3468-0.78624-1.1079-2.3945-1.4236-0.35143 2.7638-0.95898 4.5269-0.41695 1.233-1.0364 2.329-0.89346 1.5606-2.0311 1.5606-0.84581 0-1.507-0.76242-0.4229-0.48247-0.68499-1.1853-0.34547-0.91133-0.34547-1.9597 0-1.6976 0.93516-3.1271 0.94707-1.4593 2.46-2.1205 1.1019-0.48247 2.4183-0.48247 2.055 0 3.4904 1.1019 1.7631 1.3521 1.7631 3.83 0 4.1516-4.1993 5.2655zm-0.89346-7.8267q-1.0543 0.11913-1.7631 0.56586-0.45269 0.29186-0.89942 0.77433-1.2389 1.37-1.2389 3.1748 0 1.3164 0.52416 2.0609 0.32165 0.45864 0.63734 0.45864 0.42886 0 0.96494-0.94707 1.3104-2.3051 1.775-6.0874z"></path>
  <path d="m42.095 23.268v-0.58373h2.8531v-0.58968h-2.1979v-0.85176h2.1979v-0.57181h-2.5017v-0.89346h2.5017v-0.7922h1.2211v0.7922h2.8531v0.89346h-2.8531v0.57181h2.4243v0.85176h-2.4243v0.58968h3.1688v0.95302h-7.1715v0.80411h-1.5844v0.63734q0.9292 0.86963 1.7333 1.8763l-0.67307 1.0841q-0.59564-0.91729-1.0602-1.5725v4.1099h-1.1734v-3.9848q-0.50629 1.3045-1.3045 2.4362l-0.67307-1.1853q1.1377-1.3223 1.8405-3.4011h-1.6082v-1.1734h1.7452v-4.2826h1.1734v4.2826zm6.3376 1.0007v5.2297q0 0.53012-0.25612 0.78624-0.24421 0.25612-0.8339 0.25612-0.64329 0-1.4712-0.10126l-0.19656-1.0841q0.81007 0.0953 1.2508 0.0953 0.20847 0 0.25017-0.12508 0.02383-0.07743 0.02383-0.23826v-0.90537h-3.2045v2.3945h-1.233v-6.3078zm-4.4375 0.87559v0.67307h3.2045v-0.67307zm0 1.501v0.6969h3.2045v-0.6969zm-5.8909-3.8895q-0.16678-1.5368-0.4646-2.7221l1.0364-0.29186q0.35738 1.3759 0.4646 2.7697zm2.597-0.27995q0.32164-1.2508 0.53608-2.8412l1.0602 0.25612q-0.25017 1.7452-0.64925 2.865z"></path>
  <path d="m56.623 20.058h4.6698v1.0007h-2.6446v0.98876h2.4779v0.96494h-2.4779v1.775h-4.7949v-1.775h-1.9537v1.1079q0 2.6982-0.28591 4.2648-0.22039 1.1913-0.71477 2.1741l-1.0841-0.85772q0.45269-0.9828 0.61946-2.4004 0.14891-1.2449 0.14891-3.1807v-4.0623h4.7115v-1.0722h1.3283zm-4.7234 1.0007v0.98876h1.9537v-0.98876zm3.2224 0v0.98876h2.2575v-0.98876zm0 1.9537v0.92324h2.2575v-0.92324zm1.3819 6.2542q-1.7214 0.89346-4.372 1.3581l-0.61946-1.096q2.4898-0.29782 3.9014-0.91133-1.2091-0.87559-2.0669-2.0788h-0.82198v-1.0364h6.9749l0.62542 0.52416q-0.8875 1.364-2.5315 2.5672 1.4117 0.56586 3.8478 0.8339l-0.6969 1.1258q-2.3349-0.31569-4.241-1.2866zm-1.769-2.728q0.72072 0.84581 1.7512 1.4891 1.1615-0.75051 1.7929-1.4891z"></path>
  <path d="m62.353 21.618h2.6327q0.17869-0.91728 0.39908-2.2813l0.02978-0.17274 1.3044 0.19656q-0.20252 1.2628-0.41695 2.2575h0.72072q1.4295 0 2.049 0.64329 0.55394 0.57777 0.55394 1.7988 0 2.055-0.43482 3.8419-0.25017 1.0126-0.60755 1.4951-0.45269 0.6016-1.2568 0.6016-0.96494 0-2.1086-0.61946l0.14891-1.2568q1.1317 0.54203 1.7571 0.54203 0.3276 0 0.50629-0.35143 0.1906-0.38121 0.36334-1.1019 0.33952-1.4593 0.33952-3.0675 0-0.84581-0.33952-1.096-0.29186-0.20847-1.0424-0.20847h-0.91728q-0.94707 4.2171-2.7161 7.1953l-1.1972-0.6552q1.8286-3.0675 2.6089-6.5401h-2.3766zm9.8936 5.879q-0.67307-2.4779-2.1264-4.8664l1.1615-0.52416q1.501 2.3945 2.2456 4.8187zm-0.88155-5.7062q-0.3693-0.96494-1.1913-2.1443l0.92324-0.34547q0.72072 1.0185 1.2091 2.1145zm1.6023-0.51225q-0.4646-1.1496-1.1853-2.1622l0.87559-0.29186q0.68498 0.81603 1.1972 2.0371z"></path>
  <path d="m77.077 21.856v8.7202h-1.2925v-6.0696q-0.39312 0.67307-0.9292 1.4355l-0.61946-1.3342q1.0185-1.4236 1.7095-3.3415 0.34547-0.95302 0.75646-2.4362l1.2925 0.33951q-0.41099 1.4117-0.91728 2.6863zm1.3819-1.6737q0.22039-0.01787 0.45269-0.03574 2.2575-0.16082 4.4494-0.66116 0.53608-0.12508 1.1377-0.30378l0.82794 1.0007q-1.1675 0.33356-2.4421 0.5599 0.02383 1.1555 0.13104 2.2456l2.7995-0.16082 0.04765 1.1615-2.728 0.14891q0.30973 2.4957 0.90537 3.7764 0.16082 0.34547 0.37525 0.64329 0.14295 0.19656 0.20252 0.19656 0.06552 0 0.17274-0.39908 0.137-0.52416 0.2323-1.5606l1.0245 0.80411q-0.18465 1.4474-0.42886 2.043-0.33356 0.79816-0.79816 0.79816-0.39908 0-0.94707-0.53608-0.64925-0.63734-1.1675-1.8882-0.35143-0.85176-0.52416-1.775-0.14891-0.80411-0.26804-1.8584l-0.01787-0.16082-2.2039 0.13104v2.8531q1.1734-0.31569 2.2336-0.66712l0.0953 1.096q-1.7988 0.73264-4.0623 1.3044l-0.45269-1.2211q0.34547-0.06552 0.95302-0.20252zm3.1986 0.75646q-0.91728 0.14295-1.9656 0.2323v2.0073l2.0907-0.11913q-0.07743-0.93515-0.12508-2.1205zm-3.4428 8.1603h4.5209v1.2091h-4.5209z"></path>
  <path d="m92.338 26.765q-1.1019 3.2403-2.4719 3.2403-0.97685 0-1.6737-1.37-0.53608-1.0602-0.73859-2.3349-0.24421-1.5487-0.24421-3.9789 0-1.0543 0.07743-2.2634l1.3998 0.10722q-0.07743 1.2091-0.07743 2.2992 0 3.824 0.71477 5.331 0.29186 0.61947 0.54799 0.61947 0.16678 0 0.41695-0.38121 0.51225-0.77433 0.98876-2.1324zm3.7704 1.4176q-0.30378-2.5136-0.74455-4.0623-0.53608-1.8763-1.2449-3.4368l1.2687-0.30973q0.9828 1.9477 1.4593 3.7525 0.39312 1.4653 0.64925 3.7287z"></path>
  <path d="m108.74 20.915v8.2675q0 0.78029-0.50629 1.0305-0.33356 0.16678-1.1496 0.16678-0.89941 0-2.1622-0.08339l-0.29186-1.3164q1.2568 0.0953 2.2217 0.0953 0.37526 0 0.44673-0.05956 0.0774-0.07148 0.0774-0.3693v-7.7314h-8.6785v-1.1972h11.591v1.1972zm-2.9901 1.6559v4.5507h-4.3065v0.97685h-1.3164v-5.5275zm-4.3065 1.1079v2.3111h3.0258v-2.3111z"></path>
  <path d="m111.78 21.708q0.74455-1.3045 1.2449-2.7697l1.3402 0.27995q-0.57777 1.3461-1.2806 2.454 0.36334-0.01787 1.1198-0.05361 0.0655 0 0.90538-0.05361l-0.0357-0.05956q-0.26804-0.45864-0.61947-0.97089l1.0126-0.50034q1.0424 1.3521 1.644 2.5851l-1.1436 0.62542q-0.15487-0.33356-0.35739-0.75051-1.8822 0.2323-4.5983 0.35738l-0.30378-1.1198q0.2323 0 1.0722-0.02383zm4.4792 1.8882v5.8313q0 0.61351-0.29186 0.84581-0.26208 0.20847-0.89942 0.20847-0.6552 0-1.1972-0.07743l-0.19657-1.1258q0.7386 0.08935 1.0841 0.08935 0.22039 0 0.26208-0.08935 0.0298-0.07148 0.0298-0.22039v-1.0841h-2.329v2.6029h-1.233v-6.9809zm-3.5381 0.97685v0.78029h2.329v-0.78029zm0 1.6737v0.8339h2.329v-0.8339zm5.8075-5.4561q1.3878-0.50629 2.6446-1.2449l0.89346 0.90537q-1.8048 0.95302-3.5381 1.4295v1.0066q0 0.29782 0.17273 0.35143 0.23826 0.07743 1.1734 0.07743 0.80412 0 1.0007-0.17869 0.15486-0.14295 0.20252-1.0781 6e-3 -0.17869 0.0119-0.27995l1.2568 0.30378q-0.0477 1.6082-0.36334 1.9597-0.20252 0.22634-0.67308 0.31569-0.60159 0.11913-1.7571 0.11913-1.4474 0-1.8882-0.21443-0.41695-0.20847-0.41695-0.89942v-4.378h1.2806zm0 5.8015q1.3938-0.4646 2.8531-1.2866l0.8339 0.98876q-1.9358 0.97089-3.687 1.4057v1.0662q0 0.38717 0.25017 0.45864 0.1906 0.05956 0.9828 0.05956 1.1079 0 1.2628-0.1906 0.16678-0.20252 0.21443-1.5308l1.2687 0.33951q-0.0119 1.769-0.53608 2.2039-0.45864 0.38121-2.317 0.38121-1.4712 0-1.9477-0.23826-0.45865-0.22039-0.45865-0.89346v-4.4911h1.2806z"></path>
  <path d="m125.8 20.993v9.5838h-1.2568v-11.591h1.2568v1.8763l0.70881-0.58373q0.48247 0.8875 0.75646 1.7452l-0.7922 0.72072q-0.39908-1.233-0.67307-1.7512zm2.9842 0.21443h1.3938v-2.2217h1.2568v2.2217h2.8174v1.1734h-2.8174v2.5315h2.5493v1.1615h-2.5493v2.9365h3.1807v1.1615h-7.8148v-1.1615h3.3773v-2.9365h-2.6208v-1.1615h2.6208v-2.5315h-1.7512q-0.38121 1.1138-1.0007 2.1026l-0.90537-0.81007q1.0602-1.8286 1.4355-4.2946l1.1853 0.16678q-0.1787 0.99472-0.35739 1.6618zm-5.9624 3.9491q0.26208-1.1853 0.38717-3.1926l0.0298-0.48842 1.0364 0.10722q-0.0655 2.4838-0.41695 4.098z"></path>
  <path d="m135.55 21.618h2.6327q0.17869-0.91728 0.39908-2.2813l0.0298-0.17274 1.3044 0.19656q-0.20252 1.2628-0.41695 2.2575h0.72073q1.4295 0 2.049 0.64329 0.55394 0.57777 0.55394 1.7988 0 2.055-0.43481 3.8419-0.25017 1.0126-0.60756 1.4951-0.45268 0.6016-1.2568 0.6016-0.96493 0-2.1086-0.61946l0.14891-1.2568q1.1317 0.54203 1.7571 0.54203 0.3276 0 0.50629-0.35143 0.1906-0.38121 0.36334-1.1019 0.33951-1.4593 0.33951-3.0675 0-0.84581-0.33951-1.096-0.29186-0.20847-1.0424-0.20847h-0.91728q-0.94707 4.2171-2.7161 7.1953l-1.1972-0.6552q1.8286-3.0675 2.6089-6.5401h-2.3766zm9.8936 5.879q-0.67308-2.4779-2.1264-4.8664l1.1615-0.52416q1.501 2.3945 2.2456 4.8187zm-0.88155-5.7062q-0.3693-0.96494-1.1913-2.1443l0.92324-0.34547q0.72073 1.0185 1.2092 2.1145zm1.6023-0.51225q-0.4646-1.1496-1.1853-2.1622l0.87559-0.29186q0.68498 0.81603 1.1972 2.0371z"></path>
  <path d="m148.6 20.683h2.9782q0.12509-1.0305 0.19061-1.4772l1.3223 0.137-0.0179 0.0953-0.0417 0.30973-0.1072 0.79816-0.0179 0.137h4.9259v1.1734h-5.0629q-0.0179 0.20252-0.0774 0.86368l-0.0298 0.38121-0.0119 0.11913q0.71477-0.11913 1.4593-0.11913 2.0609 0 3.2701 0.96494 0.31569 0.25612 0.57777 0.64329 0.52417 0.77433 0.52417 1.781 0 1.7929-1.4772 2.734-0.96494 0.61351-2.6744 0.92324l-0.57182-1.0483q1.5665-0.25612 2.3945-0.81603 0.98877-0.67307 0.98877-1.8584 0-0.76838-0.42886-1.3521-0.25017-0.34547-0.67308-0.5599-1.4831 2.5851-3.8895 4.2052-0.77434 0.52416-1.2985 0.6969-0.51821 0.16678-1.0126 0.16678-0.91132 0-1.37-0.60755-0.38121-0.50034-0.38121-1.37 0-1.5427 1.1675-2.7221 0.86367-0.87559 2.0788-1.3461l0.0119-0.16082q0.0715-1.0245 0.11913-1.5189h-2.865zm2.6804 4.0623q-0.83389 0.44673-1.3342 1.1138-0.63734 0.85176-0.63734 1.6976 0 0.94111 0.67903 0.94111 0.59564 0 1.4653-0.64329-0.17869-1.1972-0.17869-2.5374 0-0.18465 6e-3 -0.57181zm1.2806-0.45269q-0.0119 0.38717-0.0119 0.70286 0 1.0126 0.0893 1.906 1.4414-1.3402 2.2039-2.7399-0.38121-0.04765-0.76242-0.04765-0.7922 0-1.5189 0.17869z"></path>
  <path d="m164.29 24.448q-0.59564 1.1138-1.2211 1.6737-0.53608 0.48247-0.9828 0.48247-0.57182 0-0.92325-0.77433-0.36334-0.81007-0.36334-2.5374 0-1.7393 0.40504-3.7704l1.3044 0.19656q-0.39312 2.0133-0.39312 3.4071 0 1.8763 0.26803 1.8763 0.10126 0 0.34548-0.28591 0.38121-0.42886 0.80411-1.2628zm-0.90537 4.6639q1.8286-0.51225 2.7578-1.5308 1.1377-1.2449 1.1377-3.7644 0-1.912-0.36929-4.2946l1.364-0.13104q0.39312 2.4064 0.39312 4.4852 0 3.3713-1.7333 4.8545-1.0543 0.90537-2.8412 1.501z"></path>
  <path d="m175.92 19.265h1.3164v1.501h3.7466v1.1317h-3.7466v1.4176h3.5381v1.1198h-3.5381v1.8405q2.1205 0.71477 4.1814 2.1503l-0.70285 1.1317q-1.5606-1.1675-3.4785-2.0609-0.0477 1.0185-0.39312 1.5784-0.6016 0.97089-2.3706 0.97089-1.364 0-2.192-0.51225-0.92324-0.57181-0.92324-1.5487 0-1.1675 1.2449-1.7274 0.83389-0.3693 2.1681-0.3693 0.52417 0 1.1496 0.08339v-1.5368h-4.2231v-1.1198h4.2231v-1.4176h-4.4792v-1.1317h4.4792zm0 7.8148q-0.70881-0.14891-1.3581-0.14891-0.7922 0-1.2866 0.2323-0.58968 0.27995-0.58968 0.79816 0 0.43482 0.45864 0.70286 0.4646 0.27399 1.2389 0.27399 0.91728 0 1.2628-0.48842 0.27399-0.38121 0.27399-1.1377z"></path>
  <path d="m188.58 19.23h1.3402v1.644h3.5143v1.1496h-3.5143v2.5493q0.20847 0.73264 0.20847 1.3045 0 2.1205-0.93515 3.1152-1.0186 1.09-3.0676 1.507l-0.67903-1.0126q1.5904-0.30378 2.3587-0.85772 0.72072-0.52416 0.97089-1.4236-0.63734 0.6969-1.5189 0.6969-0.98876 0-1.6023-0.5599-0.72073-0.66116-0.72073-1.918 0-0.66116 0.31569-1.2747 0.20848-0.39312 0.51225-0.6552 0.70286-0.59564 1.6857-0.59564 0.62542 0 1.1317 0.29782v-1.1734h-5.879v-1.1496h5.879zm0.0476 6.1827v-0.22039q0-0.38121-0.17869-0.67307-0.33356-0.54799-0.96494-0.54799-0.32165 0-0.6016 0.17869-0.6552 0.41099-0.6552 1.2628 0 0.53608 0.23826 0.90537 0.33355 0.51225 0.9828 0.51225 0.58968 0 0.93516-0.53012 0.24421-0.37525 0.24421-0.8875z"></path>
  <path d="m6.2266 20.593v-0.51243h-3.7224v-0.85206h8.7908v0.85206h-3.7998v0.51243h4.9314v2.1391h-1.2924v-1.3704h-3.639v2.3178h-1.2686v-2.3178h-3.5735v1.3704h-1.2805v-2.1391zm4.2167 8.455q0.91124 0.34559 2.2751 0.54818l-0.69683 1.0129q-1.9118-0.32772-3.1387-1.1261-1.2209-0.79843-1.8999-1.9842h-1.3162v1.8352q1.3162-0.18471 2.4419-0.39326l0.083381 0.88781q-2.0964 0.50051-4.7944 0.86993l-0.35139-1.0487q0.93506-0.10129 1.2805-0.143l0.07147-0.01191v-1.9961h-1.3043q-0.083382 1.0487-0.27397 1.6743-0.22632 0.75076-0.72661 1.4002l-1.0601-0.87589q0.58367-0.75672 0.72661-1.7697 0.077426-0.54818 0.077426-1.3645v-2.5264h10.28v0.79248h-8.9992v1.8292h9.5114v0.84014h-1.352l0.75639 0.50051q-0.67301 0.56009-1.5902 1.0487zm-0.92911-0.4588q0.85764-0.58393 1.3639-1.0904h-2.6027q0.5122 0.65543 1.2388 1.0904zm-6.337-6.7867h2.5372v0.6733h-2.5372zm0 1.0964h2.5372v0.68522h-2.5372zm4.8302-1.0964h2.6146v0.6733h-2.6146zm0 1.0964h2.6146v0.68522h-2.6146zm-4.181 2.431h7.415v0.78056h-7.415z"></path>
  <path d="m21.319 21.72h2.7695v4.6238h-2.2811v3.2712q0 0.56605-0.26801 0.78652-0.22036 0.17875-0.78021 0.17875-0.673 0-1.346-0.12513l-0.16676-1.1202q0.69087 0.10725 1.072 0.10725 0.22632 0 0.26801-0.10725 0.02382-0.07746 0.02382-0.2443v-2.7468h-2.2811v-4.6238h1.7987q0.22036-0.65543 0.31566-1.0785h-2.7933v3.2354q0 2.151-0.26801 3.5512-0.31566 1.6743-1.2448 3.1401l-0.95293-0.94144q1.2209-1.9484 1.2209-5.1839v-4.8978h8.356v1.0964h-3.0315q-0.17867 0.57201-0.41095 1.0785zm1.5604 0.95335h-3.3769v0.89972h3.3769zm-3.3769 1.8173v0.92356h3.3769v-0.92356zm-4.2108-2.7707q-0.58962-0.88185-1.7212-1.8471l0.91719-0.80439q1.0244 0.73885 1.7331 1.722zm-0.32757 3.0626q-0.98866-1.2453-1.7451-1.8948l0.94102-0.85206q0.9708 0.81035 1.757 1.8173zm-1.6081 4.9038q0.91124-1.7399 1.4711-4.2365l1.0899 0.66139q-0.40499 1.7458-0.73852 2.7409-0.29183 0.86993-0.7147 1.7518zm3.7522-0.40518q0.98271-1.0368 1.5009-2.5502l1.1376 0.34559q-0.5658 1.8054-1.6617 3.0388zm6.8432 0.73289q-0.63727-1.4777-1.5962-2.8064l0.98866-0.57201q0.97675 1.2155 1.7093 2.6217z"></path>
 </g>
</svg>
