<svg version="1.1" xmlns="http://www.w3.org/2000/svg" xmlns:xlink="http://www.w3.org/1999/xlink" width="74.81698" height="79.7468" viewBox="0,0,74.81698,79.7468"><g transform="translate(126.47032,-70.45085)"><g data-paper-data="{&quot;isPaintingLayer&quot;:true}" fill="#ff0000" fill-rule="evenodd" stroke="none" stroke-width="0" stroke-linecap="round" stroke-linejoin="round" stroke-miterlimit="10" stroke-dasharray="" stroke-dashoffset="0" style="mix-blend-mode: normal"><path d="M-61.25298,76.62058l-0.91996,0.31999l-1.74993,1.35995l-0.20999,-0.12999l-0.73997,1.14995l-1.42994,-1.04996l-1.27995,0.55998l1.63993,0.86997l1.48994,0.30999l0.62997,1.29995l-1.13995,0.47998l-0.42998,2.6099l-2.3799,-0.62997l-0.48998,-0.46998l0.36999,-1.59994l1.46994,0.51998l1.02996,-0.13999l0.39998,-1.09996l-1.05996,-1.31995l-1.47994,-0.74997l-0.69997,-0.85997l-0.94996,1.63993l-0.95996,0.51998l-0.87996,1.20995l0.72997,2.18991l-0.44998,0.75997l1.13995,0.92996l-0.50998,1.07996l-1.15995,0.45998l0.04,1.76993l3.58986,0.52998l1.20995,1.39994l0.96996,0.51998l1.26995,-0.46998l0.61998,-1.25995l2.33991,-0.61998l1.17995,0.69997l1.41994,0.12999l0.91996,0.90996l3.50986,0.90996l1.72993,1.47994l0.08,-0.11l0.42998,0.90996l0.05,1.81993l-0.74997,0.99996l1.00996,1.20995l-0.76997,1.46994l-0.72997,-0.12999l-1.26995,2.09992l-0.04,2.5199l-0.29999,0.98996l1.42994,2.11992l-0.73997,1.36995l0.77997,1.26995l0.18999,1.43994l-0.66997,0.85997l-2.02992,0.09l-0.69997,0.55998l-2.32991,-0.17999l-0.84997,1.07996l-3.13987,1.07996l-0.56998,-0.05l-2.4699,0.92996l-1.82993,1.45994l-1.07996,0.45998l0.04,1.82993l1.88992,-0.59998l0.89996,0.73997l1.40994,4.00984l-1.06996,1.58994l-2.66989,0.97996l-0.90996,1.11996l-0.17999,1.95992l-0.62997,0.78997l0.52998,1.45994l-0.57998,0.64997l-0.30999,1.37994l0.45998,0.71997l-0.48998,1.04996l-0.97996,-0.31999l-0.43998,-0.86997l-1.53994,0.19999l-1.05996,-0.36999l-1.07996,0.87996l-1.38994,-0.49998l-1.14995,0.13999l-0.75997,1.32995l-1.92992,0.23999l-0.91996,-1.15995l-0.74997,-0.08l-0.17999,-1.12995l-1.44994,-1.16995l-1.76993,-0.04l-0.73997,1.75993l-2.73989,0.89996l-1.39994,-0.98996l-0.69997,0.33999l-1.70993,-0.62997l-1.20995,-2.17991l-0.87996,-0.18999l-2.72989,1.20995l-0.28999,0.82997l-1.24995,0.99996l-0.65997,1.24995l-1.14995,1.13995l1.00996,1.25995l-2.4199,1.25995l-0.48998,1.46994l-1.56994,1.06996l-0.60998,0.78997l0.09,1.02996l-2.4499,1.46994l0.52998,1.07996l-1.27995,0.81997l-0.61998,2.07992l-0.91996,-0.1l-1.27995,0.55998l-0.72997,1.02996l-1.38994,-0.83997l-2.13991,0.52998l-0.17999,-2.00992l-1.33995,0.32999l-1.30995,-0.54998l0.02,-1.52994l1.07996,-1.30995l-0.44998,-0.35999l0.1,-1.65993l1.02996,-0.27999l0.28999,-0.63997l1.77993,-1.58994l0.54998,0.53998l1.29995,0.27999l0.32999,-1.32995l-0.44998,-0.59998l0.58998,-1.40994l-0.11,-0.85997l-1.26995,-0.03l-0.57998,-0.99996l-1.07996,-0.96996l-1.79993,-0.68997l-1.21995,-1.21995l1.04996,-1.66993l-0.47998,-0.54998l0.83997,-1.25995l-1.58994,-0.04l-0.43998,-0.71997l-1.83993,-1.38994l-0.14999,-0.80997l1.70993,-0.93996l0.47998,-1.40994l1.43994,-1.88992l-0.16999,-1.16995l-0.66997,-1.68993l-1.31995,-1.33995l-0.78997,0.97996l-0.77997,0.04l-2.22991,-1.85993l-0.80997,0.02l-1.02996,-1.30995l-1.02996,-0.76997l0.46998,-1.44994l-0.34999,-0.49998l-0.54998,-2.67989l4.01984,-1.09996l1.28995,-0.83997l1.45994,-1.71993l1.27995,-2.07992l0.64997,-1.47994l0.88996,-2.94988l0.32999,-2.10992l0.01,-1.85993l-0.30999,-1.62993l-2.69989,-1.90992l-2.18991,-0.27999l0.47998,-1.77993l1.35995,0.20999l0.12999,-0.90996l1.59994,-0.72997l0.96996,0.02l1.66993,-0.87996l1.64993,0.37998l0.75997,0.87996l1.31995,-0.66997l3.11988,-0.08l0.36999,-1.04996l-2.5599,-1.62993l1.58994,-0.33999l2.77989,-1.03996l2.5099,-0.34999l0.60998,-1.17995l1.05996,-0.66997l0.88996,0.12l0.50998,-0.91996l1.08996,0.21999l2.74989,-0.93996l3.56986,-0.08l1.26995,-0.68997l2.36991,0.24999l1.32995,-0.37998l1.00996,0.42998l0.99996,-0.71997l-0.62997,-1.02996l0.30999,-1.91992l1.79993,-0.06l2.4699,0.64997l1.40994,-0.05l0.04,-1.22995l0.48998,-0.68997l1.03996,0.28999l1.64993,-1.67993l-0.99996,-0.89996l0.86997,-0.94996l0.91996,-0.20999l2.3899,0.64997l-0.09,-1.20995l0.50998,-1.30995l1.77993,0.62997l-0.22999,0.61998l1.00996,1.29995l1.03996,0.32999l0.85997,1.80993l1.49994,0.05l0.51998,-1.39994l0.68997,1.05996l1.51994,-0.49998l0.33999,-1.26995l0.55998,-0.29999l0.57998,1.27995l1.24995,0.31999l1.46994,-1.01996l1.89992,0.62997l0.73997,-0.63997l1.55994,-0.38998l1.95992,0.51998l0.61998,-0.27999l2.23991,0.86997l0.31999,0.86997l-4.43982,0.87996l-2.01992,0.18999l-0.97996,0.57998l-1.68993,0.03M-91.22178,86.27019l-2.4399,1.34995l-1.69993,-0.26999l-1.47994,0.44998l-0.52998,0.84997l1.44994,1.43994l-0.31999,1.13995l0.99996,1.65993l0.75997,-0.12999l0.75997,1.29995l1.71993,-0.62997l2.18991,-1.31995l3.12987,-0.1l0.93996,-0.91996l1.60994,0.16999l0.98996,-1.00996l0.95996,0.38998l1.70993,-0.25999l0.74997,-0.72997l0.97996,-2.23991l-1.48994,-0.43998l-1.49994,-1.00996l-1.53994,-0.29999l-1.21995,0.21999l-2.36991,-0.85997l-4.35983,1.24995"/></g></g></svg>