<svg version="1.1" xmlns="http://www.w3.org/2000/svg" xmlns:xlink="http://www.w3.org/1999/xlink" width="90" height="260" viewBox="0,0,90,260"><g transform="translate(-195,-50)"><g data-paper-data="{&quot;isPaintingLayer&quot;:true}" stroke="none" stroke-width="1" stroke-linecap="butt" stroke-linejoin="miter" stroke-miterlimit="10" stroke-dasharray="" stroke-dashoffset="0" style="mix-blend-mode: normal"><path d="M195,310v-260h90v260z" fill-opacity="0" fill="#000000" fill-rule="nonzero"/><g fill-rule="evenodd"><path d="M205,243h70c5.54,0 10,4.46 10,10v47c0,5.54 -4.46,10 -10,10h-70c-5.54,0 -10,-4.46 -10,-10v-47c0,-5.54 4.46,-10 10,-10z" fill="#12151a"/><path d="M205,243h70c5.54,0 10,4.46 10,10v17h-90v-17c0,-5.54 4.46,-10 10,-10z" fill="#31476d"/><g fill="#f6cb51"><path d="M203,278h14v24h-14z"/></g></g><g fill="#ffffff" fill-rule="nonzero"><path d="M219.164,256.04v5.4141c0,0.35091 0.15039,0.56283 0.45117,0.63575c0.30989,0.07747 1.01856,0.11621 2.126,0.11621c1.08007,0 1.79327,-0.05469 2.1396,-0.16406c0.19597,-0.0638 0.32357,-0.24154 0.38281,-0.53321c0.07747,-0.41015 0.11849,-0.89549 0.12305,-1.456l1.4287,0.40332c-0.07292,1.3444 -0.25749,2.20347 -0.55371,2.5772c-0.19597,0.24609 -0.49219,0.39193 -0.88867,0.4375c-0.62435,0.06836 -1.68391,0.10254 -3.1787,0.10254c-1.15753,0 -1.91633,-0.0319 -2.2764,-0.0957c-0.54232,-0.09115 -0.88639,-0.3304 -1.0322,-0.71777c-0.07292,-0.20508 -0.10938,-0.47852 -0.10938,-0.82031v-5.4209l-1.3057,0.45117l-0.32129,-1.3262l1.627,-0.56055v-3.6846h1.3877v3.2061l1.4697,-0.49903v-3.6025h1.374v3.124l2.29,-0.78614l0.71777,0.4375v5.1201c0,0.35547 -0.08431,0.61979 -0.25293,0.79297c-0.19141,0.19141 -0.5127,0.28711 -0.96387,0.28711c-0.36914,0 -0.76107,-0.0319 -1.1758,-0.0957l-0.22559,-1.3057c0.26888,0.06836 0.54232,0.10254 0.82031,0.10254c0.20052,0 0.32357,-0.04102 0.36914,-0.12305c0.04557,-0.06836 0.06836,-0.18229 0.06836,-0.34179v-3.2334l-1.6475,0.57422v5.5303h-1.374v-5.0586zM214.1396,253.8046v-3.3018h1.4697v3.3018h1.3262v1.3877h-1.3262v4.3476c0.47851,-0.16406 0.95248,-0.33496 1.4219,-0.51269l0.12988,1.3193c-1.47653,0.67447 -2.99183,1.23957 -4.5459,1.6953l-0.47852,-1.4561c0.7018,-0.18229 1.31703,-0.35547 1.8457,-0.51953c0.0638,-0.0228 0.11621,-0.03877 0.15723,-0.0479v-4.8262h-1.7363v-1.3877z"/><path d="M233.383,259.56c-0.97527,0.82487 -2.18523,1.50163 -3.6299,2.0303l-0.86816,-1.0527c1.1758,-0.38281 2.22627,-0.93198 3.1514,-1.6475l-0.23926,-0.11621c-0.88413,-0.42383 -1.85027,-0.85223 -2.8984,-1.2852l0.62891,-1.0391c1.1758,0.42839 2.2764,0.87729 3.3018,1.3467l0.2666,0.12305c1.153,-1.21227 2.02117,-2.79367 2.6045,-4.7442l1.3604,0.42383c-0.66537,1.987 -1.55177,3.63903 -2.6592,4.9561c0.04557,0.0228 0.08887,0.0456 0.12988,0.0684c0.64258,0.31901 1.48568,0.78614 2.5293,1.4014l-0.82715,1.1484c-0.875,-0.5332 -1.8252,-1.07097 -2.8506,-1.6133zM230.341,256.5932c-0.32813,-1.08467 -0.70183,-2.00067 -1.1211,-2.748l1.2852,-0.5127c0.44206,0.78387 0.82943,1.69303 1.1621,2.7275zM232.7472,256.04633c-0.33724,-1.05273 -0.71551,-1.97103 -1.1348,-2.7549l1.2305,-0.49219c0.52409,0.91147 0.91145,1.81153 1.1621,2.7002zM239.0636,251.14493v12.66h-1.5244v-0.71778h-9.0781v0.71778h-1.5107v-12.66zM228.4606,252.41643v9.3516h9.0781v-9.3516z"/><path d="M247.69,261.72c2.67513,-0.67447 4.0127,-2.208 4.0127,-4.6006c0,-1.0436 -0.26888,-1.9414 -0.80664,-2.6934c-0.60156,-0.84767 -1.51756,-1.39227 -2.748,-1.6338c-0.26888,2.1146 -0.63575,3.84637 -1.1006,5.1953c-0.31901,0.94333 -0.71551,1.83427 -1.1895,2.6728c-0.6836,1.194 -1.46063,1.791 -2.3311,1.791c-0.64713,0 -1.22363,-0.29167 -1.7295,-0.875c-0.32357,-0.36914 -0.58561,-0.82261 -0.78613,-1.3604c-0.26432,-0.69727 -0.39648,-1.44693 -0.39648,-2.249c0,-1.2988 0.35773,-2.4951 1.0732,-3.5889c0.7246,-1.11653 1.66567,-1.92773 2.8232,-2.4336c0.84307,-0.36914 1.7682,-0.55371 2.7754,-0.55371c1.57227,0 2.90757,0.42153 4.0059,1.2646c1.34893,1.03453 2.0234,2.4997 2.0234,4.3955c0,3.1764 -1.60643,5.19073 -4.8193,6.043zM246.6646,252.7376c-0.80667,0.09115 -1.48113,0.30762 -2.0234,0.64941c-0.34635,0.22331 -0.69042,0.51954 -1.0322,0.88868c-0.94793,1.0482 -1.4219,2.26273 -1.4219,3.6436c0,1.00713 0.20052,1.79553 0.60156,2.3652c0.24609,0.35091 0.48991,0.52636 0.73145,0.52636c0.32813,0 0.69726,-0.3623 1.1074,-1.0869c1.0026,-1.76367 1.68163,-4.09243 2.0371,-6.9863z"/><path d="M257.596,258.76v2.4814c0,0.36003 0.13216,0.5765 0.39648,0.64941c0.39193,0.10938 1.68846,0.16407 3.8896,0.16407c1.95507,0 3.17187,-0.05697 3.6504,-0.1709c0.22787,-0.05467 0.3737,-0.18227 0.4375,-0.38281c0.07747,-0.22787 0.139,-0.7588 0.18457,-1.5928l1.5107,0.46485c-0.05013,0.8978 -0.12304,1.51303 -0.21875,1.8457c-0.12305,0.43294 -0.35091,0.72689 -0.68359,0.88184c-0.23698,0.10937 -0.56511,0.17773 -0.98438,0.20507c-1.08007,0.07747 -2.49053,0.11621 -4.2314,0.11621c-2.43813,0 -3.88737,-0.04329 -4.3477,-0.12988c-0.51953,-0.0957 -0.8545,-0.32356 -1.0049,-0.68359c-0.07292,-0.18229 -0.10938,-0.41016 -0.10938,-0.6836v-7.0205l-0.06836,0.0547c-0.20963,0.15039 -0.45801,0.31674 -0.74512,0.49903l-0.93652,-1.1348c1.62693,-0.8932 3.00323,-2.16697 4.1289,-3.8213l0.95703,0.65625h3.8896l0.72461,0.75196c-0.60156,0.8522 -1.23046,1.6201 -1.8867,2.3037h4.3818v4.5459zM257.596,257.5432h2.9395v-2.0713h-2.9395zM262.0052,255.4719v2.0713h3.001v-2.0713zM260.4193,254.2141c0.58789,-0.61523 1.08919,-1.21907 1.5039,-1.8115h-3.1582c-0.50586,0.61979 -1.10743,1.22363 -1.8047,1.8115z"/></g><g fill-opacity="0.99768" fill="#ffffff" fill-rule="nonzero"><path d="M227.302,287.34v-4.4365h1.374v1.456h2.2422v1.2305h-2.2422v1.5381c0.60612,-0.10026 1.34895,-0.23926 2.2285,-0.41699l0.06836,1.1348c-1.18947,0.33269 -2.60907,0.62663 -4.2588,0.88184l-0.40332,-1.251c0.19141,-0.0228 0.43522,-0.0547 0.73145,-0.0957zM225.7776,287.47672c0.71093,1.0254 1.0664,2.167 1.0664,3.4248c0,0.57421 -0.06152,1.01171 -0.18457,1.3125c-0.19141,0.45573 -0.63347,0.68359 -1.3262,0.68359c-0.26432,0 -0.50813,-0.0228 -0.73144,-0.0684l-0.32129,-1.3467c0.28711,0.05927 0.5332,0.0889 0.73828,0.0889c0.22787,0 0.36914,-0.05469 0.42383,-0.16406c0.04101,-0.08203 0.06152,-0.23015 0.06152,-0.44434c0,-1.2806 -0.32357,-2.39487 -0.9707,-3.3428c0.31445,-0.87047 0.60384,-1.9642 0.86816,-3.2812h-1.1758v11.683h-1.3467v-12.94h3.2334l0.73145,0.57422c-0.30534,1.49027 -0.66081,2.76403 -1.0664,3.8213zM232.634,284.38692c0.83853,-0.30534 1.5677,-0.64714 2.1875,-1.0254l0.86816,1.1211c-0.87953,0.42383 -1.8981,0.79296 -3.0557,1.1074v1.2168c0,0.20508 0.06608,0.32813 0.19824,0.36914c0.13216,0.041 0.41015,0.0615 0.83398,0.0615c0.3418,0 0.56739,-0.0228 0.67676,-0.0684c0.14583,-0.05467 0.24154,-0.21189 0.28711,-0.47167c0.0319,-0.20508 0.05697,-0.53776 0.0752,-0.99805l1.2441,0.37597c-0.00453,1.0208 -0.13897,1.67933 -0.40332,1.9756c-0.16406,0.18229 -0.41471,0.29623 -0.75195,0.3418c-0.37825,0.05013 -0.86589,0.0752 -1.4629,0.0752c-0.87953,0 -1.4492,-0.0957 -1.709,-0.28711c-0.23242,-0.16862 -0.34863,-0.46256 -0.34863,-0.88183v-4.4844h1.3604zM229.8518,289.53442c0.17318,-0.41471 0.29851,-0.82941 0.37598,-1.2441l1.4424,0.16406c-0.09115,0.29623 -0.23926,0.65626 -0.44434,1.0801h3.8076v6.4873h-1.4834v-0.73144h-4.71v0.73144h-1.4697v-6.4873zM228.8401,290.65552v1.1621h4.71v-1.1621zM228.8401,292.88402v1.2578h4.71v-1.2578z"/><path d="M244.631,289.41c-0.17318,1.39907 -0.40332,2.52473 -0.69043,3.377c-0.42839,1.27607 -1.00945,2.34473 -1.7432,3.206l-0.90918,-1.1484c0.91147,-1.05727 1.54267,-2.58853 1.8936,-4.5938c0.15495,-0.90693 0.2666,-1.97333 0.33496,-3.1992c0.05013,-0.98893 0.07519,-1.73633 0.07519,-2.2422h-1.1689v-1.3467h5.4756l0.69727,0.57422c-0.29623,1.34893 -0.59473,2.5042 -0.89551,3.4658h1.6543c-0.26888,2.028 -0.78841,3.7142 -1.5586,5.0586c0.65625,0.75193 1.43555,1.3968 2.3379,1.9346l-0.89551,1.3809c-0.84307,-0.57422 -1.60187,-1.26692 -2.2764,-2.0781c-0.65169,0.82487 -1.50619,1.59277 -2.5635,2.3037l-0.99805,-1.1758c0.75653,-0.43294 1.35583,-0.86134 1.7979,-1.2852c0.27799,-0.26433 0.57422,-0.60386 0.88867,-1.0186c-0.62891,-0.97527 -1.11427,-2.04623 -1.4561,-3.2129zM244.88393,285.4452c0.33268,2.388 0.99578,4.35447 1.9893,5.8994c0.37825,-0.77473 0.66992,-1.62467 0.875,-2.5498h-1.8936c0.42839,-1.18947 0.80665,-2.51793 1.1348,-3.9854h-2.0986c0,0.20507 -0.00227,0.41699 -0.0068,0.63574zM238.57433,287.8514c-0.59245,-0.834 -1.25098,-1.6019 -1.9756,-2.3037l0.84082,-0.97754c0.0957,0.09115 0.1914,0.18457 0.28711,0.28027l0.08887,0.0889c0.49675,-0.69727 0.95475,-1.46517 1.374,-2.3037l1.2305,0.68359c-0.51041,0.82033 -1.11881,1.65203 -1.8252,2.4951c0.35547,0.44206 0.62435,0.78843 0.80664,1.0391c0.69727,-0.84767 1.34897,-1.72493 1.9551,-2.6318l1.0801,0.77929c-0.94793,1.30793 -2.0189,2.57487 -3.2129,3.8008c0.77473,-0.05013 1.44467,-0.10254 2.0098,-0.15722c-0.12305,-0.35547 -0.26888,-0.72007 -0.4375,-1.0938l1.1074,-0.4375c0.41015,0.84767 0.76105,1.848 1.0527,3.001l-1.1484,0.49903c-0.07747,-0.31901 -0.16178,-0.63575 -0.25293,-0.9502c-0.20963,0.03647 -0.54687,0.0866 -1.0117,0.15039l-0.17773,0.0274v6.1797h-1.374v-6.0225l-0.16406,0.0205c-0.66993,0.06836 -1.33757,0.12305 -2.0029,0.16406l-0.28027,-1.2715l0.45801,-0.0137c0.20963,-0.00913 0.43066,-0.01823 0.66309,-0.0273c0.27799,-0.29622 0.58105,-0.63575 0.90918,-1.0186zM236.59873,294.4207c0.32813,-1.153 0.53321,-2.347 0.61524,-3.582l1.292,0.16407c-0.06836,1.56313 -0.27344,2.89843 -0.61523,4.0059zM241.13783,293.56621c-0.09571,-0.86587 -0.25977,-1.69987 -0.49219,-2.502l1.1211,-0.35547c0.24153,0.79753 0.42838,1.57227 0.56055,2.3242z"/><path d="M254.297,295.03v-9.6592c-0.96613,0.32357 -1.8776,0.56282 -2.7344,0.71777l-0.33496,-1.3877c1.44467,-0.35091 2.62957,-0.75651 3.5547,-1.2168h1.3125v11.546z"/></g></g></g></svg>