<svg version="1.1" xmlns="http://www.w3.org/2000/svg" xmlns:xlink="http://www.w3.org/1999/xlink" width="168.1" height="33.153" viewBox="0,0,168.1,33.153"><g transform="translate(-240,-180)"><g data-paper-data="{&quot;isPaintingLayer&quot;:true}" stroke="none" stroke-linecap="butt" stroke-linejoin="miter" stroke-miterlimit="10" stroke-dasharray="" stroke-dashoffset="0" style="mix-blend-mode: normal"><path d="M248,180h152.1c4.432,0 8,3.568 8,8v17.153c0,4.432 -3.568,8 -8,8h-152.1c-4.432,0 -8,-3.568 -8,-8v-17.153c0,-4.432 3.568,-8 8,-8z" fill-opacity="0.7" fill="#000000" fill-rule="evenodd" stroke-width="0"/><path d="M248.7744,189.61439c-0.13289,-0.33334 -0.28878,-0.62632 -0.46766,-0.87894l0.80116,-0.19922c0.2121,0.33855 0.38716,0.69793 0.52516,1.07815h0.99666c-0.15333,-0.40105 -0.31561,-0.73961 -0.48683,-1.01566l0.78583,-0.20704c0.22233,0.35158 0.40505,0.75914 0.54816,1.22271h0.64784c0.20189,-0.37502 0.4025,-0.82556 0.60183,-1.35162l0.83566,0.34377c-0.19422,0.38543 -0.38589,0.72138 -0.575,1.00784h1.49881v1.72271h-0.85484v-1.03514h-5.40502v0.7383h4.97945l0.4025,0.40236c-0.49833,0.64065 -1.09251,1.21879 -1.78252,1.73442c0.01281,0.00781 0.03454,0.01824 0.06518,0.03129c0.69509,0.29948 1.63297,0.5521 2.81366,0.75783l-0.50216,0.78518c-1.16787,-0.21875 -2.2182,-0.57554 -3.15096,-1.07037c-1.00944,0.55992 -2.15559,0.94275 -3.43844,1.14851l-0.44467,-0.78128c1.10401,-0.13282 2.13901,-0.41668 3.105,-0.85158l-0.06905,-0.05078c-0.61588,-0.44012 -1.11294,-0.90237 -1.49118,-1.38675h-0.50983v-0.42189h-0.83183v-1.72271zM249.75573,191.75897c0.35522,0.36981 0.78584,0.70705 1.29187,1.01172c0.49066,-0.32553 0.90722,-0.66277 1.24967,-1.01172zM247.49791,187.82525c2.1441,-0.07552 4.11698,-0.28386 5.91866,-0.62502l0.59033,0.67971c-1.96268,0.34116 -4.03268,0.56773 -6.21,0.67971z" fill="#ffffff" fill-rule="nonzero" stroke-width="1"/><path d="M256.87767,189.08945v5.71498h-0.81649v-4.07828c-0.21211,0.35417 -0.45617,0.71618 -0.73217,1.08602l-0.38333,-0.96097c0.47533,-0.60158 0.87657,-1.31385 1.2037,-2.13681c0.17122,-0.4297 0.35138,-0.96228 0.54049,-1.59774l0.80883,0.2461c-0.21211,0.66929 -0.41911,1.24484 -0.621,1.72665zM262.03345,192.21062v2.59381h-0.84717v-0.38673h-2.7561v0.38673h-0.83949v-2.59381zM258.43017,192.88251v0.8633h2.7561v-0.8633zM257.88201,187.47613h3.84479v0.64065h-3.84479zM257.88201,189.82776h3.84479v0.67189h-3.84479zM257.88201,190.99575h3.84479v0.67189h-3.84479zM257.10385,188.60899h5.43177v0.71877h-5.43177z" fill="#ffffff" fill-rule="nonzero" stroke-width="1"/><path d="M263.65351,187.53482h0.90466v4.65642c0,0.98177 0.50601,1.47266 1.51803,1.47266c0.66702,0 1.21391,-0.31381 1.64066,-0.94143c0.276,-0.40366 0.52389,-1.02867 0.74366,-1.87505l0.77816,0.48049c-0.26067,0.94011 -0.57372,1.64326 -0.93916,2.10945c-0.575,0.72657 -1.32248,1.08986 -2.24247,1.08986c-0.9609,0 -1.63812,-0.30209 -2.03166,-0.90628c-0.24789,-0.37762 -0.37183,-0.8646 -0.37183,-1.46095z" fill="#ffffff" fill-rule="nonzero" stroke-width="1"/><path d="M270.03311,188.59479h1.79015c0.07156,-0.32293 0.15206,-0.74093 0.2415,-1.254l0.86633,0.10938c-0.07667,0.40366 -0.15845,0.78518 -0.24534,1.14457h2.55303v0.77737h-2.73312c-0.51111,2.08078 -1.07589,3.80608 -1.69436,5.17591l-0.84716,-0.3047c0.6721,-1.51829 1.23177,-3.14204 1.679,-4.87124h-1.60996zM276.81806,194.34107c-0.414,0.05471 -0.8791,0.08207 -1.39529,0.08207c-0.83569,0 -1.46691,-0.07292 -1.89367,-0.21876c-0.16356,-0.05727 -0.30284,-0.13801 -0.41783,-0.2422c-0.22489,-0.20834 -0.33734,-0.47397 -0.33734,-0.7969c0,-0.33074 0.10478,-0.62241 0.31433,-0.87502l0.68233,0.41017c-0.07922,0.10156 -0.11883,0.21354 -0.11883,0.33594c0,0.21095 0.09455,0.34767 0.28366,0.41017c0.28878,0.09376 0.70022,0.14063 1.23431,0.14063c0.51877,0 1.03627,-0.03906 1.5525,-0.11719zM273.22241,190.46984c1.00178,-0.11719 2.0981,-0.17969 3.28896,-0.1875l0.03834,0.79299c-1.16787,0.00538 -2.23992,0.06137 -3.21615,0.16797z" fill="#ffffff" fill-rule="nonzero" stroke-width="1"/><path d="M279.31522,188.69574v6.11343h-0.80116v-7.60184h0.80116v1.18364l0.368,-0.31251c0.22233,0.39324 0.39867,0.77217 0.529,1.1368l-0.52133,0.52735c-0.13544,-0.44012 -0.26067,-0.78907 -0.37566,-1.04685zM282.84569,187.72696h1.9857v0.58595h-1.9857v0.37501h1.71348v0.55861h-1.71348v0.38674h2.2386v0.62501h-5.16727v-0.62501h2.13518v-0.38674h-1.66365v-0.55861h1.66365v-0.37501h-1.88981v-0.58595h1.88981v-0.51955h0.7935zM284.44039,190.67238v3.42978c0,0.23959 -0.05622,0.41407 -0.16867,0.52346c-0.10989,0.10677 -0.29772,0.16016 -0.56349,0.16016c-0.31433,0 -0.63761,-0.02214 -0.96983,-0.06643l-0.11117,-0.70315c0.33989,0.04166 0.6095,0.06249 0.80883,0.06249c0.10222,0 0.16355,-0.02605 0.184,-0.07814c0.01275,-0.03123 0.01912,-0.07941 0.01912,-0.14454v-0.50388h-2.35361v1.45711h-0.80116v-4.13683zM281.28556,191.24662v0.45705h2.35361v-0.45705zM281.28556,192.27792v0.48048h2.35361v-0.48048zM277.42927,191.2857c0.115,-0.54168 0.19805,-1.24221 0.24916,-2.10158l0.01922,-0.32032l0.65167,0.06249c-0.03064,1.11462 -0.12009,2.01961 -0.26834,2.71495z" fill="#ffffff" fill-rule="nonzero" stroke-width="1"/><path d="M286.97271,188.01938v-0.81643h0.80116v0.81643h1.19211v0.68752h-1.19211v0.67189h1.35695v0.69533h-0.45617c-0.08177,0.3099 -0.19166,0.63804 -0.32966,0.9844h0.73982v0.67971h-1.31099v0.72268h1.26116v0.69533h-1.26116v1.64851h-0.80116v-1.64851h-1.35319v-0.69533h1.35319v-0.72268h-1.41451v-0.67971h0.70533c-0.08178,-0.34637 -0.18145,-0.6745 -0.299,-0.9844h-0.56349v-0.69533h1.57162v-0.67189h-1.24967v-0.68752zM287.9272,190.07411h-1.21896c0.08688,0.2474 0.18016,0.57554 0.27983,0.9844h0.63632c0.13289,-0.33334 0.23383,-0.66148 0.30283,-0.9844zM292.57697,187.48414v1.8282c0,0.22657 -0.04089,0.38673 -0.12267,0.48048c-0.09711,0.11198 -0.30028,0.16797 -0.6095,0.16797c-0.30155,0 -0.60311,-0.01302 -0.90466,-0.03907l-0.13033,-0.70315c0.42422,0.04684 0.69382,0.07026 0.80882,0.07026c0.12012,0 0.18017,-0.05339 0.18017,-0.16016v-0.94144h-1.679v2.26956h2.17352l0.45616,0.39845c-0.138,0.82813 -0.38972,1.56772 -0.75516,2.21878l-0.0422,0.07814c0.28111,0.33074 0.63248,0.63283 1.05412,0.90628l-0.42932,0.73049c-0.40378,-0.26563 -0.7641,-0.58335 -1.08096,-0.95316c-0.27344,0.35418 -0.58139,0.68752 -0.92383,1.00003l-0.45233,-0.64064v0.60939h-0.77816v-7.32049zM290.11984,191.16003v2.95319c0.31433,-0.21876 0.61716,-0.52606 0.9085,-0.92191c-0.391,-0.6146 -0.66573,-1.29171 -0.82417,-2.03132zM291.45381,192.49994c0.22745,-0.44793 0.37567,-0.89457 0.44467,-1.33991h-0.989c0.12522,0.50002 0.30666,0.94666 0.54433,1.33991z" fill="#ffffff" fill-rule="nonzero" stroke-width="1"/><path d="M297.40394,193.6221c1.50013,-0.38543 2.25019,-1.26175 2.25019,-2.62894c0,-0.59637 -0.15078,-1.1094 -0.45234,-1.53908c-0.33733,-0.48439 -0.851,-0.79559 -1.54101,-0.93362c-0.15078,1.20837 -0.3565,2.19798 -0.61717,2.96884c-0.17889,0.53908 -0.40122,1.0482 -0.66699,1.52737c-0.38333,0.68229 -0.81904,1.02343 -1.30712,1.02343c-0.36288,0 -0.68616,-0.16667 -0.96983,-0.50002c-0.18144,-0.21094 -0.32838,-0.47006 -0.44083,-0.77737c-0.14822,-0.39845 -0.22233,-0.82685 -0.22233,-1.28519c0,-0.74218 0.20061,-1.42578 0.60183,-2.0508c0.40633,-0.63804 0.93407,-1.10161 1.58321,-1.39069c0.47278,-0.21095 0.99156,-0.31642 1.55636,-0.31642c0.88165,0 1.63043,0.24089 2.24633,0.72267c0.75644,0.59117 1.13466,1.42845 1.13466,2.51184c0,1.81515 -0.90084,2.96621 -2.70251,3.4532zM296.82894,188.4891c-0.45234,0.05209 -0.83056,0.17579 -1.13466,0.3711c-0.19422,0.12761 -0.38716,0.29688 -0.57883,0.50783c-0.53155,0.59898 -0.79733,1.29301 -0.79733,2.08209c0,0.57554 0.11245,1.02608 0.33734,1.35162c0.138,0.20053 0.27472,0.30079 0.41017,0.30079c0.184,0 0.39099,-0.20704 0.62099,-0.62112c0.56222,-1.00782 0.94302,-2.33857 1.14238,-3.99227z" fill="#ffffff" fill-rule="nonzero" stroke-width="1"/><path d="M303.55569,192.47127c0.61077,0.8568 1.5755,1.28519 2.8942,1.28519h2.1965c-0.10478,0.23439 -0.18017,0.51695 -0.22617,0.84769h-2.03553c-1.34936,0 -2.42395,-0.47527 -3.22377,-1.42582c-0.37823,0.64325 -0.85993,1.17973 -1.44512,1.60945l-0.52899,-0.67971c0.60822,-0.45053 1.11423,-1.01044 1.51803,-1.67971c-0.28366,-0.63544 -0.48299,-1.24484 -0.598,-1.8282c-0.16866,0.41147 -0.3386,0.74091 -0.50982,0.98831l-0.48683,-0.71877c0.56988,-0.95055 0.94681,-2.17975 1.13079,-3.6876l0.7935,0.16016c-0.02047,0.15886 -0.04346,0.31382 -0.06895,0.46486h1.20747l0.37567,0.34375c-0.14311,1.84119 -0.47404,3.28135 -0.9928,4.32046zM303.11485,191.5728c0.322,-0.91407 0.53539,-1.90499 0.64017,-2.97278h-0.9545c-0.10222,0.38022 -0.1776,0.63674 -0.22616,0.76955c0.115,0.80989 0.29516,1.5443 0.54049,2.20323zM307.35837,187.65473v4.57041c0,0.06771 0.00766,0.11849 0.02298,0.15234c0.02047,0.04166 0.06903,0.06249 0.14566,0.06249c0.13033,0 0.20956,-0.05859 0.23767,-0.17578c0.03064,-0.11979 0.05491,-0.45574 0.07281,-1.00784l0.68233,0.28126c-0.02556,0.612 -0.069,1.02088 -0.13034,1.22664c-0.07155,0.23959 -0.21338,0.38153 -0.42549,0.4258c-0.11755,0.02605 -0.29261,0.03907 -0.52517,0.03907c-0.36544,0 -0.60183,-0.0599 -0.70917,-0.1797c-0.08944,-0.09635 -0.13416,-0.2461 -0.13416,-0.44923v-4.16025h-0.78966v1.41804c0,0.81514 -0.08306,1.49615 -0.24917,2.04303c-0.14566,0.48439 -0.38716,0.93884 -0.72449,1.36333l-0.598,-0.61721c0.31177,-0.3724 0.52644,-0.78125 0.64399,-1.22654c0.115,-0.44273 0.1725,-1.02867 0.1725,-1.75784v-2.0079z" fill="#ffffff" fill-rule="nonzero" stroke-width="1"/><path d="M310.78721,188.40299v1.58603h0.75899v0.80081h-0.75899v1.57038c0.207,-0.08854 0.43061,-0.19401 0.67083,-0.31642l0.09579,0.77738c-0.71298,0.39845 -1.53203,0.76564 -2.45713,1.10157l-0.23383,-0.87894c0.42166,-0.125 0.79605,-0.2487 1.12316,-0.3711v-1.88292h-0.897v-0.80081h0.897v-1.58603h-0.989v-0.80862h2.63733v0.80862zM316.11556,187.4928v4.00792h-1.74032v0.7422h1.80927v0.71096h-1.80927v0.82425h2.08535v0.76174h-5.15578v-0.76174h2.28467v-0.82425h-1.83998v-0.71096h1.83998v-0.7422h-1.71348v-4.00792zM312.6157,188.19595v0.93753h0.97367v-0.93753zM312.6157,189.82881v0.96878h0.97367v-0.96878zM315.36031,190.79759v-0.96878h-0.98515v0.96878zM315.36031,189.13353v-0.93753h-0.98515v0.93753z" fill="#ffffff" fill-rule="nonzero" stroke-width="1"/><path d="M318.41499,187.78719c0.20444,0.42449 0.437,0.94274 0.69766,1.55473c0.253,-0.09375 0.57756,-0.20573 0.97366,-0.33594c0.21467,-0.07032 0.37694,-0.1237 0.48683,-0.16017c-0.17889,-0.4323 -0.36927,-0.82426 -0.57116,-1.17587l0.70533,-0.27344c0.23256,0.38803 0.44467,0.80731 0.63633,1.25784c0.33478,-0.07032 0.61844,-0.10547 0.85099,-0.10547c0.48556,0 0.88167,0.12501 1.18835,0.37502c0.04603,0.03903 0.08564,0.07679 0.11883,0.11328c0.34499,0.37502 0.51749,0.82034 0.51749,1.33597c0,0.79952 -0.30283,1.37117 -0.90849,1.71494c-0.35778,0.20574 -0.92128,0.35158 -1.69049,0.43752l-0.31433,-0.72659c0.70532,-0.0599 1.22919,-0.19792 1.57162,-0.41408c0.30922,-0.19271 0.46383,-0.53776 0.46383,-1.03514c0,-0.32293 -0.08305,-0.57554 -0.24916,-0.75783c-0.16867,-0.1875 -0.40378,-0.28126 -0.70533,-0.28126c-0.13544,0 -0.31944,0.02083 -0.55199,0.06249c0.12011,0.32293 0.23766,0.67709 0.35266,1.0625l-0.73982,0.36329c-0.13289,-0.47397 -0.26067,-0.88285 -0.38333,-1.22664c-0.45234,0.13282 -0.93662,0.29558 -1.45284,0.4883c0.61333,1.53128 1.11805,2.9506 1.51416,4.25797l-0.7935,0.26954c-0.414,-1.38806 -0.9136,-2.80086 -1.49881,-4.23839l-0.13799,0.05471c-0.58777,0.22917 -1.00433,0.39454 -1.24967,0.49611l-0.28366,-0.77737l0.10733,-0.03907c0.59033,-0.22136 1.012,-0.37892 1.26502,-0.47267c-0.24277,-0.57554 -0.47533,-1.0951 -0.69766,-1.55867z" fill="#ffffff" fill-rule="nonzero" stroke-width="1"/><path d="M326.54798,194.68208c-0.47277,-0.70315 -1.00688,-1.35421 -1.60233,-1.95318l0.62099,-0.55862c0.61844,0.59898 1.16279,1.2357 1.63304,1.91018z" fill="#ffffff" fill-rule="nonzero" stroke-width="1"/><path d="M333.85875,189.41249c0.17889,0.09375 0.38461,0.20573 0.61717,0.33594l-0.48683,0.40236h2.30765l0.43317,0.44142c-0.575,0.88284 -1.14873,1.60813 -1.7212,2.17588l-0.77816,-0.46485c0.50345,-0.46876 0.90722,-0.93492 1.21133,-1.39846h-1.90902v3.06262c0,0.35418 -0.08561,0.58075 -0.25683,0.67971c-0.115,0.06771 -0.32966,0.10157 -0.64399,0.10157c-0.41144,0 -0.86505,-0.02605 -1.36081,-0.07814l-0.18783,-0.87112c0.47789,0.07813 0.9021,0.11719 1.27265,0.11719c0.14056,0 0.22745,-0.02345 0.26067,-0.07036c0.02556,-0.03903 0.03834,-0.11065 0.03834,-0.21484v-2.72666h-3.21228v-0.75393h4.15535c-0.86375,-0.50522 -1.72754,-0.93231 -2.59136,-1.28126l0.621,-0.50392c0.58011,0.23699 1.09249,0.46747 1.53715,0.69143c0.39355,-0.27345 0.73855,-0.54168 1.035,-0.80471h-4.0978v-0.7422h5.21334l0.4715,0.46876c-0.66953,0.5495 -1.31224,1.0274 -1.92814,1.43369z" fill="#ffffff" fill-rule="nonzero" stroke-width="1"/><path d="M338.71279,188.01938v-0.81643h0.80116v0.81643h1.19211v0.68752h-1.19211v0.67189h1.35695v0.69533h-0.45616c-0.08178,0.3099 -0.19167,0.63804 -0.32967,0.9844h0.73983v0.67971h-1.31099v0.72268h1.26116v0.69533h-1.26116v1.64851h-0.80116v-1.64851h-1.35319v-0.69533h1.35319v-0.72268h-1.41451v-0.67971h0.70533c-0.08178,-0.34637 -0.18145,-0.6745 -0.299,-0.9844h-0.5635v-0.69533h1.57162v-0.67189h-1.24967v-0.68752zM339.66729,190.07411h-1.21896c0.08689,0.2474 0.18017,0.57554 0.27983,0.9844h0.63633c0.13289,-0.33334 0.23383,-0.66148 0.30283,-0.9844zM344.31706,187.48414v1.8282c0,0.22657 -0.04089,0.38673 -0.12267,0.48048c-0.09711,0.11198 -0.30027,0.16797 -0.60949,0.16797c-0.30156,0 -0.60311,-0.01302 -0.90466,-0.03907l-0.13034,-0.70315c0.42422,0.04684 0.69383,0.07026 0.80883,0.07026c0.12011,0 0.18016,-0.05339 0.18016,-0.16016v-0.94144h-1.679v2.26956h2.17352l0.45616,0.39845c-0.13799,0.82813 -0.38971,1.56772 -0.75516,2.21878l-0.0422,0.07814c0.2811,0.33074 0.63248,0.63283 1.05412,0.90628l-0.42933,0.73049c-0.40378,-0.26563 -0.7641,-0.58335 -1.08096,-0.95316c-0.27344,0.35418 -0.58138,0.68752 -0.92382,1.00003l-0.45234,-0.64064v0.60939h-0.77816v-7.32049zM341.85993,191.16003v2.95319c0.31433,-0.21876 0.61716,-0.52606 0.9085,-0.92191c-0.391,-0.6146 -0.66572,-1.29171 -0.82417,-2.03132zM343.1939,192.49994c0.22744,-0.44793 0.37566,-0.89457 0.44466,-1.33991h-0.989c0.12522,0.50002 0.30667,0.94666 0.54434,1.33991z" fill="#ffffff" fill-rule="nonzero" stroke-width="1"/><path d="M352.05644,187.60548v6.25799c0,0.30991 -0.0805,0.52606 -0.2415,0.64846c-0.13033,0.10156 -0.34883,0.15234 -0.65549,0.15234c-0.48811,0 -0.94555,-0.01952 -1.37231,-0.05855l-0.1725,-0.8555c0.506,0.0599 0.93404,0.08985 1.28414,0.08985c0.12522,0 0.20572,-0.02214 0.24149,-0.06643c0.02556,-0.03385 0.03834,-0.08984 0.03834,-0.16797v-2.23059h-4.84532v3.34387h-0.87783v-7.11354zM346.33333,188.36722v2.24614h1.97797v-2.24614zM351.17865,190.61336v-2.24614h-2.03553v2.24614z" fill="#ffffff" fill-rule="nonzero" stroke-width="1"/><path d="M356.98973,193.6221c1.50013,-0.38543 2.25019,-1.26175 2.25019,-2.62894c0,-0.59637 -0.15078,-1.1094 -0.45233,-1.53908c-0.33733,-0.48439 -0.851,-0.79559 -1.54101,-0.93362c-0.15078,1.20837 -0.3565,2.19798 -0.61717,2.96884c-0.17889,0.53908 -0.40122,1.0482 -0.66699,1.52737c-0.38333,0.68229 -0.81904,1.02343 -1.30712,1.02343c-0.36288,0 -0.68616,-0.16667 -0.96983,-0.50002c-0.18144,-0.21094 -0.32839,-0.47006 -0.44084,-0.77737c-0.14822,-0.39845 -0.22232,-0.82685 -0.22232,-1.28519c0,-0.74218 0.20061,-1.42578 0.60183,-2.0508c0.40633,-0.63804 0.93403,-1.10161 1.58311,-1.39069c0.47278,-0.21095 0.99156,-0.31642 1.55636,-0.31642c0.88165,0 1.63043,0.24089 2.24633,0.72267c0.75644,0.59117 1.13466,1.42845 1.13466,2.51184c0,1.81515 -0.90084,2.96621 -2.70251,3.4532zM356.41473,188.4891c-0.45233,0.05209 -0.83055,0.17579 -1.13466,0.3711c-0.19422,0.12761 -0.38716,0.29688 -0.57883,0.50783c-0.53155,0.59898 -0.79733,1.29301 -0.79733,2.08209c0,0.57554 0.11244,1.02608 0.33733,1.35162c0.138,0.20053 0.27472,0.30079 0.41017,0.30079c0.184,0 0.391,-0.20704 0.621,-0.62112c0.56222,-1.00782 0.94298,-2.33857 1.14228,-3.99227z" fill="#ffffff" fill-rule="nonzero" stroke-width="1"/><path d="M364.02313,192.11795v2.28914h-2.15816v0.40236h-0.7935v-2.69153zM361.86497,192.78202v0.96096h1.36468v-0.96096zM365.80565,189.75847v-2.5508h0.83183v2.5508h1.54477v0.80081h-1.54477v4.2501h-0.83183v-4.2501h-1.57162v-0.80081zM361.23632,187.49669h2.61435v0.64845h-2.61435zM360.76482,188.64126h3.51898v0.70315h-3.51898zM361.23632,189.84054h2.61435v0.64846h-2.61435zM361.23632,190.98511h2.61435v0.62502h-2.61435z" fill="#ffffff" fill-rule="nonzero" stroke-width="1"/><path d="M371.31409,193.37982c-0.17123,0.76305 -0.79479,1.25915 -1.87069,1.48831l-0.44084,-0.67189c0.77942,-0.11979 1.25729,-0.39194 1.43363,-0.81643h-1.86296v-0.64845h1.93963v-0.44924h-0.91233v-3.16024h2.90182l-0.60949,-0.42189c0.39355,-0.38282 0.70022,-0.90628 0.91999,-1.57038l0.7935,0.13672c-0.069,0.1823 -0.13544,0.34246 -0.19933,0.48048h2.461v0.63284h-1.426c0.10989,0.13021 0.22361,0.27605 0.34116,0.43752l-0.7935,0.20704c-0.12522,-0.22136 -0.2645,-0.43622 -0.41782,-0.64456h-0.4945c-0.17889,0.29689 -0.36417,0.54429 -0.55584,0.74221h2.49933v3.16024h-0.851v0.44924h1.86296v0.64845h-1.86296v1.42582h-0.85483v-1.42582zM371.35243,192.73137h1.96262v-0.44924h-1.96262zM374.17758,191.74695v-0.3672h-3.72978v0.3672zM374.17758,190.86802v-0.35157h-3.72978v0.35157zM374.17758,190.00472v-0.35549h-3.72978v0.35549zM371.17224,188.37963c0.12011,0.16928 0.22489,0.33725 0.31433,0.50392l-0.80116,0.17578c-0.13289,-0.28907 -0.25428,-0.51564 -0.36416,-0.67971h-0.4255c-0.22489,0.32032 -0.48811,0.61851 -0.78966,0.89456l-0.56349,-0.53518c0.52389,-0.41667 0.89827,-0.95837 1.12316,-1.62509l0.83183,0.13672c-0.07156,0.17449 -0.14567,0.33986 -0.22233,0.49611h1.75954v0.63284z" fill="#ffffff" fill-rule="nonzero" stroke-width="1"/><path d="M380.53677,193.6221c1.50013,-0.38543 2.25019,-1.26175 2.25019,-2.62894c0,-0.59637 -0.15078,-1.1094 -0.45233,-1.53908c-0.33733,-0.48439 -0.851,-0.79559 -1.54101,-0.93362c-0.15077,1.20837 -0.35649,2.19798 -0.61716,2.96884c-0.17889,0.53908 -0.40123,1.0482 -0.667,1.52737c-0.38333,0.68229 -0.81904,1.02343 -1.30712,1.02343c-0.36289,0 -0.68617,-0.16667 -0.96983,-0.50002c-0.18145,-0.21094 -0.32839,-0.47006 -0.44084,-0.77737c-0.14822,-0.39845 -0.22233,-0.82685 -0.22233,-1.28519c0,-0.74218 0.20061,-1.42578 0.60183,-2.0508c0.40633,-0.63804 0.93407,-1.10161 1.58321,-1.39069c0.47278,-0.21095 0.99156,-0.31642 1.55636,-0.31642c0.88165,0 1.63043,0.24089 2.24633,0.72267c0.75644,0.59117 1.13466,1.42845 1.13466,2.51184c0,1.81515 -0.90084,2.96621 -2.70251,3.4532zM379.96177,188.4891c-0.45233,0.05209 -0.83055,0.17579 -1.13466,0.3711c-0.19422,0.12761 -0.38716,0.29688 -0.57883,0.50783c-0.53155,0.59898 -0.79733,1.29301 -0.79733,2.08209c0,0.57554 0.11245,1.02608 0.33734,1.35162c0.138,0.20053 0.27472,0.30079 0.41017,0.30079c0.184,0 0.391,-0.20704 0.621,-0.62112c0.56222,-1.00782 0.94298,-2.33857 1.14228,-3.99227z" fill="#ffffff" fill-rule="nonzero" stroke-width="1"/><path d="M386.73805,188.20109h1.00429v0.70315h-1.00429v0.81643h1.23431v0.73439h-1.31871v1.73442c0,0.22136 -0.05239,0.38152 -0.15716,0.48048c-0.09711,0.09115 -0.25299,0.13673 -0.46766,0.13673c-0.138,0 -0.35522,-0.01561 -0.65167,-0.04684l-0.12266,-0.67971c0.22233,0.03648 0.39738,0.05471 0.52516,0.05471c0.07922,0 0.12522,-0.01955 0.138,-0.05865c0.01024,-0.02342 0.01535,-0.05988 0.01535,-0.10938v-1.51173h-1.65978v-0.73439h0.48683v-1.81649h0.70533v1.81649h0.54433v-2.51184h0.72833zM388.14483,191.92776v-3.00013h0.96983c0.03322,-0.11459 0.08689,-0.34377 0.16101,-0.68753h-1.39152v-0.71095h3.81795v0.71095h-1.6368c-0.069,0.2422 -0.14695,0.47138 -0.23384,0.68753h1.51803v4.2501h-3.20466v-1.16022l-0.52516,0.34375c-0.27089,-0.65627 -0.52261,-1.15627 -0.75517,-1.50002l0.52517,-0.29688c0.26578,0.38803 0.5175,0.84247 0.75516,1.36333zM390.59433,189.54483h-1.70961v0.60939h1.70961zM390.59433,190.74018h-1.70961v0.58987h1.70961zM390.59433,191.91605h-1.70961v0.63673h1.70961zM387.46249,194.34581c0.51111,-0.28386 0.966,-0.66017 1.36468,-1.12892l0.63633,0.39845c-0.47022,0.57033 -0.94684,0.99482 -1.42986,1.27348zM391.18464,194.84973c-0.37822,-0.46356 -0.78966,-0.86332 -1.23431,-1.19929l0.575,-0.44923c0.49066,0.33855 0.91617,0.70964 1.27651,1.11328zM384.21187,192.2637c0.322,-0.38543 0.58394,-0.91538 0.78583,-1.58986l0.644,0.20704c-0.21978,0.83338 -0.51622,1.4597 -0.88933,1.87898zM384.4457,194.11926c1.26753,-0.40366 2.12874,-1.10681 2.58364,-2.10945l0.56733,0.49611c-0.59544,1.07296 -1.47709,1.8243 -2.64496,2.25401z" fill="#ffffff" fill-rule="nonzero" stroke-width="1"/><path d="M396.45603,187.90833h3.00534v0.65627h-1.70198v0.64846h1.5947v0.63283h-1.5947v1.16416h-3.08578v-1.16416h-1.25729v0.72659c0,1.1797 -0.06133,2.11201 -0.184,2.79692c-0.09455,0.52085 -0.24788,0.99612 -0.45999,1.42582l-0.69766,-0.56251c0.19422,-0.4297 0.32711,-0.95448 0.39867,-1.57432c0.06386,-0.54429 0.09579,-1.23963 0.09579,-2.08603v-2.66417h3.03219v-0.70315h0.85483zM393.41621,188.5646v0.64846h1.25729v-0.64846zM395.49008,188.5646v0.64846h1.45284v-0.64846zM395.49008,189.84585v0.60549h1.45284v-0.60549zM396.37941,193.94755c-0.73854,0.39064 -1.67643,0.68753 -2.81366,0.89065l-0.39867,-0.71876c1.06822,-0.13021 1.90516,-0.32944 2.51083,-0.59767c-0.51877,-0.38283 -0.96218,-0.83727 -1.3302,-1.36333h-0.529v-0.67971h4.4888l0.4025,0.34377c-0.38077,0.59637 -0.92383,1.15759 -1.62917,1.68364c0.60567,0.2474 1.43112,0.4297 2.47635,0.54689l-0.4485,0.73831c-1.00178,-0.13803 -1.91157,-0.41929 -2.72936,-0.84378zM395.24089,192.15842c0.30922,0.36981 0.68489,0.69534 1.12703,0.9766c0.49833,-0.32814 0.88296,-0.65367 1.15387,-0.9766z" fill="#ffffff" fill-rule="nonzero" stroke-width="1"/><path d="M247.86303,199.10369h2.06614c0.22745,-0.3698 0.39995,-0.66799 0.5175,-0.89456l0.85483,0.12501c-0.07667,0.14063 -0.21211,0.3698 -0.40633,0.68752l-0.04983,0.08207h2.70251v0.76956h-3.21228c-0.33478,0.46876 -0.65422,0.87502 -0.95833,1.21877c0.48299,-0.29428 0.92382,-0.44142 1.32248,-0.44142c0.61844,0 1.02351,0.31642 1.21519,0.94925c0.65422,-0.22136 1.3212,-0.44012 2.00095,-0.65628l0.32967,0.75783l-0.13417,0.03907l-0.3795,0.10157c-0.71556,0.19792 -1.288,0.3672 -1.71734,0.50783c0.03064,0.33855 0.05237,0.77607 0.06518,1.31255l-0.83949,0.04684c-0.00264,-0.3099 -0.00776,-0.64585 -0.01535,-1.00784v-0.07814c-1.17554,0.40887 -1.7633,0.82034 -1.7633,1.23442c0,0.21355 0.15078,0.35939 0.45233,0.43752c0.29133,0.07552 0.81267,0.11328 1.56399,0.11328c0.69258,0 1.41962,-0.04036 2.18115,-0.12109l0.09203,0.83205c-0.73854,0.05727 -1.50393,0.08591 -2.29616,0.08591c-0.97622,0 -1.67005,-0.07552 -2.08149,-0.22656c-0.50855,-0.1875 -0.76283,-0.52474 -0.76283,-1.01172c0,-0.41147 0.18016,-0.77476 0.54049,-1.08986c0.37311,-0.32553 1.02989,-0.66148 1.97034,-1.00784c-0.05112,-0.20053 -0.11884,-0.34116 -0.20317,-0.42189c-0.09456,-0.09115 -0.21978,-0.13673 -0.37566,-0.13673c-0.253,0 -0.57116,0.09766 -0.95449,0.29298c-0.47278,0.23959 -0.98004,0.60029 -1.52179,1.08208l-0.50983,-0.59377c0.79474,-0.75262 1.41702,-1.49221 1.86682,-2.21878h-1.56013z" fill="#ffffff" fill-rule="nonzero" stroke-width="1"/><path d="M257.0857,203.28302c-0.47533,0.32813 -0.93788,0.57684 -1.38766,0.74611l-0.52516,-0.60158c1.22408,-0.42188 2.11085,-1.00393 2.66031,-1.74613l0.77816,0.19532c-0.10989,0.14584 -0.21978,0.27605 -0.32967,0.39064h2.64496l0.48683,0.41798c-0.38844,0.47657 -0.93916,0.96487 -1.65216,1.46489c0.80247,0.27605 1.71991,0.48569 2.75234,0.62893l-0.43317,0.81643c-1.21642,-0.23699 -2.25779,-0.56122 -3.12412,-0.97269c-0.97107,0.48439 -2.09424,0.81904 -3.36949,1.00394l-0.38334,-0.7422c1.00944,-0.08073 2.0061,-0.31251 2.98999,-0.69533l-0.0422,-0.02736c-0.40377,-0.27345 -0.75901,-0.56642 -1.06571,-0.87893zM257.71437,202.91581c0.33989,0.32033 0.77177,0.61721 1.29563,0.89065c0.54688,-0.32032 0.93151,-0.6172 1.15387,-0.89065zM259.17484,198.72033h3.18167v0.67971h-2.22335v1.75007c0,0.25522 -0.06772,0.4297 -0.20317,0.52346c-0.11244,0.07813 -0.30027,0.11719 -0.56349,0.11719c-0.24789,0 -0.51622,-0.02083 -0.805,-0.06249l-0.09967,-0.67971c0.27856,0.04684 0.51239,0.07026 0.7015,0.07026c0.07411,0 0.11756,-0.01693 0.13034,-0.05078c0.01024,-0.02342 0.01535,-0.06248 0.01535,-0.11719v-1.55079h-0.989c0,0.56773 -0.06261,1.01305 -0.18783,1.33597c-0.21978,0.57033 -0.63888,0.9779 -1.25729,1.22271l-0.57883,-0.54299c0.47789,-0.19011 0.80116,-0.43491 0.96983,-0.73439c0.09711,-0.17188 0.16484,-0.37762 0.20317,-0.61721c0.02298,-0.14063 0.03959,-0.36199 0.04983,-0.66409h-2.323v-0.67971h3.13947v-0.71874h0.83949zM261.7662,201.62668c-0.37823,-0.58075 -0.81522,-1.12244 -1.31099,-1.62509l0.62867,-0.4336c0.48555,0.42709 0.92766,0.93753 1.32634,1.53131zM255.02345,201.06416c0.52389,-0.40887 0.91105,-0.88283 1.1615,-1.42188l0.713,0.26954c-0.35522,0.74743 -0.81011,1.32689 -1.36468,1.73836z" fill="#ffffff" fill-rule="nonzero" stroke-width="1"/><path d="M266.21922,199.64882v-0.59377h-3.08964v-0.71877h7.01111v0.71877h-3.105v0.59377h2.68716v3.16801h-2.70627c-0.00264,0.01824 -0.00396,0.03648 -0.00396,0.05471c-0.02813,0.45835 -0.14313,0.86329 -0.34499,1.21483c0.99154,0.35417 2.22203,0.59767 3.69145,0.73048l-0.4715,0.76175c-1.42854,-0.16928 -2.66285,-0.46877 -3.70294,-0.89847c-0.29645,0.26303 -0.6785,0.47527 -1.14615,0.63673c-0.4191,0.14584 -0.96216,0.26173 -1.62917,0.34767l-0.414,-0.74221c1.03242,-0.07813 1.82849,-0.27735 2.38819,-0.59767c-0.54944,-0.27605 -1.058,-0.59767 -1.52565,-0.96487l0.56349,-0.4883c0.48811,0.38543 0.98771,0.69143 1.49881,0.918c0.14822,-0.25783 0.24278,-0.58206 0.28366,-0.97269h-2.66794v-3.16801zM266.21922,200.27384h-1.8592v0.62892h1.8592zM267.03572,200.27384v0.62892h1.86296v-0.62892zM266.21922,201.50432h-1.8592v0.67972h1.8592zM267.03572,201.50432v0.67972h1.86296v-0.67972z" fill="#ffffff" fill-rule="nonzero" stroke-width="1"/><path d="M271.50913,198.33647h0.90466v4.65642c0,0.98177 0.50601,1.47266 1.51803,1.47266c0.66702,0 1.21391,-0.31381 1.64066,-0.94144c0.276,-0.40366 0.52389,-1.02867 0.74366,-1.87505l0.77816,0.48048c-0.26067,0.94011 -0.57372,1.64326 -0.93916,2.10945c-0.575,0.72657 -1.32248,1.08986 -2.24247,1.08986c-0.9609,0 -1.63812,-0.30209 -2.03166,-0.90628c-0.24789,-0.37761 -0.37183,-0.8646 -0.37183,-1.46095z" fill="#ffffff" fill-rule="nonzero" stroke-width="1"/><path d="M280.95964,198.18504h0.84716v0.9844h2.41117v0.7422h-2.41117v0.92972h2.27704v0.7344h-2.27704v1.20706c0.90979,0.31251 1.80679,0.78256 2.69102,1.41017l-0.45233,0.7422c-0.66953,-0.51043 -1.41576,-0.96097 -2.2387,-1.35162c-0.02047,0.44532 -0.1048,0.79037 -0.25299,1.03514c-0.25811,0.42449 -0.76666,0.63674 -1.52565,0.63674c-0.58522,0 -1.05543,-0.11198 -1.41064,-0.33595c-0.39611,-0.25001 -0.59416,-0.58856 -0.59416,-1.01566c0,-0.51043 0.26705,-0.88805 0.80116,-1.13286c0.35777,-0.16147 0.82287,-0.2422 1.39529,-0.2422c0.22488,0 0.47149,0.01824 0.73982,0.05471v-1.00784h-2.71787v-0.7344h2.71787v-0.92972h-2.8827v-0.7422h2.8827zM280.95964,203.31017c-0.30411,-0.06508 -0.59544,-0.09762 -0.87399,-0.09762c-0.33989,0 -0.61589,0.05078 -0.828,0.15235c-0.253,0.1224 -0.3795,0.29688 -0.3795,0.52346c0,0.19011 0.09839,0.34376 0.29517,0.46095c0.19933,0.11979 0.46511,0.17969 0.79733,0.17969c0.39355,0 0.66444,-0.10677 0.81267,-0.32032c0.11755,-0.16667 0.17633,-0.41537 0.17633,-0.74611z" fill="#ffffff" fill-rule="nonzero" stroke-width="1"/><path d="M289.09263,198.16485h0.86249v1.07815h2.26168v0.75393h-2.26168v1.67193c0.08945,0.32032 0.13417,0.60548 0.13417,0.85549c0,0.92712 -0.20061,1.60813 -0.60183,2.04303c-0.437,0.47658 -1.09503,0.80602 -1.97411,0.98831l-0.437,-0.66408c0.68234,-0.13282 1.18835,-0.32032 1.51803,-0.56252c0.30922,-0.22917 0.5175,-0.54038 0.62483,-0.93362c-0.27344,0.30469 -0.59928,0.45704 -0.97749,0.45704c-0.42422,0 -0.76794,-0.1224 -1.03114,-0.3672c-0.30922,-0.28907 -0.46383,-0.70835 -0.46383,-1.25784c0,-0.28907 0.06772,-0.56772 0.20317,-0.83596c0.08944,-0.17188 0.19933,-0.31512 0.32966,-0.4297c0.30156,-0.26042 0.66317,-0.39064 1.08483,-0.39064c0.26833,0 0.51111,0.06511 0.72833,0.19532v-0.76955h-3.78347v-0.75393h3.78347zM289.12334,202.21961v-0.14453c0,-0.16668 -0.03833,-0.31382 -0.115,-0.44142c-0.14311,-0.23959 -0.35011,-0.35938 -0.621,-0.35938c-0.138,0 -0.26705,0.03906 -0.38716,0.11719c-0.28111,0.17969 -0.42167,0.45574 -0.42167,0.82814c0,0.23439 0.05111,0.43231 0.15334,0.59377c0.14311,0.22397 0.35394,0.33595 0.63249,0.33595c0.253,0 0.45361,-0.11589 0.60183,-0.34767c0.10478,-0.16406 0.15717,-0.35808 0.15717,-0.58205z" fill="#ffffff" fill-rule="nonzero" stroke-width="1"/></g></g></svg>