<svg version="1.1" xmlns="http://www.w3.org/2000/svg" xmlns:xlink="http://www.w3.org/1999/xlink" width="149.55755" height="172.8239" viewBox="0,0,149.55755,172.8239"><g transform="translate(-126.57294,51.84198)"><g data-paper-data="{&quot;isPaintingLayer&quot;:true}" fill="none" fill-rule="evenodd" stroke="#d645ff" stroke-width="72" stroke-linecap="round" stroke-linejoin="round" stroke-miterlimit="4" stroke-dasharray="" stroke-dashoffset="0" style="mix-blend-mode: normal"><path d="M240.13049,-15.84198l-3.0995,2.71956l-3.68941,2.38962l-5.25916,0.49992l0.80987,1.18981l-0.37994,6.239l-1.32979,-0.31995l-2.39962,3.98936l0.29995,0.89986l-3.95937,3.0995l-3.23948,7.02888l-0.97984,4.51928l-2.59958,3.20949l-1.74972,0.97984l-1.03983,2.36962l3.89938,5.67909l-0.26996,5.91905l4.93921,5.39914l2.68957,2.37962l2.94953,5.6291l0.01,3.99936l-1.33979,1.04983l1.20981,1.45977l-1.95969,2.96952l0.68989,1.91969l-1.40977,3.18949l-2.85954,0.08999l-1.66973,-2.34962l1.77972,-3.20949l-0.66989,-4.14934l-1.75972,-3.05951l-6.54895,5.03919l1.66973,1.34978l0.6399,3.08951l-1.10982,3.37946l1.96968,2.15965l-1.18981,2.08967l-1.94969,-1.16981l-1.67973,2.43961l-2.62958,0.45993l-0.46992,-1.79971l-3.67941,2.08967l-2.39962,-3.33947l-3.15949,-0.81987l0.91985,2.20965l1.20981,0.03999l-0.33995,2.56959l2.09966,-0.02l0.40993,1.69973l-1.78971,3.20949l-1.90969,-1.31979l-1.73972,0.67989l2.13966,1.93969l0.25996,2.36962l-1.44977,-0.53991l-1.64974,1.41977l-1.64974,-2.96952l-2.56959,0.52992l-0.31995,-2.41961l-3.56943,-0.52992l-2.43961,2.5296l2.60958,1.05983l0.12998,2.58959l1.8997,-1.91969l2.61958,-0.27996l-2.65957,5.39914l-2.24964,1.2798l-5.17917,-1.28979l-1.41977,1.8897l-2.74956,-0.93985l-1.66973,0.31995l-1.17981,-1.36978l3.42945,0.40993l1.54975,-1.92969l-0.91985,-1.36978l2.45961,-1.60974l0.07999,-1.69973l-2.60958,0.87986l-5.91905,5.57911l-2.10966,-0.58991l-1.56975,1.02984l-2.88954,-2.24964l0.99984,-2.35962l0.10998,-2.85954h-1.46976l-0.21996,3.1495l-1.99968,0.25996l-1.31979,-1.16981l1.83971,-3.25948"/></g></g></svg>