<svg version="1.1" xmlns="http://www.w3.org/2000/svg" xmlns:xlink="http://www.w3.org/1999/xlink" width="168.1" height="32.878" viewBox="0,0,168.1,32.878"><g transform="translate(-240,-180)"><g data-paper-data="{&quot;isPaintingLayer&quot;:true}" stroke="none" stroke-linecap="butt" stroke-linejoin="miter" stroke-miterlimit="10" stroke-dasharray="" stroke-dashoffset="0" style="mix-blend-mode: normal"><path d="M248,180h152.1c4.432,0 8,3.568 8,8v16.878c0,4.432 -3.568,8 -8,8h-152.1c-4.432,0 -8,-3.568 -8,-8v-16.878c0,-4.432 3.568,-8 8,-8z" fill-opacity="0.7" fill="#000000" fill-rule="evenodd" stroke-width="0"/><g fill="#ffffff" fill-rule="nonzero" stroke-width="1"><path d="M251.25,188.61h1.1133c0.16145,-0.42448 0.31379,-0.89061 0.45703,-1.3984l0.80859,0.16797c-0.16666,0.5 -0.32552,0.91017 -0.47656,1.2305h1.5156v0.71094h-1.6133v0.9375h1.3672v0.67187h-1.3672v0.92969h1.3672v0.67188h-1.3672v0.99218h1.7422v0.72657h-3.6133v0.54687h-0.77734v-4.6562c-0.1198,0.1901 -0.2487,0.37891 -0.38672,0.56641l-0.45313,-0.69141c0.59635,-0.7526 1.05469,-1.70184 1.375,-2.8477l0.8086,0.17579c-0.15625,0.48176 -0.32292,0.90364 -0.5,1.2656zM251.1836,193.5241h1.1289v-0.99218h-1.1289zM251.1836,191.86h1.1289v-0.92969h-1.1289zM251.1836,190.2584h1.1289v-0.9375h-1.1289zM248.2852,188.6686v-1.4726h0.84766v1.4726h0.82422v0.76172h-0.82422v1.2891c0.22656,-0.07031 0.46615,-0.15105 0.71875,-0.24219l0.0547,0.7539c-0.1823,0.07031 -0.4401,0.16667 -0.77344,0.28907v2.5469c0,0.27344 -0.06381,0.46354 -0.19141,0.57031c-0.11198,0.09375 -0.30078,0.14063 -0.5664,0.14063c-0.29948,0 -0.58333,-0.02604 -0.85157,-0.0781l-0.16015,-0.83984c0.34895,0.04946 0.58724,0.0742 0.71484,0.0742c0.09115,0 0.14844,-0.01564 0.17188,-0.0469c0.02346,-0.03126 0.0352,-0.08856 0.0352,-0.17187v-1.9102c-0.21875,0.07031 -0.53125,0.16146 -0.9375,0.27344l-0.23047,-0.81641c0.52344,-0.11719 0.91278,-0.21354 1.168,-0.28906v-1.543h-1.0469v-0.76172z"/><path d="M259.42,193.66c0.44011,0.07292 0.92057,0.10938 1.4414,0.10938h2.0273c-0.1302,0.26041 -0.22656,0.53516 -0.28906,0.82422h-1.7461c-1.05726,0 -1.8919,-0.12631 -2.5039,-0.37891c-0.59375,-0.2448 -1.08335,-0.64842 -1.4688,-1.2109c-0.3073,0.7318 -0.68489,1.33857 -1.1328,1.8203l-0.60547,-0.72656c0.7344,-0.79426 1.19273,-1.8229 1.375,-3.0859l0.88672,0.13672c-0.08333,0.41146 -0.16406,0.75393 -0.24219,1.0274c0.31511,0.5599 0.77994,0.97396 1.3945,1.2422v-3.0234h-2.168v-0.51953h-0.84765v-1.8086h2.9922v-0.87109h0.87109v0.87109h3.0586v1.8086h-0.84765v0.51953h-2.1953v1.1953h2.6758v0.72656h-2.6758zM256.3966,188.8006v0.85156h5.2031v-0.85156z"/><path d="M266.56,188.25v-0.33594h-2.4414v-0.5586h5.7656v0.5586h-2.4922v0.33594h3.2344v1.4023h-0.84766v-0.89844h-2.3867v1.5195h-0.83203v-1.5195h-2.3438v0.89844h-0.83984v-1.4023zM269.3256,193.793c0.39844,0.15105 0.89583,0.27084 1.4922,0.35938l-0.45704,0.66406c-0.83594,-0.14323 -1.52213,-0.38932 -2.0586,-0.73828c-0.53386,-0.34896 -0.94922,-0.78256 -1.2461,-1.3008h-0.86328v1.2031c0.57552,-0.08073 1.10938,-0.16666 1.6016,-0.25781l0.0547,0.58203c-0.91667,0.21875 -1.96483,0.40886 -3.1445,0.57032l-0.23046,-0.6875c0.40886,-0.04426 0.6888,-0.0755 0.83984,-0.0937l0.0469,-0.008v-1.3086h-0.85546c-0.03647,0.45834 -0.09636,0.82424 -0.17969,1.0977c-0.09896,0.32812 -0.25781,0.63411 -0.47656,0.91796l-0.69532,-0.57421c0.25522,-0.33074 0.41407,-0.71747 0.47657,-1.1602c0.03386,-0.23959 0.0508,-0.53777 0.0508,-0.89453v-1.6562h6.7422v0.51953h-5.9023v1.1992h6.2383v0.55078h-0.88672l0.4961,0.32812c-0.29428,0.2448 -0.64194,0.47396 -1.043,0.6875zM268.71622,193.49222c0.375,-0.2552 0.67317,-0.49349 0.89453,-0.71484h-1.707c0.22396,0.28646 0.4948,0.52474 0.8125,0.71484zM264.56002,189.04302h1.6641v0.44141h-1.6641zM264.56002,189.76177h1.6641v0.44922h-1.6641zM267.72802,189.04302h1.7148v0.44141h-1.7148zM267.72802,189.76177h1.7148v0.44922h-1.7148zM264.98582,191.35557h4.8633v0.51172h-4.8633z"/><path d="M275.61,187.9h3.0625v0.65625h-1.7344v0.64844h1.625v0.63281h-1.625v1.1641h-3.1445v-1.1641h-1.2812v0.72657c0,1.17967 -0.0625,2.11197 -0.1875,2.7969c-0.09636,0.52084 -0.25261,0.9961 -0.46875,1.4258l-0.71094,-0.5625c0.19792,-0.42969 0.33333,-0.95442 0.40625,-1.5742c0.06513,-0.54426 0.0977,-1.23956 0.0977,-2.0859v-2.6641h3.0898v-0.70312h0.87109zM272.5124,188.55625v0.64844h1.2812v-0.64844zM274.6257,188.55625v0.64844h1.4805v-0.64844zM274.6257,189.83745v0.60547h1.4805v-0.60547zM275.53195,193.93905c-0.7526,0.39062 -1.70833,0.68749 -2.8672,0.89062l-0.40625,-0.71875c1.08853,-0.1302 1.9414,-0.32942 2.5586,-0.59766c-0.52864,-0.3828 -0.98048,-0.83724 -1.3555,-1.3633h-0.53907v-0.67968h4.5742l0.41016,0.34375c-0.38802,0.59635 -0.94142,1.15755 -1.6602,1.6836c0.61719,0.2474 1.45832,0.42969 2.5234,0.54687l-0.45703,0.73829c-1.0208,-0.13802 -1.94787,-0.41927 -2.7812,-0.84375zM274.37175,192.14995c0.31511,0.3698 0.6979,0.69532 1.1484,0.97657c0.50781,-0.32812 0.89974,-0.65365 1.1758,-0.97657z"/><path d="M280.88,190.42h0.54296c0.45833,0 0.82684,-0.08203 1.1055,-0.24609c0.34114,-0.20052 0.51172,-0.47526 0.51172,-0.82422c0,-0.28906 -0.125,-0.51823 -0.375,-0.6875c-0.22136,-0.14844 -0.4974,-0.22265 -0.82812,-0.22265c-0.59896,0 -1.1745,0.22916 -1.7266,0.6875l-0.5664,-0.69922c0.66926,-0.53646 1.45703,-0.80469 2.3633,-0.80469c0.60678,0 1.10548,0.125 1.4961,0.375c0.47136,0.30469 0.70703,0.73569 0.70703,1.293c0,0.42708 -0.16276,0.79295 -0.48828,1.0976c-0.2526,0.23438 -0.58594,0.38151 -1,0.44141v0.0312c0.53646,0.08854 0.94662,0.26563 1.2305,0.53125c0.29428,0.27604 0.44141,0.64454 0.44141,1.1055c0,0.67186 -0.27213,1.17446 -0.81641,1.5078c-0.40886,0.25 -0.94532,0.375 -1.6094,0.375c-1.04687,0 -1.89583,-0.32031 -2.5469,-0.96094l0.58985,-0.70312c0.20833,0.22135 0.47656,0.40365 0.80468,0.54687c0.39844,0.17448 0.78518,0.26172 1.1602,0.26172c0.42188,0 0.7513,-0.08854 0.98828,-0.26562c0.22917,-0.16927 0.34375,-0.42839 0.34375,-0.77735c0,-0.47916 -0.23047,-0.819 -0.69141,-1.0195c-0.30989,-0.13541 -0.68229,-0.20312 -1.1172,-0.20312h-0.51953z"/><path d="M290.68,192.92c-0.60937,0.7552 -1.54167,1.36067 -2.7969,1.8164l-0.4961,-0.72266c1.4974,-0.45312 2.47527,-1.16926 2.9336,-2.1484c0.43228,-0.92706 0.64843,-2.35414 0.64843,-4.2812v-0.1211h0.875v0.10547c0,1.32034 -0.07812,2.37763 -0.23437,3.1719c-0.10417,0.54688 -0.26302,1.03907 -0.47656,1.4766c0.83853,0.59635 1.45963,1.12892 1.8633,1.5977l-0.625,0.76953c-0.44011,-0.54948 -0.98178,-1.08594 -1.625,-1.6094c-0.02346,-0.0182 -0.0456,-0.03643 -0.0664,-0.0547zM287.0003,192.51375c0.71873,-0.32812 1.39714,-0.70832 2.0352,-1.1406l0.23047,0.71094c-1.05207,0.7526 -2.263,1.39844 -3.6328,1.9375l-0.39844,-0.77735c0.33072,-0.11979 0.63671,-0.23697 0.91797,-0.35156l-0.0937,-5.1836h0.87109zM289.2425,190.39655c-0.48178,-0.71874 -0.97787,-1.319 -1.4883,-1.8008l0.65625,-0.55079c0.64063,0.60156 1.15496,1.1927 1.543,1.7734z"/><path d="M297.31,189.43h2.8203v0.80078h-2.8203v3.2656h3.5664v0.81641h-7.6016v-0.81641h3.0898v-6.2969h0.94531z"/><path d="M305.47,193.61c1.52866,-0.38541 2.293,-1.26172 2.293,-2.6289c0,-0.59635 -0.15364,-1.10939 -0.46093,-1.5391c-0.34375,-0.48437 -0.86719,-0.79557 -1.5703,-0.93359c-0.15364,1.20834 -0.36327,2.19794 -0.6289,2.9688c-0.1823,0.53906 -0.40886,1.04816 -0.67969,1.5273c-0.39062,0.68227 -0.83463,1.0234 -1.332,1.0234c-0.3698,0 -0.69922,-0.16666 -0.98828,-0.5c-0.1849,-0.21094 -0.33464,-0.47005 -0.44922,-0.77734c-0.15104,-0.39844 -0.22656,-0.82684 -0.22656,-1.2852c0,-0.7422 0.20442,-1.4258 0.61328,-2.0508c0.41406,-0.63802 0.95183,-1.10156 1.6133,-1.3906c0.48178,-0.21094 1.0104,-0.3164 1.5859,-0.3164c0.8984,0 1.66144,0.24088 2.2891,0.72265c0.7708,0.59115 1.1562,1.42838 1.1562,2.5117c0,1.81513 -0.91797,2.96616 -2.7539,3.4531zM304.88406,188.4772c-0.46094,0.05206 -0.84634,0.17576 -1.1562,0.37109c-0.19792,0.1276 -0.39454,0.29688 -0.58985,0.50781c-0.54167,0.59896 -0.8125,1.29296 -0.8125,2.082c0,0.57552 0.11458,1.02606 0.34375,1.3516c0.14063,0.20052 0.27995,0.30078 0.41797,0.30078c0.1875,0 0.39844,-0.20703 0.63282,-0.62109c0.57292,-1.0078 0.96094,-2.33854 1.1641,-3.9922z"/><path d="M314.41,188.84l0.0351,-1.6406h0.78516l-0.0274,1.6406h1.547c-0.03906,2.72654 -0.13281,4.42706 -0.28125,5.1016c-0.06246,0.28385 -0.16533,0.48307 -0.30859,0.59765c-0.14062,0.10938 -0.36589,0.16406 -0.67579,0.16406c-0.29947,0 -0.58463,-0.01564 -0.85546,-0.0469l-0.16016,-0.80859c0.3073,0.04166 0.58463,0.0625 0.83203,0.0625c0.16667,0 0.27735,-0.04688 0.33203,-0.14063c0.15364,-0.26562 0.26042,-1.64972 0.32031,-4.1523h-0.80468c-0.07031,1.17706 -0.24739,2.1458 -0.53125,2.9062c-0.33594,0.90106 -0.79818,1.65757 -1.3867,2.2695l-0.5586,-0.60938c0.57813,-0.5677 0.99869,-1.28254 1.2617,-2.1445c0.21875,-0.70834 0.36458,-1.51564 0.4375,-2.4219h-1.0352v-0.58985h-4.043v-0.74218h1.7773v-1.0859h0.83203v1.0859h1.582v0.55468zM311.1834,192.5197c-0.32552,-0.3698 -0.67189,-0.71876 -1.0391,-1.0469l0.51953,-0.54688c0.25781,0.22135 0.57422,0.51823 0.94922,0.89063c0.20052,-0.35938 0.375,-0.72788 0.52344,-1.1055l0.71875,0.35156c-0.14844,0.38541 -0.37109,0.84244 -0.66797,1.3711c0.29167,0.32813 0.54948,0.63933 0.77344,0.9336l-0.60938,0.64843c-0.22656,-0.32812 -0.4375,-0.61327 -0.63281,-0.85546c-0.46614,0.65885 -1.01301,1.19662 -1.6406,1.6133l-0.63281,-0.66407c0.69793,-0.38541 1.27736,-0.91535 1.7383,-1.5898zM309.199,190.8556c0.5026,-0.3776 0.9323,-0.92448 1.2891,-1.6406l0.67969,0.35938c-0.35678,0.7552 -0.82424,1.36846 -1.4024,1.8398zM313.0545,191.1095c-0.35156,-0.51302 -0.77864,-1.02996 -1.2812,-1.5508l0.60156,-0.42187c0.49219,0.45834 0.89975,0.92446 1.2227,1.3984z"/><path d="M322.11,191.98c0.77607,0.67186 1.72006,1.21614 2.832,1.6328l-0.52734,0.75391c-1.19274,-0.53646 -2.1732,-1.237 -2.9414,-2.1016v2.5352h-0.84765v-2.5039c-0.7422,0.95574 -1.69663,1.694 -2.8633,2.2148l-0.51953,-0.70313c1.1068,-0.42448 2.0508,-1.03384 2.832,-1.8281h-2.8008v-0.69531h3.3516v-0.58204h-2.6406v-3.207h6.1797v3.207h-2.6914v0.58204h3.4024v0.69531zM318.817,188.1206v0.63672h1.8086v-0.63672zM318.817,189.3745v0.70312h1.8086v-0.70312zM323.3326,190.07762v-0.70312h-1.8594v0.70312zM323.3326,188.75732v-0.63672h-1.8594v0.63672z"/><path d="M329.48,187.93h2.832v0.69531h-1.1055c-0.1302,0.40885 -0.27344,0.78515 -0.42968,1.1289h2.1055v0.71094h-7.6016v-0.71094h2.0508c-0.10676,-0.36198 -0.2513,-0.73828 -0.43359,-1.1289h-1.0508v-0.69531h2.7773v-0.72656h0.85547zM327.8198,188.62531c0.15364,0.35156 0.28906,0.72786 0.40625,1.1289h1.6758c0.15364,-0.35677 0.28515,-0.73307 0.39453,-1.1289zM331.6636,191.00421v3.8008h-0.8711v-0.41016h-3.4336v0.41016h-0.86328v-3.8008zM327.3589,191.66827v0.67969h3.4336v-0.67969zM327.3589,192.97297v0.75h3.4336v-0.75z"/><path d="M339.98,194.23c-0.7708,0.08073 -1.56767,0.12109 -2.3906,0.12109c-1.21353,0 -2.0638,-0.07682 -2.5508,-0.23047c-0.35417,-0.11198 -0.63411,-0.27865 -0.83985,-0.5c-0.23698,-0.25781 -0.35547,-0.57162 -0.35547,-0.9414c0,-0.48698 0.16667,-0.92448 0.5,-1.3125c0.28386,-0.33074 0.74088,-0.65886 1.3711,-0.98438c-0.35938,-0.80727 -0.6849,-1.72654 -0.97657,-2.7578l0.8711,-0.22656c0.27083,0.9896 0.55729,1.8646 0.85937,2.625c1.0026,-0.46094 2.0664,-0.84508 3.1914,-1.1524l0.26172,0.79297c-1.2344,0.3125 -2.46097,0.7565 -3.6797,1.332c-0.37761,0.17969 -0.64583,0.32682 -0.80469,0.44141c-0.46614,0.34115 -0.69922,0.72004 -0.69922,1.1367c0,0.36198 0.21614,0.61459 0.64844,0.75781c0.35938,0.11719 1.0026,0.17578 1.9297,0.17578c0.8568,0 1.71487,-0.04948 2.5742,-0.14844z"/><path d="M253.55,200.24c0.36458,0.19792 0.79818,0.35547 1.3008,0.47266l-0.40625,0.63281c-0.57031,-0.1927 -1.03514,-0.41016 -1.3945,-0.65234c-0.36719,0.26562 -0.82032,0.45312 -1.3594,0.5625h1.8477v0.44921h-5.0391v-0.44921h1.3008l-0.0703,-0.29297h-1.8203v-0.82422c-0.1276,0.10676 -0.24869,0.19791 -0.36328,0.27344l-0.41406,-0.57813c0.39323,-0.22656 0.6888,-0.50912 0.88672,-0.84766l0.25,0.0274v-0.14844h-1.0742v-0.52734h1.0742v-0.33594h0.73437v0.33594h0.75v-0.33594h0.7461v0.33594h0.96093v0.52734h-0.96093v0.28125h0.8164c-0.00534,0.07031 -0.01054,0.1224 -0.0156,0.15625c-0.00534,0.05466 -0.00923,0.09763 -0.0117,0.12891c0.3698,-0.3698 0.66927,-0.8698 0.89844,-1.5l0.7539,0.15625c-0.06247,0.16926 -0.12757,0.32682 -0.19531,0.47265h1.9297v0.625h-0.53516c-0.11458,0.36719 -0.31119,0.71875 -0.58984,1.0547zM252.5422,200.2752c-0.15364,-0.14844 -0.31901,-0.35157 -0.49609,-0.60938c-0.1224,0.14324 -0.24348,0.26824 -0.36328,0.375l-0.40625,-0.47265c-0.07031,0.67706 -0.14062,1.10413 -0.21094,1.2812c-0.09115,0.22656 -0.26953,0.36198 -0.53515,0.40625h0.98046l-0.34765,-0.52735c0.58334,-0.08594 1.04297,-0.23698 1.3789,-0.45312zM253.00314,199.86113c0.15885,-0.1875 0.28646,-0.41276 0.38281,-0.67578h-0.97265c0.16666,0.25781 0.36328,0.48308 0.58984,0.67578zM249.75314,199.14629v-0.28125h-0.75v0.28125zM248.40154,199.62676c-0.05466,0.07031 -0.12498,0.14974 -0.21094,0.23828h1.918v0.89453c0.03126,0.00267 0.0495,0.004 0.0547,0.004c0.08854,0 0.14844,-0.04036 0.17969,-0.1211c0.08334,-0.19791 0.14584,-0.53645 0.1875,-1.0156zM248.59685,200.29082v0.2461h0.83985v-0.2461zM254.06165,204.06422v1.5391h-0.875v-0.27344h-4.3828v0.27344h-0.87109v-1.5391zM248.80385,204.52125v0.33594h4.3828v-0.33594zM247.19445,201.95485h7.6016v0.50391h-7.6016zM248.24135,202.71267h5.5117v0.42578h-5.5117zM248.24135,203.39626h5.5117v0.41406h-5.5117z"/><path d="M256.77,198.82v-0.81641h0.81641v0.81641h1.2148v0.6875h-1.2148v0.67187h1.3828v0.69531h-0.46484c-0.08333,0.3099 -0.19531,0.63802 -0.33594,0.98438h0.7539v0.67969h-1.3359v0.72265h1.2852v0.69531h-1.2852v1.6484h-0.81641v-1.6484h-1.3789v-0.69531h1.3789v-0.72265h-1.4414v-0.67969h0.71875c-0.08334,-0.34635 -0.18489,-0.67448 -0.30468,-0.98438h-0.57422v-0.69531h1.6016v-0.67187h-1.2734v-0.6875zM257.74266,200.8747h-1.2422c0.08854,0.2474 0.1836,0.57553 0.28516,0.98438h0.64843c0.13542,-0.33334 0.23829,-0.66146 0.3086,-0.98438zM262.48096,198.2849v1.8281c0,0.22656 -0.04167,0.38672 -0.125,0.48047c-0.09896,0.11198 -0.30599,0.16797 -0.6211,0.16797c-0.30728,0 -0.61458,-0.01304 -0.92187,-0.0391l-0.13281,-0.70313c0.43228,0.04686 0.70702,0.0703 0.82422,0.0703c0.12239,0 0.18359,-0.05338 0.18359,-0.16016v-0.94141h-1.7109v2.2695h2.2148l0.46484,0.39843c-0.14062,0.82814 -0.39713,1.56774 -0.76953,2.2188l-0.043,0.0781c0.28646,0.33073 0.64453,0.63281 1.0742,0.90625l-0.4375,0.73047c-0.41146,-0.26562 -0.77866,-0.58334 -1.1016,-0.95313c-0.27864,0.35416 -0.59245,0.6875 -0.94141,1l-0.46094,-0.64062v0.60937h-0.79297v-7.3203zM259.97706,201.9607v2.9531c0.32031,-0.21875 0.62891,-0.52605 0.92578,-0.92188c-0.39844,-0.61458 -0.67838,-1.29164 -0.83984,-2.0312zM261.33646,203.3005c0.23176,-0.44791 0.38281,-0.89451 0.45312,-1.3398h-1.0078c0.12761,0.5 0.3125,0.9466 0.55469,1.3398z"/><path d="M268.89,199.86c0.35156,-0.29427 0.6927,-0.64194 1.0234,-1.043l0.64062,0.4961c-0.28125,0.3125 -0.62368,0.62109 -1.0273,0.92578c0.34375,0.17969 0.77214,0.36458 1.2852,0.55468l-0.42579,0.6875c-0.46875,-0.18229 -0.89581,-0.38672 -1.2812,-0.61328v0.40625h-0.72656v1.0508h2.2578v0.75391h-2.2578v1.3086c0,0.13802 0.02997,0.22006 0.0899,0.2461c0.08072,0.03386 0.24739,0.0508 0.5,0.0508c0.27604,0 0.46484,-0.01693 0.5664,-0.0508c0.10156,-0.03126 0.16667,-0.1185 0.19531,-0.26172c0.03647,-0.17709 0.056,-0.4323 0.0586,-0.76563l0.85547,0.25391c-0.02866,0.69273 -0.10419,1.12763 -0.22657,1.3047c-0.10676,0.15365 -0.27344,0.24609 -0.5,0.27734c-0.22917,0.03126 -0.60027,0.0469 -1.1133,0.0469c-0.48437,0 -0.79687,-0.02997 -0.9375,-0.0899c-0.22917,-0.09635 -0.34375,-0.3138 -0.34375,-0.65234v-1.668h-1.2305c-0.05987,0.67446 -0.28122,1.2018 -0.66406,1.582c-0.42187,0.42188 -1.04428,0.73959 -1.8672,0.95313l-0.5039,-0.7461c0.737,-0.15365 1.27997,-0.3802 1.6289,-0.67968c0.19011,-0.16666 0.32813,-0.3698 0.41407,-0.60938c0.04687,-0.125 0.08593,-0.29166 0.11718,-0.5h-2.0547v-0.75391h2.0938v-1.0508h-0.60938v-0.32422c-0.45833,0.28646 -0.92707,0.51693 -1.4062,0.69141l-0.39062,-0.65625c0.5651,-0.1927 1.09373,-0.44141 1.5859,-0.74609c-0.28386,-0.27084 -0.60416,-0.52604 -0.96093,-0.76563l0.5664,-0.55859c0.40364,0.28125 0.74738,0.5651 1.0312,0.85156c0.3073,-0.26302 0.56901,-0.53906 0.78516,-0.82812h-1.4102v-0.73438h2.6836c0.21354,0.35416 0.43229,0.65234 0.65625,0.89453c0.30469,-0.27084 0.62369,-0.60157 0.95703,-0.99219l0.63281,0.4961c-0.31511,0.34115 -0.67187,0.66666 -1.0703,0.97656c0.14322,0.11198 0.27083,0.20573 0.38281,0.28125zM267.5228,201.2741h-1.2031v1.0508h1.2031zM265.4252,200.55535h3.1836c-0.64844,-0.4349 -1.20834,-0.9362 -1.6797,-1.5039c-0.375,0.53385 -0.8763,1.03516 -1.5039,1.5039z"/><path d="M276.15,203.96l0.0547,0.69922c-1.1302,0.39844 -2.3867,0.72655 -3.7695,0.98437l-0.28906,-0.78125c0.23958,-0.03646 0.57812,-0.09506 1.0156,-0.17578v-1.4297c-0.45053,0.22916 -0.98699,0.44662 -1.6094,0.65235l-0.44531,-0.69532c1.2526,-0.33854 2.20833,-0.77084 2.8672,-1.2969h-2.7891v-0.67969h3.3477v-0.58984h-2.5313v-0.65625h2.5312v-0.55078h-2.9297v-0.67188h2.9297v-0.76953h0.85547v0.76953h3.0156v0.67188h-3.0156v0.55078h2.6172v0.65625h-2.6172v0.58984h3.4336v0.67969h-0.93359l0.57812,0.39844c-0.35676,0.34635 -0.85676,0.72526 -1.5,1.1367l-0.0898,0.0586c0.48958,0.44791 1.15365,0.81771 1.9922,1.1094l-0.52735,0.79297c-0.90886,-0.38541 -1.63933,-0.86978 -2.1914,-1.4531zM274.9664,201.9288c-0.26042,0.30469 -0.57422,0.57813 -0.9414,0.82031v1.7539c0.64322,-0.14324 1.28906,-0.3099 1.9375,-0.5l0.17968,-0.0508c-0.53386,-0.59114 -0.92578,-1.26561 -1.1758,-2.0234zM276.3922,202.9952c0.46355,-0.33073 0.86981,-0.6901 1.2188,-1.0781h-1.8476c0.16667,0.39844 0.3763,0.7578 0.6289,1.0781z"/><path d="M283.39,204.41c1.52866,-0.38541 2.293,-1.26171 2.293,-2.6289c0,-0.59636 -0.15364,-1.1094 -0.46094,-1.5391c-0.34375,-0.48437 -0.86718,-0.79557 -1.5703,-0.93359c-0.15364,1.20834 -0.36329,2.19794 -0.62891,2.9688c-0.18228,0.53906 -0.40885,1.04816 -0.67968,1.5273c-0.39062,0.68227 -0.83463,1.0234 -1.332,1.0234c-0.36978,0 -0.69921,-0.16666 -0.98828,-0.5c-0.18489,-0.21094 -0.33464,-0.47006 -0.44922,-0.77734c-0.15104,-0.39844 -0.22656,-0.82684 -0.22656,-1.2852c0,-0.7422 0.20443,-1.4258 0.61328,-2.0508c0.41406,-0.63802 0.95183,-1.10156 1.6133,-1.3906c0.48178,-0.21094 1.0104,-0.3164 1.5859,-0.3164c0.89846,0 1.6615,0.24089 2.2891,0.72265c0.7708,0.59115 1.1562,1.42838 1.1562,2.5117c0,1.81513 -0.91796,2.96617 -2.7539,3.4531zM282.80406,199.2772c-0.46094,0.05206 -0.84634,0.17577 -1.1562,0.37109c-0.19792,0.1276 -0.39452,0.29688 -0.58984,0.50782c-0.54167,0.59895 -0.8125,1.29296 -0.8125,2.082c0,0.57552 0.11458,1.02605 0.34375,1.3516c0.14063,0.20052 0.27995,0.30078 0.41797,0.30078c0.1875,0 0.39843,-0.20703 0.63281,-0.62109c0.57292,-1.0078 0.96096,-2.33854 1.1641,-3.9922z"/><path d="M292.33,199.64l0.0352,-1.6406h0.78515l-0.0273,1.6406h1.5469c-0.03906,2.72654 -0.13281,4.42707 -0.28125,5.1016c-0.06246,0.28385 -0.16533,0.48307 -0.30859,0.59765c-0.14062,0.10938 -0.36588,0.16407 -0.67578,0.16407c-0.29948,0 -0.58464,-0.01564 -0.85547,-0.0469l-0.16016,-0.80859c0.3073,0.04166 0.58464,0.0625 0.83204,0.0625c0.16667,0 0.27735,-0.04687 0.33203,-0.14063c0.15364,-0.26562 0.26042,-1.64973 0.32031,-4.1523h-0.80469c-0.07031,1.17706 -0.24739,2.1458 -0.53125,2.9062c-0.33594,0.90106 -0.79817,1.65757 -1.3867,2.2695l-0.55859,-0.60938c0.57813,-0.5677 0.99869,-1.28254 1.2617,-2.1445c0.21875,-0.70834 0.36458,-1.51564 0.4375,-2.4219h-1.0352v-0.58985h-4.043v-0.74218h1.7774v-1.0859h0.83203v1.0859h1.582v0.55468zM289.1034,203.3197c-0.32552,-0.3698 -0.67189,-0.71876 -1.0391,-1.0469l0.51953,-0.54688c0.25781,0.22135 0.57422,0.51823 0.94922,0.89063c0.20052,-0.35938 0.375,-0.72788 0.52343,-1.1055l0.71875,0.35156c-0.14844,0.38542 -0.37109,0.84246 -0.66797,1.3711c0.29167,0.32813 0.54948,0.63932 0.77344,0.9336l-0.60937,0.64844c-0.22656,-0.32812 -0.4375,-0.61328 -0.63282,-0.85547c-0.46614,0.65885 -1.01301,1.19662 -1.6406,1.6133l-0.63281,-0.66406c0.69793,-0.38542 1.27737,-0.91536 1.7383,-1.5898zM287.119,201.6556c0.50261,-0.3776 0.9323,-0.92448 1.2891,-1.6406l0.67968,0.35938c-0.35676,0.7552 -0.8242,1.36846 -1.4023,1.8398zM290.9745,201.90951c-0.35156,-0.51302 -0.77862,-1.02996 -1.2812,-1.5508l0.60156,-0.42187c0.49219,0.45834 0.89976,0.92446 1.2227,1.3984z"/><path d="M300.04,202.78c0.77607,0.67186 1.72006,1.21614 2.832,1.6328l-0.52735,0.75391c-1.19274,-0.53646 -2.1732,-1.23699 -2.9414,-2.1016v2.5352h-0.84766v-2.5039c-0.7422,0.95574 -1.69663,1.694 -2.8633,2.2148l-0.51953,-0.70313c1.1068,-0.42448 2.0508,-1.03384 2.832,-1.8281h-2.8008v-0.69531h3.3516v-0.58203h-2.6406v-3.207h6.1797v3.207h-2.6914v0.58203h3.4023v0.69531zM296.747,198.9206v0.63672h1.8086v-0.63672zM296.747,200.1745v0.70313h1.8086v-0.70313zM301.2626,200.87763v-0.70313h-1.8594v0.70313zM301.2626,199.55733v-0.63672h-1.8594v0.63672z"/><path d="M307.4,198.73h2.832v0.69531h-1.1055c-0.1302,0.40886 -0.27344,0.78516 -0.42969,1.1289h2.1055v0.71094h-7.6016v-0.71094h2.0508c-0.10678,-0.36198 -0.25131,-0.73828 -0.43359,-1.1289h-1.0508v-0.69531h2.7774v-0.72656h0.85547zM305.7398,199.42531c0.15364,0.35156 0.28906,0.72787 0.40625,1.1289h1.6758c0.15364,-0.35677 0.28516,-0.73308 0.39453,-1.1289zM309.5836,201.80421v3.8008h-0.87109v-0.41015h-3.4336v0.41015h-0.86328v-3.8008zM305.2789,202.46827v0.67969h3.4336v-0.67969zM305.2789,203.77297v0.75h3.4336v-0.75z"/><path d="M311.88,199.1h2.1055c0.23178,-0.3698 0.40756,-0.66798 0.52735,-0.89454l0.87109,0.125c-0.07812,0.14063 -0.21614,0.3698 -0.41406,0.6875l-0.0508,0.082h2.7539v0.76953h-3.2734c-0.34114,0.46875 -0.66667,0.87501 -0.97657,1.2188c0.49219,-0.29427 0.94143,-0.44141 1.3477,-0.44141c0.6302,0 1.04297,0.31641 1.2383,0.94922c0.66667,-0.22135 1.34636,-0.4401 2.0391,-0.65625l0.33594,0.75781l-0.13672,0.0391l-0.38672,0.10157c-0.7292,0.19791 -1.31254,0.36718 -1.75,0.50781c0.03127,0.33854 0.0534,0.77604 0.0664,1.3125l-0.85547,0.0469c-0.00266,-0.3099 -0.00786,-0.64583 -0.0156,-1.0078v-0.0781c-1.19793,0.40885 -1.7969,0.82032 -1.7969,1.2344c0,0.21354 0.15364,0.35938 0.46094,0.4375c0.29688,0.07552 0.82814,0.11328 1.5938,0.11328c0.70574,0 1.44663,-0.04037 2.2227,-0.12109l0.0937,0.83203c-0.7526,0.05727 -1.53253,0.0859 -2.3398,0.0859c-0.9948,0 -1.70184,-0.07552 -2.1211,-0.22656c-0.51824,-0.1875 -0.77735,-0.52473 -0.77735,-1.0117c0,-0.41146 0.1836,-0.77472 0.55079,-1.0898c0.3802,-0.32552 1.04947,-0.66145 2.0078,-1.0078c-0.05207,-0.20052 -0.12107,-0.34115 -0.20703,-0.42187c-0.09636,-0.09115 -0.22396,-0.13672 -0.38282,-0.13672c-0.25781,0 -0.58203,0.09766 -0.97265,0.29297c-0.48178,0.23958 -0.9987,0.60025 -1.5508,1.082l-0.51953,-0.59375c0.80987,-0.7526 1.44396,-1.4922 1.9023,-2.2188h-1.5898z"/><path d="M322.56,199.73v-0.70312h-3.168v-0.70313h7.2148v0.70313h-3.2148v0.70312h2.4961v2.9961h0.91015v0.71875h-0.91015v1.3594c0,0.27865 -0.07812,0.47266 -0.23438,0.58203c-0.125,0.08594 -0.33203,0.12891 -0.62109,0.12891c-0.33072,0 -0.75779,-0.01564 -1.2812,-0.0469l-0.15234,-0.80859c0.50781,0.05727 0.92447,0.0859 1.25,0.0859c0.10156,0 0.16016,-0.02084 0.17578,-0.0625c0.0104,-0.02866 0.0156,-0.07424 0.0156,-0.13672v-1.1016h-4.082v2.1602h-0.84766v-2.1602h-0.91015v-0.71875h0.91015v-2.9961zM322.56,200.40969h-1.6016v0.80078h1.6016zM323.39203,200.40969v0.80078h1.6484v-0.80078zM322.56,201.85109h-1.6016v0.875h1.6016zM323.39203,201.85109v0.875h1.6484v-0.875z"/><path d="M329.12,199.43h1.5195v-1.4336h0.89453v1.4336h2.8047v0.81641h-2.8047v1.6445h2.5625v0.80078h-2.5625v1.8086h3.1133v0.8164h-7.2226v-0.8164h3.2148v-1.8086h-2.7109v-0.80078h2.7109v-1.6445h-1.875c-0.23178,0.45313 -0.50521,0.87369 -0.82031,1.2617l-0.70313,-0.58203c0.625,-0.71614 1.07554,-1.6315 1.3516,-2.7461l0.87109,0.16016c-0.11198,0.42188 -0.22656,0.78514 -0.34375,1.0898z"/><path d="M335.97,198.33h0.92187v4.6562c0,0.9818 0.51563,1.4727 1.5469,1.4727c0.67967,0 1.23697,-0.31381 1.6719,-0.94141c0.28125,-0.40364 0.53386,-1.02864 0.75782,-1.875l0.79297,0.48047c-0.26562,0.94013 -0.58464,1.64326 -0.95704,2.1094c-0.58594,0.72654 -1.34767,1.0898 -2.2852,1.0898c-0.9792,0 -1.6693,-0.30209 -2.0703,-0.90625c-0.25261,-0.3776 -0.37891,-0.86456 -0.37891,-1.4609z"/><path d="M345.6,198.18h0.86328v0.98438h2.457v0.74219h-2.457v0.92968h2.3203v0.73438h-2.3203v1.207c0.92707,0.3125 1.84114,0.78257 2.7422,1.4102l-0.46094,0.74218c-0.68226,-0.51041 -1.44266,-0.96095 -2.2812,-1.3516c-0.0208,0.44531 -0.10674,0.79038 -0.25781,1.0352c-0.26302,0.42448 -0.78126,0.63672 -1.5547,0.63672c-0.59636,0 -1.07552,-0.11198 -1.4375,-0.33594c-0.40364,-0.25 -0.60547,-0.58854 -0.60547,-1.0156c0,-0.51041 0.27213,-0.88801 0.81641,-1.1328c0.36458,-0.16146 0.83855,-0.24219 1.4219,-0.24219c0.22917,0 0.48047,0.01824 0.7539,0.0547v-1.0078h-2.7695v-0.73438h2.7695v-0.92968h-2.9375v-0.74219h2.9375zM345.6,203.305c-0.30989,-0.06507 -0.60676,-0.0976 -0.89062,-0.0976c-0.34636,0 -0.62761,0.05078 -0.84375,0.15234c-0.25781,0.1224 -0.38672,0.29688 -0.38672,0.52344c0,0.1901 0.10026,0.34374 0.30078,0.46094c0.20313,0.11979 0.47396,0.17968 0.8125,0.17968c0.40104,0 0.67708,-0.10677 0.82812,-0.32031c0.1198,-0.16666 0.17969,-0.41536 0.17969,-0.74609z"/><path d="M353.89,198.16h0.87891v1.0781h2.3047v0.75391h-2.3047v1.6719c0.09114,0.32031 0.13672,0.60547 0.13672,0.85547c0,0.92706 -0.20443,1.60806 -0.61329,2.043c-0.44531,0.47656 -1.11588,0.80598 -2.0117,0.98828l-0.44532,-0.66406c0.69534,-0.13281 1.21096,-0.32031 1.5469,-0.5625c0.3151,-0.22916 0.52734,-0.54036 0.63672,-0.9336c-0.27864,0.3047 -0.61068,0.45704 -0.9961,0.45704c-0.43228,0 -0.78256,-0.1224 -1.0508,-0.36719c-0.3151,-0.28906 -0.47265,-0.70833 -0.47265,-1.2578c0,-0.28906 0.06901,-0.56772 0.20703,-0.83594c0.09114,-0.17187 0.20313,-0.3151 0.33593,-0.42969c0.3073,-0.26041 0.67579,-0.39062 1.1055,-0.39062c0.27344,0 0.52083,0.0651 0.74219,0.19531v-0.76953h-3.8555v-0.75391h3.8555zM353.9212,202.2147v-0.14453c0,-0.16666 -0.03906,-0.3138 -0.11719,-0.4414c-0.14583,-0.23959 -0.35677,-0.35938 -0.63281,-0.35938c-0.14062,0 -0.27213,0.03907 -0.39453,0.11719c-0.28646,0.17969 -0.42969,0.45572 -0.42969,0.82812c0,0.23438 0.05208,0.4323 0.15625,0.59375c0.14583,0.22396 0.36068,0.33594 0.64453,0.33594c0.25781,0 0.46224,-0.11588 0.61328,-0.34766c0.10678,-0.16406 0.16016,-0.35807 0.16016,-0.58203z"/></g></g></g></svg>