<svg version="1.1" xmlns="http://www.w3.org/2000/svg" xmlns:xlink="http://www.w3.org/1999/xlink" width="119.23519" height="138.12947" viewBox="0,0,119.23519,138.12947"><g transform="translate(-82.27954,5.33942)"><g data-paper-data="{&quot;isPaintingLayer&quot;:true}" fill="#ff0000" fill-rule="evenodd" stroke="none" stroke-width="0" stroke-linecap="round" stroke-linejoin="round" stroke-miterlimit="10" stroke-dasharray="" stroke-dashoffset="0" style="mix-blend-mode: normal"><path d="M201.50478,65.49574l-2.23991,-0.80797l-2.3099,-0.001l-1.12995,-1.00996l-2.97988,0.018l-0.68998,-0.71397l-1.33995,1.17695l1.62994,2.97788l2.10992,1.75793l0.42998,2.4369l0.79996,0.49598l0.17,2.08991l1.45994,0.44499l0.63997,-0.25899l-0.04,2.13891l0.52998,1.55194l-0.60997,0.53098l-0.20999,3.72385l-2.04992,4.52782l-0.47998,1.48194l0.08999,1.48694l-1.57994,-0.34598l-1.65993,-0.80097l-1.77993,0.81997l-1.27994,1.82792l0.34999,0.85296l-1.11996,0.65897l-0.56998,-0.89497l-2.90988,-0.27099l-1.82993,0.87896l-0.50998,1.88893l0.35999,0.79197l-1.54994,0.77997l0.09999,2.01792l1.26995,0.38099l0.33999,0.97196l-0.59998,2.3689l0.27999,3.65985l-0.37999,1.28395l-1.35994,1.11096l-0.42998,2.94188l0.69997,1.74393l-1.29995,0.73897l-1.31995,0.07l-1.73993,0.60798l-0.32999,1.24495l-1.21995,1.64594l-2.5299,0.67597l-1.04995,-0.73097l-0.60998,0.39199l-1.89992,-0.127l-1.94993,1.90792l-3.41986,0.51698l-2.19992,-0.35998l-0.12,0.96396l-1.39994,0.35498l0.24999,0.84497l-1.33995,1.18395l-1.13995,0.33699l-0.24999,0.79397l-1.05996,0.19499l-0.77997,-0.76297l-1.14995,1.41295l-1.78993,-0.55898l-1.93992,2.31491l-1.90992,1.11696l-0.14999,0.80397l0.65997,1.48194l-0.26999,1.69293l-2.69989,1.81993l-1.68993,-0.75497l-1.35995,0.27598l-1.37994,-0.90796l-0.98996,-0.013l-0.36999,-1.29095l0.63997,-2.03392l0.51998,-0.55797l-1.11996,-2.88389l-1.49994,-1.04796l-1.09995,0.224l-0.61998,1.04296l-1.78993,0.03l-2.24991,1.52294l-2.14991,0.70997l-0.53998,-1.17395l-1.79993,0.33399l-1.83992,-0.68498l-0.81997,0.23699l-1.30995,-1.48094l-0.40999,-2.4139l0.68998,-0.73497l-0.17999,-1.90692l0.70997,-1.09496l1.79992,-0.94196l-1.50994,-1.11496l-1.20995,-1.30795l-0.11,-1.44494l0.48998,-1.01596l-0.27999,-2.3739l0.89997,-0.29399l-0.31998,-1.49194l0.20999,-1.55094l1.47994,-1.32894l0.35999,-1.06196l1.08995,-0.54998l0.54998,-1.55194l-1.67993,-1.42494l-2.32991,0.90497l-1.39995,-0.87997l-1.66993,-2.10391l-0.96996,0.20199l-1.70994,1.19396l-2.09992,0.90197l-2.4199,-0.043l-1.08996,0.70697l-1.16995,-0.63598l-0.65998,-3.71585l0.89997,-2.4849l-0.2,-0.77097l1.07996,-0.72197l0.28999,-1.10595l-0.82997,-1.92192l0.38999,-0.88097l-0.85997,-1.51394l-1.54994,0.149l0.24999,-1.79593l-1.00996,-1.07496l1.24995,-1.20795l-0.46998,-1.46094l-0.99996,-0.57998l-0.36998,-0.88797l0.98996,-2.06892l-1.35994,-0.75697l-0.06,-1.93592l0.41998,-0.45498l-0.91996,-2.10191l-0.95996,-0.70997l-0.18999,-1.11595l0.32998,-1.38495l-0.47998,-0.64497l0.33999,-1.20095l2.10992,0.57598l1.40994,-0.67798l0.54998,-1.25795l-0.48998,-0.86196l-0.49998,-3.99784l-0.76997,-2.10992l0.62997,-1.07496l-0.52998,-1.98892l0.09,-1.09196l-0.73997,-1.23495l-1.36994,-1.39294l-1.91993,-0.72098l-0.21999,-0.95196l0.49998,-1.97592l-0.53998,-1.62394l0.04,-3.33387l-0.68997,-0.45798l-1.46995,0.082l-0.01,-1.54594l2.31991,-3.75485l0.29999,-1.38994l-0.47998,-1.27195l0.64997,-1.22995l-1.19995,-2.32791l0.60998,-1.37394l1.11996,-0.33299l1.55993,-1.71493l-1.09996,-1.14095l0.32999,-1.81293l-2.17991,0.64298l-1.00996,-0.54998l-1.66993,0.34198l-2.95988,-1.14295l-1.61993,1.33294l-0.99996,-1.15696l-1.79992,0.33399l-0.05,-1.07996l-0.79997,-1.77993l-1.76993,-0.094l-1.15996,1.18095l-1.57994,2.74789l-1.27994,0.85897l-0.40998,1.39794l-3.07988,0.43498l-1.33995,-0.27999l-1.25995,0.61097l-0.97996,-0.19399l0.05,-1.25195l1.32994,-3.31186l-0.11999,-1.18596l0.47998,-1.64993l1.67994,-1.90692l0.21999,-2.01692l0.73997,-1.19395l1.81993,-1.06395l-0.98996,-0.77797v-2.4399l1.66993,-1.97493l0.27999,-1.47994l-1.03996,-0.34898l0.16999,-1.31095l0.96996,-0.98496l1.42994,-0.107l1.61993,-0.72397l-0.15999,-1.96292l1.06995,-0.64598l0.59998,-1.20195l1.83992,-0.34499l1.90992,-1.24595l2.17991,0.94197l0.46998,-0.64798l2.4999,-0.13899l1.90993,-2.33091l2.02992,-1.90793l0.39998,-1.50594l0.73997,-0.85896l2.04991,2.10091l0.84996,1.42294l2.19991,1.41994l0.32999,0.83397l2.16992,2.4509l0.93996,-0.026l0.56998,2.12392l0.97996,0.80097l0.17,0.96396l1.28994,1.13996l1.83992,2.98088l1.81993,1.97692l5.38979,4.06684l1.03995,0.063l0.56998,1.36094l3.34986,2.72989l5.42978,3.96184l6.20976,4.24083l1.27995,0.25899l0.66997,2.35491l3.24987,2.33791l7.4297,4.64381l0.84996,0.22799l0.77997,1.49494l0.83997,3.10987l1.73993,1.73593l2.89989,2.17892l5.41978,3.16187l5.0198,2.6659l6.18975,3.03188l4.9198,2.16091l0.24999,0.33799l6.17976,2.78189l4.69981,1.90192l3.81984,1.37595l-0.01,0.46098"/></g></g></svg>