<svg version="1.1" xmlns="http://www.w3.org/2000/svg" xmlns:xlink="http://www.w3.org/1999/xlink" width="208" height="80" viewBox="0,0,208,80"><g transform="translate(-136,-140)"><g data-paper-data="{&quot;isPaintingLayer&quot;:true}" fill-rule="nonzero" stroke="none" stroke-width="1" stroke-linecap="butt" stroke-linejoin="miter" stroke-miterlimit="10" stroke-dasharray="" stroke-dashoffset="0" style="mix-blend-mode: normal"><path d="M136,220v-80h208v80z" fill-opacity="0" fill="#000000"/><g fill="#ffffff"><path d="M180.60632,166.80069v-1.60976h-11.69855v-2.67659h27.6271v2.67659h-11.94184v1.60976h15.49832v6.71964h-4.06171v-4.305h-11.43648v7.2811h-3.98683v-7.2811h-11.23063v4.305h-4.02427v-6.71964zM193.85828,193.36084c1.90918,0.72375 4.29257,1.29777 7.15013,1.72208l-2.19,3.18195c-4.00553,-0.68631 -7.29359,-1.86554 -9.86416,-3.53769c-2.55805,-1.67212 -4.54838,-3.74977 -5.97099,-6.23293h-4.13659v5.76501c2.75773,-0.38683 5.31582,-0.79862 7.67428,-1.23537l0.26205,2.78891c-4.39237,1.04821 -9.41493,1.95915 -15.0677,2.73281l-1.10434,-3.29427c1.95911,-0.21213 3.30053,-0.36187 4.02427,-0.44922l0.22461,-0.03744v-6.27037h-4.09915c-0.1747,2.19618 -0.4617,3.94939 -0.86101,5.25964c-0.47418,1.57228 -1.23535,3.0385 -2.28354,4.39867l-3.33171,-2.75147c1.22285,-1.5848 1.98403,-3.43786 2.28354,-5.55915c0.16222,-1.14806 0.24333,-2.57683 0.24333,-4.28635v-7.93623h32.30637v2.48939h-28.28261v5.74635h29.89263v2.63915h-4.24891l2.3772,1.57232c-1.41008,1.17301 -3.07594,2.27111 -4.99757,3.29427zM190.93827,191.91962c1.79692,-1.22285 3.22569,-2.36464 4.28635,-3.42537h-8.17965c1.07318,1.3726 2.37094,2.5144 3.8933,3.42537zM171.02264,170.59969h7.97367v2.11513h-7.97367zM171.02264,174.04372h7.97367v2.15257h-7.97367zM186.20278,170.59969h8.21709v2.11513h-8.21709zM186.20278,174.04372h8.21709v2.15257h-8.21709zM173.06327,181.68056h23.30306v2.45195h-23.30306z"/><path d="M223.97452,165.11656h14.67414v3.14451h-8.31062v3.10707h7.7866v3.0322h-7.7866v5.57781h-15.0677v-5.57781h-6.1394v3.48147c0,5.65269 -0.29948,10.11984 -0.89844,13.40146c-0.4617,2.49569 -1.2104,4.77302 -2.2461,6.83196l-3.40659,-2.69537c0.94838,-2.05894 1.59724,-4.57334 1.94659,-7.54318c0.31196,-2.60797 0.46794,-5.93972 0.46794,-9.99526v-12.76538h14.80576v-3.36915h4.17403zM209.13171,168.26108v3.10707h6.1394v-3.10707zM219.25794,168.26108v3.10707h7.09404v-3.10707zM219.25794,174.40047v2.90122h7.09404v-2.90122zM223.60038,194.05417c-3.60627,1.8718 -8.18587,3.29431 -13.7388,4.26756l-1.94659,-3.44403c5.21594,-0.62392 9.30261,-1.57852 12.26001,-2.86378c-2.53309,-1.83431 -4.69809,-4.01179 -6.49501,-6.53245h-2.58305v-3.25683h21.91794l1.96537,1.6472c-1.85927,2.85756 -4.51094,5.54667 -7.95501,8.06733c2.95741,1.18544 6.98794,2.05894 12.0916,2.62049l-2.19,3.53769c-4.89155,-0.66136 -9.334,-2.00904 -13.32735,-4.04306zM218.04123,185.48147c1.50993,1.77195 3.34423,3.33175 5.50293,4.6794c2.43326,-1.57228 4.31126,-3.13208 5.63403,-4.6794z"/><path d="M264.10353,168.18581c-0.6988,1.14806 -1.59725,2.46451 -2.69537,3.94939v26.03626h-4.28635v-20.96343c-3.78098,4.05545 -8.26688,7.56813 -13.45769,10.53806l-2.56427,-3.50025c7.96123,-4.35496 13.97579,-9.70805 18.04368,-16.05927h-16.86428v-3.98683h34.23456v3.98683zM274.67903,186.77255c-3.54391,-3.71854 -7.72415,-7.39968 -12.54075,-11.04343l2.92001,-2.82634c4.96643,3.46903 9.18412,6.94428 12.65306,10.42575z"/><path d="M301.74723,184.73192c-0.18717,2.63293 -0.69254,4.92273 -1.5161,6.8694c-1.01073,2.39586 -2.85752,4.6607 -5.54037,6.79452l-3.0322,-3.0322c1.7844,-1.22285 3.12582,-2.59549 4.02427,-4.11793c1.46,-2.47074 2.19,-5.77753 2.19,-9.92038v-18.19318h16.2471v31.08992c0,1.36017 -0.35563,2.32102 -1.0669,2.88257c-0.57401,0.44922 -1.51612,0.67383 -2.82634,0.67383c-1.83431,0 -3.63745,-0.07487 -5.4094,-0.22461l-0.69255,-4.02427c1.68455,0.27453 3.24435,0.41179 4.6794,0.41179c0.58649,0 0.9546,-0.1435 1.10434,-0.4305c0.09983,-0.19965 0.14974,-0.50538 0.14974,-0.91716v-7.86135zM301.89697,181.28789h8.16086v-5.67147h-8.16086v5.29708c0,0.19965 0,0.32444 0,0.37435zM301.89697,172.20983h8.16086v-5.42805h-8.16086zM294.97148,163.24409v26.33526h-9.9016v3.7622h-4.06171v-30.09835zM285.06988,166.76299v7.71172h6.02708v-7.71172zM285.06988,177.76899v8.1983h6.02708v-8.1983z"/></g></g></g></svg>