<svg version="1.1" xmlns="http://www.w3.org/2000/svg" xmlns:xlink="http://www.w3.org/1999/xlink" width="223.67" height="343.67" viewBox="0,0,223.67,343.67"><g transform="translate(-128.1665,-8.1665)"><g data-paper-data="{&quot;isPaintingLayer&quot;:true}" fill-rule="nonzero" stroke="none" stroke-miterlimit="10" stroke-dasharray="" stroke-dashoffset="0" style="mix-blend-mode: normal"><path d="M132.1665,351.8365c-2.20914,0 -4,-1.79086 -4,-4v-335.67c0,-2.20914 1.79086,-4 4,-4h215.67c2.20914,0 4,1.79086 4,4v335.67c0,2.20914 -1.79086,4 -4,4z" fill="none" stroke-width="0" stroke-linecap="round" stroke-linejoin="round" opacity="0.988"/><g fill="#ffffff" stroke-width="1" stroke-linecap="butt" stroke-linejoin="miter"><path d="M144,222.20568h11.91l1.1354,1.08138c-0.78737,1.78361 -1.72208,3.34825 -2.80413,4.69393c-0.83822,1.03596 -1.80596,2.00518 -2.90323,2.90765c0.86357,0.97192 1.56459,1.829 2.10305,2.57125l-1.40207,1.29762c-1.778,-2.48314 -4.01571,-4.88887 -6.71314,-7.21719l1.20397,-1.26563c1.12776,0.94519 2.35456,2.08262 3.68039,3.4123c1.37667,-1.11607 2.54251,-2.37634 3.49751,-3.78079c0.45719,-0.67819 0.83566,-1.36439 1.1354,-2.0586h-10.84297z"/><path d="M168.93287,223.01566l1.37154,1.42578c-0.57403,3.03851 -1.60273,5.42021 -3.0861,7.14511c-1.39696,1.62339 -3.50008,2.87832 -6.30934,3.7648l-0.95249,-1.61803c2.45359,-0.65149 4.35604,-1.69282 5.70736,-3.12399c1.47824,-1.56468 2.44852,-3.54853 2.91083,-5.95156h-5.05963c-0.99564,1.55928 -2.21229,2.8489 -3.64995,3.86887l-1.2344,-1.32971c1.1582,-0.77964 2.10562,-1.63139 2.84227,-2.55525c0.83308,-1.05736 1.49856,-2.33898 1.99644,-3.84488l1.6383,0.48061c-0.21335,0.63013 -0.44703,1.20953 -0.70103,1.73819zM169.42817,223.17587c-0.3048,-0.88647 -0.7569,-1.77828 -1.35632,-2.67542l1.28015,-0.30438c0.51816,0.6942 0.98044,1.57264 1.38685,2.63533zM171.7218,223.0798c-0.32512,-1.00397 -0.77215,-1.9545 -1.34111,-2.85156l1.24962,-0.28036c0.51816,0.74225 0.96519,1.64472 1.34111,2.70741z"/><path d="M175.17316,222.93364h10.48501v1.7222h-10.48501zM173.62636,232.10526h13.57882v1.73819h-13.57882z"/><path d="M194.52801,226.57345v-3.0839c-1.29032,0.17088 -2.7381,0.29103 -4.34333,0.36045l-0.49529,-1.54595c4.03853,-0.19759 7.18049,-0.68355 9.42588,-1.45787l0.99817,1.45787c-1.13284,0.36847 -2.42316,0.67552 -3.87097,0.92116v3.34822h5.82167v1.64212h-5.8521c-0.10668,1.72483 -0.50036,3.11592 -1.18105,4.17328c-0.86357,1.34574 -2.08783,2.36571 -3.67278,3.05991l-1.10488,-1.48986c1.59002,-0.68353 2.71521,-1.58334 3.37559,-2.69941c0.47752,-0.80636 0.762,-1.821 0.85343,-3.04391h-6.07311v-1.64212z"/><path d="M204.97498,224.58437h7.66567c-0.12192,2.36564 -0.36322,5.04102 -0.7239,8.02615l-0.06858,0.56072h2.88031v1.52196h-11.20092v-1.52196h6.68271c0.39115,-2.87829 0.62483,-5.23327 0.70103,-7.06493h-5.93588z"/><path d="M216.61774,226.93231h13.41887v1.80227h-13.41887z"/><path d="M233.05336,220.78051h1.77543v4.75801c3.03275,0.98791 5.5448,1.99452 7.53614,3.01982l-0.85343,1.7222c-1.91006,-1.01997 -4.13763,-1.98918 -6.68271,-2.90765v7.97806h-1.77543zM239.73607,225.09794c-0.30988,-0.84909 -0.82548,-1.83966 -1.54681,-2.97173l1.18105,-0.45658c0.62991,0.91313 1.15569,1.88505 1.57734,2.91575zM241.91539,224.56927c-0.381,-1.03596 -0.88899,-2.02921 -1.52398,-2.97973l1.1354,-0.3925c0.57403,0.73159 1.08964,1.66078 1.54681,2.78759z"/></g></g></g></svg>