<svg version="1.1" xmlns="http://www.w3.org/2000/svg" xmlns:xlink="http://www.w3.org/1999/xlink" width="224" height="226" viewBox="0,0,224,226"><g transform="translate(-128,-180)"><g data-paper-data="{&quot;isPaintingLayer&quot;:true}" stroke="none" stroke-width="1" stroke-linecap="butt" stroke-linejoin="miter" stroke-miterlimit="10" stroke-dasharray="" stroke-dashoffset="0" style="mix-blend-mode: normal"><path d="M352,180v226h-224v-226z" fill="#1d2a41" fill-rule="evenodd"/><g fill="#ffffff" fill-rule="nonzero"><path d="M145.03125,341.1023v3.5888c0.91146,-0.32353 1.53125,-0.84077 1.85938,-1.5517c0.25521,-0.54693 0.39192,-1.59283 0.41015,-3.1377h1.37402c-0.01367,1.80013 -0.20051,3.05337 -0.56054,3.7597c-0.48763,0.94793 -1.31934,1.66343 -2.49512,2.1465l-0.58789,-0.8066v0.01h-3.26758v0.7041h-1.34668v-4.7099zM141.76367,342.278v1.668h1.9209v-1.668zM148.4834,333.7673v-1.2442h1.38769v1.2442h3.32911v1.2031h-3.32911v0.9707h2.93946v1.1758h-7.09571v-1.1758h2.76856v-0.9707h-3.24707v-1.2031zM153.14551,338.0534v2.8711h-1.37403v-1.709h-4.94921v1.8184h-1.33301v-2.9805zM140.64258,333.0153h4.1289v1.1485h-4.1289zM140,335.0183h5.33203v1.2304h-5.33203zM140.64258,337.1169h4.1289v1.1348h-4.1289zM140.64258,339.1198h4.1289v1.1075h-4.1289zM149.50195,339.9743h1.31934v4.0537c0,0.1276 0.0319,0.2051 0.0957,0.2325c0.10482,0.04533 0.22331,0.068 0.35547,0.068c0.30078,0 0.49674,-0.0433 0.58789,-0.1299c0.12305,-0.10933 0.20964,-0.72 0.25977,-1.832l1.2373,0.4307c-0.041,1.22133 -0.17088,1.99607 -0.38965,2.3242c-0.13671,0.20507 -0.35546,0.34407 -0.65625,0.417c-0.25976,0.05933 -0.60611,0.089 -1.03906,0.089c-0.75195,0 -1.2373,-0.07747 -1.45605,-0.2324c-0.20964,-0.1504 -0.31446,-0.4284 -0.31446,-0.834zM155.74316,333.487h5.34571l0.95703,0.8135c-0.45117,1.5814 -0.82487,2.77087 -1.1211,3.5684c1.13477,0.1914 2.18067,0.50127 3.1377,0.9296c0.05467,-0.58787 0.082,-1.16437 0.082,-1.7295c0,-0.30073 -0.0091,-0.6539 -0.0273,-1.0595l1.49707,0.1572c-0.00467,1.3034 -0.05708,2.39943 -0.15723,3.2881c0.56511,0.29167 1.15756,0.63573 1.77735,1.0322l-0.5879,1.4561c-0.4375,-0.319 -0.91146,-0.63573 -1.42187,-0.9502c-0.35091,1.35347 -0.91146,2.4062 -1.68164,3.1582c-0.54687,0.53773 -1.29427,1.0117 -2.24219,1.4219l-0.85449,-1.1485c1.11653,-0.47853 1.9414,-1.0892 2.47461,-1.832c0.41927,-0.59247 0.72916,-1.3672 0.92969,-2.3242c-1.11654,-0.5606 -2.24675,-0.93887 -3.39063,-1.1348c-0.74284,2.03253 -1.48796,3.5729 -2.23535,4.6211c-0.56966,0.79293 -1.20996,1.1894 -1.9209,1.1894c-0.68815,0 -1.22136,-0.3281 -1.59961,-0.9843c-0.28711,-0.50133 -0.43066,-1.09833 -0.43066,-1.791c0,-0.8568 0.22103,-1.62243 0.66308,-2.2969c0.52409,-0.80207 1.33074,-1.3877 2.41993,-1.7569c0.6289,-0.2096 1.333,-0.32353 2.1123,-0.3418c0.41927,-1.09373 0.74056,-2.07353 0.96387,-2.9394h-4.68946zM158.97656,339.0788c-0.58789,0.032 -1.09147,0.14367 -1.51074,0.335c-0.65625,0.29167 -1.13932,0.73827 -1.44922,1.3398c-0.21875,0.42387 -0.32812,0.87503 -0.32812,1.3535c0,0.38287 0.07519,0.71557 0.22558,0.9981c0.11393,0.22327 0.25065,0.3349 0.41016,0.3349c0.63802,0 1.52213,-1.45377 2.65234,-4.3613zM175.06152,336.4128h4.93555v1.4014h-4.93555v5.7148h6.24121v1.4287h-13.30273v-1.4287h5.40723v-11.0195h1.65429zM190.45605,333.0564h1.23047l0.29395,2.9804h2.78906v1.3877h-2.67285l0.0273,1.2442c0.00467,0.22327 0.007,0.3782 0.007,0.4648c0,1.88213 -0.27799,3.27893 -0.83398,4.1904c-0.4375,0.7246 -1.07324,1.3125 -1.90723,1.7637c-0.22787,0.12307 -0.50586,0.2575 -0.83399,0.4033l-0.92968,-1.1758c1.13021,-0.5104 1.91178,-1.13247 2.34472,-1.8662c0.42383,-0.71547 0.63575,-1.83427 0.63575,-3.3564c0,-0.04067 -0.00233,-0.20473 -0.007,-0.4922l-0.0342,-1.1758h-4.49121v-1.3877h4.43652zM183.33984,345.0534c-0.22331,-1.71807 -0.33496,-3.59793 -0.33496,-5.6396c0,-2.16473 0.12761,-4.28387 0.38282,-6.3574l1.48339,0.1367c-0.23697,2.16467 -0.35546,4.22683 -0.35546,6.1865c0,1.99153 0.10937,3.81217 0.32812,5.4619zM193.0332,335.4216c-0.20507,-0.7292 -0.5332,-1.49483 -0.98437,-2.2969l0.9707,-0.2666c0.43295,0.74287 0.77702,1.49937 1.03223,2.2695zM194.6123,334.8747c-0.25521,-0.86133 -0.60612,-1.63607 -1.05273,-2.3242l1.01172,-0.2529c0.44206,0.679 0.79753,1.44007 1.06641,2.2832zM197.96191,333.2683h7.66993l0.73144,1.1347c-2.36979,1.44927 -4.42285,2.76633 -6.15918,3.9512c1.12109,-0.4694 2.24674,-0.7041 3.37695,-0.7041c1.01628,0 1.86394,0.1618 2.54297,0.4854c0.62891,0.30073 1.11882,0.71087 1.46973,1.2304c0.36459,0.55147 0.54688,1.18493 0.54688,1.9004c0,1.0026 -0.3418,1.84113 -1.0254,2.5156c-0.4694,0.4694 -1.07096,0.82487 -1.80468,1.0664c-0.96159,0.31447 -2.01433,0.4717 -3.15821,0.4717c-1.31705,0 -2.28776,-0.2438 -2.91211,-0.7314c-0.48763,-0.3828 -0.73144,-0.90007 -0.73144,-1.5518c0,-0.4922 0.17773,-0.9297 0.5332,-1.3125c0.53776,-0.57873 1.26465,-0.8681 2.18067,-0.8681c0.9707,0 1.74772,0.32583 2.33105,0.9775c0.42383,0.47393 0.72917,1.10967 0.91602,1.9072c1.40365,-0.4466 2.10547,-1.27147 2.10547,-2.4746c0,-0.91147 -0.38054,-1.58367 -1.14161,-2.0166c-0.51041,-0.29167 -1.15755,-0.4375 -1.9414,-0.4375c-1.17123,0 -2.22852,0.1618 -3.17188,0.4854c-0.69727,0.23693 -1.63379,0.80887 -2.80957,1.7158l-0.96386,-1.1621c1.26693,-1.0938 2.70931,-2.2035 4.32714,-3.3291c1.11654,-0.77473 2.10092,-1.4105 2.95313,-1.9073h-5.86524zM203.14355,344.0075c-0.32357,-1.28967 -0.95931,-1.9345 -1.90722,-1.9345c-0.52409,0 -0.90234,0.16633 -1.13477,0.499c-0.10937,0.1504 -0.16406,0.31217 -0.16406,0.4853c0,0.36007 0.25521,0.63123 0.76563,0.8135c0.36914,0.1276 0.8636,0.1914 1.48339,0.1914c0.26433,0 0.58334,-0.01833 0.95703,-0.055zM217.82031,336.3718c0.31901,0.16407 0.68588,0.36003 1.10059,0.5879l-0.86817,0.7041h4.11524l0.77246,0.7724c-1.02539,1.54493 -2.04851,2.81417 -3.06934,3.8077l-1.38769,-0.8135c0.89779,-0.82033 1.61784,-1.6361 2.16015,-2.4473h-3.40429v5.3594c0,0.6198 -0.15267,1.01627 -0.45801,1.1894c-0.20508,0.11853 -0.58789,0.1778 -1.14844,0.1778c-0.73372,0 -1.54264,-0.04557 -2.42676,-0.1367l-0.33496,-1.5245c0.85221,0.13673 1.60873,0.2051 2.26954,0.2051c0.25065,0 0.40559,-0.041 0.46484,-0.123c0.0456,-0.0684 0.0684,-0.19373 0.0684,-0.376v-4.7715h-5.72852v-1.3193h7.41016c-1.54037,-0.88413 -3.08073,-1.63153 -4.62109,-2.2422l1.10742,-0.8818c1.0345,0.41467 1.94824,0.81797 2.74121,1.2099c0.70182,-0.47853 1.31705,-0.94793 1.8457,-1.4082h-7.30762v-1.2988h9.29688l0.84082,0.8203c-1.19401,0.9616 -2.34017,1.79787 -3.43848,2.5088zM226.4541,337.1784c-0.59245,1.08007 -1.27832,1.9642 -2.05762,2.6524l-0.78613,-1.2715c1.02083,-0.77473 1.88216,-1.82063 2.58399,-3.1377h-2.2627v-1.2578h2.52246v-1.6543h1.46973v1.6543h1.97558v1.2578h-1.97558v0.834c0.8112,0.4648 1.53353,0.95697 2.16699,1.4765l-0.82715,1.2032c-0.43294,-0.48313 -0.87955,-0.9138 -1.33984,-1.292v3.042h-1.46973zM230.65137,340.4597c0.58333,0.556 1.15755,1.22363 1.72265,2.0029l-1.21679,0.8682c-0.62891,-0.97073 -1.23731,-1.72727 -1.8252,-2.2696l0.9707,-0.6767v-7.3828h5.8379v7.458zM231.68359,334.1228v1.0459h3.042v-1.0459zM231.68359,336.2214v1.0322h3.042v-1.0322zM231.68359,338.2927v1.0459h3.042v-1.0459zM223.78809,344.6501c0.52409,-0.8568 0.93196,-1.90727 1.22363,-3.1514l1.42187,0.4034c-0.25521,1.46287 -0.69271,2.6865 -1.3125,3.6709zM227.52734,341.5124h1.49707v2.1807c0,0.28253 0.06836,0.45113 0.20508,0.5058c0.17318,0.064 0.6517,0.096 1.43555,0.096c0.74739,0 1.24642,-0.025 1.49707,-0.075c0.18229,-0.04067 0.2985,-0.14547 0.34863,-0.3144c0.06836,-0.22787 0.11393,-0.6426 0.13672,-1.2442l1.51074,0.3487c-0.0182,0.679 -0.06833,1.16433 -0.15039,1.456c-0.11393,0.41473 -0.28255,0.6973 -0.50586,0.8477c-0.19141,0.13213 -0.46712,0.2096 -0.82715,0.2324c-0.74739,0.04533 -1.5153,0.068 -2.30371,0.068c-1.32617,0 -2.13508,-0.0775 -2.42675,-0.2325c-0.278,-0.15033 -0.417,-0.46933 -0.417,-0.957zM235.86035,345.1765c-0.55143,-1.33073 -1.16439,-2.45867 -1.83887,-3.3838l1.25098,-0.7451c0.75195,1.0026 1.39453,2.08493 1.92774,3.247zM243.59863,334.3552v-0.5879h-4.27246v-0.9775h10.08985v0.9775h-4.36133v0.5879h5.66015v2.4541h-1.48339v-1.5723h-4.17676v2.6592h-1.45606v-2.6592h-4.10156v1.5723h-1.46973v-2.4541zM248.43848,344.0554c0.69727,0.26433 1.56771,0.47397 2.61132,0.6289l-0.7998,1.1621c-1.46289,-0.25067 -2.66374,-0.68133 -3.60254,-1.292c-0.93425,-0.61067 -1.66113,-1.36947 -2.18066,-2.2764h-1.51075v2.1055c1.00717,-0.14127 1.94141,-0.29167 2.80274,-0.4512l0.0957,1.0186c-1.60417,0.3828 -3.43848,0.71547 -5.50293,0.998l-0.40332,-1.2031c0.71549,-0.07747 1.2054,-0.13217 1.46973,-0.1641l0.082,-0.014v-2.2901h-1.49707c-0.0638,0.80213 -0.16862,1.44243 -0.31445,1.9209c-0.17318,0.57427 -0.45118,1.10977 -0.83399,1.6065l-1.21679,-1.0049c0.44661,-0.5788 0.72461,-1.25557 0.83398,-2.0303c0.05927,-0.41927 0.0889,-0.94107 0.0889,-1.5654v-2.8984h11.79883v0.9091h-10.32911v2.0987h10.917v0.9638h-1.55176l0.86816,0.5743c-0.51497,0.42833 -1.12337,0.82937 -1.82519,1.2031zM247.37207,343.529c0.65625,-0.4466 1.17806,-0.8636 1.56543,-1.251h-2.9873c0.39193,0.50133 0.86588,0.91833 1.42187,1.251zM240.09863,335.7429h2.91211v0.7724h-2.91211zM240.09863,337.0007h2.91211v0.7861h-2.91211zM245.64258,335.7429h3.00097v0.7724h-3.00097zM245.64258,337.0007h3.00097v0.7861h-3.00097zM240.84375,339.7898h8.51074v0.8955h-8.51074zM259.4375,333.7399h5.35937v1.1485h-3.03515v1.1347h2.84375v1.1075h-2.84375v2.0371h-5.50293v-2.0371h-2.24219v1.2715c0,2.0644 -0.10937,3.6959 -0.32812,4.8945c-0.16862,0.91147 -0.44206,1.74317 -0.82032,2.4951l-1.24414,-0.9844c0.34635,-0.75193 0.58333,-1.67023 0.71094,-2.7549c0.11393,-0.95247 0.1709,-2.16923 0.1709,-3.6503v-4.6622h5.40723v-1.2304h1.52441zM254.0166,334.8884v1.1347h2.24219v-1.1347zM257.71484,334.8884v1.1347h2.59082v-1.1347zM257.71484,337.1306v1.0595h2.59082v-1.0595zM259.30078,344.3083c-1.31705,0.6836 -2.98958,1.20313 -5.01758,1.5586l-0.71093,-1.2578c1.90495,-0.22787 3.39746,-0.5765 4.47753,-1.0459c-0.92513,-0.66993 -1.71582,-1.4652 -2.37207,-2.3858h-0.94336v-1.1894h8.00489l0.71777,0.6016c-0.67903,1.0436 -1.64746,2.02567 -2.90527,2.9462c1.08007,0.433 2.55208,0.75203 4.41601,0.9571l-0.7998,1.292c-1.78646,-0.24153 -3.40886,-0.73373 -4.86719,-1.4766zM257.27051,341.1774c0.55143,0.64713 1.22135,1.2168 2.00976,1.709c0.88867,-0.5742 1.57455,-1.14387 2.05762,-1.709z"/><path d="M148.98242,195.2131l0.06152,-2.87109h1.37402l-0.04785,2.87109h2.70703c-0.06836,4.77149 -0.23242,7.7474 -0.49219,8.92774c-0.10938,0.49675 -0.28939,0.84538 -0.54004,1.0459c-0.24609,0.19141 -0.6403,0.28711 -1.18262,0.28711c-0.52409,0 -1.02311,-0.02733 -1.49707,-0.082l-0.28027,-1.41503c0.53776,0.07291 1.02311,0.10937 1.45605,0.10937c0.29167,0 0.48535,-0.08203 0.58105,-0.24609c0.26888,-0.46485 0.45573,-2.88705 0.56055,-7.2666h-1.4082c-0.12305,2.05989 -0.43294,3.7552 -0.92969,5.08593c-0.58789,1.57683 -1.39681,2.90072 -2.42676,3.97168l-0.97754,-1.0664c1.01172,-0.99349 1.74772,-2.24447 2.20801,-3.75293c0.38281,-1.23959 0.63802,-2.65235 0.76563,-4.23828h-1.81152v-1.03223h-7.07519v-1.29883h3.11035v-1.90039h1.45606v1.90039h2.76855v0.9707zM143.33594,201.65256c-0.56966,-0.64714 -1.17578,-1.25782 -1.81836,-1.83203l0.90918,-0.95704c0.45117,0.38737 1.00488,0.90691 1.66113,1.5586c0.35091,-0.62891 0.65625,-1.27376 0.91602,-1.93457l1.25781,0.61523c-0.25977,0.67448 -0.64941,1.47429 -1.16895,2.39942c0.51042,0.57421 0.96159,1.11881 1.35352,1.63379l-1.06641,1.13476c-0.39648,-0.57422 -0.76563,-1.07324 -1.10742,-1.49707c-0.81576,1.15299 -1.77279,2.09407 -2.87109,2.82324l-1.10742,-1.16211c1.22135,-0.67448 2.23535,-1.60189 3.04199,-2.78222zM139.86328,198.74045c0.87956,-0.66081 1.63151,-1.61784 2.25586,-2.8711l1.18945,0.62891c-0.62435,1.32161 -1.44238,2.39486 -2.4541,3.21973zM146.61035,199.18478c-0.61523,-0.89779 -1.36263,-1.80241 -2.24219,-2.71386l1.05273,-0.73829c0.86133,0.80209 1.57455,1.61784 2.13965,2.44727zM162.46289,200.7092c1.35807,1.17578 3.01009,2.12825 4.95605,2.85742l-0.92285,1.31934c-2.08724,-0.93881 -3.80306,-2.16472 -5.14746,-3.67774v4.43652h-1.4834v-4.38183c-1.29883,1.67253 -2.96908,2.96452 -5.01074,3.87597l-0.90918,-1.23046c1.93685,-0.74284 3.58887,-1.80925 4.95605,-3.19922h-4.90137v-1.2168h5.86523v-1.01855h-4.62109v-5.61231h10.81445v5.61231h-4.70996v1.01855h5.9541v1.2168zM156.70019,193.95529v1.11426h3.16504v-1.11426zM156.70019,196.14963v1.23047h3.16504v-1.23047zM164.60254,197.3801v-1.23047h-3.25391v1.23047zM164.60254,195.06955v-1.11426h-3.25391v1.11426zM175.34863,193.61349h4.95605v1.2168h-1.93457c-0.22786,0.71549 -0.47852,1.37402 -0.75195,1.97559h3.68457v1.24414h-13.30273v-1.24414h3.58887c-0.18685,-0.63347 -0.43978,-1.292 -0.75879,-1.97559h-1.83887v-1.2168h4.86035v-1.27148h1.49707zM172.44335,194.83029c0.26888,0.61523 0.50586,1.27376 0.71094,1.97559h2.93262c0.26888,-0.62435 0.49902,-1.28288 0.69043,-1.97559zM179.16992,198.99338v6.65136h-1.52441v-0.71777h-6.00879v0.71777h-1.51074v-6.65136zM171.63671,200.15549v1.18945h6.00879v-1.18945zM171.63671,202.43869v1.3125h6.00879v-1.3125zM183.18944,194.26291h3.68457c0.4056,-0.64713 0.71322,-1.16894 0.92285,-1.56543l1.52441,0.21875c-0.13672,0.24609 -0.37825,0.64713 -0.72461,1.20312l-0.08887,0.14356h4.81934v1.34668h-5.72851c-0.59701,0.82031 -1.16667,1.53125 -1.70899,2.13281c0.86133,-0.51497 1.64746,-0.77246 2.3584,-0.77246c1.10286,0 1.8252,0.55371 2.16699,1.66113c1.16667,-0.38737 2.35612,-0.77018 3.56836,-1.14844l0.58789,1.32618l-0.23926,0.0684l-0.67676,0.17773c-1.27604,0.34635 -2.29687,0.64258 -3.0625,0.88867c0.05469,0.59245 0.09342,1.35807 0.11621,2.29688l-1.49707,0.082c-0.00453,-0.54232 -0.01365,-1.13021 -0.02734,-1.76367v-0.13672c-2.09635,0.71549 -3.14453,1.43554 -3.14453,2.16015c0,0.3737 0.26888,0.62891 0.80664,0.76563c0.51953,0.13216 1.44922,0.19824 2.78906,0.19824c1.23503,0 2.53158,-0.07064 3.88965,-0.21191l0.16406,1.45605c-1.31706,0.10026 -2.68197,0.15039 -4.09473,0.15039c-1.74089,0 -2.97819,-0.13216 -3.71192,-0.39648c-0.9069,-0.32813 -1.36035,-0.9183 -1.36035,-1.77051c0,-0.72005 0.32129,-1.3558 0.96387,-1.90723c0.66536,-0.56966 1.83659,-1.15755 3.51367,-1.76367c-0.09115,-0.35091 -0.21191,-0.59701 -0.3623,-0.73828c-0.16862,-0.15951 -0.39193,-0.23926 -0.66992,-0.23926c-0.45117,0 -1.01855,0.1709 -1.70215,0.5127c-0.8431,0.41927 -1.74772,1.05045 -2.71387,1.89355l-0.90918,-1.03906c1.41732,-1.31706 2.52702,-2.61133 3.3291,-3.88281h-2.78223zM200.27928,193.43576v9.44727h-2.71387v1.13476h-1.25781v-10.58203zM197.56542,194.78244v6.75391h1.46973v-6.75391zM203.51268,193.51779c0.11849,-0.32357 0.23698,-0.75651 0.35547,-1.29883l1.52441,0.21875c-0.12305,0.35547 -0.27344,0.7155 -0.45117,1.08008h3.16504v4.26563h-5.63965v0.64941h6.89746v1.08008h-6.89746v0.64258h6.5625c-0.05013,2.26041 -0.15039,3.71191 -0.30078,4.35449c-0.0957,0.4056 -0.25749,0.69499 -0.48535,0.86816c-0.23698,0.17773 -0.63346,0.2666 -1.18945,0.2666c-0.55599,0 -1.04134,-0.02507 -1.45605,-0.0752l-0.27344,-1.3125c0.53776,0.07291 1.04362,0.10937 1.51758,0.10937c0.26432,0 0.43294,-0.07064 0.50586,-0.21191c0.11849,-0.23242 0.22103,-1.17578 0.30762,-2.83008l0.0068,-0.10254h-6.56934v-7.7041zM202.46678,194.49533v0.7041h4.26563v-0.7041zM202.46678,196.10861v0.72461h4.26563v-0.72461zM202.6787,204.85861c-0.03646,-1.10742 -0.12533,-2.09179 -0.2666,-2.95312l0.96387,-0.19825c0.24154,0.93881 0.39193,1.87761 0.45117,2.81641zM200.04686,204.59201c0.41927,-0.89323 0.69954,-1.85482 0.84082,-2.88477l1.12109,0.22559c-0.15039,1.36719 -0.38965,2.46322 -0.71777,3.28809zM204.56542,204.40744c-0.18685,-1.01627 -0.39649,-1.88444 -0.62891,-2.60449l0.88184,-0.30762c0.3099,0.68359 0.58105,1.5153 0.81348,2.49512zM206.30175,203.77853c-0.18685,-0.67448 -0.45801,-1.37858 -0.81348,-2.1123l0.82715,-0.37598c0.38281,0.60612 0.68131,1.26237 0.89551,1.96875zM218.96191,195.52072c-1.72721,-0.76563 -3.67318,-1.35352 -5.83789,-1.76367l0.57422,-1.2168c2.22396,0.41471 4.18815,0.95475 5.89258,1.62012zM211.1621,200.53146c0.18685,-2.17839 0.46712,-4.0765 0.84082,-5.69433l1.46973,0.27343c-0.34635,1.44011 -0.56966,2.78907 -0.66992,4.04688c0.66081,-0.50586 1.42188,-0.90918 2.2832,-1.20996c0.82487,-0.29167 1.59505,-0.4375 2.31055,-0.4375c1.07096,0 1.94596,0.20736 2.625,0.62207c0.9069,0.56055 1.36035,1.45833 1.36035,2.69336c0,1.21224 -0.41243,2.15104 -1.23731,2.8164c-1.15299,0.92057 -3.1582,1.42871 -6.01562,1.52442l-0.54687,-1.41504c1.90951,-0.00467 3.36328,-0.1824 4.36133,-0.5332c1.20768,-0.41927 1.81152,-1.21908 1.81152,-2.39942c0,-0.74739 -0.2666,-1.30338 -0.79981,-1.66797c-0.42383,-0.29167 -0.97982,-0.4375 -1.66797,-0.4375c-0.97982,0 -2.03255,0.32129 -3.1582,0.96387c-0.68815,0.39193 -1.30338,0.86816 -1.8457,1.42871zM230.25487,192.62228h1.53809v1.88672h4.0332v1.31934h-4.0332v2.92578c0.15951,0.56055 0.23926,1.05957 0.23926,1.49707c0,1.62239 -0.35775,2.81412 -1.07325,3.57519c-0.77929,0.83399 -1.95279,1.41049 -3.5205,1.7295l-0.7793,-1.16211c1.2168,-0.23243 2.11914,-0.56055 2.70703,-0.98438c0.55143,-0.40104 0.92285,-0.94564 1.11426,-1.63379c-0.48763,0.53321 -1.06869,0.79981 -1.74317,0.79981c-0.75651,0 -1.36946,-0.21419 -1.83886,-0.64258c-0.55143,-0.50586 -0.82715,-1.23958 -0.82715,-2.20117c0,-0.50586 0.12077,-0.99349 0.3623,-1.46289c0.15951,-0.30078 0.35547,-0.55143 0.58789,-0.75196c0.53776,-0.45573 1.18262,-0.68359 1.93457,-0.68359c0.47852,0 0.91146,0.11393 1.29883,0.3418v-1.34668h-6.74707v-1.31934h6.74707zM230.30957,199.71799v-0.25293c0,-0.29167 -0.06836,-0.54915 -0.20508,-0.77246c-0.25521,-0.41927 -0.62435,-0.62891 -1.10742,-0.62891c-0.24609,0 -0.47624,0.06836 -0.69043,0.20508c-0.5013,0.31445 -0.75195,0.79753 -0.75195,1.44922c0,0.41015 0.09115,0.75651 0.27344,1.03906c0.25521,0.39193 0.63119,0.58789 1.12793,0.58789c0.45117,0 0.80892,-0.2028 1.07325,-0.6084c0.18685,-0.28711 0.28027,-0.62662 0.28027,-1.01855zM244.84277,196.20431c0.31901,0.16407 0.68588,0.36003 1.10059,0.5879l-0.86816,0.7041h4.11523l0.77246,0.77246c-1.02539,1.54492 -2.04851,2.81412 -3.06934,3.80761l-1.38769,-0.81347c0.89779,-0.82031 1.61784,-1.63607 2.16016,-2.44727h-3.4043v5.35938c0,0.61979 -0.15267,1.01628 -0.45801,1.18945c-0.20508,0.11849 -0.58789,0.17774 -1.14844,0.17774c-0.73372,0 -1.54264,-0.04557 -2.42675,-0.13672l-0.33497,-1.52442c0.85222,0.13672 1.60873,0.20508 2.26954,0.20508c0.25065,0 0.40559,-0.04102 0.46484,-0.12305c0.0456,-0.06836 0.0684,-0.19368 0.0684,-0.37597v-4.77149h-5.72852v-1.31933h7.41016c-1.54037,-0.88412 -3.08073,-1.63152 -4.62109,-2.24219l1.10742,-0.88184c1.03451,0.41471 1.94824,0.81803 2.74121,1.20996c0.70182,-0.47851 1.31705,-0.94791 1.8457,-1.4082h-7.30762v-1.29883h9.29688l0.84082,0.82032c-1.19401,0.96159 -2.34017,1.79785 -3.43848,2.50878zM253.47656,197.01096c-0.59245,1.08007 -1.27832,1.96419 -2.05761,2.65234l-0.78614,-1.27149c1.02083,-0.77473 1.88216,-1.82063 2.58399,-3.13769h-2.2627v-1.25781h2.52246v-1.6543h1.46973v1.6543h1.97558v1.25781h-1.97558v0.83398c0.8112,0.46485 1.53353,0.95704 2.16699,1.47657l-0.82715,1.20312c-0.43294,-0.48307 -0.87955,-0.91374 -1.33984,-1.29199v3.04199h-1.46973zM257.67383,200.29221c0.58333,0.55599 1.15755,1.22363 1.72265,2.00292l-1.21679,0.86817c-0.62891,-0.97071 -1.23731,-1.72722 -1.8252,-2.26953l0.97071,-0.67676v-7.38281h5.83789v7.45801zM258.70605,193.95529v1.0459h3.042v-1.0459zM258.70605,196.05392v1.03223h3.042v-1.03223zM258.70605,198.12521v1.0459h3.042v-1.0459zM250.81055,204.48263c0.52409,-0.85677 0.93196,-1.90722 1.22363,-3.15136l1.42187,0.40332c-0.25521,1.46289 -0.69271,2.68652 -1.3125,3.6709zM254.5498,201.34494h1.49707v2.18066c0,0.28255 0.06836,0.45117 0.20508,0.50586c0.17318,0.0638 0.6517,0.0957 1.43555,0.0957c0.74739,0 1.24642,-0.02507 1.49707,-0.0752c0.18229,-0.041 0.2985,-0.14582 0.34863,-0.31445c0.06836,-0.22787 0.11393,-0.64258 0.13672,-1.24414l1.51074,0.34863c-0.0182,0.67903 -0.06833,1.16438 -0.15039,1.45605c-0.11393,0.41471 -0.28255,0.69727 -0.50586,0.84766c-0.19141,0.13216 -0.46712,0.20963 -0.82714,0.23242c-0.7474,0.0456 -1.51531,0.0684 -2.30372,0.0684c-1.32617,0 -2.13508,-0.07747 -2.42675,-0.23242c-0.278,-0.15039 -0.417,-0.4694 -0.417,-0.95703zM262.88281,205.009c-0.55143,-1.33073 -1.16439,-2.45866 -1.83886,-3.38379l1.25097,-0.74511c0.75195,1.0026 1.39453,2.08496 1.92774,3.24707zM270.62109,194.18771v-0.58789h-4.27246v-0.97754h10.08985v0.97754h-4.36133v0.58789h5.66015v2.4541h-1.48339v-1.57226h-4.17676v2.65918h-1.45606v-2.65918h-4.10156v1.57226h-1.46973v-2.4541zM275.46094,203.88791c0.69727,0.26432 1.56771,0.47395 2.61133,0.6289l-0.79981,1.16211c-1.46289,-0.25065 -2.66374,-0.68131 -3.60254,-1.29199c-0.93425,-0.61067 -1.66113,-1.36946 -2.18066,-2.27637h-1.51074v2.10547c1.00716,-0.14127 1.9414,-0.29166 2.80273,-0.45117l0.0957,1.01856c-1.60417,0.38281 -3.43848,0.71549 -5.50293,0.99804l-0.40332,-1.20312c0.7155,-0.07747 1.20541,-0.13216 1.46973,-0.16406l0.082,-0.0137v-2.29004h-1.49707c-0.0638,0.80209 -0.16862,1.44239 -0.31445,1.9209c-0.17318,0.57422 -0.45118,1.1097 -0.83399,1.60645l-1.21679,-1.00488c0.44661,-0.57878 0.72461,-1.25554 0.83398,-2.03028c0.05927,-0.41927 0.0889,-0.94108 0.0889,-1.56543v-2.89844h11.79883v0.90918h-10.32911v2.09864h10.917v0.96386h-1.55176l0.86816,0.57422c-0.51497,0.42839 -1.12337,0.82943 -1.82519,1.20313zM274.39453,203.36154c0.65625,-0.44661 1.17806,-0.86361 1.56543,-1.25098h-2.9873c0.39193,0.50131 0.86588,0.9183 1.42187,1.25098zM267.12109,195.57541h2.91211v0.77246h-2.91211zM267.12109,196.83322h2.91211v0.78613h-2.91211zM272.66504,195.57541h3.00098v0.77246h-3.00098zM272.66504,196.83322h3.00098v0.78613h-3.00098zM267.86621,199.62228h8.51074v0.89551h-8.51074zM286.45996,193.57248h5.35938v1.14844h-3.03516v1.13476h2.84375v1.10742h-2.84375v2.03711h-5.50293v-2.03711h-2.24219v1.27149c0,2.06445 -0.10937,3.69596 -0.32812,4.89453c-0.16862,0.91146 -0.44206,1.74317 -0.82032,2.49512l-1.24414,-0.98438c0.34636,-0.75195 0.58334,-1.67025 0.71094,-2.75488c0.11393,-0.95247 0.1709,-2.16927 0.1709,-3.65039v-4.66211h5.40723v-1.23047h1.52441zM281.03906,194.72092v1.13476h2.24219v-1.13476zM284.7373,194.72092v1.13476h2.59082v-1.13476zM284.7373,196.9631v1.05957h2.59082v-1.05957zM286.32324,204.14084c-1.31705,0.68359 -2.98958,1.20312 -5.01758,1.55859l-0.71093,-1.25781c1.90495,-0.22787 3.39746,-0.5765 4.47754,-1.0459c-0.92513,-0.66992 -1.71582,-1.46517 -2.37207,-2.38574h-0.94336v-1.18945h8.00488l0.71777,0.60156c-0.67903,1.04362 -1.64746,2.02572 -2.90527,2.94629c1.08008,0.43294 2.55208,0.75195 4.41601,0.95703l-0.7998,1.29199c-1.78646,-0.24153 -3.40886,-0.73372 -4.86719,-1.47656zM284.29297,201.00998c0.55143,0.64713 1.22135,1.21679 2.00976,1.70898c0.88867,-0.57422 1.57455,-1.14388 2.05762,-1.70898z"/><path d="M148.98242,265.3806l0.06152,-2.87109h1.37402l-0.04785,2.87109h2.70703c-0.06836,4.77149 -0.23242,7.7474 -0.49219,8.92773c-0.10938,0.49675 -0.28939,0.84538 -0.54004,1.0459c-0.24609,0.19141 -0.6403,0.28711 -1.18262,0.28711c-0.52409,0 -1.02311,-0.02733 -1.49707,-0.082l-0.28027,-1.41504c0.53776,0.07292 1.02311,0.10938 1.45605,0.10938c0.29167,0 0.48535,-0.08203 0.58105,-0.2461c0.26888,-0.46484 0.45573,-2.88704 0.56055,-7.2666h-1.4082c-0.12305,2.05989 -0.43294,3.75521 -0.92969,5.08594c-0.58789,1.57682 -1.39681,2.90071 -2.42676,3.97168l-0.97754,-1.06641c1.01172,-0.99349 1.74772,-2.24446 2.20801,-3.75293c0.38281,-1.23958 0.63802,-2.65234 0.76563,-4.23828h-1.81152v-1.03223h-7.07519v-1.29882h3.11035v-1.90039h1.45606v1.90039h2.76855v0.9707zM143.33594,271.82005c-0.56966,-0.64713 -1.17578,-1.25781 -1.81836,-1.83203l0.90918,-0.95703c0.45117,0.38737 1.00488,0.9069 1.66113,1.55859c0.35091,-0.62891 0.65625,-1.27376 0.91602,-1.93457l1.25781,0.61524c-0.25977,0.67448 -0.64941,1.47428 -1.16895,2.39941c0.51042,0.57422 0.96159,1.11882 1.35352,1.63379l-1.06641,1.13477c-0.39648,-0.57422 -0.76563,-1.07324 -1.10742,-1.49707c-0.81576,1.15299 -1.77279,2.09407 -2.87109,2.82324l-1.10742,-1.16211c1.22135,-0.67448 2.23535,-1.60189 3.04199,-2.78223zM139.86328,268.90794c0.87956,-0.66081 1.63151,-1.61784 2.25586,-2.87109l1.18945,0.62891c-0.62435,1.32161 -1.44238,2.39485 -2.4541,3.21972zM146.61035,269.35228c-0.61523,-0.89779 -1.36263,-1.80241 -2.24219,-2.71387l1.05273,-0.73828c0.86133,0.80209 1.57455,1.61784 2.13965,2.44727zM162.46289,270.87669c1.35807,1.17579 3.01009,2.12826 4.95605,2.85743l-0.92285,1.31933c-2.08724,-0.9388 -3.80306,-2.16471 -5.14746,-3.67773v4.43652h-1.4834v-4.38184c-1.29883,1.67253 -2.96908,2.96452 -5.01074,3.87598l-0.90918,-1.23047c1.93685,-0.74284 3.58887,-1.80925 4.95605,-3.19922h-4.90137v-1.21679h5.86523v-1.01856h-4.62109v-5.6123h10.81445v5.6123h-4.70996v1.01856h5.9541v1.21679zM156.70019,264.12279v1.11425h3.16504v-1.11425zM156.70019,266.31712v1.23047h3.16504v-1.23047zM164.60254,267.54759v-1.23047h-3.25391v1.23047zM164.60254,265.23704v-1.11425h-3.25391v1.11425zM175.34863,263.78099h4.95605v1.2168h-1.93457c-0.22786,0.71549 -0.47852,1.37402 -0.75195,1.97558h3.68457v1.24414h-13.30273v-1.24414h3.58887c-0.18685,-0.63346 -0.43978,-1.29199 -0.75879,-1.97558h-1.83887v-1.2168h4.86035v-1.27148h1.49707zM172.44335,264.99779c0.26888,0.61523 0.50586,1.27376 0.71094,1.97558h2.93262c0.26888,-0.62435 0.49902,-1.28287 0.69043,-1.97558zM179.16992,269.16087v6.65137h-1.52441v-0.71777h-6.00879v0.71777h-1.51074v-6.65137zM171.63671,270.32298v1.18946h6.00879v-1.18946zM171.63671,272.60619v1.3125h6.00879v-1.3125zM183.18944,264.4304h3.68457c0.4056,-0.64713 0.71322,-1.16894 0.92285,-1.56543l1.52441,0.21875c-0.13672,0.2461 -0.37825,0.64714 -0.72461,1.20313l-0.08887,0.14355h4.81934v1.34668h-5.72851c-0.59701,0.82031 -1.16667,1.53125 -1.70899,2.13282c0.86133,-0.51497 1.64746,-0.77246 2.3584,-0.77246c1.10286,0 1.8252,0.55371 2.16699,1.66113c1.16667,-0.38737 2.35612,-0.77019 3.56836,-1.14844l0.58789,1.32617l-0.23926,0.0684l-0.67676,0.17774c-1.27604,0.34635 -2.29687,0.64258 -3.0625,0.88867c0.05469,0.59245 0.09342,1.35807 0.11621,2.29687l-1.49707,0.082c-0.00453,-0.54231 -0.01365,-1.1302 -0.02734,-1.76367v-0.13672c-2.09635,0.7155 -3.14453,1.43555 -3.14453,2.16016c0,0.3737 0.26888,0.62891 0.80664,0.76563c0.51953,0.13216 1.44922,0.19824 2.78906,0.19824c1.23503,0 2.53158,-0.07064 3.88965,-0.21192l0.16406,1.45606c-1.31706,0.10026 -2.68197,0.15039 -4.09473,0.15039c-1.74089,0 -2.97819,-0.13216 -3.71192,-0.39649c-0.9069,-0.32812 -1.36035,-0.91829 -1.36035,-1.7705c0,-0.72005 0.32129,-1.3558 0.96387,-1.90723c0.66536,-0.56966 1.83659,-1.15755 3.51367,-1.76367c-0.09115,-0.35091 -0.21191,-0.59701 -0.3623,-0.73828c-0.16862,-0.15951 -0.39193,-0.23926 -0.66992,-0.23926c-0.45117,0 -1.01855,0.1709 -1.70215,0.51269c-0.8431,0.41927 -1.74772,1.05046 -2.71387,1.89356l-0.90918,-1.03906c1.41732,-1.31706 2.52702,-2.61133 3.3291,-3.88282h-2.78223zM200.27928,263.60326v9.44726h-2.71387v1.13477h-1.25781v-10.58203zM197.56542,264.94994v6.7539h1.46973v-6.7539zM203.51268,263.68529c0.11849,-0.32357 0.23698,-0.75651 0.35547,-1.29883l1.52441,0.21875c-0.12305,0.35547 -0.27344,0.71549 -0.45117,1.08008h3.16504v4.26562h-5.63965v0.64942h6.89746v1.08007h-6.89746v0.64258h6.5625c-0.05013,2.26042 -0.15039,3.71192 -0.30078,4.35449c-0.0957,0.4056 -0.25749,0.69499 -0.48535,0.86817c-0.23698,0.17773 -0.63346,0.2666 -1.18945,0.2666c-0.55599,0 -1.04134,-0.02507 -1.45605,-0.0752l-0.27344,-1.3125c0.53776,0.07292 1.04362,0.10938 1.51758,0.10938c0.26432,0 0.43294,-0.07064 0.50586,-0.21191c0.11849,-0.23243 0.22103,-1.17579 0.30762,-2.83008l0.0068,-0.10254h-6.56934v-7.7041zM202.46678,264.66283v0.7041h4.26563v-0.7041zM202.46678,266.27611v0.72461h4.26563v-0.72461zM202.6787,275.02611c-0.03646,-1.10743 -0.12533,-2.0918 -0.2666,-2.95313l0.96387,-0.19824c0.24154,0.9388 0.39193,1.8776 0.45117,2.81641zM200.04686,274.75951c0.41927,-0.89323 0.69954,-1.85482 0.84082,-2.88477l1.12109,0.22559c-0.15039,1.36719 -0.38965,2.46321 -0.71777,3.28808zM204.56542,274.57494c-0.18685,-1.01628 -0.39649,-1.88445 -0.62891,-2.6045l0.88184,-0.30761c0.3099,0.68359 0.58105,1.5153 0.81348,2.49511zM206.30175,273.94603c-0.18685,-0.67448 -0.45801,-1.37858 -0.81348,-2.11231l0.82715,-0.37597c0.38281,0.60612 0.68131,1.26237 0.89551,1.96875zM218.96191,265.68822c-1.72721,-0.76563 -3.67318,-1.35352 -5.83789,-1.76368l0.57422,-1.21679c2.22396,0.41471 4.18815,0.95475 5.89258,1.62012zM211.1621,270.69896c0.18685,-2.17839 0.46712,-4.0765 0.84082,-5.69434l1.46973,0.27344c-0.34635,1.44011 -0.56966,2.78907 -0.66992,4.04688c0.66081,-0.50586 1.42188,-0.90918 2.2832,-1.20997c0.82487,-0.29167 1.59505,-0.4375 2.31055,-0.4375c1.07096,0 1.94596,0.20736 2.625,0.62207c0.9069,0.56055 1.36035,1.45834 1.36035,2.69336c0,1.21224 -0.41243,2.15104 -1.23731,2.81641c-1.15299,0.92057 -3.1582,1.42871 -6.01562,1.52441l-0.54687,-1.41503c1.90951,-0.00467 3.36328,-0.1824 4.36133,-0.53321c1.20768,-0.41927 1.81152,-1.21907 1.81152,-2.39941c0,-0.7474 -0.2666,-1.30339 -0.79981,-1.66797c-0.42383,-0.29167 -0.97982,-0.4375 -1.66797,-0.4375c-0.97982,0 -2.03255,0.32129 -3.1582,0.96387c-0.68815,0.39193 -1.30338,0.86816 -1.8457,1.42871zM230.25487,262.78978h1.53809v1.88672h4.0332v1.31933h-4.0332v2.92579c0.15951,0.56055 0.23926,1.05957 0.23926,1.49707c0,1.62239 -0.35775,2.81412 -1.07325,3.57519c-0.77929,0.83399 -1.95279,1.41048 -3.5205,1.72949l-0.7793,-1.16211c1.2168,-0.23242 2.11914,-0.56054 2.70703,-0.98437c0.55143,-0.40104 0.92285,-0.94564 1.11426,-1.63379c-0.48763,0.5332 -1.06869,0.7998 -1.74317,0.7998c-0.75651,0 -1.36946,-0.21419 -1.83886,-0.64257c-0.55143,-0.50586 -0.82715,-1.23959 -0.82715,-2.20118c0,-0.50585 0.12077,-0.99348 0.3623,-1.46289c0.15951,-0.30078 0.35547,-0.55143 0.58789,-0.75195c0.53776,-0.45573 1.18262,-0.68359 1.93457,-0.68359c0.47852,0 0.91146,0.11393 1.29883,0.34179v-1.34668h-6.74707v-1.31933h6.74707zM230.30957,269.88548v-0.25293c0,-0.29167 -0.06836,-0.54915 -0.20508,-0.77246c-0.25521,-0.41927 -0.62435,-0.6289 -1.10742,-0.6289c-0.24609,0 -0.47624,0.06836 -0.69043,0.20507c-0.5013,0.31445 -0.75195,0.79753 -0.75195,1.44922c0,0.41016 0.09115,0.75651 0.27344,1.03906c0.25521,0.39193 0.63119,0.5879 1.12793,0.5879c0.45117,0 0.80892,-0.2028 1.07325,-0.6084c0.18685,-0.28711 0.28027,-0.62663 0.28027,-1.01856zM237.0498,264.11595h10.68458l1.01855,0.92285c-0.70638,1.52214 -1.54492,2.85743 -2.51563,4.00586c-0.75195,0.88411 -1.62011,1.71126 -2.60449,2.48145c0.77474,0.82943 1.40365,1.56087 1.88672,2.19433l-1.25781,1.10743c-1.59505,-2.11915 -3.60254,-4.17221 -6.02246,-6.15918l1.08008,-1.08008c1.01171,0.80664 2.1123,1.77734 3.30175,2.91211c1.23503,-0.95247 2.28093,-2.028 3.1377,-3.22657c0.41015,-0.57877 0.74967,-1.16438 1.01855,-1.75683h-9.72754zM259.42383,264.80638l1.23047,1.2168c-0.51497,2.5931 -1.43783,4.62565 -2.76856,6.09765c-1.25325,1.38542 -3.13997,2.45638 -5.66015,3.21289l-0.8545,-1.38085c2.20117,-0.55599 3.90788,-1.44467 5.12012,-2.66602c1.32617,-1.33529 2.19662,-3.02832 2.61133,-5.0791h-4.53906c-0.89323,1.33073 -1.98471,2.43131 -3.27442,3.30176l-1.10742,-1.13477c1.03906,-0.66537 1.889,-1.39225 2.54981,-2.18066c0.74739,-0.90235 1.3444,-1.9961 1.79101,-3.28125l1.46973,0.41015c-0.19141,0.53776 -0.40104,1.03223 -0.62891,1.4834zM259.86816,264.9431c-0.27343,-0.75651 -0.67903,-1.51758 -1.21679,-2.2832l1.14843,-0.25977c0.46485,0.59245 0.87956,1.34212 1.24415,2.24902zM261.92578,264.8611c-0.29167,-0.85677 -0.69271,-1.66797 -1.20312,-2.4336l1.12109,-0.23925c0.46485,0.63346 0.86589,1.40364 1.20312,2.31054zM265.01562,264.73805h9.40625v1.46973h-9.40625zM263.62793,272.5652h12.18164v1.4834h-12.18164zM282.38574,267.84157v-2.63184c-1.15755,0.14583 -2.45638,0.24837 -3.89648,0.30762l-0.44434,-1.31934c3.62305,-0.16862 6.44173,-0.58333 8.45606,-1.24414l0.8955,1.24414c-1.01627,0.31445 -2.17382,0.5765 -3.47265,0.78614v2.85742h5.22265v1.40136h-5.25c-0.0957,1.47201 -0.44889,2.65918 -1.05957,3.56153c-0.77474,1.14843 -1.87305,2.01888 -3.29492,2.61133l-0.99121,-1.27149c1.42643,-0.58333 2.43587,-1.35124 3.02832,-2.30371c0.42839,-0.68815 0.6836,-1.55404 0.76563,-2.59766h-5.44825v-1.40136zM291.74414,266.14625h6.87695c-0.10937,2.01888 -0.32584,4.30208 -0.64941,6.84961l-0.0615,0.47852h2.58398v1.29883h-10.04883v-1.29883h5.99512c0.35091,-2.45638 0.56055,-4.46615 0.62891,-6.0293h-5.3252zM302.18945,268.14918h12.03809v1.53809h-12.03809zM316.9209,262.89918h1.59277v4.06055c2.72071,0.8431 4.97429,1.70215 6.76074,2.57715l-0.76562,1.46973c-1.71354,-0.87045 -3.71191,-1.6976 -5.99512,-2.48145v6.80859h-1.59277zM322.91602,266.58375c-0.278,-0.72461 -0.74057,-1.56998 -1.3877,-2.53613l1.05957,-0.38965c0.56511,0.7793 1.03679,1.60873 1.41504,2.48828zM324.87109,266.13258c-0.34179,-0.88411 -0.79752,-1.73177 -1.36718,-2.54297l1.01855,-0.33496c0.51497,0.62435 0.97754,1.41732 1.3877,2.37891z"/></g></g></g></svg>