<svg version="1.1" xmlns="http://www.w3.org/2000/svg" xmlns:xlink="http://www.w3.org/1999/xlink" width="68.64725" height="70.90714" viewBox="0,0,68.64725,70.90714"><g transform="translate(-310.65214,-45.60184)"><g data-paper-data="{&quot;isPaintingLayer&quot;:true}" fill="#ff0000" fill-rule="evenodd" stroke="none" stroke-width="0" stroke-linecap="round" stroke-linejoin="round" stroke-miterlimit="10" stroke-dasharray="" stroke-dashoffset="0" style="mix-blend-mode: normal"><path d="M372.12967,108.5193l-0.39998,0.64997l-1.45994,0.42998l-2.19991,-0.45998l-0.72997,1.74993l-1.74993,1.33995l-1.99992,0.68997l-1.44994,1.50994l-0.86997,0.07l-1.12995,0.82997l-0.73997,1.17995l-0.97996,-0.33999l-0.80997,-1.65993l-0.78997,0.67997l-0.78997,-0.81997l-1.27995,0.17999l-0.49998,-0.80997l0.18999,-1.46994l-2.30991,-0.26999l-1.78993,0.37998l-0.40998,-0.81997l0.45998,-1.12995l-1.88992,-0.81997l-2.18991,-1.23995l-2.08992,0.34999l-0.85997,-0.13999l-1.15995,0.44998l-1.27995,2.03992h-0.62997l-1.89992,1.46994l-1.32995,-0.38998l-1.12995,1.00996l-1.54994,-0.31999l-0.80997,-0.76997l0.02,-1.18995l-1.10996,-1.48994l-1.96992,0.29999l-1.41994,-1.68993l-3.05988,-0.97996l-0.20999,1.10996l-1.75993,0.04l-0.14999,-1.78993l-0.75997,0.02l-0.80997,-1.71993l0.88996,-0.70997l-0.47998,-1.12995l-0.63997,-0.40998l-1.18995,0.56998l-0.35999,-0.63997l0.34999,-2.4499l-0.46998,-0.95996l-1.10996,-0.08l-0.56998,-0.88996l-2.6199,-0.74997l-0.28999,-1.05996l-0.76997,-0.36999l-0.68997,-2.29991l0.11,-1.54994l-2.12991,0.42998l-0.32999,0.77997l-0.79997,0.06l-0.28999,-1.28995l0.94996,-2.69989l0.32999,-2.66989l-0.90996,-0.59998l0.54998,-1.08996l-0.67997,-0.55998l-0.53998,-1.50994l0.18999,-0.99996l4.45982,-0.43998l0.84997,-1.52994l1.37994,-1.70993l1.29995,-0.31999l0.71997,-1.66993l0.77997,0.44998l0.71997,-1.14995l2.00992,-1.41994l-0.58998,-1.12995l-0.73997,-0.54998l-0.48998,-1.10996l1.05996,-3.67985l2.73989,-1.01996l0.47998,0.78997l0.88996,-0.11l0.75997,0.62997l2.74989,-0.43998l0.61998,-0.83997l2.3899,-0.73997l0.86997,-0.97996l0.94996,-0.33999l0.95996,-1.05996l-0.45998,-1.39994l1.16995,-1.15995l1.34995,-0.52998l2.5099,0.84997l0.59998,-1.81993l1.83993,-1.07996l0.77997,0.74997l0.91996,0.12l1.55994,-0.51998l0.18999,-0.82997l2.80989,-1.02996l0.16999,-0.79997l-0.33999,-2.95988l0.51998,-2.87988l1.01996,-1.13995l1.60994,-2.73989l2.08992,-0.65997l1.05996,0.32999l0.80997,2.85989l1.11996,-0.22999l1.28995,0.35999l0.96996,0.80997l0.64997,1.13995l1.93992,-0.34999l0.51998,0.61998l0.07,1.54994l0.52998,0.97996l1.43994,1.36995l0.08,2.35991l1.26995,1.14995l-0.14999,0.94996l2.19991,1.35995l1.61994,1.42994l0.99996,1.80993l-0.71997,1.56994l-1.00996,0.28999l-0.53998,2.03992l-0.56998,0.11l-0.31999,1.28995l0.62997,0.96996l1.81993,1.88992l0.78997,-0.29999l1.91992,0.26999l0.49998,0.62997l-0.57998,1.65993l0.64997,0.45998l0.33999,2.22991l2.79989,1.69993l0.47998,-0.34999l2.4299,3.01988l-0.70997,1.01996l0.50998,2.85989l-0.12,1.22995l-1.00996,-0.06l-2.5199,2.5699l2.21991,1.96992l0.04,0.91996l0.62997,1.39994l0.99996,0.14999l0.16999,1.42994l-1.52994,0.89996l-2.76989,-0.22999l-1.52994,-0.79997l0.24999,1.21995l2.04992,1.34995l-0.04,1.65993l0.45998,1.36995l-0.11,2.86989l-1.09996,0.07l-0.28999,0.82997l-2.74989,1.72993l-0.24999,1.81993l0.43998,0.65997"/></g></g></svg>