<svg version="1.1" xmlns="http://www.w3.org/2000/svg" xmlns:xlink="http://www.w3.org/1999/xlink" width="100" height="100" viewBox="0,0,100,100"><g transform="translate(-190,-130)"><g data-paper-data="{&quot;isPaintingLayer&quot;:true}" fill-rule="nonzero" stroke-linecap="butt" stroke-linejoin="miter" stroke-miterlimit="10" stroke-dasharray="" stroke-dashoffset="0" style="mix-blend-mode: normal"><path d="M190,230v-100h100v100z" fill="none" stroke="#959196" stroke-width="0"/><path d="M269.033,164.602v28.096c0,1.13933 -0.21647,1.99383 -0.64941,2.5635c-0.56966,0.7178 -1.78303,1.0767 -3.6401,1.0767c-2.3014,0 -4.56867,-0.10254 -6.8018,-0.30762l-0.76904,-3.7427c2.83693,0.27344 5.11557,0.41016 6.8359,0.41016c0.53548,0 0.86019,-0.11393 0.97412,-0.3418c0.06836,-0.14811 0.10254,-0.35889 0.10254,-0.63232v-7.1265h-15.039c-0.11393,1.83433 -0.42155,3.5661 -0.92285,5.1953c-0.77473,2.49513 -2.1989,4.83073 -4.2725,7.0068l-3.042,-2.9395c1.90267,-2.14193 3.16163,-4.3921 3.7769,-6.7505c0.37597,-1.49253 0.56396,-3.16163 0.56396,-5.0073v-17.5zM250.132,167.8491v4.9048h14.954v-4.9048zM250.132,176.0522v5.2466h14.954v-5.2466z" fill="#ff0000" stroke="none" stroke-width="1"/><g fill="#ff0000" stroke="none" stroke-width="1"><path d="M207.167,174.166l-2.2,-2.28l5.52,-6v4.64zM210.487,194.086v-28.2h3.64v28.2z"/><path d="M230.332,186.886v-13.8h3.64v13.8zM219.092,186.886v-13.8h3.64v13.8zM226.412,168.406v-3.12h0.24v3.12zM226.412,194.686v-3.16h0.24v3.16zM219.092,173.086c0,-1.52 0.32,-2.85333 0.96,-4c0.66667,-1.17333 1.54667,-2.09333 2.64,-2.76c1.12,-0.69333 2.38667,-1.04 3.8,-1.04v3.12c-1.17333,0 -2.09333,0.41333 -2.76,1.24c-0.66667,0.8 -1,1.94667 -1,3.44zM233.972,173.086h-3.64c0,-1.49333 -0.33333,-2.64 -1,-3.44c-0.64,-0.82667 -1.56,-1.24 -2.76,-1.24v-3.12c1.41333,0 2.66667,0.34667 3.76,1.04c1.12,0.66667 2,1.58667 2.64,2.76c0.66667,1.14667 1,2.48 1,4zM219.092,186.886h3.64c0,1.46667 0.33333,2.61333 1,3.44c0.66667,0.8 1.58667,1.2 2.76,1.2v3.16c-1.41333,0 -2.68,-0.33333 -3.8,-1c-1.09333,-0.69333 -1.97333,-1.62667 -2.64,-2.8c-0.64,-1.17333 -0.96,-2.50667 -0.96,-4zM233.972,186.886c0,1.49333 -0.33333,2.82667 -1,4c-0.64,1.17333 -1.52,2.10667 -2.64,2.8c-1.09333,0.66667 -2.34667,1 -3.76,1v-3.16c1.2,0 2.12,-0.4 2.76,-1.2c0.66667,-0.82667 1,-1.97333 1,-3.44z"/></g></g></g></svg>