<svg version="1.1" xmlns="http://www.w3.org/2000/svg" xmlns:xlink="http://www.w3.org/1999/xlink" width="208" height="32" viewBox="0,0,208,32"><g transform="translate(-240,-164)"><g data-paper-data="{&quot;isPaintingLayer&quot;:true}" fill-rule="nonzero" stroke="none" stroke-linecap="butt" stroke-linejoin="miter" stroke-miterlimit="10" stroke-dasharray="" stroke-dashoffset="0" style="mix-blend-mode: normal"><path d="M240,196v-32h208v32z" fill="none" stroke-width="0"/><path d="M245.51,179.09c0.07161,0.05207 0.17578,0.12694 0.3125,0.22461c0.78773,0.54687 1.6178,1.25651 2.4902,2.1289l-1.2012,1.6602c-0.42317,-0.52735 -0.93424,-1.08398 -1.5332,-1.6699l-0.0684,-0.0781v8.1445h-2.0215v-7.959c-0.56641,0.65104 -1.30861,1.38997 -2.2266,2.2168l-1.0352,-1.8945c2.29167,-1.9206 4.00067,-3.99417 5.127,-6.2207h-4.6094v-1.9629h2.7051v-3.1836h2.041v3.1836h1.6992l0.78125,1.0449c-0.59896,1.38673 -1.41926,2.81903 -2.4609,4.2969zM252.4045,173.4357v-2.9394h2.0606v2.9394h4.2383v11.084h-4.2383v4.9805h-2.0606v-4.9805h-3.9941v-11.084zM250.2951,175.2326v2.8223h2.1484v-2.8223zM250.2951,179.7736v2.9297h2.1484v-2.9297zM256.7795,182.7033v-2.9297h-2.3535v2.9297zM256.7795,178.0549v-2.8223h-2.3535v2.8223z" fill="#ffffff" stroke-width="1"/><path d="M273.45,174.61c1.46487,1.34767 3.56123,2.50327 6.2891,3.4668l-1.0547,1.8164c-1.37373,-0.56641 -2.54237,-1.13934 -3.5059,-1.7188v1.1621h-10.117v-1.0156c-0.8984,0.59245 -2.13213,1.26301 -3.7012,2.0117l-1.2402,-1.6602c2.1484,-0.86587 3.83787,-1.80337 5.0684,-2.8125c0.42317,-0.34505 0.85937,-0.76171 1.3086,-1.25h-5.4199v-1.8359h6.7578c0.37109,-0.63802 0.71289,-1.41275 1.0254,-2.3242l2.1582,0.30273c-0.28645,0.73567 -0.57942,1.4095 -0.8789,2.0215h8.7598v1.8359zM270.9109,174.61h-1.875c-0.78127,1.11327 -1.77737,2.1224 -2.9883,3.0274h8.2812c-1.33467,-0.918 -2.474,-1.92713 -3.418,-3.0274zM271.282,183.0377v4.8242c0,0.53385 -0.10091,0.92772 -0.30274,1.1816c-0.26041,0.33203 -0.84308,0.49805 -1.748,0.49805c-1.1198,0 -2.07683,-0.04232 -2.8711,-0.12696l-0.38086,-2.0117c0.80727,0.13021 1.64387,0.19532 2.5098,0.19532c0.28646,0 0.46224,-0.04557 0.52734,-0.13672c0.0586,-0.07813 0.0879,-0.23112 0.0879,-0.45899v-3.9648h-7.6758v-1.8359h17.178v1.8359zM260.462,187.276c1.49087,-0.93747 2.71157,-2.22327 3.6621,-3.8574l1.8555,0.9375c-1.00913,1.89453 -2.32097,3.3952 -3.9355,4.502zM277.737,188.4967c-1.25653,-1.58853 -2.55537,-2.95573 -3.8965,-4.1016l1.6992,-1.2012c1.4518,1.1068 2.74413,2.37633 3.877,3.8086z" fill="#ffffff" stroke-width="1"/><path d="M282.94,171.3h2.3438v6.6016c0,2.72787 -0.15299,4.81447 -0.45898,6.2598c-0.28646,1.33467 -0.77149,2.52933 -1.4551,3.584c-0.24089,0.37761 -0.57292,0.81707 -0.99609,1.3184l-1.8555,-1.582c1.17187,-1.24347 1.90103,-2.89387 2.1875,-4.9512c0.15625,-1.10027 0.23437,-2.5358 0.23437,-4.3066zM289.1412,171.60273h2.2754v15.898h-2.2754zM295.5572,170.82148h2.3047v18.457h-2.3047z" fill="#ffffff" stroke-width="1"/><path d="M316.76,170.98v9.4629h-11.621v-9.4629zM307.2385,172.523v1.2207h7.4023v-1.2207zM307.2385,175.1207v1.2207h7.4023v-1.2207zM307.2385,177.7183v1.2598h7.4023v-1.2598zM303.3029,181.7417h16.191v1.6992h-8.0762v6.0644h-2.2168v-6.0644h-8.0371v-10.957h2.1387zM300.8029,187.6401c1.54947,-0.71613 3.0306,-1.9173 4.4434,-3.6035l1.7969,1.0449c-1.3932,1.76433 -2.93943,3.15107 -4.6387,4.1602zM317.6389,188.8999c-0.99607,-1.22393 -2.49347,-2.50973 -4.4922,-3.8574l1.6797,-1.1816c1.569,0.90493 3.1087,2.09307 4.6191,3.5644z" fill="#ffffff" stroke-width="1"/><path d="M333.2,183.15c1.6146,1.4388 3.78907,2.6009 6.5234,3.4863l-1.2598,1.8359c-1.57553,-0.55989 -2.94923,-1.23696 -4.1211,-2.0312c-1.21093,-0.8268 -2.32747,-1.84243 -3.3496,-3.0469v6.1035h-2.1191v-5.9961c-0.90493,1.26953 -2.07357,2.40887 -3.5059,3.418c-1.10027,0.77473 -2.27867,1.39973 -3.5352,1.875l-1.3379,-1.7188c2.0638,-0.6836 3.7858,-1.60483 5.166,-2.7637c0.39063,-0.32553 0.78776,-0.71289 1.1914,-1.1621h-4.6973v-7.998h6.7188v-1.3184h-8.0957v-1.7578h8.0957v-1.582h2.1191v1.582h8.2227v1.7578h-8.2227v1.3184h6.8457v7.998zM328.8738,176.7926h-4.5996v1.582h4.5996zM330.9929,176.7926v1.582h4.7266v-1.582zM328.8738,179.8981h-4.5996v1.6113h4.5996zM330.9929,179.8981v1.6113h4.7266v-1.6113z" fill="#ffffff" stroke-width="1"/><path d="M346.98,172.75h4.1797v1.8848h-1.377c-0.2474,0.99607 -0.57943,2.041 -0.9961,3.1348h2.6074v1.8848h-10.898v-1.8848h2.3926c-0.26041,-1.25 -0.53385,-2.29493 -0.82031,-3.1348h-1.2695v-1.8848h4.1406v-2.2559h2.041zM344.0406,174.6348c0.33203,0.97007 0.58919,2.015 0.77148,3.1348h1.9922l0.09766,-0.27344c0.27995,-0.7422 0.54036,-1.5853 0.78125,-2.5293l0.0879,-0.33203zM350.0953,181.295v7.998h-2.002v-0.95703h-4.2578v1.1621h-2.0606v-8.2031zM343.8355,183.0919v3.3887h4.2578v-3.3887zM356.8825,178.1603c0.77473,0.73567 1.38997,1.61133 1.8457,2.627c0.44922,1.0156 0.67383,2.04423 0.67383,3.0859c0,0.96353 -0.17904,1.67317 -0.53711,2.1289c-0.37109,0.47526 -0.98306,0.71289 -1.8359,0.71289c-0.7292,0 -1.43557,-0.05208 -2.1191,-0.15625l-0.47852,-2.0801c0.78773,0.14323 1.43877,0.21485 1.9531,0.21485c0.39063,0 0.63477,-0.09115 0.73242,-0.27344c0.06513,-0.13021 0.0977,-0.39062 0.0977,-0.78125c0,-1.60807 -0.48177,-2.9948 -1.4453,-4.1602c-0.25391,-0.30599 -0.57292,-0.63476 -0.95703,-0.98633l0.11719,-0.27343c0.67707,-1.52993 1.2044,-3.125 1.582,-4.7852h-2.5v16.064h-2.0215v-18.086h5.8789l1.084,0.99609c-0.65755,2.2396 -1.34765,4.15693 -2.0703,5.752z" fill="#ffffff" stroke-width="1"/></g></g></svg>