<svg version="1.1" xmlns="http://www.w3.org/2000/svg" xmlns:xlink="http://www.w3.org/1999/xlink" width="224" height="217.9999" viewBox="0,0,224,217.9999"><g transform="translate(-128,-180)"><g data-paper-data="{&quot;isPaintingLayer&quot;:true}" stroke="none" stroke-miterlimit="10" stroke-dasharray="" stroke-dashoffset="0" style="mix-blend-mode: normal"><path d="M352,397.9999h-224v-217.9999h224z" fill="#1d2a41" fill-rule="evenodd" stroke-width="1" stroke-linecap="butt" stroke-linejoin="miter"/><path d="M342,354c0.55228,0 1,0.44772 1,1c0,0.55228 -0.44772,1 -1,1h-204c-0.55228,0 -1,-0.44772 -1,-1c0,-0.55228 0.44772,-1 1,-1z" fill="#31476d" fill-rule="nonzero" stroke-width="1" stroke-linecap="round" stroke-linejoin="round"/><g fill-rule="evenodd"><path d="M336,330c0.55228,0 1,0.44772 1,1c0,0.55228 -0.44772,1 -1,1h-192c-0.55228,0 -1,-0.44772 -1,-1c0,-0.55228 0.44772,-1 1,-1z" fill="#31476d" stroke-width="1" stroke-linecap="butt" stroke-linejoin="miter"/><g fill="#7d97b4"><path d="M145,331c0,0.55228 -0.44772,1 -1,1c-0.55228,0 -1,-0.44772 -1,-1c0,-0.55228 0.44772,-1 1,-1c0.55228,0 1,0.44772 1,1z" stroke-width="4" stroke-linecap="round" stroke-linejoin="round"/><path d="M335,331c0,-0.55228 0.44772,-1 1,-1c0.55228,0 1,0.44772 1,1c0,0.55228 -0.44772,1 -1,1c-0.55228,0 -1,-0.44772 -1,-1z" stroke-width="1" stroke-linecap="butt" stroke-linejoin="miter"/><g stroke-width="4" stroke-linecap="round" stroke-linejoin="round"><path d="M241,331c0,0.55228 -0.44772,1 -1,1c-0.55228,0 -1,-0.44772 -1,-1c0,-0.55228 0.44772,-1 1,-1c0.55228,0 1,0.44772 1,1z"/><path d="M273,331c0,0.55228 -0.44772,1 -1,1c-0.55228,0 -1,-0.44772 -1,-1c0,-0.55228 0.44772,-1 1,-1c0.55228,0 1,0.44772 1,1z"/><path d="M177,331c0,0.55228 -0.44772,1 -1,1c-0.55228,0 -1,-0.44772 -1,-1c0,-0.55228 0.44772,-1 1,-1c0.55228,0 1,0.44772 1,1z"/></g><path d="M303,331c0,-0.55228 0.44772,-1 1,-1c0.55228,0 1,0.44772 1,1c0,0.55228 -0.44772,1 -1,1c-0.55228,0 -1,-0.44772 -1,-1z" stroke-width="1" stroke-linecap="butt" stroke-linejoin="miter"/><path d="M209,331c0,0.55228 -0.44772,1 -1,1c-0.55228,0 -1,-0.44772 -1,-1c0,-0.55228 0.44772,-1 1,-1c0.55228,0 1,0.44772 1,1z" stroke-width="4" stroke-linecap="round" stroke-linejoin="round"/></g></g><path d="M167.10156,371.4961h1.82031v8.54688h-1.82031zM175.125,371.33204h1.82031v5.58594c0,1.96354 -0.15885,3.42448 -0.47656,4.38281c-0.26563,0.81771 -0.6276,1.46875 -1.08594,1.95313c-0.95312,1.02604 -2.48437,1.78385 -4.59375,2.27343l-0.89844,-1.60156c2.30729,-0.46875 3.78646,-1.24739 4.4375,-2.33594c0.41146,-0.69271 0.65885,-1.56771 0.74219,-2.625c0.03646,-0.48958 0.05469,-1.16666 0.05469,-2.03125zM179.71094,372.44142h12.24219l1.00781,0.85156c-0.29167,1.08854 -0.67187,1.99739 -1.14062,2.72656c-0.88021,1.38021 -2.19792,2.41146 -3.95312,3.09375l-0.98437,-1.34375c1.21354,-0.36458 2.22135,-1.01823 3.02344,-1.96094c0.47396,-0.55729 0.80469,-1.14583 0.99219,-1.76562h-11.1875zM184.71875,375.81642h1.78906v1.34375c0,2.01562 -0.22396,3.57291 -0.67187,4.67187c-0.56771,1.39583 -1.67187,2.53125 -3.3125,3.40625l-1.28906,-1.35937c1.13021,-0.53646 1.95573,-1.17709 2.47656,-1.92188c0.40104,-0.57813 0.66406,-1.19011 0.78906,-1.83594c0.14583,-0.73958 0.21875,-1.73177 0.21875,-2.97656zM197.53125,372.0586h1.75781v2.84375c0,2.72396 -0.20312,4.71354 -0.60937,5.96875c-0.53646,1.66146 -1.66146,3.04688 -3.375,4.15625l-1.19531,-1.39062c1.1875,-0.83333 2.02344,-1.69792 2.50781,-2.59375c0.40625,-0.75521 0.67448,-1.76823 0.80469,-3.03906c0.07292,-0.71875 0.10938,-1.74219 0.10938,-3.07032zM201.53125,371.60548h1.75781v11.10156c1.03646,-0.53646 1.94531,-1.29948 2.72656,-2.28906c0.85417,-1.08333 1.49219,-2.36719 1.91406,-3.85156l1.375,1.32812c-0.52083,1.54687 -1.23437,2.86719 -2.14062,3.96094c-1.14062,1.38021 -2.63542,2.46614 -4.48437,3.25781l-1.14844,-0.99219zM222.01563,372.9336l1.11719,0.91407c-0.72917,3.33333 -1.91146,5.91406 -3.54687,7.74218c-0.90625,1.01042 -2.07812,1.89584 -3.51562,2.65625c-1.02083,0.53646 -2.11719,0.96354 -3.28906,1.28125l-0.90625,-1.53906c2.67708,-0.69791 4.75521,-1.8125 6.23438,-3.34375c-1.21875,-1.09375 -2.5625,-2.0625 -4.03125,-2.90625l1.02344,-1.26562c1.43229,0.74479 2.79427,1.66145 4.08594,2.75c1.01562,-1.625 1.65365,-3.19792 1.91406,-4.71875h-5.5c-1.26042,1.96354 -2.74479,3.46614 -4.45312,4.50781l-1.14844,-1.24219c1.65104,-0.99479 3.00781,-2.3099 4.07031,-3.94531c0.54688,-0.83333 0.97135,-1.73177 1.27344,-2.69531l1.69531,0.41406c-0.17187,0.46875 -0.36458,0.93229 -0.57812,1.39062zM230.63281,385.34767v-8.01563c-1.58333,1.0625 -3.39062,1.95833 -5.42187,2.6875l-0.94531,-1.58594c2.30729,-0.77604 4.33073,-1.77604 6.07031,-3c1.70833,-1.20312 3.22917,-2.58072 4.5625,-4.13281l1.50781,0.94531c-1.18229,1.35938 -2.5,2.60678 -3.95312,3.74219v9.35938zM237.42188,382.66017c0.35937,-0.00533 0.85416,-0.03137 1.48437,-0.0781c1.48437,-3.33333 2.85156,-7.0026 4.10156,-11.00781l1.78907,0.46875c-1.22917,3.84375 -2.54167,7.3151 -3.9375,10.41406c2.64583,-0.19271 4.99219,-0.42708 7.03906,-0.70312c-0.77083,-1.35938 -1.55469,-2.61459 -2.35156,-3.76563l1.53906,-0.97656c1.64063,2.26041 3.08073,4.65625 4.32031,7.1875l-1.75781,0.91406c-0.28646,-0.60417 -0.60156,-1.23437 -0.94531,-1.89062c-3.04167,0.51041 -6.67448,0.96354 -10.89844,1.35937zM264.09375,372.9336l1.11719,0.91407c-0.72917,3.33333 -1.91146,5.91406 -3.54688,7.74218c-0.90625,1.01042 -2.07812,1.89584 -3.51562,2.65625c-1.02083,0.53646 -2.11719,0.96354 -3.28906,1.28125l-0.90625,-1.53906c2.67708,-0.69791 4.7552,-1.8125 6.23437,-3.34375c-1.21875,-1.09375 -2.5625,-2.0625 -4.03125,-2.90625l1.02344,-1.26562c1.43229,0.74479 2.79426,1.66145 4.08593,2.75c1.01563,-1.625 1.65365,-3.19792 1.91407,-4.71875h-5.5c-1.26042,1.96354 -2.7448,3.46614 -4.45313,4.50781l-1.14843,-1.24219c1.65104,-0.99479 3.00781,-2.3099 4.07031,-3.94531c0.54687,-0.83333 0.97135,-1.73177 1.27343,-2.69531l1.69532,0.41406c-0.17188,0.46875 -0.36459,0.93229 -0.57813,1.39062zM267.07031,373.28517h10.33594l1.67969,1.46875c-0.20313,2.11458 -0.55729,3.77083 -1.0625,4.96875c-0.73959,1.76041 -1.96615,3.12239 -3.67969,4.08593c-1.13542,0.64583 -2.69532,1.20313 -4.67969,1.67188l-0.89844,-1.58594c1.73959,-0.31771 3.11719,-0.72916 4.13282,-1.23437c1.65625,-0.81771 2.82812,-2.06251 3.51562,-3.73438c0.42709,-1.04167 0.67188,-2.3776 0.73438,-4.00781h-10.07813zM278.28906,373.69142c-0.32291,-0.98959 -0.73437,-1.89844 -1.23437,-2.72657l1.25,-0.28906c0.4375,0.60937 0.85156,1.47917 1.24218,2.60938zM280.52344,373.3711c-0.29167,-0.90104 -0.71615,-1.77083 -1.27344,-2.60937l1.17969,-0.28906c0.53645,0.69791 0.97916,1.52343 1.32812,2.47656z" fill="#ffffff" fill-rule="nonzero" stroke-width="1" stroke-linecap="butt" stroke-linejoin="miter"/><path d="M150.02111,368.9c0.45457,0.009 0.85661,0.29721 1.0117,0.72461l3.2578,8.957l0.79297,-1.1914c0.20408,-0.30639 0.54789,-0.49038 0.91602,-0.49023h3v2.1992h-2.4121l-1.6719,2.5098c-0.23012,0.34513 -0.6348,0.53149 -1.04665,0.48197c-0.41184,-0.0495 -0.76082,-0.3265 -0.90256,-0.71634l-2.9219,-8.0352l-4.002,12.008c-0.14436,0.43328 -0.54142,0.73231 -0.99772,0.7514c-0.4563,0.0191 -0.87694,-0.24574 -1.05698,-0.66545l-2.7129,-6.334h-2.2754v-2.1992h3c0.4401,-0.00035 0.83804,0.26164 1.0117,0.66602l1.8594,4.3398l4.0859,-12.254c0.1522,-0.45648 0.5834,-0.76108 1.0645,-0.75195z" fill="#ffffff" fill-rule="nonzero" stroke-width="1" stroke-linecap="butt" stroke-linejoin="miter"/><path d="M149.20117,300.0386c-0.1276,2.85287 -0.45345,5.04493 -0.97754,6.57618c-0.55143,1.62239 -1.62012,3.02376 -3.20606,4.2041l-1.18945,-1.10742c1.3125,-0.86133 2.23763,-1.89356 2.77539,-3.09668c0.62891,-1.39453 0.99805,-3.58659 1.10742,-6.57618h-2.57715v-1.41503h7.65625c-0.04557,5.53711 -0.18913,9.0485 -0.43066,10.53417c-0.08203,0.50586 -0.23926,0.88184 -0.47168,1.12793c-0.27344,0.29167 -0.74056,0.4375 -1.40137,0.4375c-0.79297,0 -1.49935,-0.04329 -2.11914,-0.12988l-0.30762,-1.49707c0.9707,0.14128 1.65202,0.21192 2.04395,0.21192c0.3418,0 0.55827,-0.13216 0.64941,-0.39649c0.11393,-0.32357 0.21647,-1.15071 0.30762,-2.48144c0.10482,-1.47201 0.1709,-3.38607 0.19824,-5.74219l0.0068,-0.64942zM142.95312,302.47903v3.54102c0,0.19141 0.05469,0.31445 0.16406,0.36914c0.06836,0.03187 0.26204,0.0478 0.58105,0.0478c0.35547,0 0.58789,-0.0205 0.69727,-0.0615c0.12305,-0.05013 0.2028,-0.1823 0.23926,-0.39649c0.04101,-0.23697 0.08203,-0.75195 0.12305,-1.54492l1.3877,0.38965c-0.05469,1.31706 -0.21647,2.14649 -0.48535,2.48828c-0.28255,0.36003 -0.9502,0.54004 -2.00293,0.54004c-0.81576,0 -1.3763,-0.0752 -1.68164,-0.22559c-0.32813,-0.1595 -0.49219,-0.48079 -0.49219,-0.96386v-3.94434l-1.53808,0.2461l-0.1709,-1.36036l1.70898,-0.2666v-3.66406h1.46973v3.43848l3.0625,-0.48536l0.11621,1.34668zM159.29785,303.94192c-0.45573,0.85221 -0.92285,1.49251 -1.40137,1.9209c-0.41016,0.36914 -0.78613,0.55371 -1.12793,0.55371c-0.4375,0 -0.79069,-0.29622 -1.05957,-0.88867c-0.27799,-0.61979 -0.41699,-1.5905 -0.41699,-2.91211c0,-1.33073 0.15495,-2.77311 0.46484,-4.32715l1.49707,0.22559c-0.30078,1.54037 -0.45117,2.84375 -0.45117,3.91016c0,1.43555 0.10254,2.15332 0.30762,2.15332c0.07747,0 0.20963,-0.10938 0.39648,-0.32813c0.29167,-0.32813 0.59928,-0.8112 0.92285,-1.44922zM158.25879,309.29446c1.39909,-0.39193 2.4541,-0.97754 3.16504,-1.75683c0.87044,-0.95247 1.30566,-2.39258 1.30566,-4.32031c0,-1.46289 -0.14128,-3.1058 -0.42383,-4.92872l1.56543,-0.15039c0.30078,1.84115 0.45117,3.55697 0.45117,5.14746c0,2.57943 -0.66309,4.43653 -1.98926,5.57129c-0.80664,0.69271 -1.89355,1.26693 -3.26074,1.72266zM173.67383,304.59134l-0.74512,-0.85449c1.19401,-0.36003 1.98014,-0.95703 2.3584,-1.79102h-1.83887v-1.16211h2.03027v-0.88183h-1.85254v-1.14844h1.85254v-1.08008h1.4082v1.08008h2.48145v1.14844h-2.48145v0.88183h2.87109v1.16211h-2.29687c0.59245,0.74739 1.47428,1.35807 2.64551,1.83203l-0.81348,1.13477c-1.28971,-0.66537 -2.24447,-1.48112 -2.86426,-2.44727c-0.41927,0.97526 -1.20312,1.68392 -2.35156,2.12598h4.38184v6.38476h-1.55859v-0.74511h-7.28711v0.74511h-1.52441v-6.06347c-0.16862,0.08659 -0.41243,0.19824 -0.73144,0.33496l-0.89551,-1.14844c1.35807,-0.38281 2.29232,-1.10059 2.80273,-2.15332h-2.49512v-1.16211h2.74121v-0.88183h-2.35156v-1.14844h2.35156v-1.08008h1.40137v1.08008h1.9209v1.14844h-1.9209v0.88183h2.07129v1.16211h-2.33105c-0.00911,0.03187 -0.01823,0.0615 -0.02734,0.0889c0.78385,0.30534 1.60189,0.73828 2.4541,1.29883l-1.01855,0.97754c-0.55143,-0.45117 -1.17578,-0.87728 -1.87305,-1.27833c-0.36458,0.60157 -0.88184,1.1211 -1.55176,1.5586zM169.61328,305.73978v1.07324h7.28711v-1.07324zM169.61328,307.87942v1.16211h7.28711v-1.16211zM182.13672,301.38528h7.71777l0.61523,1.01172l-0.28027,0.20508c-1.77734,1.33985 -3.03744,2.3265 -3.78027,2.95996c0.51953,-0.25065 0.95703,-0.37597 1.3125,-0.37597c0.46029,0 0.78841,0.1595 0.98438,0.47851c0.11393,0.17773 0.1709,0.39193 0.1709,0.64258c0,0.07747 -0.00684,0.18913 -0.02051,0.33496c-0.07292,0.70182 -0.10937,1.22135 -0.10937,1.55859c0,0.33724 0.12988,0.53776 0.38965,0.60157c0.20508,0.05013 0.58561,0.0752 1.1416,0.0752c0.72461,0 1.51074,-0.05013 2.3584,-0.15039l0.12305,1.45606c-0.85677,0.07291 -1.74316,0.10937 -2.65918,0.10937c-0.98438,0 -1.64746,-0.06608 -1.98926,-0.19824c-0.57422,-0.21876 -0.86133,-0.70184 -0.86133,-1.44923c0,-0.72005 0.0319,-1.31478 0.0957,-1.78418c0.00453,-0.03647 0.0068,-0.0752 0.0068,-0.11621c0,-0.31901 -0.16178,-0.47852 -0.48535,-0.47852c-0.875,0 -2.61133,1.39225 -5.20898,4.17676l-1.07324,-1.17578c2.62956,-2.51107 5.10189,-4.68034 7.41699,-6.50781h-5.86523zM189.36231,300.62649c-1.75911,-0.53776 -3.73698,-1.00488 -5.93359,-1.40136l0.44434,-1.27149c2.17383,0.33269 4.16309,0.78158 5.96777,1.34668zM200.12891,301.26224v2.24218c0,1.73633 -0.12988,3.22657 -0.38965,4.47071c-0.21419,1.01172 -0.56055,2.02116 -1.03906,3.02832l-1.10742,-1.01856c0.5013,-1.13021 0.82487,-2.34017 0.9707,-3.62988c0.10026,-0.83854 0.15039,-1.78874 0.15039,-2.85059v-3.60253h3.36328v-2.13282h1.46973v2.13282h3.4043v1.36035zM195.62403,300.19583v-2.52246h1.45605v2.52246h1.29883v1.36035h-1.29883v2.17383c0.45117,-0.15495 0.85449,-0.29622 1.20996,-0.42383l0.12988,1.29883c-0.60156,0.25065 -1.04818,0.42839 -1.33984,0.5332v4.57325c0,0.44661 -0.10254,0.76107 -0.30762,0.94336c-0.19141,0.17317 -0.52637,0.25976 -1.00488,0.25976c-0.48307,0 -0.96615,-0.03646 -1.44922,-0.10937l-0.28027,-1.46973c0.60612,0.08659 1.014,0.12988 1.22363,0.12988c0.15495,0 0.25521,-0.02733 0.30078,-0.082c0.04101,-0.05013 0.06152,-0.14584 0.06152,-0.28711v-3.44531c-0.4375,0.14127 -0.96615,0.29622 -1.58594,0.46484l-0.41699,-1.39453c0.7474,-0.18685 1.38314,-0.35547 1.90723,-0.50586l0.0957,-0.0273v-2.63184h-1.80469v-1.36035zM200.4502,309.08255l0.08887,-0.27344c0.65625,-2.03255 1.21908,-4.32943 1.68848,-6.89062l1.49707,0.25976c-0.50586,2.47461 -1.11882,4.71224 -1.83887,6.71289c0.91602,-0.1276 1.90267,-0.29166 2.95996,-0.49218l0.1709,-0.0342c-0.38281,-1.04362 -0.78385,-2.04167 -1.20312,-2.99414l1.20313,-0.54688c0.82943,1.64518 1.55176,3.41569 2.16699,5.31152l-1.33984,0.69727c-0.15039,-0.4694 -0.2985,-0.92513 -0.44434,-1.36719c-1.45833,0.42383 -3.2653,0.80892 -5.4209,1.15528l-0.42383,-1.44239c0.27344,-0.02733 0.57194,-0.05923 0.89551,-0.0957zM215.37305,302.58841c0.31445,1.06641 0.91146,2.20117 1.79102,3.4043c1.07096,1.46745 2.38802,2.62955 3.95117,3.48632l-0.97754,1.40821c-1.6543,-0.97526 -3.03516,-2.26725 -4.14258,-3.87598c-0.59701,-0.875 -1.07552,-1.76595 -1.43555,-2.67285c-0.36003,1.22135 -0.91829,2.33105 -1.6748,3.3291c-1.11198,1.47656 -2.486,2.56575 -4.12207,3.26758l-0.96387,-1.25098c1.71354,-0.71549 3.09668,-1.81836 4.14941,-3.30859c0.88411,-1.25781 1.4082,-2.52018 1.57227,-3.78711h-5.45508v-1.4834h5.5166v-3.29492h1.5791v3.29492h5.63281v1.4834zM228.12891,302.95755c0.62891,-0.64713 1.2054,-1.31706 1.72949,-2.00977l1.08008,0.81348c-0.96615,1.10287 -2.0599,2.16927 -3.28125,3.19922c0.92969,-0.03647 1.73405,-0.0752 2.41308,-0.11621c-0.1276,-0.25521 -0.32356,-0.57422 -0.58789,-0.95703l1.08008,-0.44434c0.51953,0.76563 0.99577,1.59961 1.42871,2.50195l-1.23047,0.54688c-0.0456,-0.09571 -0.10712,-0.23015 -0.18457,-0.40332c-0.01367,-0.03187 -0.05468,-0.12301 -0.12304,-0.27344c-0.3737,0.05013 -0.81348,0.10026 -1.31934,0.15039v1.07324h5.93359v1.24414h-5.93359v2.69336h-1.52442v-2.69336h-5.83789v-1.24414h5.83789v-0.95019c-0.67448,0.041 -1.37858,0.07746 -2.11231,0.10937l-0.32129,-1.17578l0.60156,-0.007c0.05469,0 0.10937,-0.00233 0.16406,-0.007c0.47852,-0.39649 0.94336,-0.81348 1.39453,-1.25098c-0.7793,-0.78841 -1.43099,-1.35579 -1.95508,-1.70214l0.82715,-0.9502c0.19141,0.15495 0.34408,0.28483 0.45801,0.38965c0.40104,-0.47396 0.75879,-0.96387 1.07324,-1.46973h-5.5166v-1.20312h5.38672v-1.14844h1.52442v1.14844h5.48926v1.20312h-5.36621c-0.48307,0.78841 -1.0778,1.53125 -1.78418,2.22852c0.24609,0.24609 0.46485,0.48079 0.65625,0.7041zM224.2666,303.01905c-0.66536,-0.71093 -1.31022,-1.28515 -1.93457,-1.72265l0.9502,-0.96387c0.61979,0.38737 1.28288,0.95247 1.98926,1.69531zM231.08203,302.06886c0.68815,-0.46485 1.39226,-1.08008 2.11231,-1.84571l1.09375,0.88184c-0.64714,0.63347 -1.41277,1.25782 -2.29688,1.87305zM233.92578,306.18409c-0.81575,-0.71093 -1.69303,-1.37858 -2.63183,-2.00293l0.82031,-0.88183c1.07096,0.61979 1.99153,1.2373 2.76172,1.85254zM222.02441,305.24757c1.05729,-0.51497 2.07357,-1.1735 3.04883,-1.97559l0.61523,1.09375c-1.02539,0.86133 -2.00521,1.5791 -2.93945,2.15332z" fill="#ffffff" fill-rule="nonzero" stroke-width="1" stroke-linecap="butt" stroke-linejoin="miter"/><path d="M146.82916,234.2104v5.41406c0,0.35091 0.15039,0.56283 0.45117,0.63574c0.3099,0.07747 1.01856,0.11621 2.12598,0.11621c1.08008,0 1.79329,-0.05469 2.13965,-0.16406c0.19596,-0.0638 0.32357,-0.24153 0.38281,-0.5332c0.07747,-0.41016 0.11849,-0.89551 0.12305,-1.45606l1.42871,0.40332c-0.07292,1.34441 -0.25749,2.20346 -0.55371,2.57715c-0.19596,0.24609 -0.49219,0.39193 -0.88867,0.4375c-0.62435,0.06836 -1.68392,0.10254 -3.17871,0.10254c-1.15755,0 -1.91634,-0.0319 -2.27637,-0.0957c-0.54232,-0.09115 -0.88639,-0.3304 -1.03223,-0.71777c-0.07292,-0.20508 -0.10937,-0.47852 -0.10937,-0.82032v-5.4209l-1.30566,0.45118l-0.32129,-1.32618l1.62695,-0.56054v-3.68457h1.3877v3.20605l1.46973,-0.49902v-3.60254h1.37402v3.12402l2.29004,-0.78613l0.71777,0.4375v5.12012c0,0.35547 -0.08431,0.61979 -0.25293,0.79297c-0.19141,0.19141 -0.5127,0.28711 -0.96387,0.28711c-0.36914,0 -0.76107,-0.0319 -1.17578,-0.0957l-0.22559,-1.30566c0.26888,0.06836 0.54232,0.10254 0.82031,0.10254c0.20052,0 0.32357,-0.04102 0.36914,-0.12305c0.04557,-0.06836 0.06836,-0.18229 0.06836,-0.3418v-3.23339l-1.64746,0.57421v5.53028h-1.37402v-5.0586zM141.80475,231.97505v-3.30176h1.46973v3.30176h1.32617v1.38769h-1.32617v4.34766c0.47852,-0.16406 0.95247,-0.33496 1.42188,-0.5127l0.12988,1.31934c-1.47656,0.67448 -2.99186,1.23958 -4.5459,1.69531l-0.47851,-1.45605c0.70182,-0.18229 1.31706,-0.35547 1.8457,-0.51953c0.0638,-0.0228 0.11621,-0.03877 0.15723,-0.0479v-4.82617h-1.73633v-1.38769zM161.04791,237.73091c-0.97526,0.82487 -2.18522,1.50162 -3.62988,2.03027l-0.86816,-1.05273c1.17578,-0.38281 2.22624,-0.93197 3.15137,-1.64746l-0.23926,-0.11622c-0.88411,-0.42383 -1.85026,-0.85221 -2.89844,-1.28515l0.62891,-1.03906c1.17578,0.42838 2.27637,0.87727 3.30176,1.34668l0.2666,0.12304c1.15299,-1.21224 2.02116,-2.79362 2.60449,-4.74414l1.36035,0.42383c-0.66536,1.98698 -1.55176,3.639 -2.65918,4.95605c0.04557,0.0228 0.08887,0.0456 0.12988,0.0684c0.64258,0.31901 1.48568,0.78614 2.5293,1.40137l-0.82715,1.14844c-0.875,-0.53321 -1.8252,-1.07097 -2.85059,-1.61328zM158.00591,234.76411c-0.32812,-1.08463 -0.70182,-2.00065 -1.12109,-2.74805l1.28516,-0.51269c0.44206,0.78385 0.82943,1.69303 1.16211,2.72754zM160.41216,234.21724c-0.33724,-1.05274 -0.71549,-1.97104 -1.13476,-2.75489l1.23047,-0.49219c0.52409,0.91146 0.91146,1.81153 1.16211,2.7002zM166.72857,229.31587v12.66015h-1.52441v-0.71777h-9.07812v0.71777h-1.51074v-12.66015zM156.12603,230.58735v9.35156h9.07813v-9.35156zM169.23052,241.38813c-0.17318,-1.54948 -0.25977,-3.08984 -0.25977,-4.62109c0,-2.625 0.19368,-5.11784 0.58105,-7.47852l1.50391,0.15723c-0.36914,2.04167 -0.55371,4.34538 -0.55371,6.91113c0,1.72266 0.0957,3.33366 0.28711,4.83301zM173.33208,230.56001h6.56934v1.45605h-6.56934zM180.36626,240.54731c-0.91146,0.14128 -1.99382,0.21192 -3.24707,0.21192c-3.14909,0 -4.72363,-0.92513 -4.72363,-2.77539c0,-0.73373 0.19596,-1.37403 0.58789,-1.9209l1.29199,0.57422c-0.24609,0.34635 -0.36914,0.736 -0.36914,1.16894c0,0.53321 0.2666,0.90007 0.7998,1.10059c0.59245,0.22787 1.40137,0.3418 2.42676,0.3418c1.10742,0 2.13281,-0.07292 3.07617,-0.21875zM190.53814,239.10493l0.0957,1.22363c-1.97786,0.69727 -4.17676,1.27149 -6.59668,1.72266l-0.50586,-1.36719c0.41927,-0.0638 1.01172,-0.16634 1.77734,-0.30762v-2.50195c-0.78841,0.40104 -1.72721,0.78157 -2.81641,1.1416l-0.7793,-1.21679c2.19206,-0.59245 3.86458,-1.34896 5.01758,-2.26953h-4.88086v-1.18946h5.8584v-1.03222h-4.42969v-1.14844h4.42969v-0.96387h-5.12695v-1.17578h5.12695v-1.34668h1.49707v1.34668h5.27734v1.17578h-5.27734v0.96387h4.58008v1.14844h-4.58008v1.03222h6.00879v1.18946h-1.63379l1.01172,0.69726c-0.62435,0.60612 -1.49935,1.26921 -2.625,1.98926l-0.15723,0.10254c0.85677,0.78385 2.01888,1.43099 3.48633,1.9414l-0.92285,1.3877c-1.59049,-0.67448 -2.86882,-1.52214 -3.83496,-2.54297zM188.46685,235.55024c-0.45573,0.53321 -1.00488,1.01172 -1.64746,1.43555v3.06934c1.12565,-0.25065 2.25586,-0.54232 3.39063,-0.875l0.31445,-0.0889c-0.93424,-1.03451 -1.62012,-2.21485 -2.05762,-3.54102zM190.96197,237.41645c0.8112,-0.57877 1.52214,-1.20768 2.13281,-1.88671h-3.2334c0.29167,0.69726 0.65853,1.32616 1.10059,1.88671zM203.36236,234.49751v6.06348c0,0.55143 -0.11165,0.9274 -0.33496,1.12792c-0.20964,0.18229 -0.61523,0.27344 -1.2168,0.27344c-0.68359,0 -1.33301,-0.04329 -1.94824,-0.12988l-0.29395,-1.44238c0.63802,0.10481 1.2487,0.15722 1.83203,0.15722c0.19596,0 0.31901,-0.03418 0.36914,-0.10254c0.03646,-0.05927 0.05469,-0.15725 0.05469,-0.29394v-5.65332h-5.87891v-1.36035h13.17285v1.36035zM197.58599,229.43208h9.88476v1.34668h-9.88476zM195.86334,239.91841c0.98438,-1.02995 1.77734,-2.39941 2.37891,-4.1084l1.41504,0.5332c-0.69727,1.95508 -1.57454,3.49089 -2.63184,4.60742zM207.59381,240.75239c-0.94336,-1.99609 -1.76367,-3.4567 -2.46094,-4.38183l1.28516,-0.76563c1.0026,1.28971 1.8571,2.69336 2.56348,4.21094zM216.97271,228.95356h1.53809v1.88672h4.0332v1.31934h-4.0332v2.92578c0.15951,0.56055 0.23926,1.05957 0.23926,1.49707c0,1.62239 -0.35775,2.81412 -1.07324,3.57519c-0.7793,0.83399 -1.9528,1.41049 -3.52051,1.7295l-0.7793,-1.16211c1.2168,-0.23243 2.11914,-0.56055 2.70703,-0.98438c0.55143,-0.40104 0.92285,-0.94564 1.11426,-1.63379c-0.48763,0.53321 -1.06868,0.79981 -1.74316,0.79981c-0.75651,0 -1.36947,-0.21419 -1.83887,-0.64258c-0.55143,-0.50586 -0.82715,-1.23958 -0.82715,-2.20117c0,-0.50586 0.12077,-0.99349 0.3623,-1.46289c0.15951,-0.30078 0.35547,-0.55143 0.58789,-0.75196c0.53776,-0.45573 1.18262,-0.68359 1.93457,-0.68359c0.47852,0 0.91146,0.11393 1.29883,0.3418v-1.34668h-6.74707v-1.31934h6.74707zM217.0274,236.04927v-0.25293c0,-0.29167 -0.06836,-0.54915 -0.20508,-0.77246c-0.25521,-0.41927 -0.62435,-0.62891 -1.10742,-0.62891c-0.24609,0 -0.47624,0.06836 -0.69043,0.20508c-0.5013,0.31445 -0.75195,0.79753 -0.75195,1.44922c0,0.41015 0.09115,0.75651 0.27344,1.03906c0.25521,0.39193 0.63119,0.58789 1.12793,0.58789c0.45117,0 0.80892,-0.2028 1.07324,-0.6084c0.18685,-0.28711 0.28027,-0.62662 0.28027,-1.01855zM225.42193,229.43208h7.66992l0.73144,1.13476c-2.36979,1.44922 -4.42285,2.76628 -6.15918,3.95118c1.12109,-0.46941 2.24674,-0.70411 3.37696,-0.70411c1.01627,0 1.86393,0.16179 2.54297,0.48536c0.6289,0.30078 1.11881,0.71094 1.46972,1.23047c0.36459,0.55143 0.54688,1.18489 0.54688,1.90039c0,1.0026 -0.3418,1.84114 -1.02539,2.51562c-0.46941,0.4694 -1.07097,0.82487 -1.80469,1.06641c-0.96159,0.31445 -2.01432,0.47168 -3.1582,0.47168c-1.31706,0 -2.28776,-0.24382 -2.91211,-0.73145c-0.48763,-0.38281 -0.73144,-0.90007 -0.73144,-1.55176c0,-0.49219 0.17773,-0.92969 0.5332,-1.3125c0.53776,-0.57877 1.26465,-0.86816 2.18067,-0.86816c0.9707,0 1.74772,0.32585 2.33105,0.97754c0.42383,0.47396 0.72917,1.1097 0.91602,1.90723c1.40365,-0.44662 2.10547,-1.27149 2.10547,-2.47461c0,-0.91146 -0.38053,-1.58366 -1.1416,-2.01661c-0.51042,-0.29167 -1.15756,-0.4375 -1.94141,-0.4375c-1.17123,0 -2.22852,0.16179 -3.17188,0.48536c-0.69727,0.23697 -1.63379,0.80891 -2.80957,1.71582l-0.96387,-1.16211c1.26693,-1.09375 2.70931,-2.20345 4.32715,-3.3291c1.11653,-0.77474 2.10091,-1.41048 2.95312,-1.90723h-5.86523zM230.60358,240.17134c-0.32357,-1.28971 -0.95931,-1.93457 -1.90723,-1.93457c-0.52409,0 -0.90234,0.16634 -1.13477,0.49902c-0.10937,0.15039 -0.16406,0.31218 -0.16406,0.48535c0,0.36003 0.25521,0.63119 0.76563,0.81348c0.36914,0.1276 0.86361,0.1914 1.4834,0.1914c0.26432,0 0.58333,-0.01823 0.95703,-0.0547zM240.26276,231.27778v10.69824h-1.42871v-13.30273h1.42871v2.07129l0.65625,-0.54688c0.39648,0.68815 0.71093,1.35124 0.94336,1.98926l-0.92969,0.92285c-0.24154,-0.77018 -0.46485,-1.38086 -0.66992,-1.83203zM246.55865,229.58247h3.54102v1.02539h-3.54102v0.65625h3.05567v0.97754h-3.05567v0.67676h3.99219v1.09375h-9.21484v-1.09375h3.80762v-0.67676h-2.9668v-0.97754h2.9668v-0.65625h-3.37012v-1.02539h3.37012v-0.90918h1.41503zM249.4024,234.73677v6.00195c0,0.41927 -0.10026,0.72461 -0.30078,0.91602c-0.19596,0.18685 -0.53092,0.28027 -1.00488,0.28027c-0.56055,0 -1.13704,-0.03874 -1.72949,-0.11621l-0.19824,-1.23047c0.60612,0.07291 1.08691,0.10937 1.44238,0.10937c0.18229,0 0.29167,-0.04557 0.32812,-0.13671c0.0228,-0.05467 0.0342,-0.13898 0.0342,-0.25293v-0.88184h-4.19726v2.5498h-1.42871v-7.23925zM243.77643,235.74165v0.7998h4.19726v-0.7998zM243.77643,237.54634v0.84082h4.19726v-0.84082zM236.89948,235.81001c0.20507,-0.94792 0.35318,-2.17383 0.44433,-3.67774l0.0342,-0.56054l1.16211,0.10937c-0.05467,1.95052 -0.21417,3.53418 -0.47852,4.75098zM253.9278,230.102v-1.42871h1.42871v1.42871h2.12597v1.20313h-2.12597v1.17578h2.41992v1.21679h-0.81348c-0.14583,0.54232 -0.3418,1.11654 -0.58789,1.72266h1.31934v1.18945h-2.33789v1.26465h2.24902v1.2168h-2.24902v2.88476h-1.42871v-2.88476h-2.41309v-1.2168h2.41309v-1.26465h-2.52247v-1.18945h1.25782c-0.14583,-0.60612 -0.32357,-1.18034 -0.53321,-1.72266h-1.00488v-1.21679h2.80274v-1.17578h-2.22852v-1.20313zM255.62994,233.6977h-2.17382c0.15495,0.43295 0.32129,1.00717 0.49902,1.72266h1.13476c0.23698,-0.58333 0.41699,-1.15755 0.54004,-1.72266zM263.92194,229.16548v3.19922c0,0.39648 -0.07292,0.67675 -0.21875,0.84082c-0.17318,0.19596 -0.53549,0.29394 -1.08692,0.29394c-0.53776,0 -1.07552,-0.0228 -1.61328,-0.0684l-0.23242,-1.23047c0.75651,0.08203 1.2373,0.12305 1.44238,0.12305c0.21419,0 0.32129,-0.09342 0.32129,-0.28027v-1.64742h-2.99414v3.97168h3.87598l0.81347,0.69726c-0.24609,1.44922 -0.69499,2.74349 -1.34668,3.88281l-0.0752,0.13672c0.5013,0.57878 1.12793,1.10743 1.87988,1.58594l-0.76562,1.27832c-0.72005,-0.46485 -1.36263,-1.02084 -1.92774,-1.66797c-0.48763,0.61979 -1.03678,1.20313 -1.64746,1.75l-0.80664,-1.12109v1.0664h-1.3877v-12.81054zM259.5401,235.59809v5.16797c0.56055,-0.38281 1.10059,-0.92057 1.62012,-1.61328c-0.69727,-1.07552 -1.18718,-2.26042 -1.46973,-3.55469zM261.91901,237.94282c0.40559,-0.78385 0.66992,-1.56543 0.79297,-2.34473h-1.76368c0.22331,0.875 0.54688,1.65658 0.97071,2.34473z" fill="#ffffff" fill-rule="nonzero" stroke-width="1" stroke-linecap="butt" stroke-linejoin="miter"/><g fill="#ffffff" stroke-width="1" stroke-linecap="butt" stroke-linejoin="miter"><path d="M151.8989,188.9c3.4172,0 6.2012,2.7841 6.2012,6.2012v5.7969c0,3.4172 -2.7841,6.2012 -6.2012,6.2012h-5.7969c-3.4172,0 -6.2012,-2.7841 -6.2012,-6.2012v-5.7969c0,-3.4172 2.7841,-6.2012 6.2012,-6.2012zM142.1,195.1012v5.7969c0,2.2364 1.7656,4.002 4.002,4.002h5.7969c2.2364,0 4.002,-1.7656 4.002,-4.002v-5.7969c0,-2.2364 -1.7656,-4.002 -4.002,-4.002h-5.7969c-2.2364,0 -4.002,1.7656 -4.002,4.002z" fill-rule="evenodd"/><path d="M147.919,202.867v-6.7749h2.1627v6.7749zM148.9873,195.1801c-0.33875,0 -0.61669,-0.10857 -0.83383,-0.32572c-0.21714,-0.21715 -0.32571,-0.49509 -0.32572,-0.83383c0,-0.33006 0.10857,-0.608 0.32572,-0.83383c0.21715,-0.23451 0.49509,-0.35177 0.83383,-0.35177c0.33006,0 0.608,0.11726 0.83383,0.35177c0.23451,0.22583 0.35177,0.50377 0.35177,0.83383c0,0.33875 -0.11726,0.61669 -0.35177,0.83383c-0.22583,0.21715 -0.50377,0.32572 -0.83383,0.32572z" fill-rule="nonzero"/></g><path d="M173.53125,196.832v6.1875c0,0.40104 0.17188,0.64323 0.51563,0.72656c0.35417,0.08855 1.16406,0.13282 2.42969,0.13282c1.23438,0 2.04948,-0.0625 2.44531,-0.1875c0.22396,-0.07292 0.36979,-0.27605 0.4375,-0.60938c0.08854,-0.46875 0.13542,-1.02343 0.14063,-1.66406l1.63281,0.46094c-0.08333,1.53645 -0.29427,2.51822 -0.63281,2.94531c-0.22396,0.28125 -0.5625,0.44791 -1.01562,0.5c-0.71354,0.07813 -1.92448,0.11719 -3.63281,0.11719c-1.32292,0 -2.1901,-0.03646 -2.60156,-0.10938c-0.61979,-0.10417 -1.01302,-0.3776 -1.17969,-0.82031c-0.08333,-0.23437 -0.125,-0.54687 -0.125,-0.9375v-6.19531l-1.49219,0.51562l-0.36719,-1.51562l1.85938,-0.64063v-4.21094h1.58594v3.66407l1.67969,-0.57032v-4.11718h1.57031v3.57031l2.61719,-0.89844l0.82031,0.5v5.85156c0,0.40625 -0.09635,0.70834 -0.28906,0.90625c-0.21875,0.21875 -0.58594,0.32813 -1.10156,0.32813c-0.42188,0 -0.86979,-0.03646 -1.34375,-0.10938l-0.25781,-1.49218c0.30729,0.07812 0.61979,0.11718 0.9375,0.11718c0.22917,0 0.36979,-0.04687 0.42188,-0.14062c0.05209,-0.07813 0.07813,-0.20834 0.07813,-0.39063v-3.69531l-1.88281,0.65625v6.32031h-1.57031v-5.78125zM167.78906,194.27731v-3.77343h1.67969v3.77343h1.51563v1.58594h-1.51562v4.96875c0.54687,-0.1875 1.08854,-0.38281 1.625,-0.58594l0.14844,1.50782c-1.6875,0.77083 -3.41927,1.41667 -5.19531,1.9375l-0.54687,-1.66407c0.80208,-0.20833 1.50521,-0.40625 2.10938,-0.59375c0.07292,-0.02607 0.13281,-0.0443 0.17969,-0.0547v-5.51563h-1.98437v-1.58594zM188.46094,192.61325v-0.67187h-4.88281v-1.11719h11.53125v1.11719h-4.98437v0.67187h6.46875v2.80469h-1.69531v-1.79688h-4.77344v3.03907h-1.66406v-3.03907h-4.6875v1.79688h-1.67969v-2.80469zM193.99219,203.69919c0.79688,0.30208 1.79167,0.54166 2.98438,0.71875l-0.91406,1.32812c-1.67188,-0.28645 -3.04427,-0.77864 -4.11719,-1.47656c-1.06771,-0.69791 -1.89844,-1.5651 -2.49219,-2.60156h-1.72656v2.40625c1.15104,-0.16146 2.21875,-0.33334 3.20313,-0.51563l0.10938,1.16407c-1.83333,0.4375 -3.92969,0.81771 -6.28906,1.14062l-0.46094,-1.375c0.81771,-0.08854 1.3776,-0.15104 1.67969,-0.1875l0.09375,-0.0156v-2.61719h-1.71094c-0.07292,0.91667 -0.19271,1.64844 -0.35937,2.19531c-0.19792,0.65625 -0.51562,1.26823 -0.95312,1.83594l-1.39062,-1.14844c0.51042,-0.66146 0.82813,-1.4349 0.95313,-2.32031c0.06771,-0.47917 0.10156,-1.07552 0.10156,-1.78906v-3.3125h13.48438v1.03906h-11.80469v2.39844h12.47656v1.10156h-1.77344l0.99219,0.65625c-0.58854,0.48958 -1.28385,0.94791 -2.08594,1.375zM192.77344,203.09763c0.75,-0.51042 1.34635,-0.98698 1.78906,-1.42969h-3.41406c0.44792,0.57291 0.98958,1.04948 1.625,1.42969zM184.46094,194.19919h3.32813v0.88281h-3.32812zM184.46094,195.63669h3.32813v0.89844h-3.32812zM190.79688,194.19919h3.42969v0.88281h-3.42969zM190.79688,195.63669h3.42969v0.89844h-3.42969zM185.31251,198.82419h9.72656v1.02344h-9.72656zM201.26563,193.48044v12.22656h-1.63281v-15.20312h1.63281v2.36718l0.75,-0.625c0.45312,0.78646 0.8125,1.54427 1.07813,2.27344l-1.0625,1.05469c-0.27604,-0.88021 -0.53125,-1.57812 -0.76562,-2.09375zM208.46094,191.54294h4.04688v1.17187h-4.04687v0.75h3.49219v1.11719h-3.49219v0.77344h4.5625v1.25h-10.53125v-1.25h4.35156v-0.77344h-3.39062v-1.11719h3.39063v-0.75h-3.85156v-1.17187h3.85156v-1.03906h1.61719zM211.71094,197.43356v6.85938c0,0.47917 -0.11458,0.82812 -0.34375,1.04687c-0.22396,0.21355 -0.60677,0.32032 -1.14844,0.32032c-0.64063,0 -1.29948,-0.04427 -1.97656,-0.13282l-0.22656,-1.40625c0.69271,0.08333 1.24219,0.125 1.64844,0.125c0.20833,0 0.33333,-0.05208 0.375,-0.15625c0.02604,-0.06247 0.03906,-0.15882 0.03906,-0.28906v-1.00781h-4.79687v2.91406h-1.63281v-8.27344zM205.28125,198.582v0.91406h4.79688v-0.91406zM205.28125,200.6445v0.96094h4.79688v-0.96094zM197.42188,198.66013c0.23437,-1.08333 0.40365,-2.48438 0.50781,-4.20313l0.03906,-0.64062l1.32813,0.125c-0.0625,2.22917 -0.24479,4.03906 -0.54687,5.42968zM216.88282,192.13669v-1.63281h1.63281v1.63281h2.42969v1.375h-2.42969v1.34375h2.76563v1.39062h-0.92969c-0.16667,0.61979 -0.39062,1.27604 -0.67187,1.96875h1.50781v1.35938h-2.67187v1.44531h2.57031v1.39063h-2.57031v3.29687h-1.63281v-3.29687h-2.75781v-1.39063h2.75781v-1.44531h-2.88281v-1.35938h1.4375c-0.16667,-0.69271 -0.36979,-1.34896 -0.60937,-1.96875h-1.14844v-1.39062h3.20313v-1.34375h-2.54687v-1.375zM218.82813,196.24606h-2.48437c0.17708,0.49479 0.36719,1.15104 0.57031,1.96875h1.29688c0.27083,-0.66667 0.47656,-1.32292 0.61719,-1.96875zM228.30469,191.06638v3.65625c0,0.45312 -0.08333,0.77343 -0.25,0.96093c-0.19792,0.22396 -0.61198,0.33594 -1.24219,0.33594c-0.61458,0 -1.22917,-0.02603 -1.84375,-0.0781l-0.26562,-1.40625c0.86458,0.09375 1.41406,0.14062 1.64844,0.14062c0.24479,0 0.36719,-0.10677 0.36719,-0.32031v-1.88281h-3.42187v4.53906h4.42969l0.92969,0.79687c-0.28125,1.65625 -0.79427,3.13542 -1.53906,4.4375l-0.08594,0.15625c0.57292,0.66146 1.28906,1.26563 2.14844,1.8125l-0.875,1.46094c-0.82292,-0.53125 -1.55729,-1.16666 -2.20313,-1.90625c-0.55729,0.70833 -1.1849,1.375 -1.88281,2l-0.92187,-1.28125v1.21875h-1.58594v-14.64062zM223.29688,198.41794v5.90625c0.64062,-0.4375 1.25781,-1.05208 1.85156,-1.84375c-0.79687,-1.22917 -1.35677,-2.58333 -1.67969,-4.0625zM226.01563,201.09763c0.46354,-0.89583 0.76562,-1.78906 0.90625,-2.67969h-2.01562c0.25521,1 0.625,1.89323 1.10938,2.67969zM241.69531,192.59763l1.11719,0.91406c-0.72917,3.33333 -1.91146,5.91406 -3.54687,7.74219c-0.90625,1.01041 -2.07813,1.89583 -3.51563,2.65625c-1.02083,0.53645 -2.11719,0.96354 -3.28906,1.28125l-0.90625,-1.53907c2.67708,-0.69791 4.7552,-1.8125 6.23437,-3.34375c-1.21875,-1.09375 -2.5625,-2.0625 -4.03125,-2.90625l1.02344,-1.26562c1.43229,0.74479 2.79427,1.66146 4.08594,2.75c1.01563,-1.625 1.65365,-3.19792 1.91406,-4.71875h-5.5c-1.26041,1.96354 -2.74479,3.46614 -4.45312,4.50781l-1.14844,-1.24219c1.65104,-0.99479 3.00781,-2.30989 4.07031,-3.94531c0.54687,-0.83333 0.97135,-1.73177 1.27344,-2.69531l1.69531,0.41406c-0.17187,0.46875 -0.36458,0.9323 -0.57812,1.39063zM244.67188,192.94919h10.33593l1.67969,1.46875c-0.20313,2.11458 -0.55729,3.77083 -1.0625,4.96875c-0.73958,1.76041 -1.96614,3.12239 -3.67969,4.08594c-1.13541,0.64583 -2.69531,1.20312 -4.67968,1.67187l-0.89844,-1.58594c1.73958,-0.31771 3.11718,-0.72916 4.13281,-1.23437c1.65625,-0.81771 2.82813,-2.0625 3.51563,-3.73438c0.42708,-1.04167 0.67187,-2.3776 0.73437,-4.00781h-10.07812zM255.89063,193.35544c-0.32292,-0.98959 -0.73438,-1.89844 -1.23438,-2.72656l1.25,-0.28907c0.4375,0.60938 0.85156,1.47917 1.24219,2.60938zM258.125,193.03513c-0.29167,-0.90105 -0.71615,-1.77084 -1.27344,-2.60938l1.17969,-0.28906c0.53646,0.69791 0.97917,1.52343 1.32812,2.47656z" fill="#ffffff" fill-rule="nonzero" stroke-width="1" stroke-linecap="butt" stroke-linejoin="miter"/></g></g></svg>