<svg version="1.1" xmlns="http://www.w3.org/2000/svg" xmlns:xlink="http://www.w3.org/1999/xlink" width="208" height="32" viewBox="0,0,208,32"><g transform="translate(-240,-164)"><g data-paper-data="{&quot;isPaintingLayer&quot;:true}" fill-rule="nonzero" stroke="none" stroke-linecap="butt" stroke-linejoin="miter" stroke-miterlimit="10" stroke-dasharray="" stroke-dashoffset="0" style="mix-blend-mode: normal"><path d="M240,196v-32h208v32z" fill="none" stroke-width="0"/><path d="M248.96,187.11c0.72267,-1.6276 1.084,-4.1569 1.084,-7.5879v-8.4863h1.9043v8.5059c0,2.48047 -0.14323,4.4694 -0.42969,5.9668c-0.27995,1.4388 -0.77798,2.77017 -1.4941,3.9941l-1.6602,-1.3672c0.26042,-0.40365 0.4362,-0.69987 0.52735,-0.88868c-2.07033,0.8008 -4.6322,1.51693 -7.6856,2.1484l-0.74219,-1.8555c1.27607,-0.24089 2.46423,-0.48177 3.5645,-0.72265v-5.9375h-3.3984v-1.6992h3.3984v-2.1582h-1.8457c-0.30599,0.3125 -0.625,0.61849 -0.95703,0.91797l-0.9375,-1.7773c1.543,-1.45833 2.80277,-3.34637 3.7793,-5.6641h2.0801l0.16601,0.16601c1.25653,1.25653 2.321,2.487 3.1934,3.6914l-1.3184,1.5625v1.1035h-2.2363v2.1582h3.1348v1.6992h-3.1348v5.4785c1.06773,-0.26693 2.03127,-0.54036 2.8906,-0.82031zM247.837,175.362c-0.55339,-0.82033 -1.37695,-1.85873 -2.4707,-3.1152c-0.50781,1.06773 -1.11328,2.10613 -1.8164,3.1152zM241.7042,186.163c-0.20833,-1.44533 -0.54037,-2.72137 -0.9961,-3.8281l1.7774,-0.57617c0.49479,1.18493 0.82357,2.45773 0.98633,3.8184zM246.2257,184.9814c0.4362,-1.25653 0.75847,-2.42517 0.9668,-3.5059l1.7188,0.47851c-0.32552,1.27607 -0.69985,2.41863 -1.123,3.4277zM253.5109,171.3194h1.8359v15.977h-1.8359zM256.9679,170.6944h1.9238v18.809h-1.9238z" fill="#ffffff" stroke-width="1"/><path d="M275.41,177.37c1.25,0.97653 2.71483,1.79683 4.3945,2.4609l-0.90821,1.6992c-1.89453,-0.77473 -3.48307,-1.73827 -4.7656,-2.8906c-0.34505,0.29948 -0.64453,0.55013 -0.89844,0.75195c-1.1328,0.8724 -2.4837,1.62437 -4.0527,2.2559l-0.97657,-1.6211c1.70573,-0.56641 3.2487,-1.46161 4.6289,-2.6856c-0.61849,-0.73567 -1.13282,-1.43553 -1.543,-2.0996c-0.48828,0.54687 -1.01888,1.04167 -1.5918,1.4844l-1.1524,-1.5234c1.56253,-1.0742 2.75393,-2.666 3.5742,-4.7754l1.9824,0.32226c-0.13672,0.29297 -0.25391,0.54688 -0.35156,0.76172h3.5742l1.1523,1.0547c-0.8008,1.7904 -1.82293,3.39197 -3.0664,4.8047zM274.0526,176.1298c0.77473,-0.8724 1.4388,-1.80663 1.9922,-2.8027h-3.3203c-0.20183,0.3125 -0.32878,0.50456 -0.38086,0.57617c0.48828,0.8138 1.05795,1.556 1.709,2.2266zM268.4569,171.1982v6.7774h-2.4414v2.9785h2.4805v1.7578h-2.4805v3.4473c0.66407,-0.14974 1.5918,-0.40039 2.7832,-0.75195l0.15625,1.7285c-2.5716,0.8594 -5.2311,1.56577 -7.9785,2.1191l-0.61523,-1.9043c0.57291,-0.09766 0.89843,-0.15626 0.97656,-0.17579v-7.5781h1.7578v7.2266c0.33855,-0.06507 0.70638,-0.14319 1.1035,-0.23437v-8.6133h-2.998v-6.7774zM263.0956,172.9951v3.2617h3.5254v-3.2617zM278.2416,181.6181v7.8809h-1.9629v-1.084h-4.5508v1.084h-1.9629v-7.8809zM271.7279,183.3955v3.2422h4.5508v-3.2422z" fill="#ffffff" stroke-width="1"/><path d="M291.58,174.14v-3.6426h2.0996v3.6426h5.293v8.8379h-5.293v6.5234h-2.0996v-6.5234h-5.1856v-8.8379zM288.4159,176.0834v4.9707h3.1641v-4.9707zM296.8925,181.0541v-4.9707h-3.2129v4.9707zM284.3925,175.2729c-0.79427,-1.1068 -1.8457,-2.16473 -3.1543,-3.1738l1.4551,-1.4844c1.30207,0.918 2.40233,1.94663 3.3008,3.0859zM283.75774,180.2924c-1.1328,-1.31513 -2.23307,-2.3926 -3.3008,-3.2324l1.5039,-1.5039c1.13933,0.8008 2.26563,1.83597 3.3789,3.1055zM280.72064,187.8608c1.25,-1.77733 2.40233,-3.99087 3.457,-6.6406l1.7383,1.3379c-0.89193,2.4414 -1.97917,4.73957 -3.2617,6.8945z" fill="#ffffff" stroke-width="1"/></g></g></svg>