<svg version="1.1" xmlns="http://www.w3.org/2000/svg" xmlns:xlink="http://www.w3.org/1999/xlink" width="127.05511" height="66.33756" viewBox="0,0,127.05511,66.33756"><g transform="translate(247.61742,-389.38275)"><g data-paper-data="{&quot;isPaintingLayer&quot;:true}" fill="#ff0000" fill-rule="evenodd" stroke-linecap="round" stroke-linejoin="round" stroke-miterlimit="10" stroke-dasharray="" stroke-dashoffset="0" style="mix-blend-mode: normal"><path d="M-131.0819,392.78262l1.37995,-0.16999l0.55998,0.57998l1.80993,0.76997l0.69997,0.78996l1.18995,0.23999l2.13992,2.5299l2.20991,1.01996l-0.44998,1.30995l0.97996,1.64993l-0.64997,0.26999l-1.66993,1.74993l-0.54998,0.96996l-0.79997,-0.15l-3.49986,0.49998l-2.18991,0.07l-0.68997,0.38998l-1.33995,1.78993l-0.49998,1.49994l-0.35998,2.5999l-0.42998,5.86977l0.02,4.24983l0.18999,1.63993l0.55998,0.50998l0.04,1.42995l-0.38999,0.84996l-2.07991,2.67989l-2.73989,0.88996l-1.04996,-0.19999l-2.14991,0.57997l-0.77997,0.95997l-0.84996,-0.27999l-1.29995,0.94996l-2.27991,1.12995l-1.43994,0.19l-2.82989,1.30994l-0.20999,1.91993l-0.92996,0.41998l-0.96997,2.84988l-1.40994,1.65993l-0.67997,2.4999l-2.20991,1.55994l-1.30995,-0.73997l-2.14991,-2.4099l-1.61993,-0.85996l-1.52994,-0.30998l-1.41994,0.51998l-2.11992,0.27999l-0.24999,0.54998l-1.50994,-0.49998l-0.22999,-0.55998l-2.5099,-2.32991l-0.69997,-0.15999l-1.31995,-2.00992l0.15,-1.42994l-1.37995,-2.6099l0.18999,-0.87996l-1.49994,-3.38986l-0.40998,-2.04992l-0.62998,-0.45998l-0.68997,-2.3299l0.20999,-0.45999l-0.45998,-4.8298l0.12999,-1.20995l1.00996,-2.77989l1.88992,0.16999l1.35995,-0.38999l0.89996,0.58997l1.40994,2.37991l1.00996,0.44998l0.35998,1.83993l2.85989,0.29998l0.79997,-0.27999l1.11995,0.94997l0.73997,1.23995l1.23995,-0.96996l1.98992,-0.13999l1.41994,0.90996l1.15996,-1.41994l0.77997,-0.25999l1.02996,-1.32995l0.01999,-2.62989l0.64998,-0.95997l1.30995,0.34998l1.16995,-1.28994l0.99996,0.06999l1.31995,-1.06995l0.86996,-1.47994l2.40991,-0.98996l0.01999,-1.46994l1.43995,-1.30994l0.82996,-4.18984l0.43999,-0.80997l3.06987,-0.56998l1.06996,-2.87988l-0.89997,-0.99996l0.84996,-0.72997l0.21999,-1.39994l-0.28999,-1.10996l0.38998,-1.36995l1.86993,-1.15995l0.62997,-1.50994l0.98996,-0.33999l0.99996,0.30998l1.07996,-0.97996l1.27995,-0.04l0.88996,0.70997l0.46998,1.56993l1.52993,1.11996" stroke="none" stroke-width="0"/><path d="M-237.77762,430.28113l-1.08995,0.82997l-1.26995,0.1l-1.89992,0.73997l-0.57998,-2.5899l0.60997,-1.41994l3.50986,0.34999l0.71997,1.98992" stroke="#ff0000" stroke-width="10"/><path d="M-194.47936,449.98034l-0.80996,0.73997l-0.85997,-0.62997l0.47998,-0.96996l1.18995,0.85996" stroke="#ff0000" stroke-width="10"/></g></g></svg>