<svg version="1.1" xmlns="http://www.w3.org/2000/svg" xmlns:xlink="http://www.w3.org/1999/xlink" width="208" height="32" viewBox="0,0,208,32"><g transform="translate(-240,-164)"><g data-paper-data="{&quot;isPaintingLayer&quot;:true}" fill-rule="nonzero" stroke="none" stroke-linecap="butt" stroke-linejoin="miter" stroke-miterlimit="10" stroke-dasharray="" stroke-dashoffset="0" style="mix-blend-mode: normal"><path d="M240,196v-32h208v32z" fill="none" stroke-width="0"/><path d="M251.58,174.14v-3.6426h2.0996v3.6426h5.293v8.8379h-5.293v6.5234h-2.0996v-6.5234h-5.1856v-8.8379zM248.4159,176.0834v4.9707h3.1641v-4.9707zM256.8925,181.0541v-4.9707h-3.2129v4.9707zM244.3925,175.2729c-0.79427,-1.1068 -1.8457,-2.16473 -3.1543,-3.1738l1.4551,-1.4844c1.30207,0.918 2.40233,1.94663 3.3008,3.0859zM243.75774,180.2924c-1.1328,-1.31513 -2.23307,-2.3926 -3.3008,-3.2324l1.5039,-1.5039c1.13933,0.8008 2.26563,1.83597 3.3789,3.1055zM240.72064,187.8608c1.25,-1.77733 2.40233,-3.99087 3.457,-6.6406l1.7383,1.3379c-0.89193,2.4414 -1.97917,4.73957 -3.2617,6.8945z" fill="#ffffff" stroke-width="1"/><path d="M262.95,177.73c-0.6836,-1.0872 -1.53973,-2.18093 -2.5684,-3.2812l1.1426,-1.416c0.15625,0.16927 0.29622,0.32227 0.41992,0.45898l0.0977,0.10743c0.61849,-0.95053 1.17839,-2.02477 1.6797,-3.2227l1.7188,0.87891c-0.65104,1.2044 -1.44204,2.40557 -2.373,3.6035c0.35156,0.46224 0.68033,0.93097 0.98632,1.4062c0.96353,-1.36067 1.76757,-2.5651 2.4121,-3.6133l1.4941,1.0547c-1.24347,1.88153 -2.6367,3.68167 -4.1797,5.4004c0.98307,-0.0586 1.77407,-0.1237 2.373,-0.19531c-0.14974,-0.51433 -0.3125,-0.99609 -0.48828,-1.4453l1.4746,-0.53711c0.49479,1.25 0.85613,2.48373 1.084,3.7012v-1.6992h4.3359v-1.1035h-3.8184v-6.4746h9.5606v6.4746h-3.9844v1.1035h4.5508v6.6211h-4.5508v1.2402c0,0.34505 0.09765,0.55013 0.29296,0.61524c0.18881,0.06513 0.67057,0.0977 1.4453,0.0977c0.91147,0 1.47137,-0.0944 1.6797,-0.28321c0.15625,-0.13672 0.23764,-0.66082 0.24415,-1.5723l1.8066,0.51757c-0.06513,1.28253 -0.2279,2.09633 -0.48829,2.4414c-0.22135,0.28646 -0.61849,0.47526 -1.1914,0.56641c-0.58594,0.09115 -1.34114,0.13672 -2.2656,0.13672c-1.4844,0 -2.40563,-0.11719 -2.7637,-0.35157c-0.34505,-0.22135 -0.51758,-0.68359 -0.51758,-1.3867v-2.0215h-4.3359v-4.6875l-1.5039,0.64453c-0.06513,-0.41667 -0.13349,-0.79427 -0.20508,-1.1328c-0.13021,0.01953 -0.38086,0.0586 -0.75195,0.11719c-0.19531,0.03253 -0.34831,0.05533 -0.45899,0.0684v8.9355h-1.9043v-8.6816c-0.07161,0.00667 -0.17578,0.01643 -0.3125,0.0293c-0.59896,0.07161 -1.37369,0.14648 -2.3242,0.22461l-0.38086,-1.7774c0.26041,-0.013 0.52408,-0.02603 0.79101,-0.0391l0.58594,-0.0293c0.45573,-0.54688 0.85287,-1.04495 1.1914,-1.4942zM272.5594,172.7495h-2.0801v1.1816h2.0801zM274.3172,172.7495v1.1816h2.168v-1.1816zM272.5594,175.23h-2.0801v1.2402h2.0801zM274.3172,175.23v1.2402h2.168v-1.2402zM272.5594,180.2691h-2.4609v1.2402h2.4609zM274.3172,180.2691v1.2402h2.6465v-1.2402zM272.5594,182.8277h-2.4609v1.3086h2.4609zM274.3172,182.8277v1.3086h2.6465v-1.3086zM260.3032,187.0757c0.38412,-1.27607 0.6185,-2.9753 0.70313,-5.0977l1.7773,0.25391c-0.0586,2.29167 -0.29297,4.1927 -0.70312,5.7031zM266.4067,186.67531c-0.20833,-1.63413 -0.46224,-3.11527 -0.76172,-4.4434l1.4551,-0.41992c0.37761,1.26953 0.68685,2.64323 0.92773,4.1211z" fill="#ffffff" stroke-width="1"/><path d="M291.78,176.02c2.1354,3.112 4.7591,5.60223 7.8711,7.4707l-1.3867,1.8848c-3.1836,-2.33073 -5.60547,-4.85027 -7.2656,-7.5586v5.957h4.0039v1.9238h-3.9648v3.8086h-2.1973v-3.8086h-3.7402v-1.9238h3.7793v-5.8594c-1.60153,2.96227 -3.94853,5.60873 -7.041,7.9394l-1.416,-1.7578c3.14453,-2.08333 5.6901,-4.7754 7.6367,-8.0762h-7.0801v-2.002h7.8418v-3.5156h2.2363v3.5156h7.9688v2.002z" fill="#ffffff" stroke-width="1"/><path d="M307.74,171.98c0.24089,-0.57943 0.4362,-1.13283 0.58594,-1.6602l2.3828,0.32226c-0.22787,0.54037 -0.4362,0.98633 -0.625,1.3379h6.5039v6.3672h-11.797v0.98633h14.697v1.582h-14.697v0.99609h14.014c-0.08463,2.9818 -0.27343,4.99353 -0.5664,6.0352c-0.18881,0.66406 -0.54364,1.10353 -1.0645,1.3184c-0.37109,0.15625 -0.93749,0.23437 -1.6992,0.23437c-0.78127,0 -1.51043,-0.04883 -2.1875,-0.14648l-0.39063,-1.6406h-9.7852v1.084h-2.0996v-4.6973h2.0996v2.0117h3.3594v-2.6367h-3.8379v-11.494zM311.8904,186.111v-2.0117h2.0215v3.3984c0.54036,0.05207 0.98956,0.0781 1.3476,0.0781c0.44271,0 0.7194,-0.12695 0.83008,-0.38085c0.21485,-0.47527 0.38412,-1.7155 0.50781,-3.7207h-8.0273v2.6367zM304.7908,173.484v0.96679h9.6387v-0.96679zM304.7908,175.8473v1.0644h9.6387v-1.0644z" fill="#ffffff" stroke-width="1"/><path d="M328.92,182.24h-4.043v-1.6016h1.9531c-0.29297,-0.66407 -0.625,-1.28257 -0.99609,-1.8555l1.7578,-0.64453c0.50781,0.85287 0.91798,1.6862 1.2305,2.5h2.2949c0.38411,-0.78773 0.72265,-1.6341 1.0156,-2.5391l1.9629,0.61524c-0.33203,0.71613 -0.6836,1.3574 -1.0547,1.9238h2.0996v1.6016h-4.1797v1.4258h4.4531v1.6602h-4.4531v3.6914h-2.041v-3.6914h-4.2871v-1.6602h4.2871zM331.0196,176.2244h7.4024v11.416c0,0.6706 -0.17904,1.1426 -0.53711,1.416c-0.29948,0.23438 -0.80405,0.35157 -1.5137,0.35157c-0.918,0 -1.8034,-0.04883 -2.6562,-0.14649l-0.47852,-1.9629c1.13933,0.13672 1.9922,0.20508 2.5586,0.20508c0.23437,0 0.37109,-0.05859 0.41015,-0.17578c0.02607,-0.07161 0.0391,-0.17253 0.0391,-0.30274v-9.1016h-12.48v11.582h-2.1777v-13.281h7.2754v-1.7676h-8.3594v-1.8164h8.3594v-2.1387h2.1582v2.1387h8.4766v1.8164h-8.4766z" fill="#ffffff" stroke-width="1"/><path d="M349.48,175.76c-0.0456,1.08727 -0.1107,2.0443 -0.19531,2.8711h7.8711c-0.09765,4.51827 -0.35156,7.4512 -0.76172,8.7988c-0.20833,0.67707 -0.5957,1.1458 -1.1621,1.4062c-0.44271,0.20182 -1.09051,0.30273 -1.9434,0.30273c-0.89847,0 -1.91733,-0.06836 -3.0566,-0.20507l-0.38085,-2.1973c1.52993,0.21485 2.6074,0.32227 3.2324,0.32227c0.52734,0 0.86264,-0.14974 1.0059,-0.44922c0.34505,-0.7292 0.58593,-2.74093 0.72265,-6.0352h-5.8105c-0.21485,1.17187 -0.51758,2.1875 -0.90821,3.0469c-1.08727,2.37627 -2.90367,4.26103 -5.4492,5.6543l-1.543,-1.7188c2.55207,-1.32813 4.23827,-3.06967 5.0586,-5.2246c0.54687,-1.4388 0.90167,-3.62957 1.0644,-6.5723h-6.4648v-2.002h7.9785v-3.2617h2.2559v3.2617h8.2422v2.002z" fill="#ffffff" stroke-width="1"/><path d="M371.58,174.14v-3.6426h2.0996v3.6426h5.293v8.8379h-5.293v6.5234h-2.0996v-6.5234h-5.1856v-8.8379zM368.4159,176.0834v4.9707h3.1641v-4.9707zM376.8925,181.0541v-4.9707h-3.2129v4.9707zM364.3925,175.2729c-0.79427,-1.1068 -1.8457,-2.16473 -3.1543,-3.1738l1.4551,-1.4844c1.30207,0.918 2.40233,1.94663 3.3008,3.0859zM363.75774,180.2924c-1.1328,-1.31513 -2.23307,-2.3926 -3.3008,-3.2324l1.5039,-1.5039c1.13933,0.8008 2.26563,1.83597 3.3789,3.1055zM360.72064,187.8608c1.25,-1.77733 2.40233,-3.99087 3.457,-6.6406l1.7383,1.3379c-0.89193,2.4414 -1.97917,4.73957 -3.2617,6.8945z" fill="#ffffff" stroke-width="1"/></g></g></svg>