<svg version="1.1" xmlns="http://www.w3.org/2000/svg" xmlns:xlink="http://www.w3.org/1999/xlink" width="208" height="32" viewBox="0,0,208,32"><g transform="translate(-240,-164)"><g data-paper-data="{&quot;isPaintingLayer&quot;:true}" fill-rule="nonzero" stroke="none" stroke-linecap="butt" stroke-linejoin="miter" stroke-miterlimit="10" stroke-dasharray="" stroke-dashoffset="0" style="mix-blend-mode: normal"><path d="M240,196v-32h208v32z" fill="none" stroke-width="0"/><path d="M246.7,175.65h3.2031v7.2656h-3.2031v1.5234h3.7988v1.7383h-3.7988v3.3203h-2.041v-3.3203h-4.1797v-1.7383h4.1797v-1.5234h-3.1445v-7.2656h3.1445v-1.4551h-3.8672v-1.7188h3.8672v-1.9824h2.041v1.9824h3.8281v1.7188h-3.8281zM248.0574,177.193h-4.5801v1.3379h4.5801zM243.4773,179.9664v1.4062h4.5801v-1.4062zM258.6633,171.2359v16.24c0,0.6836 -0.16602,1.17187 -0.49805,1.4648c-0.29297,0.26042 -0.77147,0.39063 -1.4355,0.39063c-0.59896,0 -1.38673,-0.04557 -2.3633,-0.13672l-0.41992,-1.9824c0.92447,0.12369 1.64713,0.18554 2.168,0.18554c0.24089,0 0.39063,-0.05208 0.44922,-0.15625c0.03907,-0.07812 0.0586,-0.20182 0.0586,-0.37109v-4.3555h-3.3691c-0.06507,1.41927 -0.22783,2.63997 -0.48828,3.6621c-0.30599,1.1914 -0.81379,2.3177 -1.5234,3.3789l-1.7188,-1.4258c0.78127,-1.0482 1.28907,-2.27867 1.5234,-3.6914c0.15625,-0.944 0.23438,-2.15167 0.23438,-3.623v-9.5801zM256.6223,173.0523h-3.3398v2.9199h3.3398zM256.6223,177.73h-3.3398v3.0274h3.3398z" fill="#ffffff" stroke-width="1"/><path d="M266.95,175.16h2.4024v8.584h-7.7832v-6.9629c-0.20183,0.20833 -0.35482,0.36133 -0.45899,0.45899l-0.95703,-1.6406c1.56253,-1.46487 2.6693,-3.15107 3.3203,-5.0586l1.3477,0.78125h2.9102l0.80079,0.85937c-0.47526,1.08073 -1.00259,2.07357 -1.582,2.9785zM264.616,176.6444h-1.3477v2.041h1.3477zM266.2762,176.6444v2.041h1.377v-2.041zM264.616,180.0819h-1.3477v2.1777h1.3477zM266.2762,180.0819v2.1777h1.377v-2.1777zM265.0457,175.16c0.57291,-0.95053 0.97655,-1.66993 1.2109,-2.1582h-1.9043c-0.34505,0.64453 -0.81379,1.36393 -1.4062,2.1582zM273.493,175.5018h-3.5449v-1.8164h1.7578c-0.43619,-1.00913 -0.87566,-1.862 -1.3184,-2.5586l1.8848,-0.60547c0.48828,0.8138 0.95701,1.8685 1.4062,3.1641h1.4746c0.39713,-0.96353 0.7845,-2.03777 1.1621,-3.2227l2.0996,0.54688c-0.37761,0.93747 -0.77147,1.8294 -1.1816,2.6758h1.9922v1.8164h-3.6524v2.5195h3.2715v1.7578h-3.2715v2.6953h3.916v1.8848h-3.916v5.1465h-2.0801v-5.1465h-3.7207v-1.8848h3.7207v-2.6953h-3.1836v-1.7578h3.1836zM260.348,188.6368c0.50781,-1.06773 0.89518,-2.4935 1.1621,-4.2773l1.543,0.32226c-0.18229,2.02473 -0.53709,3.67187 -1.0644,4.9414zM263.8929,189.3204c-0.05207,-1.6732 -0.17902,-3.2064 -0.38086,-4.5996l1.4453,-0.19532c0.30599,1.4518 0.48502,2.91663 0.53711,4.3945zM266.432,188.92001c-0.21485,-1.45833 -0.4948,-2.8646 -0.83985,-4.2188l1.2988,-0.38086c0.48177,1.30207 0.85611,2.64973 1.123,4.043zM268.8539,188.46102c-0.38411,-1.54293 -0.81705,-2.88407 -1.2988,-4.0234l1.2598,-0.47851c0.7096,1.44533 1.20763,2.7344 1.4941,3.8672z" fill="#ffffff" stroke-width="1"/><path d="M288.84,177.31v-6.8164h2.1973v6.8164h7.4414v1.9434h-7.4414v2.7734h8.4668v1.9824h-8.4668v5.4883h-2.1973v-5.4883h-8.3398v-1.9824h8.3398v-2.7734h-7.3047v-1.9434zM284.5627,176.67524c-0.80727,-1.7904 -1.65363,-3.27803 -2.5391,-4.4629l2.041,-0.9961c1.0026,1.3802 1.8815,2.8711 2.6367,4.4727zM293.1369,175.91352c1.02867,-1.56253 1.84897,-3.20317 2.4609,-4.9219l2.2852,0.89844c-0.73567,1.6146 -1.6634,3.2357 -2.7832,4.8633z" fill="#ffffff" stroke-width="1"/><path d="M307.74,171.98c0.24089,-0.57943 0.4362,-1.13283 0.58594,-1.6602l2.3828,0.32226c-0.22787,0.54037 -0.4362,0.98633 -0.625,1.3379h6.5039v6.3672h-11.797v0.98633h14.697v1.582h-14.697v0.99609h14.014c-0.08463,2.9818 -0.27343,4.99353 -0.5664,6.0352c-0.18881,0.66406 -0.54364,1.10353 -1.0645,1.3184c-0.37109,0.15625 -0.93749,0.23437 -1.6992,0.23437c-0.78127,0 -1.51043,-0.04883 -2.1875,-0.14648l-0.39063,-1.6406h-9.7852v1.084h-2.0996v-4.6973h2.0996v2.0117h3.3594v-2.6367h-3.8379v-11.494zM311.8904,186.111v-2.0117h2.0215v3.3984c0.54036,0.05207 0.98956,0.0781 1.3476,0.0781c0.44271,0 0.7194,-0.12695 0.83008,-0.38085c0.21485,-0.47527 0.38412,-1.7155 0.50781,-3.7207h-8.0273v2.6367zM304.7908,173.484v0.96679h9.6387v-0.96679zM304.7908,175.8473v1.0644h9.6387v-1.0644z" fill="#ffffff" stroke-width="1"/><path d="M325.84,184.3c-1.79687,0.944 -3.36263,1.66667 -4.6973,2.168l-0.82031,-2.1484c2.08987,-0.70313 3.92907,-1.4323 5.5176,-2.1875v-4.375h-4.834v-2.0606h4.834v-5.1953h2.1777v19.004h-2.1777zM332.7834,176.6926c1.51693,-0.79427 2.9883,-1.80337 4.4141,-3.0273l1.6211,1.6992c-1.92707,1.3672 -3.9388,2.53257 -6.0352,3.4961v7.3242c0,0.31901 0.10417,0.51433 0.3125,0.58594c0.22135,0.07161 0.73242,0.10742 1.5332,0.10742c1.05467,0 1.71547,-0.06185 1.9824,-0.18555c0.1888,-0.08463 0.31901,-0.3483 0.39062,-0.79101c0.09766,-0.61849 0.16928,-1.61783 0.21485,-2.998l2.1875,0.67383c-0.06513,1.6862 -0.1693,2.89713 -0.3125,3.6328c-0.16276,0.82033 -0.58919,1.35093 -1.2793,1.5918c-0.65755,0.22135 -1.73502,0.33203 -3.2324,0.33203c-1.7578,0 -2.86457,-0.14648 -3.3203,-0.43945c-0.4362,-0.28646 -0.6543,-0.83659 -0.6543,-1.6504v-16.543h2.1777z" fill="#ffffff" stroke-width="1"/><path d="M346.98,172.75h4.1797v1.8848h-1.377c-0.2474,0.99607 -0.57943,2.041 -0.9961,3.1348h2.6074v1.8848h-10.898v-1.8848h2.3926c-0.26041,-1.25 -0.53385,-2.29493 -0.82031,-3.1348h-1.2695v-1.8848h4.1406v-2.2559h2.041zM344.0406,174.6348c0.33203,0.97007 0.58919,2.015 0.77148,3.1348h1.9922l0.09766,-0.27344c0.27995,-0.7422 0.54036,-1.5853 0.78125,-2.5293l0.0879,-0.33203zM350.0953,181.295v7.998h-2.002v-0.95703h-4.2578v1.1621h-2.0606v-8.2031zM343.8355,183.0919v3.3887h4.2578v-3.3887zM356.8825,178.1603c0.77473,0.73567 1.38997,1.61133 1.8457,2.627c0.44922,1.0156 0.67383,2.04423 0.67383,3.0859c0,0.96353 -0.17904,1.67317 -0.53711,2.1289c-0.37109,0.47526 -0.98306,0.71289 -1.8359,0.71289c-0.7292,0 -1.43557,-0.05208 -2.1191,-0.15625l-0.47852,-2.0801c0.78773,0.14323 1.43877,0.21485 1.9531,0.21485c0.39063,0 0.63477,-0.09115 0.73242,-0.27344c0.06513,-0.13021 0.0977,-0.39062 0.0977,-0.78125c0,-1.60807 -0.48177,-2.9948 -1.4453,-4.1602c-0.25391,-0.30599 -0.57292,-0.63476 -0.95703,-0.98633l0.11719,-0.27343c0.67707,-1.52993 1.2044,-3.125 1.582,-4.7852h-2.5v16.064h-2.0215v-18.086h5.8789l1.084,0.99609c-0.65755,2.2396 -1.34765,4.15693 -2.0703,5.752z" fill="#ffffff" stroke-width="1"/></g></g></svg>