<svg version="1.1" xmlns="http://www.w3.org/2000/svg" xmlns:xlink="http://www.w3.org/1999/xlink" width="41.05834" height="86.13653" viewBox="0,0,41.05834,86.13653"><g transform="translate(43.08716,-422.71767)"><g data-paper-data="{&quot;isPaintingLayer&quot;:true}" fill="#ff0000" fill-rule="evenodd" stroke="none" stroke-width="0" stroke-linecap="round" stroke-linejoin="round" stroke-miterlimit="10" stroke-dasharray="" stroke-dashoffset="0" style="mix-blend-mode: normal"><path d="M-14.86829,423.72759l-2.4099,2.34991l0.49998,2.07992l-0.76997,1.23995l-0.67997,0.34999l-1.54994,2.69989l-0.97996,1.29995l-0.77997,0.24999l0.60998,2.88988l0.78997,1.23995l2.14991,2.13991l2.3899,1.59994l1.23995,1.55994l2.94988,2.25991l1.40994,-0.18999l3.65985,1.19995l-0.1,0.57998l1.97992,0.93996l2.4299,0.64997l-0.11,1.21995l-1.22995,0.61998l-1.54994,0.32999l-0.52998,2.00992l-1.37994,-0.08l-1.29995,1.73993l0.59998,1.98992l-0.34999,1.14995l-1.38994,0.65997l-0.78997,-0.35999l-1.23995,3.05988l-0.71997,-0.56998l-0.70997,1.79993l-1.61994,-0.37998l0.83997,1.73993l-0.87996,1.01996l-0.27999,1.06996l0.01,2.63989l-1.41994,2.5299l-0.22999,1.83993l-0.08,3.19987l-0.38998,0.79997l0.19999,2.3799l-0.62997,0.97996l2.18991,0.37998l0.47998,3.06988l0.49998,0.95996l0.42998,2.29991l-0.95996,1.83993l0.73997,1.28995l-0.59998,1.86993l0.22999,1.76993l-0.38998,0.58998l-0.74997,2.5799l1.13995,0.02l0.35999,0.76997l-1.29995,2.4999l0.32999,1.99992l-1.46994,1.49994l-1.91992,0.19999l0.28999,0.82997l-1.86993,2.75989l-1.24995,-0.03l-1.38994,1.39994l-1.79993,-0.21999l0.72997,-1.79993l0.55998,-2.89988l-0.72997,-0.45998l-0.88996,-2.4999l-1.52994,-1.21995l-0.71997,0.09l-0.95996,-0.80997l-1.52994,-0.72997l-1.73993,1.89992l-0.72997,0.43998l-0.62997,-0.59998l-0.05,-1.71993l-0.71997,-0.38998l-0.36999,1.75993l-1.33995,0.25999l-0.76997,-0.43998l-0.66997,0.46998l0.51998,1.74993l-1.58994,3.80985l-1.73993,-0.02l-0.49998,-0.42998l-1.18995,0.85997l-0.38998,-1.61994l0.07,-1.55994l-0.43998,-2.34991l0.24999,-0.54998l1.87992,-0.88996l0.07,-0.97996l-0.60998,-0.75997l-0.54998,-3.95984l-1.61994,-1.62993l-0.76997,0.05l-0.16999,-2.07992l0.86997,-0.02l1.69993,-1.54994l-0.60998,-1.38994l0.91996,-0.89996l-0.26999,-1.62993l0.69997,-1.21995l-0.76997,-1.44994l0.02,-1.79993l1.77993,-3.38986l0.41998,-1.82993l-1.46994,-1.98992l-1.14995,-0.12999l0.43998,-1.68993l-0.69997,-1.19995l0.02,-1.11996l-0.49998,-1.62993l0.07,-1.48994l1.56994,-1.16995l-0.01,-1.00996l1.41994,-1.82993l0.84997,-2.66989l-1.13995,-0.53998l0.20999,-2.24991l-1.42994,-0.84997l-0.89996,-0.94996l0.95996,-1.56994l2.03992,-0.08l0.17999,-1.15995l1.73993,-0.63997l0.59998,-1.31995l0.59998,-1.59994l-0.77997,-1.59994l0.70997,-0.65997l0.35999,-1.06996l-0.52998,-2.20991l1.12995,-2.02992l-0.35999,-1.33995l0.68997,-0.37998l-0.09,-2.17991l0.87996,-0.29999l1.17995,-1.75993l0.25999,-1.04996l-0.76997,-1.78993l0.11,-0.84997l1.65993,-2.29991l1.93992,-0.71997l1.25995,-2.14991l2.63989,-1.03996l1.96992,1.45994l0.77997,-0.88996l0.50998,-1.97992l1.03996,0.08l0.72997,0.63997l3.33987,-0.70997l1.39994,0.99996"/></g></g></svg>