<svg version="1.1" xmlns="http://www.w3.org/2000/svg" xmlns:xlink="http://www.w3.org/1999/xlink" width="153.87213" height="108.54839" viewBox="0,0,153.87213,108.54839"><g transform="translate(-164.291,-295.89389)"><g data-paper-data="{&quot;isPaintingLayer&quot;:true}" fill="none" fill-rule="evenodd" stroke="#fc3324" stroke-width="36" stroke-linecap="round" stroke-linejoin="round" stroke-miterlimit="4" stroke-dasharray="" stroke-dashoffset="0" style="mix-blend-mode: normal"><g><path d="M241.63249,358.29679l0.13998,1.93969l2.76956,1.03983l1.63974,-0.36994l5.37914,4.06935l4.13934,1.2398l3.29947,3.00952l-1.27979,7.55879l-0.51992,1.2298l-6.80891,6.82891l-5.50912,0.72988l-0.88986,0.86986l-8.45864,-1.47976l-2.27964,-3.66942l-0.92985,-4.90922l-0.82986,-0.42993l-1.56975,-3.93937l-0.01,-4.3793l1.64973,-1.03983l2.18965,0.20997l2.78955,-3.88938l1.30979,-0.29995l0.97985,-3.33947l2.66958,0.58991l0.12998,-1.56975"/><path d="M206.52811,355.87718l3.35946,0.70988l1.04984,1.42977l0.89986,-1.2298l3.51943,1.43977l2.76956,2.58958l-5.07919,2.98952l-1.97968,-2.01968l-0.09999,-2.78956l-1.8397,0.91985l-2.59958,-4.03935"/><path d="M277.58674,323.8723l0.93985,2.5396l-0.48993,1.8797l-2.55959,0.01l0.48992,-2.65957l1.61974,-1.76972"/><path d="M222.18561,318.91309l1.81971,1.91969l-0.80987,1.27979l-4.9692,0.14998l3.95936,-3.34947"/><path d="M297.47356,315.26368l1.49976,4.92921l1.18981,1.70972l-1.11982,1.65974l0.06999,5.94905l0.56991,2.43961l-0.99984,0.35994l-1.8797,5.39914l0.52991,4.86922l-2.11966,1.8497l-1.09983,4.12934l-2.35963,0.6099l-0.50991,2.13966l-1.51976,1.68973l-0.29995,2.38962l-1.33979,1.8497l-0.11998,2.82955l1.36978,1.13981l-0.60991,2.24964l0.88986,2.53959l-1.2798,1.2798l0.25995,2.22965l-3.1195,-0.28995l-3.21948,1.32978l-2.02967,2.29964l-1.37978,-0.31995l-1.2598,-2.71956l0.79987,-5.42913l-1.42977,-3.62942l-0.21997,-2.17965l2.03967,0.38994l1.28979,-2.64958l1.51976,-1.00984l4.74924,-8.79859l0.82987,-2.57959l-0.33995,-4.80923l-0.81987,-1.56975l0.51992,-3.53944l1.1998,-0.96984l1.96969,-4.47929l2.93953,-4.61926l-0.51991,-2.28963l5.35914,-6.37898"/><path d="M234.60362,317.5933l1.82971,1.14981l-0.41994,1.11982l-3.65942,-1.10982l2.24964,-1.15981"/><path d="M185.76044,313.89389l2.45361,1.86971l-1.06783,1.98968l-3.52743,0.14998l-1.32779,-1.72973l2.04367,-2.01968l1.42577,-0.25996"/></g></g></g></svg>