<svg xmlns="http://www.w3.org/2000/svg" xml:space="preserve" viewBox="0 0 400 400" version="1.1" height="400" width="400"><path style="mix-blend-mode:normal" stroke-width="0" stroke-miterlimit="10" fill="none" d="m0 400v-400h400v400z"></path><path style="paint-order:stroke fill markers" stroke-width="0" fill-rule="evenodd" fill="#ff9939" d="m150.0001 120h100c16.62 0 30 13.38 30 30v100c0 16.62-13.38 30-30 30h-100c-16.62 0-30-13.38-30-30v-100c0-16.62 13.38-30 30-30z"></path><path style="font-feature-settings:normal;font-variant-alternates:normal;font-variant-caps:normal;font-variant-east-asian:normal;font-variant-ligatures:normal;font-variant-numeric:normal;font-variant-position:normal;font-variation-settings:normal;inline-size:0;isolation:auto;mix-blend-mode:normal;shape-margin:0;shape-padding:0;text-decoration-color:#000000;text-decoration-line:none;text-decoration-style:solid;text-indent:0;text-orientation:mixed;text-transform:none;white-space:normal" stop-color="#000000" shape-rendering="auto" opacity=".75" image-rendering="auto" fill="#1c1c1c" color-rendering="auto" color="#000000" d="m201.62 144.73-0.30078 0.41797-49.814 69.547v14.922h53.561v24.686h18.113v-24.686h19.143v-15.729h-19.143v-69.158h-21.559zm4.2168 19.074c-0.43923 7.4028-0.77148 14.466-0.77148 20.469v29.615h-31.887l23.389-33.42 2e-3 -2e-3c2.6348-3.7047 5.7681-9.4705 9.2676-16.662z"></path></svg>
