<svg version="1.1" xmlns="http://www.w3.org/2000/svg" xmlns:xlink="http://www.w3.org/1999/xlink" width="123.86594" height="129.83498" viewBox="0,0,123.86594,129.83498"><g transform="translate(-177.46988,107.25159)"><g data-paper-data="{&quot;isPaintingLayer&quot;:true}" fill="none" fill-rule="evenodd" stroke="#fc3324" stroke-width="36" stroke-linecap="round" stroke-linejoin="round" stroke-miterlimit="4" stroke-dasharray="" stroke-dashoffset="0" style="mix-blend-mode: normal"><g><path d="M195.73984,4.58339l0.52991,-2.97952l8.87858,-2.69957l-0.80987,-0.84986l2.88954,-1.50976l1.01984,-2.87954l-2.21965,1.54976l-1.57975,-1.03984l0.88986,-1.13981l-1.52976,-0.99984l-2.19965,1.2298l-0.87986,-2.27963l4.86922,-0.97985l2.43961,-2.5296l-0.77988,-1.01984l4.64925,-2.46961l1.03984,-3.05951l2.59958,2.20964l-1.31979,1.74972l1.00984,2.26964l4.10935,0.6599l-0.42993,1.63974l-2.00968,-0.45993l2.21965,2.07967l1.96968,0.29996l2.09967,-2.14966l3.31946,0.36995l2.67958,-1.21981l1.95969,0.93985l2.76955,-6.11902l-1.58974,-0.46992l2.94953,-1.20981l-0.24996,-2.70956l-2.38962,0.16997l-1.43977,1.64974l-3.33947,1.36978l0.09999,1.68973l-3.51943,-1.78972l4.11934,-1.21981l3.23948,-2.15965l1.82971,-3.19949l2.67958,-1.12982l2.11966,-3.20949l0.50992,-2.63958l-0.99984,-1.97968l-1.07983,0.41993l-0.6299,-3.67941l1.50976,0.69988l1.65974,-1.53975l0.6199,-3.24948l3.95937,-1.64974l0.27995,-2.98952l3.90938,-0.44993l0.6299,1.35979l2.12966,0.29995l3.86938,-0.6499l3.34947,-2.14965l-0.09999,-1.57975l2.51959,-2.42961l2.63958,-0.54991l3.87938,0.83987l0.74988,-0.91986l4.72924,0.96985l1.11982,1.03983l-0.42994,2.4996l-1.8497,1.41977l-4.58927,1.97968l4.73924,-1.39978l2.54959,-2.16965l0.19997,-2.03967l3.01951,-1.07983l3.27948,3.30947v1.62974l2.72956,-0.87986"/><path d="M195.46988,-43.96884v0"/><path d="M235.78343,-48.86805l0.84986,0.51991l-1.8997,2.86954l-2.32962,-1.36978l0.28995,-1.46976l3.08951,-0.54991"/><path d="M272.71752,-52.9574l2.33962,-0.12998l1.2698,1.2798l-2.26963,1.05983l-3.81939,-0.55991l-0.66989,-1.32979l3.1495,-0.31995"/><path d="M203.06867,-89.25159v0"/></g></g></g></svg>