<svg version="1.1" xmlns="http://www.w3.org/2000/svg" xmlns:xlink="http://www.w3.org/1999/xlink" width="77.10694" height="77.5869" viewBox="0,0,77.10694,77.5869"><g transform="translate(-99.17892,-265.08775)"><g data-paper-data="{&quot;isPaintingLayer&quot;:true}" fill="#ff0000" fill-rule="evenodd" stroke="none" stroke-width="0" stroke-linecap="round" stroke-linejoin="round" stroke-miterlimit="10" stroke-dasharray="" stroke-dashoffset="0" style="mix-blend-mode: normal"><path d="M173.30591,291.0867l-5.02979,7.02972l-1.12995,2.13992l-3.33987,5.72977l-4.30982,8.84965l-0.52998,1.76993l-0.67997,1.12995l-1.76993,4.22983l0.04999,2.43991l-1.68993,4.62982l-0.19,2.37991l1.25995,2.70989l-0.17999,1.45994l1.68993,1.45994l-0.27999,3.66985l-0.89996,1.95992l-1.93992,-0.32998l-0.61998,-0.65998l-3.19987,0.61997l-0.05,-0.80996l-1.24995,0.04l-0.37999,-1.00996l-1.95992,-0.88997l-0.96996,0.56997l-2.36991,-1.95992l-0.99996,-2.43991l-0.06,-1.07996l-0.73997,-0.62997l-1.30994,0.06l-1.79993,-2.34991l0.12,-1.55993l-1.62993,-0.83997l-1.54994,-0.24999l-0.57998,-1.66994l0.12,-0.96996l-0.58997,-0.78997l-2.90989,-0.69997l-0.21999,-1.42994l-2.05991,-1.66993l-0.69997,-2.08992l-0.85996,-0.01999l-1.12995,-1.30995l-0.26999,-1.11996l-1.48994,-0.76997l-1.02996,-2.5099l-0.98996,-0.27999l-0.85996,-1.37994l-1.10996,-1.05996l-0.33999,-1.42994l-1.66994,-1.69993l-0.31998,-1.73993l-1.56994,-0.27999l-0.64997,-0.63997l-2.05992,0.33999l-0.53998,-2.35991l-1.01995,-0.67998l-0.63997,-1.62993l0.88996,-3.02988l-0.56998,-1.20995l-1.40994,-0.20999l-1.50994,-1.93993l0.55998,-1.34994l0.20999,-2.4699l-3.55985,-0.98996l-0.32999,-2.98988l-1.31995,-0.90996l-0.14999,-1.44994l-0.95996,-1.09996l-0.45998,-2.24991l-0.72997,-0.94996l-1.75993,-0.22999l-0.31999,-2.05992l-1.28995,-1.10996l0.1,-1.68993l-0.28999,-1.54994l1.09996,-2.06991l2.85988,-1.36995l2.6899,0.29998l0.82996,0.64998l2.96988,-1.10996l1.28995,1.58994l-0.67998,1.21995l0.09,2.74989l-0.50998,1.79993l1.08996,1.18995l0.83997,0.07l2.19991,2.29991l1.85993,-1.62993l1.32995,0.62998l2.09991,-0.06l0.83997,0.48998l1.26995,-0.72997l1.63994,-0.13l2.02992,-1.37995l0.91996,0.23999l1.04996,-0.47998l0.02,-1.24995l0.82997,0.03l0.54998,-1.22995l1.00996,-0.64997l2.66989,-4.53982l-0.93997,-1.13995l0.95996,-1.25995l1.58994,-1.42994l0.42998,-1.31995l1.33995,0.78996l0.34999,-0.60997l2.03992,1.22995l0.98996,-1.38995l0.90996,-0.18999l3.81985,1.09995l-0.74997,2.6899l0.15999,0.71997l1.65993,-0.38999v-0.74997l3.24987,0.82996l0.82996,-3.23987l3.62986,0.93997l-0.50998,1.40994l-0.23999,2.73989l-1.57993,6.27975l0.78997,1.05996l3.29987,0.43998l0.19,0.68998l-0.88997,4.51981l-2.16992,0.53998l-1.73993,1.21995l-3.75985,1.89992l1.15996,0.62998l-0.63997,1.19995l3.96984,1.33995l3.55986,1.88992l3.95984,-1.70993l3.06988,1.44995l0.85996,2.84988l2.79989,-1.07996l4.65981,-1.40994l-4.05984,-4.62982l0.02,-1.99992l-0.88996,-1.81993l-0.83997,-0.46998l-0.79997,0.60998l-1.65993,-0.70997l0.07,-1.00996l-0.76997,-1.16996l0.78997,-2.03991l-0.70997,-1.68994l0.88996,-1.70993l1.77993,0.13999l-0.22999,-1.24995l0.83997,-0.39998l1.66993,-2.13992l1.96992,1.66994l1.12996,2.3299l2.31991,2.03992l0.67997,-0.93996l0.94996,0.65997l-0.46998,1.73993l1.84992,0.92996l-0.35998,0.52998l1.65994,1.78993l0.43998,0.81997l-0.06,-0.01l0.20999,0.29998l0.52998,0.97996l0.20999,1.22995l-2.97988,4.35983"/></g></g></svg>