<svg version="1.1" xmlns="http://www.w3.org/2000/svg" xmlns:xlink="http://www.w3.org/1999/xlink" width="208" height="32" viewBox="0,0,208,32"><g transform="translate(-240,-164)"><g data-paper-data="{&quot;isPaintingLayer&quot;:true}" fill-rule="nonzero" stroke="none" stroke-linecap="butt" stroke-linejoin="miter" stroke-miterlimit="10" stroke-dasharray="" stroke-dashoffset="0" style="mix-blend-mode: normal"><path d="M240,196v-32h208v32z" fill="none" stroke-width="0"/><path d="M255.03,170.44l1.8457,1.6602c-3.32033,0.6966 -6.78067,1.1914 -10.381,1.4844v2.1777h11.943v1.8848h-3.6035v3.9648h4.6289v1.8848h-18.965v-1.8848h3.7988v-9.7852l0.64453,-0.0391c3.28127,-0.16927 6.64393,-0.61851 10.088,-1.3477zM252.657,177.647h-6.1621v3.9648h6.1621zM240.723,187.735c2.2396,-0.8594 4.20573,-2.15823 5.8984,-3.8965l1.8164,1.2793c-1.9792,1.9792 -4.0202,3.4538 -6.123,4.4238zM257.637,189.3366c-1.82293,-1.44533 -3.84767,-2.7995 -6.0742,-4.0625l1.5137,-1.3574c2.28513,1.0026 4.34567,2.2298 6.1816,3.6816z" fill="#ffffff" stroke-width="1"/><path d="M272.5,173.8v1.1035h6.377v1.582h-6.377v1.0547h5.4394v6.6797h-5.4394v1.1426h7.0801v1.7188h-7.0801v2.4219h-2.0606v-2.4219h-6.7383v-1.7188h6.7383v-1.1426h-5.3613v-6.6797h5.3613v-1.0547h-6.1035v-1.582h6.1035v-1.1035h-6.5625v4.9609c0,4.51173 -0.5664,8.07307 -1.6992,10.684l-1.8359,-1.3672c0.61198,-1.66667 1.01888,-3.44077 1.2207,-5.3223c0.14323,-1.35413 0.21485,-2.90037 0.21485,-4.6387v-5.9766h7.4805v-1.6406h2.1973v1.6406h7.8418v1.6602zM270.4394,178.9172h-3.3203v1.2402h3.3203zM272.5,178.9172v1.2402h3.3789v-1.2402zM270.4394,181.5148h-3.3203v1.3281h3.3203zM272.5,181.5148v1.3281h3.3789v-1.3281z" fill="#ffffff" stroke-width="1"/><path d="M296.76,170.98v9.4629h-11.621v-9.4629zM287.2385,172.523v1.2207h7.4023v-1.2207zM287.2385,175.1207v1.2207h7.4023v-1.2207zM287.2385,177.7183v1.2598h7.4023v-1.2598zM283.3029,181.7417h16.191v1.6992h-8.0762v6.0644h-2.2168v-6.0644h-8.0371v-10.957h2.1387zM280.8029,187.6401c1.54947,-0.71613 3.0306,-1.9173 4.4434,-3.6035l1.7969,1.0449c-1.3932,1.76433 -2.93943,3.15107 -4.6387,4.1602zM297.6389,188.8999c-0.99607,-1.22393 -2.49347,-2.50973 -4.4922,-3.8574l1.6797,-1.1816c1.569,0.90493 3.1087,2.09307 4.6191,3.5644z" fill="#ffffff" stroke-width="1"/><path d="M305.84,184.3c-1.79687,0.944 -3.36263,1.66667 -4.6973,2.168l-0.82031,-2.1484c2.08987,-0.70313 3.92907,-1.4323 5.5176,-2.1875v-4.375h-4.834v-2.0606h4.834v-5.1953h2.1777v19.004h-2.1777zM312.7834,176.6926c1.51693,-0.79427 2.9883,-1.80337 4.4141,-3.0273l1.6211,1.6992c-1.92707,1.3672 -3.9388,2.53257 -6.0352,3.4961v7.3242c0,0.31901 0.10417,0.51433 0.3125,0.58594c0.22136,0.07161 0.73243,0.10742 1.5332,0.10742c1.05467,0 1.71547,-0.06185 1.9824,-0.18555c0.1888,-0.08463 0.31901,-0.3483 0.39062,-0.79101c0.09766,-0.61849 0.16928,-1.61783 0.21485,-2.998l2.1875,0.67383c-0.06513,1.6862 -0.1693,2.89713 -0.3125,3.6328c-0.16276,0.82033 -0.58919,1.35093 -1.2793,1.5918c-0.65755,0.22135 -1.73502,0.33203 -3.2324,0.33203c-1.7578,0 -2.86457,-0.14648 -3.3203,-0.43945c-0.4362,-0.28646 -0.6543,-0.83659 -0.6543,-1.6504v-16.543h2.1777z" fill="#ffffff" stroke-width="1"/><path d="M326.98,172.76h4.1797v1.8848h-1.377c-0.2474,0.99607 -0.57943,2.041 -0.9961,3.1348h2.6074v1.8848h-10.898v-1.8848h2.3926c-0.26042,-1.25 -0.53386,-2.29493 -0.82032,-3.1348h-1.2695v-1.8848h4.1406v-2.2559h2.041zM324.0406,174.6448c0.33203,0.97007 0.58919,2.015 0.77148,3.1348h1.9922l0.0977,-0.27344c0.27995,-0.7422 0.54036,-1.5853 0.78125,-2.5293l0.0879,-0.33203zM330.0953,181.305v7.998h-2.002v-0.95703h-4.2578v1.1621h-2.0605v-8.2031zM323.8355,183.1019v3.3887h4.2578v-3.3887zM336.8825,178.1703c0.77473,0.73567 1.38997,1.61133 1.8457,2.627c0.44922,1.0156 0.67383,2.04423 0.67383,3.0859c0,0.96353 -0.17904,1.67317 -0.53711,2.1289c-0.37109,0.47526 -0.98306,0.71289 -1.8359,0.71289c-0.7292,0 -1.43557,-0.05208 -2.1191,-0.15625l-0.47851,-2.0801c0.78773,0.14323 1.43877,0.21485 1.9531,0.21485c0.39063,0 0.63477,-0.09115 0.73242,-0.27344c0.06513,-0.13021 0.0977,-0.39062 0.0977,-0.78125c0,-1.60807 -0.48177,-2.9948 -1.4453,-4.1602c-0.25391,-0.30599 -0.57292,-0.63476 -0.95704,-0.98633l0.11719,-0.27343c0.67707,-1.52993 1.2044,-3.125 1.582,-4.7852h-2.5v16.064h-2.0215v-18.086h5.8789l1.084,0.99609c-0.65755,2.2396 -1.34765,4.15693 -2.0703,5.752z" fill="#ffffff" stroke-width="1"/></g></g></svg>