<svg xmlns="http://www.w3.org/2000/svg" viewBox="0 0 180 40" version="1.1" height="40" width="180">
 <path style="paint-order:stroke markers fill" stroke-width=".2" stroke-linejoin="round" stroke-linecap="round" stop-color="#000000" fill-opacity="0" fill="none" d="m0 0h180v40h-180z"></path>
 <g aria-label="予想長周期地震動階級" fill="#fff" transform="scale(.95338 1.0489)">
  <path d="m28.448 16.638q0.4174 0.21466 0.96002 0.51281l-0.75729 0.61418h3.5897l0.67381 0.67381q-1.3416 2.0214-2.6773 3.3213l-1.2105-0.70958q1.1747-1.0733 1.8843-2.1347h-2.9695v4.6749q0 0.81095-0.39951 1.0375-0.26833 0.15504-1.0018 0.15504-0.96002 0-2.1168-0.11926l-0.29218-1.3297q1.1151 0.17889 1.9797 0.17889 0.32796 0 0.40548-0.10733 0.05963-0.08944 0.05963-0.32796v-4.1621h-4.9969v-1.1508h6.4638q-2.0155-1.1568-4.0309-1.9558l0.96599-0.76921q1.3536 0.54262 2.3911 1.0554 0.91828-0.6261 1.61-1.2284h-6.3743v-1.1329h8.1095l0.73344 0.71555q-1.5623 1.2582-2.9993 2.1884z"></path>
  <path d="m35.979 17.341q-0.77518 1.4132-1.7948 2.3136l-0.68573-1.1091q1.3357-1.0137 2.254-2.737h-1.9737v-1.0972h2.2003v-1.443h1.282v1.443h1.7233v1.0972h-1.7233v0.72747q1.0614 0.60822 1.8902 1.288l-0.72151 1.0495q-0.56648-0.63207-1.1687-1.127v2.6535h-1.282zm3.6612 2.8622q0.76325 0.72747 1.5026 1.7471l-1.0614 0.75729q-0.82288-1.2701-1.5921-1.9797l0.84673-0.59033v-6.4399h5.0923v6.5055zm0.9004-5.5276v0.91232h2.6535v-0.91232zm0 1.8306v0.9004h2.6535v-0.9004zm0 1.8068v0.91232h2.6535v-0.91232zm-6.8871 5.5455q0.68573-1.121 1.0674-2.7489l1.2403 0.35181q-0.33392 1.9141-1.1449 3.2021zm3.2617-2.737h1.3059v1.9022q0 0.3697 0.17889 0.44125 0.22659 0.08348 1.2522 0.08348 0.97792 0 1.3059-0.06559 0.23852-0.05367 0.30411-0.27429 0.08944-0.29814 0.11926-1.0852l1.3178 0.30411q-0.02385 0.88847-0.13118 1.2701-0.14907 0.54262-0.44125 0.7394-0.25044 0.17292-0.72151 0.20274-0.97791 0.05963-2.0095 0.05963-1.7352 0-2.1168-0.20274-0.36374-0.19678-0.36374-0.8348zm7.2688 3.1961q-0.72151-1.7412-1.604-2.9516l1.0912-0.64996q0.98388 1.3118 1.6815 2.8324z"></path>
  <path d="m54.19 22.171q1.1985 0.84673 3.2617 1.3834l-0.82884 1.1329q-2.7072-0.76325-4.2873-2.5163-0.94214-1.0375-1.3953-2.3673h-1.6815v3.4644q1.5325-0.28026 3.2498-0.7394l0.08348 1.133q-2.8145 0.80499-5.5813 1.2582l-0.42336-1.2343q0.94214-0.11926 1.3178-0.17889v-3.703h-2.0989v-1.0137h2.0989v-5.134h8.2407v1.0018h-6.8871v0.70958h6.3386v0.96599h-6.3386v0.72151h6.3386v0.94214h-6.3386v0.79306h8.1453v1.0137h-1.6279l0.94214 0.81692q-1.1329 0.81692-2.5283 1.5504zm-0.85866-0.70362q1.3774-0.85866 2.3076-1.6636h-3.4764q0.39951 0.92425 1.1687 1.6636z"></path>
  <path d="m66.497 19.703v3.1424h-4.013v0.63207h-1.1985v-3.7745zm-1.2164 0.94214h-2.7966v1.2224h2.7966zm3.5658-6.9468v9.7791q0 0.79306-0.40548 1.0435-0.29218 0.17889-1.0793 0.17889-0.98984 0-1.9737-0.08348l-0.26833-1.2701q1.0554 0.11926 1.9558 0.11926 0.32796 0 0.39355-0.07155 0.05367-0.06559 0.05367-0.31603v-8.2944h-7.2449v3.3571q0 2.9337-0.20274 4.2217-0.21466 1.3953-0.9004 2.5581l-1.0972-0.91829q0.6261-1.127 0.78114-2.6833 0.1133-1.0614 0.1133-2.9814v-4.6391zm-4.335 2.3076h2.3434v0.95406h-2.3434v0.92425h2.5998v0.96599h-6.422v-0.96599h2.564v-0.92425h-2.2957v-0.95406h2.2957v-0.87058h1.2582z"></path>
  <path d="m71.309 14.867v-1.5981h1.1628v1.5981h1.8902v-1.5981h1.1628v1.5981h0.74536v1.0495h-0.74536v4.7524h0.84077v1.0972h-6.1418v-1.0972h1.0852v-4.7524h-0.87654v-1.0495zm3.053 1.0495h-1.8902v0.98984h1.8902zm0 1.8664h-1.8902v0.9958h1.8902zm0 1.8604h-1.8902v1.0256h1.8902zm7.0183-5.945v9.964q0 0.63207-0.32796 0.89443-0.26833 0.21466-0.88251 0.21466-0.85269 0-1.4132-0.07155l-0.24448-1.2462q0.85866 0.10137 1.2164 0.10137 0.27429 0 0.35181-0.10137 0.06559-0.08944 0.06559-0.30411v-2.5283h-2.1824q-0.07752 1.1985-0.26833 1.9678-0.31007 1.2462-1.1628 2.3076l-0.96599-0.85866q0.74536-0.93617 1.0018-2.248 0.18485-0.94214 0.18485-2.3017v-5.79zm-1.2343 1.1628h-2.1586v1.7531h2.1586zm0 2.8383h-2.1586v1.8366h2.1586zm-9.9878 6.3266q1.0375-0.88251 1.6636-2.087l1.0852 0.56051q-0.7871 1.5682-1.7948 2.409zm4.7763 0.14907q-0.39951-0.87654-1.127-1.6875l0.95406-0.65592q0.64996 0.63207 1.1389 1.4132z"></path>
  <path d="m88.387 18.099v4.7226q0 0.45914 0.39355 0.55455 0.40548 0.10137 1.8545 0.10137 1.4132 0 1.8664-0.14311 0.2564-0.08348 0.33392-0.46511 0.10137-0.53666 0.10733-1.2701l1.2462 0.35181q-0.09541 1.7591-0.48299 2.248-0.2564 0.322-0.77518 0.38162-0.81692 0.08944-2.7727 0.08944-1.5146 0-1.9856-0.08348-0.70958-0.11926-0.9004-0.6261-0.09541-0.26833-0.09541-0.71555v-4.7286l-1.1389 0.39355-0.28026-1.1568 1.4192-0.48896v-3.214h1.2105v2.7966l1.282-0.43529v-3.1424h1.1985v2.725l1.9976-0.68573 0.6261 0.38162v4.4662q0 0.46511-0.22063 0.6917-0.25044 0.25044-0.84077 0.25044-0.48299 0-1.0256-0.08348l-0.19678-1.1389q0.35181 0.08944 0.71555 0.08944 0.26237 0 0.322-0.10733 0.05963-0.08944 0.05963-0.29814v-2.8204l-1.4371 0.50088v4.824h-1.1985v-4.4125zm-4.3827-1.9499v-2.8801h1.282v2.8801h1.1568v1.2105h-1.1568v3.7924q0.6261-0.21466 1.2403-0.44722l0.1133 1.1508q-1.932 0.88251-3.9653 1.4788l-0.4174-1.2701q0.91828-0.23852 1.61-0.45318 0.08348-0.02981 0.13715-0.04174v-4.2098h-1.5146v-1.2105z"></path>
  <path d="m99.782 14.879v-0.51281h-3.7268v-0.85269h8.8012v0.85269h-3.8043v0.51281h4.9373v2.1407h-1.2939v-1.3715h-3.6433v2.3196h-1.2701v-2.3196h-3.5777v1.3715h-1.282v-2.1407zm4.2217 8.4613q0.91232 0.34585 2.2778 0.54859l-0.69765 1.0137q-1.9141-0.32796-3.1424-1.127-1.2224-0.79903-1.9022-1.9856h-1.3178v1.8366q1.3178-0.18485 2.4448-0.39355l0.0835 0.88847q-2.099 0.50088-4.8001 0.87058l-0.35181-1.0495q0.93617-0.10137 1.282-0.14311l0.07155-0.01193v-1.9976h-1.3059q-0.08348 1.0495-0.27429 1.6756-0.22659 0.75132-0.72747 1.4013l-1.0614-0.87654q0.58436-0.75729 0.72747-1.771 0.07752-0.54859 0.07752-1.3655v-2.5283h10.292v0.79306h-9.0099v1.8306h9.5227v0.84077h-1.3536l0.75728 0.50088q-0.6738 0.56051-1.5921 1.0495zm-0.93021-0.45914q0.85866-0.58436 1.3655-1.0912h-2.6058q0.51281 0.65592 1.2403 1.0912zm-6.3445-6.7917h2.5402v0.67381h-2.5402zm0 1.0972h2.5402v0.68573h-2.5402zm4.8359-1.0972h2.6177v0.67381h-2.6177zm0 1.0972h2.6177v0.68573h-2.6177zm-4.186 2.4329h7.4238v0.78114h-7.4238z"></path>
  <path d="m114.82 15.797 0.0596-2.5283h1.1985l-0.0537 2.5283h2.2599q-0.0596 6.6665-0.50088 8.0738-0.19081 0.60822-0.6917 0.77518-0.2564 0.08944-0.76325 0.08944-0.66188 0-1.2522-0.08348l-0.23256-1.2582q0.68574 0.13118 1.2105 0.13118 0.42337 0 0.54262-0.23255 0.1133-0.22659 0.22063-1.0972 0.21466-1.7292 0.27429-4.9253l6e-3 -0.29814h-1.1508q-0.10137 2.6475-0.63207 4.3887-0.64995 2.1228-2.0333 3.5241l-0.97792-0.75729q0.29218-0.27429 0.47107-0.48896-2.9814 0.54262-5.7124 0.80499l-0.26833-1.127q1.4848-0.08944 2.8204-0.22063v-0.82884h-2.564v-0.94214h2.564v-0.67977h-2.2838v-3.9176h2.2838v-0.66188h-2.7489v-0.93021h2.7489v-0.5307q-0.9004 0.08944-2.0512 0.15504l-0.42932-0.91828q2.8622-0.11926 5.1102-0.62014l0.67977 0.86462q-0.97195 0.24448-2.1347 0.38759v0.66188h2.6714v0.66188zm-0.0537 1.1747h-1.3297v-0.90636h-2.6475v0.66188h2.3196v3.9176h-2.3196v0.67977h2.4686v0.94214h-2.4686v0.70958l0.50088-0.0477q1.0018-0.10137 2.1645-0.29814 1.121-2.0453 1.2999-5.4978zm-5.1162 0.56051h-1.294v0.75729h1.294zm1.1031 0v0.75729h1.3297v-0.75729zm-1.1031 1.4907h-1.294v0.81692h1.294zm1.1031 0v0.81692h1.3297v-0.81692z"></path>
  <path d="m123.2 17.3v-3.8699h1.1986v1.2701h1.9558v1.0733h-1.9558v1.3417q0.79306-0.13118 1.9439-0.36374l0.0596 0.98984q-1.5563 0.43529-3.7149 0.76921l-0.35181-1.0912q0.25044-0.02981 0.63802-0.08348zm-1.3297 0.11926q0.93021 1.3417 0.93021 2.9874 0 0.75132-0.161 1.1449-0.25044 0.59629-1.1568 0.59629-0.34585 0-0.63803-0.05963l-0.28025-1.1747q0.37566 0.07752 0.64399 0.07752 0.29814 0 0.3697-0.14311 0.0537-0.10733 0.0537-0.38759 0-1.6756-0.84673-2.9159 0.41144-1.1389 0.75729-2.8622h-1.0256v10.191h-1.1747v-11.288h2.8204l0.63803 0.50088q-0.39951 1.9499-0.93021 3.3333zm5.9808-2.6952q1.0972-0.39951 1.9081-0.89443l0.75729 0.97791q-1.1508 0.55455-2.6654 0.96599v1.0614q0 0.26833 0.17292 0.322 0.17293 0.05367 0.72748 0.05367 0.44721 0 0.59032-0.05963 0.19081-0.07155 0.25044-0.41144 0.0417-0.26833 0.0656-0.87058l1.0852 0.32796q-6e-3 1.3357-0.35181 1.7233-0.21466 0.23852-0.65592 0.29814-0.49492 0.06559-1.2761 0.06559-1.1508 0-1.4907-0.25044-0.30411-0.22063-0.30411-0.76921v-3.9117h1.1866zm-2.4269 4.4901q0.22659-0.54262 0.32796-1.0852l1.2582 0.14311q-0.11926 0.38759-0.38759 0.94214h3.3213v5.6588h-1.2939v-0.63803h-4.1084v0.63803h-1.282v-5.6588zm-0.88251 0.97791v1.0137h4.1084v-1.0137zm0 1.9439v1.0972h4.1084v-1.0972z"></path>
  <path d="m138.32 19.106q-0.22659 1.8306-0.60225 2.9457-0.56051 1.6696-1.5205 2.7966l-0.79306-1.0018q1.1926-1.3834 1.6517-4.0071 0.20274-1.1866 0.29218-2.7906 0.0656-1.2939 0.0656-1.9558h-1.0196v-1.1747h4.7763l0.60822 0.50088q-0.38759 1.765-0.78114 3.0232h1.443q-0.35181 2.6535-1.3595 4.4125 0.85865 0.98388 2.0393 1.6875l-0.78114 1.2045q-1.1031-0.75132-1.9856-1.8127-0.8527 1.0793-2.2361 2.0095l-0.87058-1.0256q0.98984-0.56648 1.5682-1.121 0.36374-0.34585 0.77518-0.88847-0.82288-1.2761-1.2701-2.8026zm0.22063-3.4585q0.43529 3.1246 1.7352 5.146 0.49492-1.0137 0.76325-2.2242h-1.6517q0.56051-1.5563 0.98984-3.4764h-1.8306q0 0.26833-6e-3 0.55455zm-5.5038 2.0989q-0.77518-1.0912-1.7233-2.0095l0.73344-0.85269q0.12522 0.11926 0.25044 0.24448l0.0775 0.07752q0.64995-0.91232 1.1985-2.0095l1.0733 0.59629q-0.66784 1.0733-1.5921 2.1765 0.4651 0.5784 0.70362 0.90636 0.91232-1.1091 1.7054-2.2957l0.94213 0.67977q-1.2403 1.7113-2.8026 3.3154 1.0137-0.06559 1.7531-0.13715-0.16099-0.46511-0.38162-0.95406l0.96599-0.38162q0.53666 1.1091 0.91828 2.6177l-1.0018 0.43529q-0.10137-0.4174-0.22063-0.82884-0.27429 0.0477-0.88251 0.13118l-0.15503 0.02385v5.3905h-1.1985v-5.2533l-0.14311 0.01789q-0.87655 0.08944-1.7471 0.14311l-0.24448-1.1091 0.39951-0.01192q0.2743-0.01193 0.5784-0.02385 0.36374-0.38759 0.79307-0.88847zm-1.7233 5.7303q0.42933-1.5086 0.53666-3.1246l1.127 0.14311q-0.0894 2.0453-0.53666 3.4943zm3.9594-0.74536q-0.12522-1.1329-0.42933-2.1824l0.97792-0.31007q0.31603 1.0435 0.48896 2.0274z"></path>
 </g>
</svg>
