<svg version="1.1" xmlns="http://www.w3.org/2000/svg" xmlns:xlink="http://www.w3.org/1999/xlink" width="400" height="400" viewBox="0,0,400,400"><defs><radialGradient cx="240" cy="180" r="200" gradientUnits="userSpaceOnUse" id="color-1"><stop offset="0" stop-color="#e54812"/><stop offset="0.4" stop-color="#e54812"/><stop offset="0.55" stop-color="#e54812" stop-opacity="0.56078"/><stop offset="0.7" stop-color="#e54812" stop-opacity="0.25098"/><stop offset="0.85" stop-color="#e54812" stop-opacity="0.05882"/><stop offset="1" stop-color="#e54812" stop-opacity="0"/></radialGradient></defs><g transform="translate(-40,20)"><g data-paper-data="{&quot;isPaintingLayer&quot;:true}" stroke-miterlimit="10" stroke-dasharray="" stroke-dashoffset="0" style="mix-blend-mode: normal"><g><path d="M40,380v-400h400v400z" fill="none" fill-rule="nonzero" stroke="none" stroke-width="0" stroke-linecap="butt" stroke-linejoin="miter"/><path d="M40,180c0,-110.46 89.543,-200 200,-200c110.457,0 200,89.543 200,200c0,110.457 -89.543,200 -200,200c-110.457,0 -200,-89.543 -200,-200z" fill="url(#color-1)" fill-rule="evenodd" stroke="none" stroke-width="1" stroke-linecap="butt" stroke-linejoin="miter" opacity="0.04"/><path d="M324.5,180c0,58.335 -26.165,84.5 -84.5,84.5c-58.335,0 -84.5,-26.165 -84.5,-84.5c0,-58.335 26.165,-84.5 84.5,-84.5c58.335,0 84.5,26.165 84.5,84.5z" fill="#e54812" fill-rule="evenodd" stroke="#f59a7c" stroke-width="15" stroke-linecap="round" stroke-linejoin="round"/></g><path d="M239.97116,124.69913c8.125,0 15.2295,1.5466 21.266,4.6719l0.002,0.002h0.002c5.2232,2.7399 9.2903,6.4982 12.134,11.238l0.004,0.006l0.002,0.004c2.6255,4.477 3.9463,9.3517 3.9463,14.558c0,6.873 -2.6416,13.2594 -7.8112,19.027c-3.492,3.922 -9.841,8.9719 -19.122,15.285l-0.002,0.002l-4.0012,2.6883l-0.002,0.002c-9.7728,6.6125 -16.2227,11.5405 -19.228,14.626v0.002c-3.2547,3.3255 -5.3383,6.2681 -6.6593,8.9176h57.827v16.945h-76.838v-15.253l0.0455,-0.14398c4.061,-12.609 15.037,-24.762 32.768,-36.582l3.4405,-2.3151h0.002c7.5524,-5.0215 12.723,-9.1373 15.44,-12.214c3.0441,-3.4443 4.509,-7.064 4.509,-10.986c0,-3.5535 -1.0614,-6.5471 -3.215,-9.1316v-0.002l-0.002,-0.002c-3.216,-3.8831 -7.9716,-5.837 -14.569,-5.837c-9.858,0 -18.6738,4.0773 -26.62,12.392l-0.65739,0.68771l-12.129,-11.144l0.58163,-0.70856c2.9036,-3.5447 6.3666,-6.5366 10.374,-8.9668c8.528,-5.1764 18.056,-7.7676 28.511,-7.7676z" fill="#ffffff" fill-rule="nonzero" stroke="none" stroke-width="1" stroke-linecap="butt" stroke-linejoin="miter"/></g></g></svg>