<svg version="1.1" xmlns="http://www.w3.org/2000/svg" xmlns:xlink="http://www.w3.org/1999/xlink" width="64" height="64" viewBox="0,0,64,64"><g transform="translate(-208,-148)"><g data-paper-data="{&quot;isPaintingLayer&quot;:true}" fill-rule="nonzero" stroke="none" stroke-width="1" stroke-linecap="butt" stroke-linejoin="miter" stroke-miterlimit="10" stroke-dasharray="" stroke-dashoffset="0" style="mix-blend-mode: normal"><path d="M208,212v-64h64v64z" fill="none" opacity="0.988"/><path d="M223.65233,166.52684h13.4v3.2402h-9.9609v7.4473c0.20245,-0.17499 0.41474,-0.33984 0.64062,-0.48828c0.9225,-0.60621 1.9492,-0.91097 3.0801,-0.91797v-0.002c0.00737,0 0.01408,0.00198 0.02148,0.002c0.00601,-0.0001 0.01158,-0.002 0.01758,-0.002v0.002c1.317,0.00609 2.4899,0.31079 3.5195,0.91797c1.0667,0.6133 1.89383,1.4672 2.4805,2.5605c0.61333,1.0666 0.91992,2.2806 0.91992,3.6406v4.6387c0,1.4933 -0.33333,2.8267 -1,4c-0.64,1.1734 -1.5187,2.10747 -2.6387,2.8008c-1.0825,0.66005 -2.3246,0.99145 -3.7207,0.99805v0.002c-0.00731,0 -0.01418,-0.00198 -0.02148,-0.002c-0.0067,0.0001 -0.01283,0.002 -0.01953,0.002v-0.002c-1.2107,-0.00569 -2.3312,-0.2569 -3.3594,-0.75781c-1.04,-0.5067 -1.89383,-1.21443 -2.5605,-2.1211c-0.63998,-0.9067 -1.0392,-1.9334 -1.1992,-3.0801l3.3594,-0.67969c0.1333,1.1733 0.5612,2.05393 1.2812,2.6406c0.714,0.55529 1.54617,0.83319 2.4961,0.83789c1.1908,-0.0043 2.10742,-0.41593 2.7441,-1.2383c0.66667,-0.8267 1,-1.9604 1,-3.4004v-4.6387c0,-1.2 -0.3601,-2.18757 -1.0801,-2.9609c-0.7151,-0.76804 -1.6159,-1.1529 -2.6992,-1.1582c-0.9253,0.0048 -1.70599,0.37732 -2.3418,1.1191c-0.61333,0.7467 -0.91992,1.7056 -0.91992,2.8789h-3.4394v-16.279z" fill="#ff0000"/><path d="M249.49599,165.92801c2.1867,0 3.9212,0.6523 5.2012,1.959c1.27998,1.28 1.9199,3.0145 1.9199,5.2012v1.1191c0,2.1067 -0.6399,3.8001 -1.9199,5.0801c-0.16467,0.16467 -0.3379,0.31745 -0.51758,0.46094c0.28205,0.1993 0.55149,0.41282 0.79687,0.6582c1.33333,1.3067 2,3.1338 2,5.4805v1.7598c0,2.4267 -0.6667,4.3197 -2,5.6797c-1.3067,1.33333 -3.1338,2 -5.4805,2c-2.3466,0 -4.1862,-0.6667 -5.5195,-2c-1.30668,-1.36 -1.959,-3.253 -1.959,-5.6797v-1.7598c0,-2.3467 0.6523,-4.1738 1.959,-5.4805c0.25551,-0.2504 0.53541,-0.46947 0.82813,-0.67188c-0.17589,-0.13952 -0.34514,-0.28792 -0.50781,-0.44727c-1.27998,-1.28 -1.9199,-2.9734 -1.9199,-5.0801v-1.1191c0,-2.1867 0.6399,-3.9212 1.9199,-5.2012c1.3066,-1.30668 3.0392,-1.959 5.1992,-1.959zM249.49596,169.0882c-0.7466,0 -1.38657,0.15852 -1.9199,0.47852c-0.50666,0.2933 -0.89153,0.74797 -1.1582,1.3613c-0.26667,0.6133 -0.40039,1.3602 -0.40039,2.2402v1.1582c0,1.3334 0.29224,2.3601 0.87891,3.0801c0.6133,0.69332 1.4796,1.041 2.5996,1.041c1.1467,0 2.01493,-0.34767 2.6016,-1.041c0.58667,-0.72 0.87891,-1.7468 0.87891,-3.0801v-1.1582c0,-0.88 -0.13372,-1.62687 -0.40039,-2.2402c-0.26666,-0.6133 -0.65153,-1.06797 -1.1582,-1.3613c-0.5067,-0.32 -1.14857,-0.47852 -1.9219,-0.47852zM249.49602,181.2072c-1.2,0 -2.14647,0.3992 -2.8398,1.1992c-0.66667,0.8 -1,1.9337 -1,3.4004v1.7598c0,0.96 0.14808,1.78717 0.44141,2.4805c0.32,0.69332 0.7603,1.22627 1.3203,1.5996c0.5866,0.34666 1.2781,0.52148 2.0781,0.52148c0.8,0 1.481,-0.17481 2.041,-0.52148c0.58665,-0.3733 1.02697,-0.90627 1.3203,-1.5996c0.32,-0.6934 0.48047,-1.5205 0.48047,-2.4805v-1.7598c0,-1.4667 -0.33333,-2.6004 -1,-3.4004c-0.6667,-0.79998 -1.6151,-1.1992 -2.8418,-1.1992z" fill="#ff0000"/></g></g></svg>