<svg version="1.1" xmlns="http://www.w3.org/2000/svg" xmlns:xlink="http://www.w3.org/1999/xlink" width="52.95786" height="47.79812" viewBox="0,0,52.95786,47.79812"><g transform="translate(-249.86766,-120.70579)"><g data-paper-data="{&quot;isPaintingLayer&quot;:true}" fill="#ff0000" fill-rule="evenodd" stroke="none" stroke-width="0" stroke-linecap="round" stroke-linejoin="round" stroke-miterlimit="10" stroke-dasharray="" stroke-dashoffset="0" style="mix-blend-mode: normal"><path d="M293.35588,125.00568l0.21999,1.77993l1.63994,3.19987l1.08996,1.48995l2.4199,0.06l0.61997,2.92988l0.56998,1.01996l-0.58998,0.98996l0.39999,1.27994l1.74993,0.50998l1.16996,2.05992l-0.12,1.05996l-1.54994,3.59985l-1.99992,1.60994l-1.16995,-0.75997l-0.89996,0.40998l0.43998,1.92992l-0.96996,0.46998l-0.17999,1.75993l1.42994,0.25999l1.38995,1.32994l0.27999,1.24995l1.05995,2.11991l1.61994,0.54998l0.37999,1.12995l-0.28999,2.22991l0.75997,1.52994l-1.27994,0.91996l-2.5999,-0.85996l-1.06995,0.42998l-1.41994,-0.61998l-0.71997,-1.01996l-1.93992,0.01l-0.54998,-0.53998l-0.93996,0.57997l-0.93997,1.34995l-0.17999,1.17995l-1.78993,1.32995l-0.02,1.87992l-1.30994,0.1l-0.62997,0.54998l-1.09996,-0.49998l-1.14995,0.37998l-0.50998,-0.71997l-1.11996,-0.31998l-1.02996,-0.98997l-0.86997,0.89997l-1.91992,0.57998l-0.86996,0.70997l-0.69997,1.55993l-0.52998,0.24999l-1.80993,-0.88996l-1.60993,0.88996l-0.21,0.55998l-1.28994,-0.51998l-2.84989,-0.01l-1.24995,-0.23999l-0.73997,0.54998l-0.58997,-0.77997l-3.29987,0.30998l-2.14991,-0.72997l-2.86989,-2.5899l-1.53994,-0.79997l-0.33998,-1.83992l-2.88989,-0.55998l-0.50998,-0.82997l-0.22999,-1.54994l-0.47998,-1.23995l-1.87993,0.07999l-1.22995,-0.98996l0.75996,-1.50994l-0.53997,-0.44998l0.57997,-2.15992l-0.27999,-1.56993l0.69997,-0.75997l-0.10999,-1.56994l1.44994,-2.02992l-0.12,-1.46994l-0.51998,-0.34998l1.37995,-1.86993l-1.14996,-1.97992l0.32999,-1.83992l3.16987,-1.42995l0.62998,-1.17995l1.02996,-1.01996l0.66997,1.56993l0.60998,0.73997l0.54998,1.63993l1.31995,0.18l1.68993,-0.99996l-0.35999,-0.82997l0.45998,-1.03996l0.78997,-0.61998l1.14996,-2.16992l1.78993,-0.75997l0.25999,-0.95996l-1.74993,-0.54998l-0.37998,-1.59994l0.87996,-1.07995l-0.70997,-2.4999l1.88993,-0.47998l-0.30999,-0.97996l0.44998,-0.91996l1.55993,-1.06996l2.79989,-0.73997l0.85996,-1.12995l1.19995,-0.02l0.96996,0.42998l2.33991,-0.97996l1.23995,1.31994l1.02996,-0.68997l1.38995,1.01996l0.38998,0.85996l0.93996,0.06l1.13995,1.17996l-0.29999,1.83992l0.46998,1.08995l0.95996,0.22999l1.62994,-0.11l1.22995,0.37999l1.23995,-0.60998l0.54998,-0.79996l1.88992,-0.1l0.92996,0.48998l1.27995,-0.62997l1.43994,-1.22995"/></g></g></svg>