<svg version="1.1" xmlns="http://www.w3.org/2000/svg" xmlns:xlink="http://www.w3.org/1999/xlink" width="240.44301" height="138.56934" viewBox="0,0,240.44301,138.56934"><g transform="translate(-328.22067,-90.26528)"><g data-paper-data="{&quot;isPaintingLayer&quot;:true}" fill="none" fill-rule="evenodd" stroke="#d645ff" stroke-width="72" stroke-linecap="round" stroke-linejoin="round" stroke-miterlimit="4" stroke-dasharray="" stroke-dashoffset="0" style="mix-blend-mode: normal"><g><path d="M532.66368,138.27335v0"/><path d="M526.8546,126.26528l-0.21996,1.31979l-3.24948,3.98936l0.24996,3.57943l-0.52992,2.66957l2.61958,0.25996l-0.26996,3.7494l-1.46976,1.58975l2.27964,3.80939l2.25964,0.07999l0.12998,1.66973l1.49976,-0.07999l0.33995,3.05951l-1.61974,3.96936l0.03,2.27964l-2.99952,1.2598l-2.5196,3.38946l0.13998,2.67957l-2.01968,4.23932l-5.34914,4.05935l-0.34994,1.8697l-2.12966,3.22948l-0.57991,3.94937l1.05983,1.55975l-0.75988,1.33979l-2.09966,-0.19997l0.29995,-2.65957l-4.26932,3.23948l-1.15981,2.5296l-5.5991,1.98968l-0.26996,1.2398l-2.05967,-0.43993l-1.67973,-2.68957l-3.05951,-1.38978l-0.43993,-1.8797l1.83971,-0.96984l-3.59942,-3.45945l-1.36978,0.51992l-0.03999,-4.46928l1.47976,-2.83955l1.90969,-0.84986l-0.79987,-3.33947l-1.46976,-2.09966l1.01984,-1.67973l-1.20981,-0.93985l1.63974,-1.17981l-0.77988,-1.33979l1.42977,-1.92969l-1.64974,-0.6399l-0.09998,-2.80955l3.26948,-2.53959l-2.71956,-7.59878l1.77972,-3.98936l0.35994,-2.87954l2.79955,0.68989l1.74972,-0.52992l1.52976,1.12982l3.87938,-1.31979l1.91969,-2.97952l-1.65973,0.02l-4.04935,-5.50912l-3.70941,-2.64958l-6.95889,-2.19965l-4.04935,-0.03l-6.43897,2.37962l-5.53911,0.40993l-2.20965,1.29979l-3.23948,7.11886l-2.38962,0.84986l-0.40993,2.31963l2.00968,-0.50992l1.76972,0.96984l-0.67989,2.19965l-1.91969,2.11966l-4.48928,2.5096l-5.14918,1.97968l-1.57975,1.47976l-3.78939,1.65973l-2.98952,5.82907l0.96984,4.72924l-4.80923,8.02872l-5.47912,3.63942l-1.77972,2.29963l-2.10966,5.95905l-0.11998,3.1095l3.29947,5.33915l-4.62926,-1.41977l-9.49848,-4.07935l-6.75892,-2.11966l-3.48944,-0.72988l-6.19901,-0.49992l-7.90873,1.38978l-3.1095,1.09982l-3.36946,-0.01l-3.37946,-1.39978l-8.39866,-1.59974l-8.82859,-0.96984l-8.63862,0.73988"/></g></g></g></svg>