<svg xmlns="http://www.w3.org/2000/svg" viewBox="0 0 120 60" version="1.1" height="60" width="120">
 <rect style="paint-order:stroke markers fill" stop-color="#000000" opacity=".80769" fill="none" height="60" width="120"></rect>
 <g aria-label="-3" fill="#fff">
  <path d="m61.025 18.479h4.6758v1.4014h-4.6758z"></path>
  <path d="m70.015 17.748h0.9502q1.2031 0 1.9346-0.43066 0.89551-0.52637 0.89551-1.4424 0-0.75879-0.65625-1.2031-0.58106-0.38965-1.4492-0.38965-1.5723 0-3.0215 1.2031l-0.99121-1.2236q1.7568-1.4082 4.1357-1.4082 1.5928 0 2.6182 0.65625 1.2373 0.7998 1.2373 2.2627 0 1.1211-0.85449 1.9209-0.66309 0.61524-1.75 0.77246v0.05469q1.4082 0.23242 2.1533 0.92969 0.77246 0.72461 0.77246 1.9346 0 1.7637-1.4287 2.6387-1.0732 0.65625-2.8164 0.65625-2.748 0-4.457-1.6816l1.0322-1.2305q0.54688 0.58106 1.4082 0.95703 1.0459 0.45801 2.0303 0.45801 1.1074 0 1.7295-0.46484 0.60156-0.44434 0.60156-1.3604 0-1.2578-1.21-1.7842-0.81348-0.35547-1.9551-0.35547h-0.90918z"></path>
 </g>
</svg>
