<svg version="1.1" xmlns="http://www.w3.org/2000/svg" xmlns:xlink="http://www.w3.org/1999/xlink" width="131.42475" height="141.62304" viewBox="0,0,131.42475,141.62304"><g transform="translate(-103.50944,-209.15922)"><g data-paper-data="{&quot;isPaintingLayer&quot;:true}" fill="none" fill-rule="evenodd" stroke="#fc3324" stroke-width="36" stroke-linecap="round" stroke-linejoin="round" stroke-miterlimit="4" stroke-dasharray="" stroke-dashoffset="0" style="mix-blend-mode: normal"><g><path d="M196.9174,327.22312l0.23996,0.60991l4.86922,0.45992l-3.09951,2.81955l-0.68989,-1.30979l-2.4796,-0.21997l1.15981,-2.35962"/><path d="M216.93419,298.17777l-3.28947,5.20916l-0.01,2.93953l-3.98937,1.21981l1.01984,1.9197l-2.40962,2.4796l0.56991,1.59975l1.71972,-1.05983l0.60991,3.1395l-2.64958,0.09998l-3.57943,2.5596l3.09951,-0.75988l-1.08983,1.52976l-3.7494,1.8997l-3.64941,2.63958l-1.2698,-0.35994l-2.54959,1.73972l-1.73972,3.59942l1.41977,2.36962l-1.00984,1.46976l-1.67973,-1.05983l-0.83987,1.42978l-1.07982,-1.57975l2.4996,-1.49976l-0.42993,-2.19965l-1.2498,-0.6399l-3.38946,0.84987l-2.51959,-1.91969l-3.62942,0.27995l-3.43945,-2.15965l-5.04919,0.17998l-6.80892,-2.22965l0.40994,-0.6599l-3.97936,-2.32963l-2.82955,0.22996l-0.22996,-1.69973l-3.38946,-1.48976l-2.39961,-2.91953l1.15981,-3.27947l-1.56975,-2.86954l-2.88954,-0.43993l-2.23964,-1.48976l2.18965,-3.1195l1.99968,0.41994l2.09966,-3.05951l-4.23932,-3.7894l-2.22965,-0.03999l-1.68973,-2.70956l-1.08983,0.33995l-3.02952,-1.90969l-3.59942,0.11998l-0.15997,-2.24964l-4.69925,-2.30963l-2.29964,-3.1195l-1.33978,-4.08934l-3.58943,-1.69973l-5.6291,1.52975l0.52991,-3.0695l2.10967,-0.6199l-1.86971,-1.82971l4.55928,-4.3693l-3.05951,0.85986l1.28979,-4.51927l5.82907,-1.95968l-1.17982,-1.19981l3.03952,-0.83987l-1.2298,-2.52959l-1.14982,0.23996l-1.06983,-2.34962l-3.1095,-0.77988l-1.60974,0.51992l2.59958,-6.29899l2.90954,1.13982l-1.2398,-1.50976l0.41993,-1.98968l3.68941,0.15997l1.20981,-1.32979l-0.41994,-4.65925l-2.84954,0.56991l-1.21981,-5.24916l-2.29963,-2.51959l-2.68957,-1.74972l-2.82954,-0.46992l1.31978,-1.95968v-2.94953l1.84971,-0.80987"/></g></g></g></svg>