<svg version="1.1" xmlns="http://www.w3.org/2000/svg" xmlns:xlink="http://www.w3.org/1999/xlink" width="208" height="32" viewBox="0,0,208,32"><g transform="translate(-240,-164)"><g data-paper-data="{&quot;isPaintingLayer&quot;:true}" fill-rule="nonzero" stroke="none" stroke-linecap="butt" stroke-linejoin="miter" stroke-miterlimit="10" stroke-dasharray="" stroke-dashoffset="0" style="mix-blend-mode: normal"><path d="M240,196v-32h208v32z" fill="none" stroke-width="0"/><path d="M252.63,171.11h2.1973v3.9453h3.916v2.002h-3.916v0.61523c0,3.32033 -0.47527,5.81383 -1.4258,7.4805c-0.918,1.60153 -2.53583,2.82873 -4.8535,3.6816l-1.3672,-1.7383c2.2656,-0.78127 3.78253,-1.9857 4.5508,-3.6133c0.59895,-1.25653 0.89843,-3.1836 0.89843,-5.7812v-0.64453h-5.9277v5.5957h-2.1973v-5.5957h-3.6426v-2.002h3.6426v-3.7988h2.1973v3.7988h5.9277z" fill="#ffffff" stroke-width="1"/><path d="M260.33,186.51c1.1328,-1.66667 2.1061,-3.70767 2.9199,-6.123c0.8854,-2.6432 1.4453,-5.32873 1.6797,-8.0566l2.2363,0.45899c-0.57943,3.9974 -1.35743,7.35673 -2.334,10.078c-0.70313,1.9792 -1.569,3.71423 -2.5976,5.2051zM276.287,188.1702c-1.1784,-1.95967 -2.24937,-4.3197 -3.2129,-7.0801c-0.918,-2.6172 -1.6667,-5.39063 -2.2461,-8.3203l2.0996,-0.6543c1.1198,5.63153 2.88737,10.49153 5.3027,14.58z" fill="#ffffff" stroke-width="1"/><path d="M281.42,171.32h2.2754v10.684h-2.2754zM291.449,171.11492h2.2754v6.9824c0,2.4544 -0.19857,4.28057 -0.5957,5.4785c-0.33203,1.02213 -0.7845,1.83593 -1.3574,2.4414c-1.1914,1.28253 -3.10547,2.2298 -5.7422,2.8418l-1.123,-2.002c2.88413,-0.58594 4.7331,-1.55924 5.5469,-2.9199c0.51432,-0.86587 0.82356,-1.9596 0.92773,-3.2812c0.0456,-0.61198 0.0684,-1.45835 0.0684,-2.5391z" fill="#ffffff" stroke-width="1"/><path d="M304.54,176.36c-2.05727,-0.918 -4.19593,-1.65367 -6.416,-2.207l0.68359,-2.0996c2.5716,0.58594 4.7298,1.31511 6.4746,2.1875zM298.3681,186.0768c3.22267,-0.27344 5.6901,-0.84961 7.4023,-1.7285c2.01827,-1.04167 3.56773,-2.63997 4.6484,-4.7949c0.70313,-1.3932 1.2728,-3.21613 1.709,-5.4688l1.875,1.377c-0.52735,2.40887 -1.16538,4.32293 -1.9141,5.7422c-1.35413,2.58467 -3.42443,4.4564 -6.2109,5.6152c-1.7578,0.7292 -4.10807,1.25003 -7.0508,1.5625z" fill="#ffffff" stroke-width="1"/><path d="M321.44,176.07v-2.7344h-5.8203v-1.8848h18.779v1.8848h-6.4551v2.7344h5.4785v13.164h-2.1191v-1.377h-12.607v1.377h-2.0996v-13.164zM323.4615,176.07h2.4609v-2.7344h-2.4609zM321.4303,177.8473h-2.7344v8.1543h12.607v-2.9297h-3.7012c-1.1198,0 -1.6797,-0.5599 -1.6797,-1.6797v-3.5449h-2.4805c-0.02607,1.6016 -0.26695,2.88417 -0.72266,3.8477c-0.42969,0.918 -1.27605,1.8262 -2.5391,2.7246l-1.3477,-1.5039c1.21093,-0.7422 1.9759,-1.66017 2.2949,-2.7539c0.16927,-0.58594 0.27018,-1.35744 0.30273,-2.3145zM327.944,177.8473v2.9883c0,0.25391 0.11393,0.38086 0.3418,0.38086h3.0176v-3.3691z" fill="#ffffff" stroke-width="1"/><path d="M344.48,175.76c-0.0456,1.08727 -0.1107,2.0443 -0.19531,2.8711h7.8711c-0.09765,4.51827 -0.35156,7.4512 -0.76172,8.7988c-0.20833,0.67707 -0.5957,1.1458 -1.1621,1.4062c-0.44271,0.20182 -1.09051,0.30273 -1.9434,0.30273c-0.89847,0 -1.91733,-0.06836 -3.0566,-0.20507l-0.38085,-2.1973c1.52993,0.21485 2.6074,0.32227 3.2324,0.32227c0.52734,0 0.86264,-0.14974 1.0059,-0.44922c0.34505,-0.7292 0.58593,-2.74093 0.72265,-6.0352h-5.8105c-0.21485,1.17187 -0.51758,2.1875 -0.90821,3.0469c-1.08727,2.37627 -2.90367,4.26103 -5.4492,5.6543l-1.543,-1.7188c2.55207,-1.32813 4.23827,-3.06967 5.0586,-5.2246c0.54687,-1.4388 0.90167,-3.62957 1.0644,-6.5723h-6.4648v-2.002h7.9785v-3.2617h2.2559v3.2617h8.2422v2.002z" fill="#ffffff" stroke-width="1"/><path d="M366.58,174.14v-3.6426h2.0996v3.6426h5.293v8.8379h-5.293v6.5234h-2.0996v-6.5234h-5.1856v-8.8379zM363.4159,176.0834v4.9707h3.1641v-4.9707zM371.8925,181.0541v-4.9707h-3.2129v4.9707zM359.3925,175.2729c-0.79427,-1.1068 -1.8457,-2.16473 -3.1543,-3.1738l1.4551,-1.4844c1.30207,0.918 2.40233,1.94663 3.3008,3.0859zM358.75774,180.2924c-1.1328,-1.31513 -2.23307,-2.3926 -3.3008,-3.2324l1.5039,-1.5039c1.13933,0.8008 2.26563,1.83597 3.3789,3.1055zM355.72064,187.8608c1.25,-1.77733 2.40233,-3.99087 3.457,-6.6406l1.7383,1.3379c-0.89193,2.4414 -1.97917,4.73957 -3.2617,6.8945z" fill="#ffffff" stroke-width="1"/></g></g></svg>