<svg version="1.1" xmlns="http://www.w3.org/2000/svg" xmlns:xlink="http://www.w3.org/1999/xlink" width="61.21596" height="166.44913" viewBox="0,0,61.21596,166.44913"><g transform="translate(-340.64786,-287.46994)"><g data-paper-data="{&quot;isPaintingLayer&quot;:true}" fill="none" fill-rule="evenodd" stroke="#fc3324" stroke-width="36" stroke-linecap="round" stroke-linejoin="round" stroke-miterlimit="4" stroke-dasharray="" stroke-dashoffset="0" style="mix-blend-mode: normal"><path d="M372.78559,305.46994l0.90985,4.12934l1.93969,3.88938l2.62958,1.12982l0.40994,6.78891l2.20965,4.64925l-0.09999,5.55912l0.95985,2.56958l0.43993,10.6183l0.52991,6.8889l1.14982,5.95905l-0.85987,9.75844l0.28996,5.74908l-0.79987,2.39961l-0.37994,5.58911l-1.07983,4.69925l0.71988,3.01951l-1.8397,4.3793l-0.24996,11.00824l-1.63973,2.72956l-0.99984,5.34915l-0.07999,3.23948l0.92985,3.41945l-1.2498,2.70956l-3.25948,2.60959l-1.8497,2.24964l-1.07983,-1.38978l-3.17949,1.52976l-3.38945,2.87954l-2.46961,0.17997l-2.74956,4.51928l0.36994,1.63974"/></g></g></svg>