<svg version="1.1" xmlns="http://www.w3.org/2000/svg" xmlns:xlink="http://www.w3.org/1999/xlink" width="168.1" height="32.878" viewBox="0,0,168.1,32.878"><g transform="translate(-240,-180)"><g data-paper-data="{&quot;isPaintingLayer&quot;:true}" stroke="none" stroke-linecap="butt" stroke-linejoin="miter" stroke-miterlimit="10" stroke-dasharray="" stroke-dashoffset="0" style="mix-blend-mode: normal"><path d="M248,180h152.1c4.432,0 8,3.568 8,8v16.878c0,4.432 -3.568,8 -8,8h-152.1c-4.432,0 -8,-3.568 -8,-8v-16.878c0,-4.432 3.568,-8 8,-8z" fill-opacity="0.7" fill="#000000" fill-rule="evenodd" stroke-width="0"/><g fill="#ffffff" fill-rule="nonzero" stroke-width="1"><path d="M251.09,190.36v3.0938c0,0.20052 0.08594,0.32161 0.25781,0.36328c0.17709,0.04427 0.58202,0.0664 1.2148,0.0664c0.61719,0 1.02472,-0.03123 1.2226,-0.0937c0.11198,-0.03647 0.1849,-0.13803 0.21875,-0.30469c0.04427,-0.23437 0.0677,-0.51172 0.0703,-0.83203l0.81641,0.23047c-0.04167,0.7682 -0.14714,1.25907 -0.31641,1.4726c-0.11197,0.14063 -0.28124,0.22396 -0.50781,0.25c-0.35677,0.03907 -0.96223,0.0586 -1.8164,0.0586c-0.66146,0 -1.09506,-0.01823 -1.3008,-0.0547c-0.30989,-0.05207 -0.50651,-0.18879 -0.58984,-0.41016c-0.04167,-0.11719 -0.0625,-0.27344 -0.0625,-0.46875v-3.0976l-0.74609,0.25781l-0.1836,-0.75781l0.92969,-0.32031v-2.1055h0.79297v1.832l0.83984,-0.28516v-2.0586h0.78516v1.7852l1.3086,-0.44921l0.41016,0.25v2.9258c0,0.20312 -0.04818,0.35416 -0.14453,0.45312c-0.10937,0.10937 -0.29297,0.16406 -0.55078,0.16406c-0.21094,0 -0.4349,-0.01823 -0.67188,-0.0547l-0.1289,-0.7461c0.15364,0.03907 0.30989,0.0586 0.46875,0.0586c0.11458,0 0.18489,-0.02343 0.21093,-0.0703c0.02607,-0.03907 0.0391,-0.10417 0.0391,-0.19531v-1.8476l-0.94141,0.32812v3.1602h-0.78516v-2.8906zM248.2189,189.0827v-1.8867h0.83984v1.8867h0.75781v0.79297h-0.75781v2.4844c0.27344,-0.09375 0.54427,-0.1914 0.8125,-0.29297l0.0742,0.75391c-0.84373,0.38541 -1.70963,0.70833 -2.5977,0.96875l-0.27344,-0.83203c0.40105,-0.10417 0.75261,-0.20313 1.0547,-0.29688c0.03647,-0.013 0.0664,-0.0221 0.0898,-0.0273v-2.7578h-0.99219v-0.79297z"/><path d="M258.56,188.25v-0.33594h-2.4414v-0.5586h5.7656v0.5586h-2.4922v0.33594h3.2344v1.4023h-0.84766v-0.89844h-2.3867v1.5195h-0.83203v-1.5195h-2.3438v0.89844h-0.83984v-1.4023zM261.3256,193.793c0.39843,0.15105 0.89583,0.27084 1.4922,0.35938l-0.45704,0.66406c-0.83593,-0.14323 -1.52213,-0.38932 -2.0586,-0.73828c-0.53385,-0.34896 -0.94922,-0.78256 -1.2461,-1.3008h-0.86328v1.2031c0.57552,-0.08073 1.10939,-0.16666 1.6016,-0.25781l0.0547,0.58203c-0.91667,0.21875 -1.96483,0.40886 -3.1445,0.57032l-0.23046,-0.6875c0.40885,-0.04427 0.6888,-0.0755 0.83984,-0.0937l0.0469,-0.008v-1.3086h-0.85546c-0.03647,0.45833 -0.09636,0.82423 -0.17969,1.0977c-0.09896,0.32812 -0.25781,0.63411 -0.47656,0.91796l-0.69532,-0.57421c0.25521,-0.33073 0.41407,-0.71747 0.47657,-1.1602c0.03387,-0.23959 0.0508,-0.53776 0.0508,-0.89453v-1.6562h6.7422v0.51953h-5.9023v1.1992h6.2383v0.55078h-0.88672l0.4961,0.32812c-0.29427,0.24479 -0.64194,0.47396 -1.043,0.6875zM260.71622,193.49222c0.375,-0.25521 0.67318,-0.49349 0.89453,-0.71484h-1.707c0.22396,0.28646 0.49479,0.52474 0.8125,0.71484zM256.56002,189.04302h1.6641v0.44141h-1.6641zM256.56002,189.76177h1.6641v0.44922h-1.6641zM259.72802,189.04302h1.7148v0.44141h-1.7148zM259.72802,189.76177h1.7148v0.44922h-1.7148zM256.98582,191.35557h4.8633v0.51172h-4.8633z"/><path d="M267.39,193.61c1.52867,-0.38541 2.293,-1.26171 2.293,-2.6289c0,-0.59635 -0.15365,-1.10939 -0.46094,-1.5391c-0.34375,-0.48437 -0.86718,-0.79557 -1.5703,-0.93359c-0.15365,1.20833 -0.36328,2.19793 -0.62891,2.9688c-0.18229,0.53906 -0.40885,1.04816 -0.67968,1.5273c-0.39063,0.68227 -0.83463,1.0234 -1.332,1.0234c-0.36979,0 -0.69921,-0.16667 -0.98828,-0.5c-0.18489,-0.21094 -0.33463,-0.47005 -0.44922,-0.77734c-0.15104,-0.39844 -0.22656,-0.82684 -0.22656,-1.2852c0,-0.7422 0.20443,-1.4258 0.61328,-2.0508c0.41407,-0.63802 0.95183,-1.10155 1.6133,-1.3906c0.48177,-0.21093 1.01041,-0.3164 1.5859,-0.3164c0.89847,0 1.6615,0.24088 2.2891,0.72265c0.7708,0.59115 1.1562,1.42838 1.1562,2.5117c0,1.81513 -0.91797,2.96617 -2.7539,3.4531zM266.80406,188.4772c-0.46093,0.05207 -0.84633,0.17576 -1.1562,0.37109c-0.19791,0.12761 -0.39453,0.29688 -0.58984,0.50781c-0.54167,0.59896 -0.8125,1.29296 -0.8125,2.082c0,0.57552 0.11458,1.02605 0.34375,1.3516c0.14063,0.20052 0.27995,0.30078 0.41797,0.30078c0.1875,0 0.39844,-0.20703 0.63281,-0.62109c0.57292,-1.0078 0.96095,-2.33853 1.1641,-3.9922z"/><path d="M276.89,189.06c0.35156,-0.29427 0.69269,-0.64194 1.0234,-1.043l0.64062,0.49609c-0.28125,0.3125 -0.62368,0.6211 -1.0273,0.92579c0.34375,0.17969 0.77215,0.36458 1.2852,0.55468l-0.42579,0.6875c-0.46875,-0.18229 -0.89581,-0.38671 -1.2812,-0.61328v0.40625h-0.72656v1.0508h2.2578v0.75391h-2.2578v1.3086c0,0.13802 0.02997,0.22005 0.0899,0.2461c0.08073,0.03387 0.24739,0.0508 0.5,0.0508c0.27604,0 0.46484,-0.01693 0.5664,-0.0508c0.10157,-0.03127 0.16667,-0.11851 0.19531,-0.26172c0.03647,-0.17709 0.056,-0.4323 0.0586,-0.76563l0.85547,0.25391c-0.02867,0.69273 -0.10419,1.12763 -0.22657,1.3047c-0.10677,0.15365 -0.27343,0.24609 -0.5,0.27734c-0.22917,0.03127 -0.60027,0.0469 -1.1133,0.0469c-0.48437,0 -0.79687,-0.02993 -0.9375,-0.0898c-0.22917,-0.09635 -0.34375,-0.3138 -0.34375,-0.65234v-1.668h-1.2305c-0.05987,0.67447 -0.28122,1.2018 -0.66406,1.582c-0.42187,0.42187 -1.04427,0.73958 -1.8672,0.95313l-0.5039,-0.7461c0.737,-0.15365 1.27997,-0.38021 1.6289,-0.67969c0.19011,-0.16667 0.32813,-0.36979 0.41407,-0.60937c0.04687,-0.125 0.08593,-0.29167 0.11718,-0.5h-2.0547v-0.75391h2.0938v-1.0508h-0.60938v-0.32422c-0.45833,0.28646 -0.92707,0.51693 -1.4062,0.69141l-0.39062,-0.65625c0.5651,-0.19271 1.09373,-0.4414 1.5859,-0.74609c-0.28385,-0.27083 -0.60416,-0.52604 -0.96093,-0.76563l0.5664,-0.55859c0.40365,0.28125 0.74738,0.5651 1.0312,0.85156c0.30729,-0.26302 0.56901,-0.53906 0.78516,-0.82813h-1.4102v-0.73437h2.6836c0.21354,0.35417 0.43229,0.65234 0.65625,0.89453c0.30469,-0.27083 0.6237,-0.60156 0.95703,-0.99219l0.63281,0.4961c-0.31511,0.34115 -0.67187,0.66667 -1.0703,0.97656c0.14323,0.11198 0.27083,0.20573 0.38281,0.28125zM275.5228,190.4741h-1.2031v1.0508h1.2031zM273.4252,189.75535h3.1836c-0.64844,-0.43489 -1.20834,-0.93619 -1.6797,-1.5039c-0.375,0.53385 -0.8763,1.03515 -1.5039,1.5039z"/><path d="M281.12,188.63h1.5195v-1.4336h0.89453v1.4336h2.8047v0.81641h-2.8047v1.6445h2.5625v0.80078h-2.5625v1.8086h3.1133v0.81641h-7.2226v-0.81641h3.2148v-1.8086h-2.7109v-0.80078h2.7109v-1.6445h-1.875c-0.23177,0.45313 -0.50521,0.87369 -0.82031,1.2617l-0.70313,-0.58203c0.625,-0.71613 1.07553,-1.6315 1.3516,-2.7461l0.87109,0.16016c-0.11198,0.42187 -0.22656,0.78514 -0.34375,1.0898z"/><path d="M289.84,187.8v5.582h-1.6641v0.66406h-0.77734v-6.2461zM288.1759,188.52656v1.6484h0.89453v-1.6484zM288.1759,190.88596v1.7422h0.89453v-1.7422zM291.84,188.06176v-0.86328h0.83203v0.86328h1.7031v0.71094h-1.7031v0.89843h2.1445v0.71875h-1.1211v0.83985h0.9375v0.73437h-0.9375v2.1133c0,0.28646 -0.07812,0.48308 -0.23437,0.58985c-0.125,0.08333 -0.33724,0.125 -0.63672,0.125c-0.36198,0 -0.66927,-0.01693 -0.92188,-0.0508l-0.16015,-0.78125c0.30729,0.05207 0.59505,0.0781 0.86328,0.0781c0.12239,0 0.19922,-0.02603 0.23047,-0.0781c0.0234,-0.03647 0.0351,-0.09636 0.0351,-0.17969v-1.8164h-2.7656v-0.73437h2.7656v-0.83985h-2.8633v-0.71875h1.832v-0.89843h-1.5938v-0.71094zM291.32047,193.80786c-0.26302,-0.54167 -0.53515,-1.0039 -0.8164,-1.3867l0.71093,-0.39843c0.3099,0.375 0.59506,0.82293 0.85547,1.3438z"/><path d="M297.43,190.75c0.39844,-0.40885 0.77604,-0.89582 1.1328,-1.4609l0.67188,0.375c-0.59635,0.8906 -1.21875,1.61197 -1.8672,2.1641c-0.48177,0.41406 -1.02214,0.76563 -1.6211,1.0547l-0.51953,-0.625c0.57812,-0.24479 1.12889,-0.57683 1.6523,-0.9961c-0.5,-0.51302 -0.97137,-0.93879 -1.4141,-1.2773l0.52343,-0.53516c0.16667,0.1224 0.29167,0.21875 0.375,0.28906c0.26563,-0.29687 0.47917,-0.57161 0.64063,-0.82421h-1.7461v-0.74219h1.8906v-0.96875h0.83594v0.96875h1.9062v0.74219h-1.9258c-0.32813,0.48697 -0.68749,0.91537 -1.0781,1.2852c0.18229,0.17448 0.36328,0.35807 0.54297,0.55078zM298.7034,192.6289c0.38541,0.29167 0.79948,0.65627 1.2422,1.0938l-0.64844,0.65625c-0.3125,-0.41667 -0.6849,-0.8177 -1.1172,-1.2031c-0.66927,0.63542 -1.46483,1.16405 -2.3867,1.5859l-0.54297,-0.66406c1.04167,-0.40625 1.9336,-0.99739 2.6758,-1.7734c0.39063,-0.40625 0.78126,-0.90755 1.1719,-1.5039l0.66406,0.36718c-0.36458,0.57552 -0.71745,1.05599 -1.0586,1.4414zM300.1995,187.9062h0.80469v4.9844h-0.80469zM301.6956,187.30855h0.8164v6.6133c0,0.29687 -0.07552,0.50521 -0.22656,0.625c-0.125,0.10156 -0.34115,0.15234 -0.64844,0.15234c-0.34115,0 -0.67578,-0.01563 -1.0039,-0.0469l-0.16797,-0.82422c0.45312,0.05207 0.77864,0.0781 0.97656,0.0781c0.11719,0 0.1901,-0.01953 0.21875,-0.0586c0.02347,-0.03387 0.0352,-0.09637 0.0352,-0.1875z"/><path d="M305.01,190.12c0.20313,0 0.38672,0.06771 0.55078,0.20312c0.21615,0.17709 0.32422,0.40365 0.32422,0.67969c0,0.16927 -0.04818,0.32683 -0.14453,0.47266c-0.17448,0.27083 -0.42188,0.40625 -0.74219,0.40625c-0.14062,0 -0.27473,-0.03386 -0.40234,-0.10157c-0.10156,-0.05207 -0.1875,-0.12108 -0.25781,-0.20703c-0.14323,-0.16927 -0.21485,-0.36197 -0.21485,-0.57812c0,-0.30209 0.1263,-0.54167 0.37891,-0.71875c0.15104,-0.10417 0.32031,-0.15625 0.50781,-0.15625z"/><path d="M313.93,187.37v2.4492h-5.8477v-2.4492zM308.9534,187.92859v0.40234h4.1055v-0.40234zM308.9534,188.84265v0.45703h4.1055v-0.45703zM310.9065,190.89735v3.2578c0.50781,-0.13802 0.97265,-0.375 1.3945,-0.71093c-0.39583,-0.46094 -0.69531,-0.95704 -0.89844,-1.4883h-0.33593v-0.625h3.0156l0.38281,0.33594c-0.28385,0.68747 -0.63932,1.2773 -1.0664,1.7695c0.38281,0.25 0.86198,0.46224 1.4375,0.63672l-0.48047,0.71485c-0.59375,-0.22396 -1.09375,-0.4974 -1.5,-0.82032c-0.44531,0.36719 -0.96745,0.65885 -1.5664,0.875l-0.38281,-0.57422v0.53516h-0.80859v-0.87109c-0.7396,0.14843 -1.65497,0.28124 -2.7461,0.39843l-0.21484,-0.71875c0.34375,-0.0182 0.63671,-0.03643 0.8789,-0.0547v-2.6602h-0.8164v-0.64844h7.6016v0.64844zM310.09791,190.89735h-1.2812v0.47266h1.2812zM310.09791,191.88954h-1.2812v0.48047h1.2812zM310.09791,192.88173h-1.2812v0.59765c0.22135,-0.02347 0.38802,-0.0417 0.5,-0.0547c0.29947,-0.03127 0.55989,-0.0612 0.78125,-0.0898zM312.80881,192.94813c0.23698,-0.27343 0.45052,-0.60416 0.64063,-0.99219h-1.3242c0.16146,0.35157 0.38932,0.6823 0.68359,0.99219z"/><path d="M319.54,190.01c0.17969,0.60937 0.52082,1.25781 1.0234,1.9453c0.61197,0.83853 1.36457,1.5026 2.2578,1.9922l-0.5586,0.80469c-0.94533,-0.55729 -1.7344,-1.29556 -2.3672,-2.2148c-0.34115,-0.5 -0.61459,-1.00913 -0.82032,-1.5274c-0.20573,0.69793 -0.52474,1.33207 -0.95703,1.9024c-0.63541,0.84373 -1.42058,1.46613 -2.3555,1.8672l-0.55078,-0.71484c0.9792,-0.40885 1.76957,-1.03905 2.3711,-1.8906c0.50521,-0.71873 0.80468,-1.4401 0.89843,-2.1641h-3.1172v-0.84765h3.1523v-1.8828h0.90234v1.8828h3.2188v0.84765z"/><path d="M326.56,188.25v-0.33594h-2.4414v-0.5586h5.7656v0.5586h-2.4922v0.33594h3.2344v1.4023h-0.84766v-0.89844h-2.3867v1.5195h-0.83203v-1.5195h-2.3438v0.89844h-0.83984v-1.4023zM329.3256,193.793c0.39843,0.15105 0.89583,0.27084 1.4922,0.35938l-0.45704,0.66406c-0.83593,-0.14323 -1.52213,-0.38932 -2.0586,-0.73828c-0.53385,-0.34896 -0.94922,-0.78256 -1.2461,-1.3008h-0.86328v1.2031c0.57552,-0.08073 1.10939,-0.16666 1.6016,-0.25781l0.0547,0.58203c-0.91667,0.21875 -1.96483,0.40886 -3.1445,0.57032l-0.23046,-0.6875c0.40885,-0.04427 0.6888,-0.0755 0.83984,-0.0937l0.0469,-0.008v-1.3086h-0.85546c-0.03647,0.45833 -0.09636,0.82423 -0.17969,1.0977c-0.09896,0.32812 -0.25781,0.63411 -0.47656,0.91796l-0.69532,-0.57421c0.25521,-0.33073 0.41407,-0.71747 0.47657,-1.1602c0.03387,-0.23959 0.0508,-0.53776 0.0508,-0.89453v-1.6562h6.7422v0.51953h-5.9023v1.1992h6.2383v0.55078h-0.88672l0.4961,0.32812c-0.29427,0.24479 -0.64194,0.47396 -1.043,0.6875zM328.71622,193.49222c0.375,-0.25521 0.67318,-0.49349 0.89453,-0.71484h-1.707c0.22396,0.28646 0.49479,0.52474 0.8125,0.71484zM324.56002,189.04302h1.6641v0.44141h-1.6641zM324.56002,189.76177h1.6641v0.44922h-1.6641zM327.72802,189.04302h1.7148v0.44141h-1.7148zM327.72802,189.76177h1.7148v0.44922h-1.7148zM324.98582,191.35557h4.8633v0.51172h-4.8633z"/><path d="M335.61,187.9h3.0625v0.65625h-1.7344v0.64844h1.625v0.63281h-1.625v1.1641h-3.1445v-1.1641h-1.2812v0.72657c0,1.17967 -0.0625,2.11197 -0.1875,2.7969c-0.09635,0.52083 -0.2526,0.9961 -0.46875,1.4258l-0.71094,-0.5625c0.19792,-0.42969 0.33334,-0.95442 0.40625,-1.5742c0.06513,-0.54427 0.0977,-1.23957 0.0977,-2.0859v-2.6641h3.0898v-0.70312h0.87109zM332.5124,188.55625v0.64844h1.2812v-0.64844zM334.6257,188.55625v0.64844h1.4805v-0.64844zM334.6257,189.83745v0.60547h1.4805v-0.60547zM335.53195,193.93905c-0.7526,0.39062 -1.70833,0.68749 -2.8672,0.89062l-0.40625,-0.71875c1.08853,-0.13021 1.9414,-0.32943 2.5586,-0.59766c-0.52865,-0.38281 -0.98048,-0.83724 -1.3555,-1.3633h-0.53907v-0.67968h4.5742l0.41016,0.34375c-0.38802,0.59635 -0.94142,1.15755 -1.6602,1.6836c0.61719,0.24739 1.45832,0.42968 2.5234,0.54687l-0.45703,0.73829c-1.0208,-0.13803 -1.94787,-0.41928 -2.7812,-0.84375zM334.37175,192.14995c0.31511,0.36979 0.69791,0.69532 1.1484,0.97657c0.50781,-0.32813 0.89975,-0.65365 1.1758,-0.97657z"/><path d="M341.01,190.12c0.20313,0 0.38672,0.06771 0.55078,0.20312c0.21615,0.17709 0.32422,0.40365 0.32422,0.67969c0,0.16927 -0.04818,0.32683 -0.14453,0.47266c-0.17448,0.27083 -0.42188,0.40625 -0.74219,0.40625c-0.14062,0 -0.27473,-0.03386 -0.40234,-0.10157c-0.10156,-0.05207 -0.1875,-0.12108 -0.25781,-0.20703c-0.14323,-0.16927 -0.21485,-0.36197 -0.21485,-0.57812c0,-0.30209 0.1263,-0.54167 0.37891,-0.71875c0.15104,-0.10417 0.32031,-0.15625 0.50781,-0.15625z"/><path d="M348.2,190.99v0.55859h2.1289v0.64063h-2.1289v0.57421h2.4492v0.6875h-2.4492v1.3477h-0.83985v-1.3477h-2.2461v-0.6875h2.2461v-0.57421h-1.9102v-0.64063h1.9102v-0.55859h-1.6875v-0.59375h1.6875v-0.61328h-2.3438v-0.63282h2.3438v-0.60156h-1.6484v-0.61719h1.6484v-0.73437h0.83985v0.73437h1.9531v1.2188h0.67969v0.63282h-0.67969v1.207zM348.2,190.39625h1.1367v-0.61328h-1.1367zM348.2,189.15015h1.1367v-0.60156h-1.1367zM344.6023,189.05245c-0.32552,-0.44792 -0.71485,-0.86069 -1.168,-1.2383l0.60547,-0.57032c0.48959,0.375 0.88802,0.76953 1.1953,1.1836zM344.32886,191.08365c-0.3776,-0.4974 -0.77213,-0.92057 -1.1836,-1.2695l0.60156,-0.58594c0.41927,0.31771 0.82944,0.72264 1.2305,1.2148zM343.28196,194.19695c0.5,-0.81773 0.92577,-1.7383 1.2773,-2.7617l0.6836,0.48047c-0.32552,1.03647 -0.73439,1.9909 -1.2266,2.8633z"/><path d="M356.96,193.1c0.50261,0.35677 1.14324,0.66146 1.9219,0.91406l-0.4375,0.78125c-0.82033,-0.32291 -1.4974,-0.69661 -2.0312,-1.1211c-0.55209,0.49219 -1.17839,0.88282 -1.8789,1.1719l-0.54687,-0.61719c0.72133,-0.25521 1.34373,-0.61327 1.8672,-1.0742c-0.59375,-0.65625 -1.01951,-1.34375 -1.2773,-2.0625h-0.15234c-0.0156,0.70313 -0.0781,1.3112 -0.1875,1.8242c-0.13542,0.63281 -0.38933,1.23828 -0.76172,1.8164l-0.63281,-0.57812c0.34375,-0.55989 0.56901,-1.18619 0.67578,-1.8789c0.06771,-0.43229 0.10156,-0.91795 0.10156,-1.457v-2.5352h2.0469v-1.0859h0.83204v1.0859h1.793l0.40625,0.35156c-0.16145,0.53646 -0.35025,1.02733 -0.5664,1.4726l-0.79297,-0.23437c0.17187,-0.28125 0.29948,-0.56381 0.38281,-0.84766h-1.2226v1.3789h1.2969l0.39063,0.33594c-0.3099,0.92967 -0.71877,1.71613 -1.2266,2.3594zM356.36235,192.60781c0.39323,-0.49739 0.66536,-1.00259 0.8164,-1.5156h-1.8711c0.24479,0.55208 0.59636,1.05728 1.0547,1.5156zM355.66703,189.02581h-1.2383v1.3789h1.2383zM352.76473,189.2055c-0.34375,-0.46615 -0.76561,-0.90365 -1.2656,-1.3125l0.60937,-0.58984c0.48698,0.35156 0.92448,0.76433 1.3125,1.2383zM352.40926,191.0922c-0.37239,-0.47917 -0.78776,-0.90757 -1.2461,-1.2852l0.60156,-0.58593c0.45052,0.32031 0.87892,0.72784 1.2852,1.2226zM351.25306,194.182c0.48959,-0.7344 0.92319,-1.62503 1.3008,-2.6719l0.70703,0.48828c-0.34895,1.03907 -0.77082,1.97787 -1.2656,2.8164z"/><path d="M363.39,193.61c1.52867,-0.38541 2.293,-1.26171 2.293,-2.6289c0,-0.59635 -0.15365,-1.10939 -0.46094,-1.5391c-0.34375,-0.48437 -0.86718,-0.79557 -1.5703,-0.93359c-0.15365,1.20833 -0.36328,2.19793 -0.62891,2.9688c-0.18229,0.53906 -0.40885,1.04816 -0.67968,1.5273c-0.39063,0.68227 -0.83463,1.0234 -1.332,1.0234c-0.36979,0 -0.69921,-0.16667 -0.98828,-0.5c-0.18489,-0.21094 -0.33463,-0.47005 -0.44922,-0.77734c-0.15104,-0.39844 -0.22656,-0.82684 -0.22656,-1.2852c0,-0.7422 0.20443,-1.4258 0.61328,-2.0508c0.41407,-0.63802 0.95183,-1.10155 1.6133,-1.3906c0.48177,-0.21093 1.01041,-0.3164 1.5859,-0.3164c0.89847,0 1.6615,0.24088 2.2891,0.72265c0.7708,0.59115 1.1562,1.42838 1.1562,2.5117c0,1.81513 -0.91797,2.96617 -2.7539,3.4531zM362.80406,188.4772c-0.46093,0.05207 -0.84633,0.17576 -1.1562,0.37109c-0.19791,0.12761 -0.39453,0.29688 -0.58984,0.50781c-0.54167,0.59896 -0.8125,1.29296 -0.8125,2.082c0,0.57552 0.11458,1.02605 0.34375,1.3516c0.14063,0.20052 0.27995,0.30078 0.41797,0.30078c0.1875,0 0.39844,-0.20703 0.63281,-0.62109c0.57292,-1.0078 0.96095,-2.33853 1.1641,-3.9922z"/><path d="M369.83,189.77h3.8984v4.2344c0,0.2474 -0.04948,0.42709 -0.14844,0.53906c-0.11979,0.13803 -0.35417,0.20704 -0.70312,0.20704c-0.40105,0 -0.83465,-0.01693 -1.3008,-0.0508l-0.17578,-0.79296c0.48959,0.04947 0.89322,0.0742 1.2109,0.0742c0.11719,0 0.1888,-0.02213 0.21484,-0.0664c0.01827,-0.03387 0.0274,-0.09767 0.0274,-0.19141v-0.70312h-3.0703v1.7773h-0.87891v-3.9297c-0.40885,0.39583 -0.82812,0.73437 -1.2578,1.0156l-0.53516,-0.67969c0.7474,-0.44271 1.39843,-1.03254 1.9531,-1.7695c0.11979,-0.16146 0.23437,-0.34245 0.34375,-0.54297h-2.1602v-0.71875h2.4883c0.13021,-0.33854 0.23828,-0.67967 0.32422,-1.0234l0.91406,0.10157c-0.09896,0.34375 -0.20052,0.65104 -0.30469,0.92187h4.0664v0.71875h-4.3867l-0.0391,0.0742c-0.15885,0.30989 -0.31901,0.57812 -0.48047,0.80469zM369.7831,190.4575v0.60937h3.0703v-0.60937zM369.7831,191.7075v0.67187h3.0703v-0.67187z"/><path d="M381.77,188.71v1.2226h1.0312v0.71094h-1.0312v1.25h0.77735v0.71094h-7.0898v-0.71094h0.96094v-1.25h-1.2148v-0.71094h1.2148v-1.2344c-0.16406,0.1901 -0.375,0.38802 -0.63281,0.59375l-0.57422,-0.48438c0.57292,-0.45052 1.03125,-0.99739 1.375,-1.6406l0.85938,0.17578c-0.14583,0.25 -0.28386,0.46875 -0.41407,0.65625h5.3125v0.71094zM381.00829,188.71h-0.82032v1.2226h0.82032zM379.46139,188.71h-0.77734v1.2226h0.77734zM377.95749,188.71h-0.78515v1.2226h0.78515zM381.00829,190.6436h-0.82032v1.25h0.82032zM379.46139,190.6436h-0.77734v1.25h0.77734zM377.95749,190.6436h-0.78515v1.25h0.78515zM375.30129,194.3506c0.41407,-0.47656 0.72527,-0.98829 0.9336,-1.5352l0.76953,0.30078c-0.23698,0.66927 -0.54948,1.2487 -0.9375,1.7383zM377.88329,194.81545c-0.06771,-0.56771 -0.17449,-1.13671 -0.32032,-1.707l0.81641,-0.16015c0.19531,0.53646 0.33984,1.10286 0.43359,1.6992zM379.74659,194.69435c-0.14583,-0.58073 -0.33984,-1.12759 -0.58203,-1.6406l0.78125,-0.22266c0.28385,0.50261 0.50521,1.04037 0.66406,1.6133zM381.94579,194.72555c-0.20833,-0.53385 -0.51953,-1.09375 -0.9336,-1.6797l0.77735,-0.28906c0.38281,0.46615 0.71223,0.98178 0.98828,1.5469z"/><path d="M385.01,190.12c0.20313,0 0.38672,0.06771 0.55078,0.20312c0.21615,0.17709 0.32422,0.40365 0.32422,0.67969c0,0.16927 -0.04818,0.32683 -0.14453,0.47266c-0.17448,0.27083 -0.42188,0.40625 -0.74219,0.40625c-0.14062,0 -0.27473,-0.03386 -0.40234,-0.10157c-0.10156,-0.05207 -0.1875,-0.12108 -0.25781,-0.20703c-0.14323,-0.16927 -0.21485,-0.36197 -0.21485,-0.57812c0,-0.30209 0.1263,-0.54167 0.37891,-0.71875c0.15104,-0.10417 0.32031,-0.15625 0.50781,-0.15625z"/><path d="M250.56,199.05v-0.33594h-2.4414v-0.55859h5.7656v0.55859h-2.4922v0.33594h3.2344v1.4023h-0.84766v-0.89844h-2.3867v1.5195h-0.83203v-1.5195h-2.3438v0.89844h-0.83984v-1.4023zM253.3256,204.593c0.39843,0.15104 0.89583,0.27083 1.4922,0.35937l-0.45704,0.66406c-0.83593,-0.14323 -1.52213,-0.38932 -2.0586,-0.73828c-0.53385,-0.34896 -0.94922,-0.78256 -1.2461,-1.3008h-0.86328v1.2031c0.57552,-0.08073 1.10939,-0.16667 1.6016,-0.25782l0.0547,0.58203c-0.91667,0.21875 -1.96483,0.40886 -3.1445,0.57032l-0.23046,-0.6875c0.40885,-0.04427 0.6888,-0.0755 0.83984,-0.0937l0.0469,-0.008v-1.3086h-0.85546c-0.03647,0.45833 -0.09636,0.82423 -0.17969,1.0977c-0.09896,0.32812 -0.25781,0.63411 -0.47656,0.91797l-0.69532,-0.57422c0.25521,-0.33073 0.41407,-0.71747 0.47657,-1.1602c0.03387,-0.23958 0.0508,-0.53776 0.0508,-0.89453v-1.6562h6.7422v0.51953h-5.9023v1.1992h6.2383v0.55078h-0.88672l0.4961,0.32813c-0.29427,0.24479 -0.64194,0.47395 -1.043,0.6875zM252.71622,204.29221c0.375,-0.25521 0.67318,-0.49349 0.89453,-0.71484h-1.707c0.22396,0.28646 0.49479,0.52474 0.8125,0.71484zM248.56002,199.84301h1.6641v0.4414h-1.6641zM248.56002,200.56176h1.6641v0.44921h-1.6641zM251.72802,199.84301h1.7148v0.4414h-1.7148zM251.72802,200.56176h1.7148v0.44921h-1.7148zM248.98582,202.15556h4.8633v0.51171h-4.8633z"/><path d="M260.46,199.79h1.8164v3.0312h-1.4961v2.1445c0,0.24739 -0.05859,0.41927 -0.17578,0.51562c-0.09635,0.07813 -0.26693,0.11719 -0.51172,0.11719c-0.29427,0 -0.58854,-0.02733 -0.88281,-0.082l-0.10937,-0.73437c0.30208,0.04687 0.53645,0.0703 0.70312,0.0703c0.09896,0 0.15755,-0.02343 0.17578,-0.0703c0.0104,-0.03387 0.0156,-0.08725 0.0156,-0.16016v-1.8008h-1.4961v-3.0312h1.1797c0.09635,-0.28646 0.16536,-0.52214 0.20703,-0.70703h-1.832v2.1211c0,0.94013 -0.05859,1.71617 -0.17578,2.3281c-0.13802,0.73173 -0.41016,1.41793 -0.81641,2.0586l-0.625,-0.61719c0.53385,-0.85153 0.80078,-1.98433 0.80078,-3.3984v-3.2109h5.4805v0.71875h-1.9883c-0.07813,0.25 -0.16797,0.48568 -0.26953,0.70703zM261.4834,200.415h-2.2148v0.58984h2.2148zM259.2686,201.6064v0.60547h2.2148v-0.60547zM256.5069,199.79c-0.25781,-0.38542 -0.63411,-0.78905 -1.1289,-1.2109l0.60156,-0.52734c0.44792,0.32291 0.82682,0.69921 1.1367,1.1289zM256.29205,201.7978c-0.43229,-0.54427 -0.81379,-0.95834 -1.1445,-1.2422l0.61719,-0.55859c0.42448,0.35417 0.80858,0.7513 1.1523,1.1914zM255.23735,205.0126c0.39844,-0.7604 0.72006,-1.68617 0.96485,-2.7773l0.71484,0.43359c-0.17708,0.763 -0.33854,1.36197 -0.48437,1.7969c-0.12761,0.38021 -0.28386,0.76301 -0.46875,1.1484zM257.69825,204.74698c0.42969,-0.45313 0.75781,-1.01043 0.98438,-1.6719l0.74609,0.22657c-0.24739,0.78907 -0.61066,1.45313 -1.0898,1.9922zM262.18655,205.22745c-0.27865,-0.64583 -0.62761,-1.2591 -1.0469,-1.8398l0.64844,-0.375c0.42708,0.53125 0.80078,1.10419 1.1211,1.7188z"/><path d="M267.09,201.16v3.0938c0,0.20052 0.08594,0.32161 0.25781,0.36328c0.17709,0.04427 0.58202,0.0664 1.2148,0.0664c0.61719,0 1.02472,-0.03123 1.2226,-0.0937c0.11198,-0.03647 0.1849,-0.13803 0.21875,-0.30469c0.04427,-0.23437 0.0677,-0.51172 0.0703,-0.83203l0.81641,0.23047c-0.04167,0.7682 -0.14714,1.2591 -0.31641,1.4727c-0.11197,0.14062 -0.28124,0.22395 -0.50781,0.25c-0.35677,0.03907 -0.96223,0.0586 -1.8164,0.0586c-0.66146,0 -1.09506,-0.01823 -1.3008,-0.0547c-0.30989,-0.05207 -0.50651,-0.18878 -0.58984,-0.41015c-0.04167,-0.11719 -0.0625,-0.27344 -0.0625,-0.46875v-3.0977l-0.74609,0.25781l-0.1836,-0.75781l0.92969,-0.32031v-2.1055h0.79297v1.832l0.83984,-0.28516v-2.0586h0.78516v1.7852l1.3086,-0.44922l0.41016,0.25v2.9258c0,0.20313 -0.04818,0.35417 -0.14453,0.45312c-0.10937,0.10938 -0.29297,0.16407 -0.55078,0.16407c-0.21094,0 -0.4349,-0.01823 -0.67188,-0.0547l-0.1289,-0.7461c0.15364,0.03907 0.30989,0.0586 0.46875,0.0586c0.11458,0 0.18489,-0.02343 0.21093,-0.0703c0.02607,-0.03907 0.0391,-0.10417 0.0391,-0.19532v-1.8476l-0.94141,0.32812v3.1602h-0.78516v-2.8906zM264.2189,199.8827v-1.8867h0.83984v1.8867h0.75781v0.79297h-0.75781v2.4844c0.27344,-0.09375 0.54427,-0.1914 0.8125,-0.29297l0.0742,0.75391c-0.84373,0.38541 -1.70963,0.70833 -2.5977,0.96875l-0.27344,-0.83203c0.40105,-0.10417 0.75261,-0.20313 1.0547,-0.29688c0.03647,-0.013 0.06643,-0.0221 0.0899,-0.0273v-2.7578h-0.99219v-0.79297z"/><path d="M273.01,200.92c0.20313,0 0.38672,0.06771 0.55078,0.20312c0.21615,0.17709 0.32422,0.40365 0.32422,0.67969c0,0.16927 -0.04818,0.32683 -0.14453,0.47266c-0.17448,0.27083 -0.42188,0.40625 -0.74219,0.40625c-0.14062,0 -0.27473,-0.03386 -0.40234,-0.10157c-0.10156,-0.05207 -0.1875,-0.12108 -0.25781,-0.20703c-0.14323,-0.16927 -0.21485,-0.36197 -0.21485,-0.57812c0,-0.30209 0.1263,-0.54167 0.37891,-0.71875c0.15104,-0.10417 0.32031,-0.15625 0.50781,-0.15625z"/><path d="M280.37,203.27v2.3281h-0.83203v-2.3047c-0.32031,0.50521 -0.68491,0.92448 -1.0938,1.2578c-0.27604,0.22656 -0.61067,0.4401 -1.0039,0.64062l-0.54297,-0.6914c0.5,-0.19531 0.931,-0.4375 1.293,-0.72657c0.36458,-0.29427 0.6927,-0.66797 0.98437,-1.1211h-1.8594v-0.71875h2.2226v-0.74609h0.83203v0.74609h2.3125v0.71875h-1.9336c0.55469,0.69013 1.27605,1.2214 2.1641,1.5938l-0.57422,0.76562c-0.8594,-0.50781 -1.51567,-1.08854 -1.9688,-1.7422zM280.92078,199.0512v1.2656c0,0.11198 0.01823,0.1849 0.0547,0.21875c0.03127,0.02867 0.1159,0.043 0.25391,0.043c0.19791,0 0.3138,-0.01303 0.34765,-0.0391c0.08073,-0.06247 0.12631,-0.2682 0.13672,-0.61719l0.75782,0.20703c-0.01827,0.48698 -0.099,0.79818 -0.24219,0.9336c-0.14063,0.13541 -0.48436,0.20312 -1.0312,0.20312c-0.36198,0 -0.6211,-0.03646 -0.77735,-0.10937c-0.19531,-0.08855 -0.29296,-0.2461 -0.29296,-0.47266v-1.6328h-1.9414v1.0234h-0.79297v-1.7188h5.1914v1.3906h-0.80078v-0.69531zM276.59268,199.84417c-0.34115,-0.46094 -0.73308,-0.87891 -1.1758,-1.2539l0.57422,-0.55469c0.44271,0.32552 0.85417,0.72265 1.2344,1.1914zM276.28799,201.85197c-0.375,-0.47917 -0.77473,-0.89713 -1.1992,-1.2539l0.59375,-0.58594c0.44271,0.32553 0.85548,0.73046 1.2383,1.2148zM275.25679,204.98867c0.44011,-0.67707 0.83724,-1.54947 1.1914,-2.6172l0.70312,0.45703c-0.27083,0.96613 -0.66277,1.8867 -1.1758,2.7617zM277.31149,200.85197c0.36198,-0.10677 0.65104,-0.24089 0.86719,-0.40235c0.39062,-0.28906 0.63541,-0.72526 0.73437,-1.3086l0.74219,0.19922c-0.12761,0.46615 -0.27865,0.83335 -0.45313,1.1016c-0.29167,0.44271 -0.76173,0.78777 -1.4102,1.0352z"/><path d="M283.47,199.54h3.1367c-0.16927,-0.44531 -0.32421,-0.88801 -0.46484,-1.3281l0.85547,-0.05468c0.13541,0.46354 0.29817,0.92447 0.48828,1.3828h2.8867v0.80078h-2.5195c0.33593,0.69533 0.7565,1.4206 1.2617,2.1758l-0.82032,0.39063c-0.55729,-0.84373 -1.01432,-1.6992 -1.3711,-2.5664h-3.4531zM289.1497,205.3017c-0.51823,0.02867 -0.97656,0.043 -1.375,0.043c-1.08333,0 -1.8815,-0.08464 -2.3945,-0.25391c-0.92707,-0.30209 -1.3906,-0.87239 -1.3906,-1.7109c0,-0.51563 0.16016,-0.93099 0.48047,-1.2461l0.73437,0.39844c-0.21354,0.21093 -0.32031,0.48697 -0.32031,0.82812c0,0.43489 0.23437,0.73958 0.70312,0.91406c0.41407,0.15365 1.10677,0.23047 2.0781,0.23047c0.41146,0 0.87499,-0.01953 1.3906,-0.0586z"/><path d="M293.01,200.92c0.20313,0 0.38672,0.06771 0.55078,0.20312c0.21615,0.17709 0.32422,0.40365 0.32422,0.67969c0,0.16927 -0.04818,0.32683 -0.14453,0.47266c-0.17448,0.27083 -0.42188,0.40625 -0.74219,0.40625c-0.14062,0 -0.27473,-0.03386 -0.40234,-0.10157c-0.10156,-0.05207 -0.1875,-0.12108 -0.25781,-0.20703c-0.14323,-0.16927 -0.21485,-0.36197 -0.21485,-0.57812c0,-0.30209 0.1263,-0.54167 0.37891,-0.71875c0.15104,-0.10417 0.32031,-0.15625 0.50781,-0.15625z"/><path d="M295.38,198.92h6.1055l0.58203,0.52734c-0.40365,0.8698 -0.88281,1.63283 -1.4375,2.2891c-0.42969,0.50521 -0.92579,0.97788 -1.4883,1.418c0.44271,0.47396 0.80207,0.89193 1.0781,1.2539l-0.71875,0.63281c-0.91147,-1.21093 -2.0586,-2.3841 -3.4414,-3.5195l0.61718,-0.61719c0.57813,0.46094 1.20703,1.01564 1.8867,1.6641c0.70573,-0.54427 1.3034,-1.15887 1.793,-1.8438c0.23437,-0.33073 0.42838,-0.66537 0.58203,-1.0039h-5.5586z"/><path d="M308.16,199.31l0.70312,0.69531c-0.29427,1.4818 -0.82161,2.64327 -1.582,3.4844c-0.71613,0.79167 -1.79427,1.40363 -3.2344,1.8359l-0.48828,-0.78906c1.2578,-0.31771 2.23307,-0.82551 2.9258,-1.5234c0.7578,-0.763 1.2552,-1.73043 1.4922,-2.9023h-2.5938c-0.51041,0.7604 -1.13411,1.3893 -1.8711,1.8867l-0.63281,-0.64844c0.59375,-0.38021 1.07941,-0.79557 1.457,-1.2461c0.42708,-0.51563 0.76821,-1.14063 1.0234,-1.875l0.83985,0.23437c-0.10937,0.30729 -0.22917,0.58985 -0.35938,0.84766zM308.4139,199.3881c-0.15625,-0.43229 -0.38802,-0.86719 -0.69531,-1.3047l0.65625,-0.14844c0.26563,0.33854 0.50261,0.76694 0.71094,1.2852zM309.5897,199.3412c-0.16667,-0.48959 -0.39583,-0.95312 -0.6875,-1.3906l0.64063,-0.13671c0.26563,0.36197 0.49479,0.80207 0.6875,1.3203z"/><path d="M311.36,199.27h5.375v0.83984h-5.375zM310.56703,203.7426h6.9609v0.84766h-6.9609z"/><path d="M321.28,201.05v-1.5039c-0.66146,0.08333 -1.40366,0.14193 -2.2266,0.17578l-0.25391,-0.75391c2.07033,-0.09635 3.681,-0.33333 4.832,-0.71093l0.51172,0.71093c-0.58073,0.17969 -1.24219,0.32943 -1.9844,0.44922v1.6328h2.9844v0.80079h-3c-0.05467,0.84113 -0.25649,1.51953 -0.60547,2.0352c-0.44271,0.65625 -1.07031,1.15365 -1.8828,1.4922l-0.56641,-0.72656c0.81513,-0.33333 1.39197,-0.77213 1.7305,-1.3164c0.24479,-0.39323 0.39063,-0.88803 0.4375,-1.4844h-3.1133v-0.80079z"/><path d="M326.63,200.08h3.9297c-0.06247,1.15367 -0.18616,2.45837 -0.37109,3.9141l-0.0352,0.27343h1.4766v0.74219h-5.7422v-0.74219h3.4258c0.20052,-1.40367 0.32031,-2.5521 0.35937,-3.4453h-3.043z"/><path d="M332.6,201.22h6.8789v0.8789h-6.8789z"/><path d="M341.02,198.22h0.91016v2.3203c1.55467,0.48177 2.84243,0.97263 3.8633,1.4726l-0.4375,0.83985c-0.9792,-0.4974 -2.12113,-0.97007 -3.4258,-1.418v3.8906h-0.91016zM344.4458,200.3255c-0.15886,-0.41406 -0.42318,-0.89713 -0.79297,-1.4492l0.60547,-0.22266c0.32291,0.44531 0.59244,0.91928 0.80859,1.4219zM345.563,200.06769c-0.19531,-0.50521 -0.45573,-0.98957 -0.78125,-1.4531l0.58203,-0.19141c0.29427,0.35677 0.5586,0.80991 0.79297,1.3594z"/><path d="M347.48,199.1h2.1055c0.23177,-0.36979 0.40755,-0.66797 0.52734,-0.89454l0.8711,0.125c-0.07813,0.14063 -0.21615,0.36979 -0.41406,0.6875l-0.0508,0.082h2.7539v0.76953h-3.2734c-0.34115,0.46875 -0.66667,0.87501 -0.97656,1.2188c0.49219,-0.29427 0.94142,-0.44141 1.3477,-0.44141c0.63021,0 1.04297,0.31641 1.2383,0.94922c0.66667,-0.22135 1.34637,-0.4401 2.0391,-0.65625l0.33594,0.75781l-0.13672,0.0391l-0.38672,0.10157c-0.7292,0.19791 -1.31253,0.36718 -1.75,0.50781c0.03127,0.33854 0.0534,0.77604 0.0664,1.3125l-0.85547,0.0469c-0.00267,-0.30989 -0.00787,-0.64583 -0.0156,-1.0078v-0.0781c-1.19793,0.40885 -1.7969,0.82032 -1.7969,1.2344c0,0.21354 0.15365,0.35937 0.46094,0.4375c0.29687,0.07552 0.82814,0.11328 1.5938,0.11328c0.70573,0 1.4466,-0.04036 2.2226,-0.12109l0.0937,0.83203c-0.7526,0.05727 -1.53253,0.0859 -2.3398,0.0859c-0.9948,0 -1.70183,-0.07552 -2.1211,-0.22656c-0.51823,-0.1875 -0.77734,-0.52473 -0.77734,-1.0117c0,-0.41146 0.18359,-0.77473 0.55078,-1.0898c0.38021,-0.32552 1.04947,-0.66145 2.0078,-1.0078c-0.05207,-0.20052 -0.12108,-0.34114 -0.20703,-0.42187c-0.09635,-0.09115 -0.22396,-0.13672 -0.38281,-0.13672c-0.25781,0 -0.58203,0.09766 -0.97266,0.29297c-0.48177,0.23958 -0.9987,0.60025 -1.5508,1.082l-0.51953,-0.59375c0.80987,-0.7526 1.444,-1.4922 1.9024,-2.2188h-1.5898z"/><path d="M357.67,202.91v2.0508c0.52083,-0.1849 0.875,-0.48047 1.0625,-0.88672c0.14583,-0.3125 0.22396,-0.91017 0.23438,-1.793h0.78516c-0.0078,1.02867 -0.11457,1.7448 -0.32032,2.1484c-0.27865,0.54167 -0.75391,0.95053 -1.4258,1.2266l-0.33594,-0.46094v0.004h-1.8672v0.40234h-0.76953v-2.6914zM355.8028,203.58187v0.95313h1.0976v-0.95313zM359.6426,198.71857v-0.71094h0.79297v0.71094h1.9023v0.6875h-1.9023v0.55469h1.6797v0.67187h-4.0547v-0.67187h1.582v-0.55469h-1.8555v-0.6875zM362.3067,201.16777v1.6406h-0.78515v-0.97656h-2.8281v1.0391h-0.76172v-1.7031zM355.1622,198.28887h2.3594v0.65625h-2.3594zM354.79501,199.43337h3.0469v0.70313h-3.0469zM355.1622,200.63257h2.3594v0.64844h-2.3594zM355.1622,201.77707h2.3594v0.63282h-2.3594zM360.2247,202.26535h0.75391v2.3164c0,0.07292 0.01823,0.11719 0.0547,0.13281c0.05987,0.02607 0.12757,0.0391 0.20312,0.0391c0.17187,0 0.28385,-0.02473 0.33594,-0.0742c0.07031,-0.06247 0.11979,-0.41143 0.14844,-1.0469l0.70703,0.2461c-0.02347,0.69793 -0.09769,1.14063 -0.22266,1.3281c-0.07813,0.11719 -0.20313,0.19661 -0.375,0.23828c-0.14844,0.03387 -0.34636,0.0508 -0.59375,0.0508c-0.42969,0 -0.70703,-0.04427 -0.83203,-0.13281c-0.11979,-0.08594 -0.17969,-0.24479 -0.17969,-0.47656z"/><path d="M363.79,198.56h3.0547l0.54687,0.46485c-0.25781,0.90367 -0.47135,1.58337 -0.64062,2.0391c0.64843,0.10937 1.2461,0.28646 1.793,0.53125c0.03127,-0.33594 0.0469,-0.66537 0.0469,-0.98828c0,-0.17187 -0.0052,-0.3737 -0.0156,-0.60547l0.85547,0.0898c-0.00267,0.7448 -0.0326,1.3711 -0.0898,1.8789c0.32291,0.16667 0.66145,0.36328 1.0156,0.58984l-0.33593,0.83203c-0.25,-0.18229 -0.52083,-0.36327 -0.8125,-0.54296c-0.20052,0.77347 -0.52083,1.37503 -0.96094,1.8047c-0.3125,0.30729 -0.73957,0.57813 -1.2812,0.8125l-0.48828,-0.65625c0.63802,-0.27343 1.10939,-0.6224 1.4141,-1.0469c0.23959,-0.33854 0.41667,-0.78124 0.53125,-1.3281c-0.63802,-0.32031 -1.28385,-0.53646 -1.9375,-0.64843c-0.42448,1.16147 -0.85025,2.04167 -1.2773,2.6406c-0.32552,0.45313 -0.69142,0.67969 -1.0977,0.67969c-0.39323,0 -0.69791,-0.1875 -0.91406,-0.5625c-0.16407,-0.28646 -0.2461,-0.62759 -0.2461,-1.0234c0,-0.48958 0.1263,-0.92708 0.37891,-1.3125c0.29948,-0.45833 0.76041,-0.79297 1.3828,-1.0039c0.35938,-0.11979 0.76171,-0.18489 1.207,-0.19531c0.23959,-0.625 0.42318,-1.1849 0.55079,-1.6797h-2.6797zM365.6376,201.7553c-0.33593,0.0182 -0.62369,0.082 -0.86328,0.1914c-0.375,0.16667 -0.65104,0.42188 -0.82812,0.76563c-0.125,0.24219 -0.1875,0.5 -0.1875,0.77343c0,0.21875 0.04297,0.40886 0.1289,0.57032c0.06513,0.1276 0.14326,0.1914 0.23438,0.1914c0.36458,0 0.86978,-0.83073 1.5156,-2.4922z"/><path d="M374.83,200.23h2.8203v0.80078h-2.8203v3.2656h3.5664v0.81641h-7.6016v-0.81641h3.0898v-6.2969h0.94531z"/><path d="M383.63,198.31h0.70312l0.16797,1.7031h1.5938v0.79297h-1.5273l0.0156,0.71094c0.00267,0.12761 0.004,0.21615 0.004,0.26563c0,1.07553 -0.15886,1.8737 -0.47657,2.3945c-0.25,0.41406 -0.61327,0.74999 -1.0898,1.0078c-0.13021,0.07031 -0.28906,0.14714 -0.47656,0.23047l-0.53125,-0.67188c0.64583,-0.29167 1.09243,-0.64713 1.3398,-1.0664c0.24219,-0.40885 0.36328,-1.04819 0.36328,-1.918c0,-0.02347 -0.00133,-0.11722 -0.004,-0.28125l-0.0195,-0.67188h-2.5664v-0.79297h2.5352zM379.5636,205.1655c-0.12761,-0.9818 -0.19141,-2.05603 -0.19141,-3.2227c0,-1.237 0.07292,-2.44793 0.21875,-3.6328l0.84766,0.0781c-0.13542,1.237 -0.20313,2.4154 -0.20313,3.5352c0,1.138 0.0625,2.17837 0.1875,3.1211zM385.1027,199.6616c-0.11719,-0.41667 -0.30469,-0.85417 -0.5625,-1.3125l0.55469,-0.15234c0.24739,0.42448 0.44401,0.85678 0.58984,1.2969zM386.00505,199.3491c-0.14583,-0.49219 -0.34636,-0.93489 -0.60157,-1.3281l0.57813,-0.14453c0.2526,0.38802 0.45572,0.82292 0.60937,1.3047z"/><path d="M390.24,198.18h0.86328v0.98438h2.457v0.74219h-2.457v0.92968h2.3203v0.73438h-2.3203v1.207c0.92707,0.3125 1.84113,0.78257 2.7422,1.4102l-0.46094,0.74218c-0.68227,-0.51041 -1.44267,-0.96095 -2.2812,-1.3516c-0.0208,0.44531 -0.10674,0.79038 -0.25781,1.0352c-0.26302,0.42448 -0.78125,0.63672 -1.5547,0.63672c-0.59635,0 -1.07552,-0.11198 -1.4375,-0.33594c-0.40365,-0.25 -0.60547,-0.58853 -0.60547,-1.0156c0,-0.51041 0.27214,-0.88801 0.81641,-1.1328c0.36458,-0.16146 0.83855,-0.24219 1.4219,-0.24219c0.22917,0 0.48047,0.01823 0.75391,0.0547v-1.0078h-2.7695v-0.73438h2.7695v-0.92968h-2.9375v-0.74219h2.9375zM390.24,203.305c-0.30989,-0.06507 -0.60677,-0.0976 -0.89062,-0.0976c-0.34636,0 -0.62761,0.05078 -0.84375,0.15234c-0.25781,0.12239 -0.38672,0.29687 -0.38672,0.52344c0,0.1901 0.10026,0.34375 0.30078,0.46094c0.20313,0.11979 0.47396,0.17968 0.8125,0.17968c0.40104,0 0.67708,-0.10677 0.82812,-0.32031c0.11979,-0.16667 0.17969,-0.41536 0.17969,-0.74609z"/><path d="M398.53,198.16h0.87891v1.0781h2.3047v0.75391h-2.3047v1.6719c0.09114,0.32031 0.13671,0.60547 0.13671,0.85547c0,0.92707 -0.20443,1.60807 -0.61328,2.043c-0.44531,0.47656 -1.11588,0.80599 -2.0117,0.98828l-0.44531,-0.66406c0.69533,-0.13281 1.21097,-0.32031 1.5469,-0.5625c0.3151,-0.22917 0.52734,-0.54037 0.63672,-0.9336c-0.27865,0.30469 -0.61068,0.45704 -0.9961,0.45704c-0.43229,0 -0.78256,-0.1224 -1.0508,-0.36719c-0.31511,-0.28907 -0.47266,-0.70833 -0.47266,-1.2578c0,-0.28907 0.06901,-0.56771 0.20704,-0.83594c0.09114,-0.17187 0.20312,-0.3151 0.33593,-0.42969c0.30729,-0.26041 0.67579,-0.39062 1.1055,-0.39062c0.27344,0 0.52084,0.0651 0.74219,0.19531v-0.76953h-3.8555v-0.75391h3.8555zM398.5612,202.2147v-0.14453c0,-0.16667 -0.03906,-0.3138 -0.11719,-0.4414c-0.14583,-0.23959 -0.35677,-0.35938 -0.63281,-0.35938c-0.14063,0 -0.27214,0.03906 -0.39453,0.11719c-0.28646,0.17969 -0.42969,0.45573 -0.42969,0.82812c0,0.23438 0.05208,0.4323 0.15625,0.59375c0.14583,0.22396 0.36068,0.33594 0.64453,0.33594c0.25781,0 0.46224,-0.11589 0.61328,-0.34766c0.10677,-0.16406 0.16016,-0.35807 0.16016,-0.58203z"/></g></g></g></svg>