<svg version="1.1" xmlns="http://www.w3.org/2000/svg" xmlns:xlink="http://www.w3.org/1999/xlink" width="400" height="400" viewBox="0,0,400,400"><defs><radialGradient cx="240" cy="180" r="200" gradientUnits="userSpaceOnUse" id="color-1"><stop offset="0" stop-color="#54068e"/><stop offset="0.4" stop-color="#54068e"/><stop offset="0.55" stop-color="#54068e" stop-opacity="0.56078"/><stop offset="0.7" stop-color="#54068e" stop-opacity="0.25098"/><stop offset="0.85" stop-color="#54068e" stop-opacity="0.05882"/><stop offset="1" stop-color="#54068e" stop-opacity="0"/></radialGradient></defs><g transform="translate(-40,20)"><g data-paper-data="{&quot;isPaintingLayer&quot;:true}" stroke-miterlimit="10" stroke-dasharray="" stroke-dashoffset="0" style="mix-blend-mode: normal"><g><path d="M40,380v-400h400v400z" fill="none" fill-rule="nonzero" stroke="none" stroke-width="0" stroke-linecap="butt" stroke-linejoin="miter"/><path d="M40,180c0,-110.46 89.543,-200 200,-200c110.457,0 200,89.543 200,200c0,110.457 -89.543,200 -200,200c-110.457,0 -200,-89.543 -200,-200z" fill="url(#color-1)" fill-rule="evenodd" stroke="none" stroke-width="1" stroke-linecap="butt" stroke-linejoin="miter" opacity="0.06"/><path d="M324.5,180c0,58.335 -26.165,84.5 -84.5,84.5c-58.335,0 -84.5,-26.165 -84.5,-84.5c0,-58.335 26.165,-84.5 84.5,-84.5c58.335,0 84.5,26.165 84.5,84.5z" fill="#54068e" fill-rule="evenodd" stroke="#cd3beb" stroke-width="16" stroke-linecap="round" stroke-linejoin="round"/></g><path d="M281.32474,129.92976v14.438l-0.14588,0.23493c-7.202,11.59 -14.3309,26.834 -21.359,45.715v0.002c-6.2819,16.891 -10.8551,31.733 -13.718,44.512l-0.16862,0.75781h-19.423l0.25576,-1.1765c3.518,-16.167 9.458,-33.832 17.814,-53.009v-0.002c7.6402,-17.486 13.0706,-28.7172 16.721,-34.778h-43.246v21.257h-17.445v-37.951z" fill="#ffffff" fill-rule="nonzero" stroke="none" stroke-width="1" stroke-linecap="butt" stroke-linejoin="miter"/></g></g></svg>