<svg version="1.1" xmlns="http://www.w3.org/2000/svg" xmlns:xlink="http://www.w3.org/1999/xlink" width="210.95978" height="243.03263" viewBox="0,0,210.95978,243.03263"><g transform="translate(-99.18753,-107.13122)"><g data-paper-data="{&quot;isPaintingLayer&quot;:true}" fill="none" fill-rule="evenodd" stroke="#d645ff" stroke-width="72" stroke-linecap="round" stroke-linejoin="round" stroke-miterlimit="4" stroke-dasharray="" stroke-dashoffset="0" style="mix-blend-mode: normal"><g><path d="M135.27551,314.16385v0"/><path d="M138.44301,312.54411v0"/><path d="M257.95988,297.22656l-0.58991,-0.91985l2.14966,-3.68941l0.11998,-3.21948l-2.04967,-1.42977l1.02984,-1.32979l6.279,-3.65941l1.36978,-1.76972l2.19965,-6.249l-1.31979,-2.09966l1.96968,-4.14934l1.51976,-1.16981l0.76988,-5.07919l-0.53991,-1.55975l1.2398,-3.68941l-1.78971,-2.97952l-2.94953,-7.43881l-2.59958,-3.05951l-3.08951,-1.13982l-0.72988,-3.21948l0.67989,-1.35978l-0.03,-3.37946l0.92985,-1.35978l-0.85986,-1.69973l-1.59974,1.30979l-1.69973,-1.03983l-2.94953,0.81987l-4.47928,-4.9892l3.49944,-3.69941l5.29915,-1.04983l3.81939,3.1495l-0.6299,4.13934l1.44977,1.16981l4.14934,-0.72988l2.04967,-2.62958l-0.13998,-1.94969l1.49976,-3.44945l2.20965,-3.20949l-2.86954,-5.04919l-6.38898,-0.87986l-1.32979,-2.13966l-3.1295,-0.82987l-2.56959,0.74988l-4.60926,3.7594l-0.48992,1.96968l1.02984,2.45961l-1.72972,3.15949l-2.62958,1.95969l-1.31979,2.12966l0.72988,1.79971l-1.12982,4.14934l-1.62974,0.81987l-1.10982,6.47896l-1.67973,-1.15981l0.45993,2.65957l1.29979,1.06983l-1.8597,0.43993l1.07983,5.04919l1.45977,2.88954l1.91969,0.55991l-1.20981,1.34978l1.8597,6.08903l3.00952,3.22948l3.33947,2.5296l3.94937,0.70989l-1.81971,2.99952l0.84986,2.31963l-2.82955,1.2798l1.43977,1.59974l-1.79971,1.8897l-2.4696,-0.15997l-1.37978,2.85954l-3.37946,-2.39962l-2.41961,1.74972l-2.32963,-1.69973l0.90985,-2.30963l-1.01984,-2.37962l-4.12934,-3.7294l-2.94953,0.42993l-3.22948,-0.95985l-4.82923,0.53991l-3.07951,-0.6199l-1.60974,-1.34978l-2.44961,0.12998l-0.38994,2.15965l-4.14934,-1.45977l-1.16981,1.09982l-1.32979,-0.80987l1.42977,-3.03951l-2.73956,-0.98984l2.73956,-1.64974l-1.14982,-1.77972l-1.03983,0.57991l-3.1095,-0.93985l3.1395,-1.2798l0.44993,-1.54975l-1.8697,-2.16965l-1.57975,0.03l-2.22964,-2.23964l-0.98984,-2.14966l-2.66957,-2.35962l2.35962,0.68989l1.8697,-2.4796l2.85954,3.39946l3.84938,0.92985l4.61926,-2.85954l3.58943,-6.04903l1.91969,-5.54911l0.71988,-4.3493l0.05999,-4.30931l-0.66989,-4.09934l-1.20981,-2.84954l-1.2598,-0.48992l-1.13982,-2.55959l-4.30931,-5.47912l-3.52944,-2.85954l-2.26964,1.05983l-0.99984,-3.83939l-1.39978,-1.8497l4.30931,-9.01856l1.46976,-4.60926l-1.50976,-7.21884l-3.01952,-3.41945l1.03983,-3.51944l1.40977,-0.88986l0.41993,-2.34962l-0.83987,-2.20965l-2.78955,-0.17997l0.45993,-3.22948l3.53943,-2.26964l3.97936,-0.37994l3.55943,2.24964l2.26964,0.12998l2.75956,-1.97968l2.62958,-3.21948l-0.24996,-1.93969"/><path d="M136.53731,273.2504l0.49692,2.00968l-1.8467,0.70989l1.34978,-2.71956"/><path d="M170.3499,203.92149l1.58675,3.45945l-2.28863,2.11966l-0.93885,3.62942l-2.04467,-0.52992l-1.01684,1.62974l0.5979,1.8597l-1.55575,1.35978l0.97884,2.27964l-4.09834,3.92937l-3.1065,-2.09966l-0.74088,-2.22964l1.82771,-0.79987l2.46561,-4.63926l0.38294,-1.93969l6.83491,-2.04967l1.45877,-3.63942l-0.34295,-2.33963"/><path d="M175.80203,200.63202l0.6129,2.06967l-2.97252,2.4996l0.45593,-3.85938l1.9037,-0.70989"/><path d="M177.04883,193.10322l2.94753,3.02952l2.91753,1.68973l-0.08799,-2.63958l1.60374,-0.14998l0.52692,3.47944l-1.21481,2.36962l-1.35178,-0.93985l-0.71089,1.38978l-2.72856,1.40977l0.24396,-2.25964l-2.57959,-1.44977l-0.35294,-4.42929l-2.00268,3.29947l-0.71189,-2.30963l1.78471,-2.32963l1.71673,-0.15997"/><path d="M209.26767,152.23976l1.83971,3.57943l-0.6499,4.11934l2.35962,1.07983l-3.03951,2.12966l-1.60974,5.51912l-1.46976,-0.41993l-3.7494,-3.7694l0.55991,-2.97952l-0.69989,-2.20965l-1.8997,-1.2798l2.34962,-1.56975l-0.23996,-2.66957l3.15949,1.19981l2.03967,-0.69989l1.04983,-2.02968"/><path d="M210.50747,147.56051l-1.47976,4.62926l-0.6299,-1.77972l2.10966,-2.84954"/><path d="M217.56634,143.13122l1.15981,3.1395l-5.93905,2.94953l1.04983,-4.33931l3.7294,-1.74972"/></g></g></g></svg>