<svg version="1.1" xmlns="http://www.w3.org/2000/svg" xmlns:xlink="http://www.w3.org/1999/xlink" width="208" height="32" viewBox="0,0,208,32"><g transform="translate(-240,-164)"><g data-paper-data="{&quot;isPaintingLayer&quot;:true}" fill-rule="nonzero" stroke="none" stroke-linecap="butt" stroke-linejoin="miter" stroke-miterlimit="10" stroke-dasharray="" stroke-dashoffset="0" style="mix-blend-mode: normal"><path d="M240,196v-32h208v32z" fill="none" stroke-width="0"/><path d="M248.85,171.76v-1.2598h2.1582v1.2598h7.3633v1.4844h-7.3633v0.9375h6.2793v1.4844h-6.2793v0.95703h8.4863v1.5234h-19.004v-1.5234h8.3594v-0.95703h-6.1816v-1.4844h6.1816v-0.9375h-7.2559v-1.4844zM256.8285,179.1624v8.4961c0,0.6966 -0.17253,1.17513 -0.51758,1.4356c-0.29297,0.22135 -0.791,0.33203 -1.4941,0.33203c-0.89847,0 -1.98247,-0.05534 -3.252,-0.16602l-0.33203,-1.8359c1.09373,0.14323 2.02147,0.21485 2.7832,0.21485c0.30599,0 0.49153,-0.04883 0.55664,-0.14649c0.05207,-0.07812 0.0781,-0.23437 0.0781,-0.46875v-1.123h-9.1602v3.6035h-2.1973v-10.342zM245.4905,180.6858v1.0938h9.1602v-1.0938zM245.4905,183.2639v1.1523h9.1602v-1.1523z" fill="#ffffff" stroke-width="1"/><path d="M272.71,174.11c1.8034,1.26953 3.9844,2.33723 6.543,3.2031l-1.2207,1.7871c-3.0664,-1.21093 -5.4134,-2.66277 -7.041,-4.3555v4.9316h-2.1192v-4.7559c-1.6406,1.9466 -3.94853,3.42447 -6.9238,4.4336l-1.1719,-1.582c1.78387,-0.57292 3.22593,-1.18489 4.3262,-1.8359c0.89193,-0.52735 1.6862,-1.13608 2.3828,-1.8262h-5.9961v-1.7969h7.3828v-1.8164h2.1192v1.8164h7.5586v1.7969zM264.4873,184.266c-0.86587,1.54947 -1.9466,2.88737 -3.2422,4.0137l-1.1133,-1.7773c1.62107,-1.15233 2.94267,-2.58137 3.9648,-4.2871h-3.6133v-1.7383h4.0039v-1.9238h2.002v1.9238h2.959v1.7383h-2.959v0.46875c1.10027,0.6706 2.14843,1.42257 3.1445,2.2559l-1.3086,1.4746c-0.41015,-0.46875 -1.02212,-1.07749 -1.8359,-1.8262v4.9121h-2.002zM275.7663,182.2152c0.97653,1.5104 2.3307,2.83853 4.0625,3.9844l-1.1035,1.9434c-1.5104,-1.27607 -2.6432,-2.60093 -3.3984,-3.9746v5.332h-2.002v-5.1465c-0.82033,1.4844 -1.90757,2.76043 -3.2617,3.8281l-1.2012,-1.543c1.7318,-1.26953 3.05993,-2.74413 3.9844,-4.4238h-2.6367v-1.7383h3.1152v-1.9238h2.002v1.9238h4.1602v1.7383z" fill="#ffffff" stroke-width="1"/><path d="M296.76,170.98v9.4629h-11.621v-9.4629zM287.2385,172.523v1.2207h7.4023v-1.2207zM287.2385,175.1207v1.2207h7.4023v-1.2207zM287.2385,177.7183v1.2598h7.4023v-1.2598zM283.3029,181.7417h16.191v1.6992h-8.0762v6.0644h-2.2168v-6.0644h-8.0371v-10.957h2.1387zM280.8029,187.6401c1.54947,-0.71613 3.0306,-1.9173 4.4434,-3.6035l1.7969,1.0449c-1.3932,1.76433 -2.93943,3.15107 -4.6387,4.1602zM297.6389,188.8999c-0.99607,-1.22393 -2.49347,-2.50973 -4.4922,-3.8574l1.6797,-1.1816c1.569,0.90493 3.1087,2.09307 4.6191,3.5644z" fill="#ffffff" stroke-width="1"/><path d="M311.5,176.92c0.48828,1.58853 1.26628,3.17383 2.334,4.7559c1.50393,2.23307 3.43753,4.069 5.8008,5.5078l-1.3574,2.0312c-2.168,-1.34767 -4.08207,-3.2194 -5.7422,-5.6152c-0.97653,-1.41273 -1.75453,-2.96873 -2.334,-4.668c-0.41015,1.4974 -0.96679,2.85157 -1.6699,4.0625c1.57553,1.0742 2.8646,2.10283 3.8672,3.0859l-1.3574,1.6016c-0.99607,-0.99607 -2.1842,-2.0117 -3.5644,-3.0469c-0.97007,1.28907 -1.9629,2.33723 -2.9785,3.1445c-0.6966,0.55989 -1.5104,1.10676 -2.4414,1.6406l-1.582,-1.8359c2.4414,-1.05467 4.39453,-2.71157 5.8594,-4.9707c1.1068,-1.71227 1.86527,-3.61007 2.2754,-5.6934h-7.6953v-2.0801h7.9004v-4.3359h2.3047v4.3359h7.9785v2.0801z" fill="#ffffff" stroke-width="1"/><path d="M331.03,173.3v7.6367h8.4668v2.002h-8.4668v6.5625h-2.1973v-6.5625h-8.3398v-2.002h8.3398v-7.6367h-7.4414v-1.9434h17.217v1.9434zM324.5163,180.1945c-0.64453,-1.91407 -1.35743,-3.6198 -2.1387,-5.1172l2.1191,-0.85937c0.7292,1.263 1.47463,2.97523 2.2363,5.1367zM333.1686,179.52067c0.83987,-1.57553 1.5495,-3.38217 2.1289,-5.4199l2.2168,0.71289c-0.61198,1.88153 -1.38021,3.7077 -2.3047,5.4785z" fill="#ffffff" stroke-width="1"/><path d="M351.56,175.5h-5.2246v-1.8164h2.666c-0.42318,-0.97007 -0.87241,-1.81643 -1.3477,-2.5391l1.9434,-0.72266c0.54687,0.918 1.04817,2.00523 1.5039,3.2617h3.1055c0.41667,-0.96353 0.8138,-2.05077 1.1914,-3.2617l2.1973,0.60547c-0.40365,1.02867 -0.80728,1.91407 -1.2109,2.6562h2.5586v1.8164h-5.2246v2.5195h4.6387v1.7578h-4.6387v2.6953h5.7812v1.8848h-5.7812v5.1465h-2.1582v-5.1465h-5.6445v-1.8848h5.6445v-2.6953h-4.668v-1.7578h4.668zM344.1577,175.23632c-0.77473,-1.0742 -1.80013,-2.11913 -3.0762,-3.1348l1.4746,-1.5039c1.3086,0.95053 2.3763,1.9629 3.2031,3.0371zM343.52293,180.25582c-1.0156,-1.237 -2.0703,-2.29493 -3.1641,-3.1738l1.4844,-1.5039c1.16533,0.84633 2.2428,1.8652 3.2324,3.0566zM340.70063,187.77532c1.15887,-1.6016 2.27213,-3.7533 3.3398,-6.4551l1.6602,1.2988c-0.91147,2.7344 -2.0052,5.0228 -3.2812,6.8652z" fill="#ffffff" stroke-width="1"/><path d="M377.86,180.14v9.3652h-2.1973v-1.123h-6.2012v1.123h-2.1777v-9.3652zM369.4616,182.0248v4.4531h6.2012v-4.4531zM364.7839,175.1791c-1.0026,-1.12627 -2.08983,-2.1126 -3.2617,-2.959l1.3965,-1.5625c1.31513,0.8268 2.4219,1.76757 3.3203,2.8223zM363.6804,180.4428c-1.10027,-1.21093 -2.21353,-2.20377 -3.3398,-2.9785l1.4356,-1.6211c1.3216,0.8594 2.4707,1.8327 3.4473,2.9199zM360.4578,187.6987c1.30207,-1.60807 2.5423,-3.68813 3.7207,-6.2402l1.6602,1.4844c-1.0026,2.46747 -2.16797,4.62567 -3.4961,6.4746zM377.8598,179.6616c-2.27213,-2.41533 -3.9453,-5.2018 -5.0195,-8.3594l2.0215,-0.80078c0.9896,2.7344 2.5293,5.20183 4.6191,7.4023zM365.6628,178.1382c1.82293,-1.83593 3.12827,-4.3099 3.916,-7.4219l2.0606,0.625c-0.73567,3.3724 -2.2005,6.19793 -4.3945,8.4766z" fill="#ffffff" stroke-width="1"/><path d="M391.18,173.6h4.4238v-2.3535h2.0801v4.0332h-14.961v-4.0332h2.0801v2.3535h4.2969v-3.0957h2.0801zM384.178,178.307v2.041c0,2.2526 -0.14323,4.00717 -0.42969,5.2637c-0.30599,1.3216 -0.89519,2.5651 -1.7676,3.7305l-1.7188,-1.416c0.59896,-0.83333 1.01889,-1.6569 1.2598,-2.4707c0.33203,-1.1198 0.49805,-2.86133 0.49805,-5.2246v-3.6621h17.002v1.7383zM392.4788,181.3636v1.8066h6.6992v1.7383h-6.6992v4.5996h-2.1973v-4.5996h-5.8789v-1.7383h5.8789v-1.8066h-4.8828v-1.6406h12.344v1.6406z" fill="#ffffff" stroke-width="1"/></g></g></svg>