<svg version="1.1" xmlns="http://www.w3.org/2000/svg" xmlns:xlink="http://www.w3.org/1999/xlink" width="208" height="32" viewBox="0,0,208,32"><g transform="translate(-240,-164)"><g data-paper-data="{&quot;isPaintingLayer&quot;:true}" fill-rule="nonzero" stroke="none" stroke-linecap="butt" stroke-linejoin="miter" stroke-miterlimit="10" stroke-dasharray="" stroke-dashoffset="0" style="mix-blend-mode: normal"><path d="M240,196v-32h208v32z" fill="none" stroke-width="0"/><path d="M243.65,178.26h3.3691v9.0527h-3.3496v1.7188h-1.7773v-7.2266c-0.24089,0.39713 -0.57292,0.87567 -0.99609,1.4356l-0.83985,-2.168c1.4388,-1.96613 2.4772,-4.53773 3.1152,-7.7148h-2.5391v-1.9043h7.0508v1.1816h4.1992v-2.1387h2.1387v2.1387h5.0976v1.8359h-5.9961c-0.47526,1.0026 -1.05143,2.0345 -1.7285,3.0957c0.73567,-0.03253 1.2858,-0.05533 1.6504,-0.0684c0.41016,-0.01953 0.85613,-0.04233 1.3379,-0.0684l1.377,-0.0781c-0.41667,-0.59245 -0.85613,-1.19792 -1.3184,-1.8164l1.543,-0.82031c1.25653,1.41927 2.34377,2.88087 3.2617,4.3848l-1.6797,1.123c-0.37109,-0.65104 -0.64128,-1.10677 -0.81055,-1.3672c-0.09115,0.013 -0.20508,0.02927 -0.34179,0.0488c-2.09633,0.3125 -4.90233,0.53711 -8.418,0.67383l-0.53711,-1.9043c0.46875,-0.00667 0.88868,-0.01317 1.2598,-0.0195l0.59571,-0.0195c0.61849,-1.08073 1.14909,-2.13543 1.5918,-3.1641h-3.5254v-1.1133h-2.3438c-0.29297,1.59507 -0.7552,3.2292 -1.3867,4.9024zM243.6695,180.0373v5.4785h1.6699v-5.4785zM251.8433,180.83808h1.7774v7.793h-1.7774zM254.9585,180.32051h1.8359v6.4551c0,0.16927 0.01953,0.28646 0.0586,0.35157c0.0586,0.08463 0.19206,0.12695 0.40039,0.12695c0.26041,0 0.41992,-0.09115 0.47851,-0.27344c0.09766,-0.29948 0.16602,-1.13281 0.20508,-2.5l1.7383,0.83985c-0.08463,1.54293 -0.2181,2.52273 -0.40039,2.9394c-0.20833,0.46224 -0.60873,0.74219 -1.2012,0.83984c-0.26041,0.03907 -0.58919,0.0586 -0.98633,0.0586c-0.78127,0 -1.31513,-0.08138 -1.6016,-0.24414c-0.35156,-0.20183 -0.52734,-0.62826 -0.52734,-1.2793zM248.7183,180.53535h1.8164v1.2988c0,2.181 -0.17904,3.82163 -0.53711,4.9219c-0.34505,1.05467 -1.01239,2.00193 -2.002,2.8418l-1.5625,-1.4258c0.69013,-0.48177 1.19143,-1.02541 1.5039,-1.6309c0.52083,-0.98307 0.78125,-2.59767 0.78125,-4.8438z" fill="#ffffff" stroke-width="1"/><path d="M270.96,177.08v1.2598h6.5234v7.5195h-14.961v-7.5195h6.3965v-1.2598h-8.418v-1.6406h4.9023v-1.582h-3.8574v-1.6016h3.8574v-1.7578h2.0996v1.7578h4.8633v-1.7578h2.1191v1.7578h3.9746v1.6016h-3.9746v1.582h5.0195v1.6406zM268.919,179.8632h-4.2969v1.4551h4.2969zM270.96,179.8632v1.4551h4.4043v-1.4551zM268.919,182.7538h-4.2969v1.6211h4.2969zM270.96,182.7538v1.6211h4.4043v-1.6211zM272.3662,173.8573h-4.8633v1.582h4.8633zM260.3452,188.0373c2.40887,-0.49479 4.5215,-1.20769 6.3379,-2.1387l1.6406,1.2012c-1.98567,1.15887 -4.1927,2.02477 -6.6211,2.5977zM278.0212,189.5998c-1.92707,-0.90493 -4.07877,-1.72523 -6.4551,-2.4609l1.6016,-1.2402c2.08333,0.50781 4.22853,1.22071 6.4356,2.1387z" fill="#ffffff" stroke-width="1"/><path d="M287.74,171.98c0.24089,-0.57943 0.4362,-1.13283 0.58594,-1.6602l2.3828,0.32226c-0.22787,0.54037 -0.4362,0.98633 -0.625,1.3379h6.5039v6.3672h-11.797v0.98633h14.697v1.582h-14.697v0.99609h14.014c-0.08463,2.9818 -0.27343,4.99353 -0.5664,6.0352c-0.18881,0.66406 -0.54364,1.10353 -1.0645,1.3184c-0.37109,0.15625 -0.93749,0.23437 -1.6992,0.23437c-0.78127,0 -1.51043,-0.04883 -2.1875,-0.14648l-0.39063,-1.6406h-9.7852v1.084h-2.0996v-4.6973h2.0996v2.0117h3.3594v-2.6367h-3.8379v-11.494zM291.8904,186.111v-2.0117h2.0215v3.3984c0.54036,0.05207 0.98956,0.0781 1.3476,0.0781c0.44271,0 0.7194,-0.12695 0.83008,-0.38085c0.21485,-0.47527 0.38412,-1.7155 0.50781,-3.7207h-8.0273v2.6367zM284.7908,173.484v0.96679h9.6387v-0.96679zM284.7908,175.8473v1.0644h9.6387v-1.0644z" fill="#ffffff" stroke-width="1"/><path d="M305.52,185.06c0.52083,0.60547 1.10677,1.05471 1.7578,1.3477c1.06773,0.48177 2.46747,0.72266 4.1992,0.72266h8.3203c-0.23437,0.44271 -0.45247,1.07747 -0.6543,1.9043h-7.7637c-2.2396,0 -3.9551,-0.35157 -5.1465,-1.0547c-0.48828,-0.29297 -1.02538,-0.77151 -1.6113,-1.4356c-0.0456,0.05207 -0.10094,0.11717 -0.16602,0.19531c-0.957,1.1328 -1.90753,2.05727 -2.8516,2.7734l-1.1816,-2.002c1.03513,-0.61849 2.03447,-1.31836 2.998,-2.0996v-4.8242h-2.8418v-1.9238h4.9414zM308.0591,172.101l0.51758,-0.0391c3.01433,-0.20833 5.72267,-0.6543 8.125,-1.3379l1.5234,1.7188c-2.52607,0.66406 -5.22137,1.11326 -8.0859,1.3476v2.5293h9.043v1.9043h-3.2812v7.959h-2.1582v-7.959h-3.6035c-0.03253,2.08987 -0.18878,3.75327 -0.46875,4.9902c-0.25391,1.13933 -0.67057,2.16147 -1.25,3.0664l-1.7969,-1.3574c0.64453,-1.0026 1.05793,-2.2461 1.2402,-3.7305c0.13021,-1.02213 0.19531,-2.4121 0.19531,-4.1699zM304.4458,175.9194c-0.99607,-1.40627 -2.0703,-2.66603 -3.2227,-3.7793l1.6016,-1.2793c1.1198,0.93747 2.2461,2.12887 3.3789,3.5742z" fill="#ffffff" stroke-width="1"/><path d="M337.76,175.8c0,0.30599 -0.0293,1.75783 -0.0879,4.3555h1.8652v1.7578h-1.9043c-0.01953,0.85287 -0.06185,1.81967 -0.12695,2.9004h1.6504v1.7188h-1.7774c-0.07813,0.944 -0.18555,1.569 -0.32226,1.875c-0.30599,0.7292 -1.04819,1.0938 -2.2266,1.0938c-0.7552,0 -1.4518,-0.05534 -2.0898,-0.16601l-0.36133,-1.7383c0.918,0.13021 1.62113,0.19531 2.1094,0.19531c0.39713,0 0.63476,-0.13997 0.71289,-0.41992c0.03907,-0.13672 0.07487,-0.41667 0.10742,-0.83985h-6.9531c-0.00667,0.05207 -0.01643,0.10741 -0.0293,0.16602c-0.0586,0.34505 -0.11394,0.67057 -0.16602,0.97656l-2.0215,-0.19531c0.39713,-2.35027 0.66406,-4.1276 0.80078,-5.332l0.0293,-0.23438h-1.9531v-1.7578h2.1582c0.18229,-1.57553 0.33854,-3.02737 0.46875,-4.3555zM331.5881,177.4992h-2.1387c-0.01953,0.33203 -0.07813,1.0319 -0.17578,2.0996l-0.0586,0.55664h2.168l0.0293,-0.27344c0.013,-0.1888 0.03253,-0.45247 0.0586,-0.79101c0.06513,-0.91147 0.1042,-1.44207 0.11719,-1.5918zM333.5119,177.4992c-0.03253,0.77473 -0.08136,1.63087 -0.14648,2.5684v0.0879h2.2949c0.02607,-0.89193 0.04887,-1.77733 0.0684,-2.6562zM331.2267,181.9133h-2.1973c-0.09765,0.79427 -0.20182,1.57877 -0.3125,2.3535l-0.0781,0.54687h2.2852c0.15625,-1.41273 0.25717,-2.37953 0.30274,-2.9004zM333.2287,181.9133c-0.01953,0.26042 -0.0586,0.69012 -0.11719,1.2891l-0.15625,1.6113h2.4902c0.03253,-0.63151 0.05857,-1.10677 0.0781,-1.4258c0.03907,-0.6966 0.0651,-1.18813 0.0781,-1.4746zM329.4006,172.2746h9.4336v1.8164h-10.244c-0.52735,1.0742 -1.19791,2.09633 -2.0117,3.0664l-1.3965,-1.5234c1.28253,-1.50393 2.194,-3.2357 2.7344,-5.1953l2.0801,0.21485c-0.23437,0.67707 -0.43294,1.21743 -0.5957,1.6211zM324.0197,175.1164c-0.8008,-1.10027 -1.7741,-2.13217 -2.9199,-3.0957l1.4746,-1.4258c1.0612,0.78127 2.07033,1.7676 3.0274,2.959zM323.31657,180.2726c-0.9896,-1.26953 -1.98893,-2.334 -2.998,-3.1934l1.5234,-1.4648c1.1328,0.89193 2.15167,1.90757 3.0566,3.0469zM320.66037,187.9386c1.1328,-1.569 2.20703,-3.63607 3.2227,-6.2012l1.7383,1.2402c-0.84633,2.3698 -1.93357,4.54427 -3.2617,6.5234z" fill="#ffffff" stroke-width="1"/></g></g></svg>