<?xml version="1.0" encoding="UTF-8"?>
<svg width="224" height="32" version="1.1" viewBox="0 0 224 32" xmlns="http://www.w3.org/2000/svg">
 <rect width="224" height="32" fill-opacity="0" stop-color="#000000" stroke-width="0" style="paint-order:markers stroke fill"/>
 <g fill="#fff" shape-rendering="auto">
  <path d="m72.51 8.1914-0.03906 0.058594c-1.1884 1.8085-2.7801 3.2136-4.7812 4.2168l-0.12891 0.06445 1.4102 1.3027 0.0625-0.03516c0.79863-0.45273 1.5729-1.0033 2.3262-1.6328 0.6869 0.69546 1.4533 1.3561 2.2871 1.9883-1.8874 1.0432-4.0235 1.8343-6.4258 2.3574l-0.14258 0.03125 1.1621 1.748 0.07227-0.02344c0.69627-0.23683 1.0988-0.37925 1.3457-0.4707v5.9375h1.9727v-0.94531h6.8398v0.94531h1.9883v-6.2988c0.33961 0.10291 0.80315 0.23159 1.4844 0.4043l0.07813 0.01953 0.94727-1.8359-0.12891-0.02734c-2.3082-0.48087-4.2563-1.1355-5.8984-1.9395 0.59578-0.47667 1.0929-0.88837 1.4141-1.1855 0.73468-0.66646 1.5223-1.5295 2.3633-2.5898l0.06055-0.07422-1.0547-0.91602h-5.707c0.11816-0.17204 0.2356-0.34548 0.34766-0.51757l0.07617-0.11914zm12.836 0.13867v3.7734h-1.9844v1.7871h1.9844v5.3398c-0.03651 0.01065-0.06865 0.01922-0.11328 0.03516-0.60142 0.18657-1.3022 0.38417-2.1016 0.5918l-0.10352 0.02539 0.61133 1.8574 0.0918-0.02734c1.7806-0.52218 3.5172-1.1686 5.209-1.9414l0.06641-0.0293-0.16992-1.709-0.12109 0.04492c-0.49156 0.18612-0.9899 0.36412-1.4902 0.53711v-4.7246h1.4141l-1.0156 0.34961 0.41406 1.7109 1.4648-0.50586v6.0547c0 0.39774 0.04165 0.7198 0.13086 0.9707v2e-3c0.17997 0.47804 0.61577 0.77672 1.2559 0.88477 0.42959 0.07613 1.2944 0.11133 2.6191 0.11133 1.7099 0 2.9224-0.04008 3.6445-0.11914 0.47155-0.0542 0.83947-0.2325 1.082-0.53711 0.37233-0.4697 0.5706-1.4587 0.6543-3.002l4e-3 -0.08008-1.8359-0.51758v0.13086c-0.0052 0.63622-0.05161 1.1855-0.13867 1.6465-0.06358 0.31082-0.18675 0.47086-0.36914 0.53125-0.36737 0.11601-1.185 0.18359-2.416 0.18359-1.2633 0-2.0793-0.04716-2.4062-0.12891-0.15403-0.03734-0.25726-0.10523-0.32812-0.20508s-0.11133-0.23954-0.11133-0.42578v-6.1152l1.4805-0.51562v5.7402h1.7695v-6.3496l1.6836-0.58594v3.5527c0 0.17277-0.03033 0.28768-0.0625 0.33594l-2e-3 0.0039-2e-3 2e-3c-0.01092 0.01966-0.03304 0.04226-0.08789 0.06055-0.05485 0.01828-0.13833 0.0293-0.24609 0.0293-0.30951 0-0.61279-0.03718-0.91211-0.11328l-0.15039-0.03906 0.29688 1.7148 0.07031 0.01172c0.47836 0.07359 0.93174 0.11133 1.3594 0.11133 0.52977 0 0.92535-0.11089 1.1719-0.35742v-2e-3h2e-3c0.21657-0.22242 0.31641-0.5545 0.31641-0.97656v-5.9062l-0.9082-0.55469-2.5293 0.86914v-3.5313h-1.7695v4.1465l-1.4805 0.50195v-3.625h-1.7852v4.2402l-0.76172 0.26172v-1.752h-1.5156v-3.7734zm53.031 0v1.4062h-6.1797v5.4277c0 1.6901-0.0658 3.0777-0.19532 4.1602-0.14492 1.2318-0.41454 2.2721-0.80468 3.1191l-0.0312 0.07031 1.5801 1.25 0.0547-0.10938c0.22717-0.4516 0.42083-0.92925 0.58203-1.4297l0.89258 1.582 0.0703-0.01172c2.3067-0.40433 4.2068-0.99878 5.7188-1.7773 1.6666 0.84254 3.5124 1.4085 5.5469 1.6836l0.0644 0.0098 1.0312-1.668-0.15625-0.01758c-2.0577-0.2264-3.6531-0.58446-4.8633-1.0508 1.3603-1.0202 2.4569-2.1 3.209-3.2559l0.0488-0.07422-0.91601-0.76758h-9.2852v1.5605h1.1387c0.71124 0.9871 1.5731 1.8356 2.5547 2.5703-1.211 0.50606-2.8291 0.89865-4.9336 1.1504l-0.10743 0.01367c0.14134-0.44643 0.25982-0.90914 0.34961-1.3945 0.25182-1.3798 0.37696-3.2504 0.37696-5.6133v-1.3516h2.3633v2.3281h6.4883v-2.3281h3.25v-1.4668h-3.25v-1.0957h3.4688v-1.5137h-6.125v-1.4062zm10.812 0v15.404h1.832v-11.762c0.18187 0.45111 0.36423 0.90145 0.57032 1.5586l0.0488 0.15625 0.40821-0.4043v1.3496h10.73v-1.4512h-4.5625v-0.57227h3.4922v-1.3184h-3.4922v-0.54883h4.0469v-1.373h-4.0468v-1.0391h-1.8164v1.0391h-3.8516v1.373h3.8516v0.54883h-3.3906v1.3184h3.3906v0.57227h-4.25l0.71484-0.70898-0.0215-0.06055c-0.26793-0.73548-0.63036-1.4983-1.0859-2.2891l-0.0586-0.10352-0.67774 0.56445v-2.2539zm17.25 0v1.6328h-2.5469v1.5762h2.5469v1.1426h-3.2031v1.5918h1.1738c0.2129 0.55849 0.39295 1.1492 0.54687 1.7676h-1.4004v1.5605h2.8828v1.2441h-2.7578v1.5918h2.7578v3.2969h1.832v-3.2969h2.5703v-1.5918h-2.5703v-1.2441h2.6719v-1.5605h-1.4688c0.24506-0.61671 0.44982-1.2079 0.60351-1.7676h0.95899v-1.5918h-2.7656v-1.1426h2.4297v-1.5762h-2.4297v-1.6328zm-49.305 0.32031v1.3184h4.8828v0.4707h-6.3672v3.0059h1.8789v-1.7969h4.4883v3.0391h1.8633v-3.0391h4.5742v1.7969h1.8945v-3.0059h-6.4688v-0.4707h4.9844v-1.3184zm54.133 0.24219v14.842h1.7852v-1.0098l0.80665 1.1191 0.082-0.07422c0.67571-0.60512 1.2792-1.2523 1.8242-1.9355 0.63383 0.71078 1.3412 1.3355 2.1406 1.8516l0.0879 0.05664 0.97852-1.6328-0.082-0.05273c-0.83207-0.5295-1.5174-1.1151-2.0762-1.75l0.0449-0.08398 2e-3 -2e-3c0.75052-1.3127 1.266-2.8033 1.5488-4.4688l0.01-0.05664-1-0.85742h-4.3672v-4.3379h3.2227v1.7812c0 0.08766-0.0223 0.13434-0.0586 0.16602s-0.10113 0.05469-0.20899 0.05469c-0.22104 0-0.77309-0.04698-1.6367-0.14062l-0.13476-0.01367 0.30469 1.6133 0.0762 0.0059c0.61737 0.05232 1.2342 0.08008 1.8516 0.08008 0.64205 0 1.0836-0.10767 1.3164-0.37109 0.19324-0.2174 0.27539-0.56196 0.27539-1.0273v-3.7559h-0.0996zm-63.939 0.46094c-1.1633 0-2.236 0.21288-3.2129 0.64062-1.3406 0.58587-2.4319 1.5277-3.2695 2.8184-0.82763 1.2652-1.2422 2.6535-1.2422 4.1562 0 0.92765 0.15239 1.7967 0.45898 2.6055 0.2327 0.62406 0.53711 1.1537 0.91602 1.5859 0.59195 0.68261 1.2831 1.0352 2.0527 1.0352 1.0405 0 1.9597-0.71719 2.75-2.0977h2e-3c0.54484-0.96395 1.0007-1.9884 1.3672-3.0723h-2e-3c0.52369-1.5198 0.9322-3.4813 1.2383-5.8359 1.3329 0.28232 2.3304 0.86945 2.9844 1.791 0.60185 0.84157 0.9043 1.844 0.9043 3.0195 0 1.3486-0.37566 2.4439-1.123 3.3008-0.74738 0.85689-1.8736 1.4793-3.3887 1.8613l-0.1289 0.03125 0.0684 0.11524 0.96093 1.6367 0.0723-0.01953c1.8508-0.49093 3.2497-1.3211 4.1836-2.4922 0.93395-1.1711 1.3984-2.6798 1.3984-4.5117 0-2.1904-0.78648-3.9013-2.3516-5.1016-1.2735-0.97758-2.8239-1.4668-4.6387-1.4668zm-34.699 1.623h5.1719c-0.71221 0.75623-1.5371 1.4827-2.5215 2.168-1.0208-0.66737-1.9192-1.3723-2.6992-2.1133l0.0059-0.0059c0.0157-0.01571 0.02879-0.03289 0.04297-0.04883zm33.857 0.16016c-0.41076 3.2183-1.1683 5.8264-2.2852 7.791-0.23156 0.40909-0.45002 0.7135-0.65039 0.91016s-0.37665 0.28125-0.52734 0.28125c-0.22762 0-0.48149-0.17014-0.75391-0.55859-0.44236-0.62836-0.66992-1.5087-0.66992-2.6465 0-1.5552 0.53093-2.914 1.5996-4.0957 0.38532-0.41615 0.77157-0.74847 1.1582-0.99805 0.5664-0.35697 1.2936-0.57063 2.1289-0.68359zm27.637 0.11328h2.3633v1.0957h-2.3633zm4.2266 0h2.7617v1.0957h-2.7617zm9.1816 0.38281-0.0449 0.74414c-0.10397 1.7155-0.27315 3.1119-0.50586 4.1875l-0.0156 0.07422 0.0664 0.03516 1.4453 0.77344 0.0273-0.12891c0.30416-1.4001 0.48625-3.2142 0.54882-5.4473l4e-3 -0.09375zm-29.514 0.39258v1.084h3.5273v-1.084zm6.3359 0v1.084h3.6289v-1.084zm-6.3359 1.4375v1.0996h3.5273v-1.0996zm6.3359 0v1.0996h3.6289v-1.0996zm13.996 0.34961h2.7617v1.0098h-2.7617zm27.783 0.46094h2.2148c-0.13344 0.58021-0.31319 1.1693-0.55274 1.7676h-1.1484c-0.18105-0.72136-0.3524-1.3016-0.51367-1.7676zm-49.873 0.68164v3.4121c0 0.71038-0.0348 1.303-0.10157 1.7754-0.12285 0.87018-0.43395 1.6259-0.93359 2.2734l-0.0586 0.07617 1.5449 1.2773 0.0645-0.08203c0.44442-0.57669 0.76725-1.201 0.96875-1.8691 0.16283-0.53428 0.27369-1.2558 0.34766-2.123h1.5273v2.4316h-6e-3c-0.30098 0.03633-0.86212 0.09897-1.6797 0.1875l-0.12304 0.01367 0.52734 1.5723 0.082-0.01172c2.3619-0.32327 4.4615-0.70412 6.2988-1.1426l0.084-0.01953-0.11523-1.2324c0.11391 0.09925 0.23235 0.19499 0.35352 0.28906 0.14611 0.18162 0.29722 0.35972 0.50586 0.49609 1.0876 0.70745 2.4726 1.204 4.1543 1.4922l0.0644 0.0098 1.041-1.5117-0.1582-0.02344c-1.1025-0.16369-1.9942-0.39498-2.752-0.66406 0.71154-0.39421 1.3645-0.80652 1.9024-1.2539l0.10351-0.08594-0.82812-0.54688h1.541v-1.3027h-12.477v-2.1973h11.805v-1.2403zm-41.021 0.29492c1.2133 0.72035 2.7248 1.35 4.4473 1.916h-8.4629c1.5517-0.61867 2.9322-1.253 4.0156-1.916zm77.967 0.0098v8.4746h1.832v-2.9141h4.5977v0.90625c0 0.12354-0.0147 0.21222-0.0312 0.25195h-2e-3c-0.0102 0.0254-0.026 0.04404-0.0703 0.0625-0.0443 0.01845-0.1151 0.03125-0.21094 0.03125-0.39941 0-0.9463-0.04194-1.6367-0.125l-0.13086-0.01563 0.25977 1.6113 0.0723 0.0098c0.6811 0.08907 1.345 0.13477 1.9902 0.13477 0.55481 0 0.9637-0.10828 1.2168-0.34961 0.25554-0.24393 0.375-0.62403 0.375-1.1191v-6.959h-0.0996zm19.848 1.1855h8e-3c0.3218 1.4282 0.86511 2.7413 1.6289 3.9375-0.52766 0.69642-1.0764 1.2171-1.6367 1.6289zm1.6602 0h1.7266c-0.13248 0.76208-0.40228 1.5285-0.77539 2.2969-0.39793-0.68928-0.72264-1.4466-0.95117-2.2969zm-19.676 0.16406h4.5977v0.71289h-4.5977zm-36.168 0.04102v1.2246h9.9258v-1.2246zm19.145 1.7871h4.1016c-0.51964 0.56781-1.186 1.1415-2.0762 1.7227-0.79015-0.50037-1.4497-1.0845-2.0254-1.7227zm17.023 0.23438h4.5977v0.75977h-4.5977zm-83.406 0.17969h6.8398v2.2285h-6.8398zm49.852 0.84375h1.5898c0.19939 0.34062 0.46529 0.63383 0.7539 0.91016 0.2269 0.27484 0.47288 0.53671 0.74219 0.78125-0.94795 0.17554-1.9825 0.34176-3.0859 0.49805zm3.584 0h2.8672c-0.40093 0.37665-0.87918 0.77144-1.502 1.1992-0.52931-0.32454-0.971-0.73673-1.3652-1.1992z" color="#000000" color-rendering="auto" dominant-baseline="auto" image-rendering="auto" solid-color="#000000" stop-color="#000000" style="font-feature-settings:normal;font-variant-alternates:normal;font-variant-caps:normal;font-variant-east-asian:normal;font-variant-ligatures:normal;font-variant-numeric:normal;font-variant-position:normal;font-variation-settings:normal;inline-size:0;isolation:auto;mix-blend-mode:normal;shape-margin:0;shape-padding:0;text-decoration-color:#000000;text-decoration-line:none;text-decoration-style:solid;text-indent:0;text-orientation:mixed;text-transform:none;white-space:normal"/>
  <path d="m53 7.5c-4.6917 0-8.5 3.8083-8.5 8.5s3.8083 8.5 8.5 8.5 8.5-3.8083 8.5-8.5-3.8083-8.5-8.5-8.5zm0 2c3.6183 0 6.5 2.8817 6.5 6.5s-2.8817 6.5-6.5 6.5-6.5-2.8817-6.5-6.5 2.8817-6.5 6.5-6.5z" color="#000000" color-rendering="auto" dominant-baseline="auto" image-rendering="auto" solid-color="#000000" stop-color="#000000" style="font-feature-settings:normal;font-variant-alternates:normal;font-variant-caps:normal;font-variant-east-asian:normal;font-variant-ligatures:normal;font-variant-numeric:normal;font-variant-position:normal;font-variation-settings:normal;inline-size:0;isolation:auto;mix-blend-mode:normal;shape-margin:0;shape-padding:0;text-decoration-color:#000000;text-decoration-line:none;text-decoration-style:solid;text-indent:0;text-orientation:mixed;text-transform:none;white-space:normal"/>
  <path d="m53.012 11.809c-0.30062 0-0.57221 0.11213-0.7793 0.32617-0.21404 0.20708-0.32617 0.47868-0.32617 0.7793 0 0.30669 0.11187 0.57806 0.32812 0.7793h2e-3v2e-3c0.20805 0.19912 0.4774 0.30274 0.77539 0.30274 0.30505 0 0.57477-0.10406 0.77734-0.30664 0.20258-0.20258 0.30664-0.47229 0.30664-0.77734 0-0.29799-0.10362-0.56734-0.30273-0.77539-0.20142-0.21753-0.47364-0.33008-0.78125-0.33008zm-0.88281 2.625a0.15002 0.15002 0 0 0-0.15039 0.14844v5.4609a0.15002 0.15002 0 0 0 0.15039 0.15039h1.7422a0.15002 0.15002 0 0 0 0.15039-0.15039v-5.4609a0.15002 0.15002 0 0 0-0.15039-0.14844z" color="#000000" color-rendering="auto" dominant-baseline="auto" image-rendering="auto" solid-color="#000000" stop-color="#000000" style="font-feature-settings:normal;font-variant-alternates:normal;font-variant-caps:normal;font-variant-east-asian:normal;font-variant-ligatures:normal;font-variant-numeric:normal;font-variant-position:normal;font-variation-settings:normal;inline-size:0;isolation:auto;mix-blend-mode:normal;shape-margin:0;shape-padding:0;text-decoration-color:#000000;text-decoration-line:none;text-decoration-style:solid;text-indent:0;text-orientation:mixed;text-transform:none;white-space:normal"/>
 </g>
</svg>
