<svg version="1.1" xmlns="http://www.w3.org/2000/svg" xmlns:xlink="http://www.w3.org/1999/xlink" width="208" height="32" viewBox="0,0,208,32"><g transform="translate(-240,-164)"><g data-paper-data="{&quot;isPaintingLayer&quot;:true}" fill-rule="nonzero" stroke="none" stroke-linecap="butt" stroke-linejoin="miter" stroke-miterlimit="10" stroke-dasharray="" stroke-dashoffset="0" style="mix-blend-mode: normal"><path d="M240,196v-32h208v32z" fill="none" stroke-width="0"/><path d="M247,181.93h10.762v7.5684h-2.1582v-1.0644h-9.2774v1.0644h-2.0996v-4.834c-0.76173,0.61849 -1.62437,1.20769 -2.5879,1.7676l-1.3965,-1.6797c1.02867,-0.48828 1.96617,-1.06121 2.8125,-1.7188c1.38673,-1.08727 2.5,-2.30147 3.3398,-3.6426h-5.8887v-1.7383h18.994v1.7383h-10.713c-0.46875,0.83333 -1.06445,1.6797 -1.7871,2.5391zM246.32617,183.6097v3.1445h9.2774v-3.1445zM251.10157,174.2152h4.5801v-2.9004h2.1191v4.5606h-15.4v-4.5606h2.0996v2.9004h4.4629v-3.7207h2.1387z" fill="#ffffff" stroke-width="1"/><path d="M271.23,173.24v3.1543h7.0898v1.9238h-7.0898v2.6953h8.2715v1.9629h-8.2715v4.3945c0,0.78127 -0.2181,1.32163 -0.6543,1.6211c-0.33203,0.22787 -0.88543,0.3418 -1.6602,0.3418c-1.26953,0 -2.50977,-0.06511 -3.7207,-0.19532l-0.38086,-2.0996c1.50393,0.19531 2.64,0.29296 3.4082,0.29296c0.36458,0 0.59244,-0.06836 0.68359,-0.20507c0.0586,-0.09766 0.0879,-0.26042 0.0879,-0.48829v-3.6621h-8.4961v-1.9629h8.4961v-2.6953h-7.5v-1.9238h7.5v-2.8711l-0.53711,0.0586c-1.862,0.20183 -3.8086,0.35808 -5.8398,0.46875l-0.83985,-1.8164c5.15627,-0.21485 9.8436,-0.78778 14.062,-1.7188l1.2207,1.6797c-1.82293,0.41015 -3.7663,0.75845 -5.8301,1.0449z" fill="#ffffff" stroke-width="1"/><path d="M296.76,170.98v9.4629h-11.621v-9.4629zM287.2385,172.523v1.2207h7.4023v-1.2207zM287.2385,175.1207v1.2207h7.4023v-1.2207zM287.2385,177.7183v1.2598h7.4023v-1.2598zM283.3029,181.7417h16.191v1.6992h-8.0762v6.0644h-2.2168v-6.0644h-8.0371v-10.957h2.1387zM280.8029,187.6401c1.54947,-0.71613 3.0306,-1.9173 4.4434,-3.6035l1.7969,1.0449c-1.3932,1.76433 -2.93943,3.15107 -4.6387,4.1602zM297.6389,188.8999c-0.99607,-1.22393 -2.49347,-2.50973 -4.4922,-3.8574l1.6797,-1.1816c1.569,0.90493 3.1087,2.09307 4.6191,3.5644z" fill="#ffffff" stroke-width="1"/><path d="M311.58,174.14v-3.6426h2.0996v3.6426h5.293v8.8379h-5.293v6.5234h-2.0996v-6.5234h-5.1856v-8.8379zM308.4159,176.0834v4.9707h3.1641v-4.9707zM316.8925,181.0541v-4.9707h-3.2129v4.9707zM304.3925,175.2729c-0.79427,-1.1068 -1.8457,-2.16473 -3.1543,-3.1738l1.4551,-1.4844c1.30207,0.918 2.40233,1.94663 3.3008,3.0859zM303.75774,180.2924c-1.1328,-1.31513 -2.23307,-2.3926 -3.3008,-3.2324l1.5039,-1.5039c1.13933,0.8008 2.26563,1.83597 3.3789,3.1055zM300.72064,187.8608c1.25,-1.77733 2.40233,-3.99087 3.457,-6.6406l1.7383,1.3379c-0.89193,2.4414 -1.97917,4.73957 -3.2617,6.8945z" fill="#ffffff" stroke-width="1"/></g></g></svg>