<svg version="1.1" xmlns="http://www.w3.org/2000/svg" xmlns:xlink="http://www.w3.org/1999/xlink" width="168.1" height="32.765" viewBox="0,0,168.1,32.765"><g transform="translate(-240,-180)"><g data-paper-data="{&quot;isPaintingLayer&quot;:true}" stroke="none" stroke-linecap="butt" stroke-linejoin="miter" stroke-miterlimit="10" stroke-dasharray="" stroke-dashoffset="0" style="mix-blend-mode: normal"><path d="M248,180h152.1c4.432,0 8,3.568 8,8v16.765c0,4.432 -3.568,8 -8,8h-152.1c-4.432,0 -8,-3.568 -8,-8v-16.765c0,-4.432 3.568,-8 8,-8z" fill-opacity="0.7" fill="#000000" fill-rule="evenodd" stroke-width="0"/><g fill="#ffffff" fill-rule="nonzero" stroke-width="1"><path d="M248.42,187.67h4.3359l0.51563,0.60938l-0.29688,0.16406c-1.25,0.69273 -2.22397,1.2409 -2.9219,1.6445c1.6354,-0.06513 3.02993,-0.13154 4.1836,-0.19922l0.0664,0.82422l-1.2969,0.0547c-0.64063,0.02867 -1.23046,0.1758 -1.7695,0.44141c-0.7526,0.37239 -1.1289,0.84113 -1.1289,1.4062c0,0.44271 0.25781,0.74609 0.77344,0.91015c0.40625,0.12761 1.06119,0.19271 1.9648,0.19532v0.84765c-1.14847,-0.00267 -1.9792,-0.11465 -2.4922,-0.33594c-0.7396,-0.3151 -1.1094,-0.8242 -1.1094,-1.5273c0,-0.8698 0.58723,-1.51043 1.7617,-1.9219c-0.61979,0.0208 -1.71223,0.07418 -3.2773,0.16015l-0.28516,0.0156l-0.0547,-0.81641c0.44271,0 0.89065,-0.0078 1.3438,-0.0234c1.06773,-0.66145 2.06253,-1.22655 2.9844,-1.6953h-3.2969z"/><path d="M259.07,193.61c1.52867,-0.38541 2.293,-1.26171 2.293,-2.6289c0,-0.59635 -0.15365,-1.10939 -0.46094,-1.5391c-0.34375,-0.48437 -0.86719,-0.79557 -1.5703,-0.93359c-0.15365,1.20833 -0.36328,2.19793 -0.62891,2.9688c-0.18229,0.53906 -0.40886,1.04816 -0.67969,1.5273c-0.39062,0.68227 -0.83462,1.0234 -1.332,1.0234c-0.36979,0 -0.69922,-0.16667 -0.98828,-0.5c-0.18489,-0.21094 -0.33463,-0.47005 -0.44922,-0.77734c-0.15104,-0.39844 -0.22656,-0.82684 -0.22656,-1.2852c0,-0.7422 0.20443,-1.4258 0.61328,-2.0508c0.41406,-0.63802 0.95183,-1.10155 1.6133,-1.3906c0.48177,-0.21093 1.01041,-0.3164 1.5859,-0.3164c0.89847,0 1.6615,0.24088 2.2891,0.72265c0.7708,0.59115 1.1562,1.42838 1.1562,2.5117c0,1.81513 -0.91797,2.96617 -2.7539,3.4531zM258.48406,188.4772c-0.46094,0.05207 -0.84634,0.17576 -1.1562,0.37109c-0.19791,0.12761 -0.39453,0.29688 -0.58984,0.50781c-0.54167,0.59896 -0.8125,1.29296 -0.8125,2.082c0,0.57552 0.11458,1.02605 0.34375,1.3516c0.14062,0.20052 0.27994,0.30078 0.41797,0.30078c0.1875,0 0.39844,-0.20703 0.63281,-0.62109c0.57291,-1.0078 0.96095,-2.33853 1.1641,-3.9922z"/><path d="M266.77,190.36v3.0938c0,0.20052 0.08594,0.32161 0.25781,0.36328c0.17708,0.04427 0.58201,0.0664 1.2148,0.0664c0.61719,0 1.02475,-0.03123 1.2227,-0.0937c0.11198,-0.03647 0.1849,-0.13803 0.21875,-0.30469c0.04427,-0.23437 0.0677,-0.51172 0.0703,-0.83203l0.81641,0.23047c-0.04167,0.7682 -0.14714,1.25907 -0.31641,1.4726c-0.11198,0.14063 -0.28125,0.22396 -0.50781,0.25c-0.35677,0.03907 -0.96224,0.0586 -1.8164,0.0586c-0.66145,0 -1.09505,-0.01823 -1.3008,-0.0547c-0.30989,-0.05207 -0.50651,-0.18879 -0.58984,-0.41016c-0.04167,-0.11719 -0.0625,-0.27344 -0.0625,-0.46875v-3.0976l-0.7461,0.25781l-0.18359,-0.75781l0.92969,-0.32031v-2.1055h0.79297v1.832l0.83984,-0.28516v-2.0586h0.78516v1.7852l1.3086,-0.44921l0.41016,0.25v2.9258c0,0.20312 -0.04818,0.35416 -0.14453,0.45312c-0.10938,0.10937 -0.29298,0.16406 -0.55079,0.16406c-0.21093,0 -0.43489,-0.01823 -0.67187,-0.0547l-0.12891,-0.7461c0.15365,0.03907 0.3099,0.0586 0.46875,0.0586c0.11459,0 0.1849,-0.02343 0.21094,-0.0703c0.02607,-0.03907 0.0391,-0.10417 0.0391,-0.19531v-1.8476l-0.9414,0.32812v3.1602h-0.78516v-2.8906zM263.8989,189.0827v-1.8867h0.83985v1.8867h0.75781v0.79297h-0.75781v2.4844c0.27343,-0.09375 0.54427,-0.1914 0.8125,-0.29297l0.0742,0.75391c-0.84373,0.38541 -1.70963,0.70833 -2.5977,0.96875l-0.27344,-0.83203c0.40104,-0.10417 0.75261,-0.20313 1.0547,-0.29688c0.03647,-0.013 0.0664,-0.0221 0.0898,-0.0273v-2.7578h-0.99218v-0.79297z"/><path d="M277.54,188.57c-0.013,-0.02607 -0.02473,-0.0521 -0.0352,-0.0781c-0.15104,-0.34115 -0.36328,-0.67448 -0.63672,-1l0.64844,-0.30469c0.28906,0.32292 0.52344,0.67449 0.70313,1.0547l-0.625,0.32813h0.82421v0.71875h-1.8047l0.008,0.15625c0.03907,0.82293 0.11849,1.53387 0.23828,2.1328c0.21615,-0.47396 0.41146,-1.00129 0.58594,-1.582l0.72656,0.3125c-0.30989,0.8802 -0.65496,1.64973 -1.0352,2.3086c0.10938,0.32552 0.23178,0.61068 0.36719,0.85547c0.05207,0.09375 0.09113,0.14062 0.11719,0.14062c0.02867,0 0.07164,-0.07812 0.12891,-0.23437c0.06507,-0.18489 0.11715,-0.5026 0.15625,-0.95313l0.64843,0.45704c-0.08593,0.67187 -0.19531,1.16013 -0.32812,1.4648c-0.11719,0.26563 -0.26432,0.39844 -0.44141,0.39844c-0.17448,0 -0.3776,-0.13021 -0.60937,-0.39063c-0.22396,-0.2526 -0.42058,-0.56119 -0.58985,-0.92578c-0.44531,0.55989 -0.95441,1.03906 -1.5273,1.4375l-0.57422,-0.58984c0.49739,-0.29948 0.93359,-0.65105 1.3086,-1.0547c-0.63802,0.25 -1.47915,0.48568 -2.5234,0.70703l-0.25782,-0.72656c1.08593,-0.17969 2.02473,-0.39062 2.8164,-0.63281l0.0273,0.57812c0.14063,-0.15625 0.28125,-0.33724 0.42188,-0.54297c-0.21875,-0.7578 -0.36849,-1.86327 -0.44922,-3.3164h-2.5664v0.55468h-0.63281v2.5703c0.23959,-0.09896 0.45834,-0.19271 0.65625,-0.28125l0.0859,0.76562c-0.77347,0.41146 -1.5456,0.74479 -2.3164,1l-0.28125,-0.82422c0.29427,-0.08333 0.64064,-0.19661 1.0391,-0.33984v-2.8906h-0.91797v-0.77734h0.91797v-1.8789h0.8164v1.8789h0.5586v-0.49609h2.6055l-0.0156,-0.27344c-0.013,-0.2474 -0.02603,-0.612 -0.0391,-1.0938h0.80078c0.0156,0.67707 0.02993,1.1328 0.043,1.3672zM275.6455,189.9645v2.3594h-2.0859v-2.3594zM274.2236,190.59731v1.1016h0.77344v-1.1016z"/><path d="M283.07,193.61c1.52867,-0.38541 2.293,-1.26171 2.293,-2.6289c0,-0.59635 -0.15365,-1.10939 -0.46094,-1.5391c-0.34375,-0.48437 -0.86719,-0.79557 -1.5703,-0.93359c-0.15365,1.20833 -0.36328,2.19793 -0.62891,2.9688c-0.18229,0.53906 -0.40886,1.04816 -0.67969,1.5273c-0.39062,0.68227 -0.83462,1.0234 -1.332,1.0234c-0.36979,0 -0.69922,-0.16667 -0.98828,-0.5c-0.18489,-0.21094 -0.33463,-0.47005 -0.44922,-0.77734c-0.15104,-0.39844 -0.22656,-0.82684 -0.22656,-1.2852c0,-0.7422 0.20443,-1.4258 0.61328,-2.0508c0.41406,-0.63802 0.95183,-1.10155 1.6133,-1.3906c0.48177,-0.21093 1.01041,-0.3164 1.5859,-0.3164c0.89847,0 1.6615,0.24088 2.2891,0.72265c0.7708,0.59115 1.1562,1.42838 1.1562,2.5117c0,1.81513 -0.91797,2.96617 -2.7539,3.4531zM282.48406,188.4772c-0.46094,0.05207 -0.84634,0.17576 -1.1562,0.37109c-0.19791,0.12761 -0.39453,0.29688 -0.58984,0.50781c-0.54167,0.59896 -0.8125,1.29296 -0.8125,2.082c0,0.57552 0.11458,1.02605 0.34375,1.3516c0.14062,0.20052 0.27994,0.30078 0.41797,0.30078c0.1875,0 0.39844,-0.20703 0.63281,-0.62109c0.57291,-1.0078 0.96095,-2.33853 1.1641,-3.9922z"/><path d="M291.51,189.41c0.18229,0.09375 0.39193,0.20573 0.62891,0.33594l-0.4961,0.40234h2.3516l0.4414,0.44141c-0.58593,0.8828 -1.17057,1.60807 -1.7539,2.1758l-0.79297,-0.46485c0.51302,-0.46875 0.92449,-0.93488 1.2344,-1.3984h-1.9453v3.0625c0,0.35417 -0.08724,0.58073 -0.26172,0.67968c-0.11719,0.06771 -0.33594,0.10157 -0.65625,0.10157c-0.41927,0 -0.8815,-0.02603 -1.3867,-0.0781l-0.1914,-0.87109c0.48698,0.07813 0.91928,0.11719 1.2969,0.11719c0.14323,0 0.23178,-0.02343 0.26563,-0.0703c0.02607,-0.03907 0.0391,-0.11068 0.0391,-0.21484v-2.7266h-3.2734v-0.75391h4.2344c-0.8802,-0.50521 -1.7604,-0.93227 -2.6406,-1.2812l0.63281,-0.50391c0.59115,0.23698 1.11328,0.46745 1.5664,0.69141c0.40104,-0.27344 0.75261,-0.54167 1.0547,-0.80469h-4.1758v-0.74218h5.3125l0.48047,0.46875c-0.68227,0.54947 -1.3372,1.02734 -1.9648,1.4336z"/><path d="M296.44,189.87c-0.33855,0.61719 -0.73048,1.12239 -1.1758,1.5156l-0.44921,-0.72656c0.58333,-0.44271 1.07553,-1.04037 1.4766,-1.793h-1.293v-0.71875h1.4414v-0.94531h0.83984v0.94531h1.1289v0.71875h-1.1289v0.47656c0.46354,0.26563 0.87631,0.54688 1.2383,0.84375l-0.47266,0.6875c-0.24739,-0.27604 -0.5026,-0.52213 -0.76562,-0.73828v1.7383h-0.83984zM298.8384,191.745c0.33333,0.31771 0.66146,0.69921 0.98438,1.1445l-0.69531,0.49609c-0.35938,-0.55469 -0.70705,-0.98699 -1.043,-1.2969l0.55468,-0.38672v-4.2188h3.3359v4.2617zM299.42825,188.1239v0.59766h1.7383v-0.59766zM299.42825,189.3231v0.58985h1.7383v-0.58985zM299.42825,190.5067v0.59765h1.7383v-0.59765zM294.91655,194.1395c0.29948,-0.48959 0.53255,-1.08985 0.69922,-1.8008l0.8125,0.23047c-0.14583,0.83593 -0.39583,1.53513 -0.75,2.0976zM297.05325,192.3465h0.85547v1.2461c0,0.16146 0.03906,0.25782 0.11718,0.28907c0.09896,0.03647 0.3724,0.0547 0.82032,0.0547c0.42708,0 0.71223,-0.01433 0.85546,-0.043c0.10417,-0.02347 0.17057,-0.08336 0.19922,-0.17968c0.03907,-0.13021 0.0651,-0.36719 0.0781,-0.71094l0.86328,0.19922c-0.0104,0.38802 -0.03903,0.66536 -0.0859,0.83203c-0.06507,0.23698 -0.16142,0.39844 -0.28906,0.48437c-0.10937,0.07553 -0.26693,0.1198 -0.47266,0.13282c-0.42708,0.02607 -0.86588,0.0391 -1.3164,0.0391c-0.7578,0 -1.22003,-0.04427 -1.3867,-0.13281c-0.15885,-0.08594 -0.23828,-0.26823 -0.23828,-0.54688zM301.81495,194.4403c-0.31511,-0.7604 -0.66537,-1.40493 -1.0508,-1.9336l0.71485,-0.42579c0.42969,0.57292 0.79689,1.19142 1.1016,1.8555z"/><path d="M306.24,188.25v-0.33594h-2.4414v-0.5586h5.7656v0.5586h-2.4922v0.33594h3.2344v1.4023h-0.84766v-0.89844h-2.3867v1.5195h-0.83203v-1.5195h-2.3438v0.89844h-0.83984v-1.4023zM309.0056,193.793c0.39843,0.15105 0.89583,0.27084 1.4922,0.35938l-0.45703,0.66406c-0.83593,-0.14323 -1.52213,-0.38932 -2.0586,-0.73828c-0.53385,-0.34896 -0.94922,-0.78256 -1.2461,-1.3008h-0.86328v1.2031c0.57552,-0.08073 1.10939,-0.16666 1.6016,-0.25781l0.0547,0.58203c-0.91667,0.21875 -1.96483,0.40886 -3.1445,0.57032l-0.23047,-0.6875c0.40885,-0.04427 0.6888,-0.0755 0.83985,-0.0937l0.0469,-0.008v-1.3086h-0.85547c-0.03647,0.45833 -0.09636,0.82423 -0.17968,1.0977c-0.09896,0.32812 -0.25782,0.63411 -0.47657,0.91796l-0.69531,-0.57421c0.25521,-0.33073 0.41406,-0.71747 0.47656,-1.1602c0.03387,-0.23959 0.0508,-0.53776 0.0508,-0.89453v-1.6562h6.7422v0.51953h-5.9023v1.1992h6.2383v0.55078h-0.88672l0.49609,0.32812c-0.29427,0.24479 -0.64193,0.47396 -1.043,0.6875zM308.39622,193.49222c0.375,-0.25521 0.67318,-0.49349 0.89453,-0.71484h-1.707c0.22396,0.28646 0.49479,0.52474 0.8125,0.71484zM304.24002,189.04302h1.6641v0.44141h-1.6641zM304.24002,189.76177h1.6641v0.44922h-1.6641zM307.40802,189.04302h1.7148v0.44141h-1.7148zM307.40802,189.76177h1.7148v0.44922h-1.7148zM304.66582,191.35557h4.8633v0.51172h-4.8633z"/><path d="M315.29,187.9h3.0625v0.65625h-1.7344v0.64844h1.625v0.63281h-1.625v1.1641h-3.1445v-1.1641h-1.2812v0.72657c0,1.17967 -0.0625,2.11197 -0.1875,2.7969c-0.09636,0.52083 -0.25261,0.9961 -0.46875,1.4258l-0.71094,-0.5625c0.19791,-0.42969 0.33333,-0.95442 0.40625,-1.5742c0.06507,-0.54427 0.0976,-1.23957 0.0976,-2.0859v-2.6641h3.0898v-0.70312h0.87109zM312.1924,188.55625v0.64844h1.2812v-0.64844zM314.3057,188.55625v0.64844h1.4805v-0.64844zM314.3057,189.83745v0.60547h1.4805v-0.60547zM315.21195,193.93905c-0.7526,0.39062 -1.70833,0.68749 -2.8672,0.89062l-0.40625,-0.71875c1.08853,-0.13021 1.9414,-0.32943 2.5586,-0.59766c-0.52865,-0.38281 -0.98048,-0.83724 -1.3555,-1.3633h-0.53906v-0.67968h4.5742l0.41016,0.34375c-0.38802,0.59635 -0.94142,1.15755 -1.6602,1.6836c0.61719,0.24739 1.45832,0.42968 2.5234,0.54687l-0.45703,0.73829c-1.0208,-0.13803 -1.94787,-0.41928 -2.7812,-0.84375zM314.05175,192.14995c0.31511,0.36979 0.69791,0.69532 1.1484,0.97657c0.50781,-0.32813 0.89975,-0.65365 1.1758,-0.97657z"/><path d="M325.58,194.23c-0.7708,0.08073 -1.56767,0.12109 -2.3906,0.12109c-1.21353,0 -2.0638,-0.07682 -2.5508,-0.23047c-0.35417,-0.11198 -0.63412,-0.27865 -0.83985,-0.5c-0.23697,-0.25781 -0.35546,-0.57161 -0.35546,-0.9414c0,-0.48698 0.16667,-0.92448 0.5,-1.3125c0.28385,-0.33073 0.74089,-0.65886 1.3711,-0.98438c-0.35937,-0.80727 -0.68489,-1.72653 -0.97656,-2.7578l0.87109,-0.22656c0.27083,0.9896 0.55729,1.8646 0.85938,2.625c1.0026,-0.46094 2.0664,-0.84507 3.1914,-1.1524l0.26172,0.79297c-1.2344,0.3125 -2.46097,0.7565 -3.6797,1.332c-0.3776,0.17969 -0.64583,0.32682 -0.80468,0.44141c-0.46615,0.34115 -0.69922,0.72005 -0.69922,1.1367c0,0.36198 0.21614,0.61458 0.64843,0.75781c0.35938,0.11719 1.00261,0.17578 1.9297,0.17578c0.8568,0 1.71487,-0.04948 2.5742,-0.14844z"/><path d="M327.24,187.53h0.91016v4.2734h-0.91016zM331.2517,187.448h0.91016v2.793c0,0.9818 -0.07943,1.71227 -0.23829,2.1914c-0.13281,0.40885 -0.31379,0.73437 -0.54296,0.97656c-0.47657,0.51302 -1.2422,0.89192 -2.2969,1.1367l-0.44922,-0.80078c1.15367,-0.23438 1.89327,-0.62371 2.2188,-1.168c0.20573,-0.34635 0.32943,-0.78385 0.3711,-1.3125c0.0182,-0.24479 0.0273,-0.58333 0.0273,-1.0156z"/><path d="M333.54,188h6.1211l0.50391,0.42578c-0.14583,0.54427 -0.33594,0.99871 -0.57031,1.3633c-0.44011,0.69013 -1.09897,1.20577 -1.9766,1.5469l-0.49218,-0.67188c0.60677,-0.18229 1.11067,-0.50912 1.5117,-0.98047c0.23698,-0.27865 0.40235,-0.57292 0.4961,-0.88281h-5.5938zM336.0439,189.6875h0.89454v0.67187c0,1.0078 -0.11198,1.78643 -0.33594,2.3359c-0.28385,0.69793 -0.83592,1.26563 -1.6562,1.7031l-0.64453,-0.67969c0.5651,-0.26823 0.97787,-0.58854 1.2383,-0.96094c0.20052,-0.28906 0.33203,-0.59505 0.39453,-0.91797c0.07291,-0.36979 0.10937,-0.86589 0.10937,-1.4883z"/><path d="M342.45,187.81h0.87891v1.4219c0,1.362 -0.10156,2.3568 -0.30469,2.9844c-0.26823,0.83073 -0.83073,1.52343 -1.6875,2.0781l-0.59765,-0.69531c0.59375,-0.41667 1.01171,-0.84897 1.2539,-1.2969c0.20313,-0.37761 0.33724,-0.88411 0.40235,-1.5195c0.03647,-0.35937 0.0547,-0.87111 0.0547,-1.5352zM344.45,187.58344h0.87891v5.5508c0.51823,-0.26823 0.97266,-0.64973 1.3633,-1.1445c0.42709,-0.54167 0.7461,-1.1836 0.95703,-1.9258l0.6875,0.66406c-0.26041,0.77347 -0.61718,1.43363 -1.0703,1.9805c-0.57031,0.69013 -1.31771,1.2331 -2.2422,1.6289l-0.57422,-0.4961z"/><path d="M354.7,188.25l0.5586,0.45703c-0.36459,1.66667 -0.95572,2.95703 -1.7734,3.8711c-0.45313,0.50521 -1.03906,0.94791 -1.7578,1.3281c-0.51042,0.26823 -1.05859,0.48178 -1.6445,0.64063l-0.45312,-0.76953c1.33853,-0.34896 2.3776,-0.90626 3.1172,-1.6719c-0.60938,-0.54687 -1.28125,-1.03124 -2.0156,-1.4531l0.51172,-0.63282c0.71613,0.3724 1.39713,0.83073 2.043,1.375c0.50781,-0.81253 0.82682,-1.599 0.95703,-2.3594h-2.75c-0.63021,0.9818 -1.37241,1.7331 -2.2266,2.2539l-0.57422,-0.6211c0.82553,-0.49739 1.50393,-1.15493 2.0352,-1.9726c0.27343,-0.41667 0.48567,-0.8659 0.63671,-1.3477l0.84766,0.20703c-0.08594,0.23437 -0.18229,0.46614 -0.28906,0.69531z"/><path d="M359,194.45v-4.0078c-0.79167,0.53125 -1.6953,0.97919 -2.7109,1.3438l-0.47266,-0.79297c1.15367,-0.38802 2.1654,-0.88802 3.0352,-1.5c0.85413,-0.60156 1.61453,-1.29036 2.2812,-2.0664l0.7539,0.47265c-0.59114,0.67967 -1.25001,1.30337 -1.9766,1.8711v4.6797z"/><path d="M362.4,193.11c0.17969,-0.00267 0.42708,-0.0157 0.74218,-0.0391c0.7422,-1.66667 1.4258,-3.5013 2.0508,-5.5039l0.89453,0.23437c-0.61459,1.92187 -1.27085,3.65753 -1.9688,5.207c1.32293,-0.09635 2.4961,-0.21354 3.5195,-0.35156c-0.38542,-0.67967 -0.77735,-1.30727 -1.1758,-1.8828l0.76953,-0.48828c0.82033,1.1302 1.5404,2.32813 2.1602,3.5938l-0.8789,0.45703c-0.14323,-0.30209 -0.30079,-0.61719 -0.47266,-0.94532c-1.5208,0.25521 -3.3372,0.48178 -5.4492,0.67969z"/><path d="M373.12,188.25v-0.33594h-2.4414v-0.5586h5.7656v0.5586h-2.4922v0.33594h3.2344v1.4023h-0.84765v-0.89844h-2.3867v1.5195h-0.83203v-1.5195h-2.3438v0.89844h-0.83985v-1.4023zM375.8856,193.793c0.39844,0.15105 0.89584,0.27084 1.4922,0.35938l-0.45703,0.66406c-0.83593,-0.14323 -1.52213,-0.38932 -2.0586,-0.73828c-0.53385,-0.34896 -0.94922,-0.78256 -1.2461,-1.3008h-0.86328v1.2031c0.57552,-0.08073 1.10939,-0.16666 1.6016,-0.25781l0.0547,0.58203c-0.91667,0.21875 -1.96483,0.40886 -3.1445,0.57032l-0.23047,-0.6875c0.40885,-0.04427 0.6888,-0.0755 0.83984,-0.0937l0.0469,-0.008v-1.3086h-0.85547c-0.03647,0.45833 -0.09636,0.82423 -0.17969,1.0977c-0.09896,0.32812 -0.25781,0.63411 -0.47656,0.91796l-0.69531,-0.57421c0.25521,-0.33073 0.41406,-0.71747 0.47656,-1.1602c0.03387,-0.23959 0.0508,-0.53776 0.0508,-0.89453v-1.6562h6.7422v0.51953h-5.9024v1.1992h6.2383v0.55078h-0.88672l0.49609,0.32812c-0.29427,0.24479 -0.64194,0.47396 -1.043,0.6875zM375.27623,193.49222c0.375,-0.25521 0.67318,-0.49349 0.89453,-0.71484h-1.707c0.22395,0.28646 0.49479,0.52474 0.8125,0.71484zM371.12003,189.04302h1.6641v0.44141h-1.6641zM371.12003,189.76177h1.6641v0.44922h-1.6641zM374.28803,189.04302h1.7148v0.44141h-1.7148zM374.28803,189.76177h1.7148v0.44922h-1.7148zM371.54583,191.35557h4.8633v0.51172h-4.8633z"/><path d="M382.17,187.9h3.0625v0.65625h-1.7344v0.64844h1.625v0.63281h-1.625v1.1641h-3.1445v-1.1641h-1.2812v0.72657c0,1.17967 -0.0625,2.11197 -0.1875,2.7969c-0.09635,0.52083 -0.2526,0.9961 -0.46875,1.4258l-0.71094,-0.5625c0.19792,-0.42969 0.33334,-0.95442 0.40625,-1.5742c0.06513,-0.54427 0.0977,-1.23957 0.0977,-2.0859v-2.6641h3.0898v-0.70312h0.8711zM379.0723,188.55625v0.64844h1.2812v-0.64844zM381.1856,188.55625v0.64844h1.4805v-0.64844zM381.1856,189.83745v0.60547h1.4805v-0.60547zM382.09185,193.93905c-0.7526,0.39062 -1.70833,0.68749 -2.8672,0.89062l-0.40625,-0.71875c1.08853,-0.13021 1.9414,-0.32943 2.5586,-0.59766c-0.52865,-0.38281 -0.98048,-0.83724 -1.3555,-1.3633h-0.53906v-0.67968h4.5742l0.41015,0.34375c-0.38802,0.59635 -0.94142,1.15755 -1.6602,1.6836c0.61719,0.24739 1.45832,0.42968 2.5234,0.54687l-0.45703,0.73829c-1.0208,-0.13803 -1.94787,-0.41928 -2.7812,-0.84375zM380.93165,192.14995c0.3151,0.36979 0.6979,0.69532 1.1484,0.97657c0.50781,-0.32813 0.89975,-0.65365 1.1758,-0.97657z"/><path d="M389.95,193.61c1.52867,-0.38541 2.293,-1.26171 2.293,-2.6289c0,-0.59635 -0.15364,-1.10939 -0.46093,-1.5391c-0.34375,-0.48437 -0.86719,-0.79557 -1.5703,-0.93359c-0.15365,1.20833 -0.36328,2.19793 -0.6289,2.9688c-0.18229,0.53906 -0.40886,1.04816 -0.67969,1.5273c-0.39063,0.68227 -0.83463,1.0234 -1.332,1.0234c-0.36979,0 -0.69922,-0.16667 -0.98828,-0.5c-0.1849,-0.21094 -0.33464,-0.47005 -0.44922,-0.77734c-0.15104,-0.39844 -0.22656,-0.82684 -0.22656,-1.2852c0,-0.7422 0.20443,-1.4258 0.61328,-2.0508c0.41406,-0.63802 0.95183,-1.10155 1.6133,-1.3906c0.48177,-0.21093 1.0104,-0.3164 1.5859,-0.3164c0.8984,0 1.66143,0.24088 2.2891,0.72265c0.7708,0.59115 1.1562,1.42838 1.1562,2.5117c0,1.81513 -0.91797,2.96617 -2.7539,3.4531zM389.36407,188.4772c-0.46094,0.05207 -0.84634,0.17576 -1.1562,0.37109c-0.19792,0.12761 -0.39454,0.29688 -0.58985,0.50781c-0.54167,0.59896 -0.8125,1.29296 -0.8125,2.082c0,0.57552 0.11458,1.02605 0.34375,1.3516c0.14063,0.20052 0.27995,0.30078 0.41797,0.30078c0.1875,0 0.39844,-0.20703 0.63281,-0.62109c0.57292,-1.0078 0.96095,-2.33853 1.1641,-3.9922z"/><path d="M252.18,199.63c-0.93747,-0.28646 -2.0286,-0.51823 -3.2734,-0.69531l0.32032,-0.74609c1.30987,0.18489 2.401,0.42187 3.2734,0.71093zM247.6605,200.6847c1.58073,-0.34635 2.72657,-0.51953 3.4375,-0.51953c0.69793,0 1.2396,0.17057 1.625,0.51172c0.38021,0.33854 0.57031,0.81771 0.57031,1.4375c0,1.18747 -0.42187,2.0286 -1.2656,2.5234c-0.58073,0.34375 -1.47657,0.58594 -2.6875,0.72657l-0.35938,-0.77344c1.1094,-0.12761 1.93363,-0.34115 2.4727,-0.64063c0.60156,-0.33073 0.90234,-0.93359 0.90234,-1.8086c0,-0.39583 -0.08594,-0.6888 -0.25781,-0.87891c-0.19792,-0.21614 -0.52605,-0.32421 -0.98438,-0.32421c-0.55208,0 -1.61718,0.1875 -3.1953,0.5625z"/><path d="M254.78,199.4h1.832c0.09375,-0.37761 0.1849,-0.78777 0.27344,-1.2305l0.84766,0.10937c-0.08333,0.375 -0.17188,0.7487 -0.26563,1.1211h4v0.77734h-4.207c-0.20313,0.71613 -0.40886,1.3164 -0.61719,1.8008c0.67187,-0.40104 1.46353,-0.60156 2.375,-0.60156c0.56511,0 1.04687,0.10807 1.4453,0.32422c0.57812,0.31771 0.86718,0.79037 0.86718,1.418c0,0.8776 -0.52213,1.48177 -1.5664,1.8125c-0.65625,0.20833 -1.62109,0.33073 -2.8945,0.36718l-0.28907,-0.77734c1.22133,-0.02347 2.12107,-0.12373 2.6992,-0.30078c0.7422,-0.22656 1.1133,-0.60416 1.1133,-1.1328c0,-0.36719 -0.15495,-0.63672 -0.46484,-0.8086c-0.23437,-0.1276 -0.54297,-0.1914 -0.92578,-0.1914c-0.44011,0 -0.91017,0.07943 -1.4102,0.23828c-0.46093,0.14583 -0.90493,0.35286 -1.332,0.62109l-0.6875,-0.45703c0.30729,-0.7448 0.58203,-1.51563 0.82422,-2.3125h-1.6172z"/><path d="M266.75,200.81c0.17969,0.60938 0.52082,1.25781 1.0234,1.9453c0.61198,0.83853 1.36458,1.5026 2.2578,1.9922l-0.55859,0.80469c-0.94533,-0.55729 -1.7344,-1.29556 -2.3672,-2.2148c-0.34115,-0.5 -0.61458,-1.00913 -0.82031,-1.5274c-0.20573,0.69793 -0.52474,1.33207 -0.95703,1.9024c-0.63542,0.84373 -1.42059,1.46613 -2.3555,1.8672l-0.55078,-0.71484c0.9792,-0.40885 1.76957,-1.03905 2.3711,-1.8906c0.50521,-0.71873 0.80469,-1.4401 0.89844,-2.1641h-3.1172v-0.84765h3.1524v-1.8828h0.90234v1.8828h3.2188v0.84765z"/><path d="M271,199.08h2.3672c-0.08594,-0.24219 -0.17839,-0.52995 -0.27734,-0.86328l0.86328,-0.0469c0.10156,0.34635 0.20052,0.64974 0.29687,0.91015h2.7188v0.75391h-2.4492c0.14844,0.36979 0.31641,0.74609 0.50391,1.1289h2.4727v0.7539h-2.0781c0.27344,0.47657 0.54818,0.90363 0.82422,1.2812l-0.875,0.25391c-0.30208,-0.42969 -0.60547,-0.94142 -0.91016,-1.5352h-3.5938v-0.7539h3.2344c-0.15104,-0.32031 -0.30599,-0.69661 -0.46484,-1.1289h-2.6328zM276.207,205.2011c-0.5,0.03647 -0.96483,0.0547 -1.3945,0.0547c-1.1276,0 -1.944,-0.10547 -2.4492,-0.31641c-0.70053,-0.29427 -1.0508,-0.75911 -1.0508,-1.3945c0,-0.35677 0.09766,-0.64453 0.29297,-0.86328l0.69922,0.38281c-0.08073,0.16406 -0.12109,0.32682 -0.12109,0.48828c0,0.32813 0.22396,0.56511 0.67187,0.71094c0.39844,0.13021 1.00781,0.19531 1.8281,0.19531c0.41145,0 0.89582,-0.02213 1.4531,-0.0664z"/><path d="M282.23,203.1c-0.48177,1.41667 -1.02213,2.125 -1.6211,2.125c-0.42708,0 -0.79298,-0.29948 -1.0977,-0.89844c-0.23437,-0.46354 -0.39583,-0.97394 -0.48437,-1.5312c-0.10677,-0.67707 -0.16016,-1.54687 -0.16016,-2.6094c0,-0.46094 0.01693,-0.95574 0.0508,-1.4844l0.91797,0.0703c-0.03387,0.52865 -0.0508,1.03125 -0.0508,1.5078c0,1.67187 0.15625,2.83723 0.46875,3.4961c0.12761,0.27083 0.2474,0.40625 0.35938,0.40625c0.07291,0 0.16406,-0.08333 0.27343,-0.25c0.22396,-0.33854 0.44011,-0.80467 0.64844,-1.3984zM284.7027,204.02969c-0.13281,-1.09893 -0.29557,-1.98697 -0.48828,-2.6641c-0.23437,-0.82033 -0.50651,-1.57163 -0.81641,-2.2539l0.83203,-0.20312c0.42969,0.85153 0.74871,1.67183 0.95704,2.4609c0.17187,0.64063 0.3138,1.45573 0.42578,2.4453z"/><path d="M290,200.1c-0.0182,0.43489 -0.04423,0.81769 -0.0781,1.1484h3.1484c-0.03907,1.80727 -0.14063,2.98043 -0.30469,3.5195c-0.08333,0.27083 -0.23828,0.45833 -0.46485,0.5625c-0.17708,0.08073 -0.43619,0.12109 -0.77734,0.12109c-0.35937,0 -0.76694,-0.02733 -1.2227,-0.082l-0.15234,-0.87891c0.61198,0.08594 1.04298,0.12891 1.293,0.12891c0.21094,0 0.34505,-0.0599 0.40234,-0.17969c0.13802,-0.29167 0.23438,-1.09637 0.28907,-2.4141h-2.3242c-0.08594,0.46875 -0.20703,0.87501 -0.36328,1.2188c-0.4349,0.95053 -1.16147,1.70443 -2.1797,2.2617l-0.61719,-0.6875c1.0208,-0.53125 1.69527,-1.22785 2.0234,-2.0898c0.21875,-0.57552 0.36067,-1.45182 0.42578,-2.6289h-2.5859v-0.80078h3.1914v-1.3047h0.90234v1.3047h3.2969v0.80078z"/><path d="M295.08,199.1h2.1055c0.23177,-0.36979 0.40755,-0.66797 0.52734,-0.89454l0.8711,0.125c-0.07813,0.14063 -0.21615,0.36979 -0.41407,0.6875l-0.0508,0.082h2.7539v0.76953h-3.2734c-0.34115,0.46875 -0.66667,0.87501 -0.97656,1.2188c0.49219,-0.29427 0.94142,-0.44141 1.3477,-0.44141c0.63021,0 1.04297,0.31641 1.2383,0.94922c0.66667,-0.22135 1.34637,-0.4401 2.0391,-0.65625l0.33594,0.75781l-0.13672,0.0391l-0.38672,0.10157c-0.7292,0.19791 -1.31253,0.36718 -1.75,0.50781c0.03127,0.33854 0.0534,0.77604 0.0664,1.3125l-0.85547,0.0469c-0.00267,-0.30989 -0.00787,-0.64583 -0.0156,-1.0078v-0.0781c-1.19793,0.40885 -1.7969,0.82032 -1.7969,1.2344c0,0.21354 0.15364,0.35937 0.46093,0.4375c0.29688,0.07552 0.82815,0.11328 1.5938,0.11328c0.70573,0 1.44663,-0.04036 2.2227,-0.12109l0.0937,0.83203c-0.7526,0.05727 -1.53253,0.0859 -2.3398,0.0859c-0.9948,0 -1.70183,-0.07552 -2.1211,-0.22656c-0.51823,-0.1875 -0.77734,-0.52473 -0.77734,-1.0117c0,-0.41146 0.18359,-0.77473 0.55078,-1.0898c0.38021,-0.32552 1.04947,-0.66145 2.0078,-1.0078c-0.05207,-0.20052 -0.12108,-0.34114 -0.20703,-0.42187c-0.09635,-0.09115 -0.22396,-0.13672 -0.38281,-0.13672c-0.25781,0 -0.58203,0.09766 -0.97266,0.29297c-0.48177,0.23958 -0.9987,0.60025 -1.5508,1.082l-0.51953,-0.59375c0.80987,-0.7526 1.44397,-1.4922 1.9023,-2.2188h-1.5898z"/><path d="M307.35,203.96l0.0547,0.69922c-1.1302,0.39843 -2.3867,0.72656 -3.7695,0.98437l-0.28906,-0.78125c0.23958,-0.03647 0.57811,-0.09506 1.0156,-0.17578v-1.4297c-0.45052,0.22917 -0.98699,0.44662 -1.6094,0.65235l-0.44532,-0.69532c1.2526,-0.33854 2.20833,-0.77084 2.8672,-1.2969h-2.7891v-0.67969h3.3476v-0.58984h-2.5312v-0.65625h2.5312v-0.55078h-2.9297v-0.67188h2.9297v-0.76953h0.85547v0.76953h3.0156v0.67188h-3.0156v0.55078h2.6172v0.65625h-2.6172v0.58984h3.4336v0.67969h-0.9336l0.57813,0.39844c-0.35677,0.34635 -0.85677,0.72525 -1.5,1.1367l-0.0899,0.0586c0.48959,0.44791 1.15365,0.81771 1.9922,1.1094l-0.52734,0.79297c-0.90887,-0.38541 -1.63933,-0.86978 -2.1914,-1.4531zM306.1664,201.9288c-0.26042,0.30469 -0.57422,0.57812 -0.94141,0.82031v1.7539c0.64323,-0.14323 1.28907,-0.3099 1.9375,-0.5l0.17969,-0.0508c-0.53385,-0.59114 -0.92579,-1.26561 -1.1758,-2.0234zM307.5922,202.9952c0.46354,-0.33073 0.86981,-0.69009 1.2188,-1.0781h-1.8477c0.16667,0.39843 0.3763,0.7578 0.62891,1.0781z"/><path d="M314.68,201.33v3.4648c0,0.3151 -0.0638,0.52994 -0.19141,0.64453c-0.11979,0.10417 -0.35156,0.15625 -0.69531,0.15625c-0.39063,0 -0.76173,-0.02473 -1.1133,-0.0742l-0.16797,-0.82422c0.36458,0.05993 0.71355,0.0899 1.0469,0.0899c0.11198,0 0.18229,-0.01953 0.21094,-0.0586c0.0208,-0.03387 0.0312,-0.08986 0.0312,-0.16797v-3.2305h-3.3594v-0.77741h7.5273v0.77734zM311.3792,198.4355h5.6484v0.76953h-5.6484zM310.39482,204.4277c0.5625,-0.58854 1.01563,-1.37111 1.3594,-2.3477l0.80859,0.30469c-0.39844,1.1172 -0.89974,1.9948 -1.5039,2.6328zM317.09792,204.90426c-0.53907,-1.1406 -1.0078,-1.97523 -1.4062,-2.5039l0.73437,-0.4375c0.57292,0.737 1.06119,1.53907 1.4648,2.4062z"/><path d="M319.17,198.33h0.92188v4.6562c0,0.9818 0.51563,1.4727 1.5469,1.4727c0.67967,0 1.23697,-0.3138 1.6719,-0.94141c0.28125,-0.40364 0.53385,-1.02864 0.75781,-1.875l0.79297,0.48047c-0.26563,0.94013 -0.58464,1.64327 -0.95703,2.1094c-0.58594,0.72653 -1.34767,1.0898 -2.2852,1.0898c-0.9792,0 -1.6693,-0.30208 -2.0703,-0.90625c-0.25261,-0.3776 -0.37891,-0.86457 -0.37891,-1.4609z"/><path d="M328.8,198.18h0.86328v0.98438h2.457v0.74219h-2.457v0.92968h2.3203v0.73438h-2.3203v1.207c0.92707,0.3125 1.84113,0.78257 2.7422,1.4102l-0.46094,0.74218c-0.68227,-0.51041 -1.44267,-0.96095 -2.2812,-1.3516c-0.0208,0.44531 -0.10674,0.79038 -0.25781,1.0352c-0.26303,0.42448 -0.78126,0.63672 -1.5547,0.63672c-0.59635,0 -1.07552,-0.11198 -1.4375,-0.33594c-0.40365,-0.25 -0.60547,-0.58853 -0.60547,-1.0156c0,-0.51041 0.27214,-0.88801 0.81641,-1.1328c0.36458,-0.16146 0.83855,-0.24219 1.4219,-0.24219c0.22917,0 0.48047,0.01823 0.75391,0.0547v-1.0078h-2.7695v-0.73438h2.7695v-0.92968h-2.9375v-0.74219h2.9375zM328.8,203.305c-0.3099,-0.06507 -0.60678,-0.0976 -0.89063,-0.0976c-0.34635,0 -0.6276,0.05078 -0.84375,0.15234c-0.25781,0.12239 -0.38672,0.29687 -0.38672,0.52344c0,0.1901 0.10026,0.34375 0.30078,0.46094c0.20313,0.11979 0.47396,0.17968 0.8125,0.17968c0.40105,0 0.67709,-0.10677 0.82813,-0.32031c0.11979,-0.16667 0.17969,-0.41536 0.17969,-0.74609z"/><path d="M337.1,198.16h0.8789v1.0781h2.3047v0.75391h-2.3047v1.6719c0.09115,0.32031 0.13672,0.60547 0.13672,0.85547c0,0.92707 -0.20443,1.60807 -0.61328,2.043c-0.44531,0.47656 -1.11588,0.80599 -2.0117,0.98828l-0.44531,-0.66406c0.69533,-0.13281 1.21097,-0.32031 1.5469,-0.5625c0.31511,-0.22917 0.52735,-0.54037 0.63672,-0.9336c-0.27865,0.30469 -0.61068,0.45704 -0.99609,0.45704c-0.43229,0 -0.78256,-0.1224 -1.0508,-0.36719c-0.31511,-0.28907 -0.47266,-0.70833 -0.47266,-1.2578c0,-0.28907 0.06901,-0.56771 0.20703,-0.83594c0.09115,-0.17187 0.20313,-0.3151 0.33594,-0.42969c0.30729,-0.26041 0.67579,-0.39062 1.1055,-0.39062c0.27343,0 0.52083,0.0651 0.74219,0.19531v-0.76953h-3.8555v-0.75391h3.8555zM337.1312,202.2147v-0.14453c0,-0.16667 -0.03906,-0.3138 -0.11719,-0.4414c-0.14583,-0.23959 -0.35677,-0.35938 -0.63281,-0.35938c-0.14063,0 -0.27214,0.03906 -0.39454,0.11719c-0.28645,0.17969 -0.42968,0.45573 -0.42968,0.82812c0,0.23438 0.05208,0.4323 0.15625,0.59375c0.14583,0.22396 0.36068,0.33594 0.64453,0.33594c0.25781,0 0.46224,-0.11589 0.61328,-0.34766c0.10677,-0.16406 0.16016,-0.35807 0.16016,-0.58203z"/></g></g></g></svg>