<svg version="1.1" xmlns="http://www.w3.org/2000/svg" xmlns:xlink="http://www.w3.org/1999/xlink" width="105.04576" height="118.06528" viewBox="0,0,105.04576,118.06528"><g transform="translate(217.25667,-110.61922)"><g data-paper-data="{&quot;isPaintingLayer&quot;:true}" fill="#ff0000" fill-rule="evenodd" stroke="none" stroke-width="0" stroke-linecap="round" stroke-linejoin="round" stroke-miterlimit="10" stroke-dasharray="" stroke-dashoffset="0" style="mix-blend-mode: normal"><path d="M-126.55036,110.61922l0.02,0.02l0.02,0.01l0.54998,2.67989l0.34999,0.49998l-0.46998,1.44994l1.02996,0.76997l1.02996,1.30995l0.80997,-0.02l2.22991,1.85993l0.77997,-0.04l0.78997,-0.97996l1.31995,1.33995l0.66997,1.68993l0.16999,1.16995l-1.43994,1.88992l-0.47998,1.40994l-1.70993,0.93996l0.14999,0.80997l1.83993,1.38994l0.43998,0.71997l1.58994,0.04l-0.83997,1.25995l0.47998,0.54998l-1.04996,1.66993l1.21995,1.21995l1.79993,0.68997l1.07996,0.96996l0.57998,0.99996l1.26995,0.03l0.11,0.85997l-0.58998,1.40994l0.44998,0.59998l-0.32999,1.32995l-1.29995,-0.27999l-0.54998,-0.53998l-1.77993,1.58994l-0.28999,0.63997l-1.02996,0.27999l-0.1,1.65993l0.44998,0.35999l-1.07996,1.30995l-0.02,1.52994l1.30995,0.54998l1.33995,-0.32999l0.17999,2.00992l-0.91996,2.16991l-0.88996,0.23999l-0.61998,0.91996l-0.95996,0.40998l-1.37994,2.5999l1.37994,-0.25999l1.27995,1.33995l1.05996,-0.57998l0.68997,1.22995l2.05992,0.54998l0.84997,3.65985l-1.65993,0.76997l-0.43998,-0.81997l-1.43994,0.31999l-0.77997,1.86993l-0.75997,-0.01l-1.22995,-0.93996l-0.44998,0.28999l-1.17995,-0.65997l-1.15995,-0.05l-3.37986,2.4999l-0.55998,0.86997l-1.16995,0.61998l-1.43994,0.29999l-1.61994,1.61994l-1.73993,-1.04996l-1.53994,0.92996l-1.00996,-0.65997l-1.14995,0.51998l-1.76993,-0.54998l-2.05992,-1.41994l-0.85997,-0.92996l-0.66997,0.81997l-0.86997,0.29999l0.34999,1.53994l-1.01996,0.23999l-1.58994,1.67993l-1.71993,-0.29999l0.15999,-1.09996l-0.98996,-0.77997l-2.07992,0.38998l-0.54998,0.55998l-1.29995,0.40998l-0.88996,-0.29999l-0.90996,-1.07996l-0.98996,0.97996l-0.71997,1.98992l-1.90992,-0.89996l-0.1,-1.59994l-1.89992,-1.12995l-1.67993,0.02l0.01,2.78989l-1.60994,2.32991l-0.42998,1.80993l-1.25995,0.58998l-0.64997,-0.47998l-0.68997,1.24995l-1.17995,0.57998l-0.68997,-0.33999l-0.64997,0.83997l-2.81989,1.65993l-0.15999,0.72997l-1.09996,0.46998l-0.09,0.74997l1.25995,1.01996l1.52994,-0.12999l0.35999,0.55998l-0.56998,1.34995l-2.09992,3.86985l-0.75997,0.71997l0.40998,0.67997l-1.37994,2.68989l0.34999,1.31995l0.90996,0.62997l-0.41998,1.48994l-1.17995,2.4999l-1.34995,0.90996l-1.61994,2.12991l-3.12987,0.88996l-0.55998,2.15991l-1.06996,1.35995l1.57994,0.27999l0.74997,0.80997l-0.22999,0.67997l1.11996,2.29991l-1.87992,0.15999l-1.06996,-0.30999l-0.42998,0.66997l-1.14995,0.26999l-0.78997,1.10996l0.08,1.75993l-1.86993,1.17995l-0.75997,1.66993l0.75997,0.83997l0.27999,1.18995l1.31995,1.83993l-0.13999,1.77993l-1.10996,0.13999l-1.13995,1.67993l-0.59998,0.16999l-0.80997,1.63993l-0.50998,1.65993l-0.95996,0.34999l0.26999,0.86997l-0.47998,0.87996l-1.64993,-2.29991l-1.45994,-1.12995l-1.25995,-0.1l-0.16999,0.62997l-1.34995,1.35995l-0.92996,-0.63997l-0.64997,0.36999l0.23999,0.93996l-0.50998,0.58998l-2.09992,0.48998l-2.6199,-0.78997l-0.26999,1.02996l-1.48994,-0.91996l-1.01996,-0.25999l-0.97996,-0.78997l-0.04,-0.92996l-0.79997,-0.25999l-1.34995,-1.05996l0.48998,-0.85997l-0.14999,-1.06996l-0.67997,-0.28999l-0.49998,-1.09996l0.1,-1.20995l-0.36999,-0.72997l0.91996,-0.76997l0.19999,-0.90996l1.00996,-0.61998l0.20999,-1.51994l0.62997,-1.19995l0.16999,-1.27995l-2.19991,-0.25999l-1.14995,0.15999l-0.94996,-0.63997l-1.40994,1.25995l-0.81997,-0.49998l-1.66993,0.50998l-1.89992,-1.82993l0.51998,-0.94996l-0.51998,-1.72993l0.60998,-1.08996l-0.38998,-0.74997l-1.25995,0.28999l-0.11,-1.15995l-0.68997,-1.56994l-0.74997,-0.37998l1.04996,-1.53994l1.67993,-0.84997l1.13995,-1.12995l-0.57998,-2.16991l0.50998,-1.50994l0.71997,0.07l0.67997,-1.15995l0.08,-1.16995l-0.38998,-2.90988l0.14999,-0.89996l-1.16995,0.06l-1.18995,-0.93996l0.34999,-1.34995l0.06,-2.07992l-0.89996,-1.72993l-0.54998,-0.48998l0.61998,-1.68993l0.04,0.46998l1.39994,0.54998l3.46986,-0.23999l2.27991,-0.53998l2.10992,-0.82997l2.71989,-0.75997l1.78993,-0.89996l2.03992,-1.42994l1.53994,-1.64993l0.67997,-1.11996l-0.66997,-2.5899l1.11996,-0.53998l1.02996,0.37998l0.79997,-0.70997l0.31999,-1.60994l1.71993,0.19999l0.22999,-1.14995l0.85997,0.12999l0.95996,-0.89996l1.17995,-0.39998l1.04996,-2.94988l1.52994,-0.71997l0.33999,0.24999l1.41994,-0.91996l0.51998,-1.66993l1.26995,-0.58998l0.71997,-1.43994l-0.72997,-0.76997l1.01996,-0.80997l0.79997,0.01l0.97996,-1.22995l0.83997,1.20995l1.23995,-0.11l-0.24999,-1.20995l1.10996,-1.13995l-0.18999,-1.44994l2.04992,-2.95988l2.4599,-1.39994l0.21999,-1.28995l1.68993,-0.58998l2.01992,-1.30995l0.66997,-1.25995l1.42994,-0.72997l2.02992,-1.44994l0.61998,-0.90996l3.02988,-2.84989l1.05996,-1.15995l3.28987,-0.57998l3.44986,-1.65993l0.70997,-0.59998l0.68997,-1.91992l0.89996,-0.26999l-0.30999,-1.52994l1.56994,-0.96996l0.05,-0.73997l1.99992,-1.41994l0.48998,-0.95996l2.04992,-0.70997l0.61998,-1.44994l-0.34999,-0.45998l0.65997,-1.19995l0.99996,-0.85997l-0.09,-1.25995l1.86993,-2.03992l2.4599,-1.23995l1.72993,-1.38994l0.33999,-1.08996l1.39994,-0.33999l0.63997,-0.58998l1.62993,-0.66997l1.17995,-1.20995l1.00996,-0.12l0.39998,-1.41994l4.48982,-2.36991"/></g></g></svg>