<svg version="1.1" xmlns="http://www.w3.org/2000/svg" xmlns:xlink="http://www.w3.org/1999/xlink" width="69.09724" height="97.56611" viewBox="0,0,69.09724,97.56611"><g transform="translate(53.08676,-351.66048)"><g data-paper-data="{&quot;isPaintingLayer&quot;:true}" fill="#ff0000" fill-rule="evenodd" stroke="none" stroke-width="0" stroke-linecap="round" stroke-linejoin="round" stroke-miterlimit="10" stroke-dasharray="" stroke-dashoffset="0" style="mix-blend-mode: normal"><path d="M-43.86713,425.72751l-0.27999,-0.83997l0.72997,-0.80997l0.41998,-3.05988l-0.33999,-0.63997l0.22999,-1.57994l-0.67997,-0.72997l-1.90992,-0.88996l0.31999,-2.15991l-0.76997,-0.40998l-1.70993,-3.16987l-0.33999,-2.71989l1.09996,-2.21991l-0.38998,-2.29991l0.18999,-2.4499l-0.86997,-1.15995l-1.67993,-0.52998l-0.64997,1.15995l-2.11992,0.02l-0.46998,-1.00996l0.69997,-2.3999l-0.11,-2.25991l0.68997,-1.42994l-0.20999,-1.43994l1.37994,-0.98996l1.10996,-1.99992l-0.46998,-0.85997l0.26999,-0.97996l0.88996,-0.30999l0.88996,-0.96996l1.29995,-2.96988l0.11,-1.10996l-1.00996,-0.80997l0.26999,-1.27995l-0.58998,-1.93992l0.36999,-0.96996l1.43994,-1.59994l1.35995,-0.64997l0.30999,-2.35991l1.65993,-0.13999l2.07992,-1.38994h0.89996l0.85997,-1.21995l1.89992,-0.40998l1.71993,-1.47994l3.18987,-0.57998l3.43986,1.41994h1.02996l4.26983,-2.23991l0.73997,-0.04l1.11996,-1.00996l3.11988,-1.47994l1.24995,0.02l1.60994,-1.46994l2.76989,-1.41994l1.27995,-1.39994l0.89996,-1.49994l1.05996,-0.16999l0.59998,-0.86997l3.29987,-1.51994l2.81989,-0.47998l0.75997,0.40998l2.19991,-0.86997l1.38994,-0.28999l1.02996,-1.05996l1.88992,-0.36999l1.80993,-1.39994l1.17995,-0.27999l2.34991,0.90996l2.75989,-0.41998l0.23999,1.27995l1.31995,0.32999l0.90996,1.85993l-1.08996,1.90992l0.69997,1.71993l1.02996,1.04996l0.29999,1.76993l-1.14995,0.93996l-1.72993,0.50998l-2.01992,0.19999l-1.26995,-0.64997l-2.4699,0.42998l-1.72993,1.01996l-0.52998,0.71997l-0.74997,2.28991l0.09,1.28995l-0.72997,0.90996l0.21999,2.34991l0.90996,2.16991l1.22995,-0.11l-0.21999,2.11992l0.49998,1.59994l-1.27995,0.97996l-0.41998,1.26995l-1.78993,1.00996l-1.54994,0.46998l-0.48998,-0.73997l-1.35995,0.45998l-2.5999,-0.56998l-1.62993,-0.09l-2.6099,1.58994l-1.02996,0.24999l-0.89996,0.96996l-0.84997,0.22999l-0.46998,1.90992l-0.80997,1.81993l-0.82997,0.46998l-0.97996,1.75993l0.13999,1.68993l-0.91996,0.64997l-3.06988,1.37994l-0.31999,1.73993l-0.76997,-0.09l-1.26995,0.63997l-1.46994,-2.00992l-1.03996,-0.49998l-0.96996,0.33999l-0.77997,-0.45998l-1.79993,-2.84989l-2.18991,0.96996l-0.28999,1.82993l-1.04996,0.75997l-0.56998,1.73993l-1.94992,2.5499l-0.98996,3.02988l2.5499,0.43998l-0.43998,1.07996l-0.34999,2.01992l-1.85993,-0.19999l-0.62997,0.36999l-0.18999,1.75993l0.32999,0.91996l-0.94996,1.20995l0.1,0.56998l1.31995,0.64997l1.40994,0.24999l0.95996,-0.40998l0.86997,-0.96996l0.04,-1.19995l1.01996,-0.22999l1.15995,0.60998l1.20995,2.23991l2.20991,0.09l-0.67997,1.25995l1.69993,1.28995l1.14995,-0.15999l0.42998,-1.02996l1.38994,-1.21995l1.05996,-2.97988l0.83997,-1.38994l2.11992,-0.80997l0.90996,0.15999l0.11,1.82993l-0.23999,1.17995l0.40998,0.89996l-0.88996,4.66981l0.56998,2.17991l-0.50998,1.17995l0.11,0.98996l0.65997,1.00996l-0.51998,1.03996l0.15999,1.29995l0.62997,1.05996l-0.48998,1.07996l-1.39994,-0.99996l-3.33987,0.70997l-0.72997,-0.63997l-1.03996,-0.08l-0.50998,1.97992l-0.77997,0.88996l-1.96992,-1.45994l-2.63989,1.03996l-1.25995,2.14991l-1.93992,0.71997l-1.65993,2.29991l-0.11,0.84997l0.76997,1.78993l-0.25999,1.04996l-1.17995,1.75993l-0.87996,0.29999l0.09,2.17991l-0.68997,0.37998l0.35999,1.33995l-1.12995,2.02992l0.52998,2.20991l-0.35999,1.06996l-0.70997,0.65997l0.77997,1.59994l-0.59998,1.59994l-1.10996,-0.87996l-0.06,-1.33995l-1.60994,0.67997l-1.12995,-0.77997l-1.56994,-0.05l-0.91996,-0.61998l-0.42998,-0.89996l-2.68989,0.24999l-0.11,-0.84997l-2.4499,0.21999l1.92992,-4.64981l0.89996,-2.71989l0.77997,-3.08988l0.72997,-3.65985l-0.07,-1.56994l-1.74993,-1.97992l0.50998,-0.73997l0.70997,-0.81997"/><path d="M-15.96825,397.62863l1.25995,2.12991l-1.02996,0.80997l-0.24999,0.82997l0.93996,1.84993l-0.88996,0.74997l-1.48994,0.11l-1.18995,0.53998l-0.89996,-0.67997l-1.13995,-0.05l-1.53994,1.67993l-1.27995,-0.03l-1.46994,0.93996l-1.60994,-2.83989l-1.20995,-0.47998l-0.77997,-1.24995h-0.87996l-0.42998,-0.98996l0.48998,-1.15995l0.97996,-0.27999l0.63997,1.41994l0.78997,0.46998l0.86997,-0.36999l2.26991,-0.25999l0.65997,-1.46994l2.5099,1.96992l1.40994,0.20999l1.61994,-0.97996l0.12999,-1.68993l1.20995,-1.20995l0.30999,0.03"/></g></g></svg>