<svg version="1.1" xmlns="http://www.w3.org/2000/svg" xmlns:xlink="http://www.w3.org/1999/xlink" width="208" height="32" viewBox="0,0,208,32"><g transform="translate(-240,-164)"><g data-paper-data="{&quot;isPaintingLayer&quot;:true}" fill-rule="nonzero" stroke="none" stroke-linecap="butt" stroke-linejoin="miter" stroke-miterlimit="10" stroke-dasharray="" stroke-dashoffset="0" style="mix-blend-mode: normal"><path d="M240,196v-32h208v32z" fill="none" stroke-width="0"/><path d="M243.54,180.82c-0.56641,1.6862 -1.31184,3.28127 -2.2363,4.7852l-1.1035,-2.168c1.45833,-1.99867 2.50977,-4.28383 3.1543,-6.8555h-2.7539v-1.9238h2.9395v-4.1602h2.041v4.1602h2.4414v1.9238h-2.4414v1.6797c1.05467,0.76173 2.041,1.63413 2.959,2.6172l-1.123,1.8652c-0.51433,-0.70313 -1.12629,-1.44207 -1.8359,-2.2168v8.9746h-2.041zM258.423,171.4548v18.047h-2.041v-1.6016h-5.1953v1.6016h-2.0215v-18.047zM251.1867,173.2907v3.0273h5.1953v-3.0273zM251.1867,178.0954v2.9785h5.1953v-2.9785zM251.1867,182.8122v3.2324h5.1953v-3.2324z" fill="#ffffff" stroke-width="1"/><path d="M263.1,180.7c-0.61198,1.78387 -1.30535,3.35613 -2.0801,4.7168l-0.82031,-2.2949c1.21747,-2.03127 2.1224,-4.26433 2.7148,-6.6992h-2.4121v-1.9043h2.5976v-4.0234h2.002v4.0234h1.7969v1.9043h-1.7969v1.6699c0.83987,0.69013 1.65693,1.48113 2.4512,2.373l-1.0156,1.7383c-0.50781,-0.74867 -0.98631,-1.3932 -1.4355,-1.9336v9.2285h-2.002zM276.215,174.6942h2.1484v6.8848h-4.4238v1.1328h5.6055v1.7188h-5.1172c1.34113,1.6992 3.11197,2.79947 5.3125,3.3008l-1.0645,1.7969c-1.2956,-0.33854 -2.487,-0.94401 -3.5742,-1.8164c-0.76173,-0.60547 -1.41603,-1.3509 -1.9629,-2.2363c-0.50781,1.04167 -1.20118,1.88477 -2.0801,2.5293c-0.931,0.67707 -2.18427,1.21743 -3.7598,1.6211l-1.2012,-1.5918c1.60807,-0.36459 2.8418,-0.81705 3.7012,-1.3574c0.8268,-0.52083 1.4746,-1.26953 1.9434,-2.2461h-5.2832v-1.7188h5.4785v-1.1328h-4.2383v-6.8848h2.0801v-1.1035h-2.959v-1.6602h2.959v-1.4355h1.8945v1.4355h2.5879v-1.4355h1.9531v1.4355h3.0078v1.6602h-3.0078zM274.2619,174.6942v-1.1035h-2.5879v1.1035zM276.381,176.159h-6.7188v1.2598h6.7188zM269.6622,178.8152v1.2988h6.7188v-1.2988z" fill="#ffffff" stroke-width="1"/><path d="M295.09,173.8v3.7793c0,0.42969 -0.09115,0.74545 -0.27344,0.94727c-0.21484,0.23437 -0.69011,0.35156 -1.4258,0.35156c-0.70313,0 -1.2793,-0.03906 -1.7285,-0.11718l-0.25391,-1.6211c0.51432,0.10417 0.94725,0.15625 1.2988,0.15625c0.1888,0 0.30924,-0.04557 0.36133,-0.13672c0.03907,-0.07812 0.0586,-0.20507 0.0586,-0.38086v-2.9785h-1.7383c-0.05207,1.37367 -0.23436,2.42837 -0.54688,3.1641c-0.34505,0.8008 -1.05795,1.53323 -2.1387,2.1973l-1.3965,-1.2402c0.97653,-0.50781 1.6048,-1.16211 1.8848,-1.9629c0.16927,-0.5013 0.27344,-1.2207 0.3125,-2.1582h-3.8574v-1.6602h5.5566v-1.6406h2.1484v1.6406h6.1328v1.6602zM298.1076,179.3371v3.9648h-9.6387c-0.05207,0.35807 -0.11392,0.71614 -0.18555,1.0742h10.664c-0.16276,1.7904 -0.38737,3.0176 -0.67383,3.6816c-0.41667,0.96353 -1.39323,1.4453 -2.9297,1.4453c-1.27607,0 -2.6465,-0.05534 -4.1113,-0.16601l-0.36133,-1.7774c1.39973,0.14974 2.653,0.22461 3.7598,0.22461c0.59895,0 0.99282,-0.06836 1.1816,-0.20508c0.29297,-0.21484 0.52083,-0.77474 0.68359,-1.6797h-8.5938c-0.07161,0.26693 -0.19531,0.66733 -0.37109,1.2012l-2.0996,-0.41992c0.49479,-1.4844 0.86589,-3.08923 1.1133,-4.8145h9.4238v-1.0449h-10v-1.4844zM283.7426,175.0207c-0.72267,-1.0026 -1.64713,-1.99543 -2.7734,-2.9785l1.4551,-1.3867c1.02213,0.74867 1.98243,1.70243 2.8809,2.8613zM283.1469,180.0598c-1.0026,-1.26953 -1.9759,-2.3047 -2.9199,-3.1055l1.4648,-1.416c0.97653,0.74867 1.9824,1.71547 3.0176,2.9004zM280.6274,187.9602c1.14587,-1.78387 2.2331,-4.07227 3.2617,-6.8652l1.6016,1.1816c-0.85287,2.58467 -1.875,5.00003 -3.0664,7.2461zM298.0294,178.595c-0.85287,-1.3802 -1.74803,-2.5716 -2.6855,-3.5742l1.4844,-0.95703c1.14587,1.04167 2.0736,2.181 2.7832,3.418zM284.3674,177.4231c0.95053,-0.78127 1.7318,-1.81643 2.3438,-3.1055l1.7774,0.66406c-0.63802,1.4518 -1.52019,2.66273 -2.6465,3.6328z" fill="#ffffff" stroke-width="1"/></g></g></svg>