<?xml version="1.0" encoding="UTF-8"?>
<svg width="256" height="24" version="1.1" viewBox="0 0 256 24" xmlns="http://www.w3.org/2000/svg">
 <g transform="translate(-603.34 -395.7)">
  <rect x="603.34" y="395.7" width="256" height="24" fill-opacity="0" stop-color="#000000" style="paint-order:stroke fill markers"/>
  <g transform="scale(.97535 1.0253)" fill="#fff" aria-label="で地震がありました">
   <path d="m750.62 392.67q6.2891-0.0957 11.888-0.32129l0.082 1.3604q-2.4678 0.12304-3.8418 0.75195-1.3125 0.60156-2.1055 1.668-0.90234 1.21-0.90234 2.6934 0 1.4766 1.0254 2.2148 1.1758 0.84082 3.6094 1.1553l-0.32129 1.5381q-3.1719-0.42383-4.4639-1.6406-1.3877-1.2988-1.3877-3.2266 0-1.75 1.2578-3.2676 0.91602-1.1142 2.5088-1.791-2.8232 0.0957-7.2803 0.32129zm9.9394 5.8994q-0.40332-1.0732-1.3604-2.4336l1.0664-0.39648q0.85449 1.1758 1.374 2.4062zm1.8457-0.71778q-0.48536-1.2578-1.3535-2.4473l1.0186-0.36231q0.79981 0.97071 1.3604 2.3516z"/>
   <path d="m770.99 396.54v5.4141q0 0.52637 0.45117 0.63574 0.46484 0.11622 2.126 0.11622 1.6201 0 2.1396-0.16407 0.29395-0.0957 0.38282-0.5332 0.11621-0.61523 0.12304-1.456l1.4287 0.40332q-0.10937 2.0166-0.55371 2.5771-0.29394 0.36914-0.88867 0.4375-0.93652 0.10254-3.1787 0.10254-1.7363 0-2.2764-0.0957-0.81347-0.13672-1.0322-0.71777-0.10938-0.30762-0.10938-0.82032v-5.4209l-1.3057 0.45117-0.32129-1.3262 1.627-0.56055v-3.6846h1.3877v3.206l1.4697-0.49902v-3.6025h1.374v3.124l2.29-0.78613 0.71777 0.4375v5.1201q0 0.5332-0.25293 0.79297-0.28711 0.28711-0.96387 0.28711-0.55371 0-1.1758-0.0957l-0.22558-1.3057q0.40332 0.10254 0.82031 0.10254 0.30078 0 0.36914-0.12305 0.0684-0.10254 0.0684-0.3418v-3.2334l-1.6475 0.57422v5.5303h-1.374v-5.0586zm-5.0244-2.2354v-3.3018h1.4697v3.3018h1.3262v1.3877h-1.3262v4.3477q0.71777-0.24609 1.4219-0.5127l0.12989 1.3193q-2.2148 1.0117-4.5459 1.6953l-0.47852-1.456q1.0527-0.27344 1.8457-0.51953 0.0957-0.0342 0.15722-0.0478v-4.8262h-1.7363v-1.3877z"/>
   <path d="m784.05 392.85v-0.58789h-4.2725v-0.97754h10.09v0.97754h-4.3613v0.58789h5.6602v2.4541h-1.4834v-1.5723h-4.1768v2.6592h-1.4561v-2.6592h-4.1016v1.5723h-1.4697v-2.4541zm4.8398 9.7002q1.0459 0.39648 2.6113 0.62891l-0.79981 1.1621q-2.1943-0.37597-3.6025-1.292-1.4014-0.91601-2.1807-2.2764h-1.5107v2.1055q1.5107-0.21191 2.8027-0.45117l0.0957 1.0186q-2.4062 0.57422-5.5029 0.99804l-0.40332-1.2031q1.0732-0.11621 1.4697-0.16406l0.082-0.0137v-2.29h-1.4971q-0.0957 1.2031-0.31445 1.9209-0.25977 0.86133-0.83399 1.6064l-1.2168-1.0049q0.66992-0.86817 0.83398-2.0303 0.0889-0.6289 0.0889-1.5654v-2.8984h11.799v0.90918h-10.329v2.0986h10.917v0.96387h-1.5518l0.86816 0.57421q-0.77246 0.64258-1.8252 1.2031zm-1.0664-0.52637q0.98438-0.66992 1.5654-1.251h-2.9873q0.58789 0.75195 1.4219 1.251zm-7.2734-7.7861h2.9121v0.77246h-2.9121zm0 1.2578h2.9121v0.78613h-2.9121zm5.544-1.2578h3.001v0.77246h-3.001zm0 1.2578h3.001v0.78613h-3.001zm-4.7988 2.7891h8.5107v0.89551h-8.5107z"/>
   <path d="m792.47 394.03h3.0215q0.20507-1.0527 0.458-2.6182l0.0342-0.19824 1.4971 0.22558q-0.23242 1.4492-0.47851 2.5908h0.82715q1.6406 0 2.3516 0.73828 0.63574 0.66308 0.63574 2.0644 0 2.3584-0.49902 4.4092-0.28711 1.1621-0.69727 1.7158-0.51953 0.69043-1.4424 0.69043-1.1074 0-2.4199-0.71094l0.1709-1.4424q1.2988 0.62207 2.0166 0.62207 0.37597 0 0.58105-0.40332 0.21875-0.4375 0.417-1.2646 0.38964-1.6748 0.38964-3.5205 0-0.9707-0.38964-1.2578-0.33497-0.23926-1.1963-0.23926h-1.0527q-1.0869 4.8398-3.1172 8.2578l-1.374-0.75195q2.0986-3.5205 2.9941-7.5059h-2.7275zm11.354 6.7471q-0.77246-2.8438-2.4404-5.585l1.333-0.60156q1.7227 2.748 2.5772 5.5303zm-1.0117-6.5488q-0.42383-1.1074-1.3672-2.4609l1.0596-0.39648q0.82715 1.1689 1.3877 2.4268zm1.8389-0.58789q-0.5332-1.3193-1.3604-2.4814l1.0049-0.33496q0.78614 0.93652 1.374 2.3379z"/>
   <path d="m807.45 392.95h3.418q0.14355-1.1826 0.21875-1.6953l1.5176 0.15723-0.0205 0.10937-0.0479 0.35547-0.123 0.91602-0.0205 0.15722h5.6533v1.3467h-5.8106q-0.0205 0.23242-0.0889 0.99121l-0.0342 0.4375-0.0137 0.13672q0.82032-0.13672 1.6748-0.13672 2.3652 0 3.7529 1.1074 0.3623 0.29394 0.66309 0.73828 0.60156 0.88867 0.60156 2.0439 0 2.0576-1.6953 3.1377-1.1074 0.7041-3.0693 1.0596l-0.65625-1.2031q1.7978-0.29394 2.748-0.93652 1.1348-0.77246 1.1348-2.1328 0-0.88184-0.49219-1.5518-0.28711-0.39649-0.77246-0.64258-1.7022 2.9668-4.4639 4.8262-0.88868 0.60157-1.4902 0.79981-0.59472 0.1914-1.1621 0.1914-1.0459 0-1.5723-0.69726-0.4375-0.57422-0.4375-1.5723 0-1.7705 1.3398-3.124 0.99121-1.0049 2.3857-1.5449l0.0137-0.18457q0.082-1.1758 0.13672-1.7432h-3.2881zm3.0762 4.6621q-0.95703 0.5127-1.5312 1.2783-0.73145 0.97754-0.73145 1.9482 0 1.0801 0.7793 1.0801 0.68359 0 1.6816-0.73828-0.20508-1.374-0.20508-2.9121 0-0.21191 7e-3 -0.65625zm1.4697-0.51953q-0.0137 0.44434-0.0137 0.80664 0 1.1621 0.10254 2.1875 1.6543-1.5381 2.5293-3.1445-0.4375-0.0547-0.875-0.0547-0.90918 0-1.7432 0.20508z"/>
   <path d="m825.46 397.27q-0.6836 1.2783-1.4014 1.9209-0.61523 0.55371-1.1279 0.55371-0.65625 0-1.0596-0.88867-0.41699-0.92968-0.41699-2.9121 0-1.9961 0.46484-4.3271l1.4971 0.22558q-0.45117 2.3106-0.45117 3.9102 0 2.1533 0.30762 2.1533 0.11621 0 0.39648-0.32813 0.4375-0.49218 0.92285-1.4492zm-1.0391 5.3525q2.0986-0.58789 3.165-1.7568 1.3057-1.4287 1.3057-4.3203 0-2.1943-0.42383-4.9287l1.5654-0.1504q0.45117 2.7617 0.45117 5.1475 0 3.8691-1.9893 5.5713-1.21 1.0391-3.2607 1.7227z"/>
   <path d="m838.8 391.33h1.5107v1.7227h4.2998v1.2988h-4.2998v1.627h4.0606v1.2852h-4.0606v2.1123q2.4336 0.82031 4.7988 2.4678l-0.80664 1.2988q-1.791-1.3398-3.9922-2.3652-0.0547 1.1689-0.45117 1.8115-0.69043 1.1143-2.7207 1.1143-1.5654 0-2.5156-0.58789-1.0596-0.65625-1.0596-1.7774 0-1.3398 1.4287-1.9824 0.95703-0.42383 2.4883-0.42383 0.60156 0 1.3193 0.0957v-1.7637h-4.8467v-1.2852h4.8467v-1.627h-5.1406v-1.2988h5.1406zm0 8.9688q-0.81348-0.1709-1.5586-0.1709-0.90918 0-1.4766 0.2666-0.67676 0.32129-0.67676 0.91602 0 0.49902 0.52637 0.80664 0.5332 0.31445 1.4219 0.31445 1.0527 0 1.4492-0.56054 0.31446-0.4375 0.31446-1.3057z"/>
   <path d="m847.58 391.58h1.6133v8.1484q0 2.5772 2.707 2.5772 1.7842 0 2.9258-1.6475 0.73829-1.0596 1.3262-3.2812l1.3877 0.84082q-0.69726 2.4678-1.6748 3.6914-1.5381 1.9072-3.999 1.9072-2.5703 0-3.623-1.5859-0.66309-0.99121-0.66309-2.5566z"/>
   <path d="m858.96 393.44h3.1924q0.19141-0.84765 0.43066-2.1943l1.5449 0.1914q-0.20508 1.0596-0.4375 2.0029h4.5527v1.3604h-4.874q-1.3672 5.4619-3.0215 9.0576l-1.5107-0.5332q1.7978-3.9854 2.9941-8.5244h-2.8711zm12.1 10.056q-1.1074 0.14355-2.4883 0.14355-2.2354 0-3.377-0.38281-0.4375-0.15039-0.74512-0.42383-0.60156-0.54687-0.60156-1.3945 0-0.86816 0.56055-1.5312l1.2168 0.71777q-0.21192 0.26661-0.21192 0.5879 0 0.55371 0.50586 0.71777 0.77246 0.24609 2.2012 0.24609 1.3877 0 2.7686-0.20508zm-6.4121-6.7744q2.6797-0.30761 5.8652-0.32812l0.0684 1.3877q-3.124 0.0137-5.7354 0.29395z"/>
  </g>
 </g>
</svg>
