<svg version="1.1" xmlns="http://www.w3.org/2000/svg" xmlns:xlink="http://www.w3.org/1999/xlink" width="64" height="64" viewBox="0,0,64,64"><g transform="translate(-208,-148)"><g data-paper-data="{&quot;isPaintingLayer&quot;:true}" fill-rule="nonzero" stroke="none" stroke-width="1" stroke-linecap="butt" stroke-linejoin="miter" stroke-miterlimit="10" stroke-dasharray="" stroke-dashoffset="0" style="mix-blend-mode: normal"><path d="M208,212v-64h64v64z" fill="none" opacity="0.988"/><path d="M230.39993,165.92814c0.00673,0 0.01283,0.00198 0.01953,0.002c0.00731,-0.0001 0.01418,-0.002 0.02148,-0.002v0.002c1.3958,0.00659 2.6237,0.33803 3.6797,0.99805c1.0667,0.64 1.89383,1.5455 2.4805,2.7188c0.60791,1.1365 0.91257,2.4576 0.91797,3.9609h0.002c0,0.00671 -0.00199,0.01283 -0.002,0.01953c0.0001,0.00673 0.002,0.01283 0.002,0.01953h-0.002c-0.00535,1.5038 -0.31003,2.8516 -0.91797,4.041c-0.3961,0.7923 -0.91047,1.4657 -1.5254,2.0391c0.7669,0.5546 1.39689,1.24658 1.8848,2.0801c0.63371,1.0826 0.95278,2.2965 0.95898,3.6406h0.002v2.7988h-0.002c-0.00622,1.344 -0.32526,2.558 -0.95898,3.6406c-0.64,1.0666 -1.5206,1.9205 -2.6406,2.5605c-1.1094,0.60753 -2.3626,0.91217 -3.7598,0.91797v0.002c-0.00733,0 -0.01418,-0.00198 -0.02148,-0.002c-0.00604,0.0001 -0.01158,0.002 -0.01758,0.002v-0.002c-1.2378,-0.00532 -2.3714,-0.25652 -3.4004,-0.75781c-1.0133,-0.5067 -1.85283,-1.21443 -2.5195,-2.1211c-0.64003,-0.9067 -1.0412,-1.9334 -1.2012,-3.0801l3.3613,-0.67969c0.1333,1.1733 0.54687,2.05393 1.2402,2.6406c0.7146,0.55579 1.55985,0.83369 2.5371,0.83789c1.0849,-0.0042 1.97267,-0.37474 2.6621,-1.1172c0.72002,-0.7734 1.0801,-1.7342 1.0801,-2.8809v-2.7207c0,-1.1733 -0.3601,-2.13223 -1.0801,-2.8789c-0.6933,-0.74667 -1.5864,-1.1211 -2.6797,-1.1211v-0.0078c-0.02736,0.0004 -0.05258,0.00577 -0.08008,0.0059v0.002h-2.4805v-3.1602h2.4395c1.0134,0 1.8405,-0.4384 2.4805,-1.3184c0.66338,-0.8757 0.99475,-2.0036 0.99805,-3.3809c-0.0034,-1.3241 -0.3348,-2.41084 -0.99805,-3.2598c-0.6365,-0.8487 -1.4589,-1.2727 -2.4648,-1.2773c-0.9491,0.00505 -1.78066,0.28299 -2.4941,0.83789c-0.71995,0.56 -1.14787,1.4387 -1.2812,2.6387l-3.3594,-0.67969c0.16,-1.1734 0.5592,-2.2001 1.1992,-3.0801c0.6666,-0.9066 1.5205,-1.61243 2.5605,-2.1191c1.0282,-0.50091 2.1488,-0.75211 3.3594,-0.75781v-0.002z" fill="#ff0000"/><path d="M249.39993,165.92814c0.00673,0 0.01283,0.00198 0.01953,0.002c0.00731,-0.0001 0.01418,-0.002 0.02148,-0.002v0.002c1.3958,0.00659 2.6237,0.33803 3.6797,0.99805c1.0667,0.64 1.89383,1.5455 2.4805,2.7188c0.60791,1.1365 0.91257,2.4576 0.91797,3.9609h0.002c0,0.00671 -0.00199,0.01283 -0.002,0.01953c0.0001,0.00673 0.002,0.01283 0.002,0.01953h-0.002c-0.00535,1.5038 -0.31003,2.8516 -0.91797,4.041c-0.3961,0.7923 -0.91047,1.4657 -1.5254,2.0391c0.7669,0.5546 1.39689,1.24658 1.8848,2.0801c0.63371,1.0826 0.95278,2.2965 0.95898,3.6406h0.002v2.7988h-0.002c-0.00622,1.344 -0.32526,2.558 -0.95898,3.6406c-0.64,1.0666 -1.5206,1.9205 -2.6406,2.5605c-1.1094,0.60753 -2.3626,0.91217 -3.7598,0.91797v0.002c-0.00733,0 -0.01418,-0.00198 -0.02148,-0.002c-0.00604,0.0001 -0.01158,0.002 -0.01758,0.002v-0.002c-1.2378,-0.00532 -2.3714,-0.25652 -3.4004,-0.75781c-1.0133,-0.5067 -1.85283,-1.21443 -2.5195,-2.1211c-0.64003,-0.9067 -1.0412,-1.9334 -1.2012,-3.0801l3.3613,-0.67969c0.1333,1.1733 0.54687,2.05393 1.2402,2.6406c0.7146,0.55579 1.55985,0.83369 2.5371,0.83789c1.0849,-0.0042 1.97267,-0.37474 2.6621,-1.1172c0.72002,-0.7734 1.0801,-1.7342 1.0801,-2.8809v-2.7207c0,-1.1733 -0.3601,-2.13223 -1.0801,-2.8789c-0.6933,-0.74667 -1.5864,-1.1211 -2.6797,-1.1211v-0.0078c-0.02736,0.0004 -0.05258,0.00577 -0.08008,0.0059v0.002h-2.4805v-3.1602h2.4395c1.0134,0 1.8405,-0.4384 2.4805,-1.3184c0.66338,-0.8757 0.99475,-2.0036 0.99805,-3.3809c-0.0034,-1.3241 -0.3348,-2.41084 -0.99805,-3.2598c-0.6365,-0.8487 -1.4589,-1.2727 -2.4648,-1.2773c-0.9491,0.00505 -1.78066,0.28299 -2.4941,0.83789c-0.71995,0.56 -1.14787,1.4387 -1.2812,2.6387l-3.3594,-0.67969c0.16,-1.1734 0.5592,-2.2001 1.1992,-3.0801c0.6666,-0.9066 1.5205,-1.61243 2.5605,-2.1191c1.0282,-0.50091 2.1488,-0.75211 3.3594,-0.75781v-0.002z" fill="#ff0000"/></g></g></svg>