<svg version="1.1" xmlns="http://www.w3.org/2000/svg" xmlns:xlink="http://www.w3.org/1999/xlink" width="87.74649" height="74.36402" viewBox="0,0,87.74649,74.36402"><g transform="translate(27.07605,-125.93631)"><g data-paper-data="{&quot;isPaintingLayer&quot;:true}" fill="#ff0000" fill-rule="evenodd" stroke="none" stroke-width="0" stroke-linecap="round" stroke-linejoin="round" stroke-miterlimit="10" stroke-dasharray="" stroke-dashoffset="0" style="mix-blend-mode: normal"><path d="M47.71094,138.93279l1.85993,-1.15995l1.01996,0.04899l1.16996,1.14195l1.39995,2.76889l-0.47998,1.59694l0.29999,1.15995l-0.79997,1.00396l0.31999,1.45494l0.13,2.74289l1.11996,1.44894l0.22999,1.65093l2.05992,1.05796l-0.13,1.51794l1.11996,1.66093l0.52997,2.09592l0.84997,-0.064l1.88992,1.62293l0.36998,1.14896l-1.26995,1.67893l0.15999,1.10296l0.35998,1.14095l0.11,2.36291l0.63997,0.68197l-0.12999,1.60793l-0.92996,0.62098l-0.60997,2.4749l-1.00996,1.27595l0.07,1.01496l0.86997,0.95696l-1.96992,0.98197l-1.80993,1.44494l-0.76997,0.07899l-1.24995,1.20996l-0.27999,1.06295l0.69997,1.80593l-1.57993,1.10095l-0.84996,3.36687l1.33995,1.19995l0.27999,1.30095l-1.04996,3.62086l0.17999,1.97592l-0.13999,1.84593l-2.21991,0.53498l-0.89997,-0.19499l-0.45998,1.41494l-1.80993,0.58598l-0.85997,-0.44798l-2.79988,0.65997l-0.58998,-0.94396l-1.79992,-0.94996l-0.27999,-0.76997l-1.64994,-0.30199l-0.51998,0.70497l-1.54994,0.46598l-1.03996,-0.35299l-1.96992,-4.8318l-0.50998,-1.63794l-1.20995,-0.64597l0.21999,-1.79893l-1.63994,-0.71297l-1.64993,-2.17091l0.41998,-1.58294l0.90996,-0.96096l0.42998,-1.24195l-1.43994,-1.70593l1.17995,-1.18095l-0.60998,-0.85697l0.69997,-0.99296l-0.95996,-1.24795l-0.79996,-4.38583l-1.22996,-1.01996l-1.24995,0.068l-2.3599,3.18987l-1.33995,0.45398l-0.40999,1.18095l-1.16995,1.51394l-2.36991,-0.99396l-0.99996,0.36398l-0.53998,-1.00696l-1.34994,-1.27295l-0.95996,0.166l-4.61981,-1.17595l-0.14999,0.73197l-3.40986,-0.74797l-0.23999,1.62694l-2.18991,1.38795l-2.5399,-0.09199l-1.55994,-1.84193l-1.32995,-0.40899l-1.02996,-2.07592l0.22999,-1.76893l-1.55993,-2.00392l1.22995,-1.18896l-1.07996,-1.76293l0.53997,-1.59394l-1.10995,-2.14091l-3.28986,-1.89892l-1.07996,0.28298l-0.31999,-1.13095l-0.89997,-1.17295l-0.83997,0.22599l-0.51998,-1.24695l-0.71997,-0.42098l-1.63994,-2.24591l0.33999,-1.87793l-1.20995,-2.54489l-1.29995,-1.10296l-1.37994,-1.84093l-0.32998,-1.68093l-2.5099,-2.96488l-3.30987,-2.58389l-0.92996,-2.5779l-0.95996,-1.46194l-1.69994,-1.04696l0.26999,-0.98096l1.20995,-1.08696l1.42995,-0.57198l0.53998,-1.02896l2.30991,0.79897l1.47994,-0.73197l1.36995,-2.03392l1.55994,-0.20399l3.97984,-1.78293l1.12995,-0.10499l2.5299,0.46298l1.04995,-0.16199l2.16992,-1.13095l0.12,0.89496l1.97992,0.53898l2.26991,0.09299l1.78993,0.90397l1.02996,-0.052l1.55994,0.74297l0.88997,0.84497l2.3299,1.11396l2.90989,-1.48694l2.68989,-0.203l1.46994,0.43698l0.86996,-0.36698l1.76993,2.77089l-0.10999,1.34494l-1.44994,0.52098v0.96796l1.13995,0.48098l1.00995,2.10992l0.76997,-0.93796l1.55994,-0.49498l2.15991,0.76497l1.05996,1.13495l2.5299,1.40994l0.41998,0.99696l1.48994,0.87097l2.16992,-0.082l0.85996,0.64797l1.14996,-0.071l2.5399,-2.29291l1.26995,0.23999l1.02996,1.41494l1.77993,-0.72297l1.88993,0.60197l2.27991,-0.24499l3.93984,0.79197l1.16996,-0.95197l1.18995,-0.16499l0.22999,-1.57094"/></g></g></svg>