<svg xmlns="http://www.w3.org/2000/svg" viewBox="0 0 192 36" version="1.1" height="36" width="192"><rect style="paint-order:stroke markers fill" fill="none" height="36" width="192"></rect><path style="-inkscape-stroke:none;paint-order:stroke markers fill" stroke-linejoin="round" stroke-linecap="round" fill-rule="evenodd" fill="#7d97b4" color="#000000" d="m19 2c-9.31184 0-17 7.09393-17 16 0 8.90606 7.68816 16 17 16h154c9.31184 0 17-7.09394 17-16 0-8.90607-7.68816-16-17-16z"></path><path style="-inkscape-stroke:none;paint-order:stroke markers fill" stroke-linejoin="round" stroke-linecap="round" fill-rule="evenodd" fill="#31476d" color="#000000" d="m19 4h154c8.31 0 15 6.244 15 14 0 7.75599-6.69 13.99999-15 13.99999h-154c-8.31 0-15-6.244-15-13.99999 0-7.756 6.69-14 15-14z"></path><path aria-label="使い方・クレジット" fill="#fff" d="m49.1841 15.1323v-1.14843h-3.7666v-1.2168h3.7666v-1.3877h1.41504v1.3877h4.21094v1.2168h-4.21094v1.14843h3.55469v4.34082h-3.5752q-0.082 1.3877-0.51953 2.24219 2.21485 1.11426 4.92188 1.53809l-0.71778 1.42871q-2.80957-0.69727-4.96972-1.90039-1.2168 1.29199-3.55469 2.00976l-0.79981-1.20312q1.97559-0.41016 3.1377-1.54492-0.97754-0.64942-2.12598-1.5791l0.98438-0.82032q0.9707 0.79297 1.90723 1.38086 0.30078-0.64941 0.37597-1.55176h-3.53418v-4.34082zm0 1.14844h-2.1123v2.04395h2.1123zm1.41504 0v2.04395h2.15332v-2.04395zm-5.9541-1.60644v10.00781h-1.45606v-7.01367q-0.44433 0.75879-1.14843 1.72265l-0.69727-1.53808q1.13477-1.5791 1.90723-3.62305 0.46484-1.2168 0.95019-2.94629l1.46973 0.37598q-0.52637 1.76367-1.02539 3.01465zm17.5957 5.63281q-1.26465 3.71875-2.83691 3.71875-1.1211 0-1.9209-1.57227-0.61523-1.21679-0.84766-2.67968-0.28027-1.77735-0.28027-4.56641 0-1.20996 0.0889-2.59766l1.60644 0.12305q-0.0889 1.3877-0.0889 2.63867 0 4.38867 0.82031 6.11817 0.33496 0.71093 0.6289 0.71093 0.19141 0 0.47852-0.4375 0.58789-0.88867 1.13477-2.44726zm4.32715 1.62695q-0.34863-2.88476-0.85449-4.66211-0.61524-2.15332-1.42871-3.94433l1.45605-0.35547q1.12793 2.23535 1.67481 4.30664 0.45117 1.68164 0.74511 4.2793zm9.25586-6.87012q-0.0479 1.14161-0.13672 2.00977h5.50977q-0.10254 4.74414-0.53321 6.15918-0.21875 0.71094-0.81347 0.98438-0.46485 0.21191-1.36035 0.21191-0.94336 0-2.13965-0.14356l-0.2666-1.53808q1.60644 0.22558 2.26269 0.22558 0.55371 0 0.7041-0.31445 0.36231-0.76562 0.50586-4.22461h-4.06738q-0.22559 1.23047-0.63574 2.13281-1.1416 2.49512-3.81446 3.95801l-1.08007-1.20312q2.67968-1.39453 3.54101-3.65723 0.57422-1.51074 0.74512-4.60059h-4.52539v-1.40136h5.58496v-2.28321h1.5791v2.28321h5.76953v1.40136zm10.87598 1.42188q0.5332 0 0.96386 0.35547 0.56739 0.46484 0.56739 1.18945 0 0.44434-0.25293 0.82715-0.45801 0.71094-1.29883 0.71094-0.36914 0-0.7041-0.17774-0.2666-0.13672-0.45117-0.3623-0.37598-0.44434-0.37598-1.01172 0-0.79297 0.66309-1.25781 0.39648-0.27344 0.88867-0.27344zm13.85644-2.98047 1.06641 0.88184q-0.77246 4.32031-2.83692 6.60351-1.87988 2.07813-5.66015 3.21289l-0.85449-1.38769q3.46582-0.875 5.27734-2.83008 1.75684-1.88672 2.35156-5.0791h-4.60742q-1.43555 2.17383-3.37012 3.47265l-1.12109-1.13476q1.57227-1.01172 2.56348-2.20117 1.12109-1.35352 1.75-3.26075l1.48339 0.40333q-0.24609 0.71777-0.5332 1.31933zm3.53418-1.4834h1.59278v10.24707q1.27832-0.41015 2.27636-0.95019 2.80274-1.51074 4.65528-3.84864 0.54687-0.69042 1.04589-1.58593l1.01172 1.42871q-1.42187 2.20801-3.58886 3.85547-2.63868 2.00293-6.01563 2.96679l-0.97754-0.95703zm17.02832 2.98047q-2.0166-0.90234-4.11523-1.51074l0.44433-1.35352q2.36524 0.58789 4.14942 1.43555zm-1.40136 3.5q-1.68165-0.73828-4.11524-1.51074l0.58789-1.36719q2.0918 0.55371 4.06055 1.46973zm-3.2334 3.7666q2.6455-0.21191 4.19726-0.75879 3.99219-1.41504 5.09961-6.41894l1.40137 0.84082q-0.90918 3.83496-3.39063 5.70801-1.62695 1.23047-4.0332 1.75-1.15527 0.25293-2.83691 0.41015zm8.65429-7.90918q-0.4375-1.08007-1.40136-2.40625l1.08007-0.38965q0.86817 1.17579 1.39454 2.37891zm2.07129-0.37597q-0.56738-1.34668-1.37402-2.4336l1.01172-0.32812q0.81347 0.94336 1.38086 2.31054zm3.36328 5.26367q-0.49218-2.10547-1.333-3.88965l1.29882-0.63574q0.86817 1.77734 1.41504 3.99219zm3.17188-0.61524q-0.38281-1.6748-1.25781-3.87597l1.34668-0.56055q0.78613 1.72949 1.3125 3.91699zm-2.12598 4.25196q2.28321-0.6084 3.48633-1.64063 1.20313-1.03222 1.83203-2.98047 0.49219-1.54492 0.71778-3.97168l1.45605 0.43067q-0.41016 3.20605-1.1416 4.91504-0.88867 2.09179-2.66602 3.22656-1.12793 0.72461-2.88476 1.28516zm10.68457-11.11524h1.59278v3.92383q4.08105 1.25781 6.76074 2.57031l-0.76563 1.47657q-2.57031-1.30567-5.99511-2.48145v6.94531h-1.59278z"></path></svg>
