<svg version="1.1" xmlns="http://www.w3.org/2000/svg" xmlns:xlink="http://www.w3.org/1999/xlink" width="77.64692" height="91.50034" viewBox="0,0,77.64692,91.50034"><g transform="translate(19.28634,123.75172)"><g data-paper-data="{&quot;isPaintingLayer&quot;:true}" fill="#ff0000" fill-rule="evenodd" stroke="none" stroke-width="0" stroke-linecap="round" stroke-linejoin="round" stroke-miterlimit="10" stroke-dasharray="" stroke-dashoffset="0" style="mix-blend-mode: normal"><path d="M55.81062,-72.18875l-0.66997,-0.21599l-1.63993,-1.55694l-1.49994,-0.75297l-2.99988,-1.95593l-0.67998,0.11899l-0.55998,1.59294l-2.06992,0.68597l-1.34994,-0.49498l-1.90992,2.5859l0.05,2.11691l-1.69993,0.67698l0.32998,1.43094l0.91996,0.42298l0.81997,1.32395l0.32999,2.84188l0.57997,1.00496l-0.13999,1.26995l-1.15996,0.54497l-0.59997,1.95692l0.27999,1.42594l-1.83992,0.46598l-0.78997,1.88993l1.40994,0.03l-0.56998,2.30191l-1.11995,1.48494l0.57998,2.68989l1.00995,1.41094l-0.47998,1.59593l-1.03995,0.76997l-1.29995,1.78093l0.38999,1.33895l-0.41998,1.97892l-1.00996,0.58898l-0.38998,1.99992l0.62998,1.20595l-1.22995,0.59498l-2.4699,-0.45698l-2.6599,-0.032l-1.65993,0.43898l-2.34991,-0.04699l-0.13999,-0.92597l-0.70997,-0.81196l-1.66993,1.83892l-1.11995,-0.78997l-0.35999,-1.78893l-1.47994,0.69998l-0.82997,1.22295l-1.34994,0.62998l-0.39998,-1.79693l-1.87993,0.37798l-0.12,1.09196l-1.92992,-1.24195l0.88996,-0.89496l-0.90996,-0.84997l-1.07996,-0.16699l-2.20991,-0.94597l0.05,-2.54289l-0.55998,-3.31487l-0.77997,-1.28795l-0.06999,-1.09196l-0.74997,-0.77397l-2.23991,0.49398l-1.26995,-0.44199l-2.4199,0.156l-1.82992,0.95296l-1.62994,0.34699l-1.70993,1.97392l-1.14996,0.36098l-1.77993,1.89392l1.13996,3.58786l0.28999,1.82292l1.08996,4.57182l-0.37999,0.52698l0.06,-1.05096l-1.91993,-6.22575l-2.02992,-5.70177l-2.5999,-6.67573l-2.24991,-5.39678l-5.80976,-12.93748l-1.82993,-5.70077l-0.43998,-2.5729l0.55997,-4.76981l3.49986,-4.76381l1.08996,-3.26587l-0.43998,-2.20691l0.70997,-0.41598l2.12991,-2.89189l0.79997,-1.56994l0.50998,-2.02991l-0.01,-1.52094l-1.88992,-3.03688l-0.36999,-2.03392l-0.01,-2.13291l0.58997,-2.5859l0.75997,-1.47194l2.21992,2.5539l0.58997,1.43494l0.13,1.48594l1.71993,0.78297l0.83997,-0.019l0.37998,1.21195l0.95997,0.058l2.4199,-0.66497l0.54998,-1.74393l1.32995,1.08295l1.16995,0.245l2.4799,-0.36999l2.4499,-1.08696l1.82993,-1.13096l2.5099,-2.4739l1.47994,-3.05787l-0.46998,-1.25395l0.60998,-1.80293l-0.05,-1.76693l1.31994,-1.06296l0.19,-1.19096l1.82993,-0.99796l1.55994,-0.03999l0.82997,-0.73398l0.82997,0.92596l0.94996,0.017l0.70997,0.83496l0.56998,1.83693l0.26999,2.14791l2.29991,2.83889l2.5999,1.29595l0.54998,2.3959l1.07995,1.02596l-0.15999,1.37095l0.84997,1.56994l2.11991,2.17592l2.20991,1.45794l3.08988,2.4159l3.28987,2.20691l1.99992,1.62293l2.31991,3.48986l3.46986,4.61182l3.62986,5.27379l2.11991,2.79589l6.03976,7.22671l-2.5499,2.02491M-1.2371,-104.64046l-0.62998,1.35695l1.08996,1.78193l1.96992,-1.07396l0.51998,-1.20195l-0.61998,-1.01595l-2.32991,0.15299"/></g></g></svg>