<svg version="1.1" xmlns="http://www.w3.org/2000/svg" xmlns:xlink="http://www.w3.org/1999/xlink" width="82.00669" height="98.74606" viewBox="0,0,82.00669,98.74606"><g transform="translate(-233.37834,-40.95906)"><g data-paper-data="{&quot;isPaintingLayer&quot;:true}" fill="#ff0000" fill-rule="evenodd" stroke="none" stroke-width="0" stroke-linecap="round" stroke-linejoin="round" stroke-miterlimit="10" stroke-dasharray="" stroke-dashoffset="0" style="mix-blend-mode: normal"><path d="M278.3565,49.8087l1.27995,0.36998l1.29995,0.98996l1.02996,2.3299l0.67997,-0.09999l1.65994,1.54994l1.17995,-0.37999l1.15995,0.26998l1.01996,0.67998l0.21999,1.17996l1.10996,1.60993l-1.45994,2.32991l0.13,1.83992l-0.35998,1.55994l-1.06996,1.42994l2.18992,2.00992l-0.63998,0.60997l0.81997,2.07992l-0.90996,1.24995l0.94996,1.24995l-1.79993,3.05988l0.85996,0.53998l1.50994,-0.28999l1.22996,0.91997l-1.21996,1.31994l0.67998,0.79997l0.05999,1.10995l-0.81996,0.73997l0.73997,1.33995l-0.25999,0.96996l1.31995,0.16999l0.70997,1.13995l-0.19,0.60998l0.78997,1.19995l1.14995,0.35999l1.59993,-0.41998l0.80997,0.66998l1.14995,-0.66998l3.14988,-0.67997l0.36998,0.45998l2.30991,-0.09l0.62997,-0.41998l1.25995,0.07l1.46995,-1.19995l0.13,-1.26995l0.54997,-0.48998l1.03996,0.06l1.07996,0.55998l0.82997,1.17995l1.39994,0.20999l1.27995,1.83993l-0.44998,1.49994l1.19995,1.97992l2.16991,0.54998l-0.26999,1.11996l-1.95992,1.81993l-0.57998,-0.16999l-1.60993,0.96996l-1.06996,1.44994l0.11,1.14995l-0.52998,0.79997l-0.03,2.55989l-1.16995,0.02l-1.16996,-0.99996l-0.81996,0.49998l-0.29999,1.32995l-1.29995,1.23995l-0.34998,1.13995l-0.74997,0.22999l0.36999,1.60994l-0.39998,0.96997l0.35999,2.62989l-1.12995,1.98992l-0.87997,0.42998l-1.14995,-0.1l-1.33994,-0.65997l-2.22991,-0.33999l-0.88996,0.63997l-0.55998,2.08992l0.12999,1.21995l-1.50994,0.13l-0.58997,0.81997l0.68997,1.75993l-0.01999,1.33995l-1.52994,0.57997l-0.23999,2.99988l0.93996,1.98992l-0.20999,1.24995l-1.43994,1.22995l-1.27994,0.62997l-0.92997,-0.48998l-1.88993,0.1l-0.54997,0.79996l-1.23995,0.60998l-1.22996,-0.37999l-1.62993,0.11l-0.95997,-0.22999l-0.46998,-1.08995l0.29999,-1.83992l-1.13995,-1.17996l-0.93996,-0.06l-0.38999,-0.85996l-1.38995,-1.01996l-1.02995,0.68997l-1.23995,-1.31994l-2.33991,0.97996l-0.96996,-0.42998l-1.19995,0.02l-0.85997,1.12995l-2.79989,0.73997l-1.55993,1.06996l-0.44998,0.91996l0.30999,0.97996l-1.88993,0.47998l0.70997,2.4999l-0.87996,1.07995l0.37998,1.59994l1.74993,0.54998l-0.25999,0.95996l-1.78993,0.75997l-1.14995,2.16992l-0.78997,0.61998l-0.45998,1.03996l0.35998,0.82997l-1.68993,0.99996l-1.31995,-0.18l-0.54998,-1.63993l-0.60997,-0.73997l-0.66997,-1.56993l-1.02996,1.01996l-1.11996,-0.27999l-0.57997,0.32998l-0.54998,-1.11996l-1.30995,-0.24999l-0.62997,0.33998l-1.18995,-0.40998l-1.05996,0.57997l-1.69993,-1.25995l-0.76997,0.21999l-1.19995,1.82993l-1.02996,-0.24999l-0.27999,-0.80997l0.24999,-1.46994l1.28995,-2.28991l-0.52998,-0.52998l0.67997,-1.20995l1.11996,-0.34999l1.76993,-1.90992l-0.87996,-1.94992l0.41998,-0.98996l-0.41998,-1.37995l-1.57994,-0.13999l-0.66997,-0.86996l-0.03,-1.07995l0.45998,-0.77997l1.58994,0.17999l0.23999,-0.79997l-1.23995,-0.48998l-2.14991,-1.23995l1.25995,-2.15992l1.21995,-0.54998l0.63997,0.57998l1.34994,-2.41991l1.38995,-2.11991l1.88993,-1.99992l0.71997,0.55998l1.80993,-1.77993l-1.45995,-1.38994l0.37999,-0.81997l1.78993,-0.16999l1.25995,1.24995l0.29998,-0.64997l-0.49998,-2.86989l-1.49994,0.86997l-2.10992,0.40999l-1.74993,0.80996l-0.78996,-0.09999l-1.12995,0.49998l-1.87993,-0.36999l-1.90992,0.02l-3.12988,1.53994l-2.3699,-0.13l-1.89993,0.94996l-0.76997,-0.38998l0.21,-1.10996l-0.86997,-1.11996l0.88997,-0.88997l1.59994,-0.59997l2.19991,-1.76993l1.04996,-0.13999l1.37994,-0.96996l1.39994,-0.17999l1.50994,-2.5799l1.48994,-1.48994l2.04992,-0.60997l0.84996,-0.82997l1.00996,-0.19l-0.32999,-2.16991l0.35998,-1.34995l-0.78997,-2.88988l-0.1,-1.33995l0.90996,-1.40994l0.68997,-0.30999l-1.85992,-2.13992l-0.34999,-1.58993l-1.04996,-0.30999l-0.28999,-1.76993l-0.83997,-0.89997l-0.55998,0.82997l-4.20983,-1.34994l0.03999,-3.27987l-2.3899,-1.44994h-0.44998l-1.54994,-1.27995l-0.84996,0.40998l-1.37995,-0.59998l-1.72993,-1.83993l0.03,-1.44994l-0.80997,-3.14988l-0.18999,-3.28986l-0.43998,-0.79997l-0.71997,0.06l-0.42998,-1.06996l2.20991,-0.32998l4.77981,0.40998l1.50994,-0.58997l0.79996,0.31999l0.86997,-1.20996l-1.01996,-1.43994l-0.10999,-1.27995l-0.94996,-1.40994l0.90996,-1.11996l1.27994,-0.89996l1.52994,0.01l0.31999,-1.49994l2.05992,-0.95996l0.95996,-0.12l-0.43998,-1.04995l0.05999,-0.98996l0.89997,-0.29999l0.93997,-1.10996l2.07991,0.15l1.45994,0.73997l2.44991,-0.57998l1.60994,0.57998l0.40998,-1.13996l0.59998,-3.01988l0.12,-1.61993l1.76993,-1.44994l0.78996,1.08996l-0.20999,0.59998l1.32995,0.38998l0.80997,-0.43999l1.05996,0.40999l1.14995,-0.17999l0.29999,0.84996l1.63993,1.05996l1.69994,1.56994l1.82993,0.03l1.80993,0.97996l0.44998,-0.09l1.47994,1.18995l1.31995,0.30999l0.31998,1.18995l2.08992,-0.10999"/><path d="M242.85793,107.90637l0.02,1.82993l-1.71993,1.83992l-0.55998,-0.75997v-1.11996l-1.24995,-1.31995l1.94992,-0.77997l1.55994,0.30998"/><path d="M249.25767,89.40712l0.09,-0.66998l1.88993,-0.02l-0.2,0.67997l-1.77993,0.01"/></g></g></svg>