<svg version="1.1" xmlns="http://www.w3.org/2000/svg" xmlns:xlink="http://www.w3.org/1999/xlink" width="133.90009" height="112.1636" viewBox="0,0,133.90009,112.1636"><g transform="translate(-66.51251,-11.99779)"><g data-paper-data="{&quot;isPaintingLayer&quot;:true}" fill="none" fill-rule="evenodd" stroke="#d645ff" stroke-width="72" stroke-linecap="round" stroke-linejoin="round" stroke-miterlimit="4" stroke-dasharray="" stroke-dashoffset="0" style="mix-blend-mode: normal"><path d="M102.51251,62.86542l1.69973,1.48976l3.87938,-0.03l3.97936,-1.94969l0.22996,-1.52976l2.01968,-2.12966l4.41929,0.03l5.54911,-4.18933l-0.06999,-1.67973l3.97936,-0.77988l1.45977,-1.45977l0.72988,0.95985l6.06903,-1.73972l1.72972,-1.8597l3.28947,4.25932l2.81955,1.8797l0.08999,2.97952l2.01968,0.70989l-1.20981,3.08951l-2.59958,0.83987l-1.54975,2.24964l-0.83987,3.52944l-3.07951,2.80955l-2.10966,3.26948l-0.51992,2.87954l1.92969,0.85986l0.09998,-2.75956l1.76972,-0.6199l0.23996,-2.12966l1.91969,0.43993l0.70989,1.68973l2.06967,0.95985l-1.36978,0.78987l-1.8597,-0.79987l0.24996,3.03951l2.23964,0.19997l1.8897,2.06967l2.42961,0.57991l1.2798,-1.63974l1.12982,2.44961l-1.17981,2.33963l-0.94985,4.19933l3.39946,-2.79955l0.35994,-2.00968l4.3893,0.87986l-0.07999,-4.01936l-1.02984,1.58975l-4.02936,0.01l-0.46992,-5.33915l0.93985,0.56991l3.64942,-2.23964l0.53991,0.56991l3.53943,-2.24964l3.7194,-3.54943l-1.47976,3.1295l2.5296,2.59958l1.33979,-0.09998"/></g></g></svg>