<svg version="1.1" xmlns="http://www.w3.org/2000/svg" xmlns:xlink="http://www.w3.org/1999/xlink" width="55.83777" height="61.93753" viewBox="0,0,55.83777,61.93753"><g transform="translate(-539.22297,-65.16108)"><g data-paper-data="{&quot;isPaintingLayer&quot;:true}" fill="#ff0000" fill-rule="evenodd" stroke="none" stroke-width="0" stroke-linecap="round" stroke-linejoin="round" stroke-miterlimit="10" stroke-dasharray="" stroke-dashoffset="0" style="mix-blend-mode: normal"><path d="M579.02138,69.52087l2.5599,2.15991l1.24995,0.60998l0.70997,2.28991l1.31995,1.07996l1.34995,0.48998l-0.46998,0.96996l0.72997,1.12995l1.15995,-0.21999l0.87996,-0.66997l3.03988,-0.13999l1.99992,1.23995l1.10996,1.22995l0.39998,1.35995l-2.14991,-0.06l-0.90996,-2.00992l-1.48994,1.38994l0.26999,1.48994l-6.69973,3.49986v0.66997l-1.33995,0.61998l0.07,-1.18995l-2.4399,0.18999l-0.67997,1.04996l0.06,1.29995l1.33995,1.43994l1.16995,-0.19999l0.67997,-0.55998l0.58998,0.97996l1.42994,0.49998l-1.25995,2.82989l0.13999,0.64997l-0.97996,0.97996l-1.69993,-1.23995l-0.96996,0.14999l0.24999,1.09996l-1.32995,0.29999l0.43998,1.22995l1.66993,0.35999l-0.72997,1.13995l0.45998,0.59998l0.05,1.63993l0.58998,0.77997l0.01,1.40994l-1.79993,0.15999l-0.91996,1.35995l1.91992,0.25999l1.16995,-0.09l-1.82993,3.54986l0.72997,1.36995l1.56994,-0.55998l-0.35999,-0.98996l1.23995,0.03l0.55998,0.56998l-0.56998,1.08996l0.31999,0.83997l0.84997,0.54998l0.51998,1.10996l1.21995,0.30999l2.4199,-0.02l1.21995,0.32999l0.67997,0.98996l-0.85997,0.46998l-0.45998,1.05996l-1.29995,0.07l0.90996,1.35995l-0.68997,1.30995l0.25999,0.79997l-3.22987,0.30999l-0.71997,0.27999l-1.83993,1.40994l-1.20995,1.80993l0.83997,2.6199l1.59994,0.31999l0.15999,0.69997l-0.39998,1.42994l-0.78997,-0.31999l-2.29991,0.51998l-0.61998,-0.40998l-2.4899,0.23999l-0.48998,-1.66993l0.62997,-1.07996l-0.02,-3.43986l-0.70997,-0.40998l-0.40998,-1.29995l0.39998,-0.63997l1.40994,0.15999l0.35999,-1.11996l-2.3999,-1.05996l-0.28999,-1.64993l-1.76993,-1.76993l-0.96996,-1.56994l-0.37998,-2.19991l0.23999,-1.10996l-1.87992,-0.15999l-0.01,-1.02996l-1.25995,-0.79997l-1.36995,0.92996l-3.55986,-0.70997l-0.72997,0.34999l-1.41994,-1.24995l-1.41994,-0.34999l-2.17991,-0.17999l-1.79993,0.38998l-1.13995,-0.25999l-3.53986,0.49998l-2.95988,0.07l-2.07992,0.77997l-5.75977,1.42994l-2.5899,1.10996l0.42998,-2.19991l-0.02,-1.25995l-0.48998,-0.62997l1.22995,-1.10996l-0.49998,-0.74997l-0.17999,-1.39994l1.00996,-0.79997l1.82993,-0.39998l0.79997,-2.02992l1.64993,-0.07l-0.08,-0.98996l1.32995,-0.19999l0.92996,0.62997l1.82993,-0.33999l0.30999,-0.47998l1.20995,0.68997l0.85997,-0.60998l0.34999,-1.32995l1.44994,0.04l-0.42998,-1.51994l0.59998,-3.71985l-0.39998,-1.53994l0.72997,-1.04996l0.14999,-1.23995l-0.59998,-2.87988l1.36995,0.11l0.74997,-0.79997l1.15995,-0.22999l1.36995,-1.97992l0.86997,0.98996l1.35995,-0.60998l1.29995,-0.99996l0.74997,0.32999l0.44998,1.90992l0.85997,0.11l0.06,-1.20995l0.94996,-1.11996l0.02,-1.87992l-0.63997,-0.91996l-0.06,-1.99992l-0.92996,-0.12l-0.07,-1.11996l0.62997,-1.37994l1.38994,-0.34999l-0.61998,1.42994l0.72997,1.28995l1.44994,-1.63993l-1.09996,-1.41994l-3.06988,-2.80989l-1.08996,0.20999l-0.35999,-0.52998l1.13995,-1.27995l1.54994,0.39998l0.50998,1.08996l0.77997,0.65997l0.84997,-0.02l-0.26999,-1.53994l0.84997,-0.66997l1.09996,-0.22999l1.09996,-2.20991l3.70985,1.25995l0.85997,0.97996l1.90992,0.73997l2.19991,0.31999l1.89992,1.05996"/><path d="M587.22105,87.02016l-1.04996,-1.99992l3.18987,-1.74993l0.76997,2.17991l-2.90988,1.56994"/><path d="M589.52096,83.32031l2.4899,-1.38994l0.99996,-0.06l0.74997,0.81997l-3.30987,1.78993l-0.92996,-1.15995"/><path d="M583.22121,87.52014l-0.05,-0.55998l1.97992,-0.82997l0.22999,0.81997l0.74997,1.24995l-0.66997,0.64997l-2.23991,-1.32995"/><path d="M590.82091,80.22044l0.79997,-0.82997l0.89996,1.60994l-1.41994,0.50998l-0.27999,-1.28995"/><path d="M583.92119,93.7199l1.18995,0.02l-1.04996,1.36995l-1.03996,-0.48998l0.89996,-0.89996"/></g></g></svg>