<svg version="1.1" xmlns="http://www.w3.org/2000/svg" xmlns:xlink="http://www.w3.org/1999/xlink" width="208" height="80" viewBox="0,0,208,80"><g transform="translate(-136,-140)"><g data-paper-data="{&quot;isPaintingLayer&quot;:true}" fill-rule="nonzero" stroke="none" stroke-width="1" stroke-linecap="butt" stroke-linejoin="miter" stroke-miterlimit="10" stroke-dasharray="" stroke-dashoffset="0" style="mix-blend-mode: normal"><path d="M136,220v-80h208v80z" fill-opacity="0" fill="#000000"/><g fill="#ffffff"><path d="M177.592,188.99v5.5107h-13.157v-5.5107zM166.395,190.2468v0.90527h9.2373v-0.90527zM166.395,192.3034v1.0283h9.2373v-1.0283zM170.7895,196.9264v7.3301c1.1426,-0.31055 2.1885,-0.84375 3.1377,-1.5996c-0.8906,-1.03713 -1.56443,-2.15333 -2.0215,-3.3486h-0.75586v-1.4062h6.7852l0.86133,0.75586c-0.63867,1.54687 -1.43847,2.874 -2.3994,3.9814c0.86133,0.5625 1.93947,1.04003 3.2344,1.4326l-1.0811,1.6084c-1.33593,-0.50391 -2.46093,-1.11914 -3.375,-1.8457c-1.00193,0.8262 -2.17673,1.48247 -3.5244,1.9688l-0.86133,-1.292v1.2041h-1.8193v-1.96c-1.66407,0.33398 -3.72363,0.63281 -6.1787,0.89648l-0.4834,-1.6172c0.77347,-0.041 1.43263,-0.08201 1.9775,-0.12304v-5.9854h-1.8369v-1.459h17.104v1.459zM168.9702,196.9264h-2.8828v1.0635h2.8828zM168.9702,199.1588h-2.8828v1.081h2.8828zM168.9702,201.3912h-2.8828v1.3447c0.49805,-0.05273 0.87305,-0.09375 1.125,-0.12304c0.6738,-0.07031 1.25973,-0.1377 1.7578,-0.20215zM175.0698,201.54061c0.5332,-0.61523 1.01367,-1.35937 1.4414,-2.2324h-2.9795c0.36328,0.791 0.87598,1.53513 1.5381,2.2324z"/><path d="M190.222,194.93c0.40429,1.37107 1.17186,2.83007 2.3027,4.377c1.37693,1.88673 3.0703,3.38087 5.0801,4.4824l-1.2568,1.8106c-2.12693,-1.25393 -3.90233,-2.91507 -5.3262,-4.9834c-0.7676,-1.125 -1.38283,-2.2705 -1.8457,-3.4365c-0.46289,1.57033 -1.18066,2.9971 -2.1533,4.2803c-1.42967,1.89847 -3.19627,3.29887 -5.2998,4.2012l-1.2393,-1.6084c2.20313,-0.91993 3.98147,-2.3379 5.335,-4.2539c1.13673,-1.6172 1.81057,-3.24023 2.0215,-4.8691h-7.0137v-1.9072h7.0928v-4.2363h2.0303v4.2363h7.2422v1.9072z"/><path d="M206.007,190.98v-0.75586h-5.4932v-1.2568h12.973v1.2568h-5.6074v0.75586h7.2773v3.1553h-1.9072v-2.0215h-5.3701v3.4189h-1.8721v-3.4189h-5.2734v2.0215h-1.8896v-3.1553zM212.2297,203.452c0.89647,0.33984 2.0156,0.60937 3.3574,0.80859l-1.0283,1.4941c-1.88087,-0.32227 -3.4248,-0.87597 -4.6318,-1.6611c-1.2012,-0.78513 -2.13577,-1.76073 -2.8037,-2.9268h-1.9424v2.707c1.29493,-0.18164 2.4961,-0.375 3.6035,-0.58008l0.12305,1.3096c-2.06253,0.49219 -4.42093,0.91992 -7.0752,1.2832l-0.51855,-1.5469c0.91993,-0.09961 1.5498,-0.16992 1.8896,-0.21093l0.10547,-0.0176v-2.9443h-1.9248c-0.08203,1.03127 -0.2168,1.8545 -0.4043,2.4697c-0.22265,0.73827 -0.58009,1.42673 -1.0723,2.0654l-1.5645,-1.292c0.57422,-0.74413 0.93165,-1.61427 1.0723,-2.6104c0.07617,-0.53906 0.11426,-1.20996 0.11426,-2.0127v-3.7266h15.17v1.1689h-13.28v2.6982h14.036v1.2393h-1.9951l1.1162,0.73828c-0.66211,0.55078 -1.44434,1.06641 -2.3467,1.5469zM210.8586,202.77524c0.84373,-0.57422 1.51463,-1.11035 2.0127,-1.6084h-3.8408c0.50391,0.64453 1.11327,1.18067 1.8281,1.6084zM201.507,192.76424h3.7441v0.99316h-3.7441zM201.507,194.38144h3.7441v1.0107h-3.7441zM208.6349,192.76424h3.8584v0.99316h-3.8584zM208.6349,194.38144h3.8584v1.0107h-3.8584zM202.465,197.96734h10.942v1.1514h-10.942z"/><path d="M226.371,190.19h6.8906v1.4766h-3.9023v1.459h3.6562v1.4238h-3.6562v2.6191h-7.0752v-2.6191h-2.8828v1.6348c0,2.65427 -0.14063,4.75193 -0.42188,6.293c-0.2168,1.17187 -0.56837,2.2412 -1.0547,3.208l-1.5996,-1.2656c0.44531,-0.9668 0.75,-2.14747 0.91406,-3.542c0.14649,-1.2246 0.21973,-2.78907 0.21973,-4.6934v-5.9941h6.9521v-1.582h1.96zM219.4013,191.6666v1.459h2.8828v-1.459zM224.1562,191.6666v1.459h3.3311v-1.459zM224.1562,194.5494v1.3623h3.3311v-1.3623zM226.1953,203.7779c-1.69333,0.87893 -3.84373,1.5469 -6.4512,2.0039l-0.91406,-1.6172c2.4492,-0.29297 4.36813,-0.7412 5.7568,-1.3447c-1.18947,-0.86133 -2.20607,-1.8838 -3.0498,-3.0674h-1.2129v-1.5293h10.292l0.92285,0.77343c-0.87307,1.3418 -2.11817,2.6045 -3.7353,3.7881c1.38867,0.55664 3.28123,0.96681 5.6777,1.2305l-1.0283,1.6611c-2.29687,-0.31055 -4.3828,-0.94335 -6.2578,-1.8984zM223.5849,199.7525c0.709,0.832 1.57033,1.56443 2.584,2.1973c1.1426,-0.73827 2.02443,-1.4707 2.6455,-2.1973z"/></g><g fill="#ffffff"><path d="M183.952,158.65h4.1748c0.60547,-1.5918 1.17677,-3.33983 1.7139,-5.2441l3.0322,0.62988c-0.625,1.875 -1.2207,3.4131 -1.7871,4.6143h5.6836v2.666h-6.0498v3.5156h5.127v2.5195h-5.127v3.4863h5.127v2.5195h-5.127v3.7207h6.5332v2.7246h-13.55v2.0508h-2.915v-17.461c-0.44922,0.71287 -0.93262,1.42087 -1.4502,2.124l-1.6992,-2.5928c2.23633,-2.82227 3.95507,-6.38193 5.1562,-10.679l3.0322,0.65918c-0.58594,1.80667 -1.21094,3.3887 -1.875,4.7461zM183.70298,177.078h4.2334v-3.7207h-4.2334zM183.70298,170.8378h4.2334v-3.4863h-4.2334zM183.70298,164.8319h4.2334v-3.5156h-4.2334zM172.83398,158.87v-5.5225h3.1787v5.5225h3.0908v2.8564h-3.0908v4.834c0.8496,-0.26367 1.74803,-0.56641 2.6953,-0.90821l0.20508,2.8272c-0.6836,0.26367 -1.6504,0.62501 -2.9004,1.084v9.5508c0,1.0254 -0.23926,1.7383 -0.71777,2.1387c-0.41992,0.35156 -1.12792,0.52734 -2.124,0.52734c-1.12307,0 -2.18753,-0.09766 -3.1934,-0.29297l-0.60059,-3.1494c1.3086,0.18555 2.20217,0.27832 2.6807,0.27832c0.3418,0 0.55664,-0.05859 0.64453,-0.17578c0.08789,-0.11719 0.13183,-0.33203 0.13184,-0.64453v-7.1631c-0.82033,0.26367 -1.9922,0.60547 -3.5156,1.0254l-0.86426,-3.0615c1.96287,-0.43945 3.42283,-0.80079 4.3799,-1.084v-5.7861h-3.9258v-2.8564z"/><path d="M214.582,177.59c1.6504,0.27344 3.45217,0.41016 5.4053,0.41016h7.6025c-0.48828,0.97653 -0.84961,2.0068 -1.084,3.0908h-6.5479c-3.96487,0 -7.09473,-0.47363 -9.3896,-1.4209c-2.22653,-0.918 -4.06247,-2.43167 -5.5078,-4.541c-1.15233,2.74413 -2.56833,5.01953 -4.248,6.8262l-2.2705,-2.7246c2.75393,-2.97853 4.47267,-6.83587 5.1562,-11.572l3.3252,0.51269c-0.3125,1.543 -0.61523,2.82717 -0.9082,3.8525c1.18167,2.0996 2.92483,3.65233 5.2295,4.6582v-11.338h-8.1299v-1.9482h-3.1787v-6.7822h11.221v-3.2666h3.2666v3.2666h11.47v6.7822h-3.1787v1.9482h-8.2324v4.4824h10.034v2.7246h-10.034zM203.244,159.367v3.1934h19.512v-3.1934z"/></g></g></g></svg>