<svg version="1.1" xmlns="http://www.w3.org/2000/svg" xmlns:xlink="http://www.w3.org/1999/xlink" width="224" height="96" viewBox="0,0,224,96"><g transform="translate(-128,-180)"><g data-paper-data="{&quot;isPaintingLayer&quot;:true}" stroke="none" stroke-width="1" stroke-linecap="butt" stroke-linejoin="miter" stroke-miterlimit="10" stroke-dasharray="" stroke-dashoffset="0" style="mix-blend-mode: normal"><path d="M352,266c0,5.54 -4.46,10 -10,10h-204c-5.54,0 -10,-4.46 -10,-10v-86h224z" fill="#1d2a41" fill-rule="evenodd"/><g fill="#ffffff"><path d="M161.41016,244.7803v1.3457h5.27734v1.17578h-5.27734v0.96485h4.58008v1.14843h-4.58008v1.03125h6.00781v1.18946h-1.63281l1.01172,0.69726c-0.62436,0.60614 -1.49936,1.27024 -2.625,1.99024l-0.15821,0.10156c0.85677,0.78387 2.01888,1.43101 3.48633,1.94141l-0.92187,1.38867c-1.5905,-0.67447 -2.86979,-1.52211 -3.83594,-2.54297l0.0957,1.22266c-1.97786,0.69726 -4.17578,1.27145 -6.5957,1.72265l-0.50586,-1.36719c0.41927,-0.064 1.01172,-0.16557 1.77734,-0.30664v-2.50195c-0.78841,0.40107 -1.72722,0.78063 -2.8164,1.14063l-0.7793,-1.2168c2.19205,-0.59247 3.86458,-1.34893 5.01758,-2.26953h-4.88086v-1.18946h5.85742v-1.03125h-4.42969v-1.14843h4.42969v-0.96485h-5.12695v-1.17578h5.12695v-1.3457zM190.71485,245.0596v1.88671h4.0332v1.32032h-4.0332v2.92578c0.1595,0.56053 0.24023,1.05856 0.24023,1.49609c0,1.62233 -0.35873,2.81511 -1.07422,3.57617c-0.7793,0.834 -1.95182,1.40952 -3.51953,1.72852l-0.7793,-1.16211c1.2168,-0.2324 2.11915,-0.56058 2.70703,-0.98438c0.55144,-0.40106 0.92188,-0.94468 1.11329,-1.63281c-0.48763,0.5332 -1.06771,0.79883 -1.74219,0.79883c-0.75651,0 -1.37045,-0.21418 -1.83985,-0.64258c-0.55143,-0.50586 -0.82617,-1.23957 -0.82617,-2.20117c0,-0.50587 0.11979,-0.99349 0.36133,-1.46289c0.1595,-0.30073 0.35546,-0.55142 0.58789,-0.75195c0.53776,-0.45574 1.1836,-0.6836 1.93555,-0.6836c0.47851,0 0.91146,0.11393 1.29883,0.3418v-1.3457h-6.74805v-1.32032h6.74805v-1.88671zM147.40235,245.35463c-0.13672,0.24606 -0.37826,0.64712 -0.72461,1.20312l-0.08789,0.14258h4.81836v1.34766h-5.72852c-0.597,0.82026 -1.16667,1.53121 -1.70898,2.13281c0.86132,-0.515 1.64843,-0.77344 2.35937,-0.77344c1.10287,0 1.82422,0.55471 2.16602,1.66211c1.16666,-0.38733 2.35612,-0.77017 3.56835,-1.14844l0.5879,1.32618l-0.23829,0.0683l-0.67773,0.17774c-1.27604,0.34633 -2.29687,0.6426 -3.0625,0.88867c0.05467,0.59247 0.09437,1.35808 0.11719,2.29688l-1.49805,0.082c-0.00467,-0.54227 -0.01381,-1.13021 -0.02734,-1.76367v-0.13672c-2.09635,0.71546 -3.14453,1.43555 -3.14453,2.16015c0,0.37374 0.26888,0.62896 0.80664,0.76563c0.51953,0.13216 1.44922,0.19726 2.78906,0.19726c1.23502,0 2.53255,-0.06967 3.89062,-0.21093l0.16407,1.45507c-1.31706,0.10029 -2.68295,0.15039 -4.09571,0.15039c-1.74088,0 -2.97721,-0.13215 -3.71093,-0.39648c-0.9069,-0.32813 -1.36133,-0.91733 -1.36133,-1.76953c0,-0.72007 0.32226,-1.3568 0.96484,-1.9082c0.66537,-0.56967 1.83659,-1.15754 3.51367,-1.76368c-0.09114,-0.35093 -0.21289,-0.59701 -0.36328,-0.73828c-0.16862,-0.15948 -0.39192,-0.23828 -0.66992,-0.23828c-0.45117,0 -1.01758,0.16992 -1.70117,0.51172c-0.8431,0.41927 -1.7487,1.05147 -2.71485,1.89453l-0.9082,-1.03906c1.41732,-1.31707 2.52605,-2.61135 3.32813,-3.88281h-2.78125v-1.34766h3.68359c0.4056,-0.64713 0.71419,-1.16792 0.92383,-1.56445zM179.67578,245.53814v1.34766h-9.88476v-1.34766zM205.29688,245.53814l0.73047,1.13477c-2.3698,1.44926 -4.42188,2.7663 -6.15821,3.95117c1.12109,-0.4694 2.24675,-0.70313 3.37696,-0.70313c1.01627,0 1.86393,0.16078 2.54296,0.48438c0.62891,0.30073 1.11784,0.71093 1.46875,1.23047c0.36458,0.55146 0.54688,1.18492 0.54688,1.90039c0,1.0026 -0.3418,1.84116 -1.02539,2.51562c-0.4694,0.4694 -1.07097,0.82488 -1.80469,1.06641c-0.96159,0.31447 -2.01432,0.47265 -3.1582,0.47265c-1.31705,0 -2.28776,-0.24482 -2.91211,-0.73242c-0.48763,-0.3828 -0.73047,-0.89905 -0.73047,-1.55078c0,-0.4922 0.17774,-0.9297 0.5332,-1.3125c0.53776,-0.57873 1.26367,-0.86914 2.17969,-0.86914c0.9707,0 1.7487,0.32685 2.33203,0.97852c0.42383,0.47393 0.72916,1.10871 0.91602,1.90625c1.40364,-0.4466 2.10547,-1.27148 2.10547,-2.47461c0,-0.91147 -0.38152,-1.58269 -1.14258,-2.01563c-0.51041,-0.29166 -1.15756,-0.4375 -1.94141,-0.4375c-1.17122,0 -2.22851,0.16078 -3.17187,0.48438c-0.69727,0.23693 -1.63282,0.80986 -2.8086,1.71679l-0.96484,-1.1621c1.26692,-1.0938 2.71029,-2.20448 4.32812,-3.33008c1.11654,-0.77474 2.10092,-1.40945 2.95313,-1.90625h-5.86524v-1.34766zM181.32227,249.24322v1.36133h-5.75586v6.0625c0,0.5514 -0.11068,0.92837 -0.33399,1.1289c-0.20963,0.18224 -0.61523,0.27344 -1.21679,0.27344c-0.6836,0 -1.33399,-0.04436 -1.94922,-0.13086l-0.29297,-1.4414c0.63802,0.10484 1.2487,0.15624 1.83203,0.15624c0.19596,0 0.31901,-0.03326 0.36914,-0.10156c0.03647,-0.05933 0.05469,-0.15825 0.05469,-0.29492v-5.65234h-5.87891v-1.36133zM187.22852,250.70611c-0.5013,0.31447 -0.75196,0.79749 -0.75196,1.44922c0,0.41013 0.09115,0.75653 0.27344,1.03906c0.25521,0.39193 0.63216,0.58789 1.12891,0.58789c0.45116,0 0.80794,-0.20182 1.07226,-0.60742c0.18685,-0.28713 0.28125,-0.62767 0.28125,-1.01953v-0.25196c0,-0.29166 -0.06835,-0.55017 -0.20507,-0.77343c-0.25521,-0.41927 -0.62435,-0.62891 -1.10743,-0.62891c-0.24609,0 -0.47721,0.06841 -0.6914,0.20508zM163.16602,253.52252c0.8112,-0.57874 1.52214,-1.20766 2.13281,-1.88672h-3.23242c0.29166,0.69726 0.65755,1.32618 1.09961,1.88672zM160.67188,251.65731c-0.45574,0.5332 -1.00586,1.01168 -1.64844,1.43555v3.06836c1.12565,-0.25067 2.25586,-0.54234 3.39062,-0.875l0.31446,-0.0879c-0.93424,-1.03447 -1.61914,-2.21482 -2.05664,-3.54102zM181.18555,255.92294l-1.38672,0.93554c-0.94336,-1.99613 -1.76367,-3.45572 -2.46094,-4.38086l1.28516,-0.76562c1.0026,1.28973 1.85612,2.69334 2.5625,4.21094zM171.86133,252.45028c-0.69726,1.95506 -1.57357,3.49089 -2.63086,4.60742l-1.16211,-1.0332c0.98437,-1.02993 1.77734,-2.39842 2.37891,-4.10742zM200.90039,254.34287c-0.52409,0 -0.90234,0.16733 -1.13476,0.5c-0.10938,0.1504 -0.16407,0.31124 -0.16407,0.48437c0,0.36007 0.25522,0.63219 0.76563,0.81446c0.36915,0.1276 0.86459,0.1914 1.48437,0.1914c0.26433,0 0.58334,-0.018 0.95704,-0.0547c-0.32357,-1.28966 -0.9603,-1.93554 -1.90821,-1.93554z" fill-rule="nonzero"/><path d="M269.752,227.49126c-0.33724,1.25326 -0.65625,2.25588 -0.95703,3.00781v10.08398h-1.39453v-6.98633c-0.28255,0.51954 -0.60612,1.05729 -0.9707,1.61329l-0.64258,-1.59961c0.62435,-0.95707 1.17123,-2.11913 1.64062,-3.48633c0.278,-0.79753 0.57292,-1.79107 0.88282,-2.98047zM146.10357,227.53223c-0.1276,0.19593 -0.25977,0.39189 -0.39649,0.58789h5.12696l0.83398,0.72461c-0.73373,0.92513 -1.41862,1.67706 -2.05664,2.25586c-0.30534,0.28253 -0.75651,0.66083 -1.35352,1.13477c1.46745,0.73373 3.24024,1.31706 5.31836,1.75l-0.74609,1.44336c-0.64713,-0.16407 -1.11654,-0.29172 -1.4082,-0.38282v5.53711h-1.56446v-0.82812h-6.16015v0.82812h-1.55078v-5.23047c-0.1914,0.07294 -0.62305,0.22331 -1.29297,0.45118l-0.90821,-1.36719c2.1556,-0.4694 4.07552,-1.17707 5.76172,-2.125c-0.79297,-0.5924 -1.50977,-1.21678 -2.15234,-1.87305c-0.67448,0.56967 -1.37045,1.05729 -2.08594,1.46289l-1.09375,-1.01172c1.76367,-0.88406 3.17057,-2.12368 4.21875,-3.71875zM275.66615,227.33499c-0.0182,0.1686 -0.07618,0.5788 -0.17188,1.23046h3.75977v1.18946h-3.97852c-0.0046,0.03197 -0.0105,0.06847 -0.0195,0.10937c-0.05013,0.2552 -0.10933,0.54687 -0.17773,0.875h3.16406v6.97266h-6.19922v-6.97266h1.5918l0.10937,-0.6289l0.0273,-0.17774l0.0273,-0.17773h-3.92969v-1.18946h4.10742c0.041,-0.30986 0.09567,-0.75979 0.16407,-1.34765zM185.02154,227.4521c-0.10026,0.30074 -0.21289,0.59373 -0.33594,0.88086h3.79492v1.10742h-2.25586c-0.08203,0.3418 -0.18555,0.68681 -0.30859,1.03321h2.82422v1.13476h-3.35743c-0.20052,0.48767 -0.43293,0.94926 -0.69726,1.38672h1.23047c0.20508,-0.48306 0.35416,-0.92189 0.44531,-1.31836l1.23633,0.36914c-0.13216,0.319 -0.28255,0.63476 -0.45117,0.94922h1.53906v0.97852h-1.67578v0.82617h1.38086v0.9375h-1.38086v0.83984h1.38086v0.92383h-1.38086v0.93555h1.73047v0.63672c0.82943,-0.597 1.3125,-1.68164 1.44921,-3.25391h-1.13476v-8.00586h5.55664v8.00586h-1.3125v2.95313c0,0.14126 0.03646,0.22786 0.10938,0.25976c0.07747,0.0367 0.18685,0.0547 0.32812,0.0547c0.29167,0 0.46484,-0.10032 0.51953,-0.30078c0.07291,-0.26434 0.11259,-0.82812 0.11719,-1.68946l1.16211,0.4043c-0.03647,1.29427 -0.13998,2.08857 -0.3086,2.38477c-0.20052,0.3464 -0.72135,0.51953 -1.56445,0.51953c-0.56966,0 -0.94791,-0.03316 -1.13476,-0.10156c-0.33268,-0.123 -0.5,-0.41341 -0.5,-0.86914v-3.61524h-0.51172l-0.0078,0.0879c-0.0957,1.18947 -0.33399,2.13609 -0.71679,2.83789c-0.4056,0.74287 -1.07422,1.3639 -2.00391,1.86524l-0.8125,-1.09375h-3.52734v0.85547h-1.3125v-5.18165c-0.21876,0.2552 -0.44988,0.49675 -0.69141,0.72461l-0.66992,-1.20312c0.97982,-0.90687 1.74544,-1.94138 2.29687,-3.10352h-1.9746v-1.13476h1.16796l-0.98437,-0.72461c0.63346,-0.7018 1.10286,-1.5345 1.4082,-2.4961zM241.02174,227.4521c-0.10026,0.30074 -0.21289,0.59373 -0.33594,0.88086h3.79492v1.10742h-2.25586c-0.08203,0.3418 -0.18555,0.68681 -0.30859,1.03321h2.82421v1.13476h-3.35742c-0.20052,0.48767 -0.43293,0.94926 -0.69726,1.38672h1.23047c0.20508,-0.48306 0.35421,-0.92189 0.44531,-1.31836l1.23633,0.36914c-0.13216,0.319 -0.28256,0.63476 -0.45118,0.94922h1.53907v0.97852h-1.67578v0.82617h1.38086v0.9375h-1.38086v0.83984h1.38086v0.92383h-1.38086v0.93555h1.73046v0.63672c0.82944,-0.597 1.31251,-1.68164 1.44922,-3.25391h-1.13476v-8.00586h5.55664v8.00586h-1.3125v2.95313c0,0.14126 0.03647,0.22786 0.10937,0.25976c0.07748,0.0367 0.18686,0.0547 0.32813,0.0547c0.29166,0 0.46483,-0.10032 0.51953,-0.30078c0.07289,-0.26434 0.11219,-0.82812 0.11719,-1.68946l1.16211,0.4043c-0.03647,1.29427 -0.13998,2.08857 -0.3086,2.38477c-0.20052,0.3464 -0.72135,0.51953 -1.56445,0.51953c-0.56966,0 -0.94791,-0.03316 -1.13477,-0.10156c-0.33268,-0.123 -0.5,-0.41341 -0.5,-0.86914v-3.61524h-0.51171l-0.008,0.0879c-0.0957,1.18947 -0.33399,2.13609 -0.71679,2.83789c-0.4056,0.74287 -1.07422,1.3639 -2.00391,1.86524l-0.8125,-1.09375h-3.52734v0.85547h-1.3125v-5.18165c-0.21876,0.2552 -0.44988,0.49675 -0.69141,0.72461l-0.66992,-1.20312c0.97982,-0.90687 1.74544,-1.94138 2.29687,-3.10352h-1.9746v-1.13476h1.16796l-0.98437,-0.72461c0.63346,-0.7018 1.10286,-1.5345 1.4082,-2.4961zM162.8321,227.2803v1.28515h3.41797v2.13282h1.18945v1.10742h-1.18945v2.11133h-3.41797v0.97851h3.72461v1.1211h-3.72461v1.0039h4.28516v1.20313h-4.28516v2.35937h-1.4707v-2.35937h-3.92969v-1.20313h3.92969v-1.0039h-3.3418v-1.1211h3.3418v-0.97851h-2.95312v-1.03907h2.95312v-1.07226h-4.10156v-1.10742h4.10156v-1.05274h-2.88477v-1.08008h2.88477v-1.28515zM177.36531,227.2803v1.90039h3.13671l0.71094,0.61523c-0.28255,0.9388 -0.61198,1.79691 -0.99023,2.57618l-1.38867,-0.41016c0.30078,-0.4922 0.52408,-0.98569 0.66992,-1.48242h-2.13867v2.41211h2.26953l0.68359,0.58789c-0.54232,1.62693 -1.25782,3.00324 -2.14648,4.1289c0.87955,0.62434 2.00065,1.15755 3.36328,1.59961l-0.76563,1.36719c-1.43554,-0.56513 -2.62044,-1.21814 -3.55468,-1.96094c-0.96614,0.86133 -2.06315,1.54498 -3.28907,2.05078l-0.95703,-1.08007c1.26237,-0.44667 2.35157,-1.07426 3.26758,-1.88086c-1.03906,-1.14847 -1.7832,-2.35158 -2.23438,-3.60938h-0.26757c-0.02734,1.23047 -0.13671,2.29556 -0.32813,3.19336c-0.23698,1.1074 -0.68034,2.166 -1.33203,3.17773l-1.10742,-1.01171c0.60156,-0.9798 0.99479,-2.07485 1.18164,-3.28711c0.11849,-0.75654 0.17773,-1.60745 0.17773,-2.55078v-4.43555h3.58204v-1.90039zM217.16413,227.2803v1.46875h5.46875v1.21679h-5.46875v1.45704h4.68165v4.55273h-10.17774v-4.55273h3.95703v-4.14258zM157.64265,229.43261l-1.10742,1.09375c-0.56966,-0.7838 -1.25,-1.50521 -2.04297,-2.16601l1.05859,-0.99805c0.85677,0.65627 1.55404,1.34571 2.0918,2.07031zM199.33601,229.32327l-1.08008,1.0664c-0.5332,-0.72006 -1.17448,-1.39589 -1.92187,-2.02929l1.02539,-0.98438c0.70182,0.5104 1.36133,1.15887 1.97656,1.94727zM255.33601,229.32327l-1.08008,1.0664c-0.53321,-0.72006 -1.17448,-1.39589 -1.92188,-2.02929l1.0254,-0.98438c0.70182,0.5104 1.36133,1.15887 1.97656,1.94727zM208.93952,227.4502v11.70312c0,0.59247 -0.18228,0.9707 -0.54687,1.13477c-0.20963,0.09112 -0.52995,0.13672 -0.96289,0.13672c-0.60612,0 -1.15755,-0.03648 -1.6543,-0.10938l-0.24023,-1.38671c0.71094,0.07297 1.24414,0.10937 1.59961,0.10937c0.18229,0 0.29622,-0.03647 0.34179,-0.10937c0.03187,-0.05934 0.04883,-0.17655 0.04883,-0.34961v-11.12891zM264.93955,227.4502v11.70312c0,0.59247 -0.18229,0.9707 -0.54687,1.13477c-0.20963,0.09112 -0.52995,0.13672 -0.96289,0.13672c-0.60612,0 -1.15755,-0.03648 -1.6543,-0.10938l-0.24023,-1.38671c0.71094,0.07297 1.24414,0.10937 1.59961,0.10937c0.18229,0 0.29619,-0.03647 0.34179,-0.10937c0.0318,-0.05934 0.0488,-0.17655 0.0488,-0.34961v-11.12891zM171.97859,229.63187l-1.14844,1.16211c-0.60157,-0.81573 -1.33984,-1.58141 -2.21484,-2.29687l1.0664,-1.03321c0.85221,0.61527 1.61784,1.33857 2.29688,2.16797zM204.17585,227.82718v9.37891h-4.29297v-9.37891zM260.17585,227.82718v9.37891h-4.29297v-9.37891zM235.02546,229.44046c1.34895,1.03454 2.02344,2.49874 2.02344,4.39454c0,3.17646 -1.60548,5.19077 -4.81836,6.04296l-0.80664,-1.37304c2.67512,-0.67447 4.01172,-2.20897 4.01172,-4.60157c0,-1.04359 -0.26888,-1.94136 -0.80664,-2.69335c-0.60156,-0.8476 -1.51758,-1.39122 -2.74805,-1.63282c-0.26888,2.1146 -0.63476,3.84632 -1.09961,5.19532c-0.31901,0.94333 -0.7155,1.83334 -1.18945,2.67187c-0.68359,1.194 -1.46159,1.79102 -2.33203,1.79102c-0.64714,0 -1.22266,-0.29167 -1.72852,-0.875c-0.32356,-0.36914 -0.58659,-0.82165 -0.78711,-1.35938c-0.26432,-0.69726 -0.39648,-1.44793 -0.39648,-2.25c0,-1.29886 0.35872,-2.49416 1.07422,-3.58789c0.7246,-1.11653 1.66471,-1.92773 2.82226,-2.43359c0.8431,-0.36914 1.76823,-0.55469 2.77539,-0.55469c1.57227,0 2.90756,0.42256 4.00586,1.26562zM206.47273,228.33304v8.80469h-1.36133v-8.80469zM262.47273,228.33304v8.80469h-1.36133v-8.80469zM190.35359,230.19242h2.93164v-1.17578h-2.93164zM246.35359,230.19242h2.93164v-1.17578h-2.93164zM201.11335,230.58105h1.85938v-1.53711h-1.85938zM257.11335,230.58105h1.85938v-1.53711h-1.85938zM144.62115,229.41887c-0.0182,0.0227 -0.0397,0.0457 -0.0625,0.0684c-0.0228,0.0227 -0.04689,0.0469 -0.07422,0.0742c0.71549,0.68813 1.54623,1.33981 2.49414,1.95508v0.002c0.95703,-0.66087 1.77148,-1.36134 2.4414,-2.09961h-4.79882zM183.29888,230.47365h1.25c0.11849,-0.32814 0.23112,-0.67314 0.33594,-1.03321h-0.79297c-0.21875,0.3464 -0.48308,0.69141 -0.79297,1.03321zM239.29888,230.47365h1.25c0.11849,-0.32814 0.23112,-0.67314 0.33594,-1.03321h-0.79297c-0.21875,0.3464 -0.48308,0.69141 -0.79297,1.03321zM228.37505,230.17087c-0.34635,0.22327 -0.6914,0.51954 -1.0332,0.88868c-0.94791,1.04819 -1.42188,2.26366 -1.42188,3.64453c0,1.00713 0.20053,1.79556 0.60157,2.36523c0.24609,0.35093 0.49088,0.52539 0.73242,0.52539c0.32812,0 0.69726,-0.36134 1.10742,-1.08594c1.0026,-1.76366 1.68164,-4.09246 2.03711,-6.98632c-0.80664,0.09113 -1.48112,0.30663 -2.02344,0.64843zM162.83208,230.69822h1.98828v-1.05274h-1.98828zM173.74224,232.89158h2.16602v-2.41211h-2.16602zM198.97271,232.80955l-1.09375,1.08007c-0.74283,-0.9342 -1.40039,-1.65429 -1.97461,-2.16015l1.05273,-1.00391c0.62435,0.50587 1.29558,1.19992 2.01563,2.08399zM254.97271,232.80955l-1.09375,1.08007c-0.74284,-0.9342 -1.4004,-1.65429 -1.97461,-2.16015l1.05273,-1.00391c0.62435,0.50587 1.29557,1.19992 2.01563,2.08399zM171.32818,232.95994l-1.1211,1.13476c-0.65169,-0.83853 -1.3776,-1.58725 -2.17968,-2.24805l1.05273,-1.02539c0.78841,0.56054 1.53711,1.27281 2.24805,2.13868zM157.19146,232.95996l-1.13477,1.12109c-0.6608,-0.8704 -1.35026,-1.61004 -2.07031,-2.2207l1.05273,-1.02539c0.73373,0.55593 1.45053,1.26366 2.15235,2.125zM190.35357,232.40722h2.93164v-1.16211h-2.93164zM246.35357,232.40722h2.93164v-1.16211h-2.93164zM201.11333,233.22753h1.85938v-1.53906h-1.85938zM257.11333,233.22753h1.85938v-1.53906h-1.85938zM162.83208,232.87792h1.98828v-1.07226h-1.98828zM273.41018,232.74124h3.41797v-0.92188h-3.41797zM271.13283,231.94241v6.70508h8.40821v1.23046h-8.40821v0.70508h-1.42187v-8.64062zM213.17776,234.79983h7.1582v-2.21484h-7.1582zM146.93752,233.1514c-1.04362,0.6426 -2.34244,1.26238 -3.89648,1.85938h8.26562l-0.17773,-0.0547c-1.65885,-0.52407 -3.05664,-1.12562 -4.19141,-1.80469zM190.35354,234.67092h2.93164v-1.19726h-2.93164zM246.35354,234.67092h2.93164v-1.19726h-2.93164zM273.41018,234.64163h3.41797v-0.90821h-3.41797zM184.44729,234.79983h1.29883v-0.82617h-1.29883zM240.44729,234.79983h1.29883v-0.82617h-1.29883zM177.12502,236.7471c0.68815,-0.8704 1.16536,-1.75455 1.42969,-2.65235h-3.27539c0.42838,0.96613 1.04362,1.85028 1.8457,2.65235zM201.1133,236.00295h1.85938v-1.72265h-1.85938zM257.1133,236.00295h1.85938v-1.72265h-1.85938zM199.39065,235.40139c-0.52865,1.84567 -1.23828,3.59567 -2.12696,5.25l-1.25,-1.12109c0.80209,-1.2852 1.54037,-2.92909 2.21485,-4.92969zM255.39065,235.40139c-0.52864,1.84567 -1.23829,3.59567 -2.12696,5.25l-1.25,-1.12109c0.80209,-1.2852 1.54037,-2.92909 2.21485,-4.92969zM157.65627,235.53811c-0.56966,1.8138 -1.28516,3.4831 -2.14648,5.00977l-1.28516,-1.01758c0.875,-1.431 1.6211,-3.04299 2.23633,-4.83399zM171.69729,235.68069c-0.61068,1.8184 -1.34896,3.46222 -2.21485,4.92969l-1.29882,-1.10743c0.85677,-1.28513 1.61653,-2.84371 2.27734,-4.67578zM273.41016,236.63186h3.41797v-0.99805h-3.41797zM184.44727,236.57717h1.29883v-0.83984h-1.29883zM240.44727,236.57717h1.29883v-0.83984h-1.29883zM143.69727,238.43655h6.16015v-2.12695h-6.16015zM223.49414,239.61233l-1.49804,0.68945c-0.36003,-0.96613 -0.89454,-1.95639 -1.60547,-2.97265l1.33984,-0.62891c0.62891,0.7656 1.2168,1.73631 1.76367,2.91211zM212.98047,237.45803c-0.36914,1.276 -0.86458,2.32288 -1.48437,3.13867l-1.46875,-0.88281c0.65169,-0.79293 1.14974,-1.71352 1.49609,-2.76172zM219.89844,239.70022l-1.53906,0.57422c-0.28256,-0.92513 -0.67448,-1.86848 -1.17578,-2.83008l1.36718,-0.49219c0.5332,0.78387 0.98307,1.69985 1.34766,2.74805zM216.39844,240.04983l-1.62695,0.44336c-0.1595,-1.23953 -0.3418,-2.23761 -0.54688,-2.99414l1.46875,-0.30664c0.34635,1.0026 0.58203,1.95509 0.70508,2.85742zM204.91992,239.50294l-1.20312,0.77149c-0.32357,-0.87953 -0.7487,-1.69659 -1.27735,-2.45313l1.03907,-0.58789c0.56054,0.6608 1.04036,1.41734 1.4414,2.26953zM260.91992,239.50294l-1.20312,0.77149c-0.32357,-0.87953 -0.7487,-1.69659 -1.27735,-2.45313l1.03907,-0.58789c0.56054,0.6608 1.04036,1.41734 1.4414,2.26953zM201.71485,237.95018c-0.45573,1.15753 -0.99349,2.02346 -1.61329,2.59766l-1.08789,-0.88086c0.6836,-0.65167 1.18816,-1.4355 1.51172,-2.35157zM257.71484,237.95018c-0.45572,1.15753 -0.99348,2.02346 -1.61328,2.59766l-1.08789,-0.88086c0.68359,-0.65167 1.18815,-1.4355 1.51172,-2.35157zM184.44727,238.43651h1.29883v-0.93555h-1.29883zM240.44727,238.43651h1.29883v-0.93555h-1.29883z" fill-rule="nonzero"/><path d="M148.98175,188.754c0.39537,-0.002 0.7615,0.20809 0.95898,0.55078l8.8926,15.408c0.19643,0.34054 0.19632,0.76006 -0.00029,1.1005c-0.19661,0.34044 -0.55983,0.55006 -0.95283,0.5499h-17.783c-0.393,0.00017 -0.75622,-0.20946 -0.95283,-0.5499c-0.19661,-0.34044 -0.19672,-0.75996 -0.00029,-1.1005l8.8926,-15.408c0.19503,-0.33846 0.55482,-0.54809 0.94531,-0.55078zM145.2751,198.49234c1.481,-0.85601 2.8269,-1.23693 3.9648,-1.1309c1.166,0.1086 2.10672,0.7414 2.6836,1.8242c0.0432,0.0816 0.025,0.18215 -0.0441,0.24337c-0.0691,0.0612 -0.17114,0.0672 -0.24691,0.0144c-0.9726,-0.68049 -1.7415,-0.51264 -2.1973,0.008c-0.2889,0.32985 -0.3553,0.74376 -0.23438,1.1543c0.12094,0.41052 0.4386,0.81153 0.93555,1.0703c1.1349,0.59097 3.0356,0.70616 4.5527,0.31445c0.0103,-0.002 0.0207,-0.003 0.0312,-0.004l-5.7305,-9.9297z" fill-rule="evenodd"/><path d="M175.74219,198.1211v1.11719h4.25781v1.28125h-4.25781v1.14844h4.89844v1.375h-4.89844v2.69531h-1.67969v-2.69531h-4.49219v-1.375h4.49219v-1.14844h-3.82031v-1.28125h3.82031v-1.11719h-3.375v-1.1875h3.375v-1.22656h-4.6875v-1.26562h4.6875v-1.20313h-3.29687v-1.23437h3.29688v-1.46875h1.67969v1.46875h3.90625v2.4375h1.35938v1.26562h-1.35937v2.41406zM175.74219,196.9336h2.27344v-1.22656h-2.27344zM175.74219,194.44142h2.27344v-1.20313h-2.27344zM168.54688,194.2461c-0.65104,-0.89583 -1.42969,-1.72135 -2.33594,-2.47656l1.21094,-1.14062c0.97917,0.75 1.77604,1.53906 2.39063,2.36718zM168,198.3086c-0.75521,-0.99479 -1.54427,-1.84114 -2.36719,-2.53906l1.20313,-1.17187c0.83854,0.63541 1.65885,1.44531 2.46094,2.42968zM165.90625,204.53517c1,-1.63542 1.85156,-3.47657 2.55469,-5.52344l1.36719,0.96094c-0.65104,2.07291 -1.46875,3.98177 -2.45312,5.72656zM193.27344,202.33985c1.00521,0.71355 2.28646,1.32292 3.84375,1.82813l-0.875,1.5625c-1.64062,-0.64583 -2.99479,-1.39323 -4.0625,-2.24219c-1.10417,0.98437 -2.35677,1.76562 -3.75781,2.34375l-1.09375,-1.23437c1.44271,-0.51042 2.6875,-1.22657 3.73438,-2.14844c-1.1875,-1.3125 -2.03906,-2.6875 -2.55469,-4.125h-0.30469c-0.03125,1.40625 -0.15625,2.62239 -0.375,3.64844c-0.27083,1.26562 -0.77865,2.47656 -1.52344,3.63281l-1.26562,-1.15625c0.6875,-1.11979 1.13802,-2.3724 1.35156,-3.75781c0.13542,-0.86459 0.20313,-1.83594 0.20313,-2.91407v-5.07031h4.09375v-2.17187h1.66406v2.17187h3.58594l0.8125,0.70313c-0.32292,1.07291 -0.70052,2.05468 -1.13281,2.94531l-1.58594,-0.46875c0.34375,-0.5625 0.59896,-1.1276 0.76563,-1.69531h-2.44531v2.75781h2.59375l0.78125,0.67187c-0.61979,1.85938 -1.4375,3.4323 -2.45312,4.71875zM192.07813,201.35548c0.78646,-0.99479 1.33073,-2.00521 1.63281,-3.03125h-3.74219c0.48958,1.10417 1.19271,2.11458 2.10938,3.03125zM190.68751,194.19142h-2.47656v2.75781h2.47656zM184.88282,194.55079c-0.6875,-0.93229 -1.53125,-1.80729 -2.53125,-2.625l1.21875,-1.17969c0.97396,0.70313 1.84896,1.52865 2.625,2.47657zM184.17188,198.32423c-0.74479,-0.95833 -1.57552,-1.8151 -2.49219,-2.57031l1.20313,-1.17188c0.90104,0.64063 1.75781,1.45573 2.57031,2.44531zM181.85938,204.50392c0.97917,-1.46875 1.84635,-3.25 2.60156,-5.34375l1.41406,0.97656c-0.69792,2.07813 -1.54167,3.95573 -2.53125,5.63281zM201.26563,193.51173v12.22656h-1.63281v-15.20312h1.63281v2.36718l0.75,-0.625c0.45312,0.78646 0.8125,1.54427 1.07813,2.27344l-1.0625,1.05469c-0.27604,-0.88021 -0.53125,-1.57812 -0.76562,-2.09375zM208.46094,191.57423h4.04688v1.17187h-4.04687v0.75h3.49219v1.11719h-3.49219v0.77344h4.5625v1.25h-10.53125v-1.25h4.35156v-0.77344h-3.39062v-1.11719h3.39063v-0.75h-3.85156v-1.17187h3.85156v-1.03906h1.61719zM211.71094,197.46485v6.85938c0,0.47917 -0.11458,0.82812 -0.34375,1.04687c-0.22396,0.21355 -0.60677,0.32032 -1.14844,0.32032c-0.64063,0 -1.29948,-0.04427 -1.97656,-0.13282l-0.22656,-1.40625c0.69271,0.08333 1.24219,0.125 1.64844,0.125c0.20833,0 0.33333,-0.05208 0.375,-0.15625c0.02604,-0.06247 0.03906,-0.15882 0.03906,-0.28906v-1.00781h-4.79687v2.91406h-1.63281v-8.27344zM205.28126,198.61329v0.91406h4.79688v-0.91406zM205.28126,200.67579v0.96094h4.79688v-0.96094zM197.42188,198.69142c0.23437,-1.08333 0.40365,-2.48438 0.50781,-4.20313l0.03906,-0.64062l1.32813,0.125c-0.0625,2.22917 -0.24479,4.03906 -0.54687,5.42968zM216.88282,192.16798v-1.63281h1.63281v1.63281h2.42969v1.375h-2.42969v1.34375h2.76563v1.39062h-0.92969c-0.16667,0.61979 -0.39062,1.27604 -0.67187,1.96875h1.50781v1.35938h-2.67187v1.44531h2.57031v1.39063h-2.57031v3.29687h-1.63281v-3.29687h-2.75781v-1.39063h2.75781v-1.44531h-2.88281v-1.35938h1.4375c-0.16667,-0.69271 -0.36979,-1.34896 -0.60937,-1.96875h-1.14844v-1.39062h3.20313v-1.34375h-2.54687v-1.375zM218.82813,196.27735h-2.48437c0.17708,0.49479 0.36719,1.15104 0.57031,1.96875h1.29688c0.27083,-0.66667 0.47656,-1.32292 0.61719,-1.96875zM228.3047,191.09767v3.65625c0,0.45312 -0.08333,0.77343 -0.25,0.96093c-0.19792,0.22396 -0.61198,0.33594 -1.24219,0.33594c-0.61458,0 -1.22917,-0.02603 -1.84375,-0.0781l-0.26562,-1.40625c0.86458,0.09375 1.41406,0.14062 1.64844,0.14062c0.24479,0 0.36719,-0.10677 0.36719,-0.32031v-1.88281h-3.42187v4.53906h4.42969l0.92969,0.79687c-0.28125,1.65625 -0.79427,3.13542 -1.53906,4.4375l-0.08594,0.15625c0.57292,0.66146 1.28906,1.26563 2.14844,1.8125l-0.875,1.46094c-0.82292,-0.53125 -1.55729,-1.16666 -2.20313,-1.90625c-0.55729,0.70833 -1.1849,1.375 -1.88281,2l-0.92187,-1.28125v1.21875h-1.58594v-14.64062zM223.29688,198.44923v5.90625c0.64062,-0.4375 1.25781,-1.05208 1.85156,-1.84375c-0.79687,-1.22917 -1.35677,-2.58333 -1.67969,-4.0625zM226.01563,201.12892c0.46354,-0.89583 0.76562,-1.78906 0.90625,-2.67969h-2.01562c0.25521,1 0.625,1.89323 1.10938,2.67969zM241.69531,192.62892l1.11719,0.91406c-0.72917,3.33333 -1.91146,5.91406 -3.54687,7.74219c-0.90625,1.01041 -2.07813,1.89583 -3.51563,2.65625c-1.02083,0.53645 -2.11719,0.96354 -3.28906,1.28125l-0.90625,-1.53907c2.67708,-0.69791 4.7552,-1.8125 6.23437,-3.34375c-1.21875,-1.09375 -2.5625,-2.0625 -4.03125,-2.90625l1.02344,-1.26562c1.43229,0.74479 2.79427,1.66146 4.08594,2.75c1.01563,-1.625 1.65365,-3.19792 1.91406,-4.71875h-5.5c-1.26041,1.96354 -2.74479,3.46614 -4.45312,4.50781l-1.14844,-1.24219c1.65104,-0.99479 3.00781,-2.30989 4.07031,-3.94531c0.54687,-0.83333 0.97135,-1.73177 1.27344,-2.69531l1.69531,0.41406c-0.17187,0.46875 -0.36458,0.9323 -0.57812,1.39063zM244.67188,192.98048h10.33593l1.67969,1.46875c-0.20313,2.11458 -0.55729,3.77083 -1.0625,4.96875c-0.73958,1.76041 -1.96614,3.12239 -3.67969,4.08594c-1.13541,0.64583 -2.69531,1.20312 -4.67968,1.67187l-0.89844,-1.58594c1.73958,-0.31771 3.11718,-0.72916 4.13281,-1.23437c1.65625,-0.81771 2.82813,-2.0625 3.51563,-3.73438c0.42708,-1.04167 0.67187,-2.3776 0.73437,-4.00781h-10.07812zM255.89063,193.38673c-0.32292,-0.98959 -0.73438,-1.89844 -1.23438,-2.72656l1.25,-0.28907c0.4375,0.60938 0.85156,1.47917 1.24219,2.60938zM258.125,193.06642c-0.29167,-0.90105 -0.71615,-1.77084 -1.27344,-2.60938l1.17969,-0.28906c0.53646,0.69791 0.97917,1.52343 1.32812,2.47656z" fill-rule="nonzero"/></g></g></g></svg>