<svg version="1.1" xmlns="http://www.w3.org/2000/svg" xmlns:xlink="http://www.w3.org/1999/xlink" width="208" height="32" viewBox="0,0,208,32"><g transform="translate(-240,-164)"><g data-paper-data="{&quot;isPaintingLayer&quot;:true}" fill-rule="nonzero" stroke="none" stroke-linecap="butt" stroke-linejoin="miter" stroke-miterlimit="10" stroke-dasharray="" stroke-dashoffset="0" style="mix-blend-mode: normal"><path d="M240,196v-32h208v32z" fill="none" stroke-width="0"/><path d="M254.1,173.78l1.7578,1.7383c-0.73567,3.7044 -2.05403,6.60803 -3.9551,8.7109c-1.7904,1.9792 -4.4857,3.50913 -8.0859,4.5898l-1.2207,-1.9727c3.14453,-0.79427 5.58267,-2.0638 7.3144,-3.8086c1.89453,-1.90753 3.13803,-4.32617 3.7305,-7.2559h-6.4844c-1.27607,1.90107 -2.8353,3.47333 -4.6777,4.7168l-1.582,-1.6211c1.4844,-0.95053 2.6986,-1.98893 3.6426,-3.1152c1.06773,-1.28907 1.9206,-2.85157 2.5586,-4.6875l2.0996,0.58594c-0.27344,0.7682 -0.57292,1.47457 -0.89844,2.1191zM254.73477,173.97531c-0.39063,-1.08073 -0.97006,-2.16797 -1.7383,-3.2617l1.6406,-0.37109c0.66407,0.84633 1.25653,1.9173 1.7774,3.2129zM257.67417,173.85812c-0.41667,-1.22393 -0.9896,-2.3828 -1.7188,-3.4766l1.6016,-0.3418c0.66407,0.90493 1.237,2.0052 1.7188,3.3008z" fill="#ffffff" stroke-width="1"/><path d="M260.18,172.5h15.303l1.2598,1.0644c-0.36458,1.36067 -0.83985,2.49673 -1.4258,3.4082c-1.10027,1.72527 -2.7474,3.01433 -4.9414,3.8672l-1.2305,-1.6797c1.51693,-0.45573 2.7767,-1.2728 3.7793,-2.4512c0.59245,-0.6966 1.00585,-1.43227 1.2402,-2.207h-13.984zM266.4398,176.7188h2.2363v1.6797c0,2.51953 -0.27995,4.46613 -0.83984,5.8398c-0.7096,1.7448 -2.0898,3.16407 -4.1406,4.2578l-1.6113,-1.6992c1.41273,-0.67053 2.44463,-1.4713 3.0957,-2.4023c0.5013,-0.72267 0.83008,-1.48763 0.98633,-2.2949c0.18229,-0.92447 0.27344,-2.1647 0.27344,-3.7207z" fill="#ffffff" stroke-width="1"/><path d="M278.12,185.27c0.44922,-0.00667 1.06772,-0.03923 1.8555,-0.0977c1.85547,-4.16667 3.56447,-8.75333 5.127,-13.76l2.2363,0.58593c-1.53647,4.80467 -3.1771,9.144 -4.9219,13.018c3.30727,-0.24089 6.2402,-0.53386 8.7988,-0.87891c-0.96353,-1.6992 -1.94337,-3.2682 -2.9395,-4.707l1.9238,-1.2207c2.0508,2.82553 3.85093,5.82033 5.4004,8.9844l-2.1973,1.1426c-0.35807,-0.7552 -0.75194,-1.54297 -1.1816,-2.3633c-3.80207,0.63802 -8.34307,1.20442 -13.623,1.6992z" fill="#ffffff" stroke-width="1"/><path d="M301.46,175.96v13.545h-2.1191v-10.029c-0.52735,0.7422 -1.13931,1.51043 -1.8359,2.3047l-1.1035,-2.0996c1.3216,-1.46487 2.4544,-3.1706 3.3984,-5.1172c0.57292,-1.1784 1.14585,-2.58467 1.7188,-4.2188l2.041,0.55664c-0.59245,1.78387 -1.29231,3.47007 -2.0996,5.0586zM312.583,175.10063h2.9395v1.9629h-2.9395v10.254c0,0.8594 -0.20833,1.43233 -0.625,1.7188c-0.30599,0.21485 -0.88215,0.32227 -1.7285,0.32227c-1.03513,0 -2.09633,-0.05859 -3.1836,-0.17578l-0.41993,-2.1387c1.15887,0.16927 2.2396,0.2539 3.2422,0.2539c0.27344,0 0.43946,-0.05859 0.49805,-0.17578c0.03907,-0.08463 0.0586,-0.22461 0.0586,-0.41992v-9.6387h-7.9883v-1.9629h7.9883v-4.2578h2.1582zM306.4014,184.56353c-0.73567,-1.95967 -1.64387,-3.74677 -2.7246,-5.3613l1.8652,-1.084c1.17187,1.72527 2.11263,3.49283 2.8223,5.3027z" fill="#ffffff" stroke-width="1"/><path d="M321.53,185.06c0.52083,0.60547 1.10677,1.05471 1.7578,1.3477c1.06773,0.48177 2.46747,0.72266 4.1992,0.72266h8.3203c-0.23438,0.44271 -0.45248,1.07747 -0.6543,1.9043h-7.7637c-2.2396,0 -3.9551,-0.35157 -5.1465,-1.0547c-0.48828,-0.29297 -1.02538,-0.77151 -1.6113,-1.4356c-0.0456,0.05207 -0.10094,0.11717 -0.16602,0.19531c-0.95707,1.1328 -1.9076,2.05727 -2.8516,2.7734l-1.1816,-2.002c1.03513,-0.61849 2.03447,-1.31836 2.998,-2.0996v-4.8242h-2.8418v-1.9238h4.9414zM324.0691,172.101l0.51757,-0.0391c3.01433,-0.20833 5.72267,-0.6543 8.125,-1.3379l1.5234,1.7188c-2.52607,0.66406 -5.22137,1.11326 -8.0859,1.3476v2.5293h9.043v1.9043h-3.2812v7.959h-2.1582v-7.959h-3.6035c-0.03253,2.08987 -0.18878,3.75327 -0.46875,4.9902c-0.25391,1.13933 -0.67057,2.16147 -1.25,3.0664l-1.7969,-1.3574c0.64453,-1.0026 1.05793,-2.2461 1.2402,-3.7305c0.13021,-1.02213 0.19532,-2.4121 0.19532,-4.1699zM320.4558,175.9194c-0.99607,-1.40627 -2.07027,-2.66603 -3.2226,-3.7793l1.6016,-1.2793c1.1198,0.93747 2.2461,2.12887 3.3789,3.5742z" fill="#ffffff" stroke-width="1"/></g></g></svg>