<svg version="1.1" xmlns="http://www.w3.org/2000/svg" xmlns:xlink="http://www.w3.org/1999/xlink" width="78.43684" height="91.47657" viewBox="0,0,78.43684,91.47657"><g transform="translate(-285.60623,160.59307)"><g data-paper-data="{&quot;isPaintingLayer&quot;:true}" fill="#ff0000" fill-rule="evenodd" stroke-linecap="round" stroke-linejoin="round" stroke-miterlimit="10" stroke-dasharray="" stroke-dashoffset="0" style="mix-blend-mode: normal"><path d="M360.95318,-139.08373l0.89997,1.72993l-0.06,2.07991l-0.34998,1.34994l1.18995,0.93997l1.16996,-0.06l-0.15,0.89996l0.38999,2.90989l-0.07999,1.16995l-0.67998,1.15995l-0.71997,-0.06999l-0.50998,1.50994l0.57997,2.16991l-1.13995,1.12996l-1.67993,0.84996l-1.04996,1.53994l-1.04996,-0.05l-1.11996,0.66998l0.65997,2.35991l-0.28999,1.16995l-1.08996,0.56997l-0.46998,1.20996l-0.08,1.31994l-0.60997,0.11l-1.01996,1.37994l-1.52994,2.95988l-0.99996,-0.31999l-1.55993,0.29999l-0.70997,-0.67997l-1.78993,0.59998l-1.39995,-0.13999l0.08999,1.11995l0.81997,0.74997l0.03,0.81997l-1.34995,1.17995l0.07,1.04996l1.94992,0.86996l0.68998,1.87993l-0.22999,1.29995l0.83997,1.15995l-0.63998,1.01996l-0.21999,1.14996l-0.84997,1.09995l-0.85996,-0.67997l-0.71997,1.10995l-1.20995,0.91997l0.48998,0.72997l-1.00996,0.98996l-1.22995,1.82993l0.29998,0.89996l-0.77996,1.28995l-1.07996,0.03l-0.68997,-0.55998l-1.76993,0.82997l-1.73993,1.88992h-1.34994l-1.17996,0.56997l-0.54998,0.85997l-1.04995,0.2l0.04,1.40994l-0.71997,0.99996l-0.08,0.79997l-1.87992,1.90993l0.01,1.10995l-0.91996,2.35991l-0.68997,-0.33999l-1.51994,0.39999l-0.71997,-0.84997l-1.81993,-0.92996l0.30999,-1.05996l-0.69997,-0.64997l-0.73997,0.59998l-1.70993,-0.66997l-0.87997,0.66997l-1.11996,2.39991l-1.07995,0.14999l-0.68998,-0.57997l-1.45994,0.43998l-1.07995,2.15992l-1.57994,0.39998l-0.17999,0.60998l-3.19988,-0.38998l-0.74997,0.82997l-0.59997,1.91992l-1.10996,0.71997l-0.87996,-0.22999l-1.69993,0.69997l-1.20996,-0.30998l-0.84996,-1.31995l0.34998,-1.03996l-2.91988,-2.80989l-0.12,-1.44994l0.71997,-1.26995l-0.02,-1.49994l0.65998,-0.09l0.65997,0.96996l1.41994,-0.24999l-1.79992,-3.54986l0.95996,-0.95996l-0.19999,-0.89996l1.44994,-0.90996l0.47998,-0.77997l1.82993,-0.71997l1.59994,-1.98992l1.14995,-1.72993l-1.06995,-0.82997l-0.66998,-0.98996l-2.03992,0.12999l-1.19995,0.57998l-2.4699,0.26999l-1.05995,-0.51998l-0.34999,-2.02992l-0.91996,-1.10996l-0.69997,0.17l-2.4399,-2.29991l-0.74997,-0.07999l-0.28999,-1.23995l-1.22995,-0.43998l-0.67997,-1.77993l-1.06996,-0.64997l-1.21995,-1.54994l-1.01996,-0.62998l2.04992,-1.27994l0.46998,0.42998l1.54994,-0.51998l1.26995,0.52998l0.26999,-1.01996l-0.74997,-1.27994l-1.82993,-1.50994l-0.88996,0.38998l-2.17992,-0.1l-0.76996,-0.70997l-1.37995,-0.31998l-0.80997,0.91996l0.61998,0.42999l-0.13999,0.93996l-0.78997,0.21l-1.08996,-0.87996l0.31999,-1.17996l0.64997,0.13l1.33995,-1.30995l0.15999,-1.63993l0.90996,-0.09l1.01996,-0.85996l2.28991,0.91996l0.16999,1.55993l1.49994,0.47999l2.32991,0.08999l1.44994,-0.62997l1.65994,-1.09996l1.84992,0.45998l1.58993,0.85997l0.29999,0.50998l1.70993,-0.38998l1.06996,1.61993l-0.24,0.79997l1.64994,2.3699l1.53994,0.03l1.88992,-0.92996l1.17995,-2.05992l0.52998,2.74989l1.01996,0.48998l0.83997,-0.97997l0.09999,-1.59994l0.90997,0.15l1.27995,0.82997l1.53994,-0.01l0.98996,-0.71998l0.86996,0.78997l1.27994,0.37998l1.12995,-0.23999l1.23995,-1.05996l0.80997,-0.17999l0.25999,-1.61993l0.89996,-1.24995l1.15995,-0.1l0.41998,0.71997l2.33991,-0.50998l0.30999,-0.80997l1.22995,0.57998l1.20995,-1.38994l1.80993,-1.27995l-0.72997,-0.83997l-1.04996,0.16l-0.93997,-1.03996l0.66998,-0.72997l1.38995,1.29994l0.91996,-0.61997l1.31995,-2.01992l2.5199,-1.97992l0.46998,-1.29995l-0.88996,-0.59998l-0.66997,-1.64993l1.28994,-1.94993l1.30995,-0.20999l1.49994,0.30999l1.12995,-0.30999l0.30998,-0.91996l1.31995,-1.51994l1.86992,-1.08996l0.22999,-0.74997l1.34994,-1.29995l0.12,-1.01996l-0.49998,-0.56998l0.62997,-0.78996l-0.24999,-0.96996l0.66998,-1.32995l2.95988,-1.29994l0.59997,-2.86989l0.48998,-0.91996l1.02996,-0.69997l1.66994,0.07999l1.05996,0.46998l0.36998,0.63997l-0.49998,1.14996l0.92996,0.51998l0.11,-1.31995l1.61994,-0.37999l0.66997,-0.91996l-0.33998,-0.90996l1.64994,-0.38999l0.58997,-0.75997l-0.61998,1.68993l0.54998,0.48998" stroke="none" stroke-width="0"/><path d="M318.0549,-110.38488l-0.61997,0.57998l-3.27986,-0.28999l-1.49994,1.60994l0.57997,0.85996l-1.66994,0.67997l-2.35991,-1.24995l-0.18999,-2.11991l0.98996,-0.23999l0.51998,0.53998l3.13987,-0.26999l2.88988,-1.53994l0.79997,0.21999l0.69997,1.21995" stroke="none" stroke-width="0"/><path d="M306.65536,-153.28317l1.55993,0.94997l-0.14999,1.00996l-1.23995,0.64997l-1.08995,0.02l-0.66998,-1.33995l-0.27999,-2.09991l0.25999,-1.49994l0.37999,0.68997l1.15995,0.57998l0.07,1.03995" stroke="#ff0000" stroke-width="10"/><path d="M332.75433,-117.98458l-0.59998,-0.72997l0.16,-1.34995l0.92996,-0.79997l0.63998,2.28991l-1.12995,0.58998" stroke="none" stroke-width="0"/><path d="M319.95484,-119.48452l-0.87997,-0.33999l0.59998,-1.57993l1.62993,0.79997l-0.20999,0.76997l-1.13995,0.34998" stroke="none" stroke-width="0"/></g></g></svg>