<svg version="1.1" xmlns="http://www.w3.org/2000/svg" xmlns:xlink="http://www.w3.org/1999/xlink" width="480" height="40" viewBox="0,0,480,40"><g transform="translate(0,-160)"><g data-paper-data="{&quot;isPaintingLayer&quot;:true}" fill-rule="nonzero" stroke-linecap="butt" stroke-linejoin="miter" stroke-miterlimit="10" stroke-dasharray="" stroke-dashoffset="0" style="mix-blend-mode: normal"><path d="M240,196v-32h208v32z" fill="none" stroke="none" stroke-width="0"/><path d="M0,200v-40h480v40z" fill="none" stroke="#000000" stroke-width="0"/><path d="M251.04,185.42h4.9219v-10.742h2.2168v14.658h-2.2168v-1.7969h-11.943v1.7969h-2.1973v-14.658h2.1973v10.742h4.8047v-14.727h2.2168z" fill="#ffffff" stroke="none" stroke-width="1"/><path d="M269.43,173.28v4.9609h2.3633v1.9238h-2.3633v9.3359h-2.0801v-9.3359h-2.3926c-0.03253,1.96614 -0.17577,3.57093 -0.42969,4.8144c-0.35156,1.76433 -1.06769,3.31707 -2.1484,4.6582l-1.7676,-1.3379c0.99606,-1.21094 1.65036,-2.6823 1.9629,-4.4141c0.16928,-0.96354 0.26693,-2.15167 0.29297,-3.5644l0.01,-0.15625h-2.3828v-1.9238h2.3828v-4.9609h-1.9629v-1.9043h10.381v1.9043zM267.3499,173.28h-2.3926v4.9609h2.3926zM270.4163,187.372c2.9232,-1.0026 5.4232,-2.98827 7.5,-5.957l1.6211,1.2988c-1.9466,2.95574 -4.56703,5.07814 -7.8613,6.3672zM271.012,176.22c2.6172,-1.31507 4.62566,-3.10217 6.0254,-5.3613l1.7188,1.0938c-1.63414,2.51953 -3.8021,4.47593 -6.5039,5.8692zM271.39286,181.3762c2.49347,-1.1784 4.554,-2.92643 6.1816,-5.2441l1.6211,1.2891c-1.72526,2.42186 -3.89324,4.2806 -6.5039,5.5762z" fill="#ffffff" stroke="none" stroke-width="1"/><path d="M296.76,170.98v9.4629h-11.621v-9.4629zM287.2385,172.523v1.2207h7.4023v-1.2207zM287.2385,175.1207v1.2207h7.4023v-1.2207zM287.2385,177.7183v1.2598h7.4023v-1.2598zM283.3029,181.7417h16.191v1.6992h-8.0762v6.0644h-2.2168v-6.0644h-8.0371v-10.957h2.1387zM280.8029,187.6401c1.54946,-0.71614 3.0306,-1.9173 4.4434,-3.6035l1.7969,1.0449c-1.3932,1.76433 -2.93944,3.15107 -4.6387,4.1602zM297.6389,188.8999c-0.99606,-1.22394 -2.49346,-2.50974 -4.4922,-3.8574l1.6797,-1.1816c1.569,0.90493 3.1087,2.09306 4.6191,3.5644z" fill="#ffffff" stroke="none" stroke-width="1"/><path d="M312.41,186.65h7.002v1.9238h-15.625v-1.9238h6.4062v-5.498h-5.0195v-1.8164h5.0195v-3.4375h2.2168v3.4375h5.3418v1.8164h-5.3418zM311.3846,173.076h7.4414v1.9238h-14.746v3.5644c0,2.9362 -0.16276,5.24414 -0.48828,6.9238c-0.27994,1.43227 -0.75194,2.7376 -1.416,3.916l-1.7578,-1.6406c0.61198,-1.17186 1.01888,-2.5651 1.2207,-4.1797c0.16276,-1.3216 0.24415,-3.0501 0.24415,-5.1855v-5.3223h7.2656v-2.5781h2.2363z" fill="#ffffff" stroke="none" stroke-width="1"/><path d="M328.85,173.76v-3.2617h2.1777v3.2617h7.5v13.594c0,0.7682 -0.20833,1.3053 -0.625,1.6113c-0.33854,0.25391 -0.92774,0.38086 -1.7676,0.38086c-1.4388,0 -2.62694,-0.0358 -3.5644,-0.10742l-0.40039,-2.0801c1.45833,0.09115 2.67577,0.13672 3.6523,0.13672c0.26042,0 0.41342,-0.06185 0.45899,-0.18555c0.03253,-0.07812 0.0488,-0.20182 0.0488,-0.37109v-10.977h-5.3125l-0.01,0.14648c-0.03253,0.52734 -0.09764,1.06772 -0.19531,1.6211c1.9336,1.582 3.65886,3.36586 5.1758,5.3516l-1.6602,1.543c-1.08074,-1.569 -2.43816,-3.19987 -4.0723,-4.8926c-0.83986,2.20707 -2.52934,4.0495 -5.0684,5.5273l-1.2891,-1.7188c1.51693,-0.8724 2.63673,-1.8034 3.3594,-2.793c0.95054,-1.30206 1.47463,-2.89713 1.5723,-4.7852h-5.127v13.74h-2.1973v-15.742z" fill="#ffffff" stroke="none" stroke-width="1"/></g></g></svg>