<svg version="1.1" xmlns="http://www.w3.org/2000/svg" xmlns:xlink="http://www.w3.org/1999/xlink" width="224" height="124" viewBox="0,0,224,124"><g transform="translate(-128,-180)"><g data-paper-data="{&quot;isPaintingLayer&quot;:true}" stroke="none" stroke-width="1" stroke-miterlimit="10" stroke-dasharray="" stroke-dashoffset="0" style="mix-blend-mode: normal"><path d="M352,294c0,5.54 -4.46,10 -10,10h-204c-5.54,0 -10,-4.46 -10,-10v-114h224z" fill="#1d2a41" fill-rule="evenodd" stroke-linecap="butt" stroke-linejoin="miter"/><g fill="#ffffff" fill-rule="nonzero" stroke-linecap="butt" stroke-linejoin="miter"><g><path d="M149.12,236.3l0.0615,-2.8711h1.374l-0.0478,2.8711h2.707c-0.06836,4.77147 -0.23242,7.74737 -0.49219,8.9277c-0.10937,0.49673 -0.28939,0.84537 -0.54004,1.0459c-0.24609,0.1914 -0.64029,0.2871 -1.1826,0.2871c-0.52409,0 -1.02312,-0.02733 -1.4971,-0.082l-0.28027,-1.4151c0.53776,0.07293 1.02309,0.1094 1.456,0.1094c0.29167,0 0.48535,-0.08203 0.58106,-0.2461c0.26888,-0.46487 0.45573,-2.88707 0.56055,-7.2666h-1.4082c-0.12305,2.05987 -0.43294,3.75517 -0.92968,5.0859c-0.58789,1.57687 -1.39683,2.90077 -2.4268,3.9717l-0.97754,-1.0664c1.01173,-0.99347 1.74773,-2.24443 2.208,-3.7529c0.38281,-1.2396 0.63802,-2.65237 0.76562,-4.2383h-1.8115v-1.0322h-7.0752v-1.2989h3.1104v-1.9003h1.4561v1.9003h2.7686v0.9708zM143.4735,242.7394c-0.56967,-0.64713 -1.1758,-1.2578 -1.8184,-1.832l0.90918,-0.9571c0.45117,0.3874 1.00487,0.90693 1.6611,1.5586c0.35091,-0.62887 0.65625,-1.2737 0.91602,-1.9345l1.2578,0.6152c-0.25977,0.67447 -0.64943,1.47427 -1.169,2.3994c0.51042,0.5742 0.96159,1.1188 1.3535,1.6338l-1.0664,1.1348c-0.39648,-0.57427 -0.76561,-1.0733 -1.1074,-1.4971c-0.81573,1.153 -1.77277,2.09407 -2.8711,2.8232l-1.1074,-1.1621c1.22133,-0.67447 2.23533,-1.60187 3.042,-2.7822zM140.0008,239.8273c0.87953,-0.6608 1.6315,-1.61783 2.2559,-2.8711l1.1894,0.6289c-0.62435,1.3216 -1.44238,2.39483 -2.4541,3.2197zM146.7479,240.2716c-0.61523,-0.89773 -1.36263,-1.80233 -2.2422,-2.7138l1.0527,-0.7383c0.86133,0.80207 1.57453,1.6178 2.1396,2.4472z"/><path d="M162.6,241.8c1.35807,1.1758 3.01007,2.1283 4.956,2.8575l-0.92285,1.3193c-2.08727,-0.9388 -3.8031,-2.1647 -5.1475,-3.6777v4.4365h-1.4834v-4.3818c-1.2988,1.67247 -2.96903,2.96443 -5.0107,3.8759l-0.90918,-1.2304c1.93687,-0.74287 3.5889,-1.8093 4.9561,-3.1993h-4.9014v-1.2168h5.8652v-1.0185h-4.6211v-5.6123h10.814v5.6123h-4.71v1.0185h5.9541v1.2168zM156.8373,235.0461v1.1143h3.165v-1.1143zM156.8373,237.2405v1.2304h3.165v-1.2304zM164.7397,238.4709v-1.2304h-3.2539v1.2304zM164.7397,236.1604v-1.1143h-3.2539v1.1143z"/><path d="M175.49,234.7h4.9561v1.2168h-1.9346c-0.22787,0.71553 -0.47852,1.37407 -0.75196,1.9756h3.6846v1.2442h-13.303v-1.2442h3.5889c-0.18685,-0.63347 -0.43978,-1.292 -0.75879,-1.9756h-1.8389v-1.2168h4.8604v-1.2714h1.4971zM172.5847,235.9168c0.26888,0.61527 0.50586,1.2738 0.71094,1.9756h2.9326c0.26888,-0.62433 0.49902,-1.28287 0.69043,-1.9756zM179.3113,240.0799v6.6514h-1.5244v-0.7178h-6.0088v0.7178h-1.5107v-6.6514zM171.7781,241.242v1.1895h6.0088v-1.1895zM171.7781,243.5252v1.3125h6.0088v-1.3125z"/><path d="M183.33,235.3h3.6846c0.4056,-0.64713 0.71322,-1.16897 0.92285,-1.5655l1.5244,0.2188c-0.13672,0.24607 -0.37826,0.6471 -0.72461,1.2031l-0.0889,0.1436h4.8193v1.3466h-5.7285c-0.59701,0.82033 -1.16667,1.53127 -1.709,2.1328c0.86133,-0.51493 1.64747,-0.7724 2.3584,-0.7724c1.10287,0 1.8252,0.5537 2.167,1.6611c1.16667,-0.38733 2.35613,-0.77013 3.5684,-1.1484l0.58789,1.3262l-0.23926,0.068l-0.67676,0.1777c-1.27607,0.3464 -2.2969,0.64263 -3.0625,0.8887c0.05467,0.59247 0.0934,1.3581 0.11621,2.2969l-1.4971,0.082c-0.00467,-0.54233 -0.01377,-1.1302 -0.0273,-1.7636v-0.1368c-2.09633,0.71553 -3.1445,1.4356 -3.1445,2.1602c0,0.37367 0.26888,0.62887 0.80664,0.7656c0.51953,0.1322 1.44923,0.1983 2.7891,0.1983c1.235,0 2.53153,-0.07067 3.8896,-0.212l0.16406,1.4561c-1.31707,0.10027 -2.68197,0.1504 -4.0947,0.1504c-1.74087,0 -2.97817,-0.13217 -3.7119,-0.3965c-0.90693,-0.32813 -1.3604,-0.9183 -1.3604,-1.7705c0,-0.72007 0.32129,-1.3558 0.96387,-1.9072c0.66536,-0.56967 1.83659,-1.15757 3.5137,-1.7637c-0.09115,-0.35093 -0.21192,-0.59703 -0.36231,-0.7383c-0.16862,-0.15947 -0.39193,-0.2392 -0.66992,-0.2392c-0.45117,0 -1.01857,0.1709 -1.7022,0.5127c-0.84307,0.41927 -1.7477,1.05043 -2.7139,1.8935l-0.90918,-1.0391c1.41733,-1.317 2.52703,-2.61127 3.3291,-3.8828h-2.7822z"/><path d="M200.42,234.5v9.4473h-2.7139v1.1347h-1.2578v-10.582zM197.7061,235.8467v6.7539h1.4697v-6.7539zM203.6534,234.582c0.11849,-0.32353 0.23698,-0.75647 0.35547,-1.2988l1.5244,0.2188c-0.12305,0.35547 -0.27344,0.71547 -0.45117,1.08h3.165v4.2657h-5.6396v0.6494h6.8975v1.0801h-6.8975v0.6425h6.5625c-0.05013,2.26047 -0.1504,3.71197 -0.30079,4.3545c-0.0957,0.4056 -0.25748,0.695 -0.48535,0.8682c-0.23698,0.17773 -0.63345,0.2666 -1.1894,0.2666c-0.55595,0 -1.04129,-0.025 -1.456,-0.075l-0.27344,-1.3125c0.53776,0.07293 1.04363,0.1094 1.5176,0.1094c0.26432,0 0.43294,-0.07063 0.50586,-0.2119c0.11849,-0.23247 0.22102,-1.17583 0.30761,-2.8301l0.007,-0.1026h-6.5693v-7.7041zM202.6075,235.5596v0.7041h4.2656v-0.7041zM202.6075,237.1729v0.7246h4.2656v-0.7246zM202.81941,245.9229c-0.03647,-1.10747 -0.12533,-2.09187 -0.2666,-2.9532l0.96387,-0.1982c0.24153,0.9388 0.39192,1.8776 0.45117,2.8164zM200.18761,245.6563c0.41927,-0.89327 0.69955,-1.85487 0.84082,-2.8848l1.1211,0.2256c-0.15039,1.3672 -0.38965,2.46323 -0.71778,3.2881zM204.70621,245.4717c-0.18685,-1.01627 -0.39648,-1.88443 -0.62891,-2.6045l0.88184,-0.3076c0.30989,0.6836 0.58105,1.5153 0.81347,2.4951zM206.44251,244.8428c-0.18685,-0.67447 -0.45801,-1.37857 -0.81348,-2.1123l0.82715,-0.376c0.38281,0.60613 0.68132,1.26237 0.89551,1.9687z"/><path d="M219.1,236.6c-1.7272,-0.76567 -3.67317,-1.35357 -5.8379,-1.7637l0.57422,-1.2168c2.22393,0.41473 4.18813,0.95477 5.8926,1.6201zM211.3002,241.6107c0.18685,-2.1784 0.46712,-4.0765 0.84082,-5.6943l1.4697,0.2734c-0.34636,1.44013 -0.56967,2.7891 -0.66993,4.0469c0.66081,-0.50587 1.42187,-0.9092 2.2832,-1.21c0.82487,-0.29167 1.59503,-0.4375 2.3105,-0.4375c1.07093,0 1.94593,0.20737 2.625,0.6221c0.90693,0.56053 1.3604,1.45833 1.3604,2.6934c0,1.2122 -0.41243,2.151 -1.2373,2.8164c-1.153,0.92053 -3.1582,1.42867 -6.0156,1.5244l-0.54688,-1.4151c1.90953,-0.00667 3.3633,-0.1844 4.3613,-0.5332c1.20767,-0.41927 1.8115,-1.21907 1.8115,-2.3994c0,-0.7474 -0.2666,-1.30337 -0.7998,-1.6679c-0.42383,-0.29167 -0.97983,-0.4375 -1.668,-0.4375c-0.9798,0 -2.03253,0.32127 -3.1582,0.9638c-0.68813,0.39193 -1.30337,0.86817 -1.8457,1.4287z"/><path d="M230.39,233.7h1.5381v1.8867h4.0332v1.3194h-4.0332v2.9258c0.15951,0.56053 0.23926,1.05953 0.23926,1.497c0,1.6224 -0.35773,2.81413 -1.0732,3.5752c-0.77927,0.834 -1.95277,1.4105 -3.5205,1.7295l-0.7793,-1.1621c1.2168,-0.2324 2.11913,-0.56053 2.707,-0.9844c0.55143,-0.401 0.92287,-0.94557 1.1143,-1.6337c-0.48763,0.5332 -1.0687,0.7998 -1.7432,0.7998c-0.75653,0 -1.3695,-0.2142 -1.8389,-0.6426c-0.55143,-0.50587 -0.82715,-1.2396 -0.82715,-2.2012c0,-0.50587 0.12077,-0.9935 0.3623,-1.4629c0.15951,-0.3008 0.35547,-0.55143 0.58789,-0.7519c0.53776,-0.45573 1.18263,-0.6836 1.9346,-0.6836c0.47852,0 0.91145,0.11393 1.2988,0.3418v-1.3467h-6.7471v-1.3194h6.7471zM230.4447,240.7957v-0.2529c0,-0.29167 -0.06836,-0.54917 -0.20508,-0.7725c-0.25521,-0.41927 -0.62434,-0.6289 -1.1074,-0.6289c-0.24609,0 -0.47624,0.06837 -0.69043,0.2051c-0.5013,0.31447 -0.75195,0.79753 -0.75195,1.4492c0,0.4102 0.09114,0.75657 0.27343,1.0391c0.25521,0.39193 0.63118,0.5879 1.1279,0.5879c0.45117,0 0.80891,-0.2028 1.0732,-0.6084c0.18685,-0.28713 0.28027,-0.62667 0.28027,-1.0186z"/></g><g><path d="M147.35,270.7h4.9561v1.2168h-1.9346c-0.22787,0.71553 -0.47852,1.37407 -0.75196,1.9756h3.6846v1.2441h-13.303v-1.2441h3.5889c-0.18685,-0.63347 -0.43978,-1.292 -0.75879,-1.9756h-1.8389v-1.2168h4.8604v-1.2715h1.4971zM144.4447,271.9168c0.26888,0.61527 0.50586,1.2738 0.71094,1.9756h2.9326c0.26888,-0.62433 0.49902,-1.28287 0.69043,-1.9756zM151.1713,276.0799v6.6514h-1.5244v-0.7178h-6.0088v0.7178h-1.5107v-6.6514zM143.6381,277.242v1.1895h6.0088v-1.1895zM143.6381,279.5252v1.3125h6.0088v-1.3125z"/><path d="M159.84,270.7v-1.2715h1.5244v1.2715h5.7422v1.1895h-5.7422v1.1211h4.8467v1.1894h-10.979v-1.1894h4.6074v-1.1211h-5.6465v-1.1895zM166.0744,275.2254v4.4912h-1.5381v-0.7383h-7.6973c-0.06835,0.84767 -0.20735,1.5381 -0.41699,2.0713c-0.25065,0.64713 -0.66535,1.25327 -1.2441,1.8184l-1.2168,-1.0664c0.58789,-0.55147 0.97299,-1.21 1.1553,-1.9756c0.1276,-0.53773 0.1914,-1.21677 0.1914,-2.0371v-2.5635zM164.5363,276.3465h-3.1992v1.4424h3.1992zM159.8537,276.3465h-2.9805v1.4424h2.9805z"/><path d="M168.45,271c4.19273,-0.064 8.1554,-0.1711 11.888,-0.3213l0.082,1.3603c-1.6452,0.08207 -2.9258,0.33273 -3.8418,0.752c-0.875,0.401 -1.57683,0.95697 -2.1055,1.6679c-0.60156,0.80667 -0.90234,1.70447 -0.90234,2.6934c0,0.9844 0.3418,1.7227 1.0254,2.2149c0.78387,0.56053 1.987,0.9456 3.6094,1.1552l-0.32128,1.5381c-2.1146,-0.28253 -3.60257,-0.8294 -4.4639,-1.6406c-0.92513,-0.86587 -1.3877,-1.9414 -1.3877,-3.2266c0,-1.16667 0.41927,-2.25587 1.2578,-3.2676c0.61067,-0.7428 1.44694,-1.3398 2.5088,-1.791c-1.88213,0.064 -4.3089,0.1711 -7.2803,0.3213zM178.3895,276.8994c-0.26889,-0.71553 -0.72235,-1.52673 -1.3604,-2.4336l1.0664,-0.3965c0.56966,0.78387 1.02766,1.58593 1.374,2.4062zM180.2352,276.1816c-0.32357,-0.83853 -0.77473,-1.6543 -1.3535,-2.4473l1.0186,-0.3623c0.5332,0.64713 0.98667,1.431 1.3604,2.3516z"/><path d="M187.03,278v3.5889c0.91147,-0.3236 1.53127,-0.84087 1.8594,-1.5518c0.25521,-0.54687 0.39192,-1.59277 0.41015,-3.1377h1.374c-0.01367,1.80013 -0.20051,3.0534 -0.56054,3.7598c-0.48763,0.94793 -1.31933,1.66343 -2.4951,2.1465l-0.58789,-0.8067v0.01h-3.2676v0.7041h-1.3467v-4.71zM183.7624,279.1758v1.668h1.9209v-1.668zM190.4821,270.665v-1.2441h1.3877v1.2441h3.3291v1.2032h-3.3291v0.9707h2.9395v1.1758h-7.0957v-1.1758h2.7686v-0.9707h-3.2471v-1.2032zM195.1442,274.9512v2.8711h-1.374v-1.709h-4.9492v1.8183h-1.333v-2.9804zM182.6412,269.9131h4.1289v1.1484h-4.1289zM181.99862,271.916h5.332v1.2305h-5.332zM182.6412,274.0147h4.1289v1.1347h-4.1289zM182.6412,276.0176h4.1289v1.1074h-4.1289zM191.5006,276.8721h1.3193v4.0537c0,0.1276 0.0319,0.20507 0.0957,0.2324c0.10482,0.04533 0.22331,0.068 0.35547,0.068c0.30078,0 0.49674,-0.0433 0.58789,-0.1299c0.12305,-0.1094 0.20964,-0.72007 0.25977,-1.832l1.2373,0.4306c-0.041,1.22133 -0.17088,1.99607 -0.38965,2.3242c-0.13671,0.20513 -0.35546,0.34413 -0.65625,0.417c-0.25976,0.05933 -0.60613,0.089 -1.0391,0.089c-0.75193,0 -1.23727,-0.07747 -1.456,-0.2324c-0.20964,-0.1504 -0.31446,-0.4284 -0.31446,-0.834z"/><path d="M197.74,270.4h5.3457l0.95703,0.8134c-0.45117,1.5814 -0.82487,2.77087 -1.1211,3.5684c1.1348,0.1914 2.1807,0.5013 3.1377,0.9297c0.05467,-0.58787 0.082,-1.16437 0.082,-1.7295c0,-0.3008 -0.0091,-0.654 -0.0273,-1.0596l1.4971,0.1573c-0.00467,1.30333 -0.05708,2.39933 -0.15723,3.288c0.56511,0.29167 1.15757,0.63577 1.7774,1.0323l-0.5879,1.456c-0.4375,-0.319 -0.91147,-0.63573 -1.4219,-0.9502c-0.35091,1.35353 -0.91145,2.40627 -1.6816,3.1582c-0.54687,0.5378 -1.29427,1.01177 -2.2422,1.4219l-0.85449,-1.1484c1.11653,-0.47853 1.9414,-1.08923 2.4746,-1.8321c0.41927,-0.5924 0.72916,-1.36713 0.92969,-2.3242c-1.11653,-0.56053 -2.24673,-0.93877 -3.3906,-1.1347c-0.74287,2.03253 -1.488,3.57287 -2.2354,4.621c-0.56966,0.793 -1.20996,1.1895 -1.9209,1.1895c-0.68813,0 -1.22133,-0.32813 -1.5996,-0.9844c-0.28711,-0.50127 -0.43066,-1.09827 -0.43066,-1.791c0,-0.85673 0.22103,-1.62237 0.66308,-2.2969c0.52409,-0.80207 1.33073,-1.38767 2.4199,-1.7568c0.6289,-0.20967 1.333,-0.3236 2.1123,-0.3418c0.41927,-1.09373 0.74056,-2.07357 0.96387,-2.9395h-4.6895zM200.9734,275.9918c-0.58789,0.032 -1.09145,0.14363 -1.5107,0.3349c-0.65625,0.29167 -1.13931,0.7383 -1.4492,1.3399c-0.21875,0.4238 -0.32812,0.87497 -0.32812,1.3535c0,0.3828 0.07519,0.71547 0.22558,0.998c0.11393,0.22333 0.25065,0.335 0.41016,0.335c0.63802,0 1.52212,-1.45377 2.6523,-4.3613z"/><path d="M217.06,273.3h4.9356v1.4013h-4.9356v5.7149h6.2412v1.4287h-13.303v-1.4287h5.4072v-11.02h1.6543z"/><path d="M232.46,269.9h1.2305l0.29395,2.9805h2.7891v1.3877h-2.6728l0.0273,1.2441c0.00467,0.22333 0.007,0.3783 0.007,0.4649c0,1.88213 -0.27799,3.27893 -0.83398,4.1904c-0.4375,0.7246 -1.07323,1.3125 -1.9072,1.7637c-0.22787,0.123 -0.50586,0.25743 -0.83399,0.4033l-0.92968,-1.1758c1.1302,-0.5104 1.91177,-1.13247 2.3447,-1.8662c0.42383,-0.71553 0.63575,-1.83437 0.63575,-3.3565c0,-0.04067 -0.00233,-0.2047 -0.007,-0.4921l-0.0342,-1.1758h-4.4912v-1.3877h4.4365zM225.3438,281.897c-0.22331,-1.71813 -0.33496,-3.59803 -0.33496,-5.6397c0,-2.16467 0.12761,-4.2838 0.38282,-6.3574l1.4834,0.1367c-0.23697,2.16473 -0.35546,4.2269 -0.35546,6.1865c0,1.9916 0.10937,3.81227 0.32812,5.462zM235.0372,272.2651c-0.20507,-0.72913 -0.5332,-1.49473 -0.98437,-2.2968l0.9707,-0.2666c0.43295,0.7428 0.77701,1.4993 1.0322,2.2695zM236.6163,271.7183c-0.25521,-0.86133 -0.60611,-1.6361 -1.0527,-2.3243l1.0117,-0.2529c0.44206,0.67907 0.79753,1.44013 1.0664,2.2832z"/><path d="M239.96,270.1h7.6699l0.73144,1.1348c-2.3698,1.4492 -4.42287,2.76627 -6.1592,3.9512c1.12107,-0.4694 2.24673,-0.7041 3.377,-0.7041c1.01627,0 1.86393,0.16177 2.543,0.4853c0.62891,0.3008 1.11881,0.71097 1.4697,1.2305c0.36459,0.5514 0.54688,1.18487 0.54688,1.9004c0,1.0026 -0.3418,1.84113 -1.0254,2.5156c-0.4694,0.4694 -1.07097,0.82487 -1.8047,1.0664c-0.9616,0.31447 -2.01433,0.4717 -3.1582,0.4717c-1.31707,0 -2.28777,-0.24383 -2.9121,-0.7315c-0.48763,-0.3828 -0.73144,-0.90003 -0.73144,-1.5517c0,-0.4922 0.17773,-0.9297 0.5332,-1.3125c0.53776,-0.5788 1.26466,-0.8682 2.1807,-0.8682c0.97067,0 1.74767,0.32583 2.331,0.9775c0.42383,0.474 0.72917,1.10977 0.91602,1.9073c1.40367,-0.4466 2.1055,-1.27147 2.1055,-2.4746c0,-0.91147 -0.38053,-1.58367 -1.1416,-2.0166c-0.51041,-0.29167 -1.15755,-0.4375 -1.9414,-0.4375c-1.1712,0 -2.2285,0.16177 -3.1719,0.4853c-0.69727,0.237 -1.6338,0.80893 -2.8096,1.7158l-0.96386,-1.1621c1.26693,-1.09373 2.7093,-2.20343 4.3271,-3.3291c1.11653,-0.77473 2.1009,-1.41047 2.9531,-1.9072h-5.8652zM245.1416,280.839c-0.32357,-1.28973 -0.9593,-1.9346 -1.9072,-1.9346c-0.52409,0 -0.90235,0.16633 -1.1348,0.499c-0.10937,0.1504 -0.16406,0.3122 -0.16406,0.4854c0,0.36 0.25521,0.63117 0.76563,0.8135c0.36914,0.1276 0.86361,0.1914 1.4834,0.1914c0.26433,0 0.58334,-0.01833 0.95703,-0.055z"/></g><path d="M175.74219,204.1211v1.11719h4.25781v1.28125h-4.25781v1.14844h4.89844v1.375h-4.89844v2.69531h-1.67969v-2.69531h-4.49219v-1.375h4.49219v-1.14844h-3.82031v-1.28125h3.82031v-1.11719h-3.375v-1.1875h3.375v-1.22656h-4.6875v-1.26562h4.6875v-1.20313h-3.29687v-1.23437h3.29688v-1.46875h1.67969v1.46875h3.90625v2.4375h1.35938v1.26562h-1.35937v2.41406zM175.74219,202.9336h2.27344v-1.22656h-2.27344zM175.74219,200.44142h2.27344v-1.20313h-2.27344zM168.54688,200.2461c-0.65104,-0.89583 -1.42969,-1.72135 -2.33594,-2.47656l1.21094,-1.14062c0.97917,0.75 1.77604,1.53906 2.39063,2.36718zM168,204.3086c-0.75521,-0.99479 -1.54427,-1.84114 -2.36719,-2.53906l1.20313,-1.17187c0.83854,0.63541 1.65885,1.44531 2.46094,2.42968zM165.90625,210.53517c1,-1.63542 1.85156,-3.47657 2.55469,-5.52344l1.36719,0.96094c-0.65104,2.07291 -1.46875,3.98177 -2.45312,5.72656zM193.27344,208.33985c1.00521,0.71355 2.28646,1.32292 3.84375,1.82813l-0.875,1.5625c-1.64062,-0.64583 -2.99479,-1.39323 -4.0625,-2.24219c-1.10417,0.98437 -2.35677,1.76562 -3.75781,2.34375l-1.09375,-1.23437c1.44271,-0.51042 2.6875,-1.22657 3.73438,-2.14844c-1.1875,-1.3125 -2.03906,-2.6875 -2.55469,-4.125h-0.30469c-0.03125,1.40625 -0.15625,2.62239 -0.375,3.64844c-0.27083,1.26562 -0.77865,2.47656 -1.52344,3.63281l-1.26562,-1.15625c0.6875,-1.11979 1.13802,-2.3724 1.35156,-3.75781c0.13542,-0.86459 0.20313,-1.83594 0.20313,-2.91407v-5.07031h4.09375v-2.17187h1.66406v2.17187h3.58594l0.8125,0.70313c-0.32292,1.07291 -0.70052,2.05468 -1.13281,2.94531l-1.58594,-0.46875c0.34375,-0.5625 0.59896,-1.1276 0.76563,-1.69531h-2.44531v2.75781h2.59375l0.78125,0.67187c-0.61979,1.85938 -1.4375,3.4323 -2.45312,4.71875zM192.07813,207.35548c0.78646,-0.99479 1.33073,-2.00521 1.63281,-3.03125h-3.74219c0.48958,1.10417 1.19271,2.11458 2.10938,3.03125zM190.68751,200.19142h-2.47656v2.75781h2.47656zM184.88282,200.55079c-0.6875,-0.93229 -1.53125,-1.80729 -2.53125,-2.625l1.21875,-1.17969c0.97396,0.70313 1.84896,1.52865 2.625,2.47657zM184.17188,204.32423c-0.74479,-0.95833 -1.57552,-1.8151 -2.49219,-2.57031l1.20313,-1.17188c0.90104,0.64063 1.75781,1.45573 2.57031,2.44531zM181.85938,210.50392c0.97917,-1.46875 1.84635,-3.25 2.60156,-5.34375l1.41406,0.97656c-0.69792,2.07813 -1.54167,3.95573 -2.53125,5.63281zM201.26563,199.51173v12.22656h-1.63281v-15.20312h1.63281v2.36718l0.75,-0.625c0.45312,0.78646 0.8125,1.54427 1.07813,2.27344l-1.0625,1.05469c-0.27604,-0.88021 -0.53125,-1.57812 -0.76562,-2.09375zM208.46094,197.57423h4.04688v1.17187h-4.04687v0.75h3.49219v1.11719h-3.49219v0.77344h4.5625v1.25h-10.53125v-1.25h4.35156v-0.77344h-3.39062v-1.11719h3.39063v-0.75h-3.85156v-1.17187h3.85156v-1.03906h1.61719zM211.71094,203.46485v6.85938c0,0.47917 -0.11458,0.82812 -0.34375,1.04687c-0.22396,0.21355 -0.60677,0.32032 -1.14844,0.32032c-0.64063,0 -1.29948,-0.04427 -1.97656,-0.13282l-0.22656,-1.40625c0.69271,0.08333 1.24219,0.125 1.64844,0.125c0.20833,0 0.33333,-0.05208 0.375,-0.15625c0.02604,-0.06247 0.03906,-0.15882 0.03906,-0.28906v-1.00781h-4.79687v2.91406h-1.63281v-8.27344zM205.28126,204.61329v0.91406h4.79688v-0.91406zM205.28126,206.67579v0.96094h4.79688v-0.96094zM197.42188,204.69142c0.23437,-1.08333 0.40365,-2.48438 0.50781,-4.20313l0.03906,-0.64062l1.32813,0.125c-0.0625,2.22917 -0.24479,4.03906 -0.54687,5.42968zM216.88282,198.16798v-1.63281h1.63281v1.63281h2.42969v1.375h-2.42969v1.34375h2.76563v1.39062h-0.92969c-0.16667,0.61979 -0.39062,1.27604 -0.67187,1.96875h1.50781v1.35938h-2.67187v1.44531h2.57031v1.39063h-2.57031v3.29687h-1.63281v-3.29687h-2.75781v-1.39063h2.75781v-1.44531h-2.88281v-1.35938h1.4375c-0.16667,-0.69271 -0.36979,-1.34896 -0.60937,-1.96875h-1.14844v-1.39062h3.20313v-1.34375h-2.54687v-1.375zM218.82813,202.27735h-2.48437c0.17708,0.49479 0.36719,1.15104 0.57031,1.96875h1.29688c0.27083,-0.66667 0.47656,-1.32292 0.61719,-1.96875zM228.3047,197.09767v3.65625c0,0.45312 -0.08333,0.77343 -0.25,0.96093c-0.19792,0.22396 -0.61198,0.33594 -1.24219,0.33594c-0.61458,0 -1.22917,-0.02603 -1.84375,-0.0781l-0.26562,-1.40625c0.86458,0.09375 1.41406,0.14062 1.64844,0.14062c0.24479,0 0.36719,-0.10677 0.36719,-0.32031v-1.88281h-3.42187v4.53906h4.42969l0.92969,0.79687c-0.28125,1.65625 -0.79427,3.13542 -1.53906,4.4375l-0.08594,0.15625c0.57292,0.66146 1.28906,1.26563 2.14844,1.8125l-0.875,1.46094c-0.82292,-0.53125 -1.55729,-1.16666 -2.20313,-1.90625c-0.55729,0.70833 -1.1849,1.375 -1.88281,2l-0.92187,-1.28125v1.21875h-1.58594v-14.64062zM223.29688,204.44923v5.90625c0.64062,-0.4375 1.25781,-1.05208 1.85156,-1.84375c-0.79687,-1.22917 -1.35677,-2.58333 -1.67969,-4.0625zM226.01563,207.12892c0.46354,-0.89583 0.76562,-1.78906 0.90625,-2.67969h-2.01562c0.25521,1 0.625,1.89323 1.10938,2.67969z"/></g><path d="M342,180c0.55228,0 1,0.44772 1,1c0,0.55228 -0.44772,1 -1,1h-204c-0.55228,0 -1,-0.44772 -1,-1c0,-0.55228 0.44772,-1 1,-1z" fill="#31476d" fill-rule="nonzero" stroke-linecap="round" stroke-linejoin="round"/><g data-paper-data="{&quot;isPaintingLayer&quot;:true}" stroke-linecap="butt" stroke-linejoin="miter"><path d="M133,220v-32h32v32z" fill-opacity="0" fill="#000000" fill-rule="nonzero"/><path d="M148.9818,194.754c0.39537,-0.002 0.7615,0.20809 0.95898,0.55078l8.8926,15.408c0.19643,0.34054 0.19632,0.76006 -0.00029,1.1005c-0.19661,0.34044 -0.55983,0.55006 -0.95283,0.5499h-17.783c-0.393,0.00017 -0.75622,-0.20946 -0.95283,-0.5499c-0.19661,-0.34044 -0.19672,-0.75996 -0.00029,-1.1005l8.8926,-15.408c0.19503,-0.33846 0.55482,-0.54809 0.94531,-0.55078zM145.27515,204.49234c1.481,-0.85601 2.8269,-1.23693 3.9648,-1.1309c1.166,0.1086 2.10672,0.7414 2.6836,1.8242c0.0432,0.0816 0.025,0.18215 -0.0441,0.24337c-0.0691,0.0612 -0.17114,0.0672 -0.24691,0.0144c-0.9726,-0.68049 -1.7415,-0.51264 -2.1973,0.008c-0.2889,0.32985 -0.3553,0.74376 -0.23438,1.1543c0.12094,0.41052 0.4386,0.81153 0.93555,1.0703c1.1349,0.59097 3.0356,0.70616 4.5527,0.31445c0.0103,-0.002 0.0207,-0.003 0.0312,-0.004l-5.7305,-9.9297z" fill="#ffffff" fill-rule="evenodd"/></g></g></g></svg>