<svg version="1.1" xmlns="http://www.w3.org/2000/svg" xmlns:xlink="http://www.w3.org/1999/xlink" width="208" height="32" viewBox="0,0,208,32"><g transform="translate(-240,-164)"><g data-paper-data="{&quot;isPaintingLayer&quot;:true}" fill-rule="nonzero" stroke="none" stroke-linecap="butt" stroke-linejoin="miter" stroke-miterlimit="10" stroke-dasharray="" stroke-dashoffset="0" style="mix-blend-mode: normal"><path d="M240,196v-32h208v32z" fill="none" stroke-width="0"/><path d="M251.36,177.52c0.44922,1.52347 1.30209,3.14457 2.5586,4.8633c1.52993,2.09633 3.41143,3.7565 5.6445,4.9805l-1.3965,2.0117c-2.36327,-1.3932 -4.33593,-3.2389 -5.918,-5.5371c-0.85287,-1.25 -1.53647,-2.5228 -2.0508,-3.8184c-0.51432,1.7448 -1.31185,3.3301 -2.3926,4.7559c-1.58853,2.1094 -3.55143,3.6654 -5.8887,4.668l-1.377,-1.7871c2.44793,-1.02213 4.42383,-2.59767 5.9277,-4.7266c1.263,-1.79687 2.0117,-3.60027 2.2461,-5.4102h-7.793v-2.1191h7.8809v-4.707h2.2559v4.707h8.0469v2.1191z" fill="#ffffff" stroke-width="1"/><path d="M269.81,179.9c-0.20182,2.1224 -0.66082,3.82813 -1.377,5.1172c-1.0742,1.9466 -2.9199,3.44073 -5.5371,4.4824l-1.377,-1.8262c1.8034,-0.53385 3.22917,-1.44205 4.2773,-2.7246c0.97007,-1.18487 1.5625,-2.8678 1.7773,-5.0488h-3.418v-1.4062c-0.71613,0.73567 -1.51693,1.43227 -2.4024,2.0898l-1.3965,-1.6895c2.85153,-1.96613 4.87953,-4.71353 6.084,-8.2422l2.0801,0.74218c-0.8854,2.46093 -2.1712,4.64843 -3.8574,6.5625h11.113c-1.9466,-1.84247 -3.5677,-4.06253 -4.8633,-6.6602l1.9824,-0.80078c1.6276,3.32033 3.8802,5.8594 6.7578,7.6172l-1.2988,1.9238c-0.8724,-0.61849 -1.63413,-1.22069 -2.2852,-1.8066l-0.01,0.40039c-0.07812,3.37893 -0.24739,6.0775 -0.50781,8.0957c-0.13672,1.06773 -0.44271,1.7676 -0.91797,2.0996c-0.42317,0.29948 -1.16537,0.44922 -2.2266,0.44922c-0.8008,0 -1.7904,-0.03906 -2.9688,-0.11718l-0.40039,-2.0606c1.06773,0.14323 2.03453,0.21484 2.9004,0.21484c0.50781,0 0.84635,-0.07161 1.0156,-0.21484c0.16927,-0.14323 0.30274,-0.52083 0.40039,-1.1328c0.24089,-1.4518 0.38737,-3.4733 0.43946,-6.0645z" fill="#ffffff" stroke-width="1"/><path d="M296.76,170.98v9.4629h-11.621v-9.4629zM287.2385,172.523v1.2207h7.4023v-1.2207zM287.2385,175.1207v1.2207h7.4023v-1.2207zM287.2385,177.7183v1.2598h7.4023v-1.2598zM283.3029,181.7417h16.191v1.6992h-8.0762v6.0644h-2.2168v-6.0644h-8.0371v-10.957h2.1387zM280.8029,187.6401c1.54947,-0.71613 3.0306,-1.9173 4.4434,-3.6035l1.7969,1.0449c-1.3932,1.76433 -2.93943,3.15107 -4.6387,4.1602zM297.6389,188.8999c-0.99607,-1.22393 -2.49347,-2.50973 -4.4922,-3.8574l1.6797,-1.1816c1.569,0.90493 3.1087,2.09307 4.6191,3.5644z" fill="#ffffff" stroke-width="1"/><path d="M306.44,176.07v-2.7344h-5.8203v-1.8848h18.779v1.8848h-6.4551v2.7344h5.4785v13.164h-2.1191v-1.377h-12.607v1.377h-2.0996v-13.164zM308.4615,176.07h2.4609v-2.7344h-2.4609zM306.4303,177.8473h-2.7344v8.1543h12.607v-2.9297h-3.7012c-1.1198,0 -1.6797,-0.5599 -1.6797,-1.6797v-3.5449h-2.4805c-0.02607,1.6016 -0.26695,2.88417 -0.72266,3.8477c-0.42969,0.918 -1.27605,1.8262 -2.5391,2.7246l-1.3477,-1.5039c1.21093,-0.7422 1.9759,-1.66017 2.2949,-2.7539c0.16927,-0.58594 0.27018,-1.35744 0.30273,-2.3145zM312.944,177.8473v2.9883c0,0.25391 0.11393,0.38086 0.3418,0.38086h3.0176v-3.3691z" fill="#ffffff" stroke-width="1"/><path d="M326.98,172.75h4.1797v1.8848h-1.377c-0.2474,0.99607 -0.57943,2.041 -0.9961,3.1348h2.6074v1.8848h-10.898v-1.8848h2.3926c-0.26041,-1.25 -0.53385,-2.29493 -0.82031,-3.1348h-1.2695v-1.8848h4.1406v-2.2559h2.041zM324.0406,174.6348c0.33203,0.97007 0.58919,2.015 0.77148,3.1348h1.9922l0.09766,-0.27344c0.27995,-0.7422 0.54036,-1.5853 0.78125,-2.5293l0.0879,-0.33203zM330.0953,181.295v7.998h-2.002v-0.95703h-4.2578v1.1621h-2.0606v-8.2031zM323.8355,183.0919v3.3887h4.2578v-3.3887zM336.8825,178.1603c0.77473,0.73567 1.38997,1.61133 1.8457,2.627c0.44922,1.0156 0.67383,2.04423 0.67383,3.0859c0,0.96353 -0.17904,1.67317 -0.53711,2.1289c-0.37109,0.47526 -0.98306,0.71289 -1.8359,0.71289c-0.7292,0 -1.43557,-0.05208 -2.1191,-0.15625l-0.47852,-2.0801c0.78773,0.14323 1.43877,0.21485 1.9531,0.21485c0.39063,0 0.63477,-0.09115 0.73242,-0.27344c0.06513,-0.13021 0.0977,-0.39062 0.0977,-0.78125c0,-1.60807 -0.48177,-2.9948 -1.4453,-4.1602c-0.25391,-0.30599 -0.57292,-0.63476 -0.95703,-0.98633l0.11719,-0.27343c0.67707,-1.52993 1.2044,-3.125 1.582,-4.7852h-2.5v16.064h-2.0215v-18.086h5.8789l1.084,0.99609c-0.65755,2.2396 -1.34765,4.15693 -2.0703,5.752z" fill="#ffffff" stroke-width="1"/></g></g></svg>