<svg xmlns="http://www.w3.org/2000/svg" viewBox="0 0 120 60" version="1.1" height="60" width="120">
 <rect style="paint-order:stroke markers fill" stop-color="#000000" opacity=".80769" fill="none" height="60" width="120"></rect>
 <g aria-label="1回/秒" fill="#fff">
  <path d="m64.074 24.427v-9.6592q-1.4492 0.48535-2.7344 0.71777l-0.33496-1.3877q2.167-0.52637 3.5547-1.2168h1.3125v11.546z"></path>
  <path d="m78.676 15.902v5.373h-5.7148v-5.373zm-4.2998 1.2441v2.8848h2.8711v-2.8848zm7.3623-4.293v12.482h-1.5381v-0.89551h-8.7363v0.89551h-1.5244v-12.482zm-10.274 1.333v8.8662h8.7363v-8.8662z"></path>
  <path d="m88.492 12.149 0.84082 0.37598-5.1543 12.838-0.84082-0.37598z"></path>
  <path d="m92.32 19.676q-0.73144 1.9004-1.6133 3.2129l-0.79297-1.4834q1.4834-1.791 2.2559-4.2861h-2.0029v-1.2988h2.1533v-1.9072q-1.1348 0.18457-1.6406 0.23926l-0.48535-1.1211q2.502-0.30762 4.4092-1.0049l0.84082 1.1074q-0.69727 0.23926-1.5244 0.4375l-0.21191 0.05469v2.1943h1.6953v1.2988h-1.6953v1.0801q1.0186 0.64941 1.9619 1.668l-0.85449 1.2715q-0.46484-0.77246-1.1074-1.4629v5.7354h-1.3877zm6.1455-7.5674h1.4287v7.8408q0 1.1484-1.2441 1.1484-0.59473 0-1.1758-0.08887l-0.23926-1.3535q0.39648 0.08203 0.88867 0.08203 0.2666 0 0.31445-0.11621 0.02734-0.0752 0.02734-0.24609zm3.9238 6.8428q-0.71777-2.2559-1.8389-4.7031l1.1348-0.57422q1.2168 2.1602 1.9482 4.5801zm-7.3828-0.30762q0.84766-1.6201 1.1963-4.5322l1.2988 0.19141q-0.36914 3.4316-1.3467 5.2227zm0.18457 5.6465q2.8711-0.93652 4.6143-3.0967 0.875-1.0869 1.4082-2.5361l1.3398 0.64941q-1.2305 2.7002-3.0352 4.2109-1.3467 1.1211-3.4316 1.9209z"></path>
 </g>
</svg>
