<svg version="1.1" xmlns="http://www.w3.org/2000/svg" xmlns:xlink="http://www.w3.org/1999/xlink" width="112.04554" height="118.94522" viewBox="0,0,112.04554,118.94522"><g transform="translate(-196.36322,-310.90213)"><g data-paper-data="{&quot;isPaintingLayer&quot;:true}" fill="#ff0000" fill-rule="evenodd" stroke="none" stroke-width="0" stroke-linecap="round" stroke-linejoin="round" stroke-miterlimit="10" stroke-dasharray="" stroke-dashoffset="0" style="mix-blend-mode: normal"><path d="M304.21893,326.33149l-1.14995,0.47998l-0.25999,1.72993l0.71997,1.59994l-0.57998,3.10988l1.44994,0.38998l1.48994,1.16995l1.78993,0.63997l0.45998,0.94996l-0.20999,1.63993l0.47998,1.75993l-1.02996,1.10996l-1.37994,2.10992l-1.24995,0.36999l-1.03996,1.14995l0.04,2.18991l-0.70997,0.93996l-0.32999,1.25995l-0.97996,0.07l-0.84997,-1.00996l-1.77993,1.09996l-0.12,1.13995l-2.5499,2.19991l1.28995,1.78993l1.12995,0.33999l-0.24999,1.80993l1.15995,1.41994l-0.57998,1.38994l0.63997,0.47998l0.23999,1.11996l-0.32999,1.51994l-1.61994,-0.28999l-0.64997,-0.84997l-0.90996,0.03l-1.17995,-0.46998l0.02,-0.24999l-0.71997,-1.83993l0.66997,-1.51994l-0.97996,-1.37994l-2.6199,-0.58998l-0.72997,-0.56998l0.44998,-1.69993l-0.41998,-0.90996l-2.84989,-0.33999l-1.89992,0.15999l-1.75993,1.25995l-0.14999,0.71997l-0.89996,0.06l-1.69993,1.31995l0.65997,1.05996l0.72997,2.5599l1.44994,0.44998l-0.02,1.72993l2.22991,2.26991l0.13999,1.37994l-0.77997,0.27999l-0.55998,1.31995l-0.64997,0.46998l-0.43998,3.19987l0.68997,2.86989l-0.26999,1.31995l-1.41994,2.29991l-1.11996,-0.59998l-0.96996,1.52994l-0.15999,0.82997l-1.26995,0.60998l-0.80997,1.36995l-0.13999,1.30995l-1.61994,1.78993l0.18999,1.22995h-1.45994l0.61998,1.73993l-0.27999,1.57994l-1.42994,1.33995l-0.41998,1.84993l1.00996,0.58998l0.77997,1.19995l1.61994,0.69997l-2.20991,2.70989l0.40998,2.3799l-0.26999,0.95996l-2.74989,-0.05l-1.74993,0.75997l-2.16991,-0.69997l-1.69993,0.88996l-1.12995,-0.13999l-0.52998,0.80997l-1.31995,0.16999l-1.59994,0.72997l-0.38998,0.91996l-1.26995,1.26995l0.58998,0.92996l-0.25999,2.94988l-0.89996,0.05l-2.14991,-0.73997l-1.00996,0.23999l-1.49994,1.63993l-1.01996,0.63997l-1.53994,-0.17999l-0.42998,0.41998l-2.19991,0.03l-1.04996,1.13995l-0.83997,-0.39998l-1.53994,0.72997l-1.16995,2.02992l-2.93988,1.07996l-1.00996,0.73997l-1.38994,1.52994l-1.28995,0.21999l-1.67993,-0.35999l-0.23999,1.24995l-2.4999,1.55994l-0.97996,0.19999l-1.19995,1.13995l-1.75993,0.48998l-1.11996,1.03996l-0.95996,0.19999l-0.99996,-0.93996l-2.30991,0.58998l-0.44998,2.10992l-2.22991,1.49994l0.06,0.74997l-0.80997,1.46994l-1.46994,-0.42998l-1.30995,0.93996l-0.57998,1.15995l-0.99996,-0.08l-1.01996,-0.86997l-2.02992,0.32999l-1.03996,-1.46994l-1.48994,0.35999l-2.23991,-0.14999l-1.02996,-1.07996l-1.30995,0.40998l-1.34995,-0.92996l-1.34995,0.77997l-1.40994,0.35999l-0.86997,-1.37994l0.84997,-0.09l0.13999,-0.97996l0.93996,-1.61994l-0.30999,-1.17995l0.39998,-0.63997l0.16999,-1.71993l-0.27999,-1.78993l-0.75997,-1.31995l0.50998,-1.96992l1.10996,-1.55994l-0.22999,-1.57994l-1.02996,-1.85993l0.16999,-1.32995l-1.00996,-1.13995l-0.31999,-2.93988l0.11,-0.24999l0.61998,0.36999l0.65997,-2.76989l-0.17999,-1.74993l0.54998,-1.53994l-0.97996,-1.13995l0.13999,-1.34995l-2.67989,-3.55986l-0.46998,1.23995l-0.77997,0.67997l-0.85997,0.02l-0.18999,-1.24995l-1.16995,-1.67993l-1.71993,-1.85993l-0.11,-0.90996l0.98996,-2.12991l1.70993,-1.62993l1.35995,-1.78993l0.68997,-0.32999l0.33999,-2.81989l0.63997,-0.79997l-0.41998,-2.3899l1.01996,-1.15995l0.54998,-0.05v-1.67993l0.43998,-2.00992l-0.64997,-0.90996l0.02,-0.89996l-0.97996,-0.74997l-0.65997,0.25999l-1.65993,-2.73989l0.96996,-0.50998l-0.09,-1.48994l0.54998,-1.22995l0.99996,-1.24995l1.44994,0.42998l1.36995,-0.91996l0.76997,0.67997l1.82993,-0.71997l0.92996,0.07l2.05992,-0.79997l1.93992,-0.47998l0.85997,0.57998l1.06996,-0.30999l1.67993,-1.21995l0.58998,0.56998l1.69993,0.22999l1.19995,0.46998l0.88996,-0.79997l-0.06,-1.42994l0.40998,-0.79997l-0.19999,-1.07996l0.62997,-1.98992l1.41994,-0.74997l1.05996,0.12999l1.81993,-0.58998l0.88996,1.19995l0.96996,0.72997l1.01996,-0.97996l1.06996,-0.27999l1.70993,0.48998l0.62997,-0.64997l2.26991,0.22999l2.4199,1.21995l1.80993,-1.32995l0.54998,-1.89992l-1.20995,-0.27999l-0.82997,-1.11996l-0.25999,-2.98988l0.41998,-0.69997l-0.13999,-1.41994l-0.61998,-1.16995l-0.18999,-1.42994l-0.78997,-0.27999l-0.58998,-0.94996l0.35999,-1.11996l-0.60998,-1.27995l0.56998,-0.99996l-0.23999,-1.54994l1.91992,-0.50998l2.01992,-1.77993l1.21995,-0.19999l0.84997,-1.94992l1.88992,-0.96996l-0.65997,-0.99996l0.27999,-1.07996l1.83993,-2.4299l0.66997,-0.18999l0.75997,-1.48994l0.07,-1.78993l2.22991,-2.5299l1.63993,-1.27995l0.82997,-1.34995l0.85997,-0.39998l0.80997,-1.31995l1.98992,-1.04996l-0.54998,-1.28995l-0.34999,-0.32999l-0.19999,0.03l-0.15999,-0.12999l-0.82997,-1.04996l-0.98996,-1.87992l-1.28995,0.84997l-1.69993,0.1l1.51994,-0.19999l1.01996,-0.93996l0.93996,0.21999l0.04,0.90996l0.80997,1.27995l0.33999,0.19999l0.01,0.16999l0.27999,0.42998l0.23999,-0.01l0.33999,0.31999l0.50998,0.98996l4.10984,-1.47994l1.25995,1.81993l0.75997,0.43998l0.14999,0.99996l0.91996,0.27999l0.82997,-1.00996l1.66993,-0.33999l1.76993,-1.41994l0.76997,0.13999l1.63993,1.85993l1.79993,-0.01l0.43998,-0.43998l2.29991,-0.06l0.70997,-1.92992l1.72993,1.64993l0.79997,0.18999l0.41998,1.14995l-0.19999,1.27995l0.71997,1.49994l1.14995,1.26995l-0.08,0.94996l0.84997,0.73997l1.54994,0.12999l0.81997,-0.57998l2.72989,-0.50998l1.09996,-1.39994l1.60994,1.42994l0.43998,1.24995l1.77993,-0.01l1.54994,2.5699l2.5099,0.46998l1.26995,-0.69997l0.58998,-1.67993l1.55994,-0.49998l1.66993,0.02l2.12991,0.46998l0.47998,0.64997l3.28987,0.14999l0.60998,1.57994"/></g></g></svg>