<svg version="1.1" xmlns="http://www.w3.org/2000/svg" xmlns:xlink="http://www.w3.org/1999/xlink" width="208" height="32" viewBox="0,0,208,32"><g transform="translate(-240,-164)"><g data-paper-data="{&quot;isPaintingLayer&quot;:true}" fill-rule="nonzero" stroke="none" stroke-linecap="butt" stroke-linejoin="miter" stroke-miterlimit="10" stroke-dasharray="" stroke-dashoffset="0" style="mix-blend-mode: normal"><path d="M240,196v-32h208v32z" fill="none" stroke-width="0"/><path d="M257.56,171.56v17.559h-2.3242v-1.5234h-10.469v1.5234h-2.3047v-17.559zM244.767,173.5424v4.8535h10.469v-4.8535zM244.767,180.3198v5.2344h10.469v-5.2344z" fill="#ffffff" stroke-width="1"/><path d="M274.27,177.58v7.2363h-6.5234v1.4453h-2.0801v-8.6816zM272.1899,179.3378h-4.4434v3.6621h4.4434zM267.6977,173.3026c0.35807,-1.0026 0.63477,-1.94987 0.83008,-2.8418l2.4414,0.32227c-0.36459,1.0026 -0.70965,1.84243 -1.0352,2.5195h8.5547v14.014c0,0.76827 -0.15951,1.30537 -0.47852,1.6113c-0.32552,0.30599 -0.95702,0.45899 -1.8945,0.45899c-1.47133,0 -2.57487,-0.05534 -3.3106,-0.16602l-0.41992,-2.041c1.21093,0.13021 2.30467,0.19532 3.2812,0.19532c0.32552,0 0.52734,-0.07813 0.60547,-0.23438c0.05207,-0.10417 0.0781,-0.25716 0.0781,-0.45898v-11.475h-12.666v14.297h-2.1387v-16.201z" fill="#ffffff" stroke-width="1"/><path d="M289.3,175.71v0.88867h2.6562v1.2012c0.931,-2.2982 1.55927,-4.7624 1.8848,-7.3926l1.7773,0.26367c-0.24088,1.37367 -0.472,2.49347 -0.69336,3.3594h1.0156c0.30599,-1.15233 0.54362,-2.3242 0.71289,-3.5156l1.709,0.3125c-0.24088,1.14587 -0.53059,2.21357 -0.86914,3.2031h2.0312v1.7578h-1.9043v2.4902h1.5625v1.6992h-1.5625v2.4316h1.5625v1.7285h-1.5625v2.6172h2.0996v1.7969h-4.8145v0.9375h-1.6602v-10.82c-0.14323,0.34505 -0.34506,0.78125 -0.60547,1.3086l-0.6836,-1.9629v2.3438h-2.6562v0.9375h2.793v1.416h-2.793c-0.013,0.44922 -0.02603,0.778 -0.0391,0.98633h3.3984v1.416h-3.584c-0.013,0.07161 -0.0358,0.17578 -0.0684,0.3125c1.2044,0.7096 2.37627,1.53967 3.5156,2.4902l-1.1621,1.4551c-0.8854,-0.8594 -1.83593,-1.6667 -2.8516,-2.4219l-0.10742,-0.0879c-0.7552,1.25653 -1.8392,2.2266 -3.252,2.9102l-1.2402,-1.5625c1.21747,-0.42969 2.11267,-1.04819 2.6856,-1.8555c0.22786,-0.3125 0.41992,-0.7259 0.57617,-1.2402h-2.9297v-1.416h3.2324c0.0456,-0.44922 0.07163,-0.778 0.0781,-0.98633h-2.7832v-1.416h2.793v-0.9375h-2.6562v-3.7598h2.6367v-0.88867h-1.6602v-2.1777h-0.97657l-1.5039,1.416c-0.625,-0.98307 -1.4974,-2.028 -2.6172,-3.1348l1.4844,-1.2598c0.80727,0.6706 1.59827,1.52347 2.373,2.5586v-1.0644h1.2402v-1.6797h1.6992v1.6797h1.7188v-1.6797h1.6797v1.6797h1.6211v1.4844h-1.6211v2.1777zM287.6398,177.8389h-1.2598v1.2988h1.2598zM289.2023,177.8389v1.2988h1.3184v-1.2988zM287.5812,173.5323v0.97656h1.7188v-0.97656zM294.9054,175.7882v2.4902h1.1719v-2.4902zM294.9054,179.9776v2.4316h1.1719v-2.4316zM294.9054,184.1378v2.6172h1.1719v-2.6172zM282.6594,179.7726c-0.95707,-1.32813 -1.80993,-2.36653 -2.5586,-3.1152l1.5234,-1.2793c0.97653,0.8724 1.85543,1.87827 2.6367,3.0176zM280.2961,188.1906c0.918,-1.9596 1.69927,-4.35217 2.3438,-7.1777l1.7578,0.87891c-0.5013,2.59767 -1.24023,5.15953 -2.2168,7.6856z" fill="#ffffff" stroke-width="1"/></g></g></svg>