<?xml version="1.0" encoding="UTF-8"?>
<svg width="80" height="80" version="1.1" viewBox="0 0 80 80" xmlns="http://www.w3.org/2000/svg">
 <rect width="80" height="80" fill-opacity="0"/>
 <path d="m38.133 17.092c-1.5787 1.536-3.116 3.329-4.6094 5.377-1.4507 2.0053-2.7721 4.2877-3.9668 6.8477-1.1947 2.5173-2.1555 5.2692-2.8809 8.2559-0.68267 2.9867-1.0234 6.1863-1.0234 9.5996v4.6719c0 2.3893 0.51116 4.5231 1.5352 6.4004 1.0667 1.8773 2.4753 3.3711 4.2246 4.4805 1.7748 1.0564 3.7805 1.5875 6.0156 1.5977v2e-3c0.01058 0 0.02068-0.0019 0.03125-2e-3 0.0112 2.6e-5 0.02199 2e-3 0.0332 2e-3v-2e-3c2.2347-0.01018 4.2187-0.54127 5.9512-1.5977 1.792-1.1093 3.2006-2.6031 4.2246-4.4805 1.0667-1.8773 1.5996-4.0111 1.5996-6.4004v-4.3516c0-2.3893-0.53294-4.5231-1.5996-6.4004-1.024-1.8773-2.4326-3.3493-4.2246-4.416-1.7325-1.0986-3.7165-1.6515-5.9512-1.6621v-2e-3c-0.01121 0-0.022 0.0019-0.0332 2e-3 -0.01057-2.4e-5 -0.02067-2e-3 -0.03125-2e-3v2e-3c-1.6703 0.0079-3.2118 0.31808-4.625 0.93359 0.57013-2.0163 1.2535-3.8279 2.0645-5.416 1.024-2.048 2.1988-3.8826 3.5215-5.5039 1.3227-1.664 2.6877-3.2628 4.0957-4.7988zm-0.67187 22.979c1.9033 0.0076 3.3649 0.64557 4.3828 1.918 1.0667 1.28 1.5996 3.1146 1.5996 5.5039v4.3516c0 2.3467-0.53294 4.1812-1.5996 5.5039-1.0179 1.2724-2.4795 1.9104-4.3828 1.918-1.862-0.0073-3.3242-0.64527-4.3848-1.918-1.0667-1.3227-1.5996-3.1572-1.5996-5.5039v-4.3516c0-2.3893 0.53294-4.2239 1.5996-5.5039 1.0606-1.2727 2.5227-1.9107 4.3848-1.918z" fill="#fff"/>
 <path d="m47.647 31.777v-4.212h14.716v4.212z" dominant-baseline="central" fill="#fff"/>
</svg>
