<svg xmlns="http://www.w3.org/2000/svg" xml:space="preserve" viewBox="0 0 480 360" version="1.1" height="360" width="480"><path style="paint-order:stroke markers fill" stroke-width="8" stroke-linejoin="round" stop-color="#000000" fill-opacity="0" d="m0.07585335 0h480v360h-480z"></path><path stroke-width="22.6772" stroke-linejoin="round" stroke-linecap="round" fill="#f651cc" d="m134.0758 206h8v23h-8z"></path><g fill="#fff"><path aria-label="v1.6.3" d="m69.0783 228.1977 4.68-15.15h2.73l-4.89 15.15zm-0.27 0-4.92-15.15h2.73l4.68 15.15zm11.12999-14.94-1.65-1.71 4.14-4.5v3.48zm2.49 14.94v-21.15h2.73v21.15zm8.249989 0.12q-0.75 0-1.26-0.51t-0.51-1.26 0.51-1.26q0.51-0.54 1.26-0.54t1.26 0.54q0.54 0.51 0.54 1.26t-0.54 1.26q-0.51 0.51-1.26 0.51zm4.875005-7.71q0-2.4 0.48-4.5 0.51-2.1 1.35-3.87 0.84-1.8 1.86-3.21 1.049998-1.44 2.159998-2.52l2.04 1.47q-0.99 1.08-1.92 2.25-0.93 1.14-1.649998 2.58-0.72 1.41-1.17 3.3-0.42 1.89-0.42 4.5zm0 2.19v-2.04h2.73v2.04zm8.339998 0v-2.04h2.73v2.04zm2.73 0q0 1.68-0.75 3-0.72 1.32-1.98 2.1-1.23 0.75-2.82 0.75v-2.37q1.35 0 2.07-0.9 0.75-0.93 0.75-2.58zm-11.07 0h2.73q0 1.65 0.75 2.58 0.75 0.9 2.069998 0.9v2.37q-1.589998 0-2.849998-0.75-1.23-0.78-1.98-2.1-0.72-1.32-0.72-3zm11.07-2.04h-2.73q0-1.68-0.75-2.58-0.72-0.9-2.07-0.9v-2.37q1.59 0 2.82 0.78 1.26 0.75 1.98 2.07 0.75 1.32 0.75 3zm-11.07 0q0-1.68 0.72-3 0.75-1.32 1.98-2.07 1.26-0.78 2.849998-0.78v2.37q-1.319998 0-2.069998 0.9t-0.75 2.58zm15.69003 7.56q-0.75 0-1.26-0.51t-0.51-1.26 0.51-1.26q0.51-0.54 1.26-0.54t1.26 0.54q0.54 0.51 0.54 1.26t-0.54 1.26q-0.51 0.51-1.26 0.51zm9.915-10.05v-2.37q1.14 0 1.86-0.99 0.75-0.99 0.75-2.55h2.73q0 1.71-0.69 3.06-0.66 1.32-1.86 2.1-1.2 0.75-2.79 0.75zm2.91 5.07v-2.1h2.73v2.1zm-4.74-5.07v-2.37h1.86v2.37zm4.44-5.88q0-1.5-0.75-2.46-0.72-0.96-1.86-0.96v-2.37q1.59 0 2.79 0.75 1.2 0.72 1.86 2.04 0.69 1.29 0.69 3zm3.03 10.92q0 1.53-0.72 2.76-0.72 1.2-1.98 1.92-1.26 0.69-2.85 0.69v-2.37q1.23 0 2.01-0.84 0.81-0.87 0.81-2.16zm0-2.04h-2.73q0-1.32-0.81-2.16-0.78-0.84-2.01-0.84v-2.37q1.59 0 2.85 0.69t1.98 1.92 0.72 2.76zm-8.46-9.69-2.52-0.51q0.18-1.32 0.9-2.31 0.75-1.02 1.92-1.59t2.55-0.57v2.37q-1.08 0-1.89 0.63t-0.96 1.98zm0.09 12.12q0.15 1.32 0.93 1.98 0.81 0.63 1.92 0.63v2.37q-1.41 0-2.58-0.57-1.14-0.57-1.89-1.59-0.72-1.02-0.9-2.31z"></path><path aria-label="2024/02/10" d="m60.89276 269.7449q0.01-0.67 0.19-1.15 0.19-0.49 0.48-0.84 0.3-0.36 0.63-0.65 0.33-0.3 0.62-0.59 0.29-0.3 0.48-0.64 0.19-0.35 0.19-0.82 0 0 0.09 0t0.22 0q0.14 0 0.28 0t0.23 0 0.09 0q0 0.62-0.19 1.06-0.19 0.43-0.49 0.76-0.29 0.33-0.63 0.62-0.33 0.28-0.63 0.59-0.29 0.31-0.48 0.71-0.19 0.39-0.2 0.95zm0 0.81v-0.81h3.49v0.81zm0.7-5.62-0.84-0.17q0.06-0.44 0.3-0.77 0.25-0.34 0.64-0.53t0.85-0.19v0.79q-0.36 0-0.63 0.21t-0.32 0.66zm2.8 0.13h-0.91q0-0.44-0.27-0.72t-0.68-0.28v-0.79q0.53 0 0.95 0.24 0.42 0.23 0.66 0.64 0.25 0.4 0.25 0.91zm3.809998 3.69v-3.45h0.91v3.45zm-2.81 0v-3.45h0.91v3.45zm1.83-4.62v-0.78h0.06v0.78zm0 6.57v-0.79h0.06v0.79zm-1.83-5.4q0-0.57 0.24-1 0.25-0.44 0.66-0.69 0.42-0.26 0.95-0.26v0.78q-0.44 0-0.69 0.31-0.25 0.3-0.25 0.86zm3.72 0h-0.91q0-0.56-0.25-0.86-0.24-0.31-0.69-0.31v-0.78q0.53 0 0.94 0.26 0.42 0.25 0.66 0.69 0.25 0.43 0.25 1zm-3.72 3.45h0.91q0 0.55 0.25 0.86 0.25 0.3 0.69 0.3v0.79q-0.53 0-0.95-0.25-0.41-0.26-0.66-0.7-0.24-0.44-0.24-1zm3.72 0q0 0.56-0.25 1-0.24 0.44-0.66 0.7-0.41 0.25-0.94 0.25v-0.79q0.45 0 0.69-0.3 0.25-0.31 0.25-0.86zm1.290004 0.99q0.01-0.67 0.19-1.15 0.19-0.49 0.48-0.84 0.3-0.36 0.63-0.65 0.33-0.3 0.62-0.59 0.29-0.3 0.48-0.64 0.19-0.35 0.19-0.82 0 0 0.09 0t0.22 0q0.14 0 0.28 0t0.23 0 0.09 0q0 0.62-0.19 1.06-0.19 0.43-0.49 0.76-0.29 0.33-0.63 0.62-0.33 0.28-0.63 0.59-0.29 0.31-0.48 0.71-0.19 0.39-0.2 0.95zm0 0.81v-0.81h3.49v0.81zm0.7-5.62-0.84-0.17q0.06-0.44 0.3-0.77 0.25-0.34 0.64-0.53t0.85-0.19v0.79q-0.36 0-0.63 0.21t-0.32 0.66zm2.8 0.13h-0.91q0-0.44-0.27-0.72t-0.68-0.28v-0.79q0.53 0 0.95 0.24 0.42 0.23 0.66 0.64 0.25 0.4 0.25 0.91zm0.750007 3.2 1.82-4.76h0.91l-1.82 4.76zm0 0.81v-0.81h4.12v0.81zm2.5 1.48v-3.99h0.85v3.99zm2.269995 0 2.04-7.05h0.84l-2.04 7.05zm6.464988-1.8v-3.45h0.91v3.45zm-2.81 0v-3.45h0.91v3.45zm1.83-4.62v-0.78h0.06v0.78zm0 6.57v-0.79h0.06v0.79zm-1.83-5.4q0-0.57 0.24-1 0.25-0.44 0.66-0.69 0.42-0.26 0.95-0.26v0.78q-0.44 0-0.69 0.31-0.25 0.3-0.25 0.86zm3.72 0h-0.91q0-0.56-0.25-0.86-0.24-0.31-0.69-0.31v-0.78q0.53 0 0.94 0.26 0.42 0.25 0.66 0.69 0.25 0.43 0.25 1zm-3.72 3.45h0.91q0 0.55 0.25 0.86 0.25 0.3 0.69 0.3v0.79q-0.53 0-0.95-0.25-0.41-0.26-0.66-0.7-0.24-0.44-0.24-1zm3.72 0q0 0.56-0.25 1-0.24 0.44-0.66 0.7-0.41 0.25-0.94 0.25v-0.79q0.45 0 0.69-0.3 0.25-0.31 0.25-0.86zm1.290003 0.99q0.01-0.67 0.19-1.15 0.19-0.49 0.48-0.84 0.3-0.36 0.63-0.65 0.33-0.3 0.62-0.59 0.29-0.3 0.48-0.64 0.19-0.35 0.19-0.82 0 0 0.09 0t0.22 0q0.14 0 0.28 0t0.23 0 0.09 0q0 0.62-0.19 1.06-0.19 0.43-0.49 0.76-0.29 0.33-0.63 0.62-0.33 0.28-0.63 0.59-0.29 0.31-0.48 0.71-0.19 0.39-0.2 0.95zm0 0.81v-0.81h3.49v0.81zm0.7-5.62-0.84-0.17q0.06-0.44 0.3-0.77 0.25-0.34 0.64-0.53t0.85-0.19v0.79q-0.36 0-0.63 0.21t-0.32 0.66zm2.8 0.13h-0.91q0-0.44-0.27-0.72t-0.68-0.28v-0.79q0.53 0 0.95 0.24 0.42 0.23 0.66 0.64 0.25 0.4 0.25 0.91zm0.699999 5.49 2.04-7.05h0.84l-2.04 7.05zm3.930002-4.98-0.55-0.57 1.38-1.5v1.16zm0.83 4.98v-7.05h0.91v7.05zm4.970004-1.8v-3.45h0.91v3.45zm-2.809999 0v-3.45h0.909999v3.45zm1.829999-4.62v-0.78h0.06v0.78zm0 6.57v-0.79h0.06v0.79zm-1.829999-5.4q0-0.57 0.24-1 0.25-0.44 0.659999-0.69 0.42-0.26 0.95-0.26v0.78q-0.44 0-0.69 0.31-0.25 0.3-0.25 0.86zm3.719999 0h-0.91q0-0.56-0.25-0.86-0.24-0.31-0.69-0.31v-0.78q0.53 0 0.94 0.26 0.42 0.25 0.66 0.69 0.25 0.43 0.25 1zm-3.719999 3.45h0.909999q0 0.55 0.25 0.86 0.25 0.3 0.69 0.3v0.79q-0.53 0-0.95-0.25-0.409999-0.26-0.659999-0.7-0.24-0.44-0.24-1zm3.719999 0q0 0.56-0.25 1-0.24 0.44-0.66 0.7-0.41 0.25-0.94 0.25v-0.79q0.45 0 0.69-0.3 0.25-0.31 0.25-0.86z"></path><path d="m113.4779 270.0671q0.76465-1.125 1.31397-2.75537 0.59765-1.78418 0.75586-3.62549l1.00635 0.20654q-0.39112 2.69824-1.0503 4.53516-0.47461 1.33594-1.16894 2.34228zm7.00049 0.74707q-0.78222-1.31397-1.43262-3.16846-0.61962-1.77099-1.02392-3.76172l0.95361-0.29443q0.75586 3.79248 2.37744 6.56103zm0.3208-8.04639q0.29444 0 0.5625 0.1626 0.26367 0.1582 0.40869 0.43066 0.13184 0.2461 0.13184 0.51416 0 0.43067-0.30762 0.76026-0.32519 0.34717-0.8042 0.34717-0.2373 0-0.45703-0.10108-0.27246-0.12744-0.44385-0.37353-0.20214-0.29004-0.20214-0.63721 0-0.26807 0.13623-0.51856 0.13623-0.25048 0.36914-0.40429 0.27685-0.18018 0.60644-0.18018zm-4e-3 0.54053q-0.1626 0-0.30762 0.0923-0.25928 0.1626-0.25928 0.47901 0 0.22412 0.15381 0.38672 0.16699 0.17578 0.41309 0.17578 0.14062 0 0.25928-0.0615 0.30761-0.15821 0.30761-0.50098 0-0.2417-0.17138-0.40869-0.15821-0.1626-0.39551-0.1626zm2.65869 4.60986q-0.31641-1.35351-0.85693-2.50049l0.83496-0.40869q0.5581 1.14258 0.90966 2.56641zm2.03906-0.3955q-0.24609-1.07667-0.80859-2.4917l0.86572-0.36036q0.50537 1.11182 0.84375 2.51807zm-1.3667 2.73339q1.46778-0.39111 2.24121-1.05468 0.77344-0.66358 1.17774-1.91602 0.3164-0.99316 0.46142-2.55322l0.93604 0.27685q-0.26367 2.06104-0.73389 3.15967-0.57129 1.34473-1.71387 2.07422-0.72509 0.46582-1.85449 0.82617zm13.88672-4.59668h-1.94238q-0.0483 1.67432-0.34717 2.60596-0.33838 1.06348-1.14258 1.7666-0.68115 0.60645-1.77978 1.01953l-0.61963-0.74707q1.0415-0.41748 1.62597-0.94482 0.8042-0.7207 1.06788-1.92481 0.14941-0.67236 0.17578-1.77539h-2.64551q-0.58008 1.11621-1.63037 1.94239l-0.67236-0.66358q1.73583-1.35791 2.1665-3.82763l0.97558 0.25488q-0.18896 0.81738-0.41748 1.40185h5.18555zm0.79102 0.82618h7.73877v0.98877h-7.73877zm12.0542-1.29639q-1.29639-0.58008-2.64551-0.97119l0.28564-0.87012q1.52051 0.37793 2.66748 0.92285zm-0.90088 2.25q-1.08106-0.47461-2.64551-0.97119l0.37793-0.87891q1.34473 0.35596 2.61035 0.94483zm-2.07862 2.42139q1.70069-0.13623 2.69825-0.4878 2.5664-0.90967 3.27832-4.12646l0.90088 0.54053q-0.58448 2.46533-2.17969 3.66943-1.0459 0.79101-2.59278 1.125-0.74267 0.1626-1.82373 0.26367zm5.56348-5.08448q-0.28125-0.69433-0.90088-1.54687l0.69434-0.25049q0.5581 0.75586 0.89648 1.5293zm1.33154-0.2417q-0.36474-0.86572-0.8833-1.56445l0.65039-0.21094q0.52295 0.60645 0.8877 1.48535zm3.57276 0.3208v6.47315h-1.00635v-4.80762q-0.55371 0.78662-1.15137 1.39746l-0.50537-0.9624q1.63477-1.69629 2.48291-4.17041l0.97998 0.25488q-0.35156 0.94922-0.7998 1.81494zm2.47412 0.95362q1.37109-0.646 2.40381-1.41065l0.75586 0.72071q-1.54248 1.01513-3.15967 1.63037v3.03222q0 0.27247 0.27685 0.3252 0.20215 0.0395 0.73389 0.0395 0.54492 0 0.93604-0.0439 0.3164-0.0308 0.36914-0.29443 0.10986-0.54053 0.13183-1.46777l1.00635 0.30762q-0.0395 1.18212-0.1582 1.65234-0.13623 0.54053-0.58887 0.68555-0.46582 0.1538-1.47217 0.1538-1.57763 0-1.92041-0.22412-0.30322-0.19775-0.30322-0.77343v-7.09278h0.98877zm8.91211 0.70312q-4e-3 1.52051-0.17578 2.54883-0.21094 1.24805-0.8042 2.25879l-0.70313-0.66797q0.46582-0.85254 0.63721-2.05664 0.13623-0.94922 0.13623-2.27197v-2.94873h4.35498v0.86572h-3.44531v1.43701h2.78174l0.51855 0.50098q-0.25049 1.22607-0.5625 2.0083-0.25488 0.6416-0.58887 1.16894 0.61963 0.63282 1.59522 1.125l-0.57569 0.91846q-0.86132-0.54492-1.56445-1.30078-0.59765 0.71191-1.63916 1.39307l-0.61523-0.74707q0.64599-0.36475 1.05908-0.73389 0.29004-0.25049 0.62402-0.65039-0.85693-1.2832-1.02392-2.84766zm1.55566 2.09619q0.50977-0.87451 0.75586-2.09619h-1.51611q0.17138 1.17774 0.76025 2.09619zm-5.07568-3.31787h0.70312v-2.43017h0.87452v2.43017h0.7207v0.83496h-2.29834v1.21729h1.7666v4.06934h-0.86572v-3.25196h-0.91407q-0.0483 1.07227-0.2373 1.87647-0.17578 0.72949-0.53174 1.41943l-0.75586-0.71191q0.646-1.2876 0.646-3.35743v-4.20996h0.89209zm7.84863-1.3623q4.04297-0.0615 7.64209-0.20654l0.0527 0.87451q-1.58643 0.0791-2.46973 0.4834-0.84375 0.38671-1.35352 1.07226-0.58007 0.77783-0.58007 1.73145 0 0.94922 0.65917 1.42382 0.75586 0.54053 2.32032 0.74268l-0.20655 0.98877q-2.03906-0.27246-2.86962-1.05469-0.89209-0.83496-0.89209-2.07422 0-1.125 0.80859-2.10058 0.58887-0.71631 1.61279-1.15137-1.81494 0.0615-4.68017 0.20654zm6.38965 3.79248q-0.25928-0.68994-0.87451-1.56445l0.68554-0.25489q0.54932 0.75586 0.88331 1.54688zm1.18652-0.46143q-0.31201-0.80859-0.87011-1.57324l0.65478-0.23291q0.51416 0.62402 0.87451 1.51172zm6.67969-4.07373h0.9624v1.59082h1.79297v0.87451h-1.79297v2.69825q1.04151 0.479 2.06104 1.34472l-0.49219 0.87012q-0.86133-0.75146-1.57764-1.19531-0.0791 1.07666-0.76464 1.4414-0.38233 0.20215-1.0459 0.20215-0.72071 0-1.25244-0.25927-0.8042-0.39112-0.8042-1.30079 0-0.7163 0.61084-1.13818 0.5581-0.38672 1.43261-0.38672 0.39991 0 0.87012 0.10108v-2.37745h-2.82568v-0.87451h2.82568zm0 5.69532q-0.51416-0.1626-0.91406-0.1626-0.38233 0-0.65039 0.11865-0.42188 0.18018-0.42188 0.58887 0 0.33398 0.30762 0.52295 0.29883 0.18457 0.7998 0.18457 0.87891 0 0.87891-0.98877zm-4.77246 2.11376q-0.15381-1.45019-0.15381-3.0498 0-2.49609 0.33399-4.75928l0.96679 0.14063q-0.32959 1.95117-0.32959 4.21875 0 1.66553 0.16699 3.30029zm10.45019 0.27247q-0.81298-1.18653-1.83691-2.19727l0.71191-0.62842q1.06348 1.01074 1.87208 2.14893zm6.21827-2.88282v2.5752h-1.96875v0.45264h-0.84815v-3.02784zm-1.96875 0.75586v1.07227h1.13379v-1.07227zm5.81396-4.47802h0.70313q-0.19336-0.68555-0.60645-1.40625l0.69434-0.33399q0.40429 0.61084 0.67675 1.37109l-0.70751 0.36915h0.92285v0.85693h-1.62598q0.23291 2.83887 0.61523 4.10449 0.12745 0.42627 0.18018 0.42627 0.0791 0 0.20215-1.17334l0.73828 0.53174q-0.22852 1.99951-0.83057 1.99951-0.30322 0-0.6372-0.49658-0.52295-0.77783-0.79981-2.3335-0.16699-0.91845-0.29004-2.13135-0.0747-0.72509-0.0879-0.92724h-2.61474v-0.85693h2.56201q-0.0439-0.7295-0.0571-1.80176h0.90967q0.0132 1.11181 0.0527 1.80176zm-1.70068 2.75097v1.9336l0.0615-0.0176q0.55371-0.14063 1.00195-0.29444l0.0879 0.79102q-1.38428 0.50098-2.89161 0.81738l-0.29443-0.8789q0.49219-0.0835 1.0415-0.19776l0.12745-0.022v-2.13135h-0.91846v-0.77344h2.64111v0.77344zm-4.81641-4.22754h2.51807v0.73828h-2.51807zm-0.37793 1.2876h3.17725v0.79102h-3.17764zm0.37793 1.34912h2.51807v0.72949h-2.51807zm0 1.2876h2.51807v0.71191h-2.51807zm14.81836 2.21045q-0.48779 1.42822-1.85889 2.15332l-0.5581-0.75586q1.43262-0.61963 1.83691-2.0083h-1.48535v-2.35547h1.56006v-0.7207h-0.74268v-0.28125q-0.44824 0.45703-0.90527 0.77783l-0.45264-0.76465q1.34913-0.82617 1.99073-2.45215h0.93603q0.52295 0.9624 1.19531 1.58643 0.43506 0.40429 1.01514 0.72949l-0.47461 0.78223q-0.49658-0.31202-0.9624-0.7251v0.34717h-0.73828v0.7207h1.59082v2.35547h-1.48096q0.32959 0.63281 0.72949 1.02832 0.53614 0.53613 1.27442 0.92285l-0.50537 0.79541q-0.79102-0.41748-1.292-1.01953-0.36914-0.44824-0.67236-1.11621zm-0.479-2.2544h-0.79541v0.94043h0.79541zm0.80859 0v0.94043h0.81738v-0.94043zm0.36475-2.18847q-0.45703-0.51416-0.82178-1.2085-0.25928 0.6416-0.70752 1.2085zm-2.92237 2.27636q-0.0395 2.75098-0.25488 3.61231-0.10107 0.39551-0.35596 0.54053-0.18896 0.10547-0.61084 0.10547-0.49218 0-0.85693-0.0571l-0.11865-0.83496q0.479 0.0967 0.84375 0.0967 0.25928 0 0.33838-0.13624 0.0747-0.14501 0.14502-0.80859l-0.42627 0.18897q-0.17139-1.02393-0.36914-1.66114l0.46582-0.17138q0.25488 0.66357 0.35156 1.34912 0.0439-0.53174 0.0659-1.50293h-2.91797v-4.72852h3.71777v0.73828h-1.27881v0.6416h1.0459v0.67676h-1.0459v0.62842h1.0459v0.66797h-1.0459v0.65478zm-2.87402-3.26953v0.6416h0.81299v-0.6416zm0 1.31836v0.62842h0.81299v-0.62842zm0 1.29639v0.65478h0.81299v-0.65478zm-1.24805 3.89355q0.25928-0.99755 0.33399-2.12255l0.6372 0.0967q-0.0351 1.39746-0.28564 2.46533zm1.16895 0q0-1.05468-0.0967-1.98632l0.53174-0.10108q0.13623 0.8833 0.16699 1.95996zm0.8833-0.2417q-0.0747-0.99316-0.2417-1.81933l0.44824-0.14502q0.28125 0.97559 0.33399 1.80176zm14.42725-4.93945h-2.11817q-0.34717 0.84815-0.8789 1.49414l-0.58448-0.50097v3.9375h-2.50927v0.68115h-0.91846v-6.56104h1.11621l0.0395-0.14062q0.1626-0.63721 0.24609-1.25244l1.00635 0.14062q-0.17139 0.69873-0.4043 1.25244h1.42383v1.71387q0.76905-1.16016 1.11621-3.06299l0.95362 0.1626q-0.15821 0.71631-0.30762 1.26123h2.78174q-0.0264 4.67139-0.34278 6.04687-0.13183 0.58448-0.48339 0.78223-0.27246 0.15381-0.83496 0.15381-0.62403 0-1.27002-0.0747l-0.18018-0.96679q0.98437 0.10546 1.25684 0.10546 0.3208 0 0.43505-0.11425 0.32081-0.3252 0.44825-4.77246zm-6.09082-0.14062v1.6875h1.5996v-1.6875zm0 2.43457v1.81933h1.5996v-1.81933zm4.56152 1.59961q-0.54492-1.33594-1.23926-2.25879l0.73828-0.5669q0.83496 1.08985 1.34912 2.24121zm3.99463 1.9292q-0.16699-1.49415-0.16699-2.97071 0-2.53125 0.37353-4.80761l0.9668 0.10107q-0.35596 1.96875-0.35596 4.44287 0 1.66113 0.18457 3.10693zm2.63672-6.96094h4.22314v0.93603h-4.22314zm4.52197 6.42041q-0.87891 0.13623-2.0874 0.13623-3.03662 0-3.03662-1.78418 0-0.70752 0.37793-1.23486l0.83056 0.36914q-0.2373 0.33398-0.2373 0.75146 0 0.51416 0.51416 0.70752 0.57129 0.21973 1.56006 0.21973 1.06787 0 1.97753-0.14063zm2.75537-3.06738q-0.59766 1.29638-1.37549 2.11376l-0.51416-0.81298q0.86133-0.86573 1.70947-2.59717-0.0483-0.23291-0.12304-0.54053-0.54932 0.5669-1.11621 1.04151l-0.47901-0.78223q0.76905-0.5625 1.27881-1.14697-0.33838-0.70752-0.92724-1.22168l0.65478-0.47461q0.57568 0.46582 0.86133 0.93603 0.28125-0.39551 0.63281-1.06347l0.78662 0.50537q-0.51855 0.8042-1.00195 1.41504 0.5581 1.5205 0.5581 3.62109 0 1.61279-0.32959 2.38184-0.14941 0.35156-0.40869 0.48339-0.19775 0.0967-0.53613 0.0967-0.50098 0-0.89209-0.0967l-0.18018-0.92724q0.55372 0.11865 0.84815 0.11865 0.26807 0 0.35596-0.13623 0.0527-0.0791 0.0923-0.25049 0.14063-0.61523 0.14063-1.73584 0-0.4834-0.0352-0.92724zm3.4541-2.95313v-1.61279h0.89209v1.61279h2.01709v3.55957h-2.01709v1.9292q0.61084-0.0791 1.125-0.1582-0.22851-0.59766-0.54931-1.2041l0.7998-0.29883q0.69434 1.16015 1.13818 2.70263l-0.8833 0.41309q-0.10107-0.45703-0.24609-0.89209-0.10547 0.022-0.21533 0.0483-1.68311 0.39551-4.27149 0.62842l-0.27246-0.91846q1.19092-0.0791 2.34229-0.20215l0.14062-0.0132v-2.03467h-1.95117v-3.55957zm-1.11621 0.82617v1.90723h1.11621v-1.90723zm3.17725 1.90723v-1.90723h-1.16895v1.90723zm5.00537-3.1333q0.20654-0.5625 0.34717-1.21289l1.125 0.18017q-0.18018 0.52735-0.4087 1.03272h3.22559v7.33887h-0.99756v-0.62403h-4.65381v0.62403h-0.98037v-7.33887zm-1.36231 0.82617v1.13818h4.65381v-1.13818zm0 1.92041v1.125h4.65381v-1.125zm0 1.89844v1.23486h4.65381v-1.23486zm11.77735 1.35791q2.57959-0.65039 2.57959-2.95752 0-1.00635-0.51856-1.73145-0.58008-0.81738-1.7666-1.05029-0.25928 2.03906-0.70752 3.33984-0.30762 0.90967-0.76465 1.71827-0.65918 1.15136-1.49853 1.15136-0.62403 0-1.11182-0.5625-0.31201-0.35595-0.50537-0.87451-0.25488-0.67236-0.25488-1.4458 0-1.25244 0.68994-2.30713 0.69873-1.07666 1.81494-1.56445 0.81299-0.35596 1.78418-0.35596 1.51611 0 2.57519 0.81299 1.30079 0.99756 1.30079 2.82568 0 3.06299-3.09815 3.88477zm-0.65918-5.77442q-0.77783 0.0879-1.30078 0.41748-0.33399 0.21534-0.66358 0.57129-0.91406 1.01075-0.91406 2.34229 0 0.97119 0.38672 1.52051 0.2373 0.33838 0.47021 0.33838 0.31641 0 0.71192-0.69874 0.96679-1.70068 1.30957-4.49121zm11.38183-0.0747 0.68555 0.56689q-0.49658 2.77734-1.82373 4.24512-1.2085 1.33594-3.63867 2.06543l-0.54932-0.89209q2.22803-0.5625 3.39258-1.81934 1.12939-1.21289 1.51172-3.26513h-2.96192q-0.92285 1.39746-2.1665 2.23242l-0.7207-0.72949q1.01074-0.6504 1.64795-1.41504 0.7207-0.87012 1.125-2.0962l0.95361 0.25928q-0.1582 0.46143-0.34277 0.84815zm2.54883-0.7295h5.79639v0.90088h-5.79639zm-0.62842 2.15332h7.3169q-0.19336 1.91602-0.79981 2.99708-0.45703 0.81298-1.14257 1.29638-1.16016 0.82617-3.375 1.13379l-0.44385-0.89209q1.95556-0.18896 2.99267-0.89648 1.34473-0.90967 1.54248-2.7378h-6.09082zm11.62354-2.60156h0.98877v1.43262h3.11572q-0.0439 2.07422-0.47461 3.32227-0.479 1.41064-1.53369 2.14453-1.00195 0.69873-2.54883 1.10302l-0.49219-0.83056q1.33594-0.28125 2.3335-0.98438 0.79541-0.5581 1.17773-1.50293 0.4087-1.00635 0.43946-2.36865h-4.94385v2.13135h-1.02393v-3.01465h2.96192zm6.09082 0.0615h1.02392v2.61035q2.62354 0.81299 4.3462 1.65674l-0.49219 0.94482q-1.65235-0.83936-3.85401-1.59522v4.37696h-1.02392zm3.854 2.36865q-0.26806-0.69873-0.89209-1.63037l0.68116-0.25049q0.54492 0.75146 0.90966 1.59961zm1.25684-0.29004q-0.32959-0.85254-0.87891-1.63477l0.65479-0.21533q0.49658 0.60205 0.89209 1.5293zm3.72217 3.6123q-0.81739 0.55371-1.59082 0.83936l-0.60205-0.67676q2.10498-0.71191 3.0498-1.96435l0.89209 0.21972q-0.18896 0.2461-0.37793 0.43946h3.03223l0.5581 0.47021q-0.66797 0.8042-1.89404 1.64795 1.37988 0.46582 3.15527 0.70752l-0.49658 0.91846q-2.0918-0.39991-3.58154-1.09424-1.66992 0.81738-3.8628 1.12939l-0.43945-0.83496q1.73584-0.13623 3.42774-0.78223l-0.0483-0.0308q-0.69434-0.46142-1.22168-0.98877zm0.7207-0.41308q0.58447 0.54053 1.48535 1.00195 0.94043-0.54053 1.32276-1.00195zm1.67432-4.71973h3.64746v0.76465h-2.54883v1.96875q0 0.43066-0.23291 0.58887-0.19336 0.13183-0.646 0.13183-0.42627 0-0.92285-0.0703l-0.11426-0.76465q0.47901 0.0791 0.8042 0.0791 0.12744 0 0.14942-0.0571 0.0176-0.0396 0.0176-0.13183v-1.74463h-1.13378q0 0.95801-0.21534 1.50293-0.37793 0.9624-1.4414 1.37549l-0.66358-0.61084q0.82178-0.3208 1.11182-0.82617 0.16699-0.29004 0.23291-0.69434 0.0395-0.2373 0.0571-0.74707h-2.66309v-0.76465h3.59912v-0.80859h0.96241zm2.9707 3.26953q-0.65039-0.97998-1.50293-1.82812l0.7207-0.4878q0.83496 0.72071 1.52051 1.72266zm-7.72998-0.63281q0.90088-0.68994 1.33154-1.59961l0.81738 0.30322q-0.61084 1.26123-1.56445 1.95557zm14.88867 2.60156q-0.54492-0.8833-0.86572-2.10058-0.18897 0.38232-0.40869 0.75146l-0.59766-0.79101q0.89209-1.41065 1.24365-3.88038l0.90967 0.12745q-0.13623 0.72509-0.29443 1.3667h2.68945v0.85693h-0.69434l-4e-3 0.0659q-0.12305 1.37988-0.50977 2.56201-0.20214 0.61084-0.42627 1.03711 0.68116 0.83056 1.73145 1.58203l-0.49219 0.90088q-0.89648-0.646-1.66552-1.61279l-0.0615-0.0703q-0.7251 1.02393-1.74902 1.74463l-0.59326-0.71191q1.08105-0.74707 1.78857-1.82813zm0.46582-0.87451q0.44824-1.09424 0.61524-2.79492h-1.34034q-0.0791 0.25928-0.12304 0.37353 0.29004 1.41065 0.84814 2.42139zm-2.38623 0.3999q-0.16699 0.66797-0.58447 1.32276 0.3164 0.14941 0.87451 0.43066l-0.51416 0.8042q-0.39551-0.26807-0.92725-0.57568-0.83935 0.72509-2.13574 1.02392l-0.53174-0.73828q1.08106-0.18017 1.83252-0.71191-0.67676-0.30762-1.4458-0.54932 0.31641-0.48779 0.58447-1.00635h-1.08544v-0.73828h1.42822q0.11865-0.27685 0.28125-0.72949l0.15381 0.0308v-1.17334q-0.57569 0.79541-1.48536 1.41504l-0.52294-0.66797q0.86572-0.49219 1.604-1.31396h-1.45898v-0.74707h1.86328v-1.64795h0.8833v1.64795h1.6084v0.74707h-1.6084v0.14062q0.61523 0.25488 1.37549 0.69434l-0.43946 0.7207-0.12744-0.10107q-0.39551-0.31641-0.80859-0.59766v1.09424h-0.23731q-0.0879 0.26367-0.18017 0.48779h2.24121v0.73828zm-0.88769 0h-1.03272q-0.21533 0.44825-0.33398 0.65039 0.38232 0.12305 0.86572 0.3208 0.30762-0.40429 0.50098-0.97119zm-2.36426-3.94189q-0.20655-0.60645-0.53174-1.17334l0.70312-0.29443q0.39991 0.65917 0.61084 1.15136zm2.39502-0.29004q0.3208-0.58447 0.50537-1.21289l0.81738 0.28564q-0.0395 0.0879-0.0835 0.18457-0.29003 0.646-0.54492 1.01514zm11.38183-1.06348h0.98877v1.77539h1.76221v0.90088h-1.76221v0.27686q0 2.24121-0.6416 3.36621-0.61963 1.08105-2.18408 1.65674l-0.61524-0.78223q1.5293-0.52734 2.04786-1.62598 0.40429-0.84814 0.40429-2.60156v-0.29004h-2.66748v2.51807h-0.98877v-2.51807h-1.63916v-0.90088h1.63916v-1.70947h0.98877v1.70947h2.66748zm3.58594 3.34864h7.73877v0.98877h-7.73877zm8.5166 3.58154q0.76465-1.125 1.31397-2.75537 0.59765-1.78418 0.75586-3.62549l1.00634 0.20654q-0.39111 2.69824-1.05029 4.53516-0.47461 1.33594-1.16894 2.34228zm7.09278 0.74707q-1.59082-2.64111-2.45655-6.93018l0.95362-0.29443q0.76464 3.83203 2.37304 6.56103zm-0.46143-6.09082q-0.25488-0.69873-0.8877-1.62158l0.68995-0.25049q0.50537 0.69433 0.90966 1.59082zm1.26123-0.19776q-0.33838-0.87451-0.8833-1.63916l0.65918-0.21533q0.52295 0.6416 0.89209 1.54688zm1.14258 1.95997h7.73877v0.98877h-7.73877zm9.18017-2.39063h2.36866q0.39111-0.62402 0.59326-1.00635l0.97998 0.14063q-0.13184 0.2373-0.46582 0.77344l-0.0571 0.0923h3.09814v0.86572h-3.68261q-0.57569 0.79102-1.09864 1.3711 0.83057-0.49658 1.51612-0.49658 1.06347 0 1.39306 1.06787 1.125-0.37354 2.29395-0.73829l0.37793 0.85254-0.15381 0.0439-0.43506 0.11426q-1.23047 0.33398-1.96875 0.57129 0.0527 0.57129 0.0747 1.47656l-0.9624 0.0527q-4e-3 -0.52295-0.0176-1.13379v-0.0879q-2.02149 0.68994-2.02149 1.38868 0 0.36035 0.51856 0.49218 0.50097 0.12744 1.79297 0.12744 1.19091 0 2.50049-0.13623l0.10546 0.93604q-1.27002 0.0967-2.63232 0.0967-1.67871 0-2.38623-0.25488-0.87451-0.31641-0.87451-1.13819 0-0.69433 0.61963-1.22607 0.6416-0.54932 2.25879-1.13379-0.0879-0.33838-0.23291-0.47461-0.1626-0.15381-0.43067-0.15381-0.43506 0-1.09424 0.32959-0.81299 0.4043-1.74463 1.21729l-0.58447-0.66797q1.3667-1.27002 2.14014-2.4961h-1.78858zm13.15284 1.17774v-0.73829h-2.42139v-0.78222h2.42139v-0.89209h0.90966v0.89209h2.70704v0.78222h-2.70704v0.73829h2.28516v2.79052h-2.29834q-0.0527 0.89209-0.33398 1.44141 1.42382 0.71631 3.16406 0.98877l-0.46143 0.91846q-1.80615-0.44825-3.19482-1.22168-0.78223 0.83056-2.28516 1.29199l-0.51416-0.77344q1.27002-0.26367 2.01709-0.99316-0.62842-0.41748-1.3667-1.01514l0.63282-0.52734q0.62402 0.50976 1.22607 0.88769 0.19336-0.41748 0.2417-0.99756h-2.27197v-2.79052zm0 0.73828h-1.35791v1.31396h1.35791zm0.90966 0v1.31396h1.38428v-1.31396zm-3.82763-1.03272v6.4336h-0.93604v-4.50879q-0.28564 0.48779-0.73828 1.10742l-0.44824-0.98877q0.72949-1.01514 1.22607-2.3291 0.29883-0.78223 0.61084-1.89405l0.94483 0.2417q-0.33838 1.13379-0.65918 1.93799zm14.84033-1.66113v7.02685q0 0.44825-0.1626 0.65039-0.20215 0.25049-0.81738 0.25049-0.68555 0-1.21729-0.0527l-0.17138-0.94483q0.69873 0.0879 1.15576 0.0879 0.18457 0 0.21973-0.0835 0.022-0.0571 0.022-0.16699v-1.73584h-2.15332v2.65429h-0.94483v-2.65429h-2.06103q-0.0395 0.91406-0.17578 1.51611-0.19336 0.82178-0.7251 1.55127l-0.82617-0.68115q0.50976-0.67676 0.67236-1.63916 0.0923-0.55811 0.0923-1.25684v-4.52197zm-6.12158 0.84814v1.27002h2.05224v-1.27002zm0 2.06983v1.30517h2.05224v-1.30517zm5.15039 1.30517v-1.30517h-2.15332v1.30517zm0-2.10498v-1.27002h-2.15332v1.27002zm2.99707-2.20605h1.03711v5.23828q0 1.65674 1.74023 1.65674 1.14697 0 1.88086-1.05908 0.47461-0.68116 0.85254-2.10938l0.89209 0.54053q-0.44824 1.58642-1.07666 2.37304-0.98877 1.22608-2.5708 1.22608-1.65234 0-2.3291-1.01953-0.42627-0.63721-0.42627-1.64356zm7.25537 0.69873q4.04297-0.0615 7.64209-0.20654l0.0527 0.87451q-1.58642 0.0791-2.46972 0.4834-0.84375 0.38671-1.35352 1.07226-0.58008 0.77783-0.58008 1.73145 0 0.94922 0.65918 1.42382 0.75586 0.54053 2.32032 0.74268l-0.20655 0.98877q-2.03906-0.27246-2.86963-1.05469-0.89209-0.83496-0.89209-2.07422 0-1.125 0.8086-2.10058 0.58886-0.71631 1.61279-1.15137-1.81494 0.0615-4.68018 0.20654zm12.9331 4.67139q-0.81298 2.39062-1.82373 2.39062-0.7207 0-1.23486-1.01074-0.39551-0.78223-0.54492-1.72266-0.18018-1.14258-0.18018-2.93555 0-0.77783 0.0571-1.66992l1.03272 0.0791q-0.0571 0.89209-0.0571 1.69629 0 2.82129 0.52734 3.93311 0.21533 0.45703 0.4043 0.45703 0.12305 0 0.30762-0.28125 0.37793-0.57129 0.72949-1.57324zm2.78174 1.04589q-0.22412-1.85449-0.54931-2.99707-0.39551-1.38427-0.91846-2.53564l0.93603-0.22852q0.7251 1.43701 1.07666 2.76856 0.29004 1.08105 0.47901 2.75097zm5.77881-6.57861h0.97119v1.10742h2.76416v0.83496h-2.76416v1.0459h2.61035v0.82617h-2.61035v1.35791q1.56446 0.52735 3.08496 1.58643l-0.51855 0.83496q-1.15137-0.86133-2.56641-1.52051-0.0351 0.75147-0.29004 1.16455-0.44384 0.71631-1.74902 0.71631-1.00635 0-1.61719-0.37793-0.68115-0.42187-0.68115-1.14258 0-0.86132 0.91846-1.27441 0.61523-0.27246 1.59961-0.27246 0.38672 0 0.84814 0.0615v-1.13379h-3.11572v-0.82617h3.11572v-1.0459h-3.30469v-0.83496h3.30469zm0 5.76563q-0.52295-0.10987-1.00195-0.10987-0.58447 0-0.94922 0.17139-0.43506 0.20654-0.43506 0.58887 0 0.3208 0.33838 0.51855 0.34277 0.20215 0.91406 0.20215 0.67676 0 0.93164-0.36035 0.20215-0.28125 0.20215-0.83936zm9.32959-5.792h0.98877v1.21289h2.59277v0.84815h-2.59277v1.88086q0.15381 0.54053 0.15381 0.9624 0 1.56445-0.68994 2.29834-0.75147 0.8042-2.26319 1.11182l-0.50097-0.74707q1.17334-0.22413 1.74023-0.63282 0.53174-0.38672 0.71631-1.05029-0.47021 0.51416-1.1206 0.51416-0.7295 0-1.18213-0.41309-0.53174-0.48779-0.53174-1.41503 0-0.4878 0.23291-0.94043 0.15381-0.29004 0.37793-0.4834 0.51855-0.43946 1.24365-0.43946 0.46143 0 0.83496 0.21973v-0.86572h-4.3374v-0.84815h4.3374zm0.0352 4.56153v-0.1626q0-0.28125-0.13184-0.49658-0.24609-0.4043-0.71191-0.4043-0.23731 0-0.44385 0.13184-0.4834 0.30322-0.4834 0.93164 0 0.3955 0.17578 0.66797 0.2461 0.37793 0.7251 0.37793 0.43506 0 0.68994-0.39112 0.18018-0.27685 0.18018-0.65478zm6.01172 0.60205q0.35156 0 0.67675 0.16699 0.36036 0.18018 0.58448 0.52295 0.24609 0.38232 0.24609 0.82617 0 0.53174-0.34717 0.95361-0.45263 0.55811-1.16894 0.55811-0.27686 0-0.54053-0.10107-0.39551-0.15821-0.65039-0.49219-0.31641-0.41309-0.31641-0.92725 0-0.31201 0.13623-0.61084 0.29004-0.64599 0.9712-0.83935 0.20214-0.0571 0.40869-0.0571zm-9e-3 0.69433q-0.29883 0-0.53614 0.21534-0.27685 0.24169-0.27685 0.60644 0 0.14502 0.0527 0.28565 0.0835 0.20654 0.25928 0.34716 0.22852 0.18457 0.50977 0.18457 0.21972 0 0.41748-0.12304 0.3955-0.2461 0.3955-0.69434 0-0.19336-0.0967-0.37793-0.23731-0.44385-0.7251-0.44385z"></path><path d="m114.7524 274.6429h4.87793l0.58008 0.68555-0.33399 0.18457q-2.10937 1.16894-3.28711 1.8501 2.75977-0.10987 4.70654-0.22413l0.0747 0.92725-1.45898 0.0615q-1.08106 0.0483-1.99073 0.49659-1.27002 0.62841-1.27002 1.58203 0 0.74707 0.87012 1.02392 0.68555 0.21533 2.21045 0.21973v0.95361q-1.93799-4e-3 -2.80371-0.37793-1.24805-0.53174-1.24805-1.71826 0-1.46777 1.98194-2.16211-1.0459 0.0352-3.68701 0.18018l-0.32081 0.0176-0.0615-0.91846q0.74707 0 1.51172-0.0264 1.80176-1.11621 3.35742-1.90723h-3.70898zm9.10107-0.33398h0.97119v2.48291q1.0459-1.08545 1.67432-1.48975 0.58447-0.37793 1.21289-0.37793 0.63281 0 1.01953 0.35596 0.50977 0.47461 0.50977 1.24365 0 0.20215-0.0527 0.53613-0.38672 2.45655-0.38672 3.40137 0 0.4043 0.20655 0.4043 0.13183 0 0.34716-0.14942 0.45264-0.31201 0.91407-1.02392l0.36035 1.00634q-0.28125 0.44825-0.69873 0.79541-0.4834 0.4043-1.03272 0.4043-0.52295 0-0.81298-0.36474-0.2461-0.31202-0.2461-1.04151 0-0.55371 0.14502-1.66553 0.18457-1.39746 0.24609-2.07421 9e-3 -0.10987 9e-3 -0.18457 0-0.38672-0.16259-0.59327-0.15381-0.19775-0.42627-0.19775-0.91846 0-2.82569 2.44775v4.14844h-0.97119v-3.04101q-0.73389 1.02832-1.35351 1.94238l-0.45704-1.04151q1.04151-1.26123 1.81055-2.4038v-1.11622h-1.54248v-0.8833h1.54248zm7.94531 7.97607q-0.16699-1.49414-0.16699-2.9707 0-2.53125 0.37354-4.80762l0.96679 0.10107q-0.35595 1.96875-0.35595 4.44288 0 1.66113 0.18457 3.10693zm2.63672-6.96094h4.22315v0.93604h-4.22315zm4.52198 6.42041q-0.87891 0.13623-2.08741 0.13623-3.03662 0-3.03662-1.78418 0-0.70752 0.37793-1.23486l0.83057 0.36914q-0.23731 0.33399-0.23731 0.75147 0 0.51416 0.51416 0.70752 0.57129 0.21972 1.56006 0.21972 1.06787 0 1.97754-0.14062zm5.78759-2.46972v-1.25684h-2.22363v-0.84814h2.22363v-3.0586h0.97119v3.0586h2.29395v0.84814h-2.29395v1.25684h2.76856v0.86572h-2.76856v2.52246h-0.97119v-2.52246h-2.63232v-0.86572zm-2.88281-3.01465v6.40283h-0.93603v-4.53076q-0.31641 0.52295-0.72071 1.06347l-0.43066-0.9624q0.76465-1.07226 1.27881-2.44775 0.25927-0.70752 0.57568-1.77979l0.91846 0.25928q-0.30323 1.05469-0.68555 1.99512zm4.37256 0.3164q0.51416-1.17773 0.75586-2.22363l0.95801 0.29004q-0.38233 1.2041-0.90967 2.25zm-2.87842 0.30762q-0.3999-1.2041-0.90967-2.07861l0.84815-0.36035q0.61523 1.09423 0.90967 2.06103zm9.8833 2.96631q-0.81299 2.39062-1.82373 2.39062-0.7207 0-1.23486-1.01074-0.39551-0.78222-0.54492-1.72265-0.18018-1.14258-0.18018-2.93555 0-0.77783 0.0571-1.66992l1.03271 0.0791q-0.0571 0.89209-0.0571 1.69629 0 2.82129 0.52734 3.9331 0.21533 0.45704 0.4043 0.45704 0.12304 0 0.30761-0.28125 0.37793-0.57129 0.7295-1.57325zm2.78174 1.0459q-0.22412-1.85449-0.54932-2.99707-0.3955-1.38428-0.91845-2.53565l0.93603-0.22851q0.7251 1.43701 1.07666 2.76855 0.29004 1.08106 0.47901 2.75098zm4.13086 1.62158q-0.81299-1.18652-1.83691-2.19727l0.71191-0.62841q1.06348 1.01074 1.87207 2.14892zm5.06689-3.52002q-9e-3 0.022-0.0264 0.0571-0.49219 1.16016-1.30518 2.13135l-0.58447-0.90088q1.22168-1.23047 1.77539-2.77295h-1.63477v-0.83496h1.77539v-1.16016q-0.5625 0.11426-1.27002 0.19776l-0.40429-0.77344q1.94678-0.2417 3.52881-0.79102l0.52295 0.74707q-0.61084 0.21094-1.43262 0.41748v1.36231h1.66553v0.83496h-1.66553v0.65918q0.84814 0.4834 1.67431 1.27881l-0.54931 0.82617q-0.45264-0.52295-1.125-1.13818v3.52441h-0.94483zm3.12452-3.88037h0.91845v5.20312h-0.91845zm2.06103-0.82617h0.93604v7.3081q0 0.47461-0.18897 0.68994-0.21973 0.25489-0.86133 0.25489-0.77783 0-1.48974-0.0791l-0.17578-0.99317q0.72509 0.12744 1.51611 0.12744 0.19336 0 0.2373-0.13623 0.0264-0.0747 0.0264-0.20654zm9.76465 0.27685v7.02686q0 0.44824-0.1626 0.65039-0.20215 0.25049-0.81738 0.25049-0.68555 0-1.21729-0.0527l-0.17138-0.94482q0.69873 0.0879 1.15576 0.0879 0.18457 0 0.21973-0.0835 0.022-0.0571 0.022-0.16699v-1.73584h-2.15332v2.6543h-0.94483v-2.6543h-2.06103q-0.0396 0.91406-0.17578 1.51611-0.19336 0.82178-0.7251 1.55127l-0.82617-0.68115q0.50976-0.67676 0.67236-1.63916 0.0923-0.5581 0.0923-1.25683v-4.52198zm-6.12158 0.84815v1.27002h2.05224v-1.27002zm0 2.06982v1.30518h2.05224v-1.30518zm5.15039 1.30518v-1.30518h-2.15332v1.30518zm0-2.10498v-1.27002h-2.15332v1.27002zm9.06152 2.91357v1.87207q0 0.15381 0.0703 0.18897 0.0439 0.0264 0.29004 0.0264 0.30323 0 0.35596-0.0351 0.14063-0.0835 0.18897-1.22168l0.79101 0.23291q-0.0483 0.97119-0.14062 1.32275-0.10987 0.39551-0.47022 0.50098-0.27246 0.0835-0.8833 0.0835-0.43506 0-0.61084-0.0351-0.44824-0.0967-0.44824-0.61084v-2.32471h-0.52295q-0.0483 0.81299-0.17139 1.23047-0.18457 0.62402-0.65918 1.0459-0.62402 0.5581-1.51611 0.8042l-0.51416-0.76465q1.16894-0.23731 1.59521-0.90088 0.29444-0.46582 0.37354-1.41504h-0.74268v-5.13721h3.98145v5.13721zm-2.11377-4.37256v0.76465h2.18408v-0.76465zm0 1.43262v0.75586h2.18408v-0.75586zm0 1.43262v0.76904h2.18408v-0.76904zm-3.34863-2.52246v-1.3711h0.90088v1.3711h1.16894v0.7998h-1.16894v1.24365h1.29638v0.8086h-1.30078q-0.0176 0.49658-0.0615 0.81299 0.72949 0.55371 1.43262 1.34472l-0.55811 0.76026q-0.4834-0.68995-1.05469-1.25684-0.38232 1.33154-1.58203 2.38184l-0.62841-0.68555q0.90527-0.76465 1.27001-1.77539 0.2461-0.68115 0.28125-1.58203h-1.48095v-0.8086h1.48535v-1.24365h-1.2876v-0.7998zm8.82422 1.84131q-0.57129-0.8042-1.27442-1.48096l0.54053-0.62842q0.0923 0.0879 0.18457 0.18018l0.0571 0.0571q0.47022-0.65478 0.8833-1.48095l0.79541 0.43945q-0.49219 0.79102-1.17334 1.604 0.36475 0.45704 0.51856 0.66797 0.67236-0.82177 1.25683-1.69189l0.69434 0.50098q-0.98877 1.3623-2.06543 2.44335 0.87451-0.0571 1.35351-0.10986-0.10986-0.32959-0.28125-0.70312l0.69434-0.2417q0.41309 0.81738 0.70313 1.8501l-0.76465 0.33398q-0.0615-0.25928-0.14942-0.58887-0.21533 0.0396-0.68554 0.10547l-0.12745 0.0176v3.97705h-0.86572v-3.87158q-0.58887 0.0659-1.42383 0.11865l-0.18017-0.81738 0.29883-9e-3q0.20214-9e-3 0.42627-0.0176 0.26367-0.28564 0.58447-0.65478zm6.9873-1.94239v0.6416q0 4.2627-0.36474 5.57227-0.13623 0.50537-0.43946 0.69873-0.27246 0.17139-0.76464 0.17139-0.60206 0-1.34034-0.0879l-0.18017-0.95801q0.72949 0.13623 1.29638 0.13623 0.29004 0 0.39112-0.11426 0.36914-0.41309 0.47461-4.92187l9e-3 -0.28125h-2.24122q-0.31201 0.79541-0.81738 1.43261l-0.66797-0.61523q0.82618-1.18213 1.16895-3.08936l0.92724 0.1626q-0.1582 0.71191-0.31201 1.25244zm-8.24414 6.17432q0.29883-1.02393 0.36914-2.29395l0.82617 0.0967q-0.0395 1.52051-0.36035 2.5752zm3.14209-0.12744q-0.14941-1.10303-0.46142-2.06104l0.75586-0.19775q0.36914 0.8833 0.54931 1.92041zm2.60156-1.41944q-0.50537-1.30957-1.20849-2.3247l0.75586-0.47461q0.79541 1.09863 1.27881 2.25zm10.75782 1.92481q-1.30078 0.13623-2.68946 0.13623-2.04785 0-2.86963-0.25928-0.59765-0.18896-0.94482-0.5625-0.3999-0.43506-0.3999-1.05908 0-0.82178 0.5625-1.47656 0.479-0.55811 1.54248-1.10742-0.60645-1.36231-1.09863-3.10254l0.97998-0.25489q0.45703 1.66993 0.96679 2.95313 1.6919-0.77783 3.59034-1.29639l0.29443 0.89209q-2.08301 0.52735-4.13965 1.49854-0.63721 0.30322-0.90527 0.49658-0.78662 0.57568-0.78662 1.27881 0 0.61084 0.72949 0.85254 0.60644 0.19775 2.1709 0.19775 1.4458 0 2.89599-0.16699zm1.40185-6.53467h5.64258l1.08984 0.98877q-0.17578 1.9292-0.76025 3.03662-0.68555 1.30078-2.12256 2.02588-0.89648 0.45264-2.39062 0.80859l-0.50537-0.89209q1.46777-0.26806 2.3247-0.69433 1.39746-0.68994 1.97754-2.10059 0.36035-0.8789 0.41309-2.25439h-5.66895zm7.16748-1.55566q0.29444 0 0.5625 0.16259 0.26367 0.15381 0.40869 0.43067 0.13184 0.24609 0.13184 0.51416 0 0.43066-0.30762 0.76025-0.32519 0.34717-0.8042 0.34717-0.2373 0-0.45703-0.10547-0.27246-0.12744-0.44385-0.36914-0.20214-0.29004-0.20214-0.63721 0-0.26806 0.13623-0.51855t0.36474-0.4043q0.27686-0.18017 0.61084-0.18017zm-4e-3 0.54052q-0.1626 0-0.30762 0.0923-0.25928 0.1626-0.25928 0.479 0 0.22412 0.15381 0.38672 0.16699 0.17578 0.41309 0.17578 0.14062 0 0.25928-0.0615 0.30761-0.1582 0.30761-0.50098 0-0.2417-0.17138-0.40869-0.15821-0.1626-0.39551-0.1626zm2.33789 0.27686h5.79639v0.90088h-5.79639zm-0.62842 2.15332h7.3169q-0.19336 1.91602-0.79981 2.99707-0.45703 0.81299-1.14258 1.29639-1.16015 0.82617-3.375 1.13379l-0.44384-0.89209q1.95556-0.18897 2.99267-0.89649 1.34473-0.90967 1.54248-2.73779h-6.09082zm11.67188 5.37012v-4.50879q-1.33594 0.89648-3.04981 1.51172l-0.53174-0.89209q1.94678-0.65479 3.41455-1.6875 1.44141-1.01514 2.56641-2.32471l0.84814 0.53174q-0.99755 1.14697-2.22363 2.10498v5.26465zm3.91992-0.95362q0.76465-1.125 1.31396-2.75537 0.59766-1.78418 0.75586-3.62549l1.00635 0.20655q-0.39111 2.69824-1.05029 4.53515-0.47461 1.33594-1.16895 2.34229zm7.09277 0.74707q-1.59082-2.64111-2.45654-6.93017l0.95361-0.29444q0.76465 3.83204 2.37305 6.56104zm-0.46142-6.09082q-0.25489-0.69873-0.8877-1.62158l0.68994-0.25049q0.50537 0.69434 0.90967 1.59082zm1.26123-0.19775q-0.33838-0.87451-0.8833-1.63916l0.65917-0.21533q0.52295 0.6416 0.89209 1.54687zm4.55712 0.66357q-1.29638-0.58007-2.6455-0.97119l0.28564-0.87011q1.52051 0.37792 2.66748 0.92285zm-0.90087 2.25q-1.08106-0.47461-2.64551-0.97119l0.37793-0.8789q1.34472 0.35595 2.61035 0.94482zm-2.07862 2.42139q1.79737-0.14941 2.8169-0.54492 1.50732-0.57569 2.36865-2.05664 0.57568-0.98877 0.90967-2.50049l0.88769 0.51416q-0.42627 1.89404-1.19092 3.01904-0.89648 1.31397-2.50048 1.94239-1.1294 0.43505-3.01026 0.61084zm7.75635-3.375h7.73877v0.98877h-7.73877zm12.07178-3.38379h0.98877v1.8457h3.31347v0.88331h-3.31347v5.29101h-0.98877v-5.29101h-3.24317v-0.88331h3.24317zm-3.50244 6.75879q0.97119-1.27002 1.30517-3.31787l0.9624 0.25928q-0.40429 2.37304-1.39306 3.73535zm7.17187 0.55811q-0.98877-1.48536-1.63476-3.6958l0.94482-0.31641q0.53613 1.83691 1.58203 3.42773zm0.23291-7.77393q0.29444 0 0.55811 0.1626 0.26367 0.1582 0.40869 0.43066 0.13183 0.2461 0.13183 0.51416 0 0.43067-0.30761 0.76026-0.3252 0.34716-0.79981 0.34716-0.2373 0-0.45703-0.10107-0.27246-0.12744-0.44385-0.37354-0.20214-0.29003-0.20214-0.6372 0-0.26807 0.13623-0.51856t0.36474-0.40429q0.27686-0.18018 0.61084-0.18018zm-9e-3 0.54053q-0.1582 0-0.30322 0.0923-0.25928 0.1626-0.25928 0.47901 0 0.22412 0.15381 0.38672 0.16699 0.17578 0.41309 0.17578 0.13623 0 0.25927-0.0615 0.30323-0.1582 0.30323-0.50097 0-0.2417-0.17139-0.40869-0.1582-0.1626-0.39551-0.1626zm2.12696 0.0439h1.02392v4.80762h-1.02392zm4.51318-0.0923h1.02392v3.14209q0 1.65674-0.26806 2.46533-0.22412 0.68994-0.61084 1.09863-0.8042 0.86572-2.58399 1.27881l-0.50537-0.90088q1.94678-0.39551 2.4961-1.31396 0.34716-0.58448 0.41748-1.47657 0.0308-0.41308 0.0308-1.14257zm6.09961 2.05224q-1.29639-0.58007-2.64551-0.97119l0.28565-0.87011q1.5205 0.37792 2.66748 0.92285zm-0.90088 2.25q-1.08106-0.47461-2.64551-0.97119l0.37793-0.8789q1.34473 0.35595 2.61035 0.94482zm-2.07861 2.42139q1.79736-0.14941 2.81689-0.54492 1.50733-0.57569 2.36865-2.05664 0.57569-0.98877 0.90967-2.50049l0.8877 0.51416q-0.42627 1.89404-1.19092 3.01904-0.89649 1.31397-2.50049 1.94239-1.12939 0.43505-3.01025 0.61084zm7.75634-3.375h7.73877v0.98877h-7.73877zm9.18018-2.39062h2.36865q0.39112-0.62403 0.59326-1.00635l0.97998 0.14062q-0.13183 0.23731-0.46582 0.77344l-0.0571 0.0923h3.09814v0.86572h-3.68262q-0.57568 0.79101-1.09863 1.37109 0.83057-0.49658 1.51611-0.49658 1.06348 0 1.39307 1.06787 1.125-0.37353 2.29394-0.73828l0.37793 0.85254-0.1538 0.0439-0.43506 0.11426q-1.23047 0.33399-1.96875 0.57129 0.0527 0.57129 0.0747 1.47656l-0.9624 0.0527q-4e-3 -0.52295-0.0176-1.13379v-0.0879q-2.02148 0.68994-2.02148 1.38867 0 0.36035 0.51855 0.49219 0.50098 0.12744 1.79297 0.12744 1.19092 0 2.50049-0.13623l0.10547 0.93603q-1.27002 0.0967-2.63232 0.0967-1.67872 0-2.38623-0.25488-0.87452-0.31641-0.87452-1.13818 0-0.69434 0.61963-1.22608 0.6416-0.54931 2.25879-1.13379-0.0879-0.33838-0.23291-0.47461-0.1626-0.1538-0.43066-0.1538-0.43506 0-1.09424 0.32959-0.81299 0.40429-1.74463 1.21728l-0.58447-0.66797q1.3667-1.27002 2.14013-2.49609h-1.78857zm10.01953 3.33105q-0.59766 1.29639-1.37549 2.11377l-0.51416-0.81299q0.86133-0.86572 1.70948-2.59717-0.0483-0.23291-0.12305-0.54052-0.54932 0.56689-1.11621 1.0415l-0.47901-0.78223q0.76905-0.5625 1.27881-1.14697-0.33838-0.70752-0.92724-1.22168l0.65478-0.47461q0.57568 0.46582 0.86133 0.93604 0.28125-0.39551 0.63281-1.06348l0.78662 0.50537q-0.51855 0.8042-1.00195 1.41504 0.55811 1.52051 0.55811 3.62109 0 1.6128-0.32959 2.38184-0.14942 0.35156-0.4087 0.4834-0.19775 0.0967-0.53613 0.0967-0.50098 0-0.89209-0.0967l-0.18017-0.92725q0.55371 0.11865 0.84814 0.11865 0.26807 0 0.35596-0.13623 0.0527-0.0791 0.0923-0.25048 0.14063-0.61524 0.14063-1.73584 0-0.4834-0.0352-0.92725zm3.4541-2.95312v-1.6128h0.89209v1.6128h2.01709v3.55957h-2.01709v1.92919q0.61084-0.0791 1.125-0.1582-0.22851-0.59765-0.54931-1.2041l0.7998-0.29883q0.69434 1.16016 1.13818 2.70264l-0.8833 0.41308q-0.10107-0.45703-0.24609-0.89209-0.10547 0.022-0.21533 0.0483-1.68311 0.39551-4.27149 0.62842l-0.27246-0.91845q1.19092-0.0791 2.34229-0.20215l0.14062-0.0132v-2.03466h-1.95117v-3.55957zm-1.11621 0.82617v1.90722h1.11621v-1.90722zm3.17725 1.90722v-1.90722h-1.16895v1.90722zm5.00537-3.1333q0.20654-0.5625 0.34717-1.21289l1.125 0.18018q-0.18018 0.52734-0.40869 1.03271h3.22558v7.33887h-0.99756v-0.62402h-4.65381v0.62402h-0.97998v-7.33887zm-1.36231 0.82617v1.13819h4.65381v-1.13819zm0 1.92041v1.125h4.65381v-1.125zm0 1.89844v1.23487h4.65381v-1.23487zm7.83985 2.31592q-0.16699-1.49414-0.16699-2.9707 0-2.53125 0.37353-4.80762l0.9668 0.10107q-0.35596 1.96875-0.35596 4.44288 0 1.66113 0.18457 3.10693zm2.63672-6.96094h4.22314v0.93604h-4.22314zm4.52197 6.42041q-0.87891 0.13623-2.0874 0.13623-3.03662 0-3.03662-1.78418 0-0.70752 0.37793-1.23486l0.83056 0.36914q-0.2373 0.33399-0.2373 0.75147 0 0.51416 0.51416 0.70752 0.57129 0.21972 1.56006 0.21972 1.06787 0 1.97754-0.14062zm5.89746-5.43603h-0.7207q-0.45264 1.11181-1.16016 1.99511l-0.63721-0.78222q1.12061-1.40625 1.59082-3.47168l0.92725 0.18017q-0.17139 0.63282-0.37353 1.2129h3.99902v0.86572h-2.68067v1.26562h2.14014v0.8086h-2.14014v1.25683h2.32911v0.82617h-2.32911v2.19727h-0.94482zm-2.72021 4e-3v6.3501h-0.97999v-4.60107q-0.38232 0.57128-0.85693 1.15576l-0.46582-0.98438q0.81738-0.94482 1.42383-2.29834 0.35156-0.78222 0.71631-1.89404l0.93603 0.2417q-0.32959 1.07666-0.77343 2.03027zm13.68457-0.68994q-0.0176-0.022-0.0571-0.0703-0.63721-0.76904-0.99756-1.06348l0.77344-0.43066q0.58886 0.47461 1.08984 1.09863l-0.74268 0.46582h1.32715v0.84815h-2.8125q0.12744 1.59521 0.49658 2.75976 0.60205-0.94043 1.08106-2.1665l0.84814 0.43066q-0.72509 1.65234-1.52929 2.72461 0.36035 0.67676 0.90527 1.125 0.11426 0.0923 0.1626 0.0923 0.0747 0 0.13623-0.26368 0.10986-0.48779 0.1626-1.1997l0.84814 0.49658q-0.12305 1.05469-0.28125 1.55566-0.18457 0.58448-0.62402 0.58448-0.33399 0-0.79102-0.31202-0.61084-0.41748-1.16455-1.27441-0.80859 0.92285-1.86768 1.61719l-0.65918-0.72071q1.17334-0.67675 2.07422-1.74023-0.17138-0.39111-0.28564-0.84375-0.33838-1.34033-0.46143-2.86523h-3.01025v1.10302h2.6543q-0.0176 2.28076-0.23291 3.07617-0.11426 0.43067-0.39991 0.61084-0.2417 0.15381-0.69433 0.15381-0.25488 0-0.92285-0.0615l-0.15381-0.90088q0.51855 0.0835 0.87011 0.0835 0.27247 0 0.36036-0.17578 0.16259-0.32959 0.22851-1.95997h-1.70947q4e-3 2.7378-0.79102 4.14844l-0.79101-0.64599q0.36474-0.69873 0.50097-1.62159 0.12745-0.85693 0.12745-2.11377v-2.54443h3.90234q-0.0352-0.58447-0.0571-1.51172h0.97119q0 0.57569 0.0395 1.51172zm2.97509-1.14258h1.03711v5.23828q0 1.65674 1.74024 1.65674 1.14697 0 1.88086-1.05908 0.47461-0.68115 0.85254-2.10937l0.89209 0.54052q-0.44825 1.58643-1.07666 2.37305-0.98877 1.22607-2.57081 1.22607-1.65234 0-2.3291-1.01953-0.42627-0.6372-0.42627-1.64355zm10.83692-0.16259h0.97119v1.10742h2.76416v0.83496h-2.76416v1.0459h2.61035v0.82617h-2.61035v1.35791q1.56445 0.52734 3.08496 1.58642l-0.51855 0.83497q-1.15137-0.86133-2.56641-1.52051-0.0352 0.75146-0.29004 1.16455-0.44385 0.71631-1.74902 0.71631-1.00635 0-1.61719-0.37793-0.68115-0.42188-0.68115-1.14258 0-0.86133 0.91845-1.27442 0.61524-0.27246 1.59961-0.27246 0.38672 0 0.84815 0.0615v-1.13379h-3.11573v-0.82617h3.11573v-1.0459h-3.30469v-0.83496h3.30469zm0 5.76562q-0.52295-0.10986-1.00196-0.10986-0.58447 0-0.94921 0.17138-0.43506 0.20655-0.43506 0.58887 0 0.3208 0.33838 0.51856 0.34277 0.20214 0.91406 0.20214 0.67676 0 0.93164-0.36035 0.20215-0.28125 0.20215-0.83935zm5.63379-5.60303h1.03711v5.23828q0 1.65674 1.74023 1.65674 1.14697 0 1.88086-1.05908 0.47461-0.68115 0.85254-2.10937l0.89209 0.54052q-0.44824 1.58643-1.07666 2.37305-0.98877 1.22607-2.5708 1.22607-1.65235 0-2.3291-1.01953-0.42627-0.6372-0.42627-1.64355zm7.3081 1.19532h2.05225q0.12304-0.54493 0.27685-1.41065l0.99317 0.12305q-0.13184 0.68115-0.28125 1.2876h2.92676v0.87451h-3.13331q-0.8789 3.51123-1.94238 5.82275l-0.97119-0.34277q1.15576-2.56201 1.92481-5.47998h-1.84589zm7.77832 6.46435q-0.71191 0.0923-1.59961 0.0923-1.43701 0-2.1709-0.2461-0.28125-0.0967-0.479-0.27246-0.38672-0.35156-0.38672-0.89648 0-0.55811 0.36035-0.98438l0.78223 0.46143q-0.13623 0.17138-0.13623 0.37793 0 0.35595 0.32519 0.46142 0.49659 0.15821 1.41504 0.15821 0.89209 0 1.77979-0.13184zm-4.12207-4.35498q1.72266-0.19775 3.77051-0.21094l0.0439 0.89209q-2.00831 9e-3 -3.68702 0.18897zm6.87744 1.66992q0.35157 0 0.67676 0.16699 0.36035 0.18018 0.58447 0.52295 0.2461 0.38233 0.2461 0.82618 0 0.53173-0.34717 0.95361-0.45264 0.5581-1.16895 0.5581-0.27685 0-0.54052-0.10107-0.39551-0.1582-0.65039-0.49219-0.31641-0.41308-0.31641-0.92724 0-0.31202 0.13623-0.61084 0.29004-0.646 0.97119-0.83936 0.20215-0.0571 0.40869-0.0571zm-9e-3 0.69434q-0.29882 0-0.53613 0.21533-0.27685 0.2417-0.27685 0.60645 0 0.14501 0.0527 0.28564 0.0835 0.20654 0.25928 0.34717 0.22851 0.18457 0.50976 0.18457 0.21973 0 0.41748-0.12305 0.39551-0.24609 0.39551-0.69433 0-0.19336-0.0967-0.37793-0.2373-0.44385-0.7251-0.44385z"></path><path d="m118.8832 287.6122h-1.83252v-0.81739h0.96679q-0.3164-0.72509-0.60644-1.15136l0.87012-0.29883q0.38232 0.71631 0.62841 1.45019h0.94922q0.30323-0.72509 0.51856-1.46777l0.93603 0.27246q-0.23291 0.58447-0.52734 1.19531h0.9624v0.81739h-1.91162v1.13379h1.70508v0.79101h-1.70508v1.21289h2.10938v0.84815h-2.10938v2.31591h-0.95361v-2.31591h-1.97754v-0.84815h1.97754v-1.21289h-1.65235v-0.79101h1.65235zm-2.22803 3.27392v2.5752h-2.12256v0.45263h-0.84814v-3.02783zm-2.12256 0.75586v1.07227h1.27441v-1.07227zm-0.69873-5.95459h2.6499v0.73828h-2.6499zm-0.45703 1.2876h3.42773v0.79102h-3.42773zm0.45703 1.34912h2.6499v0.72949h-2.6499zm0 1.2876h2.6499v0.71191h-2.6499zm9.40869-3.88037h1.03711v5.23828q0 1.65674 1.74024 1.65674 1.14697 0 1.88085-1.05909 0.47461-0.68115 0.85254-2.10937l0.89209 0.54053q-0.44824 1.58642-1.07666 2.37304-0.98877 1.22608-2.5708 1.22608-1.65234 0-2.3291-1.01953-0.42627-0.63721-0.42627-1.64356zm13.21436 7.96289q-1.98633-1.54688-5.20313-3.4541-0.59326-0.34717-0.59326-0.7295 0-0.27246 0.25928-0.51416 0.10986-0.10546 0.55371-0.35156 1.62158-0.90088 3.49805-2.14892 0.70752-0.46582 1.28759-0.90088l0.57569 0.75586q-2.26319 1.604-4.64502 2.92675-0.23291 0.13184-0.23291 0.21973 0 0.0703 0.12744 0.1582 0.0351 0.0264 0.40869 0.2461 3.01465 1.77978 4.53955 2.91357zm7.12793-8.00684h0.9624v1.59082h1.79297v0.87451h-1.79297v2.69825q1.0415 0.479 2.06103 1.34472l-0.49218 0.87012q-0.86133-0.75146-1.57764-1.19531-0.0791 1.07666-0.76465 1.4414-0.38232 0.20215-1.0459 0.20215-0.7207 0-1.25244-0.25928-0.8042-0.39111-0.8042-1.30078 0-0.7163 0.61084-1.13818 0.55811-0.38672 1.43262-0.38672 0.3999 0 0.87012 0.10108v-2.37745h-2.82569v-0.87451h2.82569zm0 5.69531q-0.51416-0.16259-0.91407-0.16259-0.38232 0-0.65039 0.11865-0.42187 0.18018-0.42187 0.58887 0 0.33398 0.30762 0.52295 0.29882 0.18457 0.7998 0.18457 0.87891 0 0.87891-0.98877zm-4.77246 2.11377q-0.15381-1.45019-0.15381-3.0498 0-2.49609 0.33398-4.75928l0.9668 0.14063q-0.32959 1.95117-0.32959 4.21875 0 1.66552 0.16699 3.30029zm11.73779-2.61035v2.5752h-2.30274v0.45263h-0.87451v-3.02783zm-2.30274 0.75586v1.07227h1.41944v-1.07227zm3.10254-5.96338h2.8169v2.14014q0 0.14502 0.0439 0.18018 0.0571 0.0439 0.19776 0.0439 0.19336 0 0.25049-0.0527 0.0439-0.0352 0.0615-0.23291 0.0439-0.50537 0.0483-0.78223l0.82178 0.25928q-4e-3 0.50537-0.0659 0.9624-0.0659 0.53613-0.57569 0.63721-0.21533 0.0439-0.64599 0.0439-0.61084 0-0.82178-0.15381-0.18017-0.13183-0.18017-0.4834v-1.7622h-1.09864v0.0923q0 0.89209-0.19336 1.47657-0.21972 0.6416-0.76904 1.08544l-0.63721-0.6372q0.55371-0.38672 0.68555-1.11621 0.0615-0.34717 0.0615-0.84815zm2.39063 6.29297q0.83935 0.60645 1.95557 1.03711l-0.52295 0.87451q-1.34034-0.62842-2.11817-1.26562-0.98437 0.82617-1.97754 1.29199l-0.50976-0.78223q0.9624-0.32959 1.87646-1.08105-0.82178-0.87891-1.24804-1.87207h-0.43946v-0.8086h3.9419l0.47461 0.43067q-0.59766 1.2876-1.43262 2.17529zm-0.65039-0.53613q0.61523-0.69873 0.84375-1.26123h-1.83692q0.36036 0.65478 0.94483 1.21289zm-5.52832-5.74805h2.79053v0.73828h-2.79053zm-0.50537 1.2876h3.6914v0.79102h-3.6914zm0.50537 1.34912h2.79053v0.72949h-2.79053zm0 1.2876h2.79053v0.71191h-2.79053zm13.22754 3.02344q0.74267 0.12304 1.62158 0.12304h2.28076q-0.21973 0.43946-0.32519 0.92725h-1.96436q-1.78418 0-2.81689-0.42627-1.00196-0.41309-1.65235-1.36231-0.51855 1.23487-1.27441 2.04786l-0.68115-0.81739q1.23925-1.34033 1.54687-3.47168l0.99756 0.15381q-0.14063 0.69434-0.27246 1.15576 0.53174 0.94483 1.56885 1.39747v-3.40137h-2.43897v-0.58447h-0.95361v-2.03467h3.36621v-0.97998h0.97998v0.97998h3.44092v2.03467h-0.95362v0.58447h-2.46972v1.34472h3.01025v0.81739h-3.01025zm-3.40137-5.4668v0.95801h5.85352v-0.95801zm14.37451-0.62842 0.62842 0.51416q-0.61524 2.8125-1.99512 4.35498-0.76465 0.85254-1.97754 1.49414-0.86133 0.45264-1.85009 0.72071l-0.50977-0.86573q2.25879-0.58886 3.50684-1.88086-1.02832-0.92285-2.26758-1.63476l0.57568-0.71192q1.2085 0.62842 2.29834 1.54688 0.85693-1.37109 1.07666-2.6543h-3.09375q-1.06348 1.65674-2.50488 2.53565l-0.646-0.69873q1.39307-0.83936 2.28955-2.21924 0.46143-0.70313 0.71631-1.51612l0.95361 0.23291q-0.14501 0.39551-0.32519 0.78223zm1.67432 0.19776h5.81396l0.94483 0.82617q-0.17139 1.78418-0.59766 2.79492-0.62402 1.48535-2.06982 2.29834-0.95801 0.54492-2.63233 0.94043l-0.50537-0.89209q1.46777-0.26807 2.32471-0.69434 1.39746-0.68994 1.97754-2.10058 0.36035-0.87891 0.41308-2.2544h-5.66894zm6.31054 0.22851q-0.27246-0.83496-0.69433-1.53369l0.70312-0.1626q0.36914 0.51416 0.69873 1.46778zm1.25684-0.18018q-0.24609-0.76025-0.71631-1.46777l0.66358-0.1626q0.45263 0.58887 0.74707 1.39307zm5.67334 5.792q2.57959-0.65039 2.57959-2.95752 0-1.00635-0.51855-1.73145-0.58008-0.81738-1.76661-1.05029-0.25927 2.03906-0.70752 3.33984-0.30761 0.90967-0.76464 1.71826-0.65918 1.15137-1.49854 1.15137-0.62402 0-1.11182-0.5625-0.31201-0.35596-0.50537-0.87451-0.25488-0.67236-0.25488-1.4458 0-1.25244 0.68994-2.30713 0.69873-1.07666 1.81494-1.56445 0.81299-0.35596 1.78418-0.35596 1.51612 0 2.5752 0.81299 1.30078 0.99756 1.30078 2.82568 0 3.06299-3.09814 3.88477zm-0.65918-5.77442q-0.77783 0.0879-1.30078 0.41748-0.33398 0.21534-0.66357 0.57129-0.91407 1.01074-0.91407 2.34229 0 0.97119 0.38672 1.52051 0.23731 0.33837 0.47022 0.33837 0.3164 0 0.71191-0.69873 0.9668-1.70068 1.30957-4.49121zm4.99219 2.08741h8.45068v1.02392h-8.45068zm14.62939-0.38672q1.19532 0.94922 2.96631 1.52929l-0.4834 0.74707q-0.54492-0.21533-0.87451-0.36914v3.50244h-0.95361v-0.46142h-4.12207v0.46142h-0.95362v-3.38818q-0.34716 0.18018-0.85693 0.40869l-0.50098-0.72949q1.74463-0.6416 2.9795-1.70068h-2.67627v-0.76465h1.70947q-0.20654-0.51856-0.47461-0.87451l0.8833-0.21534q0.39111 0.57569 0.57129 1.08985h0.89648v-1.24365q-0.51416 0.0395-0.76904 0.0571-0.93603 0.0791-2.07861 0.12305l-0.3208-0.71631q3.89795-0.14502 6.20947-0.59765l0.59326 0.71191q-1.63037 0.25928-2.71582 0.34717v1.31836h0.82617q0.36035-0.59326 0.68555-1.3667l0.94922 0.30322q-0.29883 0.5625-0.65479 1.06348h1.82813v0.76465zm-0.97119 1.41064h1.63916q-1.02392-0.61523-1.63916-1.34912zm1.62598 0.68555h-1.64356v0.71191h1.64356zm-2.53565 0h-1.58642v0.71191h1.58642zm-1.49414-0.68555h1.48535v-1.32275q-0.57128 0.70752-1.48535 1.32275zm-0.0923 2.04346v0.78222h1.58642v-0.78222zm4.12207 0.78222v-0.78222h-1.64356v0.78222zm7.22461-5.95459v1.125l0.11426 0.0571q1.5205 0.70752 3.34863 1.92481l-0.71631 0.86133q-1.37109-1.04151-2.74658-1.79737v4.95703h-1.07227v-7.12793h-3.44531v-0.90966h8.46826v0.90966zm9.1582 5.792q2.57959-0.65039 2.57959-2.95752 0-1.00635-0.51855-1.73145-0.58008-0.81738-1.76661-1.05029-0.25927 2.03906-0.70752 3.33984-0.30761 0.90967-0.76464 1.71826-0.65918 1.15137-1.49854 1.15137-0.62402 0-1.11182-0.5625-0.31201-0.35596-0.50537-0.87451-0.25488-0.67236-0.25488-1.4458 0-1.25244 0.68994-2.30713 0.69873-1.07666 1.81494-1.56445 0.81299-0.35596 1.78418-0.35596 1.51612 0 2.5752 0.81299 1.30078 0.99756 1.30078 2.82568 0 3.06299-3.09814 3.88477zm-0.65918-5.77442q-0.77783 0.0879-1.30078 0.41748-0.33398 0.21534-0.66357 0.57129-0.91407 1.01074-0.91407 2.34229 0 0.97119 0.38672 1.52051 0.23731 0.33837 0.47022 0.33837 0.3164 0 0.71191-0.69873 0.9668-1.70068 1.30957-4.49121zm8.5957-1.1997h0.98877v1.62158h3.31348v0.8833h-3.31348v5.51514h-0.98877v-5.51514h-3.24316v-0.8833h3.24316zm-3.50244 6.75879q0.97119-1.27002 1.30518-3.31788l0.9624 0.25928q-0.4043 2.37305-1.39307 3.73535zm7.17188 0.5581q-0.98877-1.48535-1.63477-3.6958l0.94483-0.31641q0.53613 1.83692 1.58203 3.42774zm-0.60205-5.95459q-0.23731-0.68994-0.81739-1.51611l0.70752-0.20655q0.49659 0.71192 0.82178 1.50293zm1.26123-0.11865q-0.31641-0.84815-0.8042-1.52051l0.66797-0.18018q0.47021 0.58448 0.81738 1.4502zm7.65088-0.30762 0.62841 0.51416q-0.61523 2.8125-1.99511 4.35498-0.76465 0.85254-1.97754 1.49414-0.86133 0.45264-1.8501 0.72071l-0.50977-0.86573q2.25879-0.58886 3.50684-1.88086-1.02832-0.92285-2.26758-1.63476l0.57569-0.71192q1.20849 0.62842 2.29834 1.54688 0.85693-1.37109 1.07666-2.6543h-3.09375q-1.06348 1.65674-2.50489 2.53565l-0.64599-0.69873q1.39306-0.83936 2.28955-2.21924 0.46142-0.70313 0.71631-1.51612l0.95361 0.23291q-0.14502 0.39551-0.3252 0.78223zm4.81201 1.45899q-1.38867-0.61963-2.88721-0.99317l0.30762-0.94482q1.73584 0.39551 2.91357 0.98437zm-2.77735 4.37255q2.1753-0.18457 3.33106-0.77783 1.3623-0.70312 2.0918-2.15771 0.4746-0.94043 0.76904-2.46094l0.84375 0.61963q-0.35596 1.62598-0.86133 2.58398-0.91406 1.74463-2.79492 2.52686-1.18652 0.49219-3.17285 0.70312zm8.47705-5.77441h2.36866q0.39111-0.62402 0.59326-1.00635l0.97998 0.14063q-0.13184 0.2373-0.46582 0.77343l-0.0571 0.0923h3.09814v0.86572h-3.68261q-0.57569 0.79102-1.09864 1.3711 0.83057-0.49659 1.51612-0.49659 1.06347 0 1.39306 1.06788 1.125-0.37354 2.29395-0.73829l0.37793 0.85254-0.15381 0.044-0.43506 0.11426q-1.23047 0.33398-1.96875 0.57129 0.0527 0.57128 0.0747 1.47656l-0.9624 0.0527q-4e-3 -0.52295-0.0176-1.13379v-0.0879q-2.02149 0.68994-2.02149 1.38867 0 0.36036 0.51856 0.49219 0.50098 0.12744 1.79297 0.12744 1.19092 0 2.50049-0.13623l0.10546 0.93604q-1.27001 0.0967-2.63232 0.0967-1.67871 0-2.38623-0.25488-0.87451-0.31641-0.87451-1.13819 0-0.69433 0.61963-1.22607 0.6416-0.54932 2.25879-1.13379-0.0879-0.33838-0.23291-0.47461-0.1626-0.15381-0.43067-0.15381-0.43506 0-1.09424 0.32959-0.81298 0.4043-1.74463 1.21729l-0.58447-0.66797q1.3667-1.27002 2.14014-2.4961h-1.78858zm11.6587 0.97119-0.92725 0.0527q-0.57129 0.0308-1.72266 0.0703l-0.2417-0.79981q0.52295 0 0.93604-9e-3l0.46582-9e-3q0.76025-0.73829 1.3667-1.56006l1.00195 0.27246q-0.58886 0.69873-1.22607 1.26562 0.58447-0.022 0.8789-0.0308 0.59766-0.022 2.04786-0.10107-0.42627-0.36475-0.8833-0.69434l0.80859-0.39551q1.17334 0.79541 2.14453 1.81055l-0.81738 0.51416q-0.28565-0.30762-0.59766-0.61963l-0.91406 0.0835q-0.87891 0.0747-1.31397 0.0967-0.22412 0.45263-0.41308 0.72509h4.46045v0.76465h-2.18408q0.90087 0.69873 2.39062 1.16016l-0.55811 0.72949q-1.79736-0.63281-2.96191-1.88965h-1.79297l-0.0527 0.0527q-1.03711 1.02392-2.88721 1.87207l-0.58447-0.69873q1.35351-0.45703 2.3247-1.22608h-2.10058v-0.76465h2.87842q0.25927-0.3164 0.47461-0.67236zm-2.34229 3.22998q2.03467-0.51416 3.32666-1.6831l0.72949 0.45703q-1.4458 1.26562-3.54638 1.90283zm0.0791 2.46533q3.58155-0.40869 5.71289-2.28515l0.76905 0.54053q-1.48096 1.16894-3.02344 1.7666-1.29639 0.50537-2.95313 0.73388zm0.0879-1.26123q1.46778-0.25048 2.61914-0.81298 0.8877-0.43506 1.72266-1.1294l0.68115 0.479q-0.76465 0.646-1.53369 1.06348-1.35351 0.73828-3.04541 1.05908zm13.70215-5.58545q-0.11865 0.93604-0.69433 1.52491-0.42188 0.43506-1.19532 0.74267l-0.58886-0.62842q0.87451-0.30322 1.22607-0.79541 0.2417-0.33837 0.33398-0.84375h-1.34033v-0.73828h4.58789q-0.0483 1.63037-0.19775 2.14453-0.10547 0.36914-0.39551 0.4878-0.21094 0.0879-0.59765 0.0879-0.58448 0-1.12061-0.0747l-0.1626-0.77344q0.58008 0.0923 0.98877 0.0923 0.23731 0 0.30762-0.0747 0.12744-0.14062 0.19775-1.15137zm-2.66308-0.69433v5.47119h-2.83887v-5.47119zm-1.94678 0.76465v1.57324h1.07226v-1.57324zm0 2.30273v1.65674h1.07226v-1.65674zm6.75 0.0352v2.44775h-4.06934v-2.44775zm-3.17725 0.70312v1.03272h2.27637v-1.03272zm-4.90429 3.8628q0.63281-0.71631 1.01513-1.70948l0.94483 0.31201q-0.41309 1.24366-0.97998 1.96436zm3.0498 0.49218q-0.14502-1.10742-0.35156-1.85009l0.95361-0.20215q0.33399 0.93164 0.46143 1.7666zm2.26758-0.14941q-0.27686-0.94043-0.72949-1.74024l0.8833-0.30322q0.50097 0.7207 0.85693 1.6919zm2.31592 0.0439q-0.4043-1.00634-1.02832-1.86328l0.91845-0.36035q0.59766 0.73828 1.125 1.79297z"></path></g></svg>
