<svg version="1.1" xmlns="http://www.w3.org/2000/svg" xmlns:xlink="http://www.w3.org/1999/xlink" width="67.12226" height="60.62756" viewBox="0,0,67.12226,60.62756"><g transform="translate(-189.01515,-105.60646)"><g data-paper-data="{&quot;isPaintingLayer&quot;:true}" fill="#ff0000" fill-rule="evenodd" stroke="none" stroke-width="0" stroke-linecap="round" stroke-linejoin="round" stroke-miterlimit="10" stroke-dasharray="" stroke-dashoffset="0" style="mix-blend-mode: normal"><path d="M211.75917,120.00586l-0.54998,1.01996l1.33995,2.05992l-0.07999,1.72993l-0.80997,0.66998l0.60998,0.55997l0.17999,1.46994l0.44998,1.24995l0.05,1.98992l-1.20995,1.00996l0.35998,1.58994l0.76997,-0.45999l1.02996,0.40999l0.37999,0.77997l-0.64998,0.67997l0.87997,1.33995l-0.69997,0.47998l-1.12995,2.15991l0.1,1.37995l-0.47998,0.24999l-1.77992,2.23991l-1.28995,0.39999l-0.45998,-0.74997l0.02,-1.09995l0.87996,-1.09996l-0.21999,-0.46998l-1.61993,1.80993l-0.17999,1.22995l-0.90996,0.2l0.02,1.18995l1.54994,0.05l0.29999,0.66997l-1.71993,1.51994l-1.55994,-0.60998l-1.09995,1.15996l-1.97992,3.46986l-0.23999,2.04991l-1.08995,0.40999l-0.73997,-0.22999l-0.97996,0.62998l0.82997,0.75997l-0.72997,0.83997l-1.51994,0.01l-1.35994,1.11996l-0.42998,-0.85997l-1.06996,0.02l0.29999,1.03996l-0.96996,1.33995l-0.98996,-0.1l-0.04,-1.13995l-1.06995,0.70997l-0.97896,-0.91996l0.49698,-0.39998l0.28099,-1.60993l1.48094,-0.52998l-0.21999,-1.50994l-2.26891,-0.51998l-0.64898,-0.77997l-0.82197,0.72997l-0.45498,-0.89996l1.12096,-2.4899l1.20295,-1.67994l1.08096,-0.69997l0.62998,-1.12995l2.4099,-0.46999l0.89997,0.49998l0.74997,1.30995l0.02,0.97996l1.10996,0.03l0.43998,-1.18995l-0.14999,-2.02992l-2.74989,-0.84997l-0.97996,0.46998l-2.30991,-0.03l-1.15096,0.21999l-0.13,-1.87993l-1.16395,-0.21999l0.02,-1.97992l-0.62498,-1.65994l1.30495,-2.3199l0.60497,-0.15l0.42699,-3.16987l0.84297,-2.89988l1.28995,-1.51994l0.85996,-1.75993l0.97996,-1.27995l-0.26999,-1.20995l0.52998,-1.55994l0.68997,-0.13999l-1.19995,-3.12988l-2.28991,-1.41994l1.30995,-0.99996l1.21995,0.21999l-0.49998,1.13995l1.07995,1.33995l2.23991,-0.09999l1.61993,-0.92997l1.48994,-1.20995l2.07992,-1.12995l2.93988,-0.72997l2.92988,-0.07999l1.13996,0.20999l0.69997,1.93992l-0.18999,0.81997l0.48998,2.4299"/><path d="M253.15751,143.00496l-1.37995,1.86992l0.51998,0.34999l0.12,1.46994l-1.44994,2.02992l0.11,1.56994l-0.69997,0.75997l0.27999,1.56993l-0.57997,2.15992l0.53998,0.44998l-0.75997,1.50994l1.22995,0.98996l0.49998,1.18995l-0.76997,0.95996l-0.62998,1.51994l-2.5199,0.09l-1.13995,0.56998l-0.58997,1.40994l-2.29991,0.17999l-0.79996,-0.54998l-1.67994,0.80997l-1.54994,-0.62998l-0.09,1.94992l-0.89996,0.80997l-2.5799,0.18999l-3.84985,-0.72997l0.06,-0.48998l-1.12995,-1.15996l-0.52998,-1.55993l-0.66998,-0.37998l-1.91992,-2.12992l1.93992,-2.76989l-0.83997,-1.08996l1.48994,-1.46994l0.74997,-1.61994l2.98988,-1.09995l0.72997,-0.48998l-0.72997,-1.04996l0.68998,-0.37998l0.17999,-1.23995l1.76993,-1.06996l0.79997,-2.06992l0.93996,0.52998l0.96996,-0.17l1.23995,-1.53994l-1.77992,-0.15999l-0.07,-1.71993l-0.52998,-0.64998l1.65993,-2.4399l2.4799,-1.90992l-1.83992,-0.96996l2.23991,-2.5099l2.6499,-2.68989l0.52997,0.52997l-1.28994,2.28991l-0.24999,1.46994l0.27999,0.80997l1.02995,0.24999l1.19995,-1.82993l0.76997,-0.21999l1.69993,1.25995l1.05996,-0.57997l1.18995,0.40998l0.62998,-0.33999l1.30995,0.24999l0.54998,1.11996l0.57997,-0.32999l1.11996,0.27999l-0.62998,1.17995l-3.16987,1.42994l-0.32999,1.83993l1.14996,1.97992"/><path d="M235.55821,124.20572l-0.72997,1.68993l-0.97996,0.58998l-1.07995,2.00991l0.74997,0.36998l0.03,0.92997l-1.55993,2.88988l-1.82993,1.31995l-1.50993,-0.33999l-1.06996,1.50994l-0.91996,-2.63989l0.70997,-0.75997l-0.31999,-1.43994l-0.90996,1.35994l-1.23995,0.83997l-2.07992,0.38998l-3.01988,-0.80997l-0.35998,-1.09996l-1.28994,0.19l-0.13,0.79996l-0.81997,1.24995v0.66998l-0.90996,0.35998l-0.90996,-0.33999l1.17995,-1.12995l-0.20999,-1.83992l-1.20995,-0.31999l-0.66998,0.35998l-0.57997,-1.28994l-1.37994,-2.24991l-0.09,-1.11996l1.18995,-0.67998l3.44986,-1.54994l0.79997,-1.03996l2.27991,-0.59997l1.27994,-0.98996l-0.07,-0.64997l1.71993,-1.49994l0.45998,-0.82997l1.87992,-0.50998l0.87996,0.02l1.61993,-0.66997l1.00996,0.32999l-0.08999,0.76997l2.07991,0.47998l-0.01999,1.10996l0.53997,0.54998l1.03996,-1.75993l1.35995,-0.95997l1.36994,0.43999l0.91996,-1.10996l0.54998,0.69997l0.87997,-0.15999l0.47998,-0.73998l-0.83997,2.77989l-1.46994,2.42991l-0.16,1.98992"/><path d="M237.75813,110.30627l-1.08996,1.64993l0.29999,1.45994l-1.00996,0.80997l-0.13999,0.61998l-1.08995,-0.05l-0.50998,-0.48998l-1.78993,0.19999l0.23999,-1.72993l0.94997,-1.83992l-2.28991,-0.59998l0.14999,-0.64997l1.05996,-0.81997l1.56994,-2.24991l0.95996,-0.01l1.16996,-0.99996l1.24995,1.98992l-1.10996,1.16995l0.38998,0.95996l0.98997,0.57998"/><path d="M227.95851,141.20502l-1.51994,1.62993l-1.40994,0.72997l-1.42995,-0.60998l0.51998,-0.70997l1.20995,-0.02l-0.39999,-1.87992l0.74997,-0.48998l0.72997,-1.33995l1.06996,-0.38999l1.87993,1.07996l-1.01996,0.92996l-0.37999,1.06996"/><path d="M224.05868,139.50511l-0.52998,-0.94996l-1.41994,-0.26999l-0.22999,-0.99996l1.13995,0.16l0.35998,-1.20996l0.54998,0.59998l2.04992,1.34994l-1.09996,0.43998l-0.81997,0.87997"/><path d="M196.85977,159.90429l-0.37999,0.99996l-1.25995,-1.91992l-0.81997,0.59997l-0.86996,-0.18999l0.42998,-1.70993l0.95996,-0.54998l1.06996,1.19995l-0.35999,0.51998l1.22995,1.04996"/><path d="M238.05812,111.90621l0.71997,-1.38994l0.55998,-0.31999l1.38995,2.05992l-1.68993,2.35991l-0.44998,-0.60998l-0.52998,-2.09992"/><path d="M232.85832,134.40531l0.57997,-1.85992l0.79997,0.66998l-0.17,1.79992l-1.20995,-0.60998"/><path d="M205.45941,148.70473l-0.10999,-1.10996l0.74997,-0.65997l0.72997,0.37998l-0.19999,1.09996l-1.16996,0.28999"/><path d="M227.05856,135.80525l0.40999,0.95996l-0.56997,0.36998l-0.77997,-0.69997l0.93996,-0.62998"/></g></g></svg>