<svg version="1.1" xmlns="http://www.w3.org/2000/svg" xmlns:xlink="http://www.w3.org/1999/xlink" width="168.1" height="54.384" viewBox="0,0,168.1,54.384"><g transform="translate(-240,-180)"><g data-paper-data="{&quot;isPaintingLayer&quot;:true}" stroke="none" stroke-linecap="butt" stroke-linejoin="miter" stroke-miterlimit="10" stroke-dasharray="" stroke-dashoffset="0" style="mix-blend-mode: normal"><path d="M248,180h152.1c4.432,0 8,3.568 8,8v38.384c0,4.432 -3.568,8 -8,8h-152.1c-4.432,0 -8,-3.568 -8,-8v-38.384c0,-4.432 3.568,-8 8,-8z" fill-opacity="0.7" fill="#000000" fill-rule="evenodd" stroke-width="0"/><g fill="#ffffff" fill-rule="nonzero" stroke-width="1"><path d="M251.41,192.93v1.8711h-0.86328v-1.832l-1.2734,0.0469c-0.47135,0.0182 -1.03385,0.03383 -1.6875,0.0469l-0.25391,-0.71875l0.79688,-0.004l0.34766,-0.004l1.1953,-0.008c-0.02867,-0.0208 -0.06773,-0.04813 -0.11719,-0.082c-0.40625,-0.29687 -0.80338,-0.55468 -1.1914,-0.77343l0.56641,-0.48829c0.18489,0.11459 0.3164,0.19922 0.39453,0.25391c0.19011,-0.14583 0.38933,-0.32422 0.59766,-0.53516h-2.4062v-3.3203h3.4258v0.5586h-1.1211v0.42578h1.1211v1.3594h-1.1211v0.45703h1.25v0.51953h-0.75391l0.39062,0.25782c-0.28645,0.23437 -0.58202,0.44531 -0.88671,0.63281c0.27604,0.20573 0.5039,0.38411 0.68359,0.53516c0.58073,-0.40886 1.14453,-0.84376 1.6914,-1.3047l0.62109,0.47265c-0.37239,0.29427 -0.87889,0.62891 -1.5195,1.0039h0.12109c0.47917,-0.0104 0.98567,-0.02863 1.5195,-0.0547l0.1836,-0.0117c-0.14063,-0.13541 -0.29818,-0.26953 -0.47266,-0.40234l0.60938,-0.375c0.50781,0.34896 0.99087,0.78386 1.4492,1.3047l-0.66406,0.45312c-0.16667,-0.19791 -0.29948,-0.34765 -0.39844,-0.44922c-0.03127,0.00267 -0.07163,0.00657 -0.12109,0.0117c-0.52344,0.05467 -1.16147,0.10284 -1.9141,0.14453zM249.1131,187.9417h-0.82812v0.42578h0.82812zM250.1873,188.84795h-1.9023v0.39843h1.9023zM249.1131,189.72685h-0.82812v0.45703h0.82812zM253.3943,189.5042c0.0182,0.013 0.03773,0.02603 0.0586,0.0391c0.35417,0.24479 0.8099,0.46615 1.3672,0.66406l-0.46485,0.67188c-0.52083,-0.21094 -1.01303,-0.4987 -1.4766,-0.86329c-0.37761,0.30729 -0.79427,0.57162 -1.25,0.79297l-0.51953,-0.60937c0.46093,-0.16407 0.8763,-0.39193 1.2461,-0.6836c-0.42969,-0.48177 -0.73568,-0.97917 -0.91797,-1.4922h-0.24218v-0.65625h2.8711l0.40234,0.32812c-0.28906,0.71093 -0.64713,1.3138 -1.0742,1.8086zM252.85134,189.04716c0.27083,-0.30208 0.48698,-0.64321 0.64843,-1.0234h-1.3281c0.17448,0.39843 0.40104,0.73957 0.67969,1.0234zM247.33184,194.10966c0.70053,-0.25 1.27867,-0.58853 1.7344,-1.0156l0.71484,0.44141c-0.60677,0.55729 -1.22263,0.97655 -1.8476,1.2578zM254.14044,194.6956c-0.55729,-0.42708 -1.18619,-0.83201 -1.8867,-1.2148l0.58203,-0.51172c0.7292,0.32552 1.37243,0.68229 1.9297,1.0703z"/><path d="M259.91,188.84h2.0469v3.1289h-2.793c0.34114,0.30989 0.65364,0.66666 0.9375,1.0703l-0.67188,0.53906c-0.35417,-0.53645 -0.67708,-0.94009 -0.96875,-1.2109l0.54688,-0.39844h-2.9219v-0.66406h4.9609v-0.61719h-4.6914v-0.61719h4.6914v-0.58203h-4.707v-0.28906c-0.21875,0.15365 -0.45053,0.30078 -0.69532,0.4414l-0.52734,-0.625c0.862,-0.4401 1.58987,-1.05597 2.1836,-1.8476l0.54688,0.32812h2.5586l0.44532,0.35938c-0.26563,0.33073 -0.55729,0.63932 -0.875,0.92578zM258.91391,188.84c0.28125,-0.23437 0.5039,-0.45833 0.66796,-0.67187h-2.0859c-0.22135,0.25 -0.45313,0.47396 -0.69532,0.67187zM255.23031,194.1447c0.31511,-0.51563 0.54688,-1.10546 0.69531,-1.7695l0.83985,0.25c-0.15885,0.82033 -0.40755,1.4974 -0.7461,2.0312zM257.38271,192.4455h0.85546v1.1055c0,0.16406 0.04427,0.26172 0.13282,0.29297c0.10417,0.03387 0.35417,0.0508 0.75,0.0508c0.47656,0 0.79036,-0.01433 0.9414,-0.043c0.10157,-0.0182 0.16667,-0.07549 0.19532,-0.17187c0.04167,-0.13021 0.0703,-0.36068 0.0859,-0.69141l0.83985,0.28125c-0.02607,0.60937 -0.12503,0.99611 -0.29688,1.1602c-0.11198,0.10417 -0.27474,0.16667 -0.48828,0.1875c-0.33333,0.03127 -0.78647,0.0469 -1.3594,0.0469c-0.69793,0 -1.14193,-0.03257 -1.332,-0.0977c-0.15104,-0.05207 -0.24739,-0.14452 -0.28906,-0.27735c-0.0234,-0.07552 -0.0351,-0.17448 -0.0351,-0.29687zM262.14831,194.4377c-0.32813,-0.7656 -0.66926,-1.3867 -1.0234,-1.8633l0.71875,-0.4375c0.44271,0.59375 0.79818,1.19531 1.0664,1.8047z"/><path d="M267.09,190.36v3.0938c0,0.20052 0.08594,0.32161 0.25781,0.36328c0.17709,0.04427 0.58202,0.0664 1.2148,0.0664c0.61719,0 1.02472,-0.03123 1.2226,-0.0937c0.11198,-0.03647 0.1849,-0.13803 0.21875,-0.30469c0.04427,-0.23437 0.0677,-0.51172 0.0703,-0.83203l0.81641,0.23047c-0.04167,0.7682 -0.14714,1.25907 -0.31641,1.4726c-0.11197,0.14063 -0.28124,0.22396 -0.50781,0.25c-0.35677,0.03907 -0.96223,0.0586 -1.8164,0.0586c-0.66146,0 -1.09506,-0.01823 -1.3008,-0.0547c-0.30989,-0.05207 -0.50651,-0.18879 -0.58984,-0.41016c-0.04167,-0.11719 -0.0625,-0.27344 -0.0625,-0.46875v-3.0976l-0.74609,0.25781l-0.1836,-0.75781l0.92969,-0.32031v-2.1055h0.79297v1.832l0.83984,-0.28516v-2.0586h0.78516v1.7852l1.3086,-0.44921l0.41016,0.25v2.9258c0,0.20312 -0.04818,0.35416 -0.14453,0.45312c-0.10937,0.10937 -0.29297,0.16406 -0.55078,0.16406c-0.21094,0 -0.4349,-0.01823 -0.67188,-0.0547l-0.1289,-0.7461c0.15364,0.03907 0.30989,0.0586 0.46875,0.0586c0.11458,0 0.18489,-0.02343 0.21093,-0.0703c0.02607,-0.03907 0.0391,-0.10417 0.0391,-0.19531v-1.8476l-0.94141,0.32812v3.1602h-0.78516v-2.8906zM264.2189,189.0827v-1.8867h0.83984v1.8867h0.75781v0.79297h-0.75781v2.4844c0.27344,-0.09375 0.54427,-0.1914 0.8125,-0.29297l0.0742,0.75391c-0.84373,0.38541 -1.70963,0.70833 -2.5977,0.96875l-0.27344,-0.83203c0.40105,-0.10417 0.75261,-0.20313 1.0547,-0.29688c0.03647,-0.013 0.06643,-0.0221 0.0899,-0.0273v-2.7578h-0.99219v-0.79297z"/><path d="M274.56,188.25v-0.33594h-2.4414v-0.5586h5.7656v0.5586h-2.4922v0.33594h3.2344v1.4023h-0.84766v-0.89844h-2.3867v1.5195h-0.83203v-1.5195h-2.3438v0.89844h-0.83984v-1.4023zM277.3256,193.793c0.39843,0.15105 0.89583,0.27084 1.4922,0.35938l-0.45704,0.66406c-0.83593,-0.14323 -1.52213,-0.38932 -2.0586,-0.73828c-0.53385,-0.34896 -0.94922,-0.78256 -1.2461,-1.3008h-0.86328v1.2031c0.57552,-0.08073 1.10939,-0.16666 1.6016,-0.25781l0.0547,0.58203c-0.91667,0.21875 -1.96483,0.40886 -3.1445,0.57032l-0.23046,-0.6875c0.40885,-0.04427 0.6888,-0.0755 0.83984,-0.0937l0.0469,-0.008v-1.3086h-0.85546c-0.03647,0.45833 -0.09636,0.82423 -0.17969,1.0977c-0.09896,0.32812 -0.25781,0.63411 -0.47656,0.91796l-0.69532,-0.57421c0.25521,-0.33073 0.41407,-0.71747 0.47657,-1.1602c0.03387,-0.23959 0.0508,-0.53776 0.0508,-0.89453v-1.6562h6.7422v0.51953h-5.9023v1.1992h6.2383v0.55078h-0.88672l0.4961,0.32812c-0.29427,0.24479 -0.64194,0.47396 -1.043,0.6875zM276.71622,193.49222c0.375,-0.25521 0.67318,-0.49349 0.89453,-0.71484h-1.707c0.22396,0.28646 0.49479,0.52474 0.8125,0.71484zM272.56002,189.04302h1.6641v0.44141h-1.6641zM272.56002,189.76177h1.6641v0.44922h-1.6641zM275.72802,189.04302h1.7148v0.44141h-1.7148zM275.72802,189.76177h1.7148v0.44922h-1.7148zM272.98582,191.35557h4.8633v0.51172h-4.8633z"/><path d="M281.03,193.1c0.013,0.013 0.02993,0.02993 0.0508,0.0508c0.22396,0.22917 0.47656,0.39583 0.75781,0.5c0.45313,0.16667 1.00783,0.25 1.6641,0.25h3.4219c-0.09896,0.1901 -0.1836,0.43749 -0.25391,0.74218h-3.1914c-0.8802,0 -1.54947,-0.11588 -2.0078,-0.34765c-0.27083,-0.13802 -0.52995,-0.34115 -0.77735,-0.60938c-0.36719,0.46094 -0.73829,0.84114 -1.1133,1.1406l-0.4375,-0.78906c0.39063,-0.2474 0.74479,-0.50912 1.0625,-0.78516v-2.0156h-1v-0.76953h1.8242zM283.573,191.8734c-0.47657,0.62761 -1.0534,1.14194 -1.7305,1.543l-0.53125,-0.59765c0.78387,-0.38542 1.46877,-0.92709 2.0547,-1.625h-1.6055v-1.9844h1.8125v-0.53516h-2.1172v-0.70312h2.1172v-0.76953h0.80078v0.76953h2.1875v0.70312h-2.1875v0.53516h1.8828v1.9844h-1.8828v0.15234c0.72653,0.31511 1.4635,0.71484 2.2109,1.1992l-0.50391,0.67187c-0.51823,-0.41145 -1.08723,-0.80339 -1.707,-1.1758v1.6328h-0.80078zM283.573,189.8187h-1.043v0.78125h1.043zM284.37378,189.8187v0.78125h1.1055v-0.78125zM280.51828,189.24838c-0.37239,-0.58333 -0.76433,-1.08203 -1.1758,-1.4961l0.64062,-0.49609c0.45573,0.42447 0.86067,0.90494 1.2148,1.4414z"/><path d="M288.77,188.02v-0.8164h0.81641v0.8164h1.2148v0.6875h-1.2148v0.67188h1.3828v0.69531h-0.46484c-0.08333,0.3099 -0.19531,0.63803 -0.33594,0.98438h0.7539v0.67968h-1.3359v0.72266h1.2852v0.69531h-1.2852v1.6484h-0.81641v-1.6484h-1.3789v-0.69531h1.3789v-0.72266h-1.4414v-0.67968h0.71875c-0.08333,-0.34635 -0.18489,-0.67448 -0.30468,-0.98438h-0.57422v-0.69531h1.6016v-0.67188h-1.2734v-0.6875zM289.74266,190.0747h-1.2422c0.08854,0.2474 0.18359,0.57553 0.28516,0.98438h0.64843c0.13542,-0.33333 0.23829,-0.66146 0.3086,-0.98438zM294.48096,187.4849v1.8281c0,0.22657 -0.04167,0.38672 -0.125,0.48047c-0.09896,0.11198 -0.30599,0.16797 -0.6211,0.16797c-0.30729,0 -0.61458,-0.01303 -0.92187,-0.0391l-0.13281,-0.70313c0.43229,0.04687 0.70703,0.0703 0.82422,0.0703c0.12239,0 0.18359,-0.05339 0.18359,-0.16016v-0.94141h-1.7109v2.2695h2.2148l0.46484,0.39844c-0.14063,0.82813 -0.39714,1.56773 -0.76953,2.2188l-0.043,0.0781c0.28646,0.33073 0.64453,0.63281 1.0742,0.90625l-0.4375,0.73047c-0.41146,-0.26563 -0.77866,-0.58334 -1.1016,-0.95313c-0.27865,0.35417 -0.59245,0.6875 -0.94141,1l-0.46094,-0.64062v0.60937h-0.79297v-7.3203zM291.97706,191.1607v2.9531c0.32031,-0.21875 0.62891,-0.52604 0.92578,-0.92187c-0.39843,-0.61459 -0.67838,-1.29165 -0.83984,-2.0312zM293.33646,192.5005c0.23177,-0.44791 0.38281,-0.89451 0.45312,-1.3398h-1.0078c0.12761,0.5 0.3125,0.9466 0.55469,1.3398z"/><path d="M297.72,194.8c-0.47656,-0.42969 -0.86719,-0.95442 -1.1719,-1.5742c-0.375,-0.763 -0.5625,-1.5065 -0.5625,-2.2305c0,-0.82033 0.23568,-1.65497 0.70704,-2.5039c0.28645,-0.51302 0.62889,-0.94402 1.0273,-1.293h0.76172c-0.34896,0.40104 -0.63021,0.77084 -0.84375,1.1094c-0.54167,0.8646 -0.8125,1.76303 -0.8125,2.6953c0,0.8802 0.24219,1.72917 0.72656,2.5469c0.22917,0.38542 0.53906,0.80209 0.92969,1.25z"/><path d="M305.59,189.44c0.36458,0.19791 0.79818,0.35547 1.3008,0.47266l-0.40625,0.63281c-0.57031,-0.19271 -1.03515,-0.41016 -1.3945,-0.65235c-0.36719,0.26563 -0.82032,0.45313 -1.3594,0.5625h1.8477v0.44922h-5.0391v-0.44922h1.3008l-0.0703,-0.29296h-1.8203v-0.82422c-0.1276,0.10677 -0.24869,0.19791 -0.36328,0.27343l-0.41406,-0.57812c0.39323,-0.22656 0.6888,-0.50911 0.88672,-0.84766l0.25,0.0273v-0.14844h-1.0742v-0.52734h1.0742v-0.33594h0.73437v0.33594h0.75v-0.33594h0.7461v0.33594h0.96094v0.52734h-0.96094v0.28125h0.8164c-0.00533,0.07031 -0.01053,0.1224 -0.0156,0.15625c-0.00533,0.05467 -0.00923,0.09764 -0.0117,0.12891c0.36979,-0.36979 0.66927,-0.86979 0.89844,-1.5l0.7539,0.15625c-0.06247,0.16927 -0.12757,0.32682 -0.19531,0.47265h1.9297v0.625h-0.53516c-0.11458,0.36719 -0.31119,0.71875 -0.58984,1.0547zM304.5822,189.4752c-0.15365,-0.14844 -0.31901,-0.35157 -0.4961,-0.60938c-0.12239,0.14323 -0.24349,0.26823 -0.36328,0.375l-0.40625,-0.47266c-0.07031,0.67707 -0.14063,1.10413 -0.21094,1.2812c-0.09114,0.22657 -0.26952,0.36198 -0.53515,0.40625h0.98047l-0.34766,-0.52734c0.58333,-0.08594 1.04297,-0.23698 1.3789,-0.45312zM305.04313,189.06113c0.15886,-0.1875 0.28647,-0.41276 0.38282,-0.67578h-0.97266c0.16667,0.25781 0.36328,0.48307 0.58984,0.67578zM301.79313,188.34629v-0.28125h-0.75v0.28125zM300.44153,188.82676c-0.05467,0.07031 -0.12498,0.14974 -0.21094,0.23828h1.918v0.89453c0.03127,0.00267 0.0495,0.004 0.0547,0.004c0.08854,0 0.14844,-0.04037 0.17969,-0.1211c0.08333,-0.19791 0.14583,-0.53645 0.1875,-1.0156zM300.63684,189.49082v0.24609h0.83985v-0.24609zM306.10164,193.26422v1.5391h-0.875v-0.27344h-4.3828v0.27344h-0.8711v-1.5391zM300.84384,193.72125v0.33594h4.3828v-0.33594zM299.23444,191.15485h7.6016v0.50391h-7.6016zM300.28134,191.91267h5.5117v0.42578h-5.5117zM300.28134,192.59626h5.5117v0.41406h-5.5117z"/><path d="M308.81,188.02v-0.8164h0.81641v0.8164h1.2148v0.6875h-1.2148v0.67188h1.3828v0.69531h-0.46484c-0.08333,0.3099 -0.19531,0.63803 -0.33594,0.98438h0.75391v0.67968h-1.3359v0.72266h1.2852v0.69531h-1.2852v1.6484h-0.81641v-1.6484h-1.3789v-0.69531h1.3789v-0.72266h-1.4414v-0.67968h0.71875c-0.08333,-0.34635 -0.1849,-0.67448 -0.30469,-0.98438h-0.57422v-0.69531h1.6016v-0.67188h-1.2734v-0.6875zM309.78266,190.0747h-1.2422c0.08854,0.2474 0.18359,0.57553 0.28516,0.98438h0.64844c0.13541,-0.33333 0.23828,-0.66146 0.30859,-0.98438zM314.52096,187.4849v1.8281c0,0.22657 -0.04167,0.38672 -0.125,0.48047c-0.09896,0.11198 -0.30599,0.16797 -0.62109,0.16797c-0.30729,0 -0.61459,-0.01303 -0.92188,-0.0391l-0.13281,-0.70313c0.43229,0.04687 0.70703,0.0703 0.82422,0.0703c0.12239,0 0.18359,-0.05339 0.18359,-0.16016v-0.94141h-1.7109v2.2695h2.2148l0.46484,0.39844c-0.14063,0.82813 -0.39714,1.56773 -0.76953,2.2188l-0.043,0.0781c0.28646,0.33073 0.64453,0.63281 1.0742,0.90625l-0.4375,0.73047c-0.41146,-0.26563 -0.77866,-0.58334 -1.1016,-0.95313c-0.27865,0.35417 -0.59245,0.6875 -0.94141,1l-0.46094,-0.64062v0.60937h-0.79296v-7.3203zM312.01706,191.1607v2.9531c0.32031,-0.21875 0.62891,-0.52604 0.92579,-0.92187c-0.39844,-0.61459 -0.67839,-1.29165 -0.83985,-2.0312zM313.37646,192.5005c0.23177,-0.44791 0.38281,-0.89451 0.45312,-1.3398h-1.0078c0.12761,0.5 0.3125,0.9466 0.55469,1.3398z"/><path d="M315.6,194.8c0.34895,-0.40104 0.6302,-0.77084 0.84375,-1.1094c0.54167,-0.8646 0.8125,-1.76043 0.8125,-2.6875c0,-0.8854 -0.24219,-1.73697 -0.72657,-2.5547c-0.22656,-0.38021 -0.53645,-0.79687 -0.92968,-1.25h0.76171c0.47657,0.43229 0.8672,0.95703 1.1719,1.5742c0.375,0.763 0.5625,1.5052 0.5625,2.2266c0,0.82293 -0.23698,1.65887 -0.71094,2.5078c-0.28385,0.51042 -0.62499,0.94142 -1.0234,1.293z"/><path d="M323.51,193.61c1.52867,-0.38541 2.293,-1.26171 2.293,-2.6289c0,-0.59635 -0.15365,-1.10939 -0.46094,-1.5391c-0.34375,-0.48437 -0.86719,-0.79557 -1.5703,-0.93359c-0.15365,1.20833 -0.36328,2.19793 -0.62891,2.9688c-0.18229,0.53906 -0.40886,1.04816 -0.67969,1.5273c-0.39062,0.68227 -0.83462,1.0234 -1.332,1.0234c-0.36979,0 -0.69922,-0.16667 -0.98828,-0.5c-0.18489,-0.21094 -0.33463,-0.47005 -0.44922,-0.77734c-0.15104,-0.39844 -0.22656,-0.82684 -0.22656,-1.2852c0,-0.7422 0.20443,-1.4258 0.61328,-2.0508c0.41406,-0.63802 0.95183,-1.10155 1.6133,-1.3906c0.48177,-0.21093 1.01041,-0.3164 1.5859,-0.3164c0.89847,0 1.6615,0.24088 2.2891,0.72265c0.7708,0.59115 1.1562,1.42838 1.1562,2.5117c0,1.81513 -0.91797,2.96617 -2.7539,3.4531zM322.92406,188.4772c-0.46094,0.05207 -0.84634,0.17576 -1.1562,0.37109c-0.19791,0.12761 -0.39453,0.29688 -0.58984,0.50781c-0.54167,0.59896 -0.8125,1.29296 -0.8125,2.082c0,0.57552 0.11458,1.02605 0.34375,1.3516c0.14062,0.20052 0.27994,0.30078 0.41797,0.30078c0.1875,0 0.39844,-0.20703 0.63281,-0.62109c0.57291,-1.0078 0.96095,-2.33853 1.1641,-3.9922z"/><path d="M333.01,189.06c0.35156,-0.29427 0.69269,-0.64194 1.0234,-1.043l0.64062,0.49609c-0.28125,0.3125 -0.62368,0.6211 -1.0273,0.92579c0.34375,0.17969 0.77215,0.36458 1.2852,0.55468l-0.42578,0.6875c-0.46875,-0.18229 -0.89581,-0.38671 -1.2812,-0.61328v0.40625h-0.72656v1.0508h2.2578v0.75391h-2.2578v1.3086c0,0.13802 0.02993,0.22005 0.0898,0.2461c0.08073,0.03387 0.2474,0.0508 0.5,0.0508c0.27605,0 0.46485,-0.01693 0.56641,-0.0508c0.10156,-0.03127 0.16666,-0.11851 0.19531,-0.26172c0.03647,-0.17709 0.056,-0.4323 0.0586,-0.76563l0.85546,0.25391c-0.02867,0.69273 -0.10419,1.12763 -0.22656,1.3047c-0.10677,0.15365 -0.27343,0.24609 -0.5,0.27734c-0.22917,0.03127 -0.60027,0.0469 -1.1133,0.0469c-0.48437,0 -0.79687,-0.02993 -0.9375,-0.0898c-0.22917,-0.09635 -0.34375,-0.3138 -0.34375,-0.65234v-1.668h-1.2305c-0.05987,0.67447 -0.28122,1.2018 -0.66406,1.582c-0.42187,0.42187 -1.04427,0.73958 -1.8672,0.95313l-0.5039,-0.7461c0.737,-0.15365 1.27997,-0.38021 1.6289,-0.67969c0.19011,-0.16667 0.32813,-0.36979 0.41406,-0.60937c0.04687,-0.125 0.08593,-0.29167 0.11719,-0.5h-2.0547v-0.75391h2.0938v-1.0508h-0.60937v-0.32422c-0.45833,0.28646 -0.92707,0.51693 -1.4062,0.69141l-0.39063,-0.65625c0.56511,-0.19271 1.09374,-0.4414 1.5859,-0.74609c-0.28385,-0.27083 -0.60417,-0.52604 -0.96094,-0.76563l0.56641,-0.55859c0.40365,0.28125 0.74738,0.5651 1.0312,0.85156c0.30729,-0.26302 0.56901,-0.53906 0.78516,-0.82813h-1.4102v-0.73437h2.6836c0.21355,0.35417 0.4323,0.65234 0.65625,0.89453c0.30469,-0.27083 0.62371,-0.60156 0.95704,-0.99219l0.63281,0.4961c-0.31511,0.34115 -0.67187,0.66667 -1.0703,0.97656c0.14323,0.11198 0.27083,0.20573 0.38281,0.28125zM331.6428,190.4741h-1.2031v1.0508h1.2031zM329.5451,189.75535h3.1836c-0.64844,-0.43489 -1.20834,-0.93619 -1.6797,-1.5039c-0.375,0.53385 -0.8763,1.03515 -1.5039,1.5039z"/><path d="M340.27,193.16l0.0547,0.69921c-1.1302,0.39844 -2.3867,0.72657 -3.7695,0.98438l-0.28906,-0.78125c0.23958,-0.03647 0.57811,-0.09506 1.0156,-0.17578v-1.4297c-0.45052,0.22917 -0.98699,0.44661 -1.6094,0.65234l-0.44531,-0.69531c1.2526,-0.33854 2.20833,-0.77084 2.8672,-1.2969h-2.7891v-0.67969h3.3477v-0.58984h-2.5312v-0.65625h2.5312v-0.55079h-2.9297v-0.67187h2.9297v-0.76953h0.85547v0.76953h3.0156v0.67187h-3.0156v0.55079h2.6172v0.65625h-2.6172v0.58984h3.4336v0.67969h-0.93359l0.57812,0.39843c-0.35677,0.34636 -0.85677,0.72526 -1.5,1.1367l-0.0898,0.0586c0.48958,0.44791 1.15365,0.81771 1.9922,1.1094l-0.52734,0.79297c-0.90887,-0.38541 -1.63933,-0.86978 -2.1914,-1.4531zM339.0864,191.1288c-0.26041,0.30469 -0.57422,0.57812 -0.94141,0.82031v1.7539c0.64323,-0.14323 1.28907,-0.30989 1.9375,-0.5l0.17969,-0.0508c-0.53385,-0.59115 -0.92579,-1.26561 -1.1758,-2.0234zM340.5122,192.1952c0.46354,-0.33073 0.86981,-0.69009 1.2188,-1.0781h-1.8476c0.16667,0.39843 0.3763,0.7578 0.6289,1.0781z"/><path d="M345.96,187.8v5.582h-1.6641v0.66406h-0.77735v-6.2461zM344.2959,188.52656v1.6484h0.89453v-1.6484zM344.2959,190.88596v1.7422h0.89453v-1.7422zM347.96,188.06176v-0.86328h0.83203v0.86328h1.7031v0.71094h-1.7031v0.89843h2.1445v0.71875h-1.1211v0.83985h0.9375v0.73437h-0.9375v2.1133c0,0.28646 -0.07813,0.48308 -0.23438,0.58985c-0.125,0.08333 -0.33724,0.125 -0.63671,0.125c-0.36198,0 -0.66927,-0.01693 -0.92188,-0.0508l-0.16016,-0.78125c0.30729,0.05207 0.59506,0.0781 0.86329,0.0781c0.12239,0 0.19921,-0.02603 0.23046,-0.0781c0.02347,-0.03647 0.0352,-0.09636 0.0352,-0.17969v-1.8164h-2.7656v-0.73437h2.7656v-0.83985h-2.8633v-0.71875h1.832v-0.89843h-1.5938v-0.71094zM347.44047,193.80786c-0.26302,-0.54167 -0.53516,-1.0039 -0.81641,-1.3867l0.71094,-0.39843c0.30989,0.375 0.59505,0.82293 0.85547,1.3438z"/><path d="M352.01,194.46c-0.09896,-0.8854 -0.14844,-1.7656 -0.14844,-2.6406c0,-1.5 0.11068,-2.92447 0.33203,-4.2734l0.85938,0.0898c-0.21094,1.16667 -0.31641,2.48307 -0.31641,3.9492c0,0.9844 0.05469,1.90497 0.16406,2.7617zM354.3538,188.2725h3.7539v0.83203h-3.7539zM358.3733,193.9795c-0.52083,0.08073 -1.13933,0.1211 -1.8555,0.1211c-1.79947,0 -2.6992,-0.52863 -2.6992,-1.5859c0,-0.41927 0.11198,-0.78517 0.33594,-1.0977l0.73828,0.32813c-0.14063,0.19791 -0.21094,0.42057 -0.21094,0.66797c0,0.30469 0.15234,0.51432 0.45703,0.6289c0.33855,0.13021 0.80078,0.19532 1.3867,0.19532c0.63281,0 1.21875,-0.04167 1.7578,-0.125z"/><path d="M364.93,189.06c0.35157,-0.29427 0.6927,-0.64194 1.0234,-1.043l0.64063,0.49609c-0.28125,0.3125 -0.62372,0.6211 -1.0274,0.92579c0.34375,0.17969 0.77215,0.36458 1.2852,0.55468l-0.42578,0.6875c-0.46875,-0.18229 -0.89582,-0.38671 -1.2812,-0.61328v0.40625h-0.72657v1.0508h2.2578v0.75391h-2.2578v1.3086c0,0.13802 0.02997,0.22005 0.0899,0.2461c0.08073,0.03387 0.24739,0.0508 0.5,0.0508c0.27604,0 0.46484,-0.01693 0.5664,-0.0508c0.10157,-0.03127 0.16667,-0.11851 0.19532,-0.26172c0.03647,-0.17709 0.056,-0.4323 0.0586,-0.76563l0.85547,0.25391c-0.02867,0.69273 -0.10419,1.12763 -0.22656,1.3047c-0.10677,0.15365 -0.27344,0.24609 -0.5,0.27734c-0.22917,0.03127 -0.60027,0.0469 -1.1133,0.0469c-0.48438,0 -0.79688,-0.02993 -0.9375,-0.0898c-0.22917,-0.09635 -0.34375,-0.3138 -0.34375,-0.65234v-1.668h-1.2305c-0.05993,0.67447 -0.28129,1.2018 -0.66407,1.582c-0.42187,0.42187 -1.04427,0.73958 -1.8672,0.95313l-0.50391,-0.7461c0.737,-0.15365 1.27997,-0.38021 1.6289,-0.67969c0.1901,-0.16667 0.32812,-0.36979 0.41406,-0.60937c0.04687,-0.125 0.08593,-0.29167 0.11719,-0.5h-2.0547v-0.75391h2.0937v-1.0508h-0.60938v-0.32422c-0.45833,0.28646 -0.92707,0.51693 -1.4062,0.69141l-0.39062,-0.65625c0.56511,-0.19271 1.09374,-0.4414 1.5859,-0.74609c-0.28385,-0.27083 -0.60417,-0.52604 -0.96094,-0.76563l0.56641,-0.55859c0.40364,0.28125 0.74737,0.5651 1.0312,0.85156c0.30729,-0.26302 0.569,-0.53906 0.78515,-0.82813h-1.4102v-0.73437h2.6836c0.21354,0.35417 0.43229,0.65234 0.65625,0.89453c0.30469,-0.27083 0.6237,-0.60156 0.95703,-0.99219l0.63281,0.4961c-0.3151,0.34115 -0.67187,0.66667 -1.0703,0.97656c0.14323,0.11198 0.27083,0.20573 0.38281,0.28125zM363.5628,190.4741h-1.2031v1.0508h1.2031zM361.4651,189.75535h3.1836c-0.64843,-0.43489 -1.20833,-0.93619 -1.6797,-1.5039c-0.375,0.53385 -0.8763,1.03515 -1.5039,1.5039z"/><path d="M372.19,193.16l0.0547,0.69921c-1.1302,0.39844 -2.3867,0.72657 -3.7695,0.98438l-0.28907,-0.78125c0.23959,-0.03647 0.57812,-0.09506 1.0156,-0.17578v-1.4297c-0.45052,0.22917 -0.98699,0.44661 -1.6094,0.65234l-0.44531,-0.69531c1.2526,-0.33854 2.20833,-0.77084 2.8672,-1.2969h-2.7891v-0.67969h3.3476v-0.58984h-2.5312v-0.65625h2.5312v-0.55079h-2.9297v-0.67187h2.9297v-0.76953h0.85547v0.76953h3.0156v0.67187h-3.0156v0.55079h2.6172v0.65625h-2.6172v0.58984h3.4336v0.67969h-0.93359l0.57813,0.39843c-0.35677,0.34636 -0.85677,0.72526 -1.5,1.1367l-0.0899,0.0586c0.48959,0.44791 1.15365,0.81771 1.9922,1.1094l-0.52734,0.79297c-0.90887,-0.38541 -1.63933,-0.86978 -2.1914,-1.4531zM371.0064,191.1288c-0.26042,0.30469 -0.57422,0.57812 -0.94141,0.82031v1.7539c0.64323,-0.14323 1.28906,-0.30989 1.9375,-0.5l0.17969,-0.0508c-0.53385,-0.59115 -0.92579,-1.26561 -1.1758,-2.0234zM372.4322,192.1952c0.46354,-0.33073 0.86981,-0.69009 1.2188,-1.0781h-1.8477c0.16667,0.39843 0.3763,0.7578 0.62891,1.0781z"/><path d="M375.51,188.74h3.1367c-0.16927,-0.44531 -0.32422,-0.88801 -0.46485,-1.3281l0.85547,-0.0547c0.13542,0.46355 0.29818,0.92448 0.48828,1.3828h2.8867v0.80078h-2.5195c0.33594,0.69533 0.75651,1.4206 1.2617,2.1758l-0.82031,0.39062c-0.55729,-0.84373 -1.01433,-1.6992 -1.3711,-2.5664h-3.4531zM381.1897,194.5017c-0.51823,0.02867 -0.97657,0.043 -1.375,0.043c-1.08333,0 -1.8815,-0.08463 -2.3945,-0.2539c-0.92707,-0.30209 -1.3906,-0.87239 -1.3906,-1.7109c0,-0.51563 0.16016,-0.93099 0.48047,-1.2461l0.73437,0.39843c-0.21354,0.21094 -0.32031,0.48698 -0.32031,0.82813c0,0.43489 0.23438,0.73958 0.70313,0.91406c0.41406,0.15365 1.10676,0.23047 2.0781,0.23047c0.41146,0 0.87499,-0.01953 1.3906,-0.0586z"/><path d="M384.87,187.38h0.86328v2.207c0.61979,-0.64323 1.11589,-1.08463 1.4883,-1.3242c0.34635,-0.22396 0.70572,-0.33594 1.0781,-0.33594c0.375,0 0.67708,0.10547 0.90625,0.31641c0.30209,0.28125 0.45313,0.64975 0.45313,1.1055c0,0.11979 -0.01563,0.27865 -0.0469,0.47656c-0.22917,1.45573 -0.34375,2.46353 -0.34375,3.0234c0,0.23958 0.0612,0.35937 0.18359,0.35937c0.07813,0 0.18099,-0.04427 0.3086,-0.13281c0.26823,-0.18489 0.53906,-0.48828 0.8125,-0.91015l0.32031,0.89453c-0.16667,0.26562 -0.3737,0.5013 -0.62109,0.70703c-0.28646,0.23958 -0.59245,0.35937 -0.91797,0.35937c-0.3099,0 -0.55079,-0.10807 -0.72266,-0.32422c-0.14583,-0.18489 -0.21875,-0.49349 -0.21875,-0.92578c0,-0.32812 0.04297,-0.82162 0.12891,-1.4805c0.10937,-0.82813 0.18229,-1.44273 0.21875,-1.8438c0.00533,-0.06513 0.008,-0.11982 0.008,-0.16406c0,-0.22917 -0.04818,-0.40495 -0.14453,-0.52734c-0.09115,-0.11719 -0.21745,-0.17578 -0.37891,-0.17578c-0.54427,0 -1.3815,0.72527 -2.5117,2.1758v3.6875h-0.86328v-2.7031c-0.43489,0.60938 -0.83593,1.18491 -1.2031,1.7266l-0.40625,-0.92579c0.61719,-0.7474 1.15365,-1.45963 1.6094,-2.1367v-0.99219h-1.3713v-0.78516h1.3711z"/><path d="M391.54,188.59h1.8242c0.07291,-0.32291 0.15494,-0.74088 0.24609,-1.2539l0.88281,0.10937c-0.07812,0.40365 -0.16145,0.78515 -0.25,1.1445h2.6016v0.77735h-2.7852c-0.52083,2.08073 -1.09637,3.806 -1.7266,5.1758l-0.86328,-0.30469c0.68487,-1.5182 1.25517,-3.1419 1.7109,-4.8711h-1.6406zM398.4541,194.3361c-0.42187,0.05467 -0.89584,0.082 -1.4219,0.082c-0.8516,0 -1.49483,-0.07292 -1.9297,-0.21875c-0.16667,-0.05727 -0.30859,-0.138 -0.42578,-0.24219c-0.22917,-0.20833 -0.34375,-0.47396 -0.34375,-0.79687c0,-0.33073 0.10677,-0.6224 0.32031,-0.875l0.69531,0.41015c-0.08073,0.10157 -0.12109,0.21355 -0.12109,0.33594c0,0.21094 0.09635,0.34766 0.28906,0.41016c0.29427,0.09375 0.71354,0.14062 1.2578,0.14062c0.52865,0 1.05598,-0.03906 1.582,-0.11719zM394.79,190.465c1.0208,-0.11719 2.138,-0.17969 3.3516,-0.1875l0.0391,0.79297c-1.19013,0.00533 -2.28257,0.06132 -3.2773,0.16797z"/><path d="M251.09,201.16v3.0938c0,0.20052 0.08594,0.32161 0.25781,0.36328c0.17709,0.04427 0.58202,0.0664 1.2148,0.0664c0.61719,0 1.02472,-0.03123 1.2226,-0.0937c0.11198,-0.03647 0.1849,-0.13803 0.21875,-0.30469c0.04427,-0.23437 0.0677,-0.51172 0.0703,-0.83203l0.81641,0.23047c-0.04167,0.7682 -0.14714,1.2591 -0.31641,1.4727c-0.11197,0.14062 -0.28124,0.22395 -0.50781,0.25c-0.35677,0.03907 -0.96223,0.0586 -1.8164,0.0586c-0.66146,0 -1.09506,-0.01823 -1.3008,-0.0547c-0.30989,-0.05207 -0.50651,-0.18878 -0.58984,-0.41015c-0.04167,-0.11719 -0.0625,-0.27344 -0.0625,-0.46875v-3.0977l-0.74609,0.25781l-0.1836,-0.75781l0.92969,-0.32031v-2.1055h0.79297v1.832l0.83984,-0.28516v-2.0586h0.78516v1.7852l1.3086,-0.44922l0.41016,0.25v2.9258c0,0.20313 -0.04818,0.35417 -0.14453,0.45312c-0.10937,0.10938 -0.29297,0.16407 -0.55078,0.16407c-0.21094,0 -0.4349,-0.01823 -0.67188,-0.0547l-0.1289,-0.7461c0.15364,0.03907 0.30989,0.0586 0.46875,0.0586c0.11458,0 0.18489,-0.02343 0.21093,-0.0703c0.02607,-0.03907 0.0391,-0.10417 0.0391,-0.19532v-1.8476l-0.94141,0.32812v3.1602h-0.78516v-2.8906zM248.2189,199.8827v-1.8867h0.83984v1.8867h0.75781v0.79297h-0.75781v2.4844c0.27344,-0.09375 0.54427,-0.1914 0.8125,-0.29297l0.0742,0.75391c-0.84373,0.38541 -1.70963,0.70833 -2.5977,0.96875l-0.27344,-0.83203c0.40105,-0.10417 0.75261,-0.20313 1.0547,-0.29688c0.03647,-0.013 0.0664,-0.0221 0.0898,-0.0273v-2.7578h-0.99219v-0.79297z"/><path d="M261.86,199.37c-0.013,-0.02607 -0.02473,-0.0521 -0.0352,-0.0781c-0.15104,-0.34115 -0.36328,-0.67448 -0.63671,-1l0.64843,-0.30469c0.28907,0.32292 0.52344,0.67449 0.70313,1.0547l-0.625,0.32813h0.82422v0.71875h-1.8047l0.008,0.15625c0.03907,0.82293 0.11849,1.53387 0.23828,2.1328c0.21615,-0.47396 0.41146,-1.00129 0.58594,-1.582l0.72656,0.3125c-0.30989,0.8802 -0.65496,1.64973 -1.0352,2.3086c0.10937,0.32552 0.23177,0.61068 0.36718,0.85547c0.05207,0.09375 0.09113,0.14063 0.11719,0.14063c0.02867,0 0.07164,-0.07813 0.12891,-0.23438c0.06507,-0.18489 0.11715,-0.5026 0.15625,-0.95312l0.64844,0.45703c-0.08594,0.67187 -0.19532,1.16013 -0.32813,1.4648c-0.11719,0.26563 -0.26432,0.39844 -0.44141,0.39844c-0.17447,0 -0.3776,-0.13021 -0.60937,-0.39063c-0.22396,-0.2526 -0.42057,-0.56119 -0.58984,-0.92578c-0.44531,0.5599 -0.95445,1.03907 -1.5274,1.4375l-0.57422,-0.58984c0.4974,-0.29948 0.9336,-0.65105 1.3086,-1.0547c-0.63802,0.25 -1.47915,0.48568 -2.5234,0.70703l-0.25781,-0.72656c1.08593,-0.17969 2.02473,-0.39062 2.8164,-0.63281l0.0274,0.57812c0.14062,-0.15625 0.28124,-0.33724 0.42187,-0.54297c-0.21875,-0.7578 -0.36849,-1.86327 -0.44922,-3.3164h-2.5664v0.55468h-0.63282v2.5703c0.23959,-0.09896 0.45834,-0.19271 0.65625,-0.28125l0.0859,0.76562c-0.77347,0.41146 -1.5456,0.74479 -2.3164,1l-0.28125,-0.82422c0.29427,-0.08333 0.64063,-0.19661 1.0391,-0.33984v-2.8906h-0.91797v-0.77734h0.91797v-1.8789h0.8164v1.8789h0.5586v-0.49609h2.6055l-0.0156,-0.27344c-0.013,-0.24739 -0.02603,-0.61199 -0.0391,-1.0938h0.80078c0.0156,0.67707 0.02993,1.1328 0.043,1.3672zM259.9655,200.7645v2.3594h-2.0859v-2.3594zM258.5436,201.39731v1.1016h0.77344v-1.1016z"/><path d="M263.88,199.1h2.1055c0.23177,-0.36979 0.40756,-0.66797 0.52735,-0.89454l0.87109,0.125c-0.07813,0.14063 -0.21615,0.36979 -0.41406,0.6875l-0.0508,0.082h2.7539v0.76953h-3.2734c-0.34115,0.46875 -0.66667,0.87501 -0.97657,1.2188c0.49219,-0.29427 0.94143,-0.44141 1.3477,-0.44141c0.63021,0 1.04297,0.31641 1.2383,0.94922c0.66667,-0.22135 1.34637,-0.4401 2.0391,-0.65625l0.33594,0.75781l-0.13672,0.0391l-0.38672,0.10157c-0.7292,0.19791 -1.31253,0.36718 -1.75,0.50781c0.03127,0.33854 0.0534,0.77604 0.0664,1.3125l-0.85547,0.0469c-0.00267,-0.30989 -0.00787,-0.64583 -0.0156,-1.0078v-0.0781c-1.19793,0.40885 -1.7969,0.82032 -1.7969,1.2344c0,0.21354 0.15365,0.35937 0.46094,0.4375c0.29687,0.07552 0.82814,0.11328 1.5938,0.11328c0.70573,0 1.44663,-0.04036 2.2227,-0.12109l0.0937,0.83203c-0.7526,0.05727 -1.53253,0.0859 -2.3398,0.0859c-0.9948,0 -1.70183,-0.07552 -2.1211,-0.22656c-0.51823,-0.1875 -0.77735,-0.52473 -0.77735,-1.0117c0,-0.41146 0.1836,-0.77473 0.55079,-1.0898c0.38021,-0.32552 1.04947,-0.66145 2.0078,-1.0078c-0.05207,-0.20052 -0.12108,-0.34114 -0.20703,-0.42187c-0.09635,-0.09115 -0.22396,-0.13672 -0.38282,-0.13672c-0.25781,0 -0.58202,0.09766 -0.97265,0.29297c-0.48177,0.23958 -0.99871,0.60025 -1.5508,1.082l-0.51953,-0.59375c0.80987,-0.7526 1.44397,-1.4922 1.9023,-2.2188h-1.5898z"/><path d="M275.64,198.86h2.9609v0.73438h-6.0586v1.6875c0,0.38541 -0.0052,0.72135 -0.0156,1.0078c0.55469,-0.66146 1.01562,-1.52996 1.3828,-2.6055l0.8125,0.18359c-0.14063,0.39323 -0.31511,0.79167 -0.52344,1.1953v4.5352h-0.83203v-3.1719c-0.17448,0.24219 -0.35026,0.47005 -0.52735,0.68359l-0.3164,-0.72266c-0.02867,0.67187 -0.08726,1.2448 -0.17578,1.7188c-0.10157,0.54167 -0.26823,1.03907 -0.5,1.4922l-0.69532,-0.625c0.21355,-0.48698 0.36068,-1.03905 0.44141,-1.6562c0.07291,-0.5651 0.10937,-1.2591 0.10937,-2.082v-2.375h3.0508v-0.86328h0.88671zM276.8392,200.9889v-1.1524h0.83985v1.1524h1.1211v0.74218h-1.1211v3.082c0,0.33073 -0.09505,0.54427 -0.28516,0.64062c-0.10937,0.05727 -0.29036,0.0859 -0.54297,0.0859c-0.40625,0 -0.77865,-0.02083 -1.1172,-0.0625l-0.16796,-0.79297c0.42187,0.05987 0.76561,0.0898 1.0312,0.0898c0.11719,0 0.1888,-0.01953 0.21484,-0.0586c0.0182,-0.03127 0.0273,-0.08726 0.0273,-0.16797v-2.8164h-2.3828v-0.74218zM275.7259,203.9889c-0.32813,-0.64063 -0.66146,-1.18229 -1,-1.625l0.67188,-0.40625c0.42448,0.53906 0.75781,1.06379 1,1.5742z"/><path d="M285.7,198.19v3.7852h-4.6484v-3.7852zM281.8914,198.80718v0.48828h2.9609v-0.48828zM281.8914,199.84628v0.48828h2.9609v-0.48828zM281.8914,200.88538v0.5039h2.9609v-0.5039zM280.3172,202.49478h6.4766v0.67969h-3.2305v2.4258h-0.88672v-2.4258h-3.2148v-4.3828h0.85547zM279.3172,204.85418c0.61979,-0.28646 1.21226,-0.76693 1.7774,-1.4414l0.71875,0.41797c-0.55729,0.70573 -1.17579,1.26043 -1.8555,1.6641zM286.0516,205.35808c-0.39844,-0.48958 -0.99741,-1.00391 -1.7969,-1.543l0.67188,-0.47266c0.6276,0.36198 1.24347,0.83725 1.8476,1.4258z"/><path d="M291.83,200.21c0.18229,0.09375 0.39193,0.20573 0.62891,0.33594l-0.49609,0.40234h2.3516l0.44141,0.44141c-0.58594,0.8828 -1.17057,1.60807 -1.7539,2.1758l-0.79297,-0.46484c0.51302,-0.46875 0.92449,-0.93489 1.2344,-1.3984h-1.9453v3.0625c0,0.35417 -0.08724,0.58073 -0.26172,0.67969c-0.11719,0.06771 -0.33594,0.10156 -0.65625,0.10156c-0.41927,0 -0.8815,-0.02603 -1.3867,-0.0781l-0.19141,-0.87112c0.48698,0.07813 0.91928,0.11719 1.2969,0.11719c0.14323,0 0.23178,-0.02343 0.26563,-0.0703c0.02607,-0.03907 0.0391,-0.11068 0.0391,-0.21484v-2.7266h-3.2734v-0.75391h4.2344c-0.8802,-0.50521 -1.7604,-0.93227 -2.6406,-1.2812l0.63282,-0.5039c0.59115,0.23697 1.11328,0.46744 1.5664,0.6914c0.40105,-0.27343 0.75261,-0.54166 1.0547,-0.80469h-4.1758v-0.74218h5.3125l0.48047,0.46875c-0.68227,0.54948 -1.3372,1.02735 -1.9648,1.4336z"/><path d="M296.77,198.82v-0.81641h0.81641v0.81641h1.2148v0.6875h-1.2148v0.67187h1.3828v0.69531h-0.46484c-0.08333,0.3099 -0.19531,0.63803 -0.33594,0.98438h0.7539v0.67969h-1.3359v0.72265h1.2852v0.69531h-1.2852v1.6484h-0.81641v-1.6484h-1.3789v-0.69531h1.3789v-0.72265h-1.4414v-0.67969h0.71875c-0.08333,-0.34635 -0.18489,-0.67448 -0.30468,-0.98438h-0.57422v-0.69531h1.6016v-0.67187h-1.2734v-0.6875zM297.74266,200.8747h-1.2422c0.08854,0.2474 0.18359,0.57553 0.28516,0.98438h0.64843c0.13542,-0.33333 0.23829,-0.66146 0.3086,-0.98438zM302.48096,198.2849v1.8281c0,0.22657 -0.04167,0.38672 -0.125,0.48047c-0.09896,0.11198 -0.30599,0.16797 -0.6211,0.16797c-0.30729,0 -0.61458,-0.01303 -0.92187,-0.0391l-0.13281,-0.70313c0.43229,0.04687 0.70703,0.0703 0.82422,0.0703c0.12239,0 0.18359,-0.05339 0.18359,-0.16016v-0.94141h-1.7109v2.2695h2.2148l0.46484,0.39843c-0.14063,0.82813 -0.39714,1.56773 -0.76953,2.2188l-0.043,0.0781c0.28646,0.33073 0.64453,0.63281 1.0742,0.90625l-0.4375,0.73047c-0.41146,-0.26563 -0.77866,-0.58334 -1.1016,-0.95313c-0.27865,0.35417 -0.59245,0.6875 -0.94141,1l-0.46094,-0.64062v0.60937h-0.79297v-7.3203zM299.97706,201.9607v2.9531c0.32031,-0.21875 0.62891,-0.52605 0.92578,-0.92188c-0.39843,-0.61458 -0.67838,-1.29165 -0.83984,-2.0312zM301.33646,203.3005c0.23177,-0.44791 0.38281,-0.89451 0.45312,-1.3398h-1.0078c0.12761,0.5 0.3125,0.9466 0.55469,1.3398z"/><path d="M304.58,199.22v5.0273h6v0.8086h-6v0.54687h-0.89453v-7.1602h6.6875v0.77734zM306.9355,201.7903c-0.54167,-0.44271 -1.16407,-0.89454 -1.8672,-1.3555l0.54688,-0.60937c0.65365,0.41406 1.27735,0.85156 1.8711,1.3125c0.37239,-0.49479 0.71876,-1.06509 1.0391,-1.7109l0.8086,0.39063c-0.37761,0.7344 -0.76564,1.3581 -1.1641,1.8711c0.48438,0.39844 1.03255,0.88671 1.6445,1.4648l-0.63282,0.66407c-0.57812,-0.57031 -1.10285,-1.05858 -1.5742,-1.4648c-0.17447,0.17969 -0.30989,0.3151 -0.40625,0.40625c-0.51562,0.47657 -1.12239,0.90103 -1.8203,1.2734l-0.53515,-0.6875c0.30729,-0.16146 0.55859,-0.30599 0.7539,-0.43359c0.44011,-0.28907 0.88541,-0.66277 1.3359,-1.1211z"/><path d="M311.46,198.95c2.39587,-0.03647 4.6602,-0.09767 6.793,-0.1836l0.0469,0.77735c-0.94013,0.04687 -1.6719,0.1901 -2.1953,0.42969c-0.5,0.22917 -0.90103,0.54687 -1.2031,0.95312c-0.34375,0.46094 -0.51563,0.97397 -0.51563,1.5391c0,0.5625 0.19531,0.98437 0.58594,1.2656c0.44791,0.32031 1.13541,0.54036 2.0625,0.66015l-0.18359,0.87891c-1.20833,-0.16146 -2.0586,-0.47396 -2.5508,-0.9375c-0.52864,-0.49479 -0.79296,-1.10939 -0.79296,-1.8438c0,-0.66667 0.23958,-1.28907 0.71875,-1.8672c0.34895,-0.42448 0.82682,-0.76561 1.4336,-1.0234c-1.07553,0.03647 -2.46227,0.09766 -4.1602,0.18359zM317.1397,202.3211c-0.15365,-0.40885 -0.41276,-0.87239 -0.77735,-1.3906l0.60938,-0.22657c0.32552,0.44792 0.58724,0.90625 0.78516,1.375zM318.1944,201.91095c-0.1849,-0.47917 -0.44271,-0.9453 -0.77344,-1.3984l0.58203,-0.20703c0.30469,0.36979 0.5638,0.81772 0.77734,1.3438z"/><path d="M322.07,202.91v2.0508c0.52083,-0.1849 0.875,-0.48047 1.0625,-0.88672c0.14583,-0.3125 0.22396,-0.91017 0.23437,-1.793h0.78516c-0.0078,1.02867 -0.11457,1.7448 -0.32031,2.1484c-0.27865,0.54167 -0.75391,0.95053 -1.4258,1.2266l-0.33594,-0.46094v0.004h-1.8672v0.40234h-0.76953v-2.6914zM320.2028,203.58187v0.95313h1.0977v-0.95313zM324.0426,198.71857v-0.71094h0.79297v0.71094h1.9024v0.6875h-1.9024v0.55469h1.6797v0.67187h-4.0547v-0.67187h1.582v-0.55469h-1.8555v-0.6875zM326.7067,201.16777v1.6406h-0.78516v-0.97656h-2.8281v1.0391h-0.76172v-1.7031zM319.5622,198.28887h2.3594v0.65625h-2.3594zM319.19501,199.43337h3.0469v0.70313h-3.0469zM319.5622,200.63257h2.3594v0.64844h-2.3594zM319.5622,201.77707h2.3594v0.63282h-2.3594zM324.6247,202.26535h0.7539v2.3164c0,0.07292 0.01823,0.11719 0.0547,0.13281c0.05987,0.02607 0.12757,0.0391 0.20312,0.0391c0.17188,0 0.28386,-0.02473 0.33594,-0.0742c0.07031,-0.06247 0.11979,-0.41143 0.14844,-1.0469l0.70703,0.2461c-0.02347,0.69793 -0.09769,1.14063 -0.22266,1.3281c-0.07812,0.11719 -0.20312,0.19661 -0.375,0.23828c-0.14843,0.03387 -0.34635,0.0508 -0.59375,0.0508c-0.42969,0 -0.70703,-0.04427 -0.83203,-0.13281c-0.11979,-0.08594 -0.17968,-0.24479 -0.17968,-0.47656z"/><path d="M328.2,198.56h3.0547l0.54687,0.46485c-0.25781,0.90367 -0.47135,1.58337 -0.64062,2.0391c0.64844,0.10937 1.24611,0.28646 1.793,0.53125c0.03127,-0.33594 0.0469,-0.66537 0.0469,-0.98828c0,-0.17187 -0.0052,-0.3737 -0.0156,-0.60547l0.85547,0.0898c-0.00267,0.7448 -0.03263,1.3711 -0.0899,1.8789c0.32292,0.16667 0.66145,0.36328 1.0156,0.58984l-0.33594,0.83203c-0.25,-0.18229 -0.52083,-0.36327 -0.8125,-0.54296c-0.20052,0.77347 -0.52083,1.37503 -0.96094,1.8047c-0.3125,0.30729 -0.73957,0.57813 -1.2812,0.8125l-0.48828,-0.65625c0.63802,-0.27343 1.10939,-0.6224 1.4141,-1.0469c0.23959,-0.33854 0.41667,-0.78124 0.53125,-1.3281c-0.63802,-0.32031 -1.28385,-0.53646 -1.9375,-0.64843c-0.42447,1.16147 -0.85024,2.04167 -1.2773,2.6406c-0.32552,0.45313 -0.69142,0.67969 -1.0977,0.67969c-0.39323,0 -0.69791,-0.1875 -0.91406,-0.5625c-0.16406,-0.28646 -0.24609,-0.62759 -0.24609,-1.0234c0,-0.48958 0.1263,-0.92708 0.3789,-1.3125c0.29948,-0.45833 0.76041,-0.79297 1.3828,-1.0039c0.35937,-0.11979 0.76171,-0.18489 1.207,-0.19531c0.23958,-0.625 0.42317,-1.1849 0.55078,-1.6797h-2.6797zM330.0477,201.7553c-0.33594,0.0182 -0.6237,0.082 -0.86328,0.1914c-0.375,0.16667 -0.65104,0.42188 -0.82813,0.76563c-0.125,0.24219 -0.1875,0.5 -0.1875,0.77343c0,0.21875 0.04297,0.40886 0.12891,0.57032c0.06507,0.1276 0.14319,0.1914 0.23437,0.1914c0.36459,0 0.86979,-0.83073 1.5156,-2.4922z"/><path d="M339.23,200.23h2.8203v0.80078h-2.8203v3.2656h3.5664v0.81641h-7.6016v-0.81641h3.0898v-6.2969h0.94531z"/><path d="M348.03,198.31h0.70312l0.16797,1.7031h1.5938v0.79297h-1.5273l0.0156,0.71094c0.00267,0.12761 0.004,0.21615 0.004,0.26563c0,1.07553 -0.15885,1.8737 -0.47656,2.3945c-0.25,0.41406 -0.61327,0.74999 -1.0898,1.0078c-0.13021,0.07031 -0.28906,0.14714 -0.47656,0.23047l-0.53125,-0.67188c0.64583,-0.29167 1.09243,-0.64713 1.3398,-1.0664c0.24219,-0.40885 0.36328,-1.04819 0.36328,-1.918c0,-0.02347 -0.00133,-0.11722 -0.004,-0.28125l-0.0195,-0.67188h-2.5664v-0.79297h2.5352zM343.9636,205.1655c-0.1276,-0.9818 -0.1914,-2.05603 -0.1914,-3.2227c0,-1.237 0.07292,-2.44793 0.21875,-3.6328l0.84765,0.0781c-0.13541,1.237 -0.20312,2.4154 -0.20312,3.5352c0,1.138 0.0625,2.17837 0.1875,3.1211zM349.5027,199.6616c-0.11719,-0.41667 -0.30469,-0.85417 -0.5625,-1.3125l0.55468,-0.15234c0.2474,0.42448 0.44402,0.85678 0.58985,1.2969zM350.40504,199.3491c-0.14583,-0.49219 -0.34635,-0.93489 -0.60156,-1.3281l0.57812,-0.14453c0.25261,0.38802 0.45573,0.82292 0.60938,1.3047z"/><path d="M354.64,198.18h0.86329v0.98438h2.457v0.74219h-2.457v0.92968h2.3203v0.73438h-2.3203v1.207c0.92707,0.3125 1.84113,0.78257 2.7422,1.4102l-0.46093,0.74218c-0.68227,-0.51041 -1.44267,-0.96095 -2.2812,-1.3516c-0.0208,0.44531 -0.10674,0.79038 -0.25782,1.0352c-0.26302,0.42448 -0.78125,0.63672 -1.5547,0.63672c-0.59636,0 -1.07553,-0.11198 -1.4375,-0.33594c-0.40365,-0.25 -0.60547,-0.58853 -0.60547,-1.0156c0,-0.51041 0.27213,-0.88801 0.8164,-1.1328c0.36459,-0.16146 0.83855,-0.24219 1.4219,-0.24219c0.22917,0 0.48047,0.01823 0.7539,0.0547v-1.0078h-2.7695v-0.73438h2.7695v-0.92968h-2.9375v-0.74219h2.9375zM354.64,203.305c-0.30989,-0.06507 -0.60677,-0.0976 -0.89062,-0.0976c-0.34635,0 -0.6276,0.05078 -0.84375,0.15234c-0.25781,0.12239 -0.38672,0.29687 -0.38672,0.52344c0,0.1901 0.10026,0.34375 0.30078,0.46094c0.20313,0.11979 0.47396,0.17968 0.8125,0.17968c0.40104,0 0.67708,-0.10677 0.82813,-0.32031c0.11979,-0.16667 0.17968,-0.41536 0.17968,-0.74609z"/><path d="M362.93,198.16h0.87891v1.0781h2.3047v0.75391h-2.3047v1.6719c0.09115,0.32031 0.13672,0.60547 0.13672,0.85547c0,0.92707 -0.20443,1.60807 -0.61328,2.043c-0.44531,0.47656 -1.11588,0.80599 -2.0117,0.98828l-0.44531,-0.66406c0.69533,-0.13281 1.21097,-0.32031 1.5469,-0.5625c0.31511,-0.22917 0.52735,-0.54037 0.63672,-0.9336c-0.27865,0.30469 -0.61068,0.45704 -0.99609,0.45704c-0.43229,0 -0.78256,-0.1224 -1.0508,-0.36719c-0.3151,-0.28907 -0.47265,-0.70833 -0.47265,-1.2578c0,-0.28907 0.06901,-0.56771 0.20703,-0.83594c0.09115,-0.17187 0.20313,-0.3151 0.33594,-0.42969c0.30729,-0.26041 0.67579,-0.39062 1.1055,-0.39062c0.27343,0 0.52083,0.0651 0.74218,0.19531v-0.76953h-3.8555v-0.75391h3.8555zM362.9612,202.2147v-0.14453c0,-0.16667 -0.03906,-0.3138 -0.11718,-0.4414c-0.14583,-0.23959 -0.35677,-0.35938 -0.63282,-0.35938c-0.14062,0 -0.27213,0.03906 -0.39453,0.11719c-0.28646,0.17969 -0.42969,0.45573 -0.42969,0.82812c0,0.23438 0.05208,0.4323 0.15625,0.59375c0.14583,0.22396 0.36068,0.33594 0.64454,0.33594c0.25781,0 0.46223,-0.11589 0.61328,-0.34766c0.10677,-0.16406 0.16015,-0.35807 0.16015,-0.58203z"/><path d="M248.02,209.27l2.9844,2.9844l2.9844,-2.9844l0.34375,0.34375l-2.9844,2.9844l2.9844,2.9844l-0.34375,0.34375l-2.9844,-2.9844l-2.9844,2.9844l-0.34375,-0.34375l2.9844,-2.9844l-2.9844,-2.9844zM248.30125,211.9419c0.10938,0 0.21355,0.02733 0.3125,0.082c0.22917,0.125 0.34375,0.3151 0.34375,0.57031c0,0.11459 -0.02863,0.22266 -0.0859,0.32422c-0.125,0.22396 -0.31641,0.33594 -0.57422,0.33594c-0.14844,0 -0.28125,-0.04687 -0.39844,-0.14062c-0.16927,-0.13021 -0.25391,-0.30209 -0.25391,-0.51563c0,-0.19011 0.06901,-0.35026 0.20704,-0.48047c0.1276,-0.11719 0.27734,-0.17578 0.44921,-0.17578zM251.00825,209.2349c0.10677,0 0.20963,0.02733 0.30859,0.082c0.22917,0.125 0.34375,0.3151 0.34375,0.57031c0,0.11459 -0.02863,0.22266 -0.0859,0.32422c-0.125,0.22396 -0.31641,0.33594 -0.57422,0.33594c-0.14583,0 -0.27864,-0.04688 -0.39843,-0.14063c-0.16927,-0.13021 -0.25391,-0.30208 -0.25391,-0.51562c0,-0.19011 0.07031,-0.35026 0.21094,-0.48047c0.125,-0.11719 0.27474,-0.17578 0.44922,-0.17578zM253.71135,211.9419c0.10677,0 0.20964,0.02733 0.30859,0.082c0.22917,0.125 0.34375,0.3151 0.34375,0.57031c0,0.11459 -0.02863,0.22266 -0.0859,0.32422c-0.125,0.22396 -0.31641,0.33594 -0.57422,0.33594c-0.14844,0 -0.28125,-0.04687 -0.39844,-0.14062c-0.16927,-0.13021 -0.25391,-0.30209 -0.25391,-0.51563c0,-0.19011 0.07031,-0.35026 0.21094,-0.48047c0.125,-0.11719 0.27474,-0.17578 0.44922,-0.17578zM251.00825,214.645c0.10677,0 0.20963,0.02733 0.30859,0.082c0.22917,0.125 0.34375,0.3151 0.34375,0.57031c0,0.11458 -0.02863,0.22265 -0.0859,0.32422c-0.125,0.22396 -0.31641,0.33594 -0.57422,0.33594c-0.14583,0 -0.27864,-0.04688 -0.39843,-0.14063c-0.16927,-0.13021 -0.25391,-0.30208 -0.25391,-0.51562c0,-0.19011 0.07031,-0.35026 0.21094,-0.48047c0.125,-0.11719 0.27474,-0.17578 0.44922,-0.17578z"/><path d="M257.54,210.21h1.5664v0.44141h1.9688v-1.8477h0.83203v1.8477h0.9375v0.79296h-0.9375v4.0938c0,0.26303 -0.03906,0.45574 -0.11719,0.57813c-0.09635,0.14844 -0.29818,0.22266 -0.60547,0.22266c-0.42708,0 -0.84765,-0.02343 -1.2617,-0.0703l-0.18359,-0.84765c0.43489,0.05727 0.80729,0.0859 1.1172,0.0859c0.10417,0 0.16797,-0.01953 0.1914,-0.0586c0.01827,-0.03387 0.0274,-0.09897 0.0274,-0.19531v-3.8086h-2.0703v-0.45703h-0.47657c-0.08333,0.91407 -0.27604,1.76953 -0.57812,2.5664c0.15365,0.20052 0.26823,0.35026 0.34375,0.44922c0.25,0.32291 0.47005,0.61588 0.66015,0.8789l-0.61328,0.63282c-0.23177,-0.33594 -0.45703,-0.65235 -0.67578,-0.94922l-0.11328,-0.15235c-0.47396,0.83333 -1.04949,1.48047 -1.7266,1.9414l-0.56641,-0.63281c0.71353,-0.48959 1.29167,-1.17059 1.7344,-2.043c-0.15625,-0.20313 -0.27344,-0.35547 -0.35157,-0.45703c-0.39062,-0.51302 -0.74739,-0.94792 -1.0703,-1.3047l0.59375,-0.51953c0.33594,0.36458 0.73047,0.82811 1.1836,1.3906c0.18229,-0.58073 0.30598,-1.18099 0.37109,-1.8008h-2.4375v-0.77734h1.418v-1.4062h0.83984zM259.8603,214.378c-0.25781,-0.78647 -0.55728,-1.4844 -0.89843,-2.0938l0.69531,-0.39453c0.39323,0.65104 0.70312,1.34504 0.92969,2.082z"/><path d="M267.57,213.46c0.03647,0.04167 0.0612,0.0703 0.0742,0.0859c0.66406,-0.30209 1.30079,-0.68229 1.9102,-1.1406l0.6211,0.55469c-0.65625,0.41407 -1.33465,0.76953 -2.0352,1.0664c0.67707,0.56771 1.54817,0.97917 2.6133,1.2344l-0.49609,0.76563c-0.9948,-0.35417 -1.78647,-0.84507 -2.375,-1.4727c0.0104,0.11198 0.0156,0.21745 0.0156,0.31641c0,1.013 -0.33593,1.5195 -1.0078,1.5195c-0.26302,0 -0.57552,-0.02213 -0.9375,-0.0664l-0.16797,-0.71875c0.36198,0.06247 0.64583,0.0937 0.85156,0.0937c0.17448,0 0.29037,-0.07682 0.34766,-0.23047c0.06771,-0.17708 0.10156,-0.43489 0.10156,-0.77343c0,-0.06771 -0.0039,-0.14193 -0.0117,-0.22266c-0.9896,0.78127 -2.1068,1.3646 -3.3516,1.75l-0.47265,-0.64844c0.98173,-0.24479 1.901,-0.61849 2.7578,-1.1211c0.35156,-0.20573 0.65885,-0.41406 0.92187,-0.625c-0.02607,-0.06771 -0.05992,-0.14453 -0.10156,-0.23047c-0.94013,0.60677 -1.9805,1.06511 -3.1211,1.375l-0.39844,-0.63672c1.28907,-0.27604 2.3646,-0.68231 3.2266,-1.2188c-0.03647,-0.04947 -0.08204,-0.10415 -0.13672,-0.16406c-0.8594,0.32813 -1.68753,0.57552 -2.4844,0.74219l-0.44531,-0.625c1.03127,-0.15625 2.00783,-0.40365 2.9297,-0.74219h-2.4414v-1.4922c-0.07031,0.03387 -0.17709,0.08465 -0.32032,0.15235l-0.45703,-0.58594c0.91147,-0.35417 1.69793,-0.89453 2.3594,-1.6211l0.52734,0.35938h2.2695l0.33594,0.32812c-0.28385,0.33855 -0.58984,0.64193 -0.91797,0.91016h2.4883v1.9492h-2.4219c-0.26302,0.12761 -0.51823,0.2461 -0.76563,0.35547c0.20833,0.23177 0.38021,0.49088 0.51563,0.77734zM266.80437,210.378c0.32552,-0.26823 0.54818,-0.47786 0.66797,-0.62891h-1.9062c-0.27604,0.22657 -0.55729,0.4362 -0.84375,0.62891zM264.81997,210.97956v0.7461h1.8476v-0.7461zM269.38637,211.72566v-0.7461h-1.9062v0.7461z"/><path d="M275.83,211.01c0.18229,0.09375 0.39193,0.20573 0.62891,0.33594l-0.49609,0.40234h2.3516l0.44141,0.44141c-0.58594,0.8828 -1.17057,1.60807 -1.7539,2.1758l-0.79297,-0.46484c0.51302,-0.46875 0.92449,-0.93489 1.2344,-1.3984h-1.9453v3.0625c0,0.35417 -0.08724,0.58073 -0.26172,0.67969c-0.11719,0.06771 -0.33594,0.10156 -0.65625,0.10156c-0.41927,0 -0.8815,-0.02603 -1.3867,-0.0781l-0.19141,-0.87112c0.48698,0.07813 0.91928,0.11719 1.2969,0.11719c0.14323,0 0.23178,-0.02343 0.26563,-0.0703c0.02607,-0.03907 0.0391,-0.11068 0.0391,-0.21484v-2.7266h-3.2734v-0.75391h4.2344c-0.8802,-0.50521 -1.7604,-0.93227 -2.6406,-1.2812l0.63282,-0.5039c0.59115,0.23697 1.11328,0.46744 1.5664,0.6914c0.40105,-0.27343 0.75261,-0.54166 1.0547,-0.80469h-4.1758v-0.74218h5.3125l0.48047,0.46875c-0.68227,0.54948 -1.3372,1.02735 -1.9648,1.4336z"/><path d="M280.77,209.62v-0.81641h0.81641v0.81641h1.2148v0.6875h-1.2148v0.67187h1.3828v0.69531h-0.46484c-0.08333,0.3099 -0.19531,0.63803 -0.33594,0.98438h0.7539v0.67969h-1.3359v0.72265h1.2852v0.69531h-1.2852v1.6484h-0.81641v-1.6484h-1.3789v-0.69531h1.3789v-0.72265h-1.4414v-0.67969h0.71875c-0.08333,-0.34635 -0.18489,-0.67448 -0.30468,-0.98438h-0.57422v-0.69531h1.6016v-0.67187h-1.2734v-0.6875zM281.74266,211.6747h-1.2422c0.08854,0.2474 0.18359,0.57553 0.28516,0.98438h0.64843c0.13542,-0.33333 0.23829,-0.66146 0.3086,-0.98438zM286.48096,209.0849v1.8281c0,0.22657 -0.04167,0.38672 -0.125,0.48047c-0.09896,0.11198 -0.30599,0.16797 -0.6211,0.16797c-0.30729,0 -0.61458,-0.01303 -0.92187,-0.0391l-0.13281,-0.70313c0.43229,0.04687 0.70703,0.0703 0.82422,0.0703c0.12239,0 0.18359,-0.05339 0.18359,-0.16016v-0.94141h-1.7109v2.2695h2.2148l0.46484,0.39843c-0.14063,0.82813 -0.39714,1.56773 -0.76953,2.2188l-0.043,0.0781c0.28646,0.33073 0.64453,0.63281 1.0742,0.90625l-0.4375,0.73047c-0.41146,-0.26563 -0.77866,-0.58334 -1.1016,-0.95313c-0.27865,0.35417 -0.59245,0.6875 -0.94141,1l-0.46094,-0.64062v0.60937h-0.79297v-7.3203zM283.97706,212.7607v2.9531c0.32031,-0.21875 0.62891,-0.52605 0.92578,-0.92188c-0.39843,-0.61458 -0.67838,-1.29165 -0.83984,-2.0312zM285.33646,214.1005c0.23177,-0.44791 0.38281,-0.89451 0.45312,-1.3398h-1.0078c0.12761,0.5 0.3125,0.9466 0.55469,1.3398z"/><path d="M288.58,210.02v5.0273h6v0.8086h-6v0.54687h-0.89453v-7.1602h6.6875v0.77734zM290.9355,212.5903c-0.54167,-0.44271 -1.16407,-0.89454 -1.8672,-1.3555l0.54688,-0.60937c0.65365,0.41406 1.27735,0.85156 1.8711,1.3125c0.37239,-0.49479 0.71876,-1.06509 1.0391,-1.7109l0.8086,0.39063c-0.37761,0.7344 -0.76564,1.3581 -1.1641,1.8711c0.48438,0.39844 1.03255,0.88671 1.6445,1.4648l-0.63282,0.66407c-0.57812,-0.57031 -1.10285,-1.05858 -1.5742,-1.4648c-0.17447,0.17969 -0.30989,0.3151 -0.40625,0.40625c-0.51562,0.47657 -1.12239,0.90103 -1.8203,1.2734l-0.53515,-0.6875c0.30729,-0.16146 0.55859,-0.30599 0.7539,-0.43359c0.44011,-0.28907 0.88541,-0.66277 1.3359,-1.1211z"/><path d="M295.37,210.53h1.7266c0.07813,-0.40104 0.16537,-0.89974 0.26172,-1.4961l0.0195,-0.11328l0.85547,0.1289c-0.08854,0.55209 -0.17969,1.04559 -0.27344,1.4805h0.47266c0.625,0 1.07293,0.14063 1.3438,0.42188c0.24219,0.2526 0.36328,0.64583 0.36328,1.1797c0,0.89847 -0.09505,1.7383 -0.28516,2.5195c-0.10937,0.44271 -0.24219,0.76953 -0.39844,0.98046c-0.19791,0.26303 -0.47265,0.39454 -0.82421,0.39454c-0.42188,0 -0.88281,-0.13542 -1.3828,-0.40625l0.0977,-0.82422c0.49479,0.23698 0.87889,0.35547 1.1523,0.35547c0.14323,0 0.25391,-0.07682 0.33203,-0.23047c0.08333,-0.16667 0.16276,-0.40755 0.23829,-0.72266c0.14843,-0.63802 0.22265,-1.30859 0.22265,-2.0117c0,-0.36979 -0.07422,-0.60938 -0.22265,-0.71875c-0.12761,-0.09115 -0.35547,-0.13672 -0.6836,-0.13672h-0.60156c-0.41406,1.84373 -1.00779,3.41667 -1.7812,4.7188l-0.78516,-0.42968c0.79947,-1.34113 1.36977,-2.77083 1.7109,-4.2891h-1.5586zM301.8583,214.3855c-0.29427,-1.08333 -0.75911,-2.14713 -1.3945,-3.1914l0.76172,-0.34375c0.65625,1.04687 1.14711,2.10027 1.4726,3.1602zM301.28017,210.6433c-0.16145,-0.42187 -0.42187,-0.89061 -0.78125,-1.4062l0.60547,-0.22656c0.31511,0.44531 0.57943,0.90755 0.79297,1.3867zM302.33097,210.30737c-0.20312,-0.50261 -0.46223,-0.97527 -0.77734,-1.418l0.57422,-0.19141c0.29948,0.35677 0.5612,0.80207 0.78516,1.3359z"/><path d="M305.33,215.84v-5.5195c-0.55208,0.18489 -1.07291,0.32161 -1.5625,0.41016l-0.1914,-0.79297c0.82553,-0.20052 1.5026,-0.43229 2.0312,-0.69531h0.75v6.5976z"/><path d="M311.09,209.2c0.82033,0 1.45573,0.35547 1.9062,1.0664c0.3776,0.59375 0.5664,1.37632 0.5664,2.3477c0,0.888 -0.16016,1.61977 -0.48047,2.1953c-0.44531,0.80467 -1.11327,1.207 -2.0039,1.207c-0.79947,0 -1.42317,-0.33333 -1.8711,-1c-0.40364,-0.59895 -0.60546,-1.39972 -0.60546,-2.4023c0,-1.04167 0.21614,-1.8659 0.64843,-2.4727c0.44792,-0.6276 1.06119,-0.9414 1.8398,-0.9414zM311.0783,210.03984c-0.42187,0 -0.75521,0.23177 -1,0.69531c-0.23698,0.45313 -0.35547,1.07943 -0.35547,1.8789c0,0.7474 0.10807,1.34377 0.32422,1.7891c0.24739,0.50521 0.59376,0.75781 1.0391,0.75781c0.39063,0 0.70703,-0.20312 0.94922,-0.60937c0.27083,-0.45573 0.40625,-1.10156 0.40625,-1.9375c0,-0.79427 -0.11719,-1.41797 -0.35156,-1.8711c-0.24479,-0.46875 -0.58203,-0.70313 -1.0117,-0.70313z"/><path d="M315,209.9h2.1055c0.23177,-0.36979 0.40756,-0.66797 0.52735,-0.89454l0.87109,0.125c-0.07813,0.14063 -0.21615,0.36979 -0.41406,0.6875l-0.0508,0.082h2.7539v0.76953h-3.2734c-0.34114,0.46875 -0.66666,0.87501 -0.97656,1.2188c0.49219,-0.29427 0.94142,-0.44141 1.3477,-0.44141c0.63021,0 1.04297,0.31641 1.2383,0.94922c0.66667,-0.22135 1.34637,-0.4401 2.0391,-0.65625l0.33594,0.75781l-0.13672,0.0391l-0.38672,0.10157c-0.7292,0.19791 -1.31253,0.36718 -1.75,0.50781c0.03127,0.33854 0.0534,0.77604 0.0664,1.3125l-0.85547,0.0469c-0.00267,-0.30989 -0.00787,-0.64583 -0.0156,-1.0078v-0.0781c-1.19793,0.40885 -1.7969,0.82032 -1.7969,1.2344c0,0.21354 0.15365,0.35937 0.46094,0.4375c0.29687,0.07552 0.82814,0.11328 1.5938,0.11328c0.70573,0 1.4466,-0.04036 2.2226,-0.12109l0.0937,0.83203c-0.7526,0.05727 -1.53253,0.0859 -2.3398,0.0859c-0.9948,0 -1.70183,-0.07552 -2.1211,-0.22656c-0.51823,-0.1875 -0.77735,-0.52473 -0.77735,-1.0117c0,-0.41146 0.18359,-0.77473 0.55078,-1.0898c0.38021,-0.32552 1.04948,-0.66145 2.0078,-1.0078c-0.05207,-0.20052 -0.12108,-0.34114 -0.20704,-0.42187c-0.09635,-0.09115 -0.22396,-0.13672 -0.38281,-0.13672c-0.25781,0 -0.58203,0.09766 -0.97265,0.29297c-0.48177,0.23958 -0.99871,0.60025 -1.5508,1.082l-0.51953,-0.59375c0.80987,-0.7526 1.444,-1.4922 1.9024,-2.2188h-1.5898z"/><path d="M324.65,215.04c0.67447,0.29427 1.5755,0.44141 2.7031,0.44141h2.7109c-0.11459,0.20052 -0.20443,0.45182 -0.26953,0.7539h-2.418c-1.34893,0 -2.36977,-0.17969 -3.0625,-0.53906c-0.38021,-0.19791 -0.72264,-0.5013 -1.0273,-0.91016c-0.11459,0.61719 -0.26693,1.15106 -0.45704,1.6016l-0.60546,-0.64063c0.29167,-0.7682 0.46484,-1.82027 0.51953,-3.1562l0.71093,0.11328c-0.0156,0.41407 -0.03903,0.79167 -0.0703,1.1328c0.15885,0.25781 0.32682,0.47265 0.50391,0.64453v-2.3945h-1.6016v-0.72657h1.5117v-0.88672h-1.2656v-0.71093h1.2656v-0.96094h0.77735v0.96094h1.0273v0.71093h-1.0273v0.88672h1.3203v0.72657h-1.2461v0.9375h1.0156v0.72656h-1.0156zM327.8258,209.8877c-0.15885,1.02607 -0.61329,1.77867 -1.3633,2.2578l-0.52735,-0.57422c0.32552,-0.19791 0.57552,-0.43359 0.75,-0.70703c0.16146,-0.25521 0.27865,-0.58073 0.35157,-0.97656h-1.0586v-0.69532h3.6602c-0.013,1.15887 -0.06899,1.9232 -0.16797,2.293c-0.05207,0.19271 -0.14061,0.32553 -0.26563,0.39844c-0.11458,0.06771 -0.30598,0.10156 -0.57421,0.10156c-0.30209,0 -0.57032,-0.01303 -0.80469,-0.0391l-0.10547,-0.71094c0.30989,0.04687 0.54817,0.0703 0.71484,0.0703c0.10417,0 0.17318,-0.02343 0.20703,-0.0703c0.09375,-0.13021 0.15495,-0.54167 0.1836,-1.2344l0.004,-0.11328zM329.5055,212.2979v2.6875h-3.3398v-2.6875zM326.9586,212.95415v1.3516h1.7461v-1.3516z"/><path d="M331.19,210.92h4.4102l0.35156,0.57813l-0.16016,0.11719c-1.0156,0.7656 -1.73567,1.3294 -2.1602,1.6914c0.29687,-0.14323 0.54687,-0.21484 0.75,-0.21484c0.26302,0 0.45052,0.09115 0.5625,0.27344c0.06507,0.10156 0.0976,0.22395 0.0976,0.36718c0,0.04427 -0.0039,0.10807 -0.0117,0.19141c-0.04167,0.40104 -0.0625,0.69791 -0.0625,0.89062c0,0.19271 0.07422,0.3073 0.22266,0.34375c0.11719,0.02867 0.33463,0.043 0.65234,0.043c0.41407,0 0.8633,-0.02863 1.3477,-0.0859l0.0703,0.83203c-0.48958,0.04167 -0.99608,0.0625 -1.5195,0.0625c-0.5625,0 -0.9414,-0.03776 -1.1367,-0.11328c-0.32813,-0.125 -0.49219,-0.40104 -0.49219,-0.82813c0,-0.41146 0.01823,-0.75129 0.0547,-1.0195c0.00267,-0.0208 0.004,-0.04293 0.004,-0.0664c0,-0.18229 -0.09245,-0.27343 -0.27735,-0.27343c-0.5,0 -1.4922,0.79557 -2.9766,2.3867l-0.61328,-0.67187c1.5026,-1.43487 2.91537,-2.67447 4.2383,-3.7188h-3.3516zM335.3189,210.48641c-1.0052,-0.30729 -2.1354,-0.57422 -3.3906,-0.80078l0.25391,-0.72656c1.2422,0.1901 2.37893,0.44661 3.4102,0.76953z"/><path d="M338.96,209.23h4.3828l0.41797,0.64844c-1.35413,0.82813 -2.5273,1.58073 -3.5195,2.2578c0.64063,-0.26823 1.28386,-0.40234 1.9297,-0.40234c0.58073,0 1.06509,0.09245 1.4531,0.27734c0.35938,0.17188 0.63933,0.40626 0.83985,0.70313c0.20833,0.3151 0.3125,0.67707 0.3125,1.0859c0,0.57291 -0.19531,1.05208 -0.58594,1.4375c-0.26823,0.26823 -0.61196,0.47135 -1.0312,0.60937c-0.54948,0.17969 -1.15105,0.26953 -1.8047,0.26953c-0.7526,0 -1.3073,-0.13932 -1.6641,-0.41797c-0.27865,-0.21875 -0.41797,-0.51432 -0.41797,-0.88672c0,-0.28125 0.10156,-0.53125 0.30469,-0.75c0.30729,-0.33073 0.72266,-0.49609 1.2461,-0.49609c0.55469,0 0.99869,0.1862 1.332,0.55859c0.24219,0.27083 0.41667,0.6341 0.52344,1.0898c0.80207,-0.25521 1.2031,-0.72657 1.2031,-1.4141c0,-0.52083 -0.21745,-0.90497 -0.65235,-1.1524c-0.29167,-0.16667 -0.66147,-0.25 -1.1094,-0.25c-0.66927,0 -1.27343,0.09245 -1.8125,0.27735c-0.39844,0.13541 -0.93361,0.46223 -1.6055,0.98046l-0.55078,-0.66406c0.72393,-0.625 1.54813,-1.2591 2.4726,-1.9023c0.63802,-0.44271 1.20052,-0.80597 1.6875,-1.0898h-3.3516zM341.9209,215.3667c-0.1849,-0.737 -0.54817,-1.1055 -1.0898,-1.1055c-0.29947,0 -0.51562,0.09505 -0.64843,0.28516c-0.06247,0.08594 -0.0937,0.17839 -0.0937,0.27734c0,0.20573 0.14583,0.36068 0.4375,0.46485c0.21093,0.07291 0.49348,0.10937 0.84765,0.10937c0.15105,0 0.33334,-0.0104 0.54688,-0.0312z"/><path d="M352.38,215.83c-0.7708,0.08073 -1.56767,0.12109 -2.3906,0.12109c-1.21353,0 -2.0638,-0.07682 -2.5508,-0.23047c-0.35417,-0.11197 -0.63411,-0.27864 -0.83984,-0.5c-0.23698,-0.25781 -0.35547,-0.57161 -0.35547,-0.9414c0,-0.48698 0.16667,-0.92448 0.5,-1.3125c0.28385,-0.33073 0.74089,-0.65886 1.3711,-0.98438c-0.35937,-0.80727 -0.68489,-1.72653 -0.97656,-2.7578l0.8711,-0.22656c0.27083,0.9896 0.55729,1.8646 0.85937,2.625c1.0026,-0.46094 2.0664,-0.84507 3.1914,-1.1524l0.26172,0.79297c-1.2344,0.3125 -2.46097,0.7565 -3.6797,1.332c-0.37761,0.17969 -0.64584,0.32683 -0.80469,0.44141c-0.46615,0.34115 -0.69922,0.72005 -0.69922,1.1367c0,0.36198 0.21615,0.61458 0.64844,0.75781c0.35937,0.11719 1.00261,0.17578 1.9297,0.17578c0.8568,0 1.71487,-0.04948 2.5742,-0.14843z"/><path d="M357.25,211.96v3.0938c0,0.20052 0.08594,0.32161 0.25781,0.36328c0.17709,0.04427 0.58202,0.0664 1.2148,0.0664c0.61719,0 1.02472,-0.03123 1.2226,-0.0937c0.11198,-0.03647 0.1849,-0.13803 0.21875,-0.30469c0.04427,-0.23437 0.0677,-0.51172 0.0703,-0.83203l0.81641,0.23047c-0.04167,0.7682 -0.14714,1.2591 -0.31641,1.4727c-0.11197,0.14062 -0.28124,0.22395 -0.50781,0.25c-0.35677,0.03907 -0.96223,0.0586 -1.8164,0.0586c-0.66146,0 -1.09506,-0.01823 -1.3008,-0.0547c-0.30989,-0.05207 -0.50651,-0.18878 -0.58984,-0.41015c-0.04167,-0.11719 -0.0625,-0.27344 -0.0625,-0.46875v-3.0977l-0.74609,0.25781l-0.1836,-0.75781l0.92969,-0.32031v-2.1055h0.79298v1.832l0.83984,-0.28516v-2.0586h0.78516v1.7852l1.3086,-0.44922l0.41016,0.25v2.9258c0,0.20313 -0.04818,0.35417 -0.14453,0.45312c-0.10937,0.10938 -0.29297,0.16407 -0.55078,0.16407c-0.21094,0 -0.4349,-0.01823 -0.67188,-0.0547l-0.1289,-0.7461c0.15364,0.03907 0.30989,0.0586 0.46875,0.0586c0.11458,0 0.18489,-0.02343 0.21093,-0.0703c0.02607,-0.03907 0.0391,-0.10417 0.0391,-0.19532v-1.8476l-0.94141,0.32812v3.1602h-0.78516v-2.8906zM354.3789,210.6827v-1.8867h0.83984v1.8867h0.75781v0.79297h-0.75781v2.4844c0.27344,-0.09375 0.54427,-0.1914 0.8125,-0.29297l0.0742,0.75391c-0.84373,0.38541 -1.70963,0.70833 -2.5977,0.96875l-0.27344,-0.83203c0.40105,-0.10417 0.75261,-0.20313 1.0547,-0.29688c0.03647,-0.013 0.06643,-0.0221 0.0899,-0.0273v-2.7578h-0.99219v-0.79297z"/><path d="M364.95,210.9c-0.01827,0.43489 -0.0443,0.81769 -0.0781,1.1484h3.1484c-0.03907,1.80727 -0.14063,2.98043 -0.30469,3.5195c-0.08333,0.27083 -0.23828,0.45833 -0.46484,0.5625c-0.17709,0.08073 -0.4362,0.12109 -0.77734,0.12109c-0.35938,0 -0.76695,-0.02733 -1.2227,-0.082l-0.15234,-0.87891c0.61197,0.08594 1.04297,0.12891 1.293,0.12891c0.21094,0 0.34506,-0.0599 0.40235,-0.17969c0.13802,-0.29167 0.23437,-1.09637 0.28906,-2.4141h-2.3242c-0.08593,0.46875 -0.20703,0.87501 -0.36328,1.2188c-0.43489,0.95053 -1.16146,1.70443 -2.1797,2.2617l-0.61718,-0.6875c1.0208,-0.53125 1.69527,-1.22785 2.0234,-2.0898c0.21875,-0.57552 0.36068,-1.45182 0.42578,-2.6289h-2.5859v-0.80078h3.1914v-1.3047h0.90235v1.3047h3.2969v0.80078z"/><path d="M373.98,211.01c0.18229,0.09375 0.39193,0.20573 0.62891,0.33594l-0.49609,0.40234h2.3516l0.44141,0.44141c-0.58594,0.8828 -1.17057,1.60807 -1.7539,2.1758l-0.79297,-0.46484c0.51302,-0.46875 0.92449,-0.93489 1.2344,-1.3984h-1.9453v3.0625c0,0.35417 -0.08724,0.58073 -0.26172,0.67969c-0.11719,0.06771 -0.33594,0.10156 -0.65625,0.10156c-0.41927,0 -0.8815,-0.02603 -1.3867,-0.0781l-0.19141,-0.87109c0.48698,0.07813 0.91928,0.11719 1.2969,0.11719c0.14323,0 0.23178,-0.02343 0.26563,-0.0703c0.02607,-0.03907 0.0391,-0.11068 0.0391,-0.21484v-2.7266h-3.2734v-0.75391h4.2344c-0.8802,-0.50521 -1.7604,-0.93227 -2.6406,-1.2812l0.63282,-0.5039c0.59115,0.23697 1.11328,0.46744 1.5664,0.6914c0.40105,-0.27343 0.75261,-0.54166 1.0547,-0.80469h-4.1758v-0.74218h5.3125l0.48047,0.46875c-0.68227,0.54948 -1.3372,1.02735 -1.9648,1.4336z"/><path d="M378.93,209.62v-0.81641h0.81641v0.81641h1.2148v0.6875h-1.2148v0.67187h1.3828v0.69531h-0.46484c-0.08333,0.3099 -0.19531,0.63803 -0.33594,0.98438h0.7539v0.67969h-1.3359v0.72265h1.2852v0.69531h-1.2852v1.6484h-0.81641v-1.6484h-1.3789v-0.69531h1.3789v-0.72265h-1.4414v-0.67969h0.71875c-0.08333,-0.34635 -0.18489,-0.67448 -0.30468,-0.98438h-0.57422v-0.69531h1.6016v-0.67187h-1.2734v-0.6875zM379.90266,211.6747h-1.2422c0.08854,0.2474 0.18359,0.57553 0.28516,0.98438h0.64843c0.13542,-0.33333 0.23829,-0.66146 0.3086,-0.98438zM384.64096,209.0849v1.8281c0,0.22657 -0.04167,0.38672 -0.125,0.48047c-0.09896,0.11198 -0.30599,0.16797 -0.6211,0.16797c-0.30729,0 -0.61458,-0.01303 -0.92187,-0.0391l-0.13281,-0.70313c0.43229,0.04687 0.70703,0.0703 0.82422,0.0703c0.12239,0 0.18359,-0.05339 0.18359,-0.16016v-0.94141h-1.7109v2.2695h2.2148l0.46484,0.39843c-0.14063,0.82813 -0.39714,1.56773 -0.76953,2.2188l-0.043,0.0781c0.28646,0.33073 0.64453,0.63281 1.0742,0.90625l-0.4375,0.73047c-0.41146,-0.26563 -0.77866,-0.58334 -1.1016,-0.95313c-0.27865,0.35417 -0.59245,0.6875 -0.94141,1l-0.46094,-0.64062v0.60937h-0.79297v-7.3203zM382.13706,212.7607v2.9531c0.32031,-0.21875 0.62891,-0.52605 0.92578,-0.92188c-0.39843,-0.61458 -0.67838,-1.29165 -0.83984,-2.0312zM383.49646,214.1005c0.23177,-0.44791 0.38281,-0.89451 0.45312,-1.3398h-1.0078c0.12761,0.5 0.3125,0.9466 0.55469,1.3398z"/><path d="M386.74,210.02v5.0273h6v0.8086h-6v0.54687h-0.89453v-7.1602h6.6875v0.77734zM389.0955,212.5903c-0.54167,-0.44271 -1.16407,-0.89454 -1.8672,-1.3555l0.54688,-0.60937c0.65365,0.41406 1.27735,0.85156 1.8711,1.3125c0.37239,-0.49479 0.71876,-1.06509 1.0391,-1.7109l0.8086,0.39063c-0.37761,0.7344 -0.76564,1.3581 -1.1641,1.8711c0.48438,0.39844 1.03255,0.88671 1.6445,1.4648l-0.63282,0.66407c-0.57812,-0.57031 -1.10285,-1.05858 -1.5742,-1.4648c-0.17447,0.17969 -0.30989,0.3151 -0.40625,0.40625c-0.51562,0.47657 -1.12239,0.90103 -1.8203,1.2734l-0.53515,-0.6875c0.30729,-0.16146 0.55859,-0.30599 0.7539,-0.43359c0.44011,-0.28907 0.88541,-0.66277 1.3359,-1.1211z"/><path d="M393.61,209.75c2.39587,-0.03647 4.6602,-0.09767 6.793,-0.1836l0.0469,0.77735c-0.94013,0.04687 -1.6719,0.1901 -2.1953,0.42969c-0.5,0.22917 -0.90103,0.54687 -1.2031,0.95312c-0.34375,0.46094 -0.51563,0.97397 -0.51563,1.5391c0,0.5625 0.19531,0.98437 0.58594,1.2656c0.44791,0.32031 1.13541,0.54036 2.0625,0.66015l-0.18359,0.87891c-1.20833,-0.16146 -2.0586,-0.47396 -2.5508,-0.9375c-0.52864,-0.49479 -0.79296,-1.10939 -0.79296,-1.8438c0,-0.66667 0.23958,-1.28907 0.71875,-1.8672c0.34895,-0.42448 0.82682,-0.76561 1.4336,-1.0234c-1.07553,0.03647 -2.46227,0.09766 -4.1602,0.18359zM399.2897,213.1211c-0.15365,-0.40885 -0.41276,-0.87239 -0.77735,-1.3906l0.60938,-0.22657c0.32552,0.44792 0.58724,0.90625 0.78516,1.375zM400.3444,212.71095c-0.1849,-0.47917 -0.44271,-0.9453 -0.77344,-1.3984l0.58203,-0.20703c0.30469,0.36979 0.5638,0.81772 0.77734,1.3438z"/><path d="M250.07,224.51v2.0508c0.52083,-0.1849 0.875,-0.48047 1.0625,-0.88672c0.14583,-0.3125 0.22396,-0.91017 0.23437,-1.793h0.78516c-0.0078,1.02867 -0.11457,1.7448 -0.32031,2.1484c-0.27865,0.54167 -0.75391,0.95053 -1.4258,1.2266l-0.33594,-0.46094v0.004h-1.8672v0.40234h-0.76953v-2.6914zM248.2028,225.18187v0.95313h1.0977v-0.95313zM252.0426,220.31857v-0.71094h0.79297v0.71094h1.9024v0.6875h-1.9024v0.55469h1.6797v0.67187h-4.0547v-0.67187h1.582v-0.55469h-1.8555v-0.6875zM254.7067,222.76777v1.6406h-0.78516v-0.97656h-2.8281v1.0391h-0.76172v-1.7031zM247.5622,219.88887h2.3594v0.65625h-2.3594zM247.19501,221.03337h3.0469v0.70313h-3.0469zM247.5622,222.23257h2.3594v0.64844h-2.3594zM247.5622,223.37707h2.3594v0.63282h-2.3594zM252.6247,223.86535h0.7539v2.3164c0,0.07292 0.01823,0.11719 0.0547,0.13281c0.05987,0.02607 0.12757,0.0391 0.20312,0.0391c0.17188,0 0.28386,-0.02473 0.33594,-0.0742c0.07031,-0.06247 0.11979,-0.41143 0.14844,-1.0469l0.70703,0.2461c-0.02347,0.69793 -0.09769,1.14063 -0.22266,1.3281c-0.07812,0.11719 -0.20312,0.19661 -0.375,0.23828c-0.14843,0.03387 -0.34635,0.0508 -0.59375,0.0508c-0.42969,0 -0.70703,-0.04427 -0.83203,-0.13281c-0.11979,-0.08594 -0.17968,-0.24479 -0.17968,-0.47656z"/><path d="M256.2,220.16h3.0547l0.54687,0.46485c-0.25781,0.90367 -0.47135,1.58337 -0.64062,2.0391c0.64844,0.10937 1.24611,0.28646 1.793,0.53125c0.03127,-0.33594 0.0469,-0.66537 0.0469,-0.98828c0,-0.17187 -0.0052,-0.3737 -0.0156,-0.60547l0.85547,0.0898c-0.00267,0.7448 -0.03263,1.3711 -0.0899,1.8789c0.32292,0.16667 0.66145,0.36328 1.0156,0.58984l-0.33594,0.83203c-0.25,-0.18229 -0.52083,-0.36327 -0.8125,-0.54296c-0.20052,0.77347 -0.52083,1.37503 -0.96094,1.8047c-0.3125,0.30729 -0.73957,0.57813 -1.2812,0.8125l-0.48828,-0.65625c0.63802,-0.27343 1.10939,-0.6224 1.4141,-1.0469c0.23959,-0.33854 0.41667,-0.78124 0.53125,-1.3281c-0.63802,-0.32031 -1.28385,-0.53646 -1.9375,-0.64843c-0.42447,1.16147 -0.85024,2.04167 -1.2773,2.6406c-0.32552,0.45313 -0.69142,0.67969 -1.0977,0.67969c-0.39323,0 -0.69791,-0.1875 -0.91406,-0.5625c-0.16406,-0.28646 -0.24609,-0.62759 -0.24609,-1.0234c0,-0.48958 0.1263,-0.92708 0.3789,-1.3125c0.29948,-0.45833 0.76041,-0.79297 1.3828,-1.0039c0.35937,-0.11979 0.76171,-0.18489 1.207,-0.19531c0.23958,-0.625 0.42317,-1.1849 0.55078,-1.6797h-2.6797zM258.0477,223.3553c-0.33594,0.0182 -0.6237,0.082 -0.86328,0.1914c-0.375,0.16667 -0.65104,0.42188 -0.82813,0.76563c-0.125,0.24219 -0.1875,0.5 -0.1875,0.77343c0,0.21875 0.04297,0.40886 0.12891,0.57032c0.06507,0.1276 0.14319,0.1914 0.23437,0.1914c0.36459,0 0.86979,-0.83073 1.5156,-2.4922z"/><path d="M267.23,221.83h2.8203v0.80078h-2.8203v3.2656h3.5664v0.81641h-7.6016v-0.81641h3.0898v-6.2969h0.94531z"/><path d="M276.03,219.91h0.70312l0.16797,1.7031h1.5938v0.79297h-1.5273l0.0156,0.71094c0.00267,0.12761 0.004,0.21615 0.004,0.26563c0,1.07553 -0.15885,1.8737 -0.47656,2.3945c-0.25,0.41406 -0.61327,0.74999 -1.0898,1.0078c-0.13021,0.07031 -0.28906,0.14714 -0.47656,0.23047l-0.53125,-0.67188c0.64583,-0.29167 1.09243,-0.64713 1.3398,-1.0664c0.24219,-0.40885 0.36328,-1.04819 0.36328,-1.918c0,-0.02347 -0.00133,-0.11722 -0.004,-0.28125l-0.0195,-0.67188h-2.5664v-0.79297h2.5352zM271.9636,226.7655c-0.1276,-0.9818 -0.1914,-2.05603 -0.1914,-3.2227c0,-1.237 0.07292,-2.44793 0.21875,-3.6328l0.84765,0.0781c-0.13541,1.237 -0.20312,2.4154 -0.20312,3.5352c0,1.138 0.0625,2.17837 0.1875,3.1211zM277.5027,221.2616c-0.11719,-0.41667 -0.30469,-0.85417 -0.5625,-1.3125l0.55468,-0.15234c0.2474,0.42448 0.44402,0.85678 0.58985,1.2969zM278.40504,220.9491c-0.14583,-0.49219 -0.34635,-0.93489 -0.60156,-1.3281l0.57812,-0.14453c0.25261,0.38802 0.45573,0.82292 0.60938,1.3047z"/><path d="M282.64,219.78h0.86329v0.98438h2.457v0.74219h-2.457v0.92968h2.3203v0.73438h-2.3203v1.207c0.92707,0.3125 1.84113,0.78257 2.7422,1.4102l-0.46093,0.74218c-0.68227,-0.51041 -1.44267,-0.96095 -2.2812,-1.3516c-0.0208,0.44531 -0.10674,0.79038 -0.25782,1.0352c-0.26302,0.42448 -0.78125,0.63672 -1.5547,0.63672c-0.59636,0 -1.07553,-0.11198 -1.4375,-0.33594c-0.40365,-0.25 -0.60547,-0.58853 -0.60547,-1.0156c0,-0.51041 0.27213,-0.88801 0.8164,-1.1328c0.36459,-0.16146 0.83855,-0.24219 1.4219,-0.24219c0.22917,0 0.48047,0.01823 0.7539,0.0547v-1.0078h-2.7695v-0.73438h2.7695v-0.92968h-2.9375v-0.74219h2.9375zM282.64,224.905c-0.30989,-0.06513 -0.60677,-0.0977 -0.89062,-0.0977c-0.34635,0 -0.6276,0.05078 -0.84375,0.15234c-0.25781,0.12239 -0.38672,0.29687 -0.38672,0.52344c0,0.1901 0.10026,0.34375 0.30078,0.46094c0.20313,0.11979 0.47396,0.17968 0.8125,0.17968c0.40104,0 0.67708,-0.10677 0.82813,-0.32031c0.11979,-0.16667 0.17968,-0.41536 0.17968,-0.74609z"/><path d="M290.93,219.76h0.87891v1.0781h2.3047v0.75391h-2.3047v1.6719c0.09115,0.32031 0.13672,0.60547 0.13672,0.85547c0,0.92707 -0.20443,1.60807 -0.61328,2.043c-0.44531,0.47656 -1.11588,0.80599 -2.0117,0.98828l-0.44531,-0.66406c0.69533,-0.13281 1.21097,-0.32031 1.5469,-0.5625c0.31511,-0.22917 0.52735,-0.54037 0.63672,-0.9336c-0.27865,0.30469 -0.61068,0.45704 -0.99609,0.45704c-0.43229,0 -0.78256,-0.1224 -1.0508,-0.36719c-0.3151,-0.28907 -0.47265,-0.70833 -0.47265,-1.2578c0,-0.28907 0.06901,-0.56771 0.20703,-0.83594c0.09115,-0.17187 0.20313,-0.3151 0.33594,-0.42969c0.30729,-0.26041 0.67579,-0.39062 1.1055,-0.39062c0.27343,0 0.52083,0.0651 0.74218,0.19531v-0.76953h-3.8555v-0.75391h3.8555zM290.9612,223.8147v-0.14453c0,-0.16667 -0.03906,-0.3138 -0.11718,-0.4414c-0.14583,-0.23959 -0.35677,-0.35938 -0.63282,-0.35938c-0.14062,0 -0.27213,0.03906 -0.39453,0.11719c-0.28646,0.17969 -0.42969,0.45573 -0.42969,0.82812c0,0.23438 0.05208,0.4323 0.15625,0.59375c0.14583,0.22396 0.36068,0.33594 0.64454,0.33594c0.25781,0 0.46223,-0.11589 0.61328,-0.34766c0.10677,-0.16406 0.16015,-0.35807 0.16015,-0.58203z"/></g></g></g></svg>