<svg version="1.1" xmlns="http://www.w3.org/2000/svg" xmlns:xlink="http://www.w3.org/1999/xlink" width="164.1" height="32.534" viewBox="0,0,164.1,32.534"><g transform="translate(-240,-180)"><g data-paper-data="{&quot;isPaintingLayer&quot;:true}" stroke="none" stroke-linecap="butt" stroke-linejoin="miter" stroke-miterlimit="10" stroke-dasharray="" stroke-dashoffset="0" style="mix-blend-mode: normal"><path d="M248,180h148.1c4.432,0 8,3.568 8,8v16.534c0,4.432 -3.568,8 -8,8h-148.1c-4.432,0 -8,-3.568 -8,-8v-16.534c0,-4.432 3.568,-8 8,-8z" fill-opacity="0.7" fill="#000000" fill-rule="evenodd" stroke-width="0"/><g fill="#ffffff" fill-rule="nonzero" stroke-width="1"><path d="M250.5596,188.2525v-0.33594h-2.44141v-0.55859h5.76562v0.55859h-2.49218v0.33594h3.23437v1.40234h-0.84765v-0.89844h-2.38672v1.51954h-0.83203v-1.51954h-2.34375v0.89844h-0.83985v-1.40234zM253.32522,193.79547c0.39844,0.15104 0.89584,0.27083 1.49219,0.35937l-0.45703,0.66406c-0.83594,-0.14323 -1.52214,-0.38932 -2.0586,-0.73828c-0.53385,-0.34895 -0.94922,-0.78255 -1.24609,-1.30078h-0.86328v1.20313c0.57552,-0.08073 1.10937,-0.16667 1.60156,-0.25782l0.0547,0.58204c-0.91667,0.21875 -1.96484,0.40885 -3.14453,0.57031l-0.23047,-0.6875c0.40885,-0.04427 0.6888,-0.0755 0.83984,-0.0937l0.0469,-0.008v-1.3086h-0.85547c-0.03647,0.45833 -0.09636,0.82422 -0.17969,1.09766c-0.09896,0.32813 -0.25781,0.63412 -0.47656,0.91797l-0.69531,-0.57422c0.25521,-0.33073 0.41406,-0.71745 0.47656,-1.16016c0.03387,-0.23958 0.0508,-0.53776 0.0508,-0.89453v-1.65625h6.74219v0.51953h-5.90235v1.19922h6.23828v0.55078h-0.88671l0.49609,0.32813c-0.29427,0.24479 -0.64193,0.47395 -1.04297,0.6875zM252.71585,193.49469c0.375,-0.25521 0.67318,-0.4935 0.89453,-0.71485h-1.70703c0.22395,0.28646 0.49479,0.52474 0.8125,0.71485zM248.5596,189.04547h1.66406v0.4414h-1.66406zM248.5596,189.76422h1.66406v0.44922h-1.66406zM251.72756,189.04547h1.71485v0.4414h-1.71485zM251.72756,189.76422h1.71485v0.44922h-1.71485zM248.98538,191.35797h4.86328v0.51172h-4.86328zM259.61038,187.90094h3.0625v0.65625h-1.73438v0.64843h1.625v0.63282h-1.625v1.16406h-3.14453v-1.16406h-1.28125v0.72656c0,1.17969 -0.0625,2.11198 -0.1875,2.79687c-0.09635,0.52083 -0.2526,0.99609 -0.46875,1.42578l-0.71094,-0.5625c0.19792,-0.42969 0.33334,-0.95442 0.40625,-1.57421c0.06513,-0.54427 0.0977,-1.23959 0.0977,-2.08594v-2.66406h3.08984v-0.70313h0.8711zM256.51272,188.55719v0.64843h1.28125v-0.64843zM258.626,188.55719v0.64843h1.48047v-0.64843zM258.626,189.83844v0.60546h1.48047v-0.60546zM259.53225,193.94c-0.7526,0.39063 -1.70833,0.6875 -2.86719,0.89062l-0.40625,-0.71875c1.08855,-0.13021 1.94141,-0.32942 2.5586,-0.59765c-0.52865,-0.38281 -0.98047,-0.83724 -1.35547,-1.36328h-0.53906v-0.67969h4.57422l0.41015,0.34375c-0.38802,0.59635 -0.9414,1.15755 -1.66015,1.68359c0.61719,0.2474 1.45833,0.42969 2.52343,0.54688l-0.45703,0.73828c-1.02083,-0.13802 -1.94792,-0.41927 -2.78125,-0.84375zM258.3721,192.15094c0.3151,0.36979 0.69791,0.69531 1.14843,0.97656c0.50781,-0.32813 0.89974,-0.65365 1.17578,-0.97656zM265.03225,193.09625c0.013,0.013 0.02993,0.02993 0.0508,0.0508c0.22396,0.22917 0.47657,0.39583 0.75782,0.5c0.45312,0.16667 1.00781,0.25 1.66406,0.25h3.42187c-0.09895,0.19011 -0.18359,0.4375 -0.2539,0.74219h-3.19141c-0.88021,0 -1.54948,-0.11589 -2.00781,-0.34766c-0.27083,-0.13802 -0.52995,-0.34114 -0.77735,-0.60937c-0.36719,0.46093 -0.73828,0.84114 -1.11328,1.14062l-0.4375,-0.78906c0.39063,-0.2474 0.74479,-0.50912 1.0625,-0.78516v-2.01562h-1v-0.76953h1.82422zM267.57522,191.86969c-0.47656,0.6276 -1.05338,1.14192 -1.73047,1.54296l-0.53125,-0.59765c0.78385,-0.38542 1.46875,-0.92709 2.05469,-1.625h-1.60547v-1.98438h1.8125v-0.53515h-2.11719v-0.70313h2.11719v-0.76953h0.80078v0.76953h2.1875v0.70313h-2.1875v0.53515h1.88281v1.98438h-1.88281v0.15234c0.72657,0.31511 1.46355,0.71485 2.21094,1.19922l-0.50391,0.67188c-0.51823,-0.41146 -1.08724,-0.80339 -1.70703,-1.17579v1.63282h-0.80078zM267.57522,189.815h-1.04297v0.78125h1.04297zM268.376,189.815v0.78125h1.10547v-0.78125zM264.52053,189.24469c-0.37239,-0.58333 -0.76432,-1.08203 -1.17578,-1.4961l0.64063,-0.49609c0.45573,0.42448 0.86067,0.90495 1.21484,1.4414zM272.77053,188.01422v-0.81641h0.81641v0.81641h1.21484v0.6875h-1.21484v0.67187h1.38281v0.69531h-0.46484c-0.08333,0.3099 -0.19531,0.63803 -0.33594,0.98438h0.75391v0.67969h-1.33594v0.72265h1.28516v0.69532h-1.28516v1.64843h-0.81641v-1.64843h-1.3789v-0.69532h1.3789v-0.72265h-1.4414v-0.67969h0.71875c-0.08333,-0.34635 -0.1849,-0.67448 -0.30469,-0.98438h-0.57422v-0.69531h1.60156v-0.67187h-1.27343v-0.6875zM273.74319,190.0689h-1.24219c0.08854,0.2474 0.18359,0.57553 0.28516,0.98438h0.64844c0.13541,-0.33333 0.23828,-0.66146 0.30859,-0.98438zM278.48147,187.47906v1.82813c0,0.22656 -0.04167,0.38671 -0.125,0.48046c-0.09896,0.11198 -0.30599,0.16797 -0.62109,0.16797c-0.30729,0 -0.61459,-0.01303 -0.92188,-0.0391l-0.13281,-0.70312c0.43229,0.04687 0.70703,0.0703 0.82422,0.0703c0.12239,0 0.18359,-0.05339 0.18359,-0.16016v-0.9414h-1.71094v2.26953h2.21485l0.46484,0.39843c-0.14063,0.82813 -0.39714,1.56771 -0.76953,2.21875l-0.043,0.0781c0.28646,0.33073 0.64453,0.63281 1.07422,0.90625l-0.4375,0.73047c-0.41146,-0.26563 -0.77865,-0.58334 -1.10156,-0.95313c-0.27865,0.35417 -0.59245,0.6875 -0.94141,1l-0.46094,-0.64062v0.60937h-0.79296v-7.32031zM275.97756,191.15484v2.95313c0.32031,-0.21875 0.62891,-0.52605 0.92579,-0.92188c-0.39844,-0.61458 -0.67839,-1.29166 -0.83985,-2.03125zM277.33694,192.49469c0.23177,-0.44792 0.38281,-0.89454 0.45312,-1.33985h-1.00781c0.12761,0.5 0.3125,0.94662 0.55469,1.33985zM279.45803,188.14703c2.39583,-0.03647 4.66016,-0.09766 6.79297,-0.18359l0.0469,0.77734c-0.94011,0.04687 -1.67188,0.1901 -2.19532,0.42969c-0.5,0.22917 -0.90104,0.54687 -1.20312,0.95312c-0.34375,0.46094 -0.51563,0.97396 -0.51563,1.53906c0,0.5625 0.19531,0.98438 0.58594,1.26563c0.44792,0.32031 1.13542,0.54037 2.0625,0.66016l-0.18359,0.8789c-1.20833,-0.16146 -2.05859,-0.47396 -2.55078,-0.9375c-0.52865,-0.49479 -0.79297,-1.10938 -0.79297,-1.84375c0,-0.66667 0.23958,-1.28906 0.71875,-1.86719c0.34896,-0.42447 0.82682,-0.76562 1.43359,-1.02343c-1.07552,0.03647 -2.46224,0.09766 -4.16015,0.18359zM285.13772,191.51812c-0.15365,-0.40885 -0.41276,-0.87239 -0.77734,-1.39062l0.60937,-0.22656c0.32552,0.44791 0.58724,0.90625 0.78516,1.375zM286.19241,191.10797c-0.1849,-0.47917 -0.44271,-0.94531 -0.77344,-1.39844l0.58203,-0.20703c0.30469,0.36979 0.5638,0.81771 0.77735,1.34375zM289.73538,187.35797l0.87109,0.0781l-0.18359,1.10547h2.32812v0.76953h-2.46484l-0.20703,1.23047h2.20703v0.76953h-2.33594c-0.07291,0.46875 -0.10937,0.82552 -0.10937,1.07031c0,0.39583 0.10807,0.6888 0.32421,0.87891c0.28386,0.24739 0.70834,0.37109 1.27344,0.37109c0.59896,0 1.04948,-0.11458 1.35156,-0.34375c0.27865,-0.21093 0.41797,-0.51953 0.41797,-0.92578c0,-0.35937 -0.07812,-0.74739 -0.23437,-1.16406l0.8164,-0.0547c0.21355,0.47135 0.32032,0.88672 0.32032,1.2461c0,0.67448 -0.23698,1.1875 -0.71094,1.53906c-0.48437,0.35677 -1.14583,0.53516 -1.98438,0.53516c-0.86197,0 -1.51562,-0.20443 -1.96093,-0.61329c-0.35417,-0.32552 -0.53125,-0.79166 -0.53125,-1.39843c0,-0.28385 0.03906,-0.66406 0.11718,-1.14063h-1.46484v-0.76953h1.60156l0.21485,-1.23047h-1.71875v-0.76953h1.85547zM301.69241,187.36597v2.44922h-5.84766v-2.44922zM296.71585,187.92456v0.40235h4.10546v-0.40235zM296.71585,188.83863v0.45703h4.10546v-0.45703zM298.66897,190.89331v3.25782c0.50781,-0.13803 0.97266,-0.37501 1.39453,-0.71094c-0.39583,-0.46094 -0.69531,-0.95703 -0.89844,-1.48828h-0.33593v-0.625h3.01562l0.38281,0.33593c-0.28385,0.6875 -0.63932,1.27735 -1.0664,1.76954c0.38281,0.25 0.86198,0.46224 1.4375,0.63671l-0.48047,0.71485c-0.59375,-0.22396 -1.09375,-0.4974 -1.5,-0.82031c-0.44531,0.36719 -0.96745,0.65885 -1.56641,0.875l-0.38281,-0.57422v0.53515h-0.80859v-0.87109c-0.73959,0.14844 -1.65495,0.28125 -2.7461,0.39844l-0.21484,-0.71875c0.34375,-0.01827 0.63672,-0.0365 0.87891,-0.0547v-2.66016h-0.81641v-0.64843h7.60156v0.64843zM297.86038,190.89331h-1.28125v0.47266h1.28125zM297.86038,191.8855h-1.28125v0.48047h1.28125zM297.86038,192.87769h-1.28125v0.59765c0.22135,-0.0234 0.38802,-0.04163 0.5,-0.0547c0.29948,-0.03127 0.5599,-0.06123 0.78125,-0.0899zM300.57131,192.94409c0.23698,-0.27343 0.45052,-0.60416 0.64063,-0.99218h-1.32422c0.16146,0.35156 0.38932,0.68229 0.68359,0.99218zM307.30569,190.00659c0.17969,0.60938 0.52083,1.25782 1.02344,1.94532c0.61198,0.83854 1.36458,1.5026 2.25781,1.99218l-0.55859,0.80469c-0.94531,-0.55729 -1.73438,-1.29557 -2.36719,-2.21484c-0.34115,-0.5 -0.61458,-1.00912 -0.82031,-1.52735c-0.20573,0.69792 -0.52475,1.33204 -0.95704,1.90235c-0.63541,0.84375 -1.42057,1.46614 -2.35546,1.86719l-0.55079,-0.71485c0.97917,-0.40885 1.76953,-1.03906 2.3711,-1.89062c0.50521,-0.71875 0.80469,-1.44011 0.89844,-2.16407h-3.11719v-0.84765h3.15234v-1.88281h0.90235v1.88281h3.21875v0.84765zM314.32131,188.25269v-0.33594h-2.4414v-0.55859h5.76562v0.55859h-2.49218v0.33594h3.23437v1.40234h-0.84766v-0.89844h-2.38671v1.51954h-0.83204v-1.51954h-2.34375v0.89844h-0.83984v-1.40234zM317.08694,193.79566c0.39844,0.15104 0.89584,0.27083 1.49219,0.35937l-0.45703,0.66406c-0.83594,-0.14323 -1.52214,-0.38932 -2.0586,-0.73828c-0.53385,-0.34895 -0.94922,-0.78255 -1.24609,-1.30078h-0.86328v1.20313c0.57552,-0.08073 1.10937,-0.16667 1.60156,-0.25782l0.0547,0.58204c-0.91667,0.21875 -1.96484,0.40885 -3.14453,0.57031l-0.23047,-0.6875c0.40885,-0.04427 0.6888,-0.0755 0.83984,-0.0937l0.0469,-0.008v-1.3086h-0.85547c-0.03647,0.45833 -0.09636,0.82422 -0.17969,1.09766c-0.09896,0.32813 -0.25781,0.63412 -0.47656,0.91797l-0.69532,-0.57422c0.25521,-0.33073 0.41407,-0.71745 0.47657,-1.16016c0.03387,-0.23958 0.0508,-0.53776 0.0508,-0.89453v-1.65625h6.74219v0.51953h-5.90235v1.19922h6.23828v0.55078h-0.88672l0.4961,0.32813c-0.29427,0.24479 -0.64193,0.47395 -1.04297,0.6875zM316.47756,193.49488c0.375,-0.25521 0.67318,-0.4935 0.89454,-0.71485h-1.70704c0.22396,0.28646 0.49479,0.52474 0.8125,0.71485zM312.32131,189.04566h1.66407v0.4414h-1.66407zM312.32131,189.76441h1.66407v0.44922h-1.66407zM315.48928,189.04566h1.71485v0.4414h-1.71485zM315.48928,189.76441h1.71485v0.44922h-1.71485zM312.7471,191.35816h4.86328v0.51172h-4.86328zM323.3721,187.90113h3.0625v0.65625h-1.73438v0.64843h1.625v0.63282h-1.625v1.16406h-3.14453v-1.16406h-1.28125v0.72656c0,1.17969 -0.0625,2.11198 -0.1875,2.79687c-0.09635,0.52083 -0.2526,0.99609 -0.46875,1.42578l-0.71094,-0.5625c0.19792,-0.42969 0.33334,-0.95442 0.40625,-1.57421c0.06513,-0.54427 0.0977,-1.23959 0.0977,-2.08594v-2.66406h3.08984v-0.70313h0.8711zM320.27444,188.55738v0.64843h1.28125v-0.64843zM322.38772,188.55738v0.64843h1.48047v-0.64843zM322.38772,189.83863v0.60546h1.48047v-0.60546zM323.29397,193.94019c-0.75261,0.39063 -1.70834,0.6875 -2.86719,0.89062l-0.40625,-0.71875c1.08855,-0.13021 1.94141,-0.32942 2.5586,-0.59765c-0.52865,-0.38281 -0.98047,-0.83724 -1.35547,-1.36328h-0.53906v-0.67969h4.57421l0.41016,0.34375c-0.38802,0.59635 -0.94141,1.15755 -1.66016,1.68359c0.61719,0.2474 1.45834,0.42969 2.52344,0.54688l-0.45703,0.73828c-1.02083,-0.13802 -1.94792,-0.41927 -2.78125,-0.84375zM322.13381,192.15113c0.31511,0.36979 0.69792,0.69531 1.14844,0.97656c0.50781,-0.32813 0.89974,-0.65365 1.17578,-0.97656zM331.15725,193.61206c1.52865,-0.38541 2.29297,-1.26171 2.29297,-2.6289c0,-0.59635 -0.15365,-1.10938 -0.46094,-1.53907c-0.34375,-0.48437 -0.86718,-0.79557 -1.57031,-0.93359c-0.15365,1.20833 -0.36328,2.19792 -0.62891,2.96875c-0.18229,0.53906 -0.40885,1.04817 -0.67968,1.52734c-0.39063,0.68229 -0.83464,1.02344 -1.33203,1.02344c-0.36979,0 -0.69922,-0.16667 -0.98829,-0.5c-0.18489,-0.21093 -0.33463,-0.47005 -0.44921,-0.77734c-0.15105,-0.39844 -0.22657,-0.82683 -0.22657,-1.28516c0,-0.74219 0.20443,-1.42578 0.61328,-2.05078c0.41407,-0.63802 0.95183,-1.10156 1.61329,-1.39062c0.48177,-0.21094 1.01041,-0.31641 1.58593,-0.31641c0.89844,0 1.66146,0.24089 2.28907,0.72266c0.77083,0.59114 1.15625,1.42838 1.15625,2.51171c0,1.81511 -0.91797,2.96615 -2.75391,3.45313zM330.57131,188.47925c-0.46093,0.05207 -0.84635,0.17576 -1.15625,0.37109c-0.19791,0.12761 -0.39453,0.29688 -0.58984,0.50782c-0.54167,0.59895 -0.8125,1.29296 -0.8125,2.08203c0,0.57552 0.11458,1.02604 0.34375,1.35156c0.14063,0.20052 0.27995,0.30078 0.41797,0.30078c0.1875,0 0.39844,-0.20703 0.63281,-0.62109c0.57292,-1.00781 0.96094,-2.33854 1.16406,-3.99219zM337.83694,192.10816v2.05078c0.52083,-0.1849 0.875,-0.48047 1.0625,-0.88672c0.14583,-0.3125 0.22396,-0.91016 0.23437,-1.79297h0.78516c-0.0078,1.02865 -0.11457,1.74479 -0.32031,2.14844c-0.27865,0.54167 -0.75391,0.95052 -1.42578,1.22656l-0.33594,-0.46094v0.004h-1.86719v0.40234h-0.76953v-2.6914zM335.96975,192.78003v0.95313h1.09766v-0.95313zM339.8096,187.91675v-0.71094h0.79296v0.71094h1.90235v0.6875h-1.90235v0.55469h1.67969v0.67187h-4.05469v-0.67187h1.58204v-0.55469h-1.85547v-0.6875zM342.47366,190.36597v1.64062h-0.78516v-0.97656h-2.82812v1.03906h-0.76172v-1.70312zM335.32913,187.48706h2.35937v0.65625h-2.35937zM334.96194,188.63159h3.04687v0.70313h-3.04687zM335.32913,189.83081h2.35937v0.64844h-2.35937zM335.32913,190.97534h2.35937v0.63282h-2.35937zM340.39163,191.46363h0.7539v2.3164c0,0.07292 0.01823,0.11719 0.0547,0.13281c0.05987,0.02607 0.12758,0.0391 0.20313,0.0391c0.17187,0 0.28385,-0.02473 0.33593,-0.0742c0.07031,-0.06247 0.11979,-0.41143 0.14844,-1.04688l0.70703,0.2461c-0.0234,0.69791 -0.09762,1.14062 -0.22265,1.32812c-0.07813,0.11719 -0.20313,0.19661 -0.375,0.23828c-0.14844,0.03387 -0.34636,0.0508 -0.59375,0.0508c-0.42969,0 -0.70704,-0.04427 -0.83204,-0.13281c-0.11979,-0.08593 -0.17968,-0.24479 -0.17968,-0.47656zM343.95803,187.75659h3.05469l0.54688,0.46485c-0.25781,0.90365 -0.47136,1.58333 -0.64063,2.03906c0.64844,0.10937 1.2461,0.28646 1.79297,0.53125c0.03127,-0.33594 0.0469,-0.66537 0.0469,-0.98828c0,-0.17187 -0.0052,-0.3737 -0.0156,-0.60547l0.85547,0.0898c-0.00267,0.74479 -0.03263,1.3711 -0.0899,1.87891c0.32292,0.16667 0.66146,0.36328 1.01563,0.58984l-0.33594,0.83204c-0.25,-0.18229 -0.52083,-0.36328 -0.8125,-0.54297c-0.20052,0.77343 -0.52083,1.37499 -0.96094,1.80468c-0.3125,0.30729 -0.73958,0.57813 -1.28125,0.8125l-0.48828,-0.65625c0.63802,-0.27343 1.10938,-0.62239 1.41407,-1.04687c0.23958,-0.33854 0.41666,-0.78125 0.53125,-1.32813c-0.63803,-0.32031 -1.28386,-0.53645 -1.9375,-0.64843c-0.42448,1.16145 -0.85026,2.04166 -1.27735,2.64062c-0.32552,0.45313 -0.6914,0.67969 -1.09765,0.67969c-0.39323,0 -0.69792,-0.1875 -0.91407,-0.5625c-0.16406,-0.28646 -0.24609,-0.62761 -0.24609,-1.02344c0,-0.48958 0.1263,-0.92708 0.37891,-1.3125c0.29947,-0.45833 0.76041,-0.79297 1.38281,-1.0039c0.35937,-0.11979 0.76172,-0.1849 1.20703,-0.19532c0.23958,-0.625 0.42317,-1.18489 0.55078,-1.67968h-2.67969zM345.80569,190.95191c-0.33594,0.0182 -0.6237,0.082 -0.86328,0.1914c-0.375,0.16667 -0.65104,0.42188 -0.82813,0.76563c-0.125,0.24219 -0.1875,0.5 -0.1875,0.77344c0,0.21875 0.04297,0.40885 0.12891,0.57031c0.06513,0.1276 0.14326,0.1914 0.23437,0.1914c0.36459,0 0.8698,-0.83073 1.51563,-2.49218zM354.9971,189.42847h2.82031v0.80078h-2.82031v3.26563h3.5664v0.8164h-7.60156v-0.8164h3.08984v-6.29688h0.94532zM363.79397,187.5105h0.70313l0.16796,1.70313h1.59375v0.79296h-1.52734l0.0156,0.71094c0.00267,0.12761 0.004,0.21615 0.004,0.26563c0,1.07552 -0.15885,1.8737 -0.47656,2.39453c-0.25,0.41406 -0.61328,0.75 -1.08984,1.00781c-0.13021,0.07031 -0.28907,0.14714 -0.47657,0.23047l-0.53125,-0.67188c0.64583,-0.29167 1.09245,-0.64713 1.33985,-1.0664c0.24219,-0.40885 0.36328,-1.04818 0.36328,-1.91797c0,-0.02347 -0.00133,-0.11722 -0.004,-0.28125l-0.0195,-0.67188h-2.56641v-0.79296h2.53516zM359.72756,194.36597c-0.1276,-0.98177 -0.1914,-2.05599 -0.1914,-3.22266c0,-1.23698 0.07292,-2.44792 0.21875,-3.63281l0.84765,0.0781c-0.13541,1.23697 -0.20312,2.41536 -0.20312,3.53515c0,1.13802 0.0625,2.17839 0.1875,3.1211zM365.26663,188.86206c-0.11719,-0.41667 -0.30469,-0.85417 -0.5625,-1.3125l0.55468,-0.15234c0.2474,0.42448 0.44402,0.85677 0.58985,1.29687zM366.16897,188.54956c-0.14583,-0.49219 -0.34635,-0.93489 -0.60156,-1.32812l0.57812,-0.14453c0.25261,0.38802 0.45573,0.82291 0.60938,1.30468zM367.65725,194.46363c-0.09896,-0.88542 -0.14844,-1.76563 -0.14844,-2.64063c0,-1.5 0.11068,-2.92448 0.33204,-4.27344l0.85937,0.0899c-0.21094,1.16667 -0.31641,2.48307 -0.31641,3.94922c0,0.98437 0.05469,1.90494 0.16407,2.76171zM370.001,188.27613h3.75391v0.83203h-3.75391zM374.02053,193.98316c-0.52083,0.08073 -1.13932,0.12109 -1.85547,0.12109c-1.79947,0 -2.69921,-0.52865 -2.69921,-1.58594c0,-0.41927 0.11198,-0.78515 0.33593,-1.09765l0.73828,0.32812c-0.14062,0.19792 -0.21093,0.42058 -0.21093,0.66797c0,0.30469 0.15234,0.51432 0.45703,0.62891c0.33854,0.13021 0.80078,0.19531 1.38672,0.19531c0.63281,0 1.21875,-0.04167 1.75781,-0.125zM377.88772,189.52613h-0.80469c-0.07291,1.17708 -0.21484,2.14062 -0.42578,2.89062c-0.24739,0.89063 -0.65494,1.6211 -1.22265,2.19141l-0.61329,-0.64844c0.52865,-0.55469 0.90755,-1.28906 1.13672,-2.20313c0.13542,-0.53906 0.23308,-1.28255 0.29297,-2.23046h-1.19922v-0.76954h1.26172l0.0508,-1.55859h0.81641l-0.043,1.55859h1.55469c0,2.75781 -0.07552,4.47005 -0.22656,5.13672c-0.06247,0.26823 -0.18226,0.44922 -0.35938,0.54297c-0.12761,0.06513 -0.31511,0.0977 -0.5625,0.0977c-0.30469,0 -0.61588,-0.02343 -0.93359,-0.0703l-0.15235,-0.83985c0.34375,0.06247 0.61459,0.0937 0.8125,0.0937c0.17709,0 0.28907,-0.04687 0.33594,-0.14062c0.14063,-0.26823 0.23307,-1.5573 0.27734,-3.86719zM382.19631,188.31909v6.16016h-0.82421v-0.53906h-1.29297v0.61719h-0.8086v-6.23829zM380.07913,189.09644v4.0664h1.29297v-4.0664zM383.75491,189.31909h4.41015l0.35157,0.57813l-0.16016,0.11719c-1.01563,0.76562 -1.73568,1.32942 -2.16016,1.6914c0.29688,-0.14323 0.54688,-0.21484 0.75,-0.21484c0.26303,0 0.45053,0.09115 0.5625,0.27344c0.06513,0.10156 0.0977,0.22395 0.0977,0.36718c0,0.04427 -0.0039,0.10807 -0.0117,0.19141c-0.04167,0.40104 -0.0625,0.69792 -0.0625,0.89063c0,0.19271 0.07422,0.30729 0.22266,0.34375c0.11719,0.02867 0.33463,0.043 0.65234,0.043c0.41407,0 0.86329,-0.02863 1.34766,-0.0859l0.0703,0.83203c-0.48958,0.04167 -0.99609,0.0625 -1.51953,0.0625c-0.5625,0 -0.94141,-0.03776 -1.13672,-0.11328c-0.32813,-0.125 -0.49219,-0.40104 -0.49219,-0.82813c0,-0.41146 0.01823,-0.7513 0.0547,-1.01953c0.00267,-0.0208 0.004,-0.04293 0.004,-0.0664c0,-0.18229 -0.09245,-0.27343 -0.27735,-0.27343c-0.5,0 -1.49219,0.79557 -2.97656,2.38672l-0.61328,-0.67188c1.50261,-1.43489 2.91537,-2.67448 4.23828,-3.71875h-3.35156zM387.88381,188.8855c-1.00521,-0.30729 -2.13541,-0.57422 -3.39062,-0.80078l0.25391,-0.72656c1.24219,0.1901 2.3789,0.44661 3.41015,0.76953zM390.66116,188.14722c2.39583,-0.03647 4.66016,-0.09766 6.79297,-0.18359l0.0469,0.77734c-0.9401,0.04687 -1.67187,0.1901 -2.19531,0.42969c-0.5,0.22917 -0.90104,0.54687 -1.20313,0.95312c-0.34375,0.46094 -0.51562,0.97396 -0.51562,1.53906c0,0.5625 0.19531,0.98438 0.58594,1.26563c0.44791,0.32031 1.13541,0.54037 2.0625,0.66016l-0.1836,0.8789c-1.20833,-0.16146 -2.05859,-0.47396 -2.55078,-0.9375c-0.52865,-0.49479 -0.79297,-1.10938 -0.79297,-1.84375c0,-0.66667 0.23958,-1.28906 0.71875,-1.86719c0.34896,-0.42447 0.82683,-0.76562 1.4336,-1.02343c-1.07552,0.03647 -2.46224,0.09766 -4.16016,0.18359z"/><path d="M253.9307,198.1658v2.44922h-5.84766v-2.44922zM248.95414,198.72439v0.40235h4.10547v-0.40235zM248.95414,199.63846v0.45703h4.10547v-0.45703zM250.90726,201.69314v3.25782c0.50781,-0.13803 0.97266,-0.37501 1.39453,-0.71094c-0.39583,-0.46094 -0.69531,-0.95703 -0.89843,-1.48828h-0.33594v-0.625h3.01562l0.38282,0.33593c-0.28386,0.6875 -0.63933,1.27735 -1.06641,1.76954c0.38281,0.25 0.86198,0.46224 1.4375,0.63671l-0.48047,0.71485c-0.59375,-0.22396 -1.09375,-0.4974 -1.5,-0.82031c-0.44531,0.36719 -0.96745,0.65885 -1.56641,0.875l-0.38281,-0.57422v0.53515h-0.80859v-0.87109c-0.73959,0.14844 -1.65495,0.28125 -2.7461,0.39844l-0.21484,-0.71875c0.34375,-0.01827 0.63672,-0.0365 0.87891,-0.0547v-2.66016h-0.81641v-0.64843h7.60156v0.64843zM250.09867,201.69314h-1.28125v0.47266h1.28125zM250.09867,202.68533h-1.28125v0.48047h1.28125zM250.09867,203.67752h-1.28125v0.59765c0.22135,-0.02347 0.38802,-0.0417 0.5,-0.0547c0.29948,-0.03127 0.5599,-0.06123 0.78125,-0.0899zM252.80961,203.74392c0.23697,-0.27343 0.45051,-0.60416 0.64062,-0.99218h-1.32422c0.16146,0.35156 0.38933,0.68229 0.6836,0.99218zM259.54398,200.80642c0.17969,0.60938 0.52083,1.25782 1.02344,1.94532c0.61198,0.83854 1.36458,1.5026 2.25781,1.99218l-0.55859,0.80469c-0.94531,-0.55729 -1.73438,-1.29557 -2.36719,-2.21484c-0.34115,-0.5 -0.61458,-1.00912 -0.82031,-1.52735c-0.20573,0.69792 -0.52474,1.33204 -0.95703,1.90235c-0.63542,0.84375 -1.42058,1.46614 -2.35547,1.86719l-0.55078,-0.71485c0.97917,-0.40885 1.76953,-1.03906 2.37109,-1.89062c0.50521,-0.71875 0.80469,-1.44011 0.89844,-2.16407h-3.11719v-0.84765h3.15234v-1.88281h0.90235v1.88281h3.21875v0.84765zM266.55961,199.05252v-0.33594h-2.44141v-0.55859h5.76562v0.55859h-2.49218v0.33594h3.23437v1.40234h-0.84765v-0.89844h-2.38672v1.51954h-0.83203v-1.51954h-2.34375v0.89844h-0.83985v-1.40234zM269.32523,204.59549c0.39844,0.15104 0.89584,0.27083 1.49219,0.35937l-0.45703,0.66406c-0.83594,-0.14323 -1.52214,-0.38932 -2.0586,-0.73828c-0.53385,-0.34895 -0.94922,-0.78255 -1.24609,-1.30078h-0.86328v1.20313c0.57552,-0.08073 1.10937,-0.16667 1.60156,-0.25782l0.0547,0.58204c-0.91667,0.21875 -1.96484,0.40885 -3.14453,0.57031l-0.23047,-0.6875c0.40885,-0.04427 0.6888,-0.0755 0.83984,-0.0937l0.0469,-0.008v-1.3086h-0.85547c-0.03647,0.45833 -0.09636,0.82422 -0.17969,1.09766c-0.09896,0.32813 -0.25781,0.63412 -0.47656,0.91797l-0.69531,-0.57422c0.25521,-0.33073 0.41406,-0.71745 0.47656,-1.16016c0.03387,-0.23958 0.0508,-0.53776 0.0508,-0.89453v-1.65625h6.74219v0.51953h-5.90235v1.19922h6.23828v0.55078h-0.88671l0.49609,0.32813c-0.29427,0.24479 -0.64193,0.47395 -1.04297,0.6875zM268.71586,204.29471c0.375,-0.25521 0.67318,-0.4935 0.89453,-0.71485h-1.70703c0.22395,0.28646 0.49479,0.52474 0.8125,0.71485zM264.55961,199.84549h1.66406v0.4414h-1.66406zM264.55961,200.56424h1.66406v0.44922h-1.66406zM267.72757,199.84549h1.71485v0.4414h-1.71485zM267.72757,200.56424h1.71485v0.44922h-1.71485zM264.98539,202.15799h4.86328v0.51172h-4.86328zM275.61039,198.70096h3.0625v0.65625h-1.73438v0.64843h1.625v0.63282h-1.625v1.16406h-3.14453v-1.16406h-1.28125v0.72656c0,1.17969 -0.0625,2.11198 -0.1875,2.79687c-0.09635,0.52083 -0.2526,0.99609 -0.46875,1.42578l-0.71094,-0.5625c0.19792,-0.42969 0.33334,-0.95442 0.40625,-1.57421c0.06513,-0.54427 0.0977,-1.23959 0.0977,-2.08594v-2.66406h3.08984v-0.70313h0.8711zM272.51273,199.35721v0.64843h1.28125v-0.64843zM274.62601,199.35721v0.64843h1.48047v-0.64843zM274.62601,200.63846v0.60546h1.48047v-0.60546zM275.53226,204.74002c-0.7526,0.39063 -1.70833,0.6875 -2.86719,0.89062l-0.40625,-0.71875c1.08855,-0.13021 1.94141,-0.32942 2.5586,-0.59765c-0.52865,-0.38281 -0.98047,-0.83724 -1.35547,-1.36328h-0.53906v-0.67969h4.57422l0.41015,0.34375c-0.38802,0.59635 -0.9414,1.15755 -1.66015,1.68359c0.61719,0.2474 1.45833,0.42969 2.52343,0.54688l-0.45703,0.73828c-1.02083,-0.13802 -1.94792,-0.41927 -2.78125,-0.84375zM274.37211,202.95096c0.3151,0.36979 0.69791,0.69531 1.14843,0.97656c0.50781,-0.32813 0.89974,-0.65365 1.17578,-0.97656zM279.87992,199.09549h2.10547c0.23177,-0.36979 0.40755,-0.66797 0.52734,-0.89453l0.87109,0.125c-0.07812,0.14062 -0.21614,0.36979 -0.41406,0.6875l-0.0508,0.082h2.75391v0.76953h-3.27344c-0.34115,0.46875 -0.66667,0.875 -0.97656,1.21875c0.49219,-0.29427 0.9414,-0.44141 1.34765,-0.44141c0.63021,0 1.04297,0.31641 1.23828,0.94922c0.66667,-0.22135 1.34636,-0.4401 2.03907,-0.65625l0.33593,0.75781l-0.13671,0.0391l-0.38672,0.10156c-0.72917,0.19791 -1.3125,0.36718 -1.75,0.50781c0.03127,0.33854 0.0534,0.77604 0.0664,1.3125l-0.85547,0.0469c-0.00267,-0.3099 -0.00787,-0.64584 -0.0156,-1.00782v-0.0781c-1.19792,0.40885 -1.79688,0.82031 -1.79688,1.23437c0,0.21355 0.15365,0.35938 0.46094,0.4375c0.29687,0.07552 0.82812,0.11328 1.59375,0.11328c0.70573,0 1.44662,-0.04036 2.22266,-0.12109l0.0937,0.83203c-0.75261,0.05727 -1.53256,0.0859 -2.33985,0.0859c-0.99479,0 -1.70182,-0.07552 -2.12109,-0.22656c-0.51823,-0.1875 -0.77734,-0.52474 -0.77734,-1.01172c0,-0.41146 0.18359,-0.77474 0.55078,-1.08985c0.38021,-0.32552 1.04948,-0.66146 2.00781,-1.00781c-0.05207,-0.20052 -0.12108,-0.34114 -0.20703,-0.42187c-0.09635,-0.09115 -0.22396,-0.13672 -0.38281,-0.13672c-0.25781,0 -0.58203,0.09766 -0.97266,0.29297c-0.48177,0.23958 -0.9987,0.60026 -1.55078,1.08203l-0.51953,-0.59375c0.80989,-0.75261 1.44401,-1.49219 1.90234,-2.21875h-1.58984zM290.01664,201.82205v0.47266h0.78906v0.53515h-0.78906v0.48047h0.78906v0.52734h-0.78906v0.53516h0.98828v0.36328c0.47396,-0.34115 0.75,-0.96094 0.82812,-1.85937h-0.64843v-4.57422h3.17578v4.57422h-0.75v1.6875c0,0.08073 0.02083,0.1302 0.0625,0.14843c0.04427,0.0208 0.10677,0.0312 0.1875,0.0312c0.16667,0 0.26562,-0.05729 0.29687,-0.17187c0.04167,-0.15104 0.0638,-0.47265 0.0664,-0.96484l0.66406,0.23046c-0.0208,0.73959 -0.07939,1.19402 -0.17578,1.36329c-0.11459,0.19791 -0.41276,0.29687 -0.89453,0.29687c-0.32552,0 -0.54167,-0.01953 -0.64844,-0.0586c-0.19011,-0.07031 -0.28516,-0.23568 -0.28516,-0.4961v-2.0664h-0.29296l-0.004,0.0508c-0.05467,0.67969 -0.19139,1.22005 -0.41016,1.62109c-0.23177,0.42448 -0.61328,0.77995 -1.14453,1.06641l-0.46484,-0.625h-2.01563v0.48828h-0.75v-2.96094c-0.125,0.14583 -0.25651,0.28385 -0.39453,0.41406l-0.38281,-0.6875c0.55989,-0.51823 0.99739,-1.10937 1.3125,-1.77343h-1.12891v-0.64844h0.66797l-0.5625,-0.41406c0.36198,-0.40105 0.63021,-0.87631 0.80469,-1.42578l0.76172,0.11328c-0.05727,0.17187 -0.12107,0.33984 -0.19141,0.5039h2.16797v0.63282h-1.28906c-0.04687,0.19531 -0.10546,0.39192 -0.17578,0.58984h1.61328v0.64844h-1.91797c-0.11459,0.27865 -0.2474,0.54297 -0.39844,0.79297h0.70313c0.11719,-0.27605 0.20182,-0.52735 0.2539,-0.75391l0.70703,0.21094c-0.07552,0.18229 -0.16146,0.36328 -0.25781,0.54297h0.87891v0.55859zM289.29398,201.82205h-0.74219v0.47266h0.74219zM289.29398,202.82986h-0.74219v0.48047h0.74219zM289.29398,203.83767h-0.74219v0.53516h0.74219zM288.80179,199.23221h-0.45312c-0.125,0.19791 -0.27604,0.39453 -0.45313,0.58984h0.71485c0.06771,-0.1875 0.13151,-0.38411 0.1914,-0.58984zM291.92679,198.99002v0.67187h1.67578v-0.67187zM291.92679,200.26346v0.66406h1.67578v-0.66406zM291.92679,201.53689v0.6836h1.67578v-0.6836zM299.82523,198.31033v5.35938h-2.45312v-5.35938zM298.07523,199.00564v0.87891h1.0625v-0.87891zM298.07523,200.51736v0.87891h1.0625v-0.87891zM298.07523,201.99783v0.98438h1.0625v-0.98438zM296.44242,199.77517c-0.30469,-0.41145 -0.67057,-0.79817 -1.09766,-1.16015l0.58594,-0.5625c0.40104,0.29167 0.77734,0.66276 1.12891,1.11328zM296.22757,201.77517c-0.42447,-0.53385 -0.80077,-0.94531 -1.1289,-1.23437l0.60156,-0.57422c0.35677,0.28906 0.74089,0.6862 1.15234,1.19141zM295.16117,204.99783c0.45833,-0.73437 0.88021,-1.67318 1.26562,-2.81641l0.66407,0.45704c-0.30209,1.05469 -0.70704,2.05469 -1.21485,3zM299.56351,205.42361c-0.18489,-0.5026 -0.42838,-0.97005 -0.73047,-1.40234l0.59375,-0.33594c0.32031,0.37761 0.59505,0.8099 0.82422,1.29688zM300.36039,198.59939h0.77734v5.03125h-0.77734zM296.87601,205.07596c0.39063,-0.3724 0.67839,-0.82032 0.86328,-1.34375l0.67969,0.36328c-0.26041,0.66145 -0.5677,1.15624 -0.92187,1.48437zM301.73929,198.09549h0.8086v6.6875c0,0.33854 -0.10417,0.55468 -0.3125,0.64843c-0.11979,0.05207 -0.30339,0.0781 -0.55078,0.0781c-0.34636,0 -0.66147,-0.02083 -0.94532,-0.0625l-0.13672,-0.79297c0.40625,0.04167 0.71094,0.0625 0.91407,0.0625c0.10417,0 0.16927,-0.02083 0.19531,-0.0625c0.0182,-0.03387 0.0273,-0.10027 0.0273,-0.19922zM303.96976,198.32596h0.92188v4.65625c0,0.98177 0.51562,1.47265 1.54687,1.47265c0.67969,0 1.23698,-0.3138 1.67188,-0.9414c0.28125,-0.40365 0.53385,-1.02865 0.75781,-1.875l0.79297,0.48046c-0.26563,0.94011 -0.58464,1.64323 -0.95703,2.10938c-0.58594,0.72656 -1.34766,1.08984 -2.28516,1.08984c-0.97917,0 -1.66927,-0.30208 -2.07031,-0.90625c-0.25261,-0.3776 -0.37891,-0.86458 -0.37891,-1.46093zM310.46586,199.38846h1.82421c0.07292,-0.32292 0.15495,-0.74089 0.2461,-1.25391l0.88281,0.10937c-0.07813,0.40365 -0.16146,0.78516 -0.25,1.14454h2.60156v0.77734h-2.78515c-0.52083,2.08073 -1.09636,3.80599 -1.72657,5.17578l-0.86328,-0.30469c0.6849,-1.51823 1.25521,-3.14192 1.71094,-4.87109h-1.64062zM317.37992,205.13455c-0.42187,0.05467 -0.89583,0.082 -1.42188,0.082c-0.85156,0 -1.49479,-0.07292 -1.92968,-0.21875c-0.16667,-0.05727 -0.3086,-0.138 -0.42579,-0.24219c-0.22917,-0.20833 -0.34375,-0.47396 -0.34375,-0.79687c0,-0.33073 0.10677,-0.6224 0.32032,-0.875l0.69531,0.41015c-0.08073,0.10157 -0.12109,0.21355 -0.12109,0.33594c0,0.21094 0.09635,0.34766 0.28906,0.41016c0.29427,0.09375 0.71354,0.14062 1.25781,0.14062c0.52865,0 1.05599,-0.03906 1.58203,-0.11718zM313.71586,201.26346c1.02083,-0.11719 2.13802,-0.17969 3.35156,-0.1875l0.0391,0.79296c-1.19011,0.00533 -2.28255,0.06132 -3.27734,0.16797zM324.66507,198.18924v3.78515h-4.64843v-3.78515zM320.85648,198.80642v0.48829h2.96094v-0.48829zM320.85648,199.84549v0.48828h2.96094v-0.48828zM320.85648,200.88455v0.50391h2.96094v-0.50391zM319.28226,202.49392h6.47656v0.67969h-3.23046v2.42578h-0.88672v-2.42578h-3.21485v-4.38281h0.85547zM318.28226,204.8533c0.61979,-0.28646 1.21224,-0.76693 1.77735,-1.44141l0.71875,0.41797c-0.55729,0.70573 -1.17578,1.26042 -1.85547,1.66406zM325.01664,205.35721c-0.39844,-0.48959 -0.9974,-1.00391 -1.79688,-1.54297l0.67188,-0.47266c0.6276,0.36198 1.24348,0.83724 1.84765,1.42578zM326.84086,199.09549h2.10546c0.23177,-0.36979 0.40756,-0.66797 0.52735,-0.89453l0.87109,0.125c-0.07813,0.14062 -0.21615,0.36979 -0.41406,0.6875l-0.0508,0.082h2.7539v0.76953h-3.27343c-0.34115,0.46875 -0.66667,0.875 -0.97657,1.21875c0.49219,-0.29427 0.94141,-0.44141 1.34766,-0.44141c0.63021,0 1.04297,0.31641 1.23828,0.94922c0.66667,-0.22135 1.34635,-0.4401 2.03906,-0.65625l0.33594,0.75781l-0.13672,0.0391l-0.38672,0.10156c-0.72917,0.19791 -1.3125,0.36718 -1.75,0.50781c0.03127,0.33854 0.0534,0.77604 0.0664,1.3125l-0.85547,0.0469c-0.00267,-0.3099 -0.00787,-0.64584 -0.0156,-1.00782v-0.0781c-1.19792,0.40885 -1.79688,0.82031 -1.79688,1.23437c0,0.21355 0.15365,0.35938 0.46094,0.4375c0.29687,0.07552 0.82812,0.11328 1.59375,0.11328c0.70573,0 1.44661,-0.04036 2.22266,-0.12109l0.0937,0.83203c-0.75261,0.05727 -1.53256,0.0859 -2.33985,0.0859c-0.99479,0 -1.70182,-0.07552 -2.12109,-0.22656c-0.51823,-0.1875 -0.77735,-0.52474 -0.77735,-1.01172c0,-0.41146 0.1836,-0.77474 0.55079,-1.08985c0.38021,-0.32552 1.04948,-0.66146 2.00781,-1.00781c-0.05207,-0.20052 -0.12108,-0.34114 -0.20703,-0.42187c-0.09635,-0.09115 -0.22396,-0.13672 -0.38282,-0.13672c-0.25781,0 -0.58202,0.09766 -0.97265,0.29297c-0.48177,0.23958 -0.9987,0.60026 -1.55078,1.08203l-0.51953,-0.59375c0.80989,-0.75261 1.44401,-1.49219 1.90234,-2.21875h-1.58984zM337.03617,202.90799v2.05078c0.52083,-0.1849 0.875,-0.48047 1.0625,-0.88672c0.14583,-0.3125 0.22396,-0.91016 0.23437,-1.79297h0.78516c-0.0078,1.02865 -0.11457,1.74479 -0.32031,2.14844c-0.27865,0.54167 -0.75391,0.95052 -1.42578,1.22656l-0.33594,-0.46094v0.004h-1.86719v0.40234h-0.76953v-2.6914zM335.16898,203.57986v0.95313h1.09766v-0.95313zM339.00882,198.71658v-0.71094h0.79297v0.71094h1.90235v0.6875h-1.90235v0.55469h1.67969v0.67187h-4.05469v-0.67187h1.58203v-0.55469h-1.85546v-0.6875zM341.67289,201.1658v1.64062h-0.78516v-0.97656h-2.82812v1.03906h-0.76172v-1.70312zM334.52836,198.28689h2.35937v0.65625h-2.35937zM334.16117,199.43142h3.04687v0.70313h-3.04687zM334.52836,200.63064h2.35937v0.64844h-2.35937zM334.52836,201.77517h2.35937v0.63282h-2.35937zM339.59086,202.26346h0.7539v2.3164c0,0.07292 0.01823,0.11719 0.0547,0.13281c0.05987,0.02607 0.12757,0.0391 0.20312,0.0391c0.17188,0 0.28386,-0.02473 0.33594,-0.0742c0.07031,-0.06247 0.11979,-0.41143 0.14844,-1.04688l0.70703,0.2461c-0.02347,0.69791 -0.09769,1.14062 -0.22266,1.32812c-0.07812,0.11719 -0.20312,0.19661 -0.375,0.23828c-0.14843,0.03387 -0.34635,0.0508 -0.59375,0.0508c-0.42969,0 -0.70703,-0.04427 -0.83203,-0.13281c-0.11979,-0.08593 -0.17968,-0.24479 -0.17968,-0.47656zM343.15726,198.55642h3.05469l0.54687,0.46485c-0.25781,0.90365 -0.47135,1.58333 -0.64062,2.03906c0.64844,0.10937 1.2461,0.28646 1.79297,0.53125c0.03127,-0.33594 0.0469,-0.66537 0.0469,-0.98828c0,-0.17187 -0.0052,-0.3737 -0.0156,-0.60547l0.85547,0.0898c-0.00267,0.74479 -0.03263,1.3711 -0.0899,1.87891c0.32292,0.16667 0.66146,0.36328 1.01563,0.58984l-0.33594,0.83204c-0.25,-0.18229 -0.52083,-0.36328 -0.8125,-0.54297c-0.20052,0.77343 -0.52083,1.37499 -0.96094,1.80468c-0.3125,0.30729 -0.73958,0.57813 -1.28125,0.8125l-0.48828,-0.65625c0.63802,-0.27343 1.10937,-0.62239 1.41406,-1.04687c0.23959,-0.33854 0.41667,-0.78125 0.53125,-1.32813c-0.63802,-0.32031 -1.28385,-0.53645 -1.9375,-0.64843c-0.42447,1.16145 -0.85025,2.04166 -1.27734,2.64062c-0.32552,0.45313 -0.69141,0.67969 -1.09766,0.67969c-0.39323,0 -0.69791,-0.1875 -0.91406,-0.5625c-0.16406,-0.28646 -0.24609,-0.62761 -0.24609,-1.02344c0,-0.48958 0.1263,-0.92708 0.3789,-1.3125c0.29948,-0.45833 0.76042,-0.79297 1.38282,-1.0039c0.35937,-0.11979 0.76172,-0.1849 1.20703,-0.19532c0.23958,-0.625 0.42317,-1.18489 0.55078,-1.67968h-2.67969zM345.00492,201.75174c-0.33594,0.0182 -0.6237,0.082 -0.86328,0.1914c-0.375,0.16667 -0.65104,0.42188 -0.82813,0.76563c-0.125,0.24219 -0.1875,0.5 -0.1875,0.77344c0,0.21875 0.04297,0.40885 0.12891,0.57031c0.06507,0.1276 0.14319,0.1914 0.23437,0.1914c0.36459,0 0.8698,-0.83073 1.51563,-2.49218zM354.19632,200.2283h2.82032v0.80078h-2.82032v3.26563h3.56641v0.8164h-7.60156v-0.8164h3.08984v-6.29688h0.94531zM362.9932,198.31033h0.70312l0.16797,1.70313h1.59375v0.79296h-1.52734l0.0156,0.71094c0.00267,0.12761 0.004,0.21615 0.004,0.26563c0,1.07552 -0.15885,1.8737 -0.47656,2.39453c-0.25,0.41406 -0.61328,0.75 -1.08985,1.00781c-0.13021,0.07031 -0.28906,0.14714 -0.47656,0.23047l-0.53125,-0.67188c0.64583,-0.29167 1.09245,-0.64713 1.33985,-1.0664c0.24219,-0.40885 0.36328,-1.04818 0.36328,-1.91797c0,-0.02347 -0.00133,-0.11722 -0.004,-0.28125l-0.0195,-0.67188h-2.56641v-0.79296h2.53516zM358.92679,205.1658c-0.1276,-0.98177 -0.1914,-2.05599 -0.1914,-3.22266c0,-1.23698 0.07292,-2.44792 0.21875,-3.63281l0.84765,0.0781c-0.13541,1.23697 -0.20312,2.41536 -0.20312,3.53515c0,1.13802 0.0625,2.17839 0.1875,3.1211zM364.46586,199.66189c-0.11719,-0.41667 -0.30469,-0.85417 -0.5625,-1.3125l0.55468,-0.15234c0.2474,0.42448 0.44402,0.85677 0.58985,1.29687zM365.3682,199.34939c-0.14583,-0.49219 -0.34635,-0.93489 -0.60156,-1.32812l0.57812,-0.14453c0.25261,0.38802 0.45573,0.82291 0.60938,1.30468zM369.60257,198.18142h0.86329v0.98438h2.45703v0.74219h-2.45703v0.92968h2.32031v0.73438h-2.32031v1.20703c0.92708,0.3125 1.84114,0.78255 2.74218,1.41016l-0.46093,0.74218c-0.68229,-0.51041 -1.44271,-0.96093 -2.28125,-1.35156c-0.0208,0.44531 -0.10674,0.79037 -0.25782,1.03516c-0.26302,0.42448 -0.78125,0.63672 -1.55468,0.63672c-0.59636,0 -1.07553,-0.11198 -1.4375,-0.33594c-0.40365,-0.25 -0.60547,-0.58854 -0.60547,-1.01563c0,-0.51041 0.27213,-0.88802 0.8164,-1.13281c0.36459,-0.16146 0.83855,-0.24219 1.42188,-0.24219c0.22917,0 0.48047,0.01823 0.7539,0.0547v-1.00781h-2.76953v-0.73438h2.76953v-0.92968h-2.9375v-0.74219h2.9375zM369.60257,203.30642c-0.30989,-0.06513 -0.60677,-0.0977 -0.89062,-0.0977c-0.34635,0 -0.6276,0.05078 -0.84375,0.15234c-0.25781,0.1224 -0.38672,0.29688 -0.38672,0.52344c0,0.19011 0.10026,0.34375 0.30078,0.46094c0.20313,0.11979 0.47396,0.17968 0.8125,0.17968c0.40104,0 0.67708,-0.10677 0.82813,-0.32031c0.11979,-0.16667 0.17968,-0.41536 0.17968,-0.74609zM377.89554,198.15799h0.87891v1.07812h2.30469v0.75391h-2.30469v1.67187c0.09115,0.32031 0.13672,0.60547 0.13672,0.85547c0,0.92709 -0.20443,1.60808 -0.61328,2.04297c-0.44531,0.47656 -1.11589,0.80599 -2.01172,0.98828l-0.44531,-0.66406c0.69531,-0.13281 1.21093,-0.32031 1.54687,-0.5625c0.31511,-0.22917 0.52735,-0.54036 0.63672,-0.93359c-0.27865,0.30469 -0.61068,0.45703 -0.99609,0.45703c-0.43229,0 -0.78256,-0.1224 -1.05079,-0.36719c-0.3151,-0.28906 -0.47265,-0.70833 -0.47265,-1.25781c0,-0.28907 0.06901,-0.56771 0.20703,-0.83594c0.09115,-0.17187 0.20313,-0.3151 0.33594,-0.42969c0.30729,-0.26041 0.67578,-0.39062 1.10547,-0.39062c0.27343,0 0.52083,0.0651 0.74218,0.19531v-0.76953h-3.85547v-0.75391h3.85547zM377.92674,202.21267v-0.14453c0,-0.16667 -0.03906,-0.3138 -0.11718,-0.4414c-0.14583,-0.23959 -0.35677,-0.35938 -0.63282,-0.35938c-0.14062,0 -0.27213,0.03906 -0.39453,0.11719c-0.28646,0.17969 -0.42969,0.45573 -0.42969,0.82812c0,0.23438 0.05208,0.4323 0.15625,0.59375c0.14583,0.22396 0.36068,0.33594 0.64454,0.33594c0.25781,0 0.46223,-0.11588 0.61328,-0.34765c0.10677,-0.16407 0.16015,-0.35808 0.16015,-0.58204z"/></g></g></g></svg>