<svg version="1.1" xmlns="http://www.w3.org/2000/svg" xmlns:xlink="http://www.w3.org/1999/xlink" width="168.1" height="32.667" viewBox="0,0,168.1,32.667"><g transform="translate(-240,-180)"><g data-paper-data="{&quot;isPaintingLayer&quot;:true}" stroke="none" stroke-linecap="butt" stroke-linejoin="miter" stroke-miterlimit="10" stroke-dasharray="" stroke-dashoffset="0" style="mix-blend-mode: normal"><path d="M248,180h152.1c4.432,0 8,3.568 8,8v16.667c0,4.432 -3.568,8 -8,8h-152.1c-4.432,0 -8,-3.568 -8,-8v-16.667c0,-4.432 3.568,-8 8,-8z" fill-opacity="0.7" fill="#000000" fill-rule="evenodd" stroke-width="0"/><g fill="#ffffff" fill-rule="nonzero" stroke-width="1"><path d="M252.5131,190.56465v0.76952h2.25368v0.70311h-2.25368v1.664h1.03955v-1.2891h0.8107v2.38672h-0.8107v-0.41796h-2.84331v0.41796h-0.8107v-2.38672h0.8107v1.2891h0.98526v-1.664h-2.14507v-0.70311h2.14507v-0.76952h-1.83864v-0.67968h3.06434c0.24825,-0.46875 0.48487,-1.03124 0.70985,-1.68749l0.77192,0.3125c-0.19136,0.4427 -0.42151,0.90104 -0.69045,1.375h0.72149v0.67968zM248.14923,188.63893v-1.44143h0.83397v1.44143h0.77192v0.77734h-0.77192v1.2617c0.19136,-0.06509 0.41376,-0.14712 0.66719,-0.24609l0.09696,0.73437c-0.29997,0.1276 -0.55469,0.23176 -0.76416,0.31249v2.59766c0,0.22916 -0.04137,0.39582 -0.12412,0.49999c-0.10603,0.13021 -0.3129,0.19531 -0.62063,0.19531c-0.27929,0 -0.53918,-0.02606 -0.77967,-0.07817l-0.15904,-0.8164c0.31032,0.0469 0.5353,0.07035 0.67494,0.07035c0.08017,0 0.1293,-0.01693 0.1474,-0.05078c0.01814,-0.02863 0.0272,-0.07811 0.0272,-0.14844v-1.96485c-0.26377,0.08854 -0.53142,0.17317 -0.80295,0.2539l-0.23662,-0.80468c0.43703,-0.11198 0.76545,-0.20182 0.98526,-0.26953c0.01807,-0.00535 0.03617,-0.01057 0.05431,-0.01565v-1.53124h-0.92707v-0.77734zM249.58837,187.64676c1.60848,-0.07292 3.03853,-0.22787 4.29013,-0.46484l0.52366,0.64843c-1.44041,0.25781 -2.94416,0.43359 -4.51126,0.52734zM250.48441,189.83811c-0.12929,-0.44792 -0.28574,-0.85286 -0.46935,-1.21484l0.71761,-0.24218c0.21722,0.42447 0.38143,0.8242 0.49263,1.19918zM251.92355,189.74829c-0.09826,-0.44531 -0.25212,-0.86066 -0.46159,-1.24605l0.72149,-0.24218c0.21463,0.38021 0.38143,0.80208 0.50038,1.26561z"/><path d="M256.76816,187.37352h0.85725v2.207c0.61546,-0.64322 1.10809,-1.08463 1.47791,-1.32422c0.34393,-0.22395 0.70081,-0.33593 1.07064,-0.33593c0.37238,0 0.67235,0.10547 0.89992,0.3164c0.29997,0.28125 0.44996,0.64973 0.44996,1.10546c0,0.11979 -0.01551,0.27864 -0.04654,0.47655c-0.22757,1.45574 -0.34135,2.46356 -0.34135,3.02345c0,0.23958 0.06077,0.35937 0.18231,0.35937c0.07758,0 0.17973,-0.04427 0.30644,-0.13281c0.26635,-0.1849 0.53529,-0.48828 0.80683,-0.91015l0.31807,0.89453c-0.16551,0.26562 -0.37109,0.5013 -0.61675,0.70703c-0.28446,0.23958 -0.58831,0.35936 -0.91156,0.35936c-0.30773,0 -0.54694,-0.10807 -0.71761,-0.32421c-0.14482,-0.18489 -0.21723,-0.49348 -0.21723,-0.92577c0,-0.32812 0.04267,-0.82161 0.12801,-1.48046c0.10861,-0.82809 0.18102,-1.44267 0.21722,-1.84373c0.00531,-0.06509 0.00797,-0.11978 0.00797,-0.16406c0,-0.22916 -0.04784,-0.40494 -0.14353,-0.52733c-0.09051,-0.11719 -0.21593,-0.17578 -0.37626,-0.17578c-0.54047,0 -1.37185,0.72526 -2.49414,2.17579v3.68746h-0.85725v-2.70313c-0.43186,0.60937 -0.8301,1.18488 -1.1947,1.72652l-0.40341,-0.92578c0.61287,-0.74741 1.1456,-1.45962 1.59819,-2.13665v-0.99218h-1.36152v-0.78515h1.36152z"/><path d="M263.76359,188.29674h2.09076c0.23015,-0.36979 0.40471,-0.66797 0.52366,-0.89453l0.86501,0.12501c-0.07758,0.14062 -0.21464,0.36979 -0.41118,0.68749l-0.05042,0.08199h2.73469v0.76951h-3.25058c-0.33876,0.46875 -0.66201,0.875 -0.96974,1.21875c0.48875,-0.29427 0.93482,-0.4414 1.3382,-0.4414c0.62581,0 1.0357,0.3164 1.22968,0.94921c0.66201,-0.22135 1.33694,-0.4401 2.02479,-0.65625l0.33359,0.75781l-0.13576,0.03904l-0.38401,0.10156c-0.72406,0.19792 -1.30332,0.36719 -1.7378,0.50781c0.03102,0.33853 0.05301,0.77603 0.06597,1.31248l-0.84949,0.04686c-0.00266,-0.30989 -0.00784,-0.64583 -0.01555,-1.00782v-0.07817c-1.18956,0.40885 -1.78433,0.82028 -1.78433,1.23431c0,0.21354 0.15257,0.35938 0.45772,0.4375c0.2948,0.07552 0.82235,0.11329 1.58264,0.11329c0.70081,0 1.43652,-0.04036 2.20715,-0.12109l0.09307,0.83202c-0.74737,0.05727 -1.52189,0.0859 -2.32354,0.0859c-0.98786,0 -1.68996,-0.07552 -2.1063,-0.22656c-0.51461,-0.1875 -0.77192,-0.52474 -0.77192,-1.01173c0,-0.41146 0.18231,-0.77472 0.54694,-1.0898c0.37755,-0.32552 1.04215,-0.66146 1.9938,-1.00782c-0.05175,-0.20052 -0.12028,-0.34114 -0.20559,-0.42187c-0.09568,-0.09114 -0.2224,-0.13672 -0.38014,-0.13672c-0.25601,0 -0.57796,0.09765 -0.96586,0.29296c-0.47841,0.23958 -0.99174,0.60024 -1.53999,1.08197l-0.5159,-0.59375c0.80424,-0.75262 1.43393,-1.4922 1.88907,-2.21874h-1.57875z"/><path d="M276.56861,192.4412c0.19654,0.33073 0.43057,0.60807 0.70209,0.83202c0.3517,0.28646 0.7978,0.53516 1.3383,0.74609l-0.46936,0.77733c-0.96455,-0.40364 -1.66794,-1.0807 -2.11019,-2.03118c-0.16809,0.49739 -0.43445,0.92448 -0.79907,1.28127c-0.32842,0.32031 -0.76934,0.59895 -1.32275,0.83593l-0.53918,-0.68749c0.63615,-0.20833 1.11843,-0.47786 1.44682,-0.80859c0.27669,-0.27865 0.48228,-0.59375 0.61675,-0.94531h-1.50113v-2.10153h1.64472v-0.65624h-0.84173v-0.34765c-0.27929,0.24479 -0.5896,0.45963 -0.93095,0.64452l-0.30643,-0.41405h-0.64391v0.66796c0.33876,0.28646 0.66588,0.60416 0.98137,0.95311l-0.41117,0.74218c-0.18619,-0.27343 -0.37626,-0.53645 -0.57021,-0.78905v3.65625h-0.7952v-3.50773c-0.25601,0.73958 -0.52883,1.36456 -0.81846,1.87494l-0.34135,-0.91405c0.47582,-0.80467 0.83785,-1.69919 1.08609,-2.68356h-0.9581v-0.76172h1.03178v-1.60931h0.7952v1.60931h0.69045v0.45703c0.8249,-0.48698 1.45459,-1.17578 1.88907,-2.06641h0.88052c0.39048,0.61197 0.88441,1.12369 1.4818,1.53515c0.2586,0.17708 0.55987,0.35417 0.90381,0.53125l-0.46936,0.67186c-0.35945,-0.19531 -0.69175,-0.40754 -0.9969,-0.63671v0.38672h-0.86889v0.65624h1.67571v2.10153zM275.59111,190.95682h-0.91156v0.85937h0.91156zM276.34752,190.95682v0.85937h0.93483v-0.85937zM275.0713,189.01153h1.81921c-0.36721,-0.32291 -0.69951,-0.70441 -0.9969,-1.14449c-0.21463,0.40885 -0.48874,0.79035 -0.82233,1.14449z"/><path d="M283.15547,189.84213h1.89295v-1.94528h0.865v2.7226h-2.75791v2.88667h2.13729v-1.80078h0.88053v3.08978h-0.88053v-0.49608h-5.09311v0.49608h-0.87276v-3.08978h0.87276v1.80078h2.09076v-2.88667h-2.70749v-2.7226h0.86501v1.94528h1.84253v-2.64844h0.865z"/><path d="M287.67959,187.52405h0.91544v4.65624c0,0.98176 0.51203,1.47264 1.5361,1.47264c0.67496,0 1.22835,-0.3138 1.66017,-0.9414c0.27929,-0.40364 0.53012,-1.02862 0.75252,-1.87494l0.78743,0.48047c-0.26377,0.94008 -0.58056,1.6432 -0.95035,2.10936c-0.58184,0.72653 -1.33825,1.0898 -2.26923,1.0898c-0.97232,0 -1.65761,-0.30208 -2.05588,-0.90624c-0.25085,-0.3776 -0.37627,-0.86457 -0.37627,-1.4609z"/><path d="M294.13691,188.58776h1.81144c0.07241,-0.32291 0.15386,-0.74087 0.24437,-1.25387l0.87665,0.10937c-0.07758,0.40364 -0.16033,0.78514 -0.24826,1.14449h2.58343v0.77733h-2.76569c-0.5172,2.08072 -1.08869,3.80597 -1.71448,5.17575l-0.85725,-0.30468c0.68014,-1.51823 1.24649,-3.14193 1.69903,-4.87109h-1.62918zM301.00269,194.3338c-0.41893,0.05466 -0.88958,0.08199 -1.41194,0.08199c-0.84563,0 -1.48435,-0.07291 -1.91617,-0.21874c-0.16551,-0.05727 -0.30644,-0.13799 -0.4228,-0.24218c-0.22757,-0.20833 -0.34135,-0.47396 -0.34135,-0.79687c0,-0.33073 0.10602,-0.62239 0.31807,-0.87499l0.69045,0.41015c-0.08017,0.10156 -0.12025,0.21354 -0.12025,0.33593c0,0.21094 0.09568,0.34765 0.28704,0.41015c0.29222,0.09375 0.70856,0.14063 1.24901,0.14063c0.52495,0 1.04861,-0.03906 1.57098,-0.11719zM297.36427,190.46269c1.01371,-0.11719 2.12308,-0.17969 3.32811,-0.18749l0.03876,0.79296c-1.18178,0.00535 -2.26661,0.06134 -3.25447,0.16797z"/><path d="M304.42079,188.4272c0.10861,0.16666 0.203,0.32421 0.28317,0.47265l-0.77967,0.25391c-0.09827,-0.26041 -0.21464,-0.5026 -0.3491,-0.72655h-0.43057c-0.21463,0.29427 -0.44996,0.55598 -0.70597,0.78515l-0.65166,-0.48828c0.51202,-0.41406 0.90378,-0.9427 1.17527,-1.58593l0.83398,0.14453c-0.0931,0.20572 -0.17714,0.3763 -0.25213,0.51171h1.80367v0.63281zM307.65582,188.4272c0.12413,0.17187 0.22757,0.33202 0.31032,0.48046l-0.74476,0.26172c-0.11378,-0.23177 -0.25472,-0.47916 -0.4228,-0.74218h-0.44996c-0.19912,0.32812 -0.39824,0.60285 -0.59736,0.8242l-0.64391,-0.43359c0.44738,-0.47656 0.77321,-1.03122 0.9775,-1.664l0.80295,0.12891c-0.05946,0.15885 -0.13057,0.32943 -0.21334,0.51171h2.54068v0.63281zM303.43943,190.49752v-0.33203h-1.5671v-0.57421h1.5671v-0.39844h0.74864v0.39844h1.55544v0.57421h-1.55544v0.33203h1.32664v2.40619h-1.32664v0.375h1.60586v0.60937h-1.60586v0.90624h-0.74864v-0.90624h-1.66794v-0.60937h1.66794v-0.375h-1.3111v-2.40619zM303.46265,191.00141h-0.66718v0.4375h0.66718zM304.16474,191.00141v0.4375h0.66719v-0.4375zM303.46265,191.91938h-0.66718v0.45702h0.66718zM304.16474,191.91938v0.45702h0.66719v-0.45702zM306.75973,190.12642v3.52339c0,0.14843 0.03491,0.23567 0.10473,0.26171c0.08534,0.03124 0.3323,0.04686 0.74089,0.04686c0.44478,0 0.70597,-0.01823 0.78355,-0.05469c0.08017,-0.03907 0.13447,-0.14975 0.16292,-0.33203c0.02584,-0.16406 0.04006,-0.38671 0.04265,-0.66796l0.81846,0.20703c-0.02843,0.48177 -0.06205,0.80338 -0.10085,0.96484c-0.06982,0.29687 -0.2586,0.48046 -0.56633,0.55077c-0.23274,0.05466 -0.60769,0.08199 -1.12485,0.08199c-0.70599,0 -1.1482,-0.03516 -1.32664,-0.10547c-0.21463,-0.08594 -0.32195,-0.3138 -0.32195,-0.68359v-4.48043h2.91695v2.66399c0,0.23177 -0.05172,0.39973 -0.15517,0.5039c-0.09827,0.09636 -0.27023,0.14453 -0.5159,0.14453c-0.32066,0 -0.62969,-0.02084 -0.92707,-0.06252l-0.12801,-0.74609c0.07241,0.01044 0.16939,0.02475 0.29093,0.04295c0.17067,0.02602 0.32195,0.03904 0.45384,0.03904c0.09568,0 0.15257,-0.02606 0.17067,-0.07817c0.01036,-0.03385 0.01555,-0.08594 0.01555,-0.15625v-1.664z"/><path d="M312.1337,189.41063v-0.97656h0.78743v0.97656h1.15594v-0.97656h0.78742v0.97656h0.88829v0.66406h-0.88829v1.06642h1.0822v0.67968h-1.0822v1.56636h-0.78742v-1.56636h-1.22579c-0.05175,0.32552 -0.14226,0.61458 -0.27153,0.86718c-0.16291,0.3177 -0.41505,0.59634 -0.7564,0.83593l-0.60124,-0.5664c0.42927,-0.26823 0.70209,-0.64715 0.81847,-1.13676h-0.9775v-0.67968h1.06675c0.00266,-0.06771 0.00399,-0.13672 0.00399,-0.20703v-0.85936h-0.9038v-0.66406zM314.07707,190.07468h-1.15594v0.77733c0,0.07291 -0.00133,0.16927 -0.00399,0.28906h1.15983zM316.97081,187.50833v7.2812h-0.83398v-0.46484h-5.28314v0.47265h-0.83398v-7.28902zM310.85369,188.21145v5.37886h5.28314v-5.37886z"/><path d="M318.34189,188.29674h2.09076c0.23015,-0.36979 0.40471,-0.66797 0.52366,-0.89453l0.86501,0.12501c-0.07758,0.14062 -0.21464,0.36979 -0.41117,0.68749l-0.05042,0.08199h2.73469v0.76951h-3.25058c-0.33876,0.46875 -0.66201,0.875 -0.96974,1.21875c0.48875,-0.29427 0.93482,-0.4414 1.3382,-0.4414c0.62581,0 1.0357,0.3164 1.22968,0.94921c0.66201,-0.22135 1.33694,-0.4401 2.02479,-0.65625l0.33359,0.75781l-0.13576,0.03904l-0.38402,0.10156c-0.72406,0.19792 -1.30332,0.36719 -1.7378,0.50781c0.03102,0.33853 0.05301,0.77603 0.06597,1.31248l-0.8495,0.04686c-0.00266,-0.30989 -0.00784,-0.64583 -0.01555,-1.00782v-0.07817c-1.18956,0.40885 -1.78433,0.82028 -1.78433,1.23431c0,0.21354 0.15257,0.35938 0.45771,0.4375c0.2948,0.07552 0.82235,0.11329 1.58264,0.11329c0.70081,0 1.43652,-0.04036 2.20715,-0.12109l0.09307,0.83202c-0.74738,0.05727 -1.52189,0.0859 -2.32354,0.0859c-0.98786,0 -1.68996,-0.07552 -2.1063,-0.22656c-0.51461,-0.1875 -0.77192,-0.52474 -0.77192,-1.01173c0,-0.41146 0.18231,-0.77472 0.54694,-1.0898c0.37755,-0.32552 1.04215,-0.66146 1.9938,-1.00782c-0.05175,-0.20052 -0.12028,-0.34114 -0.20559,-0.42187c-0.09568,-0.09114 -0.22239,-0.13672 -0.38013,-0.13672c-0.25601,0 -0.57797,0.09765 -0.96587,0.29296c-0.47841,0.23958 -0.99174,0.60024 -1.53999,1.08197l-0.51591,-0.59375c0.80424,-0.75262 1.43393,-1.4922 1.88907,-2.21874h-1.57875z"/><path d="M327.56948,194.66897c-0.47841,-0.70312 -1.01887,-1.35416 -1.62141,-1.95311l0.62839,-0.55859c0.6258,0.59896 1.1766,1.23568 1.6524,1.91016z"/><path d="M333.70792,188.2566v-0.33594h-2.42438v-0.55859h5.72539v0.55859h-2.47481v0.33594h3.21182v1.40229h-0.84173v-0.89843h-2.37008v1.5195h-0.82622v-1.5195h-2.32743v0.89843h-0.83397v-1.40229zM336.45427,193.79953c0.39565,0.15104 0.88958,0.27083 1.4818,0.35937l-0.45385,0.66406c-0.83008,-0.14323 -1.51149,-0.38932 -2.04422,-0.73827c-0.53012,-0.34896 -0.94258,-0.78254 -1.23735,-1.30074h-0.85725v1.2031c0.5715,-0.08073 1.10164,-0.16666 1.59041,-0.25781l0.05431,0.58203c-0.91027,0.21875 -1.95111,0.40885 -3.12253,0.57031l-0.22887,-0.6875c0.406,-0.04429 0.68399,-0.07553 0.83398,-0.09373l0.04654,-0.00803v-1.30856h-0.8495c-0.03621,0.45833 -0.09568,0.8242 -0.17842,1.09763c-0.09827,0.32812 -0.25601,0.63411 -0.47324,0.91796l-0.69045,-0.57421c0.25342,-0.33073 0.41117,-0.71744 0.47324,-1.16015c0.03362,-0.23958 0.05042,-0.53776 0.05042,-0.89452v-1.65628h6.69508v0.51953h-5.86111v1.19918h6.19474v0.55078h-0.88053l0.49263,0.32811c-0.29221,0.24479 -0.63743,0.47396 -1.03566,0.6875zM335.84915,193.49875c0.37239,-0.2552 0.66848,-0.49348 0.88829,-0.71483h-1.69515c0.22239,0.28645 0.49133,0.52473 0.80682,0.71483zM331.72195,189.04954h1.6524v0.4414h-1.6524zM331.72195,189.76828h1.6524v0.44922h-1.6524zM334.8678,189.04954h1.70282v0.4414h-1.70282zM334.8678,189.76828h1.70282v0.44922h-1.70282zM332.14476,191.36204h4.82934v0.51171h-4.82934z"/><path d="M342.8259,191.84913c0.29739,0.49218 0.69303,0.91536 1.18693,1.26953c0.4603,0.32812 1.06156,0.59764 1.80376,0.80858l-0.48875,0.80859c-1.48439,-0.48437 -2.54204,-1.31901 -3.17296,-2.50393c-0.19653,0.52083 -0.51202,0.99609 -0.94647,1.42577c-0.34393,0.34114 -0.75638,0.61196 -1.23735,0.81248c-0.2767,0.11198 -0.6271,0.22527 -1.05121,0.33985l-0.46935,-0.73046c0.89991,-0.1875 1.63044,-0.54689 2.1916,-1.07816c0.35687,-0.34114 0.63227,-0.72525 0.82622,-1.15232h-3.14585v-0.77734h0.91543v-2.56635h2.41273v-1.30465h0.84173v1.30465h2.46315v2.56635h0.91543v0.77734zM341.65062,189.2593h-1.57098v1.81252h1.57098zM342.49236,189.2593v1.81252h1.62141v-1.81252z"/><path d="M352.91048,194.22743c-0.76544,0.08073 -1.55677,0.12109 -2.37396,0.12109c-1.20503,0 -2.04937,-0.07682 -2.533,-0.23047c-0.35169,-0.11198 -0.62968,-0.27864 -0.83397,-0.49999c-0.23533,-0.25781 -0.35299,-0.5716 -0.35299,-0.94139c0,-0.48698 0.1655,-0.92447 0.49651,-1.31248c0.28187,-0.33073 0.73571,-0.65885 1.36152,-0.98436c-0.35687,-0.80728 -0.68011,-1.72656 -0.96974,-2.75782l0.86501,-0.22656c0.26894,0.98958 0.5534,1.86457 0.85337,2.62496c0.99557,-0.46093 2.05193,-0.84504 3.16907,-1.15232l0.2599,0.79296c-1.22576,0.3125 -2.44375,0.75651 -3.65397,1.33205c-0.37496,0.17969 -0.64132,0.32682 -0.79906,0.44141c-0.46289,0.34114 -0.69434,0.72002 -0.69434,1.13666c0,0.36198 0.21464,0.61458 0.64391,0.7578c0.35687,0.11719 0.99559,0.17578 1.91617,0.17578c0.85081,0 1.70289,-0.04948 2.55622,-0.14844z"/><path d="M360.733,187.52405v3.65625h-6.16365v-3.65625zM355.40332,188.1881v0.84765h1.82698v-0.84765zM355.40332,189.66856v0.87108h1.82698v-0.87108zM359.89903,190.53964v-0.87108h-1.87352v0.87108zM359.89903,189.0358v-0.84765h-1.87352v0.84765zM353.90986,194.02791c0.31032,-0.52603 0.55598,-1.22006 0.737,-2.08206l0.79519,0.23438c-0.12154,0.91666 -0.37497,1.70832 -0.76028,2.37498zM356.04716,191.94585h0.85726v1.56636c0,0.12761 0.0194,0.20833 0.0582,0.24218c0.06723,0.06248 0.36591,0.09373 0.89603,0.09373c0.4241,0 0.70986,-0.01693 0.85726,-0.05078c0.10344,-0.02341 0.17196,-0.10284 0.20558,-0.23828c0.0388,-0.15104 0.06594,-0.38802 0.08141,-0.71093l0.82622,0.21094c-0.02066,0.6276 -0.09824,1.04295 -0.23274,1.24605c-0.1112,0.16666 -0.31032,0.26562 -0.59736,0.29687c-0.27669,0.02863 -0.68526,0.04295 -1.2257,0.04295c-0.7396,0 -1.21543,-0.04817 -1.42749,-0.14452c-0.19912,-0.08854 -0.29868,-0.28646 -0.29868,-0.59375zM358.13791,193.06696c-0.38272,-0.65364 -0.72794,-1.14452 -1.03566,-1.47264l0.65942,-0.38281c0.37238,0.36198 0.7357,0.83202 1.08997,1.41012zM360.74067,194.26614c-0.36721,-0.88542 -0.76415,-1.61068 -1.19082,-2.17579l0.67494,-0.42187c0.47065,0.60156 0.89991,1.29685 1.28778,2.08588z"/><path d="M363.53317,187.37352h0.85725v2.0078c0.79388,-0.70312 1.60071,-1.05468 2.4205,-1.05468c0.6646,0 1.22188,0.22786 1.67183,0.68358c0.16551,0.16666 0.30774,0.37369 0.42669,0.62109c0.2017,0.42447 0.30256,0.87628 0.30256,1.35543c0,1.16145 -0.34393,1.98827 -1.03178,2.48045c-0.4603,0.32812 -1.11713,0.5638 -1.97048,0.70703l-0.41505,-0.79297c0.79129,-0.11198 1.37185,-0.28775 1.74168,-0.52733c0.30256,-0.19792 0.51719,-0.46224 0.64391,-0.79297c0.10603,-0.28645 0.15904,-0.64453 0.15904,-1.07425c0,-0.52343 -0.14223,-0.97655 -0.42669,-1.35934c-0.25084,-0.33333 -0.62194,-0.49999 -1.11329,-0.49999c-0.49393,0 -0.94388,0.13932 -1.34986,0.41796c-0.31549,0.21615 -0.66849,0.52995 -1.05898,0.9414v4.05464h-0.85725v-3.01562c-0.32584,0.42968 -0.74217,1 -1.24901,1.71097l-0.41118,-0.94139c0.63357,-0.71356 1.18696,-1.42059 1.66017,-2.1211v-0.66406h-1.43915v-0.78515h1.43915z"/><path d="M371.39555,187.37352h0.85725v2.207c0.61546,-0.64322 1.1081,-1.08463 1.47791,-1.32422c0.34393,-0.22395 0.70081,-0.33593 1.07064,-0.33593c0.37239,0 0.67236,0.10547 0.89992,0.3164c0.29997,0.28125 0.44996,0.64973 0.44996,1.10546c0,0.11979 -0.01551,0.27864 -0.04654,0.47655c-0.22756,1.45574 -0.34134,2.46356 -0.34134,3.02345c0,0.23958 0.06077,0.35937 0.18231,0.35937c0.07757,0 0.17972,-0.04427 0.30643,-0.13281c0.26636,-0.1849 0.5353,-0.48828 0.80683,-0.91015l0.31807,0.89453c-0.1655,0.26562 -0.37108,0.5013 -0.61675,0.70703c-0.28445,0.23958 -0.58831,0.35936 -0.91156,0.35936c-0.30773,0 -0.54694,-0.10807 -0.71761,-0.32421c-0.14481,-0.18489 -0.21722,-0.49348 -0.21722,-0.92577c0,-0.32812 0.04267,-0.82161 0.128,-1.48046c0.10861,-0.82809 0.18102,-1.44267 0.21723,-1.84373c0.00531,-0.06509 0.00797,-0.11978 0.00797,-0.16406c0,-0.22916 -0.04784,-0.40494 -0.14352,-0.52733c-0.09051,-0.11719 -0.21593,-0.17578 -0.37626,-0.17578c-0.54047,0 -1.37185,0.72526 -2.49414,2.17579v3.68746h-0.85725v-2.70313c-0.43186,0.60937 -0.83009,1.18488 -1.1947,1.72652l-0.40341,-0.92578c0.61288,-0.74741 1.14561,-1.45962 1.59819,-2.13665v-0.99218h-1.36152v-0.78515h1.36152z"/><path d="M378.82944,187.63443h4.35221l0.41505,0.64842c-1.34474,0.82809 -2.50972,1.58068 -3.49492,2.25777c0.63615,-0.26823 1.27487,-0.40234 1.91617,-0.40234c0.57667,0 1.05765,0.09245 1.44293,0.27735c0.35686,0.17187 0.63485,0.40624 0.83397,0.70311c0.20688,0.31511 0.31032,0.67707 0.31032,1.08589c0,0.57291 -0.19395,1.05208 -0.58185,1.43751c-0.26635,0.26822 -0.60769,0.47134 -1.024,0.60937c-0.54564,0.17969 -1.14301,0.26953 -1.79211,0.26953c-0.74738,0 -1.29817,-0.13932 -1.6524,-0.41797c-0.2767,-0.21875 -0.41505,-0.51432 -0.41505,-0.88671c0,-0.28125 0.10086,-0.53124 0.30257,-0.74999c0.30514,-0.33073 0.71759,-0.49609 1.23735,-0.49609c0.55081,0 0.99173,0.1862 1.32275,0.55859c0.2405,0.27083 0.41376,0.6341 0.51978,1.0898c0.79647,-0.2552 1.1947,-0.72655 1.1947,-1.41403c0,-0.52082 -0.21593,-0.90493 -0.64778,-1.15232c-0.28963,-0.16667 -0.65684,-0.25 -1.10163,-0.25c-0.6646,0 -1.26456,0.09245 -1.79988,0.27735c-0.39566,0.13541 -0.92706,0.46223 -1.5942,0.98046l-0.54694,-0.66406c0.71888,-0.62499 1.53733,-1.2591 2.45538,-1.90233c0.63356,-0.4427 1.19213,-0.80597 1.67571,-1.0898h-3.32811zM381.76971,193.77103c-0.1836,-0.73697 -0.54433,-1.10546 -1.0822,-1.10546c-0.29739,0 -0.51202,0.09505 -0.64391,0.28515c-0.06205,0.08593 -0.09307,0.17838 -0.09307,0.27734c0,0.20573 0.14481,0.36068 0.43444,0.46484c0.20946,0.07291 0.49004,0.10937 0.84173,0.10937c0.14999,0 0.331,-0.0104 0.54305,-0.03121z"/><path d="M387.29969,189.11961v5.67961h-0.82622v-4.05464c-0.19395,0.3177 -0.41893,0.64582 -0.67494,0.98436l-0.3879,-0.86717c0.43186,-0.58594 0.80295,-1.26822 1.11329,-2.04684c0.19136,-0.48177 0.38143,-1.05467 0.57021,-1.71869l0.83398,0.23046c-0.19395,0.65625 -0.40342,1.2539 -0.62839,1.79295zM390.67822,188.69383h2.20715v0.78515h-5.13188v-0.78515h2.09076v-1.49612h0.83398zM390.51918,193.67812l0.06985,-0.26562c0.25342,-0.94791 0.51073,-2.19007 0.77192,-3.7265l0.84949,0.18359c-0.24308,1.3958 -0.54305,2.66533 -0.89992,3.80858h1.7649v0.78515h-5.4655v-0.78515zM388.87456,193.27578c-0.16809,-1.30207 -0.35557,-2.38151 -0.56245,-3.23829l0.80683,-0.23828c0.26894,1.11716 0.46806,2.19399 0.59736,3.23047z"/><path d="M397.8327,189.04937c-0.02066,0.13542 -0.04395,0.26563 -0.06985,0.39062h3.23504v0.60937h-3.38631c-0.00531,0.0182 -0.01305,0.04683 -0.02322,0.0859c-0.01036,0.03646 -0.0375,0.12761 -0.08141,0.27343h2.4205v3.0976h-4.41818v-3.0976h1.13262c0.03102,-0.11458 0.06205,-0.23437 0.09307,-0.35937h-3.28157v-0.60937h3.41351c0.01295,-0.06771 0.03624,-0.19792 0.06985,-0.39062h-2.81611v-1.67966h6.33047v1.67966zM394.92351,187.92825v0.60156h1.08609v-0.60156zM399.64812,188.52981v-0.60156h-1.11329v0.60156zM396.72339,187.92825v0.60156h1.08997v-0.60156zM396.34326,190.94387v0.33593h2.72692v-0.33593zM396.34326,191.76027v0.34375h2.72692v-0.34375zM396.34326,192.59229v0.37109h2.72692v-0.37109zM394.83436,193.85008h6.16365v0.64062h-6.16365v0.31249h-0.87276v-4.15228h0.87276z"/><path d="M247.86941,199.0944h2.09076c0.23015,-0.36978 0.40471,-0.66796 0.52366,-0.89452l0.86501,0.125c-0.07758,0.14062 -0.21464,0.36979 -0.41118,0.6875l-0.05042,0.08199h2.73469v0.76952h-3.25058c-0.33876,0.46875 -0.662,0.875 -0.96973,1.21875c0.48875,-0.29427 0.93482,-0.4414 1.3382,-0.4414c0.62581,0 1.0357,0.3164 1.22968,0.94921c0.66201,-0.22135 1.33694,-0.4401 2.02479,-0.65625l0.33359,0.7578l-0.13576,0.03904l-0.38401,0.10156c-0.72406,0.19791 -1.30332,0.36718 -1.7378,0.5078c0.03102,0.33854 0.05301,0.77603 0.06597,1.31248l-0.84949,0.04686c-0.00266,-0.30989 -0.00784,-0.64583 -0.01555,-1.00782v-0.07817c-1.18956,0.40885 -1.78433,0.82032 -1.78433,1.23441c0,0.21354 0.15257,0.35937 0.45772,0.4375c0.2948,0.07552 0.82235,0.11329 1.58264,0.11329c0.70081,0 1.43652,-0.04036 2.20715,-0.12109l0.09307,0.83202c-0.74738,0.05727 -1.52189,0.0859 -2.32354,0.0859c-0.98786,0 -1.68996,-0.07552 -2.1063,-0.22656c-0.51461,-0.18749 -0.77192,-0.52474 -0.77192,-1.01173c0,-0.41145 0.18231,-0.77472 0.54694,-1.0898c0.37755,-0.32552 1.04215,-0.66145 1.9938,-1.00782c-0.05175,-0.20051 -0.12028,-0.34113 -0.20559,-0.42186c-0.09568,-0.09115 -0.2224,-0.13673 -0.38014,-0.13673c-0.25601,0 -0.57796,0.09766 -0.96586,0.29297c-0.47841,0.23958 -0.99174,0.60024 -1.53999,1.08197l-0.5159,-0.59375c0.80424,-0.75262 1.43393,-1.4922 1.88907,-2.21874h-1.57875z"/><path d="M258.45224,199.43559v-1.4336h0.87276v1.4336h2.87819v4.13281h-0.85725v-0.54296h-2.0209v2.57809h-0.87276v-2.57809h-1.97048v0.58593h-0.85725v-4.17576zM256.48176,200.23636v1.98823h1.97048v-1.98823zM261.34598,202.2246v-1.98823h-2.0209v1.98823z"/><path d="M262.96639,204.02159c0.42668,-0.78126 0.74734,-1.83202 0.96198,-3.15229l0.87276,0.17577c-0.21722,1.47133 -0.54823,2.63148 -0.99301,3.48044zM265.3248,199.93573h0.88828v4.16011c0,0.17968 0.05043,0.28384 0.15128,0.31249c0.10344,0.02863 0.33877,0.04295 0.70597,0.04295c0.33876,0 0.55728,-0.02606 0.65555,-0.07817c0.1112,-0.05466 0.17714,-0.18226 0.19783,-0.38281c0.02066,-0.1849 0.03876,-0.60286 0.05431,-1.25387l0.91931,0.29688c-0.04398,0.80728 -0.09053,1.31639 -0.13964,1.52733c-0.09051,0.36458 -0.29609,0.58854 -0.61675,0.67187c-0.21981,0.05466 -0.64777,0.08199 -1.28389,0.08199c-0.46547,0 -0.78225,-0.01562 -0.95034,-0.04686c-0.27412,-0.0469 -0.44867,-0.1719 -0.52366,-0.375c-0.0388,-0.10677 -0.0582,-0.2552 -0.0582,-0.4453zM267.71032,200.06855c-0.62581,-0.50781 -1.40162,-0.96092 -2.32743,-1.35934l0.55469,-0.6875c0.8249,0.32291 1.60586,0.7578 2.34287,1.30465zM269.82051,204.14276c-0.47065,-1.3281 -0.94129,-2.37886 -1.41194,-3.15229l0.79519,-0.38282c0.59736,0.93747 1.0874,1.94268 1.47014,3.01562z"/><path d="M271.71566,205.26593c-0.09827,-0.88542 -0.1474,-1.76562 -0.1474,-2.64061c0,-1.49996 0.1099,-2.92443 0.32971,-4.2734l0.85337,0.08981c-0.20946,1.16667 -0.3142,2.48306 -0.3142,3.94917c0,0.98437 0.05431,1.90494 0.16292,2.76173zM274.04308,199.07844h3.72771v0.83202h-3.72771zM278.03456,204.78545c-0.51719,0.08073 -1.13137,0.12109 -1.84253,0.12109c-1.78692,0 -2.68039,-0.52864 -2.68039,-1.58593c0,-0.41927 0.1112,-0.78515 0.33359,-1.09763l0.73313,0.32812c-0.13964,0.19792 -0.20946,0.42057 -0.20946,0.66796c0,0.30469 0.15128,0.51432 0.45384,0.6289c0.33618,0.13021 0.7952,0.19531 1.37706,0.19531c0.62839,0 1.21025,-0.04167 1.74557,-0.125z"/><path d="M286.01543,198.39195v6.25773c0,0.30989 -0.08146,0.52603 -0.24437,0.64842c-0.13188,0.10157 -0.35298,0.15235 -0.6633,0.15235c-0.49393,0 -0.95683,-0.01953 -1.38872,-0.0586l-0.17456,-0.85546c0.51203,0.05988 0.94517,0.08981 1.29944,0.08981c0.12671,0 0.20817,-0.02214 0.24437,-0.06643c0.02584,-0.03385 0.03876,-0.08984 0.03876,-0.16798v-2.23048h-4.90298v3.34366h-0.88828v-7.11321zM280.22417,199.15366v2.24603h2.00157v-2.24603zM285.12715,201.39969v-2.24603h-2.05977v2.24603z"/><path d="M287.10162,198.94388c2.37911,-0.03646 4.62761,-0.09766 6.74551,-0.18359l0.04654,0.77734c-0.93352,0.0469 -1.66017,0.19012 -2.17994,0.42968c-0.4965,0.22917 -0.89474,0.54687 -1.1947,0.95311c-0.34135,0.46093 -0.51203,0.97396 -0.51203,1.53907c0,0.5625 0.19395,0.98437 0.58185,1.26561c0.44479,0.32031 1.12749,0.54036 2.04811,0.66015l-0.18231,0.8789c-1.19992,-0.16146 -2.04425,-0.47395 -2.533,-0.93749c-0.52496,-0.49479 -0.78743,-1.10936 -0.78743,-1.84373c0,-0.66666 0.23791,-1.28906 0.71373,-1.86721c0.34652,-0.42447 0.82105,-0.76563 1.4236,-1.02347c-1.06798,0.03646 -2.44501,0.09766 -4.13109,0.1836zM292.74161,202.31493c-0.15257,-0.40885 -0.40988,-0.8724 -0.77192,-1.39065l0.60512,-0.22656c0.32324,0.44791 0.58314,0.90624 0.77967,1.375zM293.78893,201.90478c-0.18361,-0.47916 -0.43962,-0.94532 -0.76804,-1.39848l0.57797,-0.20703c0.30256,0.36979 0.55986,0.81769 0.77192,1.34369z"/><path d="M299.69738,203.96138l0.05431,0.69922c-1.12232,0.39843 -2.37008,0.72655 -3.74325,0.98436l-0.28704,-0.78124c0.23791,-0.03646 0.5741,-0.09505 1.00856,-0.17577v-1.42969c-0.44737,0.22917 -0.98006,0.44661 -1.59809,0.65234l-0.44221,-0.69531c1.24383,-0.33854 2.1929,-0.77082 2.8472,-1.29682h-2.76957v-0.67968h3.32432v-0.58984h-2.51357v-0.65624h2.51357v-0.55078h-2.90918v-0.67186h2.90918v-0.76952h0.8495v0.76952h2.99458v0.67186h-2.99458v0.55078h2.59887v0.65624h-2.59887v0.58984h3.40962v0.67968h-0.92707l0.57409,0.39843c-0.35428,0.34635 -0.85081,0.72528 -1.48957,1.13676l-0.08919,0.0586c0.48617,0.44791 1.14558,0.8177 1.97825,1.10937l-0.52366,0.79297c-0.9025,-0.38542 -1.62785,-0.86977 -2.17606,-1.45307zM298.5221,201.93019c-0.2586,0.30468 -0.57021,0.57812 -0.93484,0.8203v1.75392c0.63874,-0.14323 1.28005,-0.30989 1.92394,-0.49999l0.17843,-0.05078c-0.53012,-0.59114 -0.91932,-1.26563 -1.1676,-2.02346zM299.93793,202.99661c0.4603,-0.33073 0.86372,-0.69011 1.21025,-1.07816h-1.83476c0.1655,0.39844 0.37367,0.75782 0.62451,1.07816z"/><path d="M306.97183,201.32217v3.46478c0,0.3151 -0.06336,0.52994 -0.19007,0.64452c-0.11896,0.10417 -0.34911,0.15625 -0.69045,0.15625c-0.3879,0 -0.7564,-0.02475 -1.10552,-0.07426l-0.16679,-0.82421c0.36204,0.05988 0.70855,0.08981 1.03955,0.08981c0.1112,0 0.18102,-0.01953 0.20946,-0.0586c0.02066,-0.03385 0.03099,-0.08984 0.03099,-0.16797v-3.23047h-3.33588v-0.77733h7.47475v0.77733zM303.69414,198.42767h5.609v0.76952h-5.609zM302.71664,204.41977c0.55857,-0.58853 1.00852,-1.37106 1.34986,-2.34759l0.80294,0.30468c-0.39565,1.11716 -0.89344,1.99476 -1.49335,2.63278zM309.37296,204.89634c-0.5353,-1.14065 -1.00077,-1.97529 -1.3964,-2.50393l0.72924,-0.4375c0.56892,0.73697 1.05378,1.53903 1.45459,2.40619z"/><path d="M311.43615,198.32171h0.91543v4.65624c0,0.98176 0.51203,1.47264 1.5361,1.47264c0.67496,0 1.22835,-0.3138 1.66017,-0.94139c0.27929,-0.40364 0.53012,-1.02862 0.75252,-1.87494l0.78743,0.48047c-0.26377,0.94008 -0.58056,1.6432 -0.95035,2.10936c-0.58184,0.72653 -1.33825,1.0898 -2.26923,1.0898c-0.97232,0 -1.65761,-0.30208 -2.05588,-0.90625c-0.25084,-0.3776 -0.37626,-0.86456 -0.37626,-1.4609z"/><path d="M321.00255,198.18122h0.85725v0.98436h2.43983v0.74218h-2.43983v0.92968h2.30411v0.73436h-2.30411v1.20701c0.92063,0.3125 1.82831,0.78254 2.72304,1.41012l-0.45772,0.74218c-0.67755,-0.51041 -1.43267,-0.96092 -2.26534,-1.35151c-0.02066,0.44531 -0.106,0.79035 -0.25601,1.03511c-0.26118,0.42447 -0.77578,0.63671 -1.54378,0.63671c-0.59219,0 -1.06802,-0.11198 -1.42749,-0.33593c-0.40083,-0.25 -0.60124,-0.58855 -0.60124,-1.01564c0,-0.51041 0.27023,-0.888 0.8107,-1.13275c0.36204,-0.16146 0.83268,-0.24219 1.41194,-0.24219c0.22757,0 0.47711,0.01823 0.74864,0.05469v-1.00782h-2.75014v-0.73436h2.75014v-0.92968h-2.91695v-0.74218h2.91695zM321.00255,203.30619c-0.30773,-0.06509 -0.60253,-0.09764 -0.8844,-0.09764c-0.34394,0 -0.62322,0.05078 -0.83786,0.15234c-0.25601,0.12239 -0.38402,0.29687 -0.38402,0.52344c0,0.1901 0.09956,0.34374 0.29868,0.46093c0.2017,0.11979 0.47065,0.17969 0.80683,0.17969c0.39824,0 0.67236,-0.10677 0.82234,-0.32031c0.11896,-0.16667 0.17843,-0.41537 0.17843,-0.74609z"/><path d="M329.23364,198.16115h0.87276v1.07816h2.28856v0.7539h-2.28856v1.67183c0.09051,0.32031 0.13576,0.60547 0.13576,0.85546c0,0.9271 -0.203,1.60808 -0.60899,2.04293c-0.44221,0.47656 -1.1081,0.80599 -1.99768,0.98828l-0.4422,-0.66406c0.69044,-0.13281 1.20248,-0.32031 1.5361,-0.56249c0.31291,-0.22917 0.52366,-0.54036 0.63227,-0.93359c-0.27669,0.30468 -0.60641,0.45702 -0.98914,0.45702c-0.42927,0 -0.77708,-0.12239 -1.04344,-0.36718c-0.3129,-0.28906 -0.46935,-0.70832 -0.46935,-1.25779c0,-0.28905 0.06853,-0.5677 0.20558,-0.83593c0.09051,-0.17187 0.2017,-0.3151 0.33359,-0.42969c0.30515,-0.26041 0.67106,-0.39061 1.09774,-0.39061c0.27153,0 0.51719,0.0651 0.737,0.1953v-0.76951h-3.82855v-0.7539h3.82855zM329.26463,202.21579v-0.14453c0,-0.16666 -0.03879,-0.31379 -0.11637,-0.4414c-0.14481,-0.23958 -0.35428,-0.35937 -0.62839,-0.35937c-0.13964,0 -0.27023,0.03906 -0.39177,0.11719c-0.28445,0.17969 -0.42668,0.45573 -0.42668,0.82812c0,0.23437 0.05172,0.43228 0.15516,0.59374c0.14482,0.22395 0.35816,0.33593 0.64003,0.33593c0.25601,0 0.459,-0.11588 0.60899,-0.34765c0.10603,-0.16406 0.15904,-0.35807 0.15904,-0.58202z"/></g></g></g></svg>