<svg xmlns="http://www.w3.org/2000/svg" viewBox="0 0 180 40" version="1.1" height="40" width="180">
 <path style="paint-order:stroke markers fill" stroke-width=".2" stroke-linejoin="round" stroke-linecap="round" stop-color="#000000" fill-opacity="0" fill="none" d="m0 0h180v40h-180z"></path>
 <g aria-label="塗りつぶしのみ" fill="#fff">
  <path d="m26.925 21.928-0.20508-0.89551q0.46484 0.06836 0.86133 0.06836 0.19824 0 0.23242-0.10254 0.02734-0.06836 0.02734-0.23242v-1.6064h-3.582v-1.1074h3.582v-0.96387h-1.791v-0.47852q-0.72461 0.42383-1.5518 0.78613l-0.90234-0.98438q1.5654-0.60156 2.6318-1.4629 0.82031-0.66309 1.5176-1.5996h1.4834q0.7793 0.96387 1.9893 1.6543 0.89551 0.5127 2.4336 1.0869l-0.81348 1.1074q-1.0186-0.39648-1.7637-0.78613v0.67676h-1.791v0.96387h3.7803v1.1074h-3.7803v2.0986q0 0.47852-0.23242 0.7041-0.23926 0.23242-0.86816 0.23242-0.19824 0-0.46484-0.0068v0.62207h4.7168v1.1484h-4.7168v1.0938h5.7217v1.2168h-12.879v-1.2168h5.6396v-1.0938h-4.6621v-1.1485h4.6621v-0.88184zm-0.061524-5.8652h3.5957q-1.1074-0.66992-1.9756-1.6338-0.66309 0.91602-1.6201 1.6338zm-3.4453-0.13672q-0.97754-0.89551-2.1191-1.5244l0.88184-0.98438q1.3604 0.7041 2.2012 1.4424zm-2.9258 5.1064q1.374-0.96387 2.9395-2.6729l0.75195 1.0801q-1.0322 1.2988-2.7412 2.7549zm11.56 1.0391q-1.0664-1.3945-2.0713-2.1602l1.0391-0.72461q1.1895 0.91602 2.126 1.9893zm-9.6045-3.7666q-0.95703-0.85449-2.1123-1.4834l0.88184-1.0254q1.1006 0.54688 2.126 1.4014zm1.292 2.9805q1.0459-0.69043 1.9004-1.9756l1.0938 0.62207q-0.92969 1.4834-2.0439 2.29z"></path>
  <path d="m39.633 19.617q-0.68359 1.2783-1.4014 1.9209-0.61523 0.55371-1.1279 0.55371-0.65625 0-1.0596-0.88867-0.41699-0.92969-0.41699-2.9121 0-1.9961 0.46484-4.3271l1.4971 0.22559q-0.45117 2.3105-0.45117 3.9102 0 2.1533 0.30762 2.1533 0.11621 0 0.39648-0.32812 0.4375-0.49219 0.92285-1.4492zm-1.0391 5.3525q2.0986-0.58789 3.165-1.7568 1.3057-1.4287 1.3057-4.3203 0-2.1943-0.42383-4.9287l1.5654-0.15039q0.45117 2.7617 0.45117 5.1475 0 3.8691-1.9893 5.5713-1.21 1.0391-3.2607 1.7227z"></path>
  <path d="m47.303 16.035q5.6807-0.89551 7.6221-0.89551 2.1533 0 3.3428 0.99121 1.4082 1.1758 1.4082 3.5068 0 1.8184-1.1758 3.1719-1.791 2.0645-7.3486 2.5225l-0.51953-1.5107q3.7529-0.30078 5.3252-1.0732 0.84082-0.41699 1.3809-1.0938 0.73144-0.91602 0.73144-2.1191 0-1.4766-0.68359-2.1807-0.34863-0.35547-0.75879-0.5332-0.57422-0.25293-1.6406-0.25293-1.7432 0-7.3623 0.96387z"></path>
  <path d="m69.636 16.876q-2.2217-1.1553-5.3115-1.832l0.61523-1.2646q3.0898 0.58106 5.3799 1.7842zm-4.6074 6.4805q0.82031 1.2646 1.8115 1.2646 1.1553 0 1.1553-1.3057 0-0.9707-0.59473-2.4199-0.61524-1.4902-1.5791-2.6318l1.2373-0.64258q1.3057 1.5381 2.0029 3.3564 0.5127 1.3398 0.5127 2.4199 0 1.1963-0.59473 1.9072-0.71094 0.84082-2.0713 0.84082-1.5996 0-2.584-1.6133zm-4.0059 0.71777q1.3604-2.2422 1.9072-5.4209l1.4219 0.46484q-0.66308 3.6572-2.0303 5.7354zm11.505 0.54688q-0.76562-3.1582-2.167-5.7422l1.2715-0.56055q1.5586 2.584 2.3105 5.7012zm-0.68359-8.1484q-0.4375-1.1211-1.3604-2.4404l1.0391-0.37598q0.80664 1.1143 1.374 2.3926zm1.7227-0.60156q-0.47852-1.2373-1.3467-2.4541l0.99805-0.33496q0.78613 0.95703 1.3398 2.3242z"></path>
  <path d="m76.301 13.923h1.6133v8.1484q0 2.5771 2.707 2.5771 1.7842 0 2.9258-1.6475 0.73828-1.0596 1.3262-3.2812l1.3877 0.84082q-0.69726 2.4678-1.6748 3.6914-1.5381 1.9072-3.999 1.9072-2.5703 0-3.623-1.5859-0.66309-0.99121-0.66309-2.5566z"></path>
  <path d="m94.491 24.573q4.0127-1.0117 4.0127-4.6006 0-1.5654-0.80664-2.6934-0.90234-1.2715-2.748-1.6338-0.40332 3.1719-1.1006 5.1953-0.47852 1.415-1.1895 2.6729-1.0254 1.791-2.3311 1.791-0.9707 0-1.7295-0.875-0.48535-0.55371-0.78613-1.3604-0.39648-1.0459-0.39648-2.249 0-1.9482 1.0732-3.5889 1.0869-1.6748 2.8232-2.4336 1.2646-0.55371 2.7754-0.55371 2.3584 0 4.0059 1.2646 2.0234 1.5518 2.0234 4.3955 0 4.7646-4.8193 6.043zm-1.0254-8.9824q-1.21 0.13672-2.0234 0.64941-0.51953 0.33496-1.0322 0.88867-1.4219 1.5723-1.4219 3.6436 0 1.5107 0.60156 2.3652 0.36914 0.52637 0.73144 0.52637 0.49219 0 1.1074-1.0869 1.5039-2.6455 2.0371-6.9863z"></path>
  <path d="m102.89 14.326h5.3457l0.95703 0.81348q-0.67676 2.3721-1.1211 3.5684 1.7022 0.28711 3.1377 0.92969 0.082-0.88184 0.082-1.7295 0-0.45117-0.0273-1.0596l1.4971 0.15723q-7e-3 1.9551-0.15722 3.2881 0.84765 0.4375 1.7773 1.0322l-0.58789 1.4561q-0.65625-0.47852-1.4219-0.9502-0.52636 2.0303-1.6816 3.1582-0.82031 0.80664-2.2422 1.4219l-0.8545-1.1484q1.6748-0.71777 2.4746-1.832 0.62891-0.88867 0.92969-2.3242-1.6748-0.84082-3.3906-1.1348-1.1143 3.0488-2.2354 4.6211-0.85449 1.1895-1.9209 1.1895-1.0322 0-1.5996-0.98438-0.43067-0.75195-0.43067-1.791 0-1.2852 0.66309-2.2969 0.78613-1.2031 2.4199-1.7568 0.94336-0.31445 2.1123-0.3418 0.62891-1.6406 0.96387-2.9395h-4.6894zm3.2334 5.5918q-0.88184 0.04785-1.5108 0.33496-0.98437 0.4375-1.4492 1.3398-0.32813 0.63574-0.32813 1.3535 0 0.57422 0.22559 0.99805 0.1709 0.33496 0.41015 0.33496 0.95703 0 2.6524-4.3613z"></path>
 </g>
</svg>
