<svg version="1.1" xmlns="http://www.w3.org/2000/svg" xmlns:xlink="http://www.w3.org/1999/xlink" width="164.1" height="42.534" viewBox="0,0,164.1,42.534"><g transform="translate(-240,-180)"><g data-paper-data="{&quot;isPaintingLayer&quot;:true}" stroke="none" stroke-linecap="butt" stroke-linejoin="miter" stroke-miterlimit="10" stroke-dasharray="" stroke-dashoffset="0" style="mix-blend-mode: normal"><path d="M248,180h148.1c4.432,0 8,3.568 8,8v26.534c0,4.432 -3.568,8 -8,8h-148.1c-4.432,0 -8,-3.568 -8,-8v-26.534c0,-4.432 3.568,-8 8,-8z" fill-opacity="0.7" fill="#000000" fill-rule="evenodd" stroke-width="0"/><g fill="#ffffff" fill-rule="nonzero" stroke-width="1"><path d="M250.4502,187.4127h0.87891v1.64063h2.94531v0.78516h-2.94531v4.70312h-0.87891v-4.70312h-2.88281v-0.78516h2.88281zM247.33692,193.42052c0.57552,-0.75261 0.96224,-1.73568 1.16016,-2.94922l0.85546,0.23047c-0.23958,1.40625 -0.65234,2.51302 -1.23828,3.32031zM253.71192,193.91661c-0.58594,-0.88021 -1.07032,-1.97526 -1.45313,-3.28516l0.83985,-0.28125c0.31771,1.08855 0.78646,2.10417 1.40625,3.04688zM253.91895,187.00645c0.17448,0 0.33984,0.04818 0.49609,0.14454c0.15625,0.09375 0.27735,0.22135 0.36329,0.38281c0.07812,0.14583 0.11718,0.29818 0.11718,0.45703c0,0.25521 -0.09114,0.48047 -0.27343,0.67578c-0.19271,0.20573 -0.42969,0.30859 -0.71094,0.30859c-0.14063,0 -0.27604,-0.02993 -0.40625,-0.0898c-0.16146,-0.07552 -0.29297,-0.1862 -0.39453,-0.33203c-0.11979,-0.17187 -0.17969,-0.36068 -0.17969,-0.56641c0,-0.15885 0.04036,-0.3125 0.12109,-0.46093c0.08073,-0.14844 0.18881,-0.26823 0.32422,-0.35938c0.16407,-0.10677 0.34506,-0.16016 0.54297,-0.16016zM253.91095,187.48692c-0.09375,0 -0.1836,0.02733 -0.26953,0.082c-0.15365,0.09636 -0.23047,0.23829 -0.23047,0.42579c0,0.13281 0.04557,0.24739 0.13672,0.34375c0.09895,0.10417 0.22135,0.15625 0.36718,0.15625c0.08073,0 0.15756,-0.01823 0.23047,-0.0547c0.17969,-0.09375 0.26953,-0.24219 0.26953,-0.44531c0,-0.14323 -0.05078,-0.26433 -0.15234,-0.36329c-0.09375,-0.09635 -0.21093,-0.14453 -0.35156,-0.14453zM258.20782,194.45177v-4.00782c-0.79167,0.53125 -1.69531,0.97917 -2.71093,1.34375l-0.47266,-0.79296c1.15365,-0.38803 2.16537,-0.88803 3.03516,-1.5c0.85417,-0.60157 1.61458,-1.29037 2.28125,-2.06641l0.7539,0.47266c-0.59115,0.67969 -1.25,1.30338 -1.97656,1.87109v4.67969zM264.65704,189.54161c-0.82291,-0.36719 -1.67838,-0.66146 -2.5664,-0.88281l0.27343,-0.83985c1.02865,0.23438 1.89193,0.52605 2.58985,0.875zM262.18829,193.42833c1.28907,-0.10937 2.27605,-0.33984 2.96094,-0.69141c0.80729,-0.41667 1.42708,-1.05599 1.85937,-1.91797c0.28125,-0.55729 0.50912,-1.28645 0.6836,-2.1875l0.75,0.55079c-0.21094,0.96354 -0.46615,1.72916 -0.76563,2.29687c-0.54167,1.03385 -1.36979,1.78255 -2.48437,2.24609c-0.70313,0.29167 -1.64323,0.5 -2.82031,0.625zM275.02032,188.24474l0.5586,0.45703c-0.36459,1.66667 -0.95573,2.95703 -1.77344,3.87109c-0.45313,0.50521 -1.03906,0.94792 -1.75781,1.32813c-0.51042,0.26823 -1.0586,0.48177 -1.64453,0.64062l-0.45313,-0.76953c1.33854,-0.34896 2.3776,-0.90625 3.11719,-1.67188c-0.60937,-0.54687 -1.28125,-1.03125 -2.01563,-1.45312l0.51172,-0.63281c0.71615,0.37239 1.39714,0.83073 2.04297,1.375c0.50781,-0.8125 0.82682,-1.59896 0.95703,-2.35938h-2.75c-0.63021,0.98177 -1.37239,1.73308 -2.22656,2.25391l-0.57422,-0.6211c0.82552,-0.49739 1.50391,-1.15494 2.03516,-1.97265c0.27343,-0.41667 0.48567,-0.86589 0.63672,-1.34766l0.84765,0.20703c-0.08593,0.23438 -0.18229,0.46615 -0.28906,0.69532zM276.4422,190.42052h6.8789v0.8789h-6.8789zM284.09064,188.92442h1.72656c0.07813,-0.40104 0.16537,-0.89974 0.26172,-1.49609l0.0195,-0.11328l0.85547,0.1289c-0.08855,0.55209 -0.17969,1.04558 -0.27344,1.48047h0.47266c0.625,0 1.07292,0.14063 1.34375,0.42188c0.24219,0.2526 0.36328,0.64583 0.36328,1.17969c0,0.89843 -0.09505,1.73828 -0.28516,2.51953c-0.10937,0.44271 -0.24219,0.76953 -0.39844,0.98047c-0.19791,0.26302 -0.47265,0.39453 -0.82422,0.39453c-0.42187,0 -0.88281,-0.13542 -1.38281,-0.40625l0.0977,-0.82422c0.49479,0.23698 0.87891,0.35547 1.15234,0.35547c0.14323,0 0.25391,-0.07682 0.33203,-0.23047c0.08333,-0.16667 0.16276,-0.40755 0.23828,-0.72266c0.14844,-0.63802 0.22266,-1.30859 0.22266,-2.01172c0,-0.36979 -0.07422,-0.60937 -0.22266,-0.71875c-0.1276,-0.09115 -0.35546,-0.13672 -0.68359,-0.13672h-0.60156c-0.41407,1.84375 -1.00782,3.41667 -1.78125,4.71875l-0.78516,-0.42968c0.79948,-1.34115 1.36979,-2.77084 1.71094,-4.28907h-1.55859zM290.57892,192.77989c-0.29427,-1.08333 -0.75912,-2.14713 -1.39453,-3.1914l0.76171,-0.34375c0.65625,1.04687 1.14714,2.10026 1.47266,3.16015zM290.00079,189.0377c-0.16146,-0.42187 -0.42188,-0.89062 -0.78125,-1.40625l0.60547,-0.22656c0.31511,0.44531 0.57943,0.90755 0.79297,1.38672zM291.05157,188.70177c-0.20312,-0.50261 -0.46223,-0.97526 -0.77734,-1.41797l0.57422,-0.19141c0.29948,0.35677 0.5612,0.80209 0.78515,1.33594zM295.27423,189.10802v-0.76563h-3.35156v-0.71875h7.59765v0.71875h-3.39843v0.76563h1.71093v3.99218h-4.23047v-3.99218zM295.30543,189.76427h-0.94141v0.96875h0.94141zM296.09059,189.76427v0.96875h0.98046v-0.96875zM295.30543,191.3502h-0.94141v1.07813h0.94141zM296.09059,191.3502v1.07813h0.98046v-1.07813zM292.99684,193.62364h5.44531v-4.51562h0.8164v5.6914h-0.8164v-0.4414h-5.44531v0.4414h-0.8086v-5.6914h0.8086zM303.71168,189.3502h3.28906v5.44922h-0.87109v-0.4414h-4.82422v0.4414h-0.86328v-5.44922h2.39062c0.11459,-0.32031 0.21485,-0.65364 0.30078,-1h-3.21093v-0.71875h7.59765v0.71875h-3.46875l-0.0156,0.0547c-0.07552,0.25781 -0.18359,0.57292 -0.32422,0.94531zM302.30543,190.02989h-1v3.60156h1zM303.06715,190.02989v0.75h1.26953v-0.75zM305.10621,190.02989v3.60156h1.02344v-3.60156zM303.06715,191.42052v0.7539h1.26953v-0.7539zM303.06715,192.81505v0.8164h1.26953v-0.8164zM311.90699,189.17442c0.28646,0.32031 0.58854,0.61849 0.90625,0.89453v-2.87109h0.87891v3.54297c0.59635,0.39323 1.25,0.71745 1.96094,0.97266l-0.44922,0.8125c-0.52344,-0.22136 -1.02735,-0.48699 -1.51172,-0.79688v3.07031h-0.87891v-3.70703c-0.41927,-0.33593 -0.77864,-0.67708 -1.07812,-1.02344c-0.22135,0.94792 -0.53516,1.74349 -0.94141,2.38672c-0.58333,0.92188 -1.32943,1.66016 -2.23828,2.21485l-0.61328,-0.64063c0.94531,-0.52083 1.72266,-1.3125 2.33203,-2.375c-0.36198,-0.37239 -0.76042,-0.71354 -1.19531,-1.02344c-0.21615,0.32292 -0.45703,0.63021 -0.72266,0.92188l-0.51172,-0.69531c0.46615,-0.50521 0.84636,-1.11068 1.14063,-1.81641c0.22135,-0.53906 0.40364,-1.15885 0.54687,-1.85937l0.81641,0.12109c-0.06513,0.33073 -0.12763,0.61067 -0.1875,0.83984h1.4375l0.39844,0.35157c-0.03907,0.32552 -0.06903,0.55208 -0.0899,0.67968zM310.64527,190.85802c0.24479,-0.67969 0.40755,-1.33333 0.48828,-1.96094h-1.20703c-0.14062,0.38802 -0.29817,0.7513 -0.47265,1.08984c0.46615,0.28646 0.86328,0.57683 1.1914,0.8711zM320.11793,193.61192c1.52865,-0.38541 2.29297,-1.26171 2.29297,-2.6289c0,-0.59635 -0.15365,-1.10938 -0.46094,-1.53907c-0.34375,-0.48437 -0.86718,-0.79557 -1.57031,-0.93359c-0.15365,1.20833 -0.36328,2.19792 -0.62891,2.96875c-0.18229,0.53906 -0.40886,1.04817 -0.67969,1.52734c-0.39062,0.68229 -0.83463,1.02344 -1.33203,1.02344c-0.36979,0 -0.69921,-0.16667 -0.98828,-0.5c-0.18489,-0.21093 -0.33463,-0.47005 -0.44922,-0.77734c-0.15104,-0.39844 -0.22656,-0.82683 -0.22656,-1.28516c0,-0.74219 0.20443,-1.42578 0.61328,-2.05078c0.41407,-0.63802 0.95183,-1.10156 1.61328,-1.39062c0.48177,-0.21094 1.01042,-0.31641 1.58594,-0.31641c0.89844,0 1.66146,0.24089 2.28906,0.72266c0.77083,0.59114 1.15625,1.42838 1.15625,2.51171c0,1.81511 -0.91797,2.96615 -2.7539,3.45313zM319.53199,188.47911c-0.46093,0.05207 -0.84635,0.17576 -1.15625,0.37109c-0.19791,0.12761 -0.39453,0.29688 -0.58984,0.50782c-0.54167,0.59895 -0.8125,1.29296 -0.8125,2.08203c0,0.57552 0.11458,1.02604 0.34375,1.35156c0.14063,0.20052 0.27995,0.30078 0.41797,0.30078c0.1875,0 0.39844,-0.20703 0.63281,-0.62109c0.57291,-1.00781 0.96093,-2.33854 1.16406,-3.99219zM329.9148,192.22911c-0.17187,0.47396 -0.38932,0.88802 -0.65234,1.24219c-0.33594,0.45573 -0.78906,0.86067 -1.35937,1.21484l-0.54688,-0.48047c0.83333,-0.46875 1.44661,-1.1276 1.83984,-1.97656h-0.54296c-0.49479,0.9375 -1.26042,1.64714 -2.29688,2.12891l-0.49609,-0.51172c0.90365,-0.40885 1.58203,-0.94792 2.03515,-1.61719h-0.52343c-0.23438,0.23959 -0.47657,0.4375 -0.72657,0.59375l-0.4375,-0.42578c-0.63802,0.38802 -1.33724,0.73437 -2.09765,1.03906l-0.28907,-0.79297c0.32813,-0.09895 0.67969,-0.22395 1.05469,-0.375v-2.6289h-0.91797v-0.77735h0.91797v-1.66406h0.8086v1.66406h0.76953v0.77735h-0.76953v2.27734c0.19791,-0.09375 0.4414,-0.21354 0.73046,-0.35937l0.10157,0.5c0.3151,-0.25 0.57682,-0.54688 0.78515,-0.89063h-1.10547v-0.65625h5.36329v0.65625h-3.41407c-0.07031,0.13021 -0.16016,0.27604 -0.26953,0.4375h3.38672c-0.05467,1.34115 -0.15362,2.23177 -0.29687,2.67188c-0.07031,0.21614 -0.19011,0.36067 -0.35938,0.43359c-0.11979,0.05467 -0.29557,0.082 -0.52734,0.082c-0.27083,0 -0.53516,-0.01953 -0.79297,-0.0586l-0.14453,-0.74219c0.24479,0.05727 0.48828,0.0859 0.73047,0.0859c0.17447,0 0.28645,-0.05729 0.33593,-0.17188c0.09635,-0.22917 0.17448,-0.78776 0.23438,-1.67578zM330.83668,187.42833v2.69141h-4.02344v-2.69141zM327.5984,188.02208v0.46484h2.45312v-0.46484zM327.5984,189.05333v0.48047h2.45312v-0.48047zM337.57496,189.75645v0.58204h-3.625v-0.5c-0.48698,0.35417 -1.01302,0.66536 -1.57812,0.93359l-0.55079,-0.73047c0.73438,-0.29167 1.36459,-0.65234 1.89063,-1.08203c0.58333,-0.47656 1.07292,-1.0638 1.46875,-1.76172h0.98437c0.5,0.73437 1.14323,1.35677 1.92969,1.86719c0.42448,0.27604 0.9336,0.54557 1.52735,0.80859l-0.51954,0.76953c-0.55208,-0.27343 -1.03515,-0.55078 -1.44921,-0.83203zM337.3523,189.5963c-0.61979,-0.46615 -1.17317,-1.01042 -1.66015,-1.63281c-0.38542,0.61979 -0.86329,1.16406 -1.4336,1.63281zM338.40699,191.19005v3.60937h-0.89453v-0.47265h-3.57422v0.47265h-0.89453v-3.60937zM333.93824,191.92442v1.64063h3.57422v-1.64063zM341.53199,187.77989c0.20833,0.42448 0.44531,0.94271 0.71094,1.55469c0.25781,-0.09375 0.58854,-0.20573 0.99219,-0.33594c0.21875,-0.07031 0.38411,-0.1237 0.49609,-0.16015c-0.18229,-0.43229 -0.3763,-0.82422 -0.58203,-1.17579l0.71875,-0.27343c0.23698,0.38802 0.45313,0.80729 0.64844,1.25781c0.34115,-0.07031 0.63021,-0.10547 0.86718,-0.10547c0.49479,0 0.89844,0.125 1.21094,0.375c0.04687,0.03907 0.08723,0.07683 0.1211,0.11328c0.35156,0.375 0.52734,0.82031 0.52734,1.33594c0,0.79948 -0.30859,1.37109 -0.92578,1.71484c-0.36459,0.20573 -0.93881,0.35157 -1.72266,0.4375l-0.32031,-0.72656c0.71875,-0.05987 1.2526,-0.19789 1.60156,-0.41406c0.31511,-0.19271 0.47266,-0.53776 0.47266,-1.03516c0,-0.32291 -0.08464,-0.57552 -0.25391,-0.75781c-0.17187,-0.1875 -0.41146,-0.28125 -0.71875,-0.28125c-0.13802,0 -0.32552,0.02083 -0.5625,0.0625c0.1224,0.32291 0.24219,0.67708 0.35938,1.0625l-0.75391,0.36328c-0.13541,-0.47396 -0.26562,-0.88281 -0.39062,-1.22656c-0.46094,0.13281 -0.95443,0.29557 -1.48047,0.48828c0.625,1.53125 1.13932,2.95052 1.54297,4.25781l-0.8086,0.26953c-0.42187,-1.38802 -0.93099,-2.80078 -1.52734,-4.23828l-0.14063,0.0547c-0.59895,0.22917 -1.02343,0.39453 -1.27343,0.49609l-0.28907,-0.77734l0.10938,-0.0391c0.60156,-0.22135 1.03125,-0.37891 1.28906,-0.47266c-0.24739,-0.57552 -0.48437,-1.09505 -0.71094,-1.55859zM349.82105,194.67052c-0.48177,-0.70313 -1.02604,-1.35417 -1.63281,-1.95313l0.63281,-0.55859c0.63021,0.59896 1.1849,1.23568 1.66407,1.91015zM353.4148,187.52599h0.92188v4.65625c0,0.98177 0.51562,1.47265 1.54687,1.47265c0.67969,0 1.23699,-0.3138 1.67188,-0.9414c0.28125,-0.40365 0.53385,-1.02865 0.75781,-1.875l0.79297,0.48046c-0.26563,0.94011 -0.58464,1.64323 -0.95703,2.10938c-0.58594,0.72656 -1.34766,1.08984 -2.28516,1.08984c-0.97917,0 -1.66927,-0.30208 -2.07031,-0.90625c-0.25261,-0.3776 -0.37891,-0.86458 -0.37891,-1.46093zM364.32887,187.52599h0.86328l0.0351,1.51171h1.71875v0.76954h-1.66406l0.0391,2.25781c0.61979,0.27865 1.24089,0.68099 1.86329,1.20703l-0.4375,0.77344c-0.50521,-0.44011 -0.97266,-0.79427 -1.40235,-1.0625c-0.04427,0.63802 -0.26953,1.0651 -0.67578,1.28125c-0.22917,0.11979 -0.53906,0.17968 -0.92969,0.17968c-0.42969,0 -0.80208,-0.07682 -1.11718,-0.23046c-0.47657,-0.23177 -0.71485,-0.61589 -0.71485,-1.15235c0,-0.45573 0.20182,-0.80859 0.60547,-1.05859c0.32552,-0.20052 0.73307,-0.30078 1.22266,-0.30078c0.25,0 0.49088,0.02733 0.72265,0.082l-0.0469,-1.97656h-2.42578v-0.76954h2.375zM364.49684,192.54942c-0.29948,-0.09635 -0.57031,-0.14453 -0.8125,-0.14453c-0.22657,0 -0.41928,0.03516 -0.57813,0.10547c-0.25,0.10677 -0.375,0.28125 -0.375,0.52344c0,0.19791 0.09115,0.35286 0.27344,0.46484c0.17448,0.10937 0.41146,0.16406 0.71094,0.16406c0.52083,0 0.78125,-0.29297 0.78125,-0.8789zM360.25465,194.42833c-0.09115,-0.85937 -0.13672,-1.76302 -0.13672,-2.71094c0,-1.47917 0.09896,-2.88932 0.29687,-4.23047l0.85938,0.125c-0.19531,1.15625 -0.29297,2.40625 -0.29297,3.75c0,0.98698 0.04948,1.96485 0.14844,2.9336zM365.82496,188.6627c-0.08594,-0.35937 -0.27214,-0.8151 -0.55859,-1.36718l0.58984,-0.1211c0.25781,0.44531 0.45052,0.89323 0.57813,1.34375zM366.80152,188.51036c-0.10937,-0.44791 -0.29427,-0.90625 -0.55468,-1.375l0.57812,-0.11328c0.23698,0.37761 0.42578,0.81511 0.56641,1.3125zM372.7273,189.01427c-0.98697,-0.4375 -2.09895,-0.77344 -3.33593,-1.00782l0.32812,-0.69531c1.27083,0.23698 2.39323,0.54557 3.36719,0.92578zM368.27027,191.87755c0.10677,-1.24479 0.26693,-2.32943 0.48047,-3.25391l0.83985,0.15625c-0.19792,0.82292 -0.32553,1.59375 -0.38282,2.3125c0.37761,-0.28906 0.8125,-0.51953 1.30469,-0.6914c0.47135,-0.16667 0.91146,-0.25 1.32031,-0.25c0.61198,0 1.11198,0.11849 1.5,0.35546c0.51823,0.32031 0.77735,0.83334 0.77735,1.53907c0,0.69271 -0.23568,1.22916 -0.70703,1.60937c-0.65886,0.52604 -1.80469,0.81641 -3.4375,0.8711l-0.3125,-0.8086c1.09114,-0.00267 1.92187,-0.10423 2.49218,-0.30469c0.69011,-0.23958 1.03516,-0.69661 1.03516,-1.37109c0,-0.42708 -0.15234,-0.74479 -0.45703,-0.95312c-0.24219,-0.16667 -0.5599,-0.25 -0.95313,-0.25c-0.55989,0 -1.16145,0.18359 -1.80468,0.55078c-0.39323,0.22395 -0.7448,0.49609 -1.05469,0.8164zM380.68043,194.60411c-1.17709,-0.91667 -2.71875,-1.9401 -4.625,-3.07031c-0.35156,-0.20573 -0.52734,-0.42188 -0.52734,-0.64844c0,-0.16146 0.07682,-0.3138 0.23046,-0.45703c0.06513,-0.06247 0.2292,-0.16663 0.49219,-0.3125c0.96094,-0.53385 1.9974,-1.17057 3.10938,-1.91016c0.41927,-0.27604 0.80078,-0.54297 1.14453,-0.80078l0.51172,0.67188c-1.34115,0.95052 -2.71745,1.81771 -4.12891,2.60156c-0.13802,0.07813 -0.20703,0.14323 -0.20703,0.19531c0,0.04167 0.03776,0.08854 0.11328,0.14063c0.0208,0.0156 0.14189,0.08852 0.36328,0.21875c1.78646,1.05469 3.13151,1.91797 4.03516,2.58984zM386.50074,192.90489c-0.46093,0.63281 -1.09244,1.18099 -1.89453,1.64453l-0.54297,-0.64453c0.35937,-0.16146 0.67838,-0.33984 0.95703,-0.53515c0.32813,-0.22657 0.66797,-0.52865 1.01953,-0.90625h-1.91406v-0.6875h2.375v-0.58594h-1.92578v-1.67969h2.13672v1.65625h0.40625v-1.65625h2.17578v1.67969h-1.98437v0.58594h2.38281v0.6875h-1.88672c0.52865,0.51823 1.1849,0.91796 1.96875,1.19921l-0.51172,0.73047c-0.73698,-0.37239 -1.38802,-0.88932 -1.95312,-1.55078v1.95703h-0.8086zM385.27027,190.06895v0.57032h0.75782v-0.57032zM387.7898,190.06895v0.57032h0.81641v-0.57032zM382.94996,188.63927v-1.44141h0.81641v1.44141h0.6875v0.76953h-0.6875v1.1914c0.1901,-0.07291 0.38411,-0.15234 0.58203,-0.23828l0.12109,0.70313c-0.2526,0.125 -0.48697,0.23437 -0.70312,0.32812v2.72266c0,0.20573 -0.03516,0.35937 -0.10547,0.46094c-0.09635,0.14323 -0.29557,0.21484 -0.59766,0.21484c-0.29427,0 -0.55078,-0.02733 -0.76953,-0.082l-0.14453,-0.80859c0.30469,0.04427 0.51432,0.0664 0.62891,0.0664c0.08073,0 0.13151,-0.01823 0.15234,-0.0547c0.013,-0.02607 0.0195,-0.06383 0.0195,-0.11328v-2.07812c-0.21354,0.07552 -0.46484,0.15755 -0.75391,0.24609l-0.23828,-0.77734c0.22135,-0.06247 0.55208,-0.16143 0.99219,-0.29688v-1.48437h-0.87109v-0.76953zM388.62184,187.39708v1.67187h-3.38282v-1.67187zM386.02027,187.99083v0.50391h1.8086v-0.50391zM394.46559,189.15099h-0.64063c-0.26823,0.65885 -0.61198,1.25 -1.03125,1.77343l-0.56641,-0.69531c0.66407,-0.83333 1.13542,-1.86198 1.41407,-3.08594l0.82422,0.16016c-0.10157,0.375 -0.21225,0.73437 -0.33204,1.07812h3.55469v0.76954h-2.38281v1.125h1.90234v0.71875h-1.90234v1.11718h2.07031v0.73438h-2.07031v1.95312h-0.83984zM392.04762,189.15499v5.64453h-0.8711v-4.08984c-0.22656,0.33854 -0.48047,0.68099 -0.76172,1.02734l-0.41406,-0.875c0.48437,-0.55989 0.90625,-1.24088 1.26563,-2.04297c0.20833,-0.46354 0.42057,-1.02474 0.63672,-1.68359l0.83203,0.21484c-0.19531,0.63803 -0.42448,1.23959 -0.6875,1.80469z"/><path d="M247.9697,198.326h0.92188v4.65625c0,0.98177 0.51562,1.47265 1.54687,1.47265c0.67969,0 1.23698,-0.3138 1.67188,-0.9414c0.28125,-0.40365 0.53385,-1.02865 0.75781,-1.875l0.79297,0.48046c-0.26563,0.94011 -0.58464,1.64323 -0.95703,2.10938c-0.58594,0.72656 -1.34766,1.08984 -2.28516,1.08984c-0.97917,0 -1.66927,-0.30208 -2.07031,-0.90625c-0.25261,-0.3776 -0.37891,-0.86458 -0.37891,-1.46093zM254.41892,198.94709c2.39583,-0.03647 4.66016,-0.09766 6.79297,-0.18359l0.0469,0.77734c-0.9401,0.04687 -1.67187,0.1901 -2.19531,0.42969c-0.5,0.22917 -0.90104,0.54687 -1.20312,0.95312c-0.34375,0.46094 -0.51563,0.97396 -0.51563,1.53906c0,0.5625 0.19531,0.98438 0.58594,1.26563c0.44791,0.32031 1.13541,0.54037 2.0625,0.66016l-0.18359,0.8789c-1.20833,-0.16146 -2.0586,-0.47396 -2.55079,-0.9375c-0.52864,-0.49479 -0.79296,-1.10938 -0.79296,-1.84375c0,-0.66667 0.23958,-1.28906 0.71875,-1.86719c0.34895,-0.42447 0.82682,-0.76562 1.43359,-1.02343c-1.07552,0.03647 -2.46224,0.09766 -4.16016,0.18359zM265.91501,203.09943c-0.48177,1.41667 -1.02213,2.125 -1.62109,2.125c-0.42708,0 -0.79297,-0.29948 -1.09766,-0.89843c-0.23437,-0.46355 -0.39583,-0.97396 -0.48437,-1.53125c-0.10677,-0.67709 -0.16016,-1.54688 -0.16016,-2.60938c0,-0.46094 0.01693,-0.95573 0.0508,-1.48437l0.91797,0.0703c-0.03387,0.52865 -0.0508,1.03125 -0.0508,1.50781c0,1.67187 0.15625,2.83724 0.46875,3.49609c0.12761,0.27083 0.2474,0.40625 0.35938,0.40625c0.07291,0 0.16406,-0.08333 0.27343,-0.25c0.22396,-0.33854 0.44011,-0.80468 0.64844,-1.39843zM268.38767,204.02912c-0.13281,-1.09896 -0.29557,-1.98698 -0.48828,-2.66406c-0.23437,-0.82031 -0.50651,-1.57162 -0.81641,-2.25391l0.83203,-0.20312c0.42969,0.85156 0.74871,1.67187 0.95704,2.46093c0.17187,0.64063 0.3138,1.45573 0.42578,2.44532zM274.73923,200.82209h0.88672v2.14453c0.60937,0.26823 1.23307,0.62239 1.8711,1.0625l-0.44922,0.73047c-0.44792,-0.32813 -0.92188,-0.63281 -1.42188,-0.91406c-0.02867,0.46093 -0.17841,0.8151 -0.44922,1.0625c-0.30208,0.27343 -0.72526,0.41015 -1.26953,0.41015c-0.52604,0 -0.95963,-0.11979 -1.30078,-0.35937c-0.33333,-0.23698 -0.5,-0.56771 -0.5,-0.99219c0,-0.44531 0.20964,-0.80208 0.62891,-1.07031c0.32552,-0.20833 0.74219,-0.3125 1.25,-0.3125c0.23698,0 0.48828,0.02863 0.7539,0.0859zM274.73923,203.47053c-0.30989,-0.10677 -0.60286,-0.16016 -0.8789,-0.16016c-0.27083,0 -0.48828,0.04818 -0.65235,0.14453c-0.21093,0.125 -0.3164,0.29167 -0.3164,0.5c0,0.25521 0.15104,0.44141 0.45312,0.5586c0.15104,0.05727 0.33203,0.0859 0.54297,0.0859c0.33854,0 0.58203,-0.14323 0.73047,-0.42968c0.08073,-0.15365 0.12109,-0.33334 0.12109,-0.53907zM270.54783,199.326h1.49218c0.13281,-0.45053 0.23959,-0.84766 0.32032,-1.19141l0.85547,0.10547c-0.10417,0.38281 -0.21094,0.74479 -0.32032,1.08594h1.42578v0.78515h-1.67968c-0.46615,1.33594 -1.01302,2.46615 -1.64063,3.39063l-0.72656,-0.41407c0.59375,-0.88021 1.09505,-1.87239 1.50391,-2.97656h-1.23047zM277.07126,201.22834c-0.57812,-0.64323 -1.24218,-1.22916 -1.99218,-1.75781l0.51562,-0.5625c0.74479,0.48177 1.42448,1.04296 2.03906,1.68359zM281.91501,203.09943c-0.48177,1.41667 -1.02213,2.125 -1.62109,2.125c-0.42708,0 -0.79297,-0.29948 -1.09766,-0.89843c-0.23437,-0.46355 -0.39583,-0.97396 -0.48437,-1.53125c-0.10677,-0.67709 -0.16016,-1.54688 -0.16016,-2.60938c0,-0.46094 0.01693,-0.95573 0.0508,-1.48437l0.91797,0.0703c-0.03387,0.52865 -0.0508,1.03125 -0.0508,1.50781c0,1.67187 0.15625,2.83724 0.46875,3.49609c0.12761,0.27083 0.2474,0.40625 0.35938,0.40625c0.07291,0 0.16406,-0.08333 0.27343,-0.25c0.22396,-0.33854 0.44011,-0.80468 0.64844,-1.39843zM284.38767,204.02912c-0.13281,-1.09896 -0.29557,-1.98698 -0.48828,-2.66406c-0.23437,-0.82031 -0.50651,-1.57162 -0.81641,-2.25391l0.83203,-0.20312c0.42969,0.85156 0.74871,1.67187 0.95704,2.46093c0.17187,0.64063 0.3138,1.45573 0.42578,2.44532zM292.07517,203.02912c-0.17187,0.47396 -0.38932,0.88802 -0.65234,1.24219c-0.33594,0.45573 -0.78907,0.86067 -1.35938,1.21484l-0.54687,-0.48047c0.83333,-0.46875 1.44661,-1.1276 1.83984,-1.97656h-0.54297c-0.49479,0.9375 -1.26042,1.64714 -2.29687,2.12891l-0.4961,-0.51172c0.90365,-0.40885 1.58203,-0.94792 2.03516,-1.61719h-0.52344c-0.23437,0.23959 -0.47656,0.4375 -0.72656,0.59375l-0.4375,-0.42578c-0.63802,0.38802 -1.33724,0.73437 -2.09766,1.03906l-0.28906,-0.79297c0.32813,-0.09895 0.67969,-0.22395 1.05469,-0.375v-2.6289h-0.91797v-0.77735h0.91797v-1.66406h0.80859v1.66406h0.76953v0.77735h-0.76953v2.27734c0.19792,-0.09375 0.44141,-0.21354 0.73047,-0.35937l0.10156,0.5c0.31511,-0.25 0.57683,-0.54688 0.78516,-0.89063h-1.10547v-0.65625h5.36328v0.65625h-3.41406c-0.07031,0.13021 -0.16016,0.27604 -0.26953,0.4375h3.38672c-0.05467,1.34115 -0.15363,2.23177 -0.29688,2.67188c-0.07031,0.21614 -0.1901,0.36067 -0.35937,0.43359c-0.11979,0.05467 -0.29558,0.082 -0.52735,0.082c-0.27083,0 -0.53516,-0.01953 -0.79297,-0.0586l-0.14453,-0.74219c0.24479,0.05727 0.48828,0.0859 0.73047,0.0859c0.17448,0 0.28646,-0.05729 0.33594,-0.17188c0.09635,-0.22917 0.17448,-0.78776 0.23437,-1.67578zM292.99705,198.22834v2.69141h-4.02344v-2.69141zM289.75876,198.82209v0.46484h2.45313v-0.46484zM289.75876,199.85334v0.48047h2.45313v-0.48047zM299.73533,200.55646v0.58204h-3.625v-0.5c-0.48698,0.35417 -1.01302,0.66536 -1.57813,0.93359l-0.55078,-0.73047c0.73437,-0.29167 1.36458,-0.65234 1.89063,-1.08203c0.58333,-0.47656 1.07292,-1.0638 1.46875,-1.76172h0.98437c0.5,0.73437 1.14323,1.35677 1.92969,1.86719c0.42448,0.27604 0.93359,0.54557 1.52734,0.80859l-0.51953,0.76953c-0.55208,-0.27343 -1.03515,-0.55078 -1.44922,-0.83203zM299.51267,200.39631c-0.61979,-0.46615 -1.17318,-1.01042 -1.66016,-1.63281c-0.38541,0.61979 -0.86328,1.16406 -1.43359,1.63281zM300.56736,201.99006v3.60937h-0.89453v-0.47265h-3.57422v0.47265h-0.89453v-3.60937zM296.09861,202.72443v1.64063h3.57422v-1.64063zM302.7783,205.2635c-0.09896,-0.88542 -0.14844,-1.76563 -0.14844,-2.64063c0,-1.5 0.11068,-2.92448 0.33203,-4.27344l0.85937,0.0899c-0.21093,1.16667 -0.3164,2.48307 -0.3164,3.94922c0,0.98437 0.05469,1.90494 0.16406,2.76171zM305.12205,199.076h3.7539v0.83203h-3.7539zM309.14158,204.78303c-0.52083,0.08073 -1.13932,0.12109 -1.85547,0.12109c-1.79948,0 -2.69922,-0.52865 -2.69922,-1.58594c0,-0.41927 0.11198,-0.78515 0.33594,-1.09765l0.73828,0.32812c-0.14063,0.19792 -0.21094,0.42058 -0.21094,0.66797c0,0.30469 0.15234,0.51432 0.45703,0.62891c0.33854,0.13021 0.80078,0.19531 1.38672,0.19531c0.63281,0 1.21875,-0.04167 1.75781,-0.125zM311.98142,205.47053c-0.48177,-0.70313 -1.02604,-1.35417 -1.63281,-1.95313l0.63281,-0.55859c0.63021,0.59896 1.18489,1.23568 1.66406,1.91015zM320.7822,199.04475l0.5586,0.45703c-0.36459,1.66667 -0.95573,2.95703 -1.77344,3.87109c-0.45313,0.50521 -1.03906,0.94792 -1.75781,1.32813c-0.51042,0.26823 -1.0586,0.48177 -1.64454,0.64062l-0.45312,-0.76953c1.33854,-0.34896 2.3776,-0.90625 3.11719,-1.67188c-0.60938,-0.54687 -1.28126,-1.03125 -2.01563,-1.45312l0.51172,-0.63281c0.71615,0.37239 1.39714,0.83073 2.04297,1.375c0.50781,-0.8125 0.82682,-1.59896 0.95703,-2.35938h-2.75c-0.63021,0.98177 -1.37239,1.73308 -2.22656,2.25391l-0.57422,-0.6211c0.82552,-0.49739 1.50391,-1.15494 2.03516,-1.97265c0.27343,-0.41667 0.48567,-0.86589 0.63671,-1.34766l0.84766,0.20703c-0.08594,0.23438 -0.18229,0.46615 -0.28906,0.69532zM322.27048,199.22053h5.16797l0.83985,0.73437c-0.10157,1.05729 -0.27865,1.88542 -0.53125,2.48438c-0.36979,0.88021 -0.98308,1.5612 -1.83985,2.04297c-0.56771,0.32291 -1.34765,0.60156 -2.33984,0.83593l-0.44922,-0.79297c0.86979,-0.15885 1.5586,-0.36458 2.06641,-0.61718c0.82812,-0.40885 1.41406,-1.03125 1.75781,-1.86719c0.21354,-0.52083 0.33594,-1.1888 0.36719,-2.00391h-5.03907zM327.87986,199.42365c-0.16146,-0.49479 -0.36719,-0.94922 -0.61719,-1.36328l0.625,-0.14453c0.21875,0.30469 0.42578,0.73958 0.62109,1.30469zM328.99705,199.2635c-0.14583,-0.45053 -0.35807,-0.88542 -0.63672,-1.30469l0.58984,-0.14453c0.26823,0.34895 0.48958,0.76171 0.66406,1.23828zM335.0947,199.3494c-0.07291,1.63021 -0.25911,2.88282 -0.55859,3.75782c-0.31511,0.92708 -0.92578,1.72786 -1.83203,2.40234l-0.67969,-0.63281c0.75,-0.49219 1.27865,-1.08203 1.58594,-1.76953c0.35937,-0.79688 0.57031,-2.04949 0.63281,-3.75782h-1.47266v-0.80859h4.375c-0.02607,3.16406 -0.1081,5.17057 -0.24609,6.01953c-0.04687,0.28906 -0.13671,0.5039 -0.26953,0.64453c-0.15625,0.16667 -0.42318,0.25 -0.80078,0.25c-0.45313,0 -0.85677,-0.02473 -1.21094,-0.0742l-0.17578,-0.85547c0.55469,0.08073 0.94401,0.1211 1.16797,0.1211c0.19531,0 0.31901,-0.07552 0.37109,-0.22656c0.06513,-0.1849 0.12373,-0.65756 0.17578,-1.41797c0.05993,-0.84115 0.09769,-1.9349 0.11328,-3.28125l0.004,-0.3711zM331.52439,200.74393v2.02344c0,0.10937 0.03123,0.17969 0.0937,0.21094c0.03907,0.0182 0.14974,0.0273 0.33203,0.0273c0.20313,0 0.33594,-0.0117 0.39844,-0.0351c0.07031,-0.02867 0.11589,-0.10419 0.13672,-0.22657c0.0234,-0.13541 0.04683,-0.42968 0.0703,-0.88281l0.79297,0.22266c-0.03127,0.7526 -0.12372,1.22656 -0.27735,1.42187c-0.16145,0.20573 -0.54296,0.3086 -1.14453,0.3086c-0.46615,0 -0.78646,-0.04297 -0.96093,-0.12891c-0.1875,-0.09115 -0.28125,-0.27474 -0.28125,-0.55078v-2.25391l-0.87891,0.14063l-0.0977,-0.77735l0.97657,-0.15234v-2.09375h0.83984v1.96484l1.75,-0.27734l0.0664,0.76953zM340.86423,201.57987c-0.26041,0.48698 -0.52734,0.85287 -0.80078,1.09766c-0.23437,0.21093 -0.44922,0.3164 -0.64453,0.3164c-0.25,0 -0.45182,-0.16927 -0.60547,-0.50781c-0.15885,-0.35417 -0.23828,-0.90885 -0.23828,-1.66406c0,-0.76042 0.08854,-1.58464 0.26563,-2.47266l0.85546,0.12891c-0.17187,0.88021 -0.25781,1.625 -0.25781,2.23437c0,0.82031 0.05859,1.23047 0.17578,1.23047c0.04427,0 0.11979,-0.0625 0.22657,-0.1875c0.16667,-0.1875 0.34245,-0.46354 0.52734,-0.82812zM340.27048,204.63847c0.79948,-0.22396 1.40235,-0.5586 1.8086,-1.00391c0.49739,-0.54427 0.74609,-1.36719 0.74609,-2.46875c0,-0.83594 -0.08073,-1.77474 -0.24219,-2.81641l0.89453,-0.0859c0.17188,1.05208 0.25782,2.03255 0.25782,2.9414c0,1.47396 -0.37891,2.53516 -1.13672,3.1836c-0.46094,0.39583 -1.08203,0.72396 -1.86328,0.98437zM349.07908,201.95097l-0.42578,-0.48829c0.68229,-0.20573 1.1315,-0.54687 1.34765,-1.02343h-1.05078v-0.66407h1.16016v-0.5039h-1.0586v-0.65625h1.0586v-0.61719h0.80468v0.61719h1.41797v0.65625h-1.41797v0.5039h1.64063v0.66407h-1.3125c0.33854,0.42708 0.84245,0.77604 1.51172,1.04687l-0.46485,0.64844c-0.73697,-0.38021 -1.28254,-0.84635 -1.63671,-1.39844c-0.23959,0.55729 -0.6875,0.96224 -1.34375,1.21485h2.5039v3.64843h-0.89062v-0.42578h-4.16407v0.42578h-0.87109v-3.46484c-0.09635,0.04947 -0.23568,0.11327 -0.41797,0.19141l-0.51172,-0.65625c0.77605,-0.21875 1.3099,-0.62891 1.60157,-1.23047h-1.42579v-0.66407h1.56641v-0.5039h-1.34375v-0.65625h1.34375v-0.61719h0.80078v0.61719h1.09766v0.65625h-1.09766v0.5039h1.1836v0.66407h-1.33204c-0.00533,0.0182 -0.01053,0.03513 -0.0156,0.0508c0.44791,0.17448 0.91536,0.42188 1.40234,0.74219l-0.58203,0.55859c-0.3151,-0.25781 -0.67187,-0.5013 -1.07031,-0.73047c-0.20833,0.34375 -0.50391,0.64063 -0.88672,0.89063zM346.75876,202.60722v0.61328h4.16407v-0.61328zM346.75876,203.82987v0.66406h4.16407v-0.66406zM353.91501,200.11893h4.41016l0.35156,0.57813l-0.16015,0.11719c-1.01563,0.76562 -1.73568,1.32942 -2.16016,1.6914c0.29687,-0.14323 0.54687,-0.21484 0.75,-0.21484c0.26302,0 0.45052,0.09115 0.5625,0.27344c0.06513,0.10156 0.0977,0.22395 0.0977,0.36718c0,0.04427 -0.0039,0.10807 -0.0117,0.19141c-0.04167,0.40104 -0.0625,0.69792 -0.0625,0.89063c0,0.19271 0.07422,0.30729 0.22265,0.34375c0.11719,0.02867 0.33464,0.043 0.65235,0.043c0.41406,0 0.86328,-0.02863 1.34765,-0.0859l0.0703,0.83203c-0.48959,0.04167 -0.9961,0.0625 -1.51953,0.0625c-0.5625,0 -0.94141,-0.03776 -1.13672,-0.11328c-0.32813,-0.125 -0.49219,-0.40104 -0.49219,-0.82813c0,-0.41146 0.01823,-0.7513 0.0547,-1.01953c0.00267,-0.0208 0.004,-0.04293 0.004,-0.0664c0,-0.18229 -0.09245,-0.27343 -0.27734,-0.27343c-0.5,0 -1.49219,0.79557 -2.97656,2.38672l-0.61328,-0.67188c1.5026,-1.43489 2.91536,-2.67448 4.23828,-3.71875h-3.35157zM358.04392,199.68534c-1.00521,-0.30729 -2.13541,-0.57422 -3.39062,-0.80078l0.2539,-0.72656c1.24219,0.1901 2.37891,0.44661 3.41016,0.76953zM363.81345,198.21268h0.87891v1.44141h2.94531v0.78516h-2.94531v4.90234h-0.87891v-4.90234h-2.88281v-0.78516h2.88281zM360.70017,204.2205c0.57552,-0.75261 0.96224,-1.73568 1.16016,-2.94922l0.85547,0.23047c-0.23959,1.40625 -0.65235,2.51302 -1.23829,3.32031zM367.07517,204.71659c-0.58594,-0.88021 -1.07031,-1.97526 -1.45312,-3.28516l0.83984,-0.28125c0.31771,1.08855 0.78646,2.10417 1.40625,3.04688zM366.54001,199.42362c-0.14062,-0.40885 -0.38281,-0.85807 -0.72656,-1.34765l0.62891,-0.1836c0.29427,0.42187 0.53776,0.86719 0.73047,1.33594zM367.66111,199.31815c-0.1875,-0.5026 -0.42578,-0.95312 -0.71485,-1.35156l0.59375,-0.16016c0.27865,0.34636 0.52084,0.77605 0.72657,1.28907zM374.46189,199.04472l0.55859,0.45703c-0.36458,1.66667 -0.95572,2.95703 -1.77343,3.87109c-0.45313,0.50521 -1.03907,0.94792 -1.75782,1.32813c-0.51041,0.26823 -1.05859,0.48177 -1.64453,0.64062l-0.45312,-0.76953c1.33854,-0.34896 2.3776,-0.90625 3.11718,-1.67188c-0.60937,-0.54687 -1.28125,-1.03125 -2.01562,-1.45312l0.51172,-0.63281c0.71615,0.37239 1.39714,0.83073 2.04297,1.375c0.50781,-0.8125 0.82682,-1.59896 0.95703,-2.35938h-2.75c-0.63021,0.98177 -1.37239,1.73308 -2.22656,2.25391l-0.57422,-0.6211c0.82552,-0.49739 1.5039,-1.15494 2.03515,-1.97265c0.27344,-0.41667 0.48568,-0.86589 0.63672,-1.34766l0.84766,0.20703c-0.08594,0.23438 -0.18229,0.46615 -0.28906,0.69532zM378.73923,200.34159c-0.82291,-0.36719 -1.67838,-0.66146 -2.5664,-0.88281l0.27343,-0.83985c1.02865,0.23438 1.89193,0.52605 2.58985,0.875zM376.27048,204.22831c1.28907,-0.10937 2.27605,-0.33984 2.96094,-0.69141c0.80729,-0.41667 1.42709,-1.05599 1.85938,-1.91797c0.28125,-0.55729 0.50911,-1.28645 0.68359,-2.1875l0.75,0.55079c-0.21094,0.96354 -0.46615,1.72916 -0.76563,2.29687c-0.54167,1.03385 -1.36979,1.78255 -2.48437,2.24609c-0.70313,0.29167 -1.64323,0.5 -2.82031,0.625zM389.82517,205.02909c-0.77083,0.08073 -1.56771,0.12109 -2.39062,0.12109c-1.21355,0 -2.06381,-0.07682 -2.55079,-0.23046c-0.35417,-0.11198 -0.63411,-0.27865 -0.83984,-0.5c-0.23698,-0.25781 -0.35547,-0.57162 -0.35547,-0.94141c0,-0.48698 0.16667,-0.92448 0.5,-1.3125c0.28385,-0.33073 0.74089,-0.65885 1.3711,-0.98438c-0.35938,-0.80729 -0.6849,-1.72656 -0.97657,-2.75781l0.8711,-0.22656c0.27083,0.98958 0.55729,1.86458 0.85937,2.625c1.00261,-0.46094 2.06641,-0.84505 3.19141,-1.15234l0.26172,0.79296c-1.23438,0.3125 -2.46094,0.75651 -3.67969,1.33204c-0.37761,0.17969 -0.64584,0.32682 -0.80469,0.4414c-0.46615,0.34115 -0.69922,0.72005 -0.69922,1.13672c0,0.36198 0.21615,0.61458 0.64844,0.75781c0.35937,0.11719 1.0026,0.17578 1.92969,0.17578c0.85677,0 1.71484,-0.04948 2.57422,-0.14843z"/><path d="M251.0947,211.9619v3.09375c0,0.20052 0.08594,0.32161 0.25781,0.36328c0.17709,0.04427 0.58204,0.0664 1.21485,0.0664c0.61719,0 1.02474,-0.03123 1.22265,-0.0937c0.11198,-0.03647 0.1849,-0.13803 0.21875,-0.30469c0.04427,-0.23437 0.0677,-0.51172 0.0703,-0.83203l0.8164,0.23047c-0.04167,0.76823 -0.14713,1.25911 -0.3164,1.47266c-0.11198,0.14062 -0.28125,0.22395 -0.50782,0.25c-0.35677,0.03907 -0.96223,0.0586 -1.8164,0.0586c-0.66146,0 -1.09505,-0.01823 -1.30078,-0.0547c-0.3099,-0.05207 -0.50652,-0.18878 -0.58985,-0.41015c-0.04167,-0.11719 -0.0625,-0.27344 -0.0625,-0.46875v-3.09766l-0.74609,0.25781l-0.18359,-0.75781l0.92968,-0.32031v-2.10547h0.79297v1.83203l0.83985,-0.28516v-2.05859h0.78515v1.78516l1.3086,-0.44922l0.41015,0.25v2.92578c0,0.20313 -0.04818,0.35417 -0.14453,0.45312c-0.10937,0.10938 -0.29297,0.16407 -0.55078,0.16407c-0.21094,0 -0.4349,-0.01823 -0.67188,-0.0547l-0.1289,-0.74609c0.15365,0.03907 0.3099,0.0586 0.46875,0.0586c0.11458,0 0.18489,-0.02343 0.21094,-0.0703c0.02607,-0.03907 0.0391,-0.10417 0.0391,-0.19532v-1.84765l-0.94141,0.32812v3.16016h-0.78515v-2.89063zM248.22361,210.68456v-1.88672h0.83984v1.88672h0.75781v0.79297h-0.75781v2.48437c0.27344,-0.09375 0.54427,-0.1914 0.8125,-0.29297l0.0742,0.75391c-0.84375,0.38542 -1.70963,0.70834 -2.59766,0.96875l-0.27343,-0.83203c0.40104,-0.10417 0.7526,-0.20313 1.05468,-0.29688c0.03647,-0.013 0.0664,-0.0221 0.0898,-0.0273v-2.75781h-0.99219v-0.79297zM259.2197,213.97362c-0.55729,0.47135 -1.2487,0.85807 -2.07422,1.16016l-0.49609,-0.60156c0.67187,-0.21875 1.27213,-0.53256 1.80078,-0.94141l-0.13672,-0.0664c-0.50521,-0.24219 -1.05729,-0.48698 -1.65625,-0.73437l0.35938,-0.59375c0.67187,0.24479 1.30078,0.5013 1.88672,0.76953l0.15234,0.0703c0.65885,-0.69271 1.15495,-1.59635 1.48828,-2.71094l0.77734,0.24219c-0.38021,1.13542 -0.88672,2.07943 -1.51953,2.83203c0.02607,0.013 0.0508,0.02603 0.0742,0.0391c0.36719,0.18229 0.84896,0.44921 1.44531,0.80078l-0.47265,0.65625c-0.5,-0.30469 -1.04297,-0.61198 -1.62891,-0.92188zM257.48142,212.27831c-0.1875,-0.61979 -0.40104,-1.14323 -0.64062,-1.57031l0.73437,-0.29297c0.25261,0.44791 0.47396,0.96744 0.66406,1.55859zM258.85642,211.96581c-0.19271,-0.60156 -0.40885,-1.1263 -0.64844,-1.57422l0.70313,-0.28125c0.29948,0.52083 0.52083,1.03516 0.66406,1.54297zM262.4658,209.16503v7.23437h-0.8711v-0.41015h-5.1875v0.41015h-0.86328v-7.23437zM256.4072,209.89159v5.34375h5.1875v-5.34375zM267.61423,214.50487c-0.46093,0.63281 -1.09244,1.18099 -1.89453,1.64453l-0.54297,-0.64453c0.35938,-0.16146 0.67839,-0.33984 0.95703,-0.53515c0.32813,-0.22657 0.66797,-0.52865 1.01954,-0.90625h-1.91407v-0.6875h2.375v-0.58594h-1.92578v-1.67969h2.13672v1.65625h0.40625v-1.65625h2.17578v1.67969h-1.98437v0.58594h2.38281v0.6875h-1.88672c0.52865,0.51823 1.1849,0.91796 1.96875,1.19921l-0.51172,0.73047c-0.73698,-0.37239 -1.38802,-0.88932 -1.95312,-1.55078v1.95703h-0.8086zM266.38376,211.66893v0.57032h0.75782v-0.57032zM268.9033,211.66893v0.57032h0.8164v-0.57032zM264.06345,210.23925v-1.44141h0.81641v1.44141h0.6875v0.76953h-0.6875v1.1914c0.1901,-0.07291 0.38411,-0.15234 0.58203,-0.23828l0.12109,0.70313c-0.2526,0.125 -0.48697,0.23437 -0.70312,0.32812v2.72266c0,0.20573 -0.03516,0.35937 -0.10547,0.46094c-0.09635,0.14323 -0.29557,0.21484 -0.59766,0.21484c-0.29427,0 -0.55078,-0.02733 -0.76953,-0.082l-0.14453,-0.80859c0.30469,0.04427 0.51432,0.0664 0.62891,0.0664c0.08073,0 0.13151,-0.01823 0.15234,-0.0547c0.013,-0.02607 0.0195,-0.06383 0.0195,-0.11328v-2.07812c-0.21354,0.07552 -0.46484,0.15755 -0.7539,0.24609l-0.23829,-0.77734c0.22136,-0.06247 0.55209,-0.16143 0.99219,-0.29688v-1.48437h-0.87109v-0.76953zM269.73533,208.99706v1.67187h-3.38282v-1.67187zM267.13376,209.59081v0.50391h1.8086v-0.50391zM275.57908,210.75097h-0.64063c-0.26823,0.65885 -0.61198,1.25 -1.03125,1.77343l-0.5664,-0.69531c0.66406,-0.83333 1.13541,-1.86198 1.41406,-3.08594l0.82422,0.16016c-0.10157,0.375 -0.21224,0.73437 -0.33203,1.07812h3.55468v0.76954h-2.38281v1.125h1.90234v0.71875h-1.90234v1.11718h2.07031v0.73438h-2.07031v1.95312h-0.83984zM273.16111,210.75497v5.64453h-0.8711v-4.08984c-0.22656,0.33854 -0.48046,0.68099 -0.76171,1.02734l-0.41407,-0.875c0.48438,-0.55989 0.90626,-1.24088 1.26563,-2.04297c0.20833,-0.46354 0.42057,-1.02474 0.63672,-1.68359l0.83203,0.21484c-0.19531,0.63803 -0.42448,1.23959 -0.6875,1.80469zM282.45017,209.01278h0.87891v1.44141h2.94531v0.78516h-2.94531v4.90234h-0.87891v-4.90234h-2.88281v-0.78516h2.88281zM279.33689,215.0206c0.57552,-0.75261 0.96224,-1.73568 1.16016,-2.94922l0.85546,0.23047c-0.23958,1.40625 -0.65234,2.51302 -1.23828,3.32031zM285.71189,215.51669c-0.58594,-0.88021 -1.07032,-1.97526 -1.45313,-3.28516l0.83985,-0.28125c0.31771,1.08855 0.78646,2.10417 1.40625,3.04688zM285.17673,210.22372c-0.14062,-0.40885 -0.38281,-0.85807 -0.72656,-1.34765l0.62891,-0.1836c0.29427,0.42187 0.53776,0.86719 0.73047,1.33594zM286.29783,210.11825c-0.1875,-0.5026 -0.42578,-0.95312 -0.71485,-1.35156l0.59375,-0.16016c0.27865,0.34636 0.52084,0.77605 0.72657,1.28907zM293.09861,209.84482l0.55859,0.45703c-0.36458,1.66667 -0.95573,2.95703 -1.77344,3.87109c-0.45312,0.50521 -1.03906,0.94792 -1.75781,1.32813c-0.51041,0.26823 -1.05859,0.48177 -1.64453,0.64062l-0.45312,-0.76953c1.33854,-0.34896 2.3776,-0.90625 3.11718,-1.67188c-0.60937,-0.54687 -1.28125,-1.03125 -2.01562,-1.45312l0.51172,-0.63281c0.71615,0.37239 1.39714,0.83073 2.04297,1.375c0.50781,-0.8125 0.82682,-1.59896 0.95703,-2.35938h-2.75c-0.63021,0.98177 -1.3724,1.73308 -2.22657,2.25391l-0.57421,-0.6211c0.82552,-0.49739 1.5039,-1.15494 2.03515,-1.97265c0.27344,-0.41667 0.48568,-0.86589 0.63672,-1.34766l0.84766,0.20703c-0.08594,0.23438 -0.1823,0.46615 -0.28907,0.69532zM297.37595,211.14169c-0.82291,-0.36719 -1.67838,-0.66146 -2.5664,-0.88281l0.27343,-0.83985c1.02865,0.23438 1.89193,0.52605 2.58985,0.875zM294.9072,215.02841c1.28907,-0.10937 2.27605,-0.33984 2.96094,-0.69141c0.80729,-0.41667 1.42708,-1.05599 1.85937,-1.91797c0.28125,-0.55729 0.50912,-1.28645 0.6836,-2.1875l0.75,0.55079c-0.21094,0.96354 -0.46615,1.72916 -0.76563,2.29687c-0.54167,1.03385 -1.36979,1.78255 -2.48437,2.24609c-0.70313,0.29167 -1.64323,0.5 -2.82031,0.625zM302.44236,209.8956h2.10547c0.23177,-0.36979 0.40755,-0.66797 0.52734,-0.89453l0.87109,0.125c-0.07812,0.14062 -0.21614,0.36979 -0.41406,0.6875l-0.0508,0.082h2.75391v0.76953h-3.27344c-0.34115,0.46875 -0.66667,0.875 -0.97656,1.21875c0.49219,-0.29427 0.9414,-0.44141 1.34765,-0.44141c0.63021,0 1.04297,0.31641 1.23828,0.94922c0.66667,-0.22135 1.34636,-0.4401 2.03907,-0.65625l0.33593,0.75781l-0.13671,0.0391l-0.38672,0.10156c-0.72917,0.19791 -1.3125,0.36718 -1.75,0.50781c0.03127,0.33854 0.0534,0.77604 0.0664,1.3125l-0.85547,0.0469c-0.00267,-0.3099 -0.00787,-0.64584 -0.0156,-1.00782v-0.0781c-1.19792,0.40885 -1.79688,0.82031 -1.79688,1.23437c0,0.21355 0.15365,0.35938 0.46094,0.4375c0.29687,0.07552 0.82812,0.11328 1.59375,0.11328c0.70573,0 1.44662,-0.04036 2.22266,-0.12109l0.0937,0.83203c-0.75261,0.05727 -1.53256,0.0859 -2.33985,0.0859c-0.99479,0 -1.70182,-0.07552 -2.12109,-0.22656c-0.51823,-0.1875 -0.77734,-0.52474 -0.77734,-1.01172c0,-0.41146 0.18359,-0.77474 0.55078,-1.08985c0.38021,-0.32552 1.04948,-0.66146 2.00781,-1.00781c-0.05207,-0.20052 -0.12108,-0.34114 -0.20703,-0.42187c-0.09635,-0.09115 -0.22396,-0.13672 -0.38281,-0.13672c-0.25781,0 -0.58203,0.09766 -0.97266,0.29297c-0.48177,0.23958 -0.9987,0.60026 -1.55078,1.08203l-0.51953,-0.59375c0.80989,-0.75261 1.44401,-1.49219 1.90234,-2.21875h-1.58984zM311.99705,214.16513c-0.68229,0.22656 -1.36849,0.40234 -2.0586,0.52734l-0.23828,-0.79297c0.92448,-0.125 1.73307,-0.29427 2.42578,-0.50781c0.01827,-0.20313 0.0313,-0.50261 0.0391,-0.89844h-1.99218v-0.73437h1.99218v-0.98047h-2.13671v-0.74219h2.13671v-1.23828h0.8711v3.375c0,0.74479 -0.02473,1.29688 -0.0742,1.65625c-0.08333,0.58594 -0.28385,1.08334 -0.60156,1.49219c-0.33855,0.43229 -0.80079,0.80208 -1.38672,1.10937l-0.60156,-0.67187c0.64062,-0.26563 1.1276,-0.67578 1.46093,-1.23047c0.06771,-0.11198 0.1224,-0.23307 0.16407,-0.36328zM314.9658,210.03622h2.20703v0.74219h-2.20703v1.05078h1.95703v0.72656h-1.95703v1.08203h2.39843v0.75391h-2.39843v2.00781h-0.87891v-7.60156h0.87891zM322.71189,214.75888l0.0547,0.69922c-1.13021,0.39843 -2.38672,0.72656 -3.76953,0.98437l-0.28907,-0.78125c0.23959,-0.03647 0.57813,-0.09506 1.01563,-0.17578v-1.42969c-0.45052,0.22917 -0.98698,0.44662 -1.60938,0.65235l-0.44531,-0.69532c1.25261,-0.33854 2.20834,-0.77083 2.86719,-1.29687h-2.78906v-0.67969h3.34765v-0.58984h-2.53125v-0.65625h2.53125v-0.55078h-2.92969v-0.67188h2.92969v-0.76953h0.85547v0.76953h3.01563v0.67188h-3.01563v0.55078h2.61719v0.65625h-2.61719v0.58984h3.43359v0.67969h-0.93359l0.57813,0.39844c-0.35677,0.34635 -0.85677,0.72526 -1.5,1.13672l-0.0899,0.0586c0.48959,0.44791 1.15365,0.8177 1.99219,1.10937l-0.52734,0.79297c-0.90886,-0.38541 -1.63933,-0.86979 -2.19141,-1.45312zM321.5283,212.72763c-0.26042,0.30469 -0.57422,0.57812 -0.94141,0.82031v1.75391c0.64323,-0.14323 1.28906,-0.3099 1.9375,-0.5l0.17969,-0.0508c-0.53385,-0.59115 -0.92578,-1.26563 -1.17578,-2.02344zM322.95408,213.79403c0.46354,-0.33073 0.86979,-0.6901 1.21875,-1.07812h-1.84766c0.16667,0.39844 0.3763,0.75781 0.62891,1.07812zM330.04001,212.12607v3.46484c0,0.31511 -0.0638,0.52995 -0.1914,0.64453c-0.11979,0.10417 -0.35156,0.15625 -0.69531,0.15625c-0.39063,0 -0.76172,-0.02473 -1.11329,-0.0742l-0.16796,-0.82422c0.36458,0.05987 0.71354,0.0898 1.04687,0.0898c0.11198,0 0.18229,-0.01953 0.21094,-0.0586c0.0208,-0.03387 0.0312,-0.08986 0.0312,-0.16797v-3.23046h-3.35938v-0.77735h7.52735v0.77735zM326.73923,209.23153h5.64844v0.76954h-5.64844zM325.75486,215.22372c0.5625,-0.58854 1.01562,-1.37109 1.35937,-2.34765l0.8086,0.30468c-0.39844,1.11719 -0.89974,1.99479 -1.50391,2.63282zM332.45798,215.70028c-0.53906,-1.14062 -1.00781,-1.97525 -1.40625,-2.5039l0.73438,-0.4375c0.57291,0.73698 1.06119,1.53906 1.46484,2.40625zM334.45798,216.06357c-0.09895,-0.88542 -0.14843,-1.76563 -0.14843,-2.64063c0,-1.5 0.11068,-2.92448 0.33203,-4.27344l0.85937,0.0898c-0.21093,1.16667 -0.3164,2.48307 -0.3164,3.94922c0,0.98437 0.05469,1.90494 0.16406,2.76171zM336.80173,209.87607h3.75391v0.83203h-3.75391zM340.82126,215.5831c-0.52083,0.08073 -1.13932,0.12109 -1.85546,0.12109c-1.79948,0 -2.69922,-0.52865 -2.69922,-1.58594c0,-0.41927 0.11198,-0.78515 0.33593,-1.09765l0.73829,0.32812c-0.14063,0.19792 -0.21094,0.42058 -0.21094,0.66797c0,0.30469 0.15234,0.51432 0.45703,0.62891c0.33854,0.13021 0.80078,0.19531 1.38672,0.19531c0.63281,0 1.21875,-0.04167 1.75781,-0.125zM342.45408,209.12607h0.92187v4.65625c0,0.98177 0.51563,1.47265 1.54688,1.47265c0.67969,0 1.23698,-0.3138 1.67187,-0.9414c0.28125,-0.40365 0.53386,-1.02865 0.75781,-1.875l0.79297,0.48046c-0.26562,0.94011 -0.58463,1.64323 -0.95703,2.10938c-0.58593,0.72656 -1.34765,1.08984 -2.28515,1.08984c-0.97917,0 -1.66927,-0.30208 -2.07032,-0.90625c-0.2526,-0.3776 -0.3789,-0.86458 -0.3789,-1.46093zM352.08689,208.98153h0.86328v0.98438h2.45703v0.74219h-2.45703v0.92968h2.32031v0.73438h-2.32031v1.20703c0.92709,0.3125 1.84115,0.78255 2.74219,1.41016l-0.46094,0.74218c-0.68229,-0.51041 -1.44271,-0.96093 -2.28125,-1.35156c-0.0208,0.44531 -0.10674,0.79037 -0.25781,1.03516c-0.26302,0.42448 -0.78125,0.63672 -1.55469,0.63672c-0.59635,0 -1.07552,-0.11198 -1.4375,-0.33594c-0.40365,-0.25 -0.60547,-0.58854 -0.60547,-1.01563c0,-0.51041 0.27214,-0.88802 0.81641,-1.13281c0.36458,-0.16146 0.83854,-0.24219 1.42187,-0.24219c0.22917,0 0.48047,0.01823 0.75391,0.0547v-1.00781h-2.76953v-0.73438h2.76953v-0.92968h-2.9375v-0.74219h2.9375zM352.08689,214.10653c-0.30989,-0.06513 -0.60677,-0.0977 -0.89063,-0.0977c-0.34635,0 -0.6276,0.05078 -0.84375,0.15234c-0.25781,0.1224 -0.38671,0.29688 -0.38671,0.52344c0,0.19011 0.10026,0.34375 0.30078,0.46094c0.20312,0.11979 0.47395,0.17968 0.8125,0.17968c0.40104,0 0.67708,-0.10677 0.82812,-0.32031c0.11979,-0.16667 0.17969,-0.41536 0.17969,-0.74609zM360.37986,208.9581h0.8789v1.07812h2.30469v0.75391h-2.30469v1.67187c0.09115,0.32031 0.13672,0.60547 0.13672,0.85547c0,0.92709 -0.20443,1.60808 -0.61328,2.04297c-0.44531,0.47656 -1.11589,0.80599 -2.01172,0.98828l-0.44531,-0.66406c0.69531,-0.13281 1.21094,-0.32031 1.54688,-0.5625c0.3151,-0.22917 0.52734,-0.54036 0.63671,-0.93359c-0.27864,0.30469 -0.61067,0.45703 -0.99609,0.45703c-0.43229,0 -0.78255,-0.1224 -1.05078,-0.36719c-0.31511,-0.28906 -0.47266,-0.70833 -0.47266,-1.25781c0,-0.28907 0.06901,-0.56771 0.20703,-0.83594c0.09115,-0.17187 0.20313,-0.3151 0.33594,-0.42969c0.30729,-0.26041 0.67578,-0.39062 1.10547,-0.39062c0.27344,0 0.52084,0.0651 0.74219,0.19531v-0.76953h-3.85547v-0.75391h3.85547zM360.41106,213.01278v-0.14453c0,-0.16667 -0.03906,-0.3138 -0.11719,-0.4414c-0.14583,-0.23959 -0.35677,-0.35938 -0.63281,-0.35938c-0.14063,0 -0.27214,0.03906 -0.39453,0.11719c-0.28646,0.17969 -0.42969,0.45573 -0.42969,0.82812c0,0.23438 0.05208,0.4323 0.15625,0.59375c0.14583,0.22396 0.36068,0.33594 0.64453,0.33594c0.25781,0 0.46224,-0.11588 0.61328,-0.34765c0.10677,-0.16407 0.16016,-0.35808 0.16016,-0.58204z"/></g></g></g></svg>