<?xml version="1.0" encoding="UTF-8"?>
<svg width="80" height="80" version="1.1" viewBox="0 0 80 80" xmlns="http://www.w3.org/2000/svg">
 <rect width="80" height="80" fill-opacity="0"/>
 <path d="m39.795 17.287c-2.2097 0.02066-4.1951 0.57188-5.9531 1.6602-1.7493 1.0667-3.1579 2.5387-4.2246 4.416-1.024 1.8347-1.5352 3.9684-1.5352 6.4004v22.08c0 2.3893 0.51116 4.5231 1.5352 6.4004 1.0667 1.8773 2.4753 3.3711 4.2246 4.4805 1.758 1.0464 3.7435 1.5758 5.9531 1.5957h0.38281c2.2089-0.01986 4.1725-0.54928 5.8887-1.5957 1.792-1.1093 3.1987-2.6031 4.2227-4.4805 1.0667-1.8773 1.6016-4.0111 1.6016-6.4004v-22.08c0-2.432-0.5349-4.5657-1.6016-6.4004-1.024-1.8773-2.4307-3.3493-4.2227-4.416-1.7161-1.0883-3.6798-1.6395-5.8887-1.6602zm0.12695 4.9883h0.12891c1.92 0 3.392 0.66171 4.416 1.9844 1.0667 1.28 1.5996 3.1146 1.5996 5.5039v22.08c0 2.3467-0.53294 4.1812-1.5996 5.5039-1.024 1.28-2.496 1.9199-4.416 1.9199h-0.12891c-1.8773 0-3.3493-0.63992-4.416-1.9199-1.0667-1.3227-1.5996-3.1572-1.5996-5.5039v-22.08c0-2.3893 0.53294-4.2239 1.5996-5.5039 1.0667-1.3227 2.5387-1.9844 4.416-1.9844z" fill="#fff"/>
</svg>
