<svg version="1.1" xmlns="http://www.w3.org/2000/svg" xmlns:xlink="http://www.w3.org/1999/xlink" width="208" height="32" viewBox="0,0,208,32"><g transform="translate(-240,-164)"><g data-paper-data="{&quot;isPaintingLayer&quot;:true}" fill-rule="nonzero" stroke="none" stroke-linecap="butt" stroke-linejoin="miter" stroke-miterlimit="10" stroke-dasharray="" stroke-dashoffset="0" style="mix-blend-mode: normal"><path d="M240,196v-32h208v32z" fill="none" stroke-width="0"/><path d="M250.96,177.08v1.2598h6.5234v7.5195h-14.961v-7.5195h6.3965v-1.2598h-8.418v-1.6406h4.9023v-1.582h-3.8574v-1.6016h3.8574v-1.7578h2.0996v1.7578h4.8633v-1.7578h2.1191v1.7578h3.9746v1.6016h-3.9746v1.582h5.0195v1.6406zM248.919,179.8632h-4.2969v1.4551h4.2969zM250.96,179.8632v1.4551h4.4043v-1.4551zM248.919,182.7538h-4.2969v1.6211h4.2969zM250.96,182.7538v1.6211h4.4043v-1.6211zM252.3662,173.8573h-4.8633v1.582h4.8633zM240.3452,188.0373c2.40887,-0.49479 4.5215,-1.20769 6.3379,-2.1387l1.6406,1.2012c-1.98567,1.15887 -4.1927,2.02477 -6.6211,2.5977zM258.0212,189.5998c-1.92707,-0.90493 -4.07877,-1.72523 -6.4551,-2.4609l1.6016,-1.2402c2.08333,0.50781 4.22853,1.22071 6.4356,2.1387z" fill="#ffffff" stroke-width="1"/><path d="M277.76,175.8c0,0.30599 -0.0293,1.75783 -0.0879,4.3555h1.8652v1.7578h-1.9043c-0.01953,0.85287 -0.06185,1.81967 -0.12695,2.9004h1.6504v1.7188h-1.7774c-0.07813,0.944 -0.18555,1.569 -0.32226,1.875c-0.30599,0.7292 -1.04819,1.0938 -2.2266,1.0938c-0.7552,0 -1.4518,-0.05534 -2.0898,-0.16601l-0.36133,-1.7383c0.918,0.13021 1.62113,0.19531 2.1094,0.19531c0.39713,0 0.63476,-0.13997 0.71289,-0.41992c0.03907,-0.13672 0.07487,-0.41667 0.10742,-0.83985h-6.9531c-0.00667,0.05207 -0.01643,0.10741 -0.0293,0.16602c-0.0586,0.34505 -0.11394,0.67057 -0.16602,0.97656l-2.0215,-0.19531c0.39713,-2.35027 0.66406,-4.1276 0.80078,-5.332l0.0293,-0.23438h-1.9531v-1.7578h2.1582c0.18229,-1.57553 0.33854,-3.02737 0.46875,-4.3555zM271.5881,177.4992h-2.1387c-0.01953,0.33203 -0.07813,1.0319 -0.17578,2.0996l-0.0586,0.55664h2.168l0.0293,-0.27344c0.013,-0.1888 0.03253,-0.45247 0.0586,-0.79101c0.06513,-0.91147 0.1042,-1.44207 0.11719,-1.5918zM273.5119,177.4992c-0.03253,0.77473 -0.08136,1.63087 -0.14648,2.5684v0.0879h2.2949c0.02607,-0.89193 0.04887,-1.77733 0.0684,-2.6562zM271.2267,181.9133h-2.1973c-0.09765,0.79427 -0.20182,1.57877 -0.3125,2.3535l-0.0781,0.54687h2.2852c0.15625,-1.41273 0.25717,-2.37953 0.30274,-2.9004zM273.2287,181.9133c-0.01953,0.26042 -0.0586,0.69012 -0.11719,1.2891l-0.15625,1.6113h2.4902c0.03253,-0.63151 0.05857,-1.10677 0.0781,-1.4258c0.03907,-0.6966 0.0651,-1.18813 0.0781,-1.4746zM269.4006,172.2746h9.4336v1.8164h-10.244c-0.52735,1.0742 -1.19791,2.09633 -2.0117,3.0664l-1.3965,-1.5234c1.28253,-1.50393 2.194,-3.2357 2.7344,-5.1953l2.0801,0.21485c-0.23437,0.67707 -0.43294,1.21743 -0.5957,1.6211zM264.0197,175.1164c-0.8008,-1.10027 -1.7741,-2.13217 -2.9199,-3.0957l1.4746,-1.4258c1.0612,0.78127 2.07033,1.7676 3.0274,2.959zM263.31657,180.2726c-0.9896,-1.26953 -1.98893,-2.334 -2.998,-3.1934l1.5234,-1.4648c1.1328,0.89193 2.15167,1.90757 3.0566,3.0469zM260.66037,187.9386c1.1328,-1.569 2.20703,-3.63607 3.2227,-6.2012l1.7383,1.2402c-0.84633,2.3698 -1.93357,4.54427 -3.2617,6.5234z" fill="#ffffff" stroke-width="1"/></g></g></svg>