<svg version="1.1" xmlns="http://www.w3.org/2000/svg" xmlns:xlink="http://www.w3.org/1999/xlink" width="70" height="40" viewBox="0,0,70,40"><g transform="translate(-145,-340)"><g data-paper-data="{&quot;isPaintingLayer&quot;:true}" stroke="none" stroke-miterlimit="10" stroke-dasharray="" stroke-dashoffset="0" style="mix-blend-mode: normal"><path d="M145,380v-40h70v40z" fill-opacity="0.00392" fill="#272b32" fill-rule="evenodd" stroke-width="0.25" stroke-linecap="square" stroke-linejoin="round"/><path d="M164,376v-32h32v32z" fill-opacity="0" fill="#000000" fill-rule="nonzero" stroke-width="1" stroke-linecap="butt" stroke-linejoin="miter"/><g fill="#ffffff" fill-rule="nonzero" stroke-width="1" stroke-linecap="butt" stroke-linejoin="miter"><path d="M156.617,366.674h1.0239v4.8076h-1.0239zM161.1302,366.58171h1.0239v3.1421c0,1.10447 -0.08936,1.92623 -0.26807,2.4653c-0.14941,0.45996 -0.35303,0.82616 -0.61084,1.0986c-0.53613,0.57715 -1.39747,1.00341 -2.584,1.2788l-0.50537,-0.90088c1.29787,-0.26367 2.1299,-0.70167 2.4961,-1.314c0.23145,-0.38965 0.37061,-0.88185 0.41748,-1.4766c0.02051,-0.27539 0.03076,-0.65626 0.03076,-1.1426z"/><path d="M163.709,367.206h6.8862l0.5669,0.479c-0.16406,0.61231 -0.37793,1.12354 -0.6416,1.5337c-0.49512,0.7764 -1.23632,1.35647 -2.2236,1.7402l-0.55371,-0.75586c0.6826,-0.20508 1.2495,-0.57275 1.7007,-1.103c0.2666,-0.31348 0.45263,-0.64453 0.5581,-0.99316h-6.293zM166.5259,369.1044h1.0063v0.75586c0,1.1338 -0.12598,2.00977 -0.37793,2.6279c-0.31933,0.78513 -0.94043,1.4238 -1.8633,1.916l-0.7251,-0.76465c0.63574,-0.30176 1.10011,-0.66213 1.3931,-1.0811c0.22559,-0.32519 0.37354,-0.66943 0.44385,-1.0327c0.08203,-0.41601 0.12305,-0.97411 0.12305,-1.6743z"/><path d="M173.733,366.991h0.98877v1.5996c0,1.5322 -0.11426,2.65133 -0.34277,3.3574c-0.30176,0.9346 -0.93456,1.7139 -1.8984,2.3379l-0.67236,-0.78223c0.668,-0.46875 1.1382,-0.95508 1.4106,-1.459c0.22851,-0.42481 0.37939,-0.99464 0.45264,-1.7095c0.04101,-0.40429 0.06152,-0.97999 0.06152,-1.7271zM175.983,366.73612h0.98877v6.2446c0.58301,-0.30176 1.09424,-0.73096 1.5337,-1.2876c0.48047,-0.60937 0.83937,-1.33154 1.0767,-2.1665l0.77344,0.74707c-0.29297,0.87013 -0.69433,1.6128 -1.2041,2.228c-0.6416,0.7764 -1.48243,1.38723 -2.5225,1.8325l-0.646,-0.5581z"/><path d="M187.506,367.483l0.62842,0.51416c-0.41015,1.875 -1.07519,3.32667 -1.9951,4.355c-0.50977,0.56836 -1.16893,1.06639 -1.9775,1.4941c-0.57422,0.30176 -1.19092,0.54199 -1.8501,0.7207l-0.50976,-0.86572c1.50587,-0.39258 2.6748,-1.01955 3.5068,-1.8809c-0.68553,-0.61523 -1.4414,-1.16017 -2.2676,-1.6348l0.57568,-0.71191c0.80567,0.41895 1.57177,0.93458 2.2983,1.5469c0.57129,-0.91407 0.93019,-1.79883 1.0767,-2.6543h-3.0938c-0.709,1.10447 -1.54397,1.94967 -2.5049,2.5356l-0.646,-0.69873c0.92873,-0.55957 1.69193,-1.29931 2.2896,-2.2192c0.30762,-0.46875 0.54639,-0.97411 0.71631,-1.5161l0.95361,0.23291c-0.09668,0.26367 -0.20508,0.52442 -0.3252,0.78223z"/><path d="M192.353,374.466v-4.5088c-0.8906,0.59765 -1.9072,1.10155 -3.0498,1.5117l-0.53174,-0.89209c1.29787,-0.43652 2.43607,-0.99902 3.4146,-1.6875c0.96093,-0.67673 1.8164,-1.45163 2.5664,-2.3247l0.84814,0.53174c-0.66504,0.76467 -1.40624,1.46633 -2.2236,2.105v5.2646z"/><path d="M196.172,372.954c0.20215,-0.00293 0.48047,-0.01758 0.83496,-0.04395c0.83493,-1.875 1.60397,-3.93897 2.3071,-6.1919l1.0063,0.26367c-0.6914,2.16213 -1.42967,4.11477 -2.2148,5.8579c1.48827,-0.1084 2.8081,-0.24024 3.9595,-0.39551c-0.43359,-0.76467 -0.87453,-1.47073 -1.3228,-2.1182l0.86572,-0.54932c0.92287,1.27147 1.73293,2.61913 2.4302,4.043l-0.98877,0.51416c-0.16113,-0.33984 -0.33838,-0.69434 -0.53174,-1.0635c-1.71093,0.28711 -3.7544,0.54199 -6.1304,0.76465z"/></g><path d="M180.817,346.72c0.36366,0.0072 0.68529,0.23777 0.80936,0.57969l2.6062,7.1656l0.63438,-0.95312c0.16326,-0.24511 0.43831,-0.3923 0.73282,-0.39218h2.4v1.7594h-1.9297l-1.3375,2.0078c-0.1841,0.2761 -0.50784,0.42519 -0.83732,0.38558c-0.32947,-0.0396 -0.60866,-0.2612 -0.72205,-0.57307l-2.3375,-6.4282l-3.2016,9.6064c-0.11549,0.34662 -0.43314,0.58585 -0.79818,0.60112c-0.36504,0.01528 -0.70155,-0.19659 -0.84558,-0.53236l-2.1703,-5.0672h-1.8203v-1.7594h2.4c0.35208,-0.00028 0.67043,0.20931 0.80936,0.53282l1.4875,3.4718l3.2687,-9.8032c0.12176,-0.36518 0.46672,-0.60886 0.8516,-0.60156z" fill="#ffffff" fill-rule="nonzero" stroke-width="1" stroke-linecap="butt" stroke-linejoin="miter"/></g></g></svg>