<svg version="1.1" xmlns="http://www.w3.org/2000/svg" xmlns:xlink="http://www.w3.org/1999/xlink" width="221.10438" height="214.67142" viewBox="0,0,221.10438,214.67142"><g transform="translate(-9.52276,18.30584)"><g data-paper-data="{&quot;isPaintingLayer&quot;:true}" fill="none" fill-rule="evenodd" stroke="#fc3324" stroke-width="36" stroke-linecap="round" stroke-linejoin="round" stroke-miterlimit="4" stroke-dasharray="" stroke-dashoffset="0" style="mix-blend-mode: normal"><g><path d="M27.52276,178.36558v0"/><path d="M31.26716,172.91645l2.13766,0.47992l-1.01184,1.51976l-1.12582,-1.99968"/><path d="M212.62714,107.81687l-3.97937,1.56975l0.57991,-2.36962l-1.21981,-1.8797l-3.20949,-1.63974l0.29996,-4.82923l2.18965,-0.16998l1.78971,-2.34963l3.39946,-2.94952l-0.05999,-3.32947l-0.85987,0.22996l-1.80971,-4.86922l-3.48944,-0.17997l-1.92969,0.98984l-4.12934,-0.80987l-5.37914,3.91937l-3.87238,0.94985l-0.93885,-1.09982l-3.44045,0.46992l0.92885,1.8697l-4.08035,5.25916l-1.96868,4.29931l-2.42462,2.17966l-3.25348,0.31995l-0.12498,2.40961l-3.38945,3.64942l-4.00136,0.88986l-2.5186,1.63973l-0.27896,-1.32979l3.1065,-1.69973l2.15066,-2.03967l0.16998,-1.74972l1.93769,-3.45945l0.71089,0.17997l0.36494,-3.61942l-1.72372,0.80987l-1.18781,-1.66974l2.17665,-0.25996l0.45193,-1.42977l2.99752,0.80987l0.41294,-2.5296l1.82771,-2.05967l-0.47792,-1.31979l-2.00068,3.46945l-2.58559,-0.36994l1.2618,-1.2698l-3.49544,-3.1095l0.40393,-2.05967l-3.45945,-2.70956l1.05583,-2.24964l-3.1095,-0.07999l-0.83586,1.62974l-1.92669,-3.26947l-3.47744,-2.36962l-0.92885,-3.70941l-2.21165,-5.53912l-1.42277,0.10998l-1.29579,-2.65957l0.81387,-4.16933l1.8837,0.08998l-0.18397,-6.55895l0.91785,0.18997l1.37078,-3.81939l0.43094,-3.23948l3.30247,1.32978l2.58859,2.76956l-0.91786,2.17965l2.32463,-1.60975l0.83186,2.02968l-1.26779,0.69989l-1.34278,3.60942l1.01783,2.00968l2.14066,-3.78939l2.23564,1.97968l1.45177,-0.30995l2.41062,3.98936l-1.38878,0.57991l0.52492,5.18917l-1.72772,0.66989l-0.07699,-4.05935l-1.32879,0.88986l-0.16297,4.64925l2.30463,-0.01l0.38994,1.79971l-2.24565,2.33963l5.58211,3.65942l2.20065,-0.18997l0.43793,-1.99968l2.68957,-2.26964l3.68741,2.67957l1.59274,-0.44992l0.78888,1.73972l1.51476,-0.39994l0.82387,1.57975l2.37862,-0.43992l-1.54175,-2.24964l-2.67757,-1.97969l0.84186,-1.70972l-2.07767,-0.71989l0.34395,-1.03984l-2.27264,-2.39961l-0.28196,-5.17918l2.24565,-2.09966l-0.50092,-3.29948l-2.17466,-2.27963l-1.97368,-0.73988l-1.13881,-2.07967l-1.79872,-1.02983l-2.03267,0.35995l-3.21049,3.0795l1.50676,-2.71956l-3.55843,-1.04983l-1.40177,-4.13934l0.99884,-3.41945l-1.28479,-1.43977l-3.05351,-0.44993l-2.85255,2.48961l-0.22396,-4.50928l-2.4846,0.49992l1.28079,5.05919l-3.7634,0.73988l-0.76887,1.21981l-0.84587,-2.42961l4.06135,-1.81971l-2.02568,-1.98968l0.31895,-1.10982l-3.08751,-1.2998l0.48593,-1.40977l-1.53575,-2.53959l-1.43977,2.01968l-1.39278,-2.11966l-5.21616,-1.2498l0.6069,-1.09982l0.33295,-4.66926l2.00768,-0.64989l-0.5919,-2.21965l1.2068,-0.86986l-3.32247,-3.26947l1.2628,-0.59991l0.33495,-6.05903l2.64257,1.39978l1.40478,-0.90985l2.90753,1.36978l2.80255,-2.41961l0.22096,3.84939l1.9207,-0.98985l0.86986,1.77972l3.97537,-2.45961l2.81055,1.36978l1.51076,-1.91969l0.21396,3.7394"/><path d="M55.3243,98.8683l0.51092,1.94969l-1.72772,3.05951l-0.70189,-2.08967l1.91869,-2.91953"/><path d="M91.15157,85.65042l1.43977,2.4896l-0.30895,2.32963l-1.78871,1.02983l-2.36562,-1.03983l1.65074,-1.16981l1.37278,-3.63942"/><path d="M72.74052,84.81055l-0.47393,2.5396l2.21265,1.95968l-1.16881,1.13982l3.36846,-0.26996l-0.73689,5.19917l1.2588,2.30963l4.32931,4.23932l-0.36295,1.55975l-2.23664,-0.32994l-5.22616,0.81987l-0.69489,-1.97969l-4.13934,1.03984l-0.71589,3.13949l2.91353,1.78972l0.12398,1.37978l-2.04267,2.02967l-1.99868,-0.5899l-1.61174,-3.26947l-4.83723,0.52991l-2.31163,-0.67989l-0.84686,2.06967l-2.58258,-1.66973l-3.27248,-0.91986l1.67973,-3.90937l2.39862,4.29931l1.67773,-0.40993l0.6039,-2.16965l-2.4616,0.6499l0.28995,-1.71973l3.22348,-1.46976l-2.31762,-3.37946l-0.15198,-4.49928l0.54791,-2.42961l-1.28479,-2.60958l2.32863,-2.62958l3.37146,2.00968l0.78887,2.53959l2.08467,-1.26979l1.8557,0.13997l1.05084,-1.76971l1.01384,1.05983l4.3533,-4.46929"/><path d="M78.25564,79.26144l3.66642,2.74956l0.18397,3.94937l-1.81171,2.63958l-1.82871,0.32995l-2.66157,-1.69973l-0.16298,-7.20884l2.32263,0.38993l0.50691,3.19949l1.01684,1.2498l0.21397,-2.39962l-1.2378,-1.01984l-0.20797,-2.17965"/><path d="M86.0154,74.5022l1.67873,1.8597l-0.67789,6.45897l-0.98884,1.37978l-0.6609,-3.03951l-1.63674,-1.70972l-3.69641,-1.16982l0.6319,-2.84954l2.82355,0.80987l1.61674,3.7194l-0.13698,-2.68957l1.16681,1.40977l0.6399,-2.74956l-0.75988,-1.42977"/><path d="M90.85362,68.75312l2.09967,0.83987l2.23165,3.66942l-0.98885,4.72924l-2.17865,-1.47976l-3.56443,-0.51992l0.90085,-0.72988l-1.39277,-2.4896l3.16449,0.27996l-1.49876,-2.60959l1.2268,-1.68973"/><path d="M88.16505,68.81311l0.33395,1.65974l-1.9337,1.51976l-1.68973,-1.63974l2.61658,0.41993l0.67289,-1.95969"/><path d="M127.16381,58.2548l0.81687,2.15966l-1.67374,0.5899l-0.24096,-2.05967l1.09783,-0.68989"/><path d="M148.03447,57.13498l2.28064,0.42993l-0.10798,1.66974l-1.70273,0.18997l-0.46992,-2.28963"/><path d="M116.58451,58.00484l1.37378,0.39993l-1.02983,2.70957l-2.85854,-0.14998l2.5146,-2.95952"/><path d="M152.72472,52.97565l2.58659,1.72973l-2.61658,3.40946l-2.09767,-0.66989l0.42993,-2.23964l1.69773,-2.22965"/><path d="M168.66717,43.64714l2.58159,0.71989l-0.75488,3.97936l0.6769,2.57959l-2.12666,1.16981l-0.90585,2.22965l-2.09067,-0.91986l-1.32079,-4.57926l1.77371,0.18997l0.04699,-3.20949l1.37777,1.37977l-0.28995,-2.08966l1.03184,-1.44976"/><path d="M146.23676,42.6573l0.6059,1.83971l-1.35778,0.6299l-2.94653,-0.86986l3.69841,-1.59974"/><path d="M103.15465,41.16754l0.49992,0.76988l-1.41877,4.22932l1.67873,1.76972l-0.91186,4.29931l-1.98568,3.85938l0.49292,4.59927l-0.80387,2.14965l3.19149,-0.19996l1.50076,-2.15966l4.19532,-0.51992l0.47192,4.21932l-3.36846,1.81971l-0.6449,2.10967l-3.05352,-0.33995l-0.29895,1.87969l-2.38162,2.55959l1.55875,5.20917l-3.41345,-0.27996l-0.20097,5.38914l-2.08166,-0.6099l0.41693,-5.44913l0.81087,-1.31979l-0.46292,-5.0092l-1.49476,-0.42994l-0.19197,-2.43961l-1.30479,1.47976l-1.61374,-1.49976l-0.71689,-2.4996l5.46813,-1.46976l-1.04684,-1.61974l0.41594,-5.01919l2.05167,-1.09983l0.36594,2.91953l1.82671,-0.74988l-0.95085,-1.02984l0.66289,-4.9492l1.59775,-0.51992l0.6389,-2.70956l-1.32679,-2.04967l1.8277,-5.28916"/><path d="M150.92501,37.6281l-0.03999,3.01952l-1.10483,-1.64974l1.14482,-1.36978"/><path d="M104.1305,35.25848l2.07567,2.5396l-1.2158,0.84986l0.37794,2.26963l-1.08483,0.42993l0.018,-2.98952l-0.95485,-2.40962l0.78388,-0.68989"/><path d="M97.54755,34.5086l-0.12198,1.18981l2.46961,0.17997l0.85786,2.67958l-2.07067,-0.92986l-1.85071,1.31979l-2.13866,-2.16965l2.85454,-2.26964"/><path d="M104.7194,24.67018l2.81755,3.60942l-2.84954,1.51976l-0.54091,1.62974l-2.28064,-0.35994l-2.99952,-2.67957l2.21064,-1.81971l2.90753,-0.28995l0.73488,-1.60975"/><path d="M171.54071,11.21233l2.27564,0.46992l0.89585,2.40962l3.1035,1.55975l-1.74672,1.44976l-2.09067,0.21997l-0.93585,1.83971l-0.76788,-2.14965l0.92286,-3.92937l-1.65674,-1.8697"/><path d="M147.30259,11.83223l1.17481,6.52895l-2.03168,0.72988l-0.91985,1.88969l-2.29263,0.31995l1.00284,3.33946l-1.9257,0.07999l0.76688,1.43977l-1.67773,0.85987l0.58391,2.77955l-3.78239,5.44913l-1.15582,0.06999l-1.79672,2.65958l-5.88405,2.65957l-2.66258,-1.62974l1.40477,-2.5096l1.04383,2.23964l2.5056,0.35994l0.86186,-1.93969l-1.35878,0.09999l-1.36878,-2.81955l1.52576,-2.06967l1.37078,-0.26996l1.57475,1.65974l0.30895,-2.28964l-2.15666,-1.10982l0.12798,-2.89953l1.96469,-0.14998l-0.25396,-1.2598l2.28763,-0.74988l-1.43777,-2.07967l1.10882,-1.92969l-0.68389,-1.79971l6.51296,-1.39978l0.56791,-2.73956l1.02584,-0.02999l-0.13198,3.15949l3.56943,-3.26947l-0.70389,-0.95985l-2.30963,0.29996l0.21997,-2.38962l3.02452,-0.32994"/><path d="M135.30851,8.09283l-0.6219,3.7594l0.83787,1.54976l-0.6009,2.59958l0.43293,2.37962l-1.99968,0.45993l-1.76672,-1.2198l0.97184,-1.17982l1.45177,-4.48928l-0.08299,-2.87954l1.37778,-0.97984"/><path d="M167.33938,4.5334l1.63074,1.2098l-0.23396,2.04967l2.05467,2.07967l-2.60259,-0.92986l-0.6219,2.21965l-2.59559,1.04983l-1.2568,-0.97984l2.41662,-1.65974l-0.36594,-1.11982l1.92569,-1.96968l-0.35094,-1.94968"/><path d="M147.49156,-0.30583l-0.25896,2.57959l2.96652,-0.76988l-0.76688,1.67973l-2.20565,1.46976l-2.4866,-1.77972l-1.07783,1.49976l-2.09866,0.04999l3.05451,-3.36946l2.87354,-1.35978"/></g></g></g></svg>