<svg version="1.1" xmlns="http://www.w3.org/2000/svg" xmlns:xlink="http://www.w3.org/1999/xlink" width="107.33611" height="149.54442" viewBox="0,0,107.33611,149.54442"><g transform="translate(-84.33706,-407.15419)"><g data-paper-data="{&quot;isPaintingLayer&quot;:true}" fill="#ff0000" fill-rule="evenodd" stroke="#ff0000" stroke-width="10" stroke-linecap="round" stroke-linejoin="round" stroke-miterlimit="10" stroke-dasharray="" stroke-dashoffset="0" style="mix-blend-mode: normal"><path d="M180.59041,427.79356l1.08096,1.39995l-0.37098,0.76997l0.19199,1.10996l1.76693,1.60994l0.25399,1.05995l-2.71889,-0.16999l-0.92296,0.62998l-1.13196,-0.11l-0.71797,-0.47999l-0.84996,-1.91992l-1.23195,-0.78997l-0.56798,-1.67993l0.64898,-1.87992l1.11795,-0.84997l1.63293,0.26999v0.48998l1.81892,0.53998"/><path d="M165.891,454.49249l-0.57497,1.44994l-0.99096,0.53998l-1.19495,1.17995l-0.51398,1.19995l-0.85397,-0.12l-0.10199,-0.90997l-0.72297,-1.22995l0.058,-1.28994l-0.62797,-1.02996l-0.04199,-1.13995l0.95196,-0.93996l2.82988,-1.15996l1.86693,-0.18999l0.28899,0.28999l-0.48898,2.28991l0.11699,1.05996"/><path d="M186.13019,416.49402l0.54298,1.13995l-0.29099,0.83997l-0.97796,0.41998l-2.07792,-0.98996l-0.87696,-0.89996l-0.40999,-1.00996l0.65598,-1.36995l0.72597,-0.62997l-0.52398,-1.11996l0.73397,-0.71997l0.58598,2.11991l1.07396,1.71993l0.83896,0.49998"/><path d="M113.82308,511.29022l0.15299,2.13991l-1.97592,-1.36995l-1.36595,-1.67993l1.45994,-0.64997l1.72893,0.04999l0.40198,0.77997l-0.40198,0.72997"/><path d="M153.24151,476.89159l-1.65294,-0.01l-0.048,-1.17995l-0.89896,-0.48998l0.21699,-1.18995l0.63797,-0.78997l1.41494,0.55998l1.06896,2.5299l-0.73897,0.56998"/><path d="M146.74177,425.39366l-1.56794,-0.32998l-0.19599,-1.81993l0.66497,-0.54998l1.32095,1.01996l0.43998,1.12995l-0.66197,0.54998"/><path d="M90.65401,551.18862l-0.86697,0.36999l-0.44998,-0.77997l1.31095,-0.15999l0.75197,-0.61997l0.92096,0.88996l-0.86397,0.80997l-0.80296,-0.50998"/><path d="M144.59185,449.49268l0.16299,-1.13995l0.65997,-0.39998l0.46698,0.26999l-0.17899,1.87993l-1.11095,-0.60998"/></g></g></svg>