<svg version="1.1" xmlns="http://www.w3.org/2000/svg" xmlns:xlink="http://www.w3.org/1999/xlink" width="48.01811" height="83.20163" viewBox="0,0,48.01811,83.20163"><g transform="translate(51.29511,-127.11333)"><g data-paper-data="{&quot;isPaintingLayer&quot;:true}" fill="#ff0000" fill-rule="evenodd" stroke="none" stroke-width="0" stroke-linecap="round" stroke-linejoin="round" stroke-miterlimit="10" stroke-dasharray="" stroke-dashoffset="0" style="mix-blend-mode: normal"><path d="M-26.98606,134.49297l1.69993,1.04696l0.95996,1.46194l0.92997,2.57789l3.30987,2.5839l2.5099,2.96488l0.32999,1.68093l1.37994,1.84093l1.29995,1.10296l1.20995,2.54489l-0.33998,1.87793l1.63993,2.24591l0.71997,0.42099l0.51998,1.24695l0.83996,-0.22599l0.89997,1.17295l0.31999,1.13096l1.07996,-0.28298l3.28987,1.89892l1.10995,2.14092l-0.53998,1.59393l-0.93996,0.79797l-1.02996,-0.41699l-1.09995,1.46695l-1.53994,1.42894l-1.43995,0.43698l-0.20999,0.90696l-1.45994,1.67794l-0.35998,1.04396l-2.15992,2.08292l-2.3899,1.43094l-0.02,2.76489l-1.32995,1.31495l1.43994,1.29895l0.74997,1.43394l-0.31999,1.74693l0.73997,1.42494l0.25999,2.5199l0.87996,0.86397l3.42986,-0.35498l0.17999,1.67694l-0.71997,0.95296l1.58993,1.40994l-0.52998,1.61293l1.34994,2.26191l-1.83992,1.00596l0.48998,1.06795l-1.29995,1.15395l-0.35998,2.34891l-0.92997,-0.32398l-1.22995,1.46794l-1.01996,1.77693l1.18995,0.73497l-4.42982,0.48498l-0.23999,-2.06691l-13.80944,1.53893l-0.43999,-1.04395l-1.45994,-0.37498l-1.52994,0.26898l-0.45998,-0.96496l0.95996,-1.25895l-0.62998,-0.38398l-1.48994,2.12791l-0.78997,0.23399l-2.17991,-0.57198l-0.91997,2.23791l-1.60993,1.48894l-2.05992,0.31799l-2.92988,1.74493l-3.52986,-3.46886l1.92992,-1.95992l0.35998,0.35598l2.13992,-1.97992l-0.17999,-1.96592l0.39998,-1.12696l1.05996,-0.31199l0.22999,-1.63994l0.84996,0.168l1.48994,-1.47294l3.74985,-4.9698l0.69997,-1.29095l2.19992,-2.67289l0.97996,-1.87193l1.67993,-2.4899l-0.20999,-1.88192l0.71997,-2.62689l-0.36999,-1.28495l0.68998,-2.59389l-0.41998,-4.45382l-2.07991,-4.48382l-0.81997,-1.15295l-0.62998,-1.99392l-1.77993,-2.01391l-0.20999,-1.22895l-1.35995,-2.6079l0.15,-2.3899l1.02996,-2.2769l0.55998,-0.62498l0.86997,-3.45386l-0.19999,-3.01188l-1.72993,-1.78193l-0.62998,-2.32591l-0.69997,-0.95896l-0.26998,-3.62885l-0.93997,-2.28791l-0.11,-1.26194l-0.78997,-2.00092l-0.1,-2.4719l0.72997,-1.66493l3.38986,1.36694l2.18992,-1.38194l1.17995,-0.025l0.88997,1.55494l-0.21999,1.04495l0.55998,1.07896l1.43994,0.075l0.70997,0.94396l2.98988,0.42199l1.12996,1.77093l1.05996,0.48898"/></g></g></svg>