<svg version="1.1" xmlns="http://www.w3.org/2000/svg" xmlns:xlink="http://www.w3.org/1999/xlink" width="76.08694" height="93.49628" viewBox="0,0,76.08694,93.49628"><g transform="translate(-303.32899,31.65412)"><g data-paper-data="{&quot;isPaintingLayer&quot;:true}" fill="#ff0000" fill-rule="evenodd" stroke="none" stroke-width="0" stroke-linecap="round" stroke-linejoin="round" stroke-miterlimit="10" stroke-dasharray="" stroke-dashoffset="0" style="mix-blend-mode: normal"><path d="M367.71639,-30.15424l-0.82997,0.26999l-0.73997,-0.38998l-1.95992,0.52998l-0.92996,0.70997l-0.51998,1.82993l1.61994,2.73989l-0.49998,1.10996l1.58994,2.21991l0.16999,1.44994l1.97992,0.80997l1.56994,-1.02996l-0.01,-0.32999l2.65989,-0.50998l1.37994,0.78997l0.89996,-1.16995l0.92996,0.50998l2.08992,-0.59998l1.29995,0.47998l-0.37998,2.82989l0.58998,0.95996l-0.28999,1.29995l1.05996,2.3999l-0.37998,0.36999l0.39998,1.58994l-1.39994,1.55994l-1.82993,-0.43998l0.56998,1.20995l-0.96996,2.07992l-0.12999,1.97992l-1.35995,1.33995l0.83997,1.15995l0.04,2.11992l-0.70997,1.72993l0.93996,1.36995l-0.82997,0.09l-0.66997,0.87996l0.20999,1.50994l-3.66985,0.85997l-0.96996,1.10996l0.24999,0.60998l-0.87996,1.10996l0.28999,1.07996l-1.98992,1.82993l-1.31995,0.87996l0.97996,1.57994l1.32995,0.06l0.08,0.70997l-1.59994,2.99988l1.14995,2.03992l-0.13999,2.21991l-1.39994,1.71993l-0.57998,-0.16999l-1.29995,1.51994l1.08996,3.63985l-0.49998,1.95992l0.51998,1.24995l-0.01,1.07996l-0.64997,0.75997l0.17999,1.86993l-0.38998,2.28991l0.1,2.19991l-0.97996,-0.78997l-2.62989,-1.35995l-1.03996,0.80997l-0.88996,-0.13999l-1.11996,0.85997l-2.4599,0.01l-0.54998,-0.99996l0.38998,-1.25995l-1.65993,-2.06992l-0.77997,-0.30999l-1.60994,0.28999l-0.06,1.04996l-1.40994,0.62997l-0.83997,2.22991l-2.67989,1.95992l-0.52998,1.50994l-1.23995,0.98996l-1.25995,0.12l-0.45998,0.61998l0.61998,2.86989l-1.05996,2.02992l-1.19995,0.73997l-1.91992,-0.05l-1.15995,-1.29995l-1.25995,0.07l-1.28995,1.30995l-1.92992,0.37998l-0.09,2.6099l-0.90996,1.38994l-1.36995,0.49998l-0.44998,0.85997l0.74997,3.04988l-0.43998,0.83997l-2.11992,0.73997l-1.10996,1.01996l-0.49998,0.12l-1.54994,-3.48986l-0.74997,-0.25999l-2.11992,0.53998l-1.45994,-1.08996l-1.25995,-0.06l-0.32999,-0.72997l-2.20991,0.1l-0.63997,-0.23999l-0.85997,1.02996l-0.78997,0.21999l-1.52994,2.81989l-1.97992,1.04996l-0.96996,-0.09l0.34999,-1.34995l-0.76997,-2.90988l-1.01996,-0.39998l0.99996,-1.87992l-0.14999,-1.72993l-0.66997,-0.67997l0.38998,-1.57994l-0.53998,-1.33995l0.11,-1.38994l-0.50998,-1.68993l0.27999,-1.02996l-0.31999,-0.98996l-1.81993,-0.58998l-0.83997,-0.75997l-0.44998,-1.55994l-1.36995,-1.35995l0.50998,-1.29995l-0.22999,-1.75993l-1.60994,-1.06996l0.12999,-2.19991l0.82997,-1.09996l0.11,-1.59994l-0.82997,-2.36991l0.56998,-0.54998l-0.19999,-1.13995l0.97996,-0.38998l0.43998,-2.96988l-0.77997,-0.32999l0.32999,-1.37994l-0.71997,-1.64993l0.47998,-0.72997l0.03,-2.25991l0.84997,-2.27991l-0.34999,-2.17991l0.18999,-1.83993l1.08996,-0.08l0.76997,-1.67993l2.13991,-0.21999l-0.28999,-1.08996l-1.33995,-1.10996l0.42998,-1.27995l-0.93996,-1.49994l1.40994,-2.29991l2.22991,-0.20999l0.12,-1.21995l1.26995,-1.34995l0.35999,-1.92992l-0.45998,-1.62993l0.25999,-1.26995l0.79997,-0.59998l0.20999,-2.03992l1.53994,-2.34991l0.54998,-2.21991l-0.60998,-0.88996l-1.19995,-0.66997l-0.38998,-0.95996l-0.12,-2.28991l0.32999,-1.11996l-0.37998,-1.03996l0.24999,-2.5899l0.85997,-1.67993l-0.04,-1.24995l1.78993,-2.19991l1.65993,0.24999l0.90996,-1.38994l0.96996,1.15995l0.93996,0.47998l2.09992,-1.04996l1.01996,0.53998l-0.37998,1.41994l0.40998,1.62993l0.61998,0.60998l1.55994,-0.75997l1.81993,0.43998l0.75997,1.59994l1.27995,0.58998l1.04996,1.03996l1.93992,-0.36999l0.42998,2.62989l0.85997,1.12995l0.64997,-0.15999l1.17995,0.89996l0.68997,-1.23995l-1.27995,-1.76993l0.43998,-0.74997l1.64993,-0.06l1.45994,-0.52998l0.1,-0.77997l2.22991,1.62993l1.15995,-0.11l0.92996,0.89996l0.33999,1.07996l0.88996,0.83997l1.90992,-0.49998l2.29991,-1.51994l0.02,-1.12995l1.16995,-0.30999l1.68993,0.23999l0.68997,1.43994l1.05996,0.11l0.22999,-1.58994l-0.17999,-1.54994l1.85993,0.07l0.99996,-1.58994h0.96996l1.43994,-0.78997l0.66997,1.03996l0.98996,0.1l0.42998,-1.20995l0.37998,-2.72989l-0.09,-1.12995l3.43986,-2.65989l0.72997,0.27999l2.77989,-0.65997l-0.18999,1.49994"/></g></g></svg>