<svg version="1.1" xmlns="http://www.w3.org/2000/svg" xmlns:xlink="http://www.w3.org/1999/xlink" width="208" height="32" viewBox="0,0,208,32"><g transform="translate(-240,-164)"><g data-paper-data="{&quot;isPaintingLayer&quot;:true}" fill-rule="nonzero" stroke="none" stroke-linecap="butt" stroke-linejoin="miter" stroke-miterlimit="10" stroke-dasharray="" stroke-dashoffset="0" style="mix-blend-mode: normal"><path d="M240,196v-32h208v32z" fill="none" stroke-width="0"/><path d="M241.95,174.96c0.8138,-1.4258 1.49413,-2.93947 2.041,-4.541l2.1973,0.45899c-0.63151,1.47133 -1.33138,2.81247 -2.0996,4.0234c0.39713,-0.01953 1.0091,-0.04883 1.8359,-0.0879c0.07162,0 0.56642,-0.0293 1.4844,-0.0879l-0.0586,-0.0977c-0.29297,-0.50131 -0.63151,-1.03191 -1.0156,-1.5918l1.6602,-0.82031c1.13933,1.47787 2.03777,2.89063 2.6953,4.2383l-1.875,1.0254c-0.16927,-0.36459 -0.36459,-0.77475 -0.58594,-1.2305c-2.05727,0.25391 -4.5703,0.44922 -7.5391,0.58594l-0.49804,-1.8359c0.25391,0 0.83984,-0.01303 1.7578,-0.0391zM249.2938,178.0557v9.5606c0,0.6706 -0.1595,1.13283 -0.47851,1.3867c-0.28646,0.22786 -0.77799,0.34179 -1.4746,0.34179c-0.71613,0 -1.37043,-0.04232 -1.9629,-0.12695l-0.32227,-1.8457c0.80727,0.09765 1.39973,0.14648 1.7774,0.14648c0.24089,0 0.38411,-0.04883 0.42968,-0.14648c0.03253,-0.07813 0.0488,-0.19857 0.0488,-0.36133v-1.7774h-3.8184v4.2676h-2.0215v-11.445zM243.493,179.6573v1.2793h3.8184v-1.2793zM243.493,182.4014v1.3672h3.8184v-1.3672zM253.0145,173.4561c1.51693,-0.55339 2.96223,-1.23372 4.3359,-2.041l1.4648,1.4844c-1.97267,1.04167 -3.90627,1.82293 -5.8008,2.3438v1.6504c0,0.32552 0.0944,0.51758 0.2832,0.57617c0.26042,0.08464 0.90169,0.12696 1.9238,0.12696c0.87893,0 1.4258,-0.09766 1.6406,-0.29297c0.16927,-0.15625 0.27995,-0.74545 0.33204,-1.7676c0.00667,-0.19531 0.01317,-0.34831 0.0195,-0.45899l2.0605,0.49805c-0.05207,1.7578 -0.25063,2.82877 -0.5957,3.2129c-0.22135,0.2474 -0.58919,0.41993 -1.1035,0.51758c-0.65755,0.13021 -1.61781,0.19531 -2.8808,0.19531c-1.582,0 -2.6139,-0.11719 -3.0957,-0.35156c-0.45573,-0.22787 -0.68359,-0.7194 -0.68359,-1.4746v-7.1777h2.0996zM253.0145,182.9678c1.52347,-0.50781 3.0827,-1.21095 4.6777,-2.1094l1.3672,1.6211c-2.11587,1.0612 -4.13083,1.82943 -6.0449,2.3047v1.748c0,0.42318 0.13672,0.67383 0.41015,0.75196c0.20833,0.06513 0.74543,0.0977 1.6113,0.0977c1.21093,0 1.90103,-0.10417 2.0703,-0.3125c0.18229,-0.22135 0.29948,-1.05795 0.35157,-2.5098l2.0801,0.55664c-0.013,1.9336 -0.30597,3.13803 -0.87891,3.6133c-0.5013,0.41667 -1.76757,0.625 -3.7988,0.625c-1.60807,0 -2.67253,-0.13021 -3.1934,-0.39063c-0.5013,-0.24088 -0.75195,-0.72915 -0.75195,-1.4648v-7.3633h2.0996z" fill="#ffffff" stroke-width="1"/><path d="M274.79,174.72c0.8268,-0.59896 1.66013,-1.38023 2.5,-2.3438l1.6016,1.0644c-0.7292,0.77473 -1.56903,1.49413 -2.5195,2.1582c0.89193,0.44271 1.9987,0.89845 3.3203,1.3672l-1.0645,1.7188c-1.6992,-0.65755 -3.18357,-1.36719 -4.4531,-2.1289v1.2109h-8.3984v-0.83984c-1.30207,0.83333 -2.85807,1.59507 -4.668,2.2852l-1.0156,-1.6699c1.73173,-0.55989 3.16403,-1.17839 4.2969,-1.8555l-0.0977,-0.0781c-0.86587,-0.70313 -1.7578,-1.31837 -2.6758,-1.8457l1.4941,-1.2988c1.1914,0.76173 2.15493,1.46487 2.8906,2.1094c0.76173,-0.63802 1.39,-1.28255 1.8848,-1.9336h-4.3555v-1.6992h7.2461c0.54037,0.7292 1.10027,1.38023 1.6797,1.9531l0.20508,-0.17578c0.7096,-0.61198 1.36713,-1.26951 1.9726,-1.9726l1.5625,1.1328c-0.66406,0.65104 -1.49413,1.34764 -2.4902,2.0898c0.33203,0.2474 0.69336,0.49805 1.084,0.75196zM266.831,176.1848h6.748c-1.46487,-0.95707 -2.67253,-2.01827 -3.623,-3.1836c-0.7552,1.0156 -1.51367,1.84893 -2.2754,2.5c-0.24089,0.20833 -0.52409,0.4362 -0.84961,0.68359zM275.0732,184.5832c-0.29947,0.78127 -0.72591,1.6797 -1.2793,2.6953h5.5762v1.7383h-18.74v-1.7383h5.2246c-0.44921,-1.1068 -0.85285,-2.00523 -1.2109,-2.6953h-1.5332v-5.3223h13.74v5.3223zM272.749,184.5832h-5.7812c0.39713,0.8594 0.73243,1.71553 1.0059,2.5684l0.0293,0.12695h3.6426l0.0684,-0.14648c0.46875,-1.00913 0.81381,-1.85873 1.0352,-2.5488zM265.3076,180.8039v2.2559h9.3262v-2.2559z" fill="#ffffff" stroke-width="1"/><path d="M288.84,177.31v-6.8164h2.1973v6.8164h7.4414v1.9434h-7.4414v2.7734h8.4668v1.9824h-8.4668v5.4883h-2.1973v-5.4883h-8.3398v-1.9824h8.3398v-2.7734h-7.3047v-1.9434zM284.5627,176.67524c-0.80727,-1.7904 -1.65363,-3.27803 -2.5391,-4.4629l2.041,-0.9961c1.0026,1.3802 1.8815,2.8711 2.6367,4.4727zM293.1369,175.91352c1.02867,-1.56253 1.84897,-3.20317 2.4609,-4.9219l2.2852,0.89844c-0.73567,1.6146 -1.6634,3.2357 -2.7832,4.8633z" fill="#ffffff" stroke-width="1"/><path d="M307.74,171.98c0.24089,-0.57943 0.4362,-1.13283 0.58594,-1.6602l2.3828,0.32226c-0.22787,0.54037 -0.4362,0.98633 -0.625,1.3379h6.5039v6.3672h-11.797v0.98633h14.697v1.582h-14.697v0.99609h14.014c-0.08463,2.9818 -0.27343,4.99353 -0.5664,6.0352c-0.18881,0.66406 -0.54364,1.10353 -1.0645,1.3184c-0.37109,0.15625 -0.93749,0.23437 -1.6992,0.23437c-0.78127,0 -1.51043,-0.04883 -2.1875,-0.14648l-0.39063,-1.6406h-9.7852v1.084h-2.0996v-4.6973h2.0996v2.0117h3.3594v-2.6367h-3.8379v-11.494zM311.8904,186.111v-2.0117h2.0215v3.3984c0.54036,0.05207 0.98956,0.0781 1.3476,0.0781c0.44271,0 0.7194,-0.12695 0.83008,-0.38085c0.21485,-0.47527 0.38412,-1.7155 0.50781,-3.7207h-8.0273v2.6367zM304.7908,173.484v0.96679h9.6387v-0.96679zM304.7908,175.8473v1.0644h9.6387v-1.0644z" fill="#ffffff" stroke-width="1"/><path d="M331.58,174.14v-3.6426h2.0996v3.6426h5.293v8.8379h-5.293v6.5234h-2.0996v-6.5234h-5.1856v-8.8379zM328.4159,176.0834v4.9707h3.1641v-4.9707zM336.8925,181.0541v-4.9707h-3.2129v4.9707zM324.3925,175.2729c-0.79427,-1.1068 -1.8457,-2.16473 -3.1543,-3.1738l1.4551,-1.4844c1.30207,0.918 2.40233,1.94663 3.3008,3.0859zM323.75774,180.2924c-1.1328,-1.31513 -2.23307,-2.3926 -3.3008,-3.2324l1.5039,-1.5039c1.13933,0.8008 2.26563,1.83597 3.3789,3.1055zM320.72064,187.8608c1.25,-1.77733 2.40233,-3.99087 3.457,-6.6406l1.7383,1.3379c-0.89193,2.4414 -1.97917,4.73957 -3.2617,6.8945z" fill="#ffffff" stroke-width="1"/></g></g></svg>