<svg version="1.1" xmlns="http://www.w3.org/2000/svg" xmlns:xlink="http://www.w3.org/1999/xlink" width="208" height="32" viewBox="0,0,208,32"><g transform="translate(-240,-164)"><g data-paper-data="{&quot;isPaintingLayer&quot;:true}" fill-rule="nonzero" stroke="none" stroke-linecap="butt" stroke-linejoin="miter" stroke-miterlimit="10" stroke-dasharray="" stroke-dashoffset="0" style="mix-blend-mode: normal"><path d="M240,196v-32h208v32z" fill="none" stroke-width="0"/><path d="M247.74,171.98c0.24089,-0.57943 0.4362,-1.13283 0.58594,-1.6602l2.3828,0.32226c-0.22787,0.54037 -0.4362,0.98633 -0.625,1.3379h6.5039v6.3672h-11.797v0.98633h14.697v1.582h-14.697v0.99609h14.014c-0.08463,2.9818 -0.27343,4.99353 -0.5664,6.0352c-0.18881,0.66406 -0.54364,1.10353 -1.0645,1.3184c-0.37109,0.15625 -0.93749,0.23437 -1.6992,0.23437c-0.78127,0 -1.51043,-0.04883 -2.1875,-0.14648l-0.39063,-1.6406h-9.7852v1.084h-2.0996v-4.6973h2.0996v2.0117h3.3594v-2.6367h-3.8379v-11.494zM251.8904,186.111v-2.0117h2.0215v3.3984c0.54036,0.05207 0.98956,0.0781 1.3476,0.0781c0.44271,0 0.7194,-0.12695 0.83008,-0.38085c0.21485,-0.47527 0.38412,-1.7155 0.50781,-3.7207h-8.0273v2.6367zM244.7908,173.484v0.96679h9.6387v-0.96679zM244.7908,175.8473v1.0644h9.6387v-1.0644z" fill="#ffffff" stroke-width="1"/><path d="M276.35,184.4c0.8724,1.1914 2.0215,2.16147 3.4473,2.9102l-1.2207,1.9238c-1.59507,-0.92447 -2.86133,-2.1061 -3.7988,-3.5449c-1.0026,-1.52993 -1.71223,-3.33657 -2.1289,-5.4199h-2.0117v6.4258c1.50387,-0.44271 2.76363,-0.84961 3.7793,-1.2207l0.18555,1.8555c-1.91407,0.83333 -4.11133,1.54623 -6.5918,2.1387l-0.67383,-2.002c0.46224,-0.08463 0.89517,-0.17252 1.2988,-0.26367v-16.006h9.4629v9.0625l1.3965,1.1914c-1.0612,1.18487 -2.10937,2.16793 -3.1445,2.9492zM275.48086,182.8961c0.931,-0.90493 1.70573,-1.7806 2.3242,-2.627h-3.1934c0.22136,0.98307 0.51108,1.85873 0.86915,2.627zM276.07656,172.8961h-5.4394v2.002h5.4394zM276.07656,176.4996h-5.4394v2.1094h5.4394zM263.51756,180.7476c-0.55989,1.65367 -1.31183,3.2715 -2.2558,4.8535l-1.1035,-2.168c1.46487,-2.04427 2.51303,-4.32943 3.1445,-6.8555h-2.7246v-1.9238h2.9394v-4.1602h2.041v4.1602h2.2949v1.9238h-2.2949v1.709c1.11327,0.80727 2.0768,1.68293 2.8906,2.627l-1.0742,1.8457c-0.58594,-0.80727 -1.19141,-1.54293 -1.8164,-2.207v8.9453h-2.041z" fill="#ffffff" stroke-width="1"/><path d="M296.76,170.98v9.4629h-11.621v-9.4629zM287.2385,172.523v1.2207h7.4023v-1.2207zM287.2385,175.1207v1.2207h7.4023v-1.2207zM287.2385,177.7183v1.2598h7.4023v-1.2598zM283.3029,181.7417h16.191v1.6992h-8.0762v6.0644h-2.2168v-6.0644h-8.0371v-10.957h2.1387zM280.8029,187.6401c1.54947,-0.71613 3.0306,-1.9173 4.4434,-3.6035l1.7969,1.0449c-1.3932,1.76433 -2.93943,3.15107 -4.6387,4.1602zM297.6389,188.8999c-0.99607,-1.22393 -2.49347,-2.50973 -4.4922,-3.8574l1.6797,-1.1816c1.569,0.90493 3.1087,2.09307 4.6191,3.5644z" fill="#ffffff" stroke-width="1"/><path d="M311.58,174.14v-3.6426h2.0996v3.6426h5.293v8.8379h-5.293v6.5234h-2.0996v-6.5234h-5.1856v-8.8379zM308.4159,176.0834v4.9707h3.1641v-4.9707zM316.8925,181.0541v-4.9707h-3.2129v4.9707zM304.3925,175.2729c-0.79427,-1.1068 -1.8457,-2.16473 -3.1543,-3.1738l1.4551,-1.4844c1.30207,0.918 2.40233,1.94663 3.3008,3.0859zM303.75774,180.2924c-1.1328,-1.31513 -2.23307,-2.3926 -3.3008,-3.2324l1.5039,-1.5039c1.13933,0.8008 2.26563,1.83597 3.3789,3.1055zM300.72064,187.8608c1.25,-1.77733 2.40233,-3.99087 3.457,-6.6406l1.7383,1.3379c-0.89193,2.4414 -1.97917,4.73957 -3.2617,6.8945z" fill="#ffffff" stroke-width="1"/></g></g></svg>