<svg xmlns="http://www.w3.org/2000/svg" viewBox="0 0 900 900" version="1.2" height="900" width="900"><desc>Generated with Qt</desc><g stroke-width=".75" stroke-opacity=".749" stroke-linejoin="round" stroke="#dce3ff" fill="#2c3329"><g fill-rule="evenodd"><g stroke-width=".7502" font-weight="400" font-size="37.5px" font-family="'MS UI Gothic'" transform="matrix(1 0 0 .9994 -900 -900)"><path d="m1419 900.1-1.49 0.529-0.59 3.042 2.32 1.53 2.69-5e-3 0.38 2.497 1.05 2.503 1.05 0.243 0.05 1.026 3.7 0.584 0.84 2.304 1.12 0.538 0.24 1.488-0.67 0.495-0.55 1.538 0.66 0.808-0.7 2.03 0.47 1.156-0.62 6.824-0.9-0.094-1.46-1.727-0.96 1.588-2.48-1.465-1.62 0.767-2.96-3.456-1.46-0.43-1.21-1.261-1.26-0.629-1.09-1.114-1.95-1.398-0.45-1.748-2.92-1.964-1.56-2.561-1.11-0.761-1.36-2.231 0.28-0.521-1.59-2.974-0.82-0.891 0.03-1.127-0.55-1.114-2.44-2.609-0.33-1.324-0.69-0.642"></path><path d="m1605 913 0.01 9.997v8.736l-0.63 1.851 0.64 0.976-0.01 11.16-0.6-0.289-1.74-2.08-2.38-1.98-0.5-0.696-2.88 0.459-0.77-0.524-1.44 0.992-0.38-0.777 0.1-0.187 0.32-0.11-0.08-0.181 0.02-0.611 0.42-0.288 0.5-1.542-2.03-1.852-0.58-1.26 1.25-0.687-1.78-2.034-0.98-2.59-0.99-0.796-0.06-0.77-1.77-1.775-2.19-1.117-2.23-0.357-4.26-2.05-2.7-0.448-1.22 0.093-1.81-0.95-1.97-1.763-1.28-0.601-1.08 0.249-0.57-0.998-1.29-0.36-0.65 1.405-0.93 1.028-1.81 0.181-0.58-0.807-0.18-1.501 0.38-0.834-1.39-1.773-1.14-0.804-1.65-0.159 1.03-1.193 1.92 0.205 0.75 0.464 1.49-1.655 3.51 0.187 0.92-0.646-0.28-0.849-2.84-0.069-2.99 0.506-0.69-0.599-1.06 0.423-1.37-0.826-0.73-1.996-1.77-1.13-1.84 0.217-1.01-0.337 0.89-1.195 0.31-1.99 3.2-0.687 1.08-1.06 1.69-0.614 1.36 0.064 2.22 0.86 1.19 0.956h2.93l0.29 1.173 1.23 1.963-0.97 1.663 0.53 3.484 1.4 1.009 0.92-0.09 0.22 1.982 1.41 1.858 2.43 0.167 2.2-1.889 0.27-1.052 1.51-1.078 0.69-1.705 1.77 0.145 2.34-0.872-0.42-1.437 3.26-1.515 1.4 0.63 2.96 0.895 0.69 0.659 5.3 2.257 1.2-0.259 3.13 0.857 1.22 0.546"></path><path d="m1488 900.2-0.48 1.157 0.81 0.794-0.72 2.22-0.75-0.253-1.39 1.935-1.02 0.293-2.48 2.213 0.71 1.018-0.37 1.419 1.06 0.166-0.32 1.444-0.75 0.382-0.28 1.684-1.11 0.024 0.26 1.215-0.98 2.183-4.54 1.889-1.74 0.928-0.5-2.441-1-0.995-1.52-0.691-1.97 0.628-0.47-1.439-1.37 0.306-0.82-0.848-2.82 1.736-1.58-0.55-2.4 1.158 0.05-2.422-2.68-0.626-1.95 0.735-1.99-1.045-1.22 0.642-0.21-2.353-0.63-1.679-0.1-1.375-0.77-0.764 0.73-1.687-1.67-2.393-2.3-0.502-0.75-1.77 0.21-3.059"></path><path d="m1499 904.4-0.44-2.023 0.18-3.333 1.67 0.078-0.66 1.951 0.47 2.241 0.77 1.151 0.84 0.087 0.85 1.002 0.47 1.447 1.99 0.133 2.13-2.81 1.07 0.381 1.96-0.047 0.51-0.807 3.52-0.01-0.44-0.753 2.08-0.209 1.07 0.939-0.35 1.228-1.62-0.616-1.24 0.218-2.22 2.844-0.92 0.607-1.93 0.519-0.53 0.951-1.83 0.055 2.48 1.842 0.97 2.034 1.48 1.168 0.37 1.027-0.93 2.126 1.21 0.874 1.17 1.963 1.16 0.368-0.7 1.416-0.84-0.41-2.46 0.618-0.58 1.685-1.44-0.103-1.1-0.897 0.26-2.136 0.46-0.719-1.37-0.595-2.3-2.151 0.86-1.73v-2.211l-1.45-0.687-2.72 1.679 0.82 2.163 0.25 1.736-0.46 1.013 0.24 3.227-0.69 2.888 0.59 0.94-0.29 0.865-2.05 0.299-1.33 0.552-1.48-1.624 0.87-2.372 0.5-2.852-0.2-1.726-0.65-1.281 0.21-1.099-1-0.337-1.86 0.692-0.81-2.38 0.58-1.151-0.61-0.427 1.92-1.67-0.04-1.194 1.1-1.344-0.23-1.2 0.1-2.403 1.05-1.823 0.99-1.045 0.55 1.168"></path><path d="m1450 939.3-2.69-0.627-4.14-0.106-1.07 0.631-3.2-0.784-1.37-0.838-4.45-0.428-0.73-0.508 0.81-1.649-1.27 1e-3 -1.62-0.834-2.53-0.045 1.85-1.883 0.32-1.831 0.82-0.953 2.22 0.773 2.49 0.22 1.8-0.516 0.58 0.852 1.7 0.221 1.42 0.692 0.61-0.447 1.62 1.252 0.33 1.383 1.59 0.418 3.04-0.048 1.82 0.418 1.51-0.137 0.79 0.413 1.08-0.689 0.79-1.909 1.61-1e-3 0.52 1.185 1.69-0.346 2.87 1.361 1.48-0.117 1.09 0.602 0.9 2.728 2.69 1.298 1.14-0.445 1.38 0.108 1.06-0.523 2.26 1.074-0.55 2.92 0.52 1.058-1.32 0.138-2.37-0.593-2.63-1.269-2.63 0.858-1.53-0.531-2.87-0.432-0.59 0.563-1.16-0.464-1.35 0.033-3.48-0.862-2.85-1.385"></path><path d="m1554 917.9-0.28 1.477-2-1.162-2.17-0.888-0.47-0.634-1.73-0.177-0.29 0.83-1.86-0.574-1.18-0.733-1.97 1.302-1.01-1.21-2.03-0.061 1.5-1.761 3.45 0.025 1.28 0.479 1.61-0.865 3.01 1.037 1.49-0.072 1.17 0.727 0.44 1.406 1.04 0.854"></path><path d="m1538 901 0.24-2.433 0.83-0.122 0.06 1.595 0.75 1.991-1.88-1.031"></path><path d="m1515 941.6-1.09 1.629-2 0.66-1.47-0.046-1.6 0.767-1.99-0.455-0.28 0.627-2.09 0.042-1.64-0.66-1.75 0.138-2.1-0.216 0.48-1.614 1.79-0.971 1.88-0.038 1.61 0.383 2.67 1.338 1.62-0.649 2.27 0.81 2.35-1.38 0.19-1.268 1.15 0.903"></path><path d="m1496 943.2-3.69 1.285-0.83-0.542-2.05 0.905-0.76-0.137-2.02 0.758-1.62 0.242-1.23-0.464 0.13-2.185 2.03-1.143 1.81 0.242 1.24 1.59 1.31-0.324-0.32-0.921-1.49-1.233 0.95-0.706 1.1 0.121 0.64 1.085 1-0.358 2.72 0.258 0.44 1.734 0.64-0.207"></path><path d="m1434 912.8-0.78 1.913-0.83 0.193-2.31-0.8-0.95-3.25-2.45-0.184-0.76-0.996 1.11-0.571 0.42-1.295 2.08-0.369 1.49 1.95 0.45 2.363 0.45 0.559 2.08 0.487"></path><path d="m1522 946.1 2.35-1.105 0.71 2.653-0.46 0.895-2.76 2.546-1.48 0.044-1.48 0.973-1.55-0.145 0.86-3.676 1.71-1.366 1.4 0.744 0.7-1.563"></path><path d="m1504 950.1-0.4 1.249-1.6 0.286-1.18-0.214-0.9-1.161-2.49-1.237-2.2-0.369 0.65-1.472 2.31-0.221 2.2 0.502 1.83 0.965 1.78 1.672"></path><path d="m1595 937.8 0.54 0.1-0.32 1.352-0.49 0.518 0.1 0.724-0.43 0.087-0.79 0.383-1.08 1.062-4.04 0.052 0.62-1.597 1.34-2.338 1.08-0.775 2.8-0.415 0.67 0.847"></path><path d="m1536 917.4 0.02 0.677-2.51 1.27-2.84-1.287-0.91-1.775 2.15-0.89 1.49-0.052 1.87 0.704 0.73 1.353"></path><path d="m1516 926.2-1.61 2.267-1.3-0.851 0.98-1.501 0.72-3.681 0.56-0.422 0.92 1.111-0.79 0.708-0.31 1.681 0.83 0.688"></path><path d="m1478 941.6-0.08 1.073-1.75 1.08-1.63-1.25-1.44-0.348 0.26-1.332 1.65 0.19 0.97-0.571 2.02 1.158"></path><path d="m1396 908.2-0.87 0.823-1.08-0.601-1.45-2.405 0.32-1.175 1.12-0.252 1.96 3.61"></path><path d="m1582 905.5-1.17 0.648-1.57-0.577-2.29-2.272 2.39 0.212 1.74 1.853 0.9 0.136"></path><path d="m1483 941.5 0.55 0.59-1.22 2.078-2.49 0.486 0.13-2.295 1.74-1.229 1.29 0.37"></path><path d="m1558 936.2-0.27 1.877-1.42 1.758-1.22 0.269 0.02-1.347 0.67-1.319 1.37-1.524 0.85 0.286"></path><path d="m1470 934.7-1.07 1.096-1.42 0.512-2.1-0.013-1.93-0.351 0.87-1.359 5.04-0.135 0.61 0.25"></path><path d="m1441 914.2-0.53 1.444-2.17 0.309-0.86-0.941 0.44-2.248 1.98 0.165 1.14 1.271"></path><path d="m1574 930.8-0.75 1.065-1.37-0.745-0.29-0.694 0.38-1.855 0.7-1.338 1.02 0.432 0.31 3.135"></path><path d="m1514 924.6-0.68 0.814 0.06 1.224-0.56 0.534-1.34-0.509 0.63-1.334 0.01-1.626 1.66-0.472 0.22 1.369"></path><path d="m1534 938.7-2.07 1.041-3.07-0.345 0.7-0.938 1.9 0.088 1.52-0.658 1.02 0.812"></path><path d="m1527 908.9-1.5 0.827-0.8-0.237-2.24 0.536-0.11-1.681 1.24-0.184 3.41 0.739"></path><path d="m1556 901.2-1.73 0.546-3.18-0.432 0.26-0.691 2.28-0.59 1.65 0.41 0.72 0.757"></path><path d="m1539 903.8-2.09 0.268-0.84-1.537 1.15-1.03 0.76 0.775-0.39 0.845 1.41 0.679"></path><path d="m1541 908-0.47 0.603-2.6 0.084-0.64-1.199 1.1-0.811 2.61 1.323"></path><path d="m1584 908.8-1.02 0.556-1.85 0.165-2.78-1.031 2.37-0.247 0.99 0.359 2.29 0.198"></path><path d="m1572 933-0.87 1.43-1.18-0.165 0.25-3.297 1.63 1.357 0.17 0.675"></path><path d="m1520 941.3-2.64 1.813-0.21-0.884 2.2-1.169 0.65 0.24"></path><path d="m1526 941.2-0.05 0.683-3.53 0.568 0.16-1.595 3.21 0.063 0.21 0.281"></path><path d="m1482 918.6 0.02 0.805-0.96 0.792-0.51-1.935 0.56-1.663 0.69 0.436 0.2 1.565"></path><path d="m1552 909.4-1.3 0.894-1.9-1.018 1.33-0.567 1.7-0.044 0.17 0.735"></path><path d="m1518 906.3 0.12 0.843-1.72 0.263-1.43-1.507 1.52-0.146 1.51 0.547"></path><path d="m1555 905-0.38 1.739-1.16-0.626-0.35-1.334 1.16-0.312 0.73 0.533"></path><path d="m1449 905.5-1.41 0.973-0.13-1.473 1.54 0.5"></path><path d="m1542 917.6-1.01 1.191-0.47-0.804 1.48-0.387"></path><path d="m1117 896.9-6.94 7.418-2.14 3.512-0.58 0.656-0.07-0.618-2.71-3.511-0.06-7.466"></path><path d="m1075 958.3-1.56-0.018-1.49 3.216 0.7 2.499 0.26 3.276 0.47 0.856 1.27 0.218 2.81 3.101 1.99 2.739 0.25 1.134-0.6 1.597 0.28 1.15-0.22 3.053-0.49 0.534-1.62 0.174-0.8 1.788 0.45 3.238-1.11 0.104-0.39-1.617-3.09-3.276-0.76-1.543 1.68-3.212 0.07-1.485-0.41-2.113-0.79-0.973-3.7 0.706-0.82-0.741-1.19-1.891-0.76-0.089-1.64-2.179 1.37-1.966 0.14-2.966 1.75-0.482-0.6-2.282 0.24-2.365-0.36-0.986 0.8-1.283-0.35-1.766 0.9-0.249 0.87-0.978-0.7-1.758-1.12-1.11-0.47-1.449-1.21-0.638-0.27-0.981 2.42 0.999 1.65-0.105 1.39-0.541 2.36 2.377 0.94 4.033-0.4 1.408 0.84 1.638 1.02 1.204"></path><path d="m1065 947.3-2.01-0.758-0.67-0.63-3.56-1.118-1.59-1.648-1.97-0.186-1.04-1.801-0.49-1.347-1.06-1.671-0.36-1.442-1.4-2.118-1.76-1.196-1.06-1.909-0.25-1.362 0.59-1.919-1.36-3.937 0.41-1.939 1.62 0.06 1.38-0.952 2.32-3.803 1.82-1.704-0.57-0.918-1.51-0.69v-1.031l0.69-1.226 1.4-0.277-0.01-3.758-1.38-1.379-0.42-1.259 1.78-0.321h15.38l0.74 0.189 6.82 3.806 6.44 3.598 4.7 2.631 0.28 1.344-0.55 0.449 0.9 1.26 7.1 5.124-0.26 2.136-1.53 3.578-0.27 1.081 0.37 1.6 3.06 2.562 0.42 1.312-1.22 1.665-0.04 1.21 0.79 1.625-0.87 1.51 1.07 3.896 0.75 0.555 0.03 1.295 0.65 2.462 1.03 1.064 1.23 0.309 1.02 1.394-2.14 1.711-2.63 0.958-0.98 0.789-1.95 0.069-2.02 1.254-1.18-0.696-1.9 0.214-0.46 1.223-1.78 0.836-1.92-0.648-1.48 0.362-2.74 0.179-0.16-0.627-1.71-0.843-0.86 0.841-3.45-0.025-1.02-1.204-0.84-1.638 0.4-1.408-0.94-4.033-2.36-2.377-1.39 0.541-1.65 0.105-2.42-0.999"></path><path d="m1098 931.7-1.4-0.094-0.37-1.952 0.82-0.089 0.95 2.135"></path></g><path stroke-width=".75" d="m278.9 107.4 0.16 1.189-1.33 0.1999-1-0.4698-0.64-1.219 0.38-0.7596 1.38-0.1699 1.05 1.229"></path><g stroke-width=".7502" font-weight="400" font-size="37.5px" font-family="'MS UI Gothic'" transform="matrix(1 0 0 .9994 -900 -900)"><path d="m989.7 898.2-1.118 2.785 0.166 1.638-2.26 2.489-1.345 0.367-0.944 0.84-1.586 2.997-1.457 1.338-0.271 0.789 0.243 1.744-0.243 1.237 0.154 2.401-1.624 2.923-1.581 0.465-0.539 0.881-1.275 0.628-1.864 2.388-0.984 0.444-1.19-0.239-0.139-2.897-2.068 1.07-1.22-0.137-0.105 1.137-1.656 0.52-1.425-0.8-1.561-1.224-0.768 0.871-1.152 0.273-1.84 2.008-1.14-1.702 0.124-0.518-3.462-3.21 0.493-1.201 1.786-0.763 1.29 0.016 0.583-1.227-1.284-0.662 0.381-0.943-0.635-0.748-0.393-2.422 2.52 0.329 1.985-0.426-0.181-2.163 0.801-0.356 1.107 0.463 1.03 1.845 1.752 0.706 1.162-0.511 0.886-1.039 0.572 1.848 0.98 0.058 0.73-0.885 0.126-1.779 0.593-0.232 0.015-1.587 0.542-1.077-0.452-1.827 0.536-1.962-1.888-1.644-1.451-0.484 0.45-0.762-0.25-1.247 1.024-1.715 0.779-0.016"></path><path d="m1049 899.5-0.78 5.096 0.11 2.345-1.1 0.608-1.04 1.447v1.757l-1.46 1.34 0.79 1.514 1.09 1.631-0.09 4.274 0.62 0.97 0.32 1.787-0.41 1.939 1.36 3.937-0.59 1.919 0.25 1.362 1.06 1.909 1.76 1.196 1.4 2.118 0.36 1.442 1.06 1.671 0.49 1.347-9.18 1.409 0.07 1.046-0.82 1.286-1.97 1.525 0.72 0.726 0.76 2.247-0.22 0.657 0.05 2.888-0.97 4.221-0.41 0.503 0.7 2.096 1.69 1.2 0.97 1.453 2.08-0.211 1.77-0.926-0.01 6.513-1.12-1.022-2.03 1.071-0.87-0.195-0.45-1.2-2.41-3.287-2.44-1.116-1.48-0.05-1.09-1.9-0.93-0.577-0.27-1.223-0.85 0.206-0.21 1.33-1.62 0.589-1.15-0.377-2.1-0.036-0.72-0.567-2.49-0.754-0.37-2.276-3.02 0.722-0.55 0.526-1.27-0.194 0.36-1.459-1.29-0.394-0.78-0.87-0.67 0.795-1.7-0.327-2.4 0.704-2.38-0.333-1.28 1.017-0.58-1.958 0.78-0.561-0.04-1.9-0.77-2.22-1.53-1.592 0.03-3.907 0.38-2.192-0.89-2.01 0.48-2.166-0.35-1.526-6.32 0.015 0.46-1.866-1.59 0.433h-3.861l-0.831 5.044-5.895-0.014-0.392 0.555-2.808-0.475-2.703-3.618-0.345-2.063-0.981-1.605-0.02-1.915-0.647-1.33-1.408-0.352-8.06 0.135-7.6-0.126-1.807-0.134-0.499 0.752-1.366 0.365-1.194-1.45 1.492-0.187 0.108-2.831 1.513-2.208 1.203-0.438 1.425 0.8 1.656-0.52 0.105-1.137 1.22 0.137 2.068-1.07 0.139 2.897 1.19 0.239 0.984-0.444 1.864-2.388 1.275-0.628 0.539-0.881 1.581-0.465 1.624-2.923-0.154-2.401 0.243-1.237-0.243-1.744 0.271-0.789 1.457-1.338 1.586-2.997 0.944-0.84 1.345-0.367 2.26-2.489-0.166-1.638 1.118-2.785"></path><path d="m982.4 1049-0.338 0.2-3.676-3.73-1.945-3.54-0.305-2.01-0.756-1.51 0.229-1.33-0.812-0.69 0.063-1.54-0.681-1.64-0.208-2.77 0.26-1.1-0.362-1.44-0.895-1.32-0.641-2.22 0.092-4.64-0.409-1.84 0.559-0.26-0.067-2.03-0.611-1.47-2.17-2.66-0.603-1.76-2.223-3.43-1.163-3.53-2.25-3.954-0.686-1.634-1.403-2.139-1.275-1.014-0.914-1.908-0.657-3.135 0.243-1.539 1.645-0.591 2.297 0.502 1.663-1.077 2.383-0.343 2.895 2.324 5.572-0.104 6.413 2e-3 10.57 6e-3 1.542 1.877 1.293 0.391 3.26 0.107 1.807 0.28 1.51-0.216 2.35 0.928 2.05-0.53 0.83 0.431 10-1.951 4.19-0.847 3.69 0.378 1.51 1.272-1.51 0.036-1.9 1.28-0.78-0.463-1.19 0.384-2.69 2.298-1.67-2.401-1.65 0.053-7.53 1.471-2.5 0.104 0.01 7.572 0.01 5.33-0.04 6.71h-4.968l7e-3 6.52 8e-3 8.47 3e-3 5.34 4e-3 8.77-6e-3 6.42-2.064 0.62-2.436 2.44-1.68-0.68-2.896 0.35-1.266-0.69-2.548-0.44-0.289-2.71-1.24-1.11-1.024 0.29-0.618 2.04-1.412 0.74"></path><path d="m999.9 1028 1.913 1.55 2.15 4.77 0.24 1.32-1.1 1.65-0.07 1.44 2.57 1.01 2.83-0.06 0.4-0.84 1.45-0.49 1-1.54 1.44-0.75 0.87-1.24 0.62-2.79 0.81-0.95 2.27-0.16 2.32 1.93 4.37 1.11 1.27-0.51 1.67 0.03 1.01-0.69 1.44-4.05-0.04-0.76 2.68-0.64 0.64-0.95 1.59-1.16 0.77-3.29 4.67-3.72 2-2.05 2.87-0.71 0.68-1.26 1.51-0.19 2.04-0.3 2.71 1.12 2.69-0.3 2.25 0.62 1.24 4.12-0.07 1.41 1.1 2.3 1.22 3.21 0.03 6.77-0.21 1.71-0.58 0.14-2.04-1.33-1.53 0.93-1.58 2.71-0.09 1.79 1.86 2.74 1.84 0.59 2.21 0.03 0.12-2.68 0.61 0.01 3.9 0.03-1.09 3.79-0.66 3.79-0.82 2.06-1.84 1.79-1.3 0.57-2.83 3.4-3.97 7.45-1.91 2.6-3.09 2.59-2.61 3.26-4.86 4.47-2.59 1.9-4.32 2.38-2.8-0.26-1.38 0.5-0.41 1.53-2.48-0.53-1.3 1.04-1.29 0.27-2.1-0.74-2.64-0.46-1.14 0.79-2.36-0.16-1.53-0.53-1.77 0.37-2.87 2.02-2.2 0.19-1.5-0.4-2.19 0.59-2.853 2.16-1.555-0.23-1.69-2.15-2.481-0.32 0.25-1.3-2.717-0.73 0.803-0.78-0.84-2.52-1.973-2.59-0.302-1.29 2.104-1.09 0.381-2.29-0.883-3.52-1.395-1.87-3.059-5.8-1.128-3.88-1.238-3.43-1.042-1.26-0.567-1.63 1.412-0.74 0.618-2.04 1.024-0.29 1.24 1.11 0.289 2.71 2.548 0.44 1.266 0.69 2.896-0.35 1.68 0.68 2.436-2.44 2.064-0.62 6e-3 -6.42-4e-3 -8.77-3e-3 -5.34m44.99 23.3-1.57-1.78-2.56 0.6-0.68 0.88-1.35 0.3-2.53 3.67-1.14 0.44 1.76 3.95 1.89 1.68 1.55 0.29 1.55-2.84 2.48-0.54 1.42-0.85 0.09-1.46 1.37-1.86-0.62-1.45-1.66-1.03"></path><path d="m1065 947.3 0.27 0.981 1.21 0.638 0.47 1.449 1.12 1.11 0.7 1.758-0.87 0.978-0.9 0.249 0.35 1.766-0.8 1.283 0.36 0.986-0.24 2.365 0.6 2.282-1.75 0.482-0.14 2.966-1.37 1.966 1.64 2.179 0.76 0.089-7.72 2.609-1.24 0.589-2.97 0.696-3.01 1.103 0.78 2.037 0.13 1.356-2.79-0.11-3.26 1.028-1.58 1.427-0.24 1.998-2.71 1.23-2.51 1.54-1 1.894-2.1 2.13-0.55 0.919-1.68 0.639-2.54-0.939-1.13 0.588-1.48-0.986-2.11-0.091-1.51-1.272-3.69-0.378-4.19 0.847-3.13-2.548-2.11-2.514-0.91-0.397-0.84-2.25-0.02-9.373v-6.978h10.1l-0.67-1.087 0.82-2.073-0.35-0.964v-2.961l0.51-1.134-0.47-2.663 0.78 0.87 1.29 0.394-0.36 1.459 1.27 0.194 0.55-0.526 3.02-0.722 0.37 2.276 2.49 0.754 0.72 0.567 2.1 0.036 1.15 0.377 1.62-0.589 0.21-1.33 0.85-0.206 0.27 1.223 0.93 0.577 1.09 1.9 1.48 0.05 2.44 1.116 2.41 3.287 0.45 1.2 0.87 0.195 2.03-1.071 1.12 1.022 0.01-6.513-1.77 0.926-2.08 0.211-0.97-1.453-1.69-1.2-0.7-2.096 0.41-0.503 0.97-4.221-0.05-2.888 0.22-0.657-0.76-2.247-0.72-0.726 1.97-1.525 0.82-1.286-0.07-1.046 9.18-1.409 1.04 1.801 1.97 0.186 1.59 1.648 3.56 1.118 0.67 0.63 2.01 0.758"></path><path d="m1020 954.7 0.47 2.663-0.51 1.134v2.961l0.35 0.964-0.82 2.073 0.67 1.087h-10.1v6.978l0.02 9.373 0.84 2.25 0.91 0.397 2.11 2.514 3.13 2.548-10 1.951-0.83-0.431-2.05 0.53-2.35-0.928-1.51 0.216-1.807-0.28-3.26-0.107-1.293-0.391-1.542-1.877-16.98-8e-3 -5.572 0.104-2.895-2.324-2.383 0.343-1.663 1.077-2.297-0.502-1.645 0.591 0.279-4.041-0.427-3.014 1.277-1.47 0.322-1.993 1.082-2.498 0.28-3.399 0.868-1.221 0.052-2.125 2.16-2.362-0.027-0.849 1.196-1.102 0.927-0.046 1.379-1.762 0.774-2.446 0.26-3.349-0.468-2.38-2.772-4.763-0.14-1.552-0.871-1.564 1.079-1.412 0.84-0.302-0.054-2.182-2.597-5.338-0.174-1.607-0.974-1.068-1.705-2.954 3.241-0.837 1.281-0.628 7.6 0.126 8.06-0.135 1.408 0.352 0.647 1.33 0.02 1.915 0.981 1.605 0.345 2.063 2.703 3.618 2.808 0.475 0.392-0.555 5.895 0.014 0.831-5.044h3.861l1.59-0.433-0.46 1.866 6.32-0.015 0.35 1.526-0.48 2.166 0.89 2.01-0.38 2.192-0.03 3.907 1.53 1.592 0.77 2.22 0.04 1.9-0.78 0.561 0.58 1.958 1.28-1.017 2.38 0.333 2.4-0.704 1.7 0.327 0.67-0.795"></path><path d="m965.4 923.2-1.203 0.438-1.513 2.208-0.108 2.831-1.492 0.187 0.108-1.426-1.113-2.31 1.84-2.008 1.152-0.273 0.768-0.871 1.561 1.224"></path><path d="m1026 990.4-0.17 0.724 1.41 2.459 1.27 1.219 0.89 1.536 0.08 1.062 0.87 2.008 3 2.306 2.42 0.93 0.63 1.94 1.79 0.19-0.12 3.11 1.05 1.18 0.53 1.29 3.2 0.54 2.04 0.79-0.08 0.99 1.64 1.1-1.51 0.19-0.68 1.26-2.87 0.71-2 2.05-4.67 3.72-0.77 3.29-1.59 1.16-0.64 0.95-2.68 0.64 0.04 0.76-1.44 4.05-1.01 0.69-1.67-0.03-1.27 0.51-4.37-1.11-2.32-1.93-2.27 0.16-0.81 0.95-0.62 2.79-0.87 1.24-1.44 0.75-1 1.54-1.45 0.49-0.4 0.84-2.83 0.06-2.57-1.01 0.07-1.44 1.1-1.65-0.24-1.32-2.15-4.77-1.913-1.55-8e-3 -8.47-7e-3 -6.52h4.968l0.04-6.71-0.01-5.33-0.01-7.572 2.5-0.104 7.53-1.471 1.65-0.053 1.67 2.401 2.69-2.298 1.19-0.384 0.78 0.463 1.9-1.28 1.51-0.036"></path><path d="m1026 990.4 2.11 0.091 1.48 0.986 1.13-0.588 2.54 0.939 1.68-0.639 0.55-0.919 2.1-2.13 1-1.894 2.51-1.54 2.71-1.23 0.24-1.998 1.58-1.427 3.26-1.028 2.79 0.11 0.03 1.898 4.29 0.116 0.72 0.722 1.41 0.234 1.12 1.155 1.9 0.119 3.02 1.36-0.33 1.163 0.97 2.231-0.42 3.599 0.29 2.211-0.63 0.362 0.08 1.33-0.97 1.197 0.85 0.549-0.47 1.301 0.24 1.534 1.08 0.7-0.93 2.67-1.88 2.14 0.14 1.13-0.79 1.26 0.34 0.84-4.87 5.45-0.73 0.51-2.25-0.62-2.69 0.3-2.71-1.12-2.04 0.3-1.64-1.1 0.08-0.99-2.04-0.79-3.2-0.54-0.53-1.29-1.05-1.18 0.12-3.11-1.79-0.19-0.63-1.94-2.42-0.93-3-2.306-0.87-2.008-0.08-1.062-0.89-1.536-1.27-1.219-1.41-2.459 0.17-0.724"></path><path d="m1525 945 1.12-1.673 3.77-0.76 0.86 0.205 1.71-0.518 0.68 0.342 2.1-0.899 1.68 0.624-1.47 1.235-2.13 0.654-0.77 0.753-1.32 0.17-1.09 0.696-1.69 0.306-2.74 1.518-0.71-2.653"></path><path d="m1522 946.1-0.7 1.563-1.4-0.744 2.1-0.819"></path><path d="m1061 1039-0.82-4.93 0.21-1.71-0.03-6.77-1.22-3.21-1.1-2.3 0.07-1.41-1.24-4.12 0.73-0.51 4.87-5.45-0.34-0.84 0.79-1.26-0.14-1.13 1.88-2.14 0.93-2.67-1.08-0.7-0.24-1.534 0.47-1.301-0.85-0.549 0.97-1.197-0.08-1.33 0.63-0.362-0.29-2.211 0.42-3.599-0.97-2.231 0.33-1.163-3.02-1.36-1.9-0.119-1.12-1.155-1.41-0.234-0.72-0.722-4.29-0.116-0.03-1.898-0.13-1.356-0.78-2.037 3.01-1.103 2.97-0.696 1.24-0.589 7.72-2.609 1.19 1.891 0.82 0.741 3.7-0.706 0.79 0.973 0.41 2.113-0.07 1.485-1.68 3.212 0.76 1.543 3.09 3.276 0.39 1.617 1.11-0.104-0.45-3.238 0.8-1.788 1.62-0.174 0.49-0.534 0.22-3.053-0.28-1.15 0.6-1.597-0.25-1.134-1.99-2.739-2.81-3.101-1.27-0.218-0.47-0.856-0.26-3.276-0.7-2.499 1.49-3.216 1.56 0.018 3.45 0.025 0.86-0.841 1.71 0.843 0.16 0.627 2.74-0.179 1.48-0.362 1.92 0.648 1.78-0.836 0.46-1.223 1.9-0.214 1.18 0.696 2.02-1.254 1.95-0.069 0.98-0.789 2.63-0.958 2.14-1.711 0.83 1.759-0.53 0.689-0.33 3.496 0.53 1.815-0.28 2.494 0.4 1.689-0.09 4.341 0.34 2.471 1.16 1.681-0.03 1.746-0.83 0.902 0.06 1.328-0.54 1.41-2.05 2.133-0.86 1.596-0.89 0.284-0.58 1.33-2.47 1.487-0.57 0.872-2.47 0.578-3.44 1.365-2.74 1.546-1.37 1.15-0.99 1.683-1.68 1.564-1.54 2.096-0.68-0.408-2.23 1.729-1.61 2.054-2.3 1.822-1 2.57 0.31 1.09 1.26 0.96 0.63 1.26-0.31 0.92 1.07 2.72 0.32 2.4 0.8 0.28 0.12 4.15-0.63 5.09 0.5 1.47-1.94 2.67-2.29 1.18-4.59 1.62-2.88 1.44-1.41 0.98-1.4 2.36 0.44 1.22 1.25 0.44-0.18 3.24-3.9-0.03"></path><path d="m1060 1034 0.82 4.93-0.61-0.01-0.12 2.68-2.21-0.03-1.84-0.59-1.86-2.74 0.09-1.79 1.58-2.71 1.53-0.93 2.04 1.33 0.58-0.14"></path><path d="m1053 912-0.69 1.226v1.031l1.51 0.69 0.57 0.918-1.82 1.704-2.32 3.803-1.38 0.952-1.62-0.06-0.32-1.787-0.62-0.97 0.09-4.274-1.09-1.631 1.45-0.303 0.17 0.832 1.79-0.091 1.03-0.797 0.14-1.662 1.04 0.57 1.19-0.64 0.88 0.489"></path><path d="m1045 913.6-0.79-1.514 1.46-1.34v-1.757l1.04-1.447 1.1-0.608 1.29-0.295 0.31 0.701 1.25-0.623 1.02-1.422 0.6 0.03 0.42 1.259 1.38 1.379 0.01 3.758-1.4 0.277-0.88-0.489-1.19 0.64-1.04-0.57-0.14 1.662-1.03 0.797-1.79 0.091-0.17-0.832-1.45 0.303"></path><path d="m1052 905.3-0.6-0.03-1.02 1.422-1.25 0.623-0.31-0.701-1.29 0.295-0.11-2.345 0.78-5.096 21.88-1.339-0.97 1.288 0.3 1.321-0.3 2.542 0.05 1.699h-15.38l-1.78 0.321"></path><path d="m1045 1051 1.66 1.03 0.62 1.45-1.37 1.86-0.09 1.46-1.42 0.85-2.48 0.54-1.55 2.84-1.55-0.29-1.89-1.68-1.76-3.95 1.14-0.44 2.53-3.67 1.35-0.3 0.68-0.88 2.56-0.6 1.57 1.78"></path><path d="m969.4 899 0.25 1.247-0.45 0.762 1.451 0.484 1.888 1.644-0.536 1.962 0.452 1.827-0.542 1.077-0.015 1.587-0.593 0.232-0.126 1.779-0.73 0.885-0.98-0.058-0.572-1.848-0.886 1.039-1.162 0.511-1.752-0.706-1.03-1.845-1.107-0.463-0.801 0.356 0.181 2.163-1.985 0.426-2.52-0.329 0.393 2.422 0.635 0.748-0.381 0.943 1.284 0.662-0.583 1.227-1.29-0.016-1.786 0.763-0.493 1.201-0.647-1.114-1.691-1.316-0.055-0.692-3.665-3.071-0.299-1-1.228-0.743-0.156-0.799-1.607-2.034 0.205-1.851-1.277-0.584-1.148-2.828 1.502-0.669 0.833-0.937 0.44-2.143 0.713-1.374"></path><path d="m1605 913 1.51 0.209 4.53 2.192 4.24 1.379 2.24 0.326 2.59 1.867 2.59 0.122 0.19 0.756 1.58 0.656 0.91 1.216 1.48 0.243 2.33 2.361-0.42 2.819 3.66 0.888 2.91 1.706 2.04 0.115 1.88 1.88 0.14 1.789-4.38 0.249-0.11 1.079 0.93 1.302 0.1 0.895 2.61 2.119 2.15 1.235 0.62 2.597 0.99 0.49 0.62 1.854 0.99 0.36 2.43-0.539 0.31 0.609-0.62 1.27 1.38 1.146 2.77 0.243-1.41 0.848 1.05 1.285 1.28 0.166 2.48 2.346-1.38 0.637-1.74-0.214-1.6-1.534-1.44 0.071-2.41-0.387-3.73-0.866-2.35-0.233-1.22-0.917-1.04-1.726-1.29-0.399-0.69-1.702-1.44-0.512-0.25-1.018-1.49-1.956-0.88-1.692-2.44-0.847-3.67-0.761-0.9-0.832-1.34-0.023-1.09 0.927-1.45-0.514 0.16 1.404-2.04 0.3 0.22 1.062-3.06 0.473 2.1 2.258 0.03 0.911-1.16 0.408-2.61 1.456-2.14-0.856-1.78 0.299-2.23-0.355-1.53 0.345-0.7-0.568 0.01-11.16-0.64-0.976 0.63-1.851v-8.736l-0.01-9.997"></path><path d="m1662 921.7-0.03 1.698-0.6 1.263-1.5 0.182 0.53 2.43-1.56 0.649-1.53-0.277-0.07 0.78-1.29 1.295-3.1 1.185-0.61 0.481-4.18 0.127-0.83-0.989-1.61 0.209-1.85-1.362-1.93-0.494 0.22-1.659 2.01 0.447 0.73-0.344 2.06 0.613 3.76-0.267 1.41-0.389 1.48 0.389 1.51-0.723 0.3-1.137 1.53-1.251 1.12 0.256 0.42-0.737-0.78-3.22 1.39 0.187 0.73 0.588 2.27 0.07"></path><path d="m1666 921.4-0.31 1.667-1.01 0.938-1.01-1.691 0.08-1.443-2-2.978-2.39-1.045 1.21-0.573 0.83 1.053 1.37 0.931 0.42 0.879 1.9 0.904 0.91 1.358"></path><path d="m1680 933.3-1.08 1.168-1.79-0.639-0.86-0.964 0.23-0.962-1.28-0.857-1.11-1.232 0.07-1.955 1.5-0.034 1.91 2.941 1.31 0.714 1.1 1.82"></path><path d="m1637 909.9-1.08 0.997-2.84-0.069 0.02-1.025 3.9 0.097"></path><path d="m1652 912.7-1.4 0.735-0.96-1.066 1.07-0.459 1.29 0.79"></path><path d="m1654 948.5-1.25-0.148-0.22-1.448 1.91 0.932-0.44 0.664"></path><path d="m1105 896.9 0.06 7.466 2.71 3.511 0.07 0.618-1.16 1.3-2 0.621-0.38 1.473-1.06 0.89-1.13 0.039-1.08 1.012 0.26 1.158-0.48 1.292-1.41 1.87-0.31 1.463-1.17 2.431-0.95 1.163-0.86 0.219-7.1-5.124-0.9-1.26 0.55-0.449-0.28-1.344-4.7-2.631-6.44-3.598-6.82-3.806-0.74-0.189-0.05-1.699 0.3-2.542-0.3-1.321"></path></g></g><path d="m0 517.9 1.161-1.113 3.508-2.648 7.93-4.288 8.521-1.779 3.911-2.139 2.908 0.1 14.28-2.509 3.623-2.588 7.774 4.917 5.655 2.179 2.342-6.177 3.482-1.899 4.152 1.569 3.309-0.9494 6.582 1.389 0.678-2.788 2.786-0.9195 0.392 3.658 7.478 2.509 1.112-3.248 4.186-1.789 0.716 2.439-1.828 5.517 1.791 2.718 5.574 0.1399 3.99-1.699 0.03-3.558 2.97-5.077 3.89 4.528-1.27 3.308 4.99 0.7596 2.14-6.127 3.28 1.969-0.44 3.108 3.24 3.128 7.39 1.329 5.91-4.448 4.12-0.7096 6.95-5.737 7.19-1.089 6.44-2.738 1.42-1.549 0.38-8.645-2.15-5.787 3.59-3.618 4.99 0.1199-2.21 5.207 4.08 0.1799 3.06 3.198 0.22 6.306 7.53-1.409 3.95 0.6796 6.32 4.388 2.02-4.078 2.53-1.719-0.03-7.346 0.75-3.318 5.15-1.659 0.63-1.549 4.83-2.588 2.78-0.3698 1.62-3.718 5.71-1.809 4.13-0.03-0.55-2.419 7.49-1.719 0.32-4.168 3.06-0.8995 0.14 3.148 1.72 1.889 7.27 0.4097-0.44-3.018 2.72-0.9694 0.88-2.519-4.51-0.01 0.7-3.128 3.7-0.6896 6.29 4.268-1.97-8.026 1.73-3.538 4.07-1.02 2.1-2.279 9.81-2.339 7.25 1.039 2.14 1.189 3.83 5.267 2.15-0.5896 2 1.569 0.17 2.369-3.73-0.4198 0.53 3.268 3.38 1.819 1.42-1.169 2.88 2.029 3.66 0.1699-0.38 2.269 2.35 1.869 2.07-1.179 4.7 0.09 2.75 1.359 4.75 0.7496 2.5 1.279 5.16-2.049 5.35 1.959 18.28 3.198 6.53-0.4098-0.24 3.438 2.41 5.017-2.26 1.169-1.91 3.478 1.89 2.119 0.23 4.817-4.82 0.8795 3.07 3.248-1 3.738-2.75 2.199-1.68-2.798-3.32 2.629-0.69 2.838 3.04 3.638 3.36-1.769 2.5 1.079-0.18 3.968-2.71 8.146-4.19 5.237-1.91 5.687-2.25 16.66-3.07 5.117 4.78 1.739 3.09-2.698-0.21-7.406 2.88-3.948 5.11-0.7196 2.15-5.757 2.92-0.5297 2.96-5.107 0.4-6.236 2.97-9.505 5.37-4.258-1.21-3.538 4.22-6.047 3.75-0.6797 0.26 2.519 8.05-1.869-0.32-3.648 5.04-2.459 0.86-1.979 4.21-1.149 0.72-4.318 3.42-1.679-1.03-2.698 3.34-4.787 14.64-6.316 5.78-1.219 2.54-3.458 3.45-2.449 2.74-0.6197 3.27 1.439 2.26-1.889 3.14 0.2998 6.35-3.748 8.44 0.8895 3.59-0.2499 3.87-3.118 4.07-0.9495 4 1.709 4.32-0.6497 1.87 1.879 4.6-3.228 3.59 2.568 8-2.159 1.18 1.549 5.28-2.289 1.89 4.218 5.09-3.578 4.49-1.439 2.55-3.728 0.02-1.719 5.01 0.09 1.88-1.099 4.23 1.719 1.74-0.2798 14.3 5.907 6.84 2.119 3.48 4.358 5.08-1.449 2.99-2.489 1.39-3.168-1.17-1.209 2.19-3.138 11.38-3.538 6.01 5.777 1.34 3.028 4.62 1.429 0.91 2.469-3.1 3.388-5.65 1.759 0.01 3.728 6.53-3.358 5.81-1.229 9.34-0.9995 3.27 4.717 12.47-4.118 3.64-3.168 10.08-3.158 1.81 2.039 2.63-1.229 1.31-3.038 2.44-1.389 4.1 3.588 1.4 4.308 2.17 1.759 2.02-0.6297 3.42 1.599 3.41-0.5896 1.16-1.699 0.49-4.478 2.85-4.218 3.14-1.609 5.14 1.189 6.81-1.809 3.36 0.1 4.74 3.248 7.1-1.509 2.38 2.628 1.54-1.599 3.94 0.5697 1.43 1.429 6.17 0.9894 4.15 2.089 9.5 0.8495 2.48 2.878 4.96-2.299 5.21 2.169 0.75 1.289-3.91 10.68 5.31-2.838 1.48-2.509 4.05 0.7695 1.69 4.338 3.43 2.698-1.77 2.499 4.55 0.7096 4.04 1.599 4.77-1.209 4.94 0.7496 3.58-0.4397-0.62 4.238 7.17-0.2599 4.23 2.479 2.97-1.619-0.72-2.948 0.68-3.698 4.41 3.458 1.47 5.097 4.38 1.169 2.31 3.068 8.21-0.4197 8.81 4.667 2.9 4.228 4.26 9.045 1.15 7.436 2.87 0.2698 0.52-9.155 2.51-0.6696 4.13 5.747 3.89-0.2199 0.2-2.219 5.36 1.03 5.79 3.108 4.73-0.1099 2.31 3.898 9.57 7.866 5.11 2.848-0.2 4.028h-2.59l-1.2 3.568 1.2 7.136-5.18 8.985-10.24 0.3498 0.96 4.198-1.66 3.018-8.86 5.837-3.34 0.5997 3.48 9.884-13.48 5.357 0.97 4.597-2.97 7.776 0.04 4.997 3.5 3.748-0.82 5.167 1.67 20.3 3.23 8.535 0.95 6.946 2.97 3.718-1.46 8.965 7.39 0.8595 2.02 7.616-8.4 0.9395-2.79 3.388-8.63 0.5797-0.3 8.026-8.4 2.638 2.32 21.78-10.34 8.775-0.97 6.506 10.82-2.908 2.24 8.126-5.2 4.128 3.74 6.676 0.5199 18.31 6.89 8.595 7.24 15.58 17.34 22.53 2.21 18.06 17.23 8.215 13.84 19.76 31.19 22.99v39.83h-901"></path><g fill-rule="evenodd"><g stroke-width=".75"><path d="m846.4 631.7-4.37 5.607-10.06-1.929 1.33-5.787 7.83 0.2199 5.27 1.889"></path><path d="m81.23 492.1-0.376 5.337-2.912-2.059 3.288-3.278"></path><path d="m502.8 435.6 2.8 0.1099-0.79 3.268-3.35-0.2898 1.34-3.088"></path><path d="m133.8 499.7 0.37 2.778-3.91-0.3098-0.35-2.908 3.89 0.4397"></path></g><g stroke-width=".7502" font-weight="400" font-size="37.5px" font-family="'MS UI Gothic'" transform="matrix(1 0 0 .9994 -900 -900)"><path d="m1558 1067-1.79-0.75-1.72 0.73-3.39-0.16-5.83 0.68-4.86 2.32-3.65 1.12-3.05 0.25-2.46-0.5-1.58 0.6-1.66 1.27-2.69 1.13-1.46 0.99-1.76 0.29-1.2 1.01-0.82 2.66-1.93 1.91-3.89-0.02-1.14 0.47-2.72-0.81-1.02 0.42-1.4-0.45-4.8 0.43-0.75 0.48-2.1-0.27-2.15 1.3-0.95 1.81-2.25 0.03-4.06 3.3-2.91 0.64-0.89-0.42-2.3 0.16-2.17-0.3-2.23-1.05-1.37-1.75-2.06-1.37-1.58-0.32-0.31-3.5 2.39-0.52 1.16-1.84-0.33-3.73 0.85-0.36-0.28-1.77 0.15-2.21-0.32-1.65-2.5-4.8-1.03-3.56 0.02-4.23-0.73-2.22-1.27-1.76-0.23-1.49-1.83-2.37-0.11-2.37-0.66-2.09-2.11-3.59-1.46-1.56 0.76-1.1 0.74 1.78 1.27 0.14 0.16-1.12-1-0.68-1.32-2.74 0.56-0.61 1.14 1.59-0.28 1.35 1.16 0.24 0.84 1.43 0.77-3.37-0.51-0.29-2.73-4.97-0.85-1.98-0.27-1.55 0.37-1.86 1.39-2.09 0.37-2.59-0.83-2.57 1.83-3.88 0.8 2.47 1.1 0.22 1.27-2.78 1.41-0.8 2.63-0.97 2.41-2.44 2.49-1.27 1.55-1.1 1.59 0.03 1.46 0.57 2.43-0.6 1.48-1.36 3.48-0.53 1.18-1.49 2.49 0.46 1.18-0.55 2.18-0.31 3.58-1.45 1.2-0.858 1.63-2.133 0.61-1.371 1.34-1.825 1.55-1.408-0.38-3.328 0.14-1.585 0.52-0.9 2.14-1.581 0.91-1.432 1.32 1.541 1.25 2.728 2.19-1.03-0.72-2.104-0.64-0.594 0.43-1.334 0.92 0.042 2.71-0.799 1.06-0.629-0.93-1.141v-1.639l1.13-0.281 1.06-1.886 2.56-0.763-1.05-1.373 2.57-1.902 1.92 0.767 0.5-1.617 1.24-0.982 0.9 0.981 1.91-2.43 0.78 1.18 1.07-0.182 1.72 1.345 1.2 1.647 1.35 1.038 0.1 1.854 1.68-1.573 2.6 0.658 0.85-0.189 1.95 0.512 0.56-0.785-0.69-1.16-1.14-0.813 0.69-1.65 1.11-0.379 1.25-2.497 1.53-1.088-0.78-0.835 0.06-1.107 1.11-0.503-0.04-0.756 2.2-1.332 1.08-1.349 1.64 0.071 0.82 0.576 2.06-0.399 0.71 0.448 2.91-1.348-0.17-2.155-1.12-0.955-1.43 0.424-1.14-1.095 0.79-0.835 0.87 1.079 0.81-1.045 1.62 1.847 1.18-0.901 1.16 1.749 1.02 0.07 1.38 0.74 0.9-0.604 0.71 1.015 0.94-0.139 1.25 0.799 2.4 0.429 1.04 0.682 2.33-0.917 1.02-0.711 1.43 1.892 2.12-1.888 1.2 1.741-0.05 1.989-1.03 0.62 0.81 0.835-0.93 1.342-0.71-0.275-2.12 0.837-0.2 1.411 0.8 1.018-0.5 1.74-2.56 3.119 0.39 1.077 3.85 2.466 0.14 0.628 2.5 1.848 1.39 0.111 1.58 1.04 1.92 0.677 0.6 0.964 1.59 1.356 2.37 0.431 1.9 0.71 1.18 2.264 3.63 1.876 2.54-0.366 1.63-0.973 0.57-2.264 1.26-1.647 1.12-3.238 0.32-3.132 0.89-2.423-0.72-2.728 0.31-2.104-0.55-1.544 1.08-2.656-0.52-1.45 0.84-0.815 0.29-1.202-0.73-0.732 0.68-1.975 0.73-0.812 0.92-2.849 0.21-2.079 1.37-1.097 1.47 1.326 0.65 4.466 1.66 0.674-0.63 1.771 0.87 0.308 0.91 1.148 0.46 3.677 0.34 0.545-0.3 1.697 0.77 1.281 0.47 2.001 0.85 0.499 2.81-1.683 0.82 1.977 3 2.023-0.02 3.05 0.41 1.91 0.53 0.817-0.31 1.994 1.89 2.307 1.47 2.651 0.13 2.83-0.37 1.745 1.58 1.391-0.32 1.833 0.85 0.981 3.61 1.801 1.91 0.642 0.67 1.63 0.88-0.02 3.53 1.25 0.22 0.82 1.2 1.11-0.97 0.72 0.42 0.87 2.46 1.98 1.23 3.38-0.21 0.38 0.86 2.46 1.11 0.78 1.12-1.34 0.81 1.37 1.48 0.76 1.23-0.29 0.34 1.17-0.31 2.5 0.46 1.97 0.86 0.33 0.8 1.22 1.96 1.39 1-0.2 1.85 3.28 1.27 0.71 1.37 2.72 1.18 0.26-0.1 2.21 1.14 1.37-0.22 1.93 0.64 4.28-0.46 1.1 1.66 3.21 0.02 1.48 0.71 1.11 0.07 3.41-1.33 2.61-0.09 2.15-1.67 6 0.5 1.12-0.77 3.25-2.12 4 0.06 1.57-1.43 1.06-0.23 0.9-1.78 0.64-0.82 1.17-2.51 6.29-1.22 1.33-0.45 2.75-1.4 2.63-1.95 4.57-0.11 2.25-1.19 3.79 0.58 1.83-0.17 1.73-2.53 1.83-5.87 0.24-1.95 0.6-1.63 1.03-3.56 3.59-3.11 0.37-1.7 1.25-0.53-1.58-1.2 0.08-1.37-2.75-0.88-0.46-0.69-1.65-2.29 1.17-0.61 1.38-1.75 1.18-2.58 2.39-5.69-3.15-2.26-0.53-2.56 0.58-1.5-1.57-2.1-0.36-1.77-1.2-1.23-2.3-1.86-2.12-0.35-1.43 0.91-2.07-1.89-4.49-2.17-1.81-0.4-1.16-2.15 1.42-2.05-0.55 1.53-1.25 0.54-3.74-1.38-1.83-1.11-0.79-1.83 5.31-1.34-0.35-2.25 0.98 0.38-2.35 2.08 0.11 0.33-1.82-0.29-2.75 0.74-1.74 1.68-2.09-0.64-1.61 1.17-0.8-0.71-2.01-2.25 2.1-1.14 3.07-3.08 1.5-1.19 1.03-1.23 2.3-0.94 0.49-0.97 1.99-1.56-0.91-0.42-2.65-0.78-2.31-1.7-1.53-0.18-1.71-0.76-0.76-1.92-0.38-1.02-2.67 1-0.75-3.44-2.87-2.19 0.55-1.75-1.42-2.82 0.46-3.49-2.52"></path><path d="m1640 1140-1.03 0.09-1.03-2.89-1.13 0.71-0.51 2.25-0.79 0.31-1.95 2.27-0.98-0.65-2.42-0.36-0.78-1.54-3.05-4.53-0.29-4.25-1.4-1.72-1.6-4.75 0.42-1.93 5.11 1.49 0.4 0.58 3.16 0.99 2.97-1.26 2.13 0.21 1.88-0.76 0.82-1.04 1.74 1.76-0.32 0.99 0.29 5.1-0.9 0.56-0.81 2.16-0.48 3.4 0.58 0.61-0.03 2.2"></path><path d="m1558 957.4-0.53 0.988-2.26 1.632-2.42-1.415-0.65-2.128 1.63 0.971 1.59-0.346 1.32-0.843 1.32 1.141"></path><path d="m1591 1092-1.87 0.34-1.48 1.31-1.24-0.64-2.48 0.51-0.92-0.93 0.45-0.99 3.65-1.02 1.14 0.87 2.75 0.55"></path><path d="m1585 971.6-0.24 0.606-2.22-0.426-0.15-1.749 1.27-0.806 0.54 1.015-0.38 0.752 1.18 0.608"></path><path d="m1667 1029-1.43 3.74-0.68-0.63 0.45-2.04 1.66-1.07"></path><path d="m1640 1120-0.8-2.11 2.23 0.88 0.04 1.8-1.47-0.57"></path><path d="m1553 958.9-1.67-0.263-0.28-0.839 1.02-0.763 0.23 0.996 0.7 0.869"></path><path d="m1599 983.4-1.45 1.154-0.78-1.012 2.23-0.142"></path><path d="m1794 991.5-0.24 0.506-1.93 0.305-0.55 0.538-1.7-0.073-2.46-0.679-0.42-0.806 0.68-1.637 2.23-1.437 2.14-0.161 1.7 1.648 0.55 1.796"></path><path d="m1799 983.5 0.83 1.348-3.04 0.466-0.15-0.611-2.8 1.614-0.52-1.145 1.58-1.613 1.61-0.378 2.62-1.128 1.18-0.117z"></path><path d="m1764 1141 0.28 2.28 1.24 0.29-0.88 1.72-1.89-1.24-5.76 3.87-0.75 2.01 0.04 2.39-1.12 1.76-1.41 3.74 0.45 1.31-2.27 0.86-0.5 1.24-2.99 3.07-3 0.76-0.96-0.89-2.39-0.14-0.75-1.35-1.83 0.3-0.76-1.5-1.46 0.45-3.22-0.22-1.46-1.71 0.1-1.26 1.54-0.6-0.48-1.3 2.51-4.21 1.07-0.77 4.61-5.06 2.03-0.75 2.23-1.75 2.71-1.33 0.81-1.18 4.02-3.02 2.11-2.47 1.83-5.14 2.08-1.5 0.83-1.28 0.18-3.51 2.68-2.48 0.24 1.47 1.87 1.01-0.17 1.74 0.91 1.02 1.8-1.56 3.2-0.45 0.24 0.79-1.02 2.04 0.85 1.99-0.14 1.03-1.54 2.45-1.66 1.7-1.35 3.15-2.38 1.47-0.32 0.76"></path><path d="m1785 1116 0.41 0.95-0.99 2.77-2.45 3.41-1.91 3.64-3.18 2.42-0.74-1.28-1.58 0.01-1.28-0.85 1.66-2.13 1-1.96 0.46-2.22-0.4-1.64-0.93-1.11-2-0.58-1.24-1.39-1.67-0.46-1.01-0.97 0.34-1.67 3.63-1.89 0.64-4.6 0.72-2.25-0.79-2.75 0.7-2.42-1.72 0.45-0.64-2.4 0.41-1.4-1.81-0.04-1.11-2.07-3.79-5.2 0.12-2.51 1.77 1.11 2.05 0.09 1.25 1.92 0.97-0.19 1.19 1.87-0.37 2.43 1.31 1.59-0.18 2.17 0.49 1.43 2.1 0.74 0.64 1.66 1.14 0.04-0.47-3.5 1.9 1.7 0.58 4.44 2.6 0.82 3.14 1.66 2.05-0.7 0.91-1.5 1.47-0.8 1.23 0.06 1.43 1-1.06 1.8-0.29 3.43-1.65 1.42-0.41 2.08-2.47-0.05-1.62 0.78-0.79 1.61 0.24 1.03"></path><path d="m1741 1167-1.49 1.04-1.27-1.03 1.36-2.67 1.3 1.32 0.1 1.34"></path><path d="m1735 1014-0.61 0.8-2.17-0.53-4-2.84-1.94-0.99-1.85-1.57-0.6-1.09-2.17-1.73-1.17-2.44 1.82-0.01 2.83 2.32 0.78 0.16 0.94 1.56 5.03 3.49 0.81 0.91 1.82 1.11 0.48 0.85"></path><path d="m1737 1008-1.82-0.17 0.59-1.11 1.23 1.28"></path><path d="m1121 1004 1.13-2.47-0.55-0.74 0.45-1.888-1.16-1.923 0.15-1.325-1.04-1.991-0.07-3.456-0.46-1.646 2.43-3.951 0.11-2.678 2.01 0.201 2.06-1.568 1.86 0.099 0.28-0.831 1.61 0.047 1.58-0.842 2.74-2.101 0.89-0.045 1.17-1.517 0.95 0.812 1.35-2.481-0.21-1.193 0.52-0.792 1.15-0.332-0.84-1.893 0.78-1.374 0.75 1.181 1.23-1.145 1.6-0.579 1.04-3.08-0.45-0.895 0.59-1.555 1.69-1.705 0.14 1.526 0.95 0.408 0.12 1.222 1.5 1.352 0.54 2.314 0.85 2.324 0.24 3.473 0.47 2.183 1.1 2.264-0.37 1.473-0.94 1.86-1.02-0.513-0.68-2.27-1.32 0.634 0.48 1.876-0.16 1.089 0.72 0.505 0.02 1.774-0.63 0.812-1.46 3.011 0.36 1.987-0.72 4.002-1.42 3.388-1.26 4.442-1.31 3.59-0.53 2.34-1.27 4.2-1.51 3.7-0.33 2.27-1.33 5.19-1.15 2.58-1 3.22-0.87 0.86-1.55 0.65-2.08 0.08-3.73 2.08-1.78 0.06-1.51-1.33-2.32-0.49-1.71-1.42-0.94-2.71-0.92-1.76-0.14-4.63-0.22-1.43-1.14-1.34-0.67-3.11 0.57-2.62 0.68-0.52v-1.43l1.7-0.97 0.45-1.83 1.76-2.71"></path><path d="m1253 1183-0.42 1.33-1.62-0.14-0.08 2.89-5.05-0.86-1.06-1.32-0.73-2.94 1.64-0.56 0.65 1.13 2.49 1.42 2.8-1.77 1.38 0.82"></path><path d="m1189 1003-0.62 1.37-1.57-0.28 0.87-2.14 1.32 1.05"></path><path d="m1699 942.7-5.07-2.718-1.33-1.174 0.37-0.905 2.16 1.727 1.58 0.398 2.2 1.733 0.09 0.939"></path><path d="m1707 948.3-0.61-0.862-1.85-1.497-1.37-3.881 0.76-0.38 1.25 1.486-0.25 1.063 1.03 0.687 1.04 3.384"></path><path d="m1688 936.8-0.44 0.409-2.57-1.036-1.2-1.57-1.13-0.825 0.13-0.656 2.77 1.481 1.3 1.861 1.14 0.336"></path><path d="m1704 949.4-0.91 0.507-1.62-0.62-2.42-0.107-1.18-1.428 0.54-1.341 1.16 0.938 2.13-0.102 2.1 1.596 0.2 0.557"></path><path d="m1712 954.4-2.91-0.451-1.34-0.869-0.07-1.013 3.02 0.465 1.3 1.868"></path><path d="m1689 943-1.15-1.446-1.7 0.204 0.77-1.44 1.82 0.996 0.26 1.686"></path><path d="m1684 938.7-0.74 1.106-0.78-1.56 1.52 0.454"></path><path d="m1736 978.6-1.73 0.627-0.89-1.408 0.17-0.624-0.64-2.24 1.08-0.013 0.32 1.67 1.27-0.778 0.68 1.573-0.26 1.193"></path><path d="m1739 983.2-1.77 0.774-0.3-2.505 2.07 1.731"></path><path d="m1743 989.9-0.77 0.696-1.09-0.879 0.73-0.648 1.13 0.831"></path><path d="m1747 996.4-1.74-0.308 0.82-1.268 0.92 1.576"></path></g></g></g></svg>
