<svg version="1.1" xmlns="http://www.w3.org/2000/svg" xmlns:xlink="http://www.w3.org/1999/xlink" width="480" height="40" viewBox="0,0,480,40"><g transform="translate(0,-160)"><g data-paper-data="{&quot;isPaintingLayer&quot;:true}" fill-rule="nonzero" stroke-linecap="butt" stroke-linejoin="miter" stroke-miterlimit="10" stroke-dasharray="" stroke-dashoffset="0" style="mix-blend-mode: normal"><path d="M240,196v-32h208v32z" fill="none" stroke="none" stroke-width="0"/><path d="M0,200v-40h480v40z" fill="none" stroke="#000000" stroke-width="0"/><path d="M251.04,185.42h4.9219v-10.742h2.2168v14.658h-2.2168v-1.7969h-11.943v1.7969h-2.1973v-14.658h2.1973v10.742h4.8047v-14.727h2.2168z" fill="#ffffff" stroke="none" stroke-width="1"/><path d="M269.43,173.28v4.9609h2.3633v1.9238h-2.3633v9.3359h-2.0801v-9.3359h-2.3926c-0.03253,1.96613 -0.17576,3.57093 -0.42969,4.8144c-0.35156,1.76433 -1.06769,3.31707 -2.1484,4.6582l-1.7676,-1.3379c0.99607,-1.21093 1.65037,-2.6823 1.9629,-4.4141c0.16927,-0.96353 0.26693,-2.15167 0.29297,-3.5644l0.01,-0.15625h-2.3828v-1.9238h2.3828v-4.9609h-1.9629v-1.9043h10.381v1.9043zM267.3499,173.28h-2.3926v4.9609h2.3926zM270.4163,187.372c2.9232,-1.0026 5.4232,-2.98827 7.5,-5.957l1.6211,1.2988c-1.9466,2.95573 -4.56703,5.07813 -7.8613,6.3672zM271.012,176.22c2.6172,-1.31507 4.62567,-3.10217 6.0254,-5.3613l1.7188,1.0938c-1.63413,2.51953 -3.8021,4.47593 -6.5039,5.8692zM271.39286,181.3762c2.49347,-1.1784 4.554,-2.92643 6.1816,-5.2441l1.6211,1.2891c-1.72527,2.42187 -3.89323,4.2806 -6.5039,5.5762z" fill="#ffffff" stroke="none" stroke-width="1"/><path d="M296.76,170.98v9.4629h-11.621v-9.4629zM287.2385,172.523v1.2207h7.4023v-1.2207zM287.2385,175.1207v1.2207h7.4023v-1.2207zM287.2385,177.7183v1.2598h7.4023v-1.2598zM283.3029,181.7417h16.191v1.6992h-8.0762v6.0644h-2.2168v-6.0644h-8.0371v-10.957h2.1387zM280.8029,187.6401c1.54947,-0.71613 3.0306,-1.9173 4.4434,-3.6035l1.7969,1.0449c-1.3932,1.76433 -2.93943,3.15107 -4.6387,4.1602zM297.6389,188.8999c-0.99607,-1.22393 -2.49347,-2.50973 -4.4922,-3.8574l1.6797,-1.1816c1.569,0.90493 3.1087,2.09307 4.6191,3.5644z" fill="#ffffff" stroke="none" stroke-width="1"/><path d="M317.32,170.92v6.123h-14.619v-6.123zM304.879,172.3165v1.0059h10.264v-1.0059zM304.879,174.6017v1.1426h10.264v-1.1426zM309.7618,179.7384v8.1445c1.26953,-0.34505 2.43163,-0.93749 3.4863,-1.7773c-0.9896,-1.15233 -1.7383,-2.39257 -2.2461,-3.7207h-0.83984v-1.5625h7.5391l0.95703,0.83985c-0.7096,1.71873 -1.59827,3.19333 -2.666,4.4238c0.95707,0.625 2.155,1.1556 3.5938,1.5918l-1.2012,1.7871c-1.4844,-0.55989 -2.7344,-1.24349 -3.75,-2.0508c-1.11327,0.918 -2.4186,1.64717 -3.916,2.1875l-0.95704,-1.4356v1.3379h-2.0215v-2.1777c-1.84893,0.37109 -4.13733,0.70312 -6.8652,0.99609l-0.53711,-1.7969c0.8594,-0.0456 1.59183,-0.09117 2.1973,-0.13672v-6.6504h-2.041v-1.6211h19.004v1.6211zM307.7403,179.7384h-3.2031v1.1816h3.2031zM307.7403,182.2189h-3.2031v1.2012h3.2031zM307.7403,184.6994h-3.2031v1.4941c0.55338,-0.0586 0.97005,-0.10417 1.25,-0.13672c0.74867,-0.07813 1.3997,-0.153 1.9531,-0.22461zM314.5176,184.86541c0.59245,-0.6836 1.12632,-1.51043 1.6016,-2.4805h-3.3106c0.40365,0.87893 0.97331,1.70577 1.709,2.4805z" fill="#ffffff" stroke="none" stroke-width="1"/><path d="M330.59,176.07h7.0508v2.002h-7.0508v8.1641h8.916v2.041h-19.004v-2.041h7.7246v-15.742h2.3633z" fill="#ffffff" stroke="none" stroke-width="1"/></g></g></svg>