<svg version="1.1" xmlns="http://www.w3.org/2000/svg" xmlns:xlink="http://www.w3.org/1999/xlink" width="52.44791" height="30.54879" viewBox="0,0,52.44791,30.54879"><g transform="translate(-206.67936,-356.28643)"><g data-paper-data="{&quot;isPaintingLayer&quot;:true}" fill="#ff0000" fill-rule="evenodd" stroke="none" stroke-width="0" stroke-linecap="round" stroke-linejoin="round" stroke-miterlimit="10" stroke-dasharray="" stroke-dashoffset="0" style="mix-blend-mode: normal"><path d="M242.35794,360.59624l0.68997,-0.33998l1.09995,1.02996l2.16992,-0.01l1.39995,1.07996l1.34994,0.64997l0.23999,0.71997l2.4499,0.99996l0.14999,0.88997l3.04988,0.98996h0.88997l2.4399,1.76993l0.83997,1.63994l-0.53997,1.67993l0.10999,0.97996l-0.35998,1.09996l-0.14999,1.91992l-0.65997,1.10996l0.23999,0.83997l-0.41998,0.75997l-2.5299,2.17991l-0.56998,0.92997l-1.10996,0.81997l-0.68997,1.41994l-1.30995,0.49998l-0.59998,0.97996l-3.51986,0.73997l-1.23995,0.47998l-0.55998,-0.48998l-1.07996,0.86997l-0.95996,-0.60998l-2.31991,0.50998l-1.20996,-0.78997l-0.58997,0.12l-2.79989,-0.41998l-0.73997,-0.86996l-1.43995,-2.6399l-0.67998,-0.44998l-0.03999,-1.96992l-0.84996,-2.83988l-1.32995,-1.04996l-0.42998,-2.12991l-0.67998,-1.29994l0.19,-0.85996l-0.61998,-1.96992l0.46998,-2.06992l0.92996,-0.35998l2.85989,0.05999l1.59994,-1.58993l0.50998,-1.29994l1.20995,-1.34995l0.75997,0.05l0.64997,-1.64994l-0.33999,-0.88996l0.83997,-0.84996l0.76997,0.37999l1.73993,0.25999l-0.30999,-1.24995l0.44998,-0.31998l0.57998,1.90992"/><path d="M207.55933,356.8964l2.5699,0.14999l0.95996,1.37995l0.92997,-1.08996l1.29994,0.95997l0.81997,-0.07l0.70997,0.60998l0.67998,-0.18999l2.74989,2.5799l0.29998,0.91996l-0.49998,0.78997l-0.73997,-0.65998l-1.89992,0.42998l-0.83997,1.26995l-1.60994,-0.14999l-1.73993,-1.58993l-0.27999,-1.67993l0.16999,-1.14995l-1.37995,0.90996l-0.71997,-0.67998l-0.42998,-1.03996l-1.61993,-0.97996l-0.30999,-1.32995l0.87997,0.60998"/></g></g></svg>