<svg version="1.1" xmlns="http://www.w3.org/2000/svg" xmlns:xlink="http://www.w3.org/1999/xlink" width="208" height="32" viewBox="0,0,208,32"><g transform="translate(-240,-164)"><g data-paper-data="{&quot;isPaintingLayer&quot;:true}" fill-rule="nonzero" stroke="none" stroke-linecap="butt" stroke-linejoin="miter" stroke-miterlimit="10" stroke-dasharray="" stroke-dashoffset="0" style="mix-blend-mode: normal"><path d="M240,196v-32h208v32z" fill="none" stroke-width="0"/><path d="M248.82,177.46v-6.9629h2.2363v6.9629h8.4473v2.041h-8.4473v10h-2.2363v-10h-8.3203v-2.041z" fill="#ffffff" stroke-width="1"/><path d="M275.45,183.5h-2.0801c-0.52083,2.81253 -2.10613,4.8275 -4.7559,6.0449l-1.3867,-1.5234c1.32813,-0.50781 2.33727,-1.23371 3.0274,-2.1777c0.54036,-0.74867 0.90819,-1.52993 1.1035,-2.3438h-2.2852v-1.0449c-0.33203,0.29297 -0.7129,0.58919 -1.1426,0.88867l-0.87891,-1.2988v5.6934c0,0.57292 -0.11719,0.98632 -0.35156,1.2402c-0.24089,0.25391 -0.63802,0.38086 -1.1914,0.38086c-0.44922,0 -1.06772,-0.05859 -1.8555,-0.17578l-0.34179,-1.9238c0.59245,0.11067 1.07748,0.16601 1.4551,0.16601c0.20833,0 0.34831,-0.03581 0.41993,-0.10742c0.08463,-0.08463 0.12695,-0.23112 0.12695,-0.43945v-4.4238h-2.1484c-0.02607,1.45833 -0.1107,2.6172 -0.2539,3.4766c-0.19531,1.1784 -0.62501,2.39587 -1.2891,3.6524l-1.4844,-1.543c0.56641,-1.12627 0.93101,-2.44787 1.0938,-3.9648c0.09765,-0.90493 0.14648,-1.96287 0.14648,-3.1738v-9.5801h5.6738v10.176c1.04167,-0.57291 1.87173,-1.28581 2.4902,-2.1387h-2.1484v-1.6797h2.9688c0.19531,-0.46224 0.39388,-0.99611 0.5957,-1.6016h-3.1055v-1.6797h1.4453c-0.46223,-1.1328 -0.9375,-2.05727 -1.4258,-2.7734l1.7578,-0.76172c0.57943,0.8724 1.06769,1.79037 1.4648,2.7539l-1.6992,0.78125h2.0117c0.24739,-1.09373 0.45573,-2.4121 0.625,-3.9551l2.0215,0.13672c-0.17578,1.33467 -0.39713,2.60747 -0.66406,3.8184h3.2031l-1.543,-0.55664c0.48177,-0.8854 0.92123,-1.9108 1.3184,-3.0762l1.9629,0.57617c-0.31901,0.85287 -0.83335,1.87173 -1.543,3.0566h2.002v1.6797h-3.4766c0.24089,0.55339 0.51758,1.08725 0.83008,1.6016h3.3301v1.6797h-2.0703c0.76173,0.78773 1.53647,1.40623 2.3242,1.8555l-1.0547,1.7871c-0.51432,-0.37109 -0.93425,-0.70313 -1.2598,-0.9961c-0.00667,0.09766 -0.01,0.22461 -0.01,0.38086c-0.0456,3.1706 -0.2051,5.11397 -0.47851,5.8301c-0.17578,0.45573 -0.46875,0.76823 -0.87891,0.9375c-0.29948,0.1237 -0.71288,0.18555 -1.2402,0.18555c-0.57292,0 -1.24999,-0.04557 -2.0312,-0.13672l-0.41992,-1.9238c0.8594,0.16276 1.543,0.24414 2.0508,0.24414c0.35807,0 0.58268,-0.11393 0.67382,-0.3418c0.15625,-0.35807 0.27995,-1.58527 0.3711,-3.6816zM273.5555,181.8203h3.6523c-0.8008,-0.74867 -1.4844,-1.56897 -2.0508,-2.4609h-3.584c-0.41667,0.8138 -1.02213,1.6341 -1.8164,2.4609h1.8848l0.10743,-1.4746h1.9238zM272.286,177.6797h1.9824c-0.18881,-0.44271 -0.39714,-0.97657 -0.625,-1.6016h-0.82031c-0.14974,0.5013 -0.32878,1.03517 -0.53711,1.6016zM263.1747,173.1582v2.8223h2.1387v-2.8223zM263.1747,177.7383v2.959h2.1387v-2.959z" fill="#ffffff" stroke-width="1"/><path d="M290.23,178.41v7.7344c0,0.5013 0.21485,0.80403 0.64454,0.9082c0.44271,0.11068 1.45507,0.16602 3.0371,0.16602c1.54293,0 2.5618,-0.07813 3.0566,-0.23438c0.27995,-0.09115 0.46224,-0.34505 0.54687,-0.76172c0.11068,-0.58593 0.16927,-1.2793 0.17578,-2.0801l2.041,0.57618c-0.10417,1.9206 -0.36784,3.1478 -0.79102,3.6816c-0.27995,0.35156 -0.70311,0.55989 -1.2695,0.625c-0.89193,0.09765 -2.4056,0.14648 -4.541,0.14648c-1.65367,0 -2.73767,-0.04557 -3.252,-0.13672c-0.77473,-0.13021 -1.26627,-0.47201 -1.4746,-1.0254c-0.10417,-0.29297 -0.15625,-0.6836 -0.15625,-1.1719v-7.7441l-1.8652,0.64453l-0.45899,-1.8945l2.3242,-0.80078v-5.2637h1.9824v4.5801l2.0996,-0.71289v-5.1465h1.9629v4.4629l3.2715,-1.123l1.0254,0.625v7.3144c0,0.50781 -0.12044,0.88541 -0.36133,1.1328c-0.27343,0.27343 -0.73243,0.41015 -1.377,0.41015c-0.52735,0 -1.08725,-0.04557 -1.6797,-0.13672l-0.32226,-1.8652c0.38411,0.09765 0.77475,0.14648 1.1719,0.14648c0.28646,0 0.46224,-0.05859 0.52734,-0.17578c0.06513,-0.09765 0.0977,-0.26041 0.0977,-0.48828v-4.6191l-2.3535,0.82031v7.9004h-1.9629v-7.2266zM283.0523,175.2166v-4.7168h2.0996v4.7168h1.8945v1.9824h-1.8945v6.2109c0.6836,-0.23437 1.36067,-0.47851 2.0312,-0.73242l0.18555,1.8848c-2.1094,0.96353 -4.2741,1.77083 -6.4941,2.4219l-0.6836,-2.0801c1.0026,-0.26041 1.8815,-0.50781 2.6367,-0.74218c0.09115,-0.03253 0.16602,-0.05533 0.22461,-0.0684v-6.8945h-2.4805v-1.9824z" fill="#ffffff" stroke-width="1"/><path d="M309.48,175.76c-0.0456,1.08727 -0.1107,2.0443 -0.19531,2.8711h7.8711c-0.09765,4.51827 -0.35156,7.4512 -0.76172,8.7988c-0.20833,0.67707 -0.5957,1.1458 -1.1621,1.4062c-0.44271,0.20182 -1.09051,0.30273 -1.9434,0.30273c-0.89847,0 -1.91733,-0.06836 -3.0566,-0.20507l-0.38085,-2.1973c1.52993,0.21485 2.6074,0.32227 3.2324,0.32227c0.52734,0 0.86264,-0.14974 1.0059,-0.44922c0.34505,-0.7292 0.58593,-2.74093 0.72265,-6.0352h-5.8105c-0.21485,1.17187 -0.51758,2.1875 -0.90821,3.0469c-1.08727,2.37627 -2.90367,4.26103 -5.4492,5.6543l-1.543,-1.7188c2.55207,-1.32813 4.23827,-3.06967 5.0586,-5.2246c0.54687,-1.4388 0.90167,-3.62957 1.0644,-6.5723h-6.4648v-2.002h7.9785v-3.2617h2.2559v3.2617h8.2422v2.002z" fill="#ffffff" stroke-width="1"/><path d="M325.84,184.3c-1.79687,0.944 -3.36263,1.66667 -4.6973,2.168l-0.82031,-2.1484c2.08987,-0.70313 3.92907,-1.4323 5.5176,-2.1875v-4.375h-4.834v-2.0606h4.834v-5.1953h2.1777v19.004h-2.1777zM332.7834,176.6926c1.51693,-0.79427 2.9883,-1.80337 4.4141,-3.0273l1.6211,1.6992c-1.92707,1.3672 -3.9388,2.53257 -6.0352,3.4961v7.3242c0,0.31901 0.10417,0.51433 0.3125,0.58594c0.22135,0.07161 0.73242,0.10742 1.5332,0.10742c1.05467,0 1.71547,-0.06185 1.9824,-0.18555c0.1888,-0.08463 0.31901,-0.3483 0.39062,-0.79101c0.09766,-0.61849 0.16928,-1.61783 0.21485,-2.998l2.1875,0.67383c-0.06513,1.6862 -0.1693,2.89713 -0.3125,3.6328c-0.16276,0.82033 -0.58919,1.35093 -1.2793,1.5918c-0.65755,0.22135 -1.73502,0.33203 -3.2324,0.33203c-1.7578,0 -2.86457,-0.14648 -3.3203,-0.43945c-0.4362,-0.28646 -0.6543,-0.83659 -0.6543,-1.6504v-16.543h2.1777z" fill="#ffffff" stroke-width="1"/><path d="M346.98,172.75h4.1797v1.8848h-1.377c-0.2474,0.99607 -0.57943,2.041 -0.9961,3.1348h2.6074v1.8848h-10.898v-1.8848h2.3926c-0.26041,-1.25 -0.53385,-2.29493 -0.82031,-3.1348h-1.2695v-1.8848h4.1406v-2.2559h2.041zM344.0406,174.6348c0.33203,0.97007 0.58919,2.015 0.77148,3.1348h1.9922l0.09766,-0.27344c0.27995,-0.7422 0.54036,-1.5853 0.78125,-2.5293l0.0879,-0.33203zM350.0953,181.295v7.998h-2.002v-0.95703h-4.2578v1.1621h-2.0606v-8.2031zM343.8355,183.0919v3.3887h4.2578v-3.3887zM356.8825,178.1603c0.77473,0.73567 1.38997,1.61133 1.8457,2.627c0.44922,1.0156 0.67383,2.04423 0.67383,3.0859c0,0.96353 -0.17904,1.67317 -0.53711,2.1289c-0.37109,0.47526 -0.98306,0.71289 -1.8359,0.71289c-0.7292,0 -1.43557,-0.05208 -2.1191,-0.15625l-0.47852,-2.0801c0.78773,0.14323 1.43877,0.21485 1.9531,0.21485c0.39063,0 0.63477,-0.09115 0.73242,-0.27344c0.06513,-0.13021 0.0977,-0.39062 0.0977,-0.78125c0,-1.60807 -0.48177,-2.9948 -1.4453,-4.1602c-0.25391,-0.30599 -0.57292,-0.63476 -0.95703,-0.98633l0.11719,-0.27343c0.67707,-1.52993 1.2044,-3.125 1.582,-4.7852h-2.5v16.064h-2.0215v-18.086h5.8789l1.084,0.99609c-0.65755,2.2396 -1.34765,4.15693 -2.0703,5.752z" fill="#ffffff" stroke-width="1"/></g></g></svg>