<svg version="1.1" xmlns="http://www.w3.org/2000/svg" xmlns:xlink="http://www.w3.org/1999/xlink" width="208" height="32" viewBox="0,0,208,32"><g transform="translate(-240,-164)"><g data-paper-data="{&quot;isPaintingLayer&quot;:true}" fill-rule="nonzero" stroke="none" stroke-linecap="butt" stroke-linejoin="miter" stroke-miterlimit="10" stroke-dasharray="" stroke-dashoffset="0" style="mix-blend-mode: normal"><path d="M240,196v-32h208v32z" fill="none" stroke-width="0"/><path d="M242.69,173.68h13.438v2.0996h-13.438zM240.7076,184.862h17.402v2.1191h-17.402z" fill="#ffffff" stroke-width="1"/><path d="M261.66,175.69h9.8242c-0.15625,2.88413 -0.46549,6.14587 -0.92773,9.7852l-0.0879,0.68359h3.6914v1.8555h-14.355v-1.8555h8.5644c0.5013,-3.50913 0.80078,-6.38023 0.89844,-8.6133h-7.6074z" fill="#ffffff" stroke-width="1"/><path d="M276.58,178.55h17.197v2.1973h-17.197z" fill="#ffffff" stroke-width="1"/><path d="M303.39,175.67c-1.9206,-0.8594 -3.88023,-1.5788 -5.8789,-2.1582l0.63476,-1.9336c2.2526,0.55989 4.2285,1.24349 5.9277,2.0508zM301.388,180.67c-1.6016,-0.70313 -3.56123,-1.42253 -5.8789,-2.1582l0.83985,-1.9531c1.9922,0.52735 3.9258,1.22721 5.8008,2.0996zM296.7689,186.0509c2.51953,-0.20183 4.51823,-0.56316 5.9961,-1.084c3.80207,-1.34767 6.23047,-4.4043 7.2852,-9.1699l2.002,1.2012c-0.86587,3.65233 -2.48047,6.37043 -4.8438,8.1543c-1.54947,1.17187 -3.47003,2.0052 -5.7617,2.5c-1.10027,0.24089 -2.45117,0.4362 -4.0527,0.58594zM309.1319,174.7519c-0.41667,-1.02867 -1.084,-2.1745 -2.002,-3.4375l1.543,-0.55664c0.8268,1.1198 1.49087,2.2526 1.9922,3.3984zM312.0909,174.21479c-0.54036,-1.28253 -1.19466,-2.4414 -1.9629,-3.4766l1.4453,-0.46875c0.77473,0.8984 1.43227,1.99867 1.9726,3.3008z" fill="#ffffff" stroke-width="1"/><path d="M314.82,178.55h17.197v2.1973h-17.197z" fill="#ffffff" stroke-width="1"/><path d="M335.72,171.91h12.881v2.002h-12.881zM334.3235,176.6952h16.26c-0.28646,2.83853 -0.87893,5.0586 -1.7774,6.6602c-0.67707,1.2044 -1.52343,2.1647 -2.5391,2.8809c-1.71873,1.22393 -4.21873,2.06377 -7.5,2.5195l-0.98633,-1.9824c2.89713,-0.27995 5.11393,-0.94401 6.6504,-1.9922c1.9922,-1.34767 3.13477,-3.37567 3.4277,-6.084h-13.535z" fill="#ffffff" stroke-width="1"/><path d="M360.21,176.36c-2.05727,-0.918 -4.19593,-1.65367 -6.416,-2.207l0.6836,-2.0996c2.5716,0.58594 4.7298,1.31511 6.4746,2.1875zM354.0381,186.0768c3.22267,-0.27344 5.69013,-0.84961 7.4024,-1.7285c2.0182,-1.04167 3.56767,-2.63997 4.6484,-4.7949c0.70313,-1.3932 1.2728,-3.21613 1.709,-5.4688l1.875,1.377c-0.52735,2.40887 -1.16538,4.32293 -1.9141,5.7422c-1.35413,2.58467 -3.42443,4.4564 -6.2109,5.6152c-1.7578,0.7292 -4.10807,1.25003 -7.0508,1.5625z" fill="#ffffff" stroke-width="1"/><path d="M373.51,171.05h2.2754v5.8008c3.88673,1.2044 7.10613,2.4316 9.6582,3.6816l-1.0938,2.0996c-2.44793,-1.24347 -5.30273,-2.4251 -8.5644,-3.5449v9.7266h-2.2754zM382.0744,176.3137c-0.39713,-1.03513 -1.05793,-2.2428 -1.9824,-3.623l1.5137,-0.55664c0.80727,1.11327 1.4811,2.29817 2.0215,3.5547zM384.8674,175.66917c-0.48828,-1.263 -1.13931,-2.47393 -1.9531,-3.6328l1.4551,-0.47852c0.73567,0.89193 1.39647,2.02473 1.9824,3.3984z" fill="#ffffff" stroke-width="1"/><path d="M392.9,175.96v13.545h-2.1191v-10.029c-0.52735,0.7422 -1.13931,1.51043 -1.8359,2.3047l-1.1035,-2.0996c1.3216,-1.46487 2.4544,-3.1706 3.3984,-5.1172c0.57292,-1.1784 1.14585,-2.58467 1.7188,-4.2188l2.041,0.55664c-0.59245,1.78387 -1.29231,3.47007 -2.0996,5.0586zM404.023,175.10063h2.9394v1.9629h-2.9394v10.254c0,0.8594 -0.20833,1.43233 -0.625,1.7188c-0.30599,0.21485 -0.88216,0.32227 -1.7285,0.32227c-1.03513,0 -2.09633,-0.05859 -3.1836,-0.17578l-0.41992,-2.1387c1.15887,0.16927 2.2396,0.2539 3.2422,0.2539c0.27344,0 0.43946,-0.05859 0.49805,-0.17578c0.03907,-0.08463 0.0586,-0.22461 0.0586,-0.41992v-9.6387h-7.9883v-1.9629h7.9883v-4.2578h2.1582zM397.8414,184.56353c-0.73567,-1.95967 -1.64387,-3.74677 -2.7246,-5.3613l1.8652,-1.084c1.17187,1.72527 2.11263,3.49283 2.8223,5.3027z" fill="#ffffff" stroke-width="1"/><path d="M412.98,185.06c0.52083,0.60547 1.10677,1.05471 1.7578,1.3477c1.06773,0.48177 2.46747,0.72266 4.1992,0.72266h8.3203c-0.23437,0.44271 -0.45247,1.07747 -0.6543,1.9043h-7.7637c-2.2396,0 -3.9551,-0.35157 -5.1465,-1.0547c-0.48829,-0.29297 -1.02539,-0.77151 -1.6113,-1.4356c-0.0456,0.05207 -0.10094,0.11717 -0.16602,0.19531c-0.957,1.1328 -1.90753,2.05727 -2.8516,2.7734l-1.1816,-2.002c1.03513,-0.61849 2.03447,-1.31836 2.998,-2.0996v-4.8242h-2.8418v-1.9238h4.9414zM415.5191,172.101l0.51758,-0.0391c3.01433,-0.20833 5.72267,-0.6543 8.125,-1.3379l1.5234,1.7188c-2.52607,0.66406 -5.22137,1.11326 -8.0859,1.3476v2.5293h9.043v1.9043h-3.2812v7.959h-2.1582v-7.959h-3.6035c-0.03253,2.08987 -0.18878,3.75327 -0.46875,4.9902c-0.25391,1.13933 -0.67057,2.16147 -1.25,3.0664l-1.7969,-1.3574c0.64453,-1.0026 1.05793,-2.2461 1.2402,-3.7305c0.13021,-1.02213 0.19531,-2.4121 0.19531,-4.1699zM411.9058,175.9194c-0.99607,-1.40627 -2.0703,-2.66603 -3.2227,-3.7793l1.6016,-1.2793c1.1198,0.93747 2.2461,2.12887 3.3789,3.5742z" fill="#ffffff" stroke-width="1"/></g></g></svg>