<svg version="1.1" xmlns="http://www.w3.org/2000/svg" xmlns:xlink="http://www.w3.org/1999/xlink" width="208" height="32" viewBox="0,0,208,32"><g transform="translate(-240,-164)"><g data-paper-data="{&quot;isPaintingLayer&quot;:true}" fill-rule="nonzero" stroke="none" stroke-linecap="butt" stroke-linejoin="miter" stroke-miterlimit="10" stroke-dasharray="" stroke-dashoffset="0" style="mix-blend-mode: normal"><path d="M240,196v-32h208v32z" fill="none" stroke-width="0"/><path d="M243.48,177.85c-0.8724,-1.19793 -1.8392,-2.29493 -2.9004,-3.291l1.2207,-1.3965c0.22787,0.20833 0.4069,0.38086 0.53711,0.51758c0.6836,-0.91147 1.35743,-2.0052 2.0215,-3.2812l1.7676,0.97656c-0.76173,1.23047 -1.64713,2.4121 -2.6562,3.5449c0.46224,0.54688 0.85937,1.05795 1.1914,1.5332c0.03253,-0.03907 0.06183,-0.07487 0.0879,-0.10742c0.91147,-1.08727 1.84897,-2.321 2.8125,-3.7012l1.5625,1.1328c-1.39973,1.88153 -2.9655,3.69143 -4.6973,5.4297c1.16533,-0.07161 2.16143,-0.14974 2.9883,-0.23437c-0.17578,-0.51433 -0.38086,-1.03189 -0.61524,-1.5527l1.6211,-0.55664c0.58593,1.17187 1.0612,2.54557 1.4258,4.1211l-1.6797,0.71289c-0.07813,-0.35807 -0.15951,-0.69987 -0.24414,-1.0254l-0.0684,-0.24414c-0.52734,0.08463 -1.00911,0.15625 -1.4453,0.21484l-0.2832,0.0391v8.8184h-1.9629v-8.5938l-0.27344,0.0293c-0.96353,0.09765 -1.96613,0.17903 -3.0078,0.24414l-0.40039,-1.8164c0.30599,-0.013 0.61849,-0.02277 0.9375,-0.0293l0.74218,-0.0293c0.38411,-0.39713 0.82358,-0.88217 1.3184,-1.4551zM252.3179,179.8812v6.1816c0,0.48828 0.14974,0.7845 0.44922,0.88867c0.20183,0.06513 0.71939,0.0977 1.5527,0.0977c1.0742,0 1.80987,-0.03906 2.207,-0.11719c0.29948,-0.0586 0.5013,-0.21159 0.60547,-0.45898c0.19531,-0.47526 0.30924,-1.49089 0.34179,-3.0469l2.0801,0.61524c-0.11719,2.14193 -0.33203,3.4733 -0.64453,3.9941c-0.24089,0.40365 -0.66082,0.67708 -1.2598,0.82031c-0.67707,0.16276 -1.735,0.24414 -3.1738,0.24414c-1.1784,0 -2.00847,-0.04232 -2.4902,-0.12695c-0.7552,-0.13021 -1.263,-0.43945 -1.5234,-0.92774c-0.16276,-0.29947 -0.24414,-0.69334 -0.24414,-1.1816v-8.8672h6.2207v-4.5117h-6.6602v-1.9043h8.7207v8.3008zM240.5989,187.2738c0.48177,-1.52347 0.79427,-3.2292 0.9375,-5.1172l1.8652,0.21485c-0.10417,2.207 -0.40365,4.10803 -0.89844,5.7031zM247.6595,186.85388c-0.30599,-1.77733 -0.63151,-3.2617 -0.97656,-4.4531l1.6406,-0.48828c0.48177,1.25653 0.86591,2.6628 1.1524,4.2188z" fill="#ffffff" stroke-width="1"/><path d="M278.09,175.78h1.5039v1.7969h-1.5039v4.5996h-4.9805c-0.11719,1.8034 -0.49152,3.2487 -1.123,4.3359c-0.8008,1.38673 -1.81967,2.46097 -3.0566,3.2227l-1.5625,-1.5625c1.1914,-0.69013 2.1354,-1.6309 2.832,-2.8223c0.46224,-0.8008 0.73568,-1.85873 0.82031,-3.1738h-4.0527v-1.8164h4.082v-2.7832h-5.5762v-1.7969h5.5762v-2.6074h-3.7793v-1.8164h10.82zM276.0294,175.78v-2.6074h-2.9004v2.6074zM276.0294,177.5769h-2.9004v2.7832h2.9004zM264.9654,175.3406v14.16h-2.0996v-10.02c-0.48177,0.79427 -1.02864,1.61457 -1.6406,2.4609l-0.99609,-2.1777c1.10027,-1.49087 2.03127,-3.2031 2.793,-5.1367c0.47526,-1.19793 0.94399,-2.62047 1.4062,-4.2676l2.1191,0.53711c-0.50781,1.6992 -1.03515,3.18033 -1.582,4.4434z" fill="#ffffff" stroke-width="1"/><path d="M291.25,174.2c0.27995,1.24347 0.72591,2.4772 1.3379,3.7012c1.6732,-1.41273 3.18037,-2.93293 4.5215,-4.5606l1.7774,1.4746c-1.84247,1.9922 -3.6198,3.57097 -5.332,4.7363c0.03253,0.0456 0.06507,0.09443 0.0976,0.14649c1.41927,2.15493 3.47007,4.04947 6.1524,5.6836l-1.3965,1.9141c-3.10547,-1.86847 -5.49153,-4.5996 -7.1582,-8.1934v8.5156c0,0.64453 -0.15625,1.09699 -0.46875,1.3574c-0.31901,0.26693 -0.90168,0.40039 -1.748,0.40039c-1.00913,0 -1.92383,-0.05208 -2.7441,-0.15625l-0.40039,-2.2168c1.12627,0.15625 2.00517,0.23438 2.6367,0.23438c0.27344,0 0.4362,-0.05859 0.48828,-0.17578c0.03907,-0.07813 0.0586,-0.19857 0.0586,-0.36133v-16.201h2.1778zM280.84,175.2742h6.4746l1.084,1.0644c-0.37761,1.96613 -0.87891,3.6393 -1.5039,5.0195c-0.89847,1.9792 -2.1745,3.74353 -3.8281,5.293c-0.33203,0.3125 -0.77473,0.69337 -1.3281,1.1426l-1.543,-1.7383c3.125,-2.2526 5.05207,-5.19207 5.7812,-8.8184h-5.1367z" fill="#ffffff" stroke-width="1"/><path d="M305.22,184.92c0.6706,0.79427 1.48113,1.36067 2.4316,1.6992c0.98307,0.34505 2.29817,0.51758 3.9453,0.51758h8.2031c-0.2474,0.61198 -0.44922,1.25978 -0.60547,1.9434h-8.0957c-2.194,0 -3.8509,-0.3418 -4.9707,-1.0254c-0.51432,-0.3125 -1.06119,-0.78123 -1.6406,-1.4062c-0.87893,1.10027 -1.87503,2.07033 -2.9883,2.9102l-1.2012,-1.9629c0.99607,-0.57292 1.94333,-1.24999 2.8418,-2.0312v-4.9805h-2.6465v-1.9238h4.7266zM311.3821,174.451h-5.3027v-1.6797h3.1152c-0.35157,-0.57292 -0.72267,-1.11979 -1.1133,-1.6406l1.9336,-0.70312c0.55339,0.8268 0.98959,1.60807 1.3086,2.3438h2.5c0.26042,-0.52735 0.57618,-1.31511 0.94727,-2.3633l2.1875,0.45898c-0.29948,0.65755 -0.63478,1.29232 -1.0059,1.9043h3.2617v1.6797h-5.752c-0.16276,0.50131 -0.33529,0.98307 -0.51758,1.4453h5.0293v10.078h-10.674v-10.078h3.623c0.17579,-0.50131 0.32878,-0.98307 0.45899,-1.4453zM309.3215,177.3123v1.4648h6.6113v-1.4648zM309.3215,180.0955v1.4844h6.6113v-1.4844zM309.3215,182.9568v1.5332h6.6113v-1.5332zM303.8332,175.7986c-0.93747,-1.4844 -1.9368,-2.73767 -2.998,-3.7598l1.6211,-1.2793c1.25,1.15887 2.28517,2.3568 3.1055,3.5938z" fill="#ffffff" stroke-width="1"/></g></g></svg>