<svg version="1.1" xmlns="http://www.w3.org/2000/svg" xmlns:xlink="http://www.w3.org/1999/xlink" width="48.25808" height="33.60865" viewBox="0,0,48.25808,33.60865"><g transform="translate(28.1543,-79.81047)"><g data-paper-data="{&quot;isPaintingLayer&quot;:true}" fill="#ff0000" fill-rule="evenodd" stroke="none" stroke-width="0" stroke-linecap="round" stroke-linejoin="round" stroke-miterlimit="10" stroke-dasharray="" stroke-dashoffset="0" style="mix-blend-mode: normal"><path d="M13.04405,81.1204l-1.36995,1.59994l-0.13999,1.61994l-0.97996,2.96988l0.76997,1.34995l-0.62997,1.18995l0.40998,1.60994l1.32995,0.16999l0.60998,0.54998l1.21995,-0.36999l1.76993,2.29991l-0.94996,1.55994l2.5399,0.82997l2.4799,1.27995l-0.98996,1.23995l-1.37994,0.64997l-0.29999,1.30995l-1.70993,-0.30999l-1.78993,1.15995l-1.01996,-0.53998l-1.54994,0.87996l-0.87996,0.98996l-1.37994,-0.08l-0.36999,1.36995l0.41998,0.50998l-0.67997,1.34995l-1.83993,0.03l-2.5399,1.55994l-1.93992,0.18999l0.38998,2.4599l-1.02996,0.50998l-1.18995,1.78993l-1.15995,0.56998l-1.39994,-0.45998l-0.28999,-1.49994l-0.75997,-0.66997l0.16999,-0.80997l-1.57994,-1.94992l-1.77993,-0.81997l-0.86997,-1.10996l-0.99996,0.05l-0.82997,-1.08996l-2.15991,0.01l-1.80993,-0.98996l-1.28995,-0.21999l-0.42998,0.73997l-1.43994,0.18999l-1.16995,-0.57998l-1.64993,-1.50994l-1.75993,-0.38998l-0.93996,0.34999l-2.5799,-1.00996l-1.09996,-0.85997l-0.49998,-0.85997l-0.83997,0.46998l-1.30995,-1.04996l0.18999,-2.12991l1.57994,-0.14999l0.61998,-0.82997l-0.19999,-0.87996l0.28999,-1.51994l-0.80997,-2.5099l1.01996,-0.17999l0.35999,-1.16995l0.73997,-0.69997l0.30999,-1.60994l-0.22999,-1.91992l0.33999,-1.79993l-0.12,-2.81989l0.83997,-1.22995l2.4999,0.32999l3.86985,1.60994l3.22987,-0.19999l2.03992,0.62997l3.05988,0.24999l4.46982,-0.01l4.61981,-0.30999l5.0898,-0.49998l3.62985,-0.55998l1.25995,-0.89996l0.67997,0.26999l1.24995,-0.69997l0.56998,1.30995M4.85438,83.82029l-1.20995,2.25991l1.22995,0.95996l1.39994,-0.92996l-0.92996,-1.51994l0.54998,-1.01996l-1.03996,0.24999"/></g></g></svg>