<svg xmlns="http://www.w3.org/2000/svg" viewBox="0 0 400 400" version="1.1" height="400" width="400"><defs><radialGradient gradientUnits="userSpaceOnUse" gradientTransform="translate(-40,20)" r="200" cy="180" cx="240" id="a"><stop offset="0" stop-color="#f6cb51"></stop><stop offset=".4" stop-color="#f6cb51"></stop><stop offset=".55" stop-opacity=".5607843" stop-color="#f6cb51"></stop><stop offset=".7" stop-opacity=".2509804" stop-color="#f6cb51"></stop><stop offset=".85" stop-opacity=".05882353" stop-color="#f6cb51"></stop><stop offset="1" stop-opacity="0" stop-color="#f6cb51"></stop></radialGradient></defs><g stroke-miterlimit="10"><path style="mix-blend-mode:normal" stroke-width="0" fill="none" d="m0 400v-400h400v400z"></path><path style="mix-blend-mode:normal" opacity=".08" fill-rule="evenodd" fill="url(#a)" d="m0 200c0-110.46 89.543-200 200-200s200 89.543 200 200-89.543 200-200 200-200-89.543-200-200z"></path><path stroke-width="13" stroke-linejoin="round" stroke-linecap="round" stroke="#cea735" stop-color="#000000" fill-rule="evenodd" fill="#f6cb51" d="m284.5 200c0 58.335-26.165 84.5-84.5 84.5s-84.5-26.165-84.5-84.5 26.165-84.5 84.5-84.5 84.5 26.165 84.5 84.5z"></path></g><path style="font-feature-settings:normal;font-variant-alternates:normal;font-variant-caps:normal;font-variant-east-asian:normal;font-variant-ligatures:normal;font-variant-numeric:normal;font-variant-position:normal;font-variation-settings:normal;inline-size:0;isolation:auto;mix-blend-mode:normal;shape-margin:0;shape-padding:0;text-decoration-color:#000000;text-decoration-line:none;text-decoration-style:solid;text-indent:0;text-orientation:mixed;text-transform:none;white-space:normal" stop-color="#000000" shape-rendering="auto" image-rendering="auto" fill="#1c1c1c" color-rendering="auto" color="#000000" d="m201.59 144.89c-14.696 0-27.552 4.3718-38.431 13.091l-0.75971 0.61004 10.297 12.712 0.75402-0.6271c8.7034-7.2256 17.675-10.78 27.014-10.78 5.1482 0 9.357 1.1475 12.714 3.3988 3.7865 2.5653 5.5718 5.8529 5.5718 10.198 0 5.2692-2.4626 9.2714-7.7107 12.356h-2e-3c-4.259 2.5079-9.9804 3.8042-17.2 3.8042h-9.6602v0.97l2e-3 14.412h9.2851c6.8601 0 12.685 1.0689 17.492 3.1696h2e-3c7.118 3.0966 10.482 8.0713 10.482 15.429 0 5.3727-1.696 9.141-5.1077 11.661l-4e-3 2e-3 -2e-3 2e-3c-3.5723 2.669-8.6197 4.0581-15.236 4.0581-5.8517 0-11.905-1.3596-18.18-4.1073l-2e-3 -2e-3c-5.1525-2.2492-9.329-5.0936-12.561-8.5273l-0.74645-0.7957-10.719 12.777 0.63845 0.62899c10.605 10.435 24.49 15.658 41.443 15.658 10.75 0 19.523-2.0208 26.266-6.144v-2e-3c8.9588-5.4866 13.531-13.943 13.531-24.959 0-7.5836-2.4653-13.799-7.3716-18.402h-2e-3c-4.0926-3.8294-9.7995-6.4414-16.888-8.0252 5.2607-1.2249 9.7126-3.39 13.197-6.6233l2e-3 -2e-3c5.375-5.031 8.1238-11.195 8.1238-18.277 0-9.1929-3.9908-16.486-11.761-21.509l-2e-3 -2e-3c-6.444-4.1242-14.625-6.1553-24.47-6.1553z"></path></svg>
